	.include "MPlayDef.s"

	.equ	p600_grp, voicegroup000
	.equ	p600_pri, 0
	.equ	p600_rev, 0
	.equ	p600_mvl, 69
	.equ	p600_key, 0
	.equ	p600_tbs, 1
	.equ	p600_exg, 0
	.equ	p600_cmp, 1

	.section .rodata
	.global	p600
	.align	2

@**************** Track 1 (Midi-Chn.1) ****************@

p600_1:
	.byte	KEYSH , p600_key+0
p600_1_B1:
@ 000   ----------------------------------------
	.byte	TEMPO , 140*p600_tbs/2
	.byte		VOICE , 38
	.byte		VOL   , 127*p600_mvl/mxv
	.byte		N06   , An1 , v080
	.byte	W12
	.byte		        An1 , v040
	.byte	W12
	.byte		        An1 , v080
	.byte	W12
	.byte		        An1 , v040
	.byte	W12
@ 001   ----------------------------------------
p600_1_001:
	.byte		N06   , An1 , v080
	.byte	W12
	.byte		        An1 , v040
	.byte	W12
	.byte		        An1 , v080
	.byte	W12
	.byte		        An1 , v040
	.byte	W12
	.byte	PEND
@ 002   ----------------------------------------
	.byte	PATT
	 .word	p600_1_001
@ 003   ----------------------------------------
	.byte	PATT
	 .word	p600_1_001
@ 004   ----------------------------------------
	.byte	PATT
	 .word	p600_1_001
@ 005   ----------------------------------------
	.byte	PATT
	 .word	p600_1_001
@ 006   ----------------------------------------
	.byte	PATT
	 .word	p600_1_001
@ 007   ----------------------------------------
	.byte	PATT
	 .word	p600_1_001
@ 008   ----------------------------------------
	.byte	PATT
	 .word	p600_1_001
@ 009   ----------------------------------------
	.byte	PATT
	 .word	p600_1_001
@ 010   ----------------------------------------
	.byte	PATT
	 .word	p600_1_001
@ 011   ----------------------------------------
	.byte	PATT
	 .word	p600_1_001
@ 012   ----------------------------------------
	.byte	PATT
	 .word	p600_1_001
@ 013   ----------------------------------------
	.byte	PATT
	 .word	p600_1_001
@ 014   ----------------------------------------
	.byte	PATT
	 .word	p600_1_001
@ 015   ----------------------------------------
	.byte	PATT
	 .word	p600_1_001
@ 016   ----------------------------------------
	.byte	PATT
	 .word	p600_1_001
@ 017   ----------------------------------------
	.byte	PATT
	 .word	p600_1_001
@ 018   ----------------------------------------
	.byte	PATT
	 .word	p600_1_001
@ 019   ----------------------------------------
	.byte	PATT
	 .word	p600_1_001
@ 020   ----------------------------------------
	.byte	PATT
	 .word	p600_1_001
@ 021   ----------------------------------------
	.byte	PATT
	 .word	p600_1_001
@ 022   ----------------------------------------
	.byte	PATT
	 .word	p600_1_001
@ 023   ----------------------------------------
	.byte	PATT
	 .word	p600_1_001
@ 024   ----------------------------------------
	.byte	PATT
	 .word	p600_1_001
@ 025   ----------------------------------------
	.byte	PATT
	 .word	p600_1_001
@ 026   ----------------------------------------
	.byte	PATT
	 .word	p600_1_001
@ 027   ----------------------------------------
	.byte	PATT
	 .word	p600_1_001
@ 028   ----------------------------------------
	.byte	PATT
	 .word	p600_1_001
@ 029   ----------------------------------------
	.byte	PATT
	 .word	p600_1_001
@ 030   ----------------------------------------
	.byte	PATT
	 .word	p600_1_001
@ 031   ----------------------------------------
	.byte	PATT
	 .word	p600_1_001
@ 032   ----------------------------------------
	.byte	PATT
	 .word	p600_1_001
@ 033   ----------------------------------------
	.byte	PATT
	 .word	p600_1_001
@ 034   ----------------------------------------
	.byte	PATT
	 .word	p600_1_001
@ 035   ----------------------------------------
	.byte	PATT
	 .word	p600_1_001
@ 036   ----------------------------------------
	.byte	PATT
	 .word	p600_1_001
@ 037   ----------------------------------------
	.byte	PATT
	 .word	p600_1_001
@ 038   ----------------------------------------
	.byte	PATT
	 .word	p600_1_001
@ 039   ----------------------------------------
	.byte	PATT
	 .word	p600_1_001
@ 040   ----------------------------------------
	.byte	PATT
	 .word	p600_1_001
@ 041   ----------------------------------------
	.byte	PATT
	 .word	p600_1_001
@ 042   ----------------------------------------
	.byte	PATT
	 .word	p600_1_001
@ 043   ----------------------------------------
	.byte	PATT
	 .word	p600_1_001
@ 044   ----------------------------------------
	.byte	PATT
	 .word	p600_1_001
@ 045   ----------------------------------------
	.byte	PATT
	 .word	p600_1_001
@ 046   ----------------------------------------
	.byte	PATT
	 .word	p600_1_001
@ 047   ----------------------------------------
	.byte	PATT
	 .word	p600_1_001
@ 048   ----------------------------------------
	.byte	PATT
	 .word	p600_1_001
@ 049   ----------------------------------------
	.byte	PATT
	 .word	p600_1_001
@ 050   ----------------------------------------
	.byte	PATT
	 .word	p600_1_001
@ 051   ----------------------------------------
	.byte	PATT
	 .word	p600_1_001
@ 052   ----------------------------------------
	.byte		GOTO
	.word p600_1_B1
p600_1_B2:
	.byte	FINE

@**************** Track 2 (Midi-Chn.2) ****************@

p600_2:
	.byte	KEYSH , p600_key+0
p600_2_B1:
@ 000   ----------------------------------------
	.byte		VOICE , 109
	.byte		VOL   , 127*p600_mvl/mxv
	.byte	W48
@ 001   ----------------------------------------
	.byte	W48
@ 002   ----------------------------------------
	.byte	W48
@ 003   ----------------------------------------
	.byte	W48
@ 004   ----------------------------------------
	.byte	W48
@ 005   ----------------------------------------
	.byte	W48
@ 006   ----------------------------------------
	.byte	W48
@ 007   ----------------------------------------
	.byte	W48
@ 008   ----------------------------------------
	.byte	W48
@ 009   ----------------------------------------
	.byte	W48
@ 010   ----------------------------------------
	.byte	W48
@ 011   ----------------------------------------
	.byte	W48
@ 012   ----------------------------------------
	.byte	W48
@ 013   ----------------------------------------
	.byte	W48
@ 014   ----------------------------------------
	.byte	W48
@ 015   ----------------------------------------
	.byte	W48
@ 016   ----------------------------------------
	.byte		N44   , En3 , v100
	.byte		N44   , Cn4 
	.byte	W48
@ 017   ----------------------------------------
p600_2_017:
	.byte		TIE   , En3 , v100
	.byte		TIE   , An3 
	.byte	W48
	.byte	PEND
@ 018   ----------------------------------------
	.byte	W48
@ 019   ----------------------------------------
	.byte	W11
	.byte		EOT   
	.byte	W13
	.byte		N23   
	.byte	W23
	.byte		EOT   , En3 
	.byte	W01
@ 020   ----------------------------------------
	.byte		N44   , An3 
	.byte		N44   , Dn4 
	.byte	W48
@ 021   ----------------------------------------
	.byte		TIE   , En3 
	.byte		TIE   , Bn3 
	.byte	W48
@ 022   ----------------------------------------
	.byte	W48
@ 023   ----------------------------------------
	.byte	W11
	.byte		EOT   
	.byte	W13
	.byte		N23   , An3 
	.byte	W23
	.byte		EOT   , En3 
	.byte	W01
@ 024   ----------------------------------------
	.byte		N44   , Cn4 
	.byte		N44   , En4 
	.byte	W48
@ 025   ----------------------------------------
	.byte		TIE   , An3 
	.byte		TIE   , Cn4 
	.byte	W48
@ 026   ----------------------------------------
	.byte	W48
@ 027   ----------------------------------------
	.byte	W11
	.byte		EOT   , An3 
	.byte		        Cn4 
	.byte	W13
	.byte		N23   , An3 
	.byte		N23   , Cn4 
	.byte	W24
@ 028   ----------------------------------------
	.byte		N32   , An3 
	.byte		N32   , Dn4 
	.byte	W48
@ 029   ----------------------------------------
	.byte		        Cn4 
	.byte		N32   , Fn4 
	.byte	W48
@ 030   ----------------------------------------
	.byte		N80   , Cn4 
	.byte		N80   , En4 
	.byte	W48
@ 031   ----------------------------------------
	.byte	W48
@ 032   ----------------------------------------
	.byte		N84   
	.byte		N84   , An4 
	.byte	W48
@ 033   ----------------------------------------
	.byte	W48
@ 034   ----------------------------------------
	.byte		        Cn4 
	.byte		N84   , Fn4 
	.byte	W48
@ 035   ----------------------------------------
	.byte	W48
@ 036   ----------------------------------------
	.byte		        An3 
	.byte		N84   , Dn4 
	.byte	W48
@ 037   ----------------------------------------
	.byte	W48
@ 038   ----------------------------------------
	.byte		        An3 
	.byte		N84   , En4 
	.byte	W48
@ 039   ----------------------------------------
	.byte	W48
@ 040   ----------------------------------------
	.byte		        An3 
	.byte		N84   , Cn4 
	.byte	W48
@ 041   ----------------------------------------
	.byte	W48
@ 042   ----------------------------------------
	.byte		        En3 
	.byte		N84   , Bn3 
	.byte	W48
@ 043   ----------------------------------------
	.byte	W48
@ 044   ----------------------------------------
	.byte	PATT
	 .word	p600_2_017
@ 045   ----------------------------------------
	.byte	W48
@ 046   ----------------------------------------
	.byte	W48
@ 047   ----------------------------------------
	.byte	W36
	.byte		EOT   , En3 
	.byte		        An3 
	.byte	W12
@ 048   ----------------------------------------
	.byte		N06   , En3 , v112
	.byte		N06   , An3 
	.byte	W06
	.byte		        En3 , v076
	.byte		N06   , An3 
	.byte	W12
	.byte		        En3 , v112
	.byte		N06   , An3 
	.byte	W06
	.byte		        En3 , v076
	.byte		N06   , An3 
	.byte	W24
@ 049   ----------------------------------------
	.byte	W48
@ 050   ----------------------------------------
	.byte		        En3 , v112
	.byte		N06   , Cn4 
	.byte	W06
	.byte		        En3 , v076
	.byte		N06   , Cn4 
	.byte	W12
	.byte		        En3 , v112
	.byte		N06   , Cn4 
	.byte	W06
	.byte		        En3 , v076
	.byte		N06   , Cn4 
	.byte	W12
	.byte		        Fn3 , v112
	.byte		N06   , Dn4 
	.byte	W06
	.byte		        Fn3 , v076
	.byte		N06   , Dn4 
	.byte	W06
@ 051   ----------------------------------------
	.byte		        En3 , v112
	.byte		N06   , Cn4 
	.byte	W06
	.byte		        En3 , v076
	.byte		N06   , Cn4 
	.byte	W06
	.byte		        Dn3 , v112
	.byte		N06   , Bn3 
	.byte	W06
	.byte		        Dn3 , v076
	.byte		N06   , Bn3 
	.byte	W30
@ 052   ----------------------------------------
	.byte	GOTO
	.word p600_2_B1
p600_2_B2:
	.byte	FINE

@**************** Track 3 (Midi-Chn.3) ****************@

p600_3:
	.byte	KEYSH , p600_key+0
p600_3_B1:
@ 000   ----------------------------------------
	.byte		VOICE , 49
	.byte		VOL   , 127*p600_mvl/mxv
	.byte		PAN   , c_v+25
	.byte		N12   , En2 , v100
	.byte	W12
	.byte		        En2 , v060
	.byte	W12
	.byte		        En2 , v100
	.byte	W12
	.byte		        En2 , v060
	.byte	W12
@ 001   ----------------------------------------
p600_3_001:
	.byte		N12   , En2 , v100
	.byte	W12
	.byte		        En2 , v060
	.byte	W12
	.byte		        En2 , v100
	.byte	W12
	.byte		        En2 , v060
	.byte	W12
	.byte	PEND
@ 002   ----------------------------------------
	.byte	PATT
	 .word	p600_3_001
@ 003   ----------------------------------------
	.byte	PATT
	 .word	p600_3_001
@ 004   ----------------------------------------
p600_3_004:
	.byte		N12   , Dn2 , v100
	.byte	W12
	.byte		        Dn2 , v060
	.byte	W12
	.byte		        Dn2 , v100
	.byte	W12
	.byte		        Dn2 , v060
	.byte	W12
	.byte	PEND
@ 005   ----------------------------------------
	.byte	PATT
	 .word	p600_3_004
@ 006   ----------------------------------------
	.byte	PATT
	 .word	p600_3_004
@ 007   ----------------------------------------
	.byte	PATT
	 .word	p600_3_004
@ 008   ----------------------------------------
	.byte	PATT
	 .word	p600_3_001
@ 009   ----------------------------------------
	.byte	PATT
	 .word	p600_3_001
@ 010   ----------------------------------------
	.byte	PATT
	 .word	p600_3_001
@ 011   ----------------------------------------
	.byte	PATT
	 .word	p600_3_001
@ 012   ----------------------------------------
	.byte	PATT
	 .word	p600_3_004
@ 013   ----------------------------------------
p600_3_013:
	.byte		N12   , Fn2 , v100
	.byte	W12
	.byte		        Fn2 , v060
	.byte	W12
	.byte		        Fn2 , v100
	.byte	W12
	.byte		        Fn2 , v060
	.byte	W12
	.byte	PEND
@ 014   ----------------------------------------
	.byte	PATT
	 .word	p600_3_001
@ 015   ----------------------------------------
	.byte	PATT
	 .word	p600_3_001
@ 016   ----------------------------------------
	.byte	PATT
	 .word	p600_3_001
@ 017   ----------------------------------------
	.byte	PATT
	 .word	p600_3_001
@ 018   ----------------------------------------
	.byte	PATT
	 .word	p600_3_001
@ 019   ----------------------------------------
	.byte	PATT
	 .word	p600_3_001
@ 020   ----------------------------------------
	.byte	PATT
	 .word	p600_3_004
@ 021   ----------------------------------------
	.byte	PATT
	 .word	p600_3_004
@ 022   ----------------------------------------
	.byte	PATT
	 .word	p600_3_004
@ 023   ----------------------------------------
	.byte	PATT
	 .word	p600_3_004
@ 024   ----------------------------------------
	.byte	PATT
	 .word	p600_3_001
@ 025   ----------------------------------------
	.byte	PATT
	 .word	p600_3_001
@ 026   ----------------------------------------
	.byte	PATT
	 .word	p600_3_001
@ 027   ----------------------------------------
	.byte	PATT
	 .word	p600_3_001
@ 028   ----------------------------------------
	.byte	PATT
	 .word	p600_3_004
@ 029   ----------------------------------------
	.byte	PATT
	 .word	p600_3_013
@ 030   ----------------------------------------
	.byte	PATT
	 .word	p600_3_001
@ 031   ----------------------------------------
	.byte	PATT
	 .word	p600_3_001
@ 032   ----------------------------------------
	.byte	PATT
	 .word	p600_3_001
@ 033   ----------------------------------------
	.byte	PATT
	 .word	p600_3_001
@ 034   ----------------------------------------
	.byte	PATT
	 .word	p600_3_001
@ 035   ----------------------------------------
	.byte	PATT
	 .word	p600_3_001
@ 036   ----------------------------------------
	.byte	PATT
	 .word	p600_3_004
@ 037   ----------------------------------------
	.byte	PATT
	 .word	p600_3_004
@ 038   ----------------------------------------
	.byte	PATT
	 .word	p600_3_004
@ 039   ----------------------------------------
	.byte	PATT
	 .word	p600_3_004
@ 040   ----------------------------------------
	.byte	PATT
	 .word	p600_3_001
@ 041   ----------------------------------------
	.byte	PATT
	 .word	p600_3_001
@ 042   ----------------------------------------
	.byte	PATT
	 .word	p600_3_001
@ 043   ----------------------------------------
	.byte	PATT
	 .word	p600_3_001
@ 044   ----------------------------------------
	.byte	PATT
	 .word	p600_3_004
@ 045   ----------------------------------------
	.byte	PATT
	 .word	p600_3_013
@ 046   ----------------------------------------
	.byte	PATT
	 .word	p600_3_001
@ 047   ----------------------------------------
	.byte	PATT
	 .word	p600_3_001
@ 048   ----------------------------------------
	.byte	PATT
	 .word	p600_3_001
@ 049   ----------------------------------------
	.byte	PATT
	 .word	p600_3_001
@ 050   ----------------------------------------
	.byte	PATT
	 .word	p600_3_001
@ 051   ----------------------------------------
	.byte	PATT
	 .word	p600_3_001
@ 052   ----------------------------------------
	.byte	GOTO
	.word p600_3_B1
p600_3_B2:
	.byte	FINE

@**************** Track 4 (Midi-Chn.4) ****************@

p600_4:
	.byte	KEYSH , p600_key+0
p600_4_B1:
@ 000   ----------------------------------------
	.byte		VOICE , 109
	.byte		VOL   , 127*p600_mvl/mxv
	.byte		PAN   , c_v-25
	.byte		N12   , Cn4 , v100
	.byte	W12
	.byte		        Cn4 , v060
	.byte	W12
	.byte		        An3 , v100
	.byte	W12
	.byte		        An3 , v060
	.byte	W12
@ 001   ----------------------------------------
p600_4_001:
	.byte		N12   , Cn4 , v100
	.byte	W12
	.byte		        Cn4 , v060
	.byte	W12
	.byte		        An3 , v100
	.byte	W12
	.byte		        An3 , v060
	.byte	W12
	.byte	PEND
@ 002   ----------------------------------------
	.byte	PATT
	 .word	p600_4_001
@ 003   ----------------------------------------
	.byte	PATT
	 .word	p600_4_001
@ 004   ----------------------------------------
p600_4_004:
	.byte		N12   , Dn4 , v100
	.byte	W12
	.byte		        Dn4 , v060
	.byte	W12
	.byte		        An3 , v100
	.byte	W12
	.byte		        An3 , v060
	.byte	W12
	.byte	PEND
@ 005   ----------------------------------------
	.byte	PATT
	 .word	p600_4_004
@ 006   ----------------------------------------
	.byte	PATT
	 .word	p600_4_004
@ 007   ----------------------------------------
	.byte	PATT
	 .word	p600_4_004
@ 008   ----------------------------------------
p600_4_008:
	.byte		N12   , En4 , v100
	.byte	W12
	.byte		        En4 , v060
	.byte	W12
	.byte		        An3 , v100
	.byte	W12
	.byte		        An3 , v060
	.byte	W12
	.byte	PEND
@ 009   ----------------------------------------
	.byte	PATT
	 .word	p600_4_008
@ 010   ----------------------------------------
	.byte	PATT
	 .word	p600_4_008
@ 011   ----------------------------------------
	.byte	PATT
	 .word	p600_4_008
@ 012   ----------------------------------------
	.byte	PATT
	 .word	p600_4_004
@ 013   ----------------------------------------
p600_4_013:
	.byte		N12   , Fn4 , v100
	.byte	W12
	.byte		        Fn4 , v060
	.byte	W12
	.byte		        An3 , v100
	.byte	W12
	.byte		        An3 , v060
	.byte	W12
	.byte	PEND
@ 014   ----------------------------------------
	.byte	PATT
	 .word	p600_4_008
@ 015   ----------------------------------------
	.byte	PATT
	 .word	p600_4_008
@ 016   ----------------------------------------
	.byte	PATT
	 .word	p600_4_001
@ 017   ----------------------------------------
	.byte	PATT
	 .word	p600_4_001
@ 018   ----------------------------------------
	.byte	PATT
	 .word	p600_4_001
@ 019   ----------------------------------------
	.byte	PATT
	 .word	p600_4_001
@ 020   ----------------------------------------
	.byte	PATT
	 .word	p600_4_004
@ 021   ----------------------------------------
	.byte	PATT
	 .word	p600_4_004
@ 022   ----------------------------------------
	.byte	PATT
	 .word	p600_4_004
@ 023   ----------------------------------------
	.byte	PATT
	 .word	p600_4_004
@ 024   ----------------------------------------
	.byte	PATT
	 .word	p600_4_008
@ 025   ----------------------------------------
	.byte	PATT
	 .word	p600_4_008
@ 026   ----------------------------------------
	.byte	PATT
	 .word	p600_4_008
@ 027   ----------------------------------------
	.byte	PATT
	 .word	p600_4_008
@ 028   ----------------------------------------
	.byte	PATT
	 .word	p600_4_004
@ 029   ----------------------------------------
	.byte	PATT
	 .word	p600_4_013
@ 030   ----------------------------------------
	.byte	PATT
	 .word	p600_4_008
@ 031   ----------------------------------------
	.byte	PATT
	 .word	p600_4_008
@ 032   ----------------------------------------
	.byte	PATT
	 .word	p600_4_001
@ 033   ----------------------------------------
	.byte	PATT
	 .word	p600_4_001
@ 034   ----------------------------------------
	.byte	PATT
	 .word	p600_4_001
@ 035   ----------------------------------------
	.byte	PATT
	 .word	p600_4_001
@ 036   ----------------------------------------
	.byte	PATT
	 .word	p600_4_004
@ 037   ----------------------------------------
	.byte	PATT
	 .word	p600_4_004
@ 038   ----------------------------------------
	.byte	PATT
	 .word	p600_4_004
@ 039   ----------------------------------------
	.byte	PATT
	 .word	p600_4_004
@ 040   ----------------------------------------
	.byte	PATT
	 .word	p600_4_008
@ 041   ----------------------------------------
	.byte	PATT
	 .word	p600_4_008
@ 042   ----------------------------------------
	.byte	PATT
	 .word	p600_4_008
@ 043   ----------------------------------------
	.byte	PATT
	 .word	p600_4_008
@ 044   ----------------------------------------
	.byte	PATT
	 .word	p600_4_004
@ 045   ----------------------------------------
	.byte	PATT
	 .word	p600_4_013
@ 046   ----------------------------------------
	.byte	PATT
	 .word	p600_4_008
@ 047   ----------------------------------------
	.byte	PATT
	 .word	p600_4_008
@ 048   ----------------------------------------
	.byte	PATT
	 .word	p600_4_008
@ 049   ----------------------------------------
	.byte	PATT
	 .word	p600_4_008
@ 050   ----------------------------------------
	.byte	PATT
	 .word	p600_4_008
@ 051   ----------------------------------------
	.byte	PATT
	 .word	p600_4_008
@ 052   ----------------------------------------
	.byte	GOTO
	.word p600_4_B1
p600_4_B2:
	.byte	FINE

@******************************************************@
	.align	2

p600:
	.byte	4	@ NumTrks
	.byte	0	@ NumBlks
	.byte	p600_pri	@ Priority
	.byte	p600_rev	@ Reverb.

	.word	p600_grp

	.word	p600_1
	.word	p600_2
	.word	p600_3
	.word	p600_4

	.end
