	.include "MPlayDef.s"

	.equ	p040_grp, voicegroup000
	.equ	p040_pri, 0
	.equ	p040_rev, 0
	.equ	p040_mvl, 72
	.equ	p040_key, 0
	.equ	p040_tbs, 1
	.equ	p040_exg, 0
	.equ	p040_cmp, 1

	.section .rodata
	.global	p040
	.align	2

@**************** Track 1 (Midi-Chn.1) ****************@

p040_1:
	.byte	KEYSH , p040_key+0
p040_1_B1:
@ 000   ----------------------------------------
	.byte	TEMPO , 160*p040_tbs/2
	.byte		VOICE , 49
	.byte		VOL   , 127*p040_mvl/mxv
	.byte		N24   , Fs1 , v080
	.byte		N24   , Cs2 
	.byte	W24
	.byte		N06   , Fs1 
	.byte		N06   , Cs2 
	.byte	W12
	.byte		        Fs1 
	.byte		N06   , Cs2 
	.byte	W12
	.byte		        Fs1 
	.byte		N06   , Cs2 
	.byte	W12
	.byte		        Fs1 
	.byte		N06   , Cs2 
	.byte	W12
@ 001   ----------------------------------------
p040_1_001:
	.byte		N24   , Fs1 , v080
	.byte		N24   , Cs2 
	.byte	W24
	.byte		N06   , Fs1 
	.byte		N06   , Cs2 
	.byte	W12
	.byte		        Fs1 
	.byte		N06   , Cs2 
	.byte	W12
	.byte		        Fs1 
	.byte		N06   , Cs2 
	.byte	W12
	.byte		        Fs1 
	.byte		N06   , Cs2 
	.byte	W12
	.byte	PEND
@ 002   ----------------------------------------
	.byte	PATT
	 .word	p040_1_001
@ 003   ----------------------------------------
	.byte	PATT
	 .word	p040_1_001
@ 004   ----------------------------------------
	.byte	PATT
	 .word	p040_1_001
@ 005   ----------------------------------------
	.byte	PATT
	 .word	p040_1_001
@ 006   ----------------------------------------
	.byte	PATT
	 .word	p040_1_001
@ 007   ----------------------------------------
	.byte	PATT
	 .word	p040_1_001
@ 008   ----------------------------------------
	.byte	PATT
	 .word	p040_1_001
@ 009   ----------------------------------------
	.byte	PATT
	 .word	p040_1_001
@ 010   ----------------------------------------
	.byte	PATT
	 .word	p040_1_001
@ 011   ----------------------------------------
	.byte	PATT
	 .word	p040_1_001
@ 012   ----------------------------------------
	.byte	PATT
	 .word	p040_1_001
@ 013   ----------------------------------------
	.byte	PATT
	 .word	p040_1_001
@ 014   ----------------------------------------
	.byte	PATT
	 .word	p040_1_001
@ 015   ----------------------------------------
	.byte	PATT
	 .word	p040_1_001
@ 016   ----------------------------------------
	.byte	PATT
	 .word	p040_1_001
@ 017   ----------------------------------------
	.byte	PATT
	 .word	p040_1_001
@ 018   ----------------------------------------
	.byte	PATT
	 .word	p040_1_001
@ 019   ----------------------------------------
	.byte	PATT
	 .word	p040_1_001
@ 020   ----------------------------------------
	.byte	PATT
	 .word	p040_1_001
@ 021   ----------------------------------------
	.byte	PATT
	 .word	p040_1_001
@ 022   ----------------------------------------
	.byte	PATT
	 .word	p040_1_001
@ 023   ----------------------------------------
	.byte	PATT
	 .word	p040_1_001
@ 024   ----------------------------------------
	.byte	PATT
	 .word	p040_1_001
@ 025   ----------------------------------------
	.byte	PATT
	 .word	p040_1_001
@ 026   ----------------------------------------
	.byte	PATT
	 .word	p040_1_001
@ 027   ----------------------------------------
	.byte	PATT
	 .word	p040_1_001
@ 028   ----------------------------------------
	.byte	PATT
	 .word	p040_1_001
@ 029   ----------------------------------------
	.byte	PATT
	 .word	p040_1_001
@ 030   ----------------------------------------
	.byte	PATT
	 .word	p040_1_001
@ 031   ----------------------------------------
	.byte	PATT
	 .word	p040_1_001
@ 032   ----------------------------------------
	.byte	GOTO
	.word p040_1_B1
p040_1_B2:
	.byte	FINE

@**************** Track 2 (Midi-Chn.2) ****************@

p040_2:
	.byte	KEYSH , p040_key+0
p040_2_B1:
@ 000   ----------------------------------------
	.byte		VOICE , 38
	.byte		VOL   , 127*p040_mvl/mxv
	.byte		N12   , Cs1 , v080
	.byte	W12
	.byte		        Cs1 , v040
	.byte	W12
	.byte		        Cs1 , v080
	.byte	W12
	.byte		        Cs1 , v040
	.byte	W12
	.byte		        Cs1 , v080
	.byte	W12
	.byte		        Cs1 , v040
	.byte	W12
@ 001   ----------------------------------------
p040_2_001:
	.byte		N12   , Cs1 , v080
	.byte	W12
	.byte		        Cs1 , v040
	.byte	W12
	.byte		        Cs1 , v080
	.byte	W12
	.byte		        Cs1 , v040
	.byte	W12
	.byte		        Cs1 , v080
	.byte	W12
	.byte		        Cs1 , v040
	.byte	W12
	.byte	PEND
@ 002   ----------------------------------------
	.byte	PATT
	 .word	p040_2_001
@ 003   ----------------------------------------
	.byte	PATT
	 .word	p040_2_001
@ 004   ----------------------------------------
	.byte	PATT
	 .word	p040_2_001
@ 005   ----------------------------------------
	.byte	PATT
	 .word	p040_2_001
@ 006   ----------------------------------------
	.byte	PATT
	 .word	p040_2_001
@ 007   ----------------------------------------
	.byte	PATT
	 .word	p040_2_001
@ 008   ----------------------------------------
	.byte	PATT
	 .word	p040_2_001
@ 009   ----------------------------------------
	.byte	PATT
	 .word	p040_2_001
@ 010   ----------------------------------------
	.byte	PATT
	 .word	p040_2_001
@ 011   ----------------------------------------
	.byte	PATT
	 .word	p040_2_001
@ 012   ----------------------------------------
	.byte	PATT
	 .word	p040_2_001
@ 013   ----------------------------------------
	.byte	PATT
	 .word	p040_2_001
@ 014   ----------------------------------------
	.byte	PATT
	 .word	p040_2_001
@ 015   ----------------------------------------
	.byte	PATT
	 .word	p040_2_001
@ 016   ----------------------------------------
	.byte	PATT
	 .word	p040_2_001
@ 017   ----------------------------------------
	.byte	PATT
	 .word	p040_2_001
@ 018   ----------------------------------------
	.byte	PATT
	 .word	p040_2_001
@ 019   ----------------------------------------
	.byte	PATT
	 .word	p040_2_001
@ 020   ----------------------------------------
	.byte	PATT
	 .word	p040_2_001
@ 021   ----------------------------------------
	.byte	PATT
	 .word	p040_2_001
@ 022   ----------------------------------------
	.byte	PATT
	 .word	p040_2_001
@ 023   ----------------------------------------
	.byte	PATT
	 .word	p040_2_001
@ 024   ----------------------------------------
	.byte	PATT
	 .word	p040_2_001
@ 025   ----------------------------------------
	.byte	PATT
	 .word	p040_2_001
@ 026   ----------------------------------------
	.byte	PATT
	 .word	p040_2_001
@ 027   ----------------------------------------
	.byte	PATT
	 .word	p040_2_001
@ 028   ----------------------------------------
	.byte	PATT
	 .word	p040_2_001
@ 029   ----------------------------------------
	.byte	PATT
	 .word	p040_2_001
@ 030   ----------------------------------------
	.byte	PATT
	 .word	p040_2_001
@ 031   ----------------------------------------
	.byte	PATT
	 .word	p040_2_001
@ 032   ----------------------------------------
	.byte	GOTO
	.word p040_2_B1
p040_2_B2:
	.byte	FINE

@**************** Track 3 (Midi-Chn.3) ****************@

p040_3:
	.byte	KEYSH , p040_key+0
p040_3_B1:
@ 000   ----------------------------------------
	.byte		VOICE , 48
	.byte		VOL   , 127*p040_mvl/mxv
	.byte	W72
@ 001   ----------------------------------------
	.byte	W72
@ 002   ----------------------------------------
	.byte	W72
@ 003   ----------------------------------------
	.byte	W60
	.byte		N12   , Cs3 , v080
	.byte	W12
@ 004   ----------------------------------------
p040_3_004:
	.byte		N24   , Fs3 , v080
	.byte	W24
	.byte		N12   , En3 
	.byte	W12
	.byte		        Ds3 
	.byte	W12
	.byte		N24   , Cs3 
	.byte	W24
	.byte	PEND
@ 005   ----------------------------------------
p040_3_005:
	.byte		N24   , Bn2 , v080
	.byte	W24
	.byte		N12   , Cs3 
	.byte	W12
	.byte		        Ds3 
	.byte	W12
	.byte		        En3 
	.byte	W12
	.byte		        Cs3 
	.byte	W12
	.byte	PEND
@ 006   ----------------------------------------
	.byte	PATT
	 .word	p040_3_004
@ 007   ----------------------------------------
	.byte		N48   , En3 , v080
	.byte	W48
	.byte		N12   , Ds3 
	.byte	W12
	.byte		        Cs3 
	.byte	W12
@ 008   ----------------------------------------
	.byte		N48   , Ds3 
	.byte	W48
	.byte		N24   , Bn2 
	.byte	W24
@ 009   ----------------------------------------
	.byte		N72   , Fs3 
	.byte	W72
@ 010   ----------------------------------------
	.byte		        Cs3 
	.byte	W72
@ 011   ----------------------------------------
	.byte		        Fs3 
	.byte	W72
@ 012   ----------------------------------------
	.byte		        Ds3 
	.byte	W72
@ 013   ----------------------------------------
	.byte		        Bn2 
	.byte	W72
@ 014   ----------------------------------------
	.byte		        Cs3 
	.byte	W72
@ 015   ----------------------------------------
	.byte		TIE   , Fs3 
	.byte	W72
@ 016   ----------------------------------------
	.byte	W60
	.byte		EOT   
	.byte	W12
@ 017   ----------------------------------------
	.byte	W72
@ 018   ----------------------------------------
	.byte	W60
	.byte		N12   , Cs3 
	.byte	W12
@ 019   ----------------------------------------
	.byte	PATT
	 .word	p040_3_004
@ 020   ----------------------------------------
	.byte	PATT
	 .word	p040_3_005
@ 021   ----------------------------------------
	.byte		N24   , Fs3 , v080
	.byte	W24
	.byte		N12   , En3 
	.byte	W12
	.byte		        Fs3 
	.byte	W12
	.byte		        Gs3 
	.byte	W12
	.byte		        Fs3 
	.byte	W12
@ 022   ----------------------------------------
	.byte		N24   , Bn3 
	.byte	W24
	.byte		N12   , An3 
	.byte	W12
	.byte		        Gs3 
	.byte	W12
	.byte		        Fs3 
	.byte	W12
	.byte		        En3 
	.byte	W12
@ 023   ----------------------------------------
	.byte		N72   , Fs3 
	.byte	W72
@ 024   ----------------------------------------
	.byte		        Gs3 
	.byte	W72
@ 025   ----------------------------------------
	.byte		        Fs3 
	.byte	W72
@ 026   ----------------------------------------
	.byte		        En3 
	.byte	W72
@ 027   ----------------------------------------
	.byte		        Bn2 
	.byte	W72
@ 028   ----------------------------------------
	.byte		TIE   , Fs3 
	.byte	W72
@ 029   ----------------------------------------
	.byte	W72
	.byte		EOT   
@ 030   ----------------------------------------
	.byte		TIE   , Cs3 
	.byte	W72
@ 031   ----------------------------------------
	.byte	W72
	.byte		EOT   
@ 032   ----------------------------------------
	.byte	GOTO
	.word p040_3_B1
p040_3_B2:
	.byte	FINE

@**************** Track 4 (Midi-Chn.4) ****************@

p040_4:
	.byte	KEYSH , p040_key+0
p040_4_B1:
@ 000   ----------------------------------------
	.byte		VOICE , 127
	.byte		VOL   , 127*p040_mvl/mxv
	.byte		N11   , Dn1 , v080
	.byte	W24
	.byte		N11   
	.byte	W12
	.byte		N02   , Dn1 , v040
	.byte	W03
	.byte		        Dn1 , v052
	.byte	W03
	.byte		        Dn1 , v060
	.byte	W03
	.byte		        Dn1 , v072
	.byte	W03
	.byte		N11   , Dn1 , v080
	.byte	W24
@ 001   ----------------------------------------
p040_4_001:
	.byte		N11   , Dn1 , v080
	.byte	W24
	.byte		N11   
	.byte	W12
	.byte		N02   , Dn1 , v040
	.byte	W03
	.byte		        Dn1 , v052
	.byte	W03
	.byte		        Dn1 , v060
	.byte	W03
	.byte		        Dn1 , v072
	.byte	W03
	.byte		N11   , Dn1 , v080
	.byte	W24
	.byte	PEND
@ 002   ----------------------------------------
	.byte	PATT
	 .word	p040_4_001
@ 003   ----------------------------------------
	.byte	PATT
	 .word	p040_4_001
@ 004   ----------------------------------------
p040_4_004:
	.byte		N09   , Cn1 , v080
	.byte		N11   , Dn1 
	.byte	W24
	.byte		N11   
	.byte	W12
	.byte		N02   , Dn1 , v040
	.byte	W03
	.byte		        Dn1 , v052
	.byte	W03
	.byte		        Dn1 , v060
	.byte	W03
	.byte		        Dn1 , v072
	.byte	W03
	.byte		N11   , Dn1 , v080
	.byte	W12
	.byte		N09   , Cn1 
	.byte	W12
	.byte	PEND
@ 005   ----------------------------------------
	.byte	PATT
	 .word	p040_4_004
@ 006   ----------------------------------------
	.byte	PATT
	 .word	p040_4_004
@ 007   ----------------------------------------
	.byte	PATT
	 .word	p040_4_004
@ 008   ----------------------------------------
	.byte	PATT
	 .word	p040_4_004
@ 009   ----------------------------------------
	.byte	PATT
	 .word	p040_4_004
@ 010   ----------------------------------------
	.byte	PATT
	 .word	p040_4_004
@ 011   ----------------------------------------
	.byte	PATT
	 .word	p040_4_004
@ 012   ----------------------------------------
	.byte	PATT
	 .word	p040_4_004
@ 013   ----------------------------------------
	.byte	PATT
	 .word	p040_4_004
@ 014   ----------------------------------------
	.byte	PATT
	 .word	p040_4_004
@ 015   ----------------------------------------
	.byte	PATT
	 .word	p040_4_004
@ 016   ----------------------------------------
	.byte	PATT
	 .word	p040_4_004
@ 017   ----------------------------------------
	.byte	PATT
	 .word	p040_4_004
@ 018   ----------------------------------------
	.byte	PATT
	 .word	p040_4_004
@ 019   ----------------------------------------
	.byte	PATT
	 .word	p040_4_004
@ 020   ----------------------------------------
	.byte	PATT
	 .word	p040_4_004
@ 021   ----------------------------------------
	.byte	PATT
	 .word	p040_4_004
@ 022   ----------------------------------------
	.byte	PATT
	 .word	p040_4_004
@ 023   ----------------------------------------
	.byte	PATT
	 .word	p040_4_004
@ 024   ----------------------------------------
	.byte	PATT
	 .word	p040_4_004
@ 025   ----------------------------------------
	.byte	PATT
	 .word	p040_4_004
@ 026   ----------------------------------------
	.byte	PATT
	 .word	p040_4_004
@ 027   ----------------------------------------
	.byte	PATT
	 .word	p040_4_004
@ 028   ----------------------------------------
	.byte	PATT
	 .word	p040_4_004
@ 029   ----------------------------------------
	.byte	PATT
	 .word	p040_4_004
@ 030   ----------------------------------------
	.byte	PATT
	 .word	p040_4_004
@ 031   ----------------------------------------
	.byte		N09   , Cn1 , v080
	.byte		N11   , Dn1 
	.byte	W24
	.byte		N11   
	.byte	W12
	.byte		N02   , Dn1 , v040
	.byte	W03
	.byte		        Dn1 , v052
	.byte	W03
	.byte		        Dn1 , v060
	.byte	W03
	.byte		        Dn1 , v072
	.byte	W03
	.byte		N11   , Dn1 , v080
	.byte	W24
@ 032   ----------------------------------------
	.byte	GOTO
	.word p040_4_B1
p040_4_B2:
	.byte	FINE

@**************** Track 5 (Midi-Chn.5) ****************@

p040_5:
	.byte	KEYSH , p040_key+0
p040_5_B1:
@ 000   ----------------------------------------
	.byte		VOICE , 41
	.byte		VOL   , 127*p040_mvl/mxv
	.byte	W72
@ 001   ----------------------------------------
	.byte	W72
@ 002   ----------------------------------------
	.byte	W72
@ 003   ----------------------------------------
	.byte	W72
@ 004   ----------------------------------------
	.byte	W72
@ 005   ----------------------------------------
	.byte	W72
@ 006   ----------------------------------------
	.byte	W72
@ 007   ----------------------------------------
	.byte	W72
@ 008   ----------------------------------------
	.byte	W72
@ 009   ----------------------------------------
	.byte		N72   , Fs3 , v080
	.byte	W72
@ 010   ----------------------------------------
	.byte		        An3 
	.byte	W72
@ 011   ----------------------------------------
	.byte		        Cs4 
	.byte	W72
@ 012   ----------------------------------------
	.byte		        Bn3 
	.byte	W72
@ 013   ----------------------------------------
	.byte		        Gs3 
	.byte	W72
@ 014   ----------------------------------------
	.byte		        En3 
	.byte	W72
@ 015   ----------------------------------------
	.byte		TIE   , Fs3 
	.byte	W72
@ 016   ----------------------------------------
	.byte	W48
	.byte		EOT   
	.byte	W24
@ 017   ----------------------------------------
	.byte	W72
@ 018   ----------------------------------------
	.byte	W72
@ 019   ----------------------------------------
	.byte	W72
@ 020   ----------------------------------------
	.byte	W72
@ 021   ----------------------------------------
	.byte	W72
@ 022   ----------------------------------------
	.byte	W72
@ 023   ----------------------------------------
	.byte		N72   , Cs4 
	.byte	W72
@ 024   ----------------------------------------
	.byte		        Ds4 
	.byte	W72
@ 025   ----------------------------------------
	.byte		        Bn3 
	.byte	W72
@ 026   ----------------------------------------
	.byte		        An3 
	.byte	W72
@ 027   ----------------------------------------
	.byte		        Gs3 
	.byte	W72
@ 028   ----------------------------------------
	.byte		TIE   , Cs4 
	.byte	W72
@ 029   ----------------------------------------
	.byte	W72
	.byte		EOT   
@ 030   ----------------------------------------
	.byte		TIE   , Fs3 
	.byte	W72
@ 031   ----------------------------------------
	.byte	W72
	.byte		EOT   
@ 032   ----------------------------------------
	.byte	GOTO
	.word p040_5_B1
p040_5_B2:
	.byte	FINE

@******************************************************@
	.align	2

p040:
	.byte	5	@ NumTrks
	.byte	0	@ NumBlks
	.byte	p040_pri	@ Priority
	.byte	p040_rev	@ Reverb.

	.word	p040_grp

	.word	p040_1
	.word	p040_2
	.word	p040_3
	.word	p040_4
	.word	p040_5

	.end
