	.include "MPlayDef.s"

	.equ	CT_Maguss_Theme_grp, voicegroup000
	.equ	CT_Maguss_Theme_pri, 0
	.equ	CT_Maguss_Theme_rev, 0
	.equ	CT_Maguss_Theme_mvl, 45
	.equ	CT_Maguss_Theme_key, 0
	.equ	CT_Maguss_Theme_tbs, 1
	.equ	CT_Maguss_Theme_exg, 0
	.equ	CT_Maguss_Theme_cmp, 1

	.section .rodata
	.global	CT_Maguss_Theme
	.align	2

@**************** Track 1 (Midi-Chn.2) ****************@

CT_Maguss_Theme_1:
	.byte	KEYSH , CT_Maguss_Theme_key+0
CT_Maguss_Theme_1_B1:
@ 000   ----------------------------------------
	.byte	TEMPO , 100*CT_Maguss_Theme_tbs/2
	.byte		VOICE , 51
	.byte		VOL   , 127*CT_Maguss_Theme_mvl/mxv
	.byte		PAN   , c_v+0
	.byte		N72   , En2 , v092
	.byte	W72
@ 001   ----------------------------------------
	.byte		        Fn2 
	.byte	W72
@ 002   ----------------------------------------
	.byte		        En2 
	.byte	W72
@ 003   ----------------------------------------
	.byte		        Gn2 
	.byte	W72
@ 004   ----------------------------------------
	.byte		        En2 
	.byte	W72
@ 005   ----------------------------------------
CT_Maguss_Theme_1_005:
	.byte	TEMPO , 100*CT_Maguss_Theme_tbs/2
	.byte		N72   , Fn2 , v092
	.byte	W72
	.byte	PEND
@ 006   ----------------------------------------
	.byte		        En2 
	.byte	W72
@ 007   ----------------------------------------
	.byte		        Fn2 
	.byte	W72
@ 008   ----------------------------------------
	.byte		        En2 
	.byte	W72
@ 009   ----------------------------------------
	.byte		        Fn2 
	.byte	W72
@ 010   ----------------------------------------
	.byte		        En2 
	.byte	W72
@ 011   ----------------------------------------
CT_Maguss_Theme_1_011:
	.byte	TEMPO , 90*CT_Maguss_Theme_tbs/2
	.byte		N72   , Gn2 , v092
	.byte	W72
	.byte	PEND
@ 012   ----------------------------------------
CT_Maguss_Theme_1_012:
	.byte	TEMPO , 254*CT_Maguss_Theme_tbs/2
	.byte		N04   , En4 , v092
	.byte	W12
	.byte		N04   
	.byte	W24
	.byte		N04   
	.byte	W12
	.byte		N04   
	.byte	W24
	.byte	PEND
@ 013   ----------------------------------------
CT_Maguss_Theme_1_013:
	.byte		N04   , Dn4 , v092
	.byte	W24
	.byte		N04   
	.byte	W24
	.byte		N04   
	.byte	W24
	.byte	PEND
@ 014   ----------------------------------------
CT_Maguss_Theme_1_014:
	.byte		N04   , En4 , v092
	.byte	W12
	.byte		N04   
	.byte	W24
	.byte		N04   
	.byte	W12
	.byte		N04   
	.byte	W24
	.byte	PEND
@ 015   ----------------------------------------
CT_Maguss_Theme_1_015:
	.byte		N04   , Bn3 , v092
	.byte	W24
	.byte		N04   
	.byte	W24
	.byte		N04   
	.byte	W24
	.byte	PEND
@ 016   ----------------------------------------
	.byte	PATT
	 .word	CT_Maguss_Theme_1_014
@ 017   ----------------------------------------
	.byte	PATT
	 .word	CT_Maguss_Theme_1_013
@ 018   ----------------------------------------
	.byte	PATT
	 .word	CT_Maguss_Theme_1_014
@ 019   ----------------------------------------
CT_Maguss_Theme_1_019:
	.byte		N04   , Gn4 , v092
	.byte	W24
	.byte		N04   
	.byte	W24
	.byte		N04   
	.byte	W24
	.byte	PEND
@ 020   ----------------------------------------
	.byte	PATT
	 .word	CT_Maguss_Theme_1_014
@ 021   ----------------------------------------
	.byte	PATT
	 .word	CT_Maguss_Theme_1_013
@ 022   ----------------------------------------
	.byte	PATT
	 .word	CT_Maguss_Theme_1_014
@ 023   ----------------------------------------
	.byte	PATT
	 .word	CT_Maguss_Theme_1_015
@ 024   ----------------------------------------
	.byte	PATT
	 .word	CT_Maguss_Theme_1_014
@ 025   ----------------------------------------
	.byte	PATT
	 .word	CT_Maguss_Theme_1_013
@ 026   ----------------------------------------
	.byte	PATT
	 .word	CT_Maguss_Theme_1_014
@ 027   ----------------------------------------
	.byte	PATT
	 .word	CT_Maguss_Theme_1_019
@ 028   ----------------------------------------
	.byte	PATT
	 .word	CT_Maguss_Theme_1_014
@ 029   ----------------------------------------
	.byte	PATT
	 .word	CT_Maguss_Theme_1_013
@ 030   ----------------------------------------
	.byte	PATT
	 .word	CT_Maguss_Theme_1_014
@ 031   ----------------------------------------
	.byte	PATT
	 .word	CT_Maguss_Theme_1_015
@ 032   ----------------------------------------
	.byte	PATT
	 .word	CT_Maguss_Theme_1_014
@ 033   ----------------------------------------
	.byte	PATT
	 .word	CT_Maguss_Theme_1_013
@ 034   ----------------------------------------
	.byte	PATT
	 .word	CT_Maguss_Theme_1_014
@ 035   ----------------------------------------
	.byte	PATT
	 .word	CT_Maguss_Theme_1_019
@ 036   ----------------------------------------
	.byte	PATT
	 .word	CT_Maguss_Theme_1_014
@ 037   ----------------------------------------
	.byte	PATT
	 .word	CT_Maguss_Theme_1_013
@ 038   ----------------------------------------
	.byte	PATT
	 .word	CT_Maguss_Theme_1_014
@ 039   ----------------------------------------
	.byte	PATT
	 .word	CT_Maguss_Theme_1_015
@ 040   ----------------------------------------
	.byte	PATT
	 .word	CT_Maguss_Theme_1_014
@ 041   ----------------------------------------
	.byte	PATT
	 .word	CT_Maguss_Theme_1_013
@ 042   ----------------------------------------
	.byte	PATT
	 .word	CT_Maguss_Theme_1_014
@ 043   ----------------------------------------
	.byte	PATT
	 .word	CT_Maguss_Theme_1_019
@ 044   ----------------------------------------
CT_Maguss_Theme_1_044:
	.byte		N24   , An3 , v092
	.byte	W24
	.byte		N12   
	.byte	W12
	.byte		N04   
	.byte	W24
	.byte		N04   
	.byte	W12
	.byte	PEND
@ 045   ----------------------------------------
CT_Maguss_Theme_1_045:
	.byte	W12
	.byte		N04   , An3 , v092
	.byte	W12
	.byte		N04   
	.byte	W24
	.byte		N04   
	.byte	W24
	.byte	PEND
@ 046   ----------------------------------------
	.byte	PATT
	 .word	CT_Maguss_Theme_1_044
@ 047   ----------------------------------------
	.byte	PATT
	 .word	CT_Maguss_Theme_1_045
@ 048   ----------------------------------------
	.byte	PATT
	 .word	CT_Maguss_Theme_1_044
@ 049   ----------------------------------------
	.byte	PATT
	 .word	CT_Maguss_Theme_1_045
@ 050   ----------------------------------------
	.byte	PATT
	 .word	CT_Maguss_Theme_1_044
@ 051   ----------------------------------------
	.byte	PATT
	 .word	CT_Maguss_Theme_1_045
@ 052   ----------------------------------------
	.byte	PATT
	 .word	CT_Maguss_Theme_1_044
@ 053   ----------------------------------------
	.byte	PATT
	 .word	CT_Maguss_Theme_1_045
@ 054   ----------------------------------------
	.byte	PATT
	 .word	CT_Maguss_Theme_1_044
@ 055   ----------------------------------------
	.byte	PATT
	 .word	CT_Maguss_Theme_1_045
@ 056   ----------------------------------------
	.byte	PATT
	 .word	CT_Maguss_Theme_1_044
@ 057   ----------------------------------------
	.byte	PATT
	 .word	CT_Maguss_Theme_1_045
@ 058   ----------------------------------------
CT_Maguss_Theme_1_058:
	.byte		N24   , Gs3 , v092
	.byte	W24
	.byte		N12   
	.byte	W12
	.byte		N04   
	.byte	W24
	.byte		N04   
	.byte	W12
	.byte	PEND
@ 059   ----------------------------------------
CT_Maguss_Theme_1_059:
	.byte	W12
	.byte		N04   , Gs3 , v092
	.byte	W12
	.byte		N04   
	.byte	W24
	.byte		N04   
	.byte	W24
	.byte	PEND
@ 060   ----------------------------------------
CT_Maguss_Theme_1_060:
	.byte		N06   , Gn3 , v092
	.byte	W24
	.byte		N06   
	.byte	W48
	.byte	PEND
@ 061   ----------------------------------------
	.byte	W48
	.byte		N06   
	.byte	W24
@ 062   ----------------------------------------
	.byte	PATT
	 .word	CT_Maguss_Theme_1_060
@ 063   ----------------------------------------
CT_Maguss_Theme_1_063:
	.byte	W24
	.byte		N12   , Gn3 , v092
	.byte	W12
	.byte		N36   , An3 
	.byte	W36
	.byte	PEND
@ 064   ----------------------------------------
	.byte	PATT
	 .word	CT_Maguss_Theme_1_060
@ 065   ----------------------------------------
	.byte	W48
	.byte		N06   , Gn3 , v092
	.byte	W24
@ 066   ----------------------------------------
	.byte	PATT
	 .word	CT_Maguss_Theme_1_060
@ 067   ----------------------------------------
CT_Maguss_Theme_1_067:
	.byte	W24
	.byte		N12   , As3 , v092
	.byte	W12
	.byte		N36   , An3 
	.byte	W36
	.byte	PEND
@ 068   ----------------------------------------
	.byte	PATT
	 .word	CT_Maguss_Theme_1_060
@ 069   ----------------------------------------
	.byte	W48
	.byte		N06   , Gn3 , v092
	.byte	W24
@ 070   ----------------------------------------
	.byte	PATT
	 .word	CT_Maguss_Theme_1_060
@ 071   ----------------------------------------
	.byte	PATT
	 .word	CT_Maguss_Theme_1_063
@ 072   ----------------------------------------
	.byte	PATT
	 .word	CT_Maguss_Theme_1_060
@ 073   ----------------------------------------
	.byte	W48
	.byte		N06   , Gn3 , v092
	.byte	W24
@ 074   ----------------------------------------
	.byte	PATT
	 .word	CT_Maguss_Theme_1_060
@ 075   ----------------------------------------
	.byte	PATT
	 .word	CT_Maguss_Theme_1_067
@ 076   ----------------------------------------
CT_Maguss_Theme_1_076:
	.byte		N48   , Bn3 , v092
	.byte	W48
	.byte		        Cn4 
	.byte	W24
	.byte	PEND
@ 077   ----------------------------------------
	.byte	W24
	.byte		        En4 
	.byte	W48
@ 078   ----------------------------------------
	.byte		TIE   , Fs4 
	.byte	W72
@ 079   ----------------------------------------
	.byte	W72
@ 080   ----------------------------------------
	.byte	W72
@ 081   ----------------------------------------
	.byte	W72
@ 082   ----------------------------------------
	.byte	W72
@ 083   ----------------------------------------
	.byte	W72
	.byte		EOT   
@ 084   ----------------------------------------
CT_Maguss_Theme_1_084:
	.byte	TEMPO , 100*CT_Maguss_Theme_tbs/2
	.byte		N72   , En2 , v092
	.byte	W72
	.byte	PEND
@ 085   ----------------------------------------
	.byte	PATT
	 .word	CT_Maguss_Theme_1_005
@ 086   ----------------------------------------
	.byte		N72   , En2 , v092
	.byte	W72
@ 087   ----------------------------------------
	.byte		        Fn2 
	.byte	W72
@ 088   ----------------------------------------
	.byte		        En2 
	.byte	W72
@ 089   ----------------------------------------
	.byte		        Fn2 
	.byte	W72
@ 090   ----------------------------------------
	.byte		        En2 
	.byte	W72
@ 091   ----------------------------------------
	.byte	PATT
	 .word	CT_Maguss_Theme_1_011
@ 092   ----------------------------------------
	.byte	PATT
	 .word	CT_Maguss_Theme_1_012
@ 093   ----------------------------------------
	.byte	PATT
	 .word	CT_Maguss_Theme_1_013
@ 094   ----------------------------------------
	.byte	PATT
	 .word	CT_Maguss_Theme_1_014
@ 095   ----------------------------------------
	.byte	PATT
	 .word	CT_Maguss_Theme_1_015
@ 096   ----------------------------------------
	.byte	PATT
	 .word	CT_Maguss_Theme_1_014
@ 097   ----------------------------------------
	.byte	PATT
	 .word	CT_Maguss_Theme_1_013
@ 098   ----------------------------------------
	.byte	PATT
	 .word	CT_Maguss_Theme_1_014
@ 099   ----------------------------------------
	.byte	PATT
	 .word	CT_Maguss_Theme_1_019
@ 100   ----------------------------------------
	.byte	PATT
	 .word	CT_Maguss_Theme_1_014
@ 101   ----------------------------------------
	.byte	PATT
	 .word	CT_Maguss_Theme_1_013
@ 102   ----------------------------------------
	.byte	PATT
	 .word	CT_Maguss_Theme_1_014
@ 103   ----------------------------------------
	.byte	PATT
	 .word	CT_Maguss_Theme_1_015
@ 104   ----------------------------------------
	.byte	PATT
	 .word	CT_Maguss_Theme_1_014
@ 105   ----------------------------------------
	.byte	PATT
	 .word	CT_Maguss_Theme_1_013
@ 106   ----------------------------------------
	.byte	PATT
	 .word	CT_Maguss_Theme_1_014
@ 107   ----------------------------------------
	.byte	PATT
	 .word	CT_Maguss_Theme_1_019
@ 108   ----------------------------------------
	.byte	PATT
	 .word	CT_Maguss_Theme_1_014
@ 109   ----------------------------------------
	.byte	PATT
	 .word	CT_Maguss_Theme_1_013
@ 110   ----------------------------------------
	.byte	PATT
	 .word	CT_Maguss_Theme_1_014
@ 111   ----------------------------------------
	.byte	PATT
	 .word	CT_Maguss_Theme_1_015
@ 112   ----------------------------------------
	.byte	PATT
	 .word	CT_Maguss_Theme_1_014
@ 113   ----------------------------------------
	.byte	PATT
	 .word	CT_Maguss_Theme_1_013
@ 114   ----------------------------------------
	.byte	PATT
	 .word	CT_Maguss_Theme_1_014
@ 115   ----------------------------------------
	.byte	PATT
	 .word	CT_Maguss_Theme_1_019
@ 116   ----------------------------------------
	.byte	PATT
	 .word	CT_Maguss_Theme_1_014
@ 117   ----------------------------------------
	.byte	PATT
	 .word	CT_Maguss_Theme_1_013
@ 118   ----------------------------------------
	.byte	PATT
	 .word	CT_Maguss_Theme_1_014
@ 119   ----------------------------------------
	.byte	PATT
	 .word	CT_Maguss_Theme_1_015
@ 120   ----------------------------------------
	.byte	PATT
	 .word	CT_Maguss_Theme_1_014
@ 121   ----------------------------------------
	.byte	PATT
	 .word	CT_Maguss_Theme_1_013
@ 122   ----------------------------------------
	.byte	PATT
	 .word	CT_Maguss_Theme_1_014
@ 123   ----------------------------------------
	.byte	PATT
	 .word	CT_Maguss_Theme_1_019
@ 124   ----------------------------------------
	.byte	PATT
	 .word	CT_Maguss_Theme_1_044
@ 125   ----------------------------------------
	.byte	PATT
	 .word	CT_Maguss_Theme_1_045
@ 126   ----------------------------------------
	.byte	PATT
	 .word	CT_Maguss_Theme_1_044
@ 127   ----------------------------------------
	.byte	PATT
	 .word	CT_Maguss_Theme_1_045
@ 128   ----------------------------------------
	.byte	PATT
	 .word	CT_Maguss_Theme_1_044
@ 129   ----------------------------------------
	.byte	PATT
	 .word	CT_Maguss_Theme_1_045
@ 130   ----------------------------------------
	.byte	PATT
	 .word	CT_Maguss_Theme_1_044
@ 131   ----------------------------------------
	.byte	PATT
	 .word	CT_Maguss_Theme_1_045
@ 132   ----------------------------------------
	.byte	PATT
	 .word	CT_Maguss_Theme_1_044
@ 133   ----------------------------------------
	.byte	PATT
	 .word	CT_Maguss_Theme_1_045
@ 134   ----------------------------------------
	.byte	PATT
	 .word	CT_Maguss_Theme_1_044
@ 135   ----------------------------------------
	.byte	PATT
	 .word	CT_Maguss_Theme_1_045
@ 136   ----------------------------------------
	.byte	PATT
	 .word	CT_Maguss_Theme_1_044
@ 137   ----------------------------------------
	.byte	PATT
	 .word	CT_Maguss_Theme_1_045
@ 138   ----------------------------------------
	.byte	PATT
	 .word	CT_Maguss_Theme_1_058
@ 139   ----------------------------------------
	.byte	PATT
	 .word	CT_Maguss_Theme_1_059
@ 140   ----------------------------------------
	.byte	PATT
	 .word	CT_Maguss_Theme_1_060
@ 141   ----------------------------------------
	.byte	W48
	.byte		N06   , Gn3 , v092
	.byte	W24
@ 142   ----------------------------------------
	.byte	PATT
	 .word	CT_Maguss_Theme_1_060
@ 143   ----------------------------------------
	.byte	PATT
	 .word	CT_Maguss_Theme_1_063
@ 144   ----------------------------------------
	.byte	PATT
	 .word	CT_Maguss_Theme_1_060
@ 145   ----------------------------------------
	.byte	W48
	.byte		N06   , Gn3 , v092
	.byte	W24
@ 146   ----------------------------------------
	.byte	PATT
	 .word	CT_Maguss_Theme_1_060
@ 147   ----------------------------------------
	.byte	PATT
	 .word	CT_Maguss_Theme_1_067
@ 148   ----------------------------------------
	.byte	PATT
	 .word	CT_Maguss_Theme_1_060
@ 149   ----------------------------------------
	.byte	W48
	.byte		N06   , Gn3 , v092
	.byte	W24
@ 150   ----------------------------------------
	.byte	PATT
	 .word	CT_Maguss_Theme_1_060
@ 151   ----------------------------------------
	.byte	PATT
	 .word	CT_Maguss_Theme_1_063
@ 152   ----------------------------------------
	.byte	PATT
	 .word	CT_Maguss_Theme_1_060
@ 153   ----------------------------------------
	.byte	W48
	.byte		N06   , Gn3 , v092
	.byte	W24
@ 154   ----------------------------------------
	.byte	PATT
	 .word	CT_Maguss_Theme_1_060
@ 155   ----------------------------------------
	.byte	PATT
	 .word	CT_Maguss_Theme_1_067
@ 156   ----------------------------------------
	.byte	PATT
	 .word	CT_Maguss_Theme_1_076
@ 157   ----------------------------------------
	.byte	W24
	.byte		N48   , En4 , v092
	.byte	W48
@ 158   ----------------------------------------
	.byte		TIE   , Fs4 
	.byte	W72
@ 159   ----------------------------------------
	.byte	W72
@ 160   ----------------------------------------
	.byte	W72
@ 161   ----------------------------------------
	.byte	W72
@ 162   ----------------------------------------
	.byte	W72
@ 163   ----------------------------------------
	.byte	W72
	.byte		EOT   
@ 164   ----------------------------------------
	.byte	PATT
	 .word	CT_Maguss_Theme_1_084
@ 165   ----------------------------------------
	.byte	PATT
	 .word	CT_Maguss_Theme_1_005
@ 166   ----------------------------------------
	.byte		N72   , En2 , v092
	.byte	W72
@ 167   ----------------------------------------
	.byte		        Fn2 
	.byte	W72
@ 168   ----------------------------------------
	.byte		        En2 
	.byte	W72
@ 169   ----------------------------------------
	.byte		        Fn2 
	.byte	W72
@ 170   ----------------------------------------
	.byte		        En2 
	.byte	W72
@ 171   ----------------------------------------
	.byte	PATT
	 .word	CT_Maguss_Theme_1_011
@ 172   ----------------------------------------
	.byte	PATT
	 .word	CT_Maguss_Theme_1_012
@ 173   ----------------------------------------
	.byte	PATT
	 .word	CT_Maguss_Theme_1_013
@ 174   ----------------------------------------
	.byte	PATT
	 .word	CT_Maguss_Theme_1_014
@ 175   ----------------------------------------
	.byte	PATT
	 .word	CT_Maguss_Theme_1_015
@ 176   ----------------------------------------
	.byte	PATT
	 .word	CT_Maguss_Theme_1_014
@ 177   ----------------------------------------
	.byte	PATT
	 .word	CT_Maguss_Theme_1_013
@ 178   ----------------------------------------
	.byte	PATT
	 .word	CT_Maguss_Theme_1_014
@ 179   ----------------------------------------
	.byte	PATT
	 .word	CT_Maguss_Theme_1_019
@ 180   ----------------------------------------
	.byte	PATT
	 .word	CT_Maguss_Theme_1_014
@ 181   ----------------------------------------
	.byte	PATT
	 .word	CT_Maguss_Theme_1_013
@ 182   ----------------------------------------
	.byte	PATT
	 .word	CT_Maguss_Theme_1_014
@ 183   ----------------------------------------
	.byte	PATT
	 .word	CT_Maguss_Theme_1_015
@ 184   ----------------------------------------
	.byte	PATT
	 .word	CT_Maguss_Theme_1_014
@ 185   ----------------------------------------
	.byte	PATT
	 .word	CT_Maguss_Theme_1_013
@ 186   ----------------------------------------
	.byte	PATT
	 .word	CT_Maguss_Theme_1_014
@ 187   ----------------------------------------
	.byte	PATT
	 .word	CT_Maguss_Theme_1_019
@ 188   ----------------------------------------
	.byte	PATT
	 .word	CT_Maguss_Theme_1_014
@ 189   ----------------------------------------
	.byte	PATT
	 .word	CT_Maguss_Theme_1_013
@ 190   ----------------------------------------
	.byte	PATT
	 .word	CT_Maguss_Theme_1_014
@ 191   ----------------------------------------
	.byte	PATT
	 .word	CT_Maguss_Theme_1_015
@ 192   ----------------------------------------
	.byte	PATT
	 .word	CT_Maguss_Theme_1_014
@ 193   ----------------------------------------
	.byte	PATT
	 .word	CT_Maguss_Theme_1_013
@ 194   ----------------------------------------
	.byte	PATT
	 .word	CT_Maguss_Theme_1_014
@ 195   ----------------------------------------
	.byte	PATT
	 .word	CT_Maguss_Theme_1_019
@ 196   ----------------------------------------
	.byte	PATT
	 .word	CT_Maguss_Theme_1_014
@ 197   ----------------------------------------
	.byte	PATT
	 .word	CT_Maguss_Theme_1_013
@ 198   ----------------------------------------
	.byte	PATT
	 .word	CT_Maguss_Theme_1_014
@ 199   ----------------------------------------
	.byte	PATT
	 .word	CT_Maguss_Theme_1_015
@ 200   ----------------------------------------
	.byte	PATT
	 .word	CT_Maguss_Theme_1_014
@ 201   ----------------------------------------
	.byte	PATT
	 .word	CT_Maguss_Theme_1_013
@ 202   ----------------------------------------
	.byte	PATT
	 .word	CT_Maguss_Theme_1_014
@ 203   ----------------------------------------
	.byte	PATT
	 .word	CT_Maguss_Theme_1_019
@ 204   ----------------------------------------
	.byte	PATT
	 .word	CT_Maguss_Theme_1_044
@ 205   ----------------------------------------
	.byte	PATT
	 .word	CT_Maguss_Theme_1_045
@ 206   ----------------------------------------
	.byte	PATT
	 .word	CT_Maguss_Theme_1_044
@ 207   ----------------------------------------
	.byte	PATT
	 .word	CT_Maguss_Theme_1_045
@ 208   ----------------------------------------
	.byte	PATT
	 .word	CT_Maguss_Theme_1_044
@ 209   ----------------------------------------
	.byte	PATT
	 .word	CT_Maguss_Theme_1_045
@ 210   ----------------------------------------
	.byte	PATT
	 .word	CT_Maguss_Theme_1_044
@ 211   ----------------------------------------
	.byte	PATT
	 .word	CT_Maguss_Theme_1_045
@ 212   ----------------------------------------
	.byte	PATT
	 .word	CT_Maguss_Theme_1_044
@ 213   ----------------------------------------
	.byte	PATT
	 .word	CT_Maguss_Theme_1_045
@ 214   ----------------------------------------
	.byte	PATT
	 .word	CT_Maguss_Theme_1_044
@ 215   ----------------------------------------
	.byte	PATT
	 .word	CT_Maguss_Theme_1_045
@ 216   ----------------------------------------
	.byte	PATT
	 .word	CT_Maguss_Theme_1_044
@ 217   ----------------------------------------
	.byte	PATT
	 .word	CT_Maguss_Theme_1_045
@ 218   ----------------------------------------
	.byte	PATT
	 .word	CT_Maguss_Theme_1_058
@ 219   ----------------------------------------
	.byte	PATT
	 .word	CT_Maguss_Theme_1_059
@ 220   ----------------------------------------
	.byte	PATT
	 .word	CT_Maguss_Theme_1_060
@ 221   ----------------------------------------
	.byte	W48
	.byte		N06   , Gn3 , v092
	.byte	W24
@ 222   ----------------------------------------
	.byte	PATT
	 .word	CT_Maguss_Theme_1_060
@ 223   ----------------------------------------
	.byte	PATT
	 .word	CT_Maguss_Theme_1_063
@ 224   ----------------------------------------
	.byte	PATT
	 .word	CT_Maguss_Theme_1_060
@ 225   ----------------------------------------
	.byte	W48
	.byte		N06   , Gn3 , v092
	.byte	W24
@ 226   ----------------------------------------
	.byte	PATT
	 .word	CT_Maguss_Theme_1_060
@ 227   ----------------------------------------
	.byte	PATT
	 .word	CT_Maguss_Theme_1_067
@ 228   ----------------------------------------
	.byte	PATT
	 .word	CT_Maguss_Theme_1_060
@ 229   ----------------------------------------
	.byte	W48
	.byte		N06   , Gn3 , v092
	.byte	W24
@ 230   ----------------------------------------
	.byte	PATT
	 .word	CT_Maguss_Theme_1_060
@ 231   ----------------------------------------
	.byte	PATT
	 .word	CT_Maguss_Theme_1_063
@ 232   ----------------------------------------
	.byte	PATT
	 .word	CT_Maguss_Theme_1_060
@ 233   ----------------------------------------
	.byte	W48
	.byte		N06   , Gn3 , v092
	.byte	W24
@ 234   ----------------------------------------
	.byte	PATT
	 .word	CT_Maguss_Theme_1_060
@ 235   ----------------------------------------
	.byte	PATT
	 .word	CT_Maguss_Theme_1_067
@ 236   ----------------------------------------
	.byte	PATT
	 .word	CT_Maguss_Theme_1_076
@ 237   ----------------------------------------
	.byte	W24
	.byte		N48   , En4 , v092
	.byte	W48
@ 238   ----------------------------------------
	.byte		TIE   , Fs4 
	.byte	W72
@ 239   ----------------------------------------
	.byte	W72
@ 240   ----------------------------------------
	.byte	W72
@ 241   ----------------------------------------
	.byte	W72
@ 242   ----------------------------------------
	.byte	W72
@ 243   ----------------------------------------
	.byte	W72
	.byte		EOT   
@ 244   ----------------------------------------
	.byte	PATT
	 .word	CT_Maguss_Theme_1_084
@ 245   ----------------------------------------
	.byte	W24
	.byte	GOTO
	 .word	CT_Maguss_Theme_1_B1
CT_Maguss_Theme_1_B2:
	.byte	FINE

@**************** Track 2 (Midi-Chn.4) ****************@

CT_Maguss_Theme_2:
	.byte	KEYSH , CT_Maguss_Theme_key+0
CT_Maguss_Theme_2_B1:
@ 000   ----------------------------------------
	.byte		VOICE , 73
	.byte		VOL   , 127*CT_Maguss_Theme_mvl/mxv
	.byte		PAN   , c_v+0
	.byte		N72   , En1 , v092
	.byte	W72
@ 001   ----------------------------------------
	.byte		        Fn1 
	.byte	W72
@ 002   ----------------------------------------
	.byte		        En1 
	.byte	W72
@ 003   ----------------------------------------
	.byte		        Gn1 
	.byte	W72
@ 004   ----------------------------------------
	.byte		        En1 
	.byte	W72
@ 005   ----------------------------------------
	.byte		        Fn1 
	.byte	W72
@ 006   ----------------------------------------
	.byte		        En1 
	.byte	W72
@ 007   ----------------------------------------
	.byte		        Fn1 
	.byte	W72
@ 008   ----------------------------------------
	.byte		        En1 
	.byte	W72
@ 009   ----------------------------------------
	.byte		        Fn1 
	.byte	W72
@ 010   ----------------------------------------
	.byte		        En1 
	.byte	W72
@ 011   ----------------------------------------
	.byte		        Gn1 
	.byte	W72
@ 012   ----------------------------------------
CT_Maguss_Theme_2_012:
	.byte		VOICE , 60
	.byte		N72   , En4 , v092
	.byte	W72
	.byte	PEND
@ 013   ----------------------------------------
CT_Maguss_Theme_2_013:
	.byte		N48   , Dn4 , v092
	.byte	W48
	.byte		N24   , Cn4 
	.byte	W24
	.byte	PEND
@ 014   ----------------------------------------
	.byte		N72   , Bn3 
	.byte	W72
@ 015   ----------------------------------------
CT_Maguss_Theme_2_015:
	.byte		N24   , An3 , v092
	.byte	W24
	.byte		        Gn3 
	.byte	W24
	.byte		        Fn3 
	.byte	W24
	.byte	PEND
@ 016   ----------------------------------------
	.byte		N72   , En3 
	.byte	W72
@ 017   ----------------------------------------
	.byte		        Fn3 
	.byte	W72
@ 018   ----------------------------------------
	.byte		        En3 
	.byte	W72
@ 019   ----------------------------------------
	.byte		        Gn3 
	.byte	W72
@ 020   ----------------------------------------
	.byte		        En4 
	.byte	W72
@ 021   ----------------------------------------
	.byte	PATT
	 .word	CT_Maguss_Theme_2_013
@ 022   ----------------------------------------
	.byte		N72   , Bn3 , v092
	.byte	W72
@ 023   ----------------------------------------
CT_Maguss_Theme_2_023:
	.byte		N24   , An3 , v092
	.byte	W24
	.byte		        Gn3 
	.byte	W24
	.byte		        An3 
	.byte	W24
	.byte	PEND
@ 024   ----------------------------------------
	.byte		N72   , Bn3 
	.byte	W72
@ 025   ----------------------------------------
	.byte		        Cn4 
	.byte	W72
@ 026   ----------------------------------------
CT_Maguss_Theme_2_026:
	.byte		N48   , Dn4 , v092
	.byte	W48
	.byte		N12   , Cs4 
	.byte	W12
	.byte		        Cn4 
	.byte	W12
	.byte	PEND
@ 027   ----------------------------------------
	.byte		N72   , Bn3 
	.byte	W72
@ 028   ----------------------------------------
	.byte		        En4 
	.byte	W72
@ 029   ----------------------------------------
	.byte	PATT
	 .word	CT_Maguss_Theme_2_013
@ 030   ----------------------------------------
	.byte		N72   , Bn3 , v092
	.byte	W72
@ 031   ----------------------------------------
	.byte	PATT
	 .word	CT_Maguss_Theme_2_015
@ 032   ----------------------------------------
	.byte		N72   , En3 , v092
	.byte	W72
@ 033   ----------------------------------------
	.byte		        Fn3 
	.byte	W72
@ 034   ----------------------------------------
	.byte		        En3 
	.byte	W72
@ 035   ----------------------------------------
	.byte		        Gn3 
	.byte	W72
@ 036   ----------------------------------------
	.byte		        En4 
	.byte	W72
@ 037   ----------------------------------------
	.byte	PATT
	 .word	CT_Maguss_Theme_2_013
@ 038   ----------------------------------------
	.byte		N72   , Bn3 , v092
	.byte	W72
@ 039   ----------------------------------------
	.byte	PATT
	 .word	CT_Maguss_Theme_2_023
@ 040   ----------------------------------------
	.byte		N72   , Bn3 , v092
	.byte	W72
@ 041   ----------------------------------------
	.byte		        Cn4 
	.byte	W72
@ 042   ----------------------------------------
	.byte		        Dn4 
	.byte	W72
@ 043   ----------------------------------------
	.byte		        En4 
	.byte	W72
@ 044   ----------------------------------------
	.byte		TIE   , An3 
	.byte	W72
@ 045   ----------------------------------------
	.byte	W72
	.byte		EOT   
@ 046   ----------------------------------------
	.byte		TIE   , Gn3 
	.byte	W72
@ 047   ----------------------------------------
	.byte	W72
	.byte		EOT   
@ 048   ----------------------------------------
	.byte		TIE   , Fn3 
	.byte	W72
@ 049   ----------------------------------------
	.byte	W72
	.byte		EOT   
@ 050   ----------------------------------------
	.byte		TIE   , Gn3 
	.byte	W72
@ 051   ----------------------------------------
	.byte	W72
	.byte		EOT   
@ 052   ----------------------------------------
	.byte		TIE   , An3 
	.byte	W72
@ 053   ----------------------------------------
	.byte	W72
	.byte		EOT   
@ 054   ----------------------------------------
	.byte		TIE   , Bn3 
	.byte	W72
@ 055   ----------------------------------------
	.byte	W72
	.byte		EOT   
@ 056   ----------------------------------------
	.byte		N72   , Cn4 
	.byte	W72
@ 057   ----------------------------------------
	.byte		        Dn4 
	.byte	W72
@ 058   ----------------------------------------
	.byte		        En4 
	.byte	W72
@ 059   ----------------------------------------
	.byte		        Gs4 
	.byte	W72
@ 060   ----------------------------------------
	.byte		N06   , An4 
	.byte	W72
@ 061   ----------------------------------------
	.byte	W72
@ 062   ----------------------------------------
	.byte	W72
@ 063   ----------------------------------------
	.byte	W72
@ 064   ----------------------------------------
	.byte	W72
@ 065   ----------------------------------------
	.byte	W72
@ 066   ----------------------------------------
	.byte	W72
@ 067   ----------------------------------------
	.byte	W72
@ 068   ----------------------------------------
	.byte	W72
@ 069   ----------------------------------------
	.byte	W72
@ 070   ----------------------------------------
	.byte	W72
@ 071   ----------------------------------------
	.byte	W72
@ 072   ----------------------------------------
	.byte	W72
@ 073   ----------------------------------------
	.byte	W72
@ 074   ----------------------------------------
	.byte	W72
@ 075   ----------------------------------------
	.byte	W72
@ 076   ----------------------------------------
CT_Maguss_Theme_2_076:
	.byte		VOICE , 48
	.byte		N48   , Bn1 , v092
	.byte	W48
	.byte		        Cn2 
	.byte	W24
	.byte	PEND
@ 077   ----------------------------------------
	.byte	W24
	.byte		        En2 
	.byte	W48
@ 078   ----------------------------------------
	.byte		TIE   , Fs2 
	.byte	W72
@ 079   ----------------------------------------
	.byte	W72
@ 080   ----------------------------------------
	.byte	W72
@ 081   ----------------------------------------
	.byte	W72
@ 082   ----------------------------------------
	.byte	W72
@ 083   ----------------------------------------
	.byte	W72
	.byte		EOT   
@ 084   ----------------------------------------
CT_Maguss_Theme_2_084:
	.byte		VOICE , 73
	.byte		N72   , En1 , v092
	.byte	W72
	.byte	PEND
@ 085   ----------------------------------------
	.byte		        Fn1 
	.byte	W72
@ 086   ----------------------------------------
	.byte		        En1 
	.byte	W72
@ 087   ----------------------------------------
	.byte		        Fn1 
	.byte	W72
@ 088   ----------------------------------------
	.byte		        En1 
	.byte	W72
@ 089   ----------------------------------------
	.byte		        Fn1 
	.byte	W72
@ 090   ----------------------------------------
	.byte		        En1 
	.byte	W72
@ 091   ----------------------------------------
	.byte		        Gn1 
	.byte	W72
@ 092   ----------------------------------------
	.byte	PATT
	 .word	CT_Maguss_Theme_2_012
@ 093   ----------------------------------------
	.byte	PATT
	 .word	CT_Maguss_Theme_2_013
@ 094   ----------------------------------------
	.byte		N72   , Bn3 , v092
	.byte	W72
@ 095   ----------------------------------------
	.byte	PATT
	 .word	CT_Maguss_Theme_2_015
@ 096   ----------------------------------------
	.byte		N72   , En3 , v092
	.byte	W72
@ 097   ----------------------------------------
	.byte		        Fn3 
	.byte	W72
@ 098   ----------------------------------------
	.byte		        En3 
	.byte	W72
@ 099   ----------------------------------------
	.byte		        Gn3 
	.byte	W72
@ 100   ----------------------------------------
	.byte		        En4 
	.byte	W72
@ 101   ----------------------------------------
	.byte	PATT
	 .word	CT_Maguss_Theme_2_013
@ 102   ----------------------------------------
	.byte		N72   , Bn3 , v092
	.byte	W72
@ 103   ----------------------------------------
	.byte	PATT
	 .word	CT_Maguss_Theme_2_023
@ 104   ----------------------------------------
	.byte		N72   , Bn3 , v092
	.byte	W72
@ 105   ----------------------------------------
	.byte		        Cn4 
	.byte	W72
@ 106   ----------------------------------------
	.byte	PATT
	 .word	CT_Maguss_Theme_2_026
@ 107   ----------------------------------------
	.byte		N72   , Bn3 , v092
	.byte	W72
@ 108   ----------------------------------------
	.byte		        En4 
	.byte	W72
@ 109   ----------------------------------------
	.byte	PATT
	 .word	CT_Maguss_Theme_2_013
@ 110   ----------------------------------------
	.byte		N72   , Bn3 , v092
	.byte	W72
@ 111   ----------------------------------------
	.byte	PATT
	 .word	CT_Maguss_Theme_2_015
@ 112   ----------------------------------------
	.byte		N72   , En3 , v092
	.byte	W72
@ 113   ----------------------------------------
	.byte		        Fn3 
	.byte	W72
@ 114   ----------------------------------------
	.byte		        En3 
	.byte	W72
@ 115   ----------------------------------------
	.byte		        Gn3 
	.byte	W72
@ 116   ----------------------------------------
	.byte		        En4 
	.byte	W72
@ 117   ----------------------------------------
	.byte	PATT
	 .word	CT_Maguss_Theme_2_013
@ 118   ----------------------------------------
	.byte		N72   , Bn3 , v092
	.byte	W72
@ 119   ----------------------------------------
	.byte	PATT
	 .word	CT_Maguss_Theme_2_023
@ 120   ----------------------------------------
	.byte		N72   , Bn3 , v092
	.byte	W72
@ 121   ----------------------------------------
	.byte		        Cn4 
	.byte	W72
@ 122   ----------------------------------------
	.byte		        Dn4 
	.byte	W72
@ 123   ----------------------------------------
	.byte		        En4 
	.byte	W72
@ 124   ----------------------------------------
	.byte		TIE   , An3 
	.byte	W72
@ 125   ----------------------------------------
	.byte	W72
	.byte		EOT   
@ 126   ----------------------------------------
	.byte		TIE   , Gn3 
	.byte	W72
@ 127   ----------------------------------------
	.byte	W72
	.byte		EOT   
@ 128   ----------------------------------------
	.byte		TIE   , Fn3 
	.byte	W72
@ 129   ----------------------------------------
	.byte	W72
	.byte		EOT   
@ 130   ----------------------------------------
	.byte		TIE   , Gn3 
	.byte	W72
@ 131   ----------------------------------------
	.byte	W72
	.byte		EOT   
@ 132   ----------------------------------------
	.byte		TIE   , An3 
	.byte	W72
@ 133   ----------------------------------------
	.byte	W72
	.byte		EOT   
@ 134   ----------------------------------------
	.byte		TIE   , Bn3 
	.byte	W72
@ 135   ----------------------------------------
	.byte	W72
	.byte		EOT   
@ 136   ----------------------------------------
	.byte		N72   , Cn4 
	.byte	W72
@ 137   ----------------------------------------
	.byte		        Dn4 
	.byte	W72
@ 138   ----------------------------------------
	.byte		        En4 
	.byte	W72
@ 139   ----------------------------------------
	.byte		        Gs4 
	.byte	W72
@ 140   ----------------------------------------
	.byte		N06   , An4 
	.byte	W72
@ 141   ----------------------------------------
	.byte	W72
@ 142   ----------------------------------------
	.byte	W72
@ 143   ----------------------------------------
	.byte	W72
@ 144   ----------------------------------------
	.byte	W72
@ 145   ----------------------------------------
	.byte	W72
@ 146   ----------------------------------------
	.byte	W72
@ 147   ----------------------------------------
	.byte	W72
@ 148   ----------------------------------------
	.byte	W72
@ 149   ----------------------------------------
	.byte	W72
@ 150   ----------------------------------------
	.byte	W72
@ 151   ----------------------------------------
	.byte	W72
@ 152   ----------------------------------------
	.byte	W72
@ 153   ----------------------------------------
	.byte	W72
@ 154   ----------------------------------------
	.byte	W72
@ 155   ----------------------------------------
	.byte	W72
@ 156   ----------------------------------------
	.byte	PATT
	 .word	CT_Maguss_Theme_2_076
@ 157   ----------------------------------------
	.byte	W24
	.byte		N48   , En2 , v092
	.byte	W48
@ 158   ----------------------------------------
	.byte		TIE   , Fs2 
	.byte	W72
@ 159   ----------------------------------------
	.byte	W72
@ 160   ----------------------------------------
	.byte	W72
@ 161   ----------------------------------------
	.byte	W72
@ 162   ----------------------------------------
	.byte	W72
@ 163   ----------------------------------------
	.byte	W72
	.byte		EOT   
@ 164   ----------------------------------------
	.byte	PATT
	 .word	CT_Maguss_Theme_2_084
@ 165   ----------------------------------------
	.byte		N72   , Fn1 , v092
	.byte	W72
@ 166   ----------------------------------------
	.byte		        En1 
	.byte	W72
@ 167   ----------------------------------------
	.byte		        Fn1 
	.byte	W72
@ 168   ----------------------------------------
	.byte		        En1 
	.byte	W72
@ 169   ----------------------------------------
	.byte		        Fn1 
	.byte	W72
@ 170   ----------------------------------------
	.byte		        En1 
	.byte	W72
@ 171   ----------------------------------------
	.byte		        Gn1 
	.byte	W72
@ 172   ----------------------------------------
	.byte	PATT
	 .word	CT_Maguss_Theme_2_012
@ 173   ----------------------------------------
	.byte	PATT
	 .word	CT_Maguss_Theme_2_013
@ 174   ----------------------------------------
	.byte		N72   , Bn3 , v092
	.byte	W72
@ 175   ----------------------------------------
	.byte	PATT
	 .word	CT_Maguss_Theme_2_015
@ 176   ----------------------------------------
	.byte		N72   , En3 , v092
	.byte	W72
@ 177   ----------------------------------------
	.byte		        Fn3 
	.byte	W72
@ 178   ----------------------------------------
	.byte		        En3 
	.byte	W72
@ 179   ----------------------------------------
	.byte		        Gn3 
	.byte	W72
@ 180   ----------------------------------------
	.byte		        En4 
	.byte	W72
@ 181   ----------------------------------------
	.byte	PATT
	 .word	CT_Maguss_Theme_2_013
@ 182   ----------------------------------------
	.byte		N72   , Bn3 , v092
	.byte	W72
@ 183   ----------------------------------------
	.byte	PATT
	 .word	CT_Maguss_Theme_2_023
@ 184   ----------------------------------------
	.byte		N72   , Bn3 , v092
	.byte	W72
@ 185   ----------------------------------------
	.byte		        Cn4 
	.byte	W72
@ 186   ----------------------------------------
	.byte	PATT
	 .word	CT_Maguss_Theme_2_026
@ 187   ----------------------------------------
	.byte		N72   , Bn3 , v092
	.byte	W72
@ 188   ----------------------------------------
	.byte		        En4 
	.byte	W72
@ 189   ----------------------------------------
	.byte	PATT
	 .word	CT_Maguss_Theme_2_013
@ 190   ----------------------------------------
	.byte		N72   , Bn3 , v092
	.byte	W72
@ 191   ----------------------------------------
	.byte	PATT
	 .word	CT_Maguss_Theme_2_015
@ 192   ----------------------------------------
	.byte		N72   , En3 , v092
	.byte	W72
@ 193   ----------------------------------------
	.byte		        Fn3 
	.byte	W72
@ 194   ----------------------------------------
	.byte		        En3 
	.byte	W72
@ 195   ----------------------------------------
	.byte		        Gn3 
	.byte	W72
@ 196   ----------------------------------------
	.byte		        En4 
	.byte	W72
@ 197   ----------------------------------------
	.byte	PATT
	 .word	CT_Maguss_Theme_2_013
@ 198   ----------------------------------------
	.byte		N72   , Bn3 , v092
	.byte	W72
@ 199   ----------------------------------------
	.byte	PATT
	 .word	CT_Maguss_Theme_2_023
@ 200   ----------------------------------------
	.byte		N72   , Bn3 , v092
	.byte	W72
@ 201   ----------------------------------------
	.byte		        Cn4 
	.byte	W72
@ 202   ----------------------------------------
	.byte		        Dn4 
	.byte	W72
@ 203   ----------------------------------------
	.byte		        En4 
	.byte	W72
@ 204   ----------------------------------------
	.byte		TIE   , An3 
	.byte	W72
@ 205   ----------------------------------------
	.byte	W72
	.byte		EOT   
@ 206   ----------------------------------------
	.byte		TIE   , Gn3 
	.byte	W72
@ 207   ----------------------------------------
	.byte	W72
	.byte		EOT   
@ 208   ----------------------------------------
	.byte		TIE   , Fn3 
	.byte	W72
@ 209   ----------------------------------------
	.byte	W72
	.byte		EOT   
@ 210   ----------------------------------------
	.byte		TIE   , Gn3 
	.byte	W72
@ 211   ----------------------------------------
	.byte	W72
	.byte		EOT   
@ 212   ----------------------------------------
	.byte		TIE   , An3 
	.byte	W72
@ 213   ----------------------------------------
	.byte	W72
	.byte		EOT   
@ 214   ----------------------------------------
	.byte		TIE   , Bn3 
	.byte	W72
@ 215   ----------------------------------------
	.byte	W72
	.byte		EOT   
@ 216   ----------------------------------------
	.byte		N72   , Cn4 
	.byte	W72
@ 217   ----------------------------------------
	.byte		        Dn4 
	.byte	W72
@ 218   ----------------------------------------
	.byte		        En4 
	.byte	W72
@ 219   ----------------------------------------
	.byte		        Gs4 
	.byte	W72
@ 220   ----------------------------------------
	.byte		N06   , An4 
	.byte	W72
@ 221   ----------------------------------------
	.byte	W72
@ 222   ----------------------------------------
	.byte	W72
@ 223   ----------------------------------------
	.byte	W72
@ 224   ----------------------------------------
	.byte	W72
@ 225   ----------------------------------------
	.byte	W72
@ 226   ----------------------------------------
	.byte	W72
@ 227   ----------------------------------------
	.byte	W72
@ 228   ----------------------------------------
	.byte	W72
@ 229   ----------------------------------------
	.byte	W72
@ 230   ----------------------------------------
	.byte	W72
@ 231   ----------------------------------------
	.byte	W72
@ 232   ----------------------------------------
	.byte	W72
@ 233   ----------------------------------------
	.byte	W72
@ 234   ----------------------------------------
	.byte	W72
@ 235   ----------------------------------------
	.byte	W72
@ 236   ----------------------------------------
	.byte	PATT
	 .word	CT_Maguss_Theme_2_076
@ 237   ----------------------------------------
	.byte	W24
	.byte		N48   , En2 , v092
	.byte	W48
@ 238   ----------------------------------------
	.byte		TIE   , Fs2 
	.byte	W72
@ 239   ----------------------------------------
	.byte	W72
@ 240   ----------------------------------------
	.byte	W72
@ 241   ----------------------------------------
	.byte	W72
@ 242   ----------------------------------------
	.byte	W72
@ 243   ----------------------------------------
	.byte	W72
	.byte		EOT   
@ 244   ----------------------------------------
	.byte	PATT
	 .word	CT_Maguss_Theme_2_084
@ 245   ----------------------------------------
	.byte	W24
	.byte	GOTO
	 .word	CT_Maguss_Theme_2_B1
CT_Maguss_Theme_2_B2:
	.byte	FINE

@**************** Track 3 (Midi-Chn.6) ****************@

CT_Maguss_Theme_3:
	.byte	KEYSH , CT_Maguss_Theme_key+0
CT_Maguss_Theme_3_B1:
@ 000   ----------------------------------------
	.byte		VOICE , 40
	.byte		VOL   , 127*CT_Maguss_Theme_mvl/mxv
	.byte		PAN   , c_v+0
	.byte	W72
@ 001   ----------------------------------------
	.byte	W72
@ 002   ----------------------------------------
	.byte	W72
@ 003   ----------------------------------------
	.byte	W72
@ 004   ----------------------------------------
	.byte		N72   , En4 , v092
	.byte	W72
@ 005   ----------------------------------------
CT_Maguss_Theme_3_005:
	.byte		N48   , Dn4 , v092
	.byte	W48
	.byte		N24   , Cn4 
	.byte	W24
	.byte	PEND
@ 006   ----------------------------------------
	.byte		N72   , Bn3 
	.byte	W72
@ 007   ----------------------------------------
CT_Maguss_Theme_3_007:
	.byte		N24   , An3 , v092
	.byte	W24
	.byte		        Gn3 
	.byte	W24
	.byte		        Fn3 
	.byte	W24
	.byte	PEND
@ 008   ----------------------------------------
	.byte		TIE   , En3 
	.byte	W72
@ 009   ----------------------------------------
	.byte	W72
@ 010   ----------------------------------------
	.byte	W72
@ 011   ----------------------------------------
	.byte	W72
	.byte		EOT   
@ 012   ----------------------------------------
	.byte		N72   , En4 
	.byte	W72
@ 013   ----------------------------------------
	.byte	PATT
	 .word	CT_Maguss_Theme_3_005
@ 014   ----------------------------------------
	.byte		N72   , Bn3 , v092
	.byte	W72
@ 015   ----------------------------------------
	.byte	PATT
	 .word	CT_Maguss_Theme_3_007
@ 016   ----------------------------------------
	.byte		TIE   , En3 , v092
	.byte	W72
@ 017   ----------------------------------------
	.byte	W72
@ 018   ----------------------------------------
	.byte	W72
@ 019   ----------------------------------------
	.byte	W72
	.byte		EOT   
@ 020   ----------------------------------------
	.byte		N72   , En4 
	.byte	W72
@ 021   ----------------------------------------
	.byte	PATT
	 .word	CT_Maguss_Theme_3_005
@ 022   ----------------------------------------
	.byte		N72   , Bn3 , v092
	.byte	W72
@ 023   ----------------------------------------
	.byte	PATT
	 .word	CT_Maguss_Theme_3_007
@ 024   ----------------------------------------
	.byte		TIE   , En3 , v092
	.byte	W72
@ 025   ----------------------------------------
	.byte	W72
@ 026   ----------------------------------------
	.byte	W72
@ 027   ----------------------------------------
	.byte	W72
	.byte		EOT   
@ 028   ----------------------------------------
	.byte		N72   , En4 
	.byte	W72
@ 029   ----------------------------------------
	.byte	PATT
	 .word	CT_Maguss_Theme_3_005
@ 030   ----------------------------------------
	.byte		N72   , Bn3 , v092
	.byte	W72
@ 031   ----------------------------------------
	.byte	PATT
	 .word	CT_Maguss_Theme_3_007
@ 032   ----------------------------------------
	.byte		TIE   , En3 , v092
	.byte	W72
@ 033   ----------------------------------------
	.byte	W72
@ 034   ----------------------------------------
	.byte	W72
@ 035   ----------------------------------------
	.byte	W72
	.byte		EOT   
@ 036   ----------------------------------------
	.byte		N72   , En4 
	.byte	W72
@ 037   ----------------------------------------
	.byte	PATT
	 .word	CT_Maguss_Theme_3_005
@ 038   ----------------------------------------
	.byte		N72   , Bn3 , v092
	.byte	W72
@ 039   ----------------------------------------
	.byte	PATT
	 .word	CT_Maguss_Theme_3_007
@ 040   ----------------------------------------
	.byte		TIE   , En3 , v092
	.byte	W72
@ 041   ----------------------------------------
	.byte	W72
@ 042   ----------------------------------------
	.byte	W72
@ 043   ----------------------------------------
	.byte	W72
	.byte		EOT   
@ 044   ----------------------------------------
	.byte		TIE   , Cn3 
	.byte	W72
@ 045   ----------------------------------------
	.byte	W72
	.byte		EOT   
@ 046   ----------------------------------------
	.byte		TIE   , Bn2 
	.byte	W72
@ 047   ----------------------------------------
	.byte	W72
	.byte		EOT   
@ 048   ----------------------------------------
	.byte		TIE   , An2 
	.byte	W72
@ 049   ----------------------------------------
	.byte	W72
	.byte		EOT   
@ 050   ----------------------------------------
	.byte		TIE   , Bn2 
	.byte	W72
@ 051   ----------------------------------------
	.byte	W72
	.byte		EOT   
@ 052   ----------------------------------------
	.byte		TIE   , Cn3 
	.byte	W72
@ 053   ----------------------------------------
	.byte	W72
	.byte		EOT   
@ 054   ----------------------------------------
	.byte		TIE   , Dn3 
	.byte	W72
@ 055   ----------------------------------------
	.byte	W72
	.byte		EOT   
@ 056   ----------------------------------------
	.byte		TIE   , An3 
	.byte	W72
@ 057   ----------------------------------------
	.byte	W72
	.byte		EOT   
@ 058   ----------------------------------------
	.byte		TIE   , Gs3 
	.byte	W72
@ 059   ----------------------------------------
	.byte	W72
	.byte		EOT   
@ 060   ----------------------------------------
CT_Maguss_Theme_3_060:
	.byte		N06   , Cn3 , v092
	.byte	W24
	.byte		N06   
	.byte	W48
	.byte	PEND
@ 061   ----------------------------------------
	.byte	W48
	.byte		N06   
	.byte	W24
@ 062   ----------------------------------------
	.byte	PATT
	 .word	CT_Maguss_Theme_3_060
@ 063   ----------------------------------------
CT_Maguss_Theme_3_063:
	.byte	W24
	.byte		N12   , Cn3 , v092
	.byte	W12
	.byte		N36   , Dn3 
	.byte	W36
	.byte	PEND
@ 064   ----------------------------------------
	.byte	PATT
	 .word	CT_Maguss_Theme_3_060
@ 065   ----------------------------------------
	.byte	W48
	.byte		N06   , Cn3 , v092
	.byte	W24
@ 066   ----------------------------------------
	.byte	PATT
	 .word	CT_Maguss_Theme_3_060
@ 067   ----------------------------------------
CT_Maguss_Theme_3_067:
	.byte	W24
	.byte		N12   , Ds3 , v092
	.byte	W12
	.byte		N36   , Dn3 
	.byte	W36
	.byte	PEND
@ 068   ----------------------------------------
	.byte	PATT
	 .word	CT_Maguss_Theme_3_060
@ 069   ----------------------------------------
	.byte	W48
	.byte		N06   , Cn3 , v092
	.byte	W24
@ 070   ----------------------------------------
	.byte	PATT
	 .word	CT_Maguss_Theme_3_060
@ 071   ----------------------------------------
	.byte	PATT
	 .word	CT_Maguss_Theme_3_063
@ 072   ----------------------------------------
	.byte	PATT
	 .word	CT_Maguss_Theme_3_060
@ 073   ----------------------------------------
	.byte	W48
	.byte		N06   , Cn3 , v092
	.byte	W24
@ 074   ----------------------------------------
	.byte	PATT
	 .word	CT_Maguss_Theme_3_060
@ 075   ----------------------------------------
	.byte	PATT
	 .word	CT_Maguss_Theme_3_067
@ 076   ----------------------------------------
CT_Maguss_Theme_3_076:
	.byte		N48   , En4 , v092
	.byte	W48
	.byte		        Fn4 
	.byte	W24
	.byte	PEND
@ 077   ----------------------------------------
	.byte	W24
	.byte		        Gn4 
	.byte	W48
@ 078   ----------------------------------------
CT_Maguss_Theme_3_078:
	.byte		N48   , An4 , v092
	.byte	W48
	.byte		        Bn4 
	.byte	W24
	.byte	PEND
@ 079   ----------------------------------------
	.byte	W24
	.byte		        Cn5 
	.byte	W48
@ 080   ----------------------------------------
	.byte		TIE   , Bn4 
	.byte	W72
@ 081   ----------------------------------------
	.byte	W72
@ 082   ----------------------------------------
	.byte	W72
@ 083   ----------------------------------------
	.byte	W72
	.byte		EOT   
@ 084   ----------------------------------------
	.byte		N72   , En4 
	.byte	W72
@ 085   ----------------------------------------
	.byte	PATT
	 .word	CT_Maguss_Theme_3_005
@ 086   ----------------------------------------
	.byte		N72   , Bn3 , v092
	.byte	W72
@ 087   ----------------------------------------
	.byte	PATT
	 .word	CT_Maguss_Theme_3_007
@ 088   ----------------------------------------
	.byte		TIE   , En3 , v092
	.byte	W72
@ 089   ----------------------------------------
	.byte	W72
@ 090   ----------------------------------------
	.byte	W72
@ 091   ----------------------------------------
	.byte	W72
	.byte		EOT   
@ 092   ----------------------------------------
	.byte		N72   , En4 
	.byte	W72
@ 093   ----------------------------------------
	.byte	PATT
	 .word	CT_Maguss_Theme_3_005
@ 094   ----------------------------------------
	.byte		N72   , Bn3 , v092
	.byte	W72
@ 095   ----------------------------------------
	.byte	PATT
	 .word	CT_Maguss_Theme_3_007
@ 096   ----------------------------------------
	.byte		TIE   , En3 , v092
	.byte	W72
@ 097   ----------------------------------------
	.byte	W72
@ 098   ----------------------------------------
	.byte	W72
@ 099   ----------------------------------------
	.byte	W72
	.byte		EOT   
@ 100   ----------------------------------------
	.byte		N72   , En4 
	.byte	W72
@ 101   ----------------------------------------
	.byte	PATT
	 .word	CT_Maguss_Theme_3_005
@ 102   ----------------------------------------
	.byte		N72   , Bn3 , v092
	.byte	W72
@ 103   ----------------------------------------
	.byte	PATT
	 .word	CT_Maguss_Theme_3_007
@ 104   ----------------------------------------
	.byte		TIE   , En3 , v092
	.byte	W72
@ 105   ----------------------------------------
	.byte	W72
@ 106   ----------------------------------------
	.byte	W72
@ 107   ----------------------------------------
	.byte	W72
	.byte		EOT   
@ 108   ----------------------------------------
	.byte		N72   , En4 
	.byte	W72
@ 109   ----------------------------------------
	.byte	PATT
	 .word	CT_Maguss_Theme_3_005
@ 110   ----------------------------------------
	.byte		N72   , Bn3 , v092
	.byte	W72
@ 111   ----------------------------------------
	.byte	PATT
	 .word	CT_Maguss_Theme_3_007
@ 112   ----------------------------------------
	.byte		TIE   , En3 , v092
	.byte	W72
@ 113   ----------------------------------------
	.byte	W72
@ 114   ----------------------------------------
	.byte	W72
@ 115   ----------------------------------------
	.byte	W72
	.byte		EOT   
@ 116   ----------------------------------------
	.byte		N72   , En4 
	.byte	W72
@ 117   ----------------------------------------
	.byte	PATT
	 .word	CT_Maguss_Theme_3_005
@ 118   ----------------------------------------
	.byte		N72   , Bn3 , v092
	.byte	W72
@ 119   ----------------------------------------
	.byte	PATT
	 .word	CT_Maguss_Theme_3_007
@ 120   ----------------------------------------
	.byte		TIE   , En3 , v092
	.byte	W72
@ 121   ----------------------------------------
	.byte	W72
@ 122   ----------------------------------------
	.byte	W72
@ 123   ----------------------------------------
	.byte	W72
	.byte		EOT   
@ 124   ----------------------------------------
	.byte		TIE   , Cn3 
	.byte	W72
@ 125   ----------------------------------------
	.byte	W72
	.byte		EOT   
@ 126   ----------------------------------------
	.byte		TIE   , Bn2 
	.byte	W72
@ 127   ----------------------------------------
	.byte	W72
	.byte		EOT   
@ 128   ----------------------------------------
	.byte		TIE   , An2 
	.byte	W72
@ 129   ----------------------------------------
	.byte	W72
	.byte		EOT   
@ 130   ----------------------------------------
	.byte		TIE   , Bn2 
	.byte	W72
@ 131   ----------------------------------------
	.byte	W72
	.byte		EOT   
@ 132   ----------------------------------------
	.byte		TIE   , Cn3 
	.byte	W72
@ 133   ----------------------------------------
	.byte	W72
	.byte		EOT   
@ 134   ----------------------------------------
	.byte		TIE   , Dn3 
	.byte	W72
@ 135   ----------------------------------------
	.byte	W72
	.byte		EOT   
@ 136   ----------------------------------------
	.byte		TIE   , An3 
	.byte	W72
@ 137   ----------------------------------------
	.byte	W72
	.byte		EOT   
@ 138   ----------------------------------------
	.byte		TIE   , Gs3 
	.byte	W72
@ 139   ----------------------------------------
	.byte	W72
	.byte		EOT   
@ 140   ----------------------------------------
	.byte	PATT
	 .word	CT_Maguss_Theme_3_060
@ 141   ----------------------------------------
	.byte	W48
	.byte		N06   , Cn3 , v092
	.byte	W24
@ 142   ----------------------------------------
	.byte	PATT
	 .word	CT_Maguss_Theme_3_060
@ 143   ----------------------------------------
	.byte	PATT
	 .word	CT_Maguss_Theme_3_063
@ 144   ----------------------------------------
	.byte	PATT
	 .word	CT_Maguss_Theme_3_060
@ 145   ----------------------------------------
	.byte	W48
	.byte		N06   , Cn3 , v092
	.byte	W24
@ 146   ----------------------------------------
	.byte	PATT
	 .word	CT_Maguss_Theme_3_060
@ 147   ----------------------------------------
	.byte	PATT
	 .word	CT_Maguss_Theme_3_067
@ 148   ----------------------------------------
	.byte	PATT
	 .word	CT_Maguss_Theme_3_060
@ 149   ----------------------------------------
	.byte	W48
	.byte		N06   , Cn3 , v092
	.byte	W24
@ 150   ----------------------------------------
	.byte	PATT
	 .word	CT_Maguss_Theme_3_060
@ 151   ----------------------------------------
	.byte	PATT
	 .word	CT_Maguss_Theme_3_063
@ 152   ----------------------------------------
	.byte	PATT
	 .word	CT_Maguss_Theme_3_060
@ 153   ----------------------------------------
	.byte	W48
	.byte		N06   , Cn3 , v092
	.byte	W24
@ 154   ----------------------------------------
	.byte	PATT
	 .word	CT_Maguss_Theme_3_060
@ 155   ----------------------------------------
	.byte	PATT
	 .word	CT_Maguss_Theme_3_067
@ 156   ----------------------------------------
	.byte	PATT
	 .word	CT_Maguss_Theme_3_076
@ 157   ----------------------------------------
	.byte	W24
	.byte		N48   , Gn4 , v092
	.byte	W48
@ 158   ----------------------------------------
	.byte	PATT
	 .word	CT_Maguss_Theme_3_078
@ 159   ----------------------------------------
	.byte	W24
	.byte		N48   , Cn5 , v092
	.byte	W48
@ 160   ----------------------------------------
	.byte		TIE   , Bn4 
	.byte	W72
@ 161   ----------------------------------------
	.byte	W72
@ 162   ----------------------------------------
	.byte	W72
@ 163   ----------------------------------------
	.byte	W72
	.byte		EOT   
@ 164   ----------------------------------------
	.byte		N72   , En4 
	.byte	W72
@ 165   ----------------------------------------
	.byte	PATT
	 .word	CT_Maguss_Theme_3_005
@ 166   ----------------------------------------
	.byte		N72   , Bn3 , v092
	.byte	W72
@ 167   ----------------------------------------
	.byte	PATT
	 .word	CT_Maguss_Theme_3_007
@ 168   ----------------------------------------
	.byte		TIE   , En3 , v092
	.byte	W72
@ 169   ----------------------------------------
	.byte	W72
@ 170   ----------------------------------------
	.byte	W72
@ 171   ----------------------------------------
	.byte	W72
	.byte		EOT   
@ 172   ----------------------------------------
	.byte		N72   , En4 
	.byte	W72
@ 173   ----------------------------------------
	.byte	PATT
	 .word	CT_Maguss_Theme_3_005
@ 174   ----------------------------------------
	.byte		N72   , Bn3 , v092
	.byte	W72
@ 175   ----------------------------------------
	.byte	PATT
	 .word	CT_Maguss_Theme_3_007
@ 176   ----------------------------------------
	.byte		TIE   , En3 , v092
	.byte	W72
@ 177   ----------------------------------------
	.byte	W72
@ 178   ----------------------------------------
	.byte	W72
@ 179   ----------------------------------------
	.byte	W72
	.byte		EOT   
@ 180   ----------------------------------------
	.byte		N72   , En4 
	.byte	W72
@ 181   ----------------------------------------
	.byte	PATT
	 .word	CT_Maguss_Theme_3_005
@ 182   ----------------------------------------
	.byte		N72   , Bn3 , v092
	.byte	W72
@ 183   ----------------------------------------
	.byte	PATT
	 .word	CT_Maguss_Theme_3_007
@ 184   ----------------------------------------
	.byte		TIE   , En3 , v092
	.byte	W72
@ 185   ----------------------------------------
	.byte	W72
@ 186   ----------------------------------------
	.byte	W72
@ 187   ----------------------------------------
	.byte	W72
	.byte		EOT   
@ 188   ----------------------------------------
	.byte		N72   , En4 
	.byte	W72
@ 189   ----------------------------------------
	.byte	PATT
	 .word	CT_Maguss_Theme_3_005
@ 190   ----------------------------------------
	.byte		N72   , Bn3 , v092
	.byte	W72
@ 191   ----------------------------------------
	.byte	PATT
	 .word	CT_Maguss_Theme_3_007
@ 192   ----------------------------------------
	.byte		TIE   , En3 , v092
	.byte	W72
@ 193   ----------------------------------------
	.byte	W72
@ 194   ----------------------------------------
	.byte	W72
@ 195   ----------------------------------------
	.byte	W72
	.byte		EOT   
@ 196   ----------------------------------------
	.byte		N72   , En4 
	.byte	W72
@ 197   ----------------------------------------
	.byte	PATT
	 .word	CT_Maguss_Theme_3_005
@ 198   ----------------------------------------
	.byte		N72   , Bn3 , v092
	.byte	W72
@ 199   ----------------------------------------
	.byte	PATT
	 .word	CT_Maguss_Theme_3_007
@ 200   ----------------------------------------
	.byte		TIE   , En3 , v092
	.byte	W72
@ 201   ----------------------------------------
	.byte	W72
@ 202   ----------------------------------------
	.byte	W72
@ 203   ----------------------------------------
	.byte	W72
	.byte		EOT   
@ 204   ----------------------------------------
	.byte		TIE   , Cn3 
	.byte	W72
@ 205   ----------------------------------------
	.byte	W72
	.byte		EOT   
@ 206   ----------------------------------------
	.byte		TIE   , Bn2 
	.byte	W72
@ 207   ----------------------------------------
	.byte	W72
	.byte		EOT   
@ 208   ----------------------------------------
	.byte		TIE   , An2 
	.byte	W72
@ 209   ----------------------------------------
	.byte	W72
	.byte		EOT   
@ 210   ----------------------------------------
	.byte		TIE   , Bn2 
	.byte	W72
@ 211   ----------------------------------------
	.byte	W72
	.byte		EOT   
@ 212   ----------------------------------------
	.byte		TIE   , Cn3 
	.byte	W72
@ 213   ----------------------------------------
	.byte	W72
	.byte		EOT   
@ 214   ----------------------------------------
	.byte		TIE   , Dn3 
	.byte	W72
@ 215   ----------------------------------------
	.byte	W72
	.byte		EOT   
@ 216   ----------------------------------------
	.byte		TIE   , An3 
	.byte	W72
@ 217   ----------------------------------------
	.byte	W72
	.byte		EOT   
@ 218   ----------------------------------------
	.byte		TIE   , Gs3 
	.byte	W72
@ 219   ----------------------------------------
	.byte	W72
	.byte		EOT   
@ 220   ----------------------------------------
	.byte	PATT
	 .word	CT_Maguss_Theme_3_060
@ 221   ----------------------------------------
	.byte	W48
	.byte		N06   , Cn3 , v092
	.byte	W24
@ 222   ----------------------------------------
	.byte	PATT
	 .word	CT_Maguss_Theme_3_060
@ 223   ----------------------------------------
	.byte	PATT
	 .word	CT_Maguss_Theme_3_063
@ 224   ----------------------------------------
	.byte	PATT
	 .word	CT_Maguss_Theme_3_060
@ 225   ----------------------------------------
	.byte	W48
	.byte		N06   , Cn3 , v092
	.byte	W24
@ 226   ----------------------------------------
	.byte	PATT
	 .word	CT_Maguss_Theme_3_060
@ 227   ----------------------------------------
	.byte	PATT
	 .word	CT_Maguss_Theme_3_067
@ 228   ----------------------------------------
	.byte	PATT
	 .word	CT_Maguss_Theme_3_060
@ 229   ----------------------------------------
	.byte	W48
	.byte		N06   , Cn3 , v092
	.byte	W24
@ 230   ----------------------------------------
	.byte	PATT
	 .word	CT_Maguss_Theme_3_060
@ 231   ----------------------------------------
	.byte	PATT
	 .word	CT_Maguss_Theme_3_063
@ 232   ----------------------------------------
	.byte	PATT
	 .word	CT_Maguss_Theme_3_060
@ 233   ----------------------------------------
	.byte	W48
	.byte		N06   , Cn3 , v092
	.byte	W24
@ 234   ----------------------------------------
	.byte	PATT
	 .word	CT_Maguss_Theme_3_060
@ 235   ----------------------------------------
	.byte	PATT
	 .word	CT_Maguss_Theme_3_067
@ 236   ----------------------------------------
	.byte	PATT
	 .word	CT_Maguss_Theme_3_076
@ 237   ----------------------------------------
	.byte	W24
	.byte		N48   , Gn4 , v092
	.byte	W48
@ 238   ----------------------------------------
	.byte	PATT
	 .word	CT_Maguss_Theme_3_078
@ 239   ----------------------------------------
	.byte	W24
	.byte		N48   , Cn5 , v092
	.byte	W48
@ 240   ----------------------------------------
	.byte		TIE   , Bn4 
	.byte	W72
@ 241   ----------------------------------------
	.byte	W72
@ 242   ----------------------------------------
	.byte	W72
@ 243   ----------------------------------------
	.byte	W72
	.byte		EOT   
@ 244   ----------------------------------------
	.byte		N72   , En4 
	.byte	W72
@ 245   ----------------------------------------
	.byte	W24
	.byte	GOTO
	 .word	CT_Maguss_Theme_3_B1
CT_Maguss_Theme_3_B2:
	.byte	FINE

@**************** Track 4 (Midi-Chn.8) ****************@

CT_Maguss_Theme_4:
	.byte	KEYSH , CT_Maguss_Theme_key+0
CT_Maguss_Theme_4_B1:
@ 000   ----------------------------------------
	.byte		VOICE , 74
	.byte		VOL   , 127*CT_Maguss_Theme_mvl/mxv
	.byte		PAN   , c_v+0
	.byte	W72
@ 001   ----------------------------------------
	.byte	W72
@ 002   ----------------------------------------
	.byte	W72
@ 003   ----------------------------------------
	.byte	W72
@ 004   ----------------------------------------
	.byte	W72
@ 005   ----------------------------------------
	.byte	W72
@ 006   ----------------------------------------
	.byte	W72
@ 007   ----------------------------------------
	.byte	W72
@ 008   ----------------------------------------
CT_Maguss_Theme_4_008:
	.byte		VOICE , 74
	.byte		BEND  , c_v-60
	.byte		N72   , En4 , v092
	.byte	W01
	.byte		BEND  , c_v-54
	.byte	W01
	.byte		        c_v-49
	.byte	W01
	.byte		        c_v-44
	.byte	W01
	.byte		        c_v-38
	.byte	W01
	.byte		        c_v-33
	.byte	W01
	.byte		        c_v-28
	.byte	W01
	.byte		        c_v-22
	.byte	W01
	.byte		        c_v-17
	.byte	W01
	.byte		        c_v-12
	.byte	W01
	.byte		        c_v-6
	.byte	W01
	.byte		        c_v-1
	.byte	W01
	.byte		        c_v+0
	.byte	W60
	.byte	PEND
@ 009   ----------------------------------------
CT_Maguss_Theme_4_009:
	.byte		BEND  , c_v+0
	.byte		N48   , Dn4 , v092
	.byte	W48
	.byte		N24   , Cn4 
	.byte	W24
	.byte	PEND
@ 010   ----------------------------------------
CT_Maguss_Theme_4_010:
	.byte		N03   , Bn3 , v092
	.byte	W03
	.byte		        Cn4 
	.byte	W03
	.byte		TIE   , Bn3 
	.byte	W66
	.byte	PEND
@ 011   ----------------------------------------
	.byte	W72
	.byte		EOT   
@ 012   ----------------------------------------
	.byte	W72
@ 013   ----------------------------------------
	.byte	W72
@ 014   ----------------------------------------
	.byte	W72
@ 015   ----------------------------------------
	.byte	W72
@ 016   ----------------------------------------
	.byte	W72
@ 017   ----------------------------------------
	.byte	W72
@ 018   ----------------------------------------
	.byte	W72
@ 019   ----------------------------------------
	.byte	W72
@ 020   ----------------------------------------
	.byte	W72
@ 021   ----------------------------------------
	.byte	W72
@ 022   ----------------------------------------
	.byte	W72
@ 023   ----------------------------------------
	.byte	W72
@ 024   ----------------------------------------
	.byte	W72
@ 025   ----------------------------------------
	.byte	W72
@ 026   ----------------------------------------
	.byte	W72
@ 027   ----------------------------------------
	.byte	W72
@ 028   ----------------------------------------
CT_Maguss_Theme_4_028:
	.byte		N60   , En5 , v092
	.byte	W60
	.byte		N06   , Bn4 
	.byte	W06
	.byte		        An4 
	.byte	W06
	.byte	PEND
@ 029   ----------------------------------------
	.byte		N72   , Bn4 
	.byte	W72
@ 030   ----------------------------------------
CT_Maguss_Theme_4_030:
	.byte		N60   , Dn5 , v092
	.byte	W60
	.byte		N06   , An4 
	.byte	W06
	.byte		        Gn4 
	.byte	W06
	.byte	PEND
@ 031   ----------------------------------------
CT_Maguss_Theme_4_031:
	.byte		N48   , An4 , v092
	.byte	W48
	.byte		N24   , Bn4 
	.byte	W24
	.byte	PEND
@ 032   ----------------------------------------
CT_Maguss_Theme_4_032:
	.byte		N48   , Dn5 , v092
	.byte	W48
	.byte		N24   , En5 
	.byte	W24
	.byte	PEND
@ 033   ----------------------------------------
	.byte		TIE   , Bn4 
	.byte	W72
@ 034   ----------------------------------------
	.byte	W60
	.byte		EOT   
	.byte		N06   , An4 
	.byte	W06
	.byte		        Bn4 
	.byte	W06
@ 035   ----------------------------------------
CT_Maguss_Theme_4_035:
	.byte		N60   , Dn5 , v092
	.byte	W60
	.byte		N06   , Bn4 
	.byte	W06
	.byte		        Dn5 
	.byte	W06
	.byte	PEND
@ 036   ----------------------------------------
	.byte	PATT
	 .word	CT_Maguss_Theme_4_028
@ 037   ----------------------------------------
	.byte		N72   , Bn4 , v092
	.byte	W72
@ 038   ----------------------------------------
	.byte	PATT
	 .word	CT_Maguss_Theme_4_030
@ 039   ----------------------------------------
	.byte	PATT
	 .word	CT_Maguss_Theme_4_031
@ 040   ----------------------------------------
	.byte	PATT
	 .word	CT_Maguss_Theme_4_032
@ 041   ----------------------------------------
	.byte		TIE   , Bn4 , v092
	.byte	W72
@ 042   ----------------------------------------
	.byte	W72
@ 043   ----------------------------------------
	.byte	W72
	.byte		EOT   
@ 044   ----------------------------------------
CT_Maguss_Theme_4_044:
	.byte		VOICE , 56
	.byte		N24   , En3 , v108
	.byte	W24
	.byte		        Dn3 
	.byte	W24
	.byte		        Gn3 
	.byte	W24
	.byte	PEND
@ 045   ----------------------------------------
CT_Maguss_Theme_4_045:
	.byte		N48   , En3 , v108
	.byte	W48
	.byte		N24   , Cn3 
	.byte	W24
	.byte	PEND
@ 046   ----------------------------------------
CT_Maguss_Theme_4_046:
	.byte		N48   , Bn2 , v108
	.byte	W48
	.byte		        Cn3 
	.byte	W24
	.byte	PEND
@ 047   ----------------------------------------
CT_Maguss_Theme_4_047:
	.byte	W24
	.byte		N24   , Bn2 , v108
	.byte	W24
	.byte		        Gn2 
	.byte	W24
	.byte	PEND
@ 048   ----------------------------------------
	.byte		TIE   , En2 
	.byte	W72
@ 049   ----------------------------------------
	.byte	W60
	.byte		EOT   
	.byte		N06   , Dn2 
	.byte	W06
	.byte		        En2 
	.byte	W06
@ 050   ----------------------------------------
CT_Maguss_Theme_4_050:
	.byte		N60   , Gn2 , v108
	.byte	W60
	.byte		N06   , En2 
	.byte	W06
	.byte		        Gn2 
	.byte	W06
	.byte	PEND
@ 051   ----------------------------------------
CT_Maguss_Theme_4_051:
	.byte		N60   , An2 , v108
	.byte	W60
	.byte		N06   , Gn2 
	.byte	W06
	.byte		        An2 
	.byte	W06
	.byte	PEND
@ 052   ----------------------------------------
CT_Maguss_Theme_4_052:
	.byte		N24   , En3 , v108
	.byte	W24
	.byte		        Dn3 
	.byte	W24
	.byte		        Gn3 
	.byte	W24
	.byte	PEND
@ 053   ----------------------------------------
	.byte	PATT
	 .word	CT_Maguss_Theme_4_045
@ 054   ----------------------------------------
	.byte	PATT
	 .word	CT_Maguss_Theme_4_046
@ 055   ----------------------------------------
	.byte	W24
	.byte		N48   , Dn3 , v108
	.byte	W48
@ 056   ----------------------------------------
	.byte		        En3 
	.byte	W48
	.byte		        Gn3 
	.byte	W24
@ 057   ----------------------------------------
	.byte	W24
	.byte		        An3 
	.byte	W48
@ 058   ----------------------------------------
	.byte		N72   
	.byte	W72
@ 059   ----------------------------------------
	.byte		        Gs3 
	.byte	W72
@ 060   ----------------------------------------
	.byte		N06   , An3 
	.byte	W72
@ 061   ----------------------------------------
	.byte	W72
@ 062   ----------------------------------------
CT_Maguss_Theme_4_062:
	.byte		VOICE , 54
	.byte	W12
	.byte		N24   , Ds2 , v060
	.byte	W24
	.byte	W03
	.byte		        Dn2 
	.byte	W24
	.byte	W03
	.byte		        Ds2 
	.byte	W06
	.byte	PEND
@ 063   ----------------------------------------
CT_Maguss_Theme_4_063:
	.byte	W21
	.byte		N24   , Dn2 , v060
	.byte	W24
	.byte	W03
	.byte		        Cs2 
	.byte	W24
	.byte	PEND
@ 064   ----------------------------------------
CT_Maguss_Theme_4_064:
	.byte	W03
	.byte		N21   , Cn2 , v060
	.byte	W68
	.byte	W01
	.byte	PEND
@ 065   ----------------------------------------
	.byte	W72
@ 066   ----------------------------------------
	.byte	W72
@ 067   ----------------------------------------
	.byte	W60
	.byte		N24   , Ds2 
	.byte	W12
@ 068   ----------------------------------------
CT_Maguss_Theme_4_068:
	.byte	W15
	.byte		N24   , Dn2 , v060
	.byte	W24
	.byte	W03
	.byte		        Ds2 
	.byte	W24
	.byte	W03
	.byte		        Dn2 
	.byte	W03
	.byte	PEND
@ 069   ----------------------------------------
CT_Maguss_Theme_4_069:
	.byte	W24
	.byte		N24   , Cs2 , v060
	.byte	W24
	.byte	W03
	.byte		N21   , Cn2 
	.byte	W21
	.byte	PEND
@ 070   ----------------------------------------
	.byte	W72
@ 071   ----------------------------------------
	.byte	W72
@ 072   ----------------------------------------
CT_Maguss_Theme_4_072:
	.byte	W12
	.byte		N24   , Ds2 , v060
	.byte	W24
	.byte	W03
	.byte		        Dn2 
	.byte	W24
	.byte	W03
	.byte		        Ds2 
	.byte	W06
	.byte	PEND
@ 073   ----------------------------------------
	.byte	PATT
	 .word	CT_Maguss_Theme_4_063
@ 074   ----------------------------------------
	.byte	PATT
	 .word	CT_Maguss_Theme_4_064
@ 075   ----------------------------------------
	.byte	W72
@ 076   ----------------------------------------
CT_Maguss_Theme_4_076:
	.byte		VOICE , 60
	.byte		N48   , En3 , v092
	.byte	W48
	.byte		        Fn3 
	.byte	W24
	.byte	PEND
@ 077   ----------------------------------------
	.byte	W24
	.byte		        Gn3 
	.byte	W48
@ 078   ----------------------------------------
CT_Maguss_Theme_4_078:
	.byte		N48   , An3 , v092
	.byte	W48
	.byte		        Bn3 
	.byte	W24
	.byte	PEND
@ 079   ----------------------------------------
	.byte	W24
	.byte		        Cn4 
	.byte	W48
@ 080   ----------------------------------------
	.byte		TIE   , Bn3 
	.byte	W72
@ 081   ----------------------------------------
	.byte	W72
@ 082   ----------------------------------------
	.byte	W72
@ 083   ----------------------------------------
	.byte	W72
	.byte		EOT   
@ 084   ----------------------------------------
	.byte	W72
@ 085   ----------------------------------------
	.byte	W72
@ 086   ----------------------------------------
	.byte	W72
@ 087   ----------------------------------------
	.byte	W72
@ 088   ----------------------------------------
	.byte	PATT
	 .word	CT_Maguss_Theme_4_008
@ 089   ----------------------------------------
	.byte	PATT
	 .word	CT_Maguss_Theme_4_009
@ 090   ----------------------------------------
	.byte	PATT
	 .word	CT_Maguss_Theme_4_010
@ 091   ----------------------------------------
	.byte	W72
	.byte		EOT   , Bn3 
@ 092   ----------------------------------------
	.byte	W72
@ 093   ----------------------------------------
	.byte	W72
@ 094   ----------------------------------------
	.byte	W72
@ 095   ----------------------------------------
	.byte	W72
@ 096   ----------------------------------------
	.byte	W72
@ 097   ----------------------------------------
	.byte	W72
@ 098   ----------------------------------------
	.byte	W72
@ 099   ----------------------------------------
	.byte	W72
@ 100   ----------------------------------------
	.byte	W72
@ 101   ----------------------------------------
	.byte	W72
@ 102   ----------------------------------------
	.byte	W72
@ 103   ----------------------------------------
	.byte	W72
@ 104   ----------------------------------------
	.byte	W72
@ 105   ----------------------------------------
	.byte	W72
@ 106   ----------------------------------------
	.byte	W72
@ 107   ----------------------------------------
	.byte	W72
@ 108   ----------------------------------------
	.byte	PATT
	 .word	CT_Maguss_Theme_4_028
@ 109   ----------------------------------------
	.byte		N72   , Bn4 , v092
	.byte	W72
@ 110   ----------------------------------------
	.byte	PATT
	 .word	CT_Maguss_Theme_4_030
@ 111   ----------------------------------------
	.byte	PATT
	 .word	CT_Maguss_Theme_4_031
@ 112   ----------------------------------------
	.byte	PATT
	 .word	CT_Maguss_Theme_4_032
@ 113   ----------------------------------------
	.byte		TIE   , Bn4 , v092
	.byte	W72
@ 114   ----------------------------------------
	.byte	W60
	.byte		EOT   
	.byte		N06   , An4 
	.byte	W06
	.byte		        Bn4 
	.byte	W06
@ 115   ----------------------------------------
	.byte	PATT
	 .word	CT_Maguss_Theme_4_035
@ 116   ----------------------------------------
	.byte	PATT
	 .word	CT_Maguss_Theme_4_028
@ 117   ----------------------------------------
	.byte		N72   , Bn4 , v092
	.byte	W72
@ 118   ----------------------------------------
	.byte	PATT
	 .word	CT_Maguss_Theme_4_030
@ 119   ----------------------------------------
	.byte	PATT
	 .word	CT_Maguss_Theme_4_031
@ 120   ----------------------------------------
	.byte	PATT
	 .word	CT_Maguss_Theme_4_032
@ 121   ----------------------------------------
	.byte		TIE   , Bn4 , v092
	.byte	W72
@ 122   ----------------------------------------
	.byte	W72
@ 123   ----------------------------------------
	.byte	W72
	.byte		EOT   
@ 124   ----------------------------------------
	.byte	PATT
	 .word	CT_Maguss_Theme_4_044
@ 125   ----------------------------------------
	.byte	PATT
	 .word	CT_Maguss_Theme_4_045
@ 126   ----------------------------------------
	.byte	PATT
	 .word	CT_Maguss_Theme_4_046
@ 127   ----------------------------------------
	.byte	PATT
	 .word	CT_Maguss_Theme_4_047
@ 128   ----------------------------------------
	.byte		TIE   , En2 , v108
	.byte	W72
@ 129   ----------------------------------------
	.byte	W60
	.byte		EOT   
	.byte		N06   , Dn2 
	.byte	W06
	.byte		        En2 
	.byte	W06
@ 130   ----------------------------------------
	.byte	PATT
	 .word	CT_Maguss_Theme_4_050
@ 131   ----------------------------------------
	.byte	PATT
	 .word	CT_Maguss_Theme_4_051
@ 132   ----------------------------------------
	.byte	PATT
	 .word	CT_Maguss_Theme_4_052
@ 133   ----------------------------------------
	.byte	PATT
	 .word	CT_Maguss_Theme_4_045
@ 134   ----------------------------------------
	.byte	PATT
	 .word	CT_Maguss_Theme_4_046
@ 135   ----------------------------------------
	.byte	W24
	.byte		N48   , Dn3 , v108
	.byte	W48
@ 136   ----------------------------------------
	.byte		        En3 
	.byte	W48
	.byte		        Gn3 
	.byte	W24
@ 137   ----------------------------------------
	.byte	W24
	.byte		        An3 
	.byte	W48
@ 138   ----------------------------------------
	.byte		N72   
	.byte	W72
@ 139   ----------------------------------------
	.byte		        Gs3 
	.byte	W72
@ 140   ----------------------------------------
	.byte		N06   , An3 
	.byte	W72
@ 141   ----------------------------------------
	.byte	W72
@ 142   ----------------------------------------
	.byte	PATT
	 .word	CT_Maguss_Theme_4_062
@ 143   ----------------------------------------
	.byte	PATT
	 .word	CT_Maguss_Theme_4_063
@ 144   ----------------------------------------
	.byte	PATT
	 .word	CT_Maguss_Theme_4_064
@ 145   ----------------------------------------
	.byte	W72
@ 146   ----------------------------------------
	.byte	W72
@ 147   ----------------------------------------
	.byte	W60
	.byte		N24   , Ds2 , v060
	.byte	W12
@ 148   ----------------------------------------
	.byte	PATT
	 .word	CT_Maguss_Theme_4_068
@ 149   ----------------------------------------
	.byte	PATT
	 .word	CT_Maguss_Theme_4_069
@ 150   ----------------------------------------
	.byte	W72
@ 151   ----------------------------------------
	.byte	W72
@ 152   ----------------------------------------
	.byte	PATT
	 .word	CT_Maguss_Theme_4_072
@ 153   ----------------------------------------
	.byte	PATT
	 .word	CT_Maguss_Theme_4_063
@ 154   ----------------------------------------
	.byte	PATT
	 .word	CT_Maguss_Theme_4_064
@ 155   ----------------------------------------
	.byte	W72
@ 156   ----------------------------------------
	.byte	PATT
	 .word	CT_Maguss_Theme_4_076
@ 157   ----------------------------------------
	.byte	W24
	.byte		N48   , Gn3 , v092
	.byte	W48
@ 158   ----------------------------------------
	.byte	PATT
	 .word	CT_Maguss_Theme_4_078
@ 159   ----------------------------------------
	.byte	W24
	.byte		N48   , Cn4 , v092
	.byte	W48
@ 160   ----------------------------------------
	.byte		TIE   , Bn3 
	.byte	W72
@ 161   ----------------------------------------
	.byte	W72
@ 162   ----------------------------------------
	.byte	W72
@ 163   ----------------------------------------
	.byte	W72
	.byte		EOT   
@ 164   ----------------------------------------
	.byte	W72
@ 165   ----------------------------------------
	.byte	W72
@ 166   ----------------------------------------
	.byte	W72
@ 167   ----------------------------------------
	.byte	W72
@ 168   ----------------------------------------
	.byte	PATT
	 .word	CT_Maguss_Theme_4_008
@ 169   ----------------------------------------
	.byte	PATT
	 .word	CT_Maguss_Theme_4_009
@ 170   ----------------------------------------
	.byte	PATT
	 .word	CT_Maguss_Theme_4_010
@ 171   ----------------------------------------
	.byte	W72
	.byte		EOT   , Bn3 
@ 172   ----------------------------------------
	.byte	W72
@ 173   ----------------------------------------
	.byte	W72
@ 174   ----------------------------------------
	.byte	W72
@ 175   ----------------------------------------
	.byte	W72
@ 176   ----------------------------------------
	.byte	W72
@ 177   ----------------------------------------
	.byte	W72
@ 178   ----------------------------------------
	.byte	W72
@ 179   ----------------------------------------
	.byte	W72
@ 180   ----------------------------------------
	.byte	W72
@ 181   ----------------------------------------
	.byte	W72
@ 182   ----------------------------------------
	.byte	W72
@ 183   ----------------------------------------
	.byte	W72
@ 184   ----------------------------------------
	.byte	W72
@ 185   ----------------------------------------
	.byte	W72
@ 186   ----------------------------------------
	.byte	W72
@ 187   ----------------------------------------
	.byte	W72
@ 188   ----------------------------------------
	.byte	PATT
	 .word	CT_Maguss_Theme_4_028
@ 189   ----------------------------------------
	.byte		N72   , Bn4 , v092
	.byte	W72
@ 190   ----------------------------------------
	.byte	PATT
	 .word	CT_Maguss_Theme_4_030
@ 191   ----------------------------------------
	.byte	PATT
	 .word	CT_Maguss_Theme_4_031
@ 192   ----------------------------------------
	.byte	PATT
	 .word	CT_Maguss_Theme_4_032
@ 193   ----------------------------------------
	.byte		TIE   , Bn4 , v092
	.byte	W72
@ 194   ----------------------------------------
	.byte	W60
	.byte		EOT   
	.byte		N06   , An4 
	.byte	W06
	.byte		        Bn4 
	.byte	W06
@ 195   ----------------------------------------
	.byte	PATT
	 .word	CT_Maguss_Theme_4_035
@ 196   ----------------------------------------
	.byte	PATT
	 .word	CT_Maguss_Theme_4_028
@ 197   ----------------------------------------
	.byte		N72   , Bn4 , v092
	.byte	W72
@ 198   ----------------------------------------
	.byte	PATT
	 .word	CT_Maguss_Theme_4_030
@ 199   ----------------------------------------
	.byte	PATT
	 .word	CT_Maguss_Theme_4_031
@ 200   ----------------------------------------
	.byte	PATT
	 .word	CT_Maguss_Theme_4_032
@ 201   ----------------------------------------
	.byte		TIE   , Bn4 , v092
	.byte	W72
@ 202   ----------------------------------------
	.byte	W72
@ 203   ----------------------------------------
	.byte	W72
	.byte		EOT   
@ 204   ----------------------------------------
	.byte	PATT
	 .word	CT_Maguss_Theme_4_044
@ 205   ----------------------------------------
	.byte	PATT
	 .word	CT_Maguss_Theme_4_045
@ 206   ----------------------------------------
	.byte	PATT
	 .word	CT_Maguss_Theme_4_046
@ 207   ----------------------------------------
	.byte	PATT
	 .word	CT_Maguss_Theme_4_047
@ 208   ----------------------------------------
	.byte		TIE   , En2 , v108
	.byte	W72
@ 209   ----------------------------------------
	.byte	W60
	.byte		EOT   
	.byte		N06   , Dn2 
	.byte	W06
	.byte		        En2 
	.byte	W06
@ 210   ----------------------------------------
	.byte	PATT
	 .word	CT_Maguss_Theme_4_050
@ 211   ----------------------------------------
	.byte	PATT
	 .word	CT_Maguss_Theme_4_051
@ 212   ----------------------------------------
	.byte	PATT
	 .word	CT_Maguss_Theme_4_052
@ 213   ----------------------------------------
	.byte	PATT
	 .word	CT_Maguss_Theme_4_045
@ 214   ----------------------------------------
	.byte	PATT
	 .word	CT_Maguss_Theme_4_046
@ 215   ----------------------------------------
	.byte	W24
	.byte		N48   , Dn3 , v108
	.byte	W48
@ 216   ----------------------------------------
	.byte		        En3 
	.byte	W48
	.byte		        Gn3 
	.byte	W24
@ 217   ----------------------------------------
	.byte	W24
	.byte		        An3 
	.byte	W48
@ 218   ----------------------------------------
	.byte		N72   
	.byte	W72
@ 219   ----------------------------------------
	.byte		        Gs3 
	.byte	W72
@ 220   ----------------------------------------
	.byte		N06   , An3 
	.byte	W72
@ 221   ----------------------------------------
	.byte	W72
@ 222   ----------------------------------------
	.byte	PATT
	 .word	CT_Maguss_Theme_4_062
@ 223   ----------------------------------------
	.byte	PATT
	 .word	CT_Maguss_Theme_4_063
@ 224   ----------------------------------------
	.byte	PATT
	 .word	CT_Maguss_Theme_4_064
@ 225   ----------------------------------------
	.byte	W72
@ 226   ----------------------------------------
	.byte	W72
@ 227   ----------------------------------------
	.byte	W60
	.byte		N24   , Ds2 , v060
	.byte	W12
@ 228   ----------------------------------------
	.byte	PATT
	 .word	CT_Maguss_Theme_4_068
@ 229   ----------------------------------------
	.byte	PATT
	 .word	CT_Maguss_Theme_4_069
@ 230   ----------------------------------------
	.byte	W72
@ 231   ----------------------------------------
	.byte	W72
@ 232   ----------------------------------------
	.byte	PATT
	 .word	CT_Maguss_Theme_4_072
@ 233   ----------------------------------------
	.byte	PATT
	 .word	CT_Maguss_Theme_4_063
@ 234   ----------------------------------------
	.byte	PATT
	 .word	CT_Maguss_Theme_4_064
@ 235   ----------------------------------------
	.byte	W72
@ 236   ----------------------------------------
	.byte	PATT
	 .word	CT_Maguss_Theme_4_076
@ 237   ----------------------------------------
	.byte	W24
	.byte		N48   , Gn3 , v092
	.byte	W48
@ 238   ----------------------------------------
	.byte	PATT
	 .word	CT_Maguss_Theme_4_078
@ 239   ----------------------------------------
	.byte	W24
	.byte		N48   , Cn4 , v092
	.byte	W48
@ 240   ----------------------------------------
	.byte		TIE   , Bn3 
	.byte	W72
@ 241   ----------------------------------------
	.byte	W72
@ 242   ----------------------------------------
	.byte	W72
@ 243   ----------------------------------------
	.byte	W72
	.byte		EOT   
@ 244   ----------------------------------------
	.byte	W72
@ 245   ----------------------------------------
	.byte	W24
	.byte	GOTO
	 .word	CT_Maguss_Theme_4_B1
CT_Maguss_Theme_4_B2:
	.byte	FINE

@**************** Track 5 (Midi-Chn.10) ****************@

CT_Maguss_Theme_5:
	.byte	KEYSH , CT_Maguss_Theme_key+0
CT_Maguss_Theme_5_B1:
@ 000   ----------------------------------------
	.byte		VOICE , 127
	.byte		VOL   , 127*CT_Maguss_Theme_mvl/mxv
	.byte		PAN   , c_v+0
	.byte		VOL   , 127*CT_Maguss_Theme_mvl/mxv
	.byte		PAN   , c_v+0
	.byte		VOL   , 127*CT_Maguss_Theme_mvl/mxv
	.byte		PAN   , c_v+0
	.byte		VOL   , 127*CT_Maguss_Theme_mvl/mxv
	.byte		PAN   , c_v+0
	.byte	W72
@ 001   ----------------------------------------
	.byte	W72
@ 002   ----------------------------------------
	.byte	W72
@ 003   ----------------------------------------
	.byte	W72
@ 004   ----------------------------------------
	.byte	W72
@ 005   ----------------------------------------
	.byte	W72
@ 006   ----------------------------------------
	.byte	W72
@ 007   ----------------------------------------
	.byte	W72
@ 008   ----------------------------------------
	.byte	W72
@ 009   ----------------------------------------
	.byte	W72
@ 010   ----------------------------------------
	.byte	W72
@ 011   ----------------------------------------
	.byte	W72
@ 012   ----------------------------------------
CT_Maguss_Theme_5_012:
	.byte		N24   , Cs2 , v092
	.byte		N12   , Fs2 
	.byte	W12
	.byte		N12   
	.byte	W12
	.byte		N12   
	.byte	W12
	.byte		N12   
	.byte	W12
	.byte		N12   
	.byte	W24
	.byte	PEND
@ 013   ----------------------------------------
CT_Maguss_Theme_5_013:
	.byte		N12   , Fs2 , v092
	.byte	W12
	.byte		N12   
	.byte	W12
	.byte		N12   
	.byte	W12
	.byte		N12   
	.byte	W12
	.byte		N12   
	.byte	W24
	.byte	PEND
@ 014   ----------------------------------------
	.byte	PATT
	 .word	CT_Maguss_Theme_5_013
@ 015   ----------------------------------------
	.byte	PATT
	 .word	CT_Maguss_Theme_5_013
@ 016   ----------------------------------------
	.byte	PATT
	 .word	CT_Maguss_Theme_5_012
@ 017   ----------------------------------------
	.byte	PATT
	 .word	CT_Maguss_Theme_5_013
@ 018   ----------------------------------------
	.byte	PATT
	 .word	CT_Maguss_Theme_5_013
@ 019   ----------------------------------------
	.byte	PATT
	 .word	CT_Maguss_Theme_5_013
@ 020   ----------------------------------------
	.byte	PATT
	 .word	CT_Maguss_Theme_5_012
@ 021   ----------------------------------------
	.byte	PATT
	 .word	CT_Maguss_Theme_5_013
@ 022   ----------------------------------------
	.byte	PATT
	 .word	CT_Maguss_Theme_5_013
@ 023   ----------------------------------------
	.byte	PATT
	 .word	CT_Maguss_Theme_5_013
@ 024   ----------------------------------------
	.byte	PATT
	 .word	CT_Maguss_Theme_5_012
@ 025   ----------------------------------------
	.byte	PATT
	 .word	CT_Maguss_Theme_5_013
@ 026   ----------------------------------------
	.byte	PATT
	 .word	CT_Maguss_Theme_5_013
@ 027   ----------------------------------------
	.byte	PATT
	 .word	CT_Maguss_Theme_5_013
@ 028   ----------------------------------------
	.byte	PATT
	 .word	CT_Maguss_Theme_5_013
@ 029   ----------------------------------------
	.byte	PATT
	 .word	CT_Maguss_Theme_5_013
@ 030   ----------------------------------------
	.byte	PATT
	 .word	CT_Maguss_Theme_5_013
@ 031   ----------------------------------------
	.byte	PATT
	 .word	CT_Maguss_Theme_5_013
@ 032   ----------------------------------------
	.byte	PATT
	 .word	CT_Maguss_Theme_5_013
@ 033   ----------------------------------------
	.byte	PATT
	 .word	CT_Maguss_Theme_5_013
@ 034   ----------------------------------------
	.byte	PATT
	 .word	CT_Maguss_Theme_5_013
@ 035   ----------------------------------------
	.byte	PATT
	 .word	CT_Maguss_Theme_5_013
@ 036   ----------------------------------------
	.byte	PATT
	 .word	CT_Maguss_Theme_5_013
@ 037   ----------------------------------------
	.byte	PATT
	 .word	CT_Maguss_Theme_5_013
@ 038   ----------------------------------------
	.byte	PATT
	 .word	CT_Maguss_Theme_5_013
@ 039   ----------------------------------------
	.byte	PATT
	 .word	CT_Maguss_Theme_5_013
@ 040   ----------------------------------------
	.byte	PATT
	 .word	CT_Maguss_Theme_5_013
@ 041   ----------------------------------------
	.byte	PATT
	 .word	CT_Maguss_Theme_5_013
@ 042   ----------------------------------------
	.byte	PATT
	 .word	CT_Maguss_Theme_5_013
@ 043   ----------------------------------------
	.byte	PATT
	 .word	CT_Maguss_Theme_5_013
@ 044   ----------------------------------------
	.byte	W72
@ 045   ----------------------------------------
	.byte	W72
@ 046   ----------------------------------------
	.byte	W72
@ 047   ----------------------------------------
	.byte	W72
@ 048   ----------------------------------------
	.byte	W72
@ 049   ----------------------------------------
	.byte	W72
@ 050   ----------------------------------------
	.byte	W72
@ 051   ----------------------------------------
	.byte	W72
@ 052   ----------------------------------------
	.byte	W72
@ 053   ----------------------------------------
	.byte	W72
@ 054   ----------------------------------------
	.byte	W72
@ 055   ----------------------------------------
	.byte	W72
@ 056   ----------------------------------------
	.byte	W72
@ 057   ----------------------------------------
	.byte	W72
@ 058   ----------------------------------------
	.byte	W72
@ 059   ----------------------------------------
	.byte	W72
@ 060   ----------------------------------------
	.byte		N24   , Cs2 , v092
	.byte	W72
@ 061   ----------------------------------------
	.byte	W48
	.byte		N24   
	.byte	W24
@ 062   ----------------------------------------
	.byte		N24   
	.byte	W72
@ 063   ----------------------------------------
	.byte	W48
	.byte		N24   
	.byte	W24
@ 064   ----------------------------------------
	.byte		N24   
	.byte	W72
@ 065   ----------------------------------------
	.byte	W48
	.byte		N24   
	.byte	W24
@ 066   ----------------------------------------
	.byte		N24   
	.byte	W72
@ 067   ----------------------------------------
	.byte	W48
	.byte		N24   
	.byte	W24
@ 068   ----------------------------------------
	.byte		N24   
	.byte	W72
@ 069   ----------------------------------------
	.byte	W48
	.byte		N24   
	.byte	W24
@ 070   ----------------------------------------
	.byte		N24   
	.byte	W72
@ 071   ----------------------------------------
	.byte	W48
	.byte		N24   
	.byte	W24
@ 072   ----------------------------------------
	.byte		N24   
	.byte	W72
@ 073   ----------------------------------------
	.byte	W48
	.byte		N24   
	.byte	W24
@ 074   ----------------------------------------
	.byte		N24   
	.byte	W72
@ 075   ----------------------------------------
	.byte	W48
	.byte		N24   
	.byte	W24
@ 076   ----------------------------------------
	.byte	W72
@ 077   ----------------------------------------
	.byte	W72
@ 078   ----------------------------------------
	.byte	W72
@ 079   ----------------------------------------
	.byte	W72
@ 080   ----------------------------------------
	.byte	W72
@ 081   ----------------------------------------
	.byte	W72
@ 082   ----------------------------------------
	.byte	W72
@ 083   ----------------------------------------
	.byte	W72
@ 084   ----------------------------------------
	.byte		N24   
	.byte	W72
@ 085   ----------------------------------------
	.byte	W72
@ 086   ----------------------------------------
	.byte	W72
@ 087   ----------------------------------------
	.byte	W72
@ 088   ----------------------------------------
	.byte	W72
@ 089   ----------------------------------------
	.byte	W72
@ 090   ----------------------------------------
	.byte	W72
@ 091   ----------------------------------------
	.byte	W72
@ 092   ----------------------------------------
	.byte	PATT
	 .word	CT_Maguss_Theme_5_012
@ 093   ----------------------------------------
	.byte	PATT
	 .word	CT_Maguss_Theme_5_013
@ 094   ----------------------------------------
	.byte	PATT
	 .word	CT_Maguss_Theme_5_013
@ 095   ----------------------------------------
	.byte	PATT
	 .word	CT_Maguss_Theme_5_013
@ 096   ----------------------------------------
	.byte	PATT
	 .word	CT_Maguss_Theme_5_012
@ 097   ----------------------------------------
	.byte	PATT
	 .word	CT_Maguss_Theme_5_013
@ 098   ----------------------------------------
	.byte	PATT
	 .word	CT_Maguss_Theme_5_013
@ 099   ----------------------------------------
	.byte	PATT
	 .word	CT_Maguss_Theme_5_013
@ 100   ----------------------------------------
	.byte	PATT
	 .word	CT_Maguss_Theme_5_012
@ 101   ----------------------------------------
	.byte	PATT
	 .word	CT_Maguss_Theme_5_013
@ 102   ----------------------------------------
	.byte	PATT
	 .word	CT_Maguss_Theme_5_013
@ 103   ----------------------------------------
	.byte	PATT
	 .word	CT_Maguss_Theme_5_013
@ 104   ----------------------------------------
	.byte	PATT
	 .word	CT_Maguss_Theme_5_012
@ 105   ----------------------------------------
	.byte	PATT
	 .word	CT_Maguss_Theme_5_013
@ 106   ----------------------------------------
	.byte	PATT
	 .word	CT_Maguss_Theme_5_013
@ 107   ----------------------------------------
	.byte	PATT
	 .word	CT_Maguss_Theme_5_013
@ 108   ----------------------------------------
	.byte	PATT
	 .word	CT_Maguss_Theme_5_013
@ 109   ----------------------------------------
	.byte	PATT
	 .word	CT_Maguss_Theme_5_013
@ 110   ----------------------------------------
	.byte	PATT
	 .word	CT_Maguss_Theme_5_013
@ 111   ----------------------------------------
	.byte	PATT
	 .word	CT_Maguss_Theme_5_013
@ 112   ----------------------------------------
	.byte	PATT
	 .word	CT_Maguss_Theme_5_013
@ 113   ----------------------------------------
	.byte	PATT
	 .word	CT_Maguss_Theme_5_013
@ 114   ----------------------------------------
	.byte	PATT
	 .word	CT_Maguss_Theme_5_013
@ 115   ----------------------------------------
	.byte	PATT
	 .word	CT_Maguss_Theme_5_013
@ 116   ----------------------------------------
	.byte	PATT
	 .word	CT_Maguss_Theme_5_013
@ 117   ----------------------------------------
	.byte	PATT
	 .word	CT_Maguss_Theme_5_013
@ 118   ----------------------------------------
	.byte	PATT
	 .word	CT_Maguss_Theme_5_013
@ 119   ----------------------------------------
	.byte	PATT
	 .word	CT_Maguss_Theme_5_013
@ 120   ----------------------------------------
	.byte	PATT
	 .word	CT_Maguss_Theme_5_013
@ 121   ----------------------------------------
	.byte	PATT
	 .word	CT_Maguss_Theme_5_013
@ 122   ----------------------------------------
	.byte	PATT
	 .word	CT_Maguss_Theme_5_013
@ 123   ----------------------------------------
	.byte	PATT
	 .word	CT_Maguss_Theme_5_013
@ 124   ----------------------------------------
	.byte	W72
@ 125   ----------------------------------------
	.byte	W72
@ 126   ----------------------------------------
	.byte	W72
@ 127   ----------------------------------------
	.byte	W72
@ 128   ----------------------------------------
	.byte	W72
@ 129   ----------------------------------------
	.byte	W72
@ 130   ----------------------------------------
	.byte	W72
@ 131   ----------------------------------------
	.byte	W72
@ 132   ----------------------------------------
	.byte	W72
@ 133   ----------------------------------------
	.byte	W72
@ 134   ----------------------------------------
	.byte	W72
@ 135   ----------------------------------------
	.byte	W72
@ 136   ----------------------------------------
	.byte	W72
@ 137   ----------------------------------------
	.byte	W72
@ 138   ----------------------------------------
	.byte	W72
@ 139   ----------------------------------------
	.byte	W72
@ 140   ----------------------------------------
	.byte		N24   , Cs2 , v092
	.byte	W72
@ 141   ----------------------------------------
	.byte	W48
	.byte		N24   
	.byte	W24
@ 142   ----------------------------------------
	.byte		N24   
	.byte	W72
@ 143   ----------------------------------------
	.byte	W48
	.byte		N24   
	.byte	W24
@ 144   ----------------------------------------
	.byte		N24   
	.byte	W72
@ 145   ----------------------------------------
	.byte	W48
	.byte		N24   
	.byte	W24
@ 146   ----------------------------------------
	.byte		N24   
	.byte	W72
@ 147   ----------------------------------------
	.byte	W48
	.byte		N24   
	.byte	W24
@ 148   ----------------------------------------
	.byte		N24   
	.byte	W72
@ 149   ----------------------------------------
	.byte	W48
	.byte		N24   
	.byte	W24
@ 150   ----------------------------------------
	.byte		N24   
	.byte	W72
@ 151   ----------------------------------------
	.byte	W48
	.byte		N24   
	.byte	W24
@ 152   ----------------------------------------
	.byte		N24   
	.byte	W72
@ 153   ----------------------------------------
	.byte	W48
	.byte		N24   
	.byte	W24
@ 154   ----------------------------------------
	.byte		N24   
	.byte	W72
@ 155   ----------------------------------------
	.byte	W48
	.byte		N24   
	.byte	W24
@ 156   ----------------------------------------
	.byte	W72
@ 157   ----------------------------------------
	.byte	W72
@ 158   ----------------------------------------
	.byte	W72
@ 159   ----------------------------------------
	.byte	W72
@ 160   ----------------------------------------
	.byte	W72
@ 161   ----------------------------------------
	.byte	W72
@ 162   ----------------------------------------
	.byte	W72
@ 163   ----------------------------------------
	.byte	W72
@ 164   ----------------------------------------
	.byte		N24   
	.byte	W72
@ 165   ----------------------------------------
	.byte	W72
@ 166   ----------------------------------------
	.byte	W72
@ 167   ----------------------------------------
	.byte	W72
@ 168   ----------------------------------------
	.byte	W72
@ 169   ----------------------------------------
	.byte	W72
@ 170   ----------------------------------------
	.byte	W72
@ 171   ----------------------------------------
	.byte	W72
@ 172   ----------------------------------------
	.byte	PATT
	 .word	CT_Maguss_Theme_5_012
@ 173   ----------------------------------------
	.byte	PATT
	 .word	CT_Maguss_Theme_5_013
@ 174   ----------------------------------------
	.byte	PATT
	 .word	CT_Maguss_Theme_5_013
@ 175   ----------------------------------------
	.byte	PATT
	 .word	CT_Maguss_Theme_5_013
@ 176   ----------------------------------------
	.byte	PATT
	 .word	CT_Maguss_Theme_5_012
@ 177   ----------------------------------------
	.byte	PATT
	 .word	CT_Maguss_Theme_5_013
@ 178   ----------------------------------------
	.byte	PATT
	 .word	CT_Maguss_Theme_5_013
@ 179   ----------------------------------------
	.byte	PATT
	 .word	CT_Maguss_Theme_5_013
@ 180   ----------------------------------------
	.byte	PATT
	 .word	CT_Maguss_Theme_5_012
@ 181   ----------------------------------------
	.byte	PATT
	 .word	CT_Maguss_Theme_5_013
@ 182   ----------------------------------------
	.byte	PATT
	 .word	CT_Maguss_Theme_5_013
@ 183   ----------------------------------------
	.byte	PATT
	 .word	CT_Maguss_Theme_5_013
@ 184   ----------------------------------------
	.byte	PATT
	 .word	CT_Maguss_Theme_5_012
@ 185   ----------------------------------------
	.byte	PATT
	 .word	CT_Maguss_Theme_5_013
@ 186   ----------------------------------------
	.byte	PATT
	 .word	CT_Maguss_Theme_5_013
@ 187   ----------------------------------------
	.byte	PATT
	 .word	CT_Maguss_Theme_5_013
@ 188   ----------------------------------------
	.byte	PATT
	 .word	CT_Maguss_Theme_5_013
@ 189   ----------------------------------------
	.byte	PATT
	 .word	CT_Maguss_Theme_5_013
@ 190   ----------------------------------------
	.byte	PATT
	 .word	CT_Maguss_Theme_5_013
@ 191   ----------------------------------------
	.byte	PATT
	 .word	CT_Maguss_Theme_5_013
@ 192   ----------------------------------------
	.byte	PATT
	 .word	CT_Maguss_Theme_5_013
@ 193   ----------------------------------------
	.byte	PATT
	 .word	CT_Maguss_Theme_5_013
@ 194   ----------------------------------------
	.byte	PATT
	 .word	CT_Maguss_Theme_5_013
@ 195   ----------------------------------------
	.byte	PATT
	 .word	CT_Maguss_Theme_5_013
@ 196   ----------------------------------------
	.byte	PATT
	 .word	CT_Maguss_Theme_5_013
@ 197   ----------------------------------------
	.byte	PATT
	 .word	CT_Maguss_Theme_5_013
@ 198   ----------------------------------------
	.byte	PATT
	 .word	CT_Maguss_Theme_5_013
@ 199   ----------------------------------------
	.byte	PATT
	 .word	CT_Maguss_Theme_5_013
@ 200   ----------------------------------------
	.byte	PATT
	 .word	CT_Maguss_Theme_5_013
@ 201   ----------------------------------------
	.byte	PATT
	 .word	CT_Maguss_Theme_5_013
@ 202   ----------------------------------------
	.byte	PATT
	 .word	CT_Maguss_Theme_5_013
@ 203   ----------------------------------------
	.byte	PATT
	 .word	CT_Maguss_Theme_5_013
@ 204   ----------------------------------------
	.byte	W72
@ 205   ----------------------------------------
	.byte	W72
@ 206   ----------------------------------------
	.byte	W72
@ 207   ----------------------------------------
	.byte	W72
@ 208   ----------------------------------------
	.byte	W72
@ 209   ----------------------------------------
	.byte	W72
@ 210   ----------------------------------------
	.byte	W72
@ 211   ----------------------------------------
	.byte	W72
@ 212   ----------------------------------------
	.byte	W72
@ 213   ----------------------------------------
	.byte	W72
@ 214   ----------------------------------------
	.byte	W72
@ 215   ----------------------------------------
	.byte	W72
@ 216   ----------------------------------------
	.byte	W72
@ 217   ----------------------------------------
	.byte	W72
@ 218   ----------------------------------------
	.byte	W72
@ 219   ----------------------------------------
	.byte	W72
@ 220   ----------------------------------------
	.byte		N24   , Cs2 , v092
	.byte	W72
@ 221   ----------------------------------------
	.byte	W48
	.byte		N24   
	.byte	W24
@ 222   ----------------------------------------
	.byte		N24   
	.byte	W72
@ 223   ----------------------------------------
	.byte	W48
	.byte		N24   
	.byte	W24
@ 224   ----------------------------------------
	.byte		N24   
	.byte	W72
@ 225   ----------------------------------------
	.byte	W48
	.byte		N24   
	.byte	W24
@ 226   ----------------------------------------
	.byte		N24   
	.byte	W72
@ 227   ----------------------------------------
	.byte	W48
	.byte		N24   
	.byte	W24
@ 228   ----------------------------------------
	.byte		N24   
	.byte	W72
@ 229   ----------------------------------------
	.byte	W48
	.byte		N24   
	.byte	W24
@ 230   ----------------------------------------
	.byte		N24   
	.byte	W72
@ 231   ----------------------------------------
	.byte	W48
	.byte		N24   
	.byte	W24
@ 232   ----------------------------------------
	.byte		N24   
	.byte	W72
@ 233   ----------------------------------------
	.byte	W48
	.byte		N24   
	.byte	W24
@ 234   ----------------------------------------
	.byte		N24   
	.byte	W72
@ 235   ----------------------------------------
	.byte	W48
	.byte		N24   
	.byte	W24
@ 236   ----------------------------------------
	.byte	W72
@ 237   ----------------------------------------
	.byte	W72
@ 238   ----------------------------------------
	.byte	W72
@ 239   ----------------------------------------
	.byte	W72
@ 240   ----------------------------------------
	.byte	W72
@ 241   ----------------------------------------
	.byte	W72
@ 242   ----------------------------------------
	.byte	W72
@ 243   ----------------------------------------
	.byte	W72
@ 244   ----------------------------------------
	.byte		N24   
	.byte	W72
@ 245   ----------------------------------------
	.byte	W24
	.byte	GOTO
	 .word	CT_Maguss_Theme_5_B1
CT_Maguss_Theme_5_B2:
	.byte	FINE

@**************** Track 6 (Midi-Chn.12) ****************@

CT_Maguss_Theme_6:
	.byte	KEYSH , CT_Maguss_Theme_key+0
CT_Maguss_Theme_6_B1:
@ 000   ----------------------------------------
	.byte		VOICE , 60
	.byte		VOL   , 127*CT_Maguss_Theme_mvl/mxv
	.byte		PAN   , c_v+0
	.byte	W72
@ 001   ----------------------------------------
	.byte	W72
@ 002   ----------------------------------------
	.byte	W72
@ 003   ----------------------------------------
	.byte	W72
@ 004   ----------------------------------------
	.byte	W72
@ 005   ----------------------------------------
	.byte	W72
@ 006   ----------------------------------------
	.byte	W72
@ 007   ----------------------------------------
	.byte	W72
@ 008   ----------------------------------------
	.byte	W72
@ 009   ----------------------------------------
	.byte	W72
@ 010   ----------------------------------------
	.byte	W72
@ 011   ----------------------------------------
CT_Maguss_Theme_6_011:
	.byte		VOICE , 60
	.byte		VOL   , 2*CT_Maguss_Theme_mvl/mxv
	.byte		N72   , An3 , v127
	.byte	W01
	.byte		VOL   , 5*CT_Maguss_Theme_mvl/mxv
	.byte	W01
	.byte		        7*CT_Maguss_Theme_mvl/mxv
	.byte	W01
	.byte		        10*CT_Maguss_Theme_mvl/mxv
	.byte	W01
	.byte		        13*CT_Maguss_Theme_mvl/mxv
	.byte	W01
	.byte		        15*CT_Maguss_Theme_mvl/mxv
	.byte	W01
	.byte		        18*CT_Maguss_Theme_mvl/mxv
	.byte	W01
	.byte		        21*CT_Maguss_Theme_mvl/mxv
	.byte	W01
	.byte		        23*CT_Maguss_Theme_mvl/mxv
	.byte	W01
	.byte		        26*CT_Maguss_Theme_mvl/mxv
	.byte	W01
	.byte		        29*CT_Maguss_Theme_mvl/mxv
	.byte	W01
	.byte		        31*CT_Maguss_Theme_mvl/mxv
	.byte	W01
	.byte		        34*CT_Maguss_Theme_mvl/mxv
	.byte	W01
	.byte		        37*CT_Maguss_Theme_mvl/mxv
	.byte	W01
	.byte		        39*CT_Maguss_Theme_mvl/mxv
	.byte	W01
	.byte		        42*CT_Maguss_Theme_mvl/mxv
	.byte	W01
	.byte		        44*CT_Maguss_Theme_mvl/mxv
	.byte	W01
	.byte		        47*CT_Maguss_Theme_mvl/mxv
	.byte	W01
	.byte		        50*CT_Maguss_Theme_mvl/mxv
	.byte	W01
	.byte		        52*CT_Maguss_Theme_mvl/mxv
	.byte	W01
	.byte		        55*CT_Maguss_Theme_mvl/mxv
	.byte	W01
	.byte		        58*CT_Maguss_Theme_mvl/mxv
	.byte	W01
	.byte		        60*CT_Maguss_Theme_mvl/mxv
	.byte	W01
	.byte		        63*CT_Maguss_Theme_mvl/mxv
	.byte	W01
	.byte		        66*CT_Maguss_Theme_mvl/mxv
	.byte	W01
	.byte		        68*CT_Maguss_Theme_mvl/mxv
	.byte	W01
	.byte		        71*CT_Maguss_Theme_mvl/mxv
	.byte	W01
	.byte		        74*CT_Maguss_Theme_mvl/mxv
	.byte	W01
	.byte		        76*CT_Maguss_Theme_mvl/mxv
	.byte	W01
	.byte		        79*CT_Maguss_Theme_mvl/mxv
	.byte	W01
	.byte		        82*CT_Maguss_Theme_mvl/mxv
	.byte	W01
	.byte		        84*CT_Maguss_Theme_mvl/mxv
	.byte	W01
	.byte		        87*CT_Maguss_Theme_mvl/mxv
	.byte	W01
	.byte		        89*CT_Maguss_Theme_mvl/mxv
	.byte	W01
	.byte		        92*CT_Maguss_Theme_mvl/mxv
	.byte	W01
	.byte		        95*CT_Maguss_Theme_mvl/mxv
	.byte	W01
	.byte		        97*CT_Maguss_Theme_mvl/mxv
	.byte	W01
	.byte		        100*CT_Maguss_Theme_mvl/mxv
	.byte	W01
	.byte		        103*CT_Maguss_Theme_mvl/mxv
	.byte	W01
	.byte		        105*CT_Maguss_Theme_mvl/mxv
	.byte	W01
	.byte		        108*CT_Maguss_Theme_mvl/mxv
	.byte	W01
	.byte		        111*CT_Maguss_Theme_mvl/mxv
	.byte	W01
	.byte		        113*CT_Maguss_Theme_mvl/mxv
	.byte	W01
	.byte		        116*CT_Maguss_Theme_mvl/mxv
	.byte	W01
	.byte		        119*CT_Maguss_Theme_mvl/mxv
	.byte	W01
	.byte		        121*CT_Maguss_Theme_mvl/mxv
	.byte	W01
	.byte		        124*CT_Maguss_Theme_mvl/mxv
	.byte	W01
	.byte		        126*CT_Maguss_Theme_mvl/mxv
	.byte	W01
	.byte		        127*CT_Maguss_Theme_mvl/mxv
	.byte	W24
	.byte	PEND
@ 012   ----------------------------------------
CT_Maguss_Theme_6_012:
	.byte		VOICE , 47
	.byte		VOL   , 127*CT_Maguss_Theme_mvl/mxv
	.byte		N12   , En2 , v092
	.byte	W24
	.byte		N12   
	.byte	W12
	.byte		N12   
	.byte	W12
	.byte		N12   
	.byte	W24
	.byte	PEND
@ 013   ----------------------------------------
CT_Maguss_Theme_6_013:
	.byte		N12   , Fn2 , v092
	.byte	W24
	.byte		N12   
	.byte	W12
	.byte		N12   
	.byte	W12
	.byte		N12   
	.byte	W24
	.byte	PEND
@ 014   ----------------------------------------
CT_Maguss_Theme_6_014:
	.byte		N12   , En2 , v092
	.byte	W24
	.byte		N12   
	.byte	W12
	.byte		N12   
	.byte	W12
	.byte		N12   
	.byte	W24
	.byte	PEND
@ 015   ----------------------------------------
CT_Maguss_Theme_6_015:
	.byte		N12   , Gn2 , v092
	.byte	W24
	.byte		N12   
	.byte	W12
	.byte		N12   
	.byte	W12
	.byte		N12   
	.byte	W24
	.byte	PEND
@ 016   ----------------------------------------
	.byte	PATT
	 .word	CT_Maguss_Theme_6_014
@ 017   ----------------------------------------
	.byte	PATT
	 .word	CT_Maguss_Theme_6_013
@ 018   ----------------------------------------
	.byte	PATT
	 .word	CT_Maguss_Theme_6_014
@ 019   ----------------------------------------
	.byte	PATT
	 .word	CT_Maguss_Theme_6_015
@ 020   ----------------------------------------
	.byte	PATT
	 .word	CT_Maguss_Theme_6_014
@ 021   ----------------------------------------
	.byte	PATT
	 .word	CT_Maguss_Theme_6_013
@ 022   ----------------------------------------
	.byte	PATT
	 .word	CT_Maguss_Theme_6_014
@ 023   ----------------------------------------
	.byte	PATT
	 .word	CT_Maguss_Theme_6_015
@ 024   ----------------------------------------
	.byte	PATT
	 .word	CT_Maguss_Theme_6_014
@ 025   ----------------------------------------
	.byte	PATT
	 .word	CT_Maguss_Theme_6_013
@ 026   ----------------------------------------
	.byte	PATT
	 .word	CT_Maguss_Theme_6_014
@ 027   ----------------------------------------
	.byte	PATT
	 .word	CT_Maguss_Theme_6_015
@ 028   ----------------------------------------
	.byte	PATT
	 .word	CT_Maguss_Theme_6_014
@ 029   ----------------------------------------
	.byte	PATT
	 .word	CT_Maguss_Theme_6_013
@ 030   ----------------------------------------
	.byte	PATT
	 .word	CT_Maguss_Theme_6_014
@ 031   ----------------------------------------
	.byte	PATT
	 .word	CT_Maguss_Theme_6_015
@ 032   ----------------------------------------
	.byte	PATT
	 .word	CT_Maguss_Theme_6_014
@ 033   ----------------------------------------
	.byte	PATT
	 .word	CT_Maguss_Theme_6_013
@ 034   ----------------------------------------
	.byte	PATT
	 .word	CT_Maguss_Theme_6_014
@ 035   ----------------------------------------
	.byte	PATT
	 .word	CT_Maguss_Theme_6_015
@ 036   ----------------------------------------
	.byte	PATT
	 .word	CT_Maguss_Theme_6_014
@ 037   ----------------------------------------
	.byte	PATT
	 .word	CT_Maguss_Theme_6_013
@ 038   ----------------------------------------
	.byte	PATT
	 .word	CT_Maguss_Theme_6_014
@ 039   ----------------------------------------
	.byte	PATT
	 .word	CT_Maguss_Theme_6_015
@ 040   ----------------------------------------
	.byte	PATT
	 .word	CT_Maguss_Theme_6_014
@ 041   ----------------------------------------
	.byte	PATT
	 .word	CT_Maguss_Theme_6_013
@ 042   ----------------------------------------
	.byte	PATT
	 .word	CT_Maguss_Theme_6_014
@ 043   ----------------------------------------
	.byte	PATT
	 .word	CT_Maguss_Theme_6_015
@ 044   ----------------------------------------
CT_Maguss_Theme_6_044:
	.byte		N24   , An1 , v092
	.byte	W24
	.byte		N12   
	.byte	W12
	.byte		N24   
	.byte	W24
	.byte		N12   
	.byte	W12
	.byte	PEND
@ 045   ----------------------------------------
CT_Maguss_Theme_6_045:
	.byte		N24   , An1 , v092
	.byte	W24
	.byte		N24   
	.byte	W24
	.byte		N24   
	.byte	W24
	.byte	PEND
@ 046   ----------------------------------------
CT_Maguss_Theme_6_046:
	.byte		N24   , Gn1 , v092
	.byte	W24
	.byte		N12   
	.byte	W12
	.byte		N24   
	.byte	W24
	.byte		N12   
	.byte	W12
	.byte	PEND
@ 047   ----------------------------------------
CT_Maguss_Theme_6_047:
	.byte		N24   , Gn1 , v092
	.byte	W24
	.byte		N24   
	.byte	W24
	.byte		N24   
	.byte	W24
	.byte	PEND
@ 048   ----------------------------------------
CT_Maguss_Theme_6_048:
	.byte		N24   , Fn1 , v092
	.byte	W24
	.byte		N12   
	.byte	W12
	.byte		N24   
	.byte	W24
	.byte		N12   
	.byte	W12
	.byte	PEND
@ 049   ----------------------------------------
CT_Maguss_Theme_6_049:
	.byte		N24   , Fn1 , v092
	.byte	W24
	.byte		N24   
	.byte	W24
	.byte		N24   
	.byte	W24
	.byte	PEND
@ 050   ----------------------------------------
	.byte	PATT
	 .word	CT_Maguss_Theme_6_046
@ 051   ----------------------------------------
	.byte	PATT
	 .word	CT_Maguss_Theme_6_047
@ 052   ----------------------------------------
	.byte	PATT
	 .word	CT_Maguss_Theme_6_044
@ 053   ----------------------------------------
	.byte	PATT
	 .word	CT_Maguss_Theme_6_045
@ 054   ----------------------------------------
	.byte	PATT
	 .word	CT_Maguss_Theme_6_046
@ 055   ----------------------------------------
	.byte	PATT
	 .word	CT_Maguss_Theme_6_047
@ 056   ----------------------------------------
CT_Maguss_Theme_6_056:
	.byte		N24   , Dn2 , v092
	.byte	W24
	.byte		N12   
	.byte	W12
	.byte		N24   
	.byte	W24
	.byte		N12   
	.byte	W12
	.byte	PEND
@ 057   ----------------------------------------
CT_Maguss_Theme_6_057:
	.byte		N24   , Dn2 , v092
	.byte	W24
	.byte		N24   
	.byte	W24
	.byte		N24   
	.byte	W24
	.byte	PEND
@ 058   ----------------------------------------
CT_Maguss_Theme_6_058:
	.byte		N24   , Dn2 , v092
	.byte	W24
	.byte		N12   , En2 
	.byte	W12
	.byte		N24   
	.byte	W24
	.byte		N12   
	.byte	W12
	.byte	PEND
@ 059   ----------------------------------------
CT_Maguss_Theme_6_059:
	.byte		N24   , En2 , v092
	.byte	W24
	.byte		        Dn2 
	.byte	W24
	.byte		        Cn2 
	.byte	W24
	.byte	PEND
@ 060   ----------------------------------------
CT_Maguss_Theme_6_060:
	.byte		N24   , An1 , v092
	.byte	W24
	.byte		N12   , Gn1 
	.byte	W12
	.byte		N24   , An1 
	.byte	W24
	.byte		N24   
	.byte	W12
	.byte	PEND
@ 061   ----------------------------------------
CT_Maguss_Theme_6_061:
	.byte	W12
	.byte		N12   , Gn1 , v092
	.byte	W12
	.byte		N24   , Cn2 
	.byte	W24
	.byte		        An1 
	.byte	W24
	.byte	PEND
@ 062   ----------------------------------------
	.byte	PATT
	 .word	CT_Maguss_Theme_6_060
@ 063   ----------------------------------------
CT_Maguss_Theme_6_063:
	.byte	W12
	.byte		N12   , Gn1 , v092
	.byte	W12
	.byte		N24   , Ds2 
	.byte	W24
	.byte		        Dn2 
	.byte	W24
	.byte	PEND
@ 064   ----------------------------------------
	.byte	PATT
	 .word	CT_Maguss_Theme_6_060
@ 065   ----------------------------------------
	.byte	PATT
	 .word	CT_Maguss_Theme_6_061
@ 066   ----------------------------------------
	.byte	PATT
	 .word	CT_Maguss_Theme_6_060
@ 067   ----------------------------------------
	.byte	PATT
	 .word	CT_Maguss_Theme_6_063
@ 068   ----------------------------------------
	.byte	PATT
	 .word	CT_Maguss_Theme_6_060
@ 069   ----------------------------------------
	.byte	PATT
	 .word	CT_Maguss_Theme_6_061
@ 070   ----------------------------------------
	.byte	PATT
	 .word	CT_Maguss_Theme_6_060
@ 071   ----------------------------------------
	.byte	PATT
	 .word	CT_Maguss_Theme_6_063
@ 072   ----------------------------------------
	.byte	PATT
	 .word	CT_Maguss_Theme_6_060
@ 073   ----------------------------------------
	.byte	PATT
	 .word	CT_Maguss_Theme_6_061
@ 074   ----------------------------------------
	.byte	PATT
	 .word	CT_Maguss_Theme_6_060
@ 075   ----------------------------------------
	.byte	PATT
	 .word	CT_Maguss_Theme_6_063
@ 076   ----------------------------------------
CT_Maguss_Theme_6_076:
	.byte		N48   , En2 , v092
	.byte	W48
	.byte		        Dn2 
	.byte	W24
	.byte	PEND
@ 077   ----------------------------------------
	.byte	W24
	.byte		        Cs2 
	.byte	W48
@ 078   ----------------------------------------
	.byte		N96   , Cn2 
	.byte	W72
@ 079   ----------------------------------------
	.byte	W24
	.byte		N48   , Bn1 
	.byte	W48
@ 080   ----------------------------------------
	.byte		N72   , En2 
	.byte	W72
@ 081   ----------------------------------------
CT_Maguss_Theme_6_081:
	.byte		N06   , En2 , v012
	.byte	W06
	.byte		N06   
	.byte	W06
	.byte		        En2 , v016
	.byte	W06
	.byte		N06   
	.byte	W06
	.byte		        En2 , v020
	.byte	W06
	.byte		N06   
	.byte	W06
	.byte		        En2 , v024
	.byte	W06
	.byte		N06   
	.byte	W06
	.byte		        En2 , v028
	.byte	W06
	.byte		N06   
	.byte	W06
	.byte		        En2 , v032
	.byte	W06
	.byte		        En2 , v036
	.byte	W06
	.byte	PEND
@ 082   ----------------------------------------
CT_Maguss_Theme_6_082:
	.byte		N06   , En2 , v036
	.byte	W06
	.byte		        En2 , v040
	.byte	W06
	.byte		        En2 , v044
	.byte	W06
	.byte		N06   
	.byte	W06
	.byte		        En2 , v048
	.byte	W06
	.byte		        En2 , v052
	.byte	W06
	.byte		        En2 , v056
	.byte	W06
	.byte		N06   
	.byte	W06
	.byte		        En2 , v060
	.byte	W06
	.byte		        En2 , v064
	.byte	W06
	.byte		        En2 , v068
	.byte	W06
	.byte		N06   
	.byte	W06
	.byte	PEND
@ 083   ----------------------------------------
CT_Maguss_Theme_6_083:
	.byte		N06   , En2 , v072
	.byte	W06
	.byte		        En2 , v076
	.byte	W06
	.byte		        En2 , v080
	.byte	W06
	.byte		N06   
	.byte	W06
	.byte		        En2 , v084
	.byte	W06
	.byte		        En2 , v088
	.byte	W06
	.byte		        En2 , v092
	.byte	W06
	.byte		N06   
	.byte	W06
	.byte		        En2 , v096
	.byte	W06
	.byte		        En2 , v100
	.byte	W06
	.byte		        En2 , v104
	.byte	W06
	.byte		N06   
	.byte	W06
	.byte	PEND
@ 084   ----------------------------------------
	.byte		N72   , En2 , v108
	.byte	W72
@ 085   ----------------------------------------
	.byte	W72
@ 086   ----------------------------------------
	.byte	W72
@ 087   ----------------------------------------
	.byte	W72
@ 088   ----------------------------------------
	.byte	W72
@ 089   ----------------------------------------
	.byte	W72
@ 090   ----------------------------------------
	.byte	W72
@ 091   ----------------------------------------
	.byte	PATT
	 .word	CT_Maguss_Theme_6_011
@ 092   ----------------------------------------
	.byte	PATT
	 .word	CT_Maguss_Theme_6_012
@ 093   ----------------------------------------
	.byte	PATT
	 .word	CT_Maguss_Theme_6_013
@ 094   ----------------------------------------
	.byte	PATT
	 .word	CT_Maguss_Theme_6_014
@ 095   ----------------------------------------
	.byte	PATT
	 .word	CT_Maguss_Theme_6_015
@ 096   ----------------------------------------
	.byte	PATT
	 .word	CT_Maguss_Theme_6_014
@ 097   ----------------------------------------
	.byte	PATT
	 .word	CT_Maguss_Theme_6_013
@ 098   ----------------------------------------
	.byte	PATT
	 .word	CT_Maguss_Theme_6_014
@ 099   ----------------------------------------
	.byte	PATT
	 .word	CT_Maguss_Theme_6_015
@ 100   ----------------------------------------
	.byte	PATT
	 .word	CT_Maguss_Theme_6_014
@ 101   ----------------------------------------
	.byte	PATT
	 .word	CT_Maguss_Theme_6_013
@ 102   ----------------------------------------
	.byte	PATT
	 .word	CT_Maguss_Theme_6_014
@ 103   ----------------------------------------
	.byte	PATT
	 .word	CT_Maguss_Theme_6_015
@ 104   ----------------------------------------
	.byte	PATT
	 .word	CT_Maguss_Theme_6_014
@ 105   ----------------------------------------
	.byte	PATT
	 .word	CT_Maguss_Theme_6_013
@ 106   ----------------------------------------
	.byte	PATT
	 .word	CT_Maguss_Theme_6_014
@ 107   ----------------------------------------
	.byte	PATT
	 .word	CT_Maguss_Theme_6_015
@ 108   ----------------------------------------
	.byte	PATT
	 .word	CT_Maguss_Theme_6_014
@ 109   ----------------------------------------
	.byte	PATT
	 .word	CT_Maguss_Theme_6_013
@ 110   ----------------------------------------
	.byte	PATT
	 .word	CT_Maguss_Theme_6_014
@ 111   ----------------------------------------
	.byte	PATT
	 .word	CT_Maguss_Theme_6_015
@ 112   ----------------------------------------
	.byte	PATT
	 .word	CT_Maguss_Theme_6_014
@ 113   ----------------------------------------
	.byte	PATT
	 .word	CT_Maguss_Theme_6_013
@ 114   ----------------------------------------
	.byte	PATT
	 .word	CT_Maguss_Theme_6_014
@ 115   ----------------------------------------
	.byte	PATT
	 .word	CT_Maguss_Theme_6_015
@ 116   ----------------------------------------
	.byte	PATT
	 .word	CT_Maguss_Theme_6_014
@ 117   ----------------------------------------
	.byte	PATT
	 .word	CT_Maguss_Theme_6_013
@ 118   ----------------------------------------
	.byte	PATT
	 .word	CT_Maguss_Theme_6_014
@ 119   ----------------------------------------
	.byte	PATT
	 .word	CT_Maguss_Theme_6_015
@ 120   ----------------------------------------
	.byte	PATT
	 .word	CT_Maguss_Theme_6_014
@ 121   ----------------------------------------
	.byte	PATT
	 .word	CT_Maguss_Theme_6_013
@ 122   ----------------------------------------
	.byte	PATT
	 .word	CT_Maguss_Theme_6_014
@ 123   ----------------------------------------
	.byte	PATT
	 .word	CT_Maguss_Theme_6_015
@ 124   ----------------------------------------
	.byte	PATT
	 .word	CT_Maguss_Theme_6_044
@ 125   ----------------------------------------
	.byte	PATT
	 .word	CT_Maguss_Theme_6_045
@ 126   ----------------------------------------
	.byte	PATT
	 .word	CT_Maguss_Theme_6_046
@ 127   ----------------------------------------
	.byte	PATT
	 .word	CT_Maguss_Theme_6_047
@ 128   ----------------------------------------
	.byte	PATT
	 .word	CT_Maguss_Theme_6_048
@ 129   ----------------------------------------
	.byte	PATT
	 .word	CT_Maguss_Theme_6_049
@ 130   ----------------------------------------
	.byte	PATT
	 .word	CT_Maguss_Theme_6_046
@ 131   ----------------------------------------
	.byte	PATT
	 .word	CT_Maguss_Theme_6_047
@ 132   ----------------------------------------
	.byte	PATT
	 .word	CT_Maguss_Theme_6_044
@ 133   ----------------------------------------
	.byte	PATT
	 .word	CT_Maguss_Theme_6_045
@ 134   ----------------------------------------
	.byte	PATT
	 .word	CT_Maguss_Theme_6_046
@ 135   ----------------------------------------
	.byte	PATT
	 .word	CT_Maguss_Theme_6_047
@ 136   ----------------------------------------
	.byte	PATT
	 .word	CT_Maguss_Theme_6_056
@ 137   ----------------------------------------
	.byte	PATT
	 .word	CT_Maguss_Theme_6_057
@ 138   ----------------------------------------
	.byte	PATT
	 .word	CT_Maguss_Theme_6_058
@ 139   ----------------------------------------
	.byte	PATT
	 .word	CT_Maguss_Theme_6_059
@ 140   ----------------------------------------
	.byte	PATT
	 .word	CT_Maguss_Theme_6_060
@ 141   ----------------------------------------
	.byte	PATT
	 .word	CT_Maguss_Theme_6_061
@ 142   ----------------------------------------
	.byte	PATT
	 .word	CT_Maguss_Theme_6_060
@ 143   ----------------------------------------
	.byte	PATT
	 .word	CT_Maguss_Theme_6_063
@ 144   ----------------------------------------
	.byte	PATT
	 .word	CT_Maguss_Theme_6_060
@ 145   ----------------------------------------
	.byte	PATT
	 .word	CT_Maguss_Theme_6_061
@ 146   ----------------------------------------
	.byte	PATT
	 .word	CT_Maguss_Theme_6_060
@ 147   ----------------------------------------
	.byte	PATT
	 .word	CT_Maguss_Theme_6_063
@ 148   ----------------------------------------
	.byte	PATT
	 .word	CT_Maguss_Theme_6_060
@ 149   ----------------------------------------
	.byte	PATT
	 .word	CT_Maguss_Theme_6_061
@ 150   ----------------------------------------
	.byte	PATT
	 .word	CT_Maguss_Theme_6_060
@ 151   ----------------------------------------
	.byte	PATT
	 .word	CT_Maguss_Theme_6_063
@ 152   ----------------------------------------
	.byte	PATT
	 .word	CT_Maguss_Theme_6_060
@ 153   ----------------------------------------
	.byte	PATT
	 .word	CT_Maguss_Theme_6_061
@ 154   ----------------------------------------
	.byte	PATT
	 .word	CT_Maguss_Theme_6_060
@ 155   ----------------------------------------
	.byte	PATT
	 .word	CT_Maguss_Theme_6_063
@ 156   ----------------------------------------
	.byte	PATT
	 .word	CT_Maguss_Theme_6_076
@ 157   ----------------------------------------
	.byte	W24
	.byte		N48   , Cs2 , v092
	.byte	W48
@ 158   ----------------------------------------
	.byte		N96   , Cn2 
	.byte	W72
@ 159   ----------------------------------------
	.byte	W24
	.byte		N48   , Bn1 
	.byte	W48
@ 160   ----------------------------------------
	.byte		N72   , En2 
	.byte	W72
@ 161   ----------------------------------------
	.byte	PATT
	 .word	CT_Maguss_Theme_6_081
@ 162   ----------------------------------------
	.byte	PATT
	 .word	CT_Maguss_Theme_6_082
@ 163   ----------------------------------------
	.byte	PATT
	 .word	CT_Maguss_Theme_6_083
@ 164   ----------------------------------------
	.byte		N72   , En2 , v108
	.byte	W72
@ 165   ----------------------------------------
	.byte	W72
@ 166   ----------------------------------------
	.byte	W72
@ 167   ----------------------------------------
	.byte	W72
@ 168   ----------------------------------------
	.byte	W72
@ 169   ----------------------------------------
	.byte	W72
@ 170   ----------------------------------------
	.byte	W72
@ 171   ----------------------------------------
	.byte	PATT
	 .word	CT_Maguss_Theme_6_011
@ 172   ----------------------------------------
	.byte	PATT
	 .word	CT_Maguss_Theme_6_012
@ 173   ----------------------------------------
	.byte	PATT
	 .word	CT_Maguss_Theme_6_013
@ 174   ----------------------------------------
	.byte	PATT
	 .word	CT_Maguss_Theme_6_014
@ 175   ----------------------------------------
	.byte	PATT
	 .word	CT_Maguss_Theme_6_015
@ 176   ----------------------------------------
	.byte	PATT
	 .word	CT_Maguss_Theme_6_014
@ 177   ----------------------------------------
	.byte	PATT
	 .word	CT_Maguss_Theme_6_013
@ 178   ----------------------------------------
	.byte	PATT
	 .word	CT_Maguss_Theme_6_014
@ 179   ----------------------------------------
	.byte	PATT
	 .word	CT_Maguss_Theme_6_015
@ 180   ----------------------------------------
	.byte	PATT
	 .word	CT_Maguss_Theme_6_014
@ 181   ----------------------------------------
	.byte	PATT
	 .word	CT_Maguss_Theme_6_013
@ 182   ----------------------------------------
	.byte	PATT
	 .word	CT_Maguss_Theme_6_014
@ 183   ----------------------------------------
	.byte	PATT
	 .word	CT_Maguss_Theme_6_015
@ 184   ----------------------------------------
	.byte	PATT
	 .word	CT_Maguss_Theme_6_014
@ 185   ----------------------------------------
	.byte	PATT
	 .word	CT_Maguss_Theme_6_013
@ 186   ----------------------------------------
	.byte	PATT
	 .word	CT_Maguss_Theme_6_014
@ 187   ----------------------------------------
	.byte	PATT
	 .word	CT_Maguss_Theme_6_015
@ 188   ----------------------------------------
	.byte	PATT
	 .word	CT_Maguss_Theme_6_014
@ 189   ----------------------------------------
	.byte	PATT
	 .word	CT_Maguss_Theme_6_013
@ 190   ----------------------------------------
	.byte	PATT
	 .word	CT_Maguss_Theme_6_014
@ 191   ----------------------------------------
	.byte	PATT
	 .word	CT_Maguss_Theme_6_015
@ 192   ----------------------------------------
	.byte	PATT
	 .word	CT_Maguss_Theme_6_014
@ 193   ----------------------------------------
	.byte	PATT
	 .word	CT_Maguss_Theme_6_013
@ 194   ----------------------------------------
	.byte	PATT
	 .word	CT_Maguss_Theme_6_014
@ 195   ----------------------------------------
	.byte	PATT
	 .word	CT_Maguss_Theme_6_015
@ 196   ----------------------------------------
	.byte	PATT
	 .word	CT_Maguss_Theme_6_014
@ 197   ----------------------------------------
	.byte	PATT
	 .word	CT_Maguss_Theme_6_013
@ 198   ----------------------------------------
	.byte	PATT
	 .word	CT_Maguss_Theme_6_014
@ 199   ----------------------------------------
	.byte	PATT
	 .word	CT_Maguss_Theme_6_015
@ 200   ----------------------------------------
	.byte	PATT
	 .word	CT_Maguss_Theme_6_014
@ 201   ----------------------------------------
	.byte	PATT
	 .word	CT_Maguss_Theme_6_013
@ 202   ----------------------------------------
	.byte	PATT
	 .word	CT_Maguss_Theme_6_014
@ 203   ----------------------------------------
	.byte	PATT
	 .word	CT_Maguss_Theme_6_015
@ 204   ----------------------------------------
	.byte	PATT
	 .word	CT_Maguss_Theme_6_044
@ 205   ----------------------------------------
	.byte	PATT
	 .word	CT_Maguss_Theme_6_045
@ 206   ----------------------------------------
	.byte	PATT
	 .word	CT_Maguss_Theme_6_046
@ 207   ----------------------------------------
	.byte	PATT
	 .word	CT_Maguss_Theme_6_047
@ 208   ----------------------------------------
	.byte	PATT
	 .word	CT_Maguss_Theme_6_048
@ 209   ----------------------------------------
	.byte	PATT
	 .word	CT_Maguss_Theme_6_049
@ 210   ----------------------------------------
	.byte	PATT
	 .word	CT_Maguss_Theme_6_046
@ 211   ----------------------------------------
	.byte	PATT
	 .word	CT_Maguss_Theme_6_047
@ 212   ----------------------------------------
	.byte	PATT
	 .word	CT_Maguss_Theme_6_044
@ 213   ----------------------------------------
	.byte	PATT
	 .word	CT_Maguss_Theme_6_045
@ 214   ----------------------------------------
	.byte	PATT
	 .word	CT_Maguss_Theme_6_046
@ 215   ----------------------------------------
	.byte	PATT
	 .word	CT_Maguss_Theme_6_047
@ 216   ----------------------------------------
	.byte	PATT
	 .word	CT_Maguss_Theme_6_056
@ 217   ----------------------------------------
	.byte	PATT
	 .word	CT_Maguss_Theme_6_057
@ 218   ----------------------------------------
	.byte	PATT
	 .word	CT_Maguss_Theme_6_058
@ 219   ----------------------------------------
	.byte	PATT
	 .word	CT_Maguss_Theme_6_059
@ 220   ----------------------------------------
	.byte	PATT
	 .word	CT_Maguss_Theme_6_060
@ 221   ----------------------------------------
	.byte	PATT
	 .word	CT_Maguss_Theme_6_061
@ 222   ----------------------------------------
	.byte	PATT
	 .word	CT_Maguss_Theme_6_060
@ 223   ----------------------------------------
	.byte	PATT
	 .word	CT_Maguss_Theme_6_063
@ 224   ----------------------------------------
	.byte	PATT
	 .word	CT_Maguss_Theme_6_060
@ 225   ----------------------------------------
	.byte	PATT
	 .word	CT_Maguss_Theme_6_061
@ 226   ----------------------------------------
	.byte	PATT
	 .word	CT_Maguss_Theme_6_060
@ 227   ----------------------------------------
	.byte	PATT
	 .word	CT_Maguss_Theme_6_063
@ 228   ----------------------------------------
	.byte	PATT
	 .word	CT_Maguss_Theme_6_060
@ 229   ----------------------------------------
	.byte	PATT
	 .word	CT_Maguss_Theme_6_061
@ 230   ----------------------------------------
	.byte	PATT
	 .word	CT_Maguss_Theme_6_060
@ 231   ----------------------------------------
	.byte	PATT
	 .word	CT_Maguss_Theme_6_063
@ 232   ----------------------------------------
	.byte	PATT
	 .word	CT_Maguss_Theme_6_060
@ 233   ----------------------------------------
	.byte	PATT
	 .word	CT_Maguss_Theme_6_061
@ 234   ----------------------------------------
	.byte	PATT
	 .word	CT_Maguss_Theme_6_060
@ 235   ----------------------------------------
	.byte	PATT
	 .word	CT_Maguss_Theme_6_063
@ 236   ----------------------------------------
	.byte	PATT
	 .word	CT_Maguss_Theme_6_076
@ 237   ----------------------------------------
	.byte	W24
	.byte		N48   , Cs2 , v092
	.byte	W48
@ 238   ----------------------------------------
	.byte		N96   , Cn2 
	.byte	W72
@ 239   ----------------------------------------
	.byte	W24
	.byte		N48   , Bn1 
	.byte	W48
@ 240   ----------------------------------------
	.byte		N72   , En2 
	.byte	W72
@ 241   ----------------------------------------
	.byte	PATT
	 .word	CT_Maguss_Theme_6_081
@ 242   ----------------------------------------
	.byte	PATT
	 .word	CT_Maguss_Theme_6_082
@ 243   ----------------------------------------
	.byte	PATT
	 .word	CT_Maguss_Theme_6_083
@ 244   ----------------------------------------
	.byte		N72   , En2 , v108
	.byte	W72
@ 245   ----------------------------------------
	.byte	W24
	.byte	GOTO
	 .word	CT_Maguss_Theme_6_B1
CT_Maguss_Theme_6_B2:
	.byte	FINE

@**************** Track 7 (Midi-Chn.14) ****************@

CT_Maguss_Theme_7:
	.byte	KEYSH , CT_Maguss_Theme_key+0
CT_Maguss_Theme_7_B1:
@ 000   ----------------------------------------
	.byte		VOICE , 60
	.byte		VOL   , 127*CT_Maguss_Theme_mvl/mxv
	.byte		PAN   , c_v+0
	.byte	W72
@ 001   ----------------------------------------
	.byte	W72
@ 002   ----------------------------------------
	.byte	W72
@ 003   ----------------------------------------
	.byte	W72
@ 004   ----------------------------------------
	.byte	W72
@ 005   ----------------------------------------
	.byte	W72
@ 006   ----------------------------------------
	.byte	W72
@ 007   ----------------------------------------
	.byte	W72
@ 008   ----------------------------------------
	.byte	W72
@ 009   ----------------------------------------
	.byte	W72
@ 010   ----------------------------------------
	.byte	W72
@ 011   ----------------------------------------
CT_Maguss_Theme_7_011:
	.byte		VOICE , 60
	.byte		VOL   , 2*CT_Maguss_Theme_mvl/mxv
	.byte		N72   , Bn3 , v127
	.byte	W01
	.byte		VOL   , 5*CT_Maguss_Theme_mvl/mxv
	.byte	W01
	.byte		        7*CT_Maguss_Theme_mvl/mxv
	.byte	W01
	.byte		        10*CT_Maguss_Theme_mvl/mxv
	.byte	W01
	.byte		        13*CT_Maguss_Theme_mvl/mxv
	.byte	W01
	.byte		        15*CT_Maguss_Theme_mvl/mxv
	.byte	W01
	.byte		        18*CT_Maguss_Theme_mvl/mxv
	.byte	W01
	.byte		        21*CT_Maguss_Theme_mvl/mxv
	.byte	W01
	.byte		        23*CT_Maguss_Theme_mvl/mxv
	.byte	W01
	.byte		        26*CT_Maguss_Theme_mvl/mxv
	.byte	W01
	.byte		        29*CT_Maguss_Theme_mvl/mxv
	.byte	W01
	.byte		        31*CT_Maguss_Theme_mvl/mxv
	.byte	W01
	.byte		        34*CT_Maguss_Theme_mvl/mxv
	.byte	W01
	.byte		        37*CT_Maguss_Theme_mvl/mxv
	.byte	W01
	.byte		        39*CT_Maguss_Theme_mvl/mxv
	.byte	W01
	.byte		        42*CT_Maguss_Theme_mvl/mxv
	.byte	W01
	.byte		        44*CT_Maguss_Theme_mvl/mxv
	.byte	W01
	.byte		        47*CT_Maguss_Theme_mvl/mxv
	.byte	W01
	.byte		        50*CT_Maguss_Theme_mvl/mxv
	.byte	W01
	.byte		        52*CT_Maguss_Theme_mvl/mxv
	.byte	W01
	.byte		        55*CT_Maguss_Theme_mvl/mxv
	.byte	W01
	.byte		        58*CT_Maguss_Theme_mvl/mxv
	.byte	W01
	.byte		        60*CT_Maguss_Theme_mvl/mxv
	.byte	W01
	.byte		        63*CT_Maguss_Theme_mvl/mxv
	.byte	W01
	.byte		        66*CT_Maguss_Theme_mvl/mxv
	.byte	W01
	.byte		        68*CT_Maguss_Theme_mvl/mxv
	.byte	W01
	.byte		        71*CT_Maguss_Theme_mvl/mxv
	.byte	W01
	.byte		        74*CT_Maguss_Theme_mvl/mxv
	.byte	W01
	.byte		        76*CT_Maguss_Theme_mvl/mxv
	.byte	W01
	.byte		        79*CT_Maguss_Theme_mvl/mxv
	.byte	W01
	.byte		        82*CT_Maguss_Theme_mvl/mxv
	.byte	W01
	.byte		        84*CT_Maguss_Theme_mvl/mxv
	.byte	W01
	.byte		        87*CT_Maguss_Theme_mvl/mxv
	.byte	W01
	.byte		        89*CT_Maguss_Theme_mvl/mxv
	.byte	W01
	.byte		        92*CT_Maguss_Theme_mvl/mxv
	.byte	W01
	.byte		        95*CT_Maguss_Theme_mvl/mxv
	.byte	W01
	.byte		        97*CT_Maguss_Theme_mvl/mxv
	.byte	W01
	.byte		        100*CT_Maguss_Theme_mvl/mxv
	.byte	W01
	.byte		        103*CT_Maguss_Theme_mvl/mxv
	.byte	W01
	.byte		        105*CT_Maguss_Theme_mvl/mxv
	.byte	W01
	.byte		        108*CT_Maguss_Theme_mvl/mxv
	.byte	W01
	.byte		        111*CT_Maguss_Theme_mvl/mxv
	.byte	W01
	.byte		        113*CT_Maguss_Theme_mvl/mxv
	.byte	W01
	.byte		        116*CT_Maguss_Theme_mvl/mxv
	.byte	W01
	.byte		        119*CT_Maguss_Theme_mvl/mxv
	.byte	W01
	.byte		        121*CT_Maguss_Theme_mvl/mxv
	.byte	W01
	.byte		        124*CT_Maguss_Theme_mvl/mxv
	.byte	W01
	.byte		        126*CT_Maguss_Theme_mvl/mxv
	.byte	W01
	.byte		        127*CT_Maguss_Theme_mvl/mxv
	.byte	W24
	.byte	PEND
@ 012   ----------------------------------------
CT_Maguss_Theme_7_012:
	.byte		VOICE , 33
	.byte		VOL   , 127*CT_Maguss_Theme_mvl/mxv
	.byte		N24   , En0 , v092
	.byte	W36
	.byte		N12   
	.byte	W24
	.byte		N12   
	.byte	W12
	.byte	PEND
@ 013   ----------------------------------------
CT_Maguss_Theme_7_013:
	.byte		N24   , Fn0 , v092
	.byte	W24
	.byte		N24   
	.byte	W24
	.byte		N24   
	.byte	W24
	.byte	PEND
@ 014   ----------------------------------------
CT_Maguss_Theme_7_014:
	.byte		N24   , En0 , v092
	.byte	W36
	.byte		N12   
	.byte	W24
	.byte		N12   
	.byte	W12
	.byte	PEND
@ 015   ----------------------------------------
CT_Maguss_Theme_7_015:
	.byte		N24   , Gn0 , v092
	.byte	W24
	.byte		N24   
	.byte	W24
	.byte		N24   
	.byte	W24
	.byte	PEND
@ 016   ----------------------------------------
	.byte	PATT
	 .word	CT_Maguss_Theme_7_014
@ 017   ----------------------------------------
	.byte	PATT
	 .word	CT_Maguss_Theme_7_013
@ 018   ----------------------------------------
	.byte	PATT
	 .word	CT_Maguss_Theme_7_014
@ 019   ----------------------------------------
CT_Maguss_Theme_7_019:
	.byte		N24   , Bn0 , v092
	.byte	W24
	.byte		        As0 
	.byte	W24
	.byte		        An0 
	.byte	W24
	.byte	PEND
@ 020   ----------------------------------------
	.byte	PATT
	 .word	CT_Maguss_Theme_7_014
@ 021   ----------------------------------------
	.byte	PATT
	 .word	CT_Maguss_Theme_7_013
@ 022   ----------------------------------------
	.byte	PATT
	 .word	CT_Maguss_Theme_7_014
@ 023   ----------------------------------------
	.byte	PATT
	 .word	CT_Maguss_Theme_7_015
@ 024   ----------------------------------------
	.byte	PATT
	 .word	CT_Maguss_Theme_7_014
@ 025   ----------------------------------------
	.byte	PATT
	 .word	CT_Maguss_Theme_7_013
@ 026   ----------------------------------------
	.byte	PATT
	 .word	CT_Maguss_Theme_7_014
@ 027   ----------------------------------------
	.byte	PATT
	 .word	CT_Maguss_Theme_7_019
@ 028   ----------------------------------------
	.byte	PATT
	 .word	CT_Maguss_Theme_7_014
@ 029   ----------------------------------------
	.byte	PATT
	 .word	CT_Maguss_Theme_7_013
@ 030   ----------------------------------------
	.byte	PATT
	 .word	CT_Maguss_Theme_7_014
@ 031   ----------------------------------------
	.byte	PATT
	 .word	CT_Maguss_Theme_7_015
@ 032   ----------------------------------------
	.byte	PATT
	 .word	CT_Maguss_Theme_7_014
@ 033   ----------------------------------------
	.byte	PATT
	 .word	CT_Maguss_Theme_7_013
@ 034   ----------------------------------------
	.byte	PATT
	 .word	CT_Maguss_Theme_7_014
@ 035   ----------------------------------------
	.byte	PATT
	 .word	CT_Maguss_Theme_7_019
@ 036   ----------------------------------------
	.byte	PATT
	 .word	CT_Maguss_Theme_7_014
@ 037   ----------------------------------------
	.byte	PATT
	 .word	CT_Maguss_Theme_7_013
@ 038   ----------------------------------------
	.byte	PATT
	 .word	CT_Maguss_Theme_7_014
@ 039   ----------------------------------------
	.byte	PATT
	 .word	CT_Maguss_Theme_7_015
@ 040   ----------------------------------------
	.byte	PATT
	 .word	CT_Maguss_Theme_7_014
@ 041   ----------------------------------------
	.byte	PATT
	 .word	CT_Maguss_Theme_7_013
@ 042   ----------------------------------------
	.byte	PATT
	 .word	CT_Maguss_Theme_7_014
@ 043   ----------------------------------------
	.byte	PATT
	 .word	CT_Maguss_Theme_7_019
@ 044   ----------------------------------------
CT_Maguss_Theme_7_044:
	.byte		N24   , An0 , v092
	.byte	W24
	.byte		N24   
	.byte	W24
	.byte		N24   
	.byte	W24
	.byte	PEND
@ 045   ----------------------------------------
	.byte	PATT
	 .word	CT_Maguss_Theme_7_044
@ 046   ----------------------------------------
	.byte	PATT
	 .word	CT_Maguss_Theme_7_015
@ 047   ----------------------------------------
	.byte	PATT
	 .word	CT_Maguss_Theme_7_015
@ 048   ----------------------------------------
	.byte	PATT
	 .word	CT_Maguss_Theme_7_013
@ 049   ----------------------------------------
	.byte	PATT
	 .word	CT_Maguss_Theme_7_013
@ 050   ----------------------------------------
	.byte	PATT
	 .word	CT_Maguss_Theme_7_015
@ 051   ----------------------------------------
	.byte	PATT
	 .word	CT_Maguss_Theme_7_015
@ 052   ----------------------------------------
	.byte	PATT
	 .word	CT_Maguss_Theme_7_044
@ 053   ----------------------------------------
	.byte	PATT
	 .word	CT_Maguss_Theme_7_044
@ 054   ----------------------------------------
	.byte	PATT
	 .word	CT_Maguss_Theme_7_015
@ 055   ----------------------------------------
	.byte	PATT
	 .word	CT_Maguss_Theme_7_015
@ 056   ----------------------------------------
CT_Maguss_Theme_7_056:
	.byte		N24   , Dn1 , v092
	.byte	W24
	.byte		N24   
	.byte	W24
	.byte		N24   
	.byte	W24
	.byte	PEND
@ 057   ----------------------------------------
	.byte	PATT
	 .word	CT_Maguss_Theme_7_056
@ 058   ----------------------------------------
CT_Maguss_Theme_7_058:
	.byte		N24   , En1 , v092
	.byte	W24
	.byte		N24   
	.byte	W24
	.byte		N24   
	.byte	W24
	.byte	PEND
@ 059   ----------------------------------------
CT_Maguss_Theme_7_059:
	.byte		N24   , En1 , v092
	.byte	W24
	.byte		        Dn1 
	.byte	W24
	.byte		        Cn1 
	.byte	W24
	.byte	PEND
@ 060   ----------------------------------------
CT_Maguss_Theme_7_060:
	.byte		N24   , An0 , v092
	.byte	W24
	.byte		N12   , Gn0 
	.byte	W12
	.byte		        An0 
	.byte	W24
	.byte		N24   
	.byte	W12
	.byte	PEND
@ 061   ----------------------------------------
CT_Maguss_Theme_7_061:
	.byte	W12
	.byte		N12   , Gn0 , v092
	.byte	W12
	.byte		N24   , Cn1 
	.byte	W24
	.byte		        An0 
	.byte	W24
	.byte	PEND
@ 062   ----------------------------------------
	.byte	PATT
	 .word	CT_Maguss_Theme_7_060
@ 063   ----------------------------------------
CT_Maguss_Theme_7_063:
	.byte	W12
	.byte		N12   , Gn0 , v092
	.byte	W12
	.byte		N24   , Ds1 
	.byte	W24
	.byte		        Dn1 
	.byte	W24
	.byte	PEND
@ 064   ----------------------------------------
	.byte	PATT
	 .word	CT_Maguss_Theme_7_060
@ 065   ----------------------------------------
	.byte	PATT
	 .word	CT_Maguss_Theme_7_061
@ 066   ----------------------------------------
	.byte	PATT
	 .word	CT_Maguss_Theme_7_060
@ 067   ----------------------------------------
	.byte	PATT
	 .word	CT_Maguss_Theme_7_063
@ 068   ----------------------------------------
	.byte	PATT
	 .word	CT_Maguss_Theme_7_060
@ 069   ----------------------------------------
	.byte	PATT
	 .word	CT_Maguss_Theme_7_061
@ 070   ----------------------------------------
	.byte	PATT
	 .word	CT_Maguss_Theme_7_060
@ 071   ----------------------------------------
	.byte	PATT
	 .word	CT_Maguss_Theme_7_063
@ 072   ----------------------------------------
	.byte	PATT
	 .word	CT_Maguss_Theme_7_060
@ 073   ----------------------------------------
	.byte	PATT
	 .word	CT_Maguss_Theme_7_061
@ 074   ----------------------------------------
	.byte	PATT
	 .word	CT_Maguss_Theme_7_060
@ 075   ----------------------------------------
	.byte	PATT
	 .word	CT_Maguss_Theme_7_063
@ 076   ----------------------------------------
CT_Maguss_Theme_7_076:
	.byte		N48   , En1 , v092
	.byte	W48
	.byte		        Dn1 
	.byte	W24
	.byte	PEND
@ 077   ----------------------------------------
	.byte	W24
	.byte		        Cs1 
	.byte	W48
@ 078   ----------------------------------------
	.byte		N96   , Cn1 
	.byte	W72
@ 079   ----------------------------------------
	.byte	W24
	.byte		N48   , Bn0 
	.byte	W48
@ 080   ----------------------------------------
	.byte		N96   , En1 
	.byte	W72
@ 081   ----------------------------------------
	.byte	W24
	.byte		N48   , Bn0 
	.byte	W48
@ 082   ----------------------------------------
	.byte		TIE   , En0 
	.byte	W72
@ 083   ----------------------------------------
	.byte	W72
	.byte		EOT   
@ 084   ----------------------------------------
	.byte	W72
@ 085   ----------------------------------------
	.byte	W72
@ 086   ----------------------------------------
	.byte	W72
@ 087   ----------------------------------------
	.byte	W72
@ 088   ----------------------------------------
	.byte	W72
@ 089   ----------------------------------------
	.byte	W72
@ 090   ----------------------------------------
	.byte	W72
@ 091   ----------------------------------------
	.byte	PATT
	 .word	CT_Maguss_Theme_7_011
@ 092   ----------------------------------------
	.byte	PATT
	 .word	CT_Maguss_Theme_7_012
@ 093   ----------------------------------------
	.byte	PATT
	 .word	CT_Maguss_Theme_7_013
@ 094   ----------------------------------------
	.byte	PATT
	 .word	CT_Maguss_Theme_7_014
@ 095   ----------------------------------------
	.byte	PATT
	 .word	CT_Maguss_Theme_7_015
@ 096   ----------------------------------------
	.byte	PATT
	 .word	CT_Maguss_Theme_7_014
@ 097   ----------------------------------------
	.byte	PATT
	 .word	CT_Maguss_Theme_7_013
@ 098   ----------------------------------------
	.byte	PATT
	 .word	CT_Maguss_Theme_7_014
@ 099   ----------------------------------------
	.byte	PATT
	 .word	CT_Maguss_Theme_7_019
@ 100   ----------------------------------------
	.byte	PATT
	 .word	CT_Maguss_Theme_7_014
@ 101   ----------------------------------------
	.byte	PATT
	 .word	CT_Maguss_Theme_7_013
@ 102   ----------------------------------------
	.byte	PATT
	 .word	CT_Maguss_Theme_7_014
@ 103   ----------------------------------------
	.byte	PATT
	 .word	CT_Maguss_Theme_7_015
@ 104   ----------------------------------------
	.byte	PATT
	 .word	CT_Maguss_Theme_7_014
@ 105   ----------------------------------------
	.byte	PATT
	 .word	CT_Maguss_Theme_7_013
@ 106   ----------------------------------------
	.byte	PATT
	 .word	CT_Maguss_Theme_7_014
@ 107   ----------------------------------------
	.byte	PATT
	 .word	CT_Maguss_Theme_7_019
@ 108   ----------------------------------------
	.byte	PATT
	 .word	CT_Maguss_Theme_7_014
@ 109   ----------------------------------------
	.byte	PATT
	 .word	CT_Maguss_Theme_7_013
@ 110   ----------------------------------------
	.byte	PATT
	 .word	CT_Maguss_Theme_7_014
@ 111   ----------------------------------------
	.byte	PATT
	 .word	CT_Maguss_Theme_7_015
@ 112   ----------------------------------------
	.byte	PATT
	 .word	CT_Maguss_Theme_7_014
@ 113   ----------------------------------------
	.byte	PATT
	 .word	CT_Maguss_Theme_7_013
@ 114   ----------------------------------------
	.byte	PATT
	 .word	CT_Maguss_Theme_7_014
@ 115   ----------------------------------------
	.byte	PATT
	 .word	CT_Maguss_Theme_7_019
@ 116   ----------------------------------------
	.byte	PATT
	 .word	CT_Maguss_Theme_7_014
@ 117   ----------------------------------------
	.byte	PATT
	 .word	CT_Maguss_Theme_7_013
@ 118   ----------------------------------------
	.byte	PATT
	 .word	CT_Maguss_Theme_7_014
@ 119   ----------------------------------------
	.byte	PATT
	 .word	CT_Maguss_Theme_7_015
@ 120   ----------------------------------------
	.byte	PATT
	 .word	CT_Maguss_Theme_7_014
@ 121   ----------------------------------------
	.byte	PATT
	 .word	CT_Maguss_Theme_7_013
@ 122   ----------------------------------------
	.byte	PATT
	 .word	CT_Maguss_Theme_7_014
@ 123   ----------------------------------------
	.byte	PATT
	 .word	CT_Maguss_Theme_7_019
@ 124   ----------------------------------------
	.byte	PATT
	 .word	CT_Maguss_Theme_7_044
@ 125   ----------------------------------------
	.byte	PATT
	 .word	CT_Maguss_Theme_7_044
@ 126   ----------------------------------------
	.byte	PATT
	 .word	CT_Maguss_Theme_7_015
@ 127   ----------------------------------------
	.byte	PATT
	 .word	CT_Maguss_Theme_7_015
@ 128   ----------------------------------------
	.byte	PATT
	 .word	CT_Maguss_Theme_7_013
@ 129   ----------------------------------------
	.byte	PATT
	 .word	CT_Maguss_Theme_7_013
@ 130   ----------------------------------------
	.byte	PATT
	 .word	CT_Maguss_Theme_7_015
@ 131   ----------------------------------------
	.byte	PATT
	 .word	CT_Maguss_Theme_7_015
@ 132   ----------------------------------------
	.byte	PATT
	 .word	CT_Maguss_Theme_7_044
@ 133   ----------------------------------------
	.byte	PATT
	 .word	CT_Maguss_Theme_7_044
@ 134   ----------------------------------------
	.byte	PATT
	 .word	CT_Maguss_Theme_7_015
@ 135   ----------------------------------------
	.byte	PATT
	 .word	CT_Maguss_Theme_7_015
@ 136   ----------------------------------------
	.byte	PATT
	 .word	CT_Maguss_Theme_7_056
@ 137   ----------------------------------------
	.byte	PATT
	 .word	CT_Maguss_Theme_7_056
@ 138   ----------------------------------------
	.byte	PATT
	 .word	CT_Maguss_Theme_7_058
@ 139   ----------------------------------------
	.byte	PATT
	 .word	CT_Maguss_Theme_7_059
@ 140   ----------------------------------------
	.byte	PATT
	 .word	CT_Maguss_Theme_7_060
@ 141   ----------------------------------------
	.byte	PATT
	 .word	CT_Maguss_Theme_7_061
@ 142   ----------------------------------------
	.byte	PATT
	 .word	CT_Maguss_Theme_7_060
@ 143   ----------------------------------------
	.byte	PATT
	 .word	CT_Maguss_Theme_7_063
@ 144   ----------------------------------------
	.byte	PATT
	 .word	CT_Maguss_Theme_7_060
@ 145   ----------------------------------------
	.byte	PATT
	 .word	CT_Maguss_Theme_7_061
@ 146   ----------------------------------------
	.byte	PATT
	 .word	CT_Maguss_Theme_7_060
@ 147   ----------------------------------------
	.byte	PATT
	 .word	CT_Maguss_Theme_7_063
@ 148   ----------------------------------------
	.byte	PATT
	 .word	CT_Maguss_Theme_7_060
@ 149   ----------------------------------------
	.byte	PATT
	 .word	CT_Maguss_Theme_7_061
@ 150   ----------------------------------------
	.byte	PATT
	 .word	CT_Maguss_Theme_7_060
@ 151   ----------------------------------------
	.byte	PATT
	 .word	CT_Maguss_Theme_7_063
@ 152   ----------------------------------------
	.byte	PATT
	 .word	CT_Maguss_Theme_7_060
@ 153   ----------------------------------------
	.byte	PATT
	 .word	CT_Maguss_Theme_7_061
@ 154   ----------------------------------------
	.byte	PATT
	 .word	CT_Maguss_Theme_7_060
@ 155   ----------------------------------------
	.byte	PATT
	 .word	CT_Maguss_Theme_7_063
@ 156   ----------------------------------------
	.byte	PATT
	 .word	CT_Maguss_Theme_7_076
@ 157   ----------------------------------------
	.byte	W24
	.byte		N48   , Cs1 , v092
	.byte	W48
@ 158   ----------------------------------------
	.byte		N96   , Cn1 
	.byte	W72
@ 159   ----------------------------------------
	.byte	W24
	.byte		N48   , Bn0 
	.byte	W48
@ 160   ----------------------------------------
	.byte		N96   , En1 
	.byte	W72
@ 161   ----------------------------------------
	.byte	W24
	.byte		N48   , Bn0 
	.byte	W48
@ 162   ----------------------------------------
	.byte		TIE   , En0 
	.byte	W72
@ 163   ----------------------------------------
	.byte	W72
	.byte		EOT   
@ 164   ----------------------------------------
	.byte	W72
@ 165   ----------------------------------------
	.byte	W72
@ 166   ----------------------------------------
	.byte	W72
@ 167   ----------------------------------------
	.byte	W72
@ 168   ----------------------------------------
	.byte	W72
@ 169   ----------------------------------------
	.byte	W72
@ 170   ----------------------------------------
	.byte	W72
@ 171   ----------------------------------------
	.byte	PATT
	 .word	CT_Maguss_Theme_7_011
@ 172   ----------------------------------------
	.byte	PATT
	 .word	CT_Maguss_Theme_7_012
@ 173   ----------------------------------------
	.byte	PATT
	 .word	CT_Maguss_Theme_7_013
@ 174   ----------------------------------------
	.byte	PATT
	 .word	CT_Maguss_Theme_7_014
@ 175   ----------------------------------------
	.byte	PATT
	 .word	CT_Maguss_Theme_7_015
@ 176   ----------------------------------------
	.byte	PATT
	 .word	CT_Maguss_Theme_7_014
@ 177   ----------------------------------------
	.byte	PATT
	 .word	CT_Maguss_Theme_7_013
@ 178   ----------------------------------------
	.byte	PATT
	 .word	CT_Maguss_Theme_7_014
@ 179   ----------------------------------------
	.byte	PATT
	 .word	CT_Maguss_Theme_7_019
@ 180   ----------------------------------------
	.byte	PATT
	 .word	CT_Maguss_Theme_7_014
@ 181   ----------------------------------------
	.byte	PATT
	 .word	CT_Maguss_Theme_7_013
@ 182   ----------------------------------------
	.byte	PATT
	 .word	CT_Maguss_Theme_7_014
@ 183   ----------------------------------------
	.byte	PATT
	 .word	CT_Maguss_Theme_7_015
@ 184   ----------------------------------------
	.byte	PATT
	 .word	CT_Maguss_Theme_7_014
@ 185   ----------------------------------------
	.byte	PATT
	 .word	CT_Maguss_Theme_7_013
@ 186   ----------------------------------------
	.byte	PATT
	 .word	CT_Maguss_Theme_7_014
@ 187   ----------------------------------------
	.byte	PATT
	 .word	CT_Maguss_Theme_7_019
@ 188   ----------------------------------------
	.byte	PATT
	 .word	CT_Maguss_Theme_7_014
@ 189   ----------------------------------------
	.byte	PATT
	 .word	CT_Maguss_Theme_7_013
@ 190   ----------------------------------------
	.byte	PATT
	 .word	CT_Maguss_Theme_7_014
@ 191   ----------------------------------------
	.byte	PATT
	 .word	CT_Maguss_Theme_7_015
@ 192   ----------------------------------------
	.byte	PATT
	 .word	CT_Maguss_Theme_7_014
@ 193   ----------------------------------------
	.byte	PATT
	 .word	CT_Maguss_Theme_7_013
@ 194   ----------------------------------------
	.byte	PATT
	 .word	CT_Maguss_Theme_7_014
@ 195   ----------------------------------------
	.byte	PATT
	 .word	CT_Maguss_Theme_7_019
@ 196   ----------------------------------------
	.byte	PATT
	 .word	CT_Maguss_Theme_7_014
@ 197   ----------------------------------------
	.byte	PATT
	 .word	CT_Maguss_Theme_7_013
@ 198   ----------------------------------------
	.byte	PATT
	 .word	CT_Maguss_Theme_7_014
@ 199   ----------------------------------------
	.byte	PATT
	 .word	CT_Maguss_Theme_7_015
@ 200   ----------------------------------------
	.byte	PATT
	 .word	CT_Maguss_Theme_7_014
@ 201   ----------------------------------------
	.byte	PATT
	 .word	CT_Maguss_Theme_7_013
@ 202   ----------------------------------------
	.byte	PATT
	 .word	CT_Maguss_Theme_7_014
@ 203   ----------------------------------------
	.byte	PATT
	 .word	CT_Maguss_Theme_7_019
@ 204   ----------------------------------------
	.byte	PATT
	 .word	CT_Maguss_Theme_7_044
@ 205   ----------------------------------------
	.byte	PATT
	 .word	CT_Maguss_Theme_7_044
@ 206   ----------------------------------------
	.byte	PATT
	 .word	CT_Maguss_Theme_7_015
@ 207   ----------------------------------------
	.byte	PATT
	 .word	CT_Maguss_Theme_7_015
@ 208   ----------------------------------------
	.byte	PATT
	 .word	CT_Maguss_Theme_7_013
@ 209   ----------------------------------------
	.byte	PATT
	 .word	CT_Maguss_Theme_7_013
@ 210   ----------------------------------------
	.byte	PATT
	 .word	CT_Maguss_Theme_7_015
@ 211   ----------------------------------------
	.byte	PATT
	 .word	CT_Maguss_Theme_7_015
@ 212   ----------------------------------------
	.byte	PATT
	 .word	CT_Maguss_Theme_7_044
@ 213   ----------------------------------------
	.byte	PATT
	 .word	CT_Maguss_Theme_7_044
@ 214   ----------------------------------------
	.byte	PATT
	 .word	CT_Maguss_Theme_7_015
@ 215   ----------------------------------------
	.byte	PATT
	 .word	CT_Maguss_Theme_7_015
@ 216   ----------------------------------------
	.byte	PATT
	 .word	CT_Maguss_Theme_7_056
@ 217   ----------------------------------------
	.byte	PATT
	 .word	CT_Maguss_Theme_7_056
@ 218   ----------------------------------------
	.byte	PATT
	 .word	CT_Maguss_Theme_7_058
@ 219   ----------------------------------------
	.byte	PATT
	 .word	CT_Maguss_Theme_7_059
@ 220   ----------------------------------------
	.byte	PATT
	 .word	CT_Maguss_Theme_7_060
@ 221   ----------------------------------------
	.byte	PATT
	 .word	CT_Maguss_Theme_7_061
@ 222   ----------------------------------------
	.byte	PATT
	 .word	CT_Maguss_Theme_7_060
@ 223   ----------------------------------------
	.byte	PATT
	 .word	CT_Maguss_Theme_7_063
@ 224   ----------------------------------------
	.byte	PATT
	 .word	CT_Maguss_Theme_7_060
@ 225   ----------------------------------------
	.byte	PATT
	 .word	CT_Maguss_Theme_7_061
@ 226   ----------------------------------------
	.byte	PATT
	 .word	CT_Maguss_Theme_7_060
@ 227   ----------------------------------------
	.byte	PATT
	 .word	CT_Maguss_Theme_7_063
@ 228   ----------------------------------------
	.byte	PATT
	 .word	CT_Maguss_Theme_7_060
@ 229   ----------------------------------------
	.byte	PATT
	 .word	CT_Maguss_Theme_7_061
@ 230   ----------------------------------------
	.byte	PATT
	 .word	CT_Maguss_Theme_7_060
@ 231   ----------------------------------------
	.byte	PATT
	 .word	CT_Maguss_Theme_7_063
@ 232   ----------------------------------------
	.byte	PATT
	 .word	CT_Maguss_Theme_7_060
@ 233   ----------------------------------------
	.byte	PATT
	 .word	CT_Maguss_Theme_7_061
@ 234   ----------------------------------------
	.byte	PATT
	 .word	CT_Maguss_Theme_7_060
@ 235   ----------------------------------------
	.byte	PATT
	 .word	CT_Maguss_Theme_7_063
@ 236   ----------------------------------------
	.byte	PATT
	 .word	CT_Maguss_Theme_7_076
@ 237   ----------------------------------------
	.byte	W24
	.byte		N48   , Cs1 , v092
	.byte	W48
@ 238   ----------------------------------------
	.byte		N96   , Cn1 
	.byte	W72
@ 239   ----------------------------------------
	.byte	W24
	.byte		N48   , Bn0 
	.byte	W48
@ 240   ----------------------------------------
	.byte		N96   , En1 
	.byte	W72
@ 241   ----------------------------------------
	.byte	W24
	.byte		N48   , Bn0 
	.byte	W48
@ 242   ----------------------------------------
	.byte		TIE   , En0 
	.byte	W72
@ 243   ----------------------------------------
	.byte	W72
	.byte		EOT   
@ 244   ----------------------------------------
	.byte	W72
@ 245   ----------------------------------------
	.byte	W24
	.byte	GOTO
	 .word	CT_Maguss_Theme_7_B1
CT_Maguss_Theme_7_B2:
	.byte	FINE

@**************** Track 8 (Midi-Chn.16) ****************@

CT_Maguss_Theme_8:
	.byte	KEYSH , CT_Maguss_Theme_key+0
CT_Maguss_Theme_8_B1:
@ 000   ----------------------------------------
	.byte		VOICE , 56
	.byte		VOL   , 127*CT_Maguss_Theme_mvl/mxv
	.byte		PAN   , c_v+0
	.byte		VOL   , 127*CT_Maguss_Theme_mvl/mxv
	.byte		PAN   , c_v+0
	.byte	W72
@ 001   ----------------------------------------
	.byte	W72
@ 002   ----------------------------------------
	.byte	W72
@ 003   ----------------------------------------
	.byte	W72
@ 004   ----------------------------------------
	.byte	W72
@ 005   ----------------------------------------
	.byte	W72
@ 006   ----------------------------------------
	.byte	W72
@ 007   ----------------------------------------
	.byte	W72
@ 008   ----------------------------------------
	.byte	W72
@ 009   ----------------------------------------
	.byte	W72
@ 010   ----------------------------------------
	.byte	W72
@ 011   ----------------------------------------
CT_Maguss_Theme_8_011:
	.byte		VOICE , 60
	.byte		VOL   , 2*CT_Maguss_Theme_mvl/mxv
	.byte		N72   , En4 , v127
	.byte	W01
	.byte		VOL   , 5*CT_Maguss_Theme_mvl/mxv
	.byte	W01
	.byte		        7*CT_Maguss_Theme_mvl/mxv
	.byte	W01
	.byte		        10*CT_Maguss_Theme_mvl/mxv
	.byte	W01
	.byte		        13*CT_Maguss_Theme_mvl/mxv
	.byte	W01
	.byte		        15*CT_Maguss_Theme_mvl/mxv
	.byte	W01
	.byte		        18*CT_Maguss_Theme_mvl/mxv
	.byte	W01
	.byte		        21*CT_Maguss_Theme_mvl/mxv
	.byte	W01
	.byte		        23*CT_Maguss_Theme_mvl/mxv
	.byte	W01
	.byte		        26*CT_Maguss_Theme_mvl/mxv
	.byte	W01
	.byte		        29*CT_Maguss_Theme_mvl/mxv
	.byte	W01
	.byte		        31*CT_Maguss_Theme_mvl/mxv
	.byte	W01
	.byte		        34*CT_Maguss_Theme_mvl/mxv
	.byte	W01
	.byte		        37*CT_Maguss_Theme_mvl/mxv
	.byte	W01
	.byte		        39*CT_Maguss_Theme_mvl/mxv
	.byte	W01
	.byte		        42*CT_Maguss_Theme_mvl/mxv
	.byte	W01
	.byte		        44*CT_Maguss_Theme_mvl/mxv
	.byte	W01
	.byte		        47*CT_Maguss_Theme_mvl/mxv
	.byte	W01
	.byte		        50*CT_Maguss_Theme_mvl/mxv
	.byte	W01
	.byte		        52*CT_Maguss_Theme_mvl/mxv
	.byte	W01
	.byte		        55*CT_Maguss_Theme_mvl/mxv
	.byte	W01
	.byte		        58*CT_Maguss_Theme_mvl/mxv
	.byte	W01
	.byte		        60*CT_Maguss_Theme_mvl/mxv
	.byte	W01
	.byte		        63*CT_Maguss_Theme_mvl/mxv
	.byte	W01
	.byte		        66*CT_Maguss_Theme_mvl/mxv
	.byte	W01
	.byte		        68*CT_Maguss_Theme_mvl/mxv
	.byte	W01
	.byte		        71*CT_Maguss_Theme_mvl/mxv
	.byte	W01
	.byte		        74*CT_Maguss_Theme_mvl/mxv
	.byte	W01
	.byte		        76*CT_Maguss_Theme_mvl/mxv
	.byte	W01
	.byte		        79*CT_Maguss_Theme_mvl/mxv
	.byte	W01
	.byte		        82*CT_Maguss_Theme_mvl/mxv
	.byte	W01
	.byte		        84*CT_Maguss_Theme_mvl/mxv
	.byte	W01
	.byte		        87*CT_Maguss_Theme_mvl/mxv
	.byte	W01
	.byte		        89*CT_Maguss_Theme_mvl/mxv
	.byte	W01
	.byte		        92*CT_Maguss_Theme_mvl/mxv
	.byte	W01
	.byte		        95*CT_Maguss_Theme_mvl/mxv
	.byte	W01
	.byte		        97*CT_Maguss_Theme_mvl/mxv
	.byte	W01
	.byte		        100*CT_Maguss_Theme_mvl/mxv
	.byte	W01
	.byte		        103*CT_Maguss_Theme_mvl/mxv
	.byte	W01
	.byte		        105*CT_Maguss_Theme_mvl/mxv
	.byte	W01
	.byte		        108*CT_Maguss_Theme_mvl/mxv
	.byte	W01
	.byte		        111*CT_Maguss_Theme_mvl/mxv
	.byte	W01
	.byte		        113*CT_Maguss_Theme_mvl/mxv
	.byte	W01
	.byte		        116*CT_Maguss_Theme_mvl/mxv
	.byte	W01
	.byte		        119*CT_Maguss_Theme_mvl/mxv
	.byte	W01
	.byte		        121*CT_Maguss_Theme_mvl/mxv
	.byte	W01
	.byte		        124*CT_Maguss_Theme_mvl/mxv
	.byte	W01
	.byte		        126*CT_Maguss_Theme_mvl/mxv
	.byte	W01
	.byte		        127*CT_Maguss_Theme_mvl/mxv
	.byte	W24
	.byte	PEND
@ 012   ----------------------------------------
CT_Maguss_Theme_8_012:
	.byte		VOICE , 56
	.byte		VOL   , 127*CT_Maguss_Theme_mvl/mxv
	.byte		N04   , Bn3 , v092
	.byte	W12
	.byte		N04   
	.byte	W24
	.byte		N04   
	.byte	W12
	.byte		N04   
	.byte	W24
	.byte	PEND
@ 013   ----------------------------------------
CT_Maguss_Theme_8_013:
	.byte		N04   , An3 , v092
	.byte	W24
	.byte		N04   
	.byte	W24
	.byte		N04   
	.byte	W24
	.byte	PEND
@ 014   ----------------------------------------
CT_Maguss_Theme_8_014:
	.byte		N04   , Bn3 , v092
	.byte	W12
	.byte		N04   
	.byte	W24
	.byte		N04   
	.byte	W12
	.byte		N04   
	.byte	W24
	.byte	PEND
@ 015   ----------------------------------------
CT_Maguss_Theme_8_015:
	.byte		N04   , Fs3 , v092
	.byte	W24
	.byte		N04   
	.byte	W24
	.byte		N04   
	.byte	W24
	.byte	PEND
@ 016   ----------------------------------------
	.byte	PATT
	 .word	CT_Maguss_Theme_8_014
@ 017   ----------------------------------------
	.byte	PATT
	 .word	CT_Maguss_Theme_8_013
@ 018   ----------------------------------------
	.byte	PATT
	 .word	CT_Maguss_Theme_8_014
@ 019   ----------------------------------------
CT_Maguss_Theme_8_019:
	.byte		N04   , Dn4 , v092
	.byte	W24
	.byte		N04   
	.byte	W24
	.byte		N04   
	.byte	W24
	.byte	PEND
@ 020   ----------------------------------------
	.byte	PATT
	 .word	CT_Maguss_Theme_8_014
@ 021   ----------------------------------------
	.byte	PATT
	 .word	CT_Maguss_Theme_8_013
@ 022   ----------------------------------------
	.byte	PATT
	 .word	CT_Maguss_Theme_8_014
@ 023   ----------------------------------------
	.byte	PATT
	 .word	CT_Maguss_Theme_8_015
@ 024   ----------------------------------------
	.byte	PATT
	 .word	CT_Maguss_Theme_8_014
@ 025   ----------------------------------------
	.byte	PATT
	 .word	CT_Maguss_Theme_8_013
@ 026   ----------------------------------------
	.byte	PATT
	 .word	CT_Maguss_Theme_8_014
@ 027   ----------------------------------------
	.byte	PATT
	 .word	CT_Maguss_Theme_8_019
@ 028   ----------------------------------------
	.byte	PATT
	 .word	CT_Maguss_Theme_8_014
@ 029   ----------------------------------------
	.byte	PATT
	 .word	CT_Maguss_Theme_8_013
@ 030   ----------------------------------------
	.byte	PATT
	 .word	CT_Maguss_Theme_8_014
@ 031   ----------------------------------------
	.byte	PATT
	 .word	CT_Maguss_Theme_8_015
@ 032   ----------------------------------------
	.byte	PATT
	 .word	CT_Maguss_Theme_8_014
@ 033   ----------------------------------------
	.byte	PATT
	 .word	CT_Maguss_Theme_8_013
@ 034   ----------------------------------------
	.byte	PATT
	 .word	CT_Maguss_Theme_8_014
@ 035   ----------------------------------------
	.byte	PATT
	 .word	CT_Maguss_Theme_8_019
@ 036   ----------------------------------------
	.byte	PATT
	 .word	CT_Maguss_Theme_8_014
@ 037   ----------------------------------------
	.byte	PATT
	 .word	CT_Maguss_Theme_8_013
@ 038   ----------------------------------------
	.byte	PATT
	 .word	CT_Maguss_Theme_8_014
@ 039   ----------------------------------------
	.byte	PATT
	 .word	CT_Maguss_Theme_8_015
@ 040   ----------------------------------------
	.byte	PATT
	 .word	CT_Maguss_Theme_8_014
@ 041   ----------------------------------------
	.byte	PATT
	 .word	CT_Maguss_Theme_8_013
@ 042   ----------------------------------------
	.byte	PATT
	 .word	CT_Maguss_Theme_8_014
@ 043   ----------------------------------------
	.byte	PATT
	 .word	CT_Maguss_Theme_8_019
@ 044   ----------------------------------------
CT_Maguss_Theme_8_044:
	.byte		VOICE , 56
	.byte		N04   , En3 , v092
	.byte		TIE   , En4 , v076
	.byte	W24
	.byte		N04   , En3 , v092
	.byte	W12
	.byte		N04   
	.byte	W24
	.byte		N04   
	.byte	W12
	.byte	PEND
@ 045   ----------------------------------------
CT_Maguss_Theme_8_045:
	.byte		N04   , En3 , v092
	.byte	W24
	.byte		N04   
	.byte	W24
	.byte		N04   
	.byte	W24
	.byte	PEND
	.byte		EOT   , En4 
@ 046   ----------------------------------------
CT_Maguss_Theme_8_046:
	.byte		N04   , En3 , v092
	.byte		TIE   , Dn4 , v076
	.byte	W24
	.byte		N04   , En3 , v092
	.byte	W12
	.byte		N04   
	.byte	W24
	.byte		N04   
	.byte	W12
	.byte	PEND
@ 047   ----------------------------------------
	.byte	PATT
	 .word	CT_Maguss_Theme_8_045
	.byte		EOT   , Dn4 
@ 048   ----------------------------------------
CT_Maguss_Theme_8_048:
	.byte		N04   , En3 , v092
	.byte		TIE   , Cn4 , v076
	.byte	W24
	.byte		N04   , En3 , v092
	.byte	W12
	.byte		N04   
	.byte	W24
	.byte		N04   
	.byte	W12
	.byte	PEND
@ 049   ----------------------------------------
	.byte	PATT
	 .word	CT_Maguss_Theme_8_045
	.byte		EOT   , Cn4 
@ 050   ----------------------------------------
	.byte	PATT
	 .word	CT_Maguss_Theme_8_046
@ 051   ----------------------------------------
	.byte	PATT
	 .word	CT_Maguss_Theme_8_045
	.byte		EOT   , Dn4 
@ 052   ----------------------------------------
CT_Maguss_Theme_8_052:
	.byte		N04   , En3 , v092
	.byte		TIE   , En4 , v076
	.byte	W24
	.byte		N04   , En3 , v092
	.byte	W12
	.byte		N04   
	.byte	W24
	.byte		N04   
	.byte	W12
	.byte	PEND
@ 053   ----------------------------------------
	.byte	PATT
	 .word	CT_Maguss_Theme_8_045
	.byte		EOT   , En4 
@ 054   ----------------------------------------
	.byte	PATT
	 .word	CT_Maguss_Theme_8_046
@ 055   ----------------------------------------
	.byte	PATT
	 .word	CT_Maguss_Theme_8_045
	.byte		EOT   , Dn4 
@ 056   ----------------------------------------
	.byte	PATT
	 .word	CT_Maguss_Theme_8_048
@ 057   ----------------------------------------
	.byte	PATT
	 .word	CT_Maguss_Theme_8_045
	.byte		EOT   , Cn4 
@ 058   ----------------------------------------
	.byte	PATT
	 .word	CT_Maguss_Theme_8_046
@ 059   ----------------------------------------
	.byte	PATT
	 .word	CT_Maguss_Theme_8_045
	.byte		EOT   , Dn4 
@ 060   ----------------------------------------
	.byte	W72
@ 061   ----------------------------------------
	.byte	W72
@ 062   ----------------------------------------
	.byte	W72
@ 063   ----------------------------------------
	.byte	W72
@ 064   ----------------------------------------
	.byte	W72
@ 065   ----------------------------------------
	.byte	W72
@ 066   ----------------------------------------
	.byte	W72
@ 067   ----------------------------------------
	.byte	W72
@ 068   ----------------------------------------
	.byte	W72
@ 069   ----------------------------------------
	.byte	W72
@ 070   ----------------------------------------
	.byte	W72
@ 071   ----------------------------------------
	.byte	W72
@ 072   ----------------------------------------
	.byte	W72
@ 073   ----------------------------------------
	.byte	W72
@ 074   ----------------------------------------
	.byte	W72
@ 075   ----------------------------------------
	.byte	W72
@ 076   ----------------------------------------
	.byte	W72
@ 077   ----------------------------------------
	.byte	W72
@ 078   ----------------------------------------
	.byte	W72
@ 079   ----------------------------------------
	.byte	W72
@ 080   ----------------------------------------
	.byte	W72
@ 081   ----------------------------------------
	.byte	W72
@ 082   ----------------------------------------
	.byte	W72
@ 083   ----------------------------------------
	.byte	W72
@ 084   ----------------------------------------
	.byte	W72
@ 085   ----------------------------------------
	.byte	W72
@ 086   ----------------------------------------
	.byte	W72
@ 087   ----------------------------------------
	.byte	W72
@ 088   ----------------------------------------
	.byte	W72
@ 089   ----------------------------------------
	.byte	W72
@ 090   ----------------------------------------
	.byte	W72
@ 091   ----------------------------------------
	.byte	PATT
	 .word	CT_Maguss_Theme_8_011
@ 092   ----------------------------------------
	.byte	PATT
	 .word	CT_Maguss_Theme_8_012
@ 093   ----------------------------------------
	.byte	PATT
	 .word	CT_Maguss_Theme_8_013
@ 094   ----------------------------------------
	.byte	PATT
	 .word	CT_Maguss_Theme_8_014
@ 095   ----------------------------------------
	.byte	PATT
	 .word	CT_Maguss_Theme_8_015
@ 096   ----------------------------------------
	.byte	PATT
	 .word	CT_Maguss_Theme_8_014
@ 097   ----------------------------------------
	.byte	PATT
	 .word	CT_Maguss_Theme_8_013
@ 098   ----------------------------------------
	.byte	PATT
	 .word	CT_Maguss_Theme_8_014
@ 099   ----------------------------------------
	.byte	PATT
	 .word	CT_Maguss_Theme_8_019
@ 100   ----------------------------------------
	.byte	PATT
	 .word	CT_Maguss_Theme_8_014
@ 101   ----------------------------------------
	.byte	PATT
	 .word	CT_Maguss_Theme_8_013
@ 102   ----------------------------------------
	.byte	PATT
	 .word	CT_Maguss_Theme_8_014
@ 103   ----------------------------------------
	.byte	PATT
	 .word	CT_Maguss_Theme_8_015
@ 104   ----------------------------------------
	.byte	PATT
	 .word	CT_Maguss_Theme_8_014
@ 105   ----------------------------------------
	.byte	PATT
	 .word	CT_Maguss_Theme_8_013
@ 106   ----------------------------------------
	.byte	PATT
	 .word	CT_Maguss_Theme_8_014
@ 107   ----------------------------------------
	.byte	PATT
	 .word	CT_Maguss_Theme_8_019
@ 108   ----------------------------------------
	.byte	PATT
	 .word	CT_Maguss_Theme_8_014
@ 109   ----------------------------------------
	.byte	PATT
	 .word	CT_Maguss_Theme_8_013
@ 110   ----------------------------------------
	.byte	PATT
	 .word	CT_Maguss_Theme_8_014
@ 111   ----------------------------------------
	.byte	PATT
	 .word	CT_Maguss_Theme_8_015
@ 112   ----------------------------------------
	.byte	PATT
	 .word	CT_Maguss_Theme_8_014
@ 113   ----------------------------------------
	.byte	PATT
	 .word	CT_Maguss_Theme_8_013
@ 114   ----------------------------------------
	.byte	PATT
	 .word	CT_Maguss_Theme_8_014
@ 115   ----------------------------------------
	.byte	PATT
	 .word	CT_Maguss_Theme_8_019
@ 116   ----------------------------------------
	.byte	PATT
	 .word	CT_Maguss_Theme_8_014
@ 117   ----------------------------------------
	.byte	PATT
	 .word	CT_Maguss_Theme_8_013
@ 118   ----------------------------------------
	.byte	PATT
	 .word	CT_Maguss_Theme_8_014
@ 119   ----------------------------------------
	.byte	PATT
	 .word	CT_Maguss_Theme_8_015
@ 120   ----------------------------------------
	.byte	PATT
	 .word	CT_Maguss_Theme_8_014
@ 121   ----------------------------------------
	.byte	PATT
	 .word	CT_Maguss_Theme_8_013
@ 122   ----------------------------------------
	.byte	PATT
	 .word	CT_Maguss_Theme_8_014
@ 123   ----------------------------------------
	.byte	PATT
	 .word	CT_Maguss_Theme_8_019
@ 124   ----------------------------------------
	.byte	PATT
	 .word	CT_Maguss_Theme_8_044
@ 125   ----------------------------------------
	.byte	PATT
	 .word	CT_Maguss_Theme_8_045
	.byte		EOT   , En4 
@ 126   ----------------------------------------
	.byte	PATT
	 .word	CT_Maguss_Theme_8_046
@ 127   ----------------------------------------
	.byte	PATT
	 .word	CT_Maguss_Theme_8_045
	.byte		EOT   , Dn4 
@ 128   ----------------------------------------
	.byte	PATT
	 .word	CT_Maguss_Theme_8_048
@ 129   ----------------------------------------
	.byte	PATT
	 .word	CT_Maguss_Theme_8_045
	.byte		EOT   , Cn4 
@ 130   ----------------------------------------
	.byte	PATT
	 .word	CT_Maguss_Theme_8_046
@ 131   ----------------------------------------
	.byte	PATT
	 .word	CT_Maguss_Theme_8_045
	.byte		EOT   , Dn4 
@ 132   ----------------------------------------
	.byte	PATT
	 .word	CT_Maguss_Theme_8_052
@ 133   ----------------------------------------
	.byte	PATT
	 .word	CT_Maguss_Theme_8_045
	.byte		EOT   , En4 
@ 134   ----------------------------------------
	.byte	PATT
	 .word	CT_Maguss_Theme_8_046
@ 135   ----------------------------------------
	.byte	PATT
	 .word	CT_Maguss_Theme_8_045
	.byte		EOT   , Dn4 
@ 136   ----------------------------------------
	.byte	PATT
	 .word	CT_Maguss_Theme_8_048
@ 137   ----------------------------------------
	.byte	PATT
	 .word	CT_Maguss_Theme_8_045
	.byte		EOT   , Cn4 
@ 138   ----------------------------------------
	.byte	PATT
	 .word	CT_Maguss_Theme_8_046
@ 139   ----------------------------------------
	.byte	PATT
	 .word	CT_Maguss_Theme_8_045
	.byte		EOT   , Dn4 
@ 140   ----------------------------------------
	.byte	W72
@ 141   ----------------------------------------
	.byte	W72
@ 142   ----------------------------------------
	.byte	W72
@ 143   ----------------------------------------
	.byte	W72
@ 144   ----------------------------------------
	.byte	W72
@ 145   ----------------------------------------
	.byte	W72
@ 146   ----------------------------------------
	.byte	W72
@ 147   ----------------------------------------
	.byte	W72
@ 148   ----------------------------------------
	.byte	W72
@ 149   ----------------------------------------
	.byte	W72
@ 150   ----------------------------------------
	.byte	W72
@ 151   ----------------------------------------
	.byte	W72
@ 152   ----------------------------------------
	.byte	W72
@ 153   ----------------------------------------
	.byte	W72
@ 154   ----------------------------------------
	.byte	W72
@ 155   ----------------------------------------
	.byte	W72
@ 156   ----------------------------------------
	.byte	W72
@ 157   ----------------------------------------
	.byte	W72
@ 158   ----------------------------------------
	.byte	W72
@ 159   ----------------------------------------
	.byte	W72
@ 160   ----------------------------------------
	.byte	W72
@ 161   ----------------------------------------
	.byte	W72
@ 162   ----------------------------------------
	.byte	W72
@ 163   ----------------------------------------
	.byte	W72
@ 164   ----------------------------------------
	.byte	W72
@ 165   ----------------------------------------
	.byte	W72
@ 166   ----------------------------------------
	.byte	W72
@ 167   ----------------------------------------
	.byte	W72
@ 168   ----------------------------------------
	.byte	W72
@ 169   ----------------------------------------
	.byte	W72
@ 170   ----------------------------------------
	.byte	W72
@ 171   ----------------------------------------
	.byte	PATT
	 .word	CT_Maguss_Theme_8_011
@ 172   ----------------------------------------
	.byte	PATT
	 .word	CT_Maguss_Theme_8_012
@ 173   ----------------------------------------
	.byte	PATT
	 .word	CT_Maguss_Theme_8_013
@ 174   ----------------------------------------
	.byte	PATT
	 .word	CT_Maguss_Theme_8_014
@ 175   ----------------------------------------
	.byte	PATT
	 .word	CT_Maguss_Theme_8_015
@ 176   ----------------------------------------
	.byte	PATT
	 .word	CT_Maguss_Theme_8_014
@ 177   ----------------------------------------
	.byte	PATT
	 .word	CT_Maguss_Theme_8_013
@ 178   ----------------------------------------
	.byte	PATT
	 .word	CT_Maguss_Theme_8_014
@ 179   ----------------------------------------
	.byte	PATT
	 .word	CT_Maguss_Theme_8_019
@ 180   ----------------------------------------
	.byte	PATT
	 .word	CT_Maguss_Theme_8_014
@ 181   ----------------------------------------
	.byte	PATT
	 .word	CT_Maguss_Theme_8_013
@ 182   ----------------------------------------
	.byte	PATT
	 .word	CT_Maguss_Theme_8_014
@ 183   ----------------------------------------
	.byte	PATT
	 .word	CT_Maguss_Theme_8_015
@ 184   ----------------------------------------
	.byte	PATT
	 .word	CT_Maguss_Theme_8_014
@ 185   ----------------------------------------
	.byte	PATT
	 .word	CT_Maguss_Theme_8_013
@ 186   ----------------------------------------
	.byte	PATT
	 .word	CT_Maguss_Theme_8_014
@ 187   ----------------------------------------
	.byte	PATT
	 .word	CT_Maguss_Theme_8_019
@ 188   ----------------------------------------
	.byte	PATT
	 .word	CT_Maguss_Theme_8_014
@ 189   ----------------------------------------
	.byte	PATT
	 .word	CT_Maguss_Theme_8_013
@ 190   ----------------------------------------
	.byte	PATT
	 .word	CT_Maguss_Theme_8_014
@ 191   ----------------------------------------
	.byte	PATT
	 .word	CT_Maguss_Theme_8_015
@ 192   ----------------------------------------
	.byte	PATT
	 .word	CT_Maguss_Theme_8_014
@ 193   ----------------------------------------
	.byte	PATT
	 .word	CT_Maguss_Theme_8_013
@ 194   ----------------------------------------
	.byte	PATT
	 .word	CT_Maguss_Theme_8_014
@ 195   ----------------------------------------
	.byte	PATT
	 .word	CT_Maguss_Theme_8_019
@ 196   ----------------------------------------
	.byte	PATT
	 .word	CT_Maguss_Theme_8_014
@ 197   ----------------------------------------
	.byte	PATT
	 .word	CT_Maguss_Theme_8_013
@ 198   ----------------------------------------
	.byte	PATT
	 .word	CT_Maguss_Theme_8_014
@ 199   ----------------------------------------
	.byte	PATT
	 .word	CT_Maguss_Theme_8_015
@ 200   ----------------------------------------
	.byte	PATT
	 .word	CT_Maguss_Theme_8_014
@ 201   ----------------------------------------
	.byte	PATT
	 .word	CT_Maguss_Theme_8_013
@ 202   ----------------------------------------
	.byte	PATT
	 .word	CT_Maguss_Theme_8_014
@ 203   ----------------------------------------
	.byte	PATT
	 .word	CT_Maguss_Theme_8_019
@ 204   ----------------------------------------
	.byte	PATT
	 .word	CT_Maguss_Theme_8_044
@ 205   ----------------------------------------
	.byte	PATT
	 .word	CT_Maguss_Theme_8_045
	.byte		EOT   , En4 
@ 206   ----------------------------------------
	.byte	PATT
	 .word	CT_Maguss_Theme_8_046
@ 207   ----------------------------------------
	.byte	PATT
	 .word	CT_Maguss_Theme_8_045
	.byte		EOT   , Dn4 
@ 208   ----------------------------------------
	.byte	PATT
	 .word	CT_Maguss_Theme_8_048
@ 209   ----------------------------------------
	.byte	PATT
	 .word	CT_Maguss_Theme_8_045
	.byte		EOT   , Cn4 
@ 210   ----------------------------------------
	.byte	PATT
	 .word	CT_Maguss_Theme_8_046
@ 211   ----------------------------------------
	.byte	PATT
	 .word	CT_Maguss_Theme_8_045
	.byte		EOT   , Dn4 
@ 212   ----------------------------------------
	.byte	PATT
	 .word	CT_Maguss_Theme_8_052
@ 213   ----------------------------------------
	.byte	PATT
	 .word	CT_Maguss_Theme_8_045
	.byte		EOT   , En4 
@ 214   ----------------------------------------
	.byte	PATT
	 .word	CT_Maguss_Theme_8_046
@ 215   ----------------------------------------
	.byte	PATT
	 .word	CT_Maguss_Theme_8_045
	.byte		EOT   , Dn4 
@ 216   ----------------------------------------
	.byte	PATT
	 .word	CT_Maguss_Theme_8_048
@ 217   ----------------------------------------
	.byte	PATT
	 .word	CT_Maguss_Theme_8_045
	.byte		EOT   , Cn4 
@ 218   ----------------------------------------
	.byte	PATT
	 .word	CT_Maguss_Theme_8_046
@ 219   ----------------------------------------
	.byte	PATT
	 .word	CT_Maguss_Theme_8_045
	.byte		EOT   , Dn4 
@ 220   ----------------------------------------
	.byte	W72
@ 221   ----------------------------------------
	.byte	W72
@ 222   ----------------------------------------
	.byte	W72
@ 223   ----------------------------------------
	.byte	W72
@ 224   ----------------------------------------
	.byte	W72
@ 225   ----------------------------------------
	.byte	W72
@ 226   ----------------------------------------
	.byte	W72
@ 227   ----------------------------------------
	.byte	W72
@ 228   ----------------------------------------
	.byte	W72
@ 229   ----------------------------------------
	.byte	W72
@ 230   ----------------------------------------
	.byte	W72
@ 231   ----------------------------------------
	.byte	W72
@ 232   ----------------------------------------
	.byte	W72
@ 233   ----------------------------------------
	.byte	W72
@ 234   ----------------------------------------
	.byte	W72
@ 235   ----------------------------------------
	.byte	W72
@ 236   ----------------------------------------
	.byte	W72
@ 237   ----------------------------------------
	.byte	W72
@ 238   ----------------------------------------
	.byte	W72
@ 239   ----------------------------------------
	.byte	W72
@ 240   ----------------------------------------
	.byte	W72
@ 241   ----------------------------------------
	.byte	W72
@ 242   ----------------------------------------
	.byte	W72
@ 243   ----------------------------------------
	.byte	W72
@ 244   ----------------------------------------
	.byte	W72
@ 245   ----------------------------------------
	.byte	W24
	.byte	GOTO
	 .word	CT_Maguss_Theme_8_B1
CT_Maguss_Theme_8_B2:
	.byte	FINE

@******************************************************@
	.align	2

CT_Maguss_Theme:
	.byte	8	@ NumTrks
	.byte	0	@ NumBlks
	.byte	CT_Maguss_Theme_pri	@ Priority
	.byte	CT_Maguss_Theme_rev	@ Reverb.

	.word	CT_Maguss_Theme_grp

	.word	CT_Maguss_Theme_1
	.word	CT_Maguss_Theme_2
	.word	CT_Maguss_Theme_3
	.word	CT_Maguss_Theme_4
	.word	CT_Maguss_Theme_5
	.word	CT_Maguss_Theme_6
	.word	CT_Maguss_Theme_7
	.word	CT_Maguss_Theme_8

	.end
