	.include "MPlayDef.s"

	.equ	Voyage_of_380000_km_grp, voicegroup000
	.equ	Voyage_of_380000_km_pri, 0
	.equ	Voyage_of_380000_km_rev, 0
	.equ	Voyage_of_380000_km_mvl, 50
	.equ	Voyage_of_380000_km_key, 0
	.equ	Voyage_of_380000_km_tbs, 1
	.equ	Voyage_of_380000_km_exg, 0
	.equ	Voyage_of_380000_km_cmp, 1

	.section .rodata
	.global	Voyage_of_380000_km
	.align	2

@**************** Track 1 (Midi-Chn.1) ****************@

Voyage_of_380000_km_1:
	.byte	KEYSH , Voyage_of_380000_km_key+0
Voyage_of_380000_km_1_B1:
@ 000   ----------------------------------------
	.byte	TEMPO , 177*Voyage_of_380000_km_tbs/2
	.byte		VOICE , 8
	.byte		PAN   , c_v+0
	.byte		VOL   , 100*Voyage_of_380000_km_mvl/mxv
	.byte	W96
@ 001   ----------------------------------------
Voyage_of_380000_km_1_001:
	.byte	W52
	.byte	W01
	.byte		N44   , Fn4 , v080
	.byte		N44   , Cn5 
	.byte		N44   , Fn5 
	.byte	W42
	.byte	W01
	.byte	PEND
@ 002   ----------------------------------------
Voyage_of_380000_km_1_002:
	.byte	W52
	.byte	W01
	.byte		N11   , Fn4 , v080
	.byte	W12
	.byte		        As4 
	.byte	W12
	.byte		        Cn5 
	.byte	W12
	.byte		        Ds5 
	.byte	W07
	.byte	PEND
@ 003   ----------------------------------------
Voyage_of_380000_km_1_003:
	.byte	W05
	.byte		N23   , Fn5 , v080
	.byte	W90
	.byte	W01
	.byte	PEND
@ 004   ----------------------------------------
	.byte	W96
@ 005   ----------------------------------------
	.byte	PATT
	 .word	Voyage_of_380000_km_1_001
@ 006   ----------------------------------------
	.byte	PATT
	 .word	Voyage_of_380000_km_1_002
@ 007   ----------------------------------------
Voyage_of_380000_km_1_007:
	.byte	W05
	.byte		N23   , Fn5 , v080
	.byte	W48
	.byte		N44   , En5 
	.byte	W42
	.byte	W01
	.byte	PEND
@ 008   ----------------------------------------
Voyage_of_380000_km_1_008:
	.byte	W05
	.byte		N44   , Gn5 , v080
	.byte	W48
	.byte		N11   , Fn4 
	.byte	W12
	.byte		        As4 
	.byte	W12
	.byte		        Cn5 
	.byte	W12
	.byte		        Ds5 
	.byte	W07
	.byte	PEND
@ 009   ----------------------------------------
Voyage_of_380000_km_1_009:
	.byte	W05
	.byte		N11   , Fn5 , v080
	.byte	W12
	.byte		        Ds5 
	.byte	W12
	.byte		        Cn5 
	.byte	W12
	.byte		        As4 
	.byte	W12
	.byte		        Fn4 
	.byte	W12
	.byte		        As4 
	.byte	W12
	.byte		        Cn5 
	.byte	W12
	.byte		        Ds5 
	.byte	W07
	.byte	PEND
@ 010   ----------------------------------------
	.byte	PATT
	 .word	Voyage_of_380000_km_1_009
@ 011   ----------------------------------------
Voyage_of_380000_km_1_011:
	.byte	W05
	.byte		N23   , Fn5 , v080
	.byte	W48
	.byte		N11   , Cn5 
	.byte	W12
	.byte		        Ds5 
	.byte	W12
	.byte		        As4 
	.byte	W12
	.byte		        Cn5 
	.byte	W07
	.byte	PEND
@ 012   ----------------------------------------
Voyage_of_380000_km_1_012:
	.byte	W05
	.byte		N11   , Gs4 , v080
	.byte	W12
	.byte		        As4 
	.byte	W12
	.byte		        Gn4 
	.byte	W36
	.byte		        As4 
	.byte	W12
	.byte		        Cn5 
	.byte	W12
	.byte		        Ds5 
	.byte	W07
	.byte	PEND
@ 013   ----------------------------------------
	.byte	PATT
	 .word	Voyage_of_380000_km_1_009
@ 014   ----------------------------------------
	.byte	PATT
	 .word	Voyage_of_380000_km_1_009
@ 015   ----------------------------------------
Voyage_of_380000_km_1_015:
	.byte	W05
	.byte		N23   , Fn5 , v080
	.byte	W48
	.byte		N11   , En5 
	.byte	W12
	.byte		        Cn5 
	.byte	W12
	.byte		        En5 
	.byte	W12
	.byte		        Cn5 
	.byte	W07
	.byte	PEND
@ 016   ----------------------------------------
Voyage_of_380000_km_1_016:
	.byte	W05
	.byte		N11   , Gs5 , v080
	.byte	W12
	.byte		        Gn5 
	.byte	W12
	.byte		        Fn5 
	.byte	W12
	.byte		        Ds5 
	.byte	W36
	.byte		N23   , Gs4 
	.byte		N23   , Cs5 
	.byte	W19
	.byte	PEND
@ 017   ----------------------------------------
Voyage_of_380000_km_1_017:
	.byte	W28
	.byte	W01
	.byte		N23   , As4 , v080
	.byte		N23   , Ds5 
	.byte	W66
	.byte	W01
	.byte	PEND
@ 018   ----------------------------------------
Voyage_of_380000_km_1_018:
	.byte	W05
	.byte		N44   , Fn4 , v080
	.byte		N44   , Cn5 
	.byte	W72
	.byte		N23   , Gs4 
	.byte		N23   , Cs5 
	.byte	W19
	.byte	PEND
@ 019   ----------------------------------------
Voyage_of_380000_km_1_019:
	.byte	W28
	.byte	W01
	.byte		N23   , As4 , v080
	.byte		N23   , Ds5 
	.byte	W24
	.byte		N32   , As4 
	.byte	W36
	.byte		N56   , Gs4 
	.byte	W07
	.byte	PEND
@ 020   ----------------------------------------
Voyage_of_380000_km_1_020:
	.byte	W76
	.byte	W01
	.byte		N23   , Gs4 , v080
	.byte		N23   , Cs5 
	.byte	W19
	.byte	PEND
@ 021   ----------------------------------------
	.byte	PATT
	 .word	Voyage_of_380000_km_1_017
@ 022   ----------------------------------------
Voyage_of_380000_km_1_022:
	.byte	W05
	.byte		N44   , Fn4 , v080
	.byte		N44   , Cn5 
	.byte	W48
	.byte		        As4 
	.byte		N44   , Fn5 
	.byte	W42
	.byte	W01
	.byte	PEND
@ 023   ----------------------------------------
Voyage_of_380000_km_1_023:
	.byte	W52
	.byte	W01
	.byte		N44   , Cn5 , v080
	.byte		N44   , Fn5 
	.byte	W42
	.byte	W01
	.byte	PEND
@ 024   ----------------------------------------
	.byte	PATT
	 .word	Voyage_of_380000_km_1_020
@ 025   ----------------------------------------
	.byte	PATT
	 .word	Voyage_of_380000_km_1_017
@ 026   ----------------------------------------
	.byte	PATT
	 .word	Voyage_of_380000_km_1_018
@ 027   ----------------------------------------
	.byte	PATT
	 .word	Voyage_of_380000_km_1_019
@ 028   ----------------------------------------
	.byte	PATT
	 .word	Voyage_of_380000_km_1_020
@ 029   ----------------------------------------
	.byte	PATT
	 .word	Voyage_of_380000_km_1_017
@ 030   ----------------------------------------
	.byte	PATT
	 .word	Voyage_of_380000_km_1_022
@ 031   ----------------------------------------
	.byte	PATT
	 .word	Voyage_of_380000_km_1_023
@ 032   ----------------------------------------
	.byte	W96
@ 033   ----------------------------------------
	.byte	W96
@ 034   ----------------------------------------
	.byte	W96
@ 035   ----------------------------------------
	.byte	W96
@ 036   ----------------------------------------
	.byte	W96
@ 037   ----------------------------------------
	.byte	W96
@ 038   ----------------------------------------
	.byte	W96
@ 039   ----------------------------------------
	.byte	W96
@ 040   ----------------------------------------
	.byte	W96
@ 041   ----------------------------------------
	.byte	W96
@ 042   ----------------------------------------
	.byte	W96
@ 043   ----------------------------------------
	.byte	W96
@ 044   ----------------------------------------
	.byte	W96
@ 045   ----------------------------------------
	.byte	W96
@ 046   ----------------------------------------
	.byte	W96
@ 047   ----------------------------------------
	.byte	W96
@ 048   ----------------------------------------
	.byte	W96
@ 049   ----------------------------------------
	.byte	W96
@ 050   ----------------------------------------
	.byte	W96
@ 051   ----------------------------------------
	.byte	W96
@ 052   ----------------------------------------
	.byte	W96
@ 053   ----------------------------------------
	.byte	W96
@ 054   ----------------------------------------
	.byte	W96
@ 055   ----------------------------------------
	.byte	W96
@ 056   ----------------------------------------
	.byte	W96
@ 057   ----------------------------------------
	.byte	W96
@ 058   ----------------------------------------
	.byte	W96
@ 059   ----------------------------------------
	.byte	W96
@ 060   ----------------------------------------
	.byte	W96
@ 061   ----------------------------------------
	.byte	W96
@ 062   ----------------------------------------
	.byte	W96
@ 063   ----------------------------------------
	.byte	W96
@ 064   ----------------------------------------
	.byte	W96
@ 065   ----------------------------------------
Voyage_of_380000_km_1_065:
	.byte	W52
	.byte	W01
	.byte		N44   , Dn4 , v080
	.byte		N44   , An4 
	.byte		N44   , Dn5 
	.byte	W42
	.byte	W01
	.byte	PEND
@ 066   ----------------------------------------
Voyage_of_380000_km_1_066:
	.byte	W52
	.byte	W01
	.byte		N11   , Dn4 , v080
	.byte	W12
	.byte		        Gn4 
	.byte	W12
	.byte		        An4 
	.byte	W12
	.byte		        Cn5 
	.byte	W07
	.byte	PEND
@ 067   ----------------------------------------
Voyage_of_380000_km_1_067:
	.byte	W05
	.byte		N11   , Dn5 , v080
	.byte	W90
	.byte	W01
	.byte	PEND
@ 068   ----------------------------------------
	.byte	W96
@ 069   ----------------------------------------
	.byte	PATT
	 .word	Voyage_of_380000_km_1_065
@ 070   ----------------------------------------
	.byte	PATT
	 .word	Voyage_of_380000_km_1_066
@ 071   ----------------------------------------
Voyage_of_380000_km_1_071:
	.byte	W05
	.byte		N11   , Dn5 , v080
	.byte	W48
	.byte		N32   , Cs5 
	.byte	W36
	.byte		N56   , En5 
	.byte	W07
	.byte	PEND
@ 072   ----------------------------------------
Voyage_of_380000_km_1_072:
	.byte	W52
	.byte	W01
	.byte		N11   , Dn4 , v080
	.byte	W12
	.byte		        Fn4 
	.byte	W12
	.byte		        Gn4 
	.byte	W12
	.byte		        An4 
	.byte	W07
	.byte	PEND
@ 073   ----------------------------------------
Voyage_of_380000_km_1_073:
	.byte	W05
	.byte		N11   , Cn5 , v080
	.byte	W12
	.byte		        An4 
	.byte	W12
	.byte		        Gn4 
	.byte	W12
	.byte		        Fn4 
	.byte	W12
	.byte		        Dn4 
	.byte	W12
	.byte		        Fn4 
	.byte	W12
	.byte		        Gn4 
	.byte	W12
	.byte		        An4 
	.byte	W07
	.byte	PEND
@ 074   ----------------------------------------
Voyage_of_380000_km_1_074:
	.byte	W05
	.byte		N11   , Cn5 , v080
	.byte	W12
	.byte		        An4 
	.byte	W12
	.byte		        Gn4 
	.byte	W12
	.byte		        Fn4 
	.byte	W12
	.byte		        Dn4 
	.byte	W12
	.byte		        Gn4 
	.byte	W12
	.byte		        An4 
	.byte	W12
	.byte		        Cn5 
	.byte	W07
	.byte	PEND
@ 075   ----------------------------------------
Voyage_of_380000_km_1_075:
	.byte	W05
	.byte		N11   , Dn5 , v080
	.byte	W48
	.byte		        An4 
	.byte	W12
	.byte		        Cn5 
	.byte	W12
	.byte		        Gn4 
	.byte	W12
	.byte		        An4 
	.byte	W07
	.byte	PEND
@ 076   ----------------------------------------
Voyage_of_380000_km_1_076:
	.byte	W05
	.byte		N11   , Fn4 , v080
	.byte	W12
	.byte		        Gn4 
	.byte	W12
	.byte		        En4 
	.byte	W12
	.byte		        Fn4 
	.byte	W12
	.byte		        Dn4 
	.byte	W12
	.byte		        Fn4 
	.byte	W12
	.byte		        Gn4 
	.byte	W12
	.byte		        An4 
	.byte	W07
	.byte	PEND
@ 077   ----------------------------------------
	.byte	PATT
	 .word	Voyage_of_380000_km_1_073
@ 078   ----------------------------------------
	.byte	PATT
	 .word	Voyage_of_380000_km_1_074
@ 079   ----------------------------------------
Voyage_of_380000_km_1_079:
	.byte	W05
	.byte		N11   , Dn5 , v080
	.byte	W48
	.byte		        Cs5 
	.byte	W12
	.byte		        An4 
	.byte	W12
	.byte		        Cs5 
	.byte	W12
	.byte		        An4 
	.byte	W07
	.byte	PEND
@ 080   ----------------------------------------
Voyage_of_380000_km_1_080:
	.byte	W05
	.byte		N11   , Fn5 , v080
	.byte	W12
	.byte		        En5 
	.byte	W12
	.byte		        Dn5 
	.byte	W12
	.byte		        Cn5 
	.byte	W36
	.byte		N23   , Fn4 
	.byte		N23   , As4 
	.byte	W19
	.byte	PEND
@ 081   ----------------------------------------
Voyage_of_380000_km_1_081:
	.byte	W28
	.byte	W01
	.byte		N23   , Gn4 , v080
	.byte		N23   , Cn5 
	.byte	W66
	.byte	W01
	.byte	PEND
@ 082   ----------------------------------------
Voyage_of_380000_km_1_082:
	.byte	W05
	.byte		N44   , Dn4 , v080
	.byte		N44   , An4 
	.byte	W72
	.byte		N23   , Fn4 
	.byte		N23   , As4 
	.byte	W19
	.byte	PEND
@ 083   ----------------------------------------
Voyage_of_380000_km_1_083:
	.byte	W28
	.byte	W01
	.byte		N23   , Gn4 , v080
	.byte		N23   , Cn5 
	.byte	W24
	.byte		N32   , Gn4 
	.byte	W36
	.byte		N56   , Fn4 
	.byte	W07
	.byte	PEND
@ 084   ----------------------------------------
Voyage_of_380000_km_1_084:
	.byte	W76
	.byte	W01
	.byte		N23   , Fn4 , v080
	.byte		N23   , As4 
	.byte	W19
	.byte	PEND
@ 085   ----------------------------------------
	.byte	PATT
	 .word	Voyage_of_380000_km_1_081
@ 086   ----------------------------------------
Voyage_of_380000_km_1_086:
	.byte	W05
	.byte		N44   , Dn4 , v080
	.byte		N44   , An4 
	.byte	W48
	.byte		        Gn4 
	.byte		N44   , Dn5 
	.byte	W42
	.byte	W01
	.byte	PEND
@ 087   ----------------------------------------
Voyage_of_380000_km_1_087:
	.byte	W52
	.byte	W01
	.byte		N44   , An4 , v080
	.byte		N44   , Dn5 
	.byte	W42
	.byte	W01
	.byte	PEND
@ 088   ----------------------------------------
	.byte	PATT
	 .word	Voyage_of_380000_km_1_084
@ 089   ----------------------------------------
	.byte	PATT
	 .word	Voyage_of_380000_km_1_081
@ 090   ----------------------------------------
	.byte	PATT
	 .word	Voyage_of_380000_km_1_082
@ 091   ----------------------------------------
	.byte	PATT
	 .word	Voyage_of_380000_km_1_083
@ 092   ----------------------------------------
	.byte	PATT
	 .word	Voyage_of_380000_km_1_084
@ 093   ----------------------------------------
	.byte	PATT
	 .word	Voyage_of_380000_km_1_081
@ 094   ----------------------------------------
	.byte	PATT
	 .word	Voyage_of_380000_km_1_086
@ 095   ----------------------------------------
	.byte	PATT
	 .word	Voyage_of_380000_km_1_087
@ 096   ----------------------------------------
	.byte	W96
@ 097   ----------------------------------------
	.byte	W96
@ 098   ----------------------------------------
	.byte	W96
@ 099   ----------------------------------------
	.byte	W96
@ 100   ----------------------------------------
	.byte	W96
@ 101   ----------------------------------------
	.byte	W96
@ 102   ----------------------------------------
	.byte	W96
@ 103   ----------------------------------------
	.byte	W96
@ 104   ----------------------------------------
	.byte	W96
@ 105   ----------------------------------------
	.byte	W96
@ 106   ----------------------------------------
	.byte	W96
@ 107   ----------------------------------------
	.byte	W96
@ 108   ----------------------------------------
	.byte	W96
@ 109   ----------------------------------------
	.byte	W96
@ 110   ----------------------------------------
	.byte	W96
@ 111   ----------------------------------------
	.byte	W96
@ 112   ----------------------------------------
	.byte	W96
@ 113   ----------------------------------------
	.byte	W96
@ 114   ----------------------------------------
	.byte	W96
@ 115   ----------------------------------------
	.byte	W96
@ 116   ----------------------------------------
	.byte	W96
@ 117   ----------------------------------------
	.byte	W96
@ 118   ----------------------------------------
	.byte	W96
@ 119   ----------------------------------------
	.byte	W96
@ 120   ----------------------------------------
	.byte	W96
@ 121   ----------------------------------------
	.byte	W96
@ 122   ----------------------------------------
	.byte	W96
@ 123   ----------------------------------------
	.byte	W96
@ 124   ----------------------------------------
	.byte	W96
@ 125   ----------------------------------------
	.byte	W96
@ 126   ----------------------------------------
	.byte	W96
@ 127   ----------------------------------------
	.byte	W96
@ 128   ----------------------------------------
	.byte	W96
@ 129   ----------------------------------------
	.byte	W96
@ 130   ----------------------------------------
	.byte	W96
@ 131   ----------------------------------------
	.byte	W96
@ 132   ----------------------------------------
	.byte	W96
@ 133   ----------------------------------------
	.byte	W96
@ 134   ----------------------------------------
	.byte	W96
@ 135   ----------------------------------------
	.byte	W96
@ 136   ----------------------------------------
	.byte	W96
@ 137   ----------------------------------------
	.byte	W96
@ 138   ----------------------------------------
	.byte	W96
@ 139   ----------------------------------------
	.byte	W96
@ 140   ----------------------------------------
	.byte	W96
@ 141   ----------------------------------------
	.byte	W96
@ 142   ----------------------------------------
	.byte	W96
@ 143   ----------------------------------------
	.byte	W96
@ 144   ----------------------------------------
	.byte	W96
@ 145   ----------------------------------------
	.byte	PATT
	 .word	Voyage_of_380000_km_1_001
@ 146   ----------------------------------------
	.byte	PATT
	 .word	Voyage_of_380000_km_1_002
@ 147   ----------------------------------------
	.byte	PATT
	 .word	Voyage_of_380000_km_1_003
@ 148   ----------------------------------------
	.byte	W96
@ 149   ----------------------------------------
	.byte	PATT
	 .word	Voyage_of_380000_km_1_001
@ 150   ----------------------------------------
	.byte	PATT
	 .word	Voyage_of_380000_km_1_002
@ 151   ----------------------------------------
	.byte	PATT
	 .word	Voyage_of_380000_km_1_007
@ 152   ----------------------------------------
	.byte	PATT
	 .word	Voyage_of_380000_km_1_008
@ 153   ----------------------------------------
	.byte	PATT
	 .word	Voyage_of_380000_km_1_009
@ 154   ----------------------------------------
	.byte	PATT
	 .word	Voyage_of_380000_km_1_009
@ 155   ----------------------------------------
	.byte	PATT
	 .word	Voyage_of_380000_km_1_011
@ 156   ----------------------------------------
	.byte	PATT
	 .word	Voyage_of_380000_km_1_012
@ 157   ----------------------------------------
	.byte	PATT
	 .word	Voyage_of_380000_km_1_009
@ 158   ----------------------------------------
	.byte	PATT
	 .word	Voyage_of_380000_km_1_009
@ 159   ----------------------------------------
	.byte	PATT
	 .word	Voyage_of_380000_km_1_015
@ 160   ----------------------------------------
	.byte	PATT
	 .word	Voyage_of_380000_km_1_016
@ 161   ----------------------------------------
	.byte	PATT
	 .word	Voyage_of_380000_km_1_017
@ 162   ----------------------------------------
	.byte	PATT
	 .word	Voyage_of_380000_km_1_018
@ 163   ----------------------------------------
	.byte	PATT
	 .word	Voyage_of_380000_km_1_019
@ 164   ----------------------------------------
	.byte	PATT
	 .word	Voyage_of_380000_km_1_020
@ 165   ----------------------------------------
	.byte	PATT
	 .word	Voyage_of_380000_km_1_017
@ 166   ----------------------------------------
	.byte	PATT
	 .word	Voyage_of_380000_km_1_022
@ 167   ----------------------------------------
	.byte	PATT
	 .word	Voyage_of_380000_km_1_023
@ 168   ----------------------------------------
	.byte	PATT
	 .word	Voyage_of_380000_km_1_020
@ 169   ----------------------------------------
	.byte	PATT
	 .word	Voyage_of_380000_km_1_017
@ 170   ----------------------------------------
	.byte	PATT
	 .word	Voyage_of_380000_km_1_018
@ 171   ----------------------------------------
	.byte	PATT
	 .word	Voyage_of_380000_km_1_019
@ 172   ----------------------------------------
	.byte	PATT
	 .word	Voyage_of_380000_km_1_020
@ 173   ----------------------------------------
	.byte	PATT
	 .word	Voyage_of_380000_km_1_017
@ 174   ----------------------------------------
	.byte	PATT
	 .word	Voyage_of_380000_km_1_022
@ 175   ----------------------------------------
	.byte	PATT
	 .word	Voyage_of_380000_km_1_023
@ 176   ----------------------------------------
	.byte	W96
@ 177   ----------------------------------------
	.byte	W96
@ 178   ----------------------------------------
	.byte	W96
@ 179   ----------------------------------------
	.byte	W96
@ 180   ----------------------------------------
	.byte	W96
@ 181   ----------------------------------------
	.byte	W96
@ 182   ----------------------------------------
	.byte	W96
@ 183   ----------------------------------------
	.byte	W96
@ 184   ----------------------------------------
	.byte	W96
@ 185   ----------------------------------------
	.byte	W96
@ 186   ----------------------------------------
	.byte	W96
@ 187   ----------------------------------------
	.byte	W96
@ 188   ----------------------------------------
	.byte	W96
@ 189   ----------------------------------------
	.byte	W96
@ 190   ----------------------------------------
	.byte	W96
@ 191   ----------------------------------------
	.byte	W96
@ 192   ----------------------------------------
	.byte	W96
@ 193   ----------------------------------------
	.byte	W96
@ 194   ----------------------------------------
	.byte	W96
@ 195   ----------------------------------------
	.byte	W96
@ 196   ----------------------------------------
	.byte	W96
@ 197   ----------------------------------------
	.byte	W96
@ 198   ----------------------------------------
	.byte	W96
@ 199   ----------------------------------------
	.byte	W96
@ 200   ----------------------------------------
	.byte	W96
@ 201   ----------------------------------------
	.byte	W96
@ 202   ----------------------------------------
	.byte	W96
@ 203   ----------------------------------------
	.byte	W96
@ 204   ----------------------------------------
	.byte	W96
@ 205   ----------------------------------------
	.byte	W96
@ 206   ----------------------------------------
	.byte	W96
@ 207   ----------------------------------------
	.byte	W96
@ 208   ----------------------------------------
	.byte	W96
@ 209   ----------------------------------------
	.byte	PATT
	 .word	Voyage_of_380000_km_1_065
@ 210   ----------------------------------------
	.byte	PATT
	 .word	Voyage_of_380000_km_1_066
@ 211   ----------------------------------------
	.byte	PATT
	 .word	Voyage_of_380000_km_1_067
@ 212   ----------------------------------------
	.byte	W96
@ 213   ----------------------------------------
	.byte	PATT
	 .word	Voyage_of_380000_km_1_065
@ 214   ----------------------------------------
	.byte	PATT
	 .word	Voyage_of_380000_km_1_066
@ 215   ----------------------------------------
	.byte	PATT
	 .word	Voyage_of_380000_km_1_071
@ 216   ----------------------------------------
	.byte	PATT
	 .word	Voyage_of_380000_km_1_072
@ 217   ----------------------------------------
	.byte	PATT
	 .word	Voyage_of_380000_km_1_073
@ 218   ----------------------------------------
	.byte	PATT
	 .word	Voyage_of_380000_km_1_074
@ 219   ----------------------------------------
	.byte	PATT
	 .word	Voyage_of_380000_km_1_075
@ 220   ----------------------------------------
	.byte	PATT
	 .word	Voyage_of_380000_km_1_076
@ 221   ----------------------------------------
	.byte	PATT
	 .word	Voyage_of_380000_km_1_073
@ 222   ----------------------------------------
	.byte	PATT
	 .word	Voyage_of_380000_km_1_074
@ 223   ----------------------------------------
	.byte	PATT
	 .word	Voyage_of_380000_km_1_079
@ 224   ----------------------------------------
	.byte	PATT
	 .word	Voyage_of_380000_km_1_080
@ 225   ----------------------------------------
	.byte	PATT
	 .word	Voyage_of_380000_km_1_081
@ 226   ----------------------------------------
	.byte	PATT
	 .word	Voyage_of_380000_km_1_082
@ 227   ----------------------------------------
	.byte	PATT
	 .word	Voyage_of_380000_km_1_083
@ 228   ----------------------------------------
	.byte	PATT
	 .word	Voyage_of_380000_km_1_084
@ 229   ----------------------------------------
	.byte	PATT
	 .word	Voyage_of_380000_km_1_081
@ 230   ----------------------------------------
	.byte	PATT
	 .word	Voyage_of_380000_km_1_086
@ 231   ----------------------------------------
	.byte	PATT
	 .word	Voyage_of_380000_km_1_087
@ 232   ----------------------------------------
	.byte	PATT
	 .word	Voyage_of_380000_km_1_084
@ 233   ----------------------------------------
	.byte	PATT
	 .word	Voyage_of_380000_km_1_081
@ 234   ----------------------------------------
	.byte	PATT
	 .word	Voyage_of_380000_km_1_082
@ 235   ----------------------------------------
	.byte	PATT
	 .word	Voyage_of_380000_km_1_083
@ 236   ----------------------------------------
	.byte	PATT
	 .word	Voyage_of_380000_km_1_084
@ 237   ----------------------------------------
	.byte	PATT
	 .word	Voyage_of_380000_km_1_081
@ 238   ----------------------------------------
	.byte	PATT
	 .word	Voyage_of_380000_km_1_086
@ 239   ----------------------------------------
	.byte	PATT
	 .word	Voyage_of_380000_km_1_087
@ 240   ----------------------------------------
	.byte	W96
@ 241   ----------------------------------------
	.byte	W96
@ 242   ----------------------------------------
	.byte	W96
@ 243   ----------------------------------------
	.byte	W96
@ 244   ----------------------------------------
	.byte	W96
@ 245   ----------------------------------------
	.byte	W96
@ 246   ----------------------------------------
	.byte	W96
@ 247   ----------------------------------------
	.byte	W96
@ 248   ----------------------------------------
	.byte	W96
@ 249   ----------------------------------------
	.byte	W96
@ 250   ----------------------------------------
	.byte	W96
@ 251   ----------------------------------------
	.byte	W96
@ 252   ----------------------------------------
	.byte	W96
@ 253   ----------------------------------------
	.byte	W96
@ 254   ----------------------------------------
	.byte	W96
@ 255   ----------------------------------------
	.byte	W96
@ 256   ----------------------------------------
	.byte	W96
@ 257   ----------------------------------------
	.byte	W96
@ 258   ----------------------------------------
	.byte	W96
@ 259   ----------------------------------------
	.byte	W96
@ 260   ----------------------------------------
	.byte	W96
@ 261   ----------------------------------------
	.byte	W96
@ 262   ----------------------------------------
	.byte	W96
@ 263   ----------------------------------------
	.byte	W96
@ 264   ----------------------------------------
	.byte	W96
@ 265   ----------------------------------------
	.byte	W96
@ 266   ----------------------------------------
	.byte	W96
@ 267   ----------------------------------------
	.byte	W96
@ 268   ----------------------------------------
	.byte	W96
@ 269   ----------------------------------------
	.byte	W96
@ 270   ----------------------------------------
	.byte	W96
@ 271   ----------------------------------------
	.byte	W96
@ 272   ----------------------------------------
	.byte	W96
@ 273   ----------------------------------------
	.byte	W96
@ 274   ----------------------------------------
	.byte	W96
@ 275   ----------------------------------------
	.byte	W96
@ 276   ----------------------------------------
	.byte	W96
@ 277   ----------------------------------------
	.byte	W96
@ 278   ----------------------------------------
	.byte	W96
@ 279   ----------------------------------------
	.byte	W96
@ 280   ----------------------------------------
	.byte	W96
@ 281   ----------------------------------------
	.byte	W96
@ 282   ----------------------------------------
	.byte	W96
@ 283   ----------------------------------------
	.byte	W96
@ 284   ----------------------------------------
	.byte	W96
@ 285   ----------------------------------------
	.byte	W96
@ 286   ----------------------------------------
	.byte	W96
@ 287   ----------------------------------------
	.byte	W96
@ 288   ----------------------------------------
	.byte	W76
	.byte	W01
	.byte	GOTO
	 .word	Voyage_of_380000_km_1_B1
Voyage_of_380000_km_1_B2:
	.byte	FINE

@**************** Track 2 (Midi-Chn.2) ****************@

Voyage_of_380000_km_2:
	.byte	KEYSH , Voyage_of_380000_km_key+0
Voyage_of_380000_km_2_B1:
@ 000   ----------------------------------------
	.byte		VOICE , 29
	.byte		PAN   , c_v+0
	.byte		VOL   , 120*Voyage_of_380000_km_mvl/mxv
	.byte	W52
	.byte	W01
	.byte		N44   , Fn4 , v080
	.byte	W42
	.byte	W01
@ 001   ----------------------------------------
Voyage_of_380000_km_2_001:
	.byte	W05
	.byte		N44   , Cn4 , v080
	.byte	W48
	.byte		        As3 
	.byte	W42
	.byte	W01
	.byte	PEND
@ 002   ----------------------------------------
Voyage_of_380000_km_2_002:
	.byte	W05
	.byte		N23   , Gs3 , v080
	.byte	W24
	.byte		        Gn3 
	.byte	W24
	.byte		N68   , Fn3 
	.byte	W42
	.byte	W01
	.byte	PEND
@ 003   ----------------------------------------
Voyage_of_380000_km_2_003:
	.byte	W28
	.byte	W01
	.byte		N23   , Fn4 , v080
	.byte	W24
	.byte		N68   , Cn4 
	.byte	W42
	.byte	W01
	.byte	PEND
@ 004   ----------------------------------------
Voyage_of_380000_km_2_004:
	.byte	W28
	.byte	W01
	.byte		N11   , As3 , v080
	.byte	W12
	.byte		        Cn4 
	.byte	W12
	.byte		N44   , Fn4 
	.byte	W42
	.byte	W01
	.byte	PEND
@ 005   ----------------------------------------
	.byte	PATT
	 .word	Voyage_of_380000_km_2_001
@ 006   ----------------------------------------
	.byte	PATT
	 .word	Voyage_of_380000_km_2_002
@ 007   ----------------------------------------
Voyage_of_380000_km_2_007:
	.byte	W28
	.byte	W01
	.byte		N23   , Fn4 , v080
	.byte	W24
	.byte		N32   , Cn4 
	.byte	W36
	.byte		        As3 
	.byte	W07
	.byte	PEND
@ 008   ----------------------------------------
Voyage_of_380000_km_2_008:
	.byte	W28
	.byte	W01
	.byte		N23   , En4 , v080
	.byte	W24
	.byte		N44   , Fn4 
	.byte	W42
	.byte	W01
	.byte	PEND
@ 009   ----------------------------------------
	.byte	PATT
	 .word	Voyage_of_380000_km_2_001
@ 010   ----------------------------------------
	.byte	PATT
	 .word	Voyage_of_380000_km_2_002
@ 011   ----------------------------------------
	.byte	PATT
	 .word	Voyage_of_380000_km_2_003
@ 012   ----------------------------------------
	.byte	PATT
	 .word	Voyage_of_380000_km_2_004
@ 013   ----------------------------------------
	.byte	PATT
	 .word	Voyage_of_380000_km_2_001
@ 014   ----------------------------------------
	.byte	PATT
	 .word	Voyage_of_380000_km_2_002
@ 015   ----------------------------------------
Voyage_of_380000_km_2_015:
	.byte	W28
	.byte	W01
	.byte		N23   , Fn4 , v080
	.byte	W24
	.byte		        En4 
	.byte	W24
	.byte		N23   
	.byte	W19
	.byte	PEND
@ 016   ----------------------------------------
Voyage_of_380000_km_2_016:
	.byte	W05
	.byte		N23   , Fn4 , v080
	.byte	W24
	.byte		        Gn4 
	.byte	W66
	.byte	W01
	.byte	PEND
@ 017   ----------------------------------------
	.byte	W96
@ 018   ----------------------------------------
	.byte	W96
@ 019   ----------------------------------------
	.byte	W96
@ 020   ----------------------------------------
	.byte	W96
@ 021   ----------------------------------------
	.byte	W96
@ 022   ----------------------------------------
	.byte	W96
@ 023   ----------------------------------------
	.byte	W96
@ 024   ----------------------------------------
	.byte	W96
@ 025   ----------------------------------------
	.byte	W96
@ 026   ----------------------------------------
	.byte	W96
@ 027   ----------------------------------------
	.byte	W96
@ 028   ----------------------------------------
	.byte	W96
@ 029   ----------------------------------------
	.byte	W96
@ 030   ----------------------------------------
	.byte	W96
@ 031   ----------------------------------------
	.byte	W96
@ 032   ----------------------------------------
	.byte	W96
@ 033   ----------------------------------------
	.byte	W96
@ 034   ----------------------------------------
	.byte	W96
@ 035   ----------------------------------------
	.byte	W96
@ 036   ----------------------------------------
	.byte	W96
@ 037   ----------------------------------------
	.byte	W96
@ 038   ----------------------------------------
	.byte	W96
@ 039   ----------------------------------------
	.byte	W96
@ 040   ----------------------------------------
	.byte	W96
@ 041   ----------------------------------------
	.byte	W96
@ 042   ----------------------------------------
	.byte	W96
@ 043   ----------------------------------------
	.byte	W96
@ 044   ----------------------------------------
	.byte	W96
@ 045   ----------------------------------------
	.byte	W96
@ 046   ----------------------------------------
	.byte	W96
@ 047   ----------------------------------------
	.byte	W96
@ 048   ----------------------------------------
Voyage_of_380000_km_2_048:
	.byte	W28
	.byte	W01
	.byte		N11   , Cn4 , v080
	.byte	W12
	.byte		N11   
	.byte	W12
	.byte		N17   , Fn4 
	.byte	W18
	.byte		N17   
	.byte	W18
	.byte		N11   
	.byte	W07
	.byte	PEND
@ 049   ----------------------------------------
Voyage_of_380000_km_2_049:
	.byte	W05
	.byte		N17   , Fn4 , v080
	.byte	W18
	.byte		        Gn4 
	.byte	W18
	.byte		N11   , Gs4 
	.byte	W12
	.byte		N17   , As4 
	.byte	W18
	.byte		        Cn5 
	.byte	W18
	.byte		N11   , Fn4 
	.byte	W07
	.byte	PEND
@ 050   ----------------------------------------
Voyage_of_380000_km_2_050:
	.byte	W05
	.byte		N44   , Fn4 , v080
	.byte	W48
	.byte		N17   
	.byte	W18
	.byte		        Gn4 
	.byte	W18
	.byte		N11   , An4 
	.byte	W07
	.byte	PEND
@ 051   ----------------------------------------
Voyage_of_380000_km_2_051:
	.byte	W05
	.byte		N17   , Gn4 , v080
	.byte	W18
	.byte		        Fn4 
	.byte	W18
	.byte		N11   , En4 
	.byte	W12
	.byte		N44   , An3 
	.byte	W42
	.byte	W01
	.byte	PEND
@ 052   ----------------------------------------
Voyage_of_380000_km_2_052:
	.byte	W05
	.byte		N44   , Dn4 , v080
	.byte	W48
	.byte		N17   , Fn4 
	.byte	W18
	.byte		N17   
	.byte	W18
	.byte		N11   
	.byte	W07
	.byte	PEND
@ 053   ----------------------------------------
Voyage_of_380000_km_2_053:
	.byte	W05
	.byte		N17   , Fn4 , v080
	.byte	W18
	.byte		        Gn4 
	.byte	W18
	.byte		N11   , An4 
	.byte	W12
	.byte		N17   , Gn4 
	.byte	W18
	.byte		        Fn4 
	.byte	W18
	.byte		N11   , En4 
	.byte	W07
	.byte	PEND
@ 054   ----------------------------------------
Voyage_of_380000_km_2_054:
	.byte	W05
	.byte		N17   , An3 , v080
	.byte	W18
	.byte		        Cn4 
	.byte	W18
	.byte		N11   , Cs4 
	.byte	W12
	.byte		N92   , Dn4 
	.byte	W42
	.byte	W01
	.byte	PEND
@ 055   ----------------------------------------
Voyage_of_380000_km_2_055:
	.byte	W64
	.byte	W01
	.byte		N11   , An3 , v080
	.byte	W12
	.byte		        Cn4 
	.byte	W12
	.byte		        Dn4 
	.byte	W07
	.byte	PEND
@ 056   ----------------------------------------
Voyage_of_380000_km_2_056:
	.byte	W05
	.byte		N11   , Gn3 , v080
	.byte	W12
	.byte		        An3 
	.byte	W12
	.byte		N23   , Fn3 
	.byte	W24
	.byte		N17   , Dn4 
	.byte	W18
	.byte		N17   
	.byte	W18
	.byte		N11   
	.byte	W07
	.byte	PEND
@ 057   ----------------------------------------
Voyage_of_380000_km_2_057:
	.byte	W05
	.byte		N17   , Dn4 , v080
	.byte	W18
	.byte		        En4 
	.byte	W18
	.byte		N11   , Fn4 
	.byte	W12
	.byte		N17   , Gn4 
	.byte	W18
	.byte		        An4 
	.byte	W18
	.byte		N11   , Cn5 
	.byte	W07
	.byte	PEND
@ 058   ----------------------------------------
Voyage_of_380000_km_2_058:
	.byte	W05
	.byte		N44   , Dn5 , v080
	.byte	W48
	.byte		N17   
	.byte	W18
	.byte		        An4 
	.byte	W18
	.byte		N11   , Fn5 
	.byte	W07
	.byte	PEND
@ 059   ----------------------------------------
Voyage_of_380000_km_2_059:
	.byte	W05
	.byte		N17   , En5 , v080
	.byte	W18
	.byte		        Dn5 
	.byte	W18
	.byte		N11   , Cn5 
	.byte	W12
	.byte		N44   , An4 
	.byte	W42
	.byte	W01
	.byte	PEND
@ 060   ----------------------------------------
	.byte	PATT
	 .word	Voyage_of_380000_km_2_058
@ 061   ----------------------------------------
Voyage_of_380000_km_2_061:
	.byte	W05
	.byte		N17   , En5 , v080
	.byte	W18
	.byte		        Dn5 
	.byte	W18
	.byte		N11   , Cn5 
	.byte	W12
	.byte		N17   , Gn4 
	.byte	W18
	.byte		        Fn4 
	.byte	W18
	.byte		N11   , En4 
	.byte	W07
	.byte	PEND
@ 062   ----------------------------------------
Voyage_of_380000_km_2_062:
	.byte	W05
	.byte		N17   , An4 , v080
	.byte	W18
	.byte		        Cn5 
	.byte	W18
	.byte		N11   , Cs5 
	.byte	W12
	.byte		N92   , Dn5 
	.byte	W42
	.byte	W01
	.byte	PEND
@ 063   ----------------------------------------
	.byte	W96
@ 064   ----------------------------------------
Voyage_of_380000_km_2_064:
	.byte	W52
	.byte	W01
	.byte		N44   , Dn4 , v080
	.byte	W42
	.byte	W01
	.byte	PEND
@ 065   ----------------------------------------
Voyage_of_380000_km_2_065:
	.byte	W05
	.byte		N44   , An3 , v080
	.byte	W48
	.byte		        Gn3 
	.byte	W42
	.byte	W01
	.byte	PEND
@ 066   ----------------------------------------
Voyage_of_380000_km_2_066:
	.byte	W05
	.byte		N23   , Fn3 , v080
	.byte	W24
	.byte		        En3 
	.byte	W24
	.byte		N68   , Dn3 
	.byte	W42
	.byte	W01
	.byte	PEND
@ 067   ----------------------------------------
Voyage_of_380000_km_2_067:
	.byte	W28
	.byte	W01
	.byte		N23   , Dn4 , v080
	.byte	W24
	.byte		N68   , An3 
	.byte	W42
	.byte	W01
	.byte	PEND
@ 068   ----------------------------------------
Voyage_of_380000_km_2_068:
	.byte	W28
	.byte	W01
	.byte		N11   , Gn3 , v080
	.byte	W12
	.byte		        An3 
	.byte	W12
	.byte		N44   , Dn4 
	.byte	W42
	.byte	W01
	.byte	PEND
@ 069   ----------------------------------------
	.byte	PATT
	 .word	Voyage_of_380000_km_2_065
@ 070   ----------------------------------------
	.byte	PATT
	 .word	Voyage_of_380000_km_2_066
@ 071   ----------------------------------------
Voyage_of_380000_km_2_071:
	.byte	W28
	.byte	W01
	.byte		N23   , Dn4 , v080
	.byte	W24
	.byte		N32   , An3 
	.byte	W36
	.byte		        Gn3 
	.byte	W07
	.byte	PEND
@ 072   ----------------------------------------
Voyage_of_380000_km_2_072:
	.byte	W28
	.byte	W01
	.byte		N23   , Cs4 , v080
	.byte	W24
	.byte		N44   , Dn4 
	.byte	W42
	.byte	W01
	.byte	PEND
@ 073   ----------------------------------------
	.byte	PATT
	 .word	Voyage_of_380000_km_2_065
@ 074   ----------------------------------------
	.byte	PATT
	 .word	Voyage_of_380000_km_2_066
@ 075   ----------------------------------------
	.byte	PATT
	 .word	Voyage_of_380000_km_2_067
@ 076   ----------------------------------------
	.byte	PATT
	 .word	Voyage_of_380000_km_2_068
@ 077   ----------------------------------------
	.byte	PATT
	 .word	Voyage_of_380000_km_2_065
@ 078   ----------------------------------------
	.byte	PATT
	 .word	Voyage_of_380000_km_2_066
@ 079   ----------------------------------------
Voyage_of_380000_km_2_079:
	.byte	W28
	.byte	W01
	.byte		N23   , Dn4 , v080
	.byte	W24
	.byte		        Cs4 
	.byte	W24
	.byte		N23   
	.byte	W19
	.byte	PEND
@ 080   ----------------------------------------
Voyage_of_380000_km_2_080:
	.byte	W05
	.byte		N23   , Dn4 , v080
	.byte	W24
	.byte		        En4 
	.byte	W66
	.byte	W01
	.byte	PEND
@ 081   ----------------------------------------
	.byte	W96
@ 082   ----------------------------------------
	.byte	W96
@ 083   ----------------------------------------
	.byte	W96
@ 084   ----------------------------------------
	.byte	W96
@ 085   ----------------------------------------
	.byte	W96
@ 086   ----------------------------------------
	.byte	W96
@ 087   ----------------------------------------
	.byte	W96
@ 088   ----------------------------------------
	.byte	W96
@ 089   ----------------------------------------
	.byte	W96
@ 090   ----------------------------------------
	.byte	W96
@ 091   ----------------------------------------
	.byte	W96
@ 092   ----------------------------------------
	.byte	W96
@ 093   ----------------------------------------
	.byte	W96
@ 094   ----------------------------------------
	.byte	W96
@ 095   ----------------------------------------
	.byte	W96
@ 096   ----------------------------------------
	.byte	PATT
	 .word	Voyage_of_380000_km_2_048
@ 097   ----------------------------------------
	.byte	PATT
	 .word	Voyage_of_380000_km_2_049
@ 098   ----------------------------------------
	.byte	PATT
	 .word	Voyage_of_380000_km_2_050
@ 099   ----------------------------------------
	.byte	PATT
	 .word	Voyage_of_380000_km_2_051
@ 100   ----------------------------------------
	.byte	PATT
	 .word	Voyage_of_380000_km_2_052
@ 101   ----------------------------------------
	.byte	PATT
	 .word	Voyage_of_380000_km_2_053
@ 102   ----------------------------------------
	.byte	PATT
	 .word	Voyage_of_380000_km_2_054
@ 103   ----------------------------------------
	.byte	PATT
	 .word	Voyage_of_380000_km_2_055
@ 104   ----------------------------------------
	.byte	PATT
	 .word	Voyage_of_380000_km_2_056
@ 105   ----------------------------------------
	.byte	PATT
	 .word	Voyage_of_380000_km_2_057
@ 106   ----------------------------------------
	.byte	PATT
	 .word	Voyage_of_380000_km_2_058
@ 107   ----------------------------------------
	.byte	PATT
	 .word	Voyage_of_380000_km_2_059
@ 108   ----------------------------------------
	.byte	PATT
	 .word	Voyage_of_380000_km_2_058
@ 109   ----------------------------------------
	.byte	PATT
	 .word	Voyage_of_380000_km_2_061
@ 110   ----------------------------------------
	.byte	PATT
	 .word	Voyage_of_380000_km_2_062
@ 111   ----------------------------------------
	.byte	W96
@ 112   ----------------------------------------
	.byte	W96
@ 113   ----------------------------------------
	.byte	W96
@ 114   ----------------------------------------
	.byte	W96
@ 115   ----------------------------------------
	.byte	W96
@ 116   ----------------------------------------
	.byte	W96
@ 117   ----------------------------------------
	.byte	W96
@ 118   ----------------------------------------
	.byte	W96
@ 119   ----------------------------------------
	.byte	W96
@ 120   ----------------------------------------
	.byte	W96
@ 121   ----------------------------------------
	.byte	W96
@ 122   ----------------------------------------
	.byte	W96
@ 123   ----------------------------------------
	.byte	W96
@ 124   ----------------------------------------
	.byte	W96
@ 125   ----------------------------------------
	.byte	W96
@ 126   ----------------------------------------
	.byte	W96
@ 127   ----------------------------------------
	.byte	W96
@ 128   ----------------------------------------
	.byte	W96
@ 129   ----------------------------------------
	.byte	W96
@ 130   ----------------------------------------
	.byte	W96
@ 131   ----------------------------------------
	.byte	W96
@ 132   ----------------------------------------
	.byte	W96
@ 133   ----------------------------------------
	.byte	W96
@ 134   ----------------------------------------
	.byte	W96
@ 135   ----------------------------------------
	.byte	W96
@ 136   ----------------------------------------
	.byte	W96
@ 137   ----------------------------------------
	.byte	W96
@ 138   ----------------------------------------
	.byte	W96
@ 139   ----------------------------------------
	.byte	W96
@ 140   ----------------------------------------
	.byte	W96
@ 141   ----------------------------------------
	.byte	W96
@ 142   ----------------------------------------
	.byte	W96
@ 143   ----------------------------------------
	.byte	W96
@ 144   ----------------------------------------
	.byte	W52
	.byte	W01
	.byte		N44   , Fn4 , v080
	.byte	W42
	.byte	W01
@ 145   ----------------------------------------
	.byte	PATT
	 .word	Voyage_of_380000_km_2_001
@ 146   ----------------------------------------
	.byte	PATT
	 .word	Voyage_of_380000_km_2_002
@ 147   ----------------------------------------
	.byte	PATT
	 .word	Voyage_of_380000_km_2_003
@ 148   ----------------------------------------
	.byte	PATT
	 .word	Voyage_of_380000_km_2_004
@ 149   ----------------------------------------
	.byte	PATT
	 .word	Voyage_of_380000_km_2_001
@ 150   ----------------------------------------
	.byte	PATT
	 .word	Voyage_of_380000_km_2_002
@ 151   ----------------------------------------
	.byte	PATT
	 .word	Voyage_of_380000_km_2_007
@ 152   ----------------------------------------
	.byte	PATT
	 .word	Voyage_of_380000_km_2_008
@ 153   ----------------------------------------
	.byte	PATT
	 .word	Voyage_of_380000_km_2_001
@ 154   ----------------------------------------
	.byte	PATT
	 .word	Voyage_of_380000_km_2_002
@ 155   ----------------------------------------
	.byte	PATT
	 .word	Voyage_of_380000_km_2_003
@ 156   ----------------------------------------
	.byte	PATT
	 .word	Voyage_of_380000_km_2_004
@ 157   ----------------------------------------
	.byte	PATT
	 .word	Voyage_of_380000_km_2_001
@ 158   ----------------------------------------
	.byte	PATT
	 .word	Voyage_of_380000_km_2_002
@ 159   ----------------------------------------
	.byte	PATT
	 .word	Voyage_of_380000_km_2_015
@ 160   ----------------------------------------
	.byte	PATT
	 .word	Voyage_of_380000_km_2_016
@ 161   ----------------------------------------
	.byte	W96
@ 162   ----------------------------------------
	.byte	W96
@ 163   ----------------------------------------
	.byte	W96
@ 164   ----------------------------------------
	.byte	W96
@ 165   ----------------------------------------
	.byte	W96
@ 166   ----------------------------------------
	.byte	W96
@ 167   ----------------------------------------
	.byte	W96
@ 168   ----------------------------------------
	.byte	W96
@ 169   ----------------------------------------
	.byte	W96
@ 170   ----------------------------------------
	.byte	W96
@ 171   ----------------------------------------
	.byte	W96
@ 172   ----------------------------------------
	.byte	W96
@ 173   ----------------------------------------
	.byte	W96
@ 174   ----------------------------------------
	.byte	W96
@ 175   ----------------------------------------
	.byte	W96
@ 176   ----------------------------------------
	.byte	W96
@ 177   ----------------------------------------
	.byte	W96
@ 178   ----------------------------------------
	.byte	W96
@ 179   ----------------------------------------
	.byte	W96
@ 180   ----------------------------------------
	.byte	W96
@ 181   ----------------------------------------
	.byte	W96
@ 182   ----------------------------------------
	.byte	W96
@ 183   ----------------------------------------
	.byte	W96
@ 184   ----------------------------------------
	.byte	W96
@ 185   ----------------------------------------
	.byte	W96
@ 186   ----------------------------------------
	.byte	W96
@ 187   ----------------------------------------
	.byte	W96
@ 188   ----------------------------------------
	.byte	W96
@ 189   ----------------------------------------
	.byte	W96
@ 190   ----------------------------------------
	.byte	W96
@ 191   ----------------------------------------
	.byte	W96
@ 192   ----------------------------------------
	.byte	PATT
	 .word	Voyage_of_380000_km_2_048
@ 193   ----------------------------------------
	.byte	PATT
	 .word	Voyage_of_380000_km_2_049
@ 194   ----------------------------------------
	.byte	PATT
	 .word	Voyage_of_380000_km_2_050
@ 195   ----------------------------------------
	.byte	PATT
	 .word	Voyage_of_380000_km_2_051
@ 196   ----------------------------------------
	.byte	PATT
	 .word	Voyage_of_380000_km_2_052
@ 197   ----------------------------------------
	.byte	PATT
	 .word	Voyage_of_380000_km_2_053
@ 198   ----------------------------------------
	.byte	PATT
	 .word	Voyage_of_380000_km_2_054
@ 199   ----------------------------------------
	.byte	PATT
	 .word	Voyage_of_380000_km_2_055
@ 200   ----------------------------------------
	.byte	PATT
	 .word	Voyage_of_380000_km_2_056
@ 201   ----------------------------------------
	.byte	PATT
	 .word	Voyage_of_380000_km_2_057
@ 202   ----------------------------------------
	.byte	PATT
	 .word	Voyage_of_380000_km_2_058
@ 203   ----------------------------------------
	.byte	PATT
	 .word	Voyage_of_380000_km_2_059
@ 204   ----------------------------------------
	.byte	PATT
	 .word	Voyage_of_380000_km_2_058
@ 205   ----------------------------------------
	.byte	PATT
	 .word	Voyage_of_380000_km_2_061
@ 206   ----------------------------------------
	.byte	PATT
	 .word	Voyage_of_380000_km_2_062
@ 207   ----------------------------------------
	.byte	W96
@ 208   ----------------------------------------
	.byte	PATT
	 .word	Voyage_of_380000_km_2_064
@ 209   ----------------------------------------
	.byte	PATT
	 .word	Voyage_of_380000_km_2_065
@ 210   ----------------------------------------
	.byte	PATT
	 .word	Voyage_of_380000_km_2_066
@ 211   ----------------------------------------
	.byte	PATT
	 .word	Voyage_of_380000_km_2_067
@ 212   ----------------------------------------
	.byte	PATT
	 .word	Voyage_of_380000_km_2_068
@ 213   ----------------------------------------
	.byte	PATT
	 .word	Voyage_of_380000_km_2_065
@ 214   ----------------------------------------
	.byte	PATT
	 .word	Voyage_of_380000_km_2_066
@ 215   ----------------------------------------
	.byte	PATT
	 .word	Voyage_of_380000_km_2_071
@ 216   ----------------------------------------
	.byte	PATT
	 .word	Voyage_of_380000_km_2_072
@ 217   ----------------------------------------
	.byte	PATT
	 .word	Voyage_of_380000_km_2_065
@ 218   ----------------------------------------
	.byte	PATT
	 .word	Voyage_of_380000_km_2_066
@ 219   ----------------------------------------
	.byte	PATT
	 .word	Voyage_of_380000_km_2_067
@ 220   ----------------------------------------
	.byte	PATT
	 .word	Voyage_of_380000_km_2_068
@ 221   ----------------------------------------
	.byte	PATT
	 .word	Voyage_of_380000_km_2_065
@ 222   ----------------------------------------
	.byte	PATT
	 .word	Voyage_of_380000_km_2_066
@ 223   ----------------------------------------
	.byte	PATT
	 .word	Voyage_of_380000_km_2_079
@ 224   ----------------------------------------
	.byte	PATT
	 .word	Voyage_of_380000_km_2_080
@ 225   ----------------------------------------
	.byte	W96
@ 226   ----------------------------------------
	.byte	W96
@ 227   ----------------------------------------
	.byte	W96
@ 228   ----------------------------------------
	.byte	W96
@ 229   ----------------------------------------
	.byte	W96
@ 230   ----------------------------------------
	.byte	W96
@ 231   ----------------------------------------
	.byte	W96
@ 232   ----------------------------------------
	.byte	W96
@ 233   ----------------------------------------
	.byte	W96
@ 234   ----------------------------------------
	.byte	W96
@ 235   ----------------------------------------
	.byte	W96
@ 236   ----------------------------------------
	.byte	W96
@ 237   ----------------------------------------
	.byte	W96
@ 238   ----------------------------------------
	.byte	W96
@ 239   ----------------------------------------
	.byte	W96
@ 240   ----------------------------------------
	.byte	PATT
	 .word	Voyage_of_380000_km_2_048
@ 241   ----------------------------------------
	.byte	PATT
	 .word	Voyage_of_380000_km_2_049
@ 242   ----------------------------------------
	.byte	PATT
	 .word	Voyage_of_380000_km_2_050
@ 243   ----------------------------------------
	.byte	PATT
	 .word	Voyage_of_380000_km_2_051
@ 244   ----------------------------------------
	.byte	PATT
	 .word	Voyage_of_380000_km_2_052
@ 245   ----------------------------------------
	.byte	PATT
	 .word	Voyage_of_380000_km_2_053
@ 246   ----------------------------------------
	.byte	PATT
	 .word	Voyage_of_380000_km_2_054
@ 247   ----------------------------------------
	.byte	PATT
	 .word	Voyage_of_380000_km_2_055
@ 248   ----------------------------------------
	.byte	PATT
	 .word	Voyage_of_380000_km_2_056
@ 249   ----------------------------------------
	.byte	PATT
	 .word	Voyage_of_380000_km_2_057
@ 250   ----------------------------------------
	.byte	PATT
	 .word	Voyage_of_380000_km_2_058
@ 251   ----------------------------------------
	.byte	PATT
	 .word	Voyage_of_380000_km_2_059
@ 252   ----------------------------------------
	.byte	PATT
	 .word	Voyage_of_380000_km_2_058
@ 253   ----------------------------------------
	.byte	PATT
	 .word	Voyage_of_380000_km_2_061
@ 254   ----------------------------------------
	.byte	PATT
	 .word	Voyage_of_380000_km_2_062
@ 255   ----------------------------------------
	.byte	W96
@ 256   ----------------------------------------
	.byte	W96
@ 257   ----------------------------------------
	.byte	W96
@ 258   ----------------------------------------
	.byte	W96
@ 259   ----------------------------------------
	.byte	W96
@ 260   ----------------------------------------
	.byte	W96
@ 261   ----------------------------------------
	.byte	W96
@ 262   ----------------------------------------
	.byte	W96
@ 263   ----------------------------------------
	.byte	W96
@ 264   ----------------------------------------
	.byte	W96
@ 265   ----------------------------------------
	.byte	W96
@ 266   ----------------------------------------
	.byte	W96
@ 267   ----------------------------------------
	.byte	W96
@ 268   ----------------------------------------
	.byte	W96
@ 269   ----------------------------------------
	.byte	W96
@ 270   ----------------------------------------
	.byte	W96
@ 271   ----------------------------------------
	.byte	W96
@ 272   ----------------------------------------
	.byte	W96
@ 273   ----------------------------------------
	.byte	W96
@ 274   ----------------------------------------
	.byte	W96
@ 275   ----------------------------------------
	.byte	W96
@ 276   ----------------------------------------
	.byte	W96
@ 277   ----------------------------------------
	.byte	W96
@ 278   ----------------------------------------
	.byte	W96
@ 279   ----------------------------------------
	.byte	W96
@ 280   ----------------------------------------
	.byte	W96
@ 281   ----------------------------------------
	.byte	W96
@ 282   ----------------------------------------
	.byte	W96
@ 283   ----------------------------------------
	.byte	W96
@ 284   ----------------------------------------
	.byte	W96
@ 285   ----------------------------------------
	.byte	W96
@ 286   ----------------------------------------
	.byte	W96
@ 287   ----------------------------------------
	.byte	W96
@ 288   ----------------------------------------
	.byte	W76
	.byte	W01
	.byte	GOTO
	 .word	Voyage_of_380000_km_2_B1
Voyage_of_380000_km_2_B2:
	.byte	FINE

@**************** Track 3 (Midi-Chn.3) ****************@

Voyage_of_380000_km_3:
	.byte	KEYSH , Voyage_of_380000_km_key+0
Voyage_of_380000_km_3_B1:
@ 000   ----------------------------------------
	.byte		VOICE , 0
	.byte		PAN   , c_v+0
	.byte		VOL   , 127*Voyage_of_380000_km_mvl/mxv
	.byte	W96
@ 001   ----------------------------------------
	.byte	W96
@ 002   ----------------------------------------
	.byte	W96
@ 003   ----------------------------------------
	.byte	W96
@ 004   ----------------------------------------
	.byte	W96
@ 005   ----------------------------------------
	.byte	W96
@ 006   ----------------------------------------
	.byte	W96
@ 007   ----------------------------------------
	.byte	W96
@ 008   ----------------------------------------
	.byte	W96
@ 009   ----------------------------------------
	.byte	W96
@ 010   ----------------------------------------
	.byte	W96
@ 011   ----------------------------------------
	.byte	W96
@ 012   ----------------------------------------
	.byte	W96
@ 013   ----------------------------------------
	.byte	W96
@ 014   ----------------------------------------
	.byte	W96
@ 015   ----------------------------------------
	.byte	W96
@ 016   ----------------------------------------
Voyage_of_380000_km_3_016:
	.byte	W52
	.byte	W01
	.byte		N23   , Gs3 , v080
	.byte		N23   , Cs4 
	.byte	W24
	.byte		N23   
	.byte		N23   , Fn4 
	.byte	W19
	.byte	PEND
@ 017   ----------------------------------------
Voyage_of_380000_km_3_017:
	.byte	W05
	.byte		N23   , As3 , v080
	.byte		N23   , Ds4 
	.byte	W24
	.byte		N23   
	.byte		N23   , Gn4 
	.byte	W24
	.byte		        Cn3 
	.byte		N23   , Gs3 
	.byte	W24
	.byte		        Cn4 
	.byte		N23   , Ds4 
	.byte	W19
	.byte	PEND
@ 018   ----------------------------------------
Voyage_of_380000_km_3_018:
	.byte	W05
	.byte		N44   , Fn3 , v080
	.byte		N44   , Cn4 
	.byte	W48
	.byte		N23   , Gs3 
	.byte		N23   , Cs4 
	.byte	W24
	.byte		N23   
	.byte		N23   , Fn4 
	.byte	W19
	.byte	PEND
@ 019   ----------------------------------------
Voyage_of_380000_km_3_019:
	.byte	W05
	.byte		N23   , As3 , v080
	.byte		N23   , Ds4 
	.byte	W24
	.byte		N23   
	.byte		N23   , Gn4 
	.byte	W24
	.byte		N32   , As3 
	.byte		N68   , Gs4 
	.byte	W36
	.byte		N32   , Gs3 
	.byte	W07
	.byte	PEND
@ 020   ----------------------------------------
Voyage_of_380000_km_3_020:
	.byte	W28
	.byte	W01
	.byte		N23   , Ds3 , v080
	.byte		N23   , Gs3 
	.byte	W24
	.byte		N23   
	.byte		N23   , Cs4 
	.byte	W24
	.byte		N23   
	.byte		N23   , Fn4 
	.byte	W19
	.byte	PEND
@ 021   ----------------------------------------
Voyage_of_380000_km_3_021:
	.byte	W05
	.byte		N23   , As3 , v080
	.byte		N23   , Ds4 
	.byte	W24
	.byte		N23   
	.byte		N23   , Gn4 
	.byte	W24
	.byte		        Ds4 
	.byte		N23   , Gs4 
	.byte	W24
	.byte		        Cn4 
	.byte		N23   , Ds4 
	.byte	W19
	.byte	PEND
@ 022   ----------------------------------------
Voyage_of_380000_km_3_022:
	.byte	W05
	.byte		N23   , Gs3 , v080
	.byte		N23   , Cn4 
	.byte	W24
	.byte		        Ds4 
	.byte		N23   , Gs4 
	.byte	W24
	.byte		        En4 
	.byte		N23   , Gn4 
	.byte	W24
	.byte		        As3 
	.byte		N23   , En4 
	.byte	W19
	.byte	PEND
@ 023   ----------------------------------------
Voyage_of_380000_km_3_023:
	.byte	W05
	.byte		N23   , En4 , v080
	.byte		N23   , Gn4 
	.byte	W24
	.byte		        En4 
	.byte		N23   , As4 
	.byte	W24
	.byte		N44   , Fn4 
	.byte		N44   , Gs4 
	.byte	W42
	.byte	W01
	.byte	PEND
@ 024   ----------------------------------------
Voyage_of_380000_km_3_024:
	.byte	W17
	.byte		N32   , Ds4 , v080
	.byte		N32   , Gn4 
	.byte	W36
	.byte		N23   , Gs3 
	.byte		N23   , Cs4 
	.byte	W24
	.byte		N23   
	.byte		N23   , Fn4 
	.byte	W19
	.byte	PEND
@ 025   ----------------------------------------
	.byte	PATT
	 .word	Voyage_of_380000_km_3_017
@ 026   ----------------------------------------
	.byte	PATT
	 .word	Voyage_of_380000_km_3_018
@ 027   ----------------------------------------
Voyage_of_380000_km_3_027:
	.byte	W05
	.byte		N23   , As3 , v080
	.byte		N23   , Ds4 
	.byte	W24
	.byte		N23   
	.byte		N23   , Gn4 
	.byte	W24
	.byte		N68   , Gs4 
	.byte	W42
	.byte	W01
	.byte	PEND
@ 028   ----------------------------------------
	.byte	PATT
	 .word	Voyage_of_380000_km_3_020
@ 029   ----------------------------------------
	.byte	PATT
	 .word	Voyage_of_380000_km_3_021
@ 030   ----------------------------------------
	.byte	PATT
	 .word	Voyage_of_380000_km_3_022
@ 031   ----------------------------------------
	.byte	PATT
	 .word	Voyage_of_380000_km_3_023
@ 032   ----------------------------------------
Voyage_of_380000_km_3_032:
	.byte	W05
	.byte		N23   , Fn3 , v080
	.byte	W24
	.byte		        Gn3 
	.byte	W24
	.byte		N44   , Gs3 
	.byte	W42
	.byte	W01
	.byte	PEND
@ 033   ----------------------------------------
Voyage_of_380000_km_3_033:
	.byte	W17
	.byte		N11   , Cn3 , v080
	.byte	W12
	.byte		        Fn3 
	.byte	W12
	.byte		        Gs3 
	.byte	W12
	.byte		N23   , As3 
	.byte	W24
	.byte		        Cn4 
	.byte	W19
	.byte	PEND
@ 034   ----------------------------------------
Voyage_of_380000_km_3_034:
	.byte	W05
	.byte		N11   , Gn3 , v080
	.byte	W12
	.byte		        Fn3 
	.byte	W12
	.byte		N23   , Ds3 
	.byte	W24
	.byte		N92   , Fn3 
	.byte	W42
	.byte	W01
	.byte	PEND
@ 035   ----------------------------------------
Voyage_of_380000_km_3_035:
	.byte	W52
	.byte	W01
	.byte		N23   , Fn3 , v080
	.byte	W24
	.byte		N23   
	.byte	W19
	.byte	PEND
@ 036   ----------------------------------------
	.byte	PATT
	 .word	Voyage_of_380000_km_3_032
@ 037   ----------------------------------------
	.byte	PATT
	 .word	Voyage_of_380000_km_3_033
@ 038   ----------------------------------------
Voyage_of_380000_km_3_038:
	.byte	W05
	.byte		N11   , Fn3 , v080
	.byte	W12
	.byte		        Cn4 
	.byte	W12
	.byte		        Ds4 
	.byte	W12
	.byte		        Fn4 
	.byte	W12
	.byte		N92   , Cn4 
	.byte	W42
	.byte	W01
	.byte	PEND
@ 039   ----------------------------------------
	.byte	W96
@ 040   ----------------------------------------
	.byte	PATT
	 .word	Voyage_of_380000_km_3_032
@ 041   ----------------------------------------
	.byte	PATT
	 .word	Voyage_of_380000_km_3_033
@ 042   ----------------------------------------
	.byte	PATT
	 .word	Voyage_of_380000_km_3_034
@ 043   ----------------------------------------
	.byte	PATT
	 .word	Voyage_of_380000_km_3_035
@ 044   ----------------------------------------
	.byte	PATT
	 .word	Voyage_of_380000_km_3_032
@ 045   ----------------------------------------
	.byte	PATT
	 .word	Voyage_of_380000_km_3_033
@ 046   ----------------------------------------
Voyage_of_380000_km_3_046:
	.byte	W05
	.byte		N11   , Fn3 , v080
	.byte	W12
	.byte		        Cn4 
	.byte	W12
	.byte		        Ds4 
	.byte	W12
	.byte		TIE   , Fn4 
	.byte	W54
	.byte	W01
	.byte	PEND
@ 047   ----------------------------------------
	.byte	W52
	.byte		EOT   
	.byte	W01
	.byte		N44   , En4 
	.byte	W42
	.byte	W01
@ 048   ----------------------------------------
	.byte	W96
@ 049   ----------------------------------------
	.byte	W96
@ 050   ----------------------------------------
	.byte	W96
@ 051   ----------------------------------------
	.byte	W96
@ 052   ----------------------------------------
	.byte	W96
@ 053   ----------------------------------------
	.byte	W96
@ 054   ----------------------------------------
	.byte	W96
@ 055   ----------------------------------------
	.byte	W96
@ 056   ----------------------------------------
	.byte	W96
@ 057   ----------------------------------------
	.byte	W96
@ 058   ----------------------------------------
	.byte	W96
@ 059   ----------------------------------------
	.byte	W96
@ 060   ----------------------------------------
	.byte	W96
@ 061   ----------------------------------------
	.byte	W96
@ 062   ----------------------------------------
	.byte	W96
@ 063   ----------------------------------------
	.byte	W96
@ 064   ----------------------------------------
	.byte	W96
@ 065   ----------------------------------------
	.byte	W96
@ 066   ----------------------------------------
	.byte	W96
@ 067   ----------------------------------------
	.byte	W96
@ 068   ----------------------------------------
	.byte	W96
@ 069   ----------------------------------------
	.byte	W96
@ 070   ----------------------------------------
	.byte	W96
@ 071   ----------------------------------------
	.byte	W96
@ 072   ----------------------------------------
	.byte	W96
@ 073   ----------------------------------------
	.byte	W96
@ 074   ----------------------------------------
	.byte	W96
@ 075   ----------------------------------------
	.byte	W96
@ 076   ----------------------------------------
	.byte	W96
@ 077   ----------------------------------------
	.byte	W96
@ 078   ----------------------------------------
	.byte	W96
@ 079   ----------------------------------------
	.byte	W96
@ 080   ----------------------------------------
Voyage_of_380000_km_3_080:
	.byte	W52
	.byte	W01
	.byte		N23   , Fn3 , v080
	.byte		N23   , As3 
	.byte	W24
	.byte		N23   
	.byte		N23   , Dn4 
	.byte	W19
	.byte	PEND
@ 081   ----------------------------------------
Voyage_of_380000_km_3_081:
	.byte	W05
	.byte		N23   , Gn3 , v080
	.byte		N23   , Cn4 
	.byte	W24
	.byte		N23   
	.byte		N23   , En4 
	.byte	W24
	.byte		        An2 
	.byte		N23   , Fn3 
	.byte	W24
	.byte		        An3 
	.byte		N23   , Cn4 
	.byte	W19
	.byte	PEND
@ 082   ----------------------------------------
Voyage_of_380000_km_3_082:
	.byte	W05
	.byte		N44   , Dn3 , v080
	.byte		N44   , An3 
	.byte	W48
	.byte		N23   , Fn3 
	.byte		N23   , As3 
	.byte	W24
	.byte		N23   
	.byte		N23   , Dn4 
	.byte	W19
	.byte	PEND
@ 083   ----------------------------------------
Voyage_of_380000_km_3_083:
	.byte	W05
	.byte		N23   , Gn3 , v080
	.byte		N23   , Cn4 
	.byte	W24
	.byte		N23   
	.byte		N23   , En4 
	.byte	W24
	.byte		N32   , Gn3 
	.byte		N68   , Fn4 
	.byte	W36
	.byte		N32   , Fn3 
	.byte	W07
	.byte	PEND
@ 084   ----------------------------------------
Voyage_of_380000_km_3_084:
	.byte	W28
	.byte	W01
	.byte		N23   , Cn3 , v080
	.byte		N23   , Fn3 
	.byte	W24
	.byte		N23   
	.byte		N23   , As3 
	.byte	W24
	.byte		N23   
	.byte		N23   , Dn4 
	.byte	W19
	.byte	PEND
@ 085   ----------------------------------------
Voyage_of_380000_km_3_085:
	.byte	W05
	.byte		N23   , Gn3 , v080
	.byte		N23   , Cn4 
	.byte	W24
	.byte		N23   
	.byte		N23   , En4 
	.byte	W24
	.byte		        Cn4 
	.byte		N23   , Fn4 
	.byte	W24
	.byte		        An3 
	.byte		N23   , Cn4 
	.byte	W19
	.byte	PEND
@ 086   ----------------------------------------
Voyage_of_380000_km_3_086:
	.byte	W05
	.byte		N23   , Fn3 , v080
	.byte		N23   , An3 
	.byte	W24
	.byte		        Cn4 
	.byte		N23   , Fn4 
	.byte	W24
	.byte		        Cs4 
	.byte		N23   , En4 
	.byte	W24
	.byte		        Gn3 
	.byte		N23   , Cs4 
	.byte	W19
	.byte	PEND
@ 087   ----------------------------------------
Voyage_of_380000_km_3_087:
	.byte	W05
	.byte		N23   , Cs4 , v080
	.byte		N23   , En4 
	.byte	W24
	.byte		        Cs4 
	.byte		N23   , Gn4 
	.byte	W24
	.byte		N44   , Dn4 
	.byte		N44   , Fn4 
	.byte	W42
	.byte	W01
	.byte	PEND
@ 088   ----------------------------------------
Voyage_of_380000_km_3_088:
	.byte	W17
	.byte		N32   , Cn4 , v080
	.byte		N32   , En4 
	.byte	W36
	.byte		N23   , Fn3 
	.byte		N23   , As3 
	.byte	W24
	.byte		N23   
	.byte		N23   , Dn4 
	.byte	W19
	.byte	PEND
@ 089   ----------------------------------------
	.byte	PATT
	 .word	Voyage_of_380000_km_3_081
@ 090   ----------------------------------------
	.byte	PATT
	 .word	Voyage_of_380000_km_3_082
@ 091   ----------------------------------------
Voyage_of_380000_km_3_091:
	.byte	W05
	.byte		N23   , Gn3 , v080
	.byte		N23   , Cn4 
	.byte	W24
	.byte		N23   
	.byte		N23   , En4 
	.byte	W24
	.byte		N68   , Fn4 
	.byte	W42
	.byte	W01
	.byte	PEND
@ 092   ----------------------------------------
	.byte	PATT
	 .word	Voyage_of_380000_km_3_084
@ 093   ----------------------------------------
	.byte	PATT
	 .word	Voyage_of_380000_km_3_085
@ 094   ----------------------------------------
	.byte	PATT
	 .word	Voyage_of_380000_km_3_086
@ 095   ----------------------------------------
	.byte	PATT
	 .word	Voyage_of_380000_km_3_087
@ 096   ----------------------------------------
	.byte	W96
@ 097   ----------------------------------------
	.byte	W96
@ 098   ----------------------------------------
	.byte	W96
@ 099   ----------------------------------------
	.byte	W96
@ 100   ----------------------------------------
	.byte	W96
@ 101   ----------------------------------------
	.byte	W96
@ 102   ----------------------------------------
	.byte	W96
@ 103   ----------------------------------------
	.byte	W96
@ 104   ----------------------------------------
	.byte	W96
@ 105   ----------------------------------------
	.byte	W96
@ 106   ----------------------------------------
	.byte	W96
@ 107   ----------------------------------------
	.byte	W96
@ 108   ----------------------------------------
	.byte	W96
@ 109   ----------------------------------------
	.byte	W96
@ 110   ----------------------------------------
	.byte	W96
@ 111   ----------------------------------------
	.byte	W96
@ 112   ----------------------------------------
Voyage_of_380000_km_3_112:
	.byte	W52
	.byte	W01
	.byte		N44   , Dn4 , v080
	.byte		N44   , Fn4 
	.byte	W42
	.byte	W01
	.byte	PEND
@ 113   ----------------------------------------
Voyage_of_380000_km_3_113:
	.byte	W17
	.byte		N11   , Fn3 , v080
	.byte		N11   , An3 
	.byte	W12
	.byte		N11   
	.byte		N11   , Dn4 
	.byte	W12
	.byte		        Cn4 
	.byte		N11   , Fn4 
	.byte	W12
	.byte		N23   , En4 
	.byte		N23   , Gn4 
	.byte	W24
	.byte		        Fn4 
	.byte		N23   , An4 
	.byte	W19
	.byte	PEND
@ 114   ----------------------------------------
Voyage_of_380000_km_3_114:
	.byte	W05
	.byte		N11   , Cn4 , v080
	.byte		N11   , En4 
	.byte	W12
	.byte		        An3 
	.byte		N11   , Dn4 
	.byte	W12
	.byte		N23   , Gn3 
	.byte		N23   , Cn4 
	.byte	W24
	.byte		N92   , As3 
	.byte		N92   , Dn4 
	.byte	W42
	.byte	W01
	.byte	PEND
@ 115   ----------------------------------------
Voyage_of_380000_km_3_115:
	.byte	W52
	.byte	W01
	.byte		N23   , As3 , v080
	.byte		N23   , Dn4 
	.byte	W24
	.byte		        As3 
	.byte		N23   , Dn4 
	.byte	W19
	.byte	PEND
@ 116   ----------------------------------------
Voyage_of_380000_km_3_116:
	.byte	W05
	.byte		N23   , As3 , v080
	.byte		N23   , Dn4 
	.byte	W24
	.byte		        Cn4 
	.byte		N23   , En4 
	.byte	W24
	.byte		N44   , Dn4 
	.byte		N44   , Fn4 
	.byte	W42
	.byte	W01
	.byte	PEND
@ 117   ----------------------------------------
Voyage_of_380000_km_3_117:
	.byte	W17
	.byte		N11   , Fn3 , v080
	.byte		N11   , An3 
	.byte	W12
	.byte		N11   
	.byte		N11   , Dn4 
	.byte	W12
	.byte		N11   
	.byte		N11   , Fn4 
	.byte	W12
	.byte		N23   , En4 
	.byte		N23   , Gn4 
	.byte	W24
	.byte		        Fn4 
	.byte		N23   , An4 
	.byte	W19
	.byte	PEND
@ 118   ----------------------------------------
Voyage_of_380000_km_3_118:
	.byte	W05
	.byte		N11   , Cn4 , v080
	.byte		N11   , En4 
	.byte	W12
	.byte		N11   
	.byte		N11   , An4 
	.byte	W12
	.byte		        Gn4 
	.byte		N11   , Cn5 
	.byte	W12
	.byte		        An4 
	.byte		N11   , Dn5 
	.byte	W12
	.byte		TIE   , Fn4 
	.byte		TIE   , An4 
	.byte	W42
	.byte	W01
	.byte	PEND
@ 119   ----------------------------------------
	.byte	W96
@ 120   ----------------------------------------
	.byte	W04
	.byte		EOT   , Fn4 
	.byte		        An4 
	.byte	W13
	.byte		N11   , En3 
	.byte		N11   , An3 
	.byte	W12
	.byte		N11   
	.byte		N11   , Dn4 
	.byte	W12
	.byte		        Cn4 
	.byte		N11   , En4 
	.byte	W12
	.byte		N44   , Dn4 
	.byte		N44   , Fn4 
	.byte	W42
	.byte	W01
@ 121   ----------------------------------------
	.byte	PATT
	 .word	Voyage_of_380000_km_3_113
@ 122   ----------------------------------------
	.byte	PATT
	 .word	Voyage_of_380000_km_3_114
@ 123   ----------------------------------------
Voyage_of_380000_km_3_123:
	.byte	W52
	.byte	W01
	.byte		N68   , As3 , v080
	.byte		N68   , Dn4 
	.byte	W42
	.byte	W01
	.byte	PEND
@ 124   ----------------------------------------
Voyage_of_380000_km_3_124:
	.byte	W28
	.byte	W01
	.byte		N23   , Cn4 , v080
	.byte		N23   , En4 
	.byte	W24
	.byte		N44   , Dn4 
	.byte		N44   , Fn4 
	.byte	W42
	.byte	W01
	.byte	PEND
@ 125   ----------------------------------------
Voyage_of_380000_km_3_125:
	.byte	W17
	.byte		N11   , Fn3 , v080
	.byte		N11   , An3 
	.byte	W12
	.byte		N11   
	.byte		N11   , Dn4 
	.byte	W12
	.byte		N11   
	.byte		N11   , Fn4 
	.byte	W12
	.byte		N32   , Gn4 
	.byte		N32   , Cn5 
	.byte	W36
	.byte		        An4 
	.byte		N32   , Dn5 
	.byte	W07
	.byte	PEND
@ 126   ----------------------------------------
Voyage_of_380000_km_3_126:
	.byte	W28
	.byte	W01
	.byte		N23   , Cn5 , v080
	.byte		N23   , En5 
	.byte	W24
	.byte		TIE   , Cn5 
	.byte		TIE   , Fn5 
	.byte	W42
	.byte	W01
	.byte	PEND
@ 127   ----------------------------------------
	.byte	W96
@ 128   ----------------------------------------
	.byte	W04
	.byte		EOT   , Cn5 
	.byte		        Fn5 
	.byte	W01
	.byte		N23   , Dn4 
	.byte		N23   , Fn4 
	.byte	W24
	.byte		        Ds4 
	.byte		N23   , Gn4 
	.byte	W24
	.byte		N44   , Fn4 
	.byte		N56   , Gs4 
	.byte		N56   , Cn5 
	.byte		N44   , Fn5 
	.byte	W42
	.byte	W01
@ 129   ----------------------------------------
Voyage_of_380000_km_3_129:
	.byte	W17
	.byte		N11   , Gs3 , v080
	.byte		N11   , Cn4 
	.byte	W12
	.byte		N11   
	.byte		N11   , Fn4 
	.byte	W12
	.byte		        Ds4 
	.byte		N11   , Gs4 
	.byte	W12
	.byte		N23   , Gn4 
	.byte		N23   , As4 
	.byte	W24
	.byte		        Gs4 
	.byte		N23   , Cn5 
	.byte	W19
	.byte	PEND
@ 130   ----------------------------------------
Voyage_of_380000_km_3_130:
	.byte	W05
	.byte		N11   , Ds4 , v080
	.byte		N11   , Gn4 
	.byte	W12
	.byte		        Cn4 
	.byte		N11   , Fn4 
	.byte	W12
	.byte		N23   , As3 
	.byte		N23   , Ds4 
	.byte	W24
	.byte		TIE   , Cs4 
	.byte		TIE   , Fn4 
	.byte	W42
	.byte	W01
	.byte	PEND
@ 131   ----------------------------------------
	.byte	W96
@ 132   ----------------------------------------
	.byte	W28
	.byte		EOT   , Cs4 
	.byte		        Fn4 
	.byte	W01
	.byte		N11   , As4 
	.byte	W12
	.byte		        Cn5 
	.byte	W12
	.byte		N44   , Fn4 
	.byte		N56   , Gs4 
	.byte		N56   , Cn5 
	.byte		N44   , Fn5 
	.byte	W42
	.byte	W01
@ 133   ----------------------------------------
	.byte	PATT
	 .word	Voyage_of_380000_km_3_129
@ 134   ----------------------------------------
Voyage_of_380000_km_3_134:
	.byte	W05
	.byte		N11   , Gn4 , v080
	.byte	W12
	.byte		        Cn5 
	.byte	W12
	.byte		        Ds5 
	.byte	W12
	.byte		        Fn5 
	.byte	W12
	.byte		N68   , Gs4 
	.byte		N68   , Cn5 
	.byte	W42
	.byte	W01
	.byte	PEND
@ 135   ----------------------------------------
Voyage_of_380000_km_3_135:
	.byte	W28
	.byte	W01
	.byte		N23   , Cn5 , v080
	.byte		N23   , Fn5 
	.byte	W24
	.byte		N32   , Gs4 
	.byte		N32   , Cn5 
	.byte	W36
	.byte		N23   , Fn4 
	.byte		N23   , As4 
	.byte	W07
	.byte	PEND
@ 136   ----------------------------------------
Voyage_of_380000_km_3_136:
	.byte	W17
	.byte		N11   , Gn3 , v080
	.byte		N11   , Cn4 
	.byte	W12
	.byte		N11   
	.byte		N11   , Fn4 
	.byte	W12
	.byte		        Ds4 
	.byte		N11   , Gn4 
	.byte	W12
	.byte		N44   , Fn4 
	.byte		N56   , Gs4 
	.byte		N56   , Cn5 
	.byte		N44   , Fn5 
	.byte	W42
	.byte	W01
	.byte	PEND
@ 137   ----------------------------------------
	.byte	PATT
	 .word	Voyage_of_380000_km_3_129
@ 138   ----------------------------------------
Voyage_of_380000_km_3_138:
	.byte	W05
	.byte		N11   , Ds4 , v080
	.byte		N11   , Gn4 
	.byte	W12
	.byte		        Cn4 
	.byte		N11   , Fn4 
	.byte	W12
	.byte		N23   , As3 
	.byte		N23   , Ds4 
	.byte	W24
	.byte		N68   , Cs4 
	.byte		N68   , Fn4 
	.byte	W42
	.byte	W01
	.byte	PEND
@ 139   ----------------------------------------
Voyage_of_380000_km_3_139:
	.byte	W28
	.byte	W01
	.byte		N23   , Gs4 , v080
	.byte		N23   , Cn5 
	.byte	W24
	.byte		N56   
	.byte		N56   , Fn5 
	.byte	W42
	.byte	W01
	.byte	PEND
@ 140   ----------------------------------------
Voyage_of_380000_km_3_140:
	.byte	W17
	.byte		N11   , Cs4 , v080
	.byte		N11   , Fn4 
	.byte	W12
	.byte		        Ds4 
	.byte		N11   , Gs4 
	.byte	W12
	.byte		        Fn4 
	.byte		N11   , As4 
	.byte	W12
	.byte		N56   , Cn5 
	.byte		N56   , Fn5 
	.byte		N56   , Gs5 
	.byte	W42
	.byte	W01
	.byte	PEND
@ 141   ----------------------------------------
Voyage_of_380000_km_3_141:
	.byte	W17
	.byte		N11   , Cn4 , v080
	.byte		N11   , Fn4 
	.byte	W12
	.byte		N11   
	.byte		N11   , Gs4 
	.byte	W12
	.byte		N11   
	.byte		N11   , Cn5 
	.byte	W12
	.byte		N32   , As4 
	.byte		N32   , Ds5 
	.byte	W36
	.byte		        Cn5 
	.byte		N32   , Fn5 
	.byte	W07
	.byte	PEND
@ 142   ----------------------------------------
Voyage_of_380000_km_3_142:
	.byte	W28
	.byte	W01
	.byte		N23   , Ds5 , v080
	.byte		N23   , Gn5 
	.byte	W24
	.byte		        Ds5 
	.byte		N23   , Gs5 
	.byte	W24
	.byte		        Cn5 
	.byte		N23   , Fn5 
	.byte	W19
	.byte	PEND
@ 143   ----------------------------------------
Voyage_of_380000_km_3_143:
	.byte	W05
	.byte		N11   , Ds5 , v080
	.byte		N11   , Gn5 
	.byte	W12
	.byte		N23   
	.byte		N23   , Cn6 
	.byte	W24
	.byte		N80   , Cn5 
	.byte		N80   , Fn5 
	.byte	W54
	.byte	W01
	.byte	PEND
@ 144   ----------------------------------------
	.byte	W96
@ 145   ----------------------------------------
	.byte	W96
@ 146   ----------------------------------------
	.byte	W96
@ 147   ----------------------------------------
	.byte	W96
@ 148   ----------------------------------------
	.byte	W96
@ 149   ----------------------------------------
	.byte	W96
@ 150   ----------------------------------------
	.byte	W96
@ 151   ----------------------------------------
	.byte	W96
@ 152   ----------------------------------------
	.byte	W96
@ 153   ----------------------------------------
	.byte	W96
@ 154   ----------------------------------------
	.byte	W96
@ 155   ----------------------------------------
	.byte	W96
@ 156   ----------------------------------------
	.byte	W96
@ 157   ----------------------------------------
	.byte	W96
@ 158   ----------------------------------------
	.byte	W96
@ 159   ----------------------------------------
	.byte	W96
@ 160   ----------------------------------------
	.byte	PATT
	 .word	Voyage_of_380000_km_3_016
@ 161   ----------------------------------------
	.byte	PATT
	 .word	Voyage_of_380000_km_3_017
@ 162   ----------------------------------------
	.byte	PATT
	 .word	Voyage_of_380000_km_3_018
@ 163   ----------------------------------------
	.byte	PATT
	 .word	Voyage_of_380000_km_3_019
@ 164   ----------------------------------------
	.byte	PATT
	 .word	Voyage_of_380000_km_3_020
@ 165   ----------------------------------------
	.byte	PATT
	 .word	Voyage_of_380000_km_3_021
@ 166   ----------------------------------------
	.byte	PATT
	 .word	Voyage_of_380000_km_3_022
@ 167   ----------------------------------------
	.byte	PATT
	 .word	Voyage_of_380000_km_3_023
@ 168   ----------------------------------------
	.byte	PATT
	 .word	Voyage_of_380000_km_3_024
@ 169   ----------------------------------------
	.byte	PATT
	 .word	Voyage_of_380000_km_3_017
@ 170   ----------------------------------------
	.byte	PATT
	 .word	Voyage_of_380000_km_3_018
@ 171   ----------------------------------------
	.byte	PATT
	 .word	Voyage_of_380000_km_3_027
@ 172   ----------------------------------------
	.byte	PATT
	 .word	Voyage_of_380000_km_3_020
@ 173   ----------------------------------------
	.byte	PATT
	 .word	Voyage_of_380000_km_3_021
@ 174   ----------------------------------------
	.byte	PATT
	 .word	Voyage_of_380000_km_3_022
@ 175   ----------------------------------------
	.byte	PATT
	 .word	Voyage_of_380000_km_3_023
@ 176   ----------------------------------------
	.byte	PATT
	 .word	Voyage_of_380000_km_3_032
@ 177   ----------------------------------------
	.byte	PATT
	 .word	Voyage_of_380000_km_3_033
@ 178   ----------------------------------------
	.byte	PATT
	 .word	Voyage_of_380000_km_3_034
@ 179   ----------------------------------------
	.byte	PATT
	 .word	Voyage_of_380000_km_3_035
@ 180   ----------------------------------------
	.byte	PATT
	 .word	Voyage_of_380000_km_3_032
@ 181   ----------------------------------------
	.byte	PATT
	 .word	Voyage_of_380000_km_3_033
@ 182   ----------------------------------------
	.byte	PATT
	 .word	Voyage_of_380000_km_3_038
@ 183   ----------------------------------------
	.byte	W96
@ 184   ----------------------------------------
	.byte	PATT
	 .word	Voyage_of_380000_km_3_032
@ 185   ----------------------------------------
	.byte	PATT
	 .word	Voyage_of_380000_km_3_033
@ 186   ----------------------------------------
	.byte	PATT
	 .word	Voyage_of_380000_km_3_034
@ 187   ----------------------------------------
	.byte	PATT
	 .word	Voyage_of_380000_km_3_035
@ 188   ----------------------------------------
	.byte	PATT
	 .word	Voyage_of_380000_km_3_032
@ 189   ----------------------------------------
	.byte	PATT
	 .word	Voyage_of_380000_km_3_033
@ 190   ----------------------------------------
	.byte	PATT
	 .word	Voyage_of_380000_km_3_046
@ 191   ----------------------------------------
	.byte	W52
	.byte		EOT   , Fn4 
	.byte	W01
	.byte		N44   , En4 , v080
	.byte	W42
	.byte	W01
@ 192   ----------------------------------------
	.byte	W96
@ 193   ----------------------------------------
	.byte	W96
@ 194   ----------------------------------------
	.byte	W96
@ 195   ----------------------------------------
	.byte	W96
@ 196   ----------------------------------------
	.byte	W96
@ 197   ----------------------------------------
	.byte	W96
@ 198   ----------------------------------------
	.byte	W96
@ 199   ----------------------------------------
	.byte	W96
@ 200   ----------------------------------------
	.byte	W96
@ 201   ----------------------------------------
	.byte	W96
@ 202   ----------------------------------------
	.byte	W96
@ 203   ----------------------------------------
	.byte	W96
@ 204   ----------------------------------------
	.byte	W96
@ 205   ----------------------------------------
	.byte	W96
@ 206   ----------------------------------------
	.byte	W96
@ 207   ----------------------------------------
	.byte	W96
@ 208   ----------------------------------------
	.byte	W96
@ 209   ----------------------------------------
	.byte	W96
@ 210   ----------------------------------------
	.byte	W96
@ 211   ----------------------------------------
	.byte	W96
@ 212   ----------------------------------------
	.byte	W96
@ 213   ----------------------------------------
	.byte	W96
@ 214   ----------------------------------------
	.byte	W96
@ 215   ----------------------------------------
	.byte	W96
@ 216   ----------------------------------------
	.byte	W96
@ 217   ----------------------------------------
	.byte	W96
@ 218   ----------------------------------------
	.byte	W96
@ 219   ----------------------------------------
	.byte	W96
@ 220   ----------------------------------------
	.byte	W96
@ 221   ----------------------------------------
	.byte	W96
@ 222   ----------------------------------------
	.byte	W96
@ 223   ----------------------------------------
	.byte	W96
@ 224   ----------------------------------------
	.byte	PATT
	 .word	Voyage_of_380000_km_3_080
@ 225   ----------------------------------------
	.byte	PATT
	 .word	Voyage_of_380000_km_3_081
@ 226   ----------------------------------------
	.byte	PATT
	 .word	Voyage_of_380000_km_3_082
@ 227   ----------------------------------------
	.byte	PATT
	 .word	Voyage_of_380000_km_3_083
@ 228   ----------------------------------------
	.byte	PATT
	 .word	Voyage_of_380000_km_3_084
@ 229   ----------------------------------------
	.byte	PATT
	 .word	Voyage_of_380000_km_3_085
@ 230   ----------------------------------------
	.byte	PATT
	 .word	Voyage_of_380000_km_3_086
@ 231   ----------------------------------------
	.byte	PATT
	 .word	Voyage_of_380000_km_3_087
@ 232   ----------------------------------------
	.byte	PATT
	 .word	Voyage_of_380000_km_3_088
@ 233   ----------------------------------------
	.byte	PATT
	 .word	Voyage_of_380000_km_3_081
@ 234   ----------------------------------------
	.byte	PATT
	 .word	Voyage_of_380000_km_3_082
@ 235   ----------------------------------------
	.byte	PATT
	 .word	Voyage_of_380000_km_3_091
@ 236   ----------------------------------------
	.byte	PATT
	 .word	Voyage_of_380000_km_3_084
@ 237   ----------------------------------------
	.byte	PATT
	 .word	Voyage_of_380000_km_3_085
@ 238   ----------------------------------------
	.byte	PATT
	 .word	Voyage_of_380000_km_3_086
@ 239   ----------------------------------------
	.byte	PATT
	 .word	Voyage_of_380000_km_3_087
@ 240   ----------------------------------------
	.byte	W96
@ 241   ----------------------------------------
	.byte	W96
@ 242   ----------------------------------------
	.byte	W96
@ 243   ----------------------------------------
	.byte	W96
@ 244   ----------------------------------------
	.byte	W96
@ 245   ----------------------------------------
	.byte	W96
@ 246   ----------------------------------------
	.byte	W96
@ 247   ----------------------------------------
	.byte	W96
@ 248   ----------------------------------------
	.byte	W96
@ 249   ----------------------------------------
	.byte	W96
@ 250   ----------------------------------------
	.byte	W96
@ 251   ----------------------------------------
	.byte	W96
@ 252   ----------------------------------------
	.byte	W96
@ 253   ----------------------------------------
	.byte	W96
@ 254   ----------------------------------------
	.byte	W96
@ 255   ----------------------------------------
	.byte	W96
@ 256   ----------------------------------------
	.byte	PATT
	 .word	Voyage_of_380000_km_3_112
@ 257   ----------------------------------------
	.byte	PATT
	 .word	Voyage_of_380000_km_3_113
@ 258   ----------------------------------------
	.byte	PATT
	 .word	Voyage_of_380000_km_3_114
@ 259   ----------------------------------------
	.byte	PATT
	 .word	Voyage_of_380000_km_3_115
@ 260   ----------------------------------------
	.byte	PATT
	 .word	Voyage_of_380000_km_3_116
@ 261   ----------------------------------------
	.byte	PATT
	 .word	Voyage_of_380000_km_3_117
@ 262   ----------------------------------------
	.byte	PATT
	 .word	Voyage_of_380000_km_3_118
@ 263   ----------------------------------------
	.byte	W96
@ 264   ----------------------------------------
	.byte	W04
	.byte		EOT   , Fn4 
	.byte		        An4 
	.byte	W13
	.byte		N11   , En3 , v080
	.byte		N11   , An3 
	.byte	W12
	.byte		N11   
	.byte		N11   , Dn4 
	.byte	W12
	.byte		        Cn4 
	.byte		N11   , En4 
	.byte	W12
	.byte		N44   , Dn4 
	.byte		N44   , Fn4 
	.byte	W42
	.byte	W01
@ 265   ----------------------------------------
	.byte	PATT
	 .word	Voyage_of_380000_km_3_113
@ 266   ----------------------------------------
	.byte	PATT
	 .word	Voyage_of_380000_km_3_114
@ 267   ----------------------------------------
	.byte	PATT
	 .word	Voyage_of_380000_km_3_123
@ 268   ----------------------------------------
	.byte	PATT
	 .word	Voyage_of_380000_km_3_124
@ 269   ----------------------------------------
	.byte	PATT
	 .word	Voyage_of_380000_km_3_125
@ 270   ----------------------------------------
	.byte	PATT
	 .word	Voyage_of_380000_km_3_126
@ 271   ----------------------------------------
	.byte	W96
@ 272   ----------------------------------------
	.byte	W04
	.byte		EOT   , Cn5 
	.byte		        Fn5 
	.byte	W01
	.byte		N23   , Dn4 , v080
	.byte		N23   , Fn4 
	.byte	W24
	.byte		        Ds4 
	.byte		N23   , Gn4 
	.byte	W24
	.byte		N44   , Fn4 
	.byte		N56   , Gs4 
	.byte		N56   , Cn5 
	.byte		N44   , Fn5 
	.byte	W42
	.byte	W01
@ 273   ----------------------------------------
	.byte	PATT
	 .word	Voyage_of_380000_km_3_129
@ 274   ----------------------------------------
	.byte	PATT
	 .word	Voyage_of_380000_km_3_130
@ 275   ----------------------------------------
	.byte	W96
@ 276   ----------------------------------------
	.byte	W28
	.byte		EOT   , Cs4 
	.byte		        Fn4 
	.byte	W01
	.byte		N11   , As4 , v080
	.byte	W12
	.byte		        Cn5 
	.byte	W12
	.byte		N44   , Fn4 
	.byte		N56   , Gs4 
	.byte		N56   , Cn5 
	.byte		N44   , Fn5 
	.byte	W42
	.byte	W01
@ 277   ----------------------------------------
	.byte	PATT
	 .word	Voyage_of_380000_km_3_129
@ 278   ----------------------------------------
	.byte	PATT
	 .word	Voyage_of_380000_km_3_134
@ 279   ----------------------------------------
	.byte	PATT
	 .word	Voyage_of_380000_km_3_135
@ 280   ----------------------------------------
	.byte	PATT
	 .word	Voyage_of_380000_km_3_136
@ 281   ----------------------------------------
	.byte	PATT
	 .word	Voyage_of_380000_km_3_129
@ 282   ----------------------------------------
	.byte	PATT
	 .word	Voyage_of_380000_km_3_138
@ 283   ----------------------------------------
	.byte	PATT
	 .word	Voyage_of_380000_km_3_139
@ 284   ----------------------------------------
	.byte	PATT
	 .word	Voyage_of_380000_km_3_140
@ 285   ----------------------------------------
	.byte	PATT
	 .word	Voyage_of_380000_km_3_141
@ 286   ----------------------------------------
	.byte	PATT
	 .word	Voyage_of_380000_km_3_142
@ 287   ----------------------------------------
	.byte	PATT
	 .word	Voyage_of_380000_km_3_143
@ 288   ----------------------------------------
	.byte	W76
	.byte	W01
	.byte	GOTO
	 .word	Voyage_of_380000_km_3_B1
Voyage_of_380000_km_3_B2:
	.byte	FINE

@**************** Track 4 (Midi-Chn.4) ****************@

Voyage_of_380000_km_4:
	.byte	KEYSH , Voyage_of_380000_km_key+0
Voyage_of_380000_km_4_B1:
@ 000   ----------------------------------------
	.byte		VOICE , 85
	.byte		PAN   , c_v+0
	.byte		VOL   , 120*Voyage_of_380000_km_mvl/mxv
	.byte	W52
	.byte	W01
	.byte		N44   , Fn3 , v080
	.byte	W42
	.byte	W01
@ 001   ----------------------------------------
Voyage_of_380000_km_4_001:
	.byte	W05
	.byte		N44   , Cn3 , v080
	.byte	W48
	.byte		        As2 
	.byte	W42
	.byte	W01
	.byte	PEND
@ 002   ----------------------------------------
Voyage_of_380000_km_4_002:
	.byte	W05
	.byte		N23   , Gs2 , v080
	.byte	W24
	.byte		        Gn2 
	.byte	W24
	.byte		N68   , Fn2 
	.byte	W42
	.byte	W01
	.byte	PEND
@ 003   ----------------------------------------
Voyage_of_380000_km_4_003:
	.byte	W28
	.byte	W01
	.byte		N23   , Fn3 , v080
	.byte	W24
	.byte		N68   , Cn3 
	.byte	W42
	.byte	W01
	.byte	PEND
@ 004   ----------------------------------------
Voyage_of_380000_km_4_004:
	.byte	W28
	.byte	W01
	.byte		N11   , As2 , v080
	.byte	W12
	.byte		        Cn3 
	.byte	W12
	.byte		N44   , Fn3 
	.byte	W42
	.byte	W01
	.byte	PEND
@ 005   ----------------------------------------
	.byte	PATT
	 .word	Voyage_of_380000_km_4_001
@ 006   ----------------------------------------
	.byte	PATT
	 .word	Voyage_of_380000_km_4_002
@ 007   ----------------------------------------
Voyage_of_380000_km_4_007:
	.byte	W28
	.byte	W01
	.byte		N23   , Fn3 , v080
	.byte	W24
	.byte		N32   , Cn3 
	.byte	W36
	.byte		        As2 
	.byte	W07
	.byte	PEND
@ 008   ----------------------------------------
Voyage_of_380000_km_4_008:
	.byte	W28
	.byte	W01
	.byte		N23   , En3 , v080
	.byte	W24
	.byte		N44   , Fn3 
	.byte	W42
	.byte	W01
	.byte	PEND
@ 009   ----------------------------------------
	.byte	PATT
	 .word	Voyage_of_380000_km_4_001
@ 010   ----------------------------------------
	.byte	PATT
	 .word	Voyage_of_380000_km_4_002
@ 011   ----------------------------------------
	.byte	PATT
	 .word	Voyage_of_380000_km_4_003
@ 012   ----------------------------------------
	.byte	PATT
	 .word	Voyage_of_380000_km_4_004
@ 013   ----------------------------------------
	.byte	PATT
	 .word	Voyage_of_380000_km_4_001
@ 014   ----------------------------------------
	.byte	PATT
	 .word	Voyage_of_380000_km_4_002
@ 015   ----------------------------------------
Voyage_of_380000_km_4_015:
	.byte	W28
	.byte	W01
	.byte		N23   , Fn3 , v080
	.byte	W24
	.byte		        En3 
	.byte	W24
	.byte		N23   
	.byte	W19
	.byte	PEND
@ 016   ----------------------------------------
Voyage_of_380000_km_4_016:
	.byte	W05
	.byte		N23   , Fn3 , v080
	.byte	W24
	.byte		        Gn3 
	.byte	W66
	.byte	W01
	.byte	PEND
@ 017   ----------------------------------------
	.byte	W96
@ 018   ----------------------------------------
	.byte	W96
@ 019   ----------------------------------------
	.byte	W96
@ 020   ----------------------------------------
	.byte	W96
@ 021   ----------------------------------------
	.byte	W96
@ 022   ----------------------------------------
	.byte	W96
@ 023   ----------------------------------------
	.byte	W96
@ 024   ----------------------------------------
	.byte	W96
@ 025   ----------------------------------------
	.byte	W96
@ 026   ----------------------------------------
	.byte	W96
@ 027   ----------------------------------------
	.byte	W96
@ 028   ----------------------------------------
	.byte	W96
@ 029   ----------------------------------------
	.byte	W96
@ 030   ----------------------------------------
	.byte	W96
@ 031   ----------------------------------------
	.byte	W96
@ 032   ----------------------------------------
	.byte	W96
@ 033   ----------------------------------------
	.byte	W96
@ 034   ----------------------------------------
	.byte	W96
@ 035   ----------------------------------------
	.byte	W96
@ 036   ----------------------------------------
	.byte	W96
@ 037   ----------------------------------------
	.byte	W96
@ 038   ----------------------------------------
	.byte	W96
@ 039   ----------------------------------------
	.byte	W96
@ 040   ----------------------------------------
	.byte	W96
@ 041   ----------------------------------------
	.byte	W96
@ 042   ----------------------------------------
	.byte	W96
@ 043   ----------------------------------------
	.byte	W96
@ 044   ----------------------------------------
	.byte	W96
@ 045   ----------------------------------------
	.byte	W96
@ 046   ----------------------------------------
	.byte	W96
@ 047   ----------------------------------------
	.byte	W96
@ 048   ----------------------------------------
Voyage_of_380000_km_4_048:
	.byte	W28
	.byte	W01
	.byte		N11   , Cn3 , v080
	.byte	W12
	.byte		N11   
	.byte	W12
	.byte		N17   , Fn3 
	.byte	W18
	.byte		N17   
	.byte	W18
	.byte		N11   
	.byte	W07
	.byte	PEND
@ 049   ----------------------------------------
Voyage_of_380000_km_4_049:
	.byte	W05
	.byte		N17   , Fn3 , v080
	.byte	W18
	.byte		        Gn3 
	.byte	W18
	.byte		N11   , Gs3 
	.byte	W12
	.byte		N17   , As3 
	.byte	W18
	.byte		        Cn4 
	.byte	W18
	.byte		N11   , Fn3 
	.byte	W07
	.byte	PEND
@ 050   ----------------------------------------
Voyage_of_380000_km_4_050:
	.byte	W05
	.byte		N44   , Fn3 , v080
	.byte	W48
	.byte		N17   
	.byte	W18
	.byte		        Gn3 
	.byte	W18
	.byte		N11   , An3 
	.byte	W07
	.byte	PEND
@ 051   ----------------------------------------
Voyage_of_380000_km_4_051:
	.byte	W05
	.byte		N17   , Gn3 , v080
	.byte	W18
	.byte		        Fn3 
	.byte	W18
	.byte		N11   , En3 
	.byte	W12
	.byte		N44   , An2 
	.byte	W42
	.byte	W01
	.byte	PEND
@ 052   ----------------------------------------
Voyage_of_380000_km_4_052:
	.byte	W05
	.byte		N44   , Dn3 , v080
	.byte	W48
	.byte		N17   , Fn3 
	.byte	W18
	.byte		N17   
	.byte	W18
	.byte		N11   
	.byte	W07
	.byte	PEND
@ 053   ----------------------------------------
Voyage_of_380000_km_4_053:
	.byte	W05
	.byte		N17   , Fn3 , v080
	.byte	W18
	.byte		        Gn3 
	.byte	W18
	.byte		N11   , An3 
	.byte	W12
	.byte		N17   , Gn3 
	.byte	W18
	.byte		        Fn3 
	.byte	W18
	.byte		N11   , En3 
	.byte	W07
	.byte	PEND
@ 054   ----------------------------------------
Voyage_of_380000_km_4_054:
	.byte	W05
	.byte		N17   , An2 , v080
	.byte	W18
	.byte		        Cn3 
	.byte	W18
	.byte		N11   , Cs3 
	.byte	W12
	.byte		N92   , Dn3 
	.byte	W42
	.byte	W01
	.byte	PEND
@ 055   ----------------------------------------
Voyage_of_380000_km_4_055:
	.byte	W64
	.byte	W01
	.byte		N11   , An2 , v080
	.byte	W12
	.byte		        Cn3 
	.byte	W12
	.byte		        Dn3 
	.byte	W07
	.byte	PEND
@ 056   ----------------------------------------
Voyage_of_380000_km_4_056:
	.byte	W05
	.byte		N11   , Gn2 , v080
	.byte	W12
	.byte		        An2 
	.byte	W12
	.byte		N23   , Fn2 
	.byte	W24
	.byte		N17   , Dn3 
	.byte	W18
	.byte		N17   
	.byte	W18
	.byte		N11   
	.byte	W07
	.byte	PEND
@ 057   ----------------------------------------
Voyage_of_380000_km_4_057:
	.byte	W05
	.byte		N17   , Dn3 , v080
	.byte	W18
	.byte		        En3 
	.byte	W18
	.byte		N11   , Fn3 
	.byte	W12
	.byte		N17   , Gn3 
	.byte	W18
	.byte		        An3 
	.byte	W18
	.byte		N11   , Cn4 
	.byte	W07
	.byte	PEND
@ 058   ----------------------------------------
Voyage_of_380000_km_4_058:
	.byte	W05
	.byte		N44   , Dn4 , v080
	.byte	W48
	.byte		N17   
	.byte	W18
	.byte		        An3 
	.byte	W18
	.byte		N11   , Fn4 
	.byte	W07
	.byte	PEND
@ 059   ----------------------------------------
Voyage_of_380000_km_4_059:
	.byte	W05
	.byte		N17   , En4 , v080
	.byte	W18
	.byte		        Dn4 
	.byte	W18
	.byte		N11   , Cn4 
	.byte	W12
	.byte		N44   , An3 
	.byte	W42
	.byte	W01
	.byte	PEND
@ 060   ----------------------------------------
	.byte	PATT
	 .word	Voyage_of_380000_km_4_058
@ 061   ----------------------------------------
Voyage_of_380000_km_4_061:
	.byte	W05
	.byte		N17   , En4 , v080
	.byte	W18
	.byte		        Dn4 
	.byte	W18
	.byte		N11   , Cn4 
	.byte	W12
	.byte		N17   , Gn3 
	.byte	W18
	.byte		        Fn3 
	.byte	W18
	.byte		N11   , En3 
	.byte	W07
	.byte	PEND
@ 062   ----------------------------------------
Voyage_of_380000_km_4_062:
	.byte	W05
	.byte		N17   , An3 , v080
	.byte	W18
	.byte		        Cn4 
	.byte	W18
	.byte		N11   , Cs4 
	.byte	W12
	.byte		N92   , Dn4 
	.byte	W42
	.byte	W01
	.byte	PEND
@ 063   ----------------------------------------
	.byte	W96
@ 064   ----------------------------------------
Voyage_of_380000_km_4_064:
	.byte	W52
	.byte	W01
	.byte		N44   , Dn3 , v080
	.byte	W42
	.byte	W01
	.byte	PEND
@ 065   ----------------------------------------
Voyage_of_380000_km_4_065:
	.byte	W05
	.byte		N44   , An2 , v080
	.byte	W48
	.byte		        Gn2 
	.byte	W42
	.byte	W01
	.byte	PEND
@ 066   ----------------------------------------
Voyage_of_380000_km_4_066:
	.byte	W05
	.byte		N23   , Fn2 , v080
	.byte	W24
	.byte		        En2 
	.byte	W24
	.byte		N68   , Dn2 
	.byte	W42
	.byte	W01
	.byte	PEND
@ 067   ----------------------------------------
Voyage_of_380000_km_4_067:
	.byte	W28
	.byte	W01
	.byte		N23   , Dn3 , v080
	.byte	W24
	.byte		N68   , An2 
	.byte	W42
	.byte	W01
	.byte	PEND
@ 068   ----------------------------------------
Voyage_of_380000_km_4_068:
	.byte	W28
	.byte	W01
	.byte		N11   , Gn2 , v080
	.byte	W12
	.byte		        An2 
	.byte	W12
	.byte		N44   , Dn3 
	.byte	W42
	.byte	W01
	.byte	PEND
@ 069   ----------------------------------------
	.byte	PATT
	 .word	Voyage_of_380000_km_4_065
@ 070   ----------------------------------------
	.byte	PATT
	 .word	Voyage_of_380000_km_4_066
@ 071   ----------------------------------------
Voyage_of_380000_km_4_071:
	.byte	W28
	.byte	W01
	.byte		N23   , Dn3 , v080
	.byte	W24
	.byte		N32   , An2 
	.byte	W36
	.byte		        Gn2 
	.byte	W07
	.byte	PEND
@ 072   ----------------------------------------
Voyage_of_380000_km_4_072:
	.byte	W28
	.byte	W01
	.byte		N23   , Cs3 , v080
	.byte	W24
	.byte		N44   , Dn3 
	.byte	W42
	.byte	W01
	.byte	PEND
@ 073   ----------------------------------------
	.byte	PATT
	 .word	Voyage_of_380000_km_4_065
@ 074   ----------------------------------------
	.byte	PATT
	 .word	Voyage_of_380000_km_4_066
@ 075   ----------------------------------------
	.byte	PATT
	 .word	Voyage_of_380000_km_4_067
@ 076   ----------------------------------------
	.byte	PATT
	 .word	Voyage_of_380000_km_4_068
@ 077   ----------------------------------------
	.byte	PATT
	 .word	Voyage_of_380000_km_4_065
@ 078   ----------------------------------------
	.byte	PATT
	 .word	Voyage_of_380000_km_4_066
@ 079   ----------------------------------------
Voyage_of_380000_km_4_079:
	.byte	W28
	.byte	W01
	.byte		N23   , Dn3 , v080
	.byte	W24
	.byte		        Cs3 
	.byte	W24
	.byte		N23   
	.byte	W19
	.byte	PEND
@ 080   ----------------------------------------
Voyage_of_380000_km_4_080:
	.byte	W05
	.byte		N23   , Dn3 , v080
	.byte	W24
	.byte		        En3 
	.byte	W66
	.byte	W01
	.byte	PEND
@ 081   ----------------------------------------
	.byte	W96
@ 082   ----------------------------------------
	.byte	W96
@ 083   ----------------------------------------
	.byte	W96
@ 084   ----------------------------------------
	.byte	W96
@ 085   ----------------------------------------
	.byte	W96
@ 086   ----------------------------------------
	.byte	W96
@ 087   ----------------------------------------
	.byte	W96
@ 088   ----------------------------------------
	.byte	W96
@ 089   ----------------------------------------
	.byte	W96
@ 090   ----------------------------------------
	.byte	W96
@ 091   ----------------------------------------
	.byte	W96
@ 092   ----------------------------------------
	.byte	W96
@ 093   ----------------------------------------
	.byte	W96
@ 094   ----------------------------------------
	.byte	W96
@ 095   ----------------------------------------
	.byte	W96
@ 096   ----------------------------------------
	.byte	PATT
	 .word	Voyage_of_380000_km_4_048
@ 097   ----------------------------------------
	.byte	PATT
	 .word	Voyage_of_380000_km_4_049
@ 098   ----------------------------------------
	.byte	PATT
	 .word	Voyage_of_380000_km_4_050
@ 099   ----------------------------------------
	.byte	PATT
	 .word	Voyage_of_380000_km_4_051
@ 100   ----------------------------------------
	.byte	PATT
	 .word	Voyage_of_380000_km_4_052
@ 101   ----------------------------------------
	.byte	PATT
	 .word	Voyage_of_380000_km_4_053
@ 102   ----------------------------------------
	.byte	PATT
	 .word	Voyage_of_380000_km_4_054
@ 103   ----------------------------------------
	.byte	PATT
	 .word	Voyage_of_380000_km_4_055
@ 104   ----------------------------------------
	.byte	PATT
	 .word	Voyage_of_380000_km_4_056
@ 105   ----------------------------------------
	.byte	PATT
	 .word	Voyage_of_380000_km_4_057
@ 106   ----------------------------------------
	.byte	PATT
	 .word	Voyage_of_380000_km_4_058
@ 107   ----------------------------------------
	.byte	PATT
	 .word	Voyage_of_380000_km_4_059
@ 108   ----------------------------------------
	.byte	PATT
	 .word	Voyage_of_380000_km_4_058
@ 109   ----------------------------------------
	.byte	PATT
	 .word	Voyage_of_380000_km_4_061
@ 110   ----------------------------------------
	.byte	PATT
	 .word	Voyage_of_380000_km_4_062
@ 111   ----------------------------------------
	.byte	W96
@ 112   ----------------------------------------
	.byte	W96
@ 113   ----------------------------------------
	.byte	W96
@ 114   ----------------------------------------
	.byte	W96
@ 115   ----------------------------------------
	.byte	W96
@ 116   ----------------------------------------
	.byte	W96
@ 117   ----------------------------------------
	.byte	W96
@ 118   ----------------------------------------
	.byte	W96
@ 119   ----------------------------------------
	.byte	W96
@ 120   ----------------------------------------
	.byte	W96
@ 121   ----------------------------------------
	.byte	W96
@ 122   ----------------------------------------
	.byte	W96
@ 123   ----------------------------------------
	.byte	W96
@ 124   ----------------------------------------
	.byte	W96
@ 125   ----------------------------------------
	.byte	W96
@ 126   ----------------------------------------
	.byte	W96
@ 127   ----------------------------------------
	.byte	W96
@ 128   ----------------------------------------
	.byte	W96
@ 129   ----------------------------------------
	.byte	W96
@ 130   ----------------------------------------
	.byte	W96
@ 131   ----------------------------------------
	.byte	W96
@ 132   ----------------------------------------
	.byte	W96
@ 133   ----------------------------------------
	.byte	W96
@ 134   ----------------------------------------
	.byte	W96
@ 135   ----------------------------------------
	.byte	W96
@ 136   ----------------------------------------
	.byte	W96
@ 137   ----------------------------------------
	.byte	W96
@ 138   ----------------------------------------
	.byte	W96
@ 139   ----------------------------------------
	.byte	W96
@ 140   ----------------------------------------
	.byte	W96
@ 141   ----------------------------------------
	.byte	W96
@ 142   ----------------------------------------
	.byte	W96
@ 143   ----------------------------------------
	.byte	W96
@ 144   ----------------------------------------
	.byte	W52
	.byte	W01
	.byte		N44   , Fn3 , v080
	.byte	W42
	.byte	W01
@ 145   ----------------------------------------
	.byte	PATT
	 .word	Voyage_of_380000_km_4_001
@ 146   ----------------------------------------
	.byte	PATT
	 .word	Voyage_of_380000_km_4_002
@ 147   ----------------------------------------
	.byte	PATT
	 .word	Voyage_of_380000_km_4_003
@ 148   ----------------------------------------
	.byte	PATT
	 .word	Voyage_of_380000_km_4_004
@ 149   ----------------------------------------
	.byte	PATT
	 .word	Voyage_of_380000_km_4_001
@ 150   ----------------------------------------
	.byte	PATT
	 .word	Voyage_of_380000_km_4_002
@ 151   ----------------------------------------
	.byte	PATT
	 .word	Voyage_of_380000_km_4_007
@ 152   ----------------------------------------
	.byte	PATT
	 .word	Voyage_of_380000_km_4_008
@ 153   ----------------------------------------
	.byte	PATT
	 .word	Voyage_of_380000_km_4_001
@ 154   ----------------------------------------
	.byte	PATT
	 .word	Voyage_of_380000_km_4_002
@ 155   ----------------------------------------
	.byte	PATT
	 .word	Voyage_of_380000_km_4_003
@ 156   ----------------------------------------
	.byte	PATT
	 .word	Voyage_of_380000_km_4_004
@ 157   ----------------------------------------
	.byte	PATT
	 .word	Voyage_of_380000_km_4_001
@ 158   ----------------------------------------
	.byte	PATT
	 .word	Voyage_of_380000_km_4_002
@ 159   ----------------------------------------
	.byte	PATT
	 .word	Voyage_of_380000_km_4_015
@ 160   ----------------------------------------
	.byte	PATT
	 .word	Voyage_of_380000_km_4_016
@ 161   ----------------------------------------
	.byte	W96
@ 162   ----------------------------------------
	.byte	W96
@ 163   ----------------------------------------
	.byte	W96
@ 164   ----------------------------------------
	.byte	W96
@ 165   ----------------------------------------
	.byte	W96
@ 166   ----------------------------------------
	.byte	W96
@ 167   ----------------------------------------
	.byte	W96
@ 168   ----------------------------------------
	.byte	W96
@ 169   ----------------------------------------
	.byte	W96
@ 170   ----------------------------------------
	.byte	W96
@ 171   ----------------------------------------
	.byte	W96
@ 172   ----------------------------------------
	.byte	W96
@ 173   ----------------------------------------
	.byte	W96
@ 174   ----------------------------------------
	.byte	W96
@ 175   ----------------------------------------
	.byte	W96
@ 176   ----------------------------------------
	.byte	W96
@ 177   ----------------------------------------
	.byte	W96
@ 178   ----------------------------------------
	.byte	W96
@ 179   ----------------------------------------
	.byte	W96
@ 180   ----------------------------------------
	.byte	W96
@ 181   ----------------------------------------
	.byte	W96
@ 182   ----------------------------------------
	.byte	W96
@ 183   ----------------------------------------
	.byte	W96
@ 184   ----------------------------------------
	.byte	W96
@ 185   ----------------------------------------
	.byte	W96
@ 186   ----------------------------------------
	.byte	W96
@ 187   ----------------------------------------
	.byte	W96
@ 188   ----------------------------------------
	.byte	W96
@ 189   ----------------------------------------
	.byte	W96
@ 190   ----------------------------------------
	.byte	W96
@ 191   ----------------------------------------
	.byte	W96
@ 192   ----------------------------------------
	.byte	PATT
	 .word	Voyage_of_380000_km_4_048
@ 193   ----------------------------------------
	.byte	PATT
	 .word	Voyage_of_380000_km_4_049
@ 194   ----------------------------------------
	.byte	PATT
	 .word	Voyage_of_380000_km_4_050
@ 195   ----------------------------------------
	.byte	PATT
	 .word	Voyage_of_380000_km_4_051
@ 196   ----------------------------------------
	.byte	PATT
	 .word	Voyage_of_380000_km_4_052
@ 197   ----------------------------------------
	.byte	PATT
	 .word	Voyage_of_380000_km_4_053
@ 198   ----------------------------------------
	.byte	PATT
	 .word	Voyage_of_380000_km_4_054
@ 199   ----------------------------------------
	.byte	PATT
	 .word	Voyage_of_380000_km_4_055
@ 200   ----------------------------------------
	.byte	PATT
	 .word	Voyage_of_380000_km_4_056
@ 201   ----------------------------------------
	.byte	PATT
	 .word	Voyage_of_380000_km_4_057
@ 202   ----------------------------------------
	.byte	PATT
	 .word	Voyage_of_380000_km_4_058
@ 203   ----------------------------------------
	.byte	PATT
	 .word	Voyage_of_380000_km_4_059
@ 204   ----------------------------------------
	.byte	PATT
	 .word	Voyage_of_380000_km_4_058
@ 205   ----------------------------------------
	.byte	PATT
	 .word	Voyage_of_380000_km_4_061
@ 206   ----------------------------------------
	.byte	PATT
	 .word	Voyage_of_380000_km_4_062
@ 207   ----------------------------------------
	.byte	W96
@ 208   ----------------------------------------
	.byte	PATT
	 .word	Voyage_of_380000_km_4_064
@ 209   ----------------------------------------
	.byte	PATT
	 .word	Voyage_of_380000_km_4_065
@ 210   ----------------------------------------
	.byte	PATT
	 .word	Voyage_of_380000_km_4_066
@ 211   ----------------------------------------
	.byte	PATT
	 .word	Voyage_of_380000_km_4_067
@ 212   ----------------------------------------
	.byte	PATT
	 .word	Voyage_of_380000_km_4_068
@ 213   ----------------------------------------
	.byte	PATT
	 .word	Voyage_of_380000_km_4_065
@ 214   ----------------------------------------
	.byte	PATT
	 .word	Voyage_of_380000_km_4_066
@ 215   ----------------------------------------
	.byte	PATT
	 .word	Voyage_of_380000_km_4_071
@ 216   ----------------------------------------
	.byte	PATT
	 .word	Voyage_of_380000_km_4_072
@ 217   ----------------------------------------
	.byte	PATT
	 .word	Voyage_of_380000_km_4_065
@ 218   ----------------------------------------
	.byte	PATT
	 .word	Voyage_of_380000_km_4_066
@ 219   ----------------------------------------
	.byte	PATT
	 .word	Voyage_of_380000_km_4_067
@ 220   ----------------------------------------
	.byte	PATT
	 .word	Voyage_of_380000_km_4_068
@ 221   ----------------------------------------
	.byte	PATT
	 .word	Voyage_of_380000_km_4_065
@ 222   ----------------------------------------
	.byte	PATT
	 .word	Voyage_of_380000_km_4_066
@ 223   ----------------------------------------
	.byte	PATT
	 .word	Voyage_of_380000_km_4_079
@ 224   ----------------------------------------
	.byte	PATT
	 .word	Voyage_of_380000_km_4_080
@ 225   ----------------------------------------
	.byte	W96
@ 226   ----------------------------------------
	.byte	W96
@ 227   ----------------------------------------
	.byte	W96
@ 228   ----------------------------------------
	.byte	W96
@ 229   ----------------------------------------
	.byte	W96
@ 230   ----------------------------------------
	.byte	W96
@ 231   ----------------------------------------
	.byte	W96
@ 232   ----------------------------------------
	.byte	W96
@ 233   ----------------------------------------
	.byte	W96
@ 234   ----------------------------------------
	.byte	W96
@ 235   ----------------------------------------
	.byte	W96
@ 236   ----------------------------------------
	.byte	W96
@ 237   ----------------------------------------
	.byte	W96
@ 238   ----------------------------------------
	.byte	W96
@ 239   ----------------------------------------
	.byte	W96
@ 240   ----------------------------------------
	.byte	PATT
	 .word	Voyage_of_380000_km_4_048
@ 241   ----------------------------------------
	.byte	PATT
	 .word	Voyage_of_380000_km_4_049
@ 242   ----------------------------------------
	.byte	PATT
	 .word	Voyage_of_380000_km_4_050
@ 243   ----------------------------------------
	.byte	PATT
	 .word	Voyage_of_380000_km_4_051
@ 244   ----------------------------------------
	.byte	PATT
	 .word	Voyage_of_380000_km_4_052
@ 245   ----------------------------------------
	.byte	PATT
	 .word	Voyage_of_380000_km_4_053
@ 246   ----------------------------------------
	.byte	PATT
	 .word	Voyage_of_380000_km_4_054
@ 247   ----------------------------------------
	.byte	PATT
	 .word	Voyage_of_380000_km_4_055
@ 248   ----------------------------------------
	.byte	PATT
	 .word	Voyage_of_380000_km_4_056
@ 249   ----------------------------------------
	.byte	PATT
	 .word	Voyage_of_380000_km_4_057
@ 250   ----------------------------------------
	.byte	PATT
	 .word	Voyage_of_380000_km_4_058
@ 251   ----------------------------------------
	.byte	PATT
	 .word	Voyage_of_380000_km_4_059
@ 252   ----------------------------------------
	.byte	PATT
	 .word	Voyage_of_380000_km_4_058
@ 253   ----------------------------------------
	.byte	PATT
	 .word	Voyage_of_380000_km_4_061
@ 254   ----------------------------------------
	.byte	PATT
	 .word	Voyage_of_380000_km_4_062
@ 255   ----------------------------------------
	.byte	W96
@ 256   ----------------------------------------
	.byte	W96
@ 257   ----------------------------------------
	.byte	W96
@ 258   ----------------------------------------
	.byte	W96
@ 259   ----------------------------------------
	.byte	W96
@ 260   ----------------------------------------
	.byte	W96
@ 261   ----------------------------------------
	.byte	W96
@ 262   ----------------------------------------
	.byte	W96
@ 263   ----------------------------------------
	.byte	W96
@ 264   ----------------------------------------
	.byte	W96
@ 265   ----------------------------------------
	.byte	W96
@ 266   ----------------------------------------
	.byte	W96
@ 267   ----------------------------------------
	.byte	W96
@ 268   ----------------------------------------
	.byte	W96
@ 269   ----------------------------------------
	.byte	W96
@ 270   ----------------------------------------
	.byte	W96
@ 271   ----------------------------------------
	.byte	W96
@ 272   ----------------------------------------
	.byte	W96
@ 273   ----------------------------------------
	.byte	W96
@ 274   ----------------------------------------
	.byte	W96
@ 275   ----------------------------------------
	.byte	W96
@ 276   ----------------------------------------
	.byte	W96
@ 277   ----------------------------------------
	.byte	W96
@ 278   ----------------------------------------
	.byte	W96
@ 279   ----------------------------------------
	.byte	W96
@ 280   ----------------------------------------
	.byte	W96
@ 281   ----------------------------------------
	.byte	W96
@ 282   ----------------------------------------
	.byte	W96
@ 283   ----------------------------------------
	.byte	W96
@ 284   ----------------------------------------
	.byte	W96
@ 285   ----------------------------------------
	.byte	W96
@ 286   ----------------------------------------
	.byte	W96
@ 287   ----------------------------------------
	.byte	W96
@ 288   ----------------------------------------
	.byte	W76
	.byte	W01
	.byte	GOTO
	 .word	Voyage_of_380000_km_4_B1
Voyage_of_380000_km_4_B2:
	.byte	FINE

@**************** Track 5 (Midi-Chn.5) ****************@

Voyage_of_380000_km_5:
	.byte	KEYSH , Voyage_of_380000_km_key+0
Voyage_of_380000_km_5_B1:
@ 000   ----------------------------------------
	.byte		VOICE , 51
	.byte		PAN   , c_v+0
	.byte		VOL   , 100*Voyage_of_380000_km_mvl/mxv
	.byte	W52
	.byte	W01
	.byte		TIE   , Fn2 , v080
	.byte		TIE   , Cn3 
	.byte		TIE   , Fn3 
	.byte	W42
	.byte	W01
@ 001   ----------------------------------------
	.byte	W96
@ 002   ----------------------------------------
	.byte	W52
	.byte		EOT   , Fn2 
	.byte		        Cn3 
	.byte		        Fn3 
	.byte	W01
	.byte		TIE   , Ds2 
	.byte		TIE   , As2 
	.byte		TIE   , Ds3 
	.byte	W42
	.byte	W01
@ 003   ----------------------------------------
	.byte	W96
@ 004   ----------------------------------------
	.byte	W52
	.byte		EOT   , Ds2 
	.byte		        As2 
	.byte		        Ds3 
	.byte	W01
	.byte		TIE   , Dn2 
	.byte		TIE   , As2 
	.byte		TIE   , Dn3 
	.byte	W42
	.byte	W01
@ 005   ----------------------------------------
	.byte	W96
@ 006   ----------------------------------------
	.byte	W52
	.byte		EOT   , Dn2 
	.byte		        As2 
	.byte		        Dn3 
	.byte	W01
	.byte		N92   , Cs2 
	.byte		N92   , Gs2 
	.byte		N92   , Cs3 
	.byte	W42
	.byte	W01
@ 007   ----------------------------------------
Voyage_of_380000_km_5_007:
	.byte	W52
	.byte	W01
	.byte		N92   , Gn2 , v080
	.byte		N92   , Cn3 
	.byte		N92   , Gn3 
	.byte	W42
	.byte	W01
	.byte	PEND
@ 008   ----------------------------------------
Voyage_of_380000_km_5_008:
	.byte	W52
	.byte	W01
	.byte		TIE   , Fn2 , v080
	.byte		TIE   , Cn3 
	.byte		TIE   , Fn3 
	.byte	W42
	.byte	W01
	.byte	PEND
@ 009   ----------------------------------------
	.byte	W96
@ 010   ----------------------------------------
	.byte	W52
	.byte		EOT   , Fn2 
	.byte		        Cn3 
	.byte		        Fn3 
	.byte	W01
	.byte		TIE   , Ds2 
	.byte		TIE   , As2 
	.byte		TIE   , Ds3 
	.byte	W42
	.byte	W01
@ 011   ----------------------------------------
	.byte	W96
@ 012   ----------------------------------------
	.byte	W52
	.byte		EOT   , Ds2 
	.byte		        As2 
	.byte		        Ds3 
	.byte	W01
	.byte		TIE   , Dn2 
	.byte		TIE   , As2 
	.byte		TIE   , Dn3 
	.byte	W42
	.byte	W01
@ 013   ----------------------------------------
	.byte	W96
@ 014   ----------------------------------------
	.byte	W52
	.byte		EOT   , Dn2 
	.byte		        As2 
	.byte		        Dn3 
	.byte	W01
	.byte		N92   , Cs2 
	.byte		N92   , Gs2 
	.byte		N92   , Cs3 
	.byte	W42
	.byte	W01
@ 015   ----------------------------------------
	.byte	PATT
	 .word	Voyage_of_380000_km_5_007
@ 016   ----------------------------------------
Voyage_of_380000_km_5_016:
	.byte	W52
	.byte	W01
	.byte		N44   , Gs2 , v080
	.byte		N44   , Cs3 
	.byte	W42
	.byte	W01
	.byte	PEND
@ 017   ----------------------------------------
Voyage_of_380000_km_5_017:
	.byte	W05
	.byte		N44   , As2 , v080
	.byte		N44   , Ds3 
	.byte	W48
	.byte		N92   , Cn3 
	.byte		N92   , Fn3 
	.byte	W42
	.byte	W01
	.byte	PEND
@ 018   ----------------------------------------
	.byte	PATT
	 .word	Voyage_of_380000_km_5_016
@ 019   ----------------------------------------
	.byte	PATT
	 .word	Voyage_of_380000_km_5_017
@ 020   ----------------------------------------
	.byte	PATT
	 .word	Voyage_of_380000_km_5_016
@ 021   ----------------------------------------
	.byte	PATT
	 .word	Voyage_of_380000_km_5_017
@ 022   ----------------------------------------
Voyage_of_380000_km_5_022:
	.byte	W52
	.byte	W01
	.byte		N92   , Bn2 , v080
	.byte		N92   , En3 
	.byte	W42
	.byte	W01
	.byte	PEND
@ 023   ----------------------------------------
Voyage_of_380000_km_5_023:
	.byte	W52
	.byte	W01
	.byte		N92   , Cn3 , v080
	.byte		N92   , Fn3 
	.byte	W42
	.byte	W01
	.byte	PEND
@ 024   ----------------------------------------
	.byte	PATT
	 .word	Voyage_of_380000_km_5_016
@ 025   ----------------------------------------
	.byte	PATT
	 .word	Voyage_of_380000_km_5_017
@ 026   ----------------------------------------
	.byte	PATT
	 .word	Voyage_of_380000_km_5_016
@ 027   ----------------------------------------
	.byte	PATT
	 .word	Voyage_of_380000_km_5_017
@ 028   ----------------------------------------
	.byte	PATT
	 .word	Voyage_of_380000_km_5_016
@ 029   ----------------------------------------
	.byte	PATT
	 .word	Voyage_of_380000_km_5_017
@ 030   ----------------------------------------
	.byte	PATT
	 .word	Voyage_of_380000_km_5_022
@ 031   ----------------------------------------
	.byte	PATT
	 .word	Voyage_of_380000_km_5_023
@ 032   ----------------------------------------
	.byte	PATT
	 .word	Voyage_of_380000_km_5_023
@ 033   ----------------------------------------
Voyage_of_380000_km_5_033:
	.byte	W52
	.byte	W01
	.byte		N92   , As2 , v080
	.byte		N92   , Ds3 
	.byte	W42
	.byte	W01
	.byte	PEND
@ 034   ----------------------------------------
Voyage_of_380000_km_5_034:
	.byte	W52
	.byte	W01
	.byte		N92   , Gs2 , v080
	.byte		N92   , Cs3 
	.byte	W42
	.byte	W01
	.byte	PEND
@ 035   ----------------------------------------
Voyage_of_380000_km_5_035:
	.byte	W52
	.byte	W01
	.byte		N23   , Cs3 , v080
	.byte	W24
	.byte		N23   
	.byte	W19
	.byte	PEND
@ 036   ----------------------------------------
Voyage_of_380000_km_5_036:
	.byte	W05
	.byte		N23   , Cs3 , v080
	.byte	W24
	.byte		        Ds3 
	.byte	W24
	.byte		N92   , Cn3 
	.byte		N92   , Fn3 
	.byte	W42
	.byte	W01
	.byte	PEND
@ 037   ----------------------------------------
	.byte	PATT
	 .word	Voyage_of_380000_km_5_033
@ 038   ----------------------------------------
	.byte	PATT
	 .word	Voyage_of_380000_km_5_034
@ 039   ----------------------------------------
	.byte	PATT
	 .word	Voyage_of_380000_km_5_035
@ 040   ----------------------------------------
	.byte	PATT
	 .word	Voyage_of_380000_km_5_036
@ 041   ----------------------------------------
	.byte	PATT
	 .word	Voyage_of_380000_km_5_033
@ 042   ----------------------------------------
	.byte	PATT
	 .word	Voyage_of_380000_km_5_034
@ 043   ----------------------------------------
	.byte	PATT
	 .word	Voyage_of_380000_km_5_035
@ 044   ----------------------------------------
	.byte	PATT
	 .word	Voyage_of_380000_km_5_036
@ 045   ----------------------------------------
	.byte	PATT
	 .word	Voyage_of_380000_km_5_033
@ 046   ----------------------------------------
Voyage_of_380000_km_5_046:
	.byte	W52
	.byte	W01
	.byte		N92   , Gn2 , v080
	.byte		N92   , Cn3 
	.byte	W42
	.byte	W01
	.byte	PEND
@ 047   ----------------------------------------
Voyage_of_380000_km_5_047:
	.byte	W52
	.byte	W01
	.byte		N44   , Gn2 , v080
	.byte		N44   , Cn3 
	.byte	W42
	.byte	W01
	.byte	PEND
@ 048   ----------------------------------------
Voyage_of_380000_km_5_048:
	.byte	W52
	.byte	W01
	.byte		N92   , Cs3 , v080
	.byte		TIE   , Fn3 
	.byte		TIE   , Gs3 
	.byte	W42
	.byte	W01
	.byte	PEND
@ 049   ----------------------------------------
Voyage_of_380000_km_5_049:
	.byte	W52
	.byte	W01
	.byte		N92   , Cs3 , v080
	.byte	W42
	.byte	W01
	.byte	PEND
@ 050   ----------------------------------------
	.byte	W52
	.byte		EOT   , Fn3 
	.byte		        Gs3 
	.byte	W01
	.byte		TIE   , Dn3 
	.byte		TIE   , Fn3 
	.byte		TIE   , An3 
	.byte	W42
	.byte	W01
@ 051   ----------------------------------------
	.byte	W96
@ 052   ----------------------------------------
	.byte	W52
	.byte		EOT   , Dn3 
	.byte		        Fn3 
	.byte		        An3 
	.byte	W01
	.byte		N92   , As2 
	.byte		N92   , Dn3 
	.byte		N92   , Fn3 
	.byte	W42
	.byte	W01
@ 053   ----------------------------------------
Voyage_of_380000_km_5_053:
	.byte	W52
	.byte	W01
	.byte		N92   , Cn3 , v080
	.byte		N92   , En3 
	.byte		N92   , Gn3 
	.byte	W42
	.byte	W01
	.byte	PEND
@ 054   ----------------------------------------
Voyage_of_380000_km_5_054:
	.byte	W52
	.byte	W01
	.byte		TIE   , Dn3 , v080
	.byte		TIE   , Fn3 
	.byte		TIE   , An3 
	.byte	W42
	.byte	W01
	.byte	PEND
@ 055   ----------------------------------------
	.byte	W96
@ 056   ----------------------------------------
	.byte	W52
	.byte		EOT   , Dn3 
	.byte		        Fn3 
	.byte		        An3 
	.byte	W01
	.byte		TIE   , As2 
	.byte		TIE   , Dn3 
	.byte		TIE   , Fn3 
	.byte	W42
	.byte	W01
@ 057   ----------------------------------------
	.byte	W96
@ 058   ----------------------------------------
	.byte	W52
	.byte		EOT   , As2 
	.byte		        Dn3 
	.byte		        Fn3 
	.byte	W01
	.byte		TIE   , Dn3 
	.byte		TIE   , Fn3 
	.byte		TIE   , An3 
	.byte	W42
	.byte	W01
@ 059   ----------------------------------------
	.byte	W96
@ 060   ----------------------------------------
	.byte	W52
	.byte		EOT   , Dn3 
	.byte		        Fn3 
	.byte		        An3 
	.byte	W01
	.byte		N92   , As2 
	.byte		N92   , Dn3 
	.byte		N92   , Fn3 
	.byte	W42
	.byte	W01
@ 061   ----------------------------------------
	.byte	PATT
	 .word	Voyage_of_380000_km_5_053
@ 062   ----------------------------------------
	.byte	PATT
	 .word	Voyage_of_380000_km_5_054
@ 063   ----------------------------------------
	.byte	W96
@ 064   ----------------------------------------
	.byte	W52
	.byte		EOT   , Dn3 
	.byte		        Fn3 
	.byte		        An3 
	.byte	W01
	.byte		TIE   , Dn2 , v080
	.byte		TIE   , An2 
	.byte		TIE   , Dn3 
	.byte	W42
	.byte	W01
@ 065   ----------------------------------------
	.byte	W96
@ 066   ----------------------------------------
	.byte	W52
	.byte		EOT   , Dn2 
	.byte		        An2 
	.byte		        Dn3 
	.byte	W01
	.byte		TIE   , Cn2 
	.byte		TIE   , Gn2 
	.byte		TIE   , Cn3 
	.byte	W42
	.byte	W01
@ 067   ----------------------------------------
	.byte	W96
@ 068   ----------------------------------------
	.byte	W52
	.byte		EOT   , Cn2 
	.byte		        Gn2 
	.byte		        Cn3 
	.byte	W01
	.byte		TIE   , Bn1 
	.byte		TIE   , Gn2 
	.byte		TIE   , Bn2 
	.byte	W42
	.byte	W01
@ 069   ----------------------------------------
	.byte	W96
@ 070   ----------------------------------------
	.byte	W52
	.byte		EOT   , Bn1 
	.byte		        Gn2 
	.byte		        Bn2 
	.byte	W01
	.byte		N92   , As1 
	.byte		N92   , Fn2 
	.byte		N92   , As2 
	.byte	W42
	.byte	W01
@ 071   ----------------------------------------
Voyage_of_380000_km_5_071:
	.byte	W52
	.byte	W01
	.byte		N92   , En2 , v080
	.byte		N92   , An2 
	.byte	W42
	.byte	W01
	.byte	PEND
@ 072   ----------------------------------------
Voyage_of_380000_km_5_072:
	.byte	W52
	.byte	W01
	.byte		TIE   , Dn2 , v080
	.byte		TIE   , An2 
	.byte		TIE   , Dn3 
	.byte	W42
	.byte	W01
	.byte	PEND
@ 073   ----------------------------------------
	.byte	W96
@ 074   ----------------------------------------
	.byte	W52
	.byte		EOT   , Dn2 
	.byte		        An2 
	.byte		        Dn3 
	.byte	W01
	.byte		TIE   , Cn2 
	.byte		TIE   , Gn2 
	.byte		TIE   , Cn3 
	.byte	W42
	.byte	W01
@ 075   ----------------------------------------
	.byte	W96
@ 076   ----------------------------------------
	.byte	W52
	.byte		EOT   , Cn2 
	.byte		        Gn2 
	.byte		        Cn3 
	.byte	W01
	.byte		TIE   , Bn1 
	.byte		TIE   , Gn2 
	.byte		TIE   , Bn2 
	.byte	W42
	.byte	W01
@ 077   ----------------------------------------
	.byte	W96
@ 078   ----------------------------------------
	.byte	W52
	.byte		EOT   , Bn1 
	.byte		        Gn2 
	.byte		        Bn2 
	.byte	W01
	.byte		N92   , As1 
	.byte		N92   , Fn2 
	.byte		N92   , As2 
	.byte	W42
	.byte	W01
@ 079   ----------------------------------------
	.byte	PATT
	 .word	Voyage_of_380000_km_5_071
@ 080   ----------------------------------------
Voyage_of_380000_km_5_080:
	.byte	W52
	.byte	W01
	.byte		N44   , Fn2 , v080
	.byte		N44   , As2 
	.byte	W42
	.byte	W01
	.byte	PEND
@ 081   ----------------------------------------
Voyage_of_380000_km_5_081:
	.byte	W05
	.byte		N44   , Gn2 , v080
	.byte		N44   , Cn3 
	.byte	W48
	.byte		N92   , An2 
	.byte		N92   , Dn3 
	.byte	W42
	.byte	W01
	.byte	PEND
@ 082   ----------------------------------------
	.byte	PATT
	 .word	Voyage_of_380000_km_5_080
@ 083   ----------------------------------------
	.byte	PATT
	 .word	Voyage_of_380000_km_5_081
@ 084   ----------------------------------------
	.byte	PATT
	 .word	Voyage_of_380000_km_5_080
@ 085   ----------------------------------------
	.byte	PATT
	 .word	Voyage_of_380000_km_5_081
@ 086   ----------------------------------------
	.byte	PATT
	 .word	Voyage_of_380000_km_5_034
@ 087   ----------------------------------------
Voyage_of_380000_km_5_087:
	.byte	W52
	.byte	W01
	.byte		N92   , An2 , v080
	.byte		N92   , Dn3 
	.byte	W42
	.byte	W01
	.byte	PEND
@ 088   ----------------------------------------
	.byte	PATT
	 .word	Voyage_of_380000_km_5_080
@ 089   ----------------------------------------
	.byte	PATT
	 .word	Voyage_of_380000_km_5_081
@ 090   ----------------------------------------
	.byte	PATT
	 .word	Voyage_of_380000_km_5_080
@ 091   ----------------------------------------
	.byte	PATT
	 .word	Voyage_of_380000_km_5_081
@ 092   ----------------------------------------
	.byte	PATT
	 .word	Voyage_of_380000_km_5_080
@ 093   ----------------------------------------
	.byte	PATT
	 .word	Voyage_of_380000_km_5_081
@ 094   ----------------------------------------
	.byte	PATT
	 .word	Voyage_of_380000_km_5_034
@ 095   ----------------------------------------
	.byte	PATT
	 .word	Voyage_of_380000_km_5_087
@ 096   ----------------------------------------
	.byte	PATT
	 .word	Voyage_of_380000_km_5_048
@ 097   ----------------------------------------
	.byte	PATT
	 .word	Voyage_of_380000_km_5_049
@ 098   ----------------------------------------
	.byte	W52
	.byte		EOT   , Fn3 
	.byte		        Gs3 
	.byte	W01
	.byte		TIE   , Dn3 , v080
	.byte		TIE   , Fn3 
	.byte		TIE   , An3 
	.byte	W42
	.byte	W01
@ 099   ----------------------------------------
	.byte	W96
@ 100   ----------------------------------------
	.byte	W52
	.byte		EOT   , Dn3 
	.byte		        Fn3 
	.byte		        An3 
	.byte	W01
	.byte		N92   , As2 
	.byte		N92   , Dn3 
	.byte		N92   , Fn3 
	.byte	W42
	.byte	W01
@ 101   ----------------------------------------
	.byte	PATT
	 .word	Voyage_of_380000_km_5_053
@ 102   ----------------------------------------
	.byte	PATT
	 .word	Voyage_of_380000_km_5_054
@ 103   ----------------------------------------
	.byte	W96
@ 104   ----------------------------------------
	.byte	W52
	.byte		EOT   , Dn3 
	.byte		        Fn3 
	.byte		        An3 
	.byte	W01
	.byte		TIE   , As2 , v080
	.byte		TIE   , Dn3 
	.byte		TIE   , Fn3 
	.byte	W42
	.byte	W01
@ 105   ----------------------------------------
	.byte	W96
@ 106   ----------------------------------------
	.byte	W52
	.byte		EOT   , As2 
	.byte		        Dn3 
	.byte		        Fn3 
	.byte	W01
	.byte		TIE   , Dn3 
	.byte		TIE   , Fn3 
	.byte		TIE   , An3 
	.byte	W42
	.byte	W01
@ 107   ----------------------------------------
	.byte	W96
@ 108   ----------------------------------------
	.byte	W52
	.byte		EOT   , Dn3 
	.byte		        Fn3 
	.byte		        An3 
	.byte	W01
	.byte		N92   , As2 
	.byte		N92   , Dn3 
	.byte		N92   , Fn3 
	.byte	W42
	.byte	W01
@ 109   ----------------------------------------
	.byte	PATT
	 .word	Voyage_of_380000_km_5_053
@ 110   ----------------------------------------
	.byte	PATT
	 .word	Voyage_of_380000_km_5_054
@ 111   ----------------------------------------
	.byte	W96
@ 112   ----------------------------------------
	.byte	W52
	.byte		EOT   , Dn3 
	.byte		        Fn3 
	.byte		        An3 
	.byte	W01
	.byte		N92   , Dn3 , v080
	.byte	W42
	.byte	W01
@ 113   ----------------------------------------
Voyage_of_380000_km_5_113:
	.byte	W52
	.byte	W01
	.byte		N92   , Cn3 , v080
	.byte	W42
	.byte	W01
	.byte	PEND
@ 114   ----------------------------------------
Voyage_of_380000_km_5_114:
	.byte	W52
	.byte	W01
	.byte		N92   , As2 , v080
	.byte	W42
	.byte	W01
	.byte	PEND
@ 115   ----------------------------------------
Voyage_of_380000_km_5_115:
	.byte	W52
	.byte	W01
	.byte		N23   , As2 , v080
	.byte	W24
	.byte		N23   
	.byte	W19
	.byte	PEND
@ 116   ----------------------------------------
Voyage_of_380000_km_5_116:
	.byte	W05
	.byte		N23   , As2 , v080
	.byte	W24
	.byte		        Cn3 
	.byte	W24
	.byte		N92   , Dn3 
	.byte	W42
	.byte	W01
	.byte	PEND
@ 117   ----------------------------------------
	.byte	PATT
	 .word	Voyage_of_380000_km_5_113
@ 118   ----------------------------------------
	.byte	PATT
	 .word	Voyage_of_380000_km_5_114
@ 119   ----------------------------------------
	.byte	PATT
	 .word	Voyage_of_380000_km_5_115
@ 120   ----------------------------------------
	.byte	PATT
	 .word	Voyage_of_380000_km_5_116
@ 121   ----------------------------------------
	.byte	PATT
	 .word	Voyage_of_380000_km_5_113
@ 122   ----------------------------------------
	.byte	PATT
	 .word	Voyage_of_380000_km_5_114
@ 123   ----------------------------------------
	.byte	PATT
	 .word	Voyage_of_380000_km_5_115
@ 124   ----------------------------------------
	.byte	PATT
	 .word	Voyage_of_380000_km_5_116
@ 125   ----------------------------------------
	.byte	PATT
	 .word	Voyage_of_380000_km_5_113
@ 126   ----------------------------------------
	.byte	PATT
	 .word	Voyage_of_380000_km_5_114
@ 127   ----------------------------------------
Voyage_of_380000_km_5_127:
	.byte	W52
	.byte	W01
	.byte		N92   , An2 , v080
	.byte	W42
	.byte	W01
	.byte	PEND
@ 128   ----------------------------------------
Voyage_of_380000_km_5_128:
	.byte	W52
	.byte	W01
	.byte		N92   , Fn3 , v080
	.byte	W42
	.byte	W01
	.byte	PEND
@ 129   ----------------------------------------
Voyage_of_380000_km_5_129:
	.byte	W52
	.byte	W01
	.byte		N92   , Ds3 , v080
	.byte	W42
	.byte	W01
	.byte	PEND
@ 130   ----------------------------------------
	.byte	PATT
	 .word	Voyage_of_380000_km_5_049
@ 131   ----------------------------------------
	.byte	PATT
	 .word	Voyage_of_380000_km_5_035
@ 132   ----------------------------------------
Voyage_of_380000_km_5_132:
	.byte	W05
	.byte		N23   , Cs3 , v080
	.byte	W24
	.byte		        Ds3 
	.byte	W24
	.byte		N92   , Fn3 
	.byte	W42
	.byte	W01
	.byte	PEND
@ 133   ----------------------------------------
	.byte	PATT
	 .word	Voyage_of_380000_km_5_129
@ 134   ----------------------------------------
	.byte	PATT
	 .word	Voyage_of_380000_km_5_049
@ 135   ----------------------------------------
	.byte	PATT
	 .word	Voyage_of_380000_km_5_035
@ 136   ----------------------------------------
	.byte	PATT
	 .word	Voyage_of_380000_km_5_132
@ 137   ----------------------------------------
	.byte	PATT
	 .word	Voyage_of_380000_km_5_129
@ 138   ----------------------------------------
	.byte	PATT
	 .word	Voyage_of_380000_km_5_049
@ 139   ----------------------------------------
	.byte	PATT
	 .word	Voyage_of_380000_km_5_035
@ 140   ----------------------------------------
	.byte	PATT
	 .word	Voyage_of_380000_km_5_132
@ 141   ----------------------------------------
	.byte	PATT
	 .word	Voyage_of_380000_km_5_129
@ 142   ----------------------------------------
	.byte	PATT
	 .word	Voyage_of_380000_km_5_049
@ 143   ----------------------------------------
	.byte	PATT
	 .word	Voyage_of_380000_km_5_035
@ 144   ----------------------------------------
	.byte	W05
	.byte		N23   , Cs3 , v080
	.byte	W24
	.byte		        Ds3 
	.byte	W24
	.byte		TIE   , Fn2 
	.byte		TIE   , Cn3 
	.byte		TIE   , Fn3 
	.byte	W42
	.byte	W01
@ 145   ----------------------------------------
	.byte	W96
@ 146   ----------------------------------------
	.byte	W52
	.byte		EOT   , Fn2 
	.byte		        Cn3 
	.byte		        Fn3 
	.byte	W01
	.byte		TIE   , Ds2 
	.byte		TIE   , As2 
	.byte		TIE   , Ds3 
	.byte	W42
	.byte	W01
@ 147   ----------------------------------------
	.byte	W96
@ 148   ----------------------------------------
	.byte	W52
	.byte		EOT   , Ds2 
	.byte		        As2 
	.byte		        Ds3 
	.byte	W01
	.byte		TIE   , Dn2 
	.byte		TIE   , As2 
	.byte		TIE   , Dn3 
	.byte	W42
	.byte	W01
@ 149   ----------------------------------------
	.byte	W96
@ 150   ----------------------------------------
	.byte	W52
	.byte		EOT   , Dn2 
	.byte		        As2 
	.byte		        Dn3 
	.byte	W01
	.byte		N92   , Cs2 
	.byte		N92   , Gs2 
	.byte		N92   , Cs3 
	.byte	W42
	.byte	W01
@ 151   ----------------------------------------
	.byte	PATT
	 .word	Voyage_of_380000_km_5_007
@ 152   ----------------------------------------
	.byte	PATT
	 .word	Voyage_of_380000_km_5_008
@ 153   ----------------------------------------
	.byte	W96
@ 154   ----------------------------------------
	.byte	W52
	.byte		EOT   , Fn2 
	.byte		        Cn3 
	.byte		        Fn3 
	.byte	W01
	.byte		TIE   , Ds2 , v080
	.byte		TIE   , As2 
	.byte		TIE   , Ds3 
	.byte	W42
	.byte	W01
@ 155   ----------------------------------------
	.byte	W96
@ 156   ----------------------------------------
	.byte	W52
	.byte		EOT   , Ds2 
	.byte		        As2 
	.byte		        Ds3 
	.byte	W01
	.byte		TIE   , Dn2 
	.byte		TIE   , As2 
	.byte		TIE   , Dn3 
	.byte	W42
	.byte	W01
@ 157   ----------------------------------------
	.byte	W96
@ 158   ----------------------------------------
	.byte	W52
	.byte		EOT   , Dn2 
	.byte		        As2 
	.byte		        Dn3 
	.byte	W01
	.byte		N92   , Cs2 
	.byte		N92   , Gs2 
	.byte		N92   , Cs3 
	.byte	W42
	.byte	W01
@ 159   ----------------------------------------
	.byte	PATT
	 .word	Voyage_of_380000_km_5_007
@ 160   ----------------------------------------
	.byte	PATT
	 .word	Voyage_of_380000_km_5_016
@ 161   ----------------------------------------
	.byte	PATT
	 .word	Voyage_of_380000_km_5_017
@ 162   ----------------------------------------
	.byte	PATT
	 .word	Voyage_of_380000_km_5_016
@ 163   ----------------------------------------
	.byte	PATT
	 .word	Voyage_of_380000_km_5_017
@ 164   ----------------------------------------
	.byte	PATT
	 .word	Voyage_of_380000_km_5_016
@ 165   ----------------------------------------
	.byte	PATT
	 .word	Voyage_of_380000_km_5_017
@ 166   ----------------------------------------
	.byte	PATT
	 .word	Voyage_of_380000_km_5_022
@ 167   ----------------------------------------
	.byte	PATT
	 .word	Voyage_of_380000_km_5_023
@ 168   ----------------------------------------
	.byte	PATT
	 .word	Voyage_of_380000_km_5_016
@ 169   ----------------------------------------
	.byte	PATT
	 .word	Voyage_of_380000_km_5_017
@ 170   ----------------------------------------
	.byte	PATT
	 .word	Voyage_of_380000_km_5_016
@ 171   ----------------------------------------
	.byte	PATT
	 .word	Voyage_of_380000_km_5_017
@ 172   ----------------------------------------
	.byte	PATT
	 .word	Voyage_of_380000_km_5_016
@ 173   ----------------------------------------
	.byte	PATT
	 .word	Voyage_of_380000_km_5_017
@ 174   ----------------------------------------
	.byte	PATT
	 .word	Voyage_of_380000_km_5_022
@ 175   ----------------------------------------
	.byte	PATT
	 .word	Voyage_of_380000_km_5_023
@ 176   ----------------------------------------
	.byte	PATT
	 .word	Voyage_of_380000_km_5_023
@ 177   ----------------------------------------
	.byte	PATT
	 .word	Voyage_of_380000_km_5_033
@ 178   ----------------------------------------
	.byte	PATT
	 .word	Voyage_of_380000_km_5_034
@ 179   ----------------------------------------
	.byte	PATT
	 .word	Voyage_of_380000_km_5_035
@ 180   ----------------------------------------
	.byte	PATT
	 .word	Voyage_of_380000_km_5_036
@ 181   ----------------------------------------
	.byte	PATT
	 .word	Voyage_of_380000_km_5_033
@ 182   ----------------------------------------
	.byte	PATT
	 .word	Voyage_of_380000_km_5_034
@ 183   ----------------------------------------
	.byte	PATT
	 .word	Voyage_of_380000_km_5_035
@ 184   ----------------------------------------
	.byte	PATT
	 .word	Voyage_of_380000_km_5_036
@ 185   ----------------------------------------
	.byte	PATT
	 .word	Voyage_of_380000_km_5_033
@ 186   ----------------------------------------
	.byte	PATT
	 .word	Voyage_of_380000_km_5_034
@ 187   ----------------------------------------
	.byte	PATT
	 .word	Voyage_of_380000_km_5_035
@ 188   ----------------------------------------
	.byte	PATT
	 .word	Voyage_of_380000_km_5_036
@ 189   ----------------------------------------
	.byte	PATT
	 .word	Voyage_of_380000_km_5_033
@ 190   ----------------------------------------
	.byte	PATT
	 .word	Voyage_of_380000_km_5_046
@ 191   ----------------------------------------
	.byte	PATT
	 .word	Voyage_of_380000_km_5_047
@ 192   ----------------------------------------
	.byte	PATT
	 .word	Voyage_of_380000_km_5_048
@ 193   ----------------------------------------
	.byte	PATT
	 .word	Voyage_of_380000_km_5_049
@ 194   ----------------------------------------
	.byte	W52
	.byte		EOT   , Fn3 
	.byte		        Gs3 
	.byte	W01
	.byte		TIE   , Dn3 , v080
	.byte		TIE   , Fn3 
	.byte		TIE   , An3 
	.byte	W42
	.byte	W01
@ 195   ----------------------------------------
	.byte	W96
@ 196   ----------------------------------------
	.byte	W52
	.byte		EOT   , Dn3 
	.byte		        Fn3 
	.byte		        An3 
	.byte	W01
	.byte		N92   , As2 
	.byte		N92   , Dn3 
	.byte		N92   , Fn3 
	.byte	W42
	.byte	W01
@ 197   ----------------------------------------
	.byte	PATT
	 .word	Voyage_of_380000_km_5_053
@ 198   ----------------------------------------
	.byte	PATT
	 .word	Voyage_of_380000_km_5_054
@ 199   ----------------------------------------
	.byte	W96
@ 200   ----------------------------------------
	.byte	W52
	.byte		EOT   , Dn3 
	.byte		        Fn3 
	.byte		        An3 
	.byte	W01
	.byte		TIE   , As2 , v080
	.byte		TIE   , Dn3 
	.byte		TIE   , Fn3 
	.byte	W42
	.byte	W01
@ 201   ----------------------------------------
	.byte	W96
@ 202   ----------------------------------------
	.byte	W52
	.byte		EOT   , As2 
	.byte		        Dn3 
	.byte		        Fn3 
	.byte	W01
	.byte		TIE   , Dn3 
	.byte		TIE   , Fn3 
	.byte		TIE   , An3 
	.byte	W42
	.byte	W01
@ 203   ----------------------------------------
	.byte	W96
@ 204   ----------------------------------------
	.byte	W52
	.byte		EOT   , Dn3 
	.byte		        Fn3 
	.byte		        An3 
	.byte	W01
	.byte		N92   , As2 
	.byte		N92   , Dn3 
	.byte		N92   , Fn3 
	.byte	W42
	.byte	W01
@ 205   ----------------------------------------
	.byte	PATT
	 .word	Voyage_of_380000_km_5_053
@ 206   ----------------------------------------
	.byte	PATT
	 .word	Voyage_of_380000_km_5_054
@ 207   ----------------------------------------
	.byte	W96
@ 208   ----------------------------------------
	.byte	W52
	.byte		EOT   , Dn3 
	.byte		        Fn3 
	.byte		        An3 
	.byte	W01
	.byte		TIE   , Dn2 , v080
	.byte		TIE   , An2 
	.byte		TIE   , Dn3 
	.byte	W42
	.byte	W01
@ 209   ----------------------------------------
	.byte	W96
@ 210   ----------------------------------------
	.byte	W52
	.byte		EOT   , Dn2 
	.byte		        An2 
	.byte		        Dn3 
	.byte	W01
	.byte		TIE   , Cn2 
	.byte		TIE   , Gn2 
	.byte		TIE   , Cn3 
	.byte	W42
	.byte	W01
@ 211   ----------------------------------------
	.byte	W96
@ 212   ----------------------------------------
	.byte	W52
	.byte		EOT   , Cn2 
	.byte		        Gn2 
	.byte		        Cn3 
	.byte	W01
	.byte		TIE   , Bn1 
	.byte		TIE   , Gn2 
	.byte		TIE   , Bn2 
	.byte	W42
	.byte	W01
@ 213   ----------------------------------------
	.byte	W96
@ 214   ----------------------------------------
	.byte	W52
	.byte		EOT   , Bn1 
	.byte		        Gn2 
	.byte		        Bn2 
	.byte	W01
	.byte		N92   , As1 
	.byte		N92   , Fn2 
	.byte		N92   , As2 
	.byte	W42
	.byte	W01
@ 215   ----------------------------------------
	.byte	PATT
	 .word	Voyage_of_380000_km_5_071
@ 216   ----------------------------------------
	.byte	PATT
	 .word	Voyage_of_380000_km_5_072
@ 217   ----------------------------------------
	.byte	W96
@ 218   ----------------------------------------
	.byte	W52
	.byte		EOT   , Dn2 
	.byte		        An2 
	.byte		        Dn3 
	.byte	W01
	.byte		TIE   , Cn2 , v080
	.byte		TIE   , Gn2 
	.byte		TIE   , Cn3 
	.byte	W42
	.byte	W01
@ 219   ----------------------------------------
	.byte	W96
@ 220   ----------------------------------------
	.byte	W52
	.byte		EOT   , Cn2 
	.byte		        Gn2 
	.byte		        Cn3 
	.byte	W01
	.byte		TIE   , Bn1 
	.byte		TIE   , Gn2 
	.byte		TIE   , Bn2 
	.byte	W42
	.byte	W01
@ 221   ----------------------------------------
	.byte	W96
@ 222   ----------------------------------------
	.byte	W52
	.byte		EOT   , Bn1 
	.byte		        Gn2 
	.byte		        Bn2 
	.byte	W01
	.byte		N92   , As1 
	.byte		N92   , Fn2 
	.byte		N92   , As2 
	.byte	W42
	.byte	W01
@ 223   ----------------------------------------
	.byte	PATT
	 .word	Voyage_of_380000_km_5_071
@ 224   ----------------------------------------
	.byte	PATT
	 .word	Voyage_of_380000_km_5_080
@ 225   ----------------------------------------
	.byte	PATT
	 .word	Voyage_of_380000_km_5_081
@ 226   ----------------------------------------
	.byte	PATT
	 .word	Voyage_of_380000_km_5_080
@ 227   ----------------------------------------
	.byte	PATT
	 .word	Voyage_of_380000_km_5_081
@ 228   ----------------------------------------
	.byte	PATT
	 .word	Voyage_of_380000_km_5_080
@ 229   ----------------------------------------
	.byte	PATT
	 .word	Voyage_of_380000_km_5_081
@ 230   ----------------------------------------
	.byte	PATT
	 .word	Voyage_of_380000_km_5_034
@ 231   ----------------------------------------
	.byte	PATT
	 .word	Voyage_of_380000_km_5_087
@ 232   ----------------------------------------
	.byte	PATT
	 .word	Voyage_of_380000_km_5_080
@ 233   ----------------------------------------
	.byte	PATT
	 .word	Voyage_of_380000_km_5_081
@ 234   ----------------------------------------
	.byte	PATT
	 .word	Voyage_of_380000_km_5_080
@ 235   ----------------------------------------
	.byte	PATT
	 .word	Voyage_of_380000_km_5_081
@ 236   ----------------------------------------
	.byte	PATT
	 .word	Voyage_of_380000_km_5_080
@ 237   ----------------------------------------
	.byte	PATT
	 .word	Voyage_of_380000_km_5_081
@ 238   ----------------------------------------
	.byte	PATT
	 .word	Voyage_of_380000_km_5_034
@ 239   ----------------------------------------
	.byte	PATT
	 .word	Voyage_of_380000_km_5_087
@ 240   ----------------------------------------
	.byte	PATT
	 .word	Voyage_of_380000_km_5_048
@ 241   ----------------------------------------
	.byte	PATT
	 .word	Voyage_of_380000_km_5_049
@ 242   ----------------------------------------
	.byte	W52
	.byte		EOT   , Fn3 
	.byte		        Gs3 
	.byte	W01
	.byte		TIE   , Dn3 , v080
	.byte		TIE   , Fn3 
	.byte		TIE   , An3 
	.byte	W42
	.byte	W01
@ 243   ----------------------------------------
	.byte	W96
@ 244   ----------------------------------------
	.byte	W52
	.byte		EOT   , Dn3 
	.byte		        Fn3 
	.byte		        An3 
	.byte	W01
	.byte		N92   , As2 
	.byte		N92   , Dn3 
	.byte		N92   , Fn3 
	.byte	W42
	.byte	W01
@ 245   ----------------------------------------
	.byte	PATT
	 .word	Voyage_of_380000_km_5_053
@ 246   ----------------------------------------
	.byte	PATT
	 .word	Voyage_of_380000_km_5_054
@ 247   ----------------------------------------
	.byte	W96
@ 248   ----------------------------------------
	.byte	W52
	.byte		EOT   , Dn3 
	.byte		        Fn3 
	.byte		        An3 
	.byte	W01
	.byte		TIE   , As2 , v080
	.byte		TIE   , Dn3 
	.byte		TIE   , Fn3 
	.byte	W42
	.byte	W01
@ 249   ----------------------------------------
	.byte	W96
@ 250   ----------------------------------------
	.byte	W52
	.byte		EOT   , As2 
	.byte		        Dn3 
	.byte		        Fn3 
	.byte	W01
	.byte		TIE   , Dn3 
	.byte		TIE   , Fn3 
	.byte		TIE   , An3 
	.byte	W42
	.byte	W01
@ 251   ----------------------------------------
	.byte	W96
@ 252   ----------------------------------------
	.byte	W52
	.byte		EOT   , Dn3 
	.byte		        Fn3 
	.byte		        An3 
	.byte	W01
	.byte		N92   , As2 
	.byte		N92   , Dn3 
	.byte		N92   , Fn3 
	.byte	W42
	.byte	W01
@ 253   ----------------------------------------
	.byte	PATT
	 .word	Voyage_of_380000_km_5_053
@ 254   ----------------------------------------
	.byte	PATT
	 .word	Voyage_of_380000_km_5_054
@ 255   ----------------------------------------
	.byte	W96
@ 256   ----------------------------------------
	.byte	W52
	.byte		EOT   , Dn3 
	.byte		        Fn3 
	.byte		        An3 
	.byte	W01
	.byte		N92   , Dn3 , v080
	.byte	W42
	.byte	W01
@ 257   ----------------------------------------
	.byte	PATT
	 .word	Voyage_of_380000_km_5_113
@ 258   ----------------------------------------
	.byte	PATT
	 .word	Voyage_of_380000_km_5_114
@ 259   ----------------------------------------
	.byte	PATT
	 .word	Voyage_of_380000_km_5_115
@ 260   ----------------------------------------
	.byte	PATT
	 .word	Voyage_of_380000_km_5_116
@ 261   ----------------------------------------
	.byte	PATT
	 .word	Voyage_of_380000_km_5_113
@ 262   ----------------------------------------
	.byte	PATT
	 .word	Voyage_of_380000_km_5_114
@ 263   ----------------------------------------
	.byte	PATT
	 .word	Voyage_of_380000_km_5_115
@ 264   ----------------------------------------
	.byte	PATT
	 .word	Voyage_of_380000_km_5_116
@ 265   ----------------------------------------
	.byte	PATT
	 .word	Voyage_of_380000_km_5_113
@ 266   ----------------------------------------
	.byte	PATT
	 .word	Voyage_of_380000_km_5_114
@ 267   ----------------------------------------
	.byte	PATT
	 .word	Voyage_of_380000_km_5_115
@ 268   ----------------------------------------
	.byte	PATT
	 .word	Voyage_of_380000_km_5_116
@ 269   ----------------------------------------
	.byte	PATT
	 .word	Voyage_of_380000_km_5_113
@ 270   ----------------------------------------
	.byte	PATT
	 .word	Voyage_of_380000_km_5_114
@ 271   ----------------------------------------
	.byte	PATT
	 .word	Voyage_of_380000_km_5_127
@ 272   ----------------------------------------
	.byte	PATT
	 .word	Voyage_of_380000_km_5_128
@ 273   ----------------------------------------
	.byte	PATT
	 .word	Voyage_of_380000_km_5_129
@ 274   ----------------------------------------
	.byte	PATT
	 .word	Voyage_of_380000_km_5_049
@ 275   ----------------------------------------
	.byte	PATT
	 .word	Voyage_of_380000_km_5_035
@ 276   ----------------------------------------
	.byte	PATT
	 .word	Voyage_of_380000_km_5_132
@ 277   ----------------------------------------
	.byte	PATT
	 .word	Voyage_of_380000_km_5_129
@ 278   ----------------------------------------
	.byte	PATT
	 .word	Voyage_of_380000_km_5_049
@ 279   ----------------------------------------
	.byte	PATT
	 .word	Voyage_of_380000_km_5_035
@ 280   ----------------------------------------
	.byte	PATT
	 .word	Voyage_of_380000_km_5_132
@ 281   ----------------------------------------
	.byte	PATT
	 .word	Voyage_of_380000_km_5_129
@ 282   ----------------------------------------
	.byte	PATT
	 .word	Voyage_of_380000_km_5_049
@ 283   ----------------------------------------
	.byte	PATT
	 .word	Voyage_of_380000_km_5_035
@ 284   ----------------------------------------
	.byte	PATT
	 .word	Voyage_of_380000_km_5_132
@ 285   ----------------------------------------
	.byte	PATT
	 .word	Voyage_of_380000_km_5_129
@ 286   ----------------------------------------
	.byte	PATT
	 .word	Voyage_of_380000_km_5_049
@ 287   ----------------------------------------
	.byte	PATT
	 .word	Voyage_of_380000_km_5_035
@ 288   ----------------------------------------
	.byte	W05
	.byte		N23   , Cs3 , v080
	.byte	W24
	.byte		        Ds3 
	.byte	W48
	.byte	GOTO
	 .word	Voyage_of_380000_km_5_B1
Voyage_of_380000_km_5_B2:
	.byte	FINE

@**************** Track 6 (Midi-Chn.6) ****************@

Voyage_of_380000_km_6:
	.byte	KEYSH , Voyage_of_380000_km_key+0
Voyage_of_380000_km_6_B1:
@ 000   ----------------------------------------
	.byte		VOICE , 29
	.byte		PAN   , c_v+0
	.byte		VOL   , 76*Voyage_of_380000_km_mvl/mxv
	.byte	W64
	.byte	W01
	.byte		N11   , Fn1 , v080
	.byte	W12
	.byte		N05   , Gs1 
	.byte	W06
	.byte		        Cn2 
	.byte	W06
	.byte		        As1 
	.byte	W06
	.byte		        Cn2 
	.byte	W01
@ 001   ----------------------------------------
Voyage_of_380000_km_6_001:
	.byte	W17
	.byte		N11   , Fn1 , v080
	.byte	W12
	.byte		N05   , Gs1 
	.byte	W06
	.byte		        Cn2 
	.byte	W06
	.byte		        As1 
	.byte	W06
	.byte		        Cn2 
	.byte	W18
	.byte		N11   , Fn1 
	.byte	W12
	.byte		N05   , Gs1 
	.byte	W06
	.byte		        Cn2 
	.byte	W06
	.byte		        As1 
	.byte	W06
	.byte		        Cn2 
	.byte	W01
	.byte	PEND
@ 002   ----------------------------------------
Voyage_of_380000_km_6_002:
	.byte	W17
	.byte		N11   , Fn1 , v080
	.byte	W12
	.byte		N05   , Gs1 
	.byte	W06
	.byte		        Cn2 
	.byte	W06
	.byte		        As1 
	.byte	W06
	.byte		        Cn2 
	.byte	W18
	.byte		N11   , Ds1 
	.byte	W12
	.byte		N05   , Gs1 
	.byte	W06
	.byte		        Cn2 
	.byte	W06
	.byte		        As1 
	.byte	W06
	.byte		        Cn2 
	.byte	W01
	.byte	PEND
@ 003   ----------------------------------------
Voyage_of_380000_km_6_003:
	.byte	W17
	.byte		N11   , Ds1 , v080
	.byte	W12
	.byte		N05   , Gs1 
	.byte	W06
	.byte		        Cn2 
	.byte	W06
	.byte		        As1 
	.byte	W06
	.byte		        Cn2 
	.byte	W18
	.byte		N11   , Ds1 
	.byte	W12
	.byte		N05   , Gs1 
	.byte	W06
	.byte		        Cn2 
	.byte	W06
	.byte		        As1 
	.byte	W06
	.byte		        Cn2 
	.byte	W01
	.byte	PEND
@ 004   ----------------------------------------
Voyage_of_380000_km_6_004:
	.byte	W17
	.byte		N11   , Ds1 , v080
	.byte	W12
	.byte		N05   , Gs1 
	.byte	W06
	.byte		        Cn2 
	.byte	W06
	.byte		        As1 
	.byte	W06
	.byte		        Cn2 
	.byte	W18
	.byte		N11   , Dn1 
	.byte	W12
	.byte		N05   , Gs1 
	.byte	W06
	.byte		        Cn2 
	.byte	W06
	.byte		        As1 
	.byte	W06
	.byte		        Cn2 
	.byte	W01
	.byte	PEND
@ 005   ----------------------------------------
Voyage_of_380000_km_6_005:
	.byte	W17
	.byte		N11   , Dn1 , v080
	.byte	W12
	.byte		N05   , Gs1 
	.byte	W06
	.byte		        Cn2 
	.byte	W06
	.byte		        As1 
	.byte	W06
	.byte		        Cn2 
	.byte	W18
	.byte		N11   , Dn1 
	.byte	W12
	.byte		N05   , Gs1 
	.byte	W06
	.byte		        Cn2 
	.byte	W06
	.byte		        As1 
	.byte	W06
	.byte		        Cn2 
	.byte	W01
	.byte	PEND
@ 006   ----------------------------------------
Voyage_of_380000_km_6_006:
	.byte	W17
	.byte		N11   , Dn1 , v080
	.byte	W12
	.byte		N05   , Gs1 
	.byte	W06
	.byte		        Cn2 
	.byte	W06
	.byte		        As1 
	.byte	W06
	.byte		        Cn2 
	.byte	W18
	.byte		N11   , As0 
	.byte	W12
	.byte		N05   , Gs1 
	.byte	W06
	.byte		        Cn2 
	.byte	W06
	.byte		        As1 
	.byte	W06
	.byte		        Cn2 
	.byte	W01
	.byte	PEND
@ 007   ----------------------------------------
Voyage_of_380000_km_6_007:
	.byte	W17
	.byte		N11   , As0 , v080
	.byte	W12
	.byte		N05   , Gs1 
	.byte	W06
	.byte		        Cn2 
	.byte	W06
	.byte		        As1 
	.byte	W06
	.byte		        Cn2 
	.byte	W18
	.byte		N11   , Cn1 
	.byte	W12
	.byte		N05   , Gs1 
	.byte	W06
	.byte		        Cn2 
	.byte	W06
	.byte		        As1 
	.byte	W06
	.byte		        Cn2 
	.byte	W01
	.byte	PEND
@ 008   ----------------------------------------
Voyage_of_380000_km_6_008:
	.byte	W17
	.byte		N11   , Cn1 , v080
	.byte	W12
	.byte		N05   , Gs1 
	.byte	W06
	.byte		        Cn2 
	.byte	W06
	.byte		        As1 
	.byte	W06
	.byte		        Cn2 
	.byte	W18
	.byte		N11   , Fn1 
	.byte	W12
	.byte		N05   , Gs1 
	.byte	W06
	.byte		        Cn2 
	.byte	W06
	.byte		        As1 
	.byte	W06
	.byte		        Cn2 
	.byte	W01
	.byte	PEND
@ 009   ----------------------------------------
	.byte	PATT
	 .word	Voyage_of_380000_km_6_001
@ 010   ----------------------------------------
	.byte	PATT
	 .word	Voyage_of_380000_km_6_002
@ 011   ----------------------------------------
	.byte	PATT
	 .word	Voyage_of_380000_km_6_003
@ 012   ----------------------------------------
	.byte	PATT
	 .word	Voyage_of_380000_km_6_004
@ 013   ----------------------------------------
	.byte	PATT
	 .word	Voyage_of_380000_km_6_005
@ 014   ----------------------------------------
	.byte	PATT
	 .word	Voyage_of_380000_km_6_006
@ 015   ----------------------------------------
	.byte	PATT
	 .word	Voyage_of_380000_km_6_007
@ 016   ----------------------------------------
Voyage_of_380000_km_6_016:
	.byte	W17
	.byte		N11   , Cn1 , v080
	.byte	W12
	.byte		N05   , Gs1 
	.byte	W06
	.byte		        Cn2 
	.byte	W06
	.byte		        As1 
	.byte	W06
	.byte		        Cn2 
	.byte	W06
	.byte		N11   , Cs2 
	.byte	W12
	.byte		N11   
	.byte	W12
	.byte		N11   
	.byte	W12
	.byte		N11   
	.byte	W07
	.byte	PEND
@ 017   ----------------------------------------
Voyage_of_380000_km_6_017:
	.byte	W05
	.byte		N11   , Ds2 , v080
	.byte	W12
	.byte		N11   
	.byte	W12
	.byte		N11   
	.byte	W12
	.byte		N11   
	.byte	W12
	.byte		        Fn2 
	.byte	W12
	.byte		N11   
	.byte	W12
	.byte		N11   
	.byte	W12
	.byte		N11   
	.byte	W07
	.byte	PEND
@ 018   ----------------------------------------
Voyage_of_380000_km_6_018:
	.byte	W05
	.byte		N11   , Fn2 , v080
	.byte	W12
	.byte		N11   
	.byte	W12
	.byte		N11   
	.byte	W12
	.byte		N11   
	.byte	W12
	.byte		        Cs2 
	.byte	W12
	.byte		N11   
	.byte	W12
	.byte		N11   
	.byte	W12
	.byte		N11   
	.byte	W07
	.byte	PEND
@ 019   ----------------------------------------
	.byte	PATT
	 .word	Voyage_of_380000_km_6_017
@ 020   ----------------------------------------
	.byte	PATT
	 .word	Voyage_of_380000_km_6_018
@ 021   ----------------------------------------
	.byte	PATT
	 .word	Voyage_of_380000_km_6_017
@ 022   ----------------------------------------
Voyage_of_380000_km_6_022:
	.byte	W05
	.byte		N11   , Fn2 , v080
	.byte	W12
	.byte		N11   
	.byte	W12
	.byte		N11   
	.byte	W12
	.byte		N11   
	.byte	W12
	.byte		        En2 
	.byte	W12
	.byte		N11   
	.byte	W12
	.byte		N11   
	.byte	W12
	.byte		N11   
	.byte	W07
	.byte	PEND
@ 023   ----------------------------------------
Voyage_of_380000_km_6_023:
	.byte	W05
	.byte		N11   , En2 , v080
	.byte	W12
	.byte		N11   
	.byte	W12
	.byte		N11   
	.byte	W12
	.byte		N11   
	.byte	W12
	.byte		        Fn2 
	.byte	W12
	.byte		N11   
	.byte	W12
	.byte		N11   
	.byte	W12
	.byte		N11   
	.byte	W07
	.byte	PEND
@ 024   ----------------------------------------
	.byte	PATT
	 .word	Voyage_of_380000_km_6_018
@ 025   ----------------------------------------
	.byte	PATT
	 .word	Voyage_of_380000_km_6_017
@ 026   ----------------------------------------
	.byte	PATT
	 .word	Voyage_of_380000_km_6_018
@ 027   ----------------------------------------
	.byte	PATT
	 .word	Voyage_of_380000_km_6_017
@ 028   ----------------------------------------
	.byte	PATT
	 .word	Voyage_of_380000_km_6_018
@ 029   ----------------------------------------
	.byte	PATT
	 .word	Voyage_of_380000_km_6_017
@ 030   ----------------------------------------
	.byte	PATT
	 .word	Voyage_of_380000_km_6_022
@ 031   ----------------------------------------
	.byte	PATT
	 .word	Voyage_of_380000_km_6_023
@ 032   ----------------------------------------
Voyage_of_380000_km_6_032:
	.byte	W05
	.byte		N11   , Fn2 , v080
	.byte	W12
	.byte		N11   
	.byte	W12
	.byte		N11   
	.byte	W12
	.byte		N11   
	.byte	W12
	.byte		N11   
	.byte	W12
	.byte		N11   
	.byte	W12
	.byte		N11   
	.byte	W12
	.byte		N11   
	.byte	W07
	.byte	PEND
@ 033   ----------------------------------------
Voyage_of_380000_km_6_033:
	.byte	W05
	.byte		N11   , Fn2 , v080
	.byte	W12
	.byte		N11   
	.byte	W12
	.byte		N11   
	.byte	W12
	.byte		N11   
	.byte	W12
	.byte		        Ds2 
	.byte	W12
	.byte		N11   
	.byte	W12
	.byte		N11   
	.byte	W12
	.byte		N11   
	.byte	W07
	.byte	PEND
@ 034   ----------------------------------------
Voyage_of_380000_km_6_034:
	.byte	W05
	.byte		N11   , Ds2 , v080
	.byte	W12
	.byte		N11   
	.byte	W12
	.byte		N11   
	.byte	W12
	.byte		N11   
	.byte	W12
	.byte		        Cs2 
	.byte	W12
	.byte		N11   
	.byte	W12
	.byte		N11   
	.byte	W12
	.byte		N11   
	.byte	W07
	.byte	PEND
@ 035   ----------------------------------------
Voyage_of_380000_km_6_035:
	.byte	W05
	.byte		N11   , Cs2 , v080
	.byte	W12
	.byte		N11   
	.byte	W12
	.byte		N11   
	.byte	W12
	.byte		N11   
	.byte	W12
	.byte		N23   
	.byte	W24
	.byte		N23   
	.byte	W19
	.byte	PEND
@ 036   ----------------------------------------
Voyage_of_380000_km_6_036:
	.byte	W05
	.byte		N23   , Cs2 , v080
	.byte	W24
	.byte		        Ds2 
	.byte	W24
	.byte		N11   , Fn2 
	.byte	W12
	.byte		N11   
	.byte	W12
	.byte		N11   
	.byte	W12
	.byte		N11   
	.byte	W07
	.byte	PEND
@ 037   ----------------------------------------
	.byte	PATT
	 .word	Voyage_of_380000_km_6_033
@ 038   ----------------------------------------
	.byte	PATT
	 .word	Voyage_of_380000_km_6_034
@ 039   ----------------------------------------
	.byte	PATT
	 .word	Voyage_of_380000_km_6_035
@ 040   ----------------------------------------
	.byte	PATT
	 .word	Voyage_of_380000_km_6_036
@ 041   ----------------------------------------
	.byte	PATT
	 .word	Voyage_of_380000_km_6_033
@ 042   ----------------------------------------
	.byte	PATT
	 .word	Voyage_of_380000_km_6_034
@ 043   ----------------------------------------
	.byte	PATT
	 .word	Voyage_of_380000_km_6_035
@ 044   ----------------------------------------
	.byte	PATT
	 .word	Voyage_of_380000_km_6_036
@ 045   ----------------------------------------
	.byte	PATT
	 .word	Voyage_of_380000_km_6_033
@ 046   ----------------------------------------
Voyage_of_380000_km_6_046:
	.byte	W05
	.byte		N11   , Ds2 , v080
	.byte	W12
	.byte		N11   
	.byte	W12
	.byte		N11   
	.byte	W12
	.byte		N11   
	.byte	W12
	.byte		        Cn2 
	.byte	W12
	.byte		N11   
	.byte	W12
	.byte		N11   
	.byte	W12
	.byte		N11   
	.byte	W07
	.byte	PEND
@ 047   ----------------------------------------
Voyage_of_380000_km_6_047:
	.byte	W05
	.byte		N11   , Cn2 , v080
	.byte	W12
	.byte		N11   
	.byte	W12
	.byte		N11   
	.byte	W12
	.byte		N11   
	.byte	W12
	.byte		N11   
	.byte	W12
	.byte		N11   
	.byte	W12
	.byte		N11   
	.byte	W12
	.byte		N11   
	.byte	W07
	.byte	PEND
@ 048   ----------------------------------------
Voyage_of_380000_km_6_048:
	.byte	W05
	.byte		N11   , Cn2 , v080
	.byte	W12
	.byte		N11   
	.byte	W12
	.byte		N11   
	.byte	W12
	.byte		N11   
	.byte	W54
	.byte	W01
	.byte	PEND
@ 049   ----------------------------------------
	.byte	W96
@ 050   ----------------------------------------
	.byte	W96
@ 051   ----------------------------------------
	.byte	W96
@ 052   ----------------------------------------
	.byte	W96
@ 053   ----------------------------------------
	.byte	W96
@ 054   ----------------------------------------
	.byte	W96
@ 055   ----------------------------------------
	.byte	W96
@ 056   ----------------------------------------
	.byte	W96
@ 057   ----------------------------------------
	.byte	W96
@ 058   ----------------------------------------
	.byte	W96
@ 059   ----------------------------------------
	.byte	W96
@ 060   ----------------------------------------
	.byte	W96
@ 061   ----------------------------------------
	.byte	W96
@ 062   ----------------------------------------
	.byte	W96
@ 063   ----------------------------------------
	.byte	W96
@ 064   ----------------------------------------
Voyage_of_380000_km_6_064:
	.byte	W05
	.byte		N05   , An1 , v080
	.byte	W06
	.byte		        Cn2 
	.byte	W06
	.byte		        Gn1 
	.byte	W06
	.byte		        An1 
	.byte	W06
	.byte		        Fn1 
	.byte	W06
	.byte		        Gn1 
	.byte	W06
	.byte		        En1 
	.byte	W06
	.byte		        Fn1 
	.byte	W06
	.byte		        Dn1 
	.byte	W06
	.byte		        Gn1 
	.byte	W06
	.byte		N11   , Dn1 
	.byte		N05   , An1 
	.byte	W06
	.byte		        Cn2 
	.byte	W06
	.byte		        Fn1 
	.byte		N05   , Dn2 
	.byte	W06
	.byte		        An1 
	.byte		N05   , Cn2 
	.byte	W06
	.byte		        Gn1 
	.byte		N05   , An1 
	.byte	W06
	.byte		        Gn1 
	.byte		N05   , An1 
	.byte	W01
	.byte	PEND
@ 065   ----------------------------------------
Voyage_of_380000_km_6_065:
	.byte	W05
	.byte		N05   , Dn1 , v080
	.byte	W06
	.byte		        Gn1 
	.byte	W06
	.byte		N11   , Dn1 
	.byte		N05   , An1 
	.byte	W06
	.byte		        Cn2 
	.byte	W06
	.byte		        Fn1 
	.byte		N05   , Dn2 
	.byte	W06
	.byte		        An1 
	.byte		N05   , Cn2 
	.byte	W06
	.byte		        Gn1 
	.byte		N05   , An1 
	.byte	W06
	.byte		        Gn1 
	.byte		N05   , An1 
	.byte	W06
	.byte		        Dn1 
	.byte	W06
	.byte		        Gn1 
	.byte	W06
	.byte		N11   , Dn1 
	.byte		N05   , An1 
	.byte	W06
	.byte		        Cn2 
	.byte	W06
	.byte		        Fn1 
	.byte		N05   , Dn2 
	.byte	W06
	.byte		        An1 
	.byte		N05   , Cn2 
	.byte	W06
	.byte		        Gn1 
	.byte		N05   , An1 
	.byte	W06
	.byte		        Gn1 
	.byte		N05   , An1 
	.byte	W01
	.byte	PEND
@ 066   ----------------------------------------
	.byte	PATT
	 .word	Voyage_of_380000_km_6_065
@ 067   ----------------------------------------
	.byte	PATT
	 .word	Voyage_of_380000_km_6_065
@ 068   ----------------------------------------
	.byte	PATT
	 .word	Voyage_of_380000_km_6_065
@ 069   ----------------------------------------
	.byte	PATT
	 .word	Voyage_of_380000_km_6_065
@ 070   ----------------------------------------
	.byte	PATT
	 .word	Voyage_of_380000_km_6_065
@ 071   ----------------------------------------
	.byte	PATT
	 .word	Voyage_of_380000_km_6_065
@ 072   ----------------------------------------
	.byte	PATT
	 .word	Voyage_of_380000_km_6_065
@ 073   ----------------------------------------
	.byte	PATT
	 .word	Voyage_of_380000_km_6_065
@ 074   ----------------------------------------
	.byte	PATT
	 .word	Voyage_of_380000_km_6_065
@ 075   ----------------------------------------
	.byte	PATT
	 .word	Voyage_of_380000_km_6_065
@ 076   ----------------------------------------
	.byte	PATT
	 .word	Voyage_of_380000_km_6_065
@ 077   ----------------------------------------
	.byte	PATT
	 .word	Voyage_of_380000_km_6_065
@ 078   ----------------------------------------
	.byte	PATT
	 .word	Voyage_of_380000_km_6_065
@ 079   ----------------------------------------
	.byte	PATT
	 .word	Voyage_of_380000_km_6_065
@ 080   ----------------------------------------
Voyage_of_380000_km_6_080:
	.byte	W05
	.byte		N05   , Dn1 , v080
	.byte	W06
	.byte		        Gn1 
	.byte	W06
	.byte		N11   , Dn1 
	.byte		N05   , An1 
	.byte	W06
	.byte		        Cn2 
	.byte	W06
	.byte		        Fn1 
	.byte		N05   , Dn2 
	.byte	W06
	.byte		        An1 
	.byte		N05   , Cn2 
	.byte	W06
	.byte		        Gn1 
	.byte		N05   , An1 
	.byte	W06
	.byte		        Gn1 
	.byte		N05   , An1 
	.byte	W06
	.byte		N11   , As1 
	.byte	W12
	.byte		N11   
	.byte	W12
	.byte		N11   
	.byte	W12
	.byte		N11   
	.byte	W07
	.byte	PEND
@ 081   ----------------------------------------
Voyage_of_380000_km_6_081:
	.byte	W05
	.byte		N11   , Cn2 , v080
	.byte	W12
	.byte		N11   
	.byte	W12
	.byte		N11   
	.byte	W12
	.byte		N11   
	.byte	W12
	.byte		        Dn2 
	.byte	W12
	.byte		N11   
	.byte	W12
	.byte		N11   
	.byte	W12
	.byte		N11   
	.byte	W07
	.byte	PEND
@ 082   ----------------------------------------
Voyage_of_380000_km_6_082:
	.byte	W05
	.byte		N11   , Dn2 , v080
	.byte	W12
	.byte		N11   
	.byte	W12
	.byte		N11   
	.byte	W12
	.byte		N11   
	.byte	W12
	.byte		        As1 
	.byte	W12
	.byte		N11   
	.byte	W12
	.byte		N11   
	.byte	W12
	.byte		N11   
	.byte	W07
	.byte	PEND
@ 083   ----------------------------------------
	.byte	PATT
	 .word	Voyage_of_380000_km_6_081
@ 084   ----------------------------------------
	.byte	PATT
	 .word	Voyage_of_380000_km_6_082
@ 085   ----------------------------------------
	.byte	PATT
	 .word	Voyage_of_380000_km_6_081
@ 086   ----------------------------------------
Voyage_of_380000_km_6_086:
	.byte	W05
	.byte		N11   , Dn2 , v080
	.byte	W12
	.byte		N11   
	.byte	W12
	.byte		N11   
	.byte	W12
	.byte		N11   
	.byte	W12
	.byte		        Cs2 
	.byte	W12
	.byte		N11   
	.byte	W12
	.byte		N11   
	.byte	W12
	.byte		N11   
	.byte	W07
	.byte	PEND
@ 087   ----------------------------------------
Voyage_of_380000_km_6_087:
	.byte	W05
	.byte		N11   , Cs2 , v080
	.byte	W12
	.byte		N11   
	.byte	W12
	.byte		N11   
	.byte	W12
	.byte		N11   
	.byte	W12
	.byte		        Dn2 
	.byte	W12
	.byte		N11   
	.byte	W12
	.byte		N11   
	.byte	W12
	.byte		N11   
	.byte	W07
	.byte	PEND
@ 088   ----------------------------------------
	.byte	PATT
	 .word	Voyage_of_380000_km_6_082
@ 089   ----------------------------------------
	.byte	PATT
	 .word	Voyage_of_380000_km_6_081
@ 090   ----------------------------------------
	.byte	PATT
	 .word	Voyage_of_380000_km_6_082
@ 091   ----------------------------------------
	.byte	PATT
	 .word	Voyage_of_380000_km_6_081
@ 092   ----------------------------------------
	.byte	PATT
	 .word	Voyage_of_380000_km_6_082
@ 093   ----------------------------------------
	.byte	PATT
	 .word	Voyage_of_380000_km_6_081
@ 094   ----------------------------------------
	.byte	PATT
	 .word	Voyage_of_380000_km_6_086
@ 095   ----------------------------------------
	.byte	PATT
	 .word	Voyage_of_380000_km_6_087
@ 096   ----------------------------------------
Voyage_of_380000_km_6_096:
	.byte	W05
	.byte		N11   , Dn2 , v080
	.byte	W12
	.byte		N11   
	.byte	W12
	.byte		N11   
	.byte	W12
	.byte		N11   
	.byte	W54
	.byte	W01
	.byte	PEND
@ 097   ----------------------------------------
	.byte	W96
@ 098   ----------------------------------------
	.byte	W96
@ 099   ----------------------------------------
	.byte	W96
@ 100   ----------------------------------------
	.byte	W96
@ 101   ----------------------------------------
	.byte	W96
@ 102   ----------------------------------------
	.byte	W96
@ 103   ----------------------------------------
	.byte	W96
@ 104   ----------------------------------------
	.byte	W96
@ 105   ----------------------------------------
	.byte	W96
@ 106   ----------------------------------------
	.byte	W96
@ 107   ----------------------------------------
	.byte	W96
@ 108   ----------------------------------------
	.byte	W96
@ 109   ----------------------------------------
	.byte	W96
@ 110   ----------------------------------------
	.byte	W96
@ 111   ----------------------------------------
	.byte	W96
@ 112   ----------------------------------------
	.byte	PATT
	 .word	Voyage_of_380000_km_6_064
@ 113   ----------------------------------------
	.byte	PATT
	 .word	Voyage_of_380000_km_6_065
@ 114   ----------------------------------------
	.byte	PATT
	 .word	Voyage_of_380000_km_6_065
@ 115   ----------------------------------------
	.byte	PATT
	 .word	Voyage_of_380000_km_6_065
@ 116   ----------------------------------------
	.byte	PATT
	 .word	Voyage_of_380000_km_6_065
@ 117   ----------------------------------------
	.byte	PATT
	 .word	Voyage_of_380000_km_6_065
@ 118   ----------------------------------------
	.byte	PATT
	 .word	Voyage_of_380000_km_6_065
@ 119   ----------------------------------------
	.byte	PATT
	 .word	Voyage_of_380000_km_6_065
@ 120   ----------------------------------------
	.byte	PATT
	 .word	Voyage_of_380000_km_6_065
@ 121   ----------------------------------------
	.byte	PATT
	 .word	Voyage_of_380000_km_6_065
@ 122   ----------------------------------------
	.byte	PATT
	 .word	Voyage_of_380000_km_6_065
@ 123   ----------------------------------------
	.byte	PATT
	 .word	Voyage_of_380000_km_6_065
@ 124   ----------------------------------------
	.byte	PATT
	 .word	Voyage_of_380000_km_6_065
@ 125   ----------------------------------------
	.byte	PATT
	 .word	Voyage_of_380000_km_6_065
@ 126   ----------------------------------------
	.byte	PATT
	 .word	Voyage_of_380000_km_6_065
@ 127   ----------------------------------------
	.byte	PATT
	 .word	Voyage_of_380000_km_6_065
@ 128   ----------------------------------------
Voyage_of_380000_km_6_128:
	.byte	W05
	.byte		N05   , Dn1 , v080
	.byte	W06
	.byte		        Gn1 
	.byte	W06
	.byte		N11   , Dn1 
	.byte		N05   , An1 
	.byte	W06
	.byte		        Cn2 
	.byte	W06
	.byte		        Fn1 
	.byte		N05   , Dn2 
	.byte	W06
	.byte		        An1 
	.byte		N05   , Cn2 
	.byte	W06
	.byte		        Gn1 
	.byte		N05   , An1 
	.byte	W06
	.byte		        Gn1 
	.byte		N05   , An1 
	.byte	W06
	.byte		        Gs1 
	.byte	W06
	.byte		        Cs2 
	.byte	W06
	.byte		N11   , Gs1 
	.byte		N05   , Ds2 
	.byte	W06
	.byte		        Fs2 
	.byte	W06
	.byte		        Bn1 
	.byte		N05   , Gs2 
	.byte	W06
	.byte		        Ds2 
	.byte		N05   , Fs2 
	.byte	W06
	.byte		        Cs2 
	.byte		N05   , Ds2 
	.byte	W06
	.byte		        Cs2 
	.byte		N05   , Ds2 
	.byte	W01
	.byte	PEND
@ 129   ----------------------------------------
Voyage_of_380000_km_6_129:
	.byte	W05
	.byte		N05   , Gs1 , v080
	.byte	W06
	.byte		        Cs2 
	.byte	W06
	.byte		N11   , Gs1 
	.byte		N05   , Ds2 
	.byte	W06
	.byte		        Fs2 
	.byte	W06
	.byte		        Bn1 
	.byte		N05   , Gs2 
	.byte	W06
	.byte		        Ds2 
	.byte		N05   , Fs2 
	.byte	W06
	.byte		        Cs2 
	.byte		N05   , Ds2 
	.byte	W06
	.byte		        Cs2 
	.byte		N05   , Ds2 
	.byte	W06
	.byte		        Gs1 
	.byte	W06
	.byte		        Cs2 
	.byte	W06
	.byte		N11   , Gs1 
	.byte		N05   , Ds2 
	.byte	W06
	.byte		        Fs2 
	.byte	W06
	.byte		        Bn1 
	.byte		N05   , Gs2 
	.byte	W06
	.byte		        Ds2 
	.byte		N05   , Fs2 
	.byte	W06
	.byte		        Cs2 
	.byte		N05   , Ds2 
	.byte	W06
	.byte		        Cs2 
	.byte		N05   , Ds2 
	.byte	W01
	.byte	PEND
@ 130   ----------------------------------------
	.byte	PATT
	 .word	Voyage_of_380000_km_6_129
@ 131   ----------------------------------------
	.byte	PATT
	 .word	Voyage_of_380000_km_6_129
@ 132   ----------------------------------------
	.byte	PATT
	 .word	Voyage_of_380000_km_6_129
@ 133   ----------------------------------------
	.byte	PATT
	 .word	Voyage_of_380000_km_6_129
@ 134   ----------------------------------------
	.byte	PATT
	 .word	Voyage_of_380000_km_6_129
@ 135   ----------------------------------------
	.byte	PATT
	 .word	Voyage_of_380000_km_6_129
@ 136   ----------------------------------------
	.byte	PATT
	 .word	Voyage_of_380000_km_6_129
@ 137   ----------------------------------------
	.byte	PATT
	 .word	Voyage_of_380000_km_6_129
@ 138   ----------------------------------------
	.byte	PATT
	 .word	Voyage_of_380000_km_6_129
@ 139   ----------------------------------------
	.byte	PATT
	 .word	Voyage_of_380000_km_6_129
@ 140   ----------------------------------------
	.byte	PATT
	 .word	Voyage_of_380000_km_6_129
@ 141   ----------------------------------------
	.byte	PATT
	 .word	Voyage_of_380000_km_6_129
@ 142   ----------------------------------------
	.byte	PATT
	 .word	Voyage_of_380000_km_6_129
@ 143   ----------------------------------------
	.byte	PATT
	 .word	Voyage_of_380000_km_6_129
@ 144   ----------------------------------------
	.byte	W05
	.byte		N05   , Gs1 , v080
	.byte	W06
	.byte		        Cs2 
	.byte	W06
	.byte		N11   , Gs1 
	.byte		N05   , Ds2 
	.byte	W06
	.byte		        Fs2 
	.byte	W06
	.byte		        Bn1 
	.byte		N05   , Gs2 
	.byte	W06
	.byte		        Ds2 
	.byte		N05   , Fs2 
	.byte	W06
	.byte		        Cs2 
	.byte		N05   , Ds2 
	.byte	W06
	.byte		        Cs2 
	.byte		N05   , Ds2 
	.byte	W18
	.byte		N11   , Fn1 
	.byte	W12
	.byte		N05   , Gs1 
	.byte	W06
	.byte		        Cn2 
	.byte	W06
	.byte		        As1 
	.byte	W06
	.byte		        Cn2 
	.byte	W01
@ 145   ----------------------------------------
	.byte	PATT
	 .word	Voyage_of_380000_km_6_001
@ 146   ----------------------------------------
	.byte	PATT
	 .word	Voyage_of_380000_km_6_002
@ 147   ----------------------------------------
	.byte	PATT
	 .word	Voyage_of_380000_km_6_003
@ 148   ----------------------------------------
	.byte	PATT
	 .word	Voyage_of_380000_km_6_004
@ 149   ----------------------------------------
	.byte	PATT
	 .word	Voyage_of_380000_km_6_005
@ 150   ----------------------------------------
	.byte	PATT
	 .word	Voyage_of_380000_km_6_006
@ 151   ----------------------------------------
	.byte	PATT
	 .word	Voyage_of_380000_km_6_007
@ 152   ----------------------------------------
	.byte	PATT
	 .word	Voyage_of_380000_km_6_008
@ 153   ----------------------------------------
	.byte	PATT
	 .word	Voyage_of_380000_km_6_001
@ 154   ----------------------------------------
	.byte	PATT
	 .word	Voyage_of_380000_km_6_002
@ 155   ----------------------------------------
	.byte	PATT
	 .word	Voyage_of_380000_km_6_003
@ 156   ----------------------------------------
	.byte	PATT
	 .word	Voyage_of_380000_km_6_004
@ 157   ----------------------------------------
	.byte	PATT
	 .word	Voyage_of_380000_km_6_005
@ 158   ----------------------------------------
	.byte	PATT
	 .word	Voyage_of_380000_km_6_006
@ 159   ----------------------------------------
	.byte	PATT
	 .word	Voyage_of_380000_km_6_007
@ 160   ----------------------------------------
	.byte	PATT
	 .word	Voyage_of_380000_km_6_016
@ 161   ----------------------------------------
	.byte	PATT
	 .word	Voyage_of_380000_km_6_017
@ 162   ----------------------------------------
	.byte	PATT
	 .word	Voyage_of_380000_km_6_018
@ 163   ----------------------------------------
	.byte	PATT
	 .word	Voyage_of_380000_km_6_017
@ 164   ----------------------------------------
	.byte	PATT
	 .word	Voyage_of_380000_km_6_018
@ 165   ----------------------------------------
	.byte	PATT
	 .word	Voyage_of_380000_km_6_017
@ 166   ----------------------------------------
	.byte	PATT
	 .word	Voyage_of_380000_km_6_022
@ 167   ----------------------------------------
	.byte	PATT
	 .word	Voyage_of_380000_km_6_023
@ 168   ----------------------------------------
	.byte	PATT
	 .word	Voyage_of_380000_km_6_018
@ 169   ----------------------------------------
	.byte	PATT
	 .word	Voyage_of_380000_km_6_017
@ 170   ----------------------------------------
	.byte	PATT
	 .word	Voyage_of_380000_km_6_018
@ 171   ----------------------------------------
	.byte	PATT
	 .word	Voyage_of_380000_km_6_017
@ 172   ----------------------------------------
	.byte	PATT
	 .word	Voyage_of_380000_km_6_018
@ 173   ----------------------------------------
	.byte	PATT
	 .word	Voyage_of_380000_km_6_017
@ 174   ----------------------------------------
	.byte	PATT
	 .word	Voyage_of_380000_km_6_022
@ 175   ----------------------------------------
	.byte	PATT
	 .word	Voyage_of_380000_km_6_023
@ 176   ----------------------------------------
	.byte	PATT
	 .word	Voyage_of_380000_km_6_032
@ 177   ----------------------------------------
	.byte	PATT
	 .word	Voyage_of_380000_km_6_033
@ 178   ----------------------------------------
	.byte	PATT
	 .word	Voyage_of_380000_km_6_034
@ 179   ----------------------------------------
	.byte	PATT
	 .word	Voyage_of_380000_km_6_035
@ 180   ----------------------------------------
	.byte	PATT
	 .word	Voyage_of_380000_km_6_036
@ 181   ----------------------------------------
	.byte	PATT
	 .word	Voyage_of_380000_km_6_033
@ 182   ----------------------------------------
	.byte	PATT
	 .word	Voyage_of_380000_km_6_034
@ 183   ----------------------------------------
	.byte	PATT
	 .word	Voyage_of_380000_km_6_035
@ 184   ----------------------------------------
	.byte	PATT
	 .word	Voyage_of_380000_km_6_036
@ 185   ----------------------------------------
	.byte	PATT
	 .word	Voyage_of_380000_km_6_033
@ 186   ----------------------------------------
	.byte	PATT
	 .word	Voyage_of_380000_km_6_034
@ 187   ----------------------------------------
	.byte	PATT
	 .word	Voyage_of_380000_km_6_035
@ 188   ----------------------------------------
	.byte	PATT
	 .word	Voyage_of_380000_km_6_036
@ 189   ----------------------------------------
	.byte	PATT
	 .word	Voyage_of_380000_km_6_033
@ 190   ----------------------------------------
	.byte	PATT
	 .word	Voyage_of_380000_km_6_046
@ 191   ----------------------------------------
	.byte	PATT
	 .word	Voyage_of_380000_km_6_047
@ 192   ----------------------------------------
	.byte	PATT
	 .word	Voyage_of_380000_km_6_048
@ 193   ----------------------------------------
	.byte	W96
@ 194   ----------------------------------------
	.byte	W96
@ 195   ----------------------------------------
	.byte	W96
@ 196   ----------------------------------------
	.byte	W96
@ 197   ----------------------------------------
	.byte	W96
@ 198   ----------------------------------------
	.byte	W96
@ 199   ----------------------------------------
	.byte	W96
@ 200   ----------------------------------------
	.byte	W96
@ 201   ----------------------------------------
	.byte	W96
@ 202   ----------------------------------------
	.byte	W96
@ 203   ----------------------------------------
	.byte	W96
@ 204   ----------------------------------------
	.byte	W96
@ 205   ----------------------------------------
	.byte	W96
@ 206   ----------------------------------------
	.byte	W96
@ 207   ----------------------------------------
	.byte	W96
@ 208   ----------------------------------------
	.byte	PATT
	 .word	Voyage_of_380000_km_6_064
@ 209   ----------------------------------------
	.byte	PATT
	 .word	Voyage_of_380000_km_6_065
@ 210   ----------------------------------------
	.byte	PATT
	 .word	Voyage_of_380000_km_6_065
@ 211   ----------------------------------------
	.byte	PATT
	 .word	Voyage_of_380000_km_6_065
@ 212   ----------------------------------------
	.byte	PATT
	 .word	Voyage_of_380000_km_6_065
@ 213   ----------------------------------------
	.byte	PATT
	 .word	Voyage_of_380000_km_6_065
@ 214   ----------------------------------------
	.byte	PATT
	 .word	Voyage_of_380000_km_6_065
@ 215   ----------------------------------------
	.byte	PATT
	 .word	Voyage_of_380000_km_6_065
@ 216   ----------------------------------------
	.byte	PATT
	 .word	Voyage_of_380000_km_6_065
@ 217   ----------------------------------------
	.byte	PATT
	 .word	Voyage_of_380000_km_6_065
@ 218   ----------------------------------------
	.byte	PATT
	 .word	Voyage_of_380000_km_6_065
@ 219   ----------------------------------------
	.byte	PATT
	 .word	Voyage_of_380000_km_6_065
@ 220   ----------------------------------------
	.byte	PATT
	 .word	Voyage_of_380000_km_6_065
@ 221   ----------------------------------------
	.byte	PATT
	 .word	Voyage_of_380000_km_6_065
@ 222   ----------------------------------------
	.byte	PATT
	 .word	Voyage_of_380000_km_6_065
@ 223   ----------------------------------------
	.byte	PATT
	 .word	Voyage_of_380000_km_6_065
@ 224   ----------------------------------------
	.byte	PATT
	 .word	Voyage_of_380000_km_6_080
@ 225   ----------------------------------------
	.byte	PATT
	 .word	Voyage_of_380000_km_6_081
@ 226   ----------------------------------------
	.byte	PATT
	 .word	Voyage_of_380000_km_6_082
@ 227   ----------------------------------------
	.byte	PATT
	 .word	Voyage_of_380000_km_6_081
@ 228   ----------------------------------------
	.byte	PATT
	 .word	Voyage_of_380000_km_6_082
@ 229   ----------------------------------------
	.byte	PATT
	 .word	Voyage_of_380000_km_6_081
@ 230   ----------------------------------------
	.byte	PATT
	 .word	Voyage_of_380000_km_6_086
@ 231   ----------------------------------------
	.byte	PATT
	 .word	Voyage_of_380000_km_6_087
@ 232   ----------------------------------------
	.byte	PATT
	 .word	Voyage_of_380000_km_6_082
@ 233   ----------------------------------------
	.byte	PATT
	 .word	Voyage_of_380000_km_6_081
@ 234   ----------------------------------------
	.byte	PATT
	 .word	Voyage_of_380000_km_6_082
@ 235   ----------------------------------------
	.byte	PATT
	 .word	Voyage_of_380000_km_6_081
@ 236   ----------------------------------------
	.byte	PATT
	 .word	Voyage_of_380000_km_6_082
@ 237   ----------------------------------------
	.byte	PATT
	 .word	Voyage_of_380000_km_6_081
@ 238   ----------------------------------------
	.byte	PATT
	 .word	Voyage_of_380000_km_6_086
@ 239   ----------------------------------------
	.byte	PATT
	 .word	Voyage_of_380000_km_6_087
@ 240   ----------------------------------------
	.byte	PATT
	 .word	Voyage_of_380000_km_6_096
@ 241   ----------------------------------------
	.byte	W96
@ 242   ----------------------------------------
	.byte	W96
@ 243   ----------------------------------------
	.byte	W96
@ 244   ----------------------------------------
	.byte	W96
@ 245   ----------------------------------------
	.byte	W96
@ 246   ----------------------------------------
	.byte	W96
@ 247   ----------------------------------------
	.byte	W96
@ 248   ----------------------------------------
	.byte	W96
@ 249   ----------------------------------------
	.byte	W96
@ 250   ----------------------------------------
	.byte	W96
@ 251   ----------------------------------------
	.byte	W96
@ 252   ----------------------------------------
	.byte	W96
@ 253   ----------------------------------------
	.byte	W96
@ 254   ----------------------------------------
	.byte	W96
@ 255   ----------------------------------------
	.byte	W96
@ 256   ----------------------------------------
	.byte	PATT
	 .word	Voyage_of_380000_km_6_064
@ 257   ----------------------------------------
	.byte	PATT
	 .word	Voyage_of_380000_km_6_065
@ 258   ----------------------------------------
	.byte	PATT
	 .word	Voyage_of_380000_km_6_065
@ 259   ----------------------------------------
	.byte	PATT
	 .word	Voyage_of_380000_km_6_065
@ 260   ----------------------------------------
	.byte	PATT
	 .word	Voyage_of_380000_km_6_065
@ 261   ----------------------------------------
	.byte	PATT
	 .word	Voyage_of_380000_km_6_065
@ 262   ----------------------------------------
	.byte	PATT
	 .word	Voyage_of_380000_km_6_065
@ 263   ----------------------------------------
	.byte	PATT
	 .word	Voyage_of_380000_km_6_065
@ 264   ----------------------------------------
	.byte	PATT
	 .word	Voyage_of_380000_km_6_065
@ 265   ----------------------------------------
	.byte	PATT
	 .word	Voyage_of_380000_km_6_065
@ 266   ----------------------------------------
	.byte	PATT
	 .word	Voyage_of_380000_km_6_065
@ 267   ----------------------------------------
	.byte	PATT
	 .word	Voyage_of_380000_km_6_065
@ 268   ----------------------------------------
	.byte	PATT
	 .word	Voyage_of_380000_km_6_065
@ 269   ----------------------------------------
	.byte	PATT
	 .word	Voyage_of_380000_km_6_065
@ 270   ----------------------------------------
	.byte	PATT
	 .word	Voyage_of_380000_km_6_065
@ 271   ----------------------------------------
	.byte	PATT
	 .word	Voyage_of_380000_km_6_065
@ 272   ----------------------------------------
	.byte	PATT
	 .word	Voyage_of_380000_km_6_128
@ 273   ----------------------------------------
	.byte	PATT
	 .word	Voyage_of_380000_km_6_129
@ 274   ----------------------------------------
	.byte	PATT
	 .word	Voyage_of_380000_km_6_129
@ 275   ----------------------------------------
	.byte	PATT
	 .word	Voyage_of_380000_km_6_129
@ 276   ----------------------------------------
	.byte	PATT
	 .word	Voyage_of_380000_km_6_129
@ 277   ----------------------------------------
	.byte	PATT
	 .word	Voyage_of_380000_km_6_129
@ 278   ----------------------------------------
	.byte	PATT
	 .word	Voyage_of_380000_km_6_129
@ 279   ----------------------------------------
	.byte	PATT
	 .word	Voyage_of_380000_km_6_129
@ 280   ----------------------------------------
	.byte	PATT
	 .word	Voyage_of_380000_km_6_129
@ 281   ----------------------------------------
	.byte	PATT
	 .word	Voyage_of_380000_km_6_129
@ 282   ----------------------------------------
	.byte	PATT
	 .word	Voyage_of_380000_km_6_129
@ 283   ----------------------------------------
	.byte	PATT
	 .word	Voyage_of_380000_km_6_129
@ 284   ----------------------------------------
	.byte	PATT
	 .word	Voyage_of_380000_km_6_129
@ 285   ----------------------------------------
	.byte	PATT
	 .word	Voyage_of_380000_km_6_129
@ 286   ----------------------------------------
	.byte	PATT
	 .word	Voyage_of_380000_km_6_129
@ 287   ----------------------------------------
	.byte	PATT
	 .word	Voyage_of_380000_km_6_129
@ 288   ----------------------------------------
	.byte	W05
	.byte		N05   , Gs1 , v080
	.byte	W06
	.byte		        Cs2 
	.byte	W06
	.byte		N11   , Gs1 
	.byte		N05   , Ds2 
	.byte	W06
	.byte		        Fs2 
	.byte	W06
	.byte		        Bn1 
	.byte		N05   , Gs2 
	.byte	W06
	.byte		        Ds2 
	.byte		N05   , Fs2 
	.byte	W06
	.byte		        Cs2 
	.byte		N05   , Ds2 
	.byte	W06
	.byte		        Cs2 
	.byte		N05   , Ds2 
	.byte	W30
	.byte	GOTO
	 .word	Voyage_of_380000_km_6_B1
Voyage_of_380000_km_6_B2:
	.byte	FINE

@**************** Track 7 (Midi-Chn.7) ****************@

Voyage_of_380000_km_7:
	.byte	KEYSH , Voyage_of_380000_km_key+0
Voyage_of_380000_km_7_B1:
@ 000   ----------------------------------------
	.byte		VOICE , 56
	.byte		PAN   , c_v+0
	.byte		VOL   , 127*Voyage_of_380000_km_mvl/mxv
	.byte	W96
@ 001   ----------------------------------------
	.byte	W96
@ 002   ----------------------------------------
	.byte	W96
@ 003   ----------------------------------------
	.byte	W96
@ 004   ----------------------------------------
	.byte	W96
@ 005   ----------------------------------------
	.byte	W96
@ 006   ----------------------------------------
	.byte	W96
@ 007   ----------------------------------------
	.byte	W96
@ 008   ----------------------------------------
	.byte	W96
@ 009   ----------------------------------------
	.byte	W96
@ 010   ----------------------------------------
	.byte	W96
@ 011   ----------------------------------------
	.byte	W96
@ 012   ----------------------------------------
	.byte	W96
@ 013   ----------------------------------------
	.byte	W96
@ 014   ----------------------------------------
	.byte	W96
@ 015   ----------------------------------------
	.byte	W96
@ 016   ----------------------------------------
	.byte	W96
@ 017   ----------------------------------------
	.byte	W96
@ 018   ----------------------------------------
	.byte	W96
@ 019   ----------------------------------------
	.byte	W96
@ 020   ----------------------------------------
	.byte	W96
@ 021   ----------------------------------------
	.byte	W96
@ 022   ----------------------------------------
	.byte	W96
@ 023   ----------------------------------------
	.byte	W96
@ 024   ----------------------------------------
	.byte	W96
@ 025   ----------------------------------------
	.byte	W96
@ 026   ----------------------------------------
	.byte	W96
@ 027   ----------------------------------------
	.byte	W96
@ 028   ----------------------------------------
	.byte	W96
@ 029   ----------------------------------------
	.byte	W96
@ 030   ----------------------------------------
	.byte	W96
@ 031   ----------------------------------------
	.byte	W96
@ 032   ----------------------------------------
Voyage_of_380000_km_7_032:
	.byte	W05
	.byte		N23   , Fn3 , v080
	.byte	W24
	.byte		        Gn3 
	.byte	W24
	.byte		N44   , Gs3 
	.byte	W42
	.byte	W01
	.byte	PEND
@ 033   ----------------------------------------
Voyage_of_380000_km_7_033:
	.byte	W17
	.byte		N11   , Cn3 , v080
	.byte	W12
	.byte		        Fn3 
	.byte	W12
	.byte		        Gs3 
	.byte	W12
	.byte		N23   , As3 
	.byte	W24
	.byte		        Cn4 
	.byte	W19
	.byte	PEND
@ 034   ----------------------------------------
Voyage_of_380000_km_7_034:
	.byte	W05
	.byte		N11   , Gn3 , v080
	.byte	W12
	.byte		        Fn3 
	.byte	W12
	.byte		N23   , Ds3 
	.byte	W24
	.byte		N92   , Fn3 
	.byte	W42
	.byte	W01
	.byte	PEND
@ 035   ----------------------------------------
Voyage_of_380000_km_7_035:
	.byte	W52
	.byte	W01
	.byte		N23   , Fn3 , v080
	.byte	W24
	.byte		N23   
	.byte	W19
	.byte	PEND
@ 036   ----------------------------------------
	.byte	PATT
	 .word	Voyage_of_380000_km_7_032
@ 037   ----------------------------------------
	.byte	PATT
	 .word	Voyage_of_380000_km_7_033
@ 038   ----------------------------------------
Voyage_of_380000_km_7_038:
	.byte	W05
	.byte		N11   , Fn3 , v080
	.byte	W12
	.byte		        Cn4 
	.byte	W12
	.byte		        Ds4 
	.byte	W12
	.byte		        Fn4 
	.byte	W12
	.byte		N92   , Cn4 
	.byte	W42
	.byte	W01
	.byte	PEND
@ 039   ----------------------------------------
	.byte	W96
@ 040   ----------------------------------------
	.byte	PATT
	 .word	Voyage_of_380000_km_7_032
@ 041   ----------------------------------------
	.byte	PATT
	 .word	Voyage_of_380000_km_7_033
@ 042   ----------------------------------------
	.byte	PATT
	 .word	Voyage_of_380000_km_7_034
@ 043   ----------------------------------------
	.byte	PATT
	 .word	Voyage_of_380000_km_7_035
@ 044   ----------------------------------------
	.byte	PATT
	 .word	Voyage_of_380000_km_7_032
@ 045   ----------------------------------------
	.byte	PATT
	 .word	Voyage_of_380000_km_7_033
@ 046   ----------------------------------------
Voyage_of_380000_km_7_046:
	.byte	W05
	.byte		N11   , Fn3 , v080
	.byte	W12
	.byte		        Cn4 
	.byte	W12
	.byte		        Ds4 
	.byte	W12
	.byte		TIE   , Fn4 
	.byte	W54
	.byte	W01
	.byte	PEND
@ 047   ----------------------------------------
	.byte	W52
	.byte		EOT   
	.byte	W01
	.byte		N44   , En4 
	.byte	W42
	.byte	W01
@ 048   ----------------------------------------
	.byte	W96
@ 049   ----------------------------------------
	.byte	W96
@ 050   ----------------------------------------
	.byte	W96
@ 051   ----------------------------------------
	.byte	W96
@ 052   ----------------------------------------
	.byte	W96
@ 053   ----------------------------------------
	.byte	W96
@ 054   ----------------------------------------
	.byte	W96
@ 055   ----------------------------------------
	.byte	W96
@ 056   ----------------------------------------
	.byte	W96
@ 057   ----------------------------------------
	.byte	W96
@ 058   ----------------------------------------
	.byte	W96
@ 059   ----------------------------------------
	.byte	W96
@ 060   ----------------------------------------
	.byte	W96
@ 061   ----------------------------------------
	.byte	W96
@ 062   ----------------------------------------
	.byte	W96
@ 063   ----------------------------------------
	.byte	W96
@ 064   ----------------------------------------
Voyage_of_380000_km_7_064:
	.byte	W52
	.byte	W01
	.byte		N44   , Dn4 , v080
	.byte	W42
	.byte	W01
	.byte	PEND
@ 065   ----------------------------------------
Voyage_of_380000_km_7_065:
	.byte	W05
	.byte		N44   , An3 , v080
	.byte	W48
	.byte		        Gn3 
	.byte	W42
	.byte	W01
	.byte	PEND
@ 066   ----------------------------------------
Voyage_of_380000_km_7_066:
	.byte	W05
	.byte		N23   , Fn3 , v080
	.byte	W24
	.byte		        En3 
	.byte	W24
	.byte		N68   , Dn3 
	.byte	W42
	.byte	W01
	.byte	PEND
@ 067   ----------------------------------------
Voyage_of_380000_km_7_067:
	.byte	W28
	.byte	W01
	.byte		N23   , Dn4 , v080
	.byte	W24
	.byte		N68   , An3 
	.byte	W42
	.byte	W01
	.byte	PEND
@ 068   ----------------------------------------
Voyage_of_380000_km_7_068:
	.byte	W28
	.byte	W01
	.byte		N11   , Gn3 , v080
	.byte	W12
	.byte		        An3 
	.byte	W12
	.byte		N44   , Dn4 
	.byte	W42
	.byte	W01
	.byte	PEND
@ 069   ----------------------------------------
	.byte	PATT
	 .word	Voyage_of_380000_km_7_065
@ 070   ----------------------------------------
	.byte	PATT
	 .word	Voyage_of_380000_km_7_066
@ 071   ----------------------------------------
Voyage_of_380000_km_7_071:
	.byte	W28
	.byte	W01
	.byte		N23   , Dn4 , v080
	.byte	W24
	.byte		N32   , An3 
	.byte	W36
	.byte		        Gn3 
	.byte	W07
	.byte	PEND
@ 072   ----------------------------------------
Voyage_of_380000_km_7_072:
	.byte	W28
	.byte	W01
	.byte		N23   , Cs4 , v080
	.byte	W24
	.byte		N44   , Dn4 
	.byte	W42
	.byte	W01
	.byte	PEND
@ 073   ----------------------------------------
	.byte	PATT
	 .word	Voyage_of_380000_km_7_065
@ 074   ----------------------------------------
	.byte	PATT
	 .word	Voyage_of_380000_km_7_066
@ 075   ----------------------------------------
	.byte	PATT
	 .word	Voyage_of_380000_km_7_067
@ 076   ----------------------------------------
	.byte	PATT
	 .word	Voyage_of_380000_km_7_068
@ 077   ----------------------------------------
	.byte	PATT
	 .word	Voyage_of_380000_km_7_065
@ 078   ----------------------------------------
	.byte	PATT
	 .word	Voyage_of_380000_km_7_066
@ 079   ----------------------------------------
Voyage_of_380000_km_7_079:
	.byte	W28
	.byte	W01
	.byte		N23   , Dn4 , v080
	.byte	W24
	.byte		        Cs4 
	.byte	W24
	.byte		N23   
	.byte	W19
	.byte	PEND
@ 080   ----------------------------------------
Voyage_of_380000_km_7_080:
	.byte	W05
	.byte		N23   , Dn4 , v080
	.byte	W24
	.byte		N11   , En4 
	.byte	W24
	.byte		N23   , Fn3 
	.byte		N23   , As3 
	.byte	W24
	.byte		N23   
	.byte		N23   , Dn4 
	.byte	W19
	.byte	PEND
@ 081   ----------------------------------------
Voyage_of_380000_km_7_081:
	.byte	W05
	.byte		N23   , Gn3 , v080
	.byte		N23   , Cn4 
	.byte	W24
	.byte		N23   
	.byte		N23   , En4 
	.byte	W24
	.byte		        An2 
	.byte		N23   , Fn3 
	.byte	W24
	.byte		        An3 
	.byte		N23   , Cn4 
	.byte	W19
	.byte	PEND
@ 082   ----------------------------------------
Voyage_of_380000_km_7_082:
	.byte	W05
	.byte		N44   , Dn3 , v080
	.byte		N44   , An3 
	.byte	W48
	.byte		N23   , Fn3 
	.byte		N23   , As3 
	.byte	W24
	.byte		N23   
	.byte		N23   , Dn4 
	.byte	W19
	.byte	PEND
@ 083   ----------------------------------------
Voyage_of_380000_km_7_083:
	.byte	W05
	.byte		N23   , Gn3 , v080
	.byte		N23   , Cn4 
	.byte	W24
	.byte		N23   
	.byte		N23   , En4 
	.byte	W24
	.byte		N32   , Gn3 
	.byte		N68   , Fn4 
	.byte	W36
	.byte		N32   , Fn3 
	.byte	W07
	.byte	PEND
@ 084   ----------------------------------------
Voyage_of_380000_km_7_084:
	.byte	W28
	.byte	W01
	.byte		N23   , Cn3 , v080
	.byte		N23   , Fn3 
	.byte	W24
	.byte		N23   
	.byte		N23   , As3 
	.byte	W24
	.byte		N23   
	.byte		N23   , Dn4 
	.byte	W19
	.byte	PEND
@ 085   ----------------------------------------
Voyage_of_380000_km_7_085:
	.byte	W05
	.byte		N23   , Gn3 , v080
	.byte		N23   , Cn4 
	.byte	W24
	.byte		N23   
	.byte		N23   , En4 
	.byte	W24
	.byte		        Cn4 
	.byte		N23   , Fn4 
	.byte	W24
	.byte		        An3 
	.byte		N23   , Cn4 
	.byte	W19
	.byte	PEND
@ 086   ----------------------------------------
Voyage_of_380000_km_7_086:
	.byte	W05
	.byte		N23   , Fn3 , v080
	.byte		N23   , An3 
	.byte	W24
	.byte		        Cn4 
	.byte		N23   , Fn4 
	.byte	W24
	.byte		        Cs4 
	.byte		N23   , En4 
	.byte	W24
	.byte		        Gn3 
	.byte		N23   , Cs4 
	.byte	W19
	.byte	PEND
@ 087   ----------------------------------------
Voyage_of_380000_km_7_087:
	.byte	W05
	.byte		N23   , Cs4 , v080
	.byte		N23   , En4 
	.byte	W24
	.byte		        Cs4 
	.byte		N23   , Gn4 
	.byte	W24
	.byte		N44   , Dn4 
	.byte		N44   , Fn4 
	.byte	W42
	.byte	W01
	.byte	PEND
@ 088   ----------------------------------------
Voyage_of_380000_km_7_088:
	.byte	W17
	.byte		N32   , Cn4 , v080
	.byte		N32   , En4 
	.byte	W36
	.byte		N23   , Fn3 
	.byte		N23   , As3 
	.byte	W24
	.byte		N23   
	.byte		N23   , Dn4 
	.byte	W19
	.byte	PEND
@ 089   ----------------------------------------
	.byte	PATT
	 .word	Voyage_of_380000_km_7_081
@ 090   ----------------------------------------
	.byte	PATT
	 .word	Voyage_of_380000_km_7_082
@ 091   ----------------------------------------
Voyage_of_380000_km_7_091:
	.byte	W05
	.byte		N23   , Gn3 , v080
	.byte		N23   , Cn4 
	.byte	W24
	.byte		N23   
	.byte		N23   , En4 
	.byte	W24
	.byte		N68   , Fn4 
	.byte	W42
	.byte	W01
	.byte	PEND
@ 092   ----------------------------------------
	.byte	PATT
	 .word	Voyage_of_380000_km_7_084
@ 093   ----------------------------------------
	.byte	PATT
	 .word	Voyage_of_380000_km_7_085
@ 094   ----------------------------------------
	.byte	PATT
	 .word	Voyage_of_380000_km_7_086
@ 095   ----------------------------------------
	.byte	PATT
	 .word	Voyage_of_380000_km_7_087
@ 096   ----------------------------------------
Voyage_of_380000_km_7_096:
	.byte	W28
	.byte	W01
	.byte		N11   , Cn4 , v080
	.byte	W12
	.byte		N11   
	.byte	W12
	.byte		N17   , Fn4 
	.byte	W18
	.byte		N17   
	.byte	W18
	.byte		N11   
	.byte	W07
	.byte	PEND
@ 097   ----------------------------------------
Voyage_of_380000_km_7_097:
	.byte	W05
	.byte		N17   , Fn4 , v080
	.byte	W18
	.byte		        Gn4 
	.byte	W18
	.byte		N11   , Gs4 
	.byte	W12
	.byte		N17   , As4 
	.byte	W18
	.byte		        Cn5 
	.byte	W18
	.byte		N11   , Fn4 
	.byte	W07
	.byte	PEND
@ 098   ----------------------------------------
Voyage_of_380000_km_7_098:
	.byte	W05
	.byte		N44   , Fn4 , v080
	.byte	W48
	.byte		N17   
	.byte	W18
	.byte		        Gn4 
	.byte	W18
	.byte		N11   , An4 
	.byte	W07
	.byte	PEND
@ 099   ----------------------------------------
Voyage_of_380000_km_7_099:
	.byte	W05
	.byte		N17   , Gn4 , v080
	.byte	W18
	.byte		        Fn4 
	.byte	W18
	.byte		N11   , En4 
	.byte	W12
	.byte		N44   , An3 
	.byte	W42
	.byte	W01
	.byte	PEND
@ 100   ----------------------------------------
Voyage_of_380000_km_7_100:
	.byte	W05
	.byte		N44   , Dn4 , v080
	.byte	W48
	.byte		N17   , Fn4 
	.byte	W18
	.byte		N17   
	.byte	W18
	.byte		N11   
	.byte	W07
	.byte	PEND
@ 101   ----------------------------------------
Voyage_of_380000_km_7_101:
	.byte	W05
	.byte		N17   , Fn4 , v080
	.byte	W18
	.byte		        Gn4 
	.byte	W18
	.byte		N11   , An4 
	.byte	W12
	.byte		N17   , Gn4 
	.byte	W18
	.byte		        Fn4 
	.byte	W18
	.byte		N11   , En4 
	.byte	W07
	.byte	PEND
@ 102   ----------------------------------------
Voyage_of_380000_km_7_102:
	.byte	W05
	.byte		N17   , An3 , v080
	.byte	W18
	.byte		        Cn4 
	.byte	W18
	.byte		N11   , Cs4 
	.byte	W12
	.byte		N92   , Dn4 
	.byte	W42
	.byte	W01
	.byte	PEND
@ 103   ----------------------------------------
Voyage_of_380000_km_7_103:
	.byte	W64
	.byte	W01
	.byte		N11   , An3 , v080
	.byte	W12
	.byte		        Cn4 
	.byte	W12
	.byte		        Dn4 
	.byte	W07
	.byte	PEND
@ 104   ----------------------------------------
Voyage_of_380000_km_7_104:
	.byte	W05
	.byte		N11   , Gn3 , v080
	.byte	W12
	.byte		        An3 
	.byte	W12
	.byte		N23   , Fn3 
	.byte	W24
	.byte		N17   , Dn4 
	.byte	W18
	.byte		N17   
	.byte	W18
	.byte		N11   
	.byte	W07
	.byte	PEND
@ 105   ----------------------------------------
Voyage_of_380000_km_7_105:
	.byte	W05
	.byte		N17   , Dn4 , v080
	.byte	W18
	.byte		        En4 
	.byte	W18
	.byte		N11   , Fn4 
	.byte	W12
	.byte		N17   , Gn4 
	.byte	W18
	.byte		        An4 
	.byte	W18
	.byte		N11   , Cn5 
	.byte	W07
	.byte	PEND
@ 106   ----------------------------------------
Voyage_of_380000_km_7_106:
	.byte	W05
	.byte		N44   , Dn5 , v080
	.byte	W48
	.byte		N17   
	.byte	W18
	.byte		        An4 
	.byte	W18
	.byte		N11   , Fn5 
	.byte	W07
	.byte	PEND
@ 107   ----------------------------------------
Voyage_of_380000_km_7_107:
	.byte	W05
	.byte		N17   , En5 , v080
	.byte	W18
	.byte		        Dn5 
	.byte	W18
	.byte		N11   , Cn5 
	.byte	W12
	.byte		N44   , An4 
	.byte	W42
	.byte	W01
	.byte	PEND
@ 108   ----------------------------------------
	.byte	PATT
	 .word	Voyage_of_380000_km_7_106
@ 109   ----------------------------------------
Voyage_of_380000_km_7_109:
	.byte	W05
	.byte		N17   , En5 , v080
	.byte	W18
	.byte		        Dn5 
	.byte	W18
	.byte		N11   , Cn5 
	.byte	W12
	.byte		N17   , Gn4 
	.byte	W18
	.byte		        Fn4 
	.byte	W18
	.byte		N11   , En4 
	.byte	W07
	.byte	PEND
@ 110   ----------------------------------------
Voyage_of_380000_km_7_110:
	.byte	W05
	.byte		N17   , An4 , v080
	.byte	W18
	.byte		        Cn5 
	.byte	W18
	.byte		N11   , Cs5 
	.byte	W12
	.byte		N92   , Dn5 
	.byte	W42
	.byte	W01
	.byte	PEND
@ 111   ----------------------------------------
	.byte	W96
@ 112   ----------------------------------------
Voyage_of_380000_km_7_112:
	.byte	W52
	.byte	W01
	.byte		N44   , Dn3 , v080
	.byte		N44   , Fn3 
	.byte	W42
	.byte	W01
	.byte	PEND
@ 113   ----------------------------------------
Voyage_of_380000_km_7_113:
	.byte	W17
	.byte		N11   , Fn2 , v080
	.byte		N11   , An2 
	.byte	W12
	.byte		N11   
	.byte		N11   , Dn3 
	.byte	W12
	.byte		        Cn3 
	.byte		N11   , Fn3 
	.byte	W12
	.byte		N23   , En3 
	.byte		N23   , Gn3 
	.byte	W24
	.byte		        Fn3 
	.byte		N23   , An3 
	.byte	W19
	.byte	PEND
@ 114   ----------------------------------------
Voyage_of_380000_km_7_114:
	.byte	W05
	.byte		N11   , Cn3 , v080
	.byte		N11   , En3 
	.byte	W12
	.byte		        An2 
	.byte		N11   , Dn3 
	.byte	W12
	.byte		N23   , Gn2 
	.byte		N23   , Cn3 
	.byte	W24
	.byte		N92   , As2 
	.byte		N92   , Dn3 
	.byte	W42
	.byte	W01
	.byte	PEND
@ 115   ----------------------------------------
Voyage_of_380000_km_7_115:
	.byte	W52
	.byte	W01
	.byte		N68   , As2 , v080
	.byte		N68   , Dn3 
	.byte	W42
	.byte	W01
	.byte	PEND
@ 116   ----------------------------------------
Voyage_of_380000_km_7_116:
	.byte	W28
	.byte	W01
	.byte		N23   , Cn3 , v080
	.byte		N23   , En3 
	.byte	W24
	.byte		N44   , Dn3 
	.byte		N44   , Fn3 
	.byte	W42
	.byte	W01
	.byte	PEND
@ 117   ----------------------------------------
Voyage_of_380000_km_7_117:
	.byte	W17
	.byte		N11   , Fn2 , v080
	.byte		N11   , An2 
	.byte	W12
	.byte		N11   
	.byte		N11   , Dn3 
	.byte	W12
	.byte		N11   
	.byte		N11   , Fn3 
	.byte	W12
	.byte		N23   , En3 
	.byte		N23   , Gn3 
	.byte	W24
	.byte		        Fn3 
	.byte		N23   , An3 
	.byte	W19
	.byte	PEND
@ 118   ----------------------------------------
Voyage_of_380000_km_7_118:
	.byte	W05
	.byte		N11   , Cn3 , v080
	.byte		N11   , En3 
	.byte	W12
	.byte		N11   
	.byte		N11   , An3 
	.byte	W12
	.byte		        Gn3 
	.byte		N11   , Cn4 
	.byte	W12
	.byte		        An3 
	.byte		N11   , Dn4 
	.byte	W12
	.byte		TIE   , Fn3 
	.byte		TIE   , An3 
	.byte	W42
	.byte	W01
	.byte	PEND
@ 119   ----------------------------------------
	.byte	W96
@ 120   ----------------------------------------
	.byte	W04
	.byte		EOT   , Fn3 
	.byte		        An3 
	.byte	W13
	.byte		N11   , En2 
	.byte		N11   , An2 
	.byte	W12
	.byte		N11   
	.byte		N11   , Dn3 
	.byte	W12
	.byte		        Cn3 
	.byte		N11   , En3 
	.byte	W12
	.byte		N44   , Dn3 
	.byte		N44   , Fn3 
	.byte	W42
	.byte	W01
@ 121   ----------------------------------------
	.byte	PATT
	 .word	Voyage_of_380000_km_7_113
@ 122   ----------------------------------------
	.byte	PATT
	 .word	Voyage_of_380000_km_7_114
@ 123   ----------------------------------------
	.byte	PATT
	 .word	Voyage_of_380000_km_7_115
@ 124   ----------------------------------------
	.byte	PATT
	 .word	Voyage_of_380000_km_7_116
@ 125   ----------------------------------------
Voyage_of_380000_km_7_125:
	.byte	W17
	.byte		N11   , Fn2 , v080
	.byte		N11   , An2 
	.byte	W12
	.byte		N11   
	.byte		N11   , Dn3 
	.byte	W12
	.byte		N11   
	.byte		N11   , Fn3 
	.byte	W12
	.byte		N32   , Gn3 
	.byte		N32   , Cn4 
	.byte	W36
	.byte		        An3 
	.byte		N32   , Dn4 
	.byte	W07
	.byte	PEND
@ 126   ----------------------------------------
Voyage_of_380000_km_7_126:
	.byte	W28
	.byte	W01
	.byte		N23   , Cn4 , v080
	.byte		N23   , En4 
	.byte	W24
	.byte		TIE   , Cn4 
	.byte		TIE   , Fn4 
	.byte	W42
	.byte	W01
	.byte	PEND
@ 127   ----------------------------------------
	.byte	W96
@ 128   ----------------------------------------
	.byte	W04
	.byte		EOT   , Cn4 
	.byte		        Fn4 
	.byte	W01
	.byte		N23   , Dn3 
	.byte		N23   , Fn3 
	.byte	W24
	.byte		        Ds3 
	.byte		N23   , Gn3 
	.byte	W24
	.byte		N44   , Fn3 
	.byte		N56   , Gs3 
	.byte		N56   , Cn4 
	.byte		N44   , Fn4 
	.byte	W42
	.byte	W01
@ 129   ----------------------------------------
Voyage_of_380000_km_7_129:
	.byte	W17
	.byte		N11   , Gs2 , v080
	.byte		N11   , Cn3 
	.byte	W12
	.byte		N11   
	.byte		N11   , Fn3 
	.byte	W12
	.byte		        Ds3 
	.byte		N11   , Gs3 
	.byte	W12
	.byte		N23   , Gn3 
	.byte		N23   , As3 
	.byte	W24
	.byte		        Gs3 
	.byte		N23   , Cn4 
	.byte	W19
	.byte	PEND
@ 130   ----------------------------------------
Voyage_of_380000_km_7_130:
	.byte	W05
	.byte		N11   , Ds3 , v080
	.byte		N11   , Gn3 
	.byte	W12
	.byte		        Cn3 
	.byte		N11   , Fn3 
	.byte	W12
	.byte		N23   , As2 
	.byte		N23   , Ds3 
	.byte	W24
	.byte		TIE   , Cs3 
	.byte		TIE   , Fn3 
	.byte	W42
	.byte	W01
	.byte	PEND
@ 131   ----------------------------------------
	.byte	W96
@ 132   ----------------------------------------
	.byte	W28
	.byte		EOT   , Cs3 
	.byte		        Fn3 
	.byte	W01
	.byte		N11   , As3 
	.byte	W12
	.byte		        Cn4 
	.byte	W12
	.byte		N44   , Fn3 
	.byte		N56   , Gs3 
	.byte		N56   , Cn4 
	.byte		N44   , Fn4 
	.byte	W42
	.byte	W01
@ 133   ----------------------------------------
	.byte	PATT
	 .word	Voyage_of_380000_km_7_129
@ 134   ----------------------------------------
Voyage_of_380000_km_7_134:
	.byte	W05
	.byte		N11   , Gn3 , v080
	.byte	W12
	.byte		        Cn4 
	.byte	W12
	.byte		        Ds4 
	.byte	W12
	.byte		        Fn4 
	.byte	W12
	.byte		N68   , Gs3 
	.byte		N68   , Cn4 
	.byte	W42
	.byte	W01
	.byte	PEND
@ 135   ----------------------------------------
Voyage_of_380000_km_7_135:
	.byte	W28
	.byte	W01
	.byte		N23   , Cn4 , v080
	.byte		N23   , Fn4 
	.byte	W24
	.byte		N32   , Gs3 
	.byte		N32   , Cn4 
	.byte	W36
	.byte		N23   , Fn3 
	.byte		N23   , As3 
	.byte	W07
	.byte	PEND
@ 136   ----------------------------------------
Voyage_of_380000_km_7_136:
	.byte	W17
	.byte		N11   , Gn2 , v080
	.byte		N11   , Cn3 
	.byte	W12
	.byte		N11   
	.byte		N11   , Fn3 
	.byte	W12
	.byte		        Ds3 
	.byte		N11   , Gn3 
	.byte	W12
	.byte		N44   , Fn3 
	.byte		N56   , Gs3 
	.byte		N56   , Cn4 
	.byte		N44   , Fn4 
	.byte	W42
	.byte	W01
	.byte	PEND
@ 137   ----------------------------------------
	.byte	PATT
	 .word	Voyage_of_380000_km_7_129
@ 138   ----------------------------------------
Voyage_of_380000_km_7_138:
	.byte	W05
	.byte		N11   , Ds3 , v080
	.byte		N11   , Gn3 
	.byte	W12
	.byte		        Cn3 
	.byte		N11   , Fn3 
	.byte	W12
	.byte		N23   , As2 
	.byte		N23   , Ds3 
	.byte	W24
	.byte		N68   , Cs3 
	.byte		N68   , Fn3 
	.byte	W42
	.byte	W01
	.byte	PEND
@ 139   ----------------------------------------
Voyage_of_380000_km_7_139:
	.byte	W28
	.byte	W01
	.byte		N23   , Gs3 , v080
	.byte		N23   , Cn4 
	.byte	W24
	.byte		N56   
	.byte		N56   , Fn4 
	.byte	W42
	.byte	W01
	.byte	PEND
@ 140   ----------------------------------------
Voyage_of_380000_km_7_140:
	.byte	W17
	.byte		N11   , Cs3 , v080
	.byte		N11   , Fn3 
	.byte	W12
	.byte		        Ds3 
	.byte		N11   , Gs3 
	.byte	W12
	.byte		        Fn3 
	.byte		N11   , As3 
	.byte	W12
	.byte		N56   , Cn4 
	.byte		N56   , Fn4 
	.byte		N56   , Gs4 
	.byte	W42
	.byte	W01
	.byte	PEND
@ 141   ----------------------------------------
Voyage_of_380000_km_7_141:
	.byte	W17
	.byte		N11   , Cn3 , v080
	.byte		N11   , Fn3 
	.byte	W12
	.byte		N11   
	.byte		N11   , Gs3 
	.byte	W12
	.byte		N11   
	.byte		N11   , Cn4 
	.byte	W12
	.byte		N32   , As3 
	.byte		N32   , Ds4 
	.byte	W36
	.byte		        Cn4 
	.byte		N32   , Fn4 
	.byte	W07
	.byte	PEND
@ 142   ----------------------------------------
Voyage_of_380000_km_7_142:
	.byte	W28
	.byte	W01
	.byte		N23   , Ds4 , v080
	.byte		N23   , Gn4 
	.byte	W24
	.byte		        Ds4 
	.byte		N23   , Gs4 
	.byte	W24
	.byte		        Cn4 
	.byte		N23   , Fn4 
	.byte	W19
	.byte	PEND
@ 143   ----------------------------------------
Voyage_of_380000_km_7_143:
	.byte	W05
	.byte		N11   , Ds4 , v080
	.byte		N11   , Gn4 
	.byte	W12
	.byte		N23   
	.byte		N23   , Cn5 
	.byte	W24
	.byte		N80   , Cn4 
	.byte		N80   , Fn4 
	.byte	W54
	.byte	W01
	.byte	PEND
@ 144   ----------------------------------------
	.byte	W96
@ 145   ----------------------------------------
	.byte	W96
@ 146   ----------------------------------------
	.byte	W96
@ 147   ----------------------------------------
	.byte	W96
@ 148   ----------------------------------------
	.byte	W96
@ 149   ----------------------------------------
	.byte	W96
@ 150   ----------------------------------------
	.byte	W96
@ 151   ----------------------------------------
	.byte	W96
@ 152   ----------------------------------------
	.byte	W96
@ 153   ----------------------------------------
	.byte	W96
@ 154   ----------------------------------------
	.byte	W96
@ 155   ----------------------------------------
	.byte	W96
@ 156   ----------------------------------------
	.byte	W96
@ 157   ----------------------------------------
	.byte	W96
@ 158   ----------------------------------------
	.byte	W96
@ 159   ----------------------------------------
	.byte	W96
@ 160   ----------------------------------------
	.byte	W96
@ 161   ----------------------------------------
	.byte	W96
@ 162   ----------------------------------------
	.byte	W96
@ 163   ----------------------------------------
	.byte	W96
@ 164   ----------------------------------------
	.byte	W96
@ 165   ----------------------------------------
	.byte	W96
@ 166   ----------------------------------------
	.byte	W96
@ 167   ----------------------------------------
	.byte	W96
@ 168   ----------------------------------------
	.byte	W96
@ 169   ----------------------------------------
	.byte	W96
@ 170   ----------------------------------------
	.byte	W96
@ 171   ----------------------------------------
	.byte	W96
@ 172   ----------------------------------------
	.byte	W96
@ 173   ----------------------------------------
	.byte	W96
@ 174   ----------------------------------------
	.byte	W96
@ 175   ----------------------------------------
	.byte	W96
@ 176   ----------------------------------------
	.byte	PATT
	 .word	Voyage_of_380000_km_7_032
@ 177   ----------------------------------------
	.byte	PATT
	 .word	Voyage_of_380000_km_7_033
@ 178   ----------------------------------------
	.byte	PATT
	 .word	Voyage_of_380000_km_7_034
@ 179   ----------------------------------------
	.byte	PATT
	 .word	Voyage_of_380000_km_7_035
@ 180   ----------------------------------------
	.byte	PATT
	 .word	Voyage_of_380000_km_7_032
@ 181   ----------------------------------------
	.byte	PATT
	 .word	Voyage_of_380000_km_7_033
@ 182   ----------------------------------------
	.byte	PATT
	 .word	Voyage_of_380000_km_7_038
@ 183   ----------------------------------------
	.byte	W96
@ 184   ----------------------------------------
	.byte	PATT
	 .word	Voyage_of_380000_km_7_032
@ 185   ----------------------------------------
	.byte	PATT
	 .word	Voyage_of_380000_km_7_033
@ 186   ----------------------------------------
	.byte	PATT
	 .word	Voyage_of_380000_km_7_034
@ 187   ----------------------------------------
	.byte	PATT
	 .word	Voyage_of_380000_km_7_035
@ 188   ----------------------------------------
	.byte	PATT
	 .word	Voyage_of_380000_km_7_032
@ 189   ----------------------------------------
	.byte	PATT
	 .word	Voyage_of_380000_km_7_033
@ 190   ----------------------------------------
	.byte	PATT
	 .word	Voyage_of_380000_km_7_046
@ 191   ----------------------------------------
	.byte	W52
	.byte		EOT   , Fn4 
	.byte	W01
	.byte		N44   , En4 , v080
	.byte	W42
	.byte	W01
@ 192   ----------------------------------------
	.byte	W96
@ 193   ----------------------------------------
	.byte	W96
@ 194   ----------------------------------------
	.byte	W96
@ 195   ----------------------------------------
	.byte	W96
@ 196   ----------------------------------------
	.byte	W96
@ 197   ----------------------------------------
	.byte	W96
@ 198   ----------------------------------------
	.byte	W96
@ 199   ----------------------------------------
	.byte	W96
@ 200   ----------------------------------------
	.byte	W96
@ 201   ----------------------------------------
	.byte	W96
@ 202   ----------------------------------------
	.byte	W96
@ 203   ----------------------------------------
	.byte	W96
@ 204   ----------------------------------------
	.byte	W96
@ 205   ----------------------------------------
	.byte	W96
@ 206   ----------------------------------------
	.byte	W96
@ 207   ----------------------------------------
	.byte	W96
@ 208   ----------------------------------------
	.byte	PATT
	 .word	Voyage_of_380000_km_7_064
@ 209   ----------------------------------------
	.byte	PATT
	 .word	Voyage_of_380000_km_7_065
@ 210   ----------------------------------------
	.byte	PATT
	 .word	Voyage_of_380000_km_7_066
@ 211   ----------------------------------------
	.byte	PATT
	 .word	Voyage_of_380000_km_7_067
@ 212   ----------------------------------------
	.byte	PATT
	 .word	Voyage_of_380000_km_7_068
@ 213   ----------------------------------------
	.byte	PATT
	 .word	Voyage_of_380000_km_7_065
@ 214   ----------------------------------------
	.byte	PATT
	 .word	Voyage_of_380000_km_7_066
@ 215   ----------------------------------------
	.byte	PATT
	 .word	Voyage_of_380000_km_7_071
@ 216   ----------------------------------------
	.byte	PATT
	 .word	Voyage_of_380000_km_7_072
@ 217   ----------------------------------------
	.byte	PATT
	 .word	Voyage_of_380000_km_7_065
@ 218   ----------------------------------------
	.byte	PATT
	 .word	Voyage_of_380000_km_7_066
@ 219   ----------------------------------------
	.byte	PATT
	 .word	Voyage_of_380000_km_7_067
@ 220   ----------------------------------------
	.byte	PATT
	 .word	Voyage_of_380000_km_7_068
@ 221   ----------------------------------------
	.byte	PATT
	 .word	Voyage_of_380000_km_7_065
@ 222   ----------------------------------------
	.byte	PATT
	 .word	Voyage_of_380000_km_7_066
@ 223   ----------------------------------------
	.byte	PATT
	 .word	Voyage_of_380000_km_7_079
@ 224   ----------------------------------------
	.byte	PATT
	 .word	Voyage_of_380000_km_7_080
@ 225   ----------------------------------------
	.byte	PATT
	 .word	Voyage_of_380000_km_7_081
@ 226   ----------------------------------------
	.byte	PATT
	 .word	Voyage_of_380000_km_7_082
@ 227   ----------------------------------------
	.byte	PATT
	 .word	Voyage_of_380000_km_7_083
@ 228   ----------------------------------------
	.byte	PATT
	 .word	Voyage_of_380000_km_7_084
@ 229   ----------------------------------------
	.byte	PATT
	 .word	Voyage_of_380000_km_7_085
@ 230   ----------------------------------------
	.byte	PATT
	 .word	Voyage_of_380000_km_7_086
@ 231   ----------------------------------------
	.byte	PATT
	 .word	Voyage_of_380000_km_7_087
@ 232   ----------------------------------------
	.byte	PATT
	 .word	Voyage_of_380000_km_7_088
@ 233   ----------------------------------------
	.byte	PATT
	 .word	Voyage_of_380000_km_7_081
@ 234   ----------------------------------------
	.byte	PATT
	 .word	Voyage_of_380000_km_7_082
@ 235   ----------------------------------------
	.byte	PATT
	 .word	Voyage_of_380000_km_7_091
@ 236   ----------------------------------------
	.byte	PATT
	 .word	Voyage_of_380000_km_7_084
@ 237   ----------------------------------------
	.byte	PATT
	 .word	Voyage_of_380000_km_7_085
@ 238   ----------------------------------------
	.byte	PATT
	 .word	Voyage_of_380000_km_7_086
@ 239   ----------------------------------------
	.byte	PATT
	 .word	Voyage_of_380000_km_7_087
@ 240   ----------------------------------------
	.byte	PATT
	 .word	Voyage_of_380000_km_7_096
@ 241   ----------------------------------------
	.byte	PATT
	 .word	Voyage_of_380000_km_7_097
@ 242   ----------------------------------------
	.byte	PATT
	 .word	Voyage_of_380000_km_7_098
@ 243   ----------------------------------------
	.byte	PATT
	 .word	Voyage_of_380000_km_7_099
@ 244   ----------------------------------------
	.byte	PATT
	 .word	Voyage_of_380000_km_7_100
@ 245   ----------------------------------------
	.byte	PATT
	 .word	Voyage_of_380000_km_7_101
@ 246   ----------------------------------------
	.byte	PATT
	 .word	Voyage_of_380000_km_7_102
@ 247   ----------------------------------------
	.byte	PATT
	 .word	Voyage_of_380000_km_7_103
@ 248   ----------------------------------------
	.byte	PATT
	 .word	Voyage_of_380000_km_7_104
@ 249   ----------------------------------------
	.byte	PATT
	 .word	Voyage_of_380000_km_7_105
@ 250   ----------------------------------------
	.byte	PATT
	 .word	Voyage_of_380000_km_7_106
@ 251   ----------------------------------------
	.byte	PATT
	 .word	Voyage_of_380000_km_7_107
@ 252   ----------------------------------------
	.byte	PATT
	 .word	Voyage_of_380000_km_7_106
@ 253   ----------------------------------------
	.byte	PATT
	 .word	Voyage_of_380000_km_7_109
@ 254   ----------------------------------------
	.byte	PATT
	 .word	Voyage_of_380000_km_7_110
@ 255   ----------------------------------------
	.byte	W96
@ 256   ----------------------------------------
	.byte	PATT
	 .word	Voyage_of_380000_km_7_112
@ 257   ----------------------------------------
	.byte	PATT
	 .word	Voyage_of_380000_km_7_113
@ 258   ----------------------------------------
	.byte	PATT
	 .word	Voyage_of_380000_km_7_114
@ 259   ----------------------------------------
	.byte	PATT
	 .word	Voyage_of_380000_km_7_115
@ 260   ----------------------------------------
	.byte	PATT
	 .word	Voyage_of_380000_km_7_116
@ 261   ----------------------------------------
	.byte	PATT
	 .word	Voyage_of_380000_km_7_117
@ 262   ----------------------------------------
	.byte	PATT
	 .word	Voyage_of_380000_km_7_118
@ 263   ----------------------------------------
	.byte	W96
@ 264   ----------------------------------------
	.byte	W04
	.byte		EOT   , Fn3 
	.byte		        An3 
	.byte	W13
	.byte		N11   , En2 , v080
	.byte		N11   , An2 
	.byte	W12
	.byte		N11   
	.byte		N11   , Dn3 
	.byte	W12
	.byte		        Cn3 
	.byte		N11   , En3 
	.byte	W12
	.byte		N44   , Dn3 
	.byte		N44   , Fn3 
	.byte	W42
	.byte	W01
@ 265   ----------------------------------------
	.byte	PATT
	 .word	Voyage_of_380000_km_7_113
@ 266   ----------------------------------------
	.byte	PATT
	 .word	Voyage_of_380000_km_7_114
@ 267   ----------------------------------------
	.byte	PATT
	 .word	Voyage_of_380000_km_7_115
@ 268   ----------------------------------------
	.byte	PATT
	 .word	Voyage_of_380000_km_7_116
@ 269   ----------------------------------------
	.byte	PATT
	 .word	Voyage_of_380000_km_7_125
@ 270   ----------------------------------------
	.byte	PATT
	 .word	Voyage_of_380000_km_7_126
@ 271   ----------------------------------------
	.byte	W96
@ 272   ----------------------------------------
	.byte	W04
	.byte		EOT   , Cn4 
	.byte		        Fn4 
	.byte	W01
	.byte		N23   , Dn3 , v080
	.byte		N23   , Fn3 
	.byte	W24
	.byte		        Ds3 
	.byte		N23   , Gn3 
	.byte	W24
	.byte		N44   , Fn3 
	.byte		N56   , Gs3 
	.byte		N56   , Cn4 
	.byte		N44   , Fn4 
	.byte	W42
	.byte	W01
@ 273   ----------------------------------------
	.byte	PATT
	 .word	Voyage_of_380000_km_7_129
@ 274   ----------------------------------------
	.byte	PATT
	 .word	Voyage_of_380000_km_7_130
@ 275   ----------------------------------------
	.byte	W96
@ 276   ----------------------------------------
	.byte	W28
	.byte		EOT   , Cs3 
	.byte		        Fn3 
	.byte	W01
	.byte		N11   , As3 , v080
	.byte	W12
	.byte		        Cn4 
	.byte	W12
	.byte		N44   , Fn3 
	.byte		N56   , Gs3 
	.byte		N56   , Cn4 
	.byte		N44   , Fn4 
	.byte	W42
	.byte	W01
@ 277   ----------------------------------------
	.byte	PATT
	 .word	Voyage_of_380000_km_7_129
@ 278   ----------------------------------------
	.byte	PATT
	 .word	Voyage_of_380000_km_7_134
@ 279   ----------------------------------------
	.byte	PATT
	 .word	Voyage_of_380000_km_7_135
@ 280   ----------------------------------------
	.byte	PATT
	 .word	Voyage_of_380000_km_7_136
@ 281   ----------------------------------------
	.byte	PATT
	 .word	Voyage_of_380000_km_7_129
@ 282   ----------------------------------------
	.byte	PATT
	 .word	Voyage_of_380000_km_7_138
@ 283   ----------------------------------------
	.byte	PATT
	 .word	Voyage_of_380000_km_7_139
@ 284   ----------------------------------------
	.byte	PATT
	 .word	Voyage_of_380000_km_7_140
@ 285   ----------------------------------------
	.byte	PATT
	 .word	Voyage_of_380000_km_7_141
@ 286   ----------------------------------------
	.byte	PATT
	 .word	Voyage_of_380000_km_7_142
@ 287   ----------------------------------------
	.byte	PATT
	 .word	Voyage_of_380000_km_7_143
@ 288   ----------------------------------------
	.byte	W76
	.byte	W01
	.byte	GOTO
	 .word	Voyage_of_380000_km_7_B1
Voyage_of_380000_km_7_B2:
	.byte	FINE

@**************** Track 8 (Midi-Chn.9) ****************@

Voyage_of_380000_km_8:
	.byte	KEYSH , Voyage_of_380000_km_key+0
Voyage_of_380000_km_8_B1:
@ 000   ----------------------------------------
	.byte		VOICE , 36
	.byte		VOL   , 127*Voyage_of_380000_km_mvl/mxv
	.byte		PAN   , c_v+0
	.byte	W52
	.byte	W01
	.byte		TIE   , Fn1 , v080
	.byte	W42
	.byte	W01
@ 001   ----------------------------------------
	.byte	W96
@ 002   ----------------------------------------
	.byte	W52
	.byte		EOT   
	.byte	W01
	.byte		TIE   , Ds1 
	.byte	W42
	.byte	W01
@ 003   ----------------------------------------
	.byte	W96
@ 004   ----------------------------------------
	.byte	W52
	.byte		EOT   
	.byte	W01
	.byte		TIE   , Dn1 
	.byte	W42
	.byte	W01
@ 005   ----------------------------------------
	.byte	W96
@ 006   ----------------------------------------
	.byte	W52
	.byte		EOT   
	.byte	W01
	.byte		N92   , Cs1 
	.byte	W42
	.byte	W01
@ 007   ----------------------------------------
Voyage_of_380000_km_8_007:
	.byte	W52
	.byte	W01
	.byte		N92   , Gn1 , v080
	.byte	W42
	.byte	W01
	.byte	PEND
@ 008   ----------------------------------------
Voyage_of_380000_km_8_008:
	.byte	W52
	.byte	W01
	.byte		N11   , Fn0 , v080
	.byte		TIE   , Fn1 
	.byte	W12
	.byte		N11   , Cn1 
	.byte	W12
	.byte		N11   
	.byte	W12
	.byte		        Fn0 
	.byte	W07
	.byte	PEND
@ 009   ----------------------------------------
Voyage_of_380000_km_8_009:
	.byte	W05
	.byte		N11   , Cn1 , v080
	.byte	W12
	.byte		N11   
	.byte	W12
	.byte		        Fn0 
	.byte	W12
	.byte		        Cn1 
	.byte	W12
	.byte		        Fn0 
	.byte	W12
	.byte		        Cn1 
	.byte	W12
	.byte		N11   
	.byte	W12
	.byte		        Fn0 
	.byte	W07
	.byte	PEND
@ 010   ----------------------------------------
Voyage_of_380000_km_8_010:
	.byte	W05
	.byte		N11   , Cn1 , v080
	.byte	W12
	.byte		N11   
	.byte	W12
	.byte		        Fn0 
	.byte	W12
	.byte		        Cn1 
	.byte	W11
	.byte	PEND
	.byte		EOT   , Fn1 
	.byte	W01
	.byte		N11   , Ds0 
	.byte		TIE   , Ds1 
	.byte	W12
	.byte		N11   , As0 
	.byte	W12
	.byte		N11   
	.byte	W12
	.byte		        Ds0 
	.byte	W07
@ 011   ----------------------------------------
Voyage_of_380000_km_8_011:
	.byte	W05
	.byte		N11   , As0 , v080
	.byte	W12
	.byte		N11   
	.byte	W12
	.byte		        Ds0 
	.byte	W12
	.byte		        As0 
	.byte	W12
	.byte		        Ds0 
	.byte	W12
	.byte		        As0 
	.byte	W12
	.byte		N11   
	.byte	W12
	.byte		        Ds0 
	.byte	W07
	.byte	PEND
@ 012   ----------------------------------------
Voyage_of_380000_km_8_012:
	.byte	W05
	.byte		N11   , As0 , v080
	.byte	W12
	.byte		N11   
	.byte	W12
	.byte		        Ds0 
	.byte	W12
	.byte		N11   
	.byte	W11
	.byte	PEND
	.byte		EOT   , Ds1 
	.byte	W01
	.byte		N11   , Dn0 
	.byte		TIE   , Dn1 
	.byte	W12
	.byte		N11   , Gs0 
	.byte	W12
	.byte		N11   
	.byte	W12
	.byte		        Dn0 
	.byte	W07
@ 013   ----------------------------------------
Voyage_of_380000_km_8_013:
	.byte	W05
	.byte		N11   , Gs0 , v080
	.byte	W12
	.byte		N11   
	.byte	W12
	.byte		        Dn0 
	.byte	W12
	.byte		        Gs0 
	.byte	W12
	.byte		        Cs0 
	.byte	W12
	.byte		        Gs0 
	.byte	W12
	.byte		N11   
	.byte	W12
	.byte		        Cs0 
	.byte	W07
	.byte	PEND
@ 014   ----------------------------------------
Voyage_of_380000_km_8_014:
	.byte	W05
	.byte		N11   , Gs0 , v080
	.byte	W12
	.byte		N11   
	.byte	W12
	.byte		        Cs0 
	.byte	W12
	.byte		N11   
	.byte	W11
	.byte	PEND
	.byte		EOT   , Dn1 
	.byte	W01
	.byte		N11   , Cs0 
	.byte		N92   , Cs1 
	.byte	W12
	.byte		N11   , Gs0 
	.byte	W12
	.byte		N11   
	.byte	W12
	.byte		        Cs0 
	.byte	W07
@ 015   ----------------------------------------
Voyage_of_380000_km_8_015:
	.byte	W05
	.byte		N11   , Gs0 , v080
	.byte	W12
	.byte		N11   
	.byte	W12
	.byte		        Cs0 
	.byte	W12
	.byte		        Gs0 
	.byte	W12
	.byte		N32   , Gn0 
	.byte		N92   , Gn1 
	.byte	W36
	.byte		N32   , Gn0 
	.byte	W07
	.byte	PEND
@ 016   ----------------------------------------
Voyage_of_380000_km_8_016:
	.byte	W28
	.byte	W01
	.byte		N23   , Gn0 , v080
	.byte	W24
	.byte		N44   , Cs1 
	.byte	W42
	.byte	W01
	.byte	PEND
@ 017   ----------------------------------------
Voyage_of_380000_km_8_017:
	.byte	W05
	.byte		N44   , Ds1 , v080
	.byte	W48
	.byte		N92   , Fn1 
	.byte	W42
	.byte	W01
	.byte	PEND
@ 018   ----------------------------------------
Voyage_of_380000_km_8_018:
	.byte	W52
	.byte	W01
	.byte		N44   , Cs1 , v080
	.byte	W42
	.byte	W01
	.byte	PEND
@ 019   ----------------------------------------
	.byte	PATT
	 .word	Voyage_of_380000_km_8_017
@ 020   ----------------------------------------
	.byte	PATT
	 .word	Voyage_of_380000_km_8_018
@ 021   ----------------------------------------
	.byte	PATT
	 .word	Voyage_of_380000_km_8_017
@ 022   ----------------------------------------
Voyage_of_380000_km_8_022:
	.byte	W52
	.byte	W01
	.byte		N92   , En1 , v080
	.byte	W42
	.byte	W01
	.byte	PEND
@ 023   ----------------------------------------
Voyage_of_380000_km_8_023:
	.byte	W52
	.byte	W01
	.byte		N92   , Fn1 , v080
	.byte	W42
	.byte	W01
	.byte	PEND
@ 024   ----------------------------------------
	.byte	PATT
	 .word	Voyage_of_380000_km_8_018
@ 025   ----------------------------------------
	.byte	PATT
	 .word	Voyage_of_380000_km_8_017
@ 026   ----------------------------------------
	.byte	PATT
	 .word	Voyage_of_380000_km_8_018
@ 027   ----------------------------------------
	.byte	PATT
	 .word	Voyage_of_380000_km_8_017
@ 028   ----------------------------------------
	.byte	PATT
	 .word	Voyage_of_380000_km_8_018
@ 029   ----------------------------------------
	.byte	PATT
	 .word	Voyage_of_380000_km_8_017
@ 030   ----------------------------------------
	.byte	PATT
	 .word	Voyage_of_380000_km_8_022
@ 031   ----------------------------------------
	.byte	PATT
	 .word	Voyage_of_380000_km_8_023
@ 032   ----------------------------------------
Voyage_of_380000_km_8_032:
	.byte	W52
	.byte	W01
	.byte		N56   , Fn1 , v080
	.byte	W42
	.byte	W01
	.byte	PEND
@ 033   ----------------------------------------
Voyage_of_380000_km_8_033:
	.byte	W17
	.byte		N11   , As0 , v080
	.byte	W12
	.byte		        Cs1 
	.byte	W12
	.byte		        Fn1 
	.byte	W12
	.byte		N56   , Ds1 
	.byte	W42
	.byte	W01
	.byte	PEND
@ 034   ----------------------------------------
Voyage_of_380000_km_8_034:
	.byte	W17
	.byte		N11   , Gs0 , v080
	.byte	W12
	.byte		        Cn1 
	.byte	W12
	.byte		        Ds1 
	.byte	W12
	.byte		N56   , Cs1 
	.byte	W42
	.byte	W01
	.byte	PEND
@ 035   ----------------------------------------
Voyage_of_380000_km_8_035:
	.byte	W17
	.byte		N11   , Gn0 , v080
	.byte	W12
	.byte		        As0 
	.byte	W12
	.byte		        Cs1 
	.byte	W12
	.byte		N23   
	.byte	W24
	.byte		N23   
	.byte	W19
	.byte	PEND
@ 036   ----------------------------------------
Voyage_of_380000_km_8_036:
	.byte	W05
	.byte		N23   , Cs1 , v080
	.byte	W24
	.byte		        Ds1 
	.byte	W24
	.byte		N56   , Fn1 
	.byte	W42
	.byte	W01
	.byte	PEND
@ 037   ----------------------------------------
	.byte	PATT
	 .word	Voyage_of_380000_km_8_033
@ 038   ----------------------------------------
	.byte	PATT
	 .word	Voyage_of_380000_km_8_034
@ 039   ----------------------------------------
	.byte	PATT
	 .word	Voyage_of_380000_km_8_035
@ 040   ----------------------------------------
	.byte	PATT
	 .word	Voyage_of_380000_km_8_036
@ 041   ----------------------------------------
	.byte	PATT
	 .word	Voyage_of_380000_km_8_033
@ 042   ----------------------------------------
	.byte	PATT
	 .word	Voyage_of_380000_km_8_034
@ 043   ----------------------------------------
	.byte	PATT
	 .word	Voyage_of_380000_km_8_035
@ 044   ----------------------------------------
	.byte	PATT
	 .word	Voyage_of_380000_km_8_036
@ 045   ----------------------------------------
	.byte	PATT
	 .word	Voyage_of_380000_km_8_033
@ 046   ----------------------------------------
Voyage_of_380000_km_8_046:
	.byte	W17
	.byte		N11   , Gs0 , v080
	.byte	W12
	.byte		        Cn1 
	.byte	W12
	.byte		        Ds1 
	.byte	W12
	.byte		N92   , Cn1 
	.byte	W42
	.byte	W01
	.byte	PEND
@ 047   ----------------------------------------
Voyage_of_380000_km_8_047:
	.byte	W52
	.byte	W01
	.byte		N92   , Cn1 , v080
	.byte	W42
	.byte	W01
	.byte	PEND
@ 048   ----------------------------------------
Voyage_of_380000_km_8_048:
	.byte	W52
	.byte	W01
	.byte		TIE   , Cs1 , v080
	.byte	W42
	.byte	W01
	.byte	PEND
@ 049   ----------------------------------------
	.byte	W96
@ 050   ----------------------------------------
	.byte	W52
	.byte		EOT   
	.byte	W01
	.byte		TIE   , Dn1 
	.byte	W42
	.byte	W01
@ 051   ----------------------------------------
	.byte	W96
@ 052   ----------------------------------------
	.byte	W52
	.byte		EOT   
	.byte	W01
	.byte		N92   , As0 
	.byte	W42
	.byte	W01
@ 053   ----------------------------------------
	.byte	PATT
	 .word	Voyage_of_380000_km_8_047
@ 054   ----------------------------------------
Voyage_of_380000_km_8_054:
	.byte	W52
	.byte	W01
	.byte		TIE   , Dn1 , v080
	.byte	W42
	.byte	W01
	.byte	PEND
@ 055   ----------------------------------------
	.byte	W96
@ 056   ----------------------------------------
	.byte	W52
	.byte		EOT   
	.byte	W01
	.byte		TIE   , As0 
	.byte	W42
	.byte	W01
@ 057   ----------------------------------------
	.byte	W96
@ 058   ----------------------------------------
	.byte	W52
	.byte		EOT   
	.byte	W01
	.byte		TIE   , Dn1 
	.byte	W42
	.byte	W01
@ 059   ----------------------------------------
	.byte	W96
@ 060   ----------------------------------------
	.byte	W52
	.byte		EOT   
	.byte	W01
	.byte		N92   , As0 
	.byte	W42
	.byte	W01
@ 061   ----------------------------------------
	.byte	PATT
	 .word	Voyage_of_380000_km_8_047
@ 062   ----------------------------------------
	.byte	PATT
	 .word	Voyage_of_380000_km_8_054
@ 063   ----------------------------------------
	.byte	W96
@ 064   ----------------------------------------
	.byte	W52
	.byte		EOT   , Dn1 
	.byte	W01
	.byte		TIE   , Dn1 , v080
	.byte	W42
	.byte	W01
@ 065   ----------------------------------------
	.byte	W96
@ 066   ----------------------------------------
	.byte	W52
	.byte		EOT   
	.byte	W01
	.byte		TIE   , Cn1 
	.byte	W42
	.byte	W01
@ 067   ----------------------------------------
	.byte	W96
@ 068   ----------------------------------------
	.byte	W52
	.byte		EOT   
	.byte	W01
	.byte		TIE   , Bn0 
	.byte	W42
	.byte	W01
@ 069   ----------------------------------------
	.byte	W96
@ 070   ----------------------------------------
	.byte	W52
	.byte		EOT   
	.byte	W01
	.byte		N92   , As0 
	.byte	W42
	.byte	W01
@ 071   ----------------------------------------
	.byte	PATT
	 .word	Voyage_of_380000_km_8_022
@ 072   ----------------------------------------
Voyage_of_380000_km_8_072:
	.byte	W52
	.byte	W01
	.byte		N11   , Dn0 , v080
	.byte		TIE   , Dn1 
	.byte	W12
	.byte		N11   , An0 
	.byte	W12
	.byte		N11   
	.byte	W12
	.byte		        Dn0 
	.byte	W07
	.byte	PEND
@ 073   ----------------------------------------
Voyage_of_380000_km_8_073:
	.byte	W05
	.byte		N11   , An0 , v080
	.byte	W12
	.byte		N11   
	.byte	W12
	.byte		        Dn0 
	.byte	W12
	.byte		        An0 
	.byte	W12
	.byte		        Dn0 
	.byte	W12
	.byte		        An0 
	.byte	W12
	.byte		N11   
	.byte	W12
	.byte		        Dn0 
	.byte	W07
	.byte	PEND
@ 074   ----------------------------------------
Voyage_of_380000_km_8_074:
	.byte	W05
	.byte		N11   , An0 , v080
	.byte	W12
	.byte		N11   
	.byte	W12
	.byte		        Dn0 
	.byte	W12
	.byte		        An0 
	.byte	W11
	.byte	PEND
	.byte		EOT   , Dn1 
	.byte	W01
	.byte		N11   , Cn0 
	.byte		TIE   , Cn1 
	.byte	W12
	.byte		N11   , Gn0 
	.byte	W12
	.byte		N11   
	.byte	W12
	.byte		        Cn0 
	.byte	W07
@ 075   ----------------------------------------
Voyage_of_380000_km_8_075:
	.byte	W05
	.byte		N11   , Gn0 , v080
	.byte	W12
	.byte		N11   
	.byte	W12
	.byte		        Cn0 
	.byte	W12
	.byte		        Gn0 
	.byte	W12
	.byte		        Cn0 
	.byte	W12
	.byte		        Gn0 
	.byte	W12
	.byte		N11   
	.byte	W12
	.byte		        Cn0 
	.byte	W07
	.byte	PEND
@ 076   ----------------------------------------
Voyage_of_380000_km_8_076:
	.byte	W05
	.byte		N11   , Gn0 , v080
	.byte	W12
	.byte		N11   
	.byte	W12
	.byte		        Cn0 
	.byte	W12
	.byte		N11   
	.byte	W11
	.byte	PEND
	.byte		EOT   , Cn1 
	.byte	W01
	.byte		N11   , BnM1
	.byte		TIE   , Bn0 
	.byte	W12
	.byte		N11   , Fn0 
	.byte	W12
	.byte		N11   
	.byte	W12
	.byte		        BnM1
	.byte	W07
@ 077   ----------------------------------------
Voyage_of_380000_km_8_077:
	.byte	W05
	.byte		N11   , Fn0 , v080
	.byte	W12
	.byte		N11   
	.byte	W12
	.byte		        BnM1
	.byte	W12
	.byte		        Fn0 
	.byte	W12
	.byte		        AsM1
	.byte	W12
	.byte		        Fn0 
	.byte	W12
	.byte		N11   
	.byte	W12
	.byte		        AsM1
	.byte	W07
	.byte	PEND
@ 078   ----------------------------------------
Voyage_of_380000_km_8_078:
	.byte	W05
	.byte		N11   , Fn0 , v080
	.byte	W12
	.byte		N11   
	.byte	W12
	.byte		        AsM1
	.byte	W12
	.byte		N11   
	.byte	W11
	.byte	PEND
	.byte		EOT   , Bn0 
	.byte	W01
	.byte		N11   , AsM1
	.byte		N92   , As0 
	.byte	W12
	.byte		N11   , Fn0 
	.byte	W12
	.byte		N11   
	.byte	W12
	.byte		        AsM1
	.byte	W07
@ 079   ----------------------------------------
Voyage_of_380000_km_8_079:
	.byte	W05
	.byte		N11   , Fn0 , v080
	.byte	W12
	.byte		N11   
	.byte	W12
	.byte		        AsM1
	.byte	W12
	.byte		        Fn0 
	.byte	W12
	.byte		N32   , En0 
	.byte		N92   , En1 
	.byte	W36
	.byte		N32   , En0 
	.byte	W07
	.byte	PEND
@ 080   ----------------------------------------
Voyage_of_380000_km_8_080:
	.byte	W28
	.byte	W01
	.byte		N23   , En0 , v080
	.byte	W24
	.byte		N44   , As0 
	.byte	W42
	.byte	W01
	.byte	PEND
@ 081   ----------------------------------------
Voyage_of_380000_km_8_081:
	.byte	W05
	.byte		N44   , Cn1 , v080
	.byte	W48
	.byte		N92   , Dn1 
	.byte	W42
	.byte	W01
	.byte	PEND
@ 082   ----------------------------------------
Voyage_of_380000_km_8_082:
	.byte	W52
	.byte	W01
	.byte		N44   , As0 , v080
	.byte	W42
	.byte	W01
	.byte	PEND
@ 083   ----------------------------------------
	.byte	PATT
	 .word	Voyage_of_380000_km_8_081
@ 084   ----------------------------------------
	.byte	PATT
	 .word	Voyage_of_380000_km_8_082
@ 085   ----------------------------------------
	.byte	PATT
	 .word	Voyage_of_380000_km_8_081
@ 086   ----------------------------------------
Voyage_of_380000_km_8_086:
	.byte	W52
	.byte	W01
	.byte		N92   , Cs1 , v080
	.byte	W42
	.byte	W01
	.byte	PEND
@ 087   ----------------------------------------
Voyage_of_380000_km_8_087:
	.byte	W52
	.byte	W01
	.byte		N92   , Dn1 , v080
	.byte	W42
	.byte	W01
	.byte	PEND
@ 088   ----------------------------------------
	.byte	PATT
	 .word	Voyage_of_380000_km_8_082
@ 089   ----------------------------------------
	.byte	PATT
	 .word	Voyage_of_380000_km_8_081
@ 090   ----------------------------------------
	.byte	PATT
	 .word	Voyage_of_380000_km_8_082
@ 091   ----------------------------------------
	.byte	PATT
	 .word	Voyage_of_380000_km_8_081
@ 092   ----------------------------------------
	.byte	PATT
	 .word	Voyage_of_380000_km_8_082
@ 093   ----------------------------------------
	.byte	PATT
	 .word	Voyage_of_380000_km_8_081
@ 094   ----------------------------------------
	.byte	PATT
	 .word	Voyage_of_380000_km_8_086
@ 095   ----------------------------------------
	.byte	PATT
	 .word	Voyage_of_380000_km_8_087
@ 096   ----------------------------------------
	.byte	PATT
	 .word	Voyage_of_380000_km_8_048
@ 097   ----------------------------------------
	.byte	W96
@ 098   ----------------------------------------
	.byte	W52
	.byte		EOT   , Cs1 
	.byte	W01
	.byte		TIE   , Dn1 , v080
	.byte	W42
	.byte	W01
@ 099   ----------------------------------------
	.byte	W96
@ 100   ----------------------------------------
	.byte	W52
	.byte		EOT   
	.byte	W01
	.byte		N92   , As0 
	.byte	W42
	.byte	W01
@ 101   ----------------------------------------
	.byte	PATT
	 .word	Voyage_of_380000_km_8_047
@ 102   ----------------------------------------
	.byte	PATT
	 .word	Voyage_of_380000_km_8_054
@ 103   ----------------------------------------
	.byte	W96
@ 104   ----------------------------------------
	.byte	W52
	.byte		EOT   , Dn1 
	.byte	W01
	.byte		TIE   , As0 , v080
	.byte	W42
	.byte	W01
@ 105   ----------------------------------------
	.byte	W96
@ 106   ----------------------------------------
	.byte	W52
	.byte		EOT   
	.byte	W01
	.byte		TIE   , Dn1 
	.byte	W42
	.byte	W01
@ 107   ----------------------------------------
	.byte	W96
@ 108   ----------------------------------------
	.byte	W52
	.byte		EOT   
	.byte	W01
	.byte		N92   , As0 
	.byte	W42
	.byte	W01
@ 109   ----------------------------------------
	.byte	PATT
	 .word	Voyage_of_380000_km_8_047
@ 110   ----------------------------------------
	.byte	PATT
	 .word	Voyage_of_380000_km_8_054
@ 111   ----------------------------------------
	.byte	W96
@ 112   ----------------------------------------
	.byte	W52
	.byte		EOT   , Dn1 
	.byte	W01
	.byte		N92   , Dn1 , v080
	.byte	W42
	.byte	W01
@ 113   ----------------------------------------
	.byte	PATT
	 .word	Voyage_of_380000_km_8_047
@ 114   ----------------------------------------
Voyage_of_380000_km_8_114:
	.byte	W52
	.byte	W01
	.byte		N92   , As0 , v080
	.byte	W42
	.byte	W01
	.byte	PEND
@ 115   ----------------------------------------
Voyage_of_380000_km_8_115:
	.byte	W52
	.byte	W01
	.byte		N23   , As0 , v080
	.byte	W24
	.byte		N23   
	.byte	W19
	.byte	PEND
@ 116   ----------------------------------------
Voyage_of_380000_km_8_116:
	.byte	W05
	.byte		N23   , As0 , v080
	.byte	W24
	.byte		        Cn1 
	.byte	W24
	.byte		N92   , Dn1 
	.byte	W42
	.byte	W01
	.byte	PEND
@ 117   ----------------------------------------
	.byte	PATT
	 .word	Voyage_of_380000_km_8_047
@ 118   ----------------------------------------
	.byte	PATT
	 .word	Voyage_of_380000_km_8_114
@ 119   ----------------------------------------
	.byte	PATT
	 .word	Voyage_of_380000_km_8_115
@ 120   ----------------------------------------
	.byte	PATT
	 .word	Voyage_of_380000_km_8_116
@ 121   ----------------------------------------
	.byte	PATT
	 .word	Voyage_of_380000_km_8_047
@ 122   ----------------------------------------
	.byte	PATT
	 .word	Voyage_of_380000_km_8_114
@ 123   ----------------------------------------
	.byte	PATT
	 .word	Voyage_of_380000_km_8_115
@ 124   ----------------------------------------
	.byte	PATT
	 .word	Voyage_of_380000_km_8_116
@ 125   ----------------------------------------
	.byte	PATT
	 .word	Voyage_of_380000_km_8_047
@ 126   ----------------------------------------
	.byte	PATT
	 .word	Voyage_of_380000_km_8_114
@ 127   ----------------------------------------
	.byte	PATT
	 .word	Voyage_of_380000_km_8_047
@ 128   ----------------------------------------
	.byte	PATT
	 .word	Voyage_of_380000_km_8_023
@ 129   ----------------------------------------
Voyage_of_380000_km_8_129:
	.byte	W52
	.byte	W01
	.byte		N92   , Ds1 , v080
	.byte	W42
	.byte	W01
	.byte	PEND
@ 130   ----------------------------------------
	.byte	PATT
	 .word	Voyage_of_380000_km_8_086
@ 131   ----------------------------------------
Voyage_of_380000_km_8_131:
	.byte	W52
	.byte	W01
	.byte		N23   , Cs1 , v080
	.byte	W24
	.byte		N23   
	.byte	W19
	.byte	PEND
@ 132   ----------------------------------------
Voyage_of_380000_km_8_132:
	.byte	W05
	.byte		N23   , Cs1 , v080
	.byte	W24
	.byte		        Ds1 
	.byte	W24
	.byte		N92   , Fn1 
	.byte	W42
	.byte	W01
	.byte	PEND
@ 133   ----------------------------------------
	.byte	PATT
	 .word	Voyage_of_380000_km_8_129
@ 134   ----------------------------------------
	.byte	PATT
	 .word	Voyage_of_380000_km_8_086
@ 135   ----------------------------------------
	.byte	PATT
	 .word	Voyage_of_380000_km_8_131
@ 136   ----------------------------------------
	.byte	PATT
	 .word	Voyage_of_380000_km_8_132
@ 137   ----------------------------------------
	.byte	PATT
	 .word	Voyage_of_380000_km_8_129
@ 138   ----------------------------------------
	.byte	PATT
	 .word	Voyage_of_380000_km_8_086
@ 139   ----------------------------------------
	.byte	PATT
	 .word	Voyage_of_380000_km_8_131
@ 140   ----------------------------------------
	.byte	PATT
	 .word	Voyage_of_380000_km_8_132
@ 141   ----------------------------------------
	.byte	PATT
	 .word	Voyage_of_380000_km_8_129
@ 142   ----------------------------------------
	.byte	PATT
	 .word	Voyage_of_380000_km_8_086
@ 143   ----------------------------------------
	.byte	PATT
	 .word	Voyage_of_380000_km_8_131
@ 144   ----------------------------------------
	.byte	W05
	.byte		N23   , Cs1 , v080
	.byte	W24
	.byte		        Ds1 
	.byte	W24
	.byte		TIE   , Fn1 
	.byte	W42
	.byte	W01
@ 145   ----------------------------------------
	.byte	W96
@ 146   ----------------------------------------
	.byte	W52
	.byte		EOT   
	.byte	W01
	.byte		TIE   , Ds1 
	.byte	W42
	.byte	W01
@ 147   ----------------------------------------
	.byte	W96
@ 148   ----------------------------------------
	.byte	W52
	.byte		EOT   
	.byte	W01
	.byte		TIE   , Dn1 
	.byte	W42
	.byte	W01
@ 149   ----------------------------------------
	.byte	W96
@ 150   ----------------------------------------
	.byte	W52
	.byte		EOT   
	.byte	W01
	.byte		N92   , Cs1 
	.byte	W42
	.byte	W01
@ 151   ----------------------------------------
	.byte	PATT
	 .word	Voyage_of_380000_km_8_007
@ 152   ----------------------------------------
	.byte	PATT
	 .word	Voyage_of_380000_km_8_008
@ 153   ----------------------------------------
	.byte	PATT
	 .word	Voyage_of_380000_km_8_009
@ 154   ----------------------------------------
	.byte	PATT
	 .word	Voyage_of_380000_km_8_010
	.byte		EOT   , Fn1 
	.byte	W01
	.byte		N11   , Ds0 , v080
	.byte		TIE   , Ds1 
	.byte	W12
	.byte		N11   , As0 
	.byte	W12
	.byte		N11   
	.byte	W12
	.byte		        Ds0 
	.byte	W07
@ 155   ----------------------------------------
	.byte	PATT
	 .word	Voyage_of_380000_km_8_011
@ 156   ----------------------------------------
	.byte	PATT
	 .word	Voyage_of_380000_km_8_012
	.byte		EOT   , Ds1 
	.byte	W01
	.byte		N11   , Dn0 , v080
	.byte		TIE   , Dn1 
	.byte	W12
	.byte		N11   , Gs0 
	.byte	W12
	.byte		N11   
	.byte	W12
	.byte		        Dn0 
	.byte	W07
@ 157   ----------------------------------------
	.byte	PATT
	 .word	Voyage_of_380000_km_8_013
@ 158   ----------------------------------------
	.byte	PATT
	 .word	Voyage_of_380000_km_8_014
	.byte		EOT   , Dn1 
	.byte	W01
	.byte		N11   , Cs0 , v080
	.byte		N92   , Cs1 
	.byte	W12
	.byte		N11   , Gs0 
	.byte	W12
	.byte		N11   
	.byte	W12
	.byte		        Cs0 
	.byte	W07
@ 159   ----------------------------------------
	.byte	PATT
	 .word	Voyage_of_380000_km_8_015
@ 160   ----------------------------------------
	.byte	PATT
	 .word	Voyage_of_380000_km_8_016
@ 161   ----------------------------------------
	.byte	PATT
	 .word	Voyage_of_380000_km_8_017
@ 162   ----------------------------------------
	.byte	PATT
	 .word	Voyage_of_380000_km_8_018
@ 163   ----------------------------------------
	.byte	PATT
	 .word	Voyage_of_380000_km_8_017
@ 164   ----------------------------------------
	.byte	PATT
	 .word	Voyage_of_380000_km_8_018
@ 165   ----------------------------------------
	.byte	PATT
	 .word	Voyage_of_380000_km_8_017
@ 166   ----------------------------------------
	.byte	PATT
	 .word	Voyage_of_380000_km_8_022
@ 167   ----------------------------------------
	.byte	PATT
	 .word	Voyage_of_380000_km_8_023
@ 168   ----------------------------------------
	.byte	PATT
	 .word	Voyage_of_380000_km_8_018
@ 169   ----------------------------------------
	.byte	PATT
	 .word	Voyage_of_380000_km_8_017
@ 170   ----------------------------------------
	.byte	PATT
	 .word	Voyage_of_380000_km_8_018
@ 171   ----------------------------------------
	.byte	PATT
	 .word	Voyage_of_380000_km_8_017
@ 172   ----------------------------------------
	.byte	PATT
	 .word	Voyage_of_380000_km_8_018
@ 173   ----------------------------------------
	.byte	PATT
	 .word	Voyage_of_380000_km_8_017
@ 174   ----------------------------------------
	.byte	PATT
	 .word	Voyage_of_380000_km_8_022
@ 175   ----------------------------------------
	.byte	PATT
	 .word	Voyage_of_380000_km_8_023
@ 176   ----------------------------------------
	.byte	PATT
	 .word	Voyage_of_380000_km_8_032
@ 177   ----------------------------------------
	.byte	PATT
	 .word	Voyage_of_380000_km_8_033
@ 178   ----------------------------------------
	.byte	PATT
	 .word	Voyage_of_380000_km_8_034
@ 179   ----------------------------------------
	.byte	PATT
	 .word	Voyage_of_380000_km_8_035
@ 180   ----------------------------------------
	.byte	PATT
	 .word	Voyage_of_380000_km_8_036
@ 181   ----------------------------------------
	.byte	PATT
	 .word	Voyage_of_380000_km_8_033
@ 182   ----------------------------------------
	.byte	PATT
	 .word	Voyage_of_380000_km_8_034
@ 183   ----------------------------------------
	.byte	PATT
	 .word	Voyage_of_380000_km_8_035
@ 184   ----------------------------------------
	.byte	PATT
	 .word	Voyage_of_380000_km_8_036
@ 185   ----------------------------------------
	.byte	PATT
	 .word	Voyage_of_380000_km_8_033
@ 186   ----------------------------------------
	.byte	PATT
	 .word	Voyage_of_380000_km_8_034
@ 187   ----------------------------------------
	.byte	PATT
	 .word	Voyage_of_380000_km_8_035
@ 188   ----------------------------------------
	.byte	PATT
	 .word	Voyage_of_380000_km_8_036
@ 189   ----------------------------------------
	.byte	PATT
	 .word	Voyage_of_380000_km_8_033
@ 190   ----------------------------------------
	.byte	PATT
	 .word	Voyage_of_380000_km_8_046
@ 191   ----------------------------------------
	.byte	PATT
	 .word	Voyage_of_380000_km_8_047
@ 192   ----------------------------------------
	.byte	PATT
	 .word	Voyage_of_380000_km_8_048
@ 193   ----------------------------------------
	.byte	W96
@ 194   ----------------------------------------
	.byte	W52
	.byte		EOT   , Cs1 
	.byte	W01
	.byte		TIE   , Dn1 , v080
	.byte	W42
	.byte	W01
@ 195   ----------------------------------------
	.byte	W96
@ 196   ----------------------------------------
	.byte	W52
	.byte		EOT   
	.byte	W01
	.byte		N92   , As0 
	.byte	W42
	.byte	W01
@ 197   ----------------------------------------
	.byte	PATT
	 .word	Voyage_of_380000_km_8_047
@ 198   ----------------------------------------
	.byte	PATT
	 .word	Voyage_of_380000_km_8_054
@ 199   ----------------------------------------
	.byte	W96
@ 200   ----------------------------------------
	.byte	W52
	.byte		EOT   , Dn1 
	.byte	W01
	.byte		TIE   , As0 , v080
	.byte	W42
	.byte	W01
@ 201   ----------------------------------------
	.byte	W96
@ 202   ----------------------------------------
	.byte	W52
	.byte		EOT   
	.byte	W01
	.byte		TIE   , Dn1 
	.byte	W42
	.byte	W01
@ 203   ----------------------------------------
	.byte	W96
@ 204   ----------------------------------------
	.byte	W52
	.byte		EOT   
	.byte	W01
	.byte		N92   , As0 
	.byte	W42
	.byte	W01
@ 205   ----------------------------------------
	.byte	PATT
	 .word	Voyage_of_380000_km_8_047
@ 206   ----------------------------------------
	.byte	PATT
	 .word	Voyage_of_380000_km_8_054
@ 207   ----------------------------------------
	.byte	W96
@ 208   ----------------------------------------
	.byte	W52
	.byte		EOT   , Dn1 
	.byte	W01
	.byte		TIE   , Dn1 , v080
	.byte	W42
	.byte	W01
@ 209   ----------------------------------------
	.byte	W96
@ 210   ----------------------------------------
	.byte	W52
	.byte		EOT   
	.byte	W01
	.byte		TIE   , Cn1 
	.byte	W42
	.byte	W01
@ 211   ----------------------------------------
	.byte	W96
@ 212   ----------------------------------------
	.byte	W52
	.byte		EOT   
	.byte	W01
	.byte		TIE   , Bn0 
	.byte	W42
	.byte	W01
@ 213   ----------------------------------------
	.byte	W96
@ 214   ----------------------------------------
	.byte	W52
	.byte		EOT   
	.byte	W01
	.byte		N92   , As0 
	.byte	W42
	.byte	W01
@ 215   ----------------------------------------
	.byte	PATT
	 .word	Voyage_of_380000_km_8_022
@ 216   ----------------------------------------
	.byte	PATT
	 .word	Voyage_of_380000_km_8_072
@ 217   ----------------------------------------
	.byte	PATT
	 .word	Voyage_of_380000_km_8_073
@ 218   ----------------------------------------
	.byte	PATT
	 .word	Voyage_of_380000_km_8_074
	.byte		EOT   , Dn1 
	.byte	W01
	.byte		N11   , Cn0 , v080
	.byte		TIE   , Cn1 
	.byte	W12
	.byte		N11   , Gn0 
	.byte	W12
	.byte		N11   
	.byte	W12
	.byte		        Cn0 
	.byte	W07
@ 219   ----------------------------------------
	.byte	PATT
	 .word	Voyage_of_380000_km_8_075
@ 220   ----------------------------------------
	.byte	PATT
	 .word	Voyage_of_380000_km_8_076
	.byte		EOT   , Cn1 
	.byte	W01
	.byte		N11   , BnM1, v080
	.byte		TIE   , Bn0 
	.byte	W12
	.byte		N11   , Fn0 
	.byte	W12
	.byte		N11   
	.byte	W12
	.byte		        BnM1
	.byte	W07
@ 221   ----------------------------------------
	.byte	PATT
	 .word	Voyage_of_380000_km_8_077
@ 222   ----------------------------------------
	.byte	PATT
	 .word	Voyage_of_380000_km_8_078
	.byte		EOT   , Bn0 
	.byte	W01
	.byte		N11   , AsM1, v080
	.byte		N92   , As0 
	.byte	W12
	.byte		N11   , Fn0 
	.byte	W12
	.byte		N11   
	.byte	W12
	.byte		        AsM1
	.byte	W07
@ 223   ----------------------------------------
	.byte	PATT
	 .word	Voyage_of_380000_km_8_079
@ 224   ----------------------------------------
	.byte	PATT
	 .word	Voyage_of_380000_km_8_080
@ 225   ----------------------------------------
	.byte	PATT
	 .word	Voyage_of_380000_km_8_081
@ 226   ----------------------------------------
	.byte	PATT
	 .word	Voyage_of_380000_km_8_082
@ 227   ----------------------------------------
	.byte	PATT
	 .word	Voyage_of_380000_km_8_081
@ 228   ----------------------------------------
	.byte	PATT
	 .word	Voyage_of_380000_km_8_082
@ 229   ----------------------------------------
	.byte	PATT
	 .word	Voyage_of_380000_km_8_081
@ 230   ----------------------------------------
	.byte	PATT
	 .word	Voyage_of_380000_km_8_086
@ 231   ----------------------------------------
	.byte	PATT
	 .word	Voyage_of_380000_km_8_087
@ 232   ----------------------------------------
	.byte	PATT
	 .word	Voyage_of_380000_km_8_082
@ 233   ----------------------------------------
	.byte	PATT
	 .word	Voyage_of_380000_km_8_081
@ 234   ----------------------------------------
	.byte	PATT
	 .word	Voyage_of_380000_km_8_082
@ 235   ----------------------------------------
	.byte	PATT
	 .word	Voyage_of_380000_km_8_081
@ 236   ----------------------------------------
	.byte	PATT
	 .word	Voyage_of_380000_km_8_082
@ 237   ----------------------------------------
	.byte	PATT
	 .word	Voyage_of_380000_km_8_081
@ 238   ----------------------------------------
	.byte	PATT
	 .word	Voyage_of_380000_km_8_086
@ 239   ----------------------------------------
	.byte	PATT
	 .word	Voyage_of_380000_km_8_087
@ 240   ----------------------------------------
	.byte	PATT
	 .word	Voyage_of_380000_km_8_048
@ 241   ----------------------------------------
	.byte	W96
@ 242   ----------------------------------------
	.byte	W52
	.byte		EOT   , Cs1 
	.byte	W01
	.byte		TIE   , Dn1 , v080
	.byte	W42
	.byte	W01
@ 243   ----------------------------------------
	.byte	W96
@ 244   ----------------------------------------
	.byte	W52
	.byte		EOT   
	.byte	W01
	.byte		N92   , As0 
	.byte	W42
	.byte	W01
@ 245   ----------------------------------------
	.byte	PATT
	 .word	Voyage_of_380000_km_8_047
@ 246   ----------------------------------------
	.byte	PATT
	 .word	Voyage_of_380000_km_8_054
@ 247   ----------------------------------------
	.byte	W96
@ 248   ----------------------------------------
	.byte	W52
	.byte		EOT   , Dn1 
	.byte	W01
	.byte		TIE   , As0 , v080
	.byte	W42
	.byte	W01
@ 249   ----------------------------------------
	.byte	W96
@ 250   ----------------------------------------
	.byte	W52
	.byte		EOT   
	.byte	W01
	.byte		TIE   , Dn1 
	.byte	W42
	.byte	W01
@ 251   ----------------------------------------
	.byte	W96
@ 252   ----------------------------------------
	.byte	W52
	.byte		EOT   
	.byte	W01
	.byte		N92   , As0 
	.byte	W42
	.byte	W01
@ 253   ----------------------------------------
	.byte	PATT
	 .word	Voyage_of_380000_km_8_047
@ 254   ----------------------------------------
	.byte	PATT
	 .word	Voyage_of_380000_km_8_054
@ 255   ----------------------------------------
	.byte	W96
@ 256   ----------------------------------------
	.byte	W52
	.byte		EOT   , Dn1 
	.byte	W01
	.byte		N92   , Dn1 , v080
	.byte	W42
	.byte	W01
@ 257   ----------------------------------------
	.byte	PATT
	 .word	Voyage_of_380000_km_8_047
@ 258   ----------------------------------------
	.byte	PATT
	 .word	Voyage_of_380000_km_8_114
@ 259   ----------------------------------------
	.byte	PATT
	 .word	Voyage_of_380000_km_8_115
@ 260   ----------------------------------------
	.byte	PATT
	 .word	Voyage_of_380000_km_8_116
@ 261   ----------------------------------------
	.byte	PATT
	 .word	Voyage_of_380000_km_8_047
@ 262   ----------------------------------------
	.byte	PATT
	 .word	Voyage_of_380000_km_8_114
@ 263   ----------------------------------------
	.byte	PATT
	 .word	Voyage_of_380000_km_8_115
@ 264   ----------------------------------------
	.byte	PATT
	 .word	Voyage_of_380000_km_8_116
@ 265   ----------------------------------------
	.byte	PATT
	 .word	Voyage_of_380000_km_8_047
@ 266   ----------------------------------------
	.byte	PATT
	 .word	Voyage_of_380000_km_8_114
@ 267   ----------------------------------------
	.byte	PATT
	 .word	Voyage_of_380000_km_8_115
@ 268   ----------------------------------------
	.byte	PATT
	 .word	Voyage_of_380000_km_8_116
@ 269   ----------------------------------------
	.byte	PATT
	 .word	Voyage_of_380000_km_8_047
@ 270   ----------------------------------------
	.byte	PATT
	 .word	Voyage_of_380000_km_8_114
@ 271   ----------------------------------------
	.byte	PATT
	 .word	Voyage_of_380000_km_8_047
@ 272   ----------------------------------------
	.byte	PATT
	 .word	Voyage_of_380000_km_8_023
@ 273   ----------------------------------------
	.byte	PATT
	 .word	Voyage_of_380000_km_8_129
@ 274   ----------------------------------------
	.byte	PATT
	 .word	Voyage_of_380000_km_8_086
@ 275   ----------------------------------------
	.byte	PATT
	 .word	Voyage_of_380000_km_8_131
@ 276   ----------------------------------------
	.byte	PATT
	 .word	Voyage_of_380000_km_8_132
@ 277   ----------------------------------------
	.byte	PATT
	 .word	Voyage_of_380000_km_8_129
@ 278   ----------------------------------------
	.byte	PATT
	 .word	Voyage_of_380000_km_8_086
@ 279   ----------------------------------------
	.byte	PATT
	 .word	Voyage_of_380000_km_8_131
@ 280   ----------------------------------------
	.byte	PATT
	 .word	Voyage_of_380000_km_8_132
@ 281   ----------------------------------------
	.byte	PATT
	 .word	Voyage_of_380000_km_8_129
@ 282   ----------------------------------------
	.byte	PATT
	 .word	Voyage_of_380000_km_8_086
@ 283   ----------------------------------------
	.byte	PATT
	 .word	Voyage_of_380000_km_8_131
@ 284   ----------------------------------------
	.byte	PATT
	 .word	Voyage_of_380000_km_8_132
@ 285   ----------------------------------------
	.byte	PATT
	 .word	Voyage_of_380000_km_8_129
@ 286   ----------------------------------------
	.byte	PATT
	 .word	Voyage_of_380000_km_8_086
@ 287   ----------------------------------------
	.byte	PATT
	 .word	Voyage_of_380000_km_8_131
@ 288   ----------------------------------------
	.byte	W05
	.byte		N23   , Cs1 , v080
	.byte	W24
	.byte		        Ds1 
	.byte	W48
	.byte	GOTO
	 .word	Voyage_of_380000_km_8_B1
Voyage_of_380000_km_8_B2:
	.byte	FINE

@**************** Track 9 (Midi-Chn.10) ****************@

Voyage_of_380000_km_9:
	.byte	KEYSH , Voyage_of_380000_km_key+0
Voyage_of_380000_km_9_B1:
@ 000   ----------------------------------------
	.byte		VOICE , 127
	.byte		PAN   , c_v+0
	.byte		VOL   , 124*Voyage_of_380000_km_mvl/mxv
	.byte		PAN   , c_v+0
	.byte		VOL   , 124*Voyage_of_380000_km_mvl/mxv
	.byte		PAN   , c_v+0
	.byte		VOL   , 124*Voyage_of_380000_km_mvl/mxv
	.byte		PAN   , c_v+0
	.byte		VOL   , 127*Voyage_of_380000_km_mvl/mxv
	.byte		PAN   , c_v+0
	.byte		VOL   , 124*Voyage_of_380000_km_mvl/mxv
	.byte	W05
	.byte		N05   , Bn0 , v080
	.byte	W06
	.byte		N05   
	.byte	W06
	.byte		N05   
	.byte	W06
	.byte		N05   
	.byte	W06
	.byte		N23   
	.byte		N23   , Dn1 
	.byte		N23   , Fs1 
	.byte	W24
	.byte		        Bn0 
	.byte	W42
	.byte	W01
@ 001   ----------------------------------------
Voyage_of_380000_km_9_001:
	.byte	W05
	.byte		N23   , Bn0 , v080
	.byte	W48
	.byte		N23   
	.byte	W42
	.byte	W01
	.byte	PEND
@ 002   ----------------------------------------
Voyage_of_380000_km_9_002:
	.byte	W05
	.byte		N23   , Bn0 , v080
	.byte	W48
	.byte		N23   
	.byte		N23   , Fs1 
	.byte	W42
	.byte	W01
	.byte	PEND
@ 003   ----------------------------------------
	.byte	PATT
	 .word	Voyage_of_380000_km_9_001
@ 004   ----------------------------------------
	.byte	PATT
	 .word	Voyage_of_380000_km_9_002
@ 005   ----------------------------------------
	.byte	PATT
	 .word	Voyage_of_380000_km_9_001
@ 006   ----------------------------------------
	.byte	PATT
	 .word	Voyage_of_380000_km_9_002
@ 007   ----------------------------------------
Voyage_of_380000_km_9_007:
	.byte	W05
	.byte		N23   , Bn0 , v080
	.byte	W48
	.byte		N23   
	.byte	W24
	.byte		N23   
	.byte	W19
	.byte	PEND
@ 008   ----------------------------------------
Voyage_of_380000_km_9_008:
	.byte	W05
	.byte		N23   , Bn0 , v080
	.byte	W24
	.byte		N23   
	.byte	W24
	.byte		N23   
	.byte		N11   , Fs1 
	.byte	W12
	.byte		N11   
	.byte	W12
	.byte		N23   , Bn0 
	.byte		N11   , As1 
	.byte	W12
	.byte		        Fs1 
	.byte	W07
	.byte	PEND
@ 009   ----------------------------------------
Voyage_of_380000_km_9_009:
	.byte	W05
	.byte		N23   , Bn0 , v080
	.byte	W12
	.byte		N11   , Fs1 
	.byte	W12
	.byte		N23   , Bn0 
	.byte		N11   , As1 
	.byte	W12
	.byte		        Fs1 
	.byte	W12
	.byte		N23   , Bn0 
	.byte		N11   , Fs1 
	.byte	W12
	.byte		N11   
	.byte	W12
	.byte		N23   , Bn0 
	.byte		N11   , As1 
	.byte	W12
	.byte		        Fs1 
	.byte	W07
	.byte	PEND
@ 010   ----------------------------------------
Voyage_of_380000_km_9_010:
	.byte	W05
	.byte		N23   , Bn0 , v080
	.byte	W12
	.byte		N11   , Fs1 
	.byte	W12
	.byte		N23   , Bn0 
	.byte		N11   , As1 
	.byte	W12
	.byte		N05   , Fs1 
	.byte	W06
	.byte		N05   
	.byte	W06
	.byte		N23   , Bn0 
	.byte		N11   , Fs1 
	.byte	W12
	.byte		N11   
	.byte	W12
	.byte		N23   , Bn0 
	.byte		N11   , As1 
	.byte	W12
	.byte		        Fs1 
	.byte	W07
	.byte	PEND
@ 011   ----------------------------------------
	.byte	PATT
	 .word	Voyage_of_380000_km_9_009
@ 012   ----------------------------------------
	.byte	PATT
	 .word	Voyage_of_380000_km_9_010
@ 013   ----------------------------------------
	.byte	PATT
	 .word	Voyage_of_380000_km_9_009
@ 014   ----------------------------------------
	.byte	PATT
	 .word	Voyage_of_380000_km_9_010
@ 015   ----------------------------------------
Voyage_of_380000_km_9_015:
	.byte	W05
	.byte		N23   , Bn0 , v080
	.byte	W12
	.byte		N11   , Fs1 
	.byte	W12
	.byte		N23   , Bn0 
	.byte		N05   , Dn1 
	.byte		N11   , As1 
	.byte	W06
	.byte		N05   , Dn1 
	.byte	W06
	.byte		N05   
	.byte		N11   , Fs1 
	.byte	W06
	.byte		N05   , Dn1 
	.byte	W06
	.byte		N23   , Bn0 
	.byte		N23   , Dn1 
	.byte		N11   , Fs1 
	.byte	W12
	.byte		N11   
	.byte	W12
	.byte		N23   , Bn0 
	.byte		N23   , Dn1 
	.byte		N11   , As1 
	.byte	W12
	.byte		        Fs1 
	.byte	W07
	.byte	PEND
@ 016   ----------------------------------------
Voyage_of_380000_km_9_016:
	.byte	W05
	.byte		N23   , Bn0 , v080
	.byte		N23   , Dn1 
	.byte	W12
	.byte		N11   , Fs1 
	.byte	W12
	.byte		N23   , Bn0 
	.byte		N11   , As1 
	.byte	W12
	.byte		N05   , Fs1 
	.byte	W06
	.byte		N05   
	.byte	W06
	.byte		N11   , Bn0 
	.byte		N05   , Fs1 
	.byte	W06
	.byte		N05   
	.byte	W06
	.byte		N11   , Bn0 
	.byte		N05   , Fs1 
	.byte	W12
	.byte		N23   , Dn1 
	.byte		N11   , Fs1 
	.byte	W12
	.byte		        As1 
	.byte	W07
	.byte	PEND
@ 017   ----------------------------------------
Voyage_of_380000_km_9_017:
	.byte	W05
	.byte		N11   , Bn0 , v080
	.byte		N11   , Fs1 
	.byte	W12
	.byte		        Bn0 
	.byte		N11   , As1 
	.byte	W12
	.byte		N23   , Dn1 
	.byte		N11   , Fs1 
	.byte	W12
	.byte		N05   , As1 
	.byte	W06
	.byte		        Fs1 
	.byte	W06
	.byte		N11   , Bn0 
	.byte		N05   , Fs1 
	.byte	W06
	.byte		N05   
	.byte	W06
	.byte		N11   , Bn0 
	.byte		N05   , Fs1 
	.byte	W12
	.byte		N23   , Dn1 
	.byte		N11   , Fs1 
	.byte	W12
	.byte		        As1 
	.byte	W07
	.byte	PEND
@ 018   ----------------------------------------
	.byte	PATT
	 .word	Voyage_of_380000_km_9_017
@ 019   ----------------------------------------
	.byte	PATT
	 .word	Voyage_of_380000_km_9_017
@ 020   ----------------------------------------
	.byte	PATT
	 .word	Voyage_of_380000_km_9_017
@ 021   ----------------------------------------
	.byte	PATT
	 .word	Voyage_of_380000_km_9_017
@ 022   ----------------------------------------
	.byte	PATT
	 .word	Voyage_of_380000_km_9_017
@ 023   ----------------------------------------
Voyage_of_380000_km_9_023:
	.byte	W05
	.byte		N11   , Bn0 , v080
	.byte		N11   , Fs1 
	.byte	W12
	.byte		        Bn0 
	.byte		N11   , As1 
	.byte	W12
	.byte		N23   , Dn1 
	.byte		N11   , Fs1 
	.byte	W12
	.byte		N05   , As1 
	.byte	W06
	.byte		        Fs1 
	.byte	W06
	.byte		N11   , Bn0 
	.byte		N05   , Fs1 
	.byte	W06
	.byte		N05   
	.byte	W06
	.byte		N11   , Bn0 
	.byte		N05   , Fs1 
	.byte	W12
	.byte		N17   , Dn1 
	.byte		N11   , Fs1 
	.byte	W12
	.byte		        As1 
	.byte	W06
	.byte		N17   , Dn1 
	.byte	W01
	.byte	PEND
@ 024   ----------------------------------------
Voyage_of_380000_km_9_024:
	.byte	W05
	.byte		N11   , Bn0 , v080
	.byte		N11   , Fs1 
	.byte	W12
	.byte		        Bn0 
	.byte		N05   , Dn1 
	.byte		N11   , As1 
	.byte	W12
	.byte		        Fs1 
	.byte	W12
	.byte		N05   , As1 
	.byte	W06
	.byte		        Fs1 
	.byte	W06
	.byte		N11   , Bn0 
	.byte		N05   , Fs1 
	.byte	W06
	.byte		N05   
	.byte	W06
	.byte		N11   , Bn0 
	.byte		N05   , Fs1 
	.byte	W12
	.byte		N23   , Dn1 
	.byte		N11   , Fs1 
	.byte	W12
	.byte		        As1 
	.byte	W07
	.byte	PEND
@ 025   ----------------------------------------
	.byte	PATT
	 .word	Voyage_of_380000_km_9_017
@ 026   ----------------------------------------
	.byte	PATT
	 .word	Voyage_of_380000_km_9_017
@ 027   ----------------------------------------
	.byte	PATT
	 .word	Voyage_of_380000_km_9_017
@ 028   ----------------------------------------
	.byte	PATT
	 .word	Voyage_of_380000_km_9_017
@ 029   ----------------------------------------
	.byte	PATT
	 .word	Voyage_of_380000_km_9_017
@ 030   ----------------------------------------
Voyage_of_380000_km_9_030:
	.byte	W05
	.byte		N11   , Bn0 , v080
	.byte		N11   , Fs1 
	.byte	W12
	.byte		        Bn0 
	.byte		N11   , As1 
	.byte	W12
	.byte		N23   , Dn1 
	.byte		N11   , Fs1 
	.byte	W12
	.byte		N05   , As1 
	.byte	W06
	.byte		        Fs1 
	.byte	W06
	.byte		N11   , Bn0 
	.byte		N23   , Dn1 
	.byte		N05   , Fs1 
	.byte	W06
	.byte		N05   
	.byte	W06
	.byte		N11   , Bn0 
	.byte		N05   , Fs1 
	.byte	W12
	.byte		N11   , Dn1 
	.byte		N11   , Fs1 
	.byte	W12
	.byte		        Dn1 
	.byte		N11   , As1 
	.byte	W07
	.byte	PEND
@ 031   ----------------------------------------
Voyage_of_380000_km_9_031:
	.byte	W05
	.byte		N11   , Bn0 , v080
	.byte		N11   , Dn1 
	.byte		N11   , Fs1 
	.byte	W12
	.byte		        Bn0 
	.byte		N11   , Dn1 
	.byte		N11   , As1 
	.byte	W12
	.byte		N05   , Dn1 
	.byte		N11   , Fs1 
	.byte	W06
	.byte		N05   , Dn1 
	.byte	W06
	.byte		N05   
	.byte		N05   , As1 
	.byte	W06
	.byte		        Dn1 
	.byte		N05   , Fs1 
	.byte	W06
	.byte		        Bn0 
	.byte		N05   , Dn1 
	.byte		N05   , Fs1 
	.byte	W06
	.byte		        Bn0 
	.byte		N05   , Dn1 
	.byte		N05   , Fs1 
	.byte	W06
	.byte		        Bn0 
	.byte		N05   , Dn1 
	.byte		N05   , Fs1 
	.byte	W06
	.byte		        Bn0 
	.byte	W06
	.byte		N05   
	.byte		N11   , Fs1 
	.byte	W12
	.byte		        As1 
	.byte	W07
	.byte	PEND
@ 032   ----------------------------------------
Voyage_of_380000_km_9_032:
	.byte	W05
	.byte		N05   , Bn0 , v080
	.byte		N05   , Dn1 
	.byte		N11   , Fs1 
	.byte	W06
	.byte		N05   , Bn0 
	.byte		N05   , Dn1 
	.byte	W06
	.byte		        Bn0 
	.byte		N05   , Dn1 
	.byte		N11   , As1 
	.byte	W06
	.byte		N05   , Bn0 
	.byte		N05   , Dn1 
	.byte	W06
	.byte		        Bn0 
	.byte		N05   , Dn1 
	.byte		N11   , Fs1 
	.byte	W12
	.byte		N05   , As1 
	.byte	W06
	.byte		        Dn1 
	.byte		N05   , Fs1 
	.byte	W06
	.byte		N11   , Bn0 
	.byte		N05   , Fs1 
	.byte	W06
	.byte		N05   
	.byte	W06
	.byte		N11   , Bn0 
	.byte		N05   , Fs1 
	.byte	W12
	.byte		N23   , Dn1 
	.byte		N11   , Fs1 
	.byte	W12
	.byte		        As1 
	.byte	W07
	.byte	PEND
@ 033   ----------------------------------------
	.byte	PATT
	 .word	Voyage_of_380000_km_9_017
@ 034   ----------------------------------------
	.byte	PATT
	 .word	Voyage_of_380000_km_9_017
@ 035   ----------------------------------------
	.byte	PATT
	 .word	Voyage_of_380000_km_9_017
@ 036   ----------------------------------------
	.byte	PATT
	 .word	Voyage_of_380000_km_9_017
@ 037   ----------------------------------------
	.byte	PATT
	 .word	Voyage_of_380000_km_9_017
@ 038   ----------------------------------------
	.byte	PATT
	 .word	Voyage_of_380000_km_9_017
@ 039   ----------------------------------------
	.byte	PATT
	 .word	Voyage_of_380000_km_9_017
@ 040   ----------------------------------------
	.byte	PATT
	 .word	Voyage_of_380000_km_9_017
@ 041   ----------------------------------------
	.byte	PATT
	 .word	Voyage_of_380000_km_9_017
@ 042   ----------------------------------------
	.byte	PATT
	 .word	Voyage_of_380000_km_9_017
@ 043   ----------------------------------------
	.byte	PATT
	 .word	Voyage_of_380000_km_9_017
@ 044   ----------------------------------------
	.byte	PATT
	 .word	Voyage_of_380000_km_9_017
@ 045   ----------------------------------------
	.byte	PATT
	 .word	Voyage_of_380000_km_9_023
@ 046   ----------------------------------------
Voyage_of_380000_km_9_046:
	.byte	W05
	.byte		N11   , Bn0 , v080
	.byte		N11   , Fs1 
	.byte	W12
	.byte		        Bn0 
	.byte		N05   , Dn1 
	.byte		N11   , As1 
	.byte	W12
	.byte		        Fs1 
	.byte	W12
	.byte		N05   , As1 
	.byte	W06
	.byte		        Fs1 
	.byte	W06
	.byte		N11   , Bn0 
	.byte		N05   , Fs1 
	.byte	W06
	.byte		N05   
	.byte	W06
	.byte		N11   , Bn0 
	.byte		N11   , Dn1 
	.byte		N11   , Ds1 
	.byte		N05   , Fs1 
	.byte	W12
	.byte		N11   
	.byte	W12
	.byte		        Dn1 
	.byte		N11   , Ds1 
	.byte		N11   , As1 
	.byte	W07
	.byte	PEND
@ 047   ----------------------------------------
Voyage_of_380000_km_9_047:
	.byte	W05
	.byte		N11   , Bn0 , v080
	.byte		N11   , Fs1 
	.byte	W12
	.byte		        Bn0 
	.byte		N11   , Dn1 
	.byte		N11   , Ds1 
	.byte		N11   , As1 
	.byte	W12
	.byte		        Fs1 
	.byte	W12
	.byte		        Dn1 
	.byte		N11   , Ds1 
	.byte		N05   , As1 
	.byte	W06
	.byte		        Fs1 
	.byte	W06
	.byte		N23   , Bn0 
	.byte		N11   , Dn1 
	.byte		N05   , Fs1 
	.byte	W06
	.byte		N05   
	.byte	W06
	.byte		N11   , Dn1 
	.byte		N11   , Ds1 
	.byte		N05   , Fs1 
	.byte	W12
	.byte		N23   , Bn0 
	.byte		N11   , Dn1 
	.byte		N11   , Fs1 
	.byte	W12
	.byte		        Dn1 
	.byte		N11   , Ds1 
	.byte		N11   , As1 
	.byte	W07
	.byte	PEND
@ 048   ----------------------------------------
Voyage_of_380000_km_9_048:
	.byte	W05
	.byte		N23   , Bn0 , v080
	.byte		N11   , Dn1 
	.byte		N11   , Fs1 
	.byte	W12
	.byte		        Ds1 
	.byte		N11   , As1 
	.byte	W12
	.byte		N23   , Bn0 
	.byte		N05   , Dn1 
	.byte		N11   , Fs1 
	.byte	W06
	.byte		N05   , Dn1 
	.byte	W06
	.byte		N05   
	.byte		N11   , Ds1 
	.byte		N05   , As1 
	.byte	W06
	.byte		        Dn1 
	.byte		N05   , Fs1 
	.byte	W06
	.byte		N23   , Bn0 
	.byte		N11   , Fs1 
	.byte	W12
	.byte		N11   
	.byte	W12
	.byte		N23   , Bn0 
	.byte		N11   , As1 
	.byte	W12
	.byte		        Fs1 
	.byte	W07
	.byte	PEND
@ 049   ----------------------------------------
	.byte	PATT
	 .word	Voyage_of_380000_km_9_009
@ 050   ----------------------------------------
	.byte	PATT
	 .word	Voyage_of_380000_km_9_010
@ 051   ----------------------------------------
	.byte	PATT
	 .word	Voyage_of_380000_km_9_009
@ 052   ----------------------------------------
	.byte	PATT
	 .word	Voyage_of_380000_km_9_010
@ 053   ----------------------------------------
	.byte	PATT
	 .word	Voyage_of_380000_km_9_009
@ 054   ----------------------------------------
	.byte	PATT
	 .word	Voyage_of_380000_km_9_010
@ 055   ----------------------------------------
	.byte	PATT
	 .word	Voyage_of_380000_km_9_015
@ 056   ----------------------------------------
Voyage_of_380000_km_9_056:
	.byte	W05
	.byte		N23   , Bn0 , v080
	.byte		N11   , Dn1 
	.byte	W12
	.byte		N11   
	.byte		N11   , Fs1 
	.byte	W12
	.byte		N23   , Bn0 
	.byte		N05   , Dn1 
	.byte		N11   , As1 
	.byte	W06
	.byte		N05   , Dn1 
	.byte	W06
	.byte		N05   
	.byte		N05   , Fs1 
	.byte	W06
	.byte		N05   
	.byte	W06
	.byte		N23   , Bn0 
	.byte		N11   , Fs1 
	.byte	W12
	.byte		N11   
	.byte	W12
	.byte		N23   , Bn0 
	.byte		N11   , As1 
	.byte	W12
	.byte		        Fs1 
	.byte	W07
	.byte	PEND
@ 057   ----------------------------------------
	.byte	PATT
	 .word	Voyage_of_380000_km_9_009
@ 058   ----------------------------------------
	.byte	PATT
	 .word	Voyage_of_380000_km_9_010
@ 059   ----------------------------------------
	.byte	PATT
	 .word	Voyage_of_380000_km_9_009
@ 060   ----------------------------------------
	.byte	PATT
	 .word	Voyage_of_380000_km_9_010
@ 061   ----------------------------------------
	.byte	PATT
	 .word	Voyage_of_380000_km_9_009
@ 062   ----------------------------------------
Voyage_of_380000_km_9_062:
	.byte	W05
	.byte		N23   , Bn0 , v080
	.byte	W12
	.byte		N11   , Fs1 
	.byte	W12
	.byte		N23   , Bn0 
	.byte		N11   , As1 
	.byte	W12
	.byte		N05   , Fs1 
	.byte	W06
	.byte		N05   
	.byte	W06
	.byte		N23   , Bn0 
	.byte		N11   , Fs1 
	.byte	W12
	.byte		N11   
	.byte	W12
	.byte		N23   , Bn0 
	.byte		N11   , Dn1 
	.byte		N11   , As1 
	.byte	W12
	.byte		        Dn1 
	.byte		N11   , Fs1 
	.byte	W07
	.byte	PEND
@ 063   ----------------------------------------
Voyage_of_380000_km_9_063:
	.byte	W05
	.byte		N23   , Bn0 , v080
	.byte	W12
	.byte		N11   , Dn1 
	.byte		N11   , Fs1 
	.byte	W12
	.byte		N23   , Bn0 
	.byte		N05   , Dn1 
	.byte		N11   , As1 
	.byte	W06
	.byte		N05   , Dn1 
	.byte	W06
	.byte		N05   
	.byte		N11   , Fs1 
	.byte	W06
	.byte		N05   , Dn1 
	.byte	W06
	.byte		N23   , Bn0 
	.byte		N23   , Dn1 
	.byte		N11   , Fs1 
	.byte	W12
	.byte		N11   
	.byte	W12
	.byte		N23   , Bn0 
	.byte		N23   , Dn1 
	.byte		N11   , As1 
	.byte	W12
	.byte		        Fs1 
	.byte	W07
	.byte	PEND
@ 064   ----------------------------------------
Voyage_of_380000_km_9_064:
	.byte	W05
	.byte		N23   , Bn0 , v080
	.byte		N11   , Dn1 
	.byte	W12
	.byte		N11   
	.byte		N11   , Fs1 
	.byte	W12
	.byte		N23   , Bn0 
	.byte		N11   , Dn1 
	.byte		N11   , As1 
	.byte	W12
	.byte		N05   , Dn1 
	.byte		N05   , Fs1 
	.byte	W06
	.byte		        Dn1 
	.byte		N05   , Fs1 
	.byte	W06
	.byte		N11   , Bn0 
	.byte		N05   , Fs1 
	.byte		N23   , Cs2 
	.byte	W06
	.byte		N05   , Fs1 
	.byte	W06
	.byte		N11   , Bn0 
	.byte		N05   , Fs1 
	.byte	W06
	.byte		N05   
	.byte	W06
	.byte		N23   , Dn1 
	.byte		N05   , Fs1 
	.byte	W06
	.byte		N05   
	.byte	W06
	.byte		        Bn0 
	.byte		N05   , Fs1 
	.byte	W06
	.byte		        Bn0 
	.byte		N05   , Fs1 
	.byte	W01
	.byte	PEND
@ 065   ----------------------------------------
Voyage_of_380000_km_9_065:
	.byte	W05
	.byte		N11   , Bn0 , v080
	.byte		N05   , Fs1 
	.byte	W06
	.byte		N05   
	.byte	W06
	.byte		N11   , Bn0 
	.byte		N05   , Fs1 
	.byte	W06
	.byte		N05   
	.byte	W06
	.byte		N23   , Dn1 
	.byte		N05   , Fs1 
	.byte	W06
	.byte		N05   
	.byte	W06
	.byte		N11   , Bn0 
	.byte		N05   , Fs1 
	.byte	W06
	.byte		N05   
	.byte	W06
	.byte		N11   , Bn0 
	.byte		N05   , Fs1 
	.byte	W06
	.byte		N05   
	.byte	W06
	.byte		N11   , Bn0 
	.byte		N05   , Fs1 
	.byte	W06
	.byte		N05   
	.byte	W06
	.byte		N23   , Dn1 
	.byte		N05   , Fs1 
	.byte	W06
	.byte		N05   
	.byte	W06
	.byte		        Bn0 
	.byte		N05   , Fs1 
	.byte	W06
	.byte		        Bn0 
	.byte		N05   , Fs1 
	.byte	W01
	.byte	PEND
@ 066   ----------------------------------------
	.byte	PATT
	 .word	Voyage_of_380000_km_9_065
@ 067   ----------------------------------------
	.byte	PATT
	 .word	Voyage_of_380000_km_9_065
@ 068   ----------------------------------------
Voyage_of_380000_km_9_068:
	.byte	W05
	.byte		N11   , Bn0 , v080
	.byte		N05   , Fs1 
	.byte	W06
	.byte		N05   
	.byte	W06
	.byte		N11   , Bn0 
	.byte		N11   , Dn1 
	.byte		N05   , Fs1 
	.byte	W06
	.byte		N05   
	.byte	W06
	.byte		N11   , Dn1 
	.byte		N05   , Fs1 
	.byte	W06
	.byte		N05   
	.byte	W06
	.byte		N11   , Bn0 
	.byte		N11   , Dn1 
	.byte		N05   , Fs1 
	.byte	W06
	.byte		N05   
	.byte	W06
	.byte		N11   , Bn0 
	.byte		N05   , Fs1 
	.byte	W06
	.byte		N05   
	.byte	W06
	.byte		N11   , Bn0 
	.byte		N05   , Fs1 
	.byte	W06
	.byte		N05   
	.byte	W06
	.byte		N23   , Dn1 
	.byte		N05   , Fs1 
	.byte	W06
	.byte		N05   
	.byte	W06
	.byte		        Bn0 
	.byte		N05   , Fs1 
	.byte	W06
	.byte		        Bn0 
	.byte		N05   , Fs1 
	.byte	W01
	.byte	PEND
@ 069   ----------------------------------------
	.byte	PATT
	 .word	Voyage_of_380000_km_9_065
@ 070   ----------------------------------------
	.byte	PATT
	 .word	Voyage_of_380000_km_9_065
@ 071   ----------------------------------------
	.byte	PATT
	 .word	Voyage_of_380000_km_9_065
@ 072   ----------------------------------------
Voyage_of_380000_km_9_072:
	.byte	W05
	.byte		N11   , Bn0 , v080
	.byte		N05   , Fs1 
	.byte	W06
	.byte		N05   
	.byte	W06
	.byte		N11   , Bn0 
	.byte		N11   , Dn1 
	.byte		N05   , Fs1 
	.byte	W06
	.byte		N05   
	.byte	W06
	.byte		N11   , Dn1 
	.byte		N05   , Fs1 
	.byte	W06
	.byte		N05   
	.byte	W06
	.byte		N11   , Bn0 
	.byte		N11   , Dn1 
	.byte		N05   , Fs1 
	.byte	W06
	.byte		N05   
	.byte	W06
	.byte		N11   , Bn0 
	.byte		N05   , Fs1 
	.byte		N23   , Cs2 
	.byte	W06
	.byte		N05   , Fs1 
	.byte	W06
	.byte		N11   , Bn0 
	.byte		N05   , Fs1 
	.byte	W06
	.byte		N05   
	.byte	W06
	.byte		N23   , Dn1 
	.byte		N05   , Fs1 
	.byte	W06
	.byte		N05   
	.byte	W06
	.byte		        Bn0 
	.byte		N05   , Fs1 
	.byte	W06
	.byte		        Bn0 
	.byte		N05   , Fs1 
	.byte	W01
	.byte	PEND
@ 073   ----------------------------------------
	.byte	PATT
	 .word	Voyage_of_380000_km_9_065
@ 074   ----------------------------------------
	.byte	PATT
	 .word	Voyage_of_380000_km_9_065
@ 075   ----------------------------------------
	.byte	PATT
	 .word	Voyage_of_380000_km_9_065
@ 076   ----------------------------------------
	.byte	PATT
	 .word	Voyage_of_380000_km_9_068
@ 077   ----------------------------------------
	.byte	PATT
	 .word	Voyage_of_380000_km_9_065
@ 078   ----------------------------------------
	.byte	PATT
	 .word	Voyage_of_380000_km_9_065
@ 079   ----------------------------------------
Voyage_of_380000_km_9_079:
	.byte	W05
	.byte		N11   , Bn0 , v080
	.byte		N05   , Fs1 
	.byte	W06
	.byte		N05   
	.byte	W06
	.byte		N11   , Bn0 
	.byte		N05   , Fs1 
	.byte	W06
	.byte		N05   
	.byte	W06
	.byte		N23   , Dn1 
	.byte		N05   , Fs1 
	.byte	W06
	.byte		N05   
	.byte	W06
	.byte		N11   , Bn0 
	.byte		N05   , Fs1 
	.byte	W06
	.byte		N05   
	.byte	W06
	.byte		N11   , Bn0 
	.byte		N23   , Dn1 
	.byte		N05   , Fs1 
	.byte	W06
	.byte		N05   
	.byte	W06
	.byte		N11   , Bn0 
	.byte		N05   , Fs1 
	.byte	W06
	.byte		N05   
	.byte	W06
	.byte		N23   , Dn1 
	.byte		N05   , Fs1 
	.byte	W06
	.byte		N05   
	.byte	W06
	.byte		        Bn0 
	.byte		N05   , Fs1 
	.byte	W06
	.byte		        Bn0 
	.byte		N05   , Fs1 
	.byte	W01
	.byte	PEND
@ 080   ----------------------------------------
Voyage_of_380000_km_9_080:
	.byte	W05
	.byte		N11   , Bn0 , v080
	.byte		N23   , Dn1 
	.byte		N05   , Fs1 
	.byte	W06
	.byte		N05   
	.byte	W06
	.byte		N11   , Bn0 
	.byte		N05   , Fs1 
	.byte	W06
	.byte		N05   
	.byte	W06
	.byte		        Dn1 
	.byte		N05   , Fs1 
	.byte	W06
	.byte		        Dn1 
	.byte		N05   , Fs1 
	.byte	W06
	.byte		N11   , Bn0 
	.byte		N05   , Dn1 
	.byte		N05   , Fs1 
	.byte	W06
	.byte		        Dn1 
	.byte		N05   , Fs1 
	.byte	W06
	.byte		N11   , Bn0 
	.byte		N05   , Fs1 
	.byte	W06
	.byte		N05   
	.byte	W06
	.byte		N11   , Bn0 
	.byte		N05   , Fs1 
	.byte	W12
	.byte		N23   , Dn1 
	.byte		N11   , Fs1 
	.byte	W12
	.byte		        As1 
	.byte	W07
	.byte	PEND
@ 081   ----------------------------------------
	.byte	PATT
	 .word	Voyage_of_380000_km_9_017
@ 082   ----------------------------------------
	.byte	PATT
	 .word	Voyage_of_380000_km_9_017
@ 083   ----------------------------------------
	.byte	PATT
	 .word	Voyage_of_380000_km_9_017
@ 084   ----------------------------------------
	.byte	PATT
	 .word	Voyage_of_380000_km_9_017
@ 085   ----------------------------------------
	.byte	PATT
	 .word	Voyage_of_380000_km_9_017
@ 086   ----------------------------------------
	.byte	PATT
	 .word	Voyage_of_380000_km_9_017
@ 087   ----------------------------------------
	.byte	PATT
	 .word	Voyage_of_380000_km_9_023
@ 088   ----------------------------------------
	.byte	PATT
	 .word	Voyage_of_380000_km_9_024
@ 089   ----------------------------------------
	.byte	PATT
	 .word	Voyage_of_380000_km_9_017
@ 090   ----------------------------------------
	.byte	PATT
	 .word	Voyage_of_380000_km_9_017
@ 091   ----------------------------------------
	.byte	PATT
	 .word	Voyage_of_380000_km_9_017
@ 092   ----------------------------------------
	.byte	PATT
	 .word	Voyage_of_380000_km_9_017
@ 093   ----------------------------------------
	.byte	PATT
	 .word	Voyage_of_380000_km_9_017
@ 094   ----------------------------------------
	.byte	PATT
	 .word	Voyage_of_380000_km_9_030
@ 095   ----------------------------------------
Voyage_of_380000_km_9_095:
	.byte	W05
	.byte		N11   , Bn0 , v080
	.byte		N11   , Dn1 
	.byte		N11   , Fs1 
	.byte	W12
	.byte		        Bn0 
	.byte		N11   , Dn1 
	.byte		N11   , As1 
	.byte	W12
	.byte		N05   , Dn1 
	.byte		N11   , Fs1 
	.byte	W06
	.byte		N05   , Dn1 
	.byte	W06
	.byte		N05   
	.byte		N05   , As1 
	.byte	W06
	.byte		        Dn1 
	.byte		N05   , Fs1 
	.byte	W06
	.byte		        Bn0 
	.byte		N05   , Dn1 
	.byte		N05   , Fs1 
	.byte	W06
	.byte		        Bn0 
	.byte		N05   , Dn1 
	.byte		N05   , Fs1 
	.byte	W06
	.byte		        Bn0 
	.byte		N05   , Dn1 
	.byte		N05   , Fs1 
	.byte	W06
	.byte		        Bn0 
	.byte	W06
	.byte		N05   
	.byte		N05   , Dn1 
	.byte		N11   , Fs1 
	.byte	W06
	.byte		N05   , Dn1 
	.byte	W06
	.byte		N05   
	.byte		N11   , As1 
	.byte	W06
	.byte		N05   , Dn1 
	.byte	W01
	.byte	PEND
@ 096   ----------------------------------------
Voyage_of_380000_km_9_096:
	.byte	W05
	.byte		N05   , Bn0 , v080
	.byte		N05   , Dn1 
	.byte		N11   , Fs1 
	.byte	W06
	.byte		N05   , Bn0 
	.byte		N05   , Dn1 
	.byte	W06
	.byte		        Bn0 
	.byte		N05   , Dn1 
	.byte		N11   , As1 
	.byte	W06
	.byte		N05   , Bn0 
	.byte		N05   , Dn1 
	.byte	W06
	.byte		        Bn0 
	.byte		N05   , Dn1 
	.byte		N11   , Fs1 
	.byte	W06
	.byte		N05   , Dn1 
	.byte	W06
	.byte		N05   
	.byte		N05   , As1 
	.byte	W06
	.byte		        Dn1 
	.byte		N05   , Fs1 
	.byte	W06
	.byte		N23   , Bn0 
	.byte		N23   , Cs2 
	.byte	W42
	.byte	W01
	.byte	PEND
@ 097   ----------------------------------------
	.byte	W96
@ 098   ----------------------------------------
Voyage_of_380000_km_9_098:
	.byte	W52
	.byte	W01
	.byte		N23   , Bn0 , v080
	.byte	W42
	.byte	W01
	.byte	PEND
@ 099   ----------------------------------------
	.byte	W96
@ 100   ----------------------------------------
	.byte	W96
@ 101   ----------------------------------------
	.byte	W96
@ 102   ----------------------------------------
	.byte	PATT
	 .word	Voyage_of_380000_km_9_098
@ 103   ----------------------------------------
	.byte	PATT
	 .word	Voyage_of_380000_km_9_098
@ 104   ----------------------------------------
Voyage_of_380000_km_9_104:
	.byte	W05
	.byte		N23   , Bn0 , v080
	.byte	W24
	.byte		N11   
	.byte	W12
	.byte		N05   
	.byte	W06
	.byte		N05   
	.byte	W06
	.byte		N23   
	.byte		N23   , Cs2 
	.byte	W36
	.byte		N11   , Bn0 
	.byte	W07
	.byte	PEND
@ 105   ----------------------------------------
Voyage_of_380000_km_9_105:
	.byte	W05
	.byte		N11   , Bn0 , v080
	.byte	W24
	.byte		N23   , Fs1 
	.byte	W24
	.byte		        Bn0 
	.byte	W36
	.byte		N11   
	.byte	W07
	.byte	PEND
@ 106   ----------------------------------------
Voyage_of_380000_km_9_106:
	.byte	W05
	.byte		N11   , Bn0 , v080
	.byte	W24
	.byte		N05   
	.byte		N23   , Fs1 
	.byte	W06
	.byte		N05   , Bn0 
	.byte	W06
	.byte		N05   
	.byte	W06
	.byte		N05   
	.byte	W06
	.byte		N23   
	.byte	W36
	.byte		N11   
	.byte	W07
	.byte	PEND
@ 107   ----------------------------------------
	.byte	PATT
	 .word	Voyage_of_380000_km_9_105
@ 108   ----------------------------------------
Voyage_of_380000_km_9_108:
	.byte	W05
	.byte		N11   , Bn0 , v080
	.byte	W24
	.byte		N23   , Fs1 
	.byte	W24
	.byte		        Bn0 
	.byte	W24
	.byte		N23   
	.byte		N23   , Fs1 
	.byte	W19
	.byte	PEND
@ 109   ----------------------------------------
Voyage_of_380000_km_9_109:
	.byte	W05
	.byte		N23   , Bn0 , v080
	.byte	W24
	.byte		N23   
	.byte		N23   , Fs1 
	.byte	W24
	.byte		        Bn0 
	.byte	W24
	.byte		N23   
	.byte		N23   , Fs1 
	.byte	W19
	.byte	PEND
@ 110   ----------------------------------------
Voyage_of_380000_km_9_110:
	.byte	W05
	.byte		N23   , Bn0 , v080
	.byte	W24
	.byte		N23   
	.byte		N23   , Fs1 
	.byte	W24
	.byte		        Bn0 
	.byte	W12
	.byte		N11   , Fs1 
	.byte	W12
	.byte		N23   , Bn0 
	.byte	W12
	.byte		N11   , Fs1 
	.byte	W07
	.byte	PEND
@ 111   ----------------------------------------
Voyage_of_380000_km_9_111:
	.byte	W05
	.byte		N23   , Bn0 , v080
	.byte	W12
	.byte		N11   , Fs1 
	.byte	W12
	.byte		N23   , Bn0 
	.byte	W12
	.byte		N11   , Fs1 
	.byte	W12
	.byte		N23   , Bn0 
	.byte		N05   , Fs1 
	.byte	W06
	.byte		N05   
	.byte	W06
	.byte		N05   
	.byte	W06
	.byte		N05   
	.byte	W06
	.byte		N23   , Bn0 
	.byte		N05   , Fs1 
	.byte	W06
	.byte		N05   
	.byte	W06
	.byte		N05   
	.byte	W06
	.byte		N05   
	.byte	W01
	.byte	PEND
@ 112   ----------------------------------------
Voyage_of_380000_km_9_112:
	.byte	W05
	.byte		N23   , Bn0 , v080
	.byte		N05   , Fs1 
	.byte	W06
	.byte		N05   
	.byte	W06
	.byte		N05   
	.byte	W06
	.byte		N05   
	.byte	W06
	.byte		N23   , Bn0 
	.byte		N05   , Fs1 
	.byte	W06
	.byte		N05   
	.byte	W06
	.byte		N05   
	.byte	W06
	.byte		N05   
	.byte	W06
	.byte		N11   , Bn0 
	.byte		N05   , Fs1 
	.byte	W06
	.byte		N05   
	.byte	W06
	.byte		N11   , Bn0 
	.byte		N05   , Fs1 
	.byte	W12
	.byte		N23   , Dn1 
	.byte		N11   , Fs1 
	.byte	W12
	.byte		        As1 
	.byte	W07
	.byte	PEND
@ 113   ----------------------------------------
	.byte	PATT
	 .word	Voyage_of_380000_km_9_017
@ 114   ----------------------------------------
	.byte	PATT
	 .word	Voyage_of_380000_km_9_017
@ 115   ----------------------------------------
	.byte	PATT
	 .word	Voyage_of_380000_km_9_017
@ 116   ----------------------------------------
	.byte	PATT
	 .word	Voyage_of_380000_km_9_017
@ 117   ----------------------------------------
	.byte	PATT
	 .word	Voyage_of_380000_km_9_017
@ 118   ----------------------------------------
	.byte	PATT
	 .word	Voyage_of_380000_km_9_017
@ 119   ----------------------------------------
	.byte	PATT
	 .word	Voyage_of_380000_km_9_017
@ 120   ----------------------------------------
	.byte	PATT
	 .word	Voyage_of_380000_km_9_017
@ 121   ----------------------------------------
	.byte	PATT
	 .word	Voyage_of_380000_km_9_017
@ 122   ----------------------------------------
	.byte	PATT
	 .word	Voyage_of_380000_km_9_017
@ 123   ----------------------------------------
	.byte	PATT
	 .word	Voyage_of_380000_km_9_017
@ 124   ----------------------------------------
	.byte	PATT
	 .word	Voyage_of_380000_km_9_017
@ 125   ----------------------------------------
	.byte	PATT
	 .word	Voyage_of_380000_km_9_017
@ 126   ----------------------------------------
	.byte	PATT
	 .word	Voyage_of_380000_km_9_030
@ 127   ----------------------------------------
	.byte	PATT
	 .word	Voyage_of_380000_km_9_095
@ 128   ----------------------------------------
Voyage_of_380000_km_9_128:
	.byte	W05
	.byte		N05   , Bn0 , v080
	.byte		N05   , Dn1 
	.byte		N11   , Fs1 
	.byte	W06
	.byte		N05   , Bn0 
	.byte		N05   , Dn1 
	.byte	W06
	.byte		        Bn0 
	.byte		N05   , Dn1 
	.byte		N11   , As1 
	.byte	W06
	.byte		N05   , Bn0 
	.byte		N05   , Dn1 
	.byte	W06
	.byte		        Bn0 
	.byte		N05   , Dn1 
	.byte		N11   , Fs1 
	.byte	W06
	.byte		N05   , Dn1 
	.byte	W06
	.byte		N05   
	.byte		N05   , As1 
	.byte	W06
	.byte		        Dn1 
	.byte		N05   , Fs1 
	.byte	W06
	.byte		N11   , Bn0 
	.byte		N05   , Fs1 
	.byte	W06
	.byte		N05   
	.byte	W06
	.byte		N11   , Bn0 
	.byte		N05   , Fs1 
	.byte	W12
	.byte		N23   , Dn1 
	.byte		N11   , Fs1 
	.byte	W12
	.byte		        As1 
	.byte	W07
	.byte	PEND
@ 129   ----------------------------------------
	.byte	PATT
	 .word	Voyage_of_380000_km_9_017
@ 130   ----------------------------------------
	.byte	PATT
	 .word	Voyage_of_380000_km_9_017
@ 131   ----------------------------------------
	.byte	PATT
	 .word	Voyage_of_380000_km_9_017
@ 132   ----------------------------------------
	.byte	PATT
	 .word	Voyage_of_380000_km_9_017
@ 133   ----------------------------------------
	.byte	PATT
	 .word	Voyage_of_380000_km_9_017
@ 134   ----------------------------------------
	.byte	PATT
	 .word	Voyage_of_380000_km_9_017
@ 135   ----------------------------------------
	.byte	PATT
	 .word	Voyage_of_380000_km_9_017
@ 136   ----------------------------------------
	.byte	PATT
	 .word	Voyage_of_380000_km_9_017
@ 137   ----------------------------------------
	.byte	PATT
	 .word	Voyage_of_380000_km_9_017
@ 138   ----------------------------------------
	.byte	PATT
	 .word	Voyage_of_380000_km_9_017
@ 139   ----------------------------------------
	.byte	PATT
	 .word	Voyage_of_380000_km_9_017
@ 140   ----------------------------------------
	.byte	PATT
	 .word	Voyage_of_380000_km_9_017
@ 141   ----------------------------------------
	.byte	PATT
	 .word	Voyage_of_380000_km_9_017
@ 142   ----------------------------------------
	.byte	PATT
	 .word	Voyage_of_380000_km_9_030
@ 143   ----------------------------------------
	.byte	PATT
	 .word	Voyage_of_380000_km_9_095
@ 144   ----------------------------------------
	.byte	W05
	.byte		N05   , Bn0 , v080
	.byte		N05   , Dn1 
	.byte		N11   , Fs1 
	.byte	W06
	.byte		N05   , Bn0 
	.byte		N05   , Dn1 
	.byte	W06
	.byte		        Bn0 
	.byte		N05   , Dn1 
	.byte		N11   , As1 
	.byte	W06
	.byte		N05   , Bn0 
	.byte		N05   , Dn1 
	.byte	W06
	.byte		        Bn0 
	.byte		N05   , Dn1 
	.byte		N11   , Fs1 
	.byte	W06
	.byte		N05   , Dn1 
	.byte	W06
	.byte		N05   
	.byte		N05   , As1 
	.byte	W06
	.byte		        Dn1 
	.byte		N05   , Fs1 
	.byte	W06
	.byte		N23   , Bn0 
	.byte	W42
	.byte	W01
@ 145   ----------------------------------------
	.byte	PATT
	 .word	Voyage_of_380000_km_9_001
@ 146   ----------------------------------------
	.byte	PATT
	 .word	Voyage_of_380000_km_9_002
@ 147   ----------------------------------------
	.byte	PATT
	 .word	Voyage_of_380000_km_9_001
@ 148   ----------------------------------------
	.byte	PATT
	 .word	Voyage_of_380000_km_9_002
@ 149   ----------------------------------------
	.byte	PATT
	 .word	Voyage_of_380000_km_9_001
@ 150   ----------------------------------------
	.byte	PATT
	 .word	Voyage_of_380000_km_9_002
@ 151   ----------------------------------------
	.byte	PATT
	 .word	Voyage_of_380000_km_9_007
@ 152   ----------------------------------------
	.byte	PATT
	 .word	Voyage_of_380000_km_9_008
@ 153   ----------------------------------------
	.byte	PATT
	 .word	Voyage_of_380000_km_9_009
@ 154   ----------------------------------------
	.byte	PATT
	 .word	Voyage_of_380000_km_9_010
@ 155   ----------------------------------------
	.byte	PATT
	 .word	Voyage_of_380000_km_9_009
@ 156   ----------------------------------------
	.byte	PATT
	 .word	Voyage_of_380000_km_9_010
@ 157   ----------------------------------------
	.byte	PATT
	 .word	Voyage_of_380000_km_9_009
@ 158   ----------------------------------------
	.byte	PATT
	 .word	Voyage_of_380000_km_9_010
@ 159   ----------------------------------------
	.byte	PATT
	 .word	Voyage_of_380000_km_9_015
@ 160   ----------------------------------------
	.byte	PATT
	 .word	Voyage_of_380000_km_9_016
@ 161   ----------------------------------------
	.byte	PATT
	 .word	Voyage_of_380000_km_9_017
@ 162   ----------------------------------------
	.byte	PATT
	 .word	Voyage_of_380000_km_9_017
@ 163   ----------------------------------------
	.byte	PATT
	 .word	Voyage_of_380000_km_9_017
@ 164   ----------------------------------------
	.byte	PATT
	 .word	Voyage_of_380000_km_9_017
@ 165   ----------------------------------------
	.byte	PATT
	 .word	Voyage_of_380000_km_9_017
@ 166   ----------------------------------------
	.byte	PATT
	 .word	Voyage_of_380000_km_9_017
@ 167   ----------------------------------------
	.byte	PATT
	 .word	Voyage_of_380000_km_9_023
@ 168   ----------------------------------------
	.byte	PATT
	 .word	Voyage_of_380000_km_9_024
@ 169   ----------------------------------------
	.byte	PATT
	 .word	Voyage_of_380000_km_9_017
@ 170   ----------------------------------------
	.byte	PATT
	 .word	Voyage_of_380000_km_9_017
@ 171   ----------------------------------------
	.byte	PATT
	 .word	Voyage_of_380000_km_9_017
@ 172   ----------------------------------------
	.byte	PATT
	 .word	Voyage_of_380000_km_9_017
@ 173   ----------------------------------------
	.byte	PATT
	 .word	Voyage_of_380000_km_9_017
@ 174   ----------------------------------------
	.byte	PATT
	 .word	Voyage_of_380000_km_9_030
@ 175   ----------------------------------------
	.byte	PATT
	 .word	Voyage_of_380000_km_9_031
@ 176   ----------------------------------------
	.byte	PATT
	 .word	Voyage_of_380000_km_9_032
@ 177   ----------------------------------------
	.byte	PATT
	 .word	Voyage_of_380000_km_9_017
@ 178   ----------------------------------------
	.byte	PATT
	 .word	Voyage_of_380000_km_9_017
@ 179   ----------------------------------------
	.byte	PATT
	 .word	Voyage_of_380000_km_9_017
@ 180   ----------------------------------------
	.byte	PATT
	 .word	Voyage_of_380000_km_9_017
@ 181   ----------------------------------------
	.byte	PATT
	 .word	Voyage_of_380000_km_9_017
@ 182   ----------------------------------------
	.byte	PATT
	 .word	Voyage_of_380000_km_9_017
@ 183   ----------------------------------------
	.byte	PATT
	 .word	Voyage_of_380000_km_9_017
@ 184   ----------------------------------------
	.byte	PATT
	 .word	Voyage_of_380000_km_9_017
@ 185   ----------------------------------------
	.byte	PATT
	 .word	Voyage_of_380000_km_9_017
@ 186   ----------------------------------------
	.byte	PATT
	 .word	Voyage_of_380000_km_9_017
@ 187   ----------------------------------------
	.byte	PATT
	 .word	Voyage_of_380000_km_9_017
@ 188   ----------------------------------------
	.byte	PATT
	 .word	Voyage_of_380000_km_9_017
@ 189   ----------------------------------------
	.byte	PATT
	 .word	Voyage_of_380000_km_9_023
@ 190   ----------------------------------------
	.byte	PATT
	 .word	Voyage_of_380000_km_9_046
@ 191   ----------------------------------------
	.byte	PATT
	 .word	Voyage_of_380000_km_9_047
@ 192   ----------------------------------------
	.byte	PATT
	 .word	Voyage_of_380000_km_9_048
@ 193   ----------------------------------------
	.byte	PATT
	 .word	Voyage_of_380000_km_9_009
@ 194   ----------------------------------------
	.byte	PATT
	 .word	Voyage_of_380000_km_9_010
@ 195   ----------------------------------------
	.byte	PATT
	 .word	Voyage_of_380000_km_9_009
@ 196   ----------------------------------------
	.byte	PATT
	 .word	Voyage_of_380000_km_9_010
@ 197   ----------------------------------------
	.byte	PATT
	 .word	Voyage_of_380000_km_9_009
@ 198   ----------------------------------------
	.byte	PATT
	 .word	Voyage_of_380000_km_9_010
@ 199   ----------------------------------------
	.byte	PATT
	 .word	Voyage_of_380000_km_9_015
@ 200   ----------------------------------------
	.byte	PATT
	 .word	Voyage_of_380000_km_9_056
@ 201   ----------------------------------------
	.byte	PATT
	 .word	Voyage_of_380000_km_9_009
@ 202   ----------------------------------------
	.byte	PATT
	 .word	Voyage_of_380000_km_9_010
@ 203   ----------------------------------------
	.byte	PATT
	 .word	Voyage_of_380000_km_9_009
@ 204   ----------------------------------------
	.byte	PATT
	 .word	Voyage_of_380000_km_9_010
@ 205   ----------------------------------------
	.byte	PATT
	 .word	Voyage_of_380000_km_9_009
@ 206   ----------------------------------------
	.byte	PATT
	 .word	Voyage_of_380000_km_9_062
@ 207   ----------------------------------------
	.byte	PATT
	 .word	Voyage_of_380000_km_9_063
@ 208   ----------------------------------------
	.byte	PATT
	 .word	Voyage_of_380000_km_9_064
@ 209   ----------------------------------------
	.byte	PATT
	 .word	Voyage_of_380000_km_9_065
@ 210   ----------------------------------------
	.byte	PATT
	 .word	Voyage_of_380000_km_9_065
@ 211   ----------------------------------------
	.byte	PATT
	 .word	Voyage_of_380000_km_9_065
@ 212   ----------------------------------------
	.byte	PATT
	 .word	Voyage_of_380000_km_9_068
@ 213   ----------------------------------------
	.byte	PATT
	 .word	Voyage_of_380000_km_9_065
@ 214   ----------------------------------------
	.byte	PATT
	 .word	Voyage_of_380000_km_9_065
@ 215   ----------------------------------------
	.byte	PATT
	 .word	Voyage_of_380000_km_9_065
@ 216   ----------------------------------------
	.byte	PATT
	 .word	Voyage_of_380000_km_9_072
@ 217   ----------------------------------------
	.byte	PATT
	 .word	Voyage_of_380000_km_9_065
@ 218   ----------------------------------------
	.byte	PATT
	 .word	Voyage_of_380000_km_9_065
@ 219   ----------------------------------------
	.byte	PATT
	 .word	Voyage_of_380000_km_9_065
@ 220   ----------------------------------------
	.byte	PATT
	 .word	Voyage_of_380000_km_9_068
@ 221   ----------------------------------------
	.byte	PATT
	 .word	Voyage_of_380000_km_9_065
@ 222   ----------------------------------------
	.byte	PATT
	 .word	Voyage_of_380000_km_9_065
@ 223   ----------------------------------------
	.byte	PATT
	 .word	Voyage_of_380000_km_9_079
@ 224   ----------------------------------------
	.byte	PATT
	 .word	Voyage_of_380000_km_9_080
@ 225   ----------------------------------------
	.byte	PATT
	 .word	Voyage_of_380000_km_9_017
@ 226   ----------------------------------------
	.byte	PATT
	 .word	Voyage_of_380000_km_9_017
@ 227   ----------------------------------------
	.byte	PATT
	 .word	Voyage_of_380000_km_9_017
@ 228   ----------------------------------------
	.byte	PATT
	 .word	Voyage_of_380000_km_9_017
@ 229   ----------------------------------------
	.byte	PATT
	 .word	Voyage_of_380000_km_9_017
@ 230   ----------------------------------------
	.byte	PATT
	 .word	Voyage_of_380000_km_9_017
@ 231   ----------------------------------------
	.byte	PATT
	 .word	Voyage_of_380000_km_9_023
@ 232   ----------------------------------------
	.byte	PATT
	 .word	Voyage_of_380000_km_9_024
@ 233   ----------------------------------------
	.byte	PATT
	 .word	Voyage_of_380000_km_9_017
@ 234   ----------------------------------------
	.byte	PATT
	 .word	Voyage_of_380000_km_9_017
@ 235   ----------------------------------------
	.byte	PATT
	 .word	Voyage_of_380000_km_9_017
@ 236   ----------------------------------------
	.byte	PATT
	 .word	Voyage_of_380000_km_9_017
@ 237   ----------------------------------------
	.byte	PATT
	 .word	Voyage_of_380000_km_9_017
@ 238   ----------------------------------------
	.byte	PATT
	 .word	Voyage_of_380000_km_9_030
@ 239   ----------------------------------------
	.byte	PATT
	 .word	Voyage_of_380000_km_9_095
@ 240   ----------------------------------------
	.byte	PATT
	 .word	Voyage_of_380000_km_9_096
@ 241   ----------------------------------------
	.byte	W96
@ 242   ----------------------------------------
	.byte	PATT
	 .word	Voyage_of_380000_km_9_098
@ 243   ----------------------------------------
	.byte	W96
@ 244   ----------------------------------------
	.byte	W96
@ 245   ----------------------------------------
	.byte	W96
@ 246   ----------------------------------------
	.byte	PATT
	 .word	Voyage_of_380000_km_9_098
@ 247   ----------------------------------------
	.byte	PATT
	 .word	Voyage_of_380000_km_9_098
@ 248   ----------------------------------------
	.byte	PATT
	 .word	Voyage_of_380000_km_9_104
@ 249   ----------------------------------------
	.byte	PATT
	 .word	Voyage_of_380000_km_9_105
@ 250   ----------------------------------------
	.byte	PATT
	 .word	Voyage_of_380000_km_9_106
@ 251   ----------------------------------------
	.byte	PATT
	 .word	Voyage_of_380000_km_9_105
@ 252   ----------------------------------------
	.byte	PATT
	 .word	Voyage_of_380000_km_9_108
@ 253   ----------------------------------------
	.byte	PATT
	 .word	Voyage_of_380000_km_9_109
@ 254   ----------------------------------------
	.byte	PATT
	 .word	Voyage_of_380000_km_9_110
@ 255   ----------------------------------------
	.byte	PATT
	 .word	Voyage_of_380000_km_9_111
@ 256   ----------------------------------------
	.byte	PATT
	 .word	Voyage_of_380000_km_9_112
@ 257   ----------------------------------------
	.byte	PATT
	 .word	Voyage_of_380000_km_9_017
@ 258   ----------------------------------------
	.byte	PATT
	 .word	Voyage_of_380000_km_9_017
@ 259   ----------------------------------------
	.byte	PATT
	 .word	Voyage_of_380000_km_9_017
@ 260   ----------------------------------------
	.byte	PATT
	 .word	Voyage_of_380000_km_9_017
@ 261   ----------------------------------------
	.byte	PATT
	 .word	Voyage_of_380000_km_9_017
@ 262   ----------------------------------------
	.byte	PATT
	 .word	Voyage_of_380000_km_9_017
@ 263   ----------------------------------------
	.byte	PATT
	 .word	Voyage_of_380000_km_9_017
@ 264   ----------------------------------------
	.byte	PATT
	 .word	Voyage_of_380000_km_9_017
@ 265   ----------------------------------------
	.byte	PATT
	 .word	Voyage_of_380000_km_9_017
@ 266   ----------------------------------------
	.byte	PATT
	 .word	Voyage_of_380000_km_9_017
@ 267   ----------------------------------------
	.byte	PATT
	 .word	Voyage_of_380000_km_9_017
@ 268   ----------------------------------------
	.byte	PATT
	 .word	Voyage_of_380000_km_9_017
@ 269   ----------------------------------------
	.byte	PATT
	 .word	Voyage_of_380000_km_9_017
@ 270   ----------------------------------------
	.byte	PATT
	 .word	Voyage_of_380000_km_9_030
@ 271   ----------------------------------------
	.byte	PATT
	 .word	Voyage_of_380000_km_9_095
@ 272   ----------------------------------------
	.byte	PATT
	 .word	Voyage_of_380000_km_9_128
@ 273   ----------------------------------------
	.byte	PATT
	 .word	Voyage_of_380000_km_9_017
@ 274   ----------------------------------------
	.byte	PATT
	 .word	Voyage_of_380000_km_9_017
@ 275   ----------------------------------------
	.byte	PATT
	 .word	Voyage_of_380000_km_9_017
@ 276   ----------------------------------------
	.byte	PATT
	 .word	Voyage_of_380000_km_9_017
@ 277   ----------------------------------------
	.byte	PATT
	 .word	Voyage_of_380000_km_9_017
@ 278   ----------------------------------------
	.byte	PATT
	 .word	Voyage_of_380000_km_9_017
@ 279   ----------------------------------------
	.byte	PATT
	 .word	Voyage_of_380000_km_9_017
@ 280   ----------------------------------------
	.byte	PATT
	 .word	Voyage_of_380000_km_9_017
@ 281   ----------------------------------------
	.byte	PATT
	 .word	Voyage_of_380000_km_9_017
@ 282   ----------------------------------------
	.byte	PATT
	 .word	Voyage_of_380000_km_9_017
@ 283   ----------------------------------------
	.byte	PATT
	 .word	Voyage_of_380000_km_9_017
@ 284   ----------------------------------------
	.byte	PATT
	 .word	Voyage_of_380000_km_9_017
@ 285   ----------------------------------------
	.byte	PATT
	 .word	Voyage_of_380000_km_9_017
@ 286   ----------------------------------------
	.byte	PATT
	 .word	Voyage_of_380000_km_9_030
@ 287   ----------------------------------------
	.byte	PATT
	 .word	Voyage_of_380000_km_9_095
@ 288   ----------------------------------------
	.byte	W05
	.byte		N05   , Bn0 , v080
	.byte		N05   , Dn1 
	.byte		N11   , Fs1 
	.byte	W06
	.byte		N05   , Bn0 
	.byte		N05   , Dn1 
	.byte	W06
	.byte		        Bn0 
	.byte		N05   , Dn1 
	.byte		N11   , As1 
	.byte	W06
	.byte		N05   , Bn0 
	.byte		N05   , Dn1 
	.byte	W06
	.byte		        Bn0 
	.byte		N05   , Dn1 
	.byte		N11   , Fs1 
	.byte	W06
	.byte		N05   , Dn1 
	.byte	W06
	.byte		N05   
	.byte		N05   , As1 
	.byte	W06
	.byte		        Dn1 
	.byte		N05   , Fs1 
	.byte	W30
	.byte	GOTO
	 .word	Voyage_of_380000_km_9_B1
Voyage_of_380000_km_9_B2:
	.byte	FINE

@******************************************************@
	.align	2

Voyage_of_380000_km:
	.byte	9	@ NumTrks
	.byte	0	@ NumBlks
	.byte	Voyage_of_380000_km_pri	@ Priority
	.byte	Voyage_of_380000_km_rev	@ Reverb.

	.word	Voyage_of_380000_km_grp

	.word	Voyage_of_380000_km_1
	.word	Voyage_of_380000_km_2
	.word	Voyage_of_380000_km_3
	.word	Voyage_of_380000_km_4
	.word	Voyage_of_380000_km_5
	.word	Voyage_of_380000_km_6
	.word	Voyage_of_380000_km_7
	.word	Voyage_of_380000_km_8
	.word	Voyage_of_380000_km_9

	.end
