	.include "MPlayDef.s"

	.equ	From_Shadows_grp, voicegroup000
	.equ	From_Shadows_pri, 0
	.equ	From_Shadows_rev, 0
	.equ	From_Shadows_mvl, 50
	.equ	From_Shadows_key, 0
	.equ	From_Shadows_tbs, 1
	.equ	From_Shadows_exg, 0
	.equ	From_Shadows_cmp, 1

	.section .rodata
	.global	From_Shadows
	.align	2

@**************** Track 1 (Midi-Chn.1) ****************@

From_Shadows_1:
	.byte	KEYSH , From_Shadows_key+0
From_Shadows_1_B1:
@ 000   ----------------------------------------
	.byte	TEMPO , 150*From_Shadows_tbs/2
	.byte		VOICE , 73
	.byte		VOL   , 100*From_Shadows_mvl/mxv
	.byte		PAN   , c_v+0
	.byte	W96
@ 001   ----------------------------------------
	.byte	W96
@ 002   ----------------------------------------
	.byte	W96
@ 003   ----------------------------------------
	.byte	W96
@ 004   ----------------------------------------
	.byte	W96
@ 005   ----------------------------------------
	.byte	W96
@ 006   ----------------------------------------
	.byte	W96
@ 007   ----------------------------------------
	.byte	W96
@ 008   ----------------------------------------
	.byte		N92   , Cn5 , v096
	.byte	W96
@ 009   ----------------------------------------
	.byte		        An4 
	.byte	W96
@ 010   ----------------------------------------
	.byte		        Cn5 
	.byte	W96
@ 011   ----------------------------------------
	.byte		        Dn5 
	.byte	W96
@ 012   ----------------------------------------
	.byte		N44   , Ds5 
	.byte	W48
	.byte		        Dn5 
	.byte	W48
@ 013   ----------------------------------------
	.byte		N92   , As4 
	.byte	W96
@ 014   ----------------------------------------
	.byte		N44   , Cn5 
	.byte	W48
	.byte		        As4 
	.byte	W48
@ 015   ----------------------------------------
	.byte		N32   , Gn4 
	.byte	W36
	.byte		N23   , Ds4 
	.byte	W24
	.byte		        Fn4 
	.byte	W24
	.byte		TIE   , Gn4 
	.byte	W12
@ 016   ----------------------------------------
	.byte	W92
	.byte	W03
	.byte		EOT   
	.byte	W01
@ 017   ----------------------------------------
	.byte	TEMPO , 190*From_Shadows_tbs/2
	.byte	W96
@ 018   ----------------------------------------
	.byte	W96
@ 019   ----------------------------------------
	.byte	W96
@ 020   ----------------------------------------
	.byte	W96
@ 021   ----------------------------------------
	.byte	W96
@ 022   ----------------------------------------
	.byte	W96
@ 023   ----------------------------------------
	.byte	W96
@ 024   ----------------------------------------
	.byte	W96
@ 025   ----------------------------------------
	.byte	W96
@ 026   ----------------------------------------
	.byte	W96
@ 027   ----------------------------------------
	.byte	W96
@ 028   ----------------------------------------
	.byte	W96
@ 029   ----------------------------------------
	.byte	W96
@ 030   ----------------------------------------
	.byte	W96
@ 031   ----------------------------------------
	.byte	W96
@ 032   ----------------------------------------
	.byte	W96
@ 033   ----------------------------------------
	.byte	W96
@ 034   ----------------------------------------
	.byte	W96
@ 035   ----------------------------------------
	.byte	W96
@ 036   ----------------------------------------
	.byte	W96
@ 037   ----------------------------------------
	.byte	W72
@ 038   ----------------------------------------
	.byte	W96
@ 039   ----------------------------------------
	.byte	W96
@ 040   ----------------------------------------
	.byte	W96
@ 041   ----------------------------------------
	.byte	W96
@ 042   ----------------------------------------
	.byte	W96
@ 043   ----------------------------------------
	.byte	W96
@ 044   ----------------------------------------
	.byte	W96
@ 045   ----------------------------------------
	.byte	W96
@ 046   ----------------------------------------
	.byte	W96
@ 047   ----------------------------------------
	.byte	W96
@ 048   ----------------------------------------
	.byte	W96
@ 049   ----------------------------------------
	.byte	W96
@ 050   ----------------------------------------
	.byte	W96
@ 051   ----------------------------------------
	.byte	W96
@ 052   ----------------------------------------
	.byte	W96
@ 053   ----------------------------------------
	.byte	W96
@ 054   ----------------------------------------
	.byte	W96
@ 055   ----------------------------------------
	.byte	W96
@ 056   ----------------------------------------
	.byte	W96
@ 057   ----------------------------------------
	.byte	W96
@ 058   ----------------------------------------
	.byte	W96
@ 059   ----------------------------------------
	.byte	W96
@ 060   ----------------------------------------
	.byte	W96
@ 061   ----------------------------------------
	.byte	W96
@ 062   ----------------------------------------
	.byte	W96
@ 063   ----------------------------------------
	.byte	W96
@ 064   ----------------------------------------
	.byte	W96
@ 065   ----------------------------------------
	.byte	W96
@ 066   ----------------------------------------
	.byte	W48
	.byte		N32   , Fn4 
	.byte	W36
	.byte		N92   , Cn5 
	.byte	W12
@ 067   ----------------------------------------
	.byte	W84
	.byte		        An4 
	.byte	W12
@ 068   ----------------------------------------
	.byte	W84
	.byte		        Cn5 
	.byte	W12
@ 069   ----------------------------------------
	.byte	W84
	.byte		        Dn5 
	.byte	W12
@ 070   ----------------------------------------
	.byte	W84
	.byte		N23   , Ds5 
	.byte	W12
@ 071   ----------------------------------------
From_Shadows_1_071:
	.byte	W12
	.byte		N23   , Dn5 , v096
	.byte	W24
	.byte		N23   
	.byte	W24
	.byte		        As4 
	.byte	W24
	.byte		N92   
	.byte	W12
	.byte	PEND
@ 072   ----------------------------------------
	.byte	W84
	.byte		N23   , Cn5 
	.byte	W12
@ 073   ----------------------------------------
From_Shadows_1_073:
	.byte	W12
	.byte		N23   , As4 , v096
	.byte	W24
	.byte		N23   
	.byte	W24
	.byte		        Cn5 
	.byte	W24
	.byte		        Gn4 
	.byte	W12
	.byte	PEND
@ 074   ----------------------------------------
	.byte	W12
	.byte		        Fn4 
	.byte	W36
	.byte		N32   
	.byte	W36
	.byte		N92   , Cn5 
	.byte	W12
@ 075   ----------------------------------------
	.byte	W84
	.byte		        An4 
	.byte	W12
@ 076   ----------------------------------------
	.byte	W84
	.byte		        Cn5 
	.byte	W12
@ 077   ----------------------------------------
	.byte	W84
	.byte		        Dn5 
	.byte	W12
@ 078   ----------------------------------------
	.byte	W84
	.byte		N23   , Ds5 
	.byte	W12
@ 079   ----------------------------------------
	.byte	PATT
	 .word	From_Shadows_1_071
@ 080   ----------------------------------------
	.byte	W84
	.byte		N23   , Cn5 , v096
	.byte	W12
@ 081   ----------------------------------------
	.byte	PATT
	 .word	From_Shadows_1_073
@ 082   ----------------------------------------
	.byte	W12
	.byte		N23   , Fn4 , v096
	.byte	W24
	.byte		        Gn4 
	.byte	W24
	.byte		        Gs4 
	.byte	W24
	.byte		TIE   , As4 
	.byte	W12
@ 083   ----------------------------------------
	.byte	W96
@ 084   ----------------------------------------
	.byte	W96
@ 085   ----------------------------------------
	.byte	W96
@ 086   ----------------------------------------
	.byte	W32
	.byte	W03
	.byte		EOT   
	.byte	W01
	.byte		N23   , Dn5 
	.byte	W24
	.byte		        As4 
	.byte	W24
	.byte		TIE   
	.byte	W12
@ 087   ----------------------------------------
	.byte	W96
@ 088   ----------------------------------------
	.byte	W96
@ 089   ----------------------------------------
	.byte	W96
@ 090   ----------------------------------------
	.byte	W92
	.byte	W03
	.byte		EOT   
	.byte	W01
@ 091   ----------------------------------------
	.byte	W36
	.byte		N11   , Dn4 
	.byte	W12
	.byte		N23   , Cn5 
	.byte	W24
	.byte		N11   
	.byte	W12
	.byte		N23   
	.byte	W12
@ 092   ----------------------------------------
	.byte	W12
	.byte		N23   
	.byte	W24
	.byte		N23   
	.byte	W24
	.byte		        Dn5 
	.byte	W24
	.byte		N32   , Bn4 
	.byte	W12
@ 093   ----------------------------------------
From_Shadows_1_093:
	.byte	W36
	.byte		N11   , Dn4 , v096
	.byte	W12
	.byte		N23   , Bn4 
	.byte	W24
	.byte		N11   
	.byte	W12
	.byte		N23   
	.byte	W12
	.byte	PEND
@ 094   ----------------------------------------
	.byte	W12
	.byte		N23   
	.byte	W24
	.byte		N23   
	.byte	W24
	.byte		        Cn5 
	.byte	W24
	.byte		N32   , An4 
	.byte	W12
@ 095   ----------------------------------------
	.byte	W36
	.byte		N11   , Dn4 
	.byte	W12
	.byte		N23   , Cn5 
	.byte	W24
	.byte		N23   
	.byte	W24
@ 096   ----------------------------------------
	.byte		N11   
	.byte	W12
	.byte		N23   
	.byte	W24
	.byte		N23   
	.byte	W24
	.byte		        Bn4 
	.byte	W24
	.byte		N23   
	.byte	W12
@ 097   ----------------------------------------
	.byte	PATT
	 .word	From_Shadows_1_093
@ 098   ----------------------------------------
	.byte	W12
	.byte		N23   , Bn4 , v096
	.byte	W24
	.byte		N23   
	.byte	W24
	.byte		N23   
	.byte	W24
	.byte		N32   , Cn5 
	.byte	W12
@ 099   ----------------------------------------
	.byte	W96
@ 100   ----------------------------------------
	.byte	W96
@ 101   ----------------------------------------
	.byte	W96
@ 102   ----------------------------------------
	.byte	W96
@ 103   ----------------------------------------
	.byte	W96
@ 104   ----------------------------------------
	.byte	W96
@ 105   ----------------------------------------
	.byte	W96
@ 106   ----------------------------------------
	.byte	W96
@ 107   ----------------------------------------
	.byte	W96
@ 108   ----------------------------------------
	.byte	W96
@ 109   ----------------------------------------
	.byte	W96
@ 110   ----------------------------------------
	.byte	W96
@ 111   ----------------------------------------
	.byte	W96
@ 112   ----------------------------------------
	.byte	W96
@ 113   ----------------------------------------
	.byte	W96
@ 114   ----------------------------------------
	.byte	W96
@ 115   ----------------------------------------
	.byte	W96
@ 116   ----------------------------------------
From_Shadows_1_116:
	.byte	W36
	.byte		N23   , Fs4 , v096
	.byte	W24
	.byte		        En4 
	.byte	W36
	.byte	PEND
@ 117   ----------------------------------------
	.byte	PATT
	 .word	From_Shadows_1_116
@ 118   ----------------------------------------
	.byte	W36
	.byte		N23   , Fs4 , v096
	.byte	W24
	.byte		        En4 
	.byte	W24
	.byte		        Fs4 
	.byte	W12
@ 119   ----------------------------------------
	.byte	W12
	.byte		        Gn4 
	.byte	W24
	.byte		        An4 
	.byte	W24
	.byte		        En4 
	.byte	W36
@ 120   ----------------------------------------
	.byte	PATT
	 .word	From_Shadows_1_116
@ 121   ----------------------------------------
	.byte	PATT
	 .word	From_Shadows_1_116
@ 122   ----------------------------------------
	.byte	W36
	.byte		N23   , Dn5 , v096
	.byte	W24
	.byte		        Bn4 
	.byte	W24
	.byte		        An4 
	.byte	W12
@ 123   ----------------------------------------
	.byte	W12
	.byte		        Gn4 
	.byte	W24
	.byte		N44   , Bn4 
	.byte	W60
@ 124   ----------------------------------------
	.byte	PATT
	 .word	From_Shadows_1_116
@ 125   ----------------------------------------
	.byte	PATT
	 .word	From_Shadows_1_116
@ 126   ----------------------------------------
	.byte	W36
	.byte		N23   , Fs4 , v096
	.byte	W24
	.byte		        En4 
	.byte	W24
	.byte		        An4 
	.byte	W12
@ 127   ----------------------------------------
	.byte	W12
	.byte		        Gn4 
	.byte	W24
	.byte		        Fs4 
	.byte	W24
	.byte		        Gn4 
	.byte	W36
@ 128   ----------------------------------------
	.byte	PATT
	 .word	From_Shadows_1_116
@ 129   ----------------------------------------
	.byte	W36
	.byte		N23   , Dn5 , v096
	.byte	W24
	.byte		        Bn4 
	.byte	W36
@ 130   ----------------------------------------
	.byte	W36
	.byte		        An4 
	.byte	W24
	.byte		N23   
	.byte	W24
	.byte		N23   
	.byte	W12
@ 131   ----------------------------------------
	.byte	W12
	.byte		N23   
	.byte	W24
	.byte		N44   , Bn4 
	.byte	W60
@ 132   ----------------------------------------
	.byte	W48
	.byte		N11   
	.byte	W12
	.byte		N23   , Dn5 
	.byte	W24
	.byte		N23   
	.byte	W12
@ 133   ----------------------------------------
	.byte	W12
	.byte		        Bn4 
	.byte	W84
@ 134   ----------------------------------------
From_Shadows_1_134:
	.byte	W24
	.byte		N11   , Dn5 , v096
	.byte	W12
	.byte		N11   
	.byte	W12
	.byte		N11   
	.byte	W12
	.byte		N11   
	.byte	W12
	.byte		N11   
	.byte	W12
	.byte		N11   
	.byte	W12
	.byte	PEND
@ 135   ----------------------------------------
	.byte		N23   
	.byte	W24
	.byte		N11   , Bn4 
	.byte	W12
	.byte		N23   , An4 
	.byte	W24
	.byte		        Bn4 
	.byte	W24
	.byte		N32   , An4 
	.byte	W12
@ 136   ----------------------------------------
	.byte	W48
	.byte		N11   , Dn5 
	.byte	W12
	.byte		N23   
	.byte	W24
	.byte		N23   
	.byte	W12
@ 137   ----------------------------------------
	.byte	W12
	.byte		N32   , Bn4 
	.byte	W84
@ 138   ----------------------------------------
	.byte	PATT
	 .word	From_Shadows_1_134
@ 139   ----------------------------------------
	.byte		N23   , Dn5 , v096
	.byte	W24
	.byte		N11   , Bn4 
	.byte	W12
	.byte		N23   , An4 
	.byte	W24
	.byte		        Gn4 
	.byte	W24
	.byte		N32   , An4 
	.byte	W12
@ 140   ----------------------------------------
	.byte	W96
@ 141   ----------------------------------------
	.byte	W96
@ 142   ----------------------------------------
From_Shadows_1_142:
	.byte	W48
	.byte		N32   , Gn4 , v096
	.byte	W36
	.byte		TIE   , An4 
	.byte	W12
	.byte	PEND
@ 143   ----------------------------------------
	.byte	W92
	.byte	W03
	.byte		EOT   
	.byte	W01
@ 144   ----------------------------------------
	.byte	PATT
	 .word	From_Shadows_1_142
@ 145   ----------------------------------------
	.byte	W92
	.byte	W03
	.byte		EOT   , An4 
	.byte	W01
@ 146   ----------------------------------------
	.byte	W96
@ 147   ----------------------------------------
	.byte	W96
@ 148   ----------------------------------------
	.byte	W96
@ 149   ----------------------------------------
	.byte	W96
@ 150   ----------------------------------------
	.byte	W96
@ 151   ----------------------------------------
	.byte	W96
@ 152   ----------------------------------------
	.byte	W96
@ 153   ----------------------------------------
	.byte	W96
@ 154   ----------------------------------------
	.byte	W96
@ 155   ----------------------------------------
	.byte	W96
@ 156   ----------------------------------------
	.byte	W96
@ 157   ----------------------------------------
	.byte	W96
@ 158   ----------------------------------------
	.byte	W96
@ 159   ----------------------------------------
	.byte	W96
@ 160   ----------------------------------------
	.byte	W96
@ 161   ----------------------------------------
	.byte	W96
@ 162   ----------------------------------------
	.byte	W96
@ 163   ----------------------------------------
	.byte	W96
@ 164   ----------------------------------------
	.byte	W96
@ 165   ----------------------------------------
	.byte	W96
@ 166   ----------------------------------------
	.byte	W96
@ 167   ----------------------------------------
	.byte	W96
@ 168   ----------------------------------------
	.byte	W96
@ 169   ----------------------------------------
	.byte	W96
@ 170   ----------------------------------------
	.byte	W96
@ 171   ----------------------------------------
	.byte	W96
@ 172   ----------------------------------------
	.byte	W96
@ 173   ----------------------------------------
	.byte	W72
@ 174   ----------------------------------------
	.byte	W72
@ 175   ----------------------------------------
	.byte	W72
@ 176   ----------------------------------------
	.byte	W72
@ 177   ----------------------------------------
	.byte	W72
@ 178   ----------------------------------------
	.byte	W72
@ 179   ----------------------------------------
	.byte	W72
@ 180   ----------------------------------------
	.byte	W72
@ 181   ----------------------------------------
	.byte	W72
@ 182   ----------------------------------------
	.byte	W72
@ 183   ----------------------------------------
	.byte	W72
@ 184   ----------------------------------------
	.byte	W72
@ 185   ----------------------------------------
	.byte	W72
@ 186   ----------------------------------------
	.byte	W72
@ 187   ----------------------------------------
	.byte	W72
@ 188   ----------------------------------------
	.byte	W72
@ 189   ----------------------------------------
	.byte	W72
@ 190   ----------------------------------------
	.byte	W72
@ 191   ----------------------------------------
	.byte	W72
@ 192   ----------------------------------------
	.byte	W72
@ 193   ----------------------------------------
	.byte	W72
@ 194   ----------------------------------------
	.byte	W72
@ 195   ----------------------------------------
	.byte	W72
@ 196   ----------------------------------------
	.byte	W72
@ 197   ----------------------------------------
	.byte	W72
@ 198   ----------------------------------------
	.byte	W72
@ 199   ----------------------------------------
	.byte	W72
@ 200   ----------------------------------------
	.byte	W72
@ 201   ----------------------------------------
	.byte	W72
@ 202   ----------------------------------------
	.byte	W72
@ 203   ----------------------------------------
	.byte	W72
@ 204   ----------------------------------------
	.byte	W72
@ 205   ----------------------------------------
	.byte	W72
@ 206   ----------------------------------------
	.byte	W72
@ 207   ----------------------------------------
	.byte	W72
@ 208   ----------------------------------------
	.byte	W72
@ 209   ----------------------------------------
	.byte	W72
@ 210   ----------------------------------------
	.byte	W72
@ 211   ----------------------------------------
	.byte	W72
@ 212   ----------------------------------------
	.byte	W72
@ 213   ----------------------------------------
	.byte	W72
@ 214   ----------------------------------------
	.byte	W23
	.byte	GOTO
	 .word	From_Shadows_1_B1
From_Shadows_1_B2:
	.byte	FINE

@**************** Track 2 (Midi-Chn.2) ****************@

From_Shadows_2:
	.byte	KEYSH , From_Shadows_key+0
From_Shadows_2_B1:
@ 000   ----------------------------------------
	.byte		VOICE , 68
	.byte		VOL   , 100*From_Shadows_mvl/mxv
	.byte		PAN   , c_v+0
	.byte	W96
@ 001   ----------------------------------------
	.byte	W96
@ 002   ----------------------------------------
	.byte	W96
@ 003   ----------------------------------------
	.byte	W96
@ 004   ----------------------------------------
	.byte	W96
@ 005   ----------------------------------------
	.byte	W96
@ 006   ----------------------------------------
	.byte	W96
@ 007   ----------------------------------------
	.byte	W96
@ 008   ----------------------------------------
	.byte	W96
@ 009   ----------------------------------------
	.byte	W96
@ 010   ----------------------------------------
	.byte	W96
@ 011   ----------------------------------------
	.byte	W96
@ 012   ----------------------------------------
	.byte	W96
@ 013   ----------------------------------------
	.byte	W96
@ 014   ----------------------------------------
	.byte	W96
@ 015   ----------------------------------------
	.byte	W96
@ 016   ----------------------------------------
	.byte	W96
@ 017   ----------------------------------------
	.byte	W96
@ 018   ----------------------------------------
	.byte	W96
@ 019   ----------------------------------------
	.byte	W96
@ 020   ----------------------------------------
	.byte	W96
@ 021   ----------------------------------------
	.byte	W96
@ 022   ----------------------------------------
	.byte	W96
@ 023   ----------------------------------------
	.byte	W96
@ 024   ----------------------------------------
	.byte	W96
@ 025   ----------------------------------------
	.byte	W96
@ 026   ----------------------------------------
	.byte	W96
@ 027   ----------------------------------------
	.byte	W96
@ 028   ----------------------------------------
	.byte	W96
@ 029   ----------------------------------------
	.byte	W96
@ 030   ----------------------------------------
	.byte	W96
@ 031   ----------------------------------------
	.byte	W96
@ 032   ----------------------------------------
	.byte	W96
@ 033   ----------------------------------------
	.byte	W96
@ 034   ----------------------------------------
	.byte	W96
@ 035   ----------------------------------------
	.byte	W96
@ 036   ----------------------------------------
	.byte	W96
@ 037   ----------------------------------------
	.byte	W72
@ 038   ----------------------------------------
	.byte	W96
@ 039   ----------------------------------------
	.byte	W96
@ 040   ----------------------------------------
	.byte	W96
@ 041   ----------------------------------------
	.byte	W96
@ 042   ----------------------------------------
	.byte	W96
@ 043   ----------------------------------------
	.byte	W96
@ 044   ----------------------------------------
	.byte	W96
@ 045   ----------------------------------------
	.byte	W96
@ 046   ----------------------------------------
	.byte	W96
@ 047   ----------------------------------------
	.byte	W96
@ 048   ----------------------------------------
	.byte	W96
@ 049   ----------------------------------------
	.byte	W96
@ 050   ----------------------------------------
	.byte	W96
@ 051   ----------------------------------------
	.byte	W96
@ 052   ----------------------------------------
	.byte	W96
@ 053   ----------------------------------------
	.byte	W96
@ 054   ----------------------------------------
	.byte	W96
@ 055   ----------------------------------------
	.byte	W96
@ 056   ----------------------------------------
	.byte	W96
@ 057   ----------------------------------------
	.byte	W96
@ 058   ----------------------------------------
	.byte	W96
@ 059   ----------------------------------------
	.byte	W96
@ 060   ----------------------------------------
	.byte	W96
@ 061   ----------------------------------------
	.byte	W96
@ 062   ----------------------------------------
	.byte	W96
@ 063   ----------------------------------------
	.byte	W96
@ 064   ----------------------------------------
	.byte	W96
@ 065   ----------------------------------------
	.byte	W96
@ 066   ----------------------------------------
	.byte	W84
	.byte		N92   , An4 , v080
	.byte	W12
@ 067   ----------------------------------------
	.byte	W84
	.byte		        Fn4 
	.byte	W12
@ 068   ----------------------------------------
	.byte	W84
	.byte		        Gs4 
	.byte	W12
@ 069   ----------------------------------------
	.byte	W84
	.byte		        As4 
	.byte	W12
@ 070   ----------------------------------------
	.byte	W84
	.byte		N23   , Cn5 
	.byte	W12
@ 071   ----------------------------------------
From_Shadows_2_071:
	.byte	W12
	.byte		N23   , As4 , v080
	.byte	W24
	.byte		N23   
	.byte	W24
	.byte		        Gn4 
	.byte	W24
	.byte		N92   
	.byte	W12
	.byte	PEND
@ 072   ----------------------------------------
	.byte	W84
	.byte		N23   , Cn5 
	.byte	W12
@ 073   ----------------------------------------
From_Shadows_2_073:
	.byte	W12
	.byte		N23   , As4 , v080
	.byte	W24
	.byte		N23   
	.byte	W24
	.byte		        Cn5 
	.byte	W24
	.byte		        Gn4 
	.byte	W12
	.byte	PEND
@ 074   ----------------------------------------
	.byte	W12
	.byte		        Fn4 
	.byte	W36
	.byte		N32   
	.byte	W36
	.byte		N92   , An4 
	.byte	W12
@ 075   ----------------------------------------
	.byte	W84
	.byte		        Fn4 
	.byte	W12
@ 076   ----------------------------------------
	.byte	W84
	.byte		        Gs4 
	.byte	W12
@ 077   ----------------------------------------
	.byte	W84
	.byte		        As4 
	.byte	W12
@ 078   ----------------------------------------
	.byte	W84
	.byte		N23   , Cn5 
	.byte	W12
@ 079   ----------------------------------------
	.byte	PATT
	 .word	From_Shadows_2_071
@ 080   ----------------------------------------
	.byte	W84
	.byte		N23   , Cn5 , v080
	.byte	W12
@ 081   ----------------------------------------
	.byte	PATT
	 .word	From_Shadows_2_073
@ 082   ----------------------------------------
	.byte	W12
	.byte		N23   , Fn4 , v080
	.byte	W24
	.byte		        Ds4 
	.byte	W24
	.byte		        Fn4 
	.byte	W24
	.byte		TIE   , Gn4 
	.byte	W12
@ 083   ----------------------------------------
	.byte	W96
@ 084   ----------------------------------------
	.byte	W96
@ 085   ----------------------------------------
	.byte	W96
@ 086   ----------------------------------------
	.byte	W32
	.byte	W03
	.byte		EOT   
	.byte	W01
	.byte		N23   , As4 
	.byte	W24
	.byte		        Gn4 
	.byte	W24
	.byte		TIE   
	.byte	W12
@ 087   ----------------------------------------
	.byte	W96
@ 088   ----------------------------------------
	.byte	W96
@ 089   ----------------------------------------
	.byte	W96
@ 090   ----------------------------------------
	.byte	W92
	.byte	W03
	.byte		EOT   
	.byte	W01
@ 091   ----------------------------------------
	.byte	W36
	.byte		N11   , Dn4 
	.byte	W12
	.byte		N23   , Cn5 
	.byte	W24
	.byte		N11   
	.byte	W12
	.byte		N23   
	.byte	W12
@ 092   ----------------------------------------
	.byte	W12
	.byte		N23   
	.byte	W24
	.byte		N23   
	.byte	W24
	.byte		        Dn5 
	.byte	W24
	.byte		N32   , Bn4 
	.byte	W12
@ 093   ----------------------------------------
From_Shadows_2_093:
	.byte	W36
	.byte		N11   , Dn4 , v080
	.byte	W12
	.byte		N23   , Bn4 
	.byte	W24
	.byte		N11   
	.byte	W12
	.byte		N23   
	.byte	W12
	.byte	PEND
@ 094   ----------------------------------------
	.byte	W12
	.byte		N23   
	.byte	W24
	.byte		N23   
	.byte	W24
	.byte		        Cn5 
	.byte	W24
	.byte		N32   , An4 
	.byte	W12
@ 095   ----------------------------------------
	.byte	W36
	.byte		N11   , Dn4 
	.byte	W12
	.byte		N23   , Cn5 
	.byte	W24
	.byte		N23   
	.byte	W24
@ 096   ----------------------------------------
	.byte		N11   
	.byte	W12
	.byte		N23   
	.byte	W24
	.byte		N23   
	.byte	W24
	.byte		        Bn4 
	.byte	W24
	.byte		N23   
	.byte	W12
@ 097   ----------------------------------------
	.byte	PATT
	 .word	From_Shadows_2_093
@ 098   ----------------------------------------
	.byte	W12
	.byte		N23   , Bn4 , v080
	.byte	W24
	.byte		N23   
	.byte	W24
	.byte		N23   
	.byte	W24
	.byte		N32   , Cn5 
	.byte	W12
@ 099   ----------------------------------------
	.byte	W96
@ 100   ----------------------------------------
	.byte	W96
@ 101   ----------------------------------------
	.byte	W96
@ 102   ----------------------------------------
	.byte	W96
@ 103   ----------------------------------------
	.byte	W96
@ 104   ----------------------------------------
	.byte	W96
@ 105   ----------------------------------------
	.byte	W96
@ 106   ----------------------------------------
	.byte	W96
@ 107   ----------------------------------------
	.byte	W96
@ 108   ----------------------------------------
	.byte	W96
@ 109   ----------------------------------------
	.byte	W96
@ 110   ----------------------------------------
	.byte	W96
@ 111   ----------------------------------------
	.byte	W96
@ 112   ----------------------------------------
	.byte	W96
@ 113   ----------------------------------------
	.byte	W96
@ 114   ----------------------------------------
	.byte	W96
@ 115   ----------------------------------------
	.byte	W96
@ 116   ----------------------------------------
	.byte	W96
@ 117   ----------------------------------------
	.byte	W96
@ 118   ----------------------------------------
	.byte	W96
@ 119   ----------------------------------------
	.byte	W96
@ 120   ----------------------------------------
	.byte	W96
@ 121   ----------------------------------------
	.byte	W96
@ 122   ----------------------------------------
	.byte	W96
@ 123   ----------------------------------------
	.byte	W96
@ 124   ----------------------------------------
	.byte	W96
@ 125   ----------------------------------------
	.byte	W96
@ 126   ----------------------------------------
	.byte	W96
@ 127   ----------------------------------------
	.byte	W96
@ 128   ----------------------------------------
	.byte	W96
@ 129   ----------------------------------------
	.byte	W96
@ 130   ----------------------------------------
	.byte	W96
@ 131   ----------------------------------------
	.byte	W96
@ 132   ----------------------------------------
From_Shadows_2_132:
	.byte	W48
	.byte		N11   , Bn3 , v080
	.byte	W12
	.byte		N23   , Dn4 
	.byte	W24
	.byte		N23   
	.byte	W12
	.byte	PEND
@ 133   ----------------------------------------
	.byte	W12
	.byte		        Bn3 
	.byte	W84
@ 134   ----------------------------------------
From_Shadows_2_134:
	.byte	W24
	.byte		N11   , Dn4 , v080
	.byte	W12
	.byte		N11   
	.byte	W12
	.byte		N11   
	.byte	W12
	.byte		N11   
	.byte	W12
	.byte		N11   
	.byte	W12
	.byte		N11   
	.byte	W12
	.byte	PEND
@ 135   ----------------------------------------
From_Shadows_2_135:
	.byte		N23   , Dn4 , v080
	.byte	W24
	.byte		N11   , Bn3 
	.byte	W12
	.byte		N23   , An3 
	.byte	W24
	.byte		        Bn3 
	.byte	W24
	.byte		N11   , An3 
	.byte	W12
	.byte	PEND
@ 136   ----------------------------------------
	.byte	PATT
	 .word	From_Shadows_2_132
@ 137   ----------------------------------------
	.byte	W12
	.byte		N23   , Bn3 , v080
	.byte	W84
@ 138   ----------------------------------------
	.byte	PATT
	 .word	From_Shadows_2_134
@ 139   ----------------------------------------
	.byte	PATT
	 .word	From_Shadows_2_135
@ 140   ----------------------------------------
	.byte	W96
@ 141   ----------------------------------------
	.byte	W96
@ 142   ----------------------------------------
	.byte	W96
@ 143   ----------------------------------------
	.byte	W96
@ 144   ----------------------------------------
	.byte	W96
@ 145   ----------------------------------------
	.byte	W96
@ 146   ----------------------------------------
	.byte	W96
@ 147   ----------------------------------------
	.byte	W96
@ 148   ----------------------------------------
	.byte	W96
@ 149   ----------------------------------------
	.byte	W96
@ 150   ----------------------------------------
	.byte	W96
@ 151   ----------------------------------------
	.byte	W96
@ 152   ----------------------------------------
	.byte	W96
@ 153   ----------------------------------------
	.byte	W96
@ 154   ----------------------------------------
	.byte	W96
@ 155   ----------------------------------------
	.byte	W96
@ 156   ----------------------------------------
	.byte	W96
@ 157   ----------------------------------------
	.byte	W96
@ 158   ----------------------------------------
	.byte	W96
@ 159   ----------------------------------------
	.byte	W96
@ 160   ----------------------------------------
	.byte	W96
@ 161   ----------------------------------------
	.byte	W96
@ 162   ----------------------------------------
	.byte	W96
@ 163   ----------------------------------------
	.byte	W96
@ 164   ----------------------------------------
	.byte	W96
@ 165   ----------------------------------------
	.byte	W96
@ 166   ----------------------------------------
	.byte	W96
@ 167   ----------------------------------------
	.byte	W96
@ 168   ----------------------------------------
	.byte	W96
@ 169   ----------------------------------------
	.byte	W96
@ 170   ----------------------------------------
	.byte	W96
@ 171   ----------------------------------------
	.byte	W96
@ 172   ----------------------------------------
	.byte	W96
@ 173   ----------------------------------------
	.byte	W72
@ 174   ----------------------------------------
	.byte	W72
@ 175   ----------------------------------------
	.byte	W72
@ 176   ----------------------------------------
	.byte	W72
@ 177   ----------------------------------------
	.byte	W72
@ 178   ----------------------------------------
	.byte	W72
@ 179   ----------------------------------------
	.byte	W72
@ 180   ----------------------------------------
	.byte	W72
@ 181   ----------------------------------------
	.byte	W72
@ 182   ----------------------------------------
	.byte	W72
@ 183   ----------------------------------------
	.byte	W72
@ 184   ----------------------------------------
	.byte	W72
@ 185   ----------------------------------------
	.byte	W72
@ 186   ----------------------------------------
	.byte	W72
@ 187   ----------------------------------------
	.byte	W72
@ 188   ----------------------------------------
	.byte	W72
@ 189   ----------------------------------------
	.byte	W72
@ 190   ----------------------------------------
	.byte	W72
@ 191   ----------------------------------------
	.byte	W72
@ 192   ----------------------------------------
	.byte	W72
@ 193   ----------------------------------------
	.byte	W72
@ 194   ----------------------------------------
	.byte	W72
@ 195   ----------------------------------------
	.byte	W72
@ 196   ----------------------------------------
	.byte	W72
@ 197   ----------------------------------------
	.byte	W72
@ 198   ----------------------------------------
	.byte	W72
@ 199   ----------------------------------------
	.byte	W72
@ 200   ----------------------------------------
	.byte	W72
@ 201   ----------------------------------------
	.byte	W72
@ 202   ----------------------------------------
	.byte	W72
@ 203   ----------------------------------------
	.byte	W72
@ 204   ----------------------------------------
	.byte	W72
@ 205   ----------------------------------------
	.byte	W72
@ 206   ----------------------------------------
	.byte	W72
@ 207   ----------------------------------------
	.byte	W72
@ 208   ----------------------------------------
	.byte	W72
@ 209   ----------------------------------------
	.byte	W72
@ 210   ----------------------------------------
	.byte	W72
@ 211   ----------------------------------------
	.byte	W72
@ 212   ----------------------------------------
	.byte	W72
@ 213   ----------------------------------------
	.byte	W72
@ 214   ----------------------------------------
	.byte	W23
	.byte	GOTO
	 .word	From_Shadows_2_B1
From_Shadows_2_B2:
	.byte	FINE

@**************** Track 3 (Midi-Chn.3) ****************@

From_Shadows_3:
	.byte	KEYSH , From_Shadows_key+0
From_Shadows_3_B1:
@ 000   ----------------------------------------
	.byte		VOICE , 31
	.byte		VOL   , 69*From_Shadows_mvl/mxv
	.byte		PAN   , c_v+0
	.byte	W96
@ 001   ----------------------------------------
	.byte	W96
@ 002   ----------------------------------------
	.byte	W96
@ 003   ----------------------------------------
	.byte	W96
@ 004   ----------------------------------------
	.byte	W96
@ 005   ----------------------------------------
	.byte	W96
@ 006   ----------------------------------------
	.byte	W96
@ 007   ----------------------------------------
	.byte	W96
@ 008   ----------------------------------------
	.byte	W96
@ 009   ----------------------------------------
	.byte	W96
@ 010   ----------------------------------------
	.byte	W96
@ 011   ----------------------------------------
	.byte	W96
@ 012   ----------------------------------------
	.byte	W96
@ 013   ----------------------------------------
	.byte	W96
@ 014   ----------------------------------------
	.byte	W96
@ 015   ----------------------------------------
	.byte	W96
@ 016   ----------------------------------------
	.byte	W96
@ 017   ----------------------------------------
	.byte	W96
@ 018   ----------------------------------------
	.byte	W96
@ 019   ----------------------------------------
	.byte	W96
@ 020   ----------------------------------------
	.byte	W96
@ 021   ----------------------------------------
	.byte	W96
@ 022   ----------------------------------------
	.byte	W96
@ 023   ----------------------------------------
	.byte	W96
@ 024   ----------------------------------------
	.byte	W96
@ 025   ----------------------------------------
	.byte	W96
@ 026   ----------------------------------------
	.byte	W96
@ 027   ----------------------------------------
	.byte	W96
@ 028   ----------------------------------------
	.byte	W96
@ 029   ----------------------------------------
	.byte	W96
@ 030   ----------------------------------------
	.byte	W96
@ 031   ----------------------------------------
	.byte	W96
@ 032   ----------------------------------------
	.byte	W96
@ 033   ----------------------------------------
	.byte	W96
@ 034   ----------------------------------------
	.byte	W96
@ 035   ----------------------------------------
	.byte	W96
@ 036   ----------------------------------------
	.byte	W96
@ 037   ----------------------------------------
	.byte	W72
@ 038   ----------------------------------------
	.byte	W96
@ 039   ----------------------------------------
	.byte	W96
@ 040   ----------------------------------------
	.byte	W96
@ 041   ----------------------------------------
	.byte	W96
@ 042   ----------------------------------------
	.byte	W96
@ 043   ----------------------------------------
	.byte	W96
@ 044   ----------------------------------------
	.byte	W96
@ 045   ----------------------------------------
	.byte	W96
@ 046   ----------------------------------------
	.byte	W96
@ 047   ----------------------------------------
	.byte	W96
@ 048   ----------------------------------------
	.byte	W96
@ 049   ----------------------------------------
	.byte	W96
@ 050   ----------------------------------------
	.byte	W96
@ 051   ----------------------------------------
	.byte	W96
@ 052   ----------------------------------------
	.byte	W96
@ 053   ----------------------------------------
	.byte	W96
@ 054   ----------------------------------------
	.byte	W96
@ 055   ----------------------------------------
	.byte	W96
@ 056   ----------------------------------------
	.byte	W96
@ 057   ----------------------------------------
	.byte	W96
@ 058   ----------------------------------------
	.byte	W84
	.byte		N23   , Dn2 , v096
	.byte		N23   , An2 
	.byte		N23   , Cn3 
	.byte		N23   , Fn3 
	.byte		N23   , An3 
	.byte	W12
@ 059   ----------------------------------------
	.byte	W12
	.byte		N11   , Dn2 
	.byte		N11   , An2 
	.byte		N11   , Cn3 
	.byte		N11   , Fn3 
	.byte		N11   , An3 
	.byte	W12
	.byte		        Dn2 
	.byte		N11   , An2 
	.byte		N11   , Cn3 
	.byte		N11   , Fn3 
	.byte		N11   , An3 
	.byte	W24
	.byte		        Dn2 
	.byte		N11   , An2 
	.byte		N11   , Cn3 
	.byte		N11   , Fn3 
	.byte		N11   , An3 
	.byte	W12
	.byte		        Dn2 
	.byte		N11   , An2 
	.byte		N11   , Cn3 
	.byte		N11   , Fn3 
	.byte		N11   , An3 
	.byte	W24
	.byte		N23   , Dn2 
	.byte		N23   , An2 
	.byte		N23   , Cn3 
	.byte		N23   , Fn3 
	.byte		N23   , An3 
	.byte	W12
@ 060   ----------------------------------------
From_Shadows_3_060:
	.byte	W12
	.byte		N11   , Dn2 , v096
	.byte		N11   , An2 
	.byte		N11   , Cn3 
	.byte		N11   , Gn3 
	.byte		N11   , An3 
	.byte	W12
	.byte		        Dn2 
	.byte		N11   , An2 
	.byte		N11   , Cn3 
	.byte		N11   , Gn3 
	.byte		N11   , An3 
	.byte	W24
	.byte		        Dn2 
	.byte		N11   , An2 
	.byte		N11   , Cn3 
	.byte		N11   , Fn3 
	.byte		N11   , An3 
	.byte	W12
	.byte		        Dn2 
	.byte		N11   , An2 
	.byte		N11   , Cn3 
	.byte		N11   , Fn3 
	.byte		N11   , An3 
	.byte	W24
	.byte		N23   , Fn2 
	.byte		N23   , Cn3 
	.byte		N23   , Ds3 
	.byte		N23   , Gs3 
	.byte		N23   , Cn4 
	.byte	W12
	.byte	PEND
@ 061   ----------------------------------------
From_Shadows_3_061:
	.byte	W12
	.byte		N11   , Fn2 , v096
	.byte		N11   , Cn3 
	.byte		N11   , Ds3 
	.byte		N11   , Gs3 
	.byte		N11   , Cn4 
	.byte	W12
	.byte		        Fn2 
	.byte		N11   , Cn3 
	.byte		N11   , Ds3 
	.byte		N11   , Gs3 
	.byte		N11   , Cn4 
	.byte	W24
	.byte		        Fn2 
	.byte		N11   , Cn3 
	.byte		N11   , Ds3 
	.byte		N11   , Gs3 
	.byte		N11   , Cn4 
	.byte	W12
	.byte		        Fn2 
	.byte		N11   , Cn3 
	.byte		N11   , Ds3 
	.byte		N11   , Gs3 
	.byte		N11   , Cn4 
	.byte	W24
	.byte		N23   , Fn2 
	.byte		N23   , Cn3 
	.byte		N23   , Ds3 
	.byte		N23   , As3 
	.byte		N23   , Cn4 
	.byte	W12
	.byte	PEND
@ 062   ----------------------------------------
	.byte	W12
	.byte		N11   , Fn2 
	.byte		N11   , Cn3 
	.byte		N11   , Ds3 
	.byte		N11   , As3 
	.byte		N11   , Cn4 
	.byte	W12
	.byte		        Fn2 
	.byte		N11   , Cn3 
	.byte		N11   , Ds3 
	.byte		N11   , As3 
	.byte		N11   , Cn4 
	.byte	W24
	.byte		        Fn2 
	.byte		N11   , Cn3 
	.byte		N11   , Ds3 
	.byte		N11   , Gs3 
	.byte		N11   , Cn4 
	.byte	W12
	.byte		        Fn2 
	.byte		N11   , Cn3 
	.byte		N11   , Ds3 
	.byte		N11   , Gs3 
	.byte		N11   , Cn4 
	.byte	W24
	.byte		N23   , Cn2 
	.byte		N23   , Gn2 
	.byte		N23   , As2 
	.byte		N23   , Ds3 
	.byte		N23   , Gn3 
	.byte	W12
@ 063   ----------------------------------------
	.byte	W12
	.byte		N11   , Cn2 
	.byte		N11   , Gn2 
	.byte		N11   , As2 
	.byte		N11   , Ds3 
	.byte		N11   , Gn3 
	.byte	W12
	.byte		        Cn2 
	.byte		N11   , Gn2 
	.byte		N11   , As2 
	.byte		N11   , Ds3 
	.byte		N11   , Gn3 
	.byte	W24
	.byte		        Cn2 
	.byte		N11   , Gn2 
	.byte		N11   , As2 
	.byte		N11   , Ds3 
	.byte		N11   , Gn3 
	.byte	W12
	.byte		        Cn2 
	.byte		N11   , Gn2 
	.byte		N11   , As2 
	.byte		N11   , Ds3 
	.byte		N11   , Gn3 
	.byte	W24
	.byte		N23   , Cn2 
	.byte		N23   , Gn2 
	.byte		N23   , As2 
	.byte		N23   , Ds3 
	.byte		N23   , As3 
	.byte	W12
@ 064   ----------------------------------------
From_Shadows_3_064:
	.byte	W12
	.byte		N11   , Cn2 , v096
	.byte		N11   , Gn2 
	.byte		N11   , As2 
	.byte		N11   , Ds3 
	.byte		N11   , As3 
	.byte	W12
	.byte		        Cn2 
	.byte		N11   , Gn2 
	.byte		N11   , As2 
	.byte		N11   , Ds3 
	.byte		N11   , As3 
	.byte	W24
	.byte		        Cn2 
	.byte		N11   , Gn2 
	.byte		N11   , As2 
	.byte		N11   , Ds3 
	.byte		N11   , Gn3 
	.byte	W12
	.byte		        Cn2 
	.byte		N11   , Gn2 
	.byte		N11   , As2 
	.byte		N11   , Ds3 
	.byte		N11   , Gn3 
	.byte	W24
	.byte		N23   , Fn2 
	.byte		N23   , Cn3 
	.byte		N23   , Ds3 
	.byte		N23   , Gs3 
	.byte		N23   , Cn4 
	.byte	W12
	.byte	PEND
@ 065   ----------------------------------------
From_Shadows_3_065:
	.byte	W12
	.byte		N11   , Fn2 , v096
	.byte		N11   , Cn3 
	.byte		N11   , Ds3 
	.byte		N11   , Gs3 
	.byte		N11   , Cn4 
	.byte	W12
	.byte		        Fn2 
	.byte		N11   , Cn3 
	.byte		N11   , Ds3 
	.byte		N11   , Gs3 
	.byte		N11   , Cn4 
	.byte	W24
	.byte		        Fn2 
	.byte		N11   , Cn3 
	.byte		N11   , Ds3 
	.byte		N11   , Gs3 
	.byte		N11   , Cn4 
	.byte	W12
	.byte		        Fn2 
	.byte		N11   , Cn3 
	.byte		N11   , Ds3 
	.byte		N11   , Gs3 
	.byte		N11   , Cn4 
	.byte	W24
	.byte		N23   , Gn2 
	.byte		N23   , Dn3 
	.byte		N23   , Fn3 
	.byte		N23   , As3 
	.byte		N23   , Dn4 
	.byte	W12
	.byte	PEND
@ 066   ----------------------------------------
	.byte	W12
	.byte		N11   , Gn2 
	.byte		N11   , Dn3 
	.byte		N11   , Fn3 
	.byte		N11   , As3 
	.byte		N11   , Dn4 
	.byte	W12
	.byte		        Gn2 
	.byte		N11   , Dn3 
	.byte		N11   , Fn3 
	.byte		N11   , As3 
	.byte		N11   , Dn4 
	.byte	W60
	.byte		N23   , Dn2 
	.byte		N23   , An2 
	.byte		N23   , Cn3 
	.byte		N23   , Fn3 
	.byte		N23   , An3 
	.byte	W12
@ 067   ----------------------------------------
From_Shadows_3_067:
	.byte	W12
	.byte		N11   , Dn2 , v096
	.byte		N11   , An2 
	.byte		N11   , Cn3 
	.byte		N11   , Fn3 
	.byte		N11   , An3 
	.byte	W12
	.byte		        Dn2 
	.byte		N11   , An2 
	.byte		N11   , Cn3 
	.byte		N11   , Fn3 
	.byte		N11   , An3 
	.byte	W24
	.byte		        Dn2 
	.byte		N11   , An2 
	.byte		N11   , Cn3 
	.byte		N11   , Fn3 
	.byte		N11   , An3 
	.byte	W12
	.byte		        Dn2 
	.byte		N11   , An2 
	.byte		N11   , Cn3 
	.byte		N11   , Fn3 
	.byte		N11   , An3 
	.byte	W24
	.byte		N23   , Dn2 
	.byte		N23   , An2 
	.byte		N23   , Cn3 
	.byte		N23   , Gn3 
	.byte		N23   , An3 
	.byte	W12
	.byte	PEND
@ 068   ----------------------------------------
	.byte	W12
	.byte		N11   , Dn2 
	.byte		N11   , An2 
	.byte		N11   , Cn3 
	.byte		N11   , Gn3 
	.byte		N11   , An3 
	.byte	W12
	.byte		        Dn2 
	.byte		N11   , An2 
	.byte		N11   , Cn3 
	.byte		N11   , Gn3 
	.byte		N11   , An3 
	.byte	W24
	.byte		        Dn2 
	.byte		N11   , An2 
	.byte		N11   , Cn3 
	.byte		N11   , En3 
	.byte		N11   , An3 
	.byte	W12
	.byte		        Dn2 
	.byte		N11   , An2 
	.byte		N11   , Cn3 
	.byte		N11   , En3 
	.byte		N11   , An3 
	.byte	W24
	.byte		N23   , Fn2 
	.byte		N23   , Cn3 
	.byte		N23   , Ds3 
	.byte		N23   , Gs3 
	.byte		N23   , Cn4 
	.byte	W12
@ 069   ----------------------------------------
	.byte	PATT
	 .word	From_Shadows_3_061
@ 070   ----------------------------------------
From_Shadows_3_070:
	.byte	W12
	.byte		N11   , Fn2 , v096
	.byte		N11   , Cn3 
	.byte		N11   , Ds3 
	.byte		N11   , As3 
	.byte		N11   , Cn4 
	.byte	W12
	.byte		        Fn2 
	.byte		N11   , Cn3 
	.byte		N11   , Ds3 
	.byte		N11   , As3 
	.byte		N11   , Cn4 
	.byte	W24
	.byte		        Fn2 
	.byte		N11   , Cn3 
	.byte		N11   , Ds3 
	.byte		N11   , Gs3 
	.byte		N11   , Cn4 
	.byte	W12
	.byte		        Fn2 
	.byte		N11   , Cn3 
	.byte		N11   , Ds3 
	.byte		N11   , Gs3 
	.byte		N11   , Cn4 
	.byte	W24
	.byte		        Cn2 
	.byte		N11   , Gn2 
	.byte		N11   , As2 
	.byte		N11   , Ds3 
	.byte		N11   , Gn3 
	.byte	W12
	.byte	PEND
@ 071   ----------------------------------------
From_Shadows_3_071:
	.byte		N11   , Cn2 , v096
	.byte		N11   , Gn2 
	.byte		N11   , As2 
	.byte		N11   , Ds3 
	.byte		N11   , Gn3 
	.byte	W12
	.byte		        Cn2 
	.byte		N11   , Gn2 
	.byte		N11   , As2 
	.byte		N11   , Ds3 
	.byte		N11   , Gn3 
	.byte	W12
	.byte		        Cn2 
	.byte		N11   , Gn2 
	.byte		N11   , As2 
	.byte		N11   , Ds3 
	.byte		N11   , Gn3 
	.byte	W24
	.byte		        Cn2 
	.byte		N11   , Gn2 
	.byte		N11   , As2 
	.byte		N11   , Ds3 
	.byte		N11   , Gn3 
	.byte	W12
	.byte		        Cn2 
	.byte		N11   , Gn2 
	.byte		N11   , As2 
	.byte		N11   , Ds3 
	.byte		N11   , Gn3 
	.byte	W24
	.byte		N23   , Cn2 
	.byte		N23   , Gn2 
	.byte		N23   , As2 
	.byte		N23   , Ds3 
	.byte		N23   , As3 
	.byte	W12
	.byte	PEND
@ 072   ----------------------------------------
	.byte	PATT
	 .word	From_Shadows_3_064
@ 073   ----------------------------------------
	.byte	PATT
	 .word	From_Shadows_3_065
@ 074   ----------------------------------------
	.byte	W12
	.byte		N11   , Gn2 , v096
	.byte		N11   , Dn3 
	.byte		N11   , Fn3 
	.byte		N11   , As3 
	.byte		N11   , Dn4 
	.byte	W12
	.byte		        Gn2 
	.byte		N11   , Dn3 
	.byte		N11   , Fn3 
	.byte		N11   , As3 
	.byte		N11   , Dn4 
	.byte	W24
	.byte		        Gn2 
	.byte		N11   , Dn3 
	.byte		N11   , Fn3 
	.byte		N11   , As3 
	.byte		N11   , Dn4 
	.byte	W12
	.byte		        Gn2 
	.byte		N11   , Dn3 
	.byte		N11   , Fn3 
	.byte		N11   , As3 
	.byte		N11   , Dn4 
	.byte	W24
	.byte		N23   , Dn2 
	.byte		N23   , An2 
	.byte		N23   , Cn3 
	.byte		N23   , Fn3 
	.byte		N23   , An3 
	.byte	W12
@ 075   ----------------------------------------
	.byte	PATT
	 .word	From_Shadows_3_067
@ 076   ----------------------------------------
	.byte	PATT
	 .word	From_Shadows_3_060
@ 077   ----------------------------------------
	.byte	PATT
	 .word	From_Shadows_3_061
@ 078   ----------------------------------------
	.byte	PATT
	 .word	From_Shadows_3_070
@ 079   ----------------------------------------
	.byte	PATT
	 .word	From_Shadows_3_071
@ 080   ----------------------------------------
	.byte	PATT
	 .word	From_Shadows_3_064
@ 081   ----------------------------------------
	.byte	PATT
	 .word	From_Shadows_3_065
@ 082   ----------------------------------------
	.byte	W12
	.byte		N11   , Gn2 , v096
	.byte		N11   , Dn3 
	.byte		N11   , Fn3 
	.byte		N11   , As3 
	.byte		N11   , Dn4 
	.byte	W12
	.byte		        Gn2 
	.byte		N11   , Dn3 
	.byte		N11   , Fn3 
	.byte		N11   , As3 
	.byte		N11   , Dn4 
	.byte	W24
	.byte		        Gn2 
	.byte		N11   , Dn3 
	.byte		N11   , Fn3 
	.byte		N11   , As3 
	.byte		N11   , Dn4 
	.byte	W12
	.byte		        Gn2 
	.byte		N11   , Dn3 
	.byte		N11   , Fn3 
	.byte		N11   , As3 
	.byte		N11   , Dn4 
	.byte	W24
	.byte		N23   , Gs1 
	.byte		N23   , Ds2 
	.byte	W12
@ 083   ----------------------------------------
From_Shadows_3_083:
	.byte	W12
	.byte		N11   , Gs1 , v096
	.byte		N11   , Ds2 
	.byte	W12
	.byte		        Gs1 
	.byte		N11   , Ds2 
	.byte	W12
	.byte		        Gs1 
	.byte		N11   , Ds2 
	.byte	W12
	.byte		        Gs1 
	.byte		N11   , Ds2 
	.byte	W12
	.byte		        Gs1 
	.byte		N11   , Ds2 
	.byte	W12
	.byte		        Gs1 
	.byte		N11   , Ds2 
	.byte	W12
	.byte		        Gs1 
	.byte		N11   , Ds2 
	.byte	W12
	.byte	PEND
@ 084   ----------------------------------------
From_Shadows_3_084:
	.byte		N11   , Gs1 , v096
	.byte		N11   , Ds2 
	.byte	W12
	.byte		        Gs1 
	.byte		N11   , Ds2 
	.byte	W12
	.byte		        Gs1 
	.byte		N11   , Ds2 
	.byte	W12
	.byte		        Gs1 
	.byte		N11   , Ds2 
	.byte	W12
	.byte		        Gs1 
	.byte		N11   , Ds2 
	.byte	W12
	.byte		        Gs1 
	.byte		N11   , Ds2 
	.byte	W12
	.byte		        Gs1 
	.byte		N11   , Ds2 
	.byte	W12
	.byte		N23   , As1 
	.byte		N23   , Fn2 
	.byte	W12
	.byte	PEND
@ 085   ----------------------------------------
From_Shadows_3_085:
	.byte	W12
	.byte		N11   , As1 , v096
	.byte		N11   , Fn2 
	.byte	W12
	.byte		        As1 
	.byte		N11   , Fn2 
	.byte	W12
	.byte		        As1 
	.byte		N11   , Fn2 
	.byte	W12
	.byte		        As1 
	.byte		N11   , Fn2 
	.byte	W12
	.byte		        As1 
	.byte		N11   , Fn2 
	.byte	W12
	.byte		        As1 
	.byte		N11   , Fn2 
	.byte	W12
	.byte		        As1 
	.byte		N11   , Fn2 
	.byte	W12
	.byte	PEND
@ 086   ----------------------------------------
	.byte		        As1 
	.byte		N11   , Fn2 
	.byte	W12
	.byte		        As1 
	.byte		N11   , Fn2 
	.byte	W12
	.byte		        As1 
	.byte		N11   , Fn2 
	.byte	W12
	.byte		        As1 
	.byte		N11   , Fn2 
	.byte	W12
	.byte		        As1 
	.byte		N11   , Fn2 
	.byte	W12
	.byte		        As1 
	.byte		N11   , Fn2 
	.byte	W12
	.byte		        As1 
	.byte		N11   , Fn2 
	.byte	W12
	.byte		N23   , Gs1 
	.byte		N23   , Ds2 
	.byte	W12
@ 087   ----------------------------------------
	.byte	PATT
	 .word	From_Shadows_3_083
@ 088   ----------------------------------------
	.byte		N11   , Gs1 , v096
	.byte		N11   , Ds2 
	.byte	W12
	.byte		        Gs1 
	.byte		N11   , Ds2 
	.byte	W12
	.byte		        Gs1 
	.byte		N11   , Ds2 
	.byte	W12
	.byte		        Gs1 
	.byte		N11   , Ds2 
	.byte	W12
	.byte		        Gs1 
	.byte		N11   , Ds2 
	.byte	W12
	.byte		        Gs1 
	.byte		N11   , Ds2 
	.byte	W12
	.byte		        Gs1 
	.byte		N11   , Ds2 
	.byte	W12
	.byte		        As1 
	.byte		N11   , Fn2 
	.byte	W12
@ 089   ----------------------------------------
	.byte		        As1 
	.byte		N11   , Fn2 
	.byte	W12
	.byte		        As1 
	.byte		N11   , Fn2 
	.byte	W12
	.byte		        As1 
	.byte		N11   , Fn2 
	.byte	W12
	.byte		        As1 
	.byte		N11   , Fn2 
	.byte	W12
	.byte		        As1 
	.byte		N11   , Fn2 
	.byte	W12
	.byte		        As1 
	.byte		N11   , Fn2 
	.byte	W12
	.byte		        As1 
	.byte		N11   , Fn2 
	.byte	W12
	.byte		        As1 
	.byte		N11   , Fn2 
	.byte	W12
@ 090   ----------------------------------------
	.byte		        As1 
	.byte		N11   , Fn2 
	.byte	W12
	.byte		        As1 
	.byte		N11   , Fn2 
	.byte	W12
	.byte		        As1 
	.byte		N11   , Fn2 
	.byte	W12
	.byte		        As1 
	.byte		N11   , Fn2 
	.byte	W12
	.byte		        As1 
	.byte		N11   , Fn2 
	.byte	W12
	.byte		        As1 
	.byte		N11   , Fn2 
	.byte	W12
	.byte		        As1 
	.byte		N11   , Fn2 
	.byte	W12
	.byte		N23   , Dn1 
	.byte		N23   , An1 
	.byte	W12
@ 091   ----------------------------------------
From_Shadows_3_091:
	.byte	W12
	.byte		N11   , Dn1 , v096
	.byte		N11   , An1 
	.byte	W12
	.byte		        Dn1 
	.byte		N11   , An1 
	.byte	W12
	.byte		        Dn1 
	.byte		N11   , An1 
	.byte	W12
	.byte		        Dn1 
	.byte		N11   , An1 
	.byte	W12
	.byte		        Dn1 
	.byte		N11   , An1 
	.byte	W12
	.byte		        Dn1 
	.byte		N11   , An1 
	.byte	W12
	.byte		        Dn1 
	.byte		N11   , An1 
	.byte	W12
	.byte	PEND
@ 092   ----------------------------------------
From_Shadows_3_092:
	.byte		N11   , Dn1 , v096
	.byte		N11   , An1 
	.byte	W12
	.byte		        Dn1 
	.byte		N11   , An1 
	.byte	W12
	.byte		        Dn1 
	.byte		N11   , An1 
	.byte	W12
	.byte		        Dn1 
	.byte		N11   , An1 
	.byte	W12
	.byte		        Dn1 
	.byte		N11   , An1 
	.byte	W12
	.byte		        Dn1 
	.byte		N11   , An1 
	.byte	W12
	.byte		        Dn1 
	.byte		N11   , An1 
	.byte	W12
	.byte		        En1 
	.byte		N11   , Bn1 
	.byte	W12
	.byte	PEND
@ 093   ----------------------------------------
From_Shadows_3_093:
	.byte		N11   , En1 , v096
	.byte		N11   , Bn1 
	.byte	W12
	.byte		        En1 
	.byte		N11   , Bn1 
	.byte	W12
	.byte		        En1 
	.byte		N11   , Bn1 
	.byte	W12
	.byte		        En1 
	.byte		N11   , Bn1 
	.byte	W12
	.byte		        En1 
	.byte		N11   , Bn1 
	.byte	W12
	.byte		        En1 
	.byte		N11   , Bn1 
	.byte	W12
	.byte		        En1 
	.byte		N11   , Bn1 
	.byte	W12
	.byte		        En1 
	.byte		N11   , Bn1 
	.byte	W12
	.byte	PEND
@ 094   ----------------------------------------
	.byte		        En1 
	.byte		N11   , Bn1 
	.byte	W12
	.byte		        En1 
	.byte		N11   , Bn1 
	.byte	W12
	.byte		        En1 
	.byte		N11   , Bn1 
	.byte	W12
	.byte		        En1 
	.byte		N11   , Bn1 
	.byte	W12
	.byte		        En1 
	.byte		N11   , Bn1 
	.byte	W12
	.byte		        En1 
	.byte		N11   , Bn1 
	.byte	W12
	.byte		        En1 
	.byte		N11   , Bn1 
	.byte	W12
	.byte		N23   , Dn1 
	.byte		N23   , An1 
	.byte	W12
@ 095   ----------------------------------------
	.byte	PATT
	 .word	From_Shadows_3_091
@ 096   ----------------------------------------
	.byte	PATT
	 .word	From_Shadows_3_092
@ 097   ----------------------------------------
	.byte	PATT
	 .word	From_Shadows_3_093
@ 098   ----------------------------------------
	.byte		N11   , En1 , v096
	.byte		N11   , Bn1 
	.byte	W12
	.byte		        En1 
	.byte		N11   , Bn1 
	.byte	W12
	.byte		        En1 
	.byte		N11   , Bn1 
	.byte	W12
	.byte		        En1 
	.byte		N11   , Bn1 
	.byte	W12
	.byte		        En1 
	.byte		N11   , Bn1 
	.byte	W12
	.byte		        En1 
	.byte		N11   , Bn1 
	.byte	W12
	.byte		        En1 
	.byte		N11   , Bn1 
	.byte	W12
	.byte		        Dn1 
	.byte		N11   , An1 
	.byte	W12
@ 099   ----------------------------------------
From_Shadows_3_099:
	.byte		N11   , Cn2 , v096
	.byte	W12
	.byte		        Dn2 
	.byte	W12
	.byte		        Dn1 
	.byte	W12
	.byte		        Cn2 
	.byte	W12
	.byte		        Dn2 
	.byte	W12
	.byte		        Dn1 
	.byte	W12
	.byte		        Cn2 
	.byte	W12
	.byte		        Dn2 
	.byte	W12
	.byte	PEND
@ 100   ----------------------------------------
From_Shadows_3_100:
	.byte		N11   , Dn1 , v096
	.byte	W12
	.byte		        Cn2 
	.byte	W12
	.byte		        Dn2 
	.byte	W12
	.byte		        Dn1 
	.byte	W12
	.byte		        Cn2 
	.byte	W12
	.byte		        Dn2 
	.byte	W12
	.byte		        Dn1 
	.byte	W12
	.byte		N11   
	.byte	W12
	.byte	PEND
@ 101   ----------------------------------------
	.byte	PATT
	 .word	From_Shadows_3_099
@ 102   ----------------------------------------
	.byte		N80   , Cn2 , v096
	.byte	W84
	.byte		N11   , Dn1 
	.byte	W12
@ 103   ----------------------------------------
	.byte	PATT
	 .word	From_Shadows_3_099
@ 104   ----------------------------------------
	.byte	PATT
	 .word	From_Shadows_3_100
@ 105   ----------------------------------------
	.byte	PATT
	 .word	From_Shadows_3_099
@ 106   ----------------------------------------
	.byte		N11   , Dn1 , v096
	.byte	W12
	.byte		N05   
	.byte	W06
	.byte		N05   
	.byte	W06
	.byte		N05   
	.byte	W06
	.byte		N05   
	.byte	W06
	.byte		N05   
	.byte	W60
@ 107   ----------------------------------------
	.byte	PATT
	 .word	From_Shadows_3_099
@ 108   ----------------------------------------
	.byte	PATT
	 .word	From_Shadows_3_100
@ 109   ----------------------------------------
	.byte	PATT
	 .word	From_Shadows_3_099
@ 110   ----------------------------------------
	.byte		N11   , Dn1 , v096
	.byte	W12
	.byte		N11   
	.byte	W12
	.byte		N11   
	.byte	W12
	.byte		N11   
	.byte	W12
	.byte		N11   
	.byte	W12
	.byte		N11   
	.byte	W12
	.byte		N11   
	.byte	W12
	.byte		N11   
	.byte	W12
@ 111   ----------------------------------------
	.byte	PATT
	 .word	From_Shadows_3_099
@ 112   ----------------------------------------
	.byte	PATT
	 .word	From_Shadows_3_100
@ 113   ----------------------------------------
	.byte	PATT
	 .word	From_Shadows_3_099
@ 114   ----------------------------------------
	.byte	W96
@ 115   ----------------------------------------
	.byte	W84
	.byte		N23   , En2 , v096
	.byte		N23   , Gn2 
	.byte		N23   , Dn3 
	.byte		N23   , Fs3 
	.byte	W12
@ 116   ----------------------------------------
From_Shadows_3_116:
	.byte	W12
	.byte		N11   , En2 , v096
	.byte		N11   , Gn2 
	.byte		N11   , Dn3 
	.byte		N11   , Fs3 
	.byte	W72
	.byte		N23   , En2 
	.byte		N23   , Gn2 
	.byte		N23   , Dn3 
	.byte		N23   , Fs3 
	.byte	W12
	.byte	PEND
@ 117   ----------------------------------------
	.byte	PATT
	 .word	From_Shadows_3_116
@ 118   ----------------------------------------
	.byte	PATT
	 .word	From_Shadows_3_116
@ 119   ----------------------------------------
From_Shadows_3_119:
	.byte	W12
	.byte		N11   , En2 , v096
	.byte		N11   , Gn2 
	.byte		N11   , Dn3 
	.byte		N11   , Fs3 
	.byte	W72
	.byte		N23   , Cn2 
	.byte		N23   , Bn2 
	.byte		N23   , En3 
	.byte	W12
	.byte	PEND
@ 120   ----------------------------------------
From_Shadows_3_120:
	.byte	W12
	.byte		N11   , Cn2 , v096
	.byte		N11   , Bn2 
	.byte		N11   , En3 
	.byte	W72
	.byte		N23   , Cn2 
	.byte		N23   , Bn2 
	.byte		N23   , En3 
	.byte	W12
	.byte	PEND
@ 121   ----------------------------------------
From_Shadows_3_121:
	.byte	W12
	.byte		N11   , Cn2 , v096
	.byte		N11   , Bn2 
	.byte		N11   , En3 
	.byte	W72
	.byte		N23   , Bn1 
	.byte		N23   , An2 
	.byte		N23   , Dn3 
	.byte	W12
	.byte	PEND
@ 122   ----------------------------------------
From_Shadows_3_122:
	.byte	W12
	.byte		N23   , Cn2 , v096
	.byte		N23   , Bn2 
	.byte		N23   , En3 
	.byte	W24
	.byte		        Bn1 
	.byte		N23   , An2 
	.byte		N23   , Dn3 
	.byte	W24
	.byte		        An1 
	.byte		N23   , Gn2 
	.byte		N23   , Cn3 
	.byte	W24
	.byte		        Bn1 
	.byte		N23   , An2 
	.byte		N23   , Dn3 
	.byte	W12
	.byte	PEND
@ 123   ----------------------------------------
	.byte	W12
	.byte		N11   , An1 
	.byte		N11   , Gn2 
	.byte		N11   , Cn3 
	.byte	W12
	.byte		        An1 
	.byte		N11   , Gn2 
	.byte		N11   , Cn3 
	.byte	W12
	.byte		        An1 
	.byte		N11   , Gn2 
	.byte		N11   , Cn3 
	.byte	W12
	.byte		        An1 
	.byte		N11   , Gn2 
	.byte		N11   , Cn3 
	.byte	W12
	.byte		        An1 
	.byte		N11   , Gn2 
	.byte		N11   , Cn3 
	.byte	W24
	.byte		N23   , En2 
	.byte		N23   , Gn2 
	.byte		N23   , Dn3 
	.byte		N23   , Fs3 
	.byte	W12
@ 124   ----------------------------------------
	.byte	PATT
	 .word	From_Shadows_3_116
@ 125   ----------------------------------------
	.byte	PATT
	 .word	From_Shadows_3_116
@ 126   ----------------------------------------
	.byte	PATT
	 .word	From_Shadows_3_116
@ 127   ----------------------------------------
	.byte	PATT
	 .word	From_Shadows_3_119
@ 128   ----------------------------------------
	.byte	PATT
	 .word	From_Shadows_3_120
@ 129   ----------------------------------------
	.byte	PATT
	 .word	From_Shadows_3_121
@ 130   ----------------------------------------
	.byte	PATT
	 .word	From_Shadows_3_122
@ 131   ----------------------------------------
	.byte	W12
	.byte		N11   , An1 , v096
	.byte		N11   , Gn2 
	.byte		N11   , Cn3 
	.byte	W12
	.byte		        An1 
	.byte		N11   , Gn2 
	.byte		N11   , Cn3 
	.byte	W12
	.byte		        An1 
	.byte		N11   , Gn2 
	.byte		N11   , Cn3 
	.byte	W12
	.byte		        An1 
	.byte		N11   , Gn2 
	.byte		N11   , Cn3 
	.byte	W12
	.byte		        An1 
	.byte		N11   , Gn2 
	.byte		N11   , Cn3 
	.byte	W12
	.byte		        An1 
	.byte		N11   , Gn2 
	.byte		N11   , Cn3 
	.byte	W12
	.byte		N23   , Bn1 
	.byte		N23   , An2 
	.byte		N23   , Dn3 
	.byte	W12
@ 132   ----------------------------------------
	.byte	W12
	.byte		N11   , Bn1 
	.byte		N11   , An2 
	.byte		N11   , Dn3 
	.byte	W12
	.byte		        Bn1 
	.byte		N11   , An2 
	.byte		N11   , Dn3 
	.byte	W12
	.byte		        Bn1 
	.byte		N11   , An2 
	.byte		N11   , Dn3 
	.byte	W12
	.byte		        Bn1 
	.byte		N11   , An2 
	.byte		N11   , Dn3 
	.byte	W12
	.byte		        Bn1 
	.byte		N11   , An2 
	.byte		N11   , Dn3 
	.byte	W12
	.byte		        Bn1 
	.byte		N11   , An2 
	.byte		N11   , Dn3 
	.byte	W12
	.byte		N23   , Cn2 
	.byte		N23   , Bn2 
	.byte		N23   , En3 
	.byte	W12
@ 133   ----------------------------------------
From_Shadows_3_133:
	.byte	W12
	.byte		N11   , Cn2 , v096
	.byte		N11   , Bn2 
	.byte		N11   , En3 
	.byte	W12
	.byte		        Cn2 
	.byte		N11   , Bn2 
	.byte		N11   , En3 
	.byte	W12
	.byte		        Cn2 
	.byte		N11   , Bn2 
	.byte		N11   , En3 
	.byte	W12
	.byte		        Cn2 
	.byte		N11   , Bn2 
	.byte		N11   , En3 
	.byte	W12
	.byte		        Cn2 
	.byte		N11   , Bn2 
	.byte		N11   , En3 
	.byte	W12
	.byte		        Cn2 
	.byte		N11   , Bn2 
	.byte		N11   , En3 
	.byte	W12
	.byte		N23   , Bn1 
	.byte		N23   , An2 
	.byte		N23   , Dn3 
	.byte	W12
	.byte	PEND
@ 134   ----------------------------------------
From_Shadows_3_134:
	.byte	W12
	.byte		N11   , Bn1 , v096
	.byte		N11   , An2 
	.byte		N11   , Dn3 
	.byte	W12
	.byte		        Bn1 
	.byte		N11   , An2 
	.byte		N11   , Dn3 
	.byte	W12
	.byte		        Bn1 
	.byte		N11   , An2 
	.byte		N11   , Dn3 
	.byte	W12
	.byte		        Bn1 
	.byte		N11   , An2 
	.byte		N11   , Dn3 
	.byte	W12
	.byte		        Bn1 
	.byte		N11   , An2 
	.byte		N11   , Dn3 
	.byte	W12
	.byte		        Bn1 
	.byte		N11   , An2 
	.byte		N11   , Dn3 
	.byte	W12
	.byte		N23   , An1 
	.byte		N23   , En2 
	.byte		N23   , Gn2 
	.byte		N23   , Cn3 
	.byte	W12
	.byte	PEND
@ 135   ----------------------------------------
	.byte	W12
	.byte		N11   , An1 
	.byte		N11   , En2 
	.byte		N11   , Gn2 
	.byte		N11   , Cn3 
	.byte	W12
	.byte		        An1 
	.byte		N11   , En2 
	.byte		N11   , Gn2 
	.byte		N11   , Cn3 
	.byte	W12
	.byte		        An1 
	.byte		N11   , En2 
	.byte		N11   , Gn2 
	.byte		N11   , Cn3 
	.byte	W12
	.byte		        An1 
	.byte		N11   , En2 
	.byte		N11   , Gn2 
	.byte		N11   , Cn3 
	.byte	W12
	.byte		        An1 
	.byte		N11   , En2 
	.byte		N11   , Gn2 
	.byte		N11   , Cn3 
	.byte	W12
	.byte		        An1 
	.byte		N11   , En2 
	.byte		N11   , Gn2 
	.byte		N11   , Cn3 
	.byte	W12
	.byte		        Bn1 
	.byte		N11   , An2 
	.byte		N11   , Dn3 
	.byte	W12
@ 136   ----------------------------------------
	.byte		        Bn1 
	.byte		N11   , An2 
	.byte		N11   , Dn3 
	.byte	W12
	.byte		        Bn1 
	.byte		N11   , An2 
	.byte		N11   , Dn3 
	.byte	W12
	.byte		        Bn1 
	.byte		N11   , An2 
	.byte		N11   , Dn3 
	.byte	W12
	.byte		        Bn1 
	.byte		N11   , An2 
	.byte		N11   , Dn3 
	.byte	W12
	.byte		        Bn1 
	.byte		N11   , An2 
	.byte		N11   , Dn3 
	.byte	W12
	.byte		        Bn1 
	.byte		N11   , An2 
	.byte		N11   , Dn3 
	.byte	W12
	.byte		        Bn1 
	.byte		N11   , An2 
	.byte		N11   , Dn3 
	.byte	W12
	.byte		N23   , Cn2 
	.byte		N23   , Bn2 
	.byte		N23   , En3 
	.byte	W12
@ 137   ----------------------------------------
	.byte	PATT
	 .word	From_Shadows_3_133
@ 138   ----------------------------------------
	.byte	PATT
	 .word	From_Shadows_3_134
@ 139   ----------------------------------------
	.byte	W12
	.byte		N11   , An1 , v096
	.byte		N11   , En2 
	.byte		N11   , Gn2 
	.byte		N11   , Cn3 
	.byte	W12
	.byte		        An1 
	.byte		N11   , En2 
	.byte		N11   , Gn2 
	.byte		N11   , Cn3 
	.byte	W12
	.byte		        An1 
	.byte		N11   , En2 
	.byte		N11   , Gn2 
	.byte		N11   , Cn3 
	.byte	W12
	.byte		        An1 
	.byte		N11   , En2 
	.byte		N11   , Gn2 
	.byte		N11   , Cn3 
	.byte	W12
	.byte		        An1 
	.byte		N11   , En2 
	.byte		N11   , Gn2 
	.byte		N11   , Cn3 
	.byte	W12
	.byte		        An1 
	.byte		N11   , En2 
	.byte		N11   , Gn2 
	.byte		N11   , Cn3 
	.byte	W12
	.byte		        An1 
	.byte		N11   , En2 
	.byte		N11   , Gn2 
	.byte		N11   , Cn3 
	.byte	W12
@ 140   ----------------------------------------
From_Shadows_3_140:
	.byte		N11   , An1 , v096
	.byte		N11   , En2 
	.byte		N11   , Gn2 
	.byte		N11   , Cn3 
	.byte	W12
	.byte		        An1 
	.byte		N11   , En2 
	.byte		N11   , Gn2 
	.byte		N11   , Cn3 
	.byte	W12
	.byte		        An1 
	.byte		N11   , En2 
	.byte		N11   , Gn2 
	.byte		N11   , Cn3 
	.byte	W12
	.byte		        An1 
	.byte		N11   , En2 
	.byte		N11   , Gn2 
	.byte		N11   , Cn3 
	.byte	W12
	.byte		        An1 
	.byte		N11   , En2 
	.byte		N11   , Gn2 
	.byte		N11   , Cn3 
	.byte	W12
	.byte		        An1 
	.byte		N11   , En2 
	.byte		N11   , Gn2 
	.byte		N11   , Cn3 
	.byte	W12
	.byte		        An1 
	.byte		N11   , En2 
	.byte		N11   , Gn2 
	.byte		N11   , Cn3 
	.byte	W12
	.byte		        An1 
	.byte		N11   , En2 
	.byte		N11   , Gn2 
	.byte		N11   , Cn3 
	.byte	W12
	.byte	PEND
@ 141   ----------------------------------------
	.byte	PATT
	 .word	From_Shadows_3_140
@ 142   ----------------------------------------
	.byte	PATT
	 .word	From_Shadows_3_140
@ 143   ----------------------------------------
	.byte	PATT
	 .word	From_Shadows_3_140
@ 144   ----------------------------------------
	.byte	PATT
	 .word	From_Shadows_3_140
@ 145   ----------------------------------------
	.byte	PATT
	 .word	From_Shadows_3_140
@ 146   ----------------------------------------
	.byte	W84
	.byte		N23   , Dn2 , v096
	.byte		N23   , An2 
	.byte	W12
@ 147   ----------------------------------------
From_Shadows_3_147:
	.byte	W12
	.byte		N11   , Dn2 , v096
	.byte		N11   , An2 
	.byte	W12
	.byte		        Dn2 
	.byte		N11   , An2 
	.byte	W12
	.byte		        Dn2 
	.byte		N11   , An2 
	.byte	W12
	.byte		        Dn2 
	.byte		N11   , An2 
	.byte	W12
	.byte		        Dn2 
	.byte		N11   , An2 
	.byte	W12
	.byte		        Dn2 
	.byte		N11   , An2 
	.byte	W12
	.byte		        Dn2 
	.byte		N11   , An2 
	.byte	W12
	.byte	PEND
@ 148   ----------------------------------------
From_Shadows_3_148:
	.byte		N11   , Dn2 , v096
	.byte		N11   , An2 
	.byte	W12
	.byte		        Dn2 
	.byte		N11   , An2 
	.byte	W12
	.byte		        Dn2 
	.byte		N11   , An2 
	.byte	W12
	.byte		        Dn2 
	.byte		N11   , An2 
	.byte	W12
	.byte		        Dn2 
	.byte		N11   , An2 
	.byte	W12
	.byte		        Dn2 
	.byte		N11   , An2 
	.byte	W12
	.byte		        Dn2 
	.byte		N11   , An2 
	.byte	W12
	.byte		N23   , Fn2 
	.byte		N23   , Cn3 
	.byte	W12
	.byte	PEND
@ 149   ----------------------------------------
From_Shadows_3_149:
	.byte	W12
	.byte		N11   , Fn2 , v096
	.byte		N11   , Cn3 
	.byte	W12
	.byte		        Fn2 
	.byte		N11   , Cn3 
	.byte	W12
	.byte		        Fn2 
	.byte		N11   , Cn3 
	.byte	W12
	.byte		        Fn2 
	.byte		N11   , Cn3 
	.byte	W12
	.byte		        Fn2 
	.byte		N11   , Cn3 
	.byte	W12
	.byte		        Fn2 
	.byte		N11   , Cn3 
	.byte	W12
	.byte		        Fn2 
	.byte		N11   , Cn3 
	.byte	W12
	.byte	PEND
@ 150   ----------------------------------------
From_Shadows_3_150:
	.byte		N11   , Fn2 , v096
	.byte		N11   , Cn3 
	.byte	W12
	.byte		        Fn2 
	.byte		N11   , Cn3 
	.byte	W12
	.byte		        Fn2 
	.byte		N11   , Cn3 
	.byte	W12
	.byte		        Fn2 
	.byte		N11   , Cn3 
	.byte	W12
	.byte		        Fn2 
	.byte		N11   , Cn3 
	.byte	W12
	.byte		        Fn2 
	.byte		N11   , Cn3 
	.byte	W12
	.byte		        Fn2 
	.byte		N11   , Cn3 
	.byte	W12
	.byte		N23   , Cn2 
	.byte		N23   , Gn2 
	.byte	W12
	.byte	PEND
@ 151   ----------------------------------------
From_Shadows_3_151:
	.byte	W12
	.byte		N11   , Cn2 , v096
	.byte		N11   , Gn2 
	.byte	W12
	.byte		        Cn2 
	.byte		N11   , Gn2 
	.byte	W12
	.byte		        Cn2 
	.byte		N11   , Gn2 
	.byte	W12
	.byte		        Cn2 
	.byte		N11   , Gn2 
	.byte	W12
	.byte		        Cn2 
	.byte		N11   , Gn2 
	.byte	W12
	.byte		        Cn2 
	.byte		N11   , Gn2 
	.byte	W12
	.byte		        Cn2 
	.byte		N11   , Gn2 
	.byte	W12
	.byte	PEND
@ 152   ----------------------------------------
From_Shadows_3_152:
	.byte		N11   , Cn2 , v096
	.byte		N11   , Gn2 
	.byte	W12
	.byte		        Cn2 
	.byte		N11   , Gn2 
	.byte	W12
	.byte		        Cn2 
	.byte		N11   , Gn2 
	.byte	W12
	.byte		        Cn2 
	.byte		N11   , Gn2 
	.byte	W12
	.byte		        Cn2 
	.byte		N11   , Gn2 
	.byte	W12
	.byte		        Cn2 
	.byte		N11   , Gn2 
	.byte	W12
	.byte		        Cn2 
	.byte		N11   , Gn2 
	.byte	W12
	.byte		N23   , Fn2 
	.byte		N23   , Cn3 
	.byte	W12
	.byte	PEND
@ 153   ----------------------------------------
From_Shadows_3_153:
	.byte	W12
	.byte		N11   , Fn2 , v096
	.byte		N11   , Cn3 
	.byte	W12
	.byte		        Fn2 
	.byte		N11   , Cn3 
	.byte	W12
	.byte		        Fn2 
	.byte		N11   , Cn3 
	.byte	W12
	.byte		        Fn2 
	.byte		N11   , Cn3 
	.byte	W12
	.byte		        Fn2 
	.byte		N11   , Cn3 
	.byte	W12
	.byte		        Fn2 
	.byte		N11   , Cn3 
	.byte	W12
	.byte		N23   , Gn2 
	.byte		N23   , Dn3 
	.byte	W12
	.byte	PEND
@ 154   ----------------------------------------
	.byte	W12
	.byte		N11   , Gn2 
	.byte		N11   , Dn3 
	.byte	W12
	.byte		        Gn2 
	.byte		N11   , Dn3 
	.byte	W12
	.byte		        Gn2 
	.byte		N11   , Dn3 
	.byte	W12
	.byte		        Gn2 
	.byte		N11   , Dn3 
	.byte	W12
	.byte		        Gn2 
	.byte		N11   , Dn3 
	.byte	W12
	.byte		        Gn2 
	.byte		N11   , Dn3 
	.byte	W12
	.byte		N23   , Dn2 
	.byte		N23   , An2 
	.byte	W12
@ 155   ----------------------------------------
	.byte	PATT
	 .word	From_Shadows_3_147
@ 156   ----------------------------------------
	.byte	PATT
	 .word	From_Shadows_3_148
@ 157   ----------------------------------------
	.byte	PATT
	 .word	From_Shadows_3_149
@ 158   ----------------------------------------
	.byte	PATT
	 .word	From_Shadows_3_150
@ 159   ----------------------------------------
	.byte	PATT
	 .word	From_Shadows_3_151
@ 160   ----------------------------------------
	.byte	PATT
	 .word	From_Shadows_3_152
@ 161   ----------------------------------------
	.byte	PATT
	 .word	From_Shadows_3_153
@ 162   ----------------------------------------
	.byte	W12
	.byte		N11   , Gn2 , v096
	.byte		N11   , Dn3 
	.byte	W12
	.byte		        Gn2 
	.byte		N11   , Dn3 
	.byte	W12
	.byte		        Gn2 
	.byte		N11   , Dn3 
	.byte	W12
	.byte		        Gn2 
	.byte		N11   , Dn3 
	.byte	W12
	.byte		        Gn2 
	.byte		N11   , Dn3 
	.byte	W12
	.byte		        Gn2 
	.byte		N11   , Dn3 
	.byte	W12
	.byte		N23   , Gs1 
	.byte		N23   , Ds2 
	.byte	W12
@ 163   ----------------------------------------
	.byte	PATT
	 .word	From_Shadows_3_083
@ 164   ----------------------------------------
	.byte	PATT
	 .word	From_Shadows_3_084
@ 165   ----------------------------------------
	.byte	PATT
	 .word	From_Shadows_3_085
@ 166   ----------------------------------------
	.byte		N11   , As1 , v096
	.byte		N11   , Fn2 
	.byte	W12
	.byte		        As1 
	.byte		N11   , Fn2 
	.byte	W12
	.byte		        As1 
	.byte		N11   , Fn2 
	.byte	W12
	.byte		        As1 
	.byte		N11   , Fn2 
	.byte	W12
	.byte		        As1 
	.byte		N11   , Fn2 
	.byte	W12
	.byte		        As1 
	.byte		N11   , Fn2 
	.byte	W12
	.byte		        As1 
	.byte		N11   , Fn2 
	.byte	W12
	.byte		        Gs1 
	.byte		N11   , Ds2 
	.byte	W12
@ 167   ----------------------------------------
	.byte		        Gs1 
	.byte		N11   , Ds2 
	.byte	W12
	.byte		        Gs1 
	.byte		N11   , Ds2 
	.byte	W12
	.byte		        Gs1 
	.byte		N11   , Ds2 
	.byte	W12
	.byte		        Gs1 
	.byte		N11   , Ds2 
	.byte	W12
	.byte		        Gs1 
	.byte		N11   , Ds2 
	.byte	W12
	.byte		        Gs1 
	.byte		N11   , Ds2 
	.byte	W12
	.byte		        Gs1 
	.byte		N11   , Ds2 
	.byte	W12
	.byte		N23   , Gs1 
	.byte		N23   , Ds2 
	.byte	W12
@ 168   ----------------------------------------
	.byte	W12
	.byte		N11   , Gs1 
	.byte		N11   , Ds2 
	.byte	W12
	.byte		        Gs1 
	.byte		N11   , Ds2 
	.byte	W12
	.byte		        Gs1 
	.byte		N11   , Ds2 
	.byte	W12
	.byte		        Gs1 
	.byte		N11   , Ds2 
	.byte	W12
	.byte		        Gs1 
	.byte		N11   , Ds2 
	.byte	W12
	.byte		        Gs1 
	.byte		N11   , Ds2 
	.byte	W12
	.byte		N23   , As1 
	.byte		N23   , Fn2 
	.byte	W12
@ 169   ----------------------------------------
	.byte	PATT
	 .word	From_Shadows_3_085
@ 170   ----------------------------------------
	.byte		N11   , As1 , v096
	.byte		N11   , Fn2 
	.byte	W12
	.byte		        As1 
	.byte		N11   , Fn2 
	.byte	W12
	.byte		        As1 
	.byte		N11   , Fn2 
	.byte	W12
	.byte		        As1 
	.byte		N11   , Fn2 
	.byte	W12
	.byte		        As1 
	.byte		N11   , Fn2 
	.byte	W12
	.byte		        As1 
	.byte		N11   , Fn2 
	.byte	W12
	.byte		        As1 
	.byte		N11   , Fn2 
	.byte	W12
	.byte		TIE   , Dn1 
	.byte		TIE   , An1 
	.byte	W12
@ 171   ----------------------------------------
	.byte	W92
	.byte	W03
	.byte		EOT   , Dn1 
	.byte		        An1 
	.byte	W01
@ 172   ----------------------------------------
	.byte	W96
@ 173   ----------------------------------------
	.byte	W72
@ 174   ----------------------------------------
	.byte	W72
@ 175   ----------------------------------------
	.byte	W72
@ 176   ----------------------------------------
	.byte	W72
@ 177   ----------------------------------------
	.byte	W72
@ 178   ----------------------------------------
	.byte	W72
@ 179   ----------------------------------------
	.byte	W72
@ 180   ----------------------------------------
	.byte	W72
@ 181   ----------------------------------------
	.byte	W72
@ 182   ----------------------------------------
	.byte	W72
@ 183   ----------------------------------------
	.byte	W72
@ 184   ----------------------------------------
	.byte	W72
@ 185   ----------------------------------------
	.byte	W72
@ 186   ----------------------------------------
	.byte	W72
@ 187   ----------------------------------------
	.byte	W72
@ 188   ----------------------------------------
	.byte	W72
@ 189   ----------------------------------------
	.byte	W72
@ 190   ----------------------------------------
	.byte	W72
@ 191   ----------------------------------------
	.byte	W72
@ 192   ----------------------------------------
	.byte	W72
@ 193   ----------------------------------------
	.byte	W72
@ 194   ----------------------------------------
	.byte	W72
@ 195   ----------------------------------------
	.byte	W72
@ 196   ----------------------------------------
	.byte	W72
@ 197   ----------------------------------------
	.byte	W72
@ 198   ----------------------------------------
	.byte	W72
@ 199   ----------------------------------------
	.byte	W72
@ 200   ----------------------------------------
	.byte	W72
@ 201   ----------------------------------------
	.byte	W72
@ 202   ----------------------------------------
	.byte	W72
@ 203   ----------------------------------------
	.byte	W72
@ 204   ----------------------------------------
	.byte	W72
@ 205   ----------------------------------------
	.byte	W72
@ 206   ----------------------------------------
	.byte	W72
@ 207   ----------------------------------------
	.byte	W72
@ 208   ----------------------------------------
	.byte	W72
@ 209   ----------------------------------------
	.byte	W72
@ 210   ----------------------------------------
	.byte	W72
@ 211   ----------------------------------------
	.byte	W72
@ 212   ----------------------------------------
	.byte	W72
@ 213   ----------------------------------------
	.byte	W72
@ 214   ----------------------------------------
	.byte	W23
	.byte	GOTO
	 .word	From_Shadows_3_B1
From_Shadows_3_B2:
	.byte	FINE

@**************** Track 4 (Midi-Chn.4) ****************@

From_Shadows_4:
	.byte	KEYSH , From_Shadows_key+0
From_Shadows_4_B1:
@ 000   ----------------------------------------
	.byte		VOICE , 31
	.byte		VOL   , 69*From_Shadows_mvl/mxv
	.byte		PAN   , c_v+0
	.byte	W96
@ 001   ----------------------------------------
	.byte	W96
@ 002   ----------------------------------------
	.byte	W96
@ 003   ----------------------------------------
	.byte	W96
@ 004   ----------------------------------------
	.byte	W96
@ 005   ----------------------------------------
	.byte	W96
@ 006   ----------------------------------------
	.byte	W96
@ 007   ----------------------------------------
	.byte	W96
@ 008   ----------------------------------------
	.byte	W96
@ 009   ----------------------------------------
	.byte	W96
@ 010   ----------------------------------------
	.byte	W96
@ 011   ----------------------------------------
	.byte	W96
@ 012   ----------------------------------------
	.byte	W96
@ 013   ----------------------------------------
	.byte	W96
@ 014   ----------------------------------------
	.byte	W96
@ 015   ----------------------------------------
	.byte	W96
@ 016   ----------------------------------------
	.byte	W96
@ 017   ----------------------------------------
	.byte	W96
@ 018   ----------------------------------------
	.byte	W96
@ 019   ----------------------------------------
	.byte	W96
@ 020   ----------------------------------------
	.byte	W96
@ 021   ----------------------------------------
	.byte	W96
@ 022   ----------------------------------------
	.byte	W96
@ 023   ----------------------------------------
	.byte	W96
@ 024   ----------------------------------------
	.byte	W96
@ 025   ----------------------------------------
	.byte	W96
@ 026   ----------------------------------------
	.byte	W96
@ 027   ----------------------------------------
	.byte	W96
@ 028   ----------------------------------------
	.byte	W96
@ 029   ----------------------------------------
	.byte	W96
@ 030   ----------------------------------------
	.byte	W96
@ 031   ----------------------------------------
	.byte	W96
@ 032   ----------------------------------------
	.byte	W96
@ 033   ----------------------------------------
	.byte	W96
@ 034   ----------------------------------------
	.byte	W96
@ 035   ----------------------------------------
	.byte	W96
@ 036   ----------------------------------------
	.byte	W96
@ 037   ----------------------------------------
	.byte	W72
@ 038   ----------------------------------------
	.byte	W96
@ 039   ----------------------------------------
	.byte	W96
@ 040   ----------------------------------------
	.byte	W96
@ 041   ----------------------------------------
	.byte	W96
@ 042   ----------------------------------------
	.byte	W96
@ 043   ----------------------------------------
	.byte	W96
@ 044   ----------------------------------------
	.byte	W96
@ 045   ----------------------------------------
	.byte	W96
@ 046   ----------------------------------------
	.byte	W96
@ 047   ----------------------------------------
	.byte	W96
@ 048   ----------------------------------------
	.byte	W96
@ 049   ----------------------------------------
	.byte	W96
@ 050   ----------------------------------------
	.byte	W96
@ 051   ----------------------------------------
	.byte	W96
@ 052   ----------------------------------------
	.byte	W96
@ 053   ----------------------------------------
	.byte	W96
@ 054   ----------------------------------------
	.byte	W96
@ 055   ----------------------------------------
	.byte	W96
@ 056   ----------------------------------------
	.byte	W96
@ 057   ----------------------------------------
	.byte	W96
@ 058   ----------------------------------------
	.byte	W84
	.byte		N23   , Dn2 , v096
	.byte		N23   , An2 
	.byte		N23   , Cn3 
	.byte		N23   , En3 
	.byte	W12
@ 059   ----------------------------------------
	.byte	W12
	.byte		N11   , Dn2 
	.byte		N11   , An2 
	.byte		N11   , Cn3 
	.byte		N11   , Fn3 
	.byte	W12
	.byte		        Dn2 
	.byte		N11   , An2 
	.byte		N11   , Cn3 
	.byte		N11   , Fn3 
	.byte	W24
	.byte		        Dn2 
	.byte		N11   , An2 
	.byte		N11   , Cn3 
	.byte		N11   , Fn3 
	.byte	W12
	.byte		        Dn2 
	.byte		N11   , An2 
	.byte		N11   , Cn3 
	.byte		N11   , Fn3 
	.byte	W24
	.byte		N23   , Dn2 
	.byte		N23   , An2 
	.byte		N23   , Cn3 
	.byte		N23   , En3 
	.byte	W12
@ 060   ----------------------------------------
	.byte	W12
	.byte		N11   , Dn2 
	.byte		N11   , An2 
	.byte		N11   , Cn3 
	.byte		N11   , Fn3 
	.byte	W12
	.byte		        Dn2 
	.byte		N11   , An2 
	.byte		N11   , Cn3 
	.byte		N11   , Fn3 
	.byte	W24
	.byte		        Dn2 
	.byte		N11   , An2 
	.byte		N11   , Cn3 
	.byte		N11   , Fn3 
	.byte	W12
	.byte		        Dn2 
	.byte		N11   , An2 
	.byte		N11   , Cn3 
	.byte		N11   , Fn3 
	.byte	W24
	.byte		N23   , Fn2 
	.byte		N23   , Cn3 
	.byte		N23   , Ds3 
	.byte		N23   , Gn3 
	.byte		N23   , Cn4 
	.byte	W12
@ 061   ----------------------------------------
From_Shadows_4_061:
	.byte	W12
	.byte		N11   , Fn2 , v096
	.byte		N11   , Cn3 
	.byte		N11   , Ds3 
	.byte		N11   , Gn3 
	.byte		N11   , Cn4 
	.byte	W12
	.byte		        Fn2 
	.byte		N11   , Cn3 
	.byte		N11   , Ds3 
	.byte		N11   , Gn3 
	.byte		N11   , Cn4 
	.byte	W24
	.byte		        Fn2 
	.byte		N11   , Cn3 
	.byte		N11   , Ds3 
	.byte		N11   , Gn3 
	.byte		N11   , Cn4 
	.byte	W12
	.byte		        Fn2 
	.byte		N11   , Cn3 
	.byte		N11   , Ds3 
	.byte		N11   , Gn3 
	.byte		N11   , Cn4 
	.byte	W24
	.byte		N23   , Fn2 
	.byte		N23   , Cn3 
	.byte		N23   , Ds3 
	.byte		N23   , Gn3 
	.byte		N23   , Cn4 
	.byte	W12
	.byte	PEND
@ 062   ----------------------------------------
From_Shadows_4_062:
	.byte	W12
	.byte		N11   , Fn2 , v096
	.byte		N11   , Cn3 
	.byte		N11   , Ds3 
	.byte		N11   , Gn3 
	.byte		N11   , Cn4 
	.byte	W12
	.byte		        Fn2 
	.byte		N11   , Cn3 
	.byte		N11   , Ds3 
	.byte		N11   , Gn3 
	.byte		N11   , Cn4 
	.byte	W24
	.byte		        Fn2 
	.byte		N11   , Cn3 
	.byte		N11   , Ds3 
	.byte		N11   , Gn3 
	.byte		N11   , Cn4 
	.byte	W12
	.byte		        Fn2 
	.byte		N11   , Cn3 
	.byte		N11   , Ds3 
	.byte		N11   , Gn3 
	.byte		N11   , Cn4 
	.byte	W24
	.byte		N23   , Cn2 
	.byte		N23   , Gn2 
	.byte		N23   , As2 
	.byte		N23   , Ds3 
	.byte		N23   , Gn3 
	.byte	W12
	.byte	PEND
@ 063   ----------------------------------------
	.byte	W12
	.byte		N11   , Cn2 
	.byte		N11   , Gn2 
	.byte		N11   , As2 
	.byte		N11   , Ds3 
	.byte		N11   , Gn3 
	.byte	W12
	.byte		        Cn2 
	.byte		N11   , Gn2 
	.byte		N11   , As2 
	.byte		N11   , Ds3 
	.byte		N11   , Gn3 
	.byte	W24
	.byte		        Cn2 
	.byte		N11   , Gn2 
	.byte		N11   , As2 
	.byte		N11   , Ds3 
	.byte		N11   , Gn3 
	.byte	W12
	.byte		        Cn2 
	.byte		N11   , Gn2 
	.byte		N11   , As2 
	.byte		N11   , Ds3 
	.byte		N11   , Gn3 
	.byte	W24
	.byte		N23   , Cn2 
	.byte		N23   , Gn2 
	.byte		N23   , As2 
	.byte		N23   , Ds3 
	.byte		N23   , Gn3 
	.byte	W12
@ 064   ----------------------------------------
	.byte	W12
	.byte		N11   , Cn2 
	.byte		N11   , Gn2 
	.byte		N11   , As2 
	.byte		N11   , Ds3 
	.byte		N11   , Gn3 
	.byte	W12
	.byte		        Cn2 
	.byte		N11   , Gn2 
	.byte		N11   , As2 
	.byte		N11   , Ds3 
	.byte		N11   , Gn3 
	.byte	W24
	.byte		        Cn2 
	.byte		N11   , Gn2 
	.byte		N11   , As2 
	.byte		N11   , Ds3 
	.byte		N11   , Gn3 
	.byte	W12
	.byte		        Cn2 
	.byte		N11   , Gn2 
	.byte		N11   , As2 
	.byte		N11   , Ds3 
	.byte		N11   , Gn3 
	.byte	W24
	.byte		N23   , Fn2 
	.byte		N23   , Cn3 
	.byte		N23   , Ds3 
	.byte		N23   , Gs3 
	.byte		N23   , Cn4 
	.byte	W12
@ 065   ----------------------------------------
From_Shadows_4_065:
	.byte	W12
	.byte		N11   , Fn2 , v096
	.byte		N11   , Cn3 
	.byte		N11   , Ds3 
	.byte		N11   , Gs3 
	.byte		N11   , Cn4 
	.byte	W12
	.byte		        Fn2 
	.byte		N11   , Cn3 
	.byte		N11   , Ds3 
	.byte		N11   , Gs3 
	.byte		N11   , Cn4 
	.byte	W24
	.byte		        Fn2 
	.byte		N11   , Cn3 
	.byte		N11   , Ds3 
	.byte		N11   , Gs3 
	.byte		N11   , Cn4 
	.byte	W12
	.byte		        Fn2 
	.byte		N11   , Cn3 
	.byte		N11   , Ds3 
	.byte		N11   , Gs3 
	.byte		N11   , Cn4 
	.byte	W24
	.byte		N23   , Gn2 
	.byte		N23   , Dn3 
	.byte		N23   , Fn3 
	.byte		N23   , As3 
	.byte		N23   , Dn4 
	.byte	W12
	.byte	PEND
@ 066   ----------------------------------------
	.byte	W12
	.byte		N11   , Gn2 
	.byte		N11   , Dn3 
	.byte		N11   , Fn3 
	.byte		N11   , As3 
	.byte		N11   , Dn4 
	.byte	W12
	.byte		        Gn2 
	.byte		N11   , Dn3 
	.byte		N11   , Fn3 
	.byte		N11   , As3 
	.byte		N11   , Dn4 
	.byte	W60
	.byte		N23   , Dn2 
	.byte		N23   , An2 
	.byte		N23   , Cn3 
	.byte		N23   , En3 
	.byte	W12
@ 067   ----------------------------------------
	.byte	W12
	.byte		N11   , Dn2 
	.byte		N11   , An2 
	.byte		N11   , Cn3 
	.byte		N11   , En3 
	.byte	W12
	.byte		        Dn2 
	.byte		N11   , An2 
	.byte		N11   , Cn3 
	.byte		N11   , En3 
	.byte	W24
	.byte		        Dn2 
	.byte		N11   , An2 
	.byte		N11   , Cn3 
	.byte		N11   , En3 
	.byte	W12
	.byte		        Dn2 
	.byte		N11   , An2 
	.byte		N11   , Cn3 
	.byte		N11   , En3 
	.byte	W24
	.byte		N23   , Dn2 
	.byte		N23   , An2 
	.byte		N23   , Cn3 
	.byte		N23   , En3 
	.byte	W12
@ 068   ----------------------------------------
	.byte	W12
	.byte		N11   , Dn2 
	.byte		N11   , An2 
	.byte		N11   , Cn3 
	.byte		N11   , En3 
	.byte	W12
	.byte		        Dn2 
	.byte		N11   , An2 
	.byte		N11   , Cn3 
	.byte		N11   , En3 
	.byte	W24
	.byte		        Dn2 
	.byte		N11   , An2 
	.byte		N11   , Cn3 
	.byte		N11   , En3 
	.byte	W12
	.byte		        Dn2 
	.byte		N11   , An2 
	.byte		N11   , Cn3 
	.byte		N11   , En3 
	.byte	W24
	.byte		N23   , Fn2 
	.byte		N23   , Cn3 
	.byte		N23   , Ds3 
	.byte		N23   , Gn3 
	.byte		N23   , Cn4 
	.byte	W12
@ 069   ----------------------------------------
	.byte	PATT
	 .word	From_Shadows_4_061
@ 070   ----------------------------------------
	.byte	PATT
	 .word	From_Shadows_4_062
@ 071   ----------------------------------------
From_Shadows_4_071:
	.byte	W12
	.byte		N11   , Cn2 , v096
	.byte		N11   , Gn2 
	.byte		N11   , As2 
	.byte		N11   , Ds3 
	.byte		N11   , Gn3 
	.byte	W12
	.byte		        Cn2 
	.byte		N11   , Gn2 
	.byte		N11   , As2 
	.byte		N11   , Ds3 
	.byte		N11   , Gn3 
	.byte	W24
	.byte		        Cn2 
	.byte		N11   , Gn2 
	.byte		N11   , As2 
	.byte		N11   , Ds3 
	.byte		N11   , Gn3 
	.byte	W12
	.byte		        Cn2 
	.byte		N11   , Gn2 
	.byte		N11   , As2 
	.byte		N11   , Ds3 
	.byte		N11   , Gn3 
	.byte	W24
	.byte		        Cn2 
	.byte		N11   , Gn2 
	.byte		N11   , As2 
	.byte		N11   , Ds3 
	.byte		N11   , Gn3 
	.byte	W12
	.byte	PEND
@ 072   ----------------------------------------
From_Shadows_4_072:
	.byte		N11   , Cn2 , v096
	.byte		N11   , Gn2 
	.byte		N11   , As2 
	.byte		N11   , Ds3 
	.byte		N11   , Gn3 
	.byte	W12
	.byte		        Cn2 
	.byte		N11   , Gn2 
	.byte		N11   , As2 
	.byte		N11   , Ds3 
	.byte		N11   , Gn3 
	.byte	W12
	.byte		        Cn2 
	.byte		N11   , Gn2 
	.byte		N11   , As2 
	.byte		N11   , Ds3 
	.byte		N11   , Gn3 
	.byte	W24
	.byte		        Cn2 
	.byte		N11   , Gn2 
	.byte		N11   , As2 
	.byte		N11   , Ds3 
	.byte		N11   , Gn3 
	.byte	W12
	.byte		        Cn2 
	.byte		N11   , Gn2 
	.byte		N11   , As2 
	.byte		N11   , Ds3 
	.byte		N11   , Gn3 
	.byte	W24
	.byte		N23   , Fn2 
	.byte		N23   , Cn3 
	.byte		N23   , Ds3 
	.byte		N23   , Gs3 
	.byte		N23   , Cn4 
	.byte	W12
	.byte	PEND
@ 073   ----------------------------------------
	.byte	PATT
	 .word	From_Shadows_4_065
@ 074   ----------------------------------------
	.byte	W12
	.byte		N11   , Gn2 , v096
	.byte		N11   , Dn3 
	.byte		N11   , Fn3 
	.byte		N11   , As3 
	.byte		N11   , Dn4 
	.byte	W12
	.byte		        Gn2 
	.byte		N11   , Dn3 
	.byte		N11   , Fn3 
	.byte		N11   , As3 
	.byte		N11   , Dn4 
	.byte	W24
	.byte		        Gn2 
	.byte		N11   , Dn3 
	.byte		N11   , Fn3 
	.byte		N11   , As3 
	.byte		N11   , Dn4 
	.byte	W12
	.byte		        Gn2 
	.byte		N11   , Dn3 
	.byte		N11   , Fn3 
	.byte		N11   , As3 
	.byte		N11   , Dn4 
	.byte	W24
	.byte		N23   , Dn2 
	.byte		N23   , An2 
	.byte		N23   , Cn3 
	.byte		N23   , Fn3 
	.byte		N23   , An3 
	.byte	W12
@ 075   ----------------------------------------
	.byte	W12
	.byte		N11   , Dn2 
	.byte		N11   , An2 
	.byte		N11   , Cn3 
	.byte		N11   , Fn3 
	.byte		N11   , An3 
	.byte	W12
	.byte		        Dn2 
	.byte		N11   , An2 
	.byte		N11   , Cn3 
	.byte		N11   , Fn3 
	.byte		N11   , An3 
	.byte	W24
	.byte		        Dn2 
	.byte		N11   , An2 
	.byte		N11   , Cn3 
	.byte		N11   , Fn3 
	.byte		N11   , An3 
	.byte	W12
	.byte		        Dn2 
	.byte		N11   , An2 
	.byte		N11   , Cn3 
	.byte		N11   , Fn3 
	.byte		N11   , An3 
	.byte	W24
	.byte		N23   , Dn2 
	.byte		N23   , An2 
	.byte		N23   , Cn3 
	.byte		N23   , Fn3 
	.byte		N23   , An3 
	.byte	W12
@ 076   ----------------------------------------
	.byte	W12
	.byte		N11   , Dn2 
	.byte		N11   , An2 
	.byte		N11   , Cn3 
	.byte		N11   , Fn3 
	.byte		N11   , An3 
	.byte	W12
	.byte		        Dn2 
	.byte		N11   , An2 
	.byte		N11   , Cn3 
	.byte		N11   , Fn3 
	.byte		N11   , An3 
	.byte	W24
	.byte		        Dn2 
	.byte		N11   , An2 
	.byte		N11   , Cn3 
	.byte		N11   , Fn3 
	.byte		N11   , An3 
	.byte	W12
	.byte		        Dn2 
	.byte		N11   , An2 
	.byte		N11   , Cn3 
	.byte		N11   , Fn3 
	.byte		N11   , An3 
	.byte	W24
	.byte		N23   , Fn2 
	.byte		N23   , Cn3 
	.byte		N23   , Ds3 
	.byte		N23   , Gn3 
	.byte		N23   , Cn4 
	.byte	W12
@ 077   ----------------------------------------
	.byte	PATT
	 .word	From_Shadows_4_061
@ 078   ----------------------------------------
	.byte	PATT
	 .word	From_Shadows_4_062
@ 079   ----------------------------------------
	.byte	PATT
	 .word	From_Shadows_4_071
@ 080   ----------------------------------------
	.byte	PATT
	 .word	From_Shadows_4_072
@ 081   ----------------------------------------
	.byte	PATT
	 .word	From_Shadows_4_065
@ 082   ----------------------------------------
	.byte	W12
	.byte		N11   , Gn2 , v096
	.byte		N11   , Dn3 
	.byte		N11   , Fn3 
	.byte		N11   , As3 
	.byte		N11   , Dn4 
	.byte	W12
	.byte		        Gn2 
	.byte		N11   , Dn3 
	.byte		N11   , Fn3 
	.byte		N11   , As3 
	.byte		N11   , Dn4 
	.byte	W24
	.byte		        Gn2 
	.byte		N11   , Dn3 
	.byte		N11   , Fn3 
	.byte		N11   , As3 
	.byte		N11   , Dn4 
	.byte	W12
	.byte		        Gn2 
	.byte		N11   , Dn3 
	.byte		N11   , Fn3 
	.byte		N11   , As3 
	.byte		N11   , Dn4 
	.byte	W24
	.byte		N23   , Gs1 
	.byte		N23   , Ds2 
	.byte	W12
@ 083   ----------------------------------------
From_Shadows_4_083:
	.byte	W12
	.byte		N11   , Gs1 , v096
	.byte		N11   , Ds2 
	.byte	W12
	.byte		        Gs1 
	.byte		N11   , Ds2 
	.byte	W12
	.byte		        Gs1 
	.byte		N11   , Ds2 
	.byte	W12
	.byte		        Gs1 
	.byte		N11   , Ds2 
	.byte	W12
	.byte		        Gs1 
	.byte		N11   , Ds2 
	.byte	W12
	.byte		        Gs1 
	.byte		N11   , Ds2 
	.byte	W12
	.byte		        Gs1 
	.byte		N11   , Ds2 
	.byte	W12
	.byte	PEND
@ 084   ----------------------------------------
From_Shadows_4_084:
	.byte		N11   , Gs1 , v096
	.byte		N11   , Ds2 
	.byte	W12
	.byte		        Gs1 
	.byte		N11   , Ds2 
	.byte	W12
	.byte		        Gs1 
	.byte		N11   , Ds2 
	.byte	W12
	.byte		        Gs1 
	.byte		N11   , Ds2 
	.byte	W12
	.byte		        Gs1 
	.byte		N11   , Ds2 
	.byte	W12
	.byte		        Gs1 
	.byte		N11   , Ds2 
	.byte	W12
	.byte		        Gs1 
	.byte		N11   , Ds2 
	.byte	W12
	.byte		N23   , As1 
	.byte		N23   , Fn2 
	.byte	W12
	.byte	PEND
@ 085   ----------------------------------------
From_Shadows_4_085:
	.byte	W12
	.byte		N11   , As1 , v096
	.byte		N11   , Fn2 
	.byte	W12
	.byte		        As1 
	.byte		N11   , Fn2 
	.byte	W12
	.byte		        As1 
	.byte		N11   , Fn2 
	.byte	W12
	.byte		        As1 
	.byte		N11   , Fn2 
	.byte	W12
	.byte		        As1 
	.byte		N11   , Fn2 
	.byte	W12
	.byte		        As1 
	.byte		N11   , Fn2 
	.byte	W12
	.byte		        As1 
	.byte		N11   , Fn2 
	.byte	W12
	.byte	PEND
@ 086   ----------------------------------------
	.byte		        As1 
	.byte		N11   , Fn2 
	.byte	W12
	.byte		        As1 
	.byte		N11   , Fn2 
	.byte	W12
	.byte		        As1 
	.byte		N11   , Fn2 
	.byte	W12
	.byte		        As1 
	.byte		N11   , Fn2 
	.byte	W12
	.byte		        As1 
	.byte		N11   , Fn2 
	.byte	W12
	.byte		        As1 
	.byte		N11   , Fn2 
	.byte	W12
	.byte		        As1 
	.byte		N11   , Fn2 
	.byte	W12
	.byte		N23   , Gs1 
	.byte		N23   , Ds2 
	.byte	W12
@ 087   ----------------------------------------
	.byte	PATT
	 .word	From_Shadows_4_083
@ 088   ----------------------------------------
	.byte		N11   , Gs1 , v096
	.byte		N11   , Ds2 
	.byte	W12
	.byte		        Gs1 
	.byte		N11   , Ds2 
	.byte	W12
	.byte		        Gs1 
	.byte		N11   , Ds2 
	.byte	W12
	.byte		        Gs1 
	.byte		N11   , Ds2 
	.byte	W12
	.byte		        Gs1 
	.byte		N11   , Ds2 
	.byte	W12
	.byte		        Gs1 
	.byte		N11   , Ds2 
	.byte	W12
	.byte		        Gs1 
	.byte		N11   , Ds2 
	.byte	W12
	.byte		        As1 
	.byte		N11   , Fn2 
	.byte	W12
@ 089   ----------------------------------------
	.byte		        As1 
	.byte		N11   , Fn2 
	.byte	W12
	.byte		        As1 
	.byte		N11   , Fn2 
	.byte	W12
	.byte		        As1 
	.byte		N11   , Fn2 
	.byte	W12
	.byte		        As1 
	.byte		N11   , Fn2 
	.byte	W12
	.byte		        As1 
	.byte		N11   , Fn2 
	.byte	W12
	.byte		        As1 
	.byte		N11   , Fn2 
	.byte	W12
	.byte		        As1 
	.byte		N11   , Fn2 
	.byte	W12
	.byte		        As1 
	.byte		N11   , Fn2 
	.byte	W12
@ 090   ----------------------------------------
	.byte		        As1 
	.byte		N11   , Fn2 
	.byte	W12
	.byte		        As1 
	.byte		N11   , Fn2 
	.byte	W12
	.byte		        As1 
	.byte		N11   , Fn2 
	.byte	W12
	.byte		        As1 
	.byte		N11   , Fn2 
	.byte	W12
	.byte		        As1 
	.byte		N11   , Fn2 
	.byte	W12
	.byte		        As1 
	.byte		N11   , Fn2 
	.byte	W12
	.byte		        As1 
	.byte		N11   , Fn2 
	.byte	W12
	.byte		N23   , Dn1 
	.byte		N23   , An1 
	.byte	W12
@ 091   ----------------------------------------
From_Shadows_4_091:
	.byte	W12
	.byte		N11   , Dn1 , v096
	.byte		N11   , An1 
	.byte	W12
	.byte		        Dn1 
	.byte		N11   , An1 
	.byte	W12
	.byte		        Dn1 
	.byte		N11   , An1 
	.byte	W12
	.byte		        Dn1 
	.byte		N11   , An1 
	.byte	W12
	.byte		        Dn1 
	.byte		N11   , An1 
	.byte	W12
	.byte		        Dn1 
	.byte		N11   , An1 
	.byte	W12
	.byte		        Dn1 
	.byte		N11   , An1 
	.byte	W12
	.byte	PEND
@ 092   ----------------------------------------
From_Shadows_4_092:
	.byte		N11   , Dn1 , v096
	.byte		N11   , An1 
	.byte	W12
	.byte		        Dn1 
	.byte		N11   , An1 
	.byte	W12
	.byte		        Dn1 
	.byte		N11   , An1 
	.byte	W12
	.byte		        Dn1 
	.byte		N11   , An1 
	.byte	W12
	.byte		        Dn1 
	.byte		N11   , An1 
	.byte	W12
	.byte		        Dn1 
	.byte		N11   , An1 
	.byte	W12
	.byte		        Dn1 
	.byte		N11   , An1 
	.byte	W12
	.byte		        En1 
	.byte		N11   , Bn1 
	.byte	W12
	.byte	PEND
@ 093   ----------------------------------------
From_Shadows_4_093:
	.byte		N11   , En1 , v096
	.byte		N11   , Bn1 
	.byte	W12
	.byte		        En1 
	.byte		N11   , Bn1 
	.byte	W12
	.byte		        En1 
	.byte		N11   , Bn1 
	.byte	W12
	.byte		        En1 
	.byte		N11   , Bn1 
	.byte	W12
	.byte		        En1 
	.byte		N11   , Bn1 
	.byte	W12
	.byte		        En1 
	.byte		N11   , Bn1 
	.byte	W12
	.byte		        En1 
	.byte		N11   , Bn1 
	.byte	W12
	.byte		        En1 
	.byte		N11   , Bn1 
	.byte	W12
	.byte	PEND
@ 094   ----------------------------------------
	.byte		        En1 
	.byte		N11   , Bn1 
	.byte	W12
	.byte		        En1 
	.byte		N11   , Bn1 
	.byte	W12
	.byte		        En1 
	.byte		N11   , Bn1 
	.byte	W12
	.byte		        En1 
	.byte		N11   , Bn1 
	.byte	W12
	.byte		        En1 
	.byte		N11   , Bn1 
	.byte	W12
	.byte		        En1 
	.byte		N11   , Bn1 
	.byte	W12
	.byte		        En1 
	.byte		N11   , Bn1 
	.byte	W12
	.byte		N23   , Dn1 
	.byte		N23   , An1 
	.byte	W12
@ 095   ----------------------------------------
	.byte	PATT
	 .word	From_Shadows_4_091
@ 096   ----------------------------------------
	.byte	PATT
	 .word	From_Shadows_4_092
@ 097   ----------------------------------------
	.byte	PATT
	 .word	From_Shadows_4_093
@ 098   ----------------------------------------
	.byte		N11   , En1 , v096
	.byte		N11   , Bn1 
	.byte	W12
	.byte		        En1 
	.byte		N11   , Bn1 
	.byte	W12
	.byte		        En1 
	.byte		N11   , Bn1 
	.byte	W12
	.byte		        En1 
	.byte		N11   , Bn1 
	.byte	W12
	.byte		        En1 
	.byte		N11   , Bn1 
	.byte	W12
	.byte		        En1 
	.byte		N11   , Bn1 
	.byte	W12
	.byte		        En1 
	.byte		N11   , Bn1 
	.byte	W12
	.byte		        Dn1 
	.byte		N11   , An1 
	.byte	W12
@ 099   ----------------------------------------
From_Shadows_4_099:
	.byte		N11   , Cn2 , v096
	.byte	W12
	.byte		        Dn2 
	.byte	W12
	.byte		        Dn1 
	.byte	W12
	.byte		        Cn2 
	.byte	W12
	.byte		        Dn2 
	.byte	W12
	.byte		        Dn1 
	.byte	W12
	.byte		        Cn2 
	.byte	W12
	.byte		        Dn2 
	.byte	W12
	.byte	PEND
@ 100   ----------------------------------------
From_Shadows_4_100:
	.byte		N11   , Dn1 , v096
	.byte	W12
	.byte		        Cn2 
	.byte	W12
	.byte		        Dn2 
	.byte	W12
	.byte		        Dn1 
	.byte	W12
	.byte		        Cn2 
	.byte	W12
	.byte		        Dn2 
	.byte	W12
	.byte		        Dn1 
	.byte	W12
	.byte		N11   
	.byte	W12
	.byte	PEND
@ 101   ----------------------------------------
	.byte	PATT
	 .word	From_Shadows_4_099
@ 102   ----------------------------------------
	.byte		N80   , Cn2 , v096
	.byte	W84
	.byte		N11   , Dn1 
	.byte	W12
@ 103   ----------------------------------------
	.byte	PATT
	 .word	From_Shadows_4_099
@ 104   ----------------------------------------
	.byte	PATT
	 .word	From_Shadows_4_100
@ 105   ----------------------------------------
	.byte	PATT
	 .word	From_Shadows_4_099
@ 106   ----------------------------------------
	.byte		N11   , Dn1 , v096
	.byte	W12
	.byte		N05   
	.byte	W06
	.byte		N05   
	.byte	W06
	.byte		N05   
	.byte	W06
	.byte		N05   
	.byte	W06
	.byte		N05   
	.byte	W60
@ 107   ----------------------------------------
	.byte	PATT
	 .word	From_Shadows_4_099
@ 108   ----------------------------------------
	.byte	PATT
	 .word	From_Shadows_4_100
@ 109   ----------------------------------------
	.byte	PATT
	 .word	From_Shadows_4_099
@ 110   ----------------------------------------
	.byte		N11   , Dn1 , v096
	.byte	W12
	.byte		N11   
	.byte	W12
	.byte		N11   
	.byte	W12
	.byte		N11   
	.byte	W12
	.byte		N11   
	.byte	W12
	.byte		N11   
	.byte	W12
	.byte		N11   
	.byte	W12
	.byte		N11   
	.byte	W12
@ 111   ----------------------------------------
	.byte	PATT
	 .word	From_Shadows_4_099
@ 112   ----------------------------------------
	.byte	PATT
	 .word	From_Shadows_4_100
@ 113   ----------------------------------------
	.byte	PATT
	 .word	From_Shadows_4_099
@ 114   ----------------------------------------
	.byte	W96
@ 115   ----------------------------------------
	.byte	W96
@ 116   ----------------------------------------
	.byte	W96
@ 117   ----------------------------------------
	.byte	W96
@ 118   ----------------------------------------
	.byte	W96
@ 119   ----------------------------------------
	.byte	W96
@ 120   ----------------------------------------
	.byte	W96
@ 121   ----------------------------------------
	.byte	W96
@ 122   ----------------------------------------
	.byte	W96
@ 123   ----------------------------------------
	.byte	W96
@ 124   ----------------------------------------
	.byte	W96
@ 125   ----------------------------------------
	.byte	W96
@ 126   ----------------------------------------
	.byte	W96
@ 127   ----------------------------------------
	.byte	W96
@ 128   ----------------------------------------
	.byte	W96
@ 129   ----------------------------------------
	.byte	W96
@ 130   ----------------------------------------
	.byte	W96
@ 131   ----------------------------------------
	.byte	W96
@ 132   ----------------------------------------
	.byte	W96
@ 133   ----------------------------------------
	.byte	W96
@ 134   ----------------------------------------
	.byte	W96
@ 135   ----------------------------------------
	.byte	W96
@ 136   ----------------------------------------
	.byte	W96
@ 137   ----------------------------------------
	.byte	W96
@ 138   ----------------------------------------
	.byte	W96
@ 139   ----------------------------------------
	.byte	W96
@ 140   ----------------------------------------
	.byte	W96
@ 141   ----------------------------------------
	.byte	W96
@ 142   ----------------------------------------
	.byte	W96
@ 143   ----------------------------------------
	.byte	W96
@ 144   ----------------------------------------
	.byte	W96
@ 145   ----------------------------------------
	.byte	W96
@ 146   ----------------------------------------
	.byte	W84
	.byte		N23   , Dn2 , v096
	.byte		N23   , An2 
	.byte	W12
@ 147   ----------------------------------------
From_Shadows_4_147:
	.byte	W12
	.byte		N11   , Dn2 , v096
	.byte		N11   , An2 
	.byte	W12
	.byte		        Dn2 
	.byte		N11   , An2 
	.byte	W12
	.byte		        Dn2 
	.byte		N11   , An2 
	.byte	W12
	.byte		        Dn2 
	.byte		N11   , An2 
	.byte	W12
	.byte		        Dn2 
	.byte		N11   , An2 
	.byte	W12
	.byte		        Dn2 
	.byte		N11   , An2 
	.byte	W12
	.byte		        Dn2 
	.byte		N11   , An2 
	.byte	W12
	.byte	PEND
@ 148   ----------------------------------------
From_Shadows_4_148:
	.byte		N11   , Dn2 , v096
	.byte		N11   , An2 
	.byte	W12
	.byte		        Dn2 
	.byte		N11   , An2 
	.byte	W12
	.byte		        Dn2 
	.byte		N11   , An2 
	.byte	W12
	.byte		        Dn2 
	.byte		N11   , An2 
	.byte	W12
	.byte		        Dn2 
	.byte		N11   , An2 
	.byte	W12
	.byte		        Dn2 
	.byte		N11   , An2 
	.byte	W12
	.byte		        Dn2 
	.byte		N11   , An2 
	.byte	W12
	.byte		N23   , Fn2 
	.byte		N23   , Cn3 
	.byte	W12
	.byte	PEND
@ 149   ----------------------------------------
From_Shadows_4_149:
	.byte	W12
	.byte		N11   , Fn2 , v096
	.byte		N11   , Cn3 
	.byte	W12
	.byte		        Fn2 
	.byte		N11   , Cn3 
	.byte	W12
	.byte		        Fn2 
	.byte		N11   , Cn3 
	.byte	W12
	.byte		        Fn2 
	.byte		N11   , Cn3 
	.byte	W12
	.byte		        Fn2 
	.byte		N11   , Cn3 
	.byte	W12
	.byte		        Fn2 
	.byte		N11   , Cn3 
	.byte	W12
	.byte		        Fn2 
	.byte		N11   , Cn3 
	.byte	W12
	.byte	PEND
@ 150   ----------------------------------------
From_Shadows_4_150:
	.byte		N11   , Fn2 , v096
	.byte		N11   , Cn3 
	.byte	W12
	.byte		        Fn2 
	.byte		N11   , Cn3 
	.byte	W12
	.byte		        Fn2 
	.byte		N11   , Cn3 
	.byte	W12
	.byte		        Fn2 
	.byte		N11   , Cn3 
	.byte	W12
	.byte		        Fn2 
	.byte		N11   , Cn3 
	.byte	W12
	.byte		        Fn2 
	.byte		N11   , Cn3 
	.byte	W12
	.byte		        Fn2 
	.byte		N11   , Cn3 
	.byte	W12
	.byte		N23   , Cn2 
	.byte		N23   , Gn2 
	.byte	W12
	.byte	PEND
@ 151   ----------------------------------------
From_Shadows_4_151:
	.byte	W12
	.byte		N11   , Cn2 , v096
	.byte		N11   , Gn2 
	.byte	W12
	.byte		        Cn2 
	.byte		N11   , Gn2 
	.byte	W12
	.byte		        Cn2 
	.byte		N11   , Gn2 
	.byte	W12
	.byte		        Cn2 
	.byte		N11   , Gn2 
	.byte	W12
	.byte		        Cn2 
	.byte		N11   , Gn2 
	.byte	W12
	.byte		        Cn2 
	.byte		N11   , Gn2 
	.byte	W12
	.byte		        Cn2 
	.byte		N11   , Gn2 
	.byte	W12
	.byte	PEND
@ 152   ----------------------------------------
From_Shadows_4_152:
	.byte		N11   , Cn2 , v096
	.byte		N11   , Gn2 
	.byte	W12
	.byte		        Cn2 
	.byte		N11   , Gn2 
	.byte	W12
	.byte		        Cn2 
	.byte		N11   , Gn2 
	.byte	W12
	.byte		        Cn2 
	.byte		N11   , Gn2 
	.byte	W12
	.byte		        Cn2 
	.byte		N11   , Gn2 
	.byte	W12
	.byte		        Cn2 
	.byte		N11   , Gn2 
	.byte	W12
	.byte		        Cn2 
	.byte		N11   , Gn2 
	.byte	W12
	.byte		N23   , Fn2 
	.byte		N23   , Cn3 
	.byte	W12
	.byte	PEND
@ 153   ----------------------------------------
From_Shadows_4_153:
	.byte	W12
	.byte		N11   , Fn2 , v096
	.byte		N11   , Cn3 
	.byte	W12
	.byte		        Fn2 
	.byte		N11   , Cn3 
	.byte	W12
	.byte		        Fn2 
	.byte		N11   , Cn3 
	.byte	W12
	.byte		        Fn2 
	.byte		N11   , Cn3 
	.byte	W12
	.byte		        Fn2 
	.byte		N11   , Cn3 
	.byte	W12
	.byte		        Fn2 
	.byte		N11   , Cn3 
	.byte	W12
	.byte		N23   , Gn2 
	.byte		N23   , Dn3 
	.byte	W12
	.byte	PEND
@ 154   ----------------------------------------
	.byte	W12
	.byte		N11   , Gn2 
	.byte		N11   , Dn3 
	.byte	W12
	.byte		        Gn2 
	.byte		N11   , Dn3 
	.byte	W12
	.byte		        Gn2 
	.byte		N11   , Dn3 
	.byte	W12
	.byte		        Gn2 
	.byte		N11   , Dn3 
	.byte	W12
	.byte		        Gn2 
	.byte		N11   , Dn3 
	.byte	W12
	.byte		        Gn2 
	.byte		N11   , Dn3 
	.byte	W12
	.byte		N23   , Dn2 
	.byte		N23   , An2 
	.byte	W12
@ 155   ----------------------------------------
	.byte	PATT
	 .word	From_Shadows_4_147
@ 156   ----------------------------------------
	.byte	PATT
	 .word	From_Shadows_4_148
@ 157   ----------------------------------------
	.byte	PATT
	 .word	From_Shadows_4_149
@ 158   ----------------------------------------
	.byte	PATT
	 .word	From_Shadows_4_150
@ 159   ----------------------------------------
	.byte	PATT
	 .word	From_Shadows_4_151
@ 160   ----------------------------------------
	.byte	PATT
	 .word	From_Shadows_4_152
@ 161   ----------------------------------------
	.byte	PATT
	 .word	From_Shadows_4_153
@ 162   ----------------------------------------
	.byte	W12
	.byte		N11   , Gn2 , v096
	.byte		N11   , Dn3 
	.byte	W12
	.byte		        Gn2 
	.byte		N11   , Dn3 
	.byte	W12
	.byte		        Gn2 
	.byte		N11   , Dn3 
	.byte	W12
	.byte		        Gn2 
	.byte		N11   , Dn3 
	.byte	W12
	.byte		        Gn2 
	.byte		N11   , Dn3 
	.byte	W12
	.byte		        Gn2 
	.byte		N11   , Dn3 
	.byte	W12
	.byte		N23   , Gs1 
	.byte		N23   , Ds2 
	.byte	W12
@ 163   ----------------------------------------
	.byte	PATT
	 .word	From_Shadows_4_083
@ 164   ----------------------------------------
	.byte	PATT
	 .word	From_Shadows_4_084
@ 165   ----------------------------------------
	.byte	PATT
	 .word	From_Shadows_4_085
@ 166   ----------------------------------------
	.byte		N11   , As1 , v096
	.byte		N11   , Fn2 
	.byte	W12
	.byte		        As1 
	.byte		N11   , Fn2 
	.byte	W12
	.byte		        As1 
	.byte		N11   , Fn2 
	.byte	W12
	.byte		        As1 
	.byte		N11   , Fn2 
	.byte	W12
	.byte		        As1 
	.byte		N11   , Fn2 
	.byte	W12
	.byte		        As1 
	.byte		N11   , Fn2 
	.byte	W12
	.byte		        As1 
	.byte		N11   , Fn2 
	.byte	W12
	.byte		        Gs1 
	.byte		N11   , Ds2 
	.byte	W12
@ 167   ----------------------------------------
	.byte		        Gs1 
	.byte		N11   , Ds2 
	.byte	W12
	.byte		        Gs1 
	.byte		N11   , Ds2 
	.byte	W12
	.byte		        Gs1 
	.byte		N11   , Ds2 
	.byte	W12
	.byte		        Gs1 
	.byte		N11   , Ds2 
	.byte	W12
	.byte		        Gs1 
	.byte		N11   , Ds2 
	.byte	W12
	.byte		        Gs1 
	.byte		N11   , Ds2 
	.byte	W12
	.byte		        Gs1 
	.byte		N11   , Ds2 
	.byte	W12
	.byte		N23   , Gs1 
	.byte		N23   , Ds2 
	.byte	W12
@ 168   ----------------------------------------
	.byte	W12
	.byte		N11   , Gs1 
	.byte		N11   , Ds2 
	.byte	W12
	.byte		        Gs1 
	.byte		N11   , Ds2 
	.byte	W12
	.byte		        Gs1 
	.byte		N11   , Ds2 
	.byte	W12
	.byte		        Gs1 
	.byte		N11   , Ds2 
	.byte	W12
	.byte		        Gs1 
	.byte		N11   , Ds2 
	.byte	W12
	.byte		        Gs1 
	.byte		N11   , Ds2 
	.byte	W12
	.byte		N23   , As1 
	.byte		N23   , Fn2 
	.byte	W12
@ 169   ----------------------------------------
	.byte	PATT
	 .word	From_Shadows_4_085
@ 170   ----------------------------------------
	.byte		N11   , As1 , v096
	.byte		N11   , Fn2 
	.byte	W12
	.byte		        As1 
	.byte		N11   , Fn2 
	.byte	W12
	.byte		        As1 
	.byte		N11   , Fn2 
	.byte	W12
	.byte		        As1 
	.byte		N11   , Fn2 
	.byte	W12
	.byte		        As1 
	.byte		N11   , Fn2 
	.byte	W12
	.byte		        As1 
	.byte		N11   , Fn2 
	.byte	W12
	.byte		        As1 
	.byte		N11   , Fn2 
	.byte	W12
	.byte		TIE   , Dn1 
	.byte		TIE   , An1 
	.byte	W12
@ 171   ----------------------------------------
	.byte	W92
	.byte	W03
	.byte		EOT   , Dn1 
	.byte		        An1 
	.byte	W01
@ 172   ----------------------------------------
	.byte	W96
@ 173   ----------------------------------------
	.byte	W72
@ 174   ----------------------------------------
	.byte	W72
@ 175   ----------------------------------------
	.byte	W72
@ 176   ----------------------------------------
	.byte	W72
@ 177   ----------------------------------------
	.byte	W72
@ 178   ----------------------------------------
	.byte	W72
@ 179   ----------------------------------------
	.byte	W72
@ 180   ----------------------------------------
	.byte	W72
@ 181   ----------------------------------------
	.byte	W72
@ 182   ----------------------------------------
	.byte	W72
@ 183   ----------------------------------------
	.byte	W72
@ 184   ----------------------------------------
	.byte	W72
@ 185   ----------------------------------------
	.byte	W72
@ 186   ----------------------------------------
	.byte	W72
@ 187   ----------------------------------------
	.byte	W72
@ 188   ----------------------------------------
	.byte	W72
@ 189   ----------------------------------------
	.byte	W72
@ 190   ----------------------------------------
	.byte	W72
@ 191   ----------------------------------------
	.byte	W72
@ 192   ----------------------------------------
	.byte	W72
@ 193   ----------------------------------------
	.byte	W72
@ 194   ----------------------------------------
	.byte	W72
@ 195   ----------------------------------------
	.byte	W72
@ 196   ----------------------------------------
	.byte	W72
@ 197   ----------------------------------------
	.byte	W72
@ 198   ----------------------------------------
	.byte	W72
@ 199   ----------------------------------------
	.byte	W72
@ 200   ----------------------------------------
	.byte	W72
@ 201   ----------------------------------------
	.byte	W72
@ 202   ----------------------------------------
	.byte	W72
@ 203   ----------------------------------------
	.byte	W72
@ 204   ----------------------------------------
	.byte	W72
@ 205   ----------------------------------------
	.byte	W72
@ 206   ----------------------------------------
	.byte	W72
@ 207   ----------------------------------------
	.byte	W72
@ 208   ----------------------------------------
	.byte	W72
@ 209   ----------------------------------------
	.byte	W72
@ 210   ----------------------------------------
	.byte	W72
@ 211   ----------------------------------------
	.byte	W72
@ 212   ----------------------------------------
	.byte	W72
@ 213   ----------------------------------------
	.byte	W72
@ 214   ----------------------------------------
	.byte	W23
	.byte	GOTO
	 .word	From_Shadows_4_B1
From_Shadows_4_B2:
	.byte	FINE

@**************** Track 5 (Midi-Chn.5) ****************@

From_Shadows_5:
	.byte	KEYSH , From_Shadows_key+0
From_Shadows_5_B1:
@ 000   ----------------------------------------
	.byte		VOICE , 30
	.byte		VOL   , 100*From_Shadows_mvl/mxv
	.byte		PAN   , c_v+0
	.byte	W96
@ 001   ----------------------------------------
	.byte	W96
@ 002   ----------------------------------------
	.byte	W96
@ 003   ----------------------------------------
	.byte	W96
@ 004   ----------------------------------------
	.byte	W96
@ 005   ----------------------------------------
	.byte	W96
@ 006   ----------------------------------------
	.byte	W96
@ 007   ----------------------------------------
	.byte	W96
@ 008   ----------------------------------------
	.byte	W96
@ 009   ----------------------------------------
	.byte	W96
@ 010   ----------------------------------------
	.byte	W96
@ 011   ----------------------------------------
	.byte	W96
@ 012   ----------------------------------------
	.byte	W96
@ 013   ----------------------------------------
	.byte	W96
@ 014   ----------------------------------------
	.byte	W96
@ 015   ----------------------------------------
	.byte	W96
@ 016   ----------------------------------------
	.byte	W96
@ 017   ----------------------------------------
	.byte	W96
@ 018   ----------------------------------------
	.byte	W96
@ 019   ----------------------------------------
	.byte	W96
@ 020   ----------------------------------------
	.byte	W96
@ 021   ----------------------------------------
	.byte	W96
@ 022   ----------------------------------------
	.byte	W96
@ 023   ----------------------------------------
	.byte	W96
@ 024   ----------------------------------------
	.byte	W96
@ 025   ----------------------------------------
	.byte	W96
@ 026   ----------------------------------------
	.byte	W96
@ 027   ----------------------------------------
	.byte	W96
@ 028   ----------------------------------------
	.byte	W96
@ 029   ----------------------------------------
	.byte	W96
@ 030   ----------------------------------------
	.byte	W96
@ 031   ----------------------------------------
	.byte	W96
@ 032   ----------------------------------------
	.byte	W96
@ 033   ----------------------------------------
	.byte	W96
@ 034   ----------------------------------------
	.byte	W96
@ 035   ----------------------------------------
	.byte	W96
@ 036   ----------------------------------------
	.byte	W96
@ 037   ----------------------------------------
	.byte	W72
@ 038   ----------------------------------------
	.byte	W96
@ 039   ----------------------------------------
	.byte	W96
@ 040   ----------------------------------------
	.byte	W96
@ 041   ----------------------------------------
	.byte	W96
@ 042   ----------------------------------------
	.byte	W96
@ 043   ----------------------------------------
	.byte	W96
@ 044   ----------------------------------------
	.byte	W96
@ 045   ----------------------------------------
	.byte	W96
@ 046   ----------------------------------------
	.byte	W96
@ 047   ----------------------------------------
	.byte	W96
@ 048   ----------------------------------------
	.byte	W96
@ 049   ----------------------------------------
	.byte	W96
@ 050   ----------------------------------------
	.byte	W96
@ 051   ----------------------------------------
	.byte	W96
@ 052   ----------------------------------------
	.byte	W96
@ 053   ----------------------------------------
	.byte	W96
@ 054   ----------------------------------------
	.byte	W96
@ 055   ----------------------------------------
	.byte	W96
@ 056   ----------------------------------------
	.byte	W96
@ 057   ----------------------------------------
	.byte	W96
@ 058   ----------------------------------------
	.byte	W96
@ 059   ----------------------------------------
	.byte	W96
@ 060   ----------------------------------------
	.byte	W96
@ 061   ----------------------------------------
	.byte	W96
@ 062   ----------------------------------------
	.byte	W96
@ 063   ----------------------------------------
	.byte	W96
@ 064   ----------------------------------------
	.byte	W96
@ 065   ----------------------------------------
	.byte	W96
@ 066   ----------------------------------------
	.byte	W96
@ 067   ----------------------------------------
	.byte	W96
@ 068   ----------------------------------------
	.byte	W96
@ 069   ----------------------------------------
	.byte	W96
@ 070   ----------------------------------------
	.byte	W96
@ 071   ----------------------------------------
	.byte	W96
@ 072   ----------------------------------------
	.byte	W96
@ 073   ----------------------------------------
	.byte	W96
@ 074   ----------------------------------------
	.byte	W96
@ 075   ----------------------------------------
	.byte	W96
@ 076   ----------------------------------------
	.byte	W96
@ 077   ----------------------------------------
	.byte	W96
@ 078   ----------------------------------------
	.byte	W96
@ 079   ----------------------------------------
	.byte	W96
@ 080   ----------------------------------------
	.byte	W96
@ 081   ----------------------------------------
	.byte	W96
@ 082   ----------------------------------------
	.byte	W96
@ 083   ----------------------------------------
	.byte	W96
@ 084   ----------------------------------------
	.byte	W96
@ 085   ----------------------------------------
	.byte	W96
@ 086   ----------------------------------------
	.byte	W96
@ 087   ----------------------------------------
	.byte	W96
@ 088   ----------------------------------------
	.byte	W96
@ 089   ----------------------------------------
	.byte	W96
@ 090   ----------------------------------------
	.byte	W96
@ 091   ----------------------------------------
	.byte	W96
@ 092   ----------------------------------------
	.byte	W96
@ 093   ----------------------------------------
	.byte	W96
@ 094   ----------------------------------------
	.byte	W96
@ 095   ----------------------------------------
	.byte	W96
@ 096   ----------------------------------------
	.byte	W96
@ 097   ----------------------------------------
	.byte	W96
@ 098   ----------------------------------------
	.byte	W96
@ 099   ----------------------------------------
	.byte	W96
@ 100   ----------------------------------------
	.byte	W96
@ 101   ----------------------------------------
	.byte	W96
@ 102   ----------------------------------------
	.byte	W96
@ 103   ----------------------------------------
	.byte	W96
@ 104   ----------------------------------------
	.byte	W96
@ 105   ----------------------------------------
	.byte	W96
@ 106   ----------------------------------------
	.byte	W96
@ 107   ----------------------------------------
	.byte		TIE   , Cn3 , v080
	.byte	W96
@ 108   ----------------------------------------
	.byte	W96
@ 109   ----------------------------------------
	.byte	W96
@ 110   ----------------------------------------
	.byte	W96
@ 111   ----------------------------------------
	.byte	W96
@ 112   ----------------------------------------
	.byte	W96
@ 113   ----------------------------------------
	.byte	W92
	.byte	W03
	.byte		EOT   
	.byte	W01
@ 114   ----------------------------------------
	.byte		N92   , Fs5 
	.byte	W96
@ 115   ----------------------------------------
	.byte	W96
@ 116   ----------------------------------------
	.byte	W96
@ 117   ----------------------------------------
	.byte	W96
@ 118   ----------------------------------------
	.byte	W96
@ 119   ----------------------------------------
	.byte	W96
@ 120   ----------------------------------------
	.byte	W96
@ 121   ----------------------------------------
	.byte	W96
@ 122   ----------------------------------------
	.byte	W96
@ 123   ----------------------------------------
	.byte	W96
@ 124   ----------------------------------------
	.byte	W96
@ 125   ----------------------------------------
	.byte	W96
@ 126   ----------------------------------------
	.byte	W96
@ 127   ----------------------------------------
	.byte	W96
@ 128   ----------------------------------------
	.byte	W96
@ 129   ----------------------------------------
	.byte	W96
@ 130   ----------------------------------------
	.byte	W96
@ 131   ----------------------------------------
	.byte	W96
@ 132   ----------------------------------------
	.byte	W96
@ 133   ----------------------------------------
	.byte	W96
@ 134   ----------------------------------------
	.byte	W96
@ 135   ----------------------------------------
	.byte	W96
@ 136   ----------------------------------------
	.byte	W96
@ 137   ----------------------------------------
	.byte	W96
@ 138   ----------------------------------------
	.byte	W96
@ 139   ----------------------------------------
	.byte	W96
@ 140   ----------------------------------------
	.byte	W96
@ 141   ----------------------------------------
	.byte	W96
@ 142   ----------------------------------------
	.byte	W96
@ 143   ----------------------------------------
	.byte	W96
@ 144   ----------------------------------------
	.byte	W96
@ 145   ----------------------------------------
	.byte	W96
@ 146   ----------------------------------------
	.byte	W48
	.byte		N32   , Fn3 , v127
	.byte	W36
	.byte		N92   , Cn4 
	.byte	W12
@ 147   ----------------------------------------
	.byte	W84
	.byte		        An3 
	.byte	W12
@ 148   ----------------------------------------
	.byte	W84
	.byte		        Cn4 
	.byte	W12
@ 149   ----------------------------------------
	.byte	W84
	.byte		        Dn4 
	.byte	W12
@ 150   ----------------------------------------
	.byte	W84
	.byte		N23   , Ds4 
	.byte	W12
@ 151   ----------------------------------------
	.byte	W12
	.byte		        Dn4 
	.byte	W24
	.byte		N23   
	.byte	W24
	.byte		        As3 
	.byte	W24
	.byte		N68   
	.byte	W12
@ 152   ----------------------------------------
	.byte	W60
	.byte		N11   , Cn4 
	.byte	W12
	.byte		        As3 
	.byte	W12
	.byte		N44   , Cn4 
	.byte	W12
@ 153   ----------------------------------------
	.byte	W36
	.byte		N11   , As3 
	.byte	W12
	.byte		N05   , Cn4 
	.byte	W06
	.byte		        As3 
	.byte	W06
	.byte		        Gs3 
	.byte	W06
	.byte		        Fn3 
	.byte	W06
	.byte		        Gn3 
	.byte	W06
	.byte		        Gs3 
	.byte	W06
	.byte		N03   , Gn3 
	.byte	W04
	.byte		        Fn3 
	.byte	W04
	.byte		        Ds3 
	.byte	W04
@ 154   ----------------------------------------
	.byte		N05   , Dn3 
	.byte	W06
	.byte		        Ds3 
	.byte	W06
	.byte		        Dn3 
	.byte	W06
	.byte		        Cn3 
	.byte	W06
	.byte		        Dn3 
	.byte	W06
	.byte		        Cn3 
	.byte	W06
	.byte		        As2 
	.byte	W06
	.byte		        Gn2 
	.byte	W06
	.byte		        Ds3 
	.byte	W06
	.byte		N17   , Fn3 
	.byte	W18
	.byte		N11   
	.byte	W12
	.byte		N92   , Cn4 
	.byte	W12
@ 155   ----------------------------------------
	.byte	W84
	.byte		        An3 
	.byte	W12
@ 156   ----------------------------------------
	.byte	W84
	.byte		        Cn4 
	.byte	W12
@ 157   ----------------------------------------
	.byte	W84
	.byte		        Dn4 
	.byte	W12
@ 158   ----------------------------------------
	.byte	W84
	.byte		N23   , Ds4 
	.byte	W12
@ 159   ----------------------------------------
	.byte	W12
	.byte		        Dn4 
	.byte	W24
	.byte		N23   
	.byte	W24
	.byte		        As3 
	.byte	W24
	.byte		N56   
	.byte	W12
@ 160   ----------------------------------------
	.byte	W48
	.byte		N05   , Ds2 
	.byte	W06
	.byte		        Fn2 
	.byte	W06
	.byte		        Gn2 
	.byte	W06
	.byte		        Gs2 
	.byte	W06
	.byte		        As2 
	.byte	W06
	.byte		        Cn3 
	.byte	W06
	.byte		N03   , Dn3 
	.byte	W04
	.byte		        Ds3 
	.byte	W04
	.byte		        Fn3 
	.byte	W04
@ 161   ----------------------------------------
	.byte		        Gn3 
	.byte	W04
	.byte		        Gs3 
	.byte	W04
	.byte		N05   , As3 
	.byte	W06
	.byte		N03   , Gs3 
	.byte	W04
	.byte		        Gn3 
	.byte	W04
	.byte		        Fn3 
	.byte	W04
	.byte		        Ds3 
	.byte	W04
	.byte		N05   , Dn3 
	.byte	W06
	.byte		        En3 
	.byte	W06
	.byte		N03   , Gn3 
	.byte	W04
	.byte		        An3 
	.byte	W04
	.byte		        As3 
	.byte	W04
	.byte		N05   , Gn2 
	.byte	W06
	.byte		N03   , Dn4 
	.byte	W04
	.byte		        Ds4 
	.byte	W04
	.byte		        Fn4 
	.byte	W04
	.byte		N05   , Gn4 
	.byte	W06
	.byte		        Gs4 
	.byte	W06
	.byte		N03   , Gn4 
	.byte	W04
	.byte		        Fn4 
	.byte	W04
	.byte		        En4 
	.byte	W04
@ 162   ----------------------------------------
	.byte		N05   , Dn4 
	.byte	W06
	.byte		        Cn4 
	.byte	W06
	.byte		N03   
	.byte	W04
	.byte		        As3 
	.byte	W04
	.byte		        Gs3 
	.byte	W04
	.byte		N08   , Cn4 
	.byte	W09
	.byte		N02   , As3 
	.byte	W03
	.byte		        Cn4 
	.byte	W03
	.byte		N09   , As3 
	.byte	W10
	.byte		N03   , Dn4 
	.byte	W02
	.byte		N08   , Gn4 
	.byte	W02
	.byte		N06   , As3 
	.byte	W07
	.byte		N92   , As4 
	.byte	W36
@ 163   ----------------------------------------
	.byte	W60
	.byte		N17   
	.byte	W18
	.byte		N17   
	.byte	W18
@ 164   ----------------------------------------
	.byte		N17   
	.byte	W18
	.byte		N17   
	.byte	W18
	.byte		N17   
	.byte	W18
	.byte		N17   
	.byte	W18
	.byte		        Gs4 
	.byte	W18
	.byte		        Gn4 
	.byte	W06
@ 165   ----------------------------------------
	.byte	W07
	.byte		N04   , Fn4 
	.byte	W05
	.byte		N17   , Gn4 
	.byte	W18
	.byte		        Fn4 
	.byte	W18
	.byte		N92   
	.byte	W48
@ 166   ----------------------------------------
	.byte	W48
	.byte		TIE   , Dn4 
	.byte	W48
@ 167   ----------------------------------------
	.byte	W68
	.byte	W03
	.byte		EOT   
	.byte	W01
	.byte		N11   
	.byte	W12
	.byte		N68   , As3 
	.byte	W12
@ 168   ----------------------------------------
	.byte	W60
	.byte		N11   , Gn3 
	.byte	W12
	.byte		N03   , As3 
	.byte	W04
	.byte		N03   
	.byte	W04
	.byte		N03   
	.byte	W04
	.byte		N11   
	.byte	W12
@ 169   ----------------------------------------
	.byte		TIE   
	.byte	W96
@ 170   ----------------------------------------
	.byte	W80
	.byte	W03
	.byte		EOT   
	.byte	W01
	.byte		TIE   , En3 
	.byte	W12
@ 171   ----------------------------------------
	.byte	W92
	.byte	W03
	.byte		EOT   
	.byte	W01
@ 172   ----------------------------------------
	.byte	W96
@ 173   ----------------------------------------
	.byte	W72
@ 174   ----------------------------------------
	.byte	W72
@ 175   ----------------------------------------
	.byte	W72
@ 176   ----------------------------------------
	.byte	W72
@ 177   ----------------------------------------
	.byte	W72
@ 178   ----------------------------------------
	.byte	W72
@ 179   ----------------------------------------
	.byte	W72
@ 180   ----------------------------------------
	.byte	W72
@ 181   ----------------------------------------
	.byte	W72
@ 182   ----------------------------------------
	.byte	W72
@ 183   ----------------------------------------
	.byte	W72
@ 184   ----------------------------------------
	.byte	W72
@ 185   ----------------------------------------
	.byte	W72
@ 186   ----------------------------------------
	.byte	W72
@ 187   ----------------------------------------
	.byte	W72
@ 188   ----------------------------------------
	.byte	W72
@ 189   ----------------------------------------
	.byte	W72
@ 190   ----------------------------------------
	.byte	W72
@ 191   ----------------------------------------
	.byte	W72
@ 192   ----------------------------------------
	.byte	W72
@ 193   ----------------------------------------
	.byte	W72
@ 194   ----------------------------------------
	.byte	W72
@ 195   ----------------------------------------
	.byte	W72
@ 196   ----------------------------------------
	.byte	W72
@ 197   ----------------------------------------
	.byte	W72
@ 198   ----------------------------------------
	.byte	W72
@ 199   ----------------------------------------
	.byte	W72
@ 200   ----------------------------------------
	.byte	W72
@ 201   ----------------------------------------
	.byte	W72
@ 202   ----------------------------------------
	.byte	W72
@ 203   ----------------------------------------
	.byte	W72
@ 204   ----------------------------------------
	.byte	W72
@ 205   ----------------------------------------
	.byte	W72
@ 206   ----------------------------------------
	.byte	W72
@ 207   ----------------------------------------
	.byte	W72
@ 208   ----------------------------------------
	.byte	W72
@ 209   ----------------------------------------
	.byte	W72
@ 210   ----------------------------------------
	.byte	W72
@ 211   ----------------------------------------
	.byte	W72
@ 212   ----------------------------------------
	.byte	W72
@ 213   ----------------------------------------
	.byte	W72
@ 214   ----------------------------------------
	.byte	W23
	.byte	GOTO
	 .word	From_Shadows_5_B1
From_Shadows_5_B2:
	.byte	FINE

@**************** Track 6 (Midi-Chn.6) ****************@

From_Shadows_6:
	.byte	KEYSH , From_Shadows_key+0
From_Shadows_6_B1:
@ 000   ----------------------------------------
	.byte		VOICE , 30
	.byte		VOL   , 100*From_Shadows_mvl/mxv
	.byte		PAN   , c_v+0
	.byte	W96
@ 001   ----------------------------------------
	.byte	W96
@ 002   ----------------------------------------
	.byte	W96
@ 003   ----------------------------------------
	.byte	W96
@ 004   ----------------------------------------
	.byte	W96
@ 005   ----------------------------------------
	.byte	W96
@ 006   ----------------------------------------
	.byte	W96
@ 007   ----------------------------------------
	.byte	W96
@ 008   ----------------------------------------
	.byte	W96
@ 009   ----------------------------------------
	.byte	W96
@ 010   ----------------------------------------
	.byte	W96
@ 011   ----------------------------------------
	.byte	W96
@ 012   ----------------------------------------
	.byte	W96
@ 013   ----------------------------------------
	.byte	W96
@ 014   ----------------------------------------
	.byte	W96
@ 015   ----------------------------------------
	.byte	W96
@ 016   ----------------------------------------
	.byte	W96
@ 017   ----------------------------------------
	.byte	W96
@ 018   ----------------------------------------
	.byte	W96
@ 019   ----------------------------------------
	.byte	W96
@ 020   ----------------------------------------
	.byte	W96
@ 021   ----------------------------------------
	.byte	W96
@ 022   ----------------------------------------
	.byte	W96
@ 023   ----------------------------------------
	.byte	W96
@ 024   ----------------------------------------
	.byte	W96
@ 025   ----------------------------------------
	.byte	W96
@ 026   ----------------------------------------
	.byte	W96
@ 027   ----------------------------------------
	.byte	W96
@ 028   ----------------------------------------
	.byte	W96
@ 029   ----------------------------------------
	.byte	W96
@ 030   ----------------------------------------
	.byte	W96
@ 031   ----------------------------------------
	.byte	W96
@ 032   ----------------------------------------
	.byte	W96
@ 033   ----------------------------------------
	.byte	W96
@ 034   ----------------------------------------
	.byte	W96
@ 035   ----------------------------------------
	.byte	W96
@ 036   ----------------------------------------
	.byte	W96
@ 037   ----------------------------------------
	.byte	W72
@ 038   ----------------------------------------
	.byte	W96
@ 039   ----------------------------------------
	.byte	W96
@ 040   ----------------------------------------
	.byte	W96
@ 041   ----------------------------------------
	.byte	W96
@ 042   ----------------------------------------
From_Shadows_6_042:
	.byte	W12
	.byte		N11   , Dn2 , v080
	.byte	W24
	.byte		N11   
	.byte	W24
	.byte		N11   
	.byte	W12
	.byte		N11   
	.byte	W12
	.byte		N11   
	.byte	W12
	.byte	PEND
@ 043   ----------------------------------------
From_Shadows_6_043:
	.byte		N11   , Dn2 , v080
	.byte	W12
	.byte		N11   
	.byte	W24
	.byte		N11   
	.byte	W24
	.byte		N11   
	.byte	W12
	.byte		N11   
	.byte	W12
	.byte		N11   
	.byte	W12
	.byte	PEND
@ 044   ----------------------------------------
	.byte	PATT
	 .word	From_Shadows_6_042
@ 045   ----------------------------------------
	.byte	PATT
	 .word	From_Shadows_6_043
@ 046   ----------------------------------------
	.byte	PATT
	 .word	From_Shadows_6_042
@ 047   ----------------------------------------
	.byte	PATT
	 .word	From_Shadows_6_043
@ 048   ----------------------------------------
	.byte	PATT
	 .word	From_Shadows_6_042
@ 049   ----------------------------------------
	.byte	PATT
	 .word	From_Shadows_6_043
@ 050   ----------------------------------------
	.byte	W96
@ 051   ----------------------------------------
	.byte	W96
@ 052   ----------------------------------------
	.byte	W96
@ 053   ----------------------------------------
	.byte	W96
@ 054   ----------------------------------------
	.byte	W96
@ 055   ----------------------------------------
	.byte	W96
@ 056   ----------------------------------------
	.byte	W96
@ 057   ----------------------------------------
	.byte	W96
@ 058   ----------------------------------------
	.byte	W96
@ 059   ----------------------------------------
	.byte	W96
@ 060   ----------------------------------------
	.byte	W96
@ 061   ----------------------------------------
	.byte	W96
@ 062   ----------------------------------------
	.byte	W96
@ 063   ----------------------------------------
	.byte	W96
@ 064   ----------------------------------------
	.byte	W96
@ 065   ----------------------------------------
	.byte	W96
@ 066   ----------------------------------------
	.byte	W96
@ 067   ----------------------------------------
	.byte	W96
@ 068   ----------------------------------------
	.byte	W96
@ 069   ----------------------------------------
	.byte	W96
@ 070   ----------------------------------------
	.byte	W96
@ 071   ----------------------------------------
	.byte	W96
@ 072   ----------------------------------------
	.byte	W96
@ 073   ----------------------------------------
	.byte	W96
@ 074   ----------------------------------------
	.byte	W96
@ 075   ----------------------------------------
	.byte	W96
@ 076   ----------------------------------------
	.byte	W96
@ 077   ----------------------------------------
	.byte	W96
@ 078   ----------------------------------------
	.byte	W96
@ 079   ----------------------------------------
	.byte	W96
@ 080   ----------------------------------------
	.byte	W96
@ 081   ----------------------------------------
	.byte	W96
@ 082   ----------------------------------------
	.byte	W96
@ 083   ----------------------------------------
	.byte	W96
@ 084   ----------------------------------------
	.byte	W96
@ 085   ----------------------------------------
	.byte	W96
@ 086   ----------------------------------------
	.byte	W96
@ 087   ----------------------------------------
	.byte	W96
@ 088   ----------------------------------------
	.byte	W96
@ 089   ----------------------------------------
	.byte	W96
@ 090   ----------------------------------------
	.byte	W96
@ 091   ----------------------------------------
	.byte	W96
@ 092   ----------------------------------------
	.byte	W96
@ 093   ----------------------------------------
	.byte	W96
@ 094   ----------------------------------------
	.byte	W96
@ 095   ----------------------------------------
	.byte	W96
@ 096   ----------------------------------------
	.byte	W96
@ 097   ----------------------------------------
	.byte	W96
@ 098   ----------------------------------------
	.byte	W96
@ 099   ----------------------------------------
	.byte	W96
@ 100   ----------------------------------------
	.byte	W96
@ 101   ----------------------------------------
	.byte	W96
@ 102   ----------------------------------------
	.byte	W96
@ 103   ----------------------------------------
	.byte	W96
@ 104   ----------------------------------------
	.byte	W96
@ 105   ----------------------------------------
	.byte	W96
@ 106   ----------------------------------------
	.byte	W96
@ 107   ----------------------------------------
	.byte	W96
@ 108   ----------------------------------------
	.byte	W96
@ 109   ----------------------------------------
	.byte	W96
@ 110   ----------------------------------------
	.byte	W96
@ 111   ----------------------------------------
	.byte	W96
@ 112   ----------------------------------------
	.byte	W96
@ 113   ----------------------------------------
	.byte	W96
@ 114   ----------------------------------------
	.byte	W96
@ 115   ----------------------------------------
	.byte	W96
@ 116   ----------------------------------------
	.byte	W96
@ 117   ----------------------------------------
	.byte	W96
@ 118   ----------------------------------------
	.byte	W96
@ 119   ----------------------------------------
	.byte	W96
@ 120   ----------------------------------------
	.byte	W96
@ 121   ----------------------------------------
	.byte	W96
@ 122   ----------------------------------------
	.byte	W96
@ 123   ----------------------------------------
	.byte	W96
@ 124   ----------------------------------------
	.byte	W96
@ 125   ----------------------------------------
	.byte	W96
@ 126   ----------------------------------------
	.byte	W96
@ 127   ----------------------------------------
	.byte	W96
@ 128   ----------------------------------------
	.byte	W96
@ 129   ----------------------------------------
	.byte	W96
@ 130   ----------------------------------------
	.byte	W96
@ 131   ----------------------------------------
	.byte	W96
@ 132   ----------------------------------------
	.byte	W96
@ 133   ----------------------------------------
	.byte	W96
@ 134   ----------------------------------------
	.byte	W96
@ 135   ----------------------------------------
	.byte	W96
@ 136   ----------------------------------------
	.byte	W96
@ 137   ----------------------------------------
	.byte	W96
@ 138   ----------------------------------------
	.byte	W96
@ 139   ----------------------------------------
	.byte	W96
@ 140   ----------------------------------------
	.byte	W48
	.byte		N05   , En1 , v127
	.byte	W06
	.byte		        Gn1 
	.byte	W06
	.byte		        An1 
	.byte	W06
	.byte		        Cn2 
	.byte	W06
	.byte		N05   
	.byte	W06
	.byte		        En2 
	.byte	W06
	.byte		        Gn2 
	.byte	W06
	.byte		        An2 
	.byte	W06
@ 141   ----------------------------------------
	.byte		        Gn2 
	.byte	W06
	.byte		        An2 
	.byte	W06
	.byte		        Cn2 
	.byte	W06
	.byte		        En2 
	.byte	W06
	.byte		        Gn2 
	.byte	W06
	.byte		        An2 
	.byte	W06
	.byte		        Bn2 
	.byte	W06
	.byte		        Cn3 
	.byte	W06
	.byte		        Bn2 
	.byte	W06
	.byte		        Cn3 
	.byte	W06
	.byte		        Bn2 
	.byte	W06
	.byte		        Cn3 
	.byte	W06
	.byte		        En3 
	.byte	W06
	.byte		        Gn3 
	.byte	W06
	.byte		        An3 
	.byte	W06
	.byte		        En3 
	.byte	W06
@ 142   ----------------------------------------
	.byte		        Gn3 
	.byte	W06
	.byte		        An3 
	.byte	W06
	.byte		        Bn3 
	.byte	W06
	.byte		        Cn4 
	.byte	W78
@ 143   ----------------------------------------
	.byte	W24
	.byte		        Dn2 
	.byte	W06
	.byte		        En2 
	.byte	W06
	.byte		        Gn2 
	.byte	W06
	.byte		        An2 
	.byte	W06
	.byte		        Bn2 
	.byte	W06
	.byte		        Gn2 
	.byte	W18
	.byte		        An1 
	.byte	W06
	.byte		        Bn1 
	.byte	W06
	.byte		        Cn2 
	.byte	W06
	.byte		        Dn2 
	.byte	W06
@ 144   ----------------------------------------
	.byte		        En2 
	.byte	W06
	.byte		        Gn2 
	.byte	W06
	.byte		        An2 
	.byte	W06
	.byte		        Bn2 
	.byte	W06
	.byte		        Cn3 
	.byte	W06
	.byte		        Dn3 
	.byte	W06
	.byte		        En3 
	.byte	W06
	.byte		        Gn3 
	.byte	W06
	.byte		        An3 
	.byte	W06
	.byte		        Bn3 
	.byte	W06
	.byte		        An2 
	.byte	W24
	.byte		        Bn2 
	.byte	W06
	.byte		        Cn3 
	.byte	W06
@ 145   ----------------------------------------
	.byte		        Dn3 
	.byte	W06
	.byte		        En3 
	.byte	W06
	.byte		        Gn3 
	.byte	W06
	.byte		        An3 
	.byte	W06
	.byte		        Bn3 
	.byte	W06
	.byte		        Cn4 
	.byte	W06
	.byte		        Dn4 
	.byte	W06
	.byte		        Cn4 
	.byte	W06
	.byte		        Bn3 
	.byte	W06
	.byte		        Cn4 
	.byte	W06
	.byte		        Dn4 
	.byte	W06
	.byte		        Cn4 
	.byte	W06
	.byte		        Bn3 
	.byte	W06
	.byte		        Cn4 
	.byte	W06
	.byte		        Bn3 
	.byte	W06
	.byte		        Cn4 
	.byte	W06
@ 146   ----------------------------------------
	.byte		        Dn4 
	.byte	W06
	.byte		        Cn4 
	.byte	W06
	.byte		        Bn3 
	.byte	W06
	.byte		        Cn4 
	.byte	W06
	.byte		        Bn3 
	.byte	W06
	.byte		        Cn4 
	.byte	W06
	.byte		        Dn4 
	.byte	W06
	.byte		        En4 
	.byte	W06
	.byte		        Gn4 
	.byte	W06
	.byte		        Bn4 
	.byte	W06
	.byte		        Cn5 
	.byte	W06
	.byte		        Dn5 
	.byte	W06
	.byte		        En5 
	.byte	W06
	.byte		        Fn5 
	.byte	W06
	.byte		        An4 
	.byte	W06
	.byte		        An5 
	.byte	W06
@ 147   ----------------------------------------
	.byte	W96
@ 148   ----------------------------------------
	.byte	W96
@ 149   ----------------------------------------
	.byte	W96
@ 150   ----------------------------------------
	.byte	W96
@ 151   ----------------------------------------
	.byte	W96
@ 152   ----------------------------------------
	.byte	W96
@ 153   ----------------------------------------
	.byte	W96
@ 154   ----------------------------------------
	.byte	W96
@ 155   ----------------------------------------
	.byte	W96
@ 156   ----------------------------------------
	.byte	W96
@ 157   ----------------------------------------
	.byte	W96
@ 158   ----------------------------------------
	.byte	W96
@ 159   ----------------------------------------
	.byte	W96
@ 160   ----------------------------------------
	.byte	W96
@ 161   ----------------------------------------
	.byte	W96
@ 162   ----------------------------------------
	.byte	W96
@ 163   ----------------------------------------
	.byte	W96
@ 164   ----------------------------------------
	.byte	W96
@ 165   ----------------------------------------
	.byte	W96
@ 166   ----------------------------------------
	.byte	W96
@ 167   ----------------------------------------
	.byte	W96
@ 168   ----------------------------------------
	.byte	W96
@ 169   ----------------------------------------
	.byte	W96
@ 170   ----------------------------------------
	.byte	W96
@ 171   ----------------------------------------
	.byte	W96
@ 172   ----------------------------------------
	.byte	W96
@ 173   ----------------------------------------
	.byte	W72
@ 174   ----------------------------------------
	.byte	W72
@ 175   ----------------------------------------
	.byte	W72
@ 176   ----------------------------------------
	.byte	W72
@ 177   ----------------------------------------
	.byte	W72
@ 178   ----------------------------------------
	.byte	W72
@ 179   ----------------------------------------
	.byte	W72
@ 180   ----------------------------------------
	.byte	W72
@ 181   ----------------------------------------
	.byte	W72
@ 182   ----------------------------------------
	.byte	W72
@ 183   ----------------------------------------
	.byte	W72
@ 184   ----------------------------------------
	.byte	W72
@ 185   ----------------------------------------
	.byte	W72
@ 186   ----------------------------------------
	.byte	W72
@ 187   ----------------------------------------
	.byte	W72
@ 188   ----------------------------------------
	.byte	W72
@ 189   ----------------------------------------
	.byte	W72
@ 190   ----------------------------------------
	.byte	W72
@ 191   ----------------------------------------
	.byte	W72
@ 192   ----------------------------------------
	.byte	W72
@ 193   ----------------------------------------
	.byte	W72
@ 194   ----------------------------------------
	.byte	W72
@ 195   ----------------------------------------
	.byte	W72
@ 196   ----------------------------------------
	.byte	W72
@ 197   ----------------------------------------
	.byte	W72
@ 198   ----------------------------------------
	.byte	W72
@ 199   ----------------------------------------
	.byte	W72
@ 200   ----------------------------------------
	.byte	W72
@ 201   ----------------------------------------
	.byte	W72
@ 202   ----------------------------------------
	.byte	W72
@ 203   ----------------------------------------
	.byte	W72
@ 204   ----------------------------------------
	.byte	W72
@ 205   ----------------------------------------
	.byte	W72
@ 206   ----------------------------------------
	.byte	W72
@ 207   ----------------------------------------
	.byte	W72
@ 208   ----------------------------------------
	.byte	W72
@ 209   ----------------------------------------
	.byte	W72
@ 210   ----------------------------------------
	.byte	W72
@ 211   ----------------------------------------
	.byte	W72
@ 212   ----------------------------------------
	.byte	W72
@ 213   ----------------------------------------
	.byte	W72
@ 214   ----------------------------------------
	.byte	W23
	.byte	GOTO
	 .word	From_Shadows_6_B1
From_Shadows_6_B2:
	.byte	FINE

@**************** Track 7 (Midi-Chn.7) ****************@

From_Shadows_7:
	.byte	KEYSH , From_Shadows_key+0
From_Shadows_7_B1:
@ 000   ----------------------------------------
	.byte		VOICE , 33
	.byte		VOL   , 127*From_Shadows_mvl/mxv
	.byte		PAN   , c_v+0
	.byte	W96
@ 001   ----------------------------------------
	.byte	W96
@ 002   ----------------------------------------
	.byte	W96
@ 003   ----------------------------------------
	.byte	W96
@ 004   ----------------------------------------
	.byte	W96
@ 005   ----------------------------------------
	.byte	W96
@ 006   ----------------------------------------
	.byte	W96
@ 007   ----------------------------------------
	.byte	W96
@ 008   ----------------------------------------
	.byte	W96
@ 009   ----------------------------------------
	.byte	W96
@ 010   ----------------------------------------
	.byte	W96
@ 011   ----------------------------------------
	.byte	W96
@ 012   ----------------------------------------
	.byte	W96
@ 013   ----------------------------------------
	.byte	W96
@ 014   ----------------------------------------
	.byte	W96
@ 015   ----------------------------------------
	.byte	W96
@ 016   ----------------------------------------
	.byte	W96
@ 017   ----------------------------------------
	.byte	W96
@ 018   ----------------------------------------
	.byte	W96
@ 019   ----------------------------------------
	.byte	W96
@ 020   ----------------------------------------
	.byte	W96
@ 021   ----------------------------------------
	.byte	W96
@ 022   ----------------------------------------
	.byte	W96
@ 023   ----------------------------------------
	.byte	W96
@ 024   ----------------------------------------
	.byte	W96
@ 025   ----------------------------------------
	.byte	W96
@ 026   ----------------------------------------
	.byte	W96
@ 027   ----------------------------------------
	.byte	W84
	.byte		N11   , An1 , v080
	.byte	W12
@ 028   ----------------------------------------
From_Shadows_7_028:
	.byte		N11   , Cn2 , v080
	.byte	W12
	.byte		        Dn2 
	.byte	W72
	.byte		        An1 
	.byte	W12
	.byte	PEND
@ 029   ----------------------------------------
	.byte	PATT
	 .word	From_Shadows_7_028
@ 030   ----------------------------------------
	.byte	PATT
	 .word	From_Shadows_7_028
@ 031   ----------------------------------------
	.byte	PATT
	 .word	From_Shadows_7_028
@ 032   ----------------------------------------
	.byte	PATT
	 .word	From_Shadows_7_028
@ 033   ----------------------------------------
	.byte	PATT
	 .word	From_Shadows_7_028
@ 034   ----------------------------------------
	.byte	PATT
	 .word	From_Shadows_7_028
@ 035   ----------------------------------------
	.byte	PATT
	 .word	From_Shadows_7_028
@ 036   ----------------------------------------
	.byte	PATT
	 .word	From_Shadows_7_028
@ 037   ----------------------------------------
	.byte		N11   , Cn2 , v080
	.byte	W12
	.byte		        Dn2 
	.byte	W60
@ 038   ----------------------------------------
	.byte	W96
@ 039   ----------------------------------------
	.byte	W96
@ 040   ----------------------------------------
	.byte	W96
@ 041   ----------------------------------------
	.byte	W96
@ 042   ----------------------------------------
From_Shadows_7_042:
	.byte	W12
	.byte		N11   , Dn2 , v080
	.byte	W24
	.byte		N11   
	.byte	W24
	.byte		N11   
	.byte	W12
	.byte		N11   
	.byte	W12
	.byte		N11   
	.byte	W12
	.byte	PEND
@ 043   ----------------------------------------
From_Shadows_7_043:
	.byte		N11   , Dn2 , v080
	.byte	W12
	.byte		N11   
	.byte	W24
	.byte		N11   
	.byte	W24
	.byte		N11   
	.byte	W12
	.byte		N11   
	.byte	W12
	.byte		N11   
	.byte	W12
	.byte	PEND
@ 044   ----------------------------------------
	.byte	PATT
	 .word	From_Shadows_7_042
@ 045   ----------------------------------------
	.byte	PATT
	 .word	From_Shadows_7_043
@ 046   ----------------------------------------
	.byte	PATT
	 .word	From_Shadows_7_042
@ 047   ----------------------------------------
	.byte	PATT
	 .word	From_Shadows_7_043
@ 048   ----------------------------------------
	.byte	PATT
	 .word	From_Shadows_7_042
@ 049   ----------------------------------------
	.byte	PATT
	 .word	From_Shadows_7_043
@ 050   ----------------------------------------
	.byte	W96
@ 051   ----------------------------------------
	.byte	W96
@ 052   ----------------------------------------
	.byte	W96
@ 053   ----------------------------------------
	.byte	W96
@ 054   ----------------------------------------
	.byte	W96
@ 055   ----------------------------------------
	.byte	W96
@ 056   ----------------------------------------
	.byte	W96
@ 057   ----------------------------------------
	.byte	W96
@ 058   ----------------------------------------
	.byte	W96
@ 059   ----------------------------------------
	.byte	W96
@ 060   ----------------------------------------
	.byte	W96
@ 061   ----------------------------------------
	.byte	W96
@ 062   ----------------------------------------
	.byte	W96
@ 063   ----------------------------------------
	.byte	W96
@ 064   ----------------------------------------
	.byte	W96
@ 065   ----------------------------------------
	.byte	W96
@ 066   ----------------------------------------
	.byte	W84
	.byte		N23   , Dn2 , v080
	.byte	W12
@ 067   ----------------------------------------
From_Shadows_7_067:
	.byte	W12
	.byte		N11   , Dn2 , v080
	.byte	W12
	.byte		N11   
	.byte	W12
	.byte		N11   
	.byte	W12
	.byte		N11   
	.byte	W12
	.byte		N11   
	.byte	W12
	.byte		N11   
	.byte	W12
	.byte		N11   
	.byte	W12
	.byte	PEND
@ 068   ----------------------------------------
From_Shadows_7_068:
	.byte		N11   , Dn2 , v080
	.byte	W12
	.byte		N11   
	.byte	W12
	.byte		N11   
	.byte	W12
	.byte		N11   
	.byte	W12
	.byte		N11   
	.byte	W12
	.byte		N11   
	.byte	W12
	.byte		N11   
	.byte	W12
	.byte		N23   , Fn2 
	.byte	W12
	.byte	PEND
@ 069   ----------------------------------------
From_Shadows_7_069:
	.byte	W12
	.byte		N11   , Fn2 , v080
	.byte	W12
	.byte		N11   
	.byte	W12
	.byte		N11   
	.byte	W12
	.byte		N11   
	.byte	W12
	.byte		N11   
	.byte	W12
	.byte		N11   
	.byte	W12
	.byte		N11   
	.byte	W12
	.byte	PEND
@ 070   ----------------------------------------
From_Shadows_7_070:
	.byte		N11   , Fn2 , v080
	.byte	W12
	.byte		N11   
	.byte	W12
	.byte		N11   
	.byte	W12
	.byte		N11   
	.byte	W12
	.byte		N11   
	.byte	W12
	.byte		N11   
	.byte	W12
	.byte		N11   
	.byte	W12
	.byte		N23   , Cn2 
	.byte	W12
	.byte	PEND
@ 071   ----------------------------------------
From_Shadows_7_071:
	.byte	W12
	.byte		N11   , Cn2 , v080
	.byte	W12
	.byte		N11   
	.byte	W12
	.byte		N11   
	.byte	W12
	.byte		N11   
	.byte	W12
	.byte		N11   
	.byte	W12
	.byte		N11   
	.byte	W12
	.byte		N11   
	.byte	W12
	.byte	PEND
@ 072   ----------------------------------------
From_Shadows_7_072:
	.byte		N11   , Cn2 , v080
	.byte	W12
	.byte		N11   
	.byte	W12
	.byte		N11   
	.byte	W12
	.byte		N11   
	.byte	W12
	.byte		N11   
	.byte	W12
	.byte		N11   
	.byte	W12
	.byte		N11   
	.byte	W12
	.byte		N23   , Fn2 
	.byte	W12
	.byte	PEND
@ 073   ----------------------------------------
From_Shadows_7_073:
	.byte	W12
	.byte		N11   , Fn2 , v080
	.byte	W12
	.byte		N11   
	.byte	W12
	.byte		N11   
	.byte	W12
	.byte		N11   
	.byte	W12
	.byte		N11   
	.byte	W12
	.byte		N11   
	.byte	W12
	.byte		N23   , Gn2 
	.byte	W12
	.byte	PEND
@ 074   ----------------------------------------
From_Shadows_7_074:
	.byte	W12
	.byte		N11   , Gn2 , v080
	.byte	W12
	.byte		N11   
	.byte	W12
	.byte		N11   
	.byte	W12
	.byte		N11   
	.byte	W12
	.byte		N11   
	.byte	W12
	.byte		N11   
	.byte	W12
	.byte		N23   , Dn2 
	.byte	W12
	.byte	PEND
@ 075   ----------------------------------------
	.byte	PATT
	 .word	From_Shadows_7_067
@ 076   ----------------------------------------
	.byte	PATT
	 .word	From_Shadows_7_068
@ 077   ----------------------------------------
	.byte	PATT
	 .word	From_Shadows_7_069
@ 078   ----------------------------------------
	.byte	PATT
	 .word	From_Shadows_7_070
@ 079   ----------------------------------------
	.byte	PATT
	 .word	From_Shadows_7_071
@ 080   ----------------------------------------
	.byte	PATT
	 .word	From_Shadows_7_072
@ 081   ----------------------------------------
	.byte	PATT
	 .word	From_Shadows_7_073
@ 082   ----------------------------------------
From_Shadows_7_082:
	.byte	W12
	.byte		N11   , Gn2 , v080
	.byte	W12
	.byte		N11   
	.byte	W12
	.byte		N11   
	.byte	W12
	.byte		N11   
	.byte	W12
	.byte		N11   
	.byte	W12
	.byte		N11   
	.byte	W12
	.byte		N23   , Ds2 
	.byte	W12
	.byte	PEND
@ 083   ----------------------------------------
From_Shadows_7_083:
	.byte	W12
	.byte		N11   , Ds2 , v080
	.byte	W12
	.byte		N11   
	.byte	W12
	.byte		N11   
	.byte	W12
	.byte		N11   
	.byte	W12
	.byte		N11   
	.byte	W12
	.byte		N11   
	.byte	W12
	.byte		N11   
	.byte	W12
	.byte	PEND
@ 084   ----------------------------------------
From_Shadows_7_084:
	.byte		N11   , Ds2 , v080
	.byte	W12
	.byte		N11   
	.byte	W12
	.byte		N11   
	.byte	W12
	.byte		N11   
	.byte	W12
	.byte		N11   
	.byte	W12
	.byte		N11   
	.byte	W12
	.byte		N11   
	.byte	W12
	.byte		N23   , Fn2 
	.byte	W12
	.byte	PEND
@ 085   ----------------------------------------
	.byte	PATT
	 .word	From_Shadows_7_069
@ 086   ----------------------------------------
From_Shadows_7_086:
	.byte		N11   , Fn2 , v080
	.byte	W12
	.byte		N11   
	.byte	W12
	.byte		N11   
	.byte	W12
	.byte		N11   
	.byte	W12
	.byte		N11   
	.byte	W12
	.byte		N11   
	.byte	W12
	.byte		N11   
	.byte	W12
	.byte		N23   , Ds2 
	.byte	W12
	.byte	PEND
@ 087   ----------------------------------------
	.byte	PATT
	 .word	From_Shadows_7_083
@ 088   ----------------------------------------
	.byte	PATT
	 .word	From_Shadows_7_084
@ 089   ----------------------------------------
	.byte	PATT
	 .word	From_Shadows_7_069
@ 090   ----------------------------------------
	.byte		N11   , Fn2 , v080
	.byte	W12
	.byte		N11   
	.byte	W12
	.byte		N11   
	.byte	W12
	.byte		N11   
	.byte	W12
	.byte		N11   
	.byte	W12
	.byte		N11   
	.byte	W12
	.byte		N11   
	.byte	W12
	.byte		N23   , Dn2 
	.byte	W12
@ 091   ----------------------------------------
	.byte	PATT
	 .word	From_Shadows_7_067
@ 092   ----------------------------------------
From_Shadows_7_092:
	.byte		N11   , Dn2 , v080
	.byte	W12
	.byte		N11   
	.byte	W12
	.byte		N11   
	.byte	W12
	.byte		N11   
	.byte	W12
	.byte		N11   
	.byte	W12
	.byte		N11   
	.byte	W12
	.byte		N11   
	.byte	W12
	.byte		N23   , En2 
	.byte	W12
	.byte	PEND
@ 093   ----------------------------------------
From_Shadows_7_093:
	.byte	W12
	.byte		N11   , En2 , v080
	.byte	W12
	.byte		N11   
	.byte	W12
	.byte		N11   
	.byte	W12
	.byte		N11   
	.byte	W12
	.byte		N11   
	.byte	W12
	.byte		N11   
	.byte	W12
	.byte		N11   
	.byte	W12
	.byte	PEND
@ 094   ----------------------------------------
	.byte		N11   
	.byte	W12
	.byte		N11   
	.byte	W12
	.byte		N11   
	.byte	W12
	.byte		N11   
	.byte	W12
	.byte		N11   
	.byte	W12
	.byte		N11   
	.byte	W12
	.byte		N11   
	.byte	W12
	.byte		N23   , Dn2 
	.byte	W12
@ 095   ----------------------------------------
	.byte	PATT
	 .word	From_Shadows_7_067
@ 096   ----------------------------------------
	.byte	PATT
	 .word	From_Shadows_7_092
@ 097   ----------------------------------------
	.byte	PATT
	 .word	From_Shadows_7_093
@ 098   ----------------------------------------
	.byte		N11   , En2 , v080
	.byte	W12
	.byte		N11   
	.byte	W12
	.byte		N11   
	.byte	W12
	.byte		N11   
	.byte	W12
	.byte		N11   
	.byte	W12
	.byte		N11   
	.byte	W12
	.byte		N11   
	.byte	W12
	.byte		N11   
	.byte	W12
@ 099   ----------------------------------------
	.byte	W96
@ 100   ----------------------------------------
	.byte	W96
@ 101   ----------------------------------------
	.byte	W96
@ 102   ----------------------------------------
	.byte	W96
@ 103   ----------------------------------------
	.byte	W96
@ 104   ----------------------------------------
	.byte	W96
@ 105   ----------------------------------------
	.byte	W96
@ 106   ----------------------------------------
	.byte	W96
@ 107   ----------------------------------------
	.byte	W96
@ 108   ----------------------------------------
	.byte	W96
@ 109   ----------------------------------------
	.byte	W96
@ 110   ----------------------------------------
	.byte	W96
@ 111   ----------------------------------------
	.byte	W96
@ 112   ----------------------------------------
	.byte	W96
@ 113   ----------------------------------------
	.byte	W96
@ 114   ----------------------------------------
	.byte	W96
@ 115   ----------------------------------------
	.byte	W84
	.byte		N23   
	.byte	W12
@ 116   ----------------------------------------
From_Shadows_7_116:
	.byte	W12
	.byte		N11   , En2 , v080
	.byte	W72
	.byte		N23   
	.byte	W12
	.byte	PEND
@ 117   ----------------------------------------
	.byte	PATT
	 .word	From_Shadows_7_116
@ 118   ----------------------------------------
	.byte	PATT
	 .word	From_Shadows_7_116
@ 119   ----------------------------------------
From_Shadows_7_119:
	.byte	W12
	.byte		N11   , En2 , v080
	.byte	W72
	.byte		N23   , Cn2 
	.byte	W12
	.byte	PEND
@ 120   ----------------------------------------
From_Shadows_7_120:
	.byte	W12
	.byte		N11   , Cn2 , v080
	.byte	W72
	.byte		N23   
	.byte	W12
	.byte	PEND
@ 121   ----------------------------------------
From_Shadows_7_121:
	.byte	W12
	.byte		N11   , Cn2 , v080
	.byte	W72
	.byte		N23   , Bn1 
	.byte	W12
	.byte	PEND
@ 122   ----------------------------------------
From_Shadows_7_122:
	.byte	W12
	.byte		N23   , Cn2 , v080
	.byte	W24
	.byte		        Bn1 
	.byte	W24
	.byte		        An1 
	.byte	W24
	.byte		        Bn1 
	.byte	W12
	.byte	PEND
@ 123   ----------------------------------------
	.byte	W12
	.byte		        An1 
	.byte	W24
	.byte		N23   
	.byte	W48
	.byte		        En2 
	.byte	W12
@ 124   ----------------------------------------
	.byte	PATT
	 .word	From_Shadows_7_116
@ 125   ----------------------------------------
	.byte	PATT
	 .word	From_Shadows_7_116
@ 126   ----------------------------------------
	.byte	PATT
	 .word	From_Shadows_7_116
@ 127   ----------------------------------------
	.byte	PATT
	 .word	From_Shadows_7_119
@ 128   ----------------------------------------
	.byte	PATT
	 .word	From_Shadows_7_120
@ 129   ----------------------------------------
	.byte	PATT
	 .word	From_Shadows_7_121
@ 130   ----------------------------------------
	.byte	PATT
	 .word	From_Shadows_7_122
@ 131   ----------------------------------------
	.byte	W12
	.byte		N23   , An1 , v080
	.byte	W24
	.byte		N23   
	.byte	W48
	.byte		        Bn1 
	.byte	W12
@ 132   ----------------------------------------
From_Shadows_7_132:
	.byte	W12
	.byte		N11   , Bn1 , v080
	.byte	W12
	.byte		N11   
	.byte	W12
	.byte		N11   
	.byte	W12
	.byte		N11   
	.byte	W12
	.byte		N11   
	.byte	W12
	.byte		N11   
	.byte	W12
	.byte		N23   , Cn2 
	.byte	W12
	.byte	PEND
@ 133   ----------------------------------------
	.byte	W12
	.byte		N11   
	.byte	W12
	.byte		N11   
	.byte	W12
	.byte		N11   
	.byte	W12
	.byte		N11   
	.byte	W12
	.byte		N11   
	.byte	W12
	.byte		N11   
	.byte	W12
	.byte		        Bn1 
	.byte	W12
@ 134   ----------------------------------------
	.byte		N11   
	.byte	W12
	.byte		N11   
	.byte	W12
	.byte		N11   
	.byte	W12
	.byte		N11   
	.byte	W12
	.byte		N11   
	.byte	W12
	.byte		N11   
	.byte	W12
	.byte		N11   
	.byte	W12
	.byte		        An1 
	.byte	W12
@ 135   ----------------------------------------
	.byte		N11   
	.byte	W12
	.byte		N11   
	.byte	W12
	.byte		N11   
	.byte	W12
	.byte		N11   
	.byte	W12
	.byte		N11   
	.byte	W12
	.byte		N11   
	.byte	W12
	.byte		N11   
	.byte	W12
	.byte		N23   , Bn1 
	.byte	W12
@ 136   ----------------------------------------
	.byte	PATT
	 .word	From_Shadows_7_132
@ 137   ----------------------------------------
	.byte	W12
	.byte		N11   , Cn2 , v080
	.byte	W12
	.byte		N11   
	.byte	W12
	.byte		N11   
	.byte	W12
	.byte		N11   
	.byte	W12
	.byte		N11   
	.byte	W12
	.byte		N11   
	.byte	W12
	.byte		N23   , Bn1 
	.byte	W12
@ 138   ----------------------------------------
	.byte	W12
	.byte		N11   
	.byte	W12
	.byte		N11   
	.byte	W12
	.byte		N11   
	.byte	W12
	.byte		N11   
	.byte	W12
	.byte		N11   
	.byte	W12
	.byte		N11   
	.byte	W12
	.byte		N23   , An1 
	.byte	W12
@ 139   ----------------------------------------
From_Shadows_7_139:
	.byte	W12
	.byte		N11   , An1 , v080
	.byte	W12
	.byte		N11   
	.byte	W12
	.byte		N11   
	.byte	W12
	.byte		N11   
	.byte	W12
	.byte		N11   
	.byte	W12
	.byte		N11   
	.byte	W12
	.byte		N23   
	.byte	W12
	.byte	PEND
@ 140   ----------------------------------------
	.byte	PATT
	 .word	From_Shadows_7_139
@ 141   ----------------------------------------
	.byte	PATT
	 .word	From_Shadows_7_139
@ 142   ----------------------------------------
	.byte	PATT
	 .word	From_Shadows_7_139
@ 143   ----------------------------------------
	.byte	PATT
	 .word	From_Shadows_7_139
@ 144   ----------------------------------------
	.byte	W12
	.byte		N11   , An1 , v080
	.byte	W12
	.byte		N11   
	.byte	W12
	.byte		N11   
	.byte	W12
	.byte		N11   
	.byte	W12
	.byte		N11   
	.byte	W12
	.byte		N11   
	.byte	W12
	.byte		N11   
	.byte	W12
@ 145   ----------------------------------------
	.byte		N11   
	.byte	W12
	.byte		N11   
	.byte	W12
	.byte		N11   
	.byte	W12
	.byte		N11   
	.byte	W12
	.byte		N11   
	.byte	W12
	.byte		N11   
	.byte	W12
	.byte		N11   
	.byte	W12
	.byte		N11   
	.byte	W12
@ 146   ----------------------------------------
	.byte	W84
	.byte		N23   , Dn2 
	.byte	W12
@ 147   ----------------------------------------
	.byte	PATT
	 .word	From_Shadows_7_067
@ 148   ----------------------------------------
	.byte	PATT
	 .word	From_Shadows_7_068
@ 149   ----------------------------------------
	.byte	PATT
	 .word	From_Shadows_7_069
@ 150   ----------------------------------------
	.byte	PATT
	 .word	From_Shadows_7_070
@ 151   ----------------------------------------
	.byte	PATT
	 .word	From_Shadows_7_071
@ 152   ----------------------------------------
	.byte	PATT
	 .word	From_Shadows_7_072
@ 153   ----------------------------------------
	.byte	PATT
	 .word	From_Shadows_7_073
@ 154   ----------------------------------------
	.byte	PATT
	 .word	From_Shadows_7_074
@ 155   ----------------------------------------
	.byte	PATT
	 .word	From_Shadows_7_067
@ 156   ----------------------------------------
	.byte	PATT
	 .word	From_Shadows_7_068
@ 157   ----------------------------------------
	.byte	PATT
	 .word	From_Shadows_7_069
@ 158   ----------------------------------------
	.byte	PATT
	 .word	From_Shadows_7_070
@ 159   ----------------------------------------
	.byte	PATT
	 .word	From_Shadows_7_071
@ 160   ----------------------------------------
	.byte	PATT
	 .word	From_Shadows_7_072
@ 161   ----------------------------------------
	.byte	PATT
	 .word	From_Shadows_7_073
@ 162   ----------------------------------------
	.byte	PATT
	 .word	From_Shadows_7_082
@ 163   ----------------------------------------
	.byte	PATT
	 .word	From_Shadows_7_083
@ 164   ----------------------------------------
	.byte	PATT
	 .word	From_Shadows_7_084
@ 165   ----------------------------------------
	.byte	PATT
	 .word	From_Shadows_7_069
@ 166   ----------------------------------------
	.byte	PATT
	 .word	From_Shadows_7_086
@ 167   ----------------------------------------
	.byte	PATT
	 .word	From_Shadows_7_083
@ 168   ----------------------------------------
	.byte	PATT
	 .word	From_Shadows_7_084
@ 169   ----------------------------------------
	.byte	PATT
	 .word	From_Shadows_7_069
@ 170   ----------------------------------------
	.byte		N11   , Fn2 , v080
	.byte	W12
	.byte		N11   
	.byte	W12
	.byte		N11   
	.byte	W12
	.byte		N11   
	.byte	W12
	.byte		N11   
	.byte	W12
	.byte		N11   
	.byte	W12
	.byte		N11   
	.byte	W12
	.byte		TIE   , Dn2 
	.byte	W12
@ 171   ----------------------------------------
	.byte	W92
	.byte	W03
	.byte		EOT   
	.byte	W01
@ 172   ----------------------------------------
	.byte	W96
@ 173   ----------------------------------------
	.byte	W72
@ 174   ----------------------------------------
	.byte	W72
@ 175   ----------------------------------------
	.byte	W72
@ 176   ----------------------------------------
	.byte	W72
@ 177   ----------------------------------------
	.byte	W72
@ 178   ----------------------------------------
	.byte	W72
@ 179   ----------------------------------------
	.byte	W72
@ 180   ----------------------------------------
	.byte	W72
@ 181   ----------------------------------------
	.byte	W72
@ 182   ----------------------------------------
	.byte	W72
@ 183   ----------------------------------------
	.byte	W72
@ 184   ----------------------------------------
	.byte	W72
@ 185   ----------------------------------------
	.byte	W72
@ 186   ----------------------------------------
	.byte	W72
@ 187   ----------------------------------------
	.byte	W72
@ 188   ----------------------------------------
	.byte	W72
@ 189   ----------------------------------------
	.byte	W72
@ 190   ----------------------------------------
	.byte	W72
@ 191   ----------------------------------------
	.byte	W72
@ 192   ----------------------------------------
	.byte	W72
@ 193   ----------------------------------------
	.byte	W72
@ 194   ----------------------------------------
	.byte	W72
@ 195   ----------------------------------------
	.byte	W72
@ 196   ----------------------------------------
	.byte	W72
@ 197   ----------------------------------------
	.byte	W72
@ 198   ----------------------------------------
	.byte	W72
@ 199   ----------------------------------------
	.byte	W72
@ 200   ----------------------------------------
	.byte	W72
@ 201   ----------------------------------------
	.byte	W72
@ 202   ----------------------------------------
	.byte	W72
@ 203   ----------------------------------------
	.byte	W72
@ 204   ----------------------------------------
	.byte	W72
@ 205   ----------------------------------------
	.byte	W72
@ 206   ----------------------------------------
	.byte	W72
@ 207   ----------------------------------------
	.byte	W72
@ 208   ----------------------------------------
	.byte	W72
@ 209   ----------------------------------------
	.byte	W72
@ 210   ----------------------------------------
	.byte	W72
@ 211   ----------------------------------------
	.byte	W72
@ 212   ----------------------------------------
	.byte	W72
@ 213   ----------------------------------------
	.byte	W72
@ 214   ----------------------------------------
	.byte	W23
	.byte	GOTO
	 .word	From_Shadows_7_B1
From_Shadows_7_B2:
	.byte	FINE

@**************** Track 8 (Midi-Chn.8) ****************@

From_Shadows_8:
	.byte	KEYSH , From_Shadows_key+0
From_Shadows_8_B1:
@ 000   ----------------------------------------
	.byte		VOICE , 0
	.byte		VOL   , 100*From_Shadows_mvl/mxv
	.byte		PAN   , c_v+0
	.byte		TIE   , Dn2 , v080
	.byte		N92   , An3 
	.byte	W06
	.byte		N05   , Dn3 
	.byte	W06
	.byte		        En3 
	.byte	W06
	.byte		        Dn3 
	.byte	W06
	.byte		        Fn3 
	.byte	W06
	.byte		        Dn3 
	.byte	W06
	.byte		        En3 
	.byte	W06
	.byte		        Dn3 
	.byte	W06
	.byte		        Gn3 
	.byte	W06
	.byte		        Dn3 
	.byte	W06
	.byte		        En3 
	.byte	W06
	.byte		        Dn3 
	.byte	W06
	.byte		        Fn3 
	.byte	W06
	.byte		        Dn3 
	.byte	W06
	.byte		        En3 
	.byte	W06
	.byte		        Dn3 
	.byte	W06
@ 001   ----------------------------------------
From_Shadows_8_001:
	.byte		N92   , An3 , v080
	.byte	W06
	.byte		N05   , Dn3 
	.byte	W06
	.byte		        En3 
	.byte	W06
	.byte		        Dn3 
	.byte	W06
	.byte		        Fn3 
	.byte	W06
	.byte		        Dn3 
	.byte	W06
	.byte		        En3 
	.byte	W06
	.byte		        Dn3 
	.byte	W06
	.byte		        Gn3 
	.byte	W06
	.byte		        Dn3 
	.byte	W06
	.byte		        En3 
	.byte	W06
	.byte		        Dn3 
	.byte	W06
	.byte		        Fn3 
	.byte	W06
	.byte		        Dn3 
	.byte	W06
	.byte		        En3 
	.byte	W06
	.byte		        Dn3 
	.byte	W05
	.byte	PEND
	.byte		EOT   , Dn2 
	.byte	W01
@ 002   ----------------------------------------
From_Shadows_8_002:
	.byte		TIE   , Fn2 , v080
	.byte		N92   , Cn4 
	.byte	W06
	.byte		N05   , Fn3 
	.byte	W06
	.byte		        Gn3 
	.byte	W06
	.byte		        Fn3 
	.byte	W06
	.byte		        Gs3 
	.byte	W06
	.byte		        Fn3 
	.byte	W06
	.byte		        Gn3 
	.byte	W06
	.byte		        Fn3 
	.byte	W06
	.byte		        As3 
	.byte	W06
	.byte		        Fn3 
	.byte	W06
	.byte		        Gs3 
	.byte	W06
	.byte		        Fn3 
	.byte	W06
	.byte		        Gn3 
	.byte	W06
	.byte		        Fn3 
	.byte	W06
	.byte		        Gs3 
	.byte	W06
	.byte		        Fn3 
	.byte	W06
	.byte	PEND
@ 003   ----------------------------------------
From_Shadows_8_003:
	.byte		N92   , Dn4 , v080
	.byte	W06
	.byte		N05   , Fn3 
	.byte	W06
	.byte		        Gn3 
	.byte	W06
	.byte		        Fn3 
	.byte	W06
	.byte		        Gs3 
	.byte	W06
	.byte		        Fn3 
	.byte	W06
	.byte		        Gn3 
	.byte	W06
	.byte		        Fn3 
	.byte	W06
	.byte		        As3 
	.byte	W06
	.byte		        Fn3 
	.byte	W06
	.byte		        Gn3 
	.byte	W06
	.byte		        Fn3 
	.byte	W06
	.byte		        Gs3 
	.byte	W06
	.byte		        Fn3 
	.byte	W06
	.byte		        Gn3 
	.byte	W06
	.byte		        Fn3 
	.byte	W05
	.byte	PEND
	.byte		EOT   , Fn2 
	.byte	W01
@ 004   ----------------------------------------
	.byte		TIE   , Cn2 
	.byte		N23   , Ds4 
	.byte	W06
	.byte		N05   , Cn3 
	.byte	W06
	.byte		        Ds3 
	.byte	W06
	.byte		        Cn3 
	.byte	W06
	.byte		N11   , Dn4 
	.byte	W06
	.byte		N05   , Cn3 
	.byte	W06
	.byte		N32   , Dn4 
	.byte	W06
	.byte		N05   , Cn3 
	.byte	W06
	.byte		        Ds3 
	.byte	W06
	.byte		        Cn3 
	.byte	W06
	.byte		        Dn3 
	.byte	W06
	.byte		        Cn3 
	.byte	W06
	.byte		N11   , As3 
	.byte	W06
	.byte		N05   , Cn3 
	.byte	W06
	.byte		N92   , As3 
	.byte	W06
	.byte		N05   , Cn3 
	.byte	W06
@ 005   ----------------------------------------
	.byte		        Gn3 
	.byte	W06
	.byte		        Cn3 
	.byte	W06
	.byte		        Dn3 
	.byte	W06
	.byte		        Cn3 
	.byte	W06
	.byte		        Ds3 
	.byte	W06
	.byte		        Cn3 
	.byte	W06
	.byte		        Dn3 
	.byte	W06
	.byte		        Cn3 
	.byte	W06
	.byte		        Fn3 
	.byte	W06
	.byte		        Cn3 
	.byte	W06
	.byte		        Dn3 
	.byte	W06
	.byte		        Cn3 
	.byte	W06
	.byte		        Ds3 
	.byte	W06
	.byte		N11   , Cn3 
	.byte	W06
	.byte		N05   , Gn3 
	.byte	W06
	.byte		        Cn3 
	.byte		N05   , As3 
	.byte	W05
	.byte		EOT   , Cn2 
	.byte	W01
@ 006   ----------------------------------------
	.byte		N17   , Fn2 
	.byte		N23   , Cn4 
	.byte	W06
	.byte		N05   , Cn3 
	.byte	W06
	.byte		N11   , Ds3 
	.byte	W06
	.byte		        Fn2 
	.byte	W06
	.byte		        As3 
	.byte	W06
	.byte		N23   , Fn2 
	.byte		N17   , Cn3 
	.byte	W06
	.byte		N23   , As3 
	.byte	W12
	.byte		N44   , Ds3 
	.byte	W06
	.byte		N17   , Fn2 
	.byte	W06
	.byte		N23   , Cn4 
	.byte	W12
	.byte		N05   , Gs2 
	.byte	W06
	.byte		N11   , Fn2 
	.byte	W06
	.byte		N23   , Gn3 
	.byte	W06
	.byte		N11   , Gn2 
	.byte	W06
@ 007   ----------------------------------------
	.byte		N23   , Dn3 
	.byte	W06
	.byte		N05   , As2 
	.byte	W06
	.byte		N11   , Gn2 
	.byte		N23   , Fn3 
	.byte	W12
	.byte		N11   , Gn2 
	.byte		N23   , Dn3 
	.byte	W12
	.byte		N11   , Gn2 
	.byte		N11   , Fn3 
	.byte	W12
	.byte		N05   , Gn2 
	.byte		N23   , Cn3 
	.byte	W06
	.byte		N05   , As2 
	.byte	W06
	.byte		N11   , Gn2 
	.byte	W12
	.byte		N23   
	.byte		N23   , Fn3 
	.byte	W12
	.byte		N05   , Cn3 
	.byte	W06
	.byte		        Dn3 
	.byte	W06
@ 008   ----------------------------------------
	.byte		TIE   , Dn2 
	.byte		N92   , An3 
	.byte	W06
	.byte		N05   , Dn3 
	.byte	W06
	.byte		        En3 
	.byte	W06
	.byte		        Dn3 
	.byte	W06
	.byte		        Fn3 
	.byte	W06
	.byte		        Dn3 
	.byte	W06
	.byte		        En3 
	.byte	W06
	.byte		        Dn3 
	.byte	W06
	.byte		        Gn3 
	.byte	W06
	.byte		        Dn3 
	.byte	W06
	.byte		        En3 
	.byte	W06
	.byte		        Dn3 
	.byte	W06
	.byte		        Fn3 
	.byte	W06
	.byte		        Dn3 
	.byte	W06
	.byte		        En3 
	.byte	W06
	.byte		        Dn3 
	.byte	W06
@ 009   ----------------------------------------
	.byte	PATT
	 .word	From_Shadows_8_001
	.byte		EOT   , Dn2 
	.byte	W01
@ 010   ----------------------------------------
	.byte	PATT
	 .word	From_Shadows_8_002
@ 011   ----------------------------------------
	.byte	PATT
	 .word	From_Shadows_8_003
	.byte		EOT   , Fn2 
	.byte	W01
@ 012   ----------------------------------------
	.byte		TIE   , Cn2 , v080
	.byte		N92   , Ds4 
	.byte	W06
	.byte		N05   , Cn3 
	.byte	W06
	.byte		        Ds3 
	.byte	W06
	.byte		        Cn3 
	.byte	W12
	.byte		N11   
	.byte	W12
	.byte		N05   
	.byte	W06
	.byte		        Ds3 
	.byte	W06
	.byte		        Cn3 
	.byte	W06
	.byte		        Dn3 
	.byte	W06
	.byte		        Cn3 
	.byte	W12
	.byte		N11   
	.byte	W12
	.byte		N05   
	.byte	W06
@ 013   ----------------------------------------
	.byte		N92   , Gn3 
	.byte	W06
	.byte		N05   , Cn3 
	.byte	W06
	.byte		        Dn3 
	.byte	W06
	.byte		        Cn3 
	.byte	W06
	.byte		        Ds3 
	.byte	W06
	.byte		        Cn3 
	.byte	W06
	.byte		        Dn3 
	.byte	W06
	.byte		        Cn3 
	.byte	W06
	.byte		        Fn3 
	.byte	W06
	.byte		        Cn3 
	.byte	W06
	.byte		        Dn3 
	.byte	W06
	.byte		        Cn3 
	.byte	W06
	.byte		        Ds3 
	.byte	W06
	.byte		N17   , Cn3 
	.byte	W17
	.byte		EOT   , Cn2 
	.byte	W01
@ 014   ----------------------------------------
	.byte		N92   , Cn4 
	.byte	W06
	.byte		N11   , Fn2 
	.byte	W06
	.byte		        Ds3 
	.byte	W06
	.byte		        Fn2 
	.byte	W12
	.byte		N23   
	.byte		N17   , Cn3 
	.byte	W18
	.byte		N44   , Ds3 
	.byte	W06
	.byte		N17   , Fn2 
	.byte	W18
	.byte		N05   , Gs2 
	.byte	W06
	.byte		N11   , Fn2 
	.byte	W12
	.byte		        Gn2 
	.byte	W06
@ 015   ----------------------------------------
	.byte	W06
	.byte		N05   , As2 
	.byte	W06
	.byte		N11   , Gn2 
	.byte	W12
	.byte		N11   
	.byte	W12
	.byte		N11   
	.byte		N23   , Ds3 
	.byte		N23   , Ds4 
	.byte	W12
	.byte		N05   , Gn2 
	.byte	W06
	.byte		        As2 
	.byte	W06
	.byte		N11   , Gn2 
	.byte		N23   , Fn3 
	.byte		N23   , Fn4 
	.byte	W18
	.byte		N05   , Gn2 
	.byte		N05   , As2 
	.byte	W06
	.byte		TIE   , Gs2 
	.byte		TIE   , Gn3 
	.byte		TIE   , Gn4 
	.byte	W12
@ 016   ----------------------------------------
	.byte	W92
	.byte	W03
	.byte		EOT   , Gs2 
	.byte		        Gn3 
	.byte		        Gn4 
	.byte	W01
@ 017   ----------------------------------------
	.byte		TIE   , Dn2 
	.byte		TIE   , An3 
	.byte	W03
	.byte		        Dn1 
	.byte		TIE   , Fn3 
	.byte	W03
	.byte		        Dn0 
	.byte		TIE   , En3 
	.byte	W03
	.byte		        Cn3 
	.byte	W84
	.byte	W03
@ 018   ----------------------------------------
	.byte	W92
	.byte	W03
	.byte		EOT   , Dn2 
	.byte		        An3 
	.byte	W01
@ 019   ----------------------------------------
	.byte	W02
	.byte		        Dn1 
	.byte		        Fn3 
	.byte	W03
	.byte		        Dn0 
	.byte		        En3 
	.byte	W03
	.byte		        Cn3 
	.byte	W88
@ 020   ----------------------------------------
	.byte	W96
@ 021   ----------------------------------------
	.byte	W96
@ 022   ----------------------------------------
	.byte	W96
@ 023   ----------------------------------------
	.byte	W96
@ 024   ----------------------------------------
	.byte	W96
@ 025   ----------------------------------------
	.byte	W96
@ 026   ----------------------------------------
	.byte	W96
@ 027   ----------------------------------------
	.byte	W96
@ 028   ----------------------------------------
	.byte	W96
@ 029   ----------------------------------------
	.byte	W96
@ 030   ----------------------------------------
	.byte	W96
@ 031   ----------------------------------------
	.byte	W96
@ 032   ----------------------------------------
	.byte	W96
@ 033   ----------------------------------------
	.byte	W96
@ 034   ----------------------------------------
	.byte	W96
@ 035   ----------------------------------------
	.byte	W96
@ 036   ----------------------------------------
	.byte	W96
@ 037   ----------------------------------------
	.byte	W72
@ 038   ----------------------------------------
	.byte	W96
@ 039   ----------------------------------------
	.byte	W96
@ 040   ----------------------------------------
	.byte	W96
@ 041   ----------------------------------------
	.byte	W96
@ 042   ----------------------------------------
	.byte	W96
@ 043   ----------------------------------------
	.byte	W96
@ 044   ----------------------------------------
	.byte	W96
@ 045   ----------------------------------------
	.byte	W96
@ 046   ----------------------------------------
	.byte	W96
@ 047   ----------------------------------------
	.byte	W96
@ 048   ----------------------------------------
	.byte	W96
@ 049   ----------------------------------------
	.byte	W96
@ 050   ----------------------------------------
	.byte	W96
@ 051   ----------------------------------------
	.byte	W96
@ 052   ----------------------------------------
	.byte	W96
@ 053   ----------------------------------------
	.byte	W96
@ 054   ----------------------------------------
	.byte	W96
@ 055   ----------------------------------------
	.byte	W96
@ 056   ----------------------------------------
	.byte	W96
@ 057   ----------------------------------------
	.byte	W96
@ 058   ----------------------------------------
	.byte	W96
@ 059   ----------------------------------------
	.byte	W96
@ 060   ----------------------------------------
	.byte	W96
@ 061   ----------------------------------------
	.byte	W96
@ 062   ----------------------------------------
	.byte	W96
@ 063   ----------------------------------------
	.byte	W96
@ 064   ----------------------------------------
	.byte	W96
@ 065   ----------------------------------------
	.byte	W96
@ 066   ----------------------------------------
	.byte	W96
@ 067   ----------------------------------------
	.byte	W96
@ 068   ----------------------------------------
	.byte	W96
@ 069   ----------------------------------------
	.byte	W96
@ 070   ----------------------------------------
	.byte	W96
@ 071   ----------------------------------------
	.byte	W96
@ 072   ----------------------------------------
	.byte	W96
@ 073   ----------------------------------------
	.byte	W96
@ 074   ----------------------------------------
	.byte	W96
@ 075   ----------------------------------------
	.byte	W96
@ 076   ----------------------------------------
	.byte	W96
@ 077   ----------------------------------------
	.byte	W96
@ 078   ----------------------------------------
	.byte	W96
@ 079   ----------------------------------------
	.byte	W96
@ 080   ----------------------------------------
	.byte	W96
@ 081   ----------------------------------------
	.byte	W96
@ 082   ----------------------------------------
	.byte	W96
@ 083   ----------------------------------------
	.byte	W96
@ 084   ----------------------------------------
	.byte	W96
@ 085   ----------------------------------------
	.byte	W96
@ 086   ----------------------------------------
	.byte	W96
@ 087   ----------------------------------------
	.byte	W96
@ 088   ----------------------------------------
	.byte	W96
@ 089   ----------------------------------------
	.byte	W96
@ 090   ----------------------------------------
	.byte	W96
@ 091   ----------------------------------------
	.byte	W96
@ 092   ----------------------------------------
	.byte	W96
@ 093   ----------------------------------------
	.byte	W96
@ 094   ----------------------------------------
	.byte	W96
@ 095   ----------------------------------------
	.byte	W96
@ 096   ----------------------------------------
	.byte	W96
@ 097   ----------------------------------------
	.byte	W96
@ 098   ----------------------------------------
	.byte	W96
@ 099   ----------------------------------------
	.byte	W96
@ 100   ----------------------------------------
	.byte	W96
@ 101   ----------------------------------------
	.byte	W96
@ 102   ----------------------------------------
	.byte	W96
@ 103   ----------------------------------------
	.byte	W96
@ 104   ----------------------------------------
	.byte	W96
@ 105   ----------------------------------------
	.byte	W96
@ 106   ----------------------------------------
	.byte	W96
@ 107   ----------------------------------------
	.byte	W96
@ 108   ----------------------------------------
	.byte	W96
@ 109   ----------------------------------------
	.byte	W96
@ 110   ----------------------------------------
	.byte	W96
@ 111   ----------------------------------------
	.byte	W96
@ 112   ----------------------------------------
	.byte	W96
@ 113   ----------------------------------------
	.byte	W96
@ 114   ----------------------------------------
	.byte	W96
@ 115   ----------------------------------------
	.byte	W96
@ 116   ----------------------------------------
	.byte	W96
@ 117   ----------------------------------------
	.byte	W96
@ 118   ----------------------------------------
	.byte	W96
@ 119   ----------------------------------------
	.byte	W96
@ 120   ----------------------------------------
	.byte	W96
@ 121   ----------------------------------------
	.byte	W96
@ 122   ----------------------------------------
	.byte	W96
@ 123   ----------------------------------------
	.byte	W96
@ 124   ----------------------------------------
	.byte	W96
@ 125   ----------------------------------------
	.byte	W96
@ 126   ----------------------------------------
	.byte	W96
@ 127   ----------------------------------------
	.byte	W96
@ 128   ----------------------------------------
	.byte	W96
@ 129   ----------------------------------------
	.byte	W96
@ 130   ----------------------------------------
	.byte	W96
@ 131   ----------------------------------------
	.byte	W96
@ 132   ----------------------------------------
	.byte	W96
@ 133   ----------------------------------------
	.byte	W96
@ 134   ----------------------------------------
	.byte	W96
@ 135   ----------------------------------------
	.byte	W96
@ 136   ----------------------------------------
	.byte	W96
@ 137   ----------------------------------------
	.byte	W96
@ 138   ----------------------------------------
	.byte	W96
@ 139   ----------------------------------------
	.byte	W96
@ 140   ----------------------------------------
	.byte	W96
@ 141   ----------------------------------------
	.byte	W96
@ 142   ----------------------------------------
	.byte	W96
@ 143   ----------------------------------------
	.byte	W96
@ 144   ----------------------------------------
	.byte	W96
@ 145   ----------------------------------------
	.byte	W96
@ 146   ----------------------------------------
	.byte	W96
@ 147   ----------------------------------------
	.byte	W96
@ 148   ----------------------------------------
	.byte	W96
@ 149   ----------------------------------------
	.byte	W96
@ 150   ----------------------------------------
	.byte	W96
@ 151   ----------------------------------------
	.byte	W96
@ 152   ----------------------------------------
	.byte	W96
@ 153   ----------------------------------------
	.byte	W96
@ 154   ----------------------------------------
	.byte	W96
@ 155   ----------------------------------------
	.byte	W96
@ 156   ----------------------------------------
	.byte	W96
@ 157   ----------------------------------------
	.byte	W96
@ 158   ----------------------------------------
	.byte	W96
@ 159   ----------------------------------------
	.byte	W96
@ 160   ----------------------------------------
	.byte	W96
@ 161   ----------------------------------------
	.byte	W96
@ 162   ----------------------------------------
	.byte	W96
@ 163   ----------------------------------------
	.byte	W96
@ 164   ----------------------------------------
	.byte	W96
@ 165   ----------------------------------------
	.byte	W96
@ 166   ----------------------------------------
	.byte	W96
@ 167   ----------------------------------------
	.byte	W96
@ 168   ----------------------------------------
	.byte	W96
@ 169   ----------------------------------------
	.byte	W96
@ 170   ----------------------------------------
	.byte	W96
@ 171   ----------------------------------------
	.byte	W96
@ 172   ----------------------------------------
	.byte	W96
@ 173   ----------------------------------------
From_Shadows_8_173:
	.byte		N68   , Cn4 , v080
	.byte	W12
	.byte		N11   , Dn3 
	.byte	W12
	.byte		        En3 
	.byte	W12
	.byte		        Fn3 
	.byte	W12
	.byte		        Dn3 
	.byte	W12
	.byte		        En3 
	.byte	W12
	.byte	PEND
@ 174   ----------------------------------------
From_Shadows_8_174:
	.byte		N68   , An3 , v080
	.byte	W12
	.byte		N11   , Dn3 
	.byte	W12
	.byte		        En3 
	.byte	W12
	.byte		        Fn3 
	.byte	W12
	.byte		        Dn3 
	.byte	W12
	.byte		        En3 
	.byte	W12
	.byte	PEND
@ 175   ----------------------------------------
From_Shadows_8_175:
	.byte		N11   , Gn3 , v080
	.byte	W12
	.byte		        Dn3 
	.byte	W12
	.byte		        En3 
	.byte	W12
	.byte		        Fn3 
	.byte	W12
	.byte		        Dn3 
	.byte	W12
	.byte		        En3 
	.byte	W12
	.byte	PEND
@ 176   ----------------------------------------
	.byte	PATT
	 .word	From_Shadows_8_175
@ 177   ----------------------------------------
	.byte	PATT
	 .word	From_Shadows_8_173
@ 178   ----------------------------------------
	.byte	PATT
	 .word	From_Shadows_8_174
@ 179   ----------------------------------------
From_Shadows_8_179:
	.byte		N11   , Fn3 , v080
	.byte	W12
	.byte		        Dn3 
	.byte	W12
	.byte		        En3 
	.byte	W12
	.byte		        Fn3 
	.byte	W12
	.byte		        Dn3 
	.byte	W12
	.byte		        En3 
	.byte	W12
	.byte	PEND
@ 180   ----------------------------------------
	.byte		        Fn3 
	.byte	W12
	.byte		        Dn3 
	.byte	W12
	.byte		        En3 
	.byte	W12
	.byte		        Dn3 
	.byte	W12
	.byte		        Fn3 
	.byte	W12
	.byte		        Dn3 
	.byte	W12
@ 181   ----------------------------------------
	.byte	PATT
	 .word	From_Shadows_8_173
@ 182   ----------------------------------------
	.byte	PATT
	 .word	From_Shadows_8_174
@ 183   ----------------------------------------
	.byte	PATT
	 .word	From_Shadows_8_179
@ 184   ----------------------------------------
	.byte	PATT
	 .word	From_Shadows_8_175
@ 185   ----------------------------------------
	.byte	PATT
	 .word	From_Shadows_8_173
@ 186   ----------------------------------------
	.byte	PATT
	 .word	From_Shadows_8_174
@ 187   ----------------------------------------
	.byte		N68   , An3 , v080
	.byte	W12
	.byte		N11   , Dn3 
	.byte	W12
	.byte		        En3 
	.byte	W12
	.byte		        Dn3 
	.byte	W12
	.byte		        En3 
	.byte	W12
	.byte		        Dn3 
	.byte	W12
@ 188   ----------------------------------------
	.byte		        En3 
	.byte	W12
	.byte		        Fn3 
	.byte	W12
	.byte		        Gn3 
	.byte	W12
	.byte		        An3 
	.byte	W12
	.byte		        Cn4 
	.byte	W12
	.byte		        Dn4 
	.byte	W12
@ 189   ----------------------------------------
	.byte		N32   , An3 
	.byte		N32   , Fn4 
	.byte	W24
	.byte		N44   , Dn2 
	.byte	W12
	.byte		N32   , Gn3 
	.byte		N32   , En4 
	.byte	W36
@ 190   ----------------------------------------
	.byte		N23   , Cn2 
	.byte		N44   , Fn3 
	.byte		N44   , Dn4 
	.byte	W24
	.byte		N23   , Gn2 
	.byte	W24
	.byte		        Dn3 
	.byte		N23   , Gn3 
	.byte	W24
@ 191   ----------------------------------------
	.byte		        As1 
	.byte		N68   , Cn3 
	.byte		N68   , Gn3 
	.byte	W24
	.byte		N23   , Fn2 
	.byte	W24
	.byte		N11   , As2 
	.byte	W12
	.byte		        Dn3 
	.byte	W12
@ 192   ----------------------------------------
	.byte		N68   , An1 
	.byte		N68   , An2 
	.byte		N32   , En3 
	.byte	W24
	.byte		        En2 
	.byte	W12
	.byte		        Dn3 
	.byte	W24
	.byte		N11   , Dn2 
	.byte	W12
@ 193   ----------------------------------------
	.byte		N68   , Gn1 
	.byte		N36   , Gn2 
	.byte		N68   , An2 
	.byte	W24
	.byte		N11   , Dn2 
	.byte	W12
	.byte		        Gn2 
	.byte	W12
	.byte		        Dn2 
	.byte	W24
@ 194   ----------------------------------------
	.byte		N68   , Fn1 
	.byte		N68   , Fn2 
	.byte	W24
	.byte		N11   , Cn2 
	.byte	W12
	.byte		        Gn2 
	.byte	W12
	.byte		        Cn2 
	.byte	W24
@ 195   ----------------------------------------
	.byte		N68   , An1 
	.byte		N32   , Dn3 
	.byte	W24
	.byte		N23   , En2 
	.byte	W12
	.byte		N32   , Cn3 
	.byte	W12
	.byte		N23   , En2 
	.byte	W24
@ 196   ----------------------------------------
	.byte		N23   
	.byte		N32   , Gn2 
	.byte	W24
	.byte		N23   , En2 
	.byte	W12
	.byte		N32   , An2 
	.byte	W12
	.byte		N23   , En2 
	.byte	W24
@ 197   ----------------------------------------
	.byte		TIE   , Dn1 
	.byte		TIE   , An2 
	.byte		N68   , Dn3 
	.byte	W24
	.byte		N11   , Cn5 
	.byte	W12
	.byte		        Dn5 
	.byte	W12
	.byte		        An4 
	.byte	W12
	.byte		        Fn4 
	.byte	W12
@ 198   ----------------------------------------
	.byte		        Cn4 
	.byte	W12
	.byte		        En4 
	.byte	W12
	.byte		        Fn4 
	.byte	W12
	.byte		        Dn4 
	.byte	W12
	.byte		        En4 
	.byte	W12
	.byte		        Fn4 
	.byte	W11
	.byte		EOT   , Dn1 
	.byte		        An2 
	.byte	W01
@ 199   ----------------------------------------
From_Shadows_8_199:
	.byte		TIE   , Dn1 , v080
	.byte	W24
	.byte		N11   , En4 
	.byte	W12
	.byte		        Cn5 
	.byte	W12
	.byte		        En4 
	.byte	W12
	.byte		        Fn4 
	.byte	W12
	.byte	PEND
@ 200   ----------------------------------------
	.byte		N68   , Cn4 
	.byte		N11   , En4 
	.byte	W12
	.byte		        Gn4 
	.byte	W12
	.byte		        An4 
	.byte	W12
	.byte		        Fn4 
	.byte	W12
	.byte		        Gn4 
	.byte	W12
	.byte		        En4 
	.byte	W11
	.byte		EOT   , Dn1 
	.byte	W01
@ 201   ----------------------------------------
	.byte	PATT
	 .word	From_Shadows_8_199
@ 202   ----------------------------------------
	.byte		N11   , Dn4 , v080
	.byte	W12
	.byte		        Fn4 
	.byte	W12
	.byte		        Gn4 
	.byte	W12
	.byte		        An4 
	.byte	W12
	.byte		        Fn4 
	.byte	W12
	.byte		        Cn4 
	.byte	W11
	.byte		EOT   , Dn1 
	.byte	W01
@ 203   ----------------------------------------
	.byte		N96   , Gn3 
	.byte		N11   , Dn4 
	.byte	W12
	.byte		        Cn4 
	.byte	W12
	.byte		        En4 
	.byte	W12
	.byte		N48   , An3 
	.byte		N23   , Fn4 
	.byte	W24
	.byte		N11   , En4 
	.byte	W12
@ 204   ----------------------------------------
	.byte		N44   , Fn3 
	.byte		N11   , Cn4 
	.byte	W12
	.byte		        An3 
	.byte	W12
	.byte		N23   , Gn3 
	.byte	W24
	.byte		N23   
	.byte	W24
@ 205   ----------------------------------------
	.byte		TIE   , Dn1 
	.byte	W24
	.byte		N11   , Cn5 
	.byte	W12
	.byte		        Fn4 
	.byte	W12
	.byte		        En4 
	.byte	W12
	.byte		        Fn4 
	.byte	W12
@ 206   ----------------------------------------
	.byte		N32   , An3 
	.byte		N11   , Dn4 
	.byte	W12
	.byte		        Fn4 
	.byte	W12
	.byte		        Gn4 
	.byte	W12
	.byte		N32   , Gn3 
	.byte		N11   , An4 
	.byte	W12
	.byte		N23   , Fn4 
	.byte	W23
	.byte		EOT   , Dn1 
	.byte	W01
@ 207   ----------------------------------------
	.byte		N68   , Fn3 
	.byte	W24
	.byte		N11   , Cn4 
	.byte	W12
	.byte		        Dn4 
	.byte	W12
	.byte		        Fn4 
	.byte	W12
	.byte		        Cn4 
	.byte	W12
@ 208   ----------------------------------------
	.byte		N32   , Fn3 
	.byte		N11   , Dn4 
	.byte	W12
	.byte		        Cn4 
	.byte	W12
	.byte		        Dn4 
	.byte	W12
	.byte		N32   , Gn3 
	.byte		N11   , En4 
	.byte	W12
	.byte		        Dn4 
	.byte	W12
	.byte		        En4 
	.byte	W12
@ 209   ----------------------------------------
	.byte		TIE   , Dn1 
	.byte	W24
	.byte		N11   , Dn3 
	.byte	W12
	.byte		        En3 
	.byte	W12
	.byte		        Dn3 
	.byte	W12
	.byte		        En3 
	.byte	W12
@ 210   ----------------------------------------
	.byte		N32   , An2 
	.byte		N11   , Fn3 
	.byte	W12
	.byte		        En3 
	.byte	W12
	.byte		        Fn3 
	.byte	W12
	.byte		N32   , Cn3 
	.byte		N11   , Gn3 
	.byte	W12
	.byte		        Fn3 
	.byte	W12
	.byte		        Dn3 
	.byte	W11
	.byte		EOT   , Dn1 
	.byte	W01
@ 211   ----------------------------------------
	.byte		N68   , Fn2 
	.byte		N23   , Fn3 
	.byte	W24
	.byte		N44   , En3 
	.byte	W48
@ 212   ----------------------------------------
	.byte		N68   , Cn2 
	.byte		N23   , Cn3 
	.byte	W24
	.byte		N44   , Dn3 
	.byte	W48
@ 213   ----------------------------------------
	.byte		N68   , Dn1 
	.byte		N68   , Dn2 
	.byte		N68   , An2 
	.byte	W72
@ 214   ----------------------------------------
	.byte	W23
	.byte	GOTO
	 .word	From_Shadows_8_B1
From_Shadows_8_B2:
	.byte	FINE

@**************** Track 9 (Midi-Chn.9) ****************@

From_Shadows_9:
	.byte	KEYSH , From_Shadows_key+0
From_Shadows_9_B1:
@ 000   ----------------------------------------
	.byte		VOICE , 52
	.byte		VOL   , 100*From_Shadows_mvl/mxv
	.byte		PAN   , c_v+0
	.byte	W96
@ 001   ----------------------------------------
	.byte	W96
@ 002   ----------------------------------------
	.byte	W96
@ 003   ----------------------------------------
	.byte	W96
@ 004   ----------------------------------------
	.byte	W96
@ 005   ----------------------------------------
	.byte	W96
@ 006   ----------------------------------------
	.byte	W96
@ 007   ----------------------------------------
	.byte	W96
@ 008   ----------------------------------------
	.byte	W96
@ 009   ----------------------------------------
	.byte	W96
@ 010   ----------------------------------------
	.byte	W96
@ 011   ----------------------------------------
	.byte	W96
@ 012   ----------------------------------------
	.byte	W96
@ 013   ----------------------------------------
	.byte	W96
@ 014   ----------------------------------------
	.byte	W96
@ 015   ----------------------------------------
	.byte	W96
@ 016   ----------------------------------------
	.byte	W96
@ 017   ----------------------------------------
	.byte	W96
@ 018   ----------------------------------------
	.byte	W96
@ 019   ----------------------------------------
	.byte	W96
@ 020   ----------------------------------------
	.byte	W96
@ 021   ----------------------------------------
	.byte	W96
@ 022   ----------------------------------------
	.byte	W96
@ 023   ----------------------------------------
	.byte	W96
@ 024   ----------------------------------------
	.byte	W96
@ 025   ----------------------------------------
	.byte	W96
@ 026   ----------------------------------------
	.byte	W96
@ 027   ----------------------------------------
	.byte	W96
@ 028   ----------------------------------------
	.byte	W96
@ 029   ----------------------------------------
	.byte	W96
@ 030   ----------------------------------------
	.byte	W96
@ 031   ----------------------------------------
	.byte	W96
@ 032   ----------------------------------------
	.byte	W96
@ 033   ----------------------------------------
	.byte	W96
@ 034   ----------------------------------------
	.byte	W96
@ 035   ----------------------------------------
	.byte	W96
@ 036   ----------------------------------------
	.byte	W96
@ 037   ----------------------------------------
	.byte	W72
@ 038   ----------------------------------------
	.byte	W96
@ 039   ----------------------------------------
	.byte	W96
@ 040   ----------------------------------------
	.byte	W96
@ 041   ----------------------------------------
	.byte	W96
@ 042   ----------------------------------------
	.byte	W96
@ 043   ----------------------------------------
	.byte	W96
@ 044   ----------------------------------------
	.byte	W96
@ 045   ----------------------------------------
	.byte	W96
@ 046   ----------------------------------------
	.byte	W96
@ 047   ----------------------------------------
	.byte	W96
@ 048   ----------------------------------------
	.byte	W96
@ 049   ----------------------------------------
	.byte	W96
@ 050   ----------------------------------------
	.byte	W96
@ 051   ----------------------------------------
	.byte	W96
@ 052   ----------------------------------------
	.byte	W96
@ 053   ----------------------------------------
	.byte	W96
@ 054   ----------------------------------------
	.byte	W96
@ 055   ----------------------------------------
	.byte	W96
@ 056   ----------------------------------------
	.byte	W96
@ 057   ----------------------------------------
	.byte	W96
@ 058   ----------------------------------------
	.byte	W96
@ 059   ----------------------------------------
	.byte	W96
@ 060   ----------------------------------------
	.byte	W96
@ 061   ----------------------------------------
	.byte	W96
@ 062   ----------------------------------------
	.byte	W96
@ 063   ----------------------------------------
	.byte	W96
@ 064   ----------------------------------------
	.byte	W96
@ 065   ----------------------------------------
	.byte	W96
@ 066   ----------------------------------------
From_Shadows_9_066:
	.byte	W84
	.byte		TIE   , Dn2 , v052
	.byte		TIE   , Fn2 
	.byte		TIE   , An2 
	.byte		TIE   , Cn3 
	.byte		TIE   , En3 
	.byte	W12
	.byte	PEND
@ 067   ----------------------------------------
	.byte	W96
@ 068   ----------------------------------------
	.byte	W68
	.byte	W03
	.byte		EOT   , Dn2 
	.byte		        Fn2 
	.byte		        An2 
	.byte		        Cn3 
	.byte		        En3 
	.byte	W13
	.byte		TIE   , Fn2 
	.byte		TIE   , Gs2 
	.byte		TIE   , Cn3 
	.byte		TIE   , Ds3 
	.byte		TIE   , Gn3 
	.byte	W12
@ 069   ----------------------------------------
	.byte	W96
@ 070   ----------------------------------------
	.byte	W68
	.byte	W03
	.byte		EOT   , Fn2 
	.byte		        Gs2 
	.byte		        Cn3 
	.byte		        Ds3 
	.byte		        Gn3 
	.byte	W13
	.byte		TIE   , Gn2 
	.byte		TIE   , As2 
	.byte		TIE   , Dn3 
	.byte		TIE   , Ds3 
	.byte		TIE   , Fn3 
	.byte		TIE   , An3 
	.byte	W12
@ 071   ----------------------------------------
	.byte	W96
@ 072   ----------------------------------------
	.byte	W44
	.byte	W03
	.byte		EOT   , Gn2 
	.byte		        As2 
	.byte		        Dn3 
	.byte		        Ds3 
	.byte		        Fn3 
	.byte		        An3 
	.byte	W36
	.byte	W01
	.byte		N80   , Fn2 
	.byte		N80   , Gs2 
	.byte		N80   , Cn3 
	.byte		N80   , Fn3 
	.byte	W12
@ 073   ----------------------------------------
From_Shadows_9_073:
	.byte	W84
	.byte		N80   , Gn2 , v052
	.byte		N80   , As2 
	.byte		N80   , Dn3 
	.byte	W12
	.byte	PEND
@ 074   ----------------------------------------
	.byte	PATT
	 .word	From_Shadows_9_066
@ 075   ----------------------------------------
	.byte	W96
@ 076   ----------------------------------------
	.byte	W68
	.byte	W03
	.byte		EOT   , Dn2 
	.byte		        Fn2 
	.byte		        An2 
	.byte		        Cn3 
	.byte		        En3 
	.byte	W13
	.byte		TIE   , Fn2 , v052
	.byte		TIE   , Gs2 
	.byte		TIE   , Cn3 
	.byte		TIE   , Ds3 
	.byte		TIE   , Gn3 
	.byte	W12
@ 077   ----------------------------------------
	.byte	W96
@ 078   ----------------------------------------
	.byte	W68
	.byte	W03
	.byte		EOT   , Fn2 
	.byte		        Gs2 
	.byte		        Cn3 
	.byte		        Ds3 
	.byte		        Gn3 
	.byte	W13
	.byte		TIE   , Gn2 
	.byte		TIE   , As2 
	.byte		TIE   , Dn3 
	.byte		TIE   , Ds3 
	.byte		TIE   , Fn3 
	.byte		TIE   , An3 
	.byte	W12
@ 079   ----------------------------------------
	.byte	W96
@ 080   ----------------------------------------
	.byte	W68
	.byte	W03
	.byte		EOT   , Gn2 
	.byte		        As2 
	.byte		        Dn3 
	.byte		        Ds3 
	.byte		        Fn3 
	.byte		        An3 
	.byte	W13
	.byte		N80   , Fn2 
	.byte		N80   , Gs2 
	.byte		N80   , Cn3 
	.byte		N80   , Fn3 
	.byte	W12
@ 081   ----------------------------------------
	.byte	PATT
	 .word	From_Shadows_9_073
@ 082   ----------------------------------------
From_Shadows_9_082:
	.byte	W84
	.byte		TIE   , Gn3 , v052
	.byte		TIE   , Cn4 
	.byte		TIE   , Ds4 
	.byte	W12
	.byte	PEND
@ 083   ----------------------------------------
	.byte	W96
@ 084   ----------------------------------------
	.byte	W80
	.byte	W03
	.byte		EOT   , Gn3 
	.byte		        Cn4 
	.byte		        Ds4 
	.byte	W01
	.byte		TIE   , Fn3 
	.byte		TIE   , As3 
	.byte		TIE   , Cs4 
	.byte		TIE   , Dn4 
	.byte	W12
@ 085   ----------------------------------------
	.byte	W96
@ 086   ----------------------------------------
	.byte	W80
	.byte	W03
	.byte		EOT   , Fn3 
	.byte		        As3 
	.byte		        Cs4 
	.byte		        Dn4 
	.byte	W01
	.byte		TIE   , Gn3 
	.byte		TIE   , Cn4 
	.byte		TIE   , Ds4 
	.byte	W12
@ 087   ----------------------------------------
	.byte	W96
@ 088   ----------------------------------------
	.byte	W80
	.byte	W03
	.byte		EOT   , Gn3 
	.byte		        Cn4 
	.byte		        Ds4 
	.byte	W01
	.byte		TIE   , Fn3 
	.byte		TIE   , As3 
	.byte		TIE   , Dn4 
	.byte	W12
@ 089   ----------------------------------------
	.byte	W96
@ 090   ----------------------------------------
	.byte	W80
	.byte	W03
	.byte		EOT   , Fn3 
	.byte		        As3 
	.byte		        Dn4 
	.byte	W01
	.byte		TIE   , Cn3 
	.byte		TIE   , En3 
	.byte		TIE   , Fn3 
	.byte		TIE   , An3 
	.byte	W12
@ 091   ----------------------------------------
	.byte	W96
@ 092   ----------------------------------------
	.byte	W80
	.byte	W03
	.byte		EOT   , Cn3 
	.byte		        En3 
	.byte		        Fn3 
	.byte		        An3 
	.byte	W01
	.byte		TIE   , Dn3 
	.byte		TIE   , Fs3 
	.byte		TIE   , Gn3 
	.byte		TIE   , Bn3 
	.byte	W12
@ 093   ----------------------------------------
	.byte	W96
@ 094   ----------------------------------------
	.byte	W80
	.byte	W03
	.byte		EOT   , Dn3 
	.byte		        Fs3 
	.byte		        Gn3 
	.byte		        Bn3 
	.byte	W01
	.byte		TIE   , Cn3 
	.byte		TIE   , En3 
	.byte		TIE   , Fn3 
	.byte		TIE   , An3 
	.byte	W12
@ 095   ----------------------------------------
	.byte	W96
@ 096   ----------------------------------------
	.byte	W80
	.byte	W03
	.byte		EOT   , Cn3 
	.byte		        En3 
	.byte		        Fn3 
	.byte		        An3 
	.byte	W01
	.byte		TIE   , Dn3 
	.byte		TIE   , Fs3 
	.byte		TIE   , Gn3 
	.byte		TIE   , Bn3 
	.byte	W12
@ 097   ----------------------------------------
	.byte	W96
@ 098   ----------------------------------------
	.byte	W68
	.byte	W03
	.byte		EOT   , Dn3 
	.byte		        Fs3 
	.byte		        Gn3 
	.byte		        Bn3 
	.byte	W24
	.byte	W01
@ 099   ----------------------------------------
	.byte	W96
@ 100   ----------------------------------------
	.byte	W96
@ 101   ----------------------------------------
	.byte	W96
@ 102   ----------------------------------------
	.byte	W96
@ 103   ----------------------------------------
	.byte	W96
@ 104   ----------------------------------------
	.byte	W96
@ 105   ----------------------------------------
	.byte	W96
@ 106   ----------------------------------------
	.byte	W96
@ 107   ----------------------------------------
	.byte	W96
@ 108   ----------------------------------------
	.byte	W96
@ 109   ----------------------------------------
	.byte	W96
@ 110   ----------------------------------------
	.byte	W96
@ 111   ----------------------------------------
	.byte	W96
@ 112   ----------------------------------------
	.byte	W96
@ 113   ----------------------------------------
	.byte	W96
@ 114   ----------------------------------------
	.byte	W96
@ 115   ----------------------------------------
	.byte	W96
@ 116   ----------------------------------------
	.byte	W96
@ 117   ----------------------------------------
	.byte	W96
@ 118   ----------------------------------------
	.byte	W96
@ 119   ----------------------------------------
	.byte	W96
@ 120   ----------------------------------------
	.byte	W96
@ 121   ----------------------------------------
	.byte	W96
@ 122   ----------------------------------------
	.byte	W96
@ 123   ----------------------------------------
	.byte	W96
@ 124   ----------------------------------------
	.byte	W96
@ 125   ----------------------------------------
	.byte	W96
@ 126   ----------------------------------------
	.byte	W96
@ 127   ----------------------------------------
	.byte	W96
@ 128   ----------------------------------------
	.byte	W96
@ 129   ----------------------------------------
	.byte	W96
@ 130   ----------------------------------------
	.byte	W96
@ 131   ----------------------------------------
	.byte	W96
@ 132   ----------------------------------------
	.byte	W96
@ 133   ----------------------------------------
	.byte	W96
@ 134   ----------------------------------------
	.byte	W96
@ 135   ----------------------------------------
	.byte	W96
@ 136   ----------------------------------------
	.byte	W96
@ 137   ----------------------------------------
	.byte	W96
@ 138   ----------------------------------------
	.byte	W96
@ 139   ----------------------------------------
	.byte	W84
	.byte		TIE   , An2 
	.byte		TIE   , Cn3 
	.byte		TIE   , En3 
	.byte		TIE   , An3 
	.byte	W12
@ 140   ----------------------------------------
	.byte	W96
@ 141   ----------------------------------------
	.byte	W80
	.byte	W03
	.byte		EOT   , An2 
	.byte		        Cn3 
	.byte		        En3 
	.byte		        An3 
	.byte	W01
	.byte		TIE   , Cn4 
	.byte		TIE   , En4 
	.byte	W12
@ 142   ----------------------------------------
	.byte	W96
@ 143   ----------------------------------------
	.byte	W80
	.byte	W03
	.byte		EOT   , Cn4 
	.byte		        En4 
	.byte	W01
	.byte		TIE   , An4 
	.byte	W12
@ 144   ----------------------------------------
	.byte	W96
@ 145   ----------------------------------------
	.byte	W84
	.byte		N92   , En5 
	.byte	W12
@ 146   ----------------------------------------
	.byte	W80
	.byte	W03
	.byte		EOT   , An4 
	.byte	W01
	.byte		TIE   , Dn2 
	.byte		TIE   , Fn2 
	.byte		TIE   , An2 
	.byte		TIE   , Cn3 
	.byte		TIE   , En3 
	.byte	W12
@ 147   ----------------------------------------
	.byte	W96
@ 148   ----------------------------------------
	.byte	W80
	.byte	W03
	.byte		EOT   , Dn2 
	.byte		        Fn2 
	.byte		        An2 
	.byte		        Cn3 
	.byte		        En3 
	.byte	W01
	.byte		TIE   , Fn2 
	.byte		TIE   , Gs2 
	.byte		TIE   , Cn3 
	.byte		TIE   , Ds3 
	.byte		TIE   , Gn3 
	.byte	W12
@ 149   ----------------------------------------
	.byte	W96
@ 150   ----------------------------------------
	.byte	W80
	.byte	W03
	.byte		EOT   , Fn2 
	.byte		        Gs2 
	.byte		        Cn3 
	.byte		        Ds3 
	.byte		        Gn3 
	.byte	W01
	.byte		TIE   , Gn2 
	.byte		TIE   , As2 
	.byte		TIE   , Dn3 
	.byte		TIE   , Ds3 
	.byte		TIE   , Gn3 
	.byte		TIE   , As3 
	.byte	W12
@ 151   ----------------------------------------
	.byte	W96
@ 152   ----------------------------------------
	.byte	W80
	.byte	W03
	.byte		EOT   , Gn2 
	.byte		        As2 
	.byte		        Dn3 
	.byte		        Ds3 
	.byte		        Gn3 
	.byte		        As3 
	.byte	W01
	.byte		N92   , Fn2 
	.byte		N92   , Gs2 
	.byte		N92   , Cn3 
	.byte		N92   , Fn3 
	.byte	W12
@ 153   ----------------------------------------
From_Shadows_9_153:
	.byte	W84
	.byte		N92   , Gn2 , v052
	.byte		N92   , As2 
	.byte		N92   , Dn3 
	.byte	W12
	.byte	PEND
@ 154   ----------------------------------------
	.byte	PATT
	 .word	From_Shadows_9_066
@ 155   ----------------------------------------
	.byte	W96
@ 156   ----------------------------------------
	.byte	W80
	.byte	W03
	.byte		EOT   , Dn2 
	.byte		        Fn2 
	.byte		        An2 
	.byte		        Cn3 
	.byte		        En3 
	.byte	W01
	.byte		TIE   , Dn2 , v052
	.byte		TIE   , Fn2 
	.byte		TIE   , Gs2 
	.byte		TIE   , Cn3 
	.byte		TIE   , Ds3 
	.byte		TIE   , Gn3 
	.byte	W12
@ 157   ----------------------------------------
	.byte	W96
@ 158   ----------------------------------------
	.byte	W80
	.byte	W03
	.byte		EOT   , Dn2 
	.byte		        Fn2 
	.byte		        Gs2 
	.byte		        Cn3 
	.byte		        Ds3 
	.byte		        Gn3 
	.byte	W01
	.byte		TIE   , Gn2 
	.byte		TIE   , As2 
	.byte		TIE   , Dn3 
	.byte		TIE   , Ds3 
	.byte		TIE   , Gn3 
	.byte		TIE   , As3 
	.byte	W12
@ 159   ----------------------------------------
	.byte	W96
@ 160   ----------------------------------------
	.byte	W80
	.byte	W03
	.byte		EOT   , Gn2 
	.byte		        As2 
	.byte		        Dn3 
	.byte		        Ds3 
	.byte		        Gn3 
	.byte		        As3 
	.byte	W01
	.byte		N92   , Fn2 
	.byte		N92   , Gs2 
	.byte		N92   , Cn3 
	.byte		N92   , Fn3 
	.byte	W12
@ 161   ----------------------------------------
	.byte	PATT
	 .word	From_Shadows_9_153
@ 162   ----------------------------------------
	.byte	PATT
	 .word	From_Shadows_9_082
@ 163   ----------------------------------------
	.byte	W96
@ 164   ----------------------------------------
	.byte	W80
	.byte	W03
	.byte		EOT   , Gn3 
	.byte		        Cn4 
	.byte		        Ds4 
	.byte	W01
	.byte		TIE   , Fn3 , v052
	.byte		TIE   , As3 
	.byte		TIE   , Cs4 
	.byte		TIE   , Dn4 
	.byte	W12
@ 165   ----------------------------------------
	.byte	W96
@ 166   ----------------------------------------
	.byte	W80
	.byte	W03
	.byte		EOT   , Fn3 
	.byte		        As3 
	.byte		        Cs4 
	.byte		        Dn4 
	.byte	W01
	.byte		TIE   , Gn3 
	.byte		TIE   , Cn4 
	.byte		TIE   , Ds4 
	.byte	W12
@ 167   ----------------------------------------
	.byte	W96
@ 168   ----------------------------------------
	.byte	W80
	.byte	W03
	.byte		EOT   , Gn3 
	.byte		        Cn4 
	.byte		        Ds4 
	.byte	W01
	.byte		TIE   , Fn3 
	.byte		TIE   , As3 
	.byte		TIE   , Dn4 
	.byte	W12
@ 169   ----------------------------------------
	.byte	W96
@ 170   ----------------------------------------
	.byte	W80
	.byte	W03
	.byte		EOT   , Fn3 
	.byte		        As3 
	.byte		        Dn4 
	.byte	W01
	.byte		TIE   , Cn3 
	.byte		TIE   , En3 
	.byte		TIE   , Fn3 
	.byte		TIE   , An3 
	.byte	W12
@ 171   ----------------------------------------
	.byte	W96
@ 172   ----------------------------------------
	.byte	W92
	.byte	W03
	.byte		EOT   , Cn3 
	.byte		        En3 
	.byte		        Fn3 
	.byte		        An3 
	.byte	W01
@ 173   ----------------------------------------
	.byte	W72
@ 174   ----------------------------------------
	.byte	W72
@ 175   ----------------------------------------
	.byte	W72
@ 176   ----------------------------------------
	.byte	W72
@ 177   ----------------------------------------
	.byte	W72
@ 178   ----------------------------------------
	.byte	W72
@ 179   ----------------------------------------
	.byte	W72
@ 180   ----------------------------------------
	.byte	W72
@ 181   ----------------------------------------
	.byte	W72
@ 182   ----------------------------------------
	.byte	W72
@ 183   ----------------------------------------
	.byte	W72
@ 184   ----------------------------------------
	.byte	W72
@ 185   ----------------------------------------
	.byte	W72
@ 186   ----------------------------------------
	.byte	W72
@ 187   ----------------------------------------
	.byte	W72
@ 188   ----------------------------------------
	.byte	W72
@ 189   ----------------------------------------
	.byte	W72
@ 190   ----------------------------------------
	.byte	W72
@ 191   ----------------------------------------
	.byte	W72
@ 192   ----------------------------------------
	.byte	W72
@ 193   ----------------------------------------
	.byte	W72
@ 194   ----------------------------------------
	.byte	W72
@ 195   ----------------------------------------
	.byte	W72
@ 196   ----------------------------------------
	.byte	W72
@ 197   ----------------------------------------
	.byte	W72
@ 198   ----------------------------------------
	.byte	W72
@ 199   ----------------------------------------
	.byte	W72
@ 200   ----------------------------------------
	.byte	W72
@ 201   ----------------------------------------
	.byte	W72
@ 202   ----------------------------------------
	.byte	W72
@ 203   ----------------------------------------
	.byte	W72
@ 204   ----------------------------------------
	.byte	W72
@ 205   ----------------------------------------
	.byte	W72
@ 206   ----------------------------------------
	.byte	W72
@ 207   ----------------------------------------
	.byte	W72
@ 208   ----------------------------------------
	.byte	W72
@ 209   ----------------------------------------
	.byte	W72
@ 210   ----------------------------------------
	.byte	W72
@ 211   ----------------------------------------
	.byte	W72
@ 212   ----------------------------------------
	.byte	W72
@ 213   ----------------------------------------
	.byte	W72
@ 214   ----------------------------------------
	.byte	W23
	.byte	GOTO
	 .word	From_Shadows_9_B1
From_Shadows_9_B2:
	.byte	FINE

@**************** Track 10 (Midi-Chn.10) ****************@

From_Shadows_10:
	.byte	KEYSH , From_Shadows_key+0
From_Shadows_10_B1:
@ 000   ----------------------------------------
	.byte		VOICE , 124
	.byte		VOL   , 127*From_Shadows_mvl/mxv
	.byte		PAN   , c_v+0
	.byte	W96
@ 001   ----------------------------------------
	.byte	W96
@ 002   ----------------------------------------
	.byte	W96
@ 003   ----------------------------------------
	.byte	W96
@ 004   ----------------------------------------
	.byte	W96
@ 005   ----------------------------------------
	.byte	W96
@ 006   ----------------------------------------
	.byte	W96
@ 007   ----------------------------------------
	.byte	W96
@ 008   ----------------------------------------
	.byte	W96
@ 009   ----------------------------------------
	.byte	W96
@ 010   ----------------------------------------
	.byte	W96
@ 011   ----------------------------------------
	.byte	W96
@ 012   ----------------------------------------
	.byte	W96
@ 013   ----------------------------------------
	.byte	W96
@ 014   ----------------------------------------
	.byte	W96
@ 015   ----------------------------------------
	.byte	W96
@ 016   ----------------------------------------
	.byte	W96
@ 017   ----------------------------------------
	.byte		N11   , Fs1 , v096
	.byte	W12
	.byte		N11   
	.byte	W12
	.byte		        As1 
	.byte	W12
	.byte		N05   , Fs1 
	.byte	W06
	.byte		N05   
	.byte	W06
	.byte		N05   
	.byte	W06
	.byte		N05   
	.byte	W06
	.byte		N11   
	.byte	W12
	.byte		N05   
	.byte	W06
	.byte		N05   
	.byte	W06
	.byte		N11   
	.byte	W12
@ 018   ----------------------------------------
From_Shadows_10_018:
	.byte		N05   , Fs1 , v096
	.byte	W06
	.byte		N05   
	.byte	W06
	.byte		N11   
	.byte	W12
	.byte		        As1 
	.byte	W12
	.byte		N05   , Fs1 
	.byte	W06
	.byte		N05   
	.byte	W06
	.byte		N05   
	.byte	W06
	.byte		N05   
	.byte	W06
	.byte		N11   
	.byte	W12
	.byte		N05   
	.byte	W06
	.byte		N05   
	.byte	W06
	.byte		N11   
	.byte	W12
	.byte	PEND
@ 019   ----------------------------------------
	.byte	PATT
	 .word	From_Shadows_10_018
@ 020   ----------------------------------------
	.byte	PATT
	 .word	From_Shadows_10_018
@ 021   ----------------------------------------
	.byte	PATT
	 .word	From_Shadows_10_018
@ 022   ----------------------------------------
	.byte	PATT
	 .word	From_Shadows_10_018
@ 023   ----------------------------------------
	.byte	PATT
	 .word	From_Shadows_10_018
@ 024   ----------------------------------------
	.byte	PATT
	 .word	From_Shadows_10_018
@ 025   ----------------------------------------
	.byte	PATT
	 .word	From_Shadows_10_018
@ 026   ----------------------------------------
	.byte	PATT
	 .word	From_Shadows_10_018
@ 027   ----------------------------------------
	.byte	PATT
	 .word	From_Shadows_10_018
@ 028   ----------------------------------------
	.byte	PATT
	 .word	From_Shadows_10_018
@ 029   ----------------------------------------
	.byte	PATT
	 .word	From_Shadows_10_018
@ 030   ----------------------------------------
	.byte	PATT
	 .word	From_Shadows_10_018
@ 031   ----------------------------------------
	.byte	PATT
	 .word	From_Shadows_10_018
@ 032   ----------------------------------------
	.byte	PATT
	 .word	From_Shadows_10_018
@ 033   ----------------------------------------
	.byte	PATT
	 .word	From_Shadows_10_018
@ 034   ----------------------------------------
	.byte	PATT
	 .word	From_Shadows_10_018
@ 035   ----------------------------------------
	.byte	PATT
	 .word	From_Shadows_10_018
@ 036   ----------------------------------------
	.byte	PATT
	 .word	From_Shadows_10_018
@ 037   ----------------------------------------
	.byte		N05   , Fs1 , v096
	.byte	W06
	.byte		N05   
	.byte	W06
	.byte		N11   
	.byte	W12
	.byte		        As1 
	.byte	W12
	.byte		N05   , Fs1 
	.byte	W06
	.byte		N05   
	.byte	W06
	.byte		N05   
	.byte	W06
	.byte		N05   
	.byte	W06
	.byte		N11   
	.byte	W12
@ 038   ----------------------------------------
	.byte		N23   , Cn1 
	.byte	W24
	.byte		        Dn1 
	.byte	W24
	.byte		N11   , Cn1 
	.byte	W12
	.byte		N11   
	.byte	W12
	.byte		        Dn1 
	.byte	W12
	.byte		N23   , Cn1 
	.byte	W12
@ 039   ----------------------------------------
	.byte	W12
	.byte		N11   
	.byte	W12
	.byte		        Dn1 
	.byte	W24
	.byte		        Cn1 
	.byte	W24
	.byte		N23   , Dn1 
	.byte	W24
@ 040   ----------------------------------------
From_Shadows_10_040:
	.byte		N23   , Cn1 , v096
	.byte		N03   , Fs1 
	.byte	W04
	.byte		N03   
	.byte	W04
	.byte		N03   
	.byte	W16
	.byte		N23   , Dn1 
	.byte		N05   , Fs1 
	.byte	W06
	.byte		        As1 
	.byte	W06
	.byte		        Fs1 
	.byte	W06
	.byte		N05   
	.byte	W06
	.byte		N11   , Cn1 
	.byte		N05   , Fs1 
	.byte	W06
	.byte		N05   
	.byte	W06
	.byte		N11   , Cn1 
	.byte		N05   , Fs1 
	.byte	W06
	.byte		N05   
	.byte	W06
	.byte		N11   , Dn1 
	.byte	W12
	.byte		N23   , Cn1 
	.byte		N11   , Fs1 
	.byte	W12
	.byte	PEND
@ 041   ----------------------------------------
From_Shadows_10_041:
	.byte		N03   , Fs1 , v096
	.byte	W04
	.byte		N03   
	.byte	W04
	.byte		N03   
	.byte	W04
	.byte		N11   , Cn1 
	.byte	W12
	.byte		        Dn1 
	.byte		N05   , Fs1 
	.byte	W06
	.byte		        As1 
	.byte	W06
	.byte		N11   , Cn1 
	.byte		N05   , Fs1 
	.byte	W06
	.byte		N05   
	.byte	W06
	.byte		N11   , Cn1 
	.byte		N05   , Fs1 
	.byte	W06
	.byte		N05   
	.byte	W06
	.byte		N05   
	.byte	W06
	.byte		N05   
	.byte	W06
	.byte		N23   , Dn1 
	.byte		N05   , Fs1 
	.byte	W06
	.byte		        As1 
	.byte	W06
	.byte		N11   , Fs1 
	.byte	W12
	.byte	PEND
@ 042   ----------------------------------------
	.byte	PATT
	 .word	From_Shadows_10_040
@ 043   ----------------------------------------
	.byte	PATT
	 .word	From_Shadows_10_041
@ 044   ----------------------------------------
	.byte	PATT
	 .word	From_Shadows_10_040
@ 045   ----------------------------------------
	.byte	PATT
	 .word	From_Shadows_10_041
@ 046   ----------------------------------------
	.byte	PATT
	 .word	From_Shadows_10_040
@ 047   ----------------------------------------
	.byte	PATT
	 .word	From_Shadows_10_041
@ 048   ----------------------------------------
	.byte	PATT
	 .word	From_Shadows_10_040
@ 049   ----------------------------------------
From_Shadows_10_049:
	.byte		N03   , Fs1 , v096
	.byte	W04
	.byte		N03   
	.byte	W04
	.byte		N03   
	.byte	W04
	.byte		N11   , Cn1 
	.byte	W12
	.byte		        Dn1 
	.byte		N05   , Fs1 
	.byte	W06
	.byte		        As1 
	.byte	W06
	.byte		        Fs1 
	.byte	W06
	.byte		N05   
	.byte	W06
	.byte		N11   , Cn1 
	.byte		N05   , Fs1 
	.byte	W06
	.byte		N05   
	.byte	W06
	.byte		N05   
	.byte	W06
	.byte		N05   
	.byte	W06
	.byte		N23   , Dn1 
	.byte		N05   , Fs1 
	.byte	W06
	.byte		        As1 
	.byte	W06
	.byte		N11   , Fs1 
	.byte	W12
	.byte	PEND
@ 050   ----------------------------------------
	.byte	PATT
	 .word	From_Shadows_10_040
@ 051   ----------------------------------------
	.byte	PATT
	 .word	From_Shadows_10_049
@ 052   ----------------------------------------
From_Shadows_10_052:
	.byte		N11   , Cn1 , v096
	.byte		N05   , Cs1 
	.byte		N11   , As1 
	.byte	W06
	.byte		N05   , Cs1 
	.byte	W06
	.byte		N05   
	.byte		N11   , As1 
	.byte	W06
	.byte		N05   , Cs1 
	.byte	W06
	.byte		N11   , Dn1 
	.byte	W12
	.byte		        Cs1 
	.byte		N11   , Fs1 
	.byte	W12
	.byte		N05   , Cn1 
	.byte		N05   , Fs1 
	.byte	W06
	.byte		        Cs1 
	.byte		N05   , An1 
	.byte	W06
	.byte		N11   , Cn1 
	.byte	W12
	.byte		N05   , Dn1 
	.byte	W06
	.byte		        Cn1 
	.byte		N05   , Fs1 
	.byte	W06
	.byte		N11   , Cn1 
	.byte		N11   , Fs1 
	.byte	W12
	.byte	PEND
@ 053   ----------------------------------------
From_Shadows_10_053:
	.byte		N11   , Cn1 , v096
	.byte		N11   , As1 
	.byte	W12
	.byte		        Cn1 
	.byte		N05   , Fs1 
	.byte	W06
	.byte		N05   
	.byte	W06
	.byte		N11   , Dn1 
	.byte	W12
	.byte		        Cn1 
	.byte	W12
	.byte		N11   
	.byte		N11   , As1 
	.byte	W12
	.byte		        Cn1 
	.byte		N11   , Fs1 
	.byte	W12
	.byte		N23   , Dn1 
	.byte		N05   , Fs1 
	.byte	W06
	.byte		N05   
	.byte	W06
	.byte		N05   
	.byte	W06
	.byte		N05   
	.byte	W06
	.byte	PEND
@ 054   ----------------------------------------
	.byte	PATT
	 .word	From_Shadows_10_052
@ 055   ----------------------------------------
	.byte	PATT
	 .word	From_Shadows_10_053
@ 056   ----------------------------------------
	.byte		N23   , Cn1 , v096
	.byte		N11   , As1 
	.byte	W12
	.byte		N11   
	.byte	W12
	.byte		N23   , Dn1 
	.byte	W12
	.byte		N11   , Fs1 
	.byte	W12
	.byte		        Cn1 
	.byte		N11   , Fs1 
	.byte	W12
	.byte		        Cn1 
	.byte	W12
	.byte		        Dn1 
	.byte	W06
	.byte		N05   , Fs1 
	.byte	W06
	.byte		N11   , Cn1 
	.byte		N11   , Fs1 
	.byte	W12
@ 057   ----------------------------------------
	.byte		N11   
	.byte	W12
	.byte		N11   
	.byte	W12
	.byte		N05   
	.byte	W06
	.byte		N05   
	.byte	W06
	.byte		N05   
	.byte	W06
	.byte		N05   
	.byte	W06
	.byte		N05   
	.byte	W06
	.byte		N05   
	.byte	W06
	.byte		N05   
	.byte	W06
	.byte		N05   
	.byte	W06
	.byte		N05   
	.byte	W06
	.byte		N05   
	.byte	W06
	.byte		N05   
	.byte	W06
	.byte		N05   
	.byte	W06
@ 058   ----------------------------------------
From_Shadows_10_058:
	.byte		N05   , Fs1 , v096
	.byte	W06
	.byte		N05   
	.byte	W06
	.byte		N05   
	.byte	W06
	.byte		N05   
	.byte	W06
	.byte		N05   
	.byte	W06
	.byte		N05   
	.byte	W06
	.byte		N05   
	.byte	W06
	.byte		N05   
	.byte	W06
	.byte		N05   
	.byte	W06
	.byte		N05   
	.byte	W06
	.byte		N05   
	.byte	W06
	.byte		N05   
	.byte	W06
	.byte		N05   
	.byte	W06
	.byte		N05   
	.byte	W06
	.byte		N05   
	.byte	W06
	.byte		N05   
	.byte	W06
	.byte	PEND
@ 059   ----------------------------------------
	.byte	PATT
	 .word	From_Shadows_10_058
@ 060   ----------------------------------------
	.byte	PATT
	 .word	From_Shadows_10_058
@ 061   ----------------------------------------
	.byte	PATT
	 .word	From_Shadows_10_058
@ 062   ----------------------------------------
	.byte	PATT
	 .word	From_Shadows_10_058
@ 063   ----------------------------------------
	.byte	PATT
	 .word	From_Shadows_10_058
@ 064   ----------------------------------------
	.byte	PATT
	 .word	From_Shadows_10_058
@ 065   ----------------------------------------
	.byte		N11   , Dn1 , v096
	.byte	W12
	.byte		N11   
	.byte	W12
	.byte		N05   
	.byte		N05   , Fs1 
	.byte	W06
	.byte		        Cs1 
	.byte	W06
	.byte		        As1 
	.byte	W06
	.byte		        Cs1 
	.byte	W06
	.byte		N08   , Dn1 
	.byte	W09
	.byte		N02   , As1 
	.byte	W03
	.byte		N03   , Cs1 
	.byte	W04
	.byte		        Dn1 
	.byte	W04
	.byte		N03   
	.byte	W04
	.byte		        Cs1 
	.byte	W04
	.byte		N03   
	.byte	W04
	.byte		N03   
	.byte	W04
	.byte		N05   , Dn1 
	.byte	W06
	.byte		N05   
	.byte	W06
@ 066   ----------------------------------------
	.byte		        Cn1 
	.byte	W06
	.byte		N05   
	.byte	W06
	.byte		N05   
	.byte	W06
	.byte		N05   
	.byte	W06
	.byte		N05   
	.byte	W06
	.byte		N05   
	.byte	W06
	.byte		N11   
	.byte	W48
	.byte		N23   
	.byte		N23   , As1 
	.byte	W12
@ 067   ----------------------------------------
	.byte	W12
	.byte		N11   , Cn1 
	.byte		N11   , Fs1 
	.byte	W12
	.byte		        As1 
	.byte	W12
	.byte		N05   , Cn1 
	.byte		N05   , Fs1 
	.byte	W06
	.byte		        Dn1 
	.byte		N05   , Fs1 
	.byte	W06
	.byte		        Cn1 
	.byte		N05   , Fs1 
	.byte	W06
	.byte		N05   
	.byte	W06
	.byte		N11   , Cn1 
	.byte		N11   , Fs1 
	.byte	W12
	.byte		N05   , Dn1 
	.byte		N05   , Fs1 
	.byte	W06
	.byte		N05   
	.byte	W06
	.byte		N23   , Cn1 
	.byte		N11   , Fs1 
	.byte	W12
@ 068   ----------------------------------------
From_Shadows_10_068:
	.byte		N11   , Fs1 , v096
	.byte	W12
	.byte		        Cn1 
	.byte		N11   , Fs1 
	.byte	W12
	.byte		        Dn1 
	.byte	W12
	.byte		N05   , Cn1 
	.byte		N05   , Fs1 
	.byte	W06
	.byte		        Dn1 
	.byte		N05   , Fs1 
	.byte	W06
	.byte		        Cn1 
	.byte		N05   , Fs1 
	.byte	W06
	.byte		N05   
	.byte	W06
	.byte		N11   , Cn1 
	.byte		N11   , Fs1 
	.byte	W12
	.byte		N05   , Dn1 
	.byte		N05   , Fs1 
	.byte	W06
	.byte		N05   
	.byte	W06
	.byte		N23   , Cn1 
	.byte		N11   , Fs1 
	.byte	W12
	.byte	PEND
@ 069   ----------------------------------------
	.byte	PATT
	 .word	From_Shadows_10_068
@ 070   ----------------------------------------
	.byte	PATT
	 .word	From_Shadows_10_068
@ 071   ----------------------------------------
	.byte	PATT
	 .word	From_Shadows_10_068
@ 072   ----------------------------------------
	.byte	PATT
	 .word	From_Shadows_10_068
@ 073   ----------------------------------------
	.byte	PATT
	 .word	From_Shadows_10_068
@ 074   ----------------------------------------
	.byte		N11   , Fs1 , v096
	.byte	W12
	.byte		        Cn1 
	.byte		N11   , Fs1 
	.byte	W12
	.byte		        Dn1 
	.byte	W12
	.byte		N05   , Cn1 
	.byte		N05   , Fs1 
	.byte	W06
	.byte		        Dn1 
	.byte		N05   , Fs1 
	.byte	W06
	.byte		        Cn1 
	.byte		N05   , Fs1 
	.byte	W06
	.byte		N05   
	.byte	W06
	.byte		N11   , Cn1 
	.byte		N11   , Fs1 
	.byte	W12
	.byte		N05   , Dn1 
	.byte		N05   , Fs1 
	.byte	W06
	.byte		N05   
	.byte	W06
	.byte		N23   , Cn1 
	.byte		N11   , Fs1 
	.byte		N23   , As1 
	.byte	W12
@ 075   ----------------------------------------
	.byte		N11   , Fs1 
	.byte	W12
	.byte		        Cn1 
	.byte		N11   , Fs1 
	.byte	W12
	.byte		        As1 
	.byte	W12
	.byte		N05   , Cn1 
	.byte		N05   , Fs1 
	.byte	W06
	.byte		        Dn1 
	.byte		N05   , Fs1 
	.byte	W06
	.byte		        Cn1 
	.byte		N05   , Fs1 
	.byte	W06
	.byte		N05   
	.byte	W06
	.byte		N11   , Cn1 
	.byte		N11   , Fs1 
	.byte	W12
	.byte		N05   , Dn1 
	.byte		N05   , Fs1 
	.byte	W06
	.byte		N05   
	.byte	W06
	.byte		N23   , Cn1 
	.byte		N11   , Fs1 
	.byte	W12
@ 076   ----------------------------------------
	.byte	PATT
	 .word	From_Shadows_10_068
@ 077   ----------------------------------------
	.byte	PATT
	 .word	From_Shadows_10_068
@ 078   ----------------------------------------
	.byte	PATT
	 .word	From_Shadows_10_068
@ 079   ----------------------------------------
	.byte	PATT
	 .word	From_Shadows_10_068
@ 080   ----------------------------------------
	.byte	PATT
	 .word	From_Shadows_10_068
@ 081   ----------------------------------------
	.byte		N11   , Fs1 , v096
	.byte	W12
	.byte		        Cn1 
	.byte		N11   , Fs1 
	.byte	W12
	.byte		        Dn1 
	.byte	W12
	.byte		N05   , Cn1 
	.byte		N05   , Fs1 
	.byte	W06
	.byte		        Dn1 
	.byte		N05   , Fs1 
	.byte	W06
	.byte		        Cn1 
	.byte		N05   , Fs1 
	.byte	W06
	.byte		N05   
	.byte	W06
	.byte		N11   , Cn1 
	.byte		N11   , Fs1 
	.byte	W12
	.byte		N05   , Dn1 
	.byte		N05   , Fs1 
	.byte	W06
	.byte		N05   
	.byte	W06
	.byte		N11   , Cn1 
	.byte		N11   , Fs1 
	.byte	W12
@ 082   ----------------------------------------
	.byte		        Dn1 
	.byte		N11   , Fs1 
	.byte	W12
	.byte		        Dn1 
	.byte		N11   , Fs1 
	.byte	W12
	.byte		        Dn1 
	.byte		N11   , As1 
	.byte	W12
	.byte		N05   , Cn1 
	.byte		N05   , Fs1 
	.byte	W06
	.byte		N05   
	.byte	W06
	.byte		        Dn1 
	.byte		N05   , Fs1 
	.byte	W06
	.byte		N05   
	.byte	W06
	.byte		N11   , Cn1 
	.byte		N11   , Dn1 
	.byte		N11   , Fs1 
	.byte		N11   , As1 
	.byte	W12
	.byte		N05   , Cn1 
	.byte		N05   , Dn1 
	.byte		N05   , Fs1 
	.byte		N05   , As1 
	.byte	W06
	.byte		        Fs1 
	.byte	W06
	.byte		N23   , Cn1 
	.byte		N23   , Dn1 
	.byte		N23   , As1 
	.byte	W12
@ 083   ----------------------------------------
From_Shadows_10_083:
	.byte	W12
	.byte		N11   , Cn1 , v096
	.byte	W12
	.byte		        Dn1 
	.byte		N11   , Ds2 
	.byte	W12
	.byte		N05   , An1 
	.byte	W06
	.byte		        Cn1 
	.byte	W06
	.byte		N11   
	.byte		N11   , Ds2 
	.byte	W12
	.byte		        Cn1 
	.byte	W12
	.byte		        Dn1 
	.byte		N11   , Ds2 
	.byte	W12
	.byte		N23   , Cn1 
	.byte	W12
	.byte	PEND
@ 084   ----------------------------------------
From_Shadows_10_084:
	.byte		N11   , Ds2 , v096
	.byte	W12
	.byte		        Cn1 
	.byte	W12
	.byte		        Dn1 
	.byte		N11   , Ds2 
	.byte	W12
	.byte		N05   , An1 
	.byte	W06
	.byte		        Cn1 
	.byte	W06
	.byte		N11   
	.byte		N11   , Ds2 
	.byte	W12
	.byte		        Cn1 
	.byte	W12
	.byte		        Dn1 
	.byte		N11   , Ds2 
	.byte	W12
	.byte		N23   , Cn1 
	.byte	W12
	.byte	PEND
@ 085   ----------------------------------------
	.byte	PATT
	 .word	From_Shadows_10_084
@ 086   ----------------------------------------
	.byte	PATT
	 .word	From_Shadows_10_084
@ 087   ----------------------------------------
	.byte	PATT
	 .word	From_Shadows_10_084
@ 088   ----------------------------------------
	.byte	PATT
	 .word	From_Shadows_10_084
@ 089   ----------------------------------------
	.byte	PATT
	 .word	From_Shadows_10_084
@ 090   ----------------------------------------
	.byte		N11   , Ds2 , v096
	.byte	W12
	.byte		        Cn1 
	.byte	W12
	.byte		        Dn1 
	.byte		N11   , Ds2 
	.byte	W12
	.byte		N05   , An1 
	.byte	W06
	.byte		        Cn1 
	.byte	W06
	.byte		N11   
	.byte		N11   , Ds2 
	.byte	W12
	.byte		        Cn1 
	.byte	W12
	.byte		        Dn1 
	.byte		N11   , Ds2 
	.byte	W12
	.byte		N23   , Cn1 
	.byte		N23   , As1 
	.byte	W12
@ 091   ----------------------------------------
	.byte	PATT
	 .word	From_Shadows_10_083
@ 092   ----------------------------------------
	.byte	PATT
	 .word	From_Shadows_10_084
@ 093   ----------------------------------------
	.byte	PATT
	 .word	From_Shadows_10_084
@ 094   ----------------------------------------
	.byte	PATT
	 .word	From_Shadows_10_084
@ 095   ----------------------------------------
	.byte	PATT
	 .word	From_Shadows_10_084
@ 096   ----------------------------------------
	.byte	PATT
	 .word	From_Shadows_10_084
@ 097   ----------------------------------------
	.byte		N11   , Ds2 , v096
	.byte	W12
	.byte		        Cn1 
	.byte	W12
	.byte		        Dn1 
	.byte		N11   , Ds2 
	.byte	W12
	.byte		N05   , An1 
	.byte	W06
	.byte		        Cn1 
	.byte	W06
	.byte		N11   
	.byte		N11   , Ds2 
	.byte	W12
	.byte		        Cn1 
	.byte	W12
	.byte		        Dn1 
	.byte		N11   , Ds2 
	.byte	W12
	.byte		        Cn1 
	.byte	W12
@ 098   ----------------------------------------
	.byte		N05   , Dn1 
	.byte		N05   , As1 
	.byte	W06
	.byte		        Dn1 
	.byte	W06
	.byte		N05   
	.byte	W06
	.byte		N05   
	.byte	W06
	.byte		N05   
	.byte		N05   , As1 
	.byte	W06
	.byte		        Dn1 
	.byte	W06
	.byte		N05   
	.byte	W06
	.byte		N05   
	.byte	W06
	.byte		N05   
	.byte		N05   , As1 
	.byte	W06
	.byte		        Dn1 
	.byte	W06
	.byte		N05   
	.byte	W06
	.byte		N05   
	.byte	W06
	.byte		N05   
	.byte		N05   , As1 
	.byte	W06
	.byte		        Dn1 
	.byte	W06
	.byte		        Dn2 
	.byte	W06
	.byte		        An1 
	.byte	W06
@ 099   ----------------------------------------
	.byte		N11   , Cn1 
	.byte	W12
	.byte		N11   
	.byte	W12
	.byte		N05   , Dn1 
	.byte	W06
	.byte		        Cn1 
	.byte	W06
	.byte		N05   
	.byte	W06
	.byte		N05   
	.byte	W06
	.byte		N05   
	.byte	W06
	.byte		N05   
	.byte	W06
	.byte		N05   
	.byte	W06
	.byte		N05   
	.byte	W06
	.byte		        Dn1 
	.byte	W06
	.byte		        Cn1 
	.byte	W06
	.byte		N05   
	.byte	W06
	.byte		N05   
	.byte	W06
@ 100   ----------------------------------------
From_Shadows_10_100:
	.byte		N05   , Cn1 , v096
	.byte	W06
	.byte		N05   
	.byte	W06
	.byte		N05   
	.byte	W06
	.byte		N05   
	.byte	W06
	.byte		        Dn1 
	.byte	W06
	.byte		        Cn1 
	.byte	W06
	.byte		N05   
	.byte	W06
	.byte		N05   
	.byte	W06
	.byte		N05   
	.byte	W06
	.byte		N05   
	.byte	W06
	.byte		N05   
	.byte	W06
	.byte		N05   
	.byte	W06
	.byte		        Dn1 
	.byte	W06
	.byte		        Cn1 
	.byte	W06
	.byte		N05   
	.byte	W06
	.byte		N05   
	.byte	W06
	.byte	PEND
@ 101   ----------------------------------------
	.byte	PATT
	 .word	From_Shadows_10_100
@ 102   ----------------------------------------
	.byte		N07   , Cn1 , v096
	.byte	W08
	.byte		N07   
	.byte	W08
	.byte		N07   
	.byte	W08
	.byte		N07   
	.byte	W08
	.byte		N07   
	.byte	W08
	.byte		N07   
	.byte	W08
	.byte		N07   
	.byte	W08
	.byte		N07   
	.byte	W08
	.byte		N07   
	.byte	W08
	.byte		N07   
	.byte	W08
	.byte		N07   
	.byte	W08
	.byte		N07   
	.byte	W08
@ 103   ----------------------------------------
	.byte		N05   
	.byte		N05   , Fs1 
	.byte		N05   , As1 
	.byte	W06
	.byte		        Cn1 
	.byte		N05   , Fs1 
	.byte	W06
	.byte		        Cn1 
	.byte		N05   , Fs1 
	.byte	W06
	.byte		        Cn1 
	.byte	W06
	.byte		        Dn1 
	.byte		N05   , Fs1 
	.byte	W06
	.byte		        Cn1 
	.byte	W06
	.byte		N05   
	.byte		N05   , Fs1 
	.byte	W06
	.byte		        Cn1 
	.byte		N05   , Fs1 
	.byte	W06
	.byte		        Cn1 
	.byte		N05   , Fs1 
	.byte	W06
	.byte		        Cn1 
	.byte	W06
	.byte		N05   
	.byte		N05   , Fs1 
	.byte	W06
	.byte		        Cn1 
	.byte	W06
	.byte		        Dn1 
	.byte		N05   , Fs1 
	.byte	W06
	.byte		        Cn1 
	.byte	W06
	.byte		N05   
	.byte		N05   , Fs1 
	.byte	W06
	.byte		        Cn1 
	.byte	W06
@ 104   ----------------------------------------
From_Shadows_10_104:
	.byte		N05   , Cn1 , v096
	.byte		N05   , Fs1 
	.byte	W06
	.byte		        Cn1 
	.byte		N05   , Fs1 
	.byte	W06
	.byte		        Cn1 
	.byte		N05   , Fs1 
	.byte	W06
	.byte		        Cn1 
	.byte	W06
	.byte		        Dn1 
	.byte		N05   , Fs1 
	.byte	W06
	.byte		        Cn1 
	.byte	W06
	.byte		N05   
	.byte		N05   , Fs1 
	.byte	W06
	.byte		        Cn1 
	.byte		N05   , Fs1 
	.byte	W06
	.byte		        Cn1 
	.byte		N05   , Fs1 
	.byte	W06
	.byte		        Cn1 
	.byte	W06
	.byte		N05   
	.byte		N05   , Fs1 
	.byte	W06
	.byte		        Cn1 
	.byte	W06
	.byte		        Dn1 
	.byte		N05   , Fs1 
	.byte	W06
	.byte		        Cn1 
	.byte	W06
	.byte		N05   
	.byte		N05   , Fs1 
	.byte	W06
	.byte		        Cn1 
	.byte	W06
	.byte	PEND
@ 105   ----------------------------------------
	.byte	PATT
	 .word	From_Shadows_10_104
@ 106   ----------------------------------------
	.byte	PATT
	 .word	From_Shadows_10_104
@ 107   ----------------------------------------
	.byte	PATT
	 .word	From_Shadows_10_104
@ 108   ----------------------------------------
	.byte	PATT
	 .word	From_Shadows_10_104
@ 109   ----------------------------------------
	.byte	PATT
	 .word	From_Shadows_10_104
@ 110   ----------------------------------------
	.byte	PATT
	 .word	From_Shadows_10_104
@ 111   ----------------------------------------
	.byte	PATT
	 .word	From_Shadows_10_104
@ 112   ----------------------------------------
	.byte	PATT
	 .word	From_Shadows_10_104
@ 113   ----------------------------------------
	.byte		N05   , Cn1 , v096
	.byte		N05   , Fs1 
	.byte	W06
	.byte		N05   
	.byte	W06
	.byte		N11   
	.byte	W24
	.byte		N05   , Cn1 
	.byte		N05   , Dn1 
	.byte		N05   , Fs1 
	.byte	W06
	.byte		        Cn1 
	.byte		N05   , Fs1 
	.byte	W06
	.byte		N11   , Cn1 
	.byte		N11   , Fs1 
	.byte	W24
	.byte		        Cn1 
	.byte		N11   , Dn1 
	.byte		N11   , Fs1 
	.byte	W12
	.byte		        Cn1 
	.byte		N11   , Fs1 
	.byte	W12
@ 114   ----------------------------------------
	.byte	W96
@ 115   ----------------------------------------
	.byte		N05   , Dn1 
	.byte	W06
	.byte		N05   
	.byte	W06
	.byte		N05   
	.byte	W06
	.byte		N05   
	.byte	W06
	.byte		N05   
	.byte	W06
	.byte		N05   
	.byte	W06
	.byte		N05   
	.byte	W06
	.byte		N05   
	.byte	W06
	.byte		N05   
	.byte	W06
	.byte		N05   
	.byte	W06
	.byte		N05   
	.byte	W06
	.byte		N05   
	.byte	W06
	.byte		N05   
	.byte	W06
	.byte		N05   
	.byte	W06
	.byte		N23   , Cn1 
	.byte		N23   , Dn1 
	.byte		N23   , As1 
	.byte	W12
@ 116   ----------------------------------------
From_Shadows_10_116:
	.byte	W12
	.byte		N11   , Cn1 , v096
	.byte	W12
	.byte		        Dn1 
	.byte	W12
	.byte		        Cn1 
	.byte	W12
	.byte		N11   
	.byte	W12
	.byte		N11   
	.byte	W12
	.byte		        Dn1 
	.byte	W12
	.byte		N23   , Cn1 
	.byte	W12
	.byte	PEND
@ 117   ----------------------------------------
	.byte	PATT
	 .word	From_Shadows_10_116
@ 118   ----------------------------------------
	.byte	PATT
	 .word	From_Shadows_10_116
@ 119   ----------------------------------------
	.byte	PATT
	 .word	From_Shadows_10_116
@ 120   ----------------------------------------
	.byte	PATT
	 .word	From_Shadows_10_116
@ 121   ----------------------------------------
	.byte	PATT
	 .word	From_Shadows_10_116
@ 122   ----------------------------------------
	.byte	PATT
	 .word	From_Shadows_10_116
@ 123   ----------------------------------------
	.byte	W12
	.byte		N11   , Cn1 , v096
	.byte	W12
	.byte		        Dn1 
	.byte	W12
	.byte		        Cn1 
	.byte	W12
	.byte		N11   
	.byte	W12
	.byte		N11   
	.byte	W12
	.byte		        Dn1 
	.byte	W12
	.byte		N23   , Cn1 
	.byte		N23   , Dn1 
	.byte		N23   , As1 
	.byte	W12
@ 124   ----------------------------------------
From_Shadows_10_124:
	.byte	W12
	.byte		N11   , Cn1 , v096
	.byte	W12
	.byte		        Dn1 
	.byte	W12
	.byte		N05   , Cn1 
	.byte	W06
	.byte		        Dn1 
	.byte	W06
	.byte		N11   , Cn1 
	.byte	W12
	.byte		N11   
	.byte	W12
	.byte		        Dn1 
	.byte	W12
	.byte		N23   , Cn1 
	.byte	W12
	.byte	PEND
@ 125   ----------------------------------------
	.byte	PATT
	 .word	From_Shadows_10_124
@ 126   ----------------------------------------
	.byte	PATT
	 .word	From_Shadows_10_124
@ 127   ----------------------------------------
	.byte	PATT
	 .word	From_Shadows_10_124
@ 128   ----------------------------------------
	.byte	PATT
	 .word	From_Shadows_10_124
@ 129   ----------------------------------------
	.byte	PATT
	 .word	From_Shadows_10_124
@ 130   ----------------------------------------
	.byte	PATT
	 .word	From_Shadows_10_124
@ 131   ----------------------------------------
	.byte	W12
	.byte		N11   , Cn1 , v096
	.byte	W12
	.byte		        Dn1 
	.byte	W12
	.byte		        Cn1 
	.byte	W12
	.byte		N11   
	.byte	W12
	.byte		N05   
	.byte		N05   , Dn1 
	.byte	W06
	.byte		        Cn1 
	.byte		N05   , Dn1 
	.byte	W06
	.byte		N11   , Cn1 
	.byte		N11   , Dn1 
	.byte	W12
	.byte		N23   , Cn1 
	.byte		N23   , Dn1 
	.byte		N23   , As1 
	.byte	W12
@ 132   ----------------------------------------
	.byte	W12
	.byte		N11   , Cn1 
	.byte	W12
	.byte		        Dn1 
	.byte		N11   , Ds2 
	.byte	W12
	.byte		        Cn1 
	.byte	W12
	.byte		N11   
	.byte		N11   , Ds2 
	.byte	W12
	.byte		        Cn1 
	.byte	W12
	.byte		        Dn1 
	.byte		N11   , Ds2 
	.byte	W12
	.byte		N23   , Cn1 
	.byte	W12
@ 133   ----------------------------------------
From_Shadows_10_133:
	.byte		N11   , Ds2 , v096
	.byte	W12
	.byte		        Cn1 
	.byte	W12
	.byte		        Dn1 
	.byte		N11   , Ds2 
	.byte	W12
	.byte		N05   , Cn1 
	.byte	W06
	.byte		        Dn1 
	.byte	W06
	.byte		N11   , Cn1 
	.byte		N11   , Ds2 
	.byte	W12
	.byte		        Cn1 
	.byte	W12
	.byte		        Dn1 
	.byte		N11   , Ds2 
	.byte	W12
	.byte		N23   , Cn1 
	.byte	W12
	.byte	PEND
@ 134   ----------------------------------------
	.byte	PATT
	 .word	From_Shadows_10_133
@ 135   ----------------------------------------
	.byte	PATT
	 .word	From_Shadows_10_133
@ 136   ----------------------------------------
	.byte	PATT
	 .word	From_Shadows_10_133
@ 137   ----------------------------------------
	.byte	PATT
	 .word	From_Shadows_10_133
@ 138   ----------------------------------------
	.byte	PATT
	 .word	From_Shadows_10_133
@ 139   ----------------------------------------
	.byte	PATT
	 .word	From_Shadows_10_133
@ 140   ----------------------------------------
	.byte	PATT
	 .word	From_Shadows_10_133
@ 141   ----------------------------------------
	.byte	PATT
	 .word	From_Shadows_10_133
@ 142   ----------------------------------------
	.byte	PATT
	 .word	From_Shadows_10_133
@ 143   ----------------------------------------
	.byte	PATT
	 .word	From_Shadows_10_133
@ 144   ----------------------------------------
	.byte		N11   , Ds2 , v096
	.byte	W12
	.byte		        Cn1 
	.byte	W12
	.byte		        Dn1 
	.byte		N11   , Ds2 
	.byte	W12
	.byte		N05   , Cn1 
	.byte	W06
	.byte		        Dn1 
	.byte	W06
	.byte		N11   , Cn1 
	.byte		N11   , Ds2 
	.byte	W12
	.byte		        Cn1 
	.byte	W12
	.byte		        Dn1 
	.byte		N11   , Ds2 
	.byte	W12
	.byte		        Cn1 
	.byte	W12
@ 145   ----------------------------------------
	.byte		        Dn1 
	.byte	W12
	.byte		        Cn1 
	.byte	W12
	.byte		        Dn1 
	.byte	W12
	.byte		        Cn1 
	.byte	W12
	.byte		        Dn1 
	.byte	W12
	.byte		N11   
	.byte	W12
	.byte		        Cn1 
	.byte	W12
	.byte		N11   
	.byte	W12
@ 146   ----------------------------------------
	.byte		N05   , Dn1 
	.byte	W06
	.byte		        Cn1 
	.byte	W06
	.byte		N05   
	.byte	W06
	.byte		N05   
	.byte	W06
	.byte		        Dn1 
	.byte	W06
	.byte		        Cn1 
	.byte	W06
	.byte		N05   
	.byte	W06
	.byte		N05   
	.byte	W06
	.byte		N11   , Dn1 
	.byte	W36
	.byte		N23   , Cn1 
	.byte		N23   , Dn1 
	.byte		N23   , As1 
	.byte	W12
@ 147   ----------------------------------------
	.byte	W12
	.byte		N11   , Cn1 
	.byte		N11   , Fs1 
	.byte	W12
	.byte		        Dn1 
	.byte		N11   , As1 
	.byte	W12
	.byte		N05   , Cn1 
	.byte		N05   , Fs1 
	.byte	W06
	.byte		        Dn1 
	.byte		N05   , Fs1 
	.byte	W06
	.byte		        Cn1 
	.byte		N05   , Fs1 
	.byte	W06
	.byte		N05   
	.byte	W06
	.byte		N11   , Cn1 
	.byte		N11   , Fs1 
	.byte	W12
	.byte		N05   , Dn1 
	.byte		N05   , Fs1 
	.byte	W06
	.byte		N05   
	.byte	W06
	.byte		N23   , Cn1 
	.byte		N11   , Fs1 
	.byte	W12
@ 148   ----------------------------------------
From_Shadows_10_148:
	.byte		N11   , Fs1 , v096
	.byte	W12
	.byte		        Cn1 
	.byte		N11   , Fs1 
	.byte	W12
	.byte		        Dn1 
	.byte		N11   , As1 
	.byte	W12
	.byte		N05   , Cn1 
	.byte		N05   , Fs1 
	.byte	W06
	.byte		        Dn1 
	.byte		N05   , Fs1 
	.byte	W06
	.byte		        Cn1 
	.byte		N05   , Fs1 
	.byte	W06
	.byte		N05   
	.byte	W06
	.byte		N11   , Cn1 
	.byte		N11   , Fs1 
	.byte	W12
	.byte		N05   , Dn1 
	.byte		N05   , Fs1 
	.byte	W06
	.byte		N05   
	.byte	W06
	.byte		N23   , Cn1 
	.byte		N11   , Fs1 
	.byte	W12
	.byte	PEND
@ 149   ----------------------------------------
	.byte	PATT
	 .word	From_Shadows_10_148
@ 150   ----------------------------------------
	.byte	PATT
	 .word	From_Shadows_10_148
@ 151   ----------------------------------------
	.byte	PATT
	 .word	From_Shadows_10_148
@ 152   ----------------------------------------
	.byte	PATT
	 .word	From_Shadows_10_148
@ 153   ----------------------------------------
	.byte	PATT
	 .word	From_Shadows_10_148
@ 154   ----------------------------------------
	.byte		N11   , Fs1 , v096
	.byte	W12
	.byte		        Cn1 
	.byte		N11   , Fs1 
	.byte	W12
	.byte		        Dn1 
	.byte		N11   , As1 
	.byte	W12
	.byte		N05   , Cn1 
	.byte		N05   , Fs1 
	.byte	W06
	.byte		        Dn1 
	.byte		N05   , Fs1 
	.byte	W06
	.byte		        Cn1 
	.byte		N05   , Fs1 
	.byte	W06
	.byte		N05   
	.byte	W06
	.byte		N11   , Cn1 
	.byte		N11   , Fs1 
	.byte	W12
	.byte		N05   , Dn1 
	.byte		N05   , Fs1 
	.byte	W06
	.byte		N05   
	.byte	W06
	.byte		N23   , Cn1 
	.byte		N11   , Fs1 
	.byte		N23   , As1 
	.byte	W12
@ 155   ----------------------------------------
	.byte	PATT
	 .word	From_Shadows_10_148
@ 156   ----------------------------------------
	.byte	PATT
	 .word	From_Shadows_10_148
@ 157   ----------------------------------------
	.byte	PATT
	 .word	From_Shadows_10_148
@ 158   ----------------------------------------
	.byte	PATT
	 .word	From_Shadows_10_148
@ 159   ----------------------------------------
	.byte	PATT
	 .word	From_Shadows_10_148
@ 160   ----------------------------------------
	.byte	PATT
	 .word	From_Shadows_10_148
@ 161   ----------------------------------------
	.byte	PATT
	 .word	From_Shadows_10_148
@ 162   ----------------------------------------
	.byte		N11   , Fs1 , v096
	.byte	W12
	.byte		        Cn1 
	.byte		N11   , Fs1 
	.byte	W12
	.byte		        Dn1 
	.byte		N11   , As1 
	.byte	W12
	.byte		N05   , Cn1 
	.byte		N05   , Fs1 
	.byte	W06
	.byte		        Dn1 
	.byte		N05   , Fs1 
	.byte	W06
	.byte		        Cn1 
	.byte		N05   , Fs1 
	.byte	W06
	.byte		N05   
	.byte	W06
	.byte		N11   , Cn1 
	.byte		N11   , Fs1 
	.byte		N11   , As1 
	.byte	W12
	.byte		N05   , Dn1 
	.byte		N05   , Fs1 
	.byte	W06
	.byte		N05   
	.byte	W06
	.byte		N11   , Cn1 
	.byte		N11   , Fs1 
	.byte		N11   , As1 
	.byte	W12
@ 163   ----------------------------------------
	.byte		        Cn1 
	.byte		N11   , Fs1 
	.byte		N11   , As1 
	.byte	W12
	.byte		        Cn1 
	.byte		N11   , Fs1 
	.byte	W12
	.byte		        Dn1 
	.byte		N11   , Ds2 
	.byte	W12
	.byte		N05   , Cn1 
	.byte		N05   , Fs1 
	.byte	W06
	.byte		N05   
	.byte	W06
	.byte		        Cn1 
	.byte		N05   , Ds2 
	.byte	W06
	.byte		        Fs1 
	.byte	W06
	.byte		N11   , Cn1 
	.byte		N11   , Fs1 
	.byte	W12
	.byte		N05   , Dn1 
	.byte		N05   , Ds2 
	.byte	W06
	.byte		        Fs1 
	.byte	W06
	.byte		N23   , Cn1 
	.byte		N11   , Fs1 
	.byte	W12
@ 164   ----------------------------------------
From_Shadows_10_164:
	.byte		N11   , Fs1 , v096
	.byte	W12
	.byte		        Cn1 
	.byte		N11   , Fs1 
	.byte	W12
	.byte		        Dn1 
	.byte		N11   , Ds2 
	.byte	W12
	.byte		N05   , Cn1 
	.byte		N05   , Fs1 
	.byte	W06
	.byte		        Dn1 
	.byte		N05   , Fs1 
	.byte	W06
	.byte		        Cn1 
	.byte		N05   , Ds2 
	.byte	W06
	.byte		        Fs1 
	.byte	W06
	.byte		N11   , Cn1 
	.byte		N11   , Fs1 
	.byte	W12
	.byte		N05   , Dn1 
	.byte		N05   , Ds2 
	.byte	W06
	.byte		        Fs1 
	.byte	W06
	.byte		N23   , Cn1 
	.byte		N11   , Fs1 
	.byte	W12
	.byte	PEND
@ 165   ----------------------------------------
	.byte	PATT
	 .word	From_Shadows_10_164
@ 166   ----------------------------------------
	.byte	PATT
	 .word	From_Shadows_10_164
@ 167   ----------------------------------------
	.byte	PATT
	 .word	From_Shadows_10_164
@ 168   ----------------------------------------
	.byte	PATT
	 .word	From_Shadows_10_164
@ 169   ----------------------------------------
	.byte	PATT
	 .word	From_Shadows_10_164
@ 170   ----------------------------------------
	.byte		N11   , Fs1 , v096
	.byte	W12
	.byte		        Cn1 
	.byte		N11   , Fs1 
	.byte	W12
	.byte		        Dn1 
	.byte		N11   , Ds2 
	.byte	W12
	.byte		N05   , Cn1 
	.byte		N05   , Fs1 
	.byte	W06
	.byte		N05   
	.byte	W06
	.byte		        Cn1 
	.byte		N05   , Ds2 
	.byte	W06
	.byte		        Fs1 
	.byte	W06
	.byte		N11   , Cn1 
	.byte		N11   , Fs1 
	.byte	W12
	.byte		N05   , Dn1 
	.byte		N05   , Ds2 
	.byte	W06
	.byte		        Fs1 
	.byte	W06
	.byte		N11   , Cn1 
	.byte		N11   , Dn1 
	.byte		N11   , As1 
	.byte	W12
@ 171   ----------------------------------------
	.byte		N92   , Cn1 
	.byte		N92   , Dn1 
	.byte		N92   , As1 
	.byte	W96
@ 172   ----------------------------------------
	.byte	W96
@ 173   ----------------------------------------
	.byte	W72
@ 174   ----------------------------------------
	.byte	W72
@ 175   ----------------------------------------
	.byte	W72
@ 176   ----------------------------------------
	.byte	W72
@ 177   ----------------------------------------
	.byte	W72
@ 178   ----------------------------------------
	.byte	W72
@ 179   ----------------------------------------
	.byte	W72
@ 180   ----------------------------------------
	.byte	W72
@ 181   ----------------------------------------
	.byte	W72
@ 182   ----------------------------------------
	.byte	W72
@ 183   ----------------------------------------
	.byte	W72
@ 184   ----------------------------------------
	.byte	W72
@ 185   ----------------------------------------
	.byte	W72
@ 186   ----------------------------------------
	.byte	W72
@ 187   ----------------------------------------
	.byte	W72
@ 188   ----------------------------------------
	.byte	W72
@ 189   ----------------------------------------
	.byte	W72
@ 190   ----------------------------------------
	.byte	W72
@ 191   ----------------------------------------
	.byte	W72
@ 192   ----------------------------------------
	.byte	W72
@ 193   ----------------------------------------
	.byte	W72
@ 194   ----------------------------------------
	.byte	W72
@ 195   ----------------------------------------
	.byte	W72
@ 196   ----------------------------------------
	.byte	W72
@ 197   ----------------------------------------
	.byte	W72
@ 198   ----------------------------------------
	.byte	W72
@ 199   ----------------------------------------
	.byte	W72
@ 200   ----------------------------------------
	.byte	W72
@ 201   ----------------------------------------
	.byte	W72
@ 202   ----------------------------------------
	.byte	W72
@ 203   ----------------------------------------
	.byte	W72
@ 204   ----------------------------------------
	.byte	W72
@ 205   ----------------------------------------
	.byte	W72
@ 206   ----------------------------------------
	.byte	W72
@ 207   ----------------------------------------
	.byte	W72
@ 208   ----------------------------------------
	.byte	W72
@ 209   ----------------------------------------
	.byte	W72
@ 210   ----------------------------------------
	.byte	W72
@ 211   ----------------------------------------
	.byte	W72
@ 212   ----------------------------------------
	.byte	W72
@ 213   ----------------------------------------
	.byte	W72
@ 214   ----------------------------------------
	.byte	W23
	.byte	GOTO
	 .word	From_Shadows_10_B1
From_Shadows_10_B2:
	.byte	FINE

@**************** Track 11 (Midi-Chn.11) ****************@

From_Shadows_11:
	.byte	KEYSH , From_Shadows_key+0
From_Shadows_11_B1:
@ 000   ----------------------------------------
	.byte		VOICE , 62
	.byte		VOL   , 100*From_Shadows_mvl/mxv
	.byte		PAN   , c_v+0
	.byte	W96
@ 001   ----------------------------------------
	.byte	W96
@ 002   ----------------------------------------
	.byte	W96
@ 003   ----------------------------------------
	.byte	W96
@ 004   ----------------------------------------
	.byte	W96
@ 005   ----------------------------------------
	.byte	W96
@ 006   ----------------------------------------
	.byte	W96
@ 007   ----------------------------------------
	.byte	W96
@ 008   ----------------------------------------
	.byte	W96
@ 009   ----------------------------------------
	.byte	W96
@ 010   ----------------------------------------
	.byte	W96
@ 011   ----------------------------------------
	.byte	W96
@ 012   ----------------------------------------
	.byte	W96
@ 013   ----------------------------------------
	.byte	W96
@ 014   ----------------------------------------
	.byte	W96
@ 015   ----------------------------------------
	.byte	W96
@ 016   ----------------------------------------
	.byte	W96
@ 017   ----------------------------------------
	.byte		TIE   , Dn1 , v112
	.byte	W96
@ 018   ----------------------------------------
	.byte	W96
@ 019   ----------------------------------------
	.byte	W96
@ 020   ----------------------------------------
	.byte	W96
@ 021   ----------------------------------------
	.byte	W96
@ 022   ----------------------------------------
	.byte	W96
@ 023   ----------------------------------------
	.byte	W96
@ 024   ----------------------------------------
	.byte	W92
	.byte	W03
	.byte		EOT   
	.byte	W01
@ 025   ----------------------------------------
	.byte	W96
@ 026   ----------------------------------------
	.byte	W96
@ 027   ----------------------------------------
	.byte	W96
@ 028   ----------------------------------------
	.byte	W96
@ 029   ----------------------------------------
	.byte	W96
@ 030   ----------------------------------------
	.byte	W96
@ 031   ----------------------------------------
	.byte	W96
@ 032   ----------------------------------------
	.byte	W96
@ 033   ----------------------------------------
	.byte	W96
@ 034   ----------------------------------------
	.byte	W96
@ 035   ----------------------------------------
	.byte	W96
@ 036   ----------------------------------------
	.byte	W96
@ 037   ----------------------------------------
	.byte	W72
@ 038   ----------------------------------------
	.byte	W96
@ 039   ----------------------------------------
	.byte	W96
@ 040   ----------------------------------------
	.byte	W96
@ 041   ----------------------------------------
	.byte	W96
@ 042   ----------------------------------------
	.byte	W96
@ 043   ----------------------------------------
	.byte	W96
@ 044   ----------------------------------------
	.byte	W96
@ 045   ----------------------------------------
	.byte	W96
@ 046   ----------------------------------------
	.byte	W96
@ 047   ----------------------------------------
	.byte	W96
@ 048   ----------------------------------------
	.byte	W96
@ 049   ----------------------------------------
	.byte	W96
@ 050   ----------------------------------------
	.byte	W96
@ 051   ----------------------------------------
	.byte	W96
@ 052   ----------------------------------------
	.byte	W96
@ 053   ----------------------------------------
	.byte	W96
@ 054   ----------------------------------------
	.byte	W96
@ 055   ----------------------------------------
	.byte	W96
@ 056   ----------------------------------------
	.byte	W96
@ 057   ----------------------------------------
	.byte	W96
@ 058   ----------------------------------------
	.byte	W96
@ 059   ----------------------------------------
	.byte	W96
@ 060   ----------------------------------------
	.byte	W96
@ 061   ----------------------------------------
	.byte	W96
@ 062   ----------------------------------------
	.byte	W96
@ 063   ----------------------------------------
	.byte	W96
@ 064   ----------------------------------------
	.byte	W96
@ 065   ----------------------------------------
	.byte	W96
@ 066   ----------------------------------------
	.byte	W84
	.byte		N92   , Cn5 , v096
	.byte	W12
@ 067   ----------------------------------------
	.byte	W84
	.byte		        An4 
	.byte	W12
@ 068   ----------------------------------------
	.byte	W84
	.byte		        Gs4 
	.byte	W12
@ 069   ----------------------------------------
	.byte	W84
	.byte		        As4 
	.byte	W12
@ 070   ----------------------------------------
From_Shadows_11_070:
	.byte	W84
	.byte		TIE   , Gn4 , v096
	.byte	W12
	.byte	PEND
@ 071   ----------------------------------------
	.byte	W96
@ 072   ----------------------------------------
	.byte	W92
	.byte	W03
	.byte		EOT   
	.byte	W01
@ 073   ----------------------------------------
	.byte	W96
@ 074   ----------------------------------------
	.byte	W84
	.byte		N92   , Cn5 
	.byte	W12
@ 075   ----------------------------------------
	.byte	W84
	.byte		        An4 
	.byte	W12
@ 076   ----------------------------------------
	.byte	W84
	.byte		        Gs4 
	.byte	W12
@ 077   ----------------------------------------
	.byte	W84
	.byte		        As4 
	.byte	W12
@ 078   ----------------------------------------
	.byte	PATT
	 .word	From_Shadows_11_070
@ 079   ----------------------------------------
	.byte	W96
@ 080   ----------------------------------------
	.byte	W92
	.byte	W03
	.byte		EOT   , Gn4 
	.byte	W01
@ 081   ----------------------------------------
	.byte	W96
@ 082   ----------------------------------------
	.byte	W96
@ 083   ----------------------------------------
From_Shadows_11_083:
	.byte	W48
	.byte		N44   , Cn4 , v112
	.byte		N44   , Cn5 
	.byte	W48
	.byte	PEND
@ 084   ----------------------------------------
From_Shadows_11_084:
	.byte		N44   , Ds4 , v112
	.byte		N44   , Ds5 
	.byte	W48
	.byte		N32   , Gn4 
	.byte		N32   , Gn5 
	.byte	W36
	.byte		TIE   , Fn4 
	.byte		TIE   , Fn5 
	.byte	W12
	.byte	PEND
@ 085   ----------------------------------------
	.byte	W92
	.byte	W03
	.byte		EOT   , Fn4 
	.byte		        Fn5 
	.byte	W01
@ 086   ----------------------------------------
From_Shadows_11_086:
	.byte		N44   , As3 , v112
	.byte		N44   , As4 
	.byte	W48
	.byte		        Dn4 
	.byte		N44   , Dn5 
	.byte	W48
	.byte	PEND
@ 087   ----------------------------------------
	.byte		N92   , Cn4 
	.byte		N92   , Cn5 
	.byte	W96
@ 088   ----------------------------------------
From_Shadows_11_088:
	.byte		N44   , Ds4 , v112
	.byte		N44   , Ds5 
	.byte	W48
	.byte		N32   , As4 
	.byte		N32   , As5 
	.byte	W36
	.byte		TIE   , Fn4 
	.byte		TIE   , Fn5 
	.byte	W12
	.byte	PEND
@ 089   ----------------------------------------
	.byte	W92
	.byte	W03
	.byte		EOT   , Fn4 
	.byte		        Fn5 
	.byte	W01
@ 090   ----------------------------------------
	.byte		N44   , Dn4 
	.byte		N44   , Dn5 
	.byte	W48
	.byte		N32   , Gn4 
	.byte		N32   , Gn5 
	.byte	W36
	.byte		TIE   , An4 
	.byte		TIE   , An5 
	.byte	W12
@ 091   ----------------------------------------
	.byte	W96
@ 092   ----------------------------------------
	.byte	W92
	.byte	W03
	.byte		EOT   , An4 
	.byte		        An5 
	.byte	W01
@ 093   ----------------------------------------
	.byte		TIE   , Gn4 
	.byte		TIE   , Gn5 
	.byte	W96
@ 094   ----------------------------------------
	.byte	W92
	.byte	W03
	.byte		EOT   , Gn4 
	.byte		        Gn5 
	.byte	W01
@ 095   ----------------------------------------
	.byte		TIE   , En4 
	.byte		TIE   , En5 
	.byte	W96
@ 096   ----------------------------------------
	.byte	W92
	.byte	W03
	.byte		EOT   , En4 
	.byte		        En5 
	.byte	W01
@ 097   ----------------------------------------
	.byte		TIE   , Fs4 
	.byte		TIE   , Fs5 
	.byte	W96
@ 098   ----------------------------------------
	.byte	W92
	.byte	W03
	.byte		EOT   , Fs4 
	.byte		        Fs5 
	.byte	W01
@ 099   ----------------------------------------
	.byte	W96
@ 100   ----------------------------------------
	.byte	W96
@ 101   ----------------------------------------
	.byte	W96
@ 102   ----------------------------------------
	.byte	W96
@ 103   ----------------------------------------
	.byte	W96
@ 104   ----------------------------------------
	.byte	W96
@ 105   ----------------------------------------
	.byte	W96
@ 106   ----------------------------------------
	.byte	W96
@ 107   ----------------------------------------
	.byte	W96
@ 108   ----------------------------------------
	.byte	W96
@ 109   ----------------------------------------
	.byte	W96
@ 110   ----------------------------------------
	.byte	W96
@ 111   ----------------------------------------
	.byte	W96
@ 112   ----------------------------------------
	.byte	W96
@ 113   ----------------------------------------
	.byte	W96
@ 114   ----------------------------------------
	.byte	W96
@ 115   ----------------------------------------
	.byte	W96
@ 116   ----------------------------------------
	.byte	W96
@ 117   ----------------------------------------
	.byte	W96
@ 118   ----------------------------------------
	.byte	W96
@ 119   ----------------------------------------
	.byte	W96
@ 120   ----------------------------------------
	.byte	W96
@ 121   ----------------------------------------
	.byte	W96
@ 122   ----------------------------------------
	.byte	W96
@ 123   ----------------------------------------
	.byte	W96
@ 124   ----------------------------------------
	.byte	W96
@ 125   ----------------------------------------
	.byte	W96
@ 126   ----------------------------------------
	.byte	W96
@ 127   ----------------------------------------
	.byte	W96
@ 128   ----------------------------------------
	.byte	W96
@ 129   ----------------------------------------
	.byte	W96
@ 130   ----------------------------------------
	.byte	W96
@ 131   ----------------------------------------
	.byte	W96
@ 132   ----------------------------------------
	.byte	W96
@ 133   ----------------------------------------
	.byte	W96
@ 134   ----------------------------------------
	.byte	W96
@ 135   ----------------------------------------
	.byte	W96
@ 136   ----------------------------------------
	.byte	W96
@ 137   ----------------------------------------
	.byte	W96
@ 138   ----------------------------------------
	.byte	W96
@ 139   ----------------------------------------
	.byte	W96
@ 140   ----------------------------------------
	.byte	W96
@ 141   ----------------------------------------
	.byte	W96
@ 142   ----------------------------------------
	.byte	W96
@ 143   ----------------------------------------
	.byte	W96
@ 144   ----------------------------------------
	.byte	W96
@ 145   ----------------------------------------
	.byte	W96
@ 146   ----------------------------------------
	.byte	W96
@ 147   ----------------------------------------
	.byte	W96
@ 148   ----------------------------------------
	.byte	W96
@ 149   ----------------------------------------
	.byte	W96
@ 150   ----------------------------------------
	.byte	W96
@ 151   ----------------------------------------
	.byte	W96
@ 152   ----------------------------------------
	.byte	W96
@ 153   ----------------------------------------
	.byte	W96
@ 154   ----------------------------------------
	.byte	W96
@ 155   ----------------------------------------
	.byte	W96
@ 156   ----------------------------------------
	.byte	W96
@ 157   ----------------------------------------
	.byte	W96
@ 158   ----------------------------------------
	.byte	W96
@ 159   ----------------------------------------
	.byte	W96
@ 160   ----------------------------------------
	.byte	W96
@ 161   ----------------------------------------
	.byte	W96
@ 162   ----------------------------------------
	.byte	W96
@ 163   ----------------------------------------
	.byte	PATT
	 .word	From_Shadows_11_083
@ 164   ----------------------------------------
	.byte	PATT
	 .word	From_Shadows_11_084
@ 165   ----------------------------------------
	.byte	W92
	.byte	W03
	.byte		EOT   , Fn4 
	.byte		        Fn5 
	.byte	W01
@ 166   ----------------------------------------
	.byte	PATT
	 .word	From_Shadows_11_086
@ 167   ----------------------------------------
	.byte		N92   , Cn4 , v112
	.byte		N92   , Cn5 
	.byte	W96
@ 168   ----------------------------------------
	.byte	PATT
	 .word	From_Shadows_11_088
@ 169   ----------------------------------------
	.byte	W92
	.byte	W03
	.byte		EOT   , Fn4 
	.byte		        Fn5 
	.byte	W01
@ 170   ----------------------------------------
	.byte		N44   , Dn4 , v112
	.byte		N44   , Dn5 
	.byte	W48
	.byte		N32   , Gn4 
	.byte		N32   , Gn5 
	.byte	W36
	.byte		TIE   , An5 
	.byte	W12
@ 171   ----------------------------------------
	.byte	W96
@ 172   ----------------------------------------
	.byte	W96
@ 173   ----------------------------------------
	.byte	W68
	.byte	W03
	.byte		EOT   
	.byte	W01
@ 174   ----------------------------------------
	.byte	W72
@ 175   ----------------------------------------
	.byte	W72
@ 176   ----------------------------------------
	.byte	W72
@ 177   ----------------------------------------
	.byte	W72
@ 178   ----------------------------------------
	.byte	W72
@ 179   ----------------------------------------
	.byte	W72
@ 180   ----------------------------------------
	.byte	W72
@ 181   ----------------------------------------
	.byte	W72
@ 182   ----------------------------------------
	.byte	W72
@ 183   ----------------------------------------
	.byte	W72
@ 184   ----------------------------------------
	.byte	W72
@ 185   ----------------------------------------
	.byte	W72
@ 186   ----------------------------------------
	.byte	W72
@ 187   ----------------------------------------
	.byte	W72
@ 188   ----------------------------------------
	.byte	W72
@ 189   ----------------------------------------
	.byte	W72
@ 190   ----------------------------------------
	.byte	W72
@ 191   ----------------------------------------
	.byte	W72
@ 192   ----------------------------------------
	.byte	W72
@ 193   ----------------------------------------
	.byte	W72
@ 194   ----------------------------------------
	.byte	W72
@ 195   ----------------------------------------
	.byte	W72
@ 196   ----------------------------------------
	.byte	W72
@ 197   ----------------------------------------
	.byte	W72
@ 198   ----------------------------------------
	.byte	W72
@ 199   ----------------------------------------
	.byte	W72
@ 200   ----------------------------------------
	.byte	W72
@ 201   ----------------------------------------
	.byte	W72
@ 202   ----------------------------------------
	.byte	W72
@ 203   ----------------------------------------
	.byte	W72
@ 204   ----------------------------------------
	.byte	W72
@ 205   ----------------------------------------
	.byte	W72
@ 206   ----------------------------------------
	.byte	W72
@ 207   ----------------------------------------
	.byte	W72
@ 208   ----------------------------------------
	.byte	W72
@ 209   ----------------------------------------
	.byte	W72
@ 210   ----------------------------------------
	.byte	W72
@ 211   ----------------------------------------
	.byte	W72
@ 212   ----------------------------------------
	.byte	W72
@ 213   ----------------------------------------
	.byte	W72
@ 214   ----------------------------------------
	.byte	W23
	.byte	GOTO
	 .word	From_Shadows_11_B1
From_Shadows_11_B2:
	.byte	FINE

@******************************************************@
	.align	2

From_Shadows:
	.byte	11	@ NumTrks
	.byte	0	@ NumBlks
	.byte	From_Shadows_pri	@ Priority
	.byte	From_Shadows_rev	@ Reverb.

	.word	From_Shadows_grp

	.word	From_Shadows_1
	.word	From_Shadows_2
	.word	From_Shadows_3
	.word	From_Shadows_4
	.word	From_Shadows_5
	.word	From_Shadows_6
	.word	From_Shadows_7
	.word	From_Shadows_8
	.word	From_Shadows_9
	.word	From_Shadows_10
	.word	From_Shadows_11

	.end
