	.include "MPlayDef.s"

	.equ	I_Burn_grp, voicegroup000
	.equ	I_Burn_pri, 0
	.equ	I_Burn_rev, 0
	.equ	I_Burn_mvl, 55
	.equ	I_Burn_key, 0
	.equ	I_Burn_tbs, 1
	.equ	I_Burn_exg, 0
	.equ	I_Burn_cmp, 1

	.section .rodata
	.global	I_Burn
	.align	2

@**************** Track 1 (Midi-Chn.1) ****************@

I_Burn_1:
	.byte	KEYSH , I_Burn_key+0
I_Burn_1_B1:
@ 000   ----------------------------------------
	.byte	TEMPO , 139*I_Burn_tbs/2
	.byte		VOICE , 73
	.byte		VOL   , 113*I_Burn_mvl/mxv
	.byte		PAN   , c_v+0
	.byte	W96
@ 001   ----------------------------------------
	.byte	W96
@ 002   ----------------------------------------
	.byte	W96
@ 003   ----------------------------------------
	.byte	W96
@ 004   ----------------------------------------
I_Burn_1_004:
	.byte	W24
	.byte		N23   , Gn3 , v112
	.byte	W24
	.byte		        Fs3 
	.byte	W24
	.byte		        En3 
	.byte	W24
	.byte	PEND
@ 005   ----------------------------------------
I_Burn_1_005:
	.byte	W24
	.byte		N23   , An3 , v112
	.byte	W24
	.byte		N11   , Gn3 
	.byte	W12
	.byte		        En3 
	.byte	W12
	.byte		N23   
	.byte	W24
	.byte	PEND
@ 006   ----------------------------------------
	.byte	PATT
	 .word	I_Burn_1_004
@ 007   ----------------------------------------
I_Burn_1_007:
	.byte		N32   , An3 , v112
	.byte	W36
	.byte		N11   , Gn3 
	.byte	W12
	.byte		N11   
	.byte	W12
	.byte		N32   , Fs3 
	.byte	W36
	.byte	PEND
@ 008   ----------------------------------------
	.byte	PATT
	 .word	I_Burn_1_004
@ 009   ----------------------------------------
	.byte	PATT
	 .word	I_Burn_1_005
@ 010   ----------------------------------------
	.byte	PATT
	 .word	I_Burn_1_004
@ 011   ----------------------------------------
	.byte		N32   , An3 , v112
	.byte	W36
	.byte		N11   , Gn3 
	.byte	W12
	.byte		N11   
	.byte	W12
	.byte		        Fs3 
	.byte	W12
	.byte		        Gn3 
	.byte	W12
	.byte		        An3 
	.byte	W12
@ 012   ----------------------------------------
	.byte		        Bn3 
	.byte	W12
	.byte		N11   
	.byte	W12
	.byte		N23   
	.byte	W24
	.byte		N23   
	.byte	W24
	.byte		N11   
	.byte	W12
	.byte		N11   
	.byte	W12
@ 013   ----------------------------------------
I_Burn_1_013:
	.byte		N23   , Bn3 , v112
	.byte	W24
	.byte		        An3 
	.byte	W24
	.byte		        Gn3 
	.byte	W24
	.byte		        Bn3 
	.byte	W24
	.byte	PEND
@ 014   ----------------------------------------
I_Burn_1_014:
	.byte		N11   , An3 , v112
	.byte	W12
	.byte		N11   
	.byte	W12
	.byte		N11   
	.byte	W12
	.byte		N11   
	.byte	W12
	.byte		N23   
	.byte	W24
	.byte		N11   
	.byte	W12
	.byte		N11   
	.byte	W12
	.byte	PEND
@ 015   ----------------------------------------
	.byte		N11   
	.byte	W12
	.byte		        Bn3 
	.byte	W12
	.byte		N11   
	.byte	W12
	.byte		N11   
	.byte	W12
	.byte		N44   
	.byte	W48
@ 016   ----------------------------------------
	.byte		N11   , An3 
	.byte	W12
	.byte		        Bn3 
	.byte	W12
	.byte		N11   
	.byte	W12
	.byte		N11   
	.byte	W12
	.byte		N11   
	.byte	W12
	.byte		N11   
	.byte	W12
	.byte		N11   
	.byte	W12
	.byte		N11   
	.byte	W12
@ 017   ----------------------------------------
	.byte		N23   
	.byte	W24
	.byte		        An3 
	.byte	W24
	.byte		        Gn3 
	.byte	W24
	.byte		N11   , An3 
	.byte	W12
	.byte		        Bn3 
	.byte	W12
@ 018   ----------------------------------------
	.byte		N23   , An3 
	.byte	W24
	.byte		N11   
	.byte	W12
	.byte		N11   
	.byte	W12
	.byte		N23   
	.byte	W24
	.byte		N11   
	.byte	W12
	.byte		N11   
	.byte	W12
@ 019   ----------------------------------------
I_Burn_1_019:
	.byte		N11   , An3 , v112
	.byte	W12
	.byte		        Bn3 
	.byte	W12
	.byte		N11   
	.byte	W12
	.byte		N11   
	.byte	W12
	.byte		N11   
	.byte	W12
	.byte		        Cn4 
	.byte	W12
	.byte		        Bn3 
	.byte	W12
	.byte		        Cn4 
	.byte	W12
	.byte	PEND
@ 020   ----------------------------------------
	.byte		N68   , Bn3 
	.byte	W96
@ 021   ----------------------------------------
	.byte	W48
	.byte		N44   , Cs4 
	.byte	W48
@ 022   ----------------------------------------
I_Burn_1_022:
	.byte		N44   , Bn3 , v112
	.byte	W48
	.byte		        Cs4 
	.byte	W48
	.byte	PEND
@ 023   ----------------------------------------
I_Burn_1_023:
	.byte		N68   , Fs3 , v112
	.byte	W72
	.byte		N11   , En3 
	.byte	W12
	.byte		N11   
	.byte	W12
	.byte	PEND
@ 024   ----------------------------------------
I_Burn_1_024:
	.byte		N44   , En4 , v112
	.byte	W48
	.byte		N23   , Ds4 
	.byte	W24
	.byte		        Bn3 
	.byte	W24
	.byte	PEND
@ 025   ----------------------------------------
	.byte	W48
	.byte		N44   , Cs4 
	.byte	W48
@ 026   ----------------------------------------
	.byte	PATT
	 .word	I_Burn_1_022
@ 027   ----------------------------------------
	.byte	PATT
	 .word	I_Burn_1_023
@ 028   ----------------------------------------
I_Burn_1_028:
	.byte		N11   , En4 , v112
	.byte	W12
	.byte		N11   
	.byte	W12
	.byte		N11   
	.byte	W12
	.byte		N11   
	.byte	W12
	.byte		N23   , Ds4 
	.byte	W24
	.byte		N11   , Cs4 
	.byte	W12
	.byte		        Bn3 
	.byte	W12
	.byte	PEND
@ 029   ----------------------------------------
	.byte		N23   , Cs4 
	.byte	W96
@ 030   ----------------------------------------
	.byte	W96
@ 031   ----------------------------------------
	.byte	W96
@ 032   ----------------------------------------
	.byte	W96
@ 033   ----------------------------------------
	.byte	W96
@ 034   ----------------------------------------
	.byte	W96
@ 035   ----------------------------------------
	.byte	W96
@ 036   ----------------------------------------
	.byte	W96
@ 037   ----------------------------------------
	.byte	PATT
	 .word	I_Burn_1_004
@ 038   ----------------------------------------
I_Burn_1_038:
	.byte	W24
	.byte		N23   , An3 , v112
	.byte	W24
	.byte		        Gn3 
	.byte	W24
	.byte		        En3 
	.byte	W24
	.byte	PEND
@ 039   ----------------------------------------
	.byte	PATT
	 .word	I_Burn_1_004
@ 040   ----------------------------------------
	.byte	PATT
	 .word	I_Burn_1_007
@ 041   ----------------------------------------
	.byte	PATT
	 .word	I_Burn_1_004
@ 042   ----------------------------------------
	.byte	PATT
	 .word	I_Burn_1_038
@ 043   ----------------------------------------
	.byte	PATT
	 .word	I_Burn_1_004
@ 044   ----------------------------------------
	.byte		N32   , An3 , v112
	.byte	W36
	.byte		N11   , Gn3 
	.byte	W12
	.byte		N11   
	.byte	W12
	.byte		        Fs3 
	.byte	W12
	.byte		N23   , An3 
	.byte	W24
@ 045   ----------------------------------------
	.byte		N11   , Bn3 
	.byte	W12
	.byte		N11   
	.byte	W12
	.byte		N11   
	.byte	W12
	.byte		N11   
	.byte	W12
	.byte		N23   
	.byte	W24
	.byte		N11   
	.byte	W12
	.byte		N11   
	.byte	W12
@ 046   ----------------------------------------
	.byte	PATT
	 .word	I_Burn_1_013
@ 047   ----------------------------------------
	.byte	PATT
	 .word	I_Burn_1_014
@ 048   ----------------------------------------
	.byte		N11   , An3 , v112
	.byte	W12
	.byte		        Bn3 
	.byte	W12
	.byte		N11   
	.byte	W12
	.byte		        An3 
	.byte		N11   , Bn3 
	.byte	W12
	.byte		N44   
	.byte	W48
@ 049   ----------------------------------------
	.byte		N11   , An3 
	.byte	W12
	.byte		        Bn3 
	.byte	W12
	.byte		N11   
	.byte	W12
	.byte		N11   
	.byte	W12
	.byte		N11   
	.byte	W12
	.byte		N11   
	.byte	W12
	.byte		N23   
	.byte	W24
@ 050   ----------------------------------------
	.byte		N11   
	.byte	W12
	.byte		N11   
	.byte	W12
	.byte		N23   , An3 
	.byte	W24
	.byte		        Gn3 
	.byte	W24
	.byte		        Bn3 
	.byte	W24
@ 051   ----------------------------------------
	.byte		N11   , An3 
	.byte	W12
	.byte		N11   
	.byte	W12
	.byte		N11   
	.byte	W12
	.byte		N11   
	.byte	W12
	.byte		N11   
	.byte	W12
	.byte		N11   
	.byte	W12
	.byte		N11   
	.byte	W12
	.byte		N11   
	.byte	W12
@ 052   ----------------------------------------
	.byte	PATT
	 .word	I_Burn_1_019
@ 053   ----------------------------------------
	.byte		N68   , Bn3 , v112
	.byte	W96
@ 054   ----------------------------------------
	.byte	W48
	.byte		N44   , Cs4 
	.byte	W48
@ 055   ----------------------------------------
	.byte	PATT
	 .word	I_Burn_1_022
@ 056   ----------------------------------------
	.byte	PATT
	 .word	I_Burn_1_023
@ 057   ----------------------------------------
	.byte	PATT
	 .word	I_Burn_1_024
@ 058   ----------------------------------------
	.byte	W48
	.byte		N44   , Cs4 , v112
	.byte	W48
@ 059   ----------------------------------------
	.byte	PATT
	 .word	I_Burn_1_022
@ 060   ----------------------------------------
	.byte	PATT
	 .word	I_Burn_1_023
@ 061   ----------------------------------------
	.byte	PATT
	 .word	I_Burn_1_028
@ 062   ----------------------------------------
	.byte		N32   , Cs4 , v112
	.byte	W36
	.byte		N11   , En3 
	.byte	W12
	.byte		        Bn3 
	.byte	W12
	.byte		        Cs4 
	.byte	W12
	.byte		N11   
	.byte	W12
	.byte		        Bn3 
	.byte	W12
@ 063   ----------------------------------------
	.byte		N23   
	.byte	W24
	.byte		        Gs3 
	.byte	W24
	.byte		N11   , Fs3 
	.byte	W12
	.byte		N32   , Gs3 
	.byte	W36
@ 064   ----------------------------------------
	.byte	W36
	.byte		N11   , Bn2 
	.byte	W12
	.byte		        An3 
	.byte	W12
	.byte		N11   
	.byte	W12
	.byte		N11   
	.byte	W12
	.byte		        Gs3 
	.byte	W12
@ 065   ----------------------------------------
	.byte		N23   
	.byte	W24
	.byte		        Bn3 
	.byte	W24
	.byte		N11   
	.byte	W12
	.byte		N32   , Gs3 
	.byte	W36
@ 066   ----------------------------------------
	.byte	W48
	.byte		N11   , Cs4 
	.byte	W12
	.byte		N11   
	.byte	W12
	.byte		N11   
	.byte	W12
	.byte		        Bn3 
	.byte	W12
@ 067   ----------------------------------------
	.byte		N32   
	.byte	W36
	.byte		N11   , Gs3 
	.byte	W12
	.byte		N07   , Fs3 
	.byte	W08
	.byte		N23   , Gs3 
	.byte	W24
	.byte		N15   , Fs3 
	.byte	W16
@ 068   ----------------------------------------
	.byte		        Gs3 
	.byte	W16
	.byte		        Fs3 
	.byte	W16
	.byte		        Gs3 
	.byte	W16
	.byte		        An3 
	.byte	W16
	.byte		        Bn3 
	.byte	W16
	.byte		        Cs4 
	.byte	W16
@ 069   ----------------------------------------
	.byte		        Bn3 
	.byte	W16
	.byte		        An3 
	.byte	W16
	.byte		        Gs3 
	.byte	W16
	.byte		        Fs3 
	.byte	W16
	.byte		        En3 
	.byte	W16
	.byte		        Ds3 
	.byte	W16
@ 070   ----------------------------------------
	.byte		N44   , Cs3 
	.byte	W96
@ 071   ----------------------------------------
	.byte	W96
@ 072   ----------------------------------------
	.byte	W96
@ 073   ----------------------------------------
	.byte	W96
@ 074   ----------------------------------------
	.byte	W96
@ 075   ----------------------------------------
	.byte	W96
@ 076   ----------------------------------------
	.byte	W96
@ 077   ----------------------------------------
	.byte	W96
@ 078   ----------------------------------------
	.byte	W96
@ 079   ----------------------------------------
	.byte	W96
@ 080   ----------------------------------------
	.byte	W96
@ 081   ----------------------------------------
	.byte	W96
@ 082   ----------------------------------------
	.byte	W96
@ 083   ----------------------------------------
	.byte	W96
@ 084   ----------------------------------------
	.byte	W96
@ 085   ----------------------------------------
	.byte	W96
@ 086   ----------------------------------------
	.byte	W96
@ 087   ----------------------------------------
	.byte	W96
@ 088   ----------------------------------------
	.byte	W96
@ 089   ----------------------------------------
	.byte	W96
@ 090   ----------------------------------------
	.byte	W96
@ 091   ----------------------------------------
	.byte	W96
@ 092   ----------------------------------------
	.byte	W96
@ 093   ----------------------------------------
	.byte	W96
@ 094   ----------------------------------------
	.byte	W96
@ 095   ----------------------------------------
	.byte	W48
	.byte		        Cs4 
	.byte	W48
@ 096   ----------------------------------------
	.byte	PATT
	 .word	I_Burn_1_022
@ 097   ----------------------------------------
	.byte	PATT
	 .word	I_Burn_1_023
@ 098   ----------------------------------------
	.byte	PATT
	 .word	I_Burn_1_024
@ 099   ----------------------------------------
	.byte	W48
	.byte		N44   , Cs4 , v112
	.byte	W48
@ 100   ----------------------------------------
	.byte	PATT
	 .word	I_Burn_1_022
@ 101   ----------------------------------------
	.byte	PATT
	 .word	I_Burn_1_023
@ 102   ----------------------------------------
	.byte	PATT
	 .word	I_Burn_1_028
@ 103   ----------------------------------------
	.byte	W48
	.byte		N44   , Cs4 , v112
	.byte	W48
@ 104   ----------------------------------------
	.byte	PATT
	 .word	I_Burn_1_022
@ 105   ----------------------------------------
	.byte	PATT
	 .word	I_Burn_1_023
@ 106   ----------------------------------------
	.byte	PATT
	 .word	I_Burn_1_024
@ 107   ----------------------------------------
	.byte	W48
	.byte		N44   , Cs4 , v112
	.byte	W48
@ 108   ----------------------------------------
	.byte	PATT
	 .word	I_Burn_1_022
@ 109   ----------------------------------------
	.byte	PATT
	 .word	I_Burn_1_023
@ 110   ----------------------------------------
	.byte	PATT
	 .word	I_Burn_1_028
@ 111   ----------------------------------------
	.byte		N44   , Cs4 , v112
	.byte	W96
@ 112   ----------------------------------------
	.byte	W23
	.byte	GOTO
	 .word	I_Burn_1_B1
I_Burn_1_B2:
	.byte	FINE

@**************** Track 2 (Midi-Chn.2) ****************@

I_Burn_2:
	.byte	KEYSH , I_Burn_key+0
I_Burn_2_B1:
@ 000   ----------------------------------------
	.byte		VOICE , 68
	.byte		VOL   , 100*I_Burn_mvl/mxv
	.byte		PAN   , c_v+0
	.byte	W96
@ 001   ----------------------------------------
	.byte	W96
@ 002   ----------------------------------------
	.byte	W96
@ 003   ----------------------------------------
	.byte	W96
@ 004   ----------------------------------------
	.byte	W96
@ 005   ----------------------------------------
	.byte	W96
@ 006   ----------------------------------------
	.byte	W96
@ 007   ----------------------------------------
	.byte	W96
@ 008   ----------------------------------------
	.byte	W96
@ 009   ----------------------------------------
	.byte	W96
@ 010   ----------------------------------------
	.byte	W96
@ 011   ----------------------------------------
	.byte	W96
@ 012   ----------------------------------------
	.byte	W96
@ 013   ----------------------------------------
	.byte	W96
@ 014   ----------------------------------------
	.byte	W96
@ 015   ----------------------------------------
	.byte	W96
@ 016   ----------------------------------------
	.byte	W96
@ 017   ----------------------------------------
	.byte	W96
@ 018   ----------------------------------------
	.byte	W96
@ 019   ----------------------------------------
	.byte	W96
@ 020   ----------------------------------------
I_Burn_2_020:
	.byte	W72
	.byte		N23   , Ds3 , v080
	.byte		N23   , Gs3 
	.byte		N23   , Bn3 
	.byte	W24
	.byte	PEND
@ 021   ----------------------------------------
	.byte		N44   , En3 
	.byte		N44   , Gs3 
	.byte		N44   , Cs4 
	.byte	W96
@ 022   ----------------------------------------
	.byte	W96
@ 023   ----------------------------------------
	.byte	W96
@ 024   ----------------------------------------
	.byte	PATT
	 .word	I_Burn_2_020
@ 025   ----------------------------------------
	.byte		N44   , En3 , v080
	.byte		N44   , Gs3 
	.byte		N44   , Cs4 
	.byte	W96
@ 026   ----------------------------------------
	.byte	W96
@ 027   ----------------------------------------
	.byte	W96
@ 028   ----------------------------------------
	.byte	W96
@ 029   ----------------------------------------
	.byte	W96
@ 030   ----------------------------------------
	.byte	W96
@ 031   ----------------------------------------
	.byte	W96
@ 032   ----------------------------------------
	.byte	W96
@ 033   ----------------------------------------
	.byte	W96
@ 034   ----------------------------------------
	.byte	W96
@ 035   ----------------------------------------
	.byte	W96
@ 036   ----------------------------------------
	.byte	W96
@ 037   ----------------------------------------
	.byte	W96
@ 038   ----------------------------------------
	.byte	W96
@ 039   ----------------------------------------
	.byte	W96
@ 040   ----------------------------------------
	.byte	W96
@ 041   ----------------------------------------
	.byte	W96
@ 042   ----------------------------------------
	.byte	W96
@ 043   ----------------------------------------
	.byte	W96
@ 044   ----------------------------------------
	.byte	W96
@ 045   ----------------------------------------
	.byte	W96
@ 046   ----------------------------------------
	.byte	W96
@ 047   ----------------------------------------
	.byte	W96
@ 048   ----------------------------------------
	.byte	W96
@ 049   ----------------------------------------
	.byte	W48
	.byte		N11   , Dn4 , v064
	.byte	W12
	.byte		N11   
	.byte	W12
	.byte		N23   
	.byte	W24
@ 050   ----------------------------------------
	.byte		N11   
	.byte	W12
	.byte		N11   
	.byte	W12
	.byte		N23   , Cn4 
	.byte	W24
	.byte		        Bn3 
	.byte	W24
	.byte		        Dn4 
	.byte	W24
@ 051   ----------------------------------------
	.byte	W96
@ 052   ----------------------------------------
	.byte	W96
@ 053   ----------------------------------------
	.byte	PATT
	 .word	I_Burn_2_020
@ 054   ----------------------------------------
	.byte		N44   , En3 , v080
	.byte		N44   , Gs3 
	.byte		N44   , Cs4 
	.byte	W96
@ 055   ----------------------------------------
	.byte	W96
@ 056   ----------------------------------------
	.byte	W96
@ 057   ----------------------------------------
	.byte	PATT
	 .word	I_Burn_2_020
@ 058   ----------------------------------------
	.byte		N44   , En3 , v080
	.byte		N44   , Gs3 
	.byte		N44   , Cs4 
	.byte	W96
@ 059   ----------------------------------------
	.byte	W96
@ 060   ----------------------------------------
	.byte	W96
@ 061   ----------------------------------------
	.byte	W96
@ 062   ----------------------------------------
	.byte	W96
@ 063   ----------------------------------------
	.byte	W96
@ 064   ----------------------------------------
	.byte	W96
@ 065   ----------------------------------------
	.byte	W96
@ 066   ----------------------------------------
	.byte	W48
	.byte		N11   , En4 
	.byte	W12
	.byte		N11   
	.byte	W12
	.byte		N11   
	.byte	W12
	.byte		        Ds4 
	.byte	W12
@ 067   ----------------------------------------
	.byte		N32   
	.byte	W36
	.byte		N11   , Bn3 
	.byte	W12
	.byte		        An3 
	.byte	W12
	.byte		N32   , Bn3 
	.byte	W36
@ 068   ----------------------------------------
	.byte	W96
@ 069   ----------------------------------------
	.byte	W96
@ 070   ----------------------------------------
	.byte	W96
@ 071   ----------------------------------------
	.byte	W96
@ 072   ----------------------------------------
	.byte	W96
@ 073   ----------------------------------------
	.byte	W96
@ 074   ----------------------------------------
	.byte	W96
@ 075   ----------------------------------------
	.byte	W96
@ 076   ----------------------------------------
	.byte	W96
@ 077   ----------------------------------------
	.byte	W96
@ 078   ----------------------------------------
	.byte	W96
@ 079   ----------------------------------------
	.byte	W96
@ 080   ----------------------------------------
	.byte	W96
@ 081   ----------------------------------------
	.byte	W96
@ 082   ----------------------------------------
	.byte	W96
@ 083   ----------------------------------------
	.byte	W96
@ 084   ----------------------------------------
	.byte	W96
@ 085   ----------------------------------------
	.byte	W96
@ 086   ----------------------------------------
	.byte	W96
@ 087   ----------------------------------------
	.byte	W96
@ 088   ----------------------------------------
	.byte	W96
@ 089   ----------------------------------------
	.byte	W96
@ 090   ----------------------------------------
	.byte	W96
@ 091   ----------------------------------------
	.byte	W96
@ 092   ----------------------------------------
	.byte	W96
@ 093   ----------------------------------------
	.byte	W96
@ 094   ----------------------------------------
	.byte	PATT
	 .word	I_Burn_2_020
@ 095   ----------------------------------------
	.byte		N44   , En3 , v080
	.byte		N44   , Gs3 
	.byte		N44   , Cs4 
	.byte	W96
@ 096   ----------------------------------------
	.byte	W96
@ 097   ----------------------------------------
	.byte	W96
@ 098   ----------------------------------------
	.byte	PATT
	 .word	I_Burn_2_020
@ 099   ----------------------------------------
	.byte		N44   , En3 , v080
	.byte		N44   , Gs3 
	.byte		N44   , Cs4 
	.byte	W96
@ 100   ----------------------------------------
	.byte	W96
@ 101   ----------------------------------------
	.byte	W96
@ 102   ----------------------------------------
	.byte	PATT
	 .word	I_Burn_2_020
@ 103   ----------------------------------------
	.byte		N44   , En3 , v080
	.byte		N44   , Gs3 
	.byte		N44   , Cs4 
	.byte	W96
@ 104   ----------------------------------------
	.byte	W96
@ 105   ----------------------------------------
	.byte	W96
@ 106   ----------------------------------------
	.byte	PATT
	 .word	I_Burn_2_020
@ 107   ----------------------------------------
	.byte		N44   , En3 , v080
	.byte		N44   , Gs3 
	.byte		N44   , Cs4 
	.byte	W96
@ 108   ----------------------------------------
	.byte	W96
@ 109   ----------------------------------------
	.byte	W96
@ 110   ----------------------------------------
	.byte	W96
@ 111   ----------------------------------------
	.byte	W96
@ 112   ----------------------------------------
	.byte	W23
	.byte	GOTO
	 .word	I_Burn_2_B1
I_Burn_2_B2:
	.byte	FINE

@**************** Track 3 (Midi-Chn.3) ****************@

I_Burn_3:
	.byte	KEYSH , I_Burn_key+0
I_Burn_3_B1:
@ 000   ----------------------------------------
	.byte		VOICE , 31
	.byte		VOL   , 75*I_Burn_mvl/mxv
	.byte		PAN   , c_v+0
	.byte		N17   , En1 , v096
	.byte		N17   , Bn1 
	.byte	W18
	.byte		        En1 
	.byte		N17   , Bn1 
	.byte	W18
	.byte		N11   , En1 
	.byte		N11   , Bn1 
	.byte	W60
@ 001   ----------------------------------------
I_Burn_3_001:
	.byte		N17   , Cn2 , v096
	.byte		N17   , Gn2 
	.byte	W18
	.byte		        Cn2 
	.byte		N17   , Gn2 
	.byte	W18
	.byte		N11   , Cn2 
	.byte		N11   , Gn2 
	.byte	W60
	.byte	PEND
@ 002   ----------------------------------------
I_Burn_3_002:
	.byte		N17   , Fs1 , v096
	.byte		N17   , Cn2 
	.byte	W18
	.byte		        Fs1 
	.byte		N17   , Cn2 
	.byte	W18
	.byte		N11   , Fs1 
	.byte		N11   , Cn2 
	.byte	W60
	.byte	PEND
@ 003   ----------------------------------------
I_Burn_3_003:
	.byte		N17   , Bn1 , v096
	.byte		N17   , Fs2 
	.byte	W18
	.byte		        Bn1 
	.byte		N17   , Fs2 
	.byte	W18
	.byte		N11   , Bn1 
	.byte		N11   , Fs2 
	.byte	W60
	.byte	PEND
@ 004   ----------------------------------------
I_Burn_3_004:
	.byte		N17   , En1 , v096
	.byte		N17   , Bn1 
	.byte	W18
	.byte		        En1 
	.byte		N17   , Bn1 
	.byte	W18
	.byte		N11   , En1 
	.byte		N11   , Bn1 
	.byte	W60
	.byte	PEND
@ 005   ----------------------------------------
	.byte	PATT
	 .word	I_Burn_3_001
@ 006   ----------------------------------------
	.byte	PATT
	 .word	I_Burn_3_002
@ 007   ----------------------------------------
	.byte	PATT
	 .word	I_Burn_3_003
@ 008   ----------------------------------------
	.byte	PATT
	 .word	I_Burn_3_004
@ 009   ----------------------------------------
	.byte	PATT
	 .word	I_Burn_3_001
@ 010   ----------------------------------------
	.byte	PATT
	 .word	I_Burn_3_002
@ 011   ----------------------------------------
	.byte	PATT
	 .word	I_Burn_3_003
@ 012   ----------------------------------------
	.byte		N92   , Cn2 , v096
	.byte		N92   , Gn2 
	.byte	W96
@ 013   ----------------------------------------
	.byte		        An1 
	.byte		N92   , En2 
	.byte	W96
@ 014   ----------------------------------------
	.byte		        Dn2 
	.byte		N92   , An2 
	.byte	W96
@ 015   ----------------------------------------
	.byte		N17   , En2 
	.byte		N17   , Bn2 
	.byte	W18
	.byte		        En1 
	.byte	W18
	.byte		N23   
	.byte	W24
	.byte		N11   
	.byte	W12
	.byte		N23   , En2 
	.byte	W24
@ 016   ----------------------------------------
	.byte		N92   , Cn2 
	.byte		N92   , Gn2 
	.byte	W96
@ 017   ----------------------------------------
	.byte		        An1 
	.byte		N92   , En2 
	.byte	W96
@ 018   ----------------------------------------
	.byte		        Cn2 
	.byte		N92   , Fs2 
	.byte	W96
@ 019   ----------------------------------------
	.byte		        Bn1 
	.byte		N92   , Fs2 
	.byte	W96
@ 020   ----------------------------------------
	.byte		N17   , Bn1 
	.byte		N17   , Fs2 
	.byte	W18
	.byte		        Bn1 
	.byte		N17   , Fs2 
	.byte	W18
	.byte		N11   , Bn1 
	.byte		N11   , Fs2 
	.byte	W12
	.byte		N23   , Bn1 
	.byte		N23   , Fs2 
	.byte	W48
@ 021   ----------------------------------------
I_Burn_3_021:
	.byte		N17   , Cs2 , v096
	.byte		N17   , Gs2 
	.byte	W18
	.byte		        Cs2 
	.byte		N17   , Gs2 
	.byte	W18
	.byte		N11   , Cs2 
	.byte		N11   , Gs2 
	.byte	W24
	.byte		N23   , Cs2 
	.byte		N23   , Gs2 
	.byte	W24
	.byte		N11   , Cs2 
	.byte		N11   , Gs2 
	.byte	W12
	.byte	PEND
@ 022   ----------------------------------------
I_Burn_3_022:
	.byte		N17   , An1 , v096
	.byte		N17   , En2 
	.byte	W18
	.byte		        An1 
	.byte		N17   , En2 
	.byte	W18
	.byte		N11   , An1 
	.byte		N11   , En2 
	.byte	W24
	.byte		N23   , An1 
	.byte		N23   , En2 
	.byte	W24
	.byte		N11   , An1 
	.byte		N11   , En2 
	.byte	W12
	.byte	PEND
@ 023   ----------------------------------------
I_Burn_3_023:
	.byte		N17   , Bn1 , v096
	.byte		N17   , Fs2 
	.byte	W18
	.byte		        Bn1 
	.byte		N17   , Fs2 
	.byte	W18
	.byte		N11   , Bn1 
	.byte		N11   , Fs2 
	.byte	W24
	.byte		N23   , Bn1 
	.byte		N23   , Fs2 
	.byte	W24
	.byte		N11   , Bn1 
	.byte		N11   , Fs2 
	.byte	W12
	.byte	PEND
@ 024   ----------------------------------------
I_Burn_3_024:
	.byte		N17   , En2 , v096
	.byte		N17   , Bn2 
	.byte	W18
	.byte		        En2 
	.byte		N17   , Bn2 
	.byte	W18
	.byte		N11   , En2 
	.byte		N11   , Bn2 
	.byte	W12
	.byte		N23   , Ds2 
	.byte		N23   , As2 
	.byte	W24
	.byte		        Ds2 
	.byte		N23   , As2 
	.byte	W24
	.byte	PEND
@ 025   ----------------------------------------
	.byte	PATT
	 .word	I_Burn_3_021
@ 026   ----------------------------------------
	.byte	PATT
	 .word	I_Burn_3_022
@ 027   ----------------------------------------
	.byte	PATT
	 .word	I_Burn_3_023
@ 028   ----------------------------------------
	.byte	PATT
	 .word	I_Burn_3_024
@ 029   ----------------------------------------
	.byte	W96
@ 030   ----------------------------------------
	.byte	W96
@ 031   ----------------------------------------
	.byte	W96
@ 032   ----------------------------------------
	.byte	W96
@ 033   ----------------------------------------
	.byte	W96
@ 034   ----------------------------------------
	.byte	W96
@ 035   ----------------------------------------
	.byte	W96
@ 036   ----------------------------------------
	.byte	W96
@ 037   ----------------------------------------
I_Burn_3_037:
	.byte		N17   , En1 , v096
	.byte	W18
	.byte		N17   
	.byte	W18
	.byte		N11   
	.byte	W60
	.byte	PEND
@ 038   ----------------------------------------
I_Burn_3_038:
	.byte		N11   , Cn2 , v096
	.byte		N11   , Gn2 
	.byte	W36
	.byte		        Cn2 
	.byte		N11   , Gn2 
	.byte	W36
	.byte		        Cn2 
	.byte		N11   , Gn2 
	.byte	W24
	.byte	PEND
@ 039   ----------------------------------------
I_Burn_3_039:
	.byte		N11   , Fs1 , v096
	.byte		N11   , Cn2 
	.byte	W36
	.byte		        Fs1 
	.byte		N11   , Cn2 
	.byte	W36
	.byte		        Fs1 
	.byte		N11   , Cn2 
	.byte	W24
	.byte	PEND
@ 040   ----------------------------------------
I_Burn_3_040:
	.byte		N11   , Bn1 , v096
	.byte		N11   , Fs2 
	.byte	W36
	.byte		        Bn1 
	.byte		N11   , Fs2 
	.byte	W36
	.byte		        Bn1 
	.byte		N11   , Fs2 
	.byte	W24
	.byte	PEND
@ 041   ----------------------------------------
I_Burn_3_041:
	.byte		N11   , En2 , v096
	.byte		N11   , Bn2 
	.byte	W36
	.byte		        En2 
	.byte		N11   , Bn2 
	.byte	W36
	.byte		        En2 
	.byte		N11   , Bn2 
	.byte	W24
	.byte	PEND
@ 042   ----------------------------------------
	.byte	PATT
	 .word	I_Burn_3_038
@ 043   ----------------------------------------
	.byte	PATT
	 .word	I_Burn_3_039
@ 044   ----------------------------------------
	.byte	PATT
	 .word	I_Burn_3_040
@ 045   ----------------------------------------
	.byte		N92   , Cn2 , v096
	.byte		N92   , Gn2 
	.byte	W96
@ 046   ----------------------------------------
	.byte		        An1 
	.byte		N92   , En2 
	.byte	W96
@ 047   ----------------------------------------
	.byte		        Dn2 
	.byte		N92   , An2 
	.byte	W96
@ 048   ----------------------------------------
I_Burn_3_048:
	.byte		N17   , En2 , v096
	.byte		N17   , Bn2 
	.byte	W18
	.byte		        En1 
	.byte	W18
	.byte		        En2 
	.byte		N17   , Bn2 
	.byte	W18
	.byte		N11   , En1 
	.byte		N11   , En2 
	.byte		N11   , Bn2 
	.byte	W12
	.byte		N05   , En1 
	.byte		N05   , En2 
	.byte		N05   , Bn2 
	.byte	W06
	.byte		N23   , En2 
	.byte		N23   , Bn2 
	.byte	W24
	.byte	PEND
@ 049   ----------------------------------------
I_Burn_3_049:
	.byte		N23   , Cn2 , v096
	.byte		N23   , Gn2 
	.byte	W36
	.byte		N32   , Cn2 
	.byte		N32   , Gn2 
	.byte	W60
	.byte	PEND
@ 050   ----------------------------------------
I_Burn_3_050:
	.byte		N23   , An1 , v096
	.byte		N23   , En2 
	.byte	W36
	.byte		N32   , An1 
	.byte		N32   , En2 
	.byte	W60
	.byte	PEND
@ 051   ----------------------------------------
I_Burn_3_051:
	.byte		N23   , Cn2 , v096
	.byte		N23   , Fs2 
	.byte	W36
	.byte		N32   , Cn2 
	.byte		N32   , Fs2 
	.byte	W60
	.byte	PEND
@ 052   ----------------------------------------
I_Burn_3_052:
	.byte		N23   , Bn1 , v096
	.byte		N23   , Bn2 
	.byte	W36
	.byte		N17   , Bn1 
	.byte		N17   , Bn2 
	.byte	W18
	.byte		        Bn1 
	.byte		N17   , Bn2 
	.byte	W18
	.byte		        Bn1 
	.byte		N17   , Bn2 
	.byte	W18
	.byte		N05   , Bn1 
	.byte		N05   , Bn2 
	.byte	W06
	.byte	PEND
@ 053   ----------------------------------------
	.byte		N23   , Bn1 
	.byte		N23   , Bn2 
	.byte	W96
@ 054   ----------------------------------------
	.byte	PATT
	 .word	I_Burn_3_021
@ 055   ----------------------------------------
	.byte	PATT
	 .word	I_Burn_3_022
@ 056   ----------------------------------------
	.byte	PATT
	 .word	I_Burn_3_023
@ 057   ----------------------------------------
	.byte	PATT
	 .word	I_Burn_3_024
@ 058   ----------------------------------------
	.byte	PATT
	 .word	I_Burn_3_021
@ 059   ----------------------------------------
	.byte	PATT
	 .word	I_Burn_3_022
@ 060   ----------------------------------------
	.byte	PATT
	 .word	I_Burn_3_023
@ 061   ----------------------------------------
	.byte	PATT
	 .word	I_Burn_3_024
@ 062   ----------------------------------------
	.byte		N56   , Fs1 , v096
	.byte		N56   , Cs2 
	.byte	W60
	.byte		N11   , Gs1 
	.byte	W12
	.byte		N23   , An1 
	.byte	W24
@ 063   ----------------------------------------
	.byte		N56   , Cs2 
	.byte		N56   , Gs2 
	.byte	W60
	.byte		N11   , Cs2 
	.byte		N11   , Gs2 
	.byte	W12
	.byte		N23   , Cs2 
	.byte		N23   , Gs2 
	.byte	W24
@ 064   ----------------------------------------
	.byte		N80   , Fs1 
	.byte		N80   , Cs2 
	.byte	W84
	.byte		N05   , Gs1 
	.byte	W06
	.byte		        An1 
	.byte	W06
@ 065   ----------------------------------------
	.byte		N32   , Gs1 
	.byte	W36
	.byte		N23   , Bn1 
	.byte	W24
	.byte		        An1 
	.byte	W24
	.byte		N11   , Gs1 
	.byte	W12
@ 066   ----------------------------------------
	.byte		N32   , Fs1 
	.byte		N32   , Cs2 
	.byte	W36
	.byte		N44   , Fs1 
	.byte		N44   , Cs2 
	.byte	W48
	.byte		N05   , Gs1 
	.byte	W06
	.byte		        An1 
	.byte	W06
@ 067   ----------------------------------------
	.byte		N92   , Cs2 
	.byte		N92   , Gs2 
	.byte	W96
@ 068   ----------------------------------------
	.byte		N15   , Gs1 
	.byte	W16
	.byte		        Fs1 
	.byte	W16
	.byte		        Gs1 
	.byte	W16
	.byte		        An1 
	.byte	W16
	.byte		        Bn1 
	.byte	W16
	.byte		        Cs2 
	.byte	W16
@ 069   ----------------------------------------
	.byte		        Bn1 
	.byte	W16
	.byte		        An1 
	.byte	W16
	.byte		        Gs1 
	.byte	W16
	.byte		        Fs1 
	.byte	W16
	.byte		        En1 
	.byte	W32
@ 070   ----------------------------------------
	.byte	W96
@ 071   ----------------------------------------
	.byte	W96
@ 072   ----------------------------------------
	.byte	W96
@ 073   ----------------------------------------
	.byte	W96
@ 074   ----------------------------------------
	.byte	W96
@ 075   ----------------------------------------
	.byte	W96
@ 076   ----------------------------------------
	.byte	W96
@ 077   ----------------------------------------
	.byte	W96
@ 078   ----------------------------------------
	.byte	PATT
	 .word	I_Burn_3_037
@ 079   ----------------------------------------
	.byte	PATT
	 .word	I_Burn_3_038
@ 080   ----------------------------------------
	.byte	PATT
	 .word	I_Burn_3_039
@ 081   ----------------------------------------
	.byte	PATT
	 .word	I_Burn_3_040
@ 082   ----------------------------------------
	.byte	PATT
	 .word	I_Burn_3_041
@ 083   ----------------------------------------
	.byte	PATT
	 .word	I_Burn_3_038
@ 084   ----------------------------------------
	.byte	PATT
	 .word	I_Burn_3_039
@ 085   ----------------------------------------
	.byte	PATT
	 .word	I_Burn_3_040
@ 086   ----------------------------------------
	.byte		N92   , Cn2 , v096
	.byte		N92   , Gn2 
	.byte	W96
@ 087   ----------------------------------------
	.byte		        An1 
	.byte		N92   , En2 
	.byte	W96
@ 088   ----------------------------------------
	.byte		        Dn2 
	.byte		N92   , An2 
	.byte	W96
@ 089   ----------------------------------------
	.byte	PATT
	 .word	I_Burn_3_048
@ 090   ----------------------------------------
	.byte	PATT
	 .word	I_Burn_3_049
@ 091   ----------------------------------------
	.byte	PATT
	 .word	I_Burn_3_050
@ 092   ----------------------------------------
	.byte	PATT
	 .word	I_Burn_3_051
@ 093   ----------------------------------------
	.byte	PATT
	 .word	I_Burn_3_052
@ 094   ----------------------------------------
	.byte		N23   , Bn1 , v096
	.byte		N23   , Bn2 
	.byte	W96
@ 095   ----------------------------------------
	.byte	PATT
	 .word	I_Burn_3_021
@ 096   ----------------------------------------
	.byte	PATT
	 .word	I_Burn_3_022
@ 097   ----------------------------------------
	.byte	PATT
	 .word	I_Burn_3_023
@ 098   ----------------------------------------
	.byte	PATT
	 .word	I_Burn_3_024
@ 099   ----------------------------------------
	.byte	PATT
	 .word	I_Burn_3_021
@ 100   ----------------------------------------
	.byte	PATT
	 .word	I_Burn_3_022
@ 101   ----------------------------------------
	.byte	PATT
	 .word	I_Burn_3_023
@ 102   ----------------------------------------
	.byte	PATT
	 .word	I_Burn_3_024
@ 103   ----------------------------------------
	.byte	PATT
	 .word	I_Burn_3_021
@ 104   ----------------------------------------
	.byte	PATT
	 .word	I_Burn_3_022
@ 105   ----------------------------------------
	.byte	PATT
	 .word	I_Burn_3_023
@ 106   ----------------------------------------
	.byte	PATT
	 .word	I_Burn_3_024
@ 107   ----------------------------------------
	.byte	PATT
	 .word	I_Burn_3_021
@ 108   ----------------------------------------
	.byte	PATT
	 .word	I_Burn_3_022
@ 109   ----------------------------------------
	.byte	PATT
	 .word	I_Burn_3_023
@ 110   ----------------------------------------
	.byte	PATT
	 .word	I_Burn_3_024
@ 111   ----------------------------------------
	.byte		N23   , Cs2 , v096
	.byte	W96
@ 112   ----------------------------------------
	.byte	W23
	.byte	GOTO
	 .word	I_Burn_3_B1
I_Burn_3_B2:
	.byte	FINE

@**************** Track 4 (Midi-Chn.4) ****************@

I_Burn_4:
	.byte	KEYSH , I_Burn_key+0
I_Burn_4_B1:
@ 000   ----------------------------------------
	.byte		VOICE , 31
	.byte		VOL   , 75*I_Burn_mvl/mxv
	.byte		PAN   , c_v+0
	.byte		N17   , En1 , v080
	.byte	W18
	.byte		N17   
	.byte	W18
	.byte		N11   
	.byte		N11   , Bn1 
	.byte	W60
@ 001   ----------------------------------------
I_Burn_4_001:
	.byte		N17   , Cn2 , v080
	.byte	W18
	.byte		N17   
	.byte	W18
	.byte		N11   
	.byte		N11   , Gn2 
	.byte	W60
	.byte	PEND
@ 002   ----------------------------------------
I_Burn_4_002:
	.byte		N17   , Fs1 , v080
	.byte		N17   , Cn2 
	.byte	W18
	.byte		        Fs1 
	.byte		N17   , Cn2 
	.byte	W18
	.byte		N11   , Fs1 
	.byte		N11   , Cn2 
	.byte	W60
	.byte	PEND
@ 003   ----------------------------------------
I_Burn_4_003:
	.byte		N17   , Bn1 , v080
	.byte	W18
	.byte		N17   
	.byte	W18
	.byte		N11   
	.byte	W60
	.byte	PEND
@ 004   ----------------------------------------
I_Burn_4_004:
	.byte		N17   , En1 , v080
	.byte	W18
	.byte		N17   
	.byte	W18
	.byte		N11   
	.byte		N11   , Bn1 
	.byte	W60
	.byte	PEND
@ 005   ----------------------------------------
	.byte	PATT
	 .word	I_Burn_4_001
@ 006   ----------------------------------------
	.byte	PATT
	 .word	I_Burn_4_002
@ 007   ----------------------------------------
	.byte	PATT
	 .word	I_Burn_4_003
@ 008   ----------------------------------------
	.byte	PATT
	 .word	I_Burn_4_004
@ 009   ----------------------------------------
	.byte	PATT
	 .word	I_Burn_4_001
@ 010   ----------------------------------------
	.byte	PATT
	 .word	I_Burn_4_002
@ 011   ----------------------------------------
	.byte	PATT
	 .word	I_Burn_4_003
@ 012   ----------------------------------------
	.byte		N92   , Cn2 , v080
	.byte		N92   , Gn2 
	.byte	W96
@ 013   ----------------------------------------
	.byte		        An1 
	.byte		N92   , En2 
	.byte	W96
@ 014   ----------------------------------------
	.byte		        Dn2 
	.byte		N92   , An2 
	.byte	W96
@ 015   ----------------------------------------
	.byte		        En1 
	.byte		N92   , Bn1 
	.byte	W96
@ 016   ----------------------------------------
	.byte		        Cn2 
	.byte		N92   , Gn2 
	.byte	W96
@ 017   ----------------------------------------
	.byte		        An1 
	.byte		N92   , En2 
	.byte	W96
@ 018   ----------------------------------------
	.byte		        Cn2 
	.byte		N92   , Fs2 
	.byte	W96
@ 019   ----------------------------------------
	.byte		        Bn1 
	.byte		N92   , Fs2 
	.byte	W96
@ 020   ----------------------------------------
	.byte		N17   , Bn1 
	.byte		N17   , Fs2 
	.byte	W18
	.byte		        Bn1 
	.byte		N17   , Fs2 
	.byte	W18
	.byte		N11   , Bn1 
	.byte		N11   , Fs2 
	.byte	W12
	.byte		N23   , Bn1 
	.byte		N23   , Fs2 
	.byte	W48
@ 021   ----------------------------------------
I_Burn_4_021:
	.byte		N17   , Cs2 , v080
	.byte		N17   , Gs2 
	.byte	W18
	.byte		        Cs2 
	.byte		N17   , Gs2 
	.byte	W18
	.byte		N11   , Cs2 
	.byte		N11   , Gs2 
	.byte	W24
	.byte		N23   , Cs2 
	.byte		N23   , Gs2 
	.byte	W24
	.byte		N11   , Cs2 
	.byte		N11   , Gs2 
	.byte	W12
	.byte	PEND
@ 022   ----------------------------------------
I_Burn_4_022:
	.byte		N17   , An1 , v080
	.byte		N17   , En2 
	.byte	W18
	.byte		        An1 
	.byte		N17   , En2 
	.byte	W18
	.byte		N11   , An1 
	.byte		N11   , En2 
	.byte	W24
	.byte		N23   , An1 
	.byte		N23   , En2 
	.byte	W24
	.byte		N11   , An1 
	.byte		N11   , En2 
	.byte	W12
	.byte	PEND
@ 023   ----------------------------------------
I_Burn_4_023:
	.byte		N17   , Bn1 , v080
	.byte		N17   , Fs2 
	.byte	W18
	.byte		        Bn1 
	.byte		N17   , Fs2 
	.byte	W18
	.byte		N11   , Bn1 
	.byte		N11   , Fs2 
	.byte	W24
	.byte		N23   , Bn1 
	.byte		N23   , Fs2 
	.byte	W24
	.byte		N11   , Bn1 
	.byte		N11   , Fs2 
	.byte	W12
	.byte	PEND
@ 024   ----------------------------------------
I_Burn_4_024:
	.byte		N17   , En2 , v080
	.byte		N17   , Bn2 
	.byte	W18
	.byte		        En2 
	.byte		N17   , Bn2 
	.byte	W18
	.byte		N11   , En2 
	.byte		N11   , Bn2 
	.byte	W12
	.byte		N23   , Ds2 
	.byte		N23   , As2 
	.byte	W24
	.byte		        Ds2 
	.byte		N23   , As2 
	.byte	W24
	.byte	PEND
@ 025   ----------------------------------------
	.byte	PATT
	 .word	I_Burn_4_021
@ 026   ----------------------------------------
	.byte	PATT
	 .word	I_Burn_4_022
@ 027   ----------------------------------------
	.byte	PATT
	 .word	I_Burn_4_023
@ 028   ----------------------------------------
	.byte	PATT
	 .word	I_Burn_4_024
@ 029   ----------------------------------------
	.byte	W96
@ 030   ----------------------------------------
	.byte	W96
@ 031   ----------------------------------------
	.byte	W96
@ 032   ----------------------------------------
	.byte	W96
@ 033   ----------------------------------------
	.byte	W96
@ 034   ----------------------------------------
	.byte	W96
@ 035   ----------------------------------------
	.byte	W96
@ 036   ----------------------------------------
	.byte	W96
@ 037   ----------------------------------------
	.byte		N11   , En1 , v080
	.byte	W36
	.byte		N11   
	.byte	W36
	.byte		N11   
	.byte	W24
@ 038   ----------------------------------------
I_Burn_4_038:
	.byte		N11   , Cn2 , v080
	.byte		N11   , Gn2 
	.byte	W36
	.byte		        Cn2 
	.byte		N11   , Gn2 
	.byte	W36
	.byte		        Cn2 
	.byte		N11   , Gn2 
	.byte	W24
	.byte	PEND
@ 039   ----------------------------------------
I_Burn_4_039:
	.byte		N11   , Fs1 , v080
	.byte		N11   , Cn2 
	.byte	W36
	.byte		        Fs1 
	.byte		N11   , Cn2 
	.byte	W36
	.byte		        Fs1 
	.byte		N11   , Cn2 
	.byte	W24
	.byte	PEND
@ 040   ----------------------------------------
I_Burn_4_040:
	.byte		N11   , Bn1 , v080
	.byte		N11   , Fs2 
	.byte	W36
	.byte		        Bn1 
	.byte		N11   , Fs2 
	.byte	W36
	.byte		        Bn1 
	.byte		N11   , Fs2 
	.byte	W24
	.byte	PEND
@ 041   ----------------------------------------
I_Burn_4_041:
	.byte		N11   , En2 , v080
	.byte		N11   , Bn2 
	.byte	W36
	.byte		        En2 
	.byte		N11   , Bn2 
	.byte	W36
	.byte		        En2 
	.byte		N11   , Bn2 
	.byte	W24
	.byte	PEND
@ 042   ----------------------------------------
	.byte	PATT
	 .word	I_Burn_4_038
@ 043   ----------------------------------------
	.byte	PATT
	 .word	I_Burn_4_039
@ 044   ----------------------------------------
	.byte	PATT
	 .word	I_Burn_4_040
@ 045   ----------------------------------------
	.byte		N92   , Cn2 , v080
	.byte		N92   , Gn2 
	.byte	W96
@ 046   ----------------------------------------
I_Burn_4_046:
	.byte		N23   , An1 , v080
	.byte		N23   , En2 
	.byte	W36
	.byte		N56   , An1 
	.byte		N56   , En2 
	.byte	W60
	.byte	PEND
@ 047   ----------------------------------------
I_Burn_4_047:
	.byte		N23   , Dn2 , v080
	.byte		N23   , An2 
	.byte	W36
	.byte		N32   , Dn2 
	.byte		N32   , An2 
	.byte	W60
	.byte	PEND
@ 048   ----------------------------------------
I_Burn_4_048:
	.byte		N17   , En2 , v080
	.byte		N17   , Bn2 
	.byte	W18
	.byte		        En1 
	.byte	W18
	.byte		        En2 
	.byte		N17   , Bn2 
	.byte	W18
	.byte		N11   , En1 
	.byte		N11   , En2 
	.byte		N11   , Bn2 
	.byte	W12
	.byte		N05   , En1 
	.byte		N05   , En2 
	.byte		N05   , Bn2 
	.byte	W06
	.byte		N23   , En2 
	.byte		N23   , Bn2 
	.byte	W24
	.byte	PEND
@ 049   ----------------------------------------
I_Burn_4_049:
	.byte		N23   , Cn2 , v080
	.byte		N23   , Gn2 
	.byte	W36
	.byte		N32   , Cn2 
	.byte		N32   , Gn2 
	.byte	W60
	.byte	PEND
@ 050   ----------------------------------------
I_Burn_4_050:
	.byte		N23   , An1 , v080
	.byte		N23   , En2 
	.byte	W36
	.byte		N32   , An1 
	.byte		N32   , En2 
	.byte	W60
	.byte	PEND
@ 051   ----------------------------------------
I_Burn_4_051:
	.byte		N23   , Cn2 , v080
	.byte		N23   , Fs2 
	.byte	W36
	.byte		N32   , Cn2 
	.byte		N32   , Fs2 
	.byte	W60
	.byte	PEND
@ 052   ----------------------------------------
I_Burn_4_052:
	.byte		N23   , Bn1 , v080
	.byte		N23   , Bn2 
	.byte	W36
	.byte		N17   , Bn1 
	.byte		N17   , Bn2 
	.byte	W18
	.byte		        Bn1 
	.byte		N17   , Bn2 
	.byte	W18
	.byte		        Bn1 
	.byte		N17   , Bn2 
	.byte	W18
	.byte		N05   , Bn1 
	.byte		N05   , Bn2 
	.byte	W06
	.byte	PEND
@ 053   ----------------------------------------
	.byte		N23   , Bn1 
	.byte		N23   , Bn2 
	.byte	W96
@ 054   ----------------------------------------
	.byte	PATT
	 .word	I_Burn_4_021
@ 055   ----------------------------------------
	.byte	PATT
	 .word	I_Burn_4_022
@ 056   ----------------------------------------
	.byte	PATT
	 .word	I_Burn_4_023
@ 057   ----------------------------------------
	.byte	PATT
	 .word	I_Burn_4_024
@ 058   ----------------------------------------
	.byte	PATT
	 .word	I_Burn_4_021
@ 059   ----------------------------------------
	.byte	PATT
	 .word	I_Burn_4_022
@ 060   ----------------------------------------
	.byte	PATT
	 .word	I_Burn_4_023
@ 061   ----------------------------------------
	.byte	PATT
	 .word	I_Burn_4_024
@ 062   ----------------------------------------
	.byte		N56   , Fs1 , v080
	.byte		N56   , Cs2 
	.byte	W60
	.byte		N11   , Gs1 
	.byte	W12
	.byte		N23   , An1 
	.byte	W24
@ 063   ----------------------------------------
	.byte		N56   , Cs2 
	.byte		N56   , Gs2 
	.byte	W60
	.byte		N11   , Cs2 
	.byte		N11   , Gs2 
	.byte	W12
	.byte		N23   , Cs2 
	.byte		N23   , Gs2 
	.byte	W24
@ 064   ----------------------------------------
	.byte		N80   , Fs1 
	.byte		N80   , Cs2 
	.byte	W84
	.byte		N05   , Gs1 
	.byte	W06
	.byte		        An1 
	.byte	W06
@ 065   ----------------------------------------
	.byte		N32   , Gs1 
	.byte	W36
	.byte		N23   , Bn1 
	.byte	W24
	.byte		        An1 
	.byte	W24
	.byte		N11   , Gs1 
	.byte	W12
@ 066   ----------------------------------------
	.byte		N32   , Fs1 
	.byte		N32   , Cs2 
	.byte	W36
	.byte		N44   , Fs1 
	.byte		N44   , Cs2 
	.byte	W48
	.byte		N05   , Gs1 
	.byte	W06
	.byte		        An1 
	.byte	W06
@ 067   ----------------------------------------
	.byte		N32   , Cs2 
	.byte		N32   , Gs2 
	.byte	W36
	.byte		N23   , Cs2 
	.byte		N23   , Gs2 
	.byte	W24
	.byte		        Cs2 
	.byte		N23   , Gs2 
	.byte	W36
@ 068   ----------------------------------------
	.byte		N15   
	.byte	W16
	.byte		        Fs2 
	.byte	W16
	.byte		        Gs2 
	.byte	W16
	.byte		        An2 
	.byte	W16
	.byte		        Bn2 
	.byte	W16
	.byte		        Cs3 
	.byte	W16
@ 069   ----------------------------------------
	.byte		        Bn2 
	.byte	W16
	.byte		        An2 
	.byte	W16
	.byte		        Gs2 
	.byte	W16
	.byte		        Fs2 
	.byte	W16
	.byte		        En2 
	.byte	W16
	.byte		        Cs2 
	.byte	W16
@ 070   ----------------------------------------
	.byte	W96
@ 071   ----------------------------------------
	.byte	W96
@ 072   ----------------------------------------
	.byte	W96
@ 073   ----------------------------------------
	.byte	W96
@ 074   ----------------------------------------
	.byte	W96
@ 075   ----------------------------------------
	.byte	W96
@ 076   ----------------------------------------
	.byte	W96
@ 077   ----------------------------------------
	.byte	W96
@ 078   ----------------------------------------
	.byte		N17   , En2 
	.byte		N17   , Bn2 
	.byte	W18
	.byte		        En2 
	.byte		N17   , Bn2 
	.byte	W18
	.byte		N11   , En2 
	.byte		N11   , Bn2 
	.byte	W36
	.byte		        En2 
	.byte		N11   , Bn2 
	.byte	W24
@ 079   ----------------------------------------
	.byte	PATT
	 .word	I_Burn_4_038
@ 080   ----------------------------------------
	.byte	PATT
	 .word	I_Burn_4_039
@ 081   ----------------------------------------
	.byte	PATT
	 .word	I_Burn_4_040
@ 082   ----------------------------------------
	.byte	PATT
	 .word	I_Burn_4_041
@ 083   ----------------------------------------
	.byte	PATT
	 .word	I_Burn_4_038
@ 084   ----------------------------------------
	.byte	PATT
	 .word	I_Burn_4_039
@ 085   ----------------------------------------
	.byte	PATT
	 .word	I_Burn_4_040
@ 086   ----------------------------------------
	.byte		N92   , Cn2 , v080
	.byte		N92   , Gn2 
	.byte	W96
@ 087   ----------------------------------------
	.byte	PATT
	 .word	I_Burn_4_046
@ 088   ----------------------------------------
	.byte	PATT
	 .word	I_Burn_4_047
@ 089   ----------------------------------------
	.byte	PATT
	 .word	I_Burn_4_048
@ 090   ----------------------------------------
	.byte	PATT
	 .word	I_Burn_4_049
@ 091   ----------------------------------------
	.byte	PATT
	 .word	I_Burn_4_050
@ 092   ----------------------------------------
	.byte	PATT
	 .word	I_Burn_4_051
@ 093   ----------------------------------------
	.byte	PATT
	 .word	I_Burn_4_052
@ 094   ----------------------------------------
	.byte		N23   , Bn1 , v080
	.byte		N23   , Bn2 
	.byte	W96
@ 095   ----------------------------------------
	.byte	PATT
	 .word	I_Burn_4_021
@ 096   ----------------------------------------
	.byte	PATT
	 .word	I_Burn_4_022
@ 097   ----------------------------------------
	.byte	PATT
	 .word	I_Burn_4_023
@ 098   ----------------------------------------
	.byte	PATT
	 .word	I_Burn_4_024
@ 099   ----------------------------------------
	.byte	PATT
	 .word	I_Burn_4_021
@ 100   ----------------------------------------
	.byte	PATT
	 .word	I_Burn_4_022
@ 101   ----------------------------------------
	.byte	PATT
	 .word	I_Burn_4_023
@ 102   ----------------------------------------
	.byte	PATT
	 .word	I_Burn_4_024
@ 103   ----------------------------------------
	.byte	PATT
	 .word	I_Burn_4_021
@ 104   ----------------------------------------
	.byte	PATT
	 .word	I_Burn_4_022
@ 105   ----------------------------------------
	.byte	PATT
	 .word	I_Burn_4_023
@ 106   ----------------------------------------
	.byte	PATT
	 .word	I_Burn_4_024
@ 107   ----------------------------------------
	.byte	PATT
	 .word	I_Burn_4_021
@ 108   ----------------------------------------
	.byte	PATT
	 .word	I_Burn_4_022
@ 109   ----------------------------------------
	.byte	PATT
	 .word	I_Burn_4_023
@ 110   ----------------------------------------
	.byte	PATT
	 .word	I_Burn_4_024
@ 111   ----------------------------------------
	.byte		N23   , Cs2 , v080
	.byte		N23   , Gs2 
	.byte	W96
@ 112   ----------------------------------------
	.byte	W23
	.byte	GOTO
	 .word	I_Burn_4_B1
I_Burn_4_B2:
	.byte	FINE

@**************** Track 5 (Midi-Chn.5) ****************@

I_Burn_5:
	.byte	KEYSH , I_Burn_key+0
I_Burn_5_B1:
@ 000   ----------------------------------------
	.byte		VOICE , 31
	.byte		VOL   , 90*I_Burn_mvl/mxv
	.byte		PAN   , c_v+0
	.byte	W96
@ 001   ----------------------------------------
	.byte	W96
@ 002   ----------------------------------------
	.byte	W96
@ 003   ----------------------------------------
	.byte	W96
@ 004   ----------------------------------------
	.byte	W96
@ 005   ----------------------------------------
	.byte	W96
@ 006   ----------------------------------------
	.byte	W96
@ 007   ----------------------------------------
	.byte	W96
@ 008   ----------------------------------------
	.byte	W96
@ 009   ----------------------------------------
	.byte	W96
@ 010   ----------------------------------------
	.byte	W96
@ 011   ----------------------------------------
	.byte	W96
@ 012   ----------------------------------------
	.byte	W96
@ 013   ----------------------------------------
	.byte	W96
@ 014   ----------------------------------------
	.byte	W96
@ 015   ----------------------------------------
	.byte	W96
@ 016   ----------------------------------------
	.byte	W96
@ 017   ----------------------------------------
	.byte	W96
@ 018   ----------------------------------------
	.byte	W96
@ 019   ----------------------------------------
	.byte	W96
@ 020   ----------------------------------------
	.byte	W96
@ 021   ----------------------------------------
	.byte	W96
@ 022   ----------------------------------------
	.byte	W96
@ 023   ----------------------------------------
	.byte	W96
@ 024   ----------------------------------------
	.byte	W96
@ 025   ----------------------------------------
	.byte	W96
@ 026   ----------------------------------------
	.byte	W96
@ 027   ----------------------------------------
	.byte	W96
@ 028   ----------------------------------------
	.byte	W96
@ 029   ----------------------------------------
	.byte		N17   , Cs2 , v127
	.byte	W18
	.byte		        Gn1 
	.byte	W18
	.byte		N23   , Gn2 
	.byte	W24
	.byte		N17   , Cn2 
	.byte	W18
	.byte		        Fs1 
	.byte	W18
@ 030   ----------------------------------------
	.byte		        Fs2 
	.byte	W18
	.byte		        Bn1 
	.byte	W18
	.byte		N11   , Fn1 
	.byte	W12
	.byte		N23   , Fn2 
	.byte	W24
	.byte		        Bn1 
	.byte	W24
@ 031   ----------------------------------------
	.byte		N17   , Cs2 
	.byte	W18
	.byte		        Gn1 
	.byte	W12
	.byte		N05   , Gn2 
	.byte	W06
	.byte		N23   
	.byte	W24
	.byte		N17   , Fs1 
	.byte	W18
	.byte		        Fs2 
	.byte	W18
@ 032   ----------------------------------------
	.byte		        Cn2 
	.byte	W18
	.byte		        Gn1 
	.byte	W18
	.byte		N11   , Fn2 
	.byte	W12
	.byte		N44   , Cn2 
	.byte		N44   , An4 
	.byte	W48
@ 033   ----------------------------------------
	.byte		N17   , Cs2 
	.byte	W18
	.byte		        Gn1 
	.byte	W18
	.byte		N23   , Gn2 
	.byte	W24
	.byte		N17   , Fs1 
	.byte	W18
	.byte		        Cn2 
	.byte	W18
@ 034   ----------------------------------------
	.byte		        Fs2 
	.byte	W18
	.byte		        Fn2 
	.byte	W18
	.byte		N11   , Bn1 
	.byte	W12
	.byte		N23   , Fn1 
	.byte	W24
	.byte		        Bn1 
	.byte	W24
@ 035   ----------------------------------------
	.byte		N17   , Gn1 
	.byte	W18
	.byte		        Cs2 
	.byte	W18
	.byte		N11   , Gn2 
	.byte	W12
	.byte		N17   , Cs3 
	.byte	W18
	.byte		        Dn3 
	.byte	W18
	.byte		N11   , Gn2 
	.byte	W12
@ 036   ----------------------------------------
	.byte		N15   , Dn2 
	.byte	W16
	.byte		        Gs1 
	.byte	W16
	.byte		        Cn2 
	.byte	W16
	.byte		        Bn1 
	.byte	W16
	.byte		        Gn1 
	.byte	W16
	.byte		        Fs1 
	.byte	W16
@ 037   ----------------------------------------
	.byte	W96
@ 038   ----------------------------------------
	.byte	W96
@ 039   ----------------------------------------
	.byte	W96
@ 040   ----------------------------------------
	.byte	W96
@ 041   ----------------------------------------
	.byte	W96
@ 042   ----------------------------------------
	.byte	W96
@ 043   ----------------------------------------
	.byte	W96
@ 044   ----------------------------------------
	.byte	W96
@ 045   ----------------------------------------
	.byte	W96
@ 046   ----------------------------------------
	.byte	W96
@ 047   ----------------------------------------
	.byte	W96
@ 048   ----------------------------------------
	.byte	W96
@ 049   ----------------------------------------
	.byte	W96
@ 050   ----------------------------------------
	.byte	W96
@ 051   ----------------------------------------
	.byte	W96
@ 052   ----------------------------------------
	.byte	W96
@ 053   ----------------------------------------
	.byte	W96
@ 054   ----------------------------------------
	.byte	W96
@ 055   ----------------------------------------
	.byte	W96
@ 056   ----------------------------------------
	.byte	W96
@ 057   ----------------------------------------
	.byte	W96
@ 058   ----------------------------------------
	.byte	W96
@ 059   ----------------------------------------
	.byte	W96
@ 060   ----------------------------------------
	.byte	W96
@ 061   ----------------------------------------
	.byte	W96
@ 062   ----------------------------------------
	.byte	W96
@ 063   ----------------------------------------
	.byte	W96
@ 064   ----------------------------------------
	.byte	W96
@ 065   ----------------------------------------
	.byte	W96
@ 066   ----------------------------------------
	.byte	W96
@ 067   ----------------------------------------
	.byte	W96
@ 068   ----------------------------------------
	.byte	W96
@ 069   ----------------------------------------
	.byte	W96
@ 070   ----------------------------------------
	.byte	W96
@ 071   ----------------------------------------
	.byte	W96
@ 072   ----------------------------------------
	.byte	W96
@ 073   ----------------------------------------
	.byte	W96
@ 074   ----------------------------------------
	.byte	W96
@ 075   ----------------------------------------
	.byte	W96
@ 076   ----------------------------------------
	.byte	W96
@ 077   ----------------------------------------
	.byte	W96
@ 078   ----------------------------------------
	.byte	W96
@ 079   ----------------------------------------
	.byte	W96
@ 080   ----------------------------------------
	.byte	W96
@ 081   ----------------------------------------
	.byte	W96
@ 082   ----------------------------------------
	.byte	W96
@ 083   ----------------------------------------
	.byte	W96
@ 084   ----------------------------------------
	.byte	W96
@ 085   ----------------------------------------
	.byte	W24
	.byte		N05   , Fs2 
	.byte	W06
	.byte		        Gn2 
	.byte	W06
	.byte		N02   , An2 
	.byte	W03
	.byte		        Bn2 
	.byte	W03
	.byte		        Cn3 
	.byte	W03
	.byte		        Dn3 
	.byte	W03
	.byte		N05   , En3 
	.byte	W06
	.byte		        Fs3 
	.byte	W06
	.byte		N03   , Gn3 
	.byte	W04
	.byte		        Gs3 
	.byte	W04
	.byte		        An3 
	.byte	W04
	.byte		N05   , Bn3 
	.byte	W06
	.byte		        An3 
	.byte	W06
	.byte		        Bn3 
	.byte	W06
	.byte		        An3 
	.byte	W06
@ 086   ----------------------------------------
	.byte		N02   , En4 
	.byte	W03
	.byte		        Dn4 
	.byte	W03
	.byte		        En4 
	.byte	W03
	.byte		        Cn4 
	.byte	W03
	.byte		N05   , Bn3 
	.byte	W06
	.byte		        An3 
	.byte	W06
	.byte		N02   , En4 
	.byte	W03
	.byte		        Dn4 
	.byte	W03
	.byte		        En4 
	.byte	W03
	.byte		        Cn4 
	.byte	W03
	.byte		N05   , Bn3 
	.byte	W06
	.byte		        An3 
	.byte	W06
	.byte		N04   , En4 
	.byte	W04
	.byte		        Dn4 
	.byte	W05
	.byte		N02   , En4 
	.byte	W03
	.byte		N04   , Cn4 
	.byte	W04
	.byte		        Bn3 
	.byte	W05
	.byte		N02   , An3 
	.byte	W03
	.byte		N04   , En4 
	.byte	W04
	.byte		        Dn4 
	.byte	W05
	.byte		N02   , En4 
	.byte	W03
	.byte		N04   , Cn4 
	.byte	W04
	.byte		        Bn3 
	.byte	W05
	.byte		N02   , An3 
	.byte	W03
@ 087   ----------------------------------------
	.byte		        Bn3 
	.byte	W03
	.byte		        An3 
	.byte	W03
	.byte		N04   , Bn3 
	.byte	W04
	.byte		N01   , Gn3 
	.byte	W02
	.byte		N01   
	.byte	W02
	.byte		        Fs3 
	.byte	W02
	.byte		        En3 
	.byte	W02
	.byte		N05   , Gn3 
	.byte	W06
	.byte		N08   
	.byte	W09
	.byte		N02   , En3 
	.byte	W03
	.byte		N05   , Dn3 
	.byte	W06
	.byte		        Bn2 
	.byte	W06
	.byte		N02   , Gn3 
	.byte	W01
	.byte		N01   , Dn3 
	.byte	W02
	.byte		N04   , Gn3 
	.byte	W04
	.byte		N01   , En3 
	.byte	W02
	.byte		N04   , Dn3 
	.byte	W04
	.byte		N02   , Bn2 
	.byte	W03
	.byte		N04   , Dn3 
	.byte	W05
	.byte		N02   , Bn2 
	.byte	W03
	.byte		N05   , Dn3 
	.byte	W06
	.byte		N02   , Fs3 
	.byte	W03
	.byte		        En3 
	.byte	W03
	.byte		N05   , Dn3 
	.byte	W06
	.byte		N02   , Bn2 
	.byte	W03
	.byte		        Cn3 
	.byte	W03
@ 088   ----------------------------------------
	.byte		N05   , Dn3 
	.byte	W06
	.byte		        Cn3 
	.byte	W06
	.byte		        An2 
	.byte	W06
	.byte		N03   , Bn2 
	.byte	W04
	.byte		        Cn3 
	.byte	W04
	.byte		        Bn2 
	.byte	W04
	.byte		        An2 
	.byte	W04
	.byte		        Gn2 
	.byte	W04
	.byte		        Fs2 
	.byte	W04
	.byte		N05   , Gn2 
	.byte	W06
	.byte		        Fs2 
	.byte	W06
	.byte		        En2 
	.byte	W06
	.byte		        Dn2 
	.byte	W06
	.byte		        En2 
	.byte	W06
	.byte		        Dn2 
	.byte	W12
	.byte		N05   
	.byte	W06
	.byte		        En2 
	.byte	W06
@ 089   ----------------------------------------
	.byte		N23   , Fs2 
	.byte	W24
	.byte		N11   , Gn2 
	.byte	W12
	.byte		        Fs2 
	.byte	W12
	.byte		N23   , En2 
	.byte	W24
	.byte		N11   , An3 
	.byte	W12
	.byte		N68   , Dn3 
	.byte	W12
@ 090   ----------------------------------------
	.byte	W72
	.byte		N05   , En3 
	.byte	W06
	.byte		        Fs3 
	.byte	W06
	.byte		N80   
	.byte	W12
@ 091   ----------------------------------------
	.byte	W72
	.byte		N11   , Gn3 
	.byte	W12
	.byte		N68   , Dn4 
	.byte	W12
@ 092   ----------------------------------------
	.byte	W84
	.byte		N56   , Gn4 
	.byte	W12
@ 093   ----------------------------------------
	.byte	W48
	.byte		N07   , En4 
	.byte	W08
	.byte		        Fs4 
	.byte	W08
	.byte		        Gn4 
	.byte	W08
	.byte		        Fs4 
	.byte	W08
	.byte		        En4 
	.byte	W08
	.byte		        Fs4 
	.byte	W08
@ 094   ----------------------------------------
	.byte		N44   , An4 
	.byte	W48
	.byte		        Bn4 
	.byte	W48
@ 095   ----------------------------------------
	.byte		        Cs5 
	.byte	W96
@ 096   ----------------------------------------
	.byte	W96
@ 097   ----------------------------------------
	.byte	W96
@ 098   ----------------------------------------
	.byte	W96
@ 099   ----------------------------------------
	.byte	W96
@ 100   ----------------------------------------
	.byte	W96
@ 101   ----------------------------------------
	.byte	W96
@ 102   ----------------------------------------
	.byte	W96
@ 103   ----------------------------------------
	.byte	W96
@ 104   ----------------------------------------
	.byte	W96
@ 105   ----------------------------------------
	.byte	W96
@ 106   ----------------------------------------
	.byte	W96
@ 107   ----------------------------------------
	.byte	W96
@ 108   ----------------------------------------
	.byte	W96
@ 109   ----------------------------------------
	.byte	W96
@ 110   ----------------------------------------
	.byte	W96
@ 111   ----------------------------------------
	.byte	W96
@ 112   ----------------------------------------
	.byte	W23
	.byte	GOTO
	 .word	I_Burn_5_B1
I_Burn_5_B2:
	.byte	FINE

@**************** Track 6 (Midi-Chn.6) ****************@

I_Burn_6:
	.byte	KEYSH , I_Burn_key+0
I_Burn_6_B1:
@ 000   ----------------------------------------
	.byte		VOICE , 33
	.byte		VOL   , 127*I_Burn_mvl/mxv
	.byte		PAN   , c_v+0
	.byte	W96
@ 001   ----------------------------------------
	.byte	W96
@ 002   ----------------------------------------
	.byte	W96
@ 003   ----------------------------------------
	.byte	W96
@ 004   ----------------------------------------
I_Burn_6_004:
	.byte	W72
	.byte		N05   , En1 , v080
	.byte	W06
	.byte		        Fs1 
	.byte	W06
	.byte		        Gn1 
	.byte	W06
	.byte		        An1 
	.byte	W06
	.byte	PEND
@ 005   ----------------------------------------
I_Burn_6_005:
	.byte	W72
	.byte		N05   , Fs1 , v080
	.byte	W06
	.byte		        Gn1 
	.byte	W06
	.byte		        An1 
	.byte	W06
	.byte		        Bn1 
	.byte	W06
	.byte	PEND
@ 006   ----------------------------------------
I_Burn_6_006:
	.byte	W72
	.byte		N05   , Gn1 , v080
	.byte	W06
	.byte		        An1 
	.byte	W06
	.byte		        Cn2 
	.byte	W06
	.byte		        An1 
	.byte	W06
	.byte	PEND
@ 007   ----------------------------------------
I_Burn_6_007:
	.byte	W72
	.byte		N05   , Bn1 , v080
	.byte	W06
	.byte		        An1 
	.byte	W06
	.byte		        Gn1 
	.byte	W06
	.byte		        Fs1 
	.byte	W06
	.byte	PEND
@ 008   ----------------------------------------
	.byte	PATT
	 .word	I_Burn_6_004
@ 009   ----------------------------------------
	.byte	PATT
	 .word	I_Burn_6_005
@ 010   ----------------------------------------
	.byte	PATT
	 .word	I_Burn_6_006
@ 011   ----------------------------------------
	.byte	PATT
	 .word	I_Burn_6_007
@ 012   ----------------------------------------
I_Burn_6_012:
	.byte		N17   , Cn2 , v080
	.byte	W18
	.byte		N17   
	.byte	W18
	.byte		N11   
	.byte	W24
	.byte		N11   
	.byte	W12
	.byte		        Cn3 
	.byte	W12
	.byte		        Cn2 
	.byte	W12
	.byte	PEND
@ 013   ----------------------------------------
I_Burn_6_013:
	.byte		N17   , An1 , v080
	.byte	W18
	.byte		N17   
	.byte	W18
	.byte		N11   
	.byte	W24
	.byte		N11   
	.byte	W12
	.byte		        An2 
	.byte	W12
	.byte		        An1 
	.byte	W12
	.byte	PEND
@ 014   ----------------------------------------
I_Burn_6_014:
	.byte		N17   , Dn2 , v080
	.byte	W18
	.byte		N17   
	.byte	W18
	.byte		N11   
	.byte	W24
	.byte		N11   
	.byte	W12
	.byte		        Dn3 
	.byte	W12
	.byte		        Dn2 
	.byte	W12
	.byte	PEND
@ 015   ----------------------------------------
I_Burn_6_015:
	.byte		N17   , En2 , v080
	.byte	W18
	.byte		N17   
	.byte	W18
	.byte		N11   
	.byte	W24
	.byte		N11   
	.byte	W12
	.byte		        En3 
	.byte	W12
	.byte		        En2 
	.byte	W12
	.byte	PEND
@ 016   ----------------------------------------
	.byte	PATT
	 .word	I_Burn_6_012
@ 017   ----------------------------------------
	.byte	PATT
	 .word	I_Burn_6_013
@ 018   ----------------------------------------
I_Burn_6_018:
	.byte		N17   , Fs1 , v080
	.byte	W18
	.byte		N17   
	.byte	W18
	.byte		N11   
	.byte	W24
	.byte		N11   
	.byte	W36
	.byte	PEND
@ 019   ----------------------------------------
I_Burn_6_019:
	.byte		N17   , Bn1 , v080
	.byte	W18
	.byte		N17   
	.byte	W18
	.byte		N11   
	.byte	W60
	.byte	PEND
@ 020   ----------------------------------------
	.byte	PATT
	 .word	I_Burn_6_019
@ 021   ----------------------------------------
I_Burn_6_021:
	.byte		N17   , Cs2 , v080
	.byte	W18
	.byte		N17   
	.byte	W18
	.byte		N11   
	.byte	W60
	.byte	PEND
@ 022   ----------------------------------------
I_Burn_6_022:
	.byte		N17   , An1 , v080
	.byte	W18
	.byte		N17   
	.byte	W18
	.byte		N11   
	.byte	W60
	.byte	PEND
@ 023   ----------------------------------------
	.byte	PATT
	 .word	I_Burn_6_019
@ 024   ----------------------------------------
I_Burn_6_024:
	.byte		N17   , En2 , v080
	.byte	W18
	.byte		N17   
	.byte	W18
	.byte		N11   
	.byte	W12
	.byte		N23   , Ds2 
	.byte	W24
	.byte		N23   
	.byte	W24
	.byte	PEND
@ 025   ----------------------------------------
	.byte	PATT
	 .word	I_Burn_6_021
@ 026   ----------------------------------------
	.byte	PATT
	 .word	I_Burn_6_022
@ 027   ----------------------------------------
	.byte	PATT
	 .word	I_Burn_6_019
@ 028   ----------------------------------------
I_Burn_6_028:
	.byte		N23   , En2 , v080
	.byte	W24
	.byte		N23   
	.byte	W24
	.byte		        Ds2 
	.byte	W24
	.byte		N23   
	.byte	W24
	.byte	PEND
@ 029   ----------------------------------------
	.byte	W96
@ 030   ----------------------------------------
	.byte	W96
@ 031   ----------------------------------------
	.byte	W96
@ 032   ----------------------------------------
	.byte	W96
@ 033   ----------------------------------------
	.byte	W96
@ 034   ----------------------------------------
	.byte	W96
@ 035   ----------------------------------------
	.byte	W96
@ 036   ----------------------------------------
	.byte	W96
@ 037   ----------------------------------------
I_Burn_6_037:
	.byte		N17   , En1 , v080
	.byte	W18
	.byte		N17   
	.byte	W18
	.byte		N11   
	.byte	W36
	.byte		N05   
	.byte	W06
	.byte		        Fs1 
	.byte	W06
	.byte		        Gn1 
	.byte	W06
	.byte		        An1 
	.byte	W06
	.byte	PEND
@ 038   ----------------------------------------
I_Burn_6_038:
	.byte		N17   , Cn2 , v080
	.byte	W18
	.byte		N17   
	.byte	W18
	.byte		N11   
	.byte	W36
	.byte		N05   , Fs1 
	.byte	W06
	.byte		        Gn1 
	.byte	W06
	.byte		        An1 
	.byte	W06
	.byte		        Bn1 
	.byte	W06
	.byte	PEND
@ 039   ----------------------------------------
I_Burn_6_039:
	.byte		N17   , Fs1 , v080
	.byte	W18
	.byte		N17   
	.byte	W18
	.byte		N11   
	.byte	W36
	.byte		N05   , Gn1 
	.byte	W06
	.byte		        An1 
	.byte	W06
	.byte		        Cn2 
	.byte	W06
	.byte		        An1 
	.byte	W06
	.byte	PEND
@ 040   ----------------------------------------
I_Burn_6_040:
	.byte		N17   , Bn1 , v080
	.byte	W18
	.byte		N17   
	.byte	W18
	.byte		N11   
	.byte	W36
	.byte		N05   
	.byte	W06
	.byte		        An1 
	.byte	W06
	.byte		        Gn1 
	.byte	W06
	.byte		        Fs1 
	.byte	W06
	.byte	PEND
@ 041   ----------------------------------------
	.byte	PATT
	 .word	I_Burn_6_037
@ 042   ----------------------------------------
	.byte	PATT
	 .word	I_Burn_6_038
@ 043   ----------------------------------------
	.byte	PATT
	 .word	I_Burn_6_039
@ 044   ----------------------------------------
	.byte	PATT
	 .word	I_Burn_6_040
@ 045   ----------------------------------------
	.byte	PATT
	 .word	I_Burn_6_012
@ 046   ----------------------------------------
	.byte	PATT
	 .word	I_Burn_6_013
@ 047   ----------------------------------------
	.byte	PATT
	 .word	I_Burn_6_014
@ 048   ----------------------------------------
	.byte	PATT
	 .word	I_Burn_6_015
@ 049   ----------------------------------------
	.byte	PATT
	 .word	I_Burn_6_012
@ 050   ----------------------------------------
	.byte	PATT
	 .word	I_Burn_6_013
@ 051   ----------------------------------------
	.byte	PATT
	 .word	I_Burn_6_018
@ 052   ----------------------------------------
	.byte	PATT
	 .word	I_Burn_6_019
@ 053   ----------------------------------------
	.byte	PATT
	 .word	I_Burn_6_019
@ 054   ----------------------------------------
	.byte	PATT
	 .word	I_Burn_6_021
@ 055   ----------------------------------------
	.byte	PATT
	 .word	I_Burn_6_022
@ 056   ----------------------------------------
	.byte	PATT
	 .word	I_Burn_6_019
@ 057   ----------------------------------------
	.byte	PATT
	 .word	I_Burn_6_024
@ 058   ----------------------------------------
	.byte	PATT
	 .word	I_Burn_6_021
@ 059   ----------------------------------------
	.byte	PATT
	 .word	I_Burn_6_022
@ 060   ----------------------------------------
	.byte	PATT
	 .word	I_Burn_6_019
@ 061   ----------------------------------------
	.byte	PATT
	 .word	I_Burn_6_028
@ 062   ----------------------------------------
	.byte		N56   , Fs1 , v080
	.byte	W60
	.byte		N11   , Gs1 
	.byte	W12
	.byte		N23   , An1 
	.byte	W24
@ 063   ----------------------------------------
	.byte		N56   , Cs2 
	.byte	W60
	.byte		N11   
	.byte	W12
	.byte		N23   
	.byte	W24
@ 064   ----------------------------------------
	.byte		N80   , Fs1 
	.byte	W84
	.byte		N05   , Gs1 
	.byte	W06
	.byte		        An1 
	.byte	W06
@ 065   ----------------------------------------
	.byte		N32   , Gs1 
	.byte	W36
	.byte		N23   , Bn1 
	.byte	W24
	.byte		        An1 
	.byte	W24
	.byte		N11   , Gs1 
	.byte	W12
@ 066   ----------------------------------------
	.byte		N32   , Fs1 
	.byte	W36
	.byte		N44   
	.byte	W48
	.byte		N05   , Gs1 
	.byte	W06
	.byte		        An1 
	.byte	W06
@ 067   ----------------------------------------
	.byte		N32   , Cs2 
	.byte	W36
	.byte		N23   
	.byte	W24
	.byte		N23   
	.byte	W36
@ 068   ----------------------------------------
	.byte		N15   , Gs1 
	.byte	W16
	.byte		        Fs1 
	.byte	W16
	.byte		        Gs1 
	.byte	W16
	.byte		        An1 
	.byte	W16
	.byte		        Bn1 
	.byte	W16
	.byte		        Cs2 
	.byte	W16
@ 069   ----------------------------------------
	.byte		        Bn1 
	.byte	W16
	.byte		        An1 
	.byte	W16
	.byte		        Gs1 
	.byte	W16
	.byte		        Fs1 
	.byte	W16
	.byte		        En1 
	.byte	W32
@ 070   ----------------------------------------
	.byte	W96
@ 071   ----------------------------------------
	.byte	W96
@ 072   ----------------------------------------
	.byte	W96
@ 073   ----------------------------------------
	.byte	W96
@ 074   ----------------------------------------
	.byte	W96
@ 075   ----------------------------------------
	.byte	W96
@ 076   ----------------------------------------
	.byte	W96
@ 077   ----------------------------------------
	.byte	W96
@ 078   ----------------------------------------
	.byte	PATT
	 .word	I_Burn_6_037
@ 079   ----------------------------------------
	.byte	PATT
	 .word	I_Burn_6_038
@ 080   ----------------------------------------
	.byte	PATT
	 .word	I_Burn_6_039
@ 081   ----------------------------------------
	.byte	PATT
	 .word	I_Burn_6_040
@ 082   ----------------------------------------
	.byte	PATT
	 .word	I_Burn_6_037
@ 083   ----------------------------------------
	.byte	PATT
	 .word	I_Burn_6_038
@ 084   ----------------------------------------
	.byte	PATT
	 .word	I_Burn_6_039
@ 085   ----------------------------------------
	.byte	PATT
	 .word	I_Burn_6_040
@ 086   ----------------------------------------
	.byte	PATT
	 .word	I_Burn_6_012
@ 087   ----------------------------------------
	.byte	PATT
	 .word	I_Burn_6_013
@ 088   ----------------------------------------
	.byte	PATT
	 .word	I_Burn_6_014
@ 089   ----------------------------------------
	.byte	PATT
	 .word	I_Burn_6_015
@ 090   ----------------------------------------
	.byte	PATT
	 .word	I_Burn_6_012
@ 091   ----------------------------------------
	.byte	PATT
	 .word	I_Burn_6_013
@ 092   ----------------------------------------
	.byte	PATT
	 .word	I_Burn_6_018
@ 093   ----------------------------------------
	.byte	PATT
	 .word	I_Burn_6_019
@ 094   ----------------------------------------
	.byte	PATT
	 .word	I_Burn_6_019
@ 095   ----------------------------------------
	.byte	PATT
	 .word	I_Burn_6_021
@ 096   ----------------------------------------
	.byte	PATT
	 .word	I_Burn_6_022
@ 097   ----------------------------------------
	.byte	PATT
	 .word	I_Burn_6_019
@ 098   ----------------------------------------
	.byte	PATT
	 .word	I_Burn_6_024
@ 099   ----------------------------------------
	.byte	PATT
	 .word	I_Burn_6_021
@ 100   ----------------------------------------
	.byte	PATT
	 .word	I_Burn_6_022
@ 101   ----------------------------------------
	.byte	PATT
	 .word	I_Burn_6_019
@ 102   ----------------------------------------
	.byte	PATT
	 .word	I_Burn_6_028
@ 103   ----------------------------------------
	.byte	PATT
	 .word	I_Burn_6_021
@ 104   ----------------------------------------
	.byte	PATT
	 .word	I_Burn_6_022
@ 105   ----------------------------------------
	.byte	PATT
	 .word	I_Burn_6_019
@ 106   ----------------------------------------
	.byte	PATT
	 .word	I_Burn_6_024
@ 107   ----------------------------------------
	.byte	PATT
	 .word	I_Burn_6_021
@ 108   ----------------------------------------
	.byte	PATT
	 .word	I_Burn_6_022
@ 109   ----------------------------------------
	.byte	PATT
	 .word	I_Burn_6_019
@ 110   ----------------------------------------
	.byte	PATT
	 .word	I_Burn_6_028
@ 111   ----------------------------------------
	.byte	W96
@ 112   ----------------------------------------
	.byte	W23
	.byte	GOTO
	 .word	I_Burn_6_B1
I_Burn_6_B2:
	.byte	FINE

@**************** Track 7 (Midi-Chn.10) ****************@

I_Burn_7:
	.byte	KEYSH , I_Burn_key+0
I_Burn_7_B1:
@ 000   ----------------------------------------
	.byte		VOICE , 124
	.byte		VOL   , 127*I_Burn_mvl/mxv
	.byte		PAN   , c_v+0
	.byte	W96
@ 001   ----------------------------------------
	.byte	W96
@ 002   ----------------------------------------
	.byte	W96
@ 003   ----------------------------------------
	.byte	W96
@ 004   ----------------------------------------
I_Burn_7_004:
	.byte		N05   , Cn1 , v096
	.byte		N05   , Fs1 
	.byte	W06
	.byte		N05   
	.byte	W06
	.byte		N11   , Cn1 
	.byte		N11   , As1 
	.byte	W12
	.byte		N05   , Dn1 
	.byte		N05   , Fs1 
	.byte	W06
	.byte		N05   
	.byte	W06
	.byte		        Cn1 
	.byte		N05   , Fs1 
	.byte	W06
	.byte		N02   , Cs1 
	.byte	W03
	.byte		N02   
	.byte	W03
	.byte		N05   , Fs1 
	.byte	W06
	.byte		        Dn1 
	.byte	W06
	.byte		        Fs1 
	.byte	W06
	.byte		        Cn1 
	.byte	W06
	.byte		        Dn1 
	.byte	W06
	.byte		        Fs1 
	.byte	W06
	.byte		N05   
	.byte	W06
	.byte		N05   
	.byte	W06
	.byte	PEND
@ 005   ----------------------------------------
	.byte	PATT
	 .word	I_Burn_7_004
@ 006   ----------------------------------------
	.byte	PATT
	 .word	I_Burn_7_004
@ 007   ----------------------------------------
	.byte	PATT
	 .word	I_Burn_7_004
@ 008   ----------------------------------------
	.byte	PATT
	 .word	I_Burn_7_004
@ 009   ----------------------------------------
	.byte	PATT
	 .word	I_Burn_7_004
@ 010   ----------------------------------------
	.byte	PATT
	 .word	I_Burn_7_004
@ 011   ----------------------------------------
	.byte	PATT
	 .word	I_Burn_7_004
@ 012   ----------------------------------------
I_Burn_7_012:
	.byte		N11   , Cn1 , v096
	.byte		N11   , As1 
	.byte	W12
	.byte		        Cn1 
	.byte		N11   , Fs1 
	.byte	W12
	.byte		N05   , Dn1 
	.byte	W06
	.byte		        Fs1 
	.byte	W06
	.byte		N11   , Cn1 
	.byte		N11   , Fs1 
	.byte	W12
	.byte		N05   
	.byte	W06
	.byte		        Dn1 
	.byte	W06
	.byte		        Fs1 
	.byte	W06
	.byte		        Cn1 
	.byte	W06
	.byte		        Dn1 
	.byte	W12
	.byte		        Fs1 
	.byte	W06
	.byte		N05   
	.byte	W06
	.byte	PEND
@ 013   ----------------------------------------
	.byte	PATT
	 .word	I_Burn_7_004
@ 014   ----------------------------------------
	.byte	PATT
	 .word	I_Burn_7_004
@ 015   ----------------------------------------
	.byte		N05   , Cn1 , v096
	.byte		N05   , Ds2 
	.byte	W06
	.byte		        Fs1 
	.byte	W06
	.byte		        Cn1 
	.byte		N05   , As1 
	.byte	W06
	.byte		        Ds2 
	.byte	W06
	.byte		        Dn1 
	.byte		N05   , Fs1 
	.byte	W06
	.byte		N05   
	.byte	W06
	.byte		        Cn1 
	.byte		N05   , Fs1 
	.byte	W06
	.byte		N02   , Cs1 
	.byte	W03
	.byte		N02   
	.byte	W03
	.byte		N05   , Ds2 
	.byte	W06
	.byte		        Dn1 
	.byte	W06
	.byte		        Fs1 
	.byte	W06
	.byte		        Cn1 
	.byte	W06
	.byte		N11   , Dn1 
	.byte	W12
	.byte		N05   
	.byte	W06
	.byte		N05   
	.byte	W06
@ 016   ----------------------------------------
	.byte	PATT
	 .word	I_Burn_7_004
@ 017   ----------------------------------------
	.byte	PATT
	 .word	I_Burn_7_004
@ 018   ----------------------------------------
	.byte	PATT
	 .word	I_Burn_7_004
@ 019   ----------------------------------------
	.byte	PATT
	 .word	I_Burn_7_004
@ 020   ----------------------------------------
I_Burn_7_020:
	.byte		N11   , Dn1 , v096
	.byte	W12
	.byte		N05   
	.byte	W06
	.byte		N11   
	.byte	W12
	.byte		N05   
	.byte	W06
	.byte		N05   
	.byte	W06
	.byte		N05   
	.byte	W06
	.byte		N05   
	.byte	W06
	.byte		N05   
	.byte	W06
	.byte		N05   
	.byte	W06
	.byte		        Dn2 
	.byte	W06
	.byte		N23   , An1 
	.byte	W24
	.byte	PEND
@ 021   ----------------------------------------
	.byte	PATT
	 .word	I_Burn_7_012
@ 022   ----------------------------------------
	.byte	PATT
	 .word	I_Burn_7_004
@ 023   ----------------------------------------
	.byte	PATT
	 .word	I_Burn_7_004
@ 024   ----------------------------------------
	.byte	PATT
	 .word	I_Burn_7_012
@ 025   ----------------------------------------
	.byte	PATT
	 .word	I_Burn_7_004
@ 026   ----------------------------------------
	.byte	PATT
	 .word	I_Burn_7_004
@ 027   ----------------------------------------
	.byte	PATT
	 .word	I_Burn_7_004
@ 028   ----------------------------------------
	.byte	PATT
	 .word	I_Burn_7_004
@ 029   ----------------------------------------
	.byte	PATT
	 .word	I_Burn_7_004
@ 030   ----------------------------------------
	.byte	PATT
	 .word	I_Burn_7_004
@ 031   ----------------------------------------
	.byte	PATT
	 .word	I_Burn_7_004
@ 032   ----------------------------------------
	.byte	PATT
	 .word	I_Burn_7_004
@ 033   ----------------------------------------
	.byte	PATT
	 .word	I_Burn_7_004
@ 034   ----------------------------------------
	.byte	PATT
	 .word	I_Burn_7_004
@ 035   ----------------------------------------
	.byte	PATT
	 .word	I_Burn_7_004
@ 036   ----------------------------------------
	.byte	PATT
	 .word	I_Burn_7_004
@ 037   ----------------------------------------
	.byte	PATT
	 .word	I_Burn_7_004
@ 038   ----------------------------------------
	.byte	PATT
	 .word	I_Burn_7_004
@ 039   ----------------------------------------
	.byte	PATT
	 .word	I_Burn_7_004
@ 040   ----------------------------------------
	.byte	PATT
	 .word	I_Burn_7_004
@ 041   ----------------------------------------
	.byte	PATT
	 .word	I_Burn_7_004
@ 042   ----------------------------------------
	.byte	PATT
	 .word	I_Burn_7_004
@ 043   ----------------------------------------
	.byte	PATT
	 .word	I_Burn_7_004
@ 044   ----------------------------------------
	.byte	PATT
	 .word	I_Burn_7_004
@ 045   ----------------------------------------
	.byte	PATT
	 .word	I_Burn_7_012
@ 046   ----------------------------------------
	.byte	PATT
	 .word	I_Burn_7_004
@ 047   ----------------------------------------
	.byte	PATT
	 .word	I_Burn_7_004
@ 048   ----------------------------------------
	.byte	PATT
	 .word	I_Burn_7_004
@ 049   ----------------------------------------
	.byte	PATT
	 .word	I_Burn_7_004
@ 050   ----------------------------------------
	.byte	PATT
	 .word	I_Burn_7_004
@ 051   ----------------------------------------
	.byte	PATT
	 .word	I_Burn_7_004
@ 052   ----------------------------------------
	.byte	PATT
	 .word	I_Burn_7_004
@ 053   ----------------------------------------
	.byte	PATT
	 .word	I_Burn_7_004
@ 054   ----------------------------------------
	.byte	PATT
	 .word	I_Burn_7_012
@ 055   ----------------------------------------
	.byte	PATT
	 .word	I_Burn_7_004
@ 056   ----------------------------------------
	.byte	PATT
	 .word	I_Burn_7_004
@ 057   ----------------------------------------
	.byte	PATT
	 .word	I_Burn_7_004
@ 058   ----------------------------------------
	.byte	PATT
	 .word	I_Burn_7_004
@ 059   ----------------------------------------
	.byte	PATT
	 .word	I_Burn_7_004
@ 060   ----------------------------------------
	.byte	PATT
	 .word	I_Burn_7_004
@ 061   ----------------------------------------
	.byte	PATT
	 .word	I_Burn_7_004
@ 062   ----------------------------------------
I_Burn_7_062:
	.byte		N11   , Cn1 , v096
	.byte		N11   , As1 
	.byte	W12
	.byte		        Cn1 
	.byte		N11   , Fs1 
	.byte	W12
	.byte		N05   , Dn1 
	.byte		N05   , Fs1 
	.byte	W06
	.byte		N05   
	.byte	W06
	.byte		N11   , Cn1 
	.byte		N11   , Fs1 
	.byte	W12
	.byte		N11   
	.byte	W12
	.byte		N05   
	.byte	W06
	.byte		        Cn1 
	.byte	W06
	.byte		        Dn1 
	.byte	W06
	.byte		        Fs1 
	.byte	W06
	.byte		N05   
	.byte	W06
	.byte		N05   
	.byte	W06
	.byte	PEND
@ 063   ----------------------------------------
	.byte	PATT
	 .word	I_Burn_7_062
@ 064   ----------------------------------------
	.byte	PATT
	 .word	I_Burn_7_004
@ 065   ----------------------------------------
	.byte	PATT
	 .word	I_Burn_7_004
@ 066   ----------------------------------------
	.byte	PATT
	 .word	I_Burn_7_004
@ 067   ----------------------------------------
	.byte	PATT
	 .word	I_Burn_7_004
@ 068   ----------------------------------------
	.byte	PATT
	 .word	I_Burn_7_004
@ 069   ----------------------------------------
	.byte	PATT
	 .word	I_Burn_7_004
@ 070   ----------------------------------------
	.byte	PATT
	 .word	I_Burn_7_004
@ 071   ----------------------------------------
	.byte	PATT
	 .word	I_Burn_7_004
@ 072   ----------------------------------------
	.byte	PATT
	 .word	I_Burn_7_004
@ 073   ----------------------------------------
	.byte	PATT
	 .word	I_Burn_7_004
@ 074   ----------------------------------------
	.byte	PATT
	 .word	I_Burn_7_004
@ 075   ----------------------------------------
	.byte	PATT
	 .word	I_Burn_7_004
@ 076   ----------------------------------------
	.byte	PATT
	 .word	I_Burn_7_004
@ 077   ----------------------------------------
	.byte		N11   , Cn1 , v096
	.byte		N11   , As1 
	.byte	W96
@ 078   ----------------------------------------
	.byte	PATT
	 .word	I_Burn_7_004
@ 079   ----------------------------------------
	.byte	PATT
	 .word	I_Burn_7_004
@ 080   ----------------------------------------
	.byte	PATT
	 .word	I_Burn_7_004
@ 081   ----------------------------------------
	.byte	PATT
	 .word	I_Burn_7_004
@ 082   ----------------------------------------
	.byte	PATT
	 .word	I_Burn_7_004
@ 083   ----------------------------------------
	.byte	PATT
	 .word	I_Burn_7_004
@ 084   ----------------------------------------
	.byte	PATT
	 .word	I_Burn_7_004
@ 085   ----------------------------------------
	.byte	PATT
	 .word	I_Burn_7_004
@ 086   ----------------------------------------
	.byte	PATT
	 .word	I_Burn_7_012
@ 087   ----------------------------------------
	.byte	PATT
	 .word	I_Burn_7_004
@ 088   ----------------------------------------
	.byte	PATT
	 .word	I_Burn_7_004
@ 089   ----------------------------------------
	.byte	PATT
	 .word	I_Burn_7_004
@ 090   ----------------------------------------
	.byte	PATT
	 .word	I_Burn_7_004
@ 091   ----------------------------------------
	.byte	PATT
	 .word	I_Burn_7_004
@ 092   ----------------------------------------
	.byte	PATT
	 .word	I_Burn_7_004
@ 093   ----------------------------------------
	.byte	PATT
	 .word	I_Burn_7_004
@ 094   ----------------------------------------
	.byte	PATT
	 .word	I_Burn_7_020
@ 095   ----------------------------------------
	.byte	PATT
	 .word	I_Burn_7_012
@ 096   ----------------------------------------
	.byte	PATT
	 .word	I_Burn_7_004
@ 097   ----------------------------------------
	.byte	PATT
	 .word	I_Burn_7_004
@ 098   ----------------------------------------
	.byte	PATT
	 .word	I_Burn_7_012
@ 099   ----------------------------------------
	.byte	PATT
	 .word	I_Burn_7_004
@ 100   ----------------------------------------
	.byte	PATT
	 .word	I_Burn_7_004
@ 101   ----------------------------------------
	.byte	PATT
	 .word	I_Burn_7_004
@ 102   ----------------------------------------
	.byte	PATT
	 .word	I_Burn_7_004
@ 103   ----------------------------------------
	.byte		N11   , Cn1 , v096
	.byte		N11   , As1 
	.byte	W12
	.byte		        Cn1 
	.byte		N11   , Fs1 
	.byte	W12
	.byte		N05   , Dn1 
	.byte		N05   , Fs1 
	.byte	W06
	.byte		N05   
	.byte	W06
	.byte		N11   , Cn1 
	.byte		N11   , Fs1 
	.byte	W12
	.byte		N05   
	.byte	W06
	.byte		        Dn1 
	.byte	W06
	.byte		N11   , Fs1 
	.byte	W12
	.byte		        Dn1 
	.byte		N11   , Fs1 
	.byte	W12
	.byte		N05   
	.byte	W06
	.byte		N05   
	.byte	W06
@ 104   ----------------------------------------
	.byte	PATT
	 .word	I_Burn_7_004
@ 105   ----------------------------------------
	.byte	PATT
	 .word	I_Burn_7_004
@ 106   ----------------------------------------
	.byte	PATT
	 .word	I_Burn_7_004
@ 107   ----------------------------------------
	.byte	PATT
	 .word	I_Burn_7_004
@ 108   ----------------------------------------
	.byte	PATT
	 .word	I_Burn_7_004
@ 109   ----------------------------------------
	.byte	PATT
	 .word	I_Burn_7_004
@ 110   ----------------------------------------
	.byte		N11   , Cn1 , v096
	.byte		N11   , As1 
	.byte	W12
	.byte		        Cn1 
	.byte		N11   , Fs1 
	.byte	W12
	.byte		N05   , Dn1 
	.byte		N05   , Fs1 
	.byte	W06
	.byte		N05   
	.byte	W06
	.byte		N11   , Cn1 
	.byte	W12
	.byte		N05   , As1 
	.byte	W06
	.byte		        Dn1 
	.byte	W06
	.byte		N05   
	.byte	W06
	.byte		N05   
	.byte	W06
	.byte		N05   
	.byte	W06
	.byte		N05   
	.byte	W06
	.byte		N05   
	.byte		N05   , Fs1 
	.byte	W06
	.byte		        Dn1 
	.byte		N05   , Fs1 
	.byte	W06
@ 111   ----------------------------------------
	.byte		N92   , Cn1 
	.byte		N92   , As1 
	.byte	W96
@ 112   ----------------------------------------
	.byte	W23
	.byte	GOTO
	 .word	I_Burn_7_B1
I_Burn_7_B2:
	.byte	FINE

@******************************************************@
	.align	2

I_Burn:
	.byte	7	@ NumTrks
	.byte	0	@ NumBlks
	.byte	I_Burn_pri	@ Priority
	.byte	I_Burn_rev	@ Reverb.

	.word	I_Burn_grp

	.word	I_Burn_1
	.word	I_Burn_2
	.word	I_Burn_3
	.word	I_Burn_4
	.word	I_Burn_5
	.word	I_Burn_6
	.word	I_Burn_7

	.end
