	.include "MPlayDef.s"

	.equ	that_persons_name_is_grp, voicegroup000
	.equ	that_persons_name_is_pri, 0
	.equ	that_persons_name_is_rev, 0
	.equ	that_persons_name_is_mvl, 40
	.equ	that_persons_name_is_key, 0
	.equ	that_persons_name_is_tbs, 1
	.equ	that_persons_name_is_exg, 0
	.equ	that_persons_name_is_cmp, 1

	.section .rodata
	.global	that_persons_name_is
	.align	2

@**************** Track 1 (Midi-Chn.1) ****************@

that_persons_name_is_1:
	.byte	KEYSH , that_persons_name_is_key+0
that_persons_name_is_1_B1:
@ 000   ----------------------------------------
	.byte	TEMPO , 150*that_persons_name_is_tbs/2
	.byte		VOICE , 62
	.byte		VOL   , 100*that_persons_name_is_mvl/mxv
	.byte		PAN   , c_v+0
	.byte		N05   , An3 , v096
	.byte	W06
	.byte		        Bn3 
	.byte	W06
	.byte		N32   , An3 
	.byte		N32   , Cn4 
	.byte	W36
	.byte		N05   , Bn3 
	.byte	W06
	.byte		        An3 
	.byte	W06
	.byte		N23   , Gn3 
	.byte		N23   , Bn3 
	.byte	W24
	.byte		N23   
	.byte		N23   , En4 
	.byte	W12
@ 001   ----------------------------------------
	.byte	W12
	.byte		N32   , Fn3 
	.byte		N32   , An3 
	.byte	W36
	.byte		N05   , Gn3 
	.byte	W06
	.byte		        Fn3 
	.byte	W06
	.byte		N23   , En3 
	.byte		N23   , Gn3 
	.byte	W24
	.byte		N23   
	.byte		N23   , Cn4 
	.byte	W12
@ 002   ----------------------------------------
	.byte	W12
	.byte		N32   , Dn3 
	.byte		N32   , Fn3 
	.byte	W36
	.byte		N05   , Dn3 
	.byte		N05   , Fn3 
	.byte	W12
	.byte		        Dn3 
	.byte	W12
	.byte		        En3 
	.byte	W12
	.byte		N11   , Fn3 
	.byte	W12
@ 003   ----------------------------------------
	.byte		        Gn3 
	.byte	W12
	.byte		N44   , En3 
	.byte		N44   , An3 
	.byte	W48
	.byte		        En3 
	.byte		N17   , Gs3 
	.byte	W18
	.byte		        An3 
	.byte	W18
@ 004   ----------------------------------------
	.byte		N11   , Bn3 
	.byte	W12
	.byte		N32   , An3 
	.byte		N32   , Cn4 
	.byte	W36
	.byte		N05   , Bn3 
	.byte	W06
	.byte		        An3 
	.byte	W06
	.byte		N23   , Gn3 
	.byte		N23   , Bn3 
	.byte	W24
	.byte		N23   
	.byte		N23   , En4 
	.byte	W12
@ 005   ----------------------------------------
	.byte	W12
	.byte		N44   , Cn4 
	.byte		N17   , Gn4 
	.byte	W18
	.byte		        Fn4 
	.byte	W18
	.byte		N11   , En4 
	.byte	W12
	.byte		N23   , Cn4 
	.byte		N23   , Fn4 
	.byte	W24
	.byte		N32   , Gn4 
	.byte		N32   , Cn5 
	.byte	W12
@ 006   ----------------------------------------
	.byte	W36
	.byte		N68   , Cn4 
	.byte		N68   , Fn4 
	.byte	W60
@ 007   ----------------------------------------
	.byte	W12
	.byte		N44   , En4 
	.byte		N44   , An4 
	.byte	W48
	.byte		        En4 
	.byte		N44   , Gs4 
	.byte	W36
@ 008   ----------------------------------------
	.byte	W12
	.byte	TEMPO , 165*that_persons_name_is_tbs/2
	.byte	W84
@ 009   ----------------------------------------
	.byte	W96
@ 010   ----------------------------------------
	.byte	W96
@ 011   ----------------------------------------
	.byte	W96
@ 012   ----------------------------------------
	.byte	W96
@ 013   ----------------------------------------
	.byte	W96
@ 014   ----------------------------------------
	.byte	W96
@ 015   ----------------------------------------
	.byte	W96
@ 016   ----------------------------------------
	.byte	W96
@ 017   ----------------------------------------
	.byte	W96
@ 018   ----------------------------------------
	.byte	W96
@ 019   ----------------------------------------
	.byte	W96
@ 020   ----------------------------------------
	.byte	W96
@ 021   ----------------------------------------
	.byte	W96
@ 022   ----------------------------------------
	.byte	W96
@ 023   ----------------------------------------
	.byte	W96
@ 024   ----------------------------------------
	.byte	W96
@ 025   ----------------------------------------
	.byte	W96
@ 026   ----------------------------------------
	.byte	W96
@ 027   ----------------------------------------
	.byte	W96
@ 028   ----------------------------------------
	.byte	W96
@ 029   ----------------------------------------
	.byte	W96
@ 030   ----------------------------------------
	.byte	W96
@ 031   ----------------------------------------
	.byte	W12
	.byte	TEMPO , 160*that_persons_name_is_tbs/2
	.byte	W84
@ 032   ----------------------------------------
	.byte	W12
	.byte	TEMPO , 150*that_persons_name_is_tbs/2
	.byte	W84
@ 033   ----------------------------------------
	.byte	W24
	.byte	TEMPO , 165*that_persons_name_is_tbs/2
	.byte	W72
@ 034   ----------------------------------------
	.byte	W96
@ 035   ----------------------------------------
	.byte	W96
@ 036   ----------------------------------------
	.byte	W96
@ 037   ----------------------------------------
	.byte	W96
@ 038   ----------------------------------------
	.byte	W96
@ 039   ----------------------------------------
	.byte	W96
@ 040   ----------------------------------------
	.byte	W96
@ 041   ----------------------------------------
	.byte	W96
@ 042   ----------------------------------------
	.byte	W96
@ 043   ----------------------------------------
	.byte	W96
@ 044   ----------------------------------------
	.byte	W96
@ 045   ----------------------------------------
	.byte	W96
@ 046   ----------------------------------------
	.byte	W96
@ 047   ----------------------------------------
	.byte	W96
@ 048   ----------------------------------------
	.byte	W96
@ 049   ----------------------------------------
	.byte	W96
@ 050   ----------------------------------------
	.byte	W96
@ 051   ----------------------------------------
	.byte	W96
@ 052   ----------------------------------------
	.byte	W96
@ 053   ----------------------------------------
	.byte	W96
@ 054   ----------------------------------------
	.byte	W96
@ 055   ----------------------------------------
	.byte	W96
@ 056   ----------------------------------------
	.byte	W96
@ 057   ----------------------------------------
that_persons_name_is_1_057:
	.byte	W12
	.byte	TEMPO , 160*that_persons_name_is_tbs/2
	.byte	W48
	.byte	TEMPO , 150*that_persons_name_is_tbs/2
	.byte	W36
	.byte	PEND
@ 058   ----------------------------------------
	.byte	W12
	.byte	TEMPO , 159*that_persons_name_is_tbs/2
	.byte	W84
@ 059   ----------------------------------------
	.byte	W96
@ 060   ----------------------------------------
	.byte	W96
@ 061   ----------------------------------------
	.byte	W96
@ 062   ----------------------------------------
	.byte	W96
@ 063   ----------------------------------------
	.byte	W96
@ 064   ----------------------------------------
	.byte	W60
	.byte	TEMPO , 150*that_persons_name_is_tbs/2
	.byte	W36
@ 065   ----------------------------------------
	.byte	W12
	.byte	TEMPO , 159*that_persons_name_is_tbs/2
	.byte	W84
@ 066   ----------------------------------------
	.byte	W96
@ 067   ----------------------------------------
	.byte	W96
@ 068   ----------------------------------------
	.byte	W96
@ 069   ----------------------------------------
	.byte	W96
@ 070   ----------------------------------------
	.byte	W96
@ 071   ----------------------------------------
	.byte	W96
@ 072   ----------------------------------------
	.byte	W96
@ 073   ----------------------------------------
	.byte	W96
@ 074   ----------------------------------------
	.byte	W96
@ 075   ----------------------------------------
	.byte	W96
@ 076   ----------------------------------------
	.byte	W96
@ 077   ----------------------------------------
	.byte	W96
@ 078   ----------------------------------------
	.byte	W96
@ 079   ----------------------------------------
	.byte	W96
@ 080   ----------------------------------------
	.byte	W96
@ 081   ----------------------------------------
	.byte	W96
@ 082   ----------------------------------------
	.byte	W96
@ 083   ----------------------------------------
that_persons_name_is_1_083:
	.byte	W12
	.byte	TEMPO , 165*that_persons_name_is_tbs/2
	.byte		N32   , Cs4 , v096
	.byte		N32   , En4 
	.byte	W36
	.byte		N05   , Ds4 
	.byte	W06
	.byte		        Cs4 
	.byte	W06
	.byte		N23   , Bn3 
	.byte		N23   , Ds4 
	.byte	W24
	.byte		N23   
	.byte		N23   , Gs4 
	.byte	W12
	.byte	PEND
@ 084   ----------------------------------------
that_persons_name_is_1_084:
	.byte	W12
	.byte		N32   , An3 , v096
	.byte		N32   , Cs4 
	.byte	W36
	.byte		N05   , Bn3 
	.byte	W06
	.byte		        An3 
	.byte	W06
	.byte		N23   , Gs3 
	.byte		N23   , Bn3 
	.byte	W24
	.byte		N23   
	.byte		N23   , En4 
	.byte	W12
	.byte	PEND
@ 085   ----------------------------------------
that_persons_name_is_1_085:
	.byte	W12
	.byte		N32   , Fs3 , v096
	.byte		N32   , An3 
	.byte	W36
	.byte		N05   , Fs3 
	.byte		N05   , An3 
	.byte	W12
	.byte		        Fs3 
	.byte	W12
	.byte		        Gs3 
	.byte	W12
	.byte		N11   , An3 
	.byte	W12
	.byte	PEND
@ 086   ----------------------------------------
that_persons_name_is_1_086:
	.byte		N11   , Bn3 , v096
	.byte	W12
	.byte		N44   , Gs3 
	.byte		N44   , Cs4 
	.byte	W48
	.byte		        Gs3 
	.byte		N17   , Cn4 
	.byte	W18
	.byte		        Cs4 
	.byte	W18
	.byte	PEND
@ 087   ----------------------------------------
that_persons_name_is_1_087:
	.byte		N11   , Ds4 , v096
	.byte	W12
	.byte		N32   , Cs4 
	.byte		N32   , En4 
	.byte	W36
	.byte		N05   , Ds4 
	.byte	W06
	.byte		        Cs4 
	.byte	W06
	.byte		N23   , Bn3 
	.byte		N23   , Ds4 
	.byte	W24
	.byte		N23   
	.byte		N23   , Gs4 
	.byte	W12
	.byte	PEND
@ 088   ----------------------------------------
that_persons_name_is_1_088:
	.byte	W12
	.byte		N44   , En4 , v096
	.byte		N17   , Bn4 
	.byte	W18
	.byte		        An4 
	.byte	W18
	.byte		N11   , Gs4 
	.byte	W12
	.byte		N23   , En4 
	.byte		N23   , An4 
	.byte	W24
	.byte		N32   , Bn4 
	.byte		N32   , En5 
	.byte	W12
	.byte	PEND
@ 089   ----------------------------------------
that_persons_name_is_1_089:
	.byte	W36
	.byte		N68   , En4 , v096
	.byte		N68   , An4 
	.byte	W60
	.byte	PEND
@ 090   ----------------------------------------
that_persons_name_is_1_090:
	.byte	W12
	.byte		N44   , Gs4 , v096
	.byte		N44   , Cs5 
	.byte	W48
	.byte		        Gs4 
	.byte		N44   , Cn5 
	.byte	W36
	.byte	PEND
@ 091   ----------------------------------------
	.byte	W96
@ 092   ----------------------------------------
	.byte	W96
@ 093   ----------------------------------------
	.byte	W96
@ 094   ----------------------------------------
	.byte	W96
@ 095   ----------------------------------------
	.byte	W96
@ 096   ----------------------------------------
	.byte	W96
@ 097   ----------------------------------------
	.byte	W96
@ 098   ----------------------------------------
	.byte	W96
@ 099   ----------------------------------------
	.byte	W96
@ 100   ----------------------------------------
	.byte	W96
@ 101   ----------------------------------------
	.byte	W96
@ 102   ----------------------------------------
	.byte	W96
@ 103   ----------------------------------------
	.byte	W96
@ 104   ----------------------------------------
	.byte	W96
@ 105   ----------------------------------------
	.byte	W96
@ 106   ----------------------------------------
	.byte	W96
@ 107   ----------------------------------------
	.byte	W96
@ 108   ----------------------------------------
	.byte	W96
@ 109   ----------------------------------------
	.byte	W96
@ 110   ----------------------------------------
	.byte	W12
	.byte	TEMPO , 165*that_persons_name_is_tbs/2
	.byte	W84
@ 111   ----------------------------------------
	.byte	W96
@ 112   ----------------------------------------
	.byte	W96
@ 113   ----------------------------------------
	.byte	W96
@ 114   ----------------------------------------
	.byte	W96
@ 115   ----------------------------------------
	.byte	W96
@ 116   ----------------------------------------
	.byte	W96
@ 117   ----------------------------------------
	.byte	W96
@ 118   ----------------------------------------
	.byte	W96
@ 119   ----------------------------------------
	.byte	W96
@ 120   ----------------------------------------
	.byte	W96
@ 121   ----------------------------------------
	.byte	W96
@ 122   ----------------------------------------
	.byte	W96
@ 123   ----------------------------------------
	.byte	W96
@ 124   ----------------------------------------
	.byte	W96
@ 125   ----------------------------------------
	.byte	W96
@ 126   ----------------------------------------
	.byte	W96
@ 127   ----------------------------------------
	.byte	W96
@ 128   ----------------------------------------
	.byte	W96
@ 129   ----------------------------------------
	.byte	W96
@ 130   ----------------------------------------
	.byte	W96
@ 131   ----------------------------------------
	.byte	W96
@ 132   ----------------------------------------
	.byte	W96
@ 133   ----------------------------------------
	.byte	W12
	.byte	TEMPO , 160*that_persons_name_is_tbs/2
	.byte	W84
@ 134   ----------------------------------------
	.byte	W12
	.byte	TEMPO , 150*that_persons_name_is_tbs/2
	.byte	W84
@ 135   ----------------------------------------
	.byte	W24
	.byte	TEMPO , 165*that_persons_name_is_tbs/2
	.byte	W72
@ 136   ----------------------------------------
	.byte	W96
@ 137   ----------------------------------------
	.byte	W96
@ 138   ----------------------------------------
	.byte	W96
@ 139   ----------------------------------------
	.byte	W96
@ 140   ----------------------------------------
	.byte	W96
@ 141   ----------------------------------------
	.byte	W96
@ 142   ----------------------------------------
	.byte	W96
@ 143   ----------------------------------------
	.byte	W96
@ 144   ----------------------------------------
	.byte	W96
@ 145   ----------------------------------------
	.byte	W96
@ 146   ----------------------------------------
	.byte	W96
@ 147   ----------------------------------------
	.byte	W96
@ 148   ----------------------------------------
	.byte	W96
@ 149   ----------------------------------------
	.byte	W96
@ 150   ----------------------------------------
	.byte	W96
@ 151   ----------------------------------------
	.byte	W96
@ 152   ----------------------------------------
	.byte	W96
@ 153   ----------------------------------------
	.byte	W96
@ 154   ----------------------------------------
	.byte	W96
@ 155   ----------------------------------------
	.byte	W96
@ 156   ----------------------------------------
	.byte	W96
@ 157   ----------------------------------------
	.byte	W96
@ 158   ----------------------------------------
	.byte	W96
@ 159   ----------------------------------------
	.byte	PATT
	 .word	that_persons_name_is_1_057
@ 160   ----------------------------------------
	.byte	W12
	.byte	TEMPO , 159*that_persons_name_is_tbs/2
	.byte	W84
@ 161   ----------------------------------------
	.byte	W96
@ 162   ----------------------------------------
	.byte	W96
@ 163   ----------------------------------------
	.byte	W96
@ 164   ----------------------------------------
	.byte	W96
@ 165   ----------------------------------------
	.byte	W96
@ 166   ----------------------------------------
	.byte	W60
	.byte	TEMPO , 150*that_persons_name_is_tbs/2
	.byte	W36
@ 167   ----------------------------------------
	.byte	W12
	.byte	TEMPO , 159*that_persons_name_is_tbs/2
	.byte	W84
@ 168   ----------------------------------------
	.byte	W96
@ 169   ----------------------------------------
	.byte	W96
@ 170   ----------------------------------------
	.byte	W96
@ 171   ----------------------------------------
	.byte	W96
@ 172   ----------------------------------------
	.byte	W96
@ 173   ----------------------------------------
	.byte	W96
@ 174   ----------------------------------------
	.byte	W96
@ 175   ----------------------------------------
	.byte	W96
@ 176   ----------------------------------------
	.byte	W96
@ 177   ----------------------------------------
	.byte	W96
@ 178   ----------------------------------------
	.byte	W96
@ 179   ----------------------------------------
	.byte	W96
@ 180   ----------------------------------------
	.byte	W96
@ 181   ----------------------------------------
	.byte	W96
@ 182   ----------------------------------------
	.byte	W96
@ 183   ----------------------------------------
	.byte	W96
@ 184   ----------------------------------------
	.byte	W96
@ 185   ----------------------------------------
	.byte	PATT
	 .word	that_persons_name_is_1_083
@ 186   ----------------------------------------
	.byte	PATT
	 .word	that_persons_name_is_1_084
@ 187   ----------------------------------------
	.byte	PATT
	 .word	that_persons_name_is_1_085
@ 188   ----------------------------------------
	.byte	PATT
	 .word	that_persons_name_is_1_086
@ 189   ----------------------------------------
	.byte	PATT
	 .word	that_persons_name_is_1_087
@ 190   ----------------------------------------
	.byte	PATT
	 .word	that_persons_name_is_1_088
@ 191   ----------------------------------------
	.byte	PATT
	 .word	that_persons_name_is_1_089
@ 192   ----------------------------------------
	.byte	PATT
	 .word	that_persons_name_is_1_090
@ 193   ----------------------------------------
	.byte	W96
@ 194   ----------------------------------------
	.byte	W96
@ 195   ----------------------------------------
	.byte	W96
@ 196   ----------------------------------------
	.byte	W96
@ 197   ----------------------------------------
	.byte	W96
@ 198   ----------------------------------------
	.byte	W96
@ 199   ----------------------------------------
	.byte	W96
@ 200   ----------------------------------------
	.byte	W96
@ 201   ----------------------------------------
	.byte	W96
@ 202   ----------------------------------------
	.byte	W96
@ 203   ----------------------------------------
	.byte	W96
@ 204   ----------------------------------------
	.byte	W96
@ 205   ----------------------------------------
	.byte	W96
@ 206   ----------------------------------------
	.byte	W96
@ 207   ----------------------------------------
	.byte	W96
@ 208   ----------------------------------------
	.byte	W96
@ 209   ----------------------------------------
	.byte	W96
@ 210   ----------------------------------------
	.byte	W96
@ 211   ----------------------------------------
	.byte	W96
@ 212   ----------------------------------------
	.byte	W36
	.byte	GOTO
	 .word	that_persons_name_is_1_B1
that_persons_name_is_1_B2:
	.byte	FINE

@**************** Track 2 (Midi-Chn.2) ****************@

that_persons_name_is_2:
	.byte	KEYSH , that_persons_name_is_key+0
that_persons_name_is_2_B1:
@ 000   ----------------------------------------
	.byte		VOICE , 19
	.byte		VOL   , 127*that_persons_name_is_mvl/mxv
	.byte		PAN   , c_v+0
	.byte	W96
@ 001   ----------------------------------------
	.byte	W96
@ 002   ----------------------------------------
	.byte	W96
@ 003   ----------------------------------------
	.byte	W96
@ 004   ----------------------------------------
	.byte	W96
@ 005   ----------------------------------------
	.byte	W96
@ 006   ----------------------------------------
	.byte	W96
@ 007   ----------------------------------------
	.byte	W96
@ 008   ----------------------------------------
	.byte	W96
@ 009   ----------------------------------------
	.byte	W96
@ 010   ----------------------------------------
	.byte	W96
@ 011   ----------------------------------------
	.byte	W96
@ 012   ----------------------------------------
	.byte	W96
@ 013   ----------------------------------------
	.byte	W96
@ 014   ----------------------------------------
	.byte	W96
@ 015   ----------------------------------------
	.byte	W96
@ 016   ----------------------------------------
that_persons_name_is_2_016:
	.byte		N05   , An3 , v112
	.byte	W06
	.byte		        Bn3 
	.byte	W06
	.byte		N32   , Cn4 
	.byte	W36
	.byte		N05   , Bn3 
	.byte	W06
	.byte		        An3 
	.byte	W06
	.byte		N23   , Bn3 
	.byte	W24
	.byte		        Gn3 
	.byte	W12
	.byte	PEND
@ 017   ----------------------------------------
that_persons_name_is_2_017:
	.byte	W12
	.byte		N17   , An3 , v112
	.byte	W18
	.byte		        Bn3 
	.byte	W18
	.byte		N11   , An3 
	.byte	W12
	.byte		N32   , En3 
	.byte	W36
	.byte	PEND
@ 018   ----------------------------------------
that_persons_name_is_2_018:
	.byte		N05   , Dn3 , v112
	.byte	W06
	.byte		        En3 
	.byte	W06
	.byte		N32   , Fn3 
	.byte	W36
	.byte		N05   , Gn3 
	.byte	W06
	.byte		        An3 
	.byte	W06
	.byte		N17   , Bn3 
	.byte	W18
	.byte		        Cn4 
	.byte	W18
	.byte	PEND
@ 019   ----------------------------------------
that_persons_name_is_2_019:
	.byte		N11   , Dn4 , v112
	.byte	W12
	.byte		N32   , En4 
	.byte	W36
	.byte		N11   , Gn3 
	.byte	W12
	.byte		N32   , Gn4 
	.byte	W36
	.byte	PEND
@ 020   ----------------------------------------
that_persons_name_is_2_020:
	.byte		N05   , Fn4 , v112
	.byte	W06
	.byte		        En4 
	.byte	W06
	.byte		N17   , Dn4 
	.byte	W18
	.byte		        En4 
	.byte	W18
	.byte		N11   , Dn4 
	.byte	W12
	.byte		N44   , Bn3 
	.byte	W36
	.byte	PEND
@ 021   ----------------------------------------
that_persons_name_is_2_021:
	.byte	W12
	.byte		N17   , Cn4 , v112
	.byte	W18
	.byte		        Dn4 
	.byte	W18
	.byte		N11   , En4 
	.byte	W12
	.byte		N44   , An3 
	.byte	W36
	.byte	PEND
@ 022   ----------------------------------------
that_persons_name_is_2_022:
	.byte	W12
	.byte		N17   , Bn3 , v112
	.byte	W18
	.byte		N17   
	.byte	W18
	.byte		N17   
	.byte	W24
	.byte		N11   , Gn3 
	.byte	W12
	.byte		N05   , Gn4 
	.byte	W12
	.byte	PEND
@ 023   ----------------------------------------
that_persons_name_is_2_023:
	.byte		N05   , Fn4 , v112
	.byte	W12
	.byte		N17   , En4 
	.byte	W84
	.byte	PEND
@ 024   ----------------------------------------
	.byte	W96
@ 025   ----------------------------------------
	.byte	W96
@ 026   ----------------------------------------
	.byte	W96
@ 027   ----------------------------------------
	.byte	W96
@ 028   ----------------------------------------
	.byte	W96
@ 029   ----------------------------------------
	.byte	W96
@ 030   ----------------------------------------
	.byte	W96
@ 031   ----------------------------------------
	.byte	W96
@ 032   ----------------------------------------
	.byte	W96
@ 033   ----------------------------------------
	.byte	W96
@ 034   ----------------------------------------
	.byte	W96
@ 035   ----------------------------------------
	.byte	W96
@ 036   ----------------------------------------
	.byte	W96
@ 037   ----------------------------------------
	.byte	W96
@ 038   ----------------------------------------
	.byte	W96
@ 039   ----------------------------------------
	.byte	W96
@ 040   ----------------------------------------
	.byte	W96
@ 041   ----------------------------------------
	.byte	W96
@ 042   ----------------------------------------
	.byte	W96
@ 043   ----------------------------------------
	.byte	W96
@ 044   ----------------------------------------
	.byte	W96
@ 045   ----------------------------------------
	.byte	W96
@ 046   ----------------------------------------
	.byte	W96
@ 047   ----------------------------------------
	.byte	W96
@ 048   ----------------------------------------
	.byte	W96
@ 049   ----------------------------------------
	.byte	W96
@ 050   ----------------------------------------
	.byte	W96
@ 051   ----------------------------------------
	.byte	W96
@ 052   ----------------------------------------
	.byte	W96
@ 053   ----------------------------------------
	.byte	W96
@ 054   ----------------------------------------
	.byte	W96
@ 055   ----------------------------------------
	.byte	W96
@ 056   ----------------------------------------
	.byte	W96
@ 057   ----------------------------------------
	.byte	W96
@ 058   ----------------------------------------
	.byte	W96
@ 059   ----------------------------------------
	.byte	W96
@ 060   ----------------------------------------
	.byte	W96
@ 061   ----------------------------------------
	.byte	W96
@ 062   ----------------------------------------
	.byte	W96
@ 063   ----------------------------------------
	.byte	W96
@ 064   ----------------------------------------
	.byte	W96
@ 065   ----------------------------------------
	.byte	W96
@ 066   ----------------------------------------
	.byte	W96
@ 067   ----------------------------------------
	.byte	W96
@ 068   ----------------------------------------
	.byte	W96
@ 069   ----------------------------------------
	.byte	W96
@ 070   ----------------------------------------
	.byte	W96
@ 071   ----------------------------------------
	.byte	W96
@ 072   ----------------------------------------
	.byte	W96
@ 073   ----------------------------------------
	.byte	W96
@ 074   ----------------------------------------
	.byte	W96
@ 075   ----------------------------------------
	.byte	W96
@ 076   ----------------------------------------
	.byte	W96
@ 077   ----------------------------------------
	.byte	W96
@ 078   ----------------------------------------
	.byte	W96
@ 079   ----------------------------------------
	.byte	W96
@ 080   ----------------------------------------
	.byte	W96
@ 081   ----------------------------------------
	.byte	W96
@ 082   ----------------------------------------
	.byte	W96
@ 083   ----------------------------------------
	.byte	W96
@ 084   ----------------------------------------
	.byte	W96
@ 085   ----------------------------------------
	.byte	W96
@ 086   ----------------------------------------
	.byte	W96
@ 087   ----------------------------------------
	.byte	W96
@ 088   ----------------------------------------
	.byte	W96
@ 089   ----------------------------------------
	.byte	W96
@ 090   ----------------------------------------
	.byte	W96
@ 091   ----------------------------------------
	.byte	W96
@ 092   ----------------------------------------
	.byte	W96
@ 093   ----------------------------------------
	.byte	W96
@ 094   ----------------------------------------
	.byte	W96
@ 095   ----------------------------------------
	.byte	W96
@ 096   ----------------------------------------
	.byte	W96
@ 097   ----------------------------------------
	.byte	W96
@ 098   ----------------------------------------
	.byte	W96
@ 099   ----------------------------------------
	.byte	W96
@ 100   ----------------------------------------
	.byte	W96
@ 101   ----------------------------------------
	.byte	W96
@ 102   ----------------------------------------
	.byte	W96
@ 103   ----------------------------------------
	.byte	W96
@ 104   ----------------------------------------
	.byte	W96
@ 105   ----------------------------------------
	.byte	W96
@ 106   ----------------------------------------
	.byte	W96
@ 107   ----------------------------------------
	.byte	W96
@ 108   ----------------------------------------
	.byte	W96
@ 109   ----------------------------------------
	.byte	W96
@ 110   ----------------------------------------
	.byte	W96
@ 111   ----------------------------------------
	.byte	W96
@ 112   ----------------------------------------
	.byte	W96
@ 113   ----------------------------------------
	.byte	W96
@ 114   ----------------------------------------
	.byte	W96
@ 115   ----------------------------------------
	.byte	W96
@ 116   ----------------------------------------
	.byte	W96
@ 117   ----------------------------------------
	.byte	W96
@ 118   ----------------------------------------
	.byte	PATT
	 .word	that_persons_name_is_2_016
@ 119   ----------------------------------------
	.byte	PATT
	 .word	that_persons_name_is_2_017
@ 120   ----------------------------------------
	.byte	PATT
	 .word	that_persons_name_is_2_018
@ 121   ----------------------------------------
	.byte	PATT
	 .word	that_persons_name_is_2_019
@ 122   ----------------------------------------
	.byte	PATT
	 .word	that_persons_name_is_2_020
@ 123   ----------------------------------------
	.byte	PATT
	 .word	that_persons_name_is_2_021
@ 124   ----------------------------------------
	.byte	PATT
	 .word	that_persons_name_is_2_022
@ 125   ----------------------------------------
	.byte	PATT
	 .word	that_persons_name_is_2_023
@ 126   ----------------------------------------
	.byte	W96
@ 127   ----------------------------------------
	.byte	W96
@ 128   ----------------------------------------
	.byte	W96
@ 129   ----------------------------------------
	.byte	W96
@ 130   ----------------------------------------
	.byte	W96
@ 131   ----------------------------------------
	.byte	W96
@ 132   ----------------------------------------
	.byte	W96
@ 133   ----------------------------------------
	.byte	W96
@ 134   ----------------------------------------
	.byte	W96
@ 135   ----------------------------------------
	.byte	W96
@ 136   ----------------------------------------
	.byte	W96
@ 137   ----------------------------------------
	.byte	W96
@ 138   ----------------------------------------
	.byte	W96
@ 139   ----------------------------------------
	.byte	W96
@ 140   ----------------------------------------
	.byte	W96
@ 141   ----------------------------------------
	.byte	W96
@ 142   ----------------------------------------
	.byte	W96
@ 143   ----------------------------------------
	.byte	W96
@ 144   ----------------------------------------
	.byte	W96
@ 145   ----------------------------------------
	.byte	W96
@ 146   ----------------------------------------
	.byte	W96
@ 147   ----------------------------------------
	.byte	W96
@ 148   ----------------------------------------
	.byte	W96
@ 149   ----------------------------------------
	.byte	W96
@ 150   ----------------------------------------
	.byte	W96
@ 151   ----------------------------------------
	.byte	W96
@ 152   ----------------------------------------
	.byte	W96
@ 153   ----------------------------------------
	.byte	W96
@ 154   ----------------------------------------
	.byte	W96
@ 155   ----------------------------------------
	.byte	W96
@ 156   ----------------------------------------
	.byte	W96
@ 157   ----------------------------------------
	.byte	W96
@ 158   ----------------------------------------
	.byte	W96
@ 159   ----------------------------------------
	.byte	W96
@ 160   ----------------------------------------
	.byte	W96
@ 161   ----------------------------------------
	.byte	W96
@ 162   ----------------------------------------
	.byte	W96
@ 163   ----------------------------------------
	.byte	W96
@ 164   ----------------------------------------
	.byte	W96
@ 165   ----------------------------------------
	.byte	W96
@ 166   ----------------------------------------
	.byte	W96
@ 167   ----------------------------------------
	.byte	W96
@ 168   ----------------------------------------
	.byte	W96
@ 169   ----------------------------------------
	.byte	W96
@ 170   ----------------------------------------
	.byte	W96
@ 171   ----------------------------------------
	.byte	W96
@ 172   ----------------------------------------
	.byte	W96
@ 173   ----------------------------------------
	.byte	W96
@ 174   ----------------------------------------
	.byte	W96
@ 175   ----------------------------------------
	.byte	W96
@ 176   ----------------------------------------
	.byte	W96
@ 177   ----------------------------------------
	.byte	W96
@ 178   ----------------------------------------
	.byte	W96
@ 179   ----------------------------------------
	.byte	W96
@ 180   ----------------------------------------
	.byte	W96
@ 181   ----------------------------------------
	.byte	W96
@ 182   ----------------------------------------
	.byte	W96
@ 183   ----------------------------------------
	.byte	W96
@ 184   ----------------------------------------
	.byte	W96
@ 185   ----------------------------------------
	.byte	W96
@ 186   ----------------------------------------
	.byte	W96
@ 187   ----------------------------------------
	.byte	W96
@ 188   ----------------------------------------
	.byte	W96
@ 189   ----------------------------------------
	.byte	W96
@ 190   ----------------------------------------
	.byte	W96
@ 191   ----------------------------------------
	.byte	W96
@ 192   ----------------------------------------
	.byte	W96
@ 193   ----------------------------------------
	.byte	W96
@ 194   ----------------------------------------
	.byte	W96
@ 195   ----------------------------------------
	.byte	W96
@ 196   ----------------------------------------
	.byte	W96
@ 197   ----------------------------------------
	.byte	W96
@ 198   ----------------------------------------
	.byte	W96
@ 199   ----------------------------------------
	.byte	W96
@ 200   ----------------------------------------
	.byte	W96
@ 201   ----------------------------------------
	.byte	W96
@ 202   ----------------------------------------
	.byte	W96
@ 203   ----------------------------------------
	.byte	W96
@ 204   ----------------------------------------
	.byte	W96
@ 205   ----------------------------------------
	.byte	W96
@ 206   ----------------------------------------
	.byte	W96
@ 207   ----------------------------------------
	.byte	W96
@ 208   ----------------------------------------
	.byte	W96
@ 209   ----------------------------------------
	.byte	W96
@ 210   ----------------------------------------
	.byte	W96
@ 211   ----------------------------------------
	.byte	W96
@ 212   ----------------------------------------
	.byte	W36
	.byte	GOTO
	 .word	that_persons_name_is_2_B1
that_persons_name_is_2_B2:
	.byte	FINE

@**************** Track 3 (Midi-Chn.3) ****************@

that_persons_name_is_3:
	.byte	KEYSH , that_persons_name_is_key+0
that_persons_name_is_3_B1:
@ 000   ----------------------------------------
	.byte		VOICE , 56
	.byte		VOL   , 100*that_persons_name_is_mvl/mxv
	.byte		PAN   , c_v+0
	.byte	W96
@ 001   ----------------------------------------
	.byte	W96
@ 002   ----------------------------------------
	.byte	W96
@ 003   ----------------------------------------
	.byte	W96
@ 004   ----------------------------------------
	.byte	W96
@ 005   ----------------------------------------
	.byte	W96
@ 006   ----------------------------------------
	.byte	W96
@ 007   ----------------------------------------
	.byte	W96
@ 008   ----------------------------------------
	.byte	W96
@ 009   ----------------------------------------
	.byte	W96
@ 010   ----------------------------------------
	.byte	W96
@ 011   ----------------------------------------
	.byte	W96
@ 012   ----------------------------------------
	.byte	W96
@ 013   ----------------------------------------
	.byte	W96
@ 014   ----------------------------------------
	.byte	W96
@ 015   ----------------------------------------
	.byte	W96
@ 016   ----------------------------------------
	.byte	W96
@ 017   ----------------------------------------
	.byte	W96
@ 018   ----------------------------------------
	.byte	W96
@ 019   ----------------------------------------
	.byte	W96
@ 020   ----------------------------------------
	.byte	W96
@ 021   ----------------------------------------
	.byte	W96
@ 022   ----------------------------------------
	.byte	W96
@ 023   ----------------------------------------
	.byte	W96
@ 024   ----------------------------------------
	.byte	W84
	.byte		N23   , En3 , v112
	.byte	W12
@ 025   ----------------------------------------
that_persons_name_is_3_025:
	.byte	W12
	.byte		N28   , Fs3 , v112
	.byte	W30
	.byte		N05   , Gs3 
	.byte	W06
	.byte		        An3 
	.byte	W06
	.byte		        Bn3 
	.byte	W06
	.byte		N32   , Cs4 
	.byte	W36
	.byte	PEND
@ 026   ----------------------------------------
that_persons_name_is_3_026:
	.byte		N11   , Fs3 , v112
	.byte	W12
	.byte		N08   , Cs4 
	.byte	W18
	.byte		N05   , Fs3 
	.byte	W06
	.byte		N44   , Cs4 
	.byte	W60
	.byte	PEND
@ 027   ----------------------------------------
	.byte	W96
@ 028   ----------------------------------------
	.byte	W96
@ 029   ----------------------------------------
	.byte	PATT
	 .word	that_persons_name_is_3_025
@ 030   ----------------------------------------
	.byte	PATT
	 .word	that_persons_name_is_3_026
@ 031   ----------------------------------------
	.byte	W96
@ 032   ----------------------------------------
	.byte	W96
@ 033   ----------------------------------------
	.byte	W96
@ 034   ----------------------------------------
	.byte	W96
@ 035   ----------------------------------------
	.byte	W96
@ 036   ----------------------------------------
	.byte	W96
@ 037   ----------------------------------------
	.byte	W96
@ 038   ----------------------------------------
	.byte	W96
@ 039   ----------------------------------------
	.byte	W96
@ 040   ----------------------------------------
	.byte	W96
@ 041   ----------------------------------------
	.byte	W96
@ 042   ----------------------------------------
	.byte	W96
@ 043   ----------------------------------------
	.byte	W96
@ 044   ----------------------------------------
	.byte	W96
@ 045   ----------------------------------------
	.byte	W96
@ 046   ----------------------------------------
	.byte	W96
@ 047   ----------------------------------------
	.byte	W96
@ 048   ----------------------------------------
	.byte	W96
@ 049   ----------------------------------------
	.byte	W96
@ 050   ----------------------------------------
	.byte	W96
@ 051   ----------------------------------------
	.byte	W96
@ 052   ----------------------------------------
	.byte	W96
@ 053   ----------------------------------------
	.byte	W96
@ 054   ----------------------------------------
	.byte	W96
@ 055   ----------------------------------------
	.byte	W96
@ 056   ----------------------------------------
	.byte	W96
@ 057   ----------------------------------------
	.byte	W96
@ 058   ----------------------------------------
	.byte	W96
@ 059   ----------------------------------------
	.byte	W96
@ 060   ----------------------------------------
	.byte	W96
@ 061   ----------------------------------------
	.byte	W96
@ 062   ----------------------------------------
	.byte	W96
@ 063   ----------------------------------------
	.byte	W96
@ 064   ----------------------------------------
	.byte	W96
@ 065   ----------------------------------------
	.byte	W96
@ 066   ----------------------------------------
	.byte	W96
@ 067   ----------------------------------------
	.byte	W96
@ 068   ----------------------------------------
	.byte	W96
@ 069   ----------------------------------------
	.byte	W96
@ 070   ----------------------------------------
	.byte	W96
@ 071   ----------------------------------------
	.byte	W96
@ 072   ----------------------------------------
	.byte	W96
@ 073   ----------------------------------------
	.byte	W96
@ 074   ----------------------------------------
	.byte	W96
@ 075   ----------------------------------------
	.byte	W96
@ 076   ----------------------------------------
	.byte	W96
@ 077   ----------------------------------------
	.byte	W96
@ 078   ----------------------------------------
	.byte	W96
@ 079   ----------------------------------------
	.byte	W96
@ 080   ----------------------------------------
	.byte	W96
@ 081   ----------------------------------------
	.byte	W96
@ 082   ----------------------------------------
	.byte	W96
@ 083   ----------------------------------------
	.byte	W96
@ 084   ----------------------------------------
	.byte	W96
@ 085   ----------------------------------------
	.byte	W96
@ 086   ----------------------------------------
	.byte	W96
@ 087   ----------------------------------------
	.byte	W96
@ 088   ----------------------------------------
	.byte	W96
@ 089   ----------------------------------------
	.byte	W96
@ 090   ----------------------------------------
	.byte	W96
@ 091   ----------------------------------------
	.byte	W96
@ 092   ----------------------------------------
	.byte	W96
@ 093   ----------------------------------------
	.byte	W96
@ 094   ----------------------------------------
	.byte	W96
@ 095   ----------------------------------------
	.byte	W96
@ 096   ----------------------------------------
	.byte	W96
@ 097   ----------------------------------------
	.byte	W96
@ 098   ----------------------------------------
	.byte	W96
@ 099   ----------------------------------------
	.byte	W96
@ 100   ----------------------------------------
	.byte	W96
@ 101   ----------------------------------------
	.byte	W96
@ 102   ----------------------------------------
	.byte	W96
@ 103   ----------------------------------------
	.byte	W96
@ 104   ----------------------------------------
	.byte	W96
@ 105   ----------------------------------------
	.byte	W96
@ 106   ----------------------------------------
	.byte	W96
@ 107   ----------------------------------------
	.byte	W96
@ 108   ----------------------------------------
	.byte	W96
@ 109   ----------------------------------------
	.byte	W96
@ 110   ----------------------------------------
	.byte	W96
@ 111   ----------------------------------------
	.byte	W96
@ 112   ----------------------------------------
	.byte	W96
@ 113   ----------------------------------------
	.byte	W96
@ 114   ----------------------------------------
	.byte	W96
@ 115   ----------------------------------------
	.byte	W96
@ 116   ----------------------------------------
	.byte	W96
@ 117   ----------------------------------------
	.byte	W96
@ 118   ----------------------------------------
	.byte	W96
@ 119   ----------------------------------------
	.byte	W96
@ 120   ----------------------------------------
	.byte	W96
@ 121   ----------------------------------------
	.byte	W96
@ 122   ----------------------------------------
	.byte	W96
@ 123   ----------------------------------------
	.byte	W96
@ 124   ----------------------------------------
	.byte	W96
@ 125   ----------------------------------------
	.byte	W96
@ 126   ----------------------------------------
	.byte	W84
	.byte		N23   , En3 , v112
	.byte	W12
@ 127   ----------------------------------------
	.byte	PATT
	 .word	that_persons_name_is_3_025
@ 128   ----------------------------------------
	.byte	PATT
	 .word	that_persons_name_is_3_026
@ 129   ----------------------------------------
	.byte	W96
@ 130   ----------------------------------------
	.byte	W96
@ 131   ----------------------------------------
	.byte	PATT
	 .word	that_persons_name_is_3_025
@ 132   ----------------------------------------
	.byte	PATT
	 .word	that_persons_name_is_3_026
@ 133   ----------------------------------------
	.byte	W96
@ 134   ----------------------------------------
	.byte	W96
@ 135   ----------------------------------------
	.byte	W96
@ 136   ----------------------------------------
	.byte	W96
@ 137   ----------------------------------------
	.byte	W96
@ 138   ----------------------------------------
	.byte	W96
@ 139   ----------------------------------------
	.byte	W96
@ 140   ----------------------------------------
	.byte	W96
@ 141   ----------------------------------------
	.byte	W96
@ 142   ----------------------------------------
	.byte	W96
@ 143   ----------------------------------------
	.byte	W96
@ 144   ----------------------------------------
	.byte	W96
@ 145   ----------------------------------------
	.byte	W96
@ 146   ----------------------------------------
	.byte	W96
@ 147   ----------------------------------------
	.byte	W96
@ 148   ----------------------------------------
	.byte	W96
@ 149   ----------------------------------------
	.byte	W96
@ 150   ----------------------------------------
	.byte	W96
@ 151   ----------------------------------------
	.byte	W96
@ 152   ----------------------------------------
	.byte	W96
@ 153   ----------------------------------------
	.byte	W96
@ 154   ----------------------------------------
	.byte	W96
@ 155   ----------------------------------------
	.byte	W96
@ 156   ----------------------------------------
	.byte	W96
@ 157   ----------------------------------------
	.byte	W96
@ 158   ----------------------------------------
	.byte	W96
@ 159   ----------------------------------------
	.byte	W96
@ 160   ----------------------------------------
	.byte	W96
@ 161   ----------------------------------------
	.byte	W96
@ 162   ----------------------------------------
	.byte	W96
@ 163   ----------------------------------------
	.byte	W96
@ 164   ----------------------------------------
	.byte	W96
@ 165   ----------------------------------------
	.byte	W96
@ 166   ----------------------------------------
	.byte	W96
@ 167   ----------------------------------------
	.byte	W96
@ 168   ----------------------------------------
	.byte	W96
@ 169   ----------------------------------------
	.byte	W96
@ 170   ----------------------------------------
	.byte	W96
@ 171   ----------------------------------------
	.byte	W96
@ 172   ----------------------------------------
	.byte	W96
@ 173   ----------------------------------------
	.byte	W96
@ 174   ----------------------------------------
	.byte	W96
@ 175   ----------------------------------------
	.byte	W96
@ 176   ----------------------------------------
	.byte	W96
@ 177   ----------------------------------------
	.byte	W96
@ 178   ----------------------------------------
	.byte	W96
@ 179   ----------------------------------------
	.byte	W96
@ 180   ----------------------------------------
	.byte	W96
@ 181   ----------------------------------------
	.byte	W96
@ 182   ----------------------------------------
	.byte	W96
@ 183   ----------------------------------------
	.byte	W96
@ 184   ----------------------------------------
	.byte	W96
@ 185   ----------------------------------------
	.byte	W96
@ 186   ----------------------------------------
	.byte	W96
@ 187   ----------------------------------------
	.byte	W96
@ 188   ----------------------------------------
	.byte	W96
@ 189   ----------------------------------------
	.byte	W96
@ 190   ----------------------------------------
	.byte	W96
@ 191   ----------------------------------------
	.byte	W96
@ 192   ----------------------------------------
	.byte	W96
@ 193   ----------------------------------------
	.byte	W96
@ 194   ----------------------------------------
	.byte	W96
@ 195   ----------------------------------------
	.byte	W96
@ 196   ----------------------------------------
	.byte	W96
@ 197   ----------------------------------------
	.byte	W96
@ 198   ----------------------------------------
	.byte	W96
@ 199   ----------------------------------------
	.byte	W96
@ 200   ----------------------------------------
	.byte	W96
@ 201   ----------------------------------------
	.byte	W96
@ 202   ----------------------------------------
	.byte	W96
@ 203   ----------------------------------------
	.byte	W96
@ 204   ----------------------------------------
	.byte	W96
@ 205   ----------------------------------------
	.byte	W96
@ 206   ----------------------------------------
	.byte	W96
@ 207   ----------------------------------------
	.byte	W96
@ 208   ----------------------------------------
	.byte	W96
@ 209   ----------------------------------------
	.byte	W96
@ 210   ----------------------------------------
	.byte	W96
@ 211   ----------------------------------------
	.byte	W96
@ 212   ----------------------------------------
	.byte	W36
	.byte	GOTO
	 .word	that_persons_name_is_3_B1
that_persons_name_is_3_B2:
	.byte	FINE

@**************** Track 4 (Midi-Chn.5) ****************@

that_persons_name_is_4:
	.byte	KEYSH , that_persons_name_is_key+0
that_persons_name_is_4_B1:
@ 000   ----------------------------------------
	.byte		VOICE , 19
	.byte		VOL   , 100*that_persons_name_is_mvl/mxv
	.byte		PAN   , c_v+0
	.byte	W96
@ 001   ----------------------------------------
	.byte	W96
@ 002   ----------------------------------------
	.byte	W96
@ 003   ----------------------------------------
	.byte	W96
@ 004   ----------------------------------------
	.byte	W96
@ 005   ----------------------------------------
	.byte	W96
@ 006   ----------------------------------------
	.byte	W96
@ 007   ----------------------------------------
	.byte	W96
@ 008   ----------------------------------------
	.byte	W96
@ 009   ----------------------------------------
	.byte	W96
@ 010   ----------------------------------------
	.byte	W96
@ 011   ----------------------------------------
	.byte	W96
@ 012   ----------------------------------------
	.byte	W96
@ 013   ----------------------------------------
	.byte	W96
@ 014   ----------------------------------------
	.byte	W96
@ 015   ----------------------------------------
	.byte	W96
@ 016   ----------------------------------------
	.byte	W96
@ 017   ----------------------------------------
	.byte	W96
@ 018   ----------------------------------------
	.byte	W96
@ 019   ----------------------------------------
	.byte	W96
@ 020   ----------------------------------------
	.byte	W96
@ 021   ----------------------------------------
	.byte	W96
@ 022   ----------------------------------------
	.byte	W96
@ 023   ----------------------------------------
	.byte	W96
@ 024   ----------------------------------------
	.byte	W96
@ 025   ----------------------------------------
	.byte	W96
@ 026   ----------------------------------------
	.byte	W96
@ 027   ----------------------------------------
	.byte	W96
@ 028   ----------------------------------------
	.byte	W96
@ 029   ----------------------------------------
	.byte	W96
@ 030   ----------------------------------------
	.byte	W96
@ 031   ----------------------------------------
	.byte	W96
@ 032   ----------------------------------------
	.byte	W96
@ 033   ----------------------------------------
	.byte	W96
@ 034   ----------------------------------------
	.byte	W96
@ 035   ----------------------------------------
	.byte	W96
@ 036   ----------------------------------------
	.byte	W96
@ 037   ----------------------------------------
	.byte	W96
@ 038   ----------------------------------------
	.byte	W96
@ 039   ----------------------------------------
	.byte	W96
@ 040   ----------------------------------------
	.byte	W96
@ 041   ----------------------------------------
that_persons_name_is_4_041:
	.byte		N05   , An3 , v112
	.byte	W06
	.byte		        Bn3 
	.byte	W06
	.byte		N32   , Cn4 
	.byte	W36
	.byte		N05   , Bn3 
	.byte	W06
	.byte		        An3 
	.byte	W06
	.byte		N23   , Bn3 
	.byte	W24
	.byte		N04   , An3 
	.byte	W04
	.byte		        Bn3 
	.byte	W05
	.byte		N15   , Gn3 
	.byte	W03
	.byte	PEND
@ 042   ----------------------------------------
that_persons_name_is_4_042:
	.byte	W12
	.byte		N17   , An3 , v112
	.byte	W18
	.byte		        Bn3 
	.byte	W18
	.byte		N11   , An3 
	.byte	W24
	.byte		N23   , En3 
	.byte	W24
	.byte	PEND
@ 043   ----------------------------------------
that_persons_name_is_4_043:
	.byte		N05   , Dn3 , v112
	.byte	W06
	.byte		        En3 
	.byte	W18
	.byte		N23   , Fn3 
	.byte	W24
	.byte		N05   , Gn3 
	.byte	W06
	.byte		        An3 
	.byte	W06
	.byte		N17   , Bn3 
	.byte	W18
	.byte		        Cn4 
	.byte	W18
	.byte	PEND
@ 044   ----------------------------------------
that_persons_name_is_4_044:
	.byte		N11   , Dn4 , v112
	.byte	W12
	.byte		N17   , En4 
	.byte	W18
	.byte		        Cn4 
	.byte	W18
	.byte		N11   , Gn3 
	.byte	W12
	.byte		N32   , Gn4 
	.byte	W36
	.byte	PEND
@ 045   ----------------------------------------
that_persons_name_is_4_045:
	.byte		N05   , Fn4 , v112
	.byte	W06
	.byte		        En4 
	.byte	W06
	.byte		N17   , Dn4 
	.byte	W18
	.byte		        En4 
	.byte	W18
	.byte		N11   , Dn4 
	.byte	W12
	.byte		N23   , Bn3 
	.byte	W24
	.byte		N02   , Bn2 
	.byte	W03
	.byte		        Cn3 
	.byte	W03
	.byte		        Dn3 
	.byte	W03
	.byte		        En3 
	.byte	W03
	.byte	PEND
@ 046   ----------------------------------------
that_persons_name_is_4_046:
	.byte		N02   , Fn3 , v112
	.byte	W03
	.byte		        Gn3 
	.byte	W03
	.byte		        An3 
	.byte	W03
	.byte		        Bn3 
	.byte	W03
	.byte		N17   , Cn4 
	.byte	W18
	.byte		        Dn4 
	.byte	W18
	.byte		N11   , En4 
	.byte	W12
	.byte		N44   , An3 
	.byte	W36
	.byte	PEND
@ 047   ----------------------------------------
that_persons_name_is_4_047:
	.byte	W12
	.byte		N17   , Bn3 , v112
	.byte	W18
	.byte		N17   
	.byte	W18
	.byte		N17   
	.byte	W24
	.byte		N11   , Gn3 
	.byte	W12
	.byte		N05   , Gn4 
	.byte	W12
	.byte	PEND
@ 048   ----------------------------------------
that_persons_name_is_4_048:
	.byte		N05   , Fn4 , v112
	.byte	W12
	.byte		N17   , En4 
	.byte	W84
	.byte	PEND
@ 049   ----------------------------------------
	.byte	W96
@ 050   ----------------------------------------
	.byte	W96
@ 051   ----------------------------------------
	.byte	W96
@ 052   ----------------------------------------
	.byte	W96
@ 053   ----------------------------------------
	.byte	W96
@ 054   ----------------------------------------
	.byte	W96
@ 055   ----------------------------------------
	.byte	W96
@ 056   ----------------------------------------
	.byte	W96
@ 057   ----------------------------------------
	.byte	W96
@ 058   ----------------------------------------
	.byte	W96
@ 059   ----------------------------------------
	.byte	W96
@ 060   ----------------------------------------
	.byte	W96
@ 061   ----------------------------------------
	.byte	W96
@ 062   ----------------------------------------
	.byte	W96
@ 063   ----------------------------------------
	.byte	W96
@ 064   ----------------------------------------
	.byte	W96
@ 065   ----------------------------------------
	.byte	W96
@ 066   ----------------------------------------
	.byte	W96
@ 067   ----------------------------------------
	.byte	W96
@ 068   ----------------------------------------
	.byte	W96
@ 069   ----------------------------------------
	.byte	W96
@ 070   ----------------------------------------
	.byte	W96
@ 071   ----------------------------------------
	.byte	W96
@ 072   ----------------------------------------
	.byte	W96
@ 073   ----------------------------------------
	.byte	W96
@ 074   ----------------------------------------
	.byte	W96
@ 075   ----------------------------------------
	.byte	W96
@ 076   ----------------------------------------
	.byte	W96
@ 077   ----------------------------------------
	.byte	W96
@ 078   ----------------------------------------
	.byte	W96
@ 079   ----------------------------------------
	.byte	W96
@ 080   ----------------------------------------
	.byte	W96
@ 081   ----------------------------------------
	.byte	W96
@ 082   ----------------------------------------
	.byte	W96
@ 083   ----------------------------------------
	.byte	W96
@ 084   ----------------------------------------
	.byte	W96
@ 085   ----------------------------------------
	.byte	W96
@ 086   ----------------------------------------
	.byte	W96
@ 087   ----------------------------------------
	.byte	W96
@ 088   ----------------------------------------
	.byte	W96
@ 089   ----------------------------------------
	.byte	W96
@ 090   ----------------------------------------
	.byte	W96
@ 091   ----------------------------------------
	.byte	W96
@ 092   ----------------------------------------
	.byte	W96
@ 093   ----------------------------------------
	.byte	W96
@ 094   ----------------------------------------
	.byte	W96
@ 095   ----------------------------------------
	.byte	W96
@ 096   ----------------------------------------
	.byte	W96
@ 097   ----------------------------------------
	.byte	W96
@ 098   ----------------------------------------
	.byte	W96
@ 099   ----------------------------------------
	.byte	W96
@ 100   ----------------------------------------
	.byte	W96
@ 101   ----------------------------------------
	.byte	W96
@ 102   ----------------------------------------
	.byte	W96
@ 103   ----------------------------------------
	.byte	W96
@ 104   ----------------------------------------
	.byte	W96
@ 105   ----------------------------------------
	.byte	W96
@ 106   ----------------------------------------
	.byte	W96
@ 107   ----------------------------------------
	.byte	W96
@ 108   ----------------------------------------
	.byte	W96
@ 109   ----------------------------------------
	.byte	W96
@ 110   ----------------------------------------
	.byte	W96
@ 111   ----------------------------------------
	.byte	W96
@ 112   ----------------------------------------
	.byte	W96
@ 113   ----------------------------------------
	.byte	W96
@ 114   ----------------------------------------
	.byte	W96
@ 115   ----------------------------------------
	.byte	W96
@ 116   ----------------------------------------
	.byte	W96
@ 117   ----------------------------------------
	.byte	W96
@ 118   ----------------------------------------
	.byte	W96
@ 119   ----------------------------------------
	.byte	W96
@ 120   ----------------------------------------
	.byte	W96
@ 121   ----------------------------------------
	.byte	W96
@ 122   ----------------------------------------
	.byte	W96
@ 123   ----------------------------------------
	.byte	W96
@ 124   ----------------------------------------
	.byte	W96
@ 125   ----------------------------------------
	.byte	W96
@ 126   ----------------------------------------
	.byte	W96
@ 127   ----------------------------------------
	.byte	W96
@ 128   ----------------------------------------
	.byte	W96
@ 129   ----------------------------------------
	.byte	W96
@ 130   ----------------------------------------
	.byte	W96
@ 131   ----------------------------------------
	.byte	W96
@ 132   ----------------------------------------
	.byte	W96
@ 133   ----------------------------------------
	.byte	W96
@ 134   ----------------------------------------
	.byte	W96
@ 135   ----------------------------------------
	.byte	W96
@ 136   ----------------------------------------
	.byte	W96
@ 137   ----------------------------------------
	.byte	W96
@ 138   ----------------------------------------
	.byte	W96
@ 139   ----------------------------------------
	.byte	W96
@ 140   ----------------------------------------
	.byte	W96
@ 141   ----------------------------------------
	.byte	W96
@ 142   ----------------------------------------
	.byte	W96
@ 143   ----------------------------------------
	.byte	PATT
	 .word	that_persons_name_is_4_041
@ 144   ----------------------------------------
	.byte	PATT
	 .word	that_persons_name_is_4_042
@ 145   ----------------------------------------
	.byte	PATT
	 .word	that_persons_name_is_4_043
@ 146   ----------------------------------------
	.byte	PATT
	 .word	that_persons_name_is_4_044
@ 147   ----------------------------------------
	.byte	PATT
	 .word	that_persons_name_is_4_045
@ 148   ----------------------------------------
	.byte	PATT
	 .word	that_persons_name_is_4_046
@ 149   ----------------------------------------
	.byte	PATT
	 .word	that_persons_name_is_4_047
@ 150   ----------------------------------------
	.byte	PATT
	 .word	that_persons_name_is_4_048
@ 151   ----------------------------------------
	.byte	W96
@ 152   ----------------------------------------
	.byte	W96
@ 153   ----------------------------------------
	.byte	W96
@ 154   ----------------------------------------
	.byte	W96
@ 155   ----------------------------------------
	.byte	W96
@ 156   ----------------------------------------
	.byte	W96
@ 157   ----------------------------------------
	.byte	W96
@ 158   ----------------------------------------
	.byte	W96
@ 159   ----------------------------------------
	.byte	W96
@ 160   ----------------------------------------
	.byte	W96
@ 161   ----------------------------------------
	.byte	W96
@ 162   ----------------------------------------
	.byte	W96
@ 163   ----------------------------------------
	.byte	W96
@ 164   ----------------------------------------
	.byte	W96
@ 165   ----------------------------------------
	.byte	W96
@ 166   ----------------------------------------
	.byte	W96
@ 167   ----------------------------------------
	.byte	W96
@ 168   ----------------------------------------
	.byte	W96
@ 169   ----------------------------------------
	.byte	W96
@ 170   ----------------------------------------
	.byte	W96
@ 171   ----------------------------------------
	.byte	W96
@ 172   ----------------------------------------
	.byte	W96
@ 173   ----------------------------------------
	.byte	W96
@ 174   ----------------------------------------
	.byte	W96
@ 175   ----------------------------------------
	.byte	W96
@ 176   ----------------------------------------
	.byte	W96
@ 177   ----------------------------------------
	.byte	W96
@ 178   ----------------------------------------
	.byte	W96
@ 179   ----------------------------------------
	.byte	W96
@ 180   ----------------------------------------
	.byte	W96
@ 181   ----------------------------------------
	.byte	W96
@ 182   ----------------------------------------
	.byte	W96
@ 183   ----------------------------------------
	.byte	W96
@ 184   ----------------------------------------
	.byte	W96
@ 185   ----------------------------------------
	.byte	W96
@ 186   ----------------------------------------
	.byte	W96
@ 187   ----------------------------------------
	.byte	W96
@ 188   ----------------------------------------
	.byte	W96
@ 189   ----------------------------------------
	.byte	W96
@ 190   ----------------------------------------
	.byte	W96
@ 191   ----------------------------------------
	.byte	W96
@ 192   ----------------------------------------
	.byte	W96
@ 193   ----------------------------------------
	.byte	W96
@ 194   ----------------------------------------
	.byte	W96
@ 195   ----------------------------------------
	.byte	W96
@ 196   ----------------------------------------
	.byte	W96
@ 197   ----------------------------------------
	.byte	W96
@ 198   ----------------------------------------
	.byte	W96
@ 199   ----------------------------------------
	.byte	W96
@ 200   ----------------------------------------
	.byte	W96
@ 201   ----------------------------------------
	.byte	W96
@ 202   ----------------------------------------
	.byte	W96
@ 203   ----------------------------------------
	.byte	W96
@ 204   ----------------------------------------
	.byte	W96
@ 205   ----------------------------------------
	.byte	W96
@ 206   ----------------------------------------
	.byte	W96
@ 207   ----------------------------------------
	.byte	W96
@ 208   ----------------------------------------
	.byte	W96
@ 209   ----------------------------------------
	.byte	W96
@ 210   ----------------------------------------
	.byte	W96
@ 211   ----------------------------------------
	.byte	W96
@ 212   ----------------------------------------
	.byte	W36
	.byte	GOTO
	 .word	that_persons_name_is_4_B1
that_persons_name_is_4_B2:
	.byte	FINE

@**************** Track 5 (Midi-Chn.6) ****************@

that_persons_name_is_5:
	.byte	KEYSH , that_persons_name_is_key+0
that_persons_name_is_5_B1:
@ 000   ----------------------------------------
	.byte		VOICE , 56
	.byte		VOL   , 100*that_persons_name_is_mvl/mxv
	.byte		PAN   , c_v+0
	.byte	W96
@ 001   ----------------------------------------
	.byte	W96
@ 002   ----------------------------------------
	.byte	W96
@ 003   ----------------------------------------
	.byte	W96
@ 004   ----------------------------------------
	.byte	W96
@ 005   ----------------------------------------
	.byte	W96
@ 006   ----------------------------------------
	.byte	W96
@ 007   ----------------------------------------
	.byte	W96
@ 008   ----------------------------------------
	.byte	W96
@ 009   ----------------------------------------
	.byte	W96
@ 010   ----------------------------------------
	.byte	W96
@ 011   ----------------------------------------
	.byte	W96
@ 012   ----------------------------------------
	.byte	W96
@ 013   ----------------------------------------
	.byte	W96
@ 014   ----------------------------------------
	.byte	W96
@ 015   ----------------------------------------
	.byte	W96
@ 016   ----------------------------------------
	.byte	W96
@ 017   ----------------------------------------
	.byte	W96
@ 018   ----------------------------------------
	.byte	W96
@ 019   ----------------------------------------
	.byte	W96
@ 020   ----------------------------------------
	.byte	W96
@ 021   ----------------------------------------
	.byte	W96
@ 022   ----------------------------------------
	.byte	W96
@ 023   ----------------------------------------
	.byte	W96
@ 024   ----------------------------------------
	.byte	W96
@ 025   ----------------------------------------
	.byte	W96
@ 026   ----------------------------------------
	.byte	W96
@ 027   ----------------------------------------
	.byte	W96
@ 028   ----------------------------------------
	.byte	W96
@ 029   ----------------------------------------
	.byte	W96
@ 030   ----------------------------------------
	.byte	W96
@ 031   ----------------------------------------
	.byte	W96
@ 032   ----------------------------------------
	.byte	W96
@ 033   ----------------------------------------
	.byte	W96
@ 034   ----------------------------------------
	.byte	W96
@ 035   ----------------------------------------
	.byte	W96
@ 036   ----------------------------------------
	.byte	W96
@ 037   ----------------------------------------
	.byte	W96
@ 038   ----------------------------------------
	.byte	W96
@ 039   ----------------------------------------
	.byte	W96
@ 040   ----------------------------------------
	.byte	W96
@ 041   ----------------------------------------
	.byte	W96
@ 042   ----------------------------------------
	.byte	W96
@ 043   ----------------------------------------
	.byte	W96
@ 044   ----------------------------------------
	.byte	W96
@ 045   ----------------------------------------
	.byte	W96
@ 046   ----------------------------------------
	.byte	W96
@ 047   ----------------------------------------
	.byte	W96
@ 048   ----------------------------------------
	.byte	W96
@ 049   ----------------------------------------
	.byte	W84
	.byte		N23   , En3 , v112
	.byte	W12
@ 050   ----------------------------------------
that_persons_name_is_5_050:
	.byte	W12
	.byte		N28   , Fs3 , v112
	.byte	W30
	.byte		N05   , Gs3 
	.byte	W06
	.byte		        An3 
	.byte	W06
	.byte		        Bn3 
	.byte	W06
	.byte		N32   , Cs4 
	.byte	W36
	.byte	PEND
@ 051   ----------------------------------------
that_persons_name_is_5_051:
	.byte		N11   , Fs3 , v112
	.byte	W12
	.byte		N08   , Cs4 
	.byte	W18
	.byte		N05   , Fs3 
	.byte	W06
	.byte		N44   , Cs4 
	.byte	W60
	.byte	PEND
@ 052   ----------------------------------------
	.byte	W96
@ 053   ----------------------------------------
	.byte	W96
@ 054   ----------------------------------------
	.byte	PATT
	 .word	that_persons_name_is_5_050
@ 055   ----------------------------------------
	.byte	PATT
	 .word	that_persons_name_is_5_051
@ 056   ----------------------------------------
	.byte	W96
@ 057   ----------------------------------------
	.byte	W96
@ 058   ----------------------------------------
	.byte	W96
@ 059   ----------------------------------------
	.byte	W96
@ 060   ----------------------------------------
	.byte	W96
@ 061   ----------------------------------------
	.byte	W96
@ 062   ----------------------------------------
	.byte	W96
@ 063   ----------------------------------------
	.byte	W96
@ 064   ----------------------------------------
	.byte	W96
@ 065   ----------------------------------------
that_persons_name_is_5_065:
	.byte	W12
	.byte		N11   , En4 , v080
	.byte	W12
	.byte		        Ds4 
	.byte	W12
	.byte		        En4 
	.byte	W12
	.byte		N05   , Gs3 
	.byte	W06
	.byte		N32   , En4 
	.byte	W42
	.byte	PEND
@ 066   ----------------------------------------
that_persons_name_is_5_066:
	.byte		N11   , En4 , v080
	.byte	W12
	.byte		N17   , Ds4 
	.byte	W18
	.byte		        Bn3 
	.byte	W18
	.byte		N11   , Gs3 
	.byte	W12
	.byte		N32   , Bn3 
	.byte	W36
	.byte	PEND
@ 067   ----------------------------------------
that_persons_name_is_5_067:
	.byte	W12
	.byte		N11   , Cs4 , v080
	.byte	W12
	.byte		        Bn3 
	.byte	W12
	.byte		        Cs4 
	.byte	W12
	.byte		N05   , Fs3 
	.byte	W06
	.byte		N17   , Cs4 
	.byte	W18
	.byte		N11   , Bn3 
	.byte	W12
	.byte		        Cs4 
	.byte	W12
	.byte	PEND
@ 068   ----------------------------------------
that_persons_name_is_5_068:
	.byte		N05   , En3 , v080
	.byte	W06
	.byte		        Fs3 
	.byte	W18
	.byte		N68   , Gs3 
	.byte	W72
	.byte	PEND
@ 069   ----------------------------------------
that_persons_name_is_5_069:
	.byte	W12
	.byte		N11   , An3 , v080
	.byte	W12
	.byte		        Gs3 
	.byte	W12
	.byte		        An3 
	.byte	W12
	.byte		N05   , Cs3 
	.byte	W06
	.byte		N32   , An3 
	.byte	W42
	.byte	PEND
@ 070   ----------------------------------------
that_persons_name_is_5_070:
	.byte		N11   , An3 , v080
	.byte	W12
	.byte		        Gs3 
	.byte	W12
	.byte		        Fs3 
	.byte	W12
	.byte		        Gs3 
	.byte	W12
	.byte		N05   , Bn2 
	.byte	W06
	.byte		N32   , Gs3 
	.byte	W42
	.byte	PEND
@ 071   ----------------------------------------
that_persons_name_is_5_071:
	.byte		N11   , Gs3 , v080
	.byte	W12
	.byte		        Gn3 
	.byte	W12
	.byte		        Fn3 
	.byte	W12
	.byte		        Gn3 
	.byte	W12
	.byte		N05   , As2 
	.byte	W06
	.byte		N17   , Gn3 
	.byte	W18
	.byte		N11   , Fn3 
	.byte	W12
	.byte		        Gn3 
	.byte	W12
	.byte	PEND
@ 072   ----------------------------------------
that_persons_name_is_5_072:
	.byte		N05   , As2 , v080
	.byte	W06
	.byte		N52   , Gs3 
	.byte	W78
	.byte		N11   , Cs4 
	.byte	W12
	.byte	PEND
@ 073   ----------------------------------------
that_persons_name_is_5_073:
	.byte		N11   , Ds4 , v080
	.byte	W12
	.byte		        En4 
	.byte	W12
	.byte		        Ds4 
	.byte	W12
	.byte		        En4 
	.byte	W12
	.byte		N05   , Gs3 
	.byte	W06
	.byte		N32   , En4 
	.byte	W42
	.byte	PEND
@ 074   ----------------------------------------
	.byte	PATT
	 .word	that_persons_name_is_5_066
@ 075   ----------------------------------------
	.byte	PATT
	 .word	that_persons_name_is_5_067
@ 076   ----------------------------------------
	.byte	PATT
	 .word	that_persons_name_is_5_068
@ 077   ----------------------------------------
	.byte	PATT
	 .word	that_persons_name_is_5_069
@ 078   ----------------------------------------
that_persons_name_is_5_078:
	.byte		N11   , An3 , v080
	.byte	W12
	.byte		        Bn3 
	.byte	W12
	.byte		        An3 
	.byte	W12
	.byte		        Bn3 
	.byte	W12
	.byte		N05   , Ds3 
	.byte	W06
	.byte		N32   , Bn3 
	.byte	W42
	.byte	PEND
@ 079   ----------------------------------------
that_persons_name_is_5_079:
	.byte		N11   , Bn3 , v080
	.byte	W12
	.byte		        Cs4 
	.byte	W12
	.byte		        As3 
	.byte	W12
	.byte		        Cs4 
	.byte	W12
	.byte		N05   , Gn3 
	.byte	W06
	.byte		N17   , Cs4 
	.byte	W18
	.byte		N11   , As3 
	.byte	W12
	.byte		        Cs4 
	.byte	W12
	.byte	PEND
@ 080   ----------------------------------------
that_persons_name_is_5_080:
	.byte		N11   , Ds4 , v080
	.byte	W12
	.byte		N68   
	.byte	W72
	.byte		N11   , Cs4 
	.byte	W12
	.byte	PEND
@ 081   ----------------------------------------
that_persons_name_is_5_081:
	.byte		N11   , Ds4 , v080
	.byte	W12
	.byte		        En4 
	.byte	W12
	.byte		        Ds4 
	.byte	W12
	.byte		        En4 
	.byte	W12
	.byte		N05   , An3 
	.byte	W06
	.byte		N32   , En4 
	.byte	W42
	.byte	PEND
@ 082   ----------------------------------------
that_persons_name_is_5_082:
	.byte		N11   , En4 , v080
	.byte	W12
	.byte		        Ds4 
	.byte	W12
	.byte		        Cs4 
	.byte	W12
	.byte		        Ds4 
	.byte	W12
	.byte		N05   , Gs3 
	.byte	W06
	.byte		N17   , Ds4 
	.byte	W18
	.byte		        Cs4 
	.byte	W18
	.byte		        Ds4 
	.byte	W06
	.byte	PEND
@ 083   ----------------------------------------
	.byte	W96
@ 084   ----------------------------------------
	.byte	W96
@ 085   ----------------------------------------
	.byte	W96
@ 086   ----------------------------------------
	.byte	W96
@ 087   ----------------------------------------
	.byte	W96
@ 088   ----------------------------------------
	.byte	W96
@ 089   ----------------------------------------
	.byte	W96
@ 090   ----------------------------------------
	.byte	W96
@ 091   ----------------------------------------
	.byte	W96
@ 092   ----------------------------------------
	.byte	W96
@ 093   ----------------------------------------
	.byte	W96
@ 094   ----------------------------------------
	.byte	W96
@ 095   ----------------------------------------
	.byte	W96
@ 096   ----------------------------------------
	.byte	W96
@ 097   ----------------------------------------
	.byte	W96
@ 098   ----------------------------------------
	.byte	W96
@ 099   ----------------------------------------
	.byte	W96
@ 100   ----------------------------------------
	.byte	W96
@ 101   ----------------------------------------
	.byte	W96
@ 102   ----------------------------------------
	.byte	W96
@ 103   ----------------------------------------
	.byte	W96
@ 104   ----------------------------------------
	.byte	W96
@ 105   ----------------------------------------
that_persons_name_is_5_105:
	.byte	W12
	.byte		N05   , As3 , v080
	.byte	W12
	.byte		        Fn3 
	.byte	W12
	.byte		        Cs3 
	.byte	W12
	.byte		        As3 
	.byte	W12
	.byte		        Fn3 
	.byte	W12
	.byte		        Cs3 
	.byte	W12
	.byte		        As3 
	.byte	W12
	.byte	PEND
@ 106   ----------------------------------------
that_persons_name_is_5_106:
	.byte		N05   , Fn3 , v080
	.byte	W12
	.byte		        An3 
	.byte	W12
	.byte		        Fn3 
	.byte	W12
	.byte		        Cn3 
	.byte	W12
	.byte		        An3 
	.byte	W12
	.byte		        Fn3 
	.byte	W12
	.byte		        Cn3 
	.byte	W12
	.byte		        An3 
	.byte	W12
	.byte	PEND
@ 107   ----------------------------------------
that_persons_name_is_5_107:
	.byte		N05   , Fn3 , v080
	.byte	W12
	.byte		        As3 
	.byte	W12
	.byte		        Fn3 
	.byte	W12
	.byte		        Cs3 
	.byte	W12
	.byte		        As3 
	.byte	W12
	.byte		        Fn3 
	.byte	W12
	.byte		        Cs3 
	.byte	W12
	.byte		        As3 
	.byte	W12
	.byte	PEND
@ 108   ----------------------------------------
that_persons_name_is_5_108:
	.byte		N05   , Fn3 , v080
	.byte	W12
	.byte		        An3 
	.byte	W12
	.byte		        Fn3 
	.byte	W12
	.byte		        Cn3 
	.byte	W12
	.byte		        An3 
	.byte	W12
	.byte		N08   , Fn3 
	.byte	W36
	.byte	PEND
@ 109   ----------------------------------------
	.byte	W96
@ 110   ----------------------------------------
	.byte	W96
@ 111   ----------------------------------------
	.byte	W96
@ 112   ----------------------------------------
	.byte	W96
@ 113   ----------------------------------------
	.byte	W96
@ 114   ----------------------------------------
	.byte	W96
@ 115   ----------------------------------------
	.byte	W96
@ 116   ----------------------------------------
	.byte	W96
@ 117   ----------------------------------------
	.byte	W96
@ 118   ----------------------------------------
	.byte	W96
@ 119   ----------------------------------------
	.byte	W96
@ 120   ----------------------------------------
	.byte	W96
@ 121   ----------------------------------------
	.byte	W96
@ 122   ----------------------------------------
	.byte	W96
@ 123   ----------------------------------------
	.byte	W96
@ 124   ----------------------------------------
	.byte	W96
@ 125   ----------------------------------------
	.byte	W96
@ 126   ----------------------------------------
	.byte	W96
@ 127   ----------------------------------------
	.byte	W96
@ 128   ----------------------------------------
	.byte	W96
@ 129   ----------------------------------------
	.byte	W96
@ 130   ----------------------------------------
	.byte	W96
@ 131   ----------------------------------------
	.byte	W96
@ 132   ----------------------------------------
	.byte	W96
@ 133   ----------------------------------------
	.byte	W96
@ 134   ----------------------------------------
	.byte	W96
@ 135   ----------------------------------------
	.byte	W96
@ 136   ----------------------------------------
	.byte	W96
@ 137   ----------------------------------------
	.byte	W96
@ 138   ----------------------------------------
	.byte	W96
@ 139   ----------------------------------------
	.byte	W96
@ 140   ----------------------------------------
	.byte	W96
@ 141   ----------------------------------------
	.byte	W96
@ 142   ----------------------------------------
	.byte	W96
@ 143   ----------------------------------------
	.byte	W96
@ 144   ----------------------------------------
	.byte	W96
@ 145   ----------------------------------------
	.byte	W96
@ 146   ----------------------------------------
	.byte	W96
@ 147   ----------------------------------------
	.byte	W96
@ 148   ----------------------------------------
	.byte	W96
@ 149   ----------------------------------------
	.byte	W96
@ 150   ----------------------------------------
	.byte	W96
@ 151   ----------------------------------------
	.byte	W84
	.byte		N23   , En3 , v112
	.byte	W12
@ 152   ----------------------------------------
	.byte	PATT
	 .word	that_persons_name_is_5_050
@ 153   ----------------------------------------
	.byte	PATT
	 .word	that_persons_name_is_5_051
@ 154   ----------------------------------------
	.byte	W96
@ 155   ----------------------------------------
	.byte	W96
@ 156   ----------------------------------------
	.byte	PATT
	 .word	that_persons_name_is_5_050
@ 157   ----------------------------------------
	.byte	PATT
	 .word	that_persons_name_is_5_051
@ 158   ----------------------------------------
	.byte	W96
@ 159   ----------------------------------------
	.byte	W96
@ 160   ----------------------------------------
	.byte	W96
@ 161   ----------------------------------------
	.byte	W96
@ 162   ----------------------------------------
	.byte	W96
@ 163   ----------------------------------------
	.byte	W96
@ 164   ----------------------------------------
	.byte	W96
@ 165   ----------------------------------------
	.byte	W96
@ 166   ----------------------------------------
	.byte	W96
@ 167   ----------------------------------------
	.byte	PATT
	 .word	that_persons_name_is_5_065
@ 168   ----------------------------------------
	.byte	PATT
	 .word	that_persons_name_is_5_066
@ 169   ----------------------------------------
	.byte	PATT
	 .word	that_persons_name_is_5_067
@ 170   ----------------------------------------
	.byte	PATT
	 .word	that_persons_name_is_5_068
@ 171   ----------------------------------------
	.byte	PATT
	 .word	that_persons_name_is_5_069
@ 172   ----------------------------------------
	.byte	PATT
	 .word	that_persons_name_is_5_070
@ 173   ----------------------------------------
	.byte	PATT
	 .word	that_persons_name_is_5_071
@ 174   ----------------------------------------
	.byte	PATT
	 .word	that_persons_name_is_5_072
@ 175   ----------------------------------------
	.byte	PATT
	 .word	that_persons_name_is_5_073
@ 176   ----------------------------------------
	.byte	PATT
	 .word	that_persons_name_is_5_066
@ 177   ----------------------------------------
	.byte	PATT
	 .word	that_persons_name_is_5_067
@ 178   ----------------------------------------
	.byte	PATT
	 .word	that_persons_name_is_5_068
@ 179   ----------------------------------------
	.byte	PATT
	 .word	that_persons_name_is_5_069
@ 180   ----------------------------------------
	.byte	PATT
	 .word	that_persons_name_is_5_078
@ 181   ----------------------------------------
	.byte	PATT
	 .word	that_persons_name_is_5_079
@ 182   ----------------------------------------
	.byte	PATT
	 .word	that_persons_name_is_5_080
@ 183   ----------------------------------------
	.byte	PATT
	 .word	that_persons_name_is_5_081
@ 184   ----------------------------------------
	.byte	PATT
	 .word	that_persons_name_is_5_082
@ 185   ----------------------------------------
	.byte	W96
@ 186   ----------------------------------------
	.byte	W96
@ 187   ----------------------------------------
	.byte	W96
@ 188   ----------------------------------------
	.byte	W96
@ 189   ----------------------------------------
	.byte	W96
@ 190   ----------------------------------------
	.byte	W96
@ 191   ----------------------------------------
	.byte	W96
@ 192   ----------------------------------------
	.byte	W96
@ 193   ----------------------------------------
	.byte	W96
@ 194   ----------------------------------------
	.byte	W96
@ 195   ----------------------------------------
	.byte	W96
@ 196   ----------------------------------------
	.byte	W96
@ 197   ----------------------------------------
	.byte	W96
@ 198   ----------------------------------------
	.byte	W96
@ 199   ----------------------------------------
	.byte	W96
@ 200   ----------------------------------------
	.byte	W96
@ 201   ----------------------------------------
	.byte	W96
@ 202   ----------------------------------------
	.byte	W96
@ 203   ----------------------------------------
	.byte	W96
@ 204   ----------------------------------------
	.byte	W96
@ 205   ----------------------------------------
	.byte	W96
@ 206   ----------------------------------------
	.byte	W96
@ 207   ----------------------------------------
	.byte	PATT
	 .word	that_persons_name_is_5_105
@ 208   ----------------------------------------
	.byte	PATT
	 .word	that_persons_name_is_5_106
@ 209   ----------------------------------------
	.byte	PATT
	 .word	that_persons_name_is_5_107
@ 210   ----------------------------------------
	.byte	PATT
	 .word	that_persons_name_is_5_108
@ 211   ----------------------------------------
	.byte	W96
@ 212   ----------------------------------------
	.byte	W36
	.byte	GOTO
	 .word	that_persons_name_is_5_B1
that_persons_name_is_5_B2:
	.byte	FINE

@**************** Track 6 (Midi-Chn.8) ****************@

that_persons_name_is_6:
	.byte	KEYSH , that_persons_name_is_key+0
that_persons_name_is_6_B1:
@ 000   ----------------------------------------
	.byte		VOICE , 91
	.byte		VOL   , 115*that_persons_name_is_mvl/mxv
	.byte		PAN   , c_v+0
	.byte	W96
@ 001   ----------------------------------------
	.byte	W96
@ 002   ----------------------------------------
	.byte	W96
@ 003   ----------------------------------------
	.byte	W96
@ 004   ----------------------------------------
	.byte	W96
@ 005   ----------------------------------------
	.byte	W96
@ 006   ----------------------------------------
	.byte	W96
@ 007   ----------------------------------------
	.byte	W96
@ 008   ----------------------------------------
	.byte		N05   , An3 , v127
	.byte	W06
	.byte		        Bn3 
	.byte	W06
	.byte		N32   , Cn4 
	.byte	W36
	.byte		N05   , Bn3 
	.byte	W06
	.byte		        An3 
	.byte	W06
	.byte		N23   , Bn3 
	.byte	W24
	.byte		        Gn3 
	.byte	W12
@ 009   ----------------------------------------
that_persons_name_is_6_009:
	.byte	W12
	.byte		N17   , An3 , v127
	.byte	W18
	.byte		        Bn3 
	.byte	W18
	.byte		N11   , An3 
	.byte	W12
	.byte		N32   , En3 
	.byte	W36
	.byte	PEND
@ 010   ----------------------------------------
that_persons_name_is_6_010:
	.byte		N05   , Dn3 , v127
	.byte	W06
	.byte		        En3 
	.byte	W06
	.byte		N32   , Fn3 
	.byte	W36
	.byte		N05   , Gn3 
	.byte	W06
	.byte		        An3 
	.byte	W06
	.byte		N17   , Bn3 
	.byte	W18
	.byte		        Cn4 
	.byte	W18
	.byte	PEND
@ 011   ----------------------------------------
that_persons_name_is_6_011:
	.byte		N11   , Dn4 , v127
	.byte	W12
	.byte		N32   , En4 
	.byte	W36
	.byte		N11   , Gn3 
	.byte	W12
	.byte		N32   , Gn4 
	.byte	W36
	.byte	PEND
@ 012   ----------------------------------------
that_persons_name_is_6_012:
	.byte		N05   , Fn4 , v127
	.byte	W06
	.byte		        En4 
	.byte	W06
	.byte		N17   , Dn4 
	.byte	W18
	.byte		        En4 
	.byte	W18
	.byte		N11   , Dn4 
	.byte	W12
	.byte		N44   , Bn3 
	.byte	W36
	.byte	PEND
@ 013   ----------------------------------------
that_persons_name_is_6_013:
	.byte	W12
	.byte		N17   , Cn4 , v127
	.byte	W18
	.byte		        Dn4 
	.byte	W18
	.byte		N11   , En4 
	.byte	W12
	.byte		N44   , An3 
	.byte	W36
	.byte	PEND
@ 014   ----------------------------------------
that_persons_name_is_6_014:
	.byte	W12
	.byte		N17   , Bn3 , v127
	.byte	W18
	.byte		N17   
	.byte	W18
	.byte		N17   
	.byte	W24
	.byte		N11   , An3 
	.byte	W12
	.byte		N05   , Gn3 
	.byte	W12
	.byte	PEND
@ 015   ----------------------------------------
that_persons_name_is_6_015:
	.byte		N05   , Fn3 , v127
	.byte	W12
	.byte		N08   , En3 
	.byte	W84
	.byte	PEND
@ 016   ----------------------------------------
	.byte	W96
@ 017   ----------------------------------------
	.byte	W96
@ 018   ----------------------------------------
	.byte	W96
@ 019   ----------------------------------------
	.byte	W96
@ 020   ----------------------------------------
	.byte	W96
@ 021   ----------------------------------------
	.byte	W96
@ 022   ----------------------------------------
	.byte	W96
@ 023   ----------------------------------------
	.byte	W96
@ 024   ----------------------------------------
	.byte	W96
@ 025   ----------------------------------------
	.byte	W96
@ 026   ----------------------------------------
	.byte	W96
@ 027   ----------------------------------------
	.byte	W96
@ 028   ----------------------------------------
	.byte	W96
@ 029   ----------------------------------------
	.byte	W96
@ 030   ----------------------------------------
	.byte	W96
@ 031   ----------------------------------------
	.byte	W96
@ 032   ----------------------------------------
	.byte	W96
@ 033   ----------------------------------------
that_persons_name_is_6_033:
	.byte	W24
	.byte		N23   , Cn4 , v127
	.byte	W24
	.byte		N05   , Bn3 
	.byte	W06
	.byte		        An3 
	.byte	W06
	.byte		N23   , Bn3 
	.byte	W24
	.byte		        Gn3 
	.byte	W12
	.byte	PEND
@ 034   ----------------------------------------
	.byte	PATT
	 .word	that_persons_name_is_6_009
@ 035   ----------------------------------------
	.byte	PATT
	 .word	that_persons_name_is_6_010
@ 036   ----------------------------------------
	.byte	PATT
	 .word	that_persons_name_is_6_011
@ 037   ----------------------------------------
that_persons_name_is_6_037:
	.byte		N05   , Fn4 , v127
	.byte	W06
	.byte		        En4 
	.byte	W06
	.byte		N17   , Dn4 
	.byte	W18
	.byte		        En4 
	.byte	W18
	.byte		N11   , Dn4 
	.byte	W24
	.byte		N32   , Bn3 
	.byte	W24
	.byte	PEND
@ 038   ----------------------------------------
that_persons_name_is_6_038:
	.byte	W12
	.byte		N17   , Cn4 , v127
	.byte	W18
	.byte		        Dn4 
	.byte	W18
	.byte		N11   , En4 
	.byte	W24
	.byte		N32   , An3 
	.byte	W24
	.byte	PEND
@ 039   ----------------------------------------
	.byte	PATT
	 .word	that_persons_name_is_6_014
@ 040   ----------------------------------------
	.byte	PATT
	 .word	that_persons_name_is_6_015
@ 041   ----------------------------------------
	.byte	W96
@ 042   ----------------------------------------
	.byte	W96
@ 043   ----------------------------------------
	.byte	W96
@ 044   ----------------------------------------
	.byte	W96
@ 045   ----------------------------------------
	.byte	W96
@ 046   ----------------------------------------
	.byte	W96
@ 047   ----------------------------------------
	.byte	W96
@ 048   ----------------------------------------
	.byte	W96
@ 049   ----------------------------------------
	.byte	W96
@ 050   ----------------------------------------
	.byte	W96
@ 051   ----------------------------------------
	.byte	W96
@ 052   ----------------------------------------
	.byte	W96
@ 053   ----------------------------------------
	.byte	W96
@ 054   ----------------------------------------
	.byte	W96
@ 055   ----------------------------------------
	.byte	W96
@ 056   ----------------------------------------
	.byte	W96
@ 057   ----------------------------------------
	.byte	W96
@ 058   ----------------------------------------
	.byte	W12
	.byte		N68   , En3 , v064
	.byte	W84
@ 059   ----------------------------------------
that_persons_name_is_6_059:
	.byte	W36
	.byte		N11   , En3 , v064
	.byte	W12
	.byte		        Fs3 
	.byte	W12
	.byte		        Gn3 
	.byte	W12
	.byte		        Fs3 
	.byte	W12
	.byte		N04   
	.byte	W04
	.byte		N07   , En3 
	.byte	W08
	.byte	PEND
@ 060   ----------------------------------------
that_persons_name_is_6_060:
	.byte		N11   , Dn3 , v064
	.byte	W24
	.byte		N68   , En3 
	.byte	W72
	.byte	PEND
@ 061   ----------------------------------------
that_persons_name_is_6_061:
	.byte	W36
	.byte		N11   , En3 , v064
	.byte	W12
	.byte		        Fs3 
	.byte	W12
	.byte		        Bn2 
	.byte	W12
	.byte		        Cn3 
	.byte	W12
	.byte		N11   
	.byte	W12
	.byte	PEND
@ 062   ----------------------------------------
	.byte		        Dn3 
	.byte	W96
@ 063   ----------------------------------------
	.byte	W96
@ 064   ----------------------------------------
	.byte	W96
@ 065   ----------------------------------------
	.byte	W96
@ 066   ----------------------------------------
	.byte	W96
@ 067   ----------------------------------------
	.byte	W96
@ 068   ----------------------------------------
	.byte	W96
@ 069   ----------------------------------------
	.byte	W96
@ 070   ----------------------------------------
	.byte	W96
@ 071   ----------------------------------------
	.byte	W96
@ 072   ----------------------------------------
	.byte	W96
@ 073   ----------------------------------------
	.byte	W96
@ 074   ----------------------------------------
	.byte	W96
@ 075   ----------------------------------------
	.byte	W96
@ 076   ----------------------------------------
	.byte	W96
@ 077   ----------------------------------------
	.byte	W96
@ 078   ----------------------------------------
	.byte	W96
@ 079   ----------------------------------------
	.byte	W96
@ 080   ----------------------------------------
	.byte	W96
@ 081   ----------------------------------------
	.byte	W96
@ 082   ----------------------------------------
	.byte	W96
@ 083   ----------------------------------------
	.byte	W96
@ 084   ----------------------------------------
	.byte	W96
@ 085   ----------------------------------------
	.byte	W96
@ 086   ----------------------------------------
	.byte	W96
@ 087   ----------------------------------------
	.byte	W96
@ 088   ----------------------------------------
	.byte	W96
@ 089   ----------------------------------------
	.byte	W96
@ 090   ----------------------------------------
	.byte	W96
@ 091   ----------------------------------------
	.byte	W96
@ 092   ----------------------------------------
	.byte	W96
@ 093   ----------------------------------------
	.byte	W96
@ 094   ----------------------------------------
	.byte	W96
@ 095   ----------------------------------------
	.byte	W96
@ 096   ----------------------------------------
	.byte	W96
@ 097   ----------------------------------------
	.byte	W96
@ 098   ----------------------------------------
	.byte	W96
@ 099   ----------------------------------------
	.byte	W96
@ 100   ----------------------------------------
	.byte	W96
@ 101   ----------------------------------------
	.byte	W96
@ 102   ----------------------------------------
	.byte	W96
@ 103   ----------------------------------------
	.byte	W96
@ 104   ----------------------------------------
	.byte	W96
@ 105   ----------------------------------------
	.byte	W96
@ 106   ----------------------------------------
	.byte	W96
@ 107   ----------------------------------------
	.byte	W96
@ 108   ----------------------------------------
	.byte	W96
@ 109   ----------------------------------------
	.byte	W96
@ 110   ----------------------------------------
	.byte	W12
	.byte		N32   , Cn4 , v127
	.byte	W36
	.byte		N05   , Bn3 
	.byte	W06
	.byte		        An3 
	.byte	W06
	.byte		N23   , Bn3 
	.byte	W24
	.byte		        Gn3 
	.byte	W12
@ 111   ----------------------------------------
	.byte	PATT
	 .word	that_persons_name_is_6_009
@ 112   ----------------------------------------
	.byte	PATT
	 .word	that_persons_name_is_6_010
@ 113   ----------------------------------------
	.byte	PATT
	 .word	that_persons_name_is_6_011
@ 114   ----------------------------------------
	.byte	PATT
	 .word	that_persons_name_is_6_012
@ 115   ----------------------------------------
	.byte	PATT
	 .word	that_persons_name_is_6_013
@ 116   ----------------------------------------
	.byte	PATT
	 .word	that_persons_name_is_6_014
@ 117   ----------------------------------------
	.byte	PATT
	 .word	that_persons_name_is_6_015
@ 118   ----------------------------------------
	.byte	W96
@ 119   ----------------------------------------
	.byte	W96
@ 120   ----------------------------------------
	.byte	W96
@ 121   ----------------------------------------
	.byte	W96
@ 122   ----------------------------------------
	.byte	W96
@ 123   ----------------------------------------
	.byte	W96
@ 124   ----------------------------------------
	.byte	W96
@ 125   ----------------------------------------
	.byte	W96
@ 126   ----------------------------------------
	.byte	W96
@ 127   ----------------------------------------
	.byte	W96
@ 128   ----------------------------------------
	.byte	W96
@ 129   ----------------------------------------
	.byte	W96
@ 130   ----------------------------------------
	.byte	W96
@ 131   ----------------------------------------
	.byte	W96
@ 132   ----------------------------------------
	.byte	W96
@ 133   ----------------------------------------
	.byte	W96
@ 134   ----------------------------------------
	.byte	W96
@ 135   ----------------------------------------
	.byte	PATT
	 .word	that_persons_name_is_6_033
@ 136   ----------------------------------------
	.byte	PATT
	 .word	that_persons_name_is_6_009
@ 137   ----------------------------------------
	.byte	PATT
	 .word	that_persons_name_is_6_010
@ 138   ----------------------------------------
	.byte	PATT
	 .word	that_persons_name_is_6_011
@ 139   ----------------------------------------
	.byte	PATT
	 .word	that_persons_name_is_6_037
@ 140   ----------------------------------------
	.byte	PATT
	 .word	that_persons_name_is_6_038
@ 141   ----------------------------------------
	.byte	PATT
	 .word	that_persons_name_is_6_014
@ 142   ----------------------------------------
	.byte	PATT
	 .word	that_persons_name_is_6_015
@ 143   ----------------------------------------
	.byte	W96
@ 144   ----------------------------------------
	.byte	W96
@ 145   ----------------------------------------
	.byte	W96
@ 146   ----------------------------------------
	.byte	W96
@ 147   ----------------------------------------
	.byte	W96
@ 148   ----------------------------------------
	.byte	W96
@ 149   ----------------------------------------
	.byte	W96
@ 150   ----------------------------------------
	.byte	W96
@ 151   ----------------------------------------
	.byte	W96
@ 152   ----------------------------------------
	.byte	W96
@ 153   ----------------------------------------
	.byte	W96
@ 154   ----------------------------------------
	.byte	W96
@ 155   ----------------------------------------
	.byte	W96
@ 156   ----------------------------------------
	.byte	W96
@ 157   ----------------------------------------
	.byte	W96
@ 158   ----------------------------------------
	.byte	W96
@ 159   ----------------------------------------
	.byte	W96
@ 160   ----------------------------------------
	.byte	W12
	.byte		N68   , En3 , v064
	.byte	W84
@ 161   ----------------------------------------
	.byte	PATT
	 .word	that_persons_name_is_6_059
@ 162   ----------------------------------------
	.byte	PATT
	 .word	that_persons_name_is_6_060
@ 163   ----------------------------------------
	.byte	PATT
	 .word	that_persons_name_is_6_061
@ 164   ----------------------------------------
	.byte		N11   , Dn3 , v064
	.byte	W96
@ 165   ----------------------------------------
	.byte	W96
@ 166   ----------------------------------------
	.byte	W96
@ 167   ----------------------------------------
	.byte	W96
@ 168   ----------------------------------------
	.byte	W96
@ 169   ----------------------------------------
	.byte	W96
@ 170   ----------------------------------------
	.byte	W96
@ 171   ----------------------------------------
	.byte	W96
@ 172   ----------------------------------------
	.byte	W96
@ 173   ----------------------------------------
	.byte	W96
@ 174   ----------------------------------------
	.byte	W96
@ 175   ----------------------------------------
	.byte	W96
@ 176   ----------------------------------------
	.byte	W96
@ 177   ----------------------------------------
	.byte	W96
@ 178   ----------------------------------------
	.byte	W96
@ 179   ----------------------------------------
	.byte	W96
@ 180   ----------------------------------------
	.byte	W96
@ 181   ----------------------------------------
	.byte	W96
@ 182   ----------------------------------------
	.byte	W96
@ 183   ----------------------------------------
	.byte	W96
@ 184   ----------------------------------------
	.byte	W96
@ 185   ----------------------------------------
	.byte	W96
@ 186   ----------------------------------------
	.byte	W96
@ 187   ----------------------------------------
	.byte	W96
@ 188   ----------------------------------------
	.byte	W96
@ 189   ----------------------------------------
	.byte	W96
@ 190   ----------------------------------------
	.byte	W96
@ 191   ----------------------------------------
	.byte	W96
@ 192   ----------------------------------------
	.byte	W96
@ 193   ----------------------------------------
	.byte	W96
@ 194   ----------------------------------------
	.byte	W96
@ 195   ----------------------------------------
	.byte	W96
@ 196   ----------------------------------------
	.byte	W96
@ 197   ----------------------------------------
	.byte	W96
@ 198   ----------------------------------------
	.byte	W96
@ 199   ----------------------------------------
	.byte	W96
@ 200   ----------------------------------------
	.byte	W96
@ 201   ----------------------------------------
	.byte	W96
@ 202   ----------------------------------------
	.byte	W96
@ 203   ----------------------------------------
	.byte	W96
@ 204   ----------------------------------------
	.byte	W96
@ 205   ----------------------------------------
	.byte	W96
@ 206   ----------------------------------------
	.byte	W96
@ 207   ----------------------------------------
	.byte	W96
@ 208   ----------------------------------------
	.byte	W96
@ 209   ----------------------------------------
	.byte	W96
@ 210   ----------------------------------------
	.byte	W96
@ 211   ----------------------------------------
	.byte	W96
@ 212   ----------------------------------------
	.byte	W36
	.byte	GOTO
	 .word	that_persons_name_is_6_B1
that_persons_name_is_6_B2:
	.byte	FINE

@**************** Track 7 (Midi-Chn.9) ****************@

that_persons_name_is_7:
	.byte	KEYSH , that_persons_name_is_key+0
that_persons_name_is_7_B1:
@ 000   ----------------------------------------
	.byte		VOICE , 40
	.byte		VOL   , 100*that_persons_name_is_mvl/mxv
	.byte		PAN   , c_v+0
	.byte	W96
@ 001   ----------------------------------------
	.byte	W96
@ 002   ----------------------------------------
	.byte	W96
@ 003   ----------------------------------------
	.byte	W96
@ 004   ----------------------------------------
	.byte	W96
@ 005   ----------------------------------------
	.byte	W96
@ 006   ----------------------------------------
	.byte	W96
@ 007   ----------------------------------------
	.byte	W96
@ 008   ----------------------------------------
	.byte	W96
@ 009   ----------------------------------------
	.byte	W96
@ 010   ----------------------------------------
	.byte	W96
@ 011   ----------------------------------------
	.byte	W96
@ 012   ----------------------------------------
	.byte	W96
@ 013   ----------------------------------------
	.byte	W96
@ 014   ----------------------------------------
	.byte	W96
@ 015   ----------------------------------------
	.byte	W96
@ 016   ----------------------------------------
	.byte	W96
@ 017   ----------------------------------------
	.byte	W96
@ 018   ----------------------------------------
	.byte	W96
@ 019   ----------------------------------------
	.byte	W96
@ 020   ----------------------------------------
	.byte	W96
@ 021   ----------------------------------------
	.byte	W96
@ 022   ----------------------------------------
	.byte	W96
@ 023   ----------------------------------------
	.byte	W96
@ 024   ----------------------------------------
	.byte	W96
@ 025   ----------------------------------------
	.byte	W96
@ 026   ----------------------------------------
	.byte	W96
@ 027   ----------------------------------------
	.byte	W96
@ 028   ----------------------------------------
	.byte	W96
@ 029   ----------------------------------------
	.byte	W96
@ 030   ----------------------------------------
	.byte	W96
@ 031   ----------------------------------------
	.byte	W96
@ 032   ----------------------------------------
	.byte	W96
@ 033   ----------------------------------------
	.byte	W96
@ 034   ----------------------------------------
	.byte	W96
@ 035   ----------------------------------------
	.byte	W96
@ 036   ----------------------------------------
	.byte	W96
@ 037   ----------------------------------------
	.byte	W96
@ 038   ----------------------------------------
	.byte	W96
@ 039   ----------------------------------------
	.byte	W96
@ 040   ----------------------------------------
	.byte	W96
@ 041   ----------------------------------------
	.byte	W96
@ 042   ----------------------------------------
	.byte	W96
@ 043   ----------------------------------------
	.byte	W96
@ 044   ----------------------------------------
	.byte	W96
@ 045   ----------------------------------------
	.byte	W96
@ 046   ----------------------------------------
	.byte	W96
@ 047   ----------------------------------------
	.byte	W96
@ 048   ----------------------------------------
	.byte	W96
@ 049   ----------------------------------------
	.byte	W96
@ 050   ----------------------------------------
	.byte	W96
@ 051   ----------------------------------------
	.byte	W96
@ 052   ----------------------------------------
	.byte	W96
@ 053   ----------------------------------------
	.byte	W96
@ 054   ----------------------------------------
	.byte	W96
@ 055   ----------------------------------------
	.byte	W96
@ 056   ----------------------------------------
	.byte	W96
@ 057   ----------------------------------------
	.byte	W96
@ 058   ----------------------------------------
	.byte	W96
@ 059   ----------------------------------------
	.byte	W96
@ 060   ----------------------------------------
	.byte	W96
@ 061   ----------------------------------------
	.byte	W96
@ 062   ----------------------------------------
	.byte	W96
@ 063   ----------------------------------------
	.byte	W96
@ 064   ----------------------------------------
	.byte	W96
@ 065   ----------------------------------------
	.byte	W96
@ 066   ----------------------------------------
	.byte	W96
@ 067   ----------------------------------------
	.byte	W96
@ 068   ----------------------------------------
	.byte	W96
@ 069   ----------------------------------------
	.byte	W96
@ 070   ----------------------------------------
	.byte	W96
@ 071   ----------------------------------------
	.byte	W96
@ 072   ----------------------------------------
	.byte	W96
@ 073   ----------------------------------------
	.byte	W96
@ 074   ----------------------------------------
	.byte	W96
@ 075   ----------------------------------------
	.byte	W96
@ 076   ----------------------------------------
	.byte	W96
@ 077   ----------------------------------------
	.byte	W96
@ 078   ----------------------------------------
	.byte	W96
@ 079   ----------------------------------------
	.byte	W96
@ 080   ----------------------------------------
	.byte	W96
@ 081   ----------------------------------------
	.byte	W96
@ 082   ----------------------------------------
	.byte	W96
@ 083   ----------------------------------------
	.byte	W96
@ 084   ----------------------------------------
	.byte	W96
@ 085   ----------------------------------------
	.byte	W96
@ 086   ----------------------------------------
	.byte	W96
@ 087   ----------------------------------------
	.byte	W96
@ 088   ----------------------------------------
	.byte	W96
@ 089   ----------------------------------------
	.byte	W96
@ 090   ----------------------------------------
	.byte	W96
@ 091   ----------------------------------------
	.byte	W96
@ 092   ----------------------------------------
	.byte	W96
@ 093   ----------------------------------------
	.byte	W96
@ 094   ----------------------------------------
	.byte	W96
@ 095   ----------------------------------------
	.byte	W96
@ 096   ----------------------------------------
	.byte	W96
@ 097   ----------------------------------------
	.byte	W96
@ 098   ----------------------------------------
	.byte	W96
@ 099   ----------------------------------------
that_persons_name_is_7_099:
	.byte	W12
	.byte		N05   , As4 , v096
	.byte	W06
	.byte		        Fn4 
	.byte	W06
	.byte		        Cs4 
	.byte	W06
	.byte		        Fn4 
	.byte	W06
	.byte		        As3 
	.byte	W06
	.byte		        Fn4 
	.byte	W06
	.byte		        As4 
	.byte	W06
	.byte		        Fn4 
	.byte	W06
	.byte		        An4 
	.byte	W06
	.byte		        Fn4 
	.byte	W06
	.byte		        Cn4 
	.byte	W06
	.byte		        Fn4 
	.byte	W06
	.byte		        An3 
	.byte	W06
	.byte		        Fn4 
	.byte	W06
	.byte	PEND
@ 100   ----------------------------------------
that_persons_name_is_7_100:
	.byte		N05   , An4 , v096
	.byte	W06
	.byte		        Fn4 
	.byte	W06
	.byte		        As4 
	.byte	W06
	.byte		        Fn4 
	.byte	W06
	.byte		        Cs4 
	.byte	W06
	.byte		        Fn4 
	.byte	W06
	.byte		        As3 
	.byte	W06
	.byte		        Fn4 
	.byte	W06
	.byte		        As4 
	.byte	W06
	.byte		        Fn4 
	.byte	W06
	.byte		        Cn5 
	.byte	W06
	.byte		        Ds4 
	.byte	W06
	.byte		        As4 
	.byte	W06
	.byte		        Cn4 
	.byte	W06
	.byte		        Gs4 
	.byte	W06
	.byte		        Gs3 
	.byte	W06
	.byte	PEND
@ 101   ----------------------------------------
that_persons_name_is_7_101:
	.byte		N05   , Cn5 , v096
	.byte	W06
	.byte		        Ds4 
	.byte	W06
	.byte		        Cs5 
	.byte	W06
	.byte		        Gs4 
	.byte	W06
	.byte		        En4 
	.byte	W06
	.byte		        Gs4 
	.byte	W06
	.byte		        Cs4 
	.byte	W06
	.byte		        Gs4 
	.byte	W06
	.byte		        Cs5 
	.byte	W06
	.byte		        Gs4 
	.byte	W06
	.byte		        Cn5 
	.byte	W06
	.byte		        Gs4 
	.byte	W06
	.byte		        Ds4 
	.byte	W06
	.byte		        Gs4 
	.byte	W06
	.byte		        Cn4 
	.byte	W06
	.byte		        Gs4 
	.byte	W06
	.byte	PEND
@ 102   ----------------------------------------
that_persons_name_is_7_102:
	.byte		N05   , Cn5 , v096
	.byte	W06
	.byte		        Gs4 
	.byte	W06
	.byte		        Cs5 
	.byte	W06
	.byte		        Gs4 
	.byte	W06
	.byte		        En4 
	.byte	W06
	.byte		        Gs4 
	.byte	W06
	.byte		        Cs4 
	.byte	W06
	.byte		        Gs4 
	.byte	W06
	.byte		        Cs5 
	.byte	W06
	.byte		        Gs4 
	.byte	W06
	.byte		        Dn5 
	.byte	W06
	.byte		        Gn4 
	.byte	W06
	.byte		        Bn4 
	.byte	W06
	.byte		        Ds4 
	.byte	W06
	.byte		        As4 
	.byte	W06
	.byte		        Fn4 
	.byte	W06
	.byte	PEND
@ 103   ----------------------------------------
that_persons_name_is_7_103:
	.byte		N05   , Dn5 , v096
	.byte	W06
	.byte		        Gn4 
	.byte	W06
	.byte		        Ds5 
	.byte	W06
	.byte		        As4 
	.byte	W06
	.byte		        Fs4 
	.byte	W06
	.byte		        As4 
	.byte	W06
	.byte		        Ds4 
	.byte	W06
	.byte		        As4 
	.byte	W06
	.byte		        Ds5 
	.byte	W06
	.byte		        As4 
	.byte	W06
	.byte		        Dn5 
	.byte	W06
	.byte		        As4 
	.byte	W06
	.byte		        Fn4 
	.byte	W06
	.byte		        As4 
	.byte	W06
	.byte		        Dn4 
	.byte	W06
	.byte		        As4 
	.byte	W06
	.byte	PEND
@ 104   ----------------------------------------
that_persons_name_is_7_104:
	.byte		N05   , Dn5 , v096
	.byte	W06
	.byte		        As4 
	.byte	W06
	.byte		        Ds5 
	.byte	W06
	.byte		        As4 
	.byte	W06
	.byte		        Fs4 
	.byte	W06
	.byte		        As4 
	.byte	W06
	.byte		        Ds4 
	.byte	W06
	.byte		        As4 
	.byte	W06
	.byte		        Ds5 
	.byte	W06
	.byte		        As4 
	.byte	W06
	.byte		        En5 
	.byte	W06
	.byte		        An4 
	.byte	W06
	.byte		        Cs5 
	.byte	W06
	.byte		        Fn4 
	.byte	W06
	.byte		        Cn5 
	.byte	W06
	.byte		        Gn4 
	.byte	W06
	.byte	PEND
@ 105   ----------------------------------------
that_persons_name_is_7_105:
	.byte		N05   , En5 , v096
	.byte	W06
	.byte		        An4 
	.byte	W06
	.byte		        As2 
	.byte	W06
	.byte		        Cn3 
	.byte	W06
	.byte		        Cs3 
	.byte	W06
	.byte		        Ds3 
	.byte	W06
	.byte		        Fn3 
	.byte	W06
	.byte		        Gn3 
	.byte	W06
	.byte		        Gs3 
	.byte	W06
	.byte		        As3 
	.byte	W06
	.byte		        Fn4 
	.byte	W06
	.byte		        Cs4 
	.byte	W06
	.byte		N05   
	.byte	W06
	.byte		        As3 
	.byte	W06
	.byte		        Fn3 
	.byte	W06
	.byte		        As3 
	.byte	W06
	.byte	PEND
@ 106   ----------------------------------------
that_persons_name_is_7_106:
	.byte		N05   , Cs4 , v096
	.byte	W06
	.byte		        Fn4 
	.byte	W06
	.byte		        As2 
	.byte	W06
	.byte		        Cn3 
	.byte	W06
	.byte		        Cs3 
	.byte	W06
	.byte		        Ds3 
	.byte	W06
	.byte		        Fn3 
	.byte	W06
	.byte		        Gn3 
	.byte	W06
	.byte		        Gs3 
	.byte	W06
	.byte		        As3 
	.byte	W06
	.byte		        Fn4 
	.byte	W06
	.byte		        Cs4 
	.byte	W06
	.byte		N05   
	.byte	W06
	.byte		        As3 
	.byte	W06
	.byte		        Fn3 
	.byte	W06
	.byte		        As3 
	.byte	W06
	.byte	PEND
@ 107   ----------------------------------------
	.byte	PATT
	 .word	that_persons_name_is_7_106
@ 108   ----------------------------------------
that_persons_name_is_7_108:
	.byte		N05   , Cs4 , v096
	.byte	W06
	.byte		        Fn4 
	.byte	W06
	.byte		        As2 
	.byte	W06
	.byte		        Cn3 
	.byte	W06
	.byte		        Cs3 
	.byte	W06
	.byte		        Ds3 
	.byte	W06
	.byte		        Fn3 
	.byte	W06
	.byte		        Gn3 
	.byte	W06
	.byte		        Gs3 
	.byte	W06
	.byte		        As3 
	.byte	W06
	.byte		N17   , Fn4 
	.byte	W36
	.byte	PEND
@ 109   ----------------------------------------
	.byte	W96
@ 110   ----------------------------------------
	.byte	W96
@ 111   ----------------------------------------
	.byte	W96
@ 112   ----------------------------------------
	.byte	W96
@ 113   ----------------------------------------
	.byte	W96
@ 114   ----------------------------------------
	.byte	W96
@ 115   ----------------------------------------
	.byte	W96
@ 116   ----------------------------------------
	.byte	W96
@ 117   ----------------------------------------
	.byte	W96
@ 118   ----------------------------------------
	.byte	W96
@ 119   ----------------------------------------
	.byte	W96
@ 120   ----------------------------------------
	.byte	W96
@ 121   ----------------------------------------
	.byte	W96
@ 122   ----------------------------------------
	.byte	W96
@ 123   ----------------------------------------
	.byte	W96
@ 124   ----------------------------------------
	.byte	W96
@ 125   ----------------------------------------
	.byte	W96
@ 126   ----------------------------------------
	.byte	W96
@ 127   ----------------------------------------
	.byte	W96
@ 128   ----------------------------------------
	.byte	W96
@ 129   ----------------------------------------
	.byte	W96
@ 130   ----------------------------------------
	.byte	W96
@ 131   ----------------------------------------
	.byte	W96
@ 132   ----------------------------------------
	.byte	W96
@ 133   ----------------------------------------
	.byte	W96
@ 134   ----------------------------------------
	.byte	W96
@ 135   ----------------------------------------
	.byte	W96
@ 136   ----------------------------------------
	.byte	W96
@ 137   ----------------------------------------
	.byte	W96
@ 138   ----------------------------------------
	.byte	W96
@ 139   ----------------------------------------
	.byte	W96
@ 140   ----------------------------------------
	.byte	W96
@ 141   ----------------------------------------
	.byte	W96
@ 142   ----------------------------------------
	.byte	W96
@ 143   ----------------------------------------
	.byte	W96
@ 144   ----------------------------------------
	.byte	W96
@ 145   ----------------------------------------
	.byte	W96
@ 146   ----------------------------------------
	.byte	W96
@ 147   ----------------------------------------
	.byte	W96
@ 148   ----------------------------------------
	.byte	W96
@ 149   ----------------------------------------
	.byte	W96
@ 150   ----------------------------------------
	.byte	W96
@ 151   ----------------------------------------
	.byte	W96
@ 152   ----------------------------------------
	.byte	W96
@ 153   ----------------------------------------
	.byte	W96
@ 154   ----------------------------------------
	.byte	W96
@ 155   ----------------------------------------
	.byte	W96
@ 156   ----------------------------------------
	.byte	W96
@ 157   ----------------------------------------
	.byte	W96
@ 158   ----------------------------------------
	.byte	W96
@ 159   ----------------------------------------
	.byte	W96
@ 160   ----------------------------------------
	.byte	W96
@ 161   ----------------------------------------
	.byte	W96
@ 162   ----------------------------------------
	.byte	W96
@ 163   ----------------------------------------
	.byte	W96
@ 164   ----------------------------------------
	.byte	W96
@ 165   ----------------------------------------
	.byte	W96
@ 166   ----------------------------------------
	.byte	W96
@ 167   ----------------------------------------
	.byte	W96
@ 168   ----------------------------------------
	.byte	W96
@ 169   ----------------------------------------
	.byte	W96
@ 170   ----------------------------------------
	.byte	W96
@ 171   ----------------------------------------
	.byte	W96
@ 172   ----------------------------------------
	.byte	W96
@ 173   ----------------------------------------
	.byte	W96
@ 174   ----------------------------------------
	.byte	W96
@ 175   ----------------------------------------
	.byte	W96
@ 176   ----------------------------------------
	.byte	W96
@ 177   ----------------------------------------
	.byte	W96
@ 178   ----------------------------------------
	.byte	W96
@ 179   ----------------------------------------
	.byte	W96
@ 180   ----------------------------------------
	.byte	W96
@ 181   ----------------------------------------
	.byte	W96
@ 182   ----------------------------------------
	.byte	W96
@ 183   ----------------------------------------
	.byte	W96
@ 184   ----------------------------------------
	.byte	W96
@ 185   ----------------------------------------
	.byte	W96
@ 186   ----------------------------------------
	.byte	W96
@ 187   ----------------------------------------
	.byte	W96
@ 188   ----------------------------------------
	.byte	W96
@ 189   ----------------------------------------
	.byte	W96
@ 190   ----------------------------------------
	.byte	W96
@ 191   ----------------------------------------
	.byte	W96
@ 192   ----------------------------------------
	.byte	W96
@ 193   ----------------------------------------
	.byte	W96
@ 194   ----------------------------------------
	.byte	W96
@ 195   ----------------------------------------
	.byte	W96
@ 196   ----------------------------------------
	.byte	W96
@ 197   ----------------------------------------
	.byte	W96
@ 198   ----------------------------------------
	.byte	W96
@ 199   ----------------------------------------
	.byte	W96
@ 200   ----------------------------------------
	.byte	W96
@ 201   ----------------------------------------
	.byte	PATT
	 .word	that_persons_name_is_7_099
@ 202   ----------------------------------------
	.byte	PATT
	 .word	that_persons_name_is_7_100
@ 203   ----------------------------------------
	.byte	PATT
	 .word	that_persons_name_is_7_101
@ 204   ----------------------------------------
	.byte	PATT
	 .word	that_persons_name_is_7_102
@ 205   ----------------------------------------
	.byte	PATT
	 .word	that_persons_name_is_7_103
@ 206   ----------------------------------------
	.byte	PATT
	 .word	that_persons_name_is_7_104
@ 207   ----------------------------------------
	.byte	PATT
	 .word	that_persons_name_is_7_105
@ 208   ----------------------------------------
	.byte	PATT
	 .word	that_persons_name_is_7_106
@ 209   ----------------------------------------
	.byte	PATT
	 .word	that_persons_name_is_7_106
@ 210   ----------------------------------------
	.byte	PATT
	 .word	that_persons_name_is_7_108
@ 211   ----------------------------------------
	.byte	W96
@ 212   ----------------------------------------
	.byte	W36
	.byte	GOTO
	 .word	that_persons_name_is_7_B1
that_persons_name_is_7_B2:
	.byte	FINE

@**************** Track 8 (Midi-Chn.10) ****************@

that_persons_name_is_8:
	.byte	KEYSH , that_persons_name_is_key+0
that_persons_name_is_8_B1:
@ 000   ----------------------------------------
	.byte		VOICE , 122
	.byte		VOL   , 127*that_persons_name_is_mvl/mxv
	.byte		PAN   , c_v+0
	.byte		        c_v+0
	.byte		        c_v+0
	.byte		N11   , As1 , v052
	.byte	W12
	.byte		N23   , Cn1 , v096
	.byte		N23   , An1 
	.byte		N44   , Cs2 , v052
	.byte	W48
	.byte		N23   , Cn1 , v096
	.byte		N23   , An1 
	.byte		N44   , Cs2 , v052
	.byte	W36
@ 001   ----------------------------------------
that_persons_name_is_8_001:
	.byte	W12
	.byte		N23   , Cn1 , v096
	.byte		N23   , An1 
	.byte		N44   , As1 , v052
	.byte	W48
	.byte		N23   , Cn1 , v096
	.byte		N23   , An1 
	.byte		N44   , En2 , v052
	.byte	W36
	.byte	PEND
@ 002   ----------------------------------------
	.byte	W12
	.byte		N23   , Cn1 , v096
	.byte		N23   , An1 
	.byte		N23   , As1 , v052
	.byte	W24
	.byte		N23   
	.byte	W24
	.byte		N23   
	.byte	W24
	.byte		        Cn1 , v096
	.byte		N23   , An1 
	.byte		N23   , As1 , v052
	.byte	W12
@ 003   ----------------------------------------
	.byte	W12
	.byte		        Cn1 , v096
	.byte		N23   , An1 
	.byte		N23   , As1 , v052
	.byte	W24
	.byte		N23   
	.byte	W24
	.byte		        Cn1 , v096
	.byte		N23   , An1 
	.byte		N23   , As1 , v052
	.byte	W24
	.byte		        Cn1 , v096
	.byte		N23   , An1 
	.byte		N23   , As1 , v052
	.byte	W12
@ 004   ----------------------------------------
	.byte	W12
	.byte		N44   , Cn1 , v096
	.byte		N23   , An1 
	.byte		N44   , Cs2 , v052
	.byte	W48
	.byte		N23   , Cn1 , v096
	.byte		N23   , An1 
	.byte		N44   , Cs2 , v052
	.byte	W36
@ 005   ----------------------------------------
	.byte	PATT
	 .word	that_persons_name_is_8_001
@ 006   ----------------------------------------
	.byte	W12
	.byte		N23   , Cn1 , v096
	.byte		N23   , An1 
	.byte		N23   , As1 , v052
	.byte	W24
	.byte		N23   
	.byte	W24
	.byte		        Cn1 , v096
	.byte		N23   , An1 
	.byte		N23   , As1 , v052
	.byte	W24
	.byte		N23   
	.byte	W12
@ 007   ----------------------------------------
	.byte	W12
	.byte		        Cn1 , v096
	.byte		N23   , An1 
	.byte		N23   , As1 , v052
	.byte	W24
	.byte		N23   
	.byte	W24
	.byte		        Cn1 , v096
	.byte		N23   , An1 
	.byte		N23   , As1 , v052
	.byte	W24
	.byte		        Cn1 , v096
	.byte		N23   , As1 , v052
	.byte	W06
	.byte		N05   , An1 , v096
	.byte	W06
@ 008   ----------------------------------------
	.byte	W06
	.byte		N05   
	.byte	W06
	.byte		N11   , Cn1 
	.byte		N11   , Fs1 , v052
	.byte		N11   , Cs2 
	.byte	W12
	.byte		        Dn1 , v096
	.byte		N11   , Fs1 , v052
	.byte	W12
	.byte		N05   , Cn1 , v096
	.byte		N11   , As1 , v052
	.byte	W06
	.byte		N05   , Cn1 , v096
	.byte	W06
	.byte		N11   , Dn1 
	.byte		N11   , Fs1 , v052
	.byte	W12
	.byte		        Cn1 , v096
	.byte		N11   , Fs1 , v052
	.byte	W12
	.byte		        Dn1 , v096
	.byte		N23   , As1 , v052
	.byte	W12
	.byte		N11   , Cn1 , v096
	.byte	W12
@ 009   ----------------------------------------
that_persons_name_is_8_009:
	.byte		N11   , Dn1 , v096
	.byte		N11   , Fs1 , v052
	.byte	W12
	.byte		N05   , Cn1 , v096
	.byte		N11   , Fs1 , v052
	.byte	W06
	.byte		N05   , Cn1 , v096
	.byte	W06
	.byte		N11   , Dn1 
	.byte		N11   , Fs1 , v052
	.byte	W12
	.byte		N05   , Cn1 , v096
	.byte		N11   , As1 , v052
	.byte	W06
	.byte		N05   , Cn1 , v096
	.byte	W06
	.byte		N11   , Dn1 
	.byte		N11   , Fs1 , v052
	.byte	W12
	.byte		N05   , Cn1 , v096
	.byte		N11   , Fs1 , v052
	.byte	W06
	.byte		N05   , Cn1 , v096
	.byte	W06
	.byte		N11   , Dn1 
	.byte		N23   , As1 , v052
	.byte	W12
	.byte		N11   , Cn1 , v096
	.byte	W12
	.byte	PEND
@ 010   ----------------------------------------
that_persons_name_is_8_010:
	.byte		N11   , Dn1 , v096
	.byte		N11   , Fs1 , v052
	.byte	W12
	.byte		        Cn1 , v096
	.byte		N11   , Fs1 , v052
	.byte		N11   , Cs2 
	.byte	W12
	.byte		        Dn1 , v096
	.byte		N11   , Fs1 , v052
	.byte	W12
	.byte		N05   , Cn1 , v096
	.byte		N11   , As1 , v052
	.byte	W06
	.byte		N05   , Cn1 , v096
	.byte	W06
	.byte		N11   , Dn1 
	.byte		N11   , Fs1 , v052
	.byte	W12
	.byte		        Cn1 , v096
	.byte		N11   , Fs1 , v052
	.byte	W12
	.byte		        Dn1 , v096
	.byte		N23   , As1 , v052
	.byte	W12
	.byte		N11   , Cn1 , v096
	.byte	W12
	.byte	PEND
@ 011   ----------------------------------------
	.byte	PATT
	 .word	that_persons_name_is_8_009
@ 012   ----------------------------------------
	.byte	PATT
	 .word	that_persons_name_is_8_010
@ 013   ----------------------------------------
	.byte	PATT
	 .word	that_persons_name_is_8_009
@ 014   ----------------------------------------
that_persons_name_is_8_014:
	.byte		N11   , Dn1 , v096
	.byte		N11   , Fs1 , v052
	.byte	W12
	.byte		N17   , Cn1 , v096
	.byte		N17   , Cs2 , v052
	.byte	W18
	.byte		        Cn1 , v096
	.byte		N17   , Cs2 , v052
	.byte	W18
	.byte		N11   , Cn1 , v096
	.byte		N11   , Cs2 , v052
	.byte	W36
	.byte		N23   , Cn1 , v096
	.byte		N23   , En2 , v052
	.byte	W12
	.byte	PEND
@ 015   ----------------------------------------
that_persons_name_is_8_015:
	.byte	W12
	.byte		N23   , Cn1 , v052
	.byte		N23   , Cs1 , v096
	.byte	W06
	.byte		N05   , Fs1 , v052
	.byte	W06
	.byte		N05   
	.byte	W06
	.byte		N05   
	.byte	W06
	.byte		N23   , Cn1 
	.byte		N23   , Cs1 , v096
	.byte	W06
	.byte		N05   , Fs1 , v052
	.byte	W06
	.byte		N05   
	.byte	W06
	.byte		N05   
	.byte	W06
	.byte		N23   , Cn1 
	.byte	W06
	.byte		N05   , Fs1 
	.byte	W06
	.byte		N05   
	.byte	W06
	.byte		N05   
	.byte	W06
	.byte		N23   , Cn1 
	.byte	W06
	.byte		N05   , Fs1 
	.byte	W06
	.byte	PEND
@ 016   ----------------------------------------
that_persons_name_is_8_016:
	.byte		N05   , Fs1 , v052
	.byte	W06
	.byte		N05   
	.byte	W06
	.byte		N11   , Cn1 , v096
	.byte		N11   , Fs1 , v052
	.byte		N11   , Cs2 
	.byte	W12
	.byte		        Dn1 , v096
	.byte		N11   , Fs1 , v052
	.byte	W12
	.byte		N05   , Cn1 , v096
	.byte		N11   , As1 , v052
	.byte	W06
	.byte		N05   , Cn1 , v096
	.byte	W06
	.byte		N11   , Dn1 
	.byte		N11   , Fs1 , v052
	.byte	W12
	.byte		        Cn1 , v096
	.byte		N11   , Fs1 , v052
	.byte	W12
	.byte		        Dn1 , v096
	.byte		N23   , As1 , v052
	.byte	W12
	.byte		N11   , Cn1 , v096
	.byte	W12
	.byte	PEND
@ 017   ----------------------------------------
	.byte	PATT
	 .word	that_persons_name_is_8_009
@ 018   ----------------------------------------
	.byte	PATT
	 .word	that_persons_name_is_8_010
@ 019   ----------------------------------------
	.byte	PATT
	 .word	that_persons_name_is_8_009
@ 020   ----------------------------------------
	.byte	PATT
	 .word	that_persons_name_is_8_010
@ 021   ----------------------------------------
	.byte	PATT
	 .word	that_persons_name_is_8_009
@ 022   ----------------------------------------
	.byte	PATT
	 .word	that_persons_name_is_8_014
@ 023   ----------------------------------------
that_persons_name_is_8_023:
	.byte	W12
	.byte		N05   , Cn1 , v096
	.byte		N23   , As1 , v052
	.byte	W06
	.byte		N05   , Cn1 , v096
	.byte	W06
	.byte		N11   , Dn1 
	.byte	W12
	.byte		N05   , Cn1 
	.byte		N23   , As1 , v052
	.byte	W06
	.byte		N05   , Cn1 , v096
	.byte	W06
	.byte		        Dn1 
	.byte	W12
	.byte		        Cn1 
	.byte		N23   , As1 , v052
	.byte	W06
	.byte		N05   , Cn1 , v096
	.byte	W06
	.byte		N11   , Dn1 
	.byte	W12
	.byte		        Cn1 
	.byte		N23   , As1 , v052
	.byte	W12
	.byte	PEND
@ 024   ----------------------------------------
that_persons_name_is_8_024:
	.byte	W06
	.byte		N05   , Dn1 , v096
	.byte	W06
	.byte		        Cn1 
	.byte		N23   , As1 , v052
	.byte	W06
	.byte		N05   , Cn1 , v096
	.byte	W06
	.byte		N05   
	.byte		N11   , Dn1 
	.byte	W06
	.byte		N05   , Cn1 
	.byte	W06
	.byte		N05   
	.byte		N23   , As1 , v052
	.byte	W06
	.byte		N05   , Cn1 , v096
	.byte	W06
	.byte		N05   
	.byte		N11   , Dn1 
	.byte	W06
	.byte		N05   , Cn1 
	.byte	W06
	.byte		N05   
	.byte		N23   , As1 , v052
	.byte		N05   , Cn2 , v096
	.byte	W06
	.byte		        Cn1 
	.byte		N05   , Cn2 
	.byte	W06
	.byte		        Cn1 
	.byte		N05   , An1 
	.byte	W06
	.byte		        Cn1 
	.byte		N05   , Dn1 
	.byte	W06
	.byte		        Cn1 
	.byte		N23   , As1 , v052
	.byte	W06
	.byte		N05   , Cn1 , v096
	.byte	W06
	.byte	PEND
@ 025   ----------------------------------------
that_persons_name_is_8_025:
	.byte		N05   , Cn1 , v096
	.byte		N11   , Dn1 
	.byte	W06
	.byte		N05   , Cn1 
	.byte	W06
	.byte		N11   
	.byte		N11   , Fs1 , v052
	.byte		N11   , Cs2 
	.byte	W12
	.byte		        Dn1 , v096
	.byte		N11   , Fs1 , v052
	.byte	W12
	.byte		        Cn1 , v096
	.byte		N11   , As1 , v052
	.byte	W12
	.byte		        Dn1 , v096
	.byte		N11   , Fs1 , v052
	.byte	W12
	.byte		        Cn1 , v096
	.byte		N05   , Fs1 , v052
	.byte	W06
	.byte		N05   
	.byte	W06
	.byte		N11   , Dn1 , v096
	.byte		N11   , As1 , v052
	.byte	W12
	.byte		        Cn1 , v096
	.byte		N11   , Fs1 , v052
	.byte	W12
	.byte	PEND
@ 026   ----------------------------------------
that_persons_name_is_8_026:
	.byte		N11   , Dn1 , v096
	.byte		N11   , Fs1 , v052
	.byte	W12
	.byte		        Cn1 , v096
	.byte		N11   , Fs1 , v052
	.byte	W12
	.byte		        Dn1 , v096
	.byte		N11   , Fs1 , v052
	.byte	W12
	.byte		        Cn1 , v096
	.byte		N11   , As1 , v052
	.byte	W12
	.byte		        Dn1 , v096
	.byte		N11   , Fs1 , v052
	.byte	W12
	.byte		        Cn1 , v096
	.byte		N05   , Fs1 , v052
	.byte	W06
	.byte		N05   
	.byte	W06
	.byte		N11   , Dn1 , v096
	.byte		N11   , As1 , v052
	.byte	W12
	.byte		N05   , Cn1 , v096
	.byte		N11   , Fs1 , v052
	.byte	W06
	.byte		N05   , Cn1 , v096
	.byte	W06
	.byte	PEND
@ 027   ----------------------------------------
that_persons_name_is_8_027:
	.byte		N11   , Dn1 , v096
	.byte		N11   , Fs1 , v052
	.byte	W12
	.byte		N05   , Cn1 , v096
	.byte		N11   , Fs1 , v052
	.byte		N11   , Cs2 
	.byte	W06
	.byte		N05   , Cn1 , v096
	.byte	W06
	.byte		N11   , Dn1 
	.byte		N11   , Fs1 , v052
	.byte	W12
	.byte		N05   , Cn1 , v096
	.byte		N11   , As1 , v052
	.byte	W06
	.byte		N05   , Cn1 , v096
	.byte	W06
	.byte		        En1 
	.byte		N11   , Fs1 , v052
	.byte	W06
	.byte		N05   , Dn1 , v096
	.byte	W06
	.byte		        Cn1 
	.byte		N05   , Fs1 , v052
	.byte	W06
	.byte		        Cn1 , v096
	.byte		N05   , Fs1 , v052
	.byte	W06
	.byte		N11   , Dn1 , v096
	.byte		N11   , As1 , v052
	.byte	W12
	.byte		        Cn1 , v096
	.byte		N11   , Fs1 , v052
	.byte	W12
	.byte	PEND
@ 028   ----------------------------------------
that_persons_name_is_8_028:
	.byte		N05   , En1 , v096
	.byte		N11   , Fs1 , v052
	.byte	W06
	.byte		N05   , Dn1 , v096
	.byte	W06
	.byte		        Cn1 
	.byte		N11   , Fs1 , v052
	.byte	W06
	.byte		N05   , Cn1 , v096
	.byte	W06
	.byte		        En1 
	.byte		N11   , Fs1 , v052
	.byte	W06
	.byte		N05   , Dn1 , v096
	.byte	W06
	.byte		        Cn1 
	.byte		N11   , As1 , v052
	.byte	W06
	.byte		N05   , Cn1 , v096
	.byte	W06
	.byte		N11   , Dn1 
	.byte		N11   , Fs1 , v052
	.byte	W12
	.byte		N05   , Cn1 , v096
	.byte		N05   , Fs1 , v052
	.byte	W06
	.byte		        Cn1 , v096
	.byte		N05   , Fs1 , v052
	.byte	W06
	.byte		        En1 , v096
	.byte		N11   , As1 , v052
	.byte	W06
	.byte		N05   , Dn1 , v096
	.byte	W06
	.byte		N11   , Cn1 
	.byte		N11   , Fs1 , v052
	.byte	W12
	.byte	PEND
@ 029   ----------------------------------------
that_persons_name_is_8_029:
	.byte		N11   , Dn1 , v096
	.byte		N11   , Fs1 , v052
	.byte	W12
	.byte		        Cn1 , v096
	.byte		N11   , Fs1 , v052
	.byte		N11   , Cs2 
	.byte	W12
	.byte		        Dn1 , v096
	.byte		N11   , Fs1 , v052
	.byte	W12
	.byte		        Cn1 , v096
	.byte		N11   , As1 , v052
	.byte	W12
	.byte		        Dn1 , v096
	.byte		N11   , Fs1 , v052
	.byte	W12
	.byte		        Cn1 , v096
	.byte		N05   , Fs1 , v052
	.byte	W06
	.byte		N05   
	.byte	W06
	.byte		N11   , Dn1 , v096
	.byte		N11   , As1 , v052
	.byte	W12
	.byte		        Cn1 , v096
	.byte		N11   , Fs1 , v052
	.byte	W12
	.byte	PEND
@ 030   ----------------------------------------
	.byte	PATT
	 .word	that_persons_name_is_8_026
@ 031   ----------------------------------------
	.byte	PATT
	 .word	that_persons_name_is_8_027
@ 032   ----------------------------------------
that_persons_name_is_8_032:
	.byte		N11   , Fs1 , v052
	.byte	W06
	.byte		N05   , Dn1 , v096
	.byte	W06
	.byte		        Cn1 
	.byte		N11   , Fs1 , v052
	.byte	W06
	.byte		N05   , Cn1 , v096
	.byte	W06
	.byte		N11   , Fs1 , v052
	.byte	W06
	.byte		N05   , Dn1 , v096
	.byte	W06
	.byte		        Cn1 
	.byte		N11   , As1 , v052
	.byte	W06
	.byte		N05   , Cn1 , v096
	.byte	W06
	.byte		N11   , Dn1 
	.byte		N11   , Fs1 , v052
	.byte	W12
	.byte		N05   , Cn1 , v096
	.byte		N05   , Fs1 , v052
	.byte	W06
	.byte		        Cn1 , v096
	.byte		N05   , Fs1 , v052
	.byte	W06
	.byte		N11   , As1 
	.byte	W06
	.byte		N05   , Dn1 , v096
	.byte	W06
	.byte		N11   , Cn1 
	.byte		N11   , Fs1 , v052
	.byte	W12
	.byte	PEND
@ 033   ----------------------------------------
that_persons_name_is_8_033:
	.byte		N11   , Dn1 , v096
	.byte		N11   , Fs1 , v052
	.byte	W24
	.byte		        Dn1 , v096
	.byte		N11   , Fs1 , v052
	.byte		N11   , Cs2 
	.byte	W12
	.byte		N05   , Cn1 , v096
	.byte		N11   , As1 , v052
	.byte	W06
	.byte		N05   , Cn1 , v096
	.byte	W06
	.byte		N11   , Dn1 
	.byte		N11   , Fs1 , v052
	.byte	W12
	.byte		        Cn1 , v096
	.byte		N11   , Fs1 , v052
	.byte	W12
	.byte		        Dn1 , v096
	.byte		N23   , As1 , v052
	.byte	W12
	.byte		N11   , Cn1 , v096
	.byte	W12
	.byte	PEND
@ 034   ----------------------------------------
	.byte	PATT
	 .word	that_persons_name_is_8_009
@ 035   ----------------------------------------
	.byte	PATT
	 .word	that_persons_name_is_8_010
@ 036   ----------------------------------------
	.byte	PATT
	 .word	that_persons_name_is_8_009
@ 037   ----------------------------------------
	.byte	PATT
	 .word	that_persons_name_is_8_010
@ 038   ----------------------------------------
	.byte	PATT
	 .word	that_persons_name_is_8_009
@ 039   ----------------------------------------
	.byte	PATT
	 .word	that_persons_name_is_8_014
@ 040   ----------------------------------------
	.byte	PATT
	 .word	that_persons_name_is_8_015
@ 041   ----------------------------------------
	.byte	PATT
	 .word	that_persons_name_is_8_016
@ 042   ----------------------------------------
	.byte	PATT
	 .word	that_persons_name_is_8_009
@ 043   ----------------------------------------
	.byte	PATT
	 .word	that_persons_name_is_8_010
@ 044   ----------------------------------------
	.byte	PATT
	 .word	that_persons_name_is_8_009
@ 045   ----------------------------------------
	.byte	PATT
	 .word	that_persons_name_is_8_010
@ 046   ----------------------------------------
	.byte	PATT
	 .word	that_persons_name_is_8_009
@ 047   ----------------------------------------
	.byte	PATT
	 .word	that_persons_name_is_8_014
@ 048   ----------------------------------------
	.byte	W12
	.byte		N05   , Cn1 , v096
	.byte		N23   , As1 , v052
	.byte	W06
	.byte		N05   , Cn1 , v096
	.byte	W06
	.byte		N11   , Dn1 
	.byte	W12
	.byte		N05   , Cn1 
	.byte		N23   , As1 , v052
	.byte	W06
	.byte		N05   , Cn1 , v096
	.byte	W06
	.byte		        Dn1 
	.byte	W06
	.byte		        En1 
	.byte	W06
	.byte		        Cn1 
	.byte		N23   , As1 , v052
	.byte	W06
	.byte		N05   , Cn1 , v096
	.byte	W06
	.byte		N11   , Dn1 
	.byte	W12
	.byte		        Cn1 
	.byte		N23   , As1 , v052
	.byte	W12
@ 049   ----------------------------------------
	.byte		N05   , En1 , v096
	.byte	W06
	.byte		        Dn1 
	.byte	W06
	.byte		        Cn1 
	.byte		N23   , As1 , v052
	.byte	W06
	.byte		N05   , Cn1 , v096
	.byte	W06
	.byte		N05   
	.byte		N11   , Dn1 
	.byte	W06
	.byte		N05   , Cn1 
	.byte	W06
	.byte		N05   
	.byte		N23   , As1 , v052
	.byte	W06
	.byte		N05   , Cn1 , v096
	.byte	W06
	.byte		N05   
	.byte		N11   , Dn1 
	.byte	W06
	.byte		N05   , Cn1 
	.byte	W06
	.byte		N05   
	.byte		N23   , As1 , v052
	.byte		N05   , Cn2 , v096
	.byte	W06
	.byte		        Cn1 
	.byte		N05   , Cn2 
	.byte	W06
	.byte		        Cn1 
	.byte		N05   , An1 
	.byte	W06
	.byte		        Cn1 
	.byte		N05   , Dn1 
	.byte	W06
	.byte		        Cn1 
	.byte		N23   , As1 , v052
	.byte	W06
	.byte		N05   , Cn1 , v096
	.byte	W06
@ 050   ----------------------------------------
	.byte	PATT
	 .word	that_persons_name_is_8_025
@ 051   ----------------------------------------
	.byte	PATT
	 .word	that_persons_name_is_8_026
@ 052   ----------------------------------------
	.byte	PATT
	 .word	that_persons_name_is_8_027
@ 053   ----------------------------------------
	.byte	PATT
	 .word	that_persons_name_is_8_028
@ 054   ----------------------------------------
	.byte	PATT
	 .word	that_persons_name_is_8_029
@ 055   ----------------------------------------
	.byte	PATT
	 .word	that_persons_name_is_8_026
@ 056   ----------------------------------------
	.byte	PATT
	 .word	that_persons_name_is_8_027
@ 057   ----------------------------------------
	.byte	PATT
	 .word	that_persons_name_is_8_028
@ 058   ----------------------------------------
that_persons_name_is_8_058:
	.byte		N11   , Dn1 , v096
	.byte		N11   , Fs1 , v052
	.byte	W12
	.byte		        Cn1 , v096
	.byte		N11   , Cs2 , v052
	.byte		N11   , Ds2 
	.byte	W12
	.byte		        Dn1 , v096
	.byte		N11   , Ds2 , v052
	.byte	W12
	.byte		N05   , Cn1 , v096
	.byte		N11   , As1 , v052
	.byte	W06
	.byte		N05   , Cn1 , v096
	.byte	W06
	.byte		N11   , Dn1 
	.byte		N23   , Ds2 , v052
	.byte	W12
	.byte		N11   , Cn1 , v096
	.byte	W12
	.byte		        Dn1 
	.byte		N11   , Fs1 , v052
	.byte	W12
	.byte		        Cn1 , v096
	.byte		N11   , Fs1 , v052
	.byte	W12
	.byte	PEND
@ 059   ----------------------------------------
that_persons_name_is_8_059:
	.byte		N11   , Dn1 , v096
	.byte		N11   , Fs1 , v052
	.byte	W12
	.byte		N05   , Cn1 , v096
	.byte		N11   , Ds2 , v052
	.byte	W06
	.byte		N05   , Cn1 , v096
	.byte	W06
	.byte		N11   , Dn1 
	.byte		N11   , Ds2 , v052
	.byte	W12
	.byte		N05   , Cn1 , v096
	.byte		N11   , As1 , v052
	.byte	W06
	.byte		N05   , Cn1 , v096
	.byte	W06
	.byte		N11   , Dn1 
	.byte		N23   , Ds2 , v052
	.byte	W12
	.byte		N05   , Cn1 , v096
	.byte	W06
	.byte		N05   
	.byte	W06
	.byte		N11   , Dn1 
	.byte		N11   , Fs1 , v052
	.byte	W12
	.byte		        Cn1 , v096
	.byte		N11   , Fs1 , v052
	.byte	W12
	.byte	PEND
@ 060   ----------------------------------------
	.byte	PATT
	 .word	that_persons_name_is_8_058
@ 061   ----------------------------------------
	.byte		N11   , Dn1 , v096
	.byte		N11   , Fs1 , v052
	.byte	W12
	.byte		N05   , Cn1 , v096
	.byte		N11   , Ds2 , v052
	.byte	W06
	.byte		N05   , Cn1 , v096
	.byte	W06
	.byte		        Dn1 
	.byte		N11   , Ds2 , v052
	.byte	W06
	.byte		N05   , Dn1 , v096
	.byte	W06
	.byte		        Cn1 
	.byte		N11   , As1 , v052
	.byte	W06
	.byte		N05   , Cn1 , v096
	.byte	W06
	.byte		        En1 
	.byte		N23   , Ds2 , v052
	.byte	W06
	.byte		N05   , Dn1 , v096
	.byte	W06
	.byte		        Cn1 
	.byte	W06
	.byte		N05   
	.byte	W06
	.byte		        Dn1 
	.byte		N11   , Fs1 , v052
	.byte	W06
	.byte		N05   , Dn1 , v096
	.byte	W06
	.byte		N11   , Cn1 
	.byte		N11   , Fs1 , v052
	.byte	W12
@ 062   ----------------------------------------
that_persons_name_is_8_062:
	.byte		N05   , Dn1 , v096
	.byte		N11   , Fs1 , v052
	.byte	W06
	.byte		N05   , Dn1 , v096
	.byte	W18
	.byte		N11   
	.byte		N11   , Cs2 , v052
	.byte		N11   , Ds2 
	.byte	W12
	.byte		N05   , Cn1 , v096
	.byte		N11   , As1 , v052
	.byte	W06
	.byte		N05   , Cn1 , v096
	.byte	W06
	.byte		N11   , Dn1 
	.byte		N23   , Ds2 , v052
	.byte	W12
	.byte		N11   , Cn1 , v096
	.byte	W12
	.byte		        Dn1 
	.byte		N11   , Fs1 , v052
	.byte	W12
	.byte		        Cn1 , v096
	.byte		N11   , Fs1 , v052
	.byte	W12
	.byte	PEND
@ 063   ----------------------------------------
that_persons_name_is_8_063:
	.byte		N11   , Dn1 , v096
	.byte		N11   , Fs1 , v052
	.byte	W12
	.byte		N05   , Cn1 , v096
	.byte		N11   , Cs2 , v052
	.byte		N11   , Ds2 
	.byte	W06
	.byte		N05   , Cn1 , v096
	.byte	W06
	.byte		N11   , Dn1 
	.byte		N11   , Ds2 , v052
	.byte	W12
	.byte		N05   , Cn1 , v096
	.byte		N11   , As1 , v052
	.byte	W06
	.byte		N05   , Cn1 , v096
	.byte	W06
	.byte		N11   , Dn1 
	.byte		N11   , Ds2 , v052
	.byte	W12
	.byte		N05   , Cn1 , v096
	.byte		N11   , Cs2 , v052
	.byte		N11   , Ds2 
	.byte	W06
	.byte		N05   , Cn1 , v096
	.byte	W06
	.byte		N11   , Dn1 
	.byte		N11   , Fs1 , v052
	.byte	W12
	.byte		        Cn1 , v096
	.byte		N11   , Fs1 , v052
	.byte	W12
	.byte	PEND
@ 064   ----------------------------------------
	.byte		        Dn1 , v096
	.byte		N11   , Fs1 , v052
	.byte	W12
	.byte		        Cn1 , v096
	.byte		N11   , Dn1 
	.byte		N11   , Cs2 , v052
	.byte		N11   , Ds2 
	.byte	W12
	.byte		N11   
	.byte	W12
	.byte		        As1 
	.byte	W12
	.byte		N05   , Cn1 , v096
	.byte		N05   , En1 
	.byte		N11   , Ds2 , v052
	.byte	W06
	.byte		N05   , Cn1 , v096
	.byte		N05   , Dn1 
	.byte	W06
	.byte		N11   , Cn1 
	.byte		N11   , Dn1 
	.byte		N11   , Cs2 , v052
	.byte		N11   , Ds2 
	.byte	W12
	.byte		        Fs1 
	.byte	W12
	.byte		        Cn1 , v096
	.byte		N11   , Dn1 
	.byte		N11   , Cs2 , v052
	.byte		N11   , Ds2 
	.byte	W12
@ 065   ----------------------------------------
that_persons_name_is_8_065:
	.byte		N11   , Fs1 , v052
	.byte	W12
	.byte		        Cn1 , v096
	.byte		N23   , Fn2 , v052
	.byte		N23   , An2 
	.byte	W12
	.byte		N11   , Cn1 , v096
	.byte		N11   , Dn1 
	.byte	W12
	.byte		        Cn1 
	.byte		N11   , Fs1 , v052
	.byte	W12
	.byte		        Cn1 , v096
	.byte		N11   , Dn1 
	.byte		N23   , Fn2 , v052
	.byte	W12
	.byte		N11   , Cn1 , v096
	.byte	W12
	.byte		N11   
	.byte		N11   , Dn1 
	.byte		N23   , Fn2 , v052
	.byte	W12
	.byte		N11   , Cn1 , v096
	.byte	W12
	.byte	PEND
@ 066   ----------------------------------------
that_persons_name_is_8_066:
	.byte		N11   , Cn1 , v096
	.byte		N05   , En1 
	.byte		N11   , Fs1 , v052
	.byte	W06
	.byte		N05   , Dn1 , v096
	.byte	W06
	.byte		N11   , Cn1 
	.byte		N23   , Fn2 , v052
	.byte	W12
	.byte		N11   , Cn1 , v096
	.byte		N11   , Dn1 
	.byte	W12
	.byte		        Cn1 
	.byte		N11   , Fs1 , v052
	.byte	W12
	.byte		        Cn1 , v096
	.byte		N11   , Dn1 
	.byte		N23   , Fn2 , v052
	.byte	W12
	.byte		N11   , Cn1 , v096
	.byte	W12
	.byte		N11   
	.byte		N11   , Dn1 
	.byte		N23   , Fn2 , v052
	.byte	W12
	.byte		N11   , Cn1 , v096
	.byte	W12
	.byte	PEND
@ 067   ----------------------------------------
	.byte		N11   
	.byte		N05   , En1 
	.byte		N11   , Fs1 , v052
	.byte	W06
	.byte		N05   , Dn1 , v096
	.byte	W06
	.byte		N11   , Cn1 
	.byte		N23   , Fn2 , v052
	.byte		N23   , An2 
	.byte	W12
	.byte		N11   , Cn1 , v096
	.byte		N11   , Dn1 
	.byte	W12
	.byte		        Cn1 
	.byte		N11   , Fs1 , v052
	.byte	W12
	.byte		        Cn1 , v096
	.byte		N05   , En1 
	.byte		N23   , Fn2 , v052
	.byte	W06
	.byte		N05   , Dn1 , v096
	.byte	W06
	.byte		N11   , Cn1 
	.byte	W12
	.byte		N11   
	.byte		N11   , Dn1 
	.byte		N23   , Fn2 , v052
	.byte	W12
	.byte		N11   , Cn1 , v096
	.byte	W12
@ 068   ----------------------------------------
	.byte	PATT
	 .word	that_persons_name_is_8_066
@ 069   ----------------------------------------
	.byte		N11   , Cn1 , v096
	.byte		N05   , En1 
	.byte		N11   , Fs1 , v052
	.byte	W06
	.byte		N05   , Dn1 , v096
	.byte	W06
	.byte		N11   , Cn1 
	.byte		N23   , Fn2 , v052
	.byte		N23   , An2 
	.byte	W12
	.byte		N11   , Cn1 , v096
	.byte		N11   , Dn1 
	.byte	W12
	.byte		        Cn1 
	.byte		N11   , Fs1 , v052
	.byte	W12
	.byte		        Cn1 , v096
	.byte		N11   , Dn1 
	.byte		N23   , Fn2 , v052
	.byte	W12
	.byte		N11   , Cn1 , v096
	.byte	W12
	.byte		N11   
	.byte		N11   , Dn1 
	.byte		N23   , Fn2 , v052
	.byte	W12
	.byte		N11   , Cn1 , v096
	.byte	W12
@ 070   ----------------------------------------
	.byte	PATT
	 .word	that_persons_name_is_8_066
@ 071   ----------------------------------------
that_persons_name_is_8_071:
	.byte		N11   , Cn1 , v096
	.byte		N11   , Fs1 , v052
	.byte	W06
	.byte		N05   , Dn1 , v096
	.byte	W06
	.byte		N11   , Cn1 
	.byte		N23   , Fn2 , v052
	.byte		N23   , An2 
	.byte	W12
	.byte		N11   , Cn1 , v096
	.byte		N11   , Dn1 
	.byte	W12
	.byte		        Cn1 
	.byte		N11   , Fs1 , v052
	.byte	W12
	.byte		        Cn1 , v096
	.byte		N23   , Fn2 , v052
	.byte	W06
	.byte		N05   , Dn1 , v096
	.byte	W06
	.byte		N11   , Cn1 
	.byte	W12
	.byte		N11   
	.byte		N11   , Dn1 
	.byte		N23   , Fn2 , v052
	.byte	W12
	.byte		N11   , Cn1 , v096
	.byte	W12
	.byte	PEND
@ 072   ----------------------------------------
that_persons_name_is_8_072:
	.byte		N11   , Cn1 , v096
	.byte		N11   , Fs1 , v052
	.byte	W06
	.byte		N05   , Dn1 , v096
	.byte	W06
	.byte		N11   , Cn1 
	.byte		N23   , Fn2 , v052
	.byte	W12
	.byte		N11   , Cn1 , v096
	.byte		N11   , Dn1 
	.byte	W12
	.byte		        Cn1 
	.byte		N11   , Fs1 , v052
	.byte	W12
	.byte		        Cn1 , v096
	.byte		N11   , Dn1 
	.byte		N23   , Fn2 , v052
	.byte	W12
	.byte		N11   , Cn1 , v096
	.byte	W12
	.byte		N11   
	.byte		N11   , Dn1 
	.byte		N23   , Fn2 , v052
	.byte	W12
	.byte		N11   , Cn1 , v096
	.byte	W12
	.byte	PEND
@ 073   ----------------------------------------
that_persons_name_is_8_073:
	.byte		N11   , Cn1 , v096
	.byte		N11   , Fs1 , v052
	.byte	W06
	.byte		N05   , Dn1 , v096
	.byte	W06
	.byte		N11   , Cn1 
	.byte		N23   , Fn2 , v052
	.byte		N23   , An2 
	.byte	W12
	.byte		N11   , Cn1 , v096
	.byte		N11   , Dn1 
	.byte	W12
	.byte		        Cn1 
	.byte		N11   , Fs1 , v052
	.byte	W12
	.byte		        Cn1 , v096
	.byte		N11   , Dn1 
	.byte		N23   , Fn2 , v052
	.byte	W12
	.byte		N11   , Cn1 , v096
	.byte	W12
	.byte		N11   
	.byte		N11   , Dn1 
	.byte		N23   , Fn2 , v052
	.byte	W12
	.byte		N11   , Cn1 , v096
	.byte	W12
	.byte	PEND
@ 074   ----------------------------------------
	.byte	PATT
	 .word	that_persons_name_is_8_072
@ 075   ----------------------------------------
	.byte	PATT
	 .word	that_persons_name_is_8_071
@ 076   ----------------------------------------
	.byte	PATT
	 .word	that_persons_name_is_8_072
@ 077   ----------------------------------------
	.byte	PATT
	 .word	that_persons_name_is_8_073
@ 078   ----------------------------------------
	.byte	PATT
	 .word	that_persons_name_is_8_072
@ 079   ----------------------------------------
	.byte	PATT
	 .word	that_persons_name_is_8_073
@ 080   ----------------------------------------
	.byte	PATT
	 .word	that_persons_name_is_8_073
@ 081   ----------------------------------------
that_persons_name_is_8_081:
	.byte		N11   , Cn1 , v096
	.byte		N11   , Fs1 , v052
	.byte	W06
	.byte		N05   , Dn1 , v096
	.byte	W06
	.byte		N11   , Cn1 
	.byte		N11   , Dn1 
	.byte		N11   , Cs2 , v052
	.byte		N11   , En2 
	.byte	W72
	.byte		        Cn1 , v096
	.byte		N11   , Dn1 
	.byte		N11   , Cs2 , v052
	.byte		N11   , En2 
	.byte	W12
	.byte	PEND
@ 082   ----------------------------------------
that_persons_name_is_8_082:
	.byte	W12
	.byte		N11   , Cn1 , v096
	.byte		N11   , Dn1 
	.byte		N11   , Cs2 , v052
	.byte		N11   , En2 
	.byte	W48
	.byte		N23   , Cn1 , v096
	.byte		N23   , Dn1 
	.byte		N23   , Cs2 , v052
	.byte		N23   , En2 
	.byte	W24
	.byte		        Cn1 , v096
	.byte		N23   , Dn1 
	.byte		N23   , Cs2 , v052
	.byte		N23   , En2 
	.byte	W12
	.byte	PEND
@ 083   ----------------------------------------
that_persons_name_is_8_083:
	.byte	W12
	.byte		N11   , Cn1 , v096
	.byte		N11   , Fs1 , v052
	.byte		N11   , Cs2 
	.byte	W12
	.byte		        Dn1 , v096
	.byte		N11   , Fs1 , v052
	.byte	W12
	.byte		N05   , Cn1 , v096
	.byte		N11   , As1 , v052
	.byte	W06
	.byte		N05   , Cn1 , v096
	.byte	W06
	.byte		N11   , Dn1 
	.byte		N11   , Fs1 , v052
	.byte	W12
	.byte		        Cn1 , v096
	.byte		N11   , Fs1 , v052
	.byte	W12
	.byte		        Dn1 , v096
	.byte		N23   , As1 , v052
	.byte	W12
	.byte		N11   , Cn1 , v096
	.byte	W12
	.byte	PEND
@ 084   ----------------------------------------
	.byte	PATT
	 .word	that_persons_name_is_8_009
@ 085   ----------------------------------------
that_persons_name_is_8_085:
	.byte		N11   , Dn1 , v096
	.byte		N11   , Fs1 , v052
	.byte	W12
	.byte		        Cn1 , v096
	.byte		N11   , Fs1 , v052
	.byte		N11   , Cs2 
	.byte	W12
	.byte		        Dn1 , v096
	.byte		N11   , Fs1 , v052
	.byte	W12
	.byte		N05   , Cn1 , v096
	.byte		N11   , As1 , v052
	.byte	W06
	.byte		N05   , Cn1 , v096
	.byte	W06
	.byte		N11   , Dn1 
	.byte		N11   , Fs1 , v052
	.byte	W12
	.byte		        Cn1 , v096
	.byte		N11   , Fs1 , v052
	.byte		N11   , Cs2 
	.byte	W12
	.byte		        Dn1 , v096
	.byte		N11   , As1 , v052
	.byte	W12
	.byte		        Cn1 , v096
	.byte		N11   , Fs1 , v052
	.byte		N11   , Cs2 
	.byte	W12
	.byte	PEND
@ 086   ----------------------------------------
that_persons_name_is_8_086:
	.byte		N11   , Dn1 , v096
	.byte		N11   , Fs1 , v052
	.byte	W12
	.byte		N05   , Cn1 , v096
	.byte		N11   , Fs1 , v052
	.byte		N11   , Cs2 
	.byte	W06
	.byte		N05   , Cn1 , v096
	.byte	W06
	.byte		N11   , Dn1 
	.byte		N11   , Fs1 , v052
	.byte	W12
	.byte		N05   , Cn1 , v096
	.byte		N11   , As1 , v052
	.byte	W06
	.byte		N05   , Cn1 , v096
	.byte	W06
	.byte		N11   , Dn1 
	.byte		N11   , Fs1 , v052
	.byte	W12
	.byte		N05   , Cn1 , v096
	.byte		N11   , Fs1 , v052
	.byte		N11   , Cs2 
	.byte	W06
	.byte		N05   , Cn1 , v096
	.byte	W06
	.byte		N11   , Dn1 
	.byte		N11   , As1 , v052
	.byte	W12
	.byte		        Cn1 , v096
	.byte		N11   , Fs1 , v052
	.byte		N11   , Cs2 
	.byte	W12
	.byte	PEND
@ 087   ----------------------------------------
	.byte	PATT
	 .word	that_persons_name_is_8_010
@ 088   ----------------------------------------
	.byte	PATT
	 .word	that_persons_name_is_8_009
@ 089   ----------------------------------------
	.byte	PATT
	 .word	that_persons_name_is_8_085
@ 090   ----------------------------------------
that_persons_name_is_8_090:
	.byte		N11   , Dn1 , v096
	.byte		N11   , Fs1 , v052
	.byte	W12
	.byte		N05   , Cn1 , v096
	.byte		N11   , Fs1 , v052
	.byte	W06
	.byte		N05   , Cn1 , v096
	.byte	W06
	.byte		N11   , Dn1 
	.byte		N11   , Fs1 , v052
	.byte	W12
	.byte		N05   , Cn1 , v096
	.byte		N11   , As1 , v052
	.byte	W06
	.byte		N05   , Cn1 , v096
	.byte	W06
	.byte		N11   , Dn1 
	.byte		N11   , Fs1 , v052
	.byte	W12
	.byte		        Cn1 , v096
	.byte		N05   , Dn1 
	.byte		N11   , Fs1 , v052
	.byte		N11   , Cs2 
	.byte	W06
	.byte		N05   , Dn1 , v096
	.byte	W06
	.byte		N11   , Cn1 
	.byte		N05   , Dn1 
	.byte		N11   , Fs1 , v052
	.byte		N11   , Cs2 
	.byte	W06
	.byte		N05   , Dn1 , v096
	.byte	W06
	.byte		N11   , Cn1 
	.byte		N05   , Dn1 
	.byte		N11   , As1 , v052
	.byte		N11   , Cs2 
	.byte	W06
	.byte		N05   , Dn1 , v096
	.byte	W06
	.byte	PEND
@ 091   ----------------------------------------
that_persons_name_is_8_091:
	.byte		N11   , Cn1 , v096
	.byte		N05   , Dn1 
	.byte		N11   , Fs1 , v052
	.byte		N11   , Cs2 
	.byte	W06
	.byte		N05   , Dn1 , v096
	.byte	W06
	.byte		        Cn1 , v112
	.byte		N05   , Cs2 , v052
	.byte		N05   , En2 
	.byte	W06
	.byte		        Cn1 , v112
	.byte		N05   , Fs1 , v052
	.byte	W06
	.byte		        Cn1 , v112
	.byte		N05   , Dn1 
	.byte		N05   , Fs1 , v052
	.byte	W06
	.byte		        Cn1 , v112
	.byte		N05   , Dn1 
	.byte		N05   , Fs1 , v052
	.byte	W06
	.byte		        Cn1 , v112
	.byte		N05   , Fs1 , v052
	.byte	W06
	.byte		        Cn1 , v112
	.byte		N05   , Fs1 , v052
	.byte	W06
	.byte		        Cn1 , v112
	.byte		N05   , Dn1 
	.byte		N05   , Cs2 , v052
	.byte		N05   , En2 
	.byte	W06
	.byte		        Cn1 , v112
	.byte		N05   , Dn1 
	.byte		N05   , Fs1 , v052
	.byte	W06
	.byte		        Cn1 , v112
	.byte		N05   , Cs2 , v052
	.byte		N05   , En2 
	.byte	W06
	.byte		        Cn1 , v112
	.byte		N05   , Fs1 , v052
	.byte	W06
	.byte		        Cn1 , v112
	.byte		N05   , Dn1 
	.byte		N05   , Fs1 , v052
	.byte	W06
	.byte		        Cn1 , v112
	.byte		N05   , Dn1 
	.byte		N05   , Fs1 , v052
	.byte	W06
	.byte		        Cn1 , v112
	.byte		N05   , Fs1 , v052
	.byte	W06
	.byte		        Cn1 , v112
	.byte		N05   , Fs1 , v052
	.byte	W06
	.byte	PEND
@ 092   ----------------------------------------
that_persons_name_is_8_092:
	.byte		N05   , Cn1 , v112
	.byte		N05   , Dn1 
	.byte		N05   , Cs2 , v052
	.byte		N05   , En2 
	.byte	W06
	.byte		        Cn1 , v112
	.byte		N05   , Dn1 
	.byte		N05   , Fs1 , v052
	.byte	W06
	.byte		        Cn1 , v112
	.byte		N05   , Cs2 , v052
	.byte		N05   , En2 
	.byte	W06
	.byte		        Cn1 , v112
	.byte		N05   , Fs1 , v052
	.byte	W06
	.byte		        Cn1 , v112
	.byte		N05   , Dn1 
	.byte		N05   , Fs1 , v052
	.byte	W06
	.byte		        Cn1 , v112
	.byte		N05   , Dn1 
	.byte		N05   , Fs1 , v052
	.byte	W06
	.byte		        Cn1 , v112
	.byte		N05   , Fs1 , v052
	.byte	W06
	.byte		        Cn1 , v112
	.byte		N05   , Fs1 , v052
	.byte	W06
	.byte		        Cn1 , v112
	.byte		N05   , Dn1 
	.byte		N05   , Cs2 , v052
	.byte		N05   , En2 
	.byte	W06
	.byte		        Cn1 , v112
	.byte		N05   , Dn1 
	.byte		N05   , Fs1 , v052
	.byte	W06
	.byte		        Cn1 , v112
	.byte		N05   , Cs2 , v052
	.byte		N05   , En2 
	.byte	W06
	.byte		        Cn1 , v112
	.byte		N05   , Fs1 , v052
	.byte	W06
	.byte		        Cn1 , v112
	.byte		N05   , Cs2 , v052
	.byte		N05   , En2 
	.byte	W06
	.byte		        Cn1 , v112
	.byte		N05   , Fs1 , v052
	.byte	W06
	.byte		        Cn1 , v112
	.byte		N05   , Cs2 , v052
	.byte		N05   , En2 
	.byte	W06
	.byte		        Cn1 , v112
	.byte		N05   , Fs1 , v052
	.byte	W06
	.byte	PEND
@ 093   ----------------------------------------
that_persons_name_is_8_093:
	.byte		N05   , Cn1 , v112
	.byte		N05   , An1 
	.byte		N05   , Cs2 , v052
	.byte		N05   , En2 
	.byte	W06
	.byte		        Cn1 , v112
	.byte		N05   , Fs1 , v052
	.byte		N05   , An1 , v112
	.byte	W06
	.byte		        Cn1 
	.byte		N05   , Cs2 , v052
	.byte		N05   , En2 
	.byte	W06
	.byte		        Cn1 , v112
	.byte		N05   , Fs1 , v052
	.byte	W06
	.byte		        Cn1 , v112
	.byte		N05   , Dn1 
	.byte		N05   , Fs1 , v052
	.byte	W06
	.byte		        Cn1 , v112
	.byte		N05   , Dn1 
	.byte		N05   , Fs1 , v052
	.byte	W06
	.byte		        Cn1 , v112
	.byte		N05   , Fs1 , v052
	.byte	W06
	.byte		        Cn1 , v112
	.byte		N05   , Fs1 , v052
	.byte	W06
	.byte		        Cn1 , v112
	.byte		N05   , Dn1 
	.byte		N05   , Cs2 , v052
	.byte		N05   , En2 
	.byte	W06
	.byte		        Cn1 , v112
	.byte		N05   , Dn1 
	.byte		N05   , Fs1 , v052
	.byte	W06
	.byte		        Cn1 , v112
	.byte		N05   , Cs2 , v052
	.byte		N05   , En2 
	.byte	W06
	.byte		        Cn1 , v112
	.byte		N05   , Fs1 , v052
	.byte	W06
	.byte		        Cn1 , v112
	.byte		N05   , Dn1 
	.byte		N05   , Fs1 , v052
	.byte	W06
	.byte		        Cn1 , v112
	.byte		N05   , Dn1 
	.byte		N05   , Fs1 , v052
	.byte	W06
	.byte		        Cn1 , v112
	.byte		N05   , Fs1 , v052
	.byte	W06
	.byte		        Cn1 , v112
	.byte		N05   , Fs1 , v052
	.byte	W06
	.byte	PEND
@ 094   ----------------------------------------
	.byte	PATT
	 .word	that_persons_name_is_8_092
@ 095   ----------------------------------------
	.byte	PATT
	 .word	that_persons_name_is_8_093
@ 096   ----------------------------------------
	.byte	PATT
	 .word	that_persons_name_is_8_092
@ 097   ----------------------------------------
that_persons_name_is_8_097:
	.byte		N05   , Cn1 , v112
	.byte		N05   , An1 
	.byte		N05   , Cs2 , v052
	.byte		N05   , En2 
	.byte	W06
	.byte		        Cn1 , v112
	.byte		N05   , Fs1 , v052
	.byte		N05   , An1 , v112
	.byte	W06
	.byte		        Cn1 
	.byte		N05   , Cs2 , v052
	.byte		N05   , En2 
	.byte	W06
	.byte		        Cn1 , v112
	.byte		N05   , Fs1 , v052
	.byte		N05   , An1 , v112
	.byte	W06
	.byte		        Cn1 
	.byte		N05   , Fs1 , v052
	.byte		N05   , An1 , v112
	.byte	W06
	.byte		        Cn1 
	.byte		N05   , Fs1 , v052
	.byte		N05   , An1 , v112
	.byte	W06
	.byte		        Cn1 
	.byte		N05   , Fs1 , v052
	.byte		N05   , An1 , v112
	.byte	W06
	.byte		        Cn1 
	.byte		N05   , Fs1 , v052
	.byte		N05   , An1 , v112
	.byte	W06
	.byte		        Cn1 
	.byte		N05   , Dn1 
	.byte		N05   , Cs2 , v052
	.byte		N05   , En2 
	.byte	W06
	.byte		        Cn1 , v112
	.byte		N05   , Fs1 , v052
	.byte		N05   , An1 , v112
	.byte	W06
	.byte		        Cn1 
	.byte		N05   , Fs1 , v052
	.byte		N05   , An1 , v112
	.byte	W06
	.byte		        Cn1 
	.byte		N05   , Fs1 , v052
	.byte		N05   , An1 , v112
	.byte	W06
	.byte		        Cn1 
	.byte		N05   , Fs1 , v052
	.byte		N05   , An1 , v112
	.byte	W06
	.byte		        Cn1 
	.byte		N05   , Fs1 , v052
	.byte		N05   , An1 , v112
	.byte	W06
	.byte		        Cn1 
	.byte		N05   , Dn1 
	.byte		N05   , Cs2 , v052
	.byte		N05   , En2 
	.byte	W06
	.byte		        Cn1 , v112
	.byte		N05   , Fs1 , v052
	.byte		N05   , An1 , v112
	.byte	W06
	.byte	PEND
@ 098   ----------------------------------------
that_persons_name_is_8_098:
	.byte		N05   , Cn1 , v112
	.byte		N05   , Fs1 , v052
	.byte		N05   , An1 , v112
	.byte	W06
	.byte		        Cn1 
	.byte		N05   , Fs1 , v052
	.byte		N05   , An1 , v112
	.byte	W06
	.byte		N11   , Bn0 
	.byte		N05   , Fs1 , v052
	.byte		N23   , As1 
	.byte		N23   , Cs2 
	.byte	W06
	.byte		N05   , Fs1 
	.byte	W06
	.byte		N11   , Bn0 , v112
	.byte		N05   , Fs1 , v052
	.byte	W06
	.byte		        Cs1 
	.byte	W06
	.byte		N11   , Bn0 , v112
	.byte		N05   , Fs1 , v052
	.byte		N23   , As1 
	.byte	W06
	.byte		N05   , Fs1 
	.byte	W06
	.byte		N11   , Bn0 , v112
	.byte		N05   , Fs1 , v052
	.byte	W06
	.byte		        Cs1 
	.byte	W06
	.byte		N11   , Bn0 , v112
	.byte		N05   , Fs1 , v052
	.byte		N23   , As1 
	.byte	W06
	.byte		N05   , Fs1 
	.byte	W06
	.byte		N11   , Bn0 , v112
	.byte		N05   , Fs1 , v052
	.byte	W06
	.byte		        Cs1 
	.byte	W06
	.byte		N11   , Bn0 , v112
	.byte		N05   , Fs1 , v052
	.byte		N11   , As1 
	.byte	W06
	.byte		N05   , Fs1 
	.byte	W06
	.byte	PEND
@ 099   ----------------------------------------
that_persons_name_is_8_099:
	.byte		N11   , Bn0 , v112
	.byte		N05   , Fs1 , v052
	.byte		N11   , As1 
	.byte		N11   , Cs2 
	.byte	W06
	.byte		N05   , Cs1 
	.byte	W06
	.byte		        Cn1 , v112
	.byte		N05   , Cs2 , v052
	.byte		N05   , En2 
	.byte	W06
	.byte		        Cn1 , v112
	.byte		N05   , Fs1 , v052
	.byte	W06
	.byte		        Cn1 , v112
	.byte		N05   , Dn1 
	.byte		N05   , Fs1 , v052
	.byte	W06
	.byte		        Cn1 , v112
	.byte		N05   , Dn1 
	.byte		N05   , Fs1 , v052
	.byte	W06
	.byte		        Cn1 , v112
	.byte		N05   , Fs1 , v052
	.byte	W06
	.byte		        Cn1 , v112
	.byte		N05   , Fs1 , v052
	.byte	W06
	.byte		        Cn1 , v112
	.byte		N05   , Dn1 
	.byte		N05   , Cs2 , v052
	.byte		N05   , En2 
	.byte	W06
	.byte		        Cn1 , v112
	.byte		N05   , Dn1 
	.byte		N05   , Fs1 , v052
	.byte	W06
	.byte		        Cn1 , v112
	.byte		N05   , Cs2 , v052
	.byte		N05   , En2 
	.byte	W06
	.byte		        Cn1 , v112
	.byte		N05   , Fs1 , v052
	.byte	W06
	.byte		        Cn1 , v112
	.byte		N05   , Dn1 
	.byte		N05   , Fs1 , v052
	.byte	W06
	.byte		        Cn1 , v112
	.byte		N05   , Dn1 
	.byte		N05   , Fs1 , v052
	.byte	W06
	.byte		        Cn1 , v112
	.byte		N05   , Fs1 , v052
	.byte	W06
	.byte		        Cn1 , v112
	.byte		N05   , Fs1 , v052
	.byte	W06
	.byte	PEND
@ 100   ----------------------------------------
	.byte	PATT
	 .word	that_persons_name_is_8_092
@ 101   ----------------------------------------
	.byte	PATT
	 .word	that_persons_name_is_8_093
@ 102   ----------------------------------------
	.byte	PATT
	 .word	that_persons_name_is_8_092
@ 103   ----------------------------------------
	.byte	PATT
	 .word	that_persons_name_is_8_093
@ 104   ----------------------------------------
	.byte	PATT
	 .word	that_persons_name_is_8_092
@ 105   ----------------------------------------
	.byte	PATT
	 .word	that_persons_name_is_8_097
@ 106   ----------------------------------------
that_persons_name_is_8_106:
	.byte		N05   , Cn1 , v112
	.byte		N05   , Fs1 , v052
	.byte		N05   , An1 , v112
	.byte	W06
	.byte		        Cn1 
	.byte		N05   , Fs1 , v052
	.byte		N05   , An1 , v112
	.byte	W06
	.byte		        Cn1 
	.byte		N05   , Cs2 , v052
	.byte		N05   , En2 
	.byte	W06
	.byte		        Cn1 , v112
	.byte		N05   , Fs1 , v052
	.byte		N05   , An1 , v112
	.byte	W06
	.byte		        Cn1 
	.byte		N05   , Fs1 , v052
	.byte		N05   , An1 , v112
	.byte	W06
	.byte		        Cn1 
	.byte		N05   , Fs1 , v052
	.byte		N05   , An1 , v112
	.byte	W06
	.byte		        Cn1 
	.byte		N05   , Fs1 , v052
	.byte		N05   , An1 , v112
	.byte	W06
	.byte		        Cn1 
	.byte		N05   , Fs1 , v052
	.byte		N05   , An1 , v112
	.byte	W06
	.byte		        Cn1 
	.byte		N05   , Dn1 
	.byte		N05   , Cs2 , v052
	.byte		N05   , En2 
	.byte	W06
	.byte		        Cn1 , v112
	.byte		N05   , Fs1 , v052
	.byte		N05   , An1 , v112
	.byte	W06
	.byte		        Cn1 
	.byte		N05   , Fs1 , v052
	.byte		N05   , An1 , v112
	.byte	W06
	.byte		        Cn1 
	.byte		N05   , Fs1 , v052
	.byte		N05   , An1 , v112
	.byte	W06
	.byte		        Cn1 
	.byte		N05   , Fs1 , v052
	.byte		N05   , An1 , v112
	.byte	W06
	.byte		        Cn1 
	.byte		N05   , Fs1 , v052
	.byte		N05   , An1 , v112
	.byte	W06
	.byte		        Cn1 
	.byte		N05   , Dn1 
	.byte		N05   , Cs2 , v052
	.byte		N05   , En2 
	.byte	W06
	.byte		        Cn1 , v112
	.byte		N05   , Fs1 , v052
	.byte		N05   , An1 , v112
	.byte	W06
	.byte	PEND
@ 107   ----------------------------------------
	.byte	PATT
	 .word	that_persons_name_is_8_106
@ 108   ----------------------------------------
that_persons_name_is_8_108:
	.byte		N05   , Cn1 , v112
	.byte		N05   , Fs1 , v052
	.byte		N05   , An1 , v112
	.byte	W06
	.byte		        Cn1 
	.byte		N05   , Fs1 , v052
	.byte		N05   , An1 , v112
	.byte	W06
	.byte		        Cn1 
	.byte		N05   , Cs2 , v052
	.byte		N05   , En2 
	.byte	W06
	.byte		        Cn1 , v112
	.byte		N05   , Fs1 , v052
	.byte		N05   , An1 , v112
	.byte	W06
	.byte		        Cn1 
	.byte		N05   , Fs1 , v052
	.byte		N05   , An1 , v112
	.byte	W06
	.byte		        Cn1 
	.byte		N05   , Fs1 , v052
	.byte		N05   , An1 , v112
	.byte	W06
	.byte		        Cn1 
	.byte		N05   , Fs1 , v052
	.byte		N05   , An1 , v112
	.byte	W06
	.byte		        Cn1 
	.byte		N05   , Fs1 , v052
	.byte		N05   , An1 , v112
	.byte	W06
	.byte		        Cn1 
	.byte		N05   , Dn1 
	.byte		N05   , Cs2 , v052
	.byte		N05   , En2 
	.byte	W06
	.byte		        Cn1 , v112
	.byte		N05   , Fs1 , v052
	.byte		N05   , An1 , v112
	.byte	W06
	.byte		N17   , Cn1 
	.byte		N17   , Fs1 , v052
	.byte		N17   , An1 , v112
	.byte		N17   , Cs2 , v052
	.byte		N17   , An2 
	.byte	W36
	.byte	PEND
@ 109   ----------------------------------------
that_persons_name_is_8_109:
	.byte	W12
	.byte		N23   , Cn1 , v052
	.byte		N23   , Cs1 , v112
	.byte	W06
	.byte		N05   , Fs1 , v052
	.byte	W06
	.byte		N05   
	.byte	W06
	.byte		N05   
	.byte	W06
	.byte		N23   , Cn1 
	.byte		N23   , Cs1 , v112
	.byte	W06
	.byte		N05   , Fs1 , v052
	.byte	W06
	.byte		N05   
	.byte	W06
	.byte		N05   
	.byte	W06
	.byte		N23   , Cn1 
	.byte	W06
	.byte		N05   , Fs1 
	.byte	W06
	.byte		N05   
	.byte	W06
	.byte		N05   
	.byte	W06
	.byte		N23   , Cn1 
	.byte	W06
	.byte		N05   , Fs1 
	.byte	W06
	.byte	PEND
@ 110   ----------------------------------------
	.byte	PATT
	 .word	that_persons_name_is_8_016
@ 111   ----------------------------------------
	.byte	PATT
	 .word	that_persons_name_is_8_009
@ 112   ----------------------------------------
	.byte	PATT
	 .word	that_persons_name_is_8_010
@ 113   ----------------------------------------
	.byte	PATT
	 .word	that_persons_name_is_8_009
@ 114   ----------------------------------------
	.byte	PATT
	 .word	that_persons_name_is_8_010
@ 115   ----------------------------------------
	.byte	PATT
	 .word	that_persons_name_is_8_009
@ 116   ----------------------------------------
	.byte	PATT
	 .word	that_persons_name_is_8_014
@ 117   ----------------------------------------
	.byte	PATT
	 .word	that_persons_name_is_8_015
@ 118   ----------------------------------------
	.byte	PATT
	 .word	that_persons_name_is_8_016
@ 119   ----------------------------------------
	.byte	PATT
	 .word	that_persons_name_is_8_009
@ 120   ----------------------------------------
	.byte	PATT
	 .word	that_persons_name_is_8_010
@ 121   ----------------------------------------
	.byte	PATT
	 .word	that_persons_name_is_8_009
@ 122   ----------------------------------------
	.byte	PATT
	 .word	that_persons_name_is_8_010
@ 123   ----------------------------------------
	.byte	PATT
	 .word	that_persons_name_is_8_009
@ 124   ----------------------------------------
	.byte	PATT
	 .word	that_persons_name_is_8_014
@ 125   ----------------------------------------
	.byte	PATT
	 .word	that_persons_name_is_8_023
@ 126   ----------------------------------------
	.byte	PATT
	 .word	that_persons_name_is_8_024
@ 127   ----------------------------------------
	.byte	PATT
	 .word	that_persons_name_is_8_025
@ 128   ----------------------------------------
	.byte	PATT
	 .word	that_persons_name_is_8_026
@ 129   ----------------------------------------
that_persons_name_is_8_129:
	.byte		N11   , Dn1 , v096
	.byte		N11   , Fs1 , v052
	.byte	W12
	.byte		N05   , Cn1 , v096
	.byte		N11   , Fs1 , v052
	.byte		N11   , Cs2 
	.byte	W06
	.byte		N05   , Cn1 , v096
	.byte	W06
	.byte		N11   , Dn1 
	.byte		N11   , Fs1 , v052
	.byte	W12
	.byte		N05   , Cn1 , v096
	.byte		N11   , As1 , v052
	.byte	W06
	.byte		N05   , Cn1 , v096
	.byte	W06
	.byte		N11   , Fs1 , v052
	.byte	W06
	.byte		N05   , Dn1 , v096
	.byte	W06
	.byte		        Cn1 
	.byte		N05   , Fs1 , v052
	.byte	W06
	.byte		        Cn1 , v096
	.byte		N05   , Fs1 , v052
	.byte	W06
	.byte		N11   , Dn1 , v096
	.byte		N11   , As1 , v052
	.byte	W12
	.byte		        Cn1 , v096
	.byte		N11   , Fs1 , v052
	.byte	W12
	.byte	PEND
@ 130   ----------------------------------------
	.byte	PATT
	 .word	that_persons_name_is_8_032
@ 131   ----------------------------------------
	.byte	PATT
	 .word	that_persons_name_is_8_029
@ 132   ----------------------------------------
	.byte	PATT
	 .word	that_persons_name_is_8_026
@ 133   ----------------------------------------
	.byte	PATT
	 .word	that_persons_name_is_8_129
@ 134   ----------------------------------------
	.byte	PATT
	 .word	that_persons_name_is_8_032
@ 135   ----------------------------------------
	.byte	PATT
	 .word	that_persons_name_is_8_033
@ 136   ----------------------------------------
	.byte	PATT
	 .word	that_persons_name_is_8_009
@ 137   ----------------------------------------
	.byte	PATT
	 .word	that_persons_name_is_8_010
@ 138   ----------------------------------------
	.byte	PATT
	 .word	that_persons_name_is_8_009
@ 139   ----------------------------------------
	.byte	PATT
	 .word	that_persons_name_is_8_010
@ 140   ----------------------------------------
	.byte	PATT
	 .word	that_persons_name_is_8_009
@ 141   ----------------------------------------
	.byte	PATT
	 .word	that_persons_name_is_8_014
@ 142   ----------------------------------------
	.byte	PATT
	 .word	that_persons_name_is_8_015
@ 143   ----------------------------------------
	.byte	PATT
	 .word	that_persons_name_is_8_016
@ 144   ----------------------------------------
	.byte	PATT
	 .word	that_persons_name_is_8_009
@ 145   ----------------------------------------
	.byte	PATT
	 .word	that_persons_name_is_8_010
@ 146   ----------------------------------------
	.byte	PATT
	 .word	that_persons_name_is_8_009
@ 147   ----------------------------------------
	.byte	PATT
	 .word	that_persons_name_is_8_010
@ 148   ----------------------------------------
	.byte	PATT
	 .word	that_persons_name_is_8_009
@ 149   ----------------------------------------
	.byte	PATT
	 .word	that_persons_name_is_8_014
@ 150   ----------------------------------------
	.byte	PATT
	 .word	that_persons_name_is_8_023
@ 151   ----------------------------------------
	.byte	PATT
	 .word	that_persons_name_is_8_024
@ 152   ----------------------------------------
	.byte	PATT
	 .word	that_persons_name_is_8_025
@ 153   ----------------------------------------
	.byte	PATT
	 .word	that_persons_name_is_8_026
@ 154   ----------------------------------------
	.byte	PATT
	 .word	that_persons_name_is_8_129
@ 155   ----------------------------------------
	.byte	PATT
	 .word	that_persons_name_is_8_032
@ 156   ----------------------------------------
	.byte	PATT
	 .word	that_persons_name_is_8_029
@ 157   ----------------------------------------
	.byte	PATT
	 .word	that_persons_name_is_8_026
@ 158   ----------------------------------------
	.byte	PATT
	 .word	that_persons_name_is_8_129
@ 159   ----------------------------------------
	.byte	PATT
	 .word	that_persons_name_is_8_032
@ 160   ----------------------------------------
	.byte	PATT
	 .word	that_persons_name_is_8_058
@ 161   ----------------------------------------
	.byte	PATT
	 .word	that_persons_name_is_8_059
@ 162   ----------------------------------------
	.byte	PATT
	 .word	that_persons_name_is_8_058
@ 163   ----------------------------------------
	.byte		N11   , Dn1 , v096
	.byte		N11   , Fs1 , v052
	.byte	W12
	.byte		N05   , Cn1 , v096
	.byte		N11   , Ds2 , v052
	.byte	W06
	.byte		N05   , Cn1 , v096
	.byte	W06
	.byte		        Dn1 
	.byte		N11   , Ds2 , v052
	.byte	W06
	.byte		N05   , Dn1 , v096
	.byte	W06
	.byte		        Cn1 
	.byte		N11   , As1 , v052
	.byte	W06
	.byte		N05   , Cn1 , v096
	.byte	W06
	.byte		N23   , Ds2 , v052
	.byte	W06
	.byte		N05   , Dn1 , v096
	.byte	W06
	.byte		        Cn1 
	.byte	W06
	.byte		N05   
	.byte	W06
	.byte		        Dn1 
	.byte		N11   , Fs1 , v052
	.byte	W06
	.byte		N05   , Dn1 , v096
	.byte	W06
	.byte		N11   , Cn1 
	.byte		N11   , Fs1 , v052
	.byte	W12
@ 164   ----------------------------------------
	.byte	PATT
	 .word	that_persons_name_is_8_062
@ 165   ----------------------------------------
	.byte	PATT
	 .word	that_persons_name_is_8_063
@ 166   ----------------------------------------
	.byte		N11   , Dn1 , v096
	.byte		N11   , Fs1 , v052
	.byte	W12
	.byte		        Cn1 , v096
	.byte		N11   , Dn1 
	.byte		N11   , Cs2 , v052
	.byte		N11   , Ds2 
	.byte	W12
	.byte		N11   
	.byte	W12
	.byte		        As1 
	.byte	W12
	.byte		N05   , Cn1 , v096
	.byte		N11   , Ds2 , v052
	.byte	W06
	.byte		N05   , Cn1 , v096
	.byte		N05   , Dn1 
	.byte	W06
	.byte		N11   , Cn1 
	.byte		N11   , Dn1 
	.byte		N11   , Cs2 , v052
	.byte		N11   , Ds2 
	.byte	W12
	.byte		        Fs1 
	.byte	W12
	.byte		        Cn1 , v096
	.byte		N11   , Dn1 
	.byte		N11   , Cs2 , v052
	.byte		N11   , Ds2 
	.byte	W12
@ 167   ----------------------------------------
	.byte	PATT
	 .word	that_persons_name_is_8_065
@ 168   ----------------------------------------
	.byte	PATT
	 .word	that_persons_name_is_8_072
@ 169   ----------------------------------------
	.byte	PATT
	 .word	that_persons_name_is_8_071
@ 170   ----------------------------------------
	.byte	PATT
	 .word	that_persons_name_is_8_072
@ 171   ----------------------------------------
	.byte	PATT
	 .word	that_persons_name_is_8_073
@ 172   ----------------------------------------
	.byte	PATT
	 .word	that_persons_name_is_8_072
@ 173   ----------------------------------------
	.byte	PATT
	 .word	that_persons_name_is_8_071
@ 174   ----------------------------------------
	.byte	PATT
	 .word	that_persons_name_is_8_072
@ 175   ----------------------------------------
	.byte	PATT
	 .word	that_persons_name_is_8_073
@ 176   ----------------------------------------
	.byte	PATT
	 .word	that_persons_name_is_8_072
@ 177   ----------------------------------------
	.byte	PATT
	 .word	that_persons_name_is_8_071
@ 178   ----------------------------------------
	.byte	PATT
	 .word	that_persons_name_is_8_072
@ 179   ----------------------------------------
	.byte	PATT
	 .word	that_persons_name_is_8_073
@ 180   ----------------------------------------
	.byte	PATT
	 .word	that_persons_name_is_8_072
@ 181   ----------------------------------------
	.byte	PATT
	 .word	that_persons_name_is_8_073
@ 182   ----------------------------------------
	.byte	PATT
	 .word	that_persons_name_is_8_073
@ 183   ----------------------------------------
	.byte	PATT
	 .word	that_persons_name_is_8_081
@ 184   ----------------------------------------
	.byte	PATT
	 .word	that_persons_name_is_8_082
@ 185   ----------------------------------------
	.byte	PATT
	 .word	that_persons_name_is_8_083
@ 186   ----------------------------------------
	.byte	PATT
	 .word	that_persons_name_is_8_009
@ 187   ----------------------------------------
	.byte	PATT
	 .word	that_persons_name_is_8_085
@ 188   ----------------------------------------
	.byte	PATT
	 .word	that_persons_name_is_8_086
@ 189   ----------------------------------------
	.byte	PATT
	 .word	that_persons_name_is_8_010
@ 190   ----------------------------------------
	.byte	PATT
	 .word	that_persons_name_is_8_009
@ 191   ----------------------------------------
	.byte	PATT
	 .word	that_persons_name_is_8_085
@ 192   ----------------------------------------
	.byte	PATT
	 .word	that_persons_name_is_8_090
@ 193   ----------------------------------------
	.byte	PATT
	 .word	that_persons_name_is_8_091
@ 194   ----------------------------------------
	.byte	PATT
	 .word	that_persons_name_is_8_092
@ 195   ----------------------------------------
	.byte	PATT
	 .word	that_persons_name_is_8_093
@ 196   ----------------------------------------
	.byte	PATT
	 .word	that_persons_name_is_8_092
@ 197   ----------------------------------------
	.byte	PATT
	 .word	that_persons_name_is_8_093
@ 198   ----------------------------------------
that_persons_name_is_8_198:
	.byte		N05   , Cn1 , v112
	.byte		N05   , Dn1 
	.byte		N05   , Cs2 , v052
	.byte		N05   , En2 
	.byte	W06
	.byte		        Cn1 , v112
	.byte		N05   , Dn1 
	.byte		N05   , Fs1 , v052
	.byte	W06
	.byte		        Cn1 , v112
	.byte		N05   , Cs2 , v052
	.byte		N05   , En2 
	.byte	W06
	.byte		        Cn1 , v112
	.byte		N05   , Fs1 , v052
	.byte	W06
	.byte		        Cn1 , v112
	.byte		N05   , Dn1 
	.byte		N05   , Fs1 , v052
	.byte	W06
	.byte		        Cn1 , v112
	.byte		N05   , Dn1 
	.byte		N05   , Fs1 , v052
	.byte	W06
	.byte		        Cn1 , v112
	.byte		N05   , Fs1 , v052
	.byte	W06
	.byte		        Cn1 , v112
	.byte		N05   , Fs1 , v052
	.byte	W06
	.byte		        Cn1 , v112
	.byte		N05   , Dn1 
	.byte		N05   , Cs2 , v052
	.byte		N05   , En2 
	.byte	W06
	.byte		        Cn1 , v112
	.byte		N05   , Dn1 
	.byte		N05   , Fs1 , v052
	.byte	W06
	.byte		        Cn1 , v112
	.byte		N05   , Cn2 
	.byte		N05   , Cs2 , v052
	.byte		N05   , En2 
	.byte	W06
	.byte		        Cn1 , v112
	.byte		N05   , Fs1 , v052
	.byte		N05   , Cn2 , v112
	.byte	W06
	.byte		        Cn1 
	.byte		N05   , Bn1 
	.byte		N05   , Cs2 , v052
	.byte		N05   , En2 
	.byte	W06
	.byte		        Cn1 , v112
	.byte		N05   , Fs1 , v052
	.byte		N05   , Bn1 , v112
	.byte	W06
	.byte		        Cn1 
	.byte		N05   , Cn2 
	.byte		N05   , Cs2 , v052
	.byte		N05   , En2 
	.byte	W06
	.byte		        Cn1 , v112
	.byte		N05   , Fs1 , v052
	.byte		N05   , Cn2 , v112
	.byte	W06
	.byte	PEND
@ 199   ----------------------------------------
	.byte	PATT
	 .word	that_persons_name_is_8_097
@ 200   ----------------------------------------
	.byte	PATT
	 .word	that_persons_name_is_8_098
@ 201   ----------------------------------------
	.byte	PATT
	 .word	that_persons_name_is_8_099
@ 202   ----------------------------------------
	.byte	PATT
	 .word	that_persons_name_is_8_092
@ 203   ----------------------------------------
	.byte	PATT
	 .word	that_persons_name_is_8_093
@ 204   ----------------------------------------
	.byte	PATT
	 .word	that_persons_name_is_8_092
@ 205   ----------------------------------------
	.byte	PATT
	 .word	that_persons_name_is_8_093
@ 206   ----------------------------------------
	.byte	PATT
	 .word	that_persons_name_is_8_198
@ 207   ----------------------------------------
	.byte	PATT
	 .word	that_persons_name_is_8_097
@ 208   ----------------------------------------
	.byte	PATT
	 .word	that_persons_name_is_8_106
@ 209   ----------------------------------------
	.byte	PATT
	 .word	that_persons_name_is_8_106
@ 210   ----------------------------------------
	.byte	PATT
	 .word	that_persons_name_is_8_108
@ 211   ----------------------------------------
	.byte	PATT
	 .word	that_persons_name_is_8_109
@ 212   ----------------------------------------
	.byte		N05   , Fs1 , v052
	.byte	W06
	.byte		N05   
	.byte	W30
	.byte	GOTO
	 .word	that_persons_name_is_8_B1
that_persons_name_is_8_B2:
	.byte	FINE

@**************** Track 9 (Midi-Chn.13) ****************@

that_persons_name_is_9:
	.byte	KEYSH , that_persons_name_is_key+0
that_persons_name_is_9_B1:
@ 000   ----------------------------------------
	.byte		VOICE , 29
	.byte		VOL   , 127*that_persons_name_is_mvl/mxv
	.byte		PAN   , c_v+0
	.byte	W96
@ 001   ----------------------------------------
	.byte	W96
@ 002   ----------------------------------------
	.byte	W96
@ 003   ----------------------------------------
	.byte	W96
@ 004   ----------------------------------------
	.byte	W96
@ 005   ----------------------------------------
	.byte	W96
@ 006   ----------------------------------------
	.byte	W96
@ 007   ----------------------------------------
	.byte	W96
@ 008   ----------------------------------------
	.byte	W96
@ 009   ----------------------------------------
	.byte	W96
@ 010   ----------------------------------------
	.byte	W96
@ 011   ----------------------------------------
	.byte	W96
@ 012   ----------------------------------------
	.byte	W96
@ 013   ----------------------------------------
	.byte	W96
@ 014   ----------------------------------------
	.byte	W96
@ 015   ----------------------------------------
	.byte	W96
@ 016   ----------------------------------------
	.byte	W96
@ 017   ----------------------------------------
	.byte	W96
@ 018   ----------------------------------------
	.byte	W96
@ 019   ----------------------------------------
	.byte	W96
@ 020   ----------------------------------------
	.byte	W96
@ 021   ----------------------------------------
	.byte	W96
@ 022   ----------------------------------------
	.byte	W96
@ 023   ----------------------------------------
	.byte	W96
@ 024   ----------------------------------------
	.byte	W96
@ 025   ----------------------------------------
	.byte	W96
@ 026   ----------------------------------------
	.byte	W96
@ 027   ----------------------------------------
	.byte	W96
@ 028   ----------------------------------------
	.byte	W96
@ 029   ----------------------------------------
	.byte	W96
@ 030   ----------------------------------------
	.byte	W96
@ 031   ----------------------------------------
	.byte	W96
@ 032   ----------------------------------------
	.byte	W96
@ 033   ----------------------------------------
	.byte	W96
@ 034   ----------------------------------------
	.byte	W96
@ 035   ----------------------------------------
	.byte	W96
@ 036   ----------------------------------------
	.byte	W96
@ 037   ----------------------------------------
	.byte	W96
@ 038   ----------------------------------------
	.byte	W96
@ 039   ----------------------------------------
	.byte	W96
@ 040   ----------------------------------------
	.byte	W96
@ 041   ----------------------------------------
	.byte	W96
@ 042   ----------------------------------------
	.byte	W96
@ 043   ----------------------------------------
	.byte	W96
@ 044   ----------------------------------------
	.byte	W96
@ 045   ----------------------------------------
	.byte	W96
@ 046   ----------------------------------------
	.byte	W96
@ 047   ----------------------------------------
	.byte	W96
@ 048   ----------------------------------------
that_persons_name_is_9_048:
	.byte	W12
	.byte		N11   , En2 , v096
	.byte		N11   , En3 
	.byte	W18
	.byte		N05   , En2 
	.byte		N05   , En3 
	.byte	W18
	.byte		N23   , En2 
	.byte		N23   , En3 
	.byte	W24
	.byte		N11   , Fn2 
	.byte		N11   , Fn3 
	.byte	W12
	.byte		        Cn2 
	.byte		N11   , Cn3 
	.byte	W12
	.byte	PEND
@ 049   ----------------------------------------
that_persons_name_is_9_049:
	.byte		N11   , Fn2 , v096
	.byte		N11   , Fn3 
	.byte	W12
	.byte		N17   , Fs2 
	.byte		N17   , Fs3 
	.byte	W18
	.byte		        Dn2 
	.byte		N17   , Dn3 
	.byte	W18
	.byte		N11   , Fs2 
	.byte		N11   , Fs3 
	.byte	W12
	.byte		N32   , Gs2 
	.byte		N32   , Gs3 
	.byte	W36
	.byte	PEND
@ 050   ----------------------------------------
	.byte	W96
@ 051   ----------------------------------------
	.byte	W96
@ 052   ----------------------------------------
that_persons_name_is_9_052:
	.byte		N11   , Cs2 , v096
	.byte		N11   , Cs3 
	.byte	W12
	.byte		N17   , Cn2 
	.byte		N17   , Cn3 
	.byte	W18
	.byte		        An1 
	.byte		N17   , An2 
	.byte	W18
	.byte		N23   , Fs1 
	.byte		N23   , Fs2 
	.byte	W24
	.byte		N11   , Cn2 
	.byte		N11   , Cn3 
	.byte	W12
	.byte		        An1 
	.byte		N11   , An2 
	.byte	W12
	.byte	PEND
@ 053   ----------------------------------------
that_persons_name_is_9_053:
	.byte		N11   , Fs1 , v096
	.byte		N11   , Fs2 
	.byte	W12
	.byte		N17   , Cn2 
	.byte		N17   , Cn3 
	.byte	W18
	.byte		        An1 
	.byte		N17   , An2 
	.byte	W18
	.byte		N23   , Fs1 
	.byte		N23   , Fs2 
	.byte	W24
	.byte		N11   , Cn2 
	.byte		N11   , Cn3 
	.byte	W12
	.byte		        An1 
	.byte		N11   , An2 
	.byte	W12
	.byte	PEND
@ 054   ----------------------------------------
	.byte		        Fs1 
	.byte		N11   , Fs2 
	.byte	W96
@ 055   ----------------------------------------
	.byte	W96
@ 056   ----------------------------------------
that_persons_name_is_9_056:
	.byte		N11   , Fs2 , v096
	.byte		N11   , Fs3 
	.byte	W12
	.byte		N17   , Fn2 
	.byte		N17   , Fn3 
	.byte	W18
	.byte		        Dn2 
	.byte		N17   , Dn3 
	.byte	W18
	.byte		N23   , Bn1 
	.byte		N23   , Bn2 
	.byte	W24
	.byte		N11   , Fn2 
	.byte		N11   , Fn3 
	.byte	W12
	.byte		        Dn2 
	.byte		N11   , Dn3 
	.byte	W12
	.byte	PEND
@ 057   ----------------------------------------
that_persons_name_is_9_057:
	.byte		N11   , Bn1 , v096
	.byte		N11   , Bn2 
	.byte	W12
	.byte		N17   , Fn2 
	.byte		N17   , Fn3 
	.byte	W18
	.byte		        Dn2 
	.byte		N17   , Dn3 
	.byte	W18
	.byte		N11   , Bn1 
	.byte		N11   , Bn2 
	.byte	W12
	.byte		N17   , Fs2 
	.byte		N17   , Fs3 
	.byte	W18
	.byte		        Gs2 
	.byte		N17   , Gs3 
	.byte	W18
	.byte	PEND
@ 058   ----------------------------------------
that_persons_name_is_9_058:
	.byte		N11   , An2 , v096
	.byte		N11   , An3 
	.byte	W12
	.byte		N68   , En3 
	.byte	W84
	.byte	PEND
@ 059   ----------------------------------------
that_persons_name_is_9_059:
	.byte	W36
	.byte		N11   , En3 , v096
	.byte	W12
	.byte		        Fs3 
	.byte	W12
	.byte		        Gn3 
	.byte	W12
	.byte		        Fs3 
	.byte	W12
	.byte		N04   
	.byte	W04
	.byte		N07   , En3 
	.byte	W08
	.byte	PEND
@ 060   ----------------------------------------
that_persons_name_is_9_060:
	.byte		N11   , Dn3 , v096
	.byte	W24
	.byte		N68   , En3 
	.byte	W72
	.byte	PEND
@ 061   ----------------------------------------
that_persons_name_is_9_061:
	.byte	W36
	.byte		N11   , En3 , v096
	.byte	W12
	.byte		        Fs3 
	.byte	W12
	.byte		        Bn2 
	.byte	W12
	.byte		        Cn3 
	.byte	W12
	.byte		N11   
	.byte	W12
	.byte	PEND
@ 062   ----------------------------------------
that_persons_name_is_9_062:
	.byte		N11   , Dn3 , v096
	.byte	W24
	.byte		N05   , En3 
	.byte	W06
	.byte		        Gn3 
	.byte	W06
	.byte		        Bn3 
	.byte	W06
	.byte		        Gn3 
	.byte	W06
	.byte		        En3 
	.byte	W06
	.byte		        Bn3 
	.byte	W06
	.byte		        Cn4 
	.byte	W06
	.byte		        Gn3 
	.byte	W06
	.byte		        En3 
	.byte	W06
	.byte		        Cn3 
	.byte	W06
	.byte		        Bn2 
	.byte	W06
	.byte		        Cn3 
	.byte	W06
	.byte	PEND
@ 063   ----------------------------------------
that_persons_name_is_9_063:
	.byte		N05   , En3 , v096
	.byte	W06
	.byte		        Gn2 
	.byte	W06
	.byte		        Dn2 
	.byte	W06
	.byte		        Fs2 
	.byte	W06
	.byte		        An2 
	.byte	W06
	.byte		        Dn3 
	.byte	W06
	.byte		        An2 
	.byte	W06
	.byte		        Fs2 
	.byte	W06
	.byte		        An2 
	.byte	W06
	.byte		        Dn3 
	.byte	W06
	.byte		        En3 
	.byte	W06
	.byte		        Bn2 
	.byte	W06
	.byte		        Gn2 
	.byte	W06
	.byte		        En3 
	.byte	W06
	.byte		        Fs3 
	.byte	W06
	.byte		        Gn3 
	.byte	W06
	.byte	PEND
@ 064   ----------------------------------------
that_persons_name_is_9_064:
	.byte		N05   , En3 , v096
	.byte	W06
	.byte		        Bn2 
	.byte	W06
	.byte		N23   , An3 
	.byte	W36
	.byte		N05   , Gn3 
	.byte	W06
	.byte		        Fs3 
	.byte	W06
	.byte		N23   , En3 
	.byte	W24
	.byte		        Dn3 
	.byte	W12
	.byte	PEND
@ 065   ----------------------------------------
that_persons_name_is_9_065:
	.byte	W12
	.byte		N11   , En4 , v112
	.byte	W12
	.byte		        Ds4 
	.byte	W12
	.byte		        En4 
	.byte	W12
	.byte		N05   , Gs3 
	.byte	W06
	.byte		N32   , En4 
	.byte	W42
	.byte	PEND
@ 066   ----------------------------------------
that_persons_name_is_9_066:
	.byte		N11   , En4 , v112
	.byte	W12
	.byte		N17   , Ds4 
	.byte	W18
	.byte		        Bn3 
	.byte	W18
	.byte		N11   , Gs3 
	.byte	W12
	.byte		N32   , Bn3 
	.byte	W36
	.byte	PEND
@ 067   ----------------------------------------
that_persons_name_is_9_067:
	.byte	W12
	.byte		N11   , Cs4 , v112
	.byte	W12
	.byte		        Bn3 
	.byte	W12
	.byte		        Cs4 
	.byte	W12
	.byte		N05   , Fs3 
	.byte	W06
	.byte		N17   , Cs4 
	.byte	W18
	.byte		N11   , Bn3 
	.byte	W12
	.byte		        Cs4 
	.byte	W12
	.byte	PEND
@ 068   ----------------------------------------
that_persons_name_is_9_068:
	.byte		N05   , En3 , v112
	.byte	W06
	.byte		        Fs3 
	.byte	W18
	.byte		N68   , Gs3 
	.byte	W72
	.byte	PEND
@ 069   ----------------------------------------
that_persons_name_is_9_069:
	.byte	W12
	.byte		N11   , An3 , v112
	.byte	W12
	.byte		        Gs3 
	.byte	W12
	.byte		        An3 
	.byte	W12
	.byte		N05   , Cs3 
	.byte	W06
	.byte		N32   , An3 
	.byte	W42
	.byte	PEND
@ 070   ----------------------------------------
that_persons_name_is_9_070:
	.byte		N11   , An3 , v112
	.byte	W12
	.byte		        Gs3 
	.byte	W12
	.byte		        Fs3 
	.byte	W12
	.byte		        Gs3 
	.byte	W12
	.byte		N05   , Bn2 
	.byte	W06
	.byte		N32   , Gs3 
	.byte	W42
	.byte	PEND
@ 071   ----------------------------------------
that_persons_name_is_9_071:
	.byte		N11   , Gs3 , v112
	.byte	W12
	.byte		        Gn3 
	.byte	W12
	.byte		        Fn3 
	.byte	W12
	.byte		        Gn3 
	.byte	W12
	.byte		N05   , As2 
	.byte	W06
	.byte		N17   , Gn3 
	.byte	W18
	.byte		N11   , Fn3 
	.byte	W12
	.byte		        Gn3 
	.byte	W12
	.byte	PEND
@ 072   ----------------------------------------
that_persons_name_is_9_072:
	.byte		N05   , As2 , v112
	.byte	W06
	.byte		N52   , Gs3 
	.byte	W78
	.byte		N11   , Cs4 
	.byte	W12
	.byte	PEND
@ 073   ----------------------------------------
that_persons_name_is_9_073:
	.byte		N11   , Ds4 , v112
	.byte	W12
	.byte		        En4 
	.byte	W12
	.byte		        Ds4 
	.byte	W12
	.byte		        En4 
	.byte	W12
	.byte		N05   , Gs3 
	.byte	W06
	.byte		N32   , En4 
	.byte	W42
	.byte	PEND
@ 074   ----------------------------------------
	.byte	PATT
	 .word	that_persons_name_is_9_066
@ 075   ----------------------------------------
	.byte	PATT
	 .word	that_persons_name_is_9_067
@ 076   ----------------------------------------
	.byte	PATT
	 .word	that_persons_name_is_9_068
@ 077   ----------------------------------------
	.byte	PATT
	 .word	that_persons_name_is_9_069
@ 078   ----------------------------------------
that_persons_name_is_9_078:
	.byte		N11   , An3 , v112
	.byte	W12
	.byte		        Bn3 
	.byte	W12
	.byte		        An3 
	.byte	W12
	.byte		        Bn3 
	.byte	W12
	.byte		N05   , Ds3 
	.byte	W06
	.byte		N32   , Bn3 
	.byte	W42
	.byte	PEND
@ 079   ----------------------------------------
that_persons_name_is_9_079:
	.byte		N11   , Bn3 , v112
	.byte	W12
	.byte		        Cs4 
	.byte	W12
	.byte		        As3 
	.byte	W12
	.byte		        Cs4 
	.byte	W12
	.byte		N05   , Gn3 
	.byte	W06
	.byte		N17   , Cs4 
	.byte	W18
	.byte		N11   , As3 
	.byte	W12
	.byte		        Cs4 
	.byte	W12
	.byte	PEND
@ 080   ----------------------------------------
that_persons_name_is_9_080:
	.byte		N11   , Ds4 , v112
	.byte	W12
	.byte		N68   
	.byte	W72
	.byte		N11   , Cs4 
	.byte	W12
	.byte	PEND
@ 081   ----------------------------------------
that_persons_name_is_9_081:
	.byte		N11   , Ds4 , v112
	.byte	W12
	.byte		        En4 
	.byte	W12
	.byte		        Ds4 
	.byte	W12
	.byte		        En4 
	.byte	W12
	.byte		N05   , An3 
	.byte	W06
	.byte		N32   , En4 
	.byte	W42
	.byte	PEND
@ 082   ----------------------------------------
that_persons_name_is_9_082:
	.byte		N11   , En4 , v112
	.byte	W12
	.byte		        Ds4 
	.byte	W12
	.byte		        Cs4 
	.byte	W12
	.byte		        Ds4 
	.byte	W12
	.byte		N05   , Gs3 
	.byte	W06
	.byte		N17   , Ds4 
	.byte	W18
	.byte		        Cs4 
	.byte	W18
	.byte		        Ds4 
	.byte	W06
	.byte	PEND
@ 083   ----------------------------------------
	.byte	W12
	.byte		N92   , En4 
	.byte	W84
@ 084   ----------------------------------------
	.byte	W12
	.byte		        En5 , v052
	.byte	W84
@ 085   ----------------------------------------
	.byte	W96
@ 086   ----------------------------------------
	.byte	W96
@ 087   ----------------------------------------
	.byte	W96
@ 088   ----------------------------------------
	.byte	W96
@ 089   ----------------------------------------
	.byte	W96
@ 090   ----------------------------------------
	.byte	W96
@ 091   ----------------------------------------
that_persons_name_is_9_091:
	.byte	W12
	.byte		N05   , As3 , v112
	.byte	W06
	.byte		        Fn3 
	.byte	W06
	.byte		        Cs3 
	.byte	W06
	.byte		        Fn3 
	.byte	W06
	.byte		        As2 
	.byte	W06
	.byte		        Fn3 
	.byte	W06
	.byte		        Cs3 
	.byte		N05   , As3 
	.byte	W06
	.byte		        Fn3 
	.byte	W06
	.byte		        An3 
	.byte	W06
	.byte		        Fn3 
	.byte	W06
	.byte		        Cn3 
	.byte	W06
	.byte		        Fn3 
	.byte	W06
	.byte		        An2 
	.byte	W06
	.byte		        Fn3 
	.byte	W06
	.byte	PEND
@ 092   ----------------------------------------
that_persons_name_is_9_092:
	.byte		N05   , Cn3 , v112
	.byte		N05   , An3 
	.byte	W06
	.byte		        Fn3 
	.byte	W06
	.byte		        As3 
	.byte	W06
	.byte		        Fn3 
	.byte	W06
	.byte		        Cs3 
	.byte	W06
	.byte		        Fn3 
	.byte	W06
	.byte		        As2 
	.byte	W06
	.byte		        Fn3 
	.byte	W06
	.byte		        Cs3 
	.byte		N05   , As3 
	.byte	W06
	.byte		        Fn3 
	.byte	W06
	.byte		        Cn4 
	.byte	W06
	.byte		        Ds3 
	.byte	W06
	.byte		        As3 
	.byte	W06
	.byte		        Cn3 
	.byte	W06
	.byte		        Gs3 
	.byte	W06
	.byte		        Gs2 
	.byte	W06
	.byte	PEND
@ 093   ----------------------------------------
that_persons_name_is_9_093:
	.byte		N05   , Cn4 , v112
	.byte	W06
	.byte		        Ds3 
	.byte	W06
	.byte		        Cs4 
	.byte	W06
	.byte		        Gs3 
	.byte	W06
	.byte		        En3 
	.byte	W06
	.byte		        Gs3 
	.byte	W06
	.byte		        Cs3 
	.byte	W06
	.byte		        Gs3 
	.byte	W06
	.byte		        En3 
	.byte		N05   , Cs4 
	.byte	W06
	.byte		        Gs3 
	.byte	W06
	.byte		        Cn4 
	.byte	W06
	.byte		        Gs3 
	.byte	W06
	.byte		        Ds3 
	.byte	W06
	.byte		        Gs3 
	.byte	W06
	.byte		        Cn3 
	.byte	W06
	.byte		        Gs3 
	.byte	W06
	.byte	PEND
@ 094   ----------------------------------------
that_persons_name_is_9_094:
	.byte		N05   , Ds3 , v112
	.byte		N05   , Cn4 
	.byte	W06
	.byte		        Gs3 
	.byte	W06
	.byte		        Cs4 
	.byte	W06
	.byte		        Gs3 
	.byte	W06
	.byte		        En3 
	.byte	W06
	.byte		        Gs3 
	.byte	W06
	.byte		        Cs3 
	.byte	W06
	.byte		        Gs3 
	.byte	W06
	.byte		        En3 
	.byte		N05   , Cs4 
	.byte	W06
	.byte		        Gs3 
	.byte	W06
	.byte		        Dn4 
	.byte	W06
	.byte		        Gn3 
	.byte	W06
	.byte		        Bn3 
	.byte	W06
	.byte		        Ds3 
	.byte	W06
	.byte		        As3 
	.byte	W06
	.byte		        Fn3 
	.byte	W06
	.byte	PEND
@ 095   ----------------------------------------
that_persons_name_is_9_095:
	.byte		N05   , Dn4 , v112
	.byte	W06
	.byte		        Gn3 
	.byte	W06
	.byte		        Ds4 
	.byte	W06
	.byte		        As3 
	.byte	W06
	.byte		        Fs3 
	.byte	W06
	.byte		        As3 
	.byte	W06
	.byte		        Ds3 
	.byte	W06
	.byte		        As3 
	.byte	W06
	.byte		        Fs3 
	.byte		N05   , Ds4 
	.byte	W06
	.byte		        As3 
	.byte	W06
	.byte		        Dn4 
	.byte	W06
	.byte		        As3 
	.byte	W06
	.byte		        Fn3 
	.byte	W06
	.byte		        As3 
	.byte	W06
	.byte		        Dn3 
	.byte	W06
	.byte		        As3 
	.byte	W06
	.byte	PEND
@ 096   ----------------------------------------
that_persons_name_is_9_096:
	.byte		N05   , Fn3 , v112
	.byte		N05   , Dn4 
	.byte	W06
	.byte		        As3 
	.byte	W06
	.byte		        Ds4 
	.byte	W06
	.byte		        As3 
	.byte	W06
	.byte		        Fs3 
	.byte	W06
	.byte		        As3 
	.byte	W06
	.byte		        Ds3 
	.byte	W06
	.byte		        As3 
	.byte	W06
	.byte		        Fs3 
	.byte		N05   , Ds4 
	.byte	W06
	.byte		        As3 
	.byte	W06
	.byte		        En4 
	.byte	W06
	.byte		        An3 
	.byte	W06
	.byte		        Cs4 
	.byte	W06
	.byte		        Fn3 
	.byte	W06
	.byte		        Cn4 
	.byte	W06
	.byte		        Gn3 
	.byte	W06
	.byte	PEND
@ 097   ----------------------------------------
that_persons_name_is_9_097:
	.byte		N05   , En4 , v112
	.byte	W06
	.byte		        An3 
	.byte	W06
	.byte		        Fn4 
	.byte	W06
	.byte		        Cs4 
	.byte	W06
	.byte		        As3 
	.byte	W06
	.byte		        Fn3 
	.byte	W06
	.byte		        Cs3 
	.byte	W06
	.byte		        Fn2 
	.byte	W06
	.byte		        Fn4 
	.byte	W06
	.byte		        Cs4 
	.byte	W06
	.byte		        As3 
	.byte	W06
	.byte		        Fn3 
	.byte	W06
	.byte		        Cs3 
	.byte	W06
	.byte		        Fn2 
	.byte	W06
	.byte		        Fn4 
	.byte	W06
	.byte		        Cs4 
	.byte	W06
	.byte	PEND
@ 098   ----------------------------------------
that_persons_name_is_9_098:
	.byte		N05   , As3 , v112
	.byte	W06
	.byte		        Fn3 
	.byte	W06
	.byte		N05   
	.byte	W06
	.byte		        Gs3 
	.byte	W06
	.byte		        Cn4 
	.byte	W06
	.byte		        Fn3 
	.byte	W06
	.byte		        Ds3 
	.byte	W06
	.byte		        Gn3 
	.byte	W06
	.byte		        As3 
	.byte	W06
	.byte		        Ds3 
	.byte	W06
	.byte		        Cs3 
	.byte	W06
	.byte		        Fn3 
	.byte	W06
	.byte		        Gs3 
	.byte	W06
	.byte		        Cs3 
	.byte	W06
	.byte		        Cn3 
	.byte	W06
	.byte		        Ds3 
	.byte	W06
	.byte	PEND
@ 099   ----------------------------------------
that_persons_name_is_9_099:
	.byte		N05   , Gn3 , v112
	.byte	W06
	.byte		        Cn3 
	.byte	W06
	.byte		        As3 
	.byte	W06
	.byte		        Fn3 
	.byte	W06
	.byte		        Cs3 
	.byte	W06
	.byte		        Fn3 
	.byte	W06
	.byte		        As2 
	.byte	W06
	.byte		        Fn3 
	.byte	W06
	.byte		        Cs3 
	.byte		N05   , As3 
	.byte	W06
	.byte		        Fn3 
	.byte	W06
	.byte		        An3 
	.byte	W06
	.byte		        Fn3 
	.byte	W06
	.byte		        Cn3 
	.byte	W06
	.byte		        Fn3 
	.byte	W06
	.byte		        An2 
	.byte	W06
	.byte		        Fn3 
	.byte	W06
	.byte	PEND
@ 100   ----------------------------------------
	.byte	PATT
	 .word	that_persons_name_is_9_092
@ 101   ----------------------------------------
	.byte	PATT
	 .word	that_persons_name_is_9_093
@ 102   ----------------------------------------
	.byte	PATT
	 .word	that_persons_name_is_9_094
@ 103   ----------------------------------------
	.byte	PATT
	 .word	that_persons_name_is_9_095
@ 104   ----------------------------------------
	.byte	PATT
	 .word	that_persons_name_is_9_096
@ 105   ----------------------------------------
	.byte	PATT
	 .word	that_persons_name_is_9_097
@ 106   ----------------------------------------
that_persons_name_is_9_106:
	.byte		N05   , As3 , v112
	.byte	W06
	.byte		        Fn3 
	.byte	W06
	.byte		        Fn4 
	.byte	W06
	.byte		        Cn4 
	.byte	W06
	.byte		        An3 
	.byte	W06
	.byte		        Fn3 
	.byte	W06
	.byte		        Cn3 
	.byte	W06
	.byte		        Fn2 
	.byte	W06
	.byte		        Fn4 
	.byte	W06
	.byte		        Cn4 
	.byte	W06
	.byte		        An3 
	.byte	W06
	.byte		        Fn3 
	.byte	W06
	.byte		        Cn3 
	.byte	W06
	.byte		        Fn2 
	.byte	W06
	.byte		        Fn4 
	.byte	W06
	.byte		        Cn4 
	.byte	W06
	.byte	PEND
@ 107   ----------------------------------------
that_persons_name_is_9_107:
	.byte		N05   , An3 , v112
	.byte	W06
	.byte		        Fn3 
	.byte	W06
	.byte		        Fn4 
	.byte	W06
	.byte		        Cs4 
	.byte	W06
	.byte		        As3 
	.byte	W06
	.byte		        Fn3 
	.byte	W06
	.byte		        Cs3 
	.byte	W06
	.byte		        Fn2 
	.byte	W06
	.byte		        Fn4 
	.byte	W06
	.byte		        Cs4 
	.byte	W06
	.byte		        As3 
	.byte	W06
	.byte		        Fn3 
	.byte	W06
	.byte		        Cs3 
	.byte	W06
	.byte		        Fn2 
	.byte	W06
	.byte		        Fn4 
	.byte	W06
	.byte		        Cs4 
	.byte	W06
	.byte	PEND
@ 108   ----------------------------------------
that_persons_name_is_9_108:
	.byte		N05   , As3 , v112
	.byte	W06
	.byte		        Fn3 
	.byte	W06
	.byte		        Fn4 
	.byte	W06
	.byte		        Cn4 
	.byte	W06
	.byte		        An3 
	.byte	W06
	.byte		        Fn3 
	.byte	W06
	.byte		        Cn3 
	.byte	W06
	.byte		        Fn2 
	.byte	W06
	.byte		        Fn4 
	.byte	W06
	.byte		        Cn4 
	.byte	W06
	.byte		N17   , Fn4 
	.byte	W36
	.byte	PEND
@ 109   ----------------------------------------
	.byte	W96
@ 110   ----------------------------------------
	.byte	W96
@ 111   ----------------------------------------
	.byte	W96
@ 112   ----------------------------------------
	.byte	W96
@ 113   ----------------------------------------
	.byte	W96
@ 114   ----------------------------------------
	.byte	W96
@ 115   ----------------------------------------
	.byte	W96
@ 116   ----------------------------------------
	.byte	W96
@ 117   ----------------------------------------
	.byte	W96
@ 118   ----------------------------------------
	.byte	W96
@ 119   ----------------------------------------
	.byte	W96
@ 120   ----------------------------------------
	.byte	W96
@ 121   ----------------------------------------
	.byte	W96
@ 122   ----------------------------------------
	.byte	W96
@ 123   ----------------------------------------
	.byte	W96
@ 124   ----------------------------------------
	.byte	W96
@ 125   ----------------------------------------
	.byte	W96
@ 126   ----------------------------------------
	.byte	W96
@ 127   ----------------------------------------
	.byte	W96
@ 128   ----------------------------------------
	.byte	W96
@ 129   ----------------------------------------
	.byte	W96
@ 130   ----------------------------------------
	.byte	W96
@ 131   ----------------------------------------
	.byte	W96
@ 132   ----------------------------------------
	.byte	W96
@ 133   ----------------------------------------
	.byte	W96
@ 134   ----------------------------------------
	.byte	W96
@ 135   ----------------------------------------
	.byte	W96
@ 136   ----------------------------------------
	.byte	W96
@ 137   ----------------------------------------
	.byte	W96
@ 138   ----------------------------------------
	.byte	W96
@ 139   ----------------------------------------
	.byte	W96
@ 140   ----------------------------------------
	.byte	W96
@ 141   ----------------------------------------
	.byte	W96
@ 142   ----------------------------------------
	.byte	W96
@ 143   ----------------------------------------
	.byte	W96
@ 144   ----------------------------------------
	.byte	W96
@ 145   ----------------------------------------
	.byte	W96
@ 146   ----------------------------------------
	.byte	W96
@ 147   ----------------------------------------
	.byte	W96
@ 148   ----------------------------------------
	.byte	W96
@ 149   ----------------------------------------
	.byte	W96
@ 150   ----------------------------------------
	.byte	PATT
	 .word	that_persons_name_is_9_048
@ 151   ----------------------------------------
	.byte	PATT
	 .word	that_persons_name_is_9_049
@ 152   ----------------------------------------
	.byte	W96
@ 153   ----------------------------------------
	.byte	W96
@ 154   ----------------------------------------
	.byte	PATT
	 .word	that_persons_name_is_9_052
@ 155   ----------------------------------------
	.byte	PATT
	 .word	that_persons_name_is_9_053
@ 156   ----------------------------------------
	.byte		N11   , Fs1 , v096
	.byte		N11   , Fs2 
	.byte	W96
@ 157   ----------------------------------------
	.byte	W96
@ 158   ----------------------------------------
	.byte	PATT
	 .word	that_persons_name_is_9_056
@ 159   ----------------------------------------
	.byte	PATT
	 .word	that_persons_name_is_9_057
@ 160   ----------------------------------------
	.byte	PATT
	 .word	that_persons_name_is_9_058
@ 161   ----------------------------------------
	.byte	PATT
	 .word	that_persons_name_is_9_059
@ 162   ----------------------------------------
	.byte	PATT
	 .word	that_persons_name_is_9_060
@ 163   ----------------------------------------
	.byte	PATT
	 .word	that_persons_name_is_9_061
@ 164   ----------------------------------------
	.byte	PATT
	 .word	that_persons_name_is_9_062
@ 165   ----------------------------------------
	.byte	PATT
	 .word	that_persons_name_is_9_063
@ 166   ----------------------------------------
	.byte	PATT
	 .word	that_persons_name_is_9_064
@ 167   ----------------------------------------
	.byte	PATT
	 .word	that_persons_name_is_9_065
@ 168   ----------------------------------------
	.byte	PATT
	 .word	that_persons_name_is_9_066
@ 169   ----------------------------------------
	.byte	PATT
	 .word	that_persons_name_is_9_067
@ 170   ----------------------------------------
	.byte	PATT
	 .word	that_persons_name_is_9_068
@ 171   ----------------------------------------
	.byte	PATT
	 .word	that_persons_name_is_9_069
@ 172   ----------------------------------------
	.byte	PATT
	 .word	that_persons_name_is_9_070
@ 173   ----------------------------------------
	.byte	PATT
	 .word	that_persons_name_is_9_071
@ 174   ----------------------------------------
	.byte	PATT
	 .word	that_persons_name_is_9_072
@ 175   ----------------------------------------
	.byte	PATT
	 .word	that_persons_name_is_9_073
@ 176   ----------------------------------------
	.byte	PATT
	 .word	that_persons_name_is_9_066
@ 177   ----------------------------------------
	.byte	PATT
	 .word	that_persons_name_is_9_067
@ 178   ----------------------------------------
	.byte	PATT
	 .word	that_persons_name_is_9_068
@ 179   ----------------------------------------
	.byte	PATT
	 .word	that_persons_name_is_9_069
@ 180   ----------------------------------------
	.byte	PATT
	 .word	that_persons_name_is_9_078
@ 181   ----------------------------------------
	.byte	PATT
	 .word	that_persons_name_is_9_079
@ 182   ----------------------------------------
	.byte	PATT
	 .word	that_persons_name_is_9_080
@ 183   ----------------------------------------
	.byte	PATT
	 .word	that_persons_name_is_9_081
@ 184   ----------------------------------------
	.byte	PATT
	 .word	that_persons_name_is_9_082
@ 185   ----------------------------------------
	.byte	W12
	.byte		N92   , En4 , v112
	.byte	W84
@ 186   ----------------------------------------
	.byte	W12
	.byte		        En5 , v052
	.byte	W84
@ 187   ----------------------------------------
	.byte	W96
@ 188   ----------------------------------------
	.byte	W96
@ 189   ----------------------------------------
	.byte	W96
@ 190   ----------------------------------------
	.byte	W96
@ 191   ----------------------------------------
	.byte	W96
@ 192   ----------------------------------------
	.byte	W96
@ 193   ----------------------------------------
	.byte	PATT
	 .word	that_persons_name_is_9_091
@ 194   ----------------------------------------
	.byte	PATT
	 .word	that_persons_name_is_9_092
@ 195   ----------------------------------------
	.byte	PATT
	 .word	that_persons_name_is_9_093
@ 196   ----------------------------------------
	.byte	PATT
	 .word	that_persons_name_is_9_094
@ 197   ----------------------------------------
	.byte	PATT
	 .word	that_persons_name_is_9_095
@ 198   ----------------------------------------
	.byte	PATT
	 .word	that_persons_name_is_9_096
@ 199   ----------------------------------------
	.byte	PATT
	 .word	that_persons_name_is_9_097
@ 200   ----------------------------------------
	.byte	PATT
	 .word	that_persons_name_is_9_098
@ 201   ----------------------------------------
	.byte	PATT
	 .word	that_persons_name_is_9_099
@ 202   ----------------------------------------
	.byte	PATT
	 .word	that_persons_name_is_9_092
@ 203   ----------------------------------------
	.byte	PATT
	 .word	that_persons_name_is_9_093
@ 204   ----------------------------------------
	.byte	PATT
	 .word	that_persons_name_is_9_094
@ 205   ----------------------------------------
	.byte	PATT
	 .word	that_persons_name_is_9_095
@ 206   ----------------------------------------
	.byte	PATT
	 .word	that_persons_name_is_9_096
@ 207   ----------------------------------------
	.byte	PATT
	 .word	that_persons_name_is_9_097
@ 208   ----------------------------------------
	.byte	PATT
	 .word	that_persons_name_is_9_106
@ 209   ----------------------------------------
	.byte	PATT
	 .word	that_persons_name_is_9_107
@ 210   ----------------------------------------
	.byte	PATT
	 .word	that_persons_name_is_9_108
@ 211   ----------------------------------------
	.byte	W96
@ 212   ----------------------------------------
	.byte	W36
	.byte	GOTO
	 .word	that_persons_name_is_9_B1
that_persons_name_is_9_B2:
	.byte	FINE

@**************** Track 10 (Midi-Chn.14) ****************@

that_persons_name_is_10:
	.byte	KEYSH , that_persons_name_is_key+0
that_persons_name_is_10_B1:
@ 000   ----------------------------------------
	.byte		VOICE , 31
	.byte		PAN   , c_v-2
	.byte		VOL   , 127*that_persons_name_is_mvl/mxv
	.byte	W96
@ 001   ----------------------------------------
	.byte	W96
@ 002   ----------------------------------------
	.byte	W96
@ 003   ----------------------------------------
	.byte	W96
@ 004   ----------------------------------------
	.byte	W96
@ 005   ----------------------------------------
	.byte	W96
@ 006   ----------------------------------------
	.byte	W96
@ 007   ----------------------------------------
	.byte	W96
@ 008   ----------------------------------------
that_persons_name_is_10_008:
	.byte	W12
	.byte		N11   , An1 , v080
	.byte	W12
	.byte		N05   
	.byte	W06
	.byte		N05   
	.byte	W06
	.byte		N05   
	.byte	W12
	.byte		N05   
	.byte	W12
	.byte		        Gn1 
	.byte	W12
	.byte		N05   
	.byte	W12
	.byte		N05   
	.byte	W06
	.byte		N05   
	.byte	W06
	.byte	PEND
@ 009   ----------------------------------------
that_persons_name_is_10_009:
	.byte		N11   , Gn1 , v080
	.byte	W12
	.byte		        Fn1 
	.byte	W12
	.byte		N05   
	.byte	W06
	.byte		N05   
	.byte	W06
	.byte		N05   
	.byte	W12
	.byte		N05   
	.byte	W12
	.byte		        En1 
	.byte	W12
	.byte		N05   
	.byte	W12
	.byte		N05   
	.byte	W06
	.byte		N05   
	.byte	W06
	.byte	PEND
@ 010   ----------------------------------------
that_persons_name_is_10_010:
	.byte		N11   , En1 , v080
	.byte	W12
	.byte		        Fn1 
	.byte	W12
	.byte		N05   
	.byte	W06
	.byte		N05   
	.byte	W06
	.byte		N05   
	.byte	W12
	.byte		N05   
	.byte	W12
	.byte		        Gn1 
	.byte	W12
	.byte		N05   
	.byte	W12
	.byte		N05   
	.byte	W06
	.byte		N05   
	.byte	W06
	.byte	PEND
@ 011   ----------------------------------------
that_persons_name_is_10_011:
	.byte		N11   , Gn1 , v080
	.byte	W12
	.byte		        Cn2 
	.byte	W12
	.byte		N05   
	.byte	W06
	.byte		N05   
	.byte	W06
	.byte		N05   
	.byte	W12
	.byte		N05   
	.byte	W12
	.byte		        Cs2 
	.byte	W12
	.byte		N05   
	.byte	W12
	.byte		N05   
	.byte	W06
	.byte		N05   
	.byte	W06
	.byte	PEND
@ 012   ----------------------------------------
that_persons_name_is_10_012:
	.byte		N11   , Cs2 , v080
	.byte	W12
	.byte		        Dn2 
	.byte	W12
	.byte		N05   
	.byte	W06
	.byte		N05   
	.byte	W06
	.byte		N05   
	.byte	W12
	.byte		N05   
	.byte	W12
	.byte		        Bn1 
	.byte	W12
	.byte		N05   
	.byte	W12
	.byte		N05   
	.byte	W06
	.byte		N05   
	.byte	W06
	.byte	PEND
@ 013   ----------------------------------------
that_persons_name_is_10_013:
	.byte		N11   , Bn1 , v080
	.byte	W12
	.byte		        Cn2 
	.byte	W12
	.byte		N05   
	.byte	W06
	.byte		N05   
	.byte	W06
	.byte		N05   
	.byte	W12
	.byte		N05   
	.byte	W12
	.byte		        An1 
	.byte	W12
	.byte		N05   
	.byte	W12
	.byte		N05   
	.byte	W06
	.byte		N05   
	.byte	W06
	.byte	PEND
@ 014   ----------------------------------------
that_persons_name_is_10_014:
	.byte		N11   , An1 , v080
	.byte	W12
	.byte		N17   , Bn1 
	.byte	W18
	.byte		N17   
	.byte	W18
	.byte		N17   
	.byte	W24
	.byte		N11   , An1 
	.byte	W12
	.byte		N05   , Gn1 
	.byte	W12
	.byte	PEND
@ 015   ----------------------------------------
that_persons_name_is_10_015:
	.byte		N05   , Fn1 , v080
	.byte	W12
	.byte		N08   , En1 
	.byte	W84
	.byte	PEND
@ 016   ----------------------------------------
	.byte	PATT
	 .word	that_persons_name_is_10_008
@ 017   ----------------------------------------
	.byte	PATT
	 .word	that_persons_name_is_10_009
@ 018   ----------------------------------------
	.byte	PATT
	 .word	that_persons_name_is_10_010
@ 019   ----------------------------------------
	.byte	PATT
	 .word	that_persons_name_is_10_011
@ 020   ----------------------------------------
	.byte	PATT
	 .word	that_persons_name_is_10_012
@ 021   ----------------------------------------
	.byte	PATT
	 .word	that_persons_name_is_10_013
@ 022   ----------------------------------------
that_persons_name_is_10_022:
	.byte		N11   , An1 , v080
	.byte	W12
	.byte		N17   , Bn1 
	.byte	W18
	.byte		N17   
	.byte	W18
	.byte		N17   
	.byte	W24
	.byte		N11   , Gn1 
	.byte	W12
	.byte		N05   , Gn2 
	.byte	W12
	.byte	PEND
@ 023   ----------------------------------------
that_persons_name_is_10_023:
	.byte		N05   , Fn2 , v080
	.byte	W12
	.byte		N11   , En2 , v096
	.byte		N11   , En3 
	.byte	W18
	.byte		N05   , En2 
	.byte		N05   , En3 
	.byte	W18
	.byte		N23   , En2 
	.byte		N23   , En3 
	.byte	W24
	.byte		N11   , Fn2 
	.byte		N11   , Fn3 
	.byte	W12
	.byte		        Cn2 
	.byte		N11   , Cn3 
	.byte	W12
	.byte	PEND
@ 024   ----------------------------------------
that_persons_name_is_10_024:
	.byte		N11   , Fn2 , v096
	.byte		N11   , Fn3 
	.byte	W12
	.byte		N17   , Fs2 
	.byte		N17   , Fs3 
	.byte	W18
	.byte		        Dn2 
	.byte		N17   , Dn3 
	.byte	W18
	.byte		N11   , Fs2 
	.byte		N11   , Fs3 
	.byte	W12
	.byte		N32   , Gs2 
	.byte		N32   , Gs3 
	.byte	W36
	.byte	PEND
@ 025   ----------------------------------------
	.byte	W96
@ 026   ----------------------------------------
	.byte	W96
@ 027   ----------------------------------------
that_persons_name_is_10_027:
	.byte		N11   , Cs2 , v096
	.byte		N11   , Cs3 
	.byte	W12
	.byte		N17   , Cn2 
	.byte		N17   , Cn3 
	.byte	W18
	.byte		        An1 
	.byte		N17   , An2 
	.byte	W18
	.byte		N23   , Fs1 
	.byte		N23   , Fs2 
	.byte	W24
	.byte		N11   , Cn2 
	.byte		N11   , Cn3 
	.byte	W12
	.byte		        An1 
	.byte		N11   , An2 
	.byte	W12
	.byte	PEND
@ 028   ----------------------------------------
that_persons_name_is_10_028:
	.byte		N11   , Fs1 , v096
	.byte		N11   , Fs2 
	.byte	W12
	.byte		N17   , Cn2 
	.byte		N17   , Cn3 
	.byte	W18
	.byte		        An1 
	.byte		N17   , An2 
	.byte	W18
	.byte		N23   , Fs1 
	.byte		N23   , Fs2 
	.byte	W24
	.byte		N11   , Cn2 
	.byte		N11   , Cn3 
	.byte	W12
	.byte		        An1 
	.byte		N11   , An2 
	.byte	W12
	.byte	PEND
@ 029   ----------------------------------------
	.byte		        Fs1 
	.byte		N11   , Fs2 
	.byte	W96
@ 030   ----------------------------------------
	.byte	W96
@ 031   ----------------------------------------
that_persons_name_is_10_031:
	.byte		N11   , Fs2 , v096
	.byte		N11   , Fs3 
	.byte	W12
	.byte		N17   , Fn2 
	.byte		N17   , Fn3 
	.byte	W18
	.byte		        Dn2 
	.byte		N17   , Dn3 
	.byte	W18
	.byte		N23   , Bn1 
	.byte		N23   , Bn2 
	.byte	W24
	.byte		N11   , Fn2 
	.byte		N11   , Fn3 
	.byte	W12
	.byte		        Dn2 
	.byte		N11   , Dn3 
	.byte	W12
	.byte	PEND
@ 032   ----------------------------------------
that_persons_name_is_10_032:
	.byte		N11   , Bn1 , v096
	.byte		N11   , Bn2 
	.byte	W12
	.byte		N17   , Fn2 
	.byte		N17   , Fn3 
	.byte	W18
	.byte		        Dn2 
	.byte		N17   , Dn3 
	.byte	W18
	.byte		N11   , Bn1 
	.byte		N11   , Bn2 
	.byte	W12
	.byte		N17   , Fn2 
	.byte		N17   , Fn3 
	.byte	W18
	.byte		        Dn2 
	.byte		N17   , Dn3 
	.byte	W18
	.byte	PEND
@ 033   ----------------------------------------
that_persons_name_is_10_033:
	.byte		N11   , Bn1 , v096
	.byte		N11   , Bn2 
	.byte	W24
	.byte		N05   , An1 , v080
	.byte	W06
	.byte		N05   
	.byte	W06
	.byte		N05   
	.byte	W12
	.byte		N05   
	.byte	W12
	.byte		        Gn1 
	.byte	W12
	.byte		N05   
	.byte	W12
	.byte		N05   
	.byte	W06
	.byte		N05   
	.byte	W06
	.byte	PEND
@ 034   ----------------------------------------
	.byte	PATT
	 .word	that_persons_name_is_10_009
@ 035   ----------------------------------------
	.byte	PATT
	 .word	that_persons_name_is_10_010
@ 036   ----------------------------------------
	.byte	PATT
	 .word	that_persons_name_is_10_011
@ 037   ----------------------------------------
	.byte	PATT
	 .word	that_persons_name_is_10_012
@ 038   ----------------------------------------
	.byte	PATT
	 .word	that_persons_name_is_10_013
@ 039   ----------------------------------------
	.byte	PATT
	 .word	that_persons_name_is_10_014
@ 040   ----------------------------------------
	.byte	PATT
	 .word	that_persons_name_is_10_015
@ 041   ----------------------------------------
	.byte	PATT
	 .word	that_persons_name_is_10_008
@ 042   ----------------------------------------
	.byte	PATT
	 .word	that_persons_name_is_10_009
@ 043   ----------------------------------------
	.byte	PATT
	 .word	that_persons_name_is_10_010
@ 044   ----------------------------------------
	.byte	PATT
	 .word	that_persons_name_is_10_011
@ 045   ----------------------------------------
	.byte	PATT
	 .word	that_persons_name_is_10_012
@ 046   ----------------------------------------
	.byte	PATT
	 .word	that_persons_name_is_10_013
@ 047   ----------------------------------------
	.byte	PATT
	 .word	that_persons_name_is_10_022
@ 048   ----------------------------------------
that_persons_name_is_10_048:
	.byte		N05   , Fn2 , v080
	.byte	W12
	.byte		N17   , En2 
	.byte	W84
	.byte	PEND
@ 049   ----------------------------------------
	.byte	W96
@ 050   ----------------------------------------
	.byte	W96
@ 051   ----------------------------------------
	.byte	W96
@ 052   ----------------------------------------
	.byte	W96
@ 053   ----------------------------------------
	.byte	W96
@ 054   ----------------------------------------
	.byte	W96
@ 055   ----------------------------------------
	.byte	W96
@ 056   ----------------------------------------
	.byte	W96
@ 057   ----------------------------------------
	.byte	W96
@ 058   ----------------------------------------
that_persons_name_is_10_058:
	.byte	W12
	.byte		N05   , Bn1 , v080
	.byte	W12
	.byte		N05   
	.byte	W12
	.byte		N05   
	.byte	W12
	.byte		N05   
	.byte	W06
	.byte		N05   
	.byte	W06
	.byte		N11   , Cn2 
	.byte	W12
	.byte		N05   
	.byte	W06
	.byte		N05   
	.byte	W06
	.byte		N05   
	.byte	W12
	.byte	PEND
@ 059   ----------------------------------------
that_persons_name_is_10_059:
	.byte		N05   , Cn2 , v080
	.byte	W12
	.byte		        Dn2 
	.byte	W12
	.byte		N05   
	.byte	W12
	.byte		N05   
	.byte	W12
	.byte		N05   
	.byte	W06
	.byte		N05   
	.byte	W06
	.byte		N11   , Bn1 
	.byte	W12
	.byte		N05   
	.byte	W06
	.byte		N05   
	.byte	W06
	.byte		N05   
	.byte	W12
	.byte	PEND
@ 060   ----------------------------------------
that_persons_name_is_10_060:
	.byte		N05   , Bn1 , v080
	.byte	W12
	.byte		N05   
	.byte	W12
	.byte		N05   
	.byte	W12
	.byte		N05   
	.byte	W12
	.byte		N05   
	.byte	W06
	.byte		N05   
	.byte	W06
	.byte		N11   , Cn2 
	.byte	W12
	.byte		N05   
	.byte	W06
	.byte		N05   
	.byte	W06
	.byte		N05   
	.byte	W12
	.byte	PEND
@ 061   ----------------------------------------
that_persons_name_is_10_061:
	.byte		N05   , Cn2 , v080
	.byte	W12
	.byte		        Dn2 
	.byte	W12
	.byte		N05   
	.byte	W12
	.byte		N05   
	.byte	W12
	.byte		N05   
	.byte	W06
	.byte		N05   
	.byte	W06
	.byte		N11   
	.byte	W12
	.byte		N05   
	.byte	W06
	.byte		N05   
	.byte	W06
	.byte		N05   
	.byte	W12
	.byte	PEND
@ 062   ----------------------------------------
that_persons_name_is_10_062:
	.byte		N05   , Dn2 , v080
	.byte	W24
	.byte		        Bn1 
	.byte	W12
	.byte		N05   
	.byte	W12
	.byte		N05   
	.byte	W06
	.byte		N05   
	.byte	W06
	.byte		N11   , Cn2 
	.byte	W12
	.byte		N05   
	.byte	W06
	.byte		N05   
	.byte	W06
	.byte		N05   
	.byte	W12
	.byte	PEND
@ 063   ----------------------------------------
that_persons_name_is_10_063:
	.byte		N05   , Cn2 , v080
	.byte	W12
	.byte		        Dn2 
	.byte	W12
	.byte		N05   
	.byte	W12
	.byte		N05   
	.byte	W12
	.byte		N05   
	.byte	W06
	.byte		N05   
	.byte	W06
	.byte		N11   , En2 
	.byte	W12
	.byte		N05   
	.byte	W06
	.byte		N05   
	.byte	W06
	.byte		N05   
	.byte	W12
	.byte	PEND
@ 064   ----------------------------------------
that_persons_name_is_10_064:
	.byte		N05   , En2 , v080
	.byte	W12
	.byte		N23   , An1 
	.byte	W36
	.byte		N05   , Gn1 
	.byte	W06
	.byte		        Fs1 
	.byte	W06
	.byte		N23   , En1 
	.byte	W24
	.byte		        Dn1 
	.byte	W12
	.byte	PEND
@ 065   ----------------------------------------
that_persons_name_is_10_065:
	.byte	W12
	.byte		N05   , Cs2 , v080
	.byte	W12
	.byte		N05   
	.byte	W12
	.byte		N05   
	.byte	W12
	.byte		N05   
	.byte	W06
	.byte		N05   
	.byte	W06
	.byte		N05   
	.byte	W12
	.byte		N05   
	.byte	W12
	.byte		N05   
	.byte	W06
	.byte		N05   
	.byte	W06
	.byte	PEND
@ 066   ----------------------------------------
that_persons_name_is_10_066:
	.byte		N05   , Cs2 , v080
	.byte	W12
	.byte		        Bn1 
	.byte	W12
	.byte		N05   
	.byte	W12
	.byte		N05   
	.byte	W12
	.byte		N05   
	.byte	W06
	.byte		N05   
	.byte	W06
	.byte		N05   
	.byte	W12
	.byte		N05   
	.byte	W12
	.byte		N05   
	.byte	W06
	.byte		N05   
	.byte	W06
	.byte	PEND
@ 067   ----------------------------------------
that_persons_name_is_10_067:
	.byte		N05   , Bn1 , v080
	.byte	W12
	.byte		        An1 
	.byte	W12
	.byte		N05   
	.byte	W12
	.byte		N05   
	.byte	W12
	.byte		N05   
	.byte	W06
	.byte		N05   
	.byte	W06
	.byte		        Bn1 
	.byte	W12
	.byte		N05   
	.byte	W12
	.byte		N05   
	.byte	W06
	.byte		N05   
	.byte	W06
	.byte	PEND
@ 068   ----------------------------------------
that_persons_name_is_10_068:
	.byte		N05   , Bn1 , v080
	.byte	W12
	.byte		        Gs1 
	.byte	W12
	.byte		N05   
	.byte	W12
	.byte		N05   
	.byte	W12
	.byte		N05   
	.byte	W06
	.byte		N05   
	.byte	W06
	.byte		N05   
	.byte	W12
	.byte		N05   
	.byte	W12
	.byte		N05   
	.byte	W06
	.byte		N05   
	.byte	W06
	.byte	PEND
@ 069   ----------------------------------------
that_persons_name_is_10_069:
	.byte		N05   , Gs1 , v080
	.byte	W12
	.byte		        An1 
	.byte	W12
	.byte		N05   
	.byte	W12
	.byte		N05   
	.byte	W12
	.byte		N05   
	.byte	W06
	.byte		N05   
	.byte	W06
	.byte		N05   
	.byte	W12
	.byte		N05   
	.byte	W12
	.byte		N05   
	.byte	W06
	.byte		N05   
	.byte	W06
	.byte	PEND
@ 070   ----------------------------------------
that_persons_name_is_10_070:
	.byte		N05   , An1 , v080
	.byte	W12
	.byte		        Bn1 
	.byte	W12
	.byte		N05   
	.byte	W12
	.byte		N05   
	.byte	W12
	.byte		N05   
	.byte	W06
	.byte		N05   
	.byte	W06
	.byte		N05   
	.byte	W12
	.byte		N05   
	.byte	W12
	.byte		N05   
	.byte	W06
	.byte		N05   
	.byte	W06
	.byte	PEND
@ 071   ----------------------------------------
that_persons_name_is_10_071:
	.byte		N05   , Bn1 , v080
	.byte	W12
	.byte		        As1 
	.byte	W12
	.byte		N05   
	.byte	W12
	.byte		N05   
	.byte	W12
	.byte		N05   
	.byte	W06
	.byte		N05   
	.byte	W06
	.byte		N05   
	.byte	W12
	.byte		N05   
	.byte	W12
	.byte		N05   
	.byte	W06
	.byte		N05   
	.byte	W06
	.byte	PEND
@ 072   ----------------------------------------
that_persons_name_is_10_072:
	.byte		N05   , As1 , v080
	.byte	W12
	.byte		        Gs2 
	.byte	W12
	.byte		N05   
	.byte	W12
	.byte		        En2 
	.byte	W12
	.byte		N05   
	.byte	W12
	.byte		        Ds2 
	.byte	W12
	.byte		        Cs2 
	.byte	W12
	.byte		        Bn1 
	.byte	W12
	.byte	PEND
@ 073   ----------------------------------------
that_persons_name_is_10_073:
	.byte		N05   , Gs1 , v080
	.byte	W12
	.byte		        Cs2 
	.byte	W12
	.byte		N05   
	.byte	W12
	.byte		N05   
	.byte	W12
	.byte		N05   
	.byte	W06
	.byte		N05   
	.byte	W06
	.byte		N05   
	.byte	W12
	.byte		N05   
	.byte	W12
	.byte		N05   
	.byte	W06
	.byte		N05   
	.byte	W06
	.byte	PEND
@ 074   ----------------------------------------
	.byte	PATT
	 .word	that_persons_name_is_10_066
@ 075   ----------------------------------------
	.byte	PATT
	 .word	that_persons_name_is_10_067
@ 076   ----------------------------------------
	.byte	PATT
	 .word	that_persons_name_is_10_068
@ 077   ----------------------------------------
	.byte	PATT
	 .word	that_persons_name_is_10_069
@ 078   ----------------------------------------
that_persons_name_is_10_078:
	.byte		N05   , An1 , v080
	.byte	W12
	.byte		        Gs1 
	.byte	W12
	.byte		N05   
	.byte	W12
	.byte		N05   
	.byte	W12
	.byte		N05   
	.byte	W06
	.byte		N05   
	.byte	W06
	.byte		N05   
	.byte	W12
	.byte		N05   
	.byte	W12
	.byte		N05   
	.byte	W06
	.byte		N05   
	.byte	W06
	.byte	PEND
@ 079   ----------------------------------------
that_persons_name_is_10_079:
	.byte		N05   , Gs1 , v080
	.byte	W12
	.byte		        Gn1 
	.byte	W12
	.byte		N05   
	.byte	W12
	.byte		N05   
	.byte	W12
	.byte		N05   
	.byte	W06
	.byte		N05   
	.byte	W06
	.byte		N05   
	.byte	W12
	.byte		N05   
	.byte	W12
	.byte		N05   
	.byte	W06
	.byte		N05   
	.byte	W06
	.byte	PEND
@ 080   ----------------------------------------
that_persons_name_is_10_080:
	.byte		N05   , Gn1 , v080
	.byte	W12
	.byte		        Gs1 
	.byte	W12
	.byte		N05   
	.byte	W12
	.byte		N05   
	.byte	W12
	.byte		N05   
	.byte	W06
	.byte		N05   
	.byte	W06
	.byte		N05   
	.byte	W12
	.byte		N05   
	.byte	W12
	.byte		N05   
	.byte	W06
	.byte		N05   
	.byte	W06
	.byte	PEND
@ 081   ----------------------------------------
that_persons_name_is_10_081:
	.byte		N05   , Gs1 , v080
	.byte	W12
	.byte		N11   , Cs2 
	.byte		N11   , En2 
	.byte	W72
	.byte		N23   , Cs2 
	.byte		N23   , En2 
	.byte	W12
	.byte	PEND
@ 082   ----------------------------------------
that_persons_name_is_10_082:
	.byte	W12
	.byte		N11   , Ds2 , v080
	.byte		N11   , Fs2 
	.byte	W48
	.byte		N23   , Bn1 
	.byte		N23   , Ds2 
	.byte	W24
	.byte		N23   
	.byte		N23   , Fs2 
	.byte	W12
	.byte	PEND
@ 083   ----------------------------------------
	.byte	W96
@ 084   ----------------------------------------
	.byte	W96
@ 085   ----------------------------------------
	.byte	W96
@ 086   ----------------------------------------
	.byte	W96
@ 087   ----------------------------------------
	.byte	W96
@ 088   ----------------------------------------
	.byte	W96
@ 089   ----------------------------------------
	.byte	W96
@ 090   ----------------------------------------
	.byte	W96
@ 091   ----------------------------------------
that_persons_name_is_10_091:
	.byte	W12
	.byte		N05   , As3 , v112
	.byte	W06
	.byte		        Fn3 
	.byte	W06
	.byte		        Cs3 
	.byte	W06
	.byte		        Fn3 
	.byte	W06
	.byte		        As2 
	.byte	W06
	.byte		        Fn3 
	.byte	W06
	.byte		        Cs3 
	.byte		N05   , As3 
	.byte	W06
	.byte		        Fn3 
	.byte	W06
	.byte		        An3 
	.byte	W06
	.byte		        Fn3 
	.byte	W06
	.byte		        Cn3 
	.byte	W06
	.byte		        Fn3 
	.byte	W06
	.byte		        An2 
	.byte	W06
	.byte		        Fn3 
	.byte	W06
	.byte	PEND
@ 092   ----------------------------------------
that_persons_name_is_10_092:
	.byte		N05   , Cn3 , v112
	.byte		N05   , An3 
	.byte	W06
	.byte		        Fn3 
	.byte	W06
	.byte		        As3 
	.byte	W06
	.byte		        Fn3 
	.byte	W06
	.byte		        Cs3 
	.byte	W06
	.byte		        Fn3 
	.byte	W06
	.byte		        As2 
	.byte	W06
	.byte		        Fn3 
	.byte	W06
	.byte		        Cs3 
	.byte		N05   , As3 
	.byte	W06
	.byte		        Fn3 
	.byte	W06
	.byte		        Cn4 
	.byte	W06
	.byte		        Ds3 
	.byte	W06
	.byte		        As3 
	.byte	W06
	.byte		        Cn3 
	.byte	W06
	.byte		        Gs3 
	.byte	W06
	.byte		        Gs2 
	.byte	W06
	.byte	PEND
@ 093   ----------------------------------------
that_persons_name_is_10_093:
	.byte		N05   , Cn4 , v112
	.byte	W06
	.byte		        Ds3 
	.byte	W06
	.byte		        Cs4 
	.byte	W06
	.byte		        Gs3 
	.byte	W06
	.byte		        En3 
	.byte	W06
	.byte		        Gs3 
	.byte	W06
	.byte		        Cs3 
	.byte	W06
	.byte		        Gs3 
	.byte	W06
	.byte		        En3 
	.byte		N05   , Cs4 
	.byte	W06
	.byte		        Gs3 
	.byte	W06
	.byte		        Cn4 
	.byte	W06
	.byte		        Gs3 
	.byte	W06
	.byte		        Ds3 
	.byte	W06
	.byte		        Gs3 
	.byte	W06
	.byte		        Cn3 
	.byte	W06
	.byte		        Gs3 
	.byte	W06
	.byte	PEND
@ 094   ----------------------------------------
that_persons_name_is_10_094:
	.byte		N05   , Ds3 , v112
	.byte		N05   , Cn4 
	.byte	W06
	.byte		        Gs3 
	.byte	W06
	.byte		        Cs4 
	.byte	W06
	.byte		        Gs3 
	.byte	W06
	.byte		        En3 
	.byte	W06
	.byte		        Gs3 
	.byte	W06
	.byte		        Cs3 
	.byte	W06
	.byte		        Gs3 
	.byte	W06
	.byte		        En3 
	.byte		N05   , Cs4 
	.byte	W06
	.byte		        Gs3 
	.byte	W06
	.byte		        Dn4 
	.byte	W06
	.byte		        Gn3 
	.byte	W06
	.byte		        Bn3 
	.byte	W06
	.byte		        Ds3 
	.byte	W06
	.byte		        As3 
	.byte	W06
	.byte		        Fn3 
	.byte	W06
	.byte	PEND
@ 095   ----------------------------------------
that_persons_name_is_10_095:
	.byte		N05   , Dn4 , v112
	.byte	W06
	.byte		        Gn3 
	.byte	W06
	.byte		        Ds4 
	.byte	W06
	.byte		        As3 
	.byte	W06
	.byte		        Fs3 
	.byte	W06
	.byte		        As3 
	.byte	W06
	.byte		        Ds3 
	.byte	W06
	.byte		        As3 
	.byte	W06
	.byte		        Fs3 
	.byte		N05   , Ds4 
	.byte	W06
	.byte		        As3 
	.byte	W06
	.byte		        Dn4 
	.byte	W06
	.byte		        As3 
	.byte	W06
	.byte		        Fn3 
	.byte	W06
	.byte		        As3 
	.byte	W06
	.byte		        Dn3 
	.byte	W06
	.byte		        As3 
	.byte	W06
	.byte	PEND
@ 096   ----------------------------------------
that_persons_name_is_10_096:
	.byte		N05   , Fn3 , v112
	.byte		N05   , Dn4 
	.byte	W06
	.byte		        As3 
	.byte	W06
	.byte		        Ds4 
	.byte	W06
	.byte		        As3 
	.byte	W06
	.byte		        Fs3 
	.byte	W06
	.byte		        As3 
	.byte	W06
	.byte		        Ds3 
	.byte	W06
	.byte		        As3 
	.byte	W06
	.byte		        Fs3 
	.byte		N05   , Ds4 
	.byte	W06
	.byte		        As3 
	.byte	W06
	.byte		        En4 
	.byte	W06
	.byte		        An3 
	.byte	W06
	.byte		        Cs4 
	.byte	W06
	.byte		        Fn3 
	.byte	W06
	.byte		        Cn4 
	.byte	W06
	.byte		        Gn3 
	.byte	W06
	.byte	PEND
@ 097   ----------------------------------------
that_persons_name_is_10_097:
	.byte		N05   , En4 , v112
	.byte	W06
	.byte		        An3 
	.byte	W06
	.byte		        Fn4 
	.byte	W06
	.byte		        Cs4 
	.byte	W06
	.byte		        As3 
	.byte	W06
	.byte		        Fn3 
	.byte	W06
	.byte		        Cs3 
	.byte	W06
	.byte		        Fn2 
	.byte	W06
	.byte		        Fn4 
	.byte	W06
	.byte		        Cs4 
	.byte	W06
	.byte		        As3 
	.byte	W06
	.byte		        Fn3 
	.byte	W06
	.byte		        Cs3 
	.byte	W06
	.byte		        Fn2 
	.byte	W06
	.byte		        Fn4 
	.byte	W06
	.byte		        Cs4 
	.byte	W06
	.byte	PEND
@ 098   ----------------------------------------
that_persons_name_is_10_098:
	.byte		N05   , As3 , v112
	.byte	W06
	.byte		        Fn3 
	.byte	W06
	.byte		N05   
	.byte	W06
	.byte		        Gs3 
	.byte	W06
	.byte		        Cn4 
	.byte	W06
	.byte		        Fn3 
	.byte	W06
	.byte		        Ds3 
	.byte	W06
	.byte		        Gn3 
	.byte	W06
	.byte		        As3 
	.byte	W06
	.byte		        Ds3 
	.byte	W06
	.byte		        Cs3 
	.byte	W06
	.byte		        Fn3 
	.byte	W06
	.byte		        Gs3 
	.byte	W06
	.byte		        Cs3 
	.byte	W06
	.byte		        Cn3 
	.byte	W06
	.byte		        Ds3 
	.byte	W06
	.byte	PEND
@ 099   ----------------------------------------
that_persons_name_is_10_099:
	.byte		N05   , Gn3 , v112
	.byte	W06
	.byte		        Cn3 
	.byte	W06
	.byte		        As3 
	.byte	W06
	.byte		        Fn3 
	.byte	W06
	.byte		        Cs3 
	.byte	W06
	.byte		        Fn3 
	.byte	W06
	.byte		        As2 
	.byte	W06
	.byte		        Fn3 
	.byte	W06
	.byte		        Cs3 
	.byte		N05   , As3 
	.byte	W06
	.byte		        Fn3 
	.byte	W06
	.byte		        An3 
	.byte	W06
	.byte		        Fn3 
	.byte	W06
	.byte		        Cn3 
	.byte	W06
	.byte		        Fn3 
	.byte	W06
	.byte		        An2 
	.byte	W06
	.byte		        Fn3 
	.byte	W06
	.byte	PEND
@ 100   ----------------------------------------
	.byte	PATT
	 .word	that_persons_name_is_10_092
@ 101   ----------------------------------------
	.byte	PATT
	 .word	that_persons_name_is_10_093
@ 102   ----------------------------------------
	.byte	PATT
	 .word	that_persons_name_is_10_094
@ 103   ----------------------------------------
	.byte	PATT
	 .word	that_persons_name_is_10_095
@ 104   ----------------------------------------
	.byte	PATT
	 .word	that_persons_name_is_10_096
@ 105   ----------------------------------------
	.byte	PATT
	 .word	that_persons_name_is_10_097
@ 106   ----------------------------------------
that_persons_name_is_10_106:
	.byte		N05   , As3 , v112
	.byte	W06
	.byte		        Fn3 
	.byte	W06
	.byte		        Fn4 
	.byte	W06
	.byte		        Cn4 
	.byte	W06
	.byte		        An3 
	.byte	W06
	.byte		        Fn3 
	.byte	W06
	.byte		        Cn3 
	.byte	W06
	.byte		        Fn2 
	.byte	W06
	.byte		        Fn4 
	.byte	W06
	.byte		        Cn4 
	.byte	W06
	.byte		        An3 
	.byte	W06
	.byte		        Fn3 
	.byte	W06
	.byte		        Cn3 
	.byte	W06
	.byte		        Fn2 
	.byte	W06
	.byte		        Fn4 
	.byte	W06
	.byte		        Cn4 
	.byte	W06
	.byte	PEND
@ 107   ----------------------------------------
that_persons_name_is_10_107:
	.byte		N05   , An3 , v112
	.byte	W06
	.byte		        Fn3 
	.byte	W06
	.byte		        Fn4 
	.byte	W06
	.byte		        Cs4 
	.byte	W06
	.byte		        As3 
	.byte	W06
	.byte		        Fn3 
	.byte	W06
	.byte		        Cs3 
	.byte	W06
	.byte		        Fn2 
	.byte	W06
	.byte		        Fn4 
	.byte	W06
	.byte		        Cs4 
	.byte	W06
	.byte		        As3 
	.byte	W06
	.byte		        Fn3 
	.byte	W06
	.byte		        Cs3 
	.byte	W06
	.byte		        Fn2 
	.byte	W06
	.byte		        Fn4 
	.byte	W06
	.byte		        Cs4 
	.byte	W06
	.byte	PEND
@ 108   ----------------------------------------
that_persons_name_is_10_108:
	.byte		N05   , As3 , v112
	.byte	W06
	.byte		        Fn3 
	.byte	W06
	.byte		        Fn4 
	.byte	W06
	.byte		        Cn4 
	.byte	W06
	.byte		        An3 
	.byte	W06
	.byte		        Fn3 
	.byte	W06
	.byte		        Cn3 
	.byte	W06
	.byte		        Fn2 
	.byte	W06
	.byte		        Fn4 
	.byte	W06
	.byte		        Cn4 
	.byte	W06
	.byte		N17   , Fn4 
	.byte	W36
	.byte	PEND
@ 109   ----------------------------------------
	.byte	W96
@ 110   ----------------------------------------
	.byte	PATT
	 .word	that_persons_name_is_10_008
@ 111   ----------------------------------------
	.byte	PATT
	 .word	that_persons_name_is_10_009
@ 112   ----------------------------------------
	.byte	PATT
	 .word	that_persons_name_is_10_010
@ 113   ----------------------------------------
	.byte	PATT
	 .word	that_persons_name_is_10_011
@ 114   ----------------------------------------
	.byte	PATT
	 .word	that_persons_name_is_10_012
@ 115   ----------------------------------------
	.byte	PATT
	 .word	that_persons_name_is_10_013
@ 116   ----------------------------------------
	.byte	PATT
	 .word	that_persons_name_is_10_014
@ 117   ----------------------------------------
	.byte	PATT
	 .word	that_persons_name_is_10_015
@ 118   ----------------------------------------
	.byte	PATT
	 .word	that_persons_name_is_10_008
@ 119   ----------------------------------------
	.byte	PATT
	 .word	that_persons_name_is_10_009
@ 120   ----------------------------------------
	.byte	PATT
	 .word	that_persons_name_is_10_010
@ 121   ----------------------------------------
	.byte	PATT
	 .word	that_persons_name_is_10_011
@ 122   ----------------------------------------
	.byte	PATT
	 .word	that_persons_name_is_10_012
@ 123   ----------------------------------------
	.byte	PATT
	 .word	that_persons_name_is_10_013
@ 124   ----------------------------------------
	.byte	PATT
	 .word	that_persons_name_is_10_022
@ 125   ----------------------------------------
	.byte	PATT
	 .word	that_persons_name_is_10_023
@ 126   ----------------------------------------
	.byte	PATT
	 .word	that_persons_name_is_10_024
@ 127   ----------------------------------------
	.byte	W96
@ 128   ----------------------------------------
	.byte	W96
@ 129   ----------------------------------------
	.byte	PATT
	 .word	that_persons_name_is_10_027
@ 130   ----------------------------------------
	.byte	PATT
	 .word	that_persons_name_is_10_028
@ 131   ----------------------------------------
	.byte		N11   , Fs1 , v096
	.byte		N11   , Fs2 
	.byte	W96
@ 132   ----------------------------------------
	.byte	W96
@ 133   ----------------------------------------
	.byte	PATT
	 .word	that_persons_name_is_10_031
@ 134   ----------------------------------------
	.byte	PATT
	 .word	that_persons_name_is_10_032
@ 135   ----------------------------------------
	.byte	PATT
	 .word	that_persons_name_is_10_033
@ 136   ----------------------------------------
	.byte	PATT
	 .word	that_persons_name_is_10_009
@ 137   ----------------------------------------
	.byte	PATT
	 .word	that_persons_name_is_10_010
@ 138   ----------------------------------------
	.byte	PATT
	 .word	that_persons_name_is_10_011
@ 139   ----------------------------------------
	.byte	PATT
	 .word	that_persons_name_is_10_012
@ 140   ----------------------------------------
	.byte	PATT
	 .word	that_persons_name_is_10_013
@ 141   ----------------------------------------
	.byte	PATT
	 .word	that_persons_name_is_10_014
@ 142   ----------------------------------------
	.byte	PATT
	 .word	that_persons_name_is_10_015
@ 143   ----------------------------------------
	.byte	PATT
	 .word	that_persons_name_is_10_008
@ 144   ----------------------------------------
	.byte	PATT
	 .word	that_persons_name_is_10_009
@ 145   ----------------------------------------
	.byte	PATT
	 .word	that_persons_name_is_10_010
@ 146   ----------------------------------------
	.byte	PATT
	 .word	that_persons_name_is_10_011
@ 147   ----------------------------------------
	.byte	PATT
	 .word	that_persons_name_is_10_012
@ 148   ----------------------------------------
	.byte	PATT
	 .word	that_persons_name_is_10_013
@ 149   ----------------------------------------
	.byte	PATT
	 .word	that_persons_name_is_10_022
@ 150   ----------------------------------------
	.byte	PATT
	 .word	that_persons_name_is_10_048
@ 151   ----------------------------------------
	.byte	W96
@ 152   ----------------------------------------
	.byte	W96
@ 153   ----------------------------------------
	.byte	W96
@ 154   ----------------------------------------
	.byte	W96
@ 155   ----------------------------------------
	.byte	W96
@ 156   ----------------------------------------
	.byte	W96
@ 157   ----------------------------------------
	.byte	W96
@ 158   ----------------------------------------
	.byte	W96
@ 159   ----------------------------------------
	.byte	W96
@ 160   ----------------------------------------
	.byte	PATT
	 .word	that_persons_name_is_10_058
@ 161   ----------------------------------------
	.byte	PATT
	 .word	that_persons_name_is_10_059
@ 162   ----------------------------------------
	.byte	PATT
	 .word	that_persons_name_is_10_060
@ 163   ----------------------------------------
	.byte	PATT
	 .word	that_persons_name_is_10_061
@ 164   ----------------------------------------
	.byte	PATT
	 .word	that_persons_name_is_10_062
@ 165   ----------------------------------------
	.byte	PATT
	 .word	that_persons_name_is_10_063
@ 166   ----------------------------------------
	.byte	PATT
	 .word	that_persons_name_is_10_064
@ 167   ----------------------------------------
	.byte	PATT
	 .word	that_persons_name_is_10_065
@ 168   ----------------------------------------
	.byte	PATT
	 .word	that_persons_name_is_10_066
@ 169   ----------------------------------------
	.byte	PATT
	 .word	that_persons_name_is_10_067
@ 170   ----------------------------------------
	.byte	PATT
	 .word	that_persons_name_is_10_068
@ 171   ----------------------------------------
	.byte	PATT
	 .word	that_persons_name_is_10_069
@ 172   ----------------------------------------
	.byte	PATT
	 .word	that_persons_name_is_10_070
@ 173   ----------------------------------------
	.byte	PATT
	 .word	that_persons_name_is_10_071
@ 174   ----------------------------------------
	.byte	PATT
	 .word	that_persons_name_is_10_072
@ 175   ----------------------------------------
	.byte	PATT
	 .word	that_persons_name_is_10_073
@ 176   ----------------------------------------
	.byte	PATT
	 .word	that_persons_name_is_10_066
@ 177   ----------------------------------------
	.byte	PATT
	 .word	that_persons_name_is_10_067
@ 178   ----------------------------------------
	.byte	PATT
	 .word	that_persons_name_is_10_068
@ 179   ----------------------------------------
	.byte	PATT
	 .word	that_persons_name_is_10_069
@ 180   ----------------------------------------
	.byte	PATT
	 .word	that_persons_name_is_10_078
@ 181   ----------------------------------------
	.byte	PATT
	 .word	that_persons_name_is_10_079
@ 182   ----------------------------------------
	.byte	PATT
	 .word	that_persons_name_is_10_080
@ 183   ----------------------------------------
	.byte	PATT
	 .word	that_persons_name_is_10_081
@ 184   ----------------------------------------
	.byte	PATT
	 .word	that_persons_name_is_10_082
@ 185   ----------------------------------------
	.byte	W96
@ 186   ----------------------------------------
	.byte	W96
@ 187   ----------------------------------------
	.byte	W96
@ 188   ----------------------------------------
	.byte	W96
@ 189   ----------------------------------------
	.byte	W96
@ 190   ----------------------------------------
	.byte	W96
@ 191   ----------------------------------------
	.byte	W96
@ 192   ----------------------------------------
	.byte	W96
@ 193   ----------------------------------------
	.byte	PATT
	 .word	that_persons_name_is_10_091
@ 194   ----------------------------------------
	.byte	PATT
	 .word	that_persons_name_is_10_092
@ 195   ----------------------------------------
	.byte	PATT
	 .word	that_persons_name_is_10_093
@ 196   ----------------------------------------
	.byte	PATT
	 .word	that_persons_name_is_10_094
@ 197   ----------------------------------------
	.byte	PATT
	 .word	that_persons_name_is_10_095
@ 198   ----------------------------------------
	.byte	PATT
	 .word	that_persons_name_is_10_096
@ 199   ----------------------------------------
	.byte	PATT
	 .word	that_persons_name_is_10_097
@ 200   ----------------------------------------
	.byte	PATT
	 .word	that_persons_name_is_10_098
@ 201   ----------------------------------------
	.byte	PATT
	 .word	that_persons_name_is_10_099
@ 202   ----------------------------------------
	.byte	PATT
	 .word	that_persons_name_is_10_092
@ 203   ----------------------------------------
	.byte	PATT
	 .word	that_persons_name_is_10_093
@ 204   ----------------------------------------
	.byte	PATT
	 .word	that_persons_name_is_10_094
@ 205   ----------------------------------------
	.byte	PATT
	 .word	that_persons_name_is_10_095
@ 206   ----------------------------------------
	.byte	PATT
	 .word	that_persons_name_is_10_096
@ 207   ----------------------------------------
	.byte	PATT
	 .word	that_persons_name_is_10_097
@ 208   ----------------------------------------
	.byte	PATT
	 .word	that_persons_name_is_10_106
@ 209   ----------------------------------------
	.byte	PATT
	 .word	that_persons_name_is_10_107
@ 210   ----------------------------------------
	.byte	PATT
	 .word	that_persons_name_is_10_108
@ 211   ----------------------------------------
	.byte	W96
@ 212   ----------------------------------------
	.byte	W36
	.byte	GOTO
	 .word	that_persons_name_is_10_B1
that_persons_name_is_10_B2:
	.byte	FINE

@**************** Track 11 (Midi-Chn.15) ****************@

that_persons_name_is_11:
	.byte	KEYSH , that_persons_name_is_key+0
that_persons_name_is_11_B1:
@ 000   ----------------------------------------
	.byte		VOICE , 51
	.byte		VOL   , 100*that_persons_name_is_mvl/mxv
	.byte		PAN   , c_v+0
	.byte	W12
	.byte		N44   , En3 , v052
	.byte	W48
	.byte		        Dn3 
	.byte	W36
@ 001   ----------------------------------------
	.byte	W12
	.byte		N44   
	.byte	W48
	.byte		        Cn3 
	.byte	W36
@ 002   ----------------------------------------
	.byte	W24
	.byte		N68   , Dn5 
	.byte	W72
@ 003   ----------------------------------------
	.byte	W24
	.byte		        Dn3 
	.byte	W72
@ 004   ----------------------------------------
	.byte	W12
	.byte		N44   , En3 
	.byte	W48
	.byte		        Dn3 
	.byte	W36
@ 005   ----------------------------------------
	.byte	W12
	.byte		        Fn3 
	.byte	W48
	.byte		        Cn3 
	.byte	W36
@ 006   ----------------------------------------
	.byte	W12
	.byte		N90   , An3 
	.byte	W84
@ 007   ----------------------------------------
	.byte	W12
	.byte		N44   
	.byte	W48
	.byte		N05   , En4 
	.byte	W06
	.byte		        Bn3 
	.byte	W06
	.byte		        Gs3 
	.byte	W06
	.byte		        En3 
	.byte	W06
	.byte		        Bn3 
	.byte	W06
	.byte		        Gs3 
	.byte	W06
@ 008   ----------------------------------------
	.byte		        En3 
	.byte	W06
	.byte		        Bn2 
	.byte	W06
	.byte		        En3 , v080
	.byte	W06
	.byte		        An3 
	.byte	W06
	.byte		        Cn4 
	.byte	W06
	.byte		        En4 
	.byte	W06
	.byte		        An4 
	.byte	W06
	.byte		        En4 
	.byte	W06
	.byte		        Cn4 
	.byte	W06
	.byte		        An3 
	.byte	W06
	.byte		        En3 
	.byte	W06
	.byte		        Gn3 
	.byte	W06
	.byte		        Bn3 
	.byte	W06
	.byte		        En4 
	.byte	W06
	.byte		        Gn4 
	.byte	W06
	.byte		        En4 
	.byte	W06
@ 009   ----------------------------------------
that_persons_name_is_11_009:
	.byte		N05   , Bn3 , v080
	.byte	W06
	.byte		        Gn3 
	.byte	W06
	.byte		        Fn3 
	.byte	W06
	.byte		        An3 
	.byte	W06
	.byte		        Cn4 
	.byte	W06
	.byte		        Fn4 
	.byte	W06
	.byte		        An4 
	.byte	W06
	.byte		        Fn4 
	.byte	W06
	.byte		        Cn4 
	.byte	W06
	.byte		        An3 
	.byte	W06
	.byte		        En3 
	.byte	W06
	.byte		        An3 
	.byte	W06
	.byte		        Cn4 
	.byte	W06
	.byte		        En4 
	.byte	W06
	.byte		        An4 
	.byte	W06
	.byte		        En4 
	.byte	W06
	.byte	PEND
@ 010   ----------------------------------------
that_persons_name_is_11_010:
	.byte		N05   , Cn4 , v080
	.byte	W06
	.byte		        An3 
	.byte	W06
	.byte		        Fn3 
	.byte	W06
	.byte		        An3 
	.byte	W06
	.byte		        Cn4 
	.byte	W06
	.byte		        Fn4 
	.byte	W06
	.byte		        An4 
	.byte	W06
	.byte		        Fn4 
	.byte	W06
	.byte		        Cn4 
	.byte	W06
	.byte		        An3 
	.byte	W06
	.byte		        En3 
	.byte	W06
	.byte		        Gn3 
	.byte	W06
	.byte		        Bn3 
	.byte	W06
	.byte		        En4 
	.byte	W06
	.byte		        Gn4 
	.byte	W06
	.byte		        En4 
	.byte	W06
	.byte	PEND
@ 011   ----------------------------------------
that_persons_name_is_11_011:
	.byte		N05   , Bn3 , v080
	.byte	W06
	.byte		        Gn3 
	.byte	W06
	.byte		        En3 
	.byte	W06
	.byte		        An3 
	.byte	W06
	.byte		        Cn4 
	.byte	W06
	.byte		        En4 
	.byte	W06
	.byte		        An4 
	.byte	W06
	.byte		        En4 
	.byte	W06
	.byte		        Cn4 
	.byte	W06
	.byte		        An3 
	.byte	W06
	.byte		        En3 
	.byte	W06
	.byte		        Gn3 
	.byte	W06
	.byte		        Cs4 
	.byte	W06
	.byte		        En4 
	.byte	W06
	.byte		        Gn4 
	.byte	W06
	.byte		        En4 
	.byte	W06
	.byte	PEND
@ 012   ----------------------------------------
that_persons_name_is_11_012:
	.byte		N05   , Cs4 , v080
	.byte	W06
	.byte		        Gn3 
	.byte	W06
	.byte		        Dn3 
	.byte	W06
	.byte		        Fn3 
	.byte	W06
	.byte		        An3 
	.byte	W06
	.byte		        Dn4 
	.byte	W06
	.byte		        Fn4 
	.byte	W06
	.byte		        Dn4 
	.byte	W06
	.byte		        An3 
	.byte	W06
	.byte		        Fn3 
	.byte	W06
	.byte		        Dn3 
	.byte	W06
	.byte		        Gn3 
	.byte	W06
	.byte		        Bn3 
	.byte	W06
	.byte		        Dn4 
	.byte	W06
	.byte		        Gn4 
	.byte	W06
	.byte		        Dn4 
	.byte	W06
	.byte	PEND
@ 013   ----------------------------------------
that_persons_name_is_11_013:
	.byte		N05   , Bn3 , v080
	.byte	W06
	.byte		        Gn3 
	.byte	W06
	.byte		        Cn3 
	.byte	W06
	.byte		        En3 
	.byte	W06
	.byte		        Gn3 
	.byte	W06
	.byte		        Cn4 
	.byte	W06
	.byte		        En4 
	.byte	W06
	.byte		        Cn4 
	.byte	W06
	.byte		        Gn3 
	.byte	W06
	.byte		        En3 
	.byte	W06
	.byte		        Fn3 
	.byte	W06
	.byte		        An3 
	.byte	W06
	.byte		        Cn4 
	.byte	W06
	.byte		        Fn4 
	.byte	W06
	.byte		        An4 
	.byte	W06
	.byte		        Fn4 
	.byte	W06
	.byte	PEND
@ 014   ----------------------------------------
that_persons_name_is_11_014:
	.byte		N05   , Cn4 , v080
	.byte	W06
	.byte		        An3 
	.byte	W06
	.byte		N17   , Bn3 
	.byte	W18
	.byte		N17   
	.byte	W18
	.byte		N17   
	.byte	W24
	.byte		N11   , An3 
	.byte	W12
	.byte		N05   , Gn3 
	.byte	W12
	.byte	PEND
@ 015   ----------------------------------------
that_persons_name_is_11_015:
	.byte		N05   , Fn3 , v080
	.byte	W12
	.byte		N08   , En3 
	.byte	W84
	.byte	PEND
@ 016   ----------------------------------------
that_persons_name_is_11_016:
	.byte	W12
	.byte		N05   , En3 , v080
	.byte	W06
	.byte		        An3 
	.byte	W06
	.byte		        Cn4 
	.byte	W06
	.byte		        En4 
	.byte	W06
	.byte		        An4 
	.byte	W06
	.byte		        En4 
	.byte	W06
	.byte		        Cn4 
	.byte	W06
	.byte		        An3 
	.byte	W06
	.byte		        En3 
	.byte	W06
	.byte		        Gn3 
	.byte	W06
	.byte		        Bn3 
	.byte	W06
	.byte		        En4 
	.byte	W06
	.byte		        Gn4 
	.byte	W06
	.byte		        En4 
	.byte	W06
	.byte	PEND
@ 017   ----------------------------------------
	.byte	PATT
	 .word	that_persons_name_is_11_009
@ 018   ----------------------------------------
	.byte	PATT
	 .word	that_persons_name_is_11_010
@ 019   ----------------------------------------
	.byte	PATT
	 .word	that_persons_name_is_11_011
@ 020   ----------------------------------------
	.byte	PATT
	 .word	that_persons_name_is_11_012
@ 021   ----------------------------------------
	.byte	PATT
	 .word	that_persons_name_is_11_013
@ 022   ----------------------------------------
that_persons_name_is_11_022:
	.byte		N05   , Cn4 , v080
	.byte	W06
	.byte		        An3 
	.byte	W06
	.byte		N17   , Bn2 
	.byte	W18
	.byte		N17   
	.byte	W18
	.byte		N17   
	.byte	W24
	.byte		N11   , Gn2 
	.byte	W12
	.byte		N05   , Gn3 
	.byte	W12
	.byte	PEND
@ 023   ----------------------------------------
that_persons_name_is_11_023:
	.byte		N05   , Fn3 , v080
	.byte	W12
	.byte		N17   , En3 
	.byte	W84
	.byte	PEND
@ 024   ----------------------------------------
	.byte	W96
@ 025   ----------------------------------------
	.byte	W96
@ 026   ----------------------------------------
	.byte	W96
@ 027   ----------------------------------------
	.byte	W12
	.byte		N90   , Cn3 
	.byte	W84
@ 028   ----------------------------------------
	.byte	W12
	.byte		N90   
	.byte	W84
@ 029   ----------------------------------------
	.byte	W96
@ 030   ----------------------------------------
	.byte	W96
@ 031   ----------------------------------------
	.byte	W12
	.byte		        Fn3 
	.byte	W84
@ 032   ----------------------------------------
that_persons_name_is_11_032:
	.byte	W12
	.byte		N17   , Gs3 , v096
	.byte		N17   , Gs4 
	.byte	W18
	.byte		        Fn3 
	.byte		N17   , Fn4 
	.byte	W18
	.byte		N11   , Gs3 
	.byte		N11   , Gs4 
	.byte	W12
	.byte		N17   , Bn3 
	.byte		N17   , Bn4 
	.byte	W18
	.byte		        Gs3 
	.byte		N17   , Gs4 
	.byte	W18
	.byte	PEND
@ 033   ----------------------------------------
that_persons_name_is_11_033:
	.byte		N11   , Bn3 , v096
	.byte		N11   , Bn4 
	.byte	W24
	.byte		N05   , Cn4 
	.byte	W06
	.byte		        En4 
	.byte	W06
	.byte		        An4 
	.byte	W06
	.byte		        En4 
	.byte	W06
	.byte		        Cn4 
	.byte	W06
	.byte		        An3 
	.byte	W06
	.byte		        En3 
	.byte	W06
	.byte		        Gn3 
	.byte	W06
	.byte		        Bn3 
	.byte	W06
	.byte		        En4 
	.byte	W06
	.byte		        Gn4 
	.byte	W06
	.byte		        En4 
	.byte	W06
	.byte	PEND
@ 034   ----------------------------------------
that_persons_name_is_11_034:
	.byte		N05   , Bn3 , v096
	.byte	W06
	.byte		        Gn3 
	.byte	W06
	.byte		        Fn3 
	.byte	W06
	.byte		        An3 
	.byte	W06
	.byte		        Cn4 
	.byte	W06
	.byte		        Fn4 
	.byte	W06
	.byte		        An4 
	.byte	W06
	.byte		        Fn4 
	.byte	W06
	.byte		        Cn4 
	.byte	W06
	.byte		        An3 
	.byte	W06
	.byte		        En3 
	.byte	W06
	.byte		        An3 
	.byte	W06
	.byte		        Cn4 
	.byte	W06
	.byte		        En4 
	.byte	W06
	.byte		        An4 
	.byte	W06
	.byte		        En4 
	.byte	W06
	.byte	PEND
@ 035   ----------------------------------------
that_persons_name_is_11_035:
	.byte		N05   , Cn4 , v096
	.byte	W06
	.byte		        An3 
	.byte	W06
	.byte		        Fn3 
	.byte	W06
	.byte		        An3 
	.byte	W06
	.byte		        Cn4 
	.byte	W06
	.byte		        Fn4 
	.byte	W06
	.byte		        An4 
	.byte	W06
	.byte		        Fn4 
	.byte	W06
	.byte		        Cn4 
	.byte	W06
	.byte		        An3 
	.byte	W06
	.byte		        En3 
	.byte	W06
	.byte		        Gn3 
	.byte	W06
	.byte		        Bn3 
	.byte	W06
	.byte		        En4 
	.byte	W06
	.byte		        Gn4 
	.byte	W06
	.byte		        En4 
	.byte	W06
	.byte	PEND
@ 036   ----------------------------------------
that_persons_name_is_11_036:
	.byte		N05   , Bn3 , v096
	.byte	W06
	.byte		        Gn3 
	.byte	W06
	.byte		        En3 
	.byte	W06
	.byte		        An3 
	.byte	W06
	.byte		        Cn4 
	.byte	W06
	.byte		        En4 
	.byte	W06
	.byte		        An4 
	.byte	W06
	.byte		        En4 
	.byte	W06
	.byte		        Cn4 
	.byte	W06
	.byte		        An3 
	.byte	W06
	.byte		        En3 
	.byte	W06
	.byte		        Gn3 
	.byte	W06
	.byte		        Cs4 
	.byte	W06
	.byte		        En4 
	.byte	W06
	.byte		        Gn4 
	.byte	W06
	.byte		        En4 
	.byte	W06
	.byte	PEND
@ 037   ----------------------------------------
that_persons_name_is_11_037:
	.byte		N05   , Cs4 , v096
	.byte	W06
	.byte		        Gn3 
	.byte	W06
	.byte		        Dn3 
	.byte	W06
	.byte		        Fn3 
	.byte	W06
	.byte		        An3 
	.byte	W06
	.byte		        Dn4 
	.byte	W06
	.byte		        Fn4 
	.byte	W06
	.byte		        Dn4 
	.byte	W06
	.byte		        An3 
	.byte	W06
	.byte		        Fn3 
	.byte	W06
	.byte		        Dn3 
	.byte	W06
	.byte		        Gn3 
	.byte	W06
	.byte		        Bn3 
	.byte	W06
	.byte		        Dn4 
	.byte	W06
	.byte		        Gn4 
	.byte	W06
	.byte		        Dn4 
	.byte	W06
	.byte	PEND
@ 038   ----------------------------------------
that_persons_name_is_11_038:
	.byte		N05   , Bn3 , v096
	.byte	W06
	.byte		        Gn3 
	.byte	W06
	.byte		        Cn3 
	.byte	W06
	.byte		        En3 
	.byte	W06
	.byte		        Gn3 
	.byte	W06
	.byte		        Cn4 
	.byte	W06
	.byte		        En4 
	.byte	W06
	.byte		        Cn4 
	.byte	W06
	.byte		        Gn3 
	.byte	W06
	.byte		        En3 
	.byte	W06
	.byte		        Fn3 
	.byte	W06
	.byte		        An3 
	.byte	W06
	.byte		        Cn4 
	.byte	W06
	.byte		        Fn4 
	.byte	W06
	.byte		        An4 
	.byte	W06
	.byte		        Fn4 
	.byte	W06
	.byte	PEND
@ 039   ----------------------------------------
that_persons_name_is_11_039:
	.byte		N05   , Cn4 , v096
	.byte	W06
	.byte		        An3 
	.byte	W06
	.byte		N17   , Bn3 
	.byte	W18
	.byte		N17   
	.byte	W18
	.byte		N17   
	.byte	W24
	.byte		N11   , An3 
	.byte	W12
	.byte		N05   , Gn3 
	.byte	W12
	.byte	PEND
@ 040   ----------------------------------------
that_persons_name_is_11_040:
	.byte		N05   , Fn3 , v096
	.byte	W12
	.byte		N08   , En3 
	.byte	W84
	.byte	PEND
@ 041   ----------------------------------------
that_persons_name_is_11_041:
	.byte	W12
	.byte		N05   , En3 , v096
	.byte	W06
	.byte		        An3 
	.byte	W06
	.byte		        Cn4 
	.byte	W06
	.byte		        En4 
	.byte	W06
	.byte		        An4 
	.byte	W06
	.byte		        En4 
	.byte	W06
	.byte		        Cn4 
	.byte	W06
	.byte		        An3 
	.byte	W06
	.byte		        En3 
	.byte	W06
	.byte		        Gn3 
	.byte	W06
	.byte		        Bn3 
	.byte	W06
	.byte		        En4 
	.byte	W06
	.byte		        Gn4 
	.byte	W06
	.byte		        En4 
	.byte	W06
	.byte	PEND
@ 042   ----------------------------------------
	.byte	PATT
	 .word	that_persons_name_is_11_034
@ 043   ----------------------------------------
	.byte	PATT
	 .word	that_persons_name_is_11_035
@ 044   ----------------------------------------
	.byte	PATT
	 .word	that_persons_name_is_11_036
@ 045   ----------------------------------------
	.byte	PATT
	 .word	that_persons_name_is_11_037
@ 046   ----------------------------------------
	.byte	PATT
	 .word	that_persons_name_is_11_038
@ 047   ----------------------------------------
that_persons_name_is_11_047:
	.byte		N05   , Cn4 , v096
	.byte	W06
	.byte		        An3 
	.byte	W06
	.byte		N17   , Bn3 
	.byte	W18
	.byte		N17   
	.byte	W18
	.byte		N17   
	.byte	W24
	.byte		N11   , Gn3 
	.byte	W12
	.byte		N05   , Gn4 
	.byte	W12
	.byte	PEND
@ 048   ----------------------------------------
that_persons_name_is_11_048:
	.byte		N05   , Fn4 , v096
	.byte	W12
	.byte		N17   , En4 
	.byte	W84
	.byte	PEND
@ 049   ----------------------------------------
	.byte	W96
@ 050   ----------------------------------------
	.byte	W96
@ 051   ----------------------------------------
	.byte	W96
@ 052   ----------------------------------------
	.byte	W12
	.byte		N90   , Cn3 
	.byte	W84
@ 053   ----------------------------------------
	.byte	W12
	.byte		N90   
	.byte	W84
@ 054   ----------------------------------------
	.byte	W96
@ 055   ----------------------------------------
	.byte	W96
@ 056   ----------------------------------------
	.byte	W12
	.byte		        Fn3 
	.byte	W84
@ 057   ----------------------------------------
that_persons_name_is_11_057:
	.byte	W12
	.byte		N17   , Gs3 , v112
	.byte		N17   , Gs4 
	.byte	W18
	.byte		        Fn3 
	.byte		N17   , Fn4 
	.byte	W18
	.byte		N11   , Gs3 
	.byte		N11   , Gs4 
	.byte	W12
	.byte		N17   , Fs3 
	.byte		N17   , Fs4 
	.byte	W18
	.byte		        Gs3 
	.byte		N17   , Gs4 
	.byte	W18
	.byte	PEND
@ 058   ----------------------------------------
that_persons_name_is_11_058:
	.byte		N11   , An3 , v112
	.byte		N11   , An4 
	.byte	W12
	.byte		N32   , Bn3 
	.byte		N32   , Bn4 
	.byte	W36
	.byte		N05   , An3 
	.byte		N05   , An4 
	.byte	W06
	.byte		        Bn3 
	.byte		N05   , Bn4 
	.byte	W06
	.byte		N22   , Cn4 
	.byte		N22   , Cn5 
	.byte	W24
	.byte		        En4 
	.byte		N22   , En5 
	.byte	W12
	.byte	PEND
@ 059   ----------------------------------------
that_persons_name_is_11_059:
	.byte	W12
	.byte		N17   , Dn4 , v112
	.byte		N17   , Dn5 
	.byte	W18
	.byte		        An3 
	.byte		N17   , An4 
	.byte	W18
	.byte		N11   , Cn4 
	.byte		N11   , Cn5 
	.byte	W12
	.byte		N44   , Bn3 
	.byte		N44   , Bn4 
	.byte	W36
	.byte	PEND
@ 060   ----------------------------------------
that_persons_name_is_11_060:
	.byte	W12
	.byte		N17   , Gn3 , v112
	.byte		N17   , Gn4 
	.byte	W18
	.byte		        An3 
	.byte		N17   , An4 
	.byte	W18
	.byte		N11   , Bn3 
	.byte		N11   , Bn4 
	.byte	W12
	.byte		N05   , Cn4 
	.byte		N05   , Cn5 
	.byte	W12
	.byte		        Bn3 
	.byte		N05   , Bn4 
	.byte	W12
	.byte		N04   
	.byte	W04
	.byte		N07   , An3 
	.byte		N07   , An4 
	.byte	W08
	.byte	PEND
@ 061   ----------------------------------------
that_persons_name_is_11_061:
	.byte		N11   , Gn3 , v112
	.byte		N11   , Gn4 
	.byte	W12
	.byte		N32   , Gn3 
	.byte		N32   , Gn4 
	.byte	W36
	.byte		N05   , Fs3 
	.byte		N05   , Fs4 
	.byte	W06
	.byte		        En3 
	.byte		N05   , En4 
	.byte	W06
	.byte		N22   , Fs3 
	.byte		N22   , Fs4 
	.byte	W24
	.byte		N02   , Bn2 
	.byte		N02   , Bn3 
	.byte	W03
	.byte		        Cn3 
	.byte		N02   , Cn4 
	.byte	W03
	.byte		        Dn3 
	.byte		N02   , Dn4 
	.byte	W03
	.byte		        En3 
	.byte		N02   , En4 
	.byte	W03
	.byte	PEND
@ 062   ----------------------------------------
that_persons_name_is_11_062:
	.byte		N02   , Fs3 , v112
	.byte		N02   , Fs4 
	.byte	W03
	.byte		        Gn3 
	.byte		N02   , Gn4 
	.byte	W03
	.byte		        An3 
	.byte		N02   , An4 
	.byte	W03
	.byte		        Bn3 
	.byte		N02   , Bn4 
	.byte	W15
	.byte		N22   , Bn3 
	.byte		N22   , Bn4 
	.byte	W24
	.byte		N05   , An3 
	.byte		N05   , An4 
	.byte	W06
	.byte		        Bn3 
	.byte		N05   , Bn4 
	.byte	W06
	.byte		N22   , Cn4 
	.byte		N22   , Cn5 
	.byte	W24
	.byte		        En4 
	.byte		N22   , En5 
	.byte	W12
	.byte	PEND
@ 063   ----------------------------------------
that_persons_name_is_11_063:
	.byte	W12
	.byte		N17   , Fs4 , v112
	.byte		N17   , Fs5 
	.byte	W18
	.byte		        En4 
	.byte		N17   , En5 
	.byte	W18
	.byte		N11   , Dn4 
	.byte		N11   , Dn5 
	.byte	W12
	.byte		N44   , Bn4 
	.byte		N44   , Bn5 
	.byte	W36
	.byte	PEND
@ 064   ----------------------------------------
that_persons_name_is_11_064:
	.byte	W12
	.byte		N22   , An4 , v112
	.byte		N22   , An5 
	.byte	W36
	.byte		N05   , Gn4 
	.byte		N05   , Gn5 
	.byte	W06
	.byte		        Fs4 
	.byte		N05   , Fs5 
	.byte	W06
	.byte		N22   , En4 
	.byte		N22   , En5 
	.byte	W24
	.byte		        Dn4 
	.byte		N22   , Dn5 
	.byte	W12
	.byte	PEND
@ 065   ----------------------------------------
that_persons_name_is_11_065:
	.byte	W12
	.byte		N90   , Cs3 , v052
	.byte		N90   , En3 
	.byte		N90   , Gs3 
	.byte	W84
	.byte	PEND
@ 066   ----------------------------------------
that_persons_name_is_11_066:
	.byte	W12
	.byte		N90   , Bn2 , v052
	.byte		N90   , En3 
	.byte		N90   , Gs3 
	.byte	W84
	.byte	PEND
@ 067   ----------------------------------------
that_persons_name_is_11_067:
	.byte	W12
	.byte		N44   , An2 , v052
	.byte		N44   , Cs3 
	.byte		N44   , En3 
	.byte	W48
	.byte		        Bn2 
	.byte		N44   , En3 
	.byte	W36
	.byte	PEND
@ 068   ----------------------------------------
	.byte	PATT
	 .word	that_persons_name_is_11_066
@ 069   ----------------------------------------
that_persons_name_is_11_069:
	.byte	W12
	.byte		N90   , Cs3 , v052
	.byte		N90   , En3 
	.byte		N90   , An3 
	.byte	W84
	.byte	PEND
@ 070   ----------------------------------------
	.byte	PATT
	 .word	that_persons_name_is_11_066
@ 071   ----------------------------------------
that_persons_name_is_11_071:
	.byte	W12
	.byte		N90   , As2 , v052
	.byte		N90   , Ds3 
	.byte		N90   , Gn3 
	.byte	W84
	.byte	PEND
@ 072   ----------------------------------------
that_persons_name_is_11_072:
	.byte	W12
	.byte		N90   , Bn2 , v052
	.byte		N90   , Ds3 
	.byte		N90   , Gs3 
	.byte	W84
	.byte	PEND
@ 073   ----------------------------------------
	.byte	PATT
	 .word	that_persons_name_is_11_065
@ 074   ----------------------------------------
	.byte	PATT
	 .word	that_persons_name_is_11_066
@ 075   ----------------------------------------
	.byte	PATT
	 .word	that_persons_name_is_11_067
@ 076   ----------------------------------------
	.byte	PATT
	 .word	that_persons_name_is_11_066
@ 077   ----------------------------------------
	.byte	PATT
	 .word	that_persons_name_is_11_069
@ 078   ----------------------------------------
	.byte	PATT
	 .word	that_persons_name_is_11_066
@ 079   ----------------------------------------
that_persons_name_is_11_079:
	.byte	W12
	.byte		N90   , Cs3 , v052
	.byte		N90   , Ds3 
	.byte		N90   , Gn3 
	.byte	W84
	.byte	PEND
@ 080   ----------------------------------------
	.byte	PATT
	 .word	that_persons_name_is_11_072
@ 081   ----------------------------------------
that_persons_name_is_11_081:
	.byte	W12
	.byte		N11   , An2 , v052
	.byte		N11   , Cs3 
	.byte		N11   , En3 
	.byte	W72
	.byte		N22   , An2 
	.byte		N22   , Cs3 
	.byte		N22   , En3 
	.byte	W12
	.byte	PEND
@ 082   ----------------------------------------
that_persons_name_is_11_082:
	.byte	W12
	.byte		N11   , Bn2 , v052
	.byte		N11   , Ds3 
	.byte		N11   , Fs3 
	.byte	W48
	.byte		N22   , Fs2 
	.byte		N22   , Bn2 
	.byte		N22   , Ds3 
	.byte	W24
	.byte		        Bn2 
	.byte		N22   , Ds3 
	.byte		N22   , Fs3 
	.byte	W12
	.byte	PEND
@ 083   ----------------------------------------
that_persons_name_is_11_083:
	.byte	W12
	.byte		N05   , Cs3 , v080
	.byte	W06
	.byte		        En3 
	.byte	W06
	.byte		        Gs3 
	.byte	W06
	.byte		        Cs4 
	.byte	W06
	.byte		        En4 
	.byte	W06
	.byte		        Fs4 
	.byte	W06
	.byte		        Gs4 
	.byte	W06
	.byte		        Cs5 
	.byte	W06
	.byte		        Bn2 
	.byte	W06
	.byte		        Ds3 
	.byte	W06
	.byte		        Fs3 
	.byte	W06
	.byte		        Bn3 
	.byte	W06
	.byte		        Ds4 
	.byte	W06
	.byte		        En4 
	.byte	W06
	.byte	PEND
@ 084   ----------------------------------------
that_persons_name_is_11_084:
	.byte		N05   , Fs4 , v080
	.byte	W06
	.byte		        Bn4 
	.byte	W06
	.byte		        An2 
	.byte	W06
	.byte		        Cs3 
	.byte	W06
	.byte		        En3 
	.byte	W06
	.byte		        An3 
	.byte	W06
	.byte		        Cs4 
	.byte	W06
	.byte		        Ds4 
	.byte	W06
	.byte		        En4 
	.byte	W06
	.byte		        An4 
	.byte	W06
	.byte		        Gs2 
	.byte	W06
	.byte		        Bn2 
	.byte	W06
	.byte		        En3 
	.byte	W06
	.byte		        Gs3 
	.byte	W06
	.byte		        Cs4 
	.byte	W06
	.byte		        Ds4 
	.byte	W06
	.byte	PEND
@ 085   ----------------------------------------
that_persons_name_is_11_085:
	.byte		N05   , En4 , v080
	.byte	W06
	.byte		        Gs4 
	.byte	W06
	.byte		        An2 
	.byte	W06
	.byte		        Cs3 
	.byte	W06
	.byte		        Fs3 
	.byte	W06
	.byte		        An3 
	.byte	W06
	.byte		        Cs4 
	.byte	W06
	.byte		        Ds4 
	.byte	W06
	.byte		        Fs4 
	.byte	W06
	.byte		        An4 
	.byte	W06
	.byte		N05   
	.byte	W06
	.byte		        Fs4 
	.byte	W06
	.byte		        Cs4 
	.byte	W06
	.byte		        An3 
	.byte	W06
	.byte		        Gs3 
	.byte	W06
	.byte		        Fs3 
	.byte	W06
	.byte	PEND
@ 086   ----------------------------------------
that_persons_name_is_11_086:
	.byte		N05   , Cs3 , v080
	.byte	W06
	.byte		        An2 
	.byte	W06
	.byte		        Gs2 
	.byte	W06
	.byte		        Cs3 
	.byte	W06
	.byte		        Ds3 
	.byte	W06
	.byte		        Gs3 
	.byte	W06
	.byte		        Cs4 
	.byte	W06
	.byte		        Ds4 
	.byte	W06
	.byte		        Fs4 
	.byte	W06
	.byte		        Gs4 
	.byte	W06
	.byte		N05   
	.byte	W06
	.byte		        Fs4 
	.byte	W06
	.byte		        Ds4 
	.byte	W06
	.byte		        Cn4 
	.byte	W06
	.byte		        Gs3 
	.byte	W06
	.byte		        Ds3 
	.byte	W06
	.byte	PEND
@ 087   ----------------------------------------
that_persons_name_is_11_087:
	.byte		N05   , Cn3 , v080
	.byte	W06
	.byte		        Gs2 
	.byte	W06
	.byte		        Cs3 
	.byte	W06
	.byte		        En3 
	.byte	W06
	.byte		        Gs3 
	.byte	W06
	.byte		        Cs4 
	.byte	W06
	.byte		        En4 
	.byte	W06
	.byte		        Fs4 
	.byte	W06
	.byte		        Gs4 
	.byte	W06
	.byte		        Cs5 
	.byte	W06
	.byte		        Bn2 
	.byte	W06
	.byte		        Ds3 
	.byte	W06
	.byte		        Fs3 
	.byte	W06
	.byte		        Bn3 
	.byte	W06
	.byte		        Ds4 
	.byte	W06
	.byte		        En4 
	.byte	W06
	.byte	PEND
@ 088   ----------------------------------------
	.byte	PATT
	 .word	that_persons_name_is_11_084
@ 089   ----------------------------------------
that_persons_name_is_11_089:
	.byte		N05   , En4 , v080
	.byte	W06
	.byte		        Gs4 
	.byte	W06
	.byte		N90   , An2 
	.byte	W84
	.byte	PEND
@ 090   ----------------------------------------
that_persons_name_is_11_090:
	.byte	W12
	.byte		N44   , Cs3 , v080
	.byte	W48
	.byte		N05   , Cn3 , v127
	.byte	W06
	.byte		        Ds3 
	.byte	W06
	.byte		        Gs3 
	.byte	W06
	.byte		        Cn4 
	.byte	W06
	.byte		        Ds3 
	.byte	W06
	.byte		        Gs3 
	.byte	W06
	.byte	PEND
@ 091   ----------------------------------------
that_persons_name_is_11_091:
	.byte		N05   , Cn4 , v127
	.byte	W06
	.byte		        Gs4 
	.byte	W06
	.byte		N44   , As2 , v080
	.byte		N44   , As3 
	.byte	W48
	.byte		        An2 
	.byte		N44   , An3 
	.byte	W36
	.byte	PEND
@ 092   ----------------------------------------
that_persons_name_is_11_092:
	.byte	W12
	.byte		N44   , As2 , v080
	.byte		N44   , As3 
	.byte	W48
	.byte		        Cn3 
	.byte		N44   , Cn4 
	.byte	W36
	.byte	PEND
@ 093   ----------------------------------------
that_persons_name_is_11_093:
	.byte	W12
	.byte		N44   , Cs3 , v080
	.byte		N44   , Cs4 
	.byte	W48
	.byte		        Cn3 
	.byte		N44   , Cn4 
	.byte	W36
	.byte	PEND
@ 094   ----------------------------------------
that_persons_name_is_11_094:
	.byte	W12
	.byte		N44   , Cs3 , v080
	.byte		N44   , Cs4 
	.byte	W48
	.byte		        Dn3 
	.byte		N44   , Dn4 
	.byte	W36
	.byte	PEND
@ 095   ----------------------------------------
that_persons_name_is_11_095:
	.byte	W12
	.byte		N44   , Ds3 , v080
	.byte		N44   , Ds4 
	.byte	W48
	.byte		        Dn3 
	.byte		N44   , Dn4 
	.byte	W36
	.byte	PEND
@ 096   ----------------------------------------
that_persons_name_is_11_096:
	.byte	W12
	.byte		N44   , Ds3 , v080
	.byte		N44   , Ds4 
	.byte	W48
	.byte		        En3 
	.byte		N44   , En4 
	.byte	W36
	.byte	PEND
@ 097   ----------------------------------------
that_persons_name_is_11_097:
	.byte	W12
	.byte		N22   , Fn3 , v080
	.byte		N22   , As3 
	.byte		N22   , Fn4 
	.byte	W36
	.byte		        Fn3 
	.byte		N22   , As3 
	.byte		N22   , Fn4 
	.byte	W36
	.byte		        Fn3 
	.byte		N22   , As3 
	.byte		N22   , Fn4 
	.byte	W12
	.byte	PEND
@ 098   ----------------------------------------
that_persons_name_is_11_098:
	.byte	W12
	.byte		N11   , Fn3 , v064
	.byte		N11   , An3 
	.byte		N11   , Fn4 
	.byte	W12
	.byte		        Fn3 
	.byte		N11   , An3 
	.byte		N11   , Fn4 
	.byte	W12
	.byte		        Ds3 
	.byte		N11   , An3 
	.byte		N11   , Ds4 
	.byte	W12
	.byte		        Ds3 
	.byte		N11   , An3 
	.byte		N11   , Ds4 
	.byte	W12
	.byte		        Cs3 
	.byte		N11   , An3 
	.byte		N11   , Cs4 
	.byte	W12
	.byte		        Cs3 
	.byte		N11   , An3 
	.byte		N11   , Cs4 
	.byte	W12
	.byte		        Cn3 
	.byte		N11   , An3 
	.byte		N11   , Cn4 
	.byte	W12
	.byte	PEND
@ 099   ----------------------------------------
that_persons_name_is_11_099:
	.byte		N11   , Cn3 , v064
	.byte		N11   , An3 
	.byte		N11   , Cn4 
	.byte	W12
	.byte		N44   , As2 
	.byte		N44   , As3 
	.byte		N44   , As4 
	.byte	W48
	.byte		        An2 
	.byte		N44   , An3 
	.byte		N44   , An4 
	.byte	W36
	.byte	PEND
@ 100   ----------------------------------------
that_persons_name_is_11_100:
	.byte	W12
	.byte		N44   , As2 , v064
	.byte		N44   , As3 
	.byte		N44   , As4 
	.byte	W48
	.byte		        Cn3 
	.byte		N44   , Cn4 
	.byte		N44   , Cn5 
	.byte	W36
	.byte	PEND
@ 101   ----------------------------------------
that_persons_name_is_11_101:
	.byte	W12
	.byte		N44   , Cs3 , v064
	.byte		N44   , Cs4 
	.byte		N44   , Cs5 
	.byte	W48
	.byte		        Cn3 
	.byte		N44   , Cn4 
	.byte		N44   , Cn5 
	.byte	W36
	.byte	PEND
@ 102   ----------------------------------------
that_persons_name_is_11_102:
	.byte	W12
	.byte		N44   , Cs3 , v064
	.byte		N44   , Cs4 
	.byte		N44   , Cs5 
	.byte	W48
	.byte		        Dn3 
	.byte		N44   , Dn4 
	.byte		N44   , Dn5 
	.byte	W36
	.byte	PEND
@ 103   ----------------------------------------
that_persons_name_is_11_103:
	.byte	W12
	.byte		N44   , Ds3 , v064
	.byte		N44   , Ds4 
	.byte		N44   , Ds5 
	.byte	W48
	.byte		        Dn3 
	.byte		N44   , Dn4 
	.byte		N44   , Dn5 
	.byte	W36
	.byte	PEND
@ 104   ----------------------------------------
that_persons_name_is_11_104:
	.byte	W12
	.byte		N44   , Ds3 , v064
	.byte		N44   , Ds4 
	.byte		N44   , Ds5 
	.byte	W48
	.byte		        En3 
	.byte		N44   , En4 
	.byte		N44   , En5 
	.byte	W36
	.byte	PEND
@ 105   ----------------------------------------
that_persons_name_is_11_105:
	.byte	W12
	.byte		N22   , Fn3 , v064
	.byte		N22   , As3 
	.byte		N22   , Cs4 
	.byte		N22   , Fn4 
	.byte	W36
	.byte		        Fn3 
	.byte		N22   , As3 
	.byte		N22   , Cs4 
	.byte		N22   , Fn4 
	.byte	W36
	.byte		        Fn3 
	.byte		N22   , As3 
	.byte		N22   , Cs4 
	.byte		N22   , Fn4 
	.byte	W12
	.byte	PEND
@ 106   ----------------------------------------
that_persons_name_is_11_106:
	.byte	W12
	.byte		N22   , Fn3 , v064
	.byte		N22   , An3 
	.byte		N22   , Cn4 
	.byte		N22   , Fn4 
	.byte	W36
	.byte		        Fn3 
	.byte		N22   , An3 
	.byte		N22   , Cn4 
	.byte		N22   , Fn4 
	.byte	W36
	.byte		        Fn3 
	.byte		N22   , An3 
	.byte		N22   , Cn4 
	.byte		N22   , Fn4 
	.byte	W12
	.byte	PEND
@ 107   ----------------------------------------
	.byte	PATT
	 .word	that_persons_name_is_11_105
@ 108   ----------------------------------------
that_persons_name_is_11_108:
	.byte	W12
	.byte		N22   , Fn3 , v064
	.byte		N22   , An3 
	.byte		N22   , Cn4 
	.byte		N22   , Fn4 
	.byte	W48
	.byte		N17   , Fn3 
	.byte		N17   , An3 
	.byte		N17   , Cn4 
	.byte		N17   , Fn4 
	.byte	W36
	.byte	PEND
@ 109   ----------------------------------------
	.byte	W96
@ 110   ----------------------------------------
	.byte	PATT
	 .word	that_persons_name_is_11_016
@ 111   ----------------------------------------
	.byte	PATT
	 .word	that_persons_name_is_11_009
@ 112   ----------------------------------------
	.byte	PATT
	 .word	that_persons_name_is_11_010
@ 113   ----------------------------------------
	.byte	PATT
	 .word	that_persons_name_is_11_011
@ 114   ----------------------------------------
	.byte	PATT
	 .word	that_persons_name_is_11_012
@ 115   ----------------------------------------
	.byte	PATT
	 .word	that_persons_name_is_11_013
@ 116   ----------------------------------------
	.byte	PATT
	 .word	that_persons_name_is_11_014
@ 117   ----------------------------------------
	.byte	PATT
	 .word	that_persons_name_is_11_015
@ 118   ----------------------------------------
	.byte	PATT
	 .word	that_persons_name_is_11_016
@ 119   ----------------------------------------
	.byte	PATT
	 .word	that_persons_name_is_11_009
@ 120   ----------------------------------------
	.byte	PATT
	 .word	that_persons_name_is_11_010
@ 121   ----------------------------------------
	.byte	PATT
	 .word	that_persons_name_is_11_011
@ 122   ----------------------------------------
	.byte	PATT
	 .word	that_persons_name_is_11_012
@ 123   ----------------------------------------
	.byte	PATT
	 .word	that_persons_name_is_11_013
@ 124   ----------------------------------------
	.byte	PATT
	 .word	that_persons_name_is_11_022
@ 125   ----------------------------------------
	.byte	PATT
	 .word	that_persons_name_is_11_023
@ 126   ----------------------------------------
	.byte	W96
@ 127   ----------------------------------------
	.byte	W96
@ 128   ----------------------------------------
	.byte	W96
@ 129   ----------------------------------------
	.byte	W12
	.byte		N90   , Cn3 , v080
	.byte	W84
@ 130   ----------------------------------------
	.byte	W12
	.byte		N90   
	.byte	W84
@ 131   ----------------------------------------
	.byte	W96
@ 132   ----------------------------------------
	.byte	W96
@ 133   ----------------------------------------
	.byte	W12
	.byte		        Fn3 
	.byte	W84
@ 134   ----------------------------------------
	.byte	PATT
	 .word	that_persons_name_is_11_032
@ 135   ----------------------------------------
	.byte	PATT
	 .word	that_persons_name_is_11_033
@ 136   ----------------------------------------
	.byte	PATT
	 .word	that_persons_name_is_11_034
@ 137   ----------------------------------------
	.byte	PATT
	 .word	that_persons_name_is_11_035
@ 138   ----------------------------------------
	.byte	PATT
	 .word	that_persons_name_is_11_036
@ 139   ----------------------------------------
	.byte	PATT
	 .word	that_persons_name_is_11_037
@ 140   ----------------------------------------
	.byte	PATT
	 .word	that_persons_name_is_11_038
@ 141   ----------------------------------------
	.byte	PATT
	 .word	that_persons_name_is_11_039
@ 142   ----------------------------------------
	.byte	PATT
	 .word	that_persons_name_is_11_040
@ 143   ----------------------------------------
	.byte	PATT
	 .word	that_persons_name_is_11_041
@ 144   ----------------------------------------
	.byte	PATT
	 .word	that_persons_name_is_11_034
@ 145   ----------------------------------------
	.byte	PATT
	 .word	that_persons_name_is_11_035
@ 146   ----------------------------------------
	.byte	PATT
	 .word	that_persons_name_is_11_036
@ 147   ----------------------------------------
	.byte	PATT
	 .word	that_persons_name_is_11_037
@ 148   ----------------------------------------
	.byte	PATT
	 .word	that_persons_name_is_11_038
@ 149   ----------------------------------------
	.byte	PATT
	 .word	that_persons_name_is_11_047
@ 150   ----------------------------------------
	.byte	PATT
	 .word	that_persons_name_is_11_048
@ 151   ----------------------------------------
	.byte	W96
@ 152   ----------------------------------------
	.byte	W96
@ 153   ----------------------------------------
	.byte	W96
@ 154   ----------------------------------------
	.byte	W12
	.byte		N90   , Cn3 , v096
	.byte	W84
@ 155   ----------------------------------------
	.byte	W12
	.byte		N90   
	.byte	W84
@ 156   ----------------------------------------
	.byte	W96
@ 157   ----------------------------------------
	.byte	W96
@ 158   ----------------------------------------
	.byte	W12
	.byte		        Fn3 
	.byte	W84
@ 159   ----------------------------------------
	.byte	PATT
	 .word	that_persons_name_is_11_057
@ 160   ----------------------------------------
	.byte	PATT
	 .word	that_persons_name_is_11_058
@ 161   ----------------------------------------
	.byte	PATT
	 .word	that_persons_name_is_11_059
@ 162   ----------------------------------------
	.byte	PATT
	 .word	that_persons_name_is_11_060
@ 163   ----------------------------------------
	.byte	PATT
	 .word	that_persons_name_is_11_061
@ 164   ----------------------------------------
	.byte	PATT
	 .word	that_persons_name_is_11_062
@ 165   ----------------------------------------
	.byte	PATT
	 .word	that_persons_name_is_11_063
@ 166   ----------------------------------------
	.byte	PATT
	 .word	that_persons_name_is_11_064
@ 167   ----------------------------------------
	.byte	PATT
	 .word	that_persons_name_is_11_065
@ 168   ----------------------------------------
	.byte	PATT
	 .word	that_persons_name_is_11_066
@ 169   ----------------------------------------
	.byte	PATT
	 .word	that_persons_name_is_11_067
@ 170   ----------------------------------------
	.byte	PATT
	 .word	that_persons_name_is_11_066
@ 171   ----------------------------------------
	.byte	PATT
	 .word	that_persons_name_is_11_069
@ 172   ----------------------------------------
	.byte	PATT
	 .word	that_persons_name_is_11_066
@ 173   ----------------------------------------
	.byte	PATT
	 .word	that_persons_name_is_11_071
@ 174   ----------------------------------------
	.byte	PATT
	 .word	that_persons_name_is_11_072
@ 175   ----------------------------------------
	.byte	PATT
	 .word	that_persons_name_is_11_065
@ 176   ----------------------------------------
	.byte	PATT
	 .word	that_persons_name_is_11_066
@ 177   ----------------------------------------
	.byte	PATT
	 .word	that_persons_name_is_11_067
@ 178   ----------------------------------------
	.byte	PATT
	 .word	that_persons_name_is_11_066
@ 179   ----------------------------------------
	.byte	PATT
	 .word	that_persons_name_is_11_069
@ 180   ----------------------------------------
	.byte	PATT
	 .word	that_persons_name_is_11_066
@ 181   ----------------------------------------
	.byte	PATT
	 .word	that_persons_name_is_11_079
@ 182   ----------------------------------------
	.byte	PATT
	 .word	that_persons_name_is_11_072
@ 183   ----------------------------------------
	.byte	PATT
	 .word	that_persons_name_is_11_081
@ 184   ----------------------------------------
	.byte	PATT
	 .word	that_persons_name_is_11_082
@ 185   ----------------------------------------
	.byte	PATT
	 .word	that_persons_name_is_11_083
@ 186   ----------------------------------------
	.byte	PATT
	 .word	that_persons_name_is_11_084
@ 187   ----------------------------------------
	.byte	PATT
	 .word	that_persons_name_is_11_085
@ 188   ----------------------------------------
	.byte	PATT
	 .word	that_persons_name_is_11_086
@ 189   ----------------------------------------
	.byte	PATT
	 .word	that_persons_name_is_11_087
@ 190   ----------------------------------------
	.byte	PATT
	 .word	that_persons_name_is_11_084
@ 191   ----------------------------------------
	.byte	PATT
	 .word	that_persons_name_is_11_089
@ 192   ----------------------------------------
	.byte	PATT
	 .word	that_persons_name_is_11_090
@ 193   ----------------------------------------
	.byte	PATT
	 .word	that_persons_name_is_11_091
@ 194   ----------------------------------------
	.byte	PATT
	 .word	that_persons_name_is_11_092
@ 195   ----------------------------------------
	.byte	PATT
	 .word	that_persons_name_is_11_093
@ 196   ----------------------------------------
	.byte	PATT
	 .word	that_persons_name_is_11_094
@ 197   ----------------------------------------
	.byte	PATT
	 .word	that_persons_name_is_11_095
@ 198   ----------------------------------------
	.byte	PATT
	 .word	that_persons_name_is_11_096
@ 199   ----------------------------------------
	.byte	PATT
	 .word	that_persons_name_is_11_097
@ 200   ----------------------------------------
	.byte	PATT
	 .word	that_persons_name_is_11_098
@ 201   ----------------------------------------
	.byte	PATT
	 .word	that_persons_name_is_11_099
@ 202   ----------------------------------------
	.byte	PATT
	 .word	that_persons_name_is_11_100
@ 203   ----------------------------------------
	.byte	PATT
	 .word	that_persons_name_is_11_101
@ 204   ----------------------------------------
	.byte	PATT
	 .word	that_persons_name_is_11_102
@ 205   ----------------------------------------
	.byte	PATT
	 .word	that_persons_name_is_11_103
@ 206   ----------------------------------------
	.byte	PATT
	 .word	that_persons_name_is_11_104
@ 207   ----------------------------------------
	.byte	PATT
	 .word	that_persons_name_is_11_105
@ 208   ----------------------------------------
	.byte	PATT
	 .word	that_persons_name_is_11_106
@ 209   ----------------------------------------
	.byte	PATT
	 .word	that_persons_name_is_11_105
@ 210   ----------------------------------------
	.byte	PATT
	 .word	that_persons_name_is_11_108
@ 211   ----------------------------------------
	.byte	W96
@ 212   ----------------------------------------
	.byte	W36
	.byte	GOTO
	 .word	that_persons_name_is_11_B1
that_persons_name_is_11_B2:
	.byte	FINE

@**************** Track 12 (Midi-Chn.16) ****************@

that_persons_name_is_12:
	.byte	KEYSH , that_persons_name_is_key+0
that_persons_name_is_12_B1:
@ 000   ----------------------------------------
	.byte		VOICE , 33
	.byte		PAN   , c_v+0
	.byte		VOL   , 127*that_persons_name_is_mvl/mxv
	.byte	W12
	.byte		N44   , An1 , v080
	.byte	W48
	.byte		        Gn1 
	.byte	W36
@ 001   ----------------------------------------
	.byte	W12
	.byte		        Fn1 
	.byte	W48
	.byte		        En1 
	.byte	W36
@ 002   ----------------------------------------
	.byte	W12
	.byte		N11   , Dn1 
	.byte	W12
	.byte		        An1 
	.byte	W12
	.byte		        Dn1 
	.byte	W12
	.byte		N11   
	.byte	W12
	.byte		        An1 
	.byte	W12
	.byte		        Dn1 
	.byte	W12
	.byte		N11   
	.byte	W12
@ 003   ----------------------------------------
	.byte		        An1 
	.byte	W12
	.byte		N23   , En1 
	.byte	W24
	.byte		        An1 
	.byte	W24
	.byte		        Gs1 
	.byte	W24
	.byte		        Gn2 
	.byte	W12
@ 004   ----------------------------------------
	.byte	W12
	.byte		N05   , An1 
	.byte	W12
	.byte		N05   
	.byte	W12
	.byte		N05   
	.byte	W12
	.byte		N11   , An2 
	.byte	W12
	.byte		N05   , Gn1 
	.byte	W12
	.byte		N05   
	.byte	W12
	.byte		N05   
	.byte	W12
@ 005   ----------------------------------------
	.byte		N11   , Gn2 
	.byte	W12
	.byte		N05   , Fn1 
	.byte	W12
	.byte		N05   
	.byte	W12
	.byte		N05   
	.byte	W12
	.byte		N11   
	.byte	W12
	.byte		N05   , En1 
	.byte	W12
	.byte		N05   
	.byte	W12
	.byte		N05   
	.byte	W12
@ 006   ----------------------------------------
	.byte		N11   
	.byte	W12
	.byte		N05   , Dn1 
	.byte	W12
	.byte		N05   
	.byte	W12
	.byte		N05   
	.byte	W12
	.byte		N11   , An1 
	.byte	W12
	.byte		N05   , Dn2 
	.byte	W12
	.byte		        Fn2 
	.byte	W12
	.byte		        Dn2 
	.byte	W12
@ 007   ----------------------------------------
	.byte		N11   , An1 
	.byte	W12
	.byte		N05   , En1 
	.byte	W12
	.byte		N05   
	.byte	W12
	.byte		N05   
	.byte	W12
	.byte		N11   , An1 
	.byte	W12
	.byte		N05   , En2 
	.byte	W12
	.byte		        Gs2 
	.byte	W12
	.byte		N02   , En2 
	.byte	W06
	.byte		N05   , Dn2 
	.byte	W06
@ 008   ----------------------------------------
	.byte		        Cn2 
	.byte	W06
	.byte		        Bn1 
	.byte	W06
	.byte		N02   , An1 
	.byte	W06
	.byte		N02   
	.byte	W06
	.byte		N11   , An2 
	.byte	W12
	.byte		        An1 
	.byte	W12
	.byte		N02   , En2 
	.byte	W06
	.byte		        An2 
	.byte	W06
	.byte		        Gn1 
	.byte	W06
	.byte		N02   
	.byte	W06
	.byte		N11   , Gn2 
	.byte	W12
	.byte		        Gn1 
	.byte	W12
@ 009   ----------------------------------------
that_persons_name_is_12_009:
	.byte		N02   , Dn2 , v080
	.byte	W06
	.byte		        Gn2 
	.byte	W06
	.byte		        Fn1 
	.byte	W06
	.byte		N02   
	.byte	W06
	.byte		N11   , Fn2 
	.byte	W12
	.byte		        Fn1 
	.byte	W12
	.byte		N02   , Cn2 
	.byte	W06
	.byte		        Fn2 
	.byte	W06
	.byte		        En1 
	.byte	W06
	.byte		N02   
	.byte	W06
	.byte		N11   , En2 
	.byte	W12
	.byte		        En1 
	.byte	W12
	.byte	PEND
@ 010   ----------------------------------------
that_persons_name_is_12_010:
	.byte		N02   , Bn1 , v080
	.byte	W06
	.byte		        En2 
	.byte	W06
	.byte		        Fn1 
	.byte	W06
	.byte		N02   
	.byte	W06
	.byte		N11   , Fn2 
	.byte	W12
	.byte		        Fn1 
	.byte	W12
	.byte		N02   , Cn2 
	.byte	W06
	.byte		        Fn2 
	.byte	W06
	.byte		        Gn1 
	.byte	W06
	.byte		N02   
	.byte	W06
	.byte		N11   , Gn2 
	.byte	W12
	.byte		        Gn1 
	.byte	W12
	.byte	PEND
@ 011   ----------------------------------------
that_persons_name_is_12_011:
	.byte		N02   , Dn2 , v080
	.byte	W06
	.byte		        Gn2 
	.byte	W06
	.byte		N05   , Cn2 
	.byte	W12
	.byte		N11   
	.byte	W12
	.byte		N11   
	.byte	W12
	.byte		N02   
	.byte	W06
	.byte		        Cn1 
	.byte	W06
	.byte		        Cs2 
	.byte	W06
	.byte		N05   
	.byte	W06
	.byte		N11   , An2 
	.byte	W12
	.byte		        Cs2 
	.byte	W12
	.byte	PEND
@ 012   ----------------------------------------
that_persons_name_is_12_012:
	.byte		N02   , En2 , v080
	.byte	W06
	.byte		        Gn2 
	.byte	W06
	.byte		        Fn1 
	.byte	W06
	.byte		N02   
	.byte	W06
	.byte		N11   , Dn2 
	.byte	W12
	.byte		        Fn1 
	.byte	W12
	.byte		N02   , An1 
	.byte	W06
	.byte		        Dn2 
	.byte	W06
	.byte		        Gn1 
	.byte	W06
	.byte		N02   
	.byte	W06
	.byte		N11   , Gn2 
	.byte	W12
	.byte		        Gn1 
	.byte	W12
	.byte	PEND
@ 013   ----------------------------------------
that_persons_name_is_12_013:
	.byte		N02   , Dn2 , v080
	.byte	W06
	.byte		        Gn2 
	.byte	W06
	.byte		        En1 
	.byte	W06
	.byte		N02   
	.byte	W06
	.byte		N11   , En2 
	.byte	W12
	.byte		        En1 
	.byte	W12
	.byte		N02   , Gn1 
	.byte	W06
	.byte		        Cn2 
	.byte	W06
	.byte		        Fn1 
	.byte	W06
	.byte		N02   
	.byte	W06
	.byte		N11   , Fn2 
	.byte	W12
	.byte		        Fn1 
	.byte	W12
	.byte	PEND
@ 014   ----------------------------------------
that_persons_name_is_12_014:
	.byte		N02   , Cn2 , v080
	.byte	W06
	.byte		        Fn2 
	.byte	W06
	.byte		N17   , Bn1 
	.byte	W18
	.byte		N17   
	.byte	W18
	.byte		N17   
	.byte	W24
	.byte		N11   , An1 
	.byte	W12
	.byte		N05   , Gn1 
	.byte	W12
	.byte	PEND
@ 015   ----------------------------------------
that_persons_name_is_12_015:
	.byte		N05   , Fn1 , v080
	.byte	W12
	.byte		        En1 
	.byte	W12
	.byte		        Bn1 
	.byte	W12
	.byte		        En2 
	.byte	W06
	.byte		        Dn2 
	.byte	W12
	.byte		        En1 
	.byte	W06
	.byte		N05   
	.byte	W12
	.byte		        Bn1 
	.byte	W12
	.byte		        En2 
	.byte	W12
	.byte	PEND
@ 016   ----------------------------------------
that_persons_name_is_12_016:
	.byte		N05   , Bn2 , v080
	.byte	W12
	.byte		N02   , An1 
	.byte	W06
	.byte		N02   
	.byte	W06
	.byte		N11   , An2 
	.byte	W12
	.byte		        An1 
	.byte	W12
	.byte		N02   , En2 
	.byte	W06
	.byte		        An2 
	.byte	W06
	.byte		        Gn1 
	.byte	W06
	.byte		N02   
	.byte	W06
	.byte		N11   , Gn2 
	.byte	W12
	.byte		        Gn1 
	.byte	W12
	.byte	PEND
@ 017   ----------------------------------------
	.byte	PATT
	 .word	that_persons_name_is_12_009
@ 018   ----------------------------------------
	.byte	PATT
	 .word	that_persons_name_is_12_010
@ 019   ----------------------------------------
	.byte	PATT
	 .word	that_persons_name_is_12_011
@ 020   ----------------------------------------
	.byte	PATT
	 .word	that_persons_name_is_12_012
@ 021   ----------------------------------------
	.byte	PATT
	 .word	that_persons_name_is_12_013
@ 022   ----------------------------------------
that_persons_name_is_12_022:
	.byte		N02   , Cn2 , v080
	.byte	W06
	.byte		        Fn2 
	.byte	W06
	.byte		N17   , Bn1 
	.byte	W18
	.byte		N17   
	.byte	W18
	.byte		N17   
	.byte	W24
	.byte		N11   , Gn1 
	.byte	W12
	.byte		N05   , Gn2 
	.byte	W12
	.byte	PEND
@ 023   ----------------------------------------
that_persons_name_is_12_023:
	.byte		N05   , Fn2 , v080
	.byte	W12
	.byte		N11   , En1 
	.byte	W18
	.byte		N05   
	.byte	W18
	.byte		N23   
	.byte	W24
	.byte		N11   , Fn1 
	.byte	W12
	.byte		        Cn1 
	.byte	W12
	.byte	PEND
@ 024   ----------------------------------------
that_persons_name_is_12_024:
	.byte		N11   , Fn1 , v080
	.byte	W12
	.byte		N17   , Fs1 
	.byte	W18
	.byte		        Dn1 
	.byte	W18
	.byte		N11   , Fs1 
	.byte	W12
	.byte		N44   , Gs1 
	.byte	W36
	.byte	PEND
@ 025   ----------------------------------------
that_persons_name_is_12_025:
	.byte	W12
	.byte		N05   , Fs1 , v080
	.byte	W12
	.byte		N05   
	.byte	W12
	.byte		N05   
	.byte	W12
	.byte		N05   
	.byte	W12
	.byte		N05   
	.byte	W12
	.byte		        Fs2 
	.byte	W12
	.byte		        Fs1 
	.byte	W12
	.byte	PEND
@ 026   ----------------------------------------
that_persons_name_is_12_026:
	.byte		N05   , Fs2 , v080
	.byte	W12
	.byte		        Fs1 
	.byte	W12
	.byte		        Fs2 
	.byte	W12
	.byte		        Fs1 
	.byte	W12
	.byte		        Fs2 
	.byte	W12
	.byte		        Fs1 
	.byte	W12
	.byte		        Fs2 
	.byte	W12
	.byte		N02   , Fs1 
	.byte	W06
	.byte		N02   
	.byte	W06
	.byte	PEND
@ 027   ----------------------------------------
that_persons_name_is_12_027:
	.byte		N05   , Fs2 , v080
	.byte	W12
	.byte		        Fs1 
	.byte	W12
	.byte		N05   
	.byte	W12
	.byte		N05   
	.byte	W12
	.byte		N02   
	.byte	W06
	.byte		N02   
	.byte	W06
	.byte		N05   
	.byte	W12
	.byte		        Fs2 
	.byte	W12
	.byte		        Fs1 
	.byte	W12
	.byte	PEND
@ 028   ----------------------------------------
that_persons_name_is_12_028:
	.byte		N02   , Fs2 , v080
	.byte	W06
	.byte		N02   
	.byte	W06
	.byte		N05   , Fs1 
	.byte	W12
	.byte		N02   , Fs2 
	.byte	W06
	.byte		N02   
	.byte	W06
	.byte		N05   , Fs1 
	.byte	W12
	.byte		        Fs2 
	.byte	W12
	.byte		        Fs1 
	.byte	W12
	.byte		        Fs2 
	.byte	W12
	.byte		N02   , Fs1 
	.byte	W06
	.byte		N02   
	.byte	W06
	.byte	PEND
@ 029   ----------------------------------------
	.byte	PATT
	 .word	that_persons_name_is_12_027
@ 030   ----------------------------------------
	.byte	PATT
	 .word	that_persons_name_is_12_028
@ 031   ----------------------------------------
that_persons_name_is_12_031:
	.byte		N05   , Fs2 , v080
	.byte	W12
	.byte		        Bn1 
	.byte	W12
	.byte		N05   
	.byte	W12
	.byte		N05   
	.byte	W12
	.byte		N05   
	.byte	W12
	.byte		        Fn1 
	.byte	W12
	.byte		        Fn2 
	.byte	W12
	.byte		        Fn1 
	.byte	W12
	.byte	PEND
@ 032   ----------------------------------------
that_persons_name_is_12_032:
	.byte		N05   , Fn2 , v080
	.byte	W12
	.byte		N17   
	.byte	W18
	.byte		        Dn2 
	.byte	W18
	.byte		N11   , Bn1 
	.byte	W12
	.byte		N17   , Gs1 
	.byte	W18
	.byte		        Fn1 
	.byte	W18
	.byte	PEND
@ 033   ----------------------------------------
that_persons_name_is_12_033:
	.byte		N11   , Dn1 , v080
	.byte	W24
	.byte		        An2 
	.byte	W12
	.byte		        An1 
	.byte	W12
	.byte		N02   , En2 
	.byte	W06
	.byte		        An2 
	.byte	W06
	.byte		        Gn1 
	.byte	W06
	.byte		N02   
	.byte	W06
	.byte		N11   , Gn2 
	.byte	W12
	.byte		        Gn1 
	.byte	W12
	.byte	PEND
@ 034   ----------------------------------------
	.byte	PATT
	 .word	that_persons_name_is_12_009
@ 035   ----------------------------------------
	.byte	PATT
	 .word	that_persons_name_is_12_010
@ 036   ----------------------------------------
	.byte	PATT
	 .word	that_persons_name_is_12_011
@ 037   ----------------------------------------
	.byte	PATT
	 .word	that_persons_name_is_12_012
@ 038   ----------------------------------------
	.byte	PATT
	 .word	that_persons_name_is_12_013
@ 039   ----------------------------------------
	.byte	PATT
	 .word	that_persons_name_is_12_014
@ 040   ----------------------------------------
	.byte	PATT
	 .word	that_persons_name_is_12_015
@ 041   ----------------------------------------
	.byte	PATT
	 .word	that_persons_name_is_12_016
@ 042   ----------------------------------------
	.byte	PATT
	 .word	that_persons_name_is_12_009
@ 043   ----------------------------------------
	.byte	PATT
	 .word	that_persons_name_is_12_010
@ 044   ----------------------------------------
	.byte	PATT
	 .word	that_persons_name_is_12_011
@ 045   ----------------------------------------
	.byte	PATT
	 .word	that_persons_name_is_12_012
@ 046   ----------------------------------------
	.byte	PATT
	 .word	that_persons_name_is_12_013
@ 047   ----------------------------------------
	.byte	PATT
	 .word	that_persons_name_is_12_022
@ 048   ----------------------------------------
	.byte	PATT
	 .word	that_persons_name_is_12_023
@ 049   ----------------------------------------
that_persons_name_is_12_049:
	.byte		N11   , Fn1 , v080
	.byte	W12
	.byte		N17   , Fs1 
	.byte	W18
	.byte		        Dn1 
	.byte	W18
	.byte		N11   , Fs1 
	.byte	W12
	.byte		N23   , Gs1 
	.byte	W36
	.byte	PEND
@ 050   ----------------------------------------
	.byte	PATT
	 .word	that_persons_name_is_12_025
@ 051   ----------------------------------------
	.byte	PATT
	 .word	that_persons_name_is_12_026
@ 052   ----------------------------------------
	.byte	PATT
	 .word	that_persons_name_is_12_027
@ 053   ----------------------------------------
	.byte	PATT
	 .word	that_persons_name_is_12_028
@ 054   ----------------------------------------
that_persons_name_is_12_054:
	.byte		N05   , Fs2 , v080
	.byte	W12
	.byte		        Fs1 
	.byte	W12
	.byte		N05   
	.byte	W12
	.byte		N05   
	.byte	W12
	.byte		N05   
	.byte	W12
	.byte		N05   
	.byte	W12
	.byte		        Fs2 
	.byte	W12
	.byte		        Fs1 
	.byte	W12
	.byte	PEND
@ 055   ----------------------------------------
	.byte	PATT
	 .word	that_persons_name_is_12_026
@ 056   ----------------------------------------
	.byte	PATT
	 .word	that_persons_name_is_12_031
@ 057   ----------------------------------------
that_persons_name_is_12_057:
	.byte		N05   , Fn2 , v080
	.byte	W12
	.byte		N17   
	.byte	W18
	.byte		        Dn2 
	.byte	W18
	.byte		N11   , Bn1 
	.byte	W12
	.byte		N17   , Fs1 
	.byte	W18
	.byte		        Gs1 
	.byte	W18
	.byte	PEND
@ 058   ----------------------------------------
that_persons_name_is_12_058:
	.byte		N11   , An1 , v080
	.byte	W12
	.byte		N05   , En1 
	.byte	W12
	.byte		N05   
	.byte	W12
	.byte		N05   
	.byte	W12
	.byte		N02   , En2 
	.byte	W06
	.byte		N02   
	.byte	W06
	.byte		N05   , Cn2 
	.byte	W12
	.byte		N05   
	.byte	W12
	.byte		N05   
	.byte	W12
	.byte	PEND
@ 059   ----------------------------------------
that_persons_name_is_12_059:
	.byte		N11   , Cn1 , v080
	.byte	W12
	.byte		N05   , An1 
	.byte	W12
	.byte		N05   
	.byte	W12
	.byte		N05   
	.byte	W12
	.byte		N02   , Dn2 
	.byte	W06
	.byte		N02   
	.byte	W06
	.byte		N05   , Gn1 
	.byte	W12
	.byte		N05   
	.byte	W12
	.byte		N05   
	.byte	W12
	.byte	PEND
@ 060   ----------------------------------------
that_persons_name_is_12_060:
	.byte		N02   , Gn2 , v080
	.byte	W06
	.byte		N02   
	.byte	W06
	.byte		N05   , En1 
	.byte	W12
	.byte		N05   
	.byte	W12
	.byte		N05   
	.byte	W12
	.byte		N02   , En2 
	.byte	W06
	.byte		N02   
	.byte	W06
	.byte		N05   , Cn2 
	.byte	W12
	.byte		N05   
	.byte	W12
	.byte		N05   
	.byte	W12
	.byte	PEND
@ 061   ----------------------------------------
	.byte	PATT
	 .word	that_persons_name_is_12_059
@ 062   ----------------------------------------
that_persons_name_is_12_062:
	.byte		N02   , Gn2 , v080
	.byte	W06
	.byte		N02   
	.byte	W18
	.byte		N05   , En1 
	.byte	W12
	.byte		N05   
	.byte	W12
	.byte		N02   , En2 
	.byte	W06
	.byte		N02   
	.byte	W06
	.byte		N05   , Cn2 
	.byte	W12
	.byte		N05   
	.byte	W12
	.byte		N05   
	.byte	W12
	.byte	PEND
@ 063   ----------------------------------------
that_persons_name_is_12_063:
	.byte		N02   , Cn1 , v080
	.byte	W06
	.byte		N02   
	.byte	W06
	.byte		N17   , Dn2 
	.byte	W18
	.byte		        An1 
	.byte	W18
	.byte		N11   , Fs1 
	.byte	W12
	.byte		        Gn1 
	.byte	W12
	.byte		        Bn1 
	.byte	W12
	.byte		        En2 
	.byte	W12
	.byte	PEND
@ 064   ----------------------------------------
that_persons_name_is_12_064:
	.byte		N11   , Gn2 , v080
	.byte	W12
	.byte		N23   , An1 
	.byte	W36
	.byte		N05   , Gn1 
	.byte	W06
	.byte		        Fs1 
	.byte	W06
	.byte		N23   , En1 
	.byte	W24
	.byte		        Dn1 
	.byte	W12
	.byte	PEND
@ 065   ----------------------------------------
that_persons_name_is_12_065:
	.byte	W12
	.byte		N11   , Cs2 , v080
	.byte	W12
	.byte		N05   
	.byte	W12
	.byte		        Gs1 
	.byte	W12
	.byte		        Gs2 
	.byte	W12
	.byte		N11   , Gs1 
	.byte	W12
	.byte		N05   
	.byte	W12
	.byte		        Cs2 
	.byte	W12
	.byte	PEND
@ 066   ----------------------------------------
that_persons_name_is_12_066:
	.byte		N05   , En2 , v080
	.byte	W12
	.byte		N11   , Bn1 
	.byte	W12
	.byte		N05   
	.byte	W12
	.byte		N05   
	.byte	W12
	.byte		        Gs1 
	.byte	W12
	.byte		N11   , Gs2 
	.byte	W12
	.byte		N02   , Ds2 
	.byte	W06
	.byte		        Bn1 
	.byte	W06
	.byte		N11   , Gs1 
	.byte	W12
	.byte	PEND
@ 067   ----------------------------------------
that_persons_name_is_12_067:
	.byte		N11   , Bn2 , v080
	.byte	W12
	.byte		        An1 
	.byte	W12
	.byte		        Cs2 
	.byte	W12
	.byte		N02   , En1 
	.byte	W06
	.byte		N02   
	.byte	W06
	.byte		N05   , An1 
	.byte	W12
	.byte		N11   , Gs1 
	.byte	W12
	.byte		        Bn1 
	.byte	W12
	.byte		N02   , En1 
	.byte	W06
	.byte		N02   
	.byte	W06
	.byte	PEND
@ 068   ----------------------------------------
that_persons_name_is_12_068:
	.byte		N05   , Gs1 , v080
	.byte	W12
	.byte		        En1 
	.byte	W12
	.byte		        En2 
	.byte	W12
	.byte		        En1 
	.byte	W12
	.byte		        En2 
	.byte	W12
	.byte		N02   , En1 
	.byte	W06
	.byte		N02   
	.byte	W06
	.byte		N05   , En2 
	.byte	W12
	.byte		        En1 
	.byte	W12
	.byte	PEND
@ 069   ----------------------------------------
that_persons_name_is_12_069:
	.byte		N05   , En2 , v080
	.byte	W12
	.byte		N11   , An1 
	.byte	W12
	.byte		N05   
	.byte	W12
	.byte		        En1 
	.byte	W12
	.byte		        En2 
	.byte	W12
	.byte		N11   , En1 
	.byte	W12
	.byte		N05   
	.byte	W12
	.byte		        An1 
	.byte	W12
	.byte	PEND
@ 070   ----------------------------------------
that_persons_name_is_12_070:
	.byte		N05   , Cs2 , v080
	.byte	W12
	.byte		N11   , En1 
	.byte	W12
	.byte		N05   
	.byte	W12
	.byte		        Bn1 
	.byte	W12
	.byte		        En2 
	.byte	W12
	.byte		N11   , En1 
	.byte	W12
	.byte		N05   , En2 
	.byte	W12
	.byte		        Bn1 
	.byte	W12
	.byte	PEND
@ 071   ----------------------------------------
that_persons_name_is_12_071:
	.byte		N05   , Gs1 , v080
	.byte	W12
	.byte		N11   , Gn1 
	.byte	W12
	.byte		N05   
	.byte	W12
	.byte		        As1 
	.byte	W12
	.byte		N02   , Ds2 
	.byte	W06
	.byte		N02   
	.byte	W06
	.byte		N11   , Gn2 
	.byte	W12
	.byte		N05   , Gn1 
	.byte	W12
	.byte		N05   
	.byte	W12
	.byte	PEND
@ 072   ----------------------------------------
that_persons_name_is_12_072:
	.byte		N05   , Ds2 , v080
	.byte	W12
	.byte		        Gs2 
	.byte	W12
	.byte		N05   
	.byte	W12
	.byte		        En2 
	.byte	W12
	.byte		N05   
	.byte	W12
	.byte		        Ds2 
	.byte	W12
	.byte		        Cs2 
	.byte	W12
	.byte		        Bn1 
	.byte	W12
	.byte	PEND
@ 073   ----------------------------------------
that_persons_name_is_12_073:
	.byte		N05   , Gs1 , v080
	.byte	W12
	.byte		N11   , Cs2 
	.byte	W12
	.byte		N05   
	.byte	W12
	.byte		        Gs1 
	.byte	W12
	.byte		        Gs2 
	.byte	W12
	.byte		N11   , Gs1 
	.byte	W12
	.byte		N05   
	.byte	W12
	.byte		        Cs2 
	.byte	W12
	.byte	PEND
@ 074   ----------------------------------------
	.byte	PATT
	 .word	that_persons_name_is_12_066
@ 075   ----------------------------------------
	.byte	PATT
	 .word	that_persons_name_is_12_067
@ 076   ----------------------------------------
	.byte	PATT
	 .word	that_persons_name_is_12_068
@ 077   ----------------------------------------
	.byte	PATT
	 .word	that_persons_name_is_12_069
@ 078   ----------------------------------------
that_persons_name_is_12_078:
	.byte		N05   , Cs2 , v080
	.byte	W12
	.byte		N11   , Bn1 
	.byte	W12
	.byte		N05   
	.byte	W12
	.byte		        En1 
	.byte	W12
	.byte		        En2 
	.byte	W12
	.byte		N11   , Gs1 
	.byte	W12
	.byte		N05   
	.byte	W12
	.byte		        Bn1 
	.byte	W12
	.byte	PEND
@ 079   ----------------------------------------
that_persons_name_is_12_079:
	.byte		N05   , En2 , v080
	.byte	W12
	.byte		N11   , Cs2 
	.byte	W12
	.byte		N05   
	.byte	W12
	.byte		        Ds1 
	.byte	W12
	.byte		        Cs2 
	.byte	W12
	.byte		N11   
	.byte	W12
	.byte		N05   
	.byte	W12
	.byte		        Gn1 
	.byte	W12
	.byte	PEND
@ 080   ----------------------------------------
that_persons_name_is_12_080:
	.byte		N05   , Gn2 , v080
	.byte	W12
	.byte		N11   , Gs1 
	.byte	W12
	.byte		N05   
	.byte	W12
	.byte		        Ds1 
	.byte	W12
	.byte		        Bn1 
	.byte	W12
	.byte		N11   , Gs1 
	.byte	W12
	.byte		N05   
	.byte	W12
	.byte		N05   
	.byte	W12
	.byte	PEND
@ 081   ----------------------------------------
that_persons_name_is_12_081:
	.byte		N05   , Gs2 , v080
	.byte	W12
	.byte		N11   , An1 
	.byte	W72
	.byte		N23   
	.byte	W12
	.byte	PEND
@ 082   ----------------------------------------
that_persons_name_is_12_082:
	.byte	W12
	.byte		N11   , Bn1 , v080
	.byte	W48
	.byte		N23   
	.byte	W24
	.byte		N23   
	.byte	W12
	.byte	PEND
@ 083   ----------------------------------------
that_persons_name_is_12_083:
	.byte	W12
	.byte		N11   , Cs2 , v080
	.byte	W12
	.byte		N05   
	.byte	W12
	.byte		N05   
	.byte	W12
	.byte		        Cs3 
	.byte	W12
	.byte		N11   , Bn1 
	.byte	W12
	.byte		N05   
	.byte	W12
	.byte		N05   
	.byte	W12
	.byte	PEND
@ 084   ----------------------------------------
that_persons_name_is_12_084:
	.byte		N05   , Bn2 , v080
	.byte	W12
	.byte		N11   , An1 
	.byte	W12
	.byte		N05   
	.byte	W12
	.byte		N05   
	.byte	W12
	.byte		        An2 
	.byte	W12
	.byte		N11   , Gs1 
	.byte	W12
	.byte		N05   
	.byte	W12
	.byte		N05   
	.byte	W12
	.byte	PEND
@ 085   ----------------------------------------
that_persons_name_is_12_085:
	.byte		N05   , Gs2 , v080
	.byte	W12
	.byte		N11   , Fs1 
	.byte	W12
	.byte		N05   
	.byte	W12
	.byte		N05   
	.byte	W12
	.byte		N05   
	.byte	W12
	.byte		N11   
	.byte	W12
	.byte		N05   
	.byte	W12
	.byte		N05   
	.byte	W12
	.byte	PEND
@ 086   ----------------------------------------
that_persons_name_is_12_086:
	.byte		N05   , Fs1 , v080
	.byte	W12
	.byte		N11   , Gs1 
	.byte	W12
	.byte		N05   
	.byte	W12
	.byte		N05   
	.byte	W12
	.byte		N05   
	.byte	W12
	.byte		N11   
	.byte	W12
	.byte		N05   
	.byte	W12
	.byte		N05   
	.byte	W12
	.byte	PEND
@ 087   ----------------------------------------
that_persons_name_is_12_087:
	.byte		N05   , Gs1 , v080
	.byte	W12
	.byte		N11   , Cs2 
	.byte	W12
	.byte		N05   
	.byte	W12
	.byte		N05   
	.byte	W12
	.byte		        Cs3 
	.byte	W12
	.byte		N11   , Bn1 
	.byte	W12
	.byte		N05   
	.byte	W12
	.byte		N05   
	.byte	W12
	.byte	PEND
@ 088   ----------------------------------------
	.byte	PATT
	 .word	that_persons_name_is_12_084
@ 089   ----------------------------------------
	.byte	PATT
	 .word	that_persons_name_is_12_085
@ 090   ----------------------------------------
that_persons_name_is_12_090:
	.byte		N05   , Fs1 , v080
	.byte	W12
	.byte		N11   , Gs1 
	.byte	W12
	.byte		N05   
	.byte	W12
	.byte		N05   
	.byte	W12
	.byte		N05   
	.byte	W12
	.byte		N02   , Cn2 
	.byte	W06
	.byte		N02   
	.byte	W06
	.byte		        Cn3 
	.byte	W06
	.byte		N02   
	.byte	W06
	.byte		        Cn2 
	.byte	W06
	.byte		N02   
	.byte	W06
	.byte	PEND
@ 091   ----------------------------------------
that_persons_name_is_12_091:
	.byte		N02   , Cn3 , v080
	.byte	W06
	.byte		N02   
	.byte	W06
	.byte		N05   , As1 
	.byte	W06
	.byte		        As2 
	.byte	W06
	.byte		        As1 
	.byte	W06
	.byte		        As2 
	.byte	W06
	.byte		        As1 
	.byte	W06
	.byte		        As2 
	.byte	W06
	.byte		        As1 
	.byte	W06
	.byte		        As2 
	.byte	W06
	.byte		        An1 
	.byte	W06
	.byte		        An2 
	.byte	W06
	.byte		        An1 
	.byte	W06
	.byte		        An2 
	.byte	W06
	.byte		        An1 
	.byte	W06
	.byte		        An2 
	.byte	W06
	.byte	PEND
@ 092   ----------------------------------------
that_persons_name_is_12_092:
	.byte		N05   , An1 , v080
	.byte	W06
	.byte		        An2 
	.byte	W06
	.byte		        As1 
	.byte	W06
	.byte		        As2 
	.byte	W06
	.byte		        As1 
	.byte	W06
	.byte		        As2 
	.byte	W06
	.byte		        As1 
	.byte	W06
	.byte		        As2 
	.byte	W06
	.byte		        As1 
	.byte	W06
	.byte		        As2 
	.byte	W06
	.byte		        Cn2 
	.byte	W06
	.byte		        Cn3 
	.byte	W06
	.byte		        Cn2 
	.byte	W06
	.byte		        Cn3 
	.byte	W06
	.byte		        Cn2 
	.byte	W06
	.byte		        Cn3 
	.byte	W06
	.byte	PEND
@ 093   ----------------------------------------
that_persons_name_is_12_093:
	.byte		N05   , Cn2 , v080
	.byte	W06
	.byte		        Cn3 
	.byte	W06
	.byte		        Cs2 
	.byte	W06
	.byte		        Cs3 
	.byte	W06
	.byte		        Cs2 
	.byte	W06
	.byte		        Cs3 
	.byte	W06
	.byte		        Cs2 
	.byte	W06
	.byte		        Cs3 
	.byte	W06
	.byte		        Cs2 
	.byte	W06
	.byte		        Cs3 
	.byte	W06
	.byte		        Cn2 
	.byte	W06
	.byte		        Cn3 
	.byte	W06
	.byte		        Cn2 
	.byte	W06
	.byte		        Cn3 
	.byte	W06
	.byte		        Cn2 
	.byte	W06
	.byte		        Cn3 
	.byte	W06
	.byte	PEND
@ 094   ----------------------------------------
that_persons_name_is_12_094:
	.byte		N05   , Cn2 , v080
	.byte	W06
	.byte		        Cn3 
	.byte	W06
	.byte		        Cs2 
	.byte	W06
	.byte		        Cs3 
	.byte	W06
	.byte		        Cs2 
	.byte	W06
	.byte		        Cs3 
	.byte	W06
	.byte		        Cs2 
	.byte	W06
	.byte		        Cs3 
	.byte	W06
	.byte		        Cs2 
	.byte	W06
	.byte		        Cs3 
	.byte	W06
	.byte		        Dn2 
	.byte	W06
	.byte		        Dn3 
	.byte	W06
	.byte		        Dn2 
	.byte	W06
	.byte		        Dn3 
	.byte	W06
	.byte		        Dn2 
	.byte	W06
	.byte		        Dn3 
	.byte	W06
	.byte	PEND
@ 095   ----------------------------------------
that_persons_name_is_12_095:
	.byte		N05   , Dn2 , v080
	.byte	W06
	.byte		        Dn3 
	.byte	W06
	.byte		        Ds2 
	.byte	W06
	.byte		        Ds3 
	.byte	W06
	.byte		        Ds2 
	.byte	W06
	.byte		        Ds3 
	.byte	W06
	.byte		        Ds2 
	.byte	W06
	.byte		        Ds3 
	.byte	W06
	.byte		        Ds2 
	.byte	W06
	.byte		        Ds3 
	.byte	W06
	.byte		        Dn2 
	.byte	W06
	.byte		        Dn3 
	.byte	W06
	.byte		        Dn2 
	.byte	W06
	.byte		        Dn3 
	.byte	W06
	.byte		        Dn2 
	.byte	W06
	.byte		        Dn3 
	.byte	W06
	.byte	PEND
@ 096   ----------------------------------------
that_persons_name_is_12_096:
	.byte		N05   , Dn2 , v080
	.byte	W06
	.byte		        Dn3 
	.byte	W06
	.byte		        Ds2 
	.byte	W06
	.byte		        Ds3 
	.byte	W06
	.byte		        Ds2 
	.byte	W06
	.byte		        Ds3 
	.byte	W06
	.byte		        Ds2 
	.byte	W06
	.byte		        Ds3 
	.byte	W06
	.byte		        Ds2 
	.byte	W06
	.byte		        Ds3 
	.byte	W06
	.byte		        En2 
	.byte	W06
	.byte		        En3 
	.byte	W06
	.byte		        En2 
	.byte	W06
	.byte		        En3 
	.byte	W06
	.byte		        En2 
	.byte	W06
	.byte		        En3 
	.byte	W06
	.byte	PEND
@ 097   ----------------------------------------
that_persons_name_is_12_097:
	.byte		N05   , En2 , v080
	.byte	W06
	.byte		        En3 
	.byte	W06
	.byte		        Fn2 
	.byte	W06
	.byte		        As2 
	.byte	W06
	.byte		        Fn2 
	.byte	W06
	.byte		        Cn2 
	.byte	W06
	.byte		        Fn2 
	.byte	W06
	.byte		        As2 
	.byte	W06
	.byte		        Fn2 
	.byte	W06
	.byte		        Cn2 
	.byte	W06
	.byte		        Fn2 
	.byte	W06
	.byte		        As2 
	.byte	W06
	.byte		        Fn2 
	.byte	W06
	.byte		        Cn2 
	.byte	W06
	.byte		        Fn2 
	.byte	W06
	.byte		        As2 
	.byte	W06
	.byte	PEND
@ 098   ----------------------------------------
that_persons_name_is_12_098:
	.byte		N05   , Fn2 , v080
	.byte	W06
	.byte		        Cn2 
	.byte	W06
	.byte		N11   , Fn2 
	.byte	W12
	.byte		N11   
	.byte	W12
	.byte		        Ds2 
	.byte	W12
	.byte		N11   
	.byte	W12
	.byte		        Cs2 
	.byte	W12
	.byte		N11   
	.byte	W12
	.byte		        Cn2 
	.byte	W12
	.byte	PEND
@ 099   ----------------------------------------
that_persons_name_is_12_099:
	.byte		N11   , Cn2 , v080
	.byte	W12
	.byte		N05   , As1 
	.byte	W06
	.byte		        As2 
	.byte	W06
	.byte		        As1 
	.byte	W06
	.byte		        As2 
	.byte	W06
	.byte		        As1 
	.byte	W06
	.byte		        As2 
	.byte	W06
	.byte		        As1 
	.byte	W06
	.byte		        As2 
	.byte	W06
	.byte		        An1 
	.byte	W06
	.byte		        An2 
	.byte	W06
	.byte		        An1 
	.byte	W06
	.byte		        An2 
	.byte	W06
	.byte		        An1 
	.byte	W06
	.byte		        An2 
	.byte	W06
	.byte	PEND
@ 100   ----------------------------------------
	.byte	PATT
	 .word	that_persons_name_is_12_092
@ 101   ----------------------------------------
	.byte	PATT
	 .word	that_persons_name_is_12_093
@ 102   ----------------------------------------
	.byte	PATT
	 .word	that_persons_name_is_12_094
@ 103   ----------------------------------------
	.byte	PATT
	 .word	that_persons_name_is_12_095
@ 104   ----------------------------------------
	.byte	PATT
	 .word	that_persons_name_is_12_096
@ 105   ----------------------------------------
that_persons_name_is_12_105:
	.byte		N05   , En2 , v080
	.byte	W06
	.byte		        En3 
	.byte	W06
	.byte		        Fn2 
	.byte	W06
	.byte		        Gs2 
	.byte	W06
	.byte		        Fn2 
	.byte	W06
	.byte		        Cn2 
	.byte	W06
	.byte		        Fn2 
	.byte	W06
	.byte		        Gs2 
	.byte	W06
	.byte		        Fn2 
	.byte	W06
	.byte		        Cn2 
	.byte	W06
	.byte		        Fn2 
	.byte	W06
	.byte		        Gs2 
	.byte	W06
	.byte		        Fn2 
	.byte	W06
	.byte		        Cn2 
	.byte	W06
	.byte		        Fn2 
	.byte	W06
	.byte		        Gs2 
	.byte	W06
	.byte	PEND
@ 106   ----------------------------------------
that_persons_name_is_12_106:
	.byte		N05   , Fn2 , v080
	.byte	W06
	.byte		        Cn2 
	.byte	W06
	.byte		        Fn2 
	.byte	W06
	.byte		        An2 
	.byte	W06
	.byte		        Fn2 
	.byte	W06
	.byte		        Cn2 
	.byte	W06
	.byte		        Fn2 
	.byte	W06
	.byte		        An2 
	.byte	W06
	.byte		        Fn2 
	.byte	W06
	.byte		        Cn2 
	.byte	W06
	.byte		        Fn2 
	.byte	W06
	.byte		        An2 
	.byte	W06
	.byte		        Fn2 
	.byte	W06
	.byte		        Cn2 
	.byte	W06
	.byte		        Fn2 
	.byte	W06
	.byte		        An2 
	.byte	W06
	.byte	PEND
@ 107   ----------------------------------------
that_persons_name_is_12_107:
	.byte		N05   , Fn2 , v080
	.byte	W06
	.byte		        Cn2 
	.byte	W06
	.byte		        Fn2 
	.byte	W06
	.byte		        Gs2 
	.byte	W06
	.byte		        Fn2 
	.byte	W06
	.byte		        Cn2 
	.byte	W06
	.byte		        Fn2 
	.byte	W06
	.byte		        Gs2 
	.byte	W06
	.byte		        Fn2 
	.byte	W06
	.byte		        Cn2 
	.byte	W06
	.byte		        Fn2 
	.byte	W06
	.byte		        Gs2 
	.byte	W06
	.byte		        Fn2 
	.byte	W06
	.byte		        Cn2 
	.byte	W06
	.byte		        Fn2 
	.byte	W06
	.byte		        Gs2 
	.byte	W06
	.byte	PEND
@ 108   ----------------------------------------
that_persons_name_is_12_108:
	.byte		N05   , Fn2 , v080
	.byte	W06
	.byte		        Cn2 
	.byte	W06
	.byte		        Fn2 
	.byte	W06
	.byte		        An2 
	.byte	W06
	.byte		        Fn2 
	.byte	W06
	.byte		        Cn2 
	.byte	W06
	.byte		        Fn2 
	.byte	W06
	.byte		        An2 
	.byte	W06
	.byte		        Fn2 
	.byte	W06
	.byte		        Cn2 
	.byte	W06
	.byte		N17   , Fn2 
	.byte	W36
	.byte	PEND
@ 109   ----------------------------------------
that_persons_name_is_12_109:
	.byte	W12
	.byte		N05   , En1 , v080
	.byte	W12
	.byte		        Bn1 
	.byte	W12
	.byte		        En2 
	.byte	W06
	.byte		        Dn2 
	.byte	W12
	.byte		        En1 
	.byte	W06
	.byte		N05   
	.byte	W12
	.byte		        Bn1 
	.byte	W12
	.byte		        En2 
	.byte	W12
	.byte	PEND
@ 110   ----------------------------------------
	.byte	PATT
	 .word	that_persons_name_is_12_016
@ 111   ----------------------------------------
	.byte	PATT
	 .word	that_persons_name_is_12_009
@ 112   ----------------------------------------
	.byte	PATT
	 .word	that_persons_name_is_12_010
@ 113   ----------------------------------------
	.byte	PATT
	 .word	that_persons_name_is_12_011
@ 114   ----------------------------------------
	.byte	PATT
	 .word	that_persons_name_is_12_012
@ 115   ----------------------------------------
	.byte	PATT
	 .word	that_persons_name_is_12_013
@ 116   ----------------------------------------
	.byte	PATT
	 .word	that_persons_name_is_12_014
@ 117   ----------------------------------------
	.byte	PATT
	 .word	that_persons_name_is_12_015
@ 118   ----------------------------------------
	.byte	PATT
	 .word	that_persons_name_is_12_016
@ 119   ----------------------------------------
	.byte	PATT
	 .word	that_persons_name_is_12_009
@ 120   ----------------------------------------
	.byte	PATT
	 .word	that_persons_name_is_12_010
@ 121   ----------------------------------------
	.byte	PATT
	 .word	that_persons_name_is_12_011
@ 122   ----------------------------------------
	.byte	PATT
	 .word	that_persons_name_is_12_012
@ 123   ----------------------------------------
	.byte	PATT
	 .word	that_persons_name_is_12_013
@ 124   ----------------------------------------
	.byte	PATT
	 .word	that_persons_name_is_12_022
@ 125   ----------------------------------------
	.byte	PATT
	 .word	that_persons_name_is_12_023
@ 126   ----------------------------------------
	.byte	PATT
	 .word	that_persons_name_is_12_024
@ 127   ----------------------------------------
	.byte	PATT
	 .word	that_persons_name_is_12_025
@ 128   ----------------------------------------
	.byte	PATT
	 .word	that_persons_name_is_12_026
@ 129   ----------------------------------------
	.byte	PATT
	 .word	that_persons_name_is_12_027
@ 130   ----------------------------------------
	.byte	PATT
	 .word	that_persons_name_is_12_028
@ 131   ----------------------------------------
	.byte	PATT
	 .word	that_persons_name_is_12_027
@ 132   ----------------------------------------
	.byte	PATT
	 .word	that_persons_name_is_12_028
@ 133   ----------------------------------------
	.byte	PATT
	 .word	that_persons_name_is_12_031
@ 134   ----------------------------------------
	.byte	PATT
	 .word	that_persons_name_is_12_032
@ 135   ----------------------------------------
	.byte	PATT
	 .word	that_persons_name_is_12_033
@ 136   ----------------------------------------
	.byte	PATT
	 .word	that_persons_name_is_12_009
@ 137   ----------------------------------------
	.byte	PATT
	 .word	that_persons_name_is_12_010
@ 138   ----------------------------------------
	.byte	PATT
	 .word	that_persons_name_is_12_011
@ 139   ----------------------------------------
	.byte	PATT
	 .word	that_persons_name_is_12_012
@ 140   ----------------------------------------
	.byte	PATT
	 .word	that_persons_name_is_12_013
@ 141   ----------------------------------------
	.byte	PATT
	 .word	that_persons_name_is_12_014
@ 142   ----------------------------------------
	.byte	PATT
	 .word	that_persons_name_is_12_015
@ 143   ----------------------------------------
	.byte	PATT
	 .word	that_persons_name_is_12_016
@ 144   ----------------------------------------
	.byte	PATT
	 .word	that_persons_name_is_12_009
@ 145   ----------------------------------------
	.byte	PATT
	 .word	that_persons_name_is_12_010
@ 146   ----------------------------------------
	.byte	PATT
	 .word	that_persons_name_is_12_011
@ 147   ----------------------------------------
	.byte	PATT
	 .word	that_persons_name_is_12_012
@ 148   ----------------------------------------
	.byte	PATT
	 .word	that_persons_name_is_12_013
@ 149   ----------------------------------------
	.byte	PATT
	 .word	that_persons_name_is_12_022
@ 150   ----------------------------------------
	.byte	PATT
	 .word	that_persons_name_is_12_023
@ 151   ----------------------------------------
	.byte	PATT
	 .word	that_persons_name_is_12_049
@ 152   ----------------------------------------
	.byte	PATT
	 .word	that_persons_name_is_12_025
@ 153   ----------------------------------------
	.byte	PATT
	 .word	that_persons_name_is_12_026
@ 154   ----------------------------------------
	.byte	PATT
	 .word	that_persons_name_is_12_027
@ 155   ----------------------------------------
	.byte	PATT
	 .word	that_persons_name_is_12_028
@ 156   ----------------------------------------
	.byte	PATT
	 .word	that_persons_name_is_12_054
@ 157   ----------------------------------------
	.byte	PATT
	 .word	that_persons_name_is_12_026
@ 158   ----------------------------------------
	.byte	PATT
	 .word	that_persons_name_is_12_031
@ 159   ----------------------------------------
	.byte	PATT
	 .word	that_persons_name_is_12_057
@ 160   ----------------------------------------
	.byte	PATT
	 .word	that_persons_name_is_12_058
@ 161   ----------------------------------------
	.byte	PATT
	 .word	that_persons_name_is_12_059
@ 162   ----------------------------------------
	.byte	PATT
	 .word	that_persons_name_is_12_060
@ 163   ----------------------------------------
	.byte	PATT
	 .word	that_persons_name_is_12_059
@ 164   ----------------------------------------
	.byte	PATT
	 .word	that_persons_name_is_12_062
@ 165   ----------------------------------------
	.byte	PATT
	 .word	that_persons_name_is_12_063
@ 166   ----------------------------------------
	.byte	PATT
	 .word	that_persons_name_is_12_064
@ 167   ----------------------------------------
	.byte	PATT
	 .word	that_persons_name_is_12_065
@ 168   ----------------------------------------
	.byte	PATT
	 .word	that_persons_name_is_12_066
@ 169   ----------------------------------------
	.byte	PATT
	 .word	that_persons_name_is_12_067
@ 170   ----------------------------------------
	.byte	PATT
	 .word	that_persons_name_is_12_068
@ 171   ----------------------------------------
	.byte	PATT
	 .word	that_persons_name_is_12_069
@ 172   ----------------------------------------
	.byte	PATT
	 .word	that_persons_name_is_12_070
@ 173   ----------------------------------------
	.byte	PATT
	 .word	that_persons_name_is_12_071
@ 174   ----------------------------------------
	.byte	PATT
	 .word	that_persons_name_is_12_072
@ 175   ----------------------------------------
	.byte	PATT
	 .word	that_persons_name_is_12_073
@ 176   ----------------------------------------
	.byte	PATT
	 .word	that_persons_name_is_12_066
@ 177   ----------------------------------------
	.byte	PATT
	 .word	that_persons_name_is_12_067
@ 178   ----------------------------------------
	.byte	PATT
	 .word	that_persons_name_is_12_068
@ 179   ----------------------------------------
	.byte	PATT
	 .word	that_persons_name_is_12_069
@ 180   ----------------------------------------
	.byte	PATT
	 .word	that_persons_name_is_12_078
@ 181   ----------------------------------------
	.byte	PATT
	 .word	that_persons_name_is_12_079
@ 182   ----------------------------------------
	.byte	PATT
	 .word	that_persons_name_is_12_080
@ 183   ----------------------------------------
	.byte	PATT
	 .word	that_persons_name_is_12_081
@ 184   ----------------------------------------
	.byte	PATT
	 .word	that_persons_name_is_12_082
@ 185   ----------------------------------------
	.byte	PATT
	 .word	that_persons_name_is_12_083
@ 186   ----------------------------------------
	.byte	PATT
	 .word	that_persons_name_is_12_084
@ 187   ----------------------------------------
	.byte	PATT
	 .word	that_persons_name_is_12_085
@ 188   ----------------------------------------
	.byte	PATT
	 .word	that_persons_name_is_12_086
@ 189   ----------------------------------------
	.byte	PATT
	 .word	that_persons_name_is_12_087
@ 190   ----------------------------------------
	.byte	PATT
	 .word	that_persons_name_is_12_084
@ 191   ----------------------------------------
	.byte	PATT
	 .word	that_persons_name_is_12_085
@ 192   ----------------------------------------
	.byte	PATT
	 .word	that_persons_name_is_12_090
@ 193   ----------------------------------------
	.byte	PATT
	 .word	that_persons_name_is_12_091
@ 194   ----------------------------------------
	.byte	PATT
	 .word	that_persons_name_is_12_092
@ 195   ----------------------------------------
	.byte	PATT
	 .word	that_persons_name_is_12_093
@ 196   ----------------------------------------
	.byte	PATT
	 .word	that_persons_name_is_12_094
@ 197   ----------------------------------------
	.byte	PATT
	 .word	that_persons_name_is_12_095
@ 198   ----------------------------------------
	.byte	PATT
	 .word	that_persons_name_is_12_096
@ 199   ----------------------------------------
	.byte	PATT
	 .word	that_persons_name_is_12_097
@ 200   ----------------------------------------
	.byte	PATT
	 .word	that_persons_name_is_12_098
@ 201   ----------------------------------------
	.byte	PATT
	 .word	that_persons_name_is_12_099
@ 202   ----------------------------------------
	.byte	PATT
	 .word	that_persons_name_is_12_092
@ 203   ----------------------------------------
	.byte	PATT
	 .word	that_persons_name_is_12_093
@ 204   ----------------------------------------
	.byte	PATT
	 .word	that_persons_name_is_12_094
@ 205   ----------------------------------------
	.byte	PATT
	 .word	that_persons_name_is_12_095
@ 206   ----------------------------------------
	.byte	PATT
	 .word	that_persons_name_is_12_096
@ 207   ----------------------------------------
	.byte	PATT
	 .word	that_persons_name_is_12_105
@ 208   ----------------------------------------
	.byte	PATT
	 .word	that_persons_name_is_12_106
@ 209   ----------------------------------------
	.byte	PATT
	 .word	that_persons_name_is_12_107
@ 210   ----------------------------------------
	.byte	PATT
	 .word	that_persons_name_is_12_108
@ 211   ----------------------------------------
	.byte	PATT
	 .word	that_persons_name_is_12_109
@ 212   ----------------------------------------
	.byte		N05   , Bn2 , v080
	.byte	W36
	.byte	GOTO
	 .word	that_persons_name_is_12_B1
that_persons_name_is_12_B2:
	.byte	FINE

@******************************************************@
	.align	2

that_persons_name_is:
	.byte	12	@ NumTrks
	.byte	0	@ NumBlks
	.byte	that_persons_name_is_pri	@ Priority
	.byte	that_persons_name_is_rev	@ Reverb.

	.word	that_persons_name_is_grp

	.word	that_persons_name_is_1
	.word	that_persons_name_is_2
	.word	that_persons_name_is_3
	.word	that_persons_name_is_4
	.word	that_persons_name_is_5
	.word	that_persons_name_is_6
	.word	that_persons_name_is_7
	.word	that_persons_name_is_8
	.word	that_persons_name_is_9
	.word	that_persons_name_is_10
	.word	that_persons_name_is_11
	.word	that_persons_name_is_12

	.end
