	.include "MPlayDef.s"

	.equ	Blazing_Fast_Battle_Divine_Protection_Required_grp, voicegroup000
	.equ	Blazing_Fast_Battle_Divine_Protection_Required_pri, 0
	.equ	Blazing_Fast_Battle_Divine_Protection_Required_rev, 0
	.equ	Blazing_Fast_Battle_Divine_Protection_Required_mvl, 62
	.equ	Blazing_Fast_Battle_Divine_Protection_Required_key, 0
	.equ	Blazing_Fast_Battle_Divine_Protection_Required_tbs, 1
	.equ	Blazing_Fast_Battle_Divine_Protection_Required_exg, 0
	.equ	Blazing_Fast_Battle_Divine_Protection_Required_cmp, 1

	.section .rodata
	.global	Blazing_Fast_Battle_Divine_Protection_Required
	.align	2

@**************** Track 1 (Midi-Chn.1) ****************@

Blazing_Fast_Battle_Divine_Protection_Required_1:
	.byte	KEYSH , Blazing_Fast_Battle_Divine_Protection_Required_key+0
Blazing_Fast_Battle_Divine_Protection_Required_1_B1:
@ 000   ----------------------------------------
	.byte	TEMPO , 226*Blazing_Fast_Battle_Divine_Protection_Required_tbs/2
	.byte		VOICE , 31
	.byte		VOL   , 103*Blazing_Fast_Battle_Divine_Protection_Required_mvl/mxv
	.byte		PAN   , c_v+0
	.byte		N07   , An4 , v116
	.byte	W08
	.byte		        Gn4 , v096
	.byte	W08
	.byte		        Fn4 
	.byte	W08
	.byte		        Gn4 
	.byte	W08
	.byte		        Fn4 
	.byte	W08
	.byte		        En4 
	.byte	W08
	.byte		        Fn4 
	.byte	W08
	.byte		        En4 
	.byte	W08
	.byte		        Dn4 
	.byte	W08
	.byte		N15   , As3 
	.byte	W16
	.byte		N15   
	.byte	W16
	.byte		N15   
	.byte	W16
@ 001   ----------------------------------------
	.byte		N07   , An3 , v116
	.byte	W08
	.byte		        Gn3 , v096
	.byte	W08
	.byte		        Fn3 
	.byte	W08
	.byte		        Gn3 
	.byte	W08
	.byte		        Fn3 
	.byte	W08
	.byte		        En3 
	.byte	W08
	.byte		        Fn3 
	.byte	W08
	.byte		        En3 
	.byte	W08
	.byte		        Dn3 
	.byte	W08
	.byte		N15   , As2 
	.byte	W16
	.byte		N15   
	.byte	W16
	.byte		N15   
	.byte	W16
@ 002   ----------------------------------------
	.byte		N07   , An2 , v116
	.byte	W08
	.byte		        Gn2 , v096
	.byte	W08
	.byte		        Fn2 
	.byte	W08
	.byte		        Gn2 
	.byte	W08
	.byte		        Fn2 
	.byte	W08
	.byte		        En2 
	.byte	W08
	.byte		        Fn2 
	.byte	W08
	.byte		        En2 
	.byte	W08
	.byte		        Dn2 
	.byte	W08
	.byte		N15   , As1 
	.byte	W16
	.byte		N15   
	.byte	W16
	.byte		N15   
	.byte	W16
@ 003   ----------------------------------------
	.byte		        An1 
	.byte	W16
	.byte		N15   
	.byte	W16
	.byte		N15   
	.byte	W16
@ 004   ----------------------------------------
	.byte		        As1 
	.byte	W16
	.byte	TEMPO , 237*Blazing_Fast_Battle_Divine_Protection_Required_tbs/2
	.byte		N15   
	.byte	W16
	.byte		N15   
	.byte	W16
@ 005   ----------------------------------------
	.byte	TEMPO , 244*Blazing_Fast_Battle_Divine_Protection_Required_tbs/2
	.byte		        Ds2 
	.byte	W16
	.byte		N15   
	.byte	W16
	.byte		N15   
	.byte	W16
@ 006   ----------------------------------------
	.byte	TEMPO , 252*Blazing_Fast_Battle_Divine_Protection_Required_tbs/2
	.byte		        En2 
	.byte	W16
	.byte		N15   
	.byte	W16
	.byte	TEMPO , 260*Blazing_Fast_Battle_Divine_Protection_Required_tbs/2
	.byte		N15   
	.byte	W16
@ 007   ----------------------------------------
	.byte	TEMPO , 240*Blazing_Fast_Battle_Divine_Protection_Required_tbs/2
	.byte		        An2 
	.byte	W16
	.byte	TEMPO , 220*Blazing_Fast_Battle_Divine_Protection_Required_tbs/2
	.byte		N15   
	.byte	W16
	.byte	TEMPO , 190*Blazing_Fast_Battle_Divine_Protection_Required_tbs/2
	.byte		N15   
	.byte	W16
@ 008   ----------------------------------------
	.byte	TEMPO , 178*Blazing_Fast_Battle_Divine_Protection_Required_tbs/2
	.byte		        As2 
	.byte	W16
	.byte	TEMPO , 160*Blazing_Fast_Battle_Divine_Protection_Required_tbs/2
	.byte		N15   
	.byte	W16
	.byte	TEMPO , 143*Blazing_Fast_Battle_Divine_Protection_Required_tbs/2
	.byte		N15   
	.byte	W16
@ 009   ----------------------------------------
	.byte	TEMPO , 135*Blazing_Fast_Battle_Divine_Protection_Required_tbs/2
	.byte		        Ds3 
	.byte	W16
	.byte	TEMPO , 120*Blazing_Fast_Battle_Divine_Protection_Required_tbs/2
	.byte		N15   
	.byte	W16
	.byte	TEMPO , 109*Blazing_Fast_Battle_Divine_Protection_Required_tbs/2
	.byte		N15   
	.byte	W16
@ 010   ----------------------------------------
	.byte	TEMPO , 95*Blazing_Fast_Battle_Divine_Protection_Required_tbs/2
	.byte	W44
	.byte	W03
	.byte	TEMPO , 109*Blazing_Fast_Battle_Divine_Protection_Required_tbs/2
	.byte	W01
@ 011   ----------------------------------------
Blazing_Fast_Battle_Divine_Protection_Required_1_011:
	.byte	TEMPO , 311*Blazing_Fast_Battle_Divine_Protection_Required_tbs/2
	.byte	W96
	.byte	W24
	.byte	PEND
@ 012   ----------------------------------------
	.byte	W96
	.byte	W24
@ 013   ----------------------------------------
	.byte	W96
	.byte	W48
@ 014   ----------------------------------------
	.byte	W96
	.byte	W48
@ 015   ----------------------------------------
	.byte	W72
@ 016   ----------------------------------------
	.byte	W72
@ 017   ----------------------------------------
	.byte	W72
@ 018   ----------------------------------------
Blazing_Fast_Battle_Divine_Protection_Required_1_018:
	.byte		N11   , An2 , v080
	.byte	W12
	.byte		        Fn2 
	.byte	W12
	.byte		        Dn2 
	.byte	W12
	.byte		        An2 
	.byte	W12
	.byte		        Fn2 
	.byte	W12
	.byte		        Dn2 
	.byte	W12
	.byte		        As2 
	.byte	W24
	.byte		N11   
	.byte	W24
	.byte	PEND
@ 019   ----------------------------------------
	.byte	PATT
	 .word	Blazing_Fast_Battle_Divine_Protection_Required_1_018
@ 020   ----------------------------------------
Blazing_Fast_Battle_Divine_Protection_Required_1_020:
	.byte		N11   , An2 , v080
	.byte	W24
	.byte		        Dn2 
	.byte	W12
	.byte		        An2 
	.byte	W24
	.byte		        Dn2 
	.byte	W12
	.byte		        Ds2 
	.byte		N11   , As2 
	.byte	W24
	.byte		        Gn2 
	.byte	W24
	.byte		        Ds2 
	.byte	W24
	.byte	PEND
@ 021   ----------------------------------------
	.byte	PATT
	 .word	Blazing_Fast_Battle_Divine_Protection_Required_1_020
@ 022   ----------------------------------------
	.byte		N11   , An2 , v080
	.byte	W24
	.byte		        Fn2 
	.byte	W24
	.byte		        Dn2 
	.byte	W24
@ 023   ----------------------------------------
	.byte		        Gn2 
	.byte	W24
	.byte		        En2 
	.byte	W24
	.byte		        An1 
	.byte	W24
@ 024   ----------------------------------------
	.byte		        Gs2 
	.byte	W24
	.byte		        Fn2 
	.byte	W24
	.byte		BEND  , c_v+0
	.byte		N23   , Dn2 
	.byte	W12
	.byte		BEND  , c_v+2
	.byte	W01
	.byte		        c_v+4
	.byte	W01
	.byte		        c_v+6
	.byte	W01
	.byte		        c_v+8
	.byte	W01
	.byte		        c_v+12
	.byte	W01
	.byte		        c_v+14
	.byte	W01
	.byte		        c_v+17
	.byte	W01
	.byte		        c_v+19
	.byte	W01
	.byte		        c_v+23
	.byte	W01
	.byte		        c_v+25
	.byte	W01
	.byte		        c_v+27
	.byte	W01
	.byte		        c_v+29
	.byte	W01
@ 025   ----------------------------------------
	.byte		        c_v+0
	.byte		N11   , Fn3 , v096
	.byte	W12
	.byte		        Cs3 
	.byte	W12
	.byte		        As2 
	.byte	W12
	.byte		        Fn3 
	.byte	W12
	.byte		        Cs3 
	.byte	W12
	.byte		        As2 
	.byte	W12
	.byte		        Fs3 
	.byte	W24
	.byte		N11   
	.byte	W24
@ 026   ----------------------------------------
	.byte		        Fn3 
	.byte	W12
	.byte		        Cs3 
	.byte	W12
	.byte		        As2 
	.byte	W12
	.byte		        Fn3 
	.byte	W12
	.byte		        Cs3 
	.byte	W12
	.byte		        As2 
	.byte	W12
	.byte		        Fs3 
	.byte	W24
	.byte		N11   
	.byte	W24
@ 027   ----------------------------------------
Blazing_Fast_Battle_Divine_Protection_Required_1_027:
	.byte		N11   , Fn3 , v096
	.byte	W24
	.byte		        As2 
	.byte	W12
	.byte		        Fn3 
	.byte	W24
	.byte		        As2 
	.byte	W12
	.byte		        Bn2 
	.byte		N11   , Fs3 
	.byte	W24
	.byte		        Ds3 
	.byte	W24
	.byte		        Bn2 
	.byte	W24
	.byte	PEND
@ 028   ----------------------------------------
	.byte	PATT
	 .word	Blazing_Fast_Battle_Divine_Protection_Required_1_027
@ 029   ----------------------------------------
	.byte		N11   , Fn3 , v096
	.byte	W24
	.byte		        Cs3 
	.byte	W24
	.byte		        As2 
	.byte	W24
@ 030   ----------------------------------------
	.byte		        Ds3 
	.byte	W24
	.byte		        Cn3 
	.byte	W24
	.byte		        Fn2 
	.byte	W24
@ 031   ----------------------------------------
	.byte		        En3 
	.byte	W24
	.byte		        Cs3 
	.byte	W24
	.byte		        As2 
	.byte	W24
@ 032   ----------------------------------------
Blazing_Fast_Battle_Divine_Protection_Required_1_032:
	.byte		N11   , Cn3 , v096
	.byte		N11   , En3 
	.byte	W12
	.byte		        An2 
	.byte		N11   , Cn3 
	.byte	W12
	.byte		        En2 
	.byte		N11   , An2 
	.byte	W12
	.byte		        Cn3 
	.byte		N11   , En3 
	.byte	W12
	.byte		        An2 
	.byte		N11   , Cn3 
	.byte	W12
	.byte		        En2 
	.byte		N11   , An2 
	.byte	W12
	.byte		        As2 
	.byte		N11   , Fn3 
	.byte	W24
	.byte		        As2 
	.byte		N11   , Fn3 
	.byte	W24
	.byte	PEND
@ 033   ----------------------------------------
	.byte	PATT
	 .word	Blazing_Fast_Battle_Divine_Protection_Required_1_032
@ 034   ----------------------------------------
Blazing_Fast_Battle_Divine_Protection_Required_1_034:
	.byte		N11   , Cn3 , v096
	.byte		N11   , En3 
	.byte	W24
	.byte		        En2 
	.byte		N11   , An2 
	.byte	W12
	.byte		        Cn3 
	.byte		N11   , En3 
	.byte	W24
	.byte		        En2 
	.byte		N11   , An2 
	.byte	W12
	.byte		        Dn3 
	.byte		N11   , Fn3 
	.byte	W24
	.byte		        As2 
	.byte		N11   , Dn3 
	.byte	W24
	.byte		        Fn2 
	.byte		N11   , As2 
	.byte	W24
	.byte	PEND
@ 035   ----------------------------------------
	.byte	PATT
	 .word	Blazing_Fast_Battle_Divine_Protection_Required_1_034
@ 036   ----------------------------------------
Blazing_Fast_Battle_Divine_Protection_Required_1_036:
	.byte		N11   , Cn3 , v096
	.byte		N11   , En3 
	.byte	W24
	.byte		        An2 
	.byte		N11   , Cn3 
	.byte	W24
	.byte		        En2 
	.byte		N11   , An2 
	.byte	W24
	.byte	PEND
@ 037   ----------------------------------------
Blazing_Fast_Battle_Divine_Protection_Required_1_037:
	.byte		N11   , Bn2 , v096
	.byte		N11   , Dn3 
	.byte	W24
	.byte		        Gs2 
	.byte		N11   , Bn2 
	.byte	W24
	.byte		        Bn1 
	.byte		N11   , En2 
	.byte	W24
	.byte	PEND
@ 038   ----------------------------------------
Blazing_Fast_Battle_Divine_Protection_Required_1_038:
	.byte		N11   , Cn3 , v096
	.byte		N11   , Ds3 
	.byte	W24
	.byte		        Gs2 
	.byte		N11   , Cn3 
	.byte	W24
	.byte		        Ds2 
	.byte		N11   , An2 
	.byte	W24
	.byte	PEND
@ 039   ----------------------------------------
Blazing_Fast_Battle_Divine_Protection_Required_1_039:
	.byte		N11   , Fn3 , v096
	.byte		N11   , An3 
	.byte	W12
	.byte		        Dn3 
	.byte		N11   , Fn3 
	.byte	W12
	.byte		        An2 
	.byte		N11   , Dn3 
	.byte	W12
	.byte		        Fn3 
	.byte		N11   , An3 
	.byte	W12
	.byte		        Dn3 
	.byte		N11   , Fn3 
	.byte	W12
	.byte		        An2 
	.byte		N11   , Dn3 
	.byte	W12
	.byte		        Ds3 
	.byte		N11   , As3 
	.byte	W24
	.byte		        Ds3 
	.byte		N11   , As3 
	.byte	W24
	.byte	PEND
@ 040   ----------------------------------------
	.byte	PATT
	 .word	Blazing_Fast_Battle_Divine_Protection_Required_1_039
@ 041   ----------------------------------------
Blazing_Fast_Battle_Divine_Protection_Required_1_041:
	.byte		N11   , Fn3 , v096
	.byte		N11   , An3 
	.byte	W24
	.byte		        An2 
	.byte		N11   , Dn3 
	.byte	W12
	.byte		        Fn3 
	.byte		N11   , An3 
	.byte	W24
	.byte		        An2 
	.byte		N11   , Dn3 
	.byte	W12
	.byte		        Gn3 
	.byte		N11   , As3 
	.byte	W24
	.byte		        Ds3 
	.byte		N11   , Gn3 
	.byte	W24
	.byte		        As2 
	.byte		N11   , Ds3 
	.byte	W24
	.byte	PEND
@ 042   ----------------------------------------
	.byte	PATT
	 .word	Blazing_Fast_Battle_Divine_Protection_Required_1_041
@ 043   ----------------------------------------
Blazing_Fast_Battle_Divine_Protection_Required_1_043:
	.byte		N11   , Fn3 , v096
	.byte		N11   , An3 
	.byte	W24
	.byte		        Dn3 
	.byte		N11   , Fn3 
	.byte	W24
	.byte		        An2 
	.byte		N11   , Dn3 
	.byte	W24
	.byte	PEND
@ 044   ----------------------------------------
Blazing_Fast_Battle_Divine_Protection_Required_1_044:
	.byte		N11   , En3 , v096
	.byte		N11   , Gn3 
	.byte	W24
	.byte		        Cs3 
	.byte		N11   , En3 
	.byte	W24
	.byte		        En2 
	.byte		N11   , An2 
	.byte	W24
	.byte	PEND
@ 045   ----------------------------------------
Blazing_Fast_Battle_Divine_Protection_Required_1_045:
	.byte		N11   , Fn3 , v096
	.byte		N11   , Gs3 
	.byte	W24
	.byte		        Cs3 , v104
	.byte		N11   , Fn3 
	.byte	W24
	.byte		        Gs2 , v108
	.byte		N11   , Dn3 
	.byte	W24
	.byte	PEND
@ 046   ----------------------------------------
Blazing_Fast_Battle_Divine_Protection_Required_1_046:
	.byte		N11   , Cs3 , v112
	.byte		N11   , Fn3 
	.byte	W12
	.byte		        As2 
	.byte		N11   , Cs3 
	.byte	W12
	.byte		        Fn2 
	.byte		N11   , As2 
	.byte	W12
	.byte		        Cs3 
	.byte		N11   , Fn3 
	.byte	W12
	.byte		        As2 
	.byte		N11   , Cs3 
	.byte	W12
	.byte		        Fn2 
	.byte		N11   , As2 
	.byte	W12
	.byte		        Bn2 
	.byte		N11   , Fs3 
	.byte	W24
	.byte		        Bn2 
	.byte		N11   , Fs3 
	.byte	W24
	.byte	PEND
@ 047   ----------------------------------------
	.byte	PATT
	 .word	Blazing_Fast_Battle_Divine_Protection_Required_1_046
@ 048   ----------------------------------------
Blazing_Fast_Battle_Divine_Protection_Required_1_048:
	.byte		N11   , Cs3 , v112
	.byte		N11   , Fn3 
	.byte	W24
	.byte		        Fn2 
	.byte		N11   , As2 
	.byte	W12
	.byte		        Cs3 
	.byte		N11   , Fn3 
	.byte	W24
	.byte		        Fn2 
	.byte		N11   , As2 
	.byte	W12
	.byte		        Ds3 
	.byte		N11   , Fs3 
	.byte	W24
	.byte		        Bn2 
	.byte		N11   , Ds3 
	.byte	W24
	.byte		        Fs2 
	.byte		N11   , Bn2 
	.byte	W24
	.byte	PEND
@ 049   ----------------------------------------
	.byte	PATT
	 .word	Blazing_Fast_Battle_Divine_Protection_Required_1_048
@ 050   ----------------------------------------
Blazing_Fast_Battle_Divine_Protection_Required_1_050:
	.byte		N11   , Cs3 , v112
	.byte		N11   , Fn3 
	.byte	W24
	.byte		        As2 
	.byte		N11   , Cs3 
	.byte	W24
	.byte		        Fn2 
	.byte		N11   , As2 
	.byte	W24
	.byte	PEND
@ 051   ----------------------------------------
Blazing_Fast_Battle_Divine_Protection_Required_1_051:
	.byte		N11   , Cn3 , v112
	.byte		N11   , Ds3 
	.byte	W24
	.byte		        An2 
	.byte		N11   , Cn3 
	.byte	W24
	.byte		        Cn2 
	.byte		N11   , Fn2 
	.byte	W24
	.byte	PEND
@ 052   ----------------------------------------
	.byte		        Cs3 
	.byte		N11   , En3 
	.byte	W24
	.byte	TEMPO , 288*Blazing_Fast_Battle_Divine_Protection_Required_tbs/2
	.byte		        An2 , v120
	.byte		N11   , Cs3 
	.byte	W24
	.byte	TEMPO , 237*Blazing_Fast_Battle_Divine_Protection_Required_tbs/2
	.byte		        En2 , v127
	.byte		N11   , As2 
	.byte	W24
@ 053   ----------------------------------------
	.byte	TEMPO , 206*Blazing_Fast_Battle_Divine_Protection_Required_tbs/2
	.byte	W68
	.byte	W03
	.byte	TEMPO , 237*Blazing_Fast_Battle_Divine_Protection_Required_tbs/2
	.byte	W01
@ 054   ----------------------------------------
	.byte	PATT
	 .word	Blazing_Fast_Battle_Divine_Protection_Required_1_011
@ 055   ----------------------------------------
	.byte	TEMPO , 311*Blazing_Fast_Battle_Divine_Protection_Required_tbs/2
	.byte		N11   , As2 , v112
	.byte	W12
	.byte		N11   
	.byte	W24
	.byte		N11   
	.byte	W12
	.byte		N17   
	.byte	W24
	.byte		N11   
	.byte	W12
	.byte		N11   
	.byte	W12
@ 056   ----------------------------------------
Blazing_Fast_Battle_Divine_Protection_Required_1_056:
	.byte	W12
	.byte		N11   , As2 , v112
	.byte	W12
	.byte		N17   
	.byte	W24
	.byte		N11   , Bn2 
	.byte	W12
	.byte		N11   
	.byte	W24
	.byte		N11   
	.byte	W12
	.byte	PEND
@ 057   ----------------------------------------
	.byte		        As2 
	.byte	W12
	.byte		N11   
	.byte	W24
	.byte		N11   
	.byte	W12
	.byte		N17   
	.byte	W24
	.byte		N11   
	.byte	W12
	.byte		N11   
	.byte	W12
@ 058   ----------------------------------------
	.byte	PATT
	 .word	Blazing_Fast_Battle_Divine_Protection_Required_1_056
@ 059   ----------------------------------------
Blazing_Fast_Battle_Divine_Protection_Required_1_059:
	.byte		N11   , As2 , v112
	.byte		N11   , Fn3 
	.byte	W12
	.byte		        As2 
	.byte		N11   , Fn3 
	.byte	W24
	.byte		        As2 
	.byte		N11   , Fn3 
	.byte	W12
	.byte		N17   , As2 
	.byte		N17   , Fn3 
	.byte	W24
	.byte		N11   , As2 
	.byte		N11   , Fn3 
	.byte	W12
	.byte		        As2 
	.byte		N11   , Fn3 
	.byte	W12
	.byte	PEND
@ 060   ----------------------------------------
Blazing_Fast_Battle_Divine_Protection_Required_1_060:
	.byte	W12
	.byte		N11   , As2 , v112
	.byte		N11   , Fn3 
	.byte	W12
	.byte		N17   , As2 
	.byte		N17   , Fn3 
	.byte	W24
	.byte		N11   , Bn2 
	.byte		N11   , Fs3 
	.byte	W12
	.byte		        Bn2 
	.byte		N11   , Fs3 
	.byte	W24
	.byte		        Bn2 
	.byte		N11   , Fs3 
	.byte	W12
	.byte	PEND
@ 061   ----------------------------------------
	.byte	PATT
	 .word	Blazing_Fast_Battle_Divine_Protection_Required_1_059
@ 062   ----------------------------------------
	.byte	PATT
	 .word	Blazing_Fast_Battle_Divine_Protection_Required_1_060
@ 063   ----------------------------------------
	.byte		N08   , Fn3 , v112
	.byte	W08
	.byte		TIE   , Fn4 
	.byte	W88
@ 064   ----------------------------------------
	.byte	W15
	.byte		EOT   
	.byte	W01
	.byte		N15   , Fs4 , v096
	.byte	W16
	.byte		        Ds4 
	.byte	W16
	.byte		        Fn4 
	.byte	W16
	.byte		        Cs4 
	.byte	W16
	.byte		        Ds4 
	.byte	W16
@ 065   ----------------------------------------
	.byte		        Cn4 
	.byte	W16
	.byte		        Cs4 
	.byte	W16
	.byte		        As3 
	.byte	W16
	.byte		        Cn4 
	.byte	W16
	.byte		        Gs3 
	.byte	W16
	.byte		        As3 
	.byte	W16
@ 066   ----------------------------------------
	.byte		        Fs3 
	.byte	W16
	.byte		        Gs3 
	.byte	W16
	.byte		        Fn3 
	.byte	W16
	.byte		        Fs3 
	.byte	W16
	.byte		        Ds3 
	.byte	W16
	.byte		        Fn3 
	.byte	W16
@ 067   ----------------------------------------
	.byte		        Cs3 
	.byte	W16
	.byte		        Ds3 
	.byte	W16
	.byte		        Cn3 
	.byte	W16
	.byte		        Cs3 
	.byte	W16
	.byte		        As2 
	.byte	W16
	.byte		        Cn3 
	.byte	W16
@ 068   ----------------------------------------
	.byte		        Gs2 
	.byte	W16
	.byte		        As2 
	.byte	W16
	.byte		        Fs2 
	.byte	W16
	.byte		        Gs2 
	.byte	W16
	.byte		        Fn2 
	.byte	W16
	.byte		        Fs2 
	.byte	W16
@ 069   ----------------------------------------
	.byte		N92   , Fn2 , v080
	.byte	W96
@ 070   ----------------------------------------
	.byte		        Fs2 , v064
	.byte	W96
@ 071   ----------------------------------------
	.byte		        Gn2 
	.byte	W96
@ 072   ----------------------------------------
	.byte		        Fs2 
	.byte	W96
@ 073   ----------------------------------------
	.byte		        Fn2 
	.byte	W96
@ 074   ----------------------------------------
	.byte		        Fs2 
	.byte	W96
@ 075   ----------------------------------------
	.byte		        Gn2 
	.byte	W96
@ 076   ----------------------------------------
	.byte		        Fs2 
	.byte	W96
@ 077   ----------------------------------------
	.byte		TIE   , Fn2 , v080
	.byte		TIE   , Fn3 
	.byte	W96
@ 078   ----------------------------------------
	.byte	W11
	.byte		EOT   , Fn2 
	.byte		        Fn3 
	.byte	W01
	.byte		N05   , Ds3 , v096
	.byte	W06
	.byte		        Fn3 
	.byte	W06
	.byte		N11   , Fs3 
	.byte	W12
	.byte		N05   , Fn3 
	.byte	W06
	.byte		        Fs3 
	.byte	W06
	.byte		N11   , Gs3 
	.byte	W12
	.byte		N05   , Fs3 
	.byte	W06
	.byte		        Gs3 
	.byte	W06
	.byte		N11   , As3 
	.byte	W12
	.byte		N05   , Bn3 
	.byte	W06
	.byte		        Gs3 
	.byte	W06
@ 079   ----------------------------------------
	.byte		N11   , As3 
	.byte	W12
	.byte		N05   , Gs3 
	.byte	W06
	.byte		        As3 
	.byte	W06
	.byte		N11   , Bn3 
	.byte	W12
	.byte		N05   , As3 
	.byte	W06
	.byte		        Bn3 
	.byte	W06
	.byte		N11   , Cs4 
	.byte	W12
	.byte		N05   , Bn3 
	.byte	W06
	.byte		        Cs4 
	.byte	W06
	.byte		N11   , Ds4 
	.byte	W12
	.byte		N05   , En4 
	.byte	W06
	.byte		        Bn3 
	.byte	W06
@ 080   ----------------------------------------
	.byte		N11   , Fn4 
	.byte	W12
	.byte		N05   , Cs4 
	.byte	W06
	.byte		        Cn4 
	.byte	W06
	.byte		N11   , As3 
	.byte	W12
	.byte		N05   , Gs3 
	.byte	W06
	.byte		        Fs3 
	.byte	W06
	.byte		N07   , Fn3 
	.byte	W08
	.byte		        Cs3 
	.byte	W08
	.byte		        Cn3 
	.byte	W08
	.byte		        As2 
	.byte	W08
	.byte		        Gs2 
	.byte	W08
	.byte		        Fs2 
	.byte	W08
@ 081   ----------------------------------------
	.byte		        Fn2 
	.byte	W08
	.byte		        An2 
	.byte	W08
	.byte		        As2 
	.byte	W08
	.byte		        Cs3 , v116
	.byte	W08
	.byte		        Fs2 , v096
	.byte	W08
	.byte		        Fn2 
	.byte	W08
	.byte		        Cn3 , v116
	.byte	W08
	.byte		        Fs2 , v096
	.byte	W08
	.byte		        Fn2 
	.byte	W08
	.byte		        As2 , v116
	.byte	W08
	.byte		        Fs2 , v096
	.byte	W08
	.byte		        Fn2 
	.byte	W08
@ 082   ----------------------------------------
	.byte		        Bn2 , v116
	.byte	W08
	.byte		        Fs2 , v096
	.byte	W08
	.byte		        Fn2 
	.byte	W08
	.byte		        Gs2 , v116
	.byte	W08
	.byte		        Fs2 , v096
	.byte	W08
	.byte		        Fn2 
	.byte	W08
	.byte		        Fn2 , v116
	.byte	W08
	.byte		        Bn1 , v096
	.byte	W08
	.byte		        As1 
	.byte	W08
	.byte		        Dn2 , v116
	.byte	W08
	.byte		        Bn1 , v096
	.byte	W08
	.byte		        As1 
	.byte	W08
@ 083   ----------------------------------------
	.byte		        Ds2 , v116
	.byte	W08
	.byte		        Bn1 , v096
	.byte	W08
	.byte		        As1 
	.byte	W08
	.byte		        Fs2 , v116
	.byte	W08
	.byte		        Bn1 , v096
	.byte	W08
	.byte		        As1 
	.byte	W08
	.byte		N11   , As2 , v116
	.byte	W12
	.byte		        Fs2 , v104
	.byte	W12
	.byte		        Fn2 , v108
	.byte	W12
@ 084   ----------------------------------------
	.byte		        En2 , v112
	.byte	W12
	.byte		        Cs2 
	.byte	W12
	.byte		        Cn2 , v104
	.byte	W12
	.byte		        En2 , v096
	.byte	W12
	.byte		        Cs2 
	.byte	W12
	.byte		        Cn2 
	.byte	W12
	.byte		N11   
	.byte		N11   , As2 
	.byte	W24
	.byte		        Cn2 , v104
	.byte		N11   , As2 
	.byte	W24
@ 085   ----------------------------------------
	.byte		        Fn2 , v112
	.byte	W12
	.byte		        Cs2 
	.byte	W12
	.byte		        Cn2 , v104
	.byte	W12
	.byte		        Fn2 , v096
	.byte	W12
	.byte		        Cs2 
	.byte	W12
	.byte		        Cn2 
	.byte	W12
	.byte		N11   
	.byte		N11   , As2 
	.byte	W24
	.byte		        Cn2 , v104
	.byte		N11   , As2 
	.byte	W24
@ 086   ----------------------------------------
	.byte		        Fs2 , v112
	.byte	W12
	.byte		        Cs2 
	.byte	W12
	.byte		        As1 , v104
	.byte	W12
	.byte		        Fs2 , v096
	.byte	W12
	.byte		        Cs2 
	.byte	W12
	.byte		        As1 
	.byte	W12
	.byte		        Ds2 
	.byte	W12
	.byte		        Fn2 , v100
	.byte	W12
	.byte		N05   , Fs2 , v104
	.byte	W06
	.byte		        Gs2 , v108
	.byte	W06
	.byte		        As2 
	.byte	W06
	.byte		        Cn3 , v112
	.byte	W06
@ 087   ----------------------------------------
	.byte		N11   , Cs3 
	.byte	W12
	.byte		        Fs2 
	.byte	W12
	.byte		        Fn2 , v104
	.byte	W12
	.byte		        Fn3 , v096
	.byte	W12
	.byte		        Fs2 
	.byte	W12
	.byte		        Fn2 
	.byte	W12
	.byte		        Cn3 
	.byte	W12
	.byte		        Cs3 , v100
	.byte	W12
	.byte		        Ds3 , v104
	.byte	W12
	.byte		        En3 , v108
	.byte	W12
@ 088   ----------------------------------------
	.byte		N05   , Fn3 , v127
	.byte	W06
	.byte		        Cs3 , v112
	.byte	W06
	.byte		        As2 
	.byte	W06
	.byte		        Fn3 , v108
	.byte	W06
	.byte		        Cs3 , v104
	.byte	W06
	.byte		        As2 , v100
	.byte	W06
	.byte		        Fn3 , v096
	.byte	W06
	.byte		        Cs3 
	.byte	W06
	.byte		        As2 
	.byte	W06
	.byte		        Fn3 
	.byte	W06
	.byte		        Cs3 
	.byte	W06
	.byte		        As2 
	.byte	W06
	.byte		N07   
	.byte		N07   , Fs3 
	.byte	W16
	.byte		        As2 
	.byte		N07   , Fs3 
	.byte	W16
	.byte		        As2 
	.byte		N07   , Fs3 
	.byte	W16
@ 089   ----------------------------------------
	.byte		N05   , Cs3 
	.byte	W06
	.byte		        As2 
	.byte	W06
	.byte		        Fn2 
	.byte	W06
	.byte		        Cs3 
	.byte	W06
	.byte		        As2 
	.byte	W06
	.byte		        Fn2 
	.byte	W06
	.byte		        Cs3 
	.byte	W06
	.byte		        As2 
	.byte	W06
	.byte		        Fn2 
	.byte	W06
	.byte		        Cs3 
	.byte	W06
	.byte		        As2 
	.byte	W06
	.byte		        Fn2 
	.byte	W06
	.byte		N07   , Ds2 
	.byte		N07   , Cn3 
	.byte	W16
	.byte		        Ds2 
	.byte		N07   , Cn3 
	.byte	W16
	.byte		        Ds2 
	.byte		N07   , Cn3 
	.byte	W16
@ 090   ----------------------------------------
	.byte		N05   , As2 
	.byte	W06
	.byte		        Fn2 
	.byte	W06
	.byte		        Cs2 
	.byte	W06
	.byte		        As2 
	.byte	W06
	.byte		        Fn2 
	.byte	W06
	.byte		        Cs2 
	.byte	W06
	.byte		        As2 
	.byte	W06
	.byte		        Fn2 
	.byte	W06
	.byte		        Cs2 
	.byte	W06
	.byte		        As2 
	.byte	W06
	.byte		        Fn2 
	.byte	W06
	.byte		        Cs2 
	.byte	W06
	.byte		N07   , Ds2 
	.byte		N07   , Bn2 
	.byte	W16
	.byte		        Ds2 
	.byte		N07   , Bn2 
	.byte	W16
	.byte		        Ds2 
	.byte		N07   , Bn2 
	.byte	W16
@ 091   ----------------------------------------
	.byte		N11   , As2 
	.byte	W12
	.byte		        Dn3 
	.byte	W12
	.byte		        Fn3 
	.byte	W12
	.byte		        Gs3 
	.byte	W12
@ 092   ----------------------------------------
	.byte		        Fs3 
	.byte	W12
	.byte		        Ds3 
	.byte	W12
	.byte		        As2 
	.byte	W12
	.byte		        Fn3 
	.byte	W12
	.byte		        Dn3 
	.byte	W12
@ 093   ----------------------------------------
	.byte		        Ds3 
	.byte	W12
	.byte		        As2 
	.byte	W12
	.byte		        Fs2 
	.byte	W12
	.byte		        En3 
	.byte	W12
	.byte		        Cn3 
	.byte	W12
@ 094   ----------------------------------------
	.byte		        Fn3 
	.byte	W12
	.byte		        Cs3 
	.byte	W12
	.byte		        As2 , v100
	.byte	W12
	.byte		        Fs3 
	.byte	W12
	.byte		        Dn3 
	.byte	W12
	.byte		        Bn2 
	.byte	W12
@ 095   ----------------------------------------
	.byte		        Fn3 
	.byte	W12
	.byte		        Cs3 
	.byte	W12
	.byte		        As2 , v104
	.byte	W12
	.byte		        En3 
	.byte	W12
	.byte		        Cn3 
	.byte	W12
	.byte		        An2 
	.byte	W12
@ 096   ----------------------------------------
	.byte		        Fn3 
	.byte	W12
	.byte		        Cs3 
	.byte	W12
	.byte	TEMPO , 330*Blazing_Fast_Battle_Divine_Protection_Required_tbs/2
	.byte		        As2 , v108
	.byte	W12
	.byte		        Fs3 
	.byte	W12
	.byte		        Dn3 
	.byte	W12
	.byte	TEMPO , 343*Blazing_Fast_Battle_Divine_Protection_Required_tbs/2
	.byte		        Bn2 
	.byte	W12
@ 097   ----------------------------------------
	.byte		        Gn3 
	.byte	W12
	.byte	TEMPO , 356*Blazing_Fast_Battle_Divine_Protection_Required_tbs/2
	.byte		        En3 
	.byte	W12
	.byte		        Cs3 , v112
	.byte	W12
	.byte	TEMPO , 367*Blazing_Fast_Battle_Divine_Protection_Required_tbs/2
	.byte		        An3 
	.byte	W12
	.byte		        Fn3 
	.byte	W12
	.byte	TEMPO , 300*Blazing_Fast_Battle_Divine_Protection_Required_tbs/2
	.byte		        Cn4 
	.byte	W12
@ 098   ----------------------------------------
	.byte	TEMPO , 311*Blazing_Fast_Battle_Divine_Protection_Required_tbs/2
	.byte		        As3 
	.byte	W12
	.byte		N05   , Fn4 
	.byte	W06
	.byte		        As3 
	.byte	W06
	.byte		N11   , Fn4 
	.byte	W12
	.byte		N05   , As3 
	.byte	W06
	.byte		        Fn4 , v108
	.byte	W06
	.byte		N11   , As3 
	.byte	W12
	.byte		N05   , Fn4 
	.byte	W06
	.byte		        As3 , v104
	.byte	W06
	.byte		N11   , Fn4 
	.byte	W12
	.byte		N05   , As3 
	.byte	W06
	.byte		        Fn4 
	.byte	W06
@ 099   ----------------------------------------
	.byte		N11   , As3 , v100
	.byte	W12
	.byte		N05   , Fn4 
	.byte	W06
	.byte		        As3 
	.byte	W06
	.byte		N11   , Fn4 , v096
	.byte	W12
	.byte		N05   , As3 
	.byte	W06
	.byte		        Fn4 
	.byte	W06
	.byte		N11   , As3 
	.byte	W12
	.byte		N05   , Fn4 , v092
	.byte	W06
	.byte		        As3 
	.byte	W06
	.byte		N11   , Fn4 
	.byte	W12
	.byte		N05   , As3 , v088
	.byte	W06
	.byte		        Fn4 
	.byte	W06
@ 100   ----------------------------------------
	.byte		N11   , As3 
	.byte	W12
	.byte		N05   , Fn4 , v084
	.byte	W06
	.byte		        As3 
	.byte	W06
	.byte		N11   , Fn4 
	.byte	W12
	.byte		N05   , As3 , v080
	.byte	W06
	.byte		        Fn4 
	.byte	W06
	.byte		N11   , As3 
	.byte	W12
	.byte		N05   , Fn4 
	.byte	W06
	.byte		        As3 , v076
	.byte	W06
	.byte		N11   , Fn4 
	.byte	W12
	.byte		N05   , As3 
	.byte	W06
	.byte		        Fn4 , v072
	.byte	W06
@ 101   ----------------------------------------
	.byte		N11   , As3 
	.byte	W12
	.byte		N05   , Fn4 
	.byte	W06
	.byte		        As3 
	.byte	W06
	.byte		N11   , Fn4 , v068
	.byte	W12
	.byte		N05   , As3 
	.byte	W06
	.byte		        Fn4 
	.byte	W06
	.byte		N11   , As3 , v064
	.byte	W12
	.byte		N05   , Fn4 
	.byte	W06
	.byte		        As3 , v072
	.byte	W06
	.byte		N11   , Ds4 , v080
	.byte	W12
	.byte		N05   , Cn4 
	.byte	W06
	.byte		        Ds4 , v088
	.byte	W06
@ 102   ----------------------------------------
	.byte		N11   , Dn3 , v096
	.byte	W12
	.byte		N05   , Dn4 
	.byte	W06
	.byte		        Dn3 
	.byte	W06
	.byte		N11   , Dn4 
	.byte	W12
	.byte		N05   , Dn3 , v092
	.byte	W06
	.byte		        Dn4 
	.byte	W06
	.byte		N11   , Dn3 
	.byte	W12
	.byte		N05   , Dn4 , v088
	.byte	W06
	.byte		        Dn3 
	.byte	W06
	.byte		N11   , Dn4 
	.byte	W12
	.byte		N05   , Dn3 , v084
	.byte	W06
	.byte		        Dn4 
	.byte	W06
@ 103   ----------------------------------------
	.byte		N11   , Dn3 , v080
	.byte	W12
	.byte		N05   , Dn4 
	.byte	W06
	.byte		        Dn3 
	.byte	W06
	.byte		N11   , Dn4 
	.byte	W12
	.byte		N05   , Dn3 
	.byte	W06
	.byte		        Dn4 
	.byte	W06
	.byte		N11   , Dn3 
	.byte	W12
	.byte		N05   , Dn4 , v076
	.byte	W06
	.byte		        Dn3 
	.byte	W06
	.byte		N11   , Dn4 
	.byte	W12
	.byte		N05   , Dn3 
	.byte	W06
	.byte		        Dn4 
	.byte	W06
@ 104   ----------------------------------------
	.byte		N11   , Dn3 
	.byte	W12
	.byte		N05   , An3 , v072
	.byte	W06
	.byte		        Dn3 
	.byte	W06
	.byte		N11   , An3 
	.byte	W12
	.byte		N05   , Dn3 
	.byte	W06
	.byte		        An3 
	.byte	W06
	.byte		N11   , Dn3 
	.byte	W12
	.byte		N05   , An3 , v068
	.byte	W06
	.byte		        Dn3 
	.byte	W06
	.byte		N11   , An3 
	.byte	W12
	.byte		N05   , Dn3 
	.byte	W06
	.byte		        An3 
	.byte	W06
@ 105   ----------------------------------------
	.byte		N11   , Dn3 , v064
	.byte	W12
	.byte		N05   , Dn4 
	.byte	W06
	.byte		        Dn3 
	.byte	W06
	.byte		N11   , Dn4 
	.byte	W12
	.byte		N05   , Dn3 
	.byte	W06
	.byte		        Dn4 
	.byte	W06
	.byte		N11   , Dn3 
	.byte	W12
	.byte		N05   , Dn4 
	.byte	W06
	.byte		        Dn3 
	.byte	W06
	.byte		N11   , Dn4 
	.byte	W12
	.byte		N05   , Dn3 
	.byte	W06
	.byte		        Dn4 
	.byte	W06
@ 106   ----------------------------------------
	.byte	TEMPO , 311*Blazing_Fast_Battle_Divine_Protection_Required_tbs/2
	.byte		N11   
	.byte	W12
	.byte		        As3 
	.byte	W12
	.byte		        Gn3 
	.byte	W12
	.byte		        Dn4 
	.byte	W12
	.byte		        As3 
	.byte	W12
	.byte		        Gn3 
	.byte	W12
	.byte		        Ds4 
	.byte	W24
	.byte		        Ds4 , v068
	.byte	W24
@ 107   ----------------------------------------
	.byte		        Dn4 
	.byte	W12
	.byte		        As3 
	.byte	W12
	.byte		        Gn3 
	.byte	W12
	.byte		        Dn4 
	.byte	W12
	.byte		        As3 
	.byte	W12
	.byte		        Gn3 
	.byte	W12
	.byte		        Ds4 
	.byte	W24
	.byte		N11   
	.byte	W24
@ 108   ----------------------------------------
	.byte		        Dn4 
	.byte	W24
	.byte		        Gn3 
	.byte	W12
	.byte		        Dn4 
	.byte	W24
	.byte		        Gn3 
	.byte	W12
	.byte		        Gs3 
	.byte		N11   , Ds4 
	.byte	W24
	.byte		        Cn4 
	.byte	W24
	.byte		        Gs3 , v072
	.byte	W24
@ 109   ----------------------------------------
	.byte		        Dn4 
	.byte	W24
	.byte		        Gn3 
	.byte	W12
	.byte		        Dn4 
	.byte	W24
	.byte		        Gn3 
	.byte	W12
	.byte		        Gs3 
	.byte		N11   , Ds4 
	.byte	W24
	.byte		        Cn4 
	.byte	W24
	.byte		        Gs3 
	.byte	W24
@ 110   ----------------------------------------
	.byte		        Dn4 
	.byte	W24
	.byte		        As3 
	.byte	W24
	.byte		        Gn3 
	.byte	W24
@ 111   ----------------------------------------
	.byte		        Cn4 
	.byte	W24
	.byte		        An3 
	.byte	W24
	.byte		        Dn3 , v076
	.byte	W24
@ 112   ----------------------------------------
	.byte		        Cs4 
	.byte	W24
	.byte		        As3 
	.byte	W24
	.byte		        Gn3 
	.byte	W24
@ 113   ----------------------------------------
	.byte		        Cn4 
	.byte	W12
	.byte		        Gs3 
	.byte	W12
	.byte		        Fn3 
	.byte	W12
	.byte		        Cn4 
	.byte	W12
	.byte		        Gs3 
	.byte	W12
	.byte		        Fn3 
	.byte	W12
	.byte		        Cs4 
	.byte	W24
	.byte		N11   
	.byte	W24
@ 114   ----------------------------------------
	.byte		        Cn4 
	.byte	W12
	.byte		        Gs3 
	.byte	W12
	.byte		        Fn3 
	.byte	W12
	.byte		        Cn4 
	.byte	W12
	.byte		        Gs3 
	.byte	W12
	.byte		        Fn3 , v080
	.byte	W12
	.byte		        Cs4 
	.byte	W24
	.byte		N11   
	.byte	W24
@ 115   ----------------------------------------
	.byte		        Cn4 
	.byte	W24
	.byte		        Fn3 
	.byte	W12
	.byte		        Cn4 
	.byte	W24
	.byte		        Fn3 
	.byte	W12
	.byte		        Fs3 
	.byte		N11   , Cs4 
	.byte	W24
	.byte		        As3 
	.byte	W24
	.byte		        Fs3 
	.byte	W24
@ 116   ----------------------------------------
	.byte		        Cn4 
	.byte	W24
	.byte		        Fn3 
	.byte	W12
	.byte		        Cn4 
	.byte	W24
	.byte		        Fn3 
	.byte	W12
	.byte		        Fs3 , v084
	.byte		N11   , Cs4 
	.byte	W24
	.byte		        As3 
	.byte	W24
	.byte		        Fs3 
	.byte	W24
@ 117   ----------------------------------------
	.byte		        Cn4 
	.byte	W24
	.byte		        Gs3 
	.byte	W24
	.byte		        Fn3 
	.byte	W24
@ 118   ----------------------------------------
	.byte		        As3 
	.byte	W24
	.byte		        Gn3 
	.byte	W24
	.byte		        Cn3 
	.byte	W24
@ 119   ----------------------------------------
	.byte		        Bn3 
	.byte	W24
	.byte		        Gs3 
	.byte	W24
	.byte		        Fn3 
	.byte	W24
@ 120   ----------------------------------------
Blazing_Fast_Battle_Divine_Protection_Required_1_120:
	.byte		N11   , Bn3 , v088
	.byte	W12
	.byte		        Gn3 
	.byte	W12
	.byte		        En3 
	.byte	W12
	.byte		        Bn3 
	.byte	W12
	.byte		        Gn3 
	.byte	W12
	.byte		        En3 
	.byte	W12
	.byte		        Cn4 
	.byte	W24
	.byte		N11   
	.byte	W24
	.byte	PEND
@ 121   ----------------------------------------
	.byte	PATT
	 .word	Blazing_Fast_Battle_Divine_Protection_Required_1_120
@ 122   ----------------------------------------
	.byte		N11   , Bn3 , v088
	.byte	W24
	.byte		        En3 , v092
	.byte	W12
	.byte		        Bn3 
	.byte	W24
	.byte		        En3 
	.byte	W12
	.byte		        Fn3 
	.byte		N11   , Cn4 
	.byte	W24
	.byte		        An3 
	.byte	W24
	.byte		        Fn3 
	.byte	W24
@ 123   ----------------------------------------
	.byte		        Bn3 
	.byte	W24
	.byte		        En3 
	.byte	W12
	.byte		        Bn3 
	.byte	W24
	.byte		        En3 
	.byte	W12
	.byte		        Fn3 
	.byte		N11   , Cn4 
	.byte	W24
	.byte		        An3 
	.byte	W24
	.byte		        Fn3 
	.byte	W24
@ 124   ----------------------------------------
	.byte		        Bn3 
	.byte	W24
	.byte		        Gn3 , v096
	.byte	W24
	.byte		        En3 
	.byte	W24
@ 125   ----------------------------------------
	.byte		        An3 
	.byte	W24
	.byte		        Fs3 
	.byte	W24
	.byte		        Bn2 
	.byte	W24
@ 126   ----------------------------------------
	.byte		        As3 , v100
	.byte	W24
	.byte		        Gn3 , v104
	.byte	W24
	.byte		        En3 
	.byte	W24
@ 127   ----------------------------------------
	.byte	PATT
	 .word	Blazing_Fast_Battle_Divine_Protection_Required_1_032
@ 128   ----------------------------------------
	.byte	PATT
	 .word	Blazing_Fast_Battle_Divine_Protection_Required_1_032
@ 129   ----------------------------------------
	.byte	PATT
	 .word	Blazing_Fast_Battle_Divine_Protection_Required_1_034
@ 130   ----------------------------------------
	.byte	PATT
	 .word	Blazing_Fast_Battle_Divine_Protection_Required_1_034
@ 131   ----------------------------------------
	.byte	PATT
	 .word	Blazing_Fast_Battle_Divine_Protection_Required_1_036
@ 132   ----------------------------------------
	.byte	PATT
	 .word	Blazing_Fast_Battle_Divine_Protection_Required_1_037
@ 133   ----------------------------------------
	.byte	PATT
	 .word	Blazing_Fast_Battle_Divine_Protection_Required_1_038
@ 134   ----------------------------------------
	.byte	PATT
	 .word	Blazing_Fast_Battle_Divine_Protection_Required_1_039
@ 135   ----------------------------------------
	.byte	PATT
	 .word	Blazing_Fast_Battle_Divine_Protection_Required_1_039
@ 136   ----------------------------------------
	.byte	PATT
	 .word	Blazing_Fast_Battle_Divine_Protection_Required_1_041
@ 137   ----------------------------------------
	.byte	PATT
	 .word	Blazing_Fast_Battle_Divine_Protection_Required_1_041
@ 138   ----------------------------------------
	.byte	PATT
	 .word	Blazing_Fast_Battle_Divine_Protection_Required_1_043
@ 139   ----------------------------------------
	.byte	PATT
	 .word	Blazing_Fast_Battle_Divine_Protection_Required_1_044
@ 140   ----------------------------------------
	.byte	PATT
	 .word	Blazing_Fast_Battle_Divine_Protection_Required_1_045
@ 141   ----------------------------------------
	.byte	PATT
	 .word	Blazing_Fast_Battle_Divine_Protection_Required_1_046
@ 142   ----------------------------------------
	.byte	PATT
	 .word	Blazing_Fast_Battle_Divine_Protection_Required_1_046
@ 143   ----------------------------------------
	.byte	PATT
	 .word	Blazing_Fast_Battle_Divine_Protection_Required_1_048
@ 144   ----------------------------------------
	.byte	PATT
	 .word	Blazing_Fast_Battle_Divine_Protection_Required_1_048
@ 145   ----------------------------------------
	.byte	PATT
	 .word	Blazing_Fast_Battle_Divine_Protection_Required_1_050
@ 146   ----------------------------------------
	.byte	PATT
	 .word	Blazing_Fast_Battle_Divine_Protection_Required_1_051
@ 147   ----------------------------------------
	.byte		N11   , Cs3 , v112
	.byte		N11   , En3 
	.byte	W24
	.byte		        An2 
	.byte		N11   , Cs3 
	.byte	W24
	.byte		        En2 
	.byte		N11   , As2 
	.byte	W24
@ 148   ----------------------------------------
	.byte		        Cn3 
	.byte		N11   , En3 
	.byte	W12
	.byte		        An2 
	.byte		N11   , Cn3 
	.byte	W12
	.byte		        En2 
	.byte		N11   , An2 
	.byte	W12
	.byte		        Cn3 
	.byte		N11   , En3 
	.byte	W12
	.byte		        An2 
	.byte		N11   , Cn3 
	.byte	W12
	.byte		        En2 
	.byte		N11   , An2 
	.byte	W12
	.byte		        As2 
	.byte		N11   , Fn3 
	.byte	W24
	.byte		        As2 
	.byte		N11   , Fn3 
	.byte	W24
@ 149   ----------------------------------------
	.byte	PATT
	 .word	Blazing_Fast_Battle_Divine_Protection_Required_1_046
@ 150   ----------------------------------------
Blazing_Fast_Battle_Divine_Protection_Required_1_150:
	.byte		N11   , Cn3 , v112
	.byte		N11   , En3 
	.byte	W12
	.byte		        An2 
	.byte		N11   , Cn3 
	.byte	W12
	.byte		        En2 
	.byte		N11   , An2 
	.byte	W12
	.byte		        As2 
	.byte		N11   , Fn3 
	.byte	W24
	.byte	PEND
@ 151   ----------------------------------------
Blazing_Fast_Battle_Divine_Protection_Required_1_151:
	.byte		N11   , Cs3 , v112
	.byte		N11   , Fn3 
	.byte	W12
	.byte		        As2 
	.byte		N11   , Cs3 
	.byte	W12
	.byte		        Fn2 
	.byte		N11   , As2 
	.byte	W12
	.byte		        Bn2 
	.byte		N11   , Fs3 
	.byte	W24
	.byte	PEND
@ 152   ----------------------------------------
	.byte	PATT
	 .word	Blazing_Fast_Battle_Divine_Protection_Required_1_150
@ 153   ----------------------------------------
	.byte	PATT
	 .word	Blazing_Fast_Battle_Divine_Protection_Required_1_151
@ 154   ----------------------------------------
Blazing_Fast_Battle_Divine_Protection_Required_1_154:
	.byte		N11   , As2 , v112
	.byte		N11   , Fn3 
	.byte	W24
	.byte		        Bn2 
	.byte		N11   , Fs3 
	.byte	W24
	.byte		        As2 
	.byte		N11   , Fn3 
	.byte	W24
	.byte	PEND
@ 155   ----------------------------------------
	.byte		        Bn2 
	.byte		N11   , Fs3 
	.byte	W24
	.byte		        As2 
	.byte		N11   , Fn3 
	.byte	W24
	.byte		        Bn2 
	.byte		N11   , Fs3 
	.byte	W24
@ 156   ----------------------------------------
	.byte	PATT
	 .word	Blazing_Fast_Battle_Divine_Protection_Required_1_154
@ 157   ----------------------------------------
	.byte		N16   , Cn3 , v112
	.byte		N16   , Fn3 
	.byte	W72
@ 158   ----------------------------------------
	.byte		N23   , Bn2 
	.byte		N23   , En3 
	.byte	W72
@ 159   ----------------------------------------
	.byte	W96
@ 160   ----------------------------------------
	.byte	W96
	.byte	W24
@ 161   ----------------------------------------
	.byte		TIE   , An2 
	.byte		TIE   , En3 
	.byte		TIE   , An3 
	.byte	W96
	.byte	W48
@ 162   ----------------------------------------
	.byte	W96
	.byte	W44
	.byte	W03
	.byte		EOT   , An2 
	.byte		        En3 
	.byte		        An3 
	.byte	W01
@ 163   ----------------------------------------
	.byte		N23   , An2 , v127
	.byte		N23   , En3 
	.byte		N23   , An3 
	.byte		N23   , An4 
	.byte	W44
	.byte	W03
	.byte	GOTO
	 .word	Blazing_Fast_Battle_Divine_Protection_Required_1_B1
Blazing_Fast_Battle_Divine_Protection_Required_1_B2:
	.byte	FINE

@**************** Track 2 (Midi-Chn.2) ****************@

Blazing_Fast_Battle_Divine_Protection_Required_2:
	.byte	KEYSH , Blazing_Fast_Battle_Divine_Protection_Required_key+0
Blazing_Fast_Battle_Divine_Protection_Required_2_B1:
@ 000   ----------------------------------------
	.byte		VOICE , 30
	.byte		VOL   , 97*Blazing_Fast_Battle_Divine_Protection_Required_mvl/mxv
	.byte		PAN   , c_v+0
	.byte		N68   , An1 , v080
	.byte		N68   , En2 
	.byte		N68   , An2 
	.byte	W72
	.byte		N15   , As1 
	.byte		N15   , Fn2 
	.byte	W16
	.byte		        As1 
	.byte		N15   , Fn2 
	.byte	W16
	.byte		        As1 
	.byte		N15   , Fn2 
	.byte	W16
@ 001   ----------------------------------------
	.byte		N68   , An1 
	.byte		N68   , En2 
	.byte		N68   , An2 
	.byte	W72
	.byte		N15   , As1 
	.byte		N15   , Fn2 
	.byte	W16
	.byte		        As1 
	.byte		N15   , Fn2 
	.byte	W16
	.byte		        As1 
	.byte		N15   , Fn2 
	.byte	W16
@ 002   ----------------------------------------
	.byte		N68   , An1 
	.byte		N68   , En2 
	.byte	W72
	.byte		N15   , Fn1 
	.byte		N15   , As1 
	.byte	W16
	.byte		        Fn1 
	.byte		N15   , As1 
	.byte	W16
	.byte		        Fn1 
	.byte		N15   , As1 
	.byte	W16
@ 003   ----------------------------------------
	.byte		        En1 
	.byte	W16
	.byte		N15   
	.byte	W16
	.byte		N15   
	.byte	W16
@ 004   ----------------------------------------
	.byte		        Fn1 
	.byte	W16
	.byte		N15   
	.byte	W16
	.byte		N15   
	.byte	W16
@ 005   ----------------------------------------
	.byte		        As1 
	.byte	W16
	.byte		N15   
	.byte	W16
	.byte		N15   
	.byte	W16
@ 006   ----------------------------------------
	.byte		        Bn1 
	.byte	W16
	.byte		N15   
	.byte	W16
	.byte		N15   
	.byte	W16
@ 007   ----------------------------------------
	.byte		        En1 
	.byte		N15   , An1 
	.byte		N15   , En2 
	.byte	W16
	.byte		        En1 
	.byte		N15   , An1 
	.byte		N15   , En2 
	.byte	W16
	.byte		        En1 
	.byte		N15   , An1 
	.byte		N15   , En2 
	.byte	W16
@ 008   ----------------------------------------
	.byte		        Fn1 
	.byte		N15   , As1 
	.byte		N15   , Fn2 
	.byte	W16
	.byte		        Fn1 
	.byte		N15   , As1 
	.byte		N15   , Fn2 
	.byte	W16
	.byte		        Fn1 
	.byte		N15   , As1 
	.byte		N15   , Fn2 
	.byte	W16
@ 009   ----------------------------------------
	.byte		        As1 
	.byte		N15   , Ds2 
	.byte		N15   , As2 
	.byte	W16
	.byte		        As1 
	.byte		N15   , Ds2 
	.byte		N15   , As2 
	.byte	W16
	.byte		        As1 
	.byte		N15   , Ds2 
	.byte		N15   , As2 
	.byte	W16
@ 010   ----------------------------------------
	.byte	W48
@ 011   ----------------------------------------
	.byte	W96
	.byte	W24
@ 012   ----------------------------------------
	.byte	W96
	.byte	W24
@ 013   ----------------------------------------
	.byte	W96
	.byte	W48
@ 014   ----------------------------------------
	.byte	W96
	.byte	W48
@ 015   ----------------------------------------
	.byte	W72
@ 016   ----------------------------------------
	.byte	W72
@ 017   ----------------------------------------
	.byte	W72
@ 018   ----------------------------------------
Blazing_Fast_Battle_Divine_Protection_Required_2_018:
	.byte		N11   , An1 , v080
	.byte		N11   , Dn2 
	.byte	W36
	.byte		        An1 
	.byte		N11   , Dn2 
	.byte	W36
	.byte		        As1 
	.byte		N11   , Ds2 
	.byte	W24
	.byte		        As1 
	.byte		N11   , Ds2 
	.byte	W24
	.byte	PEND
@ 019   ----------------------------------------
	.byte	PATT
	 .word	Blazing_Fast_Battle_Divine_Protection_Required_2_018
@ 020   ----------------------------------------
Blazing_Fast_Battle_Divine_Protection_Required_2_020:
	.byte		N11   , An1 , v080
	.byte		N11   , Dn2 
	.byte	W36
	.byte		        An1 
	.byte		N11   , Dn2 
	.byte	W36
	.byte		        As1 
	.byte		N11   , Ds2 
	.byte	W24
	.byte		        As1 
	.byte		N11   , Ds2 
	.byte	W24
	.byte		        As1 
	.byte		N11   , Ds2 
	.byte	W24
	.byte	PEND
@ 021   ----------------------------------------
	.byte	PATT
	 .word	Blazing_Fast_Battle_Divine_Protection_Required_2_020
@ 022   ----------------------------------------
	.byte		N11   , An1 , v080
	.byte		N11   , Dn2 
	.byte	W12
	.byte		        An1 
	.byte		N11   , Dn2 
	.byte	W12
	.byte		        An1 
	.byte		N11   , Dn2 
	.byte	W12
	.byte		        An1 
	.byte		N11   , Dn2 
	.byte	W12
	.byte		        An1 
	.byte		N11   , Dn2 
	.byte	W12
	.byte		        An1 
	.byte		N11   , Dn2 
	.byte	W12
@ 023   ----------------------------------------
	.byte		        An1 
	.byte		N11   , En2 
	.byte	W12
	.byte		        An1 
	.byte		N11   , En2 
	.byte	W12
	.byte		        An1 
	.byte		N11   , En2 
	.byte	W12
	.byte		        An1 
	.byte		N11   , En2 
	.byte	W12
	.byte		        En1 
	.byte		N11   , An1 
	.byte	W12
	.byte		        En1 
	.byte		N11   , An1 
	.byte	W12
@ 024   ----------------------------------------
	.byte		        Fn1 
	.byte		N11   , Bn1 
	.byte		N11   , Fn2 
	.byte	W12
	.byte		        Fn1 
	.byte		N11   , Bn1 
	.byte		N11   , Fn2 
	.byte	W12
	.byte		        Fn1 
	.byte		N11   , Bn1 
	.byte		N11   , Fn2 
	.byte	W12
	.byte		        Fn1 
	.byte		N11   , Bn1 
	.byte		N11   , Fn2 
	.byte	W12
	.byte		        Fn1 
	.byte		N11   , Bn1 
	.byte	W12
	.byte		        Fn1 
	.byte		N11   , Bn1 
	.byte	W12
@ 025   ----------------------------------------
Blazing_Fast_Battle_Divine_Protection_Required_2_025:
	.byte		N11   , Fn1 , v080
	.byte		N11   , As1 
	.byte		N11   , Fn2 
	.byte	W36
	.byte		        Fn1 
	.byte		N11   , As1 
	.byte		N11   , Fn2 
	.byte	W36
	.byte		        Fs1 
	.byte		N11   , Bn1 
	.byte		N11   , Fs2 
	.byte	W24
	.byte		        Fs1 
	.byte		N11   , Bn1 
	.byte		N11   , Fs2 
	.byte	W24
	.byte	PEND
@ 026   ----------------------------------------
	.byte	PATT
	 .word	Blazing_Fast_Battle_Divine_Protection_Required_2_025
@ 027   ----------------------------------------
Blazing_Fast_Battle_Divine_Protection_Required_2_027:
	.byte		N11   , Fn1 , v080
	.byte		N11   , As1 
	.byte		N11   , Fn2 
	.byte	W36
	.byte		        Fn1 
	.byte		N11   , As1 
	.byte		N11   , Fn2 
	.byte	W36
	.byte		        Fs1 
	.byte		N11   , Bn1 
	.byte		N11   , Fs2 
	.byte	W24
	.byte		        Fs1 
	.byte		N11   , Bn1 
	.byte		N11   , Fs2 
	.byte	W24
	.byte		        Fs1 
	.byte		N11   , Bn1 
	.byte		N11   , Fs2 
	.byte	W24
	.byte	PEND
@ 028   ----------------------------------------
	.byte	PATT
	 .word	Blazing_Fast_Battle_Divine_Protection_Required_2_027
@ 029   ----------------------------------------
	.byte		N11   , Fn1 , v080
	.byte		N11   , As1 
	.byte		N11   , Fn2 
	.byte	W12
	.byte		        Fn1 
	.byte		N11   , As1 
	.byte		N11   , Fn2 
	.byte	W12
	.byte		        Fn1 
	.byte		N11   , As1 
	.byte		N11   , Fn2 
	.byte	W12
	.byte		        Fn1 
	.byte		N11   , As1 
	.byte		N11   , Fn2 
	.byte	W12
	.byte		        Fn1 
	.byte		N11   , As1 
	.byte		N11   , Fn2 
	.byte	W12
	.byte		        Fn1 
	.byte		N11   , As1 
	.byte		N11   , Fn2 
	.byte	W12
@ 030   ----------------------------------------
	.byte		        Fn1 
	.byte		N11   , Cn2 
	.byte		N11   , Fn2 
	.byte	W12
	.byte		        Fn1 
	.byte		N11   , Cn2 
	.byte		N11   , Fn2 
	.byte	W12
	.byte		        Fn1 
	.byte		N11   , Cn2 
	.byte		N11   , Fn2 
	.byte	W12
	.byte		        Fn1 
	.byte		N11   , Cn2 
	.byte		N11   , Fn2 
	.byte	W12
	.byte		        Fn1 
	.byte		N11   , Cn2 
	.byte		N11   , Fn2 
	.byte	W12
	.byte		        Fn1 
	.byte		N11   , Cn2 
	.byte		N11   , Fn2 
	.byte	W12
@ 031   ----------------------------------------
Blazing_Fast_Battle_Divine_Protection_Required_2_031:
	.byte		N11   , Gn1 , v080
	.byte		N11   , Cs2 
	.byte		N11   , Gn2 
	.byte	W12
	.byte		        Gn1 
	.byte		N11   , Cs2 
	.byte		N11   , Gn2 
	.byte	W12
	.byte		        Gn1 
	.byte		N11   , Cs2 
	.byte		N11   , Gn2 
	.byte	W12
	.byte		        Gn1 
	.byte		N11   , Cs2 
	.byte		N11   , Gn2 
	.byte	W12
	.byte		        Gn1 
	.byte		N11   , Cs2 
	.byte		N11   , Gn2 
	.byte	W12
	.byte		        Gn1 
	.byte		N11   , Cs2 
	.byte		N11   , Gn2 
	.byte	W12
	.byte	PEND
@ 032   ----------------------------------------
Blazing_Fast_Battle_Divine_Protection_Required_2_032:
	.byte		N11   , An1 , v080
	.byte		N11   , En2 
	.byte		N11   , An2 
	.byte	W36
	.byte		        An1 
	.byte		N11   , En2 
	.byte		N11   , An2 
	.byte	W36
	.byte		        As1 
	.byte		N11   , Fn2 
	.byte		N11   , As2 
	.byte	W24
	.byte		        As1 
	.byte		N11   , Fn2 
	.byte		N11   , As2 
	.byte	W24
	.byte	PEND
@ 033   ----------------------------------------
	.byte	PATT
	 .word	Blazing_Fast_Battle_Divine_Protection_Required_2_032
@ 034   ----------------------------------------
Blazing_Fast_Battle_Divine_Protection_Required_2_034:
	.byte		N11   , An1 , v080
	.byte		N11   , En2 
	.byte		N11   , An2 
	.byte	W36
	.byte		        An1 
	.byte		N11   , En2 
	.byte		N11   , An2 
	.byte	W36
	.byte		        As1 
	.byte		N11   , Fn2 
	.byte		N11   , As2 
	.byte	W24
	.byte		        As1 
	.byte		N11   , Fn2 
	.byte		N11   , As2 
	.byte	W24
	.byte		        As1 
	.byte		N11   , Fn2 
	.byte		N11   , As2 
	.byte	W24
	.byte	PEND
@ 035   ----------------------------------------
	.byte	PATT
	 .word	Blazing_Fast_Battle_Divine_Protection_Required_2_034
@ 036   ----------------------------------------
Blazing_Fast_Battle_Divine_Protection_Required_2_036:
	.byte		N11   , An1 , v080
	.byte		N11   , En2 
	.byte		N11   , An2 
	.byte	W12
	.byte		        An1 
	.byte		N11   , En2 
	.byte		N11   , An2 
	.byte	W12
	.byte		        An1 
	.byte		N11   , En2 
	.byte		N11   , An2 
	.byte	W12
	.byte		        An1 
	.byte		N11   , En2 
	.byte		N11   , An2 
	.byte	W12
	.byte		        An1 
	.byte		N11   , En2 
	.byte		N11   , An2 
	.byte	W12
	.byte		        An1 
	.byte		N11   , En2 
	.byte		N11   , An2 
	.byte	W12
	.byte	PEND
@ 037   ----------------------------------------
Blazing_Fast_Battle_Divine_Protection_Required_2_037:
	.byte		N11   , Bn1 , v080
	.byte		N11   , En2 
	.byte		N11   , Bn2 
	.byte	W12
	.byte		        Bn1 
	.byte		N11   , En2 
	.byte		N11   , Bn2 
	.byte	W12
	.byte		        Bn1 
	.byte		N11   , En2 
	.byte		N11   , Bn2 
	.byte	W12
	.byte		        Bn1 
	.byte		N11   , En2 
	.byte		N11   , Bn2 
	.byte	W12
	.byte		        Bn1 
	.byte		N11   , En2 
	.byte	W12
	.byte		        Bn1 
	.byte		N11   , En2 
	.byte	W12
	.byte	PEND
@ 038   ----------------------------------------
Blazing_Fast_Battle_Divine_Protection_Required_2_038:
	.byte		N11   , Cn2 , v080
	.byte		N11   , Fs2 
	.byte		N11   , Cn3 
	.byte	W12
	.byte		        Cn2 
	.byte		N11   , Fs2 
	.byte		N11   , Cn3 
	.byte	W12
	.byte		        Cn2 
	.byte		N11   , Fs2 
	.byte	W12
	.byte		        Cn2 
	.byte		N11   , Fs2 
	.byte	W12
	.byte		        Cn2 
	.byte		N11   , Fs2 
	.byte	W12
	.byte		        Cn2 
	.byte		N11   , Fs2 
	.byte	W12
	.byte	PEND
@ 039   ----------------------------------------
Blazing_Fast_Battle_Divine_Protection_Required_2_039:
	.byte		N11   , Dn2 , v080
	.byte		N11   , An2 
	.byte		N11   , Dn3 
	.byte	W36
	.byte		        Dn2 
	.byte		N11   , An2 
	.byte		N11   , Dn3 
	.byte	W36
	.byte		        Ds2 
	.byte		N11   , As2 
	.byte		N11   , Ds3 
	.byte	W24
	.byte		        Ds2 
	.byte		N11   , As2 
	.byte		N11   , Ds3 
	.byte	W24
	.byte	PEND
@ 040   ----------------------------------------
	.byte	PATT
	 .word	Blazing_Fast_Battle_Divine_Protection_Required_2_039
@ 041   ----------------------------------------
Blazing_Fast_Battle_Divine_Protection_Required_2_041:
	.byte		N11   , Dn2 , v080
	.byte		N11   , An2 
	.byte		N11   , Dn3 
	.byte	W36
	.byte		        Dn2 
	.byte		N11   , An2 
	.byte		N11   , Dn3 
	.byte	W36
	.byte		        Ds2 
	.byte		N11   , As2 
	.byte		N11   , Ds3 
	.byte	W24
	.byte		        Ds2 
	.byte		N11   , As2 
	.byte		N11   , Ds3 
	.byte	W24
	.byte		        Ds2 
	.byte		N11   , As2 
	.byte		N11   , Ds3 
	.byte	W24
	.byte	PEND
@ 042   ----------------------------------------
	.byte	PATT
	 .word	Blazing_Fast_Battle_Divine_Protection_Required_2_041
@ 043   ----------------------------------------
Blazing_Fast_Battle_Divine_Protection_Required_2_043:
	.byte		N11   , Dn2 , v080
	.byte		N11   , An2 
	.byte		N11   , Dn3 
	.byte	W12
	.byte		        Dn2 
	.byte		N11   , An2 
	.byte		N11   , Dn3 
	.byte	W12
	.byte		        Dn2 
	.byte		N11   , An2 
	.byte		N11   , Dn3 
	.byte	W12
	.byte		        Dn2 
	.byte		N11   , An2 
	.byte		N11   , Dn3 
	.byte	W12
	.byte		        Dn2 
	.byte		N11   , An2 
	.byte		N11   , Dn3 
	.byte	W12
	.byte		        Dn2 
	.byte		N11   , An2 
	.byte		N11   , Dn3 
	.byte	W12
	.byte	PEND
@ 044   ----------------------------------------
Blazing_Fast_Battle_Divine_Protection_Required_2_044:
	.byte		N11   , En2 , v080
	.byte		N11   , An2 
	.byte		N11   , En3 
	.byte	W12
	.byte		        En2 
	.byte		N11   , An2 
	.byte		N11   , En3 
	.byte	W12
	.byte		        En2 
	.byte		N11   , An2 
	.byte		N11   , En3 
	.byte	W12
	.byte		        En2 
	.byte		N11   , An2 
	.byte		N11   , En3 
	.byte	W12
	.byte		        En2 
	.byte		N11   , An2 
	.byte	W12
	.byte		        En2 
	.byte		N11   , An2 
	.byte	W12
	.byte	PEND
@ 045   ----------------------------------------
Blazing_Fast_Battle_Divine_Protection_Required_2_045:
	.byte		N11   , Fn2 , v080
	.byte		N11   , Bn2 
	.byte		N11   , Fn3 
	.byte	W12
	.byte		        Fn2 , v084
	.byte		N11   , Bn2 
	.byte		N11   , Fn3 
	.byte	W12
	.byte		        Fn2 , v088
	.byte		N11   , Bn2 
	.byte	W12
	.byte		        Fn2 
	.byte		N11   , Bn2 
	.byte	W12
	.byte		        Fn2 , v092
	.byte		N11   , Bn2 
	.byte	W12
	.byte		        Fn2 , v096
	.byte		N11   , Bn2 
	.byte	W12
	.byte	PEND
@ 046   ----------------------------------------
Blazing_Fast_Battle_Divine_Protection_Required_2_046:
	.byte		N11   , As1 , v096
	.byte		N11   , Fn2 
	.byte		N11   , As2 
	.byte	W36
	.byte		        As1 
	.byte		N11   , Fn2 
	.byte		N11   , As2 
	.byte	W36
	.byte		        Bn1 
	.byte		N11   , Fs2 
	.byte		N11   , Bn2 
	.byte	W24
	.byte		        Bn1 
	.byte		N11   , Fs2 
	.byte		N11   , Bn2 
	.byte	W24
	.byte	PEND
@ 047   ----------------------------------------
	.byte	PATT
	 .word	Blazing_Fast_Battle_Divine_Protection_Required_2_046
@ 048   ----------------------------------------
Blazing_Fast_Battle_Divine_Protection_Required_2_048:
	.byte		N11   , As1 , v096
	.byte		N11   , Fn2 
	.byte		N11   , As2 
	.byte	W36
	.byte		        As1 
	.byte		N11   , Fn2 
	.byte		N11   , As2 
	.byte	W36
	.byte		        Bn1 
	.byte		N11   , Fs2 
	.byte		N11   , Bn2 
	.byte	W24
	.byte		        Bn1 
	.byte		N11   , Fs2 
	.byte		N11   , Bn2 
	.byte	W24
	.byte		        Bn1 
	.byte		N11   , Fs2 
	.byte		N11   , Bn2 
	.byte	W24
	.byte	PEND
@ 049   ----------------------------------------
	.byte	PATT
	 .word	Blazing_Fast_Battle_Divine_Protection_Required_2_048
@ 050   ----------------------------------------
Blazing_Fast_Battle_Divine_Protection_Required_2_050:
	.byte		N11   , As1 , v096
	.byte		N11   , Fn2 
	.byte		N11   , As2 
	.byte	W12
	.byte		        As1 
	.byte		N11   , Fn2 
	.byte		N11   , As2 
	.byte	W12
	.byte		        As1 
	.byte		N11   , Fn2 
	.byte		N11   , As2 
	.byte	W12
	.byte		        As1 
	.byte		N11   , Fn2 
	.byte		N11   , As2 
	.byte	W12
	.byte		        As1 
	.byte		N11   , Fn2 
	.byte		N11   , As2 
	.byte	W12
	.byte		        As1 
	.byte		N11   , Fn2 
	.byte		N11   , As2 
	.byte	W12
	.byte	PEND
@ 051   ----------------------------------------
Blazing_Fast_Battle_Divine_Protection_Required_2_051:
	.byte		N11   , Cn2 , v096
	.byte		N11   , Fn2 
	.byte		N11   , Cn3 
	.byte	W12
	.byte		        Cn2 
	.byte		N11   , Fn2 
	.byte		N11   , Cn3 
	.byte	W12
	.byte		        Cn2 
	.byte		N11   , Fn2 
	.byte		N11   , Cn3 
	.byte	W12
	.byte		        Cn2 
	.byte		N11   , Fn2 
	.byte		N11   , Cn3 
	.byte	W12
	.byte		        Cn2 
	.byte		N11   , Fn2 
	.byte	W12
	.byte		        Cn2 
	.byte		N11   , Fn2 
	.byte	W12
	.byte	PEND
@ 052   ----------------------------------------
	.byte		        Cs2 
	.byte		N11   , Gn2 
	.byte		N11   , Cs3 
	.byte	W12
	.byte		        Cs2 , v100
	.byte		N11   , Gn2 
	.byte		N11   , Cs3 
	.byte	W12
	.byte		        Cs2 , v104
	.byte		N11   , Gn2 
	.byte	W12
	.byte		        Cs2 , v108
	.byte		N11   , Gn2 
	.byte	W12
	.byte		        Cs2 , v112
	.byte		N11   , Gn2 
	.byte	W12
	.byte		        Cs2 
	.byte		N11   , Gn2 
	.byte	W12
@ 053   ----------------------------------------
	.byte	W72
@ 054   ----------------------------------------
	.byte	W96
	.byte	W24
@ 055   ----------------------------------------
Blazing_Fast_Battle_Divine_Protection_Required_2_055:
	.byte		TIE   , Fn1 , v080
	.byte		TIE   , As1 
	.byte	W96
	.byte	PEND
@ 056   ----------------------------------------
	.byte	W44
	.byte	W03
	.byte		EOT   , Fn1 
	.byte		        As1 
	.byte	W01
	.byte		N44   , Fs1 
	.byte		N44   , Bn1 
	.byte	W48
@ 057   ----------------------------------------
	.byte	PATT
	 .word	Blazing_Fast_Battle_Divine_Protection_Required_2_055
@ 058   ----------------------------------------
	.byte	W44
	.byte	W03
	.byte		EOT   , Fn1 
	.byte		        As1 
	.byte	W01
	.byte		N44   , Fs1 , v080
	.byte		N44   , Bn1 
	.byte	W48
@ 059   ----------------------------------------
Blazing_Fast_Battle_Divine_Protection_Required_2_059:
	.byte		N11   , Fn1 , v080
	.byte		N11   , As1 
	.byte		N11   , Fn2 
	.byte	W12
	.byte		        Fn1 
	.byte		N11   , As1 
	.byte		N11   , Fn2 
	.byte	W12
	.byte		        Fn1 
	.byte		N11   , As1 
	.byte	W12
	.byte		        Fn1 
	.byte		N11   , As1 
	.byte		N11   , Fn2 
	.byte	W12
	.byte		        Fn1 
	.byte		N11   , As1 
	.byte		N11   , Fn2 
	.byte	W12
	.byte		        Fn1 
	.byte		N11   , As1 
	.byte	W12
	.byte		        Fn1 
	.byte		N11   , As1 
	.byte		N11   , Fn2 
	.byte	W12
	.byte		        Fn1 
	.byte		N11   , As1 
	.byte		N11   , Fn2 
	.byte	W12
	.byte	PEND
@ 060   ----------------------------------------
Blazing_Fast_Battle_Divine_Protection_Required_2_060:
	.byte		N11   , Fn1 , v080
	.byte		N11   , As1 
	.byte	W12
	.byte		        Fn1 
	.byte		N11   , As1 
	.byte		N11   , Fn2 
	.byte	W12
	.byte		        Fn1 
	.byte		N11   , As1 
	.byte		N11   , Fn2 
	.byte	W12
	.byte		        Fn1 
	.byte		N11   , As1 
	.byte	W12
	.byte		        Fs1 
	.byte		N11   , Bn1 
	.byte		N11   , Fs2 
	.byte	W12
	.byte		        Fs1 
	.byte		N11   , Bn1 
	.byte		N11   , Fs2 
	.byte	W12
	.byte		        Fs1 
	.byte		N11   , Bn1 
	.byte	W12
	.byte		        Fs1 
	.byte		N11   , Bn1 
	.byte		N11   , Fs2 
	.byte	W12
	.byte	PEND
@ 061   ----------------------------------------
	.byte	PATT
	 .word	Blazing_Fast_Battle_Divine_Protection_Required_2_059
@ 062   ----------------------------------------
	.byte	PATT
	 .word	Blazing_Fast_Battle_Divine_Protection_Required_2_060
@ 063   ----------------------------------------
Blazing_Fast_Battle_Divine_Protection_Required_2_063:
	.byte		N11   , Fn1 , v052
	.byte		N11   , As1 
	.byte		N11   , Fn2 
	.byte	W36
	.byte		        Fn1 
	.byte		N11   , As1 
	.byte		N11   , Fn2 
	.byte	W36
	.byte		        Fn1 
	.byte		N11   , As1 
	.byte		N11   , Fn2 
	.byte	W24
	.byte	PEND
@ 064   ----------------------------------------
Blazing_Fast_Battle_Divine_Protection_Required_2_064:
	.byte		N11   , Fs1 , v052
	.byte		N11   , Bn1 
	.byte		N11   , Fs2 
	.byte	W36
	.byte		        Fs1 
	.byte		N11   , Bn1 
	.byte		N11   , Fs2 
	.byte	W36
	.byte		        Fs1 
	.byte		N11   , Bn1 
	.byte		N11   , Fs2 
	.byte	W24
	.byte	PEND
@ 065   ----------------------------------------
	.byte	PATT
	 .word	Blazing_Fast_Battle_Divine_Protection_Required_2_063
@ 066   ----------------------------------------
	.byte	PATT
	 .word	Blazing_Fast_Battle_Divine_Protection_Required_2_064
@ 067   ----------------------------------------
	.byte	PATT
	 .word	Blazing_Fast_Battle_Divine_Protection_Required_2_063
@ 068   ----------------------------------------
	.byte	PATT
	 .word	Blazing_Fast_Battle_Divine_Protection_Required_2_064
@ 069   ----------------------------------------
Blazing_Fast_Battle_Divine_Protection_Required_2_069:
	.byte		N15   , As1 , v096
	.byte	W16
	.byte		        As2 
	.byte	W16
	.byte		        Fn2 
	.byte	W16
	.byte		N11   , As1 
	.byte	W24
	.byte		        As2 
	.byte	W24
	.byte	PEND
@ 070   ----------------------------------------
Blazing_Fast_Battle_Divine_Protection_Required_2_070:
	.byte		N15   , Bn1 , v096
	.byte	W16
	.byte		        Bn2 
	.byte	W16
	.byte		        Fs2 
	.byte	W16
	.byte		N11   , Bn1 
	.byte	W24
	.byte		        Bn2 
	.byte	W24
	.byte	PEND
@ 071   ----------------------------------------
Blazing_Fast_Battle_Divine_Protection_Required_2_071:
	.byte		N15   , Cn2 , v096
	.byte	W16
	.byte		        Cn3 
	.byte	W16
	.byte		        Gn2 
	.byte	W16
	.byte		N11   , Cn2 
	.byte	W24
	.byte		        Cn3 
	.byte	W24
	.byte	PEND
@ 072   ----------------------------------------
	.byte	PATT
	 .word	Blazing_Fast_Battle_Divine_Protection_Required_2_070
@ 073   ----------------------------------------
	.byte	PATT
	 .word	Blazing_Fast_Battle_Divine_Protection_Required_2_069
@ 074   ----------------------------------------
	.byte	PATT
	 .word	Blazing_Fast_Battle_Divine_Protection_Required_2_070
@ 075   ----------------------------------------
	.byte	PATT
	 .word	Blazing_Fast_Battle_Divine_Protection_Required_2_071
@ 076   ----------------------------------------
	.byte	PATT
	 .word	Blazing_Fast_Battle_Divine_Protection_Required_2_070
@ 077   ----------------------------------------
	.byte		N23   , As1 , v096
	.byte	W24
	.byte		N11   , As1 , v088
	.byte	W24
	.byte		        As1 , v080
	.byte	W24
	.byte		        As1 , v072
	.byte	W24
@ 078   ----------------------------------------
Blazing_Fast_Battle_Divine_Protection_Required_2_078:
	.byte		N11   , Bn1 , v064
	.byte		N11   , Fs2 
	.byte	W24
	.byte		        Bn1 
	.byte	W12
	.byte		N11   
	.byte	W12
	.byte		N11   
	.byte		N11   , Fs2 
	.byte	W24
	.byte		        Bn1 
	.byte		N11   , Fs2 
	.byte	W24
	.byte	PEND
@ 079   ----------------------------------------
Blazing_Fast_Battle_Divine_Protection_Required_2_079:
	.byte		N11   , As1 , v064
	.byte		N11   , Fn2 
	.byte	W24
	.byte		        As1 
	.byte	W12
	.byte		N11   
	.byte	W12
	.byte		N11   
	.byte		N11   , Fn2 
	.byte	W24
	.byte		        As1 
	.byte		N11   , Fn2 
	.byte	W24
	.byte	PEND
@ 080   ----------------------------------------
	.byte	PATT
	 .word	Blazing_Fast_Battle_Divine_Protection_Required_2_078
@ 081   ----------------------------------------
	.byte	PATT
	 .word	Blazing_Fast_Battle_Divine_Protection_Required_2_079
@ 082   ----------------------------------------
	.byte	PATT
	 .word	Blazing_Fast_Battle_Divine_Protection_Required_2_078
@ 083   ----------------------------------------
	.byte		N11   , Ds2 , v064
	.byte		N11   , As2 
	.byte	W24
	.byte		        Ds2 
	.byte	W12
	.byte		N11   
	.byte	W12
	.byte		N11   
	.byte		N11   , As2 
	.byte	W12
	.byte		        Ds2 
	.byte	W12
	.byte		N11   
	.byte	W12
@ 084   ----------------------------------------
	.byte		        Cn2 
	.byte		N11   , Gn2 
	.byte	W36
	.byte		        Cn2 
	.byte		N11   , Gn2 
	.byte	W36
	.byte		        Cn2 
	.byte		N11   , Gn2 
	.byte	W24
	.byte		        Cn2 
	.byte		N11   , Gn2 
	.byte	W24
@ 085   ----------------------------------------
	.byte		        Fn2 
	.byte		N11   , Cn3 
	.byte	W36
	.byte		        Fn2 
	.byte		N11   , Cn3 
	.byte	W36
	.byte		        Fn2 
	.byte		N11   , Cn3 
	.byte	W24
	.byte		        Fn2 
	.byte		N11   , Cn3 
	.byte	W24
@ 086   ----------------------------------------
	.byte		        Fs2 
	.byte		N11   , Cs3 
	.byte	W36
	.byte		        Fs2 
	.byte		N11   , Cs3 
	.byte	W36
	.byte		        Ds2 
	.byte		N11   , As2 
	.byte	W24
	.byte		        Ds2 
	.byte		N11   , As2 
	.byte	W24
@ 087   ----------------------------------------
	.byte		        Fn2 
	.byte		N11   , As2 
	.byte	W36
	.byte		        Fn2 
	.byte		N11   , As2 
	.byte	W36
	.byte		        Fn2 
	.byte		N11   , Cn3 
	.byte	W24
	.byte		        Fn2 
	.byte		N11   , Cn3 
	.byte	W24
@ 088   ----------------------------------------
	.byte		N68   , As1 
	.byte		N68   , Fn2 
	.byte		N68   , As2 
	.byte	W72
	.byte		N44   , Cs2 
	.byte		N44   , Fs2 
	.byte		N44   , Cs3 
	.byte	W48
@ 089   ----------------------------------------
	.byte		N68   , As1 
	.byte		N68   , Fn2 
	.byte		N68   , As2 
	.byte	W72
	.byte		N44   , An1 
	.byte		N44   , Ds2 
	.byte		N44   , An2 
	.byte	W48
@ 090   ----------------------------------------
	.byte		N68   , As1 
	.byte		N68   , Fn2 
	.byte		N68   , As2 
	.byte	W72
	.byte		N44   , Bn1 
	.byte		N44   , Fs2 
	.byte		N44   , Bn2 
	.byte	W48
@ 091   ----------------------------------------
	.byte		        As1 
	.byte		N44   , Fn2 
	.byte		N44   , As2 
	.byte	W48
@ 092   ----------------------------------------
	.byte		N32   , As1 
	.byte		N32   , Ds2 
	.byte		N32   , As2 
	.byte	W36
	.byte		N23   , As1 
	.byte		N23   , Fn2 
	.byte		N23   , As2 
	.byte	W24
@ 093   ----------------------------------------
	.byte		N32   , As1 
	.byte		N32   , Ds2 
	.byte		N32   , As2 
	.byte	W36
	.byte		N11   , Cn2 
	.byte		N11   , Gn2 
	.byte		N11   , Cn3 
	.byte	W24
@ 094   ----------------------------------------
	.byte		N32   , As1 
	.byte		N32   , Fn2 
	.byte		N32   , As2 
	.byte	W36
	.byte		        As1 , v068
	.byte		N32   , Fn2 
	.byte		N32   , As2 
	.byte	W36
@ 095   ----------------------------------------
	.byte		        As1 
	.byte		N32   , Fn2 
	.byte		N32   , As2 
	.byte	W36
	.byte		        As1 , v072
	.byte		N32   , Fn2 
	.byte		N32   , As2 
	.byte	W36
@ 096   ----------------------------------------
	.byte		        As1 
	.byte		N32   , Fn2 
	.byte		N32   , As2 
	.byte	W36
	.byte		N23   , Bn1 , v076
	.byte		N23   , Fs2 
	.byte		N23   , Bn2 
	.byte	W36
@ 097   ----------------------------------------
	.byte		        Cs2 
	.byte		N23   , Gn2 
	.byte		N23   , Cs3 
	.byte	W36
	.byte		N32   , Cn2 , v080
	.byte		N32   , Fn2 
	.byte		N32   , Cn3 
	.byte	W36
@ 098   ----------------------------------------
	.byte		TIE   , As1 
	.byte		TIE   , Fn2 
	.byte		TIE   , As2 
	.byte	W96
@ 099   ----------------------------------------
	.byte	W96
@ 100   ----------------------------------------
	.byte	W96
@ 101   ----------------------------------------
	.byte	W68
	.byte	W03
	.byte		EOT   , As1 
	.byte		        Fn2 
	.byte		        As2 
	.byte	W01
	.byte		N23   , Cn2 , v052
	.byte		N23   , Gn2 
	.byte		N23   , Cn3 
	.byte	W24
@ 102   ----------------------------------------
	.byte		TIE   , Dn2 
	.byte		TIE   , An2 
	.byte		TIE   , Dn3 
	.byte	W96
@ 103   ----------------------------------------
	.byte	W96
@ 104   ----------------------------------------
	.byte	W96
@ 105   ----------------------------------------
	.byte	W92
	.byte	W03
	.byte		EOT   , Dn2 
	.byte		        An2 
	.byte		        Dn3 
	.byte	W01
@ 106   ----------------------------------------
Blazing_Fast_Battle_Divine_Protection_Required_2_106:
	.byte		N11   , Dn2 , v052
	.byte		N11   , Gn2 
	.byte		N11   , Dn3 
	.byte	W36
	.byte		        Dn2 
	.byte		N11   , Gn2 
	.byte		N11   , Dn3 
	.byte	W36
	.byte		        Ds2 
	.byte		N11   , Gs2 
	.byte		N11   , Ds3 
	.byte	W24
	.byte		        Ds2 
	.byte		N11   , Gs2 
	.byte		N11   , Ds3 
	.byte	W24
	.byte	PEND
@ 107   ----------------------------------------
	.byte	PATT
	 .word	Blazing_Fast_Battle_Divine_Protection_Required_2_106
@ 108   ----------------------------------------
	.byte		N11   , Dn2 , v052
	.byte		N11   , Gn2 
	.byte		N11   , Dn3 
	.byte	W36
	.byte		        Dn2 
	.byte		N11   , Gn2 
	.byte		N11   , Dn3 
	.byte	W36
	.byte		        Ds2 
	.byte		N11   , Gs2 
	.byte		N11   , Ds3 
	.byte	W24
	.byte		        Ds2 , v056
	.byte		N11   , Gs2 
	.byte		N11   , Ds3 
	.byte	W24
	.byte		        Ds2 
	.byte		N11   , Gs2 
	.byte		N11   , Ds3 
	.byte	W24
@ 109   ----------------------------------------
	.byte		        Dn2 
	.byte		N11   , Gn2 
	.byte		N11   , Dn3 
	.byte	W36
	.byte		        Dn2 
	.byte		N11   , Gn2 
	.byte		N11   , Dn3 
	.byte	W36
	.byte		        Ds2 
	.byte		N11   , Gs2 
	.byte		N11   , Ds3 
	.byte	W24
	.byte		        Ds2 
	.byte		N11   , Gs2 
	.byte		N11   , Ds3 
	.byte	W24
	.byte		        Ds2 
	.byte		N11   , Gs2 
	.byte		N11   , Ds3 
	.byte	W24
@ 110   ----------------------------------------
	.byte		        Dn2 
	.byte		N11   , Gn2 
	.byte		N11   , Dn3 
	.byte	W12
	.byte		        Dn2 
	.byte		N11   , Gn2 
	.byte		N11   , Dn3 
	.byte	W12
	.byte		        Dn2 
	.byte		N11   , Gn2 
	.byte		N11   , Dn3 
	.byte	W12
	.byte		        Dn2 
	.byte		N11   , Gn2 
	.byte		N11   , Dn3 
	.byte	W12
	.byte		        Dn2 
	.byte		N11   , Gn2 
	.byte		N11   , Dn3 
	.byte	W12
	.byte		        Dn2 
	.byte		N11   , Gn2 
	.byte		N11   , Dn3 
	.byte	W12
@ 111   ----------------------------------------
	.byte		        Dn2 
	.byte		N11   , An2 
	.byte		N11   , Dn3 
	.byte	W12
	.byte		        Dn2 , v060
	.byte		N11   , An2 
	.byte		N11   , Dn3 
	.byte	W12
	.byte		        Dn2 
	.byte		N11   , An2 
	.byte		N11   , Dn3 
	.byte	W12
	.byte		        Dn2 
	.byte		N11   , An2 
	.byte		N11   , Dn3 
	.byte	W12
	.byte		        Dn2 
	.byte		N11   , An2 
	.byte	W12
	.byte		        Dn2 
	.byte		N11   , An2 
	.byte	W12
@ 112   ----------------------------------------
	.byte		        As1 
	.byte		N11   , En2 
	.byte		N11   , As2 
	.byte	W12
	.byte		        As1 
	.byte		N11   , En2 
	.byte		N11   , As2 
	.byte	W12
	.byte		        As1 
	.byte		N11   , En2 
	.byte		N11   , As2 
	.byte	W12
	.byte		        As1 
	.byte		N11   , En2 
	.byte		N11   , As2 
	.byte	W12
	.byte		        As1 
	.byte		N11   , En2 
	.byte		N11   , As2 
	.byte	W12
	.byte		        As1 
	.byte		N11   , En2 
	.byte		N11   , As2 
	.byte	W12
@ 113   ----------------------------------------
	.byte		        Cn2 
	.byte		N11   , Fn2 
	.byte		N11   , Cn3 
	.byte	W36
	.byte		        Cn2 
	.byte		N11   , Fn2 
	.byte		N11   , Cn3 
	.byte	W36
	.byte		        Cs2 
	.byte		N11   , Fs2 
	.byte		N11   , Cs3 
	.byte	W24
	.byte		        Cs2 
	.byte		N11   , Fs2 
	.byte		N11   , Cs3 
	.byte	W24
@ 114   ----------------------------------------
	.byte		        Cn2 
	.byte		N11   , Fn2 
	.byte		N11   , Cn3 
	.byte	W36
	.byte		        Cn2 , v064
	.byte		N11   , Fn2 
	.byte		N11   , Cn3 
	.byte	W36
	.byte		        Cs2 
	.byte		N11   , Fs2 
	.byte		N11   , Cs3 
	.byte	W24
	.byte		        Cs2 
	.byte		N11   , Fs2 
	.byte		N11   , Cs3 
	.byte	W24
@ 115   ----------------------------------------
	.byte		        Cn2 
	.byte		N11   , Fn2 
	.byte		N11   , Cn3 
	.byte	W36
	.byte		        Cn2 
	.byte		N11   , Fn2 
	.byte		N11   , Cn3 
	.byte	W36
	.byte		        Cs2 
	.byte		N11   , Fs2 
	.byte		N11   , Cs3 
	.byte	W24
	.byte		        Cs2 
	.byte		N11   , Fs2 
	.byte		N11   , Cs3 
	.byte	W24
	.byte		        Cs2 
	.byte		N11   , Fs2 
	.byte		N11   , Cs3 
	.byte	W24
@ 116   ----------------------------------------
	.byte		        Cn2 
	.byte		N11   , Fn2 
	.byte		N11   , Cn3 
	.byte	W36
	.byte		        Cn2 
	.byte		N11   , Fn2 
	.byte		N11   , Cn3 
	.byte	W36
	.byte		        Cs2 , v068
	.byte		N11   , Fs2 
	.byte		N11   , Cs3 
	.byte	W24
	.byte		        Cs2 
	.byte		N11   , Fs2 
	.byte		N11   , Cs3 
	.byte	W24
	.byte		        Cs2 
	.byte		N11   , Fs2 
	.byte		N11   , Cs3 
	.byte	W24
@ 117   ----------------------------------------
	.byte		        Cn2 
	.byte		N11   , Fn2 
	.byte		N11   , Cn3 
	.byte	W12
	.byte		        Cn2 
	.byte		N11   , Fn2 
	.byte		N11   , Cn3 
	.byte	W12
	.byte		        Cn2 
	.byte		N11   , Fn2 
	.byte		N11   , Cn3 
	.byte	W12
	.byte		        Cn2 
	.byte		N11   , Fn2 
	.byte		N11   , Cn3 
	.byte	W12
	.byte		        Cn2 
	.byte		N11   , Fn2 
	.byte		N11   , Cn3 
	.byte	W12
	.byte		        Cn2 
	.byte		N11   , Fn2 
	.byte		N11   , Cn3 
	.byte	W12
@ 118   ----------------------------------------
	.byte		        Cn2 
	.byte		N11   , Gn2 
	.byte		N11   , Cn3 
	.byte	W12
	.byte		        Cn2 
	.byte		N11   , Gn2 
	.byte		N11   , Cn3 
	.byte	W12
	.byte		        Cn2 
	.byte		N11   , Gn2 
	.byte		N11   , Cn3 
	.byte	W12
	.byte		        Cn2 
	.byte		N11   , Gn2 
	.byte		N11   , Cn3 
	.byte	W12
	.byte		        Cn2 
	.byte		N11   , Gn2 
	.byte	W12
	.byte		        Cn2 
	.byte		N11   , Gn2 
	.byte	W12
@ 119   ----------------------------------------
	.byte		        Gs1 
	.byte		N11   , Dn2 
	.byte		N11   , Gs2 
	.byte	W12
	.byte		        Gs1 
	.byte		N11   , Dn2 
	.byte		N11   , Gs2 
	.byte	W12
	.byte		        Gs1 
	.byte		N11   , Dn2 
	.byte		N11   , Gs2 
	.byte	W12
	.byte		        Gs1 
	.byte		N11   , Dn2 
	.byte		N11   , Gs2 
	.byte	W12
	.byte		        Gs1 , v072
	.byte		N11   , Dn2 
	.byte		N11   , Gs2 
	.byte	W12
	.byte		        Gs1 
	.byte		N11   , Dn2 
	.byte		N11   , Gs2 
	.byte	W12
@ 120   ----------------------------------------
Blazing_Fast_Battle_Divine_Protection_Required_2_120:
	.byte		N11   , Bn1 , v072
	.byte		N11   , En2 
	.byte		N11   , Bn2 
	.byte	W36
	.byte		        Bn1 
	.byte		N11   , En2 
	.byte		N11   , Bn2 
	.byte	W36
	.byte		        Cn2 
	.byte		N11   , Fn2 
	.byte		N11   , Cn3 
	.byte	W24
	.byte		        Cn2 
	.byte		N11   , Fn2 
	.byte		N11   , Cn3 
	.byte	W24
	.byte	PEND
@ 121   ----------------------------------------
	.byte	PATT
	 .word	Blazing_Fast_Battle_Divine_Protection_Required_2_120
@ 122   ----------------------------------------
	.byte		N11   , Bn1 , v072
	.byte		N11   , En2 
	.byte		N11   , Bn2 
	.byte	W36
	.byte		        Bn1 , v076
	.byte		N11   , En2 
	.byte		N11   , Bn2 
	.byte	W36
	.byte		        Cn2 
	.byte		N11   , Fn2 
	.byte		N11   , Cn3 
	.byte	W24
	.byte		        Cn2 
	.byte		N11   , Fn2 
	.byte		N11   , Cn3 
	.byte	W24
	.byte		        Cn2 
	.byte		N11   , Fn2 
	.byte		N11   , Cn3 
	.byte	W24
@ 123   ----------------------------------------
	.byte		        Bn1 
	.byte		N11   , En2 
	.byte		N11   , Bn2 
	.byte	W36
	.byte		        Bn1 
	.byte		N11   , En2 
	.byte		N11   , Bn2 
	.byte	W36
	.byte		        Cn2 
	.byte		N11   , Fn2 
	.byte		N11   , Cn3 
	.byte	W24
	.byte		        Cn2 
	.byte		N11   , Fn2 
	.byte		N11   , Cn3 
	.byte	W24
	.byte		        Cn2 
	.byte		N11   , Fn2 
	.byte		N11   , Cn3 
	.byte	W24
@ 124   ----------------------------------------
	.byte		        Bn1 
	.byte		N11   , En2 
	.byte		N11   , Bn2 
	.byte	W12
	.byte		        Bn1 , v080
	.byte		N11   , En2 
	.byte		N11   , Bn2 
	.byte	W12
	.byte		        Bn1 
	.byte		N11   , En2 
	.byte		N11   , Bn2 
	.byte	W12
	.byte		        Bn1 
	.byte		N11   , En2 
	.byte		N11   , Bn2 
	.byte	W12
	.byte		        Bn1 
	.byte		N11   , En2 
	.byte		N11   , Bn2 
	.byte	W12
	.byte		        Bn1 
	.byte		N11   , En2 
	.byte		N11   , Bn2 
	.byte	W12
@ 125   ----------------------------------------
	.byte		        Bn1 
	.byte		N11   , Fs2 
	.byte		N11   , Bn2 
	.byte	W12
	.byte		        Bn1 
	.byte		N11   , Fs2 
	.byte		N11   , Bn2 
	.byte	W12
	.byte		        Bn1 
	.byte		N11   , Fs2 
	.byte		N11   , Bn2 
	.byte	W12
	.byte		        Bn1 
	.byte		N11   , Fs2 
	.byte		N11   , Bn2 
	.byte	W12
	.byte		        Bn1 
	.byte		N11   , Fs2 
	.byte	W12
	.byte		        Bn1 
	.byte		N11   , Fs2 
	.byte	W12
@ 126   ----------------------------------------
	.byte	PATT
	 .word	Blazing_Fast_Battle_Divine_Protection_Required_2_031
@ 127   ----------------------------------------
	.byte	PATT
	 .word	Blazing_Fast_Battle_Divine_Protection_Required_2_032
@ 128   ----------------------------------------
	.byte	PATT
	 .word	Blazing_Fast_Battle_Divine_Protection_Required_2_032
@ 129   ----------------------------------------
	.byte	PATT
	 .word	Blazing_Fast_Battle_Divine_Protection_Required_2_034
@ 130   ----------------------------------------
	.byte	PATT
	 .word	Blazing_Fast_Battle_Divine_Protection_Required_2_034
@ 131   ----------------------------------------
	.byte	PATT
	 .word	Blazing_Fast_Battle_Divine_Protection_Required_2_036
@ 132   ----------------------------------------
	.byte	PATT
	 .word	Blazing_Fast_Battle_Divine_Protection_Required_2_037
@ 133   ----------------------------------------
	.byte	PATT
	 .word	Blazing_Fast_Battle_Divine_Protection_Required_2_038
@ 134   ----------------------------------------
	.byte	PATT
	 .word	Blazing_Fast_Battle_Divine_Protection_Required_2_039
@ 135   ----------------------------------------
	.byte	PATT
	 .word	Blazing_Fast_Battle_Divine_Protection_Required_2_039
@ 136   ----------------------------------------
	.byte	PATT
	 .word	Blazing_Fast_Battle_Divine_Protection_Required_2_041
@ 137   ----------------------------------------
	.byte	PATT
	 .word	Blazing_Fast_Battle_Divine_Protection_Required_2_041
@ 138   ----------------------------------------
	.byte	PATT
	 .word	Blazing_Fast_Battle_Divine_Protection_Required_2_043
@ 139   ----------------------------------------
	.byte	PATT
	 .word	Blazing_Fast_Battle_Divine_Protection_Required_2_044
@ 140   ----------------------------------------
	.byte	PATT
	 .word	Blazing_Fast_Battle_Divine_Protection_Required_2_045
@ 141   ----------------------------------------
	.byte	PATT
	 .word	Blazing_Fast_Battle_Divine_Protection_Required_2_046
@ 142   ----------------------------------------
	.byte	PATT
	 .word	Blazing_Fast_Battle_Divine_Protection_Required_2_046
@ 143   ----------------------------------------
	.byte	PATT
	 .word	Blazing_Fast_Battle_Divine_Protection_Required_2_048
@ 144   ----------------------------------------
	.byte	PATT
	 .word	Blazing_Fast_Battle_Divine_Protection_Required_2_048
@ 145   ----------------------------------------
	.byte	PATT
	 .word	Blazing_Fast_Battle_Divine_Protection_Required_2_050
@ 146   ----------------------------------------
	.byte	PATT
	 .word	Blazing_Fast_Battle_Divine_Protection_Required_2_051
@ 147   ----------------------------------------
	.byte		N11   , Cs2 , v096
	.byte		N11   , Gn2 
	.byte		N11   , Cs3 
	.byte	W12
	.byte		        Cs2 
	.byte		N11   , Gn2 
	.byte		N11   , Cs3 
	.byte	W12
	.byte		        Cs2 
	.byte		N11   , Gn2 
	.byte	W12
	.byte		        Cs2 
	.byte		N11   , Gn2 
	.byte	W12
	.byte		        Cs2 
	.byte		N11   , Gn2 
	.byte	W12
	.byte		        Cs2 
	.byte		N11   , Gn2 
	.byte	W12
@ 148   ----------------------------------------
	.byte		        An1 
	.byte		N11   , En2 
	.byte		N11   , An2 
	.byte	W36
	.byte		        An1 
	.byte		N11   , En2 
	.byte		N11   , An2 
	.byte	W36
	.byte		        As1 
	.byte		N11   , Fn2 
	.byte		N11   , As2 
	.byte	W24
	.byte		        As1 
	.byte		N11   , Fn2 
	.byte		N11   , As2 
	.byte	W24
@ 149   ----------------------------------------
	.byte	PATT
	 .word	Blazing_Fast_Battle_Divine_Protection_Required_2_046
@ 150   ----------------------------------------
Blazing_Fast_Battle_Divine_Protection_Required_2_150:
	.byte		N11   , An1 , v096
	.byte		N11   , En2 
	.byte		N11   , An2 
	.byte	W36
	.byte		        As1 
	.byte		N11   , Fn2 
	.byte		N11   , As2 
	.byte	W24
	.byte	PEND
@ 151   ----------------------------------------
Blazing_Fast_Battle_Divine_Protection_Required_2_151:
	.byte		N11   , As1 , v096
	.byte		N11   , Fn2 
	.byte		N11   , As2 
	.byte	W36
	.byte		        Bn1 
	.byte		N11   , Fs2 
	.byte		N11   , Bn2 
	.byte	W24
	.byte	PEND
@ 152   ----------------------------------------
	.byte	PATT
	 .word	Blazing_Fast_Battle_Divine_Protection_Required_2_150
@ 153   ----------------------------------------
	.byte	PATT
	 .word	Blazing_Fast_Battle_Divine_Protection_Required_2_151
@ 154   ----------------------------------------
Blazing_Fast_Battle_Divine_Protection_Required_2_154:
	.byte		N11   , As1 , v096
	.byte		N11   , Fn2 
	.byte		N11   , As2 
	.byte	W12
	.byte		        As1 
	.byte		N11   , Fn2 
	.byte		N11   , As2 
	.byte	W12
	.byte		        Bn1 
	.byte		N11   , Fs2 
	.byte		N11   , Bn2 
	.byte	W12
	.byte		        Bn1 
	.byte		N11   , Fs2 
	.byte		N11   , Bn2 
	.byte	W12
	.byte		        As1 
	.byte		N11   , Fn2 
	.byte		N11   , As2 
	.byte	W12
	.byte		        As1 
	.byte		N11   , Fn2 
	.byte		N11   , As2 
	.byte	W12
	.byte	PEND
@ 155   ----------------------------------------
	.byte		        Bn1 
	.byte		N11   , Fs2 
	.byte		N11   , Bn2 
	.byte	W12
	.byte		        Bn1 
	.byte		N11   , Fs2 
	.byte		N11   , Bn2 
	.byte	W12
	.byte		        As1 
	.byte		N11   , Fn2 
	.byte		N11   , As2 
	.byte	W12
	.byte		        As1 
	.byte		N11   , Fn2 
	.byte		N11   , As2 
	.byte	W12
	.byte		        Bn1 
	.byte		N11   , Fs2 
	.byte		N11   , Bn2 
	.byte	W12
	.byte		        Bn1 
	.byte		N11   , Fs2 
	.byte		N11   , Bn2 
	.byte	W12
@ 156   ----------------------------------------
	.byte	PATT
	 .word	Blazing_Fast_Battle_Divine_Protection_Required_2_154
@ 157   ----------------------------------------
	.byte		N16   , Cn2 , v096
	.byte		N16   , Fn2 
	.byte		N16   , Cn3 
	.byte	W72
@ 158   ----------------------------------------
	.byte		N23   , Bn1 
	.byte		N23   , En2 
	.byte		N23   , Bn2 
	.byte	W72
@ 159   ----------------------------------------
	.byte	W96
@ 160   ----------------------------------------
	.byte	W96
	.byte	W24
@ 161   ----------------------------------------
	.byte		TIE   , An1 
	.byte		TIE   , En2 
	.byte		TIE   , An2 
	.byte	W96
	.byte	W48
@ 162   ----------------------------------------
	.byte	W96
	.byte	W44
	.byte	W03
	.byte		EOT   , An1 
	.byte		        En2 
	.byte		        An2 
	.byte	W01
@ 163   ----------------------------------------
	.byte		N23   , An1 , v116
	.byte		N23   , En2 
	.byte		N23   , An2 
	.byte	W44
	.byte	W03
	.byte	GOTO
	 .word	Blazing_Fast_Battle_Divine_Protection_Required_2_B1
Blazing_Fast_Battle_Divine_Protection_Required_2_B2:
	.byte	FINE

@**************** Track 3 (Midi-Chn.3) ****************@

Blazing_Fast_Battle_Divine_Protection_Required_3:
	.byte	KEYSH , Blazing_Fast_Battle_Divine_Protection_Required_key+0
Blazing_Fast_Battle_Divine_Protection_Required_3_B1:
@ 000   ----------------------------------------
	.byte		VOICE , 36
	.byte		VOL   , 127*Blazing_Fast_Battle_Divine_Protection_Required_mvl/mxv
	.byte		PAN   , c_v+0
	.byte		N68   , An1 , v080
	.byte		N68   , En2 
	.byte		N68   , An2 
	.byte	W72
	.byte		N44   , As1 
	.byte		N44   , Fn2 
	.byte		N44   , As2 
	.byte	W48
@ 001   ----------------------------------------
Blazing_Fast_Battle_Divine_Protection_Required_3_001:
	.byte		N68   , An1 , v080
	.byte		N68   , En2 
	.byte		N68   , An2 
	.byte	W72
	.byte		N44   , As1 
	.byte		N44   , Fn2 
	.byte		N44   , As2 
	.byte	W48
	.byte	PEND
@ 002   ----------------------------------------
	.byte	PATT
	 .word	Blazing_Fast_Battle_Divine_Protection_Required_3_001
@ 003   ----------------------------------------
Blazing_Fast_Battle_Divine_Protection_Required_3_003:
	.byte		N15   , An1 , v080
	.byte	W16
	.byte		N15   
	.byte	W16
	.byte		N15   
	.byte	W16
	.byte	PEND
@ 004   ----------------------------------------
Blazing_Fast_Battle_Divine_Protection_Required_3_004:
	.byte		N15   , As1 , v080
	.byte	W16
	.byte		N15   
	.byte	W16
	.byte		N15   
	.byte	W16
	.byte	PEND
@ 005   ----------------------------------------
Blazing_Fast_Battle_Divine_Protection_Required_3_005:
	.byte		N15   , Ds2 , v080
	.byte	W16
	.byte		N15   
	.byte	W16
	.byte		N15   
	.byte	W16
	.byte	PEND
@ 006   ----------------------------------------
	.byte		        En2 
	.byte	W16
	.byte		N15   
	.byte	W16
	.byte		N15   
	.byte	W16
@ 007   ----------------------------------------
	.byte	PATT
	 .word	Blazing_Fast_Battle_Divine_Protection_Required_3_003
@ 008   ----------------------------------------
	.byte	PATT
	 .word	Blazing_Fast_Battle_Divine_Protection_Required_3_004
@ 009   ----------------------------------------
	.byte	PATT
	 .word	Blazing_Fast_Battle_Divine_Protection_Required_3_005
@ 010   ----------------------------------------
	.byte	W48
@ 011   ----------------------------------------
Blazing_Fast_Battle_Divine_Protection_Required_3_011:
	.byte		N11   , En2 , v080
	.byte	W12
	.byte		        Cn2 
	.byte	W12
	.byte		        An1 
	.byte	W12
	.byte		        En2 
	.byte	W12
	.byte		        Cn2 
	.byte	W12
	.byte		        An1 
	.byte	W12
	.byte		        As1 
	.byte		N11   , Fn2 
	.byte	W24
	.byte		        As1 
	.byte		N11   , Fn2 
	.byte	W24
	.byte	PEND
@ 012   ----------------------------------------
	.byte	PATT
	 .word	Blazing_Fast_Battle_Divine_Protection_Required_3_011
@ 013   ----------------------------------------
Blazing_Fast_Battle_Divine_Protection_Required_3_013:
	.byte		N11   , En2 , v080
	.byte	W24
	.byte		        An1 
	.byte	W12
	.byte		        En2 
	.byte	W24
	.byte		        An1 
	.byte	W12
	.byte		        As1 
	.byte		N11   , Fn2 
	.byte	W24
	.byte		        Dn2 
	.byte	W24
	.byte		        As1 
	.byte	W24
	.byte	PEND
@ 014   ----------------------------------------
	.byte	PATT
	 .word	Blazing_Fast_Battle_Divine_Protection_Required_3_013
@ 015   ----------------------------------------
	.byte		N11   , En2 , v080
	.byte	W24
	.byte		        Cn2 
	.byte	W24
	.byte		        An1 
	.byte	W24
@ 016   ----------------------------------------
	.byte		        Dn2 
	.byte	W24
	.byte		        Bn1 
	.byte	W24
	.byte		        En1 
	.byte	W24
@ 017   ----------------------------------------
	.byte		        Ds2 
	.byte	W24
	.byte		        Cn2 
	.byte	W24
	.byte		        An1 
	.byte	W24
@ 018   ----------------------------------------
Blazing_Fast_Battle_Divine_Protection_Required_3_018:
	.byte		N11   , Dn2 , v080
	.byte	W36
	.byte		N11   
	.byte	W36
	.byte		        Ds2 
	.byte	W24
	.byte		N11   
	.byte	W24
	.byte	PEND
@ 019   ----------------------------------------
	.byte	PATT
	 .word	Blazing_Fast_Battle_Divine_Protection_Required_3_018
@ 020   ----------------------------------------
Blazing_Fast_Battle_Divine_Protection_Required_3_020:
	.byte		N11   , Dn2 , v080
	.byte	W36
	.byte		N11   
	.byte	W36
	.byte		        Ds2 
	.byte	W24
	.byte		N11   
	.byte	W24
	.byte		N11   
	.byte	W24
	.byte	PEND
@ 021   ----------------------------------------
	.byte	PATT
	 .word	Blazing_Fast_Battle_Divine_Protection_Required_3_020
@ 022   ----------------------------------------
	.byte		N11   , Dn2 , v080
	.byte	W24
	.byte		N11   
	.byte	W24
	.byte		N11   
	.byte	W24
@ 023   ----------------------------------------
Blazing_Fast_Battle_Divine_Protection_Required_3_023:
	.byte		N11   , Cs2 , v080
	.byte	W24
	.byte		N11   
	.byte	W24
	.byte		N11   
	.byte	W24
	.byte	PEND
@ 024   ----------------------------------------
	.byte		        Bn1 
	.byte	W24
	.byte		N11   
	.byte	W24
	.byte		N11   
	.byte	W24
@ 025   ----------------------------------------
Blazing_Fast_Battle_Divine_Protection_Required_3_025:
	.byte		N11   , As1 , v080
	.byte	W36
	.byte		N11   
	.byte	W36
	.byte		        Bn1 
	.byte	W24
	.byte		N11   
	.byte	W24
	.byte	PEND
@ 026   ----------------------------------------
	.byte	PATT
	 .word	Blazing_Fast_Battle_Divine_Protection_Required_3_025
@ 027   ----------------------------------------
Blazing_Fast_Battle_Divine_Protection_Required_3_027:
	.byte		N11   , As1 , v080
	.byte	W36
	.byte		N11   
	.byte	W36
	.byte		        Bn1 
	.byte	W24
	.byte		N11   
	.byte	W24
	.byte		N11   
	.byte	W24
	.byte	PEND
@ 028   ----------------------------------------
	.byte	PATT
	 .word	Blazing_Fast_Battle_Divine_Protection_Required_3_027
@ 029   ----------------------------------------
	.byte		N11   , As1 , v080
	.byte	W24
	.byte		N11   
	.byte	W24
	.byte		N11   
	.byte	W24
@ 030   ----------------------------------------
	.byte		        An1 
	.byte	W24
	.byte		N11   
	.byte	W24
	.byte		N11   
	.byte	W24
@ 031   ----------------------------------------
	.byte		        Gn1 
	.byte	W24
	.byte		N11   
	.byte	W24
	.byte		N11   
	.byte	W24
@ 032   ----------------------------------------
Blazing_Fast_Battle_Divine_Protection_Required_3_032:
	.byte		N11   , An1 , v080
	.byte		N11   , En2 
	.byte	W36
	.byte		        An1 
	.byte		N11   , En2 
	.byte	W36
	.byte		        As1 
	.byte		N11   , Fn2 
	.byte	W24
	.byte		        As1 
	.byte		N11   , Fn2 
	.byte	W24
	.byte	PEND
@ 033   ----------------------------------------
	.byte	PATT
	 .word	Blazing_Fast_Battle_Divine_Protection_Required_3_032
@ 034   ----------------------------------------
Blazing_Fast_Battle_Divine_Protection_Required_3_034:
	.byte		N11   , An1 , v080
	.byte		N11   , En2 
	.byte	W36
	.byte		        An1 
	.byte		N11   , En2 
	.byte	W36
	.byte		        As1 
	.byte		N11   , Fn2 
	.byte	W24
	.byte		        As1 
	.byte		N11   , Fn2 
	.byte	W24
	.byte		        As1 
	.byte		N11   , Fn2 
	.byte	W24
	.byte	PEND
@ 035   ----------------------------------------
	.byte	PATT
	 .word	Blazing_Fast_Battle_Divine_Protection_Required_3_034
@ 036   ----------------------------------------
Blazing_Fast_Battle_Divine_Protection_Required_3_036:
	.byte		N11   , An1 , v080
	.byte		N11   , En2 
	.byte	W24
	.byte		        An1 
	.byte		N11   , En2 
	.byte	W24
	.byte		        An1 
	.byte		N11   , En2 
	.byte	W24
	.byte	PEND
@ 037   ----------------------------------------
Blazing_Fast_Battle_Divine_Protection_Required_3_037:
	.byte		N11   , Gs1 , v080
	.byte		N11   , Dn2 
	.byte	W24
	.byte		        Gs1 
	.byte		N11   , Dn2 
	.byte	W24
	.byte		        Gs1 
	.byte		N11   , Dn2 
	.byte	W24
	.byte	PEND
@ 038   ----------------------------------------
Blazing_Fast_Battle_Divine_Protection_Required_3_038:
	.byte		N11   , Fs1 , v080
	.byte		N11   , Cn2 
	.byte	W24
	.byte		        Fs1 
	.byte		N11   , Cn2 
	.byte	W24
	.byte		        Fs1 
	.byte		N11   , Cn2 
	.byte	W24
	.byte	PEND
@ 039   ----------------------------------------
Blazing_Fast_Battle_Divine_Protection_Required_3_039:
	.byte		N11   , Dn2 , v080
	.byte		N11   , An2 
	.byte	W36
	.byte		        Dn2 
	.byte		N11   , An2 
	.byte	W36
	.byte		        Ds2 
	.byte		N11   , As2 
	.byte	W24
	.byte		        Ds2 
	.byte		N11   , As2 
	.byte	W24
	.byte	PEND
@ 040   ----------------------------------------
	.byte	PATT
	 .word	Blazing_Fast_Battle_Divine_Protection_Required_3_039
@ 041   ----------------------------------------
Blazing_Fast_Battle_Divine_Protection_Required_3_041:
	.byte		N11   , Dn2 , v080
	.byte		N11   , An2 
	.byte	W36
	.byte		        Dn2 
	.byte		N11   , An2 
	.byte	W36
	.byte		        Ds2 
	.byte		N11   , As2 
	.byte	W24
	.byte		        Ds2 
	.byte		N11   , As2 
	.byte	W24
	.byte		        Ds2 
	.byte		N11   , As2 
	.byte	W24
	.byte	PEND
@ 042   ----------------------------------------
	.byte	PATT
	 .word	Blazing_Fast_Battle_Divine_Protection_Required_3_041
@ 043   ----------------------------------------
Blazing_Fast_Battle_Divine_Protection_Required_3_043:
	.byte		N11   , Dn2 , v080
	.byte		N11   , An2 
	.byte	W24
	.byte		        Dn2 
	.byte		N11   , An2 
	.byte	W24
	.byte		        Dn2 
	.byte		N11   , An2 
	.byte	W24
	.byte	PEND
@ 044   ----------------------------------------
Blazing_Fast_Battle_Divine_Protection_Required_3_044:
	.byte		N11   , Cs2 , v080
	.byte		N11   , Gn2 
	.byte	W24
	.byte		        Cs2 
	.byte		N11   , Gn2 
	.byte	W24
	.byte		        Cs2 
	.byte		N11   , Gn2 
	.byte	W24
	.byte	PEND
@ 045   ----------------------------------------
Blazing_Fast_Battle_Divine_Protection_Required_3_045:
	.byte		N11   , Bn1 , v080
	.byte		N11   , Fn2 
	.byte	W24
	.byte		        Bn1 , v088
	.byte		N11   , Fn2 
	.byte	W24
	.byte		        Bn1 , v092
	.byte		N11   , Fn2 
	.byte	W24
	.byte	PEND
@ 046   ----------------------------------------
Blazing_Fast_Battle_Divine_Protection_Required_3_046:
	.byte		N11   , As1 , v096
	.byte		N11   , Fn2 
	.byte	W36
	.byte		        As1 
	.byte		N11   , Fn2 
	.byte	W36
	.byte		        Bn1 
	.byte		N11   , Fs2 
	.byte	W24
	.byte		        Bn1 
	.byte		N11   , Fs2 
	.byte	W24
	.byte	PEND
@ 047   ----------------------------------------
	.byte	PATT
	 .word	Blazing_Fast_Battle_Divine_Protection_Required_3_046
@ 048   ----------------------------------------
Blazing_Fast_Battle_Divine_Protection_Required_3_048:
	.byte		N11   , As1 , v096
	.byte		N11   , Fn2 
	.byte	W36
	.byte		        As1 
	.byte		N11   , Fn2 
	.byte	W36
	.byte		        Bn1 
	.byte		N11   , Fs2 
	.byte	W24
	.byte		        Bn1 
	.byte		N11   , Fs2 
	.byte	W24
	.byte		        Bn1 
	.byte		N11   , Fs2 
	.byte	W24
	.byte	PEND
@ 049   ----------------------------------------
	.byte	PATT
	 .word	Blazing_Fast_Battle_Divine_Protection_Required_3_048
@ 050   ----------------------------------------
Blazing_Fast_Battle_Divine_Protection_Required_3_050:
	.byte		N11   , As1 , v096
	.byte		N11   , Fn2 
	.byte	W24
	.byte		        As1 
	.byte		N11   , Fn2 
	.byte	W24
	.byte		        As1 
	.byte		N11   , Fn2 
	.byte	W24
	.byte	PEND
@ 051   ----------------------------------------
Blazing_Fast_Battle_Divine_Protection_Required_3_051:
	.byte		N11   , An1 , v096
	.byte		N11   , Ds2 
	.byte	W24
	.byte		        An1 
	.byte		N11   , Ds2 
	.byte	W24
	.byte		        An1 
	.byte		N11   , Ds2 
	.byte	W24
	.byte	PEND
@ 052   ----------------------------------------
	.byte		        Gn1 
	.byte		N11   , Cs2 
	.byte	W24
	.byte		        Gn1 , v104
	.byte		N11   , Cs2 
	.byte	W24
	.byte		        Gn1 , v112
	.byte		N11   , Cs2 
	.byte	W24
@ 053   ----------------------------------------
	.byte	W72
@ 054   ----------------------------------------
	.byte	W96
	.byte	W24
@ 055   ----------------------------------------
	.byte		TIE   , As1 , v096
	.byte	W96
@ 056   ----------------------------------------
	.byte	W44
	.byte	W03
	.byte		EOT   
	.byte	W01
	.byte		N44   , Bn1 
	.byte	W48
@ 057   ----------------------------------------
	.byte		TIE   , As1 
	.byte	W96
@ 058   ----------------------------------------
	.byte	W44
	.byte	W03
	.byte		EOT   
	.byte	W01
	.byte		N44   , Bn1 
	.byte	W48
@ 059   ----------------------------------------
Blazing_Fast_Battle_Divine_Protection_Required_3_059:
	.byte		TIE   , As1 , v096
	.byte		TIE   , Fn2 
	.byte	W96
	.byte	PEND
@ 060   ----------------------------------------
	.byte	W44
	.byte	W03
	.byte		EOT   , As1 
	.byte		        Fn2 
	.byte	W01
	.byte		N44   , Bn1 
	.byte		N44   , Fs2 
	.byte	W48
@ 061   ----------------------------------------
	.byte	PATT
	 .word	Blazing_Fast_Battle_Divine_Protection_Required_3_059
@ 062   ----------------------------------------
	.byte	W44
	.byte	W03
	.byte		EOT   , As1 
	.byte		        Fn2 
	.byte	W01
	.byte		N44   , Bn1 , v096
	.byte		N44   , Fs2 
	.byte	W48
@ 063   ----------------------------------------
Blazing_Fast_Battle_Divine_Protection_Required_3_063:
	.byte		N11   , As1 , v064
	.byte	W12
	.byte		N11   
	.byte	W12
	.byte		        Fn1 
	.byte	W12
	.byte		        As1 
	.byte	W12
	.byte		N11   
	.byte	W12
	.byte		N11   
	.byte	W12
	.byte		        Fn1 
	.byte	W12
	.byte		        As1 
	.byte	W12
	.byte	PEND
@ 064   ----------------------------------------
Blazing_Fast_Battle_Divine_Protection_Required_3_064:
	.byte		N11   , Bn1 , v064
	.byte	W12
	.byte		N11   
	.byte	W12
	.byte		        Fs1 
	.byte	W12
	.byte		        Bn1 
	.byte	W12
	.byte		N11   
	.byte	W12
	.byte		N11   
	.byte	W12
	.byte		        Fs1 
	.byte	W12
	.byte		        Bn1 
	.byte	W12
	.byte	PEND
@ 065   ----------------------------------------
	.byte	PATT
	 .word	Blazing_Fast_Battle_Divine_Protection_Required_3_063
@ 066   ----------------------------------------
	.byte	PATT
	 .word	Blazing_Fast_Battle_Divine_Protection_Required_3_064
@ 067   ----------------------------------------
	.byte	PATT
	 .word	Blazing_Fast_Battle_Divine_Protection_Required_3_063
@ 068   ----------------------------------------
	.byte	PATT
	 .word	Blazing_Fast_Battle_Divine_Protection_Required_3_064
@ 069   ----------------------------------------
Blazing_Fast_Battle_Divine_Protection_Required_3_069:
	.byte		N23   , As1 , v080
	.byte		N23   , Fn2 
	.byte	W24
	.byte		N11   , As1 
	.byte		N11   , Fn2 
	.byte	W24
	.byte		N23   , As1 
	.byte		N23   , Fn2 
	.byte	W24
	.byte		N11   , As1 
	.byte		N11   , Fn2 
	.byte	W24
	.byte	PEND
@ 070   ----------------------------------------
Blazing_Fast_Battle_Divine_Protection_Required_3_070:
	.byte		N23   , Bn1 , v080
	.byte		N23   , Fs2 
	.byte	W24
	.byte		N11   , Bn1 
	.byte		N11   , Fs2 
	.byte	W24
	.byte		N23   , Bn1 
	.byte		N23   , Fs2 
	.byte	W24
	.byte		N11   , Bn1 
	.byte		N11   , Fs2 
	.byte	W24
	.byte	PEND
@ 071   ----------------------------------------
Blazing_Fast_Battle_Divine_Protection_Required_3_071:
	.byte		N23   , Cn2 , v080
	.byte		N23   , Gn2 
	.byte	W24
	.byte		N11   , Cn2 
	.byte		N11   , Gn2 
	.byte	W24
	.byte		N23   , Cn2 
	.byte		N23   , Gn2 
	.byte	W24
	.byte		N11   , Cn2 
	.byte		N11   , Gn2 
	.byte	W24
	.byte	PEND
@ 072   ----------------------------------------
	.byte	PATT
	 .word	Blazing_Fast_Battle_Divine_Protection_Required_3_070
@ 073   ----------------------------------------
	.byte	PATT
	 .word	Blazing_Fast_Battle_Divine_Protection_Required_3_069
@ 074   ----------------------------------------
	.byte	PATT
	 .word	Blazing_Fast_Battle_Divine_Protection_Required_3_070
@ 075   ----------------------------------------
	.byte	PATT
	 .word	Blazing_Fast_Battle_Divine_Protection_Required_3_071
@ 076   ----------------------------------------
	.byte	PATT
	 .word	Blazing_Fast_Battle_Divine_Protection_Required_3_070
@ 077   ----------------------------------------
Blazing_Fast_Battle_Divine_Protection_Required_3_077:
	.byte		N23   , As1 , v080
	.byte		N23   , Fn2 
	.byte	W24
	.byte		N11   , Fn1 
	.byte	W12
	.byte		        As1 
	.byte	W12
	.byte		N23   , Fn2 
	.byte		N23   , As2 
	.byte	W24
	.byte		N11   , As1 
	.byte	W24
	.byte	PEND
@ 078   ----------------------------------------
Blazing_Fast_Battle_Divine_Protection_Required_3_078:
	.byte		N23   , Bn1 , v080
	.byte		N23   , Fs2 
	.byte	W24
	.byte		N11   , Fs1 
	.byte	W12
	.byte		        Bn1 
	.byte	W12
	.byte		N23   , Fs2 
	.byte		N23   , Bn2 
	.byte	W24
	.byte		N11   , Bn1 
	.byte	W24
	.byte	PEND
@ 079   ----------------------------------------
	.byte	PATT
	 .word	Blazing_Fast_Battle_Divine_Protection_Required_3_077
@ 080   ----------------------------------------
	.byte	PATT
	 .word	Blazing_Fast_Battle_Divine_Protection_Required_3_078
@ 081   ----------------------------------------
	.byte	PATT
	 .word	Blazing_Fast_Battle_Divine_Protection_Required_3_077
@ 082   ----------------------------------------
	.byte	PATT
	 .word	Blazing_Fast_Battle_Divine_Protection_Required_3_078
@ 083   ----------------------------------------
	.byte		N23   , Ds2 , v080
	.byte		N23   , As2 
	.byte	W24
	.byte		N11   , As1 
	.byte	W12
	.byte		        Ds2 
	.byte	W12
	.byte		N11   
	.byte		N11   , As2 
	.byte	W12
	.byte		        As1 
	.byte	W12
	.byte		        Ds2 
	.byte	W12
@ 084   ----------------------------------------
	.byte		        Cn2 
	.byte	W36
	.byte		N11   
	.byte		N11   , Cn3 
	.byte	W36
	.byte		        Cn2 
	.byte		N11   , Cn3 
	.byte	W24
	.byte		        Cn2 
	.byte		N11   , Cn3 
	.byte	W24
@ 085   ----------------------------------------
	.byte		        Fn1 
	.byte		N11   , Fn2 
	.byte	W36
	.byte		        Fn1 
	.byte		N11   , Fn2 
	.byte		N11   , Cn3 
	.byte	W36
	.byte		        Fn2 
	.byte		N11   , Cn3 
	.byte	W24
	.byte		        Fn2 
	.byte		N11   , Cn3 
	.byte	W24
@ 086   ----------------------------------------
	.byte		        Fs1 
	.byte		N11   , Fs2 
	.byte	W36
	.byte		        Fs1 
	.byte		N11   , Fs2 
	.byte		N11   , Cs3 
	.byte	W36
	.byte		        Ds2 
	.byte		N11   , As2 
	.byte	W24
	.byte		        Ds2 
	.byte		N11   , As2 
	.byte	W24
@ 087   ----------------------------------------
	.byte		        Fn1 
	.byte		N11   , Fn2 
	.byte	W36
	.byte		        Fn1 
	.byte		N11   , Fn2 
	.byte		N11   , As2 
	.byte	W36
	.byte		        Fn2 
	.byte		N11   , Cn3 
	.byte	W12
	.byte		        Ds2 
	.byte	W12
	.byte		        Cs2 
	.byte	W12
	.byte		        Cn2 
	.byte	W12
@ 088   ----------------------------------------
	.byte		N32   , As1 
	.byte		N32   , Fn2 
	.byte	W36
	.byte		N23   
	.byte	W24
	.byte		N11   , As1 
	.byte	W12
	.byte		N07   , Cs2 
	.byte	W16
	.byte		N07   
	.byte	W16
	.byte		N07   
	.byte	W16
@ 089   ----------------------------------------
	.byte		N32   , As1 
	.byte		N32   , Fn2 
	.byte	W36
	.byte		N23   
	.byte	W24
	.byte		N11   , As1 
	.byte	W12
	.byte		N07   , Cn2 
	.byte	W16
	.byte		N07   
	.byte	W16
	.byte		N07   
	.byte	W16
@ 090   ----------------------------------------
	.byte		N32   , As1 
	.byte		N32   , Fn2 
	.byte	W36
	.byte		N23   
	.byte	W24
	.byte		N11   , As1 
	.byte	W12
	.byte		N07   , Bn1 
	.byte	W16
	.byte		N07   
	.byte	W16
	.byte		N07   
	.byte	W16
@ 091   ----------------------------------------
	.byte		N23   , As1 
	.byte		N23   , Fn2 
	.byte	W24
	.byte		        As1 
	.byte	W24
@ 092   ----------------------------------------
	.byte		N32   
	.byte		N32   , Ds2 
	.byte	W36
	.byte		N23   , As1 
	.byte	W24
@ 093   ----------------------------------------
	.byte		N32   , Ds2 
	.byte	W36
	.byte		N11   , En2 
	.byte	W24
@ 094   ----------------------------------------
	.byte		N32   , Fn2 
	.byte	W36
	.byte		N11   , Fn1 , v084
	.byte		N11   , Fn2 
	.byte	W36
@ 095   ----------------------------------------
	.byte		        Fn1 
	.byte		N11   , Fn2 
	.byte	W36
	.byte		        Fn1 , v088
	.byte		N11   , Fn2 
	.byte	W36
@ 096   ----------------------------------------
	.byte		N32   , Fn1 
	.byte		N32   , Fn2 
	.byte	W36
	.byte		N11   , Fn1 , v092
	.byte		N11   , Fn2 
	.byte	W36
@ 097   ----------------------------------------
	.byte		        Fn1 
	.byte		N11   , Fn2 
	.byte	W36
	.byte		N32   , Fn1 , v096
	.byte		N32   , Fn2 
	.byte	W36
@ 098   ----------------------------------------
	.byte		TIE   , As1 
	.byte		TIE   , Fn2 
	.byte		TIE   , As2 
	.byte	W96
@ 099   ----------------------------------------
	.byte	W96
@ 100   ----------------------------------------
	.byte	W96
@ 101   ----------------------------------------
	.byte	W92
	.byte	W03
	.byte		EOT   , As1 
	.byte		        Fn2 
	.byte		        As2 
	.byte	W01
@ 102   ----------------------------------------
	.byte		TIE   , Dn2 , v064
	.byte		TIE   , An2 
	.byte		TIE   , Dn3 
	.byte	W96
@ 103   ----------------------------------------
	.byte	W96
@ 104   ----------------------------------------
	.byte	W96
@ 105   ----------------------------------------
	.byte	W92
	.byte	W03
	.byte		EOT   , Dn2 
	.byte		        An2 
	.byte		        Dn3 
	.byte	W01
@ 106   ----------------------------------------
	.byte		N11   , Gn2 
	.byte	W36
	.byte		N11   
	.byte	W36
	.byte		        Gs2 
	.byte	W24
	.byte		N11   
	.byte	W24
@ 107   ----------------------------------------
	.byte		        Gn2 
	.byte	W36
	.byte		N11   
	.byte	W36
	.byte		        Gs2 , v068
	.byte	W24
	.byte		N11   
	.byte	W24
@ 108   ----------------------------------------
Blazing_Fast_Battle_Divine_Protection_Required_3_108:
	.byte		N11   , Gn2 , v068
	.byte	W36
	.byte		N11   
	.byte	W36
	.byte		        Gs2 
	.byte	W24
	.byte		N11   
	.byte	W24
	.byte		N11   
	.byte	W24
	.byte	PEND
@ 109   ----------------------------------------
	.byte	PATT
	 .word	Blazing_Fast_Battle_Divine_Protection_Required_3_108
@ 110   ----------------------------------------
	.byte		N11   , Gn2 , v068
	.byte	W24
	.byte		N11   
	.byte	W24
	.byte		N11   
	.byte	W24
@ 111   ----------------------------------------
	.byte		        Fs2 
	.byte	W24
	.byte		N11   
	.byte	W24
	.byte		N11   
	.byte	W24
@ 112   ----------------------------------------
	.byte		        En2 
	.byte	W24
	.byte		N11   
	.byte	W24
	.byte		N11   
	.byte	W24
@ 113   ----------------------------------------
Blazing_Fast_Battle_Divine_Protection_Required_3_113:
	.byte		N11   , Fn2 , v072
	.byte	W36
	.byte		N11   
	.byte	W36
	.byte		        Fs2 
	.byte	W24
	.byte		N11   
	.byte	W24
	.byte	PEND
@ 114   ----------------------------------------
	.byte	PATT
	 .word	Blazing_Fast_Battle_Divine_Protection_Required_3_113
@ 115   ----------------------------------------
Blazing_Fast_Battle_Divine_Protection_Required_3_115:
	.byte		N11   , Fn2 , v072
	.byte	W36
	.byte		N11   
	.byte	W36
	.byte		        Fs2 
	.byte	W24
	.byte		N11   
	.byte	W24
	.byte		N11   
	.byte	W24
	.byte	PEND
@ 116   ----------------------------------------
	.byte	PATT
	 .word	Blazing_Fast_Battle_Divine_Protection_Required_3_115
@ 117   ----------------------------------------
	.byte		N11   , Fn2 , v076
	.byte	W24
	.byte		N11   
	.byte	W24
	.byte		N11   
	.byte	W24
@ 118   ----------------------------------------
	.byte		        En2 
	.byte	W24
	.byte		N11   
	.byte	W24
	.byte		N11   
	.byte	W24
@ 119   ----------------------------------------
	.byte		        Dn2 
	.byte	W24
	.byte		N11   
	.byte	W24
	.byte		N11   
	.byte	W24
@ 120   ----------------------------------------
Blazing_Fast_Battle_Divine_Protection_Required_3_120:
	.byte		N11   , En2 , v076
	.byte	W36
	.byte		N11   
	.byte	W36
	.byte		        Fn2 
	.byte	W24
	.byte		N11   
	.byte	W24
	.byte	PEND
@ 121   ----------------------------------------
	.byte	PATT
	 .word	Blazing_Fast_Battle_Divine_Protection_Required_3_120
@ 122   ----------------------------------------
	.byte		N11   , En2 , v076
	.byte	W36
	.byte		N11   
	.byte	W36
	.byte		        Fn2 
	.byte	W24
	.byte		        Fn2 , v080
	.byte	W24
	.byte		N11   
	.byte	W24
@ 123   ----------------------------------------
	.byte		        En2 
	.byte	W36
	.byte		N11   
	.byte	W36
	.byte		        Fn2 
	.byte	W24
	.byte		N11   
	.byte	W24
	.byte		N11   
	.byte	W24
@ 124   ----------------------------------------
	.byte		        En2 
	.byte	W24
	.byte		N11   
	.byte	W24
	.byte		N11   
	.byte	W24
@ 125   ----------------------------------------
	.byte		        Ds2 
	.byte	W24
	.byte		N11   
	.byte	W24
	.byte		N11   
	.byte	W24
@ 126   ----------------------------------------
	.byte	PATT
	 .word	Blazing_Fast_Battle_Divine_Protection_Required_3_023
@ 127   ----------------------------------------
	.byte	PATT
	 .word	Blazing_Fast_Battle_Divine_Protection_Required_3_032
@ 128   ----------------------------------------
	.byte	PATT
	 .word	Blazing_Fast_Battle_Divine_Protection_Required_3_032
@ 129   ----------------------------------------
	.byte	PATT
	 .word	Blazing_Fast_Battle_Divine_Protection_Required_3_034
@ 130   ----------------------------------------
	.byte	PATT
	 .word	Blazing_Fast_Battle_Divine_Protection_Required_3_034
@ 131   ----------------------------------------
	.byte	PATT
	 .word	Blazing_Fast_Battle_Divine_Protection_Required_3_036
@ 132   ----------------------------------------
	.byte	PATT
	 .word	Blazing_Fast_Battle_Divine_Protection_Required_3_037
@ 133   ----------------------------------------
	.byte	PATT
	 .word	Blazing_Fast_Battle_Divine_Protection_Required_3_038
@ 134   ----------------------------------------
	.byte	PATT
	 .word	Blazing_Fast_Battle_Divine_Protection_Required_3_039
@ 135   ----------------------------------------
	.byte	PATT
	 .word	Blazing_Fast_Battle_Divine_Protection_Required_3_039
@ 136   ----------------------------------------
	.byte	PATT
	 .word	Blazing_Fast_Battle_Divine_Protection_Required_3_041
@ 137   ----------------------------------------
	.byte	PATT
	 .word	Blazing_Fast_Battle_Divine_Protection_Required_3_041
@ 138   ----------------------------------------
	.byte	PATT
	 .word	Blazing_Fast_Battle_Divine_Protection_Required_3_043
@ 139   ----------------------------------------
	.byte	PATT
	 .word	Blazing_Fast_Battle_Divine_Protection_Required_3_044
@ 140   ----------------------------------------
	.byte	PATT
	 .word	Blazing_Fast_Battle_Divine_Protection_Required_3_045
@ 141   ----------------------------------------
	.byte	PATT
	 .word	Blazing_Fast_Battle_Divine_Protection_Required_3_046
@ 142   ----------------------------------------
	.byte	PATT
	 .word	Blazing_Fast_Battle_Divine_Protection_Required_3_046
@ 143   ----------------------------------------
	.byte	PATT
	 .word	Blazing_Fast_Battle_Divine_Protection_Required_3_048
@ 144   ----------------------------------------
	.byte	PATT
	 .word	Blazing_Fast_Battle_Divine_Protection_Required_3_048
@ 145   ----------------------------------------
	.byte	PATT
	 .word	Blazing_Fast_Battle_Divine_Protection_Required_3_050
@ 146   ----------------------------------------
	.byte	PATT
	 .word	Blazing_Fast_Battle_Divine_Protection_Required_3_051
@ 147   ----------------------------------------
	.byte		N11   , Gn1 , v096
	.byte		N11   , Cs2 
	.byte	W24
	.byte		        Gn1 
	.byte		N11   , Cs2 
	.byte	W24
	.byte		        Gn1 
	.byte		N11   , Cs2 
	.byte	W24
@ 148   ----------------------------------------
	.byte		        An1 
	.byte		N11   , En2 
	.byte	W36
	.byte		        An1 
	.byte		N11   , En2 
	.byte	W36
	.byte		        As1 
	.byte		N11   , Fn2 
	.byte	W24
	.byte		        As1 
	.byte		N11   , Fn2 
	.byte	W24
@ 149   ----------------------------------------
	.byte	PATT
	 .word	Blazing_Fast_Battle_Divine_Protection_Required_3_046
@ 150   ----------------------------------------
Blazing_Fast_Battle_Divine_Protection_Required_3_150:
	.byte		N11   , An1 , v096
	.byte		N11   , En2 
	.byte	W36
	.byte		        As1 
	.byte		N11   , Fn2 
	.byte	W24
	.byte	PEND
@ 151   ----------------------------------------
Blazing_Fast_Battle_Divine_Protection_Required_3_151:
	.byte		N11   , As1 , v096
	.byte		N11   , Fn2 
	.byte	W36
	.byte		        Bn1 
	.byte		N11   , Fs2 
	.byte	W24
	.byte	PEND
@ 152   ----------------------------------------
	.byte	PATT
	 .word	Blazing_Fast_Battle_Divine_Protection_Required_3_150
@ 153   ----------------------------------------
	.byte	PATT
	 .word	Blazing_Fast_Battle_Divine_Protection_Required_3_151
@ 154   ----------------------------------------
Blazing_Fast_Battle_Divine_Protection_Required_3_154:
	.byte		N11   , As1 , v096
	.byte		N11   , Fn2 
	.byte	W24
	.byte		        Bn1 
	.byte		N11   , Fs2 
	.byte	W24
	.byte		        As1 
	.byte		N11   , Fn2 
	.byte	W24
	.byte	PEND
@ 155   ----------------------------------------
	.byte		        Bn1 
	.byte		N11   , Fs2 
	.byte	W24
	.byte		        As1 
	.byte		N11   , Fn2 
	.byte	W24
	.byte		        Bn1 
	.byte		N11   , Fs2 
	.byte	W24
@ 156   ----------------------------------------
	.byte	PATT
	 .word	Blazing_Fast_Battle_Divine_Protection_Required_3_154
@ 157   ----------------------------------------
	.byte		N16   , Fn1 , v096
	.byte		N16   , Cn2 
	.byte		N16   , Fn2 
	.byte	W72
@ 158   ----------------------------------------
	.byte		N23   , En1 
	.byte		N23   , Bn1 
	.byte		N23   , En2 
	.byte	W72
@ 159   ----------------------------------------
	.byte	W96
@ 160   ----------------------------------------
	.byte		N11   , En2 , v112
	.byte	W12
	.byte		        Cn2 
	.byte	W12
	.byte		        An1 
	.byte	W12
	.byte		        En2 
	.byte	W12
	.byte		        Cn2 
	.byte	W12
	.byte		        An1 
	.byte	W12
	.byte		        As1 
	.byte		N11   , Fn2 
	.byte	W24
	.byte		        As1 
	.byte		N11   , Fn2 
	.byte	W24
@ 161   ----------------------------------------
	.byte		TIE   , An1 , v096
	.byte		TIE   , En2 
	.byte	W96
	.byte	W48
@ 162   ----------------------------------------
	.byte	W96
	.byte	W44
	.byte	W03
	.byte		EOT   , An1 
	.byte		        En2 
	.byte	W01
@ 163   ----------------------------------------
	.byte		N23   , An1 , v116
	.byte		N23   , En2 
	.byte	W44
	.byte	W03
	.byte	GOTO
	 .word	Blazing_Fast_Battle_Divine_Protection_Required_3_B1
Blazing_Fast_Battle_Divine_Protection_Required_3_B2:
	.byte	FINE

@**************** Track 4 (Midi-Chn.10) ****************@

Blazing_Fast_Battle_Divine_Protection_Required_4:
	.byte	KEYSH , Blazing_Fast_Battle_Divine_Protection_Required_key+0
Blazing_Fast_Battle_Divine_Protection_Required_4_B1:
@ 000   ----------------------------------------
	.byte		VOICE , 124
	.byte		VOL   , 0*Blazing_Fast_Battle_Divine_Protection_Required_mvl/mxv
	.byte		PAN   , c_v+0
	.byte		N11   , Bn0 , v096
	.byte		N11   , Cn1 
	.byte		N11   , Dn1 
	.byte		N11   , Cs2 
	.byte	W72
	.byte		N15   , Bn0 
	.byte		N15   , Cn1 
	.byte		N15   , Fn1 
	.byte		N15   , Fs1 
	.byte	W16
	.byte		        Bn0 
	.byte		N15   , Cn1 
	.byte		N15   , En1 
	.byte		N15   , Fs1 
	.byte	W16
	.byte		        Bn0 
	.byte		N15   , Cn1 
	.byte		N15   , Dn1 
	.byte		N15   , Fs1 
	.byte	W16
@ 001   ----------------------------------------
	.byte		N11   , Bn0 
	.byte		N11   , Cn1 
	.byte		N11   , En1 
	.byte		N11   , An2 
	.byte	W72
	.byte		N15   , Bn0 
	.byte		N15   , Cn1 
	.byte		N15   , Cs1 
	.byte		N15   , Fs1 
	.byte	W16
	.byte		        Bn0 
	.byte		N15   , Cn1 
	.byte		N07   , Fn1 
	.byte	W08
	.byte		        An1 
	.byte	W08
	.byte		N15   , Bn0 
	.byte		N15   , Cn1 
	.byte		N07   , Bn1 
	.byte	W08
	.byte		        Cn2 
	.byte	W08
@ 002   ----------------------------------------
	.byte		N11   , Bn0 
	.byte		N11   , Cn1 
	.byte		N11   , Dn2 
	.byte		N11   , An2 
	.byte	W72
	.byte		N15   , Bn0 
	.byte		N15   , Cn1 
	.byte		N15   , Dn1 
	.byte		N15   , Fs1 
	.byte	W16
	.byte		        Bn0 
	.byte		N15   , Cn1 
	.byte		N15   , Cs1 
	.byte		N15   , Fs1 
	.byte	W16
	.byte		        Bn0 
	.byte		N15   , Cn1 
	.byte		N15   , Fs1 
	.byte		N15   , Ds2 
	.byte	W16
@ 003   ----------------------------------------
	.byte		        Bn0 
	.byte		N15   , Cn1 
	.byte		N15   , Fs1 , v116
	.byte	W16
	.byte		        Bn0 , v096
	.byte		N15   , Cn1 
	.byte		N15   , Fs1 
	.byte	W16
	.byte		        Bn0 
	.byte		N15   , Cn1 
	.byte		N15   , Fs1 
	.byte	W16
@ 004   ----------------------------------------
	.byte		        Bn0 
	.byte		N15   , Cn1 
	.byte		N15   , Fs1 
	.byte		N15   , Bn2 
	.byte	W16
	.byte		        Bn0 
	.byte		N15   , Cn1 
	.byte		N15   , Fs1 
	.byte		N15   , Bn2 
	.byte	W16
	.byte		        Bn0 
	.byte		N15   , Cn1 
	.byte		N15   , Fs1 
	.byte		N15   , Bn2 
	.byte	W16
@ 005   ----------------------------------------
	.byte		        Bn0 
	.byte		N15   , Cn1 
	.byte		N15   , Cs1 
	.byte		N15   , Fs1 
	.byte	W16
	.byte		        Bn0 
	.byte		N15   , Cn1 
	.byte		N15   , Cs1 
	.byte		N15   , Fs1 
	.byte	W16
	.byte		        Bn0 
	.byte		N15   , Cn1 
	.byte		N15   , Cs1 
	.byte		N15   , Fs1 
	.byte	W16
@ 006   ----------------------------------------
	.byte		        Bn0 
	.byte		N15   , Cn1 
	.byte		N15   , Cs1 
	.byte		N15   , Bn2 
	.byte	W16
	.byte		        Bn0 
	.byte		N15   , Cn1 
	.byte		N15   , Cs1 
	.byte		N15   , Bn2 
	.byte	W16
	.byte		        Bn0 
	.byte		N15   , Cn1 
	.byte		N15   , Cs1 
	.byte		N15   , Bn2 
	.byte	W16
@ 007   ----------------------------------------
	.byte		        Bn0 
	.byte		N15   , Cn1 
	.byte		N15   , Fn1 
	.byte		N15   , Bn2 
	.byte	W16
	.byte		        Bn0 
	.byte		N15   , Cn1 
	.byte		N15   , Fn1 
	.byte		N15   , Bn2 
	.byte	W16
	.byte		        Bn0 
	.byte		N15   , Cn1 
	.byte		N15   , Fn1 
	.byte		N15   , Bn2 
	.byte	W16
@ 008   ----------------------------------------
	.byte		        Bn0 
	.byte		N15   , Cn1 
	.byte		N15   , En1 
	.byte		N15   , As1 
	.byte	W16
	.byte		        Bn0 
	.byte		N15   , Cn1 
	.byte		N15   , En1 
	.byte		N15   , As1 
	.byte	W16
	.byte		        Bn0 
	.byte		N15   , Cn1 
	.byte		N15   , En1 
	.byte		N15   , As1 
	.byte	W16
@ 009   ----------------------------------------
	.byte		        Bn0 
	.byte		N15   , Cn1 
	.byte		N15   , Dn1 
	.byte		N15   , Ds2 
	.byte	W16
	.byte		        Bn0 
	.byte		N15   , Cn1 
	.byte		N15   , Dn1 
	.byte		N15   , Ds2 
	.byte	W16
	.byte		        Bn0 
	.byte		N15   , Cn1 
	.byte		N15   , Dn1 
	.byte		N15   , Ds2 
	.byte	W16
@ 010   ----------------------------------------
	.byte	W48
@ 011   ----------------------------------------
	.byte		N11   , Bn0 , v080
	.byte		N11   , Cn1 
	.byte		N11   , Dn1 
	.byte		N11   , Fs1 
	.byte	W72
	.byte		        Cn1 
	.byte		N11   , Cs1 
	.byte		N11   , Bn2 
	.byte	W24
	.byte		        Cn1 
	.byte		N11   , Cs1 
	.byte		N11   , Bn2 
	.byte	W24
@ 012   ----------------------------------------
	.byte		        Bn0 
	.byte		N11   , Cn1 
	.byte		N11   , Fn1 
	.byte		N11   , An2 
	.byte	W72
	.byte		        Cn1 
	.byte		N11   , En1 
	.byte		N11   , Bn2 
	.byte	W12
	.byte		        En1 
	.byte	W12
	.byte		        Cn1 
	.byte		N11   , Cs1 
	.byte		N11   , Dn1 
	.byte	W12
	.byte		N11   
	.byte	W12
@ 013   ----------------------------------------
	.byte		        Bn0 
	.byte		N11   , Cn1 
	.byte		N11   , Fn1 
	.byte		N11   , An2 
	.byte	W72
	.byte		        Bn0 , v052
	.byte		N11   , Fs1 , v060
	.byte	W12
	.byte		        Cn1 , v052
	.byte		N11   , Fs1 
	.byte	W12
	.byte		        Bn0 
	.byte		N11   , Fs1 , v060
	.byte	W12
	.byte		        Cn1 , v052
	.byte		N11   , Fs1 
	.byte	W12
	.byte		        Bn0 , v056
	.byte		N11   , Fs1 , v064
	.byte	W12
	.byte		        Cn1 , v056
	.byte		N11   , Fs1 
	.byte	W12
@ 014   ----------------------------------------
	.byte		        Bn0 , v060
	.byte		N11   , Fs1 , v072
	.byte	W12
	.byte		        Cn1 , v060
	.byte		N11   , Fs1 
	.byte	W12
	.byte		        Bn0 , v064
	.byte		N11   , Fs1 , v076
	.byte	W12
	.byte		        Cn1 , v064
	.byte		N11   , Fs1 
	.byte	W12
	.byte		        Bn0 , v068
	.byte		N11   , Fs1 , v080
	.byte	W12
	.byte		        Cn1 , v068
	.byte		N11   , Fs1 
	.byte	W12
	.byte		        Bn0 , v072
	.byte		N11   , Fs1 , v084
	.byte	W12
	.byte		        Cn1 , v072
	.byte		N11   , Fs1 
	.byte	W12
	.byte		        Bn0 
	.byte		N11   , Fs1 , v088
	.byte	W12
	.byte		        Cn1 , v076
	.byte		N11   , Fs1 
	.byte	W12
	.byte		        Bn0 
	.byte		N11   , Fs1 , v092
	.byte	W12
	.byte		        Cn1 , v080
	.byte		N11   , Fs1 
	.byte	W12
@ 015   ----------------------------------------
	.byte		        Bn0 
	.byte		N11   , Dn1 , v096
	.byte		N11   , Fs1 
	.byte	W12
	.byte		        Cn1 , v080
	.byte	W12
	.byte		        Bn0 
	.byte		N11   , Dn1 
	.byte	W12
	.byte		        Cn1 
	.byte	W12
	.byte		        Bn0 
	.byte		N11   , Dn1 
	.byte	W12
	.byte		        Cn1 
	.byte	W12
@ 016   ----------------------------------------
	.byte		        Bn0 
	.byte		N11   , Dn1 
	.byte	W12
	.byte		        Cn1 
	.byte	W12
	.byte		        Bn0 
	.byte		N11   , Dn1 
	.byte	W12
	.byte		        Cn1 
	.byte	W12
	.byte		        Bn0 
	.byte		N11   , Dn1 
	.byte	W12
	.byte		        Cn1 
	.byte	W12
@ 017   ----------------------------------------
	.byte		        Bn0 
	.byte		N11   , Cs1 
	.byte		N11   , Dn1 
	.byte	W12
	.byte		        Cn1 
	.byte		N11   , En1 
	.byte	W12
	.byte		        Bn0 
	.byte		N11   , Cs1 
	.byte		N11   , Dn1 
	.byte	W12
	.byte		        Cn1 
	.byte		N11   , En1 
	.byte	W12
	.byte		        Bn0 
	.byte		N11   , Cs1 
	.byte		N11   , Dn1 
	.byte	W12
	.byte		        Cn1 
	.byte		N11   , En1 
	.byte	W12
@ 018   ----------------------------------------
Blazing_Fast_Battle_Divine_Protection_Required_4_018:
	.byte		N11   , Bn0 , v080
	.byte		N11   , Dn1 
	.byte		N11   , Fs1 
	.byte	W12
	.byte		        Cn1 
	.byte	W12
	.byte		        Bn0 
	.byte		N11   , En1 
	.byte	W12
	.byte		        Cn1 
	.byte		N11   , Dn1 
	.byte		N11   , Fs1 
	.byte	W12
	.byte		        Bn0 
	.byte	W12
	.byte		        Cn1 
	.byte		N11   , En1 
	.byte	W12
	.byte		        Bn0 
	.byte		N11   , Cs1 
	.byte		N11   , Dn1 
	.byte	W12
	.byte		        Fs1 
	.byte	W12
	.byte		        Bn0 
	.byte		N11   , Cs1 
	.byte		N11   , Dn1 
	.byte	W12
	.byte		        Fs1 
	.byte	W12
	.byte	PEND
@ 019   ----------------------------------------
	.byte	PATT
	 .word	Blazing_Fast_Battle_Divine_Protection_Required_4_018
@ 020   ----------------------------------------
Blazing_Fast_Battle_Divine_Protection_Required_4_020:
	.byte		N11   , Bn0 , v080
	.byte		N11   , Dn1 
	.byte		N11   , Fs1 
	.byte	W12
	.byte		        Cn1 
	.byte		N11   , En1 
	.byte	W12
	.byte		        Bn0 
	.byte		N11   , En1 
	.byte	W12
	.byte		        Cn1 
	.byte		N11   , Dn1 
	.byte		N11   , Fs1 
	.byte	W12
	.byte		        Bn0 
	.byte		N11   , En1 
	.byte	W12
	.byte		        Cn1 
	.byte		N11   , En1 
	.byte	W12
	.byte		        Bn0 
	.byte		N11   , Cs1 
	.byte		N11   , Dn1 
	.byte	W12
	.byte		        Fs1 
	.byte	W12
	.byte		        Bn0 
	.byte		N11   , Cs1 
	.byte		N11   , Dn1 
	.byte	W12
	.byte		        Fs1 
	.byte	W12
	.byte		        Bn0 
	.byte		N11   , Cs1 
	.byte		N11   , Dn1 
	.byte	W12
	.byte		        En1 
	.byte	W12
	.byte	PEND
@ 021   ----------------------------------------
	.byte	PATT
	 .word	Blazing_Fast_Battle_Divine_Protection_Required_4_020
@ 022   ----------------------------------------
	.byte		N11   , Bn0 , v080
	.byte		N11   , Cs1 
	.byte		N11   , Dn1 
	.byte	W12
	.byte		        En1 
	.byte	W12
	.byte		        Bn0 
	.byte		N11   , Fn1 
	.byte	W12
	.byte		        En1 
	.byte	W12
	.byte		        Bn0 
	.byte		N11   , Fn1 
	.byte	W12
	.byte		        En1 
	.byte	W12
@ 023   ----------------------------------------
	.byte		        Bn0 
	.byte		N11   , Dn1 
	.byte		N11   , Fs1 
	.byte	W12
	.byte		        Cn1 
	.byte		N11   , En1 
	.byte	W12
	.byte		        Bn0 
	.byte		N11   , Dn1 
	.byte	W12
	.byte		        Cn1 
	.byte		N11   , En1 
	.byte	W12
	.byte		        Bn0 
	.byte		N11   , Dn1 
	.byte	W12
	.byte		        Cn1 
	.byte		N11   , En1 
	.byte	W12
@ 024   ----------------------------------------
	.byte		        Bn0 
	.byte		N11   , Cs1 
	.byte		N11   , Dn1 
	.byte	W12
	.byte		        Cn1 
	.byte		N11   , Fs1 
	.byte	W12
	.byte		        Bn0 
	.byte		N11   , Cs1 
	.byte		N11   , Dn1 
	.byte	W12
	.byte		        Cn1 
	.byte		N11   , Fs1 
	.byte	W12
	.byte		        Bn0 
	.byte		N11   , Cs1 
	.byte		N11   , Dn1 
	.byte	W12
	.byte		        Cn1 
	.byte		N11   , Fs1 
	.byte		N11   , Bn2 
	.byte	W12
@ 025   ----------------------------------------
	.byte		        Bn0 
	.byte		N11   , En1 
	.byte		N11   , Gn2 
	.byte	W12
	.byte		        Cn1 
	.byte		N11   , Dn1 
	.byte	W12
	.byte		        Bn0 
	.byte		N11   , En1 
	.byte	W12
	.byte		        Cn1 
	.byte		N11   , Fn1 
	.byte		N11   , Fs1 
	.byte	W12
	.byte		        Bn0 
	.byte		N11   , En1 
	.byte	W12
	.byte		        Cn1 
	.byte		N11   , Dn1 
	.byte	W12
	.byte		        Bn0 
	.byte		N11   , Cs1 
	.byte		N11   , Fs1 
	.byte	W12
	.byte		        En1 
	.byte	W12
	.byte		        Bn0 
	.byte		N11   , Cs1 
	.byte		N11   , Fs1 
	.byte	W12
	.byte		        En1 
	.byte	W12
@ 026   ----------------------------------------
Blazing_Fast_Battle_Divine_Protection_Required_4_026:
	.byte		N11   , Bn0 , v080
	.byte		N11   , En1 
	.byte		N11   , Bn2 
	.byte	W12
	.byte		        Cn1 
	.byte		N11   , Dn1 
	.byte	W12
	.byte		        Bn0 
	.byte		N11   , En1 
	.byte	W12
	.byte		        Cn1 
	.byte		N11   , Fn1 
	.byte		N11   , Fs1 
	.byte	W12
	.byte		        Bn0 
	.byte		N11   , En1 
	.byte	W12
	.byte		        Cn1 
	.byte		N11   , Dn1 
	.byte	W12
	.byte		        Bn0 
	.byte		N11   , Cs1 
	.byte		N11   , Fs1 
	.byte	W12
	.byte		        En1 
	.byte	W12
	.byte		        Bn0 
	.byte		N11   , Cs1 
	.byte		N11   , Fs1 
	.byte	W12
	.byte		        En1 
	.byte	W12
	.byte	PEND
@ 027   ----------------------------------------
Blazing_Fast_Battle_Divine_Protection_Required_4_027:
	.byte		N11   , Bn0 , v080
	.byte		N11   , En1 
	.byte		N11   , Bn2 
	.byte	W12
	.byte		        Cn1 
	.byte		N11   , Dn1 
	.byte	W12
	.byte		        Bn0 
	.byte		N11   , En1 
	.byte	W12
	.byte		        Cn1 
	.byte		N11   , Fn1 
	.byte		N11   , Fs1 
	.byte	W12
	.byte		        Bn0 
	.byte		N11   , En1 
	.byte	W12
	.byte		        Cn1 
	.byte		N11   , Dn1 
	.byte	W12
	.byte		        Bn0 
	.byte		N11   , Cs1 
	.byte		N11   , Fs1 
	.byte	W12
	.byte		        En1 
	.byte	W12
	.byte		        Bn0 
	.byte		N11   , Cs1 
	.byte		N11   , Fs1 
	.byte	W12
	.byte		        En1 
	.byte	W12
	.byte		        Bn0 
	.byte		N11   , An1 
	.byte	W12
	.byte		        En1 
	.byte	W12
	.byte	PEND
@ 028   ----------------------------------------
	.byte		        Bn0 
	.byte		N11   , En1 
	.byte		N11   , En2 
	.byte	W12
	.byte		        Cn1 
	.byte		N11   , Dn1 
	.byte	W12
	.byte		        Bn0 
	.byte		N11   , En1 
	.byte	W12
	.byte		        Cn1 
	.byte		N11   , Fn1 
	.byte		N11   , Fs1 
	.byte	W12
	.byte		        Bn0 
	.byte		N11   , En1 
	.byte	W12
	.byte		        Cn1 
	.byte		N11   , Dn1 
	.byte	W12
	.byte		        Bn0 
	.byte		N11   , Cs1 
	.byte		N11   , Fs1 
	.byte	W12
	.byte		        En1 
	.byte	W12
	.byte		        Bn0 
	.byte		N11   , Cs1 
	.byte		N11   , Fs1 
	.byte	W12
	.byte		        En1 
	.byte	W12
	.byte		        Bn0 
	.byte		N11   , An1 
	.byte	W12
	.byte		        En1 
	.byte	W12
@ 029   ----------------------------------------
	.byte		        Bn0 
	.byte		N11   , Dn1 , v096
	.byte		N11   , En2 
	.byte	W12
	.byte		        Cn1 , v080
	.byte		N11   , Dn2 , v096
	.byte	W12
	.byte		        Bn0 , v080
	.byte		N11   , Cn2 , v096
	.byte	W12
	.byte		        Cn1 , v080
	.byte		N11   , Bn1 , v096
	.byte	W12
	.byte		        Bn0 , v080
	.byte		N11   , An1 , v096
	.byte	W12
	.byte		        Cn1 , v080
	.byte		N11   , Fn1 , v096
	.byte	W12
@ 030   ----------------------------------------
	.byte		        Bn0 , v080
	.byte		N11   , Fn1 , v096
	.byte		N11   , As1 
	.byte	W12
	.byte		        Cn1 , v080
	.byte		N11   , Fn1 , v096
	.byte	W12
	.byte		        Bn0 , v080
	.byte		N11   , Fn1 , v096
	.byte	W12
	.byte		        Cn1 , v080
	.byte		N11   , An1 , v096
	.byte	W12
	.byte		        Bn0 , v080
	.byte		N11   , An1 , v096
	.byte	W12
	.byte		        Cn1 , v080
	.byte		N11   , An1 , v096
	.byte	W12
@ 031   ----------------------------------------
	.byte		        Bn0 , v080
	.byte		N11   , Fs1 , v096
	.byte		N11   , Bn1 
	.byte	W12
	.byte		        Cn1 , v080
	.byte		N11   , Bn1 , v096
	.byte	W12
	.byte		        Bn0 , v080
	.byte		N11   , Bn1 , v096
	.byte	W12
	.byte		        Cn1 , v080
	.byte		N11   , Cn2 , v096
	.byte	W12
	.byte		        Bn0 , v080
	.byte		N11   , Cn2 , v096
	.byte	W12
	.byte		        Cn1 , v080
	.byte		N11   , Dn2 , v096
	.byte	W12
@ 032   ----------------------------------------
Blazing_Fast_Battle_Divine_Protection_Required_4_032:
	.byte		N11   , Bn0 , v080
	.byte		N11   , En1 
	.byte		N11   , An2 
	.byte	W12
	.byte		        Cn1 
	.byte		N11   , Dn1 
	.byte	W12
	.byte		        Bn0 
	.byte		N11   , En1 
	.byte	W12
	.byte		        Cn1 
	.byte		N11   , Fn1 
	.byte		N11   , Fs1 
	.byte	W12
	.byte		        Bn0 
	.byte		N11   , En1 
	.byte	W12
	.byte		        Cn1 
	.byte		N11   , Dn1 
	.byte	W12
	.byte		        Bn0 
	.byte		N11   , Cs1 
	.byte		N11   , Fs1 
	.byte	W12
	.byte		        En1 
	.byte	W12
	.byte		        Bn0 
	.byte		N11   , Cs1 
	.byte		N11   , Fs1 
	.byte	W12
	.byte		        En1 
	.byte	W12
	.byte	PEND
@ 033   ----------------------------------------
	.byte	PATT
	 .word	Blazing_Fast_Battle_Divine_Protection_Required_4_026
@ 034   ----------------------------------------
	.byte	PATT
	 .word	Blazing_Fast_Battle_Divine_Protection_Required_4_027
@ 035   ----------------------------------------
Blazing_Fast_Battle_Divine_Protection_Required_4_035:
	.byte		N11   , Bn0 , v080
	.byte		N11   , En1 , v096
	.byte		N11   , Ds2 
	.byte	W12
	.byte		        Cn1 , v080
	.byte		N11   , Dn1 
	.byte	W12
	.byte		        Bn0 
	.byte		N11   , En1 
	.byte	W12
	.byte		        Cn1 
	.byte		N11   , Fn1 
	.byte		N11   , Fs1 
	.byte	W12
	.byte		        Bn0 
	.byte		N11   , En1 
	.byte	W12
	.byte		        Cn1 
	.byte		N11   , Dn1 
	.byte	W12
	.byte		        Bn0 
	.byte		N11   , Cs1 
	.byte		N11   , Fs1 
	.byte	W12
	.byte		        En1 
	.byte	W12
	.byte		        Bn0 
	.byte		N11   , Cs1 
	.byte		N11   , Fs1 
	.byte	W12
	.byte		        En1 
	.byte	W12
	.byte		        Bn0 
	.byte		N11   , An1 
	.byte	W12
	.byte		        En1 
	.byte	W12
	.byte	PEND
@ 036   ----------------------------------------
Blazing_Fast_Battle_Divine_Protection_Required_4_036:
	.byte		N11   , Bn0 , v080
	.byte		N11   , Cs1 
	.byte		N11   , Dn1 
	.byte	W12
	.byte		        Cn1 
	.byte		N11   , En1 
	.byte	W12
	.byte		        Bn0 
	.byte		N11   , En1 
	.byte	W12
	.byte		        Cn1 
	.byte		N11   , En1 
	.byte	W12
	.byte		        Bn0 
	.byte		N11   , En1 
	.byte	W12
	.byte		        Cn1 
	.byte		N11   , En1 
	.byte	W12
	.byte	PEND
@ 037   ----------------------------------------
Blazing_Fast_Battle_Divine_Protection_Required_4_037:
	.byte		N11   , Bn0 , v080
	.byte		N11   , Dn1 
	.byte	W12
	.byte		        Cn1 
	.byte		N11   , Fs1 
	.byte	W12
	.byte		        Bn0 
	.byte		N11   , Bn1 , v096
	.byte	W12
	.byte		        Cn1 , v080
	.byte		N11   , Fs1 
	.byte	W12
	.byte		        Bn0 
	.byte		N11   , Cn2 , v096
	.byte	W12
	.byte		        Cn1 , v080
	.byte		N11   , Fs1 
	.byte	W12
	.byte	PEND
@ 038   ----------------------------------------
Blazing_Fast_Battle_Divine_Protection_Required_4_038:
	.byte		N11   , Bn0 , v080
	.byte		N11   , Dn2 , v096
	.byte	W12
	.byte		        Cn1 , v080
	.byte		N11   , Fs1 , v096
	.byte	W12
	.byte		        Bn0 , v080
	.byte		N11   , Cn2 , v096
	.byte	W12
	.byte		        Cn1 , v080
	.byte		N11   , Fs1 , v096
	.byte	W12
	.byte		        Bn0 , v080
	.byte		N11   , Bn1 , v096
	.byte	W12
	.byte		        Cn1 , v080
	.byte		N11   , Fs1 , v096
	.byte	W12
	.byte	PEND
@ 039   ----------------------------------------
Blazing_Fast_Battle_Divine_Protection_Required_4_039:
	.byte		N11   , Bn0 , v080
	.byte		N11   , En1 , v096
	.byte		N11   , Fs1 
	.byte	W12
	.byte		        Cn1 , v080
	.byte		N11   , Dn1 
	.byte	W12
	.byte		        Bn0 
	.byte		N11   , En1 
	.byte	W12
	.byte		        Cn1 
	.byte		N11   , Fn1 
	.byte		N11   , Fs1 
	.byte	W12
	.byte		        Bn0 
	.byte		N11   , En1 
	.byte	W12
	.byte		        Cn1 
	.byte		N11   , Dn1 
	.byte	W12
	.byte		        Bn0 
	.byte		N11   , Cs1 
	.byte		N11   , Fs1 
	.byte	W12
	.byte		        En1 
	.byte	W12
	.byte		        Bn0 
	.byte		N11   , Cs1 
	.byte		N11   , Fs1 
	.byte	W12
	.byte		        En1 
	.byte	W12
	.byte	PEND
@ 040   ----------------------------------------
	.byte	PATT
	 .word	Blazing_Fast_Battle_Divine_Protection_Required_4_026
@ 041   ----------------------------------------
	.byte	PATT
	 .word	Blazing_Fast_Battle_Divine_Protection_Required_4_027
@ 042   ----------------------------------------
Blazing_Fast_Battle_Divine_Protection_Required_4_042:
	.byte		N11   , Bn0 , v080
	.byte		N11   , En1 
	.byte		N11   , Gn2 
	.byte	W12
	.byte		        Cn1 
	.byte		N11   , Dn1 
	.byte	W12
	.byte		        Bn0 
	.byte		N11   , En1 
	.byte	W12
	.byte		        Cn1 
	.byte		N11   , Fn1 
	.byte		N11   , Fs1 
	.byte	W12
	.byte		        Bn0 
	.byte		N11   , En1 
	.byte	W12
	.byte		        Cn1 
	.byte		N11   , Dn1 
	.byte	W12
	.byte		        Bn0 
	.byte		N11   , Cs1 
	.byte		N11   , Fs1 
	.byte	W12
	.byte		        En1 
	.byte	W12
	.byte		        Bn0 
	.byte		N11   , Cs1 
	.byte		N11   , Fs1 
	.byte	W12
	.byte		        En1 
	.byte	W12
	.byte		        Bn0 
	.byte		N11   , An1 
	.byte	W12
	.byte		        En1 
	.byte	W12
	.byte	PEND
@ 043   ----------------------------------------
Blazing_Fast_Battle_Divine_Protection_Required_4_043:
	.byte		N11   , Bn0 , v080
	.byte		N11   , Dn2 
	.byte		N11   , En2 
	.byte	W12
	.byte		        Cn1 
	.byte	W12
	.byte		        Bn0 
	.byte		N11   , Cn2 
	.byte	W12
	.byte		        Cn1 
	.byte		N11   , Bn1 
	.byte	W12
	.byte		        Bn0 
	.byte		N11   , An1 
	.byte	W12
	.byte		        Cn1 
	.byte		N11   , Fn1 
	.byte	W12
	.byte	PEND
@ 044   ----------------------------------------
Blazing_Fast_Battle_Divine_Protection_Required_4_044:
	.byte		N11   , Bn0 , v080
	.byte		N11   , Dn1 
	.byte	W12
	.byte		        Cn1 
	.byte		N11   , Fn1 
	.byte	W12
	.byte		        Bn0 
	.byte		N11   , Dn1 
	.byte	W12
	.byte		        Cn1 
	.byte		N11   , Fn1 
	.byte	W12
	.byte		        Bn0 
	.byte		N11   , Dn1 
	.byte	W12
	.byte		        Cn1 
	.byte		N11   , Fn1 
	.byte	W12
	.byte	PEND
@ 045   ----------------------------------------
Blazing_Fast_Battle_Divine_Protection_Required_4_045:
	.byte		N11   , Bn0 , v080
	.byte		N11   , Fn1 
	.byte	W12
	.byte		        Cn1 , v084
	.byte		N11   , An1 
	.byte	W12
	.byte		        Bn0 , v088
	.byte		N11   , Bn1 
	.byte	W12
	.byte		        Cn1 
	.byte		N11   , Cn2 
	.byte	W12
	.byte		        Bn0 , v092
	.byte		N11   , En1 
	.byte		N11   , Dn2 
	.byte	W12
	.byte		        Cn1 , v096
	.byte		N11   , Dn2 
	.byte	W12
	.byte	PEND
@ 046   ----------------------------------------
Blazing_Fast_Battle_Divine_Protection_Required_4_046:
	.byte		N11   , Bn0 , v096
	.byte		N11   , En1 
	.byte		N11   , An2 
	.byte	W12
	.byte		        Cn1 
	.byte		N11   , Dn1 
	.byte	W12
	.byte		        Bn0 
	.byte		N11   , En1 
	.byte	W12
	.byte		        Cn1 
	.byte		N11   , Fn1 
	.byte		N11   , Fs1 
	.byte	W12
	.byte		        Bn0 
	.byte		N11   , En1 
	.byte	W12
	.byte		        Cn1 
	.byte		N11   , Dn1 
	.byte	W12
	.byte		        Bn0 
	.byte		N11   , Cs1 
	.byte		N11   , Fs1 
	.byte	W12
	.byte		        En1 
	.byte	W12
	.byte		        Bn0 
	.byte		N11   , Cs1 
	.byte		N11   , Fs1 
	.byte	W12
	.byte		        En1 
	.byte	W12
	.byte	PEND
@ 047   ----------------------------------------
Blazing_Fast_Battle_Divine_Protection_Required_4_047:
	.byte		N11   , Bn0 , v096
	.byte		N11   , En1 
	.byte		N11   , Bn2 
	.byte	W12
	.byte		        Cn1 
	.byte		N11   , Dn1 
	.byte	W12
	.byte		        Bn0 
	.byte		N11   , En1 
	.byte	W12
	.byte		        Cn1 
	.byte		N11   , Fn1 
	.byte		N11   , Fs1 
	.byte	W12
	.byte		        Bn0 
	.byte		N11   , En1 
	.byte	W12
	.byte		        Cn1 
	.byte		N11   , Dn1 
	.byte	W12
	.byte		        Bn0 
	.byte		N11   , Cs1 
	.byte		N11   , Fs1 
	.byte	W12
	.byte		        En1 
	.byte	W12
	.byte		        Bn0 
	.byte		N11   , Cs1 
	.byte		N11   , Fs1 
	.byte	W12
	.byte		        En1 
	.byte	W12
	.byte	PEND
@ 048   ----------------------------------------
Blazing_Fast_Battle_Divine_Protection_Required_4_048:
	.byte		N11   , Bn0 , v096
	.byte		N11   , En1 
	.byte		N11   , Bn2 
	.byte	W12
	.byte		        Cn1 
	.byte		N11   , Dn1 
	.byte	W12
	.byte		        Bn0 
	.byte		N11   , En1 
	.byte	W12
	.byte		        Cn1 
	.byte		N11   , Fn1 
	.byte		N11   , Fs1 
	.byte	W12
	.byte		        Bn0 
	.byte		N11   , En1 
	.byte	W12
	.byte		        Cn1 
	.byte		N11   , Dn1 
	.byte	W12
	.byte		        Bn0 
	.byte		N11   , Cs1 
	.byte		N11   , Fs1 
	.byte	W12
	.byte		        En1 
	.byte	W12
	.byte		        Bn0 
	.byte		N11   , Cs1 
	.byte		N11   , Fs1 
	.byte	W12
	.byte		        En1 
	.byte	W12
	.byte		        Bn0 
	.byte		N11   , An1 
	.byte	W12
	.byte		        En1 
	.byte	W12
	.byte	PEND
@ 049   ----------------------------------------
Blazing_Fast_Battle_Divine_Protection_Required_4_049:
	.byte		N11   , Bn0 , v096
	.byte		N11   , En1 
	.byte		N11   , En2 
	.byte	W12
	.byte		        Cn1 
	.byte		N11   , Dn1 
	.byte	W12
	.byte		        Bn0 
	.byte		N11   , En1 
	.byte	W12
	.byte		        Cn1 
	.byte		N11   , Fn1 
	.byte		N11   , Fs1 
	.byte	W12
	.byte		        Bn0 
	.byte		N11   , En1 
	.byte	W12
	.byte		        Cn1 
	.byte		N11   , Dn1 
	.byte	W12
	.byte		        Bn0 
	.byte		N11   , Cs1 
	.byte		N11   , Fs1 
	.byte	W12
	.byte		        En1 
	.byte	W12
	.byte		        Bn0 
	.byte		N11   , Cs1 
	.byte		N11   , Fs1 
	.byte	W12
	.byte		        En1 
	.byte	W12
	.byte		        Bn0 
	.byte		N11   , An1 
	.byte	W12
	.byte		        En1 
	.byte	W12
	.byte	PEND
@ 050   ----------------------------------------
Blazing_Fast_Battle_Divine_Protection_Required_4_050:
	.byte		N11   , Bn0 , v096
	.byte		N11   , Dn1 
	.byte		N11   , An2 
	.byte	W12
	.byte		        Cn1 
	.byte		N11   , En1 
	.byte	W12
	.byte		        Bn0 
	.byte		N11   , Cs1 
	.byte	W12
	.byte		        Cn1 
	.byte		N11   , En1 
	.byte	W12
	.byte		        Bn0 
	.byte		N11   , Cs1 
	.byte	W12
	.byte		        Cn1 
	.byte		N11   , En1 
	.byte	W12
	.byte	PEND
@ 051   ----------------------------------------
Blazing_Fast_Battle_Divine_Protection_Required_4_051:
	.byte		N11   , Bn0 , v096
	.byte		N11   , Cs1 
	.byte		N11   , As1 
	.byte	W12
	.byte		        Cn1 
	.byte		N11   , Dn1 
	.byte	W12
	.byte		        Bn0 
	.byte		N11   , Cs1 
	.byte	W12
	.byte		        Cn1 
	.byte		N11   , Dn1 
	.byte	W12
	.byte		        Bn0 
	.byte		N11   , Cs1 
	.byte	W12
	.byte		        Cn1 
	.byte		N11   , Dn1 
	.byte	W12
	.byte	PEND
@ 052   ----------------------------------------
	.byte		        Bn0 
	.byte		N11   , An1 
	.byte	W12
	.byte		        Cn1 , v100
	.byte		N11   , Dn1 
	.byte	W12
	.byte		        Bn0 , v104
	.byte		N11   , Cs1 
	.byte	W12
	.byte		        Cn1 , v108
	.byte		N11   , Dn1 
	.byte	W12
	.byte		        Bn0 , v112
	.byte		N11   , Cs1 
	.byte		N11   , An1 
	.byte	W12
	.byte		        Cn1 
	.byte	W12
@ 053   ----------------------------------------
	.byte	W72
@ 054   ----------------------------------------
	.byte		        Bn0 , v096
	.byte		N11   , Cn1 
	.byte		N11   , Fn1 
	.byte		N11   , En2 
	.byte	W12
	.byte		        Cn2 
	.byte	W12
	.byte		        Bn1 
	.byte	W12
	.byte		        Bn0 
	.byte		N11   , Cn1 
	.byte		N11   , Dn1 
	.byte		N11   , Bn2 
	.byte	W12
	.byte		        An1 
	.byte	W12
	.byte		        Fn1 
	.byte	W12
	.byte		        Bn0 
	.byte		N11   , Cn1 
	.byte		N11   , Dn1 
	.byte		N11   , Gn2 
	.byte	W12
	.byte		        Cs1 , v100
	.byte	W12
	.byte		        Bn0 , v104
	.byte		N11   , Cn1 
	.byte		N11   , En1 
	.byte		N11   , Gn2 
	.byte	W12
	.byte		        Cs1 , v108
	.byte	W12
@ 055   ----------------------------------------
	.byte		        Bn0 , v112
	.byte		N11   , Cn1 
	.byte		N11   , Fn1 
	.byte		N11   , An2 
	.byte	W96
@ 056   ----------------------------------------
	.byte	W48
	.byte		        Bn0 , v096
	.byte		N11   , Cn1 
	.byte		N11   , En1 
	.byte		N11   , Ds2 
	.byte	W48
@ 057   ----------------------------------------
	.byte		        Bn0 
	.byte		N11   , Cn1 
	.byte		N11   , En1 
	.byte		N11   , Fs1 
	.byte	W48
	.byte		        Bn0 
	.byte		N11   , Cn1 
	.byte		N11   , En1 
	.byte	W48
@ 058   ----------------------------------------
	.byte		        Bn0 
	.byte		N11   , Cn1 
	.byte		N11   , En1 
	.byte	W48
	.byte		        Bn0 
	.byte		N11   , Cn1 
	.byte		N11   , En1 
	.byte	W48
@ 059   ----------------------------------------
	.byte		        Bn0 
	.byte		N11   , Dn1 
	.byte		N11   , Fs1 
	.byte	W24
	.byte		        Bn0 
	.byte		N11   , Fs1 
	.byte	W24
	.byte		        Bn0 
	.byte		N11   , Dn1 
	.byte		N11   , Fs1 
	.byte	W24
	.byte		        Bn0 
	.byte		N11   , Fs1 
	.byte	W24
@ 060   ----------------------------------------
	.byte		        Bn0 
	.byte		N11   , Dn1 
	.byte		N11   , Fs1 
	.byte	W24
	.byte		        Bn0 
	.byte		N11   , Fs1 
	.byte	W24
	.byte		        Bn0 
	.byte		N11   , Cs1 
	.byte		N11   , Fs1 
	.byte	W24
	.byte		        Bn0 
	.byte		N11   , Fs1 
	.byte	W24
@ 061   ----------------------------------------
	.byte		        Bn0 
	.byte		N11   , Dn1 
	.byte		N11   , Fs1 
	.byte	W12
	.byte		N11   
	.byte	W12
	.byte		        Bn0 
	.byte		N11   , Fs1 
	.byte	W12
	.byte		N11   
	.byte	W12
	.byte		        Bn0 
	.byte		N11   , Dn1 
	.byte		N11   , Fs1 
	.byte	W12
	.byte		N11   
	.byte	W12
	.byte		        Bn0 
	.byte		N11   , Fs1 
	.byte	W12
	.byte		N11   
	.byte	W12
@ 062   ----------------------------------------
	.byte		        Bn0 
	.byte		N11   , Dn1 
	.byte		N11   , Fs1 
	.byte	W12
	.byte		N11   
	.byte	W12
	.byte		        Bn0 
	.byte		N11   , Fs1 
	.byte	W12
	.byte		N11   
	.byte	W12
	.byte		        Bn0 
	.byte		N11   , Cs1 
	.byte		N11   , Fs1 
	.byte	W12
	.byte		N11   
	.byte	W12
	.byte		        Bn0 
	.byte		N11   , Fs1 
	.byte	W12
	.byte		N11   
	.byte	W12
@ 063   ----------------------------------------
Blazing_Fast_Battle_Divine_Protection_Required_4_063:
	.byte		N11   , Bn0 , v064
	.byte		N11   , En1 
	.byte	W24
	.byte		        Cs1 
	.byte	W24
	.byte		        Bn0 
	.byte		N11   , En1 
	.byte		N11   , Fn2 
	.byte	W24
	.byte		        Cs1 
	.byte	W24
	.byte	PEND
@ 064   ----------------------------------------
	.byte	PATT
	 .word	Blazing_Fast_Battle_Divine_Protection_Required_4_063
@ 065   ----------------------------------------
	.byte	PATT
	 .word	Blazing_Fast_Battle_Divine_Protection_Required_4_063
@ 066   ----------------------------------------
	.byte	PATT
	 .word	Blazing_Fast_Battle_Divine_Protection_Required_4_063
@ 067   ----------------------------------------
Blazing_Fast_Battle_Divine_Protection_Required_4_067:
	.byte		N11   , Bn0 , v064
	.byte		N11   , Dn1 
	.byte	W24
	.byte		        Cs1 
	.byte	W24
	.byte		        Bn0 
	.byte		N11   , Dn1 
	.byte		N11   , Fn2 
	.byte	W24
	.byte		        Cs1 
	.byte	W24
	.byte	PEND
@ 068   ----------------------------------------
	.byte	PATT
	 .word	Blazing_Fast_Battle_Divine_Protection_Required_4_067
@ 069   ----------------------------------------
Blazing_Fast_Battle_Divine_Protection_Required_4_069:
	.byte		N11   , Bn0 , v064
	.byte		N11   , Fn1 
	.byte		N11   , Ds2 
	.byte	W12
	.byte		        En1 
	.byte	W12
	.byte		        Bn0 
	.byte		N11   , Dn1 
	.byte	W12
	.byte		        Cn2 
	.byte	W12
	.byte		        Bn0 
	.byte		N11   , Cs1 
	.byte		N11   , En1 
	.byte	W24
	.byte		        Bn0 
	.byte		N11   , Cs1 
	.byte		N11   , En1 
	.byte	W24
	.byte	PEND
@ 070   ----------------------------------------
	.byte	PATT
	 .word	Blazing_Fast_Battle_Divine_Protection_Required_4_069
@ 071   ----------------------------------------
Blazing_Fast_Battle_Divine_Protection_Required_4_071:
	.byte		N11   , Bn0 , v064
	.byte		N11   , Fn1 
	.byte		N11   , Ds2 
	.byte	W12
	.byte		        En1 
	.byte	W12
	.byte		        Bn0 
	.byte		N11   , Dn1 
	.byte	W12
	.byte		        Cn2 
	.byte	W12
	.byte		        Bn0 
	.byte		N11   , Cs1 
	.byte		N11   , En1 
	.byte	W24
	.byte		        Bn0 
	.byte		N11   , Cs1 
	.byte		N11   , En1 
	.byte	W12
	.byte		        Dn1 , v072
	.byte	W12
	.byte	PEND
@ 072   ----------------------------------------
Blazing_Fast_Battle_Divine_Protection_Required_4_072:
	.byte		N11   , Bn0 , v080
	.byte		N11   , Cn2 
	.byte	W12
	.byte		        Dn1 
	.byte	W12
	.byte		        Bn0 , v076
	.byte		N11   , En1 
	.byte	W12
	.byte		        Fn1 , v072
	.byte	W12
	.byte		        Bn0 , v064
	.byte		N11   , Cs1 
	.byte		N11   , Bn2 
	.byte	W24
	.byte		        Bn0 
	.byte		N11   , Cs1 
	.byte		N11   , En1 
	.byte	W24
	.byte	PEND
@ 073   ----------------------------------------
	.byte	PATT
	 .word	Blazing_Fast_Battle_Divine_Protection_Required_4_069
@ 074   ----------------------------------------
	.byte	PATT
	 .word	Blazing_Fast_Battle_Divine_Protection_Required_4_069
@ 075   ----------------------------------------
	.byte	PATT
	 .word	Blazing_Fast_Battle_Divine_Protection_Required_4_071
@ 076   ----------------------------------------
	.byte	PATT
	 .word	Blazing_Fast_Battle_Divine_Protection_Required_4_072
@ 077   ----------------------------------------
Blazing_Fast_Battle_Divine_Protection_Required_4_077:
	.byte		N11   , Bn0 , v064
	.byte		N11   , En1 
	.byte	W24
	.byte		        Bn0 
	.byte		N11   , Cs1 
	.byte	W24
	.byte		        Bn0 
	.byte		N11   , Cn2 
	.byte		N11   , Gn2 
	.byte	W24
	.byte		        Bn0 
	.byte		N11   , Cs1 
	.byte	W24
	.byte	PEND
@ 078   ----------------------------------------
	.byte	PATT
	 .word	Blazing_Fast_Battle_Divine_Protection_Required_4_077
@ 079   ----------------------------------------
	.byte	PATT
	 .word	Blazing_Fast_Battle_Divine_Protection_Required_4_077
@ 080   ----------------------------------------
	.byte	PATT
	 .word	Blazing_Fast_Battle_Divine_Protection_Required_4_077
@ 081   ----------------------------------------
	.byte	PATT
	 .word	Blazing_Fast_Battle_Divine_Protection_Required_4_077
@ 082   ----------------------------------------
	.byte	PATT
	 .word	Blazing_Fast_Battle_Divine_Protection_Required_4_077
@ 083   ----------------------------------------
	.byte		N11   , Bn0 , v064
	.byte		N11   , En1 
	.byte	W24
	.byte		        Bn0 
	.byte		N11   , Cs1 
	.byte	W24
	.byte		        Bn0 
	.byte		N11   , An1 
	.byte		N11   , Ds2 
	.byte	W12
	.byte		        Cn1 , v072
	.byte		N11   , Bn1 
	.byte		N11   , Fn2 
	.byte	W12
	.byte		        Cn1 , v076
	.byte		N11   , Cn2 
	.byte		N11   , Fn2 
	.byte	W12
@ 084   ----------------------------------------
Blazing_Fast_Battle_Divine_Protection_Required_4_084:
	.byte		N11   , Bn0 , v080
	.byte		N11   , Cn1 
	.byte		N11   , Cs1 
	.byte		N11   , Gn2 
	.byte	W36
	.byte		        Bn0 , v064
	.byte		N11   , Cn1 
	.byte		N11   , Cs1 
	.byte		N11   , En2 
	.byte	W36
	.byte		        Bn0 
	.byte		N11   , Fn1 
	.byte	W12
	.byte		        Cn1 , v068
	.byte		N11   , An1 
	.byte	W12
	.byte		        Bn0 , v072
	.byte		N11   , Bn1 
	.byte	W12
	.byte		        Cn1 , v076
	.byte		N11   , Cn2 
	.byte	W12
	.byte	PEND
@ 085   ----------------------------------------
	.byte	PATT
	 .word	Blazing_Fast_Battle_Divine_Protection_Required_4_084
@ 086   ----------------------------------------
	.byte		N11   , Bn0 , v080
	.byte		N11   , Cn1 
	.byte		N11   , Cs1 
	.byte		N11   , Gn2 
	.byte	W36
	.byte		        Bn0 , v064
	.byte		N11   , Cn1 
	.byte		N11   , Cs1 
	.byte		N11   , En2 
	.byte	W36
	.byte		        Bn0 
	.byte		N11   , Cn2 
	.byte	W12
	.byte		        Cn1 , v068
	.byte		N11   , An1 
	.byte	W12
	.byte		        Bn0 , v072
	.byte		N11   , Bn1 
	.byte	W12
	.byte		        Cn1 , v076
	.byte		N11   , Fn1 
	.byte	W12
@ 087   ----------------------------------------
	.byte		        Bn0 , v080
	.byte		N11   , Cn1 
	.byte		N11   , Cs1 
	.byte		N11   , Gn2 
	.byte	W36
	.byte		        Bn0 , v064
	.byte		N11   , Cn1 
	.byte		N11   , Dn1 
	.byte		N11   , Gn2 
	.byte	W36
	.byte		        Bn0 
	.byte		N11   , Dn2 
	.byte	W12
	.byte		        Cn1 , v068
	.byte		N11   , Cn2 
	.byte	W12
	.byte		        Bn0 , v072
	.byte		N11   , Bn1 
	.byte	W12
	.byte		        Cn1 , v076
	.byte		N11   , An1 
	.byte	W12
@ 088   ----------------------------------------
	.byte		        Bn0 , v080
	.byte		N11   , Cn1 
	.byte		N11   , Fn1 
	.byte		N11   , An2 
	.byte	W36
	.byte		        Fs1 , v096
	.byte		N11   , Gs1 
	.byte	W12
	.byte		        Cn1 , v064
	.byte	W24
	.byte		        Bn0 
	.byte		N11   , Cs1 
	.byte		N11   , Gn2 
	.byte	W24
	.byte		        Bn0 
	.byte		N11   , Cs1 
	.byte		N11   , Gn2 
	.byte	W24
@ 089   ----------------------------------------
Blazing_Fast_Battle_Divine_Protection_Required_4_089:
	.byte		N11   , Bn0 , v064
	.byte		N11   , Cn1 
	.byte		N11   , Dn1 
	.byte		N11   , As1 
	.byte	W36
	.byte		        Fs1 , v096
	.byte		N11   , Gs1 
	.byte	W12
	.byte		        Cn1 , v064
	.byte	W24
	.byte		        Bn0 
	.byte		N11   , Cs1 
	.byte		N11   , Gn2 
	.byte	W12
	.byte		N05   , Bn2 
	.byte	W06
	.byte		N05   
	.byte	W06
	.byte		N05   
	.byte	W06
	.byte		N05   
	.byte	W06
	.byte		N05   
	.byte	W06
	.byte		N05   
	.byte	W06
	.byte	PEND
@ 090   ----------------------------------------
	.byte	PATT
	 .word	Blazing_Fast_Battle_Divine_Protection_Required_4_089
@ 091   ----------------------------------------
	.byte		N11   , Bn0 , v064
	.byte		N11   , Cn1 
	.byte		N11   , Fn1 
	.byte	W12
	.byte		        En1 
	.byte	W12
	.byte		        Bn0 
	.byte		N11   , Dn1 
	.byte		N11   , Fs1 
	.byte	W12
	.byte		        Dn1 
	.byte		N11   , Fs1 
	.byte	W12
@ 092   ----------------------------------------
	.byte		        Bn0 
	.byte		N11   , Cs1 
	.byte	W24
	.byte		        Dn1 
	.byte	W12
	.byte		        Bn0 
	.byte		N11   , En1 
	.byte		N11   , Fs1 
	.byte	W24
@ 093   ----------------------------------------
	.byte		        Bn0 
	.byte		N11   , Dn1 
	.byte		N11   , As1 
	.byte	W24
	.byte		        Dn1 
	.byte	W12
	.byte		        Bn0 
	.byte		N11   , En1 
	.byte		N11   , Fs1 
	.byte	W24
@ 094   ----------------------------------------
	.byte		        Bn0 
	.byte		N11   , Cn1 
	.byte		N11   , An1 
	.byte		N11   , En2 
	.byte	W24
	.byte		        Dn1 , v068
	.byte	W12
	.byte		        Bn0 
	.byte		N11   , En1 
	.byte	W36
@ 095   ----------------------------------------
	.byte		        Bn0 , v072
	.byte		N11   , En1 
	.byte		N11   , Fn1 
	.byte	W36
	.byte		        Bn0 , v076
	.byte		N11   , En1 
	.byte	W36
@ 096   ----------------------------------------
	.byte		        Bn0 , v080
	.byte		N11   , Cn1 
	.byte		N11   , Fn1 
	.byte		N11   , En2 
	.byte	W12
	.byte		        Dn1 , v084
	.byte	W12
	.byte		        En1 
	.byte	W12
	.byte		        Bn0 
	.byte		N11   , En1 
	.byte		N11   , Fn1 
	.byte	W12
	.byte		        Bn1 , v088
	.byte	W12
	.byte		N11   
	.byte	W12
@ 097   ----------------------------------------
	.byte		        Bn0 
	.byte		N11   , Fn1 
	.byte	W12
	.byte		        En1 , v092
	.byte	W12
	.byte		        Dn1 
	.byte	W12
	.byte		        Bn0 
	.byte		N11   , Cs1 
	.byte		N11   , Dn1 
	.byte	W12
	.byte		        Cs1 , v096
	.byte		N11   , Dn1 
	.byte	W12
	.byte		        Cs1 
	.byte		N11   , Dn1 
	.byte	W12
@ 098   ----------------------------------------
	.byte		        Bn0 
	.byte		N11   , Cn1 
	.byte		N11   , Cs2 
	.byte		N11   , Gs2 
	.byte	W24
	.byte		N05   , Ds2 , v064
	.byte	W06
	.byte		N05   
	.byte	W06
	.byte		        Ds2 , v076
	.byte	W06
	.byte		        Ds2 , v088
	.byte	W06
	.byte		N11   , Cs1 , v096
	.byte		N11   , Ds2 
	.byte	W48
@ 099   ----------------------------------------
Blazing_Fast_Battle_Divine_Protection_Required_4_099:
	.byte		N11   , Bn0 , v064
	.byte		N11   , En1 
	.byte	W48
	.byte		        Bn0 
	.byte		N11   , En1 
	.byte	W48
	.byte	PEND
@ 100   ----------------------------------------
Blazing_Fast_Battle_Divine_Protection_Required_4_100:
	.byte		N11   , Bn0 , v060
	.byte		N11   , En1 
	.byte	W48
	.byte		        Bn0 , v056
	.byte		N11   , En1 
	.byte	W48
	.byte	PEND
@ 101   ----------------------------------------
	.byte		        Bn0 
	.byte		N11   , En1 
	.byte	W48
	.byte		        Bn0 , v052
	.byte		N11   , En1 
	.byte	W48
@ 102   ----------------------------------------
	.byte		        Bn0 , v080
	.byte		N11   , Dn1 
	.byte		N11   , Ds2 
	.byte	W48
	.byte		        Bn0 , v076
	.byte		N11   , En1 
	.byte	W48
@ 103   ----------------------------------------
	.byte	PATT
	 .word	Blazing_Fast_Battle_Divine_Protection_Required_4_099
@ 104   ----------------------------------------
	.byte	PATT
	 .word	Blazing_Fast_Battle_Divine_Protection_Required_4_100
@ 105   ----------------------------------------
	.byte		N11   , Bn0 , v052
	.byte		N11   , En1 
	.byte	W48
	.byte		        Bn0 
	.byte		N11   , En1 
	.byte	W48
@ 106   ----------------------------------------
Blazing_Fast_Battle_Divine_Protection_Required_4_106:
	.byte		N11   , Bn0 , v052
	.byte		N11   , En1 
	.byte		N11   , Fs1 
	.byte	W36
	.byte		        Bn0 
	.byte		N11   , Fs1 
	.byte	W36
	.byte		        Bn0 
	.byte		N11   , Fs1 
	.byte	W24
	.byte		        Bn0 
	.byte		N11   , Fs1 
	.byte	W24
	.byte	PEND
@ 107   ----------------------------------------
	.byte	PATT
	 .word	Blazing_Fast_Battle_Divine_Protection_Required_4_106
@ 108   ----------------------------------------
	.byte		N11   , Bn0 , v052
	.byte		N11   , En1 
	.byte		N11   , Fs1 
	.byte	W36
	.byte		        Bn0 
	.byte		N11   , Fs1 
	.byte	W36
	.byte		        Bn0 
	.byte		N11   , Fs1 
	.byte	W24
	.byte		        Bn0 , v056
	.byte		N11   , Fs1 
	.byte	W24
	.byte		        Bn0 
	.byte		N11   , Fs1 
	.byte	W24
@ 109   ----------------------------------------
	.byte		        Bn0 
	.byte		N11   , En1 
	.byte		N11   , Fs1 
	.byte	W36
	.byte		        Bn0 
	.byte		N11   , Fs1 
	.byte	W36
	.byte		        Bn0 
	.byte		N11   , Fs1 
	.byte	W24
	.byte		        Bn0 
	.byte		N11   , Fs1 
	.byte	W24
	.byte		        Bn0 
	.byte		N11   , Fs1 
	.byte	W24
@ 110   ----------------------------------------
	.byte		        Bn0 
	.byte		N11   , En1 
	.byte		N11   , Fs1 
	.byte	W12
	.byte		N11   
	.byte	W12
	.byte		        Bn0 
	.byte		N11   , Fs1 
	.byte	W12
	.byte		N11   
	.byte	W12
	.byte		        Bn0 
	.byte		N11   , Fs1 
	.byte	W12
	.byte		N11   
	.byte	W12
@ 111   ----------------------------------------
	.byte		        Bn0 
	.byte		N11   , Fs1 , v068
	.byte	W12
	.byte		        Cn1 , v060
	.byte		N11   , Fs1 
	.byte	W12
	.byte		        Bn0 
	.byte		N11   , Fs1 , v068
	.byte	W12
	.byte		        Cn1 , v060
	.byte		N11   , Fs1 
	.byte	W12
	.byte		        Bn0 
	.byte		N11   , Fs1 , v068
	.byte	W12
	.byte		        Cn1 , v060
	.byte		N11   , Fs1 
	.byte	W12
@ 112   ----------------------------------------
	.byte		        Bn0 
	.byte		N11   , Cs1 
	.byte		N11   , Fs1 
	.byte	W12
	.byte		        Cn1 
	.byte		N11   , Fs1 
	.byte	W12
	.byte		        Bn0 
	.byte		N11   , Cs1 
	.byte		N11   , Fs1 
	.byte	W12
	.byte		        Cn1 
	.byte		N11   , Fs1 
	.byte	W12
	.byte		        Bn0 
	.byte		N11   , En1 
	.byte		N11   , Fs1 
	.byte	W12
	.byte		        Cn1 
	.byte		N11   , Fs1 
	.byte	W12
@ 113   ----------------------------------------
	.byte		        Bn0 
	.byte		N11   , Dn1 
	.byte		N11   , Fs1 
	.byte	W12
	.byte		        Cn1 
	.byte	W12
	.byte		        Bn0 
	.byte		N11   , En1 
	.byte	W12
	.byte		        Cn1 
	.byte		N11   , Dn1 
	.byte		N11   , Fs1 
	.byte	W12
	.byte		        Bn0 
	.byte	W12
	.byte		        Cn1 
	.byte		N11   , En1 
	.byte	W12
	.byte		        Bn0 
	.byte		N11   , Cs1 
	.byte		N11   , Dn1 
	.byte	W12
	.byte		        Fs1 
	.byte	W12
	.byte		        Bn0 
	.byte		N11   , Cs1 
	.byte		N11   , Dn1 
	.byte	W12
	.byte		        Fs1 
	.byte	W12
@ 114   ----------------------------------------
	.byte		        Bn0 
	.byte		N11   , Dn1 
	.byte		N11   , Fs1 
	.byte	W12
	.byte		        Cn1 
	.byte	W12
	.byte		        Bn0 , v064
	.byte		N11   , En1 
	.byte	W12
	.byte		        Cn1 
	.byte		N11   , Dn1 
	.byte		N11   , Fs1 
	.byte	W12
	.byte		        Bn0 
	.byte	W12
	.byte		        Cn1 
	.byte		N11   , En1 
	.byte	W12
	.byte		        Bn0 
	.byte		N11   , Cs1 
	.byte		N11   , Dn1 
	.byte	W12
	.byte		        Fs1 
	.byte	W12
	.byte		        Bn0 
	.byte		N11   , Cs1 
	.byte		N11   , Dn1 
	.byte	W12
	.byte		        Fs1 
	.byte	W12
@ 115   ----------------------------------------
	.byte		        Bn0 
	.byte		N11   , Dn1 
	.byte		N11   , Fs1 
	.byte	W12
	.byte		        Cn1 
	.byte		N11   , En1 
	.byte	W12
	.byte		        Bn0 
	.byte		N11   , En1 
	.byte	W12
	.byte		        Cn1 
	.byte		N11   , Dn1 
	.byte		N11   , Fs1 
	.byte	W12
	.byte		        Bn0 
	.byte		N11   , En1 
	.byte	W12
	.byte		        Cn1 
	.byte		N11   , En1 
	.byte	W12
	.byte		        Bn0 
	.byte		N11   , Cs1 
	.byte		N11   , Dn1 
	.byte	W12
	.byte		        Fs1 
	.byte	W12
	.byte		        Bn0 
	.byte		N11   , Cs1 
	.byte		N11   , Dn1 
	.byte	W12
	.byte		        Fs1 
	.byte	W12
	.byte		        Bn0 
	.byte		N11   , Cs1 
	.byte		N11   , Dn1 
	.byte	W12
	.byte		        En1 
	.byte	W12
@ 116   ----------------------------------------
	.byte		        Bn0 
	.byte		N11   , Dn1 
	.byte		N11   , Fs1 
	.byte	W12
	.byte		        Cn1 
	.byte		N11   , En1 
	.byte	W12
	.byte		        Bn0 
	.byte		N11   , En1 
	.byte	W12
	.byte		        Cn1 
	.byte		N11   , Dn1 
	.byte		N11   , Fs1 
	.byte	W12
	.byte		        Bn0 , v068
	.byte		N11   , En1 
	.byte	W12
	.byte		        Cn1 
	.byte		N11   , En1 
	.byte	W12
	.byte		        Bn0 
	.byte		N11   , Cs1 
	.byte		N11   , Dn1 
	.byte	W12
	.byte		        Fs1 
	.byte	W12
	.byte		        Bn0 
	.byte		N11   , Cs1 
	.byte		N11   , Dn1 
	.byte	W12
	.byte		        Fs1 
	.byte	W12
	.byte		        Bn0 
	.byte		N11   , Cs1 
	.byte		N11   , Dn1 
	.byte	W12
	.byte		        En1 
	.byte	W12
@ 117   ----------------------------------------
	.byte		        Bn0 
	.byte		N11   , Dn1 
	.byte		N11   , Fs2 
	.byte	W12
	.byte		        Cn1 
	.byte	W12
	.byte		        Bn0 
	.byte		N11   , Fn1 
	.byte		N11   , En3 
	.byte	W12
	.byte		        Cn1 
	.byte		N11   , Fn1 
	.byte		N11   , Ds3 
	.byte	W12
	.byte		        Bn0 
	.byte		N11   , Fn1 
	.byte		N11   , En3 
	.byte	W12
	.byte		        Cn1 
	.byte		N11   , Fn1 
	.byte		N11   , Ds3 
	.byte	W12
@ 118   ----------------------------------------
	.byte		        Bn0 
	.byte		N11   , Cn2 
	.byte	W12
	.byte		        Cn1 
	.byte		N11   , Dn2 
	.byte	W12
	.byte		        Bn0 
	.byte		N11   , Cn2 
	.byte	W12
	.byte		        Cn1 
	.byte		N11   , Dn2 
	.byte	W12
	.byte		        Bn0 
	.byte		N11   , Cn2 
	.byte	W12
	.byte		        Cn1 
	.byte		N11   , Dn2 
	.byte	W12
@ 119   ----------------------------------------
	.byte		        Bn0 
	.byte		N11   , Cn2 
	.byte	W12
	.byte		        Cn1 
	.byte		N11   , Bn1 
	.byte	W12
	.byte		        Bn0 
	.byte		N11   , An1 
	.byte	W12
	.byte		        Cn1 
	.byte		N11   , Fn1 
	.byte	W12
	.byte		        Bn0 , v072
	.byte		N11   , En1 
	.byte		N11   , Fs1 
	.byte	W12
	.byte		        Cn1 
	.byte		N11   , Dn1 
	.byte	W12
@ 120   ----------------------------------------
	.byte		        Bn0 
	.byte		N11   , En1 
	.byte		N11   , Gn2 
	.byte	W12
	.byte		        Cn1 
	.byte		N11   , Dn1 
	.byte	W12
	.byte		        Bn0 
	.byte		N11   , En1 
	.byte	W12
	.byte		        Cn1 
	.byte		N11   , Fn1 
	.byte		N11   , Fs1 
	.byte	W12
	.byte		        Bn0 
	.byte		N11   , En1 
	.byte	W12
	.byte		        Cn1 
	.byte		N11   , Dn1 
	.byte	W12
	.byte		        Bn0 
	.byte		N11   , Cs1 
	.byte		N11   , Fs1 
	.byte	W12
	.byte		        En1 
	.byte	W12
	.byte		        Bn0 
	.byte		N11   , Cs1 
	.byte		N11   , Fs1 
	.byte	W12
	.byte		        En1 
	.byte	W12
@ 121   ----------------------------------------
	.byte		        Bn0 
	.byte		N11   , En1 
	.byte		N11   , Bn2 
	.byte	W12
	.byte		        Cn1 
	.byte		N11   , Dn1 
	.byte	W12
	.byte		        Bn0 
	.byte		N11   , En1 
	.byte	W12
	.byte		        Cn1 
	.byte		N11   , Fn1 
	.byte		N11   , Fs1 
	.byte	W12
	.byte		        Bn0 
	.byte		N11   , En1 
	.byte	W12
	.byte		        Cn1 
	.byte		N11   , Dn1 
	.byte	W12
	.byte		        Bn0 
	.byte		N11   , Cs1 
	.byte		N11   , Fs1 
	.byte	W12
	.byte		        En1 
	.byte	W12
	.byte		        Bn0 
	.byte		N11   , Cs1 
	.byte		N11   , Fs1 
	.byte	W12
	.byte		        En1 
	.byte	W12
@ 122   ----------------------------------------
	.byte		        Bn0 
	.byte		N11   , En1 
	.byte		N11   , Bn2 
	.byte	W12
	.byte		        Cn1 , v076
	.byte		N11   , Dn1 
	.byte	W12
	.byte		        Bn0 
	.byte		N11   , En1 
	.byte	W12
	.byte		        Cn1 
	.byte		N11   , Fn1 
	.byte		N11   , Fs1 
	.byte	W12
	.byte		        Bn0 
	.byte		N11   , En1 
	.byte	W12
	.byte		        Cn1 
	.byte		N11   , Dn1 
	.byte	W12
	.byte		        Bn0 
	.byte		N11   , Cs1 
	.byte		N11   , Fs1 
	.byte	W12
	.byte		        En1 
	.byte	W12
	.byte		        Bn0 
	.byte		N11   , Cs1 
	.byte		N11   , Fs1 
	.byte	W12
	.byte		        En1 
	.byte	W12
	.byte		        Bn0 
	.byte		N11   , An1 
	.byte	W12
	.byte		        En1 
	.byte	W12
@ 123   ----------------------------------------
	.byte		        Bn0 
	.byte		N11   , En1 
	.byte		N11   , En2 
	.byte	W12
	.byte		        Cn1 
	.byte		N11   , Dn1 
	.byte	W12
	.byte		        Bn0 
	.byte		N11   , En1 
	.byte	W12
	.byte		        Cn1 
	.byte		N11   , Fn1 
	.byte		N11   , Fs1 
	.byte	W12
	.byte		        Bn0 
	.byte		N11   , En1 
	.byte	W12
	.byte		        Cn1 
	.byte		N11   , Dn1 
	.byte	W12
	.byte		        Bn0 
	.byte		N11   , Cs1 
	.byte		N11   , Fs1 
	.byte	W12
	.byte		        En1 
	.byte	W12
	.byte		        Bn0 
	.byte		N11   , Cs1 
	.byte		N11   , Fs1 
	.byte	W12
	.byte		        En1 
	.byte	W12
	.byte		        Bn0 
	.byte		N11   , An1 
	.byte	W12
	.byte		        En1 
	.byte	W12
@ 124   ----------------------------------------
	.byte		        Bn0 
	.byte		N11   , Dn1 
	.byte		N11   , Gn2 
	.byte	W12
	.byte		        Cn1 , v080
	.byte		N11   , Fs1 
	.byte	W12
	.byte		        Bn0 
	.byte		N11   , Dn1 
	.byte		N11   , En1 
	.byte	W12
	.byte		        Cn1 
	.byte		N11   , En1 
	.byte	W12
	.byte		        Bn0 
	.byte		N11   , Dn1 
	.byte		N11   , En1 
	.byte	W12
	.byte		        Cn1 
	.byte		N11   , En1 
	.byte	W12
@ 125   ----------------------------------------
	.byte		        Bn0 
	.byte		N11   , Dn1 
	.byte		N11   , Fn1 
	.byte	W12
	.byte		        Cn1 
	.byte		N11   , En1 
	.byte	W12
	.byte		        Bn0 
	.byte		N11   , Dn1 
	.byte		N11   , Fn1 
	.byte	W12
	.byte		        Cn1 
	.byte		N11   , En1 
	.byte	W12
	.byte		        Bn0 
	.byte		N11   , Fn1 
	.byte	W12
	.byte		        Cn1 
	.byte		N11   , An1 
	.byte	W12
@ 126   ----------------------------------------
	.byte		        Bn0 
	.byte		N11   , Dn1 
	.byte		N11   , An1 
	.byte	W12
	.byte		        Cn1 
	.byte		N11   , Fn1 
	.byte	W12
	.byte		        Bn0 
	.byte		N11   , Cs1 
	.byte		N11   , Fs1 
	.byte	W12
	.byte		        Cn1 
	.byte		N11   , Dn1 
	.byte	W12
	.byte		        Bn0 
	.byte		N11   , Cs1 
	.byte		N11   , Fs1 
	.byte	W12
	.byte		        Cn1 
	.byte		N11   , Dn1 
	.byte	W12
@ 127   ----------------------------------------
	.byte	PATT
	 .word	Blazing_Fast_Battle_Divine_Protection_Required_4_032
@ 128   ----------------------------------------
	.byte	PATT
	 .word	Blazing_Fast_Battle_Divine_Protection_Required_4_026
@ 129   ----------------------------------------
	.byte	PATT
	 .word	Blazing_Fast_Battle_Divine_Protection_Required_4_027
@ 130   ----------------------------------------
	.byte	PATT
	 .word	Blazing_Fast_Battle_Divine_Protection_Required_4_035
@ 131   ----------------------------------------
	.byte	PATT
	 .word	Blazing_Fast_Battle_Divine_Protection_Required_4_036
@ 132   ----------------------------------------
	.byte	PATT
	 .word	Blazing_Fast_Battle_Divine_Protection_Required_4_037
@ 133   ----------------------------------------
	.byte	PATT
	 .word	Blazing_Fast_Battle_Divine_Protection_Required_4_038
@ 134   ----------------------------------------
	.byte	PATT
	 .word	Blazing_Fast_Battle_Divine_Protection_Required_4_039
@ 135   ----------------------------------------
	.byte	PATT
	 .word	Blazing_Fast_Battle_Divine_Protection_Required_4_026
@ 136   ----------------------------------------
	.byte	PATT
	 .word	Blazing_Fast_Battle_Divine_Protection_Required_4_027
@ 137   ----------------------------------------
	.byte	PATT
	 .word	Blazing_Fast_Battle_Divine_Protection_Required_4_042
@ 138   ----------------------------------------
	.byte	PATT
	 .word	Blazing_Fast_Battle_Divine_Protection_Required_4_043
@ 139   ----------------------------------------
	.byte	PATT
	 .word	Blazing_Fast_Battle_Divine_Protection_Required_4_044
@ 140   ----------------------------------------
	.byte	PATT
	 .word	Blazing_Fast_Battle_Divine_Protection_Required_4_045
@ 141   ----------------------------------------
	.byte	PATT
	 .word	Blazing_Fast_Battle_Divine_Protection_Required_4_046
@ 142   ----------------------------------------
	.byte	PATT
	 .word	Blazing_Fast_Battle_Divine_Protection_Required_4_047
@ 143   ----------------------------------------
	.byte	PATT
	 .word	Blazing_Fast_Battle_Divine_Protection_Required_4_048
@ 144   ----------------------------------------
	.byte	PATT
	 .word	Blazing_Fast_Battle_Divine_Protection_Required_4_049
@ 145   ----------------------------------------
	.byte	PATT
	 .word	Blazing_Fast_Battle_Divine_Protection_Required_4_050
@ 146   ----------------------------------------
	.byte	PATT
	 .word	Blazing_Fast_Battle_Divine_Protection_Required_4_051
@ 147   ----------------------------------------
	.byte		N11   , Bn0 , v096
	.byte		N11   , An1 
	.byte	W12
	.byte		        Cn1 
	.byte		N11   , Dn1 
	.byte	W12
	.byte		        Bn0 
	.byte		N11   , Cs1 
	.byte	W12
	.byte		        Cn1 
	.byte		N11   , Dn1 
	.byte	W12
	.byte		        Bn0 
	.byte		N11   , Dn1 
	.byte		N11   , An1 
	.byte	W12
	.byte		        Cn1 
	.byte		N11   , En1 
	.byte		N11   , An1 
	.byte	W12
@ 148   ----------------------------------------
	.byte		        Bn0 
	.byte		N11   , En1 
	.byte		N11   , Fn1 
	.byte	W12
	.byte		        Cn1 
	.byte		N11   , Dn1 
	.byte	W12
	.byte		        Bn0 
	.byte		N11   , En1 
	.byte	W12
	.byte		        Cn1 
	.byte		N11   , Fn1 
	.byte		N11   , Fs1 
	.byte	W12
	.byte		        Bn0 
	.byte		N11   , En1 
	.byte	W12
	.byte		        Cn1 
	.byte		N11   , Dn1 
	.byte	W12
	.byte		        Bn0 
	.byte		N11   , Cs1 
	.byte		N11   , Fs1 
	.byte	W12
	.byte		        En1 
	.byte	W12
	.byte		        Bn0 
	.byte		N11   , Cs1 
	.byte		N11   , Fs1 
	.byte	W12
	.byte		        En1 
	.byte	W12
@ 149   ----------------------------------------
	.byte		        Bn0 
	.byte		N11   , En1 
	.byte		N11   , An1 
	.byte	W12
	.byte		        Cn1 
	.byte		N11   , Dn1 
	.byte	W12
	.byte		        Bn0 
	.byte		N11   , En1 
	.byte	W12
	.byte		        Cn1 
	.byte		N11   , Fn1 
	.byte		N11   , Fs1 
	.byte	W12
	.byte		        Bn0 
	.byte		N11   , En1 
	.byte	W12
	.byte		        Cn1 
	.byte		N11   , Dn1 
	.byte	W12
	.byte		        Bn0 
	.byte		N11   , Cs1 
	.byte		N11   , Fs1 
	.byte	W12
	.byte		        En1 
	.byte	W12
	.byte		        Bn0 
	.byte		N11   , Cs1 
	.byte		N11   , Fs1 
	.byte	W12
	.byte		        En1 
	.byte	W12
@ 150   ----------------------------------------
Blazing_Fast_Battle_Divine_Protection_Required_4_150:
	.byte		N11   , Bn0 , v096
	.byte		N11   , En1 
	.byte		N11   , Fn1 
	.byte	W12
	.byte		        Cn1 
	.byte		N11   , Dn1 
	.byte	W12
	.byte		        Bn0 
	.byte		N11   , En1 
	.byte	W12
	.byte		        Bn0 
	.byte		N11   , Cs1 
	.byte		N11   , Fs1 
	.byte	W12
	.byte		        En1 
	.byte	W12
	.byte	PEND
@ 151   ----------------------------------------
Blazing_Fast_Battle_Divine_Protection_Required_4_151:
	.byte		N11   , Bn0 , v096
	.byte		N11   , En1 
	.byte		N11   , An1 
	.byte	W12
	.byte		        Cn1 
	.byte		N11   , Dn1 
	.byte	W12
	.byte		        Bn0 
	.byte		N11   , En1 
	.byte	W12
	.byte		        Bn0 
	.byte		N11   , Cs1 
	.byte		N11   , Fs1 
	.byte	W12
	.byte		        En1 
	.byte	W12
	.byte	PEND
@ 152   ----------------------------------------
	.byte	PATT
	 .word	Blazing_Fast_Battle_Divine_Protection_Required_4_150
@ 153   ----------------------------------------
	.byte	PATT
	 .word	Blazing_Fast_Battle_Divine_Protection_Required_4_151
@ 154   ----------------------------------------
Blazing_Fast_Battle_Divine_Protection_Required_4_154:
	.byte		N11   , Bn0 , v096
	.byte		N11   , En1 
	.byte		N11   , Bn1 
	.byte	W12
	.byte		        Cn1 
	.byte		N11   , Dn1 
	.byte	W12
	.byte		        Bn0 
	.byte		N11   , Cs1 
	.byte		N11   , Cn2 
	.byte	W12
	.byte		        Cn1 
	.byte		N11   , Dn1 
	.byte	W12
	.byte		        Bn0 
	.byte		N11   , En1 
	.byte		N11   , Bn1 
	.byte	W12
	.byte		        Cn1 
	.byte		N11   , Dn1 
	.byte	W12
	.byte	PEND
@ 155   ----------------------------------------
	.byte		        Bn0 
	.byte		N11   , Cs1 
	.byte		N11   , Cn2 
	.byte	W12
	.byte		        Cn1 
	.byte		N11   , Dn1 
	.byte	W12
	.byte		        Bn0 
	.byte		N11   , En1 
	.byte		N11   , Bn1 
	.byte	W12
	.byte		        Cn1 
	.byte		N11   , Dn1 
	.byte	W12
	.byte		        Bn0 
	.byte		N11   , Cs1 
	.byte		N11   , Cn2 
	.byte	W12
	.byte		        Cn1 
	.byte		N11   , Dn1 
	.byte	W12
@ 156   ----------------------------------------
	.byte	PATT
	 .word	Blazing_Fast_Battle_Divine_Protection_Required_4_154
@ 157   ----------------------------------------
	.byte		N11   , Bn0 , v096
	.byte		N11   , Cn1 
	.byte		N11   , Cs1 
	.byte		N11   , Fn1 
	.byte	W72
@ 158   ----------------------------------------
	.byte		        Bn0 
	.byte		N11   , Cn1 
	.byte		N11   , En1 , v116
	.byte		N11   , En2 
	.byte	W72
@ 159   ----------------------------------------
	.byte	W96
@ 160   ----------------------------------------
	.byte		        Bn0 , v096
	.byte		N11   , Cn1 
	.byte		N11   , Dn1 
	.byte	W72
	.byte		        Cn1 
	.byte		N11   , Dn1 
	.byte		N11   , Fs1 
	.byte	W24
	.byte		        Cn1 
	.byte		N11   , Dn1 
	.byte		N11   , Fs1 
	.byte	W24
@ 161   ----------------------------------------
	.byte		        Bn0 
	.byte		N11   , Cn1 
	.byte		N11   , Fn1 
	.byte		N11   , An2 
	.byte	W24
	.byte		        Dn1 
	.byte	W12
	.byte		        En1 , v104
	.byte	W12
	.byte		        Fn1 , v112
	.byte	W12
	.byte		        Fn1 , v120
	.byte	W12
	.byte		        Bn0 , v127
	.byte		N11   , Cn1 
	.byte		N11   , Fn1 
	.byte	W12
	.byte		        Cn1 
	.byte		N11   , An1 
	.byte	W12
	.byte		        Bn0 
	.byte		N11   , Bn1 
	.byte	W12
	.byte		        Cn1 
	.byte		N11   , Cn2 
	.byte	W12
	.byte		        Bn0 
	.byte		N11   , Dn2 
	.byte	W12
	.byte		        Cn1 
	.byte		N11   , Cn2 
	.byte	W12
@ 162   ----------------------------------------
	.byte		        Bn0 
	.byte		N11   , Cn1 
	.byte		N11   , Cs1 
	.byte		N11   , Bn1 
	.byte	W12
	.byte		        An1 
	.byte	W12
	.byte		        Dn1 
	.byte	W12
	.byte		        En1 
	.byte	W12
	.byte		        Fn1 
	.byte	W12
	.byte		N11   
	.byte	W12
	.byte		        Bn0 
	.byte		N11   , Cn1 
	.byte		N11   , Fn1 
	.byte	W12
	.byte		        Cn1 
	.byte		N11   , En1 
	.byte		N11   , Fs1 
	.byte	W12
	.byte		        Bn0 
	.byte		N11   , Cs1 
	.byte		N11   , Dn1 
	.byte	W12
	.byte		        Cn1 
	.byte		N11   , En1 
	.byte		N11   , Fs1 
	.byte	W12
	.byte		        Bn0 
	.byte		N11   , Cs1 
	.byte		N11   , Cn2 
	.byte	W12
	.byte		        Cn1 
	.byte		N11   , Fs1 
	.byte		N11   , Dn2 
	.byte	W12
@ 163   ----------------------------------------
	.byte		        Bn0 
	.byte		N11   , Cn1 
	.byte		N11   , Dn1 
	.byte		N11   , Cs2 
	.byte	W44
	.byte	W03
	.byte	GOTO
	 .word	Blazing_Fast_Battle_Divine_Protection_Required_4_B1
Blazing_Fast_Battle_Divine_Protection_Required_4_B2:
	.byte	FINE

@******************************************************@
	.align	2

Blazing_Fast_Battle_Divine_Protection_Required:
	.byte	4	@ NumTrks
	.byte	0	@ NumBlks
	.byte	Blazing_Fast_Battle_Divine_Protection_Required_pri	@ Priority
	.byte	Blazing_Fast_Battle_Divine_Protection_Required_rev	@ Reverb.

	.word	Blazing_Fast_Battle_Divine_Protection_Required_grp

	.word	Blazing_Fast_Battle_Divine_Protection_Required_1
	.word	Blazing_Fast_Battle_Divine_Protection_Required_2
	.word	Blazing_Fast_Battle_Divine_Protection_Required_3
	.word	Blazing_Fast_Battle_Divine_Protection_Required_4

	.end
