	.include "MPlayDef.s"

	.equ	Red_Like_Roses_Part_II_grp, voicegroup000
	.equ	Red_Like_Roses_Part_II_pri, 0
	.equ	Red_Like_Roses_Part_II_rev, 0
	.equ	Red_Like_Roses_Part_II_mvl, 55
	.equ	Red_Like_Roses_Part_II_key, 0
	.equ	Red_Like_Roses_Part_II_tbs, 1
	.equ	Red_Like_Roses_Part_II_exg, 0
	.equ	Red_Like_Roses_Part_II_cmp, 1

	.section .rodata
	.global	Red_Like_Roses_Part_II
	.align	2

@**************** Track 1 (Midi-Chn.1) ****************@

Red_Like_Roses_Part_II_1:
	.byte	KEYSH , Red_Like_Roses_Part_II_key+0
Red_Like_Roses_Part_II_1_B1:
@ 000   ----------------------------------------
	.byte	TEMPO , 210*Red_Like_Roses_Part_II_tbs/2
	.byte		VOICE , 73
	.byte		VOL   , 127*Red_Like_Roses_Part_II_mvl/mxv
	.byte		PAN   , c_v+0
	.byte	W96
@ 001   ----------------------------------------
	.byte	W96
@ 002   ----------------------------------------
	.byte	W96
@ 003   ----------------------------------------
	.byte	W96
@ 004   ----------------------------------------
	.byte	W96
@ 005   ----------------------------------------
	.byte	W96
@ 006   ----------------------------------------
	.byte	W96
@ 007   ----------------------------------------
	.byte	W96
@ 008   ----------------------------------------
	.byte	W96
@ 009   ----------------------------------------
	.byte	W96
@ 010   ----------------------------------------
	.byte	W96
@ 011   ----------------------------------------
	.byte	W96
@ 012   ----------------------------------------
	.byte	W96
@ 013   ----------------------------------------
	.byte	W96
@ 014   ----------------------------------------
	.byte	W96
@ 015   ----------------------------------------
	.byte	W96
@ 016   ----------------------------------------
	.byte	W96
@ 017   ----------------------------------------
	.byte	W96
@ 018   ----------------------------------------
	.byte	W96
@ 019   ----------------------------------------
	.byte	W96
@ 020   ----------------------------------------
	.byte	W96
@ 021   ----------------------------------------
	.byte	W96
@ 022   ----------------------------------------
	.byte	W96
@ 023   ----------------------------------------
	.byte	W96
@ 024   ----------------------------------------
	.byte	W96
@ 025   ----------------------------------------
	.byte	W96
@ 026   ----------------------------------------
	.byte	W96
@ 027   ----------------------------------------
	.byte	W96
@ 028   ----------------------------------------
	.byte	W96
@ 029   ----------------------------------------
	.byte	W96
@ 030   ----------------------------------------
	.byte	W96
@ 031   ----------------------------------------
	.byte	W96
@ 032   ----------------------------------------
	.byte	W96
@ 033   ----------------------------------------
	.byte	W96
@ 034   ----------------------------------------
	.byte	W96
@ 035   ----------------------------------------
	.byte	W96
@ 036   ----------------------------------------
	.byte	W96
@ 037   ----------------------------------------
	.byte	W96
@ 038   ----------------------------------------
	.byte	W96
@ 039   ----------------------------------------
	.byte	W96
@ 040   ----------------------------------------
	.byte	W96
@ 041   ----------------------------------------
	.byte	W96
@ 042   ----------------------------------------
	.byte	W96
@ 043   ----------------------------------------
	.byte	W96
@ 044   ----------------------------------------
	.byte	W96
@ 045   ----------------------------------------
	.byte	W96
@ 046   ----------------------------------------
	.byte	W96
@ 047   ----------------------------------------
	.byte	W96
@ 048   ----------------------------------------
	.byte	W96
@ 049   ----------------------------------------
	.byte	W96
@ 050   ----------------------------------------
	.byte	W96
@ 051   ----------------------------------------
	.byte	W96
@ 052   ----------------------------------------
	.byte	W96
@ 053   ----------------------------------------
	.byte	W96
@ 054   ----------------------------------------
	.byte	W96
@ 055   ----------------------------------------
	.byte	W96
@ 056   ----------------------------------------
	.byte	W96
@ 057   ----------------------------------------
	.byte	W96
@ 058   ----------------------------------------
	.byte	W96
@ 059   ----------------------------------------
	.byte	W96
@ 060   ----------------------------------------
	.byte	W96
@ 061   ----------------------------------------
	.byte	W96
@ 062   ----------------------------------------
	.byte	W96
@ 063   ----------------------------------------
	.byte	W96
@ 064   ----------------------------------------
	.byte	W96
@ 065   ----------------------------------------
	.byte	W96
@ 066   ----------------------------------------
	.byte	W96
@ 067   ----------------------------------------
	.byte	W96
@ 068   ----------------------------------------
	.byte	W96
@ 069   ----------------------------------------
	.byte	W96
@ 070   ----------------------------------------
	.byte	W96
@ 071   ----------------------------------------
	.byte	W96
@ 072   ----------------------------------------
	.byte	W96
@ 073   ----------------------------------------
	.byte	W96
@ 074   ----------------------------------------
	.byte	W96
@ 075   ----------------------------------------
	.byte	W96
@ 076   ----------------------------------------
	.byte	W96
@ 077   ----------------------------------------
	.byte	W96
@ 078   ----------------------------------------
	.byte	W96
@ 079   ----------------------------------------
	.byte	W96
@ 080   ----------------------------------------
Red_Like_Roses_Part_II_1_080:
	.byte	W12
	.byte		N11   , Bn2 , v112
	.byte	W12
	.byte		N11   
	.byte	W12
	.byte		N11   
	.byte	W12
	.byte		N11   
	.byte	W12
	.byte		N11   
	.byte	W12
	.byte		N11   
	.byte	W12
	.byte		N11   
	.byte	W12
	.byte	PEND
@ 081   ----------------------------------------
Red_Like_Roses_Part_II_1_081:
	.byte		N11   , Bn2 , v112
	.byte	W12
	.byte		N11   
	.byte	W12
	.byte		N11   
	.byte	W12
	.byte		N11   
	.byte	W12
	.byte		        Dn3 
	.byte	W12
	.byte		N32   , Bn2 
	.byte	W36
	.byte	PEND
@ 082   ----------------------------------------
	.byte	W24
	.byte		N11   
	.byte	W12
	.byte		N11   
	.byte	W12
	.byte		N11   
	.byte	W12
	.byte		N11   
	.byte	W12
	.byte		N11   
	.byte	W12
	.byte		N11   
	.byte	W12
@ 083   ----------------------------------------
	.byte		N11   
	.byte	W12
	.byte		N11   
	.byte	W12
	.byte		N11   
	.byte	W12
	.byte		N11   
	.byte	W12
	.byte		        En3 
	.byte	W12
	.byte		N23   , Dn3 
	.byte	W36
@ 084   ----------------------------------------
Red_Like_Roses_Part_II_1_084:
	.byte	W12
	.byte		N11   , Dn3 , v112
	.byte	W12
	.byte		N11   
	.byte	W12
	.byte		N11   
	.byte	W12
	.byte		N11   
	.byte	W12
	.byte		N11   
	.byte	W12
	.byte		N11   
	.byte	W12
	.byte		N11   
	.byte	W12
	.byte	PEND
@ 085   ----------------------------------------
	.byte		N11   
	.byte	W12
	.byte		N11   
	.byte	W12
	.byte		N11   
	.byte	W12
	.byte		N11   
	.byte	W12
	.byte		N23   
	.byte	W48
@ 086   ----------------------------------------
	.byte	W12
	.byte		N11   
	.byte	W12
	.byte		        En3 
	.byte	W12
	.byte		        Dn3 
	.byte	W12
	.byte		        En3 
	.byte	W12
	.byte		        Dn3 
	.byte	W12
	.byte		        En3 
	.byte	W12
	.byte		        Dn3 
	.byte	W12
@ 087   ----------------------------------------
	.byte		        En3 
	.byte	W12
	.byte		        Dn3 
	.byte	W12
	.byte		        En3 
	.byte	W12
	.byte		        Dn3 
	.byte	W12
	.byte		N23   , Fs3 
	.byte	W48
@ 088   ----------------------------------------
	.byte	PATT
	 .word	Red_Like_Roses_Part_II_1_080
@ 089   ----------------------------------------
	.byte	PATT
	 .word	Red_Like_Roses_Part_II_1_081
@ 090   ----------------------------------------
	.byte	PATT
	 .word	Red_Like_Roses_Part_II_1_080
@ 091   ----------------------------------------
	.byte		N11   , Bn2 , v112
	.byte	W12
	.byte		N11   
	.byte	W12
	.byte		N11   
	.byte	W12
	.byte		N11   
	.byte	W12
	.byte		        En3 
	.byte	W12
	.byte		        Dn3 
	.byte	W36
@ 092   ----------------------------------------
	.byte	PATT
	 .word	Red_Like_Roses_Part_II_1_084
@ 093   ----------------------------------------
	.byte		N11   , En3 , v112
	.byte	W12
	.byte		        Dn3 
	.byte	W12
	.byte		        En3 
	.byte	W12
	.byte		        Dn3 
	.byte	W12
	.byte		        En3 
	.byte	W12
	.byte		        Dn3 
	.byte	W36
@ 094   ----------------------------------------
	.byte	W12
	.byte		        Fs3 
	.byte	W12
	.byte		N11   
	.byte	W12
	.byte		N11   
	.byte	W12
	.byte		        An3 
	.byte	W12
	.byte		        Fs3 
	.byte	W12
	.byte		        An3 
	.byte	W12
	.byte		        Fs3 
	.byte	W12
@ 095   ----------------------------------------
	.byte		        An3 
	.byte	W12
	.byte		        Fs3 
	.byte	W12
	.byte		        An3 
	.byte	W12
	.byte		        Fs3 
	.byte	W12
	.byte		        An3 
	.byte	W12
	.byte		N23   , Bn3 
	.byte	W36
@ 096   ----------------------------------------
Red_Like_Roses_Part_II_1_096:
	.byte	W12
	.byte		N11   , Fs3 , v112
	.byte	W12
	.byte		N11   
	.byte	W12
	.byte		N11   
	.byte	W12
	.byte		N11   
	.byte	W12
	.byte		N11   
	.byte	W12
	.byte		N11   
	.byte	W12
	.byte		N11   
	.byte	W12
	.byte	PEND
@ 097   ----------------------------------------
Red_Like_Roses_Part_II_1_097:
	.byte		N11   , Fs3 , v112
	.byte	W12
	.byte		N11   
	.byte	W12
	.byte		N11   
	.byte	W12
	.byte		N11   
	.byte	W12
	.byte		N23   , An3 
	.byte	W24
	.byte		N11   , Fs3 
	.byte	W12
	.byte		N11   
	.byte	W12
	.byte	PEND
@ 098   ----------------------------------------
Red_Like_Roses_Part_II_1_098:
	.byte		N11   , Fs3 , v112
	.byte	W12
	.byte		N11   
	.byte	W12
	.byte		N11   
	.byte	W12
	.byte		N11   
	.byte	W12
	.byte		N11   
	.byte	W12
	.byte		N11   
	.byte	W12
	.byte		N11   
	.byte	W12
	.byte		N11   
	.byte	W12
	.byte	PEND
@ 099   ----------------------------------------
	.byte		N11   
	.byte	W12
	.byte		N11   
	.byte	W12
	.byte		N11   
	.byte	W12
	.byte		N32   , An3 
	.byte	W60
@ 100   ----------------------------------------
	.byte	PATT
	 .word	Red_Like_Roses_Part_II_1_096
@ 101   ----------------------------------------
	.byte	PATT
	 .word	Red_Like_Roses_Part_II_1_097
@ 102   ----------------------------------------
	.byte	PATT
	 .word	Red_Like_Roses_Part_II_1_098
@ 103   ----------------------------------------
	.byte		N11   , Fs3 , v112
	.byte	W12
	.byte		N11   
	.byte	W12
	.byte		N11   
	.byte	W12
	.byte		N11   
	.byte	W12
	.byte		N44   , Cn4 
	.byte	W48
@ 104   ----------------------------------------
	.byte	PATT
	 .word	Red_Like_Roses_Part_II_1_096
@ 105   ----------------------------------------
	.byte	PATT
	 .word	Red_Like_Roses_Part_II_1_098
@ 106   ----------------------------------------
	.byte		N23   , Fs3 , v112
	.byte	W24
	.byte		N23   
	.byte	W24
	.byte		N23   
	.byte	W24
	.byte		N11   
	.byte	W12
	.byte		N11   
	.byte	W12
@ 107   ----------------------------------------
	.byte		N23   
	.byte	W24
	.byte		N23   
	.byte	W24
	.byte		N11   
	.byte	W12
	.byte		N11   
	.byte	W24
	.byte		N11   
	.byte	W12
@ 108   ----------------------------------------
	.byte		N11   
	.byte	W12
	.byte		N11   
	.byte	W12
	.byte		N11   
	.byte	W12
	.byte		N11   
	.byte	W12
	.byte		N23   
	.byte	W24
	.byte		N11   
	.byte	W12
	.byte		N11   
	.byte	W12
@ 109   ----------------------------------------
	.byte		N11   
	.byte	W12
	.byte		N11   
	.byte	W12
	.byte		N23   
	.byte	W24
	.byte		N23   
	.byte	W24
	.byte		N11   
	.byte	W12
	.byte		N11   
	.byte	W12
@ 110   ----------------------------------------
	.byte	PATT
	 .word	Red_Like_Roses_Part_II_1_098
@ 111   ----------------------------------------
	.byte		N11   , Fs3 , v112
	.byte	W12
	.byte		N11   
	.byte	W12
	.byte		N11   
	.byte	W12
	.byte		N11   
	.byte	W12
	.byte		N32   , Cn4 
	.byte	W48
@ 112   ----------------------------------------
	.byte	W72
	.byte		N23   , Cs4 
	.byte	W24
@ 113   ----------------------------------------
	.byte		        Dn4 
	.byte	W24
	.byte		        Cs4 
	.byte	W24
	.byte		N11   , Bn3 
	.byte	W12
	.byte		N23   , Cs4 
	.byte	W24
	.byte		N56   , Bn3 
	.byte	W12
@ 114   ----------------------------------------
	.byte	W48
	.byte		TIE   , Fs3 
	.byte	W48
@ 115   ----------------------------------------
	.byte	W68
	.byte	W03
	.byte		EOT   
	.byte	W24
	.byte	W01
@ 116   ----------------------------------------
	.byte	W60
	.byte		N23   , Cs4 
	.byte	W24
	.byte		        Dn4 
	.byte	W12
@ 117   ----------------------------------------
	.byte	W12
	.byte		        Cs4 
	.byte	W24
	.byte		        Bn3 
	.byte	W24
	.byte		        Cs4 
	.byte	W24
	.byte		TIE   , Bn3 
	.byte	W12
@ 118   ----------------------------------------
	.byte	W92
	.byte	W03
	.byte		EOT   
	.byte	W01
@ 119   ----------------------------------------
	.byte	W96
@ 120   ----------------------------------------
	.byte	W24
	.byte		N23   
	.byte	W24
	.byte		N23   
	.byte	W24
	.byte		N11   , Cs4 
	.byte	W12
	.byte		N32   , Dn4 
	.byte	W12
@ 121   ----------------------------------------
	.byte	W24
	.byte		N11   , Cs4 
	.byte	W12
	.byte		N23   , Bn3 
	.byte	W24
	.byte		        Cs4 
	.byte	W24
	.byte		N44   , Bn3 
	.byte	W12
@ 122   ----------------------------------------
	.byte	W36
	.byte		TIE   , Fs3 
	.byte	W60
@ 123   ----------------------------------------
	.byte	W44
	.byte	W03
	.byte		EOT   
	.byte	W01
	.byte		N11   
	.byte	W12
	.byte		N23   
	.byte	W24
	.byte		N11   
	.byte	W12
@ 124   ----------------------------------------
	.byte		TIE   , Gn3 
	.byte	W96
@ 125   ----------------------------------------
	.byte	W92
	.byte	W03
	.byte		EOT   
	.byte	W01
@ 126   ----------------------------------------
	.byte	W96
@ 127   ----------------------------------------
	.byte	W84
	.byte		N44   , En4 
	.byte	W12
@ 128   ----------------------------------------
	.byte	W36
	.byte		        Ds4 
	.byte	W48
	.byte		        Bn3 
	.byte	W12
@ 129   ----------------------------------------
	.byte	W36
	.byte		        Gn3 
	.byte	W48
	.byte		TIE   , Fs3 
	.byte	W12
@ 130   ----------------------------------------
	.byte	W96
@ 131   ----------------------------------------
	.byte	W96
@ 132   ----------------------------------------
	.byte	W92
	.byte	W03
	.byte		EOT   
	.byte	W01
@ 133   ----------------------------------------
	.byte	W96
@ 134   ----------------------------------------
	.byte	W96
@ 135   ----------------------------------------
	.byte	W84
	.byte		N92   
	.byte	W12
@ 136   ----------------------------------------
	.byte	W84
	.byte		        En3 
	.byte	W12
@ 137   ----------------------------------------
	.byte	W84
	.byte		        Bn3 
	.byte	W12
@ 138   ----------------------------------------
	.byte	W84
	.byte		N56   , Fs3 
	.byte	W12
@ 139   ----------------------------------------
	.byte	W48
	.byte		N11   , Bn3 
	.byte	W12
	.byte		N23   , Cs4 
	.byte	W24
	.byte		N68   , Dn4 
	.byte	W12
@ 140   ----------------------------------------
	.byte	W60
	.byte		N23   , Cs4 
	.byte	W24
	.byte		N44   , Bn3 
	.byte	W12
@ 141   ----------------------------------------
	.byte	W48
	.byte		N32   , Dn4 
	.byte	W36
	.byte		N92   , Cs4 
	.byte	W12
@ 142   ----------------------------------------
	.byte	W84
	.byte		        An3 
	.byte	W12
@ 143   ----------------------------------------
	.byte	W84
	.byte		        Fs3 
	.byte	W12
@ 144   ----------------------------------------
	.byte	W84
	.byte		        An3 
	.byte	W12
@ 145   ----------------------------------------
	.byte	W84
	.byte		        Bn3 
	.byte	W12
@ 146   ----------------------------------------
	.byte	W84
	.byte		N56   , Cs4 
	.byte	W12
@ 147   ----------------------------------------
	.byte	W48
	.byte		N11   , Bn3 
	.byte	W12
	.byte		N23   , Cs4 
	.byte	W24
	.byte		        Dn4 
	.byte	W12
@ 148   ----------------------------------------
	.byte	W12
	.byte		        Cs4 
	.byte	W24
	.byte		N23   
	.byte	W24
	.byte		        Bn3 
	.byte	W24
	.byte		N23   
	.byte	W12
@ 149   ----------------------------------------
	.byte	W12
	.byte		        Fs3 
	.byte	W24
	.byte		        Bn3 
	.byte	W24
	.byte		        Cs4 
	.byte	W24
	.byte		        Dn4 
	.byte	W12
@ 150   ----------------------------------------
	.byte	W12
	.byte		        Cs4 
	.byte	W24
	.byte		        Bn3 
	.byte	W24
	.byte		N21   , An3 
	.byte	W21
	.byte		N02   
	.byte	W03
	.byte		N56   , Cs4 
	.byte	W12
@ 151   ----------------------------------------
	.byte	W48
	.byte		N32   
	.byte	W36
	.byte		N56   , Bn3 
	.byte	W12
@ 152   ----------------------------------------
	.byte	W68
	.byte	W03
	.byte	GOTO
	 .word	Red_Like_Roses_Part_II_1_B1
Red_Like_Roses_Part_II_1_B2:
	.byte	FINE

@**************** Track 2 (Midi-Chn.2) ****************@

Red_Like_Roses_Part_II_2:
	.byte	KEYSH , Red_Like_Roses_Part_II_key+0
Red_Like_Roses_Part_II_2_B1:
@ 000   ----------------------------------------
	.byte		VOICE , 73
	.byte		VOL   , 100*Red_Like_Roses_Part_II_mvl/mxv
	.byte		PAN   , c_v+0
	.byte	W96
@ 001   ----------------------------------------
	.byte	W96
@ 002   ----------------------------------------
	.byte	W96
@ 003   ----------------------------------------
	.byte	W96
@ 004   ----------------------------------------
	.byte	W96
@ 005   ----------------------------------------
	.byte	W96
@ 006   ----------------------------------------
	.byte	W96
@ 007   ----------------------------------------
	.byte	W96
@ 008   ----------------------------------------
	.byte	W96
@ 009   ----------------------------------------
	.byte	W96
@ 010   ----------------------------------------
	.byte	W96
@ 011   ----------------------------------------
	.byte	W96
@ 012   ----------------------------------------
	.byte	W96
@ 013   ----------------------------------------
	.byte	W96
@ 014   ----------------------------------------
	.byte	W96
@ 015   ----------------------------------------
	.byte	W96
@ 016   ----------------------------------------
	.byte	W96
@ 017   ----------------------------------------
	.byte	W96
@ 018   ----------------------------------------
	.byte	W96
@ 019   ----------------------------------------
	.byte	W96
@ 020   ----------------------------------------
	.byte	W96
@ 021   ----------------------------------------
	.byte	W96
@ 022   ----------------------------------------
	.byte	W96
@ 023   ----------------------------------------
	.byte	W96
@ 024   ----------------------------------------
	.byte	W96
@ 025   ----------------------------------------
	.byte	W96
@ 026   ----------------------------------------
	.byte	W96
@ 027   ----------------------------------------
	.byte	W96
@ 028   ----------------------------------------
	.byte	W96
@ 029   ----------------------------------------
	.byte	W96
@ 030   ----------------------------------------
	.byte	W96
@ 031   ----------------------------------------
	.byte	W96
@ 032   ----------------------------------------
	.byte	W96
@ 033   ----------------------------------------
	.byte	W96
@ 034   ----------------------------------------
	.byte	W96
@ 035   ----------------------------------------
	.byte	W96
@ 036   ----------------------------------------
	.byte	W96
@ 037   ----------------------------------------
	.byte	W96
@ 038   ----------------------------------------
	.byte	W96
@ 039   ----------------------------------------
	.byte	W96
@ 040   ----------------------------------------
	.byte	W96
@ 041   ----------------------------------------
	.byte	W96
@ 042   ----------------------------------------
	.byte	W96
@ 043   ----------------------------------------
	.byte	W96
@ 044   ----------------------------------------
	.byte	W96
@ 045   ----------------------------------------
	.byte	W96
@ 046   ----------------------------------------
	.byte	W96
@ 047   ----------------------------------------
	.byte	W96
@ 048   ----------------------------------------
	.byte	W96
@ 049   ----------------------------------------
	.byte	W96
@ 050   ----------------------------------------
	.byte	W96
@ 051   ----------------------------------------
	.byte	W96
@ 052   ----------------------------------------
	.byte	W96
@ 053   ----------------------------------------
	.byte	W96
@ 054   ----------------------------------------
	.byte	W96
@ 055   ----------------------------------------
	.byte	W96
@ 056   ----------------------------------------
	.byte	W96
@ 057   ----------------------------------------
	.byte	W96
@ 058   ----------------------------------------
	.byte	W96
@ 059   ----------------------------------------
	.byte	W96
@ 060   ----------------------------------------
	.byte	W96
@ 061   ----------------------------------------
	.byte	W96
@ 062   ----------------------------------------
	.byte	W96
@ 063   ----------------------------------------
	.byte	W96
@ 064   ----------------------------------------
	.byte	W96
@ 065   ----------------------------------------
	.byte	W96
@ 066   ----------------------------------------
	.byte	W96
@ 067   ----------------------------------------
	.byte	W96
@ 068   ----------------------------------------
	.byte	W96
@ 069   ----------------------------------------
	.byte	W96
@ 070   ----------------------------------------
	.byte	W96
@ 071   ----------------------------------------
	.byte	W96
@ 072   ----------------------------------------
	.byte	W96
@ 073   ----------------------------------------
	.byte	W96
@ 074   ----------------------------------------
	.byte	W96
@ 075   ----------------------------------------
	.byte	W96
@ 076   ----------------------------------------
	.byte	W96
@ 077   ----------------------------------------
	.byte	W96
@ 078   ----------------------------------------
	.byte	W96
@ 079   ----------------------------------------
	.byte	W96
@ 080   ----------------------------------------
	.byte	W96
@ 081   ----------------------------------------
	.byte	W96
@ 082   ----------------------------------------
	.byte	W96
@ 083   ----------------------------------------
	.byte	W96
@ 084   ----------------------------------------
	.byte	W96
@ 085   ----------------------------------------
	.byte	W96
@ 086   ----------------------------------------
	.byte	W96
@ 087   ----------------------------------------
	.byte	W96
@ 088   ----------------------------------------
	.byte	W96
@ 089   ----------------------------------------
	.byte	W96
@ 090   ----------------------------------------
	.byte	W96
@ 091   ----------------------------------------
	.byte	W96
@ 092   ----------------------------------------
	.byte	W96
@ 093   ----------------------------------------
	.byte	W96
@ 094   ----------------------------------------
	.byte	W96
@ 095   ----------------------------------------
	.byte	W96
@ 096   ----------------------------------------
	.byte	W96
@ 097   ----------------------------------------
	.byte	W96
@ 098   ----------------------------------------
	.byte	W96
@ 099   ----------------------------------------
	.byte	W96
@ 100   ----------------------------------------
	.byte	W96
@ 101   ----------------------------------------
	.byte	W96
@ 102   ----------------------------------------
	.byte	W96
@ 103   ----------------------------------------
	.byte	W96
@ 104   ----------------------------------------
	.byte	W96
@ 105   ----------------------------------------
	.byte	W96
@ 106   ----------------------------------------
	.byte	W96
@ 107   ----------------------------------------
	.byte	W96
@ 108   ----------------------------------------
	.byte	W96
@ 109   ----------------------------------------
	.byte	W96
@ 110   ----------------------------------------
	.byte	W96
@ 111   ----------------------------------------
	.byte	W96
@ 112   ----------------------------------------
Red_Like_Roses_Part_II_2_112:
	.byte		TIE   , En4 , v064
	.byte		TIE   , Gn4 
	.byte	W96
	.byte	PEND
@ 113   ----------------------------------------
	.byte	W92
	.byte	W03
	.byte		EOT   , En4 
	.byte		        Gn4 
	.byte	W01
@ 114   ----------------------------------------
Red_Like_Roses_Part_II_2_114:
	.byte		TIE   , Dn4 , v064
	.byte		TIE   , Fs4 
	.byte	W96
	.byte	PEND
@ 115   ----------------------------------------
	.byte	W92
	.byte	W03
	.byte		EOT   , Dn4 
	.byte		        Fs4 
	.byte	W01
@ 116   ----------------------------------------
	.byte	PATT
	 .word	Red_Like_Roses_Part_II_2_112
@ 117   ----------------------------------------
	.byte	W92
	.byte	W03
	.byte		EOT   , En4 
	.byte		        Gn4 
	.byte	W01
@ 118   ----------------------------------------
	.byte		N23   , Dn4 , v064
	.byte		N23   , Fs4 
	.byte	W96
@ 119   ----------------------------------------
	.byte	W96
@ 120   ----------------------------------------
	.byte	PATT
	 .word	Red_Like_Roses_Part_II_2_112
@ 121   ----------------------------------------
	.byte	W92
	.byte	W03
	.byte		EOT   , En4 
	.byte		        Gn4 
	.byte	W01
@ 122   ----------------------------------------
	.byte	PATT
	 .word	Red_Like_Roses_Part_II_2_114
@ 123   ----------------------------------------
	.byte	W92
	.byte	W03
	.byte		EOT   , Dn4 
	.byte		        Fs4 
	.byte	W01
@ 124   ----------------------------------------
	.byte	W48
	.byte		N11   , Bn4 , v096
	.byte	W12
	.byte		N23   
	.byte	W24
	.byte		N11   
	.byte	W12
@ 125   ----------------------------------------
	.byte		TIE   
	.byte	W48
	.byte		N11   , En5 
	.byte	W12
	.byte		N23   
	.byte	W24
	.byte		TIE   , Ds5 
	.byte	W12
@ 126   ----------------------------------------
	.byte	W96
@ 127   ----------------------------------------
	.byte	W92
	.byte	W03
	.byte		EOT   , Bn4 
	.byte		        Ds5 
	.byte	W01
@ 128   ----------------------------------------
	.byte	W96
@ 129   ----------------------------------------
	.byte	W96
@ 130   ----------------------------------------
	.byte	W96
@ 131   ----------------------------------------
	.byte	W96
@ 132   ----------------------------------------
	.byte	W96
@ 133   ----------------------------------------
	.byte	W96
@ 134   ----------------------------------------
	.byte	W96
@ 135   ----------------------------------------
	.byte	W84
	.byte		N92   , Dn4 , v064
	.byte	W12
@ 136   ----------------------------------------
	.byte	W84
	.byte		        Cs4 
	.byte	W12
@ 137   ----------------------------------------
	.byte	W84
	.byte		        Fs4 
	.byte	W12
@ 138   ----------------------------------------
	.byte	W84
	.byte		N56   , Dn4 
	.byte	W12
@ 139   ----------------------------------------
	.byte	W84
	.byte		N68   , Bn4 
	.byte	W12
@ 140   ----------------------------------------
	.byte	W60
	.byte		N23   , An4 
	.byte	W24
	.byte		N44   , Gn4 
	.byte	W12
@ 141   ----------------------------------------
	.byte	W48
	.byte		N32   , Bn4 
	.byte	W36
	.byte		N92   , An4 
	.byte	W12
@ 142   ----------------------------------------
	.byte	W84
	.byte		        Fs4 
	.byte	W12
@ 143   ----------------------------------------
	.byte	W84
	.byte		N92   
	.byte	W12
@ 144   ----------------------------------------
	.byte	W84
	.byte		        Dn4 
	.byte	W12
@ 145   ----------------------------------------
	.byte	W84
	.byte		N92   
	.byte	W12
@ 146   ----------------------------------------
	.byte	W84
	.byte		N56   , An4 
	.byte	W12
@ 147   ----------------------------------------
	.byte	W48
	.byte		N11   , Dn4 
	.byte	W12
	.byte		N23   , En4 
	.byte	W24
	.byte		        Fs4 
	.byte	W12
@ 148   ----------------------------------------
	.byte	W12
	.byte		        En4 
	.byte	W24
	.byte		N23   
	.byte	W24
	.byte		        Dn4 
	.byte	W24
	.byte		N23   
	.byte	W12
@ 149   ----------------------------------------
	.byte	W12
	.byte		        Bn3 
	.byte	W24
	.byte		        Dn4 
	.byte	W24
	.byte		        En4 
	.byte	W24
	.byte		        Fs4 
	.byte	W12
@ 150   ----------------------------------------
	.byte	W12
	.byte		        En4 
	.byte	W24
	.byte		N23   
	.byte	W24
	.byte		N23   
	.byte	W21
	.byte		N02   , Dn4 
	.byte	W03
	.byte		N56   , En4 
	.byte	W12
@ 151   ----------------------------------------
	.byte	W48
	.byte		N32   
	.byte	W36
	.byte		N56   , Dn4 
	.byte	W12
@ 152   ----------------------------------------
	.byte	W68
	.byte	W03
	.byte	GOTO
	 .word	Red_Like_Roses_Part_II_2_B1
Red_Like_Roses_Part_II_2_B2:
	.byte	FINE

@**************** Track 3 (Midi-Chn.3) ****************@

Red_Like_Roses_Part_II_3:
	.byte	KEYSH , Red_Like_Roses_Part_II_key+0
Red_Like_Roses_Part_II_3_B1:
@ 000   ----------------------------------------
	.byte		VOICE , 31
	.byte		VOL   , 69*Red_Like_Roses_Part_II_mvl/mxv
	.byte		PAN   , c_v+0
	.byte	W96
@ 001   ----------------------------------------
	.byte	W96
@ 002   ----------------------------------------
	.byte	W96
@ 003   ----------------------------------------
	.byte	W96
@ 004   ----------------------------------------
	.byte		N11   , Bn3 , v080
	.byte	W12
	.byte		N11   
	.byte	W12
	.byte		N11   
	.byte	W12
	.byte		N11   
	.byte	W12
	.byte		N11   
	.byte	W12
	.byte		N11   
	.byte	W12
	.byte		N11   
	.byte	W12
	.byte		        Bn3 , v112
	.byte	W12
@ 005   ----------------------------------------
	.byte		        Bn3 , v080
	.byte	W12
	.byte		N11   
	.byte	W12
	.byte		N11   
	.byte	W12
	.byte		N11   
	.byte	W12
	.byte		N11   
	.byte	W12
	.byte		N11   
	.byte	W12
	.byte		N11   
	.byte	W12
	.byte		N11   
	.byte	W12
@ 006   ----------------------------------------
	.byte		        Bn4 
	.byte	W12
	.byte		N11   
	.byte	W12
	.byte		N11   
	.byte	W12
	.byte		N11   
	.byte	W12
	.byte		N11   
	.byte	W12
	.byte		N11   
	.byte	W12
	.byte		N11   
	.byte	W12
	.byte		N11   
	.byte	W12
@ 007   ----------------------------------------
	.byte		N11   
	.byte	W12
	.byte		N11   
	.byte	W12
	.byte		N11   
	.byte	W12
	.byte		N11   
	.byte	W12
	.byte		N11   
	.byte	W12
	.byte		N11   
	.byte	W12
	.byte		N11   
	.byte	W12
	.byte		        Dn3 , v112
	.byte		N11   , Bn3 
	.byte		N11   , Bn4 
	.byte	W12
@ 008   ----------------------------------------
	.byte		        En4 , v080
	.byte	W12
	.byte		        Cs4 
	.byte	W12
	.byte		        En3 
	.byte	W12
	.byte		        Dn4 
	.byte	W12
	.byte		        An3 
	.byte	W12
	.byte		        En3 
	.byte	W12
	.byte		        Cs4 
	.byte	W24
@ 009   ----------------------------------------
	.byte		N11   
	.byte	W12
	.byte		        An3 
	.byte	W12
	.byte		        En3 
	.byte	W12
	.byte		        Fs3 
	.byte	W12
	.byte		        En3 
	.byte	W12
	.byte		        Bn3 
	.byte	W12
	.byte		        An3 
	.byte	W24
@ 010   ----------------------------------------
	.byte		        En4 
	.byte	W12
	.byte		        Cs4 
	.byte	W12
	.byte		        En3 
	.byte	W12
	.byte		        Dn4 
	.byte	W12
	.byte		        An3 
	.byte	W12
	.byte		        En3 
	.byte	W12
	.byte		        Fs3 
	.byte	W24
@ 011   ----------------------------------------
	.byte		        Gn3 
	.byte	W12
	.byte		        Bn3 
	.byte	W12
	.byte		        Dn4 
	.byte	W12
	.byte		        Cs4 
	.byte	W12
	.byte		        An3 
	.byte	W12
	.byte		        En3 
	.byte	W12
	.byte		        Fs3 
	.byte	W24
@ 012   ----------------------------------------
	.byte		        En3 
	.byte	W12
	.byte		        An3 
	.byte	W12
	.byte		        Cs4 
	.byte	W12
	.byte		        An3 
	.byte	W12
	.byte		        En3 
	.byte	W12
	.byte		        An3 
	.byte	W12
	.byte		        Fs4 
	.byte	W24
@ 013   ----------------------------------------
	.byte		        En4 
	.byte	W12
	.byte		        Dn4 
	.byte	W12
	.byte		        Bn3 
	.byte	W12
	.byte		        Fs3 
	.byte	W12
	.byte		        Cs4 
	.byte	W12
	.byte		        Dn4 
	.byte	W12
	.byte		        Dn3 
	.byte	W24
@ 014   ----------------------------------------
	.byte		        Cs3 
	.byte	W12
	.byte		        Dn3 
	.byte	W12
	.byte		        En3 
	.byte	W12
	.byte		        Gn3 
	.byte	W12
	.byte		        Dn3 
	.byte	W12
	.byte		        En3 
	.byte	W12
	.byte		        Fs3 
	.byte	W12
	.byte		        Gn3 
	.byte	W12
@ 015   ----------------------------------------
	.byte		        An3 
	.byte	W12
	.byte		        Bn3 
	.byte	W12
	.byte		        Gn3 
	.byte	W12
	.byte		        Fs3 
	.byte	W12
	.byte		        En3 
	.byte	W12
	.byte		        An3 
	.byte	W36
@ 016   ----------------------------------------
	.byte		        Gn4 
	.byte	W12
	.byte		        En4 
	.byte	W12
	.byte		        Gn3 
	.byte	W12
	.byte		        Fs4 
	.byte	W12
	.byte		        Cs4 
	.byte	W12
	.byte		        Gn3 
	.byte	W12
	.byte		        Cs4 
	.byte	W24
@ 017   ----------------------------------------
	.byte		        En4 
	.byte	W12
	.byte		        Cs4 
	.byte	W12
	.byte		        Gn3 
	.byte	W12
	.byte		        An3 
	.byte	W12
	.byte		        Gn3 
	.byte	W12
	.byte		        Dn4 
	.byte	W12
	.byte		        Cs4 
	.byte	W24
@ 018   ----------------------------------------
	.byte		        Gn4 
	.byte	W12
	.byte		        En4 
	.byte	W12
	.byte		        Gn3 
	.byte	W12
	.byte		        Fs4 
	.byte	W12
	.byte		        Cs4 
	.byte	W12
	.byte		        Gn3 
	.byte	W12
	.byte		        An3 
	.byte	W24
@ 019   ----------------------------------------
	.byte		        Bn3 
	.byte	W12
	.byte		        Dn4 
	.byte	W12
	.byte		        Fs4 
	.byte	W12
	.byte		        En4 
	.byte	W12
	.byte		        Cs4 
	.byte	W12
	.byte		        Gn3 
	.byte	W12
	.byte		        An3 
	.byte	W24
@ 020   ----------------------------------------
	.byte		        Gn3 
	.byte	W12
	.byte		        Cs4 
	.byte	W12
	.byte		        En4 
	.byte	W12
	.byte		        Cs4 
	.byte	W12
	.byte		        Gn3 
	.byte	W12
	.byte		        An3 
	.byte	W12
	.byte		        An4 
	.byte	W24
@ 021   ----------------------------------------
	.byte		        Gn4 
	.byte	W12
	.byte		        Fs4 
	.byte	W12
	.byte		        Dn4 
	.byte	W12
	.byte		        An3 
	.byte	W12
	.byte		        En4 
	.byte	W12
	.byte		        Fs4 
	.byte	W12
	.byte		        An3 
	.byte	W24
@ 022   ----------------------------------------
	.byte		        En3 
	.byte	W12
	.byte		        Fs3 
	.byte	W12
	.byte		        Gn3 
	.byte	W12
	.byte		        Bn3 
	.byte	W12
	.byte		        Fs3 
	.byte	W12
	.byte		        Gn3 
	.byte	W12
	.byte		        An3 
	.byte	W12
	.byte		        Bn3 
	.byte	W12
@ 023   ----------------------------------------
	.byte		        Cs4 
	.byte	W12
	.byte		        Dn4 
	.byte	W12
	.byte		        Bn3 
	.byte	W12
	.byte		        An3 
	.byte	W12
	.byte		        Gn3 
	.byte	W12
	.byte		        Cs4 
	.byte	W36
@ 024   ----------------------------------------
	.byte	W96
@ 025   ----------------------------------------
	.byte	W96
@ 026   ----------------------------------------
	.byte	W96
@ 027   ----------------------------------------
	.byte	W96
@ 028   ----------------------------------------
	.byte	W96
@ 029   ----------------------------------------
	.byte	W96
@ 030   ----------------------------------------
	.byte	W96
@ 031   ----------------------------------------
	.byte	W96
@ 032   ----------------------------------------
	.byte	W12
	.byte		        Fs4 , v112
	.byte	W12
	.byte		N11   
	.byte	W12
	.byte		N11   
	.byte	W12
	.byte		N11   
	.byte	W12
	.byte		N11   
	.byte	W12
	.byte		N11   
	.byte	W12
	.byte		N11   
	.byte	W12
@ 033   ----------------------------------------
	.byte		N11   
	.byte	W12
	.byte		N11   
	.byte	W12
	.byte		N11   
	.byte	W12
	.byte		N11   
	.byte	W12
	.byte		N11   
	.byte	W12
	.byte		N11   
	.byte	W12
	.byte		N11   
	.byte	W12
	.byte		N11   
	.byte	W12
@ 034   ----------------------------------------
	.byte		N23   
	.byte	W24
	.byte		N23   
	.byte	W24
	.byte		N23   
	.byte	W24
	.byte		N11   
	.byte	W12
	.byte		N11   
	.byte	W12
@ 035   ----------------------------------------
	.byte		N11   
	.byte	W12
	.byte		N11   
	.byte	W12
	.byte		N23   
	.byte	W24
	.byte		N32   
	.byte	W36
	.byte		N11   
	.byte	W12
@ 036   ----------------------------------------
	.byte		N11   
	.byte	W12
	.byte		N11   
	.byte	W12
	.byte		N11   
	.byte	W12
	.byte		N11   
	.byte	W12
	.byte		N23   
	.byte	W24
	.byte		N11   
	.byte	W12
	.byte		N11   
	.byte	W12
@ 037   ----------------------------------------
	.byte		N11   
	.byte	W12
	.byte		N11   
	.byte	W12
	.byte		N23   
	.byte	W24
	.byte		N23   
	.byte	W24
	.byte		N11   
	.byte	W12
	.byte		N11   
	.byte	W12
@ 038   ----------------------------------------
	.byte		        Gn4 
	.byte	W12
	.byte		        Fs4 
	.byte	W12
	.byte		        Fn4 
	.byte	W12
	.byte		        En4 
	.byte	W12
	.byte		        Dn4 
	.byte	W12
	.byte		        Cs4 
	.byte	W12
	.byte		        Cn4 
	.byte	W12
	.byte		        Bn3 
	.byte	W12
@ 039   ----------------------------------------
	.byte		        Cn4 
	.byte	W12
	.byte		        Cs4 
	.byte	W12
	.byte		        Dn4 
	.byte	W12
	.byte		        Cs4 
	.byte	W12
	.byte		        Cn4 
	.byte	W12
	.byte		        Bn3 
	.byte	W12
	.byte		        Fn3 
	.byte	W12
	.byte		N56   , En3 
	.byte	W12
@ 040   ----------------------------------------
	.byte	W96
@ 041   ----------------------------------------
	.byte	W96
@ 042   ----------------------------------------
	.byte	W96
@ 043   ----------------------------------------
	.byte	W96
@ 044   ----------------------------------------
	.byte	W96
@ 045   ----------------------------------------
	.byte	W84
	.byte		N23   , Dn3 
	.byte		N23   , An3 
	.byte	W12
@ 046   ----------------------------------------
	.byte	W36
	.byte		        Fs3 
	.byte		N23   , Cs4 
	.byte	W48
	.byte		        Gn3 
	.byte		N23   , Dn4 
	.byte	W12
@ 047   ----------------------------------------
	.byte	W36
	.byte		        An3 
	.byte		N23   , En4 
	.byte	W48
	.byte		TIE   , Bn3 
	.byte		TIE   , Bn4 
	.byte	W12
@ 048   ----------------------------------------
	.byte	W92
	.byte	W03
	.byte		EOT   , Bn3 
	.byte		        Bn4 
	.byte	W01
@ 049   ----------------------------------------
	.byte	W96
@ 050   ----------------------------------------
	.byte	W96
@ 051   ----------------------------------------
	.byte	W96
@ 052   ----------------------------------------
	.byte		N44   , Gn3 
	.byte	W48
	.byte		N23   , Bn3 
	.byte	W24
	.byte		N11   
	.byte	W12
	.byte		TIE   
	.byte	W12
@ 053   ----------------------------------------
	.byte	W48
	.byte		N23   , En4 
	.byte	W24
	.byte		N11   
	.byte	W12
	.byte		N23   , Cn2 
	.byte		N23   , Cn3 
	.byte		TIE   , Ds4 
	.byte	W12
@ 054   ----------------------------------------
	.byte	W12
	.byte		N11   , Cn2 
	.byte		N11   , Cn3 
	.byte	W12
	.byte		        Cn2 
	.byte		N11   , Cn3 
	.byte	W12
	.byte		N23   , Ds2 
	.byte		N23   , Ds3 
	.byte	W23
	.byte		EOT   , Bn3 
	.byte	W01
	.byte		N11   , Ds2 
	.byte		N11   , Ds3 
	.byte	W12
	.byte		        Ds2 
	.byte		N11   , Ds3 
	.byte	W12
	.byte		N23   , Gn2 
	.byte		N23   , Gn3 
	.byte	W12
@ 055   ----------------------------------------
	.byte	W12
	.byte		N11   , Gn2 
	.byte		N11   , Gn3 
	.byte	W12
	.byte		        Gn2 
	.byte		N11   , Gn3 
	.byte	W12
	.byte		N23   , Fs2 
	.byte		N23   , Fs3 
	.byte	W11
	.byte		EOT   , Ds4 
	.byte	W13
	.byte		N11   , Fs2 
	.byte		N11   , Fs3 
	.byte	W12
	.byte		        Fs2 
	.byte		N11   , Fs3 
	.byte	W12
	.byte		        Cn2 
	.byte		N11   , Cn3 
	.byte	W12
@ 056   ----------------------------------------
	.byte		        Cn2 
	.byte		N11   , Cn3 
	.byte	W12
	.byte		        Cn2 
	.byte		N11   , Cn3 
	.byte	W12
	.byte		        Cn2 
	.byte		N11   , Cn3 
	.byte	W12
	.byte		N23   , Ds2 
	.byte		N23   , Ds3 
	.byte	W24
	.byte		N11   , Ds2 
	.byte		N11   , Ds3 
	.byte	W12
	.byte		        Ds2 
	.byte		N11   , Ds3 
	.byte	W12
	.byte		N23   , Gn2 
	.byte		N23   , Gn3 
	.byte	W12
@ 057   ----------------------------------------
	.byte	W12
	.byte		N11   , Gn2 
	.byte		N11   , Gn3 
	.byte	W12
	.byte		        Gn2 
	.byte		N11   , Gn3 
	.byte	W12
	.byte		N23   , Fs2 
	.byte		N23   , Fs3 
	.byte	W24
	.byte		N11   , Fs2 
	.byte		N11   , Fs3 
	.byte	W12
	.byte		        Fs2 
	.byte		N11   , Fs3 
	.byte	W12
	.byte		        Cn2 
	.byte		N11   , Cn3 
	.byte	W12
@ 058   ----------------------------------------
Red_Like_Roses_Part_II_3_058:
	.byte		N11   , Fs2 , v112
	.byte		N11   , Fs3 
	.byte	W12
	.byte		        Gn2 
	.byte		N11   , Gn3 
	.byte	W12
	.byte		        Fs2 
	.byte		N11   , Fs3 
	.byte	W12
	.byte		        Gn2 
	.byte		N11   , Gn3 
	.byte	W12
	.byte		        Fs2 
	.byte		N11   , Fs3 
	.byte	W12
	.byte		        Gn2 
	.byte		N11   , Gn3 
	.byte	W12
	.byte		        Fs2 
	.byte		N11   , Fs3 
	.byte	W12
	.byte		        Gn2 
	.byte		N11   , Gn3 
	.byte	W12
	.byte	PEND
@ 059   ----------------------------------------
	.byte	PATT
	 .word	Red_Like_Roses_Part_II_3_058
@ 060   ----------------------------------------
	.byte	PATT
	 .word	Red_Like_Roses_Part_II_3_058
@ 061   ----------------------------------------
	.byte		N11   , Fs2 , v112
	.byte		N11   , Fs3 
	.byte	W12
	.byte		        Gn2 
	.byte		N11   , Gn3 
	.byte	W12
	.byte		        Fs2 
	.byte		N11   , Fs3 
	.byte	W12
	.byte		        Gn2 
	.byte		N11   , Gn3 
	.byte	W12
	.byte		N23   , Fs2 
	.byte		N23   , Fs3 
	.byte	W48
@ 062   ----------------------------------------
	.byte	W96
@ 063   ----------------------------------------
	.byte	W96
@ 064   ----------------------------------------
	.byte	W96
@ 065   ----------------------------------------
	.byte	W96
@ 066   ----------------------------------------
	.byte	W96
@ 067   ----------------------------------------
	.byte	W96
@ 068   ----------------------------------------
	.byte	W96
@ 069   ----------------------------------------
	.byte	W96
@ 070   ----------------------------------------
	.byte	W96
@ 071   ----------------------------------------
	.byte	W96
@ 072   ----------------------------------------
	.byte	W96
@ 073   ----------------------------------------
	.byte	W96
@ 074   ----------------------------------------
	.byte	W96
@ 075   ----------------------------------------
	.byte	W96
@ 076   ----------------------------------------
	.byte	W96
@ 077   ----------------------------------------
	.byte	W96
@ 078   ----------------------------------------
	.byte	W96
@ 079   ----------------------------------------
	.byte	W96
@ 080   ----------------------------------------
	.byte	W96
@ 081   ----------------------------------------
	.byte	W96
@ 082   ----------------------------------------
	.byte	W96
@ 083   ----------------------------------------
	.byte	W96
@ 084   ----------------------------------------
	.byte	W96
@ 085   ----------------------------------------
	.byte	W96
@ 086   ----------------------------------------
	.byte	W96
@ 087   ----------------------------------------
	.byte	W96
@ 088   ----------------------------------------
	.byte	W96
@ 089   ----------------------------------------
	.byte	W96
@ 090   ----------------------------------------
	.byte	W96
@ 091   ----------------------------------------
	.byte	W96
@ 092   ----------------------------------------
	.byte	W96
@ 093   ----------------------------------------
	.byte	W96
@ 094   ----------------------------------------
	.byte	W96
@ 095   ----------------------------------------
	.byte	W96
@ 096   ----------------------------------------
	.byte	W96
@ 097   ----------------------------------------
	.byte	W96
@ 098   ----------------------------------------
	.byte	W96
@ 099   ----------------------------------------
	.byte	W96
@ 100   ----------------------------------------
	.byte	W96
@ 101   ----------------------------------------
	.byte	W96
@ 102   ----------------------------------------
	.byte	W96
@ 103   ----------------------------------------
	.byte	W96
@ 104   ----------------------------------------
	.byte	W96
@ 105   ----------------------------------------
	.byte	W96
@ 106   ----------------------------------------
	.byte	W96
@ 107   ----------------------------------------
	.byte	W96
@ 108   ----------------------------------------
	.byte	W96
@ 109   ----------------------------------------
	.byte	W96
@ 110   ----------------------------------------
	.byte	W96
@ 111   ----------------------------------------
	.byte	W96
@ 112   ----------------------------------------
	.byte	W96
@ 113   ----------------------------------------
	.byte	W96
@ 114   ----------------------------------------
	.byte	W96
@ 115   ----------------------------------------
	.byte	W96
@ 116   ----------------------------------------
	.byte	W96
@ 117   ----------------------------------------
	.byte	W96
@ 118   ----------------------------------------
	.byte	W96
@ 119   ----------------------------------------
	.byte	W96
@ 120   ----------------------------------------
	.byte	W96
@ 121   ----------------------------------------
	.byte	W96
@ 122   ----------------------------------------
	.byte	W96
@ 123   ----------------------------------------
	.byte	W96
@ 124   ----------------------------------------
	.byte	W96
@ 125   ----------------------------------------
	.byte	W96
@ 126   ----------------------------------------
	.byte	W96
@ 127   ----------------------------------------
	.byte	W96
@ 128   ----------------------------------------
	.byte	W96
@ 129   ----------------------------------------
	.byte	W96
@ 130   ----------------------------------------
	.byte	W96
@ 131   ----------------------------------------
	.byte	W96
@ 132   ----------------------------------------
	.byte	W96
@ 133   ----------------------------------------
	.byte	W96
@ 134   ----------------------------------------
	.byte	W96
@ 135   ----------------------------------------
	.byte	W96
@ 136   ----------------------------------------
	.byte	W96
@ 137   ----------------------------------------
	.byte	W96
@ 138   ----------------------------------------
	.byte	W96
@ 139   ----------------------------------------
	.byte	W96
@ 140   ----------------------------------------
	.byte	W96
@ 141   ----------------------------------------
	.byte	W96
@ 142   ----------------------------------------
	.byte	W96
@ 143   ----------------------------------------
	.byte	W96
@ 144   ----------------------------------------
	.byte	W96
@ 145   ----------------------------------------
	.byte	W96
@ 146   ----------------------------------------
	.byte	W96
@ 147   ----------------------------------------
	.byte	W96
@ 148   ----------------------------------------
	.byte	W96
@ 149   ----------------------------------------
	.byte	W96
@ 150   ----------------------------------------
	.byte	W96
@ 151   ----------------------------------------
	.byte	W96
@ 152   ----------------------------------------
	.byte	W68
	.byte	W03
	.byte	GOTO
	 .word	Red_Like_Roses_Part_II_3_B1
Red_Like_Roses_Part_II_3_B2:
	.byte	FINE

@**************** Track 4 (Midi-Chn.4) ****************@

Red_Like_Roses_Part_II_4:
	.byte	KEYSH , Red_Like_Roses_Part_II_key+0
Red_Like_Roses_Part_II_4_B1:
@ 000   ----------------------------------------
	.byte		VOICE , 30
	.byte		VOL   , 112*Red_Like_Roses_Part_II_mvl/mxv
	.byte		PAN   , c_v+0
	.byte	W96
@ 001   ----------------------------------------
	.byte	W96
@ 002   ----------------------------------------
	.byte	W96
@ 003   ----------------------------------------
	.byte	W96
@ 004   ----------------------------------------
	.byte	W96
@ 005   ----------------------------------------
	.byte	W96
@ 006   ----------------------------------------
	.byte	W96
@ 007   ----------------------------------------
	.byte	W96
@ 008   ----------------------------------------
	.byte	W96
@ 009   ----------------------------------------
	.byte	W96
@ 010   ----------------------------------------
	.byte	W96
@ 011   ----------------------------------------
	.byte	W96
@ 012   ----------------------------------------
	.byte	W96
@ 013   ----------------------------------------
	.byte	W96
@ 014   ----------------------------------------
	.byte	W96
@ 015   ----------------------------------------
	.byte	W96
@ 016   ----------------------------------------
Red_Like_Roses_Part_II_4_016:
	.byte		N11   , Gn3 , v096
	.byte	W12
	.byte		        En3 
	.byte	W12
	.byte		        Gn2 
	.byte	W12
	.byte		        Fs3 
	.byte	W12
	.byte		        Cs3 
	.byte	W12
	.byte		        Gn2 
	.byte	W12
	.byte		        An2 
	.byte	W24
	.byte	PEND
@ 017   ----------------------------------------
	.byte		        En3 
	.byte	W12
	.byte		        Cs3 
	.byte	W12
	.byte		        Gn2 
	.byte	W12
	.byte		        An2 
	.byte	W12
	.byte		        Gn2 
	.byte	W12
	.byte		        Dn3 
	.byte	W12
	.byte		        Cs3 
	.byte	W24
@ 018   ----------------------------------------
	.byte	PATT
	 .word	Red_Like_Roses_Part_II_4_016
@ 019   ----------------------------------------
	.byte		N11   , Bn2 , v096
	.byte	W12
	.byte		        Dn3 
	.byte	W12
	.byte		        Fs3 
	.byte	W12
	.byte		        En3 
	.byte	W12
	.byte		        Cs3 
	.byte	W12
	.byte		        Gn2 
	.byte	W12
	.byte		        An2 
	.byte	W24
@ 020   ----------------------------------------
	.byte		        Gn2 
	.byte	W12
	.byte		        Cs3 
	.byte	W12
	.byte		        En3 
	.byte	W12
	.byte		        Cs3 
	.byte	W12
	.byte		        Gn2 
	.byte	W12
	.byte		        An2 
	.byte	W12
	.byte		        An3 
	.byte	W24
@ 021   ----------------------------------------
	.byte		        Gn3 
	.byte	W12
	.byte		        Fs3 
	.byte	W12
	.byte		        Dn3 
	.byte	W12
	.byte		        An2 
	.byte	W12
	.byte		        En3 
	.byte	W12
	.byte		        Fs3 
	.byte	W12
	.byte		        An2 
	.byte	W24
@ 022   ----------------------------------------
	.byte		        En2 
	.byte	W12
	.byte		        Fs2 
	.byte	W12
	.byte		        Gn2 
	.byte	W12
	.byte		        Bn2 
	.byte	W12
	.byte		        Fs2 
	.byte	W12
	.byte		        Gn2 
	.byte	W12
	.byte		        An2 
	.byte	W12
	.byte		        Bn2 
	.byte	W12
@ 023   ----------------------------------------
	.byte		        Cs3 
	.byte	W12
	.byte		        Dn3 
	.byte	W12
	.byte		        Bn2 
	.byte	W12
	.byte		        An2 
	.byte	W12
	.byte		        Gn2 
	.byte	W12
	.byte		        Cs3 
	.byte	W36
@ 024   ----------------------------------------
	.byte		N23   , Fs3 
	.byte	W24
	.byte		N11   
	.byte	W12
	.byte		N11   
	.byte	W12
	.byte		N11   
	.byte	W12
	.byte		N11   
	.byte	W12
	.byte		N11   
	.byte	W12
	.byte		N11   
	.byte	W12
@ 025   ----------------------------------------
	.byte		N11   
	.byte	W12
	.byte		N11   
	.byte	W12
	.byte		N11   
	.byte	W12
	.byte		N11   
	.byte	W12
	.byte		N56   , An3 
	.byte	W48
@ 026   ----------------------------------------
Red_Like_Roses_Part_II_4_026:
	.byte	W12
	.byte		N11   , Fs3 , v096
	.byte	W12
	.byte		N11   
	.byte	W12
	.byte		N11   
	.byte	W12
	.byte		N11   
	.byte	W12
	.byte		N11   
	.byte	W12
	.byte		N11   
	.byte	W12
	.byte		N11   
	.byte	W12
	.byte	PEND
@ 027   ----------------------------------------
	.byte		N11   
	.byte	W12
	.byte		N11   
	.byte	W12
	.byte		N11   
	.byte	W12
	.byte		N68   , An3 
	.byte	W60
@ 028   ----------------------------------------
	.byte	PATT
	 .word	Red_Like_Roses_Part_II_4_026
@ 029   ----------------------------------------
	.byte		N11   , Fs3 , v096
	.byte	W12
	.byte		N11   
	.byte	W12
	.byte		N11   
	.byte	W12
	.byte		N11   
	.byte	W12
	.byte		N23   , An3 
	.byte	W24
	.byte		N11   , Fs3 
	.byte	W12
	.byte		N11   
	.byte	W12
@ 030   ----------------------------------------
Red_Like_Roses_Part_II_4_030:
	.byte		N11   , Fs3 , v096
	.byte	W12
	.byte		N11   
	.byte	W12
	.byte		N11   
	.byte	W12
	.byte		N11   
	.byte	W12
	.byte		N11   
	.byte	W12
	.byte		N11   
	.byte	W12
	.byte		N11   
	.byte	W12
	.byte		N11   
	.byte	W12
	.byte	PEND
@ 031   ----------------------------------------
	.byte		N11   
	.byte	W12
	.byte		N11   
	.byte	W12
	.byte		N11   
	.byte	W12
	.byte		N11   
	.byte	W12
	.byte		N44   , Cn4 
	.byte	W48
@ 032   ----------------------------------------
	.byte	PATT
	 .word	Red_Like_Roses_Part_II_4_026
@ 033   ----------------------------------------
	.byte	PATT
	 .word	Red_Like_Roses_Part_II_4_030
@ 034   ----------------------------------------
	.byte		N23   , Fs3 , v096
	.byte	W24
	.byte		N23   
	.byte	W24
	.byte		N23   
	.byte	W24
	.byte		N11   
	.byte	W12
	.byte		N11   
	.byte	W12
@ 035   ----------------------------------------
	.byte		N11   
	.byte	W12
	.byte		N11   
	.byte	W12
	.byte		N23   
	.byte	W24
	.byte		N32   
	.byte	W36
	.byte		N11   
	.byte	W12
@ 036   ----------------------------------------
	.byte		N11   
	.byte	W12
	.byte		N11   
	.byte	W12
	.byte		N11   
	.byte	W12
	.byte		N11   
	.byte	W12
	.byte		N23   
	.byte	W24
	.byte		N11   
	.byte	W12
	.byte		N11   
	.byte	W12
@ 037   ----------------------------------------
	.byte		N11   
	.byte	W12
	.byte		N11   
	.byte	W12
	.byte		N23   
	.byte	W24
	.byte		N23   
	.byte	W24
	.byte		N11   
	.byte	W12
	.byte		N11   
	.byte	W12
@ 038   ----------------------------------------
	.byte		        Gn3 
	.byte	W12
	.byte		        Fs3 
	.byte	W12
	.byte		        Fn3 
	.byte	W12
	.byte		        En3 
	.byte	W12
	.byte		        Dn3 
	.byte	W12
	.byte		        Cs3 
	.byte	W12
	.byte		        Cn3 
	.byte	W12
	.byte		        Bn2 
	.byte	W12
@ 039   ----------------------------------------
	.byte		        Cn3 
	.byte	W12
	.byte		        Cs3 
	.byte	W12
	.byte		        Dn3 
	.byte	W12
	.byte		        Cs3 
	.byte	W12
	.byte		        Cn3 
	.byte	W12
	.byte		        Bn2 
	.byte	W12
	.byte		        Fn2 
	.byte	W12
	.byte		N56   , En2 
	.byte	W12
@ 040   ----------------------------------------
	.byte	W72
	.byte		N11   , Bn3 
	.byte	W12
	.byte		        Cs4 
	.byte	W12
@ 041   ----------------------------------------
	.byte		N23   , Dn4 
	.byte	W24
	.byte		        Cs4 
	.byte	W24
	.byte		N11   , Bn3 
	.byte	W12
	.byte		N23   , Cs4 
	.byte	W24
	.byte		N44   , Bn3 
	.byte	W12
@ 042   ----------------------------------------
	.byte	W36
	.byte		TIE   , Fs3 
	.byte	W60
@ 043   ----------------------------------------
	.byte	W68
	.byte	W03
	.byte		EOT   
	.byte	W24
	.byte	W01
@ 044   ----------------------------------------
	.byte	W72
	.byte		N11   , Cs4 
	.byte	W24
@ 045   ----------------------------------------
	.byte		N23   , Dn4 
	.byte	W36
	.byte		        Bn3 
	.byte	W24
	.byte		        Cs4 
	.byte	W24
	.byte		TIE   , Bn3 
	.byte	W12
@ 046   ----------------------------------------
	.byte	W92
	.byte	W03
	.byte		EOT   
	.byte	W01
@ 047   ----------------------------------------
	.byte	W96
@ 048   ----------------------------------------
	.byte	W24
	.byte		N23   
	.byte	W24
	.byte		N11   
	.byte	W12
	.byte		N23   , Cs4 
	.byte	W24
	.byte		        Dn4 
	.byte	W12
@ 049   ----------------------------------------
	.byte	W12
	.byte		        Cs4 
	.byte	W24
	.byte		        Bn3 
	.byte	W24
	.byte		        Cs4 
	.byte	W24
	.byte		N56   , Bn3 
	.byte	W12
@ 050   ----------------------------------------
	.byte	W48
	.byte		N80   , Fs3 
	.byte	W48
@ 051   ----------------------------------------
	.byte	W36
	.byte		N11   
	.byte	W12
	.byte		N23   
	.byte	W24
	.byte		N11   
	.byte	W12
	.byte		TIE   , Gn3 
	.byte	W12
@ 052   ----------------------------------------
	.byte	W96
@ 053   ----------------------------------------
	.byte	W44
	.byte	W03
	.byte		EOT   
	.byte	W48
	.byte	W01
@ 054   ----------------------------------------
	.byte	W96
@ 055   ----------------------------------------
	.byte	W84
	.byte		N44   , En4 
	.byte	W12
@ 056   ----------------------------------------
	.byte	W36
	.byte		        Ds4 
	.byte	W48
	.byte		        Bn3 
	.byte	W12
@ 057   ----------------------------------------
	.byte	W36
	.byte		        Gn3 
	.byte	W60
@ 058   ----------------------------------------
Red_Like_Roses_Part_II_4_058:
	.byte		N11   , Fs3 , v096
	.byte	W12
	.byte		        Gn3 
	.byte	W12
	.byte		        Fs3 
	.byte	W12
	.byte		        Gn3 
	.byte	W12
	.byte		        Fs3 
	.byte	W12
	.byte		        Gn3 
	.byte	W12
	.byte		        Fs3 
	.byte	W12
	.byte		        Gn3 
	.byte	W12
	.byte	PEND
@ 059   ----------------------------------------
	.byte	PATT
	 .word	Red_Like_Roses_Part_II_4_058
@ 060   ----------------------------------------
	.byte	PATT
	 .word	Red_Like_Roses_Part_II_4_058
@ 061   ----------------------------------------
	.byte		N11   , Fs3 , v096
	.byte	W12
	.byte		        Gn3 
	.byte	W12
	.byte		        Fs3 
	.byte	W12
	.byte		N11   
	.byte		N11   , Gn3 
	.byte	W12
	.byte		N44   , Fs3 
	.byte	W48
@ 062   ----------------------------------------
	.byte	W96
@ 063   ----------------------------------------
	.byte	W84
	.byte		N92   
	.byte	W12
@ 064   ----------------------------------------
	.byte	W84
	.byte		        En3 
	.byte	W12
@ 065   ----------------------------------------
	.byte	W84
	.byte		        Bn3 
	.byte	W12
@ 066   ----------------------------------------
	.byte	W84
	.byte		N56   , Fs3 
	.byte	W12
@ 067   ----------------------------------------
	.byte	W48
	.byte		N11   , Bn3 
	.byte	W12
	.byte		N23   , Cs4 
	.byte	W24
	.byte		N68   , Dn4 
	.byte	W12
@ 068   ----------------------------------------
	.byte	W60
	.byte		N11   , Cs4 
	.byte	W24
	.byte		N44   , Bn3 
	.byte	W12
@ 069   ----------------------------------------
	.byte	W48
	.byte		N11   , Cs4 
	.byte	W12
	.byte		N23   , Dn4 
	.byte	W21
	.byte		N02   , Bn3 
	.byte	W03
	.byte		N92   , Cs4 
	.byte	W12
@ 070   ----------------------------------------
	.byte	W84
	.byte		        An3 
	.byte	W12
@ 071   ----------------------------------------
	.byte	W84
	.byte		        Fs3 
	.byte	W12
@ 072   ----------------------------------------
	.byte	W84
	.byte		        An3 
	.byte	W12
@ 073   ----------------------------------------
	.byte	W84
	.byte		        Bn3 
	.byte	W12
@ 074   ----------------------------------------
	.byte	W84
	.byte		N56   , Cs4 
	.byte	W12
@ 075   ----------------------------------------
	.byte	W48
	.byte		N11   , Bn3 
	.byte	W12
	.byte		N23   , Cs4 
	.byte	W24
	.byte		        Dn4 
	.byte	W12
@ 076   ----------------------------------------
	.byte	W12
	.byte		        Cs4 
	.byte	W24
	.byte		N23   
	.byte	W24
	.byte		        Bn3 
	.byte	W24
	.byte		N23   
	.byte	W12
@ 077   ----------------------------------------
	.byte	W12
	.byte		        Fs3 
	.byte	W24
	.byte		        Bn3 
	.byte	W24
	.byte		        Cs4 
	.byte	W24
	.byte		        Dn4 
	.byte	W12
@ 078   ----------------------------------------
	.byte	W12
	.byte		        Cs4 
	.byte	W24
	.byte		        Bn3 
	.byte	W24
	.byte		        An3 
	.byte	W24
	.byte		N44   , Cs4 
	.byte	W12
@ 079   ----------------------------------------
	.byte	W36
	.byte		N32   
	.byte	W36
	.byte		N11   , Bn3 
	.byte	W12
	.byte		N32   , Bn1 
	.byte		N32   , Fs2 
	.byte	W12
@ 080   ----------------------------------------
	.byte	W96
@ 081   ----------------------------------------
Red_Like_Roses_Part_II_4_081:
	.byte	W84
	.byte		N32   , Bn1 , v096
	.byte		N32   , Fs2 
	.byte	W12
	.byte	PEND
@ 082   ----------------------------------------
	.byte	W96
@ 083   ----------------------------------------
	.byte	PATT
	 .word	Red_Like_Roses_Part_II_4_081
@ 084   ----------------------------------------
	.byte	W96
@ 085   ----------------------------------------
	.byte	PATT
	 .word	Red_Like_Roses_Part_II_4_081
@ 086   ----------------------------------------
Red_Like_Roses_Part_II_4_086:
	.byte	W84
	.byte		N32   , Fs1 , v096
	.byte		N32   , Cs2 
	.byte	W12
	.byte	PEND
@ 087   ----------------------------------------
	.byte	W36
	.byte		N23   , Gn1 
	.byte		N23   , Dn2 
	.byte	W48
	.byte		N32   , Bn1 
	.byte		N32   , Fs2 
	.byte	W12
@ 088   ----------------------------------------
	.byte	W96
@ 089   ----------------------------------------
	.byte	PATT
	 .word	Red_Like_Roses_Part_II_4_081
@ 090   ----------------------------------------
	.byte	W96
@ 091   ----------------------------------------
	.byte	W84
	.byte		N32   , Gn1 , v096
	.byte		N32   , Dn2 
	.byte	W12
@ 092   ----------------------------------------
	.byte	W96
@ 093   ----------------------------------------
	.byte	W84
	.byte		        En1 
	.byte		N32   , Bn1 
	.byte	W12
@ 094   ----------------------------------------
	.byte	PATT
	 .word	Red_Like_Roses_Part_II_4_086
@ 095   ----------------------------------------
	.byte	W36
	.byte		N44   , Gn1 , v096
	.byte		N44   , Dn2 
	.byte	W48
	.byte		N23   , Bn1 
	.byte		N23   , Fs2 
	.byte	W12
@ 096   ----------------------------------------
Red_Like_Roses_Part_II_4_096:
	.byte	W12
	.byte		N11   , Bn1 , v096
	.byte	W12
	.byte		N11   
	.byte	W12
	.byte		N11   
	.byte	W12
	.byte		N11   
	.byte	W12
	.byte		N11   
	.byte	W12
	.byte		N11   
	.byte	W12
	.byte		N11   
	.byte	W12
	.byte	PEND
@ 097   ----------------------------------------
	.byte		N11   
	.byte	W12
	.byte		N11   
	.byte	W12
	.byte		N11   
	.byte	W12
	.byte		N11   
	.byte	W12
	.byte		N11   
	.byte	W12
	.byte		N11   
	.byte	W12
	.byte		N11   
	.byte	W12
	.byte		N23   
	.byte		N23   , Fs2 
	.byte	W12
@ 098   ----------------------------------------
	.byte	PATT
	 .word	Red_Like_Roses_Part_II_4_096
@ 099   ----------------------------------------
	.byte		N11   , Bn1 , v096
	.byte	W12
	.byte		N11   
	.byte	W12
	.byte		N11   
	.byte	W12
	.byte		N11   
	.byte	W12
	.byte		N11   
	.byte	W12
	.byte		N11   
	.byte	W12
	.byte		N11   
	.byte	W12
	.byte		N23   , Gn1 
	.byte		N23   , Dn2 
	.byte	W12
@ 100   ----------------------------------------
Red_Like_Roses_Part_II_4_100:
	.byte	W12
	.byte		N11   , Gn1 , v096
	.byte	W12
	.byte		N11   
	.byte	W12
	.byte		N11   
	.byte	W12
	.byte		N11   
	.byte	W12
	.byte		N11   
	.byte	W12
	.byte		N11   
	.byte	W12
	.byte		N11   
	.byte	W12
	.byte	PEND
@ 101   ----------------------------------------
	.byte		N11   
	.byte	W12
	.byte		N11   
	.byte	W12
	.byte		N11   
	.byte	W12
	.byte		N11   
	.byte	W12
	.byte		N11   
	.byte	W12
	.byte		N11   
	.byte	W12
	.byte		N11   
	.byte	W12
	.byte		N23   , En1 
	.byte		N23   , Bn1 
	.byte	W12
@ 102   ----------------------------------------
	.byte	W12
	.byte		N11   , En1 
	.byte	W12
	.byte		N11   
	.byte	W12
	.byte		N23   , Fs1 
	.byte		N23   , Cs2 
	.byte	W24
	.byte		N11   , Fs1 
	.byte	W12
	.byte		N11   
	.byte	W12
	.byte		N23   , Gn1 
	.byte		N23   , Dn2 
	.byte	W12
@ 103   ----------------------------------------
	.byte	W12
	.byte		N11   
	.byte	W24
	.byte		N23   , Cn2 
	.byte	W24
	.byte		N11   , Bn1 
	.byte	W12
	.byte		        An1 
	.byte	W12
	.byte		N23   , Bn1 
	.byte		N23   , Fs2 
	.byte	W12
@ 104   ----------------------------------------
	.byte	PATT
	 .word	Red_Like_Roses_Part_II_4_096
@ 105   ----------------------------------------
	.byte		N11   , Bn1 , v096
	.byte	W12
	.byte		N11   
	.byte	W12
	.byte		N11   
	.byte	W12
	.byte		N11   
	.byte	W12
	.byte		N11   
	.byte	W12
	.byte		N11   
	.byte	W12
	.byte		        An1 
	.byte		N11   , En2 
	.byte	W12
	.byte		N23   , Bn1 
	.byte		N23   , Fs2 
	.byte	W12
@ 106   ----------------------------------------
	.byte	PATT
	 .word	Red_Like_Roses_Part_II_4_096
@ 107   ----------------------------------------
	.byte		N11   , Bn1 , v096
	.byte	W12
	.byte		N11   
	.byte	W12
	.byte		N11   
	.byte	W12
	.byte		N11   
	.byte	W12
	.byte		N11   
	.byte	W12
	.byte		N11   
	.byte	W12
	.byte		        An1 
	.byte	W12
	.byte		N23   , Gn1 
	.byte		N23   , Dn2 
	.byte	W12
@ 108   ----------------------------------------
	.byte	PATT
	 .word	Red_Like_Roses_Part_II_4_100
@ 109   ----------------------------------------
	.byte		N11   , Gn1 , v096
	.byte	W12
	.byte		N11   
	.byte	W12
	.byte		N11   
	.byte	W12
	.byte		N11   
	.byte	W12
	.byte		N11   
	.byte	W12
	.byte		N11   
	.byte	W12
	.byte		N11   
	.byte	W24
@ 110   ----------------------------------------
	.byte		        Gn2 
	.byte	W12
	.byte		        Fs2 
	.byte	W12
	.byte		        Fn2 
	.byte	W12
	.byte		        En2 
	.byte	W12
	.byte		        Dn2 
	.byte	W12
	.byte		        Cs2 
	.byte	W12
	.byte		        Cn2 
	.byte	W12
	.byte		        Bn1 
	.byte	W12
@ 111   ----------------------------------------
	.byte		        Cn2 
	.byte	W12
	.byte		        Cs2 
	.byte	W12
	.byte		        Dn2 
	.byte	W12
	.byte		        Cs2 
	.byte	W12
	.byte		        Cn2 
	.byte	W12
	.byte		        Bn1 
	.byte	W12
	.byte		        Fn1 
	.byte	W12
	.byte		N32   , En1 
	.byte	W12
@ 112   ----------------------------------------
	.byte	W24
	.byte		N11   
	.byte	W12
	.byte		N11   
	.byte	W12
	.byte		N11   
	.byte	W12
	.byte		N11   
	.byte	W12
	.byte		N11   
	.byte	W12
	.byte		N11   
	.byte	W12
@ 113   ----------------------------------------
	.byte		        Gn1 
	.byte		N11   , Dn2 
	.byte	W12
	.byte		        Gn1 
	.byte		N11   , Dn2 
	.byte	W12
	.byte		        Gn1 
	.byte		N11   , Dn2 
	.byte	W12
	.byte		        Gn1 
	.byte		N11   , Dn2 
	.byte	W12
	.byte		        Fs1 
	.byte		N11   , Cn2 
	.byte	W12
	.byte		        Fs1 
	.byte		N11   , Cn2 
	.byte	W12
	.byte		        Fs1 
	.byte		N11   , Cn2 
	.byte	W12
	.byte		N23   , Bn1 
	.byte		N23   , Fs2 
	.byte	W12
@ 114   ----------------------------------------
Red_Like_Roses_Part_II_4_114:
	.byte	W12
	.byte		N11   , Bn1 , v096
	.byte		N11   , Fs2 
	.byte	W12
	.byte		        Bn1 
	.byte		N11   , Fs2 
	.byte	W12
	.byte		        Bn1 
	.byte		N11   , Fs2 
	.byte	W12
	.byte		        Bn1 
	.byte		N11   , Fs2 
	.byte	W12
	.byte		        Bn1 
	.byte		N11   , Fs2 
	.byte	W12
	.byte		        Bn1 
	.byte		N11   , Fs2 
	.byte	W12
	.byte		        Bn1 
	.byte		N11   , Fs2 
	.byte	W12
	.byte	PEND
@ 115   ----------------------------------------
	.byte		        Bn1 
	.byte		N11   , Fs2 
	.byte	W12
	.byte		        Bn1 
	.byte		N11   , Fs2 
	.byte	W12
	.byte		        Bn1 
	.byte		N11   , Fs2 
	.byte	W12
	.byte		        Bn1 
	.byte		N11   , Fs2 
	.byte	W12
	.byte		        Dn2 
	.byte		N11   , An2 
	.byte	W12
	.byte		        Dn2 
	.byte		N11   , An2 
	.byte	W12
	.byte		        Dn2 
	.byte		N11   , An2 
	.byte	W12
	.byte		N23   , En1 
	.byte		N23   , Bn1 
	.byte	W12
@ 116   ----------------------------------------
	.byte	W12
	.byte		N11   , En1 
	.byte		N11   , Bn1 
	.byte	W12
	.byte		        En1 
	.byte		N11   , Bn1 
	.byte	W12
	.byte		        En1 
	.byte		N11   , Bn1 
	.byte	W12
	.byte		        En1 
	.byte		N11   , Bn1 
	.byte	W12
	.byte		        En1 
	.byte		N11   , Bn1 
	.byte	W12
	.byte		        Gn1 
	.byte		N11   , Dn2 
	.byte	W12
	.byte		        Gn1 
	.byte		N11   , Dn2 
	.byte	W12
@ 117   ----------------------------------------
Red_Like_Roses_Part_II_4_117:
	.byte		N11   , Gn1 , v096
	.byte		N11   , Dn2 
	.byte	W12
	.byte		        Gn1 
	.byte		N11   , Dn2 
	.byte	W12
	.byte		        Gn1 
	.byte		N11   , Dn2 
	.byte	W12
	.byte		        Fs1 
	.byte		N11   , Cs2 
	.byte	W12
	.byte		        Fs1 
	.byte		N11   , Cs2 
	.byte	W12
	.byte		        Fs1 
	.byte		N11   , Cs2 
	.byte	W12
	.byte		        Fs1 
	.byte		N11   , Cs2 
	.byte	W12
	.byte		N23   , Bn1 
	.byte		N23   , Fs2 
	.byte	W12
	.byte	PEND
@ 118   ----------------------------------------
	.byte	W12
	.byte		N11   , Dn2 
	.byte		N11   , An2 
	.byte	W12
	.byte		        Dn2 
	.byte		N11   , An2 
	.byte	W12
	.byte		N23   , Bn1 
	.byte		N23   , Fs2 
	.byte	W24
	.byte		N11   , Dn2 
	.byte		N11   , An2 
	.byte	W12
	.byte		        Dn2 
	.byte		N11   , An2 
	.byte	W12
	.byte		N23   , Bn1 
	.byte		N23   , Fs2 
	.byte	W12
@ 119   ----------------------------------------
	.byte	W12
	.byte		N11   , Dn2 
	.byte		N11   , An2 
	.byte	W12
	.byte		        Dn2 
	.byte		N11   , An2 
	.byte	W12
	.byte		N23   , Bn1 
	.byte		N23   , Fs2 
	.byte	W24
	.byte		N11   , Dn2 
	.byte		N11   , An2 
	.byte	W12
	.byte		        Dn2 
	.byte		N11   , An2 
	.byte	W12
	.byte		N23   , En1 
	.byte		N23   , Bn1 
	.byte	W12
@ 120   ----------------------------------------
	.byte	W12
	.byte		N11   , En1 
	.byte		N11   , Bn1 
	.byte	W12
	.byte		        En1 
	.byte		N11   , Bn1 
	.byte	W12
	.byte		        En1 
	.byte		N11   , Bn1 
	.byte	W12
	.byte		        En1 
	.byte		N11   , Bn1 
	.byte	W12
	.byte		        En1 
	.byte		N11   , Bn1 
	.byte	W12
	.byte		        En1 
	.byte		N11   , Bn1 
	.byte	W12
	.byte		        Gn1 
	.byte		N11   , Dn2 
	.byte	W12
@ 121   ----------------------------------------
	.byte	PATT
	 .word	Red_Like_Roses_Part_II_4_117
@ 122   ----------------------------------------
	.byte	PATT
	 .word	Red_Like_Roses_Part_II_4_114
@ 123   ----------------------------------------
	.byte		N11   , Bn1 , v096
	.byte		N11   , Fs2 
	.byte	W12
	.byte		        Bn1 
	.byte		N11   , Fs2 
	.byte	W12
	.byte		        Bn1 
	.byte		N11   , Fs2 
	.byte	W12
	.byte		        Bn1 
	.byte		N11   , Fs2 
	.byte	W12
	.byte		        Bn1 
	.byte		N11   , Fs2 
	.byte	W12
	.byte		        An1 
	.byte		N11   , En2 
	.byte	W12
	.byte		        Bn1 
	.byte		N11   , Fs2 
	.byte	W12
	.byte		N23   , Cn2 
	.byte		N23   , Gn2 
	.byte	W12
@ 124   ----------------------------------------
	.byte	W12
	.byte		N11   , Cn2 
	.byte		N11   , Gn2 
	.byte	W12
	.byte		        Cn2 
	.byte		N11   , Gn2 
	.byte	W12
	.byte		        Cn2 
	.byte		N11   , Gn2 
	.byte	W12
	.byte		        Cn2 
	.byte		N11   , Gn2 
	.byte	W12
	.byte		        Cn2 
	.byte		N11   , Gn2 
	.byte	W12
	.byte		        Cn2 
	.byte		N11   , Gn2 
	.byte	W12
	.byte		        Cn2 
	.byte		N11   , Gn2 
	.byte	W12
@ 125   ----------------------------------------
	.byte		        Cn2 
	.byte		N11   , Gn2 
	.byte	W12
	.byte		        Cn2 
	.byte		N11   , Gn2 
	.byte	W12
	.byte		        Cn2 
	.byte		N11   , Gn2 
	.byte	W12
	.byte		        Cn2 
	.byte		N11   , Gn2 
	.byte	W12
	.byte		        Cn2 
	.byte		N11   , Gn2 
	.byte	W12
	.byte		        Cn2 
	.byte		N11   , Gn2 
	.byte	W12
	.byte		        Cn2 
	.byte		N11   , Gn2 
	.byte	W12
	.byte		N23   , Cn2 
	.byte		N23   , Cn3 
	.byte	W12
@ 126   ----------------------------------------
	.byte	W12
	.byte		N11   , Cn2 
	.byte		N11   , Cn3 
	.byte	W12
	.byte		        Ds2 
	.byte		N11   , Ds3 
	.byte	W12
	.byte		        Ds2 
	.byte		N11   , Ds3 
	.byte	W12
	.byte		        Ds2 
	.byte		N11   , Ds3 
	.byte	W12
	.byte		        Ds2 
	.byte		N11   , Ds3 
	.byte	W12
	.byte		        Ds2 
	.byte		N11   , Ds3 
	.byte	W12
	.byte		        Gn2 
	.byte		N11   , Gn3 
	.byte	W12
@ 127   ----------------------------------------
	.byte		        Gn2 
	.byte		N11   , Gn3 
	.byte	W12
	.byte		        Gn2 
	.byte		N11   , Gn3 
	.byte	W12
	.byte		        Gn2 
	.byte		N11   , Gn3 
	.byte	W12
	.byte		        Fs2 
	.byte		N11   , Gn3 
	.byte	W12
	.byte		        Fs2 
	.byte		N11   , Fs3 
	.byte	W12
	.byte		        Fs2 
	.byte		N11   , Fs3 
	.byte	W12
	.byte		        Fs2 
	.byte		N11   , Fs3 
	.byte	W12
	.byte		N23   , Cn2 
	.byte		N23   , Cn3 
	.byte	W12
@ 128   ----------------------------------------
	.byte	W12
	.byte		N11   , Cn2 
	.byte		N11   , Cn3 
	.byte	W12
	.byte		        Cn2 
	.byte		N11   , Cn3 
	.byte	W12
	.byte		        Ds2 
	.byte		N11   , Ds3 
	.byte	W12
	.byte		        Ds2 
	.byte		N11   , Ds3 
	.byte	W12
	.byte		        Ds2 
	.byte		N11   , Ds3 
	.byte	W12
	.byte		        Ds2 
	.byte		N11   , Ds3 
	.byte	W12
	.byte		        Gn2 
	.byte		N11   , Gn3 
	.byte	W12
@ 129   ----------------------------------------
	.byte		        Gn2 
	.byte		N11   , Gn3 
	.byte	W12
	.byte		        Gn2 
	.byte		N11   , Gn3 
	.byte	W12
	.byte		        Fs2 
	.byte		N11   , Fs3 
	.byte	W12
	.byte		        Fs2 
	.byte		N11   , Fs3 
	.byte	W12
	.byte		        Fs2 
	.byte		N11   , Fs3 
	.byte	W12
	.byte		        Fs2 
	.byte		N11   , Fs3 
	.byte	W12
	.byte		        Fs2 
	.byte		N11   , Fs3 
	.byte	W24
@ 130   ----------------------------------------
Red_Like_Roses_Part_II_4_130:
	.byte		N11   , Fs2 , v096
	.byte		N11   , Fs3 
	.byte	W12
	.byte		        Gn2 
	.byte		N11   , Gn3 
	.byte	W12
	.byte		        Fs2 
	.byte		N11   , Fs3 
	.byte	W12
	.byte		        Gn2 
	.byte		N11   , Gn3 
	.byte	W12
	.byte		        Fs2 
	.byte		N11   , Fs3 
	.byte	W12
	.byte		        Gn2 
	.byte		N11   , Gn3 
	.byte	W12
	.byte		        Fs2 
	.byte		N11   , Fs3 
	.byte	W12
	.byte		        Gn2 
	.byte		N11   , Gn3 
	.byte	W12
	.byte	PEND
@ 131   ----------------------------------------
	.byte	PATT
	 .word	Red_Like_Roses_Part_II_4_130
@ 132   ----------------------------------------
	.byte	PATT
	 .word	Red_Like_Roses_Part_II_4_130
@ 133   ----------------------------------------
	.byte		N11   , Fs2 , v096
	.byte		N11   , Fs3 
	.byte	W12
	.byte		        Gn2 
	.byte		N11   , Gn3 
	.byte	W12
	.byte		        Fs2 
	.byte		N11   , Fs3 
	.byte	W12
	.byte		        Gn2 
	.byte		N11   , Gn3 
	.byte	W12
	.byte		N23   , Fs2 
	.byte		N23   , Fs3 
	.byte	W48
@ 134   ----------------------------------------
	.byte	W96
@ 135   ----------------------------------------
	.byte	W84
	.byte		        Bn1 
	.byte		N23   , Fs2 
	.byte	W12
@ 136   ----------------------------------------
	.byte	PATT
	 .word	Red_Like_Roses_Part_II_4_114
@ 137   ----------------------------------------
Red_Like_Roses_Part_II_4_137:
	.byte		N11   , Bn1 , v096
	.byte		N11   , Fs2 
	.byte	W12
	.byte		        Bn1 
	.byte		N11   , Fs2 
	.byte	W12
	.byte		        Bn1 
	.byte		N11   , Fs2 
	.byte	W12
	.byte		        Bn1 
	.byte		N11   , Fs2 
	.byte	W12
	.byte		        Bn1 
	.byte		N11   , Fs2 
	.byte	W12
	.byte		        Bn1 
	.byte		N11   , Fs2 
	.byte	W12
	.byte		        Bn1 
	.byte		N11   , Fs2 
	.byte	W12
	.byte		N23   , Gn1 
	.byte		N23   , Dn2 
	.byte	W12
	.byte	PEND
@ 138   ----------------------------------------
Red_Like_Roses_Part_II_4_138:
	.byte	W12
	.byte		N11   , Gn1 , v096
	.byte		N11   , Dn2 
	.byte	W12
	.byte		        Gn1 
	.byte		N11   , Dn2 
	.byte	W12
	.byte		        Gn1 
	.byte		N11   , Dn2 
	.byte	W12
	.byte		        Gn1 
	.byte		N11   , Dn2 
	.byte	W12
	.byte		        Gn1 
	.byte		N11   , Dn2 
	.byte	W12
	.byte		        Gn1 
	.byte		N11   , Dn2 
	.byte	W12
	.byte		        Gn1 
	.byte		N11   , Dn2 
	.byte	W12
	.byte	PEND
@ 139   ----------------------------------------
Red_Like_Roses_Part_II_4_139:
	.byte		N11   , Gn1 , v096
	.byte		N11   , Dn2 
	.byte	W12
	.byte		        Gn1 
	.byte		N11   , Dn2 
	.byte	W12
	.byte		        Gn1 
	.byte		N11   , Dn2 
	.byte	W12
	.byte		        Gn1 
	.byte		N11   , Dn2 
	.byte	W12
	.byte		        Gn1 
	.byte		N11   , Dn2 
	.byte	W12
	.byte		        Gn1 
	.byte		N11   , Dn2 
	.byte	W12
	.byte		        Gn1 
	.byte		N11   , Dn2 
	.byte	W12
	.byte		N23   , En1 
	.byte		N23   , Bn1 
	.byte	W12
	.byte	PEND
@ 140   ----------------------------------------
Red_Like_Roses_Part_II_4_140:
	.byte	W12
	.byte		N11   , En1 , v096
	.byte		N11   , Bn1 
	.byte	W12
	.byte		        En1 
	.byte		N11   , Bn1 
	.byte	W12
	.byte		        En1 
	.byte		N11   , Bn1 
	.byte	W12
	.byte		        En1 
	.byte		N11   , Bn1 
	.byte	W12
	.byte		        En1 
	.byte		N11   , Bn1 
	.byte	W12
	.byte		        En1 
	.byte		N11   , Bn1 
	.byte	W12
	.byte		        En1 
	.byte		N11   , Bn1 
	.byte	W12
	.byte	PEND
@ 141   ----------------------------------------
Red_Like_Roses_Part_II_4_141:
	.byte		N11   , En1 , v096
	.byte		N11   , Bn1 
	.byte	W12
	.byte		        En1 
	.byte		N11   , Bn1 
	.byte	W12
	.byte		        En1 
	.byte		N11   , Bn1 
	.byte	W12
	.byte		        En1 
	.byte		N11   , Bn1 
	.byte	W12
	.byte		        En1 
	.byte		N11   , Bn1 
	.byte	W12
	.byte		        En1 
	.byte		N11   , Bn1 
	.byte	W12
	.byte		        En1 
	.byte		N11   , Bn1 
	.byte	W12
	.byte		N23   , Fs1 
	.byte		N23   , Cs2 
	.byte	W12
	.byte	PEND
@ 142   ----------------------------------------
Red_Like_Roses_Part_II_4_142:
	.byte	W12
	.byte		N11   , Fs1 , v096
	.byte		N11   , Cs2 
	.byte	W12
	.byte		        Fs1 
	.byte		N11   , Cs2 
	.byte	W12
	.byte		        Fs1 
	.byte		N11   , Cs2 
	.byte	W12
	.byte		        Fs1 
	.byte		N11   , Cs2 
	.byte	W12
	.byte		        Fs1 
	.byte		N11   , Cs2 
	.byte	W12
	.byte		        Fs1 
	.byte		N11   , Cs2 
	.byte	W12
	.byte		        Fs1 
	.byte		N11   , Cs2 
	.byte	W12
	.byte	PEND
@ 143   ----------------------------------------
Red_Like_Roses_Part_II_4_143:
	.byte		N11   , Gn1 , v096
	.byte		N11   , Dn2 
	.byte	W12
	.byte		        Gn1 
	.byte		N11   , Dn2 
	.byte	W12
	.byte		        Gn1 
	.byte		N11   , Dn2 
	.byte	W12
	.byte		        An1 
	.byte		N11   , En2 
	.byte	W12
	.byte		        An1 
	.byte		N11   , En2 
	.byte	W12
	.byte		        An1 
	.byte		N11   , En2 
	.byte	W12
	.byte		        An1 
	.byte		N11   , En2 
	.byte	W12
	.byte		N23   , Bn1 
	.byte		N23   , Fs2 
	.byte	W12
	.byte	PEND
@ 144   ----------------------------------------
	.byte	PATT
	 .word	Red_Like_Roses_Part_II_4_114
@ 145   ----------------------------------------
	.byte	PATT
	 .word	Red_Like_Roses_Part_II_4_137
@ 146   ----------------------------------------
	.byte	PATT
	 .word	Red_Like_Roses_Part_II_4_138
@ 147   ----------------------------------------
	.byte	PATT
	 .word	Red_Like_Roses_Part_II_4_139
@ 148   ----------------------------------------
	.byte	PATT
	 .word	Red_Like_Roses_Part_II_4_140
@ 149   ----------------------------------------
	.byte	PATT
	 .word	Red_Like_Roses_Part_II_4_141
@ 150   ----------------------------------------
	.byte	PATT
	 .word	Red_Like_Roses_Part_II_4_142
@ 151   ----------------------------------------
	.byte	PATT
	 .word	Red_Like_Roses_Part_II_4_143
@ 152   ----------------------------------------
	.byte	W68
	.byte	W03
	.byte	GOTO
	 .word	Red_Like_Roses_Part_II_4_B1
Red_Like_Roses_Part_II_4_B2:
	.byte	FINE

@**************** Track 5 (Midi-Chn.5) ****************@

Red_Like_Roses_Part_II_5:
	.byte	KEYSH , Red_Like_Roses_Part_II_key+0
Red_Like_Roses_Part_II_5_B1:
@ 000   ----------------------------------------
	.byte		VOICE , 31
	.byte		VOL   , 69*Red_Like_Roses_Part_II_mvl/mxv
	.byte		PAN   , c_v+0
	.byte	W96
@ 001   ----------------------------------------
	.byte	W96
@ 002   ----------------------------------------
	.byte	W96
@ 003   ----------------------------------------
	.byte	W96
@ 004   ----------------------------------------
	.byte	W96
@ 005   ----------------------------------------
	.byte	W96
@ 006   ----------------------------------------
	.byte	W96
@ 007   ----------------------------------------
	.byte	W96
@ 008   ----------------------------------------
Red_Like_Roses_Part_II_5_008:
	.byte		N11   , En3 , v096
	.byte	W12
	.byte		        Cs3 
	.byte	W12
	.byte		        En2 
	.byte	W12
	.byte		        Dn3 
	.byte	W12
	.byte		        An2 
	.byte	W12
	.byte		        En2 
	.byte	W12
	.byte		        Cs3 
	.byte	W24
	.byte	PEND
@ 009   ----------------------------------------
Red_Like_Roses_Part_II_5_009:
	.byte		N11   , Cs3 , v096
	.byte	W12
	.byte		        An2 
	.byte	W12
	.byte		        En2 
	.byte	W12
	.byte		        Fs2 
	.byte	W12
	.byte		        En2 
	.byte	W12
	.byte		        Bn2 
	.byte	W12
	.byte		        An2 
	.byte	W24
	.byte	PEND
@ 010   ----------------------------------------
	.byte	PATT
	 .word	Red_Like_Roses_Part_II_5_008
@ 011   ----------------------------------------
Red_Like_Roses_Part_II_5_011:
	.byte		N11   , Gn2 , v096
	.byte	W12
	.byte		        Bn2 
	.byte	W12
	.byte		        Dn3 
	.byte	W12
	.byte		        Cs3 
	.byte	W12
	.byte		        An2 
	.byte	W12
	.byte		        En2 
	.byte	W12
	.byte		        Fs2 
	.byte	W24
	.byte	PEND
@ 012   ----------------------------------------
Red_Like_Roses_Part_II_5_012:
	.byte		N11   , En2 , v096
	.byte	W12
	.byte		        An2 
	.byte	W12
	.byte		        Cs3 
	.byte	W12
	.byte		        An2 
	.byte	W12
	.byte		        En2 
	.byte	W12
	.byte		        An2 
	.byte	W12
	.byte		        Fs3 
	.byte	W24
	.byte	PEND
@ 013   ----------------------------------------
Red_Like_Roses_Part_II_5_013:
	.byte		N11   , En3 , v096
	.byte	W12
	.byte		        Dn3 
	.byte	W12
	.byte		        Bn2 
	.byte	W12
	.byte		        Fs2 
	.byte	W12
	.byte		        Cs3 
	.byte	W12
	.byte		        Dn3 
	.byte	W12
	.byte		        Dn2 
	.byte	W24
	.byte	PEND
@ 014   ----------------------------------------
Red_Like_Roses_Part_II_5_014:
	.byte		N11   , Cs2 , v096
	.byte	W12
	.byte		        Dn2 
	.byte	W12
	.byte		        En2 
	.byte	W12
	.byte		        Gn2 
	.byte	W12
	.byte		        Dn2 
	.byte	W12
	.byte		        En2 
	.byte	W12
	.byte		        Fs2 
	.byte	W12
	.byte		        Gn2 
	.byte	W12
	.byte	PEND
@ 015   ----------------------------------------
Red_Like_Roses_Part_II_5_015:
	.byte		N11   , An2 , v096
	.byte	W12
	.byte		        Bn2 
	.byte	W12
	.byte		        Gn2 
	.byte	W12
	.byte		        Fs2 
	.byte	W12
	.byte		        En2 
	.byte	W12
	.byte		        An2 
	.byte	W36
	.byte	PEND
@ 016   ----------------------------------------
	.byte	PATT
	 .word	Red_Like_Roses_Part_II_5_008
@ 017   ----------------------------------------
	.byte	PATT
	 .word	Red_Like_Roses_Part_II_5_009
@ 018   ----------------------------------------
	.byte	PATT
	 .word	Red_Like_Roses_Part_II_5_008
@ 019   ----------------------------------------
	.byte	PATT
	 .word	Red_Like_Roses_Part_II_5_011
@ 020   ----------------------------------------
	.byte	PATT
	 .word	Red_Like_Roses_Part_II_5_012
@ 021   ----------------------------------------
	.byte	PATT
	 .word	Red_Like_Roses_Part_II_5_013
@ 022   ----------------------------------------
	.byte	PATT
	 .word	Red_Like_Roses_Part_II_5_014
@ 023   ----------------------------------------
	.byte	PATT
	 .word	Red_Like_Roses_Part_II_5_015
@ 024   ----------------------------------------
	.byte		N23   , Fs3 , v096
	.byte	W24
	.byte		N11   
	.byte	W12
	.byte		N11   
	.byte	W12
	.byte		N11   
	.byte	W12
	.byte		N11   
	.byte	W12
	.byte		N11   
	.byte	W12
	.byte		N11   
	.byte	W12
@ 025   ----------------------------------------
	.byte		N11   
	.byte	W12
	.byte		N11   
	.byte	W12
	.byte		N11   
	.byte	W12
	.byte		N11   
	.byte	W12
	.byte		N56   , An3 
	.byte	W48
@ 026   ----------------------------------------
Red_Like_Roses_Part_II_5_026:
	.byte	W12
	.byte		N11   , Fs3 , v096
	.byte	W12
	.byte		N11   
	.byte	W12
	.byte		N11   
	.byte	W12
	.byte		N11   
	.byte	W12
	.byte		N11   
	.byte	W12
	.byte		N11   
	.byte	W12
	.byte		N11   
	.byte	W12
	.byte	PEND
@ 027   ----------------------------------------
	.byte		N11   
	.byte	W12
	.byte		N11   
	.byte	W12
	.byte		N11   
	.byte	W12
	.byte		N68   , An3 
	.byte	W60
@ 028   ----------------------------------------
	.byte	PATT
	 .word	Red_Like_Roses_Part_II_5_026
@ 029   ----------------------------------------
	.byte		N11   , Fs3 , v096
	.byte	W12
	.byte		N11   
	.byte	W12
	.byte		N11   
	.byte	W12
	.byte		N11   
	.byte	W12
	.byte		N23   , An3 
	.byte	W24
	.byte		N11   , Fs3 
	.byte	W12
	.byte		N11   
	.byte	W12
@ 030   ----------------------------------------
Red_Like_Roses_Part_II_5_030:
	.byte		N11   , Fs3 , v096
	.byte	W12
	.byte		N11   
	.byte	W12
	.byte		N11   
	.byte	W12
	.byte		N11   
	.byte	W12
	.byte		N11   
	.byte	W12
	.byte		N11   
	.byte	W12
	.byte		N11   
	.byte	W12
	.byte		N11   
	.byte	W12
	.byte	PEND
@ 031   ----------------------------------------
	.byte		N11   
	.byte	W12
	.byte		N11   
	.byte	W12
	.byte		N11   
	.byte	W12
	.byte		N11   
	.byte	W12
	.byte		N44   , Cn4 
	.byte	W48
@ 032   ----------------------------------------
	.byte	PATT
	 .word	Red_Like_Roses_Part_II_5_026
@ 033   ----------------------------------------
	.byte	PATT
	 .word	Red_Like_Roses_Part_II_5_030
@ 034   ----------------------------------------
	.byte		N23   , Fs3 , v096
	.byte	W24
	.byte		N23   
	.byte	W24
	.byte		N23   
	.byte	W24
	.byte		N11   
	.byte	W12
	.byte		N11   
	.byte	W12
@ 035   ----------------------------------------
	.byte		N11   
	.byte	W12
	.byte		N11   
	.byte	W12
	.byte		N23   
	.byte	W24
	.byte		N32   
	.byte	W36
	.byte		N11   
	.byte	W12
@ 036   ----------------------------------------
	.byte		N11   
	.byte	W12
	.byte		N11   
	.byte	W12
	.byte		N11   
	.byte	W12
	.byte		N11   
	.byte	W12
	.byte		N23   
	.byte	W24
	.byte		N11   
	.byte	W12
	.byte		N11   
	.byte	W12
@ 037   ----------------------------------------
	.byte		N11   
	.byte	W12
	.byte		N11   
	.byte	W12
	.byte		N23   
	.byte	W24
	.byte		N23   
	.byte	W24
	.byte		N11   
	.byte	W12
	.byte		N11   
	.byte	W12
@ 038   ----------------------------------------
Red_Like_Roses_Part_II_5_038:
	.byte		N11   , Gn3 , v096
	.byte	W12
	.byte		        Fs3 
	.byte	W12
	.byte		        Fn3 
	.byte	W12
	.byte		        En3 
	.byte	W12
	.byte		        Dn3 
	.byte	W12
	.byte		        Cs3 
	.byte	W12
	.byte		        Cn3 
	.byte	W12
	.byte		        Bn2 
	.byte	W12
	.byte	PEND
@ 039   ----------------------------------------
	.byte		        Cn3 
	.byte	W12
	.byte		        Cs3 
	.byte	W12
	.byte		        Dn3 
	.byte	W12
	.byte		        Cs3 
	.byte	W12
	.byte		        Cn3 
	.byte	W12
	.byte		        Bn2 
	.byte	W12
	.byte		        Fn2 
	.byte	W12
	.byte		N56   , En2 
	.byte	W12
@ 040   ----------------------------------------
	.byte	W72
	.byte		N11   , Bn3 
	.byte	W12
	.byte		        Cs4 
	.byte	W12
@ 041   ----------------------------------------
	.byte		N23   , Dn4 
	.byte	W24
	.byte		        Cs4 
	.byte	W24
	.byte		N11   , Bn3 
	.byte	W12
	.byte		N23   , Cs4 
	.byte	W24
	.byte		N44   , Bn3 
	.byte	W12
@ 042   ----------------------------------------
	.byte	W36
	.byte		TIE   , Fs3 
	.byte	W60
@ 043   ----------------------------------------
	.byte	W68
	.byte	W03
	.byte		EOT   
	.byte	W24
	.byte	W01
@ 044   ----------------------------------------
	.byte	W72
	.byte		N11   , Cs4 
	.byte	W24
@ 045   ----------------------------------------
	.byte		N23   , Dn4 
	.byte	W36
	.byte		        Bn3 
	.byte	W24
	.byte		        Cs4 
	.byte	W24
	.byte		TIE   , Bn3 
	.byte	W12
@ 046   ----------------------------------------
	.byte	W92
	.byte	W03
	.byte		EOT   
	.byte	W01
@ 047   ----------------------------------------
	.byte	W96
@ 048   ----------------------------------------
	.byte	W24
	.byte		N23   
	.byte	W24
	.byte		N11   
	.byte	W12
	.byte		N23   , Cs4 
	.byte	W24
	.byte		        Dn4 
	.byte	W12
@ 049   ----------------------------------------
	.byte	W12
	.byte		        Cs4 
	.byte	W24
	.byte		        Bn3 
	.byte	W24
	.byte		        Cs4 
	.byte	W24
	.byte		N56   , Bn3 
	.byte	W12
@ 050   ----------------------------------------
	.byte	W48
	.byte		N80   , Fs3 
	.byte	W48
@ 051   ----------------------------------------
	.byte	W36
	.byte		N11   
	.byte	W12
	.byte		N23   
	.byte	W24
	.byte		N11   
	.byte	W12
	.byte		TIE   , Gn3 
	.byte	W12
@ 052   ----------------------------------------
	.byte	W96
@ 053   ----------------------------------------
	.byte	W44
	.byte	W03
	.byte		EOT   
	.byte	W48
	.byte	W01
@ 054   ----------------------------------------
	.byte	W96
@ 055   ----------------------------------------
	.byte	W84
	.byte		N44   , En4 
	.byte	W12
@ 056   ----------------------------------------
	.byte	W36
	.byte		        Ds4 
	.byte	W48
	.byte		        Bn3 
	.byte	W12
@ 057   ----------------------------------------
	.byte	W36
	.byte		        Gn3 
	.byte	W60
@ 058   ----------------------------------------
Red_Like_Roses_Part_II_5_058:
	.byte		N11   , Fs3 , v096
	.byte	W12
	.byte		        Gn3 
	.byte	W12
	.byte		        Fs3 
	.byte	W12
	.byte		        Gn3 
	.byte	W12
	.byte		        Fs3 
	.byte	W12
	.byte		        Gn3 
	.byte	W12
	.byte		        Fs3 
	.byte	W12
	.byte		        Gn3 
	.byte	W12
	.byte	PEND
@ 059   ----------------------------------------
	.byte	PATT
	 .word	Red_Like_Roses_Part_II_5_058
@ 060   ----------------------------------------
	.byte	PATT
	 .word	Red_Like_Roses_Part_II_5_058
@ 061   ----------------------------------------
	.byte		N11   , Fs3 , v096
	.byte	W12
	.byte		        Gn3 
	.byte	W12
	.byte		        Fs3 
	.byte	W12
	.byte		N11   
	.byte		N11   , Gn3 
	.byte	W12
	.byte		N44   , Fs3 
	.byte	W48
@ 062   ----------------------------------------
	.byte	W96
@ 063   ----------------------------------------
	.byte	W84
	.byte		N92   
	.byte	W12
@ 064   ----------------------------------------
	.byte	W84
	.byte		        En3 
	.byte	W12
@ 065   ----------------------------------------
	.byte	W84
	.byte		        Bn3 
	.byte	W12
@ 066   ----------------------------------------
	.byte	W84
	.byte		N56   , Fs3 
	.byte	W12
@ 067   ----------------------------------------
	.byte	W48
	.byte		N11   , Bn3 
	.byte	W12
	.byte		N23   , Cs4 
	.byte	W24
	.byte		N68   , Dn4 
	.byte	W12
@ 068   ----------------------------------------
	.byte	W60
	.byte		N11   , Cs4 
	.byte	W24
	.byte		N44   , Bn3 
	.byte	W12
@ 069   ----------------------------------------
	.byte	W48
	.byte		N11   , Cs4 
	.byte	W12
	.byte		N23   , Dn4 
	.byte	W21
	.byte		N02   , Bn3 
	.byte	W03
	.byte		N92   , Cs4 
	.byte	W12
@ 070   ----------------------------------------
	.byte	W84
	.byte		        An3 
	.byte	W12
@ 071   ----------------------------------------
	.byte	W84
	.byte		        Fs3 
	.byte	W12
@ 072   ----------------------------------------
	.byte	W84
	.byte		        An3 
	.byte	W12
@ 073   ----------------------------------------
	.byte	W84
	.byte		        Bn3 
	.byte	W12
@ 074   ----------------------------------------
	.byte	W84
	.byte		N56   , Cs4 
	.byte	W12
@ 075   ----------------------------------------
	.byte	W48
	.byte		N11   , Bn3 
	.byte	W12
	.byte		N23   , Cs4 
	.byte	W24
	.byte		        Dn4 
	.byte	W12
@ 076   ----------------------------------------
	.byte	W12
	.byte		        Cs4 
	.byte	W24
	.byte		N23   
	.byte	W24
	.byte		        Bn3 
	.byte	W24
	.byte		N23   
	.byte	W12
@ 077   ----------------------------------------
	.byte	W12
	.byte		        Fs3 
	.byte	W24
	.byte		        Bn3 
	.byte	W24
	.byte		        Cs4 
	.byte	W24
	.byte		        Dn4 
	.byte	W12
@ 078   ----------------------------------------
	.byte	W12
	.byte		        Cs4 
	.byte	W24
	.byte		        Bn3 
	.byte	W24
	.byte		        An3 
	.byte	W24
	.byte		N44   , Cs4 
	.byte	W12
@ 079   ----------------------------------------
	.byte	W36
	.byte		N32   
	.byte	W36
	.byte		N11   , Bn3 
	.byte	W12
	.byte		N32   , Bn2 
	.byte		N32   , Fs3 
	.byte	W12
@ 080   ----------------------------------------
	.byte	W96
@ 081   ----------------------------------------
Red_Like_Roses_Part_II_5_081:
	.byte	W84
	.byte		N32   , Bn2 , v096
	.byte		N32   , Fs3 
	.byte		N32   , Bn3 
	.byte	W12
	.byte	PEND
@ 082   ----------------------------------------
	.byte	W96
@ 083   ----------------------------------------
	.byte	PATT
	 .word	Red_Like_Roses_Part_II_5_081
@ 084   ----------------------------------------
	.byte	W96
@ 085   ----------------------------------------
Red_Like_Roses_Part_II_5_085:
	.byte	W84
	.byte		N32   , Bn2 , v096
	.byte		N32   , En3 
	.byte		N32   , Gn3 
	.byte	W12
	.byte	PEND
@ 086   ----------------------------------------
Red_Like_Roses_Part_II_5_086:
	.byte	W84
	.byte		N11   , Bn2 , v096
	.byte		N32   , Fs3 
	.byte	W12
	.byte	PEND
@ 087   ----------------------------------------
	.byte	W36
	.byte		N23   , Cn3 
	.byte		N23   , Gn3 
	.byte	W48
	.byte		N32   , Fs3 
	.byte		N32   , Bn3 
	.byte	W12
@ 088   ----------------------------------------
	.byte	W96
@ 089   ----------------------------------------
	.byte	PATT
	 .word	Red_Like_Roses_Part_II_5_081
@ 090   ----------------------------------------
	.byte	W96
@ 091   ----------------------------------------
	.byte	W84
	.byte		N32   , Fs3 , v096
	.byte		N32   , Bn3 
	.byte	W12
@ 092   ----------------------------------------
	.byte	W96
@ 093   ----------------------------------------
	.byte	PATT
	 .word	Red_Like_Roses_Part_II_5_085
@ 094   ----------------------------------------
	.byte	PATT
	 .word	Red_Like_Roses_Part_II_5_086
@ 095   ----------------------------------------
	.byte	W36
	.byte		N23   , Gn2 , v096
	.byte		N23   , Cn3 
	.byte		N23   , Gn3 
	.byte	W48
	.byte		        Bn2 
	.byte		N23   , Fs3 
	.byte	W12
@ 096   ----------------------------------------
Red_Like_Roses_Part_II_5_096:
	.byte	W12
	.byte		N11   , Bn2 , v096
	.byte		N11   , Fs3 
	.byte	W12
	.byte		        Bn2 
	.byte		N11   , Fs3 
	.byte	W12
	.byte		        Bn2 
	.byte		N11   , Fs3 
	.byte	W12
	.byte		        Bn2 
	.byte		N11   , Fs3 
	.byte	W12
	.byte		        Bn2 
	.byte		N11   , Fs3 
	.byte	W12
	.byte		        Bn2 
	.byte		N11   , Fs3 
	.byte	W12
	.byte		        Bn2 
	.byte		N11   , Fs3 
	.byte	W12
	.byte	PEND
@ 097   ----------------------------------------
Red_Like_Roses_Part_II_5_097:
	.byte		N11   , Bn2 , v096
	.byte		N11   , Fs3 
	.byte	W12
	.byte		        Bn2 
	.byte		N11   , Fs3 
	.byte	W12
	.byte		        Bn2 
	.byte		N11   , Fs3 
	.byte	W12
	.byte		        Bn2 
	.byte		N11   , Fs3 
	.byte	W12
	.byte		        Bn2 
	.byte		N11   , Fs3 
	.byte	W12
	.byte		        Bn2 
	.byte		N11   , Fs3 
	.byte	W12
	.byte		        Bn2 
	.byte		N11   , Fs3 
	.byte	W12
	.byte		N23   , Bn2 
	.byte		N23   , Fs3 
	.byte	W12
	.byte	PEND
@ 098   ----------------------------------------
	.byte	PATT
	 .word	Red_Like_Roses_Part_II_5_096
@ 099   ----------------------------------------
	.byte	PATT
	 .word	Red_Like_Roses_Part_II_5_097
@ 100   ----------------------------------------
	.byte	PATT
	 .word	Red_Like_Roses_Part_II_5_096
@ 101   ----------------------------------------
	.byte		N11   , Bn2 , v096
	.byte		N11   , Fs3 
	.byte	W12
	.byte		        Bn2 
	.byte		N11   , Fs3 
	.byte	W12
	.byte		        Bn2 
	.byte		N11   , Fs3 
	.byte	W12
	.byte		        Bn2 
	.byte		N11   , Fs3 
	.byte	W12
	.byte		        Bn2 
	.byte		N11   , Fs3 
	.byte	W12
	.byte		        Bn2 
	.byte		N11   , Fs3 
	.byte	W12
	.byte		        An2 
	.byte		N11   , En3 
	.byte	W12
	.byte		N23   , Gn2 
	.byte		N23   , Bn2 
	.byte	W12
@ 102   ----------------------------------------
	.byte	W36
	.byte		        An2 
	.byte		N23   , Cs3 
	.byte	W36
	.byte		N11   , Bn3 
	.byte	W12
	.byte		        Dn3 
	.byte		N23   , Bn3 
	.byte	W12
@ 103   ----------------------------------------
	.byte	W12
	.byte		N11   , Dn4 
	.byte	W12
	.byte		        Cn4 
	.byte	W12
	.byte		N23   , En3 
	.byte		N23   , Cn4 
	.byte	W48
	.byte		N11   , Bn2 
	.byte		N23   , Bn3 
	.byte	W12
@ 104   ----------------------------------------
	.byte	PATT
	 .word	Red_Like_Roses_Part_II_5_096
@ 105   ----------------------------------------
	.byte	PATT
	 .word	Red_Like_Roses_Part_II_5_097
@ 106   ----------------------------------------
	.byte	PATT
	 .word	Red_Like_Roses_Part_II_5_096
@ 107   ----------------------------------------
	.byte	PATT
	 .word	Red_Like_Roses_Part_II_5_097
@ 108   ----------------------------------------
	.byte	PATT
	 .word	Red_Like_Roses_Part_II_5_096
@ 109   ----------------------------------------
	.byte		N11   , Bn2 , v096
	.byte		N11   , Fs3 
	.byte	W12
	.byte		        Bn2 
	.byte		N11   , Fs3 
	.byte	W12
	.byte		        Bn2 
	.byte		N11   , Fs3 
	.byte	W12
	.byte		        Bn2 
	.byte		N11   , Fs3 
	.byte	W12
	.byte		        Bn2 
	.byte		N11   , Fs3 
	.byte	W12
	.byte		        Bn2 
	.byte		N11   , Fs3 
	.byte	W12
	.byte		        Bn2 
	.byte		N11   , Fs3 
	.byte	W12
	.byte		        Bn2 
	.byte		N11   , Fs3 
	.byte	W12
@ 110   ----------------------------------------
	.byte	PATT
	 .word	Red_Like_Roses_Part_II_5_038
@ 111   ----------------------------------------
	.byte		N11   , Cn3 , v096
	.byte	W12
	.byte		        Cs3 
	.byte	W12
	.byte		        Dn3 
	.byte	W12
	.byte		        Cs3 
	.byte	W12
	.byte		        Cn3 
	.byte	W12
	.byte		        Bn2 
	.byte	W12
	.byte		        Fn2 
	.byte	W12
	.byte		N80   , En2 
	.byte	W12
@ 112   ----------------------------------------
	.byte	W72
	.byte		N11   , An2 
	.byte		N11   , An3 
	.byte	W12
	.byte		        An2 
	.byte		N11   , An3 
	.byte	W12
@ 113   ----------------------------------------
	.byte		        Bn2 
	.byte		N11   , Bn3 
	.byte	W12
	.byte		        Bn2 
	.byte		N11   , Bn3 
	.byte	W12
	.byte		        Bn2 
	.byte		N11   , Bn3 
	.byte	W24
	.byte		        Bn2 
	.byte		N11   , Bn3 
	.byte	W12
	.byte		        Bn2 
	.byte		N11   , Bn3 
	.byte	W24
	.byte		N23   , Dn3 
	.byte		N23   , Fs3 
	.byte	W12
@ 114   ----------------------------------------
	.byte	W12
	.byte		N11   , Dn3 
	.byte		N11   , Fs3 
	.byte	W12
	.byte		        Dn3 
	.byte		N11   , Fs3 
	.byte	W12
	.byte		        Dn3 
	.byte		N11   , Fs3 
	.byte		N11   , Dn4 
	.byte	W12
	.byte		        Dn3 
	.byte		N11   , Fs3 
	.byte	W12
	.byte		        Dn3 
	.byte		N11   , Fs3 
	.byte		N11   , Dn4 
	.byte	W12
	.byte		        Dn3 
	.byte		N11   , Fs3 
	.byte	W12
	.byte		        Dn3 
	.byte		N11   , Fs3 
	.byte		N11   , Dn4 
	.byte	W12
@ 115   ----------------------------------------
	.byte		        Dn3 
	.byte		N11   , Fs3 
	.byte	W12
	.byte		        Dn3 
	.byte		N11   , Fs3 
	.byte		N11   , Dn4 
	.byte	W12
	.byte		        Dn3 
	.byte		N11   , Fs3 
	.byte	W12
	.byte		        Dn3 
	.byte		N11   , Fs3 
	.byte		N11   , Dn4 
	.byte	W12
	.byte		        Bn2 
	.byte		N11   , Dn3 
	.byte	W12
	.byte		        Bn2 
	.byte		N11   , Dn3 
	.byte	W12
	.byte		        Bn2 
	.byte		N11   , Dn3 
	.byte	W12
	.byte		N23   , Bn2 
	.byte		N23   , Dn3 
	.byte	W12
@ 116   ----------------------------------------
	.byte	W12
	.byte		N11   , Bn2 
	.byte		N11   , En3 
	.byte		N11   , Gn3 
	.byte	W12
	.byte		        Bn2 
	.byte		N11   , En3 
	.byte		N11   , Gn3 
	.byte	W12
	.byte		        Bn3 
	.byte	W12
	.byte		N23   , Bn2 
	.byte		N23   , En3 
	.byte		N23   , Gn3 
	.byte	W24
	.byte		        Bn2 
	.byte		N23   , En3 
	.byte		N23   , Gn3 
	.byte	W24
@ 117   ----------------------------------------
	.byte		N11   , Dn3 
	.byte	W12
	.byte		N11   
	.byte	W12
	.byte		N11   
	.byte	W12
	.byte		        Cs3 
	.byte	W12
	.byte		N11   
	.byte	W36
	.byte		N23   , Dn3 
	.byte		N23   , Fs3 
	.byte	W12
@ 118   ----------------------------------------
	.byte	W36
	.byte		        Dn3 
	.byte		N23   , Fs3 
	.byte	W48
	.byte		N11   , Dn3 
	.byte		N23   , Fs3 
	.byte	W12
@ 119   ----------------------------------------
	.byte	W36
	.byte		        Dn3 
	.byte		N23   , Fs3 
	.byte	W44
	.byte	W01
	.byte		N02   , An2 
	.byte	W03
	.byte		N32   , Bn2 
	.byte	W12
@ 120   ----------------------------------------
	.byte	W12
	.byte		N11   , Gn3 
	.byte	W12
	.byte		        En3 
	.byte		N11   , Gn3 
	.byte	W12
	.byte		        En3 
	.byte		N11   , Gn3 
	.byte	W12
	.byte		        En3 
	.byte		N11   , Gn3 
	.byte	W36
	.byte		N23   , En3 
	.byte		N23   , Gn3 
	.byte	W12
@ 121   ----------------------------------------
	.byte	W12
	.byte		N11   , En3 
	.byte		N11   , Gn3 
	.byte	W12
	.byte		        Gn2 
	.byte		N11   , Gn3 
	.byte	W12
	.byte		        Gn2 
	.byte		N11   , Gn3 
	.byte	W12
	.byte		        Gn2 
	.byte		N11   , Gn3 
	.byte	W12
	.byte		        Fs2 
	.byte		N11   , Fs3 
	.byte	W24
	.byte		N23   , Dn3 
	.byte		N23   , Fs3 
	.byte		N23   , Bn3 
	.byte	W12
@ 122   ----------------------------------------
	.byte	W12
	.byte		N11   , Dn3 
	.byte		N11   , Fs3 
	.byte		N11   , Bn3 
	.byte	W12
	.byte		        Dn3 
	.byte		N11   , Fs3 
	.byte		N11   , Bn3 
	.byte	W24
	.byte		        Dn3 
	.byte		N11   , Fs3 
	.byte		N11   , Bn3 
	.byte	W12
	.byte		        Dn3 
	.byte		N11   , Fs3 
	.byte		N11   , Bn3 
	.byte	W24
	.byte		        Dn3 
	.byte		N11   , Fs3 
	.byte		N11   , Bn3 
	.byte	W12
@ 123   ----------------------------------------
	.byte		        Dn3 
	.byte		N11   , Fs3 
	.byte		N11   , Bn3 
	.byte	W24
	.byte		        Bn2 
	.byte		N11   , Fs3 
	.byte		N11   , Bn3 
	.byte	W12
	.byte		        Bn2 
	.byte		N11   , Fs3 
	.byte		N11   , Bn3 
	.byte	W48
	.byte		        En3 
	.byte		N23   , Bn3 
	.byte	W12
@ 124   ----------------------------------------
	.byte	W12
	.byte		N11   , En3 
	.byte		N11   , Bn3 
	.byte	W12
	.byte		        En3 
	.byte		N11   , Bn3 
	.byte	W12
	.byte		        En3 
	.byte		N11   , Bn3 
	.byte	W12
	.byte		        En3 
	.byte		N11   , Bn3 
	.byte	W12
	.byte		        En3 
	.byte		N11   , Bn3 
	.byte	W12
	.byte		        En3 
	.byte		N11   , Bn3 
	.byte	W12
	.byte		        En3 
	.byte		N11   , Bn3 
	.byte	W12
@ 125   ----------------------------------------
	.byte		        En3 
	.byte		N11   , Bn3 
	.byte	W12
	.byte		        En3 
	.byte		N11   , Bn3 
	.byte	W12
	.byte		        En3 
	.byte		N11   , Bn3 
	.byte	W12
	.byte		        En3 
	.byte		N11   , Bn3 
	.byte	W12
	.byte		        En3 
	.byte		N11   , Bn3 
	.byte	W12
	.byte		        En3 
	.byte		N11   , Bn3 
	.byte	W12
	.byte		        En3 
	.byte		N11   , Bn3 
	.byte	W12
	.byte		N23   , Cn2 
	.byte		N23   , Cn3 
	.byte	W12
@ 126   ----------------------------------------
	.byte	W12
	.byte		N11   , Cn2 
	.byte		N11   , Cn3 
	.byte	W12
	.byte		        Ds2 
	.byte		N11   , Ds3 
	.byte	W12
	.byte		        Ds2 
	.byte		N11   , Ds3 
	.byte	W12
	.byte		        Ds2 
	.byte		N11   , Ds3 
	.byte	W36
	.byte		        Gn2 
	.byte		N11   , Gn3 
	.byte	W12
@ 127   ----------------------------------------
	.byte		        Gn2 
	.byte		N11   , Gn3 
	.byte	W12
	.byte		        Gn2 
	.byte		N11   , Gn3 
	.byte	W12
	.byte		        Gn2 
	.byte		N11   , Gn3 
	.byte	W12
	.byte		        Fs2 
	.byte		N11   , Fs3 
	.byte	W12
	.byte		        Fs2 
	.byte		N11   , Fs3 
	.byte	W12
	.byte		        Fs2 
	.byte		N11   , Fs3 
	.byte	W12
	.byte		        Fs2 
	.byte		N11   , Fs3 
	.byte	W12
	.byte		N23   , Cn2 
	.byte		N23   , Cn3 
	.byte	W12
@ 128   ----------------------------------------
	.byte	W12
	.byte		N11   , Cn2 
	.byte		N11   , Cn3 
	.byte	W12
	.byte		        Cn2 
	.byte		N11   , Cn3 
	.byte	W12
	.byte		        Ds2 
	.byte		N11   , Ds3 
	.byte	W12
	.byte		        Ds2 
	.byte		N11   , Ds3 
	.byte	W12
	.byte		        Ds2 
	.byte		N11   , Ds3 
	.byte	W12
	.byte		        Ds2 
	.byte		N11   , Ds3 
	.byte	W12
	.byte		        Gn2 
	.byte		N11   , Gn3 
	.byte	W12
@ 129   ----------------------------------------
	.byte		        Gn2 
	.byte		N11   , Gn3 
	.byte	W12
	.byte		        Gn2 
	.byte		N11   , Gn3 
	.byte	W12
	.byte		        Fs2 
	.byte		N11   , Fs3 
	.byte	W12
	.byte		        Fs2 
	.byte		N11   , Fs3 
	.byte	W12
	.byte		        Fs2 
	.byte		N11   , Fs3 
	.byte	W12
	.byte		        Fs2 
	.byte		N11   , Fs3 
	.byte	W12
	.byte		        Fs2 
	.byte		N11   , Fs3 
	.byte	W24
@ 130   ----------------------------------------
Red_Like_Roses_Part_II_5_130:
	.byte		N11   , Fs2 , v096
	.byte		N11   , Fs3 
	.byte	W12
	.byte		        Gn2 
	.byte		N11   , Gn3 
	.byte	W12
	.byte		        Fs2 
	.byte		N11   , Fs3 
	.byte	W12
	.byte		        Gn2 
	.byte		N11   , Gn3 
	.byte	W12
	.byte		        Fs2 
	.byte		N11   , Fs3 
	.byte	W12
	.byte		        Gn2 
	.byte		N11   , Gn3 
	.byte	W12
	.byte		        Fs2 
	.byte		N11   , Fs3 
	.byte	W12
	.byte		        Gn2 
	.byte		N11   , Gn3 
	.byte	W12
	.byte	PEND
@ 131   ----------------------------------------
	.byte	PATT
	 .word	Red_Like_Roses_Part_II_5_130
@ 132   ----------------------------------------
	.byte	PATT
	 .word	Red_Like_Roses_Part_II_5_130
@ 133   ----------------------------------------
	.byte		N11   , Fs2 , v096
	.byte		N11   , Fs3 
	.byte	W12
	.byte		        Gn2 
	.byte		N11   , Gn3 
	.byte	W12
	.byte		        Fs2 
	.byte		N11   , Fs3 
	.byte	W12
	.byte		        Gn2 
	.byte		N11   , Gn3 
	.byte	W12
	.byte		N23   , Fs2 
	.byte		N23   , Fs3 
	.byte	W48
@ 134   ----------------------------------------
	.byte	W96
@ 135   ----------------------------------------
	.byte	W84
	.byte		        Bn1 
	.byte		N23   , Fs2 
	.byte	W12
@ 136   ----------------------------------------
	.byte	W12
	.byte		N11   , Bn1 
	.byte		N11   , Fs2 
	.byte	W12
	.byte		        Bn1 
	.byte		N11   , Fs2 
	.byte	W12
	.byte		        Bn1 
	.byte		N11   , Fs2 
	.byte	W12
	.byte		        Bn1 
	.byte		N11   , Fs2 
	.byte	W12
	.byte		        Bn1 
	.byte		N11   , Fs2 
	.byte	W12
	.byte		        Bn1 
	.byte		N11   , Fs2 
	.byte	W12
	.byte		        Bn1 
	.byte		N11   , Fs2 
	.byte	W12
@ 137   ----------------------------------------
	.byte		        Bn1 
	.byte		N11   , Fs2 
	.byte	W12
	.byte		        Bn1 
	.byte		N11   , Fs2 
	.byte	W12
	.byte		        Bn1 
	.byte		N11   , Fs2 
	.byte	W12
	.byte		        Bn1 
	.byte		N11   , Fs2 
	.byte	W12
	.byte		        Bn1 
	.byte		N11   , Fs2 
	.byte	W12
	.byte		        Bn1 
	.byte		N11   , Fs2 
	.byte	W12
	.byte		        Bn1 
	.byte		N11   , Fs2 
	.byte	W12
	.byte		N23   
	.byte		N23   , Bn2 
	.byte	W12
@ 138   ----------------------------------------
	.byte	W12
	.byte		N11   , Fs2 
	.byte		N11   , Bn2 
	.byte	W12
	.byte		        Fs2 
	.byte		N11   , Bn2 
	.byte	W12
	.byte		        Fs2 
	.byte		N11   , Bn2 
	.byte	W12
	.byte		        Fs2 
	.byte		N11   , Bn2 
	.byte	W12
	.byte		        Fs2 
	.byte		N11   , Bn2 
	.byte	W12
	.byte		        Fs2 
	.byte		N11   , Bn2 
	.byte	W12
	.byte		        Fs2 
	.byte		N11   , Bn2 
	.byte	W12
@ 139   ----------------------------------------
	.byte		        Fs2 
	.byte		N11   , Bn2 
	.byte	W12
	.byte		        Fs2 
	.byte		N11   , Bn2 
	.byte	W12
	.byte		        Fs2 
	.byte		N11   , Bn2 
	.byte	W12
	.byte		        Fs2 
	.byte		N11   , Bn2 
	.byte	W12
	.byte		        Fs2 
	.byte		N11   , Bn2 
	.byte	W12
	.byte		        Fs2 
	.byte		N11   , Bn2 
	.byte	W12
	.byte		        Dn2 
	.byte		N11   , Dn3 
	.byte	W12
	.byte		N23   , Dn2 
	.byte		N23   , Dn3 
	.byte	W12
@ 140   ----------------------------------------
	.byte	W12
	.byte		N11   , Dn2 
	.byte		N11   , Dn3 
	.byte	W12
	.byte		        Dn2 
	.byte		N11   , Dn3 
	.byte	W36
	.byte		        Dn2 
	.byte		N11   , Dn3 
	.byte	W36
@ 141   ----------------------------------------
	.byte		        Dn2 
	.byte		N11   , Dn3 
	.byte	W24
	.byte		        Dn2 
	.byte		N11   , Dn3 
	.byte	W12
	.byte		        Dn2 
	.byte		N11   , Dn3 
	.byte	W12
	.byte		        Dn2 
	.byte		N11   , Dn3 
	.byte	W12
	.byte		        Dn2 
	.byte		N11   , Dn3 
	.byte	W12
	.byte		        Dn2 
	.byte		N11   , Dn3 
	.byte	W12
	.byte		        Dn2 
	.byte		N11   , Dn3 
	.byte	W12
@ 142   ----------------------------------------
	.byte		        En2 
	.byte		N11   , En3 
	.byte	W12
	.byte		        En2 
	.byte		N11   , En3 
	.byte	W12
	.byte		        En2 
	.byte		N11   , En3 
	.byte	W12
	.byte		        En2 
	.byte		N11   , En3 
	.byte	W12
	.byte		        En2 
	.byte		N11   , En3 
	.byte	W12
	.byte		        En2 
	.byte		N11   , En3 
	.byte	W12
	.byte		        En2 
	.byte		N11   , En3 
	.byte	W12
	.byte		N23   , Dn2 
	.byte		N23   , Dn3 
	.byte	W12
@ 143   ----------------------------------------
	.byte	W12
	.byte		N11   , Dn2 
	.byte		N11   , Dn3 
	.byte	W12
	.byte		        Dn2 
	.byte		N11   , Dn3 
	.byte	W12
	.byte		N23   , En2 
	.byte		N23   , En3 
	.byte	W24
	.byte		N11   , En2 
	.byte		N11   , En3 
	.byte	W12
	.byte		        En2 
	.byte		N11   , En3 
	.byte	W12
	.byte		N23   , Fs2 
	.byte		N23   , Fs3 
	.byte	W12
@ 144   ----------------------------------------
	.byte	W12
	.byte		N11   , Fs2 
	.byte		N11   , Fs3 
	.byte	W12
	.byte		        Fs2 
	.byte		N11   , Fs3 
	.byte	W12
	.byte		        Fs2 
	.byte		N11   , Fs3 
	.byte	W12
	.byte		        Fs2 
	.byte		N11   , Fs3 
	.byte	W12
	.byte		        Fs2 
	.byte		N11   , Fs3 
	.byte	W12
	.byte		        Fs2 
	.byte		N11   , Fs3 
	.byte	W24
@ 145   ----------------------------------------
	.byte		        Fs2 
	.byte		N11   , Fs3 
	.byte	W12
	.byte		        En3 
	.byte	W12
	.byte		        Fs2 
	.byte		N11   , Fs3 
	.byte	W12
	.byte		        En3 
	.byte	W12
	.byte		        Fs2 
	.byte		N11   , Fs3 
	.byte	W12
	.byte		        Fs2 
	.byte		N11   , Fs3 
	.byte	W12
	.byte		        En3 
	.byte	W12
	.byte		N23   , Fs2 
	.byte		N23   , Fs3 
	.byte	W12
@ 146   ----------------------------------------
	.byte	W12
	.byte		N11   , Fs2 
	.byte		N11   , Fs3 
	.byte	W12
	.byte		        Fs2 
	.byte		N11   , Fs3 
	.byte	W12
	.byte		        Fs2 
	.byte		N11   , Fs3 
	.byte	W12
	.byte		        En3 
	.byte	W12
	.byte		        Fs2 
	.byte		N11   , Fs3 
	.byte	W12
	.byte		        Fs2 
	.byte		N11   , Fs3 
	.byte	W12
	.byte		        En3 
	.byte	W12
@ 147   ----------------------------------------
	.byte		        Fs2 
	.byte		N11   , Fs3 
	.byte	W12
	.byte		        Fs2 
	.byte		N11   , Fs3 
	.byte	W12
	.byte		        Fs2 
	.byte		N11   , Fs3 
	.byte	W12
	.byte		        Fs2 
	.byte		N11   , Fs3 
	.byte	W12
	.byte		        Fs2 
	.byte		N11   , Fs3 
	.byte	W12
	.byte		        Fs2 
	.byte		N11   , Fs3 
	.byte	W12
	.byte		        Fs2 
	.byte		N11   , Fs3 
	.byte	W12
	.byte		N23   , Dn3 
	.byte		N23   , Bn3 
	.byte	W12
@ 148   ----------------------------------------
	.byte	W12
	.byte		N11   , Dn3 
	.byte		N11   , Bn3 
	.byte	W12
	.byte		        Dn3 
	.byte		N11   , Bn3 
	.byte	W12
	.byte		        Dn3 
	.byte		N11   , Bn3 
	.byte	W12
	.byte		        Dn3 
	.byte		N11   , Bn3 
	.byte	W12
	.byte		        Dn3 
	.byte		N11   , Bn3 
	.byte	W12
	.byte		        Dn3 
	.byte		N11   , Bn3 
	.byte	W12
	.byte		N23   , Dn3 
	.byte		N23   , Bn3 
	.byte	W12
@ 149   ----------------------------------------
	.byte	W12
	.byte		N11   , Dn3 
	.byte		N11   , Bn3 
	.byte	W12
	.byte		        Dn3 
	.byte		N11   , Bn3 
	.byte	W12
	.byte		        Dn3 
	.byte		N11   , Bn3 
	.byte	W12
	.byte		        Dn3 
	.byte		N11   , Bn3 
	.byte	W12
	.byte		        Dn3 
	.byte		N11   , Bn3 
	.byte	W12
	.byte		        Dn3 
	.byte		N11   , Bn3 
	.byte	W12
	.byte		N23   , En3 
	.byte		N23   , Cs4 
	.byte	W12
@ 150   ----------------------------------------
	.byte	W12
	.byte		N11   , En3 
	.byte		N11   , Cs4 
	.byte	W12
	.byte		        En3 
	.byte		N11   , Cs4 
	.byte	W12
	.byte		        En3 
	.byte		N11   , Cs4 
	.byte	W12
	.byte		        En3 
	.byte		N11   , Cs4 
	.byte	W12
	.byte		        En3 
	.byte		N11   , Cs4 
	.byte	W12
	.byte		        Dn3 
	.byte		N11   , Bn3 
	.byte	W12
	.byte		        En3 
	.byte		N11   , Cs4 
	.byte	W12
@ 151   ----------------------------------------
	.byte		        En3 
	.byte		N11   , Cs4 
	.byte	W12
	.byte		        En3 
	.byte		N11   , Cs4 
	.byte	W12
	.byte		        En3 
	.byte		N11   , Cs4 
	.byte	W12
	.byte		        En3 
	.byte		N11   , Cs4 
	.byte	W12
	.byte		        En3 
	.byte		N11   , Cs4 
	.byte	W12
	.byte		        En3 
	.byte		N11   , Cs4 
	.byte	W12
	.byte		        En3 
	.byte		N11   , Cs4 
	.byte	W12
	.byte		N56   , Bn2 
	.byte		N56   , Dn3 
	.byte	W12
@ 152   ----------------------------------------
	.byte	W68
	.byte	W03
	.byte	GOTO
	 .word	Red_Like_Roses_Part_II_5_B1
Red_Like_Roses_Part_II_5_B2:
	.byte	FINE

@**************** Track 6 (Midi-Chn.6) ****************@

Red_Like_Roses_Part_II_6:
	.byte	KEYSH , Red_Like_Roses_Part_II_key+0
Red_Like_Roses_Part_II_6_B1:
@ 000   ----------------------------------------
	.byte		VOICE , 33
	.byte		VOL   , 115*Red_Like_Roses_Part_II_mvl/mxv
	.byte		PAN   , c_v+0
	.byte	W96
@ 001   ----------------------------------------
	.byte	W96
@ 002   ----------------------------------------
	.byte	W96
@ 003   ----------------------------------------
	.byte	W96
@ 004   ----------------------------------------
	.byte		TIE   , Fs4 , v080
	.byte	W96
@ 005   ----------------------------------------
	.byte	W96
@ 006   ----------------------------------------
	.byte	W96
@ 007   ----------------------------------------
	.byte	W44
	.byte	W03
	.byte		EOT   
	.byte	W36
	.byte	W01
	.byte		N32   , Bn1 , v096
	.byte	W12
@ 008   ----------------------------------------
	.byte	W96
@ 009   ----------------------------------------
	.byte	W84
	.byte		N32   
	.byte	W12
@ 010   ----------------------------------------
	.byte	W96
@ 011   ----------------------------------------
	.byte	W84
	.byte		        Gn1 
	.byte	W12
@ 012   ----------------------------------------
	.byte	W96
@ 013   ----------------------------------------
	.byte	W84
	.byte		        En1 
	.byte	W12
@ 014   ----------------------------------------
	.byte	W88
	.byte		N30   , Fs1 
	.byte	W08
@ 015   ----------------------------------------
Red_Like_Roses_Part_II_6_015:
	.byte	W36
	.byte		N23   , Gn1 , v096
	.byte	W48
	.byte		N32   , Bn1 
	.byte	W12
	.byte	PEND
@ 016   ----------------------------------------
	.byte		N11   , En4 , v052
	.byte	W12
	.byte		        Cs4 
	.byte	W12
	.byte		        En3 
	.byte	W12
	.byte		        Dn4 
	.byte	W12
	.byte		        An3 
	.byte	W12
	.byte		        En3 
	.byte	W12
	.byte		        An3 
	.byte	W24
@ 017   ----------------------------------------
	.byte		        Cs4 
	.byte	W12
	.byte		        An3 
	.byte	W12
	.byte		        En3 
	.byte	W12
	.byte		        Fs3 
	.byte	W12
	.byte		        En3 
	.byte	W12
	.byte		        Bn3 
	.byte	W12
	.byte		        An3 
	.byte	W12
	.byte		N32   , Bn1 , v096
	.byte	W12
@ 018   ----------------------------------------
	.byte		N11   , En4 , v052
	.byte	W12
	.byte		        Cs4 
	.byte	W12
	.byte		        En3 
	.byte	W12
	.byte		        Dn4 
	.byte	W12
	.byte		        An3 
	.byte	W12
	.byte		        En3 
	.byte	W12
	.byte		        Fs3 
	.byte	W24
@ 019   ----------------------------------------
	.byte		        Gn3 
	.byte	W12
	.byte		        Bn3 
	.byte	W12
	.byte		        Dn4 
	.byte	W12
	.byte		        Cs4 
	.byte	W12
	.byte		        An3 
	.byte	W12
	.byte		        En3 
	.byte	W12
	.byte		        Fs3 
	.byte	W12
	.byte		N32   , Gn1 , v096
	.byte	W12
@ 020   ----------------------------------------
	.byte		N11   , En3 , v052
	.byte	W12
	.byte		        An3 
	.byte	W12
	.byte		        Cs4 
	.byte	W12
	.byte		        An3 
	.byte	W12
	.byte		        En3 
	.byte	W12
	.byte		        An3 
	.byte	W12
	.byte		        Fs4 
	.byte	W24
@ 021   ----------------------------------------
	.byte		        En4 
	.byte	W12
	.byte		        Dn4 
	.byte	W12
	.byte		        Bn3 
	.byte	W12
	.byte		        Fs3 
	.byte	W12
	.byte		        Cs4 
	.byte	W12
	.byte		        Dn4 
	.byte	W12
	.byte		        Dn3 
	.byte	W12
	.byte		N32   , En1 , v096
	.byte	W12
@ 022   ----------------------------------------
	.byte		N11   , Cs3 , v052
	.byte	W12
	.byte		        Dn3 
	.byte	W12
	.byte		        En3 
	.byte	W12
	.byte		        Gn3 
	.byte	W12
	.byte		        Dn3 
	.byte	W12
	.byte		        En3 
	.byte	W12
	.byte		        Fs3 
	.byte	W12
	.byte		        Gn3 
	.byte	W04
	.byte		N30   , Fs1 , v096
	.byte	W08
@ 023   ----------------------------------------
	.byte		N11   , An3 , v052
	.byte	W12
	.byte		        Bn3 
	.byte	W12
	.byte		        Gn3 
	.byte	W12
	.byte		N23   , Gn1 , v096
	.byte		N11   , Fs3 , v052
	.byte	W12
	.byte		        En3 
	.byte	W12
	.byte		        An3 
	.byte	W24
	.byte		N23   , Bn1 , v096
	.byte	W12
@ 024   ----------------------------------------
Red_Like_Roses_Part_II_6_024:
	.byte	W12
	.byte		N11   , Bn1 , v096
	.byte	W12
	.byte		N11   
	.byte	W12
	.byte		N11   
	.byte	W12
	.byte		N11   
	.byte	W12
	.byte		N11   
	.byte	W12
	.byte		N11   
	.byte	W12
	.byte		N11   
	.byte	W12
	.byte	PEND
@ 025   ----------------------------------------
Red_Like_Roses_Part_II_6_025:
	.byte		N11   , Bn1 , v096
	.byte	W12
	.byte		N11   
	.byte	W12
	.byte		N11   
	.byte	W12
	.byte		N11   
	.byte	W12
	.byte		N11   
	.byte	W12
	.byte		N11   
	.byte	W12
	.byte		N11   
	.byte	W12
	.byte		N23   
	.byte	W12
	.byte	PEND
@ 026   ----------------------------------------
	.byte	PATT
	 .word	Red_Like_Roses_Part_II_6_024
@ 027   ----------------------------------------
Red_Like_Roses_Part_II_6_027:
	.byte		N11   , Bn1 , v096
	.byte	W12
	.byte		N11   
	.byte	W12
	.byte		N11   
	.byte	W12
	.byte		N11   
	.byte	W12
	.byte		N11   
	.byte	W12
	.byte		N11   
	.byte	W12
	.byte		N11   
	.byte	W12
	.byte		N23   , Gn1 
	.byte	W12
	.byte	PEND
@ 028   ----------------------------------------
Red_Like_Roses_Part_II_6_028:
	.byte	W12
	.byte		N11   , Gn1 , v096
	.byte	W12
	.byte		N11   
	.byte	W12
	.byte		N11   
	.byte	W12
	.byte		N11   
	.byte	W12
	.byte		N11   
	.byte	W12
	.byte		N11   
	.byte	W12
	.byte		N11   
	.byte	W12
	.byte	PEND
@ 029   ----------------------------------------
Red_Like_Roses_Part_II_6_029:
	.byte		N11   , Gn1 , v096
	.byte	W12
	.byte		N11   
	.byte	W12
	.byte		N11   
	.byte	W12
	.byte		N11   
	.byte	W12
	.byte		N11   
	.byte	W12
	.byte		N11   
	.byte	W12
	.byte		N11   
	.byte	W12
	.byte		N23   , En1 
	.byte	W12
	.byte	PEND
@ 030   ----------------------------------------
Red_Like_Roses_Part_II_6_030:
	.byte	W12
	.byte		N11   , En1 , v096
	.byte	W12
	.byte		N11   
	.byte	W12
	.byte		N23   , Fs1 
	.byte	W24
	.byte		N11   
	.byte	W12
	.byte		N11   
	.byte	W12
	.byte		N23   , Gn1 
	.byte	W12
	.byte	PEND
@ 031   ----------------------------------------
Red_Like_Roses_Part_II_6_031:
	.byte	W12
	.byte		N11   , Gn1 , v096
	.byte	W12
	.byte		N11   
	.byte	W12
	.byte		N23   , Cn2 
	.byte	W24
	.byte		N11   , Bn1 
	.byte	W12
	.byte		        An1 
	.byte	W12
	.byte		N23   , Bn1 
	.byte	W12
	.byte	PEND
@ 032   ----------------------------------------
	.byte	PATT
	 .word	Red_Like_Roses_Part_II_6_024
@ 033   ----------------------------------------
Red_Like_Roses_Part_II_6_033:
	.byte		N11   , Bn1 , v096
	.byte	W12
	.byte		N11   
	.byte	W12
	.byte		N11   
	.byte	W12
	.byte		N11   
	.byte	W12
	.byte		N11   
	.byte	W12
	.byte		N11   
	.byte	W24
	.byte		N23   
	.byte	W12
	.byte	PEND
@ 034   ----------------------------------------
	.byte	PATT
	 .word	Red_Like_Roses_Part_II_6_024
@ 035   ----------------------------------------
Red_Like_Roses_Part_II_6_035:
	.byte		N11   , Bn1 , v096
	.byte	W12
	.byte		N11   
	.byte	W12
	.byte		N11   
	.byte	W12
	.byte		N11   
	.byte	W12
	.byte		N11   
	.byte	W12
	.byte		N11   
	.byte	W24
	.byte		N23   , Gn1 
	.byte	W12
	.byte	PEND
@ 036   ----------------------------------------
	.byte	PATT
	 .word	Red_Like_Roses_Part_II_6_028
@ 037   ----------------------------------------
Red_Like_Roses_Part_II_6_037:
	.byte		N11   , Gn1 , v096
	.byte	W12
	.byte		N11   
	.byte	W12
	.byte		N11   
	.byte	W12
	.byte		N11   
	.byte	W12
	.byte		N11   
	.byte	W12
	.byte		N11   
	.byte	W12
	.byte		N11   
	.byte	W12
	.byte		N11   
	.byte	W12
	.byte	PEND
@ 038   ----------------------------------------
Red_Like_Roses_Part_II_6_038:
	.byte		N11   , Gn2 , v096
	.byte	W12
	.byte		        Fs2 
	.byte	W12
	.byte		        Fn2 
	.byte	W12
	.byte		        En2 
	.byte	W12
	.byte		        Dn2 
	.byte	W12
	.byte		        Cs2 
	.byte	W12
	.byte		        Cn2 
	.byte	W12
	.byte		        Bn1 
	.byte	W12
	.byte	PEND
@ 039   ----------------------------------------
Red_Like_Roses_Part_II_6_039:
	.byte	W24
	.byte		N11   , Dn2 , v096
	.byte	W12
	.byte		        Cs2 
	.byte	W12
	.byte		        Cn2 
	.byte	W12
	.byte		        Bn1 
	.byte	W12
	.byte		        Fn1 
	.byte	W12
	.byte		N32   , En1 
	.byte	W12
	.byte	PEND
@ 040   ----------------------------------------
Red_Like_Roses_Part_II_6_040:
	.byte	W24
	.byte		N11   , En1 , v096
	.byte	W12
	.byte		N11   
	.byte	W12
	.byte		N11   
	.byte	W12
	.byte		N11   
	.byte	W12
	.byte		N11   
	.byte	W12
	.byte		N11   
	.byte	W12
	.byte	PEND
@ 041   ----------------------------------------
Red_Like_Roses_Part_II_6_041:
	.byte	W12
	.byte		N11   , En1 , v096
	.byte	W12
	.byte		N11   
	.byte	W12
	.byte		N11   
	.byte	W12
	.byte		N11   
	.byte	W12
	.byte		N11   
	.byte	W12
	.byte		N11   
	.byte	W12
	.byte		N23   , Bn1 
	.byte	W12
	.byte	PEND
@ 042   ----------------------------------------
	.byte	PATT
	 .word	Red_Like_Roses_Part_II_6_024
@ 043   ----------------------------------------
Red_Like_Roses_Part_II_6_043:
	.byte		N11   , Bn1 , v096
	.byte	W12
	.byte		N11   
	.byte	W12
	.byte		N11   
	.byte	W12
	.byte		N11   
	.byte	W12
	.byte		N11   
	.byte	W12
	.byte		N11   
	.byte	W12
	.byte		N11   
	.byte	W12
	.byte		N23   , En1 
	.byte	W12
	.byte	PEND
@ 044   ----------------------------------------
Red_Like_Roses_Part_II_6_044:
	.byte	W12
	.byte		N11   , En1 , v096
	.byte	W12
	.byte		N11   
	.byte	W12
	.byte		N11   
	.byte	W12
	.byte		N11   
	.byte	W12
	.byte		N11   
	.byte	W12
	.byte		N11   
	.byte	W12
	.byte		N11   
	.byte	W12
	.byte	PEND
@ 045   ----------------------------------------
Red_Like_Roses_Part_II_6_045:
	.byte		N11   , En1 , v096
	.byte	W12
	.byte		N11   
	.byte	W12
	.byte		N11   
	.byte	W12
	.byte		N11   
	.byte	W12
	.byte		N11   
	.byte	W12
	.byte		N11   
	.byte	W12
	.byte		N11   
	.byte	W12
	.byte		        Bn1 
	.byte	W12
	.byte	PEND
@ 046   ----------------------------------------
Red_Like_Roses_Part_II_6_046:
	.byte	W36
	.byte		N11   , Bn1 , v096
	.byte	W48
	.byte		N11   
	.byte	W12
	.byte	PEND
@ 047   ----------------------------------------
Red_Like_Roses_Part_II_6_047:
	.byte	W36
	.byte		N11   , Bn1 , v096
	.byte	W48
	.byte		N23   , En1 
	.byte	W12
	.byte	PEND
@ 048   ----------------------------------------
	.byte	PATT
	 .word	Red_Like_Roses_Part_II_6_044
@ 049   ----------------------------------------
Red_Like_Roses_Part_II_6_049:
	.byte		N11   , Gn1 , v096
	.byte	W12
	.byte		N11   
	.byte	W12
	.byte		N11   
	.byte	W12
	.byte		        Fs1 
	.byte	W12
	.byte		N11   
	.byte	W12
	.byte		N11   
	.byte	W12
	.byte		N11   
	.byte	W12
	.byte		N23   , Bn1 
	.byte	W12
	.byte	PEND
@ 050   ----------------------------------------
	.byte	PATT
	 .word	Red_Like_Roses_Part_II_6_024
@ 051   ----------------------------------------
Red_Like_Roses_Part_II_6_051:
	.byte		N11   , Bn1 , v096
	.byte	W12
	.byte		N11   
	.byte	W12
	.byte		N11   
	.byte	W12
	.byte		N11   
	.byte	W12
	.byte		N11   
	.byte	W12
	.byte		N11   
	.byte	W12
	.byte		N11   
	.byte	W12
	.byte		N23   , Cn2 
	.byte	W12
	.byte	PEND
@ 052   ----------------------------------------
Red_Like_Roses_Part_II_6_052:
	.byte	W12
	.byte		N11   , Cn2 , v096
	.byte	W12
	.byte		N11   
	.byte	W12
	.byte		N11   
	.byte	W12
	.byte		N11   
	.byte	W12
	.byte		N11   
	.byte	W12
	.byte		N11   
	.byte	W12
	.byte		N11   
	.byte	W12
	.byte	PEND
@ 053   ----------------------------------------
Red_Like_Roses_Part_II_6_053:
	.byte		N11   , Cn2 , v096
	.byte	W12
	.byte		N11   
	.byte	W12
	.byte		N11   
	.byte	W12
	.byte		N11   
	.byte	W12
	.byte		N11   
	.byte	W12
	.byte		N11   
	.byte	W12
	.byte		N11   
	.byte	W12
	.byte		N23   
	.byte	W12
	.byte	PEND
@ 054   ----------------------------------------
Red_Like_Roses_Part_II_6_054:
	.byte	W12
	.byte		N11   , Cn2 , v096
	.byte	W12
	.byte		        Ds2 
	.byte	W12
	.byte		N11   
	.byte	W12
	.byte		N11   
	.byte	W12
	.byte		N11   
	.byte	W12
	.byte		N11   
	.byte	W12
	.byte		        Gn2 
	.byte	W12
	.byte	PEND
@ 055   ----------------------------------------
Red_Like_Roses_Part_II_6_055:
	.byte		N11   , Gn2 , v096
	.byte	W12
	.byte		N11   
	.byte	W12
	.byte		N11   
	.byte	W12
	.byte		        Fs2 
	.byte	W12
	.byte		N11   
	.byte	W12
	.byte		N11   
	.byte	W12
	.byte		N11   
	.byte	W12
	.byte		N23   , Cn2 
	.byte	W12
	.byte	PEND
@ 056   ----------------------------------------
Red_Like_Roses_Part_II_6_056:
	.byte	W12
	.byte		N11   , Cn2 , v096
	.byte	W12
	.byte		N11   
	.byte	W12
	.byte		        Ds2 
	.byte	W12
	.byte		N11   
	.byte	W12
	.byte		N11   
	.byte	W12
	.byte		N11   
	.byte	W12
	.byte		        Gn2 
	.byte	W12
	.byte	PEND
@ 057   ----------------------------------------
Red_Like_Roses_Part_II_6_057:
	.byte		N11   , Gn2 , v096
	.byte	W12
	.byte		N11   
	.byte	W12
	.byte		        Fs2 
	.byte	W12
	.byte		N11   
	.byte	W12
	.byte		N11   
	.byte	W12
	.byte		N11   
	.byte	W12
	.byte		N11   
	.byte	W24
	.byte	PEND
@ 058   ----------------------------------------
Red_Like_Roses_Part_II_6_058:
	.byte		N11   , Fs2 , v096
	.byte	W12
	.byte		        Gn2 
	.byte	W12
	.byte		        Fs2 
	.byte	W12
	.byte		        Gn2 
	.byte	W12
	.byte		        Fs2 
	.byte	W12
	.byte		        Gn2 
	.byte	W12
	.byte		        Fs2 
	.byte	W12
	.byte		        Gn2 
	.byte	W12
	.byte	PEND
@ 059   ----------------------------------------
	.byte	PATT
	 .word	Red_Like_Roses_Part_II_6_058
@ 060   ----------------------------------------
	.byte	PATT
	 .word	Red_Like_Roses_Part_II_6_058
@ 061   ----------------------------------------
Red_Like_Roses_Part_II_6_061:
	.byte		N11   , Fs2 , v096
	.byte	W12
	.byte		        Gn2 
	.byte	W12
	.byte		        Fs2 
	.byte	W12
	.byte		        Gn2 
	.byte	W12
	.byte		N23   , Fs2 
	.byte	W48
	.byte	PEND
@ 062   ----------------------------------------
	.byte	W96
@ 063   ----------------------------------------
	.byte	W84
	.byte		        Bn1 
	.byte	W12
@ 064   ----------------------------------------
	.byte	PATT
	 .word	Red_Like_Roses_Part_II_6_024
@ 065   ----------------------------------------
	.byte	PATT
	 .word	Red_Like_Roses_Part_II_6_027
@ 066   ----------------------------------------
	.byte	PATT
	 .word	Red_Like_Roses_Part_II_6_028
@ 067   ----------------------------------------
	.byte	PATT
	 .word	Red_Like_Roses_Part_II_6_029
@ 068   ----------------------------------------
	.byte	PATT
	 .word	Red_Like_Roses_Part_II_6_044
@ 069   ----------------------------------------
Red_Like_Roses_Part_II_6_069:
	.byte		N11   , En1 , v096
	.byte	W12
	.byte		N11   
	.byte	W12
	.byte		N11   
	.byte	W12
	.byte		N11   
	.byte	W12
	.byte		N11   
	.byte	W12
	.byte		N11   
	.byte	W12
	.byte		N11   
	.byte	W12
	.byte		N23   , Fs1 
	.byte	W12
	.byte	PEND
@ 070   ----------------------------------------
Red_Like_Roses_Part_II_6_070:
	.byte	W12
	.byte		N11   , Fs1 , v096
	.byte	W12
	.byte		N11   
	.byte	W12
	.byte		N11   
	.byte	W12
	.byte		N11   
	.byte	W12
	.byte		N11   
	.byte	W12
	.byte		N11   
	.byte	W12
	.byte		N11   
	.byte	W12
	.byte	PEND
@ 071   ----------------------------------------
	.byte		        Gn1 
	.byte	W12
	.byte		N11   
	.byte	W12
	.byte		N11   
	.byte	W12
	.byte		        An1 
	.byte	W12
	.byte		N11   
	.byte	W12
	.byte		N11   
	.byte	W12
	.byte		N11   
	.byte	W12
	.byte		        Bn1 
	.byte	W12
@ 072   ----------------------------------------
	.byte		N11   
	.byte	W12
	.byte		N11   
	.byte	W12
	.byte		N11   
	.byte	W12
	.byte		N11   
	.byte	W12
	.byte		N11   
	.byte	W12
	.byte		N11   
	.byte	W12
	.byte		N11   
	.byte	W12
	.byte		N11   
	.byte	W12
@ 073   ----------------------------------------
	.byte	PATT
	 .word	Red_Like_Roses_Part_II_6_027
@ 074   ----------------------------------------
	.byte	PATT
	 .word	Red_Like_Roses_Part_II_6_028
@ 075   ----------------------------------------
	.byte	PATT
	 .word	Red_Like_Roses_Part_II_6_029
@ 076   ----------------------------------------
	.byte	PATT
	 .word	Red_Like_Roses_Part_II_6_044
@ 077   ----------------------------------------
	.byte	PATT
	 .word	Red_Like_Roses_Part_II_6_069
@ 078   ----------------------------------------
	.byte	W12
	.byte		N11   , Fs1 , v096
	.byte	W12
	.byte		N11   
	.byte	W12
	.byte		N11   
	.byte	W12
	.byte		N11   
	.byte	W12
	.byte		N11   
	.byte	W12
	.byte		N11   
	.byte	W12
	.byte		N23   , Gn1 
	.byte	W12
@ 079   ----------------------------------------
	.byte	W12
	.byte		N11   
	.byte	W12
	.byte		N11   
	.byte	W12
	.byte		N11   
	.byte	W12
	.byte		        An1 
	.byte	W12
	.byte		N11   
	.byte	W12
	.byte		N11   
	.byte	W12
	.byte		N32   , Bn1 
	.byte	W12
@ 080   ----------------------------------------
	.byte	W96
@ 081   ----------------------------------------
	.byte	W84
	.byte		N32   
	.byte	W12
@ 082   ----------------------------------------
	.byte	W96
@ 083   ----------------------------------------
	.byte	W84
	.byte		        Gn1 
	.byte	W12
@ 084   ----------------------------------------
	.byte	W96
@ 085   ----------------------------------------
	.byte	W84
	.byte		        En1 
	.byte	W12
@ 086   ----------------------------------------
	.byte	W84
	.byte		        Fs1 
	.byte	W12
@ 087   ----------------------------------------
	.byte	PATT
	 .word	Red_Like_Roses_Part_II_6_015
@ 088   ----------------------------------------
	.byte	W96
@ 089   ----------------------------------------
	.byte	W84
	.byte		N32   , Bn1 , v096
	.byte	W12
@ 090   ----------------------------------------
	.byte	W96
@ 091   ----------------------------------------
	.byte	W84
	.byte		        Gn1 
	.byte	W12
@ 092   ----------------------------------------
	.byte	W96
@ 093   ----------------------------------------
	.byte	W84
	.byte		        En1 
	.byte	W12
@ 094   ----------------------------------------
	.byte	W84
	.byte		        Fs1 
	.byte	W12
@ 095   ----------------------------------------
	.byte	W36
	.byte		N23   , Gn1 
	.byte	W48
	.byte		        Bn1 
	.byte	W12
@ 096   ----------------------------------------
	.byte	PATT
	 .word	Red_Like_Roses_Part_II_6_024
@ 097   ----------------------------------------
	.byte	PATT
	 .word	Red_Like_Roses_Part_II_6_025
@ 098   ----------------------------------------
	.byte	PATT
	 .word	Red_Like_Roses_Part_II_6_024
@ 099   ----------------------------------------
	.byte	PATT
	 .word	Red_Like_Roses_Part_II_6_027
@ 100   ----------------------------------------
	.byte	PATT
	 .word	Red_Like_Roses_Part_II_6_028
@ 101   ----------------------------------------
	.byte	PATT
	 .word	Red_Like_Roses_Part_II_6_029
@ 102   ----------------------------------------
	.byte	PATT
	 .word	Red_Like_Roses_Part_II_6_030
@ 103   ----------------------------------------
	.byte	PATT
	 .word	Red_Like_Roses_Part_II_6_031
@ 104   ----------------------------------------
	.byte	PATT
	 .word	Red_Like_Roses_Part_II_6_024
@ 105   ----------------------------------------
	.byte	PATT
	 .word	Red_Like_Roses_Part_II_6_033
@ 106   ----------------------------------------
	.byte	PATT
	 .word	Red_Like_Roses_Part_II_6_024
@ 107   ----------------------------------------
	.byte	PATT
	 .word	Red_Like_Roses_Part_II_6_035
@ 108   ----------------------------------------
	.byte	PATT
	 .word	Red_Like_Roses_Part_II_6_028
@ 109   ----------------------------------------
	.byte	PATT
	 .word	Red_Like_Roses_Part_II_6_037
@ 110   ----------------------------------------
	.byte	PATT
	 .word	Red_Like_Roses_Part_II_6_038
@ 111   ----------------------------------------
	.byte	PATT
	 .word	Red_Like_Roses_Part_II_6_039
@ 112   ----------------------------------------
	.byte	PATT
	 .word	Red_Like_Roses_Part_II_6_040
@ 113   ----------------------------------------
	.byte	PATT
	 .word	Red_Like_Roses_Part_II_6_041
@ 114   ----------------------------------------
	.byte	PATT
	 .word	Red_Like_Roses_Part_II_6_024
@ 115   ----------------------------------------
	.byte	PATT
	 .word	Red_Like_Roses_Part_II_6_043
@ 116   ----------------------------------------
	.byte	PATT
	 .word	Red_Like_Roses_Part_II_6_044
@ 117   ----------------------------------------
	.byte	PATT
	 .word	Red_Like_Roses_Part_II_6_045
@ 118   ----------------------------------------
	.byte	PATT
	 .word	Red_Like_Roses_Part_II_6_046
@ 119   ----------------------------------------
	.byte	PATT
	 .word	Red_Like_Roses_Part_II_6_047
@ 120   ----------------------------------------
	.byte	PATT
	 .word	Red_Like_Roses_Part_II_6_044
@ 121   ----------------------------------------
	.byte	PATT
	 .word	Red_Like_Roses_Part_II_6_049
@ 122   ----------------------------------------
	.byte	PATT
	 .word	Red_Like_Roses_Part_II_6_024
@ 123   ----------------------------------------
	.byte	PATT
	 .word	Red_Like_Roses_Part_II_6_051
@ 124   ----------------------------------------
	.byte	PATT
	 .word	Red_Like_Roses_Part_II_6_052
@ 125   ----------------------------------------
	.byte	PATT
	 .word	Red_Like_Roses_Part_II_6_053
@ 126   ----------------------------------------
	.byte	PATT
	 .word	Red_Like_Roses_Part_II_6_054
@ 127   ----------------------------------------
	.byte	PATT
	 .word	Red_Like_Roses_Part_II_6_055
@ 128   ----------------------------------------
	.byte	PATT
	 .word	Red_Like_Roses_Part_II_6_056
@ 129   ----------------------------------------
	.byte	PATT
	 .word	Red_Like_Roses_Part_II_6_057
@ 130   ----------------------------------------
	.byte	PATT
	 .word	Red_Like_Roses_Part_II_6_058
@ 131   ----------------------------------------
	.byte	PATT
	 .word	Red_Like_Roses_Part_II_6_058
@ 132   ----------------------------------------
	.byte	PATT
	 .word	Red_Like_Roses_Part_II_6_058
@ 133   ----------------------------------------
	.byte	PATT
	 .word	Red_Like_Roses_Part_II_6_061
@ 134   ----------------------------------------
	.byte	W96
@ 135   ----------------------------------------
	.byte	W84
	.byte		N23   , Bn1 , v096
	.byte	W12
@ 136   ----------------------------------------
	.byte	PATT
	 .word	Red_Like_Roses_Part_II_6_024
@ 137   ----------------------------------------
	.byte	PATT
	 .word	Red_Like_Roses_Part_II_6_027
@ 138   ----------------------------------------
	.byte	PATT
	 .word	Red_Like_Roses_Part_II_6_028
@ 139   ----------------------------------------
	.byte	PATT
	 .word	Red_Like_Roses_Part_II_6_029
@ 140   ----------------------------------------
	.byte	PATT
	 .word	Red_Like_Roses_Part_II_6_044
@ 141   ----------------------------------------
	.byte	PATT
	 .word	Red_Like_Roses_Part_II_6_069
@ 142   ----------------------------------------
	.byte	PATT
	 .word	Red_Like_Roses_Part_II_6_070
@ 143   ----------------------------------------
	.byte		N11   , Gn1 , v096
	.byte	W12
	.byte		N11   
	.byte	W12
	.byte		N11   
	.byte	W12
	.byte		        An1 
	.byte	W12
	.byte		N11   
	.byte	W12
	.byte		N11   
	.byte	W12
	.byte		N11   
	.byte	W12
	.byte		N23   , Bn1 
	.byte	W12
@ 144   ----------------------------------------
	.byte	PATT
	 .word	Red_Like_Roses_Part_II_6_024
@ 145   ----------------------------------------
	.byte	PATT
	 .word	Red_Like_Roses_Part_II_6_027
@ 146   ----------------------------------------
	.byte	PATT
	 .word	Red_Like_Roses_Part_II_6_028
@ 147   ----------------------------------------
	.byte	PATT
	 .word	Red_Like_Roses_Part_II_6_029
@ 148   ----------------------------------------
	.byte	PATT
	 .word	Red_Like_Roses_Part_II_6_044
@ 149   ----------------------------------------
	.byte	PATT
	 .word	Red_Like_Roses_Part_II_6_069
@ 150   ----------------------------------------
	.byte	PATT
	 .word	Red_Like_Roses_Part_II_6_070
@ 151   ----------------------------------------
	.byte		N11   , Gn1 , v096
	.byte	W12
	.byte		N11   
	.byte	W12
	.byte		N11   
	.byte	W12
	.byte		        An1 
	.byte	W12
	.byte		N11   
	.byte	W12
	.byte		N11   
	.byte	W12
	.byte		N11   
	.byte	W12
	.byte		N56   , Gn1 
	.byte	W12
@ 152   ----------------------------------------
	.byte	W68
	.byte	W03
	.byte	GOTO
	 .word	Red_Like_Roses_Part_II_6_B1
Red_Like_Roses_Part_II_6_B2:
	.byte	FINE

@**************** Track 7 (Midi-Chn.9) ****************@

Red_Like_Roses_Part_II_7:
	.byte	KEYSH , Red_Like_Roses_Part_II_key+0
Red_Like_Roses_Part_II_7_B1:
@ 000   ----------------------------------------
	.byte		VOICE , 51
	.byte		VOL   , 127*Red_Like_Roses_Part_II_mvl/mxv
	.byte		PAN   , c_v+0
	.byte	W96
@ 001   ----------------------------------------
	.byte	W96
@ 002   ----------------------------------------
	.byte		TIE   , Bn2 , v080
	.byte	W96
@ 003   ----------------------------------------
	.byte	W92
	.byte	W03
	.byte		EOT   
	.byte	W01
@ 004   ----------------------------------------
	.byte	W96
@ 005   ----------------------------------------
	.byte	W96
@ 006   ----------------------------------------
	.byte	W96
@ 007   ----------------------------------------
	.byte	W96
@ 008   ----------------------------------------
	.byte	W96
@ 009   ----------------------------------------
	.byte	W96
@ 010   ----------------------------------------
	.byte	W96
@ 011   ----------------------------------------
	.byte	W96
@ 012   ----------------------------------------
	.byte	W96
@ 013   ----------------------------------------
	.byte	W96
@ 014   ----------------------------------------
	.byte	W96
@ 015   ----------------------------------------
	.byte	W96
@ 016   ----------------------------------------
	.byte	W96
@ 017   ----------------------------------------
	.byte	W96
@ 018   ----------------------------------------
	.byte	W96
@ 019   ----------------------------------------
	.byte	W96
@ 020   ----------------------------------------
	.byte	W96
@ 021   ----------------------------------------
	.byte	W96
@ 022   ----------------------------------------
	.byte	W96
@ 023   ----------------------------------------
	.byte	W96
@ 024   ----------------------------------------
	.byte	W96
@ 025   ----------------------------------------
	.byte	W96
@ 026   ----------------------------------------
	.byte	W96
@ 027   ----------------------------------------
	.byte	W96
@ 028   ----------------------------------------
	.byte	W96
@ 029   ----------------------------------------
	.byte	W96
@ 030   ----------------------------------------
	.byte	W96
@ 031   ----------------------------------------
	.byte	W96
@ 032   ----------------------------------------
	.byte	W96
@ 033   ----------------------------------------
	.byte	W96
@ 034   ----------------------------------------
	.byte	W96
@ 035   ----------------------------------------
	.byte	W96
@ 036   ----------------------------------------
	.byte	W96
@ 037   ----------------------------------------
	.byte	W96
@ 038   ----------------------------------------
	.byte	W96
@ 039   ----------------------------------------
	.byte	W96
@ 040   ----------------------------------------
	.byte	W96
@ 041   ----------------------------------------
	.byte	W96
@ 042   ----------------------------------------
	.byte	W96
@ 043   ----------------------------------------
	.byte	W96
@ 044   ----------------------------------------
	.byte	W96
@ 045   ----------------------------------------
	.byte	W96
@ 046   ----------------------------------------
	.byte	W96
@ 047   ----------------------------------------
	.byte	W96
@ 048   ----------------------------------------
	.byte	W96
@ 049   ----------------------------------------
	.byte	W96
@ 050   ----------------------------------------
	.byte	W96
@ 051   ----------------------------------------
	.byte	W96
@ 052   ----------------------------------------
	.byte	W96
@ 053   ----------------------------------------
	.byte	W96
@ 054   ----------------------------------------
	.byte	W96
@ 055   ----------------------------------------
	.byte	W96
@ 056   ----------------------------------------
	.byte	W96
@ 057   ----------------------------------------
	.byte	W96
@ 058   ----------------------------------------
	.byte	W96
@ 059   ----------------------------------------
	.byte	W96
@ 060   ----------------------------------------
	.byte	W96
@ 061   ----------------------------------------
	.byte	W96
@ 062   ----------------------------------------
	.byte	W96
@ 063   ----------------------------------------
	.byte	W96
@ 064   ----------------------------------------
	.byte	W96
@ 065   ----------------------------------------
	.byte	W96
@ 066   ----------------------------------------
	.byte	W96
@ 067   ----------------------------------------
	.byte	W96
@ 068   ----------------------------------------
	.byte	W96
@ 069   ----------------------------------------
	.byte	W96
@ 070   ----------------------------------------
	.byte	W96
@ 071   ----------------------------------------
	.byte	W96
@ 072   ----------------------------------------
	.byte	W96
@ 073   ----------------------------------------
	.byte	W96
@ 074   ----------------------------------------
	.byte	W96
@ 075   ----------------------------------------
	.byte	W96
@ 076   ----------------------------------------
	.byte	W96
@ 077   ----------------------------------------
	.byte	W96
@ 078   ----------------------------------------
	.byte	W96
@ 079   ----------------------------------------
	.byte	W96
@ 080   ----------------------------------------
	.byte	W96
@ 081   ----------------------------------------
	.byte	W96
@ 082   ----------------------------------------
	.byte	W96
@ 083   ----------------------------------------
	.byte	W96
@ 084   ----------------------------------------
	.byte	W96
@ 085   ----------------------------------------
	.byte	W96
@ 086   ----------------------------------------
	.byte	W96
@ 087   ----------------------------------------
	.byte	W96
@ 088   ----------------------------------------
	.byte	W96
@ 089   ----------------------------------------
	.byte	W96
@ 090   ----------------------------------------
	.byte	W96
@ 091   ----------------------------------------
	.byte	W96
@ 092   ----------------------------------------
	.byte	W96
@ 093   ----------------------------------------
	.byte	W96
@ 094   ----------------------------------------
	.byte	W96
@ 095   ----------------------------------------
	.byte	W96
@ 096   ----------------------------------------
	.byte	W96
@ 097   ----------------------------------------
	.byte	W96
@ 098   ----------------------------------------
	.byte	W96
@ 099   ----------------------------------------
	.byte	W96
@ 100   ----------------------------------------
	.byte	W96
@ 101   ----------------------------------------
	.byte	W96
@ 102   ----------------------------------------
	.byte	W96
@ 103   ----------------------------------------
	.byte	W96
@ 104   ----------------------------------------
	.byte	W96
@ 105   ----------------------------------------
	.byte	W96
@ 106   ----------------------------------------
	.byte	W96
@ 107   ----------------------------------------
	.byte	W96
@ 108   ----------------------------------------
	.byte	W96
@ 109   ----------------------------------------
	.byte	W96
@ 110   ----------------------------------------
	.byte	W96
@ 111   ----------------------------------------
	.byte	W96
@ 112   ----------------------------------------
	.byte	W96
@ 113   ----------------------------------------
	.byte	W96
@ 114   ----------------------------------------
	.byte	W96
@ 115   ----------------------------------------
	.byte	W96
@ 116   ----------------------------------------
	.byte	W96
@ 117   ----------------------------------------
	.byte	W96
@ 118   ----------------------------------------
	.byte	W96
@ 119   ----------------------------------------
	.byte	W96
@ 120   ----------------------------------------
	.byte	W96
@ 121   ----------------------------------------
	.byte	W96
@ 122   ----------------------------------------
	.byte	W96
@ 123   ----------------------------------------
	.byte	W96
@ 124   ----------------------------------------
	.byte	W96
@ 125   ----------------------------------------
	.byte	W96
@ 126   ----------------------------------------
	.byte	W96
@ 127   ----------------------------------------
	.byte	W96
@ 128   ----------------------------------------
	.byte	W96
@ 129   ----------------------------------------
	.byte	W96
@ 130   ----------------------------------------
	.byte	W96
@ 131   ----------------------------------------
	.byte	W96
@ 132   ----------------------------------------
	.byte	W96
@ 133   ----------------------------------------
	.byte	W96
@ 134   ----------------------------------------
	.byte	W96
@ 135   ----------------------------------------
	.byte	W96
@ 136   ----------------------------------------
	.byte	W96
@ 137   ----------------------------------------
	.byte	W96
@ 138   ----------------------------------------
	.byte	W96
@ 139   ----------------------------------------
	.byte	W96
@ 140   ----------------------------------------
	.byte	W96
@ 141   ----------------------------------------
	.byte	W96
@ 142   ----------------------------------------
	.byte	W96
@ 143   ----------------------------------------
	.byte	W96
@ 144   ----------------------------------------
	.byte	W96
@ 145   ----------------------------------------
	.byte	W96
@ 146   ----------------------------------------
	.byte	W96
@ 147   ----------------------------------------
	.byte	W96
@ 148   ----------------------------------------
	.byte	W96
@ 149   ----------------------------------------
	.byte	W96
@ 150   ----------------------------------------
	.byte	W96
@ 151   ----------------------------------------
	.byte	W96
@ 152   ----------------------------------------
	.byte	W68
	.byte	W03
	.byte	GOTO
	 .word	Red_Like_Roses_Part_II_7_B1
Red_Like_Roses_Part_II_7_B2:
	.byte	FINE

@**************** Track 8 (Midi-Chn.10) ****************@

Red_Like_Roses_Part_II_8:
	.byte	KEYSH , Red_Like_Roses_Part_II_key+0
Red_Like_Roses_Part_II_8_B1:
@ 000   ----------------------------------------
	.byte		VOICE , 124
	.byte		VOL   , 127*Red_Like_Roses_Part_II_mvl/mxv
	.byte		PAN   , c_v+0
	.byte	W96
@ 001   ----------------------------------------
	.byte	W96
@ 002   ----------------------------------------
	.byte	W96
@ 003   ----------------------------------------
	.byte	W96
@ 004   ----------------------------------------
	.byte	W96
@ 005   ----------------------------------------
	.byte	W96
@ 006   ----------------------------------------
	.byte	W96
@ 007   ----------------------------------------
Red_Like_Roses_Part_II_8_007:
	.byte	W84
	.byte		N32   , Cn1 , v096
	.byte		N32   , Dn1 
	.byte		N32   , As1 
	.byte	W12
	.byte	PEND
@ 008   ----------------------------------------
	.byte	W96
@ 009   ----------------------------------------
	.byte	PATT
	 .word	Red_Like_Roses_Part_II_8_007
@ 010   ----------------------------------------
	.byte	W96
@ 011   ----------------------------------------
	.byte	PATT
	 .word	Red_Like_Roses_Part_II_8_007
@ 012   ----------------------------------------
	.byte	W96
@ 013   ----------------------------------------
	.byte	PATT
	 .word	Red_Like_Roses_Part_II_8_007
@ 014   ----------------------------------------
Red_Like_Roses_Part_II_8_014:
	.byte	W88
	.byte		N30   , Cn1 , v096
	.byte		N30   , Dn1 
	.byte		N30   , As1 
	.byte	W08
	.byte	PEND
@ 015   ----------------------------------------
Red_Like_Roses_Part_II_8_015:
	.byte	W36
	.byte		N23   , Cn1 , v096
	.byte		N23   , Dn1 
	.byte		N23   , As1 
	.byte	W48
	.byte		N32   , Cn1 
	.byte		N32   , Dn1 
	.byte		N32   , As1 
	.byte	W12
	.byte	PEND
@ 016   ----------------------------------------
	.byte	W96
@ 017   ----------------------------------------
	.byte	PATT
	 .word	Red_Like_Roses_Part_II_8_007
@ 018   ----------------------------------------
	.byte	W96
@ 019   ----------------------------------------
	.byte	PATT
	 .word	Red_Like_Roses_Part_II_8_007
@ 020   ----------------------------------------
	.byte	W96
@ 021   ----------------------------------------
	.byte	PATT
	 .word	Red_Like_Roses_Part_II_8_007
@ 022   ----------------------------------------
	.byte	PATT
	 .word	Red_Like_Roses_Part_II_8_014
@ 023   ----------------------------------------
Red_Like_Roses_Part_II_8_023:
	.byte	W36
	.byte		N44   , Cn1 , v096
	.byte		N44   , Dn1 
	.byte		N44   , As1 
	.byte	W48
	.byte		N23   , Cn1 
	.byte		N23   , Dn1 
	.byte		N23   , As1 
	.byte	W12
	.byte	PEND
@ 024   ----------------------------------------
Red_Like_Roses_Part_II_8_024:
	.byte	W12
	.byte		N11   , Cn1 , v096
	.byte	W12
	.byte		        Dn1 
	.byte		N11   , Ds2 
	.byte	W12
	.byte		        Cn1 
	.byte	W12
	.byte		        Ds2 
	.byte	W12
	.byte		        Cn1 
	.byte	W12
	.byte		        Dn1 
	.byte		N11   , Ds2 
	.byte	W12
	.byte		        Cn1 
	.byte	W12
	.byte	PEND
@ 025   ----------------------------------------
Red_Like_Roses_Part_II_8_025:
	.byte		N11   , Cn1 , v096
	.byte		N11   , Ds2 
	.byte	W12
	.byte		        Cn1 
	.byte	W12
	.byte		        Dn1 
	.byte		N11   , Ds2 
	.byte	W12
	.byte		        Cn1 
	.byte	W12
	.byte		N11   
	.byte		N11   , Ds2 
	.byte	W12
	.byte		        Cn1 
	.byte	W12
	.byte		        Dn1 
	.byte		N11   , Ds2 
	.byte	W12
	.byte		N23   , Cn1 
	.byte		N23   , Dn1 
	.byte		N23   , As1 
	.byte	W12
	.byte	PEND
@ 026   ----------------------------------------
	.byte	PATT
	 .word	Red_Like_Roses_Part_II_8_024
@ 027   ----------------------------------------
	.byte	PATT
	 .word	Red_Like_Roses_Part_II_8_025
@ 028   ----------------------------------------
	.byte	PATT
	 .word	Red_Like_Roses_Part_II_8_024
@ 029   ----------------------------------------
	.byte	PATT
	 .word	Red_Like_Roses_Part_II_8_025
@ 030   ----------------------------------------
Red_Like_Roses_Part_II_8_030:
	.byte	W12
	.byte		N11   , Cn1 , v096
	.byte	W12
	.byte		        Dn1 
	.byte		N11   , Ds2 
	.byte	W12
	.byte		N23   , Cn1 
	.byte		N23   , Dn1 
	.byte		N23   , As1 
	.byte	W24
	.byte		N11   , Cn1 
	.byte	W12
	.byte		        Dn1 
	.byte		N11   , Ds2 
	.byte	W12
	.byte		N23   , Cn1 
	.byte		N23   , Dn1 
	.byte		N23   , As1 
	.byte	W12
	.byte	PEND
@ 031   ----------------------------------------
Red_Like_Roses_Part_II_8_031:
	.byte	W12
	.byte		N11   , Cn1 , v096
	.byte	W12
	.byte		        Dn1 
	.byte		N11   , Ds2 
	.byte	W12
	.byte		        Cn1 
	.byte		N11   , Dn1 
	.byte		N11   , As1 
	.byte	W12
	.byte		        Cn1 
	.byte	W12
	.byte		N11   
	.byte	W12
	.byte		        Dn1 
	.byte		N11   , Ds2 
	.byte	W12
	.byte		N23   , Cn1 
	.byte		N23   , Dn1 
	.byte		N23   , As1 
	.byte	W12
	.byte	PEND
@ 032   ----------------------------------------
Red_Like_Roses_Part_II_8_032:
	.byte	W12
	.byte		N11   , Cn1 , v096
	.byte	W12
	.byte		        Dn1 
	.byte		N11   , Ds2 
	.byte	W12
	.byte		        Cn1 
	.byte	W12
	.byte		N11   
	.byte		N11   , Ds2 
	.byte	W12
	.byte		        Cn1 
	.byte	W12
	.byte		        Dn1 
	.byte		N11   , Ds2 
	.byte	W12
	.byte		        Cn1 
	.byte	W12
	.byte	PEND
@ 033   ----------------------------------------
Red_Like_Roses_Part_II_8_033:
	.byte		N11   , Cn1 , v096
	.byte		N11   , Ds2 
	.byte	W12
	.byte		        Cn1 
	.byte	W12
	.byte		        Dn1 
	.byte		N11   , Ds2 
	.byte	W12
	.byte		        Cn1 
	.byte	W12
	.byte		N11   
	.byte		N11   , Ds2 
	.byte	W12
	.byte		        Cn1 
	.byte	W12
	.byte		        Dn1 
	.byte		N11   , Ds2 
	.byte	W12
	.byte		        Cn1 
	.byte		N11   , Dn1 
	.byte		N11   , As1 
	.byte	W12
	.byte	PEND
@ 034   ----------------------------------------
	.byte		        Cn1 
	.byte		N11   , Dn1 
	.byte		N11   , As1 
	.byte	W12
	.byte		        Cn1 
	.byte	W12
	.byte		        Dn1 
	.byte		N11   , Ds2 
	.byte	W12
	.byte		        Cn1 
	.byte	W12
	.byte		N11   
	.byte		N11   , Ds2 
	.byte	W12
	.byte		        Cn1 
	.byte	W12
	.byte		        Dn1 
	.byte		N11   , Ds2 
	.byte	W12
	.byte		        Cn1 
	.byte	W12
@ 035   ----------------------------------------
	.byte	PATT
	 .word	Red_Like_Roses_Part_II_8_025
@ 036   ----------------------------------------
	.byte	PATT
	 .word	Red_Like_Roses_Part_II_8_032
@ 037   ----------------------------------------
	.byte	PATT
	 .word	Red_Like_Roses_Part_II_8_033
@ 038   ----------------------------------------
Red_Like_Roses_Part_II_8_038:
	.byte		N11   , Dn1 , v096
	.byte	W12
	.byte		N11   
	.byte	W12
	.byte		N11   
	.byte	W12
	.byte		N11   
	.byte	W12
	.byte		N11   
	.byte	W12
	.byte		N11   
	.byte	W12
	.byte		N11   
	.byte	W12
	.byte		N11   
	.byte	W12
	.byte	PEND
@ 039   ----------------------------------------
Red_Like_Roses_Part_II_8_039:
	.byte		N11   , Dn1 , v096
	.byte	W12
	.byte		N11   
	.byte	W12
	.byte		N11   
	.byte	W12
	.byte		N11   
	.byte	W12
	.byte		N11   
	.byte	W12
	.byte		N11   
	.byte	W12
	.byte		N11   
	.byte	W12
	.byte		N32   , Cn1 
	.byte		N32   , Dn1 
	.byte		N32   , As1 
	.byte	W12
	.byte	PEND
@ 040   ----------------------------------------
Red_Like_Roses_Part_II_8_040:
	.byte	W24
	.byte		N11   , Dn1 , v096
	.byte		N11   , As1 
	.byte	W12
	.byte		        Cn1 
	.byte	W12
	.byte		N11   
	.byte		N11   , As1 
	.byte	W12
	.byte		        Cn1 
	.byte	W12
	.byte		N23   , Dn1 
	.byte		N23   , As1 
	.byte	W24
	.byte	PEND
@ 041   ----------------------------------------
Red_Like_Roses_Part_II_8_041:
	.byte		N11   , As1 , v096
	.byte	W12
	.byte		        Cn1 
	.byte	W12
	.byte		        Dn1 
	.byte		N11   , As1 
	.byte	W12
	.byte		        Cn1 
	.byte	W12
	.byte		N11   
	.byte		N11   , As1 
	.byte	W12
	.byte		        Cn1 
	.byte	W12
	.byte		        Dn1 
	.byte		N11   , As1 
	.byte	W12
	.byte		N23   , Cn1 
	.byte		N23   , Dn1 
	.byte		N23   , As1 
	.byte	W12
	.byte	PEND
@ 042   ----------------------------------------
Red_Like_Roses_Part_II_8_042:
	.byte	W12
	.byte		N11   , Cn1 , v096
	.byte	W12
	.byte		        Dn1 
	.byte		N11   , As1 
	.byte	W12
	.byte		        Cn1 
	.byte	W12
	.byte		N11   
	.byte		N11   , As1 
	.byte	W12
	.byte		        Cn1 
	.byte	W12
	.byte		N23   , Dn1 
	.byte		N23   , As1 
	.byte	W24
	.byte	PEND
@ 043   ----------------------------------------
	.byte	PATT
	 .word	Red_Like_Roses_Part_II_8_041
@ 044   ----------------------------------------
Red_Like_Roses_Part_II_8_044:
	.byte	W12
	.byte		N11   , Cn1 , v096
	.byte	W12
	.byte		        Dn1 
	.byte		N11   , As1 
	.byte	W12
	.byte		        Cn1 
	.byte	W12
	.byte		N11   
	.byte		N11   , As1 
	.byte	W12
	.byte		        Cn1 
	.byte	W12
	.byte		        Dn1 
	.byte		N11   , As1 
	.byte	W12
	.byte		        Cn1 
	.byte	W12
	.byte	PEND
@ 045   ----------------------------------------
Red_Like_Roses_Part_II_8_045:
	.byte		N23   , As1 , v096
	.byte	W24
	.byte		N11   , Dn1 
	.byte		N11   , As1 
	.byte	W12
	.byte		        Cn1 
	.byte	W12
	.byte		N11   
	.byte		N11   , As1 
	.byte	W12
	.byte		        Cn1 
	.byte	W12
	.byte		        Dn1 
	.byte		N11   , As1 
	.byte	W12
	.byte		N23   , Cn1 
	.byte		N23   , Dn1 
	.byte		N23   , As1 
	.byte	W12
	.byte	PEND
@ 046   ----------------------------------------
Red_Like_Roses_Part_II_8_046:
	.byte	W12
	.byte		N11   , Dn1 , v096
	.byte	W12
	.byte		N11   
	.byte	W12
	.byte		N23   , Cn1 
	.byte		N23   , Dn1 
	.byte		N23   , As1 
	.byte	W24
	.byte		N11   , Dn1 
	.byte	W12
	.byte		N11   
	.byte	W12
	.byte		N23   , Cn1 
	.byte		N23   , Dn1 
	.byte		N23   , As1 
	.byte	W12
	.byte	PEND
@ 047   ----------------------------------------
Red_Like_Roses_Part_II_8_047:
	.byte	W12
	.byte		N11   , Dn1 , v096
	.byte	W12
	.byte		N11   
	.byte	W12
	.byte		        Cn1 
	.byte		N11   , Dn1 
	.byte		N11   , As1 
	.byte	W12
	.byte		N05   , Dn1 
	.byte	W06
	.byte		N05   
	.byte	W06
	.byte		        Dn2 
	.byte	W06
	.byte		N05   
	.byte	W06
	.byte		        An1 
	.byte	W06
	.byte		N05   
	.byte	W06
	.byte		N23   , Cn1 
	.byte		N23   , Dn1 
	.byte		N23   , As1 
	.byte	W12
	.byte	PEND
@ 048   ----------------------------------------
	.byte	PATT
	 .word	Red_Like_Roses_Part_II_8_044
@ 049   ----------------------------------------
	.byte	PATT
	 .word	Red_Like_Roses_Part_II_8_041
@ 050   ----------------------------------------
Red_Like_Roses_Part_II_8_050:
	.byte	W12
	.byte		N11   , Cn1 , v096
	.byte	W12
	.byte		N23   , Dn1 
	.byte		N23   , As1 
	.byte	W24
	.byte		N11   , Cn1 
	.byte		N11   , As1 
	.byte	W12
	.byte		        Cn1 
	.byte	W12
	.byte		        Dn1 
	.byte		N11   , As1 
	.byte	W12
	.byte		        Cn1 
	.byte	W12
	.byte	PEND
@ 051   ----------------------------------------
Red_Like_Roses_Part_II_8_051:
	.byte		N11   , Cn1 , v096
	.byte		N11   , As1 
	.byte	W12
	.byte		        Cn1 
	.byte	W12
	.byte		        Dn1 
	.byte		N11   , As1 
	.byte	W12
	.byte		        Cn1 
	.byte	W12
	.byte		N11   
	.byte		N11   , As1 
	.byte	W12
	.byte		        Cn1 
	.byte	W12
	.byte		        Dn1 
	.byte		N11   , As1 
	.byte	W12
	.byte		N23   , Cn1 
	.byte		N23   , Dn1 
	.byte		N23   , As1 
	.byte	W12
	.byte	PEND
@ 052   ----------------------------------------
	.byte	PATT
	 .word	Red_Like_Roses_Part_II_8_044
@ 053   ----------------------------------------
	.byte	PATT
	 .word	Red_Like_Roses_Part_II_8_051
@ 054   ----------------------------------------
	.byte	PATT
	 .word	Red_Like_Roses_Part_II_8_044
@ 055   ----------------------------------------
Red_Like_Roses_Part_II_8_055:
	.byte		N11   , As1 , v096
	.byte	W12
	.byte		        Cn1 
	.byte	W12
	.byte		N23   , Dn1 
	.byte		N23   , As1 
	.byte	W24
	.byte		N11   , Cn1 
	.byte		N11   , As1 
	.byte	W12
	.byte		        Cn1 
	.byte	W12
	.byte		        Dn1 
	.byte		N11   , As1 
	.byte	W12
	.byte		N23   , Cn1 
	.byte		N23   , Dn1 
	.byte		N23   , As1 
	.byte	W12
	.byte	PEND
@ 056   ----------------------------------------
	.byte	PATT
	 .word	Red_Like_Roses_Part_II_8_050
@ 057   ----------------------------------------
	.byte	PATT
	 .word	Red_Like_Roses_Part_II_8_041
@ 058   ----------------------------------------
	.byte	PATT
	 .word	Red_Like_Roses_Part_II_8_050
@ 059   ----------------------------------------
Red_Like_Roses_Part_II_8_059:
	.byte		N11   , As1 , v096
	.byte	W12
	.byte		        Cn1 
	.byte	W12
	.byte		        Dn1 
	.byte		N11   , As1 
	.byte	W12
	.byte		        Cn1 
	.byte	W12
	.byte		N11   
	.byte		N11   , As1 
	.byte	W12
	.byte		        Cn1 
	.byte	W12
	.byte		        Dn1 
	.byte		N11   , As1 
	.byte	W12
	.byte		        Cn1 
	.byte		N11   , Dn1 
	.byte		N11   , As1 
	.byte	W12
	.byte	PEND
@ 060   ----------------------------------------
Red_Like_Roses_Part_II_8_060:
	.byte		N05   , Dn1 , v096
	.byte	W06
	.byte		        Cn1 
	.byte	W06
	.byte		        Dn1 
	.byte	W06
	.byte		        Cn1 
	.byte	W06
	.byte		        Dn1 
	.byte		N05   , As1 
	.byte	W06
	.byte		        Cn1 
	.byte	W06
	.byte		        Dn1 
	.byte	W06
	.byte		        Cn1 
	.byte	W06
	.byte		        Dn1 
	.byte		N05   , As1 
	.byte	W06
	.byte		        Cn1 
	.byte	W06
	.byte		        Dn1 
	.byte	W06
	.byte		        Cn1 
	.byte	W06
	.byte		        Dn1 
	.byte		N05   , As1 
	.byte	W06
	.byte		        Cn1 
	.byte	W06
	.byte		        Dn1 
	.byte	W06
	.byte		        Cn1 
	.byte	W06
	.byte	PEND
@ 061   ----------------------------------------
	.byte		        Dn1 
	.byte		N05   , As1 
	.byte	W06
	.byte		        Cn1 
	.byte	W06
	.byte		        Dn1 
	.byte	W06
	.byte		        Cn1 
	.byte	W06
	.byte		        Dn1 
	.byte		N05   , As1 
	.byte	W06
	.byte		        Cn1 
	.byte	W06
	.byte		        Dn1 
	.byte	W06
	.byte		        Cn1 
	.byte	W06
	.byte		N44   
	.byte		N44   , Dn1 
	.byte		N44   , En2 
	.byte	W48
@ 062   ----------------------------------------
	.byte	W96
@ 063   ----------------------------------------
Red_Like_Roses_Part_II_8_063:
	.byte	W84
	.byte		N23   , Cn1 , v096
	.byte		N23   , Dn1 
	.byte		N23   , As1 
	.byte	W12
	.byte	PEND
@ 064   ----------------------------------------
Red_Like_Roses_Part_II_8_064:
	.byte	W12
	.byte		N11   , Cn1 , v096
	.byte	W12
	.byte		        Dn1 
	.byte		N11   , As1 
	.byte	W12
	.byte		        Cn1 
	.byte	W12
	.byte		N11   
	.byte	W12
	.byte		N11   
	.byte	W12
	.byte		        Dn1 
	.byte		N11   , As1 
	.byte	W12
	.byte		        Cn1 
	.byte	W12
	.byte	PEND
@ 065   ----------------------------------------
Red_Like_Roses_Part_II_8_065:
	.byte		N11   , Cn1 , v096
	.byte	W12
	.byte		N11   
	.byte	W12
	.byte		        Dn1 
	.byte		N11   , As1 
	.byte	W12
	.byte		        Cn1 
	.byte	W12
	.byte		N11   
	.byte	W12
	.byte		N11   
	.byte	W12
	.byte		        Dn1 
	.byte	W12
	.byte		N23   , Cn1 
	.byte		N23   , Dn1 
	.byte		N23   , As1 
	.byte	W12
	.byte	PEND
@ 066   ----------------------------------------
	.byte	PATT
	 .word	Red_Like_Roses_Part_II_8_064
@ 067   ----------------------------------------
Red_Like_Roses_Part_II_8_067:
	.byte		N11   , Cn1 , v096
	.byte	W12
	.byte		N11   
	.byte	W12
	.byte		        Dn1 
	.byte		N11   , As1 
	.byte	W12
	.byte		        Cn1 
	.byte	W12
	.byte		N11   
	.byte		N11   , As1 
	.byte	W12
	.byte		        Cn1 
	.byte	W12
	.byte		        Dn1 
	.byte		N11   , As1 
	.byte	W12
	.byte		N23   , Cn1 
	.byte		N23   , Dn1 
	.byte		N23   , As1 
	.byte	W12
	.byte	PEND
@ 068   ----------------------------------------
	.byte	PATT
	 .word	Red_Like_Roses_Part_II_8_064
@ 069   ----------------------------------------
	.byte	PATT
	 .word	Red_Like_Roses_Part_II_8_067
@ 070   ----------------------------------------
	.byte	PATT
	 .word	Red_Like_Roses_Part_II_8_064
@ 071   ----------------------------------------
Red_Like_Roses_Part_II_8_071:
	.byte		N11   , Cn1 , v096
	.byte		N11   , As1 
	.byte	W12
	.byte		        Cn1 
	.byte	W12
	.byte		        Dn1 
	.byte		N11   , As1 
	.byte	W12
	.byte		        Cn1 
	.byte	W12
	.byte		N11   
	.byte		N11   , As1 
	.byte	W12
	.byte		        Cn1 
	.byte	W12
	.byte		        Dn1 
	.byte	W12
	.byte		N23   , Cn1 
	.byte		N23   , Dn1 
	.byte		N23   , As1 
	.byte	W12
	.byte	PEND
@ 072   ----------------------------------------
	.byte	PATT
	 .word	Red_Like_Roses_Part_II_8_064
@ 073   ----------------------------------------
	.byte	PATT
	 .word	Red_Like_Roses_Part_II_8_065
@ 074   ----------------------------------------
	.byte	PATT
	 .word	Red_Like_Roses_Part_II_8_064
@ 075   ----------------------------------------
	.byte	PATT
	 .word	Red_Like_Roses_Part_II_8_067
@ 076   ----------------------------------------
	.byte	PATT
	 .word	Red_Like_Roses_Part_II_8_064
@ 077   ----------------------------------------
	.byte	PATT
	 .word	Red_Like_Roses_Part_II_8_067
@ 078   ----------------------------------------
	.byte	W12
	.byte		N11   , Cn1 , v096
	.byte	W12
	.byte		        Dn1 
	.byte		N11   , As1 
	.byte	W12
	.byte		        Cn1 
	.byte	W12
	.byte		N11   
	.byte		N11   , As1 
	.byte	W12
	.byte		        Cn1 
	.byte	W12
	.byte		        Dn1 
	.byte		N11   , As1 
	.byte	W24
@ 079   ----------------------------------------
	.byte		        Cn1 
	.byte		N11   , As1 
	.byte	W12
	.byte		        Cn1 
	.byte	W12
	.byte		        Dn1 
	.byte		N11   , As1 
	.byte	W12
	.byte		        Cn1 
	.byte	W12
	.byte		N11   
	.byte		N11   , As1 
	.byte	W12
	.byte		        Cn1 
	.byte	W12
	.byte		        Dn1 
	.byte		N11   , As1 
	.byte	W12
	.byte		N32   , Cn1 
	.byte		N32   , Dn1 
	.byte		N32   , As1 
	.byte	W12
@ 080   ----------------------------------------
	.byte	W96
@ 081   ----------------------------------------
	.byte	PATT
	 .word	Red_Like_Roses_Part_II_8_007
@ 082   ----------------------------------------
	.byte	W96
@ 083   ----------------------------------------
	.byte	PATT
	 .word	Red_Like_Roses_Part_II_8_007
@ 084   ----------------------------------------
	.byte	W96
@ 085   ----------------------------------------
	.byte	PATT
	 .word	Red_Like_Roses_Part_II_8_007
@ 086   ----------------------------------------
	.byte	PATT
	 .word	Red_Like_Roses_Part_II_8_007
@ 087   ----------------------------------------
	.byte	PATT
	 .word	Red_Like_Roses_Part_II_8_015
@ 088   ----------------------------------------
	.byte	W96
@ 089   ----------------------------------------
	.byte	PATT
	 .word	Red_Like_Roses_Part_II_8_007
@ 090   ----------------------------------------
	.byte	W96
@ 091   ----------------------------------------
	.byte	PATT
	 .word	Red_Like_Roses_Part_II_8_007
@ 092   ----------------------------------------
	.byte	W96
@ 093   ----------------------------------------
	.byte	PATT
	 .word	Red_Like_Roses_Part_II_8_007
@ 094   ----------------------------------------
	.byte	PATT
	 .word	Red_Like_Roses_Part_II_8_007
@ 095   ----------------------------------------
	.byte	PATT
	 .word	Red_Like_Roses_Part_II_8_023
@ 096   ----------------------------------------
	.byte	PATT
	 .word	Red_Like_Roses_Part_II_8_024
@ 097   ----------------------------------------
	.byte	PATT
	 .word	Red_Like_Roses_Part_II_8_025
@ 098   ----------------------------------------
	.byte	PATT
	 .word	Red_Like_Roses_Part_II_8_024
@ 099   ----------------------------------------
	.byte	PATT
	 .word	Red_Like_Roses_Part_II_8_025
@ 100   ----------------------------------------
	.byte	PATT
	 .word	Red_Like_Roses_Part_II_8_032
@ 101   ----------------------------------------
	.byte	PATT
	 .word	Red_Like_Roses_Part_II_8_025
@ 102   ----------------------------------------
	.byte	PATT
	 .word	Red_Like_Roses_Part_II_8_030
@ 103   ----------------------------------------
	.byte	PATT
	 .word	Red_Like_Roses_Part_II_8_031
@ 104   ----------------------------------------
	.byte	PATT
	 .word	Red_Like_Roses_Part_II_8_032
@ 105   ----------------------------------------
	.byte	PATT
	 .word	Red_Like_Roses_Part_II_8_025
@ 106   ----------------------------------------
	.byte	PATT
	 .word	Red_Like_Roses_Part_II_8_032
@ 107   ----------------------------------------
	.byte	PATT
	 .word	Red_Like_Roses_Part_II_8_025
@ 108   ----------------------------------------
	.byte	PATT
	 .word	Red_Like_Roses_Part_II_8_032
@ 109   ----------------------------------------
	.byte	PATT
	 .word	Red_Like_Roses_Part_II_8_033
@ 110   ----------------------------------------
	.byte	PATT
	 .word	Red_Like_Roses_Part_II_8_038
@ 111   ----------------------------------------
	.byte	PATT
	 .word	Red_Like_Roses_Part_II_8_039
@ 112   ----------------------------------------
	.byte	PATT
	 .word	Red_Like_Roses_Part_II_8_040
@ 113   ----------------------------------------
	.byte	PATT
	 .word	Red_Like_Roses_Part_II_8_041
@ 114   ----------------------------------------
	.byte	PATT
	 .word	Red_Like_Roses_Part_II_8_042
@ 115   ----------------------------------------
	.byte	PATT
	 .word	Red_Like_Roses_Part_II_8_041
@ 116   ----------------------------------------
	.byte	PATT
	 .word	Red_Like_Roses_Part_II_8_044
@ 117   ----------------------------------------
	.byte	PATT
	 .word	Red_Like_Roses_Part_II_8_045
@ 118   ----------------------------------------
	.byte	PATT
	 .word	Red_Like_Roses_Part_II_8_046
@ 119   ----------------------------------------
	.byte	PATT
	 .word	Red_Like_Roses_Part_II_8_047
@ 120   ----------------------------------------
	.byte	PATT
	 .word	Red_Like_Roses_Part_II_8_044
@ 121   ----------------------------------------
	.byte	PATT
	 .word	Red_Like_Roses_Part_II_8_041
@ 122   ----------------------------------------
	.byte	PATT
	 .word	Red_Like_Roses_Part_II_8_050
@ 123   ----------------------------------------
	.byte	PATT
	 .word	Red_Like_Roses_Part_II_8_051
@ 124   ----------------------------------------
	.byte	PATT
	 .word	Red_Like_Roses_Part_II_8_044
@ 125   ----------------------------------------
	.byte	PATT
	 .word	Red_Like_Roses_Part_II_8_051
@ 126   ----------------------------------------
	.byte	PATT
	 .word	Red_Like_Roses_Part_II_8_044
@ 127   ----------------------------------------
	.byte	PATT
	 .word	Red_Like_Roses_Part_II_8_055
@ 128   ----------------------------------------
	.byte	PATT
	 .word	Red_Like_Roses_Part_II_8_050
@ 129   ----------------------------------------
	.byte	PATT
	 .word	Red_Like_Roses_Part_II_8_041
@ 130   ----------------------------------------
	.byte	PATT
	 .word	Red_Like_Roses_Part_II_8_050
@ 131   ----------------------------------------
	.byte	PATT
	 .word	Red_Like_Roses_Part_II_8_059
@ 132   ----------------------------------------
	.byte	PATT
	 .word	Red_Like_Roses_Part_II_8_060
@ 133   ----------------------------------------
	.byte		N05   , Dn1 , v096
	.byte		N05   , As1 
	.byte	W06
	.byte		        Cn1 
	.byte	W06
	.byte		        Dn1 
	.byte	W06
	.byte		        Cn1 
	.byte	W06
	.byte		        Dn1 
	.byte		N05   , As1 
	.byte	W06
	.byte		        Cn1 
	.byte	W06
	.byte		        Dn1 
	.byte	W06
	.byte		        Cn1 
	.byte	W06
	.byte		N44   
	.byte		N44   , Dn1 
	.byte		N44   , As1 
	.byte	W48
@ 134   ----------------------------------------
	.byte	W96
@ 135   ----------------------------------------
	.byte	PATT
	 .word	Red_Like_Roses_Part_II_8_063
@ 136   ----------------------------------------
	.byte	PATT
	 .word	Red_Like_Roses_Part_II_8_064
@ 137   ----------------------------------------
	.byte	PATT
	 .word	Red_Like_Roses_Part_II_8_065
@ 138   ----------------------------------------
	.byte	PATT
	 .word	Red_Like_Roses_Part_II_8_064
@ 139   ----------------------------------------
	.byte	PATT
	 .word	Red_Like_Roses_Part_II_8_067
@ 140   ----------------------------------------
	.byte	PATT
	 .word	Red_Like_Roses_Part_II_8_064
@ 141   ----------------------------------------
	.byte	PATT
	 .word	Red_Like_Roses_Part_II_8_067
@ 142   ----------------------------------------
	.byte	PATT
	 .word	Red_Like_Roses_Part_II_8_064
@ 143   ----------------------------------------
	.byte	PATT
	 .word	Red_Like_Roses_Part_II_8_071
@ 144   ----------------------------------------
	.byte	PATT
	 .word	Red_Like_Roses_Part_II_8_064
@ 145   ----------------------------------------
	.byte	PATT
	 .word	Red_Like_Roses_Part_II_8_065
@ 146   ----------------------------------------
	.byte	PATT
	 .word	Red_Like_Roses_Part_II_8_064
@ 147   ----------------------------------------
	.byte	PATT
	 .word	Red_Like_Roses_Part_II_8_067
@ 148   ----------------------------------------
	.byte	PATT
	 .word	Red_Like_Roses_Part_II_8_064
@ 149   ----------------------------------------
	.byte	PATT
	 .word	Red_Like_Roses_Part_II_8_067
@ 150   ----------------------------------------
	.byte	PATT
	 .word	Red_Like_Roses_Part_II_8_064
@ 151   ----------------------------------------
	.byte		N11   , Cn1 , v096
	.byte		N11   , As1 
	.byte	W12
	.byte		        Cn1 
	.byte	W12
	.byte		        Dn1 
	.byte		N11   , As1 
	.byte	W12
	.byte		        Cn1 
	.byte	W12
	.byte		N11   
	.byte		N11   , As1 
	.byte	W12
	.byte		        Cn1 
	.byte	W12
	.byte		        Dn1 
	.byte	W12
	.byte		N56   , Cn1 
	.byte		N56   , Dn1 
	.byte		N56   , As1 
	.byte	W12
@ 152   ----------------------------------------
	.byte	W68
	.byte	W03
	.byte	GOTO
	 .word	Red_Like_Roses_Part_II_8_B1
Red_Like_Roses_Part_II_8_B2:
	.byte	FINE

@**************** Track 9 (Midi-Chn.13) ****************@

Red_Like_Roses_Part_II_9:
	.byte	KEYSH , Red_Like_Roses_Part_II_key+0
Red_Like_Roses_Part_II_9_B1:
@ 000   ----------------------------------------
	.byte		VOICE , 51
	.byte		VOL   , 127*Red_Like_Roses_Part_II_mvl/mxv
	.byte		PAN   , c_v+0
	.byte		N11   , Bn1 , v080
	.byte	W12
	.byte		N11   
	.byte	W12
	.byte		N11   
	.byte	W12
	.byte		N11   
	.byte	W12
	.byte		N11   
	.byte	W12
	.byte		N11   
	.byte	W12
	.byte		N11   
	.byte	W12
	.byte		        Bn1 , v112
	.byte	W12
@ 001   ----------------------------------------
Red_Like_Roses_Part_II_9_001:
	.byte		N11   , Bn1 , v080
	.byte	W12
	.byte		N11   
	.byte	W12
	.byte		N11   
	.byte	W12
	.byte		N11   
	.byte	W12
	.byte		N11   
	.byte	W12
	.byte		N11   
	.byte	W12
	.byte		N11   
	.byte	W12
	.byte		N11   
	.byte	W12
	.byte	PEND
@ 002   ----------------------------------------
	.byte	PATT
	 .word	Red_Like_Roses_Part_II_9_001
@ 003   ----------------------------------------
	.byte	PATT
	 .word	Red_Like_Roses_Part_II_9_001
@ 004   ----------------------------------------
	.byte	PATT
	 .word	Red_Like_Roses_Part_II_9_001
@ 005   ----------------------------------------
	.byte	PATT
	 .word	Red_Like_Roses_Part_II_9_001
@ 006   ----------------------------------------
	.byte	PATT
	 .word	Red_Like_Roses_Part_II_9_001
@ 007   ----------------------------------------
	.byte	PATT
	 .word	Red_Like_Roses_Part_II_9_001
@ 008   ----------------------------------------
	.byte	W96
@ 009   ----------------------------------------
	.byte	W96
@ 010   ----------------------------------------
	.byte	W96
@ 011   ----------------------------------------
	.byte	W96
@ 012   ----------------------------------------
	.byte	W96
@ 013   ----------------------------------------
	.byte	W96
@ 014   ----------------------------------------
	.byte	W96
@ 015   ----------------------------------------
	.byte	W96
@ 016   ----------------------------------------
	.byte	W96
@ 017   ----------------------------------------
	.byte	W96
@ 018   ----------------------------------------
	.byte	W96
@ 019   ----------------------------------------
	.byte	W96
@ 020   ----------------------------------------
	.byte	W96
@ 021   ----------------------------------------
	.byte	W96
@ 022   ----------------------------------------
	.byte	W96
@ 023   ----------------------------------------
	.byte	W96
@ 024   ----------------------------------------
	.byte	W96
@ 025   ----------------------------------------
	.byte	W96
@ 026   ----------------------------------------
	.byte	W96
@ 027   ----------------------------------------
	.byte	W96
@ 028   ----------------------------------------
	.byte	W96
@ 029   ----------------------------------------
	.byte	W96
@ 030   ----------------------------------------
	.byte	W96
@ 031   ----------------------------------------
	.byte	W96
@ 032   ----------------------------------------
	.byte	W96
@ 033   ----------------------------------------
	.byte	W96
@ 034   ----------------------------------------
	.byte	W96
@ 035   ----------------------------------------
	.byte	W96
@ 036   ----------------------------------------
	.byte	W96
@ 037   ----------------------------------------
	.byte	W96
@ 038   ----------------------------------------
	.byte	W96
@ 039   ----------------------------------------
	.byte	W96
@ 040   ----------------------------------------
	.byte	W96
@ 041   ----------------------------------------
	.byte	W96
@ 042   ----------------------------------------
	.byte	W96
@ 043   ----------------------------------------
	.byte	W96
@ 044   ----------------------------------------
	.byte	W96
@ 045   ----------------------------------------
	.byte	W96
@ 046   ----------------------------------------
	.byte	W96
@ 047   ----------------------------------------
	.byte	W96
@ 048   ----------------------------------------
	.byte	W96
@ 049   ----------------------------------------
	.byte	W96
@ 050   ----------------------------------------
	.byte	W96
@ 051   ----------------------------------------
	.byte	W96
@ 052   ----------------------------------------
	.byte	W96
@ 053   ----------------------------------------
	.byte	W96
@ 054   ----------------------------------------
	.byte	W96
@ 055   ----------------------------------------
	.byte	W96
@ 056   ----------------------------------------
	.byte	W96
@ 057   ----------------------------------------
	.byte	W96
@ 058   ----------------------------------------
	.byte	W96
@ 059   ----------------------------------------
	.byte	W96
@ 060   ----------------------------------------
	.byte	W96
@ 061   ----------------------------------------
	.byte	W96
@ 062   ----------------------------------------
	.byte	W96
@ 063   ----------------------------------------
	.byte	W96
@ 064   ----------------------------------------
	.byte	W96
@ 065   ----------------------------------------
	.byte	W96
@ 066   ----------------------------------------
	.byte	W96
@ 067   ----------------------------------------
	.byte	W96
@ 068   ----------------------------------------
	.byte	W96
@ 069   ----------------------------------------
	.byte	W96
@ 070   ----------------------------------------
	.byte	W96
@ 071   ----------------------------------------
	.byte	W96
@ 072   ----------------------------------------
	.byte	W96
@ 073   ----------------------------------------
	.byte	W96
@ 074   ----------------------------------------
	.byte	W96
@ 075   ----------------------------------------
	.byte	W96
@ 076   ----------------------------------------
	.byte	W96
@ 077   ----------------------------------------
	.byte	W96
@ 078   ----------------------------------------
	.byte	W96
@ 079   ----------------------------------------
	.byte	W96
@ 080   ----------------------------------------
	.byte	W96
@ 081   ----------------------------------------
	.byte	W96
@ 082   ----------------------------------------
	.byte	W96
@ 083   ----------------------------------------
	.byte	W96
@ 084   ----------------------------------------
	.byte	W96
@ 085   ----------------------------------------
	.byte	W96
@ 086   ----------------------------------------
	.byte	W96
@ 087   ----------------------------------------
	.byte	W96
@ 088   ----------------------------------------
	.byte	W96
@ 089   ----------------------------------------
	.byte	W96
@ 090   ----------------------------------------
	.byte	W96
@ 091   ----------------------------------------
	.byte	W96
@ 092   ----------------------------------------
	.byte	W96
@ 093   ----------------------------------------
	.byte	W96
@ 094   ----------------------------------------
	.byte	W96
@ 095   ----------------------------------------
	.byte	W96
@ 096   ----------------------------------------
	.byte	W96
@ 097   ----------------------------------------
	.byte	W96
@ 098   ----------------------------------------
	.byte	W96
@ 099   ----------------------------------------
	.byte	W96
@ 100   ----------------------------------------
	.byte	W96
@ 101   ----------------------------------------
	.byte	W96
@ 102   ----------------------------------------
	.byte	W96
@ 103   ----------------------------------------
	.byte	W96
@ 104   ----------------------------------------
	.byte	W96
@ 105   ----------------------------------------
	.byte	W96
@ 106   ----------------------------------------
	.byte	W96
@ 107   ----------------------------------------
	.byte	W96
@ 108   ----------------------------------------
	.byte	W96
@ 109   ----------------------------------------
	.byte	W96
@ 110   ----------------------------------------
	.byte	W96
@ 111   ----------------------------------------
	.byte	W96
@ 112   ----------------------------------------
	.byte	W96
@ 113   ----------------------------------------
	.byte	W96
@ 114   ----------------------------------------
	.byte	W96
@ 115   ----------------------------------------
	.byte	W96
@ 116   ----------------------------------------
	.byte	W96
@ 117   ----------------------------------------
	.byte	W96
@ 118   ----------------------------------------
	.byte	W96
@ 119   ----------------------------------------
	.byte	W96
@ 120   ----------------------------------------
	.byte	W96
@ 121   ----------------------------------------
	.byte	W96
@ 122   ----------------------------------------
	.byte	W96
@ 123   ----------------------------------------
	.byte	W96
@ 124   ----------------------------------------
	.byte	W96
@ 125   ----------------------------------------
	.byte	W96
@ 126   ----------------------------------------
	.byte	W96
@ 127   ----------------------------------------
	.byte	W96
@ 128   ----------------------------------------
	.byte	W96
@ 129   ----------------------------------------
	.byte	W96
@ 130   ----------------------------------------
	.byte	W96
@ 131   ----------------------------------------
	.byte	W96
@ 132   ----------------------------------------
	.byte	W96
@ 133   ----------------------------------------
	.byte	W96
@ 134   ----------------------------------------
	.byte	W96
@ 135   ----------------------------------------
	.byte	W96
@ 136   ----------------------------------------
	.byte	W96
@ 137   ----------------------------------------
	.byte	W96
@ 138   ----------------------------------------
	.byte	W96
@ 139   ----------------------------------------
	.byte	W96
@ 140   ----------------------------------------
	.byte	W96
@ 141   ----------------------------------------
	.byte	W96
@ 142   ----------------------------------------
	.byte	W96
@ 143   ----------------------------------------
	.byte	W96
@ 144   ----------------------------------------
	.byte	W96
@ 145   ----------------------------------------
	.byte	W96
@ 146   ----------------------------------------
	.byte	W96
@ 147   ----------------------------------------
	.byte	W96
@ 148   ----------------------------------------
	.byte	W96
@ 149   ----------------------------------------
	.byte	W96
@ 150   ----------------------------------------
	.byte	W96
@ 151   ----------------------------------------
	.byte	W96
@ 152   ----------------------------------------
	.byte	W68
	.byte	W03
	.byte	GOTO
	 .word	Red_Like_Roses_Part_II_9_B1
Red_Like_Roses_Part_II_9_B2:
	.byte	FINE

@**************** Track 10 (Midi-Chn.16) ****************@

Red_Like_Roses_Part_II_10:
	.byte	KEYSH , Red_Like_Roses_Part_II_key+0
Red_Like_Roses_Part_II_10_B1:
@ 000   ----------------------------------------
	.byte		VOICE , 51
	.byte		VOL   , 127*Red_Like_Roses_Part_II_mvl/mxv
	.byte		PAN   , c_v+0
	.byte		TIE   , Bn0 , v080
	.byte	W96
@ 001   ----------------------------------------
	.byte	W96
@ 002   ----------------------------------------
	.byte	W96
@ 003   ----------------------------------------
	.byte	W96
@ 004   ----------------------------------------
	.byte	W96
@ 005   ----------------------------------------
	.byte	W96
@ 006   ----------------------------------------
	.byte	W96
@ 007   ----------------------------------------
	.byte	W92
	.byte	W03
	.byte		EOT   
	.byte	W01
@ 008   ----------------------------------------
	.byte	W96
@ 009   ----------------------------------------
	.byte	W96
@ 010   ----------------------------------------
	.byte	W96
@ 011   ----------------------------------------
	.byte	W96
@ 012   ----------------------------------------
	.byte	W96
@ 013   ----------------------------------------
	.byte	W96
@ 014   ----------------------------------------
	.byte	W96
@ 015   ----------------------------------------
	.byte	W96
@ 016   ----------------------------------------
	.byte	W96
@ 017   ----------------------------------------
	.byte	W96
@ 018   ----------------------------------------
	.byte	W96
@ 019   ----------------------------------------
	.byte	W96
@ 020   ----------------------------------------
	.byte	W96
@ 021   ----------------------------------------
	.byte	W96
@ 022   ----------------------------------------
	.byte	W96
@ 023   ----------------------------------------
	.byte	W96
@ 024   ----------------------------------------
	.byte	W96
@ 025   ----------------------------------------
	.byte	W96
@ 026   ----------------------------------------
	.byte	W96
@ 027   ----------------------------------------
	.byte	W96
@ 028   ----------------------------------------
	.byte	W96
@ 029   ----------------------------------------
	.byte	W96
@ 030   ----------------------------------------
	.byte	W96
@ 031   ----------------------------------------
	.byte	W96
@ 032   ----------------------------------------
	.byte	W96
@ 033   ----------------------------------------
	.byte	W96
@ 034   ----------------------------------------
	.byte	W96
@ 035   ----------------------------------------
	.byte	W96
@ 036   ----------------------------------------
	.byte	W96
@ 037   ----------------------------------------
	.byte	W96
@ 038   ----------------------------------------
	.byte	W96
@ 039   ----------------------------------------
	.byte	W96
@ 040   ----------------------------------------
	.byte	W96
@ 041   ----------------------------------------
	.byte	W96
@ 042   ----------------------------------------
	.byte	W96
@ 043   ----------------------------------------
	.byte	W96
@ 044   ----------------------------------------
	.byte	W96
@ 045   ----------------------------------------
	.byte	W96
@ 046   ----------------------------------------
	.byte	W96
@ 047   ----------------------------------------
	.byte	W96
@ 048   ----------------------------------------
	.byte	W96
@ 049   ----------------------------------------
	.byte	W96
@ 050   ----------------------------------------
	.byte	W96
@ 051   ----------------------------------------
	.byte	W96
@ 052   ----------------------------------------
	.byte	W96
@ 053   ----------------------------------------
	.byte	W96
@ 054   ----------------------------------------
	.byte	W96
@ 055   ----------------------------------------
	.byte	W96
@ 056   ----------------------------------------
	.byte	W96
@ 057   ----------------------------------------
	.byte	W96
@ 058   ----------------------------------------
	.byte	W96
@ 059   ----------------------------------------
	.byte	W96
@ 060   ----------------------------------------
	.byte	W96
@ 061   ----------------------------------------
	.byte	W96
@ 062   ----------------------------------------
	.byte	W96
@ 063   ----------------------------------------
	.byte	W96
@ 064   ----------------------------------------
	.byte	W96
@ 065   ----------------------------------------
	.byte	W96
@ 066   ----------------------------------------
	.byte	W96
@ 067   ----------------------------------------
	.byte	W96
@ 068   ----------------------------------------
	.byte	W96
@ 069   ----------------------------------------
	.byte	W96
@ 070   ----------------------------------------
	.byte	W96
@ 071   ----------------------------------------
	.byte	W96
@ 072   ----------------------------------------
	.byte	W96
@ 073   ----------------------------------------
	.byte	W96
@ 074   ----------------------------------------
	.byte	W96
@ 075   ----------------------------------------
	.byte	W96
@ 076   ----------------------------------------
	.byte	W96
@ 077   ----------------------------------------
	.byte	W96
@ 078   ----------------------------------------
	.byte	W96
@ 079   ----------------------------------------
	.byte	W96
@ 080   ----------------------------------------
	.byte	W96
@ 081   ----------------------------------------
	.byte	W96
@ 082   ----------------------------------------
	.byte	W96
@ 083   ----------------------------------------
	.byte	W96
@ 084   ----------------------------------------
	.byte	W96
@ 085   ----------------------------------------
	.byte	W96
@ 086   ----------------------------------------
	.byte	W96
@ 087   ----------------------------------------
	.byte	W96
@ 088   ----------------------------------------
	.byte	W96
@ 089   ----------------------------------------
	.byte	W96
@ 090   ----------------------------------------
	.byte	W96
@ 091   ----------------------------------------
	.byte	W96
@ 092   ----------------------------------------
	.byte	W96
@ 093   ----------------------------------------
	.byte	W96
@ 094   ----------------------------------------
	.byte	W96
@ 095   ----------------------------------------
	.byte	W96
@ 096   ----------------------------------------
	.byte	W96
@ 097   ----------------------------------------
	.byte	W96
@ 098   ----------------------------------------
	.byte	W96
@ 099   ----------------------------------------
	.byte	W96
@ 100   ----------------------------------------
	.byte	W96
@ 101   ----------------------------------------
	.byte	W96
@ 102   ----------------------------------------
	.byte	W96
@ 103   ----------------------------------------
	.byte	W96
@ 104   ----------------------------------------
	.byte	W96
@ 105   ----------------------------------------
	.byte	W96
@ 106   ----------------------------------------
	.byte	W96
@ 107   ----------------------------------------
	.byte	W96
@ 108   ----------------------------------------
	.byte	W96
@ 109   ----------------------------------------
	.byte	W96
@ 110   ----------------------------------------
	.byte	W96
@ 111   ----------------------------------------
	.byte	W96
@ 112   ----------------------------------------
	.byte	W96
@ 113   ----------------------------------------
	.byte	W96
@ 114   ----------------------------------------
	.byte	W96
@ 115   ----------------------------------------
	.byte	W96
@ 116   ----------------------------------------
	.byte	W96
@ 117   ----------------------------------------
	.byte	W96
@ 118   ----------------------------------------
	.byte	W96
@ 119   ----------------------------------------
	.byte	W96
@ 120   ----------------------------------------
	.byte	W96
@ 121   ----------------------------------------
	.byte	W96
@ 122   ----------------------------------------
	.byte	W96
@ 123   ----------------------------------------
	.byte	W96
@ 124   ----------------------------------------
	.byte	W96
@ 125   ----------------------------------------
	.byte	W96
@ 126   ----------------------------------------
	.byte	W96
@ 127   ----------------------------------------
	.byte	W96
@ 128   ----------------------------------------
	.byte	W96
@ 129   ----------------------------------------
	.byte	W96
@ 130   ----------------------------------------
	.byte	W96
@ 131   ----------------------------------------
	.byte	W96
@ 132   ----------------------------------------
	.byte	W96
@ 133   ----------------------------------------
	.byte	W96
@ 134   ----------------------------------------
	.byte	W96
@ 135   ----------------------------------------
	.byte	W96
@ 136   ----------------------------------------
	.byte	W96
@ 137   ----------------------------------------
	.byte	W96
@ 138   ----------------------------------------
	.byte	W96
@ 139   ----------------------------------------
	.byte	W96
@ 140   ----------------------------------------
	.byte	W96
@ 141   ----------------------------------------
	.byte	W96
@ 142   ----------------------------------------
	.byte	W96
@ 143   ----------------------------------------
	.byte	W96
@ 144   ----------------------------------------
	.byte	W96
@ 145   ----------------------------------------
	.byte	W96
@ 146   ----------------------------------------
	.byte	W96
@ 147   ----------------------------------------
	.byte	W96
@ 148   ----------------------------------------
	.byte	W96
@ 149   ----------------------------------------
	.byte	W96
@ 150   ----------------------------------------
	.byte	W96
@ 151   ----------------------------------------
	.byte	W96
@ 152   ----------------------------------------
	.byte	W68
	.byte	W03
	.byte	GOTO
	 .word	Red_Like_Roses_Part_II_10_B1
Red_Like_Roses_Part_II_10_B2:
	.byte	FINE

@******************************************************@
	.align	2

Red_Like_Roses_Part_II:
	.byte	10	@ NumTrks
	.byte	0	@ NumBlks
	.byte	Red_Like_Roses_Part_II_pri	@ Priority
	.byte	Red_Like_Roses_Part_II_rev	@ Reverb.

	.word	Red_Like_Roses_Part_II_grp

	.word	Red_Like_Roses_Part_II_1
	.word	Red_Like_Roses_Part_II_2
	.word	Red_Like_Roses_Part_II_3
	.word	Red_Like_Roses_Part_II_4
	.word	Red_Like_Roses_Part_II_5
	.word	Red_Like_Roses_Part_II_6
	.word	Red_Like_Roses_Part_II_7
	.word	Red_Like_Roses_Part_II_8
	.word	Red_Like_Roses_Part_II_9
	.word	Red_Like_Roses_Part_II_10

	.end
