	.include "MPlayDef.s"

	.equ	darkwastes4_grp, voicegroup000
	.equ	darkwastes4_pri, 0
	.equ	darkwastes4_rev, 0
	.equ	darkwastes4_mvl, 127
	.equ	darkwastes4_key, 0
	.equ	darkwastes4_tbs, 1
	.equ	darkwastes4_exg, 0
	.equ	darkwastes4_cmp, 1

	.section .rodata
	.global	darkwastes4
	.align	2

@**************** Track 1 (Midi-Chn.1) ****************@

darkwastes4_1:
	.byte	KEYSH , darkwastes4_key+0
darkwastes4_1_B1:
@ 000   ----------------------------------------
	.byte	TEMPO , 156*darkwastes4_tbs/2
	.byte		VOICE , 15
	.byte		VOL   , 50*darkwastes4_mvl/mxv
	.byte		PAN   , c_v+0
	.byte		        c_v+0
	.byte		        c_v+0
	.byte		        c_v+0
	.byte		BEND  , c_v+0
	.byte		N11   , An4 , v100
	.byte	W12
	.byte		        En4 
	.byte	W12
	.byte		        Gn4 
	.byte	W12
	.byte		        Dn4 
	.byte	W12
	.byte		        An4 
	.byte	W12
	.byte		        En4 
	.byte	W12
	.byte		        Gn4 
	.byte	W12
	.byte		        Dn4 
	.byte	W12
@ 001   ----------------------------------------
darkwastes4_1_001:
	.byte		N11   , An4 , v100
	.byte	W12
	.byte		        En4 
	.byte	W12
	.byte		        Gn4 
	.byte	W12
	.byte		        Dn4 
	.byte	W12
	.byte		        An4 
	.byte	W12
	.byte		        En4 
	.byte	W12
	.byte		        Gn4 
	.byte	W12
	.byte		        Dn4 
	.byte	W12
	.byte	PEND
@ 002   ----------------------------------------
	.byte	PATT
	 .word	darkwastes4_1_001
@ 003   ----------------------------------------
	.byte	PATT
	 .word	darkwastes4_1_001
@ 004   ----------------------------------------
	.byte	PATT
	 .word	darkwastes4_1_001
@ 005   ----------------------------------------
	.byte	PATT
	 .word	darkwastes4_1_001
@ 006   ----------------------------------------
	.byte	PATT
	 .word	darkwastes4_1_001
@ 007   ----------------------------------------
	.byte	PATT
	 .word	darkwastes4_1_001
@ 008   ----------------------------------------
	.byte	PATT
	 .word	darkwastes4_1_001
@ 009   ----------------------------------------
	.byte	W96
@ 010   ----------------------------------------
	.byte	W96
@ 011   ----------------------------------------
	.byte	W96
@ 012   ----------------------------------------
	.byte	W96
@ 013   ----------------------------------------
	.byte	W96
@ 014   ----------------------------------------
	.byte	W96
@ 015   ----------------------------------------
	.byte	PATT
	 .word	darkwastes4_1_001
@ 016   ----------------------------------------
	.byte	PATT
	 .word	darkwastes4_1_001
@ 017   ----------------------------------------
	.byte	PATT
	 .word	darkwastes4_1_001
@ 018   ----------------------------------------
	.byte	PATT
	 .word	darkwastes4_1_001
@ 019   ----------------------------------------
	.byte	PATT
	 .word	darkwastes4_1_001
@ 020   ----------------------------------------
	.byte	PATT
	 .word	darkwastes4_1_001
@ 021   ----------------------------------------
	.byte	W96
@ 022   ----------------------------------------
	.byte	W96
@ 023   ----------------------------------------
	.byte	W96
@ 024   ----------------------------------------
	.byte	W96
@ 025   ----------------------------------------
	.byte	W96
@ 026   ----------------------------------------
	.byte	W96
@ 027   ----------------------------------------
	.byte	W96
@ 028   ----------------------------------------
	.byte	W96
@ 029   ----------------------------------------
	.byte	W96
@ 030   ----------------------------------------
	.byte	W96
@ 031   ----------------------------------------
	.byte	W96
@ 032   ----------------------------------------
	.byte	W96
@ 033   ----------------------------------------
	.byte	W96
@ 034   ----------------------------------------
	.byte	W96
@ 035   ----------------------------------------
	.byte	W96
@ 036   ----------------------------------------
	.byte	W96
@ 037   ----------------------------------------
	.byte	W96
@ 038   ----------------------------------------
	.byte	W96
@ 039   ----------------------------------------
	.byte	W96
@ 040   ----------------------------------------
	.byte	W96
@ 041   ----------------------------------------
	.byte	W96
@ 042   ----------------------------------------
	.byte	W96
@ 043   ----------------------------------------
	.byte	W96
@ 044   ----------------------------------------
	.byte	W96
@ 045   ----------------------------------------
	.byte	W96
@ 046   ----------------------------------------
	.byte	W96
@ 047   ----------------------------------------
	.byte	W96
@ 048   ----------------------------------------
	.byte	W96
@ 049   ----------------------------------------
	.byte	W96
@ 050   ----------------------------------------
	.byte	W96
@ 051   ----------------------------------------
	.byte	W96
@ 052   ----------------------------------------
	.byte	W48
	.byte		N12   , En3 , v064
	.byte	W12
	.byte		        An3 
	.byte	W12
	.byte		        Fn3 
	.byte	W12
	.byte		        Cn4 
	.byte	W12
@ 053   ----------------------------------------
	.byte		        An3 
	.byte	W12
	.byte		        En4 
	.byte	W12
	.byte		        En3 
	.byte	W12
	.byte		        An3 
	.byte	W12
	.byte		        Fn3 
	.byte	W12
	.byte		        Cn4 
	.byte	W12
	.byte		        An3 
	.byte	W12
	.byte		        En4 
	.byte	W12
@ 054   ----------------------------------------
	.byte		        En3 
	.byte	W12
	.byte		        An3 
	.byte	W12
	.byte		        Fn3 
	.byte	W12
	.byte		        Cn4 
	.byte	W12
	.byte		        An3 
	.byte	W12
	.byte		        En4 
	.byte	W12
	.byte		        En3 
	.byte	W12
	.byte		        An3 
	.byte	W12
@ 055   ----------------------------------------
	.byte		        Fn3 
	.byte	W12
	.byte		        Cn4 
	.byte	W12
	.byte		        An3 
	.byte	W12
	.byte		        En4 
	.byte	W12
	.byte		        En3 
	.byte	W12
	.byte		        Bn3 
	.byte	W12
	.byte		        Gn3 
	.byte	W12
	.byte		        Dn4 
	.byte	W12
@ 056   ----------------------------------------
	.byte		        Bn3 
	.byte	W12
	.byte		        En4 
	.byte	W12
	.byte		        En3 
	.byte	W12
	.byte		        Bn3 
	.byte	W12
	.byte		        Gn3 
	.byte	W12
	.byte		        Dn4 
	.byte	W12
	.byte		        Bn3 
	.byte	W12
	.byte		        En4 
	.byte	W12
@ 057   ----------------------------------------
	.byte		        En3 
	.byte	W12
	.byte		        Bn3 
	.byte	W12
	.byte		        Gn3 
	.byte	W12
	.byte		        Dn4 
	.byte	W12
	.byte		        Bn3 
	.byte	W12
	.byte		        En4 
	.byte	W12
	.byte		        En3 
	.byte	W12
	.byte		        Bn3 
	.byte	W12
@ 058   ----------------------------------------
	.byte		        Gn3 
	.byte	W12
	.byte		        Dn4 
	.byte	W12
	.byte		        Bn3 
	.byte	W12
	.byte		        En4 
	.byte	W12
	.byte		        En3 , v080
	.byte	W12
	.byte		        An3 
	.byte	W12
	.byte		        Fn3 
	.byte	W12
	.byte		        Cn4 
	.byte	W12
@ 059   ----------------------------------------
darkwastes4_1_059:
	.byte		N12   , An3 , v080
	.byte	W12
	.byte		        En4 
	.byte	W12
	.byte		        En3 
	.byte	W12
	.byte		        An3 
	.byte	W12
	.byte		        Fn3 
	.byte	W12
	.byte		        Cn4 
	.byte	W12
	.byte		        An3 
	.byte	W12
	.byte		        En4 
	.byte	W12
	.byte	PEND
@ 060   ----------------------------------------
darkwastes4_1_060:
	.byte		N12   , En3 , v080
	.byte	W12
	.byte		        An3 
	.byte	W12
	.byte		        Fn3 
	.byte	W12
	.byte		        Cn4 
	.byte	W12
	.byte		        An3 
	.byte	W12
	.byte		        En4 
	.byte	W12
	.byte		        En3 
	.byte	W12
	.byte		        An3 
	.byte	W12
	.byte	PEND
@ 061   ----------------------------------------
darkwastes4_1_061:
	.byte		N12   , Fn3 , v080
	.byte	W12
	.byte		        Cn4 
	.byte	W12
	.byte		        An3 
	.byte	W12
	.byte		        En4 
	.byte	W12
	.byte		        En3 
	.byte	W12
	.byte		        Bn3 
	.byte	W12
	.byte		        Gn3 
	.byte	W12
	.byte		        Dn4 
	.byte	W12
	.byte	PEND
@ 062   ----------------------------------------
darkwastes4_1_062:
	.byte		N12   , Bn3 , v080
	.byte	W12
	.byte		        En4 
	.byte	W12
	.byte		        En3 
	.byte	W12
	.byte		        Bn3 
	.byte	W12
	.byte		        Gn3 
	.byte	W12
	.byte		        Dn4 
	.byte	W12
	.byte		        Bn3 
	.byte	W12
	.byte		        En4 
	.byte	W12
	.byte	PEND
@ 063   ----------------------------------------
darkwastes4_1_063:
	.byte		N12   , En3 , v080
	.byte	W12
	.byte		        Bn3 
	.byte	W12
	.byte		        Gn3 
	.byte	W12
	.byte		        Dn4 
	.byte	W12
	.byte		        Bn3 
	.byte	W12
	.byte		        En4 
	.byte	W12
	.byte		        En3 
	.byte	W12
	.byte		        Bn3 
	.byte	W12
	.byte	PEND
@ 064   ----------------------------------------
darkwastes4_1_064:
	.byte		N12   , Gn3 , v080
	.byte	W12
	.byte		        Dn4 
	.byte	W12
	.byte		        Bn3 
	.byte	W12
	.byte		        En4 
	.byte	W12
	.byte		        En3 
	.byte	W12
	.byte		        An3 
	.byte	W12
	.byte		        Fn3 
	.byte	W12
	.byte		        Cn4 
	.byte	W12
	.byte	PEND
@ 065   ----------------------------------------
	.byte	PATT
	 .word	darkwastes4_1_059
@ 066   ----------------------------------------
	.byte	PATT
	 .word	darkwastes4_1_060
@ 067   ----------------------------------------
	.byte	PATT
	 .word	darkwastes4_1_061
@ 068   ----------------------------------------
	.byte	PATT
	 .word	darkwastes4_1_062
@ 069   ----------------------------------------
	.byte	PATT
	 .word	darkwastes4_1_063
@ 070   ----------------------------------------
	.byte	PATT
	 .word	darkwastes4_1_064
@ 071   ----------------------------------------
	.byte	PATT
	 .word	darkwastes4_1_059
@ 072   ----------------------------------------
	.byte	PATT
	 .word	darkwastes4_1_060
@ 073   ----------------------------------------
	.byte		N12   , Fn3 , v080
	.byte	W12
	.byte		        Cn4 
	.byte	W12
	.byte		        An3 
	.byte	W12
	.byte		        En4 
	.byte	W60
@ 074   ----------------------------------------
	.byte	W96
@ 075   ----------------------------------------
	.byte	W96
@ 076   ----------------------------------------
	.byte	W96
@ 077   ----------------------------------------
	.byte	W96
@ 078   ----------------------------------------
	.byte	W96
@ 079   ----------------------------------------
	.byte	W96
@ 080   ----------------------------------------
	.byte	W96
@ 081   ----------------------------------------
	.byte	W96
@ 082   ----------------------------------------
	.byte	W96
@ 083   ----------------------------------------
	.byte	W96
@ 084   ----------------------------------------
	.byte	W96
@ 085   ----------------------------------------
	.byte	W96
@ 086   ----------------------------------------
	.byte	W96
@ 087   ----------------------------------------
	.byte	W96
@ 088   ----------------------------------------
	.byte	W96
@ 089   ----------------------------------------
	.byte	W96
@ 090   ----------------------------------------
	.byte	W96
@ 091   ----------------------------------------
	.byte	W48
	.byte	GOTO
	 .word	darkwastes4_1_B1
darkwastes4_1_B2:
	.byte		PAN   , c_v+0
	.byte		        c_v+0
	.byte		        c_v+0
	.byte		BEND  , c_v+0
	.byte	FINE

@**************** Track 2 (Midi-Chn.2) ****************@

darkwastes4_2:
	.byte	KEYSH , darkwastes4_key+0
darkwastes4_2_B1:
@ 000   ----------------------------------------
	.byte		VOICE , 15
	.byte		VOL   , 41*darkwastes4_mvl/mxv
	.byte		PAN   , c_v+0
	.byte		        c_v+0
	.byte		        c_v+0
	.byte		        c_v+0
	.byte		BEND  , c_v+0
	.byte		N11   , An3 , v100
	.byte	W12
	.byte		        Cn4 
	.byte	W12
	.byte		        Gn3 
	.byte	W12
	.byte		        An3 
	.byte	W12
	.byte		        Dn3 
	.byte	W12
	.byte		        Gn3 
	.byte	W12
	.byte		        An3 
	.byte	W12
	.byte		        Cn4 
	.byte	W12
@ 001   ----------------------------------------
darkwastes4_2_001:
	.byte		N11   , Gn3 , v100
	.byte	W12
	.byte		        An3 
	.byte	W12
	.byte		        Dn3 
	.byte	W12
	.byte		        Gn3 
	.byte	W12
	.byte		        An3 
	.byte	W12
	.byte		        Cn4 
	.byte	W12
	.byte		        Gn3 
	.byte	W12
	.byte		        An3 
	.byte	W12
	.byte	PEND
@ 002   ----------------------------------------
darkwastes4_2_002:
	.byte		N11   , Dn3 , v100
	.byte	W12
	.byte		        Gn3 
	.byte	W12
	.byte		        An3 
	.byte	W12
	.byte		        Cn4 
	.byte	W12
	.byte		        Gn3 
	.byte	W12
	.byte		        An3 
	.byte	W12
	.byte		        Dn3 
	.byte	W12
	.byte		        Gn3 
	.byte	W12
	.byte	PEND
@ 003   ----------------------------------------
darkwastes4_2_003:
	.byte		N11   , An3 , v100
	.byte	W12
	.byte		        Cn4 
	.byte	W12
	.byte		        Gn3 
	.byte	W12
	.byte		        An3 
	.byte	W12
	.byte		        Dn3 
	.byte	W12
	.byte		        Gn3 
	.byte	W12
	.byte		        An3 
	.byte	W12
	.byte		        Cn4 
	.byte	W12
	.byte	PEND
@ 004   ----------------------------------------
	.byte	PATT
	 .word	darkwastes4_2_001
@ 005   ----------------------------------------
	.byte	PATT
	 .word	darkwastes4_2_002
@ 006   ----------------------------------------
	.byte	PATT
	 .word	darkwastes4_2_003
@ 007   ----------------------------------------
	.byte	PATT
	 .word	darkwastes4_2_001
@ 008   ----------------------------------------
	.byte	PATT
	 .word	darkwastes4_2_002
@ 009   ----------------------------------------
	.byte	W96
@ 010   ----------------------------------------
	.byte	W96
@ 011   ----------------------------------------
	.byte	W96
@ 012   ----------------------------------------
	.byte	W96
@ 013   ----------------------------------------
	.byte	W96
@ 014   ----------------------------------------
	.byte	W96
@ 015   ----------------------------------------
	.byte	W96
@ 016   ----------------------------------------
	.byte	W96
@ 017   ----------------------------------------
	.byte	W96
@ 018   ----------------------------------------
	.byte	W96
@ 019   ----------------------------------------
	.byte	W96
@ 020   ----------------------------------------
	.byte	W96
@ 021   ----------------------------------------
	.byte	W96
@ 022   ----------------------------------------
	.byte	W96
@ 023   ----------------------------------------
	.byte	W96
@ 024   ----------------------------------------
	.byte	W96
@ 025   ----------------------------------------
	.byte	W96
@ 026   ----------------------------------------
	.byte	W96
@ 027   ----------------------------------------
	.byte	W96
@ 028   ----------------------------------------
	.byte	W96
@ 029   ----------------------------------------
	.byte	W96
@ 030   ----------------------------------------
	.byte	W96
@ 031   ----------------------------------------
	.byte	W96
@ 032   ----------------------------------------
	.byte	W96
@ 033   ----------------------------------------
	.byte	W96
@ 034   ----------------------------------------
	.byte	W96
@ 035   ----------------------------------------
	.byte	W96
@ 036   ----------------------------------------
	.byte	W96
@ 037   ----------------------------------------
	.byte	W96
@ 038   ----------------------------------------
	.byte	W96
@ 039   ----------------------------------------
	.byte	W96
@ 040   ----------------------------------------
	.byte	W96
@ 041   ----------------------------------------
	.byte	W96
@ 042   ----------------------------------------
	.byte	W96
@ 043   ----------------------------------------
	.byte	W96
@ 044   ----------------------------------------
	.byte	W96
@ 045   ----------------------------------------
	.byte	W96
@ 046   ----------------------------------------
	.byte	W96
@ 047   ----------------------------------------
	.byte	W96
@ 048   ----------------------------------------
	.byte	W96
@ 049   ----------------------------------------
	.byte	W96
@ 050   ----------------------------------------
	.byte	W96
@ 051   ----------------------------------------
	.byte	W96
@ 052   ----------------------------------------
	.byte	W96
@ 053   ----------------------------------------
	.byte	W96
@ 054   ----------------------------------------
	.byte	W96
@ 055   ----------------------------------------
	.byte	W96
@ 056   ----------------------------------------
	.byte	W96
@ 057   ----------------------------------------
	.byte	W96
@ 058   ----------------------------------------
	.byte	W96
@ 059   ----------------------------------------
	.byte	W96
@ 060   ----------------------------------------
	.byte	W96
@ 061   ----------------------------------------
	.byte	W96
@ 062   ----------------------------------------
	.byte	W96
@ 063   ----------------------------------------
	.byte	W96
@ 064   ----------------------------------------
	.byte	W96
@ 065   ----------------------------------------
	.byte	W96
@ 066   ----------------------------------------
	.byte	W96
@ 067   ----------------------------------------
	.byte	W96
@ 068   ----------------------------------------
	.byte	W96
@ 069   ----------------------------------------
	.byte	W96
@ 070   ----------------------------------------
	.byte	W96
@ 071   ----------------------------------------
	.byte	W96
@ 072   ----------------------------------------
	.byte	W96
@ 073   ----------------------------------------
	.byte	W96
@ 074   ----------------------------------------
	.byte	W96
@ 075   ----------------------------------------
	.byte	W96
@ 076   ----------------------------------------
	.byte	W96
@ 077   ----------------------------------------
	.byte	W96
@ 078   ----------------------------------------
	.byte	W96
@ 079   ----------------------------------------
	.byte	W96
@ 080   ----------------------------------------
	.byte	W96
@ 081   ----------------------------------------
	.byte	W96
@ 082   ----------------------------------------
	.byte	W96
@ 083   ----------------------------------------
	.byte	W96
@ 084   ----------------------------------------
	.byte	W96
@ 085   ----------------------------------------
	.byte	W96
@ 086   ----------------------------------------
	.byte	W96
@ 087   ----------------------------------------
	.byte	W96
@ 088   ----------------------------------------
	.byte	W96
@ 089   ----------------------------------------
	.byte	W96
@ 090   ----------------------------------------
	.byte	W96
@ 091   ----------------------------------------
	.byte	W48
	.byte	GOTO
	 .word	darkwastes4_2_B1
darkwastes4_2_B2:
	.byte		PAN   , c_v+0
	.byte		        c_v+0
	.byte		        c_v+0
	.byte		BEND  , c_v+0
	.byte	FINE

@**************** Track 3 (Midi-Chn.3) ****************@

darkwastes4_3:
	.byte	KEYSH , darkwastes4_key+0
darkwastes4_3_B1:
@ 000   ----------------------------------------
	.byte		VOICE , 60
	.byte		VOL   , 62*darkwastes4_mvl/mxv
	.byte		PAN   , c_v+0
	.byte		        c_v+0
	.byte		        c_v+0
	.byte		        c_v+0
	.byte		BEND  , c_v+0
	.byte	W96
@ 001   ----------------------------------------
	.byte	W96
@ 002   ----------------------------------------
	.byte	W96
@ 003   ----------------------------------------
	.byte	W96
@ 004   ----------------------------------------
	.byte	W96
@ 005   ----------------------------------------
	.byte	W96
@ 006   ----------------------------------------
	.byte	W96
@ 007   ----------------------------------------
	.byte	W96
@ 008   ----------------------------------------
	.byte	W96
@ 009   ----------------------------------------
	.byte	W96
@ 010   ----------------------------------------
	.byte	W96
@ 011   ----------------------------------------
	.byte	W96
@ 012   ----------------------------------------
	.byte	W96
@ 013   ----------------------------------------
	.byte	W96
@ 014   ----------------------------------------
	.byte	W96
@ 015   ----------------------------------------
	.byte	W96
@ 016   ----------------------------------------
	.byte	W96
@ 017   ----------------------------------------
	.byte	W48
	.byte		N68   , An3 , v092
	.byte	W48
@ 018   ----------------------------------------
	.byte	W24
	.byte		N22   
	.byte	W24
	.byte		N44   , Gn3 
	.byte	W48
@ 019   ----------------------------------------
	.byte		N22   , Cn4 
	.byte	W24
	.byte		        Bn3 
	.byte	W24
	.byte		N32   , An3 
	.byte	W36
	.byte		        Gn3 
	.byte	W12
@ 020   ----------------------------------------
	.byte	W24
	.byte		        Dn3 
	.byte	W36
	.byte		        En3 
	.byte	W36
@ 021   ----------------------------------------
darkwastes4_3_021:
	.byte		N68   , En3 , v080
	.byte		N68   , An3 
	.byte	W72
	.byte		        Fs3 
	.byte		N68   , Bn3 
	.byte	W24
	.byte	PEND
@ 022   ----------------------------------------
darkwastes4_3_022:
	.byte	W48
	.byte		N68   , Gn3 , v080
	.byte		N68   , Cn4 
	.byte	W48
	.byte	PEND
@ 023   ----------------------------------------
darkwastes4_3_023:
	.byte	W24
	.byte		N68   , Fs3 , v080
	.byte		N68   , Bn3 
	.byte	W72
	.byte	PEND
@ 024   ----------------------------------------
	.byte	PATT
	 .word	darkwastes4_3_021
@ 025   ----------------------------------------
	.byte	PATT
	 .word	darkwastes4_3_022
@ 026   ----------------------------------------
	.byte	PATT
	 .word	darkwastes4_3_023
@ 027   ----------------------------------------
	.byte		TIE   , As3 , v092
	.byte		N68   , Dn4 
	.byte	W72
	.byte		TIE   , Cs4 
	.byte	W24
@ 028   ----------------------------------------
	.byte	W40
	.byte		EOT   , As3 
	.byte	W08
	.byte		N68   , An3 
	.byte	W48
@ 029   ----------------------------------------
	.byte	W16
	.byte		EOT   , Cs4 
	.byte	W08
	.byte		N68   , An3 
	.byte		N68   , Dn4 
	.byte	W72
@ 030   ----------------------------------------
	.byte		        As3 
	.byte		TIE   , Ds4 
	.byte	W72
	.byte		        An3 
	.byte	W24
@ 031   ----------------------------------------
	.byte	W40
	.byte		EOT   , Ds4 
	.byte	W08
	.byte		TIE   , Dn4 
	.byte	W48
@ 032   ----------------------------------------
	.byte	W16
	.byte		EOT   , An3 
	.byte	W08
	.byte		N68   , Gn3 
	.byte	W64
	.byte		EOT   , Dn4 
	.byte	W08
@ 033   ----------------------------------------
	.byte		TIE   , Bn3 
	.byte		N68   , Dn4 
	.byte	W72
	.byte		N32   
	.byte	W24
@ 034   ----------------------------------------
	.byte	W12
	.byte		        Cs4 
	.byte	W28
	.byte		EOT   , Bn3 
	.byte	W08
	.byte		N68   
	.byte		TIE   , Cn4 
	.byte	W48
@ 035   ----------------------------------------
	.byte	W24
	.byte		N68   , An3 
	.byte	W64
	.byte		EOT   , Cn4 
	.byte	W08
@ 036   ----------------------------------------
	.byte		TIE   , An3 
	.byte		N68   , Cn4 
	.byte	W72
	.byte		        Dn4 
	.byte	W24
@ 037   ----------------------------------------
	.byte	W40
	.byte		EOT   , An3 
	.byte	W08
	.byte		TIE   , Bn3 
	.byte		TIE   , En4 
	.byte	W48
@ 038   ----------------------------------------
	.byte	W88
	.byte		EOT   , Bn3 
	.byte		        En4 
	.byte	W08
@ 039   ----------------------------------------
	.byte		TIE   , Bn3 
	.byte		N32   , Dn4 
	.byte	W36
	.byte		        Cs4 
	.byte	W36
	.byte		N68   , Cn4 
	.byte	W24
@ 040   ----------------------------------------
	.byte	W40
	.byte		EOT   , Bn3 
	.byte	W08
	.byte		N68   , En3 , v096
	.byte		N68   , An3 
	.byte	W48
@ 041   ----------------------------------------
	.byte	PATT
	 .word	darkwastes4_3_023
@ 042   ----------------------------------------
darkwastes4_3_042:
	.byte		N68   , Gn3 , v080
	.byte		N68   , Cn4 
	.byte	W72
	.byte		        Fs3 , v096
	.byte		N68   , Bn3 
	.byte	W24
	.byte	PEND
@ 043   ----------------------------------------
	.byte	W48
	.byte		        En3 
	.byte		N68   , An3 
	.byte	W48
@ 044   ----------------------------------------
	.byte	PATT
	 .word	darkwastes4_3_023
@ 045   ----------------------------------------
	.byte	PATT
	 .word	darkwastes4_3_042
@ 046   ----------------------------------------
	.byte	W48
	.byte		N68   , En3 , v080
	.byte		N68   , An3 
	.byte	W48
@ 047   ----------------------------------------
	.byte	PATT
	 .word	darkwastes4_3_023
@ 048   ----------------------------------------
	.byte	PATT
	 .word	darkwastes4_3_042
@ 049   ----------------------------------------
	.byte	W48
	.byte		N68   , En3 , v096
	.byte		N68   , An3 
	.byte	W48
@ 050   ----------------------------------------
	.byte	PATT
	 .word	darkwastes4_3_023
@ 051   ----------------------------------------
	.byte		N68   , Gn3 , v080
	.byte		N68   , Cn4 
	.byte	W72
	.byte		        Fs3 
	.byte		N68   , Bn3 
	.byte	W24
@ 052   ----------------------------------------
	.byte	W96
@ 053   ----------------------------------------
	.byte	W96
@ 054   ----------------------------------------
	.byte	W96
@ 055   ----------------------------------------
	.byte	W96
@ 056   ----------------------------------------
	.byte	W96
@ 057   ----------------------------------------
	.byte	W96
@ 058   ----------------------------------------
	.byte	W96
@ 059   ----------------------------------------
	.byte	W96
@ 060   ----------------------------------------
	.byte	W96
@ 061   ----------------------------------------
	.byte	W96
@ 062   ----------------------------------------
	.byte	W96
@ 063   ----------------------------------------
	.byte	W96
@ 064   ----------------------------------------
	.byte	W96
@ 065   ----------------------------------------
	.byte	W96
@ 066   ----------------------------------------
	.byte	W96
@ 067   ----------------------------------------
	.byte	W96
@ 068   ----------------------------------------
	.byte	W96
@ 069   ----------------------------------------
	.byte	W96
@ 070   ----------------------------------------
	.byte	W96
@ 071   ----------------------------------------
	.byte	W96
@ 072   ----------------------------------------
	.byte	W96
@ 073   ----------------------------------------
	.byte	W48
	.byte		TIE   
	.byte		TIE   , Dn4 , v068
	.byte		TIE   , Fs4 
	.byte	W48
@ 074   ----------------------------------------
	.byte	W88
	.byte		EOT   , Bn3 
	.byte		        Dn4 
	.byte		        Fs4 
	.byte	W08
@ 075   ----------------------------------------
	.byte		TIE   , Gn3 , v080
	.byte		TIE   , Cn4 , v068
	.byte		TIE   , En4 
	.byte	W96
@ 076   ----------------------------------------
	.byte	W40
	.byte		EOT   , Gn3 
	.byte		        Cn4 
	.byte		        En4 
	.byte	W56
@ 077   ----------------------------------------
	.byte	W96
@ 078   ----------------------------------------
	.byte	W96
@ 079   ----------------------------------------
	.byte	W96
@ 080   ----------------------------------------
	.byte	W96
@ 081   ----------------------------------------
	.byte	W96
@ 082   ----------------------------------------
	.byte	W96
@ 083   ----------------------------------------
	.byte	W96
@ 084   ----------------------------------------
	.byte	W96
@ 085   ----------------------------------------
	.byte	W96
@ 086   ----------------------------------------
	.byte	W96
@ 087   ----------------------------------------
	.byte	W96
@ 088   ----------------------------------------
	.byte	W96
@ 089   ----------------------------------------
	.byte	W96
@ 090   ----------------------------------------
	.byte	W96
@ 091   ----------------------------------------
	.byte	W48
	.byte	GOTO
	 .word	darkwastes4_3_B1
darkwastes4_3_B2:
	.byte		PAN   , c_v+0
	.byte		        c_v+0
	.byte		        c_v+0
	.byte		BEND  , c_v+0
	.byte	FINE

@**************** Track 4 (Midi-Chn.4) ****************@

darkwastes4_4:
	.byte	KEYSH , darkwastes4_key+0
darkwastes4_4_B1:
@ 000   ----------------------------------------
	.byte		VOICE , 61
	.byte		VOL   , 42*darkwastes4_mvl/mxv
	.byte		PAN   , c_v+0
	.byte		        c_v+0
	.byte		        c_v+0
	.byte		        c_v+0
	.byte		BEND  , c_v+0
	.byte	W96
@ 001   ----------------------------------------
	.byte	W96
@ 002   ----------------------------------------
	.byte	W96
@ 003   ----------------------------------------
darkwastes4_4_003:
	.byte		N11   , An2 , v100
	.byte		N11   , En3 
	.byte	W24
	.byte		        An2 
	.byte		N11   , En3 
	.byte	W24
	.byte		        An2 
	.byte		N11   , En3 
	.byte	W12
	.byte		        An2 
	.byte		N11   , En3 
	.byte	W24
	.byte		        An2 
	.byte		N11   , En3 
	.byte	W12
	.byte	PEND
@ 004   ----------------------------------------
darkwastes4_4_004:
	.byte		N11   , An2 , v100
	.byte		N11   , En3 
	.byte	W12
	.byte		        An2 
	.byte		N11   , En3 
	.byte	W24
	.byte		        An2 
	.byte		N11   , En3 
	.byte	W12
	.byte		        An2 
	.byte		N11   , En3 
	.byte	W24
	.byte		        An2 
	.byte		N11   , En3 
	.byte	W24
	.byte	PEND
@ 005   ----------------------------------------
darkwastes4_4_005:
	.byte		N11   , An2 , v100
	.byte		N11   , En3 
	.byte	W12
	.byte		        An2 
	.byte		N11   , En3 
	.byte	W24
	.byte		        An2 
	.byte		N11   , En3 
	.byte	W12
	.byte		        An2 
	.byte		N11   , En3 
	.byte	W12
	.byte		        An2 
	.byte		N11   , En3 
	.byte	W36
	.byte	PEND
@ 006   ----------------------------------------
	.byte	PATT
	 .word	darkwastes4_4_003
@ 007   ----------------------------------------
	.byte	PATT
	 .word	darkwastes4_4_004
@ 008   ----------------------------------------
	.byte	PATT
	 .word	darkwastes4_4_005
@ 009   ----------------------------------------
	.byte	PATT
	 .word	darkwastes4_4_003
@ 010   ----------------------------------------
	.byte	PATT
	 .word	darkwastes4_4_004
@ 011   ----------------------------------------
	.byte	PATT
	 .word	darkwastes4_4_005
@ 012   ----------------------------------------
	.byte	PATT
	 .word	darkwastes4_4_003
@ 013   ----------------------------------------
	.byte	PATT
	 .word	darkwastes4_4_004
@ 014   ----------------------------------------
	.byte	PATT
	 .word	darkwastes4_4_005
@ 015   ----------------------------------------
	.byte	W96
@ 016   ----------------------------------------
	.byte	W96
@ 017   ----------------------------------------
	.byte	W96
@ 018   ----------------------------------------
	.byte	W96
@ 019   ----------------------------------------
	.byte	W96
@ 020   ----------------------------------------
	.byte	W96
@ 021   ----------------------------------------
	.byte	PATT
	 .word	darkwastes4_4_003
@ 022   ----------------------------------------
	.byte	PATT
	 .word	darkwastes4_4_004
@ 023   ----------------------------------------
	.byte	PATT
	 .word	darkwastes4_4_005
@ 024   ----------------------------------------
	.byte	PATT
	 .word	darkwastes4_4_003
@ 025   ----------------------------------------
	.byte	PATT
	 .word	darkwastes4_4_004
@ 026   ----------------------------------------
	.byte	PATT
	 .word	darkwastes4_4_005
@ 027   ----------------------------------------
	.byte		TIE   , Gn2 , v100
	.byte	W96
@ 028   ----------------------------------------
	.byte	W44
	.byte	W03
	.byte		EOT   
	.byte	W01
	.byte		TIE   , Fs2 
	.byte	W48
@ 029   ----------------------------------------
	.byte	W92
	.byte	W03
	.byte		EOT   
	.byte	W01
@ 030   ----------------------------------------
	.byte		N68   , Cn3 
	.byte	W72
	.byte		        Bn2 
	.byte	W24
@ 031   ----------------------------------------
	.byte	W48
	.byte		TIE   , As2 
	.byte	W48
@ 032   ----------------------------------------
	.byte	W92
	.byte	W03
	.byte		EOT   
	.byte	W01
@ 033   ----------------------------------------
	.byte		N68   , Bn2 
	.byte	W72
	.byte		        En2 
	.byte	W24
@ 034   ----------------------------------------
	.byte	W48
	.byte		        An2 
	.byte	W48
@ 035   ----------------------------------------
	.byte	W24
	.byte		        Gn2 
	.byte	W72
@ 036   ----------------------------------------
	.byte		        Fn2 
	.byte	W72
	.byte		        As2 
	.byte	W24
@ 037   ----------------------------------------
	.byte	W48
	.byte		TIE   , Bn2 
	.byte	W48
@ 038   ----------------------------------------
	.byte	W92
	.byte	W03
	.byte		EOT   
	.byte	W01
@ 039   ----------------------------------------
	.byte		TIE   , En2 
	.byte	W96
@ 040   ----------------------------------------
	.byte	W44
	.byte	W03
	.byte		EOT   
	.byte	W01
	.byte		N11   , An2 
	.byte		N11   , En3 
	.byte	W24
	.byte		        An2 
	.byte		N11   , En3 
	.byte	W24
@ 041   ----------------------------------------
darkwastes4_4_041:
	.byte		N11   , An2 , v100
	.byte		N11   , En3 
	.byte	W12
	.byte		        An2 
	.byte		N11   , En3 
	.byte	W24
	.byte		        An2 
	.byte		N11   , En3 
	.byte	W12
	.byte		        An2 
	.byte		N11   , En3 
	.byte	W12
	.byte		        An2 
	.byte		N11   , En3 
	.byte	W24
	.byte		        An2 
	.byte		N11   , En3 
	.byte	W12
	.byte	PEND
@ 042   ----------------------------------------
	.byte	PATT
	 .word	darkwastes4_4_003
@ 043   ----------------------------------------
darkwastes4_4_043:
	.byte		N11   , An2 , v100
	.byte		N11   , En3 
	.byte	W12
	.byte		        An2 
	.byte		N11   , En3 
	.byte	W36
	.byte		        An2 
	.byte		N11   , En3 
	.byte	W24
	.byte		        An2 
	.byte		N11   , En3 
	.byte	W24
	.byte	PEND
@ 044   ----------------------------------------
	.byte	PATT
	 .word	darkwastes4_4_041
@ 045   ----------------------------------------
	.byte	PATT
	 .word	darkwastes4_4_003
@ 046   ----------------------------------------
	.byte	PATT
	 .word	darkwastes4_4_043
@ 047   ----------------------------------------
	.byte	PATT
	 .word	darkwastes4_4_041
@ 048   ----------------------------------------
	.byte	PATT
	 .word	darkwastes4_4_003
@ 049   ----------------------------------------
	.byte	PATT
	 .word	darkwastes4_4_043
@ 050   ----------------------------------------
	.byte	PATT
	 .word	darkwastes4_4_041
@ 051   ----------------------------------------
	.byte	PATT
	 .word	darkwastes4_4_003
@ 052   ----------------------------------------
	.byte		N11   , An2 , v100
	.byte		N11   , En3 
	.byte	W12
	.byte		        An2 
	.byte		N11   , En3 
	.byte	W84
@ 053   ----------------------------------------
	.byte	W96
@ 054   ----------------------------------------
	.byte	W96
@ 055   ----------------------------------------
	.byte	W96
@ 056   ----------------------------------------
	.byte	W96
@ 057   ----------------------------------------
	.byte	W96
@ 058   ----------------------------------------
	.byte	W96
@ 059   ----------------------------------------
	.byte	W96
@ 060   ----------------------------------------
	.byte	W96
@ 061   ----------------------------------------
	.byte	W96
@ 062   ----------------------------------------
	.byte	W96
@ 063   ----------------------------------------
	.byte	W96
@ 064   ----------------------------------------
	.byte	W96
@ 065   ----------------------------------------
	.byte	W96
@ 066   ----------------------------------------
	.byte	W96
@ 067   ----------------------------------------
	.byte	W96
@ 068   ----------------------------------------
	.byte	W96
@ 069   ----------------------------------------
	.byte	W96
@ 070   ----------------------------------------
	.byte	W96
@ 071   ----------------------------------------
	.byte	W96
@ 072   ----------------------------------------
	.byte	W96
@ 073   ----------------------------------------
	.byte	W96
@ 074   ----------------------------------------
	.byte	W96
@ 075   ----------------------------------------
	.byte	W96
@ 076   ----------------------------------------
	.byte	W96
@ 077   ----------------------------------------
	.byte	W96
@ 078   ----------------------------------------
	.byte	W96
@ 079   ----------------------------------------
	.byte	W96
@ 080   ----------------------------------------
	.byte	W96
@ 081   ----------------------------------------
	.byte	W96
@ 082   ----------------------------------------
	.byte	W96
@ 083   ----------------------------------------
	.byte	W96
@ 084   ----------------------------------------
	.byte	W96
@ 085   ----------------------------------------
	.byte	W96
@ 086   ----------------------------------------
	.byte	W96
@ 087   ----------------------------------------
	.byte	W96
@ 088   ----------------------------------------
	.byte	W96
@ 089   ----------------------------------------
	.byte	W96
@ 090   ----------------------------------------
	.byte	W96
@ 091   ----------------------------------------
	.byte	W48
	.byte	GOTO
	 .word	darkwastes4_4_B1
darkwastes4_4_B2:
	.byte		PAN   , c_v+0
	.byte		        c_v+0
	.byte		        c_v+0
	.byte		BEND  , c_v+0
	.byte	FINE

@**************** Track 5 (Midi-Chn.5) ****************@

darkwastes4_5:
	.byte	KEYSH , darkwastes4_key+0
darkwastes4_5_B1:
@ 000   ----------------------------------------
	.byte		VOICE , 40
	.byte		VOL   , 53*darkwastes4_mvl/mxv
	.byte		PAN   , c_v+0
	.byte		        c_v+0
	.byte		        c_v+0
	.byte		        c_v+0
	.byte		BEND  , c_v+0
	.byte	W96
@ 001   ----------------------------------------
	.byte	W96
@ 002   ----------------------------------------
	.byte	W96
@ 003   ----------------------------------------
	.byte	W96
@ 004   ----------------------------------------
	.byte	W96
@ 005   ----------------------------------------
	.byte	W96
@ 006   ----------------------------------------
	.byte	W96
@ 007   ----------------------------------------
	.byte	W96
@ 008   ----------------------------------------
	.byte	W96
@ 009   ----------------------------------------
darkwastes4_5_009:
	.byte		N23   , An3 , v100
	.byte	W24
	.byte		N11   , En4 
	.byte	W12
	.byte		N11   
	.byte	W12
	.byte		        Dn4 
	.byte	W12
	.byte		        Gn4 
	.byte	W12
	.byte		        En4 
	.byte	W12
	.byte		        Dn4 
	.byte	W12
	.byte	PEND
@ 010   ----------------------------------------
darkwastes4_5_010:
	.byte		N11   , An3 , v100
	.byte	W12
	.byte		N23   
	.byte	W24
	.byte		N11   , Gn3 
	.byte	W12
	.byte		N23   , An3 
	.byte	W24
	.byte		N11   , En4 
	.byte	W12
	.byte		N11   
	.byte	W12
	.byte	PEND
@ 011   ----------------------------------------
darkwastes4_5_011:
	.byte		N11   , Dn4 , v100
	.byte	W12
	.byte		        Gn4 
	.byte	W12
	.byte		        En4 
	.byte	W12
	.byte		        Dn4 
	.byte	W12
	.byte		        An3 
	.byte	W12
	.byte		N32   , En4 
	.byte	W36
	.byte	PEND
@ 012   ----------------------------------------
darkwastes4_5_012:
	.byte		N23   , An3 , v100
	.byte		N23   , Dn4 
	.byte	W24
	.byte		N11   , En4 
	.byte		N11   , An4 
	.byte	W12
	.byte		        En4 
	.byte		N11   , An4 
	.byte	W12
	.byte		        Dn4 
	.byte		N11   , Gn4 
	.byte	W12
	.byte		N11   
	.byte		N11   , Cn5 
	.byte	W12
	.byte		        En4 
	.byte		N11   , An4 
	.byte	W12
	.byte		        Dn4 
	.byte		N11   , Gn4 
	.byte	W12
	.byte	PEND
@ 013   ----------------------------------------
darkwastes4_5_013:
	.byte		N11   , An3 , v100
	.byte		N11   , Dn4 
	.byte	W12
	.byte		N23   , An3 
	.byte		N23   , Dn4 
	.byte	W24
	.byte		N11   , Gn3 
	.byte		N11   , Cn4 
	.byte	W12
	.byte		N23   , An3 
	.byte		N23   , Dn4 
	.byte	W24
	.byte		N11   , En4 
	.byte		N11   , An4 
	.byte	W12
	.byte		        En4 
	.byte		N11   , An4 
	.byte	W12
	.byte	PEND
@ 014   ----------------------------------------
darkwastes4_5_014:
	.byte		N11   , Dn4 , v100
	.byte		N11   , Gn4 
	.byte	W12
	.byte		N11   
	.byte		N11   , Cn5 
	.byte	W12
	.byte		        En4 
	.byte		N11   , An4 
	.byte	W12
	.byte		        Dn4 
	.byte		N11   , Gn4 
	.byte	W12
	.byte		        An3 
	.byte		N11   , Dn4 
	.byte	W12
	.byte		N32   , En4 
	.byte		N32   , An4 
	.byte	W36
	.byte	PEND
@ 015   ----------------------------------------
	.byte		N68   , An3 
	.byte	W72
	.byte		        Cn4 
	.byte	W24
@ 016   ----------------------------------------
	.byte	W48
	.byte		        An3 
	.byte	W48
@ 017   ----------------------------------------
	.byte	W24
	.byte		        Dn4 
	.byte	W72
@ 018   ----------------------------------------
	.byte		        An3 
	.byte	W72
	.byte		        En4 
	.byte	W24
@ 019   ----------------------------------------
	.byte	W48
	.byte		        An3 
	.byte	W48
@ 020   ----------------------------------------
	.byte	W24
	.byte		        Fs4 
	.byte	W72
@ 021   ----------------------------------------
	.byte	PATT
	 .word	darkwastes4_5_009
@ 022   ----------------------------------------
	.byte	PATT
	 .word	darkwastes4_5_010
@ 023   ----------------------------------------
	.byte	PATT
	 .word	darkwastes4_5_011
@ 024   ----------------------------------------
	.byte	PATT
	 .word	darkwastes4_5_012
@ 025   ----------------------------------------
	.byte	PATT
	 .word	darkwastes4_5_013
@ 026   ----------------------------------------
	.byte	PATT
	 .word	darkwastes4_5_014
@ 027   ----------------------------------------
darkwastes4_5_027:
	.byte		N44   , An4 , v100
	.byte	W48
	.byte		N11   , Gn4 
	.byte	W12
	.byte		        Cn5 
	.byte	W12
	.byte		N23   , An4 
	.byte	W24
	.byte	PEND
@ 028   ----------------------------------------
	.byte		        Gn4 
	.byte	W24
	.byte		        Fn4 
	.byte	W24
	.byte		N44   , En4 
	.byte	W48
@ 029   ----------------------------------------
	.byte		N11   , Dn4 
	.byte	W12
	.byte		        An4 
	.byte	W12
	.byte		N44   , En4 
	.byte	W48
	.byte		N11   , Fn4 
	.byte	W12
	.byte		        Gn4 
	.byte	W12
@ 030   ----------------------------------------
	.byte	PATT
	 .word	darkwastes4_5_027
@ 031   ----------------------------------------
	.byte		N23   , Bn4 , v100
	.byte	W24
	.byte		        Ds5 
	.byte	W24
	.byte		N44   , Gn5 
	.byte	W48
@ 032   ----------------------------------------
	.byte		N11   , Fn5 
	.byte	W12
	.byte		        Cn5 
	.byte	W12
	.byte		N68   , Dn5 
	.byte	W72
@ 033   ----------------------------------------
	.byte		N44   
	.byte	W48
	.byte		N11   , Cs5 
	.byte	W12
	.byte		        Dn5 
	.byte	W12
	.byte		N23   , Fn5 
	.byte	W24
@ 034   ----------------------------------------
	.byte		        En5 
	.byte	W24
	.byte		        Bn4 
	.byte	W24
	.byte		N44   , Cn5 
	.byte	W48
@ 035   ----------------------------------------
	.byte		N11   , Bn4 
	.byte	W12
	.byte		        An4 
	.byte	W12
	.byte		N44   , Cn5 
	.byte	W48
	.byte		N11   , An4 
	.byte	W12
	.byte		        Bn4 
	.byte	W12
@ 036   ----------------------------------------
	.byte		N44   , Cn5 
	.byte	W48
	.byte		N11   , An4 
	.byte	W12
	.byte		        Cn5 
	.byte	W12
	.byte		N23   , Dn5 
	.byte	W24
@ 037   ----------------------------------------
	.byte		        Cn5 
	.byte	W24
	.byte		        Fn5 
	.byte	W24
	.byte		TIE   , En5 
	.byte	W48
@ 038   ----------------------------------------
	.byte	W96
@ 039   ----------------------------------------
	.byte	W96
@ 040   ----------------------------------------
	.byte	W44
	.byte	W03
	.byte		EOT   
	.byte	W01
	.byte		N23   , An3 
	.byte	W24
	.byte		N11   , En4 
	.byte	W12
	.byte		N11   
	.byte	W12
@ 041   ----------------------------------------
darkwastes4_5_041:
	.byte		N11   , Dn4 , v100
	.byte	W12
	.byte		        Gn4 
	.byte	W12
	.byte		        En4 
	.byte	W12
	.byte		        Dn4 
	.byte	W12
	.byte		        An3 
	.byte	W12
	.byte		N23   
	.byte	W24
	.byte		N11   , Gn3 
	.byte	W12
	.byte	PEND
@ 042   ----------------------------------------
	.byte	PATT
	 .word	darkwastes4_5_009
@ 043   ----------------------------------------
darkwastes4_5_043:
	.byte		N11   , An3 , v100
	.byte	W12
	.byte		N32   , En4 
	.byte	W36
	.byte		N23   , An3 
	.byte		N23   , Dn4 
	.byte	W24
	.byte		N11   , En4 
	.byte		N11   , An4 
	.byte	W12
	.byte		        En4 
	.byte		N11   , An4 
	.byte	W12
	.byte	PEND
@ 044   ----------------------------------------
darkwastes4_5_044:
	.byte		N11   , Dn4 , v100
	.byte		N11   , Gn4 
	.byte	W12
	.byte		N11   
	.byte		N11   , Cn5 
	.byte	W12
	.byte		        En4 
	.byte		N11   , An4 
	.byte	W12
	.byte		        Dn4 
	.byte		N11   , Gn4 
	.byte	W12
	.byte		        An3 
	.byte		N11   , Dn4 
	.byte	W12
	.byte		N23   , An3 
	.byte		N23   , Dn4 
	.byte	W24
	.byte		N11   , Gn3 
	.byte		N11   , Cn4 
	.byte	W12
	.byte	PEND
@ 045   ----------------------------------------
	.byte	PATT
	 .word	darkwastes4_5_012
@ 046   ----------------------------------------
	.byte		N11   , An3 , v100
	.byte		N11   , Dn4 
	.byte	W12
	.byte		N32   , En4 
	.byte		N32   , An4 
	.byte	W36
	.byte		N23   , An3 
	.byte	W24
	.byte		N11   , En4 
	.byte	W12
	.byte		N11   
	.byte	W12
@ 047   ----------------------------------------
	.byte	PATT
	 .word	darkwastes4_5_041
@ 048   ----------------------------------------
	.byte	PATT
	 .word	darkwastes4_5_009
@ 049   ----------------------------------------
	.byte	PATT
	 .word	darkwastes4_5_043
@ 050   ----------------------------------------
	.byte	PATT
	 .word	darkwastes4_5_044
@ 051   ----------------------------------------
	.byte	PATT
	 .word	darkwastes4_5_012
@ 052   ----------------------------------------
	.byte		N11   , An3 , v100
	.byte		N11   , Dn4 
	.byte	W12
	.byte		N32   , En4 
	.byte		N32   , An4 
	.byte	W36
	.byte		N11   , Fn3 , v064
	.byte	W24
	.byte		        Fn3 , v080
	.byte	W24
@ 053   ----------------------------------------
darkwastes4_5_053:
	.byte		N11   , Fn3 , v080
	.byte	W12
	.byte		N11   
	.byte	W24
	.byte		N11   
	.byte	W12
	.byte		N11   
	.byte	W12
	.byte		N11   
	.byte	W24
	.byte		N11   
	.byte	W12
	.byte	PEND
@ 054   ----------------------------------------
darkwastes4_5_054:
	.byte		N11   , Fn3 , v080
	.byte	W24
	.byte		N11   
	.byte	W24
	.byte		N11   
	.byte	W12
	.byte		N11   
	.byte	W24
	.byte		N11   
	.byte	W12
	.byte	PEND
@ 055   ----------------------------------------
darkwastes4_5_055:
	.byte		N11   , Fn3 , v080
	.byte	W12
	.byte		N11   
	.byte	W36
	.byte		        En3 
	.byte	W24
	.byte		N11   
	.byte	W24
	.byte	PEND
@ 056   ----------------------------------------
darkwastes4_5_056:
	.byte		N11   , En3 , v080
	.byte	W12
	.byte		N11   
	.byte	W24
	.byte		N11   
	.byte	W12
	.byte		N11   
	.byte	W12
	.byte		N11   
	.byte	W24
	.byte		N11   
	.byte	W12
	.byte	PEND
@ 057   ----------------------------------------
darkwastes4_5_057:
	.byte		N11   , En3 , v080
	.byte	W24
	.byte		N11   
	.byte	W24
	.byte		N11   
	.byte	W12
	.byte		N11   
	.byte	W24
	.byte		N11   
	.byte	W12
	.byte	PEND
@ 058   ----------------------------------------
darkwastes4_5_058:
	.byte		N11   , En3 , v080
	.byte	W12
	.byte		N11   
	.byte	W36
	.byte		        Fn3 
	.byte	W24
	.byte		N11   
	.byte	W24
	.byte	PEND
@ 059   ----------------------------------------
	.byte	PATT
	 .word	darkwastes4_5_053
@ 060   ----------------------------------------
	.byte	PATT
	 .word	darkwastes4_5_054
@ 061   ----------------------------------------
	.byte		N11   , Fn3 , v080
	.byte	W12
	.byte		N11   
	.byte	W36
	.byte		        Gn3 
	.byte	W24
	.byte		N11   
	.byte	W24
@ 062   ----------------------------------------
	.byte		N11   
	.byte	W12
	.byte		N11   
	.byte	W24
	.byte		N11   
	.byte	W12
	.byte		N11   
	.byte	W12
	.byte		N11   
	.byte	W24
	.byte		N11   
	.byte	W12
@ 063   ----------------------------------------
	.byte		N11   
	.byte	W24
	.byte		N11   
	.byte	W24
	.byte		N11   
	.byte	W12
	.byte		N11   
	.byte	W24
	.byte		N11   
	.byte	W12
@ 064   ----------------------------------------
	.byte		N11   
	.byte	W12
	.byte		N11   
	.byte	W36
	.byte		        Fn3 
	.byte	W24
	.byte		N11   
	.byte	W24
@ 065   ----------------------------------------
	.byte	PATT
	 .word	darkwastes4_5_053
@ 066   ----------------------------------------
	.byte	PATT
	 .word	darkwastes4_5_054
@ 067   ----------------------------------------
	.byte	PATT
	 .word	darkwastes4_5_055
@ 068   ----------------------------------------
	.byte	PATT
	 .word	darkwastes4_5_056
@ 069   ----------------------------------------
	.byte	PATT
	 .word	darkwastes4_5_057
@ 070   ----------------------------------------
	.byte	PATT
	 .word	darkwastes4_5_058
@ 071   ----------------------------------------
	.byte	PATT
	 .word	darkwastes4_5_053
@ 072   ----------------------------------------
	.byte	PATT
	 .word	darkwastes4_5_054
@ 073   ----------------------------------------
	.byte		N11   , Fn3 , v080
	.byte	W12
	.byte		N11   
	.byte	W84
@ 074   ----------------------------------------
	.byte	W96
@ 075   ----------------------------------------
	.byte	W96
@ 076   ----------------------------------------
	.byte	W48
	.byte		TIE   , An2 , v100
	.byte		N11   , An4 , v072
	.byte	W12
	.byte		        En4 
	.byte	W12
	.byte		        Gn4 
	.byte	W12
	.byte		        Dn5 
	.byte	W12
@ 077   ----------------------------------------
	.byte		        An4 
	.byte	W12
	.byte		        En4 
	.byte	W12
	.byte		        Gn4 
	.byte	W12
	.byte		        Dn5 
	.byte	W12
	.byte		        An4 
	.byte	W12
	.byte		        En4 
	.byte	W12
	.byte		        Gn4 
	.byte	W12
	.byte		        Dn5 
	.byte	W11
	.byte		EOT   , An2 
	.byte	W01
@ 078   ----------------------------------------
	.byte		TIE   , Gn2 , v100
	.byte		N11   , An4 , v072
	.byte	W12
	.byte		        En4 
	.byte	W12
	.byte		        Gn4 
	.byte	W12
	.byte		        Dn5 
	.byte	W12
	.byte		        An4 
	.byte	W12
	.byte		        En4 
	.byte	W12
	.byte		        Gn4 
	.byte	W12
	.byte		        Dn5 
	.byte	W12
@ 079   ----------------------------------------
darkwastes4_5_079:
	.byte		N11   , An4 , v072
	.byte	W12
	.byte		        En4 
	.byte	W12
	.byte		        Gn4 
	.byte	W12
	.byte		        Dn5 
	.byte	W04
	.byte	PEND
	.byte		EOT   , Gn2 
	.byte	W08
	.byte		TIE   , Fs2 , v104
	.byte		N11   , An4 , v072
	.byte	W12
	.byte		        En4 
	.byte	W12
	.byte		        Gn4 
	.byte	W12
	.byte		        Dn5 
	.byte	W12
@ 080   ----------------------------------------
darkwastes4_5_080:
	.byte		N11   , An4 , v072
	.byte	W12
	.byte		        En4 
	.byte	W12
	.byte		        Gn4 
	.byte	W12
	.byte		        Dn5 
	.byte	W12
	.byte		        An4 
	.byte	W12
	.byte		        En4 
	.byte	W12
	.byte		        Gn4 
	.byte	W12
	.byte		        Dn5 
	.byte	W04
	.byte	PEND
	.byte		EOT   , Fs2 
	.byte	W08
@ 081   ----------------------------------------
darkwastes4_5_081:
	.byte		TIE   , Fn2 , v100
	.byte		N11   , An4 , v072
	.byte	W12
	.byte		        En4 
	.byte	W12
	.byte		        Gn4 
	.byte	W12
	.byte		        Dn5 
	.byte	W12
	.byte		        An4 
	.byte	W12
	.byte		        En4 
	.byte	W12
	.byte		        Gn4 
	.byte	W12
	.byte		        Dn5 
	.byte	W12
	.byte	PEND
@ 082   ----------------------------------------
	.byte	PATT
	 .word	darkwastes4_5_079
	.byte		EOT   , Fn2 
	.byte	W08
	.byte		TIE   , An2 , v100
	.byte		N11   , An4 , v072
	.byte	W12
	.byte		        En4 
	.byte	W12
	.byte		        Gn4 
	.byte	W12
	.byte		        Dn5 
	.byte	W12
@ 083   ----------------------------------------
	.byte	PATT
	 .word	darkwastes4_5_080
	.byte		EOT   , An2 
	.byte	W08
@ 084   ----------------------------------------
	.byte		TIE   , Gn2 , v096
	.byte		N11   , An4 , v072
	.byte	W12
	.byte		        En4 
	.byte	W12
	.byte		        Gn4 
	.byte	W12
	.byte		        Dn5 
	.byte	W12
	.byte		        An4 
	.byte	W12
	.byte		        En4 
	.byte	W12
	.byte		        Gn4 
	.byte	W12
	.byte		        Dn5 
	.byte	W12
@ 085   ----------------------------------------
	.byte	PATT
	 .word	darkwastes4_5_079
	.byte		EOT   , Gn2 
	.byte	W08
	.byte		TIE   , Fs2 , v100
	.byte		N11   , An4 , v072
	.byte	W12
	.byte		        En4 
	.byte	W12
	.byte		        Gn4 
	.byte	W12
	.byte		        Dn5 
	.byte	W12
@ 086   ----------------------------------------
	.byte	PATT
	 .word	darkwastes4_5_080
	.byte		EOT   , Fs2 
	.byte	W08
@ 087   ----------------------------------------
	.byte	PATT
	 .word	darkwastes4_5_081
@ 088   ----------------------------------------
	.byte	PATT
	 .word	darkwastes4_5_079
	.byte		EOT   , Fn2 
	.byte	W08
	.byte		N16   , An1 , v096
	.byte		N16   , An2 
	.byte		N16   , An3 
	.byte	W18
	.byte		N05   , An1 
	.byte		N05   , An2 
	.byte		N05   , An3 
	.byte	W06
	.byte		N11   , An1 
	.byte		N11   , An2 
	.byte		N11   , An3 
	.byte	W24
@ 089   ----------------------------------------
	.byte	W12
	.byte		        Cn3 , v072
	.byte	W12
	.byte		        Dn3 
	.byte	W12
	.byte		        Gn3 
	.byte	W12
	.byte		        An3 
	.byte	W12
	.byte		        Dn4 
	.byte	W12
	.byte		        En4 
	.byte	W12
	.byte		        An4 
	.byte	W12
@ 090   ----------------------------------------
	.byte		N32   , Cn3 
	.byte		N32   , Ds3 
	.byte		N32   , Gs3 
	.byte		N32   , Cn4 
	.byte	W36
	.byte		        Dn3 , v096
	.byte		N32   , Fn3 , v072
	.byte		N32   , As3 
	.byte		N32   , Dn4 
	.byte	W36
	.byte		        Ds3 
	.byte		N32   , Gs3 
	.byte		N32   , Cn4 
	.byte		N32   , Ds4 
	.byte	W24
@ 091   ----------------------------------------
	.byte	W12
	.byte		        Fn2 , v096
	.byte		N32   , Fn3 , v072
	.byte		N32   , Gs3 
	.byte		N32   , Dn4 
	.byte		N32   , Fn4 
	.byte	W36
	.byte	GOTO
	 .word	darkwastes4_5_B1
darkwastes4_5_B2:
	.byte		PAN   , c_v+0
	.byte		        c_v+0
	.byte		        c_v+0
	.byte		BEND  , c_v+0
	.byte	FINE

@**************** Track 6 (Midi-Chn.6) ****************@

darkwastes4_6:
	.byte	KEYSH , darkwastes4_key+0
darkwastes4_6_B1:
@ 000   ----------------------------------------
	.byte		VOICE , 51
	.byte		VOL   , 56*darkwastes4_mvl/mxv
	.byte		PAN   , c_v+0
	.byte		        c_v+0
	.byte		        c_v+0
	.byte		        c_v+0
	.byte		BEND  , c_v+0
	.byte	W96
@ 001   ----------------------------------------
	.byte	W96
@ 002   ----------------------------------------
	.byte	W96
@ 003   ----------------------------------------
	.byte		TIE   , En2 , v100
	.byte	W96
@ 004   ----------------------------------------
	.byte	W96
@ 005   ----------------------------------------
	.byte	W68
	.byte	W03
	.byte		EOT   
	.byte	W01
	.byte		N23   , Gn1 
	.byte	W24
@ 006   ----------------------------------------
	.byte		TIE   , En2 
	.byte	W96
@ 007   ----------------------------------------
	.byte	W96
@ 008   ----------------------------------------
	.byte	W92
	.byte	W03
	.byte		EOT   
	.byte	W01
@ 009   ----------------------------------------
darkwastes4_6_009:
	.byte		TIE   , An1 , v100
	.byte		TIE   , En2 
	.byte	W96
	.byte	PEND
@ 010   ----------------------------------------
	.byte	W96
@ 011   ----------------------------------------
	.byte	W92
	.byte	W03
	.byte		EOT   , An1 
	.byte		        En2 
	.byte	W01
@ 012   ----------------------------------------
	.byte	PATT
	 .word	darkwastes4_6_009
@ 013   ----------------------------------------
	.byte	W96
@ 014   ----------------------------------------
	.byte	W92
	.byte	W03
	.byte		EOT   , An1 
	.byte		        En2 
	.byte	W01
@ 015   ----------------------------------------
	.byte	PATT
	 .word	darkwastes4_6_009
@ 016   ----------------------------------------
	.byte	W96
@ 017   ----------------------------------------
	.byte	W92
	.byte	W03
	.byte		EOT   , An1 
	.byte		        En2 
	.byte	W01
@ 018   ----------------------------------------
	.byte	PATT
	 .word	darkwastes4_6_009
@ 019   ----------------------------------------
	.byte	W96
@ 020   ----------------------------------------
	.byte	W92
	.byte	W03
	.byte		EOT   , An1 
	.byte		        En2 
	.byte	W01
@ 021   ----------------------------------------
darkwastes4_6_021:
	.byte		TIE   , An0 , v100
	.byte		TIE   , An1 
	.byte	W96
	.byte	PEND
@ 022   ----------------------------------------
	.byte	W96
@ 023   ----------------------------------------
	.byte	W92
	.byte	W03
	.byte		EOT   , An0 
	.byte		        An1 
	.byte	W01
@ 024   ----------------------------------------
	.byte	PATT
	 .word	darkwastes4_6_021
@ 025   ----------------------------------------
	.byte	W96
@ 026   ----------------------------------------
	.byte	W92
	.byte	W03
	.byte		EOT   , An0 
	.byte		        An1 
	.byte	W01
@ 027   ----------------------------------------
	.byte		TIE   , Gn0 , v100
	.byte		TIE   , Gn1 
	.byte	W96
@ 028   ----------------------------------------
	.byte	W44
	.byte	W03
	.byte		EOT   , Gn0 
	.byte		        Gn1 
	.byte	W01
	.byte		TIE   , Fs0 
	.byte		TIE   , Fs1 
	.byte	W48
@ 029   ----------------------------------------
	.byte	W92
	.byte	W03
	.byte		EOT   , Fs0 
	.byte		        Fs1 
	.byte	W01
@ 030   ----------------------------------------
	.byte		N68   , Cn1 
	.byte		N68   , Cn2 
	.byte	W72
	.byte		        Bn0 
	.byte		N68   , Bn1 
	.byte	W24
@ 031   ----------------------------------------
	.byte	W48
	.byte		TIE   , As0 
	.byte		TIE   , As1 
	.byte	W48
@ 032   ----------------------------------------
	.byte	W92
	.byte	W03
	.byte		EOT   , As0 
	.byte		        As1 
	.byte	W01
@ 033   ----------------------------------------
	.byte		N68   , Bn0 
	.byte		N68   , Bn1 
	.byte	W72
	.byte		        En0 
	.byte		N68   , En1 
	.byte	W24
@ 034   ----------------------------------------
	.byte	W48
	.byte		        An0 
	.byte		N68   , An1 
	.byte	W48
@ 035   ----------------------------------------
	.byte	W24
	.byte		        Gn0 
	.byte		N68   , Gn1 
	.byte	W72
@ 036   ----------------------------------------
	.byte		        Fn0 
	.byte		N68   , Fn1 
	.byte	W72
	.byte		        As0 
	.byte		N68   , As1 
	.byte	W24
@ 037   ----------------------------------------
	.byte	W48
	.byte		TIE   , Bn0 
	.byte		TIE   , Bn1 
	.byte	W48
@ 038   ----------------------------------------
	.byte	W92
	.byte	W03
	.byte		EOT   , Bn0 
	.byte		        Bn1 
	.byte	W01
@ 039   ----------------------------------------
	.byte		TIE   , En0 
	.byte		TIE   , En1 
	.byte	W96
@ 040   ----------------------------------------
	.byte	W44
	.byte	W03
	.byte		EOT   , En0 
	.byte		        En1 
	.byte	W01
	.byte		TIE   , An0 
	.byte		TIE   , An1 
	.byte	W48
@ 041   ----------------------------------------
	.byte	W96
@ 042   ----------------------------------------
	.byte	W96
@ 043   ----------------------------------------
	.byte	W44
	.byte	W03
	.byte		EOT   , An0 
	.byte		        An1 
	.byte	W01
	.byte		TIE   , An0 
	.byte		TIE   , An1 
	.byte	W48
@ 044   ----------------------------------------
	.byte	W96
@ 045   ----------------------------------------
	.byte	W96
@ 046   ----------------------------------------
	.byte	W44
	.byte	W03
	.byte		EOT   , An0 
	.byte		        An1 
	.byte	W01
	.byte		TIE   , An0 
	.byte		TIE   , An1 
	.byte	W48
@ 047   ----------------------------------------
	.byte	W96
@ 048   ----------------------------------------
	.byte	W96
@ 049   ----------------------------------------
	.byte	W44
	.byte	W03
	.byte		EOT   , An0 
	.byte		        An1 
	.byte	W01
	.byte		TIE   , An0 
	.byte		TIE   , An1 
	.byte	W48
@ 050   ----------------------------------------
	.byte	W96
@ 051   ----------------------------------------
	.byte	W96
@ 052   ----------------------------------------
	.byte	W44
	.byte	W03
	.byte		EOT   , An0 
	.byte		        An1 
	.byte	W01
	.byte		TIE   , Fn1 , v104
	.byte		TIE   , Fn2 
	.byte	W48
@ 053   ----------------------------------------
darkwastes4_6_053:
	.byte	W72
	.byte		N22   , En1 , v100
	.byte		N22   , En2 
	.byte	W01
	.byte	PEND
	.byte		EOT   , Fn1 
	.byte		        Fn2 
	.byte	W23
@ 054   ----------------------------------------
darkwastes4_6_054:
	.byte		TIE   , Dn1 , v104
	.byte		TIE   , Dn2 
	.byte	W96
	.byte	PEND
@ 055   ----------------------------------------
	.byte	W48
	.byte		EOT   , Dn1 
	.byte		        Dn2 
	.byte		TIE   , En1 
	.byte		TIE   , En2 
	.byte	W48
@ 056   ----------------------------------------
	.byte	W96
@ 057   ----------------------------------------
	.byte	W96
@ 058   ----------------------------------------
	.byte	W48
	.byte		        Fn1 
	.byte		TIE   , Fn2 
	.byte	W01
	.byte		EOT   , En1 
	.byte		        En2 
	.byte	W44
	.byte	W03
@ 059   ----------------------------------------
	.byte	W72
	.byte		N22   , En1 
	.byte		N22   , En2 
	.byte	W01
	.byte		EOT   , Fn1 
	.byte		        Fn2 
	.byte	W23
@ 060   ----------------------------------------
	.byte	PATT
	 .word	darkwastes4_6_054
@ 061   ----------------------------------------
	.byte	W48
	.byte		EOT   , Dn1 
	.byte		        Dn2 
	.byte		TIE   , Gn1 , v104
	.byte		TIE   , Gn2 
	.byte	W48
@ 062   ----------------------------------------
	.byte	W96
@ 063   ----------------------------------------
	.byte	W96
@ 064   ----------------------------------------
darkwastes4_6_064:
	.byte	W48
	.byte		TIE   , Fn1 , v100
	.byte		TIE   , Fn2 
	.byte	W01
	.byte	PEND
	.byte		EOT   , Gn1 
	.byte		        Gn2 
	.byte	W44
	.byte	W03
@ 065   ----------------------------------------
	.byte	PATT
	 .word	darkwastes4_6_053
	.byte		EOT   , Fn1 
	.byte		        Fn2 
	.byte	W23
@ 066   ----------------------------------------
darkwastes4_6_066:
	.byte		TIE   , Dn1 , v100
	.byte		TIE   , Dn2 
	.byte	W96
	.byte	PEND
@ 067   ----------------------------------------
	.byte	W48
	.byte		EOT   , Dn1 
	.byte		        Dn2 
	.byte		TIE   , En1 
	.byte		TIE   , En2 
	.byte	W48
@ 068   ----------------------------------------
	.byte	W96
@ 069   ----------------------------------------
	.byte	W96
@ 070   ----------------------------------------
	.byte	PATT
	 .word	darkwastes4_6_064
	.byte		EOT   , En1 
	.byte		        En2 
	.byte	W44
	.byte	W03
@ 071   ----------------------------------------
	.byte	PATT
	 .word	darkwastes4_6_053
	.byte		EOT   , Fn1 
	.byte		        Fn2 
	.byte	W23
@ 072   ----------------------------------------
	.byte	PATT
	 .word	darkwastes4_6_066
@ 073   ----------------------------------------
	.byte	W48
	.byte		EOT   , Dn1 
	.byte		        Dn2 
	.byte		TIE   , Bn0 , v100
	.byte	W48
@ 074   ----------------------------------------
	.byte	W96
	.byte		EOT   
@ 075   ----------------------------------------
	.byte		TIE   , As0 
	.byte	W96
@ 076   ----------------------------------------
	.byte	W48
	.byte		EOT   
	.byte		TIE   , An1 
	.byte	W48
@ 077   ----------------------------------------
	.byte	W96
@ 078   ----------------------------------------
	.byte		        Gn1 
	.byte	W05
	.byte		EOT   , An1 
	.byte	W90
	.byte	W01
@ 079   ----------------------------------------
	.byte	W44
	.byte	W02
	.byte		        Gn1 
	.byte	W02
	.byte		TIE   , Fs1 , v104
	.byte	W48
@ 080   ----------------------------------------
	.byte	W92
	.byte	W02
	.byte		EOT   
	.byte	W02
@ 081   ----------------------------------------
	.byte		TIE   , Fn1 , v100
	.byte	W96
@ 082   ----------------------------------------
	.byte	W44
	.byte	W02
	.byte		EOT   
	.byte	W02
	.byte		TIE   , An1 
	.byte	W48
@ 083   ----------------------------------------
	.byte	W92
	.byte	W02
	.byte		EOT   
	.byte	W02
@ 084   ----------------------------------------
	.byte		TIE   , Gn1 , v096
	.byte	W96
@ 085   ----------------------------------------
	.byte	W44
	.byte	W02
	.byte		EOT   
	.byte	W02
	.byte		TIE   , Fs1 , v100
	.byte	W48
@ 086   ----------------------------------------
	.byte	W92
	.byte	W02
	.byte		EOT   
	.byte	W02
@ 087   ----------------------------------------
	.byte		TIE   , Fn1 
	.byte	W96
@ 088   ----------------------------------------
	.byte	W44
	.byte	W02
	.byte		EOT   
	.byte	W02
	.byte		N16   , An0 , v096
	.byte		N16   , An1 
	.byte		N16   , An2 
	.byte	W18
	.byte		N05   , An0 
	.byte		N05   , An1 
	.byte		N05   , An2 
	.byte	W06
	.byte		N11   , An0 
	.byte		N11   , An1 
	.byte		N11   , An2 
	.byte	W24
@ 089   ----------------------------------------
	.byte	W12
	.byte		        Cn2 , v072
	.byte	W12
	.byte		        Dn2 
	.byte	W12
	.byte		        Gn2 
	.byte	W12
	.byte		        An2 
	.byte	W12
	.byte		        Dn3 
	.byte	W12
	.byte		        En3 
	.byte	W12
	.byte		        An3 
	.byte	W12
@ 090   ----------------------------------------
	.byte		N32   , Cn1 , v096
	.byte		N32   , Cn2 
	.byte	W36
	.byte		        Dn1 , v072
	.byte		N32   , Dn2 , v096
	.byte	W36
	.byte		        Ds1 , v072
	.byte		N32   , Ds2 
	.byte	W24
@ 091   ----------------------------------------
	.byte	W12
	.byte		        Fn1 , v096
	.byte		N32   , Fn2 , v072
	.byte	W36
	.byte	GOTO
	 .word	darkwastes4_6_B1
darkwastes4_6_B2:
	.byte		PAN   , c_v+0
	.byte		        c_v+0
	.byte		        c_v+0
	.byte		BEND  , c_v+0
	.byte	FINE

@**************** Track 7 (Midi-Chn.8) ****************@

darkwastes4_7:
	.byte	KEYSH , darkwastes4_key+0
darkwastes4_7_B1:
@ 000   ----------------------------------------
	.byte		VOICE , 75
	.byte		VOL   , 60*darkwastes4_mvl/mxv
	.byte		PAN   , c_v-1
	.byte		BEND  , c_v+0
	.byte	W96
@ 001   ----------------------------------------
	.byte	W96
@ 002   ----------------------------------------
	.byte	W96
@ 003   ----------------------------------------
	.byte	W96
@ 004   ----------------------------------------
	.byte	W96
@ 005   ----------------------------------------
	.byte	W96
@ 006   ----------------------------------------
	.byte	W96
@ 007   ----------------------------------------
	.byte	W96
@ 008   ----------------------------------------
	.byte	W96
@ 009   ----------------------------------------
	.byte	W96
@ 010   ----------------------------------------
	.byte	W96
@ 011   ----------------------------------------
	.byte	W96
@ 012   ----------------------------------------
	.byte	W96
@ 013   ----------------------------------------
	.byte	W96
@ 014   ----------------------------------------
	.byte	W96
@ 015   ----------------------------------------
	.byte	W96
@ 016   ----------------------------------------
	.byte	W96
@ 017   ----------------------------------------
	.byte	W96
@ 018   ----------------------------------------
	.byte	W96
@ 019   ----------------------------------------
	.byte	W96
@ 020   ----------------------------------------
	.byte	W96
@ 021   ----------------------------------------
	.byte	W96
@ 022   ----------------------------------------
	.byte	W96
@ 023   ----------------------------------------
	.byte	W96
@ 024   ----------------------------------------
	.byte	W96
@ 025   ----------------------------------------
	.byte	W96
@ 026   ----------------------------------------
	.byte	W96
@ 027   ----------------------------------------
	.byte	W96
@ 028   ----------------------------------------
	.byte	W96
@ 029   ----------------------------------------
	.byte	W96
@ 030   ----------------------------------------
	.byte	W96
@ 031   ----------------------------------------
	.byte	W96
@ 032   ----------------------------------------
	.byte	W96
@ 033   ----------------------------------------
	.byte	W96
@ 034   ----------------------------------------
	.byte	W96
@ 035   ----------------------------------------
	.byte	W96
@ 036   ----------------------------------------
	.byte	W96
@ 037   ----------------------------------------
	.byte	W96
@ 038   ----------------------------------------
	.byte	W96
@ 039   ----------------------------------------
	.byte	W96
@ 040   ----------------------------------------
darkwastes4_7_040:
	.byte	W48
	.byte		N03   , Dn4 , v096
	.byte	W04
	.byte		TIE   , En4 
	.byte	W44
	.byte	PEND
@ 041   ----------------------------------------
	.byte	W96
@ 042   ----------------------------------------
	.byte	W60
	.byte	W01
	.byte		EOT   
	.byte	W11
	.byte		N03   , Cn4 
	.byte	W04
	.byte		N64   , Dn4 
	.byte	W20
@ 043   ----------------------------------------
	.byte	PATT
	 .word	darkwastes4_7_040
@ 044   ----------------------------------------
	.byte	W96
@ 045   ----------------------------------------
	.byte	W60
	.byte	W01
	.byte		EOT   , En4 
	.byte	W11
	.byte		N22   , Dn4 , v096
	.byte	W24
@ 046   ----------------------------------------
	.byte	W12
	.byte		N11   , Gn4 , v080
	.byte	W12
	.byte		N05   , An4 
	.byte	W06
	.byte		        Gn4 
	.byte	W06
	.byte		        Fs4 
	.byte	W06
	.byte		        Gn4 , v084
	.byte	W06
	.byte		N78   , An4 
	.byte	W48
@ 047   ----------------------------------------
	.byte	W48
	.byte		TIE   , An4 , v096
	.byte	W48
@ 048   ----------------------------------------
	.byte	W64
	.byte	W01
	.byte		EOT   
	.byte	W07
	.byte		N03   , Fs4 
	.byte	W04
	.byte		N30   , Gn4 
	.byte	W20
@ 049   ----------------------------------------
	.byte	W12
	.byte		N32   , Dn4 
	.byte	W36
	.byte		N03   , Gn4 
	.byte	W04
	.byte		N72   , An4 
	.byte	W44
@ 050   ----------------------------------------
	.byte	W48
	.byte		TIE   , An4 , v080
	.byte	W48
@ 051   ----------------------------------------
	.byte	W64
	.byte	W01
	.byte		EOT   
	.byte	W07
	.byte		N03   , Fs4 
	.byte	W04
	.byte		N30   , Gn4 
	.byte	W20
@ 052   ----------------------------------------
	.byte	W12
	.byte		N44   , Cn5 
	.byte	W60
	.byte		N11   , En3 
	.byte		N11   , En4 
	.byte	W12
	.byte		        En3 
	.byte		N11   , En4 
	.byte	W12
@ 053   ----------------------------------------
darkwastes4_7_053:
	.byte		N11   , Dn3 , v080
	.byte		N11   , Dn4 
	.byte	W12
	.byte		        Gn3 
	.byte		N11   , Gn4 
	.byte	W12
	.byte		N22   , En3 
	.byte		N22   , En4 
	.byte	W24
	.byte		N11   , An2 
	.byte		N11   , An3 
	.byte	W12
	.byte		        An2 
	.byte		N11   , An3 
	.byte	W12
	.byte		        Gn2 
	.byte		N11   , Gn3 
	.byte	W12
	.byte		        Cn3 
	.byte		N11   , Cn4 
	.byte	W12
	.byte	PEND
@ 054   ----------------------------------------
darkwastes4_7_054:
	.byte		N22   , An2 , v080
	.byte		N22   , An3 
	.byte	W24
	.byte		N11   , En4 
	.byte		N11   , En5 
	.byte	W12
	.byte		        En4 
	.byte		N11   , En5 
	.byte	W12
	.byte		        Dn4 
	.byte		N11   , Dn5 
	.byte	W12
	.byte		        Gn4 
	.byte		N11   , Gn5 
	.byte	W12
	.byte		N68   , En4 
	.byte		N68   , An4 
	.byte		N68   , Cn5 
	.byte		N68   , En5 
	.byte	W24
	.byte	PEND
@ 055   ----------------------------------------
	.byte	W48
	.byte		N03   , Dn4 
	.byte	W04
	.byte		N64   , En3 
	.byte		TIE   , Bn3 
	.byte		TIE   , En4 
	.byte	W44
@ 056   ----------------------------------------
	.byte	W24
	.byte		N44   , Bn2 
	.byte	W40
	.byte	W01
	.byte		EOT   , Bn3 
	.byte		        En4 
	.byte	W07
	.byte		N11   , Dn3 
	.byte		N11   , Dn4 
	.byte	W12
	.byte		        Cn3 
	.byte		N11   , Cn4 
	.byte	W12
@ 057   ----------------------------------------
	.byte		N68   , En3 
	.byte		N68   , Bn3 
	.byte	W72
	.byte		        Dn3 
	.byte		N68   , Gn3 
	.byte	W24
@ 058   ----------------------------------------
darkwastes4_7_058:
	.byte	W72
	.byte		N11   , En3 , v080
	.byte		N11   , En4 
	.byte	W12
	.byte		        En3 
	.byte		N11   , En4 
	.byte	W12
	.byte	PEND
@ 059   ----------------------------------------
	.byte	PATT
	 .word	darkwastes4_7_053
@ 060   ----------------------------------------
	.byte	PATT
	 .word	darkwastes4_7_054
@ 061   ----------------------------------------
	.byte	W48
	.byte		N03   , An4 , v080
	.byte	W04
	.byte		N64   , Bn3 
	.byte		TIE   , Dn4 
	.byte		TIE   , Bn4 
	.byte	W44
@ 062   ----------------------------------------
	.byte	W24
	.byte		N32   , Gn3 
	.byte	W30
	.byte		EOT   , Dn4 
	.byte		        Bn4 
	.byte	W06
	.byte		N11   , Cn4 
	.byte		N11   , Cn5 
	.byte	W12
	.byte		        Bn3 
	.byte		N11   , Bn4 
	.byte	W12
	.byte		        Gn3 
	.byte		N11   , Gn4 
	.byte	W12
@ 063   ----------------------------------------
	.byte		N68   , En3 
	.byte		N68   , En4 
	.byte	W72
	.byte		        Dn3 
	.byte		N68   , Dn4 
	.byte	W24
@ 064   ----------------------------------------
	.byte	PATT
	 .word	darkwastes4_7_058
@ 065   ----------------------------------------
	.byte	PATT
	 .word	darkwastes4_7_053
@ 066   ----------------------------------------
	.byte	PATT
	 .word	darkwastes4_7_054
@ 067   ----------------------------------------
	.byte	W48
	.byte		N03   , Gn3 , v080
	.byte		N03   , Gn4 
	.byte	W04
	.byte		N40   , An3 
	.byte		N40   , An4 
	.byte	W44
@ 068   ----------------------------------------
	.byte		N44   , An3 
	.byte		N44   , An4 
	.byte	W48
	.byte		N03   , Gn3 
	.byte		N03   , Gn4 
	.byte	W04
	.byte		N18   , An3 
	.byte		N18   , An4 
	.byte	W20
	.byte		N11   , Gn3 
	.byte		N11   , Gn4 
	.byte	W12
	.byte		        An3 
	.byte		N11   , An4 
	.byte	W12
@ 069   ----------------------------------------
	.byte		N68   , Bn3 
	.byte		N68   , Bn4 
	.byte	W72
	.byte		N32   , En3 
	.byte		N32   , En4 
	.byte	W24
@ 070   ----------------------------------------
	.byte	W12
	.byte		        Dn3 
	.byte		N32   , Dn4 
	.byte	W60
	.byte		N11   , En3 
	.byte		N11   , En4 
	.byte	W12
	.byte		        En3 
	.byte		N11   , En4 
	.byte	W12
@ 071   ----------------------------------------
	.byte	PATT
	 .word	darkwastes4_7_053
@ 072   ----------------------------------------
	.byte	PATT
	 .word	darkwastes4_7_054
@ 073   ----------------------------------------
	.byte	W48
	.byte		N03   , Gn3 , v080
	.byte		N03   , Gn4 
	.byte	W04
	.byte		N64   , An3 
	.byte		N64   , An4 
	.byte	W44
@ 074   ----------------------------------------
	.byte	W24
	.byte		N22   , An3 
	.byte		N22   , An4 
	.byte	W24
	.byte		N03   , Gn3 
	.byte		N03   , Gn4 
	.byte	W04
	.byte		N07   , An3 
	.byte		N07   , An4 
	.byte	W08
	.byte		N03   , Cn4 
	.byte		N03   , Cn5 
	.byte	W04
	.byte		N07   , An3 
	.byte		N07   , An4 
	.byte	W08
	.byte		N11   , Gn3 
	.byte		N11   , Gn4 
	.byte	W12
	.byte		        An3 
	.byte		N11   , An4 
	.byte	W12
@ 075   ----------------------------------------
	.byte		N03   , As3 
	.byte		N03   , As4 
	.byte	W04
	.byte		N64   , Cn4 
	.byte		N64   , Cn5 
	.byte	W68
	.byte		N68   , As3 
	.byte		N68   , As4 
	.byte	W24
@ 076   ----------------------------------------
	.byte	W96
@ 077   ----------------------------------------
	.byte	W96
@ 078   ----------------------------------------
	.byte	W96
@ 079   ----------------------------------------
	.byte	W96
@ 080   ----------------------------------------
	.byte	W96
@ 081   ----------------------------------------
	.byte	W96
@ 082   ----------------------------------------
	.byte	W96
@ 083   ----------------------------------------
	.byte	W96
@ 084   ----------------------------------------
	.byte	W96
@ 085   ----------------------------------------
	.byte	W96
@ 086   ----------------------------------------
	.byte	W96
@ 087   ----------------------------------------
	.byte	W96
@ 088   ----------------------------------------
	.byte	W96
@ 089   ----------------------------------------
	.byte	W96
@ 090   ----------------------------------------
	.byte	W96
@ 091   ----------------------------------------
	.byte	W48
	.byte	GOTO
	 .word	darkwastes4_7_B1
darkwastes4_7_B2:
	.byte		BEND  , c_v+0
	.byte	FINE

@**************** Track 8 (Midi-Chn.10) ****************@

darkwastes4_8:
	.byte	KEYSH , darkwastes4_key+0
darkwastes4_8_B1:
@ 000   ----------------------------------------
	.byte		VOICE , 127
	.byte		VOL   , 70*darkwastes4_mvl/mxv
	.byte		PAN   , c_v+0
	.byte		        c_v+0
	.byte		        c_v+0
	.byte		        c_v+0
	.byte		BEND  , c_v+0
	.byte	W96
@ 001   ----------------------------------------
	.byte	W96
@ 002   ----------------------------------------
	.byte	W96
@ 003   ----------------------------------------
	.byte	W96
@ 004   ----------------------------------------
	.byte	W96
@ 005   ----------------------------------------
	.byte		TIE   , En2 , v100
	.byte	W96
@ 006   ----------------------------------------
	.byte		N44   , Cn1 
	.byte	W48
	.byte		N23   
	.byte	W24
	.byte		N44   
	.byte	W24
@ 007   ----------------------------------------
	.byte	W24
	.byte		N23   , Bn0 
	.byte		N23   , Cn1 
	.byte	W24
	.byte		N44   
	.byte	W44
	.byte	W03
	.byte		EOT   , En2 
	.byte	W01
@ 008   ----------------------------------------
	.byte		N23   , Cn1 
	.byte		TIE   , En2 
	.byte	W24
	.byte		N44   , Cn1 
	.byte	W48
	.byte		N23   , Bn0 
	.byte		N23   , Cn1 
	.byte		N23   , Ds1 
	.byte	W24
@ 009   ----------------------------------------
darkwastes4_8_009:
	.byte		N32   , Cn1 , v100
	.byte	W36
	.byte		N11   
	.byte	W12
	.byte		N23   
	.byte	W24
	.byte		N23   
	.byte	W24
	.byte	PEND
@ 010   ----------------------------------------
darkwastes4_8_010:
	.byte		N23   , Cn1 , v100
	.byte	W24
	.byte		        Bn0 
	.byte		N23   , Cn1 
	.byte	W24
	.byte		N32   
	.byte	W36
	.byte		N11   
	.byte	W12
	.byte	PEND
@ 011   ----------------------------------------
darkwastes4_8_011:
	.byte		N23   , Cn1 , v100
	.byte	W24
	.byte		N11   
	.byte	W12
	.byte		N11   
	.byte	W12
	.byte		N23   
	.byte	W24
	.byte		        Bn0 
	.byte		N23   , Cn1 
	.byte		N23   , Cs2 
	.byte	W24
	.byte	PEND
@ 012   ----------------------------------------
	.byte	PATT
	 .word	darkwastes4_8_009
@ 013   ----------------------------------------
darkwastes4_8_013:
	.byte		N23   , Cn1 , v100
	.byte	W24
	.byte		        Bn0 
	.byte		N23   , Cn1 
	.byte	W24
	.byte		N32   
	.byte	W36
	.byte		N11   
	.byte	W11
	.byte	PEND
	.byte		EOT   , En2 
	.byte	W01
@ 014   ----------------------------------------
darkwastes4_8_014:
	.byte		N23   , Cn1 , v100
	.byte		TIE   , En2 
	.byte	W24
	.byte		N11   , Cn1 
	.byte	W12
	.byte		N11   
	.byte	W12
	.byte		N23   
	.byte	W24
	.byte		        Bn0 
	.byte		N23   , Cn1 
	.byte		N23   , Cs2 
	.byte	W24
	.byte	PEND
@ 015   ----------------------------------------
	.byte	PATT
	 .word	darkwastes4_8_009
@ 016   ----------------------------------------
	.byte	PATT
	 .word	darkwastes4_8_010
@ 017   ----------------------------------------
	.byte	PATT
	 .word	darkwastes4_8_011
@ 018   ----------------------------------------
	.byte	PATT
	 .word	darkwastes4_8_009
@ 019   ----------------------------------------
	.byte	PATT
	 .word	darkwastes4_8_013
	.byte		EOT   , En2 
	.byte	W01
@ 020   ----------------------------------------
	.byte	PATT
	 .word	darkwastes4_8_014
@ 021   ----------------------------------------
	.byte	PATT
	 .word	darkwastes4_8_009
@ 022   ----------------------------------------
	.byte	PATT
	 .word	darkwastes4_8_010
@ 023   ----------------------------------------
	.byte	PATT
	 .word	darkwastes4_8_011
@ 024   ----------------------------------------
	.byte	PATT
	 .word	darkwastes4_8_009
@ 025   ----------------------------------------
	.byte	PATT
	 .word	darkwastes4_8_013
	.byte		EOT   , En2 
	.byte	W01
@ 026   ----------------------------------------
	.byte	PATT
	 .word	darkwastes4_8_014
@ 027   ----------------------------------------
darkwastes4_8_027:
	.byte		N32   , Cn1 , v100
	.byte		N11   , Fs1 
	.byte	W12
	.byte		N11   
	.byte	W12
	.byte		N11   
	.byte	W12
	.byte		        Cn1 
	.byte		N11   , Fs1 
	.byte	W12
	.byte		N23   , Cn1 
	.byte		N11   , Fs1 
	.byte	W12
	.byte		N11   
	.byte	W12
	.byte		N23   , Cn1 
	.byte		N23   , Fs1 
	.byte	W24
	.byte	PEND
@ 028   ----------------------------------------
darkwastes4_8_028:
	.byte		N23   , Cn1 , v100
	.byte		N23   , Fs1 
	.byte	W24
	.byte		        Bn0 
	.byte		N23   , Cn1 
	.byte		N23   , Cs2 
	.byte	W24
	.byte		N32   , Cn1 
	.byte		N11   , Fs1 
	.byte	W12
	.byte		N11   
	.byte	W12
	.byte		N11   
	.byte	W12
	.byte		        Cn1 
	.byte		N11   , Fs1 
	.byte	W12
	.byte	PEND
@ 029   ----------------------------------------
darkwastes4_8_029:
	.byte		N23   , Cn1 , v100
	.byte		N11   , Fs1 
	.byte	W12
	.byte		N11   
	.byte	W12
	.byte		        Cn1 
	.byte		N11   , Fs1 
	.byte	W12
	.byte		        Cn1 
	.byte		N11   , Fs1 
	.byte	W12
	.byte		N23   , Cn1 
	.byte		N11   , Fs1 
	.byte	W12
	.byte		N11   
	.byte	W12
	.byte		N23   , Bn0 
	.byte		N23   , Cn1 
	.byte		N23   , Cs2 
	.byte	W24
	.byte	PEND
@ 030   ----------------------------------------
	.byte	PATT
	 .word	darkwastes4_8_027
@ 031   ----------------------------------------
darkwastes4_8_031:
	.byte		N23   , Cn1 , v100
	.byte		N23   , Fs1 
	.byte	W24
	.byte		        Bn0 
	.byte		N23   , Cn1 
	.byte		N23   , Cs2 
	.byte	W24
	.byte		N32   , Cn1 
	.byte		N11   , Fs1 
	.byte	W12
	.byte		N11   
	.byte	W12
	.byte		N11   
	.byte	W12
	.byte		        Cn1 
	.byte		N11   , Fs1 
	.byte	W11
	.byte	PEND
	.byte		EOT   , En2 
	.byte	W01
@ 032   ----------------------------------------
darkwastes4_8_032:
	.byte		N23   , Cn1 , v100
	.byte		N11   , Fs1 
	.byte		TIE   , En2 
	.byte	W12
	.byte		N11   , Fs1 
	.byte	W12
	.byte		        Cn1 
	.byte		N11   , Fs1 
	.byte	W12
	.byte		        Cn1 
	.byte		N11   , Fs1 
	.byte	W12
	.byte		N23   , Cn1 
	.byte		N11   , Fs1 
	.byte	W12
	.byte		N11   
	.byte	W12
	.byte		N23   , Bn0 
	.byte		N23   , Cn1 
	.byte		N23   , Cs2 
	.byte	W24
	.byte	PEND
@ 033   ----------------------------------------
	.byte	PATT
	 .word	darkwastes4_8_027
@ 034   ----------------------------------------
	.byte	PATT
	 .word	darkwastes4_8_028
@ 035   ----------------------------------------
	.byte	PATT
	 .word	darkwastes4_8_029
@ 036   ----------------------------------------
	.byte	PATT
	 .word	darkwastes4_8_027
@ 037   ----------------------------------------
	.byte	PATT
	 .word	darkwastes4_8_031
	.byte		EOT   , En2 
	.byte	W01
@ 038   ----------------------------------------
	.byte	PATT
	 .word	darkwastes4_8_032
@ 039   ----------------------------------------
darkwastes4_8_039:
	.byte		N32   , Cn1 , v100
	.byte		N11   , Fs1 
	.byte	W12
	.byte		N11   
	.byte	W12
	.byte		N11   
	.byte	W12
	.byte		        Cn1 
	.byte		N11   , Fs1 
	.byte	W12
	.byte		N23   , Cn1 
	.byte		N11   , Fs1 
	.byte	W12
	.byte		N11   
	.byte	W12
	.byte		        Cn1 
	.byte		N11   , Fs1 
	.byte	W12
	.byte		        Cn1 
	.byte		N11   , Fs1 
	.byte	W12
	.byte	PEND
@ 040   ----------------------------------------
darkwastes4_8_040:
	.byte		N23   , Cn1 , v100
	.byte		N11   , Fs1 
	.byte	W12
	.byte		N11   
	.byte	W12
	.byte		N23   , Bn0 
	.byte		N23   , Cn1 
	.byte		N23   , Cs2 
	.byte	W24
	.byte		N32   , Cn1 
	.byte	W36
	.byte		N11   
	.byte	W12
	.byte	PEND
@ 041   ----------------------------------------
darkwastes4_8_041:
	.byte		N23   , Cn1 , v100
	.byte	W24
	.byte		N23   
	.byte	W24
	.byte		N23   
	.byte	W24
	.byte		        Bn0 
	.byte		N23   , Cn1 
	.byte	W24
	.byte	PEND
@ 042   ----------------------------------------
darkwastes4_8_042:
	.byte		N32   , Cn1 , v100
	.byte	W36
	.byte		N11   
	.byte	W12
	.byte		N23   
	.byte	W24
	.byte		N11   
	.byte	W12
	.byte		N11   
	.byte	W12
	.byte	PEND
@ 043   ----------------------------------------
darkwastes4_8_043:
	.byte		N23   , Cn1 , v100
	.byte	W24
	.byte		        Bn0 
	.byte		N23   , Cn1 
	.byte		N23   , Cs2 
	.byte	W24
	.byte		N32   , Cn1 
	.byte	W36
	.byte		N11   
	.byte	W11
	.byte	PEND
	.byte		EOT   , En2 
	.byte	W01
@ 044   ----------------------------------------
darkwastes4_8_044:
	.byte		N23   , Cn1 , v100
	.byte		TIE   , En2 
	.byte	W24
	.byte		N23   , Cn1 
	.byte	W24
	.byte		N23   
	.byte	W24
	.byte		        Bn0 
	.byte		N23   , Cn1 
	.byte	W24
	.byte	PEND
@ 045   ----------------------------------------
	.byte	PATT
	 .word	darkwastes4_8_042
@ 046   ----------------------------------------
darkwastes4_8_046:
	.byte		N23   , Cn1 , v100
	.byte	W24
	.byte		        Bn0 
	.byte		N23   , Cn1 
	.byte		N23   , Cs2 
	.byte	W24
	.byte		N32   , Cn1 
	.byte	W36
	.byte		N11   
	.byte	W12
	.byte	PEND
@ 047   ----------------------------------------
	.byte	PATT
	 .word	darkwastes4_8_041
@ 048   ----------------------------------------
	.byte	PATT
	 .word	darkwastes4_8_042
@ 049   ----------------------------------------
	.byte	PATT
	 .word	darkwastes4_8_043
	.byte		EOT   , En2 
	.byte	W01
@ 050   ----------------------------------------
	.byte	PATT
	 .word	darkwastes4_8_044
@ 051   ----------------------------------------
darkwastes4_8_051:
	.byte		N32   , Cn1 , v100
	.byte	W36
	.byte		N11   
	.byte	W11
	.byte	PEND
	.byte		EOT   , En2 
	.byte	W01
	.byte		N23   , Cn1 
	.byte		TIE   , En2 
	.byte	W24
	.byte		N11   , Cn1 
	.byte	W12
	.byte		N11   
	.byte	W12
@ 052   ----------------------------------------
	.byte		N23   
	.byte		N44   , Ds1 
	.byte	W24
	.byte		N23   , Bn0 
	.byte		N23   , Cn1 
	.byte		N23   , Cs2 
	.byte	W24
	.byte		N32   , Cn1 
	.byte		N11   , Fs1 
	.byte	W12
	.byte		N11   
	.byte	W12
	.byte		N11   
	.byte	W12
	.byte		        Cn1 
	.byte		N11   , Fs1 
	.byte	W12
@ 053   ----------------------------------------
darkwastes4_8_053:
	.byte		N23   , Cn1 , v100
	.byte		N11   , Fs1 
	.byte	W12
	.byte		N11   
	.byte	W12
	.byte		N23   , Cn1 
	.byte		N23   , Fs1 
	.byte	W24
	.byte		        Cn1 
	.byte		N23   , Fs1 
	.byte	W24
	.byte		        Bn0 
	.byte		N23   , Cn1 
	.byte		N23   , Cs2 
	.byte	W24
	.byte	PEND
@ 054   ----------------------------------------
	.byte	PATT
	 .word	darkwastes4_8_039
@ 055   ----------------------------------------
darkwastes4_8_055:
	.byte		N23   , Cn1 , v100
	.byte		N11   , Fs1 
	.byte	W12
	.byte		N11   
	.byte	W12
	.byte		N23   , Bn0 
	.byte		N23   , Cn1 
	.byte		N23   , Cs2 
	.byte	W24
	.byte		N32   , Cn1 
	.byte		N11   , Fs1 
	.byte	W12
	.byte		N11   
	.byte	W12
	.byte		N11   
	.byte	W12
	.byte		        Cn1 
	.byte		N11   , Fs1 
	.byte	W12
	.byte	PEND
@ 056   ----------------------------------------
	.byte	PATT
	 .word	darkwastes4_8_053
@ 057   ----------------------------------------
darkwastes4_8_057:
	.byte		N32   , Cn1 , v100
	.byte		N11   , Fs1 
	.byte	W12
	.byte		N11   
	.byte	W12
	.byte		N11   
	.byte	W12
	.byte		        Cn1 
	.byte		N11   , Fs1 
	.byte	W11
	.byte	PEND
	.byte		EOT   , En2 
	.byte	W01
	.byte		N23   , Cn1 
	.byte		N11   , Fs1 
	.byte		TIE   , En2 
	.byte	W12
	.byte		N11   , Fs1 
	.byte	W12
	.byte		        Cn1 
	.byte		N11   , Fs1 
	.byte	W12
	.byte		        Cn1 
	.byte		N11   , Fs1 
	.byte	W12
@ 058   ----------------------------------------
	.byte	PATT
	 .word	darkwastes4_8_055
@ 059   ----------------------------------------
	.byte	PATT
	 .word	darkwastes4_8_053
@ 060   ----------------------------------------
	.byte	PATT
	 .word	darkwastes4_8_039
@ 061   ----------------------------------------
	.byte	PATT
	 .word	darkwastes4_8_055
@ 062   ----------------------------------------
	.byte	PATT
	 .word	darkwastes4_8_053
@ 063   ----------------------------------------
	.byte	PATT
	 .word	darkwastes4_8_057
	.byte		EOT   , En2 
	.byte	W01
	.byte		N23   , Cn1 , v100
	.byte		N11   , Fs1 
	.byte		TIE   , En2 
	.byte	W12
	.byte		N11   , Fs1 
	.byte	W12
	.byte		        Cn1 
	.byte		N11   , Fs1 
	.byte	W12
	.byte		        Cn1 
	.byte		N11   , Fs1 
	.byte	W12
@ 064   ----------------------------------------
	.byte	PATT
	 .word	darkwastes4_8_055
@ 065   ----------------------------------------
	.byte	PATT
	 .word	darkwastes4_8_053
@ 066   ----------------------------------------
	.byte	PATT
	 .word	darkwastes4_8_039
@ 067   ----------------------------------------
	.byte	PATT
	 .word	darkwastes4_8_055
@ 068   ----------------------------------------
	.byte	PATT
	 .word	darkwastes4_8_053
@ 069   ----------------------------------------
	.byte	PATT
	 .word	darkwastes4_8_057
	.byte		EOT   , En2 
	.byte	W01
	.byte		N23   , Cn1 , v100
	.byte		N11   , Fs1 
	.byte		TIE   , En2 
	.byte	W12
	.byte		N11   , Fs1 
	.byte	W12
	.byte		        Cn1 
	.byte		N11   , Fs1 
	.byte	W12
	.byte		        Cn1 
	.byte		N11   , Fs1 
	.byte	W12
@ 070   ----------------------------------------
	.byte	PATT
	 .word	darkwastes4_8_055
@ 071   ----------------------------------------
	.byte	PATT
	 .word	darkwastes4_8_053
@ 072   ----------------------------------------
	.byte	PATT
	 .word	darkwastes4_8_039
@ 073   ----------------------------------------
	.byte	PATT
	 .word	darkwastes4_8_055
@ 074   ----------------------------------------
	.byte		N23   , Cn1 , v100
	.byte		N11   , Fs1 
	.byte	W12
	.byte		N11   
	.byte	W12
	.byte		N23   , Cn1 
	.byte		N11   , Fs1 
	.byte	W12
	.byte		N11   
	.byte	W12
	.byte		N23   , Cn1 
	.byte		N11   , Fs1 
	.byte	W12
	.byte		N11   
	.byte	W12
	.byte		N23   , Bn0 
	.byte		N23   , Cn1 
	.byte		N23   , Cs2 
	.byte	W24
@ 075   ----------------------------------------
	.byte	PATT
	 .word	darkwastes4_8_057
	.byte		EOT   , En2 
	.byte	W01
	.byte		N23   , Cn1 , v100
	.byte		N11   , Fs1 
	.byte		TIE   , En2 
	.byte	W12
	.byte		N11   , Fs1 
	.byte	W12
	.byte		        Cn1 
	.byte		N11   , Fs1 
	.byte	W12
	.byte		        Cn1 
	.byte		N11   , Fs1 
	.byte	W12
@ 076   ----------------------------------------
	.byte	PATT
	 .word	darkwastes4_8_040
@ 077   ----------------------------------------
	.byte	PATT
	 .word	darkwastes4_8_041
@ 078   ----------------------------------------
	.byte	PATT
	 .word	darkwastes4_8_042
@ 079   ----------------------------------------
	.byte	PATT
	 .word	darkwastes4_8_046
@ 080   ----------------------------------------
	.byte	PATT
	 .word	darkwastes4_8_041
@ 081   ----------------------------------------
	.byte	PATT
	 .word	darkwastes4_8_051
	.byte		EOT   , En2 
	.byte	W01
	.byte		N23   , Cn1 , v100
	.byte	W24
	.byte		N11   
	.byte	W12
	.byte		N11   
	.byte	W12
@ 082   ----------------------------------------
	.byte	PATT
	 .word	darkwastes4_8_046
@ 083   ----------------------------------------
	.byte	PATT
	 .word	darkwastes4_8_041
@ 084   ----------------------------------------
	.byte	PATT
	 .word	darkwastes4_8_042
@ 085   ----------------------------------------
	.byte	PATT
	 .word	darkwastes4_8_046
@ 086   ----------------------------------------
	.byte	PATT
	 .word	darkwastes4_8_041
@ 087   ----------------------------------------
	.byte	PATT
	 .word	darkwastes4_8_042
@ 088   ----------------------------------------
	.byte		N23   , Cn1 , v100
	.byte	W24
	.byte		        Bn0 
	.byte		N23   , Cn1 
	.byte		N23   , Cs2 
	.byte	W24
	.byte		N32   , Cn1 
	.byte		N11   , Fs1 
	.byte	W12
	.byte		N11   
	.byte	W12
	.byte		N11   
	.byte	W12
	.byte		        Cn1 
	.byte		N11   , Fs1 
	.byte	W12
@ 089   ----------------------------------------
	.byte		N23   , Cn1 
	.byte		N11   , Fs1 
	.byte	W12
	.byte		N11   
	.byte	W12
	.byte		N23   , Cn1 
	.byte		N11   , Fs1 
	.byte	W12
	.byte		N11   
	.byte	W12
	.byte		N23   , Cn1 
	.byte		N11   , Fs1 
	.byte	W12
	.byte		N11   
	.byte	W12
	.byte		N23   , Bn0 
	.byte		N23   , Cn1 
	.byte	W24
@ 090   ----------------------------------------
	.byte	PATT
	 .word	darkwastes4_8_039
@ 091   ----------------------------------------
	.byte		N23   , Cn1 , v100
	.byte		N44   , Ds1 
	.byte		N11   , Fs1 
	.byte	W12
	.byte		N11   
	.byte	W12
	.byte		N23   , Bn0 
	.byte		N23   , Cn1 
	.byte		N23   , Cs2 
	.byte	W24
	.byte	GOTO
	 .word	darkwastes4_8_B1
darkwastes4_8_B2:
	.byte		PAN   , c_v+0
	.byte		        c_v+0
	.byte		        c_v+0
	.byte		BEND  , c_v+0
	.byte	FINE

@******************************************************@
	.align	2

darkwastes4:
	.byte	8	@ NumTrks
	.byte	0	@ NumBlks
	.byte	darkwastes4_pri	@ Priority
	.byte	darkwastes4_rev	@ Reverb.

	.word	darkwastes4_grp

	.word	darkwastes4_1
	.word	darkwastes4_2
	.word	darkwastes4_3
	.word	darkwastes4_4
	.word	darkwastes4_5
	.word	darkwastes4_6
	.word	darkwastes4_7
	.word	darkwastes4_8

	.end
