	.include "MPlayDef.s"

	.equ	song51_grp, voicegroup000
	.equ	song51_pri, 0
	.equ	song51_rev, 0
	.equ	song51_mvl, 127
	.equ	song51_key, 0
	.equ	song51_tbs, 1
	.equ	song51_exg, 0
	.equ	song51_cmp, 1

	.section .rodata
	.global	song51
	.align	2


@**************** Track 1 (Midi-Chn.0) ****************@

song51_001:
@ 000   ----------------------------------------
 .byte   KEYSH , song51_key+0
 .byte   TEMPO , 280*song51_tbs/2
 .byte   VOICE , 73
 .byte   VOL , 59*song51_mvl/mxv
 .byte   PAN , c_v+0
 .byte   N15 ,Gn4 ,v064
 .byte   W16
 .byte   An4
 .byte   W16
 .byte   Bn4
 .byte   W16
 .byte   N32
 .byte   W36
 .byte   N11 ,Gn4
 .byte   W12
@ 001   ----------------------------------------
Label_0_014E689B:
 .byte   N15 ,Fs4 ,v064
 .byte   W16
 .byte   Gs4
 .byte   W16
 .byte   As4
 .byte   W16
 .byte   N32
 .byte   W36
 .byte   N11 ,Fs4
 .byte   W12
 .byte   PEND 
@ 002   ----------------------------------------
Label_0_014E68A9:
 .byte   N15 ,Dn5 ,v064
 .byte   W16
 .byte   Bn4
 .byte   W16
 .byte   Dn5
 .byte   W16
 .byte   Bn4
 .byte   W16
 .byte   Fs4
 .byte   W16
 .byte   Bn4
 .byte   W16
 .byte   PEND 
@ 003   ----------------------------------------
Label_0_014E68B8:
 .byte   N15 ,Fs4 ,v064
 .byte   W16
 .byte   Dn4
 .byte   W16
 .byte   Fs4
 .byte   W16
 .byte   Bn4
 .byte   W16
 .byte   Fs4
 .byte   W16
 .byte   Dn4
 .byte   W16
 .byte   PEND 
@ 004   ----------------------------------------
Label_0_014E68C7:
 .byte   N15 ,Gn4 ,v064
 .byte   W16
 .byte   Bn4
 .byte   W16
 .byte   Dn5
 .byte   W16
 .byte   Gn5
 .byte   W16
 .byte   Dn5
 .byte   W16
 .byte   Bn4
 .byte   W16
 .byte   PEND 
@ 005   ----------------------------------------
Label_0_014E68D6:
 .byte   N15 ,Fs4 ,v064
 .byte   W16
 .byte   As4
 .byte   W16
 .byte   Cs5
 .byte   W16
 .byte   N32 ,Fs5
 .byte   W36
 .byte   N11 ,Fs4
 .byte   W12
 .byte   PEND 
@ 006   ----------------------------------------
Label_0_014E68E5:
 .byte   N11 ,Bn4 ,v064
 .byte   W48
 .byte   Fs4
 .byte   W48
 .byte   PEND 
@ 007   ----------------------------------------
Label_0_014E68EC:
 .byte   N11 ,Bn4 ,v064
 .byte   W48
 .byte   Dn5
 .byte   W48
 .byte   PEND 
@ 008   ----------------------------------------
Label_0_014E68F3:
 .byte   N15 ,Gn4 ,v064
 .byte   W16
 .byte   An4
 .byte   W16
 .byte   Bn4
 .byte   W16
 .byte   N32
 .byte   W36
 .byte   N11 ,Gn4
 .byte   W12
 .byte   PEND 
 .byte   PATT
  .word Label_0_014E689B
 .byte   PATT
  .word Label_0_014E68A9
 .byte   PATT
  .word Label_0_014E68B8
 .byte   PATT
  .word Label_0_014E68C7
@ 009   ----------------------------------------
Label_0_014E6915:
 .byte   N15 ,Fs4 ,v064
 .byte   W16
 .byte   As4
 .byte   W16
 .byte   Cs5
 .byte   W16
 .byte   N32 ,Fs5
 .byte   W48
 .byte   PEND 
@ 010   ----------------------------------------
 .byte   N11 ,Bn4 ,v096
 .byte   W48
 .byte   Fs4
 .byte   W48
@ 011   ----------------------------------------
 .byte   Bn3
 .byte   W96
@ 012   ----------------------------------------
 .byte   W96
@ 013   ----------------------------------------
 .byte   W96
@ 014   ----------------------------------------
 .byte   W96
@ 015   ----------------------------------------
 .byte   W96
@ 016   ----------------------------------------
 .byte   W96
@ 017   ----------------------------------------
 .byte   W96
@ 018   ----------------------------------------
 .byte   N11
 .byte   W48
 .byte   Dn4
 .byte   W48
@ 019   ----------------------------------------
 .byte   Fs4
 .byte   W48
 .byte   Bn4
 .byte   W48
@ 020   ----------------------------------------
 .byte   W96
@ 021   ----------------------------------------
 .byte   W96
@ 022   ----------------------------------------
 .byte   W96
@ 023   ----------------------------------------
 .byte   W96
@ 024   ----------------------------------------
 .byte   W96
@ 025   ----------------------------------------
 .byte   W96
@ 026   ----------------------------------------
 .byte   W96
@ 027   ----------------------------------------
 .byte   W96
@ 028   ----------------------------------------
Label_0_014E693F:
 .byte   N23 ,Gn4 ,v052
 .byte   W48
 .byte   N23
 .byte   W48
 .byte   PEND 
@ 029   ----------------------------------------
 .byte   Fs4
 .byte   W48
 .byte   N23
 .byte   W48
@ 030   ----------------------------------------
 .byte   Bn3
 .byte   W48
 .byte   Dn4
 .byte   W24
 .byte   N68 ,Bn3
 .byte   W24
@ 031   ----------------------------------------
 .byte   W96
@ 032   ----------------------------------------
 .byte   W96
@ 033   ----------------------------------------
 .byte   W96
@ 034   ----------------------------------------
 .byte   W72
 .byte   N11 ,Bn4
 .byte   W12
 .byte   Cs5
 .byte   W12
@ 035   ----------------------------------------
 .byte   N23 ,Dn5
 .byte   W36
 .byte   N11 ,Cs5
 .byte   W12
 .byte   N23 ,Bn4
 .byte   W48
 .byte   PATT
  .word Label_0_014E693F
@ 036   ----------------------------------------
 .byte   N23 ,Fs4 ,v052
 .byte   W24
 .byte   N68
 .byte   W72
@ 037   ----------------------------------------
 .byte   N23 ,Bn3
 .byte   W48
 .byte   Dn4
 .byte   W24
 .byte   N32 ,Bn3
 .byte   W24
@ 038   ----------------------------------------
 .byte   W96
@ 039   ----------------------------------------
 .byte   W96
@ 040   ----------------------------------------
 .byte   W96
@ 041   ----------------------------------------
 .byte   W96
@ 042   ----------------------------------------
 .byte   W96
@ 043   ----------------------------------------
 .byte   W96
@ 044   ----------------------------------------
 .byte   W96
@ 045   ----------------------------------------
 .byte   W96
@ 046   ----------------------------------------
 .byte   W96
@ 047   ----------------------------------------
 .byte   W96
@ 048   ----------------------------------------
 .byte   W96
@ 049   ----------------------------------------
 .byte   W96
@ 050   ----------------------------------------
 .byte   W96
@ 051   ----------------------------------------
 .byte   W96
@ 052   ----------------------------------------
 .byte   W96
@ 053   ----------------------------------------
 .byte   W96
@ 054   ----------------------------------------
 .byte   W96
@ 055   ----------------------------------------
 .byte   W96
@ 056   ----------------------------------------
 .byte   W96
@ 057   ----------------------------------------
 .byte   W96
@ 058   ----------------------------------------
 .byte   W96
@ 059   ----------------------------------------
 .byte   W96
@ 060   ----------------------------------------
 .byte   W96
@ 061   ----------------------------------------
 .byte   W96
@ 062   ----------------------------------------
 .byte   W96
@ 063   ----------------------------------------
 .byte   W96
@ 064   ----------------------------------------
 .byte   W96
@ 065   ----------------------------------------
 .byte   N11
 .byte   W48
 .byte   Dn4
 .byte   W48
@ 066   ----------------------------------------
 .byte   Fs4
 .byte   W48
 .byte   Bn4
 .byte   W48
@ 067   ----------------------------------------
 .byte   W96
@ 068   ----------------------------------------
 .byte   W96
@ 069   ----------------------------------------
 .byte   W96
@ 070   ----------------------------------------
 .byte   W96
@ 071   ----------------------------------------
 .byte   W96
@ 072   ----------------------------------------
 .byte   W96
@ 073   ----------------------------------------
 .byte   W96
@ 074   ----------------------------------------
 .byte   W96
 .byte   PATT
  .word Label_0_014E68F3
 .byte   PATT
  .word Label_0_014E689B
 .byte   PATT
  .word Label_0_014E68A9
 .byte   PATT
  .word Label_0_014E68B8
 .byte   PATT
  .word Label_0_014E68C7
 .byte   PATT
  .word Label_0_014E68D6
 .byte   PATT
  .word Label_0_014E68E5
 .byte   PATT
  .word Label_0_014E68EC
 .byte   PATT
  .word Label_0_014E68F3
 .byte   PATT
  .word Label_0_014E689B
 .byte   PATT
  .word Label_0_014E68A9
 .byte   PATT
  .word Label_0_014E68B8
 .byte   PATT
  .word Label_0_014E68C7
 .byte   PATT
  .word Label_0_014E6915
 .byte   PATT
  .word Label_0_014E68E5
@ 075   ----------------------------------------
 .byte   N11 ,Bn3 ,v064
 .byte   W96
@ 076   ----------------------------------------
 .byte   W96
@ 077   ----------------------------------------
 .byte   W96
@ 078   ----------------------------------------
 .byte   W96
@ 079   ----------------------------------------
 .byte   W96
@ 080   ----------------------------------------
 .byte   W96
@ 081   ----------------------------------------
 .byte   W96
@ 082   ----------------------------------------
 .byte   N11
 .byte   W48
 .byte   Dn4
 .byte   W48
@ 083   ----------------------------------------
 .byte   Fs4
 .byte   W48
 .byte   Bn4
 .byte   W48
@ 084   ----------------------------------------
 .byte   W96
@ 085   ----------------------------------------
 .byte   W96
@ 086   ----------------------------------------
 .byte   W96
@ 087   ----------------------------------------
 .byte   W96
@ 088   ----------------------------------------
 .byte   N92 ,Dn5 ,v080
 .byte   W96
@ 089   ----------------------------------------
 .byte   En5
 .byte   W96
@ 090   ----------------------------------------
 .byte   Cs5
 .byte   W96
@ 091   ----------------------------------------
 .byte   Dn5
 .byte   W96
@ 092   ----------------------------------------
 .byte   TIE ,Bn4 ,v036
 .byte   W96
@ 093   ----------------------------------------
 .byte   W92
 .byte   W03
 .byte   EOT
 .byte   FINE

@**************** Track 2 (Midi-Chn.1) ****************@

song51_002:
@ 000   ----------------------------------------
 .byte   KEYSH , song51_key+0
 .byte   VOICE , 67
 .byte   VOL , 59*song51_mvl/mxv
 .byte   PAN , c_v+0
 .byte   W96
@ 001   ----------------------------------------
 .byte   W96
@ 002   ----------------------------------------
 .byte   W96
@ 003   ----------------------------------------
 .byte   W96
@ 004   ----------------------------------------
 .byte   W96
@ 005   ----------------------------------------
 .byte   W96
@ 006   ----------------------------------------
 .byte   N11 ,Bn3 ,v036
 .byte   W48
 .byte   Dn4
 .byte   W48
@ 007   ----------------------------------------
 .byte   Fs4
 .byte   W48
 .byte   Bn3
 .byte   W48
@ 008   ----------------------------------------
 .byte   W96
@ 009   ----------------------------------------
 .byte   W96
@ 010   ----------------------------------------
 .byte   W96
@ 011   ----------------------------------------
 .byte   W96
@ 012   ----------------------------------------
 .byte   W96
@ 013   ----------------------------------------
 .byte   W96
@ 014   ----------------------------------------
 .byte   Bn3 ,v096
 .byte   W48
 .byte   Fs3
 .byte   W48
@ 015   ----------------------------------------
 .byte   Bn2
 .byte   W96
@ 016   ----------------------------------------
Label_1_014E6A39:
 .byte   N23 ,Gn4 ,v064
 .byte   W48
 .byte   N23
 .byte   W48
 .byte   PEND 
@ 017   ----------------------------------------
Label_1_014E6A40:
 .byte   N23 ,Fs4 ,v064
 .byte   W48
 .byte   N23
 .byte   W48
 .byte   PEND 
@ 018   ----------------------------------------
 .byte   Bn3
 .byte   W48
 .byte   Dn4
 .byte   W24
 .byte   N56 ,Bn3
 .byte   W24
@ 019   ----------------------------------------
 .byte   W96
@ 020   ----------------------------------------
 .byte   W96
@ 021   ----------------------------------------
 .byte   W96
@ 022   ----------------------------------------
 .byte   N15 ,Bn2 ,v080
 .byte   W16
 .byte   Dn3
 .byte   W16
 .byte   Fs3
 .byte   W16
 .byte   Bn3
 .byte   W16
 .byte   Fs3
 .byte   W16
 .byte   Dn3
 .byte   W16
@ 023   ----------------------------------------
 .byte   N23 ,Bn2
 .byte   W96
 .byte   PATT
  .word Label_1_014E6A39
 .byte   PATT
  .word Label_1_014E6A40
@ 024   ----------------------------------------
 .byte   N23 ,Bn3 ,v064
 .byte   W48
 .byte   Dn4
 .byte   W48
@ 025   ----------------------------------------
 .byte   N92 ,Bn3
 .byte   W96
@ 026   ----------------------------------------
 .byte   W96
@ 027   ----------------------------------------
 .byte   W96
@ 028   ----------------------------------------
 .byte   W96
@ 029   ----------------------------------------
 .byte   W96
@ 030   ----------------------------------------
Label_1_014E6A79:
 .byte   N23 ,Gn3 ,v052
 .byte   W48
 .byte   N23
 .byte   W48
 .byte   PEND 
@ 031   ----------------------------------------
Label_1_014E6A80:
 .byte   N23 ,Fs3 ,v052
 .byte   W48
 .byte   N23
 .byte   W48
 .byte   PEND 
@ 032   ----------------------------------------
 .byte   Bn2
 .byte   W48
 .byte   Dn3
 .byte   W24
 .byte   N68 ,Bn2
 .byte   W24
@ 033   ----------------------------------------
 .byte   W96
@ 034   ----------------------------------------
 .byte   W96
@ 035   ----------------------------------------
 .byte   W96
@ 036   ----------------------------------------
 .byte   W72
 .byte   N11 ,Bn3
 .byte   W12
 .byte   Cs4
 .byte   W12
@ 037   ----------------------------------------
 .byte   N23 ,Dn4
 .byte   W36
 .byte   N11 ,Cs4
 .byte   W12
 .byte   Bn3
 .byte   W48
@ 038   ----------------------------------------
 .byte   N23 ,Gn4
 .byte   W48
 .byte   N23
 .byte   W48
@ 039   ----------------------------------------
 .byte   Fs4
 .byte   W24
 .byte   N68
 .byte   W72
@ 040   ----------------------------------------
 .byte   N23 ,Bn3
 .byte   W48
 .byte   Dn4
 .byte   W24
 .byte   N68 ,Bn3
 .byte   W24
@ 041   ----------------------------------------
 .byte   W96
@ 042   ----------------------------------------
 .byte   W96
@ 043   ----------------------------------------
 .byte   W96
@ 044   ----------------------------------------
 .byte   W96
@ 045   ----------------------------------------
 .byte   W96
@ 046   ----------------------------------------
Label_1_014E6AB5:
 .byte   N23 ,Fs3 ,v064
 .byte   W48
 .byte   Gn3
 .byte   W48
 .byte   PEND 
 .byte   PATT
  .word Label_1_014E6AB5
@ 047   ----------------------------------------
 .byte   N23 ,An3 ,v064
 .byte   W48
 .byte   Bn3
 .byte   W24
 .byte   N44 ,An3
 .byte   W24
@ 048   ----------------------------------------
 .byte   W48
 .byte   N23 ,Gn3
 .byte   W48
 .byte   PATT
  .word Label_1_014E6AB5
@ 049   ----------------------------------------
 .byte   N23 ,Fs3 ,v064
 .byte   W48
 .byte   En3
 .byte   W48
@ 050   ----------------------------------------
 .byte   Ds3
 .byte   W96
@ 051   ----------------------------------------
 .byte   W72
 .byte   Dn3 ,v080
 .byte   W24
@ 052   ----------------------------------------
 .byte   En3
 .byte   W48
 .byte   Fs3
 .byte   W48
@ 053   ----------------------------------------
 .byte   En3
 .byte   W48
 .byte   Fs3
 .byte   W48
@ 054   ----------------------------------------
 .byte   Gn3
 .byte   W48
 .byte   An3
 .byte   W24
 .byte   N44 ,Gn3
 .byte   W24
@ 055   ----------------------------------------
 .byte   W48
 .byte   N23 ,Fs3
 .byte   W48
@ 056   ----------------------------------------
 .byte   En3
 .byte   W48
 .byte   Fs3
 .byte   W48
@ 057   ----------------------------------------
 .byte   Gn3
 .byte   W48
 .byte   Bn3
 .byte   W48
@ 058   ----------------------------------------
 .byte   As3
 .byte   W96
@ 059   ----------------------------------------
 .byte   W96
@ 060   ----------------------------------------
 .byte   Gn3
 .byte   W48
 .byte   N23
 .byte   W48
@ 061   ----------------------------------------
 .byte   Fs3
 .byte   W48
 .byte   N23
 .byte   W48
@ 062   ----------------------------------------
 .byte   Bn2
 .byte   W48
 .byte   Dn3
 .byte   W24
 .byte   N56 ,Bn2
 .byte   W24
@ 063   ----------------------------------------
 .byte   W48
 .byte   N23
 .byte   W48
@ 064   ----------------------------------------
 .byte   W96
@ 065   ----------------------------------------
 .byte   W96
@ 066   ----------------------------------------
 .byte   N15 ,Bn3 ,v052
 .byte   W16
 .byte   Fs3
 .byte   W16
 .byte   Dn3
 .byte   W16
 .byte   Bn3
 .byte   W16
 .byte   Fs3
 .byte   W16
 .byte   Dn3
 .byte   W16
@ 067   ----------------------------------------
 .byte   Bn2
 .byte   W96
@ 068   ----------------------------------------
 .byte   W96
@ 069   ----------------------------------------
 .byte   W96
@ 070   ----------------------------------------
 .byte   W96
@ 071   ----------------------------------------
 .byte   W96
@ 072   ----------------------------------------
 .byte   W96
@ 073   ----------------------------------------
 .byte   W96
@ 074   ----------------------------------------
 .byte   W96
@ 075   ----------------------------------------
 .byte   W96
@ 076   ----------------------------------------
 .byte   W96
@ 077   ----------------------------------------
 .byte   W96
@ 078   ----------------------------------------
 .byte   W96
@ 079   ----------------------------------------
 .byte   W96
@ 080   ----------------------------------------
 .byte   W96
@ 081   ----------------------------------------
 .byte   W96
@ 082   ----------------------------------------
 .byte   N11 ,Bn3
 .byte   W48
 .byte   Dn4
 .byte   W48
@ 083   ----------------------------------------
 .byte   Fs4
 .byte   W48
 .byte   Bn3
 .byte   W48
@ 084   ----------------------------------------
 .byte   W96
@ 085   ----------------------------------------
 .byte   W96
@ 086   ----------------------------------------
 .byte   W96
@ 087   ----------------------------------------
 .byte   W96
@ 088   ----------------------------------------
 .byte   W96
@ 089   ----------------------------------------
 .byte   W96
@ 090   ----------------------------------------
 .byte   N11
 .byte   W48
 .byte   Fs3
 .byte   W48
@ 091   ----------------------------------------
 .byte   Bn2
 .byte   W96
 .byte   PATT
  .word Label_1_014E6A79
 .byte   PATT
  .word Label_1_014E6A80
@ 092   ----------------------------------------
 .byte   N23 ,Bn2 ,v052
 .byte   W48
 .byte   Dn3
 .byte   W24
 .byte   N56 ,Bn2
 .byte   W24
@ 093   ----------------------------------------
 .byte   W48
 .byte   N23
 .byte   W48
@ 094   ----------------------------------------
 .byte   W96
@ 095   ----------------------------------------
 .byte   W96
@ 096   ----------------------------------------
 .byte   W96
@ 097   ----------------------------------------
 .byte   W96
@ 098   ----------------------------------------
 .byte   W96
@ 099   ----------------------------------------
 .byte   W96
@ 100   ----------------------------------------
 .byte   W96
@ 101   ----------------------------------------
 .byte   W96
@ 102   ----------------------------------------
 .byte   W96
@ 103   ----------------------------------------
 .byte   W96
@ 104   ----------------------------------------
 .byte   W96
@ 105   ----------------------------------------
 .byte   W96
@ 106   ----------------------------------------
 .byte   TIE ,Bn3 ,v036
 .byte   W96
@ 107   ----------------------------------------
 .byte   W92
 .byte   W03
 .byte   EOT
 .byte   FINE

@**************** Track 3 (Midi-Chn.2) ****************@

song51_003:
@ 000   ----------------------------------------
 .byte   KEYSH , song51_key+0
 .byte   VOICE , 67
 .byte   VOL , 59*song51_mvl/mxv
 .byte   PAN , c_v+0
 .byte   W96
@ 001   ----------------------------------------
 .byte   W96
@ 002   ----------------------------------------
 .byte   W96
@ 003   ----------------------------------------
 .byte   W96
@ 004   ----------------------------------------
 .byte   W96
@ 005   ----------------------------------------
 .byte   W96
@ 006   ----------------------------------------
 .byte   W96
@ 007   ----------------------------------------
 .byte   W96
@ 008   ----------------------------------------
 .byte   W96
@ 009   ----------------------------------------
 .byte   W96
@ 010   ----------------------------------------
 .byte   W96
@ 011   ----------------------------------------
 .byte   W96
@ 012   ----------------------------------------
 .byte   W96
@ 013   ----------------------------------------
 .byte   W96
@ 014   ----------------------------------------
 .byte   W96
@ 015   ----------------------------------------
 .byte   W96
@ 016   ----------------------------------------
Label_2_014E6B88:
 .byte   N23 ,Gn3 ,v052
 .byte   W48
 .byte   N23
 .byte   W48
 .byte   PEND 
@ 017   ----------------------------------------
Label_2_014E6B8F:
 .byte   N23 ,Fs3 ,v052
 .byte   W48
 .byte   N23
 .byte   W48
 .byte   PEND 
@ 018   ----------------------------------------
 .byte   Bn2
 .byte   W48
 .byte   Dn3
 .byte   W24
 .byte   N56 ,Bn2
 .byte   W24
@ 019   ----------------------------------------
 .byte   W48
 .byte   N23
 .byte   W48
@ 020   ----------------------------------------
 .byte   Gn3
 .byte   W24
 .byte   N68
 .byte   W72
 .byte   PATT
  .word Label_2_014E6B8F
@ 021   ----------------------------------------
 .byte   N23 ,Bn2 ,v052
 .byte   W96
@ 022   ----------------------------------------
 .byte   W96
 .byte   PATT
  .word Label_2_014E6B88
 .byte   PATT
  .word Label_2_014E6B8F
@ 023   ----------------------------------------
 .byte   N23 ,Bn2 ,v052
 .byte   W48
 .byte   Dn3
 .byte   W48
@ 024   ----------------------------------------
 .byte   N92 ,Bn2
 .byte   W96
@ 025   ----------------------------------------
 .byte   W96
@ 026   ----------------------------------------
 .byte   W96
@ 027   ----------------------------------------
 .byte   N23 ,Bn3
 .byte   W36
 .byte   N11 ,Fs3
 .byte   W12
 .byte   N23 ,Bn3
 .byte   W36
 .byte   N11 ,Fs3
 .byte   W12
@ 028   ----------------------------------------
 .byte   N23 ,Bn3
 .byte   W96
 .byte   PATT
  .word Label_2_014E6B88
 .byte   PATT
  .word Label_2_014E6B8F
@ 029   ----------------------------------------
Label_2_014E6BDC:
 .byte   N23 ,Bn2 ,v052
 .byte   W48
 .byte   Dn3
 .byte   W24
 .byte   N68 ,Bn2
 .byte   W24
 .byte   PEND 
@ 030   ----------------------------------------
 .byte   W96
@ 031   ----------------------------------------
 .byte   W96
@ 032   ----------------------------------------
 .byte   W96
@ 033   ----------------------------------------
 .byte   W96
@ 034   ----------------------------------------
 .byte   W96
 .byte   PATT
  .word Label_2_014E6B88
@ 035   ----------------------------------------
 .byte   N23 ,Fs3 ,v052
 .byte   W24
 .byte   N68
 .byte   W72
 .byte   PATT
  .word Label_2_014E6BDC
@ 036   ----------------------------------------
 .byte   W48
 .byte   N23 ,Bn2 ,v052
 .byte   W24
 .byte   Cs3
 .byte   W24
@ 037   ----------------------------------------
 .byte   Dn3
 .byte   W48
 .byte   En3
 .byte   W48
@ 038   ----------------------------------------
 .byte   Cs3
 .byte   W48
 .byte   Dn3
 .byte   W48
@ 039   ----------------------------------------
 .byte   N44 ,Bn2
 .byte   W96
@ 040   ----------------------------------------
 .byte   N23
 .byte   W96
@ 041   ----------------------------------------
 .byte   W96
@ 042   ----------------------------------------
 .byte   W96
@ 043   ----------------------------------------
 .byte   W96
@ 044   ----------------------------------------
 .byte   W96
@ 045   ----------------------------------------
 .byte   W96
@ 046   ----------------------------------------
 .byte   W96
@ 047   ----------------------------------------
 .byte   W96
@ 048   ----------------------------------------
 .byte   W72
 .byte   Dn2 ,v036
 .byte   W24
@ 049   ----------------------------------------
Label_2_014E6C1A:
 .byte   N23 ,En2 ,v036
 .byte   W48
 .byte   Fs2
 .byte   W48
 .byte   PEND 
 .byte   PATT
  .word Label_2_014E6C1A
@ 050   ----------------------------------------
 .byte   N23 ,Gn2 ,v036
 .byte   W48
 .byte   An2
 .byte   W24
 .byte   N44 ,Gn2
 .byte   W24
@ 051   ----------------------------------------
 .byte   W48
 .byte   N23 ,Fs2
 .byte   W48
 .byte   PATT
  .word Label_2_014E6C1A
@ 052   ----------------------------------------
 .byte   N23 ,Gn2 ,v036
 .byte   W48
 .byte   Bn2
 .byte   W48
@ 053   ----------------------------------------
 .byte   As2
 .byte   W96
@ 054   ----------------------------------------
 .byte   W96
@ 055   ----------------------------------------
 .byte   W96
@ 056   ----------------------------------------
 .byte   W96
@ 057   ----------------------------------------
 .byte   W96
@ 058   ----------------------------------------
 .byte   W96
@ 059   ----------------------------------------
 .byte   W96
@ 060   ----------------------------------------
 .byte   W96
@ 061   ----------------------------------------
 .byte   N11 ,Bn2
 .byte   W48
 .byte   Dn3
 .byte   W48
@ 062   ----------------------------------------
 .byte   Fs3
 .byte   W48
 .byte   Bn3
 .byte   W48
@ 063   ----------------------------------------
 .byte   W96
@ 064   ----------------------------------------
 .byte   W96
@ 065   ----------------------------------------
 .byte   W96
@ 066   ----------------------------------------
 .byte   W96
@ 067   ----------------------------------------
 .byte   W96
@ 068   ----------------------------------------
 .byte   W96
@ 069   ----------------------------------------
 .byte   W96
@ 070   ----------------------------------------
 .byte   W96
@ 071   ----------------------------------------
 .byte   W96
@ 072   ----------------------------------------
 .byte   W96
@ 073   ----------------------------------------
 .byte   W96
@ 074   ----------------------------------------
 .byte   W96
@ 075   ----------------------------------------
 .byte   W96
@ 076   ----------------------------------------
 .byte   W96
@ 077   ----------------------------------------
 .byte   Dn3 ,v064
 .byte   W48
 .byte   Fs3
 .byte   W48
@ 078   ----------------------------------------
 .byte   Bn3
 .byte   W48
 .byte   Dn3
 .byte   W48
@ 079   ----------------------------------------
 .byte   W96
@ 080   ----------------------------------------
 .byte   W96
@ 081   ----------------------------------------
 .byte   W96
@ 082   ----------------------------------------
 .byte   W96
@ 083   ----------------------------------------
 .byte   W96
@ 084   ----------------------------------------
 .byte   W96
@ 085   ----------------------------------------
 .byte   W96
@ 086   ----------------------------------------
 .byte   W96
@ 087   ----------------------------------------
 .byte   W96
@ 088   ----------------------------------------
 .byte   W96
@ 089   ----------------------------------------
 .byte   W96
@ 090   ----------------------------------------
 .byte   W96
@ 091   ----------------------------------------
 .byte   W96
@ 092   ----------------------------------------
 .byte   W96
@ 093   ----------------------------------------
 .byte   Bn2
 .byte   W48
 .byte   Dn3
 .byte   W48
@ 094   ----------------------------------------
 .byte   Fs3
 .byte   W48
 .byte   Bn3
 .byte   W48
@ 095   ----------------------------------------
 .byte   W96
@ 096   ----------------------------------------
 .byte   W96
@ 097   ----------------------------------------
 .byte   W96
@ 098   ----------------------------------------
 .byte   W96
@ 099   ----------------------------------------
 .byte   W96
@ 100   ----------------------------------------
 .byte   W96
@ 101   ----------------------------------------
 .byte   W96
@ 102   ----------------------------------------
 .byte   W96
@ 103   ----------------------------------------
 .byte   TIE ,Bn2 ,v036
 .byte   W96
@ 104   ----------------------------------------
 .byte   W92
 .byte   W03
 .byte   EOT
 .byte   FINE

@**************** Track 4 (Midi-Chn.3) ****************@

song51_004:
@ 000   ----------------------------------------
 .byte   KEYSH , song51_key+0
 .byte   VOICE , 60
 .byte   VOL , 59*song51_mvl/mxv
 .byte   PAN , c_v+0
 .byte   N44 ,Gn2 ,v052
 .byte   W96
@ 001   ----------------------------------------
 .byte   Fs2
 .byte   W96
@ 002   ----------------------------------------
 .byte   Bn1
 .byte   W96
@ 003   ----------------------------------------
 .byte   Dn2
 .byte   W96
@ 004   ----------------------------------------
 .byte   Gn2
 .byte   W96
@ 005   ----------------------------------------
 .byte   Fs2
 .byte   W96
@ 006   ----------------------------------------
Label_3_014E6CA6:
 .byte   N11 ,Bn1 ,v052
 .byte   W48
 .byte   Dn2
 .byte   W48
 .byte   PEND 
@ 007   ----------------------------------------
Label_3_014E6CAD:
 .byte   N11 ,Fs2 ,v052
 .byte   W48
 .byte   Bn2
 .byte   W48
 .byte   PEND 
@ 008   ----------------------------------------
 .byte   N44 ,Gn2
 .byte   W96
@ 009   ----------------------------------------
 .byte   Fs2
 .byte   W96
@ 010   ----------------------------------------
 .byte   Bn1
 .byte   W96
@ 011   ----------------------------------------
 .byte   Dn2
 .byte   W96
@ 012   ----------------------------------------
 .byte   Gn2
 .byte   W96
@ 013   ----------------------------------------
 .byte   Fs2
 .byte   W96
@ 014   ----------------------------------------
 .byte   N11 ,Bn3 ,v096
 .byte   W48
 .byte   Fs3
 .byte   W48
@ 015   ----------------------------------------
 .byte   Bn2
 .byte   W96
@ 016   ----------------------------------------
 .byte   W96
@ 017   ----------------------------------------
 .byte   W96
@ 018   ----------------------------------------
 .byte   W96
@ 019   ----------------------------------------
 .byte   W96
@ 020   ----------------------------------------
 .byte   W96
@ 021   ----------------------------------------
 .byte   W96
@ 022   ----------------------------------------
 .byte   N11
 .byte   W48
 .byte   Dn3
 .byte   W48
@ 023   ----------------------------------------
 .byte   Fs3
 .byte   W48
 .byte   Bn3
 .byte   W48
@ 024   ----------------------------------------
 .byte   W96
@ 025   ----------------------------------------
 .byte   W96
@ 026   ----------------------------------------
 .byte   W96
@ 027   ----------------------------------------
 .byte   W96
@ 028   ----------------------------------------
 .byte   W96
@ 029   ----------------------------------------
 .byte   W96
@ 030   ----------------------------------------
 .byte   W96
@ 031   ----------------------------------------
 .byte   W96
@ 032   ----------------------------------------
Label_3_014E6CDF:
 .byte   N23 ,Gn3 ,v052
 .byte   W48
 .byte   N23
 .byte   W48
 .byte   PEND 
@ 033   ----------------------------------------
 .byte   Fs3
 .byte   W48
 .byte   N23
 .byte   W48
@ 034   ----------------------------------------
Label_3_014E6CEA:
 .byte   N23 ,Bn2 ,v052
 .byte   W48
 .byte   Dn3
 .byte   W24
 .byte   N68 ,Bn2
 .byte   W24
 .byte   PEND 
@ 035   ----------------------------------------
 .byte   W96
@ 036   ----------------------------------------
 .byte   W96
@ 037   ----------------------------------------
 .byte   W96
@ 038   ----------------------------------------
 .byte   W72
 .byte   N11
 .byte   W12
 .byte   Cs3
 .byte   W12
@ 039   ----------------------------------------
 .byte   N23 ,Dn3
 .byte   W48
 .byte   Bn2
 .byte   W48
 .byte   PATT
  .word Label_3_014E6CDF
@ 040   ----------------------------------------
 .byte   N23 ,Fs3 ,v052
 .byte   W24
 .byte   N68
 .byte   W72
 .byte   PATT
  .word Label_3_014E6CEA
@ 041   ----------------------------------------
 .byte   W96
@ 042   ----------------------------------------
 .byte   W96
@ 043   ----------------------------------------
 .byte   W96
@ 044   ----------------------------------------
 .byte   W96
@ 045   ----------------------------------------
 .byte   W96
@ 046   ----------------------------------------
 .byte   N23 ,Fs3 ,v036
 .byte   W96
@ 047   ----------------------------------------
 .byte   Dn3
 .byte   W96
@ 048   ----------------------------------------
 .byte   An2
 .byte   W96
@ 049   ----------------------------------------
 .byte   An3
 .byte   W96
@ 050   ----------------------------------------
 .byte   Fs3
 .byte   W96
@ 051   ----------------------------------------
 .byte   N23
 .byte   W48
 .byte   En3
 .byte   W48
@ 052   ----------------------------------------
 .byte   Ds3
 .byte   W96
@ 053   ----------------------------------------
 .byte   W96
@ 054   ----------------------------------------
 .byte   En3
 .byte   W48
 .byte   Dn3
 .byte   W48
@ 055   ----------------------------------------
 .byte   Gn3
 .byte   W48
 .byte   Fs3
 .byte   W48
@ 056   ----------------------------------------
 .byte   En3
 .byte   W48
 .byte   Dn3
 .byte   W48
@ 057   ----------------------------------------
 .byte   Cs3
 .byte   W96
@ 058   ----------------------------------------
 .byte   En2 ,v052
 .byte   W48
 .byte   Fs2
 .byte   W48
@ 059   ----------------------------------------
 .byte   Gn2
 .byte   W48
 .byte   Bn2
 .byte   W48
@ 060   ----------------------------------------
 .byte   As2
 .byte   W96
@ 061   ----------------------------------------
 .byte   W96
@ 062   ----------------------------------------
 .byte   W96
@ 063   ----------------------------------------
 .byte   W96
@ 064   ----------------------------------------
 .byte   W96
@ 065   ----------------------------------------
 .byte   W96
@ 066   ----------------------------------------
 .byte   W96
@ 067   ----------------------------------------
 .byte   W96
@ 068   ----------------------------------------
Label_3_014E6D49:
 .byte   N11 ,Bn2 ,v052
 .byte   W48
 .byte   Dn3
 .byte   W48
 .byte   PEND 
@ 069   ----------------------------------------
Label_3_014E6D50:
 .byte   N11 ,Fs3 ,v052
 .byte   W48
 .byte   Bn3
 .byte   W48
 .byte   PEND 
@ 070   ----------------------------------------
 .byte   W96
@ 071   ----------------------------------------
 .byte   W96
@ 072   ----------------------------------------
 .byte   W96
@ 073   ----------------------------------------
 .byte   W96
@ 074   ----------------------------------------
 .byte   W96
@ 075   ----------------------------------------
 .byte   W96
@ 076   ----------------------------------------
 .byte   W96
@ 077   ----------------------------------------
 .byte   W96
@ 078   ----------------------------------------
 .byte   N44 ,Gn2
 .byte   W96
@ 079   ----------------------------------------
 .byte   Fs2
 .byte   W96
@ 080   ----------------------------------------
 .byte   Bn1
 .byte   W96
@ 081   ----------------------------------------
 .byte   Dn2
 .byte   W96
@ 082   ----------------------------------------
 .byte   Gn2
 .byte   W96
@ 083   ----------------------------------------
 .byte   Fs2
 .byte   W96
 .byte   PATT
  .word Label_3_014E6CA6
 .byte   PATT
  .word Label_3_014E6CAD
@ 084   ----------------------------------------
 .byte   N44 ,Gn2 ,v052
 .byte   W96
@ 085   ----------------------------------------
 .byte   Fs2
 .byte   W96
@ 086   ----------------------------------------
 .byte   Bn1
 .byte   W96
@ 087   ----------------------------------------
 .byte   Dn2
 .byte   W96
@ 088   ----------------------------------------
 .byte   Gn2
 .byte   W96
@ 089   ----------------------------------------
 .byte   Fs2
 .byte   W96
@ 090   ----------------------------------------
 .byte   N11 ,Bn3
 .byte   W48
 .byte   Fs3
 .byte   W48
@ 091   ----------------------------------------
 .byte   Bn2
 .byte   W96
@ 092   ----------------------------------------
 .byte   W96
@ 093   ----------------------------------------
 .byte   W96
@ 094   ----------------------------------------
 .byte   W96
@ 095   ----------------------------------------
 .byte   W96
@ 096   ----------------------------------------
 .byte   W96
@ 097   ----------------------------------------
 .byte   W96
 .byte   PATT
  .word Label_3_014E6D49
 .byte   PATT
  .word Label_3_014E6D50
@ 098   ----------------------------------------
 .byte   W96
@ 099   ----------------------------------------
 .byte   W96
@ 100   ----------------------------------------
 .byte   W96
@ 101   ----------------------------------------
 .byte   W96
@ 102   ----------------------------------------
 .byte   W96
@ 103   ----------------------------------------
 .byte   W96
@ 104   ----------------------------------------
 .byte   W96
@ 105   ----------------------------------------
 .byte   W96
@ 106   ----------------------------------------
 .byte   TIE ,Bn2 ,v036
 .byte   W96
@ 107   ----------------------------------------
 .byte   W92
 .byte   W03
 .byte   EOT
 .byte   FINE

@**************** Track 5 (Midi-Chn.4) ****************@

song51_005:
@ 000   ----------------------------------------
 .byte   KEYSH , song51_key+0
 .byte   VOICE , 56
 .byte   VOL , 59*song51_mvl/mxv
 .byte   PAN , c_v+0
 .byte   W96
@ 001   ----------------------------------------
 .byte   W96
@ 002   ----------------------------------------
 .byte   W96
@ 003   ----------------------------------------
 .byte   W96
@ 004   ----------------------------------------
 .byte   W96
@ 005   ----------------------------------------
 .byte   W96
@ 006   ----------------------------------------
 .byte   N11 ,Bn3 ,v036
 .byte   W48
 .byte   Dn4
 .byte   W48
@ 007   ----------------------------------------
 .byte   Fs4
 .byte   W48
 .byte   Bn3
 .byte   W48
@ 008   ----------------------------------------
 .byte   W96
@ 009   ----------------------------------------
 .byte   W96
@ 010   ----------------------------------------
 .byte   W96
@ 011   ----------------------------------------
 .byte   W96
@ 012   ----------------------------------------
 .byte   W96
@ 013   ----------------------------------------
 .byte   W96
@ 014   ----------------------------------------
 .byte   Bn3 ,v096
 .byte   W48
 .byte   Fs3
 .byte   W48
@ 015   ----------------------------------------
 .byte   Bn2
 .byte   W96
@ 016   ----------------------------------------
Label_4_014E6DD1:
 .byte   N23 ,Gn3 ,v080
 .byte   W48
 .byte   N23
 .byte   W48
 .byte   PEND 
@ 017   ----------------------------------------
Label_4_014E6DD8:
 .byte   N23 ,Fs3 ,v080
 .byte   W48
 .byte   N23
 .byte   W48
 .byte   PEND 
@ 018   ----------------------------------------
Label_4_014E6DDF:
 .byte   N23 ,Bn2 ,v080
 .byte   W48
 .byte   Dn3
 .byte   W24
 .byte   N68 ,Bn2
 .byte   W24
 .byte   PEND 
@ 019   ----------------------------------------
 .byte   W48
 .byte   N23
 .byte   W48
@ 020   ----------------------------------------
Label_4_014E6DEC:
 .byte   N23 ,Gn3 ,v080
 .byte   W24
 .byte   N68
 .byte   W72
 .byte   PEND 
 .byte   PATT
  .word Label_4_014E6DD8
@ 021   ----------------------------------------
 .byte   N44 ,Bn2 ,v080
 .byte   W96
@ 022   ----------------------------------------
 .byte   W96
 .byte   PATT
  .word Label_4_014E6DD1
 .byte   PATT
  .word Label_4_014E6DD8
@ 023   ----------------------------------------
Label_4_014E6E07:
 .byte   N23 ,Bn2 ,v080
 .byte   W48
 .byte   Dn3
 .byte   W48
 .byte   PEND 
@ 024   ----------------------------------------
 .byte   N92 ,Bn2
 .byte   W96
@ 025   ----------------------------------------
Label_4_014E6E11:
 .byte   N23 ,Dn3 ,v080
 .byte   W48
 .byte   En3
 .byte   W48
 .byte   PEND 
@ 026   ----------------------------------------
Label_4_014E6E18:
 .byte   N23 ,Cs3 ,v080
 .byte   W48
 .byte   Dn3
 .byte   W48
 .byte   PEND 
@ 027   ----------------------------------------
Label_4_014E6E1F:
 .byte   N23 ,Bn2 ,v080
 .byte   W48
 .byte   Fs2
 .byte   W48
 .byte   PEND 
@ 028   ----------------------------------------
 .byte   N44 ,Bn2
 .byte   W96
 .byte   PATT
  .word Label_4_014E6DD1
 .byte   PATT
  .word Label_4_014E6DD8
 .byte   PATT
  .word Label_4_014E6DDF
@ 029   ----------------------------------------
 .byte   W96
 .byte   PATT
  .word Label_4_014E6DD1
 .byte   PATT
  .word Label_4_014E6DD8
@ 030   ----------------------------------------
 .byte   N23 ,Bn2 ,v080
 .byte   W96
@ 031   ----------------------------------------
 .byte   W48
 .byte   N44 ,Fs3
 .byte   W48
 .byte   PATT
  .word Label_4_014E6DD1
@ 032   ----------------------------------------
 .byte   N23 ,Fs3 ,v080
 .byte   W24
 .byte   N68
 .byte   W72
 .byte   PATT
  .word Label_4_014E6DDF
@ 033   ----------------------------------------
 .byte   W48
 .byte   N23 ,Bn2 ,v080
 .byte   W24
 .byte   Cs3
 .byte   W24
 .byte   PATT
  .word Label_4_014E6E11
 .byte   PATT
  .word Label_4_014E6E18
 .byte   PATT
  .word Label_4_014E6E1F
@ 034   ----------------------------------------
 .byte   N23 ,Bn2 ,v080
 .byte   W96
@ 035   ----------------------------------------
 .byte   W96
@ 036   ----------------------------------------
 .byte   W96
@ 037   ----------------------------------------
 .byte   W96
@ 038   ----------------------------------------
 .byte   W96
@ 039   ----------------------------------------
 .byte   W96
@ 040   ----------------------------------------
 .byte   W96
@ 041   ----------------------------------------
 .byte   W96
@ 042   ----------------------------------------
 .byte   W96
@ 043   ----------------------------------------
 .byte   W96
@ 044   ----------------------------------------
 .byte   W96
@ 045   ----------------------------------------
 .byte   W96
@ 046   ----------------------------------------
 .byte   W96
@ 047   ----------------------------------------
 .byte   W96
@ 048   ----------------------------------------
 .byte   W96
@ 049   ----------------------------------------
 .byte   W96
@ 050   ----------------------------------------
 .byte   W96
 .byte   PATT
  .word Label_4_014E6DD1
 .byte   PATT
  .word Label_4_014E6DD8
 .byte   PATT
  .word Label_4_014E6DDF
@ 051   ----------------------------------------
 .byte   W48
 .byte   N23 ,Bn2 ,v080
 .byte   W48
 .byte   PATT
  .word Label_4_014E6DEC
 .byte   PATT
  .word Label_4_014E6DD8
@ 052   ----------------------------------------
 .byte   N44 ,Bn2 ,v080
 .byte   W96
@ 053   ----------------------------------------
 .byte   W96
 .byte   PATT
  .word Label_4_014E6DD1
 .byte   PATT
  .word Label_4_014E6DD8
 .byte   PATT
  .word Label_4_014E6E07
@ 054   ----------------------------------------
 .byte   N92 ,Bn2 ,v080
 .byte   W96
 .byte   PATT
  .word Label_4_014E6E11
 .byte   PATT
  .word Label_4_014E6E18
 .byte   PATT
  .word Label_4_014E6E1F
@ 055   ----------------------------------------
 .byte   N44 ,Bn2 ,v080
 .byte   W96
@ 056   ----------------------------------------
 .byte   W96
@ 057   ----------------------------------------
 .byte   W96
@ 058   ----------------------------------------
 .byte   W96
@ 059   ----------------------------------------
 .byte   W96
@ 060   ----------------------------------------
 .byte   W96
@ 061   ----------------------------------------
 .byte   W96
@ 062   ----------------------------------------
 .byte   N11 ,Bn3 ,v052
 .byte   W48
 .byte   Dn4
 .byte   W48
@ 063   ----------------------------------------
 .byte   Fs4
 .byte   W48
 .byte   Bn3
 .byte   W48
@ 064   ----------------------------------------
 .byte   W96
@ 065   ----------------------------------------
 .byte   W96
@ 066   ----------------------------------------
 .byte   W96
@ 067   ----------------------------------------
 .byte   W96
@ 068   ----------------------------------------
 .byte   W96
@ 069   ----------------------------------------
 .byte   W96
@ 070   ----------------------------------------
 .byte   N11
 .byte   W48
 .byte   Fs3
 .byte   W48
@ 071   ----------------------------------------
 .byte   Bn2
 .byte   W96
@ 072   ----------------------------------------
 .byte   N23 ,Gn3
 .byte   W48
 .byte   N23
 .byte   W48
@ 073   ----------------------------------------
Label_4_014E6EEF:
 .byte   N23 ,Fs3 ,v052
 .byte   W48
 .byte   N23
 .byte   W48
 .byte   PEND 
@ 074   ----------------------------------------
 .byte   Bn2
 .byte   W48
 .byte   Dn3
 .byte   W24
 .byte   N68 ,Bn2
 .byte   W24
@ 075   ----------------------------------------
 .byte   W48
 .byte   N23
 .byte   W48
@ 076   ----------------------------------------
 .byte   Gn3
 .byte   W24
 .byte   N68
 .byte   W72
 .byte   PATT
  .word Label_4_014E6EEF
@ 077   ----------------------------------------
 .byte   N44 ,Bn2 ,v052
 .byte   W96
@ 078   ----------------------------------------
 .byte   W96
 .byte   PATT
  .word Label_4_014E6DD1
 .byte   PATT
  .word Label_4_014E6DD8
 .byte   PATT
  .word Label_4_014E6E07
@ 079   ----------------------------------------
 .byte   N68 ,Bn2 ,v080
 .byte   W96
@ 080   ----------------------------------------
 .byte   N92 ,Dn4 ,v064
 .byte   W96
@ 081   ----------------------------------------
 .byte   En4
 .byte   W96
@ 082   ----------------------------------------
 .byte   Cs4
 .byte   W96
@ 083   ----------------------------------------
 .byte   Dn4
 .byte   W96
@ 084   ----------------------------------------
 .byte   TIE ,Bn3
 .byte   W96
@ 085   ----------------------------------------
 .byte   W92
 .byte   W03
 .byte   EOT
 .byte   FINE

@**************** Track 6 (Midi-Chn.5) ****************@

song51_006:
@ 000   ----------------------------------------
 .byte   KEYSH , song51_key+0
 .byte   VOICE , 57
 .byte   VOL , 59*song51_mvl/mxv
 .byte   PAN , c_v+0
 .byte   N44 ,Gn2 ,v064
 .byte   W96
@ 001   ----------------------------------------
 .byte   Fs2
 .byte   W96
@ 002   ----------------------------------------
 .byte   Bn1
 .byte   W96
@ 003   ----------------------------------------
 .byte   Dn2
 .byte   W96
@ 004   ----------------------------------------
 .byte   Gn2
 .byte   W96
@ 005   ----------------------------------------
 .byte   Fs2
 .byte   W96
@ 006   ----------------------------------------
Label_5_014E6F4A:
 .byte   N11 ,Bn1 ,v064
 .byte   W48
 .byte   Dn2
 .byte   W48
 .byte   PEND 
@ 007   ----------------------------------------
Label_5_014E6F51:
 .byte   N11 ,Fs2 ,v064
 .byte   W48
 .byte   Bn2
 .byte   W48
 .byte   PEND 
@ 008   ----------------------------------------
 .byte   N44 ,Gn2
 .byte   W96
@ 009   ----------------------------------------
 .byte   Fs2
 .byte   W96
@ 010   ----------------------------------------
 .byte   Bn1
 .byte   W96
@ 011   ----------------------------------------
 .byte   Dn2
 .byte   W96
@ 012   ----------------------------------------
 .byte   Gn2
 .byte   W96
@ 013   ----------------------------------------
 .byte   Fs2
 .byte   W96
@ 014   ----------------------------------------
 .byte   W96
@ 015   ----------------------------------------
 .byte   W96
@ 016   ----------------------------------------
Label_5_014E6F67:
 .byte   N23 ,Gn2 ,v096
 .byte   W48
 .byte   N23
 .byte   W48
 .byte   PEND 
@ 017   ----------------------------------------
Label_5_014E6F6E:
 .byte   N23 ,Fs2 ,v096
 .byte   W48
 .byte   N23
 .byte   W48
 .byte   PEND 
@ 018   ----------------------------------------
Label_5_014E6F75:
 .byte   N23 ,Bn1 ,v096
 .byte   W48
 .byte   Dn2
 .byte   W24
 .byte   N68 ,Bn1
 .byte   W24
 .byte   PEND 
@ 019   ----------------------------------------
 .byte   W48
 .byte   N23 ,Dn2
 .byte   W48
@ 020   ----------------------------------------
 .byte   Gn2
 .byte   W24
 .byte   N68
 .byte   W72
 .byte   PATT
  .word Label_5_014E6F6E
@ 021   ----------------------------------------
 .byte   N44 ,Bn1 ,v096
 .byte   W96
@ 022   ----------------------------------------
 .byte   W96
 .byte   PATT
  .word Label_5_014E6F67
 .byte   PATT
  .word Label_5_014E6F6E
@ 023   ----------------------------------------
 .byte   N23 ,Bn1 ,v096
 .byte   W48
 .byte   Dn2
 .byte   W48
@ 024   ----------------------------------------
 .byte   N92 ,Bn1
 .byte   W96
@ 025   ----------------------------------------
 .byte   N23 ,Dn3
 .byte   W48
 .byte   En3
 .byte   W48
@ 026   ----------------------------------------
 .byte   Cs3
 .byte   W48
 .byte   Dn3
 .byte   W48
@ 027   ----------------------------------------
 .byte   Bn2
 .byte   W48
 .byte   Fs2
 .byte   W48
@ 028   ----------------------------------------
 .byte   N44 ,Bn2
 .byte   W96
 .byte   PATT
  .word Label_5_014E6F67
 .byte   PATT
  .word Label_5_014E6F6E
 .byte   PATT
  .word Label_5_014E6F75
@ 029   ----------------------------------------
 .byte   W96
 .byte   PATT
  .word Label_5_014E6F67
 .byte   PATT
  .word Label_5_014E6F6E
@ 030   ----------------------------------------
 .byte   N23 ,Bn1 ,v096
 .byte   W96
@ 031   ----------------------------------------
 .byte   W48
 .byte   N44 ,Fs2
 .byte   W48
 .byte   PATT
  .word Label_5_014E6F67
@ 032   ----------------------------------------
 .byte   N23 ,Fs2 ,v096
 .byte   W24
 .byte   N68
 .byte   W72
 .byte   PATT
  .word Label_5_014E6F75
@ 033   ----------------------------------------
 .byte   W48
 .byte   N23 ,Bn1 ,v096
 .byte   W24
 .byte   Cs2
 .byte   W24
@ 034   ----------------------------------------
 .byte   Dn2
 .byte   W48
 .byte   En2
 .byte   W48
@ 035   ----------------------------------------
 .byte   Cs2
 .byte   W48
 .byte   Dn2
 .byte   W48
@ 036   ----------------------------------------
 .byte   Bn1
 .byte   W48
 .byte   Fs1
 .byte   W48
@ 037   ----------------------------------------
 .byte   Bn1
 .byte   W96
@ 038   ----------------------------------------
 .byte   An1 ,v064
 .byte   N23 ,Dn2
 .byte   W96
@ 039   ----------------------------------------
 .byte   W96
@ 040   ----------------------------------------
 .byte   Cs2
 .byte   N23 ,En2
 .byte   W96
@ 041   ----------------------------------------
 .byte   W96
@ 042   ----------------------------------------
 .byte   Bn1
 .byte   N23 ,Dn2
 .byte   W96
@ 043   ----------------------------------------
 .byte   W96
@ 044   ----------------------------------------
 .byte   Bn1
 .byte   N23 ,Ds2
 .byte   W96
@ 045   ----------------------------------------
 .byte   W96
@ 046   ----------------------------------------
 .byte   Gn1
 .byte   N23 ,Bn1
 .byte   W96
@ 047   ----------------------------------------
 .byte   W96
@ 048   ----------------------------------------
 .byte   N23
 .byte   N23 ,Dn2
 .byte   W96
@ 049   ----------------------------------------
 .byte   W96
@ 050   ----------------------------------------
 .byte   Gn1
 .byte   N23 ,Bn1
 .byte   W96
@ 051   ----------------------------------------
 .byte   W96
@ 052   ----------------------------------------
 .byte   Cs2
 .byte   N23 ,Fs2
 .byte   W96
@ 053   ----------------------------------------
 .byte   W96
@ 054   ----------------------------------------
Label_5_014E7024:
 .byte   N23 ,Gn2 ,v064
 .byte   W48
 .byte   N23
 .byte   W48
 .byte   PEND 
@ 055   ----------------------------------------
Label_5_014E702B:
 .byte   N23 ,Fs2 ,v064
 .byte   W48
 .byte   N23
 .byte   W48
 .byte   PEND 
@ 056   ----------------------------------------
Label_5_014E7032:
 .byte   N23 ,Bn1 ,v064
 .byte   W48
 .byte   Dn2
 .byte   W24
 .byte   N68 ,Bn1
 .byte   W24
 .byte   PEND 
@ 057   ----------------------------------------
 .byte   W48
 .byte   N23 ,Dn2
 .byte   W48
@ 058   ----------------------------------------
Label_5_014E7040:
 .byte   N23 ,Gn2 ,v064
 .byte   W24
 .byte   N68
 .byte   W72
 .byte   PEND 
 .byte   PATT
  .word Label_5_014E702B
@ 059   ----------------------------------------
 .byte   N44 ,Bn1 ,v064
 .byte   W96
@ 060   ----------------------------------------
 .byte   W96
 .byte   PATT
  .word Label_5_014E7024
 .byte   PATT
  .word Label_5_014E702B
@ 061   ----------------------------------------
 .byte   N23 ,Bn1 ,v064
 .byte   W48
 .byte   Dn2
 .byte   W48
@ 062   ----------------------------------------
 .byte   N92 ,Bn1
 .byte   W96
@ 063   ----------------------------------------
 .byte   N23 ,Dn3
 .byte   W48
 .byte   En3
 .byte   W48
@ 064   ----------------------------------------
 .byte   Cs3
 .byte   W48
 .byte   Dn3
 .byte   W48
@ 065   ----------------------------------------
 .byte   Bn2
 .byte   W48
 .byte   Fs2
 .byte   W48
@ 066   ----------------------------------------
 .byte   N44 ,Bn2
 .byte   W96
@ 067   ----------------------------------------
 .byte   Gn2
 .byte   W96
@ 068   ----------------------------------------
 .byte   Fs2
 .byte   W96
@ 069   ----------------------------------------
 .byte   Bn1
 .byte   W96
@ 070   ----------------------------------------
 .byte   Dn2
 .byte   W96
@ 071   ----------------------------------------
 .byte   Gn2
 .byte   W96
@ 072   ----------------------------------------
 .byte   Fs2
 .byte   W96
 .byte   PATT
  .word Label_5_014E6F4A
 .byte   PATT
  .word Label_5_014E6F51
@ 073   ----------------------------------------
 .byte   N44 ,Gn2 ,v064
 .byte   W96
@ 074   ----------------------------------------
 .byte   Fs2
 .byte   W96
@ 075   ----------------------------------------
 .byte   Bn1
 .byte   W96
@ 076   ----------------------------------------
 .byte   Dn2
 .byte   W96
@ 077   ----------------------------------------
 .byte   Gn2
 .byte   W96
@ 078   ----------------------------------------
 .byte   Fs2
 .byte   W96
@ 079   ----------------------------------------
 .byte   W96
@ 080   ----------------------------------------
 .byte   W96
 .byte   PATT
  .word Label_5_014E7024
 .byte   PATT
  .word Label_5_014E702B
 .byte   PATT
  .word Label_5_014E7032
@ 081   ----------------------------------------
 .byte   W48
 .byte   N23 ,Dn2 ,v064
 .byte   W48
 .byte   PATT
  .word Label_5_014E7040
 .byte   PATT
  .word Label_5_014E702B
@ 082   ----------------------------------------
 .byte   N44 ,Bn1 ,v064
 .byte   W96
@ 083   ----------------------------------------
 .byte   W96
@ 084   ----------------------------------------
 .byte   N23 ,Gn2 ,v080
 .byte   W48
 .byte   N23
 .byte   W48
@ 085   ----------------------------------------
 .byte   Fs2
 .byte   W48
 .byte   N23
 .byte   W48
@ 086   ----------------------------------------
 .byte   Bn1
 .byte   W48
 .byte   Dn2
 .byte   W48
@ 087   ----------------------------------------
 .byte   N68 ,Bn1 ,v052
 .byte   W96
@ 088   ----------------------------------------
 .byte   W96
@ 089   ----------------------------------------
 .byte   W96
@ 090   ----------------------------------------
 .byte   W96
@ 091   ----------------------------------------
 .byte   W96
@ 092   ----------------------------------------
 .byte   TIE ,Bn1 ,v036
 .byte   W96
@ 093   ----------------------------------------
 .byte   W92
 .byte   W03
 .byte   EOT
 .byte   FINE

@**************** Track 7 (Midi-Chn.6) ****************@

song51_007:
@ 000   ----------------------------------------
 .byte   KEYSH , song51_key+0
 .byte   VOICE , 62
 .byte   VOL , 59*song51_mvl/mxv
 .byte   PAN , c_v+0
 .byte   N44 ,Gn1 ,v064
 .byte   W96
@ 001   ----------------------------------------
 .byte   Fs1
 .byte   W96
@ 002   ----------------------------------------
 .byte   Bn0
 .byte   W96
@ 003   ----------------------------------------
 .byte   Dn1
 .byte   W96
@ 004   ----------------------------------------
 .byte   Gn1
 .byte   W96
@ 005   ----------------------------------------
 .byte   Fs1
 .byte   W96
@ 006   ----------------------------------------
Label_6_014E70F2:
 .byte   N44 ,Bn0 ,v064
 .byte   W48
 .byte   Dn1
 .byte   W48
 .byte   PEND 
@ 007   ----------------------------------------
 .byte   Bn0
 .byte   W96
@ 008   ----------------------------------------
 .byte   Gn1
 .byte   W96
@ 009   ----------------------------------------
 .byte   Fs1
 .byte   W96
@ 010   ----------------------------------------
 .byte   Bn0
 .byte   W96
@ 011   ----------------------------------------
 .byte   Dn1
 .byte   W96
@ 012   ----------------------------------------
 .byte   Gn1
 .byte   W96
@ 013   ----------------------------------------
 .byte   Fs1
 .byte   W96
@ 014   ----------------------------------------
 .byte   N11 ,Bn1 ,v096
 .byte   W48
 .byte   Fs1
 .byte   W48
@ 015   ----------------------------------------
 .byte   Bn0
 .byte   W96
@ 016   ----------------------------------------
 .byte   N92 ,Gn1 ,v080
 .byte   W96
@ 017   ----------------------------------------
 .byte   Fs1
 .byte   W96
@ 018   ----------------------------------------
 .byte   Bn0
 .byte   W96
@ 019   ----------------------------------------
 .byte   N92
 .byte   W96
@ 020   ----------------------------------------
 .byte   Gn1
 .byte   W96
@ 021   ----------------------------------------
 .byte   Fs1
 .byte   W96
@ 022   ----------------------------------------
 .byte   Bn0
 .byte   W96
@ 023   ----------------------------------------
 .byte   N92
 .byte   W96
@ 024   ----------------------------------------
 .byte   Gn1
 .byte   W96
@ 025   ----------------------------------------
 .byte   Fs1
 .byte   W96
@ 026   ----------------------------------------
 .byte   Bn0
 .byte   W96
@ 027   ----------------------------------------
 .byte   N92
 .byte   W96
@ 028   ----------------------------------------
 .byte   Gn1
 .byte   W96
@ 029   ----------------------------------------
 .byte   Fs1
 .byte   W96
@ 030   ----------------------------------------
 .byte   TIE ,Bn0
 .byte   W96
@ 031   ----------------------------------------
 .byte   W44
 .byte   W03
 .byte   EOT
 .byte   W48
 .byte   W01
@ 032   ----------------------------------------
 .byte   N92 ,Gn1
 .byte   W96
@ 033   ----------------------------------------
 .byte   Fs1
 .byte   W96
@ 034   ----------------------------------------
 .byte   Bn0
 .byte   W96
@ 035   ----------------------------------------
 .byte   N92
 .byte   W96
@ 036   ----------------------------------------
 .byte   Gn1
 .byte   W96
@ 037   ----------------------------------------
 .byte   Fs1
 .byte   W96
@ 038   ----------------------------------------
 .byte   Bn0
 .byte   W96
@ 039   ----------------------------------------
 .byte   N92
 .byte   W96
@ 040   ----------------------------------------
 .byte   Gn1
 .byte   W96
@ 041   ----------------------------------------
 .byte   Fs1
 .byte   W96
@ 042   ----------------------------------------
 .byte   Bn0
 .byte   W96
@ 043   ----------------------------------------
 .byte   N92
 .byte   W96
@ 044   ----------------------------------------
 .byte   Gn1
 .byte   W96
@ 045   ----------------------------------------
 .byte   Fs1
 .byte   W96
@ 046   ----------------------------------------
 .byte   TIE ,Bn0
 .byte   W96
@ 047   ----------------------------------------
 .byte   W44
 .byte   W03
 .byte   EOT
 .byte   W48
 .byte   W01
@ 048   ----------------------------------------
 .byte   N44 ,Dn1 ,v052
 .byte   W96
@ 049   ----------------------------------------
 .byte   N44
 .byte   W96
@ 050   ----------------------------------------
 .byte   An0
 .byte   W96
@ 051   ----------------------------------------
 .byte   N68
 .byte   W96
@ 052   ----------------------------------------
 .byte   N44 ,Bn0
 .byte   W96
@ 053   ----------------------------------------
 .byte   N44
 .byte   W96
@ 054   ----------------------------------------
 .byte   N44
 .byte   W96
@ 055   ----------------------------------------
 .byte   W96
@ 056   ----------------------------------------
 .byte   En1
 .byte   W96
@ 057   ----------------------------------------
 .byte   N44
 .byte   W96
@ 058   ----------------------------------------
 .byte   Gn1
 .byte   W96
@ 059   ----------------------------------------
 .byte   N44
 .byte   W96
@ 060   ----------------------------------------
 .byte   En1 ,v064
 .byte   W96
@ 061   ----------------------------------------
 .byte   N44
 .byte   W96
@ 062   ----------------------------------------
 .byte   N23 ,As1
 .byte   W96
@ 063   ----------------------------------------
 .byte   W96
@ 064   ----------------------------------------
 .byte   N92 ,Gn1
 .byte   W96
@ 065   ----------------------------------------
 .byte   Fs1
 .byte   W96
@ 066   ----------------------------------------
 .byte   Bn0
 .byte   W96
@ 067   ----------------------------------------
 .byte   N92
 .byte   W96
@ 068   ----------------------------------------
 .byte   Gn1
 .byte   W96
@ 069   ----------------------------------------
 .byte   Fs1
 .byte   W96
@ 070   ----------------------------------------
 .byte   Bn0
 .byte   W96
@ 071   ----------------------------------------
 .byte   N92
 .byte   W96
@ 072   ----------------------------------------
 .byte   Gn1
 .byte   W96
@ 073   ----------------------------------------
 .byte   Fs1
 .byte   W96
@ 074   ----------------------------------------
 .byte   Bn0
 .byte   W96
@ 075   ----------------------------------------
 .byte   N92
 .byte   W96
@ 076   ----------------------------------------
 .byte   Gn1
 .byte   W96
@ 077   ----------------------------------------
 .byte   Fs1
 .byte   W96
@ 078   ----------------------------------------
 .byte   TIE ,Bn0
 .byte   W96
@ 079   ----------------------------------------
 .byte   W44
 .byte   W03
 .byte   EOT
 .byte   W48
 .byte   W01
@ 080   ----------------------------------------
 .byte   N44 ,Gn1
 .byte   W96
@ 081   ----------------------------------------
 .byte   Fs1
 .byte   W96
@ 082   ----------------------------------------
 .byte   Bn0
 .byte   W96
@ 083   ----------------------------------------
 .byte   Dn1
 .byte   W96
@ 084   ----------------------------------------
 .byte   Gn1
 .byte   W96
@ 085   ----------------------------------------
 .byte   Fs1
 .byte   W96
 .byte   PATT
  .word Label_6_014E70F2
@ 086   ----------------------------------------
 .byte   N44 ,Bn0 ,v064
 .byte   W96
@ 087   ----------------------------------------
 .byte   Gn1
 .byte   W96
@ 088   ----------------------------------------
 .byte   Fs1
 .byte   W96
@ 089   ----------------------------------------
 .byte   Bn0
 .byte   W96
@ 090   ----------------------------------------
 .byte   Dn1
 .byte   W96
@ 091   ----------------------------------------
 .byte   Gn1
 .byte   W96
@ 092   ----------------------------------------
 .byte   Fs1
 .byte   W96
@ 093   ----------------------------------------
 .byte   N11 ,Bn1
 .byte   W48
 .byte   Fs1
 .byte   W48
@ 094   ----------------------------------------
 .byte   Bn0
 .byte   W96
@ 095   ----------------------------------------
 .byte   N92 ,Gn1
 .byte   W96
@ 096   ----------------------------------------
 .byte   Fs1
 .byte   W96
@ 097   ----------------------------------------
 .byte   Bn0
 .byte   W96
@ 098   ----------------------------------------
 .byte   N92
 .byte   W96
@ 099   ----------------------------------------
 .byte   Gn1
 .byte   W96
@ 100   ----------------------------------------
 .byte   Fs1
 .byte   W96
@ 101   ----------------------------------------
 .byte   Bn0
 .byte   W96
@ 102   ----------------------------------------
 .byte   N92
 .byte   W96
@ 103   ----------------------------------------
 .byte   Gn1
 .byte   W96
@ 104   ----------------------------------------
 .byte   Fs1
 .byte   W96
@ 105   ----------------------------------------
 .byte   Bn0
 .byte   W96
@ 106   ----------------------------------------
 .byte   N68 ,Bn0 ,v052
 .byte   W96
@ 107   ----------------------------------------
 .byte   N92 ,Dn1
 .byte   W96
@ 108   ----------------------------------------
 .byte   En1
 .byte   W96
@ 109   ----------------------------------------
 .byte   Cs1
 .byte   W96
@ 110   ----------------------------------------
 .byte   Dn1
 .byte   W96
@ 111   ----------------------------------------
 .byte   TIE ,Bn0 ,v036
 .byte   W96
@ 112   ----------------------------------------
 .byte   W92
 .byte   W03
 .byte   EOT
 .byte   FINE

@**************** Track 8 (Midi-Chn.7) ****************@

song51_008:
@ 000   ----------------------------------------
 .byte   KEYSH , song51_key+0
 .byte   VOICE , 13
 .byte   VOL , 59*song51_mvl/mxv
 .byte   PAN , c_v+0
 .byte   N15 ,Gn3 ,v064
 .byte   W16
 .byte   An3
 .byte   W16
 .byte   Bn3
 .byte   W16
 .byte   N32
 .byte   W36
 .byte   N11 ,Gn3
 .byte   W12
@ 001   ----------------------------------------
Label_7_014E720D:
 .byte   N15 ,Fs3 ,v064
 .byte   W16
 .byte   Gs3
 .byte   W16
 .byte   As3
 .byte   W16
 .byte   N32
 .byte   W36
 .byte   N11 ,Fs3
 .byte   W12
 .byte   PEND 
@ 002   ----------------------------------------
Label_7_014E721B:
 .byte   N15 ,Dn4 ,v064
 .byte   W16
 .byte   Bn3
 .byte   W16
 .byte   Dn4
 .byte   W16
 .byte   Bn3
 .byte   W16
 .byte   Fs3
 .byte   W16
 .byte   Bn3
 .byte   W16
 .byte   PEND 
@ 003   ----------------------------------------
Label_7_014E722A:
 .byte   N15 ,Fs3 ,v064
 .byte   W16
 .byte   Dn3
 .byte   W16
 .byte   Fs3
 .byte   W16
 .byte   Bn3
 .byte   W16
 .byte   Fs3
 .byte   W16
 .byte   Dn3
 .byte   W16
 .byte   PEND 
@ 004   ----------------------------------------
Label_7_014E7239:
 .byte   N15 ,Gn3 ,v064
 .byte   W16
 .byte   Bn3
 .byte   W16
 .byte   Dn4
 .byte   W16
 .byte   Gn4
 .byte   W16
 .byte   Dn4
 .byte   W16
 .byte   Bn3
 .byte   W16
 .byte   PEND 
@ 005   ----------------------------------------
 .byte   Fs3
 .byte   W16
 .byte   As3
 .byte   W16
 .byte   Cs4
 .byte   W16
 .byte   N32 ,Fs4
 .byte   W36
 .byte   N11 ,Fs3
 .byte   W12
@ 006   ----------------------------------------
 .byte   Bn3
 .byte   W48
 .byte   Fs3
 .byte   W48
@ 007   ----------------------------------------
 .byte   Bn3
 .byte   W48
 .byte   Dn4
 .byte   W48
@ 008   ----------------------------------------
 .byte   N15 ,Gn3
 .byte   W16
 .byte   An3
 .byte   W16
 .byte   Bn3
 .byte   W16
 .byte   N32 ,An3
 .byte   W36
 .byte   N11 ,Gn3
 .byte   W12
 .byte   PATT
  .word Label_7_014E720D
 .byte   PATT
  .word Label_7_014E721B
 .byte   PATT
  .word Label_7_014E722A
 .byte   PATT
  .word Label_7_014E7239
@ 009   ----------------------------------------
 .byte   N15 ,Fs3 ,v064
 .byte   W16
 .byte   As3
 .byte   W16
 .byte   Cs4
 .byte   W16
 .byte   N32 ,Fs4
 .byte   W48
@ 010   ----------------------------------------
 .byte   W96
@ 011   ----------------------------------------
 .byte   W96
@ 012   ----------------------------------------
Label_7_014E728A:
 .byte   W48
 .byte   N23 ,Gn3 ,v064
 .byte   N23 ,Gn4
 .byte   W48
 .byte   PEND 
@ 013   ----------------------------------------
Label_7_014E7292:
 .byte   W48
 .byte   N23 ,Fs3 ,v064
 .byte   N23 ,Fs4
 .byte   W48
 .byte   PEND 
@ 014   ----------------------------------------
Label_7_014E729A:
 .byte   W48
 .byte   N23 ,Bn2 ,v064
 .byte   N23 ,Bn3
 .byte   W48
 .byte   PEND 
@ 015   ----------------------------------------
Label_7_014E72A2:
 .byte   W48
 .byte   N23 ,Dn3 ,v064
 .byte   N23 ,Dn4
 .byte   W48
 .byte   PEND 
 .byte   PATT
  .word Label_7_014E728A
 .byte   PATT
  .word Label_7_014E7292
@ 016   ----------------------------------------
 .byte   N11 ,Bn1 ,v112
 .byte   W48
 .byte   Dn2
 .byte   W48
@ 017   ----------------------------------------
 .byte   Fs2
 .byte   W48
 .byte   Bn2
 .byte   W48
 .byte   PATT
  .word Label_7_014E728A
 .byte   PATT
  .word Label_7_014E7292
 .byte   PATT
  .word Label_7_014E729A
@ 018   ----------------------------------------
 .byte   W96
@ 019   ----------------------------------------
 .byte   W48
 .byte   N23 ,En3 ,v064
 .byte   N23 ,En4
 .byte   W48
 .byte   PATT
  .word Label_7_014E7292
@ 020   ----------------------------------------
 .byte   W96
@ 021   ----------------------------------------
 .byte   W96
 .byte   PATT
  .word Label_7_014E728A
 .byte   PATT
  .word Label_7_014E7292
 .byte   PATT
  .word Label_7_014E729A
@ 022   ----------------------------------------
 .byte   W96
 .byte   PATT
  .word Label_7_014E728A
 .byte   PATT
  .word Label_7_014E7292
 .byte   PATT
  .word Label_7_014E729A
@ 023   ----------------------------------------
 .byte   W96
 .byte   PATT
  .word Label_7_014E728A
 .byte   PATT
  .word Label_7_014E7292
 .byte   PATT
  .word Label_7_014E729A
 .byte   PATT
  .word Label_7_014E72A2
@ 024   ----------------------------------------
 .byte   W48
 .byte   N23 ,En3 ,v064
 .byte   N23 ,En4
 .byte   W48
 .byte   PATT
  .word Label_7_014E72A2
@ 025   ----------------------------------------
 .byte   W48
 .byte   N23 ,Fs2 ,v064
 .byte   N23 ,Fs3
 .byte   W48
@ 026   ----------------------------------------
 .byte   W96
@ 027   ----------------------------------------
 .byte   W96
@ 028   ----------------------------------------
 .byte   W96
@ 029   ----------------------------------------
 .byte   W96
@ 030   ----------------------------------------
 .byte   W96
@ 031   ----------------------------------------
 .byte   W96
@ 032   ----------------------------------------
 .byte   W96
@ 033   ----------------------------------------
 .byte   W96
@ 034   ----------------------------------------
 .byte   W96
@ 035   ----------------------------------------
 .byte   W96
@ 036   ----------------------------------------
 .byte   W96
@ 037   ----------------------------------------
 .byte   W96
@ 038   ----------------------------------------
 .byte   W96
@ 039   ----------------------------------------
 .byte   W96
@ 040   ----------------------------------------
 .byte   W96
@ 041   ----------------------------------------
 .byte   W96
@ 042   ----------------------------------------
 .byte   W96
 .byte   PATT
  .word Label_7_014E728A
 .byte   PATT
  .word Label_7_014E7292
 .byte   PATT
  .word Label_7_014E729A
 .byte   PATT
  .word Label_7_014E72A2
 .byte   PATT
  .word Label_7_014E728A
 .byte   PATT
  .word Label_7_014E7292
@ 043   ----------------------------------------
Label_7_014E7352:
 .byte   N11 ,Bn1 ,v064
 .byte   W48
 .byte   Dn2
 .byte   W48
 .byte   PEND 
@ 044   ----------------------------------------
Label_7_014E7359:
 .byte   N11 ,Fs2 ,v064
 .byte   W48
 .byte   Bn2
 .byte   W48
 .byte   PEND 
 .byte   PATT
  .word Label_7_014E728A
 .byte   PATT
  .word Label_7_014E7292
 .byte   PATT
  .word Label_7_014E729A
@ 045   ----------------------------------------
 .byte   W96
@ 046   ----------------------------------------
 .byte   W48
 .byte   N23 ,En3 ,v064
 .byte   N23 ,En4
 .byte   W48
 .byte   PATT
  .word Label_7_014E7292
@ 047   ----------------------------------------
 .byte   W96
@ 048   ----------------------------------------
 .byte   W96
@ 049   ----------------------------------------
 .byte   N15 ,Gn3 ,v080
 .byte   W16
 .byte   An3
 .byte   W16
 .byte   Bn3
 .byte   W16
 .byte   N32
 .byte   W36
 .byte   N11 ,Gn3
 .byte   W12
@ 050   ----------------------------------------
Label_7_014E738B:
 .byte   N15 ,Fs3 ,v080
 .byte   W16
 .byte   Gs3
 .byte   W16
 .byte   As3
 .byte   W16
 .byte   N32
 .byte   W36
 .byte   N11 ,Fs3
 .byte   W12
 .byte   PEND 
@ 051   ----------------------------------------
Label_7_014E7399:
 .byte   N15 ,Dn4 ,v080
 .byte   W16
 .byte   Bn3
 .byte   W16
 .byte   Dn4
 .byte   W16
 .byte   Bn3
 .byte   W16
 .byte   Fs3
 .byte   W16
 .byte   Bn3
 .byte   W16
 .byte   PEND 
@ 052   ----------------------------------------
Label_7_014E73A8:
 .byte   N15 ,Fs3 ,v080
 .byte   W16
 .byte   Dn3
 .byte   W16
 .byte   Fs3
 .byte   W16
 .byte   Bn3
 .byte   W16
 .byte   Fs3
 .byte   W16
 .byte   Dn3
 .byte   W16
 .byte   PEND 
@ 053   ----------------------------------------
Label_7_014E73B7:
 .byte   N15 ,Gn3 ,v080
 .byte   W16
 .byte   Bn3
 .byte   W16
 .byte   Dn4
 .byte   W16
 .byte   Gn4
 .byte   W16
 .byte   Dn4
 .byte   W16
 .byte   Bn3
 .byte   W16
 .byte   PEND 
@ 054   ----------------------------------------
 .byte   Fs3
 .byte   W16
 .byte   As3
 .byte   W16
 .byte   Cs4
 .byte   W16
 .byte   N32 ,Fs4
 .byte   W36
 .byte   N11 ,Fs3
 .byte   W12
@ 055   ----------------------------------------
 .byte   Bn3
 .byte   W48
 .byte   Fs3
 .byte   W48
@ 056   ----------------------------------------
 .byte   Bn3
 .byte   W48
 .byte   Dn4
 .byte   W48
@ 057   ----------------------------------------
 .byte   N15 ,Gn3
 .byte   W16
 .byte   An3
 .byte   W16
 .byte   Bn3
 .byte   W16
 .byte   N32 ,An3
 .byte   W36
 .byte   N11 ,Gn3
 .byte   W12
 .byte   PATT
  .word Label_7_014E738B
 .byte   PATT
  .word Label_7_014E7399
 .byte   PATT
  .word Label_7_014E73A8
 .byte   PATT
  .word Label_7_014E73B7
@ 058   ----------------------------------------
 .byte   N15 ,Fs3 ,v080
 .byte   W16
 .byte   As3
 .byte   W16
 .byte   Cs4
 .byte   W16
 .byte   N32 ,Fs4
 .byte   W48
@ 059   ----------------------------------------
 .byte   W96
@ 060   ----------------------------------------
 .byte   W96
 .byte   PATT
  .word Label_7_014E728A
 .byte   PATT
  .word Label_7_014E7292
 .byte   PATT
  .word Label_7_014E729A
 .byte   PATT
  .word Label_7_014E72A2
 .byte   PATT
  .word Label_7_014E728A
 .byte   PATT
  .word Label_7_014E7292
 .byte   PATT
  .word Label_7_014E7352
 .byte   PATT
  .word Label_7_014E7359
 .byte   PATT
  .word Label_7_014E728A
 .byte   PATT
  .word Label_7_014E7292
 .byte   PATT
  .word Label_7_014E729A
@ 061   ----------------------------------------
 .byte   W96
@ 062   ----------------------------------------
 .byte   W96
@ 063   ----------------------------------------
 .byte   W96
@ 064   ----------------------------------------
 .byte   W96
@ 065   ----------------------------------------
 .byte   W96
@ 066   ----------------------------------------
 .byte   TIE ,Bn1 ,v036
 .byte   TIE ,Bn3
 .byte   W96
@ 067   ----------------------------------------
 .byte   W92
 .byte   W03
 .byte   EOT
 .byte   Bn1 ,v071
 .byte   FINE

@**************** Track 9 (Midi-Chn.8) ****************@

song51_009:
@ 000   ----------------------------------------
 .byte   KEYSH , song51_key+0
 .byte   VOICE , 13
 .byte   VOL , 59*song51_mvl/mxv
 .byte   PAN , c_v+0
 .byte   N15 ,Gn2 ,v064
 .byte   W16
 .byte   An2
 .byte   W16
 .byte   Bn2
 .byte   W16
 .byte   N32
 .byte   W36
 .byte   N11 ,Gn2
 .byte   W12
@ 001   ----------------------------------------
 .byte   N15 ,Fs3
 .byte   W16
 .byte   Gs3
 .byte   W16
 .byte   As3
 .byte   W16
 .byte   N32
 .byte   W36
 .byte   N11 ,Fs3
 .byte   W12
@ 002   ----------------------------------------
 .byte   N15 ,Dn4
 .byte   W16
 .byte   Bn3
 .byte   W16
 .byte   Dn4
 .byte   W16
 .byte   Bn3
 .byte   W16
 .byte   Fs3
 .byte   W16
 .byte   Bn3
 .byte   W16
@ 003   ----------------------------------------
 .byte   Fs3
 .byte   W16
 .byte   Dn3
 .byte   W16
 .byte   Fs3
 .byte   W16
 .byte   Bn3
 .byte   W16
 .byte   Fs3
 .byte   W16
 .byte   Dn3
 .byte   W16
@ 004   ----------------------------------------
 .byte   Gn3
 .byte   W16
 .byte   Bn3
 .byte   W16
 .byte   Dn4
 .byte   W16
 .byte   Gn4
 .byte   W16
 .byte   Dn4
 .byte   W16
 .byte   Bn3
 .byte   W16
@ 005   ----------------------------------------
 .byte   Fs3
 .byte   W16
 .byte   As3
 .byte   W16
 .byte   Cs4
 .byte   W16
 .byte   N32 ,Fs4
 .byte   W36
 .byte   N11 ,Fs3
 .byte   W12
@ 006   ----------------------------------------
 .byte   Bn3
 .byte   W48
 .byte   Fs3
 .byte   W48
@ 007   ----------------------------------------
Label_8_014E74A6:
 .byte   N11 ,Bn3 ,v064
 .byte   W48
 .byte   Dn4
 .byte   W48
 .byte   PEND 
@ 008   ----------------------------------------
 .byte   N15 ,Bn3
 .byte   W16
 .byte   Cs4
 .byte   W16
 .byte   Dn4
 .byte   W16
 .byte   N32 ,Cs4
 .byte   W36
 .byte   N11 ,Bn3
 .byte   W12
@ 009   ----------------------------------------
 .byte   N15 ,As3
 .byte   W16
 .byte   Cn4
 .byte   W16
 .byte   Cs4
 .byte   W16
 .byte   N32
 .byte   W36
 .byte   N11 ,As3
 .byte   W12
@ 010   ----------------------------------------
 .byte   N15 ,Fs4
 .byte   W16
 .byte   Dn4
 .byte   W16
 .byte   Fs4
 .byte   W16
 .byte   Dn4
 .byte   W16
 .byte   Bn3
 .byte   W16
 .byte   Dn4
 .byte   W16
@ 011   ----------------------------------------
 .byte   Bn3
 .byte   W16
 .byte   Fs3
 .byte   W16
 .byte   Cs4
 .byte   W16
 .byte   Dn4
 .byte   W16
 .byte   Bn3
 .byte   W16
 .byte   Fs3
 .byte   W16
@ 012   ----------------------------------------
 .byte   Dn3
 .byte   W16
 .byte   Gn3
 .byte   W16
 .byte   Bn3
 .byte   W16
 .byte   Dn4
 .byte   W16
 .byte   Bn3
 .byte   W16
 .byte   Gn3
 .byte   W16
@ 013   ----------------------------------------
 .byte   Fs3
 .byte   W16
 .byte   As3
 .byte   W16
 .byte   Cs4
 .byte   W16
 .byte   N32 ,Fs4
 .byte   W48
@ 014   ----------------------------------------
 .byte   W96
@ 015   ----------------------------------------
 .byte   W96
@ 016   ----------------------------------------
Label_8_014E74F6:
 .byte   W48
 .byte   N23 ,Gn3 ,v064
 .byte   N23 ,Gn4
 .byte   W48
 .byte   PEND 
@ 017   ----------------------------------------
Label_8_014E74FE:
 .byte   W48
 .byte   N23 ,Fs3 ,v064
 .byte   N23 ,Fs4
 .byte   W48
 .byte   PEND 
@ 018   ----------------------------------------
Label_8_014E7506:
 .byte   W48
 .byte   N23 ,Bn2 ,v064
 .byte   N23 ,Bn3
 .byte   W48
 .byte   PEND 
@ 019   ----------------------------------------
Label_8_014E750E:
 .byte   W48
 .byte   N23 ,Dn3 ,v064
 .byte   N23 ,Dn4
 .byte   W48
 .byte   PEND 
 .byte   PATT
  .word Label_8_014E74F6
 .byte   PATT
  .word Label_8_014E74FE
@ 020   ----------------------------------------
 .byte   N11 ,Bn3 ,v112
 .byte   W48
 .byte   Dn4
 .byte   W48
@ 021   ----------------------------------------
 .byte   Fs4
 .byte   W48
 .byte   Bn4
 .byte   W48
 .byte   PATT
  .word Label_8_014E74F6
 .byte   PATT
  .word Label_8_014E74FE
 .byte   PATT
  .word Label_8_014E7506
@ 022   ----------------------------------------
 .byte   W96
@ 023   ----------------------------------------
 .byte   W48
 .byte   N23 ,En3 ,v064
 .byte   N23 ,En4
 .byte   W48
 .byte   PATT
  .word Label_8_014E74FE
@ 024   ----------------------------------------
 .byte   W96
@ 025   ----------------------------------------
 .byte   W96
 .byte   PATT
  .word Label_8_014E74F6
 .byte   PATT
  .word Label_8_014E74FE
 .byte   PATT
  .word Label_8_014E7506
@ 026   ----------------------------------------
 .byte   W96
 .byte   PATT
  .word Label_8_014E74F6
 .byte   PATT
  .word Label_8_014E74FE
 .byte   PATT
  .word Label_8_014E7506
@ 027   ----------------------------------------
 .byte   W96
 .byte   PATT
  .word Label_8_014E74F6
 .byte   PATT
  .word Label_8_014E74FE
 .byte   PATT
  .word Label_8_014E7506
 .byte   PATT
  .word Label_8_014E750E
@ 028   ----------------------------------------
 .byte   W48
 .byte   N23 ,En3 ,v064
 .byte   N23 ,En4
 .byte   W48
 .byte   PATT
  .word Label_8_014E750E
@ 029   ----------------------------------------
 .byte   W48
 .byte   N23 ,Fs2 ,v064
 .byte   N23 ,Fs3
 .byte   W48
@ 030   ----------------------------------------
 .byte   W96
@ 031   ----------------------------------------
 .byte   W96
@ 032   ----------------------------------------
 .byte   W96
@ 033   ----------------------------------------
 .byte   W96
@ 034   ----------------------------------------
 .byte   W96
@ 035   ----------------------------------------
 .byte   W96
@ 036   ----------------------------------------
 .byte   W96
@ 037   ----------------------------------------
 .byte   W96
@ 038   ----------------------------------------
 .byte   W96
@ 039   ----------------------------------------
 .byte   W96
@ 040   ----------------------------------------
 .byte   W96
@ 041   ----------------------------------------
 .byte   W96
@ 042   ----------------------------------------
 .byte   W96
@ 043   ----------------------------------------
 .byte   W96
@ 044   ----------------------------------------
 .byte   W96
@ 045   ----------------------------------------
 .byte   W96
@ 046   ----------------------------------------
 .byte   W96
 .byte   PATT
  .word Label_8_014E74F6
 .byte   PATT
  .word Label_8_014E74FE
 .byte   PATT
  .word Label_8_014E7506
 .byte   PATT
  .word Label_8_014E750E
 .byte   PATT
  .word Label_8_014E74F6
 .byte   PATT
  .word Label_8_014E74FE
 .byte   PATT
  .word Label_8_014E74A6
@ 047   ----------------------------------------
Label_8_014E75C3:
 .byte   N11 ,Fs4 ,v064
 .byte   W48
 .byte   Bn4
 .byte   W48
 .byte   PEND 
 .byte   PATT
  .word Label_8_014E74F6
 .byte   PATT
  .word Label_8_014E74FE
 .byte   PATT
  .word Label_8_014E7506
@ 048   ----------------------------------------
 .byte   W96
@ 049   ----------------------------------------
 .byte   W48
 .byte   N23 ,En3 ,v064
 .byte   N23 ,En4
 .byte   W48
 .byte   PATT
  .word Label_8_014E74FE
@ 050   ----------------------------------------
 .byte   W96
@ 051   ----------------------------------------
 .byte   W96
@ 052   ----------------------------------------
 .byte   N15 ,Gn3 ,v080
 .byte   W16
 .byte   An3
 .byte   W16
 .byte   Bn3
 .byte   W16
 .byte   N32
 .byte   W36
 .byte   N11 ,Gn3
 .byte   W12
@ 053   ----------------------------------------
 .byte   N15 ,Fs3
 .byte   W16
 .byte   Gs3
 .byte   W16
 .byte   As3
 .byte   W16
 .byte   N32
 .byte   W36
 .byte   N11 ,Fs3
 .byte   W12
@ 054   ----------------------------------------
 .byte   N15 ,Dn4
 .byte   W16
 .byte   Bn3
 .byte   W16
 .byte   Dn4
 .byte   W16
 .byte   Bn3
 .byte   W16
 .byte   Fs3
 .byte   W16
 .byte   Bn3
 .byte   W16
@ 055   ----------------------------------------
 .byte   Fs3
 .byte   W16
 .byte   Dn3
 .byte   W16
 .byte   Fs3
 .byte   W16
 .byte   Bn3
 .byte   W16
 .byte   Fs3
 .byte   W16
 .byte   Dn3
 .byte   W16
@ 056   ----------------------------------------
 .byte   Gn3
 .byte   W16
 .byte   Bn3
 .byte   W16
 .byte   Dn4
 .byte   W16
 .byte   Gn4
 .byte   W16
 .byte   Dn4
 .byte   W16
 .byte   Bn3
 .byte   W16
@ 057   ----------------------------------------
 .byte   Fs3
 .byte   W16
 .byte   As3
 .byte   W16
 .byte   Cs4
 .byte   W16
 .byte   N32 ,Fs4
 .byte   W36
 .byte   N11 ,Fs3
 .byte   W12
@ 058   ----------------------------------------
 .byte   Bn3
 .byte   W48
 .byte   Fs3
 .byte   W48
@ 059   ----------------------------------------
 .byte   Bn3
 .byte   W48
 .byte   Dn4
 .byte   W48
@ 060   ----------------------------------------
 .byte   N15 ,Bn3
 .byte   W16
 .byte   Cs4
 .byte   W16
 .byte   Dn4
 .byte   W16
 .byte   N32 ,Cs4
 .byte   W36
 .byte   N11 ,Bn3
 .byte   W12
@ 061   ----------------------------------------
 .byte   N15 ,As3
 .byte   W16
 .byte   Cn4
 .byte   W16
 .byte   Cs4
 .byte   W16
 .byte   N32
 .byte   W36
 .byte   N11 ,As3
 .byte   W12
@ 062   ----------------------------------------
 .byte   N15 ,Fs4
 .byte   W16
 .byte   Dn4
 .byte   W16
 .byte   Fs4
 .byte   W16
 .byte   Dn4
 .byte   W16
 .byte   Bn3
 .byte   W16
 .byte   Dn4
 .byte   W16
@ 063   ----------------------------------------
 .byte   Bn3
 .byte   W16
 .byte   Fs3
 .byte   W16
 .byte   Cs4
 .byte   W16
 .byte   Dn4
 .byte   W16
 .byte   Bn3
 .byte   W16
 .byte   Fs3
 .byte   W16
@ 064   ----------------------------------------
 .byte   Dn3
 .byte   W16
 .byte   Gn3
 .byte   W16
 .byte   Bn3
 .byte   W16
 .byte   Dn4
 .byte   W16
 .byte   Bn3
 .byte   W16
 .byte   Gn3
 .byte   W16
@ 065   ----------------------------------------
 .byte   Fs3
 .byte   W16
 .byte   As3
 .byte   W16
 .byte   Cs4
 .byte   W16
 .byte   N32 ,Fs4
 .byte   W48
@ 066   ----------------------------------------
 .byte   W96
@ 067   ----------------------------------------
 .byte   W96
 .byte   PATT
  .word Label_8_014E74F6
 .byte   PATT
  .word Label_8_014E74FE
 .byte   PATT
  .word Label_8_014E7506
 .byte   PATT
  .word Label_8_014E750E
 .byte   PATT
  .word Label_8_014E74F6
 .byte   PATT
  .word Label_8_014E74FE
 .byte   PATT
  .word Label_8_014E74A6
 .byte   PATT
  .word Label_8_014E75C3
 .byte   PATT
  .word Label_8_014E74F6
 .byte   PATT
  .word Label_8_014E74FE
 .byte   PATT
  .word Label_8_014E7506
@ 068   ----------------------------------------
 .byte   W96
@ 069   ----------------------------------------
 .byte   W96
@ 070   ----------------------------------------
 .byte   W96
@ 071   ----------------------------------------
 .byte   W96
@ 072   ----------------------------------------
 .byte   W96
@ 073   ----------------------------------------
 .byte   TIE ,Bn1 ,v036
 .byte   TIE ,Bn3
 .byte   W96
@ 074   ----------------------------------------
 .byte   W92
 .byte   W03
 .byte   EOT
 .byte   Bn1 ,v071
 .byte   FINE

@******************************************************@
	.align	2

song51:
	.byte	9	@ NumTrks
	.byte	0	@ NumBlks
	.byte	song51_pri	@ Priority
	.byte	song51_rev	@ Reverb.
    
	.word	song51_grp
    
	.word	song51_001
	.word	song51_002
	.word	song51_003
	.word	song51_004
	.word	song51_005
	.word	song51_006
	.word	song51_007
	.word	song51_008
	.word	song51_009

	.end
