	.include "MPlayDef.s"

	.equ	song92_grp, voicegroup000
	.equ	song92_pri, 0
	.equ	song92_rev, 0
	.equ	song92_mvl, 127
	.equ	song92_key, 0
	.equ	song92_tbs, 1
	.equ	song92_exg, 0
	.equ	song92_cmp, 1

	.section .rodata
	.global	song92
	.align	2


@**************** Track 1 (Midi-Chn.0) ****************@

song92_001:
@ 000   ----------------------------------------
 .byte   KEYSH , song92_key+0
 .byte   TEMPO , 194*song92_tbs/2
 .byte   VOICE , 24
 .byte   VOL , 49*song92_mvl/mxv
 .byte   W84
Label_0_01179475:
 .byte   W06
 .byte   N72 ,En3 ,v100
 .byte   W03
 .byte   N24 ,Gn3
 .byte   W03
@ 001   ----------------------------------------
 .byte   N36 ,Bn3
 .byte   W24
 .byte   N06 ,Fs3 ,v064
 .byte   N12 ,Gn3 ,v100
 .byte   W12
 .byte   N24 ,Bn3
 .byte   W24
 .byte   N12
 .byte   W12
 .byte   N18 ,Gn3
 .byte   W18
 .byte   N06
 .byte   W03
 .byte   N24 ,Bn3
 .byte   W03
@ 002   ----------------------------------------
 .byte   TEMPO , 194*song92_tbs/2
 .byte   N36 ,Dn4
 .byte   W24
 .byte   N12 ,Bn3
 .byte   W12
 .byte   N24 ,Dn4
 .byte   W24
 .byte   N12
 .byte   W12
 .byte   N24 ,Bn3
 .byte   W18
 .byte   N72 ,En3
 .byte   W03
 .byte   N24 ,Gn3
 .byte   W03
@ 003   ----------------------------------------
 .byte   N36 ,Bn3
 .byte   W24
 .byte   N12 ,Gn3
 .byte   W12
 .byte   N24 ,Bn3
 .byte   W24
 .byte   N12
 .byte   W12
 .byte   N18 ,Gn3
 .byte   W18
 .byte   N06
 .byte   W03
 .byte   N24 ,Bn3
 .byte   W03
@ 004   ----------------------------------------
 .byte   N36 ,Dn4
 .byte   W24
 .byte   N12 ,Bn3
 .byte   W12
 .byte   N60 ,Dn4
 .byte   W60
@ 005   ----------------------------------------
Label_0_011794C6:
 .byte   N24 ,En3 ,v100
 .byte   N36 ,Gn3
 .byte   W24
 .byte   N12 ,En3
 .byte   W12
 .byte   Gn3
 .byte   W12
 .byte   N24 ,En3
 .byte   N36 ,Gn3
 .byte   W24
 .byte   N12 ,En3
 .byte   W12
 .byte   Gn3
 .byte   W12
 .byte   PEND 
@ 006   ----------------------------------------
 .byte   PATT
  .word Label_0_011794C6
@ 007   ----------------------------------------
Label_0_011794E1:
 .byte   N24 ,Dn3 ,v100
 .byte   N36 ,Gn3
 .byte   W24
 .byte   N12 ,Dn3
 .byte   W12
 .byte   Gn3
 .byte   W12
 .byte   N24 ,Dn3
 .byte   N36 ,Gn3
 .byte   W24
 .byte   N12 ,Dn3
 .byte   W12
 .byte   Gn3
 .byte   W12
 .byte   PEND 
@ 008   ----------------------------------------
Label_0_011794F7:
 .byte   N24 ,Ds3 ,v100
 .byte   N36 ,Fs3
 .byte   W24
 .byte   N12 ,Ds3
 .byte   W12
 .byte   Fs3
 .byte   W12
 .byte   N24 ,Ds3
 .byte   N36 ,Fs3
 .byte   W24
 .byte   N12 ,Ds3
 .byte   W12
 .byte   Fs3
 .byte   W12
 .byte   PEND 
@ 009   ----------------------------------------
 .byte   PATT
  .word Label_0_011794C6
@ 010   ----------------------------------------
 .byte   PATT
  .word Label_0_011794C6
@ 011   ----------------------------------------
Label_0_01179517:
 .byte   N24 ,Dn3 ,v100
 .byte   N24 ,Gn3
 .byte   W24
 .byte   N12 ,Dn3
 .byte   N12 ,Gn3
 .byte   W12
 .byte   Dn3
 .byte   N12 ,Gn3
 .byte   W12
 .byte   N24 ,Ds3
 .byte   N24 ,Fs3
 .byte   W24
 .byte   Ds3
 .byte   N24 ,Fs3
 .byte   W24
 .byte   PEND 
@ 012   ----------------------------------------
 .byte   PATT
  .word Label_0_011794C6
@ 013   ----------------------------------------
 .byte   PATT
  .word Label_0_011794C6
@ 014   ----------------------------------------
 .byte   PATT
  .word Label_0_011794C6
@ 015   ----------------------------------------
 .byte   PATT
  .word Label_0_011794E1
@ 016   ----------------------------------------
 .byte   PATT
  .word Label_0_011794F7
@ 017   ----------------------------------------
 .byte   PATT
  .word Label_0_011794C6
@ 018   ----------------------------------------
 .byte   PATT
  .word Label_0_011794C6
@ 019   ----------------------------------------
 .byte   PATT
  .word Label_0_01179517
@ 020   ----------------------------------------
 .byte   PATT
  .word Label_0_011794C6
@ 021   ----------------------------------------
Label_0_0117955D:
 .byte   N24 ,Cn2 ,v100
 .byte   W24
 .byte   N12 ,Gn2
 .byte   W12
 .byte   N24 ,En3
 .byte   W24
 .byte   N12 ,Cn3
 .byte   W12
 .byte   N24 ,Gn2
 .byte   W24
 .byte   PEND 
@ 022   ----------------------------------------
 .byte   PATT
  .word Label_0_0117955D
@ 023   ----------------------------------------
Label_0_01179573:
 .byte   N24 ,Dn2 ,v100
 .byte   W24
 .byte   N12 ,Bn2
 .byte   W12
 .byte   N24 ,Dn3
 .byte   W24
 .byte   N12 ,Bn2
 .byte   W12
 .byte   N24 ,Gn2
 .byte   W24
 .byte   PEND 
@ 024   ----------------------------------------
 .byte   PATT
  .word Label_0_01179573
@ 025   ----------------------------------------
 .byte   PATT
  .word Label_0_0117955D
@ 026   ----------------------------------------
 .byte   PATT
  .word Label_0_0117955D
@ 027   ----------------------------------------
 .byte   PATT
  .word Label_0_01179573
@ 028   ----------------------------------------
Label_0_01179598:
 .byte   N48 ,Dn2 ,v100
 .byte   W48
 .byte   Bn2
 .byte   N48 ,Ds3
 .byte   W48
 .byte   PEND 
@ 029   ----------------------------------------
Label_0_011795A1:
 .byte   N24 ,Bn2 ,v100
 .byte   N24 ,En3
 .byte   W24
 .byte   N12
 .byte   W12
 .byte   N12
 .byte   W12
 .byte   N24 ,Bn2
 .byte   N24 ,Ds3
 .byte   W24
 .byte   N12
 .byte   W12
 .byte   N12
 .byte   W12
 .byte   PEND 
@ 030   ----------------------------------------
Label_0_011795B5:
 .byte   N24 ,Bn2 ,v100
 .byte   N24 ,En3
 .byte   W24
 .byte   N12
 .byte   W12
 .byte   N12
 .byte   W12
 .byte   N24 ,Fs3
 .byte   N24 ,An3
 .byte   W24
 .byte   N12
 .byte   W12
 .byte   N12
 .byte   W12
 .byte   PEND 
@ 031   ----------------------------------------
Label_0_011795C9:
 .byte   N36 ,En3 ,v100
 .byte   N36 ,Gn3
 .byte   W36
 .byte   En3
 .byte   N36 ,Gn3
 .byte   W36
 .byte   N24 ,Dn3
 .byte   N24 ,Fs3
 .byte   W24
 .byte   PEND 
@ 032   ----------------------------------------
 .byte   PATT
  .word Label_0_011795C9
@ 033   ----------------------------------------
Label_0_011795DE:
 .byte   N24 ,En3 ,v100
 .byte   N24 ,Gn3
 .byte   W24
 .byte   N12 ,En3
 .byte   N12 ,Gn3
 .byte   W12
 .byte   En3
 .byte   N12 ,Gn3
 .byte   W12
 .byte   N24 ,En3
 .byte   N24 ,Gn3
 .byte   W24
 .byte   N12 ,Dn3
 .byte   N24 ,Fs3
 .byte   W12
 .byte   N12 ,En3
 .byte   N12 ,Gn3
 .byte   W12
 .byte   PEND 
@ 034   ----------------------------------------
Label_0_011795FD:
 .byte   N24 ,En3 ,v100
 .byte   N24 ,Gn3
 .byte   W24
 .byte   N12 ,Bn2
 .byte   N12 ,En3
 .byte   W12
 .byte   Bn2
 .byte   N12 ,En3
 .byte   W12
 .byte   N48 ,Bn2
 .byte   N48 ,En3
 .byte   W48
 .byte   PEND 
@ 035   ----------------------------------------
 .byte   PATT
  .word Label_0_011794C6
@ 036   ----------------------------------------
 .byte   PATT
  .word Label_0_011794C6
@ 037   ----------------------------------------
 .byte   PATT
  .word Label_0_011794E1
@ 038   ----------------------------------------
 .byte   PATT
  .word Label_0_011794F7
@ 039   ----------------------------------------
 .byte   PATT
  .word Label_0_011794C6
@ 040   ----------------------------------------
 .byte   PATT
  .word Label_0_011794C6
@ 041   ----------------------------------------
 .byte   PATT
  .word Label_0_01179517
@ 042   ----------------------------------------
 .byte   PATT
  .word Label_0_011794C6
@ 043   ----------------------------------------
 .byte   PATT
  .word Label_0_011794C6
@ 044   ----------------------------------------
 .byte   PATT
  .word Label_0_011794C6
@ 045   ----------------------------------------
 .byte   PATT
  .word Label_0_011794E1
@ 046   ----------------------------------------
 .byte   PATT
  .word Label_0_011794F7
@ 047   ----------------------------------------
 .byte   PATT
  .word Label_0_011794C6
@ 048   ----------------------------------------
 .byte   PATT
  .word Label_0_011794C6
@ 049   ----------------------------------------
 .byte   PATT
  .word Label_0_01179517
@ 050   ----------------------------------------
 .byte   PATT
  .word Label_0_011794C6
@ 051   ----------------------------------------
 .byte   PATT
  .word Label_0_0117955D
@ 052   ----------------------------------------
 .byte   PATT
  .word Label_0_0117955D
@ 053   ----------------------------------------
 .byte   PATT
  .word Label_0_01179573
@ 054   ----------------------------------------
 .byte   PATT
  .word Label_0_01179573
@ 055   ----------------------------------------
 .byte   PATT
  .word Label_0_0117955D
@ 056   ----------------------------------------
 .byte   PATT
  .word Label_0_0117955D
@ 057   ----------------------------------------
 .byte   PATT
  .word Label_0_01179573
@ 058   ----------------------------------------
 .byte   PATT
  .word Label_0_01179598
@ 059   ----------------------------------------
 .byte   PATT
  .word Label_0_011795A1
@ 060   ----------------------------------------
 .byte   PATT
  .word Label_0_011795B5
@ 061   ----------------------------------------
 .byte   PATT
  .word Label_0_011795C9
@ 062   ----------------------------------------
 .byte   PATT
  .word Label_0_011795C9
@ 063   ----------------------------------------
 .byte   PATT
  .word Label_0_011795DE
@ 064   ----------------------------------------
 .byte   PATT
  .word Label_0_011795FD
@ 065   ----------------------------------------
 .byte   PATT
  .word Label_0_011794C6
@ 066   ----------------------------------------
 .byte   PATT
  .word Label_0_011794C6
@ 067   ----------------------------------------
 .byte   PATT
  .word Label_0_011794E1
@ 068   ----------------------------------------
 .byte   PATT
  .word Label_0_011794F7
@ 069   ----------------------------------------
 .byte   PATT
  .word Label_0_011794C6
@ 070   ----------------------------------------
 .byte   PATT
  .word Label_0_011794C6
@ 071   ----------------------------------------
 .byte   PATT
  .word Label_0_01179517
@ 072   ----------------------------------------
 .byte   PATT
  .word Label_0_011794C6
@ 073   ----------------------------------------
 .byte   PATT
  .word Label_0_011794C6
@ 074   ----------------------------------------
 .byte   PATT
  .word Label_0_011794C6
@ 075   ----------------------------------------
 .byte   PATT
  .word Label_0_011794E1
@ 076   ----------------------------------------
 .byte   PATT
  .word Label_0_011794F7
@ 077   ----------------------------------------
 .byte   PATT
  .word Label_0_011794C6
@ 078   ----------------------------------------
 .byte   PATT
  .word Label_0_011794C6
@ 079   ----------------------------------------
 .byte   PATT
  .word Label_0_01179517
@ 080   ----------------------------------------
 .byte   PATT
  .word Label_0_011794C6
@ 081   ----------------------------------------
 .byte   PATT
  .word Label_0_0117955D
@ 082   ----------------------------------------
 .byte   PATT
  .word Label_0_0117955D
@ 083   ----------------------------------------
 .byte   PATT
  .word Label_0_01179573
@ 084   ----------------------------------------
 .byte   PATT
  .word Label_0_01179573
@ 085   ----------------------------------------
 .byte   PATT
  .word Label_0_0117955D
@ 086   ----------------------------------------
 .byte   PATT
  .word Label_0_0117955D
@ 087   ----------------------------------------
 .byte   PATT
  .word Label_0_01179573
@ 088   ----------------------------------------
 .byte   PATT
  .word Label_0_01179598
@ 089   ----------------------------------------
 .byte   PATT
  .word Label_0_011795A1
@ 090   ----------------------------------------
 .byte   PATT
  .word Label_0_011795B5
@ 091   ----------------------------------------
 .byte   PATT
  .word Label_0_011795C9
@ 092   ----------------------------------------
 .byte   PATT
  .word Label_0_011795C9
@ 093   ----------------------------------------
 .byte   PATT
  .word Label_0_011795DE
@ 094   ----------------------------------------
 .byte   PATT
  .word Label_0_011795FD
@ 095   ----------------------------------------
 .byte   GOTO
  .word Label_0_01179475
 .byte   FINE

@**************** Track 2 (Midi-Chn.1) ****************@

song92_002:
@ 000   ----------------------------------------
 .byte   KEYSH , song92_key+0
 .byte   VOICE , 75
 .byte   VOL , 40*song92_mvl/mxv
 .byte   W84
Label_1_0117974B:
 .byte   W12
@ 001   ----------------------------------------
 .byte   W96
@ 002   ----------------------------------------
 .byte   W96
@ 003   ----------------------------------------
 .byte   W96
@ 004   ----------------------------------------
 .byte   W96
@ 005   ----------------------------------------
Label_1_01179750:
 .byte   N12 ,Bn3 ,v100
 .byte   W12
 .byte   En4
 .byte   W12
 .byte   Dn4
 .byte   W12
 .byte   En4
 .byte   W12
 .byte   N48 ,Bn3
 .byte   W48
 .byte   PEND 
@ 006   ----------------------------------------
 .byte   PATT
  .word Label_1_01179750
@ 007   ----------------------------------------
Label_1_01179763:
 .byte   N12 ,Bn3 ,v100
 .byte   W12
 .byte   En4
 .byte   W12
 .byte   Dn4
 .byte   W12
 .byte   Bn3
 .byte   W12
 .byte   N24 ,Gn3
 .byte   W24
 .byte   An3
 .byte   W24
 .byte   PEND 
@ 008   ----------------------------------------
 .byte   N96 ,Bn3
 .byte   W96
@ 009   ----------------------------------------
Label_1_01179776:
 .byte   N12 ,Bn3 ,v100
 .byte   W12
 .byte   En4
 .byte   W12
 .byte   Dn4
 .byte   W12
 .byte   En4
 .byte   W12
 .byte   N36 ,Bn3
 .byte   W36
 .byte   N12 ,An3
 .byte   W12
 .byte   PEND 
@ 010   ----------------------------------------
 .byte   PATT
  .word Label_1_01179750
@ 011   ----------------------------------------
Label_1_0117978C:
 .byte   N12 ,Bn3 ,v100
 .byte   W12
 .byte   En4
 .byte   W12
 .byte   Dn4
 .byte   W12
 .byte   Bn3
 .byte   W12
 .byte   N24 ,An3
 .byte   W24
 .byte   Gn3
 .byte   W24
 .byte   PEND 
@ 012   ----------------------------------------
 .byte   N96 ,En3
 .byte   W96
@ 013   ----------------------------------------
 .byte   PATT
  .word Label_1_01179776
@ 014   ----------------------------------------
 .byte   PATT
  .word Label_1_01179750
@ 015   ----------------------------------------
 .byte   PATT
  .word Label_1_01179763
@ 016   ----------------------------------------
 .byte   N96 ,Bn3 ,v100
 .byte   W96
@ 017   ----------------------------------------
 .byte   PATT
  .word Label_1_01179776
@ 018   ----------------------------------------
 .byte   PATT
  .word Label_1_01179750
@ 019   ----------------------------------------
Label_1_011797BC:
 .byte   N12 ,En4 ,v100
 .byte   W12
 .byte   Bn4
 .byte   W12
 .byte   An4
 .byte   W12
 .byte   Gn4
 .byte   W12
 .byte   N24 ,En4
 .byte   W24
 .byte   Dn4
 .byte   W24
 .byte   PEND 
@ 020   ----------------------------------------
 .byte   N96 ,En4
 .byte   W96
@ 021   ----------------------------------------
Label_1_011797CF:
 .byte   N24 ,Cn4 ,v100
 .byte   N24 ,En4
 .byte   W24
 .byte   N12 ,Cn4
 .byte   N12 ,En4
 .byte   W12
 .byte   Bn3
 .byte   N12 ,Ds4
 .byte   W12
 .byte   N24 ,Cn4
 .byte   N24 ,En4
 .byte   W24
 .byte   Dn4
 .byte   N24 ,Fs4
 .byte   W24
 .byte   PEND 
@ 022   ----------------------------------------
Label_1_011797E8:
 .byte   N16 ,En4 ,v100
 .byte   N16 ,Gn4
 .byte   W16
 .byte   En4
 .byte   N16 ,Gn4
 .byte   W16
 .byte   Dn4
 .byte   N16 ,An4
 .byte   W16
 .byte   N48 ,Cn4
 .byte   N48 ,En4
 .byte   W48
 .byte   PEND 
@ 023   ----------------------------------------
Label_1_011797FC:
 .byte   N24 ,Bn3 ,v100
 .byte   N24 ,Dn4
 .byte   W24
 .byte   N12 ,Bn3
 .byte   N12 ,Dn4
 .byte   W12
 .byte   N24
 .byte   N24 ,Gn4
 .byte   W24
 .byte   N12 ,Dn4
 .byte   N12 ,Gn4
 .byte   W12
 .byte   N24 ,Fs4
 .byte   N24 ,An4
 .byte   W24
 .byte   PEND 
@ 024   ----------------------------------------
 .byte   N96 ,Gn4
 .byte   N96 ,Bn4
 .byte   W96
@ 025   ----------------------------------------
 .byte   PATT
  .word Label_1_011797CF
@ 026   ----------------------------------------
 .byte   PATT
  .word Label_1_011797E8
@ 027   ----------------------------------------
 .byte   PATT
  .word Label_1_011797FC
@ 028   ----------------------------------------
Label_1_0117982A:
 .byte   N48 ,Gn4 ,v100
 .byte   N48 ,Bn4
 .byte   W48
 .byte   N12
 .byte   W12
 .byte   Dn5
 .byte   W12
 .byte   Bn4
 .byte   W12
 .byte   An4
 .byte   W12
 .byte   PEND 
@ 029   ----------------------------------------
Label_1_01179839:
 .byte   N48 ,Bn4 ,v100
 .byte   W48
 .byte   N12
 .byte   W12
 .byte   Dn5
 .byte   W12
 .byte   Bn4
 .byte   W12
 .byte   An4
 .byte   W12
 .byte   PEND 
@ 030   ----------------------------------------
Label_1_01179846:
 .byte   N48 ,Bn4 ,v100
 .byte   W48
 .byte   N12
 .byte   W12
 .byte   Dn5
 .byte   W12
 .byte   Bn4
 .byte   W12
 .byte   Dn5
 .byte   W12
 .byte   PEND 
@ 031   ----------------------------------------
 .byte   TIE ,En5
 .byte   W96
@ 032   ----------------------------------------
 .byte   W96
@ 033   ----------------------------------------
 .byte   EOT
 .byte   W96
@ 034   ----------------------------------------
 .byte   W96
@ 035   ----------------------------------------
 .byte   PATT
  .word Label_1_01179750
@ 036   ----------------------------------------
 .byte   PATT
  .word Label_1_01179750
@ 037   ----------------------------------------
 .byte   PATT
  .word Label_1_01179763
@ 038   ----------------------------------------
 .byte   N96 ,Bn3 ,v100
 .byte   W96
@ 039   ----------------------------------------
 .byte   PATT
  .word Label_1_01179776
@ 040   ----------------------------------------
 .byte   PATT
  .word Label_1_01179750
@ 041   ----------------------------------------
 .byte   PATT
  .word Label_1_0117978C
@ 042   ----------------------------------------
 .byte   N96 ,En3 ,v100
 .byte   W96
@ 043   ----------------------------------------
 .byte   PATT
  .word Label_1_01179776
@ 044   ----------------------------------------
 .byte   PATT
  .word Label_1_01179750
@ 045   ----------------------------------------
 .byte   PATT
  .word Label_1_01179763
@ 046   ----------------------------------------
 .byte   N96 ,Bn3 ,v100
 .byte   W96
@ 047   ----------------------------------------
 .byte   PATT
  .word Label_1_01179776
@ 048   ----------------------------------------
 .byte   PATT
  .word Label_1_01179750
@ 049   ----------------------------------------
 .byte   PATT
  .word Label_1_011797BC
@ 050   ----------------------------------------
 .byte   N96 ,En4 ,v100
 .byte   W96
@ 051   ----------------------------------------
 .byte   PATT
  .word Label_1_011797CF
@ 052   ----------------------------------------
 .byte   PATT
  .word Label_1_011797E8
@ 053   ----------------------------------------
 .byte   PATT
  .word Label_1_011797FC
@ 054   ----------------------------------------
 .byte   N96 ,Gn4 ,v100
 .byte   N96 ,Bn4
 .byte   W96
@ 055   ----------------------------------------
 .byte   PATT
  .word Label_1_011797CF
@ 056   ----------------------------------------
 .byte   PATT
  .word Label_1_011797E8
@ 057   ----------------------------------------
 .byte   PATT
  .word Label_1_011797FC
@ 058   ----------------------------------------
 .byte   PATT
  .word Label_1_0117982A
@ 059   ----------------------------------------
 .byte   PATT
  .word Label_1_01179839
@ 060   ----------------------------------------
 .byte   PATT
  .word Label_1_01179846
@ 061   ----------------------------------------
 .byte   TIE ,En5 ,v100
 .byte   W96
@ 062   ----------------------------------------
 .byte   W96
@ 063   ----------------------------------------
 .byte   EOT
 .byte   W96
@ 064   ----------------------------------------
 .byte   W96
@ 065   ----------------------------------------
 .byte   PATT
  .word Label_1_01179750
@ 066   ----------------------------------------
 .byte   PATT
  .word Label_1_01179750
@ 067   ----------------------------------------
 .byte   PATT
  .word Label_1_01179763
@ 068   ----------------------------------------
 .byte   N96 ,Bn3 ,v100
 .byte   W96
@ 069   ----------------------------------------
 .byte   PATT
  .word Label_1_01179776
@ 070   ----------------------------------------
 .byte   PATT
  .word Label_1_01179750
@ 071   ----------------------------------------
 .byte   PATT
  .word Label_1_0117978C
@ 072   ----------------------------------------
 .byte   N96 ,En3 ,v100
 .byte   W96
@ 073   ----------------------------------------
 .byte   PATT
  .word Label_1_01179776
@ 074   ----------------------------------------
 .byte   PATT
  .word Label_1_01179750
@ 075   ----------------------------------------
 .byte   PATT
  .word Label_1_01179763
@ 076   ----------------------------------------
 .byte   N96 ,Bn3 ,v100
 .byte   W96
@ 077   ----------------------------------------
 .byte   PATT
  .word Label_1_01179776
@ 078   ----------------------------------------
 .byte   PATT
  .word Label_1_01179750
@ 079   ----------------------------------------
 .byte   PATT
  .word Label_1_011797BC
@ 080   ----------------------------------------
 .byte   N96 ,En4 ,v100
 .byte   W96
@ 081   ----------------------------------------
 .byte   PATT
  .word Label_1_011797CF
@ 082   ----------------------------------------
 .byte   PATT
  .word Label_1_011797E8
@ 083   ----------------------------------------
 .byte   PATT
  .word Label_1_011797FC
@ 084   ----------------------------------------
 .byte   N96 ,Gn4 ,v100
 .byte   N96 ,Bn4
 .byte   W96
@ 085   ----------------------------------------
 .byte   PATT
  .word Label_1_011797CF
@ 086   ----------------------------------------
 .byte   PATT
  .word Label_1_011797E8
@ 087   ----------------------------------------
 .byte   PATT
  .word Label_1_011797FC
@ 088   ----------------------------------------
 .byte   PATT
  .word Label_1_0117982A
@ 089   ----------------------------------------
 .byte   PATT
  .word Label_1_01179839
@ 090   ----------------------------------------
 .byte   PATT
  .word Label_1_01179846
@ 091   ----------------------------------------
 .byte   TIE ,En5 ,v100
 .byte   W96
@ 092   ----------------------------------------
 .byte   W96
@ 093   ----------------------------------------
 .byte   EOT
 .byte   W96
@ 094   ----------------------------------------
 .byte   W96
@ 095   ----------------------------------------
 .byte   GOTO
  .word Label_1_0117974B
 .byte   FINE

@**************** Track 3 (Midi-Chn.2) ****************@

song92_003:
@ 000   ----------------------------------------
 .byte   KEYSH , song92_key+0
 .byte   VOICE , 121
 .byte   VOL , 47*song92_mvl/mxv
 .byte   W84
Label_2_01179977:
 .byte   W12
@ 001   ----------------------------------------
 .byte   W96
@ 002   ----------------------------------------
 .byte   W96
@ 003   ----------------------------------------
 .byte   W96
@ 004   ----------------------------------------
 .byte   W48
 .byte   N12 ,Fn1 ,v100
 .byte   W12
 .byte   N36
 .byte   W36
@ 005   ----------------------------------------
Label_2_01179982:
 .byte   N48 ,Fn1 ,v100
 .byte   W48
 .byte   N24
 .byte   W24
 .byte   N24
 .byte   W24
 .byte   PEND 
@ 006   ----------------------------------------
Label_2_0117998B:
 .byte   N36 ,Fn1 ,v100
 .byte   W36
 .byte   N12
 .byte   W12
 .byte   N24
 .byte   W24
 .byte   N24
 .byte   W24
 .byte   PEND 
@ 007   ----------------------------------------
 .byte   PATT
  .word Label_2_01179982
@ 008   ----------------------------------------
 .byte   PATT
  .word Label_2_0117998B
@ 009   ----------------------------------------
 .byte   PATT
  .word Label_2_01179982
@ 010   ----------------------------------------
 .byte   PATT
  .word Label_2_0117998B
@ 011   ----------------------------------------
 .byte   PATT
  .word Label_2_01179982
@ 012   ----------------------------------------
 .byte   PATT
  .word Label_2_0117998B
@ 013   ----------------------------------------
Label_2_011799B4:
 .byte   N24 ,Fn1 ,v100
 .byte   W24
 .byte   An3
 .byte   W24
 .byte   Fn1
 .byte   W24
 .byte   N24
 .byte   W24
 .byte   PEND 
@ 014   ----------------------------------------
Label_2_011799BF:
 .byte   N24 ,Fn1 ,v100
 .byte   W24
 .byte   N12 ,An3
 .byte   W12
 .byte   Fn1
 .byte   W12
 .byte   N24
 .byte   W24
 .byte   N24
 .byte   W24
 .byte   PEND 
@ 015   ----------------------------------------
 .byte   PATT
  .word Label_2_011799B4
@ 016   ----------------------------------------
 .byte   PATT
  .word Label_2_011799BF
@ 017   ----------------------------------------
 .byte   PATT
  .word Label_2_011799B4
@ 018   ----------------------------------------
 .byte   PATT
  .word Label_2_011799BF
@ 019   ----------------------------------------
 .byte   PATT
  .word Label_2_011799B4
@ 020   ----------------------------------------
 .byte   PATT
  .word Label_2_011799BF
@ 021   ----------------------------------------
Label_2_011799EB:
 .byte   N24 ,Fn1 ,v100
 .byte   W24
 .byte   N12 ,An3
 .byte   W12
 .byte   Fn1
 .byte   W12
 .byte   N24
 .byte   W24
 .byte   N12 ,An3
 .byte   W12
 .byte   Fn1
 .byte   W12
 .byte   PEND 
@ 022   ----------------------------------------
 .byte   PATT
  .word Label_2_011799EB
@ 023   ----------------------------------------
 .byte   PATT
  .word Label_2_011799EB
@ 024   ----------------------------------------
 .byte   PATT
  .word Label_2_011799EB
@ 025   ----------------------------------------
 .byte   PATT
  .word Label_2_011799EB
@ 026   ----------------------------------------
 .byte   PATT
  .word Label_2_011799EB
@ 027   ----------------------------------------
 .byte   PATT
  .word Label_2_011799EB
@ 028   ----------------------------------------
Label_2_01179A1A:
 .byte   N24 ,Fn1 ,v100
 .byte   W24
 .byte   N12 ,An3
 .byte   W12
 .byte   Fn1
 .byte   W12
 .byte   N48
 .byte   W48
 .byte   PEND 
@ 029   ----------------------------------------
 .byte   PATT
  .word Label_2_011799EB
@ 030   ----------------------------------------
Label_2_01179A2B:
 .byte   N24 ,Fn1 ,v100
 .byte   W24
 .byte   N12 ,An3
 .byte   W12
 .byte   Fn1
 .byte   W12
 .byte   N24
 .byte   W24
 .byte   An3
 .byte   W24
 .byte   PEND 
@ 031   ----------------------------------------
 .byte   PATT
  .word Label_2_01179A2B
@ 032   ----------------------------------------
 .byte   PATT
  .word Label_2_011799EB
@ 033   ----------------------------------------
Label_2_01179A43:
 .byte   N24 ,Fn1 ,v100
 .byte   W24
 .byte   N12 ,An3
 .byte   W12
 .byte   Fn1
 .byte   W12
 .byte   N24
 .byte   W24
 .byte   N24
 .byte   N24 ,An3
 .byte   W24
 .byte   PEND 
@ 034   ----------------------------------------
 .byte   PATT
  .word Label_2_01179A2B
@ 035   ----------------------------------------
 .byte   PATT
  .word Label_2_01179982
@ 036   ----------------------------------------
 .byte   PATT
  .word Label_2_0117998B
@ 037   ----------------------------------------
 .byte   PATT
  .word Label_2_01179982
@ 038   ----------------------------------------
 .byte   PATT
  .word Label_2_0117998B
@ 039   ----------------------------------------
 .byte   PATT
  .word Label_2_01179982
@ 040   ----------------------------------------
 .byte   PATT
  .word Label_2_0117998B
@ 041   ----------------------------------------
 .byte   PATT
  .word Label_2_01179982
@ 042   ----------------------------------------
 .byte   PATT
  .word Label_2_0117998B
@ 043   ----------------------------------------
 .byte   PATT
  .word Label_2_011799B4
@ 044   ----------------------------------------
 .byte   PATT
  .word Label_2_011799BF
@ 045   ----------------------------------------
 .byte   PATT
  .word Label_2_011799B4
@ 046   ----------------------------------------
 .byte   PATT
  .word Label_2_011799BF
@ 047   ----------------------------------------
 .byte   PATT
  .word Label_2_011799B4
@ 048   ----------------------------------------
 .byte   PATT
  .word Label_2_011799BF
@ 049   ----------------------------------------
 .byte   PATT
  .word Label_2_011799B4
@ 050   ----------------------------------------
 .byte   PATT
  .word Label_2_011799BF
@ 051   ----------------------------------------
 .byte   PATT
  .word Label_2_011799EB
@ 052   ----------------------------------------
 .byte   PATT
  .word Label_2_011799EB
@ 053   ----------------------------------------
 .byte   PATT
  .word Label_2_011799EB
@ 054   ----------------------------------------
 .byte   PATT
  .word Label_2_011799EB
@ 055   ----------------------------------------
 .byte   PATT
  .word Label_2_011799EB
@ 056   ----------------------------------------
 .byte   PATT
  .word Label_2_011799EB
@ 057   ----------------------------------------
 .byte   PATT
  .word Label_2_011799EB
@ 058   ----------------------------------------
 .byte   PATT
  .word Label_2_01179A1A
@ 059   ----------------------------------------
 .byte   PATT
  .word Label_2_011799EB
@ 060   ----------------------------------------
 .byte   PATT
  .word Label_2_01179A2B
@ 061   ----------------------------------------
 .byte   PATT
  .word Label_2_01179A2B
@ 062   ----------------------------------------
 .byte   PATT
  .word Label_2_011799EB
@ 063   ----------------------------------------
 .byte   PATT
  .word Label_2_01179A43
@ 064   ----------------------------------------
 .byte   PATT
  .word Label_2_01179A2B
@ 065   ----------------------------------------
 .byte   PATT
  .word Label_2_01179982
@ 066   ----------------------------------------
 .byte   PATT
  .word Label_2_0117998B
@ 067   ----------------------------------------
 .byte   PATT
  .word Label_2_01179982
@ 068   ----------------------------------------
 .byte   PATT
  .word Label_2_0117998B
@ 069   ----------------------------------------
 .byte   PATT
  .word Label_2_01179982
@ 070   ----------------------------------------
 .byte   PATT
  .word Label_2_0117998B
@ 071   ----------------------------------------
 .byte   PATT
  .word Label_2_01179982
@ 072   ----------------------------------------
 .byte   PATT
  .word Label_2_0117998B
@ 073   ----------------------------------------
 .byte   PATT
  .word Label_2_011799B4
@ 074   ----------------------------------------
 .byte   PATT
  .word Label_2_011799BF
@ 075   ----------------------------------------
 .byte   PATT
  .word Label_2_011799B4
@ 076   ----------------------------------------
 .byte   PATT
  .word Label_2_011799BF
@ 077   ----------------------------------------
 .byte   PATT
  .word Label_2_011799B4
@ 078   ----------------------------------------
 .byte   PATT
  .word Label_2_011799BF
@ 079   ----------------------------------------
 .byte   PATT
  .word Label_2_011799B4
@ 080   ----------------------------------------
 .byte   PATT
  .word Label_2_011799BF
@ 081   ----------------------------------------
 .byte   PATT
  .word Label_2_011799EB
@ 082   ----------------------------------------
 .byte   PATT
  .word Label_2_011799EB
@ 083   ----------------------------------------
 .byte   PATT
  .word Label_2_011799EB
@ 084   ----------------------------------------
 .byte   PATT
  .word Label_2_011799EB
@ 085   ----------------------------------------
 .byte   PATT
  .word Label_2_011799EB
@ 086   ----------------------------------------
 .byte   PATT
  .word Label_2_011799EB
@ 087   ----------------------------------------
 .byte   PATT
  .word Label_2_011799EB
@ 088   ----------------------------------------
 .byte   PATT
  .word Label_2_01179A1A
@ 089   ----------------------------------------
 .byte   PATT
  .word Label_2_011799EB
@ 090   ----------------------------------------
 .byte   PATT
  .word Label_2_01179A2B
@ 091   ----------------------------------------
 .byte   PATT
  .word Label_2_01179A2B
@ 092   ----------------------------------------
 .byte   PATT
  .word Label_2_011799EB
@ 093   ----------------------------------------
 .byte   PATT
  .word Label_2_01179A43
@ 094   ----------------------------------------
 .byte   PATT
  .word Label_2_01179A2B
@ 095   ----------------------------------------
 .byte   GOTO
  .word Label_2_01179977
 .byte   FINE

@******************************************************@
	.align	2

song92:
	.byte	3	@ NumTrks
	.byte	0	@ NumBlks
	.byte	song92_pri	@ Priority
	.byte	song92_rev	@ Reverb.
    
	.word	song92_grp
    
	.word	song92_001
	.word	song92_002
	.word	song92_003

	.end
