	.include "MPlayDef.s"

	.equ	Redial_grp, voicegroup000
	.equ	Redial_pri, 0
	.equ	Redial_rev, 0
	.equ	Redial_mvl, 80
	.equ	Redial_key, 0
	.equ	Redial_tbs, 1
	.equ	Redial_exg, 0
	.equ	Redial_cmp, 1

	.section .rodata
	.global	Redial
	.align	2

@**************** Track 1 (Midi-Chn.1) ****************@

Redial_1:
	.byte	KEYSH , Redial_key+0
@ 000   ----------------------------------------
	.byte	TEMPO , 154*Redial_tbs/2
	.byte		VOICE , 4
	.byte		VOL   , 79*Redial_mvl/mxv
	.byte	W96
@ 001   ----------------------------------------
	.byte	W96
@ 002   ----------------------------------------
	.byte	W96
@ 003   ----------------------------------------
	.byte	W96
Redial_1_B1:
@ 004   ----------------------------------------
	.byte	W01
	.byte		N01   , Ds3 , v088
	.byte		N11   , En3 , v092
	.byte	W12
	.byte		        Gn3 , v096
	.byte	W80
	.byte	W03
@ 005   ----------------------------------------
Redial_1_005:
	.byte	W13
	.byte		N01   , Gs2 , v088
	.byte	W01
	.byte		N10   , An2 
	.byte	W13
	.byte		N08   , Cn3 , v096
	.byte	W10
	.byte		N09   , An2 , v088
	.byte	W12
	.byte		N21   , Cn3 , v096
	.byte	W24
	.byte		N11   , Dn3 , v088
	.byte	W13
	.byte		N09   , Cn3 , v084
	.byte	W10
	.byte	PEND
@ 006   ----------------------------------------
Redial_1_006:
	.byte	W01
	.byte		N01   , Ds3 , v088
	.byte		N11   , En3 , v092
	.byte	W12
	.byte		        Gn3 , v096
	.byte	W80
	.byte	W03
	.byte	PEND
@ 007   ----------------------------------------
	.byte	PATT
	 .word	Redial_1_005
@ 008   ----------------------------------------
	.byte	PATT
	 .word	Redial_1_006
@ 009   ----------------------------------------
	.byte	PATT
	 .word	Redial_1_005
@ 010   ----------------------------------------
	.byte	PATT
	 .word	Redial_1_006
@ 011   ----------------------------------------
	.byte	W13
	.byte		N01   , Gs2 , v088
	.byte	W01
	.byte		N10   , An2 
	.byte	W13
	.byte		N08   , Cn3 , v096
	.byte	W10
	.byte		N09   , An2 , v088
	.byte	W12
	.byte		N21   , Cn3 , v096
	.byte	W24
	.byte		N11   , Dn3 , v088
	.byte	W23
@ 012   ----------------------------------------
	.byte	W96
@ 013   ----------------------------------------
	.byte	W96
@ 014   ----------------------------------------
	.byte	W96
@ 015   ----------------------------------------
	.byte	W96
@ 016   ----------------------------------------
	.byte	W96
@ 017   ----------------------------------------
	.byte	W96
@ 018   ----------------------------------------
	.byte	W96
@ 019   ----------------------------------------
	.byte	W96
@ 020   ----------------------------------------
	.byte	W96
@ 021   ----------------------------------------
	.byte	W96
@ 022   ----------------------------------------
	.byte	W96
@ 023   ----------------------------------------
	.byte	W96
@ 024   ----------------------------------------
	.byte	W96
@ 025   ----------------------------------------
	.byte	W96
@ 026   ----------------------------------------
	.byte	W96
@ 027   ----------------------------------------
	.byte	W96
@ 028   ----------------------------------------
	.byte	W96
@ 029   ----------------------------------------
	.byte	W96
@ 030   ----------------------------------------
	.byte	W96
@ 031   ----------------------------------------
	.byte	W96
@ 032   ----------------------------------------
	.byte	W96
@ 033   ----------------------------------------
	.byte	W96
@ 034   ----------------------------------------
	.byte	W96
@ 035   ----------------------------------------
	.byte	W96
	.byte	GOTO
	 .word	Redial_1_B1
Redial_1_B2:
@ 036   ----------------------------------------
	.byte	FINE

@**************** Track 2 (Midi-Chn.2) ****************@

Redial_2:
	.byte	KEYSH , Redial_key+0
@ 000   ----------------------------------------
	.byte		VOICE , 104
	.byte		VOL   , 81*Redial_mvl/mxv
	.byte	W96
@ 001   ----------------------------------------
	.byte	W96
@ 002   ----------------------------------------
	.byte	W96
@ 003   ----------------------------------------
	.byte	W96
Redial_2_B1:
@ 004   ----------------------------------------
	.byte	W01
	.byte		N01   , Ds3 , v088
	.byte		N11   , En3 , v092
	.byte	W12
	.byte		        Gn3 , v096
	.byte	W80
	.byte	W03
@ 005   ----------------------------------------
Redial_2_005:
	.byte	W13
	.byte		N01   , Gs2 , v088
	.byte	W01
	.byte		N10   , An2 
	.byte	W13
	.byte		N08   , Cn3 , v096
	.byte	W10
	.byte		N09   , An2 , v088
	.byte	W12
	.byte		N21   , Cn3 , v096
	.byte	W24
	.byte		N11   , Dn3 , v088
	.byte	W13
	.byte		N09   , Cn3 , v084
	.byte	W10
	.byte	PEND
@ 006   ----------------------------------------
Redial_2_006:
	.byte	W01
	.byte		N01   , Ds3 , v088
	.byte		N11   , En3 , v092
	.byte	W12
	.byte		        Gn3 , v096
	.byte	W80
	.byte	W03
	.byte	PEND
@ 007   ----------------------------------------
	.byte	PATT
	 .word	Redial_2_005
@ 008   ----------------------------------------
	.byte	PATT
	 .word	Redial_2_006
@ 009   ----------------------------------------
	.byte	PATT
	 .word	Redial_2_005
@ 010   ----------------------------------------
	.byte	PATT
	 .word	Redial_2_006
@ 011   ----------------------------------------
	.byte	PATT
	 .word	Redial_2_005
@ 012   ----------------------------------------
Redial_2_012:
	.byte	W01
	.byte		N01   , Ds4 , v088
	.byte		N11   , En4 , v092
	.byte	W12
	.byte		        Gn4 , v096
	.byte	W80
	.byte	W03
	.byte	PEND
@ 013   ----------------------------------------
Redial_2_013:
	.byte	W13
	.byte		N01   , Gs3 , v088
	.byte	W01
	.byte		N10   , An3 
	.byte	W13
	.byte		N08   , Cn4 , v096
	.byte	W10
	.byte		N09   , An3 , v088
	.byte	W12
	.byte		N21   , Cn4 , v096
	.byte	W24
	.byte		N11   , Dn4 , v088
	.byte	W13
	.byte		N09   , Cn4 , v084
	.byte	W10
	.byte	PEND
@ 014   ----------------------------------------
	.byte	PATT
	 .word	Redial_2_012
@ 015   ----------------------------------------
	.byte	PATT
	 .word	Redial_2_013
@ 016   ----------------------------------------
	.byte	PATT
	 .word	Redial_2_012
@ 017   ----------------------------------------
	.byte	PATT
	 .word	Redial_2_013
@ 018   ----------------------------------------
	.byte	PATT
	 .word	Redial_2_012
@ 019   ----------------------------------------
	.byte	PATT
	 .word	Redial_2_013
@ 020   ----------------------------------------
Redial_2_020:
	.byte		N02   , Ds3 , v084
	.byte	W02
	.byte		N44   , En3 , v092
	.byte	W44
	.byte	W03
	.byte		N22   , Dn3 , v084
	.byte	W23
	.byte		N24   , An2 , v096
	.byte	W24
	.byte	PEND
@ 021   ----------------------------------------
	.byte		N01   , Ds3 , v076
	.byte	W02
	.byte		N42   , En3 , v096
	.byte	W44
	.byte	W02
	.byte		N24   , Dn3 , v092
	.byte	W24
	.byte	W01
	.byte		N23   , An2 
	.byte	W23
@ 022   ----------------------------------------
Redial_2_022:
	.byte		N02   , Cs3 , v068
	.byte	W03
	.byte		N44   , Dn3 , v096
	.byte	W44
	.byte	W02
	.byte		N23   , Cn3 , v092
	.byte	W23
	.byte		        Gn2 
	.byte	W24
	.byte	PEND
@ 023   ----------------------------------------
Redial_2_023:
	.byte		N02   , Cs3 , v080
	.byte	W03
	.byte		N44   , Dn3 , v096
	.byte	W44
	.byte	W01
	.byte		N36   , Cn3 
	.byte	W48
	.byte	PEND
@ 024   ----------------------------------------
Redial_2_024:
	.byte	W02
	.byte		N01   , Cs3 , v084
	.byte	W01
	.byte		N42   , Dn3 , v096
	.byte	W44
	.byte	W01
	.byte		N22   , Cn3 , v088
	.byte	W24
	.byte		N23   , Gn2 , v092
	.byte	W23
	.byte		N04   , Cs3 , v076
	.byte	W01
	.byte	PEND
@ 025   ----------------------------------------
Redial_2_025:
	.byte	W03
	.byte		N42   , Dn3 , v092
	.byte	W44
	.byte	W01
	.byte		N20   , Cn3 , v084
	.byte	W24
	.byte		N23   , As2 
	.byte	W23
	.byte		N03   , Gs2 , v088
	.byte	W01
	.byte	PEND
@ 026   ----------------------------------------
Redial_2_026:
	.byte	W03
	.byte		N44   , An2 , v088
	.byte	W44
	.byte	W01
	.byte		N22   , Gn2 
	.byte	W23
	.byte		N03   , An2 , v080
	.byte	W03
	.byte		N24   , As2 , v096
	.byte	W22
	.byte	PEND
@ 027   ----------------------------------------
	.byte	W04
	.byte		N84   , An2 , v084
	.byte	W92
@ 028   ----------------------------------------
	.byte	PATT
	 .word	Redial_2_020
@ 029   ----------------------------------------
	.byte		N01   , Ds3 , v076
	.byte	W02
	.byte		N42   , En3 , v096
	.byte	W44
	.byte	W02
	.byte		N24   , Dn3 , v092
	.byte	W24
	.byte	W01
	.byte		        An2 
	.byte	W23
@ 030   ----------------------------------------
	.byte	PATT
	 .word	Redial_2_022
@ 031   ----------------------------------------
	.byte	PATT
	 .word	Redial_2_023
@ 032   ----------------------------------------
	.byte	PATT
	 .word	Redial_2_024
@ 033   ----------------------------------------
	.byte	PATT
	 .word	Redial_2_025
@ 034   ----------------------------------------
	.byte	PATT
	 .word	Redial_2_026
@ 035   ----------------------------------------
	.byte	W04
	.byte		N84   , An2 , v084
	.byte	W92
	.byte	GOTO
	 .word	Redial_2_B1
Redial_2_B2:
@ 036   ----------------------------------------
	.byte	FINE

@**************** Track 3 (Midi-Chn.3) ****************@

Redial_3:
	.byte	KEYSH , Redial_key+0
@ 000   ----------------------------------------
	.byte		VOICE , 103
	.byte		VOL   , 33*Redial_mvl/mxv
	.byte	W96
@ 001   ----------------------------------------
	.byte	W96
@ 002   ----------------------------------------
	.byte	W96
@ 003   ----------------------------------------
	.byte	W96
Redial_3_B1:
@ 004   ----------------------------------------
	.byte	W96
@ 005   ----------------------------------------
	.byte	W96
@ 006   ----------------------------------------
	.byte	W96
@ 007   ----------------------------------------
	.byte	W96
@ 008   ----------------------------------------
	.byte	W96
@ 009   ----------------------------------------
	.byte	W96
@ 010   ----------------------------------------
	.byte	W96
@ 011   ----------------------------------------
	.byte	W96
@ 012   ----------------------------------------
	.byte	W96
@ 013   ----------------------------------------
	.byte	W96
@ 014   ----------------------------------------
	.byte	W96
@ 015   ----------------------------------------
	.byte	W96
@ 016   ----------------------------------------
	.byte	W96
@ 017   ----------------------------------------
	.byte	W96
@ 018   ----------------------------------------
	.byte	W96
@ 019   ----------------------------------------
	.byte	W96
@ 020   ----------------------------------------
Redial_3_020:
	.byte		N48   , En3 , v127
	.byte	W48
	.byte		N24   , Dn3 
	.byte	W24
	.byte		        An2 
	.byte	W24
	.byte	PEND
@ 021   ----------------------------------------
	.byte	PATT
	 .word	Redial_3_020
@ 022   ----------------------------------------
Redial_3_022:
	.byte		N48   , Dn3 , v127
	.byte	W48
	.byte		N24   , Cn3 
	.byte	W24
	.byte		        Gn2 
	.byte	W24
	.byte	PEND
@ 023   ----------------------------------------
Redial_3_023:
	.byte		N48   , Dn3 , v127
	.byte	W48
	.byte		        Cn3 
	.byte	W48
	.byte	PEND
@ 024   ----------------------------------------
	.byte	PATT
	 .word	Redial_3_022
@ 025   ----------------------------------------
Redial_3_025:
	.byte		N48   , Dn3 , v127
	.byte	W48
	.byte		N24   , Cn3 
	.byte	W24
	.byte		        As2 
	.byte	W24
	.byte	PEND
@ 026   ----------------------------------------
Redial_3_026:
	.byte		N48   , An2 , v127
	.byte	W48
	.byte		N24   , Gn2 
	.byte	W24
	.byte		        As2 
	.byte	W24
	.byte	PEND
@ 027   ----------------------------------------
	.byte		N96   , An2 
	.byte	W96
@ 028   ----------------------------------------
	.byte	PATT
	 .word	Redial_3_020
@ 029   ----------------------------------------
	.byte	PATT
	 .word	Redial_3_020
@ 030   ----------------------------------------
	.byte	PATT
	 .word	Redial_3_022
@ 031   ----------------------------------------
	.byte	PATT
	 .word	Redial_3_023
@ 032   ----------------------------------------
	.byte	PATT
	 .word	Redial_3_022
@ 033   ----------------------------------------
	.byte	PATT
	 .word	Redial_3_025
@ 034   ----------------------------------------
	.byte	PATT
	 .word	Redial_3_026
@ 035   ----------------------------------------
	.byte		N96   , An2 , v127
	.byte	W96
	.byte	GOTO
	 .word	Redial_3_B1
Redial_3_B2:
@ 036   ----------------------------------------
	.byte	FINE

@**************** Track 4 (Midi-Chn.4) ****************@

Redial_4:
	.byte	KEYSH , Redial_key+0
@ 000   ----------------------------------------
	.byte		VOICE , 79
	.byte		VOL   , 60*Redial_mvl/mxv
	.byte	W96
@ 001   ----------------------------------------
	.byte	W96
@ 002   ----------------------------------------
	.byte	W96
@ 003   ----------------------------------------
	.byte	W96
Redial_4_B1:
@ 004   ----------------------------------------
	.byte	W96
@ 005   ----------------------------------------
	.byte	W96
@ 006   ----------------------------------------
	.byte	W96
@ 007   ----------------------------------------
	.byte	W96
@ 008   ----------------------------------------
	.byte	W96
@ 009   ----------------------------------------
	.byte	W96
@ 010   ----------------------------------------
	.byte	W96
@ 011   ----------------------------------------
	.byte	W96
@ 012   ----------------------------------------
	.byte	W96
@ 013   ----------------------------------------
	.byte	W96
@ 014   ----------------------------------------
	.byte	W96
@ 015   ----------------------------------------
	.byte	W96
@ 016   ----------------------------------------
	.byte	W96
@ 017   ----------------------------------------
	.byte	W96
@ 018   ----------------------------------------
	.byte	W96
@ 019   ----------------------------------------
	.byte	W96
@ 020   ----------------------------------------
	.byte	W96
@ 021   ----------------------------------------
	.byte	W96
@ 022   ----------------------------------------
	.byte	W96
@ 023   ----------------------------------------
	.byte	W96
@ 024   ----------------------------------------
	.byte	W96
@ 025   ----------------------------------------
	.byte	W96
@ 026   ----------------------------------------
	.byte	W96
@ 027   ----------------------------------------
	.byte	W96
@ 028   ----------------------------------------
Redial_4_028:
	.byte		N48   , En5 , v127
	.byte	W48
	.byte		N24   , Dn5 
	.byte	W24
	.byte		        An4 
	.byte	W24
	.byte	PEND
@ 029   ----------------------------------------
	.byte	PATT
	 .word	Redial_4_028
@ 030   ----------------------------------------
Redial_4_030:
	.byte		N48   , Dn5 , v127
	.byte	W48
	.byte		N24   , Cn5 
	.byte	W24
	.byte		        Gn4 
	.byte	W24
	.byte	PEND
@ 031   ----------------------------------------
	.byte		N48   , Dn5 
	.byte	W48
	.byte		        Cn5 
	.byte	W48
@ 032   ----------------------------------------
	.byte	PATT
	 .word	Redial_4_030
@ 033   ----------------------------------------
	.byte		N48   , Dn5 , v127
	.byte	W48
	.byte		N24   , Cn5 
	.byte	W24
	.byte		        As4 
	.byte	W24
@ 034   ----------------------------------------
	.byte		N48   , An4 
	.byte	W48
	.byte		N24   , Gn4 
	.byte	W24
	.byte		        As4 
	.byte	W24
@ 035   ----------------------------------------
	.byte		N96   , An4 
	.byte	W96
	.byte	GOTO
	 .word	Redial_4_B1
Redial_4_B2:
@ 036   ----------------------------------------
	.byte	FINE

@**************** Track 5 (Midi-Chn.5) ****************@

Redial_5:
	.byte	KEYSH , Redial_key+0
@ 000   ----------------------------------------
	.byte		VOICE , 123
	.byte		VOL   , 67*Redial_mvl/mxv
	.byte		N24   , Cn2 , v127
	.byte	W24
	.byte		N12   , Cs1 
	.byte	W12
	.byte		N06   , Fs2 
	.byte	W06
	.byte		        Cs1 
	.byte	W06
	.byte		        Fs2 
	.byte	W06
	.byte		        Cs1 
	.byte	W06
	.byte		N12   , Cn2 
	.byte	W12
	.byte		        Cs1 
	.byte	W24
@ 001   ----------------------------------------
Redial_5_001:
	.byte		N24   , Cn2 , v127
	.byte	W24
	.byte		N12   , Cs1 
	.byte	W12
	.byte		N06   , Fs2 
	.byte	W06
	.byte		        Cs1 
	.byte	W06
	.byte		        Fs2 
	.byte	W06
	.byte		        Cs1 
	.byte	W06
	.byte		N12   , Cn2 
	.byte	W12
	.byte		        Cs1 
	.byte	W12
	.byte		N06   , Fs2 
	.byte	W06
	.byte		        Cs1 
	.byte	W06
	.byte	PEND
@ 002   ----------------------------------------
	.byte	PATT
	 .word	Redial_5_001
@ 003   ----------------------------------------
Redial_5_003:
	.byte		N12   , Cn2 , v127
	.byte	W12
	.byte		        Cs1 
	.byte	W12
	.byte		N06   , Fs2 
	.byte	W06
	.byte		        Cs1 
	.byte	W06
	.byte		N12   , Cn2 
	.byte	W12
	.byte		        Cs1 
	.byte	W12
	.byte		N06   , Fs2 
	.byte	W06
	.byte		        Cs1 
	.byte	W06
	.byte		N12   , Cn2 
	.byte	W12
	.byte		        Cs1 
	.byte	W12
	.byte	PEND
Redial_5_B1:
@ 004   ----------------------------------------
Redial_5_004:
	.byte		VOL   , 67*Redial_mvl/mxv
	.byte		N24   , Cn2 , v127
	.byte	W24
	.byte		N12   , Cs1 
	.byte	W12
	.byte		N06   , Fs2 
	.byte	W06
	.byte		        Cs1 
	.byte	W06
	.byte		        Fs2 
	.byte	W06
	.byte		        Cs1 
	.byte	W06
	.byte		N12   , Cn2 
	.byte	W12
	.byte		        Cs1 
	.byte	W24
	.byte	PEND
@ 005   ----------------------------------------
	.byte	PATT
	 .word	Redial_5_001
@ 006   ----------------------------------------
	.byte	PATT
	 .word	Redial_5_004
@ 007   ----------------------------------------
	.byte	PATT
	 .word	Redial_5_001
@ 008   ----------------------------------------
	.byte	PATT
	 .word	Redial_5_004
@ 009   ----------------------------------------
	.byte	PATT
	 .word	Redial_5_001
@ 010   ----------------------------------------
	.byte	PATT
	 .word	Redial_5_001
@ 011   ----------------------------------------
	.byte	PATT
	 .word	Redial_5_003
@ 012   ----------------------------------------
	.byte	PATT
	 .word	Redial_5_004
@ 013   ----------------------------------------
	.byte	PATT
	 .word	Redial_5_001
@ 014   ----------------------------------------
	.byte	PATT
	 .word	Redial_5_004
@ 015   ----------------------------------------
	.byte	PATT
	 .word	Redial_5_001
@ 016   ----------------------------------------
	.byte	PATT
	 .word	Redial_5_004
@ 017   ----------------------------------------
	.byte	PATT
	 .word	Redial_5_001
@ 018   ----------------------------------------
	.byte	PATT
	 .word	Redial_5_001
@ 019   ----------------------------------------
	.byte	PATT
	 .word	Redial_5_003
@ 020   ----------------------------------------
	.byte	PATT
	 .word	Redial_5_004
@ 021   ----------------------------------------
	.byte	PATT
	 .word	Redial_5_001
@ 022   ----------------------------------------
	.byte	PATT
	 .word	Redial_5_004
@ 023   ----------------------------------------
	.byte	PATT
	 .word	Redial_5_001
@ 024   ----------------------------------------
	.byte	PATT
	 .word	Redial_5_004
@ 025   ----------------------------------------
	.byte	PATT
	 .word	Redial_5_001
@ 026   ----------------------------------------
	.byte	PATT
	 .word	Redial_5_001
@ 027   ----------------------------------------
	.byte	PATT
	 .word	Redial_5_003
@ 028   ----------------------------------------
	.byte	PATT
	 .word	Redial_5_004
@ 029   ----------------------------------------
	.byte	PATT
	 .word	Redial_5_001
@ 030   ----------------------------------------
	.byte	PATT
	 .word	Redial_5_004
@ 031   ----------------------------------------
	.byte	PATT
	 .word	Redial_5_001
@ 032   ----------------------------------------
	.byte	PATT
	 .word	Redial_5_004
@ 033   ----------------------------------------
	.byte	PATT
	 .word	Redial_5_001
@ 034   ----------------------------------------
	.byte	PATT
	 .word	Redial_5_001
@ 035   ----------------------------------------
	.byte	PATT
	 .word	Redial_5_003
	.byte	GOTO
	 .word	Redial_5_B1
Redial_5_B2:
@ 036   ----------------------------------------
	.byte	FINE

@**************** Track 6 (Midi-Chn.6) ****************@

Redial_6:
	.byte	KEYSH , Redial_key+0
@ 000   ----------------------------------------
	.byte		VOICE , 127
	.byte		VOL   , 45*Redial_mvl/mxv
	.byte		N12   , Fs1 , v127
	.byte	W12
	.byte		N12   
	.byte	W12
	.byte		N12   
	.byte	W12
	.byte		N12   
	.byte	W12
	.byte		N12   
	.byte	W12
	.byte		N12   
	.byte	W12
	.byte		N12   
	.byte	W12
	.byte		N12   
	.byte	W12
@ 001   ----------------------------------------
Redial_6_001:
	.byte		N12   , Fs1 , v127
	.byte	W12
	.byte		N12   
	.byte	W12
	.byte		N12   
	.byte	W12
	.byte		N12   
	.byte	W12
	.byte		N12   
	.byte	W12
	.byte		N12   
	.byte	W12
	.byte		N12   
	.byte	W12
	.byte		N12   
	.byte	W12
	.byte	PEND
@ 002   ----------------------------------------
	.byte	PATT
	 .word	Redial_6_001
@ 003   ----------------------------------------
	.byte	PATT
	 .word	Redial_6_001
Redial_6_B1:
@ 004   ----------------------------------------
	.byte	PATT
	 .word	Redial_6_001
@ 005   ----------------------------------------
	.byte	PATT
	 .word	Redial_6_001
@ 006   ----------------------------------------
	.byte	PATT
	 .word	Redial_6_001
@ 007   ----------------------------------------
	.byte	PATT
	 .word	Redial_6_001
@ 008   ----------------------------------------
Redial_6_008:
	.byte		VOL   , 45*Redial_mvl/mxv
	.byte		N12   , Fs1 , v127
	.byte	W12
	.byte		N12   
	.byte	W12
	.byte		N12   
	.byte	W12
	.byte		N12   
	.byte	W12
	.byte		N12   
	.byte	W12
	.byte		N12   
	.byte	W12
	.byte		N12   
	.byte	W12
	.byte		N12   
	.byte	W12
	.byte	PEND
@ 009   ----------------------------------------
	.byte	PATT
	 .word	Redial_6_001
@ 010   ----------------------------------------
	.byte	PATT
	 .word	Redial_6_001
@ 011   ----------------------------------------
	.byte	PATT
	 .word	Redial_6_001
@ 012   ----------------------------------------
	.byte	PATT
	 .word	Redial_6_001
@ 013   ----------------------------------------
	.byte	PATT
	 .word	Redial_6_001
@ 014   ----------------------------------------
	.byte	PATT
	 .word	Redial_6_001
@ 015   ----------------------------------------
	.byte	PATT
	 .word	Redial_6_001
@ 016   ----------------------------------------
	.byte	PATT
	 .word	Redial_6_008
@ 017   ----------------------------------------
	.byte	PATT
	 .word	Redial_6_001
@ 018   ----------------------------------------
	.byte	PATT
	 .word	Redial_6_001
@ 019   ----------------------------------------
	.byte	PATT
	 .word	Redial_6_001
@ 020   ----------------------------------------
	.byte	PATT
	 .word	Redial_6_001
@ 021   ----------------------------------------
	.byte	PATT
	 .word	Redial_6_001
@ 022   ----------------------------------------
	.byte	PATT
	 .word	Redial_6_001
@ 023   ----------------------------------------
	.byte	PATT
	 .word	Redial_6_001
@ 024   ----------------------------------------
	.byte	PATT
	 .word	Redial_6_008
@ 025   ----------------------------------------
	.byte	PATT
	 .word	Redial_6_001
@ 026   ----------------------------------------
	.byte	PATT
	 .word	Redial_6_001
@ 027   ----------------------------------------
	.byte	PATT
	 .word	Redial_6_001
@ 028   ----------------------------------------
	.byte	PATT
	 .word	Redial_6_001
@ 029   ----------------------------------------
	.byte	PATT
	 .word	Redial_6_001
@ 030   ----------------------------------------
	.byte	PATT
	 .word	Redial_6_001
@ 031   ----------------------------------------
	.byte	PATT
	 .word	Redial_6_001
@ 032   ----------------------------------------
	.byte	PATT
	 .word	Redial_6_008
@ 033   ----------------------------------------
	.byte	PATT
	 .word	Redial_6_001
@ 034   ----------------------------------------
	.byte	PATT
	 .word	Redial_6_001
@ 035   ----------------------------------------
	.byte	PATT
	 .word	Redial_6_001
	.byte	GOTO
	 .word	Redial_6_B1
Redial_6_B2:
@ 036   ----------------------------------------
	.byte	FINE

@**************** Track 7 (Midi-Chn.7) ****************@

Redial_7:
	.byte	KEYSH , Redial_key+0
@ 000   ----------------------------------------
	.byte		VOICE , 40
	.byte		VOL   , 49*Redial_mvl/mxv
	.byte	W96
@ 001   ----------------------------------------
	.byte	W96
@ 002   ----------------------------------------
	.byte	W96
@ 003   ----------------------------------------
	.byte	W96
Redial_7_B1:
@ 004   ----------------------------------------
	.byte		N92   , Fn2 , v080
	.byte		N92   , An2 , v088
	.byte	W01
	.byte		        Cn3 , v084
	.byte	W01
	.byte		        En3 
	.byte	W92
	.byte	W02
@ 005   ----------------------------------------
Redial_7_005:
	.byte		N42   , Dn2 , v084
	.byte	W01
	.byte		N44   , Fn2 
	.byte		N44   , An2 , v088
	.byte	W01
	.byte		        Cn3 , v084
	.byte	W44
	.byte	W03
	.byte		        En2 , v076
	.byte	W01
	.byte		        Gn2 , v084
	.byte	W01
	.byte		N42   , Bn2 , v088
	.byte	W01
	.byte		        Dn3 , v084
	.byte	W44
	.byte	PEND
@ 006   ----------------------------------------
Redial_7_006:
	.byte		N92   , Fn2 , v080
	.byte		N92   , An2 , v088
	.byte	W01
	.byte		        Cn3 , v084
	.byte	W01
	.byte		        En3 
	.byte	W92
	.byte	W02
	.byte	PEND
@ 007   ----------------------------------------
	.byte	PATT
	 .word	Redial_7_005
@ 008   ----------------------------------------
	.byte	PATT
	 .word	Redial_7_006
@ 009   ----------------------------------------
	.byte	PATT
	 .word	Redial_7_005
@ 010   ----------------------------------------
	.byte	PATT
	 .word	Redial_7_006
@ 011   ----------------------------------------
	.byte	PATT
	 .word	Redial_7_005
@ 012   ----------------------------------------
	.byte	PATT
	 .word	Redial_7_006
@ 013   ----------------------------------------
	.byte	PATT
	 .word	Redial_7_005
@ 014   ----------------------------------------
	.byte	PATT
	 .word	Redial_7_006
@ 015   ----------------------------------------
	.byte	PATT
	 .word	Redial_7_005
@ 016   ----------------------------------------
	.byte	PATT
	 .word	Redial_7_006
@ 017   ----------------------------------------
	.byte	PATT
	 .word	Redial_7_005
@ 018   ----------------------------------------
	.byte	PATT
	 .word	Redial_7_006
@ 019   ----------------------------------------
	.byte	PATT
	 .word	Redial_7_005
@ 020   ----------------------------------------
	.byte	W96
@ 021   ----------------------------------------
	.byte	W96
@ 022   ----------------------------------------
	.byte	W96
@ 023   ----------------------------------------
	.byte	W96
@ 024   ----------------------------------------
	.byte	W96
@ 025   ----------------------------------------
	.byte	W96
@ 026   ----------------------------------------
	.byte	W96
@ 027   ----------------------------------------
	.byte	W96
@ 028   ----------------------------------------
	.byte	W96
@ 029   ----------------------------------------
	.byte	W96
@ 030   ----------------------------------------
	.byte	W96
@ 031   ----------------------------------------
	.byte	W96
@ 032   ----------------------------------------
	.byte	W96
@ 033   ----------------------------------------
	.byte	W96
@ 034   ----------------------------------------
	.byte	W96
@ 035   ----------------------------------------
	.byte	W96
	.byte	GOTO
	 .word	Redial_7_B1
Redial_7_B2:
@ 036   ----------------------------------------
	.byte	FINE

@**************** Track 8 (Midi-Chn.8) ****************@

Redial_8:
	.byte	KEYSH , Redial_key+0
@ 000   ----------------------------------------
	.byte		VOICE , 34
	.byte		VOL   , 56*Redial_mvl/mxv
	.byte	W96
@ 001   ----------------------------------------
	.byte	W96
@ 002   ----------------------------------------
	.byte	W96
@ 003   ----------------------------------------
	.byte	W96
Redial_8_B1:
@ 004   ----------------------------------------
	.byte		N11   , Cn2 , v096
	.byte	W12
	.byte		        Fn2 
	.byte	W24
	.byte		        Cn2 
	.byte	W12
	.byte		N23   , Fn2 
	.byte	W24
	.byte		N32   , Cn2 
	.byte	W24
@ 005   ----------------------------------------
Redial_8_005:
	.byte	W12
	.byte		N07   , Fn2 , v096
	.byte	W24
	.byte		N11   , Dn2 
	.byte	W12
	.byte		N22   , Fn2 
	.byte	W24
	.byte	W03
	.byte		N20   , Gn1 , v120
	.byte	W21
	.byte	PEND
@ 006   ----------------------------------------
Redial_8_006:
	.byte		N11   , Cn2 , v096
	.byte	W12
	.byte		        Fn2 
	.byte	W24
	.byte		        Cn2 
	.byte	W12
	.byte		N23   , Fn2 
	.byte	W24
	.byte		N32   , Cn2 
	.byte	W24
	.byte	PEND
@ 007   ----------------------------------------
	.byte	PATT
	 .word	Redial_8_005
@ 008   ----------------------------------------
	.byte	PATT
	 .word	Redial_8_006
@ 009   ----------------------------------------
	.byte	PATT
	 .word	Redial_8_005
@ 010   ----------------------------------------
	.byte	PATT
	 .word	Redial_8_006
@ 011   ----------------------------------------
	.byte	PATT
	 .word	Redial_8_005
@ 012   ----------------------------------------
	.byte	PATT
	 .word	Redial_8_006
@ 013   ----------------------------------------
	.byte	PATT
	 .word	Redial_8_005
@ 014   ----------------------------------------
	.byte	PATT
	 .word	Redial_8_006
@ 015   ----------------------------------------
	.byte	PATT
	 .word	Redial_8_005
@ 016   ----------------------------------------
	.byte	PATT
	 .word	Redial_8_006
@ 017   ----------------------------------------
	.byte	PATT
	 .word	Redial_8_005
@ 018   ----------------------------------------
	.byte	PATT
	 .word	Redial_8_006
@ 019   ----------------------------------------
	.byte	PATT
	 .word	Redial_8_005
@ 020   ----------------------------------------
	.byte	W96
@ 021   ----------------------------------------
	.byte	W96
@ 022   ----------------------------------------
	.byte	W96
@ 023   ----------------------------------------
	.byte	W96
@ 024   ----------------------------------------
	.byte	W96
@ 025   ----------------------------------------
	.byte	W96
@ 026   ----------------------------------------
	.byte	W96
@ 027   ----------------------------------------
	.byte	W96
@ 028   ----------------------------------------
	.byte	W96
@ 029   ----------------------------------------
	.byte	W96
@ 030   ----------------------------------------
	.byte	W96
@ 031   ----------------------------------------
	.byte	W96
@ 032   ----------------------------------------
	.byte	W96
@ 033   ----------------------------------------
	.byte	W96
@ 034   ----------------------------------------
	.byte	W96
@ 035   ----------------------------------------
	.byte	W96
	.byte	GOTO
	 .word	Redial_8_B1
Redial_8_B2:
@ 036   ----------------------------------------
	.byte	FINE

@**************** Track 9 (Midi-Chn.9) ****************@

Redial_9:
	.byte	KEYSH , Redial_key+0
@ 000   ----------------------------------------
	.byte		VOICE , 60
	.byte		VOL   , 65*Redial_mvl/mxv
	.byte	W96
@ 001   ----------------------------------------
	.byte	W96
@ 002   ----------------------------------------
	.byte	W96
@ 003   ----------------------------------------
	.byte	W96
Redial_9_B1:
@ 004   ----------------------------------------
	.byte	W96
@ 005   ----------------------------------------
	.byte	W96
@ 006   ----------------------------------------
	.byte	W96
@ 007   ----------------------------------------
	.byte	W96
@ 008   ----------------------------------------
	.byte	W96
@ 009   ----------------------------------------
	.byte	W96
@ 010   ----------------------------------------
	.byte	W96
@ 011   ----------------------------------------
	.byte	W96
@ 012   ----------------------------------------
	.byte	W96
@ 013   ----------------------------------------
	.byte	W96
@ 014   ----------------------------------------
	.byte	W96
@ 015   ----------------------------------------
	.byte	W96
@ 016   ----------------------------------------
	.byte	W96
@ 017   ----------------------------------------
	.byte	W96
@ 018   ----------------------------------------
	.byte	W96
@ 019   ----------------------------------------
	.byte	W96
@ 020   ----------------------------------------
	.byte		TIE   , An2 , v088
	.byte	W96
@ 021   ----------------------------------------
	.byte	W92
	.byte	W03
	.byte		EOT   
	.byte	W01
@ 022   ----------------------------------------
	.byte		TIE   , Gn2 , v092
	.byte	W96
@ 023   ----------------------------------------
	.byte	W92
	.byte	W03
	.byte		EOT   
	.byte	W01
@ 024   ----------------------------------------
	.byte		TIE   
	.byte	W96
@ 025   ----------------------------------------
	.byte	W92
	.byte	W03
	.byte		EOT   
	.byte	W01
@ 026   ----------------------------------------
	.byte		N92   , As2 
	.byte	W96
@ 027   ----------------------------------------
	.byte		        An2 , v084
	.byte	W96
@ 028   ----------------------------------------
	.byte		TIE   , An2 , v088
	.byte	W96
@ 029   ----------------------------------------
	.byte	W92
	.byte	W03
	.byte		EOT   
	.byte	W01
@ 030   ----------------------------------------
	.byte		TIE   , Gn2 , v092
	.byte	W96
@ 031   ----------------------------------------
	.byte	W92
	.byte	W03
	.byte		EOT   
	.byte	W01
@ 032   ----------------------------------------
	.byte		TIE   
	.byte	W96
@ 033   ----------------------------------------
	.byte	W92
	.byte	W03
	.byte		EOT   
	.byte	W01
@ 034   ----------------------------------------
	.byte		N92   , As2 , v076
	.byte	W96
@ 035   ----------------------------------------
	.byte		        An2 , v084
	.byte	W96
	.byte	GOTO
	 .word	Redial_9_B1
Redial_9_B2:
@ 036   ----------------------------------------
	.byte	FINE

@******************************************************@
	.align	2

Redial:
	.byte	9	@ NumTrks
	.byte	0	@ NumBlks
	.byte	Redial_pri	@ Priority
	.byte	Redial_rev	@ Reverb.

	.word	Redial_grp

	.word	Redial_1
	.word	Redial_2
	.word	Redial_3
	.word	Redial_4
	.word	Redial_5
	.word	Redial_6
	.word	Redial_7
	.word	Redial_8
	.word	Redial_9

	.end
