	.include "MPlayDef.s"

	.equ	song25_grp, voicegroup000
	.equ	song25_pri, 0
	.equ	song25_rev, 0
	.equ	song25_mvl, 127
	.equ	song25_key, 0
	.equ	song25_tbs, 1
	.equ	song25_exg, 0
	.equ	song25_cmp, 1

	.section .rodata
	.global	song25
	.align	2


@**************** Track 1 (Midi-Chn.0) ****************@

song25_001:
@ 000   ----------------------------------------
 .byte   KEYSH , song25_key+0
 .byte   TEMPO , 120*song25_tbs/2
 .byte   VOICE , 73
 .byte   VOL , 77*song25_mvl/mxv
 .byte   PAN , c_v+0
 .byte   W48
 .byte   W96
@ 001   ----------------------------------------
 .byte   W96
@ 002   ----------------------------------------
 .byte   W96
@ 003   ----------------------------------------
 .byte   W96
@ 004   ----------------------------------------
 .byte   W96
@ 005   ----------------------------------------
 .byte   W96
@ 006   ----------------------------------------
 .byte   W96
@ 007   ----------------------------------------
 .byte   W96
@ 008   ----------------------------------------
Label_0_014DBCA3:
 .byte   W48
 .byte   N05 ,An4 ,v080
 .byte   W06
 .byte   As4
 .byte   W06
 .byte   Gn4
 .byte   W06
 .byte   An4
 .byte   W06
 .byte   N56 ,Fn4
 .byte   W24
 .byte   PEND 
@ 009   ----------------------------------------
Label_0_014DBCB2:
 .byte   W36
 .byte   N05 ,Ds4 ,v080
 .byte   W06
 .byte   Fn4
 .byte   W06
 .byte   Gn4
 .byte   W06
 .byte   Fn4
 .byte   W06
 .byte   Ds4
 .byte   W06
 .byte   Dn4
 .byte   W06
 .byte   Cn4
 .byte   W06
 .byte   As3
 .byte   W06
 .byte   N44 ,Gn3
 .byte   W12
 .byte   PEND 
@ 010   ----------------------------------------
 .byte   PATT
  .word Label_0_014DBCA3
@ 011   ----------------------------------------
Label_0_014DBCCE:
 .byte   W36
 .byte   N05 ,Ds4 ,v080
 .byte   W06
 .byte   Fn4
 .byte   W06
 .byte   Gn4
 .byte   W06
 .byte   An4
 .byte   W06
 .byte   Gn4
 .byte   W06
 .byte   Fn4
 .byte   W06
 .byte   Dn4
 .byte   W06
 .byte   As3
 .byte   W06
 .byte   N44 ,Gn3
 .byte   W12
 .byte   PEND 
@ 012   ----------------------------------------
 .byte   PATT
  .word Label_0_014DBCA3
@ 013   ----------------------------------------
 .byte   PATT
  .word Label_0_014DBCB2
@ 014   ----------------------------------------
Label_0_014DBCEF:
 .byte   W48
 .byte   N05 ,An4 ,v080
 .byte   W06
 .byte   As4
 .byte   W06
 .byte   Gn4
 .byte   W06
 .byte   An4
 .byte   W06
 .byte   N32 ,Fn4
 .byte   W24
 .byte   PEND 
@ 015   ----------------------------------------
Label_0_014DBCFE:
 .byte   W12
 .byte   N05 ,Ds4 ,v080
 .byte   W06
 .byte   Fn4
 .byte   W06
 .byte   Gn4
 .byte   W06
 .byte   An4
 .byte   W06
 .byte   Gn4
 .byte   W06
 .byte   Fn4
 .byte   W06
 .byte   Ds4
 .byte   W06
 .byte   Fn4
 .byte   W06
 .byte   Ds4
 .byte   W06
 .byte   Dn4
 .byte   W06
 .byte   Cn4
 .byte   W06
 .byte   As3
 .byte   W06
 .byte   N11 ,Gn3
 .byte   W12
 .byte   PEND 
@ 016   ----------------------------------------
 .byte   W96
@ 017   ----------------------------------------
 .byte   W96
@ 018   ----------------------------------------
 .byte   W96
@ 019   ----------------------------------------
 .byte   W96
@ 020   ----------------------------------------
 .byte   W96
@ 021   ----------------------------------------
 .byte   W96
@ 022   ----------------------------------------
 .byte   W96
@ 023   ----------------------------------------
 .byte   W96
@ 024   ----------------------------------------
 .byte   PATT
  .word Label_0_014DBCA3
@ 025   ----------------------------------------
 .byte   PATT
  .word Label_0_014DBCB2
@ 026   ----------------------------------------
 .byte   PATT
  .word Label_0_014DBCA3
@ 027   ----------------------------------------
 .byte   PATT
  .word Label_0_014DBCCE
@ 028   ----------------------------------------
 .byte   PATT
  .word Label_0_014DBCA3
@ 029   ----------------------------------------
 .byte   PATT
  .word Label_0_014DBCB2
@ 030   ----------------------------------------
 .byte   PATT
  .word Label_0_014DBCEF
@ 031   ----------------------------------------
 .byte   PATT
  .word Label_0_014DBCFE
@ 032   ----------------------------------------
 .byte   W96
@ 033   ----------------------------------------
 .byte   W96
@ 034   ----------------------------------------
 .byte   W96
@ 035   ----------------------------------------
 .byte   W96
@ 036   ----------------------------------------
 .byte   W96
@ 037   ----------------------------------------
 .byte   W96
@ 038   ----------------------------------------
 .byte   W96
@ 039   ----------------------------------------
 .byte   W96
@ 040   ----------------------------------------
 .byte   W96
@ 041   ----------------------------------------
 .byte   W96
@ 042   ----------------------------------------
 .byte   W96
@ 043   ----------------------------------------
 .byte   W96
@ 044   ----------------------------------------
 .byte   W96
@ 045   ----------------------------------------
 .byte   W96
@ 046   ----------------------------------------
 .byte   W96
@ 047   ----------------------------------------
 .byte   W96
@ 048   ----------------------------------------
 .byte   W96
@ 049   ----------------------------------------
 .byte   W96
@ 050   ----------------------------------------
 .byte   W96
@ 051   ----------------------------------------
 .byte   W96
@ 052   ----------------------------------------
 .byte   W96
@ 053   ----------------------------------------
 .byte   W96
@ 054   ----------------------------------------
 .byte   W96
@ 055   ----------------------------------------
 .byte   W96
@ 056   ----------------------------------------
 .byte   W96
@ 057   ----------------------------------------
 .byte   W96
@ 058   ----------------------------------------
 .byte   W96
@ 059   ----------------------------------------
 .byte   W96
@ 060   ----------------------------------------
 .byte   W96
@ 061   ----------------------------------------
 .byte   W96
@ 062   ----------------------------------------
 .byte   W96
@ 063   ----------------------------------------
 .byte   W96
@ 064   ----------------------------------------
Label_0_014DBD6D:
 .byte   W48
 .byte   N05 ,Bn4 ,v080
 .byte   W06
 .byte   Cn5
 .byte   W06
 .byte   An4
 .byte   W06
 .byte   Bn4
 .byte   W06
 .byte   N56 ,Gn4
 .byte   W24
 .byte   PEND 
@ 065   ----------------------------------------
Label_0_014DBD7C:
 .byte   W36
 .byte   N05 ,Fn4 ,v080
 .byte   W06
 .byte   Gn4
 .byte   W06
 .byte   An4
 .byte   W06
 .byte   Gn4
 .byte   W06
 .byte   Fn4
 .byte   W06
 .byte   En4
 .byte   W06
 .byte   Dn4
 .byte   W06
 .byte   Cn4
 .byte   W06
 .byte   N44 ,An3
 .byte   W12
 .byte   PEND 
@ 066   ----------------------------------------
 .byte   PATT
  .word Label_0_014DBD6D
@ 067   ----------------------------------------
Label_0_014DBD98:
 .byte   W36
 .byte   N05 ,Fn4 ,v080
 .byte   W06
 .byte   Gn4
 .byte   W06
 .byte   An4
 .byte   W06
 .byte   Bn4
 .byte   W06
 .byte   An4
 .byte   W06
 .byte   Gn4
 .byte   W06
 .byte   En4
 .byte   W06
 .byte   Cn4
 .byte   W06
 .byte   N44 ,An3
 .byte   W12
 .byte   PEND 
@ 068   ----------------------------------------
 .byte   PATT
  .word Label_0_014DBD6D
@ 069   ----------------------------------------
 .byte   PATT
  .word Label_0_014DBD7C
@ 070   ----------------------------------------
Label_0_014DBDB9:
 .byte   W48
 .byte   N05 ,Bn4 ,v080
 .byte   W06
 .byte   Cn5
 .byte   W06
 .byte   An4
 .byte   W06
 .byte   Bn4
 .byte   W06
 .byte   N32 ,Gn4
 .byte   W24
 .byte   PEND 
@ 071   ----------------------------------------
Label_0_014DBDC8:
 .byte   W12
 .byte   N05 ,Fn4 ,v080
 .byte   W06
 .byte   Gn4
 .byte   W06
 .byte   An4
 .byte   W06
 .byte   Bn4
 .byte   W06
 .byte   An4
 .byte   W06
 .byte   Gn4
 .byte   W06
 .byte   Fn4
 .byte   W06
 .byte   Gn4
 .byte   W06
 .byte   Fn4
 .byte   W06
 .byte   En4
 .byte   W06
 .byte   Dn4
 .byte   W06
 .byte   Cn4
 .byte   W06
 .byte   N11 ,Gn3
 .byte   W12
 .byte   PEND 
@ 072   ----------------------------------------
 .byte   W96
@ 073   ----------------------------------------
 .byte   W96
@ 074   ----------------------------------------
 .byte   W96
@ 075   ----------------------------------------
 .byte   W96
@ 076   ----------------------------------------
 .byte   W96
@ 077   ----------------------------------------
 .byte   W96
@ 078   ----------------------------------------
 .byte   W96
@ 079   ----------------------------------------
 .byte   W96
@ 080   ----------------------------------------
 .byte   PATT
  .word Label_0_014DBCA3
@ 081   ----------------------------------------
 .byte   PATT
  .word Label_0_014DBCB2
@ 082   ----------------------------------------
 .byte   PATT
  .word Label_0_014DBCA3
@ 083   ----------------------------------------
 .byte   PATT
  .word Label_0_014DBCCE
@ 084   ----------------------------------------
 .byte   PATT
  .word Label_0_014DBCA3
@ 085   ----------------------------------------
 .byte   PATT
  .word Label_0_014DBCB2
@ 086   ----------------------------------------
 .byte   PATT
  .word Label_0_014DBCEF
@ 087   ----------------------------------------
 .byte   PATT
  .word Label_0_014DBCFE
@ 088   ----------------------------------------
 .byte   W96
@ 089   ----------------------------------------
 .byte   W96
@ 090   ----------------------------------------
 .byte   W96
@ 091   ----------------------------------------
 .byte   W96
@ 092   ----------------------------------------
 .byte   W96
@ 093   ----------------------------------------
 .byte   W96
@ 094   ----------------------------------------
 .byte   W96
@ 095   ----------------------------------------
 .byte   W96
@ 096   ----------------------------------------
 .byte   PATT
  .word Label_0_014DBCA3
@ 097   ----------------------------------------
 .byte   PATT
  .word Label_0_014DBCB2
@ 098   ----------------------------------------
 .byte   PATT
  .word Label_0_014DBCA3
@ 099   ----------------------------------------
 .byte   PATT
  .word Label_0_014DBCCE
@ 100   ----------------------------------------
 .byte   PATT
  .word Label_0_014DBCA3
@ 101   ----------------------------------------
 .byte   PATT
  .word Label_0_014DBCB2
@ 102   ----------------------------------------
 .byte   PATT
  .word Label_0_014DBCEF
@ 103   ----------------------------------------
 .byte   PATT
  .word Label_0_014DBCFE
@ 104   ----------------------------------------
 .byte   W96
@ 105   ----------------------------------------
 .byte   W96
@ 106   ----------------------------------------
 .byte   W96
@ 107   ----------------------------------------
 .byte   W96
@ 108   ----------------------------------------
 .byte   W96
@ 109   ----------------------------------------
 .byte   W96
@ 110   ----------------------------------------
 .byte   W96
@ 111   ----------------------------------------
 .byte   W96
@ 112   ----------------------------------------
 .byte   W96
@ 113   ----------------------------------------
 .byte   W96
@ 114   ----------------------------------------
 .byte   W96
@ 115   ----------------------------------------
 .byte   W96
@ 116   ----------------------------------------
 .byte   W96
@ 117   ----------------------------------------
 .byte   W96
@ 118   ----------------------------------------
 .byte   W96
@ 119   ----------------------------------------
 .byte   W96
@ 120   ----------------------------------------
 .byte   W96
@ 121   ----------------------------------------
 .byte   W96
@ 122   ----------------------------------------
 .byte   W96
@ 123   ----------------------------------------
 .byte   W96
@ 124   ----------------------------------------
 .byte   W96
@ 125   ----------------------------------------
 .byte   W96
@ 126   ----------------------------------------
 .byte   W96
@ 127   ----------------------------------------
 .byte   W96
@ 128   ----------------------------------------
 .byte   W96
@ 129   ----------------------------------------
 .byte   W96
@ 130   ----------------------------------------
 .byte   W96
@ 131   ----------------------------------------
 .byte   W96
@ 132   ----------------------------------------
 .byte   W96
@ 133   ----------------------------------------
 .byte   W96
@ 134   ----------------------------------------
 .byte   W96
@ 135   ----------------------------------------
 .byte   W96
@ 136   ----------------------------------------
 .byte   PATT
  .word Label_0_014DBD6D
@ 137   ----------------------------------------
 .byte   PATT
  .word Label_0_014DBD7C
@ 138   ----------------------------------------
 .byte   PATT
  .word Label_0_014DBD6D
@ 139   ----------------------------------------
 .byte   PATT
  .word Label_0_014DBD98
@ 140   ----------------------------------------
 .byte   PATT
  .word Label_0_014DBD6D
@ 141   ----------------------------------------
 .byte   PATT
  .word Label_0_014DBD7C
@ 142   ----------------------------------------
 .byte   PATT
  .word Label_0_014DBDB9
@ 143   ----------------------------------------
 .byte   PATT
  .word Label_0_014DBDC8
@ 144   ----------------------------------------
 .byte   W96
@ 145   ----------------------------------------
 .byte   W96
@ 146   ----------------------------------------
 .byte   W96
@ 147   ----------------------------------------
 .byte   W96
@ 148   ----------------------------------------
 .byte   W96
@ 149   ----------------------------------------
 .byte   W96
@ 150   ----------------------------------------
 .byte   W96
@ 151   ----------------------------------------
 .byte   W92
 .byte   W03
 .byte   GOTO
  .word Label_0_014DBCA3
 .byte   FINE

@**************** Track 2 (Midi-Chn.1) ****************@

song25_002:
@ 000   ----------------------------------------
 .byte   KEYSH , song25_key+0
 .byte   VOICE , 56
 .byte   VOL , 77*song25_mvl/mxv
 .byte   PAN , c_v+0
 .byte   W48
 .byte   W96
@ 001   ----------------------------------------
 .byte   W96
@ 002   ----------------------------------------
 .byte   W96
@ 003   ----------------------------------------
 .byte   W96
@ 004   ----------------------------------------
 .byte   W96
@ 005   ----------------------------------------
 .byte   W96
@ 006   ----------------------------------------
 .byte   W96
@ 007   ----------------------------------------
 .byte   W96
@ 008   ----------------------------------------
Label_1_014DBEB1:
 .byte   W96
@ 009   ----------------------------------------
 .byte   W96
@ 010   ----------------------------------------
 .byte   W96
@ 011   ----------------------------------------
 .byte   W96
@ 012   ----------------------------------------
 .byte   W96
@ 013   ----------------------------------------
 .byte   W96
@ 014   ----------------------------------------
 .byte   W96
@ 015   ----------------------------------------
Label_1_014DBEB8:
 .byte   W84
 .byte   N02 ,Gn3 ,v080
 .byte   W03
 .byte   An3
 .byte   W03
 .byte   As3
 .byte   W03
 .byte   Cn4
 .byte   W03
 .byte   PEND 
@ 016   ----------------------------------------
Label_1_014DBEC4:
 .byte   N80 ,Dn4 ,v080
 .byte   W84
 .byte   N05 ,Gn3
 .byte   W12
 .byte   PEND 
@ 017   ----------------------------------------
Label_1_014DBECC:
 .byte   N44 ,Dn4 ,v080
 .byte   W60
 .byte   N11 ,Gn4
 .byte   W18
 .byte   N11
 .byte   W18
 .byte   PEND 
@ 018   ----------------------------------------
Label_1_014DBED6:
 .byte   N17 ,Gn4 ,v080
 .byte   W18
 .byte   Fs4
 .byte   W18
 .byte   N11 ,Fn4
 .byte   W12
 .byte   TIE ,Dn4
 .byte   W48
 .byte   PEND 
@ 019   ----------------------------------------
 .byte   W68
 .byte   W03
 .byte   EOT
 .byte   W24
 .byte   W01
@ 020   ----------------------------------------
Label_1_014DBEE8:
 .byte   W12
 .byte   N03 ,Cn4 ,v080
 .byte   W03
 .byte   N14 ,Cs4
 .byte   W15
 .byte   N17 ,Cn4
 .byte   W18
 .byte   As3
 .byte   W18
 .byte   Gn3
 .byte   W18
 .byte   N05 ,Fn3
 .byte   W12
 .byte   PEND 
@ 021   ----------------------------------------
Label_1_014DBEFB:
 .byte   N17 ,Fn3 ,v080
 .byte   W18
 .byte   Fs3
 .byte   W18
 .byte   N11 ,Gn3
 .byte   W24
 .byte   N17 ,Dn3
 .byte   W18
 .byte   N28 ,Cn3
 .byte   W18
 .byte   PEND 
@ 022   ----------------------------------------
Label_1_014DBF0B:
 .byte   W12
 .byte   TIE ,Dn3 ,v080
 .byte   W84
 .byte   PEND 
@ 023   ----------------------------------------
 .byte   W32
 .byte   W03
 .byte   EOT
 .byte   W24
 .byte   W01
 .byte   N17
 .byte   W18
 .byte   Fn3
 .byte   W18
@ 024   ----------------------------------------
Label_1_014DBF1A:
 .byte   N17 ,Gn3 ,v080
 .byte   W24
 .byte   N03 ,As3
 .byte   W03
 .byte   N14 ,Cn4
 .byte   W15
 .byte   N11 ,Gn3
 .byte   W18
 .byte   N17 ,Dn4
 .byte   W18
 .byte   N11 ,Gn3
 .byte   W18
 .byte   PEND 
@ 025   ----------------------------------------
Label_1_014DBF2E:
 .byte   N17 ,Fn4 ,v080
 .byte   W18
 .byte   N11 ,Dn4
 .byte   W18
 .byte   N17 ,Gn4
 .byte   W18
 .byte   N11 ,Fn4
 .byte   W18
 .byte   N17 ,As4
 .byte   W18
 .byte   N11 ,Gn4
 .byte   W06
 .byte   PEND 
@ 026   ----------------------------------------
Label_1_014DBF42:
 .byte   W12
 .byte   N17 ,Cn5 ,v080
 .byte   W18
 .byte   N11 ,Gn4
 .byte   W18
 .byte   N17 ,Dn5
 .byte   W18
 .byte   N11 ,Gn4
 .byte   W18
 .byte   N56 ,Fn5
 .byte   W12
 .byte   PEND 
@ 027   ----------------------------------------
Label_1_014DBF54:
 .byte   W60
 .byte   N17 ,Cs5 ,v080
 .byte   W18
 .byte   Cn5
 .byte   W18
 .byte   PEND 
@ 028   ----------------------------------------
Label_1_014DBF5C:
 .byte   N17 ,As4 ,v080
 .byte   W18
 .byte   Gn4
 .byte   W18
 .byte   N11 ,Gs4
 .byte   W12
 .byte   N23 ,Fn4
 .byte   W36
 .byte   Gn4
 .byte   W12
 .byte   PEND 
@ 029   ----------------------------------------
Label_1_014DBF6B:
 .byte   W12
 .byte   N23 ,Fn4 ,v080
 .byte   W24
 .byte   N11 ,Cn4
 .byte   W12
 .byte   N23 ,En4
 .byte   W36
 .byte   Ds4
 .byte   W12
 .byte   PEND 
@ 030   ----------------------------------------
Label_1_014DBF79:
 .byte   W12
 .byte   N11 ,Dn4 ,v080
 .byte   W12
 .byte   As3
 .byte   W12
 .byte   N23 ,Cs4
 .byte   W24
 .byte   N11 ,Cn4
 .byte   W12
 .byte   N23 ,An3
 .byte   W24
 .byte   PEND 
@ 031   ----------------------------------------
Label_1_014DBF8A:
 .byte   W12
 .byte   N23 ,Gs3 ,v080
 .byte   W24
 .byte   N11 ,As3
 .byte   W12
 .byte   N23 ,Gn3
 .byte   W24
 .byte   N32 ,Gs3
 .byte   W24
 .byte   PEND 
@ 032   ----------------------------------------
 .byte   W12
 .byte   N68 ,Gn3
 .byte   W84
@ 033   ----------------------------------------
 .byte   W96
@ 034   ----------------------------------------
 .byte   W96
@ 035   ----------------------------------------
 .byte   W96
@ 036   ----------------------------------------
 .byte   W96
@ 037   ----------------------------------------
 .byte   W96
@ 038   ----------------------------------------
 .byte   W96
@ 039   ----------------------------------------
 .byte   W96
@ 040   ----------------------------------------
 .byte   W96
@ 041   ----------------------------------------
 .byte   W96
@ 042   ----------------------------------------
 .byte   W96
@ 043   ----------------------------------------
 .byte   W96
@ 044   ----------------------------------------
 .byte   W96
@ 045   ----------------------------------------
 .byte   W96
@ 046   ----------------------------------------
 .byte   W96
@ 047   ----------------------------------------
Label_1_014DBFAB:
 .byte   W84
 .byte   N02 ,An3 ,v080
 .byte   W03
 .byte   Bn3
 .byte   W03
 .byte   Cn4
 .byte   W03
 .byte   Dn4
 .byte   W03
 .byte   PEND 
@ 048   ----------------------------------------
Label_1_014DBFB7:
 .byte   N80 ,En4 ,v080
 .byte   W84
 .byte   N05 ,An3
 .byte   W12
 .byte   PEND 
@ 049   ----------------------------------------
Label_1_014DBFBF:
 .byte   N44 ,En4 ,v080
 .byte   W60
 .byte   N11 ,An4
 .byte   W18
 .byte   N11
 .byte   W18
 .byte   PEND 
@ 050   ----------------------------------------
Label_1_014DBFC9:
 .byte   N17 ,An4 ,v080
 .byte   W18
 .byte   Gs4
 .byte   W18
 .byte   N11 ,Gn4
 .byte   W12
 .byte   TIE ,En4
 .byte   W48
 .byte   PEND 
@ 051   ----------------------------------------
 .byte   W68
 .byte   W03
 .byte   EOT
 .byte   W24
 .byte   W01
@ 052   ----------------------------------------
Label_1_014DBFDB:
 .byte   W12
 .byte   N03 ,Dn4 ,v080
 .byte   W03
 .byte   N14 ,Ds4
 .byte   W15
 .byte   N17 ,Dn4
 .byte   W18
 .byte   Cn4
 .byte   W18
 .byte   An3
 .byte   W18
 .byte   N05 ,Gn3
 .byte   W12
 .byte   PEND 
@ 053   ----------------------------------------
Label_1_014DBFEE:
 .byte   N17 ,Gn3 ,v080
 .byte   W18
 .byte   Gs3
 .byte   W18
 .byte   N11 ,An3
 .byte   W24
 .byte   N17 ,En3
 .byte   W18
 .byte   N28 ,Dn3
 .byte   W18
 .byte   PEND 
@ 054   ----------------------------------------
 .byte   W12
 .byte   TIE ,En3
 .byte   W84
@ 055   ----------------------------------------
 .byte   W32
 .byte   W03
 .byte   EOT
 .byte   W24
 .byte   W01
 .byte   N17
 .byte   W18
 .byte   Gn3
 .byte   W18
@ 056   ----------------------------------------
Label_1_014DC00B:
 .byte   N17 ,An3 ,v080
 .byte   W24
 .byte   N03 ,Cn4
 .byte   W03
 .byte   N14 ,Dn4
 .byte   W15
 .byte   N11 ,An3
 .byte   W18
 .byte   N17 ,En4
 .byte   W18
 .byte   N11 ,An3
 .byte   W18
 .byte   PEND 
@ 057   ----------------------------------------
Label_1_014DC01F:
 .byte   N17 ,Gn4 ,v080
 .byte   W18
 .byte   N11 ,En4
 .byte   W18
 .byte   N17 ,An4
 .byte   W18
 .byte   N11 ,Gn4
 .byte   W18
 .byte   N17 ,Cn5
 .byte   W18
 .byte   N11 ,An4
 .byte   W06
 .byte   PEND 
@ 058   ----------------------------------------
Label_1_014DC033:
 .byte   W12
 .byte   N17 ,Dn5 ,v080
 .byte   W18
 .byte   N11 ,An4
 .byte   W18
 .byte   N17 ,En5
 .byte   W18
 .byte   N11 ,An4
 .byte   W18
 .byte   N56 ,Gn5
 .byte   W12
 .byte   PEND 
@ 059   ----------------------------------------
Label_1_014DC045:
 .byte   W60
 .byte   N17 ,Ds5 ,v080
 .byte   W18
 .byte   Dn5
 .byte   W18
 .byte   PEND 
@ 060   ----------------------------------------
Label_1_014DC04D:
 .byte   N17 ,Cn5 ,v080
 .byte   W18
 .byte   An4
 .byte   W18
 .byte   N11 ,As4
 .byte   W12
 .byte   N23 ,Gn4
 .byte   W36
 .byte   An4
 .byte   W12
 .byte   PEND 
@ 061   ----------------------------------------
Label_1_014DC05C:
 .byte   W12
 .byte   N23 ,Gn4 ,v080
 .byte   W24
 .byte   N11 ,Dn4
 .byte   W12
 .byte   N23 ,Fs4
 .byte   W36
 .byte   Fn4
 .byte   W12
 .byte   PEND 
@ 062   ----------------------------------------
Label_1_014DC06A:
 .byte   W12
 .byte   N11 ,En4 ,v080
 .byte   W12
 .byte   Cn4
 .byte   W12
 .byte   N23 ,Ds4
 .byte   W24
 .byte   N11 ,Dn4
 .byte   W12
 .byte   N23 ,Bn3
 .byte   W24
 .byte   PEND 
@ 063   ----------------------------------------
Label_1_014DC07B:
 .byte   W12
 .byte   N23 ,As3 ,v080
 .byte   W24
 .byte   N11 ,Cn4
 .byte   W12
 .byte   N23 ,An3
 .byte   W24
 .byte   As3
 .byte   W24
 .byte   PEND 
@ 064   ----------------------------------------
 .byte   N92 ,An3
 .byte   W96
@ 065   ----------------------------------------
 .byte   W96
@ 066   ----------------------------------------
 .byte   W96
@ 067   ----------------------------------------
 .byte   W96
@ 068   ----------------------------------------
 .byte   W96
@ 069   ----------------------------------------
 .byte   W96
@ 070   ----------------------------------------
 .byte   W96
@ 071   ----------------------------------------
 .byte   W96
@ 072   ----------------------------------------
 .byte   W96
@ 073   ----------------------------------------
 .byte   W96
@ 074   ----------------------------------------
 .byte   W96
@ 075   ----------------------------------------
 .byte   W96
@ 076   ----------------------------------------
 .byte   W96
@ 077   ----------------------------------------
 .byte   W96
@ 078   ----------------------------------------
 .byte   W96
@ 079   ----------------------------------------
 .byte   W96
@ 080   ----------------------------------------
 .byte   W96
@ 081   ----------------------------------------
 .byte   W96
@ 082   ----------------------------------------
 .byte   W96
@ 083   ----------------------------------------
 .byte   W96
@ 084   ----------------------------------------
 .byte   W96
@ 085   ----------------------------------------
 .byte   W96
@ 086   ----------------------------------------
 .byte   W96
@ 087   ----------------------------------------
 .byte   PATT
  .word Label_1_014DBEB8
@ 088   ----------------------------------------
 .byte   PATT
  .word Label_1_014DBEC4
@ 089   ----------------------------------------
 .byte   PATT
  .word Label_1_014DBECC
@ 090   ----------------------------------------
 .byte   PATT
  .word Label_1_014DBED6
@ 091   ----------------------------------------
 .byte   W68
 .byte   W03
 .byte   EOT
 .byte   Dn4
 .byte   W24
 .byte   W01
@ 092   ----------------------------------------
 .byte   PATT
  .word Label_1_014DBEE8
@ 093   ----------------------------------------
 .byte   PATT
  .word Label_1_014DBEFB
@ 094   ----------------------------------------
 .byte   PATT
  .word Label_1_014DBF0B
@ 095   ----------------------------------------
 .byte   W32
 .byte   W03
 .byte   EOT
 .byte   Dn3
 .byte   W24
 .byte   W01
 .byte   N17 ,Dn3 ,v080
 .byte   W18
 .byte   Fn3
 .byte   W18
@ 096   ----------------------------------------
 .byte   PATT
  .word Label_1_014DBF1A
@ 097   ----------------------------------------
 .byte   PATT
  .word Label_1_014DBF2E
@ 098   ----------------------------------------
 .byte   PATT
  .word Label_1_014DBF42
@ 099   ----------------------------------------
 .byte   PATT
  .word Label_1_014DBF54
@ 100   ----------------------------------------
 .byte   PATT
  .word Label_1_014DBF5C
@ 101   ----------------------------------------
 .byte   PATT
  .word Label_1_014DBF6B
@ 102   ----------------------------------------
 .byte   PATT
  .word Label_1_014DBF79
@ 103   ----------------------------------------
 .byte   PATT
  .word Label_1_014DBF8A
@ 104   ----------------------------------------
 .byte   W12
 .byte   N68 ,Gn3 ,v080
 .byte   W84
@ 105   ----------------------------------------
 .byte   W96
@ 106   ----------------------------------------
 .byte   W96
@ 107   ----------------------------------------
 .byte   W96
@ 108   ----------------------------------------
 .byte   W96
@ 109   ----------------------------------------
 .byte   W96
@ 110   ----------------------------------------
 .byte   W96
@ 111   ----------------------------------------
 .byte   W96
@ 112   ----------------------------------------
 .byte   W96
@ 113   ----------------------------------------
 .byte   W96
@ 114   ----------------------------------------
 .byte   W96
@ 115   ----------------------------------------
 .byte   W96
@ 116   ----------------------------------------
 .byte   W96
@ 117   ----------------------------------------
 .byte   W96
@ 118   ----------------------------------------
 .byte   W96
@ 119   ----------------------------------------
 .byte   PATT
  .word Label_1_014DBFAB
@ 120   ----------------------------------------
 .byte   PATT
  .word Label_1_014DBFB7
@ 121   ----------------------------------------
 .byte   PATT
  .word Label_1_014DBFBF
@ 122   ----------------------------------------
 .byte   PATT
  .word Label_1_014DBFC9
@ 123   ----------------------------------------
 .byte   W68
 .byte   W03
 .byte   EOT
 .byte   En4
 .byte   W24
 .byte   W01
@ 124   ----------------------------------------
 .byte   PATT
  .word Label_1_014DBFDB
@ 125   ----------------------------------------
 .byte   PATT
  .word Label_1_014DBFEE
@ 126   ----------------------------------------
 .byte   W12
 .byte   TIE ,En3 ,v080
 .byte   W84
@ 127   ----------------------------------------
 .byte   W32
 .byte   W03
 .byte   EOT
 .byte   W24
 .byte   W01
 .byte   N17
 .byte   W18
 .byte   Gn3
 .byte   W18
@ 128   ----------------------------------------
 .byte   PATT
  .word Label_1_014DC00B
@ 129   ----------------------------------------
 .byte   PATT
  .word Label_1_014DC01F
@ 130   ----------------------------------------
 .byte   PATT
  .word Label_1_014DC033
@ 131   ----------------------------------------
 .byte   PATT
  .word Label_1_014DC045
@ 132   ----------------------------------------
 .byte   PATT
  .word Label_1_014DC04D
@ 133   ----------------------------------------
 .byte   PATT
  .word Label_1_014DC05C
@ 134   ----------------------------------------
 .byte   PATT
  .word Label_1_014DC06A
@ 135   ----------------------------------------
 .byte   PATT
  .word Label_1_014DC07B
@ 136   ----------------------------------------
 .byte   N92 ,An3 ,v080
 .byte   W96
@ 137   ----------------------------------------
 .byte   W96
@ 138   ----------------------------------------
 .byte   W96
@ 139   ----------------------------------------
 .byte   W96
@ 140   ----------------------------------------
 .byte   W96
@ 141   ----------------------------------------
 .byte   W96
@ 142   ----------------------------------------
 .byte   W96
@ 143   ----------------------------------------
 .byte   W96
@ 144   ----------------------------------------
 .byte   W96
@ 145   ----------------------------------------
 .byte   W96
@ 146   ----------------------------------------
 .byte   W96
@ 147   ----------------------------------------
 .byte   W96
@ 148   ----------------------------------------
 .byte   W96
@ 149   ----------------------------------------
 .byte   W96
@ 150   ----------------------------------------
 .byte   W96
@ 151   ----------------------------------------
 .byte   W92
 .byte   W03
 .byte   GOTO
  .word Label_1_014DBEB1
 .byte   FINE

@**************** Track 3 (Midi-Chn.2) ****************@

song25_003:
@ 000   ----------------------------------------
 .byte   KEYSH , song25_key+0
 .byte   VOICE , 57
 .byte   VOL , 77*song25_mvl/mxv
 .byte   PAN , c_v+0
 .byte   W48
 .byte   W96
@ 001   ----------------------------------------
 .byte   W96
@ 002   ----------------------------------------
 .byte   W96
@ 003   ----------------------------------------
 .byte   W96
@ 004   ----------------------------------------
 .byte   W96
@ 005   ----------------------------------------
 .byte   W96
@ 006   ----------------------------------------
 .byte   W96
@ 007   ----------------------------------------
 .byte   W96
@ 008   ----------------------------------------
Label_2_014DB2E5:
 .byte   W96
@ 009   ----------------------------------------
 .byte   W96
@ 010   ----------------------------------------
 .byte   W96
@ 011   ----------------------------------------
 .byte   W96
@ 012   ----------------------------------------
 .byte   W96
@ 013   ----------------------------------------
 .byte   W96
@ 014   ----------------------------------------
 .byte   W96
@ 015   ----------------------------------------
 .byte   W96
@ 016   ----------------------------------------
 .byte   W96
@ 017   ----------------------------------------
 .byte   W96
@ 018   ----------------------------------------
 .byte   W96
@ 019   ----------------------------------------
 .byte   W96
@ 020   ----------------------------------------
 .byte   W96
@ 021   ----------------------------------------
 .byte   W96
@ 022   ----------------------------------------
 .byte   W96
@ 023   ----------------------------------------
 .byte   W96
@ 024   ----------------------------------------
 .byte   W96
@ 025   ----------------------------------------
 .byte   W96
@ 026   ----------------------------------------
 .byte   W96
@ 027   ----------------------------------------
 .byte   W96
@ 028   ----------------------------------------
 .byte   W96
@ 029   ----------------------------------------
 .byte   W96
@ 030   ----------------------------------------
 .byte   W96
@ 031   ----------------------------------------
 .byte   W96
@ 032   ----------------------------------------
Label_2_014DB2FD:
 .byte   N05 ,Gn2 ,v080
 .byte   W12
 .byte   N11
 .byte   W12
 .byte   N05 ,Dn2
 .byte   W12
 .byte   N05
 .byte   W12
 .byte   N11 ,As2
 .byte   W12
 .byte   N05 ,Fn2
 .byte   W12
 .byte   Fs2
 .byte   W12
 .byte   N23 ,Gn2
 .byte   W12
 .byte   PEND 
@ 033   ----------------------------------------
Label_2_014DB314:
 .byte   W12
 .byte   N05 ,Fs2 ,v080
 .byte   W12
 .byte   Fn2
 .byte   W12
 .byte   En2
 .byte   W12
 .byte   N11 ,Ds2
 .byte   W12
 .byte   N05 ,Dn2
 .byte   W12
 .byte   N05
 .byte   W12
 .byte   N05
 .byte   W12
 .byte   PEND 
@ 034   ----------------------------------------
 .byte   PATT
  .word Label_2_014DB2FD
@ 035   ----------------------------------------
Label_2_014DB32D:
 .byte   W12
 .byte   N05 ,Gn2 ,v080
 .byte   W12
 .byte   As2
 .byte   W12
 .byte   Cn3
 .byte   W12
 .byte   N11 ,Cs3
 .byte   W12
 .byte   N05 ,Cn3
 .byte   W12
 .byte   As2
 .byte   W12
 .byte   Gn2
 .byte   W12
 .byte   PEND 
@ 036   ----------------------------------------
 .byte   PATT
  .word Label_2_014DB2FD
@ 037   ----------------------------------------
 .byte   PATT
  .word Label_2_014DB314
@ 038   ----------------------------------------
 .byte   PATT
  .word Label_2_014DB2FD
@ 039   ----------------------------------------
 .byte   PATT
  .word Label_2_014DB32D
@ 040   ----------------------------------------
 .byte   PATT
  .word Label_2_014DB2FD
@ 041   ----------------------------------------
 .byte   PATT
  .word Label_2_014DB314
@ 042   ----------------------------------------
 .byte   PATT
  .word Label_2_014DB2FD
@ 043   ----------------------------------------
 .byte   PATT
  .word Label_2_014DB32D
@ 044   ----------------------------------------
 .byte   PATT
  .word Label_2_014DB2FD
@ 045   ----------------------------------------
 .byte   PATT
  .word Label_2_014DB314
@ 046   ----------------------------------------
 .byte   PATT
  .word Label_2_014DB2FD
@ 047   ----------------------------------------
 .byte   PATT
  .word Label_2_014DB32D
@ 048   ----------------------------------------
 .byte   W96
@ 049   ----------------------------------------
 .byte   W96
@ 050   ----------------------------------------
 .byte   W96
@ 051   ----------------------------------------
 .byte   W96
@ 052   ----------------------------------------
 .byte   W96
@ 053   ----------------------------------------
 .byte   W96
@ 054   ----------------------------------------
 .byte   W96
@ 055   ----------------------------------------
 .byte   W96
@ 056   ----------------------------------------
 .byte   W96
@ 057   ----------------------------------------
 .byte   W96
@ 058   ----------------------------------------
 .byte   W96
@ 059   ----------------------------------------
 .byte   W96
@ 060   ----------------------------------------
 .byte   W96
@ 061   ----------------------------------------
 .byte   W96
@ 062   ----------------------------------------
 .byte   W96
@ 063   ----------------------------------------
 .byte   W96
@ 064   ----------------------------------------
 .byte   W96
@ 065   ----------------------------------------
 .byte   W96
@ 066   ----------------------------------------
 .byte   W96
@ 067   ----------------------------------------
 .byte   W96
@ 068   ----------------------------------------
 .byte   W96
@ 069   ----------------------------------------
 .byte   W96
@ 070   ----------------------------------------
 .byte   W96
@ 071   ----------------------------------------
 .byte   W96
@ 072   ----------------------------------------
 .byte   W96
@ 073   ----------------------------------------
 .byte   W96
@ 074   ----------------------------------------
 .byte   W96
@ 075   ----------------------------------------
 .byte   W96
@ 076   ----------------------------------------
 .byte   W96
@ 077   ----------------------------------------
 .byte   W96
@ 078   ----------------------------------------
 .byte   W96
@ 079   ----------------------------------------
 .byte   W96
@ 080   ----------------------------------------
 .byte   W96
@ 081   ----------------------------------------
 .byte   W96
@ 082   ----------------------------------------
 .byte   W96
@ 083   ----------------------------------------
 .byte   W96
@ 084   ----------------------------------------
 .byte   W96
@ 085   ----------------------------------------
 .byte   W96
@ 086   ----------------------------------------
 .byte   W96
@ 087   ----------------------------------------
 .byte   W96
@ 088   ----------------------------------------
 .byte   W96
@ 089   ----------------------------------------
 .byte   W96
@ 090   ----------------------------------------
 .byte   W96
@ 091   ----------------------------------------
 .byte   W96
@ 092   ----------------------------------------
 .byte   W96
@ 093   ----------------------------------------
 .byte   W96
@ 094   ----------------------------------------
 .byte   W96
@ 095   ----------------------------------------
 .byte   W96
@ 096   ----------------------------------------
 .byte   W96
@ 097   ----------------------------------------
 .byte   W96
@ 098   ----------------------------------------
 .byte   W96
@ 099   ----------------------------------------
 .byte   W96
@ 100   ----------------------------------------
 .byte   W96
@ 101   ----------------------------------------
 .byte   W96
@ 102   ----------------------------------------
 .byte   W96
@ 103   ----------------------------------------
 .byte   W96
@ 104   ----------------------------------------
 .byte   PATT
  .word Label_2_014DB2FD
@ 105   ----------------------------------------
 .byte   PATT
  .word Label_2_014DB314
@ 106   ----------------------------------------
 .byte   PATT
  .word Label_2_014DB2FD
@ 107   ----------------------------------------
 .byte   PATT
  .word Label_2_014DB32D
@ 108   ----------------------------------------
 .byte   PATT
  .word Label_2_014DB2FD
@ 109   ----------------------------------------
 .byte   PATT
  .word Label_2_014DB314
@ 110   ----------------------------------------
 .byte   PATT
  .word Label_2_014DB2FD
@ 111   ----------------------------------------
 .byte   PATT
  .word Label_2_014DB32D
@ 112   ----------------------------------------
 .byte   PATT
  .word Label_2_014DB2FD
@ 113   ----------------------------------------
 .byte   PATT
  .word Label_2_014DB314
@ 114   ----------------------------------------
 .byte   PATT
  .word Label_2_014DB2FD
@ 115   ----------------------------------------
 .byte   PATT
  .word Label_2_014DB32D
@ 116   ----------------------------------------
 .byte   PATT
  .word Label_2_014DB2FD
@ 117   ----------------------------------------
 .byte   PATT
  .word Label_2_014DB314
@ 118   ----------------------------------------
 .byte   PATT
  .word Label_2_014DB2FD
@ 119   ----------------------------------------
 .byte   PATT
  .word Label_2_014DB32D
@ 120   ----------------------------------------
 .byte   W96
@ 121   ----------------------------------------
 .byte   W96
@ 122   ----------------------------------------
 .byte   W96
@ 123   ----------------------------------------
 .byte   W96
@ 124   ----------------------------------------
 .byte   W96
@ 125   ----------------------------------------
 .byte   W96
@ 126   ----------------------------------------
 .byte   W96
@ 127   ----------------------------------------
 .byte   W96
@ 128   ----------------------------------------
 .byte   W96
@ 129   ----------------------------------------
 .byte   W96
@ 130   ----------------------------------------
 .byte   W96
@ 131   ----------------------------------------
 .byte   W96
@ 132   ----------------------------------------
 .byte   W96
@ 133   ----------------------------------------
 .byte   W96
@ 134   ----------------------------------------
 .byte   W96
@ 135   ----------------------------------------
 .byte   W96
@ 136   ----------------------------------------
 .byte   W96
@ 137   ----------------------------------------
 .byte   W96
@ 138   ----------------------------------------
 .byte   W96
@ 139   ----------------------------------------
 .byte   W96
@ 140   ----------------------------------------
 .byte   W96
@ 141   ----------------------------------------
 .byte   W96
@ 142   ----------------------------------------
 .byte   W96
@ 143   ----------------------------------------
 .byte   W96
@ 144   ----------------------------------------
 .byte   W96
@ 145   ----------------------------------------
 .byte   W96
@ 146   ----------------------------------------
 .byte   W96
@ 147   ----------------------------------------
 .byte   W96
@ 148   ----------------------------------------
 .byte   W96
@ 149   ----------------------------------------
 .byte   W96
@ 150   ----------------------------------------
 .byte   W96
@ 151   ----------------------------------------
 .byte   W92
 .byte   W03
 .byte   GOTO
  .word Label_2_014DB2E5
 .byte   FINE

@**************** Track 4 (Midi-Chn.3) ****************@

song25_004:
@ 000   ----------------------------------------
 .byte   KEYSH , song25_key+0
 .byte   VOICE , 40
 .byte   VOL , 62*song25_mvl/mxv
 .byte   PAN , c_v+0
 .byte   W48
 .byte   W96
@ 001   ----------------------------------------
 .byte   W96
@ 002   ----------------------------------------
 .byte   W96
@ 003   ----------------------------------------
 .byte   W96
@ 004   ----------------------------------------
 .byte   W96
@ 005   ----------------------------------------
 .byte   W96
@ 006   ----------------------------------------
 .byte   W96
@ 007   ----------------------------------------
 .byte   W96
@ 008   ----------------------------------------
Label_3_014DB1F5:
 .byte   W96
@ 009   ----------------------------------------
 .byte   W96
@ 010   ----------------------------------------
 .byte   W96
@ 011   ----------------------------------------
 .byte   W96
@ 012   ----------------------------------------
 .byte   W96
@ 013   ----------------------------------------
 .byte   W96
@ 014   ----------------------------------------
 .byte   W96
@ 015   ----------------------------------------
 .byte   W96
@ 016   ----------------------------------------
 .byte   W96
@ 017   ----------------------------------------
 .byte   W96
@ 018   ----------------------------------------
 .byte   W96
@ 019   ----------------------------------------
 .byte   W96
@ 020   ----------------------------------------
 .byte   W96
@ 021   ----------------------------------------
 .byte   W96
@ 022   ----------------------------------------
 .byte   W96
@ 023   ----------------------------------------
 .byte   W96
@ 024   ----------------------------------------
 .byte   W96
@ 025   ----------------------------------------
 .byte   W96
@ 026   ----------------------------------------
 .byte   W96
@ 027   ----------------------------------------
 .byte   W96
@ 028   ----------------------------------------
 .byte   W96
@ 029   ----------------------------------------
 .byte   W96
@ 030   ----------------------------------------
 .byte   W96
@ 031   ----------------------------------------
 .byte   W96
@ 032   ----------------------------------------
 .byte   N92 ,Gn3 ,v080
 .byte   W96
@ 033   ----------------------------------------
 .byte   An3
 .byte   W96
@ 034   ----------------------------------------
 .byte   As3
 .byte   W96
@ 035   ----------------------------------------
 .byte   Cn4
 .byte   W96
@ 036   ----------------------------------------
 .byte   Cs4
 .byte   W96
@ 037   ----------------------------------------
 .byte   Dn4
 .byte   W96
@ 038   ----------------------------------------
 .byte   Ds4
 .byte   W96
@ 039   ----------------------------------------
 .byte   Fs4
 .byte   W96
@ 040   ----------------------------------------
 .byte   Gn4
 .byte   W96
@ 041   ----------------------------------------
 .byte   An4
 .byte   W96
@ 042   ----------------------------------------
 .byte   As4
 .byte   W96
@ 043   ----------------------------------------
 .byte   Cn5
 .byte   W96
@ 044   ----------------------------------------
 .byte   Cs5
 .byte   W96
@ 045   ----------------------------------------
 .byte   Dn5
 .byte   W96
@ 046   ----------------------------------------
 .byte   TIE ,Fs5
 .byte   W96
@ 047   ----------------------------------------
 .byte   W92
 .byte   W03
 .byte   EOT
 .byte   W01
@ 048   ----------------------------------------
 .byte   W96
@ 049   ----------------------------------------
 .byte   W96
@ 050   ----------------------------------------
 .byte   W96
@ 051   ----------------------------------------
 .byte   W96
@ 052   ----------------------------------------
 .byte   W96
@ 053   ----------------------------------------
 .byte   W96
@ 054   ----------------------------------------
 .byte   W96
@ 055   ----------------------------------------
 .byte   W96
@ 056   ----------------------------------------
 .byte   W96
@ 057   ----------------------------------------
 .byte   W96
@ 058   ----------------------------------------
 .byte   W96
@ 059   ----------------------------------------
 .byte   W96
@ 060   ----------------------------------------
 .byte   W96
@ 061   ----------------------------------------
 .byte   W96
@ 062   ----------------------------------------
 .byte   W96
@ 063   ----------------------------------------
 .byte   W96
@ 064   ----------------------------------------
 .byte   W96
@ 065   ----------------------------------------
 .byte   W96
@ 066   ----------------------------------------
 .byte   W96
@ 067   ----------------------------------------
 .byte   W96
@ 068   ----------------------------------------
 .byte   W96
@ 069   ----------------------------------------
 .byte   W96
@ 070   ----------------------------------------
 .byte   W96
@ 071   ----------------------------------------
 .byte   W96
@ 072   ----------------------------------------
 .byte   W96
@ 073   ----------------------------------------
 .byte   W96
@ 074   ----------------------------------------
 .byte   W96
@ 075   ----------------------------------------
 .byte   W96
@ 076   ----------------------------------------
 .byte   W96
@ 077   ----------------------------------------
 .byte   W96
@ 078   ----------------------------------------
 .byte   W96
@ 079   ----------------------------------------
 .byte   W96
@ 080   ----------------------------------------
 .byte   W96
@ 081   ----------------------------------------
 .byte   W96
@ 082   ----------------------------------------
 .byte   W96
@ 083   ----------------------------------------
 .byte   W96
@ 084   ----------------------------------------
 .byte   W96
@ 085   ----------------------------------------
 .byte   W96
@ 086   ----------------------------------------
 .byte   W96
@ 087   ----------------------------------------
 .byte   W96
@ 088   ----------------------------------------
 .byte   W96
@ 089   ----------------------------------------
 .byte   W96
@ 090   ----------------------------------------
 .byte   W96
@ 091   ----------------------------------------
 .byte   W96
@ 092   ----------------------------------------
 .byte   W96
@ 093   ----------------------------------------
 .byte   W96
@ 094   ----------------------------------------
 .byte   W96
@ 095   ----------------------------------------
 .byte   W96
@ 096   ----------------------------------------
 .byte   W96
@ 097   ----------------------------------------
 .byte   W96
@ 098   ----------------------------------------
 .byte   W96
@ 099   ----------------------------------------
 .byte   W96
@ 100   ----------------------------------------
 .byte   W96
@ 101   ----------------------------------------
 .byte   W96
@ 102   ----------------------------------------
 .byte   W96
@ 103   ----------------------------------------
 .byte   W96
@ 104   ----------------------------------------
 .byte   N92 ,Gn3
 .byte   W96
@ 105   ----------------------------------------
 .byte   An3
 .byte   W96
@ 106   ----------------------------------------
 .byte   As3
 .byte   W96
@ 107   ----------------------------------------
 .byte   Cn4
 .byte   W96
@ 108   ----------------------------------------
 .byte   Cs4
 .byte   W96
@ 109   ----------------------------------------
 .byte   Dn4
 .byte   W96
@ 110   ----------------------------------------
 .byte   Ds4
 .byte   W96
@ 111   ----------------------------------------
 .byte   Fs4
 .byte   W96
@ 112   ----------------------------------------
 .byte   Gn4
 .byte   W96
@ 113   ----------------------------------------
 .byte   An4
 .byte   W96
@ 114   ----------------------------------------
 .byte   As4
 .byte   W96
@ 115   ----------------------------------------
 .byte   Cn5
 .byte   W96
@ 116   ----------------------------------------
 .byte   Cs5
 .byte   W96
@ 117   ----------------------------------------
 .byte   Dn5
 .byte   W96
@ 118   ----------------------------------------
 .byte   TIE ,Fs5
 .byte   W96
@ 119   ----------------------------------------
 .byte   W92
 .byte   W03
 .byte   EOT
 .byte   W01
@ 120   ----------------------------------------
 .byte   W96
@ 121   ----------------------------------------
 .byte   W96
@ 122   ----------------------------------------
 .byte   W96
@ 123   ----------------------------------------
 .byte   W96
@ 124   ----------------------------------------
 .byte   W96
@ 125   ----------------------------------------
 .byte   W96
@ 126   ----------------------------------------
 .byte   W96
@ 127   ----------------------------------------
 .byte   W96
@ 128   ----------------------------------------
 .byte   W96
@ 129   ----------------------------------------
 .byte   W96
@ 130   ----------------------------------------
 .byte   W96
@ 131   ----------------------------------------
 .byte   W96
@ 132   ----------------------------------------
 .byte   W96
@ 133   ----------------------------------------
 .byte   W96
@ 134   ----------------------------------------
 .byte   W96
@ 135   ----------------------------------------
 .byte   W96
@ 136   ----------------------------------------
 .byte   W96
@ 137   ----------------------------------------
 .byte   W96
@ 138   ----------------------------------------
 .byte   W96
@ 139   ----------------------------------------
 .byte   W96
@ 140   ----------------------------------------
 .byte   W96
@ 141   ----------------------------------------
 .byte   W96
@ 142   ----------------------------------------
 .byte   W96
@ 143   ----------------------------------------
 .byte   W96
@ 144   ----------------------------------------
 .byte   W96
@ 145   ----------------------------------------
 .byte   W96
@ 146   ----------------------------------------
 .byte   W96
@ 147   ----------------------------------------
 .byte   W96
@ 148   ----------------------------------------
 .byte   W96
@ 149   ----------------------------------------
 .byte   W96
@ 150   ----------------------------------------
 .byte   W96
@ 151   ----------------------------------------
 .byte   W92
 .byte   W03
 .byte   GOTO
  .word Label_3_014DB1F5
 .byte   FINE

@**************** Track 5 (Midi-Chn.4) ****************@

song25_005:
@ 000   ----------------------------------------
 .byte   KEYSH , song25_key+0
 .byte   VOICE , 24
 .byte   VOL , 42*song25_mvl/mxv
 .byte   PAN , c_v+0
 .byte   W12
 .byte   N11 ,Gs2 ,v080
 .byte   W12
 .byte   Cn3
 .byte   W12
 .byte   Gn3
 .byte   W12
 .byte   N92 ,Gn2
 .byte   W96
@ 001   ----------------------------------------
 .byte   W84
 .byte   N11 ,Dn2
 .byte   W12
@ 002   ----------------------------------------
 .byte   N92 ,Gn2
 .byte   W96
@ 003   ----------------------------------------
Label_4_014DC1A3:
 .byte   W60
 .byte   N11 ,Gs2 ,v080
 .byte   W12
 .byte   Cn3
 .byte   W12
 .byte   Gn3
 .byte   W12
 .byte   PEND 
@ 004   ----------------------------------------
 .byte   N92 ,Gn2
 .byte   W96
@ 005   ----------------------------------------
 .byte   W84
 .byte   N11 ,Dn2
 .byte   W12
@ 006   ----------------------------------------
 .byte   N92 ,Gn2
 .byte   W96
@ 007   ----------------------------------------
Label_4_014DC1B7:
 .byte   W36
 .byte   N11 ,Cs3 ,v080
 .byte   W12
 .byte   Cn3
 .byte   W12
 .byte   N32 ,As2
 .byte   W36
 .byte   PEND 
@ 008   ----------------------------------------
Label_4_014DC1C2:
 .byte   N92 ,Gn2 ,v080
 .byte   W96
@ 009   ----------------------------------------
 .byte   W84
 .byte   N11 ,Dn2
 .byte   W12
@ 010   ----------------------------------------
 .byte   N92 ,Gn2
 .byte   W96
@ 011   ----------------------------------------
 .byte   PATT
  .word Label_4_014DC1A3
@ 012   ----------------------------------------
 .byte   N92 ,Gn2 ,v080
 .byte   W96
@ 013   ----------------------------------------
 .byte   W84
 .byte   N11 ,Dn2
 .byte   W12
@ 014   ----------------------------------------
 .byte   N92 ,Gn2
 .byte   W96
@ 015   ----------------------------------------
Label_4_014DC1DD:
 .byte   W36
 .byte   N11 ,Cs3 ,v080
 .byte   W12
 .byte   Cn3
 .byte   W12
 .byte   As2
 .byte   W36
 .byte   PEND 
@ 016   ----------------------------------------
 .byte   W96
@ 017   ----------------------------------------
 .byte   W96
@ 018   ----------------------------------------
 .byte   W96
@ 019   ----------------------------------------
 .byte   W96
@ 020   ----------------------------------------
 .byte   W96
@ 021   ----------------------------------------
 .byte   W96
@ 022   ----------------------------------------
 .byte   W96
@ 023   ----------------------------------------
 .byte   W96
@ 024   ----------------------------------------
 .byte   W96
@ 025   ----------------------------------------
 .byte   W96
@ 026   ----------------------------------------
 .byte   W96
@ 027   ----------------------------------------
 .byte   W96
@ 028   ----------------------------------------
 .byte   W96
@ 029   ----------------------------------------
 .byte   W96
@ 030   ----------------------------------------
 .byte   W96
@ 031   ----------------------------------------
 .byte   W96
@ 032   ----------------------------------------
 .byte   W96
@ 033   ----------------------------------------
 .byte   W96
@ 034   ----------------------------------------
 .byte   W96
@ 035   ----------------------------------------
 .byte   W96
@ 036   ----------------------------------------
 .byte   W96
@ 037   ----------------------------------------
 .byte   W96
@ 038   ----------------------------------------
 .byte   W96
@ 039   ----------------------------------------
 .byte   W96
@ 040   ----------------------------------------
 .byte   N92 ,Gn2
 .byte   W96
@ 041   ----------------------------------------
 .byte   W84
 .byte   N11 ,Dn2
 .byte   W12
@ 042   ----------------------------------------
 .byte   N92 ,Gn2
 .byte   W96
@ 043   ----------------------------------------
 .byte   PATT
  .word Label_4_014DC1A3
@ 044   ----------------------------------------
 .byte   N92 ,Gn2 ,v080
 .byte   W96
@ 045   ----------------------------------------
 .byte   W84
 .byte   N11 ,Dn2
 .byte   W12
@ 046   ----------------------------------------
 .byte   N92 ,Gn2
 .byte   W96
@ 047   ----------------------------------------
 .byte   W96
@ 048   ----------------------------------------
Label_4_014DC21A:
 .byte   W12
 .byte   N11 ,En2 ,v080
 .byte   N11 ,An2
 .byte   W36
 .byte   En2
 .byte   N11 ,An2
 .byte   W36
 .byte   En2
 .byte   N11 ,An2
 .byte   W12
 .byte   PEND 
@ 049   ----------------------------------------
 .byte   PATT
  .word Label_4_014DC21A
@ 050   ----------------------------------------
 .byte   PATT
  .word Label_4_014DC21A
@ 051   ----------------------------------------
Label_4_014DC234:
 .byte   W12
 .byte   N11 ,En2 ,v080
 .byte   N11 ,An2
 .byte   W36
 .byte   N44 ,En2
 .byte   N44 ,As2
 .byte   W48
 .byte   PEND 
@ 052   ----------------------------------------
 .byte   PATT
  .word Label_4_014DC21A
@ 053   ----------------------------------------
 .byte   PATT
  .word Label_4_014DC21A
@ 054   ----------------------------------------
 .byte   PATT
  .word Label_4_014DC21A
@ 055   ----------------------------------------
Label_4_014DC250:
 .byte   W12
 .byte   N11 ,En2 ,v080
 .byte   N11 ,An2
 .byte   W36
 .byte   N44 ,En2
 .byte   N44 ,An2
 .byte   W48
 .byte   PEND 
@ 056   ----------------------------------------
 .byte   PATT
  .word Label_4_014DC21A
@ 057   ----------------------------------------
 .byte   PATT
  .word Label_4_014DC21A
@ 058   ----------------------------------------
 .byte   PATT
  .word Label_4_014DC21A
@ 059   ----------------------------------------
 .byte   PATT
  .word Label_4_014DC234
@ 060   ----------------------------------------
 .byte   PATT
  .word Label_4_014DC21A
@ 061   ----------------------------------------
 .byte   PATT
  .word Label_4_014DC21A
@ 062   ----------------------------------------
 .byte   PATT
  .word Label_4_014DC21A
@ 063   ----------------------------------------
Label_4_014DC280:
 .byte   W12
 .byte   N11 ,En2 ,v080
 .byte   N11 ,An2
 .byte   W36
 .byte   En2
 .byte   N11 ,An2
 .byte   W12
 .byte   N32 ,Dn2
 .byte   N32 ,Gn2
 .byte   W36
 .byte   PEND 
@ 064   ----------------------------------------
 .byte   W96
@ 065   ----------------------------------------
 .byte   W96
@ 066   ----------------------------------------
 .byte   W96
@ 067   ----------------------------------------
 .byte   W96
@ 068   ----------------------------------------
 .byte   W96
@ 069   ----------------------------------------
 .byte   W96
@ 070   ----------------------------------------
 .byte   W96
@ 071   ----------------------------------------
 .byte   PATT
  .word Label_4_014DC1A3
@ 072   ----------------------------------------
 .byte   N92 ,Gn2 ,v080
 .byte   W96
@ 073   ----------------------------------------
 .byte   W84
 .byte   N11 ,Dn2
 .byte   W12
@ 074   ----------------------------------------
 .byte   N92 ,Gn2
 .byte   W96
@ 075   ----------------------------------------
 .byte   PATT
  .word Label_4_014DC1A3
@ 076   ----------------------------------------
 .byte   N92 ,Gn2 ,v080
 .byte   W96
@ 077   ----------------------------------------
 .byte   W84
 .byte   N11 ,Dn2
 .byte   W12
@ 078   ----------------------------------------
 .byte   N92 ,Gn2
 .byte   W96
@ 079   ----------------------------------------
 .byte   PATT
  .word Label_4_014DC1B7
@ 080   ----------------------------------------
 .byte   N92 ,Gn2 ,v080
 .byte   W96
@ 081   ----------------------------------------
 .byte   W84
 .byte   N11 ,Dn2
 .byte   W12
@ 082   ----------------------------------------
 .byte   N92 ,Gn2
 .byte   W96
@ 083   ----------------------------------------
 .byte   PATT
  .word Label_4_014DC1A3
@ 084   ----------------------------------------
 .byte   N92 ,Gn2 ,v080
 .byte   W96
@ 085   ----------------------------------------
 .byte   W84
 .byte   N11 ,Dn2
 .byte   W12
@ 086   ----------------------------------------
 .byte   N92 ,Gn2
 .byte   W96
@ 087   ----------------------------------------
 .byte   PATT
  .word Label_4_014DC1DD
@ 088   ----------------------------------------
 .byte   W96
@ 089   ----------------------------------------
 .byte   W96
@ 090   ----------------------------------------
 .byte   W96
@ 091   ----------------------------------------
 .byte   W96
@ 092   ----------------------------------------
 .byte   W96
@ 093   ----------------------------------------
 .byte   W96
@ 094   ----------------------------------------
 .byte   W96
@ 095   ----------------------------------------
 .byte   W96
@ 096   ----------------------------------------
 .byte   W96
@ 097   ----------------------------------------
 .byte   W96
@ 098   ----------------------------------------
 .byte   W96
@ 099   ----------------------------------------
 .byte   W96
@ 100   ----------------------------------------
 .byte   W96
@ 101   ----------------------------------------
 .byte   W96
@ 102   ----------------------------------------
 .byte   W96
@ 103   ----------------------------------------
 .byte   W96
@ 104   ----------------------------------------
 .byte   W96
@ 105   ----------------------------------------
 .byte   W96
@ 106   ----------------------------------------
 .byte   W96
@ 107   ----------------------------------------
 .byte   W96
@ 108   ----------------------------------------
 .byte   W96
@ 109   ----------------------------------------
 .byte   W96
@ 110   ----------------------------------------
 .byte   W96
@ 111   ----------------------------------------
 .byte   W96
@ 112   ----------------------------------------
 .byte   N92 ,Gn2 ,v080
 .byte   W96
@ 113   ----------------------------------------
 .byte   W84
 .byte   N11 ,Dn2
 .byte   W12
@ 114   ----------------------------------------
 .byte   N92 ,Gn2
 .byte   W96
@ 115   ----------------------------------------
 .byte   PATT
  .word Label_4_014DC1A3
@ 116   ----------------------------------------
 .byte   N92 ,Gn2 ,v080
 .byte   W96
@ 117   ----------------------------------------
 .byte   W84
 .byte   N11 ,Dn2
 .byte   W12
@ 118   ----------------------------------------
 .byte   N92 ,Gn2
 .byte   W96
@ 119   ----------------------------------------
 .byte   W96
@ 120   ----------------------------------------
 .byte   PATT
  .word Label_4_014DC21A
@ 121   ----------------------------------------
 .byte   PATT
  .word Label_4_014DC21A
@ 122   ----------------------------------------
 .byte   PATT
  .word Label_4_014DC21A
@ 123   ----------------------------------------
 .byte   PATT
  .word Label_4_014DC234
@ 124   ----------------------------------------
 .byte   PATT
  .word Label_4_014DC21A
@ 125   ----------------------------------------
 .byte   PATT
  .word Label_4_014DC21A
@ 126   ----------------------------------------
 .byte   PATT
  .word Label_4_014DC21A
@ 127   ----------------------------------------
 .byte   PATT
  .word Label_4_014DC250
@ 128   ----------------------------------------
 .byte   PATT
  .word Label_4_014DC21A
@ 129   ----------------------------------------
 .byte   PATT
  .word Label_4_014DC21A
@ 130   ----------------------------------------
 .byte   PATT
  .word Label_4_014DC21A
@ 131   ----------------------------------------
 .byte   PATT
  .word Label_4_014DC234
@ 132   ----------------------------------------
 .byte   PATT
  .word Label_4_014DC21A
@ 133   ----------------------------------------
 .byte   PATT
  .word Label_4_014DC21A
@ 134   ----------------------------------------
 .byte   PATT
  .word Label_4_014DC21A
@ 135   ----------------------------------------
 .byte   PATT
  .word Label_4_014DC280
@ 136   ----------------------------------------
 .byte   W96
@ 137   ----------------------------------------
 .byte   W96
@ 138   ----------------------------------------
 .byte   W96
@ 139   ----------------------------------------
 .byte   W96
@ 140   ----------------------------------------
 .byte   W96
@ 141   ----------------------------------------
 .byte   W96
@ 142   ----------------------------------------
 .byte   W96
@ 143   ----------------------------------------
 .byte   PATT
  .word Label_4_014DC1A3
@ 144   ----------------------------------------
 .byte   N92 ,Gn2 ,v080
 .byte   W96
@ 145   ----------------------------------------
 .byte   W84
 .byte   N11 ,Dn2
 .byte   W12
@ 146   ----------------------------------------
 .byte   N92 ,Gn2
 .byte   W96
@ 147   ----------------------------------------
 .byte   PATT
  .word Label_4_014DC1A3
@ 148   ----------------------------------------
 .byte   N92 ,Gn2 ,v080
 .byte   W96
@ 149   ----------------------------------------
 .byte   W84
 .byte   N11 ,Dn2
 .byte   W12
@ 150   ----------------------------------------
 .byte   N92 ,Gn2
 .byte   W96
@ 151   ----------------------------------------
 .byte   W36
 .byte   N11 ,Cs3
 .byte   W12
 .byte   Cn3
 .byte   W12
 .byte   N32 ,As2
 .byte   W32
 .byte   W03
 .byte   GOTO
  .word Label_4_014DC1C2
 .byte   FINE

@**************** Track 6 (Midi-Chn.5) ****************@

song25_006:
@ 000   ----------------------------------------
 .byte   KEYSH , song25_key+0
 .byte   VOICE , 121
 .byte   VOL , 42*song25_mvl/mxv
 .byte   PAN , c_v+0
 .byte   W48
 .byte   W96
@ 001   ----------------------------------------
 .byte   W96
@ 002   ----------------------------------------
 .byte   W96
@ 003   ----------------------------------------
 .byte   W96
@ 004   ----------------------------------------
 .byte   W96
@ 005   ----------------------------------------
 .byte   W96
@ 006   ----------------------------------------
 .byte   W96
@ 007   ----------------------------------------
 .byte   N23 ,Dn1 ,v080
 .byte   W24
 .byte   N23
 .byte   W24
 .byte   N05
 .byte   W06
 .byte   N05
 .byte   W06
 .byte   N05
 .byte   W06
 .byte   N05
 .byte   W06
 .byte   Bn1
 .byte   W06
 .byte   N05
 .byte   W06
 .byte   An1
 .byte   W06
 .byte   N05
 .byte   W06
@ 008   ----------------------------------------
Label_5_014DC3BE:
 .byte   N23 ,Bn0 ,v080
 .byte   N11 ,Cs2
 .byte   W12
 .byte   Ds2
 .byte   W12
 .byte   Dn1
 .byte   N11 ,Ds2
 .byte   W12
 .byte   N05
 .byte   W06
 .byte   Dn1
 .byte   W06
 .byte   N11 ,Bn0
 .byte   N11 ,Ds2
 .byte   W12
 .byte   Bn0
 .byte   N11 ,Ds2
 .byte   W12
 .byte   Dn1
 .byte   N11 ,Ds2
 .byte   W12
 .byte   N11
 .byte   W12
 .byte   PEND 
@ 009   ----------------------------------------
Label_5_014DC3DE:
 .byte   N23 ,Bn0 ,v080
 .byte   N11 ,Ds2
 .byte   W12
 .byte   N11
 .byte   W12
 .byte   Dn1
 .byte   N11 ,Ds2
 .byte   W12
 .byte   N05
 .byte   W06
 .byte   Dn1
 .byte   W06
 .byte   N11 ,Bn0
 .byte   N11 ,Ds2
 .byte   W12
 .byte   Bn0
 .byte   N11 ,Ds2
 .byte   W12
 .byte   Dn1
 .byte   N11 ,Ds2
 .byte   W12
 .byte   N11
 .byte   W12
 .byte   PEND 
@ 010   ----------------------------------------
 .byte   PATT
  .word Label_5_014DC3DE
@ 011   ----------------------------------------
Label_5_014DC403:
 .byte   N23 ,Bn0 ,v080
 .byte   N05 ,Ds2
 .byte   W06
 .byte   Dn1
 .byte   W06
 .byte   N11 ,Ds2
 .byte   W12
 .byte   Dn1
 .byte   N11 ,Ds2
 .byte   W12
 .byte   N05
 .byte   W06
 .byte   Dn1
 .byte   W06
 .byte   N11 ,Bn0
 .byte   N05 ,Ds2
 .byte   W06
 .byte   Dn1
 .byte   W06
 .byte   N11 ,Bn0
 .byte   N11 ,Ds2
 .byte   W12
 .byte   N05 ,Dn1
 .byte   W06
 .byte   N05
 .byte   W06
 .byte   N05
 .byte   W06
 .byte   N05
 .byte   W06
 .byte   PEND 
@ 012   ----------------------------------------
 .byte   PATT
  .word Label_5_014DC3BE
@ 013   ----------------------------------------
 .byte   PATT
  .word Label_5_014DC3DE
@ 014   ----------------------------------------
 .byte   PATT
  .word Label_5_014DC3DE
@ 015   ----------------------------------------
 .byte   PATT
  .word Label_5_014DC403
@ 016   ----------------------------------------
Label_5_014DC440:
 .byte   N23 ,Bn0 ,v080
 .byte   N11 ,Cs2
 .byte   W12
 .byte   Fs1
 .byte   W12
 .byte   Dn1
 .byte   N11 ,Fs1
 .byte   W12
 .byte   N11
 .byte   W12
 .byte   N23 ,Bn0
 .byte   N11 ,Fs1
 .byte   W12
 .byte   N11
 .byte   W12
 .byte   Dn1
 .byte   N11 ,Fs1
 .byte   W12
 .byte   N11
 .byte   W12
 .byte   PEND 
@ 017   ----------------------------------------
Label_5_014DC45C:
 .byte   N23 ,Bn0 ,v080
 .byte   N11 ,Fs1
 .byte   W12
 .byte   N11
 .byte   W12
 .byte   Dn1
 .byte   N11 ,Fs1
 .byte   W12
 .byte   N11
 .byte   W12
 .byte   N23 ,Bn0
 .byte   N11 ,Fs1
 .byte   W12
 .byte   As1
 .byte   W12
 .byte   Dn1
 .byte   N11 ,Fs1
 .byte   W12
 .byte   N11
 .byte   W12
 .byte   PEND 
@ 018   ----------------------------------------
Label_5_014DC478:
 .byte   N23 ,Bn0 ,v080
 .byte   N11 ,Fs1
 .byte   W12
 .byte   N11
 .byte   W12
 .byte   Dn1
 .byte   N11 ,Fs1
 .byte   W12
 .byte   N11
 .byte   W12
 .byte   N23 ,Bn0
 .byte   N11 ,Fs1
 .byte   W12
 .byte   N11
 .byte   W12
 .byte   Dn1
 .byte   N11 ,Fs1
 .byte   W12
 .byte   N11
 .byte   W12
 .byte   PEND 
@ 019   ----------------------------------------
 .byte   PATT
  .word Label_5_014DC45C
@ 020   ----------------------------------------
 .byte   PATT
  .word Label_5_014DC478
@ 021   ----------------------------------------
 .byte   PATT
  .word Label_5_014DC45C
@ 022   ----------------------------------------
 .byte   PATT
  .word Label_5_014DC478
@ 023   ----------------------------------------
 .byte   PATT
  .word Label_5_014DC45C
@ 024   ----------------------------------------
 .byte   PATT
  .word Label_5_014DC478
@ 025   ----------------------------------------
 .byte   PATT
  .word Label_5_014DC45C
@ 026   ----------------------------------------
 .byte   PATT
  .word Label_5_014DC478
@ 027   ----------------------------------------
 .byte   PATT
  .word Label_5_014DC45C
@ 028   ----------------------------------------
 .byte   PATT
  .word Label_5_014DC478
@ 029   ----------------------------------------
 .byte   PATT
  .word Label_5_014DC45C
@ 030   ----------------------------------------
 .byte   PATT
  .word Label_5_014DC478
@ 031   ----------------------------------------
Label_5_014DC4D0:
 .byte   N23 ,Bn0 ,v080
 .byte   N11 ,Ds2
 .byte   W12
 .byte   N11
 .byte   W12
 .byte   Dn1
 .byte   N11 ,Ds2
 .byte   W12
 .byte   N11
 .byte   W12
 .byte   N23 ,Bn0
 .byte   N05 ,Bn1
 .byte   W06
 .byte   N05
 .byte   W06
 .byte   An1
 .byte   W06
 .byte   N05
 .byte   W06
 .byte   N11 ,Dn1
 .byte   N11 ,An2
 .byte   W12
 .byte   Dn1
 .byte   N11 ,An2
 .byte   W12
 .byte   PEND 
@ 032   ----------------------------------------
 .byte   N23 ,Bn0
 .byte   N23 ,Cs2
 .byte   W96
@ 033   ----------------------------------------
 .byte   W96
@ 034   ----------------------------------------
 .byte   W96
@ 035   ----------------------------------------
 .byte   W96
@ 036   ----------------------------------------
 .byte   W96
@ 037   ----------------------------------------
 .byte   W96
@ 038   ----------------------------------------
 .byte   W96
@ 039   ----------------------------------------
Label_5_014DC4FE:
 .byte   N23 ,Dn1 ,v080
 .byte   W24
 .byte   N23
 .byte   W24
 .byte   N05
 .byte   W06
 .byte   N05
 .byte   W06
 .byte   N05
 .byte   W06
 .byte   Bn1
 .byte   W06
 .byte   N05
 .byte   W06
 .byte   An1
 .byte   W06
 .byte   N11 ,Dn1
 .byte   N11 ,An2
 .byte   W12
 .byte   PEND 
@ 040   ----------------------------------------
Label_5_014DC516:
 .byte   N17 ,Bn0 ,v080
 .byte   N11 ,Cs2
 .byte   W12
 .byte   Ds2
 .byte   W06
 .byte   N05 ,Bn0
 .byte   W06
 .byte   N11 ,Dn1
 .byte   N11 ,Ds2
 .byte   W12
 .byte   N05
 .byte   W06
 .byte   Dn1
 .byte   W06
 .byte   N17 ,Bn0
 .byte   N11 ,Ds2
 .byte   W12
 .byte   N11
 .byte   W06
 .byte   N05 ,Cn1
 .byte   W06
 .byte   N11 ,Dn1
 .byte   N11 ,Ds2
 .byte   W12
 .byte   N11
 .byte   W12
 .byte   PEND 
@ 041   ----------------------------------------
Label_5_014DC53C:
 .byte   N17 ,Bn0 ,v080
 .byte   N11 ,Ds2
 .byte   W12
 .byte   N11
 .byte   W06
 .byte   N05 ,Bn0
 .byte   W06
 .byte   N11 ,Dn1
 .byte   N11 ,Ds2
 .byte   W12
 .byte   N11
 .byte   W12
 .byte   N17 ,Bn0
 .byte   N11 ,Ds2
 .byte   W12
 .byte   N11
 .byte   W06
 .byte   N05 ,Cn1
 .byte   W06
 .byte   N11 ,Dn1
 .byte   N11 ,Ds2
 .byte   W12
 .byte   Cn1
 .byte   N11 ,Ds2
 .byte   W12
 .byte   PEND 
@ 042   ----------------------------------------
Label_5_014DC562:
 .byte   N17 ,Bn0 ,v080
 .byte   N11 ,Ds2
 .byte   W12
 .byte   N11
 .byte   W06
 .byte   N05 ,Bn0
 .byte   W06
 .byte   N11 ,Dn1
 .byte   N11 ,Ds2
 .byte   W12
 .byte   N05
 .byte   W06
 .byte   Dn1
 .byte   W06
 .byte   N11 ,Ds2
 .byte   W12
 .byte   N11
 .byte   W06
 .byte   N05 ,Cn1
 .byte   W06
 .byte   N11 ,Dn1
 .byte   N11 ,Ds2
 .byte   W12
 .byte   N11
 .byte   W12
 .byte   PEND 
@ 043   ----------------------------------------
Label_5_014DC586:
 .byte   N17 ,Bn0 ,v080
 .byte   N05 ,Ds2
 .byte   W06
 .byte   Dn1
 .byte   W06
 .byte   N11 ,Ds2
 .byte   W06
 .byte   N05 ,Bn0
 .byte   W06
 .byte   N11 ,Dn1
 .byte   N11 ,Ds2
 .byte   W12
 .byte   Cn1
 .byte   N05 ,Ds2
 .byte   W06
 .byte   Dn1
 .byte   W06
 .byte   N11 ,Ds2
 .byte   W12
 .byte   N05 ,Bn0
 .byte   N11 ,Ds2
 .byte   W06
 .byte   N05 ,Cn1
 .byte   W06
 .byte   Dn1
 .byte   W06
 .byte   N05
 .byte   W06
 .byte   Bn1
 .byte   W06
 .byte   An1
 .byte   W06
 .byte   PEND 
@ 044   ----------------------------------------
 .byte   PATT
  .word Label_5_014DC516
@ 045   ----------------------------------------
 .byte   PATT
  .word Label_5_014DC53C
@ 046   ----------------------------------------
 .byte   PATT
  .word Label_5_014DC562
@ 047   ----------------------------------------
Label_5_014DC5C2:
 .byte   N17 ,Bn0 ,v080
 .byte   N11 ,Dn1
 .byte   N11 ,Ds2
 .byte   W12
 .byte   N11
 .byte   W06
 .byte   N05 ,Bn0
 .byte   W06
 .byte   N11 ,Dn1
 .byte   N11 ,Ds2
 .byte   W12
 .byte   Cn1
 .byte   N11 ,Ds2
 .byte   W12
 .byte   N05 ,Dn1
 .byte   W06
 .byte   N05
 .byte   W06
 .byte   N05
 .byte   W06
 .byte   Bn1
 .byte   W06
 .byte   N05
 .byte   W06
 .byte   An1
 .byte   W06
 .byte   N11 ,Dn1
 .byte   N11 ,An2
 .byte   W12
 .byte   PEND 
@ 048   ----------------------------------------
Label_5_014DC5EB:
 .byte   N23 ,Cn1 ,v080
 .byte   N11 ,Cs2
 .byte   W12
 .byte   Ds2
 .byte   W12
 .byte   Dn1
 .byte   N11 ,Ds2
 .byte   W12
 .byte   N11
 .byte   W12
 .byte   N23 ,Cn1
 .byte   N11 ,Ds2
 .byte   W12
 .byte   N11
 .byte   W12
 .byte   Dn1
 .byte   N11 ,Ds2
 .byte   W12
 .byte   N11
 .byte   W12
 .byte   PEND 
@ 049   ----------------------------------------
Label_5_014DC607:
 .byte   N23 ,Cn1 ,v080
 .byte   N11 ,Ds2
 .byte   W12
 .byte   N11
 .byte   W12
 .byte   Dn1
 .byte   N11 ,Ds2
 .byte   W12
 .byte   N11
 .byte   W12
 .byte   N23 ,Cn1
 .byte   N11 ,Ds2
 .byte   W12
 .byte   N11
 .byte   W12
 .byte   Dn1
 .byte   N11 ,Ds2
 .byte   W12
 .byte   N11
 .byte   W12
 .byte   PEND 
@ 050   ----------------------------------------
 .byte   PATT
  .word Label_5_014DC607
@ 051   ----------------------------------------
 .byte   PATT
  .word Label_5_014DC607
@ 052   ----------------------------------------
 .byte   PATT
  .word Label_5_014DC607
@ 053   ----------------------------------------
 .byte   PATT
  .word Label_5_014DC607
@ 054   ----------------------------------------
 .byte   PATT
  .word Label_5_014DC607
@ 055   ----------------------------------------
Label_5_014DC63C:
 .byte   N23 ,Cn1 ,v080
 .byte   N11 ,Ds2
 .byte   W12
 .byte   N11
 .byte   W12
 .byte   Dn1
 .byte   N11 ,Ds2
 .byte   W12
 .byte   N05
 .byte   W06
 .byte   Dn1
 .byte   W06
 .byte   N23 ,Cn1
 .byte   N05 ,Ds2
 .byte   W06
 .byte   Dn1
 .byte   W06
 .byte   N11 ,Ds2
 .byte   W12
 .byte   Dn1
 .byte   N11 ,Ds2
 .byte   W12
 .byte   An2
 .byte   W12
 .byte   PEND 
@ 056   ----------------------------------------
Label_5_014DC65D:
 .byte   N23 ,Cn1 ,v080
 .byte   N11 ,Cs2
 .byte   W12
 .byte   Ds2
 .byte   W12
 .byte   Dn1
 .byte   N11 ,Ds2
 .byte   W12
 .byte   N05
 .byte   W06
 .byte   Dn1
 .byte   W06
 .byte   N23 ,Cn1
 .byte   N11 ,Ds2
 .byte   W12
 .byte   N11
 .byte   W12
 .byte   Dn1
 .byte   N11 ,Ds2
 .byte   W12
 .byte   N11
 .byte   W12
 .byte   PEND 
@ 057   ----------------------------------------
Label_5_014DC67B:
 .byte   N23 ,Cn1 ,v080
 .byte   N11 ,Ds2
 .byte   W12
 .byte   N11
 .byte   W12
 .byte   Dn1
 .byte   N11 ,Ds2
 .byte   W12
 .byte   N11
 .byte   W12
 .byte   N23 ,Cn1
 .byte   N11 ,Ds2
 .byte   W12
 .byte   N11
 .byte   W12
 .byte   Dn1
 .byte   N11 ,Gn2
 .byte   W12
 .byte   Ds2
 .byte   W12
 .byte   PEND 
@ 058   ----------------------------------------
 .byte   PATT
  .word Label_5_014DC607
@ 059   ----------------------------------------
 .byte   PATT
  .word Label_5_014DC67B
@ 060   ----------------------------------------
Label_5_014DC6A1:
 .byte   N23 ,Cn1 ,v080
 .byte   N11 ,Ds2
 .byte   W12
 .byte   N11
 .byte   W12
 .byte   Dn1
 .byte   N11 ,Cs2
 .byte   W12
 .byte   Ds2
 .byte   W12
 .byte   N23 ,Cn1
 .byte   N11 ,Ds2
 .byte   W12
 .byte   N11
 .byte   W12
 .byte   Dn1
 .byte   N11 ,Ds2
 .byte   W12
 .byte   N11
 .byte   W12
 .byte   PEND 
@ 061   ----------------------------------------
 .byte   PATT
  .word Label_5_014DC607
@ 062   ----------------------------------------
 .byte   PATT
  .word Label_5_014DC6A1
@ 063   ----------------------------------------
 .byte   PATT
  .word Label_5_014DC607
@ 064   ----------------------------------------
 .byte   W96
@ 065   ----------------------------------------
 .byte   W96
@ 066   ----------------------------------------
 .byte   W96
@ 067   ----------------------------------------
 .byte   W96
@ 068   ----------------------------------------
 .byte   W96
@ 069   ----------------------------------------
 .byte   W96
@ 070   ----------------------------------------
 .byte   W96
@ 071   ----------------------------------------
 .byte   PATT
  .word Label_5_014DC4FE
@ 072   ----------------------------------------
 .byte   PATT
  .word Label_5_014DC516
@ 073   ----------------------------------------
 .byte   PATT
  .word Label_5_014DC53C
@ 074   ----------------------------------------
 .byte   PATT
  .word Label_5_014DC562
@ 075   ----------------------------------------
 .byte   PATT
  .word Label_5_014DC586
@ 076   ----------------------------------------
Label_5_014DC6EC:
 .byte   N17 ,Bn0 ,v080
 .byte   N11 ,Cs2
 .byte   W12
 .byte   Ds2
 .byte   W06
 .byte   N05 ,Bn0
 .byte   W06
 .byte   N11 ,Dn1
 .byte   N11 ,Ds2
 .byte   W12
 .byte   N05
 .byte   W06
 .byte   Dn1
 .byte   W06
 .byte   N17 ,Bn0
 .byte   N11 ,Ds2
 .byte   W12
 .byte   N11
 .byte   W06
 .byte   N05 ,Cn1
 .byte   W06
 .byte   N11 ,Dn1
 .byte   N11 ,Ds2
 .byte   W12
 .byte   Dn1
 .byte   N11 ,Ds2
 .byte   W12
 .byte   PEND 
@ 077   ----------------------------------------
Label_5_014DC714:
 .byte   N11 ,Ds2 ,v080
 .byte   W12
 .byte   N11
 .byte   W06
 .byte   N05 ,Bn0
 .byte   W06
 .byte   N11 ,Dn1
 .byte   N11 ,Ds2
 .byte   W12
 .byte   N11
 .byte   W12
 .byte   N17 ,Bn0
 .byte   N11 ,Ds2
 .byte   W12
 .byte   N11
 .byte   W06
 .byte   N05 ,Cn1
 .byte   W06
 .byte   N11 ,Dn1
 .byte   N11 ,Ds2
 .byte   W12
 .byte   Cn1
 .byte   N11 ,Ds2
 .byte   W12
 .byte   PEND 
@ 078   ----------------------------------------
 .byte   PATT
  .word Label_5_014DC562
@ 079   ----------------------------------------
 .byte   N17 ,Bn0 ,v080
 .byte   N05 ,Ds2
 .byte   W06
 .byte   Dn1
 .byte   W06
 .byte   N11 ,Ds2
 .byte   W06
 .byte   N05 ,Bn0
 .byte   W06
 .byte   N11 ,Dn1
 .byte   N11 ,Ds2
 .byte   W12
 .byte   Cn1
 .byte   N05 ,Ds2
 .byte   W06
 .byte   Dn1
 .byte   W06
 .byte   N11 ,Ds2
 .byte   W12
 .byte   N05 ,Bn0
 .byte   N11 ,Ds2
 .byte   W06
 .byte   N05 ,Cn1
 .byte   W06
 .byte   Dn1
 .byte   W06
 .byte   N05
 .byte   W06
 .byte   N11 ,Cn1
 .byte   N11 ,An2
 .byte   W12
@ 080   ----------------------------------------
 .byte   PATT
  .word Label_5_014DC3BE
@ 081   ----------------------------------------
 .byte   PATT
  .word Label_5_014DC3DE
@ 082   ----------------------------------------
 .byte   PATT
  .word Label_5_014DC3DE
@ 083   ----------------------------------------
 .byte   PATT
  .word Label_5_014DC403
@ 084   ----------------------------------------
 .byte   PATT
  .word Label_5_014DC3BE
@ 085   ----------------------------------------
 .byte   PATT
  .word Label_5_014DC3DE
@ 086   ----------------------------------------
 .byte   PATT
  .word Label_5_014DC3DE
@ 087   ----------------------------------------
 .byte   PATT
  .word Label_5_014DC403
@ 088   ----------------------------------------
 .byte   PATT
  .word Label_5_014DC440
@ 089   ----------------------------------------
 .byte   PATT
  .word Label_5_014DC45C
@ 090   ----------------------------------------
 .byte   PATT
  .word Label_5_014DC478
@ 091   ----------------------------------------
 .byte   PATT
  .word Label_5_014DC45C
@ 092   ----------------------------------------
 .byte   PATT
  .word Label_5_014DC478
@ 093   ----------------------------------------
 .byte   PATT
  .word Label_5_014DC45C
@ 094   ----------------------------------------
 .byte   PATT
  .word Label_5_014DC478
@ 095   ----------------------------------------
 .byte   PATT
  .word Label_5_014DC45C
@ 096   ----------------------------------------
 .byte   PATT
  .word Label_5_014DC478
@ 097   ----------------------------------------
 .byte   PATT
  .word Label_5_014DC45C
@ 098   ----------------------------------------
 .byte   PATT
  .word Label_5_014DC478
@ 099   ----------------------------------------
 .byte   PATT
  .word Label_5_014DC45C
@ 100   ----------------------------------------
 .byte   PATT
  .word Label_5_014DC478
@ 101   ----------------------------------------
 .byte   PATT
  .word Label_5_014DC45C
@ 102   ----------------------------------------
 .byte   PATT
  .word Label_5_014DC478
@ 103   ----------------------------------------
 .byte   PATT
  .word Label_5_014DC4D0
@ 104   ----------------------------------------
 .byte   N23 ,Bn0 ,v080
 .byte   N23 ,Cs2
 .byte   W96
@ 105   ----------------------------------------
 .byte   W96
@ 106   ----------------------------------------
 .byte   W96
@ 107   ----------------------------------------
 .byte   W96
@ 108   ----------------------------------------
 .byte   W96
@ 109   ----------------------------------------
 .byte   W96
@ 110   ----------------------------------------
 .byte   W96
@ 111   ----------------------------------------
 .byte   PATT
  .word Label_5_014DC4FE
@ 112   ----------------------------------------
 .byte   PATT
  .word Label_5_014DC516
@ 113   ----------------------------------------
 .byte   PATT
  .word Label_5_014DC53C
@ 114   ----------------------------------------
 .byte   PATT
  .word Label_5_014DC562
@ 115   ----------------------------------------
 .byte   PATT
  .word Label_5_014DC586
@ 116   ----------------------------------------
 .byte   PATT
  .word Label_5_014DC516
@ 117   ----------------------------------------
 .byte   PATT
  .word Label_5_014DC53C
@ 118   ----------------------------------------
 .byte   PATT
  .word Label_5_014DC562
@ 119   ----------------------------------------
 .byte   PATT
  .word Label_5_014DC5C2
@ 120   ----------------------------------------
 .byte   PATT
  .word Label_5_014DC5EB
@ 121   ----------------------------------------
 .byte   PATT
  .word Label_5_014DC607
@ 122   ----------------------------------------
 .byte   PATT
  .word Label_5_014DC607
@ 123   ----------------------------------------
 .byte   PATT
  .word Label_5_014DC607
@ 124   ----------------------------------------
 .byte   PATT
  .word Label_5_014DC607
@ 125   ----------------------------------------
 .byte   PATT
  .word Label_5_014DC607
@ 126   ----------------------------------------
 .byte   PATT
  .word Label_5_014DC607
@ 127   ----------------------------------------
 .byte   PATT
  .word Label_5_014DC63C
@ 128   ----------------------------------------
 .byte   PATT
  .word Label_5_014DC65D
@ 129   ----------------------------------------
 .byte   PATT
  .word Label_5_014DC67B
@ 130   ----------------------------------------
 .byte   PATT
  .word Label_5_014DC607
@ 131   ----------------------------------------
 .byte   PATT
  .word Label_5_014DC67B
@ 132   ----------------------------------------
 .byte   PATT
  .word Label_5_014DC6A1
@ 133   ----------------------------------------
 .byte   PATT
  .word Label_5_014DC607
@ 134   ----------------------------------------
 .byte   PATT
  .word Label_5_014DC6A1
@ 135   ----------------------------------------
 .byte   PATT
  .word Label_5_014DC607
@ 136   ----------------------------------------
 .byte   W96
@ 137   ----------------------------------------
 .byte   W96
@ 138   ----------------------------------------
 .byte   W96
@ 139   ----------------------------------------
 .byte   W96
@ 140   ----------------------------------------
 .byte   W96
@ 141   ----------------------------------------
 .byte   W96
@ 142   ----------------------------------------
 .byte   W96
@ 143   ----------------------------------------
 .byte   PATT
  .word Label_5_014DC4FE
@ 144   ----------------------------------------
 .byte   PATT
  .word Label_5_014DC516
@ 145   ----------------------------------------
 .byte   PATT
  .word Label_5_014DC53C
@ 146   ----------------------------------------
 .byte   PATT
  .word Label_5_014DC562
@ 147   ----------------------------------------
 .byte   PATT
  .word Label_5_014DC586
@ 148   ----------------------------------------
 .byte   PATT
  .word Label_5_014DC6EC
@ 149   ----------------------------------------
 .byte   PATT
  .word Label_5_014DC714
@ 150   ----------------------------------------
 .byte   PATT
  .word Label_5_014DC562
@ 151   ----------------------------------------
 .byte   N17 ,Bn0 ,v080
 .byte   N05 ,Ds2
 .byte   W06
 .byte   Dn1
 .byte   W06
 .byte   N11 ,Ds2
 .byte   W06
 .byte   N05 ,Bn0
 .byte   W06
 .byte   N11 ,Dn1
 .byte   N11 ,Ds2
 .byte   W12
 .byte   Cn1
 .byte   N05 ,Ds2
 .byte   W06
 .byte   Dn1
 .byte   W06
 .byte   N11 ,Ds2
 .byte   W12
 .byte   N05 ,Bn0
 .byte   N11 ,Ds2
 .byte   W06
 .byte   N05 ,Cn1
 .byte   W06
 .byte   Dn1
 .byte   W06
 .byte   N05
 .byte   W06
 .byte   N11 ,Cn1
 .byte   N11 ,An2
 .byte   W11
 .byte   GOTO
  .word Label_5_014DC3BE
 .byte   FINE

@**************** Track 7 (Midi-Chn.6) ****************@

song25_007:
@ 000   ----------------------------------------
 .byte   KEYSH , song25_key+0
 .byte   VOICE , 4
 .byte   VOL , 42*song25_mvl/mxv
 .byte   PAN , c_v+0
 .byte   W12
 .byte   N11 ,Gs2 ,v080
 .byte   W12
 .byte   Cn3
 .byte   W12
 .byte   Gn3
 .byte   W12
Label_6_014DC8E1:
 .byte   TIE ,Gn2 ,v080
 .byte   W12
 .byte   N11 ,Gn1
 .byte   W12
 .byte   TIE ,Gn0
 .byte   W72
 .byte   PEND 
@ 001   ----------------------------------------
 .byte   W60
 .byte   W03
 .byte   EOT
 .byte   Gn2
 .byte   W01
 .byte   Gn0
 .byte   W20
 .byte   N11 ,Dn2
 .byte   W12
@ 002   ----------------------------------------
Label_6_014DC8F6:
 .byte   TIE ,Gn1 ,v080
 .byte   TIE ,Gn2
 .byte   W96
 .byte   PEND 
@ 003   ----------------------------------------
 .byte   W40
 .byte   EOT
 .byte   Gn1 ,v055
 .byte   W20
 .byte   N11 ,Gs2
 .byte   W12
 .byte   Cn3
 .byte   W12
 .byte   Gn3
 .byte   W12
@ 004   ----------------------------------------
 .byte   PATT
  .word Label_6_014DC8E1
@ 005   ----------------------------------------
 .byte   W60
 .byte   W03
 .byte   EOT
 .byte   Gn2
 .byte   W01
 .byte   Gn0
 .byte   W20
 .byte   N11 ,Dn2 ,v080
 .byte   W12
@ 006   ----------------------------------------
 .byte   PATT
  .word Label_6_014DC8F6
@ 007   ----------------------------------------
 .byte   W36
 .byte   N11 ,Cs3 ,v080
 .byte   W04
 .byte   EOT
 .byte   Gn1 ,v055
 .byte   W08
 .byte   N11 ,Cn3
 .byte   W12
 .byte   N32 ,As2
 .byte   W36
@ 008   ----------------------------------------
Label_6_014DC92D:
 .byte   W12
 .byte   N11 ,Gn2 ,v080
 .byte   N11 ,Dn3
 .byte   W36
 .byte   Gn2
 .byte   N11 ,Dn3
 .byte   W36
 .byte   Gn2
 .byte   N11 ,Dn3
 .byte   W12
 .byte   PEND 
@ 009   ----------------------------------------
 .byte   PATT
  .word Label_6_014DC92D
@ 010   ----------------------------------------
 .byte   PATT
  .word Label_6_014DC92D
@ 011   ----------------------------------------
 .byte   PATT
  .word Label_6_014DC92D
@ 012   ----------------------------------------
 .byte   PATT
  .word Label_6_014DC92D
@ 013   ----------------------------------------
 .byte   PATT
  .word Label_6_014DC92D
@ 014   ----------------------------------------
 .byte   PATT
  .word Label_6_014DC92D
@ 015   ----------------------------------------
 .byte   PATT
  .word Label_6_014DC92D
@ 016   ----------------------------------------
 .byte   W96
@ 017   ----------------------------------------
 .byte   W96
@ 018   ----------------------------------------
 .byte   W96
@ 019   ----------------------------------------
Label_6_014DC963:
 .byte   W36
 .byte   N11 ,Gn4 ,v080
 .byte   N11 ,Gn5
 .byte   W12
 .byte   N17 ,Dn4
 .byte   N17 ,Dn5
 .byte   W18
 .byte   As3
 .byte   N17 ,As4
 .byte   W18
 .byte   N11 ,Gs3
 .byte   N11 ,Gs4
 .byte   W12
 .byte   PEND 
@ 020   ----------------------------------------
 .byte   N90 ,Gn3
 .byte   N90 ,Gn4
 .byte   W96
@ 021   ----------------------------------------
 .byte   W96
@ 022   ----------------------------------------
 .byte   W96
@ 023   ----------------------------------------
Label_6_014DC980:
 .byte   W48
 .byte   N17 ,Gs3 ,v080
 .byte   N17 ,Gs4
 .byte   W18
 .byte   Cn4
 .byte   N17 ,Cn5
 .byte   W18
 .byte   N11 ,Ds4
 .byte   N11 ,Ds5
 .byte   W12
 .byte   PEND 
@ 024   ----------------------------------------
Label_6_014DC991:
 .byte   N44 ,Dn4 ,v080
 .byte   N44 ,Dn5
 .byte   W48
 .byte   N11 ,Gn2
 .byte   N11 ,Dn3
 .byte   W36
 .byte   Gn2
 .byte   N11 ,Dn3
 .byte   W12
 .byte   PEND 
@ 025   ----------------------------------------
 .byte   PATT
  .word Label_6_014DC92D
@ 026   ----------------------------------------
 .byte   PATT
  .word Label_6_014DC92D
@ 027   ----------------------------------------
 .byte   PATT
  .word Label_6_014DC92D
@ 028   ----------------------------------------
 .byte   PATT
  .word Label_6_014DC92D
@ 029   ----------------------------------------
 .byte   PATT
  .word Label_6_014DC92D
@ 030   ----------------------------------------
 .byte   PATT
  .word Label_6_014DC92D
@ 031   ----------------------------------------
Label_6_014DC9BF:
 .byte   W12
 .byte   N11 ,Gn2 ,v080
 .byte   N11 ,Dn3
 .byte   W36
 .byte   Gn2
 .byte   N11 ,Dn3
 .byte   W12
 .byte   Fn2
 .byte   N11 ,Cn3
 .byte   W36
 .byte   PEND 
@ 032   ----------------------------------------
 .byte   W96
@ 033   ----------------------------------------
 .byte   W96
@ 034   ----------------------------------------
 .byte   W96
@ 035   ----------------------------------------
 .byte   W96
@ 036   ----------------------------------------
Label_6_014DC9D3:
 .byte   N11 ,Gn4 ,v080
 .byte   N11 ,Gn5
 .byte   W12
 .byte   N17 ,Gn4
 .byte   N17 ,Gn5
 .byte   W18
 .byte   N44 ,Gn4
 .byte   N44 ,Gn5
 .byte   W66
 .byte   PEND 
@ 037   ----------------------------------------
 .byte   W96
@ 038   ----------------------------------------
 .byte   W96
@ 039   ----------------------------------------
 .byte   W96
@ 040   ----------------------------------------
 .byte   W96
@ 041   ----------------------------------------
 .byte   W96
@ 042   ----------------------------------------
 .byte   W96
@ 043   ----------------------------------------
Label_6_014DC9EA:
 .byte   N44 ,Cn4 ,v080
 .byte   N44 ,Cn5
 .byte   W48
 .byte   As3
 .byte   N44 ,As4
 .byte   W48
 .byte   PEND 
@ 044   ----------------------------------------
 .byte   PATT
  .word Label_6_014DC9D3
@ 045   ----------------------------------------
 .byte   W96
@ 046   ----------------------------------------
 .byte   W96
@ 047   ----------------------------------------
 .byte   W96
@ 048   ----------------------------------------
Label_6_014DC9FD:
 .byte   N90 ,An1 ,v080
 .byte   N90 ,En2
 .byte   N05 ,An5
 .byte   W06
 .byte   N11 ,An4
 .byte   W12
 .byte   Cn5
 .byte   W12
 .byte   Dn5
 .byte   W12
 .byte   N03
 .byte   W03
 .byte   N14 ,Ds5
 .byte   W15
 .byte   N11 ,Dn5
 .byte   W12
 .byte   Cn5
 .byte   W12
 .byte   An4
 .byte   W12
 .byte   PEND 
@ 049   ----------------------------------------
Label_6_014DCA19:
 .byte   N90 ,An1 ,v080
 .byte   N90 ,En2
 .byte   N05 ,Gn4
 .byte   W06
 .byte   N11 ,Gs4
 .byte   W12
 .byte   N11
 .byte   N11 ,An4
 .byte   W12
 .byte   N11
 .byte   W12
 .byte   N17
 .byte   W18
 .byte   N05 ,Gn4
 .byte   W06
 .byte   En4
 .byte   W06
 .byte   Dn4
 .byte   W06
 .byte   Cn4
 .byte   W06
 .byte   N11 ,An3
 .byte   W12
 .byte   PEND 
@ 050   ----------------------------------------
Label_6_014DCA39:
 .byte   N90 ,An1 ,v080
 .byte   N90 ,En2
 .byte   N17 ,Ds4
 .byte   N17 ,En4
 .byte   W18
 .byte   Ds4
 .byte   N17 ,En4
 .byte   W18
 .byte   Ds4
 .byte   W03
 .byte   N14 ,En4
 .byte   W15
 .byte   N17 ,Ds4
 .byte   W03
 .byte   N14 ,En4
 .byte   W15
 .byte   N11 ,Dn4
 .byte   W12
 .byte   Cn4
 .byte   W12
 .byte   PEND 
@ 051   ----------------------------------------
Label_6_014DCA58:
 .byte   N90 ,An1 ,v080
 .byte   N90 ,En2
 .byte   N11 ,An3
 .byte   W12
 .byte   N05
 .byte   W06
 .byte   N11 ,Cn4
 .byte   W12
 .byte   N11
 .byte   W12
 .byte   Dn4
 .byte   W12
 .byte   N11
 .byte   W12
 .byte   N05 ,En4
 .byte   W06
 .byte   Gn4
 .byte   W06
 .byte   En4
 .byte   W06
 .byte   Gn4
 .byte   W06
 .byte   Gs4
 .byte   W06
 .byte   PEND 
@ 052   ----------------------------------------
Label_6_014DCA77:
 .byte   N90 ,An1 ,v080
 .byte   N90 ,En2
 .byte   N17 ,An4
 .byte   W18
 .byte   N17
 .byte   W18
 .byte   N44
 .byte   W60
 .byte   PEND 
@ 053   ----------------------------------------
Label_6_014DCA84:
 .byte   N90 ,An1 ,v080
 .byte   N90 ,En2
 .byte   W60
 .byte   N11 ,An4
 .byte   W12
 .byte   N05 ,Cn5
 .byte   W06
 .byte   An4
 .byte   W12
 .byte   N02 ,Cn5
 .byte   W03
 .byte   N14 ,Dn5
 .byte   W03
 .byte   PEND 
@ 054   ----------------------------------------
Label_6_014DCA99:
 .byte   N90 ,An1 ,v080
 .byte   N90 ,En2
 .byte   W12
 .byte   N11 ,Cn5
 .byte   W12
 .byte   An4
 .byte   W12
 .byte   Gn4
 .byte   W12
 .byte   N17 ,Gs4
 .byte   W18
 .byte   An4
 .byte   W18
 .byte   N05 ,Cn4
 .byte   W06
 .byte   Dn4
 .byte   W06
 .byte   PEND 
@ 055   ----------------------------------------
Label_6_014DCAB1:
 .byte   N90 ,An1 ,v080
 .byte   N90 ,En2
 .byte   W12
 .byte   N05 ,En4
 .byte   W06
 .byte   An3
 .byte   W06
 .byte   Dn4
 .byte   W06
 .byte   N11 ,Cs4
 .byte   W12
 .byte   N05 ,Cn4
 .byte   W06
 .byte   N11 ,As3
 .byte   W12
 .byte   N05 ,An3
 .byte   W06
 .byte   N11 ,Gn3
 .byte   W12
 .byte   N05 ,En3
 .byte   W06
 .byte   N11 ,An3
 .byte   W12
 .byte   PEND 
@ 056   ----------------------------------------
Label_6_014DCAD4:
 .byte   N90 ,An1 ,v080
 .byte   N90 ,En2
 .byte   W12
 .byte   N17 ,Bn3
 .byte   N17 ,Dn4
 .byte   W18
 .byte   N05 ,Cn4
 .byte   W18
 .byte   N17 ,Bn3
 .byte   N17 ,Dn4
 .byte   W18
 .byte   N05 ,Cn4
 .byte   W24
 .byte   An3
 .byte   W06
 .byte   PEND 
@ 057   ----------------------------------------
Label_6_014DCAED:
 .byte   N90 ,An1 ,v080
 .byte   N90 ,En2
 .byte   N05 ,Cn4
 .byte   W06
 .byte   N11 ,Dn4
 .byte   W12
 .byte   Ds4
 .byte   N11 ,En4
 .byte   W12
 .byte   An4
 .byte   W12
 .byte   N11
 .byte   W12
 .byte   Gn4
 .byte   W12
 .byte   En4
 .byte   W12
 .byte   An4
 .byte   W12
 .byte   N11
 .byte   W06
 .byte   PEND 
@ 058   ----------------------------------------
Label_6_014DCB09:
 .byte   N90 ,An1 ,v080
 .byte   N90 ,En2
 .byte   W06
 .byte   N11 ,An4
 .byte   N11 ,Cn5
 .byte   W12
 .byte   An4
 .byte   N11 ,Cn5
 .byte   W12
 .byte   An4
 .byte   W12
 .byte   N11
 .byte   W12
 .byte   Cn5
 .byte   N11 ,Dn5
 .byte   W12
 .byte   An4
 .byte   W12
 .byte   Ds5
 .byte   W12
 .byte   N11
 .byte   W06
 .byte   PEND 
@ 059   ----------------------------------------
Label_6_014DCB27:
 .byte   N90 ,An1 ,v080
 .byte   N90 ,En2
 .byte   W06
 .byte   N11 ,Dn5
 .byte   W12
 .byte   N05 ,An4
 .byte   W06
 .byte   Cn5
 .byte   W06
 .byte   Gn4
 .byte   W06
 .byte   Gs4
 .byte   W06
 .byte   An4
 .byte   W06
 .byte   Gn4
 .byte   W06
 .byte   An4
 .byte   W06
 .byte   Gn4
 .byte   W06
 .byte   En4
 .byte   W06
 .byte   Dn4
 .byte   W06
 .byte   En4
 .byte   W06
 .byte   Gn4
 .byte   W06
 .byte   Gs4
 .byte   W06
 .byte   PEND 
@ 060   ----------------------------------------
Label_6_014DCB4C:
 .byte   N90 ,An1 ,v080
 .byte   N90 ,En2
 .byte   N11 ,An4
 .byte   W12
 .byte   N05 ,Gn4
 .byte   W06
 .byte   N11 ,En4
 .byte   W12
 .byte   Dn4
 .byte   W12
 .byte   Ds4
 .byte   W12
 .byte   N05 ,En4
 .byte   W06
 .byte   Dn4
 .byte   W06
 .byte   Cn4
 .byte   W12
 .byte   An3
 .byte   W06
 .byte   N11 ,Cn4
 .byte   W12
 .byte   PEND 
@ 061   ----------------------------------------
Label_6_014DCB6B:
 .byte   N90 ,An1 ,v080
 .byte   N90 ,En2
 .byte   W06
 .byte   N17 ,An3
 .byte   W18
 .byte   Cn4
 .byte   W18
 .byte   Dn4
 .byte   W18
 .byte   En4
 .byte   W18
 .byte   N11 ,Dn4
 .byte   W12
 .byte   N17 ,An3
 .byte   W06
 .byte   PEND 
@ 062   ----------------------------------------
Label_6_014DCB81:
 .byte   N90 ,An1 ,v080
 .byte   N90 ,En2
 .byte   W12
 .byte   N17 ,Cn4
 .byte   W18
 .byte   Dn4
 .byte   W18
 .byte   Ds4
 .byte   W18
 .byte   Dn4
 .byte   W18
 .byte   N05
 .byte   W06
 .byte   Ds4
 .byte   W06
 .byte   PEND 
@ 063   ----------------------------------------
Label_6_014DCB95:
 .byte   N90 ,An1 ,v080
 .byte   N90 ,En2
 .byte   N05 ,En4
 .byte   W06
 .byte   Gn4
 .byte   W06
 .byte   An4
 .byte   W06
 .byte   En4
 .byte   W06
 .byte   Dn5
 .byte   W06
 .byte   N11 ,An4
 .byte   W12
 .byte   Ds5
 .byte   W12
 .byte   N05
 .byte   W06
 .byte   Dn5
 .byte   W06
 .byte   An4
 .byte   W06
 .byte   Ds5
 .byte   N05 ,An5
 .byte   W06
 .byte   Dn5
 .byte   W06
 .byte   Cn5
 .byte   W06
 .byte   Gn4
 .byte   W06
 .byte   PEND 
@ 064   ----------------------------------------
Label_6_014DCBBB:
 .byte   N11 ,An2 ,v080
 .byte   N11 ,Cn3
 .byte   N11 ,En3
 .byte   N11 ,An3
 .byte   W12
 .byte   An2
 .byte   N11 ,Cn3
 .byte   N11 ,En3
 .byte   N11 ,An3
 .byte   W18
 .byte   An2
 .byte   N11 ,Cn3
 .byte   N11 ,En3
 .byte   N11 ,An3
 .byte   W12
 .byte   An2
 .byte   N11 ,Cn3
 .byte   N11 ,En3
 .byte   N11 ,An3
 .byte   W24
 .byte   An2
 .byte   N11 ,Dn3
 .byte   N11 ,Gn3
 .byte   W12
 .byte   An2
 .byte   N11 ,Dn3
 .byte   N11 ,Gn3
 .byte   W18
 .byte   PEND 
@ 065   ----------------------------------------
 .byte   PATT
  .word Label_6_014DCBBB
@ 066   ----------------------------------------
Label_6_014DCBEF:
 .byte   N11 ,An2 ,v080
 .byte   N11 ,Cn3
 .byte   N11 ,En3
 .byte   N11 ,An3
 .byte   W12
 .byte   An2
 .byte   N11 ,Cn3
 .byte   N11 ,En3
 .byte   N11 ,An3
 .byte   W18
 .byte   An2
 .byte   N11 ,Cn3
 .byte   N11 ,En3
 .byte   N11 ,An3
 .byte   W12
 .byte   An2
 .byte   N11 ,Cn3
 .byte   N11 ,En3
 .byte   N11 ,An3
 .byte   W06
 .byte   N05 ,En4
 .byte   W06
 .byte   En5
 .byte   W06
 .byte   En4
 .byte   W06
 .byte   N11 ,An2
 .byte   N11 ,Dn3
 .byte   N11 ,Gn3
 .byte   W12
 .byte   An2
 .byte   N11 ,Dn3
 .byte   N11 ,Gn3
 .byte   W18
 .byte   PEND 
@ 067   ----------------------------------------
 .byte   PATT
  .word Label_6_014DCBBB
@ 068   ----------------------------------------
 .byte   PATT
  .word Label_6_014DCBBB
@ 069   ----------------------------------------
 .byte   PATT
  .word Label_6_014DCBBB
@ 070   ----------------------------------------
 .byte   PATT
  .word Label_6_014DCBEF
@ 071   ----------------------------------------
 .byte   PATT
  .word Label_6_014DCBBB
@ 072   ----------------------------------------
 .byte   W96
@ 073   ----------------------------------------
 .byte   W96
@ 074   ----------------------------------------
 .byte   W96
@ 075   ----------------------------------------
 .byte   W96
@ 076   ----------------------------------------
 .byte   W96
@ 077   ----------------------------------------
 .byte   W96
@ 078   ----------------------------------------
 .byte   W96
@ 079   ----------------------------------------
 .byte   W96
@ 080   ----------------------------------------
 .byte   PATT
  .word Label_6_014DC92D
@ 081   ----------------------------------------
 .byte   PATT
  .word Label_6_014DC92D
@ 082   ----------------------------------------
 .byte   PATT
  .word Label_6_014DC92D
@ 083   ----------------------------------------
 .byte   PATT
  .word Label_6_014DC92D
@ 084   ----------------------------------------
 .byte   PATT
  .word Label_6_014DC92D
@ 085   ----------------------------------------
 .byte   PATT
  .word Label_6_014DC92D
@ 086   ----------------------------------------
 .byte   PATT
  .word Label_6_014DC92D
@ 087   ----------------------------------------
 .byte   PATT
  .word Label_6_014DC92D
@ 088   ----------------------------------------
 .byte   W96
@ 089   ----------------------------------------
 .byte   W96
@ 090   ----------------------------------------
 .byte   W96
@ 091   ----------------------------------------
 .byte   PATT
  .word Label_6_014DC963
@ 092   ----------------------------------------
 .byte   N90 ,Gn3 ,v080
 .byte   N90 ,Gn4
 .byte   W96
@ 093   ----------------------------------------
 .byte   W96
@ 094   ----------------------------------------
 .byte   W96
@ 095   ----------------------------------------
 .byte   PATT
  .word Label_6_014DC980
@ 096   ----------------------------------------
 .byte   PATT
  .word Label_6_014DC991
@ 097   ----------------------------------------
 .byte   PATT
  .word Label_6_014DC92D
@ 098   ----------------------------------------
 .byte   PATT
  .word Label_6_014DC92D
@ 099   ----------------------------------------
 .byte   PATT
  .word Label_6_014DC92D
@ 100   ----------------------------------------
 .byte   PATT
  .word Label_6_014DC92D
@ 101   ----------------------------------------
 .byte   PATT
  .word Label_6_014DC92D
@ 102   ----------------------------------------
 .byte   PATT
  .word Label_6_014DC92D
@ 103   ----------------------------------------
 .byte   PATT
  .word Label_6_014DC9BF
@ 104   ----------------------------------------
 .byte   W96
@ 105   ----------------------------------------
 .byte   W96
@ 106   ----------------------------------------
 .byte   W96
@ 107   ----------------------------------------
 .byte   W96
@ 108   ----------------------------------------
 .byte   PATT
  .word Label_6_014DC9D3
@ 109   ----------------------------------------
 .byte   W96
@ 110   ----------------------------------------
 .byte   W96
@ 111   ----------------------------------------
 .byte   W96
@ 112   ----------------------------------------
 .byte   W96
@ 113   ----------------------------------------
 .byte   W96
@ 114   ----------------------------------------
 .byte   W96
@ 115   ----------------------------------------
 .byte   PATT
  .word Label_6_014DC9EA
@ 116   ----------------------------------------
 .byte   PATT
  .word Label_6_014DC9D3
@ 117   ----------------------------------------
 .byte   W96
@ 118   ----------------------------------------
 .byte   W96
@ 119   ----------------------------------------
 .byte   W96
@ 120   ----------------------------------------
 .byte   PATT
  .word Label_6_014DC9FD
@ 121   ----------------------------------------
 .byte   PATT
  .word Label_6_014DCA19
@ 122   ----------------------------------------
 .byte   PATT
  .word Label_6_014DCA39
@ 123   ----------------------------------------
 .byte   PATT
  .word Label_6_014DCA58
@ 124   ----------------------------------------
 .byte   PATT
  .word Label_6_014DCA77
@ 125   ----------------------------------------
 .byte   PATT
  .word Label_6_014DCA84
@ 126   ----------------------------------------
 .byte   PATT
  .word Label_6_014DCA99
@ 127   ----------------------------------------
 .byte   PATT
  .word Label_6_014DCAB1
@ 128   ----------------------------------------
 .byte   PATT
  .word Label_6_014DCAD4
@ 129   ----------------------------------------
 .byte   PATT
  .word Label_6_014DCAED
@ 130   ----------------------------------------
 .byte   PATT
  .word Label_6_014DCB09
@ 131   ----------------------------------------
 .byte   PATT
  .word Label_6_014DCB27
@ 132   ----------------------------------------
 .byte   PATT
  .word Label_6_014DCB4C
@ 133   ----------------------------------------
 .byte   PATT
  .word Label_6_014DCB6B
@ 134   ----------------------------------------
 .byte   PATT
  .word Label_6_014DCB81
@ 135   ----------------------------------------
 .byte   PATT
  .word Label_6_014DCB95
@ 136   ----------------------------------------
 .byte   PATT
  .word Label_6_014DCBBB
@ 137   ----------------------------------------
 .byte   PATT
  .word Label_6_014DCBBB
@ 138   ----------------------------------------
 .byte   PATT
  .word Label_6_014DCBEF
@ 139   ----------------------------------------
 .byte   PATT
  .word Label_6_014DCBBB
@ 140   ----------------------------------------
 .byte   PATT
  .word Label_6_014DCBBB
@ 141   ----------------------------------------
 .byte   PATT
  .word Label_6_014DCBBB
@ 142   ----------------------------------------
 .byte   PATT
  .word Label_6_014DCBEF
@ 143   ----------------------------------------
 .byte   PATT
  .word Label_6_014DCBBB
@ 144   ----------------------------------------
 .byte   W96
@ 145   ----------------------------------------
 .byte   W96
@ 146   ----------------------------------------
 .byte   W96
@ 147   ----------------------------------------
 .byte   W96
@ 148   ----------------------------------------
 .byte   W96
@ 149   ----------------------------------------
 .byte   W96
@ 150   ----------------------------------------
 .byte   W96
@ 151   ----------------------------------------
 .byte   W92
 .byte   W03
 .byte   GOTO
  .word Label_6_014DC92D
 .byte   FINE

@**************** Track 8 (Midi-Chn.7) ****************@

song25_008:
@ 000   ----------------------------------------
 .byte   KEYSH , song25_key+0
 .byte   VOICE , 34
 .byte   VOL , 32*song25_mvl/mxv
 .byte   PAN , c_v+0
 .byte   W48
 .byte   W96
@ 001   ----------------------------------------
 .byte   W96
@ 002   ----------------------------------------
 .byte   W96
@ 003   ----------------------------------------
 .byte   W96
@ 004   ----------------------------------------
 .byte   W96
@ 005   ----------------------------------------
 .byte   W96
@ 006   ----------------------------------------
 .byte   W96
@ 007   ----------------------------------------
Label_7_014DCD60:
 .byte   W36
 .byte   N11 ,Cs1 ,v080
 .byte   W12
 .byte   Cn1
 .byte   W24
 .byte   Dn1
 .byte   W12
 .byte   N11
 .byte   W12
 .byte   PEND 
@ 008   ----------------------------------------
Label_7_014DCD6C:
 .byte   N11 ,Gn0 ,v080
 .byte   W12
 .byte   Gn1
 .byte   W12
 .byte   Gn0
 .byte   W12
 .byte   Cn1
 .byte   W12
 .byte   N23 ,Ds1
 .byte   W24
 .byte   Dn1
 .byte   W24
 .byte   PEND 
@ 009   ----------------------------------------
Label_7_014DCD7C:
 .byte   N11 ,Gn0 ,v080
 .byte   W12
 .byte   Gn1
 .byte   W12
 .byte   Gn0
 .byte   W12
 .byte   Cn1
 .byte   W12
 .byte   N05 ,Ds1
 .byte   W12
 .byte   N11
 .byte   W12
 .byte   N23 ,Dn1
 .byte   W24
 .byte   PEND 
@ 010   ----------------------------------------
 .byte   PATT
  .word Label_7_014DCD6C
@ 011   ----------------------------------------
 .byte   PATT
  .word Label_7_014DCD7C
@ 012   ----------------------------------------
 .byte   PATT
  .word Label_7_014DCD6C
@ 013   ----------------------------------------
 .byte   PATT
  .word Label_7_014DCD7C
@ 014   ----------------------------------------
 .byte   PATT
  .word Label_7_014DCD6C
@ 015   ----------------------------------------
 .byte   PATT
  .word Label_7_014DCD7C
@ 016   ----------------------------------------
 .byte   PATT
  .word Label_7_014DCD6C
@ 017   ----------------------------------------
 .byte   PATT
  .word Label_7_014DCD7C
@ 018   ----------------------------------------
 .byte   PATT
  .word Label_7_014DCD6C
@ 019   ----------------------------------------
Label_7_014DCDBC:
 .byte   N11 ,Gn0 ,v080
 .byte   W12
 .byte   Gn1
 .byte   W12
 .byte   Gn0
 .byte   W12
 .byte   Cn1
 .byte   W12
 .byte   N05 ,Cs1
 .byte   W12
 .byte   N11
 .byte   W12
 .byte   Cn1
 .byte   W12
 .byte   As0
 .byte   W12
 .byte   PEND 
@ 020   ----------------------------------------
 .byte   PATT
  .word Label_7_014DCD6C
@ 021   ----------------------------------------
 .byte   PATT
  .word Label_7_014DCD7C
@ 022   ----------------------------------------
 .byte   PATT
  .word Label_7_014DCD6C
@ 023   ----------------------------------------
 .byte   PATT
  .word Label_7_014DCDBC
@ 024   ----------------------------------------
 .byte   PATT
  .word Label_7_014DCD6C
@ 025   ----------------------------------------
 .byte   PATT
  .word Label_7_014DCD7C
@ 026   ----------------------------------------
 .byte   PATT
  .word Label_7_014DCD6C
@ 027   ----------------------------------------
 .byte   PATT
  .word Label_7_014DCDBC
@ 028   ----------------------------------------
 .byte   PATT
  .word Label_7_014DCD6C
@ 029   ----------------------------------------
 .byte   PATT
  .word Label_7_014DCD7C
@ 030   ----------------------------------------
 .byte   PATT
  .word Label_7_014DCD6C
@ 031   ----------------------------------------
 .byte   PATT
  .word Label_7_014DCDBC
@ 032   ----------------------------------------
 .byte   N92 ,Gn0 ,v080
 .byte   W96
@ 033   ----------------------------------------
 .byte   W96
@ 034   ----------------------------------------
 .byte   W96
@ 035   ----------------------------------------
 .byte   W96
@ 036   ----------------------------------------
 .byte   W96
@ 037   ----------------------------------------
 .byte   W96
@ 038   ----------------------------------------
 .byte   W96
@ 039   ----------------------------------------
 .byte   W96
@ 040   ----------------------------------------
Label_7_014DCE17:
 .byte   N17 ,Gn0 ,v080
 .byte   W18
 .byte   N11
 .byte   W18
 .byte   N17
 .byte   W18
 .byte   N11
 .byte   W42
 .byte   PEND 
@ 041   ----------------------------------------
 .byte   PATT
  .word Label_7_014DCE17
@ 042   ----------------------------------------
 .byte   PATT
  .word Label_7_014DCE17
@ 043   ----------------------------------------
 .byte   PATT
  .word Label_7_014DCE17
@ 044   ----------------------------------------
 .byte   PATT
  .word Label_7_014DCE17
@ 045   ----------------------------------------
 .byte   PATT
  .word Label_7_014DCE17
@ 046   ----------------------------------------
 .byte   PATT
  .word Label_7_014DCE17
@ 047   ----------------------------------------
 .byte   PATT
  .word Label_7_014DCE17
@ 048   ----------------------------------------
Label_7_014DCE45:
 .byte   N11 ,An0 ,v080
 .byte   W12
 .byte   An1
 .byte   W12
 .byte   An0
 .byte   W12
 .byte   Dn1
 .byte   W12
 .byte   N23 ,Fn1
 .byte   W24
 .byte   En1
 .byte   W24
 .byte   PEND 
@ 049   ----------------------------------------
Label_7_014DCE55:
 .byte   N11 ,An0 ,v080
 .byte   W12
 .byte   An1
 .byte   W12
 .byte   An0
 .byte   W12
 .byte   Dn1
 .byte   W12
 .byte   N05 ,Fn1
 .byte   W12
 .byte   N11
 .byte   W12
 .byte   N23 ,En1
 .byte   W24
 .byte   PEND 
@ 050   ----------------------------------------
 .byte   PATT
  .word Label_7_014DCE45
@ 051   ----------------------------------------
Label_7_014DCE6D:
 .byte   N11 ,An0 ,v080
 .byte   W12
 .byte   An1
 .byte   W12
 .byte   An0
 .byte   W12
 .byte   Dn1
 .byte   W12
 .byte   N05 ,Ds1
 .byte   W12
 .byte   N11
 .byte   W12
 .byte   Dn1
 .byte   W12
 .byte   Cn1
 .byte   W12
 .byte   PEND 
@ 052   ----------------------------------------
 .byte   PATT
  .word Label_7_014DCE45
@ 053   ----------------------------------------
 .byte   PATT
  .word Label_7_014DCE55
@ 054   ----------------------------------------
 .byte   PATT
  .word Label_7_014DCE45
@ 055   ----------------------------------------
 .byte   PATT
  .word Label_7_014DCE6D
@ 056   ----------------------------------------
 .byte   PATT
  .word Label_7_014DCE45
@ 057   ----------------------------------------
 .byte   PATT
  .word Label_7_014DCE55
@ 058   ----------------------------------------
 .byte   PATT
  .word Label_7_014DCE45
@ 059   ----------------------------------------
 .byte   PATT
  .word Label_7_014DCE6D
@ 060   ----------------------------------------
 .byte   PATT
  .word Label_7_014DCE45
@ 061   ----------------------------------------
 .byte   PATT
  .word Label_7_014DCE55
@ 062   ----------------------------------------
 .byte   PATT
  .word Label_7_014DCE45
@ 063   ----------------------------------------
 .byte   PATT
  .word Label_7_014DCE6D
@ 064   ----------------------------------------
 .byte   W96
@ 065   ----------------------------------------
 .byte   W96
@ 066   ----------------------------------------
 .byte   W96
@ 067   ----------------------------------------
 .byte   W96
@ 068   ----------------------------------------
 .byte   W96
@ 069   ----------------------------------------
 .byte   W96
@ 070   ----------------------------------------
 .byte   W96
@ 071   ----------------------------------------
 .byte   W96
@ 072   ----------------------------------------
 .byte   W96
@ 073   ----------------------------------------
 .byte   W96
@ 074   ----------------------------------------
 .byte   W96
@ 075   ----------------------------------------
 .byte   W96
@ 076   ----------------------------------------
 .byte   W96
@ 077   ----------------------------------------
 .byte   W96
@ 078   ----------------------------------------
 .byte   W96
@ 079   ----------------------------------------
 .byte   PATT
  .word Label_7_014DCD60
@ 080   ----------------------------------------
 .byte   PATT
  .word Label_7_014DCD6C
@ 081   ----------------------------------------
 .byte   PATT
  .word Label_7_014DCD7C
@ 082   ----------------------------------------
 .byte   PATT
  .word Label_7_014DCD6C
@ 083   ----------------------------------------
 .byte   PATT
  .word Label_7_014DCD7C
@ 084   ----------------------------------------
 .byte   PATT
  .word Label_7_014DCD6C
@ 085   ----------------------------------------
 .byte   PATT
  .word Label_7_014DCD7C
@ 086   ----------------------------------------
 .byte   PATT
  .word Label_7_014DCD6C
@ 087   ----------------------------------------
 .byte   PATT
  .word Label_7_014DCD7C
@ 088   ----------------------------------------
 .byte   PATT
  .word Label_7_014DCD6C
@ 089   ----------------------------------------
 .byte   PATT
  .word Label_7_014DCD7C
@ 090   ----------------------------------------
 .byte   PATT
  .word Label_7_014DCD6C
@ 091   ----------------------------------------
 .byte   PATT
  .word Label_7_014DCDBC
@ 092   ----------------------------------------
 .byte   PATT
  .word Label_7_014DCD6C
@ 093   ----------------------------------------
 .byte   PATT
  .word Label_7_014DCD7C
@ 094   ----------------------------------------
 .byte   PATT
  .word Label_7_014DCD6C
@ 095   ----------------------------------------
 .byte   PATT
  .word Label_7_014DCDBC
@ 096   ----------------------------------------
 .byte   PATT
  .word Label_7_014DCD6C
@ 097   ----------------------------------------
 .byte   PATT
  .word Label_7_014DCD7C
@ 098   ----------------------------------------
 .byte   PATT
  .word Label_7_014DCD6C
@ 099   ----------------------------------------
 .byte   PATT
  .word Label_7_014DCDBC
@ 100   ----------------------------------------
 .byte   PATT
  .word Label_7_014DCD6C
@ 101   ----------------------------------------
 .byte   PATT
  .word Label_7_014DCD7C
@ 102   ----------------------------------------
 .byte   PATT
  .word Label_7_014DCD6C
@ 103   ----------------------------------------
 .byte   PATT
  .word Label_7_014DCDBC
@ 104   ----------------------------------------
 .byte   N92 ,Gn0 ,v080
 .byte   W96
@ 105   ----------------------------------------
 .byte   W96
@ 106   ----------------------------------------
 .byte   W96
@ 107   ----------------------------------------
 .byte   W96
@ 108   ----------------------------------------
 .byte   W96
@ 109   ----------------------------------------
 .byte   W96
@ 110   ----------------------------------------
 .byte   W96
@ 111   ----------------------------------------
 .byte   W96
@ 112   ----------------------------------------
 .byte   PATT
  .word Label_7_014DCE17
@ 113   ----------------------------------------
 .byte   PATT
  .word Label_7_014DCE17
@ 114   ----------------------------------------
 .byte   PATT
  .word Label_7_014DCE17
@ 115   ----------------------------------------
 .byte   PATT
  .word Label_7_014DCE17
@ 116   ----------------------------------------
 .byte   PATT
  .word Label_7_014DCE17
@ 117   ----------------------------------------
 .byte   PATT
  .word Label_7_014DCE17
@ 118   ----------------------------------------
 .byte   PATT
  .word Label_7_014DCE17
@ 119   ----------------------------------------
 .byte   PATT
  .word Label_7_014DCE17
@ 120   ----------------------------------------
 .byte   PATT
  .word Label_7_014DCE45
@ 121   ----------------------------------------
 .byte   PATT
  .word Label_7_014DCE55
@ 122   ----------------------------------------
 .byte   PATT
  .word Label_7_014DCE45
@ 123   ----------------------------------------
 .byte   PATT
  .word Label_7_014DCE6D
@ 124   ----------------------------------------
 .byte   PATT
  .word Label_7_014DCE45
@ 125   ----------------------------------------
 .byte   PATT
  .word Label_7_014DCE55
@ 126   ----------------------------------------
 .byte   PATT
  .word Label_7_014DCE45
@ 127   ----------------------------------------
 .byte   PATT
  .word Label_7_014DCE6D
@ 128   ----------------------------------------
 .byte   PATT
  .word Label_7_014DCE45
@ 129   ----------------------------------------
 .byte   PATT
  .word Label_7_014DCE55
@ 130   ----------------------------------------
 .byte   PATT
  .word Label_7_014DCE45
@ 131   ----------------------------------------
 .byte   PATT
  .word Label_7_014DCE6D
@ 132   ----------------------------------------
 .byte   PATT
  .word Label_7_014DCE45
@ 133   ----------------------------------------
 .byte   PATT
  .word Label_7_014DCE55
@ 134   ----------------------------------------
 .byte   PATT
  .word Label_7_014DCE45
@ 135   ----------------------------------------
 .byte   PATT
  .word Label_7_014DCE6D
@ 136   ----------------------------------------
 .byte   W96
@ 137   ----------------------------------------
 .byte   W96
@ 138   ----------------------------------------
 .byte   W96
@ 139   ----------------------------------------
 .byte   W96
@ 140   ----------------------------------------
 .byte   W96
@ 141   ----------------------------------------
 .byte   W96
@ 142   ----------------------------------------
 .byte   W96
@ 143   ----------------------------------------
 .byte   W96
@ 144   ----------------------------------------
 .byte   W96
@ 145   ----------------------------------------
 .byte   W96
@ 146   ----------------------------------------
 .byte   W96
@ 147   ----------------------------------------
 .byte   W96
@ 148   ----------------------------------------
 .byte   W96
@ 149   ----------------------------------------
 .byte   W96
@ 150   ----------------------------------------
 .byte   W96
@ 151   ----------------------------------------
 .byte   W36
 .byte   N11 ,Cs1 ,v080
 .byte   W12
 .byte   Cn1
 .byte   W24
 .byte   Dn1
 .byte   W12
 .byte   N11
 .byte   W11
 .byte   GOTO
  .word Label_7_014DCD6C
 .byte   FINE

@******************************************************@
	.align	2

song25:
	.byte	8	@ NumTrks
	.byte	0	@ NumBlks
	.byte	song25_pri	@ Priority
	.byte	song25_rev	@ Reverb.
    
	.word	song25_grp
    
	.word	song25_001
	.word	song25_002
	.word	song25_003
	.word	song25_004
	.word	song25_005
	.word	song25_006
	.word	song25_007
	.word	song25_008

	.end
