	.include "MPlayDef.s"

	.equ	DDLC_grp, voicegroup000
	.equ	DDLC_pri, 0
	.equ	DDLC_rev, 0
	.equ	DDLC_mvl, 40
	.equ	DDLC_key, 0
	.equ	DDLC_tbs, 1
	.equ	DDLC_exg, 0
	.equ	DDLC_cmp, 1

	.section .rodata
	.global	DDLC
	.align	2

@**************** Track 1 (Midi-Chn.1) ****************@

DDLC_1:
	.byte	KEYSH , DDLC_key+0
@ 000   ----------------------------------------
	.byte	TEMPO , 120*DDLC_tbs/2
	.byte		VOICE , 45
	.byte		VOL   , 63*DDLC_mvl/mxv
	.byte		PAN   , c_v+0
	.byte		BEND  , c_v+0
	.byte		N12   , Cn3 , v100
	.byte	W12
	.byte		        En3 
	.byte		N12   , Gn3 
	.byte	W24
	.byte		        Cn3 
	.byte	W12
	.byte		        An2 
	.byte	W12
DDLC_1_B1:
	.byte		N12   , Cn3 , v100
	.byte		N12   , En3 
	.byte	W24
	.byte		        An2 
	.byte	W12
@ 001   ----------------------------------------
DDLC_1_001:
	.byte		N12   , Fn2 , v100
	.byte	W12
	.byte		        An2 
	.byte		N12   , Cn3 
	.byte	W24
	.byte		        Fn2 
	.byte	W12
	.byte		        Gn2 
	.byte	W12
	.byte		        Bn2 
	.byte		N12   , Dn3 
	.byte	W24
	.byte		        Gn2 
	.byte	W12
	.byte	PEND
@ 002   ----------------------------------------
DDLC_1_002:
	.byte		N12   , Cn3 , v100
	.byte	W12
	.byte		        En3 
	.byte		N12   , Gn3 
	.byte	W24
	.byte		        Cn3 
	.byte	W12
	.byte		        An2 
	.byte	W12
	.byte		        Cn3 
	.byte		N12   , En3 
	.byte	W24
	.byte		        An2 
	.byte	W12
	.byte	PEND
@ 003   ----------------------------------------
	.byte	PATT
	 .word	DDLC_1_001
@ 004   ----------------------------------------
	.byte	PATT
	 .word	DDLC_1_002
@ 005   ----------------------------------------
	.byte	PATT
	 .word	DDLC_1_001
@ 006   ----------------------------------------
	.byte	PATT
	 .word	DDLC_1_002
@ 007   ----------------------------------------
	.byte	PATT
	 .word	DDLC_1_001
@ 008   ----------------------------------------
	.byte	PATT
	 .word	DDLC_1_002
@ 009   ----------------------------------------
	.byte	PATT
	 .word	DDLC_1_001
@ 010   ----------------------------------------
	.byte	PATT
	 .word	DDLC_1_002
@ 011   ----------------------------------------
	.byte	PATT
	 .word	DDLC_1_001
@ 012   ----------------------------------------
	.byte	PATT
	 .word	DDLC_1_002
@ 013   ----------------------------------------
	.byte	PATT
	 .word	DDLC_1_001
@ 014   ----------------------------------------
	.byte	PATT
	 .word	DDLC_1_002
@ 015   ----------------------------------------
	.byte	PATT
	 .word	DDLC_1_001
@ 016   ----------------------------------------
	.byte	PATT
	 .word	DDLC_1_002
@ 017   ----------------------------------------
	.byte	PATT
	 .word	DDLC_1_001
@ 018   ----------------------------------------
	.byte	PATT
	 .word	DDLC_1_002
@ 019   ----------------------------------------
	.byte	PATT
	 .word	DDLC_1_001
@ 020   ----------------------------------------
	.byte	PATT
	 .word	DDLC_1_002
@ 021   ----------------------------------------
	.byte	PATT
	 .word	DDLC_1_001
@ 022   ----------------------------------------
	.byte	PATT
	 .word	DDLC_1_002
@ 023   ----------------------------------------
	.byte	PATT
	 .word	DDLC_1_001
@ 024   ----------------------------------------
	.byte	PATT
	 .word	DDLC_1_002
@ 025   ----------------------------------------
	.byte	PATT
	 .word	DDLC_1_001
@ 026   ----------------------------------------
	.byte	PATT
	 .word	DDLC_1_002
@ 027   ----------------------------------------
	.byte	PATT
	 .word	DDLC_1_001
@ 028   ----------------------------------------
	.byte	PATT
	 .word	DDLC_1_002
@ 029   ----------------------------------------
	.byte	PATT
	 .word	DDLC_1_001
@ 030   ----------------------------------------
	.byte	PATT
	 .word	DDLC_1_002
@ 031   ----------------------------------------
	.byte	PATT
	 .word	DDLC_1_001
@ 032   ----------------------------------------
	.byte	W96
@ 033   ----------------------------------------
	.byte	PATT
	 .word	DDLC_1_001
@ 034   ----------------------------------------
	.byte	PATT
	 .word	DDLC_1_002
@ 035   ----------------------------------------
	.byte	PATT
	 .word	DDLC_1_001
@ 036   ----------------------------------------
	.byte	PATT
	 .word	DDLC_1_002
@ 037   ----------------------------------------
	.byte	PATT
	 .word	DDLC_1_001
@ 038   ----------------------------------------
	.byte	PATT
	 .word	DDLC_1_002
@ 039   ----------------------------------------
	.byte		N12   , Ds3 , v100
	.byte	W12
	.byte		        Gs3 
	.byte		N12   , Cn4 
	.byte	W24
	.byte		        Ds3 
	.byte	W12
	.byte		        Fn3 
	.byte	W12
	.byte		        As3 
	.byte		N12   , Dn4 
	.byte	W24
	.byte		        Fn3 
	.byte	W12
@ 040   ----------------------------------------
	.byte	PATT
	 .word	DDLC_1_001
@ 041   ----------------------------------------
	.byte		N12   , Fn2 , v100
	.byte	W12
	.byte		        An2 
	.byte		N12   , Cn3 
	.byte	W24
	.byte		        Fn2 
	.byte	W12
	.byte		        Gn2 
	.byte	W12
	.byte		        Dn3 
	.byte		N12   , Gn3 
	.byte	W24
	.byte		        Gn2 
	.byte	W12
@ 042   ----------------------------------------
	.byte	PATT
	 .word	DDLC_1_002
@ 043   ----------------------------------------
	.byte	PATT
	 .word	DDLC_1_001
@ 044   ----------------------------------------
	.byte	PATT
	 .word	DDLC_1_002
@ 045   ----------------------------------------
	.byte	PATT
	 .word	DDLC_1_001
@ 046   ----------------------------------------
	.byte	PATT
	 .word	DDLC_1_002
@ 047   ----------------------------------------
	.byte	PATT
	 .word	DDLC_1_001
@ 048   ----------------------------------------
	.byte	PATT
	 .word	DDLC_1_002
@ 049   ----------------------------------------
	.byte	PATT
	 .word	DDLC_1_001
@ 050   ----------------------------------------
	.byte	W96
@ 051   ----------------------------------------
	.byte	W96
@ 052   ----------------------------------------
	.byte	W96
@ 053   ----------------------------------------
	.byte	W96
@ 054   ----------------------------------------
	.byte	PATT
	 .word	DDLC_1_002
@ 055   ----------------------------------------
	.byte	PATT
	 .word	DDLC_1_001
@ 056   ----------------------------------------
	.byte	PATT
	 .word	DDLC_1_002
@ 057   ----------------------------------------
	.byte	PATT
	 .word	DDLC_1_001
@ 058   ----------------------------------------
DDLC_1_058:
	.byte		N12   , Cn3 , v100
	.byte	W12
	.byte		        En3 
	.byte		N12   , Gn3 
	.byte	W24
	.byte		        Cn3 
	.byte	W12
	.byte		        An2 
	.byte	W12
	.byte	PEND
	.byte	GOTO
	 .word	DDLC_1_B1
DDLC_1_B2:
	.byte		N12   , Cn3 , v100
	.byte		N12   , En3 
	.byte	W24
	.byte		        An2 
	.byte	W12
@ 059   ----------------------------------------
	.byte	PATT
	 .word	DDLC_1_001
@ 060   ----------------------------------------
	.byte	PATT
	 .word	DDLC_1_058
	.byte	FINE

@**************** Track 2 (Midi-Chn.2) ****************@

DDLC_2:
	.byte	KEYSH , DDLC_key+0
@ 000   ----------------------------------------
	.byte		VOICE , 79
	.byte		VOL   , 42*DDLC_mvl/mxv
	.byte		PAN   , c_v-1
	.byte		BEND  , c_v+0
	.byte	W24
	.byte		N09   , Gn5 , v100
	.byte	W12
	.byte		N09   
	.byte	W12
	.byte		N24   
	.byte	W12
DDLC_2_B1:
	.byte	W24
	.byte		N06   , Gn5 , v100
	.byte	W06
	.byte		        Fn5 
	.byte	W06
@ 001   ----------------------------------------
DDLC_2_001:
	.byte		N18   , En5 , v100
	.byte	W18
	.byte		N06   , Fn5 
	.byte	W06
	.byte		N12   , Gn5 
	.byte	W12
	.byte		        En5 
	.byte	W12
	.byte		N24   , Dn5 
	.byte	W24
	.byte		N12   , Cn5 
	.byte	W12
	.byte		        Dn5 
	.byte	W12
	.byte	PEND
@ 002   ----------------------------------------
DDLC_2_002:
	.byte		N12   , En5 , v100
	.byte	W12
	.byte		        Cn5 
	.byte	W12
	.byte		N24   , Gn4 
	.byte	W72
	.byte	PEND
@ 003   ----------------------------------------
	.byte	W96
@ 004   ----------------------------------------
	.byte	W96
@ 005   ----------------------------------------
	.byte	W96
@ 006   ----------------------------------------
	.byte	W96
@ 007   ----------------------------------------
	.byte	W96
@ 008   ----------------------------------------
	.byte	W24
	.byte		N09   , Gn5 
	.byte	W12
	.byte		N09   
	.byte	W12
	.byte		N24   
	.byte	W36
	.byte		N06   
	.byte	W06
	.byte		        Fn5 
	.byte	W06
@ 009   ----------------------------------------
	.byte	PATT
	 .word	DDLC_2_001
@ 010   ----------------------------------------
	.byte	PATT
	 .word	DDLC_2_002
@ 011   ----------------------------------------
	.byte	W96
@ 012   ----------------------------------------
	.byte	W24
	.byte		N09   , Gn5 , v100
	.byte	W12
	.byte		        An5 
	.byte	W12
	.byte		N21   , Gn5 
	.byte	W36
	.byte		N06   , En5 
	.byte	W06
	.byte		        Fn5 
	.byte	W06
@ 013   ----------------------------------------
	.byte		N12   , Gn5 
	.byte	W12
	.byte		N06   , Fn5 
	.byte	W06
	.byte		        En5 
	.byte	W06
	.byte		N12   , Dn5 
	.byte	W12
	.byte		        An4 
	.byte	W12
	.byte		        Gn4 
	.byte	W24
	.byte		        Fn4 
	.byte	W12
	.byte		        An4 
	.byte	W12
@ 014   ----------------------------------------
	.byte		        Gn4 
	.byte	W12
	.byte		        En5 
	.byte	W12
	.byte		N24   , Cn5 
	.byte	W72
@ 015   ----------------------------------------
	.byte	W96
@ 016   ----------------------------------------
	.byte	W96
@ 017   ----------------------------------------
	.byte	W96
@ 018   ----------------------------------------
	.byte	W96
@ 019   ----------------------------------------
	.byte	W96
@ 020   ----------------------------------------
	.byte	W96
@ 021   ----------------------------------------
	.byte	W96
@ 022   ----------------------------------------
	.byte	W96
@ 023   ----------------------------------------
	.byte	W96
@ 024   ----------------------------------------
	.byte	W96
@ 025   ----------------------------------------
	.byte	W96
@ 026   ----------------------------------------
	.byte	W96
@ 027   ----------------------------------------
	.byte	W96
@ 028   ----------------------------------------
	.byte	W96
@ 029   ----------------------------------------
	.byte	W96
@ 030   ----------------------------------------
	.byte	W96
@ 031   ----------------------------------------
	.byte	W96
@ 032   ----------------------------------------
	.byte	W96
@ 033   ----------------------------------------
	.byte	W96
@ 034   ----------------------------------------
	.byte	W96
@ 035   ----------------------------------------
	.byte	W96
@ 036   ----------------------------------------
	.byte	W96
@ 037   ----------------------------------------
	.byte	W96
@ 038   ----------------------------------------
	.byte	W96
@ 039   ----------------------------------------
	.byte	W96
@ 040   ----------------------------------------
	.byte	W96
@ 041   ----------------------------------------
	.byte	W96
@ 042   ----------------------------------------
	.byte	W96
@ 043   ----------------------------------------
	.byte	W96
@ 044   ----------------------------------------
	.byte	W96
@ 045   ----------------------------------------
	.byte	W96
@ 046   ----------------------------------------
	.byte	W96
@ 047   ----------------------------------------
	.byte	W96
@ 048   ----------------------------------------
	.byte	W96
@ 049   ----------------------------------------
	.byte	W96
@ 050   ----------------------------------------
	.byte	W96
@ 051   ----------------------------------------
	.byte	W96
@ 052   ----------------------------------------
	.byte	W96
@ 053   ----------------------------------------
	.byte	W96
@ 054   ----------------------------------------
	.byte	W96
@ 055   ----------------------------------------
	.byte	W96
@ 056   ----------------------------------------
	.byte	W96
@ 057   ----------------------------------------
	.byte	W96
@ 058   ----------------------------------------
	.byte	W24
	.byte		N09   , Gn5 
	.byte	W12
	.byte		N09   
	.byte	W12
	.byte		N24   
	.byte	W12
	.byte	GOTO
	 .word	DDLC_2_B1
DDLC_2_B2:
	.byte	W24
	.byte		N06   , Gn5 , v100
	.byte	W06
	.byte		        Fn5 
	.byte	W06
@ 059   ----------------------------------------
	.byte	PATT
	 .word	DDLC_2_001
@ 060   ----------------------------------------
	.byte		N12   , En5 , v100
	.byte	W12
	.byte		        Cn5 
	.byte	W12
	.byte		N24   , Gn4 
	.byte	W36
	.byte	FINE

@**************** Track 3 (Midi-Chn.3) ****************@

DDLC_3:
	.byte	KEYSH , DDLC_key+0
@ 000   ----------------------------------------
	.byte		VOICE , 46
	.byte		VOL   , 63*DDLC_mvl/mxv
	.byte		PAN   , c_v+0
	.byte		BEND  , c_v+0
	.byte	W60
DDLC_3_B1:
	.byte	W36
@ 001   ----------------------------------------
	.byte	W96
@ 002   ----------------------------------------
	.byte	W96
@ 003   ----------------------------------------
	.byte		N48   , Cn3 , v048
	.byte		N48   , Gn3 
	.byte		N48   , Cn4 
	.byte	W48
	.byte		        Bn2 , v072
	.byte		N48   , Gn3 
	.byte		N48   , Bn3 
	.byte	W48
@ 004   ----------------------------------------
DDLC_3_004:
	.byte		N48   , Gn3 , v052
	.byte		N48   , Cn4 
	.byte	W48
	.byte		        En3 
	.byte		N48   , An3 
	.byte	W48
	.byte	PEND
@ 005   ----------------------------------------
DDLC_3_005:
	.byte		N48   , Cn3 , v052
	.byte		N48   , Fn3 
	.byte	W48
	.byte		        Dn3 
	.byte		N48   , Gn3 
	.byte	W48
	.byte	PEND
@ 006   ----------------------------------------
DDLC_3_006:
	.byte		N48   , Gn2 , v052
	.byte		N48   , Cn3 
	.byte	W48
	.byte		N48   
	.byte		N48   , Gn3 
	.byte	W48
	.byte	PEND
@ 007   ----------------------------------------
DDLC_3_007:
	.byte		N48   , Cn3 , v052
	.byte		N48   , Fn3 
	.byte	W48
	.byte		        Gn2 
	.byte		N48   , Dn3 
	.byte	W48
	.byte	PEND
@ 008   ----------------------------------------
	.byte		N12   , Gn2 
	.byte		N12   , Cn3 
	.byte	W96
@ 009   ----------------------------------------
	.byte	W96
@ 010   ----------------------------------------
	.byte	W96
@ 011   ----------------------------------------
	.byte	W96
@ 012   ----------------------------------------
	.byte	W96
@ 013   ----------------------------------------
	.byte	W96
@ 014   ----------------------------------------
	.byte	W96
@ 015   ----------------------------------------
	.byte	W96
@ 016   ----------------------------------------
	.byte	PATT
	 .word	DDLC_3_004
@ 017   ----------------------------------------
	.byte	PATT
	 .word	DDLC_3_005
@ 018   ----------------------------------------
	.byte	PATT
	 .word	DDLC_3_006
@ 019   ----------------------------------------
	.byte	PATT
	 .word	DDLC_3_007
@ 020   ----------------------------------------
	.byte	PATT
	 .word	DDLC_3_004
@ 021   ----------------------------------------
	.byte	PATT
	 .word	DDLC_3_005
@ 022   ----------------------------------------
	.byte	PATT
	 .word	DDLC_3_006
@ 023   ----------------------------------------
	.byte	PATT
	 .word	DDLC_3_007
@ 024   ----------------------------------------
	.byte	W96
@ 025   ----------------------------------------
	.byte	W96
@ 026   ----------------------------------------
	.byte	W96
@ 027   ----------------------------------------
	.byte	W96
@ 028   ----------------------------------------
	.byte	W96
@ 029   ----------------------------------------
	.byte	W96
@ 030   ----------------------------------------
	.byte	W96
@ 031   ----------------------------------------
	.byte	W96
@ 032   ----------------------------------------
	.byte	W96
@ 033   ----------------------------------------
	.byte	W96
@ 034   ----------------------------------------
	.byte	W96
@ 035   ----------------------------------------
	.byte	W96
@ 036   ----------------------------------------
	.byte	W96
@ 037   ----------------------------------------
	.byte	W96
@ 038   ----------------------------------------
	.byte	W96
@ 039   ----------------------------------------
	.byte	W96
@ 040   ----------------------------------------
	.byte		N24   , Fn2 , v056
	.byte		N24   , An2 
	.byte	W24
	.byte		N24   
	.byte		N24   , Cn3 
	.byte	W24
	.byte		        An2 
	.byte		N24   , Dn3 
	.byte	W24
	.byte		N24   
	.byte		N24   , Gn3 
	.byte	W24
@ 041   ----------------------------------------
	.byte		        Fn2 
	.byte		N24   , An2 
	.byte	W24
	.byte		        Cn3 
	.byte		N24   , Fn3 
	.byte	W24
	.byte		        Dn3 
	.byte		N24   , Gn3 
	.byte	W24
	.byte		N24   
	.byte		N24   , Bn3 
	.byte	W24
@ 042   ----------------------------------------
	.byte	PATT
	 .word	DDLC_3_004
@ 043   ----------------------------------------
	.byte	PATT
	 .word	DDLC_3_005
@ 044   ----------------------------------------
	.byte	PATT
	 .word	DDLC_3_006
@ 045   ----------------------------------------
	.byte	PATT
	 .word	DDLC_3_007
@ 046   ----------------------------------------
	.byte	PATT
	 .word	DDLC_3_004
@ 047   ----------------------------------------
	.byte	PATT
	 .word	DDLC_3_005
@ 048   ----------------------------------------
	.byte	PATT
	 .word	DDLC_3_006
@ 049   ----------------------------------------
	.byte	PATT
	 .word	DDLC_3_007
@ 050   ----------------------------------------
	.byte	W96
@ 051   ----------------------------------------
	.byte	W96
@ 052   ----------------------------------------
	.byte	W96
@ 053   ----------------------------------------
	.byte	W96
@ 054   ----------------------------------------
	.byte	W96
@ 055   ----------------------------------------
	.byte	W96
@ 056   ----------------------------------------
	.byte	W96
@ 057   ----------------------------------------
	.byte	W96
@ 058   ----------------------------------------
	.byte	W60
	.byte	GOTO
	 .word	DDLC_3_B1
DDLC_3_B2:
	.byte	W36
@ 059   ----------------------------------------
	.byte	W96
@ 060   ----------------------------------------
	.byte	W60
	.byte	FINE

@**************** Track 4 (Midi-Chn.4) ****************@

DDLC_4:
	.byte	KEYSH , DDLC_key+0
@ 000   ----------------------------------------
	.byte		VOICE , 71
	.byte		VOL   , 63*DDLC_mvl/mxv
	.byte		PAN   , c_v+0
	.byte		BEND  , c_v+0
	.byte	W60
DDLC_4_B1:
	.byte	W36
@ 001   ----------------------------------------
	.byte	W96
@ 002   ----------------------------------------
	.byte	W96
@ 003   ----------------------------------------
	.byte	W96
@ 004   ----------------------------------------
	.byte	W96
@ 005   ----------------------------------------
	.byte	W96
@ 006   ----------------------------------------
	.byte	W96
@ 007   ----------------------------------------
	.byte	W96
@ 008   ----------------------------------------
	.byte	W96
@ 009   ----------------------------------------
	.byte	W96
@ 010   ----------------------------------------
DDLC_4_010:
	.byte	W36
	.byte		N06   , Gn3 , v100
	.byte	W06
	.byte		        An3 
	.byte	W06
	.byte		        Gn3 
	.byte	W12
	.byte		N06   
	.byte	W06
	.byte		        An3 
	.byte	W06
	.byte		        Gn3 
	.byte	W12
	.byte		        Cn4 
	.byte	W12
	.byte	PEND
@ 011   ----------------------------------------
	.byte	W24
	.byte		N06   
	.byte	W12
	.byte		        An3 
	.byte	W06
	.byte		        Bn3 
	.byte	W12
	.byte		        Gn3 
	.byte	W06
	.byte		        An3 
	.byte	W12
	.byte		        Bn3 
	.byte	W12
	.byte		        Gn3 
	.byte	W12
@ 012   ----------------------------------------
	.byte	W96
@ 013   ----------------------------------------
	.byte	W96
@ 014   ----------------------------------------
	.byte	PATT
	 .word	DDLC_4_010
@ 015   ----------------------------------------
	.byte	W24
	.byte		N06   , Dn4 , v100
	.byte	W12
	.byte		        An3 
	.byte	W06
	.byte		        Bn3 
	.byte	W12
	.byte		        An3 
	.byte	W06
	.byte		        Bn3 
	.byte	W12
	.byte		        Cn4 
	.byte	W12
	.byte		        Gn3 
	.byte	W12
@ 016   ----------------------------------------
	.byte	W96
@ 017   ----------------------------------------
	.byte	W96
@ 018   ----------------------------------------
	.byte	W96
@ 019   ----------------------------------------
	.byte	W96
@ 020   ----------------------------------------
	.byte	W96
@ 021   ----------------------------------------
	.byte	W96
@ 022   ----------------------------------------
	.byte	W96
@ 023   ----------------------------------------
	.byte	W96
@ 024   ----------------------------------------
	.byte	W96
@ 025   ----------------------------------------
	.byte	W96
@ 026   ----------------------------------------
	.byte	W96
@ 027   ----------------------------------------
	.byte	W96
@ 028   ----------------------------------------
	.byte	W96
@ 029   ----------------------------------------
	.byte	W96
@ 030   ----------------------------------------
	.byte	W96
@ 031   ----------------------------------------
	.byte	W96
@ 032   ----------------------------------------
	.byte	W96
@ 033   ----------------------------------------
	.byte	W96
@ 034   ----------------------------------------
	.byte	W96
@ 035   ----------------------------------------
	.byte	W96
@ 036   ----------------------------------------
	.byte	W96
@ 037   ----------------------------------------
	.byte	W96
@ 038   ----------------------------------------
	.byte	W96
@ 039   ----------------------------------------
	.byte	W96
@ 040   ----------------------------------------
	.byte	W96
@ 041   ----------------------------------------
	.byte	W96
@ 042   ----------------------------------------
	.byte	W96
@ 043   ----------------------------------------
	.byte	W96
@ 044   ----------------------------------------
	.byte	W96
@ 045   ----------------------------------------
	.byte	W96
@ 046   ----------------------------------------
	.byte	W96
@ 047   ----------------------------------------
	.byte	W96
@ 048   ----------------------------------------
	.byte	W96
@ 049   ----------------------------------------
	.byte	W96
@ 050   ----------------------------------------
	.byte	W96
@ 051   ----------------------------------------
	.byte	W96
@ 052   ----------------------------------------
	.byte	W96
@ 053   ----------------------------------------
	.byte	W96
@ 054   ----------------------------------------
	.byte	W96
@ 055   ----------------------------------------
	.byte	W96
@ 056   ----------------------------------------
	.byte	W96
@ 057   ----------------------------------------
	.byte	W96
@ 058   ----------------------------------------
	.byte	W60
	.byte	GOTO
	 .word	DDLC_4_B1
DDLC_4_B2:
	.byte	W36
@ 059   ----------------------------------------
	.byte	W96
@ 060   ----------------------------------------
	.byte	W60
	.byte	FINE

@**************** Track 5 (Midi-Chn.5) ****************@

DDLC_5:
	.byte	KEYSH , DDLC_key+0
@ 000   ----------------------------------------
	.byte		VOICE , 69
	.byte		VOL   , 63*DDLC_mvl/mxv
	.byte		PAN   , c_v-1
	.byte		BEND  , c_v+0
	.byte	W60
DDLC_5_B1:
	.byte	W36
@ 001   ----------------------------------------
	.byte	W96
@ 002   ----------------------------------------
	.byte	W96
@ 003   ----------------------------------------
	.byte	W96
@ 004   ----------------------------------------
DDLC_5_004:
	.byte		N48   , Gn3 , v056
	.byte	W48
	.byte		        An3 
	.byte	W48
	.byte	PEND
@ 005   ----------------------------------------
DDLC_5_005:
	.byte		N48   , Fn3 , v056
	.byte	W48
	.byte		        Gn3 
	.byte	W48
	.byte	PEND
@ 006   ----------------------------------------
DDLC_5_006:
	.byte		N48   , Cn3 , v056
	.byte	W48
	.byte		        Gn3 
	.byte	W48
	.byte	PEND
@ 007   ----------------------------------------
DDLC_5_007:
	.byte		N48   , Fn3 , v056
	.byte	W48
	.byte		        Dn3 
	.byte	W48
	.byte	PEND
@ 008   ----------------------------------------
	.byte		N12   , Cn3 
	.byte	W96
@ 009   ----------------------------------------
	.byte	W96
@ 010   ----------------------------------------
	.byte	W96
@ 011   ----------------------------------------
	.byte	W96
@ 012   ----------------------------------------
	.byte	W96
@ 013   ----------------------------------------
	.byte	W96
@ 014   ----------------------------------------
	.byte	W96
@ 015   ----------------------------------------
	.byte	W96
@ 016   ----------------------------------------
	.byte	PATT
	 .word	DDLC_5_004
@ 017   ----------------------------------------
	.byte	PATT
	 .word	DDLC_5_005
@ 018   ----------------------------------------
	.byte	PATT
	 .word	DDLC_5_006
@ 019   ----------------------------------------
	.byte	PATT
	 .word	DDLC_5_007
@ 020   ----------------------------------------
	.byte	PATT
	 .word	DDLC_5_004
@ 021   ----------------------------------------
	.byte	PATT
	 .word	DDLC_5_005
@ 022   ----------------------------------------
	.byte	PATT
	 .word	DDLC_5_006
@ 023   ----------------------------------------
	.byte	PATT
	 .word	DDLC_5_007
@ 024   ----------------------------------------
	.byte	W96
@ 025   ----------------------------------------
	.byte	W96
@ 026   ----------------------------------------
	.byte	W96
@ 027   ----------------------------------------
	.byte	W96
@ 028   ----------------------------------------
	.byte	W96
@ 029   ----------------------------------------
	.byte	W96
@ 030   ----------------------------------------
	.byte	W96
@ 031   ----------------------------------------
	.byte	W96
@ 032   ----------------------------------------
	.byte	W96
@ 033   ----------------------------------------
	.byte	W96
@ 034   ----------------------------------------
	.byte	W96
@ 035   ----------------------------------------
	.byte	W96
@ 036   ----------------------------------------
	.byte	W96
@ 037   ----------------------------------------
	.byte	W96
@ 038   ----------------------------------------
	.byte	W96
@ 039   ----------------------------------------
	.byte	W96
@ 040   ----------------------------------------
	.byte		N24   , An2 , v056
	.byte	W24
	.byte		        Cn3 
	.byte	W24
	.byte		        Dn3 
	.byte	W24
	.byte		        Gn3 
	.byte	W24
@ 041   ----------------------------------------
	.byte		        An2 
	.byte	W24
	.byte		        Fn3 
	.byte	W24
	.byte		        Gn3 
	.byte	W24
	.byte		        Bn3 
	.byte	W24
@ 042   ----------------------------------------
	.byte		        Cn4 
	.byte	W24
	.byte		        Gn3 
	.byte	W24
	.byte		N48   , An3 
	.byte	W48
@ 043   ----------------------------------------
	.byte	PATT
	 .word	DDLC_5_005
@ 044   ----------------------------------------
	.byte	PATT
	 .word	DDLC_5_006
@ 045   ----------------------------------------
	.byte	PATT
	 .word	DDLC_5_007
@ 046   ----------------------------------------
	.byte	PATT
	 .word	DDLC_5_004
@ 047   ----------------------------------------
	.byte	PATT
	 .word	DDLC_5_005
@ 048   ----------------------------------------
	.byte	PATT
	 .word	DDLC_5_006
@ 049   ----------------------------------------
	.byte	PATT
	 .word	DDLC_5_007
@ 050   ----------------------------------------
	.byte	W96
@ 051   ----------------------------------------
	.byte	W96
@ 052   ----------------------------------------
	.byte	W96
@ 053   ----------------------------------------
	.byte	W96
@ 054   ----------------------------------------
	.byte	W96
@ 055   ----------------------------------------
	.byte	W96
@ 056   ----------------------------------------
	.byte	W96
@ 057   ----------------------------------------
	.byte	W96
@ 058   ----------------------------------------
	.byte	W60
	.byte	GOTO
	 .word	DDLC_5_B1
DDLC_5_B2:
	.byte	W36
@ 059   ----------------------------------------
	.byte	W96
@ 060   ----------------------------------------
	.byte	W60
	.byte	FINE

@**************** Track 6 (Midi-Chn.6) ****************@

DDLC_6:
	.byte	KEYSH , DDLC_key+0
@ 000   ----------------------------------------
	.byte		VOICE , 10
	.byte		VOL   , 44*DDLC_mvl/mxv
	.byte		PAN   , c_v+0
	.byte		BEND  , c_v+0
	.byte	W60
DDLC_6_B1:
	.byte	W36
@ 001   ----------------------------------------
	.byte	W96
@ 002   ----------------------------------------
	.byte	W96
@ 003   ----------------------------------------
	.byte	W96
@ 004   ----------------------------------------
	.byte	W96
@ 005   ----------------------------------------
	.byte	W96
@ 006   ----------------------------------------
	.byte	W96
@ 007   ----------------------------------------
	.byte	W96
@ 008   ----------------------------------------
	.byte	W96
@ 009   ----------------------------------------
	.byte	W96
@ 010   ----------------------------------------
	.byte	W96
@ 011   ----------------------------------------
	.byte		N09   , Gn5 , v108
	.byte	W12
	.byte		        An5 
	.byte	W12
	.byte		        Gn5 
	.byte	W36
	.byte		        An5 
	.byte	W12
	.byte		        Bn5 
	.byte	W12
	.byte		        Gn5 
	.byte	W12
@ 012   ----------------------------------------
	.byte	W96
@ 013   ----------------------------------------
	.byte	W96
@ 014   ----------------------------------------
	.byte	W96
@ 015   ----------------------------------------
	.byte		N09   
	.byte	W12
	.byte		        An5 
	.byte	W12
	.byte		        Gn5 
	.byte	W36
	.byte		        Bn5 
	.byte	W12
	.byte		        Cn6 
	.byte	W24
@ 016   ----------------------------------------
	.byte	W96
@ 017   ----------------------------------------
	.byte	W96
@ 018   ----------------------------------------
	.byte	W96
@ 019   ----------------------------------------
	.byte	W96
@ 020   ----------------------------------------
	.byte	W96
@ 021   ----------------------------------------
	.byte	W96
@ 022   ----------------------------------------
	.byte	W96
@ 023   ----------------------------------------
	.byte	W96
@ 024   ----------------------------------------
	.byte	W24
	.byte		        Gn6 
	.byte	W12
	.byte		N09   
	.byte	W60
@ 025   ----------------------------------------
	.byte		        Dn6 
	.byte	W24
	.byte		        En6 
	.byte	W12
	.byte		        Fn6 
	.byte	W24
	.byte		        Gn6 
	.byte	W24
	.byte		N09   
	.byte	W12
@ 026   ----------------------------------------
	.byte	W96
@ 027   ----------------------------------------
	.byte		        Cn6 
	.byte	W24
	.byte		        Dn6 
	.byte	W12
	.byte		        En6 
	.byte	W24
	.byte		        Cn6 
	.byte	W24
	.byte		        Gn5 
	.byte	W12
@ 028   ----------------------------------------
	.byte	W96
@ 029   ----------------------------------------
	.byte	W96
@ 030   ----------------------------------------
	.byte	W96
@ 031   ----------------------------------------
	.byte	W96
@ 032   ----------------------------------------
DDLC_6_032:
	.byte		N09   , Gn5 , v108
	.byte	W12
	.byte		        Cn6 
	.byte	W12
	.byte		        En6 
	.byte	W12
	.byte		        Gn6 
	.byte	W60
	.byte	PEND
@ 033   ----------------------------------------
DDLC_6_033:
	.byte		N09   , An5 , v108
	.byte	W12
	.byte		        Cn6 
	.byte	W12
	.byte		        Fn6 
	.byte	W12
	.byte		        Gn6 
	.byte	W24
	.byte		        Dn6 
	.byte	W12
	.byte		        Gn6 
	.byte	W24
	.byte	PEND
@ 034   ----------------------------------------
	.byte	W96
@ 035   ----------------------------------------
	.byte	W96
@ 036   ----------------------------------------
	.byte	PATT
	 .word	DDLC_6_032
@ 037   ----------------------------------------
	.byte	PATT
	 .word	DDLC_6_033
@ 038   ----------------------------------------
	.byte	W96
@ 039   ----------------------------------------
	.byte	W96
@ 040   ----------------------------------------
	.byte	W96
@ 041   ----------------------------------------
	.byte	W96
@ 042   ----------------------------------------
	.byte	W96
@ 043   ----------------------------------------
	.byte	W96
@ 044   ----------------------------------------
	.byte	W96
@ 045   ----------------------------------------
	.byte	W96
@ 046   ----------------------------------------
	.byte	W96
@ 047   ----------------------------------------
	.byte	W96
@ 048   ----------------------------------------
	.byte	W96
@ 049   ----------------------------------------
	.byte	W96
@ 050   ----------------------------------------
	.byte	W96
@ 051   ----------------------------------------
	.byte		N09   , Fn6 , v108
	.byte	W18
	.byte		        Gn6 
	.byte	W18
	.byte		        An6 
	.byte	W24
	.byte		        Gn6 
	.byte	W36
@ 052   ----------------------------------------
	.byte	W96
@ 053   ----------------------------------------
	.byte	W96
@ 054   ----------------------------------------
	.byte	W96
@ 055   ----------------------------------------
	.byte	W96
@ 056   ----------------------------------------
	.byte	W96
@ 057   ----------------------------------------
	.byte	W96
@ 058   ----------------------------------------
	.byte	W60
	.byte	GOTO
	 .word	DDLC_6_B1
DDLC_6_B2:
	.byte	W36
@ 059   ----------------------------------------
	.byte	W96
@ 060   ----------------------------------------
	.byte	W60
	.byte	FINE

@**************** Track 7 (Midi-Chn.7) ****************@

DDLC_7:
	.byte	KEYSH , DDLC_key+0
@ 000   ----------------------------------------
	.byte		VOICE , 127
	.byte		VOL   , 63*DDLC_mvl/mxv
	.byte		PAN   , c_v+0
	.byte		BEND  , c_v+0
	.byte	W60
DDLC_7_B1:
	.byte	W36
@ 001   ----------------------------------------
	.byte	W96
@ 002   ----------------------------------------
	.byte	W96
@ 003   ----------------------------------------
	.byte	W96
@ 004   ----------------------------------------
	.byte		N03   , Cn1 , v100
	.byte		N03   , Cs2 
	.byte	W12
	.byte		        Fs1 
	.byte	W12
	.byte		        Cn1 
	.byte		N03   , Ds1 
	.byte		N03   , En1 
	.byte	W12
	.byte		        Fs1 
	.byte	W12
	.byte		        Cn1 
	.byte	W12
	.byte		        Fs1 
	.byte	W12
	.byte		        Cn1 
	.byte		N03   , Ds1 
	.byte		N03   , En1 
	.byte	W12
	.byte		        Cn1 
	.byte		N03   , Fs1 
	.byte	W12
@ 005   ----------------------------------------
DDLC_7_005:
	.byte		N03   , Cn1 , v100
	.byte	W12
	.byte		        Fs1 
	.byte	W12
	.byte		        Cn1 
	.byte		N03   , Ds1 
	.byte		N03   , En1 
	.byte	W12
	.byte		        Fs1 
	.byte	W12
	.byte		        Cn1 
	.byte	W12
	.byte		        Fs1 
	.byte	W12
	.byte		        Cn1 
	.byte		N03   , Ds1 
	.byte		N03   , En1 
	.byte		N03   , As1 
	.byte	W12
	.byte		        Cn1 
	.byte		N03   , Fs1 
	.byte	W12
	.byte	PEND
@ 006   ----------------------------------------
DDLC_7_006:
	.byte		N03   , Cn1 , v100
	.byte	W12
	.byte		        Fs1 
	.byte	W12
	.byte		        Cn1 
	.byte		N03   , Ds1 
	.byte		N03   , En1 
	.byte	W12
	.byte		        Fs1 
	.byte	W12
	.byte		        Cn1 
	.byte	W12
	.byte		        Fs1 
	.byte	W12
	.byte		        Cn1 
	.byte		N03   , Ds1 
	.byte		N03   , En1 
	.byte	W12
	.byte		        Cn1 
	.byte		N03   , Fs1 
	.byte	W12
	.byte	PEND
@ 007   ----------------------------------------
	.byte	PATT
	 .word	DDLC_7_005
@ 008   ----------------------------------------
	.byte	PATT
	 .word	DDLC_7_006
@ 009   ----------------------------------------
	.byte	PATT
	 .word	DDLC_7_005
@ 010   ----------------------------------------
	.byte	PATT
	 .word	DDLC_7_006
@ 011   ----------------------------------------
	.byte	PATT
	 .word	DDLC_7_005
@ 012   ----------------------------------------
	.byte	PATT
	 .word	DDLC_7_006
@ 013   ----------------------------------------
	.byte	PATT
	 .word	DDLC_7_005
@ 014   ----------------------------------------
	.byte	PATT
	 .word	DDLC_7_006
@ 015   ----------------------------------------
	.byte	PATT
	 .word	DDLC_7_005
@ 016   ----------------------------------------
	.byte	PATT
	 .word	DDLC_7_006
@ 017   ----------------------------------------
	.byte	PATT
	 .word	DDLC_7_005
@ 018   ----------------------------------------
	.byte	PATT
	 .word	DDLC_7_006
@ 019   ----------------------------------------
	.byte	PATT
	 .word	DDLC_7_005
@ 020   ----------------------------------------
	.byte	PATT
	 .word	DDLC_7_006
@ 021   ----------------------------------------
	.byte	PATT
	 .word	DDLC_7_005
@ 022   ----------------------------------------
	.byte	PATT
	 .word	DDLC_7_006
@ 023   ----------------------------------------
	.byte	PATT
	 .word	DDLC_7_005
@ 024   ----------------------------------------
	.byte	PATT
	 .word	DDLC_7_006
@ 025   ----------------------------------------
	.byte	PATT
	 .word	DDLC_7_005
@ 026   ----------------------------------------
	.byte	PATT
	 .word	DDLC_7_006
@ 027   ----------------------------------------
	.byte	PATT
	 .word	DDLC_7_005
@ 028   ----------------------------------------
	.byte	PATT
	 .word	DDLC_7_006
@ 029   ----------------------------------------
	.byte	PATT
	 .word	DDLC_7_005
@ 030   ----------------------------------------
	.byte	PATT
	 .word	DDLC_7_006
@ 031   ----------------------------------------
	.byte	PATT
	 .word	DDLC_7_005
@ 032   ----------------------------------------
	.byte	PATT
	 .word	DDLC_7_006
@ 033   ----------------------------------------
	.byte	PATT
	 .word	DDLC_7_005
@ 034   ----------------------------------------
	.byte	PATT
	 .word	DDLC_7_006
@ 035   ----------------------------------------
	.byte	PATT
	 .word	DDLC_7_005
@ 036   ----------------------------------------
	.byte	PATT
	 .word	DDLC_7_006
@ 037   ----------------------------------------
	.byte	PATT
	 .word	DDLC_7_005
@ 038   ----------------------------------------
	.byte	PATT
	 .word	DDLC_7_006
@ 039   ----------------------------------------
	.byte	PATT
	 .word	DDLC_7_005
@ 040   ----------------------------------------
	.byte	PATT
	 .word	DDLC_7_006
@ 041   ----------------------------------------
	.byte	PATT
	 .word	DDLC_7_005
@ 042   ----------------------------------------
	.byte		N03   , Cn1 , v100
	.byte		N03   , Cs2 , v120
	.byte	W12
	.byte		        Fs1 , v100
	.byte	W12
	.byte		        Cn1 
	.byte		N03   , Ds1 
	.byte		N03   , En1 
	.byte	W12
	.byte		        Fs1 
	.byte	W12
	.byte		        Cn1 
	.byte	W12
	.byte		        Fs1 
	.byte	W12
	.byte		        Cn1 
	.byte		N03   , Ds1 
	.byte		N03   , En1 
	.byte	W12
	.byte		        Cn1 
	.byte		N03   , Fs1 
	.byte	W12
@ 043   ----------------------------------------
	.byte	PATT
	 .word	DDLC_7_005
@ 044   ----------------------------------------
	.byte	PATT
	 .word	DDLC_7_006
@ 045   ----------------------------------------
	.byte	PATT
	 .word	DDLC_7_005
@ 046   ----------------------------------------
	.byte	PATT
	 .word	DDLC_7_006
@ 047   ----------------------------------------
	.byte	PATT
	 .word	DDLC_7_005
@ 048   ----------------------------------------
	.byte	PATT
	 .word	DDLC_7_006
@ 049   ----------------------------------------
	.byte	PATT
	 .word	DDLC_7_005
@ 050   ----------------------------------------
	.byte	PATT
	 .word	DDLC_7_006
@ 051   ----------------------------------------
	.byte	PATT
	 .word	DDLC_7_005
@ 052   ----------------------------------------
	.byte	W96
@ 053   ----------------------------------------
	.byte	W96
@ 054   ----------------------------------------
	.byte	PATT
	 .word	DDLC_7_006
@ 055   ----------------------------------------
	.byte	PATT
	 .word	DDLC_7_005
@ 056   ----------------------------------------
	.byte	PATT
	 .word	DDLC_7_006
@ 057   ----------------------------------------
	.byte	PATT
	 .word	DDLC_7_005
@ 058   ----------------------------------------
	.byte	W60
	.byte	GOTO
	 .word	DDLC_7_B1
DDLC_7_B2:
	.byte	W36
@ 059   ----------------------------------------
	.byte	W96
@ 060   ----------------------------------------
	.byte	W60
	.byte	FINE

@**************** Track 8 (Midi-Chn.8) ****************@

DDLC_8:
	.byte	KEYSH , DDLC_key+0
@ 000   ----------------------------------------
	.byte		VOICE , 1
	.byte		VOL   , 63*DDLC_mvl/mxv
	.byte		PAN   , c_v-1
	.byte		BEND  , c_v+0
	.byte	W60
DDLC_8_B1:
	.byte	W36
@ 001   ----------------------------------------
	.byte	W96
@ 002   ----------------------------------------
	.byte	W96
@ 003   ----------------------------------------
DDLC_8_003:
	.byte	W84
	.byte		N03   , Gn2 , v108
	.byte	W03
	.byte		        An2 
	.byte	W03
	.byte		        Cn3 
	.byte	W03
	.byte		        En3 
	.byte	W03
	.byte	PEND
@ 004   ----------------------------------------
DDLC_8_004:
	.byte		N24   , Gn3 , v108
	.byte		N24   , Cn4 , v076
	.byte	W24
	.byte		N12   , Gn2 , v108
	.byte	W12
	.byte		N24   , An2 
	.byte	W36
	.byte		N12   , Gn2 
	.byte	W12
	.byte		        An2 
	.byte	W12
	.byte	PEND
@ 005   ----------------------------------------
	.byte		N24   , Cn3 
	.byte		N24   , Fn3 , v096
	.byte	W36
	.byte		        Dn3 , v108
	.byte		N24   , Gn3 , v096
	.byte	W36
	.byte		N06   , Gn2 , v108
	.byte	W06
	.byte		        An2 
	.byte	W06
	.byte		N12   , Gn2 
	.byte	W12
@ 006   ----------------------------------------
	.byte		N24   , Gn3 
	.byte		N24   , Cn4 , v076
	.byte	W24
	.byte		N12   , Gn2 , v108
	.byte	W12
	.byte		N24   , An2 
	.byte		N24   , Cn3 
	.byte	W36
	.byte		N12   , Gn2 
	.byte	W12
	.byte		        An2 
	.byte	W12
@ 007   ----------------------------------------
	.byte		N24   , Cn3 
	.byte		N24   , Fn3 , v096
	.byte	W36
	.byte		N36   , Gn2 , v108
	.byte		N36   , Dn3 , v096
	.byte	W60
@ 008   ----------------------------------------
	.byte	W96
@ 009   ----------------------------------------
	.byte	W96
@ 010   ----------------------------------------
	.byte	W96
@ 011   ----------------------------------------
	.byte	W96
@ 012   ----------------------------------------
	.byte	W96
@ 013   ----------------------------------------
	.byte	W96
@ 014   ----------------------------------------
	.byte	W96
@ 015   ----------------------------------------
	.byte	PATT
	 .word	DDLC_8_003
@ 016   ----------------------------------------
	.byte	PATT
	 .word	DDLC_8_004
@ 017   ----------------------------------------
DDLC_8_017:
	.byte		N24   , Cn3 , v108
	.byte		N24   , Fn3 , v096
	.byte	W36
	.byte		        Dn3 , v108
	.byte		N24   , Gn3 , v096
	.byte	W60
	.byte	PEND
@ 018   ----------------------------------------
DDLC_8_018:
	.byte		N24   , Gn3 , v108
	.byte		N24   , Cn4 , v076
	.byte	W24
	.byte		N12   , Gn2 , v108
	.byte	W12
	.byte		        An2 
	.byte	W12
	.byte		N24   , Cn3 
	.byte	W24
	.byte		N12   , Gn2 
	.byte	W12
	.byte		        An2 
	.byte	W12
	.byte	PEND
@ 019   ----------------------------------------
DDLC_8_019:
	.byte		N24   , Dn3 , v108
	.byte		N24   , Fn3 , v096
	.byte	W36
	.byte		N36   , An2 , v108
	.byte		N36   , Cn3 
	.byte	W48
	.byte		N03   , Gn2 
	.byte	W03
	.byte		        An2 
	.byte	W03
	.byte		        Cn3 
	.byte	W03
	.byte		        En3 
	.byte	W03
	.byte	PEND
@ 020   ----------------------------------------
	.byte	PATT
	 .word	DDLC_8_004
@ 021   ----------------------------------------
	.byte	PATT
	 .word	DDLC_8_017
@ 022   ----------------------------------------
	.byte	PATT
	 .word	DDLC_8_018
@ 023   ----------------------------------------
DDLC_8_023:
	.byte		N24   , Dn3 , v108
	.byte		N24   , Fn3 , v096
	.byte	W36
	.byte		N36   , An2 , v108
	.byte		N36   , Cn3 
	.byte	W60
	.byte	PEND
@ 024   ----------------------------------------
	.byte	W96
@ 025   ----------------------------------------
	.byte	W96
@ 026   ----------------------------------------
	.byte	W96
@ 027   ----------------------------------------
	.byte	W96
@ 028   ----------------------------------------
	.byte	W96
@ 029   ----------------------------------------
	.byte	W96
@ 030   ----------------------------------------
	.byte	W96
@ 031   ----------------------------------------
	.byte	W96
@ 032   ----------------------------------------
	.byte	W96
@ 033   ----------------------------------------
	.byte	W96
@ 034   ----------------------------------------
	.byte	W96
@ 035   ----------------------------------------
	.byte	W96
@ 036   ----------------------------------------
	.byte	W96
@ 037   ----------------------------------------
	.byte	W96
@ 038   ----------------------------------------
	.byte	W96
@ 039   ----------------------------------------
	.byte	W48
	.byte		N12   , Fn3 , v100
	.byte	W12
	.byte		        As3 
	.byte		N12   , Dn4 
	.byte	W36
@ 040   ----------------------------------------
	.byte		N48   , Fn2 
	.byte		N48   , An2 
	.byte		N48   , Cn3 
	.byte	W48
	.byte		        Gn2 
	.byte		N48   , Bn2 
	.byte		N48   , Dn3 
	.byte	W48
@ 041   ----------------------------------------
	.byte		        Fn2 
	.byte		N48   , An2 
	.byte		N48   , Cn3 
	.byte	W48
	.byte		N36   , Gn2 
	.byte		N36   , Dn3 
	.byte		N36   , Gn3 
	.byte	W36
	.byte		N03   , Gn2 , v108
	.byte	W03
	.byte		        An2 
	.byte	W03
	.byte		        Cn3 
	.byte	W03
	.byte		        En3 
	.byte	W03
@ 042   ----------------------------------------
	.byte	PATT
	 .word	DDLC_8_004
@ 043   ----------------------------------------
	.byte	PATT
	 .word	DDLC_8_017
@ 044   ----------------------------------------
	.byte	PATT
	 .word	DDLC_8_018
@ 045   ----------------------------------------
	.byte	PATT
	 .word	DDLC_8_019
@ 046   ----------------------------------------
	.byte	PATT
	 .word	DDLC_8_004
@ 047   ----------------------------------------
	.byte	PATT
	 .word	DDLC_8_017
@ 048   ----------------------------------------
	.byte	PATT
	 .word	DDLC_8_018
@ 049   ----------------------------------------
	.byte	PATT
	 .word	DDLC_8_023
@ 050   ----------------------------------------
	.byte		N24   , Dn3 , v096
	.byte		N24   , Fn3 
	.byte	W36
	.byte		N60   , An2 , v108
	.byte		N60   , Cn3 
	.byte	W60
@ 051   ----------------------------------------
	.byte		N24   , En3 , v096
	.byte		N24   , Gn3 
	.byte	W36
	.byte		N48   , Cn3 
	.byte		N48   , Gn3 
	.byte	W60
@ 052   ----------------------------------------
	.byte		N24   , Dn3 
	.byte		N24   , Fn3 
	.byte	W36
	.byte		N60   , Cn3 
	.byte		N60   , Fn3 
	.byte	W60
@ 053   ----------------------------------------
	.byte	W48
	.byte		N24   , Dn3 
	.byte		N24   , Fn3 
	.byte	W36
	.byte		N60   , Gn2 
	.byte		N60   , Cn3 
	.byte	W12
@ 054   ----------------------------------------
	.byte	W96
@ 055   ----------------------------------------
	.byte	W96
@ 056   ----------------------------------------
	.byte	W96
@ 057   ----------------------------------------
	.byte	W96
@ 058   ----------------------------------------
	.byte	W60
	.byte	GOTO
	 .word	DDLC_8_B1
DDLC_8_B2:
	.byte	W36
@ 059   ----------------------------------------
	.byte	W96
@ 060   ----------------------------------------
	.byte	W60
	.byte	FINE

@**************** Track 9 (Midi-Chn.9) ****************@

DDLC_9:
	.byte	KEYSH , DDLC_key+0
@ 000   ----------------------------------------
	.byte		VOICE , 34
	.byte		VOL   , 63*DDLC_mvl/mxv
	.byte		PAN   , c_v+0
	.byte		BEND  , c_v+0
	.byte	W60
DDLC_9_B1:
	.byte	W36
@ 001   ----------------------------------------
	.byte	W96
@ 002   ----------------------------------------
	.byte	W96
@ 003   ----------------------------------------
	.byte	W96
@ 004   ----------------------------------------
DDLC_9_004:
	.byte		N24   , Cn3 , v120
	.byte	W36
	.byte		N12   
	.byte	W12
	.byte		N24   , An2 
	.byte	W36
	.byte		N12   
	.byte	W12
	.byte	PEND
@ 005   ----------------------------------------
DDLC_9_005:
	.byte		N24   , Fn2 , v120
	.byte	W36
	.byte		N12   
	.byte	W12
	.byte		N24   , Gn2 
	.byte	W36
	.byte		N12   
	.byte	W12
	.byte	PEND
@ 006   ----------------------------------------
	.byte	PATT
	 .word	DDLC_9_004
@ 007   ----------------------------------------
	.byte	PATT
	 .word	DDLC_9_005
@ 008   ----------------------------------------
	.byte	PATT
	 .word	DDLC_9_004
@ 009   ----------------------------------------
	.byte	PATT
	 .word	DDLC_9_005
@ 010   ----------------------------------------
	.byte	PATT
	 .word	DDLC_9_004
@ 011   ----------------------------------------
	.byte	PATT
	 .word	DDLC_9_005
@ 012   ----------------------------------------
	.byte	PATT
	 .word	DDLC_9_004
@ 013   ----------------------------------------
	.byte	PATT
	 .word	DDLC_9_005
@ 014   ----------------------------------------
	.byte	PATT
	 .word	DDLC_9_004
@ 015   ----------------------------------------
	.byte	PATT
	 .word	DDLC_9_005
@ 016   ----------------------------------------
	.byte	PATT
	 .word	DDLC_9_004
@ 017   ----------------------------------------
	.byte	PATT
	 .word	DDLC_9_005
@ 018   ----------------------------------------
	.byte	PATT
	 .word	DDLC_9_004
@ 019   ----------------------------------------
	.byte	PATT
	 .word	DDLC_9_005
@ 020   ----------------------------------------
	.byte	PATT
	 .word	DDLC_9_004
@ 021   ----------------------------------------
	.byte	PATT
	 .word	DDLC_9_005
@ 022   ----------------------------------------
	.byte	PATT
	 .word	DDLC_9_004
@ 023   ----------------------------------------
	.byte	PATT
	 .word	DDLC_9_005
@ 024   ----------------------------------------
	.byte	PATT
	 .word	DDLC_9_004
@ 025   ----------------------------------------
	.byte	PATT
	 .word	DDLC_9_005
@ 026   ----------------------------------------
	.byte	PATT
	 .word	DDLC_9_004
@ 027   ----------------------------------------
	.byte	PATT
	 .word	DDLC_9_005
@ 028   ----------------------------------------
	.byte	PATT
	 .word	DDLC_9_004
@ 029   ----------------------------------------
	.byte	PATT
	 .word	DDLC_9_005
@ 030   ----------------------------------------
	.byte	PATT
	 .word	DDLC_9_004
@ 031   ----------------------------------------
	.byte	PATT
	 .word	DDLC_9_005
@ 032   ----------------------------------------
	.byte	PATT
	 .word	DDLC_9_004
@ 033   ----------------------------------------
	.byte	PATT
	 .word	DDLC_9_005
@ 034   ----------------------------------------
	.byte	PATT
	 .word	DDLC_9_004
@ 035   ----------------------------------------
	.byte	PATT
	 .word	DDLC_9_005
@ 036   ----------------------------------------
	.byte	PATT
	 .word	DDLC_9_004
@ 037   ----------------------------------------
	.byte	PATT
	 .word	DDLC_9_005
@ 038   ----------------------------------------
	.byte	PATT
	 .word	DDLC_9_004
@ 039   ----------------------------------------
	.byte		N24   , Ds3 , v120
	.byte	W36
	.byte		N12   
	.byte	W12
	.byte		N24   , Fn3 
	.byte	W36
	.byte		N12   
	.byte	W12
@ 040   ----------------------------------------
	.byte	PATT
	 .word	DDLC_9_005
@ 041   ----------------------------------------
	.byte		N24   , Fn2 , v120
	.byte	W36
	.byte		N12   
	.byte	W12
	.byte		N24   , Dn3 
	.byte	W36
	.byte		N12   
	.byte	W12
@ 042   ----------------------------------------
	.byte	PATT
	 .word	DDLC_9_004
@ 043   ----------------------------------------
	.byte	PATT
	 .word	DDLC_9_005
@ 044   ----------------------------------------
	.byte	PATT
	 .word	DDLC_9_004
@ 045   ----------------------------------------
	.byte	PATT
	 .word	DDLC_9_005
@ 046   ----------------------------------------
	.byte	PATT
	 .word	DDLC_9_004
@ 047   ----------------------------------------
	.byte	PATT
	 .word	DDLC_9_005
@ 048   ----------------------------------------
	.byte	PATT
	 .word	DDLC_9_004
@ 049   ----------------------------------------
	.byte	PATT
	 .word	DDLC_9_005
@ 050   ----------------------------------------
	.byte	PATT
	 .word	DDLC_9_005
@ 051   ----------------------------------------
	.byte	PATT
	 .word	DDLC_9_004
@ 052   ----------------------------------------
	.byte	W96
@ 053   ----------------------------------------
	.byte	W96
@ 054   ----------------------------------------
	.byte	PATT
	 .word	DDLC_9_004
@ 055   ----------------------------------------
	.byte	PATT
	 .word	DDLC_9_005
@ 056   ----------------------------------------
	.byte	PATT
	 .word	DDLC_9_004
@ 057   ----------------------------------------
	.byte	PATT
	 .word	DDLC_9_005
@ 058   ----------------------------------------
	.byte	W60
	.byte	GOTO
	 .word	DDLC_9_B1
DDLC_9_B2:
	.byte	W36
@ 059   ----------------------------------------
	.byte	W96
@ 060   ----------------------------------------
	.byte	W60
	.byte	FINE

@**************** Track 10 (Midi-Chn.11) ****************@

DDLC_10:
	.byte	KEYSH , DDLC_key+0
@ 000   ----------------------------------------
	.byte		VOICE , 0
	.byte		VOL   , 63*DDLC_mvl/mxv
	.byte		PAN   , c_v+0
	.byte		BEND  , c_v+0
	.byte	W60
DDLC_10_B1:
	.byte	W36
@ 001   ----------------------------------------
	.byte	W96
@ 002   ----------------------------------------
	.byte	W96
@ 003   ----------------------------------------
	.byte	W96
@ 004   ----------------------------------------
	.byte	W96
@ 005   ----------------------------------------
	.byte	W96
@ 006   ----------------------------------------
	.byte	W96
@ 007   ----------------------------------------
	.byte	W96
@ 008   ----------------------------------------
	.byte	W96
@ 009   ----------------------------------------
	.byte	W96
@ 010   ----------------------------------------
	.byte	W96
@ 011   ----------------------------------------
	.byte	W96
@ 012   ----------------------------------------
	.byte	W96
@ 013   ----------------------------------------
	.byte	W96
@ 014   ----------------------------------------
	.byte	W96
@ 015   ----------------------------------------
	.byte	W96
@ 016   ----------------------------------------
	.byte	W96
@ 017   ----------------------------------------
	.byte	W96
@ 018   ----------------------------------------
	.byte	W96
@ 019   ----------------------------------------
	.byte	W96
@ 020   ----------------------------------------
	.byte	W96
@ 021   ----------------------------------------
	.byte	W96
@ 022   ----------------------------------------
	.byte	W92
	.byte	W01
	.byte		PAN   , c_v+1
	.byte	W02
	.byte		        c_v+2
	.byte	W01
@ 023   ----------------------------------------
	.byte	W07
	.byte		        c_v+3
	.byte	W05
	.byte		        c_v+4
	.byte	W05
	.byte		        c_v+5
	.byte	W10
	.byte		        c_v+6
	.byte	W08
	.byte		        c_v+7
	.byte	W05
	.byte		        c_v+8
	.byte	W03
	.byte		        c_v+9
	.byte	W03
	.byte		        c_v+10
	.byte	W04
	.byte		        c_v+11
	.byte	W05
	.byte		        c_v+12
	.byte	W05
	.byte		        c_v+13
	.byte	W05
	.byte		        c_v+14
	.byte	W13
	.byte		        c_v+15
	.byte	W09
	.byte		        c_v+16
	.byte	W03
	.byte		        c_v+17
	.byte	W03
	.byte		        c_v+18
	.byte	W03
@ 024   ----------------------------------------
	.byte		N06   , Gn4 , v120
	.byte	W02
	.byte		PAN   , c_v+19
	.byte	W05
	.byte		        c_v+20
	.byte	W05
	.byte		N06   , Cn4 
	.byte	W01
	.byte		PAN   , c_v+21
	.byte	W08
	.byte		        c_v+22
	.byte	W03
	.byte		N06   , Dn4 
	.byte	W02
	.byte		PAN   , c_v+23
	.byte	W05
	.byte		        c_v+24
	.byte	W04
	.byte		        c_v+25
	.byte	W01
	.byte		N06   , Gn3 
	.byte	W02
	.byte		PAN   , c_v+26
	.byte	W03
	.byte		        c_v+27
	.byte	W01
	.byte		N06   , Cn4 
	.byte	W04
	.byte		PAN   , c_v+28
	.byte	W06
	.byte		        c_v+29
	.byte	W02
	.byte		N06   , Gn4 
	.byte	W06
	.byte		PAN   , c_v+30
	.byte	W05
	.byte		        c_v+31
	.byte	W01
	.byte		N06   , Cn4 
	.byte	W04
	.byte		PAN   , c_v+32
	.byte	W02
	.byte		N06   , Dn4 
	.byte	W01
	.byte		PAN   , c_v+33
	.byte	W03
	.byte		        c_v+34
	.byte	W04
	.byte		        c_v+35
	.byte	W05
	.byte		        c_v+36
	.byte	W05
	.byte		        c_v+37
	.byte	W05
	.byte		        c_v+38
	.byte	W01
@ 025   ----------------------------------------
	.byte		N06   , Fn4 
	.byte	W08
	.byte		PAN   , c_v+39
	.byte	W05
	.byte		        c_v+40
	.byte	W03
	.byte		        c_v+41
	.byte	W02
	.byte		        c_v+42
	.byte	W02
	.byte		        c_v+43
	.byte	W04
	.byte		        c_v+44
	.byte		N06   , Dn4 
	.byte	W04
	.byte		PAN   , c_v+45
	.byte	W10
	.byte		        c_v+46
	.byte	W04
	.byte		N06   , Cn4 
	.byte	W01
	.byte		PAN   , c_v+47
	.byte	W05
	.byte		        c_v+48
	.byte	W03
	.byte		        c_v+50
	.byte	W02
	.byte		        c_v+51
	.byte	W01
	.byte		N06   , Gn4 
	.byte	W04
	.byte		PAN   , c_v+52
	.byte	W05
	.byte		        c_v+53
	.byte	W03
	.byte		N06   , Cn4 
	.byte	W02
	.byte		PAN   , c_v+54
	.byte	W04
	.byte		N06   , Dn4 
	.byte	W01
	.byte		PAN   , c_v+55
	.byte	W05
	.byte		        c_v+56
	.byte	W04
	.byte		        c_v+57
	.byte	W03
	.byte		        c_v+58
	.byte	W01
	.byte		        c_v+60
	.byte	W03
	.byte		        c_v+61
	.byte	W01
	.byte		        c_v+62
	.byte	W04
	.byte		        c_v+63
	.byte	W01
	.byte		        c_v+60
	.byte	W01
@ 026   ----------------------------------------
	.byte		N06   , Gn4 
	.byte	W04
	.byte		PAN   , c_v+59
	.byte	W02
	.byte		        c_v+58
	.byte	W06
	.byte		N06   , Cn4 
	.byte	W01
	.byte		PAN   , c_v+57
	.byte	W07
	.byte		        c_v+56
	.byte	W04
	.byte		N06   , Dn4 
	.byte	W01
	.byte		PAN   , c_v+55
	.byte	W04
	.byte		        c_v+54
	.byte	W05
	.byte		        c_v+53
	.byte	W02
	.byte		N06   , Gn3 
	.byte	W02
	.byte		PAN   , c_v+52
	.byte	W01
	.byte		        c_v+51
	.byte	W02
	.byte		        c_v+50
	.byte	W01
	.byte		N06   , Cn4 
	.byte	W03
	.byte		PAN   , c_v+49
	.byte	W05
	.byte		        c_v+48
	.byte	W01
	.byte		        c_v+44
	.byte	W01
	.byte		        c_v+43
	.byte	W02
	.byte		        c_v+42
	.byte		N06   , Gn4 
	.byte	W04
	.byte		PAN   , c_v+41
	.byte	W02
	.byte		        c_v+37
	.byte	W04
	.byte		        c_v+36
	.byte	W01
	.byte		        c_v+35
	.byte	W01
	.byte		N06   , Cn4 
	.byte	W01
	.byte		PAN   , c_v+34
	.byte	W02
	.byte		        c_v+33
	.byte	W02
	.byte		        c_v+32
	.byte	W01
	.byte		N06   , Dn4 
	.byte	W01
	.byte		PAN   , c_v+31
	.byte	W02
	.byte		        c_v+30
	.byte	W02
	.byte		        c_v+29
	.byte	W01
	.byte		        c_v+37
	.byte	W04
	.byte		        c_v+36
	.byte	W10
	.byte		        c_v+35
	.byte	W04
@ 027   ----------------------------------------
	.byte		N06   , Fn4 
	.byte	W04
	.byte		PAN   , c_v+34
	.byte	W04
	.byte		        c_v+33
	.byte	W03
	.byte		        c_v+32
	.byte	W08
	.byte		        c_v+31
	.byte	W05
	.byte		        c_v+30
	.byte		N06   , Dn4 
	.byte	W05
	.byte		PAN   , c_v+29
	.byte	W05
	.byte		        c_v+28
	.byte	W05
	.byte		        c_v+27
	.byte	W03
	.byte		N06   , Cn4 
	.byte	W01
	.byte		PAN   , c_v+26
	.byte	W05
	.byte		        c_v+24
	.byte	W01
	.byte		        c_v+23
	.byte	W03
	.byte		        c_v+22
	.byte	W02
	.byte		N06   , Gn4 
	.byte	W01
	.byte		PAN   , c_v+21
	.byte	W05
	.byte		        c_v+20
	.byte	W04
	.byte		        c_v+19
	.byte	W01
	.byte		        c_v+17
	.byte	W01
	.byte		N06   , Cn4 
	.byte	W02
	.byte		PAN   , c_v+16
	.byte	W03
	.byte		        c_v+15
	.byte	W01
	.byte		N06   , Dn4 
	.byte	W07
	.byte		PAN   , c_v+14
	.byte	W04
	.byte		        c_v+13
	.byte	W02
	.byte		        c_v+12
	.byte	W05
	.byte		        c_v+11
	.byte	W01
	.byte		        c_v-2
	.byte	W01
	.byte		        c_v-3
	.byte	W03
	.byte		        c_v-4
	.byte	W01
@ 028   ----------------------------------------
	.byte		N06   , Gn4 
	.byte	W02
	.byte		PAN   , c_v-5
	.byte	W03
	.byte		        c_v-6
	.byte	W03
	.byte		        c_v-7
	.byte	W01
	.byte		        c_v-9
	.byte	W03
	.byte		N06   , Cn4 
	.byte	W02
	.byte		PAN   , c_v-10
	.byte	W04
	.byte		        c_v-11
	.byte	W05
	.byte		        c_v-12
	.byte	W01
	.byte		N06   , Dn4 
	.byte	W03
	.byte		PAN   , c_v-13
	.byte	W03
	.byte		        c_v-14
	.byte	W04
	.byte		        c_v-15
	.byte	W02
	.byte		N06   , Gn3 
	.byte	W02
	.byte		PAN   , c_v-16
	.byte	W04
	.byte		N06   , Cn4 
	.byte	W05
	.byte		PAN   , c_v-17
	.byte	W06
	.byte		        c_v-18
	.byte	W01
	.byte		N06   , Gn4 
	.byte	W08
	.byte		PAN   , c_v-19
	.byte	W04
	.byte		N06   , Cn4 
	.byte	W01
	.byte		PAN   , c_v-20
	.byte	W04
	.byte		        c_v-21
	.byte	W01
	.byte		N06   , Dn4 
	.byte	W01
	.byte		PAN   , c_v-22
	.byte	W04
	.byte		        c_v-23
	.byte	W05
	.byte		        c_v-24
	.byte	W05
	.byte		        c_v-25
	.byte	W05
	.byte		        c_v-26
	.byte	W04
@ 029   ----------------------------------------
	.byte		N06   , Fn4 
	.byte	W01
	.byte		PAN   , c_v-27
	.byte	W02
	.byte		        c_v-28
	.byte	W02
	.byte		        c_v-29
	.byte	W03
	.byte		        c_v-30
	.byte	W03
	.byte		        c_v-31
	.byte	W05
	.byte		        c_v-32
	.byte	W08
	.byte		        c_v-33
	.byte		N06   , Dn4 
	.byte	W03
	.byte		PAN   , c_v-35
	.byte	W04
	.byte		        c_v-36
	.byte	W03
	.byte		        c_v-37
	.byte	W04
	.byte		        c_v-38
	.byte	W02
	.byte		        c_v-41
	.byte	W02
	.byte		        c_v-42
	.byte		N06   , Cn4 
	.byte	W02
	.byte		PAN   , c_v-43
	.byte	W04
	.byte		        c_v-44
	.byte	W05
	.byte		        c_v-47
	.byte	W01
	.byte		        c_v-48
	.byte		N06   , Gn4 
	.byte	W05
	.byte		PAN   , c_v-49
	.byte	W05
	.byte		        c_v-50
	.byte	W02
	.byte		        c_v-51
	.byte		N06   , Cn4 
	.byte	W04
	.byte		PAN   , c_v-52
	.byte	W02
	.byte		N06   , Dn4 
	.byte	W02
	.byte		PAN   , c_v-53
	.byte	W01
	.byte		        c_v-55
	.byte	W03
	.byte		        c_v-56
	.byte	W02
	.byte		        c_v-57
	.byte	W01
	.byte		        c_v-58
	.byte	W04
	.byte		        c_v-59
	.byte	W03
	.byte		        c_v-60
	.byte	W01
	.byte		        c_v-61
	.byte	W02
	.byte		        c_v-62
	.byte	W02
	.byte		        c_v-64
	.byte	W03
@ 030   ----------------------------------------
	.byte		N06   , Gn4 
	.byte	W12
	.byte		        Cn4 
	.byte	W03
	.byte		PAN   , c_v-61
	.byte	W07
	.byte		        c_v-60
	.byte	W02
	.byte		N06   , Dn4 
	.byte	W05
	.byte		PAN   , c_v-59
	.byte	W05
	.byte		        c_v-58
	.byte	W02
	.byte		N06   , Gn3 
	.byte	W03
	.byte		PAN   , c_v-57
	.byte	W03
	.byte		N06   , Cn4 
	.byte	W02
	.byte		PAN   , c_v-56
	.byte	W03
	.byte		        c_v-55
	.byte	W02
	.byte		        c_v-54
	.byte	W05
	.byte		        c_v-53
	.byte		N06   , Gn4 
	.byte	W05
	.byte		PAN   , c_v-52
	.byte	W05
	.byte		        c_v-51
	.byte	W02
	.byte		N06   , Cn4 
	.byte	W03
	.byte		PAN   , c_v-50
	.byte	W03
	.byte		N06   , Dn4 
	.byte	W04
	.byte		PAN   , c_v-49
	.byte	W07
	.byte		        c_v-48
	.byte	W02
	.byte		        c_v-46
	.byte	W04
	.byte		        c_v-44
	.byte	W05
	.byte		        c_v-43
	.byte	W02
@ 031   ----------------------------------------
	.byte		N06   , Fn4 
	.byte	W02
	.byte		PAN   , c_v-41
	.byte	W02
	.byte		        c_v-40
	.byte	W04
	.byte		        c_v-39
	.byte	W02
	.byte		        c_v-38
	.byte	W01
	.byte		        c_v-37
	.byte	W04
	.byte		        c_v-36
	.byte	W02
	.byte		        c_v-35
	.byte	W03
	.byte		        c_v-34
	.byte	W04
	.byte		N06   , Dn4 
	.byte	W01
	.byte		PAN   , c_v-33
	.byte	W05
	.byte		        c_v-32
	.byte	W04
	.byte		        c_v-31
	.byte	W02
	.byte		        c_v-30
	.byte	W01
	.byte		        c_v-29
	.byte	W04
	.byte		        c_v-27
	.byte	W01
	.byte		N06   , Cn4 
	.byte	W04
	.byte		PAN   , c_v-26
	.byte	W07
	.byte		        c_v-25
	.byte	W01
	.byte		N06   , Gn4 
	.byte	W05
	.byte		PAN   , c_v-22
	.byte	W03
	.byte		        c_v-21
	.byte	W04
	.byte		N06   , Cn4 
	.byte	W05
	.byte		PAN   , c_v-20
	.byte	W01
	.byte		        c_v-17
	.byte		N06   , Dn4 
	.byte	W05
	.byte		PAN   , c_v-16
	.byte	W05
	.byte		        c_v-15
	.byte	W02
	.byte		        c_v-14
	.byte	W01
	.byte		        c_v-13
	.byte	W03
	.byte		        c_v-12
	.byte	W05
	.byte		        c_v-11
	.byte	W01
	.byte		        c_v-10
	.byte	W02
@ 032   ----------------------------------------
	.byte	W02
	.byte		        c_v+0
	.byte	W10
	.byte		        c_v+1
	.byte	W06
	.byte		        c_v+0
	.byte	W78
@ 033   ----------------------------------------
	.byte	W96
@ 034   ----------------------------------------
	.byte	W96
@ 035   ----------------------------------------
	.byte	W96
@ 036   ----------------------------------------
	.byte	W96
@ 037   ----------------------------------------
	.byte	W96
@ 038   ----------------------------------------
	.byte	W96
@ 039   ----------------------------------------
	.byte	W96
@ 040   ----------------------------------------
	.byte	W96
@ 041   ----------------------------------------
	.byte	W96
@ 042   ----------------------------------------
	.byte	W96
@ 043   ----------------------------------------
	.byte	W96
@ 044   ----------------------------------------
	.byte	W96
@ 045   ----------------------------------------
	.byte	W96
@ 046   ----------------------------------------
	.byte	W96
@ 047   ----------------------------------------
	.byte	W96
@ 048   ----------------------------------------
	.byte	W96
@ 049   ----------------------------------------
	.byte	W96
@ 050   ----------------------------------------
	.byte	W96
@ 051   ----------------------------------------
	.byte	W96
@ 052   ----------------------------------------
	.byte	W96
@ 053   ----------------------------------------
	.byte	W96
@ 054   ----------------------------------------
	.byte	W96
@ 055   ----------------------------------------
	.byte	W96
@ 056   ----------------------------------------
	.byte	W96
@ 057   ----------------------------------------
	.byte	W96
@ 058   ----------------------------------------
	.byte	W60
	.byte	GOTO
	 .word	DDLC_10_B1
DDLC_10_B2:
	.byte	W36
@ 059   ----------------------------------------
	.byte	W96
@ 060   ----------------------------------------
	.byte	W60
	.byte	FINE

@**************** Track 11 (Midi-Chn.12) ****************@

DDLC_11:
	.byte	KEYSH , DDLC_key+0
@ 000   ----------------------------------------
	.byte		VOICE , 59
	.byte		VOL   , 106*DDLC_mvl/mxv
	.byte		PAN   , c_v+0
	.byte		BEND  , c_v+0
	.byte	W60
DDLC_11_B1:
	.byte	W36
@ 001   ----------------------------------------
	.byte	W96
@ 002   ----------------------------------------
	.byte	W96
@ 003   ----------------------------------------
	.byte	W96
@ 004   ----------------------------------------
	.byte	W96
@ 005   ----------------------------------------
	.byte	W96
@ 006   ----------------------------------------
	.byte	W96
@ 007   ----------------------------------------
	.byte	W96
@ 008   ----------------------------------------
	.byte	W96
@ 009   ----------------------------------------
	.byte	W96
@ 010   ----------------------------------------
	.byte	W96
@ 011   ----------------------------------------
	.byte	W96
@ 012   ----------------------------------------
	.byte	W96
@ 013   ----------------------------------------
	.byte	W96
@ 014   ----------------------------------------
	.byte	W96
@ 015   ----------------------------------------
	.byte	W96
@ 016   ----------------------------------------
	.byte	W96
@ 017   ----------------------------------------
	.byte	W96
@ 018   ----------------------------------------
	.byte	W96
@ 019   ----------------------------------------
	.byte	W96
@ 020   ----------------------------------------
	.byte	W96
@ 021   ----------------------------------------
	.byte	W96
@ 022   ----------------------------------------
	.byte	W96
@ 023   ----------------------------------------
	.byte	W96
@ 024   ----------------------------------------
	.byte	W96
@ 025   ----------------------------------------
	.byte	W96
@ 026   ----------------------------------------
	.byte	W96
@ 027   ----------------------------------------
	.byte	W96
@ 028   ----------------------------------------
	.byte	W96
@ 029   ----------------------------------------
	.byte	W96
@ 030   ----------------------------------------
	.byte	W96
@ 031   ----------------------------------------
	.byte	W96
@ 032   ----------------------------------------
	.byte	W24
	.byte		N06   , Gn3 , v100
	.byte	W12
	.byte		N06   
	.byte	W12
	.byte		N24   
	.byte	W36
	.byte		N06   
	.byte	W06
	.byte		        Fn3 
	.byte	W06
@ 033   ----------------------------------------
	.byte		N18   , En3 
	.byte	W18
	.byte		N06   , Fn3 
	.byte	W06
	.byte		        Gn3 
	.byte	W12
	.byte		N12   , En3 
	.byte	W12
	.byte		N18   , Dn3 
	.byte	W24
	.byte		N12   , Cn3 
	.byte	W12
	.byte		        Dn3 
	.byte	W12
@ 034   ----------------------------------------
	.byte		N03   , En3 
	.byte	W12
	.byte		        Cn3 
	.byte	W12
	.byte		        Gn2 
	.byte	W72
@ 035   ----------------------------------------
	.byte	W96
@ 036   ----------------------------------------
	.byte	W24
	.byte		N06   , Gn3 
	.byte	W12
	.byte		        An3 
	.byte	W12
	.byte		N24   , Gn3 
	.byte	W36
	.byte		N06   , En3 
	.byte	W06
	.byte		        Fn3 
	.byte	W06
@ 037   ----------------------------------------
	.byte		N12   , Gn3 
	.byte	W12
	.byte		N06   , Fn3 
	.byte	W06
	.byte		        En3 
	.byte	W06
	.byte		N12   , Dn3 
	.byte	W12
	.byte		N06   , An2 
	.byte	W12
	.byte		N18   , Gn2 
	.byte	W24
	.byte		N12   , Fn2 
	.byte	W12
	.byte		        An2 
	.byte	W12
@ 038   ----------------------------------------
	.byte		N03   , Gn2 
	.byte	W12
	.byte		        En3 
	.byte	W12
	.byte		        Cn3 
	.byte	W72
@ 039   ----------------------------------------
	.byte	W96
@ 040   ----------------------------------------
	.byte	W96
@ 041   ----------------------------------------
	.byte	W96
@ 042   ----------------------------------------
	.byte	W96
@ 043   ----------------------------------------
	.byte	W96
@ 044   ----------------------------------------
	.byte	W96
@ 045   ----------------------------------------
	.byte	W96
@ 046   ----------------------------------------
	.byte	W96
@ 047   ----------------------------------------
	.byte	W96
@ 048   ----------------------------------------
	.byte	W96
@ 049   ----------------------------------------
	.byte	W96
@ 050   ----------------------------------------
	.byte	W96
@ 051   ----------------------------------------
	.byte	W96
@ 052   ----------------------------------------
	.byte	W96
@ 053   ----------------------------------------
	.byte	W96
@ 054   ----------------------------------------
	.byte	W96
@ 055   ----------------------------------------
	.byte	W96
@ 056   ----------------------------------------
	.byte	W96
@ 057   ----------------------------------------
	.byte	W96
@ 058   ----------------------------------------
	.byte	W60
	.byte	GOTO
	 .word	DDLC_11_B1
DDLC_11_B2:
	.byte	W36
@ 059   ----------------------------------------
	.byte	W96
@ 060   ----------------------------------------
	.byte	W60
	.byte	FINE

@**************** Track 12 (Midi-Chn.13) ****************@

DDLC_12:
	.byte	KEYSH , DDLC_key+0
@ 000   ----------------------------------------
	.byte		VOICE , 56
	.byte		VOL   , 48*DDLC_mvl/mxv
	.byte		PAN   , c_v+0
	.byte		BEND  , c_v+0
	.byte	W60
DDLC_12_B1:
	.byte	W36
@ 001   ----------------------------------------
	.byte	W96
@ 002   ----------------------------------------
	.byte	W96
@ 003   ----------------------------------------
	.byte	W96
@ 004   ----------------------------------------
	.byte	W96
@ 005   ----------------------------------------
	.byte	W96
@ 006   ----------------------------------------
	.byte	W96
@ 007   ----------------------------------------
	.byte	W96
@ 008   ----------------------------------------
	.byte	W96
@ 009   ----------------------------------------
	.byte	W96
@ 010   ----------------------------------------
	.byte	W96
@ 011   ----------------------------------------
	.byte	W96
@ 012   ----------------------------------------
	.byte	W96
@ 013   ----------------------------------------
	.byte	W96
@ 014   ----------------------------------------
	.byte	W96
@ 015   ----------------------------------------
	.byte	W96
@ 016   ----------------------------------------
DDLC_12_016:
	.byte	W11
	.byte		N06   , Gn4 , v124
	.byte	W06
	.byte		N06   
	.byte	W18
	.byte		N24   
	.byte	W24
	.byte		        Fn4 
	.byte	W24
	.byte		N12   , En4 
	.byte	W12
	.byte		        Cn4 
	.byte	W01
	.byte	PEND
@ 017   ----------------------------------------
DDLC_12_017:
	.byte	W11
	.byte		N06   , Cs4 , v124
	.byte	W06
	.byte		N12   , Dn4 
	.byte	W15
	.byte		N03   , En4 
	.byte	W03
	.byte		N18   , Fn4 
	.byte	W21
	.byte		N03   , Fs4 
	.byte	W03
	.byte		N12   , Gn4 
	.byte	W36
	.byte	W01
	.byte	PEND
@ 018   ----------------------------------------
DDLC_12_018:
	.byte	W11
	.byte		N12   , An4 , v124
	.byte	W12
	.byte		N06   , Gn4 
	.byte	W06
	.byte		N12   , En4 
	.byte	W12
	.byte		N30   , Dn4 
	.byte	W30
	.byte		N12   , Gn3 
	.byte	W12
	.byte		N06   , An3 
	.byte	W06
	.byte		N18   , Cn4 
	.byte	W07
	.byte	PEND
@ 019   ----------------------------------------
DDLC_12_019:
	.byte	W11
	.byte		N12   , An3 , v124
	.byte	W12
	.byte		N06   , Cn4 
	.byte	W06
	.byte		        Dn4 
	.byte	W06
	.byte		N36   , Cn4 
	.byte	W60
	.byte	W01
	.byte	PEND
@ 020   ----------------------------------------
	.byte	PATT
	 .word	DDLC_12_016
@ 021   ----------------------------------------
	.byte	PATT
	 .word	DDLC_12_017
@ 022   ----------------------------------------
	.byte	PATT
	 .word	DDLC_12_018
@ 023   ----------------------------------------
	.byte	PATT
	 .word	DDLC_12_019
@ 024   ----------------------------------------
	.byte	W96
@ 025   ----------------------------------------
	.byte	W96
@ 026   ----------------------------------------
	.byte	W96
@ 027   ----------------------------------------
	.byte	W96
@ 028   ----------------------------------------
	.byte	W96
@ 029   ----------------------------------------
	.byte	W11
	.byte		N06   , Gn4 , v124
	.byte	W06
	.byte		        An4 
	.byte	W06
	.byte		        Gn4 
	.byte	W06
	.byte		N12   , En4 
	.byte	W12
	.byte		        Dn4 
	.byte	W12
	.byte		N06   , Bn3 
	.byte	W06
	.byte		        An3 
	.byte	W06
	.byte		N12   , Gn3 
	.byte	W12
	.byte		N06   
	.byte	W06
	.byte		N12   , En4 
	.byte	W12
	.byte		        Cn4 
	.byte		N12   , Fn4 
	.byte	W01
@ 030   ----------------------------------------
	.byte	W17
	.byte		        Cn4 
	.byte		N12   , En4 
	.byte	W18
	.byte		        En3 
	.byte		N12   , Gn3 
	.byte	W18
	.byte		N18   , Cn3 
	.byte		N18   , En3 
	.byte	W24
	.byte		N06   , Bn3 
	.byte	W06
	.byte		N12   , En4 
	.byte	W12
	.byte		N36   , An3 
	.byte		N36   , Dn4 
	.byte	W01
@ 031   ----------------------------------------
	.byte	W96
@ 032   ----------------------------------------
	.byte	W96
@ 033   ----------------------------------------
DDLC_12_033:
	.byte	W92
	.byte	W03
	.byte		N06   , Gn5 , v124
	.byte	W01
	.byte	PEND
@ 034   ----------------------------------------
	.byte	W11
	.byte		N12   , En5 
	.byte	W12
	.byte		N06   , Fn5 
	.byte	W12
	.byte		N12   , Dn5 
	.byte	W12
	.byte		N06   , En5 
	.byte	W12
	.byte		N12   , Cn5 
	.byte	W12
	.byte		N06   , Dn5 
	.byte	W12
	.byte		N09   , An4 
	.byte	W09
	.byte		N03   , Fn4 
	.byte	W03
	.byte		N06   , Gn4 
	.byte	W01
@ 035   ----------------------------------------
	.byte	W11
	.byte		N09   , En4 
	.byte	W09
	.byte		N03   , Fn4 
	.byte	W03
	.byte		N06   , Gn4 
	.byte	W09
	.byte		N09   , An5 
	.byte	W15
	.byte		N24   , Gn5 
	.byte	W48
	.byte	W01
@ 036   ----------------------------------------
	.byte	W96
@ 037   ----------------------------------------
	.byte	PATT
	 .word	DDLC_12_033
@ 038   ----------------------------------------
	.byte	W11
	.byte		N12   , En5 , v124
	.byte	W12
	.byte		N06   , Fn5 
	.byte	W12
	.byte		N12   , Dn5 
	.byte	W12
	.byte		N06   , En5 
	.byte	W12
	.byte		N12   , Cn5 
	.byte	W12
	.byte		N06   , Dn5 
	.byte	W12
	.byte		N09   , An4 
	.byte	W12
	.byte		N12   , Fn5 
	.byte	W01
@ 039   ----------------------------------------
	.byte	W11
	.byte		N12   
	.byte	W12
	.byte		        Ds5 
	.byte	W12
	.byte		        Cn5 
	.byte	W12
	.byte		        Dn5 
	.byte	W12
	.byte		        As4 
	.byte	W12
	.byte		        Ds5 
	.byte	W12
	.byte		        An4 
	.byte	W12
	.byte		        Fn4 
	.byte	W01
@ 040   ----------------------------------------
	.byte	W11
	.byte		        An4 
	.byte	W24
	.byte		        Cn5 
	.byte	W12
	.byte		        Gn4 
	.byte	W12
	.byte		        Bn4 
	.byte	W24
	.byte		        Dn5 
	.byte	W12
	.byte		N06   , Fn4 
	.byte	W01
@ 041   ----------------------------------------
	.byte	W05
	.byte		        Gn4 
	.byte	W06
	.byte		        An4 
	.byte	W12
	.byte		N06   
	.byte	W06
	.byte		        Gn4 
	.byte	W06
	.byte		        An4 
	.byte	W12
	.byte		        Bn4 
	.byte	W06
	.byte		        Gn4 
	.byte	W06
	.byte		        An4 
	.byte	W06
	.byte		        Bn4 
	.byte	W06
	.byte		        Dn5 
	.byte	W06
	.byte		        Fs5 
	.byte	W06
	.byte		        Gn5 
	.byte	W13
@ 042   ----------------------------------------
	.byte	PATT
	 .word	DDLC_12_016
@ 043   ----------------------------------------
	.byte	PATT
	 .word	DDLC_12_017
@ 044   ----------------------------------------
	.byte	PATT
	 .word	DDLC_12_018
@ 045   ----------------------------------------
	.byte	PATT
	 .word	DDLC_12_019
@ 046   ----------------------------------------
	.byte	PATT
	 .word	DDLC_12_016
@ 047   ----------------------------------------
	.byte	PATT
	 .word	DDLC_12_017
@ 048   ----------------------------------------
	.byte	PATT
	 .word	DDLC_12_018
@ 049   ----------------------------------------
	.byte	W11
	.byte		N12   , An3 , v124
	.byte	W12
	.byte		N06   , Cn4 
	.byte	W06
	.byte		        Dn4 
	.byte	W06
	.byte		N36   , Cn4 
	.byte	W36
	.byte		N12   , Gn3 
	.byte	W12
	.byte		N06   , An3 
	.byte	W06
	.byte		N18   , Cn4 
	.byte	W07
@ 050   ----------------------------------------
	.byte	W11
	.byte		N12   , An3 
	.byte	W12
	.byte		N06   , Cn4 
	.byte	W06
	.byte		        Dn4 
	.byte	W06
	.byte		N24   , Cn4 
	.byte	W24
	.byte		        En4 
	.byte	W24
	.byte		N12   , Fn4 
	.byte	W12
	.byte		N12   
	.byte	W01
@ 051   ----------------------------------------
	.byte	W11
	.byte		N06   , En4 
	.byte	W06
	.byte		N12   , Cn4 
	.byte	W12
	.byte		N06   , An3 
	.byte	W06
	.byte		N24   , Cn4 
	.byte	W24
	.byte		        Gn4 
	.byte	W36
	.byte	W01
@ 052   ----------------------------------------
	.byte	W96
@ 053   ----------------------------------------
	.byte	W96
@ 054   ----------------------------------------
	.byte	W96
@ 055   ----------------------------------------
	.byte	W96
@ 056   ----------------------------------------
	.byte	W96
@ 057   ----------------------------------------
	.byte	W96
@ 058   ----------------------------------------
	.byte	W60
	.byte	GOTO
	 .word	DDLC_12_B1
DDLC_12_B2:
	.byte	W36
@ 059   ----------------------------------------
	.byte	W96
@ 060   ----------------------------------------
	.byte	W60
	.byte	FINE

@**************** Track 13 (Midi-Chn.14) ****************@

DDLC_13:
	.byte	KEYSH , DDLC_key+0
@ 000   ----------------------------------------
	.byte		VOICE , 79
	.byte		VOL   , 51*DDLC_mvl/mxv
	.byte		PAN   , c_v+0
	.byte		BEND  , c_v+0
	.byte	W60
DDLC_13_B1:
	.byte	W36
@ 001   ----------------------------------------
	.byte	W96
@ 002   ----------------------------------------
	.byte	W96
@ 003   ----------------------------------------
	.byte	W96
@ 004   ----------------------------------------
	.byte	W96
@ 005   ----------------------------------------
	.byte	W96
@ 006   ----------------------------------------
	.byte	W96
@ 007   ----------------------------------------
	.byte	W96
@ 008   ----------------------------------------
	.byte	W96
@ 009   ----------------------------------------
	.byte	W96
@ 010   ----------------------------------------
	.byte	W96
@ 011   ----------------------------------------
	.byte	W96
@ 012   ----------------------------------------
	.byte	W96
@ 013   ----------------------------------------
	.byte	W96
@ 014   ----------------------------------------
	.byte	W96
@ 015   ----------------------------------------
	.byte	W96
@ 016   ----------------------------------------
DDLC_13_016:
	.byte	W11
	.byte		N06   , Gn4 , v124
	.byte	W06
	.byte		N06   
	.byte	W18
	.byte		N24   
	.byte	W24
	.byte		        Fn4 
	.byte	W24
	.byte		N12   , En4 
	.byte	W12
	.byte		        Cn4 
	.byte	W01
	.byte	PEND
@ 017   ----------------------------------------
DDLC_13_017:
	.byte	W11
	.byte		N06   , Cs4 , v124
	.byte	W06
	.byte		N12   , Dn4 
	.byte	W15
	.byte		N03   , En4 
	.byte	W03
	.byte		N18   , Fn4 
	.byte	W21
	.byte		N03   , Fs4 
	.byte	W03
	.byte		N12   , Gn4 
	.byte	W36
	.byte	W01
	.byte	PEND
@ 018   ----------------------------------------
DDLC_13_018:
	.byte	W11
	.byte		N12   , An4 , v124
	.byte	W12
	.byte		N06   , Gn4 
	.byte	W06
	.byte		N12   , En4 
	.byte	W12
	.byte		N30   , Dn4 
	.byte	W30
	.byte		N12   , Gn3 
	.byte	W12
	.byte		N06   , An3 
	.byte	W06
	.byte		N18   , Cn4 
	.byte	W07
	.byte	PEND
@ 019   ----------------------------------------
DDLC_13_019:
	.byte	W11
	.byte		N12   , An3 , v124
	.byte	W12
	.byte		N06   , Cn4 
	.byte	W06
	.byte		        Dn4 
	.byte	W06
	.byte		N36   , Cn4 
	.byte	W60
	.byte	W01
	.byte	PEND
@ 020   ----------------------------------------
	.byte	PATT
	 .word	DDLC_13_016
@ 021   ----------------------------------------
	.byte	PATT
	 .word	DDLC_13_017
@ 022   ----------------------------------------
	.byte	PATT
	 .word	DDLC_13_018
@ 023   ----------------------------------------
	.byte	PATT
	 .word	DDLC_13_019
@ 024   ----------------------------------------
	.byte	W96
@ 025   ----------------------------------------
	.byte	W96
@ 026   ----------------------------------------
	.byte	W96
@ 027   ----------------------------------------
	.byte	W96
@ 028   ----------------------------------------
	.byte	W96
@ 029   ----------------------------------------
	.byte	W11
	.byte		N06   , Gn4 , v124
	.byte	W06
	.byte		        An4 
	.byte	W06
	.byte		        Gn4 
	.byte	W06
	.byte		N12   , En4 
	.byte	W12
	.byte		        Dn4 
	.byte	W12
	.byte		N06   , Bn3 
	.byte	W06
	.byte		        An3 
	.byte	W06
	.byte		N12   , Gn3 
	.byte	W12
	.byte		N06   
	.byte	W06
	.byte		N12   , En4 
	.byte	W12
	.byte		        Cn4 
	.byte		N12   , Fn4 
	.byte	W01
@ 030   ----------------------------------------
	.byte	W17
	.byte		        Cn4 
	.byte		N12   , En4 
	.byte	W18
	.byte		        En3 
	.byte		N12   , Gn3 
	.byte	W18
	.byte		N18   , Cn3 
	.byte		N18   , En3 
	.byte	W24
	.byte		N06   , Bn3 
	.byte	W06
	.byte		N12   , En4 
	.byte	W12
	.byte		N36   , An3 
	.byte		N36   , Dn4 
	.byte	W01
@ 031   ----------------------------------------
	.byte	W96
@ 032   ----------------------------------------
	.byte	W96
@ 033   ----------------------------------------
DDLC_13_033:
	.byte	W92
	.byte	W03
	.byte		N06   , Gn5 , v124
	.byte	W01
	.byte	PEND
@ 034   ----------------------------------------
	.byte	W11
	.byte		N12   , En5 
	.byte	W12
	.byte		N06   , Fn5 
	.byte	W12
	.byte		N12   , Dn5 
	.byte	W12
	.byte		N06   , En5 
	.byte	W12
	.byte		N12   , Cn5 
	.byte	W12
	.byte		N06   , Dn5 
	.byte	W12
	.byte		N09   , An4 
	.byte	W09
	.byte		N03   , Fn4 
	.byte	W03
	.byte		N06   , Gn4 
	.byte	W01
@ 035   ----------------------------------------
	.byte	W11
	.byte		N09   , En4 
	.byte	W09
	.byte		N03   , Fn4 
	.byte	W03
	.byte		N06   , Gn4 
	.byte	W09
	.byte		N09   , An5 
	.byte	W15
	.byte		N24   , Gn5 
	.byte	W48
	.byte	W01
@ 036   ----------------------------------------
	.byte	W96
@ 037   ----------------------------------------
	.byte	PATT
	 .word	DDLC_13_033
@ 038   ----------------------------------------
	.byte	W11
	.byte		N12   , En5 , v124
	.byte	W12
	.byte		N06   , Fn5 
	.byte	W12
	.byte		N12   , Dn5 
	.byte	W12
	.byte		N06   , En5 
	.byte	W12
	.byte		N12   , Cn5 
	.byte	W12
	.byte		N06   , Dn5 
	.byte	W12
	.byte		N09   , An4 
	.byte	W12
	.byte		N12   , Fn5 
	.byte	W01
@ 039   ----------------------------------------
	.byte	W11
	.byte		N12   
	.byte	W12
	.byte		        Ds5 
	.byte	W12
	.byte		        Cn5 
	.byte	W12
	.byte		        Dn5 
	.byte	W12
	.byte		        As4 
	.byte	W12
	.byte		        Ds5 
	.byte	W12
	.byte		        An4 
	.byte	W12
	.byte		        Fn4 
	.byte	W01
@ 040   ----------------------------------------
	.byte	W11
	.byte		        An4 
	.byte	W24
	.byte		        Cn5 
	.byte	W12
	.byte		        Gn4 
	.byte	W12
	.byte		        Bn4 
	.byte	W24
	.byte		        Dn5 
	.byte	W12
	.byte		N06   , Fn4 
	.byte	W01
@ 041   ----------------------------------------
	.byte	W05
	.byte		        Gn4 
	.byte	W06
	.byte		        An4 
	.byte	W12
	.byte		N06   
	.byte	W06
	.byte		        Gn4 
	.byte	W06
	.byte		        An4 
	.byte	W12
	.byte		        Bn4 
	.byte	W06
	.byte		        Gn4 
	.byte	W06
	.byte		        An4 
	.byte	W06
	.byte		        Bn4 
	.byte	W06
	.byte		        Dn5 
	.byte	W06
	.byte		        Fs5 
	.byte	W06
	.byte		        Gn5 
	.byte	W13
@ 042   ----------------------------------------
	.byte	PATT
	 .word	DDLC_13_016
@ 043   ----------------------------------------
	.byte	PATT
	 .word	DDLC_13_017
@ 044   ----------------------------------------
	.byte	PATT
	 .word	DDLC_13_018
@ 045   ----------------------------------------
	.byte	PATT
	 .word	DDLC_13_019
@ 046   ----------------------------------------
	.byte	PATT
	 .word	DDLC_13_016
@ 047   ----------------------------------------
	.byte	PATT
	 .word	DDLC_13_017
@ 048   ----------------------------------------
	.byte	PATT
	 .word	DDLC_13_018
@ 049   ----------------------------------------
	.byte	W11
	.byte		N12   , An3 , v124
	.byte	W12
	.byte		N06   , Cn4 
	.byte	W06
	.byte		        Dn4 
	.byte	W06
	.byte		N36   , Cn4 
	.byte	W36
	.byte		N12   , Gn3 
	.byte	W12
	.byte		N06   , An3 
	.byte	W06
	.byte		N18   , Cn4 
	.byte	W07
@ 050   ----------------------------------------
	.byte	W11
	.byte		N12   , An3 
	.byte	W12
	.byte		N06   , Cn4 
	.byte	W06
	.byte		        Dn4 
	.byte	W06
	.byte		N24   , Cn4 
	.byte	W24
	.byte		        En4 
	.byte	W24
	.byte		N12   , Fn4 
	.byte	W12
	.byte		N12   
	.byte	W01
@ 051   ----------------------------------------
	.byte	W11
	.byte		N06   , En4 
	.byte	W06
	.byte		N12   , Cn4 
	.byte	W12
	.byte		N06   , An3 
	.byte	W06
	.byte		N24   , Cn4 
	.byte	W24
	.byte		        Gn4 
	.byte	W36
	.byte	W01
@ 052   ----------------------------------------
	.byte	W96
@ 053   ----------------------------------------
	.byte	W96
@ 054   ----------------------------------------
	.byte	W96
@ 055   ----------------------------------------
	.byte	W96
@ 056   ----------------------------------------
	.byte	W96
@ 057   ----------------------------------------
	.byte	W96
@ 058   ----------------------------------------
	.byte	W60
	.byte	GOTO
	 .word	DDLC_13_B1
DDLC_13_B2:
	.byte	W36
@ 059   ----------------------------------------
	.byte	W96
@ 060   ----------------------------------------
	.byte	W60
	.byte	FINE

@******************************************************@
	.align	2

DDLC:
	.byte	13	@ NumTrks
	.byte	0	@ NumBlks
	.byte	DDLC_pri	@ Priority
	.byte	DDLC_rev	@ Reverb.

	.word	DDLC_grp

	.word	DDLC_1
	.word	DDLC_2
	.word	DDLC_3
	.word	DDLC_4
	.word	DDLC_5
	.word	DDLC_6
	.word	DDLC_7
	.word	DDLC_8
	.word	DDLC_9
	.word	DDLC_10
	.word	DDLC_11
	.word	DDLC_12
	.word	DDLC_13

	.end
