	.include "MPlayDef.s"

	.equ	song0146_grp, voicegroup000
	.equ	song0146_pri, 0
	.equ	song0146_rev, 0
	.equ	song0146_mvl, 127
	.equ	song0146_key, 0
	.equ	song0146_tbs, 1
	.equ	song0146_exg, 0
	.equ	song0146_cmp, 1

	.section .rodata
	.global	song0146
	.align	2


@**************** Track 1 (Midi-Chn.0) ****************@

song0146_001:
@ 000   ----------------------------------------
 .byte   VOL , 50*song0146_mvl/mxv
 .byte   KEYSH , song0146_key+0
 .byte   TEMPO , 88*song0146_tbs/2
 .byte   VOICE , 19
 .byte   TIE ,An3 ,v112
 .byte   W48
 .byte   N12 ,Gn3
 .byte   W12
 .byte   Fn3
 .byte   W12
 .byte   En3
 .byte   W12
 .byte   Dn3
 .byte   W12
@ 001   ----------------------------------------
 .byte   Cs3
 .byte   W24
 .byte   TIE ,An2
 .byte   W24
 .byte   EOT
 .byte   An3
 .byte   N12
 .byte   W12
 .byte   As3
 .byte   W12
 .byte   Gn3
 .byte   W12
 .byte   An3
 .byte   W12
@ 002   ----------------------------------------
 .byte   Fn3
 .byte   W12
 .byte   Gn3
 .byte   W12
 .byte   TEMPO , 164*song0146_tbs/2
 .byte   TIE ,En3
 .byte   W68
Label_0_017B2D9D:
 .byte   W04
@ 003   ----------------------------------------
 .byte   W96
@ 004   ----------------------------------------
 .byte   W96
@ 005   ----------------------------------------
 .byte   W96
@ 006   ----------------------------------------
 .byte   W96
@ 007   ----------------------------------------
 .byte   EOT
 .byte   An2 ,v064
 .byte   W96
@ 008   ----------------------------------------
 .byte   W96
@ 009   ----------------------------------------
 .byte   W96
@ 010   ----------------------------------------
 .byte   W96
@ 011   ----------------------------------------
 .byte   W96
@ 012   ----------------------------------------
 .byte   W96
@ 013   ----------------------------------------
 .byte   W96
@ 014   ----------------------------------------
 .byte   W96
@ 015   ----------------------------------------
 .byte   W96
@ 016   ----------------------------------------
 .byte   W96
@ 017   ----------------------------------------
 .byte   W96
@ 018   ----------------------------------------
 .byte   W96
@ 019   ----------------------------------------
 .byte   W96
@ 020   ----------------------------------------
 .byte   W96
@ 021   ----------------------------------------
 .byte   W96
@ 022   ----------------------------------------
 .byte   W96
@ 023   ----------------------------------------
 .byte   W96
@ 024   ----------------------------------------
 .byte   W96
@ 025   ----------------------------------------
 .byte   W96
@ 026   ----------------------------------------
 .byte   W96
@ 027   ----------------------------------------
 .byte   W24
 .byte   N24 ,An3 ,v112
 .byte   W24
 .byte   N12 ,Gn3
 .byte   W12
 .byte   Fn3
 .byte   W12
 .byte   En3
 .byte   W12
 .byte   Dn3
 .byte   W12
@ 028   ----------------------------------------
 .byte   N24 ,Cs3
 .byte   W24
 .byte   N72 ,An2
 .byte   W72
@ 029   ----------------------------------------
 .byte   W96
@ 030   ----------------------------------------
 .byte   W96
@ 031   ----------------------------------------
 .byte   W96
@ 032   ----------------------------------------
 .byte   W12
 .byte   N12 ,Cn4 ,v116
 .byte   W12
 .byte   As3
 .byte   W12
 .byte   An3
 .byte   W12
 .byte   Gn3
 .byte   W12
 .byte   Fn3
 .byte   W12
 .byte   N96 ,En3
 .byte   W24
@ 033   ----------------------------------------
 .byte   W72
 .byte   N24 ,Dn3
 .byte   W24
@ 034   ----------------------------------------
 .byte   W96
@ 035   ----------------------------------------
 .byte   W72
 .byte   N12 ,En3
 .byte   W12
 .byte   Fn3
 .byte   W12
@ 036   ----------------------------------------
 .byte   N72 ,Gn3
 .byte   W72
 .byte   N12 ,Dn3
 .byte   W12
 .byte   En3
 .byte   W12
@ 037   ----------------------------------------
 .byte   N72 ,Fn3
 .byte   W72
 .byte   N12 ,Gn3
 .byte   W12
 .byte   Fn3
 .byte   W12
@ 038   ----------------------------------------
 .byte   N96 ,En3
 .byte   W96
@ 039   ----------------------------------------
 .byte   An3
 .byte   W96
@ 040   ----------------------------------------
 .byte   W96
@ 041   ----------------------------------------
 .byte   W96
@ 042   ----------------------------------------
 .byte   W96
@ 043   ----------------------------------------
 .byte   W96
@ 044   ----------------------------------------
 .byte   W96
@ 045   ----------------------------------------
 .byte   W96
@ 046   ----------------------------------------
 .byte   W96
@ 047   ----------------------------------------
 .byte   W96
@ 048   ----------------------------------------
 .byte   W96
@ 049   ----------------------------------------
 .byte   W96
@ 050   ----------------------------------------
 .byte   W96
@ 051   ----------------------------------------
 .byte   W96
@ 052   ----------------------------------------
 .byte   W96
@ 053   ----------------------------------------
 .byte   W96
@ 054   ----------------------------------------
 .byte   W96
@ 055   ----------------------------------------
 .byte   W96
@ 056   ----------------------------------------
 .byte   W96
@ 057   ----------------------------------------
 .byte   W96
@ 058   ----------------------------------------
 .byte   W96
@ 059   ----------------------------------------
 .byte   W96
@ 060   ----------------------------------------
 .byte   W96
@ 061   ----------------------------------------
 .byte   W96
@ 062   ----------------------------------------
 .byte   W96
@ 063   ----------------------------------------
 .byte   W96
@ 064   ----------------------------------------
 .byte   W96
@ 065   ----------------------------------------
 .byte   W96
@ 066   ----------------------------------------
 .byte   W96
@ 067   ----------------------------------------
 .byte   W96
@ 068   ----------------------------------------
 .byte   W96
@ 069   ----------------------------------------
 .byte   W96
@ 070   ----------------------------------------
 .byte   W96
@ 071   ----------------------------------------
 .byte   W96
@ 072   ----------------------------------------
 .byte   W96
@ 073   ----------------------------------------
 .byte   W96
@ 074   ----------------------------------------
 .byte   W96
@ 075   ----------------------------------------
 .byte   W96
@ 076   ----------------------------------------
 .byte   W96
@ 077   ----------------------------------------
 .byte   W96
@ 078   ----------------------------------------
 .byte   W96
@ 079   ----------------------------------------
 .byte   W96
@ 080   ----------------------------------------
 .byte   W96
@ 081   ----------------------------------------
 .byte   W96
@ 082   ----------------------------------------
 .byte   W96
@ 083   ----------------------------------------
 .byte   W96
@ 084   ----------------------------------------
 .byte   W96
@ 085   ----------------------------------------
 .byte   W96
@ 086   ----------------------------------------
 .byte   W96
@ 087   ----------------------------------------
 .byte   W96
@ 088   ----------------------------------------
 .byte   W96
@ 089   ----------------------------------------
 .byte   W96
@ 090   ----------------------------------------
 .byte   W96
@ 091   ----------------------------------------
 .byte   W96
@ 092   ----------------------------------------
 .byte   W96
@ 093   ----------------------------------------
 .byte   W96
@ 094   ----------------------------------------
 .byte   W96
@ 095   ----------------------------------------
 .byte   W92
 .byte   W03
 .byte   GOTO
  .word Label_0_017B2D9D
@ 096   ----------------------------------------
 .byte   W01
 .byte   FINE

@**************** Track 2 (Midi-Chn.1) ****************@

song0146_002:
@ 000   ----------------------------------------
 .byte   VOL , 45*song0146_mvl/mxv
 .byte   KEYSH , song0146_key+0
 .byte   VOICE , 40
 .byte   N48 ,An0 ,v100
 .byte   W48
 .byte   N12 ,Gn1
 .byte   W12
 .byte   Fn1
 .byte   W12
 .byte   En1
 .byte   W12
 .byte   Dn1
 .byte   W12
@ 001   ----------------------------------------
 .byte   N24 ,Cs1
 .byte   W24
 .byte   TIE ,An0
 .byte   W72
@ 002   ----------------------------------------
 .byte   W92
Label_1_017B2E5A:
 .byte   W04
@ 003   ----------------------------------------
 .byte   EOT
 .byte   An0
 .byte   N96 ,As0 ,v100
 .byte   W96
@ 004   ----------------------------------------
 .byte   Bn0
 .byte   W96
@ 005   ----------------------------------------
 .byte   Cn1
 .byte   W96
@ 006   ----------------------------------------
 .byte   Cs1
 .byte   W96
@ 007   ----------------------------------------
 .byte   TIE ,Dn1
 .byte   W96
@ 008   ----------------------------------------
 .byte   W96
@ 009   ----------------------------------------
 .byte   W96
@ 010   ----------------------------------------
 .byte   W96
@ 011   ----------------------------------------
 .byte   EOT
 .byte   TIE ,As0
 .byte   W96
@ 012   ----------------------------------------
 .byte   W96
@ 013   ----------------------------------------
 .byte   EOT
 .byte   N96 ,Cn1
 .byte   W96
@ 014   ----------------------------------------
 .byte   Cs1
 .byte   W96
@ 015   ----------------------------------------
 .byte   TIE ,Dn1
 .byte   W96
@ 016   ----------------------------------------
 .byte   W96
@ 017   ----------------------------------------
 .byte   EOT
 .byte   N96
 .byte   W96
@ 018   ----------------------------------------
 .byte   Cs1
 .byte   W96
@ 019   ----------------------------------------
 .byte   TIE ,Dn1
 .byte   W96
@ 020   ----------------------------------------
 .byte   W96
@ 021   ----------------------------------------
 .byte   W96
@ 022   ----------------------------------------
 .byte   W96
@ 023   ----------------------------------------
 .byte   EOT
 .byte   W96
@ 024   ----------------------------------------
 .byte   W96
@ 025   ----------------------------------------
 .byte   TIE
 .byte   W96
@ 026   ----------------------------------------
 .byte   W96
@ 027   ----------------------------------------
 .byte   EOT
 .byte   TIE
 .byte   W96
@ 028   ----------------------------------------
 .byte   W96
@ 029   ----------------------------------------
 .byte   W96
@ 030   ----------------------------------------
 .byte   W96
@ 031   ----------------------------------------
 .byte   W96
@ 032   ----------------------------------------
 .byte   W96
@ 033   ----------------------------------------
 .byte   W96
@ 034   ----------------------------------------
 .byte   W96
@ 035   ----------------------------------------
 .byte   W96
@ 036   ----------------------------------------
 .byte   EOT
 .byte   W96
@ 037   ----------------------------------------
 .byte   W96
@ 038   ----------------------------------------
 .byte   W96
@ 039   ----------------------------------------
 .byte   W96
@ 040   ----------------------------------------
 .byte   TIE ,An0
 .byte   W96
@ 041   ----------------------------------------
 .byte   W96
@ 042   ----------------------------------------
 .byte   W96
@ 043   ----------------------------------------
 .byte   W96
@ 044   ----------------------------------------
 .byte   W96
@ 045   ----------------------------------------
 .byte   W96
@ 046   ----------------------------------------
 .byte   W96
@ 047   ----------------------------------------
 .byte   W96
@ 048   ----------------------------------------
 .byte   EOT
 .byte   W96
@ 049   ----------------------------------------
 .byte   W96
@ 050   ----------------------------------------
 .byte   W96
@ 051   ----------------------------------------
 .byte   W96
@ 052   ----------------------------------------
 .byte   W96
@ 053   ----------------------------------------
 .byte   W96
@ 054   ----------------------------------------
 .byte   W96
@ 055   ----------------------------------------
 .byte   W96
@ 056   ----------------------------------------
 .byte   W96
@ 057   ----------------------------------------
 .byte   W96
@ 058   ----------------------------------------
 .byte   W96
@ 059   ----------------------------------------
 .byte   W96
@ 060   ----------------------------------------
 .byte   W96
@ 061   ----------------------------------------
 .byte   W96
@ 062   ----------------------------------------
 .byte   W96
@ 063   ----------------------------------------
 .byte   W96
@ 064   ----------------------------------------
 .byte   TIE ,Ds1
 .byte   W96
@ 065   ----------------------------------------
 .byte   W96
@ 066   ----------------------------------------
 .byte   W96
@ 067   ----------------------------------------
 .byte   W96
@ 068   ----------------------------------------
 .byte   EOT
 .byte   TIE ,Bn0
 .byte   W96
@ 069   ----------------------------------------
 .byte   W96
@ 070   ----------------------------------------
 .byte   EOT
 .byte   N96 ,Cs1
 .byte   W96
@ 071   ----------------------------------------
 .byte   Dn1
 .byte   W96
@ 072   ----------------------------------------
 .byte   TIE ,Ds1
 .byte   W96
@ 073   ----------------------------------------
 .byte   W96
@ 074   ----------------------------------------
 .byte   EOT
 .byte   N96
 .byte   W96
@ 075   ----------------------------------------
 .byte   Dn1
 .byte   W96
@ 076   ----------------------------------------
 .byte   TIE ,Ds1
 .byte   W96
@ 077   ----------------------------------------
 .byte   W96
@ 078   ----------------------------------------
 .byte   W96
@ 079   ----------------------------------------
 .byte   W96
@ 080   ----------------------------------------
 .byte   EOT
 .byte   TIE ,Bn0
 .byte   W96
@ 081   ----------------------------------------
 .byte   W96
@ 082   ----------------------------------------
 .byte   EOT
 .byte   N96 ,Cs1
 .byte   W96
@ 083   ----------------------------------------
 .byte   Dn1
 .byte   W96
@ 084   ----------------------------------------
 .byte   TIE ,Ds1
 .byte   W96
@ 085   ----------------------------------------
 .byte   W96
@ 086   ----------------------------------------
 .byte   EOT
 .byte   N96
 .byte   W96
@ 087   ----------------------------------------
 .byte   Dn1
 .byte   W96
@ 088   ----------------------------------------
 .byte   TIE ,Ds1
 .byte   W96
@ 089   ----------------------------------------
 .byte   W96
@ 090   ----------------------------------------
 .byte   W96
@ 091   ----------------------------------------
 .byte   W96
@ 092   ----------------------------------------
 .byte   EOT
 .byte   W96
@ 093   ----------------------------------------
 .byte   W96
@ 094   ----------------------------------------
 .byte   TIE
 .byte   W96
@ 095   ----------------------------------------
 .byte   W92
 .byte   W03
 .byte   GOTO
  .word Label_1_017B2E5A
@ 096   ----------------------------------------
 .byte   W01
 .byte   EOT
 .byte   Ds1
 .byte   FINE

@**************** Track 3 (Midi-Chn.2) ****************@

song0146_003:
@ 000   ----------------------------------------
 .byte   VOL , 45*song0146_mvl/mxv
 .byte   KEYSH , song0146_key+0
 .byte   VOICE , 40
 .byte   W96
@ 001   ----------------------------------------
 .byte   W96
@ 002   ----------------------------------------
 .byte   W92
Label_2_017B2F0D:
 .byte   W04
@ 003   ----------------------------------------
 .byte   N12 ,Gn2 ,v088
 .byte   N12 ,Dn3
 .byte   W12
 .byte   Gn2
 .byte   N12 ,Dn3
 .byte   W12
 .byte   Gn2
 .byte   N12 ,Dn3
 .byte   W12
 .byte   Gn2
 .byte   N12 ,Dn3
 .byte   W12
 .byte   Gn2
 .byte   N12 ,Dn3
 .byte   W12
 .byte   Gn2
 .byte   N12 ,Dn3
 .byte   W12
 .byte   Gn2
 .byte   N12 ,Dn3
 .byte   W12
 .byte   Gn2
 .byte   N12 ,Dn3
 .byte   W12
@ 004   ----------------------------------------
 .byte   An2
 .byte   N12 ,En3
 .byte   W12
 .byte   An2
 .byte   N12 ,En3
 .byte   W12
 .byte   An2
 .byte   N12 ,En3
 .byte   W12
 .byte   An2
 .byte   N12 ,En3
 .byte   W12
 .byte   An2
 .byte   N12 ,En3
 .byte   W12
 .byte   An2
 .byte   N12 ,En3
 .byte   W12
 .byte   An2
 .byte   N12 ,En3
 .byte   W12
 .byte   An2
 .byte   N12 ,En3
 .byte   W12
@ 005   ----------------------------------------
 .byte   As2
 .byte   N12 ,Fn3
 .byte   W12
 .byte   As2
 .byte   N12 ,Fn3
 .byte   W12
 .byte   As2
 .byte   N12 ,Fn3
 .byte   W12
 .byte   As2
 .byte   N12 ,Fn3
 .byte   W12
 .byte   As2
 .byte   N12 ,Fn3
 .byte   W12
 .byte   As2
 .byte   N12 ,Fn3
 .byte   W12
 .byte   As2
 .byte   N12 ,Fn3
 .byte   W12
 .byte   As2
 .byte   N12 ,Fn3
 .byte   W12
@ 006   ----------------------------------------
 .byte   Cn3 ,v127
 .byte   N12 ,Gn3
 .byte   W12
 .byte   Cn3
 .byte   N12 ,Gn3
 .byte   W12
 .byte   Cn3
 .byte   N12 ,Gn3
 .byte   W12
 .byte   Cn3
 .byte   N12 ,Gn3
 .byte   W12
 .byte   Cn3
 .byte   N12 ,Gn3
 .byte   W12
 .byte   Cn3
 .byte   N12 ,Gn3
 .byte   W12
 .byte   Cn3
 .byte   N12 ,Gn3
 .byte   W12
 .byte   Cn3
 .byte   N12 ,Gn3
 .byte   W12
@ 007   ----------------------------------------
 .byte   W96
@ 008   ----------------------------------------
 .byte   W96
@ 009   ----------------------------------------
 .byte   W96
@ 010   ----------------------------------------
 .byte   W96
@ 011   ----------------------------------------
 .byte   W96
@ 012   ----------------------------------------
 .byte   W96
@ 013   ----------------------------------------
 .byte   W96
@ 014   ----------------------------------------
 .byte   W96
@ 015   ----------------------------------------
 .byte   W96
@ 016   ----------------------------------------
 .byte   W96
@ 017   ----------------------------------------
 .byte   W96
@ 018   ----------------------------------------
 .byte   W96
@ 019   ----------------------------------------
 .byte   W96
@ 020   ----------------------------------------
 .byte   W96
@ 021   ----------------------------------------
 .byte   W96
@ 022   ----------------------------------------
 .byte   W96
@ 023   ----------------------------------------
 .byte   W96
@ 024   ----------------------------------------
 .byte   W96
@ 025   ----------------------------------------
 .byte   W96
@ 026   ----------------------------------------
 .byte   W96
@ 027   ----------------------------------------
 .byte   W96
@ 028   ----------------------------------------
 .byte   W96
@ 029   ----------------------------------------
 .byte   W96
@ 030   ----------------------------------------
 .byte   W96
@ 031   ----------------------------------------
 .byte   W96
@ 032   ----------------------------------------
 .byte   W96
@ 033   ----------------------------------------
 .byte   W96
@ 034   ----------------------------------------
 .byte   W96
@ 035   ----------------------------------------
 .byte   W96
@ 036   ----------------------------------------
 .byte   W96
@ 037   ----------------------------------------
 .byte   W96
@ 038   ----------------------------------------
 .byte   W96
@ 039   ----------------------------------------
 .byte   W96
@ 040   ----------------------------------------
 .byte   W96
@ 041   ----------------------------------------
 .byte   W96
@ 042   ----------------------------------------
 .byte   W96
@ 043   ----------------------------------------
 .byte   W96
@ 044   ----------------------------------------
 .byte   W96
@ 045   ----------------------------------------
 .byte   W96
@ 046   ----------------------------------------
 .byte   W96
@ 047   ----------------------------------------
 .byte   W96
@ 048   ----------------------------------------
 .byte   W96
@ 049   ----------------------------------------
 .byte   W96
@ 050   ----------------------------------------
 .byte   W96
@ 051   ----------------------------------------
 .byte   W96
@ 052   ----------------------------------------
 .byte   W96
@ 053   ----------------------------------------
 .byte   W96
@ 054   ----------------------------------------
 .byte   W96
@ 055   ----------------------------------------
 .byte   W96
@ 056   ----------------------------------------
 .byte   W96
@ 057   ----------------------------------------
 .byte   W96
@ 058   ----------------------------------------
 .byte   W96
@ 059   ----------------------------------------
 .byte   W96
@ 060   ----------------------------------------
 .byte   W96
@ 061   ----------------------------------------
 .byte   W96
@ 062   ----------------------------------------
 .byte   W96
@ 063   ----------------------------------------
 .byte   W96
@ 064   ----------------------------------------
 .byte   W96
@ 065   ----------------------------------------
 .byte   W96
@ 066   ----------------------------------------
 .byte   W96
@ 067   ----------------------------------------
 .byte   W96
@ 068   ----------------------------------------
 .byte   W96
@ 069   ----------------------------------------
 .byte   W96
@ 070   ----------------------------------------
 .byte   W96
@ 071   ----------------------------------------
 .byte   W96
@ 072   ----------------------------------------
 .byte   W96
@ 073   ----------------------------------------
 .byte   W96
@ 074   ----------------------------------------
 .byte   W96
@ 075   ----------------------------------------
 .byte   W96
@ 076   ----------------------------------------
 .byte   W96
@ 077   ----------------------------------------
 .byte   W96
@ 078   ----------------------------------------
 .byte   W96
@ 079   ----------------------------------------
 .byte   W96
@ 080   ----------------------------------------
 .byte   W96
@ 081   ----------------------------------------
 .byte   W96
@ 082   ----------------------------------------
 .byte   W96
@ 083   ----------------------------------------
 .byte   W96
@ 084   ----------------------------------------
 .byte   W96
@ 085   ----------------------------------------
 .byte   W96
@ 086   ----------------------------------------
 .byte   W96
@ 087   ----------------------------------------
 .byte   W96
@ 088   ----------------------------------------
 .byte   W96
@ 089   ----------------------------------------
 .byte   W96
@ 090   ----------------------------------------
 .byte   W96
@ 091   ----------------------------------------
 .byte   W96
@ 092   ----------------------------------------
 .byte   W96
@ 093   ----------------------------------------
 .byte   W96
@ 094   ----------------------------------------
 .byte   W96
@ 095   ----------------------------------------
 .byte   W92
 .byte   W03
 .byte   GOTO
  .word Label_2_017B2F0D
@ 096   ----------------------------------------
 .byte   W01
 .byte   FINE

@**************** Track 4 (Midi-Chn.3) ****************@

song0146_004:
@ 000   ----------------------------------------
 .byte   VOL , 55*song0146_mvl/mxv
 .byte   KEYSH , song0146_key+0
 .byte   VOICE , 41
 .byte   W96
@ 001   ----------------------------------------
 .byte   W96
@ 002   ----------------------------------------
 .byte   W48
 .byte   N06 ,Cn3 ,v096
 .byte   W06
 .byte   As2
 .byte   W06
 .byte   An2
 .byte   W06
 .byte   As2
 .byte   W06
 .byte   Cn3
 .byte   W06
 .byte   As2
 .byte   W06
 .byte   An2
 .byte   W06
 .byte   Cn3
 .byte   W02
Label_3_017B300F:
 .byte   W04
@ 003   ----------------------------------------
Label_3_017B3010:
 .byte   N06 ,Cn3 ,v096
 .byte   W06
 .byte   As2
 .byte   W06
 .byte   An2
 .byte   W06
 .byte   As2
 .byte   W06
 .byte   Cn3
 .byte   W06
 .byte   As2
 .byte   W06
 .byte   An2
 .byte   W06
 .byte   Cn3
 .byte   W06
 .byte   N06
 .byte   W06
 .byte   As2
 .byte   W06
 .byte   An2
 .byte   W06
 .byte   As2
 .byte   W06
 .byte   Cn3
 .byte   W06
 .byte   As2
 .byte   W06
 .byte   An2
 .byte   W06
 .byte   Cn3
 .byte   W06
 .byte   PEND 
 .byte   PATT
  .word Label_3_017B3010
 .byte   PATT
  .word Label_3_017B3010
 .byte   PATT
  .word Label_3_017B3010
@ 004   ----------------------------------------
Label_3_017B3042:
 .byte   N06 ,Dn2 ,v096
 .byte   W12
 .byte   An2
 .byte   W06
 .byte   N06
 .byte   W06
 .byte   N06
 .byte   W12
 .byte   N06
 .byte   W06
 .byte   N06
 .byte   W06
 .byte   N06
 .byte   W12
 .byte   N06
 .byte   W06
 .byte   N06
 .byte   W06
 .byte   N06
 .byte   W12
 .byte   N06
 .byte   W06
 .byte   N01
 .byte   W06
 .byte   PEND 
@ 005   ----------------------------------------
Label_3_017B305D:
 .byte   N06 ,Dn2 ,v096
 .byte   W12
 .byte   As2
 .byte   W06
 .byte   N06
 .byte   W06
 .byte   N06
 .byte   W12
 .byte   N06
 .byte   W06
 .byte   N06
 .byte   W06
 .byte   N06
 .byte   W12
 .byte   N06
 .byte   W06
 .byte   N06
 .byte   W06
 .byte   N06
 .byte   W12
 .byte   N06
 .byte   W06
 .byte   N01
 .byte   W06
 .byte   PEND 
@ 006   ----------------------------------------
Label_3_017B3078:
 .byte   N06 ,Dn2 ,v096
 .byte   W12
 .byte   Cn3
 .byte   W06
 .byte   N06
 .byte   W06
 .byte   N06
 .byte   W12
 .byte   N06
 .byte   W06
 .byte   N06
 .byte   W06
 .byte   N06
 .byte   W12
 .byte   N06
 .byte   W06
 .byte   N06
 .byte   W06
 .byte   N06
 .byte   W12
 .byte   N06
 .byte   W06
 .byte   N01
 .byte   W06
 .byte   PEND 
@ 007   ----------------------------------------
Label_3_017B3093:
 .byte   N06 ,Dn2 ,v096
 .byte   W12
 .byte   Bn2
 .byte   W06
 .byte   N06
 .byte   W06
 .byte   N06
 .byte   W12
 .byte   N06
 .byte   W06
 .byte   N06
 .byte   W06
 .byte   N06
 .byte   W12
 .byte   N06
 .byte   W06
 .byte   N06
 .byte   W06
 .byte   N06
 .byte   W12
 .byte   N06
 .byte   W06
 .byte   N01
 .byte   W06
 .byte   PEND 
 .byte   PATT
  .word Label_3_017B3042
 .byte   PATT
  .word Label_3_017B305D
@ 008   ----------------------------------------
 .byte   W96
@ 009   ----------------------------------------
 .byte   W96
 .byte   PATT
  .word Label_3_017B305D
 .byte   PATT
  .word Label_3_017B305D
 .byte   PATT
  .word Label_3_017B3078
 .byte   PATT
  .word Label_3_017B3078
 .byte   PATT
  .word Label_3_017B3042
 .byte   PATT
  .word Label_3_017B305D
 .byte   PATT
  .word Label_3_017B3078
 .byte   PATT
  .word Label_3_017B3093
 .byte   PATT
  .word Label_3_017B3042
 .byte   PATT
  .word Label_3_017B305D
@ 010   ----------------------------------------
 .byte   W96
@ 011   ----------------------------------------
 .byte   W96
 .byte   PATT
  .word Label_3_017B305D
 .byte   PATT
  .word Label_3_017B305D
@ 012   ----------------------------------------
Label_3_017B30F8:
 .byte   N06 ,Dn2 ,v096
 .byte   W12
 .byte   Cs3
 .byte   W06
 .byte   N06
 .byte   W06
 .byte   N06
 .byte   W12
 .byte   N06
 .byte   W06
 .byte   N06
 .byte   W06
 .byte   N06
 .byte   W12
 .byte   N06
 .byte   W06
 .byte   N06
 .byte   W06
 .byte   N06
 .byte   W12
 .byte   N06
 .byte   W06
 .byte   N01
 .byte   W06
 .byte   PEND 
 .byte   PATT
  .word Label_3_017B30F8
 .byte   PATT
  .word Label_3_017B30F8
 .byte   PATT
  .word Label_3_017B30F8
@ 013   ----------------------------------------
Label_3_017B3122:
 .byte   N06 ,Dn2 ,v096
 .byte   W12
 .byte   Dn3
 .byte   W06
 .byte   N06
 .byte   W06
 .byte   N06
 .byte   W12
 .byte   N06
 .byte   W06
 .byte   N06
 .byte   W06
 .byte   N06
 .byte   W12
 .byte   N06
 .byte   W06
 .byte   N06
 .byte   W06
 .byte   N06
 .byte   W12
 .byte   N06
 .byte   W06
 .byte   N01
 .byte   W06
 .byte   PEND 
 .byte   PATT
  .word Label_3_017B3122
 .byte   PATT
  .word Label_3_017B3122
@ 014   ----------------------------------------
 .byte   W96
@ 015   ----------------------------------------
 .byte   W96
@ 016   ----------------------------------------
 .byte   W96
@ 017   ----------------------------------------
 .byte   W96
@ 018   ----------------------------------------
 .byte   W96
@ 019   ----------------------------------------
 .byte   W96
@ 020   ----------------------------------------
 .byte   W96
@ 021   ----------------------------------------
 .byte   W96
@ 022   ----------------------------------------
 .byte   W96
@ 023   ----------------------------------------
 .byte   W96
@ 024   ----------------------------------------
 .byte   W96
@ 025   ----------------------------------------
 .byte   W96
@ 026   ----------------------------------------
 .byte   W96
@ 027   ----------------------------------------
 .byte   W96
@ 028   ----------------------------------------
 .byte   W96
@ 029   ----------------------------------------
 .byte   W96
@ 030   ----------------------------------------
 .byte   W96
@ 031   ----------------------------------------
 .byte   W96
@ 032   ----------------------------------------
 .byte   W96
@ 033   ----------------------------------------
 .byte   W96
@ 034   ----------------------------------------
 .byte   W96
@ 035   ----------------------------------------
 .byte   W96
@ 036   ----------------------------------------
 .byte   W96
@ 037   ----------------------------------------
 .byte   W96
@ 038   ----------------------------------------
 .byte   W96
@ 039   ----------------------------------------
 .byte   W96
@ 040   ----------------------------------------
 .byte   W96
@ 041   ----------------------------------------
 .byte   W96
@ 042   ----------------------------------------
Label_3_017B3163:
 .byte   N06 ,Ds2 ,v096
 .byte   W12
 .byte   As2
 .byte   W06
 .byte   N06
 .byte   W06
 .byte   N06
 .byte   W12
 .byte   N06
 .byte   W06
 .byte   N06
 .byte   W06
 .byte   N06
 .byte   W12
 .byte   N06
 .byte   W06
 .byte   N06
 .byte   W06
 .byte   N06
 .byte   W12
 .byte   N06
 .byte   W06
 .byte   N01
 .byte   W06
 .byte   PEND 
@ 043   ----------------------------------------
Label_3_017B317E:
 .byte   N06 ,Ds2 ,v096
 .byte   W12
 .byte   Bn2
 .byte   W06
 .byte   N06
 .byte   W06
 .byte   N06
 .byte   W12
 .byte   N06
 .byte   W06
 .byte   N06
 .byte   W06
 .byte   N06
 .byte   W12
 .byte   N06
 .byte   W06
 .byte   N06
 .byte   W06
 .byte   N06
 .byte   W12
 .byte   N06
 .byte   W06
 .byte   N01
 .byte   W06
 .byte   PEND 
@ 044   ----------------------------------------
Label_3_017B3199:
 .byte   N06 ,Ds2 ,v096
 .byte   W12
 .byte   Cs3
 .byte   W06
 .byte   N06
 .byte   W06
 .byte   N06
 .byte   W12
 .byte   N06
 .byte   W06
 .byte   N06
 .byte   W06
 .byte   N06
 .byte   W12
 .byte   N06
 .byte   W06
 .byte   N06
 .byte   W06
 .byte   N06
 .byte   W12
 .byte   N06
 .byte   W06
 .byte   N01
 .byte   W06
 .byte   PEND 
@ 045   ----------------------------------------
Label_3_017B31B4:
 .byte   N06 ,Ds2 ,v096
 .byte   W12
 .byte   Cn3
 .byte   W06
 .byte   N06
 .byte   W06
 .byte   N06
 .byte   W12
 .byte   N06
 .byte   W06
 .byte   N06
 .byte   W06
 .byte   N06
 .byte   W12
 .byte   N06
 .byte   W06
 .byte   N06
 .byte   W06
 .byte   N06
 .byte   W12
 .byte   N06
 .byte   W06
 .byte   N01
 .byte   W06
 .byte   PEND 
 .byte   PATT
  .word Label_3_017B3163
 .byte   PATT
  .word Label_3_017B317E
@ 046   ----------------------------------------
 .byte   W96
@ 047   ----------------------------------------
 .byte   W96
 .byte   PATT
  .word Label_3_017B317E
 .byte   PATT
  .word Label_3_017B317E
 .byte   PATT
  .word Label_3_017B3199
 .byte   PATT
  .word Label_3_017B3199
 .byte   PATT
  .word Label_3_017B3163
 .byte   PATT
  .word Label_3_017B317E
 .byte   PATT
  .word Label_3_017B3199
 .byte   PATT
  .word Label_3_017B31B4
 .byte   PATT
  .word Label_3_017B3163
 .byte   PATT
  .word Label_3_017B317E
@ 048   ----------------------------------------
 .byte   W96
@ 049   ----------------------------------------
 .byte   W96
 .byte   PATT
  .word Label_3_017B317E
 .byte   PATT
  .word Label_3_017B317E
 .byte   PATT
  .word Label_3_017B3199
 .byte   PATT
  .word Label_3_017B3199
 .byte   PATT
  .word Label_3_017B3163
 .byte   PATT
  .word Label_3_017B317E
 .byte   PATT
  .word Label_3_017B3199
 .byte   PATT
  .word Label_3_017B31B4
 .byte   PATT
  .word Label_3_017B3163
 .byte   PATT
  .word Label_3_017B317E
@ 050   ----------------------------------------
 .byte   W96
@ 051   ----------------------------------------
 .byte   W92
 .byte   W03
 .byte   GOTO
  .word Label_3_017B300F
@ 052   ----------------------------------------
 .byte   W01
 .byte   FINE

@**************** Track 5 (Midi-Chn.4) ****************@

song0146_005:
@ 000   ----------------------------------------
 .byte   VOL , 55*song0146_mvl/mxv
 .byte   KEYSH , song0146_key+0
 .byte   VOICE , 42
 .byte   W96
@ 001   ----------------------------------------
 .byte   W96
@ 002   ----------------------------------------
 .byte   W92
Label_4_017B3255:
 .byte   W04
@ 003   ----------------------------------------
Label_4_017B3256:
 .byte   N06 ,Gn2 ,v127
 .byte   W06
 .byte   N06
 .byte   W06
 .byte   N06
 .byte   W06
 .byte   N06
 .byte   W06
 .byte   N06
 .byte   W06
 .byte   N06
 .byte   W06
 .byte   N06
 .byte   W06
 .byte   N06
 .byte   W06
 .byte   N06
 .byte   W06
 .byte   N06
 .byte   W06
 .byte   N06
 .byte   W06
 .byte   N06
 .byte   W06
 .byte   N06
 .byte   W06
 .byte   N06
 .byte   W06
 .byte   N06
 .byte   W06
 .byte   N06
 .byte   W06
 .byte   PEND 
 .byte   PATT
  .word Label_4_017B3256
 .byte   PATT
  .word Label_4_017B3256
 .byte   PATT
  .word Label_4_017B3256
@ 004   ----------------------------------------
 .byte   W96
@ 005   ----------------------------------------
 .byte   W96
@ 006   ----------------------------------------
 .byte   W96
@ 007   ----------------------------------------
 .byte   W96
@ 008   ----------------------------------------
 .byte   W96
@ 009   ----------------------------------------
 .byte   W96
@ 010   ----------------------------------------
 .byte   W96
@ 011   ----------------------------------------
 .byte   W96
@ 012   ----------------------------------------
 .byte   W96
@ 013   ----------------------------------------
 .byte   W96
@ 014   ----------------------------------------
 .byte   W96
@ 015   ----------------------------------------
 .byte   W96
@ 016   ----------------------------------------
 .byte   W96
@ 017   ----------------------------------------
 .byte   W96
@ 018   ----------------------------------------
 .byte   W96
@ 019   ----------------------------------------
 .byte   W96
@ 020   ----------------------------------------
 .byte   W96
@ 021   ----------------------------------------
 .byte   W96
@ 022   ----------------------------------------
 .byte   W96
@ 023   ----------------------------------------
 .byte   W96
@ 024   ----------------------------------------
 .byte   W96
@ 025   ----------------------------------------
 .byte   W96
@ 026   ----------------------------------------
 .byte   W96
@ 027   ----------------------------------------
 .byte   W96
@ 028   ----------------------------------------
 .byte   W96
@ 029   ----------------------------------------
 .byte   W96
@ 030   ----------------------------------------
 .byte   W96
@ 031   ----------------------------------------
 .byte   W96
@ 032   ----------------------------------------
 .byte   W96
@ 033   ----------------------------------------
 .byte   W96
@ 034   ----------------------------------------
 .byte   W96
@ 035   ----------------------------------------
 .byte   W96
@ 036   ----------------------------------------
 .byte   W96
@ 037   ----------------------------------------
 .byte   W96
@ 038   ----------------------------------------
 .byte   W96
@ 039   ----------------------------------------
 .byte   W96
@ 040   ----------------------------------------
 .byte   W96
@ 041   ----------------------------------------
 .byte   W96
@ 042   ----------------------------------------
 .byte   W96
@ 043   ----------------------------------------
 .byte   W96
@ 044   ----------------------------------------
 .byte   W96
@ 045   ----------------------------------------
 .byte   W96
@ 046   ----------------------------------------
 .byte   W96
@ 047   ----------------------------------------
 .byte   W96
@ 048   ----------------------------------------
 .byte   W96
@ 049   ----------------------------------------
 .byte   W96
@ 050   ----------------------------------------
 .byte   W96
@ 051   ----------------------------------------
 .byte   W96
@ 052   ----------------------------------------
 .byte   W96
@ 053   ----------------------------------------
Label_4_017B32B9:
 .byte   N06 ,Fn3 ,v124
 .byte   W06
 .byte   N06
 .byte   W06
 .byte   N06
 .byte   W06
 .byte   N06
 .byte   W06
 .byte   N06
 .byte   W06
 .byte   N06
 .byte   W06
 .byte   N06
 .byte   W06
 .byte   N06
 .byte   W06
 .byte   N06
 .byte   W06
 .byte   N06
 .byte   W06
 .byte   N06
 .byte   W06
 .byte   N06
 .byte   W06
 .byte   N06
 .byte   W06
 .byte   N06
 .byte   W06
 .byte   N06
 .byte   W06
 .byte   N06
 .byte   W06
 .byte   PEND 
 .byte   PATT
  .word Label_4_017B32B9
 .byte   PATT
  .word Label_4_017B32B9
 .byte   PATT
  .word Label_4_017B32B9
 .byte   PATT
  .word Label_4_017B32B9
 .byte   PATT
  .word Label_4_017B32B9
 .byte   PATT
  .word Label_4_017B32B9
 .byte   PATT
  .word Label_4_017B32B9
@ 054   ----------------------------------------
 .byte   W96
@ 055   ----------------------------------------
 .byte   W96
@ 056   ----------------------------------------
 .byte   W96
@ 057   ----------------------------------------
 .byte   W96
@ 058   ----------------------------------------
 .byte   W96
@ 059   ----------------------------------------
 .byte   W96
@ 060   ----------------------------------------
 .byte   W96
@ 061   ----------------------------------------
 .byte   W96
@ 062   ----------------------------------------
 .byte   W96
@ 063   ----------------------------------------
 .byte   W96
@ 064   ----------------------------------------
 .byte   W96
@ 065   ----------------------------------------
 .byte   W96
@ 066   ----------------------------------------
 .byte   W96
@ 067   ----------------------------------------
 .byte   W96
@ 068   ----------------------------------------
 .byte   W96
@ 069   ----------------------------------------
 .byte   W96
@ 070   ----------------------------------------
 .byte   W96
@ 071   ----------------------------------------
 .byte   W96
@ 072   ----------------------------------------
 .byte   W96
@ 073   ----------------------------------------
 .byte   W96
@ 074   ----------------------------------------
 .byte   W96
@ 075   ----------------------------------------
 .byte   W96
@ 076   ----------------------------------------
 .byte   W96
@ 077   ----------------------------------------
 .byte   W96
@ 078   ----------------------------------------
 .byte   W96
@ 079   ----------------------------------------
 .byte   W96
@ 080   ----------------------------------------
 .byte   W96
@ 081   ----------------------------------------
 .byte   W96
@ 082   ----------------------------------------
 .byte   W96
@ 083   ----------------------------------------
 .byte   W96
@ 084   ----------------------------------------
 .byte   W96
@ 085   ----------------------------------------
 .byte   W92
 .byte   W03
 .byte   GOTO
  .word Label_4_017B3255
@ 086   ----------------------------------------
 .byte   W01
 .byte   FINE

@**************** Track 6 (Midi-Chn.5) ****************@

song0146_006:
@ 000   ----------------------------------------
 .byte   VOL , 70*song0146_mvl/mxv
 .byte   KEYSH , song0146_key+0
 .byte   VOICE , 60
 .byte   W96
@ 001   ----------------------------------------
 .byte   W96
@ 002   ----------------------------------------
 .byte   W92
Label_5_017B3331:
 .byte   W04
@ 003   ----------------------------------------
 .byte   N12 ,Gn2 ,v127
 .byte   W36
 .byte   N06 ,Dn3
 .byte   W06
 .byte   N06
 .byte   W06
 .byte   N48
 .byte   W48
@ 004   ----------------------------------------
 .byte   N12 ,An2
 .byte   W36
 .byte   N06 ,En3
 .byte   W06
 .byte   N06
 .byte   W06
 .byte   N48
 .byte   W48
@ 005   ----------------------------------------
 .byte   N12 ,As2
 .byte   W36
 .byte   N06 ,Fn3
 .byte   W06
 .byte   N06
 .byte   W06
 .byte   N48
 .byte   W48
@ 006   ----------------------------------------
 .byte   N12 ,Cs3
 .byte   W36
 .byte   N06 ,Gn3
 .byte   W06
 .byte   N06
 .byte   W06
 .byte   N48
 .byte   W48
@ 007   ----------------------------------------
 .byte   W96
@ 008   ----------------------------------------
 .byte   W96
@ 009   ----------------------------------------
 .byte   N12 ,Gn3 ,v100
 .byte   W12
 .byte   En4
 .byte   W12
 .byte   TIE ,Dn4
 .byte   W72
@ 010   ----------------------------------------
 .byte   W96
@ 011   ----------------------------------------
 .byte   EOT
 .byte   W96
@ 012   ----------------------------------------
 .byte   W96
@ 013   ----------------------------------------
 .byte   W96
@ 014   ----------------------------------------
 .byte   W96
@ 015   ----------------------------------------
 .byte   W96
@ 016   ----------------------------------------
 .byte   W96
@ 017   ----------------------------------------
 .byte   N12 ,Cn4 ,v116
 .byte   W12
 .byte   Bn3
 .byte   W12
 .byte   N24 ,An3
 .byte   W24
 .byte   N12 ,Dn4
 .byte   W12
 .byte   Cn4
 .byte   W12
 .byte   N24 ,Bn3
 .byte   W24
@ 018   ----------------------------------------
 .byte   N12 ,Fn4
 .byte   W12
 .byte   En4
 .byte   W12
 .byte   N24 ,Dn4
 .byte   W24
 .byte   N12 ,Gn4
 .byte   W12
 .byte   Fn4
 .byte   W12
 .byte   N24 ,En4
 .byte   W24
@ 019   ----------------------------------------
 .byte   W96
@ 020   ----------------------------------------
 .byte   W96
@ 021   ----------------------------------------
 .byte   W96
@ 022   ----------------------------------------
 .byte   W96
@ 023   ----------------------------------------
 .byte   W24
 .byte   An3 ,v104
 .byte   W24
 .byte   Dn4
 .byte   W24
 .byte   Fn4
 .byte   W24
@ 024   ----------------------------------------
 .byte   Gn4
 .byte   W24
 .byte   En4
 .byte   W24
 .byte   Cn4
 .byte   W24
 .byte   Gn4
 .byte   W24
@ 025   ----------------------------------------
 .byte   N12 ,Fn4
 .byte   W12
 .byte   En4
 .byte   W12
 .byte   TIE ,Dn4
 .byte   W72
@ 026   ----------------------------------------
 .byte   W72
 .byte   EOT
 .byte   W24
@ 027   ----------------------------------------
 .byte   W96
@ 028   ----------------------------------------
 .byte   W96
@ 029   ----------------------------------------
 .byte   W96
@ 030   ----------------------------------------
 .byte   W96
@ 031   ----------------------------------------
 .byte   W96
@ 032   ----------------------------------------
 .byte   W96
@ 033   ----------------------------------------
 .byte   W96
@ 034   ----------------------------------------
 .byte   W96
@ 035   ----------------------------------------
 .byte   W96
@ 036   ----------------------------------------
 .byte   W96
@ 037   ----------------------------------------
 .byte   W96
@ 038   ----------------------------------------
 .byte   W96
@ 039   ----------------------------------------
 .byte   W96
@ 040   ----------------------------------------
 .byte   N96 ,An2 ,v096
 .byte   W96
@ 041   ----------------------------------------
Label_5_017B33BF:
 .byte   N48 ,Bn2 ,v096
 .byte   W48
 .byte   An2
 .byte   W48
 .byte   PEND 
@ 042   ----------------------------------------
 .byte   N96 ,Fs2
 .byte   W96
@ 043   ----------------------------------------
 .byte   Gn2
 .byte   W96
@ 044   ----------------------------------------
 .byte   An2
 .byte   W96
 .byte   PATT
  .word Label_5_017B33BF
@ 045   ----------------------------------------
 .byte   N96 ,Fs2 ,v096
 .byte   W96
@ 046   ----------------------------------------
 .byte   Gn2
 .byte   W96
@ 047   ----------------------------------------
 .byte   W96
@ 048   ----------------------------------------
 .byte   W96
@ 049   ----------------------------------------
 .byte   W96
@ 050   ----------------------------------------
 .byte   W96
@ 051   ----------------------------------------
 .byte   W96
@ 052   ----------------------------------------
 .byte   W96
@ 053   ----------------------------------------
 .byte   W96
@ 054   ----------------------------------------
 .byte   W96
@ 055   ----------------------------------------
 .byte   W96
@ 056   ----------------------------------------
 .byte   W96
@ 057   ----------------------------------------
 .byte   W96
@ 058   ----------------------------------------
 .byte   W96
@ 059   ----------------------------------------
 .byte   W96
@ 060   ----------------------------------------
 .byte   W96
@ 061   ----------------------------------------
 .byte   W96
@ 062   ----------------------------------------
 .byte   W96
@ 063   ----------------------------------------
 .byte   W96
@ 064   ----------------------------------------
 .byte   W96
@ 065   ----------------------------------------
Label_5_017B33EA:
 .byte   N12 ,Gs3 ,v100
 .byte   W12
 .byte   Fn4
 .byte   W12
 .byte   TIE ,Ds4
 .byte   W72
 .byte   PEND 
@ 066   ----------------------------------------
 .byte   W96
@ 067   ----------------------------------------
 .byte   EOT
 .byte   W96
@ 068   ----------------------------------------
 .byte   W96
@ 069   ----------------------------------------
 .byte   W96
@ 070   ----------------------------------------
 .byte   W96
@ 071   ----------------------------------------
 .byte   W96
@ 072   ----------------------------------------
 .byte   W96
@ 073   ----------------------------------------
Label_5_017B33FC:
 .byte   N12 ,Cs4 ,v116
 .byte   W12
 .byte   Cn4
 .byte   W12
 .byte   N24 ,As3
 .byte   W24
 .byte   N12 ,Ds4
 .byte   W12
 .byte   Cs4
 .byte   W12
 .byte   N24 ,Cn4
 .byte   W24
 .byte   PEND 
@ 074   ----------------------------------------
Label_5_017B340E:
 .byte   N12 ,Fs4 ,v116
 .byte   W12
 .byte   Fn4
 .byte   W12
 .byte   N24 ,Ds4
 .byte   W24
 .byte   N12 ,Gs4
 .byte   W12
 .byte   Fs4
 .byte   W12
 .byte   N24 ,Fn4
 .byte   W24
 .byte   PEND 
@ 075   ----------------------------------------
 .byte   W96
@ 076   ----------------------------------------
 .byte   W96
 .byte   PATT
  .word Label_5_017B33EA
@ 077   ----------------------------------------
 .byte   W96
@ 078   ----------------------------------------
 .byte   EOT
 .byte   Ds4
 .byte   W96
@ 079   ----------------------------------------
 .byte   W96
@ 080   ----------------------------------------
 .byte   W96
@ 081   ----------------------------------------
 .byte   W96
@ 082   ----------------------------------------
 .byte   W96
@ 083   ----------------------------------------
 .byte   W96
 .byte   PATT
  .word Label_5_017B33FC
 .byte   PATT
  .word Label_5_017B340E
@ 084   ----------------------------------------
 .byte   W96
@ 085   ----------------------------------------
 .byte   W96
@ 086   ----------------------------------------
 .byte   W96
@ 087   ----------------------------------------
 .byte   W96
@ 088   ----------------------------------------
 .byte   W24
 .byte   N24 ,As3 ,v104
 .byte   W24
 .byte   Ds4
 .byte   W24
 .byte   Fs4
 .byte   W24
@ 089   ----------------------------------------
 .byte   Gs4
 .byte   W24
 .byte   Fn4
 .byte   W24
 .byte   Cs4
 .byte   W24
 .byte   Gs4
 .byte   W24
@ 090   ----------------------------------------
 .byte   N12 ,Fs4
 .byte   W12
 .byte   Fn4
 .byte   W12
 .byte   TIE ,Ds4
 .byte   W72
@ 091   ----------------------------------------
 .byte   W72
 .byte   EOT
 .byte   W23
 .byte   GOTO
  .word Label_5_017B3331
@ 092   ----------------------------------------
 .byte   W01
 .byte   FINE

@**************** Track 7 (Midi-Chn.6) ****************@

song0146_007:
@ 000   ----------------------------------------
 .byte   VOL , 75*song0146_mvl/mxv
 .byte   KEYSH , song0146_key+0
 .byte   VOICE , 58
 .byte   W96
@ 001   ----------------------------------------
 .byte   W96
@ 002   ----------------------------------------
 .byte   W92
Label_6_017B346D:
 .byte   W04
@ 003   ----------------------------------------
 .byte   W96
@ 004   ----------------------------------------
 .byte   W96
@ 005   ----------------------------------------
 .byte   W96
@ 006   ----------------------------------------
 .byte   W96
@ 007   ----------------------------------------
Label_6_017B3472:
 .byte   N24 ,Dn3 ,v096
 .byte   W36
 .byte   W03
 .byte   N24
 .byte   W32
 .byte   W01
 .byte   N24
 .byte   W24
 .byte   PEND 
 .byte   PATT
  .word Label_6_017B3472
 .byte   PATT
  .word Label_6_017B3472
 .byte   PATT
  .word Label_6_017B3472
 .byte   PATT
  .word Label_6_017B3472
 .byte   PATT
  .word Label_6_017B3472
 .byte   PATT
  .word Label_6_017B3472
 .byte   PATT
  .word Label_6_017B3472
 .byte   PATT
  .word Label_6_017B3472
 .byte   PATT
  .word Label_6_017B3472
 .byte   PATT
  .word Label_6_017B3472
 .byte   PATT
  .word Label_6_017B3472
 .byte   PATT
  .word Label_6_017B3472
@ 008   ----------------------------------------
Label_6_017B34B9:
 .byte   N24 ,Cs3 ,v096
 .byte   W36
 .byte   W03
 .byte   N24
 .byte   W32
 .byte   W01
 .byte   N24
 .byte   W24
 .byte   PEND 
@ 009   ----------------------------------------
Label_6_017B34C4:
 .byte   N24 ,Cn3 ,v096
 .byte   W36
 .byte   W03
 .byte   N24
 .byte   W32
 .byte   W01
 .byte   N24
 .byte   W24
 .byte   PEND 
@ 010   ----------------------------------------
Label_6_017B34CF:
 .byte   N24 ,Bn2 ,v096
 .byte   W36
 .byte   W03
 .byte   N24
 .byte   W32
 .byte   W01
 .byte   N24
 .byte   W24
 .byte   PEND 
@ 011   ----------------------------------------
 .byte   W96
@ 012   ----------------------------------------
 .byte   W96
 .byte   PATT
  .word Label_6_017B3472
 .byte   PATT
  .word Label_6_017B3472
 .byte   PATT
  .word Label_6_017B34B9
 .byte   PATT
  .word Label_6_017B34B9
 .byte   PATT
  .word Label_6_017B34B9
 .byte   PATT
  .word Label_6_017B34B9
 .byte   PATT
  .word Label_6_017B34B9
 .byte   PATT
  .word Label_6_017B3472
 .byte   PATT
  .word Label_6_017B3472
 .byte   PATT
  .word Label_6_017B3472
 .byte   PATT
  .word Label_6_017B3472
 .byte   PATT
  .word Label_6_017B3472
 .byte   PATT
  .word Label_6_017B3472
 .byte   PATT
  .word Label_6_017B3472
 .byte   PATT
  .word Label_6_017B3472
 .byte   PATT
  .word Label_6_017B3472
 .byte   PATT
  .word Label_6_017B3472
 .byte   PATT
  .word Label_6_017B3472
 .byte   PATT
  .word Label_6_017B3472
 .byte   PATT
  .word Label_6_017B3472
 .byte   PATT
  .word Label_6_017B3472
 .byte   PATT
  .word Label_6_017B3472
 .byte   PATT
  .word Label_6_017B3472
@ 013   ----------------------------------------
 .byte   W96
@ 014   ----------------------------------------
 .byte   W96
@ 015   ----------------------------------------
 .byte   W96
@ 016   ----------------------------------------
 .byte   W96
@ 017   ----------------------------------------
 .byte   W96
@ 018   ----------------------------------------
 .byte   W96
@ 019   ----------------------------------------
 .byte   W96
@ 020   ----------------------------------------
 .byte   W96
@ 021   ----------------------------------------
 .byte   W96
@ 022   ----------------------------------------
 .byte   W96
@ 023   ----------------------------------------
 .byte   W96
@ 024   ----------------------------------------
 .byte   W96
@ 025   ----------------------------------------
 .byte   W96
@ 026   ----------------------------------------
 .byte   W96
@ 027   ----------------------------------------
 .byte   W96
@ 028   ----------------------------------------
 .byte   W96
@ 029   ----------------------------------------
Label_6_017B355F:
 .byte   N24 ,Ds3 ,v096
 .byte   W36
 .byte   W03
 .byte   N24
 .byte   W32
 .byte   W01
 .byte   N24
 .byte   W24
 .byte   PEND 
 .byte   PATT
  .word Label_6_017B355F
 .byte   PATT
  .word Label_6_017B355F
 .byte   PATT
  .word Label_6_017B355F
 .byte   PATT
  .word Label_6_017B355F
 .byte   PATT
  .word Label_6_017B355F
 .byte   PATT
  .word Label_6_017B355F
 .byte   PATT
  .word Label_6_017B355F
 .byte   PATT
  .word Label_6_017B355F
 .byte   PATT
  .word Label_6_017B355F
 .byte   PATT
  .word Label_6_017B355F
 .byte   PATT
  .word Label_6_017B355F
 .byte   PATT
  .word Label_6_017B355F
 .byte   PATT
  .word Label_6_017B355F
 .byte   PATT
  .word Label_6_017B355F
 .byte   PATT
  .word Label_6_017B355F
 .byte   PATT
  .word Label_6_017B355F
 .byte   PATT
  .word Label_6_017B355F
 .byte   PATT
  .word Label_6_017B355F
 .byte   PATT
  .word Label_6_017B355F
 .byte   PATT
  .word Label_6_017B355F
 .byte   PATT
  .word Label_6_017B355F
 .byte   PATT
  .word Label_6_017B355F
 .byte   PATT
  .word Label_6_017B355F
 .byte   PATT
  .word Label_6_017B3472
 .byte   PATT
  .word Label_6_017B34B9
 .byte   PATT
  .word Label_6_017B34C4
 .byte   PATT
  .word Label_6_017B34CF
@ 030   ----------------------------------------
 .byte   W96
@ 031   ----------------------------------------
 .byte   W96
 .byte   PATT
  .word Label_6_017B355F
@ 032   ----------------------------------------
 .byte   N24 ,Ds3 ,v096
 .byte   W36
 .byte   W03
 .byte   N24
 .byte   W32
 .byte   W01
 .byte   N24
 .byte   W23
 .byte   GOTO
  .word Label_6_017B346D
@ 033   ----------------------------------------
 .byte   W01
 .byte   FINE

@**************** Track 8 (Midi-Chn.7) ****************@

song0146_008:
@ 000   ----------------------------------------
 .byte   VOL , 60*song0146_mvl/mxv
 .byte   KEYSH , song0146_key+0
 .byte   VOICE , 40
 .byte   W96
@ 001   ----------------------------------------
 .byte   W96
@ 002   ----------------------------------------
 .byte   W92
Label_7_017B3615:
 .byte   W04
@ 003   ----------------------------------------
 .byte   W96
@ 004   ----------------------------------------
 .byte   W96
@ 005   ----------------------------------------
 .byte   W96
@ 006   ----------------------------------------
 .byte   W96
@ 007   ----------------------------------------
 .byte   N12 ,Dn3 ,v116
 .byte   W12
 .byte   An3
 .byte   W12
 .byte   Gn3
 .byte   W12
 .byte   Fn3
 .byte   W12
 .byte   En3
 .byte   W12
 .byte   Dn3
 .byte   W12
 .byte   Cs3
 .byte   W12
 .byte   Dn3
 .byte   W12
@ 008   ----------------------------------------
 .byte   Fn3
 .byte   W12
 .byte   Cn4
 .byte   W12
 .byte   As3
 .byte   W12
 .byte   An3
 .byte   W12
 .byte   Gn3
 .byte   W12
 .byte   Fn3
 .byte   W12
 .byte   En3
 .byte   W12
 .byte   Dn3
 .byte   W12
@ 009   ----------------------------------------
 .byte   Gn3
 .byte   W12
 .byte   En4
 .byte   W12
 .byte   TIE ,Dn4
 .byte   W72
@ 010   ----------------------------------------
 .byte   W96
@ 011   ----------------------------------------
 .byte   EOT
 .byte   N12 ,An3
 .byte   W12
 .byte   Gn3
 .byte   W12
 .byte   Fn3
 .byte   W12
 .byte   Dn3
 .byte   W12
 .byte   En3
 .byte   W12
 .byte   Fn3
 .byte   W12
 .byte   Gn3
 .byte   W12
 .byte   An3
 .byte   W12
@ 012   ----------------------------------------
 .byte   Gn3
 .byte   W12
 .byte   Fn3
 .byte   W12
 .byte   En3
 .byte   W12
 .byte   Dn4
 .byte   W12
 .byte   Cs4
 .byte   W12
 .byte   Fn4
 .byte   W12
 .byte   En4
 .byte   W12
 .byte   Gn4
 .byte   W12
@ 013   ----------------------------------------
 .byte   N24 ,An3
 .byte   W24
 .byte   Dn3
 .byte   W24
 .byte   An3
 .byte   W24
 .byte   N12 ,Gn3
 .byte   W12
 .byte   Fn3
 .byte   W12
@ 014   ----------------------------------------
 .byte   N24 ,Gn3
 .byte   W24
 .byte   En3
 .byte   W24
 .byte   Cn3
 .byte   W24
 .byte   Gn3
 .byte   W24
@ 015   ----------------------------------------
 .byte   N12 ,Fn3
 .byte   W12
 .byte   En3
 .byte   W12
 .byte   Dn3
 .byte   W12
 .byte   An2
 .byte   W12
 .byte   Gn3
 .byte   W12
 .byte   Fn3
 .byte   W12
 .byte   En3
 .byte   W12
 .byte   As2
 .byte   W12
@ 016   ----------------------------------------
 .byte   An3
 .byte   W12
 .byte   Gn3
 .byte   W12
 .byte   Fn3
 .byte   W12
 .byte   An2
 .byte   W12
 .byte   As3
 .byte   W12
 .byte   An3
 .byte   W12
 .byte   Gn3
 .byte   W12
 .byte   As2
 .byte   W12
@ 017   ----------------------------------------
 .byte   Cn4
 .byte   W12
 .byte   Bn3
 .byte   W12
 .byte   N24 ,An3
 .byte   W24
 .byte   N12 ,Dn4
 .byte   W12
 .byte   Cn4
 .byte   W12
 .byte   N24 ,Bn3
 .byte   W24
@ 018   ----------------------------------------
Label_7_017B36AB:
 .byte   N12 ,Fn4 ,v116
 .byte   W12
 .byte   En4
 .byte   W12
 .byte   N24 ,Dn4
 .byte   W24
 .byte   N12 ,Gn4
 .byte   W12
 .byte   Fn4
 .byte   W12
 .byte   N24 ,En4
 .byte   W24
 .byte   PEND 
@ 019   ----------------------------------------
 .byte   W24
 .byte   N12 ,Dn3
 .byte   W12
 .byte   En3
 .byte   W12
 .byte   Fn3
 .byte   W12
 .byte   Dn3
 .byte   W12
 .byte   En3
 .byte   W12
 .byte   Fn3
 .byte   W12
@ 020   ----------------------------------------
 .byte   W24
 .byte   En3
 .byte   W12
 .byte   Fn3
 .byte   W12
 .byte   Gn3
 .byte   W12
 .byte   En3
 .byte   W12
 .byte   Fn3
 .byte   W12
 .byte   Gn3
 .byte   W12
@ 021   ----------------------------------------
 .byte   W24
 .byte   Fn3
 .byte   W12
 .byte   Gn3
 .byte   W12
 .byte   An3
 .byte   W12
 .byte   Fn3
 .byte   W12
 .byte   Gn3
 .byte   W12
 .byte   N36 ,An3
 .byte   W12
@ 022   ----------------------------------------
 .byte   W24
 .byte   N48 ,Dn4
 .byte   W48
 .byte   N06 ,Fn4
 .byte   W06
 .byte   En4
 .byte   W06
 .byte   Dn4
 .byte   W12
@ 023   ----------------------------------------
 .byte   W24
 .byte   N24 ,An3
 .byte   W24
 .byte   Dn4
 .byte   W24
 .byte   Fn4
 .byte   W24
@ 024   ----------------------------------------
 .byte   Gn4
 .byte   W24
 .byte   En4
 .byte   W24
 .byte   Cn4
 .byte   W24
 .byte   Gn4
 .byte   W24
 .byte   PATT
  .word Label_7_017B36AB
@ 025   ----------------------------------------
 .byte   N12 ,An4 ,v116
 .byte   W12
 .byte   Gn4
 .byte   W12
 .byte   N60 ,Fn4
 .byte   W72
@ 026   ----------------------------------------
 .byte   W96
@ 027   ----------------------------------------
 .byte   W96
@ 028   ----------------------------------------
 .byte   N12 ,An4
 .byte   W12
 .byte   As4
 .byte   W12
 .byte   Gn4
 .byte   W12
 .byte   An4
 .byte   W12
 .byte   Fn4
 .byte   W12
 .byte   Gn4
 .byte   W12
 .byte   Dn4
 .byte   W12
 .byte   En4
 .byte   W12
@ 029   ----------------------------------------
 .byte   TIE ,Cs4
 .byte   W96
@ 030   ----------------------------------------
 .byte   W84
 .byte   EOT
 .byte   W12
@ 031   ----------------------------------------
 .byte   W12
 .byte   N12 ,Cn5
 .byte   W12
 .byte   As4
 .byte   W12
 .byte   An4
 .byte   W12
 .byte   Gn4
 .byte   W12
 .byte   Fn4
 .byte   W12
 .byte   N96 ,En4
 .byte   W24
@ 032   ----------------------------------------
 .byte   W72
 .byte   N72 ,Dn4
 .byte   W24
@ 033   ----------------------------------------
 .byte   W96
@ 034   ----------------------------------------
 .byte   W96
@ 035   ----------------------------------------
 .byte   W24
 .byte   N12 ,As3
 .byte   W12
 .byte   Fn4
 .byte   W12
 .byte   N48 ,En4
 .byte   W48
@ 036   ----------------------------------------
 .byte   W24
 .byte   N12 ,Dn4
 .byte   W12
 .byte   En4
 .byte   W12
 .byte   Fn4
 .byte   W12
 .byte   Gn4
 .byte   W12
 .byte   An4
 .byte   W12
 .byte   As4
 .byte   W12
@ 037   ----------------------------------------
 .byte   N72 ,An4
 .byte   W72
 .byte   N12 ,Gn4
 .byte   W12
 .byte   Fn4
 .byte   W12
@ 038   ----------------------------------------
 .byte   N96 ,En4
 .byte   W96
@ 039   ----------------------------------------
 .byte   W96
@ 040   ----------------------------------------
 .byte   W96
@ 041   ----------------------------------------
 .byte   W96
@ 042   ----------------------------------------
 .byte   W96
@ 043   ----------------------------------------
 .byte   W96
@ 044   ----------------------------------------
 .byte   W96
@ 045   ----------------------------------------
 .byte   W96
@ 046   ----------------------------------------
 .byte   W96
@ 047   ----------------------------------------
 .byte   W96
@ 048   ----------------------------------------
 .byte   W96
@ 049   ----------------------------------------
 .byte   W96
@ 050   ----------------------------------------
 .byte   W96
@ 051   ----------------------------------------
 .byte   W96
@ 052   ----------------------------------------
 .byte   W96
@ 053   ----------------------------------------
 .byte   W96
@ 054   ----------------------------------------
 .byte   W96
@ 055   ----------------------------------------
 .byte   W96
@ 056   ----------------------------------------
 .byte   W96
@ 057   ----------------------------------------
 .byte   W96
@ 058   ----------------------------------------
 .byte   W96
@ 059   ----------------------------------------
 .byte   W96
@ 060   ----------------------------------------
 .byte   W96
@ 061   ----------------------------------------
 .byte   W96
@ 062   ----------------------------------------
 .byte   W96
@ 063   ----------------------------------------
Label_7_017B3777:
 .byte   N12 ,Ds3 ,v116
 .byte   W12
 .byte   As3
 .byte   W12
 .byte   Gs3
 .byte   W12
 .byte   Fs3
 .byte   W12
 .byte   Fn3
 .byte   W12
 .byte   Ds3
 .byte   W12
 .byte   Dn3
 .byte   W12
 .byte   Ds3
 .byte   W12
 .byte   PEND 
@ 064   ----------------------------------------
Label_7_017B378A:
 .byte   N12 ,Fs3 ,v116
 .byte   W12
 .byte   Cs4
 .byte   W12
 .byte   Bn3
 .byte   W12
 .byte   As3
 .byte   W12
 .byte   Gs3
 .byte   W12
 .byte   Fs3
 .byte   W12
 .byte   Fn3
 .byte   W12
 .byte   Ds3
 .byte   W12
 .byte   PEND 
@ 065   ----------------------------------------
Label_7_017B379D:
 .byte   N12 ,Gs3 ,v116
 .byte   W12
 .byte   Fn4
 .byte   W12
 .byte   TIE ,Ds4
 .byte   W72
 .byte   PEND 
@ 066   ----------------------------------------
 .byte   W96
@ 067   ----------------------------------------
 .byte   EOT
Label_7_017B37A9:
 .byte   N12 ,As3 ,v116
 .byte   W12
 .byte   Gs3
 .byte   W12
 .byte   Fs3
 .byte   W12
 .byte   Ds3
 .byte   W12
 .byte   Fn3
 .byte   W12
 .byte   Fs3
 .byte   W12
 .byte   Gs3
 .byte   W12
 .byte   As3
 .byte   W12
 .byte   PEND 
@ 068   ----------------------------------------
Label_7_017B37BC:
 .byte   N12 ,Gs3 ,v116
 .byte   W12
 .byte   Fs3
 .byte   W12
 .byte   Fn3
 .byte   W12
 .byte   Ds4
 .byte   W12
 .byte   Dn4
 .byte   W12
 .byte   Fs4
 .byte   W12
 .byte   Fn4
 .byte   W12
 .byte   Gs4
 .byte   W12
 .byte   PEND 
@ 069   ----------------------------------------
Label_7_017B37CF:
 .byte   N24 ,As3 ,v116
 .byte   W24
 .byte   Ds3
 .byte   W24
 .byte   As3
 .byte   W24
 .byte   N12 ,Gs3
 .byte   W12
 .byte   Fs3
 .byte   W12
 .byte   PEND 
@ 070   ----------------------------------------
Label_7_017B37DD:
 .byte   N24 ,Gs3 ,v116
 .byte   W24
 .byte   Fn3
 .byte   W24
 .byte   Cs3
 .byte   W24
 .byte   Gs3
 .byte   W24
 .byte   PEND 
@ 071   ----------------------------------------
Label_7_017B37E8:
 .byte   N12 ,Fs3 ,v116
 .byte   W12
 .byte   Fn3
 .byte   W12
 .byte   Ds3
 .byte   W12
 .byte   As2
 .byte   W12
 .byte   Gs3
 .byte   W12
 .byte   Fs3
 .byte   W12
 .byte   Fn3
 .byte   W12
 .byte   Bn2
 .byte   W12
 .byte   PEND 
@ 072   ----------------------------------------
Label_7_017B37FB:
 .byte   N12 ,As3 ,v116
 .byte   W12
 .byte   Gs3
 .byte   W12
 .byte   Fs3
 .byte   W12
 .byte   As2
 .byte   W12
 .byte   Bn3
 .byte   W12
 .byte   As3
 .byte   W12
 .byte   Gs3
 .byte   W12
 .byte   Bn2
 .byte   W12
 .byte   PEND 
@ 073   ----------------------------------------
Label_7_017B380E:
 .byte   N12 ,Cs4 ,v116
 .byte   W12
 .byte   Cn4
 .byte   W12
 .byte   N24 ,As3
 .byte   W24
 .byte   N12 ,Ds4
 .byte   W12
 .byte   Cs4
 .byte   W12
 .byte   N24 ,Cn4
 .byte   W24
 .byte   PEND 
@ 074   ----------------------------------------
Label_7_017B3820:
 .byte   N12 ,Fs4 ,v116
 .byte   W12
 .byte   Fn4
 .byte   W12
 .byte   N24 ,Ds4
 .byte   W24
 .byte   N12 ,Gs4
 .byte   W12
 .byte   Fs4
 .byte   W12
 .byte   N24 ,Fn4
 .byte   W24
 .byte   PEND 
 .byte   PATT
  .word Label_7_017B3777
 .byte   PATT
  .word Label_7_017B378A
 .byte   PATT
  .word Label_7_017B379D
@ 075   ----------------------------------------
 .byte   W96
@ 076   ----------------------------------------
 .byte   EOT
 .byte   Ds4
 .byte   PATT
  .word Label_7_017B37A9
 .byte   PATT
  .word Label_7_017B37BC
 .byte   PATT
  .word Label_7_017B37CF
 .byte   PATT
  .word Label_7_017B37DD
 .byte   PATT
  .word Label_7_017B37E8
 .byte   PATT
  .word Label_7_017B37FB
 .byte   PATT
  .word Label_7_017B380E
 .byte   PATT
  .word Label_7_017B3820
@ 077   ----------------------------------------
 .byte   W24
 .byte   N12 ,Ds3 ,v116
 .byte   W12
 .byte   Fn3
 .byte   W12
 .byte   Fs3
 .byte   W12
 .byte   Ds3
 .byte   W12
 .byte   Fn3
 .byte   W12
 .byte   Fs3
 .byte   W12
@ 078   ----------------------------------------
 .byte   W24
 .byte   Fn3
 .byte   W12
 .byte   Fs3
 .byte   W12
 .byte   Gs3
 .byte   W12
 .byte   Fn3
 .byte   W12
 .byte   Fs3
 .byte   W12
 .byte   Gs3
 .byte   W12
@ 079   ----------------------------------------
 .byte   W24
 .byte   Fs3
 .byte   W12
 .byte   Gs3
 .byte   W12
 .byte   As3
 .byte   W12
 .byte   Fs3
 .byte   W12
 .byte   Gs3
 .byte   W12
 .byte   N36 ,As3
 .byte   W12
@ 080   ----------------------------------------
 .byte   W24
 .byte   N48 ,Ds4
 .byte   W48
 .byte   N06 ,Fs4
 .byte   W06
 .byte   Fn4
 .byte   W06
 .byte   Ds4
 .byte   W12
@ 081   ----------------------------------------
 .byte   W24
 .byte   N24 ,As3
 .byte   W24
 .byte   Ds4
 .byte   W24
 .byte   Fs4
 .byte   W24
@ 082   ----------------------------------------
 .byte   Gs4
 .byte   W24
 .byte   Fn4
 .byte   W24
 .byte   Cs4
 .byte   W24
 .byte   Gs4
 .byte   W24
 .byte   PATT
  .word Label_7_017B3820
@ 083   ----------------------------------------
 .byte   N12 ,As4 ,v116
 .byte   W12
 .byte   Gs4
 .byte   W12
 .byte   N60 ,Fs4
 .byte   W68
 .byte   W03
 .byte   GOTO
  .word Label_7_017B3615
@ 084   ----------------------------------------
 .byte   W01
 .byte   FINE

@**************** Track 9 (Midi-Chn.8) ****************@

song0146_009:
@ 000   ----------------------------------------
 .byte   VOL , 30*song0146_mvl/mxv
 .byte   KEYSH , song0146_key+0
 .byte   VOICE , 48
 .byte   TIE ,An3 ,v096
 .byte   TIE ,En4
 .byte   TIE ,An4
 .byte   W96
@ 001   ----------------------------------------
 .byte   W96
@ 002   ----------------------------------------
 .byte   W92
Label_8_017B38D8:
 .byte   W02
 .byte   EOT
 .byte   An3
 .byte   N92 ,As3 ,v096
 .byte   W02
@ 003   ----------------------------------------
 .byte   W92
 .byte   W01
 .byte   TIE ,Bn3
 .byte   W03
@ 004   ----------------------------------------
 .byte   W92
 .byte   W02
 .byte   N96 ,Cn4
 .byte   W02
@ 005   ----------------------------------------
 .byte   EOT
 .byte   Bn3
 .byte   W92
 .byte   W02
 .byte   N96 ,Cs4
 .byte   W02
@ 006   ----------------------------------------
 .byte   W92
 .byte   W02
 .byte   N01 ,Dn4
 .byte   W02
@ 007   ----------------------------------------
 .byte   EOT
 .byte   En4 ,v081
 .byte   TIE ,Dn4
 .byte   TIE ,Fn4
 .byte   N96 ,An4
 .byte   W96
@ 008   ----------------------------------------
 .byte   As4
 .byte   W96
@ 009   ----------------------------------------
 .byte   TIE ,Cn5
 .byte   W96
@ 010   ----------------------------------------
 .byte   EOT
 .byte   Fn4
 .byte   N96 ,Gn4
 .byte   W01
 .byte   EOT
 .byte   Cn5
 .byte   N96 ,Bn4
 .byte   W92
 .byte   W03
@ 011   ----------------------------------------
 .byte   TIE ,Fn4
 .byte   W01
 .byte   N92 ,As4
 .byte   W92
 .byte   W03
@ 012   ----------------------------------------
 .byte   N96 ,Dn5
 .byte   W96
@ 013   ----------------------------------------
 .byte   EOT
 .byte   Fn4
 .byte   N01
 .byte   N96 ,Dn5
 .byte   W96
@ 014   ----------------------------------------
 .byte   W01
 .byte   En4
 .byte   N96 ,Cs5
 .byte   W92
 .byte   W03
@ 015   ----------------------------------------
 .byte   TIE ,Fn4
 .byte   W01
 .byte   Fn5
 .byte   W92
 .byte   W03
@ 016   ----------------------------------------
 .byte   W92
 .byte   W02
 .byte   En4
 .byte   TIE ,Gn4
 .byte   W01
 .byte   EOT
 .byte   Fn5
 .byte   W01
@ 017   ----------------------------------------
 .byte   Dn4
 .byte   TIE ,Fn5
 .byte   W01
 .byte   EOT
 .byte   Fn4
 .byte   W92
 .byte   W03
@ 018   ----------------------------------------
 .byte   TIE ,En5
 .byte   W01
 .byte   EOT
 .byte   Fn5
 .byte   W92
 .byte   W02
 .byte   En4 ,v079
 .byte   W01
@ 019   ----------------------------------------
 .byte   TIE ,En4
 .byte   TIE ,An4
 .byte   W01
 .byte   EOT
 .byte   En5
 .byte   TIE
 .byte   W92
 .byte   W03
@ 020   ----------------------------------------
 .byte   W96
@ 021   ----------------------------------------
 .byte   W92
 .byte   W03
 .byte   EOT
 .byte   W01
@ 022   ----------------------------------------
 .byte   W01
 .byte   N92 ,Dn5
 .byte   W92
 .byte   W03
@ 023   ----------------------------------------
 .byte   N96 ,Fn4
 .byte   N01 ,Dn5
 .byte   W01
 .byte   EOT
 .byte   En4 ,v081
 .byte   TIE
 .byte   W92
 .byte   W03
@ 024   ----------------------------------------
 .byte   N96 ,Gn4
 .byte   N96 ,Cs5
 .byte   W96
@ 025   ----------------------------------------
 .byte   TIE ,En4
 .byte   N96 ,En5
 .byte   W96
@ 026   ----------------------------------------
 .byte   Dn5
 .byte   W92
 .byte   W03
 .byte   EOT
 .byte   An4
 .byte   W01
@ 027   ----------------------------------------
 .byte   En4
 .byte   TIE
 .byte   TIE ,An4
 .byte   TIE ,Cs5
 .byte   W96
@ 028   ----------------------------------------
 .byte   W96
@ 029   ----------------------------------------
 .byte   W96
@ 030   ----------------------------------------
 .byte   W96
@ 031   ----------------------------------------
 .byte   W92
 .byte   W02
 .byte   Gn4
 .byte   W02
@ 032   ----------------------------------------
 .byte   EOT
 .byte   An4 ,v085
 .byte   TIE ,Cn5
 .byte   W92
 .byte   W03
 .byte   EOT
 .byte   Gn4
 .byte   W01
@ 033   ----------------------------------------
 .byte   TIE ,As4
 .byte   W01
 .byte   EOT
 .byte   En4 ,v084
 .byte   N92 ,Dn4
 .byte   N96 ,Fn4
 .byte   W92
 .byte   W03
@ 034   ----------------------------------------
 .byte   TIE ,Cn4
 .byte   W01
 .byte   EOT
 .byte   As4
 .byte   TIE ,Fn4
 .byte   TIE ,An4
 .byte   W92
 .byte   W03
@ 035   ----------------------------------------
 .byte   W92
 .byte   W02
 .byte   EOT
 .byte   Cn4
 .byte   W02
@ 036   ----------------------------------------
 .byte   W01
 .byte   Fn4 ,v081
 .byte   W92
 .byte   W03
@ 037   ----------------------------------------
 .byte   W96
@ 038   ----------------------------------------
 .byte   W96
@ 039   ----------------------------------------
 .byte   W96
@ 040   ----------------------------------------
 .byte   N96 ,An2 ,v127
 .byte   W96
@ 041   ----------------------------------------
 .byte   N48 ,Bn2
 .byte   W48
 .byte   Cn3
 .byte   W48
@ 042   ----------------------------------------
 .byte   N96 ,Fs3
 .byte   W96
@ 043   ----------------------------------------
 .byte   W01
 .byte   N92 ,Fn3
 .byte   W92
 .byte   W03
@ 044   ----------------------------------------
 .byte   N96 ,An3
 .byte   W96
@ 045   ----------------------------------------
 .byte   N48 ,Bn3
 .byte   W48
 .byte   Cn4
 .byte   W48
@ 046   ----------------------------------------
 .byte   N96 ,Fs4
 .byte   W96
@ 047   ----------------------------------------
 .byte   N48 ,Gs4
 .byte   W48
 .byte   Fs4
 .byte   W48
@ 048   ----------------------------------------
Label_8_017B39D2:
 .byte   TIE ,Bn2 ,v100
 .byte   TIE ,Cs3
 .byte   TIE ,Fn3
 .byte   W96
 .byte   PEND 
@ 049   ----------------------------------------
 .byte   W96
@ 050   ----------------------------------------
 .byte   EOT
 .byte   Bn2 ,v061
 .byte   Fn3
 .byte   TIE ,Bn2
 .byte   TIE ,Cs3
 .byte   TIE ,Ds3
 .byte   W96
@ 051   ----------------------------------------
 .byte   W96
@ 052   ----------------------------------------
 .byte   EOT
 .byte   Bn2 ,v061
 .byte   Ds3
 .byte   PATT
  .word Label_8_017B39D2
@ 053   ----------------------------------------
 .byte   W96
@ 054   ----------------------------------------
 .byte   EOT
 .byte   Bn2 ,v061
 .byte   Fn3
 .byte   TIE ,Bn2 ,v100
 .byte   TIE ,Dn3
 .byte   N96 ,Fs3
 .byte   W96
@ 055   ----------------------------------------
 .byte   Gs3
 .byte   W96
@ 056   ----------------------------------------
 .byte   EOT
 .byte   Bn2 ,v062
 .byte   TIE ,As2
 .byte   TIE ,Ds3
 .byte   TIE ,As3
 .byte   W96
@ 057   ----------------------------------------
 .byte   W96
@ 058   ----------------------------------------
 .byte   EOT
 .byte   Ds3
 .byte   TIE ,Fn3
 .byte   W96
@ 059   ----------------------------------------
 .byte   W96
@ 060   ----------------------------------------
 .byte   EOT
 .byte   TIE ,Fs3
 .byte   W96
@ 061   ----------------------------------------
 .byte   W96
@ 062   ----------------------------------------
 .byte   EOT
 .byte   TIE ,Gs3
 .byte   W01
 .byte   EOT
 .byte   As2
 .byte   TIE ,Bn2
 .byte   W92
 .byte   W03
@ 063   ----------------------------------------
 .byte   W92
 .byte   W03
 .byte   EOT
 .byte   W01
@ 064   ----------------------------------------
 .byte   EOT
 .byte   Gs3 ,v070
Label_8_017B3A27:
 .byte   TIE ,Ds4 ,v096
 .byte   TIE ,Fs4
 .byte   N96 ,As4
 .byte   W96
 .byte   PEND 
@ 065   ----------------------------------------
 .byte   Bn4
 .byte   W96
@ 066   ----------------------------------------
 .byte   TIE ,Cs5
 .byte   W96
@ 067   ----------------------------------------
 .byte   EOT
 .byte   Fs4
 .byte   N96 ,Gs4
 .byte   W01
 .byte   EOT
 .byte   Cs5
 .byte   N96 ,Cn5
 .byte   W92
 .byte   W03
@ 068   ----------------------------------------
Label_8_017B3A40:
 .byte   TIE ,Fs4 ,v096
 .byte   W01
 .byte   N92 ,Bn4
 .byte   W92
 .byte   W03
 .byte   PEND 
@ 069   ----------------------------------------
 .byte   N96 ,Ds5
 .byte   W96
@ 070   ----------------------------------------
 .byte   EOT
 .byte   Fs4
Label_8_017B3A4E:
 .byte   N01 ,Fs4 ,v096
 .byte   N96 ,Ds5
 .byte   W96
 .byte   PEND 
@ 071   ----------------------------------------
Label_8_017B3A55:
 .byte   W01
 .byte   N96 ,Fn4 ,v096
 .byte   N96 ,Dn5
 .byte   W92
 .byte   W03
 .byte   PEND 
@ 072   ----------------------------------------
Label_8_017B3A5E:
 .byte   TIE ,Fs4 ,v096
 .byte   W01
 .byte   Fs5
 .byte   W92
 .byte   W03
 .byte   PEND 
@ 073   ----------------------------------------
Label_8_017B3A66:
 .byte   W92
 .byte   W02
 .byte   TIE ,Fn4 ,v096
 .byte   TIE ,Gs4
 .byte   W01
 .byte   PEND 
 .byte   EOT
 .byte   Fs5
 .byte   W01
@ 074   ----------------------------------------
 .byte   Ds4
 .byte   TIE ,Fs5
 .byte   W01
 .byte   EOT
 .byte   Fs4
 .byte   W92
 .byte   W03
@ 075   ----------------------------------------
 .byte   N96 ,Fn5
 .byte   W01
 .byte   EOT
 .byte   Fs5
 .byte   W92
 .byte   W02
 .byte   Fn4 ,v080
 .byte   W01
 .byte   PATT
  .word Label_8_017B3A27
@ 076   ----------------------------------------
 .byte   N96 ,Bn4 ,v096
 .byte   W96
@ 077   ----------------------------------------
 .byte   TIE ,Cs5
 .byte   W96
@ 078   ----------------------------------------
 .byte   EOT
 .byte   Fs4
 .byte   N96 ,Gs4
 .byte   W01
 .byte   EOT
 .byte   Cs5
 .byte   N96 ,Cn5
 .byte   W92
 .byte   W03
 .byte   PATT
  .word Label_8_017B3A40
@ 079   ----------------------------------------
 .byte   N96 ,Ds5 ,v096
 .byte   W96
@ 080   ----------------------------------------
 .byte   EOT
 .byte   Fs4
 .byte   PATT
  .word Label_8_017B3A4E
 .byte   PATT
  .word Label_8_017B3A55
 .byte   PATT
  .word Label_8_017B3A5E
 .byte   PATT
  .word Label_8_017B3A66
@ 081   ----------------------------------------
 .byte   EOT
 .byte   Fs5
 .byte   W01
 .byte   Ds4
 .byte   TIE ,Fs5 ,v096
 .byte   W01
 .byte   EOT
 .byte   Fs4
 .byte   W92
 .byte   W03
@ 082   ----------------------------------------
 .byte   N96 ,Fn5
 .byte   W01
 .byte   EOT
 .byte   Fs5
 .byte   W92
 .byte   W02
 .byte   Fn4 ,v080
 .byte   W01
@ 083   ----------------------------------------
 .byte   TIE ,Fn4
 .byte   TIE ,As4
 .byte   N01 ,Fn5
 .byte   W01
 .byte   TIE
 .byte   W92
 .byte   W03
@ 084   ----------------------------------------
 .byte   W96
@ 085   ----------------------------------------
 .byte   W92
 .byte   W03
 .byte   EOT
 .byte   W01
@ 086   ----------------------------------------
 .byte   W01
 .byte   N92 ,Ds5
 .byte   W92
 .byte   W03
@ 087   ----------------------------------------
 .byte   N96 ,Fs4
 .byte   N01 ,Ds5
 .byte   W01
 .byte   EOT
 .byte   Fn4 ,v082
 .byte   TIE
 .byte   W92
 .byte   W03
@ 088   ----------------------------------------
 .byte   N96 ,Gs4
 .byte   N96 ,Dn5
 .byte   W96
@ 089   ----------------------------------------
 .byte   TIE ,Fn4
 .byte   N96 ,Fn5
 .byte   W96
@ 090   ----------------------------------------
 .byte   Ds5
 .byte   W92
 .byte   W03
 .byte   EOT
 .byte   As4
 .byte   GOTO
  .word Label_8_017B38D8
@ 091   ----------------------------------------
 .byte   W01
 .byte   EOT
 .byte   Fn4
 .byte   FINE

@**************** Track 10 (Midi-Chn.9) ****************@

song0146_010:
@ 000   ----------------------------------------
 .byte   VOL , 50*song0146_mvl/mxv
 .byte   KEYSH , song0146_key+0
 .byte   VOICE , 33
 .byte   W96
@ 001   ----------------------------------------
 .byte   W96
@ 002   ----------------------------------------
 .byte   W92
Label_9_017B3B11:
 .byte   W04
@ 003   ----------------------------------------
 .byte   W96
@ 004   ----------------------------------------
 .byte   W96
@ 005   ----------------------------------------
 .byte   W96
@ 006   ----------------------------------------
 .byte   W96
@ 007   ----------------------------------------
Label_9_017B3B16:
 .byte   N24 ,Dn2 ,v100
 .byte   W36
 .byte   N24
 .byte   W24
 .byte   N12
 .byte   W12
 .byte   N12
 .byte   W12
 .byte   An1
 .byte   W12
 .byte   PEND 
@ 008   ----------------------------------------
Label_9_017B3B23:
 .byte   N24 ,Dn2 ,v100
 .byte   W36
 .byte   N24
 .byte   W24
 .byte   N12 ,An1
 .byte   W12
 .byte   Dn2
 .byte   W12
 .byte   En2
 .byte   W12
 .byte   PEND 
 .byte   PATT
  .word Label_9_017B3B16
@ 009   ----------------------------------------
Label_9_017B3B36:
 .byte   N24 ,Dn2 ,v100
 .byte   W36
 .byte   N24
 .byte   W24
 .byte   N12
 .byte   W12
 .byte   N12
 .byte   W12
 .byte   Cn2
 .byte   W12
 .byte   PEND 
@ 010   ----------------------------------------
Label_9_017B3B43:
 .byte   N24 ,As1 ,v100
 .byte   W36
 .byte   N24
 .byte   W24
 .byte   N12
 .byte   W12
 .byte   N12
 .byte   W12
 .byte   N12
 .byte   W12
 .byte   PEND 
@ 011   ----------------------------------------
Label_9_017B3B50:
 .byte   N12 ,An1 ,v100
 .byte   W12
 .byte   N12
 .byte   W24
 .byte   N24
 .byte   W24
 .byte   N12 ,An2
 .byte   W12
 .byte   En2
 .byte   W12
 .byte   An1
 .byte   W12
 .byte   PEND 
@ 012   ----------------------------------------
Label_9_017B3B60:
 .byte   N24 ,As1 ,v100
 .byte   W36
 .byte   N24
 .byte   W24
 .byte   N12
 .byte   W12
 .byte   N12
 .byte   W12
 .byte   Fn1
 .byte   W12
 .byte   PEND 
 .byte   PATT
  .word Label_9_017B3B60
 .byte   PATT
  .word Label_9_017B3B60
 .byte   PATT
  .word Label_9_017B3B60
@ 013   ----------------------------------------
Label_9_017B3B7C:
 .byte   N24 ,Cn2 ,v100
 .byte   W36
 .byte   N24
 .byte   W24
 .byte   N12
 .byte   W12
 .byte   N12
 .byte   W12
 .byte   Gn1
 .byte   W12
 .byte   PEND 
@ 014   ----------------------------------------
Label_9_017B3B89:
 .byte   N24 ,Cs2 ,v100
 .byte   W36
 .byte   N24
 .byte   W24
 .byte   N12 ,An1
 .byte   W12
 .byte   An2
 .byte   W12
 .byte   En2
 .byte   W12
 .byte   PEND 
 .byte   PATT
  .word Label_9_017B3B16
 .byte   PATT
  .word Label_9_017B3B23
 .byte   PATT
  .word Label_9_017B3B16
 .byte   PATT
  .word Label_9_017B3B36
 .byte   PATT
  .word Label_9_017B3B43
 .byte   PATT
  .word Label_9_017B3B50
 .byte   PATT
  .word Label_9_017B3B16
 .byte   PATT
  .word Label_9_017B3B16
@ 015   ----------------------------------------
Label_9_017B3BBF:
 .byte   N24 ,Dn2 ,v100
 .byte   W36
 .byte   N24
 .byte   W24
 .byte   N12
 .byte   W12
 .byte   N12
 .byte   W12
 .byte   As1
 .byte   W12
 .byte   PEND 
 .byte   PATT
  .word Label_9_017B3BBF
 .byte   PATT
  .word Label_9_017B3BBF
 .byte   PATT
  .word Label_9_017B3BBF
 .byte   PATT
  .word Label_9_017B3BBF
 .byte   PATT
  .word Label_9_017B3BBF
 .byte   PATT
  .word Label_9_017B3BBF
 .byte   PATT
  .word Label_9_017B3BBF
 .byte   PATT
  .word Label_9_017B3BBF
 .byte   PATT
  .word Label_9_017B3B60
 .byte   PATT
  .word Label_9_017B3B60
 .byte   PATT
  .word Label_9_017B3B7C
 .byte   PATT
  .word Label_9_017B3B89
@ 016   ----------------------------------------
Label_9_017B3C08:
 .byte   N12 ,An1 ,v100
 .byte   W12
 .byte   N12
 .byte   W24
 .byte   N12
 .byte   W24
 .byte   N12
 .byte   W12
 .byte   An2
 .byte   W12
 .byte   En2
 .byte   W12
 .byte   PEND 
 .byte   PATT
  .word Label_9_017B3C08
@ 017   ----------------------------------------
Label_9_017B3C1C:
 .byte   N12 ,As1 ,v100
 .byte   W12
 .byte   N12
 .byte   W24
 .byte   N12
 .byte   W24
 .byte   N12
 .byte   W12
 .byte   An2
 .byte   W12
 .byte   Fn2
 .byte   W12
 .byte   PEND 
 .byte   PATT
  .word Label_9_017B3C1C
 .byte   PATT
  .word Label_9_017B3C08
 .byte   PATT
  .word Label_9_017B3C08
 .byte   PATT
  .word Label_9_017B3C1C
 .byte   PATT
  .word Label_9_017B3C1C
@ 018   ----------------------------------------
 .byte   W96
@ 019   ----------------------------------------
 .byte   W96
@ 020   ----------------------------------------
 .byte   W96
@ 021   ----------------------------------------
 .byte   W96
@ 022   ----------------------------------------
 .byte   W96
@ 023   ----------------------------------------
 .byte   W96
@ 024   ----------------------------------------
 .byte   W96
@ 025   ----------------------------------------
 .byte   W96
@ 026   ----------------------------------------
 .byte   W96
@ 027   ----------------------------------------
 .byte   W96
@ 028   ----------------------------------------
 .byte   W96
@ 029   ----------------------------------------
 .byte   W96
@ 030   ----------------------------------------
 .byte   W96
@ 031   ----------------------------------------
 .byte   W96
@ 032   ----------------------------------------
 .byte   W96
@ 033   ----------------------------------------
 .byte   W96
@ 034   ----------------------------------------
Label_9_017B3C54:
 .byte   N24 ,Ds2 ,v100
 .byte   W36
 .byte   N24
 .byte   W24
 .byte   N12
 .byte   W12
 .byte   N12
 .byte   W12
 .byte   As1
 .byte   W12
 .byte   PEND 
@ 035   ----------------------------------------
Label_9_017B3C61:
 .byte   N24 ,Ds2 ,v100
 .byte   W36
 .byte   N24
 .byte   W24
 .byte   N12 ,As1
 .byte   W12
 .byte   Ds2
 .byte   W12
 .byte   Fn2
 .byte   W12
 .byte   PEND 
 .byte   PATT
  .word Label_9_017B3C54
@ 036   ----------------------------------------
Label_9_017B3C74:
 .byte   N24 ,Ds2 ,v100
 .byte   W36
 .byte   N24
 .byte   W24
 .byte   N12
 .byte   W12
 .byte   N12
 .byte   W12
 .byte   Cs2
 .byte   W12
 .byte   PEND 
@ 037   ----------------------------------------
Label_9_017B3C81:
 .byte   N24 ,Bn1 ,v100
 .byte   W36
 .byte   N24
 .byte   W24
 .byte   N12
 .byte   W12
 .byte   N12
 .byte   W12
 .byte   N12
 .byte   W12
 .byte   PEND 
@ 038   ----------------------------------------
Label_9_017B3C8E:
 .byte   N12 ,As1 ,v100
 .byte   W12
 .byte   N12
 .byte   W24
 .byte   N24
 .byte   W24
 .byte   N12 ,As2
 .byte   W12
 .byte   Fn2
 .byte   W12
 .byte   As1
 .byte   W12
 .byte   PEND 
 .byte   PATT
  .word Label_9_017B3B60
 .byte   PATT
  .word Label_9_017B3B60
 .byte   PATT
  .word Label_9_017B3B60
 .byte   PATT
  .word Label_9_017B3B60
 .byte   PATT
  .word Label_9_017B3B7C
 .byte   PATT
  .word Label_9_017B3B89
 .byte   PATT
  .word Label_9_017B3C54
 .byte   PATT
  .word Label_9_017B3C61
 .byte   PATT
  .word Label_9_017B3C54
 .byte   PATT
  .word Label_9_017B3C74
 .byte   PATT
  .word Label_9_017B3C81
 .byte   PATT
  .word Label_9_017B3C8E
@ 039   ----------------------------------------
Label_9_017B3CDA:
 .byte   N24 ,Bn1 ,v100
 .byte   W36
 .byte   N24
 .byte   W24
 .byte   N12
 .byte   W12
 .byte   N12
 .byte   W12
 .byte   Fs1
 .byte   W12
 .byte   PEND 
 .byte   PATT
  .word Label_9_017B3CDA
 .byte   PATT
  .word Label_9_017B3CDA
 .byte   PATT
  .word Label_9_017B3CDA
@ 040   ----------------------------------------
 .byte   N24 ,Cs2 ,v100
 .byte   W36
 .byte   N24
 .byte   W24
 .byte   N12
 .byte   W12
 .byte   N12
 .byte   W12
 .byte   Gs1
 .byte   W12
@ 041   ----------------------------------------
 .byte   N24 ,Dn2
 .byte   W36
 .byte   N24
 .byte   W24
 .byte   N12 ,As1
 .byte   W12
 .byte   As2
 .byte   W12
 .byte   Fn2
 .byte   W12
 .byte   PATT
  .word Label_9_017B3C54
 .byte   PATT
  .word Label_9_017B3C61
 .byte   PATT
  .word Label_9_017B3C54
 .byte   PATT
  .word Label_9_017B3C74
 .byte   PATT
  .word Label_9_017B3C81
 .byte   PATT
  .word Label_9_017B3C8E
 .byte   PATT
  .word Label_9_017B3C54
@ 042   ----------------------------------------
 .byte   N24 ,Ds2 ,v100
 .byte   W36
 .byte   N24
 .byte   W24
 .byte   N12
 .byte   W12
 .byte   N12
 .byte   W12
 .byte   As1
 .byte   W11
 .byte   GOTO
  .word Label_9_017B3B11
@ 043   ----------------------------------------
 .byte   W01
 .byte   FINE

@**************** Track 11 (Midi-Chn.10) ****************@

song0146_011:
@ 000   ----------------------------------------
 .byte   VOL , 50*song0146_mvl/mxv
 .byte   KEYSH , song0146_key+0
 .byte   VOICE , 119
 .byte   W96
@ 001   ----------------------------------------
 .byte   W96
@ 002   ----------------------------------------
 .byte   W92
Label_10_017B3D4D:
 .byte   W04
@ 003   ----------------------------------------
 .byte   W96
@ 004   ----------------------------------------
 .byte   W96
@ 005   ----------------------------------------
 .byte   W96
@ 006   ----------------------------------------
 .byte   W96
@ 007   ----------------------------------------
 .byte   TIE ,Fn3 ,v120
 .byte   W96
@ 008   ----------------------------------------
 .byte   W96
@ 009   ----------------------------------------
 .byte   EOT
 .byte   W96
@ 010   ----------------------------------------
 .byte   W96
@ 011   ----------------------------------------
 .byte   W96
@ 012   ----------------------------------------
 .byte   W96
@ 013   ----------------------------------------
 .byte   W96
@ 014   ----------------------------------------
 .byte   W96
@ 015   ----------------------------------------
 .byte   W96
@ 016   ----------------------------------------
 .byte   W96
@ 017   ----------------------------------------
 .byte   W96
@ 018   ----------------------------------------
 .byte   W72
 .byte   TIE
 .byte   W24
@ 019   ----------------------------------------
 .byte   W96
@ 020   ----------------------------------------
 .byte   W72
 .byte   EOT
 .byte   W24
@ 021   ----------------------------------------
 .byte   W96
@ 022   ----------------------------------------
 .byte   W96
@ 023   ----------------------------------------
 .byte   W96
@ 024   ----------------------------------------
 .byte   W96
@ 025   ----------------------------------------
 .byte   W96
@ 026   ----------------------------------------
 .byte   W96
@ 027   ----------------------------------------
 .byte   TIE
 .byte   W96
@ 028   ----------------------------------------
 .byte   W96
@ 029   ----------------------------------------
 .byte   EOT
 .byte   W96
@ 030   ----------------------------------------
 .byte   W96
@ 031   ----------------------------------------
 .byte   W96
@ 032   ----------------------------------------
 .byte   W96
@ 033   ----------------------------------------
 .byte   W96
@ 034   ----------------------------------------
 .byte   W96
@ 035   ----------------------------------------
 .byte   W96
@ 036   ----------------------------------------
 .byte   W96
@ 037   ----------------------------------------
 .byte   W96
@ 038   ----------------------------------------
 .byte   W96
@ 039   ----------------------------------------
 .byte   W96
@ 040   ----------------------------------------
 .byte   W96
@ 041   ----------------------------------------
 .byte   W96
@ 042   ----------------------------------------
 .byte   W96
@ 043   ----------------------------------------
 .byte   W96
@ 044   ----------------------------------------
 .byte   W96
@ 045   ----------------------------------------
 .byte   W96
@ 046   ----------------------------------------
 .byte   W96
@ 047   ----------------------------------------
 .byte   W96
@ 048   ----------------------------------------
 .byte   W96
@ 049   ----------------------------------------
 .byte   W96
@ 050   ----------------------------------------
 .byte   W96
@ 051   ----------------------------------------
 .byte   W96
@ 052   ----------------------------------------
 .byte   W96
@ 053   ----------------------------------------
 .byte   W96
@ 054   ----------------------------------------
 .byte   W96
@ 055   ----------------------------------------
 .byte   W96
@ 056   ----------------------------------------
 .byte   W96
@ 057   ----------------------------------------
 .byte   W96
@ 058   ----------------------------------------
 .byte   W96
@ 059   ----------------------------------------
 .byte   W96
@ 060   ----------------------------------------
 .byte   W96
@ 061   ----------------------------------------
 .byte   W96
@ 062   ----------------------------------------
 .byte   W96
@ 063   ----------------------------------------
 .byte   W96
@ 064   ----------------------------------------
 .byte   TIE
 .byte   W96
@ 065   ----------------------------------------
 .byte   W96
@ 066   ----------------------------------------
 .byte   EOT
 .byte   W96
@ 067   ----------------------------------------
 .byte   W96
@ 068   ----------------------------------------
 .byte   W96
@ 069   ----------------------------------------
 .byte   W96
@ 070   ----------------------------------------
 .byte   W96
@ 071   ----------------------------------------
 .byte   W96
@ 072   ----------------------------------------
 .byte   W96
@ 073   ----------------------------------------
 .byte   W96
@ 074   ----------------------------------------
 .byte   W96
@ 075   ----------------------------------------
 .byte   W96
@ 076   ----------------------------------------
 .byte   TIE
 .byte   W96
@ 077   ----------------------------------------
 .byte   W96
@ 078   ----------------------------------------
 .byte   EOT
 .byte   W96
@ 079   ----------------------------------------
 .byte   W96
@ 080   ----------------------------------------
 .byte   W96
@ 081   ----------------------------------------
 .byte   W96
@ 082   ----------------------------------------
 .byte   W96
@ 083   ----------------------------------------
 .byte   W96
@ 084   ----------------------------------------
 .byte   W96
@ 085   ----------------------------------------
 .byte   W96
@ 086   ----------------------------------------
 .byte   W96
@ 087   ----------------------------------------
 .byte   W96
@ 088   ----------------------------------------
 .byte   TIE
 .byte   W96
@ 089   ----------------------------------------
 .byte   W72
 .byte   EOT
 .byte   W24
@ 090   ----------------------------------------
 .byte   W96
@ 091   ----------------------------------------
 .byte   W96
@ 092   ----------------------------------------
 .byte   W96
@ 093   ----------------------------------------
 .byte   W96
@ 094   ----------------------------------------
 .byte   W96
@ 095   ----------------------------------------
 .byte   W92
 .byte   W03
 .byte   GOTO
  .word Label_10_017B3D4D
@ 096   ----------------------------------------
 .byte   W01
 .byte   FINE

@**************** Track 12 (Midi-Chn.11) ****************@

song0146_012:
@ 000   ----------------------------------------
 .byte   VOL , 70*song0146_mvl/mxv
 .byte   KEYSH , song0146_key+0
 .byte   VOICE , 121
 .byte   W96
@ 001   ----------------------------------------
 .byte   W96
@ 002   ----------------------------------------
 .byte   W92
Label_11_017B3DCD:
 .byte   W04
@ 003   ----------------------------------------
 .byte   W96
@ 004   ----------------------------------------
 .byte   W96
@ 005   ----------------------------------------
 .byte   W96
@ 006   ----------------------------------------
 .byte   W96
@ 007   ----------------------------------------
Label_11_017B3DD2:
 .byte   N06 ,Dn2 ,v096
 .byte   W12
 .byte   N06
 .byte   W06
 .byte   N06
 .byte   W06
 .byte   N06
 .byte   W12
 .byte   N06
 .byte   W12
 .byte   N06
 .byte   W06
 .byte   N06
 .byte   W06
 .byte   N06
 .byte   W12
 .byte   N06
 .byte   W12
 .byte   N06
 .byte   W12
 .byte   PEND 
 .byte   PATT
  .word Label_11_017B3DD2
 .byte   PATT
  .word Label_11_017B3DD2
 .byte   PATT
  .word Label_11_017B3DD2
 .byte   PATT
  .word Label_11_017B3DD2
 .byte   PATT
  .word Label_11_017B3DD2
@ 008   ----------------------------------------
 .byte   W96
@ 009   ----------------------------------------
 .byte   W96
 .byte   PATT
  .word Label_11_017B3DD2
 .byte   PATT
  .word Label_11_017B3DD2
 .byte   PATT
  .word Label_11_017B3DD2
 .byte   PATT
  .word Label_11_017B3DD2
 .byte   PATT
  .word Label_11_017B3DD2
 .byte   PATT
  .word Label_11_017B3DD2
 .byte   PATT
  .word Label_11_017B3DD2
 .byte   PATT
  .word Label_11_017B3DD2
@ 010   ----------------------------------------
 .byte   W96
@ 011   ----------------------------------------
 .byte   W96
 .byte   PATT
  .word Label_11_017B3DD2
 .byte   PATT
  .word Label_11_017B3DD2
 .byte   PATT
  .word Label_11_017B3DD2
 .byte   PATT
  .word Label_11_017B3DD2
 .byte   PATT
  .word Label_11_017B3DD2
 .byte   PATT
  .word Label_11_017B3DD2
 .byte   PATT
  .word Label_11_017B3DD2
 .byte   PATT
  .word Label_11_017B3DD2
 .byte   PATT
  .word Label_11_017B3DD2
 .byte   PATT
  .word Label_11_017B3DD2
 .byte   PATT
  .word Label_11_017B3DD2
 .byte   PATT
  .word Label_11_017B3DD2
 .byte   PATT
  .word Label_11_017B3DD2
 .byte   PATT
  .word Label_11_017B3DD2
 .byte   PATT
  .word Label_11_017B3DD2
 .byte   PATT
  .word Label_11_017B3DD2
 .byte   PATT
  .word Label_11_017B3DD2
 .byte   PATT
  .word Label_11_017B3DD2
 .byte   PATT
  .word Label_11_017B3DD2
 .byte   PATT
  .word Label_11_017B3DD2
 .byte   PATT
  .word Label_11_017B3DD2
 .byte   PATT
  .word Label_11_017B3DD2
 .byte   PATT
  .word Label_11_017B3DD2
@ 012   ----------------------------------------
 .byte   W96
@ 013   ----------------------------------------
 .byte   W96
@ 014   ----------------------------------------
 .byte   W96
@ 015   ----------------------------------------
 .byte   W96
@ 016   ----------------------------------------
 .byte   W96
@ 017   ----------------------------------------
 .byte   W96
@ 018   ----------------------------------------
 .byte   W96
@ 019   ----------------------------------------
 .byte   W96
 .byte   PATT
  .word Label_11_017B3DD2
 .byte   PATT
  .word Label_11_017B3DD2
 .byte   PATT
  .word Label_11_017B3DD2
 .byte   PATT
  .word Label_11_017B3DD2
 .byte   PATT
  .word Label_11_017B3DD2
 .byte   PATT
  .word Label_11_017B3DD2
 .byte   PATT
  .word Label_11_017B3DD2
 .byte   PATT
  .word Label_11_017B3DD2
@ 020   ----------------------------------------
 .byte   W96
@ 021   ----------------------------------------
 .byte   W96
@ 022   ----------------------------------------
 .byte   W96
@ 023   ----------------------------------------
 .byte   W96
@ 024   ----------------------------------------
 .byte   W96
@ 025   ----------------------------------------
 .byte   W96
@ 026   ----------------------------------------
 .byte   W96
@ 027   ----------------------------------------
 .byte   W96
@ 028   ----------------------------------------
 .byte   W96
@ 029   ----------------------------------------
 .byte   W96
@ 030   ----------------------------------------
 .byte   W96
@ 031   ----------------------------------------
 .byte   W96
 .byte   PATT
  .word Label_11_017B3DD2
 .byte   PATT
  .word Label_11_017B3DD2
 .byte   PATT
  .word Label_11_017B3DD2
 .byte   PATT
  .word Label_11_017B3DD2
 .byte   PATT
  .word Label_11_017B3DD2
 .byte   PATT
  .word Label_11_017B3DD2
 .byte   PATT
  .word Label_11_017B3DD2
 .byte   PATT
  .word Label_11_017B3DD2
 .byte   PATT
  .word Label_11_017B3DD2
 .byte   PATT
  .word Label_11_017B3DD2
 .byte   PATT
  .word Label_11_017B3DD2
 .byte   PATT
  .word Label_11_017B3DD2
 .byte   PATT
  .word Label_11_017B3DD2
 .byte   PATT
  .word Label_11_017B3DD2
 .byte   PATT
  .word Label_11_017B3DD2
 .byte   PATT
  .word Label_11_017B3DD2
@ 032   ----------------------------------------
 .byte   W96
@ 033   ----------------------------------------
 .byte   W96
 .byte   PATT
  .word Label_11_017B3DD2
@ 034   ----------------------------------------
 .byte   N06 ,Dn2 ,v096
 .byte   W12
 .byte   N06
 .byte   W06
 .byte   N06
 .byte   W06
 .byte   N06
 .byte   W12
 .byte   N06
 .byte   W12
 .byte   N06
 .byte   W06
 .byte   N06
 .byte   W06
 .byte   N06
 .byte   W12
 .byte   N06
 .byte   W12
 .byte   N06
 .byte   W11
 .byte   GOTO
  .word Label_11_017B3DCD
@ 035   ----------------------------------------
 .byte   W01
 .byte   FINE

@**************** Track 13 (Midi-Chn.12) ****************@

song0146_013:
@ 000   ----------------------------------------
 .byte   VOL , 50*song0146_mvl/mxv
 .byte   KEYSH , song0146_key+0
 .byte   VOICE , 52
 .byte   W96
@ 001   ----------------------------------------
 .byte   W96
@ 002   ----------------------------------------
 .byte   W92
Label_12_017B3F5D:
 .byte   W04
@ 003   ----------------------------------------
 .byte   W96
@ 004   ----------------------------------------
 .byte   W96
@ 005   ----------------------------------------
 .byte   W96
@ 006   ----------------------------------------
 .byte   W96
@ 007   ----------------------------------------
 .byte   W96
@ 008   ----------------------------------------
 .byte   W96
@ 009   ----------------------------------------
 .byte   W96
@ 010   ----------------------------------------
 .byte   W96
@ 011   ----------------------------------------
 .byte   W96
@ 012   ----------------------------------------
 .byte   W96
@ 013   ----------------------------------------
 .byte   W96
@ 014   ----------------------------------------
 .byte   W96
@ 015   ----------------------------------------
 .byte   W96
@ 016   ----------------------------------------
 .byte   W96
@ 017   ----------------------------------------
 .byte   W96
@ 018   ----------------------------------------
 .byte   W96
@ 019   ----------------------------------------
 .byte   W96
@ 020   ----------------------------------------
 .byte   W96
@ 021   ----------------------------------------
 .byte   W96
@ 022   ----------------------------------------
 .byte   W96
@ 023   ----------------------------------------
 .byte   W96
@ 024   ----------------------------------------
 .byte   W96
@ 025   ----------------------------------------
 .byte   W96
@ 026   ----------------------------------------
 .byte   W96
@ 027   ----------------------------------------
 .byte   W96
@ 028   ----------------------------------------
 .byte   W96
@ 029   ----------------------------------------
 .byte   W96
@ 030   ----------------------------------------
 .byte   W96
@ 031   ----------------------------------------
 .byte   W96
@ 032   ----------------------------------------
 .byte   W96
@ 033   ----------------------------------------
 .byte   W96
@ 034   ----------------------------------------
 .byte   N72 ,Cn4 ,v096
 .byte   W72
 .byte   As3
 .byte   W24
@ 035   ----------------------------------------
 .byte   W48
 .byte   N48 ,An3
 .byte   W48
@ 036   ----------------------------------------
 .byte   N96 ,Gn3
 .byte   W96
@ 037   ----------------------------------------
 .byte   Fn3
 .byte   W96
@ 038   ----------------------------------------
 .byte   En3
 .byte   W96
@ 039   ----------------------------------------
 .byte   W96
@ 040   ----------------------------------------
Label_12_017B3F8F:
 .byte   TIE ,En3 ,v096
 .byte   TIE ,Cn4
 .byte   W96
 .byte   PEND 
@ 041   ----------------------------------------
 .byte   W96
@ 042   ----------------------------------------
 .byte   EOT
 .byte   En3 ,v072
 .byte   TIE ,Fn3
 .byte   N96 ,As3
 .byte   W96
@ 043   ----------------------------------------
 .byte   An3
 .byte   W96
@ 044   ----------------------------------------
 .byte   EOT
 .byte   Fn3
 .byte   PATT
  .word Label_12_017B3F8F
@ 045   ----------------------------------------
 .byte   W96
@ 046   ----------------------------------------
 .byte   EOT
 .byte   En3 ,v072
 .byte   TIE ,Fn3 ,v096
 .byte   N96 ,Cs4
 .byte   W96
@ 047   ----------------------------------------
 .byte   Dn4
 .byte   W96
@ 048   ----------------------------------------
 .byte   EOT
 .byte   Fn3
 .byte   TIE ,Fs3
 .byte   TIE ,Fn4
 .byte   W96
@ 049   ----------------------------------------
 .byte   W96
@ 050   ----------------------------------------
 .byte   EOT
 .byte   TIE ,Ds4
 .byte   W96
@ 051   ----------------------------------------
 .byte   W96
@ 052   ----------------------------------------
 .byte   EOT
 .byte   Fs3 ,v075
 .byte   TIE ,As3
 .byte   TIE ,Fn4
 .byte   W96
@ 053   ----------------------------------------
 .byte   W96
@ 054   ----------------------------------------
 .byte   EOT
 .byte   TIE ,Fs4
 .byte   W96
@ 055   ----------------------------------------
 .byte   W96
@ 056   ----------------------------------------
 .byte   EOT
 .byte   As3 ,v078
 .byte   W96
@ 057   ----------------------------------------
 .byte   W96
@ 058   ----------------------------------------
 .byte   W96
@ 059   ----------------------------------------
 .byte   W96
@ 060   ----------------------------------------
 .byte   W96
@ 061   ----------------------------------------
 .byte   W96
@ 062   ----------------------------------------
 .byte   W96
@ 063   ----------------------------------------
 .byte   W96
@ 064   ----------------------------------------
 .byte   W96
@ 065   ----------------------------------------
 .byte   W96
@ 066   ----------------------------------------
 .byte   W96
@ 067   ----------------------------------------
 .byte   W96
@ 068   ----------------------------------------
 .byte   W96
@ 069   ----------------------------------------
 .byte   W96
@ 070   ----------------------------------------
 .byte   W96
@ 071   ----------------------------------------
 .byte   W96
@ 072   ----------------------------------------
 .byte   W96
@ 073   ----------------------------------------
 .byte   W96
@ 074   ----------------------------------------
 .byte   W96
@ 075   ----------------------------------------
 .byte   W96
@ 076   ----------------------------------------
 .byte   W96
@ 077   ----------------------------------------
 .byte   W96
@ 078   ----------------------------------------
 .byte   W96
@ 079   ----------------------------------------
 .byte   W96
@ 080   ----------------------------------------
 .byte   W96
@ 081   ----------------------------------------
 .byte   W96
@ 082   ----------------------------------------
 .byte   W96
@ 083   ----------------------------------------
 .byte   W96
@ 084   ----------------------------------------
 .byte   W96
@ 085   ----------------------------------------
 .byte   W96
@ 086   ----------------------------------------
 .byte   W96
@ 087   ----------------------------------------
 .byte   W96
@ 088   ----------------------------------------
 .byte   W96
@ 089   ----------------------------------------
 .byte   W96
@ 090   ----------------------------------------
 .byte   W96
@ 091   ----------------------------------------
 .byte   W96
@ 092   ----------------------------------------
 .byte   W96
@ 093   ----------------------------------------
 .byte   W96
@ 094   ----------------------------------------
 .byte   W96
@ 095   ----------------------------------------
 .byte   W92
 .byte   W03
 .byte   GOTO
  .word Label_12_017B3F5D
@ 096   ----------------------------------------
 .byte   W01
 .byte   FINE

@**************** Track 14 (Midi-Chn.13) ****************@

song0146_014:
@ 000   ----------------------------------------
 .byte   VOL , 50*song0146_mvl/mxv
 .byte   KEYSH , song0146_key+0
 .byte   VOICE , 68
 .byte   W96
@ 001   ----------------------------------------
 .byte   W96
@ 002   ----------------------------------------
 .byte   W92
Label_13_017B400D:
 .byte   W04
@ 003   ----------------------------------------
 .byte   W96
@ 004   ----------------------------------------
 .byte   W96
@ 005   ----------------------------------------
 .byte   W96
@ 006   ----------------------------------------
 .byte   W96
@ 007   ----------------------------------------
 .byte   W96
@ 008   ----------------------------------------
 .byte   W96
@ 009   ----------------------------------------
 .byte   W96
@ 010   ----------------------------------------
 .byte   W96
@ 011   ----------------------------------------
 .byte   W96
@ 012   ----------------------------------------
 .byte   W96
@ 013   ----------------------------------------
 .byte   W96
@ 014   ----------------------------------------
 .byte   W96
@ 015   ----------------------------------------
 .byte   W96
@ 016   ----------------------------------------
 .byte   W96
@ 017   ----------------------------------------
 .byte   W96
@ 018   ----------------------------------------
 .byte   W96
@ 019   ----------------------------------------
 .byte   W96
@ 020   ----------------------------------------
 .byte   W96
@ 021   ----------------------------------------
 .byte   W96
@ 022   ----------------------------------------
 .byte   W96
@ 023   ----------------------------------------
 .byte   W96
@ 024   ----------------------------------------
 .byte   W96
@ 025   ----------------------------------------
 .byte   W96
@ 026   ----------------------------------------
 .byte   W96
@ 027   ----------------------------------------
 .byte   W96
@ 028   ----------------------------------------
 .byte   W96
@ 029   ----------------------------------------
 .byte   W96
@ 030   ----------------------------------------
 .byte   W96
@ 031   ----------------------------------------
 .byte   W96
@ 032   ----------------------------------------
 .byte   W96
@ 033   ----------------------------------------
 .byte   W96
@ 034   ----------------------------------------
 .byte   W96
@ 035   ----------------------------------------
 .byte   W96
@ 036   ----------------------------------------
 .byte   W96
@ 037   ----------------------------------------
 .byte   W96
@ 038   ----------------------------------------
 .byte   W96
@ 039   ----------------------------------------
 .byte   W96
@ 040   ----------------------------------------
 .byte   W96
@ 041   ----------------------------------------
 .byte   W96
@ 042   ----------------------------------------
 .byte   W96
@ 043   ----------------------------------------
 .byte   W96
@ 044   ----------------------------------------
 .byte   W96
@ 045   ----------------------------------------
 .byte   W96
@ 046   ----------------------------------------
 .byte   W96
@ 047   ----------------------------------------
 .byte   W96
@ 048   ----------------------------------------
 .byte   W48
 .byte   N48 ,Fn3 ,v108
 .byte   W48
@ 049   ----------------------------------------
 .byte   Ds3
 .byte   W48
 .byte   Gs3
 .byte   W48
@ 050   ----------------------------------------
 .byte   Fs3
 .byte   W48
 .byte   N96 ,Fn3
 .byte   W48
@ 051   ----------------------------------------
 .byte   W48
 .byte   N48 ,Ds3
 .byte   W48
@ 052   ----------------------------------------
 .byte   W48
 .byte   N24 ,Fn3
 .byte   W24
 .byte   Ds3
 .byte   W24
@ 053   ----------------------------------------
 .byte   Fn3
 .byte   W24
 .byte   Fs3
 .byte   W24
 .byte   Gs3
 .byte   W24
 .byte   As3
 .byte   W24
@ 054   ----------------------------------------
 .byte   N48 ,Cs4
 .byte   W48
 .byte   N96 ,Ds4
 .byte   W48
@ 055   ----------------------------------------
 .byte   W48
 .byte   N24 ,Cs4
 .byte   W24
 .byte   Ds4
 .byte   W24
@ 056   ----------------------------------------
 .byte   TIE ,Fn4
 .byte   W96
@ 057   ----------------------------------------
 .byte   W48
 .byte   EOT
 .byte   N48 ,Fs4
 .byte   W48
@ 058   ----------------------------------------
 .byte   TIE ,Ds4
 .byte   W96
@ 059   ----------------------------------------
 .byte   W48
 .byte   EOT
 .byte   N24 ,As3
 .byte   W24
 .byte   Ds4
 .byte   W24
@ 060   ----------------------------------------
 .byte   TIE ,Fn4
 .byte   W96
@ 061   ----------------------------------------
 .byte   W48
 .byte   EOT
 .byte   N24 ,Ds4
 .byte   W24
 .byte   Fn4
 .byte   W24
@ 062   ----------------------------------------
 .byte   N96 ,Fs4
 .byte   W96
@ 063   ----------------------------------------
 .byte   Gs4
 .byte   W96
@ 064   ----------------------------------------
 .byte   W96
@ 065   ----------------------------------------
 .byte   W96
@ 066   ----------------------------------------
 .byte   W96
@ 067   ----------------------------------------
 .byte   W96
@ 068   ----------------------------------------
 .byte   W96
@ 069   ----------------------------------------
 .byte   W96
@ 070   ----------------------------------------
 .byte   W96
@ 071   ----------------------------------------
 .byte   W96
@ 072   ----------------------------------------
 .byte   W96
@ 073   ----------------------------------------
 .byte   W96
@ 074   ----------------------------------------
 .byte   W96
@ 075   ----------------------------------------
 .byte   W96
@ 076   ----------------------------------------
 .byte   W96
@ 077   ----------------------------------------
 .byte   W96
@ 078   ----------------------------------------
 .byte   W96
@ 079   ----------------------------------------
 .byte   W96
@ 080   ----------------------------------------
 .byte   W96
@ 081   ----------------------------------------
 .byte   W96
@ 082   ----------------------------------------
 .byte   W96
@ 083   ----------------------------------------
 .byte   W96
@ 084   ----------------------------------------
 .byte   W96
@ 085   ----------------------------------------
 .byte   W96
@ 086   ----------------------------------------
 .byte   W96
@ 087   ----------------------------------------
 .byte   W96
@ 088   ----------------------------------------
 .byte   W96
@ 089   ----------------------------------------
 .byte   W96
@ 090   ----------------------------------------
 .byte   W96
@ 091   ----------------------------------------
 .byte   W96
@ 092   ----------------------------------------
 .byte   W96
@ 093   ----------------------------------------
 .byte   W96
@ 094   ----------------------------------------
 .byte   W96
@ 095   ----------------------------------------
 .byte   W92
 .byte   W03
 .byte   GOTO
  .word Label_13_017B400D
@ 096   ----------------------------------------
 .byte   W01
 .byte   FINE

@**************** Track 15 (Midi-Chn.14) ****************@

song0146_015:
@ 000   ----------------------------------------
 .byte   VOL , 50*song0146_mvl/mxv
 .byte   KEYSH , song0146_key+0
 .byte   VOICE , 46
 .byte   W96
@ 001   ----------------------------------------
 .byte   W96
@ 002   ----------------------------------------
 .byte   W92
Label_14_017B40B9:
 .byte   W04
@ 003   ----------------------------------------
 .byte   W96
@ 004   ----------------------------------------
 .byte   W96
@ 005   ----------------------------------------
 .byte   W96
@ 006   ----------------------------------------
 .byte   W96
@ 007   ----------------------------------------
 .byte   W96
@ 008   ----------------------------------------
 .byte   W96
@ 009   ----------------------------------------
 .byte   W96
@ 010   ----------------------------------------
 .byte   W96
@ 011   ----------------------------------------
 .byte   W96
@ 012   ----------------------------------------
 .byte   W96
@ 013   ----------------------------------------
 .byte   W96
@ 014   ----------------------------------------
 .byte   W96
@ 015   ----------------------------------------
 .byte   W96
@ 016   ----------------------------------------
 .byte   W96
@ 017   ----------------------------------------
 .byte   W96
@ 018   ----------------------------------------
 .byte   W96
@ 019   ----------------------------------------
 .byte   W96
@ 020   ----------------------------------------
 .byte   W96
@ 021   ----------------------------------------
 .byte   W96
@ 022   ----------------------------------------
 .byte   W96
@ 023   ----------------------------------------
 .byte   W96
@ 024   ----------------------------------------
 .byte   W96
@ 025   ----------------------------------------
 .byte   W96
@ 026   ----------------------------------------
 .byte   W96
@ 027   ----------------------------------------
 .byte   W96
@ 028   ----------------------------------------
 .byte   W96
@ 029   ----------------------------------------
 .byte   W96
@ 030   ----------------------------------------
 .byte   W96
@ 031   ----------------------------------------
 .byte   W96
@ 032   ----------------------------------------
 .byte   W96
@ 033   ----------------------------------------
 .byte   W96
@ 034   ----------------------------------------
 .byte   W96
@ 035   ----------------------------------------
 .byte   W96
@ 036   ----------------------------------------
 .byte   W96
@ 037   ----------------------------------------
 .byte   W96
@ 038   ----------------------------------------
 .byte   W96
@ 039   ----------------------------------------
 .byte   W96
@ 040   ----------------------------------------
 .byte   W96
@ 041   ----------------------------------------
 .byte   W96
@ 042   ----------------------------------------
 .byte   W96
@ 043   ----------------------------------------
 .byte   W96
@ 044   ----------------------------------------
 .byte   W96
@ 045   ----------------------------------------
 .byte   W96
@ 046   ----------------------------------------
 .byte   W96
@ 047   ----------------------------------------
 .byte   W96
@ 048   ----------------------------------------
 .byte   W96
@ 049   ----------------------------------------
 .byte   W96
@ 050   ----------------------------------------
 .byte   W96
@ 051   ----------------------------------------
 .byte   W96
@ 052   ----------------------------------------
 .byte   W96
@ 053   ----------------------------------------
 .byte   W96
@ 054   ----------------------------------------
 .byte   W96
@ 055   ----------------------------------------
 .byte   W96
@ 056   ----------------------------------------
 .byte   N12 ,As4 ,v096
 .byte   W12
 .byte   As3
 .byte   W24
 .byte   As4
 .byte   W12
 .byte   As3
 .byte   W24
 .byte   As4
 .byte   W12
 .byte   As3
 .byte   W12
@ 057   ----------------------------------------
 .byte   W12
 .byte   As4
 .byte   W12
 .byte   As3
 .byte   W24
 .byte   As4
 .byte   W12
 .byte   As3
 .byte   W24
 .byte   As4
 .byte   W12
@ 058   ----------------------------------------
 .byte   As3
 .byte   W24
 .byte   As4
 .byte   W12
 .byte   As3
 .byte   W24
 .byte   As4
 .byte   W12
 .byte   As3
 .byte   W24
@ 059   ----------------------------------------
 .byte   As4
 .byte   W12
 .byte   As3
 .byte   W24
 .byte   As4
 .byte   W12
 .byte   As3
 .byte   W24
 .byte   As4
 .byte   N12 ,Cs5
 .byte   W12
 .byte   As3
 .byte   N12 ,Fn4
 .byte   W12
@ 060   ----------------------------------------
Label_14_017B4122:
 .byte   W12
 .byte   N12 ,As4 ,v096
 .byte   N12 ,Cs5
 .byte   W12
 .byte   As3
 .byte   N12 ,Fn4
 .byte   W24
 .byte   As4
 .byte   N12 ,Cs5
 .byte   W12
 .byte   As3
 .byte   N12 ,Fn4
 .byte   W24
 .byte   As4
 .byte   N12 ,Cs5
 .byte   W12
 .byte   PEND 
@ 061   ----------------------------------------
 .byte   As3
 .byte   N12 ,Fn4
 .byte   W24
 .byte   As4
 .byte   N12 ,Cs5
 .byte   W12
 .byte   As3
 .byte   N12 ,Fn4
 .byte   W24
 .byte   As4
 .byte   N12 ,Cs5
 .byte   W12
 .byte   As3
 .byte   N12 ,Fn4
 .byte   W24
@ 062   ----------------------------------------
 .byte   As4
 .byte   N12 ,Cs5
 .byte   W12
 .byte   As3
 .byte   N12 ,Fn4
 .byte   W24
 .byte   As4
 .byte   N12 ,Cs5
 .byte   W12
 .byte   As3
 .byte   N12 ,Fn4
 .byte   W24
 .byte   As4
 .byte   N12 ,Cs5
 .byte   W12
 .byte   As3
 .byte   N12 ,Fn4
 .byte   W12
 .byte   PATT
  .word Label_14_017B4122
@ 063   ----------------------------------------
 .byte   W96
@ 064   ----------------------------------------
 .byte   W96
@ 065   ----------------------------------------
 .byte   W96
@ 066   ----------------------------------------
 .byte   W96
@ 067   ----------------------------------------
 .byte   W96
@ 068   ----------------------------------------
 .byte   W96
@ 069   ----------------------------------------
 .byte   W96
@ 070   ----------------------------------------
 .byte   W96
@ 071   ----------------------------------------
 .byte   W96
@ 072   ----------------------------------------
 .byte   W96
@ 073   ----------------------------------------
 .byte   W96
@ 074   ----------------------------------------
 .byte   W96
@ 075   ----------------------------------------
 .byte   W96
@ 076   ----------------------------------------
 .byte   W96
@ 077   ----------------------------------------
 .byte   W96
@ 078   ----------------------------------------
 .byte   W96
@ 079   ----------------------------------------
 .byte   W96
@ 080   ----------------------------------------
 .byte   W96
@ 081   ----------------------------------------
 .byte   W96
@ 082   ----------------------------------------
 .byte   W96
@ 083   ----------------------------------------
 .byte   W96
@ 084   ----------------------------------------
 .byte   W96
@ 085   ----------------------------------------
 .byte   W96
@ 086   ----------------------------------------
 .byte   W96
@ 087   ----------------------------------------
 .byte   W96
@ 088   ----------------------------------------
 .byte   W96
@ 089   ----------------------------------------
 .byte   W96
@ 090   ----------------------------------------
 .byte   W96
@ 091   ----------------------------------------
 .byte   W96
@ 092   ----------------------------------------
 .byte   W96
@ 093   ----------------------------------------
 .byte   W96
@ 094   ----------------------------------------
 .byte   W92
 .byte   W03
 .byte   GOTO
  .word Label_14_017B40B9
@ 095   ----------------------------------------
 .byte   W01
 .byte   FINE

@******************************************************@
	.align	2

song0146:
	.byte	15	@ NumTrks
	.byte	0	@ NumBlks
	.byte	song0146_pri	@ Priority
	.byte	song0146_rev	@ Reverb.
    
	.word	song0146_grp
    
	.word	song0146_001
	.word	song0146_002
	.word	song0146_003
	.word	song0146_004
	.word	song0146_005
	.word	song0146_006
	.word	song0146_007
	.word	song0146_008
	.word	song0146_009
	.word	song0146_010
	.word	song0146_011
	.word	song0146_012
	.word	song0146_013
	.word	song0146_014
	.word	song0146_015

	.end
