	.include "MPlayDef.s"

	.equ	song0B_grp, voicegroup000
	.equ	song0B_pri, 0
	.equ	song0B_rev, 0
	.equ	song0B_mvl, 127
	.equ	song0B_key, 0
	.equ	song0B_tbs, 1
	.equ	song0B_exg, 0
	.equ	song0B_cmp, 1

	.section .rodata
	.global	song0B
	.align	2


@**************** Track 1 (Midi-Chn.0) ****************@

song0B_001:
@ 000   ----------------------------------------
 .byte   KEYSH , song0B_key+0
Label_0_014D8556:
 .byte   TEMPO , 104*song0B_tbs/2
 .byte   VOICE , 91
 .byte   VOL , 62*song0B_mvl/mxv
 .byte   BEND , c_v-38
 .byte   N84 ,Gs1 ,v052
 .byte   W01
 .byte   BEND , c_v-35
 .byte   W01
 .byte   An0
 .byte   W01
 .byte   Cs1
 .byte   W01
 .byte   Fn1
 .byte   W02
 .byte   An1
 .byte   W01
 .byte   Cs2
 .byte   W01
 .byte   Fn2
 .byte   W01
 .byte   An2
 .byte   W01
 .byte   Cs3
 .byte   W01
 .byte   En3
 .byte   W84
 .byte   W01
@ 001   ----------------------------------------
Label_0_014D8578:
 .byte   BEND , c_v-38
 .byte   N84 ,Gs1 ,v052
 .byte   W01
 .byte   BEND , c_v-35
 .byte   W01
 .byte   An0
 .byte   W01
 .byte   Cs1
 .byte   W01
 .byte   Fn1
 .byte   W02
 .byte   An1
 .byte   W01
 .byte   Cs2
 .byte   W01
 .byte   Fn2
 .byte   W01
 .byte   An2
 .byte   W01
 .byte   Cs3
 .byte   W01
 .byte   En3
 .byte   W84
 .byte   W01
 .byte   PEND 
@ 002   ----------------------------------------
Label_0_014D8595:
 .byte   BEND , c_v-38
 .byte   TIE ,Gs1 ,v052
 .byte   W01
 .byte   BEND , c_v-35
 .byte   W01
 .byte   An0
 .byte   W01
 .byte   Cs1
 .byte   W01
 .byte   Fn1
 .byte   W02
 .byte   An1
 .byte   W01
 .byte   Cs2
 .byte   W01
 .byte   Fn2
 .byte   W01
 .byte   An2
 .byte   W01
 .byte   Cs3
 .byte   W01
 .byte   En3
 .byte   W84
 .byte   W01
 .byte   PEND 
@ 003   ----------------------------------------
 .byte   W96
@ 004   ----------------------------------------
 .byte   EOT
Label_0_014D85B4:
 .byte   N24 ,Ds2 ,v052
 .byte   W24
 .byte   En2
 .byte   W24
 .byte   Gs2
 .byte   W24
 .byte   Gn2
 .byte   W24
 .byte   PEND 
 .byte   PATT
  .word Label_0_014D85B4
 .byte   PATT
  .word Label_0_014D85B4
 .byte   PATT
  .word Label_0_014D85B4
@ 005   ----------------------------------------
 .byte   N84 ,Ds2 ,v052
 .byte   W96
@ 006   ----------------------------------------
 .byte   En2
 .byte   W96
@ 007   ----------------------------------------
 .byte   Cs2
 .byte   W96
@ 008   ----------------------------------------
 .byte   Ds2
 .byte   W96
@ 009   ----------------------------------------
Label_0_014D85D8:
 .byte   N24 ,Gs2 ,v052
 .byte   W48
 .byte   N24
 .byte   W48
 .byte   PEND 
@ 010   ----------------------------------------
 .byte   W48
 .byte   N24
 .byte   W48
@ 011   ----------------------------------------
 .byte   N24
 .byte   W96
@ 012   ----------------------------------------
 .byte   TIE
 .byte   W96
@ 013   ----------------------------------------
 .byte   W48
 .byte   EOT
 .byte   N96 ,As2
 .byte   W48
@ 014   ----------------------------------------
 .byte   W48
 .byte   N48 ,Cs3
 .byte   W48
@ 015   ----------------------------------------
 .byte   TIE ,Bn2
 .byte   W96
@ 016   ----------------------------------------
 .byte   W48
 .byte   EOT
 .byte   TIE ,Dn3
 .byte   W48
@ 017   ----------------------------------------
 .byte   W96
@ 018   ----------------------------------------
 .byte   EOT
 .byte   W96
@ 019   ----------------------------------------
 .byte   W96
@ 020   ----------------------------------------
 .byte   W84
 .byte   N12 ,Fn3
 .byte   W12
@ 021   ----------------------------------------
 .byte   TIE ,Gs3
 .byte   W96
@ 022   ----------------------------------------
 .byte   W48
 .byte   EOT
 .byte   TIE ,Bn3
 .byte   W48
@ 023   ----------------------------------------
 .byte   W96
@ 024   ----------------------------------------
 .byte   EOT
Label_0_014D8609:
 .byte   N24 ,Ds3 ,v052
 .byte   W24
 .byte   En3
 .byte   W24
 .byte   Gs3
 .byte   W24
 .byte   Gn3
 .byte   W24
 .byte   PEND 
 .byte   PATT
  .word Label_0_014D8609
 .byte   PATT
  .word Label_0_014D8609
@ 025   ----------------------------------------
Label_0_014D861E:
 .byte   N24 ,Ds3 ,v052
 .byte   W24
 .byte   En3
 .byte   W24
 .byte   Gn3
 .byte   W24
 .byte   Gs3
 .byte   W24
 .byte   PEND 
@ 026   ----------------------------------------
 .byte   VOL , 62*song0B_mvl/mxv
 .byte   BEND , c_v-38
 .byte   N84 ,Gs1
 .byte   W01
 .byte   BEND , c_v-35
 .byte   W01
 .byte   An0
 .byte   W01
 .byte   Cs1
 .byte   W01
 .byte   Fn1
 .byte   W02
 .byte   An1
 .byte   W01
 .byte   Cs2
 .byte   W01
 .byte   Fn2
 .byte   W01
 .byte   An2
 .byte   W01
 .byte   Cs3
 .byte   W01
 .byte   En3
 .byte   W84
 .byte   W01
 .byte   PATT
  .word Label_0_014D8578
 .byte   PATT
  .word Label_0_014D8595
@ 027   ----------------------------------------
 .byte   W96
@ 028   ----------------------------------------
 .byte   EOT
 .byte   Gs1
 .byte   PATT
  .word Label_0_014D85B4
 .byte   PATT
  .word Label_0_014D85B4
 .byte   PATT
  .word Label_0_014D85B4
 .byte   PATT
  .word Label_0_014D85B4
@ 029   ----------------------------------------
 .byte   N84 ,Ds2 ,v052
 .byte   W96
@ 030   ----------------------------------------
 .byte   En2
 .byte   W96
@ 031   ----------------------------------------
 .byte   Cs2
 .byte   W96
@ 032   ----------------------------------------
 .byte   Ds2
 .byte   W96
 .byte   PATT
  .word Label_0_014D85D8
@ 033   ----------------------------------------
 .byte   W48
 .byte   N24 ,Gs2 ,v052
 .byte   W48
@ 034   ----------------------------------------
 .byte   N24
 .byte   W96
@ 035   ----------------------------------------
 .byte   TIE
 .byte   W96
@ 036   ----------------------------------------
 .byte   W48
 .byte   EOT
 .byte   N96 ,As2
 .byte   W48
@ 037   ----------------------------------------
 .byte   W48
 .byte   N48 ,Cs3
 .byte   W48
@ 038   ----------------------------------------
 .byte   TIE ,Bn2
 .byte   W96
@ 039   ----------------------------------------
 .byte   W48
 .byte   EOT
 .byte   TIE ,Dn3
 .byte   W48
@ 040   ----------------------------------------
 .byte   W96
@ 041   ----------------------------------------
 .byte   EOT
 .byte   W96
@ 042   ----------------------------------------
 .byte   W96
@ 043   ----------------------------------------
 .byte   W84
 .byte   N12 ,Fn3
 .byte   W12
@ 044   ----------------------------------------
 .byte   TIE ,Gs3
 .byte   W96
@ 045   ----------------------------------------
 .byte   W48
 .byte   EOT
 .byte   TIE ,Bn3
 .byte   W48
@ 046   ----------------------------------------
 .byte   W96
@ 047   ----------------------------------------
 .byte   EOT
 .byte   PATT
  .word Label_0_014D8609
 .byte   PATT
  .word Label_0_014D8609
 .byte   PATT
  .word Label_0_014D8609
 .byte   PATT
  .word Label_0_014D861E
@ 048   ----------------------------------------
 .byte   GOTO
  .word Label_0_014D8556
 .byte   FINE

@**************** Track 2 (Midi-Chn.1) ****************@

song0B_002:
@ 000   ----------------------------------------
 .byte   KEYSH , song0B_key+0
Label_1_014D86BE:
 .byte   VOICE , 41
 .byte   VOL , 60*song0B_mvl/mxv
 .byte   W96
@ 001   ----------------------------------------
 .byte   W96
@ 002   ----------------------------------------
 .byte   W96
@ 003   ----------------------------------------
 .byte   W96
@ 004   ----------------------------------------
Label_1_014D86C6:
 .byte   N24 ,Ds3 ,v100
 .byte   W24
 .byte   En3
 .byte   W24
 .byte   Gs3
 .byte   W24
 .byte   Gn3
 .byte   W24
 .byte   PEND 
 .byte   PATT
  .word Label_1_014D86C6
 .byte   PATT
  .word Label_1_014D86C6
 .byte   PATT
  .word Label_1_014D86C6
@ 005   ----------------------------------------
 .byte   N84 ,Ds3 ,v100
 .byte   W96
@ 006   ----------------------------------------
 .byte   En3
 .byte   W96
@ 007   ----------------------------------------
 .byte   Cs3
 .byte   W96
@ 008   ----------------------------------------
 .byte   Ds3
 .byte   W96
@ 009   ----------------------------------------
 .byte   W96
@ 010   ----------------------------------------
 .byte   W96
@ 011   ----------------------------------------
 .byte   W96
@ 012   ----------------------------------------
 .byte   TIE ,Gs2
 .byte   W96
@ 013   ----------------------------------------
 .byte   W48
 .byte   EOT
 .byte   N96 ,As2
 .byte   W48
@ 014   ----------------------------------------
 .byte   W48
 .byte   N48 ,Cs3
 .byte   W48
@ 015   ----------------------------------------
 .byte   TIE ,Bn2
 .byte   W96
@ 016   ----------------------------------------
 .byte   W48
 .byte   EOT
 .byte   TIE ,Dn3
 .byte   W48
@ 017   ----------------------------------------
 .byte   W96
@ 018   ----------------------------------------
 .byte   EOT
 .byte   TIE ,Ds2
 .byte   W96
@ 019   ----------------------------------------
 .byte   W96
@ 020   ----------------------------------------
 .byte   W84
 .byte   EOT
 .byte   N12 ,Fn3
 .byte   W12
@ 021   ----------------------------------------
 .byte   TIE ,Gs3
 .byte   W96
@ 022   ----------------------------------------
 .byte   W48
 .byte   EOT
 .byte   TIE ,Bn3
 .byte   W48
@ 023   ----------------------------------------
 .byte   W96
@ 024   ----------------------------------------
 .byte   EOT
Label_1_014D8716:
 .byte   N24 ,Ds3 ,v076
 .byte   W24
 .byte   En3
 .byte   W24
 .byte   Gs3
 .byte   W24
 .byte   Gn3
 .byte   W24
 .byte   PEND 
@ 025   ----------------------------------------
Label_1_014D8721:
 .byte   N24 ,Ds3 ,v088
 .byte   W24
 .byte   En3
 .byte   W24
 .byte   Gs3
 .byte   W24
 .byte   Gn3
 .byte   W24
 .byte   PEND 
@ 026   ----------------------------------------
Label_1_014D872C:
 .byte   N24 ,Ds3 ,v096
 .byte   W24
 .byte   En3
 .byte   W24
 .byte   Gs3
 .byte   W24
 .byte   Gn3
 .byte   W24
 .byte   PEND 
@ 027   ----------------------------------------
Label_1_014D8737:
 .byte   N24 ,Ds3 ,v100
 .byte   W24
 .byte   En3
 .byte   W24
 .byte   Gn3
 .byte   W24
 .byte   Gs3
 .byte   W24
 .byte   PEND 
@ 028   ----------------------------------------
 .byte   VOL , 60*song0B_mvl/mxv
 .byte   W96
@ 029   ----------------------------------------
 .byte   W96
@ 030   ----------------------------------------
 .byte   W96
@ 031   ----------------------------------------
 .byte   W96
 .byte   PATT
  .word Label_1_014D86C6
 .byte   PATT
  .word Label_1_014D86C6
 .byte   PATT
  .word Label_1_014D86C6
 .byte   PATT
  .word Label_1_014D86C6
@ 032   ----------------------------------------
 .byte   N84 ,Ds3 ,v100
 .byte   W96
@ 033   ----------------------------------------
 .byte   En3
 .byte   W96
@ 034   ----------------------------------------
 .byte   Cs3
 .byte   W96
@ 035   ----------------------------------------
 .byte   Ds3
 .byte   W96
@ 036   ----------------------------------------
 .byte   W96
@ 037   ----------------------------------------
 .byte   W96
@ 038   ----------------------------------------
 .byte   W96
@ 039   ----------------------------------------
 .byte   TIE ,Gs2
 .byte   W96
@ 040   ----------------------------------------
 .byte   W48
 .byte   EOT
 .byte   N96 ,As2
 .byte   W48
@ 041   ----------------------------------------
 .byte   W48
 .byte   N48 ,Cs3
 .byte   W48
@ 042   ----------------------------------------
 .byte   TIE ,Bn2
 .byte   W96
@ 043   ----------------------------------------
 .byte   W48
 .byte   EOT
 .byte   TIE ,Dn3
 .byte   W48
@ 044   ----------------------------------------
 .byte   W96
@ 045   ----------------------------------------
 .byte   EOT
 .byte   TIE ,Ds2
 .byte   W96
@ 046   ----------------------------------------
 .byte   W96
@ 047   ----------------------------------------
 .byte   W84
 .byte   EOT
 .byte   N12 ,Fn3
 .byte   W12
@ 048   ----------------------------------------
 .byte   TIE ,Gs3
 .byte   W96
@ 049   ----------------------------------------
 .byte   W48
 .byte   EOT
 .byte   TIE ,Bn3
 .byte   W48
@ 050   ----------------------------------------
 .byte   W96
@ 051   ----------------------------------------
 .byte   EOT
 .byte   PATT
  .word Label_1_014D8716
 .byte   PATT
  .word Label_1_014D8721
 .byte   PATT
  .word Label_1_014D872C
 .byte   PATT
  .word Label_1_014D8737
@ 052   ----------------------------------------
 .byte   GOTO
  .word Label_1_014D86BE
 .byte   FINE

@**************** Track 3 (Midi-Chn.2) ****************@

song0B_003:
@ 000   ----------------------------------------
 .byte   KEYSH , song0B_key+0
Label_2_014D87AE:
 .byte   VOICE , 41
 .byte   VOL , 60*song0B_mvl/mxv
 .byte   BEND , c_v-38
 .byte   N84 ,Gs1 ,v100
 .byte   W01
 .byte   BEND , c_v-35
 .byte   W01
 .byte   An0
 .byte   W01
 .byte   Cs1
 .byte   W01
 .byte   Fn1
 .byte   W02
 .byte   An1
 .byte   W01
 .byte   Cs2
 .byte   W01
 .byte   Fn2
 .byte   W01
 .byte   An2
 .byte   W01
 .byte   Cs3
 .byte   W01
 .byte   En3
 .byte   W84
 .byte   W01
@ 001   ----------------------------------------
Label_2_014D87CE:
 .byte   BEND , c_v-38
 .byte   N84 ,Gs1 ,v100
 .byte   W01
 .byte   BEND , c_v-35
 .byte   W01
 .byte   An0
 .byte   W01
 .byte   Cs1
 .byte   W01
 .byte   Fn1
 .byte   W02
 .byte   An1
 .byte   W01
 .byte   Cs2
 .byte   W01
 .byte   Fn2
 .byte   W01
 .byte   An2
 .byte   W01
 .byte   Cs3
 .byte   W01
 .byte   En3
 .byte   W84
 .byte   W01
 .byte   PEND 
@ 002   ----------------------------------------
Label_2_014D87EB:
 .byte   BEND , c_v-38
 .byte   TIE ,Gs1 ,v100
 .byte   W01
 .byte   BEND , c_v-35
 .byte   W01
 .byte   An0
 .byte   W01
 .byte   Cs1
 .byte   W01
 .byte   Fn1
 .byte   W02
 .byte   An1
 .byte   W01
 .byte   Cs2
 .byte   W01
 .byte   Fn2
 .byte   W01
 .byte   An2
 .byte   W01
 .byte   Cs3
 .byte   W01
 .byte   En3
 .byte   W84
 .byte   W01
 .byte   PEND 
@ 003   ----------------------------------------
 .byte   W96
@ 004   ----------------------------------------
 .byte   W96
@ 005   ----------------------------------------
 .byte   W84
 .byte   EOT
 .byte   W12
@ 006   ----------------------------------------
 .byte   TIE ,Bn1
 .byte   W96
@ 007   ----------------------------------------
 .byte   W84
 .byte   EOT
 .byte   W12
@ 008   ----------------------------------------
 .byte   TIE ,As2
 .byte   W96
@ 009   ----------------------------------------
 .byte   W96
@ 010   ----------------------------------------
 .byte   W84
 .byte   EOT
 .byte   W12
@ 011   ----------------------------------------
 .byte   N84 ,Cs3
 .byte   W96
@ 012   ----------------------------------------
Label_2_014D881D:
 .byte   N36 ,Gs1 ,v100
 .byte   W48
 .byte   N36
 .byte   W48
 .byte   PEND 
@ 013   ----------------------------------------
 .byte   W48
 .byte   N36
 .byte   W48
@ 014   ----------------------------------------
 .byte   N36
 .byte   W96
@ 015   ----------------------------------------
 .byte   TIE
 .byte   W96
@ 016   ----------------------------------------
 .byte   W48
 .byte   EOT
 .byte   N96 ,As1
 .byte   W48
@ 017   ----------------------------------------
 .byte   W48
 .byte   N48 ,Cs2
 .byte   W48
@ 018   ----------------------------------------
 .byte   TIE ,Bn1
 .byte   W96
@ 019   ----------------------------------------
 .byte   W48
 .byte   EOT
 .byte   TIE ,Dn2
 .byte   W48
@ 020   ----------------------------------------
 .byte   W96
@ 021   ----------------------------------------
 .byte   EOT
 .byte   N84 ,Ds3
 .byte   W96
@ 022   ----------------------------------------
 .byte   W96
@ 023   ----------------------------------------
 .byte   W84
 .byte   N12 ,Fn2
 .byte   W12
@ 024   ----------------------------------------
 .byte   TIE ,Gs2
 .byte   W96
@ 025   ----------------------------------------
 .byte   W48
 .byte   EOT
 .byte   TIE ,Bn2
 .byte   W48
@ 026   ----------------------------------------
 .byte   W96
@ 027   ----------------------------------------
 .byte   EOT
 .byte   W96
@ 028   ----------------------------------------
 .byte   W96
@ 029   ----------------------------------------
 .byte   W96
@ 030   ----------------------------------------
 .byte   W96
@ 031   ----------------------------------------
 .byte   VOL , 60*song0B_mvl/mxv
 .byte   BEND , c_v-38
 .byte   N84 ,Gs1
 .byte   W01
 .byte   BEND , c_v-35
 .byte   W01
 .byte   An0
 .byte   W01
 .byte   Cs1
 .byte   W01
 .byte   Fn1
 .byte   W02
 .byte   An1
 .byte   W01
 .byte   Cs2
 .byte   W01
 .byte   Fn2
 .byte   W01
 .byte   An2
 .byte   W01
 .byte   Cs3
 .byte   W01
 .byte   En3
 .byte   W84
 .byte   W01
 .byte   PATT
  .word Label_2_014D87CE
 .byte   PATT
  .word Label_2_014D87EB
@ 032   ----------------------------------------
 .byte   W96
@ 033   ----------------------------------------
 .byte   W96
@ 034   ----------------------------------------
 .byte   W84
 .byte   EOT
 .byte   Gs1
 .byte   W12
@ 035   ----------------------------------------
 .byte   TIE ,Bn1 ,v100
 .byte   W96
@ 036   ----------------------------------------
 .byte   W84
 .byte   EOT
 .byte   W12
@ 037   ----------------------------------------
 .byte   TIE ,As2
 .byte   W96
@ 038   ----------------------------------------
 .byte   W96
@ 039   ----------------------------------------
 .byte   W84
 .byte   EOT
 .byte   W12
@ 040   ----------------------------------------
 .byte   N84 ,Cs3
 .byte   W96
 .byte   PATT
  .word Label_2_014D881D
@ 041   ----------------------------------------
 .byte   W48
 .byte   N36 ,Gs1 ,v100
 .byte   W48
@ 042   ----------------------------------------
 .byte   N36
 .byte   W96
@ 043   ----------------------------------------
 .byte   TIE
 .byte   W96
@ 044   ----------------------------------------
 .byte   W48
 .byte   EOT
 .byte   N96 ,As1
 .byte   W48
@ 045   ----------------------------------------
 .byte   W48
 .byte   N48 ,Cs2
 .byte   W48
@ 046   ----------------------------------------
 .byte   TIE ,Bn1
 .byte   W96
@ 047   ----------------------------------------
 .byte   W48
 .byte   EOT
 .byte   TIE ,Dn2
 .byte   W48
@ 048   ----------------------------------------
 .byte   W96
@ 049   ----------------------------------------
 .byte   EOT
 .byte   N84 ,Ds3
 .byte   W96
@ 050   ----------------------------------------
 .byte   W96
@ 051   ----------------------------------------
 .byte   W84
 .byte   N12 ,Fn2
 .byte   W12
@ 052   ----------------------------------------
 .byte   TIE ,Gs2
 .byte   W96
@ 053   ----------------------------------------
 .byte   W48
 .byte   EOT
 .byte   TIE ,Bn2
 .byte   W48
@ 054   ----------------------------------------
 .byte   W96
@ 055   ----------------------------------------
 .byte   EOT
 .byte   W96
@ 056   ----------------------------------------
 .byte   W96
@ 057   ----------------------------------------
 .byte   W96
@ 058   ----------------------------------------
 .byte   W96
@ 059   ----------------------------------------
 .byte   GOTO
  .word Label_2_014D87AE
 .byte   FINE

@**************** Track 4 (Midi-Chn.3) ****************@

song0B_004:
@ 000   ----------------------------------------
 .byte   KEYSH , song0B_key+0
Label_3_014D88D2:
 .byte   VOICE , 41
 .byte   VOL , 43*song0B_mvl/mxv
 .byte   W96
@ 001   ----------------------------------------
 .byte   W96
@ 002   ----------------------------------------
 .byte   W96
@ 003   ----------------------------------------
 .byte   W96
@ 004   ----------------------------------------
 .byte   W96
@ 005   ----------------------------------------
 .byte   W96
@ 006   ----------------------------------------
 .byte   W96
@ 007   ----------------------------------------
 .byte   W96
@ 008   ----------------------------------------
 .byte   TIE ,As3 ,v100
 .byte   W96
@ 009   ----------------------------------------
 .byte   W96
@ 010   ----------------------------------------
 .byte   W84
 .byte   EOT
 .byte   W12
@ 011   ----------------------------------------
 .byte   N84 ,Cs4
 .byte   W96
@ 012   ----------------------------------------
 .byte   W96
@ 013   ----------------------------------------
 .byte   W96
@ 014   ----------------------------------------
 .byte   W96
@ 015   ----------------------------------------
 .byte   TIE ,Gs4
 .byte   W96
@ 016   ----------------------------------------
 .byte   W48
 .byte   EOT
 .byte   N96 ,As4
 .byte   W48
@ 017   ----------------------------------------
 .byte   W48
 .byte   N48 ,Cs5
 .byte   W48
@ 018   ----------------------------------------
 .byte   TIE ,Bn4
 .byte   W96
@ 019   ----------------------------------------
 .byte   W48
 .byte   EOT
 .byte   TIE ,Dn5
 .byte   W48
@ 020   ----------------------------------------
 .byte   W96
@ 021   ----------------------------------------
 .byte   EOT
 .byte   W96
@ 022   ----------------------------------------
 .byte   W96
@ 023   ----------------------------------------
 .byte   W84
 .byte   N12 ,Fn5
 .byte   W12
@ 024   ----------------------------------------
 .byte   TIE ,Gs5
 .byte   W96
@ 025   ----------------------------------------
 .byte   W48
 .byte   EOT
 .byte   TIE ,Bn5
 .byte   W48
@ 026   ----------------------------------------
 .byte   W96
@ 027   ----------------------------------------
 .byte   EOT
 .byte   W96
@ 028   ----------------------------------------
 .byte   W96
@ 029   ----------------------------------------
 .byte   W96
@ 030   ----------------------------------------
 .byte   W96
@ 031   ----------------------------------------
 .byte   VOL , 43*song0B_mvl/mxv
 .byte   W96
@ 032   ----------------------------------------
 .byte   W96
@ 033   ----------------------------------------
 .byte   W96
@ 034   ----------------------------------------
 .byte   W96
@ 035   ----------------------------------------
 .byte   W96
@ 036   ----------------------------------------
 .byte   W96
@ 037   ----------------------------------------
 .byte   W96
@ 038   ----------------------------------------
 .byte   W96
@ 039   ----------------------------------------
 .byte   TIE ,As3
 .byte   W96
@ 040   ----------------------------------------
 .byte   W96
@ 041   ----------------------------------------
 .byte   W84
 .byte   EOT
 .byte   W12
@ 042   ----------------------------------------
 .byte   N84 ,Cs4
 .byte   W96
@ 043   ----------------------------------------
 .byte   W96
@ 044   ----------------------------------------
 .byte   W96
@ 045   ----------------------------------------
 .byte   W96
@ 046   ----------------------------------------
 .byte   TIE ,Gs4
 .byte   W96
@ 047   ----------------------------------------
 .byte   W48
 .byte   EOT
 .byte   N96 ,As4
 .byte   W48
@ 048   ----------------------------------------
 .byte   W48
 .byte   N48 ,Cs5
 .byte   W48
@ 049   ----------------------------------------
 .byte   TIE ,Bn4
 .byte   W96
@ 050   ----------------------------------------
 .byte   W48
 .byte   EOT
 .byte   TIE ,Dn5
 .byte   W48
@ 051   ----------------------------------------
 .byte   W96
@ 052   ----------------------------------------
 .byte   EOT
 .byte   W96
@ 053   ----------------------------------------
 .byte   W96
@ 054   ----------------------------------------
 .byte   W84
 .byte   N12 ,Fn5
 .byte   W12
@ 055   ----------------------------------------
 .byte   TIE ,Gs5
 .byte   W96
@ 056   ----------------------------------------
 .byte   W48
 .byte   EOT
 .byte   TIE ,Bn5
 .byte   W48
@ 057   ----------------------------------------
 .byte   W96
@ 058   ----------------------------------------
 .byte   EOT
 .byte   W96
@ 059   ----------------------------------------
 .byte   W96
@ 060   ----------------------------------------
 .byte   W96
@ 061   ----------------------------------------
 .byte   W96
@ 062   ----------------------------------------
 .byte   GOTO
  .word Label_3_014D88D2
 .byte   FINE

@**************** Track 5 (Midi-Chn.4) ****************@

song0B_005:
@ 000   ----------------------------------------
 .byte   KEYSH , song0B_key+0
Label_4_014D8962:
 .byte   VOICE , 41
 .byte   VOL , 60*song0B_mvl/mxv
 .byte   TIE ,Ds1 ,v100
 .byte   W96
@ 001   ----------------------------------------
 .byte   W96
@ 002   ----------------------------------------
 .byte   W96
@ 003   ----------------------------------------
 .byte   W96
@ 004   ----------------------------------------
 .byte   W96
@ 005   ----------------------------------------
 .byte   W96
@ 006   ----------------------------------------
 .byte   W96
@ 007   ----------------------------------------
 .byte   W96
@ 008   ----------------------------------------
 .byte   EOT
 .byte   TIE ,Gn2
 .byte   W96
@ 009   ----------------------------------------
 .byte   W96
@ 010   ----------------------------------------
 .byte   W96
@ 011   ----------------------------------------
 .byte   W96
@ 012   ----------------------------------------
 .byte   EOT
Label_4_014D8979:
 .byte   N36 ,Ds1 ,v100
 .byte   W48
 .byte   N36
 .byte   W48
 .byte   PEND 
@ 013   ----------------------------------------
 .byte   W48
 .byte   N36
 .byte   W48
@ 014   ----------------------------------------
 .byte   N36
 .byte   W96
 .byte   PATT
  .word Label_4_014D8979
@ 015   ----------------------------------------
 .byte   W48
 .byte   N36 ,Ds1 ,v100
 .byte   W48
@ 016   ----------------------------------------
 .byte   N36
 .byte   W96
 .byte   PATT
  .word Label_4_014D8979
@ 017   ----------------------------------------
 .byte   W48
 .byte   N36 ,Ds1 ,v100
 .byte   W48
@ 018   ----------------------------------------
 .byte   N36
 .byte   W96
 .byte   PATT
  .word Label_4_014D8979
@ 019   ----------------------------------------
 .byte   W48
 .byte   N36 ,Ds1 ,v100
 .byte   W48
@ 020   ----------------------------------------
 .byte   N36
 .byte   W96
 .byte   PATT
  .word Label_4_014D8979
@ 021   ----------------------------------------
 .byte   W48
 .byte   N36 ,Ds1 ,v100
 .byte   W48
@ 022   ----------------------------------------
 .byte   N36
 .byte   W96
@ 023   ----------------------------------------
 .byte   W96
@ 024   ----------------------------------------
 .byte   W96
@ 025   ----------------------------------------
 .byte   W96
@ 026   ----------------------------------------
 .byte   W96
@ 027   ----------------------------------------
 .byte   VOL , 60*song0B_mvl/mxv
 .byte   TIE
 .byte   W96
@ 028   ----------------------------------------
 .byte   W96
@ 029   ----------------------------------------
 .byte   W96
@ 030   ----------------------------------------
 .byte   W96
@ 031   ----------------------------------------
 .byte   W96
@ 032   ----------------------------------------
 .byte   W96
@ 033   ----------------------------------------
 .byte   W96
@ 034   ----------------------------------------
 .byte   W96
@ 035   ----------------------------------------
 .byte   EOT
 .byte   TIE ,Gn2
 .byte   W96
@ 036   ----------------------------------------
 .byte   W96
@ 037   ----------------------------------------
 .byte   W96
@ 038   ----------------------------------------
 .byte   W96
@ 039   ----------------------------------------
 .byte   EOT
 .byte   PATT
  .word Label_4_014D8979
@ 040   ----------------------------------------
 .byte   W48
 .byte   N36 ,Ds1 ,v100
 .byte   W48
@ 041   ----------------------------------------
 .byte   N36
 .byte   W96
 .byte   PATT
  .word Label_4_014D8979
@ 042   ----------------------------------------
 .byte   W48
 .byte   N36 ,Ds1 ,v100
 .byte   W48
@ 043   ----------------------------------------
 .byte   N36
 .byte   W96
 .byte   PATT
  .word Label_4_014D8979
@ 044   ----------------------------------------
 .byte   W48
 .byte   N36 ,Ds1 ,v100
 .byte   W48
@ 045   ----------------------------------------
 .byte   N36
 .byte   W96
 .byte   PATT
  .word Label_4_014D8979
@ 046   ----------------------------------------
 .byte   W48
 .byte   N36 ,Ds1 ,v100
 .byte   W48
@ 047   ----------------------------------------
 .byte   N36
 .byte   W96
 .byte   PATT
  .word Label_4_014D8979
@ 048   ----------------------------------------
 .byte   W48
 .byte   N36 ,Ds1 ,v100
 .byte   W48
@ 049   ----------------------------------------
 .byte   N36
 .byte   W96
@ 050   ----------------------------------------
 .byte   W96
@ 051   ----------------------------------------
 .byte   W96
@ 052   ----------------------------------------
 .byte   W96
@ 053   ----------------------------------------
 .byte   W96
@ 054   ----------------------------------------
 .byte   GOTO
  .word Label_4_014D8962
 .byte   FINE

@**************** Track 6 (Midi-Chn.5) ****************@

song0B_006:
@ 000   ----------------------------------------
 .byte   KEYSH , song0B_key+0
Label_5_014D8A16:
 .byte   VOICE , 41
 .byte   VOL , 43*song0B_mvl/mxv
 .byte   W96
@ 001   ----------------------------------------
 .byte   W96
@ 002   ----------------------------------------
 .byte   W96
@ 003   ----------------------------------------
 .byte   W96
@ 004   ----------------------------------------
 .byte   W96
@ 005   ----------------------------------------
 .byte   W96
@ 006   ----------------------------------------
 .byte   W96
@ 007   ----------------------------------------
 .byte   W96
@ 008   ----------------------------------------
 .byte   TIE ,Gn3 ,v100
 .byte   W96
@ 009   ----------------------------------------
 .byte   W96
@ 010   ----------------------------------------
 .byte   W96
@ 011   ----------------------------------------
 .byte   W96
@ 012   ----------------------------------------
 .byte   EOT
 .byte   TIE ,Gs5
 .byte   W96
@ 013   ----------------------------------------
 .byte   W96
@ 014   ----------------------------------------
 .byte   W96
@ 015   ----------------------------------------
 .byte   W96
@ 016   ----------------------------------------
 .byte   W96
@ 017   ----------------------------------------
 .byte   W96
@ 018   ----------------------------------------
 .byte   W96
@ 019   ----------------------------------------
 .byte   W96
@ 020   ----------------------------------------
 .byte   W96
@ 021   ----------------------------------------
 .byte   W96
@ 022   ----------------------------------------
 .byte   W96
@ 023   ----------------------------------------
 .byte   W96
@ 024   ----------------------------------------
 .byte   W96
@ 025   ----------------------------------------
 .byte   W96
@ 026   ----------------------------------------
 .byte   W96
@ 027   ----------------------------------------
 .byte   EOT
 .byte   W96
@ 028   ----------------------------------------
 .byte   W96
@ 029   ----------------------------------------
 .byte   W96
@ 030   ----------------------------------------
 .byte   W96
@ 031   ----------------------------------------
 .byte   VOL , 43*song0B_mvl/mxv
 .byte   W96
@ 032   ----------------------------------------
 .byte   W96
@ 033   ----------------------------------------
 .byte   W96
@ 034   ----------------------------------------
 .byte   W96
@ 035   ----------------------------------------
 .byte   W96
@ 036   ----------------------------------------
 .byte   W96
@ 037   ----------------------------------------
 .byte   W96
@ 038   ----------------------------------------
 .byte   W96
@ 039   ----------------------------------------
 .byte   TIE ,Gn3
 .byte   W96
@ 040   ----------------------------------------
 .byte   W96
@ 041   ----------------------------------------
 .byte   W96
@ 042   ----------------------------------------
 .byte   W96
@ 043   ----------------------------------------
 .byte   EOT
 .byte   TIE ,Gs5
 .byte   W96
@ 044   ----------------------------------------
 .byte   W96
@ 045   ----------------------------------------
 .byte   W96
@ 046   ----------------------------------------
 .byte   W96
@ 047   ----------------------------------------
 .byte   W96
@ 048   ----------------------------------------
 .byte   W96
@ 049   ----------------------------------------
 .byte   W96
@ 050   ----------------------------------------
 .byte   W96
@ 051   ----------------------------------------
 .byte   W96
@ 052   ----------------------------------------
 .byte   W96
@ 053   ----------------------------------------
 .byte   W96
@ 054   ----------------------------------------
 .byte   W96
@ 055   ----------------------------------------
 .byte   W96
@ 056   ----------------------------------------
 .byte   W96
@ 057   ----------------------------------------
 .byte   W96
@ 058   ----------------------------------------
 .byte   EOT
 .byte   W96
@ 059   ----------------------------------------
 .byte   W96
@ 060   ----------------------------------------
 .byte   W96
@ 061   ----------------------------------------
 .byte   W96
@ 062   ----------------------------------------
 .byte   GOTO
  .word Label_5_014D8A16
 .byte   FINE

@**************** Track 7 (Midi-Chn.6) ****************@

song0B_007:
@ 000   ----------------------------------------
 .byte   KEYSH , song0B_key+0
Label_6_014D8A72:
 .byte   VOICE , 91
 .byte   VOL , 62*song0B_mvl/mxv
 .byte   BEND , c_v-38
 .byte   N84 ,Gs2 ,v100
 .byte   W01
 .byte   BEND , c_v-35
 .byte   W01
 .byte   An0
 .byte   W01
 .byte   Cs1
 .byte   W01
 .byte   Fn1
 .byte   W02
 .byte   An1
 .byte   W01
 .byte   Cs2
 .byte   W01
 .byte   Fn2
 .byte   W01
 .byte   An2
 .byte   W01
 .byte   Cs3
 .byte   W01
 .byte   En3
 .byte   W84
 .byte   W01
@ 001   ----------------------------------------
Label_6_014D8A92:
 .byte   BEND , c_v-38
 .byte   N84 ,Gs2 ,v100
 .byte   W01
 .byte   BEND , c_v-35
 .byte   W01
 .byte   An0
 .byte   W01
 .byte   Cs1
 .byte   W01
 .byte   Fn1
 .byte   W02
 .byte   An1
 .byte   W01
 .byte   Cs2
 .byte   W01
 .byte   Fn2
 .byte   W01
 .byte   An2
 .byte   W01
 .byte   Cs3
 .byte   W01
 .byte   En3
 .byte   W84
 .byte   W01
 .byte   PEND 
@ 002   ----------------------------------------
Label_6_014D8AAF:
 .byte   BEND , c_v-38
 .byte   TIE ,Gs2 ,v100
 .byte   W01
 .byte   BEND , c_v-35
 .byte   W01
 .byte   An0
 .byte   W01
 .byte   Cs1
 .byte   W01
 .byte   Fn1
 .byte   W02
 .byte   An1
 .byte   W01
 .byte   Cs2
 .byte   W01
 .byte   Fn2
 .byte   W01
 .byte   An2
 .byte   W01
 .byte   Cs3
 .byte   W01
 .byte   En3
 .byte   W84
 .byte   W01
 .byte   PEND 
@ 003   ----------------------------------------
 .byte   W96
@ 004   ----------------------------------------
 .byte   EOT
Label_6_014D8ACE:
 .byte   N24 ,Ds3 ,v100
 .byte   W24
 .byte   En3
 .byte   W24
 .byte   Gs3
 .byte   W24
 .byte   Gn3
 .byte   W24
 .byte   PEND 
 .byte   PATT
  .word Label_6_014D8ACE
 .byte   PATT
  .word Label_6_014D8ACE
 .byte   PATT
  .word Label_6_014D8ACE
@ 005   ----------------------------------------
 .byte   N84 ,Ds3 ,v100
 .byte   W96
@ 006   ----------------------------------------
 .byte   En3
 .byte   W96
@ 007   ----------------------------------------
 .byte   Cs3
 .byte   W96
@ 008   ----------------------------------------
 .byte   Ds3
 .byte   W96
@ 009   ----------------------------------------
 .byte   W96
@ 010   ----------------------------------------
 .byte   W96
@ 011   ----------------------------------------
 .byte   W96
@ 012   ----------------------------------------
 .byte   W96
@ 013   ----------------------------------------
 .byte   W96
@ 014   ----------------------------------------
 .byte   W96
@ 015   ----------------------------------------
 .byte   W96
@ 016   ----------------------------------------
 .byte   W96
@ 017   ----------------------------------------
 .byte   W96
@ 018   ----------------------------------------
 .byte   W96
@ 019   ----------------------------------------
 .byte   W96
@ 020   ----------------------------------------
 .byte   W96
@ 021   ----------------------------------------
 .byte   W96
@ 022   ----------------------------------------
 .byte   W96
@ 023   ----------------------------------------
 .byte   W96
@ 024   ----------------------------------------
Label_6_014D8B01:
 .byte   N24 ,Cn3 ,v076
 .byte   W24
 .byte   Cs3
 .byte   W24
 .byte   En3
 .byte   W24
 .byte   Ds3
 .byte   W24
 .byte   PEND 
@ 025   ----------------------------------------
Label_6_014D8B0C:
 .byte   N24 ,Cn3 ,v088
 .byte   W24
 .byte   Cs3
 .byte   W24
 .byte   En3
 .byte   W24
 .byte   Ds3
 .byte   W24
 .byte   PEND 
@ 026   ----------------------------------------
Label_6_014D8B17:
 .byte   N24 ,Cn3 ,v096
 .byte   W24
 .byte   Cs3
 .byte   W24
 .byte   En3
 .byte   W24
 .byte   Ds3
 .byte   W24
 .byte   PEND 
@ 027   ----------------------------------------
Label_6_014D8B22:
 .byte   N24 ,Cn3 ,v100
 .byte   W24
 .byte   Cs3
 .byte   W24
 .byte   Ds3
 .byte   W24
 .byte   En3
 .byte   W24
 .byte   PEND 
@ 028   ----------------------------------------
 .byte   VOL , 62*song0B_mvl/mxv
 .byte   BEND , c_v-38
 .byte   N84 ,Gs2
 .byte   W01
 .byte   BEND , c_v-35
 .byte   W01
 .byte   An0
 .byte   W01
 .byte   Cs1
 .byte   W01
 .byte   Fn1
 .byte   W02
 .byte   An1
 .byte   W01
 .byte   Cs2
 .byte   W01
 .byte   Fn2
 .byte   W01
 .byte   An2
 .byte   W01
 .byte   Cs3
 .byte   W01
 .byte   En3
 .byte   W84
 .byte   W01
 .byte   PATT
  .word Label_6_014D8A92
 .byte   PATT
  .word Label_6_014D8AAF
@ 029   ----------------------------------------
 .byte   W96
@ 030   ----------------------------------------
 .byte   EOT
 .byte   Gs2
 .byte   PATT
  .word Label_6_014D8ACE
 .byte   PATT
  .word Label_6_014D8ACE
 .byte   PATT
  .word Label_6_014D8ACE
 .byte   PATT
  .word Label_6_014D8ACE
@ 031   ----------------------------------------
 .byte   N84 ,Ds3 ,v100
 .byte   W96
@ 032   ----------------------------------------
 .byte   En3
 .byte   W96
@ 033   ----------------------------------------
 .byte   Cs3
 .byte   W96
@ 034   ----------------------------------------
 .byte   Ds3
 .byte   W96
@ 035   ----------------------------------------
 .byte   W96
@ 036   ----------------------------------------
 .byte   W96
@ 037   ----------------------------------------
 .byte   W96
@ 038   ----------------------------------------
 .byte   W96
@ 039   ----------------------------------------
 .byte   W96
@ 040   ----------------------------------------
 .byte   W96
@ 041   ----------------------------------------
 .byte   W96
@ 042   ----------------------------------------
 .byte   W96
@ 043   ----------------------------------------
 .byte   W96
@ 044   ----------------------------------------
 .byte   W96
@ 045   ----------------------------------------
 .byte   W96
@ 046   ----------------------------------------
 .byte   W96
@ 047   ----------------------------------------
 .byte   W96
@ 048   ----------------------------------------
 .byte   W96
@ 049   ----------------------------------------
 .byte   W96
 .byte   PATT
  .word Label_6_014D8B01
 .byte   PATT
  .word Label_6_014D8B0C
 .byte   PATT
  .word Label_6_014D8B17
 .byte   PATT
  .word Label_6_014D8B22
@ 050   ----------------------------------------
 .byte   GOTO
  .word Label_6_014D8A72
 .byte   FINE

@**************** Track 8 (Midi-Chn.7) ****************@

song0B_008:
@ 000   ----------------------------------------
 .byte   KEYSH , song0B_key+0
Label_7_014D8BA2:
 .byte   VOICE , 58
 .byte   VOL , 62*song0B_mvl/mxv
 .byte   TIE ,Gs0 ,v100
 .byte   W96
@ 001   ----------------------------------------
 .byte   W96
@ 002   ----------------------------------------
 .byte   W96
@ 003   ----------------------------------------
 .byte   W96
@ 004   ----------------------------------------
 .byte   W96
@ 005   ----------------------------------------
 .byte   W96
@ 006   ----------------------------------------
 .byte   EOT
 .byte   TIE ,Bn0
 .byte   W96
@ 007   ----------------------------------------
 .byte   W96
@ 008   ----------------------------------------
 .byte   EOT
 .byte   W96
@ 009   ----------------------------------------
 .byte   W96
@ 010   ----------------------------------------
 .byte   W96
@ 011   ----------------------------------------
 .byte   W96
@ 012   ----------------------------------------
Label_7_014D8BB9:
 .byte   N36 ,Gs0 ,v100
 .byte   W48
 .byte   N36
 .byte   W48
 .byte   PEND 
@ 013   ----------------------------------------
 .byte   W48
 .byte   N36
 .byte   W48
@ 014   ----------------------------------------
 .byte   N36
 .byte   W96
 .byte   PATT
  .word Label_7_014D8BB9
@ 015   ----------------------------------------
 .byte   W48
 .byte   N36 ,Gs0 ,v100
 .byte   W48
@ 016   ----------------------------------------
 .byte   N36
 .byte   W96
 .byte   PATT
  .word Label_7_014D8BB9
@ 017   ----------------------------------------
 .byte   W48
 .byte   N36 ,Gs0 ,v100
 .byte   W48
@ 018   ----------------------------------------
 .byte   N36
 .byte   W96
 .byte   PATT
  .word Label_7_014D8BB9
@ 019   ----------------------------------------
 .byte   W48
 .byte   N36 ,Gs0 ,v100
 .byte   W48
@ 020   ----------------------------------------
 .byte   N36
 .byte   W96
 .byte   PATT
  .word Label_7_014D8BB9
@ 021   ----------------------------------------
 .byte   W48
 .byte   N36 ,Gs0 ,v100
 .byte   W48
@ 022   ----------------------------------------
 .byte   N36
 .byte   W96
@ 023   ----------------------------------------
 .byte   W96
@ 024   ----------------------------------------
 .byte   W96
@ 025   ----------------------------------------
 .byte   W96
@ 026   ----------------------------------------
 .byte   W96
@ 027   ----------------------------------------
 .byte   VOL , 62*song0B_mvl/mxv
 .byte   TIE
 .byte   W96
@ 028   ----------------------------------------
 .byte   W96
@ 029   ----------------------------------------
 .byte   W96
@ 030   ----------------------------------------
 .byte   W96
@ 031   ----------------------------------------
 .byte   W96
@ 032   ----------------------------------------
 .byte   W96
@ 033   ----------------------------------------
 .byte   EOT
 .byte   TIE ,Bn0
 .byte   W96
@ 034   ----------------------------------------
 .byte   W96
@ 035   ----------------------------------------
 .byte   EOT
 .byte   W96
@ 036   ----------------------------------------
 .byte   W96
@ 037   ----------------------------------------
 .byte   W96
@ 038   ----------------------------------------
 .byte   W96
 .byte   PATT
  .word Label_7_014D8BB9
@ 039   ----------------------------------------
 .byte   W48
 .byte   N36 ,Gs0 ,v100
 .byte   W48
@ 040   ----------------------------------------
 .byte   N36
 .byte   W96
 .byte   PATT
  .word Label_7_014D8BB9
@ 041   ----------------------------------------
 .byte   W48
 .byte   N36 ,Gs0 ,v100
 .byte   W48
@ 042   ----------------------------------------
 .byte   N36
 .byte   W96
 .byte   PATT
  .word Label_7_014D8BB9
@ 043   ----------------------------------------
 .byte   W48
 .byte   N36 ,Gs0 ,v100
 .byte   W48
@ 044   ----------------------------------------
 .byte   N36
 .byte   W96
 .byte   PATT
  .word Label_7_014D8BB9
@ 045   ----------------------------------------
 .byte   W48
 .byte   N36 ,Gs0 ,v100
 .byte   W48
@ 046   ----------------------------------------
 .byte   N36
 .byte   W96
 .byte   PATT
  .word Label_7_014D8BB9
@ 047   ----------------------------------------
 .byte   W48
 .byte   N36 ,Gs0 ,v100
 .byte   W48
@ 048   ----------------------------------------
 .byte   N36
 .byte   W96
@ 049   ----------------------------------------
 .byte   W96
@ 050   ----------------------------------------
 .byte   W96
@ 051   ----------------------------------------
 .byte   W96
@ 052   ----------------------------------------
 .byte   W96
@ 053   ----------------------------------------
 .byte   GOTO
  .word Label_7_014D8BA2
 .byte   FINE

@**************** Track 9 (Midi-Chn.8) ****************@

song0B_009:
@ 000   ----------------------------------------
 .byte   KEYSH , song0B_key+0
Label_8_014D8C56:
 .byte   VOICE , 41
 .byte   VOL , 60*song0B_mvl/mxv
 .byte   W96
@ 001   ----------------------------------------
 .byte   W96
@ 002   ----------------------------------------
 .byte   W96
@ 003   ----------------------------------------
 .byte   W96
@ 004   ----------------------------------------
 .byte   W96
@ 005   ----------------------------------------
 .byte   W96
@ 006   ----------------------------------------
 .byte   W96
@ 007   ----------------------------------------
 .byte   W96
@ 008   ----------------------------------------
 .byte   TIE ,Ds2 ,v100
 .byte   W96
@ 009   ----------------------------------------
 .byte   W96
@ 010   ----------------------------------------
 .byte   W96
@ 011   ----------------------------------------
 .byte   W96
@ 012   ----------------------------------------
 .byte   EOT
 .byte   TIE ,Gs4
 .byte   W96
@ 013   ----------------------------------------
 .byte   W96
@ 014   ----------------------------------------
 .byte   W96
@ 015   ----------------------------------------
 .byte   W96
@ 016   ----------------------------------------
 .byte   W96
@ 017   ----------------------------------------
 .byte   W96
@ 018   ----------------------------------------
 .byte   W96
@ 019   ----------------------------------------
 .byte   W96
@ 020   ----------------------------------------
 .byte   W96
@ 021   ----------------------------------------
 .byte   W96
@ 022   ----------------------------------------
 .byte   W96
@ 023   ----------------------------------------
 .byte   W96
@ 024   ----------------------------------------
 .byte   W96
@ 025   ----------------------------------------
 .byte   W96
@ 026   ----------------------------------------
 .byte   W96
@ 027   ----------------------------------------
 .byte   EOT
Label_8_014D8C7C:
 .byte   N24 ,Ds2 ,v076
 .byte   W24
 .byte   En2
 .byte   W24
 .byte   Gs2
 .byte   W24
 .byte   Gn2
 .byte   W24
 .byte   PEND 
@ 028   ----------------------------------------
Label_8_014D8C87:
 .byte   N24 ,Ds2 ,v088
 .byte   W24
 .byte   En2
 .byte   W24
 .byte   Gs2
 .byte   W24
 .byte   Gn2
 .byte   W24
 .byte   PEND 
@ 029   ----------------------------------------
Label_8_014D8C92:
 .byte   N24 ,Ds2 ,v096
 .byte   W24
 .byte   En2
 .byte   W24
 .byte   Gs2
 .byte   W24
 .byte   Gn2
 .byte   W24
 .byte   PEND 
@ 030   ----------------------------------------
Label_8_014D8C9D:
 .byte   N24 ,Ds2 ,v100
 .byte   W24
 .byte   En2
 .byte   W24
 .byte   Gn2
 .byte   W24
 .byte   Gs2
 .byte   W24
 .byte   PEND 
@ 031   ----------------------------------------
 .byte   VOL , 60*song0B_mvl/mxv
 .byte   W96
@ 032   ----------------------------------------
 .byte   W96
@ 033   ----------------------------------------
 .byte   W96
@ 034   ----------------------------------------
 .byte   W96
@ 035   ----------------------------------------
 .byte   W96
@ 036   ----------------------------------------
 .byte   W96
@ 037   ----------------------------------------
 .byte   W96
@ 038   ----------------------------------------
 .byte   W96
@ 039   ----------------------------------------
 .byte   TIE ,Ds2
 .byte   W96
@ 040   ----------------------------------------
 .byte   W96
@ 041   ----------------------------------------
 .byte   W96
@ 042   ----------------------------------------
 .byte   W96
@ 043   ----------------------------------------
 .byte   EOT
 .byte   TIE ,Gs4
 .byte   W96
@ 044   ----------------------------------------
 .byte   W96
@ 045   ----------------------------------------
 .byte   W96
@ 046   ----------------------------------------
 .byte   W96
@ 047   ----------------------------------------
 .byte   W96
@ 048   ----------------------------------------
 .byte   W96
@ 049   ----------------------------------------
 .byte   W96
@ 050   ----------------------------------------
 .byte   W96
@ 051   ----------------------------------------
 .byte   W96
@ 052   ----------------------------------------
 .byte   W96
@ 053   ----------------------------------------
 .byte   W96
@ 054   ----------------------------------------
 .byte   W96
@ 055   ----------------------------------------
 .byte   W96
@ 056   ----------------------------------------
 .byte   W96
@ 057   ----------------------------------------
 .byte   W96
@ 058   ----------------------------------------
 .byte   EOT
 .byte   PATT
  .word Label_8_014D8C7C
 .byte   PATT
  .word Label_8_014D8C87
 .byte   PATT
  .word Label_8_014D8C92
 .byte   PATT
  .word Label_8_014D8C9D
@ 059   ----------------------------------------
 .byte   GOTO
  .word Label_8_014D8C56
 .byte   FINE

@**************** Track 10 (Midi-Chn.9) ****************@

song0B_010:
@ 000   ----------------------------------------
 .byte   KEYSH , song0B_key+0
Label_9_014D8CEA:
 .byte   VOICE , 41
 .byte   VOL , 60*song0B_mvl/mxv
 .byte   W96
@ 001   ----------------------------------------
 .byte   W96
@ 002   ----------------------------------------
 .byte   W96
@ 003   ----------------------------------------
 .byte   W96
@ 004   ----------------------------------------
Label_9_014D8CF2:
 .byte   N24 ,Ds4 ,v100
 .byte   W24
 .byte   En4
 .byte   W24
 .byte   Gs4
 .byte   W24
 .byte   Gn4
 .byte   W24
 .byte   PEND 
 .byte   PATT
  .word Label_9_014D8CF2
 .byte   PATT
  .word Label_9_014D8CF2
 .byte   PATT
  .word Label_9_014D8CF2
@ 005   ----------------------------------------
 .byte   N84 ,Ds4 ,v100
 .byte   W96
@ 006   ----------------------------------------
 .byte   En4
 .byte   W96
@ 007   ----------------------------------------
 .byte   Cs4
 .byte   W96
@ 008   ----------------------------------------
 .byte   TIE ,Ds4
 .byte   W96
@ 009   ----------------------------------------
 .byte   W48
 .byte   EOT
 .byte   W48
@ 010   ----------------------------------------
 .byte   W96
@ 011   ----------------------------------------
 .byte   W96
@ 012   ----------------------------------------
 .byte   TIE ,Gs3
 .byte   W96
@ 013   ----------------------------------------
 .byte   W48
 .byte   EOT
 .byte   N96 ,As3
 .byte   W48
@ 014   ----------------------------------------
 .byte   W48
 .byte   N48 ,Cs4
 .byte   W48
@ 015   ----------------------------------------
 .byte   TIE ,Bn3
 .byte   W96
@ 016   ----------------------------------------
 .byte   W48
 .byte   EOT
 .byte   TIE ,Dn4
 .byte   W48
@ 017   ----------------------------------------
 .byte   W96
@ 018   ----------------------------------------
 .byte   EOT
 .byte   W96
@ 019   ----------------------------------------
 .byte   W96
@ 020   ----------------------------------------
 .byte   W84
 .byte   N12 ,Fn4
 .byte   W12
@ 021   ----------------------------------------
 .byte   TIE ,Gs4
 .byte   W96
@ 022   ----------------------------------------
 .byte   W48
 .byte   EOT
 .byte   TIE ,Bn4
 .byte   W48
@ 023   ----------------------------------------
 .byte   W96
@ 024   ----------------------------------------
 .byte   EOT
 .byte   W96
@ 025   ----------------------------------------
 .byte   W96
@ 026   ----------------------------------------
 .byte   W96
@ 027   ----------------------------------------
 .byte   W96
@ 028   ----------------------------------------
 .byte   VOL , 60*song0B_mvl/mxv
 .byte   W96
@ 029   ----------------------------------------
 .byte   W96
@ 030   ----------------------------------------
 .byte   W96
@ 031   ----------------------------------------
 .byte   W96
 .byte   PATT
  .word Label_9_014D8CF2
 .byte   PATT
  .word Label_9_014D8CF2
 .byte   PATT
  .word Label_9_014D8CF2
 .byte   PATT
  .word Label_9_014D8CF2
@ 032   ----------------------------------------
 .byte   N84 ,Ds4 ,v100
 .byte   W96
@ 033   ----------------------------------------
 .byte   En4
 .byte   W96
@ 034   ----------------------------------------
 .byte   Cs4
 .byte   W96
@ 035   ----------------------------------------
 .byte   TIE ,Ds4
 .byte   W96
@ 036   ----------------------------------------
 .byte   W48
 .byte   EOT
 .byte   W48
@ 037   ----------------------------------------
 .byte   W96
@ 038   ----------------------------------------
 .byte   W96
@ 039   ----------------------------------------
 .byte   TIE ,Gs3
 .byte   W96
@ 040   ----------------------------------------
 .byte   W48
 .byte   EOT
 .byte   N96 ,As3
 .byte   W48
@ 041   ----------------------------------------
 .byte   W48
 .byte   N48 ,Cs4
 .byte   W48
@ 042   ----------------------------------------
 .byte   TIE ,Bn3
 .byte   W96
@ 043   ----------------------------------------
 .byte   W48
 .byte   EOT
 .byte   TIE ,Dn4
 .byte   W48
@ 044   ----------------------------------------
 .byte   W96
@ 045   ----------------------------------------
 .byte   EOT
 .byte   W96
@ 046   ----------------------------------------
 .byte   W96
@ 047   ----------------------------------------
 .byte   W84
 .byte   N12 ,Fn4
 .byte   W12
@ 048   ----------------------------------------
 .byte   TIE ,Gs4
 .byte   W96
@ 049   ----------------------------------------
 .byte   W48
 .byte   EOT
 .byte   TIE ,Bn4
 .byte   W48
@ 050   ----------------------------------------
 .byte   W96
@ 051   ----------------------------------------
 .byte   EOT
 .byte   W96
@ 052   ----------------------------------------
 .byte   W96
@ 053   ----------------------------------------
 .byte   W96
@ 054   ----------------------------------------
 .byte   W96
@ 055   ----------------------------------------
 .byte   GOTO
  .word Label_9_014D8CEA
 .byte   FINE

@******************************************************@
	.align	2

song0B:
	.byte	10	@ NumTrks
	.byte	0	@ NumBlks
	.byte	song0B_pri	@ Priority
	.byte	song0B_rev	@ Reverb.
    
	.word	song0B_grp
    
	.word	song0B_001
	.word	song0B_002
	.word	song0B_003
	.word	song0B_004
	.word	song0B_005
	.word	song0B_006
	.word	song0B_007
	.word	song0B_008
	.word	song0B_009
	.word	song0B_010

	.end
