	.include "MPlayDef.s"

	.equ	song09_grp, voicegroup000
	.equ	song09_pri, 0
	.equ	song09_rev, 0
	.equ	song09_mvl, 127
	.equ	song09_key, 0
	.equ	song09_tbs, 1
	.equ	song09_exg, 0
	.equ	song09_cmp, 1

	.section .rodata
	.global	song09
	.align	2


@**************** Track 1 (Midi-Chn.0) ****************@

song09_001:
@ 000   ----------------------------------------
 .byte   KEYSH , song09_key+0
Label_0_015896CE:
 .byte   TEMPO , 124*song09_tbs/2
 .byte   VOICE , 56
 .byte   VOL , 40*song09_mvl/mxv
 .byte   PAN , c_v+0
 .byte   N36 ,Bn3 ,v127
 .byte   W01
 .byte   VOL , 40*song09_mvl/mxv
 .byte   W01
 .byte   En1
 .byte   W01
 .byte   En1
 .byte   W01
 .byte   En1
 .byte   W02
 .byte   En1
 .byte   W01
 .byte   En1
 .byte   W01
 .byte   En1
 .byte   W01
 .byte   Ds1
 .byte   W01
 .byte   Dn1
 .byte   W02
 .byte   Cn1
 .byte   W01
 .byte   Bn0
 .byte   W01
 .byte   As0
 .byte   W01
 .byte   Gs0
 .byte   W01
 .byte   Gs0
 .byte   W02
 .byte   Fs0
 .byte   W01
 .byte   Fn0
 .byte   W01
 .byte   En0
 .byte   W01
 .byte   Ds0
 .byte   W01
 .byte   Cs0
 .byte   W02
 .byte   Cs0
 .byte   W01
 .byte   BnM1
 .byte   W01
 .byte   AsM1
 .byte   W01
 .byte   AnM1
 .byte   W01
 .byte   GsM1
 .byte   W02
 .byte   GnM1
 .byte   W01
 .byte   FsM1
 .byte   W01
 .byte   FnM1
 .byte   W01
 .byte   EnM1
 .byte   W01
 .byte   DnM1
 .byte   W02
 .byte   En1
 .byte   N06
 .byte   W01
 .byte   VOL , 40*song09_mvl/mxv
 .byte   W01
 .byte   En1
 .byte   W01
 .byte   En1
 .byte   W01
 .byte   En1
 .byte   W02
 .byte   En1
 .byte   N06 ,An3
 .byte   W01
 .byte   VOL , 40*song09_mvl/mxv
 .byte   W01
 .byte   En1
 .byte   W01
 .byte   En1
 .byte   W03
 .byte   En1
 .byte   N24 ,Bn3
 .byte   W01
 .byte   VOL , 40*song09_mvl/mxv
 .byte   W01
 .byte   En1
 .byte   W01
 .byte   En1
 .byte   W01
 .byte   En1
 .byte   W02
 .byte   En1
 .byte   W01
 .byte   En1
 .byte   W01
 .byte   En1
 .byte   W01
 .byte   Ds1
 .byte   W01
 .byte   Dn1
 .byte   W02
 .byte   Cn1
 .byte   W01
 .byte   Bn0
 .byte   W01
 .byte   As0
 .byte   W01
 .byte   Gs0
 .byte   W01
 .byte   Gs0
 .byte   W02
 .byte   Fs0
 .byte   W01
 .byte   Fn0
 .byte   W01
 .byte   En0
 .byte   W01
 .byte   Ds0
 .byte   W01
 .byte   Cs0
 .byte   W02
 .byte   En1
 .byte   N18 ,Gn3
 .byte   W01
 .byte   VOL , 40*song09_mvl/mxv
 .byte   W01
 .byte   En1
 .byte   W01
 .byte   En1
 .byte   W01
 .byte   En1
 .byte   W02
 .byte   En1
 .byte   W01
 .byte   En1
 .byte   W01
 .byte   En1
 .byte   W01
 .byte   Ds1
 .byte   W01
 .byte   Dn1
 .byte   W02
 .byte   Cn1
 .byte   W01
 .byte   Bn0
 .byte   W01
 .byte   As0
 .byte   W01
 .byte   Gs0
 .byte   W01
 .byte   Gs0
 .byte   W02
 .byte   En1
 .byte   N06 ,Bn3
 .byte   W01
 .byte   VOL , 40*song09_mvl/mxv
 .byte   W01
 .byte   En1
 .byte   W01
 .byte   En1
 .byte   W01
 .byte   En1
 .byte   W02
@ 001   ----------------------------------------
Label_0_01589785:
 .byte   VOL , 40*song09_mvl/mxv
 .byte   N24 ,Cn4 ,v127
 .byte   W01
 .byte   VOL , 40*song09_mvl/mxv
 .byte   W01
 .byte   En1
 .byte   W01
 .byte   En1
 .byte   W01
 .byte   En1
 .byte   W02
 .byte   En1
 .byte   W01
 .byte   En1
 .byte   W01
 .byte   En1
 .byte   W01
 .byte   Ds1
 .byte   W01
 .byte   Dn1
 .byte   W02
 .byte   Cn1
 .byte   W01
 .byte   Bn0
 .byte   W01
 .byte   As0
 .byte   W01
 .byte   Gs0
 .byte   W01
 .byte   Gs0
 .byte   W02
 .byte   Fs0
 .byte   W01
 .byte   Fn0
 .byte   W01
 .byte   En0
 .byte   W01
 .byte   Ds0
 .byte   W01
 .byte   Cs0
 .byte   W02
 .byte   En1
 .byte   N24 ,Bn3
 .byte   W01
 .byte   VOL , 40*song09_mvl/mxv
 .byte   W01
 .byte   En1
 .byte   W01
 .byte   En1
 .byte   W01
 .byte   En1
 .byte   W02
 .byte   En1
 .byte   W01
 .byte   En1
 .byte   W01
 .byte   En1
 .byte   W01
 .byte   Ds1
 .byte   W01
 .byte   Dn1
 .byte   W02
 .byte   Cn1
 .byte   W01
 .byte   Bn0
 .byte   W01
 .byte   As0
 .byte   W01
 .byte   Gs0
 .byte   W01
 .byte   Gs0
 .byte   W02
 .byte   Fs0
 .byte   W01
 .byte   Fn0
 .byte   W01
 .byte   En0
 .byte   W01
 .byte   Ds0
 .byte   W01
 .byte   Cs0
 .byte   W02
 .byte   En1
 .byte   N24 ,An3
 .byte   W01
 .byte   VOL , 40*song09_mvl/mxv
 .byte   W01
 .byte   En1
 .byte   W01
 .byte   En1
 .byte   W01
 .byte   En1
 .byte   W02
 .byte   En1
 .byte   W01
 .byte   En1
 .byte   W01
 .byte   En1
 .byte   W01
 .byte   Ds1
 .byte   W01
 .byte   Dn1
 .byte   W02
 .byte   Cn1
 .byte   W01
 .byte   Bn0
 .byte   W01
 .byte   As0
 .byte   W01
 .byte   Gs0
 .byte   W01
 .byte   Gs0
 .byte   W02
 .byte   Fs0
 .byte   W01
 .byte   Fn0
 .byte   W01
 .byte   En0
 .byte   W01
 .byte   Ds0
 .byte   W01
 .byte   Cs0
 .byte   W02
 .byte   En1
 .byte   N24 ,Bn3
 .byte   W01
 .byte   VOL , 40*song09_mvl/mxv
 .byte   W01
 .byte   En1
 .byte   W01
 .byte   En1
 .byte   W01
 .byte   En1
 .byte   W02
 .byte   En1
 .byte   W01
 .byte   En1
 .byte   W01
 .byte   En1
 .byte   W01
 .byte   Ds1
 .byte   W01
 .byte   Dn1
 .byte   W02
 .byte   Cn1
 .byte   W01
 .byte   Bn0
 .byte   W01
 .byte   As0
 .byte   W01
 .byte   Gs0
 .byte   W01
 .byte   Gs0
 .byte   W02
 .byte   Fs0
 .byte   W01
 .byte   Fn0
 .byte   W01
 .byte   En0
 .byte   W01
 .byte   Ds0
 .byte   W01
 .byte   Cs0
 .byte   W02
 .byte   PEND 
@ 002   ----------------------------------------
Label_0_01589834:
 .byte   VOL , 40*song09_mvl/mxv
 .byte   N36 ,Gn3 ,v127
 .byte   W01
 .byte   VOL , 40*song09_mvl/mxv
 .byte   W01
 .byte   En1
 .byte   W01
 .byte   En1
 .byte   W01
 .byte   En1
 .byte   W02
 .byte   En1
 .byte   W01
 .byte   En1
 .byte   W01
 .byte   En1
 .byte   W01
 .byte   Ds1
 .byte   W01
 .byte   Dn1
 .byte   W02
 .byte   Cn1
 .byte   W01
 .byte   Bn0
 .byte   W01
 .byte   As0
 .byte   W01
 .byte   Gs0
 .byte   W01
 .byte   Gs0
 .byte   W02
 .byte   Fs0
 .byte   W01
 .byte   Fn0
 .byte   W01
 .byte   En0
 .byte   W01
 .byte   Ds0
 .byte   W01
 .byte   Cs0
 .byte   W02
 .byte   Cs0
 .byte   W01
 .byte   BnM1
 .byte   W01
 .byte   AsM1
 .byte   W01
 .byte   AnM1
 .byte   W01
 .byte   GsM1
 .byte   W02
 .byte   GnM1
 .byte   W01
 .byte   FsM1
 .byte   W01
 .byte   FnM1
 .byte   W01
 .byte   EnM1
 .byte   W01
 .byte   DnM1
 .byte   W02
 .byte   En1
 .byte   N06
 .byte   W01
 .byte   VOL , 40*song09_mvl/mxv
 .byte   W01
 .byte   En1
 .byte   W01
 .byte   En1
 .byte   W01
 .byte   En1
 .byte   W02
 .byte   En1
 .byte   N06
 .byte   W01
 .byte   VOL , 40*song09_mvl/mxv
 .byte   W01
 .byte   En1
 .byte   W01
 .byte   En1
 .byte   W01
 .byte   En1
 .byte   W02
 .byte   En1
 .byte   N24 ,Dn4
 .byte   W01
 .byte   VOL , 40*song09_mvl/mxv
 .byte   W01
 .byte   En1
 .byte   W01
 .byte   En1
 .byte   W01
 .byte   En1
 .byte   W02
 .byte   En1
 .byte   W01
 .byte   En1
 .byte   W01
 .byte   En1
 .byte   W01
 .byte   Ds1
 .byte   W01
 .byte   Dn1
 .byte   W02
 .byte   Cn1
 .byte   W01
 .byte   Bn0
 .byte   W01
 .byte   As0
 .byte   W01
 .byte   Gs0
 .byte   W01
 .byte   Gs0
 .byte   W02
 .byte   Fs0
 .byte   W01
 .byte   Fn0
 .byte   W01
 .byte   En0
 .byte   W01
 .byte   Ds0
 .byte   W01
 .byte   Cs0
 .byte   W02
 .byte   En1
 .byte   N18 ,Gn3
 .byte   W01
 .byte   VOL , 40*song09_mvl/mxv
 .byte   W01
 .byte   En1
 .byte   W01
 .byte   En1
 .byte   W01
 .byte   En1
 .byte   W02
 .byte   En1
 .byte   W01
 .byte   En1
 .byte   W01
 .byte   En1
 .byte   W01
 .byte   Ds1
 .byte   W01
 .byte   Dn1
 .byte   W02
 .byte   Cn1
 .byte   W01
 .byte   Bn0
 .byte   W01
 .byte   As0
 .byte   W01
 .byte   Gs0
 .byte   W01
 .byte   Gs0
 .byte   W02
 .byte   En1
 .byte   N06 ,Dn4
 .byte   W01
 .byte   VOL , 40*song09_mvl/mxv
 .byte   W01
 .byte   En1
 .byte   W01
 .byte   En1
 .byte   W01
 .byte   En1
 .byte   W02
 .byte   PEND 
@ 003   ----------------------------------------
Label_0_015898E7:
 .byte   VOL , 40*song09_mvl/mxv
 .byte   N24 ,En4 ,v127
 .byte   W01
 .byte   VOL , 40*song09_mvl/mxv
 .byte   W01
 .byte   En1
 .byte   W01
 .byte   En1
 .byte   W01
 .byte   En1
 .byte   W02
 .byte   En1
 .byte   W01
 .byte   En1
 .byte   W01
 .byte   En1
 .byte   W01
 .byte   Ds1
 .byte   W01
 .byte   Dn1
 .byte   W02
 .byte   Cn1
 .byte   W01
 .byte   Bn0
 .byte   W01
 .byte   As0
 .byte   W01
 .byte   Gs0
 .byte   W01
 .byte   Gs0
 .byte   W02
 .byte   Fs0
 .byte   W01
 .byte   Fn0
 .byte   W01
 .byte   En0
 .byte   W01
 .byte   Ds0
 .byte   W03
 .byte   En1
 .byte   N24 ,Dn4
 .byte   W01
 .byte   VOL , 40*song09_mvl/mxv
 .byte   W01
 .byte   En1
 .byte   W01
 .byte   En1
 .byte   W01
 .byte   En1
 .byte   W02
 .byte   En1
 .byte   W01
 .byte   En1
 .byte   W01
 .byte   En1
 .byte   W01
 .byte   Ds1
 .byte   W01
 .byte   Dn1
 .byte   W02
 .byte   Cn1
 .byte   W01
 .byte   Bn0
 .byte   W01
 .byte   As0
 .byte   W01
 .byte   Gs0
 .byte   W01
 .byte   Gs0
 .byte   W02
 .byte   Fs0
 .byte   W01
 .byte   Fn0
 .byte   W01
 .byte   En0
 .byte   W01
 .byte   Ds0
 .byte   W01
 .byte   Cs0
 .byte   W02
 .byte   En1
 .byte   N24 ,Cn4
 .byte   W01
 .byte   VOL , 40*song09_mvl/mxv
 .byte   W01
 .byte   En1
 .byte   W01
 .byte   En1
 .byte   W01
 .byte   En1
 .byte   W02
 .byte   En1
 .byte   W01
 .byte   En1
 .byte   W01
 .byte   En1
 .byte   W01
 .byte   Ds1
 .byte   W01
 .byte   Dn1
 .byte   W02
 .byte   Cn1
 .byte   W01
 .byte   Bn0
 .byte   W01
 .byte   As0
 .byte   W01
 .byte   Gs0
 .byte   W01
 .byte   Gs0
 .byte   W02
 .byte   Fs0
 .byte   W01
 .byte   Fn0
 .byte   W01
 .byte   En0
 .byte   W01
 .byte   Ds0
 .byte   W01
 .byte   Cs0
 .byte   W02
 .byte   En1
 .byte   N24 ,Dn4
 .byte   W01
 .byte   VOL , 40*song09_mvl/mxv
 .byte   W01
 .byte   En1
 .byte   W01
 .byte   En1
 .byte   W01
 .byte   En1
 .byte   W02
 .byte   En1
 .byte   W01
 .byte   En1
 .byte   W01
 .byte   En1
 .byte   W01
 .byte   Ds1
 .byte   W01
 .byte   Dn1
 .byte   W02
 .byte   Cn1
 .byte   W01
 .byte   Bn0
 .byte   W01
 .byte   As0
 .byte   W01
 .byte   Gs0
 .byte   W01
 .byte   Gs0
 .byte   W02
 .byte   Fs0
 .byte   W01
 .byte   Fn0
 .byte   W01
 .byte   En0
 .byte   W01
 .byte   Ds0
 .byte   W01
 .byte   Cs0
 .byte   W02
 .byte   PEND 
@ 004   ----------------------------------------
Label_0_01589994:
 .byte   VOL , 40*song09_mvl/mxv
 .byte   N36 ,Bn3 ,v127
 .byte   W01
 .byte   VOL , 40*song09_mvl/mxv
 .byte   W01
 .byte   En1
 .byte   W01
 .byte   En1
 .byte   W01
 .byte   En1
 .byte   W02
 .byte   En1
 .byte   W01
 .byte   En1
 .byte   W01
 .byte   En1
 .byte   W01
 .byte   Ds1
 .byte   W01
 .byte   Dn1
 .byte   W02
 .byte   Cn1
 .byte   W01
 .byte   Bn0
 .byte   W01
 .byte   As0
 .byte   W01
 .byte   Gs0
 .byte   W01
 .byte   Gs0
 .byte   W02
 .byte   Fs0
 .byte   W01
 .byte   Fn0
 .byte   W01
 .byte   En0
 .byte   W01
 .byte   Ds0
 .byte   W01
 .byte   Cs0
 .byte   W02
 .byte   Cs0
 .byte   W01
 .byte   BnM1
 .byte   W01
 .byte   AsM1
 .byte   W01
 .byte   AnM1
 .byte   W01
 .byte   GsM1
 .byte   W02
 .byte   GnM1
 .byte   W01
 .byte   FsM1
 .byte   W01
 .byte   FnM1
 .byte   W01
 .byte   EnM1
 .byte   W03
 .byte   En1
 .byte   N06
 .byte   W01
 .byte   VOL , 40*song09_mvl/mxv
 .byte   W01
 .byte   En1
 .byte   W01
 .byte   En1
 .byte   W01
 .byte   En1
 .byte   W02
 .byte   En1
 .byte   N06 ,An3
 .byte   W01
 .byte   VOL , 40*song09_mvl/mxv
 .byte   W01
 .byte   En1
 .byte   W01
 .byte   En1
 .byte   W03
 .byte   En1
 .byte   N24 ,Bn3
 .byte   W01
 .byte   VOL , 40*song09_mvl/mxv
 .byte   W01
 .byte   En1
 .byte   W01
 .byte   En1
 .byte   W01
 .byte   En1
 .byte   W02
 .byte   En1
 .byte   W01
 .byte   En1
 .byte   W01
 .byte   En1
 .byte   W01
 .byte   Ds1
 .byte   W01
 .byte   Dn1
 .byte   W02
 .byte   Cn1
 .byte   W01
 .byte   Bn0
 .byte   W01
 .byte   As0
 .byte   W01
 .byte   Gs0
 .byte   W01
 .byte   Gs0
 .byte   W02
 .byte   Fs0
 .byte   W01
 .byte   Fn0
 .byte   W01
 .byte   En0
 .byte   W01
 .byte   Ds0
 .byte   W03
 .byte   En1
 .byte   N18 ,Gn3
 .byte   W01
 .byte   VOL , 40*song09_mvl/mxv
 .byte   W01
 .byte   En1
 .byte   W01
 .byte   En1
 .byte   W01
 .byte   En1
 .byte   W02
 .byte   En1
 .byte   W01
 .byte   En1
 .byte   W01
 .byte   En1
 .byte   W01
 .byte   Ds1
 .byte   W01
 .byte   Dn1
 .byte   W02
 .byte   Cn1
 .byte   W01
 .byte   Bn0
 .byte   W01
 .byte   As0
 .byte   W01
 .byte   Gs0
 .byte   W01
 .byte   Gs0
 .byte   W02
 .byte   En1
 .byte   N06 ,Dn4
 .byte   W01
 .byte   VOL , 40*song09_mvl/mxv
 .byte   W01
 .byte   En1
 .byte   W01
 .byte   En1
 .byte   W01
 .byte   En1
 .byte   W02
 .byte   PEND 
@ 005   ----------------------------------------
Label_0_01589A42:
 .byte   VOL , 40*song09_mvl/mxv
 .byte   N24 ,Cn4 ,v127
 .byte   W01
 .byte   VOL , 40*song09_mvl/mxv
 .byte   W01
 .byte   En1
 .byte   W01
 .byte   En1
 .byte   W01
 .byte   En1
 .byte   W02
 .byte   En1
 .byte   W01
 .byte   En1
 .byte   W01
 .byte   En1
 .byte   W01
 .byte   Ds1
 .byte   W01
 .byte   Dn1
 .byte   W02
 .byte   Cn1
 .byte   W01
 .byte   Bn0
 .byte   W01
 .byte   As0
 .byte   W01
 .byte   Gs0
 .byte   W01
 .byte   Gs0
 .byte   W02
 .byte   Fs0
 .byte   W01
 .byte   Fn0
 .byte   W01
 .byte   En0
 .byte   W01
 .byte   Ds0
 .byte   W01
 .byte   Cs0
 .byte   W02
 .byte   En1
 .byte   N36 ,An3
 .byte   W01
 .byte   VOL , 40*song09_mvl/mxv
 .byte   W01
 .byte   En1
 .byte   W01
 .byte   En1
 .byte   W01
 .byte   En1
 .byte   W02
 .byte   En1
 .byte   W01
 .byte   En1
 .byte   W01
 .byte   En1
 .byte   W01
 .byte   Ds1
 .byte   W01
 .byte   Dn1
 .byte   W02
 .byte   Cn1
 .byte   W01
 .byte   Bn0
 .byte   W01
 .byte   As0
 .byte   W01
 .byte   Gs0
 .byte   W01
 .byte   Gs0
 .byte   W02
 .byte   Fs0
 .byte   W01
 .byte   Fn0
 .byte   W01
 .byte   En0
 .byte   W01
 .byte   Ds0
 .byte   W01
 .byte   Cs0
 .byte   W02
 .byte   Cs0
 .byte   W01
 .byte   BnM1
 .byte   W01
 .byte   AsM1
 .byte   W01
 .byte   AnM1
 .byte   W01
 .byte   GsM1
 .byte   W02
 .byte   GnM1
 .byte   W01
 .byte   FsM1
 .byte   W01
 .byte   FnM1
 .byte   W01
 .byte   EnM1
 .byte   W03
 .byte   En1
 .byte   N12
 .byte   W01
 .byte   VOL , 40*song09_mvl/mxv
 .byte   W01
 .byte   En1
 .byte   W01
 .byte   En1
 .byte   W01
 .byte   En1
 .byte   W02
 .byte   En1
 .byte   W01
 .byte   En1
 .byte   W01
 .byte   En1
 .byte   W01
 .byte   Ds1
 .byte   W01
 .byte   Dn1
 .byte   W02
 .byte   En1
 .byte   N12 ,Bn3
 .byte   W01
 .byte   VOL , 40*song09_mvl/mxv
 .byte   W01
 .byte   En1
 .byte   W01
 .byte   En1
 .byte   W01
 .byte   En1
 .byte   W02
 .byte   En1
 .byte   W01
 .byte   En1
 .byte   W01
 .byte   En1
 .byte   W01
 .byte   Ds1
 .byte   W01
 .byte   Dn1
 .byte   W02
 .byte   En1
 .byte   N12 ,Cn4
 .byte   W01
 .byte   VOL , 40*song09_mvl/mxv
 .byte   W01
 .byte   En1
 .byte   W01
 .byte   En1
 .byte   W01
 .byte   En1
 .byte   W02
 .byte   En1
 .byte   W01
 .byte   En1
 .byte   W01
 .byte   En1
 .byte   W01
 .byte   Ds1
 .byte   W01
 .byte   Dn1
 .byte   W02
 .byte   PEND 
@ 006   ----------------------------------------
Label_0_01589AF1:
 .byte   VOL , 40*song09_mvl/mxv
 .byte   N36 ,Bn3 ,v127
 .byte   W01
 .byte   VOL , 40*song09_mvl/mxv
 .byte   W01
 .byte   En1
 .byte   W01
 .byte   En1
 .byte   W01
 .byte   En1
 .byte   W02
 .byte   En1
 .byte   W01
 .byte   En1
 .byte   W01
 .byte   En1
 .byte   W01
 .byte   Ds1
 .byte   W01
 .byte   Dn1
 .byte   W02
 .byte   Cn1
 .byte   W01
 .byte   Bn0
 .byte   W01
 .byte   As0
 .byte   W01
 .byte   Gs0
 .byte   W01
 .byte   Gs0
 .byte   W02
 .byte   Fs0
 .byte   W01
 .byte   Fn0
 .byte   W01
 .byte   En0
 .byte   W01
 .byte   Ds0
 .byte   W01
 .byte   Cs0
 .byte   W02
 .byte   Cs0
 .byte   W01
 .byte   BnM1
 .byte   W01
 .byte   AsM1
 .byte   W01
 .byte   AnM1
 .byte   W01
 .byte   GsM1
 .byte   W02
 .byte   GnM1
 .byte   W01
 .byte   FsM1
 .byte   W01
 .byte   FnM1
 .byte   W01
 .byte   EnM1
 .byte   W03
 .byte   En1
 .byte   N06 ,Gn3
 .byte   W01
 .byte   VOL , 40*song09_mvl/mxv
 .byte   W01
 .byte   En1
 .byte   W01
 .byte   En1
 .byte   W01
 .byte   En1
 .byte   W02
 .byte   En1
 .byte   N06 ,Bn3
 .byte   W01
 .byte   VOL , 40*song09_mvl/mxv
 .byte   W01
 .byte   En1
 .byte   W01
 .byte   En1
 .byte   W01
 .byte   En1
 .byte   W02
 .byte   En1
 .byte   N48 ,Dn4
 .byte   W01
 .byte   VOL , 40*song09_mvl/mxv
 .byte   W01
 .byte   En1
 .byte   W01
 .byte   En1
 .byte   W01
 .byte   En1
 .byte   W02
 .byte   En1
 .byte   W01
 .byte   En1
 .byte   W01
 .byte   En1
 .byte   W01
 .byte   Ds1
 .byte   W01
 .byte   Dn1
 .byte   W02
 .byte   Cn1
 .byte   W01
 .byte   Bn0
 .byte   W01
 .byte   As0
 .byte   W01
 .byte   Gs0
 .byte   W01
 .byte   Gs0
 .byte   W02
 .byte   Fs0
 .byte   W01
 .byte   Fn0
 .byte   W01
 .byte   En0
 .byte   W01
 .byte   Ds0
 .byte   W01
 .byte   Cs0
 .byte   W02
 .byte   Cs0
 .byte   W01
 .byte   BnM1
 .byte   W01
 .byte   AsM1
 .byte   W01
 .byte   AnM1
 .byte   W01
 .byte   GsM1
 .byte   W02
 .byte   GnM1
 .byte   W01
 .byte   FsM1
 .byte   W01
 .byte   FnM1
 .byte   W01
 .byte   EnM1
 .byte   W01
 .byte   DnM1
 .byte   W14
 .byte   PEND 
@ 007   ----------------------------------------
Label_0_01589B8A:
 .byte   VOL , 40*song09_mvl/mxv
 .byte   N24 ,Cn4 ,v127
 .byte   W01
 .byte   VOL , 40*song09_mvl/mxv
 .byte   W01
 .byte   En1
 .byte   W01
 .byte   En1
 .byte   W01
 .byte   En1
 .byte   W02
 .byte   En1
 .byte   W01
 .byte   En1
 .byte   W01
 .byte   En1
 .byte   W01
 .byte   Ds1
 .byte   W01
 .byte   Dn1
 .byte   W02
 .byte   Cn1
 .byte   W01
 .byte   Bn0
 .byte   W01
 .byte   As0
 .byte   W01
 .byte   Gs0
 .byte   W01
 .byte   Gs0
 .byte   W02
 .byte   Fs0
 .byte   W01
 .byte   Fn0
 .byte   W01
 .byte   En0
 .byte   W01
 .byte   Ds0
 .byte   W01
 .byte   Cs0
 .byte   W02
 .byte   En1
 .byte   N24 ,Bn3
 .byte   W01
 .byte   VOL , 40*song09_mvl/mxv
 .byte   W01
 .byte   En1
 .byte   W01
 .byte   En1
 .byte   W01
 .byte   En1
 .byte   W02
 .byte   En1
 .byte   W01
 .byte   En1
 .byte   W01
 .byte   En1
 .byte   W01
 .byte   Ds1
 .byte   W01
 .byte   Dn1
 .byte   W02
 .byte   Cn1
 .byte   W01
 .byte   Bn0
 .byte   W01
 .byte   As0
 .byte   W01
 .byte   Gs0
 .byte   W01
 .byte   Gs0
 .byte   W02
 .byte   Fs0
 .byte   W01
 .byte   Fn0
 .byte   W01
 .byte   En0
 .byte   W01
 .byte   Ds0
 .byte   W01
 .byte   Cs0
 .byte   W02
 .byte   En1
 .byte   N12 ,Cn4
 .byte   W01
 .byte   VOL , 40*song09_mvl/mxv
 .byte   W01
 .byte   En1
 .byte   W01
 .byte   En1
 .byte   W01
 .byte   En1
 .byte   W02
 .byte   En1
 .byte   W01
 .byte   En1
 .byte   W01
 .byte   En1
 .byte   W01
 .byte   Ds1
 .byte   W01
 .byte   Dn1
 .byte   W02
 .byte   En1
 .byte   N12 ,Bn3
 .byte   W01
 .byte   VOL , 40*song09_mvl/mxv
 .byte   W01
 .byte   En1
 .byte   W01
 .byte   En1
 .byte   W01
 .byte   En1
 .byte   W02
 .byte   En1
 .byte   W01
 .byte   En1
 .byte   W01
 .byte   En1
 .byte   W01
 .byte   Ds1
 .byte   W01
 .byte   Dn1
 .byte   W02
 .byte   En1
 .byte   N18 ,An3
 .byte   W01
 .byte   VOL , 40*song09_mvl/mxv
 .byte   W01
 .byte   En1
 .byte   W01
 .byte   En1
 .byte   W01
 .byte   En1
 .byte   W02
 .byte   En1
 .byte   W01
 .byte   En1
 .byte   W01
 .byte   En1
 .byte   W01
 .byte   Ds1
 .byte   W01
 .byte   Dn1
 .byte   W02
 .byte   Cn1
 .byte   W01
 .byte   Bn0
 .byte   W01
 .byte   As0
 .byte   W01
 .byte   Gs0
 .byte   W01
 .byte   Gs0
 .byte   W02
 .byte   En1
 .byte   N06 ,Gn3
 .byte   W01
 .byte   VOL , 40*song09_mvl/mxv
 .byte   W01
 .byte   En1
 .byte   W01
 .byte   En1
 .byte   W01
 .byte   En1
 .byte   W02
 .byte   PEND 
@ 008   ----------------------------------------
Label_0_01589C3F:
 .byte   VOL , 40*song09_mvl/mxv
 .byte   N36 ,Bn3 ,v127
 .byte   W01
 .byte   VOL , 40*song09_mvl/mxv
 .byte   W01
 .byte   En1
 .byte   W01
 .byte   En1
 .byte   W01
 .byte   En1
 .byte   W02
 .byte   En1
 .byte   W01
 .byte   En1
 .byte   W01
 .byte   En1
 .byte   W01
 .byte   Ds1
 .byte   W01
 .byte   Dn1
 .byte   W02
 .byte   Cn1
 .byte   W01
 .byte   Bn0
 .byte   W01
 .byte   As0
 .byte   W01
 .byte   Gs0
 .byte   W01
 .byte   Gs0
 .byte   W02
 .byte   Fs0
 .byte   W01
 .byte   Fn0
 .byte   W01
 .byte   En0
 .byte   W01
 .byte   Ds0
 .byte   W01
 .byte   Cs0
 .byte   W02
 .byte   Cs0
 .byte   W01
 .byte   BnM1
 .byte   W01
 .byte   AsM1
 .byte   W01
 .byte   AnM1
 .byte   W01
 .byte   GsM1
 .byte   W02
 .byte   GnM1
 .byte   W01
 .byte   FsM1
 .byte   W01
 .byte   FnM1
 .byte   W01
 .byte   EnM1
 .byte   W01
 .byte   DnM1
 .byte   W02
 .byte   En1
 .byte   N06
 .byte   W01
 .byte   VOL , 40*song09_mvl/mxv
 .byte   W01
 .byte   En1
 .byte   W01
 .byte   En1
 .byte   W01
 .byte   En1
 .byte   W02
 .byte   En1
 .byte   N06 ,An3
 .byte   W01
 .byte   VOL , 40*song09_mvl/mxv
 .byte   W01
 .byte   En1
 .byte   W01
 .byte   En1
 .byte   W03
 .byte   En1
 .byte   N24 ,Bn3
 .byte   W01
 .byte   VOL , 40*song09_mvl/mxv
 .byte   W01
 .byte   En1
 .byte   W01
 .byte   En1
 .byte   W01
 .byte   En1
 .byte   W02
 .byte   En1
 .byte   W01
 .byte   En1
 .byte   W01
 .byte   En1
 .byte   W01
 .byte   Ds1
 .byte   W01
 .byte   Dn1
 .byte   W02
 .byte   Cn1
 .byte   W01
 .byte   Bn0
 .byte   W01
 .byte   As0
 .byte   W01
 .byte   Gs0
 .byte   W01
 .byte   Gs0
 .byte   W02
 .byte   Fs0
 .byte   W01
 .byte   Fn0
 .byte   W01
 .byte   En0
 .byte   W01
 .byte   Ds0
 .byte   W01
 .byte   Cs0
 .byte   W02
 .byte   En1
 .byte   N18 ,Gn3
 .byte   W01
 .byte   VOL , 40*song09_mvl/mxv
 .byte   W01
 .byte   En1
 .byte   W01
 .byte   En1
 .byte   W01
 .byte   En1
 .byte   W02
 .byte   En1
 .byte   W01
 .byte   En1
 .byte   W01
 .byte   En1
 .byte   W01
 .byte   Ds1
 .byte   W01
 .byte   Dn1
 .byte   W02
 .byte   Cn1
 .byte   W01
 .byte   Bn0
 .byte   W01
 .byte   As0
 .byte   W01
 .byte   Gs0
 .byte   W01
 .byte   Gs0
 .byte   W02
 .byte   En1
 .byte   N06 ,Bn3
 .byte   W01
 .byte   VOL , 40*song09_mvl/mxv
 .byte   W01
 .byte   En1
 .byte   W01
 .byte   En1
 .byte   W01
 .byte   En1
 .byte   W02
 .byte   PEND 
 .byte   PATT
  .word Label_0_01589785
 .byte   PATT
  .word Label_0_01589834
 .byte   PATT
  .word Label_0_015898E7
 .byte   PATT
  .word Label_0_01589994
 .byte   PATT
  .word Label_0_01589A42
 .byte   PATT
  .word Label_0_01589AF1
 .byte   PATT
  .word Label_0_01589B8A
 .byte   PATT
  .word Label_0_01589C3F
 .byte   PATT
  .word Label_0_01589785
 .byte   PATT
  .word Label_0_01589834
 .byte   PATT
  .word Label_0_015898E7
 .byte   PATT
  .word Label_0_01589994
 .byte   PATT
  .word Label_0_01589A42
 .byte   PATT
  .word Label_0_01589AF1
 .byte   PATT
  .word Label_0_01589B8A
 .byte   PATT
  .word Label_0_01589C3F
 .byte   PATT
  .word Label_0_01589785
 .byte   PATT
  .word Label_0_01589834
 .byte   PATT
  .word Label_0_015898E7
 .byte   PATT
  .word Label_0_01589994
 .byte   PATT
  .word Label_0_01589A42
 .byte   PATT
  .word Label_0_01589AF1
 .byte   PATT
  .word Label_0_01589B8A
@ 009   ----------------------------------------
 .byte   GOTO
  .word Label_0_015896CE
 .byte   FINE

@**************** Track 2 (Midi-Chn.1) ****************@

song09_002:
@ 000   ----------------------------------------
 .byte   KEYSH , song09_key+0
Label_1_01589D6E:
 .byte   VOICE , 34
 .byte   VOL , 40*song09_mvl/mxv
 .byte   PAN , c_v+0
 .byte   N24 ,Gn1 ,v112
 .byte   W01
 .byte   VOL , 38*song09_mvl/mxv
 .byte   W01
 .byte   Cn1
 .byte   W01
 .byte   Bn0
 .byte   W01
 .byte   An0
 .byte   W02
 .byte   Gs0
 .byte   W01
 .byte   Fs0
 .byte   W01
 .byte   Fn0
 .byte   W01
 .byte   Ds0
 .byte   W01
 .byte   Dn0
 .byte   W02
 .byte   Cn0
 .byte   W01
 .byte   BnM1
 .byte   W01
 .byte   AnM1
 .byte   W01
 .byte   GsM1
 .byte   W01
 .byte   FsM1
 .byte   W02
 .byte   EnM1
 .byte   W01
 .byte   DsM1
 .byte   W01
 .byte   CsM1
 .byte   W01
 .byte   CnM1
 .byte   W01
 .byte   AsM2
 .byte   W02
 .byte   En1
 .byte   N24 ,Dn1
 .byte   W01
 .byte   VOL , 38*song09_mvl/mxv
 .byte   W01
 .byte   Cn1
 .byte   W01
 .byte   Bn0
 .byte   W01
 .byte   An0
 .byte   W02
 .byte   Gs0
 .byte   W01
 .byte   Fs0
 .byte   W01
 .byte   En0
 .byte   W01
 .byte   Ds0
 .byte   W01
 .byte   Dn0
 .byte   W02
 .byte   Cn0
 .byte   W01
 .byte   BnM1
 .byte   W01
 .byte   AnM1
 .byte   W01
 .byte   GsM1
 .byte   W01
 .byte   FsM1
 .byte   W02
 .byte   EnM1
 .byte   W01
 .byte   DsM1
 .byte   W01
 .byte   CsM1
 .byte   W01
 .byte   CnM1
 .byte   W01
 .byte   AsM2
 .byte   W02
 .byte   En1
 .byte   N24 ,Gn1
 .byte   W01
 .byte   VOL , 38*song09_mvl/mxv
 .byte   W01
 .byte   Cn1
 .byte   W01
 .byte   Bn0
 .byte   W01
 .byte   An0
 .byte   W02
 .byte   Gs0
 .byte   W01
 .byte   Fs0
 .byte   W01
 .byte   En0
 .byte   W01
 .byte   Ds0
 .byte   W01
 .byte   Dn0
 .byte   W02
 .byte   Cn0
 .byte   W01
 .byte   BnM1
 .byte   W01
 .byte   AnM1
 .byte   W01
 .byte   GsM1
 .byte   W01
 .byte   FsM1
 .byte   W02
 .byte   EnM1
 .byte   W01
 .byte   DsM1
 .byte   W01
 .byte   CsM1
 .byte   W01
 .byte   CnM1
 .byte   W01
 .byte   AsM2
 .byte   W02
 .byte   En1
 .byte   N24 ,Dn1
 .byte   W01
 .byte   VOL , 38*song09_mvl/mxv
 .byte   W01
 .byte   Cn1
 .byte   W01
 .byte   Bn0
 .byte   W01
 .byte   An0
 .byte   W01
 .byte   Gs0
 .byte   W02
 .byte   Fs0
 .byte   W01
 .byte   En0
 .byte   W01
 .byte   Ds0
 .byte   W01
 .byte   Dn0
 .byte   W02
 .byte   Cn0
 .byte   W01
 .byte   BnM1
 .byte   W01
 .byte   AnM1
 .byte   W01
 .byte   GsM1
 .byte   W01
 .byte   FsM1
 .byte   W02
 .byte   EnM1
 .byte   W01
 .byte   DsM1
 .byte   W01
 .byte   CsM1
 .byte   W01
 .byte   CnM1
 .byte   W02
 .byte   AnM2
 .byte   W01
@ 001   ----------------------------------------
Label_1_01589E20:
 .byte   VOL , 40*song09_mvl/mxv
 .byte   N24 ,Fn1 ,v112
 .byte   W01
 .byte   VOL , 38*song09_mvl/mxv
 .byte   W01
 .byte   Cn1
 .byte   W01
 .byte   Bn0
 .byte   W01
 .byte   An0
 .byte   W02
 .byte   Gs0
 .byte   W01
 .byte   Fs0
 .byte   W01
 .byte   Fn0
 .byte   W01
 .byte   Ds0
 .byte   W01
 .byte   Dn0
 .byte   W02
 .byte   Cn0
 .byte   W01
 .byte   BnM1
 .byte   W01
 .byte   AnM1
 .byte   W01
 .byte   GsM1
 .byte   W01
 .byte   FsM1
 .byte   W02
 .byte   EnM1
 .byte   W01
 .byte   DsM1
 .byte   W01
 .byte   CsM1
 .byte   W01
 .byte   CnM1
 .byte   W01
 .byte   AsM2
 .byte   W02
 .byte   En1
 .byte   N24 ,Cn1
 .byte   W01
 .byte   VOL , 38*song09_mvl/mxv
 .byte   W01
 .byte   Cn1
 .byte   W01
 .byte   Bn0
 .byte   W01
 .byte   An0
 .byte   W02
 .byte   Gs0
 .byte   W01
 .byte   Fs0
 .byte   W01
 .byte   En0
 .byte   W01
 .byte   Ds0
 .byte   W01
 .byte   Dn0
 .byte   W02
 .byte   Cn0
 .byte   W01
 .byte   BnM1
 .byte   W01
 .byte   AnM1
 .byte   W01
 .byte   GsM1
 .byte   W01
 .byte   FsM1
 .byte   W02
 .byte   EnM1
 .byte   W01
 .byte   DsM1
 .byte   W01
 .byte   CsM1
 .byte   W01
 .byte   CnM1
 .byte   W01
 .byte   AsM2
 .byte   W02
 .byte   En1
 .byte   N24 ,Fn1
 .byte   W01
 .byte   VOL , 38*song09_mvl/mxv
 .byte   W01
 .byte   Cn1
 .byte   W01
 .byte   Bn0
 .byte   W01
 .byte   An0
 .byte   W02
 .byte   Gs0
 .byte   W01
 .byte   Fs0
 .byte   W01
 .byte   En0
 .byte   W01
 .byte   Ds0
 .byte   W01
 .byte   Dn0
 .byte   W02
 .byte   Cn0
 .byte   W01
 .byte   BnM1
 .byte   W01
 .byte   AnM1
 .byte   W01
 .byte   GsM1
 .byte   W01
 .byte   FsM1
 .byte   W02
 .byte   EnM1
 .byte   W01
 .byte   DsM1
 .byte   W01
 .byte   CsM1
 .byte   W01
 .byte   CnM1
 .byte   W01
 .byte   AsM2
 .byte   W02
 .byte   En1
 .byte   N24 ,Cn1
 .byte   W01
 .byte   VOL , 38*song09_mvl/mxv
 .byte   W01
 .byte   Cn1
 .byte   W01
 .byte   Bn0
 .byte   W01
 .byte   An0
 .byte   W01
 .byte   Gs0
 .byte   W02
 .byte   Fs0
 .byte   W01
 .byte   En0
 .byte   W01
 .byte   Ds0
 .byte   W01
 .byte   Dn0
 .byte   W02
 .byte   Cn0
 .byte   W01
 .byte   BnM1
 .byte   W01
 .byte   AnM1
 .byte   W01
 .byte   GsM1
 .byte   W01
 .byte   FsM1
 .byte   W02
 .byte   EnM1
 .byte   W01
 .byte   DsM1
 .byte   W01
 .byte   CsM1
 .byte   W01
 .byte   CnM1
 .byte   W02
 .byte   AnM2
 .byte   W01
 .byte   PEND 
@ 002   ----------------------------------------
Label_1_01589ECF:
 .byte   VOL , 40*song09_mvl/mxv
 .byte   N24 ,Gn1 ,v112
 .byte   W01
 .byte   VOL , 38*song09_mvl/mxv
 .byte   W01
 .byte   Cn1
 .byte   W01
 .byte   Bn0
 .byte   W01
 .byte   An0
 .byte   W02
 .byte   Gs0
 .byte   W01
 .byte   Fs0
 .byte   W01
 .byte   Fn0
 .byte   W01
 .byte   Ds0
 .byte   W01
 .byte   Dn0
 .byte   W02
 .byte   Cn0
 .byte   W01
 .byte   BnM1
 .byte   W01
 .byte   AnM1
 .byte   W01
 .byte   GsM1
 .byte   W01
 .byte   FsM1
 .byte   W02
 .byte   EnM1
 .byte   W01
 .byte   DsM1
 .byte   W01
 .byte   CsM1
 .byte   W01
 .byte   CnM1
 .byte   W01
 .byte   AsM2
 .byte   W02
 .byte   En1
 .byte   N24 ,Dn1
 .byte   W01
 .byte   VOL , 38*song09_mvl/mxv
 .byte   W01
 .byte   Cn1
 .byte   W01
 .byte   Bn0
 .byte   W01
 .byte   An0
 .byte   W02
 .byte   Gs0
 .byte   W01
 .byte   Fs0
 .byte   W01
 .byte   En0
 .byte   W01
 .byte   Ds0
 .byte   W01
 .byte   Dn0
 .byte   W02
 .byte   Cn0
 .byte   W01
 .byte   BnM1
 .byte   W01
 .byte   AnM1
 .byte   W01
 .byte   GsM1
 .byte   W01
 .byte   FsM1
 .byte   W02
 .byte   EnM1
 .byte   W01
 .byte   DsM1
 .byte   W01
 .byte   CsM1
 .byte   W01
 .byte   CnM1
 .byte   W01
 .byte   AsM2
 .byte   W02
 .byte   En1
 .byte   N24 ,Gn1
 .byte   W01
 .byte   VOL , 38*song09_mvl/mxv
 .byte   W01
 .byte   Cn1
 .byte   W01
 .byte   Bn0
 .byte   W01
 .byte   An0
 .byte   W02
 .byte   Gs0
 .byte   W01
 .byte   Fs0
 .byte   W01
 .byte   En0
 .byte   W01
 .byte   Ds0
 .byte   W01
 .byte   Dn0
 .byte   W02
 .byte   Cn0
 .byte   W01
 .byte   BnM1
 .byte   W01
 .byte   AnM1
 .byte   W01
 .byte   GsM1
 .byte   W01
 .byte   FsM1
 .byte   W02
 .byte   EnM1
 .byte   W01
 .byte   DsM1
 .byte   W01
 .byte   CsM1
 .byte   W01
 .byte   CnM1
 .byte   W01
 .byte   AsM2
 .byte   W02
 .byte   En1
 .byte   N24 ,Dn1
 .byte   W01
 .byte   VOL , 38*song09_mvl/mxv
 .byte   W01
 .byte   Cn1
 .byte   W01
 .byte   Bn0
 .byte   W01
 .byte   An0
 .byte   W01
 .byte   Gs0
 .byte   W02
 .byte   Fs0
 .byte   W01
 .byte   En0
 .byte   W01
 .byte   Ds0
 .byte   W01
 .byte   Dn0
 .byte   W02
 .byte   Cn0
 .byte   W01
 .byte   BnM1
 .byte   W01
 .byte   AnM1
 .byte   W01
 .byte   GsM1
 .byte   W01
 .byte   FsM1
 .byte   W02
 .byte   EnM1
 .byte   W01
 .byte   DsM1
 .byte   W01
 .byte   CsM1
 .byte   W01
 .byte   CnM1
 .byte   W02
 .byte   AnM2
 .byte   W01
 .byte   PEND 
@ 003   ----------------------------------------
Label_1_01589F7E:
 .byte   VOL , 40*song09_mvl/mxv
 .byte   N24 ,Fn1 ,v112
 .byte   W01
 .byte   VOL , 38*song09_mvl/mxv
 .byte   W01
 .byte   Cn1
 .byte   W01
 .byte   Bn0
 .byte   W01
 .byte   An0
 .byte   W02
 .byte   Gs0
 .byte   W01
 .byte   Fs0
 .byte   W01
 .byte   Fn0
 .byte   W01
 .byte   Ds0
 .byte   W01
 .byte   Dn0
 .byte   W02
 .byte   Cn0
 .byte   W01
 .byte   BnM1
 .byte   W01
 .byte   AnM1
 .byte   W01
 .byte   GsM1
 .byte   W01
 .byte   FsM1
 .byte   W02
 .byte   EnM1
 .byte   W01
 .byte   DsM1
 .byte   W01
 .byte   CsM1
 .byte   W01
 .byte   CnM1
 .byte   W01
 .byte   AsM2
 .byte   W02
 .byte   En1
 .byte   N24 ,Cn1
 .byte   W01
 .byte   VOL , 38*song09_mvl/mxv
 .byte   W01
 .byte   Cn1
 .byte   W01
 .byte   Bn0
 .byte   W01
 .byte   An0
 .byte   W02
 .byte   Gs0
 .byte   W01
 .byte   Fs0
 .byte   W01
 .byte   En0
 .byte   W01
 .byte   Ds0
 .byte   W01
 .byte   Dn0
 .byte   W02
 .byte   Cn0
 .byte   W01
 .byte   BnM1
 .byte   W01
 .byte   AnM1
 .byte   W01
 .byte   GsM1
 .byte   W01
 .byte   FsM1
 .byte   W02
 .byte   EnM1
 .byte   W01
 .byte   DsM1
 .byte   W01
 .byte   CsM1
 .byte   W01
 .byte   CnM1
 .byte   W01
 .byte   AsM2
 .byte   W02
 .byte   En1
 .byte   N24 ,Fn1
 .byte   W01
 .byte   VOL , 38*song09_mvl/mxv
 .byte   W01
 .byte   Cn1
 .byte   W01
 .byte   Bn0
 .byte   W01
 .byte   An0
 .byte   W02
 .byte   Gs0
 .byte   W01
 .byte   Fs0
 .byte   W01
 .byte   En0
 .byte   W01
 .byte   Ds0
 .byte   W01
 .byte   Dn0
 .byte   W02
 .byte   Cn0
 .byte   W01
 .byte   BnM1
 .byte   W01
 .byte   AnM1
 .byte   W01
 .byte   GsM1
 .byte   W01
 .byte   FsM1
 .byte   W02
 .byte   EnM1
 .byte   W01
 .byte   DsM1
 .byte   W01
 .byte   CsM1
 .byte   W01
 .byte   CnM1
 .byte   W01
 .byte   AsM2
 .byte   W02
 .byte   En1
 .byte   N24 ,An1
 .byte   W01
 .byte   VOL , 38*song09_mvl/mxv
 .byte   W01
 .byte   Cn1
 .byte   W01
 .byte   Bn0
 .byte   W01
 .byte   An0
 .byte   W01
 .byte   Gs0
 .byte   W02
 .byte   Fs0
 .byte   W01
 .byte   En0
 .byte   W01
 .byte   Ds0
 .byte   W01
 .byte   Dn0
 .byte   W02
 .byte   Cn0
 .byte   W01
 .byte   BnM1
 .byte   W01
 .byte   AnM1
 .byte   W01
 .byte   GsM1
 .byte   W01
 .byte   FsM1
 .byte   W02
 .byte   EnM1
 .byte   W01
 .byte   DsM1
 .byte   W01
 .byte   CsM1
 .byte   W01
 .byte   CnM1
 .byte   W02
 .byte   AnM2
 .byte   W01
 .byte   PEND 
 .byte   PATT
  .word Label_1_01589ECF
 .byte   PATT
  .word Label_1_01589E20
 .byte   PATT
  .word Label_1_01589ECF
 .byte   PATT
  .word Label_1_01589E20
 .byte   PATT
  .word Label_1_01589ECF
 .byte   PATT
  .word Label_1_01589E20
 .byte   PATT
  .word Label_1_01589ECF
 .byte   PATT
  .word Label_1_01589F7E
 .byte   PATT
  .word Label_1_01589ECF
 .byte   PATT
  .word Label_1_01589E20
 .byte   PATT
  .word Label_1_01589ECF
 .byte   PATT
  .word Label_1_01589E20
 .byte   PATT
  .word Label_1_01589ECF
 .byte   PATT
  .word Label_1_01589E20
 .byte   PATT
  .word Label_1_01589ECF
 .byte   PATT
  .word Label_1_01589F7E
 .byte   PATT
  .word Label_1_01589ECF
 .byte   PATT
  .word Label_1_01589E20
 .byte   PATT
  .word Label_1_01589ECF
 .byte   PATT
  .word Label_1_01589E20
 .byte   PATT
  .word Label_1_01589ECF
 .byte   PATT
  .word Label_1_01589E20
 .byte   PATT
  .word Label_1_01589ECF
 .byte   PATT
  .word Label_1_01589F7E
 .byte   PATT
  .word Label_1_01589ECF
 .byte   PATT
  .word Label_1_01589E20
 .byte   PATT
  .word Label_1_01589ECF
 .byte   PATT
  .word Label_1_01589E20
@ 004   ----------------------------------------
 .byte   GOTO
  .word Label_1_01589D6E
 .byte   FINE

@**************** Track 3 (Midi-Chn.2) ****************@

song09_003:
@ 000   ----------------------------------------
 .byte   KEYSH , song09_key+0
Label_2_0158A0C2:
 .byte   VOICE , 48
 .byte   VOL , 40*song09_mvl/mxv
 .byte   PAN , c_v-54
 .byte   N21 ,Dn4 ,v100
 .byte   W01
 .byte   VOL , 40*song09_mvl/mxv
 .byte   W01
 .byte   En1
 .byte   W02
 .byte   En1
 .byte   W01
 .byte   Ds1
 .byte   W01
 .byte   Cs1
 .byte   W01
 .byte   Bn0
 .byte   W02
 .byte   Gs0
 .byte   W01
 .byte   Gn0
 .byte   W02
 .byte   Fn0
 .byte   W01
 .byte   Ds0
 .byte   W01
 .byte   Cs0
 .byte   W01
 .byte   BnM1
 .byte   W02
 .byte   AnM1
 .byte   W01
 .byte   GnM1
 .byte   W02
 .byte   FnM1
 .byte   W01
 .byte   DsM1
 .byte   W03
 .byte   En1
 .byte   N21
 .byte   W01
 .byte   VOL , 40*song09_mvl/mxv
 .byte   W01
 .byte   En1
 .byte   W02
 .byte   En1
 .byte   W01
 .byte   Ds1
 .byte   W01
 .byte   Cs1
 .byte   W01
 .byte   Bn0
 .byte   W02
 .byte   Gs0
 .byte   W01
 .byte   Gn0
 .byte   W02
 .byte   Fn0
 .byte   W01
 .byte   Ds0
 .byte   W01
 .byte   Cs0
 .byte   W01
 .byte   BnM1
 .byte   W02
 .byte   AnM1
 .byte   W01
 .byte   GnM1
 .byte   W02
 .byte   FnM1
 .byte   W01
 .byte   DsM1
 .byte   W03
 .byte   En1
 .byte   N21
 .byte   W01
 .byte   VOL , 40*song09_mvl/mxv
 .byte   W01
 .byte   En1
 .byte   W02
 .byte   En1
 .byte   W01
 .byte   Ds1
 .byte   W01
 .byte   Cs1
 .byte   W02
 .byte   Bn0
 .byte   W01
 .byte   Gs0
 .byte   W01
 .byte   Gn0
 .byte   W02
 .byte   Fn0
 .byte   W01
 .byte   Ds0
 .byte   W01
 .byte   Cs0
 .byte   W02
 .byte   BnM1
 .byte   W01
 .byte   AnM1
 .byte   W01
 .byte   GnM1
 .byte   W02
 .byte   FnM1
 .byte   W01
 .byte   DsM1
 .byte   W03
 .byte   En1
 .byte   N06
 .byte   W01
 .byte   VOL , 40*song09_mvl/mxv
 .byte   W01
 .byte   En1
 .byte   W02
 .byte   Dn1
 .byte   W01
 .byte   As0
 .byte   W03
 .byte   En1
 .byte   N06
 .byte   W01
 .byte   VOL , 40*song09_mvl/mxv
 .byte   W01
 .byte   En1
 .byte   W02
 .byte   Dn1
 .byte   W01
 .byte   As0
 .byte   W03
 .byte   En1
 .byte   N06
 .byte   W01
 .byte   VOL , 40*song09_mvl/mxv
 .byte   W01
 .byte   En1
 .byte   W02
 .byte   Dn1
 .byte   W01
 .byte   As0
 .byte   W03
@ 001   ----------------------------------------
Label_2_0158A159:
 .byte   VOL , 40*song09_mvl/mxv
 .byte   N21 ,Cn4 ,v100
 .byte   W01
 .byte   VOL , 40*song09_mvl/mxv
 .byte   W01
 .byte   En1
 .byte   W02
 .byte   En1
 .byte   W01
 .byte   Ds1
 .byte   W01
 .byte   Cs1
 .byte   W01
 .byte   Bn0
 .byte   W02
 .byte   Gs0
 .byte   W01
 .byte   Gn0
 .byte   W02
 .byte   Fn0
 .byte   W01
 .byte   Ds0
 .byte   W01
 .byte   Cs0
 .byte   W01
 .byte   BnM1
 .byte   W02
 .byte   AnM1
 .byte   W01
 .byte   GnM1
 .byte   W02
 .byte   FnM1
 .byte   W01
 .byte   DsM1
 .byte   W03
 .byte   En1
 .byte   N21
 .byte   W01
 .byte   VOL , 40*song09_mvl/mxv
 .byte   W01
 .byte   En1
 .byte   W02
 .byte   En1
 .byte   W01
 .byte   Ds1
 .byte   W01
 .byte   Cs1
 .byte   W01
 .byte   Bn0
 .byte   W02
 .byte   Gs0
 .byte   W01
 .byte   Gn0
 .byte   W02
 .byte   Fn0
 .byte   W01
 .byte   Ds0
 .byte   W01
 .byte   Cs0
 .byte   W01
 .byte   BnM1
 .byte   W02
 .byte   AnM1
 .byte   W01
 .byte   GnM1
 .byte   W02
 .byte   FnM1
 .byte   W01
 .byte   DsM1
 .byte   W03
 .byte   En1
 .byte   N21
 .byte   W01
 .byte   VOL , 40*song09_mvl/mxv
 .byte   W01
 .byte   En1
 .byte   W02
 .byte   En1
 .byte   W01
 .byte   Ds1
 .byte   W01
 .byte   Cs1
 .byte   W02
 .byte   Bn0
 .byte   W01
 .byte   Gs0
 .byte   W01
 .byte   Gn0
 .byte   W02
 .byte   Fn0
 .byte   W01
 .byte   Ds0
 .byte   W01
 .byte   Cs0
 .byte   W02
 .byte   BnM1
 .byte   W01
 .byte   AnM1
 .byte   W01
 .byte   GnM1
 .byte   W02
 .byte   FnM1
 .byte   W01
 .byte   DsM1
 .byte   W03
 .byte   En1
 .byte   N06
 .byte   W01
 .byte   VOL , 40*song09_mvl/mxv
 .byte   W01
 .byte   En1
 .byte   W02
 .byte   Dn1
 .byte   W01
 .byte   As0
 .byte   W03
 .byte   En1
 .byte   N06
 .byte   W01
 .byte   VOL , 40*song09_mvl/mxv
 .byte   W01
 .byte   En1
 .byte   W02
 .byte   Dn1
 .byte   W01
 .byte   As0
 .byte   W03
 .byte   En1
 .byte   N06
 .byte   W01
 .byte   VOL , 40*song09_mvl/mxv
 .byte   W01
 .byte   En1
 .byte   W02
 .byte   Dn1
 .byte   W01
 .byte   As0
 .byte   W03
 .byte   PEND 
@ 002   ----------------------------------------
Label_2_0158A1ED:
 .byte   VOL , 40*song09_mvl/mxv
 .byte   N21 ,Dn4 ,v100
 .byte   W01
 .byte   VOL , 40*song09_mvl/mxv
 .byte   W01
 .byte   En1
 .byte   W02
 .byte   En1
 .byte   W01
 .byte   Ds1
 .byte   W01
 .byte   Cs1
 .byte   W01
 .byte   Bn0
 .byte   W02
 .byte   Gs0
 .byte   W01
 .byte   Gn0
 .byte   W02
 .byte   Fn0
 .byte   W01
 .byte   Ds0
 .byte   W01
 .byte   Cs0
 .byte   W01
 .byte   BnM1
 .byte   W02
 .byte   AnM1
 .byte   W01
 .byte   GnM1
 .byte   W02
 .byte   FnM1
 .byte   W01
 .byte   DsM1
 .byte   W03
 .byte   En1
 .byte   N21
 .byte   W01
 .byte   VOL , 40*song09_mvl/mxv
 .byte   W01
 .byte   En1
 .byte   W02
 .byte   En1
 .byte   W01
 .byte   Ds1
 .byte   W01
 .byte   Cs1
 .byte   W01
 .byte   Bn0
 .byte   W02
 .byte   Gs0
 .byte   W01
 .byte   Gn0
 .byte   W02
 .byte   Fn0
 .byte   W01
 .byte   Ds0
 .byte   W01
 .byte   Cs0
 .byte   W01
 .byte   BnM1
 .byte   W02
 .byte   AnM1
 .byte   W01
 .byte   GnM1
 .byte   W02
 .byte   FnM1
 .byte   W01
 .byte   DsM1
 .byte   W03
 .byte   En1
 .byte   N21
 .byte   W01
 .byte   VOL , 40*song09_mvl/mxv
 .byte   W01
 .byte   En1
 .byte   W02
 .byte   En1
 .byte   W01
 .byte   Ds1
 .byte   W01
 .byte   Cs1
 .byte   W02
 .byte   Bn0
 .byte   W01
 .byte   Gs0
 .byte   W01
 .byte   Gn0
 .byte   W02
 .byte   Fn0
 .byte   W01
 .byte   Ds0
 .byte   W01
 .byte   Cs0
 .byte   W02
 .byte   BnM1
 .byte   W01
 .byte   AnM1
 .byte   W01
 .byte   GnM1
 .byte   W02
 .byte   FnM1
 .byte   W01
 .byte   DsM1
 .byte   W03
 .byte   En1
 .byte   N06
 .byte   W01
 .byte   VOL , 40*song09_mvl/mxv
 .byte   W01
 .byte   En1
 .byte   W02
 .byte   Dn1
 .byte   W01
 .byte   As0
 .byte   W03
 .byte   En1
 .byte   N06
 .byte   W01
 .byte   VOL , 40*song09_mvl/mxv
 .byte   W01
 .byte   En1
 .byte   W02
 .byte   Dn1
 .byte   W01
 .byte   As0
 .byte   W03
 .byte   En1
 .byte   N06
 .byte   W01
 .byte   VOL , 40*song09_mvl/mxv
 .byte   W01
 .byte   En1
 .byte   W02
 .byte   Dn1
 .byte   W01
 .byte   As0
 .byte   W03
 .byte   PEND 
 .byte   PATT
  .word Label_2_0158A159
 .byte   PATT
  .word Label_2_0158A1ED
 .byte   PATT
  .word Label_2_0158A159
 .byte   PATT
  .word Label_2_0158A1ED
 .byte   PATT
  .word Label_2_0158A159
 .byte   PATT
  .word Label_2_0158A1ED
 .byte   PATT
  .word Label_2_0158A159
 .byte   PATT
  .word Label_2_0158A1ED
 .byte   PATT
  .word Label_2_0158A159
 .byte   PATT
  .word Label_2_0158A1ED
 .byte   PATT
  .word Label_2_0158A159
 .byte   PATT
  .word Label_2_0158A1ED
 .byte   PATT
  .word Label_2_0158A159
 .byte   PATT
  .word Label_2_0158A1ED
 .byte   PATT
  .word Label_2_0158A159
 .byte   PATT
  .word Label_2_0158A1ED
 .byte   PATT
  .word Label_2_0158A159
 .byte   PATT
  .word Label_2_0158A1ED
 .byte   PATT
  .word Label_2_0158A159
 .byte   PATT
  .word Label_2_0158A1ED
 .byte   PATT
  .word Label_2_0158A159
 .byte   PATT
  .word Label_2_0158A1ED
 .byte   PATT
  .word Label_2_0158A159
 .byte   PATT
  .word Label_2_0158A1ED
 .byte   PATT
  .word Label_2_0158A159
 .byte   PATT
  .word Label_2_0158A1ED
 .byte   PATT
  .word Label_2_0158A159
 .byte   PATT
  .word Label_2_0158A1ED
 .byte   PATT
  .word Label_2_0158A159
@ 003   ----------------------------------------
 .byte   GOTO
  .word Label_2_0158A0C2
 .byte   FINE

@**************** Track 4 (Midi-Chn.3) ****************@

song09_004:
@ 000   ----------------------------------------
 .byte   KEYSH , song09_key+0
Label_3_0158A31A:
 .byte   VOICE , 48
 .byte   PAN , c_v+53
 .byte   VOL , 40*song09_mvl/mxv
 .byte   N21 ,Gn3 ,v068
 .byte   N21 ,Bn3 ,v100
 .byte   W01
 .byte   VOL , 40*song09_mvl/mxv
 .byte   W01
 .byte   En1
 .byte   W02
 .byte   En1
 .byte   W01
 .byte   Ds1
 .byte   W01
 .byte   Cs1
 .byte   W01
 .byte   Bn0
 .byte   W02
 .byte   Gs0
 .byte   W01
 .byte   Gn0
 .byte   W02
 .byte   Fn0
 .byte   W01
 .byte   Ds0
 .byte   W01
 .byte   Cs0
 .byte   W01
 .byte   BnM1
 .byte   W02
 .byte   AnM1
 .byte   W01
 .byte   GnM1
 .byte   W02
 .byte   FnM1
 .byte   W01
 .byte   DsM1
 .byte   W03
 .byte   En1
 .byte   N21 ,Gn3 ,v068
 .byte   N21 ,Bn3 ,v100
 .byte   W01
 .byte   VOL , 40*song09_mvl/mxv
 .byte   W01
 .byte   En1
 .byte   W02
 .byte   En1
 .byte   W01
 .byte   Ds1
 .byte   W01
 .byte   Cs1
 .byte   W01
 .byte   Bn0
 .byte   W02
 .byte   Gs0
 .byte   W01
 .byte   Gn0
 .byte   W02
 .byte   Fn0
 .byte   W01
 .byte   Ds0
 .byte   W01
 .byte   Cs0
 .byte   W01
 .byte   BnM1
 .byte   W02
 .byte   AnM1
 .byte   W01
 .byte   GnM1
 .byte   W02
 .byte   FnM1
 .byte   W01
 .byte   DsM1
 .byte   W03
 .byte   En1
 .byte   N21 ,Gn3 ,v068
 .byte   N21 ,Bn3 ,v100
 .byte   W01
 .byte   VOL , 40*song09_mvl/mxv
 .byte   W01
 .byte   En1
 .byte   W02
 .byte   En1
 .byte   W01
 .byte   Ds1
 .byte   W01
 .byte   Cs1
 .byte   W02
 .byte   Bn0
 .byte   W01
 .byte   Gs0
 .byte   W01
 .byte   Gn0
 .byte   W02
 .byte   Fn0
 .byte   W01
 .byte   Ds0
 .byte   W01
 .byte   Cs0
 .byte   W02
 .byte   BnM1
 .byte   W01
 .byte   AnM1
 .byte   W01
 .byte   GnM1
 .byte   W02
 .byte   FnM1
 .byte   W01
 .byte   DsM1
 .byte   W03
 .byte   En1
 .byte   N06 ,Gn3 ,v068
 .byte   N06 ,Bn3 ,v100
 .byte   W01
 .byte   VOL , 40*song09_mvl/mxv
 .byte   W01
 .byte   En1
 .byte   W02
 .byte   Dn1
 .byte   W01
 .byte   As0
 .byte   W03
 .byte   En1
 .byte   N06 ,Gn3 ,v068
 .byte   N06 ,Bn3 ,v100
 .byte   W01
 .byte   VOL , 40*song09_mvl/mxv
 .byte   W01
 .byte   En1
 .byte   W02
 .byte   Dn1
 .byte   W01
 .byte   As0
 .byte   W03
 .byte   En1
 .byte   N06 ,Gn3 ,v068
 .byte   N06 ,Bn3 ,v100
 .byte   W01
 .byte   VOL , 40*song09_mvl/mxv
 .byte   W01
 .byte   En1
 .byte   W02
 .byte   Dn1
 .byte   W01
 .byte   As0
 .byte   W03
@ 001   ----------------------------------------
Label_3_0158A3CD:
 .byte   VOL , 40*song09_mvl/mxv
 .byte   N21 ,Fn3 ,v068
 .byte   N21 ,An3 ,v100
 .byte   W01
 .byte   VOL , 40*song09_mvl/mxv
 .byte   W01
 .byte   En1
 .byte   W02
 .byte   En1
 .byte   W01
 .byte   Ds1
 .byte   W01
 .byte   Cs1
 .byte   W01
 .byte   Bn0
 .byte   W02
 .byte   Gs0
 .byte   W01
 .byte   Gn0
 .byte   W02
 .byte   Fn0
 .byte   W01
 .byte   Ds0
 .byte   W01
 .byte   Cs0
 .byte   W01
 .byte   BnM1
 .byte   W02
 .byte   AnM1
 .byte   W01
 .byte   GnM1
 .byte   W02
 .byte   FnM1
 .byte   W01
 .byte   DsM1
 .byte   W03
 .byte   En1
 .byte   N21 ,Fn3 ,v068
 .byte   N21 ,An3 ,v100
 .byte   W01
 .byte   VOL , 40*song09_mvl/mxv
 .byte   W01
 .byte   En1
 .byte   W02
 .byte   En1
 .byte   W01
 .byte   Ds1
 .byte   W01
 .byte   Cs1
 .byte   W01
 .byte   Bn0
 .byte   W02
 .byte   Gs0
 .byte   W01
 .byte   Gn0
 .byte   W02
 .byte   Fn0
 .byte   W01
 .byte   Ds0
 .byte   W01
 .byte   Cs0
 .byte   W01
 .byte   BnM1
 .byte   W02
 .byte   AnM1
 .byte   W01
 .byte   GnM1
 .byte   W02
 .byte   FnM1
 .byte   W01
 .byte   DsM1
 .byte   W03
 .byte   En1
 .byte   N21 ,Fn3 ,v068
 .byte   N21 ,An3 ,v100
 .byte   W01
 .byte   VOL , 40*song09_mvl/mxv
 .byte   W01
 .byte   En1
 .byte   W02
 .byte   En1
 .byte   W01
 .byte   Ds1
 .byte   W01
 .byte   Cs1
 .byte   W02
 .byte   Bn0
 .byte   W01
 .byte   Gs0
 .byte   W01
 .byte   Gn0
 .byte   W02
 .byte   Fn0
 .byte   W01
 .byte   Ds0
 .byte   W01
 .byte   Cs0
 .byte   W02
 .byte   BnM1
 .byte   W01
 .byte   AnM1
 .byte   W01
 .byte   GnM1
 .byte   W02
 .byte   FnM1
 .byte   W01
 .byte   DsM1
 .byte   W03
 .byte   En1
 .byte   N06 ,Fn3 ,v068
 .byte   N06 ,An3 ,v100
 .byte   W01
 .byte   VOL , 40*song09_mvl/mxv
 .byte   W01
 .byte   En1
 .byte   W02
 .byte   Dn1
 .byte   W01
 .byte   As0
 .byte   W03
 .byte   En1
 .byte   N06 ,Fn3 ,v068
 .byte   N06 ,An3 ,v100
 .byte   W01
 .byte   VOL , 40*song09_mvl/mxv
 .byte   W01
 .byte   En1
 .byte   W02
 .byte   Dn1
 .byte   W01
 .byte   As0
 .byte   W03
 .byte   En1
 .byte   N06 ,Fn3 ,v068
 .byte   N06 ,An3 ,v100
 .byte   W01
 .byte   VOL , 40*song09_mvl/mxv
 .byte   W01
 .byte   En1
 .byte   W02
 .byte   Dn1
 .byte   W01
 .byte   As0
 .byte   W03
 .byte   PEND 
@ 002   ----------------------------------------
Label_3_0158A47D:
 .byte   VOL , 40*song09_mvl/mxv
 .byte   N21 ,Gn3 ,v068
 .byte   N21 ,Bn3 ,v100
 .byte   W01
 .byte   VOL , 40*song09_mvl/mxv
 .byte   W01
 .byte   En1
 .byte   W02
 .byte   En1
 .byte   W01
 .byte   Ds1
 .byte   W01
 .byte   Cs1
 .byte   W01
 .byte   Bn0
 .byte   W02
 .byte   Gs0
 .byte   W01
 .byte   Gn0
 .byte   W02
 .byte   Fn0
 .byte   W01
 .byte   Ds0
 .byte   W01
 .byte   Cs0
 .byte   W01
 .byte   BnM1
 .byte   W02
 .byte   AnM1
 .byte   W01
 .byte   GnM1
 .byte   W02
 .byte   FnM1
 .byte   W01
 .byte   DsM1
 .byte   W03
 .byte   En1
 .byte   N21 ,Gn3 ,v068
 .byte   N21 ,Bn3 ,v100
 .byte   W01
 .byte   VOL , 40*song09_mvl/mxv
 .byte   W01
 .byte   En1
 .byte   W02
 .byte   En1
 .byte   W01
 .byte   Ds1
 .byte   W01
 .byte   Cs1
 .byte   W01
 .byte   Bn0
 .byte   W02
 .byte   Gs0
 .byte   W01
 .byte   Gn0
 .byte   W02
 .byte   Fn0
 .byte   W01
 .byte   Ds0
 .byte   W01
 .byte   Cs0
 .byte   W01
 .byte   BnM1
 .byte   W02
 .byte   AnM1
 .byte   W01
 .byte   GnM1
 .byte   W02
 .byte   FnM1
 .byte   W01
 .byte   DsM1
 .byte   W03
 .byte   En1
 .byte   N21 ,Gn3 ,v068
 .byte   N21 ,Bn3 ,v100
 .byte   W01
 .byte   VOL , 40*song09_mvl/mxv
 .byte   W01
 .byte   En1
 .byte   W02
 .byte   En1
 .byte   W01
 .byte   Ds1
 .byte   W01
 .byte   Cs1
 .byte   W02
 .byte   Bn0
 .byte   W01
 .byte   Gs0
 .byte   W01
 .byte   Gn0
 .byte   W02
 .byte   Fn0
 .byte   W01
 .byte   Ds0
 .byte   W01
 .byte   Cs0
 .byte   W02
 .byte   BnM1
 .byte   W01
 .byte   AnM1
 .byte   W01
 .byte   GnM1
 .byte   W02
 .byte   FnM1
 .byte   W01
 .byte   DsM1
 .byte   W03
 .byte   En1
 .byte   N06 ,Gn3 ,v068
 .byte   N06 ,Bn3 ,v100
 .byte   W01
 .byte   VOL , 40*song09_mvl/mxv
 .byte   W01
 .byte   En1
 .byte   W02
 .byte   Dn1
 .byte   W01
 .byte   As0
 .byte   W03
 .byte   En1
 .byte   N06 ,Gn3 ,v068
 .byte   N06 ,Bn3 ,v100
 .byte   W01
 .byte   VOL , 40*song09_mvl/mxv
 .byte   W01
 .byte   En1
 .byte   W02
 .byte   Dn1
 .byte   W01
 .byte   As0
 .byte   W03
 .byte   En1
 .byte   N06 ,Gn3 ,v068
 .byte   N06 ,Bn3 ,v100
 .byte   W01
 .byte   VOL , 40*song09_mvl/mxv
 .byte   W01
 .byte   En1
 .byte   W02
 .byte   Dn1
 .byte   W01
 .byte   As0
 .byte   W03
 .byte   PEND 
 .byte   PATT
  .word Label_3_0158A3CD
 .byte   PATT
  .word Label_3_0158A47D
 .byte   PATT
  .word Label_3_0158A3CD
 .byte   PATT
  .word Label_3_0158A47D
 .byte   PATT
  .word Label_3_0158A3CD
 .byte   PATT
  .word Label_3_0158A47D
 .byte   PATT
  .word Label_3_0158A3CD
 .byte   PATT
  .word Label_3_0158A47D
 .byte   PATT
  .word Label_3_0158A3CD
 .byte   PATT
  .word Label_3_0158A47D
 .byte   PATT
  .word Label_3_0158A3CD
 .byte   PATT
  .word Label_3_0158A47D
 .byte   PATT
  .word Label_3_0158A3CD
 .byte   PATT
  .word Label_3_0158A47D
 .byte   PATT
  .word Label_3_0158A3CD
 .byte   PATT
  .word Label_3_0158A47D
 .byte   PATT
  .word Label_3_0158A3CD
 .byte   PATT
  .word Label_3_0158A47D
 .byte   PATT
  .word Label_3_0158A3CD
 .byte   PATT
  .word Label_3_0158A47D
 .byte   PATT
  .word Label_3_0158A3CD
 .byte   PATT
  .word Label_3_0158A47D
 .byte   PATT
  .word Label_3_0158A3CD
 .byte   PATT
  .word Label_3_0158A47D
 .byte   PATT
  .word Label_3_0158A3CD
 .byte   PATT
  .word Label_3_0158A47D
 .byte   PATT
  .word Label_3_0158A3CD
 .byte   PATT
  .word Label_3_0158A47D
 .byte   PATT
  .word Label_3_0158A3CD
@ 003   ----------------------------------------
 .byte   GOTO
  .word Label_3_0158A31A
 .byte   FINE

@**************** Track 5 (Midi-Chn.4) ****************@

song09_005:
@ 000   ----------------------------------------
 .byte   VOL , 40*song09_mvl/mxv
 .byte   KEYSH , song09_key+0
Label_4_0158A5C8:
 .byte   VOICE , 60
 .byte   PAN , c_v+53
 .byte   W12
 .byte   N06 ,Gn4 ,v096
 .byte   W24
 .byte   N06
 .byte   W24
 .byte   N06
 .byte   W12
 .byte   N06
 .byte   W06
 .byte   An4
 .byte   W06
 .byte   Bn4
 .byte   W06
 .byte   Cn5
 .byte   W06
@ 001   ----------------------------------------
Label_4_0158A5DD:
 .byte   N24 ,An4 ,v096
 .byte   W24
 .byte   Gn4
 .byte   W24
 .byte   Fn4
 .byte   W24
 .byte   Gn4
 .byte   W24
 .byte   PEND 
@ 002   ----------------------------------------
Label_4_0158A5E8:
 .byte   W12
 .byte   N06 ,Bn4 ,v096
 .byte   W12
 .byte   N06
 .byte   W12
 .byte   N06
 .byte   W06
 .byte   An4
 .byte   W06
 .byte   N12 ,Bn4
 .byte   W12
 .byte   Gn4
 .byte   W12
 .byte   An4
 .byte   W12
 .byte   Bn4
 .byte   W12
 .byte   PEND 
@ 003   ----------------------------------------
Label_4_0158A5FD:
 .byte   W12
 .byte   N06 ,Cn5 ,v096
 .byte   W12
 .byte   N03 ,Bn4
 .byte   W03
 .byte   Cn5
 .byte   W03
 .byte   N06 ,Bn4
 .byte   W06
 .byte   N12 ,An4
 .byte   W12
 .byte   Gn4
 .byte   W12
 .byte   Fn4
 .byte   W12
 .byte   En4
 .byte   W12
 .byte   Fn4
 .byte   W12
 .byte   PEND 
@ 004   ----------------------------------------
Label_4_0158A616:
 .byte   W12
 .byte   N06 ,Gn4 ,v096
 .byte   W12
 .byte   N06
 .byte   W12
 .byte   N06
 .byte   W06
 .byte   N06
 .byte   W06
 .byte   N12 ,Dn5
 .byte   W12
 .byte   Cn5
 .byte   W12
 .byte   Bn4
 .byte   W12
 .byte   Cn5
 .byte   W12
 .byte   PEND 
@ 005   ----------------------------------------
Label_4_0158A62B:
 .byte   N06 ,An4 ,v096
 .byte   W12
 .byte   N06
 .byte   W06
 .byte   Bn4
 .byte   W06
 .byte   N72 ,Cn5
 .byte   W72
 .byte   PEND 
@ 006   ----------------------------------------
Label_4_0158A637:
 .byte   N06 ,Bn4 ,v096
 .byte   W12
 .byte   N06
 .byte   W06
 .byte   Cn5
 .byte   W06
 .byte   N36 ,Dn5
 .byte   W36
 .byte   N06 ,Bn4
 .byte   W12
 .byte   Cn5
 .byte   W12
 .byte   Dn5
 .byte   W12
 .byte   PEND 
@ 007   ----------------------------------------
Label_4_0158A64A:
 .byte   N06 ,Cn5 ,v096
 .byte   W12
 .byte   An4
 .byte   W06
 .byte   Bn4
 .byte   W06
 .byte   Cn5
 .byte   W12
 .byte   En5
 .byte   W12
 .byte   Fn5
 .byte   W12
 .byte   N03 ,En5
 .byte   W03
 .byte   Fn5
 .byte   W03
 .byte   N06 ,En5
 .byte   W06
 .byte   N18 ,Dn5
 .byte   W18
 .byte   N06 ,Cn5
 .byte   W06
 .byte   PEND 
@ 008   ----------------------------------------
Label_4_0158A667:
 .byte   W12
 .byte   N06 ,Gn4 ,v096
 .byte   W24
 .byte   N06
 .byte   W24
 .byte   N06
 .byte   W12
 .byte   N06
 .byte   W06
 .byte   An4
 .byte   W06
 .byte   Bn4
 .byte   W06
 .byte   Cn5
 .byte   W06
 .byte   PEND 
 .byte   PATT
  .word Label_4_0158A5DD
 .byte   PATT
  .word Label_4_0158A5E8
 .byte   PATT
  .word Label_4_0158A5FD
 .byte   PATT
  .word Label_4_0158A616
 .byte   PATT
  .word Label_4_0158A62B
 .byte   PATT
  .word Label_4_0158A637
 .byte   PATT
  .word Label_4_0158A64A
 .byte   PATT
  .word Label_4_0158A667
 .byte   PATT
  .word Label_4_0158A5DD
 .byte   PATT
  .word Label_4_0158A5E8
 .byte   PATT
  .word Label_4_0158A5FD
 .byte   PATT
  .word Label_4_0158A616
 .byte   PATT
  .word Label_4_0158A62B
 .byte   PATT
  .word Label_4_0158A637
 .byte   PATT
  .word Label_4_0158A64A
 .byte   PATT
  .word Label_4_0158A667
 .byte   PATT
  .word Label_4_0158A5DD
 .byte   PATT
  .word Label_4_0158A5E8
 .byte   PATT
  .word Label_4_0158A5FD
 .byte   PATT
  .word Label_4_0158A616
 .byte   PATT
  .word Label_4_0158A62B
 .byte   PATT
  .word Label_4_0158A637
 .byte   PATT
  .word Label_4_0158A64A
@ 009   ----------------------------------------
 .byte   GOTO
  .word Label_4_0158A5C8
 .byte   FINE

@**************** Track 6 (Midi-Chn.5) ****************@

song09_006:
@ 000   ----------------------------------------
 .byte   KEYSH , song09_key+0
Label_5_0158A6F6:
 .byte   VOICE , 47
 .byte   VOL , 40*song09_mvl/mxv
 .byte   PAN , c_v+0
 .byte   N24 ,Gn1 ,v100
 .byte   W01
 .byte   VOL , 38*song09_mvl/mxv
 .byte   W01
 .byte   Cn1
 .byte   W02
 .byte   Bn0
 .byte   W01
 .byte   An0
 .byte   W02
 .byte   Gn0
 .byte   W01
 .byte   Fn0
 .byte   W01
 .byte   En0
 .byte   W02
 .byte   Dn0
 .byte   W01
 .byte   Cn0
 .byte   W01
 .byte   Cn0
 .byte   W01
 .byte   BnM1
 .byte   W02
 .byte   AsM1
 .byte   W01
 .byte   GsM1
 .byte   W01
 .byte   GsM1
 .byte   W02
 .byte   GnM1
 .byte   W01
 .byte   FnM1
 .byte   W01
 .byte   EnM1
 .byte   W02
 .byte   En1
 .byte   N24 ,Dn1
 .byte   W01
 .byte   VOL , 38*song09_mvl/mxv
 .byte   W01
 .byte   Cn1
 .byte   W02
 .byte   Bn0
 .byte   W01
 .byte   An0
 .byte   W02
 .byte   Gn0
 .byte   W01
 .byte   Fn0
 .byte   W01
 .byte   En0
 .byte   W02
 .byte   Dn0
 .byte   W01
 .byte   Cn0
 .byte   W01
 .byte   Cn0
 .byte   W01
 .byte   BnM1
 .byte   W02
 .byte   AsM1
 .byte   W01
 .byte   GsM1
 .byte   W01
 .byte   GsM1
 .byte   W02
 .byte   GnM1
 .byte   W01
 .byte   FnM1
 .byte   W01
 .byte   EnM1
 .byte   W02
 .byte   En1
 .byte   N24 ,Gn1
 .byte   W01
 .byte   VOL , 38*song09_mvl/mxv
 .byte   W01
 .byte   Cn1
 .byte   W02
 .byte   Bn0
 .byte   W01
 .byte   An0
 .byte   W02
 .byte   Gn0
 .byte   W01
 .byte   Fn0
 .byte   W01
 .byte   En0
 .byte   W02
 .byte   Dn0
 .byte   W01
 .byte   Cn0
 .byte   W01
 .byte   Cn0
 .byte   W01
 .byte   BnM1
 .byte   W02
 .byte   AsM1
 .byte   W01
 .byte   GsM1
 .byte   W01
 .byte   GsM1
 .byte   W02
 .byte   GnM1
 .byte   W01
 .byte   FnM1
 .byte   W01
 .byte   EnM1
 .byte   W02
 .byte   En1
 .byte   N24 ,Dn1
 .byte   W01
 .byte   VOL , 38*song09_mvl/mxv
 .byte   W01
 .byte   Cn1
 .byte   W02
 .byte   Bn0
 .byte   W01
 .byte   An0
 .byte   W02
 .byte   Gn0
 .byte   W01
 .byte   Fn0
 .byte   W01
 .byte   En0
 .byte   W02
 .byte   Dn0
 .byte   W01
 .byte   Cn0
 .byte   W01
 .byte   Cn0
 .byte   W01
 .byte   BnM1
 .byte   W02
 .byte   AsM1
 .byte   W01
 .byte   GsM1
 .byte   W01
 .byte   GsM1
 .byte   W02
 .byte   GnM1
 .byte   W01
 .byte   FnM1
 .byte   W01
 .byte   EnM1
 .byte   W02
@ 001   ----------------------------------------
Label_5_0158A798:
 .byte   VOL , 40*song09_mvl/mxv
 .byte   N24 ,Fn1 ,v100
 .byte   W01
 .byte   VOL , 38*song09_mvl/mxv
 .byte   W01
 .byte   Cn1
 .byte   W02
 .byte   Bn0
 .byte   W01
 .byte   An0
 .byte   W02
 .byte   Gn0
 .byte   W01
 .byte   Fn0
 .byte   W01
 .byte   En0
 .byte   W02
 .byte   Dn0
 .byte   W01
 .byte   Cn0
 .byte   W01
 .byte   Cn0
 .byte   W01
 .byte   BnM1
 .byte   W02
 .byte   AsM1
 .byte   W01
 .byte   GsM1
 .byte   W01
 .byte   GsM1
 .byte   W02
 .byte   GnM1
 .byte   W01
 .byte   FnM1
 .byte   W01
 .byte   EnM1
 .byte   W02
 .byte   En1
 .byte   N24 ,Cn1
 .byte   W01
 .byte   VOL , 38*song09_mvl/mxv
 .byte   W01
 .byte   Cn1
 .byte   W02
 .byte   Bn0
 .byte   W01
 .byte   An0
 .byte   W02
 .byte   Gn0
 .byte   W01
 .byte   Fn0
 .byte   W01
 .byte   En0
 .byte   W02
 .byte   Dn0
 .byte   W01
 .byte   Cn0
 .byte   W01
 .byte   Cn0
 .byte   W01
 .byte   BnM1
 .byte   W02
 .byte   AsM1
 .byte   W01
 .byte   GsM1
 .byte   W01
 .byte   GsM1
 .byte   W02
 .byte   GnM1
 .byte   W01
 .byte   FnM1
 .byte   W01
 .byte   EnM1
 .byte   W02
 .byte   En1
 .byte   N24 ,Fn1
 .byte   W01
 .byte   VOL , 38*song09_mvl/mxv
 .byte   W01
 .byte   Cn1
 .byte   W02
 .byte   Bn0
 .byte   W01
 .byte   An0
 .byte   W02
 .byte   Gn0
 .byte   W01
 .byte   Fn0
 .byte   W01
 .byte   En0
 .byte   W02
 .byte   Dn0
 .byte   W01
 .byte   Cn0
 .byte   W01
 .byte   Cn0
 .byte   W01
 .byte   BnM1
 .byte   W02
 .byte   AsM1
 .byte   W01
 .byte   GsM1
 .byte   W01
 .byte   GsM1
 .byte   W02
 .byte   GnM1
 .byte   W01
 .byte   FnM1
 .byte   W01
 .byte   EnM1
 .byte   W02
 .byte   En1
 .byte   N24 ,Cn1
 .byte   W01
 .byte   VOL , 38*song09_mvl/mxv
 .byte   W01
 .byte   Cn1
 .byte   W02
 .byte   Bn0
 .byte   W01
 .byte   An0
 .byte   W02
 .byte   Gn0
 .byte   W01
 .byte   Fn0
 .byte   W01
 .byte   En0
 .byte   W02
 .byte   Dn0
 .byte   W01
 .byte   Cn0
 .byte   W01
 .byte   Cn0
 .byte   W01
 .byte   BnM1
 .byte   W02
 .byte   AsM1
 .byte   W01
 .byte   GsM1
 .byte   W01
 .byte   GsM1
 .byte   W02
 .byte   GnM1
 .byte   W01
 .byte   FnM1
 .byte   W01
 .byte   EnM1
 .byte   W02
 .byte   PEND 
@ 002   ----------------------------------------
Label_5_0158A837:
 .byte   VOL , 40*song09_mvl/mxv
 .byte   N24 ,Gn1 ,v100
 .byte   W01
 .byte   VOL , 38*song09_mvl/mxv
 .byte   W01
 .byte   Cn1
 .byte   W02
 .byte   Bn0
 .byte   W01
 .byte   An0
 .byte   W02
 .byte   Gn0
 .byte   W01
 .byte   Fn0
 .byte   W01
 .byte   En0
 .byte   W02
 .byte   Dn0
 .byte   W01
 .byte   Cn0
 .byte   W01
 .byte   Cn0
 .byte   W01
 .byte   BnM1
 .byte   W02
 .byte   AsM1
 .byte   W01
 .byte   GsM1
 .byte   W01
 .byte   GsM1
 .byte   W02
 .byte   GnM1
 .byte   W01
 .byte   FnM1
 .byte   W01
 .byte   EnM1
 .byte   W02
 .byte   En1
 .byte   N24 ,Dn1
 .byte   W01
 .byte   VOL , 38*song09_mvl/mxv
 .byte   W01
 .byte   Cn1
 .byte   W02
 .byte   Bn0
 .byte   W01
 .byte   An0
 .byte   W02
 .byte   Gn0
 .byte   W01
 .byte   Fn0
 .byte   W01
 .byte   En0
 .byte   W02
 .byte   Dn0
 .byte   W01
 .byte   Cn0
 .byte   W01
 .byte   Cn0
 .byte   W01
 .byte   BnM1
 .byte   W02
 .byte   AsM1
 .byte   W01
 .byte   GsM1
 .byte   W01
 .byte   GsM1
 .byte   W02
 .byte   GnM1
 .byte   W01
 .byte   FnM1
 .byte   W01
 .byte   EnM1
 .byte   W02
 .byte   En1
 .byte   N24 ,Gn1
 .byte   W01
 .byte   VOL , 38*song09_mvl/mxv
 .byte   W01
 .byte   Cn1
 .byte   W02
 .byte   Bn0
 .byte   W01
 .byte   An0
 .byte   W02
 .byte   Gn0
 .byte   W01
 .byte   Fn0
 .byte   W01
 .byte   En0
 .byte   W02
 .byte   Dn0
 .byte   W01
 .byte   Cn0
 .byte   W01
 .byte   Cn0
 .byte   W01
 .byte   BnM1
 .byte   W02
 .byte   AsM1
 .byte   W01
 .byte   GsM1
 .byte   W01
 .byte   GsM1
 .byte   W02
 .byte   GnM1
 .byte   W01
 .byte   FnM1
 .byte   W01
 .byte   EnM1
 .byte   W02
 .byte   En1
 .byte   N24 ,Dn1
 .byte   W01
 .byte   VOL , 38*song09_mvl/mxv
 .byte   W01
 .byte   Cn1
 .byte   W02
 .byte   Bn0
 .byte   W01
 .byte   An0
 .byte   W02
 .byte   Gn0
 .byte   W01
 .byte   Fn0
 .byte   W01
 .byte   En0
 .byte   W02
 .byte   Dn0
 .byte   W01
 .byte   Cn0
 .byte   W01
 .byte   Cn0
 .byte   W01
 .byte   BnM1
 .byte   W02
 .byte   AsM1
 .byte   W01
 .byte   GsM1
 .byte   W01
 .byte   GsM1
 .byte   W02
 .byte   GnM1
 .byte   W01
 .byte   FnM1
 .byte   W01
 .byte   EnM1
 .byte   W02
 .byte   PEND 
 .byte   PATT
  .word Label_5_0158A798
 .byte   PATT
  .word Label_5_0158A837
 .byte   PATT
  .word Label_5_0158A798
 .byte   PATT
  .word Label_5_0158A837
 .byte   PATT
  .word Label_5_0158A798
 .byte   PATT
  .word Label_5_0158A837
 .byte   PATT
  .word Label_5_0158A798
 .byte   PATT
  .word Label_5_0158A837
 .byte   PATT
  .word Label_5_0158A798
 .byte   PATT
  .word Label_5_0158A837
 .byte   PATT
  .word Label_5_0158A798
 .byte   PATT
  .word Label_5_0158A837
 .byte   PATT
  .word Label_5_0158A798
 .byte   PATT
  .word Label_5_0158A837
 .byte   PATT
  .word Label_5_0158A798
 .byte   PATT
  .word Label_5_0158A837
 .byte   PATT
  .word Label_5_0158A798
 .byte   PATT
  .word Label_5_0158A837
 .byte   PATT
  .word Label_5_0158A798
 .byte   PATT
  .word Label_5_0158A837
 .byte   PATT
  .word Label_5_0158A798
 .byte   PATT
  .word Label_5_0158A837
 .byte   PATT
  .word Label_5_0158A798
 .byte   PATT
  .word Label_5_0158A837
 .byte   PATT
  .word Label_5_0158A798
 .byte   PATT
  .word Label_5_0158A837
 .byte   PATT
  .word Label_5_0158A798
 .byte   PATT
  .word Label_5_0158A837
 .byte   PATT
  .word Label_5_0158A798
@ 003   ----------------------------------------
 .byte   GOTO
  .word Label_5_0158A6F6
 .byte   FINE

@**************** Track 7 (Midi-Chn.6) ****************@

song09_007:
@ 000   ----------------------------------------
 .byte   VOL , 40*song09_mvl/mxv
 .byte   KEYSH , song09_key+0
Label_6_0158A974:
 .byte   VOICE , 127
 .byte   PAN , c_v+26
 .byte   N06 ,En1 ,v088
 .byte   W24
 .byte   N06
 .byte   W24
 .byte   N06
 .byte   W24
 .byte   N06
 .byte   W08
 .byte   N06
 .byte   W08
 .byte   N06
 .byte   W08
@ 001   ----------------------------------------
Label_6_0158A986:
 .byte   N06 ,En1 ,v088
 .byte   W24
 .byte   N06
 .byte   W24
 .byte   N06
 .byte   W24
 .byte   N06
 .byte   W08
 .byte   N06
 .byte   W08
 .byte   N06
 .byte   W08
 .byte   PEND 
 .byte   PATT
  .word Label_6_0158A986
 .byte   PATT
  .word Label_6_0158A986
 .byte   PATT
  .word Label_6_0158A986
 .byte   PATT
  .word Label_6_0158A986
 .byte   PATT
  .word Label_6_0158A986
 .byte   PATT
  .word Label_6_0158A986
 .byte   PATT
  .word Label_6_0158A986
 .byte   PATT
  .word Label_6_0158A986
 .byte   PATT
  .word Label_6_0158A986
 .byte   PATT
  .word Label_6_0158A986
 .byte   PATT
  .word Label_6_0158A986
 .byte   PATT
  .word Label_6_0158A986
 .byte   PATT
  .word Label_6_0158A986
 .byte   PATT
  .word Label_6_0158A986
 .byte   PATT
  .word Label_6_0158A986
 .byte   PATT
  .word Label_6_0158A986
 .byte   PATT
  .word Label_6_0158A986
 .byte   PATT
  .word Label_6_0158A986
 .byte   PATT
  .word Label_6_0158A986
 .byte   PATT
  .word Label_6_0158A986
 .byte   PATT
  .word Label_6_0158A986
 .byte   PATT
  .word Label_6_0158A986
 .byte   PATT
  .word Label_6_0158A986
 .byte   PATT
  .word Label_6_0158A986
 .byte   PATT
  .word Label_6_0158A986
 .byte   PATT
  .word Label_6_0158A986
 .byte   PATT
  .word Label_6_0158A986
 .byte   PATT
  .word Label_6_0158A986
 .byte   PATT
  .word Label_6_0158A986
 .byte   PATT
  .word Label_6_0158A986
@ 002   ----------------------------------------
 .byte   GOTO
  .word Label_6_0158A974
 .byte   FINE

@******************************************************@
	.align	2

song09:
	.byte	7	@ NumTrks
	.byte	0	@ NumBlks
	.byte	song09_pri	@ Priority
	.byte	song09_rev	@ Reverb.
    
	.word	song09_grp
    
	.word	song09_001
	.word	song09_002
	.word	song09_003
	.word	song09_004
	.word	song09_005
	.word	song09_006
	.word	song09_007

	.end
