	.include "MPlayDef.s"

	.equ	song2E_grp, voicegroup000
	.equ	song2E_pri, 0
	.equ	song2E_rev, 0
	.equ	song2E_mvl, 127
	.equ	song2E_key, 0
	.equ	song2E_tbs, 1
	.equ	song2E_exg, 0
	.equ	song2E_cmp, 1

	.section .rodata
	.global	song2E
	.align	2


@**************** Track 1 (Midi-Chn.0) ****************@

song2E_001:
@ 000   ----------------------------------------
 .byte   KEYSH , song2E_key+0
 .byte   TEMPO , 54*song2E_tbs/2
 .byte   Ds1
 .byte   VOL , 49*song2E_mvl/mxv
 .byte   PAN , c_v+32
 .byte   W96
@ 001   ----------------------------------------
 .byte   W84
Label_0_0134E818:
 .byte   W01
 .byte   VOICE , 57
 .byte   Cs8
 .byte   PAN , c_v+0
 .byte   VOL , 51*song2E_mvl/mxv
 .byte   BEND , c_v+0
 .byte   N19 ,Dn3 ,v100
 .byte   W11
@ 002   ----------------------------------------
 .byte   W08
 .byte   BEND , c_v+0
 .byte   W01
 .byte   En3
 .byte   N19 ,Dn4
 .byte   W18
 .byte   W01
 .byte   BEND , c_v+0
 .byte   W01
 .byte   En3
 .byte   N19 ,Cn4
 .byte   W18
 .byte   W01
 .byte   BEND , c_v+0
 .byte   W01
 .byte   En3
 .byte   N19 ,As3
 .byte   W18
 .byte   W01
 .byte   W01
 .byte   BEND , c_v+0
 .byte   N09 ,An3
 .byte   W09
 .byte   W01
 .byte   Cn4
 .byte   W09
 .byte   W01
 .byte   N19 ,As3
 .byte   W07
@ 003   ----------------------------------------
 .byte   W12
 .byte   W01
 .byte   BEND , c_v+0
 .byte   N19 ,Gn3
 .byte   W19
 .byte   W01
 .byte   BEND , c_v+0
 .byte   N19 ,Dn4
 .byte   W19
 .byte   W01
 .byte   BEND , c_v+0
 .byte   N36 ,Gn3
 .byte   W20
 .byte   BEND , c_v+0
 .byte   W02
 .byte   En3
 .byte   W03
 .byte   En3
 .byte   W03
 .byte   En3
 .byte   W02
 .byte   En3
 .byte   W03
 .byte   En3
 .byte   W02
 .byte   En3
 .byte   W03
 .byte   En3
 .byte   W01
 .byte   W01
 .byte   N04 ,Cn4
 .byte   W03
@ 004   ----------------------------------------
 .byte   W01
 .byte   W01
 .byte   Dn4
 .byte   W04
 .byte   W01
 .byte   Ds4
 .byte   W04
 .byte   W01
 .byte   Fn4
 .byte   W04
 .byte   W01
 .byte   N36 ,Gn4
 .byte   W20
 .byte   BEND , c_v+0
 .byte   W03
 .byte   En3
 .byte   W02
 .byte   En3
 .byte   W03
 .byte   En3
 .byte   W02
 .byte   En3
 .byte   W03
 .byte   En3
 .byte   W03
 .byte   En3
 .byte   W02
 .byte   En3
 .byte   W01
 .byte   W01
 .byte   N19 ,Fn4
 .byte   W19
 .byte   W01
 .byte   BEND , c_v+0
 .byte   N09 ,Ds4
 .byte   W09
 .byte   W01
 .byte   Cn4
 .byte   W09
@ 005   ----------------------------------------
 .byte   W01
 .byte   W01
 .byte   TIE ,Bn3
 .byte   W19
 .byte   BEND , c_v+0
 .byte   W03
 .byte   En3
 .byte   W03
 .byte   En3
 .byte   W02
 .byte   En3
 .byte   W03
 .byte   En3
 .byte   W02
 .byte   En3
 .byte   W03
 .byte   En3
 .byte   W03
 .byte   En3
 .byte   W02
 .byte   En3
 .byte   W03
 .byte   En3
 .byte   W02
 .byte   En3
 .byte   W03
 .byte   En3
 .byte   W03
 .byte   Fn3
 .byte   W02
 .byte   En3
 .byte   W03
 .byte   Fn3
 .byte   W02
 .byte   En3
 .byte   W03
 .byte   Fn3
 .byte   W03
 .byte   En3
 .byte   W02
 .byte   Fn3
 .byte   W03
 .byte   En3
 .byte   W02
 .byte   Fn3
 .byte   W03
 .byte   En3
 .byte   W03
 .byte   Fn3
 .byte   W02
 .byte   En3
 .byte   W03
 .byte   Fn3
 .byte   W02
 .byte   En3
 .byte   W03
 .byte   Fn3
 .byte   W03
 .byte   En3
 .byte   W02
 .byte   Fn3
 .byte   W02
@ 006   ----------------------------------------
 .byte   W01
 .byte   En3
 .byte   W03
 .byte   Fn3
 .byte   W02
 .byte   En3
 .byte   W03
 .byte   Fn3
 .byte   W02
 .byte   En3
 .byte   W03
 .byte   Fn3
 .byte   W03
 .byte   En3
 .byte   W02
 .byte   Fn3
 .byte   W01
 .byte   W01
 .byte   W01
 .byte   En3
 .byte   W01
 .byte   W01
 .byte   Fn3
 .byte   W01
 .byte   W01
 .byte   EOT
 .byte   W60
 .byte   BEND , c_v+0
 .byte   N19 ,Dn3
 .byte   W10
@ 007   ----------------------------------------
 .byte   W09
 .byte   W01
 .byte   BEND , c_v+0
 .byte   N19 ,Dn4
 .byte   W19
 .byte   W01
 .byte   BEND , c_v+0
 .byte   N19 ,Cn4
 .byte   W19
 .byte   W01
 .byte   BEND , c_v+0
 .byte   N19 ,As3
 .byte   W19
 .byte   W01
 .byte   BEND , c_v+0
 .byte   N09 ,An3
 .byte   W09
 .byte   W01
 .byte   Cn4
 .byte   W09
 .byte   W01
 .byte   N19 ,As3
 .byte   W06
@ 008   ----------------------------------------
 .byte   W13
 .byte   W01
 .byte   BEND , c_v+0
 .byte   N19 ,Gn3
 .byte   W19
 .byte   W01
 .byte   BEND , c_v+0
 .byte   N19 ,Dn4
 .byte   W19
 .byte   W01
 .byte   BEND , c_v+0
 .byte   N36 ,Gn3
 .byte   W20
 .byte   BEND , c_v+0
 .byte   W03
 .byte   En3
 .byte   W02
 .byte   En3
 .byte   W03
 .byte   En3
 .byte   W02
 .byte   En3
 .byte   W03
 .byte   En3
 .byte   W03
 .byte   En3
 .byte   W02
 .byte   En3
 .byte   W01
 .byte   W01
 .byte   N04 ,Cn4
 .byte   W02
@ 009   ----------------------------------------
 .byte   W03
 .byte   Dn4
 .byte   W05
 .byte   Ds4
 .byte   W05
 .byte   Fn4
 .byte   W05
 .byte   W01
 .byte   N36 ,Gn4
 .byte   W19
 .byte   BEND , c_v+0
 .byte   W03
 .byte   En3
 .byte   W03
 .byte   En3
 .byte   W02
 .byte   En3
 .byte   W03
 .byte   En3
 .byte   W02
 .byte   En3
 .byte   W03
 .byte   En3
 .byte   W02
 .byte   W01
 .byte   En3
 .byte   W01
 .byte   W01
 .byte   N19 ,Fn4
 .byte   W18
 .byte   W01
 .byte   BEND , c_v+0
 .byte   W01
 .byte   En3
 .byte   N09 ,Ds4
 .byte   W09
 .byte   W01
 .byte   Cn4
 .byte   W07
@ 010   ----------------------------------------
 .byte   W02
 .byte   W01
 .byte   TIE ,Bn3
 .byte   W20
 .byte   BEND , c_v+0
 .byte   W02
 .byte   En3
 .byte   W03
 .byte   En3
 .byte   W02
 .byte   En3
 .byte   W03
 .byte   En3
 .byte   W03
 .byte   En3
 .byte   W02
 .byte   En3
 .byte   W03
 .byte   En3
 .byte   W02
 .byte   En3
 .byte   W03
 .byte   En3
 .byte   W03
 .byte   En3
 .byte   W02
 .byte   En3
 .byte   W03
 .byte   Fn3
 .byte   W02
 .byte   En3
 .byte   W03
 .byte   Fn3
 .byte   W03
 .byte   En3
 .byte   W02
 .byte   Fn3
 .byte   W03
 .byte   En3
 .byte   W02
 .byte   Fn3
 .byte   W03
 .byte   En3
 .byte   W03
 .byte   Fn3
 .byte   W02
 .byte   En3
 .byte   W03
 .byte   Fn3
 .byte   W02
 .byte   En3
 .byte   W03
 .byte   Fn3
 .byte   W03
 .byte   En3
 .byte   W02
 .byte   Fn3
 .byte   W03
 .byte   En3
 .byte   W02
 .byte   Fn3
 .byte   W01
@ 011   ----------------------------------------
 .byte   W02
 .byte   En3
 .byte   W03
 .byte   Fn3
 .byte   W02
 .byte   En3
 .byte   W03
 .byte   Fn3
 .byte   W02
 .byte   En3
 .byte   W03
 .byte   Fn3
 .byte   W03
 .byte   En3
 .byte   W02
 .byte   Fn3
 .byte   W01
 .byte   W01
 .byte   W01
 .byte   En3
 .byte   W01
 .byte   W01
 .byte   Bn2
 .byte   W01
 .byte   EOT
 .byte   BEND , c_v+1
 .byte   W40
 .byte   W01
 .byte   En3
 .byte   N09 ,Fn4
 .byte   W09
 .byte   W01
 .byte   N03 ,Dn4
 .byte   W03
 .byte   W04
 .byte   Fn4
 .byte   W03
 .byte   W01
 .byte   N09
 .byte   W08
@ 012   ----------------------------------------
 .byte   W01
 .byte   W01
 .byte   N03 ,Dn4
 .byte   W02
 .byte   W01
 .byte   W17
 .byte   Fn4
 .byte   W03
 .byte   N03
 .byte   W03
 .byte   W01
 .byte   N03
 .byte   W03
 .byte   N09 ,Dn4
 .byte   W09
 .byte   W01
 .byte   Gs4
 .byte   W09
 .byte   W01
 .byte   W01
 .byte   N03 ,Fn4
 .byte   W02
 .byte   W01
 .byte   W03
 .byte   Gs4
 .byte   W03
 .byte   W01
 .byte   N09
 .byte   W09
 .byte   W01
 .byte   N03 ,Fn4
 .byte   W03
 .byte   W17
 .byte   Gs4
 .byte   W03
@ 013   ----------------------------------------
 .byte   W01
 .byte   N03
 .byte   W02
 .byte   W01
 .byte   N03
 .byte   W03
 .byte   W01
 .byte   N09 ,Fn4
 .byte   W09
 .byte   W01
 .byte   N09
 .byte   W09
 .byte   W01
 .byte   N03 ,Dn4
 .byte   W03
 .byte   W04
 .byte   Fn4
 .byte   W02
 .byte   W01
 .byte   N09
 .byte   W09
 .byte   W01
 .byte   N03 ,Dn4
 .byte   W03
 .byte   W17
 .byte   Fn4
 .byte   W03
 .byte   W01
 .byte   N03
 .byte   W03
 .byte   N03
 .byte   W03
 .byte   W01
 .byte   N09 ,Dn4
 .byte   W09
 .byte   W01
 .byte   Gs4
 .byte   W07
@ 014   ----------------------------------------
 .byte   W02
 .byte   W01
 .byte   N03 ,Fn4
 .byte   W03
 .byte   W04
 .byte   Gs4
 .byte   W03
 .byte   N09
 .byte   W09
 .byte   W01
 .byte   N03 ,Fn4
 .byte   W03
 .byte   W18
 .byte   Gs4
 .byte   W02
 .byte   W01
 .byte   N03
 .byte   W03
 .byte   W01
 .byte   N03
 .byte   W02
 .byte   W01
 .byte   N09 ,Fn4
 .byte   W09
 .byte   W01
 .byte   N06 ,Bn4
 .byte   W06
 .byte   W04
 .byte   N06
 .byte   W06
 .byte   W01
 .byte   W14
 .byte   N06
 .byte   W01
@ 015   ----------------------------------------
 .byte   W04
 .byte   W01
 .byte   W14
 .byte   N01
 .byte   W01
 .byte   W02
 .byte   N01
 .byte   W01
 .byte   W01
 .byte   W02
 .byte   N01
 .byte   W01
 .byte   W02
 .byte   N06
 .byte   W06
 .byte   W24
 .byte   N19 ,Dn3
 .byte   W02
 .byte   GOTO
  .word Label_0_0134E818
@ 016   ----------------------------------------
 .byte   W17
 .byte   W01
 .byte   BEND , c_v+0
 .byte   W17
 .byte   FINE

@**************** Track 2 (Midi-Chn.1) ****************@

song2E_002:
@ 000   ----------------------------------------
 .byte   KEYSH , song2E_key+0
 .byte   W96
@ 001   ----------------------------------------
 .byte   W64
 .byte   VOL , 49*song2E_mvl/mxv
 .byte   Ds1
 .byte   PAN , c_v+16
 .byte   W01
 .byte   VOICE , 56
 .byte   BEND , c_v+0
 .byte   N78 ,Gn2 ,v100
 .byte   W19
Label_1_0134EA8B:
 .byte   BEND , c_v+0
 .byte   W03
 .byte   En3
 .byte   W03
 .byte   En3
 .byte   W02
 .byte   En3
 .byte   W03
 .byte   En3
 .byte   W01
@ 002   ----------------------------------------
 .byte   W01
 .byte   En3
 .byte   W03
 .byte   En3
 .byte   W03
 .byte   En3
 .byte   W02
 .byte   En3
 .byte   W03
 .byte   En3
 .byte   W02
 .byte   En3
 .byte   W03
 .byte   En3
 .byte   W03
 .byte   Fn3
 .byte   W02
 .byte   En3
 .byte   W03
 .byte   Fn3
 .byte   W02
 .byte   En3
 .byte   W03
 .byte   Fn3
 .byte   W03
 .byte   En3
 .byte   W02
 .byte   Fn3
 .byte   W03
 .byte   En3
 .byte   W02
 .byte   Fn3
 .byte   W03
 .byte   En3
 .byte   W01
 .byte   W01
 .byte   W01
 .byte   Fn3
 .byte   W01
 .byte   W01
 .byte   En3
 .byte   W01
 .byte   N78 ,Gn2 ,v100
 .byte   W20
 .byte   BEND , c_v+0
 .byte   W02
 .byte   En3
 .byte   W03
 .byte   En3
 .byte   W02
 .byte   En3
 .byte   W03
 .byte   En3
 .byte   W03
 .byte   En3
 .byte   W02
 .byte   En3
 .byte   W03
 .byte   En3
 .byte   W02
 .byte   En3
 .byte   W03
 .byte   En3
 .byte   W03
 .byte   En3
 .byte   W01
@ 003   ----------------------------------------
 .byte   W01
 .byte   En3
 .byte   W03
 .byte   Fn3
 .byte   W02
 .byte   En3
 .byte   W03
 .byte   Fn3
 .byte   W03
 .byte   En3
 .byte   W02
 .byte   Fn3
 .byte   W03
 .byte   En3
 .byte   W02
 .byte   Fn3
 .byte   W03
 .byte   En3
 .byte   W03
 .byte   Fn3
 .byte   W02
 .byte   En3
 .byte   W01
 .byte   W01
 .byte   W01
 .byte   Fn3
 .byte   W01
 .byte   W01
 .byte   En3
 .byte   W01
 .byte   N78 ,As2
 .byte   W24
 .byte   W01
 .byte   BEND , c_v+0
 .byte   W03
 .byte   En3
 .byte   W02
 .byte   En3
 .byte   W03
 .byte   En3
 .byte   W02
 .byte   En3
 .byte   W03
 .byte   En3
 .byte   W03
 .byte   En3
 .byte   W02
 .byte   En3
 .byte   W03
 .byte   En3
 .byte   W02
 .byte   En3
 .byte   W03
 .byte   Fn3
 .byte   W03
 .byte   En3
 .byte   W02
 .byte   Fn3
 .byte   W03
 .byte   En3
 .byte   W02
 .byte   Fn3
 .byte   W02
@ 004   ----------------------------------------
 .byte   W01
 .byte   En3
 .byte   W03
 .byte   Fn3
 .byte   W02
 .byte   En3
 .byte   W03
 .byte   Fn3
 .byte   W02
 .byte   En3
 .byte   W02
 .byte   W01
 .byte   Fn3
 .byte   W01
 .byte   W01
 .byte   W01
 .byte   En3
 .byte   N78 ,Gs2
 .byte   W20
 .byte   BEND , c_v+0
 .byte   W03
 .byte   En3
 .byte   W02
 .byte   En3
 .byte   W03
 .byte   En3
 .byte   W02
 .byte   En3
 .byte   W03
 .byte   En3
 .byte   W03
 .byte   En3
 .byte   W02
 .byte   En3
 .byte   W03
 .byte   En3
 .byte   W02
 .byte   En3
 .byte   W03
 .byte   En3
 .byte   W03
 .byte   En3
 .byte   W02
 .byte   Fn3
 .byte   W03
 .byte   En3
 .byte   W02
 .byte   Fn3
 .byte   W03
 .byte   En3
 .byte   W03
 .byte   Fn3
 .byte   W02
 .byte   En3
 .byte   W03
 .byte   Fn3
 .byte   W02
 .byte   En3
 .byte   W03
 .byte   Fn3
 .byte   W03
 .byte   En3
 .byte   W01
 .byte   W01
 .byte   Fn3
 .byte   W01
 .byte   W01
@ 005   ----------------------------------------
 .byte   W01
 .byte   En3
 .byte   W01
 .byte   N09 ,Gn2
 .byte   W09
 .byte   W01
 .byte   N09
 .byte   W09
 .byte   W01
 .byte   N02
 .byte   W02
 .byte   W03
 .byte   N02
 .byte   W02
 .byte   W03
 .byte   N09
 .byte   W09
 .byte   W01
 .byte   N09
 .byte   W09
 .byte   W01
 .byte   N01 ,Fn3
 .byte   W01
 .byte   W02
 .byte   N01
 .byte   W01
 .byte   W02
 .byte   N01
 .byte   W01
 .byte   W03
 .byte   En3
 .byte   W01
 .byte   W02
 .byte   N01
 .byte   W01
 .byte   W02
 .byte   N01
 .byte   W01
 .byte   W03
 .byte   Ds3
 .byte   W01
 .byte   W02
 .byte   N01
 .byte   W01
 .byte   W02
 .byte   N01
 .byte   W01
 .byte   W01
 .byte   W02
 .byte   N09 ,Gn2
 .byte   W09
 .byte   W01
 .byte   N09
 .byte   W04
@ 006   ----------------------------------------
 .byte   W05
 .byte   W01
 .byte   N02
 .byte   W02
 .byte   W03
 .byte   N02
 .byte   W02
 .byte   W03
 .byte   N09
 .byte   W09
 .byte   W01
 .byte   N09
 .byte   W09
 .byte   W01
 .byte   N01 ,Fn3
 .byte   W01
 .byte   W02
 .byte   N01
 .byte   W01
 .byte   W02
 .byte   N01
 .byte   W02
 .byte   W02
 .byte   En3
 .byte   W01
 .byte   W02
 .byte   N01
 .byte   W01
 .byte   W02
 .byte   N01
 .byte   W02
 .byte   W02
 .byte   Ds3
 .byte   W01
 .byte   W02
 .byte   N01
 .byte   W01
 .byte   W02
 .byte   N01
 .byte   W01
 .byte   W01
 .byte   W02
 .byte   N78 ,Gn2
 .byte   W20
 .byte   BEND , c_v+0
 .byte   W02
 .byte   En3
 .byte   W03
 .byte   En3
 .byte   W02
 .byte   En3
 .byte   W03
@ 007   ----------------------------------------
 .byte   En3
 .byte   W03
 .byte   En3
 .byte   W02
 .byte   En3
 .byte   W03
 .byte   En3
 .byte   W02
 .byte   En3
 .byte   W03
 .byte   En3
 .byte   W03
 .byte   En3
 .byte   W02
 .byte   En3
 .byte   W03
 .byte   Fn3
 .byte   W02
 .byte   En3
 .byte   W03
 .byte   Fn3
 .byte   W03
 .byte   En3
 .byte   W02
 .byte   Fn3
 .byte   W03
 .byte   En3
 .byte   W02
 .byte   Fn3
 .byte   W03
 .byte   En3
 .byte   W03
 .byte   Fn3
 .byte   W02
 .byte   En3
 .byte   W02
 .byte   W01
 .byte   Fn3
 .byte   W01
 .byte   W01
 .byte   W01
 .byte   En3
 .byte   N78
 .byte   W20
 .byte   BEND , c_v+0
 .byte   W02
 .byte   En3
 .byte   W03
 .byte   En3
 .byte   W03
 .byte   En3
 .byte   W02
 .byte   En3
 .byte   W03
 .byte   En3
 .byte   W02
 .byte   En3
 .byte   W03
 .byte   En3
 .byte   W03
 .byte   En3
 .byte   W02
 .byte   En3
 .byte   W03
@ 008   ----------------------------------------
 .byte   En3
 .byte   W02
 .byte   En3
 .byte   W03
 .byte   Fn3
 .byte   W03
 .byte   En3
 .byte   W02
 .byte   Fn3
 .byte   W03
 .byte   En3
 .byte   W02
 .byte   Fn3
 .byte   W03
 .byte   En3
 .byte   W03
 .byte   Fn3
 .byte   W02
 .byte   En3
 .byte   W03
 .byte   Fn3
 .byte   W03
 .byte   En3
 .byte   W01
 .byte   W01
 .byte   Fn3
 .byte   W01
 .byte   W01
 .byte   W01
 .byte   En3
 .byte   N78 ,As2
 .byte   W24
 .byte   W01
 .byte   BEND , c_v+0
 .byte   W03
 .byte   En3
 .byte   W02
 .byte   En3
 .byte   W03
 .byte   En3
 .byte   W03
 .byte   En3
 .byte   W02
 .byte   En3
 .byte   W03
 .byte   En3
 .byte   W02
 .byte   En3
 .byte   W03
 .byte   En3
 .byte   W03
 .byte   En3
 .byte   W02
 .byte   Fn3
 .byte   W03
 .byte   En3
 .byte   W02
 .byte   Fn3
 .byte   W03
 .byte   En3
 .byte   W03
@ 009   ----------------------------------------
 .byte   Fn3
 .byte   W02
 .byte   En3
 .byte   W03
 .byte   Fn3
 .byte   W03
 .byte   En3
 .byte   W02
 .byte   Fn3
 .byte   W03
 .byte   En3
 .byte   W01
 .byte   W01
 .byte   Fn3
 .byte   W01
 .byte   W01
 .byte   W01
 .byte   En3
 .byte   W01
 .byte   N78 ,Gs2
 .byte   W19
 .byte   BEND , c_v+0
 .byte   W03
 .byte   En3
 .byte   W03
 .byte   En3
 .byte   W02
 .byte   En3
 .byte   W03
 .byte   En3
 .byte   W02
 .byte   En3
 .byte   W03
 .byte   En3
 .byte   W03
 .byte   En3
 .byte   W02
 .byte   En3
 .byte   W03
 .byte   En3
 .byte   W02
 .byte   En3
 .byte   W03
 .byte   En3
 .byte   W03
 .byte   Fn3
 .byte   W02
 .byte   En3
 .byte   W03
 .byte   Fn3
 .byte   W02
 .byte   En3
 .byte   W03
 .byte   Fn3
 .byte   W03
 .byte   En3
 .byte   W02
 .byte   Fn3
 .byte   W03
 .byte   En3
 .byte   W02
 .byte   Fn3
 .byte   W03
 .byte   En3
 .byte   W01
 .byte   W01
 .byte   W01
@ 010   ----------------------------------------
 .byte   Fn3
 .byte   W01
 .byte   W01
 .byte   En3
 .byte   W01
 .byte   N09 ,Gn2
 .byte   W09
 .byte   W01
 .byte   N09
 .byte   W09
 .byte   W01
 .byte   N02
 .byte   W02
 .byte   W03
 .byte   N02
 .byte   W02
 .byte   W03
 .byte   N09
 .byte   W09
 .byte   W01
 .byte   N09
 .byte   W09
 .byte   W01
 .byte   N01 ,Fn3
 .byte   W01
 .byte   W02
 .byte   N01
 .byte   W01
 .byte   W01
 .byte   W02
 .byte   N01
 .byte   W01
 .byte   W02
 .byte   En3
 .byte   W01
 .byte   W02
 .byte   N01
 .byte   W01
 .byte   W01
 .byte   W02
 .byte   N01
 .byte   W01
 .byte   W02
 .byte   Ds3
 .byte   W01
 .byte   W02
 .byte   N01
 .byte   W01
 .byte   W01
 .byte   W02
 .byte   N01
 .byte   W01
 .byte   W02
 .byte   N09 ,Gn2
 .byte   W09
 .byte   W01
 .byte   N09
 .byte   W03
@ 011   ----------------------------------------
 .byte   W06
 .byte   W01
 .byte   N02
 .byte   W02
 .byte   W03
 .byte   N02
 .byte   W02
 .byte   W03
 .byte   N09
 .byte   W09
 .byte   W01
 .byte   N09
 .byte   W09
 .byte   W01
 .byte   N01 ,Fn3
 .byte   W01
 .byte   W02
 .byte   N01
 .byte   W01
 .byte   W01
 .byte   W02
 .byte   N01
 .byte   W01
 .byte   W02
 .byte   En3
 .byte   W01
 .byte   W02
 .byte   N01
 .byte   W01
 .byte   W01
 .byte   W02
 .byte   N01
 .byte   W01
 .byte   W02
 .byte   Ds3
 .byte   W01
 .byte   W02
 .byte   N01
 .byte   W01
 .byte   W01
 .byte   W02
 .byte   N01
 .byte   W01
 .byte   W02
 .byte   N09 ,Cs4
 .byte   W09
 .byte   W01
 .byte   N03 ,As3
 .byte   W03
 .byte   W04
 .byte   Cs4
 .byte   W03
 .byte   W01
 .byte   N09
 .byte   W08
@ 012   ----------------------------------------
 .byte   W01
 .byte   W01
 .byte   N03 ,As3
 .byte   W03
 .byte   W17
 .byte   Cs4
 .byte   W03
 .byte   N03
 .byte   W03
 .byte   W01
 .byte   N03
 .byte   W03
 .byte   N09 ,As3
 .byte   W09
 .byte   W01
 .byte   En4
 .byte   W09
 .byte   W01
 .byte   W01
 .byte   N03 ,Cs4
 .byte   W02
 .byte   W01
 .byte   W03
 .byte   En4
 .byte   W03
 .byte   W01
 .byte   N09
 .byte   W09
 .byte   W01
 .byte   N03 ,Cs4
 .byte   W03
 .byte   W17
 .byte   En4
 .byte   W03
@ 013   ----------------------------------------
 .byte   W01
 .byte   N03
 .byte   W02
 .byte   W01
 .byte   N03
 .byte   W03
 .byte   W01
 .byte   N09 ,Cs4
 .byte   W09
 .byte   W01
 .byte   N09
 .byte   W09
 .byte   W01
 .byte   N03 ,As3
 .byte   W03
 .byte   W04
 .byte   Cs4
 .byte   W02
 .byte   W01
 .byte   N09
 .byte   W09
 .byte   W01
 .byte   N03 ,As3
 .byte   W03
 .byte   W17
 .byte   Cs4
 .byte   W03
 .byte   W01
 .byte   N03
 .byte   W03
 .byte   N03
 .byte   W03
 .byte   W01
 .byte   N09 ,As3
 .byte   W09
 .byte   W01
 .byte   En4
 .byte   W07
@ 014   ----------------------------------------
 .byte   W02
 .byte   W01
 .byte   N03 ,Cs4
 .byte   W03
 .byte   W04
 .byte   En4
 .byte   W03
 .byte   N09
 .byte   W09
 .byte   W01
 .byte   N03 ,Cs4
 .byte   W03
 .byte   W18
 .byte   En4
 .byte   W02
 .byte   W01
 .byte   N03
 .byte   W03
 .byte   W01
 .byte   N03
 .byte   W02
 .byte   W01
 .byte   N09 ,Cs4
 .byte   W09
 .byte   W01
 .byte   N06 ,Fs4
 .byte   W06
 .byte   W04
 .byte   N06
 .byte   W06
 .byte   W01
 .byte   W14
 .byte   N06
 .byte   W01
@ 015   ----------------------------------------
 .byte   W04
 .byte   W01
 .byte   W14
 .byte   N01
 .byte   W01
 .byte   W02
 .byte   N01
 .byte   W01
 .byte   W01
 .byte   W02
 .byte   N01
 .byte   W01
 .byte   W02
 .byte   N06
 .byte   W06
 .byte   W04
 .byte   N56 ,Gn2
 .byte   W20
 .byte   BEND , c_v+0
 .byte   W02
 .byte   GOTO
  .word Label_1_0134EA8B
@ 016   ----------------------------------------
 .byte   W01
 .byte   BEND , c_v+0
 .byte   W02
 .byte   En3
 .byte   W03
 .byte   En3
 .byte   W02
 .byte   En3
 .byte   W03
 .byte   En3
 .byte   W03
 .byte   En3
 .byte   W02
 .byte   En3
 .byte   W03
 .byte   En3
 .byte   W03
 .byte   En3
 .byte   W02
 .byte   En3
 .byte   W03
 .byte   En3
 .byte   W02
 .byte   Fn3
 .byte   W03
 .byte   En3
 .byte   W03
 .byte   En3
 .byte   FINE

@**************** Track 3 (Midi-Chn.2) ****************@

song2E_003:
@ 000   ----------------------------------------
 .byte   KEYSH , song2E_key+0
 .byte   W96
@ 001   ----------------------------------------
 .byte   W84
Label_2_0134EDC0:
 .byte   W12
@ 002   ----------------------------------------
 .byte   W96
@ 003   ----------------------------------------
 .byte   W96
@ 004   ----------------------------------------
 .byte   W96
@ 005   ----------------------------------------
 .byte   W52
 .byte   VOICE , 61
 .byte   Gn5
 .byte   PAN , c_v+23
 .byte   VOL , 50*song2E_mvl/mxv
 .byte   BEND , c_v+0
 .byte   N01 ,Cs3 ,v100
 .byte   W03
 .byte   N01
 .byte   W03
 .byte   N01
 .byte   W04
 .byte   Cn3
 .byte   W01
 .byte   W02
 .byte   N01
 .byte   W01
 .byte   W02
 .byte   N01
 .byte   W01
 .byte   W03
 .byte   Bn2
 .byte   W01
 .byte   W02
 .byte   N01
 .byte   W01
 .byte   W02
 .byte   N01
 .byte   W01
 .byte   W01
 .byte   W16
@ 006   ----------------------------------------
 .byte   W36
 .byte   Cs3
 .byte   W01
 .byte   W02
 .byte   N01
 .byte   W01
 .byte   W02
 .byte   N01
 .byte   W02
 .byte   W02
 .byte   Cn3
 .byte   W01
 .byte   W02
 .byte   N01
 .byte   W01
 .byte   W02
 .byte   N01
 .byte   W02
 .byte   W02
 .byte   Bn2
 .byte   W01
 .byte   W02
 .byte   N01
 .byte   W01
 .byte   W02
 .byte   N01
 .byte   W02
 .byte   W32
@ 007   ----------------------------------------
 .byte   W96
@ 008   ----------------------------------------
 .byte   W96
@ 009   ----------------------------------------
 .byte   W96
@ 010   ----------------------------------------
 .byte   W52
 .byte   W01
 .byte   Cs3
 .byte   W01
 .byte   W02
 .byte   N01
 .byte   W01
 .byte   W01
 .byte   W02
 .byte   N01
 .byte   W01
 .byte   W02
 .byte   Cn3
 .byte   W01
 .byte   W02
 .byte   N01
 .byte   W01
 .byte   W01
 .byte   W02
 .byte   N01
 .byte   W01
 .byte   W02
 .byte   Bn2
 .byte   W01
 .byte   W02
 .byte   N01
 .byte   W01
 .byte   W01
 .byte   W02
 .byte   N01
 .byte   W01
 .byte   W15
@ 011   ----------------------------------------
 .byte   W36
 .byte   W01
 .byte   Cs3
 .byte   W01
 .byte   W02
 .byte   N01
 .byte   W01
 .byte   W01
 .byte   W02
 .byte   N01
 .byte   W01
 .byte   W02
 .byte   Cn3
 .byte   W01
 .byte   W02
 .byte   N01
 .byte   W01
 .byte   W01
 .byte   W02
 .byte   N01
 .byte   W01
 .byte   W02
 .byte   Bn2
 .byte   W01
 .byte   W02
 .byte   N01
 .byte   W01
 .byte   W01
 .byte   W02
 .byte   N01
 .byte   W01
 .byte   W02
 .byte   N09 ,Gn3
 .byte   W09
 .byte   W01
 .byte   N03 ,En3
 .byte   W03
 .byte   W04
 .byte   Gn3
 .byte   W03
 .byte   W01
 .byte   N09
 .byte   W08
@ 012   ----------------------------------------
 .byte   W01
 .byte   W01
 .byte   N03 ,En3
 .byte   W03
 .byte   W17
 .byte   Gn3
 .byte   W03
 .byte   N03
 .byte   W03
 .byte   W01
 .byte   N03
 .byte   W03
 .byte   N09 ,En3
 .byte   W09
 .byte   W01
 .byte   As3
 .byte   W09
 .byte   W01
 .byte   W01
 .byte   N03 ,Gn3
 .byte   W02
 .byte   W01
 .byte   W03
 .byte   As3
 .byte   W03
 .byte   W01
 .byte   N09
 .byte   W09
 .byte   W01
 .byte   N03 ,Gn3
 .byte   W03
 .byte   W17
 .byte   As3
 .byte   W03
@ 013   ----------------------------------------
 .byte   W01
 .byte   N03
 .byte   W02
 .byte   W01
 .byte   N03
 .byte   W03
 .byte   W01
 .byte   N09 ,Gn3
 .byte   W09
 .byte   W01
 .byte   N09
 .byte   W09
 .byte   W01
 .byte   N03 ,En3
 .byte   W03
 .byte   W04
 .byte   Gn3
 .byte   W02
 .byte   W01
 .byte   N09
 .byte   W09
 .byte   W01
 .byte   N03 ,En3
 .byte   W03
 .byte   W17
 .byte   Gn3
 .byte   W03
 .byte   W01
 .byte   N03
 .byte   W03
 .byte   N03
 .byte   W03
 .byte   W01
 .byte   N09 ,En3
 .byte   W09
 .byte   W01
 .byte   As3
 .byte   W07
@ 014   ----------------------------------------
 .byte   W02
 .byte   W01
 .byte   N03 ,Gn3
 .byte   W03
 .byte   W04
 .byte   As3
 .byte   W03
 .byte   N09
 .byte   W09
 .byte   W01
 .byte   N03 ,Gn3
 .byte   W03
 .byte   W18
 .byte   As3
 .byte   W02
 .byte   W01
 .byte   N03
 .byte   W03
 .byte   W01
 .byte   N03
 .byte   W02
 .byte   W01
 .byte   N09 ,Gn3
 .byte   W09
 .byte   W01
 .byte   N06 ,Cn4
 .byte   W06
 .byte   W04
 .byte   N06
 .byte   W06
 .byte   W01
 .byte   W14
 .byte   N06
 .byte   W01
@ 015   ----------------------------------------
 .byte   W05
 .byte   W14
 .byte   N01
 .byte   W01
 .byte   W02
 .byte   N01
 .byte   W01
 .byte   W01
 .byte   W02
 .byte   N01
 .byte   W01
 .byte   W02
 .byte   N06
 .byte   W06
 .byte   W24
 .byte   W02
 .byte   GOTO
  .word Label_2_0134EDC0
@ 016   ----------------------------------------
 .byte   W32
 .byte   W03
 .byte   FINE

@**************** Track 4 (Midi-Chn.3) ****************@

song2E_004:
@ 000   ----------------------------------------
 .byte   KEYSH , song2E_key+0
 .byte   VOICE , 48
 .byte   PAN , c_v+0
 .byte   VOL , 22*song2E_mvl/mxv
 .byte   An0 ,v025
 .byte   PAN , c_v-18
 .byte   BEND , c_v+1
 .byte   N09 ,Dn3 ,v100
 .byte   W10
 .byte   N09
 .byte   W09
 .byte   PAN , c_v-18
 .byte   Cs7
 .byte   VOL , 25*song2E_mvl/mxv
 .byte   W01
 .byte   N02
 .byte   W05
 .byte   N02
 .byte   W05
 .byte   N09
 .byte   W10
 .byte   N09
 .byte   W07
 .byte   PAN , c_v+0
 .byte   Gs0
 .byte   VOL , 29*song2E_mvl/mxv
 .byte   W03
 .byte   N01 ,Fn3
 .byte   W03
 .byte   N01
 .byte   W04
 .byte   N01
 .byte   W02
 .byte   PAN , c_v-10
 .byte   VOL , 31*song2E_mvl/mxv
 .byte   Cn5
 .byte   W01
 .byte   N01 ,En3
 .byte   W03
 .byte   N01
 .byte   W04
 .byte   N01
 .byte   W03
 .byte   Ds3
 .byte   W03
 .byte   N01
 .byte   W04
 .byte   N01
 .byte   W03
 .byte   N09 ,Dn3
 .byte   W10
 .byte   N09
 .byte   W05
 .byte   PAN , c_v+0
 .byte   FnM1
 .byte   VOL , 34*song2E_mvl/mxv
 .byte   W01
@ 001   ----------------------------------------
 .byte   W03
 .byte   Bn0
 .byte   PAN , c_v-7
 .byte   Gn0
 .byte   W01
 .byte   N02
 .byte   W05
 .byte   N02
 .byte   W05
 .byte   N09
 .byte   W10
 .byte   N09
 .byte   W10
 .byte   N01 ,Fn3
 .byte   W04
 .byte   N01
 .byte   W03
 .byte   N01
 .byte   W02
 .byte   PAN , c_v-16
 .byte   Ds1
 .byte   VOL , 37*song2E_mvl/mxv
 .byte   W01
 .byte   N01 ,En3
 .byte   W04
 .byte   N01
 .byte   W03
 .byte   N01
 .byte   W02
 .byte   PAN , c_v-5
 .byte   Gn5
 .byte   VOL , 38*song2E_mvl/mxv
 .byte   W01
 .byte   N01 ,Ds3
 .byte   W04
 .byte   N01
 .byte   W03
 .byte   N01
 .byte   W04
 .byte   N78 ,Gn3
 .byte   W19
Label_3_0134EF6B:
 .byte   W12
@ 002   ----------------------------------------
 .byte   W04
 .byte   BEND , c_v+1
 .byte   W03
 .byte   Fn3
 .byte   W02
 .byte   Fn3
 .byte   W03
 .byte   Fn3
 .byte   W02
 .byte   Fn3
 .byte   W03
 .byte   Fn3
 .byte   W03
 .byte   Fn3
 .byte   W02
 .byte   Fn3
 .byte   W03
 .byte   Fn3
 .byte   W02
 .byte   Fn3
 .byte   W03
 .byte   Fn3
 .byte   W03
 .byte   Fn3
 .byte   W02
 .byte   Fn3
 .byte   W03
 .byte   Fn3
 .byte   W02
 .byte   Fn3
 .byte   W03
 .byte   Fn3
 .byte   W03
 .byte   Fn3
 .byte   W02
 .byte   Fn3
 .byte   W01
 .byte   N78 ,Fn3 ,v100
 .byte   W40
 .byte   BEND , c_v+1
 .byte   W03
 .byte   Fn3
 .byte   W03
 .byte   Fn3
 .byte   W01
@ 003   ----------------------------------------
 .byte   W01
 .byte   Fn3
 .byte   W03
 .byte   Fn3
 .byte   W02
 .byte   Fn3
 .byte   W03
 .byte   Fn3
 .byte   W03
 .byte   Fn3
 .byte   W02
 .byte   Fn3
 .byte   W03
 .byte   Fn3
 .byte   W02
 .byte   Fn3
 .byte   W03
 .byte   Fn3
 .byte   W03
 .byte   Fn3
 .byte   W02
 .byte   Fn3
 .byte   W03
 .byte   Fn3
 .byte   W02
 .byte   Fn3
 .byte   W01
 .byte   N78 ,Gn3
 .byte   W32
 .byte   W03
 .byte   BEND , c_v+1
 .byte   W03
 .byte   Fn3
 .byte   W03
 .byte   Fn3
 .byte   W02
 .byte   Fn3
 .byte   W03
 .byte   Fn3
 .byte   W02
 .byte   Fn3
 .byte   W03
 .byte   Fn3
 .byte   W03
 .byte   Fn3
 .byte   W02
 .byte   Fn3
 .byte   W03
 .byte   Fn3
 .byte   W02
 .byte   Fn3
 .byte   W02
@ 004   ----------------------------------------
 .byte   W01
 .byte   Fn3
 .byte   W03
 .byte   Fn3
 .byte   W02
 .byte   Fn3
 .byte   W03
 .byte   Fn3
 .byte   W02
 .byte   Fn3
 .byte   W03
 .byte   Fn3
 .byte   W03
 .byte   Fn3
 .byte   N78 ,Fn3
 .byte   W40
 .byte   W01
 .byte   BEND , c_v+1
 .byte   W02
 .byte   Fn3
 .byte   W03
 .byte   Fn3
 .byte   W03
 .byte   Fn3
 .byte   W02
 .byte   Fn3
 .byte   W03
 .byte   Fn3
 .byte   W02
 .byte   Fn3
 .byte   W03
 .byte   Fn3
 .byte   W03
 .byte   Fn3
 .byte   W02
 .byte   Fn3
 .byte   W03
 .byte   Fn3
 .byte   W02
 .byte   Fn3
 .byte   W03
 .byte   Fn3
 .byte   W03
 .byte   Fn3
 .byte   W02
 .byte   Fn3
 .byte   W02
@ 005   ----------------------------------------
 .byte   W01
 .byte   Fn3
 .byte   W01
 .byte   TIE ,Gn3
 .byte   W32
 .byte   W03
 .byte   BEND , c_v+1
 .byte   W03
 .byte   Fn3
 .byte   W02
 .byte   Fn3
 .byte   W03
 .byte   Fn3
 .byte   W02
 .byte   Fn3
 .byte   W03
 .byte   Fn3
 .byte   W03
 .byte   Fn3
 .byte   W02
 .byte   Fn3
 .byte   W03
 .byte   Fn3
 .byte   W02
 .byte   Fn3
 .byte   W03
 .byte   Fn3
 .byte   W03
 .byte   Fn3
 .byte   W02
 .byte   Fn3
 .byte   W03
 .byte   Fn3
 .byte   W02
 .byte   Fn3
 .byte   W03
 .byte   Fn3
 .byte   W03
 .byte   Fn3
 .byte   W02
 .byte   Fn3
 .byte   W03
 .byte   Fn3
 .byte   W03
 .byte   Fn3
 .byte   W02
 .byte   Fn3
 .byte   W03
 .byte   Fn3
 .byte   W02
 .byte   Fn3
 .byte   W02
@ 006   ----------------------------------------
 .byte   W01
 .byte   Fn3
 .byte   W03
 .byte   Fn3
 .byte   W02
 .byte   Fn3
 .byte   W03
 .byte   Fn3
 .byte   W02
 .byte   Fn3
 .byte   W03
 .byte   Fn3
 .byte   W03
 .byte   Fn3
 .byte   W02
 .byte   Fn3
 .byte   W03
 .byte   Fn3
 .byte   W02
 .byte   Fn3
 .byte   W03
 .byte   Fn3
 .byte   W03
 .byte   Fn3
 .byte   W02
 .byte   Fn3
 .byte   W03
 .byte   Fn3
 .byte   W02
 .byte   Fn3
 .byte   W03
 .byte   Fn3
 .byte   W03
 .byte   Fn3
 .byte   W02
 .byte   Fn3
 .byte   W03
 .byte   Fn3
 .byte   W02
 .byte   Fn3
 .byte   W03
 .byte   Fn3
 .byte   W03
 .byte   Fn3
 .byte   W02
 .byte   Fn3
 .byte   W03
 .byte   Fn3
 .byte   W02
 .byte   Fn3
 .byte   W02
 .byte   EOT
 .byte   W01
 .byte   N78
 .byte   W30
@ 007   ----------------------------------------
 .byte   W05
 .byte   BEND , c_v+1
 .byte   W03
 .byte   Fn3
 .byte   W02
 .byte   Fn3
 .byte   W03
 .byte   Fn3
 .byte   W03
 .byte   Fn3
 .byte   W02
 .byte   Fn3
 .byte   W03
 .byte   Fn3
 .byte   W02
 .byte   Fn3
 .byte   W03
 .byte   Fn3
 .byte   W03
 .byte   Fn3
 .byte   W02
 .byte   Fn3
 .byte   W03
 .byte   Fn3
 .byte   W03
 .byte   Fn3
 .byte   W02
 .byte   Fn3
 .byte   W03
 .byte   Fn3
 .byte   W02
 .byte   Fn3
 .byte   W03
 .byte   Fn3
 .byte   W03
 .byte   Fn3
 .byte   N78 ,Fn3
 .byte   W40
 .byte   W01
 .byte   BEND , c_v+1
 .byte   W02
 .byte   Fn3
 .byte   W03
@ 008   ----------------------------------------
 .byte   Fn3
 .byte   W02
 .byte   Fn3
 .byte   W03
 .byte   Fn3
 .byte   W03
 .byte   Fn3
 .byte   W02
 .byte   Fn3
 .byte   W03
 .byte   Fn3
 .byte   W03
 .byte   Fn3
 .byte   W02
 .byte   Fn3
 .byte   W03
 .byte   Fn3
 .byte   W02
 .byte   Fn3
 .byte   W03
 .byte   Fn3
 .byte   W03
 .byte   Fn3
 .byte   W02
 .byte   Fn3
 .byte   W03
 .byte   Fn3
 .byte   N78 ,Gn3
 .byte   W36
 .byte   BEND , c_v+1
 .byte   W02
 .byte   Fn3
 .byte   W03
 .byte   Fn3
 .byte   W03
 .byte   Fn3
 .byte   W02
 .byte   Fn3
 .byte   W03
 .byte   Fn3
 .byte   W02
 .byte   Fn3
 .byte   W03
 .byte   Fn3
 .byte   W03
 .byte   Fn3
 .byte   W02
 .byte   Fn3
 .byte   W03
@ 009   ----------------------------------------
 .byte   Fn3
 .byte   W02
 .byte   Fn3
 .byte   W03
 .byte   Fn3
 .byte   W03
 .byte   Fn3
 .byte   W02
 .byte   Fn3
 .byte   W03
 .byte   Fn3
 .byte   W02
 .byte   Fn3
 .byte   W03
 .byte   Fn3
 .byte   W01
 .byte   N78 ,Fn3
 .byte   W40
 .byte   BEND , c_v+1
 .byte   W03
 .byte   Fn3
 .byte   W02
 .byte   Fn3
 .byte   W03
 .byte   Fn3
 .byte   W03
 .byte   Fn3
 .byte   W02
 .byte   Fn3
 .byte   W03
 .byte   Fn3
 .byte   W02
 .byte   Fn3
 .byte   W03
 .byte   Fn3
 .byte   W03
 .byte   Fn3
 .byte   W02
 .byte   Fn3
 .byte   W03
 .byte   Fn3
 .byte   W02
 .byte   Fn3
 .byte   W03
 .byte   Fn3
 .byte   W03
@ 010   ----------------------------------------
 .byte   Fn3
 .byte   W02
 .byte   Fn3
 .byte   W01
 .byte   TIE ,Gn3
 .byte   W32
 .byte   W03
 .byte   BEND , c_v+1
 .byte   W03
 .byte   Fn3
 .byte   W02
 .byte   Fn3
 .byte   W03
 .byte   Fn3
 .byte   W03
 .byte   Fn3
 .byte   W02
 .byte   Fn3
 .byte   W03
 .byte   Fn3
 .byte   W02
 .byte   Fn3
 .byte   W03
 .byte   Fn3
 .byte   W03
 .byte   Fn3
 .byte   W02
 .byte   Fn3
 .byte   W03
 .byte   Fn3
 .byte   W03
 .byte   Fn3
 .byte   W02
 .byte   Fn3
 .byte   W03
 .byte   Fn3
 .byte   W02
 .byte   Fn3
 .byte   W03
 .byte   Fn3
 .byte   W02
 .byte   Fn3
 .byte   W03
 .byte   Fn3
 .byte   W03
 .byte   Fn3
 .byte   W02
 .byte   Fn3
 .byte   W03
 .byte   Fn3
 .byte   W02
 .byte   Fn3
 .byte   W01
@ 011   ----------------------------------------
 .byte   W02
 .byte   Fn3
 .byte   W03
 .byte   Fn3
 .byte   W02
 .byte   Fn3
 .byte   W03
 .byte   Fn3
 .byte   W02
 .byte   Fn3
 .byte   W03
 .byte   Fn3
 .byte   W03
 .byte   Fn3
 .byte   W02
 .byte   Fn3
 .byte   W03
 .byte   Fn3
 .byte   W03
 .byte   Fn3
 .byte   W02
 .byte   Fn3
 .byte   W03
 .byte   Fn3
 .byte   W02
 .byte   Fn3
 .byte   W03
 .byte   Fn3
 .byte   W03
 .byte   Fn3
 .byte   W02
 .byte   Fn3
 .byte   W03
 .byte   Fn3
 .byte   W02
 .byte   Fn3
 .byte   W03
 .byte   Fn3
 .byte   W03
 .byte   Fn3
 .byte   W02
 .byte   Fn3
 .byte   W03
 .byte   Fn3
 .byte   W02
 .byte   Fn3
 .byte   W03
 .byte   Fn3
 .byte   W03
 .byte   Fn3
 .byte   W01
 .byte   EOT
 .byte   W01
 .byte   N03 ,Cs3
 .byte   W04
 .byte   En3
 .byte   W03
 .byte   Gn3
 .byte   W03
 .byte   As3
 .byte   W04
 .byte   Gn3
 .byte   W03
 .byte   En3
 .byte   W04
 .byte   Cs3
 .byte   W03
 .byte   En3
 .byte   W03
 .byte   Gn3
 .byte   W02
@ 012   ----------------------------------------
 .byte   W02
 .byte   As3
 .byte   W03
 .byte   Gn3
 .byte   W03
 .byte   En3
 .byte   W04
 .byte   Cs3
 .byte   W03
 .byte   En3
 .byte   W04
 .byte   Gn3
 .byte   W03
 .byte   As3
 .byte   W03
 .byte   Gn3
 .byte   W04
 .byte   En3
 .byte   W03
 .byte   Cs3
 .byte   W04
 .byte   En3
 .byte   W03
 .byte   Gn3
 .byte   W03
 .byte   En3
 .byte   W04
 .byte   Gn3
 .byte   W03
 .byte   As3
 .byte   W04
 .byte   Cs4
 .byte   W03
 .byte   As3
 .byte   W03
 .byte   Gn3
 .byte   W04
 .byte   En3
 .byte   W03
 .byte   Gn3
 .byte   W03
 .byte   As3
 .byte   W04
 .byte   Cs4
 .byte   W03
 .byte   As3
 .byte   W04
 .byte   Gn3
 .byte   W03
 .byte   En3
 .byte   W03
 .byte   Gn3
 .byte   W04
 .byte   As3
 .byte   W03
 .byte   Cs4
 .byte   W03
@ 013   ----------------------------------------
 .byte   W01
 .byte   As3
 .byte   W03
 .byte   Gn3
 .byte   W04
 .byte   En3
 .byte   W03
 .byte   Gn3
 .byte   W03
 .byte   As3
 .byte   W04
 .byte   Cs3
 .byte   W03
 .byte   En3
 .byte   W03
 .byte   Gn3
 .byte   W04
 .byte   As3
 .byte   W03
 .byte   Gn3
 .byte   W04
 .byte   En3
 .byte   W03
 .byte   Cs3
 .byte   W03
 .byte   En3
 .byte   W04
 .byte   Gn3
 .byte   W03
 .byte   As3
 .byte   W04
 .byte   Gn3
 .byte   W03
 .byte   En3
 .byte   W03
 .byte   Cs3
 .byte   W04
 .byte   En3
 .byte   W03
 .byte   Gn3
 .byte   W03
 .byte   As3
 .byte   W04
 .byte   Gn3
 .byte   W03
 .byte   En3
 .byte   W04
 .byte   Cs3
 .byte   W03
 .byte   En3
 .byte   W03
 .byte   Gn3
 .byte   W04
 .byte   En3
 .byte   W03
 .byte   Gn3
 .byte   W04
@ 014   ----------------------------------------
 .byte   As3
 .byte   W03
 .byte   Cs4
 .byte   W03
 .byte   As3
 .byte   W04
 .byte   Gn3
 .byte   W03
 .byte   En3
 .byte   W04
 .byte   Gn3
 .byte   W03
 .byte   As3
 .byte   W03
 .byte   Cs4
 .byte   W04
 .byte   As3
 .byte   W03
 .byte   Gn3
 .byte   W04
 .byte   En3
 .byte   W03
 .byte   Gn3
 .byte   W03
 .byte   As3
 .byte   W04
 .byte   Cs4
 .byte   W03
 .byte   As3
 .byte   W04
 .byte   Gn3
 .byte   W03
 .byte   En3
 .byte   W03
 .byte   Gn3
 .byte   W04
 .byte   As3
 .byte   W03
 .byte   N06 ,Gs3
 .byte   W10
 .byte   N06
 .byte   W21
 .byte   N06
 .byte   W01
@ 015   ----------------------------------------
 .byte   W19
 .byte   N01
 .byte   W03
 .byte   N01
 .byte   W04
 .byte   N01
 .byte   W03
 .byte   N06
 .byte   W10
 .byte   N56 ,Gn3
 .byte   W22
 .byte   GOTO
  .word Label_3_0134EF6B
@ 016   ----------------------------------------
 .byte   W14
 .byte   BEND , c_v+1
 .byte   W02
 .byte   Fn3
 .byte   W03
 .byte   Fn3
 .byte   W03
 .byte   Fn3
 .byte   W02
 .byte   Fn3
 .byte   W03
 .byte   Fn3
 .byte   W02
 .byte   Fn3
 .byte   W03
 .byte   Fn3
 .byte   W03
 .byte   Fn3
 .byte   FINE

@**************** Track 5 (Midi-Chn.4) ****************@

song2E_005:
@ 000   ----------------------------------------
 .byte   KEYSH , song2E_key+0
 .byte   VOICE , 48
 .byte   PAN , c_v-64
 .byte   VOL , 13*song2E_mvl/mxv
 .byte   Fn8 ,v022
 .byte   PAN , c_v+0
 .byte   BEND , c_v+1
 .byte   N09 ,Gn2 ,v100
 .byte   W07
 .byte   PAN , c_v+0
 .byte   An0
 .byte   VOL , 22*song2E_mvl/mxv
 .byte   W03
 .byte   N09
 .byte   W01
 .byte   VOL , 25*song2E_mvl/mxv
 .byte   PAN , c_v-18
 .byte   Cs7
 .byte   W09
 .byte   N02
 .byte   W05
 .byte   N02
 .byte   W05
 .byte   N09
 .byte   W10
 .byte   N09
 .byte   W07
 .byte   VOL , 29*song2E_mvl/mxv
 .byte   PAN , c_v-32
 .byte   Gs0
 .byte   W03
 .byte   N01 ,Cs3
 .byte   W03
 .byte   N01
 .byte   W04
 .byte   N01
 .byte   W03
 .byte   Cn3
 .byte   W03
 .byte   N01
 .byte   W04
 .byte   N01
 .byte   W02
 .byte   VOL , 31*song2E_mvl/mxv
 .byte   PAN , c_v-10
 .byte   Cn5
 .byte   W01
 .byte   N01 ,Bn2
 .byte   W03
 .byte   N01
 .byte   W04
 .byte   N01
 .byte   W03
 .byte   N09 ,Gn2
 .byte   W02
 .byte   VOL , 33*song2E_mvl/mxv
 .byte   PAN , c_v-21
 .byte   FnM1
 .byte   W08
 .byte   N09
 .byte   W06
@ 001   ----------------------------------------
 .byte   W04
 .byte   N02
 .byte   W05
 .byte   N02
 .byte   W05
 .byte   N09
 .byte   W03
 .byte   VOL , 35*song2E_mvl/mxv
 .byte   PAN , c_v-26
 .byte   Gn0
 .byte   W07
 .byte   N09
 .byte   W10
 .byte   PAN , c_v-16
 .byte   Ds1
 .byte   VOL , 37*song2E_mvl/mxv
 .byte   N01 ,Cs3
 .byte   W04
 .byte   N01
 .byte   W03
 .byte   N01
 .byte   W03
 .byte   Cn3
 .byte   W04
 .byte   N01
 .byte   W03
 .byte   N01
 .byte   W02
 .byte   PAN , c_v-20
 .byte   Gn5
 .byte   VOL , 38*song2E_mvl/mxv
 .byte   W01
 .byte   N01 ,Bn2
 .byte   W04
 .byte   N01
 .byte   W03
 .byte   N01
 .byte   W04
 .byte   N78 ,Dn3
 .byte   W19
Label_4_0134F2D5:
 .byte   W12
@ 002   ----------------------------------------
 .byte   W09
 .byte   BEND , c_v+1
 .byte   W03
 .byte   Fn3
 .byte   W02
 .byte   Fn3
 .byte   W03
 .byte   Fn3
 .byte   W03
 .byte   Fn3
 .byte   W02
 .byte   Fn3
 .byte   W03
 .byte   Fn3
 .byte   W02
 .byte   Fn3
 .byte   W03
 .byte   Fn3
 .byte   W03
 .byte   Fn3
 .byte   W02
 .byte   Fn3
 .byte   W03
 .byte   Fn3
 .byte   W02
 .byte   Fn3
 .byte   W03
 .byte   Fn3
 .byte   W03
 .byte   Fn3
 .byte   W02
 .byte   Fn3
 .byte   W01
 .byte   N78 ,Cn3 ,v100
 .byte   W40
 .byte   BEND , c_v+1
 .byte   W03
 .byte   Fn3
 .byte   W03
 .byte   Fn3
 .byte   W01
@ 003   ----------------------------------------
 .byte   W01
 .byte   Fn3
 .byte   W03
 .byte   Fn3
 .byte   W02
 .byte   Fn3
 .byte   W03
 .byte   Fn3
 .byte   W03
 .byte   Fn3
 .byte   W02
 .byte   Fn3
 .byte   W03
 .byte   Fn3
 .byte   W02
 .byte   Fn3
 .byte   W03
 .byte   Fn3
 .byte   W03
 .byte   Fn3
 .byte   W02
 .byte   Fn3
 .byte   W03
 .byte   Fn3
 .byte   W02
 .byte   Fn3
 .byte   W01
 .byte   N78 ,Ds3
 .byte   W32
 .byte   W03
 .byte   BEND , c_v+1
 .byte   W03
 .byte   Fn3
 .byte   W03
 .byte   Fn3
 .byte   W02
 .byte   Fn3
 .byte   W03
 .byte   Fn3
 .byte   W02
 .byte   Fn3
 .byte   W03
 .byte   Fn3
 .byte   W03
 .byte   Fn3
 .byte   W02
 .byte   Fn3
 .byte   W03
 .byte   Fn3
 .byte   W02
 .byte   Fn3
 .byte   W02
@ 004   ----------------------------------------
 .byte   W01
 .byte   Fn3
 .byte   W03
 .byte   Fn3
 .byte   W02
 .byte   Fn3
 .byte   W03
 .byte   Fn3
 .byte   W02
 .byte   Fn3
 .byte   W03
 .byte   Fn3
 .byte   W03
 .byte   Fn3
 .byte   N78 ,Cs3
 .byte   W36
 .byte   BEND , c_v+1
 .byte   W02
 .byte   Fn3
 .byte   W03
 .byte   Fn3
 .byte   W02
 .byte   Fn3
 .byte   W03
 .byte   Fn3
 .byte   W03
 .byte   Fn3
 .byte   W02
 .byte   Fn3
 .byte   W03
 .byte   Fn3
 .byte   W02
 .byte   Fn3
 .byte   W03
 .byte   Fn3
 .byte   W03
 .byte   Fn3
 .byte   W02
 .byte   Fn3
 .byte   W03
 .byte   Fn3
 .byte   W02
 .byte   Fn3
 .byte   W03
 .byte   Fn3
 .byte   W03
 .byte   Fn3
 .byte   W02
 .byte   Fn3
 .byte   W02
@ 005   ----------------------------------------
 .byte   W01
 .byte   Fn3
 .byte   W01
 .byte   TIE ,Dn3
 .byte   W40
 .byte   BEND , c_v+1
 .byte   W03
 .byte   Fn3
 .byte   W02
 .byte   Fn3
 .byte   W03
 .byte   Fn3
 .byte   W03
 .byte   Fn3
 .byte   W02
 .byte   Fn3
 .byte   W03
 .byte   Fn3
 .byte   W02
 .byte   Fn3
 .byte   W03
 .byte   Fn3
 .byte   W03
 .byte   Fn3
 .byte   W02
 .byte   Fn3
 .byte   W03
 .byte   Fn3
 .byte   W02
 .byte   Fn3
 .byte   W03
 .byte   Fn3
 .byte   W03
 .byte   Fn3
 .byte   W02
 .byte   Fn3
 .byte   W03
 .byte   Fn3
 .byte   W03
 .byte   Fn3
 .byte   W02
 .byte   Fn3
 .byte   W03
 .byte   Fn3
 .byte   W02
 .byte   Fn3
 .byte   W02
@ 006   ----------------------------------------
 .byte   W01
 .byte   Fn3
 .byte   W03
 .byte   Fn3
 .byte   W02
 .byte   Fn3
 .byte   W03
 .byte   Fn3
 .byte   W02
 .byte   Fn3
 .byte   W03
 .byte   Fn3
 .byte   W03
 .byte   Fn3
 .byte   W02
 .byte   Fn3
 .byte   W03
 .byte   Fn3
 .byte   W02
 .byte   Fn3
 .byte   W03
 .byte   Fn3
 .byte   W03
 .byte   Fn3
 .byte   W02
 .byte   Fn3
 .byte   W03
 .byte   Fn3
 .byte   W02
 .byte   Fn3
 .byte   W03
 .byte   Fn3
 .byte   W03
 .byte   Fn3
 .byte   W02
 .byte   Fn3
 .byte   W03
 .byte   Fn3
 .byte   W02
 .byte   Fn3
 .byte   W03
 .byte   Fn3
 .byte   W03
 .byte   Fn3
 .byte   W02
 .byte   Fn3
 .byte   W03
 .byte   Fn3
 .byte   W02
 .byte   Fn3
 .byte   W02
 .byte   EOT
 .byte   W01
 .byte   N78
 .byte   W30
@ 007   ----------------------------------------
 .byte   W10
 .byte   BEND , c_v+1
 .byte   W03
 .byte   Fn3
 .byte   W03
 .byte   Fn3
 .byte   W02
 .byte   Fn3
 .byte   W03
 .byte   Fn3
 .byte   W02
 .byte   Fn3
 .byte   W03
 .byte   Fn3
 .byte   W03
 .byte   Fn3
 .byte   W02
 .byte   Fn3
 .byte   W03
 .byte   Fn3
 .byte   W03
 .byte   Fn3
 .byte   W02
 .byte   Fn3
 .byte   W03
 .byte   Fn3
 .byte   W02
 .byte   Fn3
 .byte   W03
 .byte   Fn3
 .byte   W03
 .byte   Fn3
 .byte   N78 ,Cn3
 .byte   W40
 .byte   W01
 .byte   BEND , c_v+1
 .byte   W02
 .byte   Fn3
 .byte   W03
@ 008   ----------------------------------------
 .byte   Fn3
 .byte   W02
 .byte   Fn3
 .byte   W03
 .byte   Fn3
 .byte   W03
 .byte   Fn3
 .byte   W02
 .byte   Fn3
 .byte   W03
 .byte   Fn3
 .byte   W03
 .byte   Fn3
 .byte   W02
 .byte   Fn3
 .byte   W03
 .byte   Fn3
 .byte   W02
 .byte   Fn3
 .byte   W03
 .byte   Fn3
 .byte   W03
 .byte   Fn3
 .byte   W02
 .byte   Fn3
 .byte   W03
 .byte   Fn3
 .byte   N78 ,Ds3
 .byte   W36
 .byte   BEND , c_v+1
 .byte   W02
 .byte   Fn3
 .byte   W03
 .byte   Fn3
 .byte   W03
 .byte   Fn3
 .byte   W02
 .byte   Fn3
 .byte   W03
 .byte   Fn3
 .byte   W02
 .byte   Fn3
 .byte   W03
 .byte   Fn3
 .byte   W03
 .byte   Fn3
 .byte   W02
 .byte   Fn3
 .byte   W03
@ 009   ----------------------------------------
 .byte   Fn3
 .byte   W02
 .byte   Fn3
 .byte   W03
 .byte   Fn3
 .byte   W03
 .byte   Fn3
 .byte   W02
 .byte   Fn3
 .byte   W03
 .byte   Fn3
 .byte   W02
 .byte   Fn3
 .byte   W03
 .byte   Fn3
 .byte   W01
 .byte   N78 ,Cs3
 .byte   W32
 .byte   W03
 .byte   BEND , c_v+1
 .byte   W03
 .byte   Fn3
 .byte   W02
 .byte   Fn3
 .byte   W03
 .byte   Fn3
 .byte   W02
 .byte   Fn3
 .byte   W03
 .byte   Fn3
 .byte   W03
 .byte   Fn3
 .byte   W02
 .byte   Fn3
 .byte   W03
 .byte   Fn3
 .byte   W02
 .byte   Fn3
 .byte   W03
 .byte   Fn3
 .byte   W03
 .byte   Fn3
 .byte   W02
 .byte   Fn3
 .byte   W03
 .byte   Fn3
 .byte   W02
 .byte   Fn3
 .byte   W03
 .byte   Fn3
 .byte   W03
@ 010   ----------------------------------------
 .byte   Fn3
 .byte   W02
 .byte   Fn3
 .byte   W01
 .byte   TIE ,Dn3
 .byte   W40
 .byte   BEND , c_v+1
 .byte   W03
 .byte   Fn3
 .byte   W03
 .byte   Fn3
 .byte   W02
 .byte   Fn3
 .byte   W03
 .byte   Fn3
 .byte   W02
 .byte   Fn3
 .byte   W03
 .byte   Fn3
 .byte   W03
 .byte   Fn3
 .byte   W02
 .byte   Fn3
 .byte   W03
 .byte   Fn3
 .byte   W03
 .byte   Fn3
 .byte   W02
 .byte   Fn3
 .byte   W03
 .byte   Fn3
 .byte   W02
 .byte   Fn3
 .byte   W03
 .byte   Fn3
 .byte   W02
 .byte   Fn3
 .byte   W03
 .byte   Fn3
 .byte   W03
 .byte   Fn3
 .byte   W02
 .byte   Fn3
 .byte   W03
 .byte   Fn3
 .byte   W03
@ 011   ----------------------------------------
 .byte   Fn3
 .byte   W02
 .byte   Fn3
 .byte   W03
 .byte   Fn3
 .byte   W02
 .byte   Fn3
 .byte   W03
 .byte   Fn3
 .byte   W03
 .byte   Fn3
 .byte   W02
 .byte   Fn3
 .byte   W03
 .byte   Fn3
 .byte   W02
 .byte   Fn3
 .byte   W03
 .byte   Fn3
 .byte   W03
 .byte   Fn3
 .byte   W02
 .byte   Fn3
 .byte   W03
 .byte   Fn3
 .byte   W02
 .byte   Fn3
 .byte   W03
 .byte   Fn3
 .byte   W03
 .byte   Fn3
 .byte   W02
 .byte   Fn3
 .byte   W03
 .byte   Fn3
 .byte   W02
 .byte   Fn3
 .byte   W03
 .byte   Fn3
 .byte   W03
 .byte   Fn3
 .byte   W02
 .byte   Fn3
 .byte   W03
 .byte   Fn3
 .byte   W02
 .byte   Fn3
 .byte   W03
 .byte   Fn3
 .byte   W03
 .byte   Fn3
 .byte   W01
 .byte   EOT
 .byte   W01
 .byte   N03 ,Gn2
 .byte   W04
 .byte   As2
 .byte   W03
 .byte   Cs3
 .byte   W03
 .byte   En3
 .byte   W04
 .byte   Cs3
 .byte   W03
 .byte   As2
 .byte   W04
 .byte   Gn2
 .byte   W03
 .byte   As2
 .byte   W03
 .byte   Cs3
 .byte   W02
@ 012   ----------------------------------------
 .byte   W02
 .byte   En3
 .byte   W03
 .byte   Cs3
 .byte   W03
 .byte   As2
 .byte   W04
 .byte   Gn2
 .byte   W03
 .byte   As2
 .byte   W04
 .byte   Cs3
 .byte   W03
 .byte   En3
 .byte   W03
 .byte   Cs3
 .byte   W04
 .byte   As2
 .byte   W03
 .byte   Gn2
 .byte   W04
 .byte   As2
 .byte   W03
 .byte   Cs3
 .byte   W03
 .byte   As2
 .byte   W04
 .byte   Cs3
 .byte   W03
 .byte   En3
 .byte   W04
 .byte   Gn3
 .byte   W03
 .byte   En3
 .byte   W03
 .byte   Cs3
 .byte   W04
 .byte   As2
 .byte   W03
 .byte   Cs3
 .byte   W03
 .byte   En3
 .byte   W04
 .byte   Gn3
 .byte   W03
 .byte   En3
 .byte   W04
 .byte   Cs3
 .byte   W03
 .byte   As2
 .byte   W03
 .byte   Cs3
 .byte   W04
 .byte   En3
 .byte   W03
 .byte   Gn3
 .byte   W03
@ 013   ----------------------------------------
 .byte   W01
 .byte   En3
 .byte   W03
 .byte   Cs3
 .byte   W04
 .byte   As2
 .byte   W03
 .byte   Cs3
 .byte   W03
 .byte   En3
 .byte   W04
 .byte   Gn2
 .byte   W03
 .byte   As2
 .byte   W03
 .byte   Cs3
 .byte   W04
 .byte   En3
 .byte   W03
 .byte   Cs3
 .byte   W04
 .byte   As2
 .byte   W03
 .byte   Gn2
 .byte   W03
 .byte   As2
 .byte   W04
 .byte   Cs3
 .byte   W03
 .byte   En3
 .byte   W04
 .byte   Cs3
 .byte   W03
 .byte   As2
 .byte   W03
 .byte   Gn2
 .byte   W04
 .byte   As2
 .byte   W03
 .byte   Cs3
 .byte   W03
 .byte   En3
 .byte   W04
 .byte   Cs3
 .byte   W03
 .byte   As2
 .byte   W04
 .byte   Gn2
 .byte   W03
 .byte   As2
 .byte   W03
 .byte   Cs3
 .byte   W04
 .byte   As2
 .byte   W03
 .byte   Cs3
 .byte   W04
@ 014   ----------------------------------------
 .byte   En3
 .byte   W03
 .byte   Gn3
 .byte   W03
 .byte   En3
 .byte   W04
 .byte   Cs3
 .byte   W03
 .byte   As2
 .byte   W04
 .byte   Cs3
 .byte   W03
 .byte   En3
 .byte   W03
 .byte   Gn3
 .byte   W04
 .byte   En3
 .byte   W03
 .byte   Cs3
 .byte   W04
 .byte   As2
 .byte   W03
 .byte   Cs3
 .byte   W03
 .byte   En3
 .byte   W04
 .byte   Gn3
 .byte   W03
 .byte   En3
 .byte   W04
 .byte   Cs3
 .byte   W03
 .byte   As2
 .byte   W03
 .byte   Cs3
 .byte   W04
 .byte   En3
 .byte   W03
 .byte   N06 ,Ds3
 .byte   W10
 .byte   N06
 .byte   W21
 .byte   N06
 .byte   W01
@ 015   ----------------------------------------
 .byte   W19
 .byte   N01
 .byte   W03
 .byte   N01
 .byte   W04
 .byte   N01
 .byte   W03
 .byte   N06
 .byte   W10
 .byte   N56 ,Dn3
 .byte   W22
 .byte   GOTO
  .word Label_4_0134F2D5
@ 016   ----------------------------------------
 .byte   W19
 .byte   BEND , c_v+1
 .byte   W03
 .byte   Fn3
 .byte   W02
 .byte   Fn3
 .byte   W03
 .byte   Fn3
 .byte   W02
 .byte   Fn3
 .byte   W03
 .byte   Fn3
 .byte   W03
 .byte   Fn3
 .byte   FINE

@**************** Track 6 (Midi-Chn.5) ****************@

song2E_006:
@ 000   ----------------------------------------
 .byte   KEYSH , song2E_key+0
 .byte   VOICE , 33
 .byte   VOL , 22*song2E_mvl/mxv
 .byte   PAN , c_v+0
 .byte   An0
 .byte   VOL , 29*song2E_mvl/mxv
 .byte   BEND , c_v+0
 .byte   N09 ,Gn1 ,v092
 .byte   W01
 .byte   W01
 .byte   W01
 .byte   W01
 .byte   W01
 .byte   W01
 .byte   W01
 .byte   W01
 .byte   W01
 .byte   W01
 .byte   N09
 .byte   W01
 .byte   W01
 .byte   W01
 .byte   W01
 .byte   W01
 .byte   W01
 .byte   W01
 .byte   W01
 .byte   W01
 .byte   W01
 .byte   N04
 .byte   W01
 .byte   W01
 .byte   VOL , 25*song2E_mvl/mxv
 .byte   PAN , c_v+27
 .byte   Cs7
 .byte   W01
 .byte   W01
 .byte   W01
 .byte   En3
 .byte   Gs0
 .byte   VOL , 29*song2E_mvl/mxv
 .byte   N04
 .byte   W01
 .byte   W01
 .byte   W01
 .byte   W01
 .byte   W01
 .byte   N09
 .byte   W01
 .byte   W01
 .byte   W01
 .byte   W01
 .byte   W01
 .byte   W01
 .byte   W01
 .byte   W01
 .byte   W01
 .byte   W01
 .byte   N09
 .byte   W01
 .byte   W01
 .byte   W01
 .byte   W01
 .byte   W01
 .byte   W01
 .byte   W01
 .byte   W01
 .byte   W01
 .byte   W01
 .byte   N03
 .byte   W01
 .byte   W01
 .byte   W01
 .byte   N03
 .byte   W01
 .byte   W01
 .byte   W01
 .byte   PAN , c_v+16
 .byte   Cn5
 .byte   VOL , 31*song2E_mvl/mxv
 .byte   W01
 .byte   N03
 .byte   W01
 .byte   W01
 .byte   W01
 .byte   PAN , c_v+0
 .byte   VOL , 34*song2E_mvl/mxv
 .byte   FnM1
 .byte   N03
 .byte   W01
 .byte   W01
 .byte   W01
 .byte   N03
 .byte   W01
 .byte   W01
 .byte   W01
 .byte   W01
 .byte   N03
 .byte   W01
 .byte   W01
 .byte   W01
 .byte   N03
 .byte   W01
 .byte   W01
 .byte   W01
 .byte   N03
 .byte   W01
 .byte   W01
 .byte   W01
 .byte   W01
 .byte   N03
 .byte   W01
 .byte   W01
 .byte   W01
 .byte   N09
 .byte   W01
 .byte   W01
 .byte   W01
 .byte   W01
 .byte   W01
 .byte   W01
 .byte   W01
 .byte   W01
 .byte   W01
 .byte   W01
 .byte   PAN , c_v+11
 .byte   Gn0
 .byte   VOL , 35*song2E_mvl/mxv
 .byte   N09
 .byte   W01
 .byte   W01
 .byte   W01
 .byte   PAN , c_v+0
 .byte   VOL , 37*song2E_mvl/mxv
 .byte   Ds1
 .byte   W01
 .byte   W01
 .byte   W01
@ 001   ----------------------------------------
 .byte   W01
 .byte   W01
 .byte   W01
 .byte   W01
 .byte   N04
 .byte   W01
 .byte   W01
 .byte   W01
 .byte   W01
 .byte   W01
 .byte   N04
 .byte   W01
 .byte   W01
 .byte   W01
 .byte   W01
 .byte   W01
 .byte   N09
 .byte   W01
 .byte   W01
 .byte   W01
 .byte   W01
 .byte   W01
 .byte   W01
 .byte   W01
 .byte   W01
 .byte   W01
 .byte   W01
 .byte   N09
 .byte   W01
 .byte   W01
 .byte   W01
 .byte   W01
 .byte   PAN , c_v+8
 .byte   VOL , 38*song2E_mvl/mxv
 .byte   Gn5
 .byte   W01
 .byte   W01
 .byte   W01
 .byte   W01
 .byte   W01
 .byte   W01
 .byte   N03
 .byte   W01
 .byte   VOL , 40*song2E_mvl/mxv
 .byte   PAN , c_v+0
 .byte   Cs8
 .byte   W01
 .byte   W01
 .byte   W01
 .byte   N03
 .byte   W01
 .byte   W01
 .byte   W01
 .byte   N03
 .byte   W01
 .byte   W01
 .byte   W01
 .byte   N03
 .byte   W01
 .byte   W01
 .byte   W01
 .byte   W01
 .byte   N03
 .byte   W01
 .byte   W01
 .byte   W01
 .byte   N03
 .byte   W01
 .byte   W01
 .byte   W01
 .byte   N03
 .byte   W01
 .byte   W01
 .byte   W01
 .byte   W01
 .byte   N03
 .byte   W01
 .byte   W01
 .byte   W01
 .byte   N03
 .byte   W01
 .byte   VOL , 41*song2E_mvl/mxv
 .byte   PAN , c_v+7
 .byte   Gn7
 .byte   W01
 .byte   W01
 .byte   W01
 .byte   N09
 .byte   W01
 .byte   W01
 .byte   W01
 .byte   W01
 .byte   W01
 .byte   W01
 .byte   W01
 .byte   W01
 .byte   W01
 .byte   W01
 .byte   N09
 .byte   W01
 .byte   W01
 .byte   W01
 .byte   W01
 .byte   W01
 .byte   W01
 .byte   W01
 .byte   W01
 .byte   W01
Label_5_0134F6B9:
 .byte   W01
 .byte   N04 ,Gn1 ,v092
 .byte   W01
 .byte   W01
 .byte   W01
 .byte   W01
 .byte   W01
 .byte   N04
 .byte   W01
 .byte   W01
 .byte   W01
 .byte   W01
 .byte   W01
 .byte   N09
 .byte   W01
@ 002   ----------------------------------------
 .byte   W01
 .byte   W01
 .byte   W01
 .byte   W01
 .byte   W01
 .byte   W01
 .byte   W01
 .byte   W01
 .byte   W01
 .byte   N09
 .byte   W01
 .byte   W01
 .byte   W01
 .byte   W01
 .byte   W01
 .byte   W01
 .byte   W01
 .byte   W01
 .byte   W01
 .byte   W01
 .byte   N03
 .byte   W01
 .byte   W01
 .byte   W01
 .byte   N03
 .byte   W01
 .byte   W01
 .byte   W01
 .byte   N03
 .byte   W01
 .byte   W01
 .byte   W01
 .byte   W01
 .byte   N03
 .byte   W01
 .byte   W01
 .byte   W01
 .byte   N03
 .byte   W01
 .byte   W01
 .byte   W01
 .byte   N03
 .byte   W01
 .byte   W01
 .byte   W01
 .byte   W01
 .byte   N03
 .byte   W01
 .byte   W01
 .byte   W01
 .byte   N03
 .byte   W01
 .byte   W01
 .byte   W01
 .byte   N03
 .byte   W01
 .byte   W01
 .byte   W01
 .byte   W01
 .byte   N09
 .byte   W01
 .byte   W01
 .byte   W01
 .byte   W01
 .byte   W01
 .byte   W01
 .byte   W01
 .byte   W01
 .byte   W01
 .byte   W01
 .byte   N09
 .byte   W01
 .byte   W01
 .byte   W01
 .byte   W01
 .byte   W01
 .byte   W01
 .byte   W01
 .byte   W01
 .byte   W01
 .byte   W01
 .byte   N04
 .byte   W01
 .byte   W01
 .byte   W01
 .byte   W01
 .byte   W01
 .byte   N04
 .byte   W01
 .byte   W01
 .byte   W01
 .byte   W01
 .byte   W01
 .byte   N09
 .byte   W01
 .byte   W01
 .byte   W01
 .byte   W01
 .byte   W01
 .byte   W01
 .byte   W01
 .byte   W01
 .byte   W01
 .byte   W01
 .byte   N09
 .byte   W01
 .byte   W01
 .byte   W01
 .byte   W01
 .byte   W01
 .byte   W01
 .byte   W01
@ 003   ----------------------------------------
 .byte   W01
 .byte   W01
 .byte   W01
 .byte   N03
 .byte   W01
 .byte   W01
 .byte   W01
 .byte   N03
 .byte   W01
 .byte   W01
 .byte   W01
 .byte   W01
 .byte   N03
 .byte   W01
 .byte   W01
 .byte   W01
 .byte   N03
 .byte   W01
 .byte   W01
 .byte   W01
 .byte   N03
 .byte   W01
 .byte   W01
 .byte   W01
 .byte   W01
 .byte   N03
 .byte   W01
 .byte   W01
 .byte   W01
 .byte   N03
 .byte   W01
 .byte   W01
 .byte   W01
 .byte   N03
 .byte   W01
 .byte   W01
 .byte   W01
 .byte   W01
 .byte   N03
 .byte   W01
 .byte   W01
 .byte   W01
 .byte   N09
 .byte   W01
 .byte   W01
 .byte   W01
 .byte   W01
 .byte   W01
 .byte   W01
 .byte   W01
 .byte   W01
 .byte   W01
 .byte   W01
 .byte   N09
 .byte   W01
 .byte   W01
 .byte   W01
 .byte   W01
 .byte   W01
 .byte   W01
 .byte   W01
 .byte   W01
 .byte   W01
 .byte   W01
 .byte   N04
 .byte   W01
 .byte   W01
 .byte   W01
 .byte   W01
 .byte   W01
 .byte   N04
 .byte   W01
 .byte   W01
 .byte   W01
 .byte   W01
 .byte   W01
 .byte   N09
 .byte   W01
 .byte   W01
 .byte   W01
 .byte   W01
 .byte   W01
 .byte   W01
 .byte   W01
 .byte   W01
 .byte   W01
 .byte   W01
 .byte   N09
 .byte   W01
 .byte   W01
 .byte   W01
 .byte   W01
 .byte   W01
 .byte   W01
 .byte   W01
 .byte   W01
 .byte   W01
 .byte   W01
 .byte   N03
 .byte   W01
 .byte   W01
 .byte   W01
 .byte   N03
 .byte   W01
 .byte   W01
 .byte   W01
 .byte   W01
 .byte   N03
 .byte   W01
 .byte   W01
 .byte   W01
 .byte   N03
 .byte   W01
 .byte   W01
 .byte   W01
@ 004   ----------------------------------------
 .byte   N03
 .byte   W01
 .byte   W01
 .byte   W01
 .byte   W01
 .byte   N03
 .byte   W01
 .byte   W01
 .byte   W01
 .byte   N03
 .byte   W01
 .byte   W01
 .byte   W01
 .byte   N03
 .byte   W01
 .byte   W01
 .byte   W01
 .byte   W01
 .byte   N03
 .byte   W01
 .byte   W01
 .byte   W01
 .byte   N09
 .byte   W01
 .byte   W01
 .byte   W01
 .byte   W01
 .byte   W01
 .byte   W01
 .byte   W01
 .byte   W01
 .byte   W01
 .byte   W01
 .byte   N09
 .byte   W01
 .byte   W01
 .byte   W01
 .byte   W01
 .byte   W01
 .byte   W01
 .byte   W01
 .byte   W01
 .byte   W01
 .byte   W01
 .byte   N04
 .byte   W01
 .byte   W01
 .byte   W01
 .byte   W01
 .byte   W01
 .byte   N04
 .byte   W01
 .byte   W01
 .byte   W01
 .byte   W01
 .byte   W01
 .byte   N09
 .byte   W01
 .byte   W01
 .byte   W01
 .byte   W01
 .byte   W01
 .byte   W01
 .byte   W01
 .byte   W01
 .byte   W01
 .byte   W01
 .byte   N09
 .byte   W01
 .byte   W01
 .byte   W01
 .byte   W01
 .byte   W01
 .byte   W01
 .byte   W01
 .byte   W01
 .byte   W01
 .byte   W01
 .byte   N03
 .byte   W01
 .byte   W01
 .byte   W01
 .byte   W01
 .byte   N03
 .byte   W01
 .byte   W01
 .byte   W01
 .byte   N03
 .byte   W01
 .byte   W01
 .byte   W01
 .byte   N03
 .byte   W01
 .byte   W01
 .byte   W01
 .byte   W01
 .byte   N03
 .byte   W01
 .byte   W01
 .byte   W01
 .byte   N03
 .byte   W01
 .byte   W01
 .byte   W01
 .byte   N03
 .byte   W01
 .byte   W01
 .byte   W01
 .byte   W01
 .byte   N03
 .byte   W01
 .byte   W01
 .byte   W01
 .byte   N03
 .byte   W01
 .byte   W01
@ 005   ----------------------------------------
 .byte   W01
 .byte   W01
 .byte   N09
 .byte   W01
 .byte   W01
 .byte   W01
 .byte   W01
 .byte   W01
 .byte   W01
 .byte   W01
 .byte   W01
 .byte   W01
 .byte   W01
 .byte   N09
 .byte   W01
 .byte   W01
 .byte   W01
 .byte   W01
 .byte   W01
 .byte   W01
 .byte   W01
 .byte   W01
 .byte   W01
 .byte   W01
 .byte   N04
 .byte   W01
 .byte   W01
 .byte   W01
 .byte   W01
 .byte   W01
 .byte   N04
 .byte   W01
 .byte   W01
 .byte   W01
 .byte   W01
 .byte   W01
 .byte   N09
 .byte   W01
 .byte   W01
 .byte   W01
 .byte   W01
 .byte   W01
 .byte   W01
 .byte   W01
 .byte   W01
 .byte   W01
 .byte   W01
 .byte   N09
 .byte   W01
 .byte   W01
 .byte   W01
 .byte   W01
 .byte   W01
 .byte   W01
 .byte   W01
 .byte   W01
 .byte   W01
 .byte   W01
 .byte   N03
 .byte   W01
 .byte   W01
 .byte   W01
 .byte   N03
 .byte   W01
 .byte   W01
 .byte   W01
 .byte   N03
 .byte   W01
 .byte   W01
 .byte   W01
 .byte   W01
 .byte   N03
 .byte   W01
 .byte   W01
 .byte   W01
 .byte   N03
 .byte   W01
 .byte   W01
 .byte   W01
 .byte   N03
 .byte   W01
 .byte   W01
 .byte   W01
 .byte   W01
 .byte   N03
 .byte   W01
 .byte   W01
 .byte   W01
 .byte   N03
 .byte   W01
 .byte   W01
 .byte   W01
 .byte   N03
 .byte   W01
 .byte   W01
 .byte   W01
 .byte   W01
 .byte   N09
 .byte   W01
 .byte   W01
 .byte   W01
 .byte   W01
 .byte   W01
 .byte   W01
 .byte   W01
 .byte   W01
 .byte   W01
 .byte   W01
 .byte   N09
 .byte   W01
 .byte   W01
 .byte   W01
 .byte   W01
@ 006   ----------------------------------------
 .byte   W01
 .byte   W01
 .byte   W01
 .byte   W01
 .byte   W01
 .byte   W01
 .byte   N04
 .byte   W01
 .byte   W01
 .byte   W01
 .byte   W01
 .byte   W01
 .byte   N04
 .byte   W01
 .byte   W01
 .byte   W01
 .byte   W01
 .byte   W01
 .byte   N09
 .byte   W01
 .byte   W01
 .byte   W01
 .byte   W01
 .byte   W01
 .byte   W01
 .byte   W01
 .byte   W01
 .byte   W01
 .byte   W01
 .byte   N09
 .byte   W01
 .byte   W01
 .byte   W01
 .byte   W01
 .byte   W01
 .byte   W01
 .byte   W01
 .byte   W01
 .byte   W01
 .byte   W01
 .byte   N03
 .byte   W01
 .byte   W01
 .byte   W01
 .byte   N03
 .byte   W01
 .byte   W01
 .byte   W01
 .byte   N03
 .byte   W01
 .byte   W01
 .byte   W01
 .byte   W01
 .byte   N03
 .byte   W01
 .byte   W01
 .byte   W01
 .byte   N03
 .byte   W01
 .byte   W01
 .byte   W01
 .byte   N03
 .byte   W01
 .byte   W01
 .byte   W01
 .byte   W01
 .byte   N03
 .byte   W01
 .byte   W01
 .byte   W01
 .byte   N03
 .byte   W01
 .byte   W01
 .byte   W01
 .byte   N03
 .byte   W01
 .byte   W01
 .byte   W01
 .byte   W01
 .byte   N09
 .byte   W01
 .byte   W01
 .byte   W01
 .byte   W01
 .byte   W01
 .byte   W01
 .byte   W01
 .byte   W01
 .byte   W01
 .byte   W01
 .byte   N09
 .byte   W01
 .byte   W01
 .byte   W01
 .byte   W01
 .byte   W01
 .byte   W01
 .byte   W01
 .byte   W01
 .byte   W01
 .byte   W01
 .byte   N04
 .byte   W01
 .byte   W01
 .byte   W01
 .byte   W01
 .byte   W01
 .byte   N04
 .byte   W01
 .byte   W01
 .byte   W01
 .byte   W01
 .byte   W01
@ 007   ----------------------------------------
 .byte   N09
 .byte   W01
 .byte   W01
 .byte   W01
 .byte   W01
 .byte   W01
 .byte   W01
 .byte   W01
 .byte   W01
 .byte   W01
 .byte   W01
 .byte   N09
 .byte   W01
 .byte   W01
 .byte   W01
 .byte   W01
 .byte   W01
 .byte   W01
 .byte   W01
 .byte   W01
 .byte   W01
 .byte   W01
 .byte   N03
 .byte   W01
 .byte   W01
 .byte   W01
 .byte   N03
 .byte   W01
 .byte   W01
 .byte   W01
 .byte   W01
 .byte   N03
 .byte   W01
 .byte   W01
 .byte   W01
 .byte   N03
 .byte   W01
 .byte   W01
 .byte   W01
 .byte   N03
 .byte   W01
 .byte   W01
 .byte   W01
 .byte   W01
 .byte   N03
 .byte   W01
 .byte   W01
 .byte   W01
 .byte   N03
 .byte   W01
 .byte   W01
 .byte   W01
 .byte   N03
 .byte   W01
 .byte   W01
 .byte   W01
 .byte   W01
 .byte   N03
 .byte   W01
 .byte   W01
 .byte   W01
 .byte   N09
 .byte   W01
 .byte   W01
 .byte   W01
 .byte   W01
 .byte   W01
 .byte   W01
 .byte   W01
 .byte   W01
 .byte   W01
 .byte   W01
 .byte   N09
 .byte   W01
 .byte   W01
 .byte   W01
 .byte   W01
 .byte   W01
 .byte   W01
 .byte   W01
 .byte   W01
 .byte   W01
 .byte   W01
 .byte   N04
 .byte   W01
 .byte   W01
 .byte   W01
 .byte   W01
 .byte   W01
 .byte   N04
 .byte   W01
 .byte   W01
 .byte   W01
 .byte   W01
 .byte   W01
 .byte   N09
 .byte   W01
 .byte   W01
 .byte   W01
 .byte   W01
 .byte   W01
 .byte   W01
 .byte   W01
 .byte   W01
 .byte   W01
 .byte   W01
 .byte   N09
 .byte   W01
 .byte   W01
 .byte   W01
 .byte   W01
 .byte   W01
 .byte   W01
@ 008   ----------------------------------------
 .byte   W01
 .byte   W01
 .byte   W01
 .byte   W01
 .byte   N03
 .byte   W01
 .byte   W01
 .byte   W01
 .byte   N03
 .byte   W01
 .byte   W01
 .byte   W01
 .byte   W01
 .byte   N03
 .byte   W01
 .byte   W01
 .byte   W01
 .byte   N03
 .byte   W01
 .byte   W01
 .byte   W01
 .byte   W01
 .byte   N03
 .byte   W01
 .byte   W01
 .byte   W01
 .byte   N03
 .byte   W01
 .byte   W01
 .byte   W01
 .byte   N03
 .byte   W01
 .byte   W01
 .byte   W01
 .byte   W01
 .byte   N03
 .byte   W01
 .byte   W01
 .byte   W01
 .byte   N03
 .byte   W01
 .byte   W01
 .byte   W01
 .byte   N09
 .byte   W01
 .byte   W01
 .byte   W01
 .byte   W01
 .byte   W01
 .byte   W01
 .byte   W01
 .byte   W01
 .byte   W01
 .byte   W01
 .byte   N09
 .byte   W01
 .byte   W01
 .byte   W01
 .byte   W01
 .byte   W01
 .byte   W01
 .byte   W01
 .byte   W01
 .byte   W01
 .byte   W01
 .byte   N04
 .byte   W01
 .byte   W01
 .byte   W01
 .byte   W01
 .byte   W01
 .byte   N04
 .byte   W01
 .byte   W01
 .byte   W01
 .byte   W01
 .byte   W01
 .byte   N09
 .byte   W01
 .byte   W01
 .byte   W01
 .byte   W01
 .byte   W01
 .byte   W01
 .byte   W01
 .byte   W01
 .byte   W01
 .byte   W01
 .byte   N09
 .byte   W01
 .byte   W01
 .byte   W01
 .byte   W01
 .byte   W01
 .byte   W01
 .byte   W01
 .byte   W01
 .byte   W01
 .byte   W01
 .byte   N03
 .byte   W01
 .byte   W01
 .byte   W01
 .byte   W01
 .byte   N03
 .byte   W01
 .byte   W01
 .byte   W01
 .byte   N03
 .byte   W01
 .byte   W01
 .byte   W01
 .byte   N03
 .byte   W01
 .byte   W01
@ 009   ----------------------------------------
 .byte   W01
 .byte   W01
 .byte   N03
 .byte   W01
 .byte   W01
 .byte   W01
 .byte   N03
 .byte   W01
 .byte   W01
 .byte   W01
 .byte   N03
 .byte   W01
 .byte   W01
 .byte   W01
 .byte   W01
 .byte   N03
 .byte   W01
 .byte   W01
 .byte   W01
 .byte   N03
 .byte   W01
 .byte   W01
 .byte   W01
 .byte   W01
 .byte   N09
 .byte   W01
 .byte   W01
 .byte   W01
 .byte   W01
 .byte   W01
 .byte   W01
 .byte   W01
 .byte   W01
 .byte   W01
 .byte   W01
 .byte   N09
 .byte   W01
 .byte   W01
 .byte   W01
 .byte   W01
 .byte   W01
 .byte   W01
 .byte   W01
 .byte   W01
 .byte   W01
 .byte   W01
 .byte   N04
 .byte   W01
 .byte   W01
 .byte   W01
 .byte   W01
 .byte   W01
 .byte   N04
 .byte   W01
 .byte   W01
 .byte   W01
 .byte   W01
 .byte   W01
 .byte   N09
 .byte   W01
 .byte   W01
 .byte   W01
 .byte   W01
 .byte   W01
 .byte   W01
 .byte   W01
 .byte   W01
 .byte   W01
 .byte   W01
 .byte   N09
 .byte   W01
 .byte   W01
 .byte   W01
 .byte   W01
 .byte   W01
 .byte   W01
 .byte   W01
 .byte   W01
 .byte   W01
 .byte   W01
 .byte   N03
 .byte   W01
 .byte   W01
 .byte   W01
 .byte   N03
 .byte   W01
 .byte   W01
 .byte   W01
 .byte   N03
 .byte   W01
 .byte   W01
 .byte   W01
 .byte   W01
 .byte   N03
 .byte   W01
 .byte   W01
 .byte   W01
 .byte   N03
 .byte   W01
 .byte   W01
 .byte   W01
 .byte   N03
 .byte   W01
 .byte   W01
 .byte   W01
 .byte   W01
 .byte   N03
 .byte   W01
 .byte   W01
 .byte   W01
 .byte   N03
 .byte   W01
 .byte   W01
 .byte   W01
 .byte   N03
 .byte   W01
@ 010   ----------------------------------------
 .byte   W01
 .byte   W01
 .byte   W01
 .byte   N09
 .byte   W01
 .byte   W01
 .byte   W01
 .byte   W01
 .byte   W01
 .byte   W01
 .byte   W01
 .byte   W01
 .byte   W01
 .byte   W01
 .byte   N09
 .byte   W01
 .byte   W01
 .byte   W01
 .byte   W01
 .byte   W01
 .byte   W01
 .byte   W01
 .byte   W01
 .byte   W01
 .byte   W01
 .byte   N04
 .byte   W01
 .byte   W01
 .byte   W01
 .byte   W01
 .byte   W01
 .byte   N04
 .byte   W01
 .byte   W01
 .byte   W01
 .byte   W01
 .byte   W01
 .byte   N09
 .byte   W01
 .byte   W01
 .byte   W01
 .byte   W01
 .byte   W01
 .byte   W01
 .byte   W01
 .byte   W01
 .byte   W01
 .byte   W01
 .byte   N09
 .byte   W01
 .byte   W01
 .byte   W01
 .byte   W01
 .byte   W01
 .byte   W01
 .byte   W01
 .byte   W01
 .byte   W01
 .byte   W01
 .byte   N03
 .byte   W01
 .byte   W01
 .byte   W01
 .byte   N03
 .byte   W01
 .byte   W01
 .byte   W01
 .byte   W01
 .byte   N03
 .byte   W01
 .byte   W01
 .byte   W01
 .byte   N03
 .byte   W01
 .byte   W01
 .byte   W01
 .byte   N03
 .byte   W01
 .byte   W01
 .byte   W01
 .byte   W01
 .byte   N03
 .byte   W01
 .byte   W01
 .byte   W01
 .byte   N03
 .byte   W01
 .byte   W01
 .byte   W01
 .byte   N03
 .byte   W01
 .byte   W01
 .byte   W01
 .byte   W01
 .byte   N03
 .byte   W01
 .byte   W01
 .byte   W01
 .byte   N09
 .byte   W01
 .byte   W01
 .byte   W01
 .byte   W01
 .byte   W01
 .byte   W01
 .byte   W01
 .byte   W01
 .byte   W01
 .byte   W01
 .byte   N09
 .byte   W01
 .byte   W01
 .byte   W01
@ 011   ----------------------------------------
 .byte   W01
 .byte   W01
 .byte   W01
 .byte   W01
 .byte   W01
 .byte   W01
 .byte   W01
 .byte   N04
 .byte   W01
 .byte   W01
 .byte   W01
 .byte   W01
 .byte   W01
 .byte   N04
 .byte   W01
 .byte   W01
 .byte   W01
 .byte   W01
 .byte   W01
 .byte   N09
 .byte   W01
 .byte   W01
 .byte   W01
 .byte   W01
 .byte   W01
 .byte   W01
 .byte   W01
 .byte   W01
 .byte   W01
 .byte   W01
 .byte   N09
 .byte   W01
 .byte   W01
 .byte   W01
 .byte   W01
 .byte   W01
 .byte   W01
 .byte   W01
 .byte   W01
 .byte   W01
 .byte   W01
 .byte   N03
 .byte   W01
 .byte   W01
 .byte   W01
 .byte   N03
 .byte   W01
 .byte   W01
 .byte   W01
 .byte   W01
 .byte   N03
 .byte   W01
 .byte   W01
 .byte   W01
 .byte   N03
 .byte   W01
 .byte   W01
 .byte   W01
 .byte   N03
 .byte   W01
 .byte   W01
 .byte   W01
 .byte   W01
 .byte   N03
 .byte   W01
 .byte   W01
 .byte   W01
 .byte   N03
 .byte   W01
 .byte   W01
 .byte   W01
 .byte   N03
 .byte   W01
 .byte   W01
 .byte   W01
 .byte   W01
 .byte   N03
 .byte   W01
 .byte   W01
 .byte   W01
 .byte   N30 ,As1 ,v112
 .byte   W01
 .byte   W01
 .byte   W01
 .byte   W01
 .byte   W01
 .byte   W01
 .byte   W01
 .byte   W01
 .byte   W01
 .byte   W01
 .byte   W01
 .byte   W01
 .byte   W01
 .byte   W01
 .byte   W01
 .byte   W01
 .byte   W01
 .byte   W01
 .byte   W01
 .byte   W01
 .byte   W01
 .byte   W01
 .byte   W01
 .byte   W02
 .byte   W01
 .byte   W01
 .byte   W02
@ 012   ----------------------------------------
 .byte   W01
 .byte   W01
 .byte   N09 ,En1
 .byte   W01
 .byte   W01
 .byte   W01
 .byte   W01
 .byte   W01
 .byte   W01
 .byte   W01
 .byte   W01
 .byte   W01
 .byte   W01
 .byte   N30 ,As1
 .byte   W01
 .byte   W01
 .byte   W01
 .byte   W01
 .byte   W01
 .byte   W01
 .byte   W01
 .byte   W01
 .byte   W01
 .byte   W01
 .byte   W01
 .byte   W01
 .byte   W01
 .byte   W01
 .byte   W01
 .byte   W01
 .byte   W01
 .byte   W01
 .byte   W01
 .byte   W02
 .byte   W01
 .byte   W01
 .byte   W01
 .byte   W01
 .byte   W02
 .byte   W01
 .byte   W01
 .byte   W01
 .byte   Cs2
 .byte   W01
 .byte   W01
 .byte   W01
 .byte   W01
 .byte   W01
 .byte   W01
 .byte   W01
 .byte   W01
 .byte   W01
 .byte   W01
 .byte   W01
 .byte   W01
 .byte   W01
 .byte   W01
 .byte   W01
 .byte   W01
 .byte   W01
 .byte   W01
 .byte   W01
 .byte   W01
 .byte   W01
 .byte   W01
 .byte   W02
 .byte   W01
 .byte   W01
 .byte   W01
 .byte   W02
 .byte   W01
 .byte   W01
 .byte   N09 ,Gn1
 .byte   W01
 .byte   W01
 .byte   W01
 .byte   W01
 .byte   W01
 .byte   W01
 .byte   W01
 .byte   W01
 .byte   W01
 .byte   W01
 .byte   N30 ,Cs2
 .byte   W01
 .byte   W01
 .byte   W01
 .byte   W01
 .byte   W01
 .byte   W01
 .byte   W01
 .byte   W01
 .byte   W01
 .byte   W01
 .byte   W01
 .byte   W01
 .byte   W01
@ 013   ----------------------------------------
 .byte   W01
 .byte   W01
 .byte   W01
 .byte   W01
 .byte   W01
 .byte   W01
 .byte   W01
 .byte   W01
 .byte   W01
 .byte   W01
 .byte   W01
 .byte   W02
 .byte   W01
 .byte   W01
 .byte   W01
 .byte   W01
 .byte   W01
 .byte   As1
 .byte   W02
 .byte   W02
 .byte   W03
 .byte   W03
 .byte   W03
 .byte   W03
 .byte   W05
 .byte   W05
 .byte   W04
 .byte   N09 ,En1
 .byte   W01
 .byte   W01
 .byte   W01
 .byte   W01
 .byte   W01
 .byte   W01
 .byte   W01
 .byte   W01
 .byte   W01
 .byte   W01
 .byte   N30 ,As1
 .byte   W01
 .byte   W01
 .byte   W01
 .byte   W01
 .byte   W01
 .byte   W01
 .byte   W01
 .byte   W01
 .byte   W01
 .byte   W01
 .byte   W01
 .byte   W01
 .byte   W01
 .byte   W01
 .byte   W01
 .byte   W01
 .byte   W01
 .byte   W01
 .byte   W01
 .byte   W01
 .byte   W01
 .byte   W01
 .byte   W01
 .byte   W02
 .byte   W01
 .byte   W01
 .byte   W02
 .byte   W01
 .byte   W01
 .byte   Cs2
 .byte   W01
 .byte   W01
 .byte   W01
 .byte   W01
 .byte   W01
 .byte   W01
 .byte   W01
@ 014   ----------------------------------------
 .byte   W01
 .byte   W01
 .byte   W01
 .byte   W01
 .byte   W01
 .byte   W01
 .byte   W01
 .byte   W01
 .byte   W01
 .byte   W01
 .byte   W01
 .byte   W01
 .byte   W01
 .byte   W01
 .byte   W01
 .byte   W01
 .byte   W01
 .byte   W02
 .byte   W01
 .byte   W01
 .byte   W01
 .byte   W01
 .byte   N09 ,Gn1
 .byte   W01
 .byte   W01
 .byte   W01
 .byte   W01
 .byte   W01
 .byte   W01
 .byte   W01
 .byte   W01
 .byte   W01
 .byte   W01
 .byte   W01
 .byte   N30 ,Cs2
 .byte   W01
 .byte   W01
 .byte   W01
 .byte   W01
 .byte   W01
 .byte   W01
 .byte   W01
 .byte   W01
 .byte   W01
 .byte   W01
 .byte   W01
 .byte   W01
 .byte   W01
 .byte   W01
 .byte   W01
 .byte   W01
 .byte   W01
 .byte   W01
 .byte   W01
 .byte   W01
 .byte   W01
 .byte   W02
 .byte   W01
 .byte   W01
 .byte   W02
 .byte   W01
 .byte   W01
 .byte   W01
 .byte   N09 ,Gs1
 .byte   W01
 .byte   W01
 .byte   W01
 .byte   W01
 .byte   W01
 .byte   W01
 .byte   W01
 .byte   W01
 .byte   W01
 .byte   W01
 .byte   N09
 .byte   W01
 .byte   W01
 .byte   W01
 .byte   W01
 .byte   W01
 .byte   W01
 .byte   W01
 .byte   W01
 .byte   W01
 .byte   W01
 .byte   W11
 .byte   N09
 .byte   W01
@ 015   ----------------------------------------
 .byte   W01
 .byte   W01
 .byte   W01
 .byte   W01
 .byte   W01
 .byte   W01
 .byte   W01
 .byte   W01
 .byte   W11
 .byte   N03
 .byte   W01
 .byte   W01
 .byte   W01
 .byte   N03
 .byte   W01
 .byte   W01
 .byte   W01
 .byte   W01
 .byte   N03
 .byte   W01
 .byte   W01
 .byte   W01
 .byte   N09
 .byte   W01
 .byte   W01
 .byte   W01
 .byte   W01
 .byte   W01
 .byte   W01
 .byte   W01
 .byte   W01
 .byte   W01
 .byte   W01
 .byte   Gn1 ,v092
 .byte   W01
 .byte   W01
 .byte   W01
 .byte   W01
 .byte   W01
 .byte   W01
 .byte   W01
 .byte   W01
 .byte   W01
 .byte   W01
 .byte   N09
 .byte   W01
 .byte   W01
 .byte   W01
 .byte   W01
 .byte   W01
 .byte   W01
 .byte   W01
 .byte   W01
 .byte   W01
 .byte   W01
 .byte   N04
 .byte   W01
 .byte   W01
 .byte   GOTO
  .word Label_5_0134F6B9
@ 016   ----------------------------------------
 .byte   W01
 .byte   W01
 .byte   W01
 .byte   N04 ,Gn1 ,v092
 .byte   W01
 .byte   W01
 .byte   W01
 .byte   W01
 .byte   W01
 .byte   N09
 .byte   W01
 .byte   W01
 .byte   W01
 .byte   W01
 .byte   W01
 .byte   W01
 .byte   W01
 .byte   W01
 .byte   W01
 .byte   W01
 .byte   N09
 .byte   W01
 .byte   W01
 .byte   W01
 .byte   W01
 .byte   W01
 .byte   W01
 .byte   W01
 .byte   W01
 .byte   W01
 .byte   W01
 .byte   N03
 .byte   W01
 .byte   W01
 .byte   W01
 .byte   W01
 .byte   N02
 .byte   W01
 .byte   W01
 .byte   W01
 .byte   FINE

@**************** Track 7 (Midi-Chn.6) ****************@

song2E_007:
@ 000   ----------------------------------------
 .byte   KEYSH , song2E_key+0
 .byte   VOL , 22*song2E_mvl/mxv
 .byte   PAN , c_v+0
 .byte   An0
 .byte   W21
 .byte   As1
 .byte   Cs7
 .byte   VOL , 25*song2E_mvl/mxv
 .byte   W44
 .byte   W01
 .byte   PAN , c_v-32
 .byte   VOL , 29*song2E_mvl/mxv
 .byte   Gs0
 .byte   W07
 .byte   Gn0
 .byte   PAN , c_v-10
 .byte   Cn5
 .byte   W23
@ 001   ----------------------------------------
 .byte   W22
 .byte   Gn1
 .byte   FnM1
 .byte   VOL , 34*song2E_mvl/mxv
 .byte   W28
 .byte   W01
 .byte   PAN , c_v-7
 .byte   Gn0
 .byte   VOL , 35*song2E_mvl/mxv
 .byte   W32
 .byte   W01
Label_6_0134FCE1:
 .byte   W12
@ 002   ----------------------------------------
 .byte   VOL , 34*song2E_mvl/mxv
 .byte   PAN , c_v-21
 .byte   FnM1
 .byte   W02
 .byte   VOL , 31*song2E_mvl/mxv
 .byte   PAN , c_v-10
 .byte   Cn5
 .byte   W03
 .byte   Gs0
 .byte   Gs0
 .byte   VOL , 29*song2E_mvl/mxv
 .byte   W01
 .byte   PAN , c_v-18
 .byte   VOL , 25*song2E_mvl/mxv
 .byte   Cs7
 .byte   W03
 .byte   Bn0
 .byte   PAN , c_v-7
 .byte   Gn0
 .byte   W68
 .byte   W03
 .byte   Gn1
 .byte   FnM1
 .byte   VOL , 34*song2E_mvl/mxv
 .byte   W02
 .byte   PAN , c_v-10
 .byte   Cn5
 .byte   VOL , 31*song2E_mvl/mxv
 .byte   W04
 .byte   Fn0
 .byte   PAN , c_v-32
 .byte   Gs0
 .byte   VOL , 25*song2E_mvl/mxv
 .byte   PAN , c_v-18
 .byte   Cs7
 .byte   W03
 .byte   An2
 .byte   Gn0
 .byte   VOL , 35*song2E_mvl/mxv
 .byte   W07
@ 003   ----------------------------------------
 .byte   W64
 .byte   PAN , c_v-21
 .byte   VOL , 34*song2E_mvl/mxv
 .byte   FnM1
 .byte   W02
 .byte   Gn0
 .byte   PAN , c_v-10
 .byte   Cn5
 .byte   W04
 .byte   Gs0
 .byte   Gs0
 .byte   VOL , 25*song2E_mvl/mxv
 .byte   PAN , c_v-18
 .byte   Cs7
 .byte   W03
 .byte   An2
 .byte   Gn0
 .byte   VOL , 35*song2E_mvl/mxv
 .byte   W23
@ 004   ----------------------------------------
 .byte   W48
 .byte   PAN , c_v-21
 .byte   VOL , 34*song2E_mvl/mxv
 .byte   FnM1
 .byte   W03
 .byte   Gn0
 .byte   PAN , c_v-10
 .byte   Cn5
 .byte   W03
 .byte   Gs0
 .byte   Gs0
 .byte   VOL , 29*song2E_mvl/mxv
 .byte   W01
 .byte   PAN , c_v-18
 .byte   Cs7
 .byte   VOL , 25*song2E_mvl/mxv
 .byte   W02
 .byte   Bn0
 .byte   PAN , c_v-7
 .byte   Gn0
 .byte   W36
 .byte   W03
@ 005   ----------------------------------------
 .byte   W32
 .byte   W01
 .byte   VOL , 34*song2E_mvl/mxv
 .byte   PAN , c_v-21
 .byte   FnM1
 .byte   W02
 .byte   Fs2
 .byte   Cn5
 .byte   VOL , 31*song2E_mvl/mxv
 .byte   W03
 .byte   PAN , c_v-32
 .byte   VOL , 29*song2E_mvl/mxv
 .byte   Gs0
 .byte   W01
 .byte   Cs0
 .byte   PAN , c_v-18
 .byte   Cs7
 .byte   W03
 .byte   An2
 .byte   Gn0
 .byte   VOL , 35*song2E_mvl/mxv
 .byte   W54
@ 006   ----------------------------------------
 .byte   W17
 .byte   PAN , c_v-21
 .byte   FnM1
 .byte   VOL , 34*song2E_mvl/mxv
 .byte   W02
 .byte   Gn0
 .byte   PAN , c_v-10
 .byte   Cn5
 .byte   W03
 .byte   VOL , 29*song2E_mvl/mxv
 .byte   PAN , c_v-32
 .byte   Gs0
 .byte   W01
 .byte   As1
 .byte   Cs7
 .byte   VOL , 25*song2E_mvl/mxv
 .byte   W03
 .byte   PAN , c_v-7
 .byte   VOL , 35*song2E_mvl/mxv
 .byte   Gn0
 .byte   W68
 .byte   W02
@ 007   ----------------------------------------
 .byte   W01
 .byte   As0
 .byte   PAN , c_v-21
 .byte   FnM1
 .byte   W02
 .byte   Fs2
 .byte   Cn5
 .byte   VOL , 31*song2E_mvl/mxv
 .byte   W04
 .byte   Fn0
 .byte   PAN , c_v-32
 .byte   Gs0 ,v046
 .byte   Cs7
 .byte   VOL , 25*song2E_mvl/mxv
 .byte   W03
 .byte   PAN , c_v-7
 .byte   VOL , 35*song2E_mvl/mxv
 .byte   Gn0
 .byte   W68
 .byte   W03
 .byte   As0
 .byte   PAN , c_v-21
 .byte   FnM1
 .byte   W02
 .byte   Fs2
 .byte   Cn5
 .byte   VOL , 31*song2E_mvl/mxv
 .byte   W04
 .byte   PAN , c_v-32
 .byte   Gs0
 .byte   VOL , 25*song2E_mvl/mxv
 .byte   PAN , c_v-18
 .byte   Cs7
 .byte   W03
 .byte   VOL , 35*song2E_mvl/mxv
 .byte   PAN , c_v-7
 .byte   Gn0
 .byte   W06
@ 008   ----------------------------------------
 .byte   W64
 .byte   W01
 .byte   Gn1
 .byte   FnM1
 .byte   VOL , 34*song2E_mvl/mxv
 .byte   W03
 .byte   PAN , c_v-10
 .byte   VOL , 31*song2E_mvl/mxv
 .byte   Cn5
 .byte   W03
 .byte   Fn0
 .byte   PAN , c_v-32
 .byte   Gs0
 .byte   W01
 .byte   As1
 .byte   Cs7
 .byte   VOL , 25*song2E_mvl/mxv
 .byte   W02
 .byte   PAN , c_v-7
 .byte   Gn0
 .byte   VOL , 35*song2E_mvl/mxv
 .byte   W22
@ 009   ----------------------------------------
 .byte   W48
 .byte   W02
 .byte   As0
 .byte   PAN , c_v-21
 .byte   FnM1
 .byte   W02
 .byte   VOL , 31*song2E_mvl/mxv
 .byte   PAN , c_v-10
 .byte   Cn5
 .byte   W03
 .byte   Gs0
 .byte   Gs0
 .byte   VOL , 29*song2E_mvl/mxv
 .byte   W01
 .byte   PAN , c_v-18
 .byte   VOL , 25*song2E_mvl/mxv
 .byte   Cs7
 .byte   W03
 .byte   Bn0
 .byte   PAN , c_v-7
 .byte   Gn0
 .byte   W36
 .byte   W01
@ 010   ----------------------------------------
 .byte   W32
 .byte   W02
 .byte   Gn1
 .byte   FnM1
 .byte   VOL , 34*song2E_mvl/mxv
 .byte   W02
 .byte   PAN , c_v-10
 .byte   Cn5
 .byte   VOL , 31*song2E_mvl/mxv
 .byte   W04
 .byte   Fn0
 .byte   PAN , c_v-32
 .byte   Gs0
 .byte   VOL , 25*song2E_mvl/mxv
 .byte   PAN , c_v-18
 .byte   Cs7
 .byte   W03
 .byte   An2
 .byte   Gn0
 .byte   VOL , 35*song2E_mvl/mxv
 .byte   W52
 .byte   W01
@ 011   ----------------------------------------
 .byte   W18
 .byte   PAN , c_v-21
 .byte   VOL , 34*song2E_mvl/mxv
 .byte   FnM1
 .byte   W02
 .byte   Gn0
 .byte   PAN , c_v-10
 .byte   Cn5
 .byte   W04
 .byte   Gs0
 .byte   Gs0
 .byte   VOL , 29*song2E_mvl/mxv
 .byte   PAN , c_v-18
 .byte   Cs7
 .byte   VOL , 25*song2E_mvl/mxv
 .byte   W03
 .byte   Bn0
 .byte   PAN , c_v-7
 .byte   Gn0
 .byte   W40
 .byte   VOICE , 47
 .byte   PAN , c_v-24
 .byte   VOL , 43*song2E_mvl/mxv
 .byte   Fs0
 .byte   BEND , c_v+0
 .byte   N09 ,An1 ,v100
 .byte   W09
 .byte   W01
 .byte   En1
 .byte   W10
 .byte   W01
 .byte   N03 ,An1
 .byte   W02
 .byte   W01
 .byte   N03
 .byte   W03
 .byte   N03
 .byte   W02
@ 012   ----------------------------------------
 .byte   W01
 .byte   W01
 .byte   N09 ,En1
 .byte   W09
 .byte   W01
 .byte   N04
 .byte   W04
 .byte   W01
 .byte   N01
 .byte   W01
 .byte   W01
 .byte   N01
 .byte   W01
 .byte   N01
 .byte   W01
 .byte   W01
 .byte   N03 ,An1
 .byte   W03
 .byte   N03
 .byte   W03
 .byte   W01
 .byte   N03
 .byte   W03
 .byte   N09 ,En1
 .byte   W09
 .byte   W01
 .byte   An1
 .byte   W09
 .byte   W01
 .byte   W01
 .byte   En1
 .byte   W09
 .byte   W01
 .byte   N03 ,An1
 .byte   W03
 .byte   N03
 .byte   W03
 .byte   N03
 .byte   W03
 .byte   W01
 .byte   N09 ,En1
 .byte   W09
 .byte   W01
 .byte   N04
 .byte   W04
 .byte   W01
 .byte   N01
 .byte   W01
 .byte   W01
 .byte   N01
 .byte   W01
 .byte   N01
 .byte   W02
 .byte   N03 ,An1
 .byte   W03
@ 013   ----------------------------------------
 .byte   W01
 .byte   N03
 .byte   W02
 .byte   W01
 .byte   N03
 .byte   W03
 .byte   W01
 .byte   N09 ,En1
 .byte   W09
 .byte   W01
 .byte   An1
 .byte   W09
 .byte   W01
 .byte   En1
 .byte   W09
 .byte   W01
 .byte   N03 ,An1
 .byte   W03
 .byte   N03
 .byte   W03
 .byte   W01
 .byte   N03
 .byte   W03
 .byte   N09 ,En1
 .byte   W09
 .byte   W01
 .byte   N04
 .byte   W05
 .byte   N01
 .byte   W01
 .byte   W01
 .byte   N01
 .byte   W01
 .byte   W01
 .byte   N01
 .byte   W01
 .byte   N03 ,An1
 .byte   W03
 .byte   W01
 .byte   N03
 .byte   W03
 .byte   N03
 .byte   W03
 .byte   W01
 .byte   N09 ,En1
 .byte   W09
 .byte   W01
 .byte   An1
 .byte   W07
@ 014   ----------------------------------------
 .byte   W02
 .byte   W01
 .byte   En1
 .byte   W09
 .byte   W01
 .byte   N03 ,An1
 .byte   W03
 .byte   W01
 .byte   N03
 .byte   W02
 .byte   W01
 .byte   N03
 .byte   W03
 .byte   N09 ,En1
 .byte   W10
 .byte   W01
 .byte   N04
 .byte   W04
 .byte   W01
 .byte   N01
 .byte   W01
 .byte   N01
 .byte   W01
 .byte   W01
 .byte   N01
 .byte   W01
 .byte   W01
 .byte   N03 ,An1
 .byte   W02
 .byte   W01
 .byte   N03
 .byte   W03
 .byte   W01
 .byte   N03
 .byte   W02
 .byte   W01
 .byte   N09 ,En1
 .byte   W09
 .byte   W01
 .byte   An1
 .byte   W09
 .byte   W01
 .byte   N09
 .byte   W09
 .byte   W01
 .byte   N01 ,En1
 .byte   W02
 .byte   N01
 .byte   W01
 .byte   W01
 .byte   N01
 .byte   W01
 .byte   N01
 .byte   W02
 .byte   N01
 .byte   W01
 .byte   W01
 .byte   N01
 .byte   W01
 .byte   W01
 .byte   N09 ,An1
 .byte   W01
@ 015   ----------------------------------------
 .byte   W08
 .byte   N01 ,En1
 .byte   W02
 .byte   N01
 .byte   W01
 .byte   W01
 .byte   N01
 .byte   W01
 .byte   W01
 .byte   N01
 .byte   W01
 .byte   N01
 .byte   W01
 .byte   W01
 .byte   N01
 .byte   W01
 .byte   W01
 .byte   N03 ,An1
 .byte   W03
 .byte   N03
 .byte   W03
 .byte   W01
 .byte   N03
 .byte   W03
 .byte   N09
 .byte   W09
 .byte   W01
 .byte   PAN , c_v-7
 .byte   Gn0
 .byte   VOL , 35*song2E_mvl/mxv
 .byte   W22
 .byte   GOTO
  .word Label_6_0134FCE1
@ 016   ----------------------------------------
 .byte   W09
 .byte   PAN , c_v-21
 .byte   FnM1
 .byte   VOL , 34*song2E_mvl/mxv
 .byte   W03
 .byte   Gn0
 .byte   PAN , c_v-10
 .byte   Cn5
 .byte   W03
 .byte   VOL , 29*song2E_mvl/mxv
 .byte   PAN , c_v-32
 .byte   Gs0
 .byte   W01
 .byte   As1
 .byte   Cs7
 .byte   VOL , 25*song2E_mvl/mxv
 .byte   W02
 .byte   PAN , c_v-7
 .byte   VOL , 35*song2E_mvl/mxv
 .byte   Gn0
 .byte   W17
 .byte   FINE

@**************** Track 8 (Midi-Chn.7) ****************@

song2E_008:
@ 000   ----------------------------------------
 .byte   VOL , 60*song2E_mvl/mxv
 .byte   KEYSH , song2E_key+0
 .byte   VOICE , 124
 .byte   N01 ,En1 ,v064
 .byte   W10
 .byte   N01
 .byte   W03
 .byte   N01
 .byte   W03
 .byte   N01
 .byte   W04
 .byte   N01
 .byte   W10
 .byte   N01
 .byte   W01
 .byte   N01
 .byte   W02
 .byte   N01
 .byte   W02
 .byte   N01
 .byte   W01
 .byte   N01
 .byte   W02
 .byte   N01
 .byte   W02
 .byte   N01
 .byte   W10
 .byte   N01
 .byte   W10
 .byte   N01
 .byte   W03
 .byte   N01
 .byte   W04
 .byte   N01
 .byte   W03
 .byte   N01
 .byte   W03
 .byte   N01
 .byte   W04
 .byte   N01
 .byte   W03
 .byte   N01
 .byte   W10
 .byte   N01
 .byte   W03
 .byte   N01
 .byte   W03
@ 001   ----------------------------------------
 .byte   W01
 .byte   N01
 .byte   W03
 .byte   N01
 .byte   W10
 .byte   N01
 .byte   W02
 .byte   N01
 .byte   W01
 .byte   N01
 .byte   W02
 .byte   N01
 .byte   W02
 .byte   N01
 .byte   W01
 .byte   N01
 .byte   W02
 .byte   N01
 .byte   W10
 .byte   N01
 .byte   W10
 .byte   N01
 .byte   W04
 .byte   N01
 .byte   W03
 .byte   N01
 .byte   W03
 .byte   N01
 .byte   W04
 .byte   N01
 .byte   W03
 .byte   N01
 .byte   W04
 .byte   N01
 .byte   N01 ,Cs2
 .byte   W10
 .byte   En1
 .byte   W03
 .byte   N01
 .byte   W03
 .byte   N01
 .byte   W03
Label_7_0134FFEB:
 .byte   W01
 .byte   N01 ,En1 ,v064
 .byte   W10
 .byte   N01
 .byte   W01
@ 002   ----------------------------------------
 .byte   N01
 .byte   W02
 .byte   N01
 .byte   W02
 .byte   N01
 .byte   W01
 .byte   N01
 .byte   W02
 .byte   N01
 .byte   W02
 .byte   N01
 .byte   W10
 .byte   N01
 .byte   W10
 .byte   N01
 .byte   W03
 .byte   N01
 .byte   W03
 .byte   N01
 .byte   W04
 .byte   N01
 .byte   W03
 .byte   N01
 .byte   W03
 .byte   N01
 .byte   W04
 .byte   N01
 .byte   N01 ,Cs2
 .byte   W10
 .byte   En1
 .byte   W03
 .byte   N01
 .byte   W04
 .byte   N01
 .byte   W03
 .byte   N01
 .byte   W10
 .byte   N01
 .byte   W02
 .byte   N01
 .byte   W01
 .byte   N01
 .byte   W02
 .byte   N01
 .byte   W01
 .byte   N01
 .byte   W02
 .byte   N01
 .byte   W02
 .byte   N01
 .byte   W07
@ 003   ----------------------------------------
 .byte   W03
 .byte   N01
 .byte   W10
 .byte   N01
 .byte   W03
 .byte   N01
 .byte   W04
 .byte   N01
 .byte   W03
 .byte   N01
 .byte   W03
 .byte   N01
 .byte   W04
 .byte   N01
 .byte   W03
 .byte   N01
 .byte   N01 ,Cs2
 .byte   W10
 .byte   En1
 .byte   W03
 .byte   N01
 .byte   W04
 .byte   N01
 .byte   W03
 .byte   N01
 .byte   W10
 .byte   N01
 .byte   W02
 .byte   N01
 .byte   W01
 .byte   N01
 .byte   W02
 .byte   N01
 .byte   W02
 .byte   N01
 .byte   W01
 .byte   N01
 .byte   W02
 .byte   N01
 .byte   W10
 .byte   N01
 .byte   W10
 .byte   N01
 .byte   W03
@ 004   ----------------------------------------
 .byte   N01
 .byte   W04
 .byte   N01
 .byte   W03
 .byte   N01
 .byte   W03
 .byte   N01
 .byte   W04
 .byte   N01
 .byte   W03
 .byte   N01
 .byte   N01 ,Cs2
 .byte   W10
 .byte   En1
 .byte   W04
 .byte   N01
 .byte   W03
 .byte   N01
 .byte   W03
 .byte   N01
 .byte   W10
 .byte   N01
 .byte   W02
 .byte   N01
 .byte   W02
 .byte   N01
 .byte   W01
 .byte   N01
 .byte   W02
 .byte   N01
 .byte   W02
 .byte   N01
 .byte   W01
 .byte   N01
 .byte   W10
 .byte   N01
 .byte   W10
 .byte   N01
 .byte   W04
 .byte   N01
 .byte   W03
 .byte   N01
 .byte   W03
 .byte   N01
 .byte   W04
 .byte   N01
 .byte   W03
 .byte   N01
 .byte   W02
@ 005   ----------------------------------------
 .byte   W02
 .byte   N01
 .byte   N01 ,Cs2
 .byte   W10
 .byte   En1
 .byte   W03
 .byte   N01
 .byte   W03
 .byte   N01
 .byte   W04
 .byte   N01
 .byte   W10
 .byte   N01
 .byte   W01
 .byte   N01
 .byte   W02
 .byte   N01
 .byte   W02
 .byte   N01
 .byte   W01
 .byte   N01
 .byte   W02
 .byte   N01
 .byte   W02
 .byte   N01
 .byte   W10
 .byte   N01
 .byte   W10
 .byte   N01
 .byte   W03
 .byte   N01
 .byte   W03
 .byte   N01
 .byte   W04
 .byte   N01
 .byte   W03
 .byte   N01
 .byte   W03
 .byte   N01
 .byte   W04
 .byte   N01
 .byte   W10
 .byte   N01
 .byte   W03
 .byte   N01
 .byte   W01
@ 006   ----------------------------------------
 .byte   W02
 .byte   N01
 .byte   W04
 .byte   N01
 .byte   W10
 .byte   N01
 .byte   W01
 .byte   N01
 .byte   W02
 .byte   N01
 .byte   W02
 .byte   N01
 .byte   W01
 .byte   N01
 .byte   W02
 .byte   N01
 .byte   W02
 .byte   N01
 .byte   W10
 .byte   N01
 .byte   W10
 .byte   N01
 .byte   W03
 .byte   N01
 .byte   W03
 .byte   N01
 .byte   W04
 .byte   N01
 .byte   W03
 .byte   N01
 .byte   W03
 .byte   N01
 .byte   W04
 .byte   N01
 .byte   N01 ,Cs2
 .byte   W10
 .byte   En1
 .byte   W03
 .byte   N01
 .byte   W04
 .byte   N01
 .byte   W03
 .byte   N01
 .byte   W10
@ 007   ----------------------------------------
 .byte   N01
 .byte   W02
 .byte   N01
 .byte   W01
 .byte   N01
 .byte   W02
 .byte   N01
 .byte   W02
 .byte   N01
 .byte   W01
 .byte   N01
 .byte   W02
 .byte   N01
 .byte   W10
 .byte   N01
 .byte   W10
 .byte   N01
 .byte   W03
 .byte   N01
 .byte   W04
 .byte   N01
 .byte   W03
 .byte   N01
 .byte   W03
 .byte   N01
 .byte   W04
 .byte   N01
 .byte   W03
 .byte   N01
 .byte   N01 ,Cs2
 .byte   W10
 .byte   En1
 .byte   W04
 .byte   N01
 .byte   W03
 .byte   N01
 .byte   W03
 .byte   N01
 .byte   W10
 .byte   N01
 .byte   W02
 .byte   N01
 .byte   W01
 .byte   N01
 .byte   W02
 .byte   N01
 .byte   W02
 .byte   N01
 .byte   W01
 .byte   N01
 .byte   W02
 .byte   N01
 .byte   W06
@ 008   ----------------------------------------
 .byte   W04
 .byte   N01
 .byte   W10
 .byte   N01
 .byte   W04
 .byte   N01
 .byte   W03
 .byte   N01
 .byte   W03
 .byte   N01
 .byte   W04
 .byte   N01
 .byte   W03
 .byte   N01
 .byte   W03
 .byte   N01
 .byte   N01 ,Cs2
 .byte   W10
 .byte   En1
 .byte   W04
 .byte   N01
 .byte   W03
 .byte   N01
 .byte   W03
 .byte   N01
 .byte   W10
 .byte   N01
 .byte   W02
 .byte   N01
 .byte   W02
 .byte   N01
 .byte   W01
 .byte   N01
 .byte   W02
 .byte   N01
 .byte   W02
 .byte   N01
 .byte   W01
 .byte   N01
 .byte   W10
 .byte   N01
 .byte   W10
 .byte   N01
 .byte   W02
@ 009   ----------------------------------------
 .byte   W02
 .byte   N01
 .byte   W03
 .byte   N01
 .byte   W03
 .byte   N01
 .byte   W04
 .byte   N01
 .byte   W03
 .byte   N01
 .byte   W04
 .byte   N01
 .byte   N01 ,Cs2
 .byte   W10
 .byte   En1
 .byte   W03
 .byte   N01
 .byte   W03
 .byte   N01
 .byte   W04
 .byte   N01
 .byte   W10
 .byte   N01
 .byte   W01
 .byte   N01
 .byte   W02
 .byte   N01
 .byte   W02
 .byte   N01
 .byte   W01
 .byte   N01
 .byte   W02
 .byte   N01
 .byte   W02
 .byte   N01
 .byte   W10
 .byte   N01
 .byte   W10
 .byte   N01
 .byte   W03
 .byte   N01
 .byte   W03
 .byte   N01
 .byte   W04
 .byte   N01
 .byte   W03
 .byte   N01
 .byte   W03
 .byte   N01
 .byte   W01
@ 010   ----------------------------------------
 .byte   W03
 .byte   N01
 .byte   N01 ,Cs2
 .byte   W10
 .byte   En1
 .byte   W03
 .byte   N01
 .byte   W04
 .byte   N01
 .byte   W03
 .byte   N01
 .byte   W10
 .byte   N01
 .byte   W01
 .byte   N01
 .byte   W02
 .byte   N01
 .byte   W02
 .byte   N01
 .byte   W01
 .byte   N01
 .byte   W02
 .byte   N01
 .byte   W02
 .byte   N01
 .byte   W10
 .byte   N01
 .byte   W10
 .byte   N01
 .byte   W03
 .byte   N01
 .byte   W04
 .byte   N01
 .byte   W03
 .byte   N01
 .byte   W03
 .byte   N01
 .byte   W04
 .byte   N01
 .byte   W03
 .byte   N01
 .byte   W10
 .byte   N01
 .byte   W03
@ 011   ----------------------------------------
 .byte   N01
 .byte   W04
 .byte   N01
 .byte   W03
 .byte   N01
 .byte   W10
 .byte   N01
 .byte   W02
 .byte   N01
 .byte   W01
 .byte   N01
 .byte   W02
 .byte   N01
 .byte   W02
 .byte   N01
 .byte   W01
 .byte   N01
 .byte   W02
 .byte   N01
 .byte   W10
 .byte   N01
 .byte   W10
 .byte   N01
 .byte   W03
 .byte   N01
 .byte   W04
 .byte   N01
 .byte   W03
 .byte   N01
 .byte   W03
 .byte   N01
 .byte   W04
 .byte   N01
 .byte   W03
 .byte   Cs2
 .byte   W28
 .byte   W01
@ 012   ----------------------------------------
 .byte   W02
 .byte   N01
 .byte   W10
 .byte   N01
 .byte   W30
 .byte   N01
 .byte   W30
 .byte   W01
 .byte   N01
 .byte   W10
 .byte   N01
 .byte   W13
@ 013   ----------------------------------------
 .byte   W18
 .byte   N01
 .byte   W30
 .byte   N01
 .byte   W10
 .byte   N01
 .byte   W30
 .byte   W01
 .byte   N01
 .byte   W07
@ 014   ----------------------------------------
 .byte   W23
 .byte   N01
 .byte   W11
 .byte   N01
 .byte   W30
 .byte   N01
 .byte   W10
 .byte   N01
 .byte   W21
 .byte   N01
 .byte   W01
@ 015   ----------------------------------------
 .byte   W19
 .byte   N01
 .byte   W20
 .byte   En1
 .byte   N01 ,Cs2
 .byte   W10
 .byte   En1
 .byte   W04
 .byte   N01
 .byte   W03
 .byte   N01
 .byte   W03
 .byte   N01
 .byte   W02
 .byte   GOTO
  .word Label_7_0134FFEB
@ 016   ----------------------------------------
 .byte   W08
 .byte   N01 ,En1 ,v064
 .byte   W02
 .byte   N01
 .byte   W02
 .byte   N01
 .byte   W01
 .byte   N01
 .byte   W02
 .byte   N01
 .byte   W02
 .byte   N01
 .byte   W01
 .byte   N01
 .byte   W10
 .byte   N01
 .byte   W07
 .byte   FINE

@******************************************************@
	.align	2

song2E:
	.byte	8	@ NumTrks
	.byte	0	@ NumBlks
	.byte	song2E_pri	@ Priority
	.byte	song2E_rev	@ Reverb.
    
	.word	song2E_grp
    
	.word	song2E_001
	.word	song2E_002
	.word	song2E_003
	.word	song2E_004
	.word	song2E_005
	.word	song2E_006
	.word	song2E_007
	.word	song2E_008

	.end
