	.include "MPlayDef.s"

	.equ	song028F_grp, voicegroup000
	.equ	song028F_pri, 0
	.equ	song028F_rev, 128
	.equ	song028F_mvl, 127
	.equ	song028F_key, 0
	.equ	song028F_tbs, 1
	.equ	song028F_exg, 0
	.equ	song028F_cmp, 1

	.section .rodata
	.global	song028F
	.align	2


@**************** Track 1 (Midi-Chn.0) ****************@

song028F_001:
@ 000   ----------------------------------------
 .byte   KEYSH , song028F_key+0
 .byte   TEMPO , 142*song028F_tbs/2
 .byte   VOL , 52*song028F_mvl/mxv
 .byte   VOICE , 33
 .byte   W96
@ 001   ----------------------------------------
Label_0_0167FC3D:
 .byte   N16 ,Dn1 ,v100
 .byte   W24
 .byte   An0
 .byte   W24
 .byte   Dn1
 .byte   W48
 .byte   PEND 
 .byte   PATT
  .word Label_0_0167FC3D
@ 002   ----------------------------------------
Label_0_0167FC4B:
 .byte   N16 ,Fn1 ,v100
 .byte   W24
 .byte   Cn1
 .byte   W24
 .byte   Fn1
 .byte   W24
 .byte   Cn1
 .byte   W24
 .byte   PEND 
@ 003   ----------------------------------------
Label_0_0167FC56:
 .byte   N16 ,As0 ,v100
 .byte   W24
 .byte   Fn1
 .byte   W24
 .byte   As0
 .byte   W24
 .byte   Fn1
 .byte   W24
 .byte   PEND 
@ 004   ----------------------------------------
Label_0_0167FC61:
 .byte   N16 ,As0 ,v100
 .byte   W24
 .byte   Fn1
 .byte   W24
 .byte   Cn1
 .byte   W24
 .byte   Gn1
 .byte   W24
 .byte   PEND 
 .byte   PATT
  .word Label_0_0167FC3D
 .byte   PATT
  .word Label_0_0167FC3D
 .byte   PATT
  .word Label_0_0167FC4B
@ 005   ----------------------------------------
Label_0_0167FC7B:
 .byte   N16 ,Ds1 ,v100
 .byte   W24
 .byte   As0
 .byte   W24
 .byte   Ds1
 .byte   W24
 .byte   As0
 .byte   W24
 .byte   PEND 
 .byte   PATT
  .word Label_0_0167FC7B
@ 006   ----------------------------------------
Label_0_0167FC8B:
 .byte   N16 ,Dn1 ,v100
 .byte   W24
 .byte   An0
 .byte   W24
 .byte   Dn1
 .byte   W24
 .byte   An0
 .byte   W24
 .byte   PEND 
 .byte   PATT
  .word Label_0_0167FC8B
 .byte   PATT
  .word Label_0_0167FC4B
 .byte   PATT
  .word Label_0_0167FC4B
 .byte   PATT
  .word Label_0_0167FC7B
 .byte   PATT
  .word Label_0_0167FC7B
@ 007   ----------------------------------------
Label_0_0167FCAF:
 .byte   N16 ,Bn0 ,v100
 .byte   W24
 .byte   Fs1
 .byte   W24
 .byte   Bn0
 .byte   W24
 .byte   Fs1
 .byte   W24
 .byte   PEND 
 .byte   PATT
  .word Label_0_0167FCAF
 .byte   PATT
  .word Label_0_0167FC7B
 .byte   PATT
  .word Label_0_0167FC7B
 .byte   PATT
  .word Label_0_0167FCAF
 .byte   PATT
  .word Label_0_0167FCAF
 .byte   PATT
  .word Label_0_0167FC56
 .byte   PATT
  .word Label_0_0167FC61
@ 008   ----------------------------------------
 .byte   GOTO
  .word Label_0_0167FC3D
@ 009   ----------------------------------------
 .byte   W96
@ 010   ----------------------------------------
 .byte   W96
@ 011   ----------------------------------------
 .byte   W96
@ 012   ----------------------------------------
 .byte   W96
@ 013   ----------------------------------------
 .byte   W96
@ 014   ----------------------------------------
 .byte   W96
@ 015   ----------------------------------------
 .byte   W96
@ 016   ----------------------------------------
 .byte   W96
@ 017   ----------------------------------------
 .byte   W96
@ 018   ----------------------------------------
 .byte   W96
@ 019   ----------------------------------------
 .byte   W96
@ 020   ----------------------------------------
 .byte   W96
@ 021   ----------------------------------------
 .byte   W96
@ 022   ----------------------------------------
 .byte   W96
@ 023   ----------------------------------------
 .byte   W96
@ 024   ----------------------------------------
 .byte   W96
@ 025   ----------------------------------------
 .byte   W96
@ 026   ----------------------------------------
 .byte   W96
@ 027   ----------------------------------------
 .byte   W96
@ 028   ----------------------------------------
 .byte   W96
@ 029   ----------------------------------------
 .byte   W96
@ 030   ----------------------------------------
 .byte   W96
@ 031   ----------------------------------------
 .byte   W96
@ 032   ----------------------------------------
 .byte   W96
@ 033   ----------------------------------------
 .byte   W96
@ 034   ----------------------------------------
 .byte   W96
@ 035   ----------------------------------------
 .byte   W96
@ 036   ----------------------------------------
 .byte   W96
@ 037   ----------------------------------------
 .byte   W96
@ 038   ----------------------------------------
 .byte   W96
@ 039   ----------------------------------------
 .byte   W96
@ 040   ----------------------------------------
 .byte   W96
 .byte   FINE

@**************** Track 2 (Midi-Chn.1) ****************@

song028F_002:
@ 000   ----------------------------------------
 .byte   KEYSH , song028F_key+0
 .byte   VOL , 72*song028F_mvl/mxv
 .byte   VOICE , 47
 .byte   N12 ,Gs1 ,v127
 .byte   W24
 .byte   As1
 .byte   W32
 .byte   N08 ,An1
 .byte   W08
 .byte   N08
 .byte   W08
 .byte   N08
 .byte   W08
 .byte   N08
 .byte   W08
 .byte   N08
 .byte   W08
@ 001   ----------------------------------------
Label_1_0167FD1B:
 .byte   N24 ,Dn2 ,v100
 .byte   W24
 .byte   An1
 .byte   W24
 .byte   Dn2
 .byte   W48
 .byte   PEND 
 .byte   PATT
  .word Label_1_0167FD1B
@ 002   ----------------------------------------
Label_1_0167FD29:
 .byte   N24 ,Fn2 ,v100
 .byte   W24
 .byte   Cn2
 .byte   W24
 .byte   Fn2
 .byte   W24
 .byte   Cn2
 .byte   W24
 .byte   PEND 
@ 003   ----------------------------------------
Label_1_0167FD34:
 .byte   N24 ,As1 ,v100
 .byte   W24
 .byte   Fn2
 .byte   W24
 .byte   As1
 .byte   W24
 .byte   Fn2
 .byte   W24
 .byte   PEND 
@ 004   ----------------------------------------
Label_1_0167FD3F:
 .byte   N24 ,As1 ,v100
 .byte   W24
 .byte   Fn2
 .byte   W24
 .byte   Cn2
 .byte   W24
 .byte   Gn2
 .byte   W24
 .byte   PEND 
 .byte   PATT
  .word Label_1_0167FD1B
 .byte   PATT
  .word Label_1_0167FD1B
 .byte   PATT
  .word Label_1_0167FD29
@ 005   ----------------------------------------
Label_1_0167FD59:
 .byte   N24 ,Ds2 ,v100
 .byte   W24
 .byte   As1
 .byte   W24
 .byte   Ds2
 .byte   W24
 .byte   As1
 .byte   W24
 .byte   PEND 
 .byte   PATT
  .word Label_1_0167FD59
@ 006   ----------------------------------------
Label_1_0167FD69:
 .byte   N24 ,Dn2 ,v100
 .byte   W24
 .byte   An1
 .byte   W24
 .byte   Dn2
 .byte   W24
 .byte   An1
 .byte   W24
 .byte   PEND 
 .byte   PATT
  .word Label_1_0167FD69
 .byte   PATT
  .word Label_1_0167FD29
 .byte   PATT
  .word Label_1_0167FD29
 .byte   PATT
  .word Label_1_0167FD59
 .byte   PATT
  .word Label_1_0167FD59
@ 007   ----------------------------------------
Label_1_0167FD8D:
 .byte   N24 ,Bn1 ,v100
 .byte   W24
 .byte   Fs2
 .byte   W24
 .byte   Bn1
 .byte   W24
 .byte   Fs2
 .byte   W24
 .byte   PEND 
 .byte   PATT
  .word Label_1_0167FD8D
 .byte   PATT
  .word Label_1_0167FD59
 .byte   PATT
  .word Label_1_0167FD59
 .byte   PATT
  .word Label_1_0167FD8D
 .byte   PATT
  .word Label_1_0167FD8D
 .byte   PATT
  .word Label_1_0167FD34
 .byte   PATT
  .word Label_1_0167FD3F
@ 008   ----------------------------------------
 .byte   GOTO
  .word Label_1_0167FD1B
@ 009   ----------------------------------------
 .byte   W96
@ 010   ----------------------------------------
 .byte   W96
@ 011   ----------------------------------------
 .byte   W96
@ 012   ----------------------------------------
 .byte   W96
@ 013   ----------------------------------------
 .byte   W96
@ 014   ----------------------------------------
 .byte   W96
@ 015   ----------------------------------------
 .byte   W96
@ 016   ----------------------------------------
 .byte   W96
@ 017   ----------------------------------------
 .byte   W96
@ 018   ----------------------------------------
 .byte   W96
@ 019   ----------------------------------------
 .byte   W96
@ 020   ----------------------------------------
 .byte   W96
@ 021   ----------------------------------------
 .byte   W96
@ 022   ----------------------------------------
 .byte   W96
@ 023   ----------------------------------------
 .byte   W96
@ 024   ----------------------------------------
 .byte   W96
@ 025   ----------------------------------------
 .byte   W96
@ 026   ----------------------------------------
 .byte   W96
@ 027   ----------------------------------------
 .byte   W96
@ 028   ----------------------------------------
 .byte   W96
@ 029   ----------------------------------------
 .byte   W96
@ 030   ----------------------------------------
 .byte   W96
@ 031   ----------------------------------------
 .byte   W96
@ 032   ----------------------------------------
 .byte   W96
@ 033   ----------------------------------------
 .byte   W96
@ 034   ----------------------------------------
 .byte   W96
@ 035   ----------------------------------------
 .byte   W96
@ 036   ----------------------------------------
 .byte   W96
@ 037   ----------------------------------------
 .byte   W96
@ 038   ----------------------------------------
 .byte   W96
@ 039   ----------------------------------------
 .byte   W96
@ 040   ----------------------------------------
 .byte   W96
 .byte   FINE

@**************** Track 3 (Midi-Chn.2) ****************@

song028F_003:
@ 000   ----------------------------------------
 .byte   KEYSH , song028F_key+0
 .byte   VOL , 80*song028F_mvl/mxv
 .byte   VOICE , 56
 .byte   N04 ,Ds4 ,v100
 .byte   N04 ,Gs4
 .byte   W24
 .byte   Fn4
 .byte   N04 ,As4
 .byte   W32
 .byte   En4
 .byte   N04 ,An4
 .byte   W08
 .byte   En4
 .byte   N04 ,An4
 .byte   W08
 .byte   En4
 .byte   N04 ,An4
 .byte   W08
 .byte   En4
 .byte   N04 ,An4
 .byte   W08
 .byte   En4
 .byte   N04 ,An4
 .byte   W08
@ 001   ----------------------------------------
Label_2_0167FE08:
 .byte   W64
 .byte   N04 ,Dn3 ,v100
 .byte   W08
 .byte   Fn3
 .byte   W08
 .byte   Dn3
 .byte   W08
 .byte   Fn3
 .byte   W08
 .byte   PEND 
@ 002   ----------------------------------------
Label_2_0167FE14:
 .byte   N64 ,An3 ,v100
 .byte   W64
 .byte   N04 ,Fn3
 .byte   W08
 .byte   An3
 .byte   W08
 .byte   Fn3
 .byte   W08
 .byte   An3
 .byte   W08
 .byte   PEND 
@ 003   ----------------------------------------
 .byte   N23 ,Cn4
 .byte   W24
 .byte   N15 ,An3
 .byte   W16
 .byte   N07 ,Fn3
 .byte   W08
 .byte   N36 ,Cn3
 .byte   W40
 .byte   N07 ,An2
 .byte   W08
@ 004   ----------------------------------------
 .byte   N23 ,As2
 .byte   W24
 .byte   TIE ,An3
 .byte   W72
@ 005   ----------------------------------------
 .byte   W72
 .byte   EOT
 .byte   W24
 .byte   PATT
  .word Label_2_0167FE08
 .byte   PATT
  .word Label_2_0167FE14
@ 006   ----------------------------------------
 .byte   N23 ,Cn4 ,v100
 .byte   W24
 .byte   N15 ,An3
 .byte   W16
 .byte   N07 ,Fn3
 .byte   W08
 .byte   N36 ,Dn3
 .byte   W40
 .byte   N07
 .byte   W08
@ 007   ----------------------------------------
 .byte   N23 ,Ds3
 .byte   W24
 .byte   TIE ,As3
 .byte   W72
@ 008   ----------------------------------------
 .byte   W72
 .byte   EOT
 .byte   W24
@ 009   ----------------------------------------
 .byte   W96
@ 010   ----------------------------------------
 .byte   W96
@ 011   ----------------------------------------
 .byte   W48
 .byte   N44 ,Fn3
 .byte   W48
@ 012   ----------------------------------------
 .byte   Gn3
 .byte   W48
 .byte   An3
 .byte   W48
@ 013   ----------------------------------------
 .byte   TIE ,As3
 .byte   W96
@ 014   ----------------------------------------
 .byte   W92
 .byte   EOT
 .byte   W04
@ 015   ----------------------------------------
 .byte   TIE ,Fs3
 .byte   W96
@ 016   ----------------------------------------
 .byte   W92
 .byte   EOT
 .byte   W04
@ 017   ----------------------------------------
 .byte   N08 ,Gn3
 .byte   W08
 .byte   Fn3
 .byte   W08
 .byte   Gn3
 .byte   W08
 .byte   Gs3
 .byte   W08
 .byte   Gn3
 .byte   W08
 .byte   Fn3
 .byte   W08
 .byte   As3
 .byte   W08
 .byte   Gs3
 .byte   W08
 .byte   As3
 .byte   W08
 .byte   Cn4
 .byte   W08
 .byte   As3
 .byte   W08
 .byte   Gs3
 .byte   W08
@ 018   ----------------------------------------
 .byte   N12 ,Dn4
 .byte   W12
 .byte   N04 ,Cn4
 .byte   W04
 .byte   N08 ,Dn4
 .byte   W08
 .byte   Ds4
 .byte   W08
 .byte   Dn4
 .byte   W08
 .byte   Cn4
 .byte   W08
 .byte   Fn4
 .byte   W08
 .byte   Ds4
 .byte   W08
 .byte   Dn4
 .byte   W08
 .byte   Gn4
 .byte   W08
 .byte   Fn4
 .byte   W08
 .byte   Ds4
 .byte   W08
@ 019   ----------------------------------------
 .byte   N44 ,Dn4
 .byte   W48
 .byte   N23 ,Cs4
 .byte   W24
 .byte   Bn3
 .byte   W24
@ 020   ----------------------------------------
 .byte   N44 ,Fs3
 .byte   W48
 .byte   Bn3
 .byte   W48
@ 021   ----------------------------------------
 .byte   TIE ,As3
 .byte   W96
@ 022   ----------------------------------------
 .byte   W96
@ 023   ----------------------------------------
 .byte   EOT
 .byte   GOTO
  .word Label_2_0167FE08
@ 024   ----------------------------------------
 .byte   W96
@ 025   ----------------------------------------
 .byte   W96
@ 026   ----------------------------------------
 .byte   W96
@ 027   ----------------------------------------
 .byte   W96
@ 028   ----------------------------------------
 .byte   W96
@ 029   ----------------------------------------
 .byte   W96
@ 030   ----------------------------------------
 .byte   W96
@ 031   ----------------------------------------
 .byte   W96
@ 032   ----------------------------------------
 .byte   W96
@ 033   ----------------------------------------
 .byte   W96
@ 034   ----------------------------------------
 .byte   W96
@ 035   ----------------------------------------
 .byte   W96
@ 036   ----------------------------------------
 .byte   W96
@ 037   ----------------------------------------
 .byte   W96
@ 038   ----------------------------------------
 .byte   W96
@ 039   ----------------------------------------
 .byte   W96
@ 040   ----------------------------------------
 .byte   W96
@ 041   ----------------------------------------
 .byte   W96
@ 042   ----------------------------------------
 .byte   W96
@ 043   ----------------------------------------
 .byte   W96
@ 044   ----------------------------------------
 .byte   W96
@ 045   ----------------------------------------
 .byte   W96
@ 046   ----------------------------------------
 .byte   W96
@ 047   ----------------------------------------
 .byte   W96
@ 048   ----------------------------------------
 .byte   W96
@ 049   ----------------------------------------
 .byte   W96
@ 050   ----------------------------------------
 .byte   W96
@ 051   ----------------------------------------
 .byte   W96
@ 052   ----------------------------------------
 .byte   W96
@ 053   ----------------------------------------
 .byte   W96
@ 054   ----------------------------------------
 .byte   W96
@ 055   ----------------------------------------
 .byte   W96
 .byte   FINE

@**************** Track 4 (Midi-Chn.3) ****************@

song028F_004:
@ 000   ----------------------------------------
 .byte   KEYSH , song028F_key+0
 .byte   VOL , 4*song028F_mvl/mxv
 .byte   VOICE , 57
 .byte   N04 ,Cs3 ,v100
 .byte   W24
 .byte   Ds3
 .byte   W32
 .byte   Dn3
 .byte   W08
 .byte   N04
 .byte   W08
 .byte   N04
 .byte   W08
 .byte   N04
 .byte   W08
 .byte   N04
 .byte   W08
@ 001   ----------------------------------------
Label_3_0167FEF6:
 .byte   W64
 .byte   N04 ,An2 ,v100
 .byte   W08
 .byte   N04
 .byte   W08
 .byte   N04
 .byte   W08
 .byte   N04
 .byte   W08
 .byte   PEND 
@ 002   ----------------------------------------
Label_3_0167FF02:
 .byte   N64 ,Dn3 ,v100
 .byte   W64
 .byte   N04
 .byte   W08
 .byte   N04
 .byte   W08
 .byte   N04
 .byte   W08
 .byte   N04
 .byte   W08
 .byte   PEND 
@ 003   ----------------------------------------
Label_3_0167FF0F:
 .byte   N23 ,Fn3 ,v100
 .byte   W24
 .byte   N15 ,Cn3
 .byte   W16
 .byte   N07 ,An2
 .byte   W08
 .byte   N36 ,Fn2
 .byte   W40
 .byte   N07
 .byte   W08
 .byte   PEND 
@ 004   ----------------------------------------
 .byte   N23
 .byte   W24
 .byte   TIE ,Cn3
 .byte   W72
@ 005   ----------------------------------------
 .byte   W72
 .byte   EOT
 .byte   W24
 .byte   PATT
  .word Label_3_0167FEF6
 .byte   PATT
  .word Label_3_0167FF02
 .byte   PATT
  .word Label_3_0167FF0F
@ 006   ----------------------------------------
 .byte   N23 ,As2 ,v100
 .byte   W24
 .byte   TIE ,Ds3
 .byte   W72
@ 007   ----------------------------------------
 .byte   W72
 .byte   EOT
 .byte   W24
@ 008   ----------------------------------------
 .byte   W96
@ 009   ----------------------------------------
 .byte   W96
@ 010   ----------------------------------------
 .byte   W96
@ 011   ----------------------------------------
 .byte   W96
@ 012   ----------------------------------------
 .byte   W96
@ 013   ----------------------------------------
 .byte   W96
@ 014   ----------------------------------------
 .byte   W96
@ 015   ----------------------------------------
 .byte   W96
@ 016   ----------------------------------------
 .byte   W96
@ 017   ----------------------------------------
 .byte   W96
@ 018   ----------------------------------------
 .byte   W96
@ 019   ----------------------------------------
 .byte   W96
@ 020   ----------------------------------------
 .byte   W96
@ 021   ----------------------------------------
 .byte   W96
@ 022   ----------------------------------------
 .byte   GOTO
  .word Label_3_0167FEF6
@ 023   ----------------------------------------
 .byte   W96
@ 024   ----------------------------------------
 .byte   W96
@ 025   ----------------------------------------
 .byte   W96
@ 026   ----------------------------------------
 .byte   W96
@ 027   ----------------------------------------
 .byte   W96
@ 028   ----------------------------------------
 .byte   W96
@ 029   ----------------------------------------
 .byte   W96
@ 030   ----------------------------------------
 .byte   W96
@ 031   ----------------------------------------
 .byte   W96
@ 032   ----------------------------------------
 .byte   W96
@ 033   ----------------------------------------
 .byte   W96
@ 034   ----------------------------------------
 .byte   W96
@ 035   ----------------------------------------
 .byte   W96
@ 036   ----------------------------------------
 .byte   W96
@ 037   ----------------------------------------
 .byte   W96
@ 038   ----------------------------------------
 .byte   W96
@ 039   ----------------------------------------
 .byte   W96
@ 040   ----------------------------------------
 .byte   W96
@ 041   ----------------------------------------
 .byte   W96
@ 042   ----------------------------------------
 .byte   W96
@ 043   ----------------------------------------
 .byte   W96
@ 044   ----------------------------------------
 .byte   W96
@ 045   ----------------------------------------
 .byte   W96
@ 046   ----------------------------------------
 .byte   W96
@ 047   ----------------------------------------
 .byte   W96
@ 048   ----------------------------------------
 .byte   W96
@ 049   ----------------------------------------
 .byte   W96
@ 050   ----------------------------------------
 .byte   W96
@ 051   ----------------------------------------
 .byte   W96
@ 052   ----------------------------------------
 .byte   W96
@ 053   ----------------------------------------
 .byte   W96
@ 054   ----------------------------------------
 .byte   W96
 .byte   FINE

@**************** Track 5 (Midi-Chn.4) ****************@

song028F_005:
@ 000   ----------------------------------------
 .byte   KEYSH , song028F_key+0
 .byte   VOL , 33*song028F_mvl/mxv
 .byte   VOICE , 48
 .byte   W96
@ 001   ----------------------------------------
Label_4_0167FF7B:
 .byte   N08 ,Dn3 ,v092
 .byte   W08
 .byte   En3
 .byte   W08
 .byte   Fn3
 .byte   W08
 .byte   An3
 .byte   W08
 .byte   Gn3
 .byte   W08
 .byte   Fn3
 .byte   W08
 .byte   Dn3
 .byte   W08
 .byte   En3
 .byte   W08
 .byte   Fn3
 .byte   W08
 .byte   An3
 .byte   W08
 .byte   Gn3
 .byte   W08
 .byte   Fn3
 .byte   W08
 .byte   PEND 
 .byte   PATT
  .word Label_4_0167FF7B
 .byte   PATT
  .word Label_4_0167FF7B
@ 002   ----------------------------------------
 .byte   N08 ,Dn3 ,v092
 .byte   W08
 .byte   Cn3
 .byte   W08
 .byte   Dn3
 .byte   W08
 .byte   En3
 .byte   W08
 .byte   Dn3
 .byte   W08
 .byte   En3
 .byte   W08
 .byte   Fn3
 .byte   W08
 .byte   En3
 .byte   W08
 .byte   Fn3
 .byte   W08
 .byte   Gn3
 .byte   W08
 .byte   Fn3
 .byte   W08
 .byte   Gn3
 .byte   W08
@ 003   ----------------------------------------
 .byte   Fn3
 .byte   W08
 .byte   En3
 .byte   W08
 .byte   Fn3
 .byte   W08
 .byte   Gn3
 .byte   W08
 .byte   Fn3
 .byte   W08
 .byte   Gn3
 .byte   W08
 .byte   An3
 .byte   W08
 .byte   Gn3
 .byte   W08
 .byte   Fn3
 .byte   W08
 .byte   Gn3
 .byte   W08
 .byte   Fn3
 .byte   W08
 .byte   En3
 .byte   W08
 .byte   PATT
  .word Label_4_0167FF7B
 .byte   PATT
  .word Label_4_0167FF7B
 .byte   PATT
  .word Label_4_0167FF7B
@ 004   ----------------------------------------
 .byte   N08 ,Ds3 ,v092
 .byte   W08
 .byte   Cs3
 .byte   W08
 .byte   Ds3
 .byte   W08
 .byte   Fn3
 .byte   W08
 .byte   Ds3
 .byte   W08
 .byte   Fn3
 .byte   W08
 .byte   Fs3
 .byte   W08
 .byte   Fn3
 .byte   W08
 .byte   Fs3
 .byte   W08
 .byte   Gs3
 .byte   W08
 .byte   Fs3
 .byte   W08
 .byte   Gs3
 .byte   W08
@ 005   ----------------------------------------
 .byte   Fs3
 .byte   W08
 .byte   Fn3
 .byte   W08
 .byte   Fs3
 .byte   W08
 .byte   Gs3
 .byte   W08
 .byte   Fs3
 .byte   W08
 .byte   Gs3
 .byte   W08
 .byte   As3
 .byte   W08
 .byte   Gs3
 .byte   W08
 .byte   Fs3
 .byte   W08
 .byte   Gs3
 .byte   W08
 .byte   Fs3
 .byte   W08
 .byte   Fn3
 .byte   W08
@ 006   ----------------------------------------
 .byte   N96 ,An3 ,v100
 .byte   W96
@ 007   ----------------------------------------
 .byte   N48
 .byte   W48
 .byte   N24
 .byte   W24
 .byte   Gn3
 .byte   W24
@ 008   ----------------------------------------
 .byte   TIE ,Fn3
 .byte   W96
@ 009   ----------------------------------------
 .byte   W96
@ 010   ----------------------------------------
 .byte   EOT
 .byte   TIE ,Gn3
 .byte   W96
@ 011   ----------------------------------------
 .byte   W96
@ 012   ----------------------------------------
 .byte   EOT
 .byte   TIE ,Dn4
 .byte   W96
@ 013   ----------------------------------------
 .byte   W96
@ 014   ----------------------------------------
 .byte   EOT
 .byte   TIE ,As3
 .byte   W96
@ 015   ----------------------------------------
 .byte   W96
@ 016   ----------------------------------------
 .byte   EOT
 .byte   TIE ,Fs3
 .byte   W96
@ 017   ----------------------------------------
 .byte   W96
@ 018   ----------------------------------------
 .byte   EOT
 .byte   N96 ,As3
 .byte   W96
@ 019   ----------------------------------------
 .byte   N08 ,Cs3 ,v092
 .byte   W08
 .byte   Ds3
 .byte   W08
 .byte   Fn3
 .byte   W08
 .byte   Gn3
 .byte   W08
 .byte   Fn3
 .byte   W08
 .byte   Ds3
 .byte   W08
 .byte   Gn3
 .byte   W08
 .byte   Fn3
 .byte   W08
 .byte   Gn3
 .byte   W08
 .byte   As3
 .byte   W08
 .byte   An3
 .byte   W08
 .byte   Gn3
 .byte   W08
@ 020   ----------------------------------------
 .byte   GOTO
  .word Label_4_0167FF7B
@ 021   ----------------------------------------
 .byte   W96
@ 022   ----------------------------------------
 .byte   W96
@ 023   ----------------------------------------
 .byte   W96
@ 024   ----------------------------------------
 .byte   W96
@ 025   ----------------------------------------
 .byte   W96
@ 026   ----------------------------------------
 .byte   W96
@ 027   ----------------------------------------
 .byte   W96
@ 028   ----------------------------------------
 .byte   W96
@ 029   ----------------------------------------
 .byte   W96
@ 030   ----------------------------------------
 .byte   W96
@ 031   ----------------------------------------
 .byte   W96
@ 032   ----------------------------------------
 .byte   W96
@ 033   ----------------------------------------
 .byte   W96
@ 034   ----------------------------------------
 .byte   W96
@ 035   ----------------------------------------
 .byte   W96
@ 036   ----------------------------------------
 .byte   W96
@ 037   ----------------------------------------
 .byte   W96
@ 038   ----------------------------------------
 .byte   W96
@ 039   ----------------------------------------
 .byte   W96
@ 040   ----------------------------------------
 .byte   W96
@ 041   ----------------------------------------
 .byte   W96
@ 042   ----------------------------------------
 .byte   W96
@ 043   ----------------------------------------
 .byte   W96
@ 044   ----------------------------------------
 .byte   W96
@ 045   ----------------------------------------
 .byte   W96
@ 046   ----------------------------------------
 .byte   W96
@ 047   ----------------------------------------
 .byte   W96
@ 048   ----------------------------------------
 .byte   W96
@ 049   ----------------------------------------
 .byte   W96
@ 050   ----------------------------------------
 .byte   W96
@ 051   ----------------------------------------
 .byte   W96
@ 052   ----------------------------------------
 .byte   W96
 .byte   FINE

@**************** Track 6 (Midi-Chn.5) ****************@

song028F_006:
@ 000   ----------------------------------------
 .byte   KEYSH , song028F_key+0
 .byte   VOL , 33*song028F_mvl/mxv
 .byte   VOICE , 48
 .byte   W96
@ 001   ----------------------------------------
Label_5_01680083:
 .byte   N08 ,Fn2 ,v092
 .byte   W08
 .byte   Gn2
 .byte   W08
 .byte   An2
 .byte   W08
 .byte   Cn3
 .byte   W08
 .byte   Bn2
 .byte   W08
 .byte   An2
 .byte   W08
 .byte   Fn2
 .byte   W08
 .byte   Gn2
 .byte   W08
 .byte   An2
 .byte   W08
 .byte   Cn3
 .byte   W08
 .byte   Bn2
 .byte   W08
 .byte   An2
 .byte   W08
 .byte   PEND 
 .byte   PATT
  .word Label_5_01680083
@ 002   ----------------------------------------
Label_5_016800A3:
 .byte   N08 ,Fn2 ,v092
 .byte   W08
 .byte   Gn2
 .byte   W08
 .byte   An2
 .byte   W08
 .byte   Cn3
 .byte   W08
 .byte   As2
 .byte   W08
 .byte   An2
 .byte   W08
 .byte   Fn2
 .byte   W08
 .byte   Gn2
 .byte   W08
 .byte   An2
 .byte   W08
 .byte   Cn3
 .byte   W08
 .byte   As2
 .byte   W08
 .byte   An2
 .byte   W08
 .byte   PEND 
@ 003   ----------------------------------------
 .byte   Fn2
 .byte   W08
 .byte   En2
 .byte   W08
 .byte   Fn2
 .byte   W08
 .byte   Gn2
 .byte   W08
 .byte   Fn2
 .byte   W08
 .byte   Gn2
 .byte   W08
 .byte   An2
 .byte   W08
 .byte   Gn2
 .byte   W08
 .byte   An2
 .byte   W08
 .byte   As2
 .byte   W08
 .byte   An2
 .byte   W08
 .byte   As2
 .byte   W08
@ 004   ----------------------------------------
 .byte   An2
 .byte   W08
 .byte   Gn2
 .byte   W08
 .byte   An2
 .byte   W08
 .byte   As2
 .byte   W08
 .byte   An2
 .byte   W08
 .byte   As2
 .byte   W08
 .byte   Cn3
 .byte   W08
 .byte   As2
 .byte   W08
 .byte   An2
 .byte   W08
 .byte   As2
 .byte   W08
 .byte   An2
 .byte   W08
 .byte   Gn2
 .byte   W08
 .byte   PATT
  .word Label_5_01680083
 .byte   PATT
  .word Label_5_01680083
 .byte   PATT
  .word Label_5_016800A3
@ 005   ----------------------------------------
 .byte   N08 ,Fs2 ,v092
 .byte   W08
 .byte   Fn2
 .byte   W08
 .byte   Fs2
 .byte   W08
 .byte   Gs2
 .byte   W08
 .byte   Fs2
 .byte   W08
 .byte   Gs2
 .byte   W08
 .byte   As2
 .byte   W08
 .byte   Gs2
 .byte   W08
 .byte   As2
 .byte   W08
 .byte   Cn3
 .byte   W08
 .byte   As2
 .byte   W08
 .byte   Cn3
 .byte   W08
@ 006   ----------------------------------------
 .byte   As2
 .byte   W08
 .byte   Gs2
 .byte   W08
 .byte   As2
 .byte   W08
 .byte   Cn3
 .byte   W08
 .byte   As2
 .byte   W08
 .byte   Cn3
 .byte   W08
 .byte   Cs3
 .byte   W08
 .byte   Cn3
 .byte   W08
 .byte   As2
 .byte   W08
 .byte   Cn3
 .byte   W08
 .byte   As2
 .byte   W08
 .byte   Gs2
 .byte   W08
@ 007   ----------------------------------------
 .byte   N96 ,Fn3 ,v100
 .byte   W96
@ 008   ----------------------------------------
 .byte   N48 ,En3
 .byte   W48
 .byte   Dn3
 .byte   W48
@ 009   ----------------------------------------
 .byte   TIE ,Cn3
 .byte   W96
@ 010   ----------------------------------------
 .byte   W96
@ 011   ----------------------------------------
 .byte   EOT
 .byte   N96 ,Ds3
 .byte   W96
@ 012   ----------------------------------------
 .byte   N48 ,Dn3
 .byte   W48
 .byte   Cn3
 .byte   W48
@ 013   ----------------------------------------
 .byte   TIE ,Bn2
 .byte   W96
@ 014   ----------------------------------------
 .byte   W96
@ 015   ----------------------------------------
 .byte   EOT
Label_5_0168014A:
 .byte   N48 ,As2 ,v100
 .byte   W48
 .byte   Ds3
 .byte   W48
 .byte   PEND 
 .byte   PATT
  .word Label_5_0168014A
@ 016   ----------------------------------------
 .byte   N48 ,Dn3 ,v100
 .byte   W48
 .byte   En3
 .byte   W48
@ 017   ----------------------------------------
 .byte   Dn3
 .byte   W48
 .byte   Cs3
 .byte   W48
@ 018   ----------------------------------------
 .byte   N96 ,Dn3
 .byte   W96
@ 019   ----------------------------------------
 .byte   N08 ,As2 ,v092
 .byte   W08
 .byte   Cn3
 .byte   W08
 .byte   Dn3
 .byte   W08
 .byte   Ds3
 .byte   W08
 .byte   Dn3
 .byte   W08
 .byte   Cn3
 .byte   W08
 .byte   Ds3
 .byte   W08
 .byte   Dn3
 .byte   W08
 .byte   Ds3
 .byte   W08
 .byte   Gn3
 .byte   W08
 .byte   Fn3
 .byte   W08
 .byte   Ds3
 .byte   W08
@ 020   ----------------------------------------
 .byte   GOTO
  .word Label_5_01680083
@ 021   ----------------------------------------
 .byte   W96
@ 022   ----------------------------------------
 .byte   W96
@ 023   ----------------------------------------
 .byte   W96
@ 024   ----------------------------------------
 .byte   W96
@ 025   ----------------------------------------
 .byte   W96
@ 026   ----------------------------------------
 .byte   W96
@ 027   ----------------------------------------
 .byte   W96
@ 028   ----------------------------------------
 .byte   W96
@ 029   ----------------------------------------
 .byte   W96
@ 030   ----------------------------------------
 .byte   W96
@ 031   ----------------------------------------
 .byte   W96
@ 032   ----------------------------------------
 .byte   W96
@ 033   ----------------------------------------
 .byte   W96
@ 034   ----------------------------------------
 .byte   W96
@ 035   ----------------------------------------
 .byte   W96
@ 036   ----------------------------------------
 .byte   W96
@ 037   ----------------------------------------
 .byte   W96
@ 038   ----------------------------------------
 .byte   W96
@ 039   ----------------------------------------
 .byte   W96
@ 040   ----------------------------------------
 .byte   W96
@ 041   ----------------------------------------
 .byte   W96
@ 042   ----------------------------------------
 .byte   W96
@ 043   ----------------------------------------
 .byte   W96
@ 044   ----------------------------------------
 .byte   W96
@ 045   ----------------------------------------
 .byte   W96
@ 046   ----------------------------------------
 .byte   W96
@ 047   ----------------------------------------
 .byte   W96
@ 048   ----------------------------------------
 .byte   W96
@ 049   ----------------------------------------
 .byte   W96
@ 050   ----------------------------------------
 .byte   W96
@ 051   ----------------------------------------
 .byte   W96
@ 052   ----------------------------------------
 .byte   W96
 .byte   FINE

@**************** Track 7 (Midi-Chn.6) ****************@

song028F_007:
@ 000   ----------------------------------------
 .byte   KEYSH , song028F_key+0
 .byte   VOL , 39*song028F_mvl/mxv
 .byte   VOICE , 48
 .byte   W96
@ 001   ----------------------------------------
Label_6_016801AB:
 .byte   W96
@ 002   ----------------------------------------
 .byte   W96
@ 003   ----------------------------------------
 .byte   W96
@ 004   ----------------------------------------
 .byte   W96
@ 005   ----------------------------------------
 .byte   W96
@ 006   ----------------------------------------
 .byte   W96
@ 007   ----------------------------------------
 .byte   W96
@ 008   ----------------------------------------
 .byte   W96
@ 009   ----------------------------------------
 .byte   W96
@ 010   ----------------------------------------
 .byte   W96
@ 011   ----------------------------------------
 .byte   N96 ,Dn4 ,v100
 .byte   W96
@ 012   ----------------------------------------
 .byte   N48 ,Cs4
 .byte   W48
 .byte   N24 ,Dn4
 .byte   W24
 .byte   En4
 .byte   W24
@ 013   ----------------------------------------
 .byte   TIE ,An3
 .byte   W96
@ 014   ----------------------------------------
 .byte   W96
@ 015   ----------------------------------------
 .byte   EOT
 .byte   N96 ,Ds4
 .byte   W96
@ 016   ----------------------------------------
 .byte   N48 ,Dn4
 .byte   W48
 .byte   N24 ,Ds4
 .byte   W24
 .byte   Fn4
 .byte   W24
@ 017   ----------------------------------------
Label_6_016801D1:
 .byte   N48 ,Dn5 ,v100
 .byte   W48
 .byte   N24 ,Cs5
 .byte   W24
 .byte   Bn4
 .byte   W24
 .byte   PEND 
@ 018   ----------------------------------------
Label_6_016801DB:
 .byte   N48 ,Fs4 ,v100
 .byte   W48
 .byte   Bn4
 .byte   W48
 .byte   PEND 
@ 019   ----------------------------------------
 .byte   TIE ,As4
 .byte   W96
@ 020   ----------------------------------------
 .byte   W96
@ 021   ----------------------------------------
 .byte   EOT
 .byte   PATT
  .word Label_6_016801D1
 .byte   PATT
  .word Label_6_016801DB
@ 022   ----------------------------------------
 .byte   TIE ,As4 ,v100
 .byte   W96
@ 023   ----------------------------------------
 .byte   W96
@ 024   ----------------------------------------
 .byte   EOT
 .byte   GOTO
  .word Label_6_016801AB
@ 025   ----------------------------------------
 .byte   W96
@ 026   ----------------------------------------
 .byte   W96
@ 027   ----------------------------------------
 .byte   W96
@ 028   ----------------------------------------
 .byte   W96
@ 029   ----------------------------------------
 .byte   W96
@ 030   ----------------------------------------
 .byte   W96
@ 031   ----------------------------------------
 .byte   W96
@ 032   ----------------------------------------
 .byte   W96
@ 033   ----------------------------------------
 .byte   W96
@ 034   ----------------------------------------
 .byte   W96
@ 035   ----------------------------------------
 .byte   W96
@ 036   ----------------------------------------
 .byte   W96
@ 037   ----------------------------------------
 .byte   W96
@ 038   ----------------------------------------
 .byte   W96
@ 039   ----------------------------------------
 .byte   W96
@ 040   ----------------------------------------
 .byte   W96
@ 041   ----------------------------------------
 .byte   W96
@ 042   ----------------------------------------
 .byte   W96
@ 043   ----------------------------------------
 .byte   W96
@ 044   ----------------------------------------
 .byte   W96
@ 045   ----------------------------------------
 .byte   W96
@ 046   ----------------------------------------
 .byte   W96
@ 047   ----------------------------------------
 .byte   W96
@ 048   ----------------------------------------
 .byte   W96
@ 049   ----------------------------------------
 .byte   W96
@ 050   ----------------------------------------
 .byte   W96
@ 051   ----------------------------------------
 .byte   W96
@ 052   ----------------------------------------
 .byte   W96
@ 053   ----------------------------------------
 .byte   W96
@ 054   ----------------------------------------
 .byte   W96
@ 055   ----------------------------------------
 .byte   W96
@ 056   ----------------------------------------
 .byte   W96
 .byte   FINE

@**************** Track 8 (Midi-Chn.7) ****************@

song028F_008:
@ 000   ----------------------------------------
 .byte   KEYSH , song028F_key+0
 .byte   VOL , 52*song028F_mvl/mxv
 .byte   VOICE , 127
 .byte   W48
 .byte   N01 ,Cs2 ,v100
 .byte   W48
@ 001   ----------------------------------------
Label_7_0168022B:
 .byte   N01 ,Dn1 ,v100
 .byte   W24
 .byte   N01
 .byte   W08
 .byte   N01
 .byte   W08
 .byte   N01
 .byte   W08
 .byte   N01
 .byte   W24
 .byte   Cs2
 .byte   W24
 .byte   PEND 
 .byte   PATT
  .word Label_7_0168022B
@ 002   ----------------------------------------
Label_7_0168023F:
 .byte   N01 ,Dn1 ,v100
 .byte   W24
 .byte   N01
 .byte   W08
 .byte   N01
 .byte   W08
 .byte   N01
 .byte   W08
 .byte   N01
 .byte   W16
 .byte   N01
 .byte   W08
 .byte   N01
 .byte   W04
 .byte   Dn1 ,v092
 .byte   W04
 .byte   Dn1 ,v080
 .byte   W04
 .byte   Dn1 ,v072
 .byte   W04
 .byte   Dn1 ,v060
 .byte   W04
 .byte   Dn1 ,v052
 .byte   W04
 .byte   PEND 
 .byte   PATT
  .word Label_7_0168022B
@ 003   ----------------------------------------
Label_7_01680264:
 .byte   N01 ,Dn1 ,v100
 .byte   W24
 .byte   N01
 .byte   N01 ,Cs2
 .byte   W08
 .byte   Dn1
 .byte   W08
 .byte   N01
 .byte   W08
 .byte   N01
 .byte   W16
 .byte   N01
 .byte   W08
 .byte   N01
 .byte   N01 ,Cs2
 .byte   W04
 .byte   Dn1 ,v092
 .byte   W04
 .byte   Dn1 ,v080
 .byte   W04
 .byte   Dn1 ,v072
 .byte   W04
 .byte   Dn1 ,v060
 .byte   W04
 .byte   Dn1 ,v052
 .byte   W04
 .byte   PEND 
 .byte   PATT
  .word Label_7_0168022B
 .byte   PATT
  .word Label_7_0168022B
 .byte   PATT
  .word Label_7_0168023F
 .byte   PATT
  .word Label_7_0168022B
 .byte   PATT
  .word Label_7_01680264
@ 004   ----------------------------------------
Label_7_016802A1:
 .byte   N01 ,Dn1 ,v100
 .byte   W24
 .byte   N01
 .byte   W08
 .byte   N01
 .byte   W08
 .byte   N01
 .byte   W08
 .byte   N01
 .byte   W24
 .byte   N01
 .byte   W04
 .byte   Dn1 ,v092
 .byte   W04
 .byte   Dn1 ,v080
 .byte   W04
 .byte   Dn1 ,v072
 .byte   W04
 .byte   Dn1 ,v060
 .byte   W04
 .byte   Dn1 ,v052
 .byte   W04
 .byte   PEND 
 .byte   PATT
  .word Label_7_0168022B
 .byte   PATT
  .word Label_7_016802A1
 .byte   PATT
  .word Label_7_0168022B
 .byte   PATT
  .word Label_7_016802A1
 .byte   PATT
  .word Label_7_0168022B
 .byte   PATT
  .word Label_7_016802A1
 .byte   PATT
  .word Label_7_0168022B
 .byte   PATT
  .word Label_7_016802A1
 .byte   PATT
  .word Label_7_0168022B
 .byte   PATT
  .word Label_7_016802A1
 .byte   PATT
  .word Label_7_0168022B
 .byte   PATT
  .word Label_7_016802A1
@ 005   ----------------------------------------
 .byte   N01 ,Dn1 ,v100
 .byte   W24
 .byte   N01
 .byte   N01 ,Cs2
 .byte   W08
 .byte   Dn1
 .byte   W08
 .byte   N01
 .byte   W08
 .byte   N01
 .byte   W08
 .byte   N01
 .byte   W08
 .byte   N01
 .byte   W08
 .byte   N01
 .byte   N01 ,Cs2
 .byte   W08
 .byte   Dn1
 .byte   W08
 .byte   N01
 .byte   W08
@ 006   ----------------------------------------
 .byte   GOTO
  .word Label_7_0168022B
@ 007   ----------------------------------------
 .byte   W96
@ 008   ----------------------------------------
 .byte   W96
@ 009   ----------------------------------------
 .byte   W96
@ 010   ----------------------------------------
 .byte   W96
@ 011   ----------------------------------------
 .byte   W96
@ 012   ----------------------------------------
 .byte   W96
@ 013   ----------------------------------------
 .byte   W96
@ 014   ----------------------------------------
 .byte   W96
@ 015   ----------------------------------------
 .byte   W96
@ 016   ----------------------------------------
 .byte   W96
@ 017   ----------------------------------------
 .byte   W96
@ 018   ----------------------------------------
 .byte   W96
@ 019   ----------------------------------------
 .byte   W96
@ 020   ----------------------------------------
 .byte   W96
@ 021   ----------------------------------------
 .byte   W96
@ 022   ----------------------------------------
 .byte   W96
@ 023   ----------------------------------------
 .byte   W96
@ 024   ----------------------------------------
 .byte   W96
@ 025   ----------------------------------------
 .byte   W96
@ 026   ----------------------------------------
 .byte   W96
@ 027   ----------------------------------------
 .byte   W96
@ 028   ----------------------------------------
 .byte   W96
@ 029   ----------------------------------------
 .byte   W96
@ 030   ----------------------------------------
 .byte   W96
@ 031   ----------------------------------------
 .byte   W96
@ 032   ----------------------------------------
 .byte   W96
@ 033   ----------------------------------------
 .byte   W96
@ 034   ----------------------------------------
 .byte   W96
@ 035   ----------------------------------------
 .byte   W96
@ 036   ----------------------------------------
 .byte   W96
@ 037   ----------------------------------------
 .byte   W96
@ 038   ----------------------------------------
 .byte   W96
 .byte   FINE

@******************************************************@
	.align	2

song028F:
	.byte	8	@ NumTrks
	.byte	0	@ NumBlks
	.byte	song028F_pri	@ Priority
	.byte	song028F_rev	@ Reverb.
    
	.word	song028F_grp
    
	.word	song028F_001
	.word	song028F_002
	.word	song028F_003
	.word	song028F_004
	.word	song028F_005
	.word	song028F_006
	.word	song028F_007
	.word	song028F_008

	.end
