	.include "MPlayDef.s"

	.equ	song05_grp, voicegroup000
	.equ	song05_pri, 0
	.equ	song05_rev, 0
	.equ	song05_mvl, 127
	.equ	song05_key, 0
	.equ	song05_tbs, 1
	.equ	song05_exg, 0
	.equ	song05_cmp, 1

	.section .rodata
	.global	song05
	.align	2


@**************** Track 1 (Midi-Chn.0) ****************@

song05_001:
@ 000   ----------------------------------------
 .byte   KEYSH , song05_key+0
Label_0_0103FAE2:
 .byte   TEMPO , 136*song05_tbs/2
 .byte   VOICE , 72
 .byte   MODT 0
 .byte   CnM2
 .byte   LFOS 0
 .byte   Gs1
 .byte   VOL , 46*song05_mvl/mxv
 .byte   PAN , c_v-25
 .byte   W96
@ 001   ----------------------------------------
 .byte   W96
@ 002   ----------------------------------------
 .byte   W96
@ 003   ----------------------------------------
 .byte   W96
@ 004   ----------------------------------------
 .byte   W96
@ 005   ----------------------------------------
 .byte   W96
@ 006   ----------------------------------------
 .byte   W96
@ 007   ----------------------------------------
 .byte   W96
@ 008   ----------------------------------------
 .byte   W96
@ 009   ----------------------------------------
 .byte   W96
@ 010   ----------------------------------------
 .byte   W96
@ 011   ----------------------------------------
 .byte   W96
@ 012   ----------------------------------------
 .byte   W96
@ 013   ----------------------------------------
 .byte   W96
@ 014   ----------------------------------------
 .byte   W96
@ 015   ----------------------------------------
Label_0_0103FAFD:
 .byte   W48
 .byte   N06 ,Dn6 ,v032
 .byte   W06
 .byte   Ds6
 .byte   W06
 .byte   As5
 .byte   W12
 .byte   Gs5
 .byte   W12
 .byte   Ds5
 .byte   W12
 .byte   PEND 
@ 016   ----------------------------------------
 .byte   W96
@ 017   ----------------------------------------
 .byte   W96
@ 018   ----------------------------------------
 .byte   W96
@ 019   ----------------------------------------
 .byte   W96
@ 020   ----------------------------------------
 .byte   W96
@ 021   ----------------------------------------
 .byte   W96
@ 022   ----------------------------------------
 .byte   W96
@ 023   ----------------------------------------
 .byte   W96
@ 024   ----------------------------------------
 .byte   W96
@ 025   ----------------------------------------
 .byte   W96
@ 026   ----------------------------------------
 .byte   W96
@ 027   ----------------------------------------
 .byte   W96
@ 028   ----------------------------------------
 .byte   W96
@ 029   ----------------------------------------
 .byte   W96
@ 030   ----------------------------------------
 .byte   W96
@ 031   ----------------------------------------
 .byte   W96
@ 032   ----------------------------------------
 .byte   W96
@ 033   ----------------------------------------
 .byte   W96
@ 034   ----------------------------------------
 .byte   W96
@ 035   ----------------------------------------
 .byte   W96
@ 036   ----------------------------------------
 .byte   W96
@ 037   ----------------------------------------
 .byte   W96
@ 038   ----------------------------------------
 .byte   W96
@ 039   ----------------------------------------
 .byte   W96
@ 040   ----------------------------------------
 .byte   W96
@ 041   ----------------------------------------
 .byte   W96
@ 042   ----------------------------------------
 .byte   W96
@ 043   ----------------------------------------
 .byte   W72
 .byte   N24 ,Fn5 ,v044
 .byte   W24
@ 044   ----------------------------------------
Label_0_0103FB2B:
 .byte   N36 ,Ds6 ,v044
 .byte   W36
 .byte   N06 ,Dn6
 .byte   W06
 .byte   Cn6
 .byte   W06
 .byte   N36 ,Dn6
 .byte   W48
 .byte   PEND 
@ 045   ----------------------------------------
Label_0_0103FB38:
 .byte   N36 ,Dn6 ,v044
 .byte   W36
 .byte   N06 ,En6
 .byte   W06
 .byte   Dn6
 .byte   W06
 .byte   N24 ,Cs6
 .byte   W24
 .byte   An5
 .byte   W24
 .byte   PEND 
@ 046   ----------------------------------------
 .byte   W96
@ 047   ----------------------------------------
 .byte   W96
@ 048   ----------------------------------------
 .byte   W96
@ 049   ----------------------------------------
 .byte   W96
@ 050   ----------------------------------------
 .byte   W96
@ 051   ----------------------------------------
 .byte   W96
@ 052   ----------------------------------------
 .byte   W96
@ 053   ----------------------------------------
 .byte   W96
@ 054   ----------------------------------------
 .byte   W96
@ 055   ----------------------------------------
 .byte   W96
@ 056   ----------------------------------------
 .byte   W96
@ 057   ----------------------------------------
 .byte   W96
@ 058   ----------------------------------------
 .byte   W96
@ 059   ----------------------------------------
 .byte   W96
@ 060   ----------------------------------------
 .byte   W96
@ 061   ----------------------------------------
 .byte   W96
@ 062   ----------------------------------------
 .byte   W96
@ 063   ----------------------------------------
 .byte   W96
@ 064   ----------------------------------------
 .byte   W96
@ 065   ----------------------------------------
 .byte   W96
@ 066   ----------------------------------------
 .byte   W96
 .byte   PATT
  .word Label_0_0103FAFD
@ 067   ----------------------------------------
 .byte   W96
@ 068   ----------------------------------------
 .byte   W96
@ 069   ----------------------------------------
 .byte   W96
@ 070   ----------------------------------------
 .byte   W96
@ 071   ----------------------------------------
 .byte   W96
@ 072   ----------------------------------------
 .byte   W96
@ 073   ----------------------------------------
 .byte   W96
@ 074   ----------------------------------------
 .byte   W96
@ 075   ----------------------------------------
 .byte   W96
@ 076   ----------------------------------------
 .byte   W96
@ 077   ----------------------------------------
 .byte   W96
@ 078   ----------------------------------------
 .byte   W96
@ 079   ----------------------------------------
 .byte   W96
@ 080   ----------------------------------------
 .byte   W96
@ 081   ----------------------------------------
 .byte   W96
@ 082   ----------------------------------------
 .byte   W96
@ 083   ----------------------------------------
 .byte   W96
@ 084   ----------------------------------------
 .byte   W96
@ 085   ----------------------------------------
 .byte   W96
@ 086   ----------------------------------------
 .byte   W96
@ 087   ----------------------------------------
 .byte   W96
@ 088   ----------------------------------------
 .byte   W96
@ 089   ----------------------------------------
 .byte   W96
@ 090   ----------------------------------------
 .byte   W96
@ 091   ----------------------------------------
 .byte   W96
@ 092   ----------------------------------------
 .byte   W96
@ 093   ----------------------------------------
 .byte   W96
@ 094   ----------------------------------------
 .byte   W72
 .byte   N24 ,Fn5 ,v044
 .byte   W24
 .byte   PATT
  .word Label_0_0103FB2B
 .byte   PATT
  .word Label_0_0103FB38
@ 095   ----------------------------------------
 .byte   W96
@ 096   ----------------------------------------
 .byte   W96
@ 097   ----------------------------------------
 .byte   W96
@ 098   ----------------------------------------
 .byte   W96
@ 099   ----------------------------------------
 .byte   W96
@ 100   ----------------------------------------
 .byte   W84
 .byte   GOTO
  .word Label_0_0103FAE2
@ 101   ----------------------------------------
 .byte   W12
 .byte   FINE

@**************** Track 2 (Midi-Chn.1) ****************@

song05_002:
@ 000   ----------------------------------------
 .byte   KEYSH , song05_key+0
Label_1_0103FB9A:
 .byte   VOICE , 73
 .byte   MODT 0
 .byte   CnM2
 .byte   LFOS 0
 .byte   Gs1
 .byte   PAN , c_v-22
 .byte   VOL , 46*song05_mvl/mxv
 .byte   W96
@ 001   ----------------------------------------
 .byte   W96
@ 002   ----------------------------------------
 .byte   W96
@ 003   ----------------------------------------
 .byte   W96
@ 004   ----------------------------------------
 .byte   W96
@ 005   ----------------------------------------
 .byte   W96
@ 006   ----------------------------------------
 .byte   W96
@ 007   ----------------------------------------
 .byte   W96
@ 008   ----------------------------------------
 .byte   W96
@ 009   ----------------------------------------
 .byte   W96
@ 010   ----------------------------------------
 .byte   W96
@ 011   ----------------------------------------
 .byte   W96
@ 012   ----------------------------------------
Label_1_0103FBB0:
 .byte   N06 ,Gs5 ,v016
 .byte   W12
 .byte   As5
 .byte   W12
 .byte   Ds5
 .byte   W24
 .byte   Gs5
 .byte   W12
 .byte   As5
 .byte   W12
 .byte   Ds5
 .byte   W12
 .byte   As5
 .byte   W12
 .byte   PEND 
@ 013   ----------------------------------------
Label_1_0103FBC1:
 .byte   N06 ,Gs5 ,v016
 .byte   W12
 .byte   As5
 .byte   W12
 .byte   Ds5
 .byte   W12
 .byte   As5
 .byte   W12
 .byte   Gs5
 .byte   W24
 .byte   N06
 .byte   W12
 .byte   As5
 .byte   W12
 .byte   PEND 
@ 014   ----------------------------------------
Label_1_0103FBD2:
 .byte   N06 ,Gs5 ,v016
 .byte   W12
 .byte   As5
 .byte   W12
 .byte   Ds5
 .byte   W12
 .byte   As5
 .byte   W12
 .byte   Gs5
 .byte   W06
 .byte   Gn5
 .byte   W06
 .byte   As5
 .byte   W12
 .byte   Ds5
 .byte   W12
 .byte   As5
 .byte   W12
 .byte   PEND 
@ 015   ----------------------------------------
Label_1_0103FBE7:
 .byte   N06 ,Gs5 ,v016
 .byte   W12
 .byte   Dn5
 .byte   W12
 .byte   Gn5
 .byte   W12
 .byte   Dn5
 .byte   W12
 .byte   Gs5
 .byte   W12
 .byte   Ds5
 .byte   W12
 .byte   Gs5
 .byte   W12
 .byte   Ds5
 .byte   W12
 .byte   PEND 
@ 016   ----------------------------------------
 .byte   W96
@ 017   ----------------------------------------
 .byte   W96
@ 018   ----------------------------------------
 .byte   W96
@ 019   ----------------------------------------
 .byte   W96
 .byte   PATT
  .word Label_1_0103FBB0
 .byte   PATT
  .word Label_1_0103FBC1
@ 020   ----------------------------------------
Label_1_0103FC08:
 .byte   N06 ,Gs5 ,v016
 .byte   W12
 .byte   As5
 .byte   W12
 .byte   Ds5
 .byte   W12
 .byte   As5
 .byte   W12
 .byte   Gs5
 .byte   W12
 .byte   As5
 .byte   W12
 .byte   Ds5
 .byte   W12
 .byte   As5
 .byte   W12
 .byte   PEND 
@ 021   ----------------------------------------
Label_1_0103FC1B:
 .byte   N06 ,Cs5 ,v016
 .byte   W12
 .byte   N06
 .byte   W12
 .byte   Dn5
 .byte   W12
 .byte   N06
 .byte   W12
 .byte   N06
 .byte   W12
 .byte   N06
 .byte   W12
 .byte   Ds5
 .byte   W12
 .byte   N06
 .byte   W12
 .byte   PEND 
@ 022   ----------------------------------------
 .byte   W96
@ 023   ----------------------------------------
 .byte   W96
@ 024   ----------------------------------------
 .byte   W96
@ 025   ----------------------------------------
 .byte   W96
@ 026   ----------------------------------------
 .byte   W96
@ 027   ----------------------------------------
 .byte   W96
@ 028   ----------------------------------------
 .byte   W96
@ 029   ----------------------------------------
 .byte   W96
@ 030   ----------------------------------------
 .byte   W96
@ 031   ----------------------------------------
 .byte   W96
@ 032   ----------------------------------------
 .byte   W96
@ 033   ----------------------------------------
 .byte   W96
@ 034   ----------------------------------------
 .byte   W96
@ 035   ----------------------------------------
 .byte   W96
@ 036   ----------------------------------------
 .byte   W96
@ 037   ----------------------------------------
 .byte   W96
@ 038   ----------------------------------------
 .byte   W96
@ 039   ----------------------------------------
 .byte   W96
@ 040   ----------------------------------------
 .byte   W96
@ 041   ----------------------------------------
 .byte   W96
@ 042   ----------------------------------------
 .byte   W96
@ 043   ----------------------------------------
 .byte   W96
@ 044   ----------------------------------------
 .byte   W96
@ 045   ----------------------------------------
 .byte   W96
@ 046   ----------------------------------------
 .byte   W96
@ 047   ----------------------------------------
 .byte   W96
@ 048   ----------------------------------------
 .byte   W96
@ 049   ----------------------------------------
 .byte   W96
@ 050   ----------------------------------------
 .byte   W96
@ 051   ----------------------------------------
 .byte   W96
@ 052   ----------------------------------------
 .byte   W96
@ 053   ----------------------------------------
 .byte   W96
@ 054   ----------------------------------------
 .byte   W96
@ 055   ----------------------------------------
 .byte   W96
@ 056   ----------------------------------------
 .byte   W96
@ 057   ----------------------------------------
 .byte   W96
@ 058   ----------------------------------------
 .byte   W96
@ 059   ----------------------------------------
 .byte   W96
@ 060   ----------------------------------------
 .byte   W96
@ 061   ----------------------------------------
 .byte   W96
 .byte   PATT
  .word Label_1_0103FBB0
 .byte   PATT
  .word Label_1_0103FBC1
 .byte   PATT
  .word Label_1_0103FBD2
 .byte   PATT
  .word Label_1_0103FBE7
@ 062   ----------------------------------------
 .byte   W96
@ 063   ----------------------------------------
 .byte   W96
@ 064   ----------------------------------------
 .byte   W96
@ 065   ----------------------------------------
 .byte   W96
 .byte   PATT
  .word Label_1_0103FBB0
 .byte   PATT
  .word Label_1_0103FBC1
 .byte   PATT
  .word Label_1_0103FC08
 .byte   PATT
  .word Label_1_0103FC1B
@ 066   ----------------------------------------
 .byte   W96
@ 067   ----------------------------------------
 .byte   W96
@ 068   ----------------------------------------
 .byte   W96
@ 069   ----------------------------------------
 .byte   W96
@ 070   ----------------------------------------
 .byte   W96
@ 071   ----------------------------------------
 .byte   W96
@ 072   ----------------------------------------
 .byte   W96
@ 073   ----------------------------------------
 .byte   W96
@ 074   ----------------------------------------
 .byte   W96
@ 075   ----------------------------------------
 .byte   W96
@ 076   ----------------------------------------
 .byte   W96
@ 077   ----------------------------------------
 .byte   W96
@ 078   ----------------------------------------
 .byte   W96
@ 079   ----------------------------------------
 .byte   W96
@ 080   ----------------------------------------
 .byte   W96
@ 081   ----------------------------------------
 .byte   W96
@ 082   ----------------------------------------
 .byte   W96
@ 083   ----------------------------------------
 .byte   W96
@ 084   ----------------------------------------
 .byte   W96
@ 085   ----------------------------------------
 .byte   W96
@ 086   ----------------------------------------
 .byte   W96
@ 087   ----------------------------------------
 .byte   W96
@ 088   ----------------------------------------
 .byte   W96
@ 089   ----------------------------------------
 .byte   W96
@ 090   ----------------------------------------
 .byte   W96
@ 091   ----------------------------------------
 .byte   W96
@ 092   ----------------------------------------
 .byte   W96
@ 093   ----------------------------------------
 .byte   W84
 .byte   GOTO
  .word Label_1_0103FB9A
@ 094   ----------------------------------------
 .byte   W12
 .byte   FINE

@**************** Track 3 (Midi-Chn.2) ****************@

song05_003:
@ 000   ----------------------------------------
 .byte   KEYSH , song05_key+0
Label_2_0103FCAA:
 .byte   VOICE , 68
 .byte   MODT 0
 .byte   CnM2
 .byte   LFOS 0
 .byte   Gs1
 .byte   VOL , 60*song05_mvl/mxv
 .byte   PAN , c_v+17
 .byte   W96
@ 001   ----------------------------------------
 .byte   W96
@ 002   ----------------------------------------
 .byte   W96
@ 003   ----------------------------------------
 .byte   W96
@ 004   ----------------------------------------
 .byte   W96
@ 005   ----------------------------------------
 .byte   W96
@ 006   ----------------------------------------
 .byte   W96
@ 007   ----------------------------------------
 .byte   W96
@ 008   ----------------------------------------
 .byte   W96
@ 009   ----------------------------------------
 .byte   W96
@ 010   ----------------------------------------
 .byte   W96
@ 011   ----------------------------------------
 .byte   W96
@ 012   ----------------------------------------
 .byte   W96
@ 013   ----------------------------------------
 .byte   W96
@ 014   ----------------------------------------
 .byte   W96
@ 015   ----------------------------------------
 .byte   W96
@ 016   ----------------------------------------
 .byte   W96
@ 017   ----------------------------------------
 .byte   W96
@ 018   ----------------------------------------
 .byte   W96
@ 019   ----------------------------------------
 .byte   W96
@ 020   ----------------------------------------
 .byte   W96
@ 021   ----------------------------------------
 .byte   W96
@ 022   ----------------------------------------
 .byte   W96
@ 023   ----------------------------------------
 .byte   W96
@ 024   ----------------------------------------
 .byte   W96
@ 025   ----------------------------------------
 .byte   W96
@ 026   ----------------------------------------
 .byte   W96
@ 027   ----------------------------------------
 .byte   W96
@ 028   ----------------------------------------
 .byte   W96
@ 029   ----------------------------------------
 .byte   W72
 .byte   N24 ,Dn4 ,v044
 .byte   W24
@ 030   ----------------------------------------
Label_2_0103FCD6:
 .byte   N24 ,Fs4 ,v044
 .byte   W24
 .byte   Dn4
 .byte   W24
 .byte   An4
 .byte   W24
 .byte   N09 ,Gn4
 .byte   W12
 .byte   N06 ,Fs4
 .byte   W12
 .byte   PEND 
@ 031   ----------------------------------------
Label_2_0103FCE5:
 .byte   N24 ,Fs4 ,v044
 .byte   W24
 .byte   Dn4
 .byte   W24
 .byte   Gn4
 .byte   W24
 .byte   An4
 .byte   W24
 .byte   PEND 
@ 032   ----------------------------------------
Label_2_0103FCF0:
 .byte   N24 ,As4 ,v044
 .byte   W24
 .byte   N72 ,Ds4
 .byte   W72
 .byte   PEND 
@ 033   ----------------------------------------
Label_2_0103FCF8:
 .byte   N24 ,As4 ,v044
 .byte   W24
 .byte   N48 ,Cn4
 .byte   W48
 .byte   N24 ,Fn4
 .byte   W24
 .byte   PEND 
@ 034   ----------------------------------------
Label_2_0103FD03:
 .byte   N24 ,Ds4 ,v044
 .byte   W24
 .byte   N48 ,Dn4
 .byte   W48
 .byte   N96 ,Cn4
 .byte   W24
 .byte   PEND 
@ 035   ----------------------------------------
 .byte   W72
 .byte   N24 ,Dn4
 .byte   W24
@ 036   ----------------------------------------
 .byte   N96
 .byte   W96
@ 037   ----------------------------------------
 .byte   W72
 .byte   N24
 .byte   W24
@ 038   ----------------------------------------
Label_2_0103FD17:
 .byte   N24 ,Fs4 ,v044
 .byte   W24
 .byte   Dn4
 .byte   W24
 .byte   An4
 .byte   W24
 .byte   N11 ,Gn4
 .byte   W12
 .byte   N06 ,Fs4
 .byte   W12
 .byte   PEND 
 .byte   PATT
  .word Label_2_0103FCE5
 .byte   PATT
  .word Label_2_0103FCF0
 .byte   PATT
  .word Label_2_0103FCF8
@ 039   ----------------------------------------
Label_2_0103FD35:
 .byte   N24 ,Ds4 ,v044
 .byte   W24
 .byte   N48 ,Dn4
 .byte   W48
 .byte   N24 ,Cn4
 .byte   W24
 .byte   PEND 
@ 040   ----------------------------------------
Label_2_0103FD40:
 .byte   N72 ,Cn4 ,v044
 .byte   W72
 .byte   N24 ,Fn4
 .byte   W24
 .byte   PEND 
@ 041   ----------------------------------------
 .byte   W96
@ 042   ----------------------------------------
 .byte   W96
@ 043   ----------------------------------------
 .byte   W96
@ 044   ----------------------------------------
 .byte   W96
@ 045   ----------------------------------------
 .byte   W96
@ 046   ----------------------------------------
 .byte   W96
@ 047   ----------------------------------------
 .byte   W96
@ 048   ----------------------------------------
 .byte   W96
@ 049   ----------------------------------------
 .byte   W96
@ 050   ----------------------------------------
 .byte   W96
@ 051   ----------------------------------------
 .byte   W96
@ 052   ----------------------------------------
 .byte   W96
@ 053   ----------------------------------------
 .byte   W96
@ 054   ----------------------------------------
 .byte   W96
@ 055   ----------------------------------------
 .byte   W96
@ 056   ----------------------------------------
 .byte   W96
@ 057   ----------------------------------------
 .byte   W96
@ 058   ----------------------------------------
 .byte   W96
@ 059   ----------------------------------------
 .byte   W96
@ 060   ----------------------------------------
 .byte   W96
@ 061   ----------------------------------------
 .byte   W96
@ 062   ----------------------------------------
 .byte   W96
@ 063   ----------------------------------------
 .byte   W96
@ 064   ----------------------------------------
 .byte   W96
@ 065   ----------------------------------------
 .byte   W96
@ 066   ----------------------------------------
 .byte   W96
@ 067   ----------------------------------------
 .byte   W96
@ 068   ----------------------------------------
 .byte   W96
@ 069   ----------------------------------------
 .byte   W96
@ 070   ----------------------------------------
 .byte   W96
@ 071   ----------------------------------------
 .byte   W96
@ 072   ----------------------------------------
 .byte   W96
@ 073   ----------------------------------------
 .byte   W96
@ 074   ----------------------------------------
 .byte   W96
@ 075   ----------------------------------------
 .byte   W96
@ 076   ----------------------------------------
 .byte   W96
@ 077   ----------------------------------------
 .byte   W96
@ 078   ----------------------------------------
 .byte   W72
 .byte   Dn4
 .byte   W24
 .byte   PATT
  .word Label_2_0103FCD6
 .byte   PATT
  .word Label_2_0103FCE5
 .byte   PATT
  .word Label_2_0103FCF0
 .byte   PATT
  .word Label_2_0103FCF8
 .byte   PATT
  .word Label_2_0103FD03
@ 079   ----------------------------------------
 .byte   W72
 .byte   N24 ,Dn4 ,v044
 .byte   W24
@ 080   ----------------------------------------
 .byte   N96
 .byte   W96
@ 081   ----------------------------------------
 .byte   W72
 .byte   N24
 .byte   W24
 .byte   PATT
  .word Label_2_0103FD17
 .byte   PATT
  .word Label_2_0103FCE5
 .byte   PATT
  .word Label_2_0103FCF0
 .byte   PATT
  .word Label_2_0103FCF8
 .byte   PATT
  .word Label_2_0103FD35
 .byte   PATT
  .word Label_2_0103FD40
@ 082   ----------------------------------------
 .byte   W96
@ 083   ----------------------------------------
 .byte   W96
@ 084   ----------------------------------------
 .byte   W96
@ 085   ----------------------------------------
 .byte   W96
@ 086   ----------------------------------------
 .byte   W96
@ 087   ----------------------------------------
 .byte   W96
@ 088   ----------------------------------------
 .byte   W96
@ 089   ----------------------------------------
 .byte   W84
 .byte   GOTO
  .word Label_2_0103FCAA
@ 090   ----------------------------------------
 .byte   W12
 .byte   FINE

@**************** Track 4 (Midi-Chn.3) ****************@

song05_004:
@ 000   ----------------------------------------
 .byte   KEYSH , song05_key+0
Label_3_0103FDC2:
 .byte   VOICE , 71
 .byte   MODT 0
 .byte   CnM2
 .byte   LFOS 0
 .byte   Gs1
 .byte   VOL , 53*song05_mvl/mxv
 .byte   PAN , c_v-10
 .byte   W96
@ 001   ----------------------------------------
 .byte   W96
@ 002   ----------------------------------------
 .byte   W96
@ 003   ----------------------------------------
 .byte   W96
@ 004   ----------------------------------------
 .byte   W96
@ 005   ----------------------------------------
 .byte   W96
@ 006   ----------------------------------------
 .byte   W96
@ 007   ----------------------------------------
 .byte   W96
@ 008   ----------------------------------------
 .byte   W96
@ 009   ----------------------------------------
 .byte   W96
@ 010   ----------------------------------------
 .byte   W96
@ 011   ----------------------------------------
 .byte   W96
@ 012   ----------------------------------------
 .byte   W96
@ 013   ----------------------------------------
 .byte   W96
@ 014   ----------------------------------------
 .byte   W96
@ 015   ----------------------------------------
 .byte   W96
@ 016   ----------------------------------------
 .byte   W96
@ 017   ----------------------------------------
 .byte   W96
@ 018   ----------------------------------------
 .byte   W96
@ 019   ----------------------------------------
 .byte   W96
@ 020   ----------------------------------------
Label_3_0103FDE0:
 .byte   N06 ,Ds4 ,v040
 .byte   W12
 .byte   N06
 .byte   W12
 .byte   N06
 .byte   W12
 .byte   Cs4
 .byte   W12
 .byte   N12 ,Ds4
 .byte   W24
 .byte   N06
 .byte   W12
 .byte   Cs4
 .byte   W12
 .byte   PEND 
@ 021   ----------------------------------------
Label_3_0103FDF2:
 .byte   N12 ,Ds4 ,v040
 .byte   W24
 .byte   N06
 .byte   W12
 .byte   Cs4
 .byte   W12
 .byte   Ds4
 .byte   W12
 .byte   Fn4
 .byte   W12
 .byte   Fs4
 .byte   W12
 .byte   Gs4
 .byte   W12
 .byte   PEND 
@ 022   ----------------------------------------
Label_3_0103FE03:
 .byte   N06 ,As4 ,v040
 .byte   W12
 .byte   Ds4
 .byte   W12
 .byte   N48 ,Dn4
 .byte   W48
 .byte   N12 ,Ds4
 .byte   W24
 .byte   PEND 
@ 023   ----------------------------------------
Label_3_0103FE10:
 .byte   N06 ,Cs5 ,v040
 .byte   W12
 .byte   Fs4
 .byte   W12
 .byte   N48 ,Fn4
 .byte   W48
 .byte   N12 ,Fs4
 .byte   W24
 .byte   PEND 
@ 024   ----------------------------------------
 .byte   W96
@ 025   ----------------------------------------
 .byte   W96
@ 026   ----------------------------------------
 .byte   W96
@ 027   ----------------------------------------
 .byte   W96
@ 028   ----------------------------------------
 .byte   W96
@ 029   ----------------------------------------
 .byte   W96
@ 030   ----------------------------------------
 .byte   W96
@ 031   ----------------------------------------
 .byte   W96
@ 032   ----------------------------------------
 .byte   W96
@ 033   ----------------------------------------
 .byte   W96
@ 034   ----------------------------------------
 .byte   W96
@ 035   ----------------------------------------
 .byte   W96
@ 036   ----------------------------------------
 .byte   W96
@ 037   ----------------------------------------
 .byte   W96
@ 038   ----------------------------------------
 .byte   W96
@ 039   ----------------------------------------
 .byte   W96
@ 040   ----------------------------------------
 .byte   W96
@ 041   ----------------------------------------
 .byte   W96
@ 042   ----------------------------------------
 .byte   W96
@ 043   ----------------------------------------
 .byte   W96
@ 044   ----------------------------------------
 .byte   W96
@ 045   ----------------------------------------
 .byte   W96
@ 046   ----------------------------------------
 .byte   W96
@ 047   ----------------------------------------
 .byte   W96
@ 048   ----------------------------------------
 .byte   W96
@ 049   ----------------------------------------
 .byte   W96
@ 050   ----------------------------------------
 .byte   W96
@ 051   ----------------------------------------
 .byte   W96
@ 052   ----------------------------------------
 .byte   W96
@ 053   ----------------------------------------
 .byte   W96
@ 054   ----------------------------------------
 .byte   W96
@ 055   ----------------------------------------
 .byte   W96
@ 056   ----------------------------------------
 .byte   W96
@ 057   ----------------------------------------
 .byte   W96
@ 058   ----------------------------------------
 .byte   W96
@ 059   ----------------------------------------
 .byte   W96
@ 060   ----------------------------------------
 .byte   W96
@ 061   ----------------------------------------
 .byte   W96
@ 062   ----------------------------------------
 .byte   W96
@ 063   ----------------------------------------
 .byte   W96
@ 064   ----------------------------------------
 .byte   W96
@ 065   ----------------------------------------
 .byte   W96
@ 066   ----------------------------------------
 .byte   W96
@ 067   ----------------------------------------
 .byte   W96
@ 068   ----------------------------------------
 .byte   W96
@ 069   ----------------------------------------
 .byte   W96
@ 070   ----------------------------------------
 .byte   W96
@ 071   ----------------------------------------
 .byte   W96
 .byte   PATT
  .word Label_3_0103FDE0
 .byte   PATT
  .word Label_3_0103FDF2
 .byte   PATT
  .word Label_3_0103FE03
 .byte   PATT
  .word Label_3_0103FE10
@ 072   ----------------------------------------
 .byte   W96
@ 073   ----------------------------------------
 .byte   W96
@ 074   ----------------------------------------
 .byte   W96
@ 075   ----------------------------------------
 .byte   W96
@ 076   ----------------------------------------
 .byte   W96
@ 077   ----------------------------------------
 .byte   W96
@ 078   ----------------------------------------
 .byte   W96
@ 079   ----------------------------------------
 .byte   W96
@ 080   ----------------------------------------
 .byte   W96
@ 081   ----------------------------------------
 .byte   W96
@ 082   ----------------------------------------
 .byte   W96
@ 083   ----------------------------------------
 .byte   W96
@ 084   ----------------------------------------
 .byte   W96
@ 085   ----------------------------------------
 .byte   W96
@ 086   ----------------------------------------
 .byte   W96
@ 087   ----------------------------------------
 .byte   W96
@ 088   ----------------------------------------
 .byte   W96
@ 089   ----------------------------------------
 .byte   W96
@ 090   ----------------------------------------
 .byte   W96
@ 091   ----------------------------------------
 .byte   W96
@ 092   ----------------------------------------
 .byte   W96
@ 093   ----------------------------------------
 .byte   W96
@ 094   ----------------------------------------
 .byte   W96
@ 095   ----------------------------------------
 .byte   W96
@ 096   ----------------------------------------
 .byte   W96
@ 097   ----------------------------------------
 .byte   W96
@ 098   ----------------------------------------
 .byte   W96
@ 099   ----------------------------------------
 .byte   W84
 .byte   GOTO
  .word Label_3_0103FDC2
@ 100   ----------------------------------------
 .byte   W12
 .byte   FINE

@**************** Track 5 (Midi-Chn.4) ****************@

song05_005:
@ 000   ----------------------------------------
 .byte   KEYSH , song05_key+0
Label_4_0103FE86:
 .byte   VOICE , 56
 .byte   MODT 0
 .byte   CnM2
 .byte   LFOS 0
 .byte   Gs1
 .byte   VOL , 60*song05_mvl/mxv
 .byte   PAN , c_v-19
 .byte   W96
@ 001   ----------------------------------------
 .byte   W96
@ 002   ----------------------------------------
 .byte   W96
@ 003   ----------------------------------------
 .byte   W96
@ 004   ----------------------------------------
 .byte   W96
@ 005   ----------------------------------------
 .byte   W96
@ 006   ----------------------------------------
 .byte   W96
@ 007   ----------------------------------------
 .byte   W96
@ 008   ----------------------------------------
Label_4_0103FE98:
 .byte   N18 ,Gs3 ,v044
 .byte   N18 ,Cs4
 .byte   N18 ,Fn4
 .byte   W24
 .byte   N03 ,Gs3
 .byte   N03 ,Cs4
 .byte   N03 ,Fn4
 .byte   W08
 .byte   Gs3
 .byte   N03 ,Cs4
 .byte   N03 ,Fn4
 .byte   W07
 .byte   Gs3
 .byte   N03 ,Cs4
 .byte   N03 ,Fn4
 .byte   W09
 .byte   N18 ,Gs3
 .byte   N18 ,Cs4
 .byte   N18 ,Fn4
 .byte   W24
 .byte   Gs3
 .byte   N18 ,Cs4
 .byte   N18 ,Fn4
 .byte   W24
 .byte   PEND 
@ 009   ----------------------------------------
Label_4_0103FEC1:
 .byte   N03 ,Gs3 ,v044
 .byte   N03 ,Cs4
 .byte   N03 ,Fn4
 .byte   W08
 .byte   Gs3
 .byte   N03 ,Cs4
 .byte   N03 ,Fn4
 .byte   W07
 .byte   Gs3
 .byte   N03 ,Cs4
 .byte   N03 ,Fn4
 .byte   W09
 .byte   Gs3
 .byte   N03 ,Cs4
 .byte   N03 ,Fn4
 .byte   W08
 .byte   Gs3
 .byte   N03 ,Cs4
 .byte   N03 ,Fn4
 .byte   W07
 .byte   Gs3
 .byte   N03 ,Cs4
 .byte   N03 ,Fn4
 .byte   W09
 .byte   N18 ,Gs3
 .byte   N18 ,Cs4
 .byte   N18 ,Fn4
 .byte   W24
 .byte   N03 ,Gs3
 .byte   N03 ,Cs4
 .byte   N03 ,Fn4
 .byte   W08
 .byte   Gs3
 .byte   N03 ,Cs4
 .byte   N03 ,Fn4
 .byte   W07
 .byte   Gs3
 .byte   N03 ,Cs4
 .byte   N03 ,Fn4
 .byte   W09
 .byte   PEND 
@ 010   ----------------------------------------
Label_4_0103FF02:
 .byte   N18 ,Gs3 ,v044
 .byte   N18 ,Cs4
 .byte   N18 ,Fn4
 .byte   W24
 .byte   Gs3
 .byte   N18 ,Cs4
 .byte   N18 ,Fn4
 .byte   W24
 .byte   N03 ,Gs3
 .byte   N03 ,Cs4
 .byte   N03 ,Fn4
 .byte   W08
 .byte   Gs3
 .byte   N03 ,Cs4
 .byte   N03 ,Fn4
 .byte   W07
 .byte   Gs3
 .byte   N03 ,Cs4
 .byte   N03 ,Fn4
 .byte   W09
 .byte   Gs3
 .byte   N03 ,Cs4
 .byte   N03 ,Fn4
 .byte   W08
 .byte   Gs3
 .byte   N03 ,Cs4
 .byte   N03 ,Fn4
 .byte   W07
 .byte   Gs3
 .byte   N03 ,Cs4
 .byte   N03 ,Fn4
 .byte   W09
 .byte   PEND 
@ 011   ----------------------------------------
Label_4_0103FF36:
 .byte   N18 ,Bn3 ,v044
 .byte   N18 ,En4
 .byte   N18 ,Gs4
 .byte   W24
 .byte   N03 ,Bn3
 .byte   N03 ,En4
 .byte   N03 ,Gs4
 .byte   W08
 .byte   Bn3
 .byte   N03 ,En4
 .byte   N03 ,Gs4
 .byte   W07
 .byte   Bn3
 .byte   N03 ,En4
 .byte   N03 ,Gs4
 .byte   W09
 .byte   N18 ,As3
 .byte   N18 ,Ds4
 .byte   N18 ,Gs4
 .byte   W24
 .byte   As3
 .byte   N18 ,Ds4
 .byte   N18 ,Gs4
 .byte   W24
 .byte   PEND 
@ 012   ----------------------------------------
 .byte   W96
@ 013   ----------------------------------------
 .byte   W96
@ 014   ----------------------------------------
 .byte   W96
@ 015   ----------------------------------------
 .byte   W96
@ 016   ----------------------------------------
 .byte   W96
@ 017   ----------------------------------------
 .byte   W96
@ 018   ----------------------------------------
 .byte   W96
@ 019   ----------------------------------------
 .byte   W96
@ 020   ----------------------------------------
 .byte   W96
@ 021   ----------------------------------------
 .byte   W96
@ 022   ----------------------------------------
 .byte   W96
@ 023   ----------------------------------------
 .byte   W96
@ 024   ----------------------------------------
 .byte   W96
@ 025   ----------------------------------------
 .byte   W96
@ 026   ----------------------------------------
 .byte   W96
@ 027   ----------------------------------------
 .byte   W96
@ 028   ----------------------------------------
 .byte   W96
@ 029   ----------------------------------------
 .byte   W96
@ 030   ----------------------------------------
 .byte   W96
@ 031   ----------------------------------------
 .byte   W96
@ 032   ----------------------------------------
 .byte   W96
@ 033   ----------------------------------------
 .byte   W96
@ 034   ----------------------------------------
 .byte   W96
@ 035   ----------------------------------------
 .byte   W96
@ 036   ----------------------------------------
 .byte   W96
@ 037   ----------------------------------------
 .byte   W96
@ 038   ----------------------------------------
 .byte   W96
@ 039   ----------------------------------------
 .byte   W96
@ 040   ----------------------------------------
 .byte   W96
@ 041   ----------------------------------------
 .byte   W96
@ 042   ----------------------------------------
 .byte   W96
@ 043   ----------------------------------------
 .byte   W96
@ 044   ----------------------------------------
 .byte   W96
@ 045   ----------------------------------------
 .byte   W96
@ 046   ----------------------------------------
 .byte   W96
@ 047   ----------------------------------------
 .byte   W96
@ 048   ----------------------------------------
 .byte   W96
@ 049   ----------------------------------------
 .byte   W96
@ 050   ----------------------------------------
 .byte   W96
@ 051   ----------------------------------------
 .byte   W96
@ 052   ----------------------------------------
 .byte   W96
@ 053   ----------------------------------------
 .byte   W96
@ 054   ----------------------------------------
 .byte   W96
@ 055   ----------------------------------------
 .byte   W96
@ 056   ----------------------------------------
 .byte   W96
@ 057   ----------------------------------------
 .byte   W96
@ 058   ----------------------------------------
 .byte   W96
@ 059   ----------------------------------------
 .byte   W96
 .byte   PATT
  .word Label_4_0103FE98
 .byte   PATT
  .word Label_4_0103FEC1
 .byte   PATT
  .word Label_4_0103FF02
 .byte   PATT
  .word Label_4_0103FF36
@ 060   ----------------------------------------
 .byte   W96
@ 061   ----------------------------------------
 .byte   W96
@ 062   ----------------------------------------
 .byte   W96
@ 063   ----------------------------------------
 .byte   W96
@ 064   ----------------------------------------
 .byte   W96
@ 065   ----------------------------------------
 .byte   W96
@ 066   ----------------------------------------
 .byte   W96
@ 067   ----------------------------------------
 .byte   W96
@ 068   ----------------------------------------
 .byte   W96
@ 069   ----------------------------------------
 .byte   W96
@ 070   ----------------------------------------
 .byte   W96
@ 071   ----------------------------------------
 .byte   W96
@ 072   ----------------------------------------
 .byte   W96
@ 073   ----------------------------------------
 .byte   W96
@ 074   ----------------------------------------
 .byte   W96
@ 075   ----------------------------------------
 .byte   W96
@ 076   ----------------------------------------
 .byte   W96
@ 077   ----------------------------------------
 .byte   W96
@ 078   ----------------------------------------
 .byte   W96
@ 079   ----------------------------------------
 .byte   W96
@ 080   ----------------------------------------
 .byte   W96
@ 081   ----------------------------------------
 .byte   W96
@ 082   ----------------------------------------
 .byte   W96
@ 083   ----------------------------------------
 .byte   W96
@ 084   ----------------------------------------
 .byte   W96
@ 085   ----------------------------------------
 .byte   W96
@ 086   ----------------------------------------
 .byte   W96
@ 087   ----------------------------------------
 .byte   W96
@ 088   ----------------------------------------
 .byte   W96
@ 089   ----------------------------------------
 .byte   W96
@ 090   ----------------------------------------
 .byte   W96
@ 091   ----------------------------------------
 .byte   W96
@ 092   ----------------------------------------
 .byte   W96
@ 093   ----------------------------------------
 .byte   W96
@ 094   ----------------------------------------
 .byte   W96
@ 095   ----------------------------------------
 .byte   W96
@ 096   ----------------------------------------
 .byte   W96
@ 097   ----------------------------------------
 .byte   W96
@ 098   ----------------------------------------
 .byte   W96
@ 099   ----------------------------------------
 .byte   W84
 .byte   GOTO
  .word Label_4_0103FE86
@ 100   ----------------------------------------
 .byte   W12
 .byte   FINE

@**************** Track 6 (Midi-Chn.5) ****************@

song05_006:
@ 000   ----------------------------------------
 .byte   KEYSH , song05_key+0
Label_5_0103FFD6:
 .byte   VOICE , 60
 .byte   MODT 0
 .byte   CnM2
 .byte   LFOS 0
 .byte   Gs1
 .byte   VOL , 74*song05_mvl/mxv
 .byte   PAN , c_v+14
 .byte   N06 ,Cn3 ,v056
 .byte   N06 ,Fn3
 .byte   N06 ,An3
 .byte   W24
 .byte   N24 ,Fn2
 .byte   N24 ,An2
 .byte   N24 ,Cn3
 .byte   W48
 .byte   Fn2
 .byte   N24 ,An2
 .byte   N24 ,Cn3
 .byte   W24
@ 001   ----------------------------------------
Label_5_0103FFF5:
 .byte   W24
 .byte   N18 ,Fn2 ,v056
 .byte   N18 ,An2
 .byte   N18 ,Cn3
 .byte   W24
 .byte   An2
 .byte   N18 ,Cn3
 .byte   N18 ,En3
 .byte   W24
 .byte   Fn2
 .byte   N18 ,An2
 .byte   N18 ,Cn3
 .byte   W24
 .byte   PEND 
@ 002   ----------------------------------------
Label_5_0104000B:
 .byte   N06 ,Cn3 ,v056
 .byte   N06 ,Ds3
 .byte   N06 ,Gs3
 .byte   W24
 .byte   N24 ,Gs2
 .byte   N24 ,Cn3
 .byte   N24 ,Ds3
 .byte   W48
 .byte   Gs2
 .byte   N24 ,Cn3
 .byte   N24 ,Ds3
 .byte   W24
 .byte   PEND 
@ 003   ----------------------------------------
Label_5_01040021:
 .byte   W24
 .byte   N18 ,Gs2 ,v056
 .byte   N18 ,Cn3
 .byte   N18 ,Ds3
 .byte   W24
 .byte   Cn3
 .byte   N18 ,Ds3
 .byte   N18 ,Gn3
 .byte   W24
 .byte   Gs2
 .byte   N18 ,Cn3
 .byte   N18 ,Ds3
 .byte   W24
 .byte   PEND 
@ 004   ----------------------------------------
Label_5_01040037:
 .byte   N18 ,Cs3 ,v040
 .byte   N18 ,Fn3
 .byte   N18 ,Gs3
 .byte   W24
 .byte   N03 ,Cs3
 .byte   N03 ,Fn3
 .byte   N03 ,Gs3
 .byte   W08
 .byte   Cs3
 .byte   N03 ,Fn3
 .byte   N03 ,Gs3
 .byte   W07
 .byte   Cs3
 .byte   N03 ,Fn3
 .byte   N03 ,Gs3
 .byte   W09
 .byte   N18 ,Cs3
 .byte   N18 ,Fn3
 .byte   N18 ,Gs3
 .byte   W24
 .byte   Cs3
 .byte   N18 ,Fn3
 .byte   N18 ,Gs3
 .byte   W24
 .byte   PEND 
@ 005   ----------------------------------------
Label_5_01040060:
 .byte   N03 ,Cs3 ,v040
 .byte   N03 ,Fn3
 .byte   N03 ,Gs3
 .byte   W08
 .byte   Cs3
 .byte   N03 ,Fn3
 .byte   N03 ,Gs3
 .byte   W07
 .byte   Cs3
 .byte   N03 ,Fn3
 .byte   N03 ,Gs3
 .byte   W09
 .byte   Cs3
 .byte   N03 ,Fn3
 .byte   N03 ,Gs3
 .byte   W08
 .byte   Cs3
 .byte   N03 ,Fn3
 .byte   N03 ,Gs3
 .byte   W07
 .byte   Cs3
 .byte   N03 ,Fn3
 .byte   N03 ,Gs3
 .byte   W09
 .byte   N18 ,Cs3
 .byte   N18 ,Fn3
 .byte   N18 ,Gs3
 .byte   W24
 .byte   N03 ,Cs3
 .byte   N03 ,Fn3
 .byte   N03 ,Gs3
 .byte   W08
 .byte   Cs3
 .byte   N03 ,Fn3
 .byte   N03 ,Gs3
 .byte   W07
 .byte   Cs3
 .byte   N03 ,Fn3
 .byte   N03 ,Gs3
 .byte   W09
 .byte   PEND 
@ 006   ----------------------------------------
Label_5_010400A1:
 .byte   N18 ,Cs3 ,v040
 .byte   N18 ,Fn3
 .byte   N18 ,Gs3
 .byte   W24
 .byte   Cs3
 .byte   N18 ,Fn3
 .byte   N18 ,Gs3
 .byte   W24
 .byte   N03 ,Cs3
 .byte   N03 ,Fn3
 .byte   N03 ,Gs3
 .byte   W08
 .byte   Cs3
 .byte   N03 ,Fn3
 .byte   N03 ,Gs3
 .byte   W07
 .byte   Cs3
 .byte   N03 ,Fn3
 .byte   N03 ,Gs3
 .byte   W09
 .byte   Cs3
 .byte   N03 ,Fn3
 .byte   N03 ,Gs3
 .byte   W08
 .byte   Cs3
 .byte   N03 ,Fn3
 .byte   N03 ,Gs3
 .byte   W07
 .byte   Cs3
 .byte   N03 ,Fn3
 .byte   N03 ,Gs3
 .byte   W09
 .byte   PEND 
@ 007   ----------------------------------------
Label_5_010400D5:
 .byte   N18 ,En3 ,v040
 .byte   N18 ,Gs3
 .byte   N18 ,Bn3
 .byte   W24
 .byte   N03 ,En3
 .byte   N03 ,Gs3
 .byte   N03 ,Bn3
 .byte   W08
 .byte   En3
 .byte   N03 ,Gs3
 .byte   N03 ,Bn3
 .byte   W07
 .byte   En3
 .byte   N03 ,Gs3
 .byte   N03 ,Bn3
 .byte   W09
 .byte   N18 ,Ds3
 .byte   N18 ,Gs3
 .byte   N18 ,As3
 .byte   W24
 .byte   Ds3
 .byte   N18 ,Gs3
 .byte   N18 ,As3
 .byte   W24
 .byte   PEND 
@ 008   ----------------------------------------
Label_5_010400FE:
 .byte   N06 ,Gs2 ,v072
 .byte   W12
 .byte   N18 ,Gs3
 .byte   W24
 .byte   N06 ,Fn3
 .byte   W12
 .byte   N18 ,Gn3
 .byte   W24
 .byte   Ds3
 .byte   W24
 .byte   PEND 
@ 009   ----------------------------------------
Label_5_0104010E:
 .byte   N06 ,Fn3 ,v072
 .byte   W18
 .byte   Cs3
 .byte   W06
 .byte   N06
 .byte   W12
 .byte   Fn3
 .byte   W12
 .byte   N18 ,Ds3
 .byte   W24
 .byte   As2
 .byte   W24
 .byte   PEND 
@ 010   ----------------------------------------
Label_5_0104011E:
 .byte   W12
 .byte   N18 ,Gs3 ,v072
 .byte   W24
 .byte   N06 ,Fn3
 .byte   W12
 .byte   N18 ,Gn3
 .byte   W24
 .byte   N06 ,Ds3
 .byte   W12
 .byte   As3
 .byte   W12
 .byte   PEND 
@ 011   ----------------------------------------
Label_5_0104012F:
 .byte   N06 ,Bn3 ,v072
 .byte   W18
 .byte   Gs3
 .byte   W06
 .byte   N06
 .byte   W12
 .byte   Bn3
 .byte   W12
 .byte   N18 ,As3
 .byte   W24
 .byte   Fs3
 .byte   W24
 .byte   PEND 
@ 012   ----------------------------------------
Label_5_0104013F:
 .byte   N06 ,Gs2 ,v032
 .byte   N06 ,Cn3
 .byte   N06 ,Ds3
 .byte   W12
 .byte   Gs2
 .byte   N06 ,Cn3
 .byte   N06 ,Ds3
 .byte   W12
 .byte   Ds2
 .byte   W12
 .byte   Cs3
 .byte   W12
 .byte   N12 ,Gs2
 .byte   N12 ,Cn3
 .byte   N12 ,Ds3
 .byte   W24
 .byte   N06 ,Gs2
 .byte   N06 ,Cn3
 .byte   N06 ,Ds3
 .byte   W12
 .byte   As2
 .byte   N06 ,Cs3
 .byte   N06 ,Fn3
 .byte   W12
 .byte   PEND 
@ 013   ----------------------------------------
Label_5_01040166:
 .byte   N12 ,Gs2 ,v032
 .byte   N12 ,Cn3
 .byte   N12 ,Ds3
 .byte   W24
 .byte   N06 ,Gs2
 .byte   N06 ,Cn3
 .byte   N06 ,Ds3
 .byte   W12
 .byte   As2
 .byte   N06 ,Cs3
 .byte   N06 ,Fn3
 .byte   W12
 .byte   N12 ,Gs2
 .byte   N12 ,Cn3
 .byte   N12 ,Ds3
 .byte   W24
 .byte   N06 ,Bn2
 .byte   N06 ,Ds3
 .byte   N06 ,Fs3
 .byte   W24
 .byte   PEND 
@ 014   ----------------------------------------
Label_5_0104018A:
 .byte   W12
 .byte   N12 ,Gs2 ,v032
 .byte   N12 ,Cn3
 .byte   N12 ,Ds3
 .byte   W12
 .byte   N48 ,Gn2
 .byte   N48 ,Bn2
 .byte   N48 ,Dn3
 .byte   W48
 .byte   N12 ,Gs2
 .byte   N12 ,Cn3
 .byte   N12 ,Ds3
 .byte   W24
 .byte   PEND 
 .byte   PATT
  .word Label_5_0104018A
@ 015   ----------------------------------------
 .byte   W96
@ 016   ----------------------------------------
 .byte   W96
@ 017   ----------------------------------------
 .byte   W96
@ 018   ----------------------------------------
 .byte   W96
@ 019   ----------------------------------------
Label_5_010401AB:
 .byte   N06 ,Gs2 ,v028
 .byte   N06 ,Cn3
 .byte   N06 ,Ds3
 .byte   W12
 .byte   Gs2
 .byte   N06 ,Cn3
 .byte   N06 ,Ds3
 .byte   W12
 .byte   Ds2
 .byte   W24
 .byte   N12 ,Gs2
 .byte   N12 ,Cn3
 .byte   N12 ,Ds3
 .byte   W24
 .byte   N06 ,Gs2
 .byte   N06 ,Cn3
 .byte   N06 ,Ds3
 .byte   W12
 .byte   As2
 .byte   N06 ,Cs3
 .byte   N06 ,Fn3
 .byte   W12
 .byte   PEND 
@ 020   ----------------------------------------
Label_5_010401D0:
 .byte   N12 ,Gs2 ,v028
 .byte   N12 ,Cn3
 .byte   N12 ,Ds3
 .byte   W24
 .byte   N06 ,Gs2
 .byte   N06 ,Cn3
 .byte   N06 ,Ds3
 .byte   W12
 .byte   As2
 .byte   N06 ,Cs3
 .byte   N06 ,Fn3
 .byte   W12
 .byte   N12 ,Gs2
 .byte   N12 ,Cn3
 .byte   N12 ,Ds3
 .byte   W24
 .byte   N06 ,Bn2
 .byte   N06 ,Ds3
 .byte   N06 ,Fs3
 .byte   W24
 .byte   PEND 
@ 021   ----------------------------------------
Label_5_010401F4:
 .byte   W12
 .byte   N12 ,Gs2 ,v028
 .byte   N12 ,Cn3
 .byte   N12 ,Ds3
 .byte   W12
 .byte   N48 ,Gn2
 .byte   N48 ,Bn2
 .byte   N48 ,Dn3
 .byte   W48
 .byte   N12 ,Gs2
 .byte   N12 ,Cn3
 .byte   N12 ,Ds3
 .byte   W24
 .byte   PEND 
 .byte   PATT
  .word Label_5_010401F4
@ 022   ----------------------------------------
Label_5_01040211:
 .byte   N06 ,An2 ,v056
 .byte   N06 ,Cn3
 .byte   N06 ,Fn3
 .byte   W24
 .byte   N24 ,Fn2
 .byte   N24 ,An2
 .byte   N24 ,Cn3
 .byte   W48
 .byte   Fn2
 .byte   N24 ,An2
 .byte   N24 ,Cn3
 .byte   W24
 .byte   PEND 
@ 023   ----------------------------------------
Label_5_01040227:
 .byte   W24
 .byte   N12 ,Fn2 ,v056
 .byte   N12 ,An2
 .byte   N12 ,Cn3
 .byte   W24
 .byte   An2
 .byte   N12 ,Cn3
 .byte   N12 ,En3
 .byte   W24
 .byte   Fn2
 .byte   N12 ,An2
 .byte   N12 ,Cn3
 .byte   W24
 .byte   PEND 
 .byte   PATT
  .word Label_5_0104000B
@ 024   ----------------------------------------
Label_5_01040242:
 .byte   W24
 .byte   N12 ,Gs2 ,v056
 .byte   N12 ,Cn3
 .byte   N12 ,Ds3
 .byte   W24
 .byte   Cn3
 .byte   N12 ,Ds3
 .byte   N12 ,Gn3
 .byte   W24
 .byte   Gs2
 .byte   N12 ,Cn3
 .byte   N12 ,Ds3
 .byte   W24
 .byte   PEND 
@ 025   ----------------------------------------
Label_5_01040258:
 .byte   W12
 .byte   N06 ,An2 ,v040
 .byte   N06 ,Dn3
 .byte   N06 ,Fs3
 .byte   W12
 .byte   An2
 .byte   N06 ,Dn3
 .byte   N06 ,Fs3
 .byte   W12
 .byte   An2
 .byte   N06 ,Dn3
 .byte   N06 ,Fs3
 .byte   W12
 .byte   An2
 .byte   N06 ,Dn3
 .byte   N06 ,Fs3
 .byte   W12
 .byte   An2
 .byte   N06 ,Dn3
 .byte   N06 ,Fs3
 .byte   W12
 .byte   An2
 .byte   N06 ,Dn3
 .byte   N06 ,Fs3
 .byte   W24
 .byte   PEND 
@ 026   ----------------------------------------
Label_5_01040280:
 .byte   W12
 .byte   N06 ,An2 ,v036
 .byte   N06 ,Dn3
 .byte   N06 ,Fs3
 .byte   W12
 .byte   An2
 .byte   N06 ,Dn3
 .byte   N06 ,Fs3
 .byte   W12
 .byte   An2
 .byte   N06 ,Dn3
 .byte   N06 ,Fs3
 .byte   W12
 .byte   An2
 .byte   N06 ,Dn3
 .byte   N06 ,Fs3
 .byte   W12
 .byte   An2
 .byte   N06 ,Dn3
 .byte   N06 ,Fs3
 .byte   W12
 .byte   An2
 .byte   N06 ,Dn3
 .byte   N06 ,Fs3
 .byte   W24
 .byte   PEND 
@ 027   ----------------------------------------
Label_5_010402A8:
 .byte   W12
 .byte   N06 ,An2 ,v028
 .byte   N06 ,Dn3
 .byte   N06 ,Fs3
 .byte   W12
 .byte   An2
 .byte   N06 ,Dn3
 .byte   N06 ,Fs3
 .byte   W12
 .byte   An2
 .byte   N06 ,Dn3
 .byte   N06 ,Fs3
 .byte   W12
 .byte   An2
 .byte   N06 ,Dn3
 .byte   N06 ,Fs3
 .byte   W12
 .byte   An2
 .byte   N06 ,Dn3
 .byte   N06 ,Fs3
 .byte   W12
 .byte   An2
 .byte   N06 ,Dn3
 .byte   N06 ,Fs3
 .byte   W24
 .byte   PEND 
 .byte   PATT
  .word Label_5_010402A8
@ 028   ----------------------------------------
Label_5_010402D5:
 .byte   W12
 .byte   N06 ,Ds3 ,v028
 .byte   N06 ,Gn3
 .byte   N06 ,As3
 .byte   W12
 .byte   Ds3
 .byte   N06 ,Gn3
 .byte   N06 ,As3
 .byte   W12
 .byte   Ds3
 .byte   N06 ,Gn3
 .byte   N06 ,As3
 .byte   W12
 .byte   Ds3
 .byte   N06 ,Gn3
 .byte   N06 ,As3
 .byte   W12
 .byte   Ds3
 .byte   N06 ,Gn3
 .byte   N06 ,As3
 .byte   W12
 .byte   Ds3
 .byte   N06 ,Gn3
 .byte   N06 ,As3
 .byte   W24
 .byte   PEND 
 .byte   PATT
  .word Label_5_010402D5
 .byte   PATT
  .word Label_5_010402D5
 .byte   PATT
  .word Label_5_010402D5
@ 029   ----------------------------------------
 .byte   W96
@ 030   ----------------------------------------
 .byte   W96
 .byte   PATT
  .word Label_5_010402A8
 .byte   PATT
  .word Label_5_010402A8
 .byte   PATT
  .word Label_5_010402D5
 .byte   PATT
  .word Label_5_010402D5
 .byte   PATT
  .word Label_5_010402D5
 .byte   PATT
  .word Label_5_010402D5
@ 031   ----------------------------------------
 .byte   W96
@ 032   ----------------------------------------
 .byte   W96
@ 033   ----------------------------------------
Label_5_0104032E:
 .byte   N24 ,Dn3 ,v040
 .byte   W24
 .byte   An3
 .byte   W24
 .byte   N24
 .byte   W24
 .byte   N12 ,Gn3
 .byte   W12
 .byte   Fs3
 .byte   W12
 .byte   PEND 
@ 034   ----------------------------------------
 .byte   N24 ,Gn3
 .byte   W24
 .byte   Bn3
 .byte   W24
 .byte   N24
 .byte   W24
 .byte   N12 ,Cs4
 .byte   W12
 .byte   Dn4
 .byte   W12
@ 035   ----------------------------------------
Label_5_01040348:
 .byte   N24 ,Cs4 ,v040
 .byte   W24
 .byte   An3
 .byte   W24
 .byte   En4
 .byte   W24
 .byte   N12 ,Dn4
 .byte   W12
 .byte   Cs4
 .byte   W12
 .byte   PEND 
@ 036   ----------------------------------------
Label_5_01040356:
 .byte   N24 ,Dn4 ,v040
 .byte   W24
 .byte   As3
 .byte   W24
 .byte   Dn4
 .byte   W24
 .byte   Fn4
 .byte   W24
 .byte   PEND 
@ 037   ----------------------------------------
Label_5_01040361:
 .byte   N06 ,En2 ,v056
 .byte   N06 ,En3
 .byte   W12
 .byte   Fs2
 .byte   N06 ,Fs3
 .byte   W12
 .byte   N24 ,Gn2
 .byte   N24 ,Bn2
 .byte   N24 ,Dn3
 .byte   W36
 .byte   N06 ,Gn2
 .byte   N06 ,Bn2
 .byte   N06 ,Dn3
 .byte   W12
 .byte   Gn2
 .byte   N06 ,Bn2
 .byte   N06 ,Dn3
 .byte   W12
 .byte   Gn2
 .byte   N06 ,Bn2
 .byte   N06 ,Dn3
 .byte   W12
 .byte   PEND 
@ 038   ----------------------------------------
 .byte   N12
 .byte   N12 ,Gn3
 .byte   N12 ,Bn3
 .byte   W24
 .byte   Dn3
 .byte   N12 ,Fs3
 .byte   N12 ,An3
 .byte   W24
 .byte   Dn3
 .byte   N12 ,Gn3
 .byte   N12 ,Bn3
 .byte   W24
 .byte   En3
 .byte   N12 ,An3
 .byte   N12 ,Cs4
 .byte   W24
@ 039   ----------------------------------------
 .byte   N06 ,Cn3
 .byte   N06 ,Fn3
 .byte   N06 ,An3
 .byte   W24
 .byte   N24 ,Fn2
 .byte   N24 ,An2
 .byte   N24 ,Cn3
 .byte   W48
 .byte   Fn2
 .byte   N24 ,An2
 .byte   N24 ,Cn3
 .byte   W24
 .byte   PATT
  .word Label_5_0103FFF5
 .byte   PATT
  .word Label_5_0104000B
 .byte   PATT
  .word Label_5_01040021
 .byte   PATT
  .word Label_5_01040037
 .byte   PATT
  .word Label_5_01040060
 .byte   PATT
  .word Label_5_010400A1
 .byte   PATT
  .word Label_5_010400D5
 .byte   PATT
  .word Label_5_010400FE
 .byte   PATT
  .word Label_5_0104010E
 .byte   PATT
  .word Label_5_0104011E
 .byte   PATT
  .word Label_5_0104012F
 .byte   PATT
  .word Label_5_0104013F
 .byte   PATT
  .word Label_5_01040166
 .byte   PATT
  .word Label_5_0104018A
 .byte   PATT
  .word Label_5_0104018A
@ 040   ----------------------------------------
 .byte   W96
@ 041   ----------------------------------------
 .byte   W96
@ 042   ----------------------------------------
 .byte   W96
@ 043   ----------------------------------------
 .byte   W96
 .byte   PATT
  .word Label_5_010401AB
 .byte   PATT
  .word Label_5_010401D0
 .byte   PATT
  .word Label_5_010401F4
 .byte   PATT
  .word Label_5_010401F4
 .byte   PATT
  .word Label_5_01040211
 .byte   PATT
  .word Label_5_01040227
 .byte   PATT
  .word Label_5_0104000B
 .byte   PATT
  .word Label_5_01040242
 .byte   PATT
  .word Label_5_01040258
 .byte   PATT
  .word Label_5_01040280
 .byte   PATT
  .word Label_5_010402A8
 .byte   PATT
  .word Label_5_010402A8
 .byte   PATT
  .word Label_5_010402D5
 .byte   PATT
  .word Label_5_010402D5
 .byte   PATT
  .word Label_5_010402D5
 .byte   PATT
  .word Label_5_010402D5
@ 044   ----------------------------------------
 .byte   W96
@ 045   ----------------------------------------
 .byte   W96
 .byte   PATT
  .word Label_5_010402A8
 .byte   PATT
  .word Label_5_010402A8
 .byte   PATT
  .word Label_5_010402D5
 .byte   PATT
  .word Label_5_010402D5
 .byte   PATT
  .word Label_5_010402D5
 .byte   PATT
  .word Label_5_010402D5
@ 046   ----------------------------------------
 .byte   W96
@ 047   ----------------------------------------
 .byte   W96
 .byte   PATT
  .word Label_5_0104032E
@ 048   ----------------------------------------
 .byte   N24 ,Gn3 ,v040
 .byte   W24
 .byte   N23 ,Bn3
 .byte   W24
 .byte   N24
 .byte   W24
 .byte   N12 ,Cs4
 .byte   W12
 .byte   Dn4
 .byte   W12
 .byte   PATT
  .word Label_5_01040348
 .byte   PATT
  .word Label_5_01040356
 .byte   PATT
  .word Label_5_01040361
@ 049   ----------------------------------------
 .byte   N12 ,Dn3 ,v056
 .byte   N12 ,Gn3
 .byte   N12 ,Bn3
 .byte   W24
 .byte   Dn3
 .byte   N12 ,Fs3
 .byte   N12 ,An3
 .byte   W24
 .byte   Dn3
 .byte   N12 ,Gn3
 .byte   N12 ,Bn3
 .byte   W24
 .byte   En3
 .byte   N12 ,An3
 .byte   N12 ,Cs4
 .byte   W12
 .byte   GOTO
  .word Label_5_0103FFD6
@ 050   ----------------------------------------
 .byte   W12
 .byte   FINE

@**************** Track 7 (Midi-Chn.6) ****************@

song05_007:
@ 000   ----------------------------------------
 .byte   KEYSH , song05_key+0
Label_6_010404BA:
 .byte   VOICE , 47
 .byte   MODT 0
 .byte   CnM2
 .byte   LFOS 0
 .byte   Gs1
 .byte   PAN , c_v-25
 .byte   VOL , 60*song05_mvl/mxv
 .byte   W96
@ 001   ----------------------------------------
 .byte   W96
@ 002   ----------------------------------------
 .byte   W96
@ 003   ----------------------------------------
 .byte   W96
@ 004   ----------------------------------------
 .byte   W96
@ 005   ----------------------------------------
 .byte   W96
@ 006   ----------------------------------------
 .byte   W96
@ 007   ----------------------------------------
 .byte   W96
@ 008   ----------------------------------------
 .byte   W96
@ 009   ----------------------------------------
 .byte   W96
@ 010   ----------------------------------------
 .byte   W96
@ 011   ----------------------------------------
 .byte   W96
@ 012   ----------------------------------------
 .byte   W96
@ 013   ----------------------------------------
 .byte   W96
@ 014   ----------------------------------------
 .byte   W96
@ 015   ----------------------------------------
 .byte   W72
 .byte   N03 ,Dn2 ,v044
 .byte   W03
 .byte   N02
 .byte   W03
 .byte   N03
 .byte   W03
 .byte   N02
 .byte   W03
 .byte   N03
 .byte   W03
 .byte   N02
 .byte   W03
 .byte   N03
 .byte   W03
 .byte   N02
 .byte   W03
@ 016   ----------------------------------------
 .byte   N12 ,Gs1
 .byte   W24
 .byte   N12
 .byte   W18
 .byte   N02
 .byte   W02
 .byte   N03
 .byte   W04
 .byte   N12
 .byte   W24
 .byte   N12
 .byte   W24
@ 017   ----------------------------------------
 .byte   N12
 .byte   W24
 .byte   N12
 .byte   W24
 .byte   N12
 .byte   W24
 .byte   N12
 .byte   W18
 .byte   N02
 .byte   W02
 .byte   N03
 .byte   W04
@ 018   ----------------------------------------
Label_6_010404FF:
 .byte   N12 ,Gs1 ,v044
 .byte   W24
 .byte   N12
 .byte   W18
 .byte   N03
 .byte   W03
 .byte   N02
 .byte   W03
 .byte   N12
 .byte   W24
 .byte   N12
 .byte   W24
 .byte   PEND 
@ 019   ----------------------------------------
 .byte   N12
 .byte   W24
 .byte   N12
 .byte   W18
 .byte   N02
 .byte   W02
 .byte   N03
 .byte   W04
 .byte   N08
 .byte   W08
 .byte   N07
 .byte   W07
 .byte   N08
 .byte   W09
 .byte   N08
 .byte   W08
 .byte   N07
 .byte   W07
 .byte   N08
 .byte   W09
@ 020   ----------------------------------------
 .byte   N24
 .byte   W96
@ 021   ----------------------------------------
 .byte   W96
@ 022   ----------------------------------------
 .byte   W96
@ 023   ----------------------------------------
 .byte   W96
@ 024   ----------------------------------------
 .byte   W96
@ 025   ----------------------------------------
 .byte   W96
@ 026   ----------------------------------------
 .byte   W96
@ 027   ----------------------------------------
 .byte   W96
@ 028   ----------------------------------------
 .byte   W96
@ 029   ----------------------------------------
 .byte   W96
@ 030   ----------------------------------------
 .byte   W96
@ 031   ----------------------------------------
 .byte   W96
@ 032   ----------------------------------------
 .byte   W96
@ 033   ----------------------------------------
 .byte   W96
@ 034   ----------------------------------------
 .byte   W96
@ 035   ----------------------------------------
 .byte   W96
@ 036   ----------------------------------------
 .byte   W96
@ 037   ----------------------------------------
 .byte   W96
@ 038   ----------------------------------------
 .byte   W96
@ 039   ----------------------------------------
 .byte   W96
@ 040   ----------------------------------------
 .byte   W96
@ 041   ----------------------------------------
 .byte   W96
@ 042   ----------------------------------------
 .byte   W96
@ 043   ----------------------------------------
 .byte   W96
@ 044   ----------------------------------------
 .byte   W96
@ 045   ----------------------------------------
 .byte   W96
@ 046   ----------------------------------------
Label_6_0104053D:
 .byte   N24 ,Dn2 ,v024
 .byte   W24
 .byte   N24
 .byte   W24
 .byte   N24
 .byte   W24
 .byte   N24
 .byte   W24
 .byte   PEND 
 .byte   PATT
  .word Label_6_0104053D
 .byte   PATT
  .word Label_6_0104053D
 .byte   PATT
  .word Label_6_0104053D
@ 047   ----------------------------------------
Label_6_01040557:
 .byte   N24 ,An1 ,v044
 .byte   W24
 .byte   N24
 .byte   W48
 .byte   N24
 .byte   W24
 .byte   PEND 
@ 048   ----------------------------------------
 .byte   W24
 .byte   N24
 .byte   W48
 .byte   N24
 .byte   W24
@ 049   ----------------------------------------
 .byte   W96
@ 050   ----------------------------------------
 .byte   W96
@ 051   ----------------------------------------
 .byte   W96
@ 052   ----------------------------------------
 .byte   W96
@ 053   ----------------------------------------
 .byte   W96
@ 054   ----------------------------------------
 .byte   W96
@ 055   ----------------------------------------
 .byte   W96
@ 056   ----------------------------------------
 .byte   W96
@ 057   ----------------------------------------
 .byte   W96
@ 058   ----------------------------------------
 .byte   W96
@ 059   ----------------------------------------
 .byte   W96
@ 060   ----------------------------------------
 .byte   W96
@ 061   ----------------------------------------
 .byte   W96
@ 062   ----------------------------------------
 .byte   W96
@ 063   ----------------------------------------
 .byte   W96
@ 064   ----------------------------------------
 .byte   W72
 .byte   N02 ,Dn2
 .byte   W02
 .byte   N03
 .byte   W04
 .byte   N02
 .byte   W02
 .byte   N03
 .byte   W04
 .byte   N02
 .byte   W02
 .byte   N03
 .byte   W04
 .byte   N02
 .byte   W02
 .byte   N03
 .byte   W04
 .byte   PATT
  .word Label_6_010404FF
@ 065   ----------------------------------------
 .byte   N12 ,Gs1 ,v044
 .byte   W24
 .byte   N12
 .byte   W24
 .byte   N12
 .byte   W24
 .byte   N12
 .byte   W18
 .byte   N03
 .byte   W03
 .byte   N02
 .byte   W03
 .byte   PATT
  .word Label_6_010404FF
@ 066   ----------------------------------------
 .byte   N12 ,Gs1 ,v044
 .byte   W24
 .byte   N12
 .byte   W18
 .byte   N03
 .byte   W03
 .byte   N02
 .byte   W03
 .byte   N08
 .byte   W08
 .byte   N07
 .byte   W07
 .byte   N08
 .byte   W09
 .byte   N08
 .byte   W08
 .byte   N07
 .byte   W07
 .byte   N08
 .byte   W09
@ 067   ----------------------------------------
 .byte   N24
 .byte   W96
@ 068   ----------------------------------------
 .byte   W96
@ 069   ----------------------------------------
 .byte   W96
@ 070   ----------------------------------------
 .byte   W96
@ 071   ----------------------------------------
 .byte   W96
@ 072   ----------------------------------------
 .byte   W96
@ 073   ----------------------------------------
 .byte   W96
@ 074   ----------------------------------------
 .byte   W96
@ 075   ----------------------------------------
 .byte   W96
@ 076   ----------------------------------------
 .byte   W96
@ 077   ----------------------------------------
 .byte   W96
@ 078   ----------------------------------------
 .byte   W96
@ 079   ----------------------------------------
 .byte   W96
@ 080   ----------------------------------------
 .byte   W96
@ 081   ----------------------------------------
 .byte   W96
@ 082   ----------------------------------------
 .byte   W96
@ 083   ----------------------------------------
 .byte   W96
@ 084   ----------------------------------------
 .byte   W96
@ 085   ----------------------------------------
 .byte   W96
@ 086   ----------------------------------------
 .byte   W96
@ 087   ----------------------------------------
 .byte   W96
@ 088   ----------------------------------------
 .byte   W96
@ 089   ----------------------------------------
 .byte   W96
@ 090   ----------------------------------------
 .byte   W96
@ 091   ----------------------------------------
 .byte   W96
@ 092   ----------------------------------------
 .byte   W96
 .byte   PATT
  .word Label_6_0104053D
 .byte   PATT
  .word Label_6_0104053D
 .byte   PATT
  .word Label_6_0104053D
 .byte   PATT
  .word Label_6_0104053D
 .byte   PATT
  .word Label_6_01040557
@ 093   ----------------------------------------
 .byte   W24
 .byte   N24 ,An1 ,v044
 .byte   W48
 .byte   N24
 .byte   W12
 .byte   GOTO
  .word Label_6_010404BA
@ 094   ----------------------------------------
 .byte   W12
 .byte   FINE

@**************** Track 8 (Midi-Chn.7) ****************@

song05_008:
@ 000   ----------------------------------------
 .byte   KEYSH , song05_key+0
Label_7_010405FA:
 .byte   VOICE , 8
 .byte   MODT 0
 .byte   CnM2
 .byte   LFOS 0
 .byte   Gs1
 .byte   VOL , 49*song05_mvl/mxv
 .byte   PAN , c_v-28
 .byte   W96
@ 001   ----------------------------------------
 .byte   W96
@ 002   ----------------------------------------
 .byte   W96
@ 003   ----------------------------------------
 .byte   W96
@ 004   ----------------------------------------
 .byte   W96
@ 005   ----------------------------------------
 .byte   W96
@ 006   ----------------------------------------
 .byte   W96
@ 007   ----------------------------------------
 .byte   W96
@ 008   ----------------------------------------
 .byte   W96
@ 009   ----------------------------------------
 .byte   W96
@ 010   ----------------------------------------
 .byte   W96
@ 011   ----------------------------------------
 .byte   W96
@ 012   ----------------------------------------
 .byte   W96
@ 013   ----------------------------------------
 .byte   W96
@ 014   ----------------------------------------
 .byte   W96
@ 015   ----------------------------------------
 .byte   W96
@ 016   ----------------------------------------
 .byte   W96
@ 017   ----------------------------------------
 .byte   W96
@ 018   ----------------------------------------
 .byte   W96
@ 019   ----------------------------------------
 .byte   W96
@ 020   ----------------------------------------
 .byte   W96
@ 021   ----------------------------------------
 .byte   W96
@ 022   ----------------------------------------
 .byte   W96
@ 023   ----------------------------------------
 .byte   W96
@ 024   ----------------------------------------
 .byte   W96
@ 025   ----------------------------------------
 .byte   W96
@ 026   ----------------------------------------
 .byte   W96
@ 027   ----------------------------------------
 .byte   W96
@ 028   ----------------------------------------
 .byte   W96
@ 029   ----------------------------------------
 .byte   W72
 .byte   N24 ,Dn6 ,v044
 .byte   W24
@ 030   ----------------------------------------
Label_7_01040626:
 .byte   N24 ,Fs6 ,v044
 .byte   W24
 .byte   Dn6
 .byte   W24
 .byte   An6
 .byte   W24
 .byte   N06 ,Gn6
 .byte   W12
 .byte   Fs6
 .byte   W12
 .byte   PEND 
@ 031   ----------------------------------------
Label_7_01040634:
 .byte   N24 ,Fs6 ,v044
 .byte   W24
 .byte   Dn6
 .byte   W24
 .byte   Gn6
 .byte   W24
 .byte   An6
 .byte   W24
 .byte   PEND 
@ 032   ----------------------------------------
Label_7_0104063F:
 .byte   N24 ,As6 ,v044
 .byte   W24
 .byte   N72 ,Ds6
 .byte   W72
 .byte   PEND 
@ 033   ----------------------------------------
Label_7_01040647:
 .byte   N24 ,As6 ,v044
 .byte   W24
 .byte   N48 ,Cn6
 .byte   W48
 .byte   N24 ,Fn6
 .byte   W24
 .byte   PEND 
@ 034   ----------------------------------------
Label_7_01040652:
 .byte   N24 ,Ds6 ,v044
 .byte   W24
 .byte   N48 ,Dn6
 .byte   W48
 .byte   N96 ,Cn6
 .byte   W24
 .byte   PEND 
@ 035   ----------------------------------------
 .byte   W72
 .byte   N24 ,Dn6
 .byte   W24
@ 036   ----------------------------------------
 .byte   N96
 .byte   W96
@ 037   ----------------------------------------
 .byte   W72
 .byte   N24
 .byte   W24
 .byte   PATT
  .word Label_7_01040626
 .byte   PATT
  .word Label_7_01040634
 .byte   PATT
  .word Label_7_0104063F
 .byte   PATT
  .word Label_7_01040647
@ 038   ----------------------------------------
Label_7_0104067A:
 .byte   N24 ,Ds6 ,v044
 .byte   W24
 .byte   N48 ,Dn6
 .byte   W48
 .byte   N24 ,Cn6
 .byte   W24
 .byte   PEND 
@ 039   ----------------------------------------
Label_7_01040685:
 .byte   N72 ,Cn6 ,v044
 .byte   N72 ,Cn7
 .byte   W72
 .byte   N24 ,Fn6
 .byte   W24
 .byte   PEND 
@ 040   ----------------------------------------
 .byte   W96
@ 041   ----------------------------------------
 .byte   W96
@ 042   ----------------------------------------
 .byte   W96
@ 043   ----------------------------------------
 .byte   W96
@ 044   ----------------------------------------
 .byte   W96
@ 045   ----------------------------------------
 .byte   W96
@ 046   ----------------------------------------
 .byte   W96
@ 047   ----------------------------------------
 .byte   W96
@ 048   ----------------------------------------
 .byte   W96
@ 049   ----------------------------------------
 .byte   W96
@ 050   ----------------------------------------
 .byte   W96
@ 051   ----------------------------------------
 .byte   W96
@ 052   ----------------------------------------
 .byte   W96
@ 053   ----------------------------------------
 .byte   W96
@ 054   ----------------------------------------
 .byte   W96
@ 055   ----------------------------------------
 .byte   W96
@ 056   ----------------------------------------
 .byte   W96
@ 057   ----------------------------------------
 .byte   W96
@ 058   ----------------------------------------
 .byte   W96
@ 059   ----------------------------------------
 .byte   W96
@ 060   ----------------------------------------
 .byte   W96
@ 061   ----------------------------------------
 .byte   W96
@ 062   ----------------------------------------
 .byte   W96
@ 063   ----------------------------------------
 .byte   W96
@ 064   ----------------------------------------
 .byte   W96
@ 065   ----------------------------------------
 .byte   W96
@ 066   ----------------------------------------
 .byte   W96
@ 067   ----------------------------------------
 .byte   W96
@ 068   ----------------------------------------
 .byte   W96
@ 069   ----------------------------------------
 .byte   W96
@ 070   ----------------------------------------
 .byte   W96
@ 071   ----------------------------------------
 .byte   W96
@ 072   ----------------------------------------
 .byte   W96
@ 073   ----------------------------------------
 .byte   W96
@ 074   ----------------------------------------
 .byte   W96
@ 075   ----------------------------------------
 .byte   W96
@ 076   ----------------------------------------
 .byte   W96
@ 077   ----------------------------------------
 .byte   W72
 .byte   Dn6
 .byte   W24
 .byte   PATT
  .word Label_7_01040626
 .byte   PATT
  .word Label_7_01040634
 .byte   PATT
  .word Label_7_0104063F
 .byte   PATT
  .word Label_7_01040647
 .byte   PATT
  .word Label_7_01040652
@ 078   ----------------------------------------
 .byte   W72
 .byte   N24 ,Dn6 ,v044
 .byte   W24
@ 079   ----------------------------------------
 .byte   N96
 .byte   W96
@ 080   ----------------------------------------
 .byte   W72
 .byte   N24
 .byte   W24
 .byte   PATT
  .word Label_7_01040626
 .byte   PATT
  .word Label_7_01040634
 .byte   PATT
  .word Label_7_0104063F
 .byte   PATT
  .word Label_7_01040647
 .byte   PATT
  .word Label_7_0104067A
 .byte   PATT
  .word Label_7_01040685
@ 081   ----------------------------------------
 .byte   W96
@ 082   ----------------------------------------
 .byte   W96
@ 083   ----------------------------------------
 .byte   W96
@ 084   ----------------------------------------
 .byte   W96
@ 085   ----------------------------------------
 .byte   W96
@ 086   ----------------------------------------
 .byte   W96
@ 087   ----------------------------------------
 .byte   W96
@ 088   ----------------------------------------
 .byte   W84
 .byte   GOTO
  .word Label_7_010405FA
@ 089   ----------------------------------------
 .byte   W12
 .byte   FINE

@**************** Track 9 (Midi-Chn.8) ****************@

song05_009:
@ 000   ----------------------------------------
 .byte   KEYSH , song05_key+0
Label_8_0104070A:
 .byte   VOICE , 48
 .byte   MODT 0
 .byte   CnM2
 .byte   LFOS 0
 .byte   Gs1
 .byte   VOL , 60*song05_mvl/mxv
 .byte   PAN , c_v-43
 .byte   N06 ,Cn4 ,v072
 .byte   N06 ,Cn5
 .byte   W12
 .byte   An3
 .byte   N06 ,An4
 .byte   W12
 .byte   N13 ,Dn4
 .byte   N12 ,Dn5
 .byte   W24
 .byte   N24 ,Gn3
 .byte   N24 ,Gn4
 .byte   W36
 .byte   N06 ,Cn4
 .byte   N06 ,Cn5
 .byte   W12
@ 001   ----------------------------------------
Label_8_0104072D:
 .byte   N06 ,An3 ,v072
 .byte   N06 ,An4
 .byte   W12
 .byte   Dn4
 .byte   N06 ,Dn5
 .byte   W12
 .byte   Gn3
 .byte   N06 ,Gn4
 .byte   W12
 .byte   Cn4
 .byte   N06 ,Cn5
 .byte   W12
 .byte   N12 ,An3
 .byte   N12 ,An4
 .byte   W12
 .byte   N06 ,Dn4
 .byte   N06 ,Dn5
 .byte   W12
 .byte   Gn3
 .byte   N06 ,Gn4
 .byte   W06
 .byte   An3
 .byte   N06 ,An4
 .byte   W06
 .byte   Bn3
 .byte   N06 ,Bn4
 .byte   W06
 .byte   Dn4
 .byte   N06 ,Dn5
 .byte   W06
 .byte   PEND 
@ 002   ----------------------------------------
Label_8_0104075A:
 .byte   N06 ,As2 ,v072
 .byte   N06 ,Ds4
 .byte   N06 ,Ds5
 .byte   W12
 .byte   Cn4
 .byte   N06 ,Cn5
 .byte   W12
 .byte   N15 ,Fn4
 .byte   N15 ,Fn5
 .byte   W24
 .byte   N24 ,As3
 .byte   N24 ,As4
 .byte   W36
 .byte   N06 ,Ds4
 .byte   N06 ,Ds5
 .byte   W12
 .byte   PEND 
@ 003   ----------------------------------------
Label_8_01040776:
 .byte   N06 ,Cn4 ,v072
 .byte   N06 ,Cn5
 .byte   W12
 .byte   Fn4
 .byte   N06 ,Fn5
 .byte   W12
 .byte   As3
 .byte   N06 ,As4
 .byte   W12
 .byte   Ds4
 .byte   N06 ,Ds5
 .byte   W12
 .byte   N12 ,Cn4
 .byte   N12 ,Cn5
 .byte   W12
 .byte   N06 ,Fn4
 .byte   N06 ,Fn5
 .byte   W12
 .byte   As3
 .byte   N06 ,As4
 .byte   W06
 .byte   Cn4
 .byte   N06 ,Cn5
 .byte   W06
 .byte   Dn4
 .byte   N06 ,Dn5
 .byte   W06
 .byte   Fn4
 .byte   N06 ,Fn5
 .byte   W06
 .byte   PEND 
@ 004   ----------------------------------------
Label_8_010407A3:
 .byte   N06 ,Gs5 ,v036
 .byte   W06
 .byte   Gn5
 .byte   W06
 .byte   N18 ,Gs3 ,v084
 .byte   N06 ,Fn5 ,v036
 .byte   W06
 .byte   Ds5
 .byte   W06
 .byte   Gs5
 .byte   W06
 .byte   Gn5
 .byte   W06
 .byte   Fn3 ,v084
 .byte   N06 ,Fn5 ,v036
 .byte   W06
 .byte   Ds5
 .byte   W06
 .byte   N18 ,Gn3 ,v084
 .byte   N06 ,Gs5 ,v036
 .byte   W06
 .byte   Gn5
 .byte   W06
 .byte   Fn5
 .byte   W06
 .byte   Ds5
 .byte   W06
 .byte   N18 ,Ds3 ,v084
 .byte   N06 ,Gs5 ,v036
 .byte   W06
 .byte   Gn5
 .byte   W06
 .byte   Fn5
 .byte   W06
 .byte   Ds5
 .byte   W06
 .byte   PEND 
@ 005   ----------------------------------------
Label_8_010407D9:
 .byte   N06 ,Fn3 ,v084
 .byte   N06 ,Gs5 ,v036
 .byte   W06
 .byte   Gn5
 .byte   W06
 .byte   Fn5
 .byte   W06
 .byte   Cs3 ,v084
 .byte   N06 ,Ds5 ,v036
 .byte   W06
 .byte   Cs3 ,v084
 .byte   N06 ,Gs5 ,v036
 .byte   W06
 .byte   Gn5
 .byte   W06
 .byte   Fn3 ,v084
 .byte   N06 ,Fn5 ,v036
 .byte   W06
 .byte   Ds5
 .byte   W06
 .byte   N18 ,Ds3 ,v084
 .byte   N06 ,Gs5 ,v036
 .byte   W06
 .byte   Gn5
 .byte   W06
 .byte   Fn5
 .byte   W06
 .byte   Ds5
 .byte   W06
 .byte   N18 ,As2 ,v084
 .byte   N06 ,Gs5 ,v036
 .byte   W06
 .byte   Gn5
 .byte   W06
 .byte   Fn5
 .byte   W06
 .byte   Ds5
 .byte   W06
 .byte   PEND 
@ 006   ----------------------------------------
Label_8_01040815:
 .byte   N06 ,Gs5 ,v036
 .byte   W06
 .byte   Gn5
 .byte   W06
 .byte   N18 ,Gs3 ,v084
 .byte   N06 ,Fn5 ,v036
 .byte   W06
 .byte   Ds5
 .byte   W06
 .byte   Gs5
 .byte   W06
 .byte   Gn5
 .byte   W06
 .byte   Fn3 ,v084
 .byte   N06 ,Fn5 ,v036
 .byte   W06
 .byte   Ds5
 .byte   W06
 .byte   N18 ,Gn3 ,v084
 .byte   N06 ,Gs5 ,v036
 .byte   W06
 .byte   Gn5
 .byte   W06
 .byte   Fn5
 .byte   W06
 .byte   Ds5
 .byte   W06
 .byte   Ds3 ,v084
 .byte   N06 ,Gs5 ,v036
 .byte   W06
 .byte   Gn5
 .byte   W06
 .byte   As3 ,v084
 .byte   N06 ,Fn5 ,v036
 .byte   W06
 .byte   Ds5
 .byte   W06
 .byte   PEND 
@ 007   ----------------------------------------
Label_8_0104084E:
 .byte   N06 ,Bn3 ,v084
 .byte   N06 ,En5 ,v036
 .byte   W06
 .byte   Ds5
 .byte   W06
 .byte   Cs5
 .byte   W06
 .byte   Gs3 ,v084
 .byte   N06 ,Bn4 ,v036
 .byte   W06
 .byte   Gs3 ,v084
 .byte   N06 ,Bn5 ,v036
 .byte   W06
 .byte   As5
 .byte   W06
 .byte   Bn3 ,v084
 .byte   N06 ,Gs5 ,v036
 .byte   W06
 .byte   Fs5
 .byte   W06
 .byte   N18 ,As3 ,v084
 .byte   N06 ,As5 ,v036
 .byte   W06
 .byte   Gs5
 .byte   W06
 .byte   Fs5
 .byte   W06
 .byte   Cs5
 .byte   W06
 .byte   N18 ,Fs3 ,v084
 .byte   N06 ,Fs5 ,v036
 .byte   W06
 .byte   Cs5
 .byte   W06
 .byte   Bn4
 .byte   W06
 .byte   As4
 .byte   W06
 .byte   PEND 
@ 008   ----------------------------------------
Label_8_0104088A:
 .byte   N06 ,Gs5 ,v036
 .byte   W06
 .byte   Gn5
 .byte   W06
 .byte   Fn5
 .byte   W06
 .byte   Ds5
 .byte   W06
 .byte   Gs5
 .byte   W06
 .byte   Gn5
 .byte   W06
 .byte   Fn5
 .byte   W06
 .byte   Ds5
 .byte   W06
 .byte   Gs5
 .byte   W06
 .byte   Gn5
 .byte   W06
 .byte   Fn5
 .byte   W06
 .byte   Ds5
 .byte   W06
 .byte   Gs5
 .byte   W06
 .byte   Gn5
 .byte   W06
 .byte   Fn5
 .byte   W06
 .byte   Ds5
 .byte   W06
 .byte   PEND 
 .byte   PATT
  .word Label_8_0104088A
 .byte   PATT
  .word Label_8_0104088A
@ 009   ----------------------------------------
Label_8_010408B7:
 .byte   N06 ,En5 ,v036
 .byte   W06
 .byte   Ds5
 .byte   W06
 .byte   Cs5
 .byte   W06
 .byte   Bn4
 .byte   W06
 .byte   Bn5
 .byte   W06
 .byte   As5
 .byte   W06
 .byte   Gs5
 .byte   W06
 .byte   Fs5
 .byte   W06
 .byte   As5
 .byte   W06
 .byte   Gs5
 .byte   W06
 .byte   Fs5
 .byte   W06
 .byte   Cs5
 .byte   W06
 .byte   Fs5
 .byte   W06
 .byte   Cs5
 .byte   W06
 .byte   Bn4
 .byte   W06
 .byte   As4
 .byte   W06
 .byte   PEND 
@ 010   ----------------------------------------
 .byte   W96
@ 011   ----------------------------------------
 .byte   W96
@ 012   ----------------------------------------
 .byte   W96
@ 013   ----------------------------------------
 .byte   W96
@ 014   ----------------------------------------
Label_8_010408DE:
 .byte   N03 ,Gs2 ,v068
 .byte   N03 ,As2
 .byte   N03 ,Ds3
 .byte   N06 ,Gs5 ,v036
 .byte   W06
 .byte   Ds5
 .byte   W06
 .byte   Cs5
 .byte   W03
 .byte   N03 ,Gs2 ,v068
 .byte   N03 ,As2
 .byte   N03 ,Ds3
 .byte   W03
 .byte   N06 ,Gs4 ,v036
 .byte   W06
 .byte   Gs5
 .byte   W06
 .byte   Ds5
 .byte   W02
 .byte   N03 ,Gs2 ,v068
 .byte   N03 ,As2
 .byte   N03 ,Ds3
 .byte   W04
 .byte   N06 ,Cs5 ,v036
 .byte   W03
 .byte   N03 ,Gs2 ,v068
 .byte   N03 ,As2
 .byte   N03 ,Ds3
 .byte   W03
 .byte   N06 ,Gs4 ,v036
 .byte   W06
 .byte   N03 ,Gs2 ,v068
 .byte   N03 ,As2
 .byte   N03 ,Ds3
 .byte   N06 ,Gs5 ,v036
 .byte   W06
 .byte   Ds5
 .byte   W06
 .byte   Cs5
 .byte   W03
 .byte   N03 ,Gs2 ,v068
 .byte   N03 ,As2
 .byte   N03 ,Ds3
 .byte   W03
 .byte   N06 ,Gs4 ,v036
 .byte   W06
 .byte   Gs5
 .byte   W06
 .byte   Ds5
 .byte   W02
 .byte   N03 ,Gs2 ,v068
 .byte   N03 ,As2
 .byte   N03 ,Ds3
 .byte   W04
 .byte   N06 ,Cs5 ,v036
 .byte   W03
 .byte   N03 ,Gs2 ,v068
 .byte   N03 ,As2
 .byte   N03 ,Ds3
 .byte   W03
 .byte   N06 ,Gs4 ,v036
 .byte   W06
 .byte   PEND 
@ 015   ----------------------------------------
Label_8_0104094D:
 .byte   N03 ,Gs2 ,v068
 .byte   N03 ,As2
 .byte   N03 ,Ds3
 .byte   N06 ,Gs5 ,v036
 .byte   W06
 .byte   Ds5
 .byte   W06
 .byte   Cs5
 .byte   W03
 .byte   N03 ,Gs2 ,v068
 .byte   N03 ,As2
 .byte   N03 ,Ds3
 .byte   W03
 .byte   N06 ,Gs4 ,v036
 .byte   W06
 .byte   Gs5
 .byte   W06
 .byte   Ds5
 .byte   W02
 .byte   N03 ,Gs2 ,v068
 .byte   N03 ,As2
 .byte   N03 ,Ds3
 .byte   W04
 .byte   N06 ,Cs5 ,v036
 .byte   W03
 .byte   N03 ,Gs2 ,v068
 .byte   N03 ,As2
 .byte   N03 ,Ds3
 .byte   W03
 .byte   N06 ,Gs4 ,v036
 .byte   W06
 .byte   N03 ,Gs2 ,v068
 .byte   N03 ,As2
 .byte   N03 ,Ds3
 .byte   N06 ,Gs5 ,v036
 .byte   W06
 .byte   Ds5
 .byte   W02
 .byte   N03 ,Gs2 ,v068
 .byte   N03 ,As2
 .byte   N03 ,Ds3
 .byte   W04
 .byte   N06 ,Cs5 ,v036
 .byte   W03
 .byte   N03 ,As2 ,v068
 .byte   N03 ,Cn3
 .byte   N03 ,Fn3
 .byte   W03
 .byte   N06 ,Gs4 ,v036
 .byte   W06
 .byte   N03 ,Bn2 ,v068
 .byte   N03 ,Cs3
 .byte   N03 ,Fs3
 .byte   N06 ,Gs5 ,v036
 .byte   W06
 .byte   Ds5
 .byte   W02
 .byte   N03 ,Bn2 ,v068
 .byte   N03 ,Cs3
 .byte   N03 ,Fs3
 .byte   W04
 .byte   N06 ,Cs5 ,v036
 .byte   W03
 .byte   N03 ,Cs3 ,v068
 .byte   N03 ,Ds3
 .byte   N03 ,Gs3
 .byte   W03
 .byte   N06 ,Gs4 ,v036
 .byte   W06
 .byte   PEND 
@ 016   ----------------------------------------
Label_8_010409CF:
 .byte   N03 ,Ds3 ,v068
 .byte   N03 ,Fn3
 .byte   N03 ,As3
 .byte   N06 ,Gs5 ,v036
 .byte   W06
 .byte   Ds5
 .byte   W06
 .byte   Cs5
 .byte   W03
 .byte   N03 ,Gs2 ,v068
 .byte   N03 ,As2
 .byte   N03 ,Ds3
 .byte   W03
 .byte   N06 ,Gs4 ,v036
 .byte   W06
 .byte   Gs5
 .byte   W06
 .byte   Ds5
 .byte   W02
 .byte   N03 ,Gs2 ,v068
 .byte   N03 ,As2
 .byte   N03 ,Ds3
 .byte   W04
 .byte   N06 ,Cs5 ,v036
 .byte   W03
 .byte   N03 ,Gs2 ,v068
 .byte   N03 ,As2
 .byte   N03 ,Ds3
 .byte   W03
 .byte   N06 ,Gs4 ,v036
 .byte   W06
 .byte   N03 ,Gs2 ,v068
 .byte   N03 ,As2
 .byte   N03 ,Ds3
 .byte   N06 ,Gs5 ,v036
 .byte   W06
 .byte   Ds5
 .byte   W06
 .byte   Cs5
 .byte   W03
 .byte   N03 ,As2 ,v068
 .byte   N03 ,Cn3
 .byte   N03 ,Fn3
 .byte   W03
 .byte   N06 ,Gs4 ,v036
 .byte   W06
 .byte   Gs5
 .byte   W06
 .byte   Ds5
 .byte   W02
 .byte   N03 ,Bn2 ,v068
 .byte   N03 ,Cs3
 .byte   N03 ,Fs3
 .byte   W04
 .byte   N06 ,Cs5 ,v036
 .byte   W03
 .byte   N03 ,Cs3 ,v068
 .byte   N03 ,Ds3
 .byte   N03 ,Gs3
 .byte   W03
 .byte   N06 ,Gs4 ,v036
 .byte   W06
 .byte   PEND 
@ 017   ----------------------------------------
Label_8_01040A3E:
 .byte   N03 ,Ds3 ,v068
 .byte   N03 ,Fn3
 .byte   N03 ,As3
 .byte   N06 ,Gs5 ,v036
 .byte   W06
 .byte   Ds5
 .byte   W02
 .byte   N03 ,Ds3 ,v068
 .byte   N03 ,Fn3
 .byte   N03 ,As3
 .byte   W04
 .byte   N06 ,Cs5 ,v036
 .byte   W03
 .byte   N03 ,Ds3 ,v068
 .byte   N03 ,Fn3
 .byte   N03 ,As3
 .byte   W03
 .byte   N06 ,Gs4 ,v036
 .byte   W06
 .byte   N03 ,Gs2 ,v068
 .byte   N03 ,As2
 .byte   N03 ,Ds3
 .byte   N06 ,Gs5 ,v036
 .byte   W06
 .byte   Ds5
 .byte   W02
 .byte   N03 ,Gs2 ,v068
 .byte   N03 ,As2
 .byte   N03 ,Ds3
 .byte   W04
 .byte   N06 ,Cs5 ,v036
 .byte   W03
 .byte   N03 ,Gs2 ,v068
 .byte   N03 ,As2
 .byte   N03 ,Ds3
 .byte   W03
 .byte   N06 ,Gs4 ,v036
 .byte   W06
 .byte   N03 ,Bn2 ,v068
 .byte   N03 ,En3
 .byte   N03 ,Gs3
 .byte   N06 ,Gs5 ,v036
 .byte   W06
 .byte   Ds5
 .byte   W02
 .byte   N03 ,Bn2 ,v068
 .byte   N03 ,En3
 .byte   N03 ,Gs3
 .byte   W04
 .byte   N06 ,Cs5 ,v036
 .byte   W03
 .byte   N03 ,Bn2 ,v068
 .byte   N03 ,En3
 .byte   N03 ,Gs3
 .byte   W03
 .byte   N06 ,Gs4 ,v036
 .byte   W06
 .byte   N03 ,Fs2 ,v068
 .byte   N03 ,As2
 .byte   N03 ,Cs3
 .byte   N06 ,Gs5 ,v036
 .byte   W06
 .byte   Ds5
 .byte   W02
 .byte   N03 ,Fs2 ,v068
 .byte   N03 ,As2
 .byte   N03 ,Cs3
 .byte   W04
 .byte   N06 ,Cs5 ,v036
 .byte   W03
 .byte   N03 ,Fs2 ,v068
 .byte   N03 ,As2
 .byte   N03 ,Cs3
 .byte   W03
 .byte   N06 ,Gs4 ,v036
 .byte   W06
 .byte   PEND 
@ 018   ----------------------------------------
 .byte   W96
@ 019   ----------------------------------------
 .byte   W96
@ 020   ----------------------------------------
 .byte   W96
@ 021   ----------------------------------------
Label_8_01040AD6:
 .byte   W48
 .byte   N06 ,Dn4 ,v072
 .byte   W06
 .byte   Ds4
 .byte   W06
 .byte   Fn4
 .byte   W06
 .byte   Fs4
 .byte   W06
 .byte   Fn4
 .byte   W06
 .byte   Fs4
 .byte   W06
 .byte   Gs4
 .byte   W06
 .byte   As4
 .byte   W06
 .byte   PEND 
@ 022   ----------------------------------------
Label_8_01040AEA:
 .byte   N06 ,Cn4 ,v072
 .byte   N06 ,Cn5
 .byte   W12
 .byte   An3
 .byte   N06 ,An4
 .byte   W12
 .byte   N18 ,Dn4
 .byte   N18 ,Dn5
 .byte   W24
 .byte   N24 ,Gn3
 .byte   N24 ,Gn4
 .byte   W36
 .byte   N06 ,Cn4
 .byte   N06 ,Cn5
 .byte   W12
 .byte   PEND 
 .byte   PATT
  .word Label_8_0104072D
@ 023   ----------------------------------------
Label_8_01040B09:
 .byte   N06 ,Ds4 ,v072
 .byte   N06 ,Ds5
 .byte   W12
 .byte   Cn4
 .byte   N06 ,Cn5
 .byte   W12
 .byte   N18 ,Fn4
 .byte   N18 ,Fn5
 .byte   W24
 .byte   N24 ,As3
 .byte   N24 ,As4
 .byte   W36
 .byte   N06 ,Ds4
 .byte   N06 ,Ds5
 .byte   W12
 .byte   PEND 
 .byte   PATT
  .word Label_8_01040776
@ 024   ----------------------------------------
Label_8_01040B28:
 .byte   N01 ,Dn3 ,v060
 .byte   N96 ,Fs5 ,v040
 .byte   W12
 .byte   N01 ,Dn3 ,v060
 .byte   W03
 .byte   N01
 .byte   W05
 .byte   N01
 .byte   W04
 .byte   N01
 .byte   W12
 .byte   N01
 .byte   W03
 .byte   N01
 .byte   W05
 .byte   N01
 .byte   W04
 .byte   N01
 .byte   W12
 .byte   N01
 .byte   W03
 .byte   N01
 .byte   W05
 .byte   N01
 .byte   W04
 .byte   N02
 .byte   W12
 .byte   N02
 .byte   W12
 .byte   PEND 
@ 025   ----------------------------------------
Label_8_01040B4C:
 .byte   N01 ,Dn3 ,v060
 .byte   W12
 .byte   N01
 .byte   W03
 .byte   N01
 .byte   W05
 .byte   N01
 .byte   W04
 .byte   N01
 .byte   W12
 .byte   N01
 .byte   W03
 .byte   N01
 .byte   W05
 .byte   N01
 .byte   W04
 .byte   N01
 .byte   W12
 .byte   N01
 .byte   W03
 .byte   N01
 .byte   W05
 .byte   N01
 .byte   W04
 .byte   N02
 .byte   W12
 .byte   N02
 .byte   W12
 .byte   PEND 
 .byte   PATT
  .word Label_8_01040B4C
 .byte   PATT
  .word Label_8_01040B4C
 .byte   PATT
  .word Label_8_01040B4C
 .byte   PATT
  .word Label_8_01040B4C
 .byte   PATT
  .word Label_8_01040B4C
 .byte   PATT
  .word Label_8_01040B4C
 .byte   PATT
  .word Label_8_01040B4C
 .byte   PATT
  .word Label_8_01040B4C
 .byte   PATT
  .word Label_8_01040B4C
 .byte   PATT
  .word Label_8_01040B4C
 .byte   PATT
  .word Label_8_01040B4C
 .byte   PATT
  .word Label_8_01040B4C
 .byte   PATT
  .word Label_8_01040B4C
 .byte   PATT
  .word Label_8_01040B4C
@ 026   ----------------------------------------
Label_8_01040BB1:
 .byte   W12
 .byte   N06 ,Fn3 ,v056
 .byte   N06 ,As3
 .byte   W12
 .byte   Fn3
 .byte   N06 ,As3
 .byte   W12
 .byte   Fn3
 .byte   N06 ,As3
 .byte   W12
 .byte   Fn3
 .byte   N06 ,An3
 .byte   W12
 .byte   Fn3
 .byte   N06 ,An3
 .byte   W12
 .byte   Fn3
 .byte   N06 ,An3
 .byte   W24
 .byte   PEND 
@ 027   ----------------------------------------
Label_8_01040BCD:
 .byte   W12
 .byte   N06 ,Dn3 ,v056
 .byte   N06 ,En3
 .byte   W12
 .byte   Dn3
 .byte   N06 ,En3
 .byte   W12
 .byte   Dn3
 .byte   N06 ,En3
 .byte   W12
 .byte   Cs3
 .byte   N06 ,En3
 .byte   W12
 .byte   Cs3
 .byte   N06 ,En3
 .byte   W12
 .byte   Cs3
 .byte   N06 ,En3
 .byte   W24
 .byte   PEND 
@ 028   ----------------------------------------
 .byte   W96
@ 029   ----------------------------------------
 .byte   W96
@ 030   ----------------------------------------
 .byte   W96
@ 031   ----------------------------------------
Label_8_01040BEC:
 .byte   W48
 .byte   N06 ,As3 ,v072
 .byte   W06
 .byte   Cn4
 .byte   W06
 .byte   Dn4
 .byte   W06
 .byte   Fn3
 .byte   W06
 .byte   Dn4
 .byte   W06
 .byte   En4
 .byte   W06
 .byte   Fn4
 .byte   W06
 .byte   As4
 .byte   W06
 .byte   PEND 
@ 032   ----------------------------------------
Label_8_01040C00:
 .byte   N06 ,En4 ,v072
 .byte   W12
 .byte   Fs4
 .byte   W12
 .byte   N24 ,Gn4
 .byte   W36
 .byte   N06 ,En4
 .byte   W12
 .byte   Fs4
 .byte   W12
 .byte   Gn4
 .byte   W12
 .byte   PEND 
@ 033   ----------------------------------------
 .byte   N12 ,Bn4
 .byte   W24
 .byte   An4
 .byte   W24
 .byte   Bn4
 .byte   W24
 .byte   Cs5
 .byte   W24
@ 034   ----------------------------------------
 .byte   N06 ,Cn4
 .byte   N06 ,Cn5
 .byte   W12
 .byte   An3
 .byte   N06 ,An4
 .byte   W12
 .byte   N13 ,Dn4
 .byte   N12 ,Dn5
 .byte   W24
 .byte   N24 ,Gn3
 .byte   N24 ,Gn4
 .byte   W36
 .byte   N06 ,Cn4
 .byte   N06 ,Cn5
 .byte   W12
 .byte   PATT
  .word Label_8_0104072D
 .byte   PATT
  .word Label_8_0104075A
 .byte   PATT
  .word Label_8_01040776
 .byte   PATT
  .word Label_8_010407A3
 .byte   PATT
  .word Label_8_010407D9
 .byte   PATT
  .word Label_8_01040815
 .byte   PATT
  .word Label_8_0104084E
 .byte   PATT
  .word Label_8_0104088A
 .byte   PATT
  .word Label_8_0104088A
 .byte   PATT
  .word Label_8_0104088A
 .byte   PATT
  .word Label_8_010408B7
@ 035   ----------------------------------------
 .byte   W96
@ 036   ----------------------------------------
 .byte   W96
@ 037   ----------------------------------------
 .byte   W96
@ 038   ----------------------------------------
 .byte   W96
 .byte   PATT
  .word Label_8_010408DE
 .byte   PATT
  .word Label_8_0104094D
 .byte   PATT
  .word Label_8_010409CF
 .byte   PATT
  .word Label_8_01040A3E
@ 039   ----------------------------------------
 .byte   W96
@ 040   ----------------------------------------
 .byte   W96
@ 041   ----------------------------------------
 .byte   W96
 .byte   PATT
  .word Label_8_01040AD6
 .byte   PATT
  .word Label_8_01040AEA
 .byte   PATT
  .word Label_8_0104072D
 .byte   PATT
  .word Label_8_01040B09
 .byte   PATT
  .word Label_8_01040776
 .byte   PATT
  .word Label_8_01040B28
 .byte   PATT
  .word Label_8_01040B4C
 .byte   PATT
  .word Label_8_01040B4C
 .byte   PATT
  .word Label_8_01040B4C
 .byte   PATT
  .word Label_8_01040B4C
 .byte   PATT
  .word Label_8_01040B4C
 .byte   PATT
  .word Label_8_01040B4C
 .byte   PATT
  .word Label_8_01040B4C
 .byte   PATT
  .word Label_8_01040B4C
 .byte   PATT
  .word Label_8_01040B4C
 .byte   PATT
  .word Label_8_01040B4C
 .byte   PATT
  .word Label_8_01040B4C
 .byte   PATT
  .word Label_8_01040B4C
 .byte   PATT
  .word Label_8_01040B4C
 .byte   PATT
  .word Label_8_01040B4C
 .byte   PATT
  .word Label_8_01040B4C
 .byte   PATT
  .word Label_8_01040BB1
 .byte   PATT
  .word Label_8_01040BCD
@ 042   ----------------------------------------
 .byte   W96
@ 043   ----------------------------------------
 .byte   W96
@ 044   ----------------------------------------
 .byte   W96
 .byte   PATT
  .word Label_8_01040BEC
 .byte   PATT
  .word Label_8_01040C00
@ 045   ----------------------------------------
 .byte   N12 ,Bn4 ,v072
 .byte   W24
 .byte   An4
 .byte   W24
 .byte   Bn4
 .byte   W24
 .byte   Cs5
 .byte   W12
 .byte   GOTO
  .word Label_8_0104070A
@ 046   ----------------------------------------
 .byte   W12
 .byte   FINE

@**************** Track 10 (Midi-Chn.9) ****************@

song05_010:
@ 000   ----------------------------------------
 .byte   KEYSH , song05_key+0
Label_9_01040D1A:
 .byte   VOICE , 48
 .byte   MODT 0
 .byte   CnM2
 .byte   LFOS 0
 .byte   Gs1
 .byte   VOL , 49*song05_mvl/mxv
 .byte   PAN , c_v-1
 .byte   W24
 .byte   N23 ,An2 ,v088
 .byte   W72
@ 001   ----------------------------------------
 .byte   W96
@ 002   ----------------------------------------
 .byte   W96
@ 003   ----------------------------------------
 .byte   W96
@ 004   ----------------------------------------
 .byte   W96
@ 005   ----------------------------------------
 .byte   W96
@ 006   ----------------------------------------
 .byte   W96
@ 007   ----------------------------------------
 .byte   W96
@ 008   ----------------------------------------
 .byte   W96
@ 009   ----------------------------------------
 .byte   W96
@ 010   ----------------------------------------
 .byte   W96
@ 011   ----------------------------------------
 .byte   W96
@ 012   ----------------------------------------
Label_9_01040D34:
 .byte   W24
 .byte   N23 ,An3 ,v024
 .byte   N23 ,Ds4
 .byte   W48
 .byte   An3
 .byte   N23 ,Ds4
 .byte   W24
 .byte   PEND 
 .byte   PATT
  .word Label_9_01040D34
 .byte   PATT
  .word Label_9_01040D34
 .byte   PATT
  .word Label_9_01040D34
@ 013   ----------------------------------------
Label_9_01040D4F:
 .byte   N72 ,An2 ,v076
 .byte   W84
 .byte   W03
 .byte   N03 ,An2 ,v040
 .byte   W05
 .byte   An2 ,v060
 .byte   W04
 .byte   PEND 
@ 014   ----------------------------------------
Label_9_01040D5C:
 .byte   N68 ,An2 ,v076
 .byte   W84
 .byte   W03
 .byte   N03 ,An2 ,v040
 .byte   W05
 .byte   An2 ,v060
 .byte   W04
 .byte   PEND 
 .byte   PATT
  .word Label_9_01040D5C
 .byte   PATT
  .word Label_9_01040D5C
 .byte   PATT
  .word Label_9_01040D34
 .byte   PATT
  .word Label_9_01040D34
 .byte   PATT
  .word Label_9_01040D34
 .byte   PATT
  .word Label_9_01040D34
@ 015   ----------------------------------------
 .byte   W96
@ 016   ----------------------------------------
 .byte   W96
@ 017   ----------------------------------------
 .byte   W96
@ 018   ----------------------------------------
 .byte   W96
@ 019   ----------------------------------------
 .byte   W96
@ 020   ----------------------------------------
 .byte   W96
@ 021   ----------------------------------------
 .byte   W96
@ 022   ----------------------------------------
 .byte   W96
@ 023   ----------------------------------------
 .byte   W96
@ 024   ----------------------------------------
 .byte   W96
@ 025   ----------------------------------------
 .byte   W96
@ 026   ----------------------------------------
 .byte   W96
@ 027   ----------------------------------------
 .byte   W96
@ 028   ----------------------------------------
 .byte   W96
@ 029   ----------------------------------------
 .byte   W96
@ 030   ----------------------------------------
 .byte   W96
@ 031   ----------------------------------------
 .byte   W96
@ 032   ----------------------------------------
 .byte   W96
@ 033   ----------------------------------------
 .byte   W96
@ 034   ----------------------------------------
 .byte   W96
@ 035   ----------------------------------------
 .byte   W96
@ 036   ----------------------------------------
 .byte   W96
@ 037   ----------------------------------------
 .byte   W96
@ 038   ----------------------------------------
 .byte   W96
@ 039   ----------------------------------------
 .byte   W96
@ 040   ----------------------------------------
 .byte   W96
@ 041   ----------------------------------------
 .byte   W96
@ 042   ----------------------------------------
 .byte   W96
@ 043   ----------------------------------------
 .byte   W96
@ 044   ----------------------------------------
 .byte   W96
@ 045   ----------------------------------------
 .byte   W96
@ 046   ----------------------------------------
 .byte   W96
@ 047   ----------------------------------------
 .byte   W96
@ 048   ----------------------------------------
 .byte   W96
@ 049   ----------------------------------------
 .byte   W96
@ 050   ----------------------------------------
 .byte   W96
@ 051   ----------------------------------------
 .byte   W96
@ 052   ----------------------------------------
 .byte   W96
@ 053   ----------------------------------------
 .byte   W96
@ 054   ----------------------------------------
 .byte   W96
 .byte   PATT
  .word Label_9_01040D34
 .byte   PATT
  .word Label_9_01040D34
 .byte   PATT
  .word Label_9_01040D34
 .byte   PATT
  .word Label_9_01040D34
 .byte   PATT
  .word Label_9_01040D4F
 .byte   PATT
  .word Label_9_01040D5C
 .byte   PATT
  .word Label_9_01040D5C
 .byte   PATT
  .word Label_9_01040D5C
 .byte   PATT
  .word Label_9_01040D34
 .byte   PATT
  .word Label_9_01040D34
 .byte   PATT
  .word Label_9_01040D34
 .byte   PATT
  .word Label_9_01040D34
@ 055   ----------------------------------------
 .byte   W96
@ 056   ----------------------------------------
 .byte   W96
@ 057   ----------------------------------------
 .byte   W96
@ 058   ----------------------------------------
 .byte   W96
@ 059   ----------------------------------------
 .byte   W96
@ 060   ----------------------------------------
 .byte   W96
@ 061   ----------------------------------------
 .byte   W96
@ 062   ----------------------------------------
 .byte   W96
@ 063   ----------------------------------------
 .byte   W96
@ 064   ----------------------------------------
 .byte   W96
@ 065   ----------------------------------------
 .byte   W96
@ 066   ----------------------------------------
 .byte   W96
@ 067   ----------------------------------------
 .byte   W96
@ 068   ----------------------------------------
 .byte   W96
@ 069   ----------------------------------------
 .byte   W96
@ 070   ----------------------------------------
 .byte   W96
@ 071   ----------------------------------------
 .byte   W96
@ 072   ----------------------------------------
 .byte   W96
@ 073   ----------------------------------------
 .byte   W96
@ 074   ----------------------------------------
 .byte   W96
@ 075   ----------------------------------------
 .byte   W96
@ 076   ----------------------------------------
 .byte   W96
@ 077   ----------------------------------------
 .byte   W96
@ 078   ----------------------------------------
 .byte   W96
@ 079   ----------------------------------------
 .byte   W96
@ 080   ----------------------------------------
 .byte   W96
@ 081   ----------------------------------------
 .byte   W96
@ 082   ----------------------------------------
 .byte   W84
 .byte   GOTO
  .word Label_9_01040D1A
@ 083   ----------------------------------------
 .byte   W12
 .byte   FINE

@**************** Track 11 (Midi-Chn.10) ****************@

song05_011:
@ 000   ----------------------------------------
 .byte   KEYSH , song05_key+0
Label_10_01040E12:
 .byte   VOICE , 46
 .byte   MODT 0
 .byte   CnM2
 .byte   LFOS 0
 .byte   Gs1
 .byte   VOL , 55*song05_mvl/mxv
 .byte   PAN , c_v-23
 .byte   W96
@ 001   ----------------------------------------
 .byte   W96
@ 002   ----------------------------------------
 .byte   W96
@ 003   ----------------------------------------
 .byte   W96
@ 004   ----------------------------------------
 .byte   W96
@ 005   ----------------------------------------
 .byte   W96
@ 006   ----------------------------------------
 .byte   W96
@ 007   ----------------------------------------
 .byte   W96
@ 008   ----------------------------------------
 .byte   W96
@ 009   ----------------------------------------
 .byte   W96
@ 010   ----------------------------------------
 .byte   W96
@ 011   ----------------------------------------
 .byte   W96
@ 012   ----------------------------------------
 .byte   W96
@ 013   ----------------------------------------
 .byte   W96
@ 014   ----------------------------------------
 .byte   W96
@ 015   ----------------------------------------
 .byte   W96
@ 016   ----------------------------------------
 .byte   W96
@ 017   ----------------------------------------
 .byte   W96
@ 018   ----------------------------------------
 .byte   W96
@ 019   ----------------------------------------
 .byte   W96
@ 020   ----------------------------------------
 .byte   W96
@ 021   ----------------------------------------
 .byte   W96
@ 022   ----------------------------------------
 .byte   W96
@ 023   ----------------------------------------
 .byte   W96
@ 024   ----------------------------------------
 .byte   W96
@ 025   ----------------------------------------
 .byte   W96
@ 026   ----------------------------------------
 .byte   W96
@ 027   ----------------------------------------
 .byte   W96
@ 028   ----------------------------------------
 .byte   W96
@ 029   ----------------------------------------
 .byte   W96
@ 030   ----------------------------------------
 .byte   W96
@ 031   ----------------------------------------
 .byte   W96
@ 032   ----------------------------------------
 .byte   W96
@ 033   ----------------------------------------
 .byte   W96
@ 034   ----------------------------------------
 .byte   W96
@ 035   ----------------------------------------
 .byte   W96
@ 036   ----------------------------------------
Label_10_01040E40:
 .byte   N06 ,Bn4 ,v044
 .byte   W06
 .byte   An4
 .byte   W06
 .byte   Gn4
 .byte   W06
 .byte   Dn4
 .byte   W06
 .byte   Bn3
 .byte   W06
 .byte   An3
 .byte   W06
 .byte   Gn3
 .byte   W06
 .byte   Dn3
 .byte   W06
 .byte   As4
 .byte   W06
 .byte   An4
 .byte   W06
 .byte   Gn4
 .byte   W06
 .byte   Ds4
 .byte   W06
 .byte   As3
 .byte   W06
 .byte   An3
 .byte   W06
 .byte   Gn3
 .byte   W06
 .byte   Ds3
 .byte   W06
 .byte   PEND 
@ 037   ----------------------------------------
Label_10_01040E63:
 .byte   N06 ,Fn4 ,v044
 .byte   W06
 .byte   En4
 .byte   W06
 .byte   Dn4
 .byte   W06
 .byte   As3
 .byte   W06
 .byte   Fn3
 .byte   W06
 .byte   En3
 .byte   W06
 .byte   Dn3
 .byte   W06
 .byte   As2
 .byte   W06
 .byte   Cn3
 .byte   W06
 .byte   Dn3
 .byte   W06
 .byte   En3
 .byte   W06
 .byte   Gn3
 .byte   W06
 .byte   Cn4
 .byte   W06
 .byte   Dn4
 .byte   W06
 .byte   En4
 .byte   W06
 .byte   Gn4
 .byte   W06
 .byte   PEND 
@ 038   ----------------------------------------
 .byte   W96
@ 039   ----------------------------------------
 .byte   W96
@ 040   ----------------------------------------
 .byte   W96
@ 041   ----------------------------------------
 .byte   W96
@ 042   ----------------------------------------
 .byte   W96
@ 043   ----------------------------------------
 .byte   W96
@ 044   ----------------------------------------
 .byte   W96
@ 045   ----------------------------------------
 .byte   W96
@ 046   ----------------------------------------
 .byte   W96
@ 047   ----------------------------------------
 .byte   W96
@ 048   ----------------------------------------
 .byte   W96
@ 049   ----------------------------------------
 .byte   W96
@ 050   ----------------------------------------
 .byte   W96
@ 051   ----------------------------------------
 .byte   W96
@ 052   ----------------------------------------
 .byte   W96
@ 053   ----------------------------------------
 .byte   W96
@ 054   ----------------------------------------
 .byte   W96
@ 055   ----------------------------------------
 .byte   W96
@ 056   ----------------------------------------
 .byte   W96
@ 057   ----------------------------------------
 .byte   W96
@ 058   ----------------------------------------
 .byte   W96
@ 059   ----------------------------------------
 .byte   W96
@ 060   ----------------------------------------
 .byte   W96
@ 061   ----------------------------------------
 .byte   W96
@ 062   ----------------------------------------
 .byte   W96
@ 063   ----------------------------------------
 .byte   W96
@ 064   ----------------------------------------
 .byte   W96
@ 065   ----------------------------------------
 .byte   W96
@ 066   ----------------------------------------
 .byte   W96
@ 067   ----------------------------------------
 .byte   W96
@ 068   ----------------------------------------
 .byte   W96
@ 069   ----------------------------------------
 .byte   W96
@ 070   ----------------------------------------
 .byte   W96
@ 071   ----------------------------------------
 .byte   W96
@ 072   ----------------------------------------
 .byte   W96
@ 073   ----------------------------------------
 .byte   W96
@ 074   ----------------------------------------
 .byte   W96
@ 075   ----------------------------------------
 .byte   W96
@ 076   ----------------------------------------
 .byte   W96
@ 077   ----------------------------------------
 .byte   W96
@ 078   ----------------------------------------
 .byte   W96
@ 079   ----------------------------------------
 .byte   W96
@ 080   ----------------------------------------
 .byte   W96
@ 081   ----------------------------------------
 .byte   W96
@ 082   ----------------------------------------
 .byte   W96
@ 083   ----------------------------------------
 .byte   W96
@ 084   ----------------------------------------
 .byte   W96
@ 085   ----------------------------------------
 .byte   W96
@ 086   ----------------------------------------
 .byte   W96
@ 087   ----------------------------------------
 .byte   W96
 .byte   PATT
  .word Label_10_01040E40
 .byte   PATT
  .word Label_10_01040E63
@ 088   ----------------------------------------
 .byte   W96
@ 089   ----------------------------------------
 .byte   W96
@ 090   ----------------------------------------
 .byte   W96
@ 091   ----------------------------------------
 .byte   W96
@ 092   ----------------------------------------
 .byte   W96
@ 093   ----------------------------------------
 .byte   W96
@ 094   ----------------------------------------
 .byte   W96
@ 095   ----------------------------------------
 .byte   W96
@ 096   ----------------------------------------
 .byte   W96
@ 097   ----------------------------------------
 .byte   W96
@ 098   ----------------------------------------
 .byte   W96
@ 099   ----------------------------------------
 .byte   W96
@ 100   ----------------------------------------
 .byte   W96
@ 101   ----------------------------------------
 .byte   W84
 .byte   GOTO
  .word Label_10_01040E12
@ 102   ----------------------------------------
 .byte   W12
 .byte   FINE

@**************** Track 12 (Midi-Chn.11) ****************@

song05_012:
@ 000   ----------------------------------------
 .byte   KEYSH , song05_key+0
Label_11_01040EDA:
 .byte   VOICE , 45
 .byte   MODT 0
 .byte   CnM2
 .byte   LFOS 0
 .byte   Gs1
 .byte   VOL , 60*song05_mvl/mxv
 .byte   PAN , c_v+35
 .byte   W96
@ 001   ----------------------------------------
 .byte   W96
@ 002   ----------------------------------------
 .byte   W96
@ 003   ----------------------------------------
 .byte   W96
@ 004   ----------------------------------------
 .byte   W96
@ 005   ----------------------------------------
 .byte   W96
@ 006   ----------------------------------------
 .byte   W96
@ 007   ----------------------------------------
 .byte   W96
@ 008   ----------------------------------------
 .byte   W96
@ 009   ----------------------------------------
 .byte   W96
@ 010   ----------------------------------------
 .byte   W96
@ 011   ----------------------------------------
 .byte   W96
@ 012   ----------------------------------------
Label_11_01040EF0:
 .byte   N06 ,Gs1 ,v044
 .byte   W12
 .byte   Gs2
 .byte   N06 ,Ds3
 .byte   W12
 .byte   Ds2
 .byte   W12
 .byte   Fs2
 .byte   N06 ,Cs3
 .byte   W12
 .byte   Gs1
 .byte   W12
 .byte   Gs2
 .byte   N06 ,Ds3
 .byte   W12
 .byte   Ds2
 .byte   W12
 .byte   As2
 .byte   N06 ,Fn3
 .byte   W12
 .byte   PEND 
@ 013   ----------------------------------------
Label_11_01040F0B:
 .byte   N06 ,Gs1 ,v044
 .byte   W12
 .byte   Gs2
 .byte   N06 ,Ds3
 .byte   W12
 .byte   Ds2
 .byte   W12
 .byte   As2
 .byte   N06 ,Fn3
 .byte   W12
 .byte   Gs1
 .byte   W12
 .byte   Bn2 ,v060
 .byte   N06 ,Fs3 ,v080
 .byte   W12
 .byte   Ds2 ,v044
 .byte   W12
 .byte   Cs3 ,v060
 .byte   N06 ,Gs3 ,v088
 .byte   W12
 .byte   PEND 
@ 014   ----------------------------------------
Label_11_01040F2B:
 .byte   N06 ,Gs1 ,v044
 .byte   N12 ,As3 ,v080
 .byte   W12
 .byte   N06 ,Dn3 ,v044
 .byte   N06 ,Gn3
 .byte   W12
 .byte   Ds2
 .byte   W12
 .byte   Dn3
 .byte   N06 ,Gn3
 .byte   W12
 .byte   Gs1
 .byte   W12
 .byte   Ds3
 .byte   N06 ,Gs3
 .byte   W12
 .byte   Ds2
 .byte   W12
 .byte   Fn3
 .byte   N06 ,As3 ,v060
 .byte   W12
 .byte   PEND 
@ 015   ----------------------------------------
Label_11_01040F4C:
 .byte   N06 ,Gs1 ,v044
 .byte   N12 ,As3 ,v080
 .byte   W12
 .byte   N06 ,Dn3 ,v044
 .byte   N06 ,Gn3
 .byte   W12
 .byte   Ds2
 .byte   W12
 .byte   Dn3
 .byte   N06 ,As3
 .byte   W12
 .byte   Gs1
 .byte   W12
 .byte   Fn3
 .byte   N06 ,As3
 .byte   W12
 .byte   Ds2
 .byte   W12
 .byte   Ds3
 .byte   N06 ,Gs3
 .byte   W12
 .byte   PEND 
@ 016   ----------------------------------------
 .byte   W96
@ 017   ----------------------------------------
 .byte   W96
@ 018   ----------------------------------------
 .byte   W96
@ 019   ----------------------------------------
 .byte   W96
 .byte   PATT
  .word Label_11_01040EF0
@ 020   ----------------------------------------
Label_11_01040F75:
 .byte   N06 ,Gs1 ,v044
 .byte   W12
 .byte   Gs2
 .byte   N06 ,Ds3
 .byte   W12
 .byte   Ds2
 .byte   W12
 .byte   As2
 .byte   N06 ,Fn3
 .byte   W12
 .byte   Gs1
 .byte   W12
 .byte   Bn2 ,v060
 .byte   N06 ,Fs3 ,v072
 .byte   W12
 .byte   Ds2 ,v044
 .byte   W12
 .byte   Cs3 ,v060
 .byte   N06 ,Gs3 ,v080
 .byte   W12
 .byte   PEND 
@ 021   ----------------------------------------
Label_11_01040F95:
 .byte   N06 ,Gs1 ,v044
 .byte   N11 ,As3 ,v080
 .byte   W12
 .byte   N06 ,Dn3 ,v044
 .byte   N06 ,Gn3
 .byte   W12
 .byte   Ds2
 .byte   W12
 .byte   Dn3
 .byte   N06 ,Gn3
 .byte   W12
 .byte   Gs1
 .byte   W12
 .byte   Ds3
 .byte   N06 ,Gs3
 .byte   W12
 .byte   Ds2
 .byte   W12
 .byte   Fn3
 .byte   N06 ,As3 ,v072
 .byte   W12
 .byte   PEND 
@ 022   ----------------------------------------
Label_11_01040FB6:
 .byte   N06 ,Gs1 ,v044
 .byte   N06 ,As3 ,v080
 .byte   W12
 .byte   Dn3 ,v072
 .byte   N06 ,Gn3
 .byte   W12
 .byte   Ds2 ,v044
 .byte   W12
 .byte   Dn3 ,v072
 .byte   N06 ,As3
 .byte   W12
 .byte   Gs1 ,v044
 .byte   W12
 .byte   Fn3 ,v072
 .byte   N06 ,As3
 .byte   W12
 .byte   Ds2 ,v044
 .byte   W12
 .byte   Ds3 ,v072
 .byte   N06 ,Gs3
 .byte   W12
 .byte   PEND 
@ 023   ----------------------------------------
 .byte   W96
@ 024   ----------------------------------------
 .byte   W96
@ 025   ----------------------------------------
 .byte   W96
@ 026   ----------------------------------------
 .byte   W96
@ 027   ----------------------------------------
 .byte   W84
 .byte   Dn2 ,v040
 .byte   W12
@ 028   ----------------------------------------
Label_11_01040FE3:
 .byte   N12 ,Gn2 ,v040
 .byte   W84
 .byte   N06 ,Dn2
 .byte   W12
 .byte   PEND 
@ 029   ----------------------------------------
Label_11_01040FEB:
 .byte   N06 ,Gn2 ,v040
 .byte   W84
 .byte   Dn2
 .byte   W12
 .byte   PEND 
 .byte   PATT
  .word Label_11_01040FEB
@ 030   ----------------------------------------
Label_11_01040FF7:
 .byte   N06 ,Gn2 ,v056
 .byte   W84
 .byte   Dn2
 .byte   W12
 .byte   PEND 
 .byte   PATT
  .word Label_11_01040FF7
 .byte   PATT
  .word Label_11_01040FF7
@ 031   ----------------------------------------
Label_11_01041008:
 .byte   N06 ,Cn2 ,v056
 .byte   W84
 .byte   Dn2
 .byte   W12
 .byte   PEND 
 .byte   PATT
  .word Label_11_01040FF7
 .byte   PATT
  .word Label_11_01040FF7
 .byte   PATT
  .word Label_11_01040FF7
 .byte   PATT
  .word Label_11_01040FF7
 .byte   PATT
  .word Label_11_01040FF7
 .byte   PATT
  .word Label_11_01040FF7
 .byte   PATT
  .word Label_11_01040FF7
@ 032   ----------------------------------------
 .byte   N06 ,Gn2 ,v056
 .byte   W96
@ 033   ----------------------------------------
 .byte   W96
@ 034   ----------------------------------------
 .byte   W96
@ 035   ----------------------------------------
 .byte   W96
@ 036   ----------------------------------------
 .byte   W96
@ 037   ----------------------------------------
 .byte   W96
@ 038   ----------------------------------------
 .byte   W96
@ 039   ----------------------------------------
 .byte   W96
@ 040   ----------------------------------------
 .byte   W96
@ 041   ----------------------------------------
 .byte   W96
@ 042   ----------------------------------------
 .byte   W96
@ 043   ----------------------------------------
 .byte   W96
@ 044   ----------------------------------------
 .byte   W96
@ 045   ----------------------------------------
 .byte   W96
@ 046   ----------------------------------------
 .byte   W96
@ 047   ----------------------------------------
 .byte   W96
@ 048   ----------------------------------------
 .byte   W96
@ 049   ----------------------------------------
 .byte   W96
@ 050   ----------------------------------------
 .byte   W96
@ 051   ----------------------------------------
 .byte   W96
@ 052   ----------------------------------------
 .byte   W96
 .byte   PATT
  .word Label_11_01040EF0
 .byte   PATT
  .word Label_11_01040F0B
 .byte   PATT
  .word Label_11_01040F2B
 .byte   PATT
  .word Label_11_01040F4C
@ 053   ----------------------------------------
 .byte   W96
@ 054   ----------------------------------------
 .byte   W96
@ 055   ----------------------------------------
 .byte   W96
@ 056   ----------------------------------------
 .byte   W96
 .byte   PATT
  .word Label_11_01040EF0
 .byte   PATT
  .word Label_11_01040F75
 .byte   PATT
  .word Label_11_01040F95
 .byte   PATT
  .word Label_11_01040FB6
@ 057   ----------------------------------------
 .byte   W96
@ 058   ----------------------------------------
 .byte   W96
@ 059   ----------------------------------------
 .byte   W96
@ 060   ----------------------------------------
 .byte   W96
@ 061   ----------------------------------------
 .byte   W84
 .byte   N06 ,Dn2 ,v040
 .byte   W12
 .byte   PATT
  .word Label_11_01040FE3
 .byte   PATT
  .word Label_11_01040FEB
 .byte   PATT
  .word Label_11_01040FEB
 .byte   PATT
  .word Label_11_01040FF7
 .byte   PATT
  .word Label_11_01040FF7
 .byte   PATT
  .word Label_11_01040FF7
 .byte   PATT
  .word Label_11_01041008
 .byte   PATT
  .word Label_11_01040FF7
 .byte   PATT
  .word Label_11_01040FF7
 .byte   PATT
  .word Label_11_01040FF7
 .byte   PATT
  .word Label_11_01040FF7
 .byte   PATT
  .word Label_11_01040FF7
 .byte   PATT
  .word Label_11_01040FF7
 .byte   PATT
  .word Label_11_01040FF7
@ 062   ----------------------------------------
 .byte   N06 ,Gn2 ,v056
 .byte   W96
@ 063   ----------------------------------------
 .byte   W96
@ 064   ----------------------------------------
 .byte   W96
@ 065   ----------------------------------------
 .byte   W96
@ 066   ----------------------------------------
 .byte   W96
@ 067   ----------------------------------------
 .byte   W96
@ 068   ----------------------------------------
 .byte   W96
@ 069   ----------------------------------------
 .byte   W96
@ 070   ----------------------------------------
 .byte   W84
 .byte   GOTO
  .word Label_11_01040EDA
@ 071   ----------------------------------------
 .byte   W12
 .byte   FINE

@**************** Track 13 (Midi-Chn.12) ****************@

song05_013:
@ 000   ----------------------------------------
 .byte   KEYSH , song05_key+0
Label_12_010410DA:
 .byte   VOICE , 58
 .byte   MODT 0
 .byte   CnM2
 .byte   LFOS 0
 .byte   Gs1
 .byte   PAN , c_v+24
 .byte   VOL , 49*song05_mvl/mxv
 .byte   N12 ,Gn2 ,v072
 .byte   W24
 .byte   N24 ,Gn1
 .byte   W48
 .byte   N24
 .byte   W24
@ 001   ----------------------------------------
Label_12_010410ED:
 .byte   W24
 .byte   N24 ,Gn1 ,v072
 .byte   W48
 .byte   N24
 .byte   W24
 .byte   PEND 
@ 002   ----------------------------------------
Label_12_010410F5:
 .byte   N06 ,As1 ,v072
 .byte   W24
 .byte   N24
 .byte   W48
 .byte   N24
 .byte   W24
 .byte   PEND 
@ 003   ----------------------------------------
Label_12_010410FE:
 .byte   W24
 .byte   N24 ,As1 ,v072
 .byte   W48
 .byte   N24
 .byte   W24
 .byte   PEND 
@ 004   ----------------------------------------
Label_12_01041106:
 .byte   N18 ,Ds2 ,v040
 .byte   W24
 .byte   Ds2 ,v072
 .byte   W24
 .byte   N18
 .byte   W24
 .byte   N18
 .byte   W24
 .byte   PEND 
@ 005   ----------------------------------------
Label_12_01041112:
 .byte   N18 ,Ds1 ,v072
 .byte   W24
 .byte   N18
 .byte   W24
 .byte   N18
 .byte   W24
 .byte   N18
 .byte   W24
 .byte   PEND 
@ 006   ----------------------------------------
Label_12_0104111D:
 .byte   N18 ,Ds2 ,v072
 .byte   W24
 .byte   N18
 .byte   W24
 .byte   Ds1
 .byte   W24
 .byte   N18
 .byte   W24
 .byte   PEND 
@ 007   ----------------------------------------
Label_12_01041128:
 .byte   N18 ,Ds2 ,v072
 .byte   W24
 .byte   N18
 .byte   W24
 .byte   N18
 .byte   W24
 .byte   N18
 .byte   W24
 .byte   PEND 
@ 008   ----------------------------------------
Label_12_01041133:
 .byte   N06 ,As1 ,v072
 .byte   W12
 .byte   Cn2
 .byte   W12
 .byte   N24 ,Cs2
 .byte   W36
 .byte   N06 ,As1
 .byte   W12
 .byte   Cn2
 .byte   W12
 .byte   Cs2
 .byte   W12
 .byte   PEND 
@ 009   ----------------------------------------
Label_12_01041144:
 .byte   N06 ,Fn2 ,v072
 .byte   W12
 .byte   Ds2
 .byte   W12
 .byte   N24 ,Fn2
 .byte   W36
 .byte   N06 ,Gn2
 .byte   W12
 .byte   Gs2
 .byte   W12
 .byte   As2
 .byte   W12
 .byte   PEND 
@ 010   ----------------------------------------
Label_12_01041155:
 .byte   N06 ,Gs2 ,v072
 .byte   W12
 .byte   Gn2
 .byte   W12
 .byte   N12 ,Ds2
 .byte   W24
 .byte   N24 ,Cs3
 .byte   W36
 .byte   N06 ,Cn3
 .byte   W06
 .byte   Gs2
 .byte   W06
 .byte   PEND 
@ 011   ----------------------------------------
Label_12_01041167:
 .byte   N18 ,Cs2 ,v072
 .byte   W24
 .byte   N08
 .byte   W08
 .byte   N07 ,Ds2
 .byte   W07
 .byte   N08 ,En2
 .byte   W09
 .byte   N18 ,Ds2
 .byte   W24
 .byte   N18
 .byte   W24
 .byte   PEND 
@ 012   ----------------------------------------
Label_12_01041179:
 .byte   N06 ,Gs1 ,v044
 .byte   W24
 .byte   Ds2
 .byte   W24
 .byte   Gs1
 .byte   W24
 .byte   Ds2
 .byte   W24
 .byte   PEND 
 .byte   PATT
  .word Label_12_01041179
 .byte   PATT
  .word Label_12_01041179
 .byte   PATT
  .word Label_12_01041179
@ 013   ----------------------------------------
 .byte   W96
@ 014   ----------------------------------------
 .byte   W96
@ 015   ----------------------------------------
 .byte   W96
@ 016   ----------------------------------------
 .byte   W96
 .byte   PATT
  .word Label_12_01041179
 .byte   PATT
  .word Label_12_01041179
 .byte   PATT
  .word Label_12_01041179
@ 017   ----------------------------------------
Label_12_010411A6:
 .byte   N06 ,Gs1 ,v072
 .byte   W24
 .byte   Ds2
 .byte   W24
 .byte   Gs1
 .byte   W24
 .byte   Ds2
 .byte   W24
 .byte   PEND 
@ 018   ----------------------------------------
Label_12_010411B1:
 .byte   N12 ,Gn2 ,v072
 .byte   W24
 .byte   N24 ,Gn1
 .byte   W48
 .byte   N24
 .byte   W24
 .byte   PEND 
 .byte   PATT
  .word Label_12_010410ED
@ 019   ----------------------------------------
Label_12_010411C0:
 .byte   N12 ,As1 ,v072
 .byte   W24
 .byte   N24
 .byte   W48
 .byte   N24
 .byte   W24
 .byte   PEND 
 .byte   PATT
  .word Label_12_010410FE
@ 020   ----------------------------------------
Label_12_010411CE:
 .byte   N12 ,Gn1 ,v040
 .byte   W24
 .byte   N12
 .byte   W24
 .byte   N12
 .byte   W48
 .byte   PEND 
@ 021   ----------------------------------------
 .byte   W96
@ 022   ----------------------------------------
 .byte   W96
@ 023   ----------------------------------------
 .byte   W96
@ 024   ----------------------------------------
 .byte   W96
@ 025   ----------------------------------------
 .byte   W96
@ 026   ----------------------------------------
 .byte   W96
@ 027   ----------------------------------------
 .byte   W96
@ 028   ----------------------------------------
 .byte   W96
@ 029   ----------------------------------------
 .byte   W96
@ 030   ----------------------------------------
 .byte   W96
@ 031   ----------------------------------------
 .byte   W96
@ 032   ----------------------------------------
 .byte   W96
@ 033   ----------------------------------------
 .byte   W96
@ 034   ----------------------------------------
 .byte   W96
@ 035   ----------------------------------------
 .byte   W96
@ 036   ----------------------------------------
Label_12_010411E6:
 .byte   N24 ,As1 ,v056
 .byte   W36
 .byte   N24
 .byte   W36
 .byte   N15
 .byte   W24
 .byte   PEND 
@ 037   ----------------------------------------
Label_12_010411EF:
 .byte   N24 ,An1 ,v056
 .byte   W36
 .byte   N24
 .byte   W36
 .byte   N15
 .byte   W24
 .byte   PEND 
@ 038   ----------------------------------------
 .byte   W96
@ 039   ----------------------------------------
 .byte   W96
@ 040   ----------------------------------------
 .byte   W96
@ 041   ----------------------------------------
 .byte   W96
@ 042   ----------------------------------------
Label_12_010411FC:
 .byte   W24
 .byte   N24 ,An1 ,v072
 .byte   W48
 .byte   N24
 .byte   W24
 .byte   PEND 
 .byte   PATT
  .word Label_12_010411FC
 .byte   PATT
  .word Label_12_010411B1
 .byte   PATT
  .word Label_12_010410ED
 .byte   PATT
  .word Label_12_010410F5
 .byte   PATT
  .word Label_12_010410FE
 .byte   PATT
  .word Label_12_01041106
 .byte   PATT
  .word Label_12_01041112
 .byte   PATT
  .word Label_12_0104111D
 .byte   PATT
  .word Label_12_01041128
 .byte   PATT
  .word Label_12_01041133
 .byte   PATT
  .word Label_12_01041144
 .byte   PATT
  .word Label_12_01041155
 .byte   PATT
  .word Label_12_01041167
 .byte   PATT
  .word Label_12_01041179
 .byte   PATT
  .word Label_12_01041179
 .byte   PATT
  .word Label_12_01041179
 .byte   PATT
  .word Label_12_01041179
@ 043   ----------------------------------------
 .byte   W96
@ 044   ----------------------------------------
 .byte   W96
@ 045   ----------------------------------------
 .byte   W96
@ 046   ----------------------------------------
 .byte   W96
 .byte   PATT
  .word Label_12_01041179
 .byte   PATT
  .word Label_12_01041179
 .byte   PATT
  .word Label_12_01041179
 .byte   PATT
  .word Label_12_010411A6
 .byte   PATT
  .word Label_12_010411B1
 .byte   PATT
  .word Label_12_010410ED
 .byte   PATT
  .word Label_12_010411C0
 .byte   PATT
  .word Label_12_010410FE
 .byte   PATT
  .word Label_12_010411CE
@ 047   ----------------------------------------
 .byte   W96
@ 048   ----------------------------------------
 .byte   W96
@ 049   ----------------------------------------
 .byte   W96
@ 050   ----------------------------------------
 .byte   W96
@ 051   ----------------------------------------
 .byte   W96
@ 052   ----------------------------------------
 .byte   W96
@ 053   ----------------------------------------
 .byte   W96
@ 054   ----------------------------------------
 .byte   W96
@ 055   ----------------------------------------
 .byte   W96
@ 056   ----------------------------------------
 .byte   W96
@ 057   ----------------------------------------
 .byte   W96
@ 058   ----------------------------------------
 .byte   W96
@ 059   ----------------------------------------
 .byte   W96
@ 060   ----------------------------------------
 .byte   W96
@ 061   ----------------------------------------
 .byte   W96
 .byte   PATT
  .word Label_12_010411E6
 .byte   PATT
  .word Label_12_010411EF
@ 062   ----------------------------------------
 .byte   W96
@ 063   ----------------------------------------
 .byte   W96
@ 064   ----------------------------------------
 .byte   W96
@ 065   ----------------------------------------
 .byte   W96
 .byte   PATT
  .word Label_12_010411FC
@ 066   ----------------------------------------
 .byte   W24
 .byte   N24 ,An1 ,v072
 .byte   W48
 .byte   N24
 .byte   W12
 .byte   GOTO
  .word Label_12_010410DA
@ 067   ----------------------------------------
 .byte   W12
 .byte   FINE

@**************** Track 14 (Midi-Chn.13) ****************@

song05_014:
@ 000   ----------------------------------------
 .byte   KEYSH , song05_key+0
Label_13_010412BE:
 .byte   VOICE , 48
 .byte   MODT 0
 .byte   CnM2
 .byte   LFOS 0
 .byte   Gs1
 .byte   PAN , c_v+35
 .byte   VOL , 72*song05_mvl/mxv
 .byte   N12 ,Gn1 ,v072
 .byte   N12 ,Gn2
 .byte   W24
 .byte   N24 ,Gn0
 .byte   N24 ,Gn1
 .byte   W48
 .byte   Gn0
 .byte   N24 ,Gn1
 .byte   W24
@ 001   ----------------------------------------
Label_13_010412D7:
 .byte   W24
 .byte   N24 ,Gn0 ,v072
 .byte   N24 ,Gn1
 .byte   W48
 .byte   Gn0
 .byte   N24 ,Gn1
 .byte   W24
 .byte   PEND 
@ 002   ----------------------------------------
Label_13_010412E3:
 .byte   N06 ,As1 ,v072
 .byte   W24
 .byte   N24 ,As0
 .byte   N24 ,As1
 .byte   W48
 .byte   As0
 .byte   N24 ,As1
 .byte   W24
 .byte   PEND 
@ 003   ----------------------------------------
Label_13_010412F1:
 .byte   W24
 .byte   N24 ,As0 ,v072
 .byte   N24 ,As1
 .byte   W48
 .byte   As0
 .byte   N24 ,As1
 .byte   W24
 .byte   PEND 
@ 004   ----------------------------------------
Label_13_010412FD:
 .byte   N18 ,Ds1 ,v040
 .byte   N18 ,Ds2
 .byte   W24
 .byte   Ds1 ,v072
 .byte   N18 ,Ds2
 .byte   W24
 .byte   Ds1
 .byte   N18 ,Ds2
 .byte   W24
 .byte   Ds1
 .byte   N18 ,Ds2
 .byte   W24
 .byte   PEND 
@ 005   ----------------------------------------
Label_13_01041311:
 .byte   N18 ,Ds0 ,v072
 .byte   N18 ,Ds1
 .byte   W24
 .byte   Ds0
 .byte   N18 ,Ds1
 .byte   W24
 .byte   Ds0
 .byte   N18 ,Ds1
 .byte   W24
 .byte   Ds0
 .byte   N18 ,Ds1
 .byte   W24
 .byte   PEND 
@ 006   ----------------------------------------
Label_13_01041324:
 .byte   N18 ,Ds1 ,v072
 .byte   N18 ,Ds2
 .byte   W24
 .byte   Ds1
 .byte   N18 ,Ds2
 .byte   W24
 .byte   Ds0
 .byte   N18 ,Ds1
 .byte   W24
 .byte   Ds0
 .byte   N18 ,Ds1
 .byte   W24
 .byte   PEND 
@ 007   ----------------------------------------
Label_13_01041337:
 .byte   N18 ,Ds1 ,v072
 .byte   N18 ,Ds2
 .byte   W24
 .byte   Ds1
 .byte   N18 ,Ds2
 .byte   W24
 .byte   Ds1
 .byte   N18 ,Ds2
 .byte   W24
 .byte   Ds1
 .byte   N18 ,Ds2
 .byte   W24
 .byte   PEND 
@ 008   ----------------------------------------
Label_13_0104134A:
 .byte   N06 ,As0 ,v072
 .byte   W12
 .byte   Cn1
 .byte   W12
 .byte   N24 ,Cs1
 .byte   W36
 .byte   N06 ,As0
 .byte   W12
 .byte   Cn1
 .byte   W12
 .byte   Cs1
 .byte   W12
 .byte   PEND 
@ 009   ----------------------------------------
Label_13_0104135B:
 .byte   N06 ,Fn1 ,v072
 .byte   W12
 .byte   Ds1
 .byte   W12
 .byte   N24 ,Fn1
 .byte   W36
 .byte   N06 ,Gn1
 .byte   W12
 .byte   Gs1
 .byte   W12
 .byte   As1
 .byte   W12
 .byte   PEND 
@ 010   ----------------------------------------
Label_13_0104136C:
 .byte   N06 ,Gs1 ,v072
 .byte   W12
 .byte   Gn1
 .byte   W12
 .byte   N12 ,Ds1
 .byte   W24
 .byte   N24 ,Cs2
 .byte   W36
 .byte   N06 ,Cn2
 .byte   W06
 .byte   Gs1
 .byte   W06
 .byte   PEND 
@ 011   ----------------------------------------
Label_13_0104137E:
 .byte   N18 ,Cs1 ,v072
 .byte   W24
 .byte   N08
 .byte   W08
 .byte   N07 ,Ds1
 .byte   W07
 .byte   N08 ,En1
 .byte   W09
 .byte   N18 ,Ds1
 .byte   W24
 .byte   N18
 .byte   W24
 .byte   PEND 
@ 012   ----------------------------------------
 .byte   W96
@ 013   ----------------------------------------
 .byte   W96
@ 014   ----------------------------------------
 .byte   W96
@ 015   ----------------------------------------
 .byte   W96
@ 016   ----------------------------------------
Label_13_01041394:
 .byte   N12 ,Gs0 ,v060
 .byte   N12 ,Gs1
 .byte   W24
 .byte   Gs0
 .byte   N12 ,Gs1
 .byte   W24
 .byte   Gs0
 .byte   N12 ,Gs1
 .byte   W24
 .byte   Gs0
 .byte   N12 ,Gs1
 .byte   W24
 .byte   PEND 
 .byte   PATT
  .word Label_13_01041394
 .byte   PATT
  .word Label_13_01041394
 .byte   PATT
  .word Label_13_01041394
@ 017   ----------------------------------------
 .byte   W96
@ 018   ----------------------------------------
 .byte   W96
@ 019   ----------------------------------------
 .byte   W96
@ 020   ----------------------------------------
 .byte   W96
@ 021   ----------------------------------------
Label_13_010413BA:
 .byte   N12 ,Gn1 ,v072
 .byte   N12 ,Gn2
 .byte   W24
 .byte   N24 ,Gn0
 .byte   N24 ,Gn1
 .byte   W48
 .byte   Gn0
 .byte   N24 ,Gn1
 .byte   W24
 .byte   PEND 
 .byte   PATT
  .word Label_13_010412D7
@ 022   ----------------------------------------
Label_13_010413CF:
 .byte   N12 ,As0 ,v072
 .byte   N12 ,As1
 .byte   W24
 .byte   N24 ,As0
 .byte   N24 ,As1
 .byte   W48
 .byte   As0
 .byte   N24 ,As1
 .byte   W24
 .byte   PEND 
 .byte   PATT
  .word Label_13_010412F1
@ 023   ----------------------------------------
Label_13_010413E4:
 .byte   N12 ,Gn0 ,v040
 .byte   N12 ,Gn1
 .byte   W24
 .byte   Gn0
 .byte   N12 ,Gn1
 .byte   W24
 .byte   Gn0
 .byte   N12 ,Gn1
 .byte   W24
 .byte   N06
 .byte   W12
 .byte   N06
 .byte   W12
 .byte   PEND 
@ 024   ----------------------------------------
Label_13_010413F7:
 .byte   N12 ,Gn1 ,v040
 .byte   W24
 .byte   N12
 .byte   W72
 .byte   PEND 
@ 025   ----------------------------------------
 .byte   W96
@ 026   ----------------------------------------
 .byte   W96
@ 027   ----------------------------------------
 .byte   W96
@ 028   ----------------------------------------
 .byte   W96
@ 029   ----------------------------------------
 .byte   W96
@ 030   ----------------------------------------
 .byte   W96
@ 031   ----------------------------------------
 .byte   TIE ,Gn0 ,v056
 .byte   W96
@ 032   ----------------------------------------
 .byte   W96
@ 033   ----------------------------------------
 .byte   EOT
 .byte   W96
@ 034   ----------------------------------------
 .byte   W96
@ 035   ----------------------------------------
 .byte   W96
@ 036   ----------------------------------------
 .byte   W96
@ 037   ----------------------------------------
 .byte   W96
@ 038   ----------------------------------------
Label_13_0104140F:
 .byte   W84
 .byte   N08 ,Fn0 ,v056
 .byte   N08 ,Fn1
 .byte   W12
 .byte   PEND 
@ 039   ----------------------------------------
Label_13_01041417:
 .byte   N24 ,As0 ,v056
 .byte   N24 ,As1
 .byte   W36
 .byte   As0
 .byte   N24 ,As1
 .byte   W36
 .byte   N14 ,As0
 .byte   N14 ,As1
 .byte   W24
 .byte   PEND 
@ 040   ----------------------------------------
Label_13_01041427:
 .byte   N24 ,An0 ,v056
 .byte   N24 ,An1
 .byte   W36
 .byte   An0
 .byte   N24 ,An1
 .byte   W36
 .byte   N14 ,An0
 .byte   N14 ,An1
 .byte   W24
 .byte   PEND 
@ 041   ----------------------------------------
Label_13_01041437:
 .byte   N15 ,Dn2 ,v040
 .byte   N15 ,Cs3
 .byte   W15
 .byte   N16 ,Cs2
 .byte   N16 ,An2
 .byte   W17
 .byte   N15 ,En2
 .byte   N15 ,Cs3
 .byte   W16
 .byte   An1
 .byte   N15 ,En2
 .byte   W15
 .byte   N16 ,Dn2
 .byte   N16 ,An2
 .byte   W17
 .byte   N15 ,An1
 .byte   N15 ,En2
 .byte   W16
 .byte   PEND 
@ 042   ----------------------------------------
Label_13_01041456:
 .byte   N15 ,Gn2 ,v040
 .byte   N15 ,Dn3
 .byte   W15
 .byte   N16 ,Dn2
 .byte   N16 ,Bn2
 .byte   W17
 .byte   N15 ,Gn2
 .byte   N15 ,Dn3
 .byte   W16
 .byte   Dn2
 .byte   W15
 .byte   N16 ,Bn1
 .byte   N16 ,Gn2
 .byte   W17
 .byte   N15
 .byte   N15 ,Dn3
 .byte   W16
 .byte   PEND 
@ 043   ----------------------------------------
Label_13_01041472:
 .byte   N15 ,En2 ,v040
 .byte   N15 ,Cs3
 .byte   W15
 .byte   N16 ,Cs2
 .byte   N16 ,An2
 .byte   W17
 .byte   N15 ,En2
 .byte   N15 ,Cs3
 .byte   W16
 .byte   An2
 .byte   N15 ,En3
 .byte   W15
 .byte   N16 ,En2
 .byte   N16 ,Cs3
 .byte   W17
 .byte   N15 ,Cs2
 .byte   N15 ,An2
 .byte   W16
 .byte   PEND 
@ 044   ----------------------------------------
Label_13_01041491:
 .byte   N15 ,Fn2 ,v040
 .byte   N15 ,Dn3
 .byte   W15
 .byte   N16 ,Dn2
 .byte   N16 ,As2
 .byte   W17
 .byte   N15 ,Fn2
 .byte   N15 ,Dn3
 .byte   W16
 .byte   As2
 .byte   N15 ,Fn3
 .byte   W15
 .byte   N16 ,Fn2
 .byte   N16 ,Dn3
 .byte   W17
 .byte   N15 ,Dn2
 .byte   N15 ,As2
 .byte   W16
 .byte   PEND 
@ 045   ----------------------------------------
Label_13_010414B0:
 .byte   N12 ,An1 ,v072
 .byte   W24
 .byte   N24 ,An0
 .byte   N24 ,An1
 .byte   W48
 .byte   An0
 .byte   N24 ,An1
 .byte   W24
 .byte   PEND 
@ 046   ----------------------------------------
 .byte   W24
 .byte   An0
 .byte   N24 ,An1
 .byte   W48
 .byte   An0
 .byte   N24 ,An1
 .byte   W24
 .byte   PATT
  .word Label_13_010413BA
 .byte   PATT
  .word Label_13_010412D7
 .byte   PATT
  .word Label_13_010412E3
 .byte   PATT
  .word Label_13_010412F1
 .byte   PATT
  .word Label_13_010412FD
 .byte   PATT
  .word Label_13_01041311
 .byte   PATT
  .word Label_13_01041324
 .byte   PATT
  .word Label_13_01041337
 .byte   PATT
  .word Label_13_0104134A
 .byte   PATT
  .word Label_13_0104135B
 .byte   PATT
  .word Label_13_0104136C
 .byte   PATT
  .word Label_13_0104137E
@ 047   ----------------------------------------
 .byte   W96
@ 048   ----------------------------------------
 .byte   W96
@ 049   ----------------------------------------
 .byte   W96
@ 050   ----------------------------------------
 .byte   W96
 .byte   PATT
  .word Label_13_01041394
 .byte   PATT
  .word Label_13_01041394
 .byte   PATT
  .word Label_13_01041394
 .byte   PATT
  .word Label_13_01041394
@ 051   ----------------------------------------
 .byte   W96
@ 052   ----------------------------------------
 .byte   W96
@ 053   ----------------------------------------
 .byte   W96
@ 054   ----------------------------------------
 .byte   W96
 .byte   PATT
  .word Label_13_010413BA
 .byte   PATT
  .word Label_13_010412D7
 .byte   PATT
  .word Label_13_010413CF
 .byte   PATT
  .word Label_13_010412F1
 .byte   PATT
  .word Label_13_010413E4
 .byte   PATT
  .word Label_13_010413F7
@ 055   ----------------------------------------
 .byte   W96
@ 056   ----------------------------------------
 .byte   W96
@ 057   ----------------------------------------
 .byte   W96
@ 058   ----------------------------------------
 .byte   W96
@ 059   ----------------------------------------
 .byte   W96
@ 060   ----------------------------------------
 .byte   W96
@ 061   ----------------------------------------
 .byte   TIE ,Gn0 ,v056
 .byte   W96
@ 062   ----------------------------------------
 .byte   W96
@ 063   ----------------------------------------
 .byte   EOT
 .byte   W96
@ 064   ----------------------------------------
 .byte   W96
@ 065   ----------------------------------------
 .byte   W96
@ 066   ----------------------------------------
 .byte   W96
@ 067   ----------------------------------------
 .byte   W96
 .byte   PATT
  .word Label_13_0104140F
 .byte   PATT
  .word Label_13_01041417
 .byte   PATT
  .word Label_13_01041427
 .byte   PATT
  .word Label_13_01041437
 .byte   PATT
  .word Label_13_01041456
 .byte   PATT
  .word Label_13_01041472
 .byte   PATT
  .word Label_13_01041491
 .byte   PATT
  .word Label_13_010414B0
@ 068   ----------------------------------------
 .byte   W24
 .byte   N24 ,An0 ,v072
 .byte   N24 ,An1
 .byte   W48
 .byte   An0
 .byte   N24 ,An1
 .byte   W12
 .byte   GOTO
  .word Label_13_010412BE
@ 069   ----------------------------------------
 .byte   W12
 .byte   FINE

@**************** Track 15 (Midi-Chn.14) ****************@

song05_015:
@ 000   ----------------------------------------
 .byte   KEYSH , song05_key+0
Label_14_0104158A:
 .byte   VOICE , 49
 .byte   MODT 0
 .byte   CnM2
 .byte   LFOS 0
 .byte   Gs1
 .byte   PAN , c_v-37
 .byte   VOL , 60*song05_mvl/mxv
 .byte   W96
@ 001   ----------------------------------------
 .byte   W96
@ 002   ----------------------------------------
 .byte   W96
@ 003   ----------------------------------------
 .byte   W96
@ 004   ----------------------------------------
 .byte   W96
@ 005   ----------------------------------------
 .byte   W96
@ 006   ----------------------------------------
 .byte   W96
@ 007   ----------------------------------------
 .byte   W96
@ 008   ----------------------------------------
 .byte   W96
@ 009   ----------------------------------------
 .byte   W96
@ 010   ----------------------------------------
 .byte   W96
@ 011   ----------------------------------------
 .byte   W96
@ 012   ----------------------------------------
 .byte   W96
@ 013   ----------------------------------------
 .byte   W96
@ 014   ----------------------------------------
 .byte   W96
@ 015   ----------------------------------------
 .byte   W96
@ 016   ----------------------------------------
 .byte   W96
@ 017   ----------------------------------------
 .byte   W96
@ 018   ----------------------------------------
 .byte   W96
@ 019   ----------------------------------------
 .byte   W96
@ 020   ----------------------------------------
 .byte   W96
@ 021   ----------------------------------------
 .byte   W96
@ 022   ----------------------------------------
 .byte   W96
@ 023   ----------------------------------------
 .byte   W96
@ 024   ----------------------------------------
 .byte   W96
@ 025   ----------------------------------------
 .byte   W96
@ 026   ----------------------------------------
 .byte   W96
@ 027   ----------------------------------------
 .byte   W96
@ 028   ----------------------------------------
 .byte   W96
@ 029   ----------------------------------------
 .byte   W96
@ 030   ----------------------------------------
 .byte   W96
@ 031   ----------------------------------------
 .byte   W96
@ 032   ----------------------------------------
 .byte   W48
 .byte   N48 ,Gn2 ,v056
 .byte   W48
@ 033   ----------------------------------------
Label_14_010415B9:
 .byte   N72 ,Dn3 ,v056
 .byte   W72
 .byte   Cn3
 .byte   W24
 .byte   PEND 
@ 034   ----------------------------------------
 .byte   W48
 .byte   N48 ,As2
 .byte   W48
@ 035   ----------------------------------------
Label_14_010415C4:
 .byte   N48 ,An2 ,v056
 .byte   W48
 .byte   Gn2
 .byte   W48
 .byte   PEND 
@ 036   ----------------------------------------
Label_14_010415CB:
 .byte   TIE ,Dn2 ,v052
 .byte   N36 ,Dn4 ,v056
 .byte   N36 ,Gn4
 .byte   N36 ,Bn4
 .byte   W48
 .byte   Ds4
 .byte   N36 ,Gn4
 .byte   N36 ,As4
 .byte   W48
 .byte   PEND 
@ 037   ----------------------------------------
Label_14_010415DD:
 .byte   N36 ,As3 ,v056
 .byte   N36 ,Dn4
 .byte   N36 ,Fn4
 .byte   W23
 .byte   PEND 
 .byte   EOT
 .byte   Dn2
 .byte   W24
 .byte   W01
 .byte   N36 ,Gn3 ,v040
 .byte   N36 ,Cn4
 .byte   N36 ,En4
 .byte   W48
@ 038   ----------------------------------------
 .byte   W96
@ 039   ----------------------------------------
 .byte   W96
@ 040   ----------------------------------------
 .byte   W48
 .byte   N48 ,Gn2 ,v056
 .byte   W48
 .byte   PATT
  .word Label_14_010415B9
@ 041   ----------------------------------------
 .byte   W48
 .byte   N48 ,As2 ,v056
 .byte   W48
@ 042   ----------------------------------------
Label_14_01041603:
 .byte   N48 ,An2 ,v056
 .byte   W72
 .byte   N72 ,Cn3
 .byte   W24
 .byte   PEND 
@ 043   ----------------------------------------
 .byte   W48
 .byte   N48 ,As2
 .byte   W48
@ 044   ----------------------------------------
Label_14_0104160F:
 .byte   N48 ,An2 ,v056
 .byte   W48
 .byte   En2
 .byte   W48
 .byte   PEND 
@ 045   ----------------------------------------
 .byte   W96
@ 046   ----------------------------------------
 .byte   W96
@ 047   ----------------------------------------
 .byte   W96
@ 048   ----------------------------------------
 .byte   W96
@ 049   ----------------------------------------
 .byte   W96
@ 050   ----------------------------------------
 .byte   W96
@ 051   ----------------------------------------
 .byte   W96
@ 052   ----------------------------------------
 .byte   W96
@ 053   ----------------------------------------
 .byte   W96
@ 054   ----------------------------------------
 .byte   W96
@ 055   ----------------------------------------
 .byte   W96
@ 056   ----------------------------------------
 .byte   W96
@ 057   ----------------------------------------
 .byte   W96
@ 058   ----------------------------------------
 .byte   W96
@ 059   ----------------------------------------
 .byte   W96
@ 060   ----------------------------------------
 .byte   W96
@ 061   ----------------------------------------
 .byte   W96
@ 062   ----------------------------------------
 .byte   W96
@ 063   ----------------------------------------
 .byte   W96
@ 064   ----------------------------------------
 .byte   W96
@ 065   ----------------------------------------
 .byte   W96
@ 066   ----------------------------------------
 .byte   W96
@ 067   ----------------------------------------
 .byte   W96
@ 068   ----------------------------------------
 .byte   W96
@ 069   ----------------------------------------
 .byte   W96
@ 070   ----------------------------------------
 .byte   W96
@ 071   ----------------------------------------
 .byte   W96
@ 072   ----------------------------------------
 .byte   W96
@ 073   ----------------------------------------
 .byte   W96
@ 074   ----------------------------------------
 .byte   W96
@ 075   ----------------------------------------
 .byte   W96
@ 076   ----------------------------------------
 .byte   W96
@ 077   ----------------------------------------
 .byte   W96
@ 078   ----------------------------------------
 .byte   W96
@ 079   ----------------------------------------
 .byte   W96
@ 080   ----------------------------------------
 .byte   W96
@ 081   ----------------------------------------
 .byte   W96
@ 082   ----------------------------------------
 .byte   W96
@ 083   ----------------------------------------
 .byte   W48
 .byte   Gn2
 .byte   W48
 .byte   PATT
  .word Label_14_010415B9
@ 084   ----------------------------------------
 .byte   W48
 .byte   N48 ,As2 ,v056
 .byte   W48
 .byte   PATT
  .word Label_14_010415C4
 .byte   PATT
  .word Label_14_010415CB
 .byte   PATT
  .word Label_14_010415DD
@ 085   ----------------------------------------
 .byte   EOT
 .byte   Dn2
 .byte   W24
 .byte   W01
 .byte   N36 ,Gn3 ,v040
 .byte   N36 ,Cn4
 .byte   N36 ,En4
 .byte   W48
 .byte   W96
@ 086   ----------------------------------------
 .byte   W96
@ 087   ----------------------------------------
 .byte   W48
 .byte   N48 ,Gn2 ,v056
 .byte   W48
 .byte   PATT
  .word Label_14_010415B9
@ 088   ----------------------------------------
 .byte   W48
 .byte   N48 ,As2 ,v056
 .byte   W48
 .byte   PATT
  .word Label_14_01041603
@ 089   ----------------------------------------
 .byte   W48
 .byte   N48 ,As2 ,v056
 .byte   W48
 .byte   PATT
  .word Label_14_0104160F
@ 090   ----------------------------------------
 .byte   W96
@ 091   ----------------------------------------
 .byte   W96
@ 092   ----------------------------------------
 .byte   W96
@ 093   ----------------------------------------
 .byte   W96
@ 094   ----------------------------------------
 .byte   W96
@ 095   ----------------------------------------
 .byte   W84
 .byte   GOTO
  .word Label_14_0104158A
@ 096   ----------------------------------------
 .byte   W12
 .byte   FINE

@******************************************************@
	.align	2

song05:
	.byte	15	@ NumTrks
	.byte	0	@ NumBlks
	.byte	song05_pri	@ Priority
	.byte	song05_rev	@ Reverb.
    
	.word	song05_grp
    
	.word	song05_001
	.word	song05_002
	.word	song05_003
	.word	song05_004
	.word	song05_005
	.word	song05_006
	.word	song05_007
	.word	song05_008
	.word	song05_009
	.word	song05_010
	.word	song05_011
	.word	song05_012
	.word	song05_013
	.word	song05_014
	.word	song05_015

	.end
