	.include "MPlayDef.s"

	.equ	songF3_grp, voicegroup000
	.equ	songF3_pri, 0
	.equ	songF3_rev, 0
	.equ	songF3_mvl, 127
	.equ	songF3_key, 0
	.equ	songF3_tbs, 1
	.equ	songF3_exg, 0
	.equ	songF3_cmp, 1

	.section .rodata
	.global	songF3
	.align	2


@**************** Track 1 (Midi-Chn.0) ****************@

songF3_001:
@ 000   ----------------------------------------
 .byte   VOL , 65*songF3_mvl/mxv
 .byte   KEYSH , songF3_key+0
Label_0_01386BBC:
 .byte   TEMPO , 124*songF3_tbs/2
 .byte   VOICE , 45
 .byte   N12 ,Cn3 ,v127
 .byte   W12
 .byte   Gn3
 .byte   W12
 .byte   Fs3
 .byte   W12
 .byte   Cn3
 .byte   W12
 .byte   Fn3
 .byte   W12
 .byte   Ds3
 .byte   W12
 .byte   Cn3
 .byte   W12
 .byte   Dn3
 .byte   W12
@ 001   ----------------------------------------
Label_0_01386BD2:
 .byte   N12 ,Ds3 ,v127
 .byte   W12
 .byte   Fn3
 .byte   W12
 .byte   Ds3
 .byte   W12
 .byte   Cn3
 .byte   W12
 .byte   Dn3
 .byte   W12
 .byte   Cn3
 .byte   W12
 .byte   Cs3
 .byte   W12
 .byte   Bn2
 .byte   W12
 .byte   PEND 
@ 002   ----------------------------------------
Label_0_01386BE5:
 .byte   N12 ,Cn3 ,v127
 .byte   W12
 .byte   Gn3
 .byte   W12
 .byte   Fs3
 .byte   W12
 .byte   Cn3
 .byte   W12
 .byte   Fn3
 .byte   W12
 .byte   Ds3
 .byte   W12
 .byte   Cn3
 .byte   W12
 .byte   Dn3
 .byte   W12
 .byte   PEND 
@ 003   ----------------------------------------
Label_0_01386BF8:
 .byte   N12 ,Ds3 ,v127
 .byte   W12
 .byte   Fn3
 .byte   W12
 .byte   Ds3
 .byte   W12
 .byte   Cn3
 .byte   W12
 .byte   Dn3
 .byte   W12
 .byte   Cn3
 .byte   W12
 .byte   Cs3
 .byte   W12
 .byte   Gn3
 .byte   W12
 .byte   PEND 
@ 004   ----------------------------------------
Label_0_01386C0B:
 .byte   N12 ,Cn3 ,v127
 .byte   W12
 .byte   Gn2
 .byte   W12
 .byte   Cn3
 .byte   W12
 .byte   Gn3
 .byte   W12
 .byte   Fs3
 .byte   W12
 .byte   Cn3
 .byte   W12
 .byte   Fn3
 .byte   W12
 .byte   Ds3
 .byte   W12
 .byte   PEND 
@ 005   ----------------------------------------
Label_0_01386C1E:
 .byte   N12 ,Cn3 ,v127
 .byte   W12
 .byte   Dn3
 .byte   W12
 .byte   Ds3
 .byte   W12
 .byte   Fn3
 .byte   W12
 .byte   Ds3
 .byte   W12
 .byte   Cn3
 .byte   W12
 .byte   Dn3
 .byte   W12
 .byte   Cn3
 .byte   W12
 .byte   PEND 
@ 006   ----------------------------------------
Label_0_01386C31:
 .byte   N12 ,Cs3 ,v127
 .byte   W12
 .byte   Gn2
 .byte   W12
 .byte   Cn3
 .byte   W12
 .byte   Gn3
 .byte   W12
 .byte   Fs3
 .byte   W12
 .byte   Cn3
 .byte   W12
 .byte   Fn3
 .byte   W12
 .byte   Ds3
 .byte   W12
 .byte   PEND 
@ 007   ----------------------------------------
 .byte   Cn3
 .byte   W12
 .byte   Dn3
 .byte   W12
 .byte   Ds3
 .byte   W12
 .byte   Fn3
 .byte   W12
 .byte   Ds3
 .byte   W12
 .byte   Cn3
 .byte   W12
 .byte   Cs3
 .byte   W12
 .byte   Gn3
 .byte   W12
 .byte   PATT
  .word Label_0_01386BE5
 .byte   PATT
  .word Label_0_01386BD2
 .byte   PATT
  .word Label_0_01386BE5
 .byte   PATT
  .word Label_0_01386BF8
 .byte   PATT
  .word Label_0_01386C0B
 .byte   PATT
  .word Label_0_01386C1E
 .byte   PATT
  .word Label_0_01386C31
@ 008   ----------------------------------------
 .byte   N12 ,Cn3 ,v127
 .byte   W12
 .byte   Dn3
 .byte   W12
 .byte   Ds3
 .byte   W12
 .byte   Fn3
 .byte   W12
 .byte   Ds3
 .byte   W12
 .byte   Cn3
 .byte   W36
@ 009   ----------------------------------------
 .byte   W96
@ 010   ----------------------------------------
 .byte   W96
@ 011   ----------------------------------------
 .byte   W96
@ 012   ----------------------------------------
 .byte   W96
@ 013   ----------------------------------------
 .byte   W96
@ 014   ----------------------------------------
 .byte   W96
@ 015   ----------------------------------------
 .byte   W96
@ 016   ----------------------------------------
 .byte   W96
@ 017   ----------------------------------------
 .byte   W96
@ 018   ----------------------------------------
 .byte   W96
@ 019   ----------------------------------------
 .byte   W96
@ 020   ----------------------------------------
 .byte   W96
@ 021   ----------------------------------------
 .byte   W96
@ 022   ----------------------------------------
 .byte   W96
@ 023   ----------------------------------------
 .byte   W96
@ 024   ----------------------------------------
 .byte   W96
@ 025   ----------------------------------------
 .byte   W96
@ 026   ----------------------------------------
 .byte   W96
@ 027   ----------------------------------------
 .byte   W96
@ 028   ----------------------------------------
 .byte   W96
@ 029   ----------------------------------------
 .byte   W96
@ 030   ----------------------------------------
 .byte   W96
@ 031   ----------------------------------------
 .byte   W96
@ 032   ----------------------------------------
 .byte   W96
@ 033   ----------------------------------------
 .byte   W96
@ 034   ----------------------------------------
 .byte   W96
@ 035   ----------------------------------------
 .byte   W96
@ 036   ----------------------------------------
 .byte   W96
@ 037   ----------------------------------------
 .byte   W96
@ 038   ----------------------------------------
 .byte   W96
@ 039   ----------------------------------------
 .byte   W96
@ 040   ----------------------------------------
 .byte   W96
@ 041   ----------------------------------------
 .byte   W96
@ 042   ----------------------------------------
 .byte   W96
@ 043   ----------------------------------------
 .byte   TEMPO , 124*songF3_tbs/2
 .byte   W72
 .byte   W72
@ 044   ----------------------------------------
 .byte   W72
 .byte   W72
@ 045   ----------------------------------------
 .byte   W72
 .byte   W72
@ 046   ----------------------------------------
 .byte   W72
 .byte   W72
@ 047   ----------------------------------------
 .byte   TEMPO , 124*songF3_tbs/2
 .byte   W96
@ 048   ----------------------------------------
 .byte   W96
@ 049   ----------------------------------------
 .byte   W96
@ 050   ----------------------------------------
 .byte   W96
@ 051   ----------------------------------------
 .byte   W96
@ 052   ----------------------------------------
 .byte   W96
@ 053   ----------------------------------------
 .byte   W96
@ 054   ----------------------------------------
 .byte   W96
@ 055   ----------------------------------------
 .byte   W96
@ 056   ----------------------------------------
 .byte   W96
@ 057   ----------------------------------------
 .byte   W96
@ 058   ----------------------------------------
 .byte   W96
@ 059   ----------------------------------------
 .byte   W96
@ 060   ----------------------------------------
 .byte   W96
@ 061   ----------------------------------------
 .byte   W96
@ 062   ----------------------------------------
 .byte   W96
@ 063   ----------------------------------------
 .byte   W96
@ 064   ----------------------------------------
 .byte   W96
@ 065   ----------------------------------------
 .byte   W96
@ 066   ----------------------------------------
 .byte   W96
@ 067   ----------------------------------------
 .byte   GOTO
  .word Label_0_01386BBC
 .byte   FINE

@**************** Track 2 (Midi-Chn.1) ****************@

songF3_002:
@ 000   ----------------------------------------
 .byte   VOL , 45*songF3_mvl/mxv
 .byte   KEYSH , songF3_key+0
Label_1_01386CD4:
 .byte   VOICE , 11
 .byte   N18 ,Cn4 ,v127
 .byte   W18
 .byte   Gn3
 .byte   W18
 .byte   Cn4
 .byte   W18
 .byte   Cs4
 .byte   W18
 .byte   Gn4
 .byte   W18
 .byte   Dn4
 .byte   W06
@ 001   ----------------------------------------
Label_1_01386CE4:
 .byte   W12
 .byte   N18 ,Cn4 ,v127
 .byte   W18
 .byte   Dn4
 .byte   W18
 .byte   As4
 .byte   W18
 .byte   Fn4
 .byte   W18
 .byte   Cn4
 .byte   W12
 .byte   PEND 
@ 002   ----------------------------------------
Label_1_01386CF2:
 .byte   W06
 .byte   N18 ,Gn3 ,v127
 .byte   W18
 .byte   Cn4
 .byte   W18
 .byte   Cs4
 .byte   W18
 .byte   Gn4
 .byte   W18
 .byte   Dn4
 .byte   W18
 .byte   PEND 
@ 003   ----------------------------------------
Label_1_01386D00:
 .byte   N18 ,Cn4 ,v127
 .byte   W18
 .byte   Dn4
 .byte   W18
 .byte   As4
 .byte   W18
 .byte   Fn4
 .byte   W18
 .byte   Cn4
 .byte   W18
 .byte   Gn3
 .byte   W06
 .byte   PEND 
@ 004   ----------------------------------------
Label_1_01386D0F:
 .byte   W12
 .byte   N18 ,Cn4 ,v127
 .byte   W18
 .byte   Cs4
 .byte   W18
 .byte   Gn4
 .byte   W18
 .byte   Dn4
 .byte   W18
 .byte   Cn4
 .byte   W12
 .byte   PEND 
@ 005   ----------------------------------------
Label_1_01386D1D:
 .byte   W06
 .byte   N18 ,Dn4 ,v127
 .byte   W18
 .byte   As4
 .byte   W18
 .byte   Fn4
 .byte   W18
 .byte   Cn4
 .byte   W18
 .byte   Gn3
 .byte   W18
 .byte   PEND 
@ 006   ----------------------------------------
Label_1_01386D2B:
 .byte   N18 ,Cn4 ,v127
 .byte   W18
 .byte   Cs4
 .byte   W18
 .byte   Gn4
 .byte   W18
 .byte   Dn4
 .byte   W18
 .byte   Cn4
 .byte   W18
 .byte   Dn4
 .byte   W06
 .byte   PEND 
@ 007   ----------------------------------------
 .byte   W12
 .byte   As4
 .byte   W18
 .byte   Fn4
 .byte   W18
 .byte   Cn4
 .byte   W18
 .byte   Gn3
 .byte   W18
 .byte   N12 ,Cn4
 .byte   W12
@ 008   ----------------------------------------
 .byte   N18
 .byte   W18
 .byte   Gn3
 .byte   W18
 .byte   Cn4
 .byte   W18
 .byte   Cs4
 .byte   W18
 .byte   Gn4
 .byte   W18
 .byte   Dn4
 .byte   W06
 .byte   PATT
  .word Label_1_01386CE4
 .byte   PATT
  .word Label_1_01386CF2
 .byte   PATT
  .word Label_1_01386D00
 .byte   PATT
  .word Label_1_01386D0F
 .byte   PATT
  .word Label_1_01386D1D
 .byte   PATT
  .word Label_1_01386D2B
@ 009   ----------------------------------------
 .byte   W12
 .byte   N18 ,As4 ,v127
 .byte   W18
 .byte   Fn4
 .byte   W18
 .byte   Cn4
 .byte   W18
 .byte   N06 ,Gn3
 .byte   W30
@ 010   ----------------------------------------
 .byte   W96
@ 011   ----------------------------------------
 .byte   W96
@ 012   ----------------------------------------
 .byte   W96
@ 013   ----------------------------------------
 .byte   W96
@ 014   ----------------------------------------
 .byte   W96
@ 015   ----------------------------------------
 .byte   W96
@ 016   ----------------------------------------
 .byte   W96
@ 017   ----------------------------------------
 .byte   W96
@ 018   ----------------------------------------
 .byte   W96
@ 019   ----------------------------------------
 .byte   W96
@ 020   ----------------------------------------
 .byte   W96
@ 021   ----------------------------------------
 .byte   W96
@ 022   ----------------------------------------
 .byte   W96
@ 023   ----------------------------------------
 .byte   W96
@ 024   ----------------------------------------
 .byte   W96
@ 025   ----------------------------------------
 .byte   W96
@ 026   ----------------------------------------
 .byte   W96
@ 027   ----------------------------------------
 .byte   W96
@ 028   ----------------------------------------
 .byte   W96
@ 029   ----------------------------------------
 .byte   W96
@ 030   ----------------------------------------
 .byte   W96
@ 031   ----------------------------------------
 .byte   W96
@ 032   ----------------------------------------
 .byte   W96
@ 033   ----------------------------------------
 .byte   W96
@ 034   ----------------------------------------
 .byte   W96
@ 035   ----------------------------------------
 .byte   W96
@ 036   ----------------------------------------
 .byte   W96
@ 037   ----------------------------------------
 .byte   W96
@ 038   ----------------------------------------
 .byte   W96
@ 039   ----------------------------------------
 .byte   W96
@ 040   ----------------------------------------
 .byte   W96
@ 041   ----------------------------------------
 .byte   W96
@ 042   ----------------------------------------
 .byte   W96
@ 043   ----------------------------------------
 .byte   W96
@ 044   ----------------------------------------
 .byte   W72
 .byte   W72
@ 045   ----------------------------------------
 .byte   W72
 .byte   W72
@ 046   ----------------------------------------
 .byte   W72
 .byte   W72
@ 047   ----------------------------------------
 .byte   W72
 .byte   W72
@ 048   ----------------------------------------
 .byte   W96
@ 049   ----------------------------------------
 .byte   W96
@ 050   ----------------------------------------
 .byte   W96
@ 051   ----------------------------------------
 .byte   W96
@ 052   ----------------------------------------
 .byte   W96
@ 053   ----------------------------------------
 .byte   W96
@ 054   ----------------------------------------
 .byte   W96
@ 055   ----------------------------------------
 .byte   W96
@ 056   ----------------------------------------
 .byte   W96
@ 057   ----------------------------------------
 .byte   W96
@ 058   ----------------------------------------
 .byte   W96
@ 059   ----------------------------------------
 .byte   W96
@ 060   ----------------------------------------
 .byte   W96
@ 061   ----------------------------------------
 .byte   W96
@ 062   ----------------------------------------
 .byte   W96
@ 063   ----------------------------------------
 .byte   W96
@ 064   ----------------------------------------
 .byte   W96
@ 065   ----------------------------------------
 .byte   W96
@ 066   ----------------------------------------
 .byte   W96
@ 067   ----------------------------------------
 .byte   W96
@ 068   ----------------------------------------
 .byte   GOTO
  .word Label_1_01386CD4
 .byte   FINE

@**************** Track 3 (Midi-Chn.2) ****************@

songF3_003:
@ 000   ----------------------------------------
 .byte   VOL , 45*songF3_mvl/mxv
 .byte   KEYSH , songF3_key+0
Label_2_01386DC4:
 .byte   VOICE , 100
 .byte   N03 ,Fn3 ,v096
 .byte   N03 ,As3
 .byte   W03
 .byte   Fs3
 .byte   N03 ,Bn3
 .byte   W03
 .byte   TIE ,Gn3
 .byte   TIE ,Cn4
 .byte   W90
@ 001   ----------------------------------------
 .byte   W96
@ 002   ----------------------------------------
 .byte   W96
@ 003   ----------------------------------------
Label_2_01386DD7:
 .byte   W92
 .byte   W02
 .byte   TIE ,Gs3 ,v096
 .byte   TIE ,Cs4
 .byte   W02
 .byte   PEND 
@ 004   ----------------------------------------
 .byte   EOT
 .byte   Gn3 ,v072
 .byte   W96
@ 005   ----------------------------------------
 .byte   W96
@ 006   ----------------------------------------
 .byte   W96
@ 007   ----------------------------------------
 .byte   W92
 .byte   W03
 .byte   Gs3 ,v073
 .byte   W01
@ 008   ----------------------------------------
 .byte   N03 ,Fn3
 .byte   N03 ,As3
 .byte   W03
 .byte   Fs3
 .byte   N03 ,Bn3
 .byte   W03
 .byte   TIE ,Gn3
 .byte   TIE ,Cn4
 .byte   W90
@ 009   ----------------------------------------
 .byte   W96
@ 010   ----------------------------------------
 .byte   W96
 .byte   PATT
  .word Label_2_01386DD7
@ 011   ----------------------------------------
 .byte   EOT
 .byte   Gn3 ,v072
 .byte   W96
@ 012   ----------------------------------------
 .byte   W96
@ 013   ----------------------------------------
 .byte   W96
@ 014   ----------------------------------------
 .byte   W68
 .byte   W03
 .byte   Gs3 ,v073
 .byte   W24
 .byte   W01
@ 015   ----------------------------------------
 .byte   W96
@ 016   ----------------------------------------
 .byte   W96
@ 017   ----------------------------------------
 .byte   W96
@ 018   ----------------------------------------
 .byte   W96
@ 019   ----------------------------------------
 .byte   W96
@ 020   ----------------------------------------
 .byte   W96
@ 021   ----------------------------------------
 .byte   W96
@ 022   ----------------------------------------
 .byte   W96
@ 023   ----------------------------------------
 .byte   N03 ,Bn2 ,v096
 .byte   N03 ,Fn3
 .byte   W03
 .byte   Cn3
 .byte   N03 ,Fs3
 .byte   W03
 .byte   TIE ,Cs3
 .byte   TIE ,Gn3
 .byte   W90
@ 024   ----------------------------------------
 .byte   W96
@ 025   ----------------------------------------
 .byte   W96
@ 026   ----------------------------------------
 .byte   W96
@ 027   ----------------------------------------
 .byte   EOT
 .byte   Cs3 ,v067
 .byte   TIE ,Dn3
 .byte   TIE ,Gs3
 .byte   W96
@ 028   ----------------------------------------
 .byte   W96
@ 029   ----------------------------------------
 .byte   W96
@ 030   ----------------------------------------
 .byte   W96
@ 031   ----------------------------------------
 .byte   EOT
 .byte   Dn3 ,v068
 .byte   W96
@ 032   ----------------------------------------
 .byte   W96
@ 033   ----------------------------------------
 .byte   W96
@ 034   ----------------------------------------
 .byte   W96
@ 035   ----------------------------------------
 .byte   W96
@ 036   ----------------------------------------
 .byte   W96
@ 037   ----------------------------------------
 .byte   W96
@ 038   ----------------------------------------
 .byte   W96
@ 039   ----------------------------------------
 .byte   W96
@ 040   ----------------------------------------
 .byte   W96
@ 041   ----------------------------------------
 .byte   W96
@ 042   ----------------------------------------
 .byte   W96
@ 043   ----------------------------------------
 .byte   W96
@ 044   ----------------------------------------
 .byte   W96
@ 045   ----------------------------------------
 .byte   W96
@ 046   ----------------------------------------
 .byte   W96
@ 047   ----------------------------------------
 .byte   N36 ,Dn4 ,v127
 .byte   W36
 .byte   Bn4
 .byte   W36
 .byte   Gs4
 .byte   W24
@ 048   ----------------------------------------
 .byte   W12
 .byte   N12 ,Dn5
 .byte   W12
 .byte   Bn4
 .byte   W12
 .byte   N24
 .byte   W24
 .byte   W03
 .byte   N32 ,Gs4
 .byte   W32
 .byte   W01
@ 049   ----------------------------------------
 .byte   TIE ,Cs4
 .byte   TIE ,Gn4
 .byte   W72
 .byte   W72
@ 050   ----------------------------------------
 .byte   W72
 .byte   W72
@ 051   ----------------------------------------
 .byte   W72
 .byte   W72
@ 052   ----------------------------------------
 .byte   W72
 .byte   W72
@ 053   ----------------------------------------
 .byte   EOT
 .byte   Cs4 ,v079
 .byte   TIE ,Cn4
 .byte   TIE ,Gn4
 .byte   W96
@ 054   ----------------------------------------
 .byte   W96
@ 055   ----------------------------------------
 .byte   W96
@ 056   ----------------------------------------
 .byte   W96
@ 057   ----------------------------------------
 .byte   W96
@ 058   ----------------------------------------
 .byte   W96
@ 059   ----------------------------------------
 .byte   W96
@ 060   ----------------------------------------
 .byte   W96
@ 061   ----------------------------------------
 .byte   EOT
 .byte   Cn4 ,v079
 .byte   TIE ,As3
 .byte   TIE ,Fn4
 .byte   W96
@ 062   ----------------------------------------
 .byte   W96
@ 063   ----------------------------------------
 .byte   W96
@ 064   ----------------------------------------
 .byte   W96
@ 065   ----------------------------------------
 .byte   W96
@ 066   ----------------------------------------
 .byte   W96
@ 067   ----------------------------------------
 .byte   W96
@ 068   ----------------------------------------
 .byte   W96
@ 069   ----------------------------------------
 .byte   EOT
 .byte   As3 ,v077
 .byte   W96
@ 070   ----------------------------------------
 .byte   W96
@ 071   ----------------------------------------
 .byte   W96
@ 072   ----------------------------------------
 .byte   W96
@ 073   ----------------------------------------
 .byte   GOTO
  .word Label_2_01386DC4
 .byte   FINE

@**************** Track 4 (Midi-Chn.3) ****************@

songF3_004:
@ 000   ----------------------------------------
 .byte   VOL , 30*songF3_mvl/mxv
 .byte   KEYSH , songF3_key+0
Label_3_01386E94:
 .byte   VOICE , 48
 .byte   W96
@ 001   ----------------------------------------
 .byte   W96
@ 002   ----------------------------------------
 .byte   W96
@ 003   ----------------------------------------
 .byte   W96
@ 004   ----------------------------------------
 .byte   W96
@ 005   ----------------------------------------
 .byte   W96
@ 006   ----------------------------------------
 .byte   W96
@ 007   ----------------------------------------
 .byte   W96
@ 008   ----------------------------------------
 .byte   N12 ,Gn2 ,v096
 .byte   N12 ,As2
 .byte   W12
 .byte   Gs2
 .byte   N12 ,Bn2
 .byte   W12
 .byte   TIE ,As2
 .byte   TIE ,Cn3
 .byte   W72
@ 009   ----------------------------------------
 .byte   W96
@ 010   ----------------------------------------
 .byte   W96
@ 011   ----------------------------------------
 .byte   W96
@ 012   ----------------------------------------
 .byte   EOT
 .byte   As2 ,v060
 .byte   TIE ,Bn2
 .byte   TIE ,Cs3
 .byte   W96
@ 013   ----------------------------------------
 .byte   W96
@ 014   ----------------------------------------
 .byte   EOT
 .byte   TIE
 .byte   TIE ,Gs3
 .byte   W96
@ 015   ----------------------------------------
 .byte   W72
 .byte   EOT
 .byte   Bn2 ,v061
 .byte   Gs3
 .byte   W24
@ 016   ----------------------------------------
 .byte   TIE ,Gn2
 .byte   W96
@ 017   ----------------------------------------
 .byte   W96
@ 018   ----------------------------------------
 .byte   W96
@ 019   ----------------------------------------
 .byte   W96
@ 020   ----------------------------------------
 .byte   EOT
 .byte   TIE ,Gs2
 .byte   W96
@ 021   ----------------------------------------
 .byte   W96
@ 022   ----------------------------------------
 .byte   W96
@ 023   ----------------------------------------
 .byte   W96
@ 024   ----------------------------------------
 .byte   EOT
 .byte   TIE ,As2 ,v116
 .byte   W96
@ 025   ----------------------------------------
 .byte   W96
@ 026   ----------------------------------------
 .byte   W96
@ 027   ----------------------------------------
 .byte   W96
@ 028   ----------------------------------------
 .byte   EOT
 .byte   TIE ,Cn3
 .byte   W96
@ 029   ----------------------------------------
 .byte   W96
@ 030   ----------------------------------------
 .byte   EOT
 .byte   TIE ,Cs3
 .byte   W96
@ 031   ----------------------------------------
 .byte   W96
@ 032   ----------------------------------------
 .byte   EOT
 .byte   TIE ,Bn2
 .byte   TIE ,En3
 .byte   W96
@ 033   ----------------------------------------
 .byte   W96
@ 034   ----------------------------------------
 .byte   EOT
 .byte   Bn2 ,v064
 .byte   TIE ,Cn3
 .byte   TIE ,Fs3
 .byte   W96
@ 035   ----------------------------------------
 .byte   W96
@ 036   ----------------------------------------
 .byte   EOT
 .byte   Cn3 ,v066
 .byte   TIE ,Dn3
 .byte   TIE ,Gn3
 .byte   W96
@ 037   ----------------------------------------
 .byte   W96
@ 038   ----------------------------------------
 .byte   EOT
 .byte   Dn3 ,v067
 .byte   TIE ,En3
 .byte   TIE ,An3
 .byte   W96
@ 039   ----------------------------------------
 .byte   W96
@ 040   ----------------------------------------
 .byte   EOT
 .byte   En3 ,v069
 .byte   TIE ,Bn2
 .byte   TIE ,Ds3
 .byte   W96
@ 041   ----------------------------------------
 .byte   W96
@ 042   ----------------------------------------
 .byte   EOT
 .byte   Bn2 ,v063
 .byte   TIE ,Cn3
 .byte   TIE ,En3
 .byte   W96
@ 043   ----------------------------------------
 .byte   W96
@ 044   ----------------------------------------
 .byte   EOT
 .byte   Cn3 ,v064
 .byte   TIE ,Cs3
 .byte   TIE ,Fs3
 .byte   W96
@ 045   ----------------------------------------
 .byte   W96
@ 046   ----------------------------------------
 .byte   EOT
 .byte   Cs3 ,v066
 .byte   TIE ,An2
 .byte   TIE ,Cs3
 .byte   W96
@ 047   ----------------------------------------
 .byte   W96
@ 048   ----------------------------------------
 .byte   EOT
 .byte   An2 ,v061
 .byte   W96
@ 049   ----------------------------------------
 .byte   W96
@ 050   ----------------------------------------
 .byte   W72
 .byte   W72
@ 051   ----------------------------------------
 .byte   W72
 .byte   W72
@ 052   ----------------------------------------
 .byte   W72
 .byte   W72
@ 053   ----------------------------------------
 .byte   W72
 .byte   W72
@ 054   ----------------------------------------
 .byte   N96 ,Ds3 ,v096
 .byte   W96
@ 055   ----------------------------------------
 .byte   En3
 .byte   W96
@ 056   ----------------------------------------
 .byte   Fn3
 .byte   W96
@ 057   ----------------------------------------
 .byte   Fs3
 .byte   W96
@ 058   ----------------------------------------
 .byte   Gn3
 .byte   W96
@ 059   ----------------------------------------
 .byte   Gs3
 .byte   W96
@ 060   ----------------------------------------
 .byte   An3
 .byte   W96
@ 061   ----------------------------------------
 .byte   As3
 .byte   W96
@ 062   ----------------------------------------
 .byte   Fs3
 .byte   W96
@ 063   ----------------------------------------
 .byte   Gn3
 .byte   W96
@ 064   ----------------------------------------
 .byte   Gs3
 .byte   W96
@ 065   ----------------------------------------
 .byte   An3
 .byte   W96
@ 066   ----------------------------------------
 .byte   As3
 .byte   W96
@ 067   ----------------------------------------
 .byte   Bn3
 .byte   W96
@ 068   ----------------------------------------
 .byte   Cn4
 .byte   W96
@ 069   ----------------------------------------
 .byte   Cs4
 .byte   W96
@ 070   ----------------------------------------
 .byte   TIE ,Dn4
 .byte   W96
@ 071   ----------------------------------------
 .byte   W96
@ 072   ----------------------------------------
 .byte   W96
@ 073   ----------------------------------------
 .byte   W96
@ 074   ----------------------------------------
 .byte   EOT
 .byte   GOTO
  .word Label_3_01386E94
 .byte   FINE

@**************** Track 5 (Midi-Chn.4) ****************@

songF3_005:
@ 000   ----------------------------------------
 .byte   VOL , 45*songF3_mvl/mxv
 .byte   KEYSH , songF3_key+0
Label_4_01386F6C:
 .byte   VOICE , 127
 .byte   W96
@ 001   ----------------------------------------
 .byte   W96
@ 002   ----------------------------------------
 .byte   W96
@ 003   ----------------------------------------
 .byte   W96
@ 004   ----------------------------------------
 .byte   W96
@ 005   ----------------------------------------
 .byte   W96
@ 006   ----------------------------------------
 .byte   W96
@ 007   ----------------------------------------
 .byte   W96
@ 008   ----------------------------------------
 .byte   W96
@ 009   ----------------------------------------
 .byte   W96
@ 010   ----------------------------------------
 .byte   W96
@ 011   ----------------------------------------
 .byte   W96
@ 012   ----------------------------------------
 .byte   W96
@ 013   ----------------------------------------
 .byte   W96
@ 014   ----------------------------------------
 .byte   W96
@ 015   ----------------------------------------
 .byte   W96
@ 016   ----------------------------------------
Label_4_01386F7E:
 .byte   N06 ,Cn1 ,v100
 .byte   N02 ,Fs1
 .byte   W12
 .byte   N06 ,Cn1
 .byte   W24
 .byte   N06
 .byte   W12
 .byte   N06
 .byte   W12
 .byte   N06
 .byte   W36
 .byte   PEND 
@ 017   ----------------------------------------
Label_4_01386F8E:
 .byte   W12
 .byte   N06 ,Cn1 ,v100
 .byte   W12
 .byte   N06
 .byte   W06
 .byte   N06
 .byte   W06
 .byte   N06
 .byte   W06
 .byte   N06
 .byte   W06
 .byte   N06
 .byte   W12
 .byte   N06
 .byte   W24
 .byte   N06
 .byte   W12
 .byte   PEND 
 .byte   PATT
  .word Label_4_01386F7E
 .byte   PATT
  .word Label_4_01386F8E
 .byte   PATT
  .word Label_4_01386F7E
 .byte   PATT
  .word Label_4_01386F8E
 .byte   PATT
  .word Label_4_01386F7E
 .byte   PATT
  .word Label_4_01386F8E
 .byte   PATT
  .word Label_4_01386F7E
 .byte   PATT
  .word Label_4_01386F8E
 .byte   PATT
  .word Label_4_01386F7E
 .byte   PATT
  .word Label_4_01386F8E
 .byte   PATT
  .word Label_4_01386F7E
 .byte   PATT
  .word Label_4_01386F8E
 .byte   PATT
  .word Label_4_01386F7E
 .byte   PATT
  .word Label_4_01386F8E
@ 018   ----------------------------------------
 .byte   W96
@ 019   ----------------------------------------
 .byte   W96
@ 020   ----------------------------------------
 .byte   W96
@ 021   ----------------------------------------
 .byte   W96
@ 022   ----------------------------------------
 .byte   W96
@ 023   ----------------------------------------
 .byte   W96
@ 024   ----------------------------------------
 .byte   W96
@ 025   ----------------------------------------
 .byte   W96
@ 026   ----------------------------------------
 .byte   W96
@ 027   ----------------------------------------
 .byte   W96
@ 028   ----------------------------------------
 .byte   W96
@ 029   ----------------------------------------
 .byte   W96
@ 030   ----------------------------------------
 .byte   W96
@ 031   ----------------------------------------
 .byte   W96
@ 032   ----------------------------------------
 .byte   W96
@ 033   ----------------------------------------
 .byte   W96
@ 034   ----------------------------------------
 .byte   W96
@ 035   ----------------------------------------
 .byte   W96
@ 036   ----------------------------------------
 .byte   W72
 .byte   W72
@ 037   ----------------------------------------
 .byte   W72
 .byte   W72
@ 038   ----------------------------------------
 .byte   W72
 .byte   W72
@ 039   ----------------------------------------
 .byte   W72
 .byte   W72
@ 040   ----------------------------------------
 .byte   W96
@ 041   ----------------------------------------
 .byte   W96
@ 042   ----------------------------------------
 .byte   W96
@ 043   ----------------------------------------
 .byte   W96
@ 044   ----------------------------------------
 .byte   W96
@ 045   ----------------------------------------
 .byte   W96
@ 046   ----------------------------------------
 .byte   W96
@ 047   ----------------------------------------
 .byte   W96
@ 048   ----------------------------------------
 .byte   W96
@ 049   ----------------------------------------
 .byte   W96
@ 050   ----------------------------------------
 .byte   W96
@ 051   ----------------------------------------
 .byte   W96
@ 052   ----------------------------------------
 .byte   W96
@ 053   ----------------------------------------
 .byte   W96
@ 054   ----------------------------------------
 .byte   W96
@ 055   ----------------------------------------
 .byte   W96
@ 056   ----------------------------------------
 .byte   W96
@ 057   ----------------------------------------
 .byte   W96
@ 058   ----------------------------------------
 .byte   W96
@ 059   ----------------------------------------
 .byte   W96
@ 060   ----------------------------------------
 .byte   GOTO
  .word Label_4_01386F6C
 .byte   FINE

@**************** Track 6 (Midi-Chn.5) ****************@

songF3_006:
@ 000   ----------------------------------------
 .byte   VOL , 35*songF3_mvl/mxv
 .byte   KEYSH , songF3_key+0
Label_5_01387020:
 .byte   VOICE , 48
 .byte   W96
@ 001   ----------------------------------------
 .byte   W96
@ 002   ----------------------------------------
 .byte   W96
@ 003   ----------------------------------------
 .byte   W96
@ 004   ----------------------------------------
 .byte   W96
@ 005   ----------------------------------------
 .byte   W96
@ 006   ----------------------------------------
 .byte   W96
@ 007   ----------------------------------------
 .byte   W96
@ 008   ----------------------------------------
 .byte   W96
@ 009   ----------------------------------------
 .byte   W96
@ 010   ----------------------------------------
 .byte   W96
@ 011   ----------------------------------------
 .byte   W96
@ 012   ----------------------------------------
 .byte   W96
@ 013   ----------------------------------------
 .byte   W96
@ 014   ----------------------------------------
 .byte   W96
@ 015   ----------------------------------------
 .byte   W96
@ 016   ----------------------------------------
 .byte   N03 ,Gn2 ,v104
 .byte   W06
 .byte   N03
 .byte   W06
 .byte   N03
 .byte   W12
 .byte   Gs2
 .byte   W06
 .byte   N03
 .byte   W06
 .byte   N03
 .byte   W12
 .byte   As2
 .byte   W06
 .byte   N03
 .byte   W06
 .byte   N03
 .byte   W12
 .byte   Cn3
 .byte   W06
 .byte   N03
 .byte   W06
 .byte   N03
 .byte   W12
@ 017   ----------------------------------------
 .byte   Cs3
 .byte   W06
 .byte   N03
 .byte   W06
 .byte   N03
 .byte   W12
 .byte   Cn3
 .byte   W06
 .byte   N03
 .byte   W06
 .byte   N03
 .byte   W12
 .byte   As2
 .byte   W06
 .byte   N03
 .byte   W06
 .byte   N03
 .byte   W12
 .byte   Cn3
 .byte   W06
 .byte   N03
 .byte   W06
 .byte   N03
 .byte   W12
@ 018   ----------------------------------------
 .byte   Cs3
 .byte   W06
 .byte   N03
 .byte   W06
 .byte   N03
 .byte   W12
 .byte   Ds3
 .byte   W06
 .byte   N03
 .byte   W06
 .byte   N03
 .byte   W12
 .byte   En3
 .byte   W06
 .byte   N03
 .byte   W06
 .byte   N03
 .byte   W12
 .byte   Cn3
 .byte   W06
 .byte   N03
 .byte   W06
 .byte   N03
 .byte   W12
@ 019   ----------------------------------------
 .byte   Bn2
 .byte   W06
 .byte   N03
 .byte   W06
 .byte   N03
 .byte   W12
 .byte   Cn3
 .byte   W06
 .byte   N03
 .byte   W06
 .byte   N03
 .byte   W12
 .byte   As2
 .byte   W06
 .byte   N03
 .byte   W06
 .byte   N03
 .byte   W12
 .byte   An2
 .byte   W06
 .byte   N03
 .byte   W06
 .byte   N03
 .byte   W12
@ 020   ----------------------------------------
 .byte   Gs2
 .byte   W06
 .byte   N03
 .byte   W06
 .byte   N03
 .byte   W12
 .byte   Ds3
 .byte   W06
 .byte   N03
 .byte   W06
 .byte   N03
 .byte   W12
 .byte   Dn3
 .byte   W06
 .byte   N03
 .byte   W06
 .byte   N03
 .byte   W12
 .byte   Cs3
 .byte   W06
 .byte   N03
 .byte   W06
 .byte   N03
 .byte   W12
@ 021   ----------------------------------------
 .byte   N03
 .byte   W06
 .byte   N03
 .byte   W06
 .byte   N03
 .byte   W12
 .byte   Fs3
 .byte   W06
 .byte   N03
 .byte   W06
 .byte   N03
 .byte   W12
 .byte   Fn3
 .byte   W06
 .byte   N03
 .byte   W06
 .byte   N03
 .byte   W12
 .byte   Ds3
 .byte   W06
 .byte   N03
 .byte   W06
 .byte   N03
 .byte   W12
@ 022   ----------------------------------------
 .byte   Fn3
 .byte   W06
 .byte   N03
 .byte   W06
 .byte   N03
 .byte   W12
 .byte   An2
 .byte   W06
 .byte   N03
 .byte   W06
 .byte   N03
 .byte   W12
 .byte   Cn3
 .byte   W06
 .byte   N03
 .byte   W06
 .byte   N03
 .byte   W12
 .byte   Cs3
 .byte   W06
 .byte   N03
 .byte   W06
 .byte   N03
 .byte   W12
@ 023   ----------------------------------------
 .byte   Ds3
 .byte   W06
 .byte   N03
 .byte   W06
 .byte   N03
 .byte   W12
 .byte   En3
 .byte   W06
 .byte   N03
 .byte   W06
 .byte   N03
 .byte   W12
 .byte   Fs3
 .byte   W06
 .byte   N03
 .byte   W06
 .byte   N03
 .byte   W12
 .byte   Gs3
 .byte   W06
 .byte   N03
 .byte   W06
 .byte   N03
 .byte   W12
@ 024   ----------------------------------------
 .byte   Gn3
 .byte   W06
 .byte   N03
 .byte   W06
 .byte   N03
 .byte   W12
 .byte   Gs3
 .byte   W06
 .byte   N03
 .byte   W06
 .byte   N03
 .byte   W12
 .byte   As3
 .byte   W06
 .byte   N03
 .byte   W06
 .byte   N03
 .byte   W12
 .byte   Cn4
 .byte   W06
 .byte   N03
 .byte   W06
 .byte   N03
 .byte   W12
@ 025   ----------------------------------------
 .byte   Cs4
 .byte   W06
 .byte   N03
 .byte   W06
 .byte   N03
 .byte   W12
 .byte   Cn4
 .byte   W06
 .byte   N03
 .byte   W06
 .byte   N03
 .byte   W12
 .byte   As3
 .byte   W06
 .byte   N03
 .byte   W06
 .byte   N03
 .byte   W12
 .byte   Cn4
 .byte   W06
 .byte   N03
 .byte   W06
 .byte   N03
 .byte   W12
@ 026   ----------------------------------------
 .byte   Cs4
 .byte   W06
 .byte   N03
 .byte   W06
 .byte   N03
 .byte   W12
 .byte   Ds4
 .byte   W06
 .byte   N03
 .byte   W06
 .byte   N03
 .byte   W12
 .byte   En4
 .byte   W06
 .byte   N03
 .byte   W06
 .byte   N03
 .byte   W12
 .byte   Cn4
 .byte   W06
 .byte   N03
 .byte   W06
 .byte   N03
 .byte   W12
@ 027   ----------------------------------------
 .byte   Bn3
 .byte   W06
 .byte   N03
 .byte   W06
 .byte   N03
 .byte   W12
 .byte   Cn4
 .byte   W06
 .byte   N03
 .byte   W06
 .byte   N03
 .byte   W12
 .byte   As3
 .byte   W06
 .byte   N03
 .byte   W06
 .byte   N03
 .byte   W12
 .byte   An3
 .byte   W06
 .byte   N03
 .byte   W06
 .byte   N03
 .byte   W12
@ 028   ----------------------------------------
 .byte   Gs3
 .byte   W06
 .byte   N03
 .byte   W06
 .byte   N03
 .byte   W12
 .byte   Ds4
 .byte   W06
 .byte   N03
 .byte   W06
 .byte   N03
 .byte   W12
 .byte   Dn4
 .byte   W06
 .byte   N03
 .byte   W06
 .byte   N03
 .byte   W12
 .byte   Cs4
 .byte   W06
 .byte   N03
 .byte   W06
 .byte   N03
 .byte   W12
@ 029   ----------------------------------------
 .byte   N03
 .byte   W06
 .byte   N03
 .byte   W06
 .byte   N03
 .byte   W12
 .byte   Fs4
 .byte   W06
 .byte   N03
 .byte   W06
 .byte   N03
 .byte   W12
 .byte   Fn4
 .byte   W06
 .byte   N03
 .byte   W06
 .byte   N03
 .byte   W12
 .byte   Ds4
 .byte   W06
 .byte   N03
 .byte   W06
 .byte   N03
 .byte   W12
@ 030   ----------------------------------------
 .byte   Fn4
 .byte   W06
 .byte   N03
 .byte   W06
 .byte   N03
 .byte   W12
 .byte   An3
 .byte   W06
 .byte   N03
 .byte   W06
 .byte   N03
 .byte   W12
 .byte   Cn4
 .byte   W06
 .byte   N03
 .byte   W06
 .byte   N03
 .byte   W12
 .byte   Cs4
 .byte   W06
 .byte   N03
 .byte   W06
 .byte   N03
 .byte   W12
@ 031   ----------------------------------------
 .byte   Ds4
 .byte   W06
 .byte   N03
 .byte   W06
 .byte   N03
 .byte   W12
 .byte   En4
 .byte   W06
 .byte   N03
 .byte   W06
 .byte   N03
 .byte   W12
 .byte   Fs4
 .byte   W06
 .byte   N03
 .byte   W06
 .byte   N03
 .byte   W12
 .byte   Gs4
 .byte   W06
 .byte   N03
 .byte   W06
 .byte   N03
 .byte   W12
@ 032   ----------------------------------------
 .byte   W96
@ 033   ----------------------------------------
 .byte   W96
@ 034   ----------------------------------------
 .byte   W96
@ 035   ----------------------------------------
 .byte   W96
@ 036   ----------------------------------------
 .byte   W96
@ 037   ----------------------------------------
 .byte   W96
@ 038   ----------------------------------------
 .byte   W96
@ 039   ----------------------------------------
 .byte   W96
@ 040   ----------------------------------------
 .byte   W96
@ 041   ----------------------------------------
 .byte   W96
@ 042   ----------------------------------------
 .byte   W96
@ 043   ----------------------------------------
 .byte   W96
@ 044   ----------------------------------------
 .byte   W96
@ 045   ----------------------------------------
 .byte   W96
@ 046   ----------------------------------------
 .byte   W96
@ 047   ----------------------------------------
 .byte   W96
@ 048   ----------------------------------------
 .byte   W96
@ 049   ----------------------------------------
 .byte   W96
@ 050   ----------------------------------------
Label_5_013871C6:
 .byte   N12 ,Cn2 ,v096
 .byte   N12 ,Gs3
 .byte   W12
 .byte   Gn2
 .byte   N12 ,Gs3
 .byte   W12
 .byte   Cs3
 .byte   W12
 .byte   Cn2 ,v100
 .byte   N12 ,Fn3 ,v096
 .byte   W12
 .byte   Gn2 ,v100
 .byte   N12 ,Fn3 ,v096
 .byte   W12
 .byte   Cn3 ,v100
 .byte   W12
 .byte   PEND 
Label_5_013871E2:
 .byte   N12 ,Cn2 ,v100
 .byte   N12 ,Fs3 ,v096
 .byte   W12
 .byte   Gn2 ,v100
 .byte   N12 ,Fs3 ,v096
 .byte   W12
@ 051   ----------------------------------------
 .byte   Bn2 ,v100
 .byte   W12
 .byte   Cn2
 .byte   N12 ,An3 ,v096
 .byte   W12
 .byte   Gn2 ,v100
 .byte   N12 ,An3 ,v096
 .byte   W12
 .byte   As2 ,v100
 .byte   W12
 .byte   PEND 
 .byte   PATT
  .word Label_5_013871C6
 .byte   PATT
  .word Label_5_013871E2
 .byte   PATT
  .word Label_5_013871C6
 .byte   PATT
  .word Label_5_013871E2
 .byte   PATT
  .word Label_5_013871C6
 .byte   PATT
  .word Label_5_013871E2
@ 052   ----------------------------------------
 .byte   W96
@ 053   ----------------------------------------
 .byte   W96
@ 054   ----------------------------------------
 .byte   W96
@ 055   ----------------------------------------
 .byte   W96
@ 056   ----------------------------------------
 .byte   W96
@ 057   ----------------------------------------
 .byte   W96
@ 058   ----------------------------------------
 .byte   W96
@ 059   ----------------------------------------
 .byte   W96
@ 060   ----------------------------------------
 .byte   W96
@ 061   ----------------------------------------
 .byte   W96
@ 062   ----------------------------------------
 .byte   W96
@ 063   ----------------------------------------
 .byte   W96
@ 064   ----------------------------------------
 .byte   W96
@ 065   ----------------------------------------
 .byte   W96
@ 066   ----------------------------------------
 .byte   W96
@ 067   ----------------------------------------
 .byte   W96
@ 068   ----------------------------------------
 .byte   W96
@ 069   ----------------------------------------
 .byte   W96
@ 070   ----------------------------------------
 .byte   W96
@ 071   ----------------------------------------
 .byte   W96
@ 072   ----------------------------------------
 .byte   GOTO
  .word Label_5_01387020
 .byte   FINE

@**************** Track 7 (Midi-Chn.6) ****************@

songF3_007:
@ 000   ----------------------------------------
 .byte   VOL , 45*songF3_mvl/mxv
 .byte   KEYSH , songF3_key+0
Label_6_01387240:
 .byte   VOICE , 119
 .byte   W96
@ 001   ----------------------------------------
 .byte   W96
@ 002   ----------------------------------------
 .byte   W96
@ 003   ----------------------------------------
 .byte   W96
@ 004   ----------------------------------------
 .byte   W96
@ 005   ----------------------------------------
 .byte   W96
@ 006   ----------------------------------------
 .byte   W96
@ 007   ----------------------------------------
 .byte   W96
@ 008   ----------------------------------------
 .byte   W96
@ 009   ----------------------------------------
 .byte   W96
@ 010   ----------------------------------------
 .byte   W96
@ 011   ----------------------------------------
 .byte   W96
@ 012   ----------------------------------------
 .byte   W96
@ 013   ----------------------------------------
 .byte   W96
@ 014   ----------------------------------------
 .byte   W96
@ 015   ----------------------------------------
Label_6_01387251:
 .byte   W72
 .byte   TIE ,Fn3 ,v104
 .byte   W24
 .byte   PEND 
@ 016   ----------------------------------------
 .byte   W96
@ 017   ----------------------------------------
 .byte   W48
 .byte   EOT
 .byte   W48
@ 018   ----------------------------------------
 .byte   W96
@ 019   ----------------------------------------
 .byte   W96
@ 020   ----------------------------------------
 .byte   W96
@ 021   ----------------------------------------
 .byte   W96
@ 022   ----------------------------------------
 .byte   W96
@ 023   ----------------------------------------
 .byte   W96
@ 024   ----------------------------------------
 .byte   W96
@ 025   ----------------------------------------
 .byte   W96
@ 026   ----------------------------------------
 .byte   W96
@ 027   ----------------------------------------
 .byte   W96
@ 028   ----------------------------------------
 .byte   W96
@ 029   ----------------------------------------
 .byte   W96
@ 030   ----------------------------------------
 .byte   W96
 .byte   PATT
  .word Label_6_01387251
@ 031   ----------------------------------------
 .byte   W96
@ 032   ----------------------------------------
 .byte   W48
 .byte   EOT
 .byte   Fn3
 .byte   W48
@ 033   ----------------------------------------
 .byte   W96
@ 034   ----------------------------------------
 .byte   W96
@ 035   ----------------------------------------
 .byte   W96
@ 036   ----------------------------------------
 .byte   W96
@ 037   ----------------------------------------
 .byte   W96
@ 038   ----------------------------------------
 .byte   W96
@ 039   ----------------------------------------
 .byte   W96
@ 040   ----------------------------------------
 .byte   W96
@ 041   ----------------------------------------
 .byte   W96
@ 042   ----------------------------------------
 .byte   W96
@ 043   ----------------------------------------
 .byte   W96
@ 044   ----------------------------------------
 .byte   W96
@ 045   ----------------------------------------
 .byte   W96
@ 046   ----------------------------------------
 .byte   W96
@ 047   ----------------------------------------
 .byte   W96
 .byte   PATT
  .word Label_6_01387251
@ 048   ----------------------------------------
 .byte   W72
 .byte   W72
@ 049   ----------------------------------------
 .byte   EOT
 .byte   Fn3
 .byte   W72
 .byte   W72
@ 050   ----------------------------------------
 .byte   W72
 .byte   W72
@ 051   ----------------------------------------
 .byte   W72
 .byte   W72
@ 052   ----------------------------------------
 .byte   W96
@ 053   ----------------------------------------
 .byte   W96
@ 054   ----------------------------------------
 .byte   W96
@ 055   ----------------------------------------
 .byte   W96
@ 056   ----------------------------------------
 .byte   W96
@ 057   ----------------------------------------
 .byte   W96
@ 058   ----------------------------------------
 .byte   W96
@ 059   ----------------------------------------
 .byte   W96
@ 060   ----------------------------------------
 .byte   W96
@ 061   ----------------------------------------
 .byte   W96
@ 062   ----------------------------------------
 .byte   W96
@ 063   ----------------------------------------
 .byte   W96
@ 064   ----------------------------------------
 .byte   W96
@ 065   ----------------------------------------
 .byte   W96
@ 066   ----------------------------------------
 .byte   W96
@ 067   ----------------------------------------
 .byte   W96
@ 068   ----------------------------------------
 .byte   W96
@ 069   ----------------------------------------
 .byte   W96
@ 070   ----------------------------------------
 .byte   W96
@ 071   ----------------------------------------
 .byte   W96
@ 072   ----------------------------------------
 .byte   GOTO
  .word Label_6_01387240
 .byte   FINE

@**************** Track 8 (Midi-Chn.7) ****************@

songF3_008:
@ 000   ----------------------------------------
 .byte   VOL , 80*songF3_mvl/mxv
 .byte   KEYSH , songF3_key+0
Label_7_013872B0:
 .byte   VOICE , 40
 .byte   N12 ,Cn1 ,v116
 .byte   W36
 .byte   N12
 .byte   W36
 .byte   N12
 .byte   W24
@ 001   ----------------------------------------
Label_7_013872BA:
 .byte   W36
 .byte   N12 ,Cn1 ,v116
 .byte   W24
 .byte   N36
 .byte   W36
 .byte   PEND 
@ 002   ----------------------------------------
Label_7_013872C2:
 .byte   N12 ,Cn1 ,v116
 .byte   W36
 .byte   N12
 .byte   W36
 .byte   N12
 .byte   W24
 .byte   PEND 
 .byte   PATT
  .word Label_7_013872BA
 .byte   PATT
  .word Label_7_013872C2
 .byte   PATT
  .word Label_7_013872BA
 .byte   PATT
  .word Label_7_013872C2
 .byte   PATT
  .word Label_7_013872BA
 .byte   PATT
  .word Label_7_013872C2
 .byte   PATT
  .word Label_7_013872BA
 .byte   PATT
  .word Label_7_013872C2
 .byte   PATT
  .word Label_7_013872BA
 .byte   PATT
  .word Label_7_013872C2
 .byte   PATT
  .word Label_7_013872BA
 .byte   PATT
  .word Label_7_013872C2
 .byte   PATT
  .word Label_7_013872BA
@ 003   ----------------------------------------
Label_7_0138730C:
 .byte   N12 ,Gn0 ,v116
 .byte   W36
 .byte   N12
 .byte   W36
 .byte   N12
 .byte   W24
 .byte   PEND 
@ 004   ----------------------------------------
Label_7_01387315:
 .byte   W36
 .byte   N12 ,Gn0 ,v116
 .byte   W24
 .byte   N36
 .byte   W36
 .byte   PEND 
 .byte   PATT
  .word Label_7_0138730C
 .byte   PATT
  .word Label_7_01387315
@ 005   ----------------------------------------
Label_7_01387327:
 .byte   N12 ,Gs0 ,v116
 .byte   W36
 .byte   N12
 .byte   W36
 .byte   N12
 .byte   W24
 .byte   PEND 
@ 006   ----------------------------------------
Label_7_01387330:
 .byte   W36
 .byte   N12 ,Gs0 ,v116
 .byte   W24
 .byte   N36
 .byte   W36
 .byte   PEND 
 .byte   PATT
  .word Label_7_01387327
 .byte   PATT
  .word Label_7_01387330
 .byte   PATT
  .word Label_7_0138730C
 .byte   PATT
  .word Label_7_01387315
 .byte   PATT
  .word Label_7_0138730C
 .byte   PATT
  .word Label_7_01387315
 .byte   PATT
  .word Label_7_01387327
 .byte   PATT
  .word Label_7_01387330
 .byte   PATT
  .word Label_7_01387327
 .byte   PATT
  .word Label_7_01387330
@ 007   ----------------------------------------
 .byte   W96
@ 008   ----------------------------------------
 .byte   W96
@ 009   ----------------------------------------
 .byte   W96
@ 010   ----------------------------------------
 .byte   W96
@ 011   ----------------------------------------
 .byte   W96
@ 012   ----------------------------------------
 .byte   W96
@ 013   ----------------------------------------
 .byte   W96
@ 014   ----------------------------------------
 .byte   W96
@ 015   ----------------------------------------
 .byte   W96
@ 016   ----------------------------------------
 .byte   W96
@ 017   ----------------------------------------
 .byte   W96
@ 018   ----------------------------------------
 .byte   W96
@ 019   ----------------------------------------
 .byte   W96
@ 020   ----------------------------------------
 .byte   W96
@ 021   ----------------------------------------
 .byte   W96
@ 022   ----------------------------------------
 .byte   W96
@ 023   ----------------------------------------
 .byte   W96
@ 024   ----------------------------------------
 .byte   W96
@ 025   ----------------------------------------
Label_7_0138737C:
 .byte   N12 ,As0 ,v116
 .byte   W36
 .byte   N12
 .byte   W36
 .byte   PEND 
Label_7_01387383:
 .byte   N12 ,As0 ,v116
 .byte   W48
@ 026   ----------------------------------------
 .byte   N12
 .byte   W24
 .byte   PEND 
 .byte   PATT
  .word Label_7_0138737C
 .byte   PATT
  .word Label_7_01387383
 .byte   PATT
  .word Label_7_0138737C
 .byte   PATT
  .word Label_7_01387383
 .byte   PATT
  .word Label_7_0138737C
 .byte   PATT
  .word Label_7_01387383
 .byte   PATT
  .word Label_7_013872C2
 .byte   PATT
  .word Label_7_013872BA
 .byte   PATT
  .word Label_7_013872C2
 .byte   PATT
  .word Label_7_013872BA
 .byte   PATT
  .word Label_7_013872C2
 .byte   PATT
  .word Label_7_013872BA
 .byte   PATT
  .word Label_7_013872C2
 .byte   PATT
  .word Label_7_013872BA
@ 027   ----------------------------------------
Label_7_013873D0:
 .byte   N12 ,Cs1 ,v116
 .byte   W36
 .byte   N12
 .byte   W36
 .byte   N12
 .byte   W24
 .byte   PEND 
@ 028   ----------------------------------------
Label_7_013873D9:
 .byte   W36
 .byte   N12 ,Cs1 ,v116
 .byte   W24
 .byte   N36
 .byte   W36
 .byte   PEND 
 .byte   PATT
  .word Label_7_013873D0
 .byte   PATT
  .word Label_7_013873D9
 .byte   PATT
  .word Label_7_013873D0
 .byte   PATT
  .word Label_7_013873D9
 .byte   PATT
  .word Label_7_013873D0
 .byte   PATT
  .word Label_7_013873D9
@ 029   ----------------------------------------
 .byte   W96
@ 030   ----------------------------------------
 .byte   W96
@ 031   ----------------------------------------
 .byte   W96
@ 032   ----------------------------------------
 .byte   W96
@ 033   ----------------------------------------
 .byte   GOTO
  .word Label_7_013872B0
 .byte   FINE

@**************** Track 9 (Midi-Chn.8) ****************@

songF3_009:
@ 000   ----------------------------------------
 .byte   VOL , 45*songF3_mvl/mxv
 .byte   KEYSH , songF3_key+0
Label_8_01387410:
 .byte   VOICE , 1
 .byte   W96
@ 001   ----------------------------------------
 .byte   W96
@ 002   ----------------------------------------
 .byte   W96
@ 003   ----------------------------------------
 .byte   W96
@ 004   ----------------------------------------
 .byte   W96
@ 005   ----------------------------------------
 .byte   W96
@ 006   ----------------------------------------
 .byte   W96
@ 007   ----------------------------------------
 .byte   W96
@ 008   ----------------------------------------
 .byte   W96
@ 009   ----------------------------------------
 .byte   W96
@ 010   ----------------------------------------
 .byte   W96
@ 011   ----------------------------------------
 .byte   W96
@ 012   ----------------------------------------
 .byte   W96
@ 013   ----------------------------------------
 .byte   W96
@ 014   ----------------------------------------
 .byte   W96
@ 015   ----------------------------------------
 .byte   W96
@ 016   ----------------------------------------
 .byte   W96
@ 017   ----------------------------------------
 .byte   W96
@ 018   ----------------------------------------
 .byte   W96
@ 019   ----------------------------------------
 .byte   W96
@ 020   ----------------------------------------
 .byte   W96
@ 021   ----------------------------------------
 .byte   W96
@ 022   ----------------------------------------
 .byte   W96
@ 023   ----------------------------------------
 .byte   W96
@ 024   ----------------------------------------
 .byte   W96
@ 025   ----------------------------------------
 .byte   W96
@ 026   ----------------------------------------
 .byte   W96
@ 027   ----------------------------------------
 .byte   W96
@ 028   ----------------------------------------
 .byte   W96
@ 029   ----------------------------------------
 .byte   W96
@ 030   ----------------------------------------
 .byte   W96
@ 031   ----------------------------------------
 .byte   W96
@ 032   ----------------------------------------
Label_8_01387432:
 .byte   N48 ,Gn3 ,v127
 .byte   N48 ,En4
 .byte   W48
 .byte   An3
 .byte   N48 ,Fs4
 .byte   W48
 .byte   PEND 
@ 033   ----------------------------------------
Label_8_0138743D:
 .byte   N48 ,Bn3 ,v127
 .byte   N48 ,Gn4
 .byte   W48
 .byte   Cn4
 .byte   N48 ,An4
 .byte   W48
 .byte   PEND 
@ 034   ----------------------------------------
Label_8_01387448:
 .byte   N48 ,Dn4 ,v127
 .byte   N48 ,Bn4
 .byte   W48
 .byte   En4
 .byte   N48 ,Cn5
 .byte   W48
 .byte   PEND 
@ 035   ----------------------------------------
 .byte   Fs4
 .byte   N48 ,Dn5
 .byte   W48
 .byte   Ds4
 .byte   N48 ,Cn5
 .byte   W48
@ 036   ----------------------------------------
 .byte   As3
 .byte   N48 ,As4
 .byte   W48
 .byte   An3
 .byte   N48 ,An4
 .byte   W48
@ 037   ----------------------------------------
 .byte   Dn3
 .byte   N48 ,Dn4
 .byte   W48
 .byte   As3
 .byte   N48 ,Gn4
 .byte   W48
@ 038   ----------------------------------------
 .byte   Gs3
 .byte   N48 ,Fn4
 .byte   W48
 .byte   Gn3
 .byte   N48 ,En4
 .byte   W48
@ 039   ----------------------------------------
 .byte   Dn3
 .byte   N48 ,Bn3
 .byte   W48
 .byte   Gn3
 .byte   N48 ,En4
 .byte   W48
 .byte   PATT
  .word Label_8_01387432
 .byte   PATT
  .word Label_8_0138743D
 .byte   PATT
  .word Label_8_01387448
@ 040   ----------------------------------------
 .byte   N48 ,Fs4 ,v127
 .byte   N48 ,En5
 .byte   W48
 .byte   An5
 .byte   W48
@ 041   ----------------------------------------
 .byte   Gn5
 .byte   W48
 .byte   Fn5
 .byte   W48
@ 042   ----------------------------------------
 .byte   An4
 .byte   W48
 .byte   Cn5
 .byte   W48
@ 043   ----------------------------------------
 .byte   As4
 .byte   W48
 .byte   Gs4
 .byte   W48
@ 044   ----------------------------------------
 .byte   N96 ,Dn4
 .byte   W96
@ 045   ----------------------------------------
 .byte   W96
@ 046   ----------------------------------------
 .byte   W96
@ 047   ----------------------------------------
 .byte   W72
 .byte   W72
@ 048   ----------------------------------------
 .byte   W72
 .byte   W72
@ 049   ----------------------------------------
 .byte   W72
 .byte   W72
@ 050   ----------------------------------------
 .byte   W72
 .byte   W72
@ 051   ----------------------------------------
Label_8_013874AB:
 .byte   N12 ,Cn5 ,v096
 .byte   W12
 .byte   N06 ,Gn5
 .byte   W06
 .byte   N12 ,Cn5
 .byte   W12
 .byte   N06 ,Fn5
 .byte   W06
 .byte   N12 ,Cn5
 .byte   W12
 .byte   Ds5
 .byte   W12
 .byte   Dn5
 .byte   W12
 .byte   As4
 .byte   W12
 .byte   Cn5
 .byte   W12
 .byte   PEND 
@ 052   ----------------------------------------
 .byte   N06 ,Gn5
 .byte   W06
 .byte   N12 ,Cn5
 .byte   W12
 .byte   N06 ,Fn5
 .byte   W06
 .byte   N12 ,Cn5
 .byte   W12
 .byte   Ds5
 .byte   W12
 .byte   Dn5
 .byte   W12
 .byte   As4
 .byte   W12
 .byte   Cn5
 .byte   W12
 .byte   N06 ,Gn5
 .byte   W06
 .byte   N12 ,Cn5
 .byte   W06
@ 053   ----------------------------------------
 .byte   W06
 .byte   N06 ,Fn5
 .byte   W06
 .byte   N12 ,Cn5
 .byte   W12
 .byte   Ds5
 .byte   W12
 .byte   Dn5
 .byte   W12
 .byte   As4
 .byte   W12
 .byte   Cn5
 .byte   W12
 .byte   N06 ,Gn5
 .byte   W06
 .byte   N12 ,Cn5
 .byte   W12
 .byte   N06 ,Fn5
 .byte   W06
@ 054   ----------------------------------------
 .byte   N12 ,Cn5
 .byte   W12
 .byte   Ds5
 .byte   W12
 .byte   Dn5
 .byte   W12
 .byte   As4
 .byte   W12
 .byte   Cn5
 .byte   W12
 .byte   N06 ,Gn5
 .byte   W06
 .byte   N12 ,Cn5
 .byte   W12
 .byte   N06 ,Fn5
 .byte   W06
 .byte   N12 ,Cn5
 .byte   W12
@ 055   ----------------------------------------
 .byte   Ds5
 .byte   W12
 .byte   Dn5
 .byte   W12
 .byte   As4
 .byte   W12
 .byte   Cn5
 .byte   W12
 .byte   N06 ,Gn5
 .byte   W06
 .byte   N12 ,Cn5
 .byte   W12
 .byte   N06 ,Fn5
 .byte   W06
 .byte   N12 ,Cn5
 .byte   W12
 .byte   Ds5
 .byte   W12
@ 056   ----------------------------------------
 .byte   Dn5
 .byte   W12
 .byte   As4
 .byte   W12
 .byte   Cn5
 .byte   W12
 .byte   N06 ,Gn5
 .byte   W06
 .byte   N12 ,Cn5
 .byte   W12
 .byte   N06 ,Fn5
 .byte   W06
 .byte   N12 ,Cn5
 .byte   W12
 .byte   Ds5
 .byte   W12
 .byte   Dn5
 .byte   W12
@ 057   ----------------------------------------
 .byte   As4
 .byte   W12
 .byte   Cn5
 .byte   W12
 .byte   N06 ,Gn5
 .byte   W06
 .byte   N12 ,Cn5
 .byte   W12
 .byte   N06 ,Fn5
 .byte   W06
 .byte   N12 ,Cn5
 .byte   W12
 .byte   Ds5
 .byte   W12
 .byte   Dn5
 .byte   W12
 .byte   As4
 .byte   W12
 .byte   PATT
  .word Label_8_013874AB
@ 058   ----------------------------------------
 .byte   N06 ,As4 ,v096
 .byte   W12
 .byte   Fn4
 .byte   W06
 .byte   As4
 .byte   W12
 .byte   Ds5
 .byte   W06
 .byte   N12 ,As4
 .byte   W12
 .byte   Cs5
 .byte   W12
 .byte   Cn5
 .byte   W12
 .byte   Gs4
 .byte   W12
 .byte   As4
 .byte   W12
@ 059   ----------------------------------------
 .byte   N06
 .byte   W06
 .byte   Fn4
 .byte   W06
 .byte   As4
 .byte   W06
 .byte   Ds5
 .byte   W06
 .byte   N12 ,As4
 .byte   W12
 .byte   Cs5
 .byte   W12
 .byte   Cn5
 .byte   W12
 .byte   Gs4
 .byte   W12
 .byte   As4
 .byte   W12
 .byte   N06 ,Fn4
 .byte   W06
 .byte   As4
 .byte   W06
@ 060   ----------------------------------------
 .byte   W06
 .byte   Ds5
 .byte   W06
 .byte   N12 ,As4
 .byte   W12
 .byte   Cs5
 .byte   W12
 .byte   Cn5
 .byte   W12
 .byte   Gs4
 .byte   W12
 .byte   As4
 .byte   W12
 .byte   N06
 .byte   W06
 .byte   Fn4
 .byte   W06
 .byte   As4
 .byte   W06
 .byte   Ds5
 .byte   W06
@ 061   ----------------------------------------
 .byte   N12 ,As4
 .byte   W12
 .byte   Cs5
 .byte   W12
 .byte   Cn5
 .byte   W12
 .byte   Gs4
 .byte   W12
 .byte   As4
 .byte   W12
 .byte   N06 ,Fn4
 .byte   W06
 .byte   As4
 .byte   W12
 .byte   Ds5
 .byte   W06
 .byte   N12 ,As4
 .byte   W12
@ 062   ----------------------------------------
 .byte   Cs5
 .byte   W12
 .byte   Cn5
 .byte   W12
 .byte   Gs4
 .byte   W12
 .byte   As4
 .byte   W12
 .byte   N06
 .byte   W06
 .byte   Fn4
 .byte   W06
 .byte   As4
 .byte   W06
 .byte   Ds5
 .byte   W06
 .byte   N12 ,As4
 .byte   W12
 .byte   Cs5
 .byte   W12
@ 063   ----------------------------------------
 .byte   Cn5
 .byte   W12
 .byte   Gs4
 .byte   W12
 .byte   As4
 .byte   W12
 .byte   N06 ,Fn4
 .byte   W06
 .byte   As4
 .byte   W12
 .byte   Ds5
 .byte   W06
 .byte   N12 ,As4
 .byte   W12
 .byte   Cs5
 .byte   W12
 .byte   Cn5
 .byte   W12
@ 064   ----------------------------------------
 .byte   Gs4
 .byte   W12
 .byte   As4
 .byte   W12
 .byte   N06
 .byte   W06
 .byte   Fn4
 .byte   W06
 .byte   As4
 .byte   W06
 .byte   Ds5
 .byte   W06
 .byte   N12 ,As4
 .byte   W12
 .byte   Cs5
 .byte   W12
 .byte   Cn5
 .byte   W12
 .byte   Gs4
 .byte   W12
@ 065   ----------------------------------------
 .byte   As4
 .byte   W12
 .byte   N06 ,Fn4
 .byte   W06
 .byte   As4
 .byte   W12
 .byte   Ds5
 .byte   W06
 .byte   N12 ,As4
 .byte   W12
 .byte   Cs5
 .byte   W12
 .byte   Cn5
 .byte   W12
 .byte   Gs4
 .byte   W12
 .byte   As4
 .byte   W12
@ 066   ----------------------------------------
Label_8_013875FE:
 .byte   N24 ,As4 ,v096
 .byte   N24 ,Gn5
 .byte   W24
 .byte   Gs4
 .byte   N24 ,Ds5
 .byte   W72
 .byte   PEND 
 .byte   PATT
  .word Label_8_013875FE
 .byte   PATT
  .word Label_8_013875FE
 .byte   PATT
  .word Label_8_013875FE
@ 067   ----------------------------------------
 .byte   GOTO
  .word Label_8_01387410
 .byte   FINE

@**************** Track 10 (Midi-Chn.9) ****************@

songF3_010:
@ 000   ----------------------------------------
 .byte   VOL , 45*songF3_mvl/mxv
 .byte   KEYSH , songF3_key+0
Label_9_01387624:
 .byte   VOICE , 56
 .byte   W96
@ 001   ----------------------------------------
 .byte   W96
@ 002   ----------------------------------------
 .byte   W96
@ 003   ----------------------------------------
 .byte   W96
@ 004   ----------------------------------------
 .byte   W96
@ 005   ----------------------------------------
 .byte   W96
@ 006   ----------------------------------------
 .byte   W96
@ 007   ----------------------------------------
 .byte   W96
@ 008   ----------------------------------------
 .byte   W96
@ 009   ----------------------------------------
 .byte   W96
@ 010   ----------------------------------------
 .byte   W96
@ 011   ----------------------------------------
 .byte   W96
@ 012   ----------------------------------------
 .byte   W96
@ 013   ----------------------------------------
 .byte   W96
@ 014   ----------------------------------------
 .byte   W96
@ 015   ----------------------------------------
 .byte   W96
@ 016   ----------------------------------------
 .byte   W96
@ 017   ----------------------------------------
 .byte   W96
@ 018   ----------------------------------------
 .byte   W96
@ 019   ----------------------------------------
 .byte   W96
@ 020   ----------------------------------------
 .byte   W96
@ 021   ----------------------------------------
 .byte   W96
@ 022   ----------------------------------------
 .byte   W96
@ 023   ----------------------------------------
 .byte   W96
@ 024   ----------------------------------------
 .byte   W96
@ 025   ----------------------------------------
 .byte   W96
@ 026   ----------------------------------------
 .byte   W96
@ 027   ----------------------------------------
 .byte   W96
@ 028   ----------------------------------------
 .byte   W96
@ 029   ----------------------------------------
 .byte   W96
@ 030   ----------------------------------------
 .byte   W96
@ 031   ----------------------------------------
 .byte   W96
@ 032   ----------------------------------------
 .byte   W96
@ 033   ----------------------------------------
 .byte   W96
@ 034   ----------------------------------------
 .byte   W96
@ 035   ----------------------------------------
 .byte   W96
@ 036   ----------------------------------------
 .byte   W96
@ 037   ----------------------------------------
 .byte   W96
@ 038   ----------------------------------------
 .byte   W96
@ 039   ----------------------------------------
 .byte   W96
@ 040   ----------------------------------------
 .byte   W96
@ 041   ----------------------------------------
 .byte   W96
@ 042   ----------------------------------------
 .byte   W96
@ 043   ----------------------------------------
 .byte   W96
@ 044   ----------------------------------------
 .byte   W96
@ 045   ----------------------------------------
 .byte   W96
@ 046   ----------------------------------------
 .byte   W96
@ 047   ----------------------------------------
 .byte   W96
@ 048   ----------------------------------------
 .byte   W96
@ 049   ----------------------------------------
 .byte   W96
@ 050   ----------------------------------------
 .byte   W72
 .byte   W72
@ 051   ----------------------------------------
 .byte   W72
 .byte   W72
@ 052   ----------------------------------------
Label_9_0138765C:
 .byte   N09 ,Gs4 ,v096
 .byte   W12
 .byte   N09
 .byte   W24
 .byte   Fn4
 .byte   W12
 .byte   N09
 .byte   W24
 .byte   PEND 
Label_9_01387667:
 .byte   N09 ,Fs4 ,v096
 .byte   W12
 .byte   N09
 .byte   W24
@ 053   ----------------------------------------
 .byte   An4
 .byte   W12
 .byte   N09
 .byte   W24
 .byte   PEND 
 .byte   PATT
  .word Label_9_0138765C
 .byte   PATT
  .word Label_9_01387667
@ 054   ----------------------------------------
 .byte   W96
@ 055   ----------------------------------------
 .byte   W96
@ 056   ----------------------------------------
 .byte   W96
@ 057   ----------------------------------------
 .byte   W96
@ 058   ----------------------------------------
 .byte   W96
@ 059   ----------------------------------------
 .byte   W96
@ 060   ----------------------------------------
 .byte   W96
@ 061   ----------------------------------------
 .byte   W96
@ 062   ----------------------------------------
 .byte   W96
@ 063   ----------------------------------------
 .byte   W96
@ 064   ----------------------------------------
 .byte   W96
@ 065   ----------------------------------------
 .byte   W96
@ 066   ----------------------------------------
 .byte   W96
@ 067   ----------------------------------------
 .byte   W96
@ 068   ----------------------------------------
 .byte   W96
@ 069   ----------------------------------------
 .byte   W96
@ 070   ----------------------------------------
 .byte   W96
@ 071   ----------------------------------------
 .byte   W96
@ 072   ----------------------------------------
 .byte   W96
@ 073   ----------------------------------------
 .byte   W96
@ 074   ----------------------------------------
 .byte   GOTO
  .word Label_9_01387624
 .byte   FINE

@******************************************************@
	.align	2

songF3:
	.byte	10	@ NumTrks
	.byte	0	@ NumBlks
	.byte	songF3_pri	@ Priority
	.byte	songF3_rev	@ Reverb.
    
	.word	songF3_grp
    
	.word	songF3_001
	.word	songF3_002
	.word	songF3_003
	.word	songF3_004
	.word	songF3_005
	.word	songF3_006
	.word	songF3_007
	.word	songF3_008
	.word	songF3_009
	.word	songF3_010

	.end
