	.include "MPlayDef.s"

	.equ	song16_grp, voicegroup000
	.equ	song16_pri, 0
	.equ	song16_rev, 0
	.equ	song16_mvl, 127
	.equ	song16_key, 0
	.equ	song16_tbs, 1
	.equ	song16_exg, 0
	.equ	song16_cmp, 1

	.section .rodata
	.global	song16
	.align	2


@**************** Track 1 (Midi-Chn.0) ****************@

song16_001:
@ 000   ----------------------------------------
 .byte   KEYSH , song16_key+0
Label_0_0144CDDE:
 .byte   TEMPO , 240*song16_tbs/2
 .byte   VOICE , 41
 .byte   MODT 0
 .byte   CnM2
 .byte   LFOS 0
 .byte   Gs1
 .byte   VOL , 39*song16_mvl/mxv
 .byte   PAN , c_v+0
 .byte   VOL , 18*song16_mvl/mxv
 .byte   N60 ,Bn3 ,v088
 .byte   W24
 .byte   TEMPO , 200*song16_tbs/2
 .byte   W36
 .byte   N12 ,Cn4
 .byte   W12
 .byte   Dn4
 .byte   W12
 .byte   En4
 .byte   W12
@ 001   ----------------------------------------
Label_0_0144CDFA:
 .byte   N48 ,Bn3 ,v088
 .byte   W48
 .byte   N24 ,Gn3
 .byte   W24
 .byte   Bn3
 .byte   W24
 .byte   PEND 
@ 002   ----------------------------------------
Label_0_0144CE04:
 .byte   N36 ,An3 ,v088
 .byte   W36
 .byte   Bn3
 .byte   W36
 .byte   N24 ,Cn4
 .byte   W24
 .byte   PEND 
@ 003   ----------------------------------------
Label_0_0144CE0E:
 .byte   N36 ,Bn3 ,v088
 .byte   W36
 .byte   Ds4
 .byte   W36
 .byte   N24 ,Fs4
 .byte   W24
 .byte   PEND 
@ 004   ----------------------------------------
Label_0_0144CE18:
 .byte   N48 ,Gn4 ,v088
 .byte   W48
 .byte   N24 ,En4
 .byte   W24
 .byte   Gn4
 .byte   W24
 .byte   PEND 
@ 005   ----------------------------------------
Label_0_0144CE22:
 .byte   N48 ,Fs4 ,v088
 .byte   W48
 .byte   Dn4
 .byte   W48
 .byte   PEND 
@ 006   ----------------------------------------
Label_0_0144CE29:
 .byte   N48 ,Bn3 ,v088
 .byte   W48
 .byte   N15
 .byte   W15
 .byte   N16 ,Cn4
 .byte   W17
 .byte   N15 ,Dn4
 .byte   W16
 .byte   PEND 
@ 007   ----------------------------------------
 .byte   N96 ,Bn3
 .byte   W96
@ 008   ----------------------------------------
Label_0_0144CE39:
 .byte   N60 ,Bn3 ,v088
 .byte   W60
 .byte   N12 ,Cn4
 .byte   W12
 .byte   Dn4
 .byte   W12
 .byte   En4
 .byte   W12
 .byte   PEND 
 .byte   PATT
  .word Label_0_0144CDFA
 .byte   PATT
  .word Label_0_0144CE04
 .byte   PATT
  .word Label_0_0144CE0E
 .byte   PATT
  .word Label_0_0144CE18
 .byte   PATT
  .word Label_0_0144CE22
@ 009   ----------------------------------------
Label_0_0144CE5E:
 .byte   N48 ,Cn4 ,v088
 .byte   W48
 .byte   N15
 .byte   W15
 .byte   N16 ,Dn4
 .byte   W17
 .byte   N15 ,En4
 .byte   W16
 .byte   PEND 
@ 010   ----------------------------------------
Label_0_0144CE6B:
 .byte   N48 ,Fs4 ,v088
 .byte   W48
 .byte   Bn3
 .byte   W48
 .byte   PEND 
@ 011   ----------------------------------------
 .byte   VOL , 25*song16_mvl/mxv
 .byte   N48 ,Cs4
 .byte   W48
 .byte   N24 ,Bn3
 .byte   W24
 .byte   En4
 .byte   W24
@ 012   ----------------------------------------
 .byte   N60 ,Cs4
 .byte   W60
 .byte   N12 ,Bn3
 .byte   W12
 .byte   An3
 .byte   W12
 .byte   Bn3
 .byte   W12
@ 013   ----------------------------------------
 .byte   N36 ,Cn4
 .byte   W36
 .byte   Bn3
 .byte   W36
 .byte   N24 ,Gn3
 .byte   W24
@ 014   ----------------------------------------
 .byte   N96 ,An3
 .byte   W96
@ 015   ----------------------------------------
 .byte   N48 ,Dn4
 .byte   W48
 .byte   N15
 .byte   W15
 .byte   N16 ,Cn4
 .byte   W17
 .byte   N15 ,As3
 .byte   W16
@ 016   ----------------------------------------
 .byte   An3
 .byte   W15
 .byte   N16 ,As3
 .byte   W17
 .byte   N15 ,Cn4
 .byte   W16
 .byte   N48 ,Dn4
 .byte   W48
@ 017   ----------------------------------------
Label_0_0144CEA7:
 .byte   N36 ,Gn3 ,v088
 .byte   W36
 .byte   An3
 .byte   W36
 .byte   Bn3
 .byte   W24
 .byte   PEND 
@ 018   ----------------------------------------
Label_0_0144CEB0:
 .byte   W12
 .byte   N36 ,Gn4 ,v088
 .byte   W36
 .byte   N24 ,Fs4
 .byte   W24
 .byte   En4
 .byte   W24
 .byte   PEND 
@ 019   ----------------------------------------
Label_0_0144CEBB:
 .byte   N36 ,Dn4 ,v088
 .byte   W36
 .byte   En4
 .byte   W36
 .byte   TIE ,Bn3
 .byte   W24
 .byte   PEND 
@ 020   ----------------------------------------
 .byte   W96
@ 021   ----------------------------------------
 .byte   EOT
 .byte   N96 ,En3
 .byte   W96
@ 022   ----------------------------------------
Label_0_0144CECA:
 .byte   N48 ,Dn3 ,v088
 .byte   W48
 .byte   En3
 .byte   W48
 .byte   PEND 
@ 023   ----------------------------------------
Label_0_0144CED1:
 .byte   N36 ,Ds3 ,v088
 .byte   W36
 .byte   Bn2
 .byte   W36
 .byte   N24 ,Fs2
 .byte   W24
 .byte   PEND 
@ 024   ----------------------------------------
Label_0_0144CEDB:
 .byte   N36 ,Ds2 ,v088
 .byte   W36
 .byte   En2
 .byte   W36
 .byte   N24 ,Fs2
 .byte   W24
 .byte   PEND 
 .byte   PATT
  .word Label_0_0144CEA7
 .byte   PATT
  .word Label_0_0144CEB0
 .byte   PATT
  .word Label_0_0144CEBB
@ 025   ----------------------------------------
 .byte   W96
@ 026   ----------------------------------------
 .byte   EOT
 .byte   Bn3
 .byte   N96 ,En3 ,v088
 .byte   W96
 .byte   PATT
  .word Label_0_0144CECA
 .byte   PATT
  .word Label_0_0144CED1
 .byte   PATT
  .word Label_0_0144CEDB
@ 027   ----------------------------------------
 .byte   VOL , 18*song16_mvl/mxv
 .byte   N60 ,Bn3 ,v088
 .byte   W60
 .byte   N12 ,Cn4
 .byte   W12
 .byte   Dn4
 .byte   W12
 .byte   En4
 .byte   W12
 .byte   PATT
  .word Label_0_0144CDFA
 .byte   PATT
  .word Label_0_0144CE04
 .byte   PATT
  .word Label_0_0144CE0E
 .byte   PATT
  .word Label_0_0144CE18
 .byte   PATT
  .word Label_0_0144CE22
 .byte   PATT
  .word Label_0_0144CE29
@ 028   ----------------------------------------
 .byte   N96 ,Bn3 ,v088
 .byte   W96
 .byte   PATT
  .word Label_0_0144CE39
 .byte   PATT
  .word Label_0_0144CDFA
 .byte   PATT
  .word Label_0_0144CE04
 .byte   PATT
  .word Label_0_0144CE0E
 .byte   PATT
  .word Label_0_0144CE18
 .byte   PATT
  .word Label_0_0144CE22
 .byte   PATT
  .word Label_0_0144CE5E
 .byte   PATT
  .word Label_0_0144CE6B
@ 029   ----------------------------------------
 .byte   VOL , 14*song16_mvl/mxv
 .byte   N12 ,Cn3 ,v088
 .byte   W36
 .byte   N12
 .byte   W36
 .byte   N24
 .byte   W24
@ 030   ----------------------------------------
Label_0_0144CF6B:
 .byte   N12 ,Dn3 ,v088
 .byte   W36
 .byte   N12
 .byte   W24
 .byte   N12
 .byte   W36
 .byte   PEND 
@ 031   ----------------------------------------
Label_0_0144CF74:
 .byte   N12 ,En3 ,v088
 .byte   W36
 .byte   N12
 .byte   W36
 .byte   N24
 .byte   W24
 .byte   PEND 
@ 032   ----------------------------------------
Label_0_0144CF7D:
 .byte   N12 ,En3 ,v088
 .byte   W36
 .byte   N12
 .byte   W36
 .byte   N12
 .byte   W12
 .byte   N12
 .byte   W12
 .byte   PEND 
@ 033   ----------------------------------------
Label_0_0144CF88:
 .byte   N12 ,Cn3 ,v088
 .byte   W36
 .byte   N12
 .byte   W24
 .byte   N12
 .byte   W36
 .byte   PEND 
 .byte   PATT
  .word Label_0_0144CF6B
 .byte   PATT
  .word Label_0_0144CF74
 .byte   PATT
  .word Label_0_0144CF74
@ 034   ----------------------------------------
 .byte   N12 ,Cn3 ,v088
 .byte   W36
 .byte   N12
 .byte   W36
 .byte   N24
 .byte   W24
 .byte   PATT
  .word Label_0_0144CF6B
 .byte   PATT
  .word Label_0_0144CF74
 .byte   PATT
  .word Label_0_0144CF7D
 .byte   PATT
  .word Label_0_0144CF88
 .byte   PATT
  .word Label_0_0144CF6B
 .byte   PATT
  .word Label_0_0144CF74
 .byte   PATT
  .word Label_0_0144CF74
@ 035   ----------------------------------------
 .byte   GOTO
  .word Label_0_0144CDDE
 .byte   FINE

@**************** Track 2 (Midi-Chn.1) ****************@

song16_002:
@ 000   ----------------------------------------
 .byte   KEYSH , song16_key+0
Label_1_0144CFD6:
 .byte   VOICE , 41
 .byte   MODT 0
 .byte   CnM2
 .byte   LFOS 0
 .byte   Gs1
 .byte   VOL , 33*song16_mvl/mxv
 .byte   PAN , c_v+0
 .byte   VOL , 22*song16_mvl/mxv
 .byte   N96 ,Gn3 ,v088
 .byte   W96
@ 001   ----------------------------------------
 .byte   N96
 .byte   W96
@ 002   ----------------------------------------
 .byte   An3
 .byte   W96
@ 003   ----------------------------------------
 .byte   Bn3
 .byte   W96
@ 004   ----------------------------------------
 .byte   Gn3
 .byte   W96
@ 005   ----------------------------------------
 .byte   An3
 .byte   W96
@ 006   ----------------------------------------
 .byte   N96
 .byte   W96
@ 007   ----------------------------------------
Label_1_0144CFF2:
 .byte   N48 ,An3 ,v088
 .byte   W48
 .byte   Cn4
 .byte   W48
 .byte   PEND 
@ 008   ----------------------------------------
 .byte   N96 ,Gn3
 .byte   W96
@ 009   ----------------------------------------
 .byte   N96
 .byte   W96
@ 010   ----------------------------------------
 .byte   An3
 .byte   W96
@ 011   ----------------------------------------
 .byte   Bn3
 .byte   W96
@ 012   ----------------------------------------
 .byte   Gn3
 .byte   W96
@ 013   ----------------------------------------
 .byte   An3
 .byte   W96
@ 014   ----------------------------------------
 .byte   Gn3
 .byte   W96
@ 015   ----------------------------------------
Label_1_0144D008:
 .byte   N48 ,Bn2 ,v088
 .byte   W48
 .byte   Bn3
 .byte   W48
 .byte   PEND 
@ 016   ----------------------------------------
 .byte   TIE ,Fs3
 .byte   W96
@ 017   ----------------------------------------
 .byte   W96
@ 018   ----------------------------------------
 .byte   EOT
 .byte   TIE ,An3
 .byte   W96
@ 019   ----------------------------------------
 .byte   W96
@ 020   ----------------------------------------
 .byte   EOT
 .byte   TIE ,Dn3
 .byte   W96
@ 021   ----------------------------------------
 .byte   W96
@ 022   ----------------------------------------
 .byte   EOT
 .byte   TIE ,Gn3
 .byte   W96
@ 023   ----------------------------------------
 .byte   W96
@ 024   ----------------------------------------
 .byte   EOT
 .byte   TIE
 .byte   W96
@ 025   ----------------------------------------
 .byte   W96
@ 026   ----------------------------------------
 .byte   EOT
 .byte   TIE ,An3
 .byte   W96
@ 027   ----------------------------------------
 .byte   W96
@ 028   ----------------------------------------
 .byte   EOT
 .byte   TIE ,Bn3
 .byte   W96
@ 029   ----------------------------------------
 .byte   W96
@ 030   ----------------------------------------
 .byte   EOT
 .byte   TIE ,Gn3
 .byte   W96
@ 031   ----------------------------------------
 .byte   W96
@ 032   ----------------------------------------
 .byte   EOT
 .byte   TIE
 .byte   W96
@ 033   ----------------------------------------
 .byte   W96
@ 034   ----------------------------------------
 .byte   EOT
 .byte   TIE ,An3
 .byte   W96
@ 035   ----------------------------------------
 .byte   W96
@ 036   ----------------------------------------
 .byte   EOT
 .byte   TIE ,Bn3
 .byte   W96
@ 037   ----------------------------------------
 .byte   W96
@ 038   ----------------------------------------
 .byte   EOT
 .byte   N96 ,Gn3
 .byte   W96
@ 039   ----------------------------------------
 .byte   N96
 .byte   W96
@ 040   ----------------------------------------
 .byte   An3
 .byte   W96
@ 041   ----------------------------------------
 .byte   Bn3
 .byte   W96
@ 042   ----------------------------------------
 .byte   Gn3
 .byte   W96
@ 043   ----------------------------------------
 .byte   An3
 .byte   W96
@ 044   ----------------------------------------
 .byte   N96
 .byte   W96
 .byte   PATT
  .word Label_1_0144CFF2
@ 045   ----------------------------------------
 .byte   N96 ,Gn3 ,v088
 .byte   W96
@ 046   ----------------------------------------
 .byte   N96
 .byte   W96
@ 047   ----------------------------------------
 .byte   An3
 .byte   W96
@ 048   ----------------------------------------
 .byte   Bn3
 .byte   W96
@ 049   ----------------------------------------
 .byte   Gn3
 .byte   W96
@ 050   ----------------------------------------
 .byte   An3
 .byte   W96
@ 051   ----------------------------------------
 .byte   Gn3
 .byte   W96
 .byte   PATT
  .word Label_1_0144D008
@ 052   ----------------------------------------
 .byte   N96 ,Cn4 ,v088
 .byte   W96
@ 053   ----------------------------------------
 .byte   Dn4
 .byte   W96
@ 054   ----------------------------------------
 .byte   TIE ,En4
 .byte   W96
@ 055   ----------------------------------------
 .byte   W96
@ 056   ----------------------------------------
 .byte   EOT
Label_1_0144D078:
 .byte   N84 ,Cn4 ,v088
 .byte   W84
 .byte   TIE ,An3
 .byte   W12
 .byte   PEND 
@ 057   ----------------------------------------
 .byte   W96
@ 058   ----------------------------------------
 .byte   EOT
 .byte   TIE ,En4
 .byte   W96
@ 059   ----------------------------------------
 .byte   W96
@ 060   ----------------------------------------
 .byte   EOT
 .byte   N96 ,Cn4
 .byte   W96
@ 061   ----------------------------------------
 .byte   Dn4
 .byte   W96
@ 062   ----------------------------------------
 .byte   TIE ,En4
 .byte   W96
@ 063   ----------------------------------------
 .byte   W96
@ 064   ----------------------------------------
 .byte   EOT
 .byte   PATT
  .word Label_1_0144D078
@ 065   ----------------------------------------
 .byte   W96
@ 066   ----------------------------------------
 .byte   EOT
 .byte   An3
 .byte   TIE ,En4 ,v088
 .byte   W96
@ 067   ----------------------------------------
 .byte   W96
@ 068   ----------------------------------------
 .byte   EOT
 .byte   GOTO
  .word Label_1_0144CFD6
 .byte   FINE

@**************** Track 3 (Midi-Chn.2) ****************@

song16_003:
@ 000   ----------------------------------------
 .byte   KEYSH , song16_key+0
Label_2_0144D0AA:
 .byte   VOICE , 41
 .byte   MODT 0
 .byte   CnM2
 .byte   LFOS 0
 .byte   Gs1
 .byte   VOL , 33*song16_mvl/mxv
 .byte   PAN , c_v+0
 .byte   VOL , 22*song16_mvl/mxv
 .byte   N96 ,En3 ,v088
 .byte   W96
@ 001   ----------------------------------------
 .byte   N96
 .byte   W96
@ 002   ----------------------------------------
 .byte   Dn3
 .byte   W96
@ 003   ----------------------------------------
 .byte   En3
 .byte   W96
@ 004   ----------------------------------------
 .byte   N96
 .byte   W96
@ 005   ----------------------------------------
 .byte   Dn3
 .byte   W96
@ 006   ----------------------------------------
 .byte   N96
 .byte   W96
@ 007   ----------------------------------------
Label_2_0144D0C6:
 .byte   N48 ,Dn3 ,v088
 .byte   W48
 .byte   An3
 .byte   W48
 .byte   PEND 
@ 008   ----------------------------------------
 .byte   N96 ,En3
 .byte   W96
@ 009   ----------------------------------------
 .byte   N96
 .byte   W96
@ 010   ----------------------------------------
 .byte   Dn3
 .byte   W96
@ 011   ----------------------------------------
 .byte   En3
 .byte   W96
@ 012   ----------------------------------------
 .byte   N96
 .byte   W96
@ 013   ----------------------------------------
 .byte   Dn3
 .byte   W96
@ 014   ----------------------------------------
 .byte   En3
 .byte   W96
@ 015   ----------------------------------------
Label_2_0144D0DC:
 .byte   N48 ,Ds3 ,v088
 .byte   W48
 .byte   N48
 .byte   W48
 .byte   PEND 
@ 016   ----------------------------------------
 .byte   TIE ,Cs3
 .byte   W96
@ 017   ----------------------------------------
 .byte   W96
@ 018   ----------------------------------------
 .byte   EOT
 .byte   TIE ,En3
 .byte   W96
@ 019   ----------------------------------------
 .byte   W96
@ 020   ----------------------------------------
 .byte   EOT
 .byte   TIE ,Gn3
 .byte   W96
@ 021   ----------------------------------------
 .byte   W96
@ 022   ----------------------------------------
 .byte   EOT
 .byte   TIE ,En3
 .byte   W96
@ 023   ----------------------------------------
 .byte   W96
@ 024   ----------------------------------------
 .byte   EOT
 .byte   TIE
 .byte   W96
@ 025   ----------------------------------------
 .byte   W96
@ 026   ----------------------------------------
 .byte   EOT
 .byte   TIE ,Cn3
 .byte   W96
@ 027   ----------------------------------------
 .byte   W96
@ 028   ----------------------------------------
 .byte   EOT
 .byte   TIE ,Bn2
 .byte   W96
@ 029   ----------------------------------------
 .byte   W96
@ 030   ----------------------------------------
 .byte   EOT
 .byte   TIE ,En3
 .byte   W96
@ 031   ----------------------------------------
 .byte   W96
@ 032   ----------------------------------------
 .byte   EOT
 .byte   TIE
 .byte   W96
@ 033   ----------------------------------------
 .byte   W96
@ 034   ----------------------------------------
 .byte   EOT
 .byte   TIE
 .byte   W96
@ 035   ----------------------------------------
 .byte   W96
@ 036   ----------------------------------------
 .byte   EOT
 .byte   TIE ,Bn2
 .byte   W96
@ 037   ----------------------------------------
 .byte   W96
@ 038   ----------------------------------------
 .byte   EOT
 .byte   N96 ,En3
 .byte   W96
@ 039   ----------------------------------------
 .byte   N96
 .byte   W96
@ 040   ----------------------------------------
 .byte   Dn3
 .byte   W96
@ 041   ----------------------------------------
 .byte   En3
 .byte   W96
@ 042   ----------------------------------------
 .byte   N96
 .byte   W96
@ 043   ----------------------------------------
 .byte   Dn3
 .byte   W96
@ 044   ----------------------------------------
 .byte   N96
 .byte   W96
 .byte   PATT
  .word Label_2_0144D0C6
@ 045   ----------------------------------------
 .byte   N96 ,En3 ,v088
 .byte   W96
@ 046   ----------------------------------------
 .byte   N96
 .byte   W96
@ 047   ----------------------------------------
 .byte   Dn3
 .byte   W96
@ 048   ----------------------------------------
 .byte   En3
 .byte   W96
@ 049   ----------------------------------------
 .byte   N96
 .byte   W96
@ 050   ----------------------------------------
 .byte   Dn3
 .byte   W96
@ 051   ----------------------------------------
 .byte   En3
 .byte   W96
 .byte   PATT
  .word Label_2_0144D0DC
@ 052   ----------------------------------------
 .byte   N96 ,Gn3 ,v088
 .byte   W96
@ 053   ----------------------------------------
 .byte   An3
 .byte   W96
@ 054   ----------------------------------------
 .byte   TIE ,Bn3
 .byte   W96
@ 055   ----------------------------------------
 .byte   W96
@ 056   ----------------------------------------
 .byte   EOT
Label_2_0144D14B:
 .byte   N84 ,Gn3 ,v088
 .byte   W84
 .byte   TIE ,Dn4
 .byte   W12
 .byte   PEND 
@ 057   ----------------------------------------
 .byte   W96
@ 058   ----------------------------------------
 .byte   EOT
 .byte   TIE ,Bn3
 .byte   W96
@ 059   ----------------------------------------
 .byte   W96
@ 060   ----------------------------------------
 .byte   EOT
 .byte   N96 ,Gn3
 .byte   W96
@ 061   ----------------------------------------
 .byte   An3
 .byte   W96
@ 062   ----------------------------------------
 .byte   TIE ,Bn3
 .byte   W96
@ 063   ----------------------------------------
 .byte   W96
@ 064   ----------------------------------------
 .byte   EOT
 .byte   PATT
  .word Label_2_0144D14B
@ 065   ----------------------------------------
 .byte   W96
@ 066   ----------------------------------------
 .byte   EOT
 .byte   Dn4
 .byte   TIE ,Bn3 ,v088
 .byte   W96
@ 067   ----------------------------------------
 .byte   W96
@ 068   ----------------------------------------
 .byte   EOT
 .byte   GOTO
  .word Label_2_0144D0AA
 .byte   FINE

@**************** Track 4 (Midi-Chn.3) ****************@

song16_004:
@ 000   ----------------------------------------
 .byte   KEYSH , song16_key+0
Label_3_0144D17A:
 .byte   VOICE , 40
 .byte   MODT 0
 .byte   CnM2
 .byte   LFOS 0
 .byte   Gs1
 .byte   VOL , 33*song16_mvl/mxv
 .byte   PAN , c_v+0
 .byte   VOL , 22*song16_mvl/mxv
 .byte   N96 ,Bn2 ,v088
 .byte   W96
@ 001   ----------------------------------------
 .byte   Cn3
 .byte   W96
@ 002   ----------------------------------------
 .byte   Fs3
 .byte   W96
@ 003   ----------------------------------------
 .byte   N96
 .byte   W96
@ 004   ----------------------------------------
 .byte   Bn2
 .byte   W96
@ 005   ----------------------------------------
 .byte   Fs3
 .byte   W96
@ 006   ----------------------------------------
 .byte   N96
 .byte   W96
@ 007   ----------------------------------------
Label_3_0144D196:
 .byte   N48 ,Fs3 ,v088
 .byte   W48
 .byte   N48
 .byte   W48
 .byte   PEND 
@ 008   ----------------------------------------
 .byte   N96 ,Bn2
 .byte   W96
@ 009   ----------------------------------------
 .byte   Cn3
 .byte   W96
@ 010   ----------------------------------------
 .byte   Fs3
 .byte   W96
@ 011   ----------------------------------------
 .byte   N96
 .byte   W96
@ 012   ----------------------------------------
 .byte   Bn2
 .byte   W96
@ 013   ----------------------------------------
 .byte   Fs3
 .byte   W96
@ 014   ----------------------------------------
 .byte   Cn3
 .byte   W96
 .byte   PATT
  .word Label_3_0144D196
@ 015   ----------------------------------------
 .byte   TIE ,An2 ,v088
 .byte   W96
@ 016   ----------------------------------------
 .byte   W96
@ 017   ----------------------------------------
 .byte   EOT
 .byte   TIE ,Cn3
 .byte   W96
@ 018   ----------------------------------------
 .byte   W96
@ 019   ----------------------------------------
 .byte   EOT
 .byte   TIE ,As2
 .byte   W96
@ 020   ----------------------------------------
 .byte   W96
@ 021   ----------------------------------------
 .byte   EOT
 .byte   TIE ,Bn2
 .byte   W96
@ 022   ----------------------------------------
 .byte   W96
@ 023   ----------------------------------------
 .byte   EOT
 .byte   TIE
 .byte   W96
@ 024   ----------------------------------------
 .byte   W96
@ 025   ----------------------------------------
 .byte   EOT
 .byte   TIE ,En3
 .byte   W96
@ 026   ----------------------------------------
 .byte   W96
@ 027   ----------------------------------------
 .byte   EOT
 .byte   TIE ,Fs3
 .byte   W96
@ 028   ----------------------------------------
 .byte   W96
@ 029   ----------------------------------------
 .byte   EOT
 .byte   TIE ,Bn2
 .byte   W96
@ 030   ----------------------------------------
 .byte   W96
@ 031   ----------------------------------------
 .byte   EOT
 .byte   TIE
 .byte   W96
@ 032   ----------------------------------------
 .byte   W96
@ 033   ----------------------------------------
 .byte   EOT
 .byte   TIE ,Cn3
 .byte   W96
@ 034   ----------------------------------------
 .byte   W96
@ 035   ----------------------------------------
 .byte   EOT
 .byte   TIE ,Fs3
 .byte   W96
@ 036   ----------------------------------------
 .byte   W96
@ 037   ----------------------------------------
 .byte   EOT
 .byte   N96 ,Bn2
 .byte   W96
@ 038   ----------------------------------------
 .byte   Cn3
 .byte   W96
@ 039   ----------------------------------------
 .byte   Fs3
 .byte   W96
@ 040   ----------------------------------------
 .byte   N96
 .byte   W96
@ 041   ----------------------------------------
 .byte   Bn2
 .byte   W96
@ 042   ----------------------------------------
 .byte   Fs3
 .byte   W96
@ 043   ----------------------------------------
 .byte   N96
 .byte   W96
 .byte   PATT
  .word Label_3_0144D196
@ 044   ----------------------------------------
 .byte   N96 ,Bn2 ,v088
 .byte   W96
@ 045   ----------------------------------------
 .byte   Cn3
 .byte   W96
@ 046   ----------------------------------------
 .byte   Fs3
 .byte   W96
@ 047   ----------------------------------------
 .byte   N96
 .byte   W96
@ 048   ----------------------------------------
 .byte   Bn2
 .byte   W96
@ 049   ----------------------------------------
 .byte   Fs3
 .byte   W96
@ 050   ----------------------------------------
 .byte   Cn3
 .byte   W96
 .byte   PATT
  .word Label_3_0144D196
@ 051   ----------------------------------------
 .byte   N96 ,En3 ,v088
 .byte   W96
@ 052   ----------------------------------------
 .byte   Fs3
 .byte   W96
@ 053   ----------------------------------------
 .byte   TIE ,Gn3
 .byte   W96
@ 054   ----------------------------------------
 .byte   W96
@ 055   ----------------------------------------
 .byte   EOT
Label_3_0144D21B:
 .byte   N84 ,En3 ,v088
 .byte   W84
 .byte   TIE ,Fs3
 .byte   W12
 .byte   PEND 
@ 056   ----------------------------------------
 .byte   W96
@ 057   ----------------------------------------
 .byte   EOT
 .byte   TIE ,Gn3
 .byte   W96
@ 058   ----------------------------------------
 .byte   W96
@ 059   ----------------------------------------
 .byte   EOT
 .byte   N96 ,En3
 .byte   W96
@ 060   ----------------------------------------
 .byte   Fs3
 .byte   W96
@ 061   ----------------------------------------
 .byte   TIE ,Gn3
 .byte   W96
@ 062   ----------------------------------------
 .byte   W96
@ 063   ----------------------------------------
 .byte   EOT
 .byte   PATT
  .word Label_3_0144D21B
@ 064   ----------------------------------------
 .byte   W96
@ 065   ----------------------------------------
 .byte   EOT
 .byte   Fs3
 .byte   TIE ,Gn3 ,v088
 .byte   W96
@ 066   ----------------------------------------
 .byte   W96
@ 067   ----------------------------------------
 .byte   EOT
 .byte   GOTO
  .word Label_3_0144D17A
 .byte   FINE

@**************** Track 5 (Midi-Chn.4) ****************@

song16_005:
@ 000   ----------------------------------------
 .byte   KEYSH , song16_key+0
Label_4_0144D24A:
 .byte   VOICE , 41
 .byte   MODT 0
 .byte   CnM2
 .byte   LFOS 0
 .byte   Gs1
 .byte   VOL , 45*song16_mvl/mxv
 .byte   PAN , c_v+0
 .byte   VOL , 28*song16_mvl/mxv
 .byte   W96
@ 001   ----------------------------------------
 .byte   W96
@ 002   ----------------------------------------
 .byte   W96
@ 003   ----------------------------------------
 .byte   W96
@ 004   ----------------------------------------
 .byte   W96
@ 005   ----------------------------------------
 .byte   W96
@ 006   ----------------------------------------
 .byte   W96
@ 007   ----------------------------------------
 .byte   W96
@ 008   ----------------------------------------
 .byte   W96
@ 009   ----------------------------------------
 .byte   W96
@ 010   ----------------------------------------
 .byte   W96
@ 011   ----------------------------------------
 .byte   W96
@ 012   ----------------------------------------
 .byte   W96
@ 013   ----------------------------------------
 .byte   W96
@ 014   ----------------------------------------
 .byte   W96
@ 015   ----------------------------------------
 .byte   W96
@ 016   ----------------------------------------
 .byte   W96
@ 017   ----------------------------------------
 .byte   W96
@ 018   ----------------------------------------
 .byte   W96
@ 019   ----------------------------------------
 .byte   W96
@ 020   ----------------------------------------
 .byte   W96
@ 021   ----------------------------------------
 .byte   W96
@ 022   ----------------------------------------
 .byte   N36 ,En3 ,v088
 .byte   W36
 .byte   Fs3
 .byte   W36
 .byte   Gn3
 .byte   W24
@ 023   ----------------------------------------
 .byte   W12
 .byte   N84
 .byte   W84
@ 024   ----------------------------------------
 .byte   N36 ,An3
 .byte   W36
 .byte   En4
 .byte   W36
 .byte   TIE ,En3
 .byte   W24
@ 025   ----------------------------------------
 .byte   W96
@ 026   ----------------------------------------
 .byte   EOT
 .byte   N96
 .byte   W96
@ 027   ----------------------------------------
Label_4_0144D283:
 .byte   N48 ,Dn3 ,v088
 .byte   W48
 .byte   En3
 .byte   W48
 .byte   PEND 
@ 028   ----------------------------------------
 .byte   N36 ,Fs4
 .byte   W36
 .byte   Gn4
 .byte   W36
 .byte   N24 ,An4
 .byte   W24
@ 029   ----------------------------------------
 .byte   N48 ,Bn4
 .byte   W48
 .byte   Ds4
 .byte   W48
@ 030   ----------------------------------------
 .byte   N36 ,En3
 .byte   W36
 .byte   An3
 .byte   W36
 .byte   Bn3
 .byte   W24
@ 031   ----------------------------------------
 .byte   W12
 .byte   Gn4
 .byte   W36
 .byte   N24 ,Fs4
 .byte   W24
 .byte   En4
 .byte   W24
@ 032   ----------------------------------------
 .byte   N36 ,An3
 .byte   W36
 .byte   Bn3
 .byte   W36
 .byte   TIE ,En3
 .byte   W24
@ 033   ----------------------------------------
 .byte   W96
@ 034   ----------------------------------------
 .byte   EOT
 .byte   N96
 .byte   W96
 .byte   PATT
  .word Label_4_0144D283
@ 035   ----------------------------------------
 .byte   TIE ,Ds3 ,v088
 .byte   W96
@ 036   ----------------------------------------
 .byte   W96
@ 037   ----------------------------------------
 .byte   EOT
 .byte   W96
@ 038   ----------------------------------------
 .byte   W96
@ 039   ----------------------------------------
 .byte   W96
@ 040   ----------------------------------------
 .byte   W96
@ 041   ----------------------------------------
 .byte   W96
@ 042   ----------------------------------------
 .byte   W96
@ 043   ----------------------------------------
 .byte   W96
@ 044   ----------------------------------------
 .byte   W96
@ 045   ----------------------------------------
 .byte   W96
@ 046   ----------------------------------------
 .byte   W96
@ 047   ----------------------------------------
 .byte   W96
@ 048   ----------------------------------------
 .byte   W96
@ 049   ----------------------------------------
 .byte   W96
@ 050   ----------------------------------------
 .byte   W96
@ 051   ----------------------------------------
 .byte   W96
@ 052   ----------------------------------------
 .byte   W96
@ 053   ----------------------------------------
Label_4_0144D2CD:
 .byte   N60 ,Cn3 ,v088
 .byte   W60
 .byte   N12 ,Bn2
 .byte   W12
 .byte   An2
 .byte   W12
 .byte   Gn2
 .byte   W12
 .byte   PEND 
@ 054   ----------------------------------------
Label_4_0144D2D9:
 .byte   N48 ,An2 ,v088
 .byte   W48
 .byte   Dn3
 .byte   W48
 .byte   PEND 
@ 055   ----------------------------------------
Label_4_0144D2E0:
 .byte   N36 ,En3 ,v088
 .byte   W36
 .byte   N60 ,Bn2
 .byte   W60
 .byte   PEND 
@ 056   ----------------------------------------
Label_4_0144D2E8:
 .byte   N12 ,An2 ,v088
 .byte   W12
 .byte   Bn2
 .byte   W12
 .byte   An2
 .byte   W12
 .byte   Gn2
 .byte   W12
 .byte   Fs2
 .byte   W12
 .byte   Gn2
 .byte   W12
 .byte   An2
 .byte   W12
 .byte   Bn2
 .byte   W12
 .byte   PEND 
@ 057   ----------------------------------------
Label_4_0144D2FB:
 .byte   N48 ,Cn3 ,v088
 .byte   W48
 .byte   N24 ,En3
 .byte   W24
 .byte   N12 ,Cn3
 .byte   W12
 .byte   N72 ,Dn3
 .byte   W12
 .byte   PEND 
@ 058   ----------------------------------------
Label_4_0144D309:
 .byte   W60
 .byte   N12 ,Gn3 ,v088
 .byte   W12
 .byte   Fs3
 .byte   W12
 .byte   Dn3
 .byte   W12
 .byte   PEND 
@ 059   ----------------------------------------
 .byte   N96 ,En3
 .byte   W96
@ 060   ----------------------------------------
Label_4_0144D316:
 .byte   N36 ,Gs2 ,v088
 .byte   W36
 .byte   An2
 .byte   W36
 .byte   N24 ,Bn2
 .byte   W24
 .byte   PEND 
 .byte   PATT
  .word Label_4_0144D2CD
 .byte   PATT
  .word Label_4_0144D2D9
 .byte   PATT
  .word Label_4_0144D2E0
 .byte   PATT
  .word Label_4_0144D2E8
 .byte   PATT
  .word Label_4_0144D2FB
 .byte   PATT
  .word Label_4_0144D309
@ 061   ----------------------------------------
 .byte   N96 ,En3 ,v088
 .byte   W96
 .byte   PATT
  .word Label_4_0144D316
@ 062   ----------------------------------------
 .byte   GOTO
  .word Label_4_0144D24A
 .byte   FINE

@**************** Track 6 (Midi-Chn.5) ****************@

song16_006:
@ 000   ----------------------------------------
 .byte   KEYSH , song16_key+0
Label_5_0144D352:
 .byte   VOICE , 41
 .byte   MODT 0
 .byte   CnM2
 .byte   LFOS 0
 .byte   Gs1
 .byte   VOL , 45*song16_mvl/mxv
 .byte   PAN , c_v+0
 .byte   VOL , 28*song16_mvl/mxv
 .byte   W96
@ 001   ----------------------------------------
 .byte   W96
@ 002   ----------------------------------------
 .byte   W96
@ 003   ----------------------------------------
 .byte   W96
@ 004   ----------------------------------------
 .byte   W96
@ 005   ----------------------------------------
 .byte   W96
@ 006   ----------------------------------------
 .byte   W96
@ 007   ----------------------------------------
 .byte   W96
@ 008   ----------------------------------------
 .byte   W96
@ 009   ----------------------------------------
 .byte   W96
@ 010   ----------------------------------------
 .byte   W96
@ 011   ----------------------------------------
 .byte   W96
@ 012   ----------------------------------------
 .byte   W96
@ 013   ----------------------------------------
 .byte   W96
@ 014   ----------------------------------------
 .byte   W96
@ 015   ----------------------------------------
 .byte   W96
@ 016   ----------------------------------------
 .byte   W96
@ 017   ----------------------------------------
 .byte   W96
@ 018   ----------------------------------------
 .byte   W96
@ 019   ----------------------------------------
 .byte   W96
@ 020   ----------------------------------------
 .byte   W96
@ 021   ----------------------------------------
 .byte   W96
@ 022   ----------------------------------------
 .byte   N36 ,Gn3 ,v088
 .byte   W36
 .byte   An3
 .byte   W36
 .byte   Bn3
 .byte   W24
@ 023   ----------------------------------------
 .byte   W12
 .byte   Gn4
 .byte   W36
 .byte   N24 ,Fs4
 .byte   W24
 .byte   En4
 .byte   W24
@ 024   ----------------------------------------
 .byte   N36 ,Dn4
 .byte   W36
 .byte   Bn3
 .byte   W36
 .byte   TIE
 .byte   W24
@ 025   ----------------------------------------
 .byte   W96
@ 026   ----------------------------------------
 .byte   EOT
Label_5_0144D38D:
 .byte   N24 ,Cn4 ,v088
 .byte   W24
 .byte   N12 ,Dn4
 .byte   W12
 .byte   N36 ,En4
 .byte   W36
 .byte   N24 ,An4
 .byte   W24
 .byte   PEND 
@ 027   ----------------------------------------
Label_5_0144D39B:
 .byte   N36 ,Bn4 ,v088
 .byte   W36
 .byte   Cn5
 .byte   W36
 .byte   N24 ,An4
 .byte   W24
 .byte   PEND 
@ 028   ----------------------------------------
 .byte   TIE ,Ds3
 .byte   W96
@ 029   ----------------------------------------
 .byte   W96
@ 030   ----------------------------------------
 .byte   EOT
 .byte   N36 ,Gn3
 .byte   W36
 .byte   Fs3
 .byte   W36
 .byte   Gn3
 .byte   W24
@ 031   ----------------------------------------
 .byte   W12
 .byte   N84
 .byte   W84
@ 032   ----------------------------------------
 .byte   N36 ,Dn4
 .byte   W36
 .byte   En4
 .byte   W36
 .byte   TIE ,Bn3
 .byte   W24
@ 033   ----------------------------------------
 .byte   W96
@ 034   ----------------------------------------
 .byte   EOT
 .byte   PATT
  .word Label_5_0144D38D
 .byte   PATT
  .word Label_5_0144D39B
@ 035   ----------------------------------------
 .byte   N36 ,Fs4 ,v088
 .byte   W36
 .byte   Gn4
 .byte   W36
 .byte   N24 ,An4
 .byte   W24
@ 036   ----------------------------------------
 .byte   N48 ,Bn4
 .byte   W48
 .byte   Ds4
 .byte   W48
@ 037   ----------------------------------------
 .byte   W96
@ 038   ----------------------------------------
 .byte   W96
@ 039   ----------------------------------------
 .byte   W96
@ 040   ----------------------------------------
 .byte   W96
@ 041   ----------------------------------------
 .byte   W96
@ 042   ----------------------------------------
 .byte   W96
@ 043   ----------------------------------------
 .byte   W96
@ 044   ----------------------------------------
 .byte   W96
@ 045   ----------------------------------------
 .byte   W96
@ 046   ----------------------------------------
 .byte   W96
@ 047   ----------------------------------------
 .byte   W96
@ 048   ----------------------------------------
 .byte   W96
@ 049   ----------------------------------------
 .byte   W96
@ 050   ----------------------------------------
 .byte   W96
@ 051   ----------------------------------------
 .byte   W96
@ 052   ----------------------------------------
 .byte   W96
@ 053   ----------------------------------------
 .byte   W96
@ 054   ----------------------------------------
 .byte   W96
@ 055   ----------------------------------------
 .byte   W96
@ 056   ----------------------------------------
 .byte   W96
@ 057   ----------------------------------------
 .byte   W96
@ 058   ----------------------------------------
 .byte   W96
@ 059   ----------------------------------------
 .byte   W96
@ 060   ----------------------------------------
 .byte   W96
@ 061   ----------------------------------------
 .byte   W96
@ 062   ----------------------------------------
 .byte   W96
@ 063   ----------------------------------------
 .byte   W96
@ 064   ----------------------------------------
 .byte   W96
@ 065   ----------------------------------------
 .byte   W96
@ 066   ----------------------------------------
 .byte   W96
@ 067   ----------------------------------------
 .byte   W96
@ 068   ----------------------------------------
 .byte   W96
@ 069   ----------------------------------------
 .byte   GOTO
  .word Label_5_0144D352
 .byte   FINE

@**************** Track 7 (Midi-Chn.6) ****************@

song16_007:
@ 000   ----------------------------------------
 .byte   KEYSH , song16_key+0
Label_6_0144D3FE:
 .byte   VOICE , 56
 .byte   MODT 0
 .byte   CnM2
 .byte   LFOS 0
 .byte   Gs1
 .byte   VOL , 45*song16_mvl/mxv
 .byte   PAN , c_v+0
 .byte   VOL , 35*song16_mvl/mxv
 .byte   W96
@ 001   ----------------------------------------
 .byte   W96
@ 002   ----------------------------------------
 .byte   W96
@ 003   ----------------------------------------
 .byte   W96
@ 004   ----------------------------------------
 .byte   W96
@ 005   ----------------------------------------
 .byte   W96
@ 006   ----------------------------------------
 .byte   W96
@ 007   ----------------------------------------
 .byte   W96
@ 008   ----------------------------------------
 .byte   W96
@ 009   ----------------------------------------
 .byte   W96
@ 010   ----------------------------------------
 .byte   W96
@ 011   ----------------------------------------
 .byte   W96
@ 012   ----------------------------------------
 .byte   W96
@ 013   ----------------------------------------
 .byte   W96
@ 014   ----------------------------------------
 .byte   W96
@ 015   ----------------------------------------
 .byte   W96
@ 016   ----------------------------------------
 .byte   N60 ,Cs3 ,v088
 .byte   W60
 .byte   N12 ,Bn2
 .byte   W12
 .byte   An2
 .byte   W12
 .byte   Gs2
 .byte   W12
@ 017   ----------------------------------------
 .byte   N48 ,An2
 .byte   W48
 .byte   Fs2
 .byte   W48
@ 018   ----------------------------------------
 .byte   N36 ,Cn3
 .byte   W36
 .byte   Bn2
 .byte   W36
 .byte   N24 ,Cn3
 .byte   W24
@ 019   ----------------------------------------
 .byte   N36 ,Dn3
 .byte   W36
 .byte   Cn3
 .byte   W36
 .byte   N24 ,Bn2
 .byte   W24
@ 020   ----------------------------------------
 .byte   N48 ,As2
 .byte   W48
 .byte   N15
 .byte   W15
 .byte   N16 ,An2
 .byte   W17
 .byte   N15 ,As2
 .byte   W16
@ 021   ----------------------------------------
 .byte   N18 ,Cn3
 .byte   W18
 .byte   Dn3
 .byte   W18
 .byte   N60 ,Gn3
 .byte   W60
@ 022   ----------------------------------------
Label_6_0144D44D:
 .byte   N36 ,Gn3 ,v088
 .byte   W36
 .byte   An3
 .byte   W36
 .byte   Bn3
 .byte   W24
 .byte   PEND 
@ 023   ----------------------------------------
Label_6_0144D456:
 .byte   W12
 .byte   N36 ,Gn4 ,v088
 .byte   W36
 .byte   N24 ,Fs4
 .byte   W24
 .byte   En4
 .byte   W24
 .byte   PEND 
@ 024   ----------------------------------------
Label_6_0144D461:
 .byte   N36 ,Dn4 ,v088
 .byte   W36
 .byte   En4
 .byte   W36
 .byte   TIE ,Bn3
 .byte   W24
 .byte   PEND 
@ 025   ----------------------------------------
 .byte   W96
@ 026   ----------------------------------------
 .byte   EOT
 .byte   N96 ,En3
 .byte   W96
@ 027   ----------------------------------------
Label_6_0144D470:
 .byte   N48 ,Dn3 ,v088
 .byte   W48
 .byte   En3
 .byte   W48
 .byte   PEND 
@ 028   ----------------------------------------
Label_6_0144D477:
 .byte   N36 ,Ds3 ,v088
 .byte   W36
 .byte   Bn2
 .byte   W36
 .byte   N24 ,Fs2
 .byte   W24
 .byte   PEND 
@ 029   ----------------------------------------
Label_6_0144D481:
 .byte   N36 ,Ds2 ,v088
 .byte   W36
 .byte   En2
 .byte   W36
 .byte   N24 ,Fs2
 .byte   W24
 .byte   PEND 
 .byte   PATT
  .word Label_6_0144D44D
 .byte   PATT
  .word Label_6_0144D456
 .byte   PATT
  .word Label_6_0144D461
@ 030   ----------------------------------------
 .byte   W96
@ 031   ----------------------------------------
 .byte   EOT
 .byte   Bn3
 .byte   N96 ,En3 ,v088
 .byte   W96
 .byte   PATT
  .word Label_6_0144D470
 .byte   PATT
  .word Label_6_0144D477
 .byte   PATT
  .word Label_6_0144D481
@ 032   ----------------------------------------
 .byte   W96
@ 033   ----------------------------------------
 .byte   W96
@ 034   ----------------------------------------
 .byte   W96
@ 035   ----------------------------------------
 .byte   W96
@ 036   ----------------------------------------
 .byte   W96
@ 037   ----------------------------------------
 .byte   W96
@ 038   ----------------------------------------
 .byte   W96
@ 039   ----------------------------------------
 .byte   W96
@ 040   ----------------------------------------
 .byte   W96
@ 041   ----------------------------------------
 .byte   W96
@ 042   ----------------------------------------
 .byte   W96
@ 043   ----------------------------------------
 .byte   W96
@ 044   ----------------------------------------
 .byte   W96
@ 045   ----------------------------------------
 .byte   W96
@ 046   ----------------------------------------
 .byte   W96
@ 047   ----------------------------------------
 .byte   W96
@ 048   ----------------------------------------
 .byte   VOL , 45*song16_mvl/mxv
 .byte   N60 ,Cn3 ,v088
 .byte   W60
 .byte   N12 ,Bn2
 .byte   W12
 .byte   An2
 .byte   W12
 .byte   Gn2
 .byte   W12
@ 049   ----------------------------------------
Label_6_0144D4CD:
 .byte   N48 ,An2 ,v088
 .byte   W48
 .byte   Dn3
 .byte   W48
 .byte   PEND 
@ 050   ----------------------------------------
Label_6_0144D4D4:
 .byte   N36 ,En3 ,v088
 .byte   W36
 .byte   N60 ,Bn2
 .byte   W60
 .byte   PEND 
@ 051   ----------------------------------------
Label_6_0144D4DC:
 .byte   N12 ,An2 ,v088
 .byte   W12
 .byte   Bn2
 .byte   W12
 .byte   An2
 .byte   W12
 .byte   Gn2
 .byte   W12
 .byte   Fs2
 .byte   W12
 .byte   Gn2
 .byte   W12
 .byte   An2
 .byte   W12
 .byte   Bn2
 .byte   W12
 .byte   PEND 
@ 052   ----------------------------------------
Label_6_0144D4EF:
 .byte   N48 ,Cn3 ,v088
 .byte   W48
 .byte   N24 ,En3
 .byte   W24
 .byte   N12 ,Cn3
 .byte   W12
 .byte   N72 ,Dn3
 .byte   W12
 .byte   PEND 
@ 053   ----------------------------------------
Label_6_0144D4FD:
 .byte   W60
 .byte   N12 ,Gn3 ,v088
 .byte   W12
 .byte   Fs3
 .byte   W12
 .byte   Dn3
 .byte   W12
 .byte   PEND 
@ 054   ----------------------------------------
 .byte   N96 ,En3
 .byte   W96
@ 055   ----------------------------------------
Label_6_0144D50A:
 .byte   N36 ,Gs2 ,v088
 .byte   W36
 .byte   An2
 .byte   W36
 .byte   N24 ,Bn2
 .byte   W24
 .byte   PEND 
@ 056   ----------------------------------------
 .byte   N60 ,Cn3
 .byte   W60
 .byte   N12 ,Bn2
 .byte   W12
 .byte   An2
 .byte   W12
 .byte   Gn2
 .byte   W12
 .byte   PATT
  .word Label_6_0144D4CD
 .byte   PATT
  .word Label_6_0144D4D4
 .byte   PATT
  .word Label_6_0144D4DC
 .byte   PATT
  .word Label_6_0144D4EF
 .byte   PATT
  .word Label_6_0144D4FD
@ 057   ----------------------------------------
 .byte   N96 ,En3 ,v088
 .byte   W96
 .byte   PATT
  .word Label_6_0144D50A
@ 058   ----------------------------------------
 .byte   GOTO
  .word Label_6_0144D3FE
 .byte   FINE

@**************** Track 8 (Midi-Chn.7) ****************@

song16_008:
@ 000   ----------------------------------------
 .byte   KEYSH , song16_key+0
Label_7_0144D54A:
 .byte   VOICE , 35
 .byte   MODT 0
 .byte   CnM2
 .byte   LFOS 0
 .byte   Gs1
 .byte   VOL , 50*song16_mvl/mxv
 .byte   PAN , c_v+0
 .byte   VOL , 33*song16_mvl/mxv
 .byte   N12 ,En1 ,v088
 .byte   W12
 .byte   N12
 .byte   W12
 .byte   N12
 .byte   W12
 .byte   N12
 .byte   W12
 .byte   N12
 .byte   W12
 .byte   N12
 .byte   W12
 .byte   N12
 .byte   W12
 .byte   N12
 .byte   W12
@ 001   ----------------------------------------
Label_7_0144D568:
 .byte   N12 ,Cn2 ,v088
 .byte   W12
 .byte   N12
 .byte   W12
 .byte   N12
 .byte   W12
 .byte   N12
 .byte   W12
 .byte   N12
 .byte   W12
 .byte   N12
 .byte   W12
 .byte   N12
 .byte   W12
 .byte   N12
 .byte   W12
 .byte   PEND 
@ 002   ----------------------------------------
Label_7_0144D57B:
 .byte   N12 ,Dn2 ,v088
 .byte   W12
 .byte   N12
 .byte   W12
 .byte   N12
 .byte   W12
 .byte   N12
 .byte   W12
 .byte   N12
 .byte   W12
 .byte   N12
 .byte   W12
 .byte   N12
 .byte   W12
 .byte   N12
 .byte   W12
 .byte   PEND 
@ 003   ----------------------------------------
Label_7_0144D58E:
 .byte   N12 ,Bn1 ,v088
 .byte   W12
 .byte   N12
 .byte   W12
 .byte   N12
 .byte   W12
 .byte   Ds2
 .byte   W12
 .byte   N12
 .byte   W12
 .byte   N12
 .byte   W12
 .byte   Bn1
 .byte   W12
 .byte   N12
 .byte   W12
 .byte   PEND 
 .byte   PATT
  .word Label_7_0144D568
 .byte   PATT
  .word Label_7_0144D57B
@ 004   ----------------------------------------
Label_7_0144D5AB:
 .byte   N12 ,Bn1 ,v088
 .byte   W12
 .byte   N12
 .byte   W12
 .byte   N12
 .byte   W12
 .byte   N12
 .byte   W12
 .byte   N12
 .byte   W12
 .byte   N12
 .byte   W12
 .byte   N12
 .byte   W12
 .byte   N12
 .byte   W12
 .byte   PEND 
@ 005   ----------------------------------------
Label_7_0144D5BE:
 .byte   N12 ,Bn1 ,v088
 .byte   W12
 .byte   N12
 .byte   W12
 .byte   An1
 .byte   W12
 .byte   N12
 .byte   W12
 .byte   Gn1
 .byte   W12
 .byte   N12
 .byte   W12
 .byte   Fs1
 .byte   W12
 .byte   N12
 .byte   W12
 .byte   PEND 
@ 006   ----------------------------------------
Label_7_0144D5D1:
 .byte   N12 ,En1 ,v088
 .byte   W12
 .byte   N12
 .byte   W12
 .byte   N12
 .byte   W12
 .byte   N12
 .byte   W12
 .byte   N12
 .byte   W12
 .byte   N12
 .byte   W12
 .byte   N12
 .byte   W12
 .byte   N12
 .byte   W12
 .byte   PEND 
 .byte   PATT
  .word Label_7_0144D568
 .byte   PATT
  .word Label_7_0144D57B
 .byte   PATT
  .word Label_7_0144D58E
 .byte   PATT
  .word Label_7_0144D568
 .byte   PATT
  .word Label_7_0144D57B
 .byte   PATT
  .word Label_7_0144D5AB
@ 007   ----------------------------------------
Label_7_0144D602:
 .byte   N12 ,Bn1 ,v088
 .byte   W12
 .byte   Ds2
 .byte   W12
 .byte   Fs2
 .byte   W12
 .byte   Bn1
 .byte   W12
 .byte   N06 ,Bn2
 .byte   W06
 .byte   An2
 .byte   W06
 .byte   Gn2
 .byte   W06
 .byte   Fs2
 .byte   W06
 .byte   En2
 .byte   W06
 .byte   Dn2
 .byte   W06
 .byte   Cn2
 .byte   W06
 .byte   Bn1
 .byte   W06
 .byte   PEND 
@ 008   ----------------------------------------
Label_7_0144D61E:
 .byte   N12 ,Fs1 ,v088
 .byte   W12
 .byte   N12
 .byte   W12
 .byte   Fs2
 .byte   W12
 .byte   Fs1
 .byte   W12
 .byte   En2
 .byte   W12
 .byte   Fs1
 .byte   W12
 .byte   Fs2
 .byte   W12
 .byte   Fs1
 .byte   W12
 .byte   PEND 
 .byte   PATT
  .word Label_7_0144D61E
@ 009   ----------------------------------------
Label_7_0144D636:
 .byte   N12 ,An1 ,v088
 .byte   W12
 .byte   N12
 .byte   W12
 .byte   An2
 .byte   W12
 .byte   An1
 .byte   W12
 .byte   Gn2
 .byte   W12
 .byte   An1
 .byte   W12
 .byte   An2
 .byte   W12
 .byte   An1
 .byte   W12
 .byte   PEND 
 .byte   PATT
  .word Label_7_0144D636
@ 010   ----------------------------------------
 .byte   N12 ,Gn1 ,v088
 .byte   W12
 .byte   N12
 .byte   W12
 .byte   Gn2
 .byte   W12
 .byte   Gn1
 .byte   W12
 .byte   Fn2
 .byte   W12
 .byte   Gn1
 .byte   W12
 .byte   Gn2
 .byte   W12
 .byte   Gn1
 .byte   W12
@ 011   ----------------------------------------
 .byte   N12
 .byte   W12
 .byte   Gn2
 .byte   W12
 .byte   Gn1
 .byte   W12
 .byte   Fn2
 .byte   W12
 .byte   Gn1
 .byte   W12
 .byte   Gn2
 .byte   W12
 .byte   N12
 .byte   W12
 .byte   Gn1
 .byte   W12
@ 012   ----------------------------------------
Label_7_0144D670:
 .byte   N12 ,En1 ,v088
 .byte   W12
 .byte   N24
 .byte   W24
 .byte   N12
 .byte   W12
 .byte   N24
 .byte   W24
 .byte   N24
 .byte   W24
 .byte   PEND 
 .byte   PATT
  .word Label_7_0144D670
@ 013   ----------------------------------------
Label_7_0144D682:
 .byte   N12 ,Cn2 ,v088
 .byte   W12
 .byte   N12
 .byte   W12
 .byte   Bn1
 .byte   W12
 .byte   Cn2
 .byte   W12
 .byte   N12
 .byte   W12
 .byte   Bn1
 .byte   W12
 .byte   Cn2
 .byte   W12
 .byte   Bn1
 .byte   W12
 .byte   PEND 
@ 014   ----------------------------------------
Label_7_0144D695:
 .byte   N12 ,Cn2 ,v088
 .byte   W12
 .byte   N12
 .byte   W12
 .byte   Cn3
 .byte   W12
 .byte   Cn2
 .byte   W12
 .byte   Bn2
 .byte   W12
 .byte   Cn3
 .byte   W12
 .byte   Cn2
 .byte   W12
 .byte   N12
 .byte   W12
 .byte   PEND 
@ 015   ----------------------------------------
Label_7_0144D6A8:
 .byte   N12 ,An1 ,v088
 .byte   W12
 .byte   N12
 .byte   W12
 .byte   Gn1
 .byte   W12
 .byte   An1
 .byte   W12
 .byte   Cn2
 .byte   W12
 .byte   Bn1
 .byte   W12
 .byte   An1
 .byte   W12
 .byte   Gn1
 .byte   W12
 .byte   PEND 
 .byte   PATT
  .word Label_7_0144D6A8
@ 016   ----------------------------------------
Label_7_0144D6C0:
 .byte   N12 ,Bn1 ,v088
 .byte   W12
 .byte   N12
 .byte   W12
 .byte   An1
 .byte   W12
 .byte   Bn1
 .byte   W12
 .byte   N12
 .byte   W12
 .byte   An1
 .byte   W12
 .byte   Bn1
 .byte   W12
 .byte   An1
 .byte   W12
 .byte   PEND 
 .byte   PATT
  .word Label_7_0144D6C0
 .byte   PATT
  .word Label_7_0144D670
 .byte   PATT
  .word Label_7_0144D670
 .byte   PATT
  .word Label_7_0144D682
 .byte   PATT
  .word Label_7_0144D695
 .byte   PATT
  .word Label_7_0144D6A8
 .byte   PATT
  .word Label_7_0144D6A8
 .byte   PATT
  .word Label_7_0144D6C0
 .byte   PATT
  .word Label_7_0144D6C0
 .byte   PATT
  .word Label_7_0144D5D1
 .byte   PATT
  .word Label_7_0144D568
 .byte   PATT
  .word Label_7_0144D57B
 .byte   PATT
  .word Label_7_0144D58E
 .byte   PATT
  .word Label_7_0144D568
 .byte   PATT
  .word Label_7_0144D57B
 .byte   PATT
  .word Label_7_0144D5AB
 .byte   PATT
  .word Label_7_0144D5BE
 .byte   PATT
  .word Label_7_0144D5D1
 .byte   PATT
  .word Label_7_0144D568
 .byte   PATT
  .word Label_7_0144D57B
 .byte   PATT
  .word Label_7_0144D58E
 .byte   PATT
  .word Label_7_0144D568
 .byte   PATT
  .word Label_7_0144D57B
 .byte   PATT
  .word Label_7_0144D5AB
 .byte   PATT
  .word Label_7_0144D602
 .byte   PATT
  .word Label_7_0144D695
@ 017   ----------------------------------------
Label_7_0144D755:
 .byte   N12 ,Dn2 ,v088
 .byte   W12
 .byte   N12
 .byte   W12
 .byte   Dn3
 .byte   W12
 .byte   Dn2
 .byte   W12
 .byte   Cn3
 .byte   W12
 .byte   Dn3
 .byte   W12
 .byte   Dn2
 .byte   W12
 .byte   N12
 .byte   W12
 .byte   PEND 
@ 018   ----------------------------------------
Label_7_0144D768:
 .byte   N12 ,En2 ,v088
 .byte   W12
 .byte   N12
 .byte   W12
 .byte   En3
 .byte   W12
 .byte   En2
 .byte   W12
 .byte   Dn3
 .byte   W12
 .byte   En3
 .byte   W12
 .byte   En2
 .byte   W12
 .byte   N12
 .byte   W12
 .byte   PEND 
 .byte   PATT
  .word Label_7_0144D768
@ 019   ----------------------------------------
Label_7_0144D780:
 .byte   N12 ,Cn2 ,v088
 .byte   W12
 .byte   N12
 .byte   W12
 .byte   N12
 .byte   W12
 .byte   N12
 .byte   W12
 .byte   N12
 .byte   W12
 .byte   N12
 .byte   W12
 .byte   N12
 .byte   W12
 .byte   Dn2
 .byte   W12
 .byte   PEND 
@ 020   ----------------------------------------
Label_7_0144D793:
 .byte   N12 ,Dn2 ,v088
 .byte   W12
 .byte   N12
 .byte   W12
 .byte   N12
 .byte   W12
 .byte   N12
 .byte   W12
 .byte   N12
 .byte   W12
 .byte   N12
 .byte   W12
 .byte   N12
 .byte   W12
 .byte   En2
 .byte   W12
 .byte   PEND 
@ 021   ----------------------------------------
Label_7_0144D7A6:
 .byte   N12 ,En2 ,v088
 .byte   W12
 .byte   N12
 .byte   W12
 .byte   En3
 .byte   W12
 .byte   En2
 .byte   W12
 .byte   Dn3
 .byte   W12
 .byte   En2
 .byte   W12
 .byte   En3
 .byte   W12
 .byte   En2
 .byte   W12
 .byte   PEND 
 .byte   PATT
  .word Label_7_0144D7A6
 .byte   PATT
  .word Label_7_0144D695
 .byte   PATT
  .word Label_7_0144D755
 .byte   PATT
  .word Label_7_0144D768
 .byte   PATT
  .word Label_7_0144D768
 .byte   PATT
  .word Label_7_0144D780
 .byte   PATT
  .word Label_7_0144D793
 .byte   PATT
  .word Label_7_0144D7A6
 .byte   PATT
  .word Label_7_0144D7A6
@ 022   ----------------------------------------
 .byte   GOTO
  .word Label_7_0144D54A
 .byte   FINE

@**************** Track 9 (Midi-Chn.8) ****************@

song16_009:
@ 000   ----------------------------------------
 .byte   KEYSH , song16_key+0
Label_8_0144D7EE:
 .byte   VOICE , 124
 .byte   MODT 0
 .byte   CnM2
 .byte   LFOS 0
 .byte   Gs1
 .byte   VOL , 28*song16_mvl/mxv
 .byte   PAN , c_v+0
 .byte   VOL , 28*song16_mvl/mxv
 .byte   N48 ,Bn0 ,v088
 .byte   W48
 .byte   N48
 .byte   W48
@ 001   ----------------------------------------
Label_8_0144D800:
 .byte   N48 ,Bn0 ,v088
 .byte   W48
 .byte   N48
 .byte   W48
 .byte   PEND 
 .byte   PATT
  .word Label_8_0144D800
 .byte   PATT
  .word Label_8_0144D800
 .byte   PATT
  .word Label_8_0144D800
 .byte   PATT
  .word Label_8_0144D800
 .byte   PATT
  .word Label_8_0144D800
@ 002   ----------------------------------------
 .byte   N96 ,Bn0 ,v088
 .byte   W96
 .byte   PATT
  .word Label_8_0144D800
 .byte   PATT
  .word Label_8_0144D800
 .byte   PATT
  .word Label_8_0144D800
 .byte   PATT
  .word Label_8_0144D800
 .byte   PATT
  .word Label_8_0144D800
 .byte   PATT
  .word Label_8_0144D800
 .byte   PATT
  .word Label_8_0144D800
@ 003   ----------------------------------------
 .byte   N96 ,Bn0 ,v088
 .byte   W96
@ 004   ----------------------------------------
 .byte   An2
 .byte   W96
 .byte   PATT
  .word Label_8_0144D800
 .byte   PATT
  .word Label_8_0144D800
 .byte   PATT
  .word Label_8_0144D800
@ 005   ----------------------------------------
 .byte   N96 ,An2 ,v088
 .byte   W96
 .byte   PATT
  .word Label_8_0144D800
@ 006   ----------------------------------------
 .byte   N96 ,An2 ,v088
 .byte   W96
@ 007   ----------------------------------------
 .byte   N12 ,Bn0
 .byte   W12
 .byte   Fs1
 .byte   W12
 .byte   N24 ,Dn1
 .byte   W24
 .byte   N48 ,Bn0
 .byte   W48
@ 008   ----------------------------------------
 .byte   N36
 .byte   W36
 .byte   N24
 .byte   W24
 .byte   N36
 .byte   W36
@ 009   ----------------------------------------
 .byte   N24
 .byte   W24
 .byte   N48
 .byte   W48
 .byte   N12
 .byte   W12
 .byte   N12
 .byte   W12
@ 010   ----------------------------------------
 .byte   N24
 .byte   W24
 .byte   N48
 .byte   W48
 .byte   N24
 .byte   W24
@ 011   ----------------------------------------
 .byte   N36
 .byte   W36
 .byte   N36
 .byte   W36
 .byte   N24 ,Dn1
 .byte   W24
@ 012   ----------------------------------------
 .byte   Bn0
 .byte   W24
 .byte   N24
 .byte   W24
 .byte   N48
 .byte   W48
@ 013   ----------------------------------------
 .byte   N24
 .byte   W24
 .byte   N12
 .byte   W12
 .byte   N60
 .byte   W60
@ 014   ----------------------------------------
 .byte   N96 ,An2
 .byte   W96
@ 015   ----------------------------------------
Label_8_0144D89E:
 .byte   W12
 .byte   N36 ,Bn0 ,v088
 .byte   W36
 .byte   N48
 .byte   W48
 .byte   PEND 
 .byte   PATT
  .word Label_8_0144D800
 .byte   PATT
  .word Label_8_0144D800
@ 016   ----------------------------------------
 .byte   N96 ,An2 ,v088
 .byte   W96
 .byte   PATT
  .word Label_8_0144D89E
 .byte   PATT
  .word Label_8_0144D800
 .byte   PATT
  .word Label_8_0144D800
 .byte   PATT
  .word Label_8_0144D800
 .byte   PATT
  .word Label_8_0144D800
 .byte   PATT
  .word Label_8_0144D800
 .byte   PATT
  .word Label_8_0144D800
 .byte   PATT
  .word Label_8_0144D800
 .byte   PATT
  .word Label_8_0144D800
 .byte   PATT
  .word Label_8_0144D800
@ 017   ----------------------------------------
 .byte   N96 ,Bn0 ,v088
 .byte   W96
 .byte   PATT
  .word Label_8_0144D800
 .byte   PATT
  .word Label_8_0144D800
 .byte   PATT
  .word Label_8_0144D800
 .byte   PATT
  .word Label_8_0144D800
 .byte   PATT
  .word Label_8_0144D800
 .byte   PATT
  .word Label_8_0144D800
 .byte   PATT
  .word Label_8_0144D800
@ 018   ----------------------------------------
 .byte   N96 ,Bn0 ,v088
 .byte   W96
 .byte   PATT
  .word Label_8_0144D800
 .byte   PATT
  .word Label_8_0144D800
 .byte   PATT
  .word Label_8_0144D800
 .byte   PATT
  .word Label_8_0144D800
@ 019   ----------------------------------------
 .byte   N48 ,Bn0 ,v088
 .byte   W48
 .byte   N36
 .byte   W36
 .byte   N12
 .byte   W12
@ 020   ----------------------------------------
 .byte   N24 ,Fs1
 .byte   W24
 .byte   Dn1
 .byte   W24
 .byte   N48 ,Bn0
 .byte   W48
@ 021   ----------------------------------------
 .byte   N24
 .byte   W24
 .byte   Dn1
 .byte   W24
 .byte   Fs1
 .byte   W24
 .byte   N12 ,Dn1
 .byte   W12
 .byte   N12
 .byte   W12
@ 022   ----------------------------------------
 .byte   Bn0
 .byte   W12
 .byte   N12
 .byte   W12
 .byte   N12
 .byte   W12
 .byte   N36
 .byte   W36
 .byte   N24
 .byte   W24
@ 023   ----------------------------------------
Label_8_0144D94A:
 .byte   N24 ,Dn1 ,v088
 .byte   W24
 .byte   N24
 .byte   W24
 .byte   N24
 .byte   W24
 .byte   N24
 .byte   W24
 .byte   PEND 
 .byte   PATT
  .word Label_8_0144D94A
 .byte   PATT
  .word Label_8_0144D94A
 .byte   PATT
  .word Label_8_0144D94A
 .byte   PATT
  .word Label_8_0144D94A
 .byte   PATT
  .word Label_8_0144D94A
 .byte   PATT
  .word Label_8_0144D94A
@ 024   ----------------------------------------
 .byte   N06 ,Bn1 ,v088
 .byte   W06
 .byte   N06
 .byte   W06
 .byte   N06
 .byte   W06
 .byte   N06
 .byte   W06
 .byte   Gn1
 .byte   W06
 .byte   N06
 .byte   W06
 .byte   N06
 .byte   W06
 .byte   N06
 .byte   W06
 .byte   An1
 .byte   W06
 .byte   N06
 .byte   W06
 .byte   N06
 .byte   W06
 .byte   N06
 .byte   W06
 .byte   Fn1
 .byte   W06
 .byte   N06
 .byte   W06
 .byte   N06
 .byte   W06
 .byte   N06
 .byte   W06
@ 025   ----------------------------------------
 .byte   GOTO
  .word Label_8_0144D7EE
 .byte   FINE

@**************** Track 10 (Midi-Chn.9) ****************@

song16_010:
@ 000   ----------------------------------------
 .byte   KEYSH , song16_key+0
Label_9_0144D99E:
 .byte   VOICE , 124
 .byte   MODT 0
 .byte   CnM2
 .byte   LFOS 0
 .byte   Gs1
 .byte   VOL , 28*song16_mvl/mxv
 .byte   PAN , c_v+0
 .byte   VOL , 28*song16_mvl/mxv
 .byte   N96 ,An2 ,v088
 .byte   W96
@ 001   ----------------------------------------
Label_9_0144D9AE:
 .byte   N24 ,Fs1 ,v088
 .byte   W24
 .byte   N24
 .byte   W24
 .byte   N24
 .byte   W24
 .byte   N24
 .byte   W24
 .byte   PEND 
 .byte   PATT
  .word Label_9_0144D9AE
 .byte   PATT
  .word Label_9_0144D9AE
@ 002   ----------------------------------------
 .byte   N96 ,An2 ,v088
 .byte   W96
 .byte   PATT
  .word Label_9_0144D9AE
 .byte   PATT
  .word Label_9_0144D9AE
@ 003   ----------------------------------------
Label_9_0144D9D1:
 .byte   N24 ,Fs1 ,v088
 .byte   W24
 .byte   Dn1
 .byte   W24
 .byte   N06 ,An1
 .byte   W06
 .byte   N06
 .byte   W06
 .byte   Gn1
 .byte   W06
 .byte   N06
 .byte   W06
 .byte   Fn1
 .byte   W06
 .byte   N06
 .byte   W06
 .byte   N06
 .byte   W06
 .byte   N06
 .byte   W06
 .byte   PEND 
@ 004   ----------------------------------------
 .byte   N96 ,An2
 .byte   W96
 .byte   PATT
  .word Label_9_0144D9AE
 .byte   PATT
  .word Label_9_0144D9AE
 .byte   PATT
  .word Label_9_0144D9AE
@ 005   ----------------------------------------
 .byte   N96 ,An2 ,v088
 .byte   W96
 .byte   PATT
  .word Label_9_0144D9AE
 .byte   PATT
  .word Label_9_0144D9AE
@ 006   ----------------------------------------
Label_9_0144DA09:
 .byte   N24 ,Fs1 ,v088
 .byte   W24
 .byte   N24
 .byte   W36
 .byte   N06 ,Bn1
 .byte   W06
 .byte   N06
 .byte   W18
 .byte   Fn1
 .byte   W06
 .byte   N06
 .byte   W06
 .byte   PEND 
@ 007   ----------------------------------------
Label_9_0144DA19:
 .byte   N48 ,Bn0 ,v088
 .byte   W48
 .byte   N48
 .byte   W48
 .byte   PEND 
@ 008   ----------------------------------------
Label_9_0144DA20:
 .byte   N24 ,Fs1 ,v088
 .byte   W24
 .byte   N12
 .byte   W12
 .byte   N12
 .byte   W12
 .byte   N24
 .byte   W24
 .byte   N12
 .byte   W12
 .byte   N12
 .byte   W12
 .byte   PEND 
@ 009   ----------------------------------------
 .byte   N24
 .byte   W24
 .byte   As1
 .byte   W24
 .byte   Fs1
 .byte   W24
 .byte   As1
 .byte   W24
 .byte   PATT
  .word Label_9_0144DA20
 .byte   PATT
  .word Label_9_0144DA19
@ 010   ----------------------------------------
 .byte   N24 ,Fs1 ,v088
 .byte   W24
 .byte   As1
 .byte   W36
 .byte   N12 ,Fs1
 .byte   W12
 .byte   N24 ,As1
 .byte   W24
@ 011   ----------------------------------------
Label_9_0144DA4D:
 .byte   N36 ,Bn0 ,v088
 .byte   W36
 .byte   N36
 .byte   W36
 .byte   N24 ,Dn1
 .byte   W24
 .byte   PEND 
@ 012   ----------------------------------------
 .byte   N12 ,Fs1
 .byte   W24
 .byte   N24
 .byte   W48
 .byte   Dn1
 .byte   W24
@ 013   ----------------------------------------
Label_9_0144DA5E:
 .byte   N24 ,Fs1 ,v088
 .byte   W24
 .byte   Dn1
 .byte   W24
 .byte   Fs1
 .byte   W24
 .byte   N12 ,Dn1
 .byte   W12
 .byte   N12
 .byte   W12
 .byte   PEND 
@ 014   ----------------------------------------
 .byte   N24 ,Fs1
 .byte   W24
 .byte   N24
 .byte   W24
 .byte   Dn1
 .byte   W24
 .byte   Fs1
 .byte   W24
@ 015   ----------------------------------------
 .byte   N96 ,An2
 .byte   W96
@ 016   ----------------------------------------
 .byte   W12
 .byte   N12 ,Fs1
 .byte   W12
 .byte   N24 ,Dn1
 .byte   W24
 .byte   Fs1
 .byte   W24
 .byte   As1
 .byte   W24
 .byte   PATT
  .word Label_9_0144DA5E
 .byte   PATT
  .word Label_9_0144DA09
 .byte   PATT
  .word Label_9_0144DA4D
@ 017   ----------------------------------------
 .byte   W12
 .byte   N12 ,Fs1 ,v088
 .byte   W12
 .byte   N24 ,As1
 .byte   W24
 .byte   Fs1
 .byte   W24
 .byte   As1
 .byte   W24
 .byte   PATT
  .word Label_9_0144D9AE
 .byte   PATT
  .word Label_9_0144D9AE
 .byte   PATT
  .word Label_9_0144DA4D
@ 018   ----------------------------------------
 .byte   W12
 .byte   N12 ,Fs1 ,v088
 .byte   W12
 .byte   N24 ,Dn1
 .byte   W24
 .byte   Fs1
 .byte   W24
 .byte   N12 ,Dn1
 .byte   W12
 .byte   N12
 .byte   W12
 .byte   PATT
  .word Label_9_0144D9AE
@ 019   ----------------------------------------
 .byte   N24 ,Fs1 ,v088
 .byte   W24
 .byte   Dn1
 .byte   W48
 .byte   N12
 .byte   W12
 .byte   N06
 .byte   W06
 .byte   N06
 .byte   W06
@ 020   ----------------------------------------
 .byte   N96 ,An2
 .byte   W96
 .byte   PATT
  .word Label_9_0144D9AE
 .byte   PATT
  .word Label_9_0144D9AE
 .byte   PATT
  .word Label_9_0144D9AE
@ 021   ----------------------------------------
 .byte   N96 ,An2 ,v088
 .byte   W96
 .byte   PATT
  .word Label_9_0144D9AE
 .byte   PATT
  .word Label_9_0144D9AE
 .byte   PATT
  .word Label_9_0144D9D1
@ 022   ----------------------------------------
 .byte   N96 ,An2 ,v088
 .byte   W96
 .byte   PATT
  .word Label_9_0144D9AE
 .byte   PATT
  .word Label_9_0144D9AE
 .byte   PATT
  .word Label_9_0144D9AE
@ 023   ----------------------------------------
 .byte   N96 ,An2 ,v088
 .byte   W96
 .byte   PATT
  .word Label_9_0144D9AE
 .byte   PATT
  .word Label_9_0144D9AE
 .byte   PATT
  .word Label_9_0144DA09
@ 024   ----------------------------------------
 .byte   N96 ,An2 ,v088
 .byte   W96
@ 025   ----------------------------------------
Label_9_0144DB1C:
 .byte   N24 ,Fs1 ,v088
 .byte   W24
 .byte   Dn1
 .byte   W36
 .byte   N12 ,Fs1
 .byte   W12
 .byte   Dn1
 .byte   W12
 .byte   N12
 .byte   W12
 .byte   PEND 
@ 026   ----------------------------------------
 .byte   N24 ,Fs1
 .byte   W24
 .byte   Dn1
 .byte   W36
 .byte   N12 ,Fs1
 .byte   W12
 .byte   N24 ,Dn1
 .byte   W24
 .byte   PATT
  .word Label_9_0144DB1C
@ 027   ----------------------------------------
 .byte   N96 ,An2 ,v088
 .byte   W96
@ 028   ----------------------------------------
 .byte   W12
 .byte   N36 ,Bn0
 .byte   W36
 .byte   N24 ,Fs1
 .byte   W24
 .byte   N12 ,Dn1
 .byte   W12
 .byte   N06
 .byte   W06
 .byte   N06
 .byte   W06
@ 029   ----------------------------------------
 .byte   N24 ,Fs1
 .byte   W24
 .byte   As1
 .byte   W36
 .byte   N36 ,Bn0
 .byte   W36
@ 030   ----------------------------------------
 .byte   N12 ,Fs1
 .byte   W12
 .byte   N12
 .byte   W12
 .byte   N24
 .byte   W24
 .byte   N36 ,Dn1
 .byte   W36
 .byte   N12
 .byte   W12
@ 031   ----------------------------------------
Label_9_0144DB60:
 .byte   N24 ,As1 ,v088
 .byte   W24
 .byte   N24
 .byte   W24
 .byte   N24
 .byte   W24
 .byte   N24
 .byte   W24
 .byte   PEND 
 .byte   PATT
  .word Label_9_0144DB60
 .byte   PATT
  .word Label_9_0144DB60
 .byte   PATT
  .word Label_9_0144DB60
 .byte   PATT
  .word Label_9_0144DB60
 .byte   PATT
  .word Label_9_0144DB60
 .byte   PATT
  .word Label_9_0144DB60
@ 032   ----------------------------------------
 .byte   N24 ,Bn0 ,v088
 .byte   W24
 .byte   N24
 .byte   W24
 .byte   N24
 .byte   W24
 .byte   N24
 .byte   W24
@ 033   ----------------------------------------
 .byte   GOTO
  .word Label_9_0144D99E
 .byte   FINE

@**************** Track 11 (Midi-Chn.10) ****************@

song16_011:
@ 000   ----------------------------------------
 .byte   KEYSH , song16_key+0
Label_10_0144DB9E:
 .byte   VOICE , 124
 .byte   MODT 0
 .byte   CnM2
 .byte   LFOS 0
 .byte   Gs1
 .byte   VOL , 28*song16_mvl/mxv
 .byte   PAN , c_v+0
 .byte   VOL , 28*song16_mvl/mxv
 .byte   N24 ,Fs1 ,v088
 .byte   W24
 .byte   Dn1
 .byte   W24
 .byte   Fs1
 .byte   W24
 .byte   Dn1
 .byte   W24
@ 001   ----------------------------------------
Label_10_0144DBB4:
 .byte   W24
 .byte   N24 ,As1 ,v088
 .byte   W48
 .byte   N24
 .byte   W24
 .byte   PEND 
 .byte   PATT
  .word Label_10_0144DBB4
@ 002   ----------------------------------------
Label_10_0144DBC1:
 .byte   W24
 .byte   N24 ,As1 ,v088
 .byte   W48
 .byte   N12 ,Dn1
 .byte   W12
 .byte   N12
 .byte   W12
 .byte   PEND 
@ 003   ----------------------------------------
Label_10_0144DBCC:
 .byte   N24 ,Fs1 ,v088
 .byte   W24
 .byte   Dn1
 .byte   W24
 .byte   Fs1
 .byte   W24
 .byte   Dn1
 .byte   W24
 .byte   PEND 
 .byte   PATT
  .word Label_10_0144DBB4
 .byte   PATT
  .word Label_10_0144DBB4
@ 004   ----------------------------------------
 .byte   W24
 .byte   N24 ,As1 ,v088
 .byte   W72
 .byte   PATT
  .word Label_10_0144DBCC
 .byte   PATT
  .word Label_10_0144DBB4
 .byte   PATT
  .word Label_10_0144DBB4
 .byte   PATT
  .word Label_10_0144DBC1
 .byte   PATT
  .word Label_10_0144DBCC
 .byte   PATT
  .word Label_10_0144DBB4
 .byte   PATT
  .word Label_10_0144DBB4
@ 005   ----------------------------------------
 .byte   W24
 .byte   N24 ,As1 ,v088
 .byte   W72
@ 006   ----------------------------------------
Label_10_0144DC0E:
 .byte   N24 ,Fs1 ,v088
 .byte   W24
 .byte   As1
 .byte   W24
 .byte   Fs1
 .byte   W24
 .byte   As1
 .byte   W24
 .byte   PEND 
@ 007   ----------------------------------------
Label_10_0144DC19:
 .byte   W24
 .byte   N24 ,Dn1 ,v088
 .byte   W48
 .byte   N12
 .byte   W12
 .byte   N12
 .byte   W12
 .byte   PEND 
@ 008   ----------------------------------------
Label_10_0144DC23:
 .byte   W24
 .byte   N24 ,Dn1 ,v088
 .byte   W48
 .byte   N24
 .byte   W24
 .byte   PEND 
 .byte   PATT
  .word Label_10_0144DC19
 .byte   PATT
  .word Label_10_0144DC0E
@ 009   ----------------------------------------
 .byte   W24
 .byte   N12 ,Fs1 ,v088
 .byte   W12
 .byte   N12
 .byte   W36
 .byte   N12
 .byte   W12
 .byte   N12
 .byte   W12
 .byte   PATT
  .word Label_10_0144DC0E
 .byte   PATT
  .word Label_10_0144DBB4
 .byte   PATT
  .word Label_10_0144DBB4
@ 010   ----------------------------------------
 .byte   N12 ,As1 ,v088
 .byte   W48
 .byte   N24
 .byte   W48
@ 011   ----------------------------------------
 .byte   Fs1
 .byte   W24
 .byte   N24
 .byte   W24
 .byte   N36 ,Dn1
 .byte   W36
 .byte   N12
 .byte   W12
@ 012   ----------------------------------------
 .byte   W24
 .byte   N24 ,As1
 .byte   W48
 .byte   N12 ,Bn0
 .byte   W12
 .byte   N12
 .byte   W12
@ 013   ----------------------------------------
Label_10_0144DC67:
 .byte   W24
 .byte   N24 ,As1 ,v088
 .byte   W48
 .byte   N12
 .byte   W12
 .byte   N12
 .byte   W12
 .byte   PEND 
@ 014   ----------------------------------------
 .byte   W96
 .byte   PATT
  .word Label_10_0144DC0E
 .byte   PATT
  .word Label_10_0144DC23
 .byte   PATT
  .word Label_10_0144DBB4
 .byte   PATT
  .word Label_10_0144DBB4
@ 015   ----------------------------------------
 .byte   N24 ,Fs1 ,v088
 .byte   W24
 .byte   Dn1
 .byte   W24
 .byte   Fs1
 .byte   W24
 .byte   As1
 .byte   W24
 .byte   PATT
  .word Label_10_0144DC67
 .byte   PATT
  .word Label_10_0144DBB4
 .byte   PATT
  .word Label_10_0144DBB4
 .byte   PATT
  .word Label_10_0144DBCC
 .byte   PATT
  .word Label_10_0144DBB4
 .byte   PATT
  .word Label_10_0144DBB4
 .byte   PATT
  .word Label_10_0144DBC1
 .byte   PATT
  .word Label_10_0144DBCC
 .byte   PATT
  .word Label_10_0144DBB4
 .byte   PATT
  .word Label_10_0144DBB4
@ 016   ----------------------------------------
 .byte   W24
 .byte   N24 ,As1 ,v088
 .byte   W72
 .byte   PATT
  .word Label_10_0144DBCC
 .byte   PATT
  .word Label_10_0144DBB4
 .byte   PATT
  .word Label_10_0144DBB4
 .byte   PATT
  .word Label_10_0144DBC1
 .byte   PATT
  .word Label_10_0144DBCC
 .byte   PATT
  .word Label_10_0144DBB4
 .byte   PATT
  .word Label_10_0144DBB4
@ 017   ----------------------------------------
 .byte   W24
 .byte   N24 ,As1 ,v088
 .byte   W72
@ 018   ----------------------------------------
 .byte   Fs1
 .byte   W24
 .byte   Dn1
 .byte   W24
 .byte   N12 ,Fs1
 .byte   W12
 .byte   N12
 .byte   W12
 .byte   N24 ,Dn1
 .byte   W24
 .byte   PATT
  .word Label_10_0144DC67
 .byte   PATT
  .word Label_10_0144DBB4
 .byte   PATT
  .word Label_10_0144DC67
@ 019   ----------------------------------------
 .byte   N24 ,Fs1 ,v088
 .byte   W24
 .byte   N24
 .byte   W24
 .byte   N24
 .byte   W24
 .byte   N24
 .byte   W24
@ 020   ----------------------------------------
 .byte   W24
 .byte   As1
 .byte   W48
 .byte   N12
 .byte   W12
 .byte   Fs1
 .byte   W12
@ 021   ----------------------------------------
 .byte   W24
 .byte   N36 ,Bn0
 .byte   W48
 .byte   N12 ,As1
 .byte   W12
 .byte   N12
 .byte   W12
@ 022   ----------------------------------------
 .byte   W48
 .byte   N24
 .byte   W24
 .byte   N12 ,Fs1
 .byte   W12
 .byte   As1
 .byte   W12
@ 023   ----------------------------------------
Label_10_0144DD2C:
 .byte   N24 ,Bn0 ,v088
 .byte   W24
 .byte   N24
 .byte   W24
 .byte   N24
 .byte   W24
 .byte   N24
 .byte   W24
 .byte   PEND 
 .byte   PATT
  .word Label_10_0144DD2C
 .byte   PATT
  .word Label_10_0144DD2C
 .byte   PATT
  .word Label_10_0144DD2C
 .byte   PATT
  .word Label_10_0144DD2C
 .byte   PATT
  .word Label_10_0144DD2C
 .byte   PATT
  .word Label_10_0144DD2C
@ 024   ----------------------------------------
 .byte   W96
@ 025   ----------------------------------------
 .byte   GOTO
  .word Label_10_0144DB9E
 .byte   FINE

@**************** Track 12 (Midi-Chn.11) ****************@

song16_012:
@ 000   ----------------------------------------
 .byte   KEYSH , song16_key+0
Label_11_0144DD5E:
 .byte   VOICE , 124
 .byte   MODT 0
 .byte   CnM2
 .byte   LFOS 0
 .byte   Gs1
 .byte   VOL , 28*song16_mvl/mxv
 .byte   PAN , c_v+0
 .byte   VOL , 28*song16_mvl/mxv
 .byte   W24
 .byte   N24 ,As1 ,v088
 .byte   W48
 .byte   N24
 .byte   W24
@ 001   ----------------------------------------
Label_11_0144DD71:
 .byte   W24
 .byte   N24 ,Dn1 ,v088
 .byte   W48
 .byte   N24
 .byte   W24
 .byte   PEND 
 .byte   PATT
  .word Label_11_0144DD71
@ 002   ----------------------------------------
Label_11_0144DD7E:
 .byte   W24
 .byte   N24 ,Dn1 ,v088
 .byte   W48
 .byte   N12 ,As1
 .byte   W12
 .byte   N12
 .byte   W12
 .byte   PEND 
@ 003   ----------------------------------------
Label_11_0144DD89:
 .byte   W24
 .byte   N24 ,As1 ,v088
 .byte   W48
 .byte   N24
 .byte   W24
 .byte   PEND 
 .byte   PATT
  .word Label_11_0144DD71
 .byte   PATT
  .word Label_11_0144DD71
@ 004   ----------------------------------------
 .byte   W24
 .byte   N24 ,Fs1 ,v088
 .byte   W72
 .byte   PATT
  .word Label_11_0144DD89
 .byte   PATT
  .word Label_11_0144DD71
 .byte   PATT
  .word Label_11_0144DD71
 .byte   PATT
  .word Label_11_0144DD7E
 .byte   PATT
  .word Label_11_0144DD89
 .byte   PATT
  .word Label_11_0144DD71
 .byte   PATT
  .word Label_11_0144DD71
@ 005   ----------------------------------------
 .byte   W24
 .byte   N24 ,Dn1 ,v088
 .byte   W72
 .byte   PATT
  .word Label_11_0144DD71
@ 006   ----------------------------------------
Label_11_0144DDCD:
 .byte   W24
 .byte   N24 ,As1 ,v088
 .byte   W48
 .byte   N12
 .byte   W12
 .byte   N12
 .byte   W12
 .byte   PEND 
@ 007   ----------------------------------------
Label_11_0144DDD7:
 .byte   W24
 .byte   N12 ,Fs1 ,v088
 .byte   W12
 .byte   N12
 .byte   W36
 .byte   N12
 .byte   W12
 .byte   N12
 .byte   W12
 .byte   PEND 
 .byte   PATT
  .word Label_11_0144DDCD
 .byte   PATT
  .word Label_11_0144DD71
@ 008   ----------------------------------------
 .byte   W24
 .byte   N24 ,Dn1 ,v088
 .byte   W48
 .byte   N12
 .byte   W12
 .byte   N06
 .byte   W06
 .byte   N06
 .byte   W06
@ 009   ----------------------------------------
Label_11_0144DDF8:
 .byte   W24
 .byte   N24 ,Dn1 ,v088
 .byte   W48
 .byte   Bn0
 .byte   W24
 .byte   PEND 
@ 010   ----------------------------------------
 .byte   W72
 .byte   Fs1
 .byte   W24
@ 011   ----------------------------------------
Label_11_0144DE03:
 .byte   W24
 .byte   N24 ,Fs1 ,v088
 .byte   W48
 .byte   N24
 .byte   W24
 .byte   PEND 
@ 012   ----------------------------------------
 .byte   W48
 .byte   N24
 .byte   W48
@ 013   ----------------------------------------
 .byte   W48
 .byte   N36 ,As1
 .byte   W36
 .byte   N12
 .byte   W12
 .byte   PATT
  .word Label_11_0144DE03
 .byte   PATT
  .word Label_11_0144DDD7
@ 014   ----------------------------------------
 .byte   W96
 .byte   PATT
  .word Label_11_0144DDF8
 .byte   PATT
  .word Label_11_0144DE03
 .byte   PATT
  .word Label_11_0144DD71
 .byte   PATT
  .word Label_11_0144DD71
@ 015   ----------------------------------------
 .byte   W24
 .byte   N24 ,As1 ,v088
 .byte   W48
 .byte   Bn0
 .byte   W24
 .byte   PATT
  .word Label_11_0144DE03
 .byte   PATT
  .word Label_11_0144DD71
@ 016   ----------------------------------------
 .byte   W24
 .byte   N24 ,Fs1 ,v088
 .byte   W72
 .byte   PATT
  .word Label_11_0144DD89
 .byte   PATT
  .word Label_11_0144DD71
 .byte   PATT
  .word Label_11_0144DD71
 .byte   PATT
  .word Label_11_0144DD7E
 .byte   PATT
  .word Label_11_0144DD89
 .byte   PATT
  .word Label_11_0144DD71
 .byte   PATT
  .word Label_11_0144DD71
@ 017   ----------------------------------------
 .byte   W24
 .byte   N24 ,Fs1 ,v088
 .byte   W72
 .byte   PATT
  .word Label_11_0144DD89
 .byte   PATT
  .word Label_11_0144DD71
 .byte   PATT
  .word Label_11_0144DD71
 .byte   PATT
  .word Label_11_0144DD7E
 .byte   PATT
  .word Label_11_0144DD89
 .byte   PATT
  .word Label_11_0144DD71
 .byte   PATT
  .word Label_11_0144DD71
@ 018   ----------------------------------------
 .byte   W24
 .byte   N24 ,Dn1 ,v088
 .byte   W72
 .byte   PATT
  .word Label_11_0144DD89
@ 019   ----------------------------------------
 .byte   W24
 .byte   N12 ,Fs1 ,v088
 .byte   W12
 .byte   N12
 .byte   W36
 .byte   N24
 .byte   W24
 .byte   PATT
  .word Label_11_0144DDD7
 .byte   PATT
  .word Label_11_0144DDD7
 .byte   PATT
  .word Label_11_0144DD89
@ 020   ----------------------------------------
 .byte   W24
 .byte   N24 ,Fs1 ,v088
 .byte   W48
 .byte   N12
 .byte   W24
@ 021   ----------------------------------------
 .byte   W24
 .byte   N24
 .byte   W48
 .byte   N12
 .byte   W12
 .byte   N12
 .byte   W12
@ 022   ----------------------------------------
 .byte   W48
 .byte   N24
 .byte   W36
 .byte   N12
 .byte   W12
@ 023   ----------------------------------------
Label_11_0144DEC9:
 .byte   N24 ,An2 ,v088
 .byte   W24
 .byte   Gn2
 .byte   W24
 .byte   An2
 .byte   W24
 .byte   Gn2
 .byte   W24
 .byte   PEND 
 .byte   PATT
  .word Label_11_0144DEC9
 .byte   PATT
  .word Label_11_0144DEC9
 .byte   PATT
  .word Label_11_0144DEC9
 .byte   PATT
  .word Label_11_0144DEC9
 .byte   PATT
  .word Label_11_0144DEC9
 .byte   PATT
  .word Label_11_0144DEC9
@ 024   ----------------------------------------
 .byte   W96
@ 025   ----------------------------------------
 .byte   GOTO
  .word Label_11_0144DD5E
 .byte   FINE

@**************** Track 13 (Midi-Chn.12) ****************@

song16_013:
@ 000   ----------------------------------------
 .byte   KEYSH , song16_key+0
Label_12_0144DEFE:
 .byte   VOICE , 124
 .byte   MODT 0
 .byte   CnM2
 .byte   LFOS 0
 .byte   Gs1
 .byte   VOL , 28*song16_mvl/mxv
 .byte   PAN , c_v+0
 .byte   VOL , 28*song16_mvl/mxv
 .byte   W24
 .byte   N24 ,Fs1 ,v088
 .byte   W48
 .byte   N24
 .byte   W24
@ 001   ----------------------------------------
 .byte   W96
@ 002   ----------------------------------------
 .byte   W96
@ 003   ----------------------------------------
 .byte   W96
@ 004   ----------------------------------------
Label_12_0144DF14:
 .byte   W24
 .byte   N24 ,Fs1 ,v088
 .byte   W48
 .byte   N24
 .byte   W24
 .byte   PEND 
@ 005   ----------------------------------------
 .byte   W96
@ 006   ----------------------------------------
 .byte   W96
@ 007   ----------------------------------------
 .byte   W96
 .byte   PATT
  .word Label_12_0144DF14
@ 008   ----------------------------------------
 .byte   W96
@ 009   ----------------------------------------
 .byte   W96
@ 010   ----------------------------------------
 .byte   W96
 .byte   PATT
  .word Label_12_0144DF14
@ 011   ----------------------------------------
 .byte   W96
@ 012   ----------------------------------------
 .byte   W96
@ 013   ----------------------------------------
 .byte   W96
@ 014   ----------------------------------------
Label_12_0144DF2F:
 .byte   W24
 .byte   N12 ,Fs1 ,v088
 .byte   W12
 .byte   N12
 .byte   W36
 .byte   N12
 .byte   W12
 .byte   N12
 .byte   W12
 .byte   PEND 
@ 015   ----------------------------------------
 .byte   W96
@ 016   ----------------------------------------
 .byte   W96
@ 017   ----------------------------------------
 .byte   W96
 .byte   PATT
  .word Label_12_0144DF2F
@ 018   ----------------------------------------
 .byte   W96
 .byte   PATT
  .word Label_12_0144DF14
@ 019   ----------------------------------------
 .byte   W96
@ 020   ----------------------------------------
 .byte   W96
@ 021   ----------------------------------------
 .byte   W96
@ 022   ----------------------------------------
 .byte   W48
 .byte   N24 ,Fs1 ,v088
 .byte   W24
 .byte   N12
 .byte   W12
 .byte   N12
 .byte   W12
@ 023   ----------------------------------------
 .byte   W96
@ 024   ----------------------------------------
 .byte   W96
@ 025   ----------------------------------------
 .byte   W96
@ 026   ----------------------------------------
 .byte   W24
 .byte   N24
 .byte   W48
 .byte   N12
 .byte   W12
 .byte   N12
 .byte   W12
@ 027   ----------------------------------------
 .byte   W96
@ 028   ----------------------------------------
 .byte   W96
@ 029   ----------------------------------------
 .byte   W96
 .byte   PATT
  .word Label_12_0144DF14
@ 030   ----------------------------------------
 .byte   W96
@ 031   ----------------------------------------
 .byte   W96
@ 032   ----------------------------------------
 .byte   W96
 .byte   PATT
  .word Label_12_0144DF14
@ 033   ----------------------------------------
 .byte   W96
@ 034   ----------------------------------------
 .byte   W96
@ 035   ----------------------------------------
 .byte   W96
 .byte   PATT
  .word Label_12_0144DF14
@ 036   ----------------------------------------
 .byte   W96
@ 037   ----------------------------------------
 .byte   W96
@ 038   ----------------------------------------
 .byte   W96
 .byte   PATT
  .word Label_12_0144DF14
@ 039   ----------------------------------------
 .byte   W96
@ 040   ----------------------------------------
 .byte   W96
@ 041   ----------------------------------------
 .byte   W96
 .byte   PATT
  .word Label_12_0144DF14
@ 042   ----------------------------------------
 .byte   W96
@ 043   ----------------------------------------
 .byte   W96
@ 044   ----------------------------------------
 .byte   W96
 .byte   PATT
  .word Label_12_0144DF14
@ 045   ----------------------------------------
 .byte   W96
@ 046   ----------------------------------------
 .byte   W96
@ 047   ----------------------------------------
 .byte   W96
@ 048   ----------------------------------------
 .byte   W24
 .byte   N24 ,Dn1 ,v088
 .byte   W48
 .byte   N24
 .byte   W24
@ 049   ----------------------------------------
 .byte   W96
@ 050   ----------------------------------------
 .byte   W96
@ 051   ----------------------------------------
 .byte   W96
@ 052   ----------------------------------------
Label_12_0144DF9C:
 .byte   N24 ,Fs1 ,v088
 .byte   W24
 .byte   N24
 .byte   W24
 .byte   N24
 .byte   W24
 .byte   N24
 .byte   W24
 .byte   PEND 
 .byte   PATT
  .word Label_12_0144DF9C
 .byte   PATT
  .word Label_12_0144DF9C
 .byte   PATT
  .word Label_12_0144DF9C
 .byte   PATT
  .word Label_12_0144DF9C
 .byte   PATT
  .word Label_12_0144DF9C
 .byte   PATT
  .word Label_12_0144DF9C
@ 053   ----------------------------------------
 .byte   W96
@ 054   ----------------------------------------
 .byte   GOTO
  .word Label_12_0144DEFE
 .byte   FINE

@******************************************************@
	.align	2

song16:
	.byte	13	@ NumTrks
	.byte	0	@ NumBlks
	.byte	song16_pri	@ Priority
	.byte	song16_rev	@ Reverb.
    
	.word	song16_grp
    
	.word	song16_001
	.word	song16_002
	.word	song16_003
	.word	song16_004
	.word	song16_005
	.word	song16_006
	.word	song16_007
	.word	song16_008
	.word	song16_009
	.word	song16_010
	.word	song16_011
	.word	song16_012
	.word	song16_013

	.end
