        .include "MPlayDef.s"

        .equ    anothertest_grp, voicegroup000
        .equ    anothertest_pri, 0
        .equ    anothertest_rev, 0
        .equ    anothertest_key, 0

        .section .rodata
        .global anothertest
        .align  2

@****************** Track 0 (Midi-Chn.0) ******************@

anothertest_0:
        .byte   KEYSH , anothertest_key+0
@ 000   ----------------------------------------
        .byte   TEMPO , 148/2
anothertest_0_LOOP:
        .byte           VOICE , 14
        .byte           VOL   , 45
        .byte   W96
@ 001   ----------------------------------------
        .byte   W96
@ 002   ----------------------------------------
        .byte   W96
@ 003   ----------------------------------------
        .byte   W96
@ 004   ----------------------------------------
        .byte   W96
@ 005   ----------------------------------------
        .byte   W96
@ 006   ----------------------------------------
        .byte   W96
@ 007   ----------------------------------------
        .byte   W96
@ 008   ----------------------------------------
        .byte   W96
@ 009   ----------------------------------------
        .byte   W96
@ 010   ----------------------------------------
        .byte   W96
@ 011   ----------------------------------------
        .byte   W96
@ 012   ----------------------------------------
        .byte   W96
@ 013   ----------------------------------------
        .byte   W96
@ 014   ----------------------------------------
        .byte   W96
@ 015   ----------------------------------------
        .byte   W96
@ 016   ----------------------------------------
        .byte   W96
@ 017   ----------------------------------------
        .byte   W96
@ 018   ----------------------------------------
        .byte   W96
@ 019   ----------------------------------------
        .byte   W96
@ 020   ----------------------------------------
        .byte   W96
@ 021   ----------------------------------------
        .byte   W96
@ 022   ----------------------------------------
        .byte   W96
@ 023   ----------------------------------------
        .byte   W96
@ 024   ----------------------------------------
        .byte   W96
@ 025   ----------------------------------------
        .byte   W96
@ 026   ----------------------------------------
        .byte   W96
@ 027   ----------------------------------------
        .byte   W96
@ 028   ----------------------------------------
        .byte   W96
@ 029   ----------------------------------------
        .byte   W96
@ 030   ----------------------------------------
        .byte   W96
@ 031   ----------------------------------------
        .byte   W96
@ 032   ----------------------------------------
        .byte   W96
@ 033   ----------------------------------------
        .byte   W96
@ 034   ----------------------------------------
        .byte   W96
@ 035   ----------------------------------------
        .byte   W96
@ 036   ----------------------------------------
        .byte   W96
@ 037   ----------------------------------------
        .byte   W96
@ 038   ----------------------------------------
        .byte   W96
@ 039   ----------------------------------------
        .byte   W96
@ 040   ----------------------------------------
        .byte   W96
@ 041   ----------------------------------------
        .byte   W96
@ 042   ----------------------------------------
        .byte   W96
@ 043   ----------------------------------------
        .byte   W96
@ 044   ----------------------------------------
        .byte   W96
@ 045   ----------------------------------------
        .byte   W96
@ 046   ----------------------------------------
        .byte   W96
@ 047   ----------------------------------------
        .byte   W96
@ 048   ----------------------------------------
        .byte   W96
@ 049   ----------------------------------------
        .byte   W96
@ 050   ----------------------------------------
        .byte   W96
@ 051   ----------------------------------------
        .byte   W96
@ 052   ----------------------------------------
        .byte   W96
@ 053   ----------------------------------------
        .byte   W96
@ 054   ----------------------------------------
        .byte   W96
@ 055   ----------------------------------------
        .byte   W96
@ 056   ----------------------------------------
        .byte   W96
@ 057   ----------------------------------------
        .byte   W96
@ 058   ----------------------------------------
        .byte   W96
@ 059   ----------------------------------------
        .byte   W96
@ 060   ----------------------------------------
        .byte   W96
@ 061   ----------------------------------------
        .byte   W96
@ 062   ----------------------------------------
        .byte   W96
@ 063   ----------------------------------------
        .byte   W96
@ 064   ----------------------------------------
        .byte   W96
@ 065   ----------------------------------------
        .byte   W96
@ 066   ----------------------------------------
        .byte   W96
@ 067   ----------------------------------------
        .byte   W96
@ 068   ----------------------------------------
        .byte   W96
@ 069   ----------------------------------------
        .byte   W96
@ 070   ----------------------------------------
        .byte   W96
@ 071   ----------------------------------------
        .byte   W96
@ 072   ----------------------------------------
        .byte   W96
@ 073   ----------------------------------------
        .byte   W96
@ 074   ----------------------------------------
        .byte   W96
@ 075   ----------------------------------------
        .byte   W96
@ 076   ----------------------------------------
        .byte   W96
@ 077   ----------------------------------------
        .byte   W96
@ 078   ----------------------------------------
        .byte   W96
@ 079   ----------------------------------------
        .byte   W96
@ 080   ----------------------------------------
        .byte   W96
@ 081   ----------------------------------------
        .byte   W96
@ 082   ----------------------------------------
        .byte   W96
@ 083   ----------------------------------------
        .byte   W96
@ 084   ----------------------------------------
        .byte   W96
@ 085   ----------------------------------------
        .byte   W96
@ 086   ----------------------------------------
        .byte   W96
@ 087   ----------------------------------------
        .byte   W96
@ 088   ----------------------------------------
        .byte   W96
@ 089   ----------------------------------------
        .byte   W96
@ 090   ----------------------------------------
        .byte   W96
@ 091   ----------------------------------------
        .byte   W96
@ 092   ----------------------------------------
        .byte   W96
@ 093   ----------------------------------------
        .byte   W96
@ 094   ----------------------------------------
        .byte   W96
@ 095   ----------------------------------------
        .byte   W96
@ 096   ----------------------------------------
        .byte   W96
@ 097   ----------------------------------------
        .byte   W96
@ 098   ----------------------------------------
        .byte   W96
@ 099   ----------------------------------------
        .byte   W96
@ 100   ----------------------------------------
        .byte   W96
@ 101   ----------------------------------------
        .byte   W96
@ 102   ----------------------------------------
        .byte   W96
@ 103   ----------------------------------------
        .byte   W96
@ 104   ----------------------------------------
        .byte   W96
@ 105   ----------------------------------------
        .byte   W96
@ 106   ----------------------------------------
        .byte   W96
@ 107   ----------------------------------------
        .byte   W96
@ 108   ----------------------------------------
        .byte   W96
@ 109   ----------------------------------------
        .byte   W96
@ 110   ----------------------------------------
        .byte   W96
@ 111   ----------------------------------------
        .byte   W96
@ 112   ----------------------------------------
        .byte   W96
@ 113   ----------------------------------------
        .byte   W96
@ 114   ----------------------------------------
        .byte   W96
@ 115   ----------------------------------------
        .byte   W96
@ 116   ----------------------------------------
        .byte   W96
@ 117   ----------------------------------------
        .byte   W96
@ 118   ----------------------------------------
        .byte   W96
@ 119   ----------------------------------------
        .byte   W96
@ 120   ----------------------------------------
        .byte   W96
@ 121   ----------------------------------------
        .byte   W96
@ 122   ----------------------------------------
        .byte   W96
@ 123   ----------------------------------------
        .byte   W96
@ 124   ----------------------------------------
anothertest_0_124:
        .byte           N05   , Bn2 , v120
        .byte   W06
        .byte           N17
        .byte   W18
        .byte           N05
        .byte   W06
        .byte                   Bn2
        .byte   W06
        .byte           N11
        .byte   W60
        .byte   PEND
@ 125   ----------------------------------------
        .byte   PATT
         .word  anothertest_0_124
@ 126   ----------------------------------------
anothertest_0_126:
        .byte           N05   , Ds2 , v120
        .byte   W06
        .byte           N17
        .byte   W18
        .byte           N05
        .byte   W06
        .byte                   Ds2
        .byte   W06
        .byte           N11
        .byte   W60
        .byte   PEND
@ 127   ----------------------------------------
        .byte   PATT
         .word  anothertest_0_126
@ 128   ----------------------------------------
        .byte   PATT
         .word  anothertest_0_124
@ 129   ----------------------------------------
        .byte   PATT
         .word  anothertest_0_124
@ 130   ----------------------------------------
anothertest_0_130:
        .byte           N05   , Gs2 , v120
        .byte   W06
        .byte           N17
        .byte   W18
        .byte           N05
        .byte   W06
        .byte                   Gs2
        .byte   W06
        .byte           N11
        .byte   W60
        .byte   PEND
@ 131   ----------------------------------------
        .byte   PATT
         .word  anothertest_0_130
@ 132   ----------------------------------------
anothertest_0_132:
        .byte           N05   , An2 , v120
        .byte   W06
        .byte           N17
        .byte   W18
        .byte           N05
        .byte   W06
        .byte                   An2
        .byte   W06
        .byte           N11
        .byte   W60
        .byte   PEND
@ 133   ----------------------------------------
        .byte   PATT
         .word  anothertest_0_132
@ 134   ----------------------------------------
anothertest_0_134:
        .byte           N05   , Cs3 , v120
        .byte   W06
        .byte           N17
        .byte   W18
        .byte           N05
        .byte   W06
        .byte                   Cs3
        .byte   W06
        .byte           N11
        .byte   W60
        .byte   PEND
@ 135   ----------------------------------------
        .byte   PATT
         .word  anothertest_0_134
@ 136   ----------------------------------------
        .byte   PATT
         .word  anothertest_0_124
@ 137   ----------------------------------------
        .byte   PATT
         .word  anothertest_0_124
@ 138   ----------------------------------------
anothertest_0_138:
        .byte           N05   , Dn3 , v120
        .byte   W06
        .byte           N17
        .byte   W18
        .byte           N05
        .byte   W06
        .byte                   Dn3
        .byte   W06
        .byte           N11
        .byte   W60
        .byte   PEND
@ 139   ----------------------------------------
        .byte   PATT
         .word  anothertest_0_138
@ 140   ----------------------------------------
        .byte   GOTO
         .word  anothertest_0_LOOP
        .byte   FINE

@****************** Track 1 (Midi-Chn.1) ******************@

anothertest_1:
        .byte   KEYSH , anothertest_key+0
@ 000   ----------------------------------------
anothertest_1_LOOP:
        .byte           VOICE , 48
        .byte           PAN   , c_v-8
        .byte           VOL   , 57
        .byte           N05   , Gs3 , v120
        .byte   W06
        .byte                   Fs3
        .byte   W06
        .byte                   Cs3
        .byte   W06
        .byte                   Bn2
        .byte   W06
        .byte                   Gs2
        .byte   W06
        .byte                   Bn2
        .byte   W06
        .byte                   Cs3
        .byte   W06
        .byte                   Fs3
        .byte   W06
        .byte                   Gs3
        .byte   W06
        .byte                   Fs3
        .byte   W06
        .byte                   Cs3
        .byte   W06
        .byte                   Bn2
        .byte   W06
        .byte                   Gs2
        .byte   W06
        .byte                   Bn2
        .byte   W06
        .byte                   Cs3
        .byte   W06
        .byte                   Fs3
        .byte   W06
@ 001   ----------------------------------------
anothertest_1_1:
        .byte           N05   , Gs3 , v120
        .byte   W06
        .byte                   Fs3
        .byte   W06
        .byte                   Cs3
        .byte   W06
        .byte                   Bn2
        .byte   W06
        .byte                   Gs2
        .byte   W06
        .byte                   Bn2
        .byte   W06
        .byte                   Cs3
        .byte   W06
        .byte                   Fs3
        .byte   W06
        .byte                   Gs3
        .byte   W06
        .byte                   Fs3
        .byte   W06
        .byte                   Cs3
        .byte   W06
        .byte                   Bn2
        .byte   W06
        .byte                   Gs2
        .byte   W06
        .byte                   Bn2
        .byte   W06
        .byte                   Cs3
        .byte   W06
        .byte                   Fs3
        .byte   W06
        .byte   PEND
@ 002   ----------------------------------------
        .byte   PATT
         .word  anothertest_1_1
@ 003   ----------------------------------------
        .byte           N05   , Gs3 , v120
        .byte   W06
        .byte                   Fs3
        .byte   W06
        .byte                   Cs3
        .byte   W06
        .byte                   Bn2
        .byte   W06
        .byte                   Gs2
        .byte   W06
        .byte                   Bn2
        .byte   W06
        .byte                   Cs3
        .byte   W06
        .byte                   Fs3
        .byte   W06
        .byte                   Gs3
        .byte   W06
        .byte                   Fs3
        .byte   W06
        .byte                   En3
        .byte   W06
        .byte                   Cs3
        .byte   W06
        .byte                   Ds3
        .byte   W06
        .byte                   As2
        .byte   W06
        .byte                   Gs2
        .byte   W06
        .byte                   Fn2
        .byte   W06
@ 004   ----------------------------------------
        .byte   W96
@ 005   ----------------------------------------
        .byte   W96
@ 006   ----------------------------------------
        .byte   W96
@ 007   ----------------------------------------
        .byte   W96
@ 008   ----------------------------------------
        .byte   W96
@ 009   ----------------------------------------
        .byte   W96
@ 010   ----------------------------------------
        .byte   W96
@ 011   ----------------------------------------
        .byte   W96
@ 012   ----------------------------------------
        .byte   W96
@ 013   ----------------------------------------
        .byte   W96
@ 014   ----------------------------------------
        .byte   W96
@ 015   ----------------------------------------
        .byte   W96
@ 016   ----------------------------------------
        .byte   W96
@ 017   ----------------------------------------
        .byte   W96
@ 018   ----------------------------------------
        .byte   W96
@ 019   ----------------------------------------
        .byte   W96
@ 020   ----------------------------------------
        .byte   W96
@ 021   ----------------------------------------
        .byte   W96
@ 022   ----------------------------------------
        .byte   W96
@ 023   ----------------------------------------
        .byte   W96
@ 024   ----------------------------------------
        .byte   W96
@ 025   ----------------------------------------
        .byte   W96
@ 026   ----------------------------------------
        .byte   W96
@ 027   ----------------------------------------
        .byte   W96
@ 028   ----------------------------------------
        .byte   W96
@ 029   ----------------------------------------
        .byte   W96
@ 030   ----------------------------------------
        .byte   W96
@ 031   ----------------------------------------
        .byte   W96
@ 032   ----------------------------------------
        .byte   W96
@ 033   ----------------------------------------
        .byte   W96
@ 034   ----------------------------------------
        .byte   W96
@ 035   ----------------------------------------
        .byte   W96
@ 036   ----------------------------------------
        .byte   W96
@ 037   ----------------------------------------
        .byte   W96
@ 038   ----------------------------------------
        .byte   W96
@ 039   ----------------------------------------
        .byte   W96
@ 040   ----------------------------------------
        .byte   W96
@ 041   ----------------------------------------
        .byte   W96
@ 042   ----------------------------------------
        .byte   W96
@ 043   ----------------------------------------
        .byte   W96
@ 044   ----------------------------------------
        .byte   W96
@ 045   ----------------------------------------
        .byte   W96
@ 046   ----------------------------------------
        .byte   W96
@ 047   ----------------------------------------
        .byte   W96
@ 048   ----------------------------------------
        .byte   W96
@ 049   ----------------------------------------
        .byte   W96
@ 050   ----------------------------------------
        .byte   W96
@ 051   ----------------------------------------
        .byte   W96
@ 052   ----------------------------------------
anothertest_1_52:
        .byte           N32   , Cs3 , v120 , gtp3
        .byte   W36
        .byte           N05
        .byte   W06
        .byte                   Cs3
        .byte   W06
        .byte           N32   , Cs3 , v120 , gtp3
        .byte   W36
        .byte           N05
        .byte   W06
        .byte                   Cs3
        .byte   W06
        .byte   PEND
@ 053   ----------------------------------------
anothertest_1_53:
        .byte           N23   , Cs3 , v120
        .byte   W24
        .byte                   Cs3
        .byte   W24
        .byte           N17
        .byte   W18
        .byte                   Cs3
        .byte   W18
        .byte           N11   , Bn2
        .byte   W12
        .byte   PEND
@ 054   ----------------------------------------
anothertest_1_54:
        .byte           N32   , Gs2 , v120 , gtp3
        .byte   W36
        .byte           N05
        .byte   W06
        .byte                   Gs2
        .byte   W06
        .byte           N32   , Gs2 , v120 , gtp3
        .byte   W36
        .byte           N05
        .byte   W06
        .byte                   Gs2
        .byte   W06
        .byte   PEND
@ 055   ----------------------------------------
anothertest_1_55:
        .byte           N23   , Gs2 , v120
        .byte   W24
        .byte                   Gs2
        .byte   W24
        .byte           N17
        .byte   W18
        .byte                   Gs2
        .byte   W18
        .byte           N11   , As2
        .byte   W12
        .byte   PEND
@ 056   ----------------------------------------
        .byte   PATT
         .word  anothertest_1_52
@ 057   ----------------------------------------
        .byte   PATT
         .word  anothertest_1_53
@ 058   ----------------------------------------
        .byte   PATT
         .word  anothertest_1_54
@ 059   ----------------------------------------
anothertest_1_59:
        .byte           N23   , Gs2 , v120
        .byte   W24
        .byte                   Gs2
        .byte   W24
        .byte           N17
        .byte   W18
        .byte                   Fs2
        .byte   W18
        .byte           N11   , En2
        .byte   W12
        .byte   PEND
@ 060   ----------------------------------------
anothertest_1_60:
        .byte           N32   , En2 , v120 , gtp3
        .byte   W36
        .byte           N05
        .byte   W06
        .byte                   En2
        .byte   W06
        .byte           N32   , En2 , v120 , gtp3
        .byte   W36
        .byte           N05
        .byte   W06
        .byte                   En2
        .byte   W06
        .byte   PEND
@ 061   ----------------------------------------
anothertest_1_61:
        .byte           N23   , En2 , v120
        .byte   W24
        .byte                   En2
        .byte   W24
        .byte           N17
        .byte   W18
        .byte                   En2
        .byte   W18
        .byte           N11   , Fs2
        .byte   W12
        .byte   PEND
@ 062   ----------------------------------------
        .byte   PATT
         .word  anothertest_1_60
@ 063   ----------------------------------------
anothertest_1_63:
        .byte           N23   , En2 , v120
        .byte   W24
        .byte                   En2
        .byte   W24
        .byte           N17
        .byte   W18
        .byte                   En2
        .byte   W18
        .byte           N11
        .byte   W12
        .byte   PEND
@ 064   ----------------------------------------
anothertest_1_64:
        .byte           N32   , Fs2 , v120 , gtp3
        .byte   W36
        .byte           N05
        .byte   W06
        .byte                   Fs2
        .byte   W06
        .byte           N32   , Fs2 , v120 , gtp3
        .byte   W36
        .byte           N05
        .byte   W06
        .byte                   Fs2
        .byte   W06
        .byte   PEND
@ 065   ----------------------------------------
anothertest_1_65:
        .byte           N23   , Fs2 , v120
        .byte   W24
        .byte                   Fs2
        .byte   W24
        .byte           N17
        .byte   W18
        .byte                   Fs2
        .byte   W18
        .byte           N11
        .byte   W12
        .byte   PEND
@ 066   ----------------------------------------
        .byte   PATT
         .word  anothertest_1_54
@ 067   ----------------------------------------
anothertest_1_67:
        .byte           N23   , Gs2 , v120
        .byte   W24
        .byte                   Gs2
        .byte   W24
        .byte           N17
        .byte   W18
        .byte                   Gs2
        .byte   W18
        .byte           N11
        .byte   W12
        .byte   PEND
@ 068   ----------------------------------------
        .byte   W96
@ 069   ----------------------------------------
        .byte   W96
@ 070   ----------------------------------------
        .byte   W96
@ 071   ----------------------------------------
        .byte   W96
@ 072   ----------------------------------------
        .byte   W96
@ 073   ----------------------------------------
        .byte   W96
@ 074   ----------------------------------------
        .byte   W96
@ 075   ----------------------------------------
        .byte   W96
@ 076   ----------------------------------------
        .byte   W96
@ 077   ----------------------------------------
        .byte   W96
@ 078   ----------------------------------------
        .byte   W96
@ 079   ----------------------------------------
        .byte   W96
@ 080   ----------------------------------------
        .byte   W96
@ 081   ----------------------------------------
        .byte   W96
@ 082   ----------------------------------------
        .byte   W96
@ 083   ----------------------------------------
        .byte   W96
@ 084   ----------------------------------------
        .byte   W96
@ 085   ----------------------------------------
        .byte   W96
@ 086   ----------------------------------------
        .byte   W96
@ 087   ----------------------------------------
        .byte   W96
@ 088   ----------------------------------------
        .byte   W96
@ 089   ----------------------------------------
        .byte   W96
@ 090   ----------------------------------------
        .byte   W96
@ 091   ----------------------------------------
        .byte   W96
@ 092   ----------------------------------------
        .byte   W96
@ 093   ----------------------------------------
        .byte   W96
@ 094   ----------------------------------------
        .byte   W96
@ 095   ----------------------------------------
        .byte   W96
@ 096   ----------------------------------------
        .byte   W96
@ 097   ----------------------------------------
        .byte   W96
@ 098   ----------------------------------------
        .byte   W96
@ 099   ----------------------------------------
        .byte   W96
@ 100   ----------------------------------------
        .byte   PATT
         .word  anothertest_1_52
@ 101   ----------------------------------------
        .byte   PATT
         .word  anothertest_1_53
@ 102   ----------------------------------------
        .byte   PATT
         .word  anothertest_1_54
@ 103   ----------------------------------------
        .byte   PATT
         .word  anothertest_1_55
@ 104   ----------------------------------------
        .byte   PATT
         .word  anothertest_1_52
@ 105   ----------------------------------------
        .byte   PATT
         .word  anothertest_1_53
@ 106   ----------------------------------------
        .byte   PATT
         .word  anothertest_1_54
@ 107   ----------------------------------------
        .byte   PATT
         .word  anothertest_1_59
@ 108   ----------------------------------------
        .byte   PATT
         .word  anothertest_1_60
@ 109   ----------------------------------------
        .byte   PATT
         .word  anothertest_1_61
@ 110   ----------------------------------------
        .byte   PATT
         .word  anothertest_1_60
@ 111   ----------------------------------------
        .byte   PATT
         .word  anothertest_1_63
@ 112   ----------------------------------------
        .byte   PATT
         .word  anothertest_1_64
@ 113   ----------------------------------------
        .byte   PATT
         .word  anothertest_1_65
@ 114   ----------------------------------------
        .byte   PATT
         .word  anothertest_1_54
@ 115   ----------------------------------------
        .byte   PATT
         .word  anothertest_1_67
@ 116   ----------------------------------------
anothertest_1_116:
        .byte           N80   , Gs2 , v120 , gtp3
        .byte   W84
        .byte           N05
        .byte   W06
        .byte                   As2
        .byte   W06
        .byte   PEND
@ 117   ----------------------------------------
anothertest_1_117:
        .byte           N17   , Bn2 , v120
        .byte   W18
        .byte                   Cs3
        .byte   W18
        .byte           N11   , Bn2
        .byte   W12
        .byte           N23   , Gs2
        .byte   W24
        .byte                   Bn2
        .byte   W24
        .byte   PEND
@ 118   ----------------------------------------
anothertest_1_118:
        .byte           N80   , An2 , v120 , gtp3
        .byte   W84
        .byte           N05
        .byte   W06
        .byte                   Bn2
        .byte   W06
        .byte   PEND
@ 119   ----------------------------------------
anothertest_1_119:
        .byte           N17   , Cs3 , v120
        .byte   W18
        .byte                   An2
        .byte   W18
        .byte           N11   , Gs2
        .byte   W12
        .byte                   An2
        .byte   W12
        .byte                   Gs2
        .byte   W12
        .byte                   Fs2
        .byte   W12
        .byte                   An2
        .byte   W12
        .byte   PEND
@ 120   ----------------------------------------
        .byte   PATT
         .word  anothertest_1_116
@ 121   ----------------------------------------
        .byte   PATT
         .word  anothertest_1_117
@ 122   ----------------------------------------
        .byte   PATT
         .word  anothertest_1_118
@ 123   ----------------------------------------
        .byte   PATT
         .word  anothertest_1_119
@ 124   ----------------------------------------
anothertest_1_124:
        .byte           N80   , Gs2 , v120 , gtp3
        .byte   W84
        .byte           N05
        .byte   W06
        .byte                   Gs2
        .byte   W06
        .byte   PEND
@ 125   ----------------------------------------
anothertest_1_125:
        .byte           N44   , Gs2 , v120 , gtp3
        .byte   W48
        .byte           N17
        .byte   W18
        .byte                   Gs2
        .byte   W18
        .byte           N11
        .byte   W12
        .byte   PEND
@ 126   ----------------------------------------
anothertest_1_126:
        .byte           N80   , Fs2 , v120 , gtp3
        .byte   W84
        .byte           N05
        .byte   W06
        .byte                   Fs2
        .byte   W06
        .byte   PEND
@ 127   ----------------------------------------
        .byte           N23
        .byte   W24
        .byte                   As2
        .byte   W24
        .byte                   Cs3
        .byte   W24
        .byte                   Ds3
        .byte   W24
@ 128   ----------------------------------------
        .byte           N80   , En3 , v120 , gtp3
        .byte   W84
        .byte           N05   , Fs3
        .byte   W06
        .byte                   En3
        .byte   W06
@ 129   ----------------------------------------
        .byte           N44   , En3 , v120 , gtp3
        .byte   W48
        .byte           N17   , Cs3
        .byte   W18
        .byte                   En3
        .byte   W18
        .byte           N11
        .byte   W12
@ 130   ----------------------------------------
        .byte           N44   , Fs3 , v120 , gtp3
        .byte   W48
        .byte           N17
        .byte   W18
        .byte                   As3
        .byte   W18
        .byte           N05   , Fs3
        .byte   W06
        .byte                   Ds3
        .byte   W06
@ 131   ----------------------------------------
        .byte           N44   , Cs3 , v120 , gtp3
        .byte   W48
        .byte           N11
        .byte   W12
        .byte                   Ds3
        .byte   W12
        .byte                   Ds3
        .byte   W12
        .byte                   Cs3
        .byte   W12
@ 132   ----------------------------------------
anothertest_1_132:
        .byte           N80   , Cs3 , v120 , gtp3
        .byte   W84
        .byte           N05
        .byte   W06
        .byte                   Bn2
        .byte   W06
        .byte   PEND
@ 133   ----------------------------------------
        .byte           N23
        .byte   W24
        .byte                   Fs2
        .byte   W24
        .byte                   An2
        .byte   W24
        .byte                   Bn2
        .byte   W24
@ 134   ----------------------------------------
        .byte   PATT
         .word  anothertest_1_124
@ 135   ----------------------------------------
        .byte   PATT
         .word  anothertest_1_125
@ 136   ----------------------------------------
        .byte           N80   , An2 , v120 , gtp3
        .byte   W84
        .byte           N05   , Bn2
        .byte   W06
        .byte                   Fs2
        .byte   W06
@ 137   ----------------------------------------
        .byte           N44   , An2 , v120 , gtp3
        .byte   W48
        .byte           N11
        .byte   W12
        .byte                   Bn2
        .byte   W12
        .byte                   Cs3
        .byte   W12
        .byte                   En3
        .byte   W12
@ 138   ----------------------------------------
        .byte           N80   , Fs3 , v120 , gtp3
        .byte   W84
        .byte           N05
        .byte   W06
        .byte                   Fs3
        .byte   W06
@ 139   ----------------------------------------
        .byte           N44   , Fs3 , v120 , gtp3
        .byte   W48
        .byte                   Fs3
        .byte   W48
@ 140   ----------------------------------------
        .byte   GOTO
         .word  anothertest_1_LOOP
        .byte   FINE

@****************** Track 2 (Midi-Chn.2) ******************@

anothertest_2:
        .byte   KEYSH , anothertest_key+0
@ 000   ----------------------------------------
anothertest_2_LOOP:
        .byte           VOICE , 1
        .byte           VOL   , 57
        .byte           N05   , Fs4 , v108
        .byte   W06
        .byte                   Bn4
        .byte   W06
        .byte                   En5
        .byte   W06
        .byte                   Cs5
        .byte   W06
        .byte                   Fs5
        .byte   W06
        .byte                   Cs5
        .byte   W06
        .byte                   Bn4
        .byte   W06
        .byte                   En5
        .byte   W06
        .byte                   Fs4
        .byte   W06
        .byte                   Bn4
        .byte   W06
        .byte                   En5
        .byte   W06
        .byte                   Cs5
        .byte   W06
        .byte                   Fs5
        .byte   W06
        .byte                   Cs5
        .byte   W06
        .byte                   Bn4
        .byte   W06
        .byte                   En5
        .byte   W06
@ 001   ----------------------------------------
        .byte                   Fs4
        .byte   W06
        .byte                   Bn4
        .byte   W06
        .byte                   En5
        .byte   W06
        .byte                   Cs5
        .byte   W06
        .byte                   Fs5
        .byte   W06
        .byte                   Cs5
        .byte   W06
        .byte                   Bn4
        .byte   W06
        .byte                   En5
        .byte   W06
        .byte                   Fs4
        .byte   W06
        .byte                   Bn4
        .byte   W06
        .byte                   En5
        .byte   W06
        .byte                   Cs5
        .byte   W06
        .byte           N03   , Fs5
        .byte   W04
        .byte                   Cs5
        .byte   W04
        .byte                   Bn4
        .byte   W04
        .byte                   En4
        .byte   W04
        .byte                   Bn4
        .byte   W04
        .byte                   En5
        .byte   W04
@ 002   ----------------------------------------
        .byte           N05   , Fs4
        .byte   W06
        .byte                   Bn4
        .byte   W06
        .byte                   En5
        .byte   W06
        .byte                   Cs5
        .byte   W06
        .byte                   Fs5
        .byte   W06
        .byte                   Cs5
        .byte   W06
        .byte                   Bn4
        .byte   W06
        .byte                   En5
        .byte   W06
        .byte                   Fs4
        .byte   W06
        .byte                   Bn4
        .byte   W06
        .byte                   En5
        .byte   W06
        .byte                   Cs5
        .byte   W06
        .byte                   Fs5
        .byte   W06
        .byte                   Cs5
        .byte   W06
        .byte                   Bn4
        .byte   W06
        .byte                   En5
        .byte   W06
@ 003   ----------------------------------------
        .byte                   Fs4
        .byte   W06
        .byte                   Bn4
        .byte   W06
        .byte                   En5
        .byte   W06
        .byte                   Cs5
        .byte   W06
        .byte                   Fs5
        .byte   W06
        .byte                   Cs5
        .byte   W06
        .byte                   Bn4
        .byte   W06
        .byte                   En5
        .byte   W06
        .byte                   Fs4
        .byte   W06
        .byte                   Bn4
        .byte   W06
        .byte                   En5
        .byte   W06
        .byte                   Gs5
        .byte   W06
        .byte                   Fn5
        .byte   W06
        .byte                   As4
        .byte   W06
        .byte                   Fn4
        .byte   W06
        .byte                   Cs4
        .byte   W06
@ 004   ----------------------------------------
anothertest_2_4:
        .byte           N05   , Cs4 , v108
        .byte   W06
        .byte                   Ds4
        .byte   W06
        .byte                   Gs4
        .byte   W06
        .byte                   As4
        .byte   W06
        .byte                   Cs5
        .byte   W06
        .byte                   Gs4
        .byte   W06
        .byte                   As4
        .byte   W06
        .byte                   Cs5
        .byte   W06
        .byte                   Ds5
        .byte   W06
        .byte                   As4
        .byte   W06
        .byte                   Gs4
        .byte   W06
        .byte                   Fs4
        .byte   W06
        .byte                   Fn4
        .byte   W06
        .byte                   Fs4
        .byte   W06
        .byte                   Gs4
        .byte   W06
        .byte                   Cs5
        .byte   W06
        .byte   PEND
@ 005   ----------------------------------------
anothertest_2_5:
        .byte           N05   , Cs4 , v108
        .byte   W06
        .byte                   Ds4
        .byte   W06
        .byte                   Gs4
        .byte   W06
        .byte                   As4
        .byte   W06
        .byte                   Cs5
        .byte   W06
        .byte                   Gs4
        .byte   W06
        .byte                   As4
        .byte   W06
        .byte                   Cs5
        .byte   W06
        .byte                   Ds5
        .byte   W06
        .byte                   As4
        .byte   W06
        .byte                   Gs4
        .byte   W06
        .byte                   Fs4
        .byte   W06
        .byte                   Fn4
        .byte   W06
        .byte                   Fs4
        .byte   W06
        .byte                   Fn4
        .byte   W06
        .byte                   Ds4
        .byte   W06
        .byte   PEND
@ 006   ----------------------------------------
        .byte   PATT
         .word  anothertest_2_4
@ 007   ----------------------------------------
        .byte   PATT
         .word  anothertest_2_5
@ 008   ----------------------------------------
        .byte           N05   , Bn3 , v108
        .byte   W06
        .byte                   Ds4
        .byte   W06
        .byte                   Fs4
        .byte   W06
        .byte                   As4
        .byte   W06
        .byte                   Bn4
        .byte   W06
        .byte                   Fs4
        .byte   W06
        .byte                   As4
        .byte   W06
        .byte                   Bn4
        .byte   W06
        .byte                   Ds5
        .byte   W06
        .byte                   Bn4
        .byte   W06
        .byte                   As4
        .byte   W06
        .byte                   Fs4
        .byte   W06
        .byte                   Ds4
        .byte   W06
        .byte                   Fs4
        .byte   W06
        .byte                   As4
        .byte   W06
        .byte                   Bn4
        .byte   W06
@ 009   ----------------------------------------
        .byte                   Bn3
        .byte   W06
        .byte                   Ds4
        .byte   W06
        .byte                   Fs4
        .byte   W06
        .byte                   As4
        .byte   W06
        .byte                   Bn4
        .byte   W06
        .byte                   Fs4
        .byte   W06
        .byte                   As4
        .byte   W06
        .byte                   Bn4
        .byte   W06
        .byte                   Ds5
        .byte   W06
        .byte                   Bn4
        .byte   W06
        .byte                   As4
        .byte   W06
        .byte                   Fs4
        .byte   W06
        .byte                   Ds4
        .byte   W06
        .byte                   As4
        .byte   W06
        .byte                   Fs4
        .byte   W06
        .byte                   Fn4
        .byte   W06
@ 010   ----------------------------------------
        .byte                   Cs4
        .byte   W06
        .byte                   Ds4
        .byte   W06
        .byte                   Fn4
        .byte   W06
        .byte                   Gs4
        .byte   W06
        .byte                   Cs5
        .byte   W06
        .byte                   Fn4
        .byte   W06
        .byte                   Gs4
        .byte   W06
        .byte                   Cs5
        .byte   W06
        .byte                   Fn5
        .byte   W06
        .byte                   Cs5
        .byte   W06
        .byte                   Gs4
        .byte   W06
        .byte                   Fs4
        .byte   W06
        .byte                   Fn4
        .byte   W06
        .byte                   Fs4
        .byte   W06
        .byte                   Gs4
        .byte   W06
        .byte                   Cs5
        .byte   W06
@ 011   ----------------------------------------
        .byte                   Cs4
        .byte   W06
        .byte                   Ds4
        .byte   W06
        .byte                   Fn4
        .byte   W06
        .byte                   Gs4
        .byte   W06
        .byte                   Cs5
        .byte   W06
        .byte                   Fn4
        .byte   W06
        .byte                   Gs4
        .byte   W06
        .byte                   Cs5
        .byte   W06
        .byte                   Fn5
        .byte   W06
        .byte                   Cs5
        .byte   W06
        .byte                   Gs4
        .byte   W06
        .byte                   Fn4
        .byte   W06
        .byte                   Cs5
        .byte   W06
        .byte                   Gs4
        .byte   W06
        .byte                   Fn4
        .byte   W06
        .byte                   Cs4
        .byte   W06
@ 012   ----------------------------------------
        .byte           PAN   , c_v+16
        .byte           N23   , Bn3 , v120
        .byte   W24
        .byte           N11   , As3
        .byte   W12
        .byte           N23   , Bn3
        .byte   W24
        .byte           N11   , Cs4
        .byte   W12
        .byte           N44   , Bn3 , v120 , gtp3
        .byte   W24
@ 013   ----------------------------------------
        .byte   W24
        .byte           N23
        .byte   W24
        .byte                   Cs4
        .byte   W24
        .byte                   Fn4
        .byte   W24
@ 014   ----------------------------------------
anothertest_2_14:
        .byte           N23   , Ds4 , v120
        .byte   W24
        .byte           N11   , Cs4
        .byte   W12
        .byte           N23   , Ds4
        .byte   W24
        .byte           N11   , Fn4
        .byte   W12
        .byte           N44   , Ds4 , v120 , gtp3
        .byte   W24
        .byte   PEND
@ 015   ----------------------------------------
anothertest_2_15:
        .byte   W24
        .byte           N23   , Ds4 , v120
        .byte   W24
        .byte                   Fn4
        .byte   W24
        .byte                   Gs4
        .byte   W24
        .byte   PEND
@ 016   ----------------------------------------
        .byte           N05   , Fs4
        .byte   W06
        .byte                   Fs4
        .byte   W06
        .byte                   Fs4
        .byte   W24
        .byte                   Fs4
        .byte   W06
        .byte                   Fs4
        .byte   W06
        .byte                   Fs4
        .byte   W24
        .byte                   Fs4
        .byte   W06
        .byte                   Fs4
        .byte   W06
        .byte           N11
        .byte   W12
@ 017   ----------------------------------------
        .byte           N05
        .byte   W06
        .byte                   Fs4
        .byte   W06
        .byte                   Fs4
        .byte   W24
        .byte                   Fs4
        .byte   W06
        .byte                   Fs4
        .byte   W06
        .byte                   Fs4
        .byte   W48
@ 018   ----------------------------------------
        .byte                   Cs4
        .byte   W06
        .byte                   Cs4
        .byte   W06
        .byte                   Cs4
        .byte   W24
        .byte                   Cs4
        .byte   W06
        .byte                   Cs4
        .byte   W06
        .byte                   Cs4
        .byte   W24
        .byte                   Cs4
        .byte   W06
        .byte                   Cs4
        .byte   W06
        .byte           N11
        .byte   W12
@ 019   ----------------------------------------
        .byte           N05
        .byte   W06
        .byte                   Cs4
        .byte   W06
        .byte                   Cs4
        .byte   W24
        .byte                   Cs4
        .byte   W06
        .byte                   Cs4
        .byte   W06
        .byte                   Cs4
        .byte   W48
@ 020   ----------------------------------------
        .byte           PAN   , c_v+0
        .byte           N05   , Ds4 , v108
        .byte   W06
        .byte                   Fs4
        .byte   W06
        .byte                   As4
        .byte   W06
        .byte                   Ds5
        .byte   W06
        .byte                   Fs5
        .byte   W06
        .byte                   Ds5
        .byte   W06
        .byte                   As4
        .byte   W06
        .byte                   Fs4
        .byte   W06
        .byte                   Fn4
        .byte   W06
        .byte                   Gs4
        .byte   W06
        .byte                   Cn5
        .byte   W06
        .byte                   Fn5
        .byte   W06
        .byte                   Gs5
        .byte   W06
        .byte                   Fn5
        .byte   W06
        .byte                   Cn5
        .byte   W06
        .byte                   Gs4
        .byte   W06
@ 021   ----------------------------------------
anothertest_2_21:
        .byte           N05   , Fs4 , v108
        .byte   W06
        .byte                   As4
        .byte   W06
        .byte                   Cs5
        .byte   W06
        .byte                   Fs5
        .byte   W06
        .byte                   As5
        .byte   W06
        .byte                   Fs5
        .byte   W06
        .byte                   Cs5
        .byte   W06
        .byte                   As4
        .byte   W06
        .byte                   Fn4
        .byte   W06
        .byte                   Gs4
        .byte   W06
        .byte                   Cn5
        .byte   W06
        .byte                   Fn5
        .byte   W06
        .byte                   Gs5
        .byte   W06
        .byte                   Fn5
        .byte   W06
        .byte                   Cn5
        .byte   W06
        .byte                   Gs4
        .byte   W06
        .byte   PEND
@ 022   ----------------------------------------
anothertest_2_22:
        .byte           N05   , Ds4 , v108
        .byte   W06
        .byte                   Fs4
        .byte   W06
        .byte                   As4
        .byte   W06
        .byte                   Ds5
        .byte   W06
        .byte                   Fs5
        .byte   W06
        .byte                   Ds5
        .byte   W06
        .byte                   As4
        .byte   W06
        .byte                   Fs4
        .byte   W06
        .byte                   Fn4
        .byte   W06
        .byte                   Gs4
        .byte   W06
        .byte                   Cn5
        .byte   W06
        .byte                   Fn5
        .byte   W06
        .byte                   Gs5
        .byte   W06
        .byte                   Fn5
        .byte   W06
        .byte                   Cn5
        .byte   W06
        .byte                   Gs4
        .byte   W06
        .byte   PEND
@ 023   ----------------------------------------
        .byte   PATT
         .word  anothertest_2_21
@ 024   ----------------------------------------
        .byte   PATT
         .word  anothertest_2_22
@ 025   ----------------------------------------
        .byte   PATT
         .word  anothertest_2_21
@ 026   ----------------------------------------
        .byte   PATT
         .word  anothertest_2_22
@ 027   ----------------------------------------
        .byte   PATT
         .word  anothertest_2_21
@ 028   ----------------------------------------
anothertest_2_28:
        .byte           N05   , Ds4 , v108
        .byte   W06
        .byte                   Fs4
        .byte   W06
        .byte                   As4
        .byte   W06
        .byte                   Ds5
        .byte   W06
        .byte                   Fs5
        .byte   W06
        .byte                   Ds5
        .byte   W06
        .byte                   As4
        .byte   W06
        .byte                   Fs4
        .byte   W06
        .byte                   Ds4
        .byte   W06
        .byte                   Fs4
        .byte   W06
        .byte                   As4
        .byte   W06
        .byte                   Ds5
        .byte   W06
        .byte                   Fs5
        .byte   W06
        .byte                   Ds5
        .byte   W06
        .byte                   As4
        .byte   W06
        .byte                   Fs4
        .byte   W06
        .byte   PEND
@ 029   ----------------------------------------
anothertest_2_29:
        .byte           N05   , Fn4 , v108
        .byte   W06
        .byte                   Gs4
        .byte   W06
        .byte                   Cs5
        .byte   W06
        .byte                   Fn5
        .byte   W06
        .byte                   Gs5
        .byte   W06
        .byte                   Fn5
        .byte   W06
        .byte                   Cs5
        .byte   W06
        .byte                   Gs4
        .byte   W06
        .byte                   Fn4
        .byte   W06
        .byte                   Gs4
        .byte   W06
        .byte                   Cs5
        .byte   W06
        .byte                   Fn5
        .byte   W06
        .byte                   Gs5
        .byte   W06
        .byte                   Fn5
        .byte   W06
        .byte                   Cs5
        .byte   W06
        .byte                   Gs4
        .byte   W06
        .byte   PEND
@ 030   ----------------------------------------
anothertest_2_30:
        .byte           N05   , Cn4 , v108
        .byte   W06
        .byte                   Ds4
        .byte   W06
        .byte                   Gs4
        .byte   W06
        .byte                   Cn5
        .byte   W06
        .byte                   Ds5
        .byte   W06
        .byte                   Gs4
        .byte   W06
        .byte                   Cn5
        .byte   W06
        .byte                   Ds5
        .byte   W06
        .byte                   Gs5
        .byte   W06
        .byte                   Ds5
        .byte   W06
        .byte                   Cn5
        .byte   W06
        .byte                   Gs4
        .byte   W06
        .byte                   Ds5
        .byte   W06
        .byte                   Cn5
        .byte   W06
        .byte                   Gs4
        .byte   W06
        .byte                   Ds4
        .byte   W06
        .byte   PEND
@ 031   ----------------------------------------
anothertest_2_31:
        .byte           N05   , Fs4 , v108
        .byte   W06
        .byte                   As4
        .byte   W06
        .byte                   Cs5
        .byte   W06
        .byte                   Fs5
        .byte   W06
        .byte                   As5
        .byte   W06
        .byte                   Cs5
        .byte   W06
        .byte                   Fs5
        .byte   W06
        .byte                   As5
        .byte   W06
        .byte           N03   , Fn5
        .byte   W04
        .byte                   Gs5
        .byte   W04
        .byte                   Fn5
        .byte   W04
        .byte           N05   , Cs5
        .byte   W06
        .byte                   Gs4
        .byte   W06
        .byte                   Fn5
        .byte   W06
        .byte                   Cs5
        .byte   W06
        .byte                   Gs4
        .byte   W06
        .byte                   Cs4
        .byte   W06
        .byte   PEND
@ 032   ----------------------------------------
        .byte   PATT
         .word  anothertest_2_28
@ 033   ----------------------------------------
        .byte   PATT
         .word  anothertest_2_29
@ 034   ----------------------------------------
        .byte   PATT
         .word  anothertest_2_30
@ 035   ----------------------------------------
anothertest_2_35:
        .byte           N05   , Fs4 , v108
        .byte   W06
        .byte                   As4
        .byte   W06
        .byte                   Cs5
        .byte   W06
        .byte                   Fs5
        .byte   W06
        .byte                   As5
        .byte   W06
        .byte                   Cs5
        .byte   W06
        .byte                   Fs5
        .byte   W06
        .byte                   As5
        .byte   W06
        .byte           N03   , Fn5
        .byte   W04
        .byte                   Gs5
        .byte   W04
        .byte                   Fn5
        .byte   W04
        .byte           N05   , Cs5
        .byte   W06
        .byte                   Gs4
        .byte   W06
        .byte                   Fn4
        .byte   W06
        .byte                   Gs4
        .byte   W06
        .byte                   Cs5
        .byte   W06
        .byte                   Fn5
        .byte   W06
        .byte   PEND
@ 036   ----------------------------------------
anothertest_2_36:
        .byte           N05   , Gs3 , v108
        .byte   W06
        .byte                   As3
        .byte   W06
        .byte                   Bn3
        .byte   W06
        .byte                   Ds4
        .byte   W06
        .byte                   Gs4
        .byte   W06
        .byte                   As4
        .byte   W06
        .byte                   Bn4
        .byte   W06
        .byte                   Ds5
        .byte   W06
        .byte                   Gs5
        .byte   W06
        .byte                   Ds5
        .byte   W06
        .byte                   Bn4
        .byte   W06
        .byte                   As4
        .byte   W06
        .byte                   Gs4
        .byte   W06
        .byte                   Ds4
        .byte   W06
        .byte                   Bn3
        .byte   W06
        .byte                   As3
        .byte   W06
        .byte   PEND
@ 037   ----------------------------------------
        .byte   PATT
         .word  anothertest_2_36
@ 038   ----------------------------------------
anothertest_2_38:
        .byte           N05   , Gs3 , v108
        .byte   W06
        .byte                   An3
        .byte   W06
        .byte                   Cs4
        .byte   W06
        .byte                   En4
        .byte   W06
        .byte                   Gs4
        .byte   W06
        .byte                   An4
        .byte   W06
        .byte                   Cs5
        .byte   W06
        .byte                   En5
        .byte   W06
        .byte                   Gs5
        .byte   W06
        .byte                   En5
        .byte   W06
        .byte                   Cs5
        .byte   W06
        .byte                   An4
        .byte   W06
        .byte                   Gs4
        .byte   W06
        .byte                   En4
        .byte   W06
        .byte                   Cs4
        .byte   W06
        .byte                   An3
        .byte   W06
        .byte   PEND
@ 039   ----------------------------------------
        .byte   PATT
         .word  anothertest_2_38
@ 040   ----------------------------------------
        .byte   PATT
         .word  anothertest_2_36
@ 041   ----------------------------------------
        .byte   PATT
         .word  anothertest_2_36
@ 042   ----------------------------------------
        .byte   PATT
         .word  anothertest_2_38
@ 043   ----------------------------------------
        .byte   PATT
         .word  anothertest_2_38
@ 044   ----------------------------------------
anothertest_2_44:
        .byte           N05   , Cs4 , v108
        .byte   W06
        .byte                   Ds4
        .byte   W06
        .byte                   En4
        .byte   W06
        .byte                   An4
        .byte   W06
        .byte                   Cs5
        .byte   W06
        .byte                   En4
        .byte   W06
        .byte                   An4
        .byte   W06
        .byte                   Cs5
        .byte   W06
        .byte                   En5
        .byte   W06
        .byte                   Cs5
        .byte   W06
        .byte                   An4
        .byte   W06
        .byte                   En4
        .byte   W06
        .byte                   Cs5
        .byte   W06
        .byte                   An4
        .byte   W06
        .byte                   En4
        .byte   W06
        .byte                   Cs4
        .byte   W06
        .byte   PEND
@ 045   ----------------------------------------
anothertest_2_45:
        .byte           N05   , Ds4 , v108
        .byte   W06
        .byte                   En4
        .byte   W06
        .byte                   Fs4
        .byte   W06
        .byte                   Bn4
        .byte   W06
        .byte                   Ds5
        .byte   W06
        .byte                   Fs4
        .byte   W06
        .byte                   Bn4
        .byte   W06
        .byte                   Ds5
        .byte   W06
        .byte                   Fs5
        .byte   W06
        .byte                   Ds5
        .byte   W06
        .byte                   Bn4
        .byte   W06
        .byte                   Fs4
        .byte   W06
        .byte                   Ds5
        .byte   W06
        .byte                   Bn4
        .byte   W06
        .byte                   Fs4
        .byte   W06
        .byte                   Cs4
        .byte   W06
        .byte   PEND
@ 046   ----------------------------------------
anothertest_2_46:
        .byte           N05   , En4 , v108
        .byte   W06
        .byte                   Fs4
        .byte   W06
        .byte                   As4
        .byte   W06
        .byte                   Cs5
        .byte   W06
        .byte                   En5
        .byte   W06
        .byte                   As4
        .byte   W06
        .byte                   Cs5
        .byte   W06
        .byte                   En5
        .byte   W06
        .byte                   Gs5
        .byte   W06
        .byte                   En5
        .byte   W06
        .byte                   Cs5
        .byte   W06
        .byte                   As4
        .byte   W06
        .byte                   En5
        .byte   W06
        .byte                   Cs5
        .byte   W06
        .byte                   As4
        .byte   W06
        .byte                   Fs4
        .byte   W06
        .byte   PEND
@ 047   ----------------------------------------
anothertest_2_47:
        .byte           N05   , En4 , v108
        .byte   W06
        .byte                   Fs4
        .byte   W06
        .byte                   As4
        .byte   W06
        .byte                   Cs5
        .byte   W06
        .byte                   En5
        .byte   W06
        .byte                   As4
        .byte   W06
        .byte                   Cs5
        .byte   W06
        .byte                   En5
        .byte   W06
        .byte                   As5
        .byte   W06
        .byte                   Gs5
        .byte   W06
        .byte                   Fs5
        .byte   W06
        .byte                   Ds5
        .byte   W06
        .byte           N02   , Cs5
        .byte   W03
        .byte                   Ds5
        .byte   W03
        .byte                   Cs5
        .byte   W03
        .byte                   Bn4
        .byte   W03
        .byte           N05   , As4
        .byte   W06
        .byte                   Fs4
        .byte   W06
        .byte   PEND
@ 048   ----------------------------------------
        .byte   PATT
         .word  anothertest_2_44
@ 049   ----------------------------------------
        .byte   PATT
         .word  anothertest_2_45
@ 050   ----------------------------------------
        .byte   PATT
         .word  anothertest_2_46
@ 051   ----------------------------------------
        .byte   PATT
         .word  anothertest_2_47
@ 052   ----------------------------------------
        .byte           PAN   , c_v-16
        .byte           N32   , Bn1 , v124 , gtp3
        .byte                   Bn2
        .byte   W24
        .byte   W01
        .byte           MOD   , 15
        .byte   W11
        .byte           N05   , Bn1
        .byte           N05   , Bn2
        .byte           MOD   , 0
        .byte   W06
        .byte           N05   , Bn1
        .byte           N05   , Bn2
        .byte   W06
        .byte           N32   , Bn1 , v124 , gtp3
        .byte                   Bn2
        .byte   W24
        .byte   W01
        .byte           MOD   , 15
        .byte   W11
        .byte           N05   , Bn1
        .byte           N05   , Bn2
        .byte           MOD   , 0
        .byte   W06
        .byte           N05   , Bn1
        .byte           N05   , Bn2
        .byte   W06
@ 053   ----------------------------------------
anothertest_2_53:
        .byte           N23   , Bn1 , v124
        .byte           N23   , Bn2
        .byte   W24
        .byte                   Bn1
        .byte           N23   , Bn2
        .byte   W24
        .byte           N17   , Bn1
        .byte           N17   , Bn2
        .byte   W18
        .byte                   Bn1
        .byte           N17   , Bn2
        .byte   W18
        .byte           N11   , Cs2
        .byte           N11   , Cs3
        .byte   W12
        .byte   PEND
@ 054   ----------------------------------------
anothertest_2_54:
        .byte           N32   , Ds2 , v124 , gtp3
        .byte                   Ds3
        .byte   W24
        .byte   W01
        .byte           MOD   , 15
        .byte   W11
        .byte           N05   , Ds2
        .byte           N05   , Ds3
        .byte           MOD   , 0
        .byte   W06
        .byte           N05   , Ds2
        .byte           N05   , Ds3
        .byte   W06
        .byte           N32   , Ds2 , v124 , gtp3
        .byte                   Ds3
        .byte   W24
        .byte   W01
        .byte           MOD   , 15
        .byte   W11
        .byte           N05   , Ds2
        .byte           N05   , Ds3
        .byte           MOD   , 0
        .byte   W06
        .byte           N05   , Ds2
        .byte           N05   , Ds3
        .byte   W06
        .byte   PEND
@ 055   ----------------------------------------
anothertest_2_55:
        .byte           N23   , Ds2 , v124
        .byte           N23   , Ds3
        .byte   W24
        .byte                   Ds2
        .byte           N23   , Ds3
        .byte   W24
        .byte           N17   , Ds2
        .byte           N17   , Ds3
        .byte   W18
        .byte                   Ds2
        .byte           N17   , Ds3
        .byte   W18
        .byte           N11   , Cs2
        .byte           N11   , Cs3
        .byte   W12
        .byte   PEND
@ 056   ----------------------------------------
anothertest_2_56:
        .byte           N32   , Bn1 , v124 , gtp3
        .byte                   Bn2
        .byte   W24
        .byte   W01
        .byte           MOD   , 15
        .byte   W11
        .byte           N05   , Bn1
        .byte           N05   , Bn2
        .byte           MOD   , 0
        .byte   W06
        .byte           N05   , Bn1
        .byte           N05   , Bn2
        .byte   W06
        .byte           N32   , Bn1 , v124 , gtp3
        .byte                   Bn2
        .byte   W24
        .byte   W01
        .byte           MOD   , 15
        .byte   W11
        .byte           N05   , Bn1
        .byte           N05   , Bn2
        .byte           MOD   , 0
        .byte   W06
        .byte           N05   , Bn1
        .byte           N05   , Bn2
        .byte   W06
        .byte   PEND
@ 057   ----------------------------------------
        .byte   PATT
         .word  anothertest_2_53
@ 058   ----------------------------------------
        .byte   PATT
         .word  anothertest_2_54
@ 059   ----------------------------------------
anothertest_2_59:
        .byte           N23   , Ds2 , v124
        .byte           N23   , Ds3
        .byte   W24
        .byte                   Ds2
        .byte           N23   , Ds3
        .byte   W24
        .byte           N17   , Ds2
        .byte           N17   , Ds3
        .byte   W18
        .byte                   Ds2
        .byte           N17   , Ds3
        .byte   W18
        .byte           N11   , Bn1
        .byte           N11   , Bn2
        .byte   W12
        .byte   PEND
@ 060   ----------------------------------------
anothertest_2_60:
        .byte           N32   , Cs2 , v124 , gtp3
        .byte                   Cs3
        .byte   W24
        .byte   W01
        .byte           MOD   , 15
        .byte   W11
        .byte           N05   , Cs2
        .byte           N05   , Cs3
        .byte           MOD   , 0
        .byte   W06
        .byte           N05   , Cs2
        .byte           N05   , Cs3
        .byte   W06
        .byte           N32   , Cs2 , v124 , gtp3
        .byte                   Cs3
        .byte   W24
        .byte   W01
        .byte           MOD   , 15
        .byte   W11
        .byte           N05   , Cs2
        .byte           N05   , Cs3
        .byte           MOD   , 0
        .byte   W06
        .byte           N05   , Cs2
        .byte           N05   , Cs3
        .byte   W06
        .byte   PEND
@ 061   ----------------------------------------
anothertest_2_61:
        .byte           N23   , Cs2 , v124
        .byte           N23   , Cs3
        .byte   W24
        .byte                   Cs2
        .byte           N23   , Cs3
        .byte   W24
        .byte           N17   , Cs2
        .byte           N17   , Cs3
        .byte   W18
        .byte                   Cs2
        .byte           N17   , Cs3
        .byte   W18
        .byte           N11   , Ds2
        .byte           N11   , Ds3
        .byte   W12
        .byte   PEND
@ 062   ----------------------------------------
        .byte   PATT
         .word  anothertest_2_56
@ 063   ----------------------------------------
anothertest_2_63:
        .byte           N23   , Bn1 , v124
        .byte           N23   , Bn2
        .byte   W24
        .byte                   Bn1
        .byte           N23   , Bn2
        .byte   W24
        .byte           N17   , Bn1
        .byte           N17   , Bn2
        .byte   W18
        .byte                   Bn1
        .byte           N17   , Bn2
        .byte   W18
        .byte           N11   , Bn1
        .byte           N11   , Bn2
        .byte   W12
        .byte   PEND
@ 064   ----------------------------------------
        .byte   PATT
         .word  anothertest_2_60
@ 065   ----------------------------------------
anothertest_2_65:
        .byte           N23   , Cs2 , v124
        .byte           N23   , Cs3
        .byte   W24
        .byte                   Cs2
        .byte           N23   , Cs3
        .byte   W24
        .byte           N17   , Cs2
        .byte           N17   , Cs3
        .byte   W18
        .byte                   Cs2
        .byte           N17   , Cs3
        .byte   W18
        .byte           N11   , Cs2
        .byte           N11   , Cs3
        .byte   W12
        .byte   PEND
@ 066   ----------------------------------------
        .byte   PATT
         .word  anothertest_2_54
@ 067   ----------------------------------------
        .byte           N23   , Ds2 , v124
        .byte           N23   , Ds3
        .byte   W24
        .byte                   Ds2
        .byte           N23   , Ds3
        .byte   W24
        .byte           N17   , Ds2
        .byte           N17   , Ds3
        .byte   W18
        .byte           N05   , Ds2
        .byte           N05   , Ds3
        .byte   W06
        .byte                   Cs2
        .byte           N05   , Cs3
        .byte   W06
        .byte                   Ds2
        .byte           N05   , Ds3
        .byte   W06
        .byte                   Fs2
        .byte           N05   , Fs3
        .byte   W06
        .byte                   Gs2
        .byte           N05   , Gs3
        .byte   W06
@ 068   ----------------------------------------
        .byte           PAN   , c_v-32
        .byte           TIE   , As2
        .byte           TIE   , As3
        .byte   W24
        .byte   W01
        .byte           MOD   , 15
        .byte   W68
        .byte   W03
@ 069   ----------------------------------------
anothertest_2_69:
        .byte   W23
        .byte           EOT   , As2
        .byte                   As3
        .byte   W01
        .byte           N23   , As2 , v124
        .byte           N23   , As3
        .byte           MOD   , 0
        .byte   W24
        .byte           N23   , Cn3
        .byte           N23   , Cn4
        .byte   W24
        .byte                   Cs3
        .byte           N23   , Cs4
        .byte   W24
        .byte   PEND
@ 070   ----------------------------------------
        .byte           N17   , Cn3
        .byte           N17   , Cn4
        .byte   W18
        .byte                   As2
        .byte           N17   , As3
        .byte   W18
        .byte           N11   , Gs2
        .byte           N11   , Gs3
        .byte   W12
        .byte           TIE   , As2
        .byte           TIE   , As3
        .byte   W24
        .byte   W01
        .byte           MOD   , 15
        .byte   W23
@ 071   ----------------------------------------
anothertest_2_71:
        .byte   W80
        .byte   W03
        .byte           EOT   , As2
        .byte                   As3
        .byte   W01
        .byte           N05   , Fn2 , v124
        .byte           N05   , Fn3
        .byte           MOD   , 0
        .byte   W06
        .byte           N05   , Gs2
        .byte           N05   , Gs3
        .byte   W06
        .byte   PEND
@ 072   ----------------------------------------
        .byte           TIE   , As2
        .byte           TIE   , As3
        .byte   W24
        .byte   W01
        .byte           MOD   , 15
        .byte   W68
        .byte   W03
@ 073   ----------------------------------------
        .byte   PATT
         .word  anothertest_2_69
@ 074   ----------------------------------------
        .byte           N17   , Cn3 , v124
        .byte           N17   , Cn4
        .byte   W18
        .byte                   Ds3
        .byte           N17   , Ds4
        .byte   W18
        .byte           N11   , Cn3
        .byte           N11   , Cn4
        .byte   W12
        .byte           TIE   , As2
        .byte           TIE   , As3
        .byte   W24
        .byte   W01
        .byte           MOD   , 15
        .byte   W23
@ 075   ----------------------------------------
        .byte   PATT
         .word  anothertest_2_71
@ 076   ----------------------------------------
anothertest_2_76:
        .byte           N56   , As2 , v124 , gtp3
        .byte                   As3
        .byte   W24
        .byte   W01
        .byte           MOD   , 15
        .byte   W32
        .byte   W03
        .byte           N11   , As2
        .byte           N11   , As3
        .byte           MOD   , 0
        .byte   W12
        .byte           N11   , Gs2
        .byte           N11   , Gs3
        .byte   W12
        .byte                   Fs2
        .byte           N11   , Fs3
        .byte   W12
        .byte   PEND
@ 077   ----------------------------------------
anothertest_2_77:
        .byte           N23   , Gs2 , v124
        .byte           N23   , Gs3
        .byte   W24
        .byte           N11   , Fn2
        .byte           N11   , Fn3
        .byte   W12
        .byte           N23   , Cs2
        .byte           N23   , Cs3
        .byte   W24
        .byte           N11   , Ds2
        .byte           N11   , Ds3
        .byte   W12
        .byte                   Fn2
        .byte           N11   , Fn3
        .byte   W12
        .byte                   Fs2
        .byte           N11   , Fs3
        .byte   W12
        .byte   PEND
@ 078   ----------------------------------------
        .byte           N32   , Fn2 , v124 , gtp3
        .byte                   Fn3
        .byte   W24
        .byte   W01
        .byte           MOD   , 15
        .byte   W11
        .byte           N05   , Ds2
        .byte           N05   , Ds3
        .byte           MOD   , 0
        .byte   W06
        .byte           N05   , Cs2
        .byte           N05   , Cs3
        .byte   W06
        .byte           TIE   , Ds2
        .byte           TIE   , Ds3
        .byte   W24
        .byte   W01
        .byte           MOD   , 15
        .byte   W23
@ 079   ----------------------------------------
        .byte   W80
        .byte   W03
        .byte           EOT   , Ds2
        .byte                   Ds3
        .byte   W01
        .byte           N05   , Fn2
        .byte           N05   , Fn3
        .byte           MOD   , 0
        .byte   W06
        .byte           N05   , Gs2
        .byte           N05   , Gs3
        .byte   W06
@ 080   ----------------------------------------
        .byte   PATT
         .word  anothertest_2_76
@ 081   ----------------------------------------
        .byte   PATT
         .word  anothertest_2_77
@ 082   ----------------------------------------
        .byte           N32   , Fn2 , v124 , gtp3
        .byte                   Fn3
        .byte   W24
        .byte   W01
        .byte           MOD   , 15
        .byte   W11
        .byte           N05   , Ds2
        .byte           N05   , Ds3
        .byte           MOD   , 0
        .byte   W06
        .byte           N05   , Cs2
        .byte           N05   , Cs3
        .byte   W06
        .byte           N32   , Ds2 , v124 , gtp3
        .byte                   Ds3
        .byte   W24
        .byte   W01
        .byte           MOD   , 15
        .byte   W11
        .byte           N05   , Ds2
        .byte           N05   , Ds3
        .byte           MOD   , 0
        .byte   W06
        .byte           N05   , Fn2
        .byte           N05   , Fn3
        .byte   W06
@ 083   ----------------------------------------
anothertest_2_83:
        .byte           N05   , Fs2 , v124
        .byte           N05   , Fs3
        .byte   W18
        .byte           N17   , Fs2
        .byte           N17   , Fs3
        .byte   W18
        .byte           N05   , Fs2
        .byte           N05   , Fs3
        .byte   W06
        .byte                   Fs2
        .byte           N05   , Fs3
        .byte   W06
        .byte                   Gs2
        .byte           N05   , Gs3
        .byte   W18
        .byte           N17   , Gs2
        .byte           N17   , Gs3
        .byte   W18
        .byte           N05   , Gs2
        .byte           N05   , Gs3
        .byte   W06
        .byte                   Gs2
        .byte           N05   , Gs3
        .byte   W06
        .byte   PEND
@ 084   ----------------------------------------
anothertest_2_84:
        .byte           N80   , Gs3 , v120 , gtp3
        .byte   W84
        .byte           N05   , Cs3
        .byte   W06
        .byte                   Bn3
        .byte   W06
        .byte   PEND
@ 085   ----------------------------------------
anothertest_2_85:
        .byte           N32   , Gs3 , v120 , gtp3
        .byte   W36
        .byte           N05   , En3
        .byte   W06
        .byte                   Fs3
        .byte   W06
        .byte           N11   , Gs3
        .byte   W12
        .byte                   Fs3
        .byte   W12
        .byte                   En3
        .byte   W12
        .byte                   Cs3
        .byte   W12
        .byte   PEND
@ 086   ----------------------------------------
anothertest_2_86:
        .byte           N11   , Fs3 , v120
        .byte   W12
        .byte           N03   , En3
        .byte   W04
        .byte                   Fs3
        .byte   W04
        .byte                   En3
        .byte   W04
        .byte           N32   , Cs3 , v120 , gtp3
        .byte   W36
        .byte           N11
        .byte   W12
        .byte                   Bn2
        .byte   W12
        .byte                   En3
        .byte   W12
        .byte   PEND
@ 087   ----------------------------------------
anothertest_2_87:
        .byte           N05   , Cs3 , v120
        .byte   W06
        .byte                   Bn2
        .byte   W06
        .byte           N68   , Cs3 , v120 , gtp3
        .byte   W72
        .byte           N05
        .byte   W06
        .byte                   Bn3
        .byte   W06
        .byte   PEND
@ 088   ----------------------------------------
        .byte   PATT
         .word  anothertest_2_84
@ 089   ----------------------------------------
        .byte   PATT
         .word  anothertest_2_85
@ 090   ----------------------------------------
        .byte   PATT
         .word  anothertest_2_86
@ 091   ----------------------------------------
anothertest_2_91:
        .byte           N05   , Cs3 , v120
        .byte   W06
        .byte                   Bn2
        .byte   W06
        .byte           N68   , Cs3 , v120 , gtp3
        .byte   W72
        .byte           N05   , Fs2
        .byte   W06
        .byte                   Gs2
        .byte   W06
        .byte   PEND
@ 092   ----------------------------------------
anothertest_2_92:
        .byte           N44   , Cs3 , v120 , gtp3
        .byte   W48
        .byte           N32   , En3 , v120 , gtp3
        .byte   W36
        .byte           N05   , Ds3
        .byte   W06
        .byte                   En3
        .byte   W06
        .byte   PEND
@ 093   ----------------------------------------
anothertest_2_93:
        .byte           N44   , Fs3 , v120 , gtp3
        .byte   W48
        .byte           N32   , Gs3 , v120 , gtp3
        .byte   W36
        .byte           N05   , Fs3
        .byte   W06
        .byte                   Gs3
        .byte   W06
        .byte   PEND
@ 094   ----------------------------------------
anothertest_2_94:
        .byte           N07   , As3 , v120
        .byte   W08
        .byte                   Bn3
        .byte   W08
        .byte                   As3
        .byte   W08
        .byte                   Gs3
        .byte   W08
        .byte                   As3
        .byte   W08
        .byte                   Gs3
        .byte   W08
        .byte                   Fs3
        .byte   W08
        .byte                   Gs3
        .byte   W08
        .byte                   Fs3
        .byte   W08
        .byte           N05   , En3
        .byte   W06
        .byte                   Fs3
        .byte   W06
        .byte                   En3
        .byte   W06
        .byte                   Cs3
        .byte   W06
        .byte   PEND
@ 095   ----------------------------------------
anothertest_2_95:
        .byte           N44   , As2 , v120 , gtp3
        .byte   W48
        .byte           N23   , Bn2
        .byte   W24
        .byte           N11   , Gs2
        .byte   W12
        .byte           N05   , Fs2
        .byte   W06
        .byte                   Gs2
        .byte   W06
        .byte   PEND
@ 096   ----------------------------------------
        .byte   PATT
         .word  anothertest_2_92
@ 097   ----------------------------------------
        .byte   PATT
         .word  anothertest_2_93
@ 098   ----------------------------------------
        .byte   PATT
         .word  anothertest_2_94
@ 099   ----------------------------------------
        .byte           N92   , As2 , v120 , gtp3
        .byte   W96
@ 100   ----------------------------------------
anothertest_2_100:
        .byte           N32   , Gs3 , v120 , gtp3
        .byte   W36
        .byte           N05
        .byte   W06
        .byte                   Gs3
        .byte   W06
        .byte           N32   , Gs3 , v120 , gtp3
        .byte   W36
        .byte           N05
        .byte   W06
        .byte                   Gs3
        .byte   W06
        .byte   PEND
@ 101   ----------------------------------------
anothertest_2_101:
        .byte           N23   , Gs3 , v120
        .byte   W24
        .byte                   Gs3
        .byte   W24
        .byte           N17
        .byte   W18
        .byte                   Gs3
        .byte   W18
        .byte           N11   , Fs3
        .byte   W12
        .byte   PEND
@ 102   ----------------------------------------
anothertest_2_102:
        .byte           N32   , Ds3 , v120 , gtp3
        .byte   W36
        .byte           N05
        .byte   W06
        .byte                   Ds3
        .byte   W06
        .byte           N32   , Ds3 , v120 , gtp3
        .byte   W36
        .byte           N05
        .byte   W06
        .byte                   Ds3
        .byte   W06
        .byte   PEND
@ 103   ----------------------------------------
anothertest_2_103:
        .byte           N23   , Ds3 , v120
        .byte   W24
        .byte                   Ds3
        .byte   W24
        .byte           N17
        .byte   W18
        .byte                   Ds3
        .byte   W18
        .byte           N11   , Fs3
        .byte   W12
        .byte   PEND
@ 104   ----------------------------------------
        .byte   PATT
         .word  anothertest_2_100
@ 105   ----------------------------------------
        .byte   PATT
         .word  anothertest_2_101
@ 106   ----------------------------------------
        .byte   PATT
         .word  anothertest_2_102
@ 107   ----------------------------------------
anothertest_2_107:
        .byte           N23   , Ds3 , v120
        .byte   W24
        .byte                   Ds3
        .byte   W24
        .byte           N17
        .byte   W18
        .byte                   En3
        .byte   W18
        .byte           N11   , Ds3
        .byte   W12
        .byte   PEND
@ 108   ----------------------------------------
        .byte   PATT
         .word  anothertest_1_52
@ 109   ----------------------------------------
anothertest_2_109:
        .byte           N23   , Cs3 , v120
        .byte   W24
        .byte                   Cs3
        .byte   W24
        .byte           N17
        .byte   W18
        .byte                   Cs3
        .byte   W18
        .byte           N11   , Ds3
        .byte   W12
        .byte   PEND
@ 110   ----------------------------------------
anothertest_2_110:
        .byte           N32   , Bn2 , v120 , gtp3
        .byte   W36
        .byte           N05
        .byte   W06
        .byte                   Bn2
        .byte   W06
        .byte           N32   , Bn2 , v120 , gtp3
        .byte   W36
        .byte           N05
        .byte   W06
        .byte                   Bn2
        .byte   W06
        .byte   PEND
@ 111   ----------------------------------------
anothertest_2_111:
        .byte           N23   , Bn2 , v120
        .byte   W24
        .byte                   Bn2
        .byte   W24
        .byte           N17
        .byte   W18
        .byte                   Bn2
        .byte   W18
        .byte           N11   , Cs3
        .byte   W12
        .byte   PEND
@ 112   ----------------------------------------
        .byte   PATT
         .word  anothertest_2_102
@ 113   ----------------------------------------
anothertest_2_113:
        .byte           N23   , Ds3 , v120
        .byte   W24
        .byte                   Ds3
        .byte   W24
        .byte           N17
        .byte   W18
        .byte                   Ds3
        .byte   W18
        .byte           N11   , Fn3
        .byte   W12
        .byte   PEND
@ 114   ----------------------------------------
anothertest_2_114:
        .byte           N32   , Fs3 , v120 , gtp3
        .byte   W36
        .byte           N05
        .byte   W06
        .byte                   Fs3
        .byte   W06
        .byte           N32   , Fs3 , v120 , gtp3
        .byte   W36
        .byte           N05
        .byte   W06
        .byte                   Fs3
        .byte   W06
        .byte   PEND
@ 115   ----------------------------------------
        .byte           N23   , Gs3
        .byte   W24
        .byte                   Gs3
        .byte   W24
        .byte           N17
        .byte   W18
        .byte                   Gs3
        .byte   W18
        .byte           N11
        .byte   W12
@ 116   ----------------------------------------
anothertest_2_116:
        .byte           N80   , Ds3 , v120 , gtp3
        .byte   W84
        .byte           N05
        .byte   W06
        .byte                   Ds3
        .byte   W06
        .byte   PEND
@ 117   ----------------------------------------
anothertest_2_117:
        .byte           N44   , Fs3 , v120 , gtp3
        .byte   W48
        .byte           N23   , Ds3
        .byte   W24
        .byte                   Fs3
        .byte   W24
        .byte   PEND
@ 118   ----------------------------------------
anothertest_2_118:
        .byte           N05   , En3 , v120
        .byte   W06
        .byte                   Ds3
        .byte   W06
        .byte           N68   , Cs3 , v120 , gtp3
        .byte   W72
        .byte           N05
        .byte   W06
        .byte                   Cs3
        .byte   W06
        .byte   PEND
@ 119   ----------------------------------------
anothertest_2_119:
        .byte           N44   , En3 , v120 , gtp3
        .byte   W48
        .byte           N23   , Cs3
        .byte   W24
        .byte                   En3
        .byte   W24
        .byte   PEND
@ 120   ----------------------------------------
        .byte   PATT
         .word  anothertest_2_116
@ 121   ----------------------------------------
        .byte   PATT
         .word  anothertest_2_117
@ 122   ----------------------------------------
        .byte   PATT
         .word  anothertest_2_118
@ 123   ----------------------------------------
        .byte   PATT
         .word  anothertest_2_119
@ 124   ----------------------------------------
        .byte           N80   , Ds3 , v120 , gtp3
        .byte   W84
        .byte           N05   , En3
        .byte   W06
        .byte                   Ds3
        .byte   W06
@ 125   ----------------------------------------
anothertest_2_125:
        .byte           N44   , Ds3 , v120 , gtp3
        .byte   W48
        .byte           N17
        .byte   W18
        .byte                   En3
        .byte   W18
        .byte           N11   , Ds3
        .byte   W12
        .byte   PEND
@ 126   ----------------------------------------
        .byte   PATT
         .word  anothertest_1_132
@ 127   ----------------------------------------
        .byte           N23   , Cs3 , v120
        .byte   W24
        .byte                   Ds3
        .byte   W24
        .byte                   Fs3
        .byte   W24
        .byte                   As3
        .byte   W24
@ 128   ----------------------------------------
        .byte           N80   , Bn3 , v120 , gtp3
        .byte   W84
        .byte           N05   , Cs4
        .byte   W06
        .byte                   Bn3
        .byte   W06
@ 129   ----------------------------------------
        .byte           N44   , Bn3 , v120 , gtp3
        .byte   W48
        .byte           N17   , Gs3
        .byte   W18
        .byte                   As3
        .byte   W18
        .byte           N11   , Bn3
        .byte   W12
@ 130   ----------------------------------------
        .byte           N44   , Cs4 , v120 , gtp3
        .byte   W48
        .byte           N17
        .byte   W18
        .byte                   Fs4
        .byte   W18
        .byte           N05   , Cs4
        .byte   W06
        .byte                   As3
        .byte   W06
@ 131   ----------------------------------------
        .byte           N44   , Fs3 , v120 , gtp3
        .byte   W48
        .byte           N11
        .byte   W12
        .byte                   Gs3
        .byte   W12
        .byte                   As3
        .byte   W12
        .byte                   Fs3
        .byte   W12
@ 132   ----------------------------------------
        .byte           N80   , Gs3 , v120 , gtp3
        .byte   W84
        .byte           N05   , Fs3
        .byte   W06
        .byte                   En3
        .byte   W06
@ 133   ----------------------------------------
        .byte           N23   , Ds3
        .byte   W24
        .byte                   Bn2
        .byte   W24
        .byte                   Cs3
        .byte   W24
        .byte                   En3
        .byte   W24
@ 134   ----------------------------------------
        .byte           N80   , Ds3 , v120 , gtp3
        .byte   W84
        .byte           N05   , En3
        .byte   W06
        .byte                   Fs3
        .byte   W06
@ 135   ----------------------------------------
        .byte   PATT
         .word  anothertest_2_125
@ 136   ----------------------------------------
        .byte           N80   , Cs3 , v120 , gtp3
        .byte   W84
        .byte           N05   , Ds3
        .byte   W06
        .byte                   Bn2
        .byte   W06
@ 137   ----------------------------------------
        .byte           N44   , Cs3 , v120 , gtp3
        .byte   W48
        .byte           N11
        .byte   W12
        .byte                   En3
        .byte   W12
        .byte                   Gs3
        .byte   W12
        .byte                   Bn3
        .byte   W12
@ 138   ----------------------------------------
        .byte           N80   , Cs4 , v120 , gtp3
        .byte   W84
        .byte           N05
        .byte   W06
        .byte                   Cs4
        .byte   W06
@ 139   ----------------------------------------
        .byte           N44   , Cs4 , v120 , gtp3
        .byte   W48
        .byte                   Bn3
        .byte   W48
@ 140   ----------------------------------------
        .byte           PAN   , c_v+0
        .byte   GOTO
         .word  anothertest_2_LOOP
        .byte   FINE

@****************** Track 3 (Midi-Chn.3) ******************@

anothertest_3:
        .byte   KEYSH , anothertest_key+0
@ 000   ----------------------------------------
anothertest_3_LOOP:
        .byte           VOICE , 33
        .byte           VOL   , 44
        .byte           N05   , Fs0 , v120
        .byte   W06
        .byte                   Fs0
        .byte   W06
        .byte                   Fs1
        .byte   W06
        .byte                   Fs1
        .byte   W06
        .byte                   En0
        .byte   W06
        .byte                   En0
        .byte   W06
        .byte                   En1
        .byte   W06
        .byte                   En1
        .byte   W06
        .byte                   Fs0
        .byte   W06
        .byte                   Fs0
        .byte   W06
        .byte                   Fs1
        .byte   W06
        .byte                   Fs1
        .byte   W06
        .byte                   En0
        .byte   W06
        .byte                   En0
        .byte   W06
        .byte                   En1
        .byte   W06
        .byte                   En1
        .byte   W06
@ 001   ----------------------------------------
anothertest_3_1:
        .byte           N05   , Fs0 , v120
        .byte   W06
        .byte                   Fs0
        .byte   W06
        .byte                   Fs1
        .byte   W06
        .byte                   Fs1
        .byte   W06
        .byte                   En0
        .byte   W06
        .byte                   En0
        .byte   W06
        .byte                   En1
        .byte   W06
        .byte                   En1
        .byte   W06
        .byte                   Fs0
        .byte   W06
        .byte                   Fs0
        .byte   W06
        .byte                   Fs1
        .byte   W06
        .byte                   Fs1
        .byte   W06
        .byte                   En0
        .byte   W06
        .byte                   En0
        .byte   W06
        .byte                   En1
        .byte   W06
        .byte                   En1
        .byte   W06
        .byte   PEND
@ 002   ----------------------------------------
        .byte   PATT
         .word  anothertest_3_1
@ 003   ----------------------------------------
        .byte           N05   , Fs0 , v120
        .byte   W06
        .byte                   Fs0
        .byte   W06
        .byte                   Fs1
        .byte   W06
        .byte                   Fs1
        .byte   W06
        .byte                   En0
        .byte   W06
        .byte                   En1
        .byte   W06
        .byte                   Cs0
        .byte   W06
        .byte                   Cs1
        .byte   W06
        .byte                   Fs0
        .byte   W06
        .byte                   Bn0
        .byte   W06
        .byte                   En1
        .byte   W06
        .byte                   Gs1
        .byte   W06
        .byte                   As0
        .byte   W06
        .byte                   Ds1
        .byte   W06
        .byte                   Fn1
        .byte   W06
        .byte                   As1
        .byte   W06
@ 004   ----------------------------------------
anothertest_3_4:
        .byte           N05   , Ds1 , v120
        .byte   W06
        .byte                   Ds1
        .byte   W06
        .byte                   Ds2
        .byte   W06
        .byte                   Ds2
        .byte   W06
        .byte                   Ds1
        .byte   W06
        .byte                   Ds1
        .byte   W06
        .byte                   Ds2
        .byte   W06
        .byte                   Ds2
        .byte   W06
        .byte                   Ds1
        .byte   W06
        .byte                   Ds1
        .byte   W06
        .byte                   Ds2
        .byte   W06
        .byte                   Ds2
        .byte   W06
        .byte                   Ds1
        .byte   W06
        .byte                   Ds1
        .byte   W06
        .byte                   Ds2
        .byte   W06
        .byte                   Ds2
        .byte   W06
        .byte   PEND
@ 005   ----------------------------------------
anothertest_3_5:
        .byte           N05   , Cs1 , v120
        .byte   W06
        .byte                   Cs1
        .byte   W06
        .byte                   Cs2
        .byte   W06
        .byte                   Cs2
        .byte   W06
        .byte                   Cs1
        .byte   W06
        .byte                   Cs1
        .byte   W06
        .byte                   Cs2
        .byte   W06
        .byte                   Cs2
        .byte   W06
        .byte                   Cs1
        .byte   W06
        .byte                   Cs1
        .byte   W06
        .byte                   Cs2
        .byte   W06
        .byte                   Cs2
        .byte   W06
        .byte                   Cs1
        .byte   W06
        .byte                   Cs1
        .byte   W06
        .byte                   Cs2
        .byte   W06
        .byte                   Cs2
        .byte   W06
        .byte   PEND
@ 006   ----------------------------------------
        .byte   PATT
         .word  anothertest_3_4
@ 007   ----------------------------------------
        .byte   PATT
         .word  anothertest_3_5
@ 008   ----------------------------------------
anothertest_3_8:
        .byte           N05   , Bn0 , v120
        .byte   W06
        .byte                   Bn0
        .byte   W06
        .byte                   Bn1
        .byte   W06
        .byte                   Bn1
        .byte   W06
        .byte                   Bn0
        .byte   W06
        .byte                   Bn0
        .byte   W06
        .byte                   Bn1
        .byte   W06
        .byte                   Bn1
        .byte   W06
        .byte                   Bn0
        .byte   W06
        .byte                   Bn0
        .byte   W06
        .byte                   Bn1
        .byte   W06
        .byte                   Bn1
        .byte   W06
        .byte                   Bn0
        .byte   W06
        .byte                   Bn0
        .byte   W06
        .byte                   Bn1
        .byte   W06
        .byte                   Bn1
        .byte   W06
        .byte   PEND
@ 009   ----------------------------------------
        .byte   PATT
         .word  anothertest_3_8
@ 010   ----------------------------------------
        .byte   PATT
         .word  anothertest_3_5
@ 011   ----------------------------------------
        .byte   PATT
         .word  anothertest_3_5
@ 012   ----------------------------------------
        .byte           N11   , Bn0 , v120
        .byte   W12
        .byte           N05
        .byte   W06
        .byte                   Bn0
        .byte   W06
        .byte           N11
        .byte   W12
        .byte           N05   , Ds1
        .byte   W06
        .byte                   Ds1
        .byte   W06
        .byte           N11
        .byte   W12
        .byte           N05   , Fs1
        .byte   W06
        .byte                   Fs1
        .byte   W06
        .byte           N11
        .byte   W12
        .byte           N05   , As1
        .byte   W06
        .byte                   As1
        .byte   W06
@ 013   ----------------------------------------
        .byte           N11   , Bn1
        .byte   W12
        .byte           N05
        .byte   W06
        .byte                   Bn1
        .byte   W06
        .byte           N11   , As1
        .byte   W12
        .byte           N05   , Fs1
        .byte   W06
        .byte                   Fs1
        .byte   W06
        .byte           N11
        .byte   W12
        .byte           N05   , Ds1
        .byte   W06
        .byte                   Ds1
        .byte   W06
        .byte           N11   , Bn0
        .byte   W12
        .byte           N05   , Cs1
        .byte   W06
        .byte                   Cs1
        .byte   W06
@ 014   ----------------------------------------
        .byte           N11   , Ds1
        .byte   W12
        .byte           N05
        .byte   W06
        .byte                   Ds1
        .byte   W06
        .byte           N11
        .byte   W12
        .byte           N05   , Fn1
        .byte   W06
        .byte                   Fn1
        .byte   W06
        .byte           N11
        .byte   W12
        .byte           N05   , Fs1
        .byte   W06
        .byte                   Fs1
        .byte   W06
        .byte           N11
        .byte   W12
        .byte           N05   , As1
        .byte   W06
        .byte                   As1
        .byte   W06
@ 015   ----------------------------------------
        .byte           N11   , Cs2
        .byte   W12
        .byte           N05
        .byte   W06
        .byte                   Cs2
        .byte   W06
        .byte           N11   , As1
        .byte   W12
        .byte           N05   , Fs1
        .byte   W06
        .byte                   Fs1
        .byte   W06
        .byte           N11
        .byte   W12
        .byte           N05   , Fn1
        .byte   W06
        .byte                   Fn1
        .byte   W06
        .byte           N11   , Ds1
        .byte   W12
        .byte           N05   , As0
        .byte   W06
        .byte                   As0
        .byte   W06
@ 016   ----------------------------------------
        .byte                   Bn0
        .byte   W06
        .byte                   Bn0
        .byte   W06
        .byte                   Bn0
        .byte   W24
        .byte                   Bn0
        .byte   W06
        .byte                   Bn0
        .byte   W06
        .byte                   Bn0
        .byte   W24
        .byte                   Bn0
        .byte   W06
        .byte                   Bn0
        .byte   W06
        .byte           N11
        .byte   W12
@ 017   ----------------------------------------
        .byte           N05
        .byte   W06
        .byte                   Bn0
        .byte   W06
        .byte                   Bn0
        .byte   W24
        .byte                   Bn0
        .byte   W06
        .byte                   Bn0
        .byte   W06
        .byte                   Bn0
        .byte   W48
@ 018   ----------------------------------------
        .byte                   As0
        .byte   W06
        .byte                   As0
        .byte   W06
        .byte                   As0
        .byte   W24
        .byte                   As0
        .byte   W06
        .byte                   As0
        .byte   W06
        .byte                   As0
        .byte   W24
        .byte                   As0
        .byte   W06
        .byte                   As0
        .byte   W06
        .byte           N11
        .byte   W12
@ 019   ----------------------------------------
        .byte           N05
        .byte   W06
        .byte                   As0
        .byte   W06
        .byte                   As0
        .byte   W24
        .byte                   As0
        .byte   W06
        .byte                   As0
        .byte   W06
        .byte                   As0
        .byte   W48
@ 020   ----------------------------------------
anothertest_3_20:
        .byte           N11   , Ds1 , v120
        .byte   W12
        .byte           N05   , Ds2
        .byte   W06
        .byte                   Ds2
        .byte   W06
        .byte           N11   , Ds1
        .byte   W12
        .byte           N05   , Ds2
        .byte   W06
        .byte                   Ds2
        .byte   W06
        .byte           N11   , Fn1
        .byte   W12
        .byte           N05   , Fn2
        .byte   W06
        .byte                   Fn2
        .byte   W06
        .byte           N11   , Fn1
        .byte   W12
        .byte           N05   , Fn2
        .byte   W06
        .byte                   Fn2
        .byte   W06
        .byte   PEND
@ 021   ----------------------------------------
anothertest_3_21:
        .byte           N11   , Fs1 , v120
        .byte   W12
        .byte           N05   , Fs2
        .byte   W06
        .byte                   Fs2
        .byte   W06
        .byte           N11   , Fs1
        .byte   W12
        .byte           N05   , Fs2
        .byte   W06
        .byte                   Fs2
        .byte   W06
        .byte           N11   , Fn1
        .byte   W12
        .byte           N05   , Fn2
        .byte   W06
        .byte                   Fn2
        .byte   W06
        .byte           N11   , Fn1
        .byte   W12
        .byte           N05   , Fn2
        .byte   W06
        .byte                   Fn2
        .byte   W06
        .byte   PEND
@ 022   ----------------------------------------
        .byte   PATT
         .word  anothertest_3_20
@ 023   ----------------------------------------
        .byte   PATT
         .word  anothertest_3_21
@ 024   ----------------------------------------
        .byte   PATT
         .word  anothertest_3_20
@ 025   ----------------------------------------
        .byte   PATT
         .word  anothertest_3_21
@ 026   ----------------------------------------
        .byte   PATT
         .word  anothertest_3_20
@ 027   ----------------------------------------
anothertest_3_27:
        .byte           N11   , Fs1 , v120
        .byte   W12
        .byte           N05   , Fs2
        .byte   W06
        .byte                   Fs2
        .byte   W06
        .byte           N11   , Fs1
        .byte   W12
        .byte           N05   , Fs2
        .byte   W06
        .byte                   Fs2
        .byte   W06
        .byte           N11   , Fn1
        .byte   W12
        .byte           N05   , Fn2
        .byte   W06
        .byte                   Fn2
        .byte   W06
        .byte           N11   , Cs1
        .byte   W12
        .byte           N05   , Cs2
        .byte   W06
        .byte                   Cs2
        .byte   W06
        .byte   PEND
@ 028   ----------------------------------------
anothertest_3_28:
        .byte           N11   , Bn0 , v120
        .byte   W12
        .byte           N05   , Bn1
        .byte   W06
        .byte                   Bn1
        .byte   W06
        .byte           N11   , Bn0
        .byte   W12
        .byte           N05   , Bn1
        .byte   W06
        .byte                   Bn1
        .byte   W06
        .byte           N11   , Bn0
        .byte   W12
        .byte           N05   , Bn1
        .byte   W06
        .byte                   Bn1
        .byte   W06
        .byte           N11   , Bn0
        .byte   W12
        .byte           N05   , Bn1
        .byte   W06
        .byte                   Bn1
        .byte   W06
        .byte   PEND
@ 029   ----------------------------------------
anothertest_3_29:
        .byte           N11   , Cs1 , v120
        .byte   W12
        .byte           N05   , Cs2
        .byte   W06
        .byte                   Cs2
        .byte   W06
        .byte           N11   , Cs1
        .byte   W12
        .byte           N05   , Cs2
        .byte   W06
        .byte                   Cs2
        .byte   W06
        .byte           N11   , Cs1
        .byte   W12
        .byte           N05   , Cs2
        .byte   W06
        .byte                   Cs2
        .byte   W06
        .byte           N11   , Cs1
        .byte   W12
        .byte           N05   , Cs2
        .byte   W06
        .byte                   Cs2
        .byte   W06
        .byte   PEND
@ 030   ----------------------------------------
anothertest_3_30:
        .byte           N11   , Gs0 , v120
        .byte   W12
        .byte           N05   , Gs1
        .byte   W06
        .byte                   Gs1
        .byte   W06
        .byte           N11   , Gs0
        .byte   W12
        .byte           N05   , Gs1
        .byte   W06
        .byte                   Gs1
        .byte   W06
        .byte           N11   , Gs0
        .byte   W12
        .byte           N05   , Gs1
        .byte   W06
        .byte                   Gs1
        .byte   W06
        .byte           N11   , Gs0
        .byte   W12
        .byte           N05   , Gs1
        .byte   W06
        .byte                   Gs1
        .byte   W06
        .byte   PEND
@ 031   ----------------------------------------
anothertest_3_31:
        .byte           N11   , Bn0 , v120
        .byte   W12
        .byte           N05   , Bn1
        .byte   W06
        .byte                   Bn1
        .byte   W06
        .byte           N11   , Bn0
        .byte   W12
        .byte           N05   , Bn1
        .byte   W06
        .byte                   Bn1
        .byte   W06
        .byte           N11   , Cs1
        .byte   W12
        .byte           N05   , Cs2
        .byte   W06
        .byte                   Cs2
        .byte   W06
        .byte                   Cs1
        .byte   W06
        .byte                   Cs1
        .byte   W06
        .byte                   Cs2
        .byte   W06
        .byte                   Cs2
        .byte   W06
        .byte   PEND
@ 032   ----------------------------------------
        .byte   PATT
         .word  anothertest_3_28
@ 033   ----------------------------------------
        .byte   PATT
         .word  anothertest_3_29
@ 034   ----------------------------------------
        .byte   PATT
         .word  anothertest_3_30
@ 035   ----------------------------------------
anothertest_3_35:
        .byte           N11   , Bn0 , v120
        .byte   W12
        .byte           N05   , Bn1
        .byte   W06
        .byte           N11   , Bn0
        .byte   W12
        .byte           N05
        .byte   W06
        .byte                   Bn1
        .byte   W06
        .byte                   Bn1
        .byte   W06
        .byte           N11   , Cs1
        .byte   W12
        .byte           N05   , Cs2
        .byte   W06
        .byte           N11   , Cs1
        .byte   W12
        .byte           N05
        .byte   W06
        .byte                   Dn1
        .byte   W06
        .byte                   Ds1
        .byte   W06
        .byte   PEND
@ 036   ----------------------------------------
anothertest_3_36:
        .byte           N05   , En1 , v120
        .byte   W12
        .byte                   En1
        .byte   W06
        .byte                   En1
        .byte   W06
        .byte                   En1
        .byte   W12
        .byte                   En1
        .byte   W06
        .byte                   En1
        .byte   W06
        .byte                   En1
        .byte   W12
        .byte                   En1
        .byte   W06
        .byte                   En1
        .byte   W06
        .byte                   En1
        .byte   W06
        .byte                   En1
        .byte   W06
        .byte                   En1
        .byte   W06
        .byte                   En1
        .byte   W06
        .byte   PEND
@ 037   ----------------------------------------
        .byte   PATT
         .word  anothertest_3_36
@ 038   ----------------------------------------
anothertest_3_38:
        .byte           N05   , Dn1 , v120
        .byte   W12
        .byte                   Dn1
        .byte   W06
        .byte                   Dn1
        .byte   W06
        .byte                   Dn1
        .byte   W12
        .byte                   Dn1
        .byte   W06
        .byte                   Dn1
        .byte   W06
        .byte                   Dn1
        .byte   W12
        .byte                   Dn1
        .byte   W06
        .byte                   Dn1
        .byte   W06
        .byte                   Dn1
        .byte   W06
        .byte                   Dn1
        .byte   W06
        .byte                   Dn1
        .byte   W06
        .byte                   Dn1
        .byte   W06
        .byte   PEND
@ 039   ----------------------------------------
        .byte   PATT
         .word  anothertest_3_38
@ 040   ----------------------------------------
        .byte   PATT
         .word  anothertest_3_36
@ 041   ----------------------------------------
        .byte   PATT
         .word  anothertest_3_36
@ 042   ----------------------------------------
        .byte   PATT
         .word  anothertest_3_38
@ 043   ----------------------------------------
anothertest_3_43:
        .byte           N05   , Dn1 , v120
        .byte   W12
        .byte                   Dn1
        .byte   W06
        .byte                   Dn1
        .byte   W06
        .byte                   Dn1
        .byte   W12
        .byte                   Dn1
        .byte   W06
        .byte                   Dn1
        .byte   W06
        .byte                   Dn1
        .byte   W12
        .byte                   Dn1
        .byte   W06
        .byte                   Dn1
        .byte   W06
        .byte                   Dn1
        .byte   W06
        .byte                   Dn1
        .byte   W06
        .byte                   Bn0
        .byte   W06
        .byte                   Bn0
        .byte   W06
        .byte   PEND
@ 044   ----------------------------------------
anothertest_3_44:
        .byte           N05   , An0 , v120
        .byte   W12
        .byte                   An0
        .byte   W06
        .byte                   An0
        .byte   W06
        .byte                   An0
        .byte   W12
        .byte                   An0
        .byte   W06
        .byte                   An0
        .byte   W06
        .byte                   An0
        .byte   W12
        .byte                   An0
        .byte   W06
        .byte                   An0
        .byte   W06
        .byte                   An0
        .byte   W12
        .byte                   Bn0
        .byte   W06
        .byte                   Cs1
        .byte   W06
        .byte   PEND
@ 045   ----------------------------------------
anothertest_3_45:
        .byte           N05   , Bn0 , v120
        .byte   W12
        .byte                   Bn0
        .byte   W06
        .byte                   Bn0
        .byte   W06
        .byte                   Bn0
        .byte   W12
        .byte                   Bn0
        .byte   W06
        .byte                   Bn0
        .byte   W06
        .byte                   Bn0
        .byte   W12
        .byte                   Bn0
        .byte   W06
        .byte                   Bn0
        .byte   W06
        .byte                   Bn0
        .byte   W06
        .byte                   Cs1
        .byte   W06
        .byte                   Ds1
        .byte   W06
        .byte                   Fn1
        .byte   W06
        .byte   PEND
@ 046   ----------------------------------------
anothertest_3_46:
        .byte           N05   , Fs1 , v120
        .byte   W12
        .byte                   Fs1
        .byte   W06
        .byte                   Fs1
        .byte   W06
        .byte                   Fs1
        .byte   W12
        .byte                   Fs1
        .byte   W06
        .byte                   Fs1
        .byte   W06
        .byte                   Fs1
        .byte   W12
        .byte                   Fs1
        .byte   W06
        .byte                   Fs1
        .byte   W06
        .byte                   Fs1
        .byte   W06
        .byte                   En1
        .byte   W06
        .byte                   Cs1
        .byte   W06
        .byte                   Bn0
        .byte   W06
        .byte   PEND
@ 047   ----------------------------------------
anothertest_3_47:
        .byte           N05   , Fs0 , v120
        .byte   W12
        .byte                   Fs0
        .byte   W06
        .byte                   Fs0
        .byte   W06
        .byte                   Fs0
        .byte   W12
        .byte                   Fs0
        .byte   W06
        .byte                   Fs0
        .byte   W06
        .byte                   Fs0
        .byte   W12
        .byte                   Fs0
        .byte   W06
        .byte                   Fs0
        .byte   W06
        .byte                   Fs0
        .byte   W06
        .byte                   Gs0
        .byte   W06
        .byte                   An0
        .byte   W06
        .byte                   Bn0
        .byte   W06
        .byte   PEND
@ 048   ----------------------------------------
        .byte   PATT
         .word  anothertest_3_44
@ 049   ----------------------------------------
        .byte   PATT
         .word  anothertest_3_45
@ 050   ----------------------------------------
        .byte   PATT
         .word  anothertest_3_46
@ 051   ----------------------------------------
anothertest_3_51:
        .byte           N05   , Fs0 , v120
        .byte   W12
        .byte                   Fs0
        .byte   W06
        .byte                   Fs0
        .byte   W06
        .byte                   Fs0
        .byte   W12
        .byte                   Fs0
        .byte   W06
        .byte                   Fs0
        .byte   W06
        .byte                   Fs0
        .byte   W12
        .byte                   Fs0
        .byte   W06
        .byte                   Fs0
        .byte   W06
        .byte                   Fs1
        .byte   W06
        .byte                   Fs0
        .byte   W06
        .byte                   Fs0
        .byte   W06
        .byte                   Fs0
        .byte   W06
        .byte   PEND
@ 052   ----------------------------------------
anothertest_3_52:
        .byte           PAN   , c_v+16
        .byte           N32   , En1 , v124 , gtp3
        .byte                   En2
        .byte   W24
        .byte   W01
        .byte           MOD   , 15
        .byte   W11
        .byte           N05   , En1
        .byte           N05   , En2
        .byte           MOD   , 0
        .byte   W06
        .byte           N05   , En1
        .byte           N05   , En2
        .byte   W06
        .byte           N32   , En1 , v124 , gtp3
        .byte                   En2
        .byte   W24
        .byte   W01
        .byte           MOD   , 15
        .byte   W11
        .byte           N05   , En1
        .byte           N05   , En2
        .byte           MOD   , 0
        .byte   W06
        .byte           N05   , En1
        .byte           N05   , En2
        .byte   W06
        .byte   PEND
@ 053   ----------------------------------------
anothertest_3_53:
        .byte           N23   , En1 , v124
        .byte           N23   , En2
        .byte   W24
        .byte                   En1
        .byte           N23   , En2
        .byte   W24
        .byte           N17   , En1
        .byte           N17   , En2
        .byte   W18
        .byte                   En1
        .byte           N17   , En2
        .byte   W18
        .byte           N11   , Fs1
        .byte           N11   , Fs2
        .byte   W12
        .byte   PEND
@ 054   ----------------------------------------
anothertest_3_54:
        .byte           N32   , Gs1 , v124 , gtp3
        .byte                   Gs2
        .byte   W24
        .byte   W01
        .byte           MOD   , 15
        .byte   W11
        .byte           N05   , Gs1
        .byte           N05   , Gs2
        .byte           MOD   , 0
        .byte   W06
        .byte           N05   , Gs1
        .byte           N05   , Gs2
        .byte   W06
        .byte           N32   , Gs1 , v124 , gtp3
        .byte                   Gs2
        .byte   W24
        .byte   W01
        .byte           MOD   , 15
        .byte   W11
        .byte           N05   , Gs1
        .byte           N05   , Gs2
        .byte           MOD   , 0
        .byte   W06
        .byte           N05   , Gs1
        .byte           N05   , Gs2
        .byte   W06
        .byte   PEND
@ 055   ----------------------------------------
anothertest_3_55:
        .byte           N23   , Gs1 , v124
        .byte           N23   , Gs2
        .byte   W24
        .byte                   Gs1
        .byte           N23   , Gs2
        .byte   W24
        .byte           N17   , Gs1
        .byte           N17   , Gs2
        .byte   W18
        .byte                   Gs1
        .byte           N17   , Gs2
        .byte   W18
        .byte           N11   , Fs1
        .byte           N11   , Fs2
        .byte   W12
        .byte   PEND
@ 056   ----------------------------------------
anothertest_3_56:
        .byte           N32   , En1 , v124 , gtp3
        .byte                   En2
        .byte   W24
        .byte   W01
        .byte           MOD   , 15
        .byte   W11
        .byte           N05   , En1
        .byte           N05   , En2
        .byte           MOD   , 0
        .byte   W06
        .byte           N05   , En1
        .byte           N05   , En2
        .byte   W06
        .byte           N32   , En1 , v124 , gtp3
        .byte                   En2
        .byte   W24
        .byte   W01
        .byte           MOD   , 15
        .byte   W11
        .byte           N05   , En1
        .byte           N05   , En2
        .byte           MOD   , 0
        .byte   W06
        .byte           N05   , En1
        .byte           N05   , En2
        .byte   W06
        .byte   PEND
@ 057   ----------------------------------------
        .byte   PATT
         .word  anothertest_3_53
@ 058   ----------------------------------------
        .byte   PATT
         .word  anothertest_3_54
@ 059   ----------------------------------------
anothertest_3_59:
        .byte           N23   , Gs1 , v124
        .byte           N23   , Gs2
        .byte   W24
        .byte                   Gs1
        .byte           N23   , Gs2
        .byte   W24
        .byte           N17   , Gs1
        .byte           N17   , Gs2
        .byte   W18
        .byte                   Gs1
        .byte           N17   , Gs2
        .byte   W18
        .byte           N11   , Gs1
        .byte           N11   , Gs2
        .byte   W12
        .byte   PEND
@ 060   ----------------------------------------
anothertest_3_60:
        .byte           N32   , An1 , v124 , gtp3
        .byte                   An2
        .byte   W24
        .byte   W01
        .byte           MOD   , 15
        .byte   W11
        .byte           N05   , An1
        .byte           N05   , An2
        .byte           MOD   , 0
        .byte   W06
        .byte           N05   , An1
        .byte           N05   , An2
        .byte   W06
        .byte           N32   , An1 , v124 , gtp3
        .byte                   An2
        .byte   W24
        .byte   W01
        .byte           MOD   , 15
        .byte   W11
        .byte           N05   , An1
        .byte           N05   , An2
        .byte           MOD   , 0
        .byte   W06
        .byte           N05   , An1
        .byte           N05   , An2
        .byte   W06
        .byte   PEND
@ 061   ----------------------------------------
anothertest_3_61:
        .byte           N23   , An1 , v124
        .byte           N23   , An2
        .byte   W24
        .byte                   An1
        .byte           N23   , An2
        .byte   W24
        .byte           N17   , An1
        .byte           N17   , An2
        .byte   W18
        .byte                   An1
        .byte           N17   , An2
        .byte   W18
        .byte           N11   , Bn1
        .byte           N11   , Bn2
        .byte   W12
        .byte   PEND
@ 062   ----------------------------------------
        .byte   PATT
         .word  anothertest_3_54
@ 063   ----------------------------------------
        .byte   PATT
         .word  anothertest_3_59
@ 064   ----------------------------------------
        .byte   PATT
         .word  anothertest_3_54
@ 065   ----------------------------------------
        .byte   PATT
         .word  anothertest_3_59
@ 066   ----------------------------------------
        .byte   PATT
         .word  anothertest_3_54
@ 067   ----------------------------------------
        .byte           N23   , Gs1 , v124
        .byte           N23   , Gs2
        .byte   W24
        .byte                   Gs1
        .byte           N23   , Gs2
        .byte   W24
        .byte           N17   , Gs1
        .byte           N17   , Gs2
        .byte   W18
        .byte           N05   , Gs1
        .byte           N05   , Gs2
        .byte   W06
        .byte           PAN   , c_v+0
        .byte           N05   , Cs1 , v120
        .byte   W12
        .byte                   Cs1
        .byte   W06
        .byte                   Cs1
        .byte   W06
@ 068   ----------------------------------------
        .byte   PATT
         .word  anothertest_3_20
@ 069   ----------------------------------------
        .byte   PATT
         .word  anothertest_3_21
@ 070   ----------------------------------------
        .byte   PATT
         .word  anothertest_3_20
@ 071   ----------------------------------------
        .byte   PATT
         .word  anothertest_3_21
@ 072   ----------------------------------------
        .byte   PATT
         .word  anothertest_3_20
@ 073   ----------------------------------------
        .byte   PATT
         .word  anothertest_3_21
@ 074   ----------------------------------------
        .byte   PATT
         .word  anothertest_3_20
@ 075   ----------------------------------------
        .byte   PATT
         .word  anothertest_3_27
@ 076   ----------------------------------------
        .byte   PATT
         .word  anothertest_3_28
@ 077   ----------------------------------------
        .byte   PATT
         .word  anothertest_3_29
@ 078   ----------------------------------------
        .byte   PATT
         .word  anothertest_3_30
@ 079   ----------------------------------------
        .byte   PATT
         .word  anothertest_3_31
@ 080   ----------------------------------------
        .byte   PATT
         .word  anothertest_3_28
@ 081   ----------------------------------------
        .byte   PATT
         .word  anothertest_3_29
@ 082   ----------------------------------------
        .byte   PATT
         .word  anothertest_3_30
@ 083   ----------------------------------------
        .byte   PATT
         .word  anothertest_3_35
@ 084   ----------------------------------------
        .byte   PATT
         .word  anothertest_3_36
@ 085   ----------------------------------------
        .byte   PATT
         .word  anothertest_3_36
@ 086   ----------------------------------------
        .byte   PATT
         .word  anothertest_3_38
@ 087   ----------------------------------------
        .byte   PATT
         .word  anothertest_3_38
@ 088   ----------------------------------------
        .byte   PATT
         .word  anothertest_3_36
@ 089   ----------------------------------------
        .byte   PATT
         .word  anothertest_3_36
@ 090   ----------------------------------------
        .byte   PATT
         .word  anothertest_3_38
@ 091   ----------------------------------------
        .byte   PATT
         .word  anothertest_3_43
@ 092   ----------------------------------------
        .byte   PATT
         .word  anothertest_3_44
@ 093   ----------------------------------------
        .byte   PATT
         .word  anothertest_3_45
@ 094   ----------------------------------------
        .byte   PATT
         .word  anothertest_3_46
@ 095   ----------------------------------------
        .byte   PATT
         .word  anothertest_3_47
@ 096   ----------------------------------------
        .byte   PATT
         .word  anothertest_3_44
@ 097   ----------------------------------------
        .byte   PATT
         .word  anothertest_3_45
@ 098   ----------------------------------------
        .byte   PATT
         .word  anothertest_3_46
@ 099   ----------------------------------------
        .byte   PATT
         .word  anothertest_3_51
@ 100   ----------------------------------------
        .byte   PATT
         .word  anothertest_3_52
@ 101   ----------------------------------------
        .byte   PATT
         .word  anothertest_3_53
@ 102   ----------------------------------------
        .byte   PATT
         .word  anothertest_3_54
@ 103   ----------------------------------------
        .byte   PATT
         .word  anothertest_3_55
@ 104   ----------------------------------------
        .byte   PATT
         .word  anothertest_3_56
@ 105   ----------------------------------------
        .byte   PATT
         .word  anothertest_3_53
@ 106   ----------------------------------------
        .byte   PATT
         .word  anothertest_3_54
@ 107   ----------------------------------------
        .byte   PATT
         .word  anothertest_3_59
@ 108   ----------------------------------------
        .byte   PATT
         .word  anothertest_3_60
@ 109   ----------------------------------------
        .byte   PATT
         .word  anothertest_3_61
@ 110   ----------------------------------------
        .byte   PATT
         .word  anothertest_3_54
@ 111   ----------------------------------------
        .byte   PATT
         .word  anothertest_3_59
@ 112   ----------------------------------------
        .byte   PATT
         .word  anothertest_3_54
@ 113   ----------------------------------------
        .byte   PATT
         .word  anothertest_3_59
@ 114   ----------------------------------------
        .byte   PATT
         .word  anothertest_3_54
@ 115   ----------------------------------------
        .byte   PATT
         .word  anothertest_3_59
@ 116   ----------------------------------------
        .byte           PAN   , c_v-16
        .byte           N11   , Ds2 , v120
        .byte   W12
        .byte           N05   , Cs2
        .byte   W06
        .byte           N11   , Ds2
        .byte   W12
        .byte           N05
        .byte   W06
        .byte                   Cs2
        .byte   W12
        .byte           N11   , Ds2
        .byte   W12
        .byte           N05   , Cs2
        .byte   W12
        .byte           N11   , Ds2
        .byte   W12
        .byte           N05   , Cs2
        .byte   W12
@ 117   ----------------------------------------
anothertest_3_117:
        .byte           N11   , Ds2 , v120
        .byte   W12
        .byte           N05   , Cs2
        .byte   W06
        .byte           N11   , Ds2
        .byte   W12
        .byte           N05
        .byte   W06
        .byte                   Cs2
        .byte   W12
        .byte           N11   , Ds2
        .byte   W12
        .byte           N05   , Cs2
        .byte   W12
        .byte                   Ds2
        .byte   W06
        .byte                   En2
        .byte   W06
        .byte                   Fs2
        .byte   W06
        .byte                   Ds2
        .byte   W06
        .byte   PEND
@ 118   ----------------------------------------
anothertest_3_118:
        .byte           N11   , En2 , v120
        .byte   W12
        .byte           N05   , Ds2
        .byte   W06
        .byte           N11   , En2
        .byte   W12
        .byte           N05
        .byte   W06
        .byte                   Ds2
        .byte   W12
        .byte           N11   , En2
        .byte   W12
        .byte           N05   , Ds2
        .byte   W12
        .byte           N11   , En2
        .byte   W12
        .byte           N05   , Ds2
        .byte   W12
        .byte   PEND
@ 119   ----------------------------------------
anothertest_3_119:
        .byte           N11   , En2 , v120
        .byte   W12
        .byte           N05   , Ds2
        .byte   W06
        .byte           N11   , En2
        .byte   W12
        .byte           N05
        .byte   W06
        .byte                   Ds2
        .byte   W12
        .byte           N11   , En2
        .byte   W12
        .byte           N05   , Ds2
        .byte   W12
        .byte                   En2
        .byte   W06
        .byte                   Cs2
        .byte   W06
        .byte                   An1
        .byte   W06
        .byte                   En2
        .byte   W06
        .byte   PEND
@ 120   ----------------------------------------
        .byte           N11   , Ds2
        .byte   W12
        .byte           N05   , Cs2
        .byte   W06
        .byte           N11   , Ds2
        .byte   W12
        .byte           N05
        .byte   W06
        .byte                   Cs2
        .byte   W12
        .byte           N11   , Ds2
        .byte   W12
        .byte           N05   , Cs2
        .byte   W12
        .byte           N11   , Ds2
        .byte   W12
        .byte           N05   , Cs2
        .byte   W12
@ 121   ----------------------------------------
        .byte   PATT
         .word  anothertest_3_117
@ 122   ----------------------------------------
        .byte   PATT
         .word  anothertest_3_118
@ 123   ----------------------------------------
        .byte   PATT
         .word  anothertest_3_119
@ 124   ----------------------------------------
anothertest_3_124:
        .byte           N80   , En2 , v120 , gtp3
        .byte   W84
        .byte           N05
        .byte   W06
        .byte                   En2
        .byte   W06
        .byte   PEND
@ 125   ----------------------------------------
        .byte           N44   , En2 , v120 , gtp3
        .byte   W48
        .byte           N17
        .byte   W18
        .byte                   En2
        .byte   W18
        .byte           N11
        .byte   W12
@ 126   ----------------------------------------
        .byte           N80   , Ds2 , v120 , gtp3
        .byte   W84
        .byte           N05
        .byte   W06
        .byte                   Ds2
        .byte   W06
@ 127   ----------------------------------------
        .byte           N23
        .byte   W24
        .byte                   Fs2
        .byte   W24
        .byte                   As2
        .byte   W24
        .byte                   Cs3
        .byte   W24
@ 128   ----------------------------------------
        .byte           N80   , Cs3 , v120 , gtp3
        .byte   W84
        .byte           N05
        .byte   W06
        .byte                   Cs3
        .byte   W06
@ 129   ----------------------------------------
        .byte           N44   , Cs3 , v120 , gtp3
        .byte   W48
        .byte           N17   , Bn2
        .byte   W18
        .byte                   Cs3
        .byte   W18
        .byte           N11
        .byte   W12
@ 130   ----------------------------------------
        .byte           N44   , Ds3 , v120 , gtp3
        .byte   W48
        .byte           N17
        .byte   W18
        .byte                   Fs3
        .byte   W18
        .byte           N05   , Ds3
        .byte   W06
        .byte                   Cs3
        .byte   W06
@ 131   ----------------------------------------
        .byte           N44   , As2 , v120 , gtp3
        .byte   W48
        .byte           N11
        .byte   W12
        .byte                   As2
        .byte   W12
        .byte                   Cs3
        .byte   W12
        .byte                   As2
        .byte   W12
@ 132   ----------------------------------------
        .byte           N80   , An2 , v120 , gtp3
        .byte   W84
        .byte           N05
        .byte   W06
        .byte                   An2
        .byte   W06
@ 133   ----------------------------------------
        .byte           N23
        .byte   W24
        .byte                   En2
        .byte   W24
        .byte                   Fs2
        .byte   W24
        .byte                   An2
        .byte   W24
@ 134   ----------------------------------------
        .byte   PATT
         .word  anothertest_1_126
@ 135   ----------------------------------------
        .byte           N44   , Fs2 , v120 , gtp3
        .byte   W48
        .byte           N17
        .byte   W18
        .byte                   Fs2
        .byte   W18
        .byte           N11   , Ds2
        .byte   W12
@ 136   ----------------------------------------
        .byte   PATT
         .word  anothertest_3_124
@ 137   ----------------------------------------
        .byte           N44   , En2 , v120 , gtp3
        .byte   W48
        .byte           N11
        .byte   W12
        .byte                   Gs2
        .byte   W12
        .byte                   An2
        .byte   W12
        .byte                   Cs3
        .byte   W12
@ 138   ----------------------------------------
        .byte           N80   , Dn3 , v120 , gtp3
        .byte   W84
        .byte           N05
        .byte   W06
        .byte                   Dn3
        .byte   W06
@ 139   ----------------------------------------
        .byte           N44   , Dn3 , v120 , gtp3
        .byte   W48
        .byte                   En3
        .byte   W48
@ 140   ----------------------------------------
        .byte           PAN   , c_v+0
        .byte   GOTO
         .word  anothertest_3_LOOP
        .byte   FINE

@****************** Track 4 (Midi-Chn.4) ******************@

anothertest_4:
        .byte   KEYSH , anothertest_key+0
@ 000   ----------------------------------------
anothertest_4_LOOP:
        .byte           VOICE , 40
        .byte           PAN   , c_v+6
        .byte           VOL   , 57
        .byte           N05   , Cs4 , v120
        .byte   W06
        .byte                   Gs3
        .byte   W06
        .byte                   Fs3
        .byte   W06
        .byte                   Cs3
        .byte   W06
        .byte                   Bn2
        .byte   W06
        .byte                   Cs3
        .byte   W06
        .byte                   Fs3
        .byte   W06
        .byte                   Gs3
        .byte   W06
        .byte                   Cs4
        .byte   W06
        .byte                   Gs3
        .byte   W06
        .byte                   Fs3
        .byte   W06
        .byte                   Cs3
        .byte   W06
        .byte                   Bn2
        .byte   W06
        .byte                   Cs3
        .byte   W06
        .byte                   Fs3
        .byte   W06
        .byte                   Gs3
        .byte   W06
@ 001   ----------------------------------------
anothertest_4_1:
        .byte           N05   , Cs4 , v120
        .byte   W06
        .byte                   Gs3
        .byte   W06
        .byte                   Fs3
        .byte   W06
        .byte                   Cs3
        .byte   W06
        .byte                   Bn2
        .byte   W06
        .byte                   Cs3
        .byte   W06
        .byte                   Fs3
        .byte   W06
        .byte                   Gs3
        .byte   W06
        .byte                   Cs4
        .byte   W06
        .byte                   Gs3
        .byte   W06
        .byte                   Fs3
        .byte   W06
        .byte                   Cs3
        .byte   W06
        .byte                   Bn2
        .byte   W06
        .byte                   Cs3
        .byte   W06
        .byte                   Fs3
        .byte   W06
        .byte                   Gs3
        .byte   W06
        .byte   PEND
@ 002   ----------------------------------------
        .byte   PATT
         .word  anothertest_4_1
@ 003   ----------------------------------------
        .byte           N05   , Cs4 , v120
        .byte   W06
        .byte                   Gs3
        .byte   W06
        .byte                   Fs3
        .byte   W06
        .byte                   Cs3
        .byte   W06
        .byte                   Bn2
        .byte   W06
        .byte                   Cs3
        .byte   W06
        .byte                   Fs3
        .byte   W06
        .byte                   Gs3
        .byte   W06
        .byte                   Cs4
        .byte   W06
        .byte                   Gs3
        .byte   W06
        .byte                   Fs3
        .byte   W06
        .byte                   Fs3
        .byte   W06
        .byte                   Fn3
        .byte   W06
        .byte                   Cs3
        .byte   W06
        .byte                   As2
        .byte   W06
        .byte                   Gs2
        .byte   W06
@ 004   ----------------------------------------
anothertest_4_4:
        .byte           N05   , Cs3 , v120
        .byte   W06
        .byte                   Ds3
        .byte   W06
        .byte                   Gs3
        .byte   W06
        .byte                   As3
        .byte   W06
        .byte                   Cs4
        .byte   W06
        .byte                   Gs3
        .byte   W06
        .byte                   As3
        .byte   W06
        .byte                   Cs4
        .byte   W06
        .byte                   Ds4
        .byte   W06
        .byte                   As3
        .byte   W06
        .byte                   Gs3
        .byte   W06
        .byte                   Fs3
        .byte   W06
        .byte                   Fn3
        .byte   W06
        .byte                   Fs3
        .byte   W06
        .byte                   Gs3
        .byte   W06
        .byte                   Cs4
        .byte   W06
        .byte   PEND
@ 005   ----------------------------------------
anothertest_4_5:
        .byte           N05   , Cs3 , v120
        .byte   W06
        .byte                   Ds3
        .byte   W06
        .byte                   Gs3
        .byte   W06
        .byte                   As3
        .byte   W06
        .byte                   Cs4
        .byte   W06
        .byte                   Gs3
        .byte   W06
        .byte                   As3
        .byte   W06
        .byte                   Cs4
        .byte   W06
        .byte                   Ds4
        .byte   W06
        .byte                   As3
        .byte   W06
        .byte                   Gs3
        .byte   W06
        .byte                   Fs3
        .byte   W06
        .byte                   Fn3
        .byte   W06
        .byte                   Fs3
        .byte   W06
        .byte                   Fn3
        .byte   W06
        .byte                   Ds3
        .byte   W06
        .byte   PEND
@ 006   ----------------------------------------
        .byte   PATT
         .word  anothertest_4_4
@ 007   ----------------------------------------
        .byte   PATT
         .word  anothertest_4_5
@ 008   ----------------------------------------
        .byte           N05   , Bn2 , v120
        .byte   W06
        .byte                   Ds3
        .byte   W06
        .byte                   Fs3
        .byte   W06
        .byte                   As3
        .byte   W06
        .byte                   Bn3
        .byte   W06
        .byte                   Fs3
        .byte   W06
        .byte                   As3
        .byte   W06
        .byte                   Bn3
        .byte   W06
        .byte                   Ds4
        .byte   W06
        .byte                   Bn3
        .byte   W06
        .byte                   As3
        .byte   W06
        .byte                   Fs3
        .byte   W06
        .byte                   Ds3
        .byte   W06
        .byte                   Fs3
        .byte   W06
        .byte                   As3
        .byte   W06
        .byte                   Bn3
        .byte   W06
@ 009   ----------------------------------------
        .byte                   Bn2
        .byte   W06
        .byte                   Ds3
        .byte   W06
        .byte                   Fs3
        .byte   W06
        .byte                   As3
        .byte   W06
        .byte                   Bn3
        .byte   W06
        .byte                   Fs3
        .byte   W06
        .byte                   As3
        .byte   W06
        .byte                   Bn3
        .byte   W06
        .byte                   Ds4
        .byte   W06
        .byte                   Bn3
        .byte   W06
        .byte                   As3
        .byte   W06
        .byte                   Fs3
        .byte   W06
        .byte                   Ds3
        .byte   W06
        .byte                   As3
        .byte   W06
        .byte                   Fs3
        .byte   W06
        .byte                   Fn3
        .byte   W06
@ 010   ----------------------------------------
        .byte                   Cs3
        .byte   W06
        .byte                   Ds3
        .byte   W06
        .byte                   Fn3
        .byte   W06
        .byte                   Gs3
        .byte   W06
        .byte                   Cs4
        .byte   W06
        .byte                   Fn3
        .byte   W06
        .byte                   Gs3
        .byte   W06
        .byte                   Cs4
        .byte   W06
        .byte                   Fn4
        .byte   W06
        .byte                   Cs4
        .byte   W06
        .byte                   Gs3
        .byte   W06
        .byte                   Fs3
        .byte   W06
        .byte                   Fn3
        .byte   W06
        .byte                   Fs3
        .byte   W06
        .byte                   Gs3
        .byte   W06
        .byte                   Cs4
        .byte   W06
@ 011   ----------------------------------------
        .byte                   Cs3
        .byte   W06
        .byte                   Ds3
        .byte   W06
        .byte                   Fn3
        .byte   W06
        .byte                   Gs3
        .byte   W06
        .byte                   Cs4
        .byte   W06
        .byte                   Fn3
        .byte   W06
        .byte                   Gs3
        .byte   W06
        .byte                   Cs4
        .byte   W06
        .byte                   Fn4
        .byte   W06
        .byte                   Cs4
        .byte   W06
        .byte                   Gs3
        .byte   W06
        .byte                   Fn3
        .byte   W06
        .byte                   Cs4
        .byte   W06
        .byte                   Gs3
        .byte   W06
        .byte                   Fn3
        .byte   W06
        .byte                   Cs3
        .byte   W06
@ 012   ----------------------------------------
        .byte   PATT
         .word  anothertest_2_14
@ 013   ----------------------------------------
        .byte   PATT
         .word  anothertest_2_15
@ 014   ----------------------------------------
        .byte           N23   , Fs4 , v120
        .byte   W24
        .byte           N11   , Fn4
        .byte   W12
        .byte           N23   , Fs4
        .byte   W24
        .byte           N11   , Gs4
        .byte   W12
        .byte           N44   , Fs4 , v120 , gtp3
        .byte   W24
@ 015   ----------------------------------------
        .byte   W24
        .byte           N23
        .byte   W24
        .byte                   Gs4
        .byte   W24
        .byte                   Cs5
        .byte   W24
@ 016   ----------------------------------------
        .byte           N05   , As4
        .byte   W06
        .byte                   As4
        .byte   W06
        .byte                   As4
        .byte   W24
        .byte                   As4
        .byte   W06
        .byte                   As4
        .byte   W06
        .byte                   As4
        .byte   W24
        .byte                   As4
        .byte   W06
        .byte                   As4
        .byte   W06
        .byte           N11
        .byte   W12
@ 017   ----------------------------------------
        .byte           N05
        .byte   W06
        .byte                   As4
        .byte   W06
        .byte                   As4
        .byte   W24
        .byte                   As4
        .byte   W06
        .byte                   As4
        .byte   W06
        .byte                   As4
        .byte   W48
@ 018   ----------------------------------------
        .byte                   Gs4
        .byte   W06
        .byte                   Gs4
        .byte   W06
        .byte                   Gs4
        .byte   W24
        .byte                   Gs4
        .byte   W06
        .byte                   Gs4
        .byte   W06
        .byte                   Gs4
        .byte   W24
        .byte                   Gs4
        .byte   W06
        .byte                   Gs4
        .byte   W06
        .byte           N11
        .byte   W12
@ 019   ----------------------------------------
        .byte           N05
        .byte   W06
        .byte                   Gs4
        .byte   W06
        .byte                   Gs4
        .byte   W24
        .byte                   Gs4
        .byte   W06
        .byte                   Gs4
        .byte   W06
        .byte                   Gs4
        .byte   W36
        .byte                   As3
        .byte   W06
        .byte                   Cs4
        .byte   W06
@ 020   ----------------------------------------
        .byte           TIE   , Ds4
        .byte   W96
@ 021   ----------------------------------------
anothertest_4_21:
        .byte   W23
        .byte           EOT   , Ds4
        .byte   W01
        .byte           N23   , Ds4 , v120
        .byte   W24
        .byte                   Fn4
        .byte   W24
        .byte                   Fs4
        .byte   W24
        .byte   PEND
@ 022   ----------------------------------------
anothertest_4_22:
        .byte           N17   , Fn4 , v120
        .byte   W18
        .byte                   Ds4
        .byte   W18
        .byte           N11   , Cs4
        .byte   W12
        .byte           TIE   , Ds4
        .byte   W48
        .byte   PEND
@ 023   ----------------------------------------
anothertest_4_23:
        .byte   W80
        .byte   W03
        .byte           EOT   , Ds4
        .byte   W01
        .byte           N05   , As3 , v120
        .byte   W06
        .byte                   Cs4
        .byte   W06
        .byte   PEND
@ 024   ----------------------------------------
        .byte           TIE   , Ds4
        .byte   W96
@ 025   ----------------------------------------
        .byte   PATT
         .word  anothertest_4_21
@ 026   ----------------------------------------
anothertest_4_26:
        .byte           N17   , Fn4 , v120
        .byte   W18
        .byte                   Gs4
        .byte   W18
        .byte           N11   , Fn4
        .byte   W12
        .byte           TIE   , Ds4
        .byte   W48
        .byte   PEND
@ 027   ----------------------------------------
        .byte   PATT
         .word  anothertest_4_23
@ 028   ----------------------------------------
anothertest_4_28:
        .byte           N56   , Ds4 , v120 , gtp3
        .byte   W60
        .byte           N11
        .byte   W12
        .byte                   Cs4
        .byte   W12
        .byte                   Bn3
        .byte   W12
        .byte   PEND
@ 029   ----------------------------------------
anothertest_4_29:
        .byte           N23   , Cs4 , v120
        .byte   W24
        .byte           N11   , Gs3
        .byte   W12
        .byte           N23   , Fn3
        .byte   W24
        .byte           N11   , Fs3
        .byte   W12
        .byte                   Gs3
        .byte   W12
        .byte                   Cs4
        .byte   W12
        .byte   PEND
@ 030   ----------------------------------------
anothertest_4_30:
        .byte           N32   , Gs3 , v120 , gtp3
        .byte   W36
        .byte           N05   , Fs3
        .byte   W06
        .byte                   Fn3
        .byte   W06
        .byte           N23   , Fs3
        .byte   W24
        .byte                   Fn3
        .byte   W24
        .byte   PEND
@ 031   ----------------------------------------
anothertest_4_31:
        .byte           N32   , Fs3 , v120 , gtp3
        .byte   W36
        .byte           N05   , Gs3
        .byte   W06
        .byte                   Fs3
        .byte   W06
        .byte           N23   , Fn3
        .byte   W24
        .byte           N11   , Cs3
        .byte   W12
        .byte           N05   , As3
        .byte   W06
        .byte                   Cs4
        .byte   W06
        .byte   PEND
@ 032   ----------------------------------------
        .byte   PATT
         .word  anothertest_4_28
@ 033   ----------------------------------------
        .byte   PATT
         .word  anothertest_4_29
@ 034   ----------------------------------------
anothertest_4_34:
        .byte           N32   , Gs3 , v120 , gtp3
        .byte   W36
        .byte           N05   , Fs3
        .byte   W06
        .byte                   Fn3
        .byte   W06
        .byte           N32   , Fs3 , v120 , gtp3
        .byte   W36
        .byte           N05   , As2
        .byte   W06
        .byte                   Cs3
        .byte   W06
        .byte   PEND
@ 035   ----------------------------------------
anothertest_4_35:
        .byte           N05   , Ds3 , v120
        .byte   W18
        .byte           N17
        .byte   W18
        .byte           N05
        .byte   W06
        .byte                   Ds3
        .byte   W06
        .byte                   Fn3
        .byte   W18
        .byte           N17
        .byte   W18
        .byte           N05
        .byte   W06
        .byte                   Fn3
        .byte   W06
        .byte   PEND
@ 036   ----------------------------------------
anothertest_4_36:
        .byte           N80   , En3 , v120 , gtp3
        .byte   W84
        .byte           N05   , Gs2
        .byte   W06
        .byte                   Gs3
        .byte   W06
        .byte   PEND
@ 037   ----------------------------------------
anothertest_4_37:
        .byte           N32   , En3 , v120 , gtp3
        .byte   W36
        .byte           N05   , Cs3
        .byte   W06
        .byte                   Ds3
        .byte   W06
        .byte           N11   , En3
        .byte   W12
        .byte                   Ds3
        .byte   W12
        .byte                   Cs3
        .byte   W12
        .byte                   Gs2
        .byte   W12
        .byte   PEND
@ 038   ----------------------------------------
anothertest_4_38:
        .byte           N11   , Dn3 , v120
        .byte   W12
        .byte           N03   , Cs3
        .byte   W04
        .byte                   Dn3
        .byte   W04
        .byte                   Cs3
        .byte   W04
        .byte           N32   , An2 , v120 , gtp3
        .byte   W36
        .byte           N11
        .byte   W12
        .byte                   Gs2
        .byte   W12
        .byte                   Cs3
        .byte   W12
        .byte   PEND
@ 039   ----------------------------------------
anothertest_4_39:
        .byte           N05   , An2 , v120
        .byte   W06
        .byte                   Gs2
        .byte   W06
        .byte           N68   , An2 , v120 , gtp3
        .byte   W72
        .byte           N05   , Gs2
        .byte   W06
        .byte                   Gs3
        .byte   W06
        .byte   PEND
@ 040   ----------------------------------------
        .byte   PATT
         .word  anothertest_4_36
@ 041   ----------------------------------------
        .byte   PATT
         .word  anothertest_4_37
@ 042   ----------------------------------------
        .byte   PATT
         .word  anothertest_4_38
@ 043   ----------------------------------------
anothertest_4_43:
        .byte           N05   , An2 , v120
        .byte   W06
        .byte                   Gs2
        .byte   W06
        .byte           N68   , An2 , v120 , gtp3
        .byte   W72
        .byte           N05   , Cs2
        .byte   W06
        .byte                   Fs2
        .byte   W06
        .byte   PEND
@ 044   ----------------------------------------
anothertest_4_44:
        .byte           N44   , An2 , v120 , gtp3
        .byte   W48
        .byte           N32   , Cs3 , v120 , gtp3
        .byte   W36
        .byte           N05   , Bn2
        .byte   W06
        .byte                   Cs3
        .byte   W06
        .byte   PEND
@ 045   ----------------------------------------
anothertest_4_45:
        .byte           N23   , Ds3 , v120
        .byte   W24
        .byte                   Cs3
        .byte   W24
        .byte                   Bn2
        .byte   W24
        .byte                   Gs2
        .byte   W24
        .byte   PEND
@ 046   ----------------------------------------
anothertest_4_46:
        .byte           N80   , Fs2 , v120 , gtp3
        .byte   W84
        .byte           N05
        .byte   W06
        .byte                   Gs2
        .byte   W06
        .byte   PEND
@ 047   ----------------------------------------
anothertest_4_47:
        .byte           N80   , Cs3 , v120 , gtp3
        .byte   W84
        .byte           N05   , Cs2
        .byte   W06
        .byte                   En2
        .byte   W06
        .byte   PEND
@ 048   ----------------------------------------
        .byte   PATT
         .word  anothertest_4_44
@ 049   ----------------------------------------
        .byte   PATT
         .word  anothertest_4_45
@ 050   ----------------------------------------
        .byte   PATT
         .word  anothertest_4_46
@ 051   ----------------------------------------
        .byte           N92   , Cs3 , v120 , gtp3
        .byte   W96
@ 052   ----------------------------------------
        .byte   PATT
         .word  anothertest_2_102
@ 053   ----------------------------------------
anothertest_4_53:
        .byte           N23   , Ds3 , v120
        .byte   W24
        .byte                   Ds3
        .byte   W24
        .byte           N17
        .byte   W18
        .byte                   Ds3
        .byte   W18
        .byte           N11   , Cs3
        .byte   W12
        .byte   PEND
@ 054   ----------------------------------------
anothertest_4_54:
        .byte           N32   , As2 , v120 , gtp3
        .byte   W36
        .byte           N05
        .byte   W06
        .byte                   As2
        .byte   W06
        .byte           N32   , As2 , v120 , gtp3
        .byte   W36
        .byte           N05
        .byte   W06
        .byte                   As2
        .byte   W06
        .byte   PEND
@ 055   ----------------------------------------
anothertest_4_55:
        .byte           N23   , As2 , v120
        .byte   W24
        .byte                   As2
        .byte   W24
        .byte           N17
        .byte   W18
        .byte                   As2
        .byte   W18
        .byte           N11   , Cs3
        .byte   W12
        .byte   PEND
@ 056   ----------------------------------------
        .byte   PATT
         .word  anothertest_2_102
@ 057   ----------------------------------------
        .byte   PATT
         .word  anothertest_4_53
@ 058   ----------------------------------------
        .byte   PATT
         .word  anothertest_4_54
@ 059   ----------------------------------------
anothertest_4_59:
        .byte           N23   , As2 , v120
        .byte   W24
        .byte                   As2
        .byte   W24
        .byte           N17
        .byte   W18
        .byte                   Bn2
        .byte   W18
        .byte           N11   , Gs2
        .byte   W12
        .byte   PEND
@ 060   ----------------------------------------
        .byte   PATT
         .word  anothertest_1_54
@ 061   ----------------------------------------
anothertest_4_61:
        .byte           N23   , Gs2 , v120
        .byte   W24
        .byte                   Gs2
        .byte   W24
        .byte           N17
        .byte   W18
        .byte                   Gs2
        .byte   W18
        .byte           N11   , An2
        .byte   W12
        .byte   PEND
@ 062   ----------------------------------------
        .byte   PATT
         .word  anothertest_1_54
@ 063   ----------------------------------------
        .byte   PATT
         .word  anothertest_1_55
@ 064   ----------------------------------------
        .byte   PATT
         .word  anothertest_2_110
@ 065   ----------------------------------------
anothertest_4_65:
        .byte           N23   , Bn2 , v120
        .byte   W24
        .byte                   Bn2
        .byte   W24
        .byte           N17
        .byte   W18
        .byte                   Bn2
        .byte   W18
        .byte           N11
        .byte   W12
        .byte   PEND
@ 066   ----------------------------------------
        .byte   PATT
         .word  anothertest_1_52
@ 067   ----------------------------------------
        .byte           N23   , Cn3 , v120
        .byte   W24
        .byte                   Cn3
        .byte   W24
        .byte           N17
        .byte   W18
        .byte           N05
        .byte   W06
        .byte                   As2
        .byte   W06
        .byte                   Cn3
        .byte   W06
        .byte                   Cs3
        .byte   W06
        .byte                   Fn3
        .byte   W06
@ 068   ----------------------------------------
        .byte           TIE   , Ds4
        .byte   W96
@ 069   ----------------------------------------
        .byte   PATT
         .word  anothertest_4_21
@ 070   ----------------------------------------
        .byte   PATT
         .word  anothertest_4_22
@ 071   ----------------------------------------
        .byte   PATT
         .word  anothertest_4_23
@ 072   ----------------------------------------
        .byte           TIE   , Ds4 , v120
        .byte   W96
@ 073   ----------------------------------------
        .byte   PATT
         .word  anothertest_4_21
@ 074   ----------------------------------------
        .byte   PATT
         .word  anothertest_4_26
@ 075   ----------------------------------------
        .byte   PATT
         .word  anothertest_4_23
@ 076   ----------------------------------------
        .byte   PATT
         .word  anothertest_4_28
@ 077   ----------------------------------------
        .byte   PATT
         .word  anothertest_4_29
@ 078   ----------------------------------------
        .byte   PATT
         .word  anothertest_4_30
@ 079   ----------------------------------------
        .byte   PATT
         .word  anothertest_4_31
@ 080   ----------------------------------------
        .byte   PATT
         .word  anothertest_4_28
@ 081   ----------------------------------------
        .byte   PATT
         .word  anothertest_4_29
@ 082   ----------------------------------------
        .byte   PATT
         .word  anothertest_4_34
@ 083   ----------------------------------------
        .byte   PATT
         .word  anothertest_4_35
@ 084   ----------------------------------------
        .byte   PATT
         .word  anothertest_4_36
@ 085   ----------------------------------------
        .byte   PATT
         .word  anothertest_4_37
@ 086   ----------------------------------------
        .byte   PATT
         .word  anothertest_4_38
@ 087   ----------------------------------------
        .byte   PATT
         .word  anothertest_4_39
@ 088   ----------------------------------------
        .byte   PATT
         .word  anothertest_4_36
@ 089   ----------------------------------------
        .byte   PATT
         .word  anothertest_4_37
@ 090   ----------------------------------------
        .byte   PATT
         .word  anothertest_4_38
@ 091   ----------------------------------------
        .byte   PATT
         .word  anothertest_4_43
@ 092   ----------------------------------------
        .byte   PATT
         .word  anothertest_4_44
@ 093   ----------------------------------------
        .byte   PATT
         .word  anothertest_4_45
@ 094   ----------------------------------------
        .byte   PATT
         .word  anothertest_4_46
@ 095   ----------------------------------------
        .byte   PATT
         .word  anothertest_4_47
@ 096   ----------------------------------------
        .byte   PATT
         .word  anothertest_4_44
@ 097   ----------------------------------------
        .byte   PATT
         .word  anothertest_4_45
@ 098   ----------------------------------------
        .byte   PATT
         .word  anothertest_4_46
@ 099   ----------------------------------------
        .byte           N92   , Cs3 , v120 , gtp3
        .byte   W96
@ 100   ----------------------------------------
        .byte   PATT
         .word  anothertest_2_102
@ 101   ----------------------------------------
        .byte   PATT
         .word  anothertest_4_53
@ 102   ----------------------------------------
        .byte   PATT
         .word  anothertest_4_54
@ 103   ----------------------------------------
        .byte   PATT
         .word  anothertest_4_55
@ 104   ----------------------------------------
        .byte   PATT
         .word  anothertest_2_102
@ 105   ----------------------------------------
        .byte   PATT
         .word  anothertest_4_53
@ 106   ----------------------------------------
        .byte   PATT
         .word  anothertest_4_54
@ 107   ----------------------------------------
        .byte   PATT
         .word  anothertest_4_59
@ 108   ----------------------------------------
        .byte   PATT
         .word  anothertest_1_54
@ 109   ----------------------------------------
        .byte   PATT
         .word  anothertest_4_61
@ 110   ----------------------------------------
        .byte   PATT
         .word  anothertest_1_54
@ 111   ----------------------------------------
        .byte   PATT
         .word  anothertest_1_55
@ 112   ----------------------------------------
        .byte   PATT
         .word  anothertest_2_110
@ 113   ----------------------------------------
        .byte   PATT
         .word  anothertest_4_65
@ 114   ----------------------------------------
        .byte   PATT
         .word  anothertest_1_52
@ 115   ----------------------------------------
        .byte           N23   , Cn3 , v120
        .byte   W24
        .byte                   Cn3
        .byte   W24
        .byte           N17
        .byte   W18
        .byte                   Cn3
        .byte   W18
        .byte           N11
        .byte   W12
@ 116   ----------------------------------------
anothertest_4_116:
        .byte           N80   , Bn2 , v120 , gtp3
        .byte   W84
        .byte           N05
        .byte   W06
        .byte                   Bn2
        .byte   W06
        .byte   PEND
@ 117   ----------------------------------------
anothertest_4_117:
        .byte           N44   , Ds3 , v120 , gtp3
        .byte   W48
        .byte           N23   , Bn2
        .byte   W24
        .byte                   Ds3
        .byte   W24
        .byte   PEND
@ 118   ----------------------------------------
anothertest_4_118:
        .byte           N05   , Cs3 , v120
        .byte   W06
        .byte                   Bn2
        .byte   W06
        .byte           N68   , An2 , v120 , gtp3
        .byte   W72
        .byte           N05
        .byte   W06
        .byte                   An2
        .byte   W06
        .byte   PEND
@ 119   ----------------------------------------
anothertest_4_119:
        .byte           N44   , Cs3 , v120 , gtp3
        .byte   W48
        .byte           N23   , An2
        .byte   W24
        .byte                   Cs3
        .byte   W24
        .byte   PEND
@ 120   ----------------------------------------
        .byte   PATT
         .word  anothertest_4_116
@ 121   ----------------------------------------
        .byte   PATT
         .word  anothertest_4_117
@ 122   ----------------------------------------
        .byte   PATT
         .word  anothertest_4_118
@ 123   ----------------------------------------
        .byte   PATT
         .word  anothertest_4_119
@ 124   ----------------------------------------
        .byte           N80   , Bn2 , v120 , gtp3
        .byte   W84
        .byte           N05   , Cs3
        .byte   W06
        .byte                   Bn2
        .byte   W06
@ 125   ----------------------------------------
        .byte           N44   , Bn2 , v120 , gtp3
        .byte   W48
        .byte           N17
        .byte   W18
        .byte                   Cs3
        .byte   W18
        .byte           N11   , Bn2
        .byte   W12
@ 126   ----------------------------------------
        .byte           N80   , As2 , v120 , gtp3
        .byte   W84
        .byte           N05
        .byte   W06
        .byte                   Gs2
        .byte   W06
@ 127   ----------------------------------------
        .byte           N23   , As2
        .byte   W24
        .byte                   Cs3
        .byte   W24
        .byte                   Ds3
        .byte   W24
        .byte                   Fs3
        .byte   W24
@ 128   ----------------------------------------
        .byte           N80   , Gs3 , v120 , gtp3
        .byte   W84
        .byte           N05   , As3
        .byte   W06
        .byte                   Gs3
        .byte   W06
@ 129   ----------------------------------------
        .byte           N44   , Gs3 , v120 , gtp3
        .byte   W48
        .byte           N17   , En3
        .byte   W18
        .byte                   Gs3
        .byte   W18
        .byte           N11
        .byte   W12
@ 130   ----------------------------------------
        .byte           N44   , As3 , v120 , gtp3
        .byte   W48
        .byte           N17
        .byte   W18
        .byte                   Cs4
        .byte   W18
        .byte           N05   , As3
        .byte   W06
        .byte                   Fs3
        .byte   W06
@ 131   ----------------------------------------
        .byte           N44   , Ds3 , v120 , gtp3
        .byte   W48
        .byte           N11
        .byte   W12
        .byte                   Fn3
        .byte   W12
        .byte                   Fs3
        .byte   W12
        .byte                   Ds3
        .byte   W12
@ 132   ----------------------------------------
        .byte           N80   , En3 , v120 , gtp3
        .byte   W84
        .byte           N05   , Ds3
        .byte   W06
        .byte                   Cs3
        .byte   W06
@ 133   ----------------------------------------
        .byte           N23
        .byte   W24
        .byte                   Gs2
        .byte   W24
        .byte                   Bn2
        .byte   W24
        .byte                   Cs3
        .byte   W24
@ 134   ----------------------------------------
        .byte           N80   , As2 , v120 , gtp3
        .byte   W84
        .byte           N05   , Bn2
        .byte   W06
        .byte                   Cs3
        .byte   W06
@ 135   ----------------------------------------
        .byte           N44   , As2 , v120 , gtp3
        .byte   W48
        .byte           N17
        .byte   W18
        .byte                   Bn2
        .byte   W18
        .byte           N11   , As2
        .byte   W12
@ 136   ----------------------------------------
        .byte           N80   , Bn2 , v120 , gtp3
        .byte   W84
        .byte           N05   , Cs3
        .byte   W06
        .byte                   An2
        .byte   W06
@ 137   ----------------------------------------
        .byte           N44   , Bn2 , v120 , gtp3
        .byte   W48
        .byte           N11
        .byte   W12
        .byte                   Cs3
        .byte   W12
        .byte                   En3
        .byte   W12
        .byte                   Gs3
        .byte   W12
@ 138   ----------------------------------------
        .byte           N80   , An3 , v120 , gtp3
        .byte   W84
        .byte           N05
        .byte   W06
        .byte                   An3
        .byte   W06
@ 139   ----------------------------------------
        .byte           N44   , An3 , v120 , gtp3
        .byte   W48
        .byte                   Gs3
        .byte   W48
@ 140   ----------------------------------------
        .byte   GOTO
         .word  anothertest_4_LOOP
        .byte   FINE

@****************** Track 5 (Midi-Chn.5) ******************@

anothertest_5:
        .byte   KEYSH , anothertest_key+0
@ 000   ----------------------------------------
anothertest_5_LOOP:
        .byte           VOICE , 104
        .byte           VOL   , 57
        .byte           N05   , Fs4 , v120
        .byte   W06
        .byte                   Cs4
        .byte   W06
        .byte                   Gs3
        .byte   W06
        .byte                   Fs3
        .byte   W06
        .byte                   Cs3
        .byte   W06
        .byte                   Fs3
        .byte   W06
        .byte                   Gs3
        .byte   W06
        .byte                   Cs4
        .byte   W06
        .byte                   Fs4
        .byte   W06
        .byte                   Cs4
        .byte   W06
        .byte                   Gs3
        .byte   W06
        .byte                   Fs3
        .byte   W06
        .byte                   Cs3
        .byte   W06
        .byte                   Fs3
        .byte   W06
        .byte                   Gs3
        .byte   W06
        .byte                   Cs4
        .byte   W06
@ 001   ----------------------------------------
anothertest_5_1:
        .byte           N05   , Fs4 , v120
        .byte   W06
        .byte                   Cs4
        .byte   W06
        .byte                   Gs3
        .byte   W06
        .byte                   Fs3
        .byte   W06
        .byte                   Cs3
        .byte   W06
        .byte                   Fs3
        .byte   W06
        .byte                   Gs3
        .byte   W06
        .byte                   Cs4
        .byte   W06
        .byte                   Fs4
        .byte   W06
        .byte                   Cs4
        .byte   W06
        .byte                   Gs3
        .byte   W06
        .byte                   Fs3
        .byte   W06
        .byte                   Cs3
        .byte   W06
        .byte                   Fs3
        .byte   W06
        .byte                   Gs3
        .byte   W06
        .byte                   Cs4
        .byte   W06
        .byte   PEND
@ 002   ----------------------------------------
        .byte   PATT
         .word  anothertest_5_1
@ 003   ----------------------------------------
        .byte           N05   , Fs4 , v120
        .byte   W06
        .byte                   Cs4
        .byte   W06
        .byte                   Gs3
        .byte   W06
        .byte                   Fs3
        .byte   W06
        .byte                   Cs3
        .byte   W06
        .byte                   Fs3
        .byte   W06
        .byte                   Gs3
        .byte   W06
        .byte                   Cs4
        .byte   W06
        .byte                   Fs4
        .byte   W06
        .byte                   Cs4
        .byte   W06
        .byte                   Bn3
        .byte   W06
        .byte                   Gs3
        .byte   W06
        .byte                   As3
        .byte   W06
        .byte                   Fn3
        .byte   W06
        .byte                   Cs3
        .byte   W06
        .byte                   As2
        .byte   W06
@ 004   ----------------------------------------
anothertest_5_4:
        .byte           N56   , As2 , v124 , gtp3
        .byte                   As3
        .byte   W60
        .byte           N11   , As2
        .byte           N11   , As3
        .byte   W12
        .byte                   Gs2
        .byte           N11   , Gs3
        .byte   W12
        .byte                   Fs2
        .byte           N11   , Fs3
        .byte   W12
        .byte   PEND
@ 005   ----------------------------------------
        .byte           N56   , Fn2 , v124 , gtp3
        .byte                   Fn3
        .byte   W60
        .byte           N11   , Fn2
        .byte           N11   , Fn3
        .byte   W12
        .byte                   Fs2
        .byte           N11   , Fs3
        .byte   W12
        .byte                   Gs2
        .byte           N11   , Gs3
        .byte   W12
@ 006   ----------------------------------------
        .byte   PATT
         .word  anothertest_5_4
@ 007   ----------------------------------------
        .byte           N56   , Fn2 , v124 , gtp3
        .byte                   Fn3
        .byte   W60
        .byte           N11   , Fn2
        .byte           N11   , Fn3
        .byte   W12
        .byte                   Fs2
        .byte           N11   , Fs3
        .byte   W12
        .byte                   Fn2
        .byte           N11   , Fn3
        .byte   W12
@ 008   ----------------------------------------
        .byte           N56   , Ds2 , v124 , gtp3
        .byte                   Ds3
        .byte   W60
        .byte           N11   , Ds2
        .byte           N11   , Ds3
        .byte   W12
        .byte                   Fs2
        .byte           N11   , Fs3
        .byte   W12
        .byte                   As2
        .byte           N11   , As3
        .byte   W12
@ 009   ----------------------------------------
        .byte           N23   , Bn2
        .byte           N23   , Bn3
        .byte   W24
        .byte           N11   , As2
        .byte           N11   , As3
        .byte   W12
        .byte           N23   , Cs3
        .byte           N23   , Cs4
        .byte   W24
        .byte           N11   , As2
        .byte           N11   , As3
        .byte   W12
        .byte                   Fs2
        .byte           N11   , Fs3
        .byte   W12
        .byte                   As2
        .byte           N11   , As3
        .byte   W12
@ 010   ----------------------------------------
        .byte           N80   , Gs2 , v124 , gtp3
        .byte                   Gs3
        .byte   W84
        .byte           N05   , Gs2
        .byte           N05   , Gs3
        .byte   W06
        .byte                   Gs2
        .byte           N05   , Gs3
        .byte   W06
@ 011   ----------------------------------------
        .byte           N92   , Cs3 , v124 , gtp3
        .byte                   Cs4
        .byte   W96
@ 012   ----------------------------------------
        .byte           N23   , Fs2
        .byte           N23   , Fs3
        .byte   W24
        .byte           N11   , Fn2
        .byte           N11   , Fn3
        .byte   W12
        .byte           N23   , Fs2
        .byte           N23   , Fs3
        .byte   W24
        .byte           N11   , Gs2
        .byte           N11   , Gs3
        .byte   W12
        .byte           N44   , Fs2 , v124 , gtp3
        .byte                   Fs3
        .byte   W24
@ 013   ----------------------------------------
        .byte   W24
        .byte           N23   , Fs2
        .byte           N23   , Fs3
        .byte   W24
        .byte                   Gs2
        .byte           N23   , Gs3
        .byte   W24
        .byte                   Bn2
        .byte           N23   , Bn3
        .byte   W24
@ 014   ----------------------------------------
        .byte                   As2
        .byte           N23   , As3
        .byte   W24
        .byte           N11   , Gs2
        .byte           N11   , Gs3
        .byte   W12
        .byte           N23   , As2
        .byte           N23   , As3
        .byte   W24
        .byte           N11   , Cs3
        .byte           N11   , Cs4
        .byte   W12
        .byte           N44   , As2 , v124 , gtp3
        .byte                   As3
        .byte   W24
@ 015   ----------------------------------------
        .byte   W24
        .byte           N23   , As2
        .byte           N23   , As3
        .byte   W24
        .byte                   Cs3
        .byte           N23   , Cs4
        .byte   W24
        .byte                   Fn3
        .byte           N23   , Fn4
        .byte   W24
@ 016   ----------------------------------------
        .byte           N05   , Ds3
        .byte           N05   , Ds4
        .byte   W06
        .byte                   Ds3
        .byte           N05   , Ds4
        .byte   W06
        .byte                   Ds3
        .byte           N05   , Ds4
        .byte   W24
        .byte                   Ds3
        .byte           N05   , Ds4
        .byte   W06
        .byte                   Ds3
        .byte           N05   , Ds4
        .byte   W06
        .byte                   Ds3
        .byte           N05   , Ds4
        .byte   W24
        .byte                   Ds3
        .byte           N05   , Ds4
        .byte   W06
        .byte                   Ds3
        .byte           N05   , Ds4
        .byte   W06
        .byte           N11   , Ds3
        .byte           N11   , Ds4
        .byte   W12
@ 017   ----------------------------------------
        .byte           N05   , Ds3
        .byte           N05   , Ds4
        .byte   W06
        .byte                   Ds3
        .byte           N05   , Ds4
        .byte   W06
        .byte                   Ds3
        .byte           N05   , Ds4
        .byte   W24
        .byte                   Ds3
        .byte           N05   , Ds4
        .byte   W06
        .byte                   Ds3
        .byte           N05   , Ds4
        .byte   W06
        .byte                   Ds3
        .byte           N05   , Ds4
        .byte   W48
@ 018   ----------------------------------------
        .byte                   Gs2
        .byte           N05   , Gs3
        .byte   W06
        .byte                   Gs2
        .byte           N05   , Gs3
        .byte   W06
        .byte                   Gs2
        .byte           N05   , Gs3
        .byte   W24
        .byte                   Gs2
        .byte           N05   , Gs3
        .byte   W06
        .byte                   Gs2
        .byte           N05   , Gs3
        .byte   W06
        .byte                   Gs2
        .byte           N05   , Gs3
        .byte   W24
        .byte                   Gs2
        .byte           N05   , Gs3
        .byte   W06
        .byte                   Gs2
        .byte           N05   , Gs3
        .byte   W06
        .byte           N11   , Gs2
        .byte           N11   , Gs3
        .byte   W12
@ 019   ----------------------------------------
        .byte           N05   , Gs2
        .byte           N05   , Gs3
        .byte   W06
        .byte                   Gs2
        .byte           N05   , Gs3
        .byte   W06
        .byte                   Gs2
        .byte           N05   , Gs3
        .byte   W24
        .byte                   Gs2
        .byte           N05   , Gs3
        .byte   W06
        .byte                   Gs2
        .byte           N05   , Gs3
        .byte   W06
        .byte                   Gs2
        .byte           N05   , Gs3
        .byte   W36
        .byte                   Fn2
        .byte           N05   , Fn3
        .byte   W06
        .byte                   Gs2
        .byte           N05   , Gs3
        .byte   W06
@ 020   ----------------------------------------
anothertest_5_20:
        .byte           TIE   , As2 , v124
        .byte           TIE   , As3
        .byte   W96
        .byte   PEND
@ 021   ----------------------------------------
anothertest_5_21:
        .byte   W23
        .byte           EOT   , As2
        .byte                   As3
        .byte   W01
        .byte           N23   , As2 , v124
        .byte           N23   , As3
        .byte   W24
        .byte                   Cn3
        .byte           N23   , Cn4
        .byte   W24
        .byte                   Cs3
        .byte           N23   , Cs4
        .byte   W24
        .byte   PEND
@ 022   ----------------------------------------
        .byte           N17   , Cn3
        .byte           N17   , Cn4
        .byte   W18
        .byte                   As2
        .byte           N17   , As3
        .byte   W18
        .byte           N11   , Gs2
        .byte           N11   , Gs3
        .byte   W12
        .byte           TIE   , As2
        .byte           TIE   , As3
        .byte   W48
@ 023   ----------------------------------------
anothertest_5_23:
        .byte   W80
        .byte   W03
        .byte           EOT   , As2
        .byte                   As3
        .byte   W01
        .byte           N05   , Fn2 , v124
        .byte           N05   , Fn3
        .byte   W06
        .byte                   Gs2
        .byte           N05   , Gs3
        .byte   W06
        .byte   PEND
@ 024   ----------------------------------------
        .byte   PATT
         .word  anothertest_5_20
@ 025   ----------------------------------------
        .byte   PATT
         .word  anothertest_5_21
@ 026   ----------------------------------------
        .byte           N17   , Cn3 , v124
        .byte           N17   , Cn4
        .byte   W18
        .byte                   Ds3
        .byte           N17   , Ds4
        .byte   W18
        .byte           N11   , Cn3
        .byte           N11   , Cn4
        .byte   W12
        .byte           TIE   , As2
        .byte           TIE   , As3
        .byte   W48
@ 027   ----------------------------------------
        .byte   PATT
         .word  anothertest_5_23
@ 028   ----------------------------------------
        .byte   PATT
         .word  anothertest_5_4
@ 029   ----------------------------------------
        .byte   PATT
         .word  anothertest_2_77
@ 030   ----------------------------------------
        .byte           N32   , Fn2 , v124 , gtp3
        .byte                   Fn3
        .byte   W36
        .byte           N05   , Ds2
        .byte           N05   , Ds3
        .byte   W06
        .byte                   Cs2
        .byte           N05   , Cs3
        .byte   W06
        .byte           TIE   , Ds2
        .byte           TIE   , Ds3
        .byte   W48
@ 031   ----------------------------------------
        .byte   W80
        .byte   W03
        .byte           EOT   , Ds2
        .byte                   Ds3
        .byte   W01
        .byte           N05   , Fn2
        .byte           N05   , Fn3
        .byte   W06
        .byte                   Gs2
        .byte           N05   , Gs3
        .byte   W06
@ 032   ----------------------------------------
        .byte   PATT
         .word  anothertest_5_4
@ 033   ----------------------------------------
        .byte   PATT
         .word  anothertest_2_77
@ 034   ----------------------------------------
        .byte           N32   , Fn2 , v124 , gtp3
        .byte                   Fn3
        .byte   W36
        .byte           N05   , Ds2
        .byte           N05   , Ds3
        .byte   W06
        .byte                   Cs2
        .byte           N05   , Cs3
        .byte   W06
        .byte           N32   , Ds2 , v124 , gtp3
        .byte                   Ds3
        .byte   W36
        .byte           N05   , Ds2
        .byte           N05   , Ds3
        .byte   W06
        .byte                   Fn2
        .byte           N05   , Fn3
        .byte   W06
@ 035   ----------------------------------------
        .byte   PATT
         .word  anothertest_2_83
@ 036   ----------------------------------------
        .byte   PATT
         .word  anothertest_2_84
@ 037   ----------------------------------------
        .byte   PATT
         .word  anothertest_2_85
@ 038   ----------------------------------------
        .byte   PATT
         .word  anothertest_2_86
@ 039   ----------------------------------------
        .byte   PATT
         .word  anothertest_2_87
@ 040   ----------------------------------------
        .byte   PATT
         .word  anothertest_2_84
@ 041   ----------------------------------------
        .byte   PATT
         .word  anothertest_2_85
@ 042   ----------------------------------------
        .byte   PATT
         .word  anothertest_2_86
@ 043   ----------------------------------------
        .byte   PATT
         .word  anothertest_2_91
@ 044   ----------------------------------------
        .byte   PATT
         .word  anothertest_2_92
@ 045   ----------------------------------------
        .byte   PATT
         .word  anothertest_2_93
@ 046   ----------------------------------------
        .byte   PATT
         .word  anothertest_2_94
@ 047   ----------------------------------------
        .byte   PATT
         .word  anothertest_2_95
@ 048   ----------------------------------------
        .byte   PATT
         .word  anothertest_2_92
@ 049   ----------------------------------------
        .byte   PATT
         .word  anothertest_2_93
@ 050   ----------------------------------------
        .byte   PATT
         .word  anothertest_2_94
@ 051   ----------------------------------------
        .byte           N92   , As2 , v120 , gtp3
        .byte   W96
@ 052   ----------------------------------------
        .byte   PATT
         .word  anothertest_2_100
@ 053   ----------------------------------------
        .byte   PATT
         .word  anothertest_2_101
@ 054   ----------------------------------------
        .byte   PATT
         .word  anothertest_2_102
@ 055   ----------------------------------------
        .byte   PATT
         .word  anothertest_2_103
@ 056   ----------------------------------------
        .byte   PATT
         .word  anothertest_2_100
@ 057   ----------------------------------------
        .byte   PATT
         .word  anothertest_2_101
@ 058   ----------------------------------------
        .byte   PATT
         .word  anothertest_2_102
@ 059   ----------------------------------------
        .byte   PATT
         .word  anothertest_2_107
@ 060   ----------------------------------------
        .byte   PATT
         .word  anothertest_1_52
@ 061   ----------------------------------------
        .byte   PATT
         .word  anothertest_2_109
@ 062   ----------------------------------------
        .byte   PATT
         .word  anothertest_2_110
@ 063   ----------------------------------------
        .byte   PATT
         .word  anothertest_2_111
@ 064   ----------------------------------------
        .byte   PATT
         .word  anothertest_2_102
@ 065   ----------------------------------------
        .byte   PATT
         .word  anothertest_2_113
@ 066   ----------------------------------------
        .byte   PATT
         .word  anothertest_2_114
@ 067   ----------------------------------------
        .byte           N23   , Gs3 , v120
        .byte   W24
        .byte                   Gs3
        .byte   W24
        .byte           N17
        .byte   W18
        .byte           N05
        .byte   W06
        .byte                   Fs3
        .byte   W06
        .byte                   Gs3
        .byte   W06
        .byte                   As3
        .byte   W06
        .byte                   Cs4
        .byte   W06
@ 068   ----------------------------------------
        .byte   PATT
         .word  anothertest_2_22
@ 069   ----------------------------------------
        .byte   PATT
         .word  anothertest_2_21
@ 070   ----------------------------------------
        .byte   PATT
         .word  anothertest_2_22
@ 071   ----------------------------------------
        .byte   PATT
         .word  anothertest_2_21
@ 072   ----------------------------------------
        .byte   PATT
         .word  anothertest_2_22
@ 073   ----------------------------------------
        .byte   PATT
         .word  anothertest_2_21
@ 074   ----------------------------------------
        .byte   PATT
         .word  anothertest_2_22
@ 075   ----------------------------------------
        .byte   PATT
         .word  anothertest_2_21
@ 076   ----------------------------------------
        .byte   PATT
         .word  anothertest_2_28
@ 077   ----------------------------------------
        .byte   PATT
         .word  anothertest_2_29
@ 078   ----------------------------------------
        .byte   PATT
         .word  anothertest_2_30
@ 079   ----------------------------------------
        .byte   PATT
         .word  anothertest_2_31
@ 080   ----------------------------------------
        .byte   PATT
         .word  anothertest_2_28
@ 081   ----------------------------------------
        .byte   PATT
         .word  anothertest_2_29
@ 082   ----------------------------------------
        .byte   PATT
         .word  anothertest_2_30
@ 083   ----------------------------------------
        .byte   PATT
         .word  anothertest_2_35
@ 084   ----------------------------------------
        .byte   PATT
         .word  anothertest_2_36
@ 085   ----------------------------------------
        .byte   PATT
         .word  anothertest_2_36
@ 086   ----------------------------------------
        .byte   PATT
         .word  anothertest_2_38
@ 087   ----------------------------------------
        .byte   PATT
         .word  anothertest_2_38
@ 088   ----------------------------------------
        .byte   PATT
         .word  anothertest_2_36
@ 089   ----------------------------------------
        .byte   PATT
         .word  anothertest_2_36
@ 090   ----------------------------------------
        .byte   PATT
         .word  anothertest_2_38
@ 091   ----------------------------------------
        .byte   PATT
         .word  anothertest_2_38
@ 092   ----------------------------------------
        .byte   PATT
         .word  anothertest_2_44
@ 093   ----------------------------------------
        .byte   PATT
         .word  anothertest_2_45
@ 094   ----------------------------------------
        .byte   PATT
         .word  anothertest_2_46
@ 095   ----------------------------------------
        .byte   PATT
         .word  anothertest_2_47
@ 096   ----------------------------------------
        .byte   PATT
         .word  anothertest_2_44
@ 097   ----------------------------------------
        .byte   PATT
         .word  anothertest_2_45
@ 098   ----------------------------------------
        .byte   PATT
         .word  anothertest_2_46
@ 099   ----------------------------------------
        .byte   PATT
         .word  anothertest_2_47
@ 100   ----------------------------------------
anothertest_5_100:
        .byte           N32   , Bn1 , v124 , gtp3
        .byte                   Bn2
        .byte   W36
        .byte           N05   , Bn1
        .byte           N05   , Bn2
        .byte   W06
        .byte                   Bn1
        .byte           N05   , Bn2
        .byte   W06
        .byte           N32   , Bn1 , v124 , gtp3
        .byte                   Bn2
        .byte   W36
        .byte           N05   , Bn1
        .byte           N05   , Bn2
        .byte   W06
        .byte                   Bn1
        .byte           N05   , Bn2
        .byte   W06
        .byte   PEND
@ 101   ----------------------------------------
        .byte   PATT
         .word  anothertest_2_53
@ 102   ----------------------------------------
anothertest_5_102:
        .byte           N32   , Ds2 , v124 , gtp3
        .byte                   Ds3
        .byte   W36
        .byte           N05   , Ds2
        .byte           N05   , Ds3
        .byte   W06
        .byte                   Ds2
        .byte           N05   , Ds3
        .byte   W06
        .byte           N32   , Ds2 , v124 , gtp3
        .byte                   Ds3
        .byte   W36
        .byte           N05   , Ds2
        .byte           N05   , Ds3
        .byte   W06
        .byte                   Ds2
        .byte           N05   , Ds3
        .byte   W06
        .byte   PEND
@ 103   ----------------------------------------
        .byte   PATT
         .word  anothertest_2_55
@ 104   ----------------------------------------
        .byte   PATT
         .word  anothertest_5_100
@ 105   ----------------------------------------
        .byte   PATT
         .word  anothertest_2_53
@ 106   ----------------------------------------
        .byte   PATT
         .word  anothertest_5_102
@ 107   ----------------------------------------
        .byte   PATT
         .word  anothertest_2_59
@ 108   ----------------------------------------
anothertest_5_108:
        .byte           N32   , Cs2 , v124 , gtp3
        .byte                   Cs3
        .byte   W36
        .byte           N05   , Cs2
        .byte           N05   , Cs3
        .byte   W06
        .byte                   Cs2
        .byte           N05   , Cs3
        .byte   W06
        .byte           N32   , Cs2 , v124 , gtp3
        .byte                   Cs3
        .byte   W36
        .byte           N05   , Cs2
        .byte           N05   , Cs3
        .byte   W06
        .byte                   Cs2
        .byte           N05   , Cs3
        .byte   W06
        .byte   PEND
@ 109   ----------------------------------------
        .byte   PATT
         .word  anothertest_2_61
@ 110   ----------------------------------------
        .byte   PATT
         .word  anothertest_5_100
@ 111   ----------------------------------------
        .byte   PATT
         .word  anothertest_2_63
@ 112   ----------------------------------------
        .byte   PATT
         .word  anothertest_5_108
@ 113   ----------------------------------------
        .byte   PATT
         .word  anothertest_2_65
@ 114   ----------------------------------------
        .byte   PATT
         .word  anothertest_5_102
@ 115   ----------------------------------------
        .byte           N23   , Ds2 , v124
        .byte           N23   , Ds3
        .byte   W24
        .byte                   Ds2
        .byte           N23   , Ds3
        .byte   W24
        .byte           N17   , Ds2
        .byte           N17   , Ds3
        .byte   W18
        .byte                   Ds2
        .byte           N17   , Ds3
        .byte   W18
        .byte           N11   , Ds2
        .byte           N11   , Ds3
        .byte   W12
@ 116   ----------------------------------------
anothertest_5_116:
        .byte           N05   , Gs3 , v108
        .byte   W06
        .byte                   As3
        .byte   W06
        .byte                   Bn3
        .byte   W06
        .byte                   Ds4
        .byte   W06
        .byte                   Gs4
        .byte   W06
        .byte                   As4
        .byte   W06
        .byte                   Bn4
        .byte   W06
        .byte                   Ds5
        .byte   W06
        .byte                   Gs5
        .byte   W06
        .byte                   As5
        .byte   W06
        .byte                   Bn5
        .byte   W06
        .byte                   Ds6
        .byte   W06
        .byte                   Gs5
        .byte   W06
        .byte                   As5
        .byte   W06
        .byte                   Bn5
        .byte   W06
        .byte                   Ds6
        .byte   W06
        .byte   PEND
@ 117   ----------------------------------------
        .byte   PATT
         .word  anothertest_5_116
@ 118   ----------------------------------------
anothertest_5_118:
        .byte           N05   , Fs3 , v108
        .byte   W06
        .byte                   Gs3
        .byte   W06
        .byte                   An3
        .byte   W06
        .byte                   Cs4
        .byte   W06
        .byte                   Fs4
        .byte   W06
        .byte                   Gs4
        .byte   W06
        .byte                   An4
        .byte   W06
        .byte                   Cs5
        .byte   W06
        .byte                   Fs5
        .byte   W06
        .byte                   Gs5
        .byte   W06
        .byte                   An5
        .byte   W06
        .byte                   Cs6
        .byte   W06
        .byte                   Fs5
        .byte   W06
        .byte                   Gs5
        .byte   W06
        .byte                   An5
        .byte   W06
        .byte                   Cs6
        .byte   W06
        .byte   PEND
@ 119   ----------------------------------------
        .byte   PATT
         .word  anothertest_5_118
@ 120   ----------------------------------------
        .byte   PATT
         .word  anothertest_5_116
@ 121   ----------------------------------------
        .byte   PATT
         .word  anothertest_5_116
@ 122   ----------------------------------------
        .byte   PATT
         .word  anothertest_5_118
@ 123   ----------------------------------------
        .byte           N05   , Fs3 , v108
        .byte   W06
        .byte                   Gs3
        .byte   W06
        .byte                   An3
        .byte   W06
        .byte                   Cs4
        .byte   W06
        .byte                   Fs4
        .byte   W06
        .byte                   Gs4
        .byte   W06
        .byte                   An4
        .byte   W06
        .byte                   Cs5
        .byte   W06
        .byte                   Fs5
        .byte   W06
        .byte                   Gs5
        .byte   W06
        .byte                   An5
        .byte   W06
        .byte                   Cs6
        .byte   W06
        .byte                   An5
        .byte   W06
        .byte                   Gs5
        .byte   W06
        .byte                   En5
        .byte   W06
        .byte                   Cs5
        .byte   W06
@ 124   ----------------------------------------
        .byte                   Bn4
        .byte   W06
        .byte                   Bn4
        .byte   W06
        .byte                   Bn4
        .byte   W06
        .byte                   As5
        .byte   W06
        .byte                   As5
        .byte   W06
        .byte                   As5
        .byte   W06
        .byte                   Fs5
        .byte   W06
        .byte                   Fs5
        .byte   W06
        .byte                   Fs5
        .byte   W06
        .byte                   Cs5
        .byte   W06
        .byte                   Cs5
        .byte   W06
        .byte                   Cs5
        .byte   W06
        .byte                   As5
        .byte   W06
        .byte                   As5
        .byte   W06
        .byte                   Fs5
        .byte   W06
        .byte                   Fs5
        .byte   W06
@ 125   ----------------------------------------
        .byte                   Bn4
        .byte   W06
        .byte                   Bn4
        .byte   W06
        .byte                   Bn4
        .byte   W06
        .byte                   As5
        .byte   W06
        .byte                   As5
        .byte   W06
        .byte                   As5
        .byte   W06
        .byte                   Fs5
        .byte   W06
        .byte                   Fs5
        .byte   W06
        .byte                   Fs5
        .byte   W06
        .byte                   Cs5
        .byte   W06
        .byte                   Cs5
        .byte   W06
        .byte                   Cs5
        .byte   W06
        .byte                   As5
        .byte   W06
        .byte                   As5
        .byte   W06
        .byte                   Bn4
        .byte   W06
        .byte                   Bn4
        .byte   W06
@ 126   ----------------------------------------
        .byte                   As4
        .byte   W06
        .byte                   As4
        .byte   W06
        .byte                   As4
        .byte   W06
        .byte                   Gs5
        .byte   W06
        .byte                   Gs5
        .byte   W06
        .byte                   Gs5
        .byte   W06
        .byte                   Fn5
        .byte   W06
        .byte                   Fn5
        .byte   W06
        .byte                   Fn5
        .byte   W06
        .byte                   Cs5
        .byte   W06
        .byte                   Cs5
        .byte   W06
        .byte                   Cs5
        .byte   W06
        .byte                   Gs5
        .byte   W06
        .byte                   Gs5
        .byte   W06
        .byte                   Fn5
        .byte   W06
        .byte                   Fn5
        .byte   W06
@ 127   ----------------------------------------
        .byte                   As4
        .byte   W06
        .byte                   As4
        .byte   W06
        .byte                   As4
        .byte   W06
        .byte                   Gs5
        .byte   W06
        .byte                   Gs5
        .byte   W06
        .byte                   Gs5
        .byte   W06
        .byte                   Fn5
        .byte   W06
        .byte                   Fn5
        .byte   W06
        .byte                   Fn5
        .byte   W06
        .byte                   Cs5
        .byte   W06
        .byte                   Cs5
        .byte   W06
        .byte                   Cs5
        .byte   W06
        .byte                   Gs5
        .byte   W06
        .byte                   Gs5
        .byte   W06
        .byte                   As4
        .byte   W06
        .byte                   As4
        .byte   W06
@ 128   ----------------------------------------
        .byte                   Bn4
        .byte   W06
        .byte                   Bn4
        .byte   W06
        .byte                   Bn4
        .byte   W06
        .byte                   Gs5
        .byte   W06
        .byte                   Gs5
        .byte   W06
        .byte                   Gs5
        .byte   W06
        .byte                   Fs5
        .byte   W06
        .byte                   Fs5
        .byte   W06
        .byte                   Fs5
        .byte   W06
        .byte                   Cs5
        .byte   W06
        .byte                   Cs5
        .byte   W06
        .byte                   Cs5
        .byte   W06
        .byte                   Gs5
        .byte   W06
        .byte                   Gs5
        .byte   W06
        .byte                   Fs5
        .byte   W06
        .byte                   Fs5
        .byte   W06
@ 129   ----------------------------------------
        .byte                   Bn4
        .byte   W06
        .byte                   Bn4
        .byte   W06
        .byte                   Bn4
        .byte   W06
        .byte                   Gs5
        .byte   W06
        .byte                   Gs5
        .byte   W06
        .byte                   Gs5
        .byte   W06
        .byte                   Fs5
        .byte   W06
        .byte                   Fs5
        .byte   W06
        .byte                   Fs5
        .byte   W06
        .byte                   Cs5
        .byte   W06
        .byte                   Cs5
        .byte   W06
        .byte                   Cs5
        .byte   W06
        .byte                   Gs5
        .byte   W06
        .byte                   Gs5
        .byte   W06
        .byte                   Bn4
        .byte   W06
        .byte                   Bn4
        .byte   W06
@ 130   ----------------------------------------
        .byte                   Cs5
        .byte   W06
        .byte                   Cs5
        .byte   W06
        .byte                   Cs5
        .byte   W06
        .byte                   As5
        .byte   W06
        .byte                   As5
        .byte   W06
        .byte                   As5
        .byte   W06
        .byte                   Gs5
        .byte   W06
        .byte                   Gs5
        .byte   W06
        .byte                   Gs5
        .byte   W06
        .byte                   Ds5
        .byte   W06
        .byte                   Ds5
        .byte   W06
        .byte                   Ds5
        .byte   W06
        .byte                   As5
        .byte   W06
        .byte                   As5
        .byte   W06
        .byte                   Gs5
        .byte   W06
        .byte                   Gs5
        .byte   W06
@ 131   ----------------------------------------
        .byte                   Cs5
        .byte   W06
        .byte                   Cs5
        .byte   W06
        .byte                   Cs5
        .byte   W06
        .byte                   As5
        .byte   W06
        .byte                   As5
        .byte   W06
        .byte                   As5
        .byte   W06
        .byte                   Gs5
        .byte   W06
        .byte                   Gs5
        .byte   W06
        .byte                   Gs5
        .byte   W06
        .byte                   Ds5
        .byte   W06
        .byte                   Ds5
        .byte   W06
        .byte                   Ds5
        .byte   W06
        .byte                   As5
        .byte   W06
        .byte                   As5
        .byte   W06
        .byte                   Cs5
        .byte   W06
        .byte                   Cs5
        .byte   W06
@ 132   ----------------------------------------
anothertest_5_132:
        .byte           N05   , Ds5 , v108
        .byte   W06
        .byte                   Ds5
        .byte   W06
        .byte                   Ds5
        .byte   W06
        .byte                   Gs5
        .byte   W06
        .byte                   Gs5
        .byte   W06
        .byte                   Gs5
        .byte   W06
        .byte                   Fs5
        .byte   W06
        .byte                   Fs5
        .byte   W06
        .byte                   Fs5
        .byte   W06
        .byte                   Cs5
        .byte   W06
        .byte                   Cs5
        .byte   W06
        .byte                   Cs5
        .byte   W06
        .byte                   Gs5
        .byte   W06
        .byte                   Gs5
        .byte   W06
        .byte                   Fs5
        .byte   W06
        .byte                   Fs5
        .byte   W06
        .byte   PEND
@ 133   ----------------------------------------
        .byte   PATT
         .word  anothertest_5_132
@ 134   ----------------------------------------
        .byte           N05   , Fn5 , v108
        .byte   W06
        .byte                   Fn5
        .byte   W06
        .byte                   Fn5
        .byte   W06
        .byte                   Fs5
        .byte   W06
        .byte                   Fs5
        .byte   W06
        .byte                   Fs5
        .byte   W06
        .byte                   Ds5
        .byte   W06
        .byte                   Ds5
        .byte   W06
        .byte                   Ds5
        .byte   W06
        .byte                   Fn5
        .byte   W06
        .byte                   Fn5
        .byte   W06
        .byte                   Fn5
        .byte   W06
        .byte                   Fs5
        .byte   W06
        .byte                   Fs5
        .byte   W06
        .byte                   Cs5
        .byte   W06
        .byte                   Cs5
        .byte   W06
@ 135   ----------------------------------------
        .byte                   Fn5
        .byte   W06
        .byte                   Fn5
        .byte   W06
        .byte                   Fn5
        .byte   W06
        .byte                   Fs5
        .byte   W06
        .byte                   Fs5
        .byte   W06
        .byte                   Fs5
        .byte   W06
        .byte                   Ds5
        .byte   W06
        .byte                   Ds5
        .byte   W06
        .byte                   Ds5
        .byte   W06
        .byte                   Fn5
        .byte   W06
        .byte                   Fn5
        .byte   W06
        .byte                   Fn5
        .byte   W06
        .byte                   Fs5
        .byte   W06
        .byte                   Fs5
        .byte   W06
        .byte                   Fn5
        .byte   W06
        .byte                   Fn5
        .byte   W06
@ 136   ----------------------------------------
        .byte                   En5
        .byte   W06
        .byte                   En5
        .byte   W06
        .byte                   En5
        .byte   W06
        .byte                   Fs5
        .byte   W06
        .byte                   Fs5
        .byte   W06
        .byte                   Fs5
        .byte   W06
        .byte                   Cs5
        .byte   W06
        .byte                   Cs5
        .byte   W06
        .byte                   Cs5
        .byte   W06
        .byte                   En5
        .byte   W06
        .byte                   En5
        .byte   W06
        .byte                   En5
        .byte   W06
        .byte                   Fs5
        .byte   W06
        .byte                   Fs5
        .byte   W06
        .byte                   Bn4
        .byte   W06
        .byte                   Bn4
        .byte   W06
@ 137   ----------------------------------------
        .byte                   En5
        .byte   W06
        .byte                   En5
        .byte   W06
        .byte                   En5
        .byte   W06
        .byte                   Fs5
        .byte   W06
        .byte                   Fs5
        .byte   W06
        .byte                   Fs5
        .byte   W06
        .byte                   Cs5
        .byte   W06
        .byte                   Cs5
        .byte   W06
        .byte                   Cs5
        .byte   W06
        .byte                   En5
        .byte   W06
        .byte                   En5
        .byte   W06
        .byte                   En5
        .byte   W06
        .byte                   Fs5
        .byte   W06
        .byte                   Fs5
        .byte   W06
        .byte                   Cs5
        .byte   W06
        .byte                   Cs5
        .byte   W06
@ 138   ----------------------------------------
        .byte                   Dn5
        .byte   W06
        .byte                   Dn5
        .byte   W06
        .byte                   Dn5
        .byte   W06
        .byte                   En5
        .byte   W06
        .byte                   En5
        .byte   W06
        .byte                   En5
        .byte   W06
        .byte                   An4
        .byte   W06
        .byte                   An4
        .byte   W06
        .byte                   An4
        .byte   W06
        .byte                   Dn5
        .byte   W06
        .byte                   Dn5
        .byte   W06
        .byte                   Dn5
        .byte   W06
        .byte                   En5
        .byte   W06
        .byte                   En5
        .byte   W06
        .byte                   Bn4
        .byte   W06
        .byte                   Bn4
        .byte   W06
@ 139   ----------------------------------------
        .byte                   Dn5
        .byte   W06
        .byte                   Dn5
        .byte   W06
        .byte                   Dn5
        .byte   W06
        .byte                   En5
        .byte   W06
        .byte                   En5
        .byte   W06
        .byte                   En5
        .byte   W06
        .byte                   An5
        .byte   W06
        .byte                   An5
        .byte   W06
        .byte                   An5
        .byte   W06
        .byte                   Gs5
        .byte   W06
        .byte                   Gs5
        .byte   W06
        .byte                   Gs5
        .byte   W06
        .byte                   En5
        .byte   W06
        .byte                   En5
        .byte   W06
        .byte                   Cs5
        .byte   W06
        .byte                   Cs5
        .byte   W06
@ 140   ----------------------------------------
        .byte   GOTO
         .word  anothertest_5_LOOP
        .byte   FINE

@****************** Track 6 (Midi-Chn.6) ******************@

anothertest_6:
        .byte   KEYSH , anothertest_key+0
@ 000   ----------------------------------------
anothertest_6_LOOP:
        .byte           VOICE , 124
        .byte           VOL   , 57
        .byte           N02   , Cn1 , v111
        .byte   W06
        .byte                   Cn1 , v099
        .byte   W06
        .byte                   Cn1
        .byte   W06
        .byte                   Cn1
        .byte   W06
        .byte                   Cn1 , v111
        .byte   W06
        .byte                   Cn1 , v099
        .byte   W06
        .byte                   Cn1
        .byte   W06
        .byte                   Cn1
        .byte   W06
        .byte                   Cn1 , v111
        .byte   W06
        .byte                   Cn1 , v099
        .byte   W06
        .byte                   Cn1
        .byte   W06
        .byte                   Cn1
        .byte   W06
        .byte                   Cn1 , v111
        .byte   W06
        .byte                   Cn1 , v099
        .byte   W06
        .byte                   Cn1
        .byte   W06
        .byte                   Cn1
        .byte   W06
@ 001   ----------------------------------------
anothertest_6_1:
        .byte           N02   , Cn1 , v111
        .byte   W06
        .byte                   Cn1 , v099
        .byte   W06
        .byte                   Cn1
        .byte   W06
        .byte                   Cn1
        .byte   W06
        .byte                   Cn1 , v111
        .byte   W06
        .byte                   Cn1 , v099
        .byte   W06
        .byte                   Cn1
        .byte   W06
        .byte                   Cn1
        .byte   W06
        .byte                   Cn1 , v111
        .byte   W06
        .byte                   Cn1 , v099
        .byte   W06
        .byte                   Cn1
        .byte   W06
        .byte                   Cn1
        .byte   W06
        .byte                   Cn1 , v111
        .byte   W06
        .byte                   Cn1 , v099
        .byte   W06
        .byte                   Cn1
        .byte   W06
        .byte                   Cn1
        .byte   W06
        .byte   PEND
@ 002   ----------------------------------------
        .byte   PATT
         .word  anothertest_6_1
@ 003   ----------------------------------------
        .byte           N02   , Cn1 , v111
        .byte   W06
        .byte                   Cn1 , v099
        .byte   W06
        .byte                   Cn1
        .byte   W06
        .byte                   Cn1
        .byte   W06
        .byte                   Cn1 , v111
        .byte   W06
        .byte                   Cn1 , v099
        .byte   W06
        .byte                   Cn1
        .byte   W06
        .byte                   Cn1
        .byte   W06
        .byte                   Cn1 , v111
        .byte   W06
        .byte                   Cn1 , v099
        .byte   W06
        .byte                   Cn1
        .byte   W06
        .byte                   Cn1
        .byte   W06
        .byte           N03   , Cn1 , v111
        .byte   W04
        .byte                   Cn1 , v107
        .byte   W04
        .byte                   Cn1 , v103
        .byte   W04
        .byte           N05   , En1 , v111
        .byte   W06
        .byte                   En1 , v107
        .byte   W06
@ 004   ----------------------------------------
anothertest_6_4:
        .byte           N23   , Cn1 , v111
        .byte           N05   , Fs2 , v099
        .byte   W12
        .byte                   Fs2 , v089
        .byte   W06
        .byte                   Fs2
        .byte   W06
        .byte           N17   , En1 , v111
        .byte           N05   , Fs2 , v099
        .byte   W12
        .byte                   Fs2 , v089
        .byte   W06
        .byte                   Cn1 , v099
        .byte           N05   , Fs2 , v089
        .byte   W06
        .byte           N23   , Cn1 , v111
        .byte           N05   , Fs2 , v099
        .byte   W12
        .byte                   Fs2 , v089
        .byte   W06
        .byte                   Fs2
        .byte   W06
        .byte           N23   , En1 , v111
        .byte           N05   , Fs2 , v099
        .byte   W12
        .byte                   Fs2 , v089
        .byte   W06
        .byte                   Fs2
        .byte   W06
        .byte   PEND
@ 005   ----------------------------------------
anothertest_6_5:
        .byte           N23   , Cn1 , v111
        .byte           N05   , Fs2 , v099
        .byte   W12
        .byte                   Fs2 , v089
        .byte   W06
        .byte                   Fs2
        .byte   W06
        .byte           N17   , En1 , v111
        .byte           N05   , Fs2 , v099
        .byte   W12
        .byte                   Fs2 , v089
        .byte   W06
        .byte                   Cn1 , v099
        .byte           N05   , Fs2 , v089
        .byte   W06
        .byte           N23   , Cn1 , v111
        .byte           N05   , Fs2 , v099
        .byte   W12
        .byte                   Fs2 , v089
        .byte   W06
        .byte                   Fs2
        .byte   W06
        .byte           N11   , En1 , v111
        .byte           N03   , Fs2 , v099
        .byte   W04
        .byte                   Fs2
        .byte   W04
        .byte                   Fs2
        .byte   W04
        .byte           N05   , Cn1 , v103
        .byte           N05   , Fs2 , v089
        .byte   W06
        .byte                   Cn1 , v099
        .byte           N05   , Fs2 , v089
        .byte   W06
        .byte   PEND
@ 006   ----------------------------------------
        .byte   PATT
         .word  anothertest_6_4
@ 007   ----------------------------------------
        .byte           N23   , Cn1 , v111
        .byte           N05   , Fs2 , v099
        .byte   W12
        .byte                   Fs2 , v089
        .byte   W06
        .byte                   Fs2
        .byte   W06
        .byte           N17   , En1 , v111
        .byte           N05   , Fs2 , v099
        .byte   W12
        .byte                   Fs2 , v089
        .byte   W06
        .byte                   Cn1 , v099
        .byte           N05   , Fs2 , v089
        .byte   W06
        .byte           N11   , Cn1 , v111
        .byte           N05   , Fs2 , v099
        .byte   W12
        .byte           N11   , Cn1
        .byte           N05   , Fs2 , v089
        .byte   W06
        .byte                   Fs2
        .byte   W06
        .byte           N11   , En1 , v111
        .byte           N03   , Fs2 , v099
        .byte   W04
        .byte                   Fs2
        .byte   W04
        .byte                   Fs2
        .byte   W04
        .byte                   Cn1 , v111
        .byte           N05   , Fs2 , v089
        .byte   W04
        .byte           N03   , Cn1 , v103
        .byte   W02
        .byte           N05   , Fs2 , v089
        .byte   W02
        .byte           N03   , Cn1 , v099
        .byte   W04
@ 008   ----------------------------------------
        .byte   PATT
         .word  anothertest_6_4
@ 009   ----------------------------------------
        .byte   PATT
         .word  anothertest_6_5
@ 010   ----------------------------------------
        .byte   PATT
         .word  anothertest_6_4
@ 011   ----------------------------------------
        .byte           N23   , Cn1 , v111
        .byte           N05   , Fs2 , v099
        .byte   W12
        .byte                   Fs2 , v089
        .byte   W06
        .byte                   Fs2
        .byte   W06
        .byte           N17   , En1 , v111
        .byte           N05   , Fs2 , v099
        .byte   W12
        .byte                   Fs2 , v089
        .byte   W06
        .byte                   Cn1 , v099
        .byte           N05   , Fs2 , v089
        .byte   W06
        .byte                   Cn1 , v111
        .byte           N05   , Fs2 , v099
        .byte   W12
        .byte                   En1 , v111
        .byte           N05   , Fs2 , v089
        .byte   W06
        .byte                   Fs2
        .byte   W06
        .byte                   En1 , v111
        .byte           N03   , Fs2 , v099
        .byte   W04
        .byte                   Fs2
        .byte   W02
        .byte           N05   , En1 , v107
        .byte   W02
        .byte           N03   , Fs2 , v099
        .byte   W04
        .byte           N05   , Cn1 , v111
        .byte           N05   , Fs2 , v089
        .byte   W06
        .byte                   Cn1 , v103
        .byte           N05   , Fs2 , v089
        .byte   W06
@ 012   ----------------------------------------
anothertest_6_12:
        .byte           N23   , Cn1 , v111
        .byte           N05   , Fs2 , v099
        .byte   W12
        .byte                   Fs2 , v089
        .byte   W06
        .byte                   Fs2
        .byte   W06
        .byte           N23   , En1 , v111
        .byte           N05   , Fs2 , v099
        .byte   W12
        .byte                   Fs2 , v089
        .byte   W06
        .byte                   Fs2
        .byte   W06
        .byte           N23   , Cn1 , v111
        .byte           N05   , Fs2 , v099
        .byte   W12
        .byte                   Fs2 , v089
        .byte   W06
        .byte                   Fs2
        .byte   W06
        .byte           N17   , En1 , v111
        .byte           N05   , Fs2 , v099
        .byte   W12
        .byte                   Fs2 , v089
        .byte   W06
        .byte                   Cn1 , v099
        .byte           N05   , Fs2 , v089
        .byte   W06
        .byte   PEND
@ 013   ----------------------------------------
anothertest_6_13:
        .byte           N23   , Cn1 , v111
        .byte           N05   , Fs2 , v099
        .byte   W12
        .byte                   Fs2 , v089
        .byte   W06
        .byte                   Fs2
        .byte   W06
        .byte           N23   , En1 , v111
        .byte           N05   , Fs2 , v099
        .byte   W12
        .byte                   Fs2 , v089
        .byte   W06
        .byte                   Fs2
        .byte   W06
        .byte           N23   , Cn1 , v111
        .byte           N05   , Fs2 , v099
        .byte   W12
        .byte                   Fs2 , v089
        .byte   W06
        .byte                   Fs2
        .byte   W06
        .byte           N11   , En1 , v111
        .byte           N03   , Fs2 , v099
        .byte   W04
        .byte                   Fs2
        .byte   W04
        .byte                   Fs2
        .byte   W04
        .byte           N05   , Cn1 , v103
        .byte           N05   , Fs2 , v089
        .byte   W06
        .byte                   Cn1 , v099
        .byte           N05   , Fs2 , v089
        .byte   W06
        .byte   PEND
@ 014   ----------------------------------------
        .byte   PATT
         .word  anothertest_6_12
@ 015   ----------------------------------------
anothertest_6_15:
        .byte           N23   , Cn1 , v111
        .byte           N05   , Fs2 , v099
        .byte   W12
        .byte                   Fs2 , v089
        .byte   W06
        .byte                   Fs2
        .byte   W06
        .byte           N23   , En1 , v111
        .byte           N05   , Fs2 , v099
        .byte   W12
        .byte                   Fs2 , v089
        .byte   W06
        .byte                   Fs2
        .byte   W06
        .byte           N11   , Cn1 , v111
        .byte           N05   , Fs2 , v099
        .byte   W12
        .byte           N11   , Cn1 , v111
        .byte           N05   , Fs2 , v089
        .byte   W06
        .byte                   Fs2
        .byte   W06
        .byte           N11   , En1 , v111
        .byte           N03   , Fs2 , v099
        .byte   W04
        .byte                   Fs2
        .byte   W04
        .byte                   Fs2
        .byte   W04
        .byte                   Cn1 , v107
        .byte           N05   , Fs2 , v089
        .byte   W04
        .byte           N03   , Cn1 , v103
        .byte   W02
        .byte           N05   , Fs2 , v089
        .byte   W02
        .byte           N03   , Cn1 , v099
        .byte   W04
        .byte   PEND
@ 016   ----------------------------------------
anothertest_6_16:
        .byte           N05   , Cn1 , v111
        .byte           N05   , Fs2 , v099
        .byte   W06
        .byte                   Cn1 , v103
        .byte           N05   , Fs2 , v089
        .byte   W06
        .byte                   Cn1 , v099
        .byte           N05   , Fs2 , v089
        .byte   W12
        .byte           N11   , En1 , v111
        .byte           N05   , Fs2 , v099
        .byte   W12
        .byte                   Cn1 , v111
        .byte           N05   , Fs2 , v099
        .byte   W06
        .byte                   Cn1 , v103
        .byte           N05   , Fs2 , v089
        .byte   W06
        .byte                   Cn1 , v099
        .byte           N05   , Fs2 , v089
        .byte   W12
        .byte           N11   , En1 , v111
        .byte           N05   , Fs2 , v099
        .byte   W12
        .byte           N03   , Cn1 , v111
        .byte           N05   , Fs2 , v099
        .byte   W04
        .byte           N03   , Cn1 , v103
        .byte   W02
        .byte           N05   , Fs2 , v089
        .byte   W02
        .byte           N03   , Cn1 , v099
        .byte   W04
        .byte           N05   , Cn1 , v107
        .byte           N05   , Fs2 , v089
        .byte   W06
        .byte                   Cn1 , v099
        .byte   W06
        .byte   PEND
@ 017   ----------------------------------------
        .byte                   Cn1 , v111
        .byte           N05   , Fs2 , v099
        .byte   W06
        .byte                   Cn1 , v103
        .byte           N05   , Fs2 , v089
        .byte   W06
        .byte                   Cn1 , v099
        .byte           N05   , Fs2 , v089
        .byte   W12
        .byte           N11   , En1 , v111
        .byte           N05   , Fs2 , v099
        .byte   W12
        .byte                   Cn1 , v111
        .byte           N05   , Fs2 , v089
        .byte   W06
        .byte                   Cn1 , v103
        .byte           N05   , Fs2 , v089
        .byte   W06
        .byte                   Cn1 , v099
        .byte           N05   , Fs2
        .byte   W12
        .byte                   Fs2 , v089
        .byte   W06
        .byte                   Fs2
        .byte   W06
        .byte           N11   , En1 , v111
        .byte           N03   , Fs2 , v099
        .byte   W04
        .byte                   Fs2
        .byte   W04
        .byte                   Fs2
        .byte   W04
        .byte           N05   , Cn1
        .byte           N05   , Fs2 , v089
        .byte   W06
        .byte                   Cn1 , v099
        .byte           N05   , Fs2 , v089
        .byte   W06
@ 018   ----------------------------------------
        .byte   PATT
         .word  anothertest_6_16
@ 019   ----------------------------------------
        .byte           N05   , Cn1 , v111
        .byte           N05   , Fs2 , v099
        .byte   W06
        .byte                   Cn1 , v103
        .byte           N05   , Fs2 , v089
        .byte   W06
        .byte                   Cn1 , v099
        .byte           N05   , Fs2 , v089
        .byte   W12
        .byte           N11   , En1 , v111
        .byte           N05   , Fs2 , v099
        .byte   W12
        .byte                   Cn1 , v111
        .byte           N05   , Fs2 , v089
        .byte   W06
        .byte                   Cn1 , v103
        .byte           N05   , Fs2 , v089
        .byte   W06
        .byte           N11   , Cn1 , v099
        .byte           N05   , Fs2
        .byte   W12
        .byte           N03   , Cn1 , v111
        .byte           N05   , Fs2 , v089
        .byte   W04
        .byte           N03   , Cn1 , v103
        .byte   W02
        .byte           N05   , Fs2 , v089
        .byte   W02
        .byte           N03   , Cn1 , v099
        .byte   W04
        .byte           N11   , En1 , v111
        .byte           N03   , Fs2 , v099
        .byte   W04
        .byte                   Fs2
        .byte   W04
        .byte                   Fs2
        .byte   W04
        .byte                   Cn1 , v111
        .byte           N05   , Fs2 , v089
        .byte   W04
        .byte           N03   , Cn1 , v103
        .byte   W02
        .byte           N05   , Fs2 , v089
        .byte   W02
        .byte           N03   , Cn1 , v099
        .byte   W04
@ 020   ----------------------------------------
        .byte   PATT
         .word  anothertest_6_12
@ 021   ----------------------------------------
        .byte   PATT
         .word  anothertest_6_13
@ 022   ----------------------------------------
        .byte   PATT
         .word  anothertest_6_12
@ 023   ----------------------------------------
        .byte   PATT
         .word  anothertest_6_15
@ 024   ----------------------------------------
        .byte   PATT
         .word  anothertest_6_12
@ 025   ----------------------------------------
        .byte   PATT
         .word  anothertest_6_13
@ 026   ----------------------------------------
        .byte   PATT
         .word  anothertest_6_12
@ 027   ----------------------------------------
        .byte   PATT
         .word  anothertest_6_15
@ 028   ----------------------------------------
        .byte   PATT
         .word  anothertest_6_12
@ 029   ----------------------------------------
        .byte   PATT
         .word  anothertest_6_13
@ 030   ----------------------------------------
        .byte   PATT
         .word  anothertest_6_12
@ 031   ----------------------------------------
        .byte   PATT
         .word  anothertest_6_15
@ 032   ----------------------------------------
        .byte   PATT
         .word  anothertest_6_12
@ 033   ----------------------------------------
        .byte   PATT
         .word  anothertest_6_13
@ 034   ----------------------------------------
anothertest_6_34:
        .byte           N23   , Cn1 , v111
        .byte           N05   , Fs2 , v099
        .byte   W12
        .byte                   Fs2 , v089
        .byte   W06
        .byte                   Fs2
        .byte   W06
        .byte           N23   , En1 , v111
        .byte           N05   , Fs2 , v099
        .byte   W12
        .byte                   Fs2 , v089
        .byte   W06
        .byte                   Fs2
        .byte   W06
        .byte           N23   , Cn1 , v111
        .byte           N05   , Fs2 , v099
        .byte   W12
        .byte                   Fs2 , v089
        .byte   W06
        .byte                   Fs2
        .byte   W06
        .byte           N11   , En1 , v111
        .byte           N05   , Fs2 , v099
        .byte   W12
        .byte           N03   , Cn1 , v107
        .byte           N05   , Fs2 , v089
        .byte   W04
        .byte           N03   , Cn1 , v103
        .byte   W02
        .byte           N05   , Fs2 , v089
        .byte   W02
        .byte           N03   , Cn1 , v099
        .byte   W04
        .byte   PEND
@ 035   ----------------------------------------
anothertest_6_35:
        .byte           N11   , Cn1 , v111
        .byte           N05   , Fs2 , v099
        .byte   W12
        .byte                   Cn1
        .byte           N05   , Fs2 , v089
        .byte   W06
        .byte           N11   , En1 , v111
        .byte           N05   , Fs2 , v089
        .byte   W06
        .byte                   Fs2 , v099
        .byte   W06
        .byte                   Cn1
        .byte   W06
        .byte                   Cn1 , v111
        .byte           N05   , Fs2 , v089
        .byte   W06
        .byte                   Cn1 , v099
        .byte           N05   , Fs2 , v089
        .byte   W06
        .byte           N11   , Cn1 , v111
        .byte           N05   , Fs2 , v099
        .byte   W12
        .byte                   Cn1
        .byte           N05   , Fs2 , v089
        .byte   W06
        .byte           N11   , En1 , v111
        .byte           N05   , Fs2 , v089
        .byte   W06
        .byte                   Fs2 , v099
        .byte   W06
        .byte                   Cn1
        .byte           N05   , Fs2 , v089
        .byte   W06
        .byte           N03   , Cn1 , v111
        .byte           N03   , Fs2 , v089
        .byte   W04
        .byte                   Cn1 , v103
        .byte           N03   , Fs2 , v089
        .byte   W04
        .byte                   Cn1 , v099
        .byte           N03   , Fs2 , v089
        .byte   W04
        .byte   PEND
@ 036   ----------------------------------------
        .byte   PATT
         .word  anothertest_6_12
@ 037   ----------------------------------------
anothertest_6_37:
        .byte           N23   , Cn1 , v111
        .byte           N05   , Fs2 , v099
        .byte   W12
        .byte                   Fs2 , v089
        .byte   W06
        .byte                   Fs2
        .byte   W06
        .byte           N23   , En1 , v111
        .byte           N05   , Fs2 , v099
        .byte   W12
        .byte                   Fs2 , v089
        .byte   W06
        .byte                   Fs2
        .byte   W06
        .byte           N11   , Cn1 , v111
        .byte           N05   , Fs2 , v099
        .byte   W12
        .byte           N11   , Cn1
        .byte           N05   , Fs2 , v089
        .byte   W06
        .byte                   Fs2
        .byte   W06
        .byte           N11   , En1 , v111
        .byte           N03   , Fs2 , v099
        .byte   W04
        .byte                   Fs2
        .byte   W04
        .byte                   Fs2
        .byte   W04
        .byte           N05   , Cn1 , v103
        .byte           N05   , Fs2 , v089
        .byte   W06
        .byte                   Cn1 , v099
        .byte           N05   , Fs2 , v089
        .byte   W06
        .byte   PEND
@ 038   ----------------------------------------
        .byte   PATT
         .word  anothertest_6_12
@ 039   ----------------------------------------
anothertest_6_39:
        .byte           N23   , Cn1 , v111
        .byte           N05   , Fs2 , v099
        .byte   W12
        .byte                   Fs2 , v089
        .byte   W06
        .byte                   Fs2
        .byte   W06
        .byte           N23   , En1 , v111
        .byte           N05   , Fs2 , v099
        .byte   W12
        .byte                   Fs2 , v089
        .byte   W06
        .byte                   Fs2
        .byte   W06
        .byte                   Cn1 , v111
        .byte           N05   , Fs2 , v099
        .byte   W06
        .byte                   Cn1 , v107
        .byte   W06
        .byte           N11
        .byte           N05   , Fs2 , v089
        .byte   W06
        .byte                   Fs2
        .byte   W06
        .byte           N11   , En1 , v111
        .byte           N03   , Fs2 , v099
        .byte   W04
        .byte                   Fs2
        .byte   W04
        .byte                   Fs2
        .byte   W04
        .byte                   Cn1 , v107
        .byte           N05   , Fs2 , v089
        .byte   W04
        .byte           N03   , Cn1 , v103
        .byte   W02
        .byte           N05   , Fs2 , v089
        .byte   W02
        .byte           N03   , Cn1 , v099
        .byte   W04
        .byte   PEND
@ 040   ----------------------------------------
        .byte   PATT
         .word  anothertest_6_12
@ 041   ----------------------------------------
        .byte   PATT
         .word  anothertest_6_37
@ 042   ----------------------------------------
        .byte   PATT
         .word  anothertest_6_12
@ 043   ----------------------------------------
        .byte   PATT
         .word  anothertest_6_39
@ 044   ----------------------------------------
        .byte   PATT
         .word  anothertest_6_12
@ 045   ----------------------------------------
        .byte   PATT
         .word  anothertest_6_37
@ 046   ----------------------------------------
        .byte   PATT
         .word  anothertest_6_12
@ 047   ----------------------------------------
        .byte   PATT
         .word  anothertest_6_39
@ 048   ----------------------------------------
        .byte   PATT
         .word  anothertest_6_12
@ 049   ----------------------------------------
        .byte   PATT
         .word  anothertest_6_37
@ 050   ----------------------------------------
        .byte   PATT
         .word  anothertest_6_12
@ 051   ----------------------------------------
        .byte   PATT
         .word  anothertest_6_39
@ 052   ----------------------------------------
anothertest_6_52:
        .byte           N05   , Cn1 , v111
        .byte   W12
        .byte                   Fs2 , v099
        .byte   W06
        .byte                   Fs2
        .byte   W06
        .byte                   Fs2 , v111
        .byte   W12
        .byte                   Fs2 , v099
        .byte   W06
        .byte                   Fs2
        .byte   W06
        .byte                   Cn1 , v111
        .byte   W12
        .byte                   Fs2 , v099
        .byte   W06
        .byte                   Fs2
        .byte   W06
        .byte                   Fs2 , v111
        .byte   W12
        .byte                   Fs2 , v099
        .byte   W06
        .byte                   Fs2
        .byte   W06
        .byte   PEND
@ 053   ----------------------------------------
        .byte   PATT
         .word  anothertest_6_52
@ 054   ----------------------------------------
        .byte   PATT
         .word  anothertest_6_52
@ 055   ----------------------------------------
        .byte   PATT
         .word  anothertest_6_52
@ 056   ----------------------------------------
        .byte   PATT
         .word  anothertest_6_52
@ 057   ----------------------------------------
        .byte   PATT
         .word  anothertest_6_52
@ 058   ----------------------------------------
        .byte   PATT
         .word  anothertest_6_52
@ 059   ----------------------------------------
        .byte   PATT
         .word  anothertest_6_52
@ 060   ----------------------------------------
        .byte   PATT
         .word  anothertest_6_52
@ 061   ----------------------------------------
        .byte   PATT
         .word  anothertest_6_52
@ 062   ----------------------------------------
        .byte   PATT
         .word  anothertest_6_52
@ 063   ----------------------------------------
        .byte   PATT
         .word  anothertest_6_52
@ 064   ----------------------------------------
        .byte   PATT
         .word  anothertest_6_52
@ 065   ----------------------------------------
        .byte   PATT
         .word  anothertest_6_52
@ 066   ----------------------------------------
        .byte   PATT
         .word  anothertest_6_52
@ 067   ----------------------------------------
        .byte           N05   , Cn1 , v111
        .byte   W12
        .byte                   Fs2 , v099
        .byte   W06
        .byte                   Fs2
        .byte   W06
        .byte                   Fs2 , v111
        .byte   W12
        .byte                   Fs2 , v099
        .byte   W06
        .byte                   Fs2
        .byte   W06
        .byte           N03   , Cn1 , v111
        .byte   W04
        .byte                   Cn1
        .byte   W04
        .byte                   Cn1
        .byte   W04
        .byte           N05   , En1
        .byte   W12
        .byte                   En1
        .byte   W06
        .byte                   Cn1 , v099
        .byte   W06
        .byte                   En1 , v111
        .byte   W06
        .byte                   En1
        .byte   W06
@ 068   ----------------------------------------
        .byte   PATT
         .word  anothertest_6_12
@ 069   ----------------------------------------
        .byte   PATT
         .word  anothertest_6_13
@ 070   ----------------------------------------
        .byte   PATT
         .word  anothertest_6_12
@ 071   ----------------------------------------
        .byte   PATT
         .word  anothertest_6_15
@ 072   ----------------------------------------
        .byte   PATT
         .word  anothertest_6_12
@ 073   ----------------------------------------
        .byte   PATT
         .word  anothertest_6_13
@ 074   ----------------------------------------
        .byte   PATT
         .word  anothertest_6_12
@ 075   ----------------------------------------
        .byte   PATT
         .word  anothertest_6_15
@ 076   ----------------------------------------
        .byte   PATT
         .word  anothertest_6_12
@ 077   ----------------------------------------
        .byte   PATT
         .word  anothertest_6_13
@ 078   ----------------------------------------
        .byte   PATT
         .word  anothertest_6_12
@ 079   ----------------------------------------
        .byte   PATT
         .word  anothertest_6_15
@ 080   ----------------------------------------
        .byte   PATT
         .word  anothertest_6_12
@ 081   ----------------------------------------
        .byte   PATT
         .word  anothertest_6_13
@ 082   ----------------------------------------
        .byte   PATT
         .word  anothertest_6_34
@ 083   ----------------------------------------
        .byte   PATT
         .word  anothertest_6_35
@ 084   ----------------------------------------
        .byte   PATT
         .word  anothertest_6_12
@ 085   ----------------------------------------
        .byte   PATT
         .word  anothertest_6_37
@ 086   ----------------------------------------
        .byte   PATT
         .word  anothertest_6_12
@ 087   ----------------------------------------
        .byte   PATT
         .word  anothertest_6_39
@ 088   ----------------------------------------
        .byte   PATT
         .word  anothertest_6_12
@ 089   ----------------------------------------
        .byte   PATT
         .word  anothertest_6_37
@ 090   ----------------------------------------
        .byte   PATT
         .word  anothertest_6_12
@ 091   ----------------------------------------
        .byte   PATT
         .word  anothertest_6_39
@ 092   ----------------------------------------
        .byte   PATT
         .word  anothertest_6_12
@ 093   ----------------------------------------
        .byte   PATT
         .word  anothertest_6_37
@ 094   ----------------------------------------
        .byte   PATT
         .word  anothertest_6_12
@ 095   ----------------------------------------
        .byte   PATT
         .word  anothertest_6_39
@ 096   ----------------------------------------
        .byte   PATT
         .word  anothertest_6_12
@ 097   ----------------------------------------
        .byte   PATT
         .word  anothertest_6_37
@ 098   ----------------------------------------
        .byte   PATT
         .word  anothertest_6_12
@ 099   ----------------------------------------
        .byte   PATT
         .word  anothertest_6_39
@ 100   ----------------------------------------
        .byte   PATT
         .word  anothertest_6_52
@ 101   ----------------------------------------
        .byte   PATT
         .word  anothertest_6_52
@ 102   ----------------------------------------
        .byte   PATT
         .word  anothertest_6_52
@ 103   ----------------------------------------
        .byte   PATT
         .word  anothertest_6_52
@ 104   ----------------------------------------
        .byte   PATT
         .word  anothertest_6_52
@ 105   ----------------------------------------
        .byte   PATT
         .word  anothertest_6_52
@ 106   ----------------------------------------
        .byte   PATT
         .word  anothertest_6_52
@ 107   ----------------------------------------
        .byte   PATT
         .word  anothertest_6_52
@ 108   ----------------------------------------
        .byte   PATT
         .word  anothertest_6_52
@ 109   ----------------------------------------
        .byte   PATT
         .word  anothertest_6_52
@ 110   ----------------------------------------
        .byte   PATT
         .word  anothertest_6_52
@ 111   ----------------------------------------
        .byte   PATT
         .word  anothertest_6_52
@ 112   ----------------------------------------
        .byte   PATT
         .word  anothertest_6_52
@ 113   ----------------------------------------
        .byte   PATT
         .word  anothertest_6_52
@ 114   ----------------------------------------
        .byte   PATT
         .word  anothertest_6_52
@ 115   ----------------------------------------
        .byte           N05   , Cn1 , v111
        .byte   W12
        .byte                   Fs2 , v099
        .byte   W06
        .byte                   Fs2
        .byte   W06
        .byte                   Fs2 , v111
        .byte   W12
        .byte                   Fs2 , v099
        .byte   W06
        .byte                   Fs2
        .byte   W06
        .byte                   Cn1 , v111
        .byte   W06
        .byte                   Fs2 , v099
        .byte   W06
        .byte                   Fs2
        .byte   W06
        .byte                   Fs2
        .byte   W06
        .byte                   Fs2 , v111
        .byte   W06
        .byte                   Cn1 , v095
        .byte   W06
        .byte                   Cn1 , v111
        .byte   W06
        .byte                   Cn1 , v099
        .byte   W06
@ 116   ----------------------------------------
anothertest_6_116:
        .byte           N05   , Cn1 , v111
        .byte   W36
        .byte                   Cn1 , v103
        .byte   W06
        .byte                   Cn1 , v099
        .byte   W06
        .byte                   Cn1 , v111
        .byte   W06
        .byte                   Cn1 , v103
        .byte   W06
        .byte                   Cn1 , v099
        .byte   W36
        .byte   PEND
@ 117   ----------------------------------------
anothertest_6_117:
        .byte           N05   , Cn1 , v111
        .byte   W18
        .byte                   Cn1 , v099
        .byte   W18
        .byte                   Cn1 , v103
        .byte   W06
        .byte                   Cn1 , v099
        .byte   W06
        .byte                   Cn1 , v111
        .byte   W06
        .byte                   Cn1 , v103
        .byte   W06
        .byte                   Cn1 , v099
        .byte   W36
        .byte   PEND
@ 118   ----------------------------------------
        .byte   PATT
         .word  anothertest_6_116
@ 119   ----------------------------------------
        .byte   PATT
         .word  anothertest_6_117
@ 120   ----------------------------------------
        .byte   PATT
         .word  anothertest_6_116
@ 121   ----------------------------------------
        .byte   PATT
         .word  anothertest_6_117
@ 122   ----------------------------------------
        .byte   PATT
         .word  anothertest_6_116
@ 123   ----------------------------------------
        .byte   PATT
         .word  anothertest_6_117
@ 124   ----------------------------------------
        .byte   W96
@ 125   ----------------------------------------
        .byte   W96
@ 126   ----------------------------------------
        .byte   W96
@ 127   ----------------------------------------
        .byte   W96
@ 128   ----------------------------------------
        .byte   W96
@ 129   ----------------------------------------
        .byte   W96
@ 130   ----------------------------------------
        .byte   W96
@ 131   ----------------------------------------
        .byte   W96
@ 132   ----------------------------------------
        .byte   W96
@ 133   ----------------------------------------
        .byte   W96
@ 134   ----------------------------------------
        .byte   W96
@ 135   ----------------------------------------
        .byte   W96
@ 136   ----------------------------------------
        .byte   W96
@ 137   ----------------------------------------
        .byte   W96
@ 138   ----------------------------------------
        .byte   W96
@ 139   ----------------------------------------
        .byte   W60
        .byte           N05   , Cn1 , v111
        .byte   W06
        .byte                   Cn1 , v103
        .byte   W06
        .byte           N23   , En1 , v111
        .byte   W24
@ 140   ----------------------------------------
        .byte   GOTO
         .word  anothertest_6_LOOP
        .byte   FINE


@********************** End of Song ***********************@

        .align  2
anothertest:
        .byte   7                       @ Num Tracks
        .byte   0                       @ Unknown
        .byte   anothertest_pri         @ Priority
        .byte   anothertest_rev         @ Reverb

        .word   anothertest_grp        

        .word   anothertest_0
        .word   anothertest_1
        .word   anothertest_2
        .word   anothertest_3
        .word   anothertest_4
        .word   anothertest_5
        .word   anothertest_6

        .end
