	.include "MPlayDef.s"

	.equ	L_FE4_Arvis_grp, voicegroup000
	.equ	L_FE4_Arvis_pri, 0
	.equ	L_FE4_Arvis_rev, 0
	.equ	L_FE4_Arvis_mvl, 127
	.equ	L_FE4_Arvis_key, 0
	.equ	L_FE4_Arvis_tbs, 1
	.equ	L_FE4_Arvis_exg, 0
	.equ	L_FE4_Arvis_cmp, 1

	.section .rodata
	.global	L_FE4_Arvis
	.align	2

@**************** Track 1 (Midi-Chn.1) ****************@

L_FE4_Arvis_1:
	.byte	KEYSH , L_FE4_Arvis_key+0
@ 000   ----------------------------------------
	.byte	TEMPO , 120*L_FE4_Arvis_tbs/2
	.byte		VOICE , 19
	.byte		VOL   , 51*L_FE4_Arvis_mvl/mxv
	.byte		N24   , As2 , v072
	.byte		N24   , Gn3 , v100
	.byte	W24
	.byte		N12   , Cn3 , v072
	.byte		N01   , Gn3 , v056
	.byte		N12   , An3 , v100
	.byte	W12
	.byte		        Dn3 , v072
	.byte		N12   , As3 , v100
	.byte	W12
	.byte		        Cn3 , v072
	.byte		N12   , An3 , v100
	.byte		N01   , As3 , v056
	.byte	W12
	.byte		        An3 
	.byte	W12
	.byte		N12   , An2 , v072
	.byte		N12   , Fs3 , v100
	.byte	W12
	.byte		N01   , Fs3 , v056
	.byte	W12
@ 001   ----------------------------------------
	.byte	TEMPO , 150*L_FE4_Arvis_tbs/2
	.byte		N48   , Gn3 , v100
	.byte		N72   , Cn4 
	.byte	W48
	.byte		N48   , Fs3 
	.byte	W48
L_FE4_Arvis_1_B1:
@ 002   ----------------------------------------
L_FE4_Arvis_1_002:
	.byte		N96   , Dn2 , v056
	.byte		N96   , Dn3 , v080
	.byte	W96
	.byte	PEND
@ 003   ----------------------------------------
	.byte		        Ds2 , v056
	.byte		N96   , Ds3 , v080
	.byte	W96
@ 004   ----------------------------------------
L_FE4_Arvis_1_004:
	.byte		TIE   , Dn2 , v056
	.byte		TIE   , Dn3 , v080
	.byte	W96
	.byte	PEND
@ 005   ----------------------------------------
	.byte	W96
	.byte		EOT   , Dn2 
	.byte		        Dn3 
@ 006   ----------------------------------------
	.byte	PATT
	 .word	L_FE4_Arvis_1_002
@ 007   ----------------------------------------
	.byte		N96   , Fn2 , v056
	.byte		N96   , Fn3 , v080
	.byte	W96
@ 008   ----------------------------------------
	.byte	PATT
	 .word	L_FE4_Arvis_1_004
@ 009   ----------------------------------------
	.byte	W96
	.byte		EOT   , Dn2 
	.byte		        Dn3 
@ 010   ----------------------------------------
	.byte	W96
@ 011   ----------------------------------------
	.byte	W96
@ 012   ----------------------------------------
	.byte	W96
@ 013   ----------------------------------------
	.byte	W96
@ 014   ----------------------------------------
	.byte	W96
@ 015   ----------------------------------------
	.byte	W96
@ 016   ----------------------------------------
	.byte	W96
@ 017   ----------------------------------------
	.byte	W96
@ 018   ----------------------------------------
	.byte	W96
@ 019   ----------------------------------------
	.byte	W96
@ 020   ----------------------------------------
	.byte	W96
@ 021   ----------------------------------------
	.byte	W96
@ 022   ----------------------------------------
	.byte	W96
@ 023   ----------------------------------------
	.byte	W96
@ 024   ----------------------------------------
	.byte	W96
@ 025   ----------------------------------------
	.byte	W96
	.byte	GOTO
	 .word	L_FE4_Arvis_1_B1
L_FE4_Arvis_1_B2:
@ 026   ----------------------------------------
L_FE4_Arvis_1_026:
	.byte	W92
	.byte	W03
	.byte	W01
	.byte	PEND
@ 027   ----------------------------------------
	.byte	W96
@ 028   ----------------------------------------
	.byte	W96
@ 029   ----------------------------------------
	.byte	W96
@ 030   ----------------------------------------
	.byte	W96
@ 031   ----------------------------------------
	.byte	W96
@ 032   ----------------------------------------
	.byte	W96
@ 033   ----------------------------------------
	.byte	W96
@ 034   ----------------------------------------
	.byte	W96
@ 035   ----------------------------------------
	.byte	W96
@ 036   ----------------------------------------
	.byte	W96
@ 037   ----------------------------------------
	.byte	W96
@ 038   ----------------------------------------
	.byte	W96
@ 039   ----------------------------------------
	.byte	W96
@ 040   ----------------------------------------
	.byte	W96
@ 041   ----------------------------------------
	.byte	W96
@ 042   ----------------------------------------
	.byte	W96
@ 043   ----------------------------------------
	.byte	W96
@ 044   ----------------------------------------
	.byte	W96
@ 045   ----------------------------------------
	.byte	W96
@ 046   ----------------------------------------
	.byte	W96
@ 047   ----------------------------------------
	.byte	W96
@ 048   ----------------------------------------
	.byte	W96
@ 049   ----------------------------------------
	.byte	W96
@ 050   ----------------------------------------
	.byte	W96
@ 051   ----------------------------------------
	.byte	W96
@ 052   ----------------------------------------
	.byte	W96
@ 053   ----------------------------------------
	.byte	PATT
	 .word	L_FE4_Arvis_1_026
@ 054   ----------------------------------------
	.byte	W96
@ 055   ----------------------------------------
	.byte	W96
@ 056   ----------------------------------------
	.byte	W96
@ 057   ----------------------------------------
	.byte	W96
@ 058   ----------------------------------------
	.byte	W96
@ 059   ----------------------------------------
	.byte	W96
@ 060   ----------------------------------------
	.byte	W96
@ 061   ----------------------------------------
	.byte	W96
@ 062   ----------------------------------------
	.byte	W96
@ 063   ----------------------------------------
	.byte	W96
@ 064   ----------------------------------------
	.byte	W96
@ 065   ----------------------------------------
	.byte	W96
@ 066   ----------------------------------------
	.byte	W96
@ 067   ----------------------------------------
	.byte	W96
@ 068   ----------------------------------------
	.byte	W96
@ 069   ----------------------------------------
	.byte	W96
@ 070   ----------------------------------------
	.byte	W96
@ 071   ----------------------------------------
	.byte	W96
@ 072   ----------------------------------------
	.byte	W96
@ 073   ----------------------------------------
	.byte	W96
@ 074   ----------------------------------------
	.byte	W96
@ 075   ----------------------------------------
	.byte	W96
@ 076   ----------------------------------------
	.byte	W96
@ 077   ----------------------------------------
	.byte	W96
@ 078   ----------------------------------------
	.byte	W96
@ 079   ----------------------------------------
	.byte	W96
@ 080   ----------------------------------------
	.byte	PATT
	 .word	L_FE4_Arvis_1_026
@ 081   ----------------------------------------
	.byte	W96
@ 082   ----------------------------------------
	.byte	W96
@ 083   ----------------------------------------
	.byte	W96
@ 084   ----------------------------------------
	.byte	W96
@ 085   ----------------------------------------
	.byte	W96
@ 086   ----------------------------------------
	.byte	W96
@ 087   ----------------------------------------
	.byte	W96
@ 088   ----------------------------------------
	.byte	W96
@ 089   ----------------------------------------
	.byte	W96
@ 090   ----------------------------------------
	.byte	W96
@ 091   ----------------------------------------
	.byte	W96
@ 092   ----------------------------------------
	.byte	W96
@ 093   ----------------------------------------
	.byte	W96
@ 094   ----------------------------------------
	.byte	W96
@ 095   ----------------------------------------
	.byte	W96
@ 096   ----------------------------------------
	.byte	W96
@ 097   ----------------------------------------
	.byte	W96
@ 098   ----------------------------------------
	.byte	W96
@ 099   ----------------------------------------
	.byte	W96
@ 100   ----------------------------------------
	.byte	W96
@ 101   ----------------------------------------
	.byte	W96
@ 102   ----------------------------------------
	.byte	W96
@ 103   ----------------------------------------
	.byte	W96
@ 104   ----------------------------------------
	.byte	W96
@ 105   ----------------------------------------
	.byte	W96
@ 106   ----------------------------------------
	.byte	W96
@ 107   ----------------------------------------
	.byte	PATT
	 .word	L_FE4_Arvis_1_026
@ 108   ----------------------------------------
	.byte	W96
@ 109   ----------------------------------------
	.byte	W96
@ 110   ----------------------------------------
	.byte	W96
@ 111   ----------------------------------------
	.byte	W96
@ 112   ----------------------------------------
	.byte	W96
@ 113   ----------------------------------------
	.byte	W96
@ 114   ----------------------------------------
	.byte	W96
@ 115   ----------------------------------------
	.byte	W96
@ 116   ----------------------------------------
	.byte	W96
@ 117   ----------------------------------------
	.byte	W96
@ 118   ----------------------------------------
	.byte	W96
@ 119   ----------------------------------------
	.byte	W96
@ 120   ----------------------------------------
	.byte	W96
@ 121   ----------------------------------------
	.byte	W96
@ 122   ----------------------------------------
	.byte	W96
@ 123   ----------------------------------------
	.byte	W96
@ 124   ----------------------------------------
	.byte	W96
@ 125   ----------------------------------------
	.byte	W96
@ 126   ----------------------------------------
	.byte	W96
@ 127   ----------------------------------------
	.byte	W96
@ 128   ----------------------------------------
	.byte	W96
@ 129   ----------------------------------------
	.byte	W96
@ 130   ----------------------------------------
	.byte	W96
@ 131   ----------------------------------------
	.byte	W96
@ 132   ----------------------------------------
	.byte	W96
@ 133   ----------------------------------------
	.byte	W96
@ 134   ----------------------------------------
	.byte	PATT
	 .word	L_FE4_Arvis_1_026
@ 135   ----------------------------------------
	.byte	W96
@ 136   ----------------------------------------
	.byte	W96
@ 137   ----------------------------------------
	.byte	W96
@ 138   ----------------------------------------
	.byte	W96
@ 139   ----------------------------------------
	.byte	W96
@ 140   ----------------------------------------
	.byte	W96
@ 141   ----------------------------------------
	.byte	W96
@ 142   ----------------------------------------
	.byte	W96
@ 143   ----------------------------------------
	.byte	W96
@ 144   ----------------------------------------
	.byte	W96
@ 145   ----------------------------------------
	.byte	W96
@ 146   ----------------------------------------
	.byte	W96
@ 147   ----------------------------------------
	.byte	W96
@ 148   ----------------------------------------
	.byte	W96
@ 149   ----------------------------------------
	.byte	W96
@ 150   ----------------------------------------
	.byte	W96
@ 151   ----------------------------------------
	.byte	W96
@ 152   ----------------------------------------
	.byte	W96
@ 153   ----------------------------------------
	.byte	W96
@ 154   ----------------------------------------
	.byte	W96
@ 155   ----------------------------------------
	.byte	W96
@ 156   ----------------------------------------
	.byte	W96
@ 157   ----------------------------------------
	.byte	W96
@ 158   ----------------------------------------
	.byte	W96
@ 159   ----------------------------------------
	.byte	W96
@ 160   ----------------------------------------
	.byte	W96
@ 161   ----------------------------------------
L_FE4_Arvis_1_161:
	.byte	W92
	.byte	W02
	.byte	W02
	.byte	PEND
@ 162   ----------------------------------------
	.byte	W96
@ 163   ----------------------------------------
	.byte	W96
@ 164   ----------------------------------------
	.byte	W96
@ 165   ----------------------------------------
	.byte	W96
@ 166   ----------------------------------------
	.byte	W96
@ 167   ----------------------------------------
	.byte	W96
@ 168   ----------------------------------------
	.byte	W96
@ 169   ----------------------------------------
	.byte	W96
@ 170   ----------------------------------------
	.byte	W96
@ 171   ----------------------------------------
	.byte	W96
@ 172   ----------------------------------------
	.byte	W96
@ 173   ----------------------------------------
	.byte	W96
@ 174   ----------------------------------------
	.byte	W96
@ 175   ----------------------------------------
	.byte	W96
@ 176   ----------------------------------------
	.byte	W96
@ 177   ----------------------------------------
	.byte	W96
@ 178   ----------------------------------------
	.byte	W96
@ 179   ----------------------------------------
	.byte	W96
@ 180   ----------------------------------------
	.byte	W96
@ 181   ----------------------------------------
	.byte	W96
@ 182   ----------------------------------------
	.byte	W96
@ 183   ----------------------------------------
	.byte	W96
@ 184   ----------------------------------------
	.byte	W96
@ 185   ----------------------------------------
	.byte	W96
@ 186   ----------------------------------------
	.byte	W96
@ 187   ----------------------------------------
	.byte	W96
@ 188   ----------------------------------------
	.byte	PATT
	 .word	L_FE4_Arvis_1_161
@ 189   ----------------------------------------
	.byte	W96
@ 190   ----------------------------------------
	.byte	W96
@ 191   ----------------------------------------
	.byte	W96
@ 192   ----------------------------------------
	.byte	W96
@ 193   ----------------------------------------
	.byte	W96
@ 194   ----------------------------------------
	.byte	W96
@ 195   ----------------------------------------
	.byte	W96
@ 196   ----------------------------------------
	.byte	W96
@ 197   ----------------------------------------
	.byte	W96
@ 198   ----------------------------------------
	.byte	W96
@ 199   ----------------------------------------
	.byte	W96
@ 200   ----------------------------------------
	.byte	W96
@ 201   ----------------------------------------
	.byte	W96
@ 202   ----------------------------------------
	.byte	W96
@ 203   ----------------------------------------
	.byte	W96
@ 204   ----------------------------------------
	.byte	W96
@ 205   ----------------------------------------
	.byte	W96
@ 206   ----------------------------------------
	.byte	W96
@ 207   ----------------------------------------
	.byte	W96
@ 208   ----------------------------------------
	.byte	W96
@ 209   ----------------------------------------
	.byte	W96
@ 210   ----------------------------------------
	.byte	W96
@ 211   ----------------------------------------
	.byte	W96
@ 212   ----------------------------------------
	.byte	W96
@ 213   ----------------------------------------
	.byte	W96
@ 214   ----------------------------------------
	.byte	W96
@ 215   ----------------------------------------
	.byte	PATT
	 .word	L_FE4_Arvis_1_161
@ 216   ----------------------------------------
	.byte	W96
@ 217   ----------------------------------------
	.byte	W96
@ 218   ----------------------------------------
	.byte	W96
@ 219   ----------------------------------------
	.byte	W96
@ 220   ----------------------------------------
	.byte	W96
@ 221   ----------------------------------------
	.byte	W96
@ 222   ----------------------------------------
	.byte	W96
@ 223   ----------------------------------------
	.byte	W96
@ 224   ----------------------------------------
	.byte	W96
@ 225   ----------------------------------------
	.byte	W96
@ 226   ----------------------------------------
	.byte	W96
@ 227   ----------------------------------------
	.byte	W96
@ 228   ----------------------------------------
	.byte	W96
@ 229   ----------------------------------------
	.byte	W96
@ 230   ----------------------------------------
	.byte	W96
@ 231   ----------------------------------------
	.byte	W96
@ 232   ----------------------------------------
	.byte	W96
@ 233   ----------------------------------------
	.byte	W96
@ 234   ----------------------------------------
	.byte	W96
@ 235   ----------------------------------------
	.byte	W96
@ 236   ----------------------------------------
	.byte	W96
@ 237   ----------------------------------------
	.byte	W96
@ 238   ----------------------------------------
	.byte	W96
@ 239   ----------------------------------------
	.byte	W96
@ 240   ----------------------------------------
	.byte	W96
@ 241   ----------------------------------------
	.byte	W96
@ 242   ----------------------------------------
	.byte	PATT
	 .word	L_FE4_Arvis_1_161
@ 243   ----------------------------------------
	.byte	W96
@ 244   ----------------------------------------
	.byte	W96
@ 245   ----------------------------------------
	.byte	W96
@ 246   ----------------------------------------
	.byte	W96
@ 247   ----------------------------------------
	.byte	W96
@ 248   ----------------------------------------
	.byte	W96
@ 249   ----------------------------------------
	.byte	W96
@ 250   ----------------------------------------
	.byte	W96
@ 251   ----------------------------------------
	.byte	W96
@ 252   ----------------------------------------
	.byte	W96
@ 253   ----------------------------------------
	.byte	W96
@ 254   ----------------------------------------
	.byte	W96
@ 255   ----------------------------------------
	.byte	W96
@ 256   ----------------------------------------
	.byte	W96
@ 257   ----------------------------------------
	.byte	W96
@ 258   ----------------------------------------
	.byte	W96
@ 259   ----------------------------------------
	.byte	W96
@ 260   ----------------------------------------
	.byte	W96
@ 261   ----------------------------------------
	.byte	W96
@ 262   ----------------------------------------
	.byte	W96
@ 263   ----------------------------------------
	.byte	W96
@ 264   ----------------------------------------
	.byte	W96
@ 265   ----------------------------------------
	.byte	W96
@ 266   ----------------------------------------
	.byte	W96
@ 267   ----------------------------------------
	.byte	W96
@ 268   ----------------------------------------
	.byte	W96
@ 269   ----------------------------------------
	.byte	PATT
	 .word	L_FE4_Arvis_1_161
@ 270   ----------------------------------------
	.byte	W96
@ 271   ----------------------------------------
	.byte	W96
@ 272   ----------------------------------------
	.byte	W96
@ 273   ----------------------------------------
	.byte	W96
@ 274   ----------------------------------------
	.byte	W96
@ 275   ----------------------------------------
	.byte	W96
@ 276   ----------------------------------------
	.byte	W96
@ 277   ----------------------------------------
	.byte	W96
@ 278   ----------------------------------------
	.byte	W96
@ 279   ----------------------------------------
	.byte	W96
@ 280   ----------------------------------------
	.byte	W96
@ 281   ----------------------------------------
	.byte	W96
@ 282   ----------------------------------------
	.byte	W96
@ 283   ----------------------------------------
	.byte	W96
@ 284   ----------------------------------------
	.byte	W96
@ 285   ----------------------------------------
	.byte	W96
@ 286   ----------------------------------------
	.byte	W96
@ 287   ----------------------------------------
	.byte	W96
@ 288   ----------------------------------------
	.byte	W96
@ 289   ----------------------------------------
	.byte	W96
@ 290   ----------------------------------------
	.byte	W96
@ 291   ----------------------------------------
	.byte	W96
@ 292   ----------------------------------------
	.byte	W96
@ 293   ----------------------------------------
	.byte	W96
@ 294   ----------------------------------------
	.byte	W96
@ 295   ----------------------------------------
	.byte	W96
@ 296   ----------------------------------------
	.byte	W92
	.byte	W01
	.byte	W03
@ 297   ----------------------------------------
	.byte	W96
@ 298   ----------------------------------------
	.byte	W96
@ 299   ----------------------------------------
	.byte	W96
@ 300   ----------------------------------------
	.byte	W96
@ 301   ----------------------------------------
	.byte	W96
@ 302   ----------------------------------------
	.byte	W96
@ 303   ----------------------------------------
	.byte	W96
@ 304   ----------------------------------------
	.byte	W96
@ 305   ----------------------------------------
	.byte	W96
@ 306   ----------------------------------------
	.byte	W96
@ 307   ----------------------------------------
	.byte	W96
@ 308   ----------------------------------------
	.byte	W96
@ 309   ----------------------------------------
	.byte	W96
@ 310   ----------------------------------------
	.byte	W96
@ 311   ----------------------------------------
	.byte	W96
@ 312   ----------------------------------------
	.byte	W96
@ 313   ----------------------------------------
	.byte	W96
@ 314   ----------------------------------------
	.byte	W96
@ 315   ----------------------------------------
	.byte	W96
@ 316   ----------------------------------------
	.byte	W96
@ 317   ----------------------------------------
	.byte	W96
@ 318   ----------------------------------------
	.byte	W96
@ 319   ----------------------------------------
	.byte	W96
@ 320   ----------------------------------------
	.byte	W96
@ 321   ----------------------------------------
	.byte	W96
@ 322   ----------------------------------------
	.byte	W96
@ 323   ----------------------------------------
	.byte	W92
	.byte	W01
	.byte	FINE

@**************** Track 2 (Midi-Chn.2) ****************@

L_FE4_Arvis_2:
	.byte	KEYSH , L_FE4_Arvis_key+0
@ 000   ----------------------------------------
	.byte		VOICE , 31
	.byte		PAN   , c_v-26
	.byte		VOL   , 51*L_FE4_Arvis_mvl/mxv
	.byte	W96
@ 001   ----------------------------------------
	.byte	W72
	.byte		N24   , Dn3 , v100
	.byte	W24
L_FE4_Arvis_2_B1:
@ 002   ----------------------------------------
	.byte	W96
@ 003   ----------------------------------------
	.byte	W96
@ 004   ----------------------------------------
	.byte	W96
@ 005   ----------------------------------------
	.byte	W96
@ 006   ----------------------------------------
	.byte	W96
@ 007   ----------------------------------------
	.byte	W96
@ 008   ----------------------------------------
	.byte	W96
@ 009   ----------------------------------------
	.byte	W96
@ 010   ----------------------------------------
	.byte	W96
@ 011   ----------------------------------------
	.byte	W96
@ 012   ----------------------------------------
	.byte	W96
@ 013   ----------------------------------------
	.byte	W96
@ 014   ----------------------------------------
	.byte	W96
@ 015   ----------------------------------------
	.byte	W96
@ 016   ----------------------------------------
	.byte	W96
@ 017   ----------------------------------------
	.byte	W96
@ 018   ----------------------------------------
	.byte	W96
@ 019   ----------------------------------------
	.byte	W96
@ 020   ----------------------------------------
	.byte	W96
@ 021   ----------------------------------------
	.byte	W96
@ 022   ----------------------------------------
	.byte	W96
@ 023   ----------------------------------------
	.byte	W96
@ 024   ----------------------------------------
	.byte	W96
@ 025   ----------------------------------------
	.byte	W72
	.byte		N36   , Dn3 , v100
	.byte	W24
	.byte	GOTO
	 .word	L_FE4_Arvis_2_B1
L_FE4_Arvis_2_B2:
@ 026   ----------------------------------------
	.byte	W12
	.byte	FINE

@**************** Track 3 (Midi-Chn.3) ****************@

L_FE4_Arvis_3:
	.byte	KEYSH , L_FE4_Arvis_key+0
@ 000   ----------------------------------------
	.byte		VOICE , 30
	.byte		PAN   , c_v+26
	.byte		VOL   , 51*L_FE4_Arvis_mvl/mxv
	.byte		N96   , Gn1 , v080
	.byte	W96
@ 001   ----------------------------------------
	.byte		N72   , Gs1 
	.byte	W96
L_FE4_Arvis_3_B1:
@ 002   ----------------------------------------
L_FE4_Arvis_3_002:
	.byte		N12   , Gn1 , v100
	.byte	W18
	.byte		N06   
	.byte	W18
	.byte		N12   
	.byte	W24
	.byte		N12   
	.byte	W24
	.byte		N12   
	.byte	W12
	.byte	PEND
@ 003   ----------------------------------------
L_FE4_Arvis_3_003:
	.byte		N12   , Gs1 , v100
	.byte	W18
	.byte		N06   
	.byte	W18
	.byte		N12   
	.byte	W24
	.byte		N12   
	.byte	W24
	.byte		N12   
	.byte	W12
	.byte	PEND
@ 004   ----------------------------------------
	.byte	PATT
	 .word	L_FE4_Arvis_3_002
@ 005   ----------------------------------------
	.byte	PATT
	 .word	L_FE4_Arvis_3_003
@ 006   ----------------------------------------
	.byte	PATT
	 .word	L_FE4_Arvis_3_002
@ 007   ----------------------------------------
	.byte	PATT
	 .word	L_FE4_Arvis_3_003
@ 008   ----------------------------------------
	.byte	PATT
	 .word	L_FE4_Arvis_3_002
@ 009   ----------------------------------------
	.byte		N12   , Gs1 , v100
	.byte	W18
	.byte		N06   
	.byte	W18
	.byte		N12   
	.byte	W24
	.byte		N12   
	.byte	W24
	.byte		N06   , Gn1 
	.byte	W06
	.byte		N06   
	.byte	W06
@ 010   ----------------------------------------
	.byte		TIE   
	.byte	W96
@ 011   ----------------------------------------
	.byte	W96
	.byte		EOT   
@ 012   ----------------------------------------
	.byte		N12   , Ds2 
	.byte	W36
	.byte		N12   
	.byte	W36
	.byte		N12   
	.byte	W24
@ 013   ----------------------------------------
	.byte	W12
	.byte		N12   
	.byte	W24
	.byte		N12   
	.byte	W36
	.byte		N12   
	.byte	W12
	.byte		        Dn2 
	.byte	W12
@ 014   ----------------------------------------
	.byte		        Cn2 
	.byte	W36
	.byte		N12   
	.byte	W36
	.byte		N12   
	.byte	W24
@ 015   ----------------------------------------
	.byte	W12
	.byte		N12   
	.byte	W24
	.byte		N12   
	.byte	W36
	.byte		N12   
	.byte	W23
	.byte		        Dn2 , v080
	.byte	W01
@ 016   ----------------------------------------
	.byte	W17
	.byte		N06   , An1 
	.byte	W06
	.byte		        Dn2 
	.byte	W12
	.byte		        An1 
	.byte	W12
	.byte		N01   , Dn2 
	.byte	W06
	.byte		N12   
	.byte	W18
	.byte		N06   
	.byte	W12
	.byte		N06   
	.byte	W12
	.byte		N01   
	.byte	W01
@ 017   ----------------------------------------
	.byte	W05
	.byte		N12   
	.byte	W18
	.byte		N06   
	.byte	W12
	.byte		N06   
	.byte	W12
	.byte		N01   
	.byte	W06
	.byte		N01   
	.byte	W06
	.byte		N06   
	.byte	W12
	.byte		N06   
	.byte	W12
	.byte		N12   , An1 
	.byte	W13
@ 018   ----------------------------------------
	.byte	W96
@ 019   ----------------------------------------
	.byte	W96
@ 020   ----------------------------------------
	.byte	W96
@ 021   ----------------------------------------
	.byte	W96
@ 022   ----------------------------------------
	.byte	W96
@ 023   ----------------------------------------
	.byte	W96
@ 024   ----------------------------------------
	.byte	W96
@ 025   ----------------------------------------
	.byte	W84
	.byte		N06   , Gn1 , v100
	.byte	W06
	.byte		N01   
	.byte	W06
	.byte	GOTO
	 .word	L_FE4_Arvis_3_B1
L_FE4_Arvis_3_B2:
@ 026   ----------------------------------------
	.byte	FINE

@**************** Track 4 (Midi-Chn.4) ****************@

L_FE4_Arvis_4:
	.byte	KEYSH , L_FE4_Arvis_key+0
@ 000   ----------------------------------------
	.byte		VOICE , 36
	.byte		PAN   , c_v-26
	.byte		VOL   , 51*L_FE4_Arvis_mvl/mxv
	.byte		N96   , Gn1 , v080
	.byte	W96
@ 001   ----------------------------------------
	.byte		N72   , Gs1 
	.byte	W96
L_FE4_Arvis_4_B1:
@ 002   ----------------------------------------
L_FE4_Arvis_4_002:
	.byte		N12   , Gn1 , v100
	.byte	W18
	.byte		N06   
	.byte	W06
	.byte		        Dn1 
	.byte	W12
	.byte		N12   , Gn1 
	.byte	W24
	.byte		N12   
	.byte	W12
	.byte		        Dn1 
	.byte	W12
	.byte		        Gn1 
	.byte	W12
	.byte	PEND
@ 003   ----------------------------------------
L_FE4_Arvis_4_003:
	.byte		N12   , Gs1 , v100
	.byte	W18
	.byte		N06   
	.byte	W06
	.byte		        Ds1 
	.byte	W12
	.byte		N12   , Gs1 
	.byte	W24
	.byte		N12   
	.byte	W12
	.byte		        Ds1 
	.byte	W12
	.byte		        Gs1 
	.byte	W12
	.byte	PEND
@ 004   ----------------------------------------
	.byte	PATT
	 .word	L_FE4_Arvis_4_002
@ 005   ----------------------------------------
	.byte	PATT
	 .word	L_FE4_Arvis_4_003
@ 006   ----------------------------------------
	.byte	PATT
	 .word	L_FE4_Arvis_4_002
@ 007   ----------------------------------------
	.byte	PATT
	 .word	L_FE4_Arvis_4_003
@ 008   ----------------------------------------
	.byte	PATT
	 .word	L_FE4_Arvis_4_002
@ 009   ----------------------------------------
	.byte	PATT
	 .word	L_FE4_Arvis_4_003
@ 010   ----------------------------------------
	.byte		N12   , Gn1 , v100
	.byte	W36
	.byte		N36   
	.byte	W36
	.byte		N01   
	.byte	W24
@ 011   ----------------------------------------
	.byte		N12   
	.byte	W36
	.byte		N12   
	.byte	W36
	.byte		        Ds1 
	.byte	W12
	.byte		        Gn1 
	.byte	W12
@ 012   ----------------------------------------
	.byte		        Ds1 
	.byte	W36
	.byte		N24   
	.byte	W36
	.byte		N12   
	.byte	W24
@ 013   ----------------------------------------
	.byte		N12   
	.byte	W36
	.byte		N24   
	.byte	W24
	.byte		N12   , Dn1 
	.byte	W12
	.byte		        Ds1 
	.byte	W12
	.byte		        Dn1 
	.byte	W12
@ 014   ----------------------------------------
L_FE4_Arvis_4_014:
	.byte		N12   , Cn1 , v100
	.byte	W36
	.byte		N24   
	.byte	W36
	.byte		N12   
	.byte	W24
	.byte	PEND
@ 015   ----------------------------------------
	.byte	PATT
	 .word	L_FE4_Arvis_4_014
@ 016   ----------------------------------------
L_FE4_Arvis_4_016:
	.byte		N12   , Dn1 , v100
	.byte	W36
	.byte		N24   
	.byte	W36
	.byte		N12   
	.byte	W24
	.byte	PEND
@ 017   ----------------------------------------
	.byte	PATT
	 .word	L_FE4_Arvis_4_016
@ 018   ----------------------------------------
	.byte	W96
@ 019   ----------------------------------------
	.byte	W96
@ 020   ----------------------------------------
	.byte	W96
@ 021   ----------------------------------------
	.byte	W96
@ 022   ----------------------------------------
	.byte	W96
@ 023   ----------------------------------------
	.byte	W96
@ 024   ----------------------------------------
	.byte	W96
@ 025   ----------------------------------------
	.byte	W96
	.byte	GOTO
	 .word	L_FE4_Arvis_4_B1
L_FE4_Arvis_4_B2:
@ 026   ----------------------------------------
	.byte	FINE

@**************** Track 5 (Midi-Chn.5) ****************@

L_FE4_Arvis_5:
	.byte	KEYSH , L_FE4_Arvis_key+0
@ 000   ----------------------------------------
	.byte		VOICE , 41
	.byte		PAN   , c_v-26
	.byte		VOL   , 51*L_FE4_Arvis_mvl/mxv
	.byte	W96
@ 001   ----------------------------------------
	.byte	W96
L_FE4_Arvis_5_B1:
@ 002   ----------------------------------------
	.byte	W24
	.byte		N12   , Gn3 , v100
	.byte	W24
	.byte		        Dn4 
	.byte	W24
	.byte		        As4 
	.byte	W24
@ 003   ----------------------------------------
	.byte		        Cn5 
	.byte	W24
	.byte		        Gs4 
	.byte	W24
	.byte		        Fn4 
	.byte	W24
	.byte		        Dn4 
	.byte	W24
@ 004   ----------------------------------------
	.byte		N12   
	.byte	W24
	.byte		        Gn3 
	.byte	W24
	.byte		        Dn4 
	.byte	W24
	.byte		        Gn3 
	.byte	W24
@ 005   ----------------------------------------
	.byte		        Dn4 
	.byte	W24
	.byte		        Gn3 
	.byte	W24
	.byte		        Dn4 
	.byte	W24
	.byte		        Dn5 
	.byte	W24
@ 006   ----------------------------------------
	.byte		        As4 
	.byte	W24
	.byte		        An4 
	.byte	W24
	.byte		        Gn4 
	.byte	W24
	.byte		        Fn4 
	.byte	W24
@ 007   ----------------------------------------
	.byte		        Ds4 
	.byte	W24
	.byte		        Dn4 
	.byte	W24
	.byte		        Cn4 
	.byte	W24
	.byte		        As3 
	.byte	W24
@ 008   ----------------------------------------
	.byte		        An3 
	.byte	W24
	.byte		N12   
	.byte	W24
	.byte		N12   
	.byte	W24
	.byte		N12   
	.byte	W24
@ 009   ----------------------------------------
	.byte		N12   
	.byte	W24
	.byte		N12   
	.byte	W24
	.byte		N12   
	.byte	W24
	.byte		        Dn4 
	.byte	W24
@ 010   ----------------------------------------
	.byte	W96
@ 011   ----------------------------------------
	.byte	W96
@ 012   ----------------------------------------
	.byte	W96
@ 013   ----------------------------------------
	.byte	W96
@ 014   ----------------------------------------
	.byte	W96
@ 015   ----------------------------------------
	.byte	W96
@ 016   ----------------------------------------
	.byte	W96
@ 017   ----------------------------------------
	.byte	W96
@ 018   ----------------------------------------
	.byte	W96
@ 019   ----------------------------------------
	.byte	W96
@ 020   ----------------------------------------
	.byte	W96
@ 021   ----------------------------------------
	.byte	W96
@ 022   ----------------------------------------
	.byte	W96
@ 023   ----------------------------------------
	.byte	W96
@ 024   ----------------------------------------
	.byte	W96
@ 025   ----------------------------------------
	.byte	W96
	.byte	GOTO
	 .word	L_FE4_Arvis_5_B1
L_FE4_Arvis_5_B2:
@ 026   ----------------------------------------
	.byte	FINE

@**************** Track 6 (Midi-Chn.6) ****************@

L_FE4_Arvis_6:
	.byte	KEYSH , L_FE4_Arvis_key+0
@ 000   ----------------------------------------
	.byte		VOICE , 41
	.byte		PAN   , c_v+26
	.byte		VOL   , 51*L_FE4_Arvis_mvl/mxv
	.byte	W96
@ 001   ----------------------------------------
	.byte	W96
L_FE4_Arvis_6_B1:
@ 002   ----------------------------------------
	.byte	W12
	.byte		N12   , Dn3 , v100
	.byte	W24
	.byte		        As3 
	.byte	W24
	.byte		        Gn4 
	.byte	W24
	.byte		        Dn5 
	.byte	W12
@ 003   ----------------------------------------
	.byte	W12
	.byte		        As4 
	.byte	W24
	.byte		        Gn4 
	.byte	W24
	.byte		        Ds4 
	.byte	W24
	.byte		        Cn4 
	.byte	W12
@ 004   ----------------------------------------
	.byte	W12
	.byte		        Gn4 
	.byte	W24
	.byte		        As3 
	.byte	W24
	.byte		        Gn4 
	.byte	W24
	.byte		        As3 
	.byte	W12
@ 005   ----------------------------------------
	.byte	W12
	.byte		        Gn4 
	.byte	W24
	.byte		        As3 
	.byte	W24
	.byte		        Gn4 
	.byte	W24
	.byte		        Cn5 
	.byte	W12
@ 006   ----------------------------------------
	.byte	W12
	.byte		N12   
	.byte	W24
	.byte		        As4 
	.byte	W24
	.byte		        An4 
	.byte	W24
	.byte		        Gn4 
	.byte	W12
@ 007   ----------------------------------------
	.byte	W12
	.byte		        Fn4 
	.byte	W24
	.byte		        Ds4 
	.byte	W24
	.byte		        Dn4 
	.byte	W24
	.byte		        Cn4 
	.byte	W12
@ 008   ----------------------------------------
	.byte	W12
	.byte		        Dn3 
	.byte	W24
	.byte		        Dn4 
	.byte	W24
	.byte		        Dn3 
	.byte	W24
	.byte		        Dn4 
	.byte	W12
@ 009   ----------------------------------------
	.byte	W12
	.byte		        Dn3 
	.byte	W24
	.byte		        Dn4 
	.byte	W24
	.byte		        Dn3 
	.byte	W24
	.byte		        An3 
	.byte	W12
@ 010   ----------------------------------------
	.byte	W96
@ 011   ----------------------------------------
	.byte	W96
@ 012   ----------------------------------------
	.byte	W96
@ 013   ----------------------------------------
	.byte	W96
@ 014   ----------------------------------------
	.byte	W96
@ 015   ----------------------------------------
	.byte	W96
@ 016   ----------------------------------------
	.byte	W96
@ 017   ----------------------------------------
	.byte	W96
@ 018   ----------------------------------------
	.byte	W96
@ 019   ----------------------------------------
	.byte	W96
@ 020   ----------------------------------------
	.byte	W96
@ 021   ----------------------------------------
	.byte	W96
@ 022   ----------------------------------------
	.byte	W96
@ 023   ----------------------------------------
	.byte	W96
@ 024   ----------------------------------------
	.byte	W96
@ 025   ----------------------------------------
	.byte	W96
	.byte	GOTO
	 .word	L_FE4_Arvis_6_B1
L_FE4_Arvis_6_B2:
@ 026   ----------------------------------------
	.byte	FINE

@**************** Track 7 (Midi-Chn.7) ****************@

L_FE4_Arvis_7:
	.byte	KEYSH , L_FE4_Arvis_key+0
@ 000   ----------------------------------------
	.byte		VOICE , 41
	.byte		VOL   , 45*L_FE4_Arvis_mvl/mxv
	.byte	W96
@ 001   ----------------------------------------
	.byte	W96
L_FE4_Arvis_7_B1:
@ 002   ----------------------------------------
	.byte	W24
	.byte		N12   , Dn3 , v056
	.byte	W12
	.byte		        Gn3 
	.byte	W12
	.byte		        As3 
	.byte	W12
	.byte		        Dn4 
	.byte	W12
	.byte		        Gn4 
	.byte	W12
	.byte		        As4 
	.byte	W12
@ 003   ----------------------------------------
	.byte		        Dn5 
	.byte	W12
	.byte		        Cn5 
	.byte	W12
	.byte		        As4 
	.byte	W12
	.byte		        Gs4 
	.byte	W12
	.byte		        Gn4 
	.byte	W12
	.byte		        Fn4 
	.byte	W12
	.byte		        Ds4 
	.byte	W12
	.byte		        Dn4 
	.byte	W12
@ 004   ----------------------------------------
	.byte		        Cn4 
	.byte	W12
	.byte		        Dn4 
	.byte	W12
	.byte		        Gn4 
	.byte	W12
	.byte		        Gn3 
	.byte	W12
	.byte		        As3 
	.byte	W12
	.byte		        Dn4 
	.byte	W12
	.byte		        Gn4 
	.byte	W12
	.byte		        Gn3 
	.byte	W12
@ 005   ----------------------------------------
	.byte		        As3 
	.byte	W12
	.byte		        Dn4 
	.byte	W12
	.byte		        Gn4 
	.byte	W12
	.byte		        Gn3 
	.byte	W12
	.byte		        As3 
	.byte	W12
	.byte		        Dn4 
	.byte	W12
	.byte		        Gn4 
	.byte	W12
	.byte		        Dn5 
	.byte	W12
@ 006   ----------------------------------------
	.byte		        Cn5 
	.byte	W12
	.byte		        As4 
	.byte	W12
	.byte		        Cn5 
	.byte	W12
	.byte		        An4 
	.byte	W12
	.byte		        As4 
	.byte	W12
	.byte		        Gn4 
	.byte	W12
	.byte		        An4 
	.byte	W12
	.byte		        Fn4 
	.byte	W12
@ 007   ----------------------------------------
	.byte		        Gn4 
	.byte	W12
	.byte		        Ds4 
	.byte	W12
	.byte		        Fn4 
	.byte	W12
	.byte		        Dn4 
	.byte	W12
	.byte		        Ds4 
	.byte	W12
	.byte		        Cn4 
	.byte	W12
	.byte		        Dn4 
	.byte	W12
	.byte		        As3 
	.byte	W12
@ 008   ----------------------------------------
	.byte		        Cn4 
	.byte	W12
	.byte		        An3 
	.byte	W12
	.byte		        Dn3 
	.byte	W12
	.byte		        An3 
	.byte	W12
	.byte		        Dn4 
	.byte	W12
	.byte		        An3 
	.byte	W12
	.byte		        Dn3 
	.byte	W12
	.byte		        An3 
	.byte	W12
@ 009   ----------------------------------------
	.byte		        Dn4 
	.byte	W12
	.byte		        An3 
	.byte	W12
	.byte		        Dn3 
	.byte	W12
	.byte		        An3 
	.byte	W12
	.byte		        Dn4 
	.byte	W12
	.byte		        An3 
	.byte	W12
	.byte		        Dn3 
	.byte	W12
	.byte		        Dn4 
	.byte	W12
@ 010   ----------------------------------------
	.byte		        An3 
	.byte	W96
@ 011   ----------------------------------------
	.byte	W96
@ 012   ----------------------------------------
	.byte	W96
@ 013   ----------------------------------------
	.byte	W96
@ 014   ----------------------------------------
	.byte	W96
@ 015   ----------------------------------------
	.byte	W96
@ 016   ----------------------------------------
	.byte	W96
@ 017   ----------------------------------------
	.byte	W96
@ 018   ----------------------------------------
	.byte	W48
	.byte		N48   , Dn2 , v080
	.byte	W48
@ 019   ----------------------------------------
	.byte		        Gn2 
	.byte	W48
	.byte		        Cn3 
	.byte	W48
@ 020   ----------------------------------------
	.byte		        Fn3 
	.byte	W48
	.byte		        As3 
	.byte	W48
@ 021   ----------------------------------------
	.byte		        Ds4 
	.byte	W48
	.byte		        As3 
	.byte	W48
@ 022   ----------------------------------------
	.byte		        Cn4 
	.byte	W48
	.byte		        Gn3 
	.byte	W48
@ 023   ----------------------------------------
	.byte		        Cn3 
	.byte	W48
	.byte		        Gn2 
	.byte	W48
@ 024   ----------------------------------------
	.byte		        Dn3 
	.byte	W48
	.byte		        Gn2 
	.byte	W48
@ 025   ----------------------------------------
	.byte		N96   , Dn2 
	.byte	W96
	.byte	GOTO
	 .word	L_FE4_Arvis_7_B1
L_FE4_Arvis_7_B2:
@ 026   ----------------------------------------
	.byte	FINE

@**************** Track 8 (Midi-Chn.8) ****************@

L_FE4_Arvis_8:
	.byte	KEYSH , L_FE4_Arvis_key+0
@ 000   ----------------------------------------
	.byte		VOICE , 1
	.byte		PAN   , c_v-26
	.byte		VOL   , 51*L_FE4_Arvis_mvl/mxv
	.byte	W96
@ 001   ----------------------------------------
	.byte	W96
L_FE4_Arvis_8_B1:
@ 002   ----------------------------------------
	.byte	W96
@ 003   ----------------------------------------
	.byte	W96
@ 004   ----------------------------------------
	.byte	W96
@ 005   ----------------------------------------
	.byte	W96
@ 006   ----------------------------------------
	.byte	W96
@ 007   ----------------------------------------
	.byte	W96
@ 008   ----------------------------------------
	.byte	W96
@ 009   ----------------------------------------
	.byte	W96
@ 010   ----------------------------------------
L_FE4_Arvis_8_010:
	.byte		N06   , Dn4 , v100
	.byte	W12
	.byte		        Dn4 , v056
	.byte	W12
	.byte		N06   
	.byte	W12
	.byte		        Dn4 , v100
	.byte	W12
	.byte		        Dn4 , v056
	.byte	W12
	.byte		N06   
	.byte	W12
	.byte		        Dn4 , v100
	.byte	W12
	.byte		        Dn4 , v056
	.byte	W12
	.byte	PEND
@ 011   ----------------------------------------
	.byte	PATT
	 .word	L_FE4_Arvis_8_010
@ 012   ----------------------------------------
L_FE4_Arvis_8_012:
	.byte		N06   , Fn4 , v100
	.byte	W12
	.byte		        Fn4 , v056
	.byte	W12
	.byte		N06   
	.byte	W12
	.byte		        Fn4 , v100
	.byte	W12
	.byte		        Fn4 , v056
	.byte	W12
	.byte		N06   
	.byte	W12
	.byte		        Fn4 , v100
	.byte	W12
	.byte		        Fn4 , v056
	.byte	W12
	.byte	PEND
@ 013   ----------------------------------------
	.byte	PATT
	 .word	L_FE4_Arvis_8_012
@ 014   ----------------------------------------
L_FE4_Arvis_8_014:
	.byte		N06   , Gn4 , v100
	.byte	W12
	.byte		        Gn4 , v056
	.byte	W12
	.byte		N06   
	.byte	W12
	.byte		        Gn4 , v100
	.byte	W12
	.byte		        Gn4 , v056
	.byte	W12
	.byte		N06   
	.byte	W12
	.byte		        Gn4 , v100
	.byte	W12
	.byte		        Gn4 , v056
	.byte	W12
	.byte	PEND
@ 015   ----------------------------------------
	.byte	PATT
	 .word	L_FE4_Arvis_8_014
@ 016   ----------------------------------------
L_FE4_Arvis_8_016:
	.byte		N06   , Dn5 , v100
	.byte	W12
	.byte		        Dn5 , v056
	.byte	W12
	.byte		N06   
	.byte	W12
	.byte		        Dn5 , v100
	.byte	W12
	.byte		        Dn5 , v056
	.byte	W12
	.byte		N06   
	.byte	W12
	.byte		        Dn5 , v100
	.byte	W12
	.byte		        Dn5 , v056
	.byte	W12
	.byte	PEND
@ 017   ----------------------------------------
	.byte	PATT
	 .word	L_FE4_Arvis_8_016
@ 018   ----------------------------------------
L_FE4_Arvis_8_018:
	.byte		N06   , Gn2 , v100
	.byte	W12
	.byte		        Gn2 , v056
	.byte	W12
	.byte		N06   
	.byte	W12
	.byte		        Gn2 , v100
	.byte	W12
	.byte		        Gn2 , v056
	.byte	W12
	.byte		N06   
	.byte	W12
	.byte		        Gn2 , v100
	.byte	W12
	.byte		        Gn2 , v056
	.byte	W12
	.byte	PEND
@ 019   ----------------------------------------
	.byte	PATT
	 .word	L_FE4_Arvis_8_018
@ 020   ----------------------------------------
L_FE4_Arvis_8_020:
	.byte		N06   , As2 , v100
	.byte	W12
	.byte		        As2 , v056
	.byte	W12
	.byte		N06   
	.byte	W12
	.byte		        As2 , v100
	.byte	W12
	.byte		        As2 , v056
	.byte	W12
	.byte		N06   
	.byte	W12
	.byte		        As2 , v100
	.byte	W12
	.byte		        As2 , v056
	.byte	W12
	.byte	PEND
@ 021   ----------------------------------------
	.byte	PATT
	 .word	L_FE4_Arvis_8_020
@ 022   ----------------------------------------
L_FE4_Arvis_8_022:
	.byte		N06   , Cn3 , v100
	.byte	W12
	.byte		        Cn3 , v056
	.byte	W12
	.byte		N06   
	.byte	W12
	.byte		        Cn3 , v100
	.byte	W12
	.byte		        Cn3 , v056
	.byte	W12
	.byte		N06   
	.byte	W12
	.byte		        Cn3 , v100
	.byte	W12
	.byte		        Cn3 , v056
	.byte	W12
	.byte	PEND
@ 023   ----------------------------------------
	.byte	PATT
	 .word	L_FE4_Arvis_8_022
@ 024   ----------------------------------------
L_FE4_Arvis_8_024:
	.byte		N06   , Gn3 , v100
	.byte	W12
	.byte		        Gn3 , v056
	.byte	W12
	.byte		N06   
	.byte	W12
	.byte		        Gn3 , v100
	.byte	W12
	.byte		        Gn3 , v056
	.byte	W12
	.byte		N06   
	.byte	W12
	.byte		        Gn3 , v100
	.byte	W12
	.byte		        Gn3 , v056
	.byte	W12
	.byte	PEND
@ 025   ----------------------------------------
	.byte	PATT
	 .word	L_FE4_Arvis_8_024
	.byte	GOTO
	 .word	L_FE4_Arvis_8_B1
L_FE4_Arvis_8_B2:
@ 026   ----------------------------------------
	.byte	FINE

@**************** Track 9 (Midi-Chn.9) ****************@

L_FE4_Arvis_9:
	.byte	KEYSH , L_FE4_Arvis_key+0
@ 000   ----------------------------------------
	.byte		VOICE , 0
	.byte		PAN   , c_v+26
	.byte		VOL   , 51*L_FE4_Arvis_mvl/mxv
	.byte	W96
@ 001   ----------------------------------------
	.byte	W48
	.byte		N06   , As4 , v100
	.byte	W06
	.byte		        An4 
	.byte	W06
	.byte		        Gn4 
	.byte	W06
	.byte		        Fn4 
	.byte	W06
	.byte		        Ds4 
	.byte	W06
	.byte		        Dn4 
	.byte	W06
	.byte		        Cn4 
	.byte	W06
	.byte		        An3 
	.byte	W06
L_FE4_Arvis_9_B1:
@ 002   ----------------------------------------
	.byte	W96
@ 003   ----------------------------------------
	.byte	W96
@ 004   ----------------------------------------
	.byte	W96
@ 005   ----------------------------------------
	.byte	W96
@ 006   ----------------------------------------
	.byte	W96
@ 007   ----------------------------------------
	.byte	W96
@ 008   ----------------------------------------
	.byte	W96
@ 009   ----------------------------------------
	.byte	W96
@ 010   ----------------------------------------
L_FE4_Arvis_9_010:
	.byte		N06   , Gn3 , v100
	.byte	W12
	.byte		        Gn3 , v056
	.byte	W12
	.byte		N06   
	.byte	W12
	.byte		        Gn3 , v100
	.byte	W12
	.byte		        Gn3 , v056
	.byte	W12
	.byte		N06   
	.byte	W12
	.byte		        Gn3 , v100
	.byte	W12
	.byte		        Gn3 , v056
	.byte	W12
	.byte	PEND
@ 011   ----------------------------------------
	.byte	PATT
	 .word	L_FE4_Arvis_9_010
@ 012   ----------------------------------------
L_FE4_Arvis_9_012:
	.byte		N06   , As3 , v100
	.byte	W12
	.byte		        As3 , v056
	.byte	W12
	.byte		N06   
	.byte	W12
	.byte		        As3 , v100
	.byte	W12
	.byte		        As3 , v056
	.byte	W12
	.byte		N06   
	.byte	W12
	.byte		        As3 , v100
	.byte	W12
	.byte		        As3 , v056
	.byte	W12
	.byte	PEND
@ 013   ----------------------------------------
	.byte	PATT
	 .word	L_FE4_Arvis_9_012
@ 014   ----------------------------------------
L_FE4_Arvis_9_014:
	.byte		N06   , Cn4 , v100
	.byte	W12
	.byte		        Cn4 , v056
	.byte	W12
	.byte		N06   
	.byte	W12
	.byte		        Cn4 , v100
	.byte	W12
	.byte		        Cn4 , v056
	.byte	W12
	.byte		N06   
	.byte	W12
	.byte		        Cn4 , v100
	.byte	W12
	.byte		        Cn4 , v056
	.byte	W12
	.byte	PEND
@ 015   ----------------------------------------
	.byte	PATT
	 .word	L_FE4_Arvis_9_014
@ 016   ----------------------------------------
L_FE4_Arvis_9_016:
	.byte		N06   , Gn4 , v100
	.byte	W12
	.byte		        Gn4 , v056
	.byte	W12
	.byte		N06   
	.byte	W12
	.byte		        Gn4 , v100
	.byte	W12
	.byte		        Gn4 , v056
	.byte	W12
	.byte		N06   
	.byte	W12
	.byte		        Gn4 , v100
	.byte	W12
	.byte		        Gn4 , v056
	.byte	W12
	.byte	PEND
@ 017   ----------------------------------------
	.byte	PATT
	 .word	L_FE4_Arvis_9_016
@ 018   ----------------------------------------
L_FE4_Arvis_9_018:
	.byte		N06   , Dn3 , v100
	.byte	W12
	.byte		        Dn3 , v056
	.byte	W12
	.byte		N06   
	.byte	W12
	.byte		        Dn3 , v100
	.byte	W12
	.byte		        Dn3 , v056
	.byte	W12
	.byte		N06   
	.byte	W12
	.byte		        Dn3 , v100
	.byte	W12
	.byte		        Dn3 , v056
	.byte	W12
	.byte	PEND
@ 019   ----------------------------------------
	.byte	PATT
	 .word	L_FE4_Arvis_9_018
@ 020   ----------------------------------------
L_FE4_Arvis_9_020:
	.byte		N06   , Fn3 , v100
	.byte	W12
	.byte		        Fn3 , v056
	.byte	W12
	.byte		N06   
	.byte	W12
	.byte		        Fn3 , v100
	.byte	W12
	.byte		        Fn3 , v056
	.byte	W12
	.byte		N06   
	.byte	W12
	.byte		        Fn3 , v100
	.byte	W12
	.byte		        Fn3 , v056
	.byte	W12
	.byte	PEND
@ 021   ----------------------------------------
	.byte	PATT
	 .word	L_FE4_Arvis_9_020
@ 022   ----------------------------------------
	.byte	PATT
	 .word	L_FE4_Arvis_9_010
@ 023   ----------------------------------------
	.byte	PATT
	 .word	L_FE4_Arvis_9_010
@ 024   ----------------------------------------
	.byte		N06   , Dn4 , v100
	.byte	W12
	.byte		        Dn4 , v056
	.byte	W12
	.byte		N06   
	.byte	W12
	.byte		        Dn4 , v100
	.byte	W12
	.byte		        Dn4 , v056
	.byte	W12
	.byte		N06   
	.byte	W12
	.byte		        Dn4 , v100
	.byte	W12
	.byte		        Dn4 , v056
	.byte	W12
@ 025   ----------------------------------------
	.byte		        Dn4 , v100
	.byte	W12
	.byte		        Dn4 , v056
	.byte	W12
	.byte		N06   
	.byte	W12
	.byte		        Dn4 , v100
	.byte	W12
	.byte		        Dn4 , v056
	.byte		N06   , As4 , v100
	.byte	W06
	.byte		        An4 
	.byte	W06
	.byte		        Dn4 , v056
	.byte		N06   , Gn4 , v100
	.byte	W06
	.byte		        Fn4 
	.byte	W06
	.byte		        Dn4 
	.byte		N06   , Ds4 
	.byte	W06
	.byte		        Dn4 
	.byte	W06
	.byte		        Cn4 
	.byte		N01   , Dn4 , v056
	.byte	W06
	.byte		N06   , An3 , v100
	.byte	W06
	.byte	GOTO
	 .word	L_FE4_Arvis_9_B1
L_FE4_Arvis_9_B2:
@ 026   ----------------------------------------
	.byte	FINE

@**************** Track 10 (Midi-Chn.11) ****************@

L_FE4_Arvis_10:
	.byte	KEYSH , L_FE4_Arvis_key+0
@ 000   ----------------------------------------
	.byte		VOICE , 63
	.byte		VOL   , 51*L_FE4_Arvis_mvl/mxv
	.byte	W96
@ 001   ----------------------------------------
	.byte	W96
L_FE4_Arvis_10_B1:
@ 002   ----------------------------------------
	.byte	W96
@ 003   ----------------------------------------
	.byte	W96
@ 004   ----------------------------------------
	.byte	W96
@ 005   ----------------------------------------
	.byte	W96
@ 006   ----------------------------------------
	.byte	W96
@ 007   ----------------------------------------
	.byte	W96
@ 008   ----------------------------------------
	.byte	W96
@ 009   ----------------------------------------
	.byte	W96
@ 010   ----------------------------------------
	.byte	W96
@ 011   ----------------------------------------
	.byte	W96
@ 012   ----------------------------------------
	.byte	W96
@ 013   ----------------------------------------
	.byte	W96
@ 014   ----------------------------------------
	.byte	W96
@ 015   ----------------------------------------
	.byte	W96
@ 016   ----------------------------------------
	.byte	W96
@ 017   ----------------------------------------
	.byte	W96
@ 018   ----------------------------------------
	.byte	W48
	.byte		N48   , Dn1 , v100
	.byte	W48
@ 019   ----------------------------------------
	.byte		        Gn1 
	.byte	W48
	.byte		        Cn2 
	.byte	W48
@ 020   ----------------------------------------
	.byte		        Fn2 
	.byte	W48
	.byte		        As2 
	.byte	W48
@ 021   ----------------------------------------
	.byte		        Ds3 
	.byte	W48
	.byte		        As2 
	.byte	W48
@ 022   ----------------------------------------
	.byte		        Cn3 
	.byte	W48
	.byte		        Gn2 
	.byte	W48
@ 023   ----------------------------------------
	.byte		        Cn2 
	.byte	W48
	.byte		        Gn1 
	.byte	W48
@ 024   ----------------------------------------
	.byte		        Dn2 
	.byte	W48
	.byte		        Gn1 
	.byte	W48
@ 025   ----------------------------------------
	.byte		N96   , Dn1 
	.byte	W96
	.byte	GOTO
	 .word	L_FE4_Arvis_10_B1
L_FE4_Arvis_10_B2:
@ 026   ----------------------------------------
	.byte	FINE

@**************** Track 11 (Midi-Chn.12) ****************@

L_FE4_Arvis_11:
	.byte	KEYSH , L_FE4_Arvis_key+0
@ 000   ----------------------------------------
	.byte		VOICE , 127
	.byte		VOL   , 51*L_FE4_Arvis_mvl/mxv
	.byte		N96   , Cs2 , v100
	.byte		N96   , Gn2 
	.byte		N96   , An2 , v072
	.byte	W36
	.byte		N12   , Cn1 , v100
	.byte	W24
	.byte		N12   
	.byte	W24
	.byte		N12   
	.byte	W12
@ 001   ----------------------------------------
	.byte		        Dn5 
	.byte	W18
	.byte		N06   , Cn1 
	.byte	W06
	.byte		N12   , Dn5 
	.byte	W12
	.byte		        Cn1 
	.byte	W12
	.byte		N06   , Dn5 
	.byte	W06
	.byte		N01   
	.byte	W12
	.byte		N06   , Cn1 
	.byte	W06
	.byte		        Dn5 
	.byte	W06
	.byte		N01   
	.byte	W06
	.byte		N01   
	.byte	W06
	.byte		N01   
	.byte	W05
	.byte		N18   , Fs1 , v080
	.byte	W01
L_FE4_Arvis_11_B1:
@ 002   ----------------------------------------
	.byte		N12   , Cn1 , v100
	.byte		N96   , Cs2 
	.byte		N96   , Gn2 
	.byte		N96   , An2 , v072
	.byte	W17
	.byte		N06   , Fs1 , v080
	.byte	W01
	.byte		        Cn1 , v100
	.byte	W05
	.byte		N01   , Fs1 , v080
	.byte	W01
	.byte		N12   , Dn5 , v100
	.byte	W11
	.byte		        Fs1 , v080
	.byte	W01
	.byte		        Cn1 , v100
	.byte	W11
	.byte		N06   , Fs1 , v080
	.byte	W06
	.byte		N01   
	.byte	W07
	.byte		N12   , Cn1 , v100
	.byte	W11
	.byte		        Fs1 , v080
	.byte	W01
	.byte		        Dn5 , v100
	.byte	W11
	.byte		        Fs1 , v080
	.byte	W01
	.byte		        Cn1 , v100
	.byte	W11
	.byte		N06   , Fs1 , v080
	.byte	W01
@ 003   ----------------------------------------
	.byte		N01   , Cn1 , v100
	.byte	W05
	.byte		        Fs1 , v080
	.byte	W13
	.byte		N06   , Cn1 , v100
	.byte	W05
	.byte		N12   , Fs1 , v080
	.byte	W01
	.byte		        Dn5 , v100
	.byte	W11
	.byte		        Fs1 , v080
	.byte	W01
	.byte		        Cn1 , v100
	.byte	W11
	.byte		N06   , Fs1 , v080
	.byte	W06
	.byte		N01   
	.byte	W01
	.byte		N06   , Cn1 , v100
	.byte	W05
	.byte		N01   , Fs1 , v080
	.byte	W01
	.byte		        Cn1 , v100
	.byte	W11
	.byte		N12   , Fs1 , v080
	.byte	W01
	.byte		N06   , Dn5 , v100
	.byte	W06
	.byte		N01   
	.byte	W05
	.byte		N12   , Fs1 , v080
	.byte	W01
	.byte		        Cn1 , v100
	.byte	W11
	.byte		N18   , Fs1 , v080
	.byte	W01
@ 004   ----------------------------------------
	.byte		N01   , Cn1 , v100
	.byte	W17
	.byte		N06   , Fs1 , v080
	.byte	W01
	.byte		        Cn1 , v100
	.byte	W05
	.byte		N01   , Fs1 , v080
	.byte	W01
	.byte		N12   , Dn5 , v100
	.byte	W11
	.byte		        Fs1 , v080
	.byte	W01
	.byte		        Cn1 , v100
	.byte	W11
	.byte		N06   , Fs1 , v080
	.byte	W06
	.byte		N01   
	.byte	W07
	.byte		N12   , Cn1 , v100
	.byte	W11
	.byte		        Fs1 , v080
	.byte	W01
	.byte		        Dn5 , v100
	.byte	W11
	.byte		        Fs1 , v080
	.byte	W01
	.byte		        Cn1 , v100
	.byte	W11
	.byte		N06   , Fs1 , v080
	.byte	W01
@ 005   ----------------------------------------
	.byte		N01   , Cn1 , v100
	.byte	W05
	.byte		        Fs1 , v080
	.byte	W13
	.byte		N06   , Cn1 , v100
	.byte	W05
	.byte		N12   , Fs1 , v080
	.byte	W01
	.byte		        Dn5 , v100
	.byte	W11
	.byte		        Fs1 , v080
	.byte	W01
	.byte		        Cn1 , v100
	.byte	W11
	.byte		N06   , Fs1 , v080
	.byte	W06
	.byte		N01   
	.byte	W01
	.byte		N06   , Dn5 , v100
	.byte	W05
	.byte		N01   , Fs1 , v080
	.byte	W01
	.byte		N12   , Cn1 , v100
	.byte	W11
	.byte		        Fs1 , v080
	.byte	W01
	.byte		        Dn5 , v100
	.byte	W11
	.byte		        Fs1 , v080
	.byte	W01
	.byte		        Cn1 , v100
	.byte	W11
	.byte		N18   , Fs1 , v080
	.byte	W01
@ 006   ----------------------------------------
	.byte		N01   , Cn1 , v100
	.byte		N96   , Cs2 
	.byte		N96   , Gn2 
	.byte		N96   , An2 , v072
	.byte	W17
	.byte		N06   , Fs1 , v080
	.byte	W01
	.byte		        Cn1 , v100
	.byte	W05
	.byte		N01   , Fs1 , v080
	.byte	W01
	.byte		N12   , Dn5 , v100
	.byte	W11
	.byte		        Fs1 , v080
	.byte	W01
	.byte		        Cn1 , v100
	.byte	W11
	.byte		N06   , Fs1 , v080
	.byte	W06
	.byte		N01   
	.byte	W07
	.byte		N12   , Cn1 , v100
	.byte	W11
	.byte		        Fs1 , v080
	.byte	W01
	.byte		        Dn5 , v100
	.byte	W11
	.byte		        Fs1 , v080
	.byte	W01
	.byte		        Cn1 , v100
	.byte	W11
	.byte		N06   , Fs1 , v080
	.byte	W01
@ 007   ----------------------------------------
	.byte		N01   , Cn1 , v100
	.byte	W05
	.byte		        Fs1 , v080
	.byte	W06
	.byte		N01   
	.byte	W07
	.byte		N06   , Cn1 , v100
	.byte	W06
	.byte		N12   , Dn5 
	.byte	W11
	.byte		N11   , Fs1 , v080
	.byte	W01
	.byte		N12   , Cn1 , v100
	.byte	W18
	.byte		N06   
	.byte	W05
	.byte		N12   , Fs1 , v080
	.byte	W01
	.byte		N01   , Cn1 , v100
	.byte	W11
	.byte		N12   , Fs1 , v080
	.byte	W01
	.byte		N06   , Dn5 , v100
	.byte	W06
	.byte		N01   
	.byte	W05
	.byte		N12   , Fs1 , v080
	.byte	W01
	.byte		        Cn1 , v100
	.byte	W11
	.byte		        Fs1 , v080
	.byte	W01
@ 008   ----------------------------------------
	.byte		N01   , Cn1 , v100
	.byte	W11
	.byte		N06   , Fs1 , v080
	.byte	W06
	.byte		N01   
	.byte	W01
	.byte		N06   , Cn1 , v100
	.byte	W05
	.byte		N01   , Fs1 , v080
	.byte	W01
	.byte		N12   , Dn5 , v100
	.byte	W11
	.byte		        Fs1 , v080
	.byte	W01
	.byte		        Cn1 , v100
	.byte	W11
	.byte		N06   , Fs1 , v080
	.byte	W06
	.byte		N01   
	.byte	W06
	.byte		N01   
	.byte	W01
	.byte		N12   , Cn1 , v100
	.byte	W11
	.byte		        Fs1 , v080
	.byte	W01
	.byte		        Dn5 , v100
	.byte	W11
	.byte		        Fs1 , v080
	.byte	W01
	.byte		        Cn1 , v100
	.byte	W11
	.byte		        Fs1 , v080
	.byte	W01
@ 009   ----------------------------------------
	.byte		N01   , Cn1 , v100
	.byte	W11
	.byte		N06   , Fs1 , v080
	.byte	W06
	.byte		N01   
	.byte	W01
	.byte		N06   , Cn1 , v100
	.byte	W05
	.byte		N01   , Fs1 , v080
	.byte	W01
	.byte		N12   , Dn5 , v100
	.byte	W11
	.byte		        Fs1 , v080
	.byte	W01
	.byte		        Cn1 , v100
	.byte	W11
	.byte		N06   , Fs1 , v080
	.byte	W06
	.byte		N01   
	.byte	W01
	.byte		N06   , Dn5 , v100
	.byte	W05
	.byte		N01   , Fs1 , v080
	.byte	W01
	.byte		N12   , Cn1 , v100
	.byte	W11
	.byte		N06   , Fs1 , v080
	.byte	W01
	.byte		        Dn5 , v100
	.byte	W05
	.byte		N01   , Fs1 , v080
	.byte	W01
	.byte		        Dn5 , v100
	.byte	W05
	.byte		        Fs1 , v080
	.byte	W01
	.byte		N06   , Cn1 , v100
	.byte	W06
	.byte		N01   
	.byte	W05
	.byte		N06   , Fs1 , v080
	.byte	W01
@ 010   ----------------------------------------
	.byte		N01   , Cn1 , v100
	.byte		N96   , Cs2 
	.byte		N96   , Gn2 
	.byte		N96   , An2 , v072
	.byte	W17
	.byte		N06   , Fn1 , v080
	.byte	W06
	.byte		N01   
	.byte	W12
	.byte		N12   
	.byte	W01
	.byte		        Cn1 , v100
	.byte	W11
	.byte		N06   , Fn1 , v080
	.byte	W06
	.byte		N01   
	.byte	W18
	.byte		N12   
	.byte	W01
	.byte		        Cn1 , v100
	.byte	W11
	.byte		        Fn1 , v080
	.byte	W12
	.byte		N06   
	.byte	W01
@ 011   ----------------------------------------
	.byte		N12   , Cn1 , v100
	.byte	W05
	.byte		N01   , Fn1 , v080
	.byte	W06
	.byte		N01   
	.byte	W12
	.byte		N12   
	.byte	W12
	.byte		N06   
	.byte	W01
	.byte		N12   , Cn1 , v100
	.byte	W05
	.byte		N01   , Fn1 , v080
	.byte	W06
	.byte		N01   
	.byte	W06
	.byte		N01   
	.byte	W06
	.byte		N01   
	.byte	W12
	.byte		N12   
	.byte	W01
	.byte		        Cn1 , v100
	.byte	W11
	.byte		        Fn1 , v080
	.byte	W12
	.byte		N06   
	.byte	W01
@ 012   ----------------------------------------
L_FE4_Arvis_11_012:
	.byte		N12   , Cn1 , v100
	.byte	W17
	.byte		N06   , Fn1 , v080
	.byte	W06
	.byte		N01   
	.byte	W12
	.byte		N12   
	.byte	W01
	.byte		        Cn1 , v100
	.byte	W11
	.byte		N06   , Fn1 , v080
	.byte	W06
	.byte		N01   
	.byte	W18
	.byte		N12   
	.byte	W01
	.byte		        Cn1 , v100
	.byte	W11
	.byte		        Fn1 , v080
	.byte	W12
	.byte		N06   
	.byte	W01
	.byte	PEND
@ 013   ----------------------------------------
	.byte	W05
	.byte		N01   
	.byte	W06
	.byte		N01   
	.byte	W01
	.byte		N12   , Cn1 , v100
	.byte	W11
	.byte		        Fn1 , v080
	.byte	W12
	.byte		N06   
	.byte	W01
	.byte		N12   , Cn1 , v100
	.byte	W05
	.byte		N01   , Fn1 , v080
	.byte	W06
	.byte		N01   
	.byte	W06
	.byte		N01   
	.byte	W06
	.byte		N01   
	.byte	W12
	.byte		N12   
	.byte	W01
	.byte		        Cn1 , v100
	.byte	W11
	.byte		        Fn1 , v080
	.byte	W12
	.byte		N06   
	.byte	W01
@ 014   ----------------------------------------
	.byte	PATT
	 .word	L_FE4_Arvis_11_012
@ 015   ----------------------------------------
	.byte		N12   , Cn1 , v100
	.byte	W05
	.byte		N01   , Fn1 , v080
	.byte	W06
	.byte		N01   
	.byte	W12
	.byte		N12   
	.byte	W12
	.byte		N06   
	.byte	W01
	.byte		N12   , Cn1 , v100
	.byte	W05
	.byte		N01   , Fn1 , v080
	.byte	W06
	.byte		N01   
	.byte	W06
	.byte		N01   
	.byte	W06
	.byte		N01   
	.byte	W12
	.byte		N12   
	.byte	W01
	.byte		        Cn1 , v100
	.byte	W11
	.byte		        Fn1 , v080
	.byte	W12
	.byte		N12   
	.byte	W01
@ 016   ----------------------------------------
	.byte		        Cn1 , v100
	.byte	W11
	.byte		N06   , Fn1 , v080
	.byte	W06
	.byte		N01   
	.byte	W06
	.byte		N01   
	.byte	W12
	.byte		N12   
	.byte	W01
	.byte		        Cn1 , v100
	.byte	W11
	.byte		N06   , Fn1 , v080
	.byte	W06
	.byte		N01   
	.byte	W06
	.byte		N01   
	.byte	W12
	.byte		N12   
	.byte	W01
	.byte		        Cn1 , v100
	.byte	W11
	.byte		        Fn1 , v080
	.byte	W12
	.byte		N12   
	.byte	W01
@ 017   ----------------------------------------
	.byte	W11
	.byte		N06   
	.byte	W01
	.byte		N12   , Cn1 , v100
	.byte	W05
	.byte		N01   , Fn1 , v080
	.byte	W06
	.byte		N01   
	.byte	W12
	.byte		N12   
	.byte	W01
	.byte		        Cn1 , v100
	.byte	W11
	.byte		N06   , Fn1 , v080
	.byte	W06
	.byte		N01   
	.byte	W06
	.byte		N01   
	.byte	W12
	.byte		N06   
	.byte	W01
	.byte		N12   , Cn1 , v100
	.byte	W05
	.byte		N01   , Fn1 , v080
	.byte	W07
	.byte		N06   
	.byte	W06
	.byte		N06   
	.byte	W06
@ 018   ----------------------------------------
	.byte		N96   , Cs2 , v100
	.byte		N96   , Gn2 
	.byte		N96   , An2 , v072
	.byte	W96
@ 019   ----------------------------------------
	.byte	W96
@ 020   ----------------------------------------
L_FE4_Arvis_11_020:
	.byte		N12   , Cn1 , v100
	.byte	W12
	.byte		N01   
	.byte	W84
	.byte	PEND
@ 021   ----------------------------------------
	.byte	W96
@ 022   ----------------------------------------
	.byte	PATT
	 .word	L_FE4_Arvis_11_020
@ 023   ----------------------------------------
	.byte	W96
@ 024   ----------------------------------------
	.byte		N12   , Cn1 , v100
	.byte	W12
	.byte		N01   
	.byte	W24
	.byte		N12   
	.byte	W24
	.byte		N12   
	.byte	W24
	.byte		N12   
	.byte	W12
@ 025   ----------------------------------------
	.byte		        Fs1 
	.byte		N12   , Dn5 
	.byte	W24
	.byte		        Fs1 
	.byte		N12   , Dn5 
	.byte	W24
	.byte		        Fs1 
	.byte		N06   , Dn5 
	.byte	W06
	.byte		N12   , Cn1 
	.byte	W12
	.byte		N06   
	.byte	W06
	.byte		N12   , Dn5 
	.byte	W06
	.byte		N06   , Fs1 
	.byte	W06
	.byte		N12   , Cn1 
	.byte	W12
	.byte	GOTO
	 .word	L_FE4_Arvis_11_B1
L_FE4_Arvis_11_B2:
@ 026   ----------------------------------------
	.byte	FINE

@**************** Track 12 (Midi-Chn.13) ****************@

L_FE4_Arvis_12:
	.byte	KEYSH , L_FE4_Arvis_key+0
@ 000   ----------------------------------------
	.byte		VOICE , 47
	.byte		VOL   , 51*L_FE4_Arvis_mvl/mxv
	.byte	W96
@ 001   ----------------------------------------
	.byte	W96
L_FE4_Arvis_12_B1:
@ 002   ----------------------------------------
	.byte	W96
@ 003   ----------------------------------------
	.byte	W96
@ 004   ----------------------------------------
	.byte	W96
@ 005   ----------------------------------------
	.byte	W96
@ 006   ----------------------------------------
	.byte	W96
@ 007   ----------------------------------------
	.byte	W96
@ 008   ----------------------------------------
	.byte	W96
@ 009   ----------------------------------------
	.byte	W96
@ 010   ----------------------------------------
	.byte	W96
@ 011   ----------------------------------------
	.byte	W96
@ 012   ----------------------------------------
	.byte	W96
@ 013   ----------------------------------------
	.byte	W96
@ 014   ----------------------------------------
	.byte	W96
@ 015   ----------------------------------------
	.byte	W96
@ 016   ----------------------------------------
	.byte	W96
@ 017   ----------------------------------------
	.byte	W96
@ 018   ----------------------------------------
	.byte		N72   , Bn0 , v100
	.byte	W96
@ 019   ----------------------------------------
	.byte	W96
@ 020   ----------------------------------------
	.byte	W96
@ 021   ----------------------------------------
	.byte	W96
@ 022   ----------------------------------------
	.byte	W96
@ 023   ----------------------------------------
	.byte	W96
@ 024   ----------------------------------------
	.byte	W96
@ 025   ----------------------------------------
	.byte	W96
	.byte	GOTO
	 .word	L_FE4_Arvis_12_B1
L_FE4_Arvis_12_B2:
@ 026   ----------------------------------------
	.byte	FINE

@******************************************************@
	.align	2

L_FE4_Arvis:
	.byte	12	@ NumTrks
	.byte	0	@ NumBlks
	.byte	L_FE4_Arvis_pri	@ Priority
	.byte	L_FE4_Arvis_rev	@ Reverb.

	.word	L_FE4_Arvis_grp

	.word	L_FE4_Arvis_1
	.word	L_FE4_Arvis_2
	.word	L_FE4_Arvis_3
	.word	L_FE4_Arvis_4
	.word	L_FE4_Arvis_5
	.word	L_FE4_Arvis_6
	.word	L_FE4_Arvis_7
	.word	L_FE4_Arvis_8
	.word	L_FE4_Arvis_9
	.word	L_FE4_Arvis_10
	.word	L_FE4_Arvis_11
	.word	L_FE4_Arvis_12

	.end
