	.include "MPlayDef.s"

	.equ	song17_grp, voicegroup000
	.equ	song17_pri, 0
	.equ	song17_rev, 0
	.equ	song17_mvl, 127
	.equ	song17_key, 0
	.equ	song17_tbs, 1
	.equ	song17_exg, 0
	.equ	song17_cmp, 1

	.section .rodata
	.global	song17
	.align	2


@**************** Track 1 (Midi-Chn.0) ****************@

song17_001:
@ 000   ----------------------------------------
 .byte   KEYSH , song17_key+0
 .byte   TEMPO , 72*song17_tbs/2
 .byte   VOICE , 48
 .byte   VOL , 18*song17_mvl/mxv
 .byte   TIE ,Dn5 ,v100
 .byte   W03
 .byte   VOL , 18*song17_mvl/mxv
 .byte   W04
 .byte   GnM1
 .byte   W05
 .byte   GsM1
 .byte   W03
 .byte   GsM1
 .byte   W04
 .byte   AnM1
 .byte   W05
 .byte   AsM1
 .byte   W03
 .byte   AsM1
 .byte   W05
 .byte   BnM1
 .byte   W04
 .byte   BnM1
 .byte   W03
 .byte   Cn0
 .byte   W05
 .byte   Cs0
 .byte   W04
 .byte   Cs0
 .byte   W05
 .byte   Dn0
 .byte   W03
 .byte   Ds0
 .byte   W04
 .byte   Ds0
 .byte   W05
 .byte   En0
 .byte   W03
 .byte   En0
 .byte   W05
 .byte   Fn0
 .byte   W04
 .byte   Fs0
 .byte   W03
 .byte   Fs0
 .byte   W05
 .byte   Gn0
 .byte   W04
 .byte   Gs0
 .byte   W04
 .byte   Gs0
 .byte   W03
@ 001   ----------------------------------------
 .byte   W01
 .byte   An0
 .byte   W04
 .byte   As0
 .byte   W04
 .byte   As0
 .byte   W04
 .byte   Bn0
 .byte   W04
 .byte   Bn0
 .byte   W04
 .byte   Cn1
 .byte   W04
 .byte   Cs1
 .byte   W05
 .byte   Cs1
 .byte   W03
 .byte   Dn1
 .byte   W04
 .byte   Ds1
 .byte   W05
 .byte   Ds1
 .byte   W03
 .byte   En1
 .byte   W05
 .byte   En1
 .byte   W04
 .byte   Fn1
 .byte   W03
 .byte   Fs1
 .byte   W05
 .byte   Fs1
 .byte   W04
 .byte   Gn1
 .byte   W05
 .byte   Gs1
 .byte   W03
 .byte   Gs1
 .byte   W04
 .byte   An1
 .byte   W05
 .byte   An1
 .byte   W03
 .byte   As1
 .byte   W05
 .byte   Bn1
 .byte   W04
 .byte   Bn1
 .byte   W01
@ 002   ----------------------------------------
 .byte   W02
 .byte   Cn2
 .byte   W05
 .byte   Cs2
 .byte   W04
 .byte   Cs2
 .byte   W03
 .byte   Dn2
 .byte   W05
 .byte   Ds2
 .byte   W04
 .byte   Ds2
 .byte   W04
 .byte   En2
 .byte   W04
 .byte   En2
 .byte   W04
 .byte   Fn2
 .byte   W04
 .byte   Fs2
 .byte   W04
 .byte   Fs2
 .byte   W05
 .byte   Gn2
 .byte   W03
 .byte   Gs2
 .byte   W04
 .byte   Gs2
 .byte   W05
 .byte   An2
 .byte   W03
 .byte   An2
 .byte   W05
 .byte   As2
 .byte   W04
 .byte   Bn2
 .byte   W03
 .byte   Bn2
 .byte   W05
 .byte   Cn3
 .byte   W04
 .byte   Cs3
 .byte   W05
 .byte   Cs3
 .byte   W03
 .byte   Dn3
 .byte   W04
@ 003   ----------------------------------------
 .byte   Dn3
 .byte   W96
@ 004   ----------------------------------------
 .byte   W96
@ 005   ----------------------------------------
 .byte   W96
@ 006   ----------------------------------------
 .byte   W96
@ 007   ----------------------------------------
 .byte   W96
@ 008   ----------------------------------------
 .byte   W48
 .byte   EOT
 .byte   W48
@ 009   ----------------------------------------
 .byte   W24
 .byte   N24 ,Cs3
 .byte   W24
 .byte   Bn2
 .byte   W24
 .byte   An2
 .byte   W24
@ 010   ----------------------------------------
 .byte   N48 ,Gn2
 .byte   W48
 .byte   An2
 .byte   W48
@ 011   ----------------------------------------
 .byte   N24 ,Dn3
 .byte   W24
 .byte   Gn3
 .byte   W24
 .byte   En3
 .byte   W24
 .byte   Cs3
 .byte   W24
@ 012   ----------------------------------------
 .byte   N48 ,En3
 .byte   W48
 .byte   Dn3
 .byte   W48
@ 013   ----------------------------------------
 .byte   N36 ,Dn5
 .byte   W36
 .byte   N06 ,Bn4
 .byte   W06
 .byte   Cs5
 .byte   W06
 .byte   N36 ,Dn5
 .byte   W36
 .byte   N12
 .byte   W12
@ 014   ----------------------------------------
 .byte   N24
 .byte   W24
 .byte   Cs5
 .byte   W24
 .byte   N48 ,Dn5
 .byte   W48
@ 015   ----------------------------------------
 .byte   N96 ,En5
 .byte   W96
@ 016   ----------------------------------------
 .byte   N48 ,Dn5
 .byte   W48
 .byte   Cs5
 .byte   W48
@ 017   ----------------------------------------
 .byte   N36 ,Bn4
 .byte   W36
 .byte   N06 ,Gn4
 .byte   W06
 .byte   An4
 .byte   W06
 .byte   N24 ,Bn4
 .byte   W24
 .byte   N12 ,Dn5
 .byte   W12
 .byte   Gn5
 .byte   W12
@ 018   ----------------------------------------
 .byte   N24 ,Fs5
 .byte   W24
 .byte   N12 ,Cs5
 .byte   W12
 .byte   En5
 .byte   W12
 .byte   N36 ,Dn5
 .byte   W36
 .byte   N06 ,Cs5
 .byte   W06
 .byte   Bn4
 .byte   W06
@ 019   ----------------------------------------
 .byte   N24 ,An4
 .byte   W24
 .byte   Gn4
 .byte   W24
 .byte   Bn4
 .byte   W24
 .byte   Dn5
 .byte   W24
@ 020   ----------------------------------------
 .byte   N48 ,Gn5
 .byte   W48
 .byte   N24 ,Fs5
 .byte   W24
 .byte   En5
 .byte   W24
@ 021   ----------------------------------------
Label_0_016E735C:
 .byte   TEMPO , 86*song17_tbs/2
 .byte   W96
@ 022   ----------------------------------------
 .byte   W96
@ 023   ----------------------------------------
 .byte   W96
@ 024   ----------------------------------------
 .byte   W96
@ 025   ----------------------------------------
 .byte   W96
@ 026   ----------------------------------------
 .byte   W96
@ 027   ----------------------------------------
 .byte   W96
@ 028   ----------------------------------------
 .byte   W96
@ 029   ----------------------------------------
 .byte   W96
@ 030   ----------------------------------------
 .byte   W96
@ 031   ----------------------------------------
 .byte   W96
@ 032   ----------------------------------------
 .byte   W96
@ 033   ----------------------------------------
Label_0_016E736A:
 .byte   N42 ,Bn4 ,v100
 .byte   W48
 .byte   Gn5
 .byte   W48
 .byte   PEND 
@ 034   ----------------------------------------
Label_0_016E7371:
 .byte   N18 ,Fs5 ,v100
 .byte   W24
 .byte   Cs5
 .byte   W24
 .byte   N48 ,Dn5
 .byte   W48
 .byte   PEND 
@ 035   ----------------------------------------
Label_0_016E737B:
 .byte   N42 ,En5 ,v100
 .byte   W48
 .byte   N18 ,Bn4
 .byte   W24
 .byte   N12 ,Cs5
 .byte   W12
 .byte   Dn5
 .byte   W12
 .byte   PEND 
@ 036   ----------------------------------------
Label_0_016E7388:
 .byte   N48 ,Dn5 ,v100
 .byte   W48
 .byte   N42 ,Cs5
 .byte   W48
 .byte   PEND 
@ 037   ----------------------------------------
 .byte   W96
@ 038   ----------------------------------------
 .byte   W96
@ 039   ----------------------------------------
 .byte   W96
@ 040   ----------------------------------------
 .byte   W96
@ 041   ----------------------------------------
 .byte   W96
@ 042   ----------------------------------------
 .byte   W96
@ 043   ----------------------------------------
 .byte   W96
@ 044   ----------------------------------------
 .byte   W96
@ 045   ----------------------------------------
 .byte   W96
@ 046   ----------------------------------------
 .byte   W96
@ 047   ----------------------------------------
 .byte   W96
@ 048   ----------------------------------------
 .byte   W96
@ 049   ----------------------------------------
 .byte   W96
@ 050   ----------------------------------------
 .byte   W96
@ 051   ----------------------------------------
 .byte   W96
@ 052   ----------------------------------------
 .byte   W96
 .byte   PATT
  .word Label_0_016E736A
 .byte   PATT
  .word Label_0_016E7371
 .byte   PATT
  .word Label_0_016E737B
 .byte   PATT
  .word Label_0_016E7388
@ 053   ----------------------------------------
 .byte   W96
@ 054   ----------------------------------------
 .byte   W96
@ 055   ----------------------------------------
 .byte   W96
@ 056   ----------------------------------------
 .byte   W96
@ 057   ----------------------------------------
 .byte   GOTO
  .word Label_0_016E735C
 .byte   FINE

@**************** Track 2 (Midi-Chn.1) ****************@

song17_002:
@ 000   ----------------------------------------
 .byte   KEYSH , song17_key+0
 .byte   VOICE , 48
 .byte   VOL , 62*song17_mvl/mxv
 .byte   W96
@ 001   ----------------------------------------
 .byte   W96
@ 002   ----------------------------------------
 .byte   W96
@ 003   ----------------------------------------
Label_1_016E73C9:
 .byte   N24 ,Dn4 ,v100
 .byte   W24
 .byte   En4
 .byte   W24
 .byte   Fs4
 .byte   W24
 .byte   An4
 .byte   W24
 .byte   PEND 
@ 004   ----------------------------------------
Label_1_016E73D4:
 .byte   N24 ,Gn4 ,v100
 .byte   W24
 .byte   En4
 .byte   W24
 .byte   N42 ,Fs4
 .byte   W48
 .byte   PEND 
 .byte   PATT
  .word Label_1_016E73C9
@ 005   ----------------------------------------
Label_1_016E73E3:
 .byte   N48 ,Bn4 ,v100
 .byte   W48
 .byte   N42 ,An4
 .byte   W48
 .byte   PEND 
 .byte   PATT
  .word Label_1_016E73C9
 .byte   PATT
  .word Label_1_016E73D4
 .byte   PATT
  .word Label_1_016E73C9
 .byte   PATT
  .word Label_1_016E73E3
@ 006   ----------------------------------------
 .byte   N48 ,Bn2 ,v100
 .byte   W48
 .byte   N24 ,Cs3
 .byte   W24
 .byte   N24
 .byte   W24
@ 007   ----------------------------------------
 .byte   W48
 .byte   N36 ,Fs2
 .byte   W48
@ 008   ----------------------------------------
 .byte   W48
 .byte   N48 ,Bn2
 .byte   W48
@ 009   ----------------------------------------
Label_1_016E7410:
 .byte   N36 ,As2 ,v100
 .byte   W48
 .byte   N48 ,Fs2
 .byte   W48
 .byte   PEND 
@ 010   ----------------------------------------
 .byte   Gn2
 .byte   W48
 .byte   Dn2
 .byte   W48
@ 011   ----------------------------------------
Label_1_016E741C:
 .byte   N48 ,Fs2 ,v100
 .byte   W48
 .byte   En2
 .byte   W48
 .byte   PEND 
@ 012   ----------------------------------------
 .byte   W48
 .byte   Bn2
 .byte   W48
 .byte   PATT
  .word Label_1_016E7410
@ 013   ----------------------------------------
 .byte   N48 ,Gn2 ,v100
 .byte   W48
 .byte   N24 ,Dn2
 .byte   W24
 .byte   En2
 .byte   W24
 .byte   PATT
  .word Label_1_016E741C
@ 014   ----------------------------------------
Label_1_016E7439:
 .byte   N48 ,Fs2 ,v100
 .byte   W48
 .byte   Gn2
 .byte   W48
 .byte   PEND 
@ 015   ----------------------------------------
Label_1_016E7440:
 .byte   N48 ,An2 ,v100
 .byte   W48
 .byte   Cs3
 .byte   W48
 .byte   PEND 
@ 016   ----------------------------------------
Label_1_016E7447:
 .byte   N48 ,Bn2 ,v100
 .byte   W48
 .byte   Gn2
 .byte   W48
 .byte   PEND 
@ 017   ----------------------------------------
 .byte   N84 ,An2
 .byte   W96
 .byte   PATT
  .word Label_1_016E7439
 .byte   PATT
  .word Label_1_016E7440
@ 018   ----------------------------------------
Label_1_016E745B:
 .byte   N60 ,Dn3 ,v100
 .byte   W72
 .byte   N24 ,Cs3
 .byte   W24
 .byte   PEND 
@ 019   ----------------------------------------
Label_1_016E7463:
 .byte   N12 ,Cs3 ,v100
 .byte   W12
 .byte   N60 ,An2
 .byte   W60
 .byte   N12
 .byte   W12
 .byte   Gn2
 .byte   W12
 .byte   PEND 
@ 020   ----------------------------------------
Label_1_016E746F:
 .byte   N48 ,Fs2 ,v100
 .byte   W48
 .byte   Bn2
 .byte   W48
 .byte   PEND 
@ 021   ----------------------------------------
Label_1_016E7476:
 .byte   N48 ,An2 ,v100
 .byte   W48
 .byte   N36 ,En2
 .byte   W48
 .byte   PEND 
@ 022   ----------------------------------------
 .byte   N96 ,Gn2
 .byte   W96
@ 023   ----------------------------------------
 .byte   Fs2
 .byte   W96
@ 024   ----------------------------------------
Label_1_016E7483:
 .byte   N42 ,Dn2 ,v100
 .byte   W48
 .byte   Bn2
 .byte   W48
 .byte   PEND 
@ 025   ----------------------------------------
Label_1_016E748A:
 .byte   N18 ,As2 ,v100
 .byte   W24
 .byte   Fs2
 .byte   W24
 .byte   N48
 .byte   W48
 .byte   PEND 
@ 026   ----------------------------------------
Label_1_016E7493:
 .byte   N42 ,Gn2 ,v100
 .byte   W48
 .byte   N18 ,Dn2
 .byte   W24
 .byte   N12 ,En2
 .byte   W12
 .byte   Fs2
 .byte   W12
 .byte   PEND 
@ 027   ----------------------------------------
Label_1_016E74A0:
 .byte   N48 ,Fs2 ,v100
 .byte   W48
 .byte   N42 ,En2
 .byte   W48
 .byte   PEND 
 .byte   PATT
  .word Label_1_016E7483
 .byte   PATT
  .word Label_1_016E7410
@ 028   ----------------------------------------
Label_1_016E74B2:
 .byte   N42 ,Gn2 ,v100
 .byte   W48
 .byte   N30
 .byte   W36
 .byte   N12
 .byte   W12
 .byte   PEND 
 .byte   PATT
  .word Label_1_016E74A0
 .byte   PATT
  .word Label_1_016E7439
 .byte   PATT
  .word Label_1_016E7440
 .byte   PATT
  .word Label_1_016E7447
@ 029   ----------------------------------------
 .byte   N84 ,An2 ,v100
 .byte   W96
 .byte   PATT
  .word Label_1_016E7439
 .byte   PATT
  .word Label_1_016E7440
 .byte   PATT
  .word Label_1_016E745B
 .byte   PATT
  .word Label_1_016E7463
 .byte   PATT
  .word Label_1_016E746F
 .byte   PATT
  .word Label_1_016E7476
@ 030   ----------------------------------------
 .byte   N96 ,Gn2 ,v100
 .byte   W96
@ 031   ----------------------------------------
 .byte   Fs2
 .byte   W96
 .byte   PATT
  .word Label_1_016E7483
 .byte   PATT
  .word Label_1_016E748A
 .byte   PATT
  .word Label_1_016E7493
 .byte   PATT
  .word Label_1_016E74A0
 .byte   PATT
  .word Label_1_016E7483
 .byte   PATT
  .word Label_1_016E7410
 .byte   PATT
  .word Label_1_016E74B2
 .byte   PATT
  .word Label_1_016E74A0
@ 032   ----------------------------------------
 .byte   GOTO
  .word Label_1_016E7439
 .byte   FINE

@**************** Track 3 (Midi-Chn.2) ****************@

song17_003:
@ 000   ----------------------------------------
 .byte   KEYSH , song17_key+0
 .byte   VOICE , 19
 .byte   VOL , 62*song17_mvl/mxv
 .byte   W96
@ 001   ----------------------------------------
 .byte   W96
@ 002   ----------------------------------------
 .byte   W96
@ 003   ----------------------------------------
Label_2_55B16D:
 .byte   N44 ,Fs2 ,v100
 .byte   W48
 .byte   An2
 .byte   W48
 .byte   PEND 
@ 004   ----------------------------------------
Label_2_55B174:
 .byte   N44 ,Bn2 ,v100
 .byte   W48
 .byte   An2
 .byte   W48
 .byte   PEND 
@ 005   ----------------------------------------
Label_2_55B17B:
 .byte   N44 ,Fs2 ,v100
 .byte   W48
 .byte   N44
 .byte   W48
 .byte   PEND 
@ 006   ----------------------------------------
Label_2_55B182:
 .byte   N44 ,Fs2 ,v100
 .byte   W48
 .byte   En2
 .byte   W48
 .byte   PEND 
 .byte   PATT
  .word Label_2_55B16D
 .byte   PATT
  .word Label_2_55B174
 .byte   PATT
  .word Label_2_55B17B
 .byte   PATT
  .word Label_2_55B182
@ 007   ----------------------------------------
 .byte   W96
@ 008   ----------------------------------------
 .byte   W96
@ 009   ----------------------------------------
 .byte   W96
@ 010   ----------------------------------------
 .byte   W96
@ 011   ----------------------------------------
 .byte   W96
@ 012   ----------------------------------------
 .byte   W96
@ 013   ----------------------------------------
 .byte   W96
@ 014   ----------------------------------------
 .byte   W96
@ 015   ----------------------------------------
 .byte   W96
@ 016   ----------------------------------------
 .byte   W84
 .byte   N12 ,Cs3 ,v100
 .byte   W12
@ 017   ----------------------------------------
Label_2_55B1AB:
 .byte   W96
@ 018   ----------------------------------------
 .byte   W96
@ 019   ----------------------------------------
 .byte   W96
@ 020   ----------------------------------------
 .byte   W96
@ 021   ----------------------------------------
 .byte   W96
@ 022   ----------------------------------------
 .byte   W96
@ 023   ----------------------------------------
 .byte   W96
@ 024   ----------------------------------------
 .byte   W96
@ 025   ----------------------------------------
 .byte   W96
@ 026   ----------------------------------------
 .byte   W96
@ 027   ----------------------------------------
 .byte   W96
@ 028   ----------------------------------------
 .byte   W96
@ 029   ----------------------------------------
 .byte   W96
@ 030   ----------------------------------------
 .byte   W96
@ 031   ----------------------------------------
 .byte   W96
@ 032   ----------------------------------------
 .byte   W96
@ 033   ----------------------------------------
 .byte   W96
@ 034   ----------------------------------------
 .byte   W96
@ 035   ----------------------------------------
 .byte   W96
@ 036   ----------------------------------------
 .byte   W96
@ 037   ----------------------------------------
 .byte   W96
@ 038   ----------------------------------------
 .byte   W96
@ 039   ----------------------------------------
 .byte   W96
@ 040   ----------------------------------------
 .byte   W96
@ 041   ----------------------------------------
 .byte   W96
@ 042   ----------------------------------------
 .byte   W96
@ 043   ----------------------------------------
 .byte   W96
@ 044   ----------------------------------------
 .byte   W96
@ 045   ----------------------------------------
 .byte   W96
@ 046   ----------------------------------------
 .byte   W96
@ 047   ----------------------------------------
 .byte   W96
@ 048   ----------------------------------------
 .byte   W96
@ 049   ----------------------------------------
 .byte   W96
@ 050   ----------------------------------------
 .byte   W96
@ 051   ----------------------------------------
 .byte   W96
@ 052   ----------------------------------------
 .byte   W96
@ 053   ----------------------------------------
 .byte   W96
@ 054   ----------------------------------------
 .byte   W96
@ 055   ----------------------------------------
 .byte   W96
@ 056   ----------------------------------------
 .byte   W96
@ 057   ----------------------------------------
 .byte   GOTO
  .word Label_2_55B1AB
 .byte   FINE

@**************** Track 4 (Midi-Chn.3) ****************@

song17_004:
@ 000   ----------------------------------------
 .byte   KEYSH , song17_key+0
 .byte   VOICE , 56
 .byte   VOL , 64*song17_mvl/mxv
 .byte   W96
@ 001   ----------------------------------------
 .byte   W96
@ 002   ----------------------------------------
 .byte   W96
@ 003   ----------------------------------------
 .byte   W96
@ 004   ----------------------------------------
 .byte   W96
@ 005   ----------------------------------------
 .byte   W96
@ 006   ----------------------------------------
 .byte   W96
@ 007   ----------------------------------------
 .byte   W96
@ 008   ----------------------------------------
 .byte   W96
@ 009   ----------------------------------------
 .byte   W96
@ 010   ----------------------------------------
 .byte   W24
 .byte   N12 ,Gn2 ,v100
 .byte   W12
 .byte   Dn3
 .byte   W12
 .byte   N24 ,Gn3
 .byte   W24
 .byte   N12 ,Bn3
 .byte   W12
 .byte   Dn4
 .byte   W12
@ 011   ----------------------------------------
 .byte   N24 ,An3
 .byte   W24
 .byte   N12 ,Gn3
 .byte   W12
 .byte   Fs3
 .byte   W12
 .byte   N24 ,En3
 .byte   W24
 .byte   N12 ,An2
 .byte   W12
 .byte   En3
 .byte   W12
@ 012   ----------------------------------------
 .byte   N30 ,Dn3
 .byte   W36
 .byte   N12 ,Cs3
 .byte   W12
 .byte   N42 ,Dn3
 .byte   W48
@ 013   ----------------------------------------
 .byte   W36
 .byte   N06 ,Gn2
 .byte   W06
 .byte   Bn2
 .byte   W06
 .byte   N18 ,Dn3
 .byte   W24
 .byte   Gn3
 .byte   W24
@ 014   ----------------------------------------
 .byte   N48 ,Fs3
 .byte   W48
 .byte   N42 ,Bn3
 .byte   W48
@ 015   ----------------------------------------
 .byte   N42
 .byte   W48
 .byte   N36 ,An3
 .byte   W36
 .byte   N12 ,Gn3
 .byte   W12
@ 016   ----------------------------------------
 .byte   N30 ,Fs3
 .byte   W36
 .byte   N06
 .byte   W06
 .byte   En3
 .byte   W06
 .byte   N36 ,Dn3
 .byte   W48
@ 017   ----------------------------------------
 .byte   N30
 .byte   W36
 .byte   N06 ,Gn2
 .byte   W06
 .byte   Bn2
 .byte   W06
 .byte   N18 ,Dn3
 .byte   W24
 .byte   Gn3
 .byte   W24
@ 018   ----------------------------------------
 .byte   Fs3
 .byte   W24
 .byte   Bn3
 .byte   W24
 .byte   N36 ,Dn4
 .byte   W48
@ 019   ----------------------------------------
 .byte   N42 ,En4
 .byte   W48
 .byte   N30 ,Dn4
 .byte   W36
 .byte   N06 ,Cs4
 .byte   W12
@ 020   ----------------------------------------
 .byte   N48 ,Dn4
 .byte   W48
 .byte   Cs4
 .byte   W48
@ 021   ----------------------------------------
Label_3_55B014:
 .byte   W96
@ 022   ----------------------------------------
 .byte   W96
@ 023   ----------------------------------------
 .byte   W96
@ 024   ----------------------------------------
Label_3_55B017:
 .byte   W36
 .byte   N06 ,Dn4 ,v100
 .byte   W06
 .byte   N06
 .byte   W06
 .byte   N48
 .byte   W48
 .byte   PEND 
@ 025   ----------------------------------------
 .byte   W96
@ 026   ----------------------------------------
 .byte   W96
@ 027   ----------------------------------------
 .byte   W96
@ 028   ----------------------------------------
Label_3_55B024:
 .byte   W48
 .byte   N24 ,Dn4 ,v100
 .byte   W24
 .byte   Cs4
 .byte   W24
 .byte   PEND 
@ 029   ----------------------------------------
 .byte   N60 ,Bn3
 .byte   W96
@ 030   ----------------------------------------
 .byte   W96
@ 031   ----------------------------------------
 .byte   W96
@ 032   ----------------------------------------
Label_3_55B031:
 .byte   N42 ,Dn4 ,v100
 .byte   W42
 .byte   N06
 .byte   W06
 .byte   N42
 .byte   W48
 .byte   PEND 
@ 033   ----------------------------------------
 .byte   W96
@ 034   ----------------------------------------
 .byte   W96
@ 035   ----------------------------------------
 .byte   W96
@ 036   ----------------------------------------
 .byte   W96
@ 037   ----------------------------------------
Label_3_55B03E:
 .byte   W24
 .byte   N18 ,Dn3 ,v100
 .byte   W24
 .byte   Gn3
 .byte   W24
 .byte   Bn3
 .byte   W24
 .byte   PEND 
@ 038   ----------------------------------------
Label_3_55B048:
 .byte   N48 ,Cs4 ,v100
 .byte   W48
 .byte   N18 ,Dn4
 .byte   W24
 .byte   N06 ,En4
 .byte   W12
 .byte   Fs4
 .byte   W12
 .byte   PEND 
@ 039   ----------------------------------------
Label_3_55B055:
 .byte   N90 ,Gn4 ,v100
 .byte   W90
 .byte   N06
 .byte   W06
 .byte   PEND 
@ 040   ----------------------------------------
Label_3_55B05C:
 .byte   N48 ,An4 ,v100
 .byte   W48
 .byte   N48
 .byte   W48
 .byte   PEND 
@ 041   ----------------------------------------
 .byte   W96
@ 042   ----------------------------------------
 .byte   W96
@ 043   ----------------------------------------
 .byte   W96
 .byte   PATT
  .word Label_3_55B017
@ 044   ----------------------------------------
 .byte   W96
@ 045   ----------------------------------------
 .byte   W96
@ 046   ----------------------------------------
 .byte   W96
 .byte   PATT
  .word Label_3_55B024
@ 047   ----------------------------------------
 .byte   N60 ,Bn3 ,v100
 .byte   W96
@ 048   ----------------------------------------
 .byte   W96
@ 049   ----------------------------------------
 .byte   W96
 .byte   PATT
  .word Label_3_55B031
@ 050   ----------------------------------------
 .byte   W96
@ 051   ----------------------------------------
 .byte   W96
@ 052   ----------------------------------------
 .byte   W96
@ 053   ----------------------------------------
 .byte   W96
 .byte   PATT
  .word Label_3_55B03E
 .byte   PATT
  .word Label_3_55B048
 .byte   PATT
  .word Label_3_55B055
 .byte   PATT
  .word Label_3_55B05C
@ 054   ----------------------------------------
 .byte   GOTO
  .word Label_3_55B014
 .byte   FINE

@**************** Track 5 (Midi-Chn.4) ****************@

song17_005:
@ 000   ----------------------------------------
 .byte   KEYSH , song17_key+0
 .byte   VOICE , 58
 .byte   VOL , 68*song17_mvl/mxv
 .byte   W96
@ 001   ----------------------------------------
 .byte   W96
@ 002   ----------------------------------------
 .byte   W96
@ 003   ----------------------------------------
 .byte   W96
@ 004   ----------------------------------------
 .byte   W96
@ 005   ----------------------------------------
 .byte   W96
@ 006   ----------------------------------------
 .byte   W96
@ 007   ----------------------------------------
 .byte   W96
@ 008   ----------------------------------------
 .byte   W96
@ 009   ----------------------------------------
 .byte   W96
@ 010   ----------------------------------------
 .byte   W96
@ 011   ----------------------------------------
 .byte   W96
@ 012   ----------------------------------------
 .byte   W96
@ 013   ----------------------------------------
 .byte   N96 ,Gn1 ,v100
 .byte   W96
@ 014   ----------------------------------------
 .byte   N48 ,Fs1
 .byte   W48
 .byte   Bn1
 .byte   W48
@ 015   ----------------------------------------
 .byte   N96 ,Gn1
 .byte   W96
@ 016   ----------------------------------------
 .byte   An1
 .byte   W96
@ 017   ----------------------------------------
 .byte   Gn1
 .byte   W96
@ 018   ----------------------------------------
Label_4_55B43F:
 .byte   N48 ,Fs1 ,v100
 .byte   W48
 .byte   N24 ,Bn1
 .byte   W24
 .byte   An1
 .byte   W24
 .byte   PEND 
@ 019   ----------------------------------------
 .byte   N96 ,Gn1
 .byte   W96
@ 020   ----------------------------------------
 .byte   N48 ,An1
 .byte   W48
 .byte   N36
 .byte   W36
 .byte   N12
 .byte   W12
@ 021   ----------------------------------------
Label_4_55B453:
 .byte   N12 ,Dn1 ,v100
 .byte   W36
 .byte   N06
 .byte   W12
 .byte   N12
 .byte   W36
 .byte   N06
 .byte   W12
 .byte   PEND 
 .byte   PATT
  .word Label_4_55B453
 .byte   PATT
  .word Label_4_55B453
 .byte   PATT
  .word Label_4_55B453
 .byte   PATT
  .word Label_4_55B453
 .byte   PATT
  .word Label_4_55B453
@ 022   ----------------------------------------
Label_4_55B477:
 .byte   N12 ,Gn0 ,v100
 .byte   W36
 .byte   N06
 .byte   W12
 .byte   N12
 .byte   W36
 .byte   N06
 .byte   W12
 .byte   PEND 
@ 023   ----------------------------------------
Label_4_55B482:
 .byte   N12 ,Dn1 ,v100
 .byte   W36
 .byte   N06
 .byte   W12
 .byte   N24
 .byte   W24
 .byte   Cs1
 .byte   W24
 .byte   PEND 
@ 024   ----------------------------------------
Label_4_55B48D:
 .byte   N24 ,Bn0 ,v100
 .byte   W36
 .byte   N12
 .byte   W12
 .byte   N24
 .byte   W36
 .byte   N12
 .byte   W12
 .byte   PEND 
@ 025   ----------------------------------------
Label_4_55B498:
 .byte   N24 ,An0 ,v100
 .byte   W36
 .byte   N12
 .byte   W12
 .byte   N36
 .byte   W48
 .byte   PEND 
@ 026   ----------------------------------------
Label_4_55B4A1:
 .byte   N24 ,An0 ,v100
 .byte   W36
 .byte   N12
 .byte   W12
 .byte   N24
 .byte   W36
 .byte   N12
 .byte   W12
 .byte   PEND 
@ 027   ----------------------------------------
Label_4_55B4AC:
 .byte   N24 ,Dn1 ,v100
 .byte   W36
 .byte   N12
 .byte   W12
 .byte   N24
 .byte   W36
 .byte   N12
 .byte   W12
 .byte   PEND 
@ 028   ----------------------------------------
Label_4_55B4B7:
 .byte   N42 ,Gn1 ,v100
 .byte   W48
 .byte   N42
 .byte   W48
 .byte   PEND 
 .byte   PATT
  .word Label_4_55B43F
@ 029   ----------------------------------------
 .byte   N84 ,Gn1 ,v100
 .byte   W96
@ 030   ----------------------------------------
 .byte   An1
 .byte   W96
@ 031   ----------------------------------------
 .byte   N96 ,Gn1
 .byte   W96
 .byte   PATT
  .word Label_4_55B43F
 .byte   PATT
  .word Label_4_55B4B7
@ 032   ----------------------------------------
Label_4_55B4D6:
 .byte   N24 ,An1 ,v100
 .byte   W36
 .byte   N12
 .byte   W12
 .byte   N12
 .byte   W24
 .byte   An0
 .byte   W24
 .byte   PEND 
 .byte   PATT
  .word Label_4_55B453
 .byte   PATT
  .word Label_4_55B453
 .byte   PATT
  .word Label_4_55B453
 .byte   PATT
  .word Label_4_55B453
 .byte   PATT
  .word Label_4_55B453
 .byte   PATT
  .word Label_4_55B453
 .byte   PATT
  .word Label_4_55B477
 .byte   PATT
  .word Label_4_55B482
 .byte   PATT
  .word Label_4_55B48D
 .byte   PATT
  .word Label_4_55B498
 .byte   PATT
  .word Label_4_55B4A1
 .byte   PATT
  .word Label_4_55B4AC
 .byte   PATT
  .word Label_4_55B4B7
 .byte   PATT
  .word Label_4_55B43F
@ 033   ----------------------------------------
 .byte   N84 ,Gn1 ,v100
 .byte   W96
@ 034   ----------------------------------------
 .byte   An1
 .byte   W96
@ 035   ----------------------------------------
 .byte   N96 ,Gn1
 .byte   W96
 .byte   PATT
  .word Label_4_55B43F
 .byte   PATT
  .word Label_4_55B4B7
 .byte   PATT
  .word Label_4_55B4D6
@ 036   ----------------------------------------
 .byte   GOTO
  .word Label_4_55B453
 .byte   FINE

@**************** Track 6 (Midi-Chn.5) ****************@

song17_006:
@ 000   ----------------------------------------
 .byte   KEYSH , song17_key+0
 .byte   VOICE , 19
 .byte   VOL , 62*song17_mvl/mxv
 .byte   W96
@ 001   ----------------------------------------
 .byte   W96
@ 002   ----------------------------------------
 .byte   W96
@ 003   ----------------------------------------
Label_5_016E6C21:
 .byte   N44 ,Dn2 ,v100
 .byte   W48
 .byte   Cs2
 .byte   W48
 .byte   PEND 
@ 004   ----------------------------------------
Label_5_016E6C28:
 .byte   N24 ,Bn1 ,v100
 .byte   W24
 .byte   Cs2
 .byte   W24
 .byte   N44 ,Dn2
 .byte   W48
 .byte   PEND 
@ 005   ----------------------------------------
Label_5_016E6C32:
 .byte   N44 ,Bn1 ,v100
 .byte   W48
 .byte   An1
 .byte   W48
 .byte   PEND 
@ 006   ----------------------------------------
Label_5_016E6C39:
 .byte   N44 ,Gn1 ,v100
 .byte   W48
 .byte   An1
 .byte   W48
 .byte   PEND 
 .byte   PATT
  .word Label_5_016E6C21
 .byte   PATT
  .word Label_5_016E6C28
 .byte   PATT
  .word Label_5_016E6C32
 .byte   PATT
  .word Label_5_016E6C39
@ 007   ----------------------------------------
 .byte   W96
@ 008   ----------------------------------------
 .byte   W96
@ 009   ----------------------------------------
 .byte   W96
@ 010   ----------------------------------------
 .byte   W96
@ 011   ----------------------------------------
 .byte   W96
@ 012   ----------------------------------------
 .byte   W96
@ 013   ----------------------------------------
 .byte   W96
@ 014   ----------------------------------------
 .byte   W96
@ 015   ----------------------------------------
 .byte   W96
@ 016   ----------------------------------------
 .byte   W96
@ 017   ----------------------------------------
Label_5_016E6C5E:
 .byte   W96
@ 018   ----------------------------------------
 .byte   W96
@ 019   ----------------------------------------
 .byte   W96
@ 020   ----------------------------------------
 .byte   W96
@ 021   ----------------------------------------
 .byte   W96
@ 022   ----------------------------------------
 .byte   W96
@ 023   ----------------------------------------
 .byte   W96
@ 024   ----------------------------------------
 .byte   W96
@ 025   ----------------------------------------
 .byte   W96
@ 026   ----------------------------------------
 .byte   W96
@ 027   ----------------------------------------
 .byte   W96
@ 028   ----------------------------------------
 .byte   W96
@ 029   ----------------------------------------
 .byte   W96
@ 030   ----------------------------------------
 .byte   W96
@ 031   ----------------------------------------
 .byte   W96
@ 032   ----------------------------------------
 .byte   W96
@ 033   ----------------------------------------
 .byte   W96
@ 034   ----------------------------------------
 .byte   W96
@ 035   ----------------------------------------
 .byte   W96
@ 036   ----------------------------------------
 .byte   W96
@ 037   ----------------------------------------
 .byte   W96
@ 038   ----------------------------------------
 .byte   W96
@ 039   ----------------------------------------
 .byte   W96
@ 040   ----------------------------------------
 .byte   W96
@ 041   ----------------------------------------
 .byte   W96
@ 042   ----------------------------------------
 .byte   W96
@ 043   ----------------------------------------
 .byte   W96
@ 044   ----------------------------------------
 .byte   W96
@ 045   ----------------------------------------
 .byte   W96
@ 046   ----------------------------------------
 .byte   W96
@ 047   ----------------------------------------
 .byte   W96
@ 048   ----------------------------------------
 .byte   W96
@ 049   ----------------------------------------
 .byte   W96
@ 050   ----------------------------------------
 .byte   W96
@ 051   ----------------------------------------
 .byte   W96
@ 052   ----------------------------------------
 .byte   W96
@ 053   ----------------------------------------
 .byte   W96
@ 054   ----------------------------------------
 .byte   W96
@ 055   ----------------------------------------
 .byte   W96
@ 056   ----------------------------------------
 .byte   W96
@ 057   ----------------------------------------
 .byte   GOTO
  .word Label_5_016E6C5E
 .byte   FINE

@**************** Track 7 (Midi-Chn.6) ****************@

song17_007:
@ 000   ----------------------------------------
 .byte   KEYSH , song17_key+0
 .byte   VOICE , 19
 .byte   VOL , 62*song17_mvl/mxv
 .byte   W96
@ 001   ----------------------------------------
 .byte   W96
@ 002   ----------------------------------------
 .byte   W96
@ 003   ----------------------------------------
Label_6_55A6A1:
 .byte   N44 ,Dn3 ,v100
 .byte   W48
 .byte   Fs3
 .byte   W48
 .byte   PEND 
@ 004   ----------------------------------------
Label_6_55A6A8:
 .byte   N44 ,Gn3 ,v100
 .byte   W48
 .byte   Fs3
 .byte   W48
 .byte   PEND 
@ 005   ----------------------------------------
 .byte   Dn3
 .byte   W48
 .byte   N44
 .byte   W48
@ 006   ----------------------------------------
 .byte   N44
 .byte   W48
 .byte   N24
 .byte   W24
 .byte   Cs3
 .byte   W24
 .byte   PATT
  .word Label_6_55A6A1
 .byte   PATT
  .word Label_6_55A6A8
@ 007   ----------------------------------------
 .byte   W96
@ 008   ----------------------------------------
 .byte   W96
@ 009   ----------------------------------------
 .byte   W96
@ 010   ----------------------------------------
 .byte   W96
@ 011   ----------------------------------------
 .byte   W96
@ 012   ----------------------------------------
 .byte   W96
@ 013   ----------------------------------------
 .byte   W96
@ 014   ----------------------------------------
 .byte   W96
@ 015   ----------------------------------------
 .byte   W96
@ 016   ----------------------------------------
 .byte   W96
@ 017   ----------------------------------------
 .byte   W96
@ 018   ----------------------------------------
 .byte   W96
@ 019   ----------------------------------------
Label_6_55A6CF:
 .byte   W96
@ 020   ----------------------------------------
 .byte   W96
@ 021   ----------------------------------------
 .byte   W96
@ 022   ----------------------------------------
 .byte   W96
@ 023   ----------------------------------------
 .byte   W96
@ 024   ----------------------------------------
 .byte   W96
@ 025   ----------------------------------------
 .byte   W96
@ 026   ----------------------------------------
 .byte   W96
@ 027   ----------------------------------------
 .byte   W96
@ 028   ----------------------------------------
 .byte   W96
@ 029   ----------------------------------------
 .byte   W96
@ 030   ----------------------------------------
 .byte   W96
@ 031   ----------------------------------------
 .byte   W96
@ 032   ----------------------------------------
 .byte   W96
@ 033   ----------------------------------------
 .byte   W96
@ 034   ----------------------------------------
 .byte   W96
@ 035   ----------------------------------------
 .byte   W96
@ 036   ----------------------------------------
 .byte   W96
@ 037   ----------------------------------------
 .byte   W96
@ 038   ----------------------------------------
 .byte   W96
@ 039   ----------------------------------------
 .byte   W96
@ 040   ----------------------------------------
 .byte   W96
@ 041   ----------------------------------------
 .byte   W96
@ 042   ----------------------------------------
 .byte   W96
@ 043   ----------------------------------------
 .byte   W96
@ 044   ----------------------------------------
 .byte   W96
@ 045   ----------------------------------------
 .byte   W96
@ 046   ----------------------------------------
 .byte   W96
@ 047   ----------------------------------------
 .byte   W96
@ 048   ----------------------------------------
 .byte   W96
@ 049   ----------------------------------------
 .byte   W96
@ 050   ----------------------------------------
 .byte   W96
@ 051   ----------------------------------------
 .byte   W96
@ 052   ----------------------------------------
 .byte   W96
@ 053   ----------------------------------------
 .byte   W96
@ 054   ----------------------------------------
 .byte   W96
@ 055   ----------------------------------------
 .byte   W96
@ 056   ----------------------------------------
 .byte   W96
@ 057   ----------------------------------------
 .byte   W96
@ 058   ----------------------------------------
 .byte   W96
@ 059   ----------------------------------------
 .byte   GOTO
  .word Label_6_55A6CF
 .byte   FINE

@**************** Track 8 (Midi-Chn.7) ****************@

song17_008:
@ 000   ----------------------------------------
 .byte   KEYSH , song17_key+0
 .byte   VOICE , 48
 .byte   VOL , 62*song17_mvl/mxv
 .byte   W96
@ 001   ----------------------------------------
 .byte   W96
@ 002   ----------------------------------------
 .byte   W96
@ 003   ----------------------------------------
 .byte   W96
@ 004   ----------------------------------------
 .byte   W96
@ 005   ----------------------------------------
 .byte   W96
@ 006   ----------------------------------------
 .byte   W96
@ 007   ----------------------------------------
 .byte   W96
@ 008   ----------------------------------------
 .byte   W96
@ 009   ----------------------------------------
 .byte   N48 ,Dn3 ,v100
 .byte   W48
 .byte   N48
 .byte   W48
@ 010   ----------------------------------------
 .byte   N48
 .byte   W48
 .byte   N24
 .byte   W24
 .byte   Cs3
 .byte   W24
@ 011   ----------------------------------------
 .byte   N48 ,Gn2
 .byte   W48
 .byte   N96 ,An2
 .byte   W48
@ 012   ----------------------------------------
 .byte   W48
 .byte   N36 ,Dn2
 .byte   W48
@ 013   ----------------------------------------
 .byte   N96
 .byte   W96
@ 014   ----------------------------------------
 .byte   W48
 .byte   N48 ,Bn1
 .byte   W48
@ 015   ----------------------------------------
 .byte   W96
@ 016   ----------------------------------------
 .byte   W96
@ 017   ----------------------------------------
 .byte   N72 ,Dn2
 .byte   W96
@ 018   ----------------------------------------
 .byte   W96
@ 019   ----------------------------------------
 .byte   W96
@ 020   ----------------------------------------
 .byte   W96
@ 021   ----------------------------------------
Label_7_016E6CBF:
 .byte   W96
@ 022   ----------------------------------------
 .byte   W96
@ 023   ----------------------------------------
 .byte   W96
@ 024   ----------------------------------------
 .byte   W96
@ 025   ----------------------------------------
 .byte   W96
@ 026   ----------------------------------------
 .byte   W96
@ 027   ----------------------------------------
 .byte   W96
@ 028   ----------------------------------------
 .byte   W96
@ 029   ----------------------------------------
 .byte   W96
@ 030   ----------------------------------------
 .byte   W96
@ 031   ----------------------------------------
 .byte   W96
@ 032   ----------------------------------------
 .byte   W96
@ 033   ----------------------------------------
Label_7_016E6CCB:
 .byte   N42 ,Gn2 ,v100
 .byte   W48
 .byte   Dn3
 .byte   W48
 .byte   PEND 
@ 034   ----------------------------------------
Label_7_016E6CD2:
 .byte   N18 ,Cs3 ,v100
 .byte   W24
 .byte   As2
 .byte   W24
 .byte   N48 ,Bn2
 .byte   W48
 .byte   PEND 
@ 035   ----------------------------------------
 .byte   W96
@ 036   ----------------------------------------
 .byte   W96
@ 037   ----------------------------------------
 .byte   W96
@ 038   ----------------------------------------
 .byte   W96
@ 039   ----------------------------------------
 .byte   W96
@ 040   ----------------------------------------
 .byte   W96
@ 041   ----------------------------------------
 .byte   W96
@ 042   ----------------------------------------
 .byte   W96
@ 043   ----------------------------------------
 .byte   W96
@ 044   ----------------------------------------
 .byte   W96
@ 045   ----------------------------------------
 .byte   W96
@ 046   ----------------------------------------
 .byte   W96
@ 047   ----------------------------------------
 .byte   W96
@ 048   ----------------------------------------
 .byte   W96
@ 049   ----------------------------------------
 .byte   W96
@ 050   ----------------------------------------
 .byte   W96
@ 051   ----------------------------------------
 .byte   W96
@ 052   ----------------------------------------
 .byte   W96
 .byte   PATT
  .word Label_7_016E6CCB
 .byte   PATT
  .word Label_7_016E6CD2
@ 053   ----------------------------------------
 .byte   W96
@ 054   ----------------------------------------
 .byte   W96
@ 055   ----------------------------------------
 .byte   W96
@ 056   ----------------------------------------
 .byte   W96
@ 057   ----------------------------------------
 .byte   W96
@ 058   ----------------------------------------
 .byte   W96
@ 059   ----------------------------------------
 .byte   GOTO
  .word Label_7_016E6CBF
 .byte   FINE

@**************** Track 9 (Midi-Chn.8) ****************@

song17_009:
@ 000   ----------------------------------------
 .byte   KEYSH , song17_key+0
 .byte   VOICE , 48
 .byte   VOL , 62*song17_mvl/mxv
 .byte   W96
@ 001   ----------------------------------------
 .byte   W96
@ 002   ----------------------------------------
 .byte   W96
@ 003   ----------------------------------------
 .byte   W96
@ 004   ----------------------------------------
 .byte   W96
@ 005   ----------------------------------------
 .byte   W96
@ 006   ----------------------------------------
 .byte   W96
@ 007   ----------------------------------------
Label_8_016E70FD:
 .byte   N24 ,Dn3 ,v100
 .byte   W24
 .byte   En3
 .byte   W24
 .byte   Fs3
 .byte   W24
 .byte   An3
 .byte   W24
 .byte   PEND 
@ 008   ----------------------------------------
 .byte   Gn3
 .byte   W24
 .byte   En3
 .byte   W24
 .byte   N42 ,Fs3
 .byte   W48
 .byte   PATT
  .word Label_8_016E70FD
@ 009   ----------------------------------------
 .byte   N48 ,Bn3 ,v100
 .byte   W48
 .byte   N42 ,An3
 .byte   W48
@ 010   ----------------------------------------
 .byte   W96
@ 011   ----------------------------------------
 .byte   W96
@ 012   ----------------------------------------
Label_8_016E711D:
 .byte   N48 ,Bn2 ,v100
 .byte   W48
 .byte   Gn3
 .byte   W48
 .byte   PEND 
@ 013   ----------------------------------------
 .byte   N24 ,Fs3
 .byte   W24
 .byte   Cs3
 .byte   W24
 .byte   En3
 .byte   W24
 .byte   Dn3
 .byte   W24
@ 014   ----------------------------------------
 .byte   N48 ,En3
 .byte   W48
 .byte   Bn2
 .byte   W48
@ 015   ----------------------------------------
Label_8_016E7132:
 .byte   N48 ,Dn3 ,v100
 .byte   W48
 .byte   Cs3
 .byte   W48
 .byte   PEND 
 .byte   PATT
  .word Label_8_016E711D
@ 016   ----------------------------------------
 .byte   N24 ,Fs3 ,v100
 .byte   W24
 .byte   Cs3
 .byte   W24
 .byte   N48 ,Dn3
 .byte   W48
@ 017   ----------------------------------------
 .byte   En3
 .byte   W48
 .byte   N24 ,Bn2
 .byte   W24
 .byte   Cs3
 .byte   W24
 .byte   PATT
  .word Label_8_016E7132
@ 018   ----------------------------------------
Label_8_016E7153:
 .byte   N48 ,Dn3 ,v100
 .byte   W48
 .byte   En3
 .byte   W48
 .byte   PEND 
@ 019   ----------------------------------------
Label_8_016E715A:
 .byte   N48 ,Fs3 ,v100
 .byte   W48
 .byte   An3
 .byte   W48
 .byte   PEND 
@ 020   ----------------------------------------
Label_8_016E7161:
 .byte   N48 ,Gn3 ,v100
 .byte   W48
 .byte   En3
 .byte   W48
 .byte   PEND 
@ 021   ----------------------------------------
 .byte   N84 ,Fs3
 .byte   W96
 .byte   PATT
  .word Label_8_016E7153
 .byte   PATT
  .word Label_8_016E715A
@ 022   ----------------------------------------
Label_8_016E7175:
 .byte   N60 ,Bn3 ,v100
 .byte   W72
 .byte   N24 ,An3
 .byte   W24
 .byte   PEND 
@ 023   ----------------------------------------
Label_8_016E717D:
 .byte   N12 ,An3 ,v100
 .byte   W12
 .byte   N60 ,Fs3
 .byte   W60
 .byte   N12
 .byte   W12
 .byte   En3
 .byte   W12
 .byte   PEND 
@ 024   ----------------------------------------
Label_8_016E7189:
 .byte   N48 ,Dn3 ,v100
 .byte   W48
 .byte   Gn3
 .byte   W48
 .byte   PEND 
@ 025   ----------------------------------------
Label_8_016E7190:
 .byte   N48 ,En3 ,v100
 .byte   W48
 .byte   N36 ,Cs3
 .byte   W48
 .byte   PEND 
@ 026   ----------------------------------------
 .byte   N96 ,En3
 .byte   W96
@ 027   ----------------------------------------
 .byte   Dn3
 .byte   W96
@ 028   ----------------------------------------
Label_8_016E719D:
 .byte   N42 ,Bn2 ,v100
 .byte   W48
 .byte   Gn3
 .byte   W48
 .byte   PEND 
@ 029   ----------------------------------------
Label_8_016E71A4:
 .byte   N18 ,Fs3 ,v100
 .byte   W24
 .byte   Cs3
 .byte   W24
 .byte   N48 ,Dn3
 .byte   W48
 .byte   PEND 
@ 030   ----------------------------------------
Label_8_016E71AE:
 .byte   N42 ,En3 ,v100
 .byte   W48
 .byte   N18 ,Bn2
 .byte   W24
 .byte   N12 ,Cs3
 .byte   W12
 .byte   Dn3
 .byte   W12
 .byte   PEND 
@ 031   ----------------------------------------
Label_8_016E71BB:
 .byte   N48 ,Dn3 ,v100
 .byte   W48
 .byte   N42 ,Cs3
 .byte   W48
 .byte   PEND 
 .byte   PATT
  .word Label_8_016E719D
 .byte   PATT
  .word Label_8_016E71A4
@ 032   ----------------------------------------
Label_8_016E71CD:
 .byte   N42 ,En3 ,v100
 .byte   W48
 .byte   N30 ,Bn2
 .byte   W36
 .byte   N12 ,Cs3
 .byte   W12
 .byte   PEND 
 .byte   PATT
  .word Label_8_016E71BB
 .byte   PATT
  .word Label_8_016E7153
 .byte   PATT
  .word Label_8_016E715A
 .byte   PATT
  .word Label_8_016E7161
@ 033   ----------------------------------------
 .byte   N84 ,Fs3 ,v100
 .byte   W96
 .byte   PATT
  .word Label_8_016E7153
 .byte   PATT
  .word Label_8_016E715A
 .byte   PATT
  .word Label_8_016E7175
 .byte   PATT
  .word Label_8_016E717D
 .byte   PATT
  .word Label_8_016E7189
 .byte   PATT
  .word Label_8_016E7190
@ 034   ----------------------------------------
 .byte   N96 ,En3 ,v100
 .byte   W96
@ 035   ----------------------------------------
 .byte   Dn3
 .byte   W96
 .byte   PATT
  .word Label_8_016E719D
 .byte   PATT
  .word Label_8_016E71A4
 .byte   PATT
  .word Label_8_016E71AE
 .byte   PATT
  .word Label_8_016E71BB
 .byte   PATT
  .word Label_8_016E719D
 .byte   PATT
  .word Label_8_016E71A4
 .byte   PATT
  .word Label_8_016E71CD
 .byte   PATT
  .word Label_8_016E71BB
@ 036   ----------------------------------------
 .byte   GOTO
  .word Label_8_016E7153
 .byte   FINE

@**************** Track 10 (Midi-Chn.9) ****************@

song17_010:
@ 000   ----------------------------------------
 .byte   KEYSH , song17_key+0
 .byte   VOICE , 0
 .byte   VOL , 52*song17_mvl/mxv
 .byte   W96
@ 001   ----------------------------------------
 .byte   W96
@ 002   ----------------------------------------
 .byte   W96
@ 003   ----------------------------------------
 .byte   W96
@ 004   ----------------------------------------
 .byte   W96
@ 005   ----------------------------------------
 .byte   W96
@ 006   ----------------------------------------
 .byte   W96
@ 007   ----------------------------------------
 .byte   W96
@ 008   ----------------------------------------
 .byte   W96
@ 009   ----------------------------------------
 .byte   W96
@ 010   ----------------------------------------
 .byte   W96
@ 011   ----------------------------------------
 .byte   W96
@ 012   ----------------------------------------
 .byte   W96
@ 013   ----------------------------------------
 .byte   W96
@ 014   ----------------------------------------
 .byte   W96
@ 015   ----------------------------------------
 .byte   W96
@ 016   ----------------------------------------
 .byte   W96
@ 017   ----------------------------------------
 .byte   W96
@ 018   ----------------------------------------
 .byte   W96
@ 019   ----------------------------------------
 .byte   W96
@ 020   ----------------------------------------
 .byte   W84
 .byte   N06 ,En1 ,v100
 .byte   W06
 .byte   N06
 .byte   W06
@ 021   ----------------------------------------
Label_9_016E6E39:
 .byte   N06 ,En1 ,v100
 .byte   W36
 .byte   N06
 .byte   W06
 .byte   N06
 .byte   W06
 .byte   N06
 .byte   W36
 .byte   N06
 .byte   W12
 .byte   PEND 
@ 022   ----------------------------------------
Label_9_016E6E46:
 .byte   N06 ,En1 ,v100
 .byte   W36
 .byte   N06
 .byte   W06
 .byte   N06
 .byte   W06
 .byte   N06
 .byte   W12
 .byte   N06
 .byte   W12
 .byte   N06
 .byte   W24
 .byte   PEND 
@ 023   ----------------------------------------
Label_9_016E6E55:
 .byte   N06 ,En1 ,v100
 .byte   W12
 .byte   N06
 .byte   W24
 .byte   N06
 .byte   W12
 .byte   N06
 .byte   W12
 .byte   N06
 .byte   W12
 .byte   N06
 .byte   W24
 .byte   PEND 
@ 024   ----------------------------------------
Label_9_016E6E64:
 .byte   N06 ,En1 ,v100
 .byte   W12
 .byte   N06
 .byte   W24
 .byte   N06
 .byte   W06
 .byte   N06
 .byte   W06
 .byte   N06
 .byte   W12
 .byte   N06
 .byte   W24
 .byte   N06
 .byte   W12
 .byte   PEND 
@ 025   ----------------------------------------
Label_9_016E6E75:
 .byte   N06 ,En1 ,v100
 .byte   W36
 .byte   N06
 .byte   W12
 .byte   N06
 .byte   W12
 .byte   N06
 .byte   W24
 .byte   N06
 .byte   W12
 .byte   PEND 
@ 026   ----------------------------------------
Label_9_016E6E82:
 .byte   N06 ,En1 ,v100
 .byte   W12
 .byte   N06
 .byte   W24
 .byte   N06
 .byte   W12
 .byte   N06
 .byte   W12
 .byte   N06
 .byte   W24
 .byte   N06
 .byte   W12
 .byte   PEND 
@ 027   ----------------------------------------
Label_9_016E6E91:
 .byte   N06 ,En1 ,v100
 .byte   W12
 .byte   N06
 .byte   W24
 .byte   N06
 .byte   W06
 .byte   N06
 .byte   W06
 .byte   N06
 .byte   W12
 .byte   N06
 .byte   W12
 .byte   N06
 .byte   W24
 .byte   PEND 
@ 028   ----------------------------------------
Label_9_016E6EA2:
 .byte   N06 ,En1 ,v100
 .byte   W12
 .byte   N06
 .byte   W24
 .byte   N06
 .byte   W12
 .byte   N06
 .byte   W18
 .byte   N06
 .byte   W18
 .byte   N06
 .byte   W12
 .byte   PEND 
 .byte   PATT
  .word Label_9_016E6E64
 .byte   PATT
  .word Label_9_016E6E91
 .byte   PATT
  .word Label_9_016E6E64
 .byte   PATT
  .word Label_9_016E6E82
@ 029   ----------------------------------------
 .byte   N06 ,En1 ,v100
 .byte   W96
@ 030   ----------------------------------------
 .byte   W96
@ 031   ----------------------------------------
 .byte   W96
@ 032   ----------------------------------------
Label_9_016E6ECB:
 .byte   N06 ,En1 ,v100
 .byte   W24
 .byte   En1 ,v080
 .byte   W24
 .byte   En1 ,v100
 .byte   W12
 .byte   N06
 .byte   W12
 .byte   N06
 .byte   W12
 .byte   N06
 .byte   W12
 .byte   PEND 
@ 033   ----------------------------------------
Label_9_016E6EDC:
 .byte   N06 ,En1 ,v100
 .byte   W12
 .byte   N06
 .byte   W06
 .byte   N06
 .byte   W06
 .byte   N06
 .byte   W12
 .byte   N06
 .byte   W06
 .byte   N06
 .byte   W06
 .byte   N06
 .byte   W12
 .byte   N06
 .byte   W06
 .byte   N06
 .byte   W06
 .byte   N06
 .byte   W12
 .byte   N06
 .byte   W06
 .byte   N06
 .byte   W06
 .byte   PEND 
 .byte   PATT
  .word Label_9_016E6EDC
 .byte   PATT
  .word Label_9_016E6EDC
@ 034   ----------------------------------------
Label_9_016E6F01:
 .byte   N06 ,En1 ,v100
 .byte   W12
 .byte   N06
 .byte   W06
 .byte   N06
 .byte   W06
 .byte   N06
 .byte   W12
 .byte   N06
 .byte   W06
 .byte   N06
 .byte   W06
 .byte   N06
 .byte   W48
 .byte   PEND 
 .byte   PATT
  .word Label_9_016E6E39
 .byte   PATT
  .word Label_9_016E6E46
 .byte   PATT
  .word Label_9_016E6E55
 .byte   PATT
  .word Label_9_016E6E64
 .byte   PATT
  .word Label_9_016E6E75
 .byte   PATT
  .word Label_9_016E6E82
 .byte   PATT
  .word Label_9_016E6E91
 .byte   PATT
  .word Label_9_016E6EA2
 .byte   PATT
  .word Label_9_016E6E64
 .byte   PATT
  .word Label_9_016E6E91
 .byte   PATT
  .word Label_9_016E6E64
 .byte   PATT
  .word Label_9_016E6E82
@ 035   ----------------------------------------
 .byte   N06 ,En1 ,v100
 .byte   W96
@ 036   ----------------------------------------
 .byte   W96
@ 037   ----------------------------------------
 .byte   W96
 .byte   PATT
  .word Label_9_016E6ECB
 .byte   PATT
  .word Label_9_016E6EDC
 .byte   PATT
  .word Label_9_016E6EDC
 .byte   PATT
  .word Label_9_016E6EDC
 .byte   PATT
  .word Label_9_016E6F01
@ 038   ----------------------------------------
 .byte   GOTO
  .word Label_9_016E6E39
 .byte   FINE

@**************** Track 11 (Midi-Chn.10) ****************@

song17_011:
@ 000   ----------------------------------------
 .byte   KEYSH , song17_key+0
 .byte   VOICE , 0
 .byte   VOL , 73*song17_mvl/mxv
 .byte   W96
@ 001   ----------------------------------------
 .byte   W96
@ 002   ----------------------------------------
 .byte   W96
@ 003   ----------------------------------------
 .byte   W96
@ 004   ----------------------------------------
 .byte   W96
@ 005   ----------------------------------------
 .byte   W96
@ 006   ----------------------------------------
 .byte   W96
@ 007   ----------------------------------------
Label_10_55B2D9:
 .byte   N06 ,An5 ,v100
 .byte   W12
 .byte   Dn5
 .byte   W12
 .byte   En5
 .byte   W12
 .byte   Dn5
 .byte   W12
 .byte   An5
 .byte   W12
 .byte   Dn5
 .byte   W12
 .byte   En5
 .byte   W12
 .byte   Dn5
 .byte   W12
 .byte   PEND 
 .byte   PATT
  .word Label_10_55B2D9
 .byte   PATT
  .word Label_10_55B2D9
 .byte   PATT
  .word Label_10_55B2D9
@ 008   ----------------------------------------
 .byte   W96
@ 009   ----------------------------------------
 .byte   W96
@ 010   ----------------------------------------
 .byte   W96
@ 011   ----------------------------------------
 .byte   W96
@ 012   ----------------------------------------
 .byte   W96
@ 013   ----------------------------------------
 .byte   W96
@ 014   ----------------------------------------
 .byte   W96
@ 015   ----------------------------------------
 .byte   W96
@ 016   ----------------------------------------
 .byte   W96
@ 017   ----------------------------------------
 .byte   W96
@ 018   ----------------------------------------
Label_10_55B305:
 .byte   W96
@ 019   ----------------------------------------
 .byte   W96
@ 020   ----------------------------------------
 .byte   W96
@ 021   ----------------------------------------
 .byte   W96
@ 022   ----------------------------------------
 .byte   W96
@ 023   ----------------------------------------
 .byte   W96
@ 024   ----------------------------------------
 .byte   W96
@ 025   ----------------------------------------
 .byte   W96
@ 026   ----------------------------------------
 .byte   W96
@ 027   ----------------------------------------
 .byte   W96
@ 028   ----------------------------------------
 .byte   W96
@ 029   ----------------------------------------
 .byte   W96
@ 030   ----------------------------------------
 .byte   W96
@ 031   ----------------------------------------
 .byte   W96
@ 032   ----------------------------------------
 .byte   W96
@ 033   ----------------------------------------
 .byte   W96
@ 034   ----------------------------------------
 .byte   W96
@ 035   ----------------------------------------
 .byte   W96
@ 036   ----------------------------------------
 .byte   W96
@ 037   ----------------------------------------
 .byte   W96
@ 038   ----------------------------------------
 .byte   W96
@ 039   ----------------------------------------
 .byte   W96
@ 040   ----------------------------------------
 .byte   W96
@ 041   ----------------------------------------
 .byte   W96
@ 042   ----------------------------------------
 .byte   W96
@ 043   ----------------------------------------
 .byte   W96
@ 044   ----------------------------------------
 .byte   W96
@ 045   ----------------------------------------
 .byte   W96
@ 046   ----------------------------------------
 .byte   W96
@ 047   ----------------------------------------
 .byte   W96
@ 048   ----------------------------------------
 .byte   W96
@ 049   ----------------------------------------
 .byte   W96
@ 050   ----------------------------------------
 .byte   W96
@ 051   ----------------------------------------
 .byte   W96
@ 052   ----------------------------------------
 .byte   W96
@ 053   ----------------------------------------
 .byte   W96
@ 054   ----------------------------------------
 .byte   W96
@ 055   ----------------------------------------
 .byte   W96
@ 056   ----------------------------------------
 .byte   W96
@ 057   ----------------------------------------
 .byte   W96
@ 058   ----------------------------------------
 .byte   GOTO
  .word Label_10_55B305
 .byte   FINE

@**************** Track 12 (Midi-Chn.11) ****************@

song17_012:
@ 000   ----------------------------------------
 .byte   KEYSH , song17_key+0
 .byte   VOICE , 48
 .byte   VOL , 62*song17_mvl/mxv
 .byte   W96
@ 001   ----------------------------------------
 .byte   W96
@ 002   ----------------------------------------
 .byte   W96
@ 003   ----------------------------------------
 .byte   W96
@ 004   ----------------------------------------
 .byte   W96
@ 005   ----------------------------------------
 .byte   W96
@ 006   ----------------------------------------
 .byte   W96
@ 007   ----------------------------------------
 .byte   W96
@ 008   ----------------------------------------
 .byte   W96
@ 009   ----------------------------------------
 .byte   W96
@ 010   ----------------------------------------
 .byte   W96
@ 011   ----------------------------------------
 .byte   W96
@ 012   ----------------------------------------
 .byte   W96
@ 013   ----------------------------------------
 .byte   N36 ,Dn4 ,v100
 .byte   W36
 .byte   N06 ,Bn3
 .byte   W06
 .byte   Cs4
 .byte   W06
 .byte   N36 ,Dn4
 .byte   W36
 .byte   N12
 .byte   W12
@ 014   ----------------------------------------
 .byte   N24
 .byte   W24
 .byte   Cs4
 .byte   W24
 .byte   N48 ,Dn4
 .byte   W48
@ 015   ----------------------------------------
 .byte   N96 ,En4
 .byte   W96
@ 016   ----------------------------------------
 .byte   N48 ,Dn4
 .byte   W48
 .byte   Cs4
 .byte   W48
@ 017   ----------------------------------------
 .byte   N36 ,Bn3
 .byte   W36
 .byte   N06 ,Gn3
 .byte   W06
 .byte   An3
 .byte   W06
 .byte   N24 ,Bn3
 .byte   W24
 .byte   N12 ,Dn4
 .byte   W12
 .byte   Gn4
 .byte   W12
@ 018   ----------------------------------------
 .byte   N24 ,Fs4
 .byte   W24
 .byte   N12 ,Cs4
 .byte   W12
 .byte   En4
 .byte   W12
 .byte   N36 ,Dn4
 .byte   W36
 .byte   N06 ,Cs4
 .byte   W06
 .byte   Bn3
 .byte   W06
@ 019   ----------------------------------------
 .byte   N24 ,An3
 .byte   W24
 .byte   Gn3
 .byte   W24
 .byte   Bn3
 .byte   W24
 .byte   Dn4
 .byte   W24
@ 020   ----------------------------------------
 .byte   N48 ,Gn4
 .byte   W48
 .byte   N24 ,Fs4
 .byte   W24
 .byte   En4
 .byte   W24
@ 021   ----------------------------------------
Label_11_55B615:
 .byte   N48 ,Dn4 ,v100
 .byte   W48
 .byte   N24 ,En4
 .byte   W24
 .byte   N12 ,An3
 .byte   W12
 .byte   En4
 .byte   W12
 .byte   PEND 
@ 022   ----------------------------------------
Label_11_55B622:
 .byte   N36 ,Fs4 ,v100
 .byte   W36
 .byte   N06 ,En4
 .byte   W06
 .byte   Fs4
 .byte   W06
 .byte   N24 ,Gn4
 .byte   W24
 .byte   En4
 .byte   W24
 .byte   PEND 
@ 023   ----------------------------------------
Label_11_55B631:
 .byte   N48 ,Dn4 ,v100
 .byte   W48
 .byte   En4
 .byte   W48
 .byte   PEND 
@ 024   ----------------------------------------
 .byte   N84 ,Fs4
 .byte   W96
@ 025   ----------------------------------------
Label_11_55B63B:
 .byte   N48 ,Dn4 ,v072
 .byte   W48
 .byte   En4
 .byte   W48
 .byte   PEND 
@ 026   ----------------------------------------
Label_11_55B642:
 .byte   N48 ,Fs4 ,v072
 .byte   W48
 .byte   An4
 .byte   W48
 .byte   PEND 
@ 027   ----------------------------------------
Label_11_55B649:
 .byte   N60 ,Bn4 ,v072
 .byte   W72
 .byte   N24 ,An4
 .byte   W24
 .byte   PEND 
@ 028   ----------------------------------------
Label_11_55B651:
 .byte   N12 ,An4 ,v072
 .byte   W12
 .byte   N60 ,Fs4
 .byte   W60
 .byte   N12
 .byte   W12
 .byte   En4
 .byte   W12
 .byte   PEND 
@ 029   ----------------------------------------
Label_11_55B65D:
 .byte   N48 ,Dn4 ,v072
 .byte   W48
 .byte   Gn4
 .byte   W48
 .byte   PEND 
@ 030   ----------------------------------------
Label_11_55B664:
 .byte   N48 ,En4 ,v072
 .byte   W48
 .byte   N36 ,Cs4
 .byte   W48
 .byte   PEND 
@ 031   ----------------------------------------
 .byte   N96 ,En4
 .byte   W96
@ 032   ----------------------------------------
 .byte   Dn4
 .byte   W96
@ 033   ----------------------------------------
Label_11_55B671:
 .byte   N42 ,Bn3 ,v072
 .byte   W48
 .byte   Gn4
 .byte   W48
 .byte   PEND 
@ 034   ----------------------------------------
Label_11_55B678:
 .byte   N18 ,Fs4 ,v072
 .byte   W24
 .byte   Cs4
 .byte   W24
 .byte   N48 ,Dn4
 .byte   W48
 .byte   PEND 
@ 035   ----------------------------------------
Label_11_55B682:
 .byte   N42 ,En4 ,v072
 .byte   W48
 .byte   N18 ,Bn3
 .byte   W24
 .byte   N12 ,Cs4
 .byte   W12
 .byte   Dn4
 .byte   W12
 .byte   PEND 
@ 036   ----------------------------------------
Label_11_55B68F:
 .byte   N48 ,Dn4 ,v072
 .byte   W48
 .byte   N42 ,Cs4
 .byte   W48
 .byte   PEND 
 .byte   PATT
  .word Label_11_55B671
 .byte   PATT
  .word Label_11_55B678
@ 037   ----------------------------------------
Label_11_55B6A1:
 .byte   N42 ,En4 ,v072
 .byte   W48
 .byte   N30 ,Bn3
 .byte   W36
 .byte   N12 ,Cs4
 .byte   W12
 .byte   PEND 
 .byte   PATT
  .word Label_11_55B68F
 .byte   PATT
  .word Label_11_55B615
 .byte   PATT
  .word Label_11_55B622
 .byte   PATT
  .word Label_11_55B631
@ 038   ----------------------------------------
 .byte   N84 ,Fs4 ,v100
 .byte   W96
 .byte   PATT
  .word Label_11_55B63B
 .byte   PATT
  .word Label_11_55B642
 .byte   PATT
  .word Label_11_55B649
 .byte   PATT
  .word Label_11_55B651
 .byte   PATT
  .word Label_11_55B65D
 .byte   PATT
  .word Label_11_55B664
@ 039   ----------------------------------------
 .byte   N96 ,En4 ,v072
 .byte   W96
@ 040   ----------------------------------------
 .byte   Dn4
 .byte   W96
 .byte   PATT
  .word Label_11_55B671
 .byte   PATT
  .word Label_11_55B678
 .byte   PATT
  .word Label_11_55B682
 .byte   PATT
  .word Label_11_55B68F
 .byte   PATT
  .word Label_11_55B671
 .byte   PATT
  .word Label_11_55B678
 .byte   PATT
  .word Label_11_55B6A1
 .byte   PATT
  .word Label_11_55B68F
@ 041   ----------------------------------------
 .byte   GOTO
  .word Label_11_55B615
 .byte   FINE

@**************** Track 13 (Midi-Chn.12) ****************@

song17_013:
@ 000   ----------------------------------------
 .byte   KEYSH , song17_key+0
 .byte   VOICE , 57
 .byte   VOL , 75*song17_mvl/mxv
 .byte   W96
@ 001   ----------------------------------------
 .byte   W96
@ 002   ----------------------------------------
 .byte   W96
@ 003   ----------------------------------------
 .byte   W96
@ 004   ----------------------------------------
 .byte   W96
@ 005   ----------------------------------------
 .byte   W96
@ 006   ----------------------------------------
 .byte   W96
@ 007   ----------------------------------------
 .byte   W96
@ 008   ----------------------------------------
 .byte   W96
@ 009   ----------------------------------------
 .byte   W96
@ 010   ----------------------------------------
 .byte   W96
@ 011   ----------------------------------------
 .byte   W96
@ 012   ----------------------------------------
 .byte   W96
@ 013   ----------------------------------------
 .byte   W96
@ 014   ----------------------------------------
 .byte   W96
@ 015   ----------------------------------------
 .byte   W96
@ 016   ----------------------------------------
 .byte   W96
@ 017   ----------------------------------------
 .byte   W96
@ 018   ----------------------------------------
 .byte   W96
@ 019   ----------------------------------------
 .byte   W96
@ 020   ----------------------------------------
 .byte   W96
@ 021   ----------------------------------------
Label_12_016E6FA3:
 .byte   W36
 .byte   N06 ,Dn3 ,v100
 .byte   W12
 .byte   N24 ,Gn3
 .byte   W48
 .byte   PEND 
@ 022   ----------------------------------------
Label_12_016E6FAC:
 .byte   W30
 .byte   N06 ,An2 ,v100
 .byte   W06
 .byte   Dn3
 .byte   W06
 .byte   Fs3
 .byte   W06
 .byte   N24 ,Gn3
 .byte   W24
 .byte   N12 ,Fs3
 .byte   W12
 .byte   En3
 .byte   W12
 .byte   PEND 
@ 023   ----------------------------------------
Label_12_016E6FBE:
 .byte   N42 ,Dn3 ,v100
 .byte   W48
 .byte   N36 ,En3
 .byte   W36
 .byte   N12 ,An2
 .byte   W12
 .byte   PEND 
@ 024   ----------------------------------------
Label_12_016E6FC9:
 .byte   N48 ,Fs3 ,v100
 .byte   W48
 .byte   Dn3
 .byte   W48
 .byte   PEND 
@ 025   ----------------------------------------
Label_12_016E6FD0:
 .byte   N30 ,Dn3 ,v100
 .byte   W36
 .byte   N06 ,An2
 .byte   W06
 .byte   Dn3
 .byte   W06
 .byte   N30 ,En3
 .byte   W36
 .byte   N06 ,Dn3
 .byte   W06
 .byte   En3
 .byte   W06
 .byte   PEND 
@ 026   ----------------------------------------
Label_12_016E6FE2:
 .byte   N30 ,Fs3 ,v100
 .byte   W36
 .byte   N06 ,En3
 .byte   W06
 .byte   Fs3
 .byte   W06
 .byte   N24 ,Gn3
 .byte   W24
 .byte   En3
 .byte   W24
 .byte   PEND 
@ 027   ----------------------------------------
Label_12_016E6FF1:
 .byte   N42 ,Fs3 ,v100
 .byte   W48
 .byte   Gn3
 .byte   W48
 .byte   PEND 
@ 028   ----------------------------------------
Label_12_016E6FF8:
 .byte   N42 ,An3 ,v100
 .byte   W48
 .byte   N24 ,Dn3
 .byte   W24
 .byte   En3
 .byte   W24
 .byte   PEND 
@ 029   ----------------------------------------
Label_12_016E7002:
 .byte   N72 ,Fs3 ,v100
 .byte   W78
 .byte   N06 ,Dn3
 .byte   W06
 .byte   En3
 .byte   W06
 .byte   Fs3
 .byte   W06
 .byte   PEND 
@ 030   ----------------------------------------
Label_12_016E700E:
 .byte   N48 ,Gn3 ,v100
 .byte   W48
 .byte   En3
 .byte   W48
 .byte   PEND 
@ 031   ----------------------------------------
Label_12_016E7015:
 .byte   W24
 .byte   N24 ,An2 ,v100
 .byte   W24
 .byte   En3
 .byte   W24
 .byte   N12 ,Dn3
 .byte   W12
 .byte   Cs3
 .byte   W12
 .byte   PEND 
@ 032   ----------------------------------------
 .byte   N84 ,Dn3
 .byte   W96
@ 033   ----------------------------------------
 .byte   W96
@ 034   ----------------------------------------
 .byte   W96
@ 035   ----------------------------------------
 .byte   W96
@ 036   ----------------------------------------
 .byte   W96
@ 037   ----------------------------------------
Label_12_016E7029:
 .byte   W24
 .byte   N18 ,Dn3 ,v100
 .byte   W24
 .byte   Gn3
 .byte   W24
 .byte   Bn3
 .byte   W24
 .byte   PEND 
@ 038   ----------------------------------------
Label_12_016E7033:
 .byte   N48 ,Cs4 ,v100
 .byte   W48
 .byte   N18 ,Dn4
 .byte   W24
 .byte   N06 ,En4
 .byte   W12
 .byte   Fs4
 .byte   W12
 .byte   PEND 
@ 039   ----------------------------------------
Label_12_016E7040:
 .byte   N90 ,Gn4 ,v100
 .byte   W90
 .byte   N06
 .byte   W06
 .byte   PEND 
@ 040   ----------------------------------------
Label_12_016E7047:
 .byte   N48 ,An4 ,v100
 .byte   W48
 .byte   N48
 .byte   W48
 .byte   PEND 
 .byte   PATT
  .word Label_12_016E6FA3
 .byte   PATT
  .word Label_12_016E6FAC
 .byte   PATT
  .word Label_12_016E6FBE
 .byte   PATT
  .word Label_12_016E6FC9
 .byte   PATT
  .word Label_12_016E6FD0
 .byte   PATT
  .word Label_12_016E6FE2
 .byte   PATT
  .word Label_12_016E6FF1
 .byte   PATT
  .word Label_12_016E6FF8
 .byte   PATT
  .word Label_12_016E7002
 .byte   PATT
  .word Label_12_016E700E
 .byte   PATT
  .word Label_12_016E7015
@ 041   ----------------------------------------
 .byte   N84 ,Dn3 ,v100
 .byte   W96
@ 042   ----------------------------------------
 .byte   W96
@ 043   ----------------------------------------
 .byte   W96
@ 044   ----------------------------------------
 .byte   W96
@ 045   ----------------------------------------
 .byte   W96
 .byte   PATT
  .word Label_12_016E7029
 .byte   PATT
  .word Label_12_016E7033
 .byte   PATT
  .word Label_12_016E7040
 .byte   PATT
  .word Label_12_016E7047
@ 046   ----------------------------------------
 .byte   GOTO
  .word Label_12_016E6FA3
 .byte   FINE

@**************** Track 14 (Midi-Chn.13) ****************@

song17_014:
@ 000   ----------------------------------------
 .byte   KEYSH , song17_key+0
 .byte   VOICE , 56
 .byte   VOL , 64*song17_mvl/mxv
 .byte   W96
@ 001   ----------------------------------------
 .byte   W96
@ 002   ----------------------------------------
 .byte   W96
@ 003   ----------------------------------------
 .byte   W96
@ 004   ----------------------------------------
 .byte   W96
@ 005   ----------------------------------------
 .byte   W96
@ 006   ----------------------------------------
 .byte   W96
@ 007   ----------------------------------------
 .byte   W96
@ 008   ----------------------------------------
 .byte   W96
@ 009   ----------------------------------------
 .byte   W96
@ 010   ----------------------------------------
 .byte   W96
@ 011   ----------------------------------------
 .byte   W96
@ 012   ----------------------------------------
 .byte   W96
@ 013   ----------------------------------------
 .byte   W96
@ 014   ----------------------------------------
 .byte   W96
@ 015   ----------------------------------------
 .byte   W96
@ 016   ----------------------------------------
 .byte   W96
@ 017   ----------------------------------------
 .byte   W96
@ 018   ----------------------------------------
 .byte   W96
@ 019   ----------------------------------------
 .byte   W96
@ 020   ----------------------------------------
 .byte   W96
@ 021   ----------------------------------------
Label_13_55B34F:
 .byte   W96
@ 022   ----------------------------------------
 .byte   W96
@ 023   ----------------------------------------
 .byte   W96
@ 024   ----------------------------------------
Label_13_55B352:
 .byte   W36
 .byte   N06 ,Fs3 ,v100
 .byte   W06
 .byte   N06
 .byte   W06
 .byte   N48
 .byte   W48
 .byte   PEND 
@ 025   ----------------------------------------
 .byte   W96
@ 026   ----------------------------------------
 .byte   W96
@ 027   ----------------------------------------
 .byte   W96
@ 028   ----------------------------------------
Label_13_55B35F:
 .byte   W48
 .byte   N24 ,Fs3 ,v100
 .byte   W24
 .byte   En3
 .byte   W24
 .byte   PEND 
@ 029   ----------------------------------------
 .byte   N60 ,Dn3
 .byte   W96
@ 030   ----------------------------------------
 .byte   W96
@ 031   ----------------------------------------
 .byte   W96
@ 032   ----------------------------------------
Label_13_55B36C:
 .byte   N42 ,Fs3 ,v100
 .byte   W42
 .byte   N06
 .byte   W06
 .byte   N42
 .byte   W48
 .byte   PEND 
@ 033   ----------------------------------------
 .byte   W96
@ 034   ----------------------------------------
 .byte   W96
@ 035   ----------------------------------------
 .byte   W96
@ 036   ----------------------------------------
 .byte   W96
@ 037   ----------------------------------------
Label_13_55B379:
 .byte   W24
 .byte   N18 ,Bn2 ,v100
 .byte   W24
 .byte   Dn3
 .byte   W24
 .byte   Gn3
 .byte   W24
 .byte   PEND 
@ 038   ----------------------------------------
Label_13_55B383:
 .byte   N48 ,As3 ,v100
 .byte   W48
 .byte   N18 ,Bn3
 .byte   W24
 .byte   N06 ,Cs4
 .byte   W12
 .byte   Dn4
 .byte   W12
 .byte   PEND 
@ 039   ----------------------------------------
Label_13_55B390:
 .byte   N90 ,En4 ,v100
 .byte   W90
 .byte   N06
 .byte   W06
 .byte   PEND 
@ 040   ----------------------------------------
Label_13_55B397:
 .byte   N48 ,Fs4 ,v100
 .byte   W48
 .byte   En4
 .byte   W48
 .byte   PEND 
@ 041   ----------------------------------------
 .byte   W96
@ 042   ----------------------------------------
 .byte   W96
@ 043   ----------------------------------------
 .byte   W96
 .byte   PATT
  .word Label_13_55B352
@ 044   ----------------------------------------
 .byte   W96
@ 045   ----------------------------------------
 .byte   W96
@ 046   ----------------------------------------
 .byte   W96
 .byte   PATT
  .word Label_13_55B35F
@ 047   ----------------------------------------
 .byte   N60 ,Dn3 ,v100
 .byte   W96
@ 048   ----------------------------------------
 .byte   W96
@ 049   ----------------------------------------
 .byte   W96
 .byte   PATT
  .word Label_13_55B36C
@ 050   ----------------------------------------
 .byte   W96
@ 051   ----------------------------------------
 .byte   W96
@ 052   ----------------------------------------
 .byte   W96
@ 053   ----------------------------------------
 .byte   W96
 .byte   PATT
  .word Label_13_55B379
 .byte   PATT
  .word Label_13_55B383
 .byte   PATT
  .word Label_13_55B390
 .byte   PATT
  .word Label_13_55B397
@ 054   ----------------------------------------
 .byte   GOTO
  .word Label_13_55B34F
 .byte   FINE

@******************************************************@
	.align	2

song17:
	.byte	14	@ NumTrks
	.byte	0	@ NumBlks
	.byte	song17_pri	@ Priority
	.byte	song17_rev	@ Reverb.
    
	.word	song17_grp
    
	.word	song17_001
	.word	song17_002
	.word	song17_003
	.word	song17_004
	.word	song17_005
	.word	song17_006
	.word	song17_007
	.word	song17_008
	.word	song17_009
	.word	song17_010
	.word	song17_011
	.word	song17_012
	.word	song17_013
	.word	song17_014

	.end
