	.include "MPlayDef.s"

	.equ	song0E_grp, voicegroup000
	.equ	song0E_pri, 0
	.equ	song0E_rev, 0
	.equ	song0E_mvl, 127
	.equ	song0E_key, 0
	.equ	song0E_tbs, 1
	.equ	song0E_exg, 0
	.equ	song0E_cmp, 1

	.section .rodata
	.global	song0E
	.align	2


@**************** Track 1 (Midi-Chn.0) ****************@

song0E_001:
@ 000   ----------------------------------------
 .byte   KEYSH , song0E_key+0
Label_0_0128D19A:
 .byte   TEMPO , 160*song0E_tbs/2
 .byte   VOICE , 45
 .byte   VOL , 51*song0E_mvl/mxv
 .byte   PAN , c_v+0
 .byte   VOL , 51*song0E_mvl/mxv
 .byte   PAN , c_v-22
 .byte   VOL , 51*song0E_mvl/mxv
 .byte   PAN , c_v+0
 .byte   VOL , 51*song0E_mvl/mxv
 .byte   PAN , c_v+0
 .byte   VOL , 51*song0E_mvl/mxv
 .byte   PAN , c_v+0
 .byte   VOL , 51*song0E_mvl/mxv
 .byte   PAN , c_v+0
 .byte   W48
 .byte   TEMPO , 88*song0E_tbs/2
 .byte   W24
 .byte   N23 ,Dn3 ,v080
 .byte   W24
@ 001   ----------------------------------------
 .byte   En3
 .byte   W24
 .byte   Bn2
 .byte   W24
 .byte   N92 ,Dn3
 .byte   W96
@ 002   ----------------------------------------
 .byte   W24
 .byte   N23
 .byte   W24
 .byte   Fn3
 .byte   W24
 .byte   Dn3
 .byte   W24
@ 003   ----------------------------------------
 .byte   N92
 .byte   W96
@ 004   ----------------------------------------
 .byte   W24
 .byte   N23 ,Cn3
 .byte   W24
 .byte   Dn3
 .byte   W24
 .byte   Bn2
 .byte   W24
@ 005   ----------------------------------------
 .byte   N44 ,Cn3
 .byte   W48
 .byte   Gn3
 .byte   W48
@ 006   ----------------------------------------
 .byte   N44
 .byte   W48
 .byte   Fn3
 .byte   W48
@ 007   ----------------------------------------
 .byte   En3
 .byte   W48
 .byte   Dn3
 .byte   W48
@ 008   ----------------------------------------
 .byte   TEMPO , 180*song0E_tbs/2
 .byte   W96
@ 009   ----------------------------------------
 .byte   W96
@ 010   ----------------------------------------
 .byte   W96
@ 011   ----------------------------------------
 .byte   W96
@ 012   ----------------------------------------
 .byte   W96
@ 013   ----------------------------------------
 .byte   W96
@ 014   ----------------------------------------
 .byte   W96
@ 015   ----------------------------------------
 .byte   W96
@ 016   ----------------------------------------
 .byte   W96
@ 017   ----------------------------------------
 .byte   W96
@ 018   ----------------------------------------
 .byte   W96
@ 019   ----------------------------------------
 .byte   W96
@ 020   ----------------------------------------
 .byte   W96
@ 021   ----------------------------------------
 .byte   W96
@ 022   ----------------------------------------
 .byte   W96
@ 023   ----------------------------------------
 .byte   W96
@ 024   ----------------------------------------
 .byte   W96
@ 025   ----------------------------------------
 .byte   W96
@ 026   ----------------------------------------
 .byte   W96
@ 027   ----------------------------------------
 .byte   W96
@ 028   ----------------------------------------
 .byte   W96
@ 029   ----------------------------------------
 .byte   W96
@ 030   ----------------------------------------
 .byte   W96
@ 031   ----------------------------------------
 .byte   W96
@ 032   ----------------------------------------
 .byte   W96
@ 033   ----------------------------------------
 .byte   W96
@ 034   ----------------------------------------
 .byte   W96
@ 035   ----------------------------------------
 .byte   W96
@ 036   ----------------------------------------
 .byte   W96
@ 037   ----------------------------------------
 .byte   W96
@ 038   ----------------------------------------
 .byte   W96
@ 039   ----------------------------------------
 .byte   W96
@ 040   ----------------------------------------
 .byte   W96
@ 041   ----------------------------------------
 .byte   W96
@ 042   ----------------------------------------
 .byte   W96
@ 043   ----------------------------------------
 .byte   W96
@ 044   ----------------------------------------
 .byte   W96
@ 045   ----------------------------------------
 .byte   W96
@ 046   ----------------------------------------
 .byte   W96
@ 047   ----------------------------------------
 .byte   W96
@ 048   ----------------------------------------
 .byte   W96
@ 049   ----------------------------------------
 .byte   W96
@ 050   ----------------------------------------
 .byte   W96
@ 051   ----------------------------------------
 .byte   W96
@ 052   ----------------------------------------
 .byte   W96
@ 053   ----------------------------------------
 .byte   W96
@ 054   ----------------------------------------
 .byte   W96
@ 055   ----------------------------------------
 .byte   W96
@ 056   ----------------------------------------
 .byte   W96
@ 057   ----------------------------------------
 .byte   W96
@ 058   ----------------------------------------
 .byte   W96
@ 059   ----------------------------------------
 .byte   W96
@ 060   ----------------------------------------
 .byte   W96
@ 061   ----------------------------------------
 .byte   W96
@ 062   ----------------------------------------
 .byte   W96
@ 063   ----------------------------------------
 .byte   W96
@ 064   ----------------------------------------
 .byte   W96
@ 065   ----------------------------------------
 .byte   W96
@ 066   ----------------------------------------
 .byte   W96
@ 067   ----------------------------------------
 .byte   W96
@ 068   ----------------------------------------
 .byte   W96
@ 069   ----------------------------------------
 .byte   W96
@ 070   ----------------------------------------
 .byte   W96
@ 071   ----------------------------------------
 .byte   W96
@ 072   ----------------------------------------
 .byte   W96
@ 073   ----------------------------------------
 .byte   W96
@ 074   ----------------------------------------
 .byte   W96
@ 075   ----------------------------------------
 .byte   W96
@ 076   ----------------------------------------
 .byte   W96
@ 077   ----------------------------------------
 .byte   W96
@ 078   ----------------------------------------
 .byte   W96
@ 079   ----------------------------------------
 .byte   W96
@ 080   ----------------------------------------
 .byte   W96
@ 081   ----------------------------------------
 .byte   W96
@ 082   ----------------------------------------
 .byte   W96
@ 083   ----------------------------------------
 .byte   W96
@ 084   ----------------------------------------
 .byte   W96
@ 085   ----------------------------------------
 .byte   W96
@ 086   ----------------------------------------
 .byte   W96
@ 087   ----------------------------------------
 .byte   W96
@ 088   ----------------------------------------
 .byte   W96
@ 089   ----------------------------------------
 .byte   W96
@ 090   ----------------------------------------
 .byte   W96
@ 091   ----------------------------------------
 .byte   W96
@ 092   ----------------------------------------
 .byte   W96
@ 093   ----------------------------------------
 .byte   W96
@ 094   ----------------------------------------
 .byte   W96
@ 095   ----------------------------------------
 .byte   W96
@ 096   ----------------------------------------
 .byte   N32 ,Fn4
 .byte   W36
 .byte   En4
 .byte   W36
 .byte   N68 ,Gn4
 .byte   W24
@ 097   ----------------------------------------
 .byte   W48
 .byte   N44 ,En4
 .byte   W48
@ 098   ----------------------------------------
Label_0_0128D249:
 .byte   N11 ,Fn4 ,v080
 .byte   W12
 .byte   Cn4
 .byte   W12
 .byte   En4
 .byte   W12
 .byte   Cn4
 .byte   W12
 .byte   Gn4
 .byte   W12
 .byte   Cn4
 .byte   W12
 .byte   En4
 .byte   W12
 .byte   Cn4
 .byte   W12
 .byte   PEND 
 .byte   PATT
  .word Label_0_0128D249
@ 099   ----------------------------------------
 .byte   N32 ,Cn4 ,v080
 .byte   W36
 .byte   N23 ,Dn4
 .byte   W24
 .byte   N11 ,En4
 .byte   W12
 .byte   N68 ,Dn4
 .byte   W24
@ 100   ----------------------------------------
 .byte   W48
 .byte   N44 ,Cn4
 .byte   W48
@ 101   ----------------------------------------
Label_0_0128D272:
 .byte   N11 ,Dn4 ,v080
 .byte   W12
 .byte   Cn4
 .byte   W12
 .byte   En4
 .byte   W12
 .byte   Cn4
 .byte   W12
 .byte   Dn4
 .byte   W12
 .byte   Cn4
 .byte   W12
 .byte   En4
 .byte   W12
 .byte   Cn4
 .byte   W12
 .byte   PEND 
 .byte   PATT
  .word Label_0_0128D272
@ 102   ----------------------------------------
 .byte   N11 ,Cn4 ,v064
 .byte   W12
 .byte   N11
 .byte   W12
 .byte   N11
 .byte   W12
 .byte   Bn3
 .byte   W12
 .byte   N11
 .byte   W12
 .byte   N11
 .byte   W12
 .byte   Cn4
 .byte   W12
 .byte   N11
 .byte   W12
@ 103   ----------------------------------------
Label_0_0128D29C:
 .byte   N11 ,Cn4 ,v064
 .byte   W12
 .byte   N11
 .byte   W12
 .byte   N11
 .byte   W12
 .byte   Bn3
 .byte   W12
 .byte   N11
 .byte   W12
 .byte   N11
 .byte   W12
 .byte   Cn4
 .byte   W24
 .byte   PEND 
 .byte   PATT
  .word Label_0_0128D29C
@ 104   ----------------------------------------
 .byte   N11 ,Cn4 ,v064
 .byte   W12
 .byte   Dn3
 .byte   W12
 .byte   Gn3
 .byte   W12
 .byte   Dn3
 .byte   W12
 .byte   Cn4
 .byte   W12
 .byte   Gn3
 .byte   W12
 .byte   Bn3
 .byte   W24
@ 105   ----------------------------------------
 .byte   N23 ,Dn4
 .byte   W24
 .byte   N11 ,En4
 .byte   W12
 .byte   N23
 .byte   W24
 .byte   N11 ,Fn4
 .byte   W12
 .byte   N23 ,Dn4
 .byte   W24
@ 106   ----------------------------------------
 .byte   N11
 .byte   W12
 .byte   N11
 .byte   W12
 .byte   N11
 .byte   W12
 .byte   N11
 .byte   W12
 .byte   N11
 .byte   W12
 .byte   N11
 .byte   W12
 .byte   N11
 .byte   W12
 .byte   N11
 .byte   W12
@ 107   ----------------------------------------
 .byte   Dn5
 .byte   W12
 .byte   N11
 .byte   W12
 .byte   N11
 .byte   W12
 .byte   N11
 .byte   W12
 .byte   N11
 .byte   W12
 .byte   N11
 .byte   W12
 .byte   N11
 .byte   W12
 .byte   N11
 .byte   W12
@ 108   ----------------------------------------
 .byte   W48
 .byte   N44 ,Gs3 ,v016
 .byte   W01
 .byte   W01
 .byte   W01
 .byte   W01
 .byte   W01
 .byte   W01
 .byte   W01
 .byte   W01
 .byte   W01
 .byte   W01
 .byte   W01
 .byte   W01
 .byte   W01
 .byte   W01
 .byte   W01
 .byte   W01
 .byte   W01
 .byte   W01
 .byte   W01
 .byte   W01
 .byte   W01
 .byte   W01
 .byte   W01
 .byte   W01
 .byte   W01
 .byte   W01
 .byte   W01
 .byte   W01
 .byte   W01
 .byte   W01
 .byte   W01
 .byte   W01
 .byte   W01
 .byte   W01
 .byte   W01
 .byte   W01
 .byte   W01
 .byte   W01
 .byte   W01
 .byte   W01
 .byte   W01
 .byte   W01
 .byte   W01
 .byte   W01
 .byte   W01
 .byte   W01
 .byte   W01
 .byte   W01
@ 109   ----------------------------------------
 .byte   N92 ,Cn4 ,v080
 .byte   W96
@ 110   ----------------------------------------
Label_0_0128D328:
 .byte   N32 ,Cn4 ,v080
 .byte   W36
 .byte   Dn4
 .byte   W36
 .byte   N23 ,Bn3
 .byte   W24
 .byte   PEND 
@ 111   ----------------------------------------
 .byte   N92 ,Gn3
 .byte   W96
 .byte   PATT
  .word Label_0_0128D328
@ 112   ----------------------------------------
 .byte   N44 ,Cn4 ,v080
 .byte   W48
 .byte   Gn4
 .byte   W48
@ 113   ----------------------------------------
 .byte   N23
 .byte   W24
 .byte   Fn4
 .byte   W24
 .byte   En4
 .byte   W24
 .byte   N11 ,Dn4
 .byte   W12
 .byte   TIE ,En4
 .byte   W12
@ 114   ----------------------------------------
 .byte   W92
 .byte   W03
 .byte   EOT
 .byte   W01
 .byte   PATT
  .word Label_0_0128D328
@ 115   ----------------------------------------
 .byte   N92 ,Cn4 ,v080
 .byte   W96
 .byte   PATT
  .word Label_0_0128D328
@ 116   ----------------------------------------
 .byte   N44 ,Gn3 ,v080
 .byte   W48
 .byte   Gn4
 .byte   W48
@ 117   ----------------------------------------
 .byte   N23
 .byte   W24
 .byte   Fn4
 .byte   W24
 .byte   En4
 .byte   W24
 .byte   Dn4
 .byte   W24
@ 118   ----------------------------------------
 .byte   N44 ,Cn4
 .byte   W48
 .byte   En4
 .byte   W48
@ 119   ----------------------------------------
 .byte   Dn4
 .byte   W48
 .byte   Cn4
 .byte   W48
@ 120   ----------------------------------------
 .byte   N32 ,Bn3
 .byte   W36
 .byte   TIE ,An3
 .byte   W60
@ 121   ----------------------------------------
 .byte   W92
 .byte   W03
 .byte   EOT
 .byte   W01
@ 122   ----------------------------------------
 .byte   W96
@ 123   ----------------------------------------
 .byte   W96
@ 124   ----------------------------------------
 .byte   W48
 .byte   N44 ,Gn4 ,v064
 .byte   W48
@ 125   ----------------------------------------
 .byte   N92 ,Dn4
 .byte   W96
@ 126   ----------------------------------------
 .byte   N44 ,An3
 .byte   W48
 .byte   En4
 .byte   W48
@ 127   ----------------------------------------
 .byte   N44
 .byte   N44 ,Gn4
 .byte   W48
 .byte   Dn4
 .byte   N44 ,Fn4
 .byte   W48
@ 128   ----------------------------------------
 .byte   Gn4
 .byte   N44 ,Bn4
 .byte   W48
 .byte   En4
 .byte   N44 ,An4
 .byte   W48
@ 129   ----------------------------------------
 .byte   Cn5
 .byte   W48
 .byte   Dn5
 .byte   W48
@ 130   ----------------------------------------
 .byte   TIE ,En5 ,v052
 .byte   W96
@ 131   ----------------------------------------
 .byte   W44
 .byte   W03
 .byte   EOT
 .byte   W01
 .byte   N44 ,Dn5
 .byte   W48
@ 132   ----------------------------------------
 .byte   TIE ,Bn4
 .byte   TIE ,Dn5
 .byte   W96
@ 133   ----------------------------------------
 .byte   W44
 .byte   W03
 .byte   EOT
 .byte   Bn4 ,v086
 .byte   W01
 .byte   N44 ,Gn4
 .byte   W48
@ 134   ----------------------------------------
 .byte   N92 ,En5
 .byte   W96
@ 135   ----------------------------------------
 .byte   Fn5
 .byte   W96
@ 136   ----------------------------------------
 .byte   W96
@ 137   ----------------------------------------
 .byte   W96
@ 138   ----------------------------------------
 .byte   W96
@ 139   ----------------------------------------
 .byte   W96
@ 140   ----------------------------------------
 .byte   W96
@ 141   ----------------------------------------
 .byte   W96
@ 142   ----------------------------------------
 .byte   W96
@ 143   ----------------------------------------
 .byte   W96
@ 144   ----------------------------------------
 .byte   W96
@ 145   ----------------------------------------
 .byte   W96
@ 146   ----------------------------------------
 .byte   W96
@ 147   ----------------------------------------
 .byte   W96
@ 148   ----------------------------------------
 .byte   W96
@ 149   ----------------------------------------
 .byte   W96
@ 150   ----------------------------------------
 .byte   W96
@ 151   ----------------------------------------
 .byte   W96
@ 152   ----------------------------------------
 .byte   W96
@ 153   ----------------------------------------
 .byte   W96
@ 154   ----------------------------------------
 .byte   W96
@ 155   ----------------------------------------
Label_0_0128D3D3:
 .byte   N32 ,Cs5 ,v096
 .byte   W36
 .byte   Ds5
 .byte   W36
 .byte   N23 ,Cn5
 .byte   W24
 .byte   PEND 
@ 156   ----------------------------------------
 .byte   N92 ,Cs5
 .byte   W96
 .byte   PATT
  .word Label_0_0128D3D3
@ 157   ----------------------------------------
 .byte   N92 ,Gs4 ,v096
 .byte   W96
 .byte   PATT
  .word Label_0_0128D3D3
@ 158   ----------------------------------------
 .byte   N44 ,Cs5 ,v096
 .byte   W48
 .byte   Gs5
 .byte   W48
@ 159   ----------------------------------------
 .byte   N23
 .byte   W24
 .byte   Fs5
 .byte   W24
 .byte   Fn5
 .byte   W24
 .byte   N11 ,Ds5
 .byte   W12
 .byte   TIE ,Fn5
 .byte   W12
@ 160   ----------------------------------------
 .byte   W92
 .byte   W03
 .byte   EOT
 .byte   W01
 .byte   PATT
  .word Label_0_0128D3D3
@ 161   ----------------------------------------
 .byte   N92 ,Cs5 ,v096
 .byte   W96
 .byte   PATT
  .word Label_0_0128D3D3
@ 162   ----------------------------------------
 .byte   N44 ,Gs4 ,v096
 .byte   W48
 .byte   Gs5
 .byte   W48
@ 163   ----------------------------------------
 .byte   N23
 .byte   W24
 .byte   Fs5
 .byte   W24
 .byte   Fn5
 .byte   W24
 .byte   Ds5
 .byte   W24
@ 164   ----------------------------------------
 .byte   N44 ,Cs5
 .byte   W48
 .byte   Fn5
 .byte   W48
@ 165   ----------------------------------------
 .byte   Ds5
 .byte   W48
 .byte   Cs5
 .byte   W48
@ 166   ----------------------------------------
 .byte   N32 ,Cn5
 .byte   W36
 .byte   TIE ,As4
 .byte   W60
@ 167   ----------------------------------------
 .byte   W92
 .byte   W03
 .byte   EOT
 .byte   W01
@ 168   ----------------------------------------
Label_0_0128D433:
 .byte   N11 ,Fn4 ,v060
 .byte   W03
 .byte   W01
 .byte   W01
 .byte   W19
 .byte   N11
 .byte   W03
 .byte   W01
 .byte   W01
 .byte   W19
 .byte   N11
 .byte   W03
 .byte   W01
 .byte   W01
 .byte   W19
 .byte   N11
 .byte   W03
 .byte   W01
 .byte   W01
 .byte   W19
 .byte   PEND 
 .byte   PATT
  .word Label_0_0128D433
 .byte   PATT
  .word Label_0_0128D433
 .byte   PATT
  .word Label_0_0128D433
 .byte   PATT
  .word Label_0_0128D433
 .byte   PATT
  .word Label_0_0128D433
 .byte   PATT
  .word Label_0_0128D433
 .byte   PATT
  .word Label_0_0128D433
@ 169   ----------------------------------------
Label_0_0128D46D:
 .byte   N11 ,Gn4 ,v060
 .byte   W03
 .byte   W01
 .byte   W01
 .byte   W19
 .byte   N11
 .byte   W03
 .byte   W01
 .byte   W01
 .byte   W19
 .byte   N11
 .byte   W03
 .byte   W01
 .byte   W01
 .byte   W19
 .byte   N11
 .byte   W03
 .byte   W01
 .byte   W01
 .byte   W19
 .byte   PEND 
 .byte   PATT
  .word Label_0_0128D46D
@ 170   ----------------------------------------
 .byte   GOTO
  .word Label_0_0128D19A
 .byte   FINE

@**************** Track 2 (Midi-Chn.1) ****************@

song0E_002:
@ 000   ----------------------------------------
 .byte   KEYSH , song0E_key+0
Label_1_0128D492:
 .byte   VOICE , 48
 .byte   VOL , 51*song0E_mvl/mxv
 .byte   PAN , c_v+0
 .byte   VOL , 51*song0E_mvl/mxv
 .byte   PAN , c_v+0
 .byte   VOL , 51*song0E_mvl/mxv
 .byte   PAN , c_v+0
 .byte   VOL , 51*song0E_mvl/mxv
 .byte   PAN , c_v+0
 .byte   VOL , 51*song0E_mvl/mxv
 .byte   PAN , c_v+0
 .byte   VOL , 51*song0E_mvl/mxv
 .byte   PAN , c_v+0
 .byte   W48
 .byte   W96
@ 001   ----------------------------------------
 .byte   N44 ,Gn3 ,v080
 .byte   W48
 .byte   N23 ,Cn4
 .byte   W24
 .byte   En4
 .byte   W24
@ 002   ----------------------------------------
 .byte   N44
 .byte   W48
 .byte   TIE ,An3
 .byte   W48
@ 003   ----------------------------------------
 .byte   W56
 .byte   W03
 .byte   EOT
 .byte   W01
 .byte   N11 ,Bn3
 .byte   W12
 .byte   Cn4
 .byte   W12
 .byte   Dn4
 .byte   W12
@ 004   ----------------------------------------
 .byte   N44 ,Cn4
 .byte   W48
 .byte   Bn3
 .byte   W48
@ 005   ----------------------------------------
 .byte   N68 ,Cn4
 .byte   W72
 .byte   N23 ,En4
 .byte   W24
@ 006   ----------------------------------------
 .byte   N44 ,Gn4
 .byte   W48
 .byte   Fn4
 .byte   W48
@ 007   ----------------------------------------
 .byte   En4
 .byte   W48
 .byte   Dn4
 .byte   W48
@ 008   ----------------------------------------
 .byte   W96
@ 009   ----------------------------------------
 .byte   W96
@ 010   ----------------------------------------
 .byte   W96
@ 011   ----------------------------------------
 .byte   W96
@ 012   ----------------------------------------
 .byte   W96
@ 013   ----------------------------------------
 .byte   W96
@ 014   ----------------------------------------
 .byte   W96
@ 015   ----------------------------------------
 .byte   W96
@ 016   ----------------------------------------
 .byte   N92 ,An1 ,v036
 .byte   W06
 .byte   W03
 .byte   W03
 .byte   W03
 .byte   W03
 .byte   W03
 .byte   W03
 .byte   W03
 .byte   W03
 .byte   W03
 .byte   W03
 .byte   W03
 .byte   W03
 .byte   W03
 .byte   W03
 .byte   W03
 .byte   W03
 .byte   W03
 .byte   W04
 .byte   W03
 .byte   W03
 .byte   W03
 .byte   W03
 .byte   W03
 .byte   W03
 .byte   W03
 .byte   W03
 .byte   W03
 .byte   W03
 .byte   W03
 .byte   W02
@ 017   ----------------------------------------
 .byte   Gn1 ,v064
 .byte   W96
@ 018   ----------------------------------------
 .byte   TIE ,Fn1
 .byte   W06
 .byte   W06
 .byte   W07
 .byte   W06
 .byte   W07
 .byte   W06
 .byte   W06
 .byte   W07
 .byte   W06
 .byte   W07
 .byte   W06
 .byte   W06
 .byte   W07
 .byte   W06
 .byte   W07
@ 019   ----------------------------------------
 .byte   W44
 .byte   W03
 .byte   EOT
 .byte   W01
 .byte   N11 ,Cn2
 .byte   W12
 .byte   Fn1
 .byte   W12
 .byte   Cn2
 .byte   W12
 .byte   Fn1
 .byte   W12
@ 020   ----------------------------------------
 .byte   N92 ,Dn1 ,v052
 .byte   W06
 .byte   W06
 .byte   W07
 .byte   W06
 .byte   W07
 .byte   W06
 .byte   W06
 .byte   W07
 .byte   W06
 .byte   W07
 .byte   W06
 .byte   W06
 .byte   W07
 .byte   W06
 .byte   W07
@ 021   ----------------------------------------
 .byte   En1 ,v064
 .byte   W96
@ 022   ----------------------------------------
 .byte   TIE ,An1
 .byte   W09
 .byte   W04
 .byte   W05
 .byte   W05
 .byte   W04
 .byte   W05
 .byte   W04
 .byte   W05
 .byte   W05
 .byte   W04
 .byte   W05
 .byte   W04
 .byte   W05
 .byte   W05
 .byte   W04
 .byte   W05
 .byte   W04
 .byte   W05
 .byte   W05
 .byte   W04
@ 023   ----------------------------------------
 .byte   W05
 .byte   W04
 .byte   W05
 .byte   W05
 .byte   W04
 .byte   W05
 .byte   W04
 .byte   W05
 .byte   W05
 .byte   W04
 .byte   W01
 .byte   EOT
 .byte   W48
 .byte   W01
@ 024   ----------------------------------------
 .byte   N11 ,An0 ,v052
 .byte   N11 ,An1
 .byte   W19
 .byte   W17
 .byte   An0
 .byte   N11 ,An1
 .byte   W02
 .byte   W19
 .byte   W19
 .byte   W20
@ 025   ----------------------------------------
 .byte   Gn0 ,v056
 .byte   N11 ,Gn1
 .byte   W19
 .byte   W17
 .byte   Gn0
 .byte   N11 ,Gn1
 .byte   W02
 .byte   W19
 .byte   W03
 .byte   Gn0 ,v060
 .byte   N11 ,Gn1
 .byte   W16
 .byte   W20
@ 026   ----------------------------------------
 .byte   Fn0
 .byte   N11 ,Fn1
 .byte   W19
 .byte   W17
 .byte   Fn0
 .byte   N11 ,Fn1
 .byte   W02
 .byte   W19
 .byte   W19
 .byte   W20
@ 027   ----------------------------------------
 .byte   Fn0 ,v064
 .byte   N11 ,Fn1
 .byte   W36
 .byte   Fn0
 .byte   N11 ,Fn1
 .byte   W24
 .byte   Fn0
 .byte   N11 ,Fn1
 .byte   W36
@ 028   ----------------------------------------
 .byte   Dn0
 .byte   N11 ,Dn1
 .byte   W18
 .byte   W18
 .byte   Dn0 ,v068
 .byte   N11 ,Dn1
 .byte   W18
 .byte   W18
 .byte   W18
 .byte   W06
@ 029   ----------------------------------------
 .byte   En0 ,v072
 .byte   N11 ,En1
 .byte   W12
 .byte   W18
 .byte   W06
 .byte   En0
 .byte   N11 ,En1
 .byte   W12
 .byte   W12
 .byte   En0
 .byte   N11 ,En1
 .byte   W06
 .byte   W18
 .byte   W12
@ 030   ----------------------------------------
 .byte   An0 ,v076
 .byte   N11 ,An1
 .byte   W06
 .byte   W18
 .byte   W12
 .byte   An0
 .byte   N11 ,An1
 .byte   W06
 .byte   W18
 .byte   W18
 .byte   W18
@ 031   ----------------------------------------
 .byte   An0 ,v080
 .byte   N11 ,An1
 .byte   W36
 .byte   An0
 .byte   N11 ,An1
 .byte   W24
 .byte   An0
 .byte   N11 ,An1
 .byte   W36
@ 032   ----------------------------------------
Label_1_0128D5D2:
 .byte   N11 ,An1 ,v096
 .byte   W36
 .byte   N11
 .byte   W60
 .byte   PEND 
@ 033   ----------------------------------------
Label_1_0128D5D9:
 .byte   N11 ,Gn1 ,v096
 .byte   W36
 .byte   N11
 .byte   W24
 .byte   N11
 .byte   W36
 .byte   PEND 
@ 034   ----------------------------------------
Label_1_0128D5E2:
 .byte   N11 ,Fn1 ,v096
 .byte   W36
 .byte   N11
 .byte   W60
 .byte   PEND 
@ 035   ----------------------------------------
Label_1_0128D5E9:
 .byte   N11 ,Fn1 ,v096
 .byte   W36
 .byte   N11
 .byte   W24
 .byte   N11
 .byte   W36
 .byte   PEND 
@ 036   ----------------------------------------
Label_1_0128D5F2:
 .byte   N11 ,Dn1 ,v096
 .byte   W36
 .byte   N11
 .byte   W60
 .byte   PEND 
@ 037   ----------------------------------------
 .byte   En1
 .byte   W36
 .byte   N11
 .byte   W24
 .byte   N11
 .byte   W36
 .byte   PATT
  .word Label_1_0128D5D2
@ 038   ----------------------------------------
 .byte   N11 ,An1 ,v096
 .byte   W36
 .byte   N11
 .byte   W24
 .byte   N11
 .byte   W36
 .byte   PATT
  .word Label_1_0128D5D2
 .byte   PATT
  .word Label_1_0128D5D9
 .byte   PATT
  .word Label_1_0128D5E2
 .byte   PATT
  .word Label_1_0128D5E9
 .byte   PATT
  .word Label_1_0128D5F2
@ 039   ----------------------------------------
 .byte   N11 ,Dn1 ,v096
 .byte   W36
 .byte   N11
 .byte   W24
 .byte   N11
 .byte   W36
@ 040   ----------------------------------------
 .byte   N92 ,En1 ,v064
 .byte   W96
@ 041   ----------------------------------------
Label_1_0128D631:
 .byte   W24
 .byte   N23 ,Gn4 ,v096
 .byte   W24
 .byte   Cn4
 .byte   W24
 .byte   En4
 .byte   W24
 .byte   PEND 
@ 042   ----------------------------------------
 .byte   N92 ,Dn4
 .byte   W96
 .byte   PATT
  .word Label_1_0128D631
@ 043   ----------------------------------------
Label_1_0128D643:
 .byte   N32 ,Dn4 ,v096
 .byte   W36
 .byte   N56 ,En4
 .byte   W60
 .byte   PEND 
@ 044   ----------------------------------------
Label_1_0128D64B:
 .byte   W24
 .byte   N23 ,Cn4 ,v096
 .byte   W24
 .byte   Dn4
 .byte   W24
 .byte   Bn3
 .byte   W24
 .byte   PEND 
@ 045   ----------------------------------------
 .byte   N44 ,Cn4
 .byte   W48
 .byte   Gn4
 .byte   W48
@ 046   ----------------------------------------
 .byte   N23
 .byte   W24
 .byte   Fn4
 .byte   W24
 .byte   En4
 .byte   W24
 .byte   N11 ,Dn4
 .byte   W12
 .byte   TIE ,En4
 .byte   W12
@ 047   ----------------------------------------
 .byte   W92
 .byte   W03
 .byte   EOT
 .byte   W01
 .byte   PATT
  .word Label_1_0128D631
@ 048   ----------------------------------------
 .byte   N92 ,Dn4 ,v096
 .byte   W96
 .byte   PATT
  .word Label_1_0128D631
 .byte   PATT
  .word Label_1_0128D643
 .byte   PATT
  .word Label_1_0128D64B
@ 049   ----------------------------------------
 .byte   N92 ,Cn4 ,v096
 .byte   W96
 .byte   PATT
  .word Label_1_0128D64B
@ 050   ----------------------------------------
 .byte   N32 ,Bn3 ,v096
 .byte   W36
 .byte   TIE ,An3
 .byte   W60
@ 051   ----------------------------------------
 .byte   W68
 .byte   W03
 .byte   EOT
 .byte   W24
 .byte   W01
@ 052   ----------------------------------------
 .byte   W96
@ 053   ----------------------------------------
 .byte   W96
@ 054   ----------------------------------------
 .byte   W96
@ 055   ----------------------------------------
 .byte   W96
@ 056   ----------------------------------------
 .byte   W96
@ 057   ----------------------------------------
 .byte   W96
@ 058   ----------------------------------------
 .byte   W96
@ 059   ----------------------------------------
 .byte   W96
@ 060   ----------------------------------------
 .byte   W96
@ 061   ----------------------------------------
 .byte   W96
@ 062   ----------------------------------------
 .byte   W96
@ 063   ----------------------------------------
 .byte   W96
@ 064   ----------------------------------------
 .byte   W96
@ 065   ----------------------------------------
 .byte   W96
@ 066   ----------------------------------------
 .byte   W96
@ 067   ----------------------------------------
 .byte   N92 ,Dn3 ,v064
 .byte   N92 ,Gs3
 .byte   W96
@ 068   ----------------------------------------
 .byte   W96
@ 069   ----------------------------------------
 .byte   W96
@ 070   ----------------------------------------
 .byte   W96
@ 071   ----------------------------------------
 .byte   W96
@ 072   ----------------------------------------
 .byte   W96
@ 073   ----------------------------------------
 .byte   W96
@ 074   ----------------------------------------
 .byte   W96
@ 075   ----------------------------------------
 .byte   W96
@ 076   ----------------------------------------
 .byte   W96
@ 077   ----------------------------------------
 .byte   W96
@ 078   ----------------------------------------
 .byte   W96
@ 079   ----------------------------------------
 .byte   W96
@ 080   ----------------------------------------
 .byte   W96
@ 081   ----------------------------------------
 .byte   W96
@ 082   ----------------------------------------
 .byte   W96
@ 083   ----------------------------------------
 .byte   W96
@ 084   ----------------------------------------
Label_1_0128D6BC:
 .byte   N32 ,Cn4 ,v080
 .byte   W36
 .byte   Bn3
 .byte   W36
 .byte   TIE ,En3
 .byte   W24
 .byte   PEND 
@ 085   ----------------------------------------
 .byte   W92
 .byte   W03
 .byte   EOT
 .byte   W01
@ 086   ----------------------------------------
Label_1_0128D6CA:
 .byte   W24
 .byte   N23 ,Cn4 ,v080
 .byte   W24
 .byte   Bn3
 .byte   W24
 .byte   N68 ,En3
 .byte   W24
 .byte   PEND 
@ 087   ----------------------------------------
 .byte   W48
 .byte   N44 ,Dn3
 .byte   W48
@ 088   ----------------------------------------
Label_1_0128D6D9:
 .byte   N23 ,Dn3 ,v080
 .byte   W24
 .byte   N11 ,En3
 .byte   W12
 .byte   N23
 .byte   W24
 .byte   N11 ,Fn3
 .byte   W12
 .byte   TIE ,En3
 .byte   W24
 .byte   PEND 
@ 089   ----------------------------------------
 .byte   W92
 .byte   W03
 .byte   EOT
 .byte   W01
@ 090   ----------------------------------------
 .byte   W96
@ 091   ----------------------------------------
 .byte   W72
 .byte   N23 ,Bn3
 .byte   W24
 .byte   PATT
  .word Label_1_0128D6BC
@ 092   ----------------------------------------
 .byte   W92
 .byte   W03
 .byte   EOT
 .byte   En3
 .byte   W01
 .byte   PATT
  .word Label_1_0128D6CA
@ 093   ----------------------------------------
 .byte   W48
 .byte   N44 ,Dn3 ,v080
 .byte   W48
 .byte   PATT
  .word Label_1_0128D6D9
@ 094   ----------------------------------------
 .byte   W92
 .byte   W03
 .byte   EOT
 .byte   En3
 .byte   W01
@ 095   ----------------------------------------
 .byte   W96
@ 096   ----------------------------------------
Label_1_0128D711:
 .byte   N32 ,Cn4 ,v080
 .byte   W36
 .byte   Dn4
 .byte   W36
 .byte   N23 ,Bn3
 .byte   W24
 .byte   PEND 
@ 097   ----------------------------------------
 .byte   N92 ,Cn4
 .byte   W96
 .byte   PATT
  .word Label_1_0128D711
@ 098   ----------------------------------------
 .byte   N92 ,Gn3 ,v080
 .byte   W96
 .byte   PATT
  .word Label_1_0128D711
@ 099   ----------------------------------------
 .byte   N44 ,Cn4 ,v080
 .byte   W48
 .byte   Gn4
 .byte   W48
@ 100   ----------------------------------------
 .byte   N23
 .byte   W24
 .byte   Fn4
 .byte   W24
 .byte   En4
 .byte   W24
 .byte   N11 ,Dn4
 .byte   W12
 .byte   TIE ,En4
 .byte   W12
@ 101   ----------------------------------------
 .byte   W92
 .byte   W03
 .byte   EOT
 .byte   W01
 .byte   PATT
  .word Label_1_0128D711
@ 102   ----------------------------------------
 .byte   N92 ,Cn4 ,v080
 .byte   W96
 .byte   PATT
  .word Label_1_0128D711
@ 103   ----------------------------------------
 .byte   N44 ,Gn3 ,v080
 .byte   W48
 .byte   Gn4
 .byte   W48
@ 104   ----------------------------------------
 .byte   N23
 .byte   W24
 .byte   Fn4
 .byte   W24
 .byte   En4
 .byte   W24
 .byte   Dn4
 .byte   W24
@ 105   ----------------------------------------
 .byte   N44 ,Cn4
 .byte   W48
 .byte   En4
 .byte   W48
@ 106   ----------------------------------------
 .byte   Dn4
 .byte   W48
 .byte   Cn4
 .byte   W48
@ 107   ----------------------------------------
 .byte   N32 ,Bn3
 .byte   W36
 .byte   TIE ,An3
 .byte   W60
@ 108   ----------------------------------------
 .byte   W92
 .byte   W03
 .byte   EOT
 .byte   W01
@ 109   ----------------------------------------
 .byte   W96
@ 110   ----------------------------------------
 .byte   W96
@ 111   ----------------------------------------
 .byte   W96
@ 112   ----------------------------------------
 .byte   W96
@ 113   ----------------------------------------
 .byte   W96
@ 114   ----------------------------------------
 .byte   W96
@ 115   ----------------------------------------
 .byte   W96
@ 116   ----------------------------------------
 .byte   W96
@ 117   ----------------------------------------
 .byte   W96
@ 118   ----------------------------------------
 .byte   W96
@ 119   ----------------------------------------
 .byte   W96
@ 120   ----------------------------------------
 .byte   W96
@ 121   ----------------------------------------
 .byte   W96
@ 122   ----------------------------------------
 .byte   W96
@ 123   ----------------------------------------
 .byte   W96
@ 124   ----------------------------------------
 .byte   W96
@ 125   ----------------------------------------
 .byte   W96
@ 126   ----------------------------------------
 .byte   W96
@ 127   ----------------------------------------
 .byte   W96
@ 128   ----------------------------------------
 .byte   W96
@ 129   ----------------------------------------
 .byte   W96
@ 130   ----------------------------------------
 .byte   W96
@ 131   ----------------------------------------
 .byte   W96
@ 132   ----------------------------------------
 .byte   W96
@ 133   ----------------------------------------
 .byte   W96
@ 134   ----------------------------------------
Label_1_0128D78A:
 .byte   N32 ,Cs4 ,v052
 .byte   W36
 .byte   Ds4
 .byte   W36
 .byte   N23 ,Cn4
 .byte   W24
 .byte   PEND 
@ 135   ----------------------------------------
 .byte   N92 ,Cs4
 .byte   W96
 .byte   PATT
  .word Label_1_0128D78A
@ 136   ----------------------------------------
 .byte   N44 ,Gs3 ,v052
 .byte   W48
 .byte   Gs4
 .byte   W48
@ 137   ----------------------------------------
 .byte   N23
 .byte   W24
 .byte   Fs4
 .byte   W24
 .byte   Fn4
 .byte   W24
 .byte   Ds4
 .byte   W24
@ 138   ----------------------------------------
 .byte   N44 ,Cs4
 .byte   W48
 .byte   Fn4
 .byte   W48
@ 139   ----------------------------------------
 .byte   Ds4
 .byte   W48
 .byte   TIE ,Cs4
 .byte   W48
@ 140   ----------------------------------------
 .byte   W92
 .byte   W03
 .byte   EOT
 .byte   W01
@ 141   ----------------------------------------
Label_1_0128D7B8:
 .byte   N32 ,Cs4 ,v096
 .byte   W36
 .byte   Ds4
 .byte   W36
 .byte   N23 ,Cn4
 .byte   W24
 .byte   PEND 
@ 142   ----------------------------------------
 .byte   N92 ,Cs4
 .byte   W96
 .byte   PATT
  .word Label_1_0128D7B8
@ 143   ----------------------------------------
 .byte   N92 ,Gs3 ,v096
 .byte   W96
 .byte   PATT
  .word Label_1_0128D7B8
@ 144   ----------------------------------------
 .byte   N44 ,Cs4 ,v096
 .byte   W48
 .byte   Gs4
 .byte   W48
@ 145   ----------------------------------------
 .byte   N23
 .byte   W24
 .byte   Fs4
 .byte   W24
 .byte   Fn4
 .byte   W24
 .byte   N11 ,Ds4
 .byte   W12
 .byte   TIE ,Fn4
 .byte   W12
@ 146   ----------------------------------------
 .byte   W92
 .byte   W03
 .byte   EOT
 .byte   W01
 .byte   PATT
  .word Label_1_0128D7B8
@ 147   ----------------------------------------
 .byte   N92 ,Cs4 ,v096
 .byte   W96
 .byte   PATT
  .word Label_1_0128D7B8
@ 148   ----------------------------------------
 .byte   N44 ,Gs3 ,v096
 .byte   W48
 .byte   Gs4
 .byte   W48
@ 149   ----------------------------------------
 .byte   N23
 .byte   W24
 .byte   Fs4
 .byte   W24
 .byte   Fn4
 .byte   W24
 .byte   Ds4
 .byte   W24
@ 150   ----------------------------------------
 .byte   N44 ,Cs4
 .byte   W48
 .byte   Fn4
 .byte   W48
@ 151   ----------------------------------------
 .byte   Ds4
 .byte   W48
 .byte   Cs4
 .byte   W48
@ 152   ----------------------------------------
 .byte   N32 ,Cn4
 .byte   W36
 .byte   TIE ,As3
 .byte   W60
@ 153   ----------------------------------------
 .byte   W92
 .byte   W03
 .byte   EOT
 .byte   W01
@ 154   ----------------------------------------
 .byte   W96
@ 155   ----------------------------------------
 .byte   W96
@ 156   ----------------------------------------
 .byte   W96
@ 157   ----------------------------------------
 .byte   W96
@ 158   ----------------------------------------
 .byte   W96
@ 159   ----------------------------------------
 .byte   W96
@ 160   ----------------------------------------
 .byte   W96
@ 161   ----------------------------------------
 .byte   W96
@ 162   ----------------------------------------
 .byte   W96
@ 163   ----------------------------------------
 .byte   W96
@ 164   ----------------------------------------
 .byte   GOTO
  .word Label_1_0128D492
 .byte   FINE

@**************** Track 3 (Midi-Chn.2) ****************@

song0E_003:
@ 000   ----------------------------------------
 .byte   KEYSH , song0E_key+0
Label_2_0128D82A:
 .byte   VOICE , 45
 .byte   VOL , 51*song0E_mvl/mxv
 .byte   PAN , c_v-10
 .byte   VOL , 51*song0E_mvl/mxv
 .byte   PAN , c_v+0
 .byte   VOL , 51*song0E_mvl/mxv
 .byte   PAN , c_v+6
 .byte   VOL , 51*song0E_mvl/mxv
 .byte   PAN , c_v+0
 .byte   VOL , 51*song0E_mvl/mxv
 .byte   PAN , c_v+0
 .byte   W48
Label_2_0128D841:
 .byte   W24
 .byte   N23 ,Cn4 ,v080
 .byte   W24
@ 001   ----------------------------------------
 .byte   Dn4
 .byte   W24
 .byte   Bn3
 .byte   W24
 .byte   PEND 
 .byte   N92 ,Cn4
 .byte   W96
 .byte   PATT
  .word Label_2_0128D841
@ 002   ----------------------------------------
 .byte   N92 ,Gn3 ,v080
 .byte   W96
 .byte   PATT
  .word Label_2_0128D841
@ 003   ----------------------------------------
Label_2_0128D85C:
 .byte   N44 ,Cn4 ,v080
 .byte   W48
 .byte   Gn4
 .byte   W48
 .byte   PEND 
@ 004   ----------------------------------------
 .byte   N44
 .byte   W48
 .byte   Fn4
 .byte   W48
@ 005   ----------------------------------------
 .byte   En4
 .byte   W48
 .byte   Dn4
 .byte   W48
@ 006   ----------------------------------------
 .byte   W96
@ 007   ----------------------------------------
 .byte   W96
@ 008   ----------------------------------------
 .byte   W96
@ 009   ----------------------------------------
 .byte   W96
@ 010   ----------------------------------------
 .byte   W96
@ 011   ----------------------------------------
 .byte   W96
@ 012   ----------------------------------------
 .byte   W96
@ 013   ----------------------------------------
 .byte   W96
@ 014   ----------------------------------------
 .byte   W96
@ 015   ----------------------------------------
 .byte   W96
@ 016   ----------------------------------------
 .byte   W96
@ 017   ----------------------------------------
 .byte   W96
@ 018   ----------------------------------------
 .byte   W96
@ 019   ----------------------------------------
 .byte   W96
@ 020   ----------------------------------------
 .byte   W96
@ 021   ----------------------------------------
 .byte   W96
@ 022   ----------------------------------------
 .byte   W96
@ 023   ----------------------------------------
 .byte   W96
@ 024   ----------------------------------------
 .byte   W96
@ 025   ----------------------------------------
 .byte   W96
@ 026   ----------------------------------------
 .byte   W96
@ 027   ----------------------------------------
 .byte   W96
@ 028   ----------------------------------------
 .byte   W96
@ 029   ----------------------------------------
 .byte   W96
@ 030   ----------------------------------------
 .byte   W96
@ 031   ----------------------------------------
 .byte   W96
@ 032   ----------------------------------------
 .byte   W96
@ 033   ----------------------------------------
 .byte   W96
@ 034   ----------------------------------------
 .byte   W96
@ 035   ----------------------------------------
 .byte   W96
@ 036   ----------------------------------------
 .byte   W96
@ 037   ----------------------------------------
 .byte   W96
@ 038   ----------------------------------------
 .byte   W96
@ 039   ----------------------------------------
 .byte   W96
@ 040   ----------------------------------------
 .byte   W96
@ 041   ----------------------------------------
 .byte   W96
@ 042   ----------------------------------------
 .byte   W96
@ 043   ----------------------------------------
 .byte   W96
@ 044   ----------------------------------------
 .byte   W96
@ 045   ----------------------------------------
Label_2_0128D892:
 .byte   W24
 .byte   N23 ,Gn4 ,v080
 .byte   W24
 .byte   Cn4
 .byte   W24
 .byte   En4
 .byte   W24
 .byte   PEND 
@ 046   ----------------------------------------
 .byte   N92 ,Dn4
 .byte   W96
 .byte   PATT
  .word Label_2_0128D892
@ 047   ----------------------------------------
Label_2_0128D8A4:
 .byte   N32 ,Dn4 ,v080
 .byte   W36
 .byte   N56 ,En4
 .byte   W60
 .byte   PEND 
 .byte   PATT
  .word Label_2_0128D841
 .byte   PATT
  .word Label_2_0128D85C
@ 048   ----------------------------------------
 .byte   N23 ,Gn4 ,v080
 .byte   W24
 .byte   Fn4
 .byte   W24
 .byte   En4
 .byte   W24
 .byte   N11 ,Dn4
 .byte   W12
 .byte   TIE ,En4
 .byte   W12
@ 049   ----------------------------------------
 .byte   W92
 .byte   W03
 .byte   EOT
 .byte   W01
 .byte   PATT
  .word Label_2_0128D892
@ 050   ----------------------------------------
 .byte   N92 ,Dn4 ,v080
 .byte   W96
 .byte   PATT
  .word Label_2_0128D892
 .byte   PATT
  .word Label_2_0128D8A4
 .byte   PATT
  .word Label_2_0128D841
@ 051   ----------------------------------------
 .byte   N92 ,Cn4 ,v080
 .byte   W96
 .byte   PATT
  .word Label_2_0128D841
@ 052   ----------------------------------------
 .byte   N32 ,Bn3 ,v080
 .byte   W36
 .byte   TIE ,An3
 .byte   W60
@ 053   ----------------------------------------
 .byte   W68
 .byte   W03
 .byte   EOT
 .byte   W24
 .byte   W01
@ 054   ----------------------------------------
 .byte   W96
@ 055   ----------------------------------------
 .byte   W96
@ 056   ----------------------------------------
 .byte   W96
@ 057   ----------------------------------------
 .byte   W96
@ 058   ----------------------------------------
 .byte   W96
@ 059   ----------------------------------------
 .byte   W96
@ 060   ----------------------------------------
 .byte   W96
@ 061   ----------------------------------------
 .byte   W96
@ 062   ----------------------------------------
 .byte   W96
@ 063   ----------------------------------------
 .byte   W96
@ 064   ----------------------------------------
 .byte   W96
@ 065   ----------------------------------------
 .byte   W96
@ 066   ----------------------------------------
 .byte   W96
@ 067   ----------------------------------------
 .byte   W96
@ 068   ----------------------------------------
 .byte   W96
@ 069   ----------------------------------------
 .byte   W96
@ 070   ----------------------------------------
Label_2_0128D905:
 .byte   N32 ,An2 ,v064
 .byte   N32 ,Cn3
 .byte   N32 ,En3
 .byte   W36
 .byte   N11 ,An2
 .byte   N11 ,Cn3
 .byte   N11 ,En3
 .byte   W36
 .byte   N32 ,An2
 .byte   N32 ,Cn3
 .byte   N32 ,En3
 .byte   W24
 .byte   PEND 
@ 071   ----------------------------------------
Label_2_0128D91C:
 .byte   W12
 .byte   N11 ,An2 ,v064
 .byte   N11 ,Cn3
 .byte   N11 ,En3
 .byte   W84
 .byte   PEND 
@ 072   ----------------------------------------
 .byte   N32 ,Gn2
 .byte   N32 ,Bn2
 .byte   N12 ,Dn3
 .byte   W36
 .byte   N11 ,Gn2
 .byte   N11 ,Bn2
 .byte   N11 ,Dn3
 .byte   W36
 .byte   N32 ,An2
 .byte   N32 ,Cn3
 .byte   N32 ,En3
 .byte   W24
@ 073   ----------------------------------------
 .byte   W12
 .byte   N11 ,An2
 .byte   N11 ,Bn2
 .byte   N11 ,En3
 .byte   W84
 .byte   PATT
  .word Label_2_0128D905
 .byte   PATT
  .word Label_2_0128D91C
@ 074   ----------------------------------------
 .byte   N32 ,Dn4 ,v064
 .byte   N32 ,Gn4
 .byte   N32 ,Bn4
 .byte   W36
 .byte   N11 ,Dn4
 .byte   N11 ,Gn4
 .byte   N11 ,Bn4
 .byte   W36
 .byte   N68 ,Bn3
 .byte   N68 ,Dn4
 .byte   N68 ,Gn4
 .byte   W24
@ 075   ----------------------------------------
 .byte   W48
 .byte   N44 ,Gn3
 .byte   N44 ,Bn3
 .byte   N44 ,Dn4
 .byte   W48
@ 076   ----------------------------------------
 .byte   W96
@ 077   ----------------------------------------
 .byte   W24
 .byte   N17 ,En3
 .byte   N17 ,Gn3
 .byte   N17 ,Cn4
 .byte   W18
 .byte   N05 ,En3
 .byte   N05 ,Gn3
 .byte   N05 ,Cn4
 .byte   W18
 .byte   N17 ,En3
 .byte   N17 ,Gn3
 .byte   N17 ,Cn4
 .byte   W18
 .byte   N05 ,En3
 .byte   N05 ,Gn3
 .byte   N05 ,Cn4
 .byte   W18
@ 078   ----------------------------------------
 .byte   W96
@ 079   ----------------------------------------
 .byte   W24
 .byte   N11 ,Bn2
 .byte   N11 ,Dn3
 .byte   N11 ,Bn3
 .byte   W12
 .byte   N05 ,Bn2
 .byte   N05 ,Dn3
 .byte   N05 ,Bn3
 .byte   W06
 .byte   Bn2
 .byte   N05 ,Dn3
 .byte   N05 ,Bn3
 .byte   W18
 .byte   N17 ,Bn2
 .byte   N17 ,Dn3
 .byte   N17 ,Gn3
 .byte   W18
 .byte   Bn2
 .byte   N17 ,Dn3
 .byte   N17 ,Gn3
 .byte   W18
@ 080   ----------------------------------------
 .byte   W96
@ 081   ----------------------------------------
 .byte   W96
@ 082   ----------------------------------------
 .byte   W96
@ 083   ----------------------------------------
 .byte   W96
@ 084   ----------------------------------------
 .byte   N32 ,Cn4 ,v080
 .byte   W36
 .byte   Bn3
 .byte   W36
 .byte   TIE ,En3
 .byte   W24
@ 085   ----------------------------------------
 .byte   W92
 .byte   W03
 .byte   EOT
 .byte   W01
@ 086   ----------------------------------------
 .byte   W24
 .byte   N23 ,Cn4
 .byte   W24
 .byte   Bn3
 .byte   W24
 .byte   N68 ,En3
 .byte   W24
@ 087   ----------------------------------------
 .byte   W48
 .byte   N44 ,Dn3
 .byte   W48
@ 088   ----------------------------------------
 .byte   N23
 .byte   W24
 .byte   N11 ,En3
 .byte   W12
 .byte   N23
 .byte   W24
 .byte   N11 ,Fn3
 .byte   W12
 .byte   TIE ,En3
 .byte   W24
@ 089   ----------------------------------------
 .byte   W92
 .byte   W03
 .byte   EOT
 .byte   W01
@ 090   ----------------------------------------
 .byte   W96
@ 091   ----------------------------------------
 .byte   W96
@ 092   ----------------------------------------
 .byte   W96
@ 093   ----------------------------------------
 .byte   W96
@ 094   ----------------------------------------
 .byte   W96
@ 095   ----------------------------------------
 .byte   W96
@ 096   ----------------------------------------
 .byte   W96
@ 097   ----------------------------------------
 .byte   W96
@ 098   ----------------------------------------
 .byte   W96
@ 099   ----------------------------------------
 .byte   W96
@ 100   ----------------------------------------
Label_2_0128D9E5:
 .byte   N32 ,An2 ,v080
 .byte   N32 ,Cn3
 .byte   W36
 .byte   N23 ,An2
 .byte   N23 ,Cn3
 .byte   W24
 .byte   N32 ,An2
 .byte   N32 ,Cn3
 .byte   W36
 .byte   PEND 
@ 101   ----------------------------------------
Label_2_0128D9F6:
 .byte   N32 ,Gn2 ,v080
 .byte   N32 ,Cn3
 .byte   W36
 .byte   N23 ,Gn2
 .byte   N23 ,Bn2
 .byte   W24
 .byte   N32 ,Gn2
 .byte   N32 ,Bn2
 .byte   W36
 .byte   PEND 
 .byte   PATT
  .word Label_2_0128D9E5
 .byte   PATT
  .word Label_2_0128D9F6
 .byte   PATT
  .word Label_2_0128D9E5
 .byte   PATT
  .word Label_2_0128D9E5
 .byte   PATT
  .word Label_2_0128D9E5
 .byte   PATT
  .word Label_2_0128D9F6
 .byte   PATT
  .word Label_2_0128D9E5
 .byte   PATT
  .word Label_2_0128D9E5
 .byte   PATT
  .word Label_2_0128D9E5
 .byte   PATT
  .word Label_2_0128D9F6
 .byte   PATT
  .word Label_2_0128D9E5
@ 102   ----------------------------------------
 .byte   N32 ,Gs2 ,v080
 .byte   N32 ,Bn2
 .byte   W36
 .byte   N23 ,Gs2
 .byte   N23 ,Bn2
 .byte   W24
 .byte   N32 ,Gs2
 .byte   N32 ,Bn2
 .byte   W36
 .byte   PATT
  .word Label_2_0128D9E5
@ 103   ----------------------------------------
 .byte   N32 ,Gn2 ,v080
 .byte   N32 ,Cn3
 .byte   W36
 .byte   N23 ,Gn2
 .byte   N23 ,Cn3
 .byte   W24
 .byte   N32 ,Gn2
 .byte   N32 ,Cn3
 .byte   W36
@ 104   ----------------------------------------
 .byte   W96
@ 105   ----------------------------------------
 .byte   W96
@ 106   ----------------------------------------
 .byte   W96
@ 107   ----------------------------------------
 .byte   W96
@ 108   ----------------------------------------
 .byte   W96
@ 109   ----------------------------------------
 .byte   W96
@ 110   ----------------------------------------
 .byte   W96
@ 111   ----------------------------------------
 .byte   W96
@ 112   ----------------------------------------
 .byte   W96
@ 113   ----------------------------------------
 .byte   W96
@ 114   ----------------------------------------
 .byte   W96
@ 115   ----------------------------------------
 .byte   W96
@ 116   ----------------------------------------
 .byte   W96
@ 117   ----------------------------------------
 .byte   W96
@ 118   ----------------------------------------
 .byte   W96
@ 119   ----------------------------------------
 .byte   W96
@ 120   ----------------------------------------
 .byte   W96
@ 121   ----------------------------------------
 .byte   W96
@ 122   ----------------------------------------
 .byte   W96
@ 123   ----------------------------------------
 .byte   W96
@ 124   ----------------------------------------
 .byte   W96
@ 125   ----------------------------------------
 .byte   W96
@ 126   ----------------------------------------
 .byte   W96
@ 127   ----------------------------------------
 .byte   W96
@ 128   ----------------------------------------
 .byte   W96
@ 129   ----------------------------------------
 .byte   W96
@ 130   ----------------------------------------
 .byte   W96
@ 131   ----------------------------------------
 .byte   W96
@ 132   ----------------------------------------
 .byte   W96
@ 133   ----------------------------------------
 .byte   W96
@ 134   ----------------------------------------
 .byte   W96
@ 135   ----------------------------------------
 .byte   W96
@ 136   ----------------------------------------
 .byte   W96
@ 137   ----------------------------------------
 .byte   W96
@ 138   ----------------------------------------
 .byte   W96
@ 139   ----------------------------------------
 .byte   W96
@ 140   ----------------------------------------
 .byte   W96
@ 141   ----------------------------------------
 .byte   W96
@ 142   ----------------------------------------
 .byte   W96
@ 143   ----------------------------------------
 .byte   W96
@ 144   ----------------------------------------
 .byte   W96
@ 145   ----------------------------------------
 .byte   W96
@ 146   ----------------------------------------
 .byte   W96
@ 147   ----------------------------------------
 .byte   W96
@ 148   ----------------------------------------
 .byte   W96
@ 149   ----------------------------------------
 .byte   W96
@ 150   ----------------------------------------
 .byte   W96
@ 151   ----------------------------------------
 .byte   W96
@ 152   ----------------------------------------
 .byte   W96
@ 153   ----------------------------------------
 .byte   W96
@ 154   ----------------------------------------
 .byte   W48
 .byte   N44 ,Cs4 ,v052
 .byte   W48
@ 155   ----------------------------------------
 .byte   N32 ,Cn4
 .byte   W36
 .byte   Cs4
 .byte   W36
 .byte   N23 ,Ds4
 .byte   W24
@ 156   ----------------------------------------
 .byte   N44 ,Fn4
 .byte   W48
 .byte   Gs4
 .byte   W48
@ 157   ----------------------------------------
 .byte   N32 ,Ds4
 .byte   W36
 .byte   Cs4
 .byte   W36
 .byte   N23 ,Cn4
 .byte   W24
@ 158   ----------------------------------------
 .byte   W48
 .byte   N44 ,Cs4
 .byte   W48
@ 159   ----------------------------------------
 .byte   N32
 .byte   W36
 .byte   Ds4
 .byte   W36
 .byte   N23 ,Cs4
 .byte   W24
@ 160   ----------------------------------------
 .byte   TIE ,Cn4
 .byte   W96
@ 161   ----------------------------------------
 .byte   W92
 .byte   W03
 .byte   EOT
 .byte   W01
@ 162   ----------------------------------------
 .byte   TIE ,Dn4
 .byte   W96
@ 163   ----------------------------------------
 .byte   W92
 .byte   W03
 .byte   EOT
 .byte   W01
@ 164   ----------------------------------------
 .byte   GOTO
  .word Label_2_0128D82A
 .byte   FINE

@**************** Track 4 (Midi-Chn.3) ****************@

song0E_004:
@ 000   ----------------------------------------
 .byte   KEYSH , song0E_key+0
Label_3_0128DAD2:
 .byte   VOICE , 45
 .byte   VOL , 51*song0E_mvl/mxv
 .byte   PAN , c_v+8
 .byte   VOL , 51*song0E_mvl/mxv
 .byte   PAN , c_v+0
 .byte   VOL , 51*song0E_mvl/mxv
 .byte   PAN , c_v+0
 .byte   VOL , 51*song0E_mvl/mxv
 .byte   PAN , c_v+0
 .byte   VOL , 51*song0E_mvl/mxv
 .byte   PAN , c_v+0
 .byte   W48
 .byte   W24
 .byte   N23 ,Cn3 ,v080
 .byte   W24
@ 001   ----------------------------------------
 .byte   Dn3
 .byte   W24
 .byte   Bn2
 .byte   W24
 .byte   N44 ,Gn2
 .byte   N48 ,Cn3
 .byte   W48
@ 002   ----------------------------------------
 .byte   N23
 .byte   W24
 .byte   Bn2
 .byte   W24
 .byte   N44
 .byte   W24
 .byte   N23 ,Cn3
 .byte   W24
@ 003   ----------------------------------------
 .byte   TIE ,An2
 .byte   N23 ,Dn3
 .byte   W24
 .byte   Bn2
 .byte   W24
 .byte   N92 ,Gn2
 .byte   W56
@ 004   ----------------------------------------
 .byte   W03
 .byte   EOT
 .byte   An2
 .byte   W01
 .byte   N11 ,Bn2
 .byte   W12
 .byte   Cn3
 .byte   W12
 .byte   Dn3
 .byte   W12
 .byte   N44 ,Gn3
 .byte   W24
 .byte   N23 ,Cn3
 .byte   W24
 .byte   Dn3
 .byte   N44 ,Gn3
 .byte   W24
@ 005   ----------------------------------------
 .byte   N23 ,Bn2
 .byte   W24
 .byte   N44 ,Cn3
 .byte   W48
 .byte   Gn3
 .byte   W24
@ 006   ----------------------------------------
 .byte   N23 ,En3
 .byte   W24
 .byte   N44 ,Dn3
 .byte   N44 ,Gn3
 .byte   W48
 .byte   Fn3
 .byte   W48
@ 007   ----------------------------------------
 .byte   En3
 .byte   W48
 .byte   Dn3
 .byte   W48
@ 008   ----------------------------------------
 .byte   W96
@ 009   ----------------------------------------
 .byte   W96
@ 010   ----------------------------------------
 .byte   W96
@ 011   ----------------------------------------
 .byte   W96
@ 012   ----------------------------------------
 .byte   W96
@ 013   ----------------------------------------
 .byte   W96
@ 014   ----------------------------------------
 .byte   W96
@ 015   ----------------------------------------
 .byte   W96
@ 016   ----------------------------------------
 .byte   W96
@ 017   ----------------------------------------
 .byte   W96
@ 018   ----------------------------------------
 .byte   W96
@ 019   ----------------------------------------
 .byte   W96
@ 020   ----------------------------------------
 .byte   W96
@ 021   ----------------------------------------
 .byte   W96
@ 022   ----------------------------------------
 .byte   W96
@ 023   ----------------------------------------
 .byte   W96
@ 024   ----------------------------------------
 .byte   W96
@ 025   ----------------------------------------
 .byte   W96
@ 026   ----------------------------------------
 .byte   W96
@ 027   ----------------------------------------
 .byte   W96
@ 028   ----------------------------------------
 .byte   W96
@ 029   ----------------------------------------
 .byte   W96
@ 030   ----------------------------------------
 .byte   W96
@ 031   ----------------------------------------
 .byte   W96
@ 032   ----------------------------------------
 .byte   W96
@ 033   ----------------------------------------
 .byte   W96
@ 034   ----------------------------------------
 .byte   W96
@ 035   ----------------------------------------
 .byte   W96
@ 036   ----------------------------------------
 .byte   W96
@ 037   ----------------------------------------
 .byte   W96
@ 038   ----------------------------------------
 .byte   W96
@ 039   ----------------------------------------
 .byte   W96
@ 040   ----------------------------------------
 .byte   W96
@ 041   ----------------------------------------
 .byte   W96
@ 042   ----------------------------------------
 .byte   W96
@ 043   ----------------------------------------
 .byte   W96
@ 044   ----------------------------------------
 .byte   W96
@ 045   ----------------------------------------
 .byte   W96
@ 046   ----------------------------------------
 .byte   W96
@ 047   ----------------------------------------
 .byte   W96
@ 048   ----------------------------------------
 .byte   W96
@ 049   ----------------------------------------
 .byte   W96
@ 050   ----------------------------------------
 .byte   W96
@ 051   ----------------------------------------
 .byte   W96
@ 052   ----------------------------------------
 .byte   W96
@ 053   ----------------------------------------
 .byte   W96
@ 054   ----------------------------------------
 .byte   W96
@ 055   ----------------------------------------
Label_3_0128DB64:
 .byte   W24
 .byte   N23 ,Gn3 ,v064
 .byte   W24
 .byte   Cn3
 .byte   W24
 .byte   En3
 .byte   W24
 .byte   PEND 
@ 056   ----------------------------------------
 .byte   N92 ,Dn3
 .byte   W96
 .byte   PATT
  .word Label_3_0128DB64
@ 057   ----------------------------------------
 .byte   N32 ,Dn3 ,v064
 .byte   W36
 .byte   N56 ,En3
 .byte   W60
@ 058   ----------------------------------------
Label_3_0128DB7D:
 .byte   W24
 .byte   N23 ,Cn3 ,v064
 .byte   W24
 .byte   Dn3
 .byte   W24
 .byte   Bn2
 .byte   W24
 .byte   PEND 
@ 059   ----------------------------------------
 .byte   N92 ,Cn3
 .byte   W96
 .byte   PATT
  .word Label_3_0128DB7D
@ 060   ----------------------------------------
 .byte   N32 ,Bn2 ,v064
 .byte   W36
 .byte   TIE ,An2
 .byte   W60
@ 061   ----------------------------------------
 .byte   W68
 .byte   W03
 .byte   EOT
 .byte   W24
 .byte   W01
@ 062   ----------------------------------------
 .byte   W96
@ 063   ----------------------------------------
 .byte   W96
@ 064   ----------------------------------------
 .byte   W96
@ 065   ----------------------------------------
 .byte   W96
@ 066   ----------------------------------------
 .byte   W96
@ 067   ----------------------------------------
 .byte   W96
@ 068   ----------------------------------------
 .byte   W96
@ 069   ----------------------------------------
 .byte   W96
@ 070   ----------------------------------------
 .byte   W96
@ 071   ----------------------------------------
 .byte   W96
@ 072   ----------------------------------------
 .byte   W96
@ 073   ----------------------------------------
 .byte   W96
@ 074   ----------------------------------------
 .byte   W96
@ 075   ----------------------------------------
 .byte   W96
@ 076   ----------------------------------------
 .byte   W96
@ 077   ----------------------------------------
 .byte   W72
 .byte   N11 ,An3 ,v080
 .byte   W12
 .byte   Bn3
 .byte   W12
@ 078   ----------------------------------------
Label_3_0128DBB1:
 .byte   N56 ,Cn4 ,v080
 .byte   W60
 .byte   N11 ,Bn3
 .byte   W12
 .byte   An3
 .byte   W12
 .byte   Gn3
 .byte   W12
 .byte   PEND 
@ 079   ----------------------------------------
Label_3_0128DBBD:
 .byte   N56 ,An3 ,v080
 .byte   W60
 .byte   N11 ,Gn3
 .byte   W12
 .byte   Fn3
 .byte   W12
 .byte   En3
 .byte   W12
 .byte   PEND 
@ 080   ----------------------------------------
 .byte   Dn3
 .byte   W12
 .byte   N05
 .byte   W06
 .byte   Ds3
 .byte   W06
 .byte   N11 ,En3
 .byte   W12
 .byte   TIE
 .byte   W60
@ 081   ----------------------------------------
 .byte   W44
 .byte   W03
 .byte   EOT
 .byte   W24
 .byte   W01
 .byte   N11 ,An3
 .byte   W12
 .byte   Bn3
 .byte   W12
 .byte   PATT
  .word Label_3_0128DBB1
@ 082   ----------------------------------------
 .byte   N56 ,An3 ,v080
 .byte   W60
 .byte   N11 ,Bn3
 .byte   W12
 .byte   Cn4
 .byte   W12
 .byte   Dn4
 .byte   W12
@ 083   ----------------------------------------
 .byte   N23 ,Bn3
 .byte   W24
 .byte   N11 ,Gn3
 .byte   W12
 .byte   TIE
 .byte   W60
@ 084   ----------------------------------------
 .byte   W44
 .byte   W03
 .byte   EOT
 .byte   W13
 .byte   N11 ,An3
 .byte   W12
 .byte   N11
 .byte   W12
 .byte   Bn3
 .byte   W12
 .byte   PATT
  .word Label_3_0128DBB1
 .byte   PATT
  .word Label_3_0128DBBD
@ 085   ----------------------------------------
 .byte   N23 ,Dn3 ,v080
 .byte   W24
 .byte   N11 ,En3
 .byte   W12
 .byte   N23
 .byte   W24
 .byte   N11 ,Fn3
 .byte   W12
 .byte   N68 ,En3
 .byte   W24
@ 086   ----------------------------------------
 .byte   W72
 .byte   N11
 .byte   W12
 .byte   Fn3
 .byte   W12
@ 087   ----------------------------------------
 .byte   N23 ,Gn3
 .byte   W24
 .byte   N11 ,Fn3
 .byte   W12
 .byte   N23
 .byte   W24
 .byte   N11 ,En3
 .byte   W12
 .byte   N68
 .byte   W24
@ 088   ----------------------------------------
 .byte   W48
 .byte   N44 ,Dn3
 .byte   W48
@ 089   ----------------------------------------
 .byte   N23
 .byte   W24
 .byte   N11 ,En3
 .byte   W12
 .byte   TIE
 .byte   W60
@ 090   ----------------------------------------
 .byte   W92
 .byte   W03
 .byte   EOT
 .byte   W01
@ 091   ----------------------------------------
 .byte   W96
@ 092   ----------------------------------------
 .byte   W96
@ 093   ----------------------------------------
 .byte   W96
@ 094   ----------------------------------------
 .byte   W96
@ 095   ----------------------------------------
 .byte   W96
@ 096   ----------------------------------------
 .byte   W96
@ 097   ----------------------------------------
 .byte   W96
@ 098   ----------------------------------------
 .byte   W96
@ 099   ----------------------------------------
 .byte   W96
@ 100   ----------------------------------------
 .byte   W96
@ 101   ----------------------------------------
 .byte   W96
@ 102   ----------------------------------------
 .byte   W96
@ 103   ----------------------------------------
 .byte   W96
@ 104   ----------------------------------------
 .byte   W96
@ 105   ----------------------------------------
 .byte   W96
@ 106   ----------------------------------------
 .byte   W96
@ 107   ----------------------------------------
 .byte   W96
@ 108   ----------------------------------------
 .byte   W96
@ 109   ----------------------------------------
 .byte   W96
@ 110   ----------------------------------------
 .byte   W96
@ 111   ----------------------------------------
 .byte   W96
@ 112   ----------------------------------------
 .byte   W96
@ 113   ----------------------------------------
 .byte   W96
@ 114   ----------------------------------------
 .byte   W96
@ 115   ----------------------------------------
 .byte   W96
@ 116   ----------------------------------------
 .byte   W96
@ 117   ----------------------------------------
 .byte   W96
@ 118   ----------------------------------------
 .byte   W96
@ 119   ----------------------------------------
 .byte   W96
@ 120   ----------------------------------------
 .byte   W96
@ 121   ----------------------------------------
 .byte   W96
@ 122   ----------------------------------------
 .byte   W96
@ 123   ----------------------------------------
 .byte   W96
@ 124   ----------------------------------------
 .byte   W96
@ 125   ----------------------------------------
 .byte   W96
@ 126   ----------------------------------------
 .byte   W96
@ 127   ----------------------------------------
 .byte   W96
@ 128   ----------------------------------------
 .byte   W96
@ 129   ----------------------------------------
 .byte   W96
@ 130   ----------------------------------------
 .byte   W96
@ 131   ----------------------------------------
 .byte   W96
@ 132   ----------------------------------------
 .byte   W96
@ 133   ----------------------------------------
 .byte   W96
@ 134   ----------------------------------------
 .byte   W96
@ 135   ----------------------------------------
 .byte   W96
@ 136   ----------------------------------------
 .byte   W96
@ 137   ----------------------------------------
 .byte   W96
@ 138   ----------------------------------------
 .byte   W96
@ 139   ----------------------------------------
 .byte   W96
@ 140   ----------------------------------------
 .byte   W96
@ 141   ----------------------------------------
 .byte   W96
@ 142   ----------------------------------------
 .byte   W96
@ 143   ----------------------------------------
 .byte   W96
@ 144   ----------------------------------------
 .byte   W96
@ 145   ----------------------------------------
 .byte   W96
@ 146   ----------------------------------------
 .byte   W96
@ 147   ----------------------------------------
 .byte   W96
@ 148   ----------------------------------------
 .byte   W96
@ 149   ----------------------------------------
 .byte   W96
@ 150   ----------------------------------------
 .byte   W96
@ 151   ----------------------------------------
 .byte   W96
@ 152   ----------------------------------------
 .byte   W96
@ 153   ----------------------------------------
 .byte   W96
@ 154   ----------------------------------------
 .byte   W96
@ 155   ----------------------------------------
 .byte   W96
@ 156   ----------------------------------------
 .byte   W96
@ 157   ----------------------------------------
 .byte   W96
@ 158   ----------------------------------------
 .byte   W96
@ 159   ----------------------------------------
 .byte   W96
@ 160   ----------------------------------------
 .byte   W96
@ 161   ----------------------------------------
 .byte   W96
@ 162   ----------------------------------------
 .byte   W96
@ 163   ----------------------------------------
 .byte   W96
@ 164   ----------------------------------------
 .byte   W96
@ 165   ----------------------------------------
 .byte   W96
@ 166   ----------------------------------------
 .byte   W96
@ 167   ----------------------------------------
 .byte   W96
@ 168   ----------------------------------------
 .byte   W96
@ 169   ----------------------------------------
 .byte   W96
@ 170   ----------------------------------------
 .byte   W96
@ 171   ----------------------------------------
 .byte   W96
@ 172   ----------------------------------------
 .byte   W96
@ 173   ----------------------------------------
 .byte   W48
 .byte   N44 ,Fs2
 .byte   W48
@ 174   ----------------------------------------
Label_3_0128DC91:
 .byte   N32 ,Gs2 ,v080
 .byte   W36
 .byte   N32
 .byte   W36
 .byte   N23
 .byte   W24
 .byte   PEND 
@ 175   ----------------------------------------
 .byte   N44 ,As2
 .byte   W48
 .byte   N44
 .byte   W48
 .byte   PATT
  .word Label_3_0128DC91
@ 176   ----------------------------------------
 .byte   W48
 .byte   N44 ,Fs2 ,v080
 .byte   W48
@ 177   ----------------------------------------
 .byte   N32
 .byte   W36
 .byte   N32
 .byte   W36
 .byte   N23
 .byte   W24
@ 178   ----------------------------------------
 .byte   TIE ,Fn2
 .byte   W96
@ 179   ----------------------------------------
 .byte   W92
 .byte   W03
 .byte   EOT
 .byte   W01
@ 180   ----------------------------------------
 .byte   TIE ,Gn2
 .byte   W96
@ 181   ----------------------------------------
 .byte   W92
 .byte   W03
 .byte   EOT
 .byte   W01
@ 182   ----------------------------------------
 .byte   GOTO
  .word Label_3_0128DAD2
 .byte   FINE

@**************** Track 5 (Midi-Chn.4) ****************@

song0E_005:
@ 000   ----------------------------------------
 .byte   KEYSH , song0E_key+0
Label_4_0128DCC6:
 .byte   VOICE , 45
 .byte   VOL , 51*song0E_mvl/mxv
 .byte   PAN , c_v+0
 .byte   VOL , 43*song0E_mvl/mxv
 .byte   PAN , c_v+14
 .byte   VOL , 51*song0E_mvl/mxv
 .byte   PAN , c_v+0
 .byte   VOL , 51*song0E_mvl/mxv
 .byte   PAN , c_v+6
 .byte   VOL , 51*song0E_mvl/mxv
 .byte   PAN , c_v+0
 .byte   W48
 .byte   W96
@ 001   ----------------------------------------
 .byte   W96
@ 002   ----------------------------------------
 .byte   W96
@ 003   ----------------------------------------
 .byte   W96
@ 004   ----------------------------------------
 .byte   W96
@ 005   ----------------------------------------
 .byte   W96
@ 006   ----------------------------------------
 .byte   W96
@ 007   ----------------------------------------
 .byte   W96
@ 008   ----------------------------------------
Label_4_0128DCE5:
 .byte   N32 ,An1 ,v052
 .byte   N32 ,An2
 .byte   N32 ,Cn3
 .byte   N11 ,Bn3 ,v080
 .byte   W12
 .byte   Cn4
 .byte   W12
 .byte   En4
 .byte   W12
 .byte   An1 ,v052
 .byte   N11 ,An2
 .byte   N11 ,Bn2
 .byte   N11 ,Gn4 ,v080
 .byte   W24
 .byte   An1 ,v052
 .byte   N11 ,An2
 .byte   N11 ,Bn2
 .byte   N11 ,Gn4 ,v080
 .byte   W12
 .byte   Bn4
 .byte   W12
 .byte   N05 ,An1 ,v052
 .byte   N05 ,An2
 .byte   N05 ,Bn2
 .byte   N11 ,Cn5 ,v080
 .byte   W12
 .byte   PEND 
@ 009   ----------------------------------------
Label_4_0128DD16:
 .byte   N32 ,An1 ,v052
 .byte   N32 ,An2
 .byte   N32 ,Cn3
 .byte   W12
 .byte   N11 ,Bn4 ,v080
 .byte   W12
 .byte   Gn4
 .byte   W12
 .byte   An1 ,v052
 .byte   N11 ,An2
 .byte   N11 ,Bn2
 .byte   N11 ,Dn4 ,v080
 .byte   W24
 .byte   An1 ,v052
 .byte   N11 ,An2
 .byte   N11 ,Bn2
 .byte   N11 ,Cn4 ,v080
 .byte   W12
 .byte   Bn3
 .byte   W12
 .byte   N05 ,An1 ,v052
 .byte   N05 ,An2
 .byte   N05 ,Bn2
 .byte   N11 ,Cn4 ,v080
 .byte   W12
 .byte   PEND 
 .byte   PATT
  .word Label_4_0128DCE5
 .byte   PATT
  .word Label_4_0128DD16
@ 010   ----------------------------------------
 .byte   N64 ,AnM1 ,v096
 .byte   N32 ,An1 ,v052
 .byte   N32 ,An2
 .byte   N32 ,Cn3
 .byte   N11 ,Bn3 ,v080
 .byte   W03
 .byte   W01
 .byte   W01
 .byte   W07
 .byte   Cn4
 .byte   W12
 .byte   En4
 .byte   W12
 .byte   An1 ,v052
 .byte   N11 ,An2
 .byte   N11 ,Bn2
 .byte   N11 ,Gn4 ,v080
 .byte   W24
 .byte   An1 ,v052
 .byte   N11 ,An2
 .byte   N11 ,Bn2
 .byte   N11 ,Gn4 ,v080
 .byte   W12
 .byte   Bn4
 .byte   W12
 .byte   N05 ,An1 ,v052
 .byte   N05 ,An2
 .byte   N05 ,Bn2
 .byte   N11 ,Cn5 ,v080
 .byte   W12
 .byte   PATT
  .word Label_4_0128DD16
@ 011   ----------------------------------------
 .byte   N32 ,An1 ,v052
 .byte   N32 ,An2
 .byte   N32 ,Cn3
 .byte   N11 ,Bn3 ,v080
 .byte   W12
 .byte   Cn4
 .byte   W12
 .byte   En4
 .byte   W01
 .byte   W11
 .byte   An1 ,v052
 .byte   N11 ,An2
 .byte   N11 ,Bn2
 .byte   N11 ,Gn4 ,v080
 .byte   W02
 .byte   W13
 .byte   W09
 .byte   An1 ,v056
 .byte   N11 ,An2
 .byte   N11 ,Bn2
 .byte   N11 ,Gn4 ,v080
 .byte   W04
 .byte   W08
 .byte   Bn4
 .byte   W04
 .byte   W08
 .byte   N05 ,An1 ,v056
 .byte   N05 ,An2
 .byte   N05 ,Bn2
 .byte   N11 ,Cn5 ,v080
 .byte   W05
 .byte   W07
@ 012   ----------------------------------------
 .byte   N32 ,An1 ,v056
 .byte   N32 ,An2
 .byte   N32 ,Cn3
 .byte   N11 ,Cn4
 .byte   W06
 .byte   W06
 .byte   Cn4 ,v060
 .byte   N11 ,Bn4 ,v080
 .byte   W07
 .byte   W05
 .byte   Cn4 ,v060
 .byte   N11 ,Gn4 ,v080
 .byte   W08
 .byte   W04
 .byte   An1 ,v060
 .byte   N11 ,An2
 .byte   N11 ,Bn2
 .byte   N23 ,Bn3
 .byte   N11 ,Dn4 ,v080
 .byte   W08
 .byte   W04
 .byte   W09
 .byte   W03
 .byte   An1 ,v064
 .byte   N11 ,An2
 .byte   N11 ,Bn2
 .byte   N11 ,Cn4
 .byte   W10
 .byte   W02
 .byte   Bn3
 .byte   W11
 .byte   W01
 .byte   N05 ,An1
 .byte   N05 ,An2
 .byte   N05 ,Bn2
 .byte   N11 ,Gn3
 .byte   N11 ,Cn4 ,v080
 .byte   W12
@ 013   ----------------------------------------
Label_4_0128DE02:
 .byte   N11 ,Bn3 ,v080
 .byte   W12
 .byte   Cn4
 .byte   W12
 .byte   En4
 .byte   W12
 .byte   Gn4
 .byte   W24
 .byte   N11
 .byte   W12
 .byte   Bn4
 .byte   W12
 .byte   Cn5
 .byte   W12
 .byte   PEND 
@ 014   ----------------------------------------
Label_4_0128DE13:
 .byte   W12
 .byte   N11 ,Bn4 ,v080
 .byte   W12
 .byte   Gn4
 .byte   W12
 .byte   Dn4
 .byte   W24
 .byte   Cn4
 .byte   W12
 .byte   Bn3
 .byte   W12
 .byte   Cn4
 .byte   W12
 .byte   PEND 
 .byte   PATT
  .word Label_4_0128DE02
 .byte   PATT
  .word Label_4_0128DE13
 .byte   PATT
  .word Label_4_0128DE02
 .byte   PATT
  .word Label_4_0128DE13
 .byte   PATT
  .word Label_4_0128DE02
 .byte   PATT
  .word Label_4_0128DE13
 .byte   PATT
  .word Label_4_0128DE02
 .byte   PATT
  .word Label_4_0128DE13
 .byte   PATT
  .word Label_4_0128DE02
 .byte   PATT
  .word Label_4_0128DE13
 .byte   PATT
  .word Label_4_0128DE02
 .byte   PATT
  .word Label_4_0128DE13
 .byte   PATT
  .word Label_4_0128DE02
 .byte   PATT
  .word Label_4_0128DE13
@ 015   ----------------------------------------
Label_4_0128DE69:
 .byte   N11 ,Bn3 ,v064
 .byte   W12
 .byte   Cn4
 .byte   W12
 .byte   En4
 .byte   W12
 .byte   Gn4
 .byte   W24
 .byte   N11
 .byte   W12
 .byte   Bn4
 .byte   W12
 .byte   Cn5
 .byte   W12
 .byte   PEND 
@ 016   ----------------------------------------
Label_4_0128DE7A:
 .byte   W12
 .byte   N11 ,Bn4 ,v064
 .byte   W12
 .byte   Gn4
 .byte   W12
 .byte   Dn4
 .byte   W24
 .byte   Cn4
 .byte   W12
 .byte   Bn3
 .byte   W12
 .byte   Cn4
 .byte   W12
 .byte   PEND 
 .byte   PATT
  .word Label_4_0128DE69
 .byte   PATT
  .word Label_4_0128DE7A
 .byte   PATT
  .word Label_4_0128DE69
 .byte   PATT
  .word Label_4_0128DE7A
 .byte   PATT
  .word Label_4_0128DE69
 .byte   PATT
  .word Label_4_0128DE7A
 .byte   PATT
  .word Label_4_0128DE69
 .byte   PATT
  .word Label_4_0128DE7A
 .byte   PATT
  .word Label_4_0128DE69
 .byte   PATT
  .word Label_4_0128DE7A
 .byte   PATT
  .word Label_4_0128DE69
 .byte   PATT
  .word Label_4_0128DE7A
@ 017   ----------------------------------------
 .byte   W96
@ 018   ----------------------------------------
 .byte   W96
@ 019   ----------------------------------------
 .byte   W96
@ 020   ----------------------------------------
 .byte   W96
@ 021   ----------------------------------------
 .byte   W96
@ 022   ----------------------------------------
 .byte   W96
@ 023   ----------------------------------------
 .byte   W96
@ 024   ----------------------------------------
 .byte   W96
@ 025   ----------------------------------------
 .byte   W96
@ 026   ----------------------------------------
 .byte   W96
@ 027   ----------------------------------------
 .byte   W96
@ 028   ----------------------------------------
 .byte   W96
@ 029   ----------------------------------------
 .byte   W96
@ 030   ----------------------------------------
 .byte   W96
@ 031   ----------------------------------------
 .byte   W96
@ 032   ----------------------------------------
 .byte   W96
@ 033   ----------------------------------------
 .byte   W96
@ 034   ----------------------------------------
 .byte   W96
@ 035   ----------------------------------------
Label_4_0128DED8:
 .byte   N11 ,En4 ,v064
 .byte   W12
 .byte   An3
 .byte   W12
 .byte   Dn4
 .byte   W12
 .byte   N22 ,En4
 .byte   W24
 .byte   N11 ,An3
 .byte   W12
 .byte   Dn4
 .byte   W12
 .byte   En4
 .byte   W12
 .byte   PEND 
@ 036   ----------------------------------------
Label_4_0128DEEB:
 .byte   W24
 .byte   N22 ,Bn4 ,v064
 .byte   N22 ,Bn5
 .byte   W24
 .byte   Cn5
 .byte   N22 ,Cn6
 .byte   W24
 .byte   Dn5
 .byte   N22 ,Dn6
 .byte   W24
 .byte   PEND 
@ 037   ----------------------------------------
Label_4_0128DEFB:
 .byte   N11 ,En4 ,v064
 .byte   W12
 .byte   Bn3
 .byte   W12
 .byte   Cn4
 .byte   W12
 .byte   An4
 .byte   W12
 .byte   Cn4
 .byte   W12
 .byte   Bn3
 .byte   W12
 .byte   Cn4
 .byte   W12
 .byte   Gn4
 .byte   W12
 .byte   PEND 
 .byte   PATT
  .word Label_4_0128DEEB
@ 038   ----------------------------------------
Label_4_0128DF13:
 .byte   N11 ,Dn4 ,v064
 .byte   W12
 .byte   Gn3
 .byte   W12
 .byte   Bn3
 .byte   W12
 .byte   Cn4
 .byte   W12
 .byte   Gn3
 .byte   W12
 .byte   En3
 .byte   W12
 .byte   Bn3
 .byte   W12
 .byte   Cn4
 .byte   W12
 .byte   PEND 
@ 039   ----------------------------------------
 .byte   Gn3
 .byte   W12
 .byte   En3
 .byte   W12
 .byte   Bn3
 .byte   W12
 .byte   Cn4
 .byte   W12
 .byte   Gn3
 .byte   W12
 .byte   En3
 .byte   W12
 .byte   Bn3
 .byte   W12
 .byte   Cn4
 .byte   W12
 .byte   PATT
  .word Label_4_0128DF13
@ 040   ----------------------------------------
 .byte   W96
 .byte   PATT
  .word Label_4_0128DED8
 .byte   PATT
  .word Label_4_0128DEEB
 .byte   PATT
  .word Label_4_0128DEFB
 .byte   PATT
  .word Label_4_0128DEEB
 .byte   PATT
  .word Label_4_0128DF13
@ 041   ----------------------------------------
 .byte   N32 ,Bn4 ,v064
 .byte   N32 ,Bn5
 .byte   W36
 .byte   Gs4
 .byte   N32 ,Gs5
 .byte   W36
 .byte   N22 ,En4
 .byte   N22 ,En5
 .byte   W24
@ 042   ----------------------------------------
 .byte   N11 ,Gs4
 .byte   N11 ,Gs5
 .byte   W12
 .byte   En3
 .byte   W12
 .byte   Gs3
 .byte   W12
 .byte   Cn4
 .byte   W12
 .byte   N11
 .byte   W12
 .byte   En3
 .byte   W12
 .byte   Gs3
 .byte   W12
 .byte   Cn4
 .byte   W12
@ 043   ----------------------------------------
 .byte   N90 ,Bn3
 .byte   W96
@ 044   ----------------------------------------
 .byte   W96
@ 045   ----------------------------------------
 .byte   W36
 .byte   N11
 .byte   W12
 .byte   Cn4
 .byte   W12
 .byte   Gn4
 .byte   W12
 .byte   Dn4
 .byte   W24
@ 046   ----------------------------------------
 .byte   W96
@ 047   ----------------------------------------
 .byte   W36
 .byte   N11
 .byte   W12
 .byte   Cn4
 .byte   W12
 .byte   Bn3
 .byte   W12
 .byte   An3
 .byte   W12
 .byte   Gn3
 .byte   W12
@ 048   ----------------------------------------
 .byte   W96
@ 049   ----------------------------------------
 .byte   W96
@ 050   ----------------------------------------
 .byte   W96
@ 051   ----------------------------------------
 .byte   W96
@ 052   ----------------------------------------
 .byte   W96
@ 053   ----------------------------------------
 .byte   W96
@ 054   ----------------------------------------
 .byte   W96
@ 055   ----------------------------------------
 .byte   W96
@ 056   ----------------------------------------
 .byte   W96
@ 057   ----------------------------------------
 .byte   W96
@ 058   ----------------------------------------
 .byte   W96
@ 059   ----------------------------------------
 .byte   W96
@ 060   ----------------------------------------
 .byte   W96
@ 061   ----------------------------------------
 .byte   W96
@ 062   ----------------------------------------
Label_4_0128DF9E:
 .byte   N22 ,An4 ,v064
 .byte   N22 ,Cn5
 .byte   W24
 .byte   N05 ,Dn4
 .byte   W06
 .byte   En4
 .byte   W06
 .byte   Fn4
 .byte   W06
 .byte   Gn4
 .byte   W06
 .byte   An4
 .byte   W06
 .byte   Gn4
 .byte   W06
 .byte   Fn4
 .byte   W06
 .byte   En4
 .byte   W06
 .byte   Fn4
 .byte   W06
 .byte   En4
 .byte   W06
 .byte   Dn4
 .byte   W06
 .byte   Cn4
 .byte   W06
 .byte   PEND 
@ 063   ----------------------------------------
Label_4_0128DFBE:
 .byte   N05 ,En4 ,v064
 .byte   W06
 .byte   Dn4
 .byte   W06
 .byte   Cn4
 .byte   W06
 .byte   Bn3
 .byte   W78
 .byte   PEND 
@ 064   ----------------------------------------
 .byte   W96
@ 065   ----------------------------------------
 .byte   W96
@ 066   ----------------------------------------
 .byte   W96
@ 067   ----------------------------------------
 .byte   W96
@ 068   ----------------------------------------
 .byte   W96
@ 069   ----------------------------------------
 .byte   W96
 .byte   PATT
  .word Label_4_0128DF9E
 .byte   PATT
  .word Label_4_0128DFBE
@ 070   ----------------------------------------
 .byte   W96
@ 071   ----------------------------------------
 .byte   W96
@ 072   ----------------------------------------
 .byte   W96
@ 073   ----------------------------------------
 .byte   W96
@ 074   ----------------------------------------
 .byte   W96
@ 075   ----------------------------------------
 .byte   W96
@ 076   ----------------------------------------
 .byte   W96
@ 077   ----------------------------------------
 .byte   W96
@ 078   ----------------------------------------
 .byte   W96
@ 079   ----------------------------------------
 .byte   W96
@ 080   ----------------------------------------
 .byte   W96
@ 081   ----------------------------------------
 .byte   W96
@ 082   ----------------------------------------
 .byte   W96
@ 083   ----------------------------------------
 .byte   W96
@ 084   ----------------------------------------
 .byte   W96
@ 085   ----------------------------------------
 .byte   W96
@ 086   ----------------------------------------
 .byte   W96
@ 087   ----------------------------------------
 .byte   W96
@ 088   ----------------------------------------
 .byte   W96
@ 089   ----------------------------------------
 .byte   W96
@ 090   ----------------------------------------
 .byte   W96
@ 091   ----------------------------------------
 .byte   W96
@ 092   ----------------------------------------
 .byte   W96
@ 093   ----------------------------------------
 .byte   W96
@ 094   ----------------------------------------
 .byte   W96
@ 095   ----------------------------------------
 .byte   W96
@ 096   ----------------------------------------
 .byte   W96
@ 097   ----------------------------------------
 .byte   W96
@ 098   ----------------------------------------
 .byte   W96
@ 099   ----------------------------------------
 .byte   W96
@ 100   ----------------------------------------
 .byte   W96
@ 101   ----------------------------------------
 .byte   W96
@ 102   ----------------------------------------
 .byte   W96
@ 103   ----------------------------------------
 .byte   W96
@ 104   ----------------------------------------
 .byte   W96
@ 105   ----------------------------------------
 .byte   W96
@ 106   ----------------------------------------
 .byte   W96
@ 107   ----------------------------------------
 .byte   W96
@ 108   ----------------------------------------
 .byte   N90 ,Fs2 ,v080
 .byte   N90 ,Fn3
 .byte   N90 ,As3
 .byte   N11 ,Cn4
 .byte   W12
 .byte   Cs4
 .byte   W12
 .byte   Fn4
 .byte   W12
 .byte   Gs4
 .byte   W24
 .byte   N11
 .byte   W12
 .byte   Cn5
 .byte   W12
 .byte   Cs5
 .byte   W12
@ 109   ----------------------------------------
 .byte   W12
 .byte   Cn5
 .byte   W12
 .byte   Gs4
 .byte   W12
 .byte   Ds4
 .byte   W24
 .byte   Cs4
 .byte   W12
 .byte   Cn4
 .byte   W12
 .byte   Cs4
 .byte   W12
@ 110   ----------------------------------------
 .byte   N90 ,Fn2
 .byte   N90 ,Cn3
 .byte   N90 ,Ds3
 .byte   N11 ,Cn4
 .byte   W12
 .byte   Cs4
 .byte   W12
 .byte   Fn4
 .byte   W12
 .byte   Gs4
 .byte   W24
 .byte   N11
 .byte   W12
 .byte   Cn5
 .byte   W12
 .byte   Cs5
 .byte   W12
@ 111   ----------------------------------------
 .byte   N90 ,As1
 .byte   W12
 .byte   N11 ,Cn5
 .byte   W12
 .byte   Gs4
 .byte   W12
 .byte   Ds4
 .byte   W24
 .byte   Cs4
 .byte   W12
 .byte   Cn4
 .byte   W12
 .byte   Cs4
 .byte   W12
@ 112   ----------------------------------------
 .byte   N44 ,Ds1
 .byte   N44 ,As2
 .byte   N44 ,Cs3
 .byte   N11 ,Cs4
 .byte   W12
 .byte   Fn4
 .byte   W12
 .byte   Fs4
 .byte   W12
 .byte   Cs4
 .byte   W24
 .byte   N32 ,Ds1
 .byte   N32 ,As2
 .byte   N32 ,Cs3
 .byte   N11 ,Fn4
 .byte   W12
 .byte   Fs4
 .byte   W12
 .byte   Cs5
 .byte   W12
@ 113   ----------------------------------------
 .byte   N44 ,Fn1
 .byte   N44 ,Cn3
 .byte   N44 ,Ds3
 .byte   N11 ,Fn4
 .byte   W12
 .byte   Ds4
 .byte   W12
 .byte   Cs4
 .byte   W12
 .byte   Cn4
 .byte   W12
 .byte   N44 ,An1
 .byte   N44 ,Cn3
 .byte   N44 ,Ds3
 .byte   N11 ,Fs4
 .byte   W12
 .byte   Fn4
 .byte   W12
 .byte   Cn4
 .byte   W12
 .byte   Cs4
 .byte   W12
@ 114   ----------------------------------------
 .byte   N44 ,As1
 .byte   N44 ,Gs2
 .byte   N44 ,Cn3
 .byte   N11 ,Fn4
 .byte   W12
 .byte   Cs4
 .byte   W12
 .byte   Cn4
 .byte   W12
 .byte   Cs4
 .byte   W24
 .byte   N32 ,As1
 .byte   N32 ,Gs2
 .byte   N32 ,Cn3
 .byte   N11 ,Cs4
 .byte   W12
 .byte   Cn5
 .byte   W12
 .byte   Cs5
 .byte   W12
@ 115   ----------------------------------------
 .byte   N32 ,Gs1
 .byte   N32 ,Gs2
 .byte   N32 ,Ds3
 .byte   N11 ,Gs4
 .byte   W12
 .byte   Fn4
 .byte   W12
 .byte   Cs4
 .byte   W12
 .byte   N32 ,Gs1
 .byte   N32 ,Fs2
 .byte   N32 ,Cs3
 .byte   N11 ,Cn4
 .byte   W24
 .byte   Fn4
 .byte   W12
 .byte   N22 ,Gn1
 .byte   N22 ,Fn2
 .byte   N22 ,Cn3
 .byte   N11 ,Cs4
 .byte   W12
 .byte   Cn4
 .byte   W12
@ 116   ----------------------------------------
 .byte   N32 ,Fs2
 .byte   N32 ,As2
 .byte   N11 ,Fn4
 .byte   W12
 .byte   Cs4
 .byte   W12
 .byte   Cn4
 .byte   W12
 .byte   Fs2
 .byte   N11 ,As2
 .byte   N11 ,Cs4
 .byte   W24
 .byte   Gs4
 .byte   W12
 .byte   Cs4
 .byte   W12
 .byte   Cn4
 .byte   W12
@ 117   ----------------------------------------
 .byte   N32 ,Gs2
 .byte   N32 ,Ds3
 .byte   N11 ,Ds4
 .byte   W12
 .byte   Cs4
 .byte   W12
 .byte   Cn4
 .byte   W12
 .byte   N32 ,Gs2
 .byte   N32 ,Cs3
 .byte   N11 ,Cs4
 .byte   W36
 .byte   N22 ,Gs2
 .byte   N22 ,Cn3
 .byte   N11 ,Cn4
 .byte   W12
 .byte   Cs4
 .byte   W12
@ 118   ----------------------------------------
 .byte   N32 ,As2
 .byte   N32 ,Cs3
 .byte   N22 ,Gs3
 .byte   W24
 .byte   N11 ,Cn4
 .byte   W12
 .byte   As2
 .byte   N11 ,Cs3
 .byte   N11 ,Cs4
 .byte   W12
 .byte   N22 ,Fn4
 .byte   W12
 .byte   N32 ,As2
 .byte   N32 ,Cs3
 .byte   W12
 .byte   N11 ,Cn4
 .byte   W12
 .byte   Cs4
 .byte   W12
@ 119   ----------------------------------------
 .byte   N32 ,Gs2
 .byte   N32 ,Ds3
 .byte   N22 ,Gs4
 .byte   W24
 .byte   Fs4
 .byte   W12
 .byte   N32 ,Gs2
 .byte   N32 ,Cs3
 .byte   W12
 .byte   N22 ,Fn4
 .byte   W24
 .byte   Gs2
 .byte   N22 ,Cn3
 .byte   N22 ,Ds4
 .byte   W24
@ 120   ----------------------------------------
 .byte   N32 ,As2
 .byte   N32 ,Cs3
 .byte   N44 ,Cs4
 .byte   W36
 .byte   N11 ,As2
 .byte   N11 ,Cs3
 .byte   W12
 .byte   N44 ,Fn4
 .byte   W12
 .byte   N22 ,As2
 .byte   N22 ,Cs3
 .byte   W24
 .byte   N11 ,As2
 .byte   N11 ,Cs3
 .byte   W12
@ 121   ----------------------------------------
 .byte   N32 ,Cn3
 .byte   N32 ,Ds3
 .byte   N44 ,Ds4
 .byte   W36
 .byte   N11 ,Cn3
 .byte   W12
 .byte   Cs3
 .byte   N44 ,Cs4
 .byte   W12
 .byte   N11 ,Ds3
 .byte   W12
 .byte   Fn3
 .byte   W12
 .byte   Fs3
 .byte   W12
@ 122   ----------------------------------------
 .byte   W96
@ 123   ----------------------------------------
 .byte   W96
@ 124   ----------------------------------------
 .byte   W96
@ 125   ----------------------------------------
 .byte   W96
@ 126   ----------------------------------------
 .byte   W96
@ 127   ----------------------------------------
 .byte   W96
@ 128   ----------------------------------------
 .byte   W96
@ 129   ----------------------------------------
 .byte   W96
@ 130   ----------------------------------------
 .byte   W96
@ 131   ----------------------------------------
 .byte   W96
@ 132   ----------------------------------------
 .byte   W96
@ 133   ----------------------------------------
 .byte   W96
@ 134   ----------------------------------------
 .byte   W96
@ 135   ----------------------------------------
 .byte   W96
@ 136   ----------------------------------------
 .byte   W96
@ 137   ----------------------------------------
 .byte   W96
@ 138   ----------------------------------------
 .byte   W96
@ 139   ----------------------------------------
 .byte   W96
@ 140   ----------------------------------------
Label_4_0128E166:
 .byte   N05 ,Cn6 ,v080
 .byte   W06
 .byte   Cs6
 .byte   W06
 .byte   Cn6
 .byte   W06
 .byte   Gs5
 .byte   W06
 .byte   Ds5
 .byte   W06
 .byte   Fn5
 .byte   W06
 .byte   Gs5
 .byte   W12
 .byte   N44 ,Fs2
 .byte   N44 ,As2
 .byte   N44 ,Cs3
 .byte   W48
 .byte   PEND 
@ 141   ----------------------------------------
 .byte   N32 ,Gs2
 .byte   N32 ,As2
 .byte   N32 ,Cn3
 .byte   W36
 .byte   Gs2
 .byte   N32 ,As2
 .byte   N32 ,Cs3
 .byte   W36
 .byte   N22 ,Gs2
 .byte   N22 ,Cn3
 .byte   N22 ,Ds3
 .byte   W24
@ 142   ----------------------------------------
 .byte   N44 ,As2
 .byte   N44 ,Cs3
 .byte   N44 ,Fn3
 .byte   N05 ,Cn6
 .byte   W06
 .byte   Cs6
 .byte   W06
 .byte   Cn6
 .byte   W06
 .byte   Gs5
 .byte   W06
 .byte   Ds5
 .byte   W06
 .byte   Fn5
 .byte   W06
 .byte   Gs5
 .byte   W12
 .byte   N44 ,As2
 .byte   N44 ,Cs3
 .byte   N44 ,Gs3
 .byte   W48
@ 143   ----------------------------------------
 .byte   N32 ,Gs2
 .byte   N32 ,Cn3
 .byte   N32 ,Ds3
 .byte   W36
 .byte   Gs2
 .byte   N32 ,Cn3
 .byte   N32 ,Cs3
 .byte   W36
 .byte   N22 ,Gs2
 .byte   N22 ,Cn3
 .byte   W24
 .byte   PATT
  .word Label_4_0128E166
@ 144   ----------------------------------------
 .byte   N32 ,Fs2 ,v080
 .byte   N32 ,As2
 .byte   N32 ,Cs3
 .byte   W36
 .byte   Fs2
 .byte   N32 ,As2
 .byte   N32 ,Ds3
 .byte   W36
 .byte   N22 ,Fs2
 .byte   N22 ,As2
 .byte   N22 ,Cs3
 .byte   W24
@ 145   ----------------------------------------
 .byte   N90 ,Fn2
 .byte   N90 ,As2
 .byte   N90 ,Cn3
 .byte   W96
@ 146   ----------------------------------------
 .byte   Fn2
 .byte   N90 ,An2
 .byte   N90 ,Cn3
 .byte   W96
@ 147   ----------------------------------------
 .byte   Gn2
 .byte   N90 ,Cn3
 .byte   W96
@ 148   ----------------------------------------
 .byte   Gn2
 .byte   N90 ,Bn2
 .byte   W96
@ 149   ----------------------------------------
 .byte   GOTO
  .word Label_4_0128DCC6
 .byte   FINE

@**************** Track 6 (Midi-Chn.5) ****************@

song0E_006:
@ 000   ----------------------------------------
 .byte   KEYSH , song0E_key+0
Label_5_0128E1FA:
 .byte   VOICE , 45
 .byte   VOL , 51*song0E_mvl/mxv
 .byte   PAN , c_v+0
 .byte   VOL , 43*song0E_mvl/mxv
 .byte   PAN , c_v-19
 .byte   VOL , 43*song0E_mvl/mxv
 .byte   PAN , c_v-19
 .byte   VOL , 51*song0E_mvl/mxv
 .byte   PAN , c_v+0
 .byte   VOL , 51*song0E_mvl/mxv
 .byte   PAN , c_v+0
 .byte   W48
Label_5_0128E211:
 .byte   W24
 .byte   N23 ,Gn3 ,v080
 .byte   N23 ,Cn4
 .byte   W24
@ 001   ----------------------------------------
 .byte   An3
 .byte   N23 ,Dn4
 .byte   W24
 .byte   Gn3
 .byte   N23 ,Bn3
 .byte   W24
 .byte   PEND 
 .byte   N92 ,Gn3
 .byte   N92 ,Cn4
 .byte   W96
 .byte   PATT
  .word Label_5_0128E211
@ 002   ----------------------------------------
 .byte   N92 ,Gn3 ,v080
 .byte   W96
 .byte   PATT
  .word Label_5_0128E211
@ 003   ----------------------------------------
 .byte   N44 ,Gn3 ,v080
 .byte   N44 ,Cn4
 .byte   W48
 .byte   N44
 .byte   N44 ,Gn4
 .byte   W48
@ 004   ----------------------------------------
 .byte   Cn4
 .byte   N44 ,Gn4
 .byte   W48
 .byte   Cn4
 .byte   N44 ,Fn4
 .byte   W48
@ 005   ----------------------------------------
 .byte   Cn4
 .byte   N44 ,En4
 .byte   W48
 .byte   Bn3
 .byte   N44 ,Dn4
 .byte   W48
@ 006   ----------------------------------------
 .byte   W96
@ 007   ----------------------------------------
 .byte   W96
@ 008   ----------------------------------------
Label_5_0128E250:
 .byte   W24
 .byte   N05 ,An4 ,v052
 .byte   W06
 .byte   Bn4
 .byte   W06
 .byte   Cn5
 .byte   W06
 .byte   Dn5
 .byte   W06
 .byte   En5
 .byte   W48
 .byte   PEND 
@ 009   ----------------------------------------
 .byte   W96
 .byte   PATT
  .word Label_5_0128E250
@ 010   ----------------------------------------
 .byte   W24
 .byte   N05 ,An4 ,v052
 .byte   W06
 .byte   Bn4
 .byte   W06
 .byte   Cn5
 .byte   W06
 .byte   En5
 .byte   W06
 .byte   An4
 .byte   W06
 .byte   Bn4
 .byte   W06
 .byte   Cn5
 .byte   W06
 .byte   En5
 .byte   W06
 .byte   An4
 .byte   W06
 .byte   Bn4
 .byte   W06
 .byte   Cn5
 .byte   W06
 .byte   En5
 .byte   W06
@ 011   ----------------------------------------
 .byte   N05
 .byte   W06
 .byte   Dn5
 .byte   W06
 .byte   Cn5
 .byte   W06
 .byte   An4
 .byte   W06
 .byte   Gn4
 .byte   W06
 .byte   En4
 .byte   W06
 .byte   Dn4
 .byte   W06
 .byte   Cn4
 .byte   W06
 .byte   An3
 .byte   W48
@ 012   ----------------------------------------
 .byte   W48
 .byte   Bn4
 .byte   W06
 .byte   Cn5
 .byte   W06
 .byte   Dn5
 .byte   W06
 .byte   En5
 .byte   W06
 .byte   Gn5
 .byte   W06
 .byte   An5
 .byte   W06
 .byte   Bn5
 .byte   W06
 .byte   Cn6
 .byte   W06
@ 013   ----------------------------------------
 .byte   W96
@ 014   ----------------------------------------
 .byte   W96
@ 015   ----------------------------------------
 .byte   W96
@ 016   ----------------------------------------
 .byte   W96
@ 017   ----------------------------------------
Label_5_0128E2A6:
 .byte   W24
 .byte   N05 ,An3 ,v052
 .byte   N05 ,An4
 .byte   W06
 .byte   Bn3
 .byte   N05 ,Bn4
 .byte   W06
 .byte   Cn4
 .byte   N05 ,Cn5
 .byte   W06
 .byte   Dn4
 .byte   N05 ,Dn5
 .byte   W06
 .byte   En4
 .byte   N05 ,En5
 .byte   W48
 .byte   PEND 
 .byte   PATT
  .word Label_5_0128E2A6
 .byte   PATT
  .word Label_5_0128E2A6
@ 018   ----------------------------------------
 .byte   W12
 .byte   N05 ,Dn4 ,v052
 .byte   N05 ,Dn5
 .byte   W06
 .byte   En4
 .byte   N05 ,En5
 .byte   W06
 .byte   Gn4
 .byte   N05 ,Gn5
 .byte   W06
 .byte   En4
 .byte   N05 ,En5
 .byte   W06
 .byte   Dn4
 .byte   N05 ,Dn5
 .byte   W06
 .byte   Bn3
 .byte   N05 ,Bn4
 .byte   W06
 .byte   Gn3
 .byte   N05 ,Gn4
 .byte   W06
 .byte   En3
 .byte   N05 ,En4
 .byte   W06
 .byte   Gn3
 .byte   N05 ,Gn4
 .byte   W06
 .byte   Bn3
 .byte   N05 ,Bn4
 .byte   W06
 .byte   Dn4
 .byte   N05 ,Dn5
 .byte   W24
@ 019   ----------------------------------------
Label_5_0128E2F7:
 .byte   W24
 .byte   N05 ,An4 ,v052
 .byte   W06
 .byte   Bn4
 .byte   W06
 .byte   Cn5
 .byte   W06
 .byte   Dn5
 .byte   W06
 .byte   An4
 .byte   W06
 .byte   Bn4
 .byte   W06
 .byte   Cn5
 .byte   W06
 .byte   Dn5
 .byte   W06
 .byte   En5
 .byte   W06
 .byte   Dn5
 .byte   W06
 .byte   Cn5
 .byte   W06
 .byte   Bn4
 .byte   W06
 .byte   PEND 
@ 020   ----------------------------------------
 .byte   An4
 .byte   W96
 .byte   PATT
  .word Label_5_0128E2F7
@ 021   ----------------------------------------
 .byte   N05 ,An4 ,v052
 .byte   W96
@ 022   ----------------------------------------
Label_5_0128E31E:
 .byte   W24
 .byte   N05 ,An4 ,v052
 .byte   W06
 .byte   Bn4
 .byte   W06
 .byte   Cn5
 .byte   W06
 .byte   En5
 .byte   W06
 .byte   Dn5
 .byte   W06
 .byte   Cn5
 .byte   W06
 .byte   Bn4
 .byte   W06
 .byte   An4
 .byte   W06
 .byte   En4
 .byte   W24
 .byte   PEND 
 .byte   PATT
  .word Label_5_0128E31E
@ 023   ----------------------------------------
 .byte   W96
@ 024   ----------------------------------------
 .byte   W24
 .byte   N05 ,Fn3 ,v052
 .byte   N05 ,Fn4
 .byte   W06
 .byte   Gn3
 .byte   N05 ,Gn4
 .byte   W06
 .byte   An3
 .byte   N05 ,An4
 .byte   W06
 .byte   Bn3
 .byte   N05 ,Bn4
 .byte   W06
 .byte   Cn4
 .byte   N05 ,Cn5
 .byte   W06
 .byte   Dn4
 .byte   N05 ,Dn5
 .byte   W06
 .byte   En4
 .byte   N05 ,En5
 .byte   W06
 .byte   Fn4
 .byte   N05 ,Fn5
 .byte   W06
 .byte   Gn4
 .byte   N05 ,Gn5
 .byte   W06
 .byte   An4
 .byte   N05 ,An5
 .byte   W06
 .byte   Bn4
 .byte   N05 ,Bn5
 .byte   W06
 .byte   Cn5
 .byte   N05 ,Cn6
 .byte   W06
@ 025   ----------------------------------------
Label_5_0128E36D:
 .byte   N92 ,En3 ,v052
 .byte   N11 ,Bn3
 .byte   W12
 .byte   Cn4
 .byte   W12
 .byte   En4
 .byte   W12
 .byte   Gn4
 .byte   W24
 .byte   N11
 .byte   W12
 .byte   Bn4
 .byte   W12
 .byte   Cn5
 .byte   W12
 .byte   PEND 
@ 026   ----------------------------------------
 .byte   N92 ,En3
 .byte   W12
 .byte   N11 ,Bn4
 .byte   W12
 .byte   Gn4
 .byte   W12
 .byte   Dn4
 .byte   W24
 .byte   Cn4
 .byte   W12
 .byte   Bn3
 .byte   W12
 .byte   Cn4
 .byte   W12
 .byte   PATT
  .word Label_5_0128E36D
@ 027   ----------------------------------------
 .byte   N92 ,Dn3 ,v052
 .byte   W12
 .byte   N11 ,Bn4
 .byte   W12
 .byte   Gn4
 .byte   W12
 .byte   Dn4
 .byte   W24
 .byte   Cn4
 .byte   W12
 .byte   Bn3
 .byte   W12
 .byte   Cn4
 .byte   W12
@ 028   ----------------------------------------
 .byte   N92 ,Cn3
 .byte   N05 ,En5
 .byte   W06
 .byte   Fn5
 .byte   W06
 .byte   Cn5
 .byte   W06
 .byte   An4
 .byte   W06
 .byte   Dn4
 .byte   W72
@ 029   ----------------------------------------
 .byte   N92 ,Dn3
 .byte   W96
@ 030   ----------------------------------------
 .byte   TIE
 .byte   W96
@ 031   ----------------------------------------
 .byte   W92
 .byte   W03
 .byte   EOT
 .byte   W01
@ 032   ----------------------------------------
 .byte   N92 ,En3
 .byte   W96
@ 033   ----------------------------------------
 .byte   N92
 .byte   W96
@ 034   ----------------------------------------
 .byte   TIE
 .byte   W96
@ 035   ----------------------------------------
 .byte   W92
 .byte   W03
 .byte   EOT
 .byte   W01
@ 036   ----------------------------------------
 .byte   N92 ,Cn3
 .byte   W96
@ 037   ----------------------------------------
 .byte   N92
 .byte   W24
 .byte   N05 ,An4
 .byte   W06
 .byte   Cn5
 .byte   W06
 .byte   Dn5
 .byte   W06
 .byte   Fn5
 .byte   W06
 .byte   An4
 .byte   W06
 .byte   Cn5
 .byte   W06
 .byte   Dn5
 .byte   W06
 .byte   Fn5
 .byte   W06
 .byte   An4
 .byte   W06
 .byte   Cn5
 .byte   W06
 .byte   Dn5
 .byte   W06
 .byte   Fn5
 .byte   W06
@ 038   ----------------------------------------
 .byte   N92 ,Bn2
 .byte   W24
 .byte   N11 ,Dn3
 .byte   W12
 .byte   Fn3
 .byte   W12
 .byte   N05 ,Gs3
 .byte   W06
 .byte   Bn3
 .byte   W06
 .byte   Dn4
 .byte   W06
 .byte   Fn4
 .byte   W06
 .byte   Gs4
 .byte   W06
 .byte   Bn4
 .byte   W06
 .byte   Dn5
 .byte   W06
 .byte   Fn5
 .byte   W06
@ 039   ----------------------------------------
 .byte   W96
@ 040   ----------------------------------------
 .byte   N92 ,Gn3 ,v064
 .byte   W96
@ 041   ----------------------------------------
 .byte   Fn3
 .byte   W96
@ 042   ----------------------------------------
 .byte   En3
 .byte   W96
@ 043   ----------------------------------------
 .byte   N44 ,Dn3
 .byte   W48
 .byte   En3
 .byte   W48
@ 044   ----------------------------------------
 .byte   N92 ,Gn3
 .byte   W96
@ 045   ----------------------------------------
 .byte   En3
 .byte   W96
@ 046   ----------------------------------------
 .byte   Bn3
 .byte   W96
@ 047   ----------------------------------------
 .byte   Cn4
 .byte   W96
@ 048   ----------------------------------------
 .byte   TIE ,An3
 .byte   W96
@ 049   ----------------------------------------
 .byte   W92
 .byte   W03
 .byte   EOT
 .byte   W01
@ 050   ----------------------------------------
 .byte   N92 ,Bn3
 .byte   W96
@ 051   ----------------------------------------
 .byte   Gn3
 .byte   W96
@ 052   ----------------------------------------
 .byte   An3
 .byte   W96
@ 053   ----------------------------------------
 .byte   Gs3
 .byte   W96
@ 054   ----------------------------------------
 .byte   N32 ,Bn3
 .byte   W36
 .byte   TIE ,An3
 .byte   W60
@ 055   ----------------------------------------
 .byte   W68
 .byte   W03
 .byte   EOT
 .byte   W24
 .byte   W01
@ 056   ----------------------------------------
 .byte   W96
@ 057   ----------------------------------------
 .byte   W96
@ 058   ----------------------------------------
 .byte   W96
@ 059   ----------------------------------------
 .byte   W96
@ 060   ----------------------------------------
 .byte   W96
@ 061   ----------------------------------------
 .byte   W96
@ 062   ----------------------------------------
 .byte   W96
@ 063   ----------------------------------------
 .byte   W96
@ 064   ----------------------------------------
 .byte   W96
@ 065   ----------------------------------------
 .byte   W96
@ 066   ----------------------------------------
 .byte   W96
@ 067   ----------------------------------------
 .byte   W96
@ 068   ----------------------------------------
 .byte   W96
@ 069   ----------------------------------------
 .byte   W96
@ 070   ----------------------------------------
 .byte   W96
@ 071   ----------------------------------------
 .byte   W96
@ 072   ----------------------------------------
 .byte   W96
@ 073   ----------------------------------------
 .byte   W96
@ 074   ----------------------------------------
 .byte   W96
@ 075   ----------------------------------------
 .byte   W96
@ 076   ----------------------------------------
 .byte   W96
@ 077   ----------------------------------------
 .byte   W36
 .byte   N11 ,Gn4 ,v052
 .byte   W12
 .byte   Cn4
 .byte   W12
 .byte   Bn3
 .byte   W12
 .byte   Cn4
 .byte   W12
 .byte   Dn4
 .byte   W12
@ 078   ----------------------------------------
 .byte   W96
@ 079   ----------------------------------------
 .byte   W96
@ 080   ----------------------------------------
 .byte   W96
@ 081   ----------------------------------------
 .byte   W96
@ 082   ----------------------------------------
 .byte   W96
@ 083   ----------------------------------------
 .byte   W96
@ 084   ----------------------------------------
 .byte   W96
@ 085   ----------------------------------------
 .byte   W96
@ 086   ----------------------------------------
 .byte   W96
@ 087   ----------------------------------------
 .byte   W24
 .byte   N05 ,Gs4
 .byte   W06
 .byte   Bn4
 .byte   W06
 .byte   Dn5
 .byte   W06
 .byte   Fn5
 .byte   W06
 .byte   Gs4
 .byte   W06
 .byte   Bn4
 .byte   W06
 .byte   Dn5
 .byte   W06
 .byte   Fn5
 .byte   W06
 .byte   Gs4
 .byte   W06
 .byte   Bn4
 .byte   W06
 .byte   Dn5
 .byte   W06
 .byte   Gs5
 .byte   W06
@ 088   ----------------------------------------
 .byte   N32 ,Fn3 ,v064
 .byte   N05 ,Bn4 ,v052
 .byte   W06
 .byte   Cn5
 .byte   W06
 .byte   Dn5
 .byte   W06
 .byte   En5
 .byte   W06
 .byte   Bn4
 .byte   W06
 .byte   Cn5
 .byte   W06
 .byte   N32 ,En3 ,v064
 .byte   N05 ,Dn5 ,v052
 .byte   W06
 .byte   En5
 .byte   W06
 .byte   Cn5
 .byte   W06
 .byte   Dn5
 .byte   W06
 .byte   En5
 .byte   W06
 .byte   Fn5
 .byte   W06
 .byte   TIE ,Gn3 ,v064
 .byte   N05 ,An5 ,v052
 .byte   W06
 .byte   Gn5
 .byte   W06
 .byte   Fn5
 .byte   W06
 .byte   En5
 .byte   W06
@ 089   ----------------------------------------
Label_5_0128E4A4:
 .byte   N05 ,Cn5 ,v052
 .byte   W06
 .byte   Dn5
 .byte   W06
 .byte   En5
 .byte   W06
 .byte   Fn5
 .byte   W06
 .byte   An5
 .byte   W06
 .byte   Gn5
 .byte   W06
 .byte   Fn5
 .byte   W06
 .byte   En5
 .byte   W06
 .byte   Cn5
 .byte   W06
 .byte   Dn5
 .byte   W06
 .byte   En5
 .byte   W06
 .byte   Fn5
 .byte   W06
 .byte   An5
 .byte   W06
 .byte   Gn5
 .byte   W06
 .byte   Fn5
 .byte   W06
 .byte   En5
 .byte   W06
 .byte   PEND 
 .byte   PATT
  .word Label_5_0128E4A4
@ 090   ----------------------------------------
Label_5_0128E4CC:
 .byte   N05 ,Cn5 ,v052
 .byte   W06
 .byte   Dn5
 .byte   W06
 .byte   En5
 .byte   W06
 .byte   Fn5
 .byte   W06
 .byte   An5
 .byte   W06
 .byte   Gn5
 .byte   W06
 .byte   Fn5
 .byte   W06
 .byte   En5
 .byte   W06
 .byte   Cn5
 .byte   W06
 .byte   Dn5
 .byte   W06
 .byte   En5
 .byte   W06
 .byte   Fn5
 .byte   W06
 .byte   An5
 .byte   W06
 .byte   Gn5
 .byte   W06
 .byte   Fn5
 .byte   W06
 .byte   En5
 .byte   W05
 .byte   PEND 
 .byte   EOT
 .byte   Gn3
 .byte   W01
@ 091   ----------------------------------------
 .byte   N32 ,Fn3 ,v064
 .byte   N05 ,Bn4 ,v052
 .byte   W06
 .byte   Cn5
 .byte   W06
 .byte   Dn5
 .byte   W06
 .byte   En5
 .byte   W06
 .byte   Bn4
 .byte   W06
 .byte   Cn5
 .byte   W06
 .byte   N32 ,En3 ,v064
 .byte   N05 ,Dn5 ,v052
 .byte   W06
 .byte   En5
 .byte   W06
 .byte   Cn5
 .byte   W06
 .byte   Dn5
 .byte   W06
 .byte   En5
 .byte   W06
 .byte   Fn5
 .byte   W06
 .byte   TIE ,En3 ,v064
 .byte   N05 ,An5 ,v052
 .byte   W06
 .byte   Gn5
 .byte   W06
 .byte   Fn5
 .byte   W06
 .byte   En5
 .byte   W06
 .byte   PATT
  .word Label_5_0128E4A4
 .byte   PATT
  .word Label_5_0128E4A4
 .byte   PATT
  .word Label_5_0128E4CC
@ 092   ----------------------------------------
 .byte   EOT
 .byte   En3
 .byte   W01
 .byte   W96
@ 093   ----------------------------------------
 .byte   W96
@ 094   ----------------------------------------
 .byte   W96
@ 095   ----------------------------------------
 .byte   W96
@ 096   ----------------------------------------
 .byte   W96
@ 097   ----------------------------------------
 .byte   W96
@ 098   ----------------------------------------
 .byte   W24
 .byte   N05 ,En5 ,v052
 .byte   W06
 .byte   Gs5
 .byte   W06
 .byte   Bn5
 .byte   W12
 .byte   En5
 .byte   W06
 .byte   Gs5
 .byte   W06
 .byte   Bn5
 .byte   W12
 .byte   En5
 .byte   W06
 .byte   Gs5
 .byte   W06
 .byte   Bn5
 .byte   W12
@ 099   ----------------------------------------
 .byte   W96
@ 100   ----------------------------------------
 .byte   W96
@ 101   ----------------------------------------
 .byte   W96
@ 102   ----------------------------------------
 .byte   W96
@ 103   ----------------------------------------
 .byte   W96
@ 104   ----------------------------------------
 .byte   W96
@ 105   ----------------------------------------
 .byte   W96
@ 106   ----------------------------------------
 .byte   W96
@ 107   ----------------------------------------
 .byte   W96
@ 108   ----------------------------------------
 .byte   W96
@ 109   ----------------------------------------
 .byte   W96
@ 110   ----------------------------------------
 .byte   W96
@ 111   ----------------------------------------
 .byte   W96
@ 112   ----------------------------------------
 .byte   W96
@ 113   ----------------------------------------
 .byte   W96
@ 114   ----------------------------------------
 .byte   W96
@ 115   ----------------------------------------
 .byte   W96
@ 116   ----------------------------------------
 .byte   W96
@ 117   ----------------------------------------
 .byte   W96
@ 118   ----------------------------------------
 .byte   W96
@ 119   ----------------------------------------
 .byte   W96
@ 120   ----------------------------------------
 .byte   W96
@ 121   ----------------------------------------
 .byte   W96
@ 122   ----------------------------------------
 .byte   W96
@ 123   ----------------------------------------
 .byte   W96
@ 124   ----------------------------------------
 .byte   W48
 .byte   N92 ,An3 ,v096
 .byte   W48
@ 125   ----------------------------------------
 .byte   W48
 .byte   N44 ,Bn3
 .byte   W48
@ 126   ----------------------------------------
 .byte   Gn3
 .byte   W48
 .byte   N23 ,Dn3
 .byte   W24
 .byte   N11 ,Cn4
 .byte   W12
 .byte   N32 ,Dn4
 .byte   W12
@ 127   ----------------------------------------
 .byte   W24
 .byte   N23 ,Cn4
 .byte   W72
@ 128   ----------------------------------------
 .byte   N44 ,Fn3
 .byte   W48
 .byte   En3
 .byte   W48
@ 129   ----------------------------------------
 .byte   N92 ,Fn3
 .byte   W96
@ 130   ----------------------------------------
 .byte   An3
 .byte   W96
@ 131   ----------------------------------------
 .byte   Gs3
 .byte   W96
@ 132   ----------------------------------------
 .byte   As3 ,v064
 .byte   W96
@ 133   ----------------------------------------
 .byte   An3
 .byte   W96
@ 134   ----------------------------------------
 .byte   W96
@ 135   ----------------------------------------
 .byte   W96
@ 136   ----------------------------------------
 .byte   W96
@ 137   ----------------------------------------
 .byte   W96
@ 138   ----------------------------------------
 .byte   W96
@ 139   ----------------------------------------
 .byte   W96
@ 140   ----------------------------------------
 .byte   W96
@ 141   ----------------------------------------
 .byte   W96
@ 142   ----------------------------------------
 .byte   W96
@ 143   ----------------------------------------
 .byte   W96
@ 144   ----------------------------------------
 .byte   W96
@ 145   ----------------------------------------
 .byte   W96
@ 146   ----------------------------------------
 .byte   W96
@ 147   ----------------------------------------
 .byte   W96
@ 148   ----------------------------------------
 .byte   W96
@ 149   ----------------------------------------
 .byte   W96
@ 150   ----------------------------------------
 .byte   BEND , c_v+31
 .byte   N44 ,Dn1 ,v112
 .byte   W01
 .byte   BEND , c_v+30
 .byte   W01
 .byte   As5
 .byte   W01
 .byte   An5
 .byte   W01
 .byte   Gs5
 .byte   W01
 .byte   Gs5
 .byte   W01
 .byte   Gn5
 .byte   W01
 .byte   Gn5
 .byte   W01
 .byte   Fs5
 .byte   W01
 .byte   Fn5
 .byte   W01
 .byte   Fn5
 .byte   W01
 .byte   En5
 .byte   W01
 .byte   Ds5
 .byte   W01
 .byte   Dn5
 .byte   W01
 .byte   Dn5
 .byte   W01
 .byte   Cs5
 .byte   W01
 .byte   Cn5
 .byte   W01
 .byte   Cn5
 .byte   W01
 .byte   Bn4
 .byte   W01
 .byte   Bn4
 .byte   W01
 .byte   As4
 .byte   W01
 .byte   An4
 .byte   W01
 .byte   An4
 .byte   W01
 .byte   Gs4
 .byte   W01
 .byte   Gn4
 .byte   W01
 .byte   Fs4
 .byte   W01
 .byte   Fs4
 .byte   W01
 .byte   Fn4
 .byte   W01
 .byte   En4
 .byte   W01
 .byte   En4
 .byte   W01
 .byte   Ds4
 .byte   W01
 .byte   Ds4
 .byte   W01
 .byte   Dn4
 .byte   W01
 .byte   Cs4
 .byte   W01
 .byte   Cs4
 .byte   W01
 .byte   Cn4
 .byte   W01
 .byte   Bn3
 .byte   W01
 .byte   As3
 .byte   W01
 .byte   As3
 .byte   W01
 .byte   An3
 .byte   W01
 .byte   Gs3
 .byte   W01
 .byte   Gs3
 .byte   W01
 .byte   Gn3
 .byte   W01
 .byte   Gn3
 .byte   W01
 .byte   Fs3
 .byte   W01
 .byte   Fn3
 .byte   W01
 .byte   Fn3
 .byte   W01
 .byte   En3
 .byte   W01
 .byte   En3
 .byte   W48
@ 151   ----------------------------------------
 .byte   W96
@ 152   ----------------------------------------
 .byte   W96
@ 153   ----------------------------------------
 .byte   W96
@ 154   ----------------------------------------
 .byte   W96
@ 155   ----------------------------------------
 .byte   W96
@ 156   ----------------------------------------
 .byte   W96
@ 157   ----------------------------------------
 .byte   W96
@ 158   ----------------------------------------
 .byte   W96
@ 159   ----------------------------------------
 .byte   W96
@ 160   ----------------------------------------
 .byte   W96
@ 161   ----------------------------------------
 .byte   W96
@ 162   ----------------------------------------
 .byte   W96
@ 163   ----------------------------------------
 .byte   W96
@ 164   ----------------------------------------
 .byte   W96
@ 165   ----------------------------------------
 .byte   W96
@ 166   ----------------------------------------
 .byte   W48
 .byte   N44 ,Cs3 ,v080
 .byte   W48
@ 167   ----------------------------------------
 .byte   N32 ,Cn3
 .byte   W36
 .byte   Cs3
 .byte   W36
 .byte   N23 ,Ds3
 .byte   W24
@ 168   ----------------------------------------
 .byte   N44 ,Fn3
 .byte   W48
 .byte   Gs3
 .byte   W48
@ 169   ----------------------------------------
 .byte   N32 ,Ds3
 .byte   W36
 .byte   Cs3
 .byte   W36
 .byte   N23 ,Cn3
 .byte   W24
@ 170   ----------------------------------------
 .byte   W48
 .byte   N44 ,Cs3
 .byte   W48
@ 171   ----------------------------------------
 .byte   N32
 .byte   W36
 .byte   Ds3
 .byte   W36
 .byte   N23 ,Cs3
 .byte   W24
@ 172   ----------------------------------------
 .byte   TIE ,Cn3
 .byte   W96
@ 173   ----------------------------------------
 .byte   W92
 .byte   W03
 .byte   EOT
 .byte   W01
@ 174   ----------------------------------------
 .byte   N92
 .byte   W96
@ 175   ----------------------------------------
 .byte   Bn2
 .byte   W92
 .byte   W03
 .byte   BEND , c_v+0
 .byte   W01
@ 176   ----------------------------------------
 .byte   GOTO
  .word Label_5_0128E1FA
 .byte   FINE

@**************** Track 7 (Midi-Chn.6) ****************@

song0E_007:
@ 000   ----------------------------------------
 .byte   KEYSH , song0E_key+0
Label_6_0128E652:
 .byte   VOICE , 127
 .byte   VOL , 43*song0E_mvl/mxv
 .byte   PAN , c_v+14
 .byte   VOL , 51*song0E_mvl/mxv
 .byte   PAN , c_v+0
 .byte   VOL , 51*song0E_mvl/mxv
 .byte   PAN , c_v+0
 .byte   VOL , 51*song0E_mvl/mxv
 .byte   PAN , c_v+0
 .byte   VOL , 51*song0E_mvl/mxv
 .byte   PAN , c_v+0
 .byte   W48
 .byte   W96
@ 001   ----------------------------------------
 .byte   W96
@ 002   ----------------------------------------
 .byte   W96
@ 003   ----------------------------------------
 .byte   W96
@ 004   ----------------------------------------
 .byte   W96
@ 005   ----------------------------------------
 .byte   W96
@ 006   ----------------------------------------
 .byte   W96
@ 007   ----------------------------------------
 .byte   W96
@ 008   ----------------------------------------
Label_6_0128E671:
 .byte   N23 ,An2 ,v064
 .byte   W24
 .byte   N23
 .byte   W24
 .byte   N23
 .byte   W24
 .byte   N23
 .byte   W24
 .byte   PEND 
@ 009   ----------------------------------------
Label_6_0128E67C:
 .byte   N23 ,An2 ,v064
 .byte   W24
 .byte   N23
 .byte   W24
 .byte   N23
 .byte   W48
 .byte   PEND 
 .byte   PATT
  .word Label_6_0128E671
 .byte   PATT
  .word Label_6_0128E67C
 .byte   PATT
  .word Label_6_0128E671
 .byte   PATT
  .word Label_6_0128E671
 .byte   PATT
  .word Label_6_0128E671
 .byte   PATT
  .word Label_6_0128E67C
 .byte   PATT
  .word Label_6_0128E671
 .byte   PATT
  .word Label_6_0128E67C
 .byte   PATT
  .word Label_6_0128E671
 .byte   PATT
  .word Label_6_0128E67C
 .byte   PATT
  .word Label_6_0128E671
 .byte   PATT
  .word Label_6_0128E671
 .byte   PATT
  .word Label_6_0128E671
 .byte   PATT
  .word Label_6_0128E67C
 .byte   PATT
  .word Label_6_0128E671
 .byte   PATT
  .word Label_6_0128E671
 .byte   PATT
  .word Label_6_0128E671
@ 010   ----------------------------------------
 .byte   N23 ,An2 ,v064
 .byte   W96
 .byte   PATT
  .word Label_6_0128E671
 .byte   PATT
  .word Label_6_0128E671
 .byte   PATT
  .word Label_6_0128E671
@ 011   ----------------------------------------
 .byte   N23 ,An2 ,v064
 .byte   W96
@ 012   ----------------------------------------
 .byte   N92 ,An2 ,v052
 .byte   W96
@ 013   ----------------------------------------
 .byte   Gn2
 .byte   W96
@ 014   ----------------------------------------
 .byte   TIE ,Fn2
 .byte   W96
@ 015   ----------------------------------------
 .byte   W92
 .byte   W03
 .byte   EOT
 .byte   W01
@ 016   ----------------------------------------
 .byte   N92
 .byte   W96
@ 017   ----------------------------------------
 .byte   Gn2
 .byte   W96
@ 018   ----------------------------------------
 .byte   TIE
 .byte   W96
@ 019   ----------------------------------------
 .byte   W92
 .byte   W03
 .byte   EOT
 .byte   W01
@ 020   ----------------------------------------
 .byte   N92 ,An2
 .byte   W96
@ 021   ----------------------------------------
 .byte   Gn2
 .byte   W96
@ 022   ----------------------------------------
 .byte   TIE ,Fn2
 .byte   W96
@ 023   ----------------------------------------
 .byte   W92
 .byte   W03
 .byte   EOT
 .byte   W01
@ 024   ----------------------------------------
 .byte   N92
 .byte   W96
@ 025   ----------------------------------------
 .byte   Gn2
 .byte   W96
@ 026   ----------------------------------------
 .byte   Gs2
 .byte   W96
@ 027   ----------------------------------------
 .byte   W96
@ 028   ----------------------------------------
 .byte   W96
@ 029   ----------------------------------------
 .byte   W96
@ 030   ----------------------------------------
 .byte   W96
@ 031   ----------------------------------------
 .byte   W96
@ 032   ----------------------------------------
 .byte   Bn2 ,v064
 .byte   W96
@ 033   ----------------------------------------
 .byte   Cn3
 .byte   W96
@ 034   ----------------------------------------
 .byte   Dn3
 .byte   W96
@ 035   ----------------------------------------
 .byte   Gn3
 .byte   W96
@ 036   ----------------------------------------
 .byte   Dn3
 .byte   W96
@ 037   ----------------------------------------
 .byte   En3
 .byte   W96
@ 038   ----------------------------------------
 .byte   N92
 .byte   W96
@ 039   ----------------------------------------
 .byte   Dn3
 .byte   W96
@ 040   ----------------------------------------
 .byte   An2
 .byte   W96
@ 041   ----------------------------------------
 .byte   Gs2
 .byte   W96
@ 042   ----------------------------------------
 .byte   N32 ,Bn2
 .byte   W36
 .byte   TIE ,An2
 .byte   W60
@ 043   ----------------------------------------
 .byte   W68
 .byte   W03
 .byte   EOT
 .byte   W24
 .byte   W01
@ 044   ----------------------------------------
 .byte   W96
@ 045   ----------------------------------------
 .byte   W96
@ 046   ----------------------------------------
 .byte   W96
@ 047   ----------------------------------------
 .byte   W96
@ 048   ----------------------------------------
 .byte   W96
@ 049   ----------------------------------------
 .byte   W96
@ 050   ----------------------------------------
 .byte   W96
@ 051   ----------------------------------------
 .byte   W96
@ 052   ----------------------------------------
 .byte   W96
@ 053   ----------------------------------------
 .byte   W96
@ 054   ----------------------------------------
 .byte   W96
@ 055   ----------------------------------------
 .byte   W96
@ 056   ----------------------------------------
 .byte   W96
@ 057   ----------------------------------------
 .byte   W96
@ 058   ----------------------------------------
 .byte   W96
@ 059   ----------------------------------------
 .byte   W96
@ 060   ----------------------------------------
 .byte   W96
@ 061   ----------------------------------------
 .byte   W72
 .byte   N23 ,En1 ,v080
 .byte   W24
@ 062   ----------------------------------------
 .byte   N92 ,An1 ,v052
 .byte   W96
@ 063   ----------------------------------------
 .byte   W96
@ 064   ----------------------------------------
 .byte   N32 ,Fn1
 .byte   W36
 .byte   N11
 .byte   W36
 .byte   N32
 .byte   W24
@ 065   ----------------------------------------
 .byte   W12
 .byte   N11
 .byte   W36
 .byte   N44 ,Gn1 ,v080
 .byte   W48
@ 066   ----------------------------------------
 .byte   N32 ,An1 ,v052
 .byte   W36
 .byte   N11
 .byte   W36
 .byte   TIE
 .byte   W24
@ 067   ----------------------------------------
 .byte   W04
 .byte   W05
 .byte   W05
 .byte   W05
 .byte   W05
 .byte   W04
 .byte   W05
 .byte   W05
 .byte   W05
 .byte   W05
 .byte   W04
 .byte   W05
 .byte   W05
 .byte   W05
 .byte   W28
 .byte   EOT
 .byte   W01
@ 068   ----------------------------------------
 .byte   TIE ,Dn1
 .byte   W96
@ 069   ----------------------------------------
 .byte   W44
 .byte   W03
 .byte   EOT
 .byte   W01
 .byte   N44 ,En1
 .byte   W48
@ 070   ----------------------------------------
 .byte   TIE ,An1
 .byte   W96
@ 071   ----------------------------------------
 .byte   W44
 .byte   W03
 .byte   EOT
 .byte   W01
 .byte   N11 ,Gn1
 .byte   W12
 .byte   Fn1
 .byte   W12
 .byte   N23 ,En1
 .byte   W24
@ 072   ----------------------------------------
 .byte   TIE ,Dn1
 .byte   W96
@ 073   ----------------------------------------
 .byte   W44
 .byte   W03
 .byte   EOT
 .byte   W01
 .byte   N44
 .byte   W48
@ 074   ----------------------------------------
 .byte   TIE ,En1
 .byte   W96
@ 075   ----------------------------------------
 .byte   W05
 .byte   W03
 .byte   W02
 .byte   W03
 .byte   W03
 .byte   W02
 .byte   W03
 .byte   W03
 .byte   W03
 .byte   W02
 .byte   W03
 .byte   W03
 .byte   W02
 .byte   W03
 .byte   W03
 .byte   W02
 .byte   W03
 .byte   W03
 .byte   W03
 .byte   W02
 .byte   W03
 .byte   W03
 .byte   W02
 .byte   W03
 .byte   W03
 .byte   W02
 .byte   W03
 .byte   W03
 .byte   W03
 .byte   W02
 .byte   W12
 .byte   EOT
 .byte   W01
@ 076   ----------------------------------------
 .byte   N32 ,Dn1 ,v080
 .byte   N32 ,Cn3 ,v064
 .byte   W36
 .byte   En1 ,v080
 .byte   N32 ,Dn3 ,v064
 .byte   W36
 .byte   TIE ,An1 ,v080
 .byte   N68 ,Cn3 ,v064
 .byte   W24
@ 077   ----------------------------------------
 .byte   W48
 .byte   N44 ,Bn2
 .byte   W48
@ 078   ----------------------------------------
 .byte   N11 ,Gn2
 .byte   W12
 .byte   Bn2
 .byte   W12
 .byte   Dn3
 .byte   W12
 .byte   Bn2
 .byte   W12
 .byte   Gn2
 .byte   W12
 .byte   Bn2
 .byte   W12
 .byte   Dn3
 .byte   W12
 .byte   Bn2
 .byte   W12
@ 079   ----------------------------------------
Label_6_0128E7F0:
 .byte   N11 ,Gn2 ,v064
 .byte   W12
 .byte   Bn2
 .byte   W12
 .byte   Dn3
 .byte   W12
 .byte   Bn2
 .byte   W12
 .byte   Gn2
 .byte   W12
 .byte   Bn2
 .byte   W12
 .byte   Dn3
 .byte   W12
 .byte   Bn2
 .byte   W11
 .byte   PEND 
 .byte   EOT
 .byte   An1
 .byte   W01
@ 080   ----------------------------------------
 .byte   N32 ,Dn1 ,v080
 .byte   N32 ,Cn3 ,v064
 .byte   W36
 .byte   En1 ,v080
 .byte   N32 ,Dn3 ,v064
 .byte   W36
 .byte   TIE ,An1 ,v080
 .byte   TIE ,Bn2 ,v064
 .byte   W24
@ 081   ----------------------------------------
 .byte   W92
 .byte   W03
 .byte   EOT
 .byte   W01
@ 082   ----------------------------------------
 .byte   N23 ,Dn3
 .byte   W48
 .byte   N11 ,Gn2
 .byte   W12
 .byte   Bn2
 .byte   W12
 .byte   Dn3
 .byte   W12
 .byte   Bn2
 .byte   W12
 .byte   PATT
  .word Label_6_0128E7F0
@ 083   ----------------------------------------
 .byte   EOT
 .byte   An1
 .byte   W01
 .byte   N32 ,Dn1 ,v080
 .byte   N32 ,Cn4 ,v064
 .byte   W36
 .byte   En1 ,v080
 .byte   N32 ,Bn3 ,v064
 .byte   W36
 .byte   TIE ,An1 ,v080
 .byte   TIE ,En3 ,v064
 .byte   W24
@ 084   ----------------------------------------
 .byte   W92
 .byte   W03
 .byte   EOT
 .byte   An1 ,v064
 .byte   W01
@ 085   ----------------------------------------
 .byte   TIE ,An1 ,v080
 .byte   W24
 .byte   N23 ,Cn4 ,v064
 .byte   W24
 .byte   Bn3
 .byte   W24
 .byte   N68 ,En3
 .byte   W24
@ 086   ----------------------------------------
 .byte   W48
 .byte   N44 ,Dn3
 .byte   W44
 .byte   W03
 .byte   EOT
 .byte   An1
 .byte   W01
@ 087   ----------------------------------------
 .byte   N32 ,Dn1 ,v080
 .byte   N23 ,Dn3 ,v064
 .byte   W24
 .byte   N11 ,En3
 .byte   W12
 .byte   N32 ,Dn1 ,v080
 .byte   N23 ,En3 ,v064
 .byte   W24
 .byte   N11 ,Fn3
 .byte   W12
 .byte   TIE ,En1 ,v080
 .byte   TIE ,En3 ,v064
 .byte   W24
@ 088   ----------------------------------------
 .byte   W92
 .byte   W03
 .byte   EOT
 .byte   W01
@ 089   ----------------------------------------
 .byte   W92
 .byte   W03
 .byte   En1
 .byte   W01
@ 090   ----------------------------------------
 .byte   W96
@ 091   ----------------------------------------
 .byte   N92 ,Fn1 ,v096
 .byte   N32 ,En3 ,v080
 .byte   W36
 .byte   N11
 .byte   W24
 .byte   N32 ,Cn3
 .byte   W36
@ 092   ----------------------------------------
 .byte   N92 ,Gn1 ,v096
 .byte   N32 ,Cn3 ,v080
 .byte   W36
 .byte   Dn3
 .byte   W36
 .byte   N23 ,Bn2
 .byte   W24
@ 093   ----------------------------------------
 .byte   N92 ,An1 ,v096
 .byte   N32 ,Gn3 ,v080
 .byte   W36
 .byte   N11 ,En3
 .byte   W24
 .byte   N32
 .byte   W36
@ 094   ----------------------------------------
 .byte   N92 ,En1 ,v096
 .byte   N32 ,Dn3 ,v080
 .byte   W36
 .byte   Cn3
 .byte   W36
 .byte   N23 ,Bn2
 .byte   W24
@ 095   ----------------------------------------
 .byte   N92 ,Dn1 ,v096
 .byte   N44 ,An2 ,v080
 .byte   W48
 .byte   N23 ,Gn3
 .byte   W24
 .byte   Fn3
 .byte   W24
@ 096   ----------------------------------------
 .byte   N44 ,En1 ,v096
 .byte   N44 ,Dn3 ,v080
 .byte   W48
 .byte   Gs1 ,v096
 .byte   N44 ,Gs3 ,v080
 .byte   W48
@ 097   ----------------------------------------
 .byte   N92 ,An1 ,v096
 .byte   N32 ,Bn3 ,v080
 .byte   W36
 .byte   N56 ,An3
 .byte   W60
@ 098   ----------------------------------------
 .byte   N32 ,Gn1 ,v096
 .byte   N32 ,Gn3 ,v080
 .byte   W36
 .byte   Gn1 ,v096
 .byte   N32 ,Fn3 ,v080
 .byte   W36
 .byte   N23 ,Fs1 ,v096
 .byte   N23 ,En3 ,v080
 .byte   W24
@ 099   ----------------------------------------
 .byte   N92 ,Fn1 ,v096
 .byte   N23 ,En3 ,v080
 .byte   W24
 .byte   Fn3
 .byte   W24
 .byte   N32 ,An3
 .byte   W36
 .byte   N44 ,Gn3
 .byte   W12
@ 100   ----------------------------------------
 .byte   N92 ,Gn1 ,v096
 .byte   W36
 .byte   N32 ,Dn3 ,v080
 .byte   W36
 .byte   N23 ,Gn3
 .byte   W24
@ 101   ----------------------------------------
 .byte   N92 ,En1 ,v096
 .byte   N32 ,Dn3 ,v080
 .byte   W36
 .byte   N56 ,Bn3
 .byte   W60
@ 102   ----------------------------------------
 .byte   N44 ,An1 ,v096
 .byte   N23 ,Bn3 ,v080
 .byte   W24
 .byte   Cn4
 .byte   W24
 .byte   Bn1 ,v096
 .byte   N44 ,Gn3 ,v080
 .byte   W24
 .byte   N11 ,An1 ,v096
 .byte   W12
 .byte   Gn1
 .byte   W12
@ 103   ----------------------------------------
 .byte   N92 ,Dn1
 .byte   N44 ,Fn3 ,v080
 .byte   W48
 .byte   An3
 .byte   W48
@ 104   ----------------------------------------
 .byte   N92 ,En1 ,v096
 .byte   N44 ,Gs3 ,v080
 .byte   W48
 .byte   En3
 .byte   W48
@ 105   ----------------------------------------
 .byte   TIE ,An1 ,v096
 .byte   N32 ,Dn3 ,v080
 .byte   W36
 .byte   Cn3
 .byte   W36
 .byte   N23
 .byte   W24
@ 106   ----------------------------------------
 .byte   N32 ,Bn2
 .byte   W36
 .byte   N56 ,An2
 .byte   W56
 .byte   W03
 .byte   EOT
 .byte   An1
 .byte   W01
@ 107   ----------------------------------------
 .byte   N92 ,Fn1 ,v096
 .byte   N68 ,Gn4 ,v112
 .byte   W72
 .byte   N11 ,Fn4
 .byte   W12
 .byte   N80 ,En4
 .byte   W12
@ 108   ----------------------------------------
 .byte   N92 ,Gn1 ,v096
 .byte   W72
 .byte   N23 ,Fn4 ,v112
 .byte   W24
@ 109   ----------------------------------------
 .byte   N92 ,An1 ,v096
 .byte   N23 ,En4 ,v112
 .byte   W24
 .byte   N44 ,Dn4
 .byte   W48
 .byte   N23 ,En4
 .byte   W24
@ 110   ----------------------------------------
 .byte   N92 ,En1 ,v096
 .byte   N23 ,Fn4 ,v112
 .byte   W24
 .byte   En4
 .byte   W24
 .byte   Dn4
 .byte   W24
 .byte   Cn4
 .byte   W24
@ 111   ----------------------------------------
 .byte   N92 ,Fn1 ,v096
 .byte   N23 ,Dn4 ,v112
 .byte   W24
 .byte   N11 ,En4
 .byte   W12
 .byte   TIE
 .byte   W60
@ 112   ----------------------------------------
 .byte   N44 ,Gn1 ,v096
 .byte   W44
 .byte   W03
 .byte   EOT
 .byte   En4
 .byte   W01
 .byte   N44 ,Gs1
 .byte   N44 ,Bn3 ,v112
 .byte   W48
@ 113   ----------------------------------------
 .byte   N92 ,An1 ,v096
 .byte   N23 ,Bn3 ,v112
 .byte   W24
 .byte   Cn4
 .byte   W24
 .byte   Bn3
 .byte   W24
 .byte   N92 ,Cn4
 .byte   W24
@ 114   ----------------------------------------
 .byte   N44 ,Gn1 ,v096
 .byte   W48
 .byte   Fs1
 .byte   W24
 .byte   N11 ,An3 ,v112
 .byte   W12
 .byte   Bn3
 .byte   W12
@ 115   ----------------------------------------
 .byte   N92 ,Fn0 ,v064
 .byte   N92 ,Fn1
 .byte   N56 ,Cn4 ,v112
 .byte   W60
 .byte   N11 ,Bn3
 .byte   W12
 .byte   An3
 .byte   W12
 .byte   Gn3
 .byte   W12
@ 116   ----------------------------------------
 .byte   N92 ,Gn0 ,v064
 .byte   N92 ,Gn1
 .byte   N68 ,An3 ,v112
 .byte   W72
 .byte   N11
 .byte   W12
 .byte   Bn3
 .byte   W12
@ 117   ----------------------------------------
 .byte   N92 ,En0 ,v064
 .byte   N92 ,En1
 .byte   N56 ,Cn4 ,v112
 .byte   W60
 .byte   N11 ,Bn3
 .byte   W12
 .byte   Cn4
 .byte   W12
 .byte   N32 ,Dn4
 .byte   W12
@ 118   ----------------------------------------
 .byte   N92 ,An0 ,v064
 .byte   N92 ,An1
 .byte   W24
 .byte   N23 ,Cn4 ,v112
 .byte   W48
 .byte   N11 ,An3
 .byte   W12
 .byte   Bn3
 .byte   W12
@ 119   ----------------------------------------
 .byte   N92 ,Dn0 ,v064
 .byte   N92 ,Dn1
 .byte   N56 ,Cn4 ,v112
 .byte   W60
 .byte   N23 ,An3
 .byte   W24
 .byte   N11 ,Bn3
 .byte   W12
@ 120   ----------------------------------------
 .byte   N92 ,Dn0 ,v064
 .byte   N92 ,Dn1
 .byte   N23 ,Cn4 ,v112
 .byte   W24
 .byte   Dn4
 .byte   W24
 .byte   En4
 .byte   W24
 .byte   N11 ,Fn4
 .byte   W12
 .byte   TIE ,En4
 .byte   W12
@ 121   ----------------------------------------
 .byte   En0 ,v064
 .byte   TIE ,En1
 .byte   N92 ,Dn3 ,v080
 .byte   W96
@ 122   ----------------------------------------
 .byte   N92
 .byte   W92
 .byte   W03
 .byte   EOT
 .byte   En0 ,v040
 .byte   En4
 .byte   W01
@ 123   ----------------------------------------
 .byte   N92 ,Fn1 ,v064
 .byte   N92 ,Cs3
 .byte   W96
@ 124   ----------------------------------------
 .byte   Fn1
 .byte   N92 ,Cs3
 .byte   W96
@ 125   ----------------------------------------
 .byte   W96
@ 126   ----------------------------------------
 .byte   W96
@ 127   ----------------------------------------
 .byte   W96
@ 128   ----------------------------------------
 .byte   W96
@ 129   ----------------------------------------
 .byte   W96
@ 130   ----------------------------------------
 .byte   W96
@ 131   ----------------------------------------
 .byte   W96
@ 132   ----------------------------------------
 .byte   W96
@ 133   ----------------------------------------
 .byte   Fs1 ,v080
 .byte   W96
@ 134   ----------------------------------------
 .byte   Gs1
 .byte   W96
@ 135   ----------------------------------------
 .byte   As1
 .byte   W96
@ 136   ----------------------------------------
 .byte   Fn1
 .byte   W96
@ 137   ----------------------------------------
 .byte   Ds1
 .byte   W96
@ 138   ----------------------------------------
 .byte   TIE ,Fn1
 .byte   W96
@ 139   ----------------------------------------
 .byte   W92
 .byte   W03
 .byte   EOT
 .byte   W01
@ 140   ----------------------------------------
 .byte   W96
@ 141   ----------------------------------------
 .byte   W48
 .byte   N44 ,Fs1
 .byte   N44 ,Cs3
 .byte   W48
@ 142   ----------------------------------------
 .byte   N32 ,Gs1
 .byte   N32 ,Cs3
 .byte   W36
 .byte   N11 ,Gs1
 .byte   N32 ,Ds3
 .byte   W24
 .byte   Gs1
 .byte   W12
 .byte   N23 ,Cn3
 .byte   W24
@ 143   ----------------------------------------
 .byte   N92 ,As1
 .byte   N32 ,Gs3
 .byte   W36
 .byte   N11 ,Fn3
 .byte   W24
 .byte   N32
 .byte   W36
@ 144   ----------------------------------------
 .byte   N92 ,Fn1
 .byte   N32 ,Ds3
 .byte   W36
 .byte   Cs3
 .byte   W36
 .byte   N23 ,Cn3
 .byte   W24
@ 145   ----------------------------------------
 .byte   N92 ,Ds1
 .byte   N44 ,As2
 .byte   W48
 .byte   N23 ,Gs3
 .byte   W24
 .byte   Fs3
 .byte   W24
@ 146   ----------------------------------------
 .byte   N44 ,Fn1
 .byte   N44 ,Ds3
 .byte   W48
 .byte   An1
 .byte   N44 ,An3
 .byte   W48
@ 147   ----------------------------------------
 .byte   N92 ,As1
 .byte   N32 ,Cn4
 .byte   W36
 .byte   N56 ,As3
 .byte   W60
@ 148   ----------------------------------------
 .byte   N32 ,Gs1
 .byte   N32 ,Gs3
 .byte   W36
 .byte   Gs1
 .byte   N32 ,Fs3
 .byte   W36
 .byte   N23 ,Gn1
 .byte   N23 ,Fn3
 .byte   W24
@ 149   ----------------------------------------
 .byte   N92 ,Fs1
 .byte   N23 ,Fn3
 .byte   W24
 .byte   Fs3
 .byte   W24
 .byte   N32 ,As3
 .byte   W36
 .byte   N44 ,Gs3
 .byte   W12
@ 150   ----------------------------------------
 .byte   N92 ,Gs1
 .byte   W36
 .byte   N32 ,Ds3
 .byte   W36
 .byte   N23 ,Gs3
 .byte   W24
@ 151   ----------------------------------------
 .byte   N92 ,Fn1
 .byte   N32 ,Ds3
 .byte   W36
 .byte   N56 ,Cn4
 .byte   W60
@ 152   ----------------------------------------
 .byte   N44 ,As1
 .byte   N23 ,Cn4
 .byte   W24
 .byte   Cs4
 .byte   W24
 .byte   Cn2
 .byte   N44 ,Gs3
 .byte   W24
 .byte   N11 ,As1
 .byte   W12
 .byte   Gs1
 .byte   W12
@ 153   ----------------------------------------
 .byte   N92 ,Ds1
 .byte   N44 ,Fs3
 .byte   W48
 .byte   As3
 .byte   W48
@ 154   ----------------------------------------
 .byte   N92 ,Fn1
 .byte   N44 ,An3
 .byte   W48
 .byte   Fn3
 .byte   W48
@ 155   ----------------------------------------
 .byte   TIE ,As1
 .byte   N32 ,Ds3
 .byte   W36
 .byte   Cs3
 .byte   W36
 .byte   N23
 .byte   W24
@ 156   ----------------------------------------
 .byte   N32 ,Cn3
 .byte   W36
 .byte   N56 ,As2
 .byte   W56
 .byte   W03
 .byte   EOT
 .byte   As1
 .byte   W01
@ 157   ----------------------------------------
Label_6_0128EAE3:
 .byte   N11 ,Ds1 ,v116
 .byte   W03
 .byte   W01
 .byte   W01
 .byte   W19
 .byte   N11
 .byte   W03
 .byte   W01
 .byte   W01
 .byte   W19
 .byte   N11
 .byte   W03
 .byte   W01
 .byte   W01
 .byte   W19
 .byte   N11
 .byte   W03
 .byte   W01
 .byte   W01
 .byte   W19
 .byte   PEND 
@ 158   ----------------------------------------
Label_6_0128EAFA:
 .byte   N11 ,Fn1 ,v116
 .byte   W03
 .byte   W01
 .byte   W01
 .byte   W19
 .byte   N11
 .byte   W03
 .byte   W01
 .byte   W01
 .byte   W19
 .byte   N11
 .byte   W03
 .byte   W01
 .byte   W01
 .byte   W19
 .byte   N11
 .byte   W03
 .byte   W01
 .byte   W01
 .byte   W19
 .byte   PEND 
@ 159   ----------------------------------------
 .byte   Fs1
 .byte   W03
 .byte   W01
 .byte   W01
 .byte   W19
 .byte   N11
 .byte   W03
 .byte   W01
 .byte   W01
 .byte   W19
 .byte   N11
 .byte   W03
 .byte   W01
 .byte   W01
 .byte   W19
 .byte   N11
 .byte   W03
 .byte   W01
 .byte   W01
 .byte   W19
 .byte   PATT
  .word Label_6_0128EAFA
 .byte   PATT
  .word Label_6_0128EAE3
 .byte   PATT
  .word Label_6_0128EAE3
 .byte   PATT
  .word Label_6_0128EAFA
 .byte   PATT
  .word Label_6_0128EAFA
@ 160   ----------------------------------------
Label_6_0128EB3E:
 .byte   N11 ,Gn1 ,v116
 .byte   W03
 .byte   W01
 .byte   W01
 .byte   W19
 .byte   N11
 .byte   W03
 .byte   W01
 .byte   W01
 .byte   W19
 .byte   N11
 .byte   W03
 .byte   W01
 .byte   W01
 .byte   W19
 .byte   N11
 .byte   W03
 .byte   W01
 .byte   W01
 .byte   W19
 .byte   PEND 
 .byte   PATT
  .word Label_6_0128EB3E
@ 161   ----------------------------------------
 .byte   GOTO
  .word Label_6_0128E652
 .byte   FINE

@**************** Track 8 (Midi-Chn.7) ****************@

song0E_008:
@ 000   ----------------------------------------
 .byte   KEYSH , song0E_key+0
Label_7_0128EB62:
 .byte   VOICE , 45
 .byte   VOL , 41*song0E_mvl/mxv
 .byte   PAN , c_v+0
 .byte   VOL , 51*song0E_mvl/mxv
 .byte   PAN , c_v+0
 .byte   VOL , 51*song0E_mvl/mxv
 .byte   PAN , c_v+0
 .byte   VOL , 51*song0E_mvl/mxv
 .byte   PAN , c_v+18
 .byte   VOL , 51*song0E_mvl/mxv
 .byte   PAN , c_v+0
 .byte   W48
 .byte   W96
@ 001   ----------------------------------------
 .byte   W96
@ 002   ----------------------------------------
 .byte   W96
@ 003   ----------------------------------------
 .byte   W96
@ 004   ----------------------------------------
 .byte   W96
@ 005   ----------------------------------------
 .byte   W96
@ 006   ----------------------------------------
 .byte   W96
@ 007   ----------------------------------------
 .byte   W96
@ 008   ----------------------------------------
 .byte   W96
@ 009   ----------------------------------------
 .byte   W96
@ 010   ----------------------------------------
 .byte   W96
@ 011   ----------------------------------------
 .byte   W96
@ 012   ----------------------------------------
 .byte   W96
@ 013   ----------------------------------------
 .byte   W96
@ 014   ----------------------------------------
 .byte   W96
@ 015   ----------------------------------------
 .byte   W96
@ 016   ----------------------------------------
Label_7_0128EB89:
 .byte   N92 ,En3 ,v036
 .byte   W06
 .byte   W03
 .byte   W03
 .byte   W03
 .byte   W03
 .byte   W03
 .byte   W03
 .byte   W03
 .byte   W03
 .byte   W03
 .byte   W03
 .byte   W03
 .byte   W03
 .byte   W03
 .byte   W03
 .byte   W03
 .byte   W03
 .byte   W03
 .byte   W04
 .byte   W03
 .byte   W03
 .byte   W03
 .byte   W03
 .byte   W03
 .byte   W03
 .byte   W03
 .byte   W03
 .byte   W03
 .byte   W03
 .byte   W03
 .byte   W02
 .byte   PEND 
@ 017   ----------------------------------------
 .byte   En3 ,v064
 .byte   W96
@ 018   ----------------------------------------
Label_7_0128EBAF:
 .byte   TIE ,En3 ,v064
 .byte   W09
 .byte   W04
 .byte   W05
 .byte   W05
 .byte   W04
 .byte   W05
 .byte   W04
 .byte   W05
 .byte   W05
 .byte   W04
 .byte   W05
 .byte   W04
 .byte   W05
 .byte   W05
 .byte   W04
 .byte   W05
 .byte   W04
 .byte   W05
 .byte   W05
 .byte   W04
 .byte   PEND 
@ 019   ----------------------------------------
Label_7_0128EBC7:
 .byte   W05
 .byte   W04
 .byte   W05
 .byte   W05
 .byte   W04
 .byte   W05
 .byte   W04
 .byte   W05
 .byte   W05
 .byte   W04
 .byte   W01
 .byte   PEND 
 .byte   EOT
 .byte   En3
 .byte   W48
 .byte   W01
@ 020   ----------------------------------------
Label_7_0128EBD7:
 .byte   N92 ,Cn3 ,v036
 .byte   W06
 .byte   W03
 .byte   W03
 .byte   W03
 .byte   W03
 .byte   W03
 .byte   W03
 .byte   W03
 .byte   W03
 .byte   W03
 .byte   W03
 .byte   W03
 .byte   W03
 .byte   W03
 .byte   W03
 .byte   W03
 .byte   W03
 .byte   W03
 .byte   W04
 .byte   W03
 .byte   W03
 .byte   W03
 .byte   W03
 .byte   W03
 .byte   W03
 .byte   W03
 .byte   W03
 .byte   W03
 .byte   W03
 .byte   W03
 .byte   W02
 .byte   PEND 
@ 021   ----------------------------------------
 .byte   Dn3 ,v064
 .byte   W96
@ 022   ----------------------------------------
 .byte   TIE
 .byte   W09
 .byte   W04
 .byte   W05
 .byte   W05
 .byte   W04
 .byte   W05
 .byte   W04
 .byte   W05
 .byte   W05
 .byte   W04
 .byte   W05
 .byte   W04
 .byte   W05
 .byte   W05
 .byte   W04
 .byte   W05
 .byte   W04
 .byte   W05
 .byte   W05
 .byte   W04
 .byte   PATT
  .word Label_7_0128EBC7
@ 023   ----------------------------------------
 .byte   EOT
 .byte   Dn3
 .byte   W48
 .byte   W01
 .byte   PATT
  .word Label_7_0128EB89
@ 024   ----------------------------------------
 .byte   N92 ,En3 ,v064
 .byte   W96
 .byte   PATT
  .word Label_7_0128EBAF
 .byte   PATT
  .word Label_7_0128EBC7
@ 025   ----------------------------------------
 .byte   EOT
 .byte   En3
 .byte   W48
 .byte   W01
 .byte   PATT
  .word Label_7_0128EBD7
@ 026   ----------------------------------------
 .byte   N92 ,Dn3 ,v064
 .byte   W96
@ 027   ----------------------------------------
 .byte   TIE
 .byte   W09
 .byte   W10
 .byte   W09
 .byte   W10
 .byte   W10
 .byte   W09
 .byte   W10
 .byte   W09
 .byte   W10
 .byte   W10
@ 028   ----------------------------------------
 .byte   W09
 .byte   W10
 .byte   W09
 .byte   W10
 .byte   W09
 .byte   EOT
 .byte   W24
 .byte   W01
 .byte   N11 ,An3 ,v096
 .byte   N11 ,An5 ,v064
 .byte   W12
 .byte   Bn3 ,v096
 .byte   N11 ,Bn5 ,v064
 .byte   W12
@ 029   ----------------------------------------
Label_7_0128EC5B:
 .byte   N56 ,Cn4 ,v096
 .byte   N56 ,Cn6 ,v064
 .byte   W60
 .byte   N11 ,Bn3 ,v096
 .byte   N11 ,Bn5 ,v064
 .byte   W12
 .byte   An3 ,v096
 .byte   N11 ,An5 ,v064
 .byte   W12
 .byte   Gn3 ,v096
 .byte   N11 ,Gn5 ,v064
 .byte   W12
 .byte   PEND 
@ 030   ----------------------------------------
 .byte   N56 ,An3 ,v096
 .byte   N56 ,An5 ,v064
 .byte   W60
 .byte   N11 ,Gn3 ,v096
 .byte   N11 ,Gn5 ,v064
 .byte   W12
 .byte   Fn3 ,v096
 .byte   N11 ,Fn5 ,v064
 .byte   W12
 .byte   En3 ,v096
 .byte   N11 ,En5 ,v064
 .byte   W12
@ 031   ----------------------------------------
 .byte   N23 ,Dn3 ,v096
 .byte   N23 ,Dn5 ,v064
 .byte   W24
 .byte   N11 ,En3 ,v096
 .byte   N11 ,En5 ,v064
 .byte   W12
 .byte   TIE ,En3 ,v096
 .byte   TIE ,En5 ,v064
 .byte   W60
@ 032   ----------------------------------------
 .byte   W44
 .byte   W03
 .byte   EOT
 .byte   En3 ,v088
 .byte   W24
 .byte   W01
 .byte   N11 ,An3 ,v096
 .byte   N11 ,An5 ,v064
 .byte   W12
 .byte   Bn3 ,v096
 .byte   N11 ,Bn5 ,v064
 .byte   W12
 .byte   PATT
  .word Label_7_0128EC5B
@ 033   ----------------------------------------
 .byte   N56 ,An3 ,v096
 .byte   N56 ,An5 ,v064
 .byte   W60
 .byte   N11 ,Bn3 ,v096
 .byte   N11 ,Bn5 ,v064
 .byte   W12
 .byte   Cn4 ,v096
 .byte   N11 ,Cn6 ,v064
 .byte   W12
 .byte   Dn4 ,v096
 .byte   N11 ,Dn6 ,v064
 .byte   W12
@ 034   ----------------------------------------
 .byte   N23 ,Bn3 ,v096
 .byte   N23 ,Bn5 ,v064
 .byte   W24
 .byte   N11 ,Gn3 ,v096
 .byte   N11 ,Gn5 ,v064
 .byte   W12
 .byte   N80 ,Gn3 ,v096
 .byte   N80 ,Gn5 ,v064
 .byte   W60
@ 035   ----------------------------------------
 .byte   W72
 .byte   N11 ,An3 ,v096
 .byte   N11 ,An4
 .byte   N11 ,An5 ,v064
 .byte   W12
 .byte   Bn3 ,v096
 .byte   N11 ,Bn4
 .byte   N11 ,Bn5 ,v064
 .byte   W12
@ 036   ----------------------------------------
 .byte   N56 ,Cn4 ,v096
 .byte   N56 ,Cn5
 .byte   N56 ,Cn6 ,v064
 .byte   W60
 .byte   N11 ,Bn3 ,v096
 .byte   N11 ,Bn4
 .byte   N11 ,Bn5 ,v064
 .byte   W12
 .byte   An3 ,v096
 .byte   N11 ,An4
 .byte   N11 ,An5 ,v064
 .byte   W12
 .byte   Gn3 ,v096
 .byte   N11 ,Gn4
 .byte   N11 ,Gn5 ,v064
 .byte   W12
@ 037   ----------------------------------------
 .byte   N56 ,An3 ,v096
 .byte   N56 ,An4
 .byte   N56 ,An5 ,v064
 .byte   W60
 .byte   N11 ,Gn3 ,v096
 .byte   N11 ,Gn4
 .byte   N11 ,Gn5 ,v064
 .byte   W12
 .byte   Fn3 ,v096
 .byte   N11 ,Fn4
 .byte   N11 ,Fn5 ,v064
 .byte   W12
 .byte   En3 ,v096
 .byte   N11 ,En4
 .byte   N11 ,En5 ,v064
 .byte   W12
@ 038   ----------------------------------------
 .byte   N23 ,Dn3 ,v096
 .byte   N23 ,Dn4
 .byte   N23 ,Dn5 ,v064
 .byte   W24
 .byte   N11 ,En3 ,v096
 .byte   N11 ,En4
 .byte   N11 ,En5 ,v064
 .byte   W12
 .byte   N23 ,En3 ,v096
 .byte   N23 ,En4
 .byte   N23 ,En5 ,v064
 .byte   W24
 .byte   N11 ,Fn3 ,v096
 .byte   N11 ,Fn4
 .byte   N11 ,Fn5 ,v064
 .byte   W12
 .byte   N68 ,En3 ,v096
 .byte   N68 ,En4
 .byte   N68 ,En5 ,v064
 .byte   W24
@ 039   ----------------------------------------
 .byte   W72
 .byte   N11 ,En3 ,v096
 .byte   N11 ,En4
 .byte   N11 ,En5 ,v064
 .byte   W12
 .byte   Fn3 ,v096
 .byte   N11 ,Fn4
 .byte   N11 ,Fn5 ,v064
 .byte   W12
@ 040   ----------------------------------------
 .byte   N23 ,Gn3 ,v096
 .byte   N23 ,Gn4
 .byte   N23 ,Gn5 ,v064
 .byte   W24
 .byte   N11 ,Fn3 ,v096
 .byte   N11 ,Fn4
 .byte   N11 ,Fn5 ,v064
 .byte   W12
 .byte   N23 ,Fn3 ,v096
 .byte   N23 ,Fn4
 .byte   N23 ,Fn5 ,v064
 .byte   W24
 .byte   N11 ,En3 ,v096
 .byte   N11 ,En4
 .byte   N11 ,En5 ,v064
 .byte   W12
 .byte   N68 ,En3 ,v096
 .byte   N68 ,En4
 .byte   N68 ,En5 ,v064
 .byte   W24
@ 041   ----------------------------------------
 .byte   W48
 .byte   N44 ,Dn3 ,v096
 .byte   N44 ,Dn4
 .byte   N44 ,Dn5 ,v064
 .byte   W48
@ 042   ----------------------------------------
 .byte   N23 ,Dn3 ,v096
 .byte   N23 ,Dn4
 .byte   N23 ,Dn5 ,v064
 .byte   W24
 .byte   N11 ,En3 ,v096
 .byte   N11 ,En4
 .byte   N11 ,En5 ,v064
 .byte   W12
 .byte   N56 ,En3 ,v096
 .byte   N56 ,En4
 .byte   N56 ,En5 ,v064
 .byte   W60
@ 043   ----------------------------------------
 .byte   W96
@ 044   ----------------------------------------
 .byte   N11 ,Gn4 ,v096
 .byte   W12
 .byte   Cn4
 .byte   W12
 .byte   An3
 .byte   W12
 .byte   Cn4
 .byte   W12
 .byte   Gn4
 .byte   W12
 .byte   Cn4
 .byte   W12
 .byte   An3
 .byte   W12
 .byte   Cn4
 .byte   W12
@ 045   ----------------------------------------
 .byte   Fn4
 .byte   W12
 .byte   Cn4
 .byte   W12
 .byte   An3
 .byte   W12
 .byte   Cn4
 .byte   W12
 .byte   Fn4
 .byte   W12
 .byte   Cn4
 .byte   W12
 .byte   An3
 .byte   W12
 .byte   Cn4
 .byte   W12
@ 046   ----------------------------------------
Label_7_0128EDF7:
 .byte   N11 ,Dn4 ,v096
 .byte   W12
 .byte   Gn3
 .byte   W12
 .byte   Bn3
 .byte   W12
 .byte   Gn3
 .byte   W12
 .byte   Dn4
 .byte   W12
 .byte   Gn3
 .byte   W12
 .byte   Bn3
 .byte   W12
 .byte   Gn3
 .byte   W12
 .byte   PEND 
 .byte   PATT
  .word Label_7_0128EDF7
@ 047   ----------------------------------------
Label_7_0128EE0F:
 .byte   N11 ,Gn4 ,v096
 .byte   W12
 .byte   Cn4
 .byte   W12
 .byte   Bn3
 .byte   W12
 .byte   Cn4
 .byte   W12
 .byte   Gn4
 .byte   W12
 .byte   Cn4
 .byte   W12
 .byte   Bn3
 .byte   W12
 .byte   Cn4
 .byte   W12
 .byte   PEND 
@ 048   ----------------------------------------
 .byte   Fn4
 .byte   W12
 .byte   Cn4
 .byte   W12
 .byte   Bn3
 .byte   W12
 .byte   Cn4
 .byte   W12
 .byte   Fn4
 .byte   W12
 .byte   Cn4
 .byte   W12
 .byte   Bn3
 .byte   W12
 .byte   Cn4
 .byte   W12
@ 049   ----------------------------------------
 .byte   Bn4
 .byte   W12
 .byte   Gn4
 .byte   W12
 .byte   Dn4
 .byte   W12
 .byte   Gn4
 .byte   W12
 .byte   Bn4
 .byte   W12
 .byte   Gn4
 .byte   W12
 .byte   Dn4
 .byte   W12
 .byte   Gn4
 .byte   W12
@ 050   ----------------------------------------
 .byte   Cn5
 .byte   W12
 .byte   Gn4
 .byte   W12
 .byte   Dn4
 .byte   W12
 .byte   Gn4
 .byte   W12
 .byte   Cn5
 .byte   W12
 .byte   Gn4
 .byte   W12
 .byte   Dn4
 .byte   W12
 .byte   Gn4
 .byte   W12
@ 051   ----------------------------------------
Label_7_0128EE52:
 .byte   N11 ,Dn5 ,v096
 .byte   W12
 .byte   En5
 .byte   W12
 .byte   Bn4
 .byte   W12
 .byte   An4
 .byte   W12
 .byte   Gn4
 .byte   W12
 .byte   En4
 .byte   W12
 .byte   Cn4
 .byte   W12
 .byte   Gn3
 .byte   W12
 .byte   PEND 
 .byte   PATT
  .word Label_7_0128EE52
 .byte   PATT
  .word Label_7_0128EE52
 .byte   PATT
  .word Label_7_0128EE52
@ 052   ----------------------------------------
 .byte   N11 ,An4 ,v096
 .byte   W12
 .byte   Cn4
 .byte   W12
 .byte   En4
 .byte   W12
 .byte   Cn4
 .byte   W12
 .byte   An4
 .byte   W12
 .byte   Cn4
 .byte   W12
 .byte   En4
 .byte   W12
 .byte   Cn4
 .byte   W12
@ 053   ----------------------------------------
 .byte   Gs4
 .byte   W12
 .byte   Bn3
 .byte   W12
 .byte   Dn4
 .byte   W12
 .byte   Bn3
 .byte   W12
 .byte   Gs4
 .byte   W12
 .byte   Bn3
 .byte   W12
 .byte   Dn4
 .byte   W12
 .byte   Bn3
 .byte   W12
@ 054   ----------------------------------------
 .byte   Bn4
 .byte   W12
 .byte   Dn4
 .byte   W12
 .byte   En4
 .byte   W12
 .byte   Dn4
 .byte   W12
 .byte   An4
 .byte   W12
 .byte   Dn4
 .byte   W12
 .byte   En4
 .byte   W12
 .byte   Dn4
 .byte   W12
 .byte   PATT
  .word Label_7_0128EE0F
@ 055   ----------------------------------------
 .byte   W96
@ 056   ----------------------------------------
 .byte   W96
@ 057   ----------------------------------------
 .byte   W96
@ 058   ----------------------------------------
 .byte   W96
@ 059   ----------------------------------------
 .byte   W96
@ 060   ----------------------------------------
 .byte   W96
@ 061   ----------------------------------------
 .byte   W96
@ 062   ----------------------------------------
 .byte   W96
@ 063   ----------------------------------------
 .byte   W96
@ 064   ----------------------------------------
 .byte   W96
@ 065   ----------------------------------------
 .byte   W96
@ 066   ----------------------------------------
 .byte   W96
@ 067   ----------------------------------------
 .byte   W96
@ 068   ----------------------------------------
 .byte   W96
@ 069   ----------------------------------------
 .byte   W96
@ 070   ----------------------------------------
 .byte   W96
@ 071   ----------------------------------------
 .byte   W96
@ 072   ----------------------------------------
 .byte   W96
@ 073   ----------------------------------------
 .byte   W96
@ 074   ----------------------------------------
 .byte   W96
@ 075   ----------------------------------------
 .byte   W96
@ 076   ----------------------------------------
 .byte   W96
@ 077   ----------------------------------------
 .byte   W96
@ 078   ----------------------------------------
 .byte   W60
 .byte   N11 ,An5 ,v080
 .byte   W12
 .byte   N11
 .byte   W12
 .byte   Bn5
 .byte   W12
@ 079   ----------------------------------------
 .byte   N56 ,Cn6
 .byte   W60
 .byte   N11 ,Bn5
 .byte   W12
 .byte   An5
 .byte   W12
 .byte   Gn5
 .byte   W12
@ 080   ----------------------------------------
 .byte   N56 ,An5
 .byte   W60
 .byte   N11 ,Gn5
 .byte   W12
 .byte   Fn5
 .byte   W12
 .byte   En5
 .byte   W12
@ 081   ----------------------------------------
 .byte   N23 ,Dn5
 .byte   W24
 .byte   N11 ,En5
 .byte   W12
 .byte   N23
 .byte   W24
 .byte   N11 ,Fn5
 .byte   W12
 .byte   N68 ,En5
 .byte   W24
@ 082   ----------------------------------------
 .byte   W72
 .byte   N11
 .byte   W12
 .byte   Fn5
 .byte   W12
@ 083   ----------------------------------------
 .byte   N23 ,Gn5
 .byte   W24
 .byte   N11 ,Fn5
 .byte   W12
 .byte   N23
 .byte   W24
 .byte   N11 ,En5
 .byte   W12
 .byte   N68
 .byte   W24
@ 084   ----------------------------------------
 .byte   W48
 .byte   N44 ,Dn5
 .byte   W48
@ 085   ----------------------------------------
 .byte   N23
 .byte   W24
 .byte   N11 ,En5
 .byte   W12
 .byte   TIE
 .byte   W60
@ 086   ----------------------------------------
 .byte   W92
 .byte   W03
 .byte   EOT
 .byte   W01
@ 087   ----------------------------------------
 .byte   W96
@ 088   ----------------------------------------
 .byte   W96
@ 089   ----------------------------------------
 .byte   W96
@ 090   ----------------------------------------
 .byte   W96
@ 091   ----------------------------------------
 .byte   W96
@ 092   ----------------------------------------
 .byte   W96
@ 093   ----------------------------------------
 .byte   W96
@ 094   ----------------------------------------
 .byte   W96
@ 095   ----------------------------------------
 .byte   W96
@ 096   ----------------------------------------
 .byte   W96
@ 097   ----------------------------------------
 .byte   W96
@ 098   ----------------------------------------
 .byte   W96
@ 099   ----------------------------------------
 .byte   W96
@ 100   ----------------------------------------
 .byte   W96
@ 101   ----------------------------------------
 .byte   W96
@ 102   ----------------------------------------
 .byte   W96
@ 103   ----------------------------------------
 .byte   W96
@ 104   ----------------------------------------
 .byte   W96
@ 105   ----------------------------------------
 .byte   W96
@ 106   ----------------------------------------
 .byte   W96
@ 107   ----------------------------------------
 .byte   W96
@ 108   ----------------------------------------
 .byte   W96
@ 109   ----------------------------------------
 .byte   W96
@ 110   ----------------------------------------
 .byte   W96
@ 111   ----------------------------------------
 .byte   W96
@ 112   ----------------------------------------
 .byte   W96
@ 113   ----------------------------------------
 .byte   W96
@ 114   ----------------------------------------
 .byte   W96
@ 115   ----------------------------------------
 .byte   W96
@ 116   ----------------------------------------
 .byte   W96
@ 117   ----------------------------------------
 .byte   W96
@ 118   ----------------------------------------
 .byte   W96
@ 119   ----------------------------------------
 .byte   W96
@ 120   ----------------------------------------
 .byte   W96
@ 121   ----------------------------------------
 .byte   W96
@ 122   ----------------------------------------
 .byte   W96
@ 123   ----------------------------------------
 .byte   W96
@ 124   ----------------------------------------
 .byte   W96
@ 125   ----------------------------------------
 .byte   W96
@ 126   ----------------------------------------
 .byte   W96
@ 127   ----------------------------------------
Label_7_0128EF36:
 .byte   N11 ,An2 ,v080
 .byte   W24
 .byte   N11
 .byte   W24
 .byte   N11
 .byte   W24
 .byte   N11
 .byte   W24
 .byte   PEND 
 .byte   PATT
  .word Label_7_0128EF36
@ 128   ----------------------------------------
 .byte   N11 ,Gn2 ,v080
 .byte   W24
 .byte   N11
 .byte   W24
 .byte   N11
 .byte   W24
 .byte   N11
 .byte   W24
@ 129   ----------------------------------------
 .byte   Bn2
 .byte   W24
 .byte   An2
 .byte   W24
 .byte   En2
 .byte   W24
 .byte   An2
 .byte   W24
 .byte   PATT
  .word Label_7_0128EF36
 .byte   PATT
  .word Label_7_0128EF36
 .byte   PATT
  .word Label_7_0128EF36
@ 130   ----------------------------------------
 .byte   N11 ,Gs2 ,v080
 .byte   W24
 .byte   N11
 .byte   W24
 .byte   N11
 .byte   W24
 .byte   N11
 .byte   W24
@ 131   ----------------------------------------
 .byte   As2 ,v064
 .byte   W24
 .byte   N11
 .byte   W24
 .byte   N11
 .byte   W24
 .byte   N11
 .byte   W24
@ 132   ----------------------------------------
 .byte   W96
@ 133   ----------------------------------------
 .byte   W96
@ 134   ----------------------------------------
 .byte   W96
@ 135   ----------------------------------------
 .byte   W96
@ 136   ----------------------------------------
 .byte   W96
@ 137   ----------------------------------------
 .byte   W96
@ 138   ----------------------------------------
 .byte   W96
@ 139   ----------------------------------------
 .byte   W96
@ 140   ----------------------------------------
 .byte   W96
@ 141   ----------------------------------------
 .byte   W96
@ 142   ----------------------------------------
 .byte   W96
@ 143   ----------------------------------------
 .byte   W96
@ 144   ----------------------------------------
 .byte   W96
@ 145   ----------------------------------------
 .byte   W96
@ 146   ----------------------------------------
 .byte   W96
@ 147   ----------------------------------------
 .byte   W96
@ 148   ----------------------------------------
 .byte   W96
@ 149   ----------------------------------------
 .byte   W48
 .byte   N44 ,Fn2 ,v080
 .byte   W48
@ 150   ----------------------------------------
 .byte   N92 ,Gs2
 .byte   W96
@ 151   ----------------------------------------
 .byte   As2
 .byte   W96
@ 152   ----------------------------------------
 .byte   Fn2
 .byte   W96
@ 153   ----------------------------------------
 .byte   Ds2
 .byte   W96
@ 154   ----------------------------------------
 .byte   N44 ,Fn2
 .byte   W48
 .byte   An2
 .byte   W48
@ 155   ----------------------------------------
 .byte   N92 ,As2
 .byte   W96
@ 156   ----------------------------------------
 .byte   N32 ,Gs2
 .byte   W36
 .byte   N32
 .byte   W36
 .byte   N23 ,Gn2
 .byte   W24
@ 157   ----------------------------------------
 .byte   N32 ,Fs2
 .byte   W36
 .byte   N23
 .byte   W24
 .byte   N32
 .byte   W36
@ 158   ----------------------------------------
 .byte   N92 ,Gs2
 .byte   W96
@ 159   ----------------------------------------
 .byte   Fn2
 .byte   W96
@ 160   ----------------------------------------
 .byte   N44 ,As2
 .byte   W48
 .byte   N23 ,Cn3
 .byte   W24
 .byte   N11 ,As2
 .byte   W12
 .byte   Gs2
 .byte   W12
@ 161   ----------------------------------------
 .byte   N92 ,Ds2
 .byte   W96
@ 162   ----------------------------------------
 .byte   Fn2
 .byte   W96
@ 163   ----------------------------------------
 .byte   TIE ,As2
 .byte   W96
@ 164   ----------------------------------------
 .byte   W92
 .byte   W03
 .byte   EOT
 .byte   W01
@ 165   ----------------------------------------
 .byte   W96
@ 166   ----------------------------------------
 .byte   W96
@ 167   ----------------------------------------
 .byte   W96
@ 168   ----------------------------------------
 .byte   W96
@ 169   ----------------------------------------
 .byte   W96
@ 170   ----------------------------------------
 .byte   W96
@ 171   ----------------------------------------
 .byte   W96
@ 172   ----------------------------------------
 .byte   W96
@ 173   ----------------------------------------
 .byte   W96
@ 174   ----------------------------------------
 .byte   W96
@ 175   ----------------------------------------
 .byte   GOTO
  .word Label_7_0128EB62
 .byte   FINE

@**************** Track 9 (Midi-Chn.8) ****************@

song0E_009:
@ 000   ----------------------------------------
 .byte   KEYSH , song0E_key+0
Label_8_0128EFDE:
 .byte   VOICE , 116
 .byte   VOL , 51*song0E_mvl/mxv
 .byte   PAN , c_v+0
 .byte   VOL , 51*song0E_mvl/mxv
 .byte   PAN , c_v+0
 .byte   VOL , 51*song0E_mvl/mxv
 .byte   PAN , c_v+0
 .byte   VOL , 51*song0E_mvl/mxv
 .byte   PAN , c_v+0
 .byte   VOL , 51*song0E_mvl/mxv
 .byte   PAN , c_v+0
 .byte   W48
Label_8_0128EFF5:
 .byte   W24
 .byte   N23 ,Dn3 ,v080
 .byte   W24
@ 001   ----------------------------------------
 .byte   En3
 .byte   W24
 .byte   Bn2
 .byte   W24
 .byte   PEND 
 .byte   N92 ,Dn3
 .byte   W96
@ 002   ----------------------------------------
 .byte   W24
 .byte   N23 ,Cn3
 .byte   W24
 .byte   Dn3
 .byte   W24
 .byte   Bn2
 .byte   W24
@ 003   ----------------------------------------
 .byte   N92 ,Gn2
 .byte   W96
 .byte   PATT
  .word Label_8_0128EFF5
@ 004   ----------------------------------------
 .byte   N44 ,Cn3 ,v080
 .byte   W48
 .byte   Bn2
 .byte   W48
@ 005   ----------------------------------------
 .byte   Dn3
 .byte   W48
 .byte   Cn3
 .byte   W48
@ 006   ----------------------------------------
 .byte   N44
 .byte   W48
 .byte   N44
 .byte   W48
@ 007   ----------------------------------------
 .byte   W96
@ 008   ----------------------------------------
 .byte   W96
@ 009   ----------------------------------------
 .byte   W96
@ 010   ----------------------------------------
 .byte   W96
@ 011   ----------------------------------------
 .byte   W96
@ 012   ----------------------------------------
 .byte   W96
@ 013   ----------------------------------------
 .byte   W96
@ 014   ----------------------------------------
 .byte   W96
@ 015   ----------------------------------------
 .byte   W96
@ 016   ----------------------------------------
 .byte   W96
@ 017   ----------------------------------------
 .byte   W96
@ 018   ----------------------------------------
 .byte   W96
@ 019   ----------------------------------------
 .byte   W96
@ 020   ----------------------------------------
 .byte   W96
@ 021   ----------------------------------------
 .byte   W96
@ 022   ----------------------------------------
 .byte   W96
@ 023   ----------------------------------------
 .byte   W96
@ 024   ----------------------------------------
 .byte   W96
@ 025   ----------------------------------------
 .byte   W96
@ 026   ----------------------------------------
 .byte   W96
@ 027   ----------------------------------------
 .byte   W96
@ 028   ----------------------------------------
 .byte   W96
@ 029   ----------------------------------------
 .byte   W96
@ 030   ----------------------------------------
 .byte   W96
@ 031   ----------------------------------------
 .byte   W96
@ 032   ----------------------------------------
 .byte   W96
@ 033   ----------------------------------------
 .byte   W96
@ 034   ----------------------------------------
 .byte   W96
@ 035   ----------------------------------------
 .byte   W96
@ 036   ----------------------------------------
 .byte   W96
@ 037   ----------------------------------------
 .byte   W96
@ 038   ----------------------------------------
 .byte   W96
@ 039   ----------------------------------------
 .byte   W96
@ 040   ----------------------------------------
 .byte   W96
@ 041   ----------------------------------------
 .byte   W96
@ 042   ----------------------------------------
 .byte   W96
@ 043   ----------------------------------------
 .byte   W96
@ 044   ----------------------------------------
 .byte   W96
@ 045   ----------------------------------------
 .byte   W96
@ 046   ----------------------------------------
 .byte   W96
@ 047   ----------------------------------------
Label_8_0128F048:
 .byte   N11 ,Fn1 ,v064
 .byte   W12
 .byte   N11
 .byte   W24
 .byte   Cn1
 .byte   W12
 .byte   N11
 .byte   W12
 .byte   Fn1
 .byte   W36
 .byte   PEND 
 .byte   PATT
  .word Label_8_0128F048
@ 048   ----------------------------------------
 .byte   N11 ,Gn1 ,v064
 .byte   W12
 .byte   N11
 .byte   W24
 .byte   N11
 .byte   W12
 .byte   N11
 .byte   W12
 .byte   N11
 .byte   W36
@ 049   ----------------------------------------
Label_8_0128F066:
 .byte   N11 ,Gn1 ,v064
 .byte   W12
 .byte   N11
 .byte   W24
 .byte   Dn1
 .byte   W12
 .byte   N11
 .byte   W12
 .byte   Gn1
 .byte   W36
 .byte   PEND 
@ 050   ----------------------------------------
Label_8_0128F073:
 .byte   N11 ,An1 ,v064
 .byte   W12
 .byte   N11
 .byte   W24
 .byte   N11
 .byte   W12
 .byte   N11
 .byte   W12
 .byte   N11
 .byte   W36
 .byte   PEND 
 .byte   PATT
  .word Label_8_0128F073
 .byte   PATT
  .word Label_8_0128F073
 .byte   PATT
  .word Label_8_0128F073
 .byte   PATT
  .word Label_8_0128F048
 .byte   PATT
  .word Label_8_0128F048
 .byte   PATT
  .word Label_8_0128F066
 .byte   PATT
  .word Label_8_0128F066
@ 051   ----------------------------------------
 .byte   N11 ,Dn1 ,v064
 .byte   W12
 .byte   N11
 .byte   W24
 .byte   N11
 .byte   W24
 .byte   N11
 .byte   W36
@ 052   ----------------------------------------
 .byte   En1
 .byte   W12
 .byte   N11
 .byte   W24
 .byte   N11
 .byte   W24
 .byte   N11
 .byte   W36
@ 053   ----------------------------------------
 .byte   An1
 .byte   W12
 .byte   N11
 .byte   W24
 .byte   N11
 .byte   W24
 .byte   N11
 .byte   W36
@ 054   ----------------------------------------
 .byte   Gn1
 .byte   W12
 .byte   N11
 .byte   W24
 .byte   N11
 .byte   W24
 .byte   N11
 .byte   W36
@ 055   ----------------------------------------
Label_8_0128F0C5:
 .byte   N11 ,Fn1 ,v080
 .byte   W24
 .byte   N11
 .byte   W24
 .byte   N11
 .byte   W24
 .byte   N11
 .byte   W24
 .byte   PEND 
@ 056   ----------------------------------------
Label_8_0128F0D0:
 .byte   N11 ,Fn1 ,v080
 .byte   W24
 .byte   N11
 .byte   W24
 .byte   N11
 .byte   W24
 .byte   Cn1
 .byte   W12
 .byte   En1
 .byte   W12
 .byte   PEND 
 .byte   PATT
  .word Label_8_0128F0C5
@ 057   ----------------------------------------
Label_8_0128F0E2:
 .byte   N11 ,Fn1 ,v080
 .byte   W24
 .byte   N11
 .byte   W24
 .byte   N11
 .byte   W24
 .byte   Gn1
 .byte   W12
 .byte   Fn1
 .byte   W12
 .byte   PEND 
@ 058   ----------------------------------------
Label_8_0128F0EF:
 .byte   N11 ,En1 ,v080
 .byte   W24
 .byte   N11
 .byte   W24
 .byte   N11
 .byte   W24
 .byte   N11
 .byte   W24
 .byte   PEND 
 .byte   PATT
  .word Label_8_0128F0EF
@ 059   ----------------------------------------
 .byte   N11 ,An1 ,v080
 .byte   W24
 .byte   N11
 .byte   W24
 .byte   N11
 .byte   W24
 .byte   N11
 .byte   W24
@ 060   ----------------------------------------
 .byte   N11
 .byte   W12
 .byte   Cn2
 .byte   W12
 .byte   Bn1
 .byte   W12
 .byte   Gn1
 .byte   W12
 .byte   Dn1
 .byte   W12
 .byte   En1
 .byte   W12
 .byte   N05
 .byte   W06
 .byte   Dn1
 .byte   W06
 .byte   Cn1
 .byte   W06
 .byte   Bn0
 .byte   W06
 .byte   PATT
  .word Label_8_0128F0C5
 .byte   PATT
  .word Label_8_0128F0D0
 .byte   PATT
  .word Label_8_0128F0C5
 .byte   PATT
  .word Label_8_0128F0E2
 .byte   PATT
  .word Label_8_0128F0EF
 .byte   PATT
  .word Label_8_0128F0EF
 .byte   PATT
  .word Label_8_0128F0EF
@ 061   ----------------------------------------
 .byte   W96
@ 062   ----------------------------------------
 .byte   W96
@ 063   ----------------------------------------
 .byte   W96
@ 064   ----------------------------------------
 .byte   W96
@ 065   ----------------------------------------
 .byte   W96
@ 066   ----------------------------------------
 .byte   W96
@ 067   ----------------------------------------
 .byte   W96
@ 068   ----------------------------------------
 .byte   W96
@ 069   ----------------------------------------
 .byte   W96
@ 070   ----------------------------------------
 .byte   W96
@ 071   ----------------------------------------
 .byte   W96
@ 072   ----------------------------------------
 .byte   W96
@ 073   ----------------------------------------
 .byte   W96
@ 074   ----------------------------------------
 .byte   W96
@ 075   ----------------------------------------
 .byte   W96
@ 076   ----------------------------------------
 .byte   W96
@ 077   ----------------------------------------
 .byte   W96
@ 078   ----------------------------------------
 .byte   W96
@ 079   ----------------------------------------
 .byte   W96
@ 080   ----------------------------------------
 .byte   W96
@ 081   ----------------------------------------
 .byte   W96
@ 082   ----------------------------------------
 .byte   W96
@ 083   ----------------------------------------
 .byte   W96
@ 084   ----------------------------------------
 .byte   W96
@ 085   ----------------------------------------
 .byte   W96
@ 086   ----------------------------------------
 .byte   W96
@ 087   ----------------------------------------
 .byte   W96
@ 088   ----------------------------------------
 .byte   W96
@ 089   ----------------------------------------
 .byte   W96
@ 090   ----------------------------------------
 .byte   W96
@ 091   ----------------------------------------
 .byte   W96
@ 092   ----------------------------------------
 .byte   W96
@ 093   ----------------------------------------
 .byte   W96
@ 094   ----------------------------------------
 .byte   W96
@ 095   ----------------------------------------
 .byte   W96
@ 096   ----------------------------------------
 .byte   W96
@ 097   ----------------------------------------
 .byte   W96
@ 098   ----------------------------------------
 .byte   W96
@ 099   ----------------------------------------
 .byte   W96
@ 100   ----------------------------------------
 .byte   W96
@ 101   ----------------------------------------
 .byte   W96
@ 102   ----------------------------------------
 .byte   W96
@ 103   ----------------------------------------
 .byte   W96
@ 104   ----------------------------------------
 .byte   W96
@ 105   ----------------------------------------
 .byte   W96
@ 106   ----------------------------------------
 .byte   W96
@ 107   ----------------------------------------
 .byte   W96
@ 108   ----------------------------------------
 .byte   W96
@ 109   ----------------------------------------
 .byte   W96
@ 110   ----------------------------------------
 .byte   W96
@ 111   ----------------------------------------
 .byte   W96
@ 112   ----------------------------------------
 .byte   W96
@ 113   ----------------------------------------
 .byte   W96
@ 114   ----------------------------------------
 .byte   W96
@ 115   ----------------------------------------
 .byte   W96
@ 116   ----------------------------------------
 .byte   W96
@ 117   ----------------------------------------
 .byte   W96
@ 118   ----------------------------------------
 .byte   W96
@ 119   ----------------------------------------
 .byte   W96
@ 120   ----------------------------------------
 .byte   W96
@ 121   ----------------------------------------
 .byte   W96
@ 122   ----------------------------------------
 .byte   W96
@ 123   ----------------------------------------
 .byte   W96
@ 124   ----------------------------------------
 .byte   W96
@ 125   ----------------------------------------
 .byte   W96
@ 126   ----------------------------------------
 .byte   W96
@ 127   ----------------------------------------
 .byte   W96
@ 128   ----------------------------------------
 .byte   W96
@ 129   ----------------------------------------
 .byte   W96
@ 130   ----------------------------------------
 .byte   W96
@ 131   ----------------------------------------
 .byte   W96
@ 132   ----------------------------------------
 .byte   W96
@ 133   ----------------------------------------
 .byte   W96
@ 134   ----------------------------------------
 .byte   W96
@ 135   ----------------------------------------
 .byte   W96
@ 136   ----------------------------------------
 .byte   W96
@ 137   ----------------------------------------
 .byte   W96
@ 138   ----------------------------------------
 .byte   W96
@ 139   ----------------------------------------
 .byte   W96
@ 140   ----------------------------------------
 .byte   W96
@ 141   ----------------------------------------
 .byte   W96
@ 142   ----------------------------------------
 .byte   W96
@ 143   ----------------------------------------
 .byte   W96
@ 144   ----------------------------------------
 .byte   W96
@ 145   ----------------------------------------
 .byte   W96
@ 146   ----------------------------------------
 .byte   W96
@ 147   ----------------------------------------
 .byte   W96
@ 148   ----------------------------------------
 .byte   W96
@ 149   ----------------------------------------
 .byte   W96
@ 150   ----------------------------------------
 .byte   W96
@ 151   ----------------------------------------
 .byte   W96
@ 152   ----------------------------------------
 .byte   W96
@ 153   ----------------------------------------
 .byte   W96
@ 154   ----------------------------------------
 .byte   W96
@ 155   ----------------------------------------
 .byte   W96
@ 156   ----------------------------------------
 .byte   W96
@ 157   ----------------------------------------
 .byte   W96
@ 158   ----------------------------------------
 .byte   W96
@ 159   ----------------------------------------
 .byte   W96
@ 160   ----------------------------------------
 .byte   W96
@ 161   ----------------------------------------
 .byte   W96
@ 162   ----------------------------------------
 .byte   W96
@ 163   ----------------------------------------
 .byte   W96
@ 164   ----------------------------------------
 .byte   W96
@ 165   ----------------------------------------
 .byte   W96
@ 166   ----------------------------------------
 .byte   W96
@ 167   ----------------------------------------
 .byte   W96
@ 168   ----------------------------------------
 .byte   W96
@ 169   ----------------------------------------
 .byte   W96
@ 170   ----------------------------------------
 .byte   GOTO
  .word Label_8_0128EFDE
 .byte   FINE

@**************** Track 10 (Midi-Chn.9) ****************@

song0E_010:
@ 000   ----------------------------------------
 .byte   KEYSH , song0E_key+0
Label_9_0128F1B6:
 .byte   VOICE , 24
 .byte   VOL , 51*song0E_mvl/mxv
 .byte   PAN , c_v+0
 .byte   VOL , 35*song0E_mvl/mxv
 .byte   PAN , c_v-4
 .byte   VOL , 51*song0E_mvl/mxv
 .byte   PAN , c_v+0
 .byte   VOL , 51*song0E_mvl/mxv
 .byte   PAN , c_v+0
 .byte   VOL , 51*song0E_mvl/mxv
 .byte   PAN , c_v+0
 .byte   VOL , 51*song0E_mvl/mxv
 .byte   PAN , c_v+0
 .byte   VOL , 51*song0E_mvl/mxv
 .byte   PAN , c_v+0
 .byte   VOL , 51*song0E_mvl/mxv
 .byte   PAN , c_v+0
 .byte   VOL , 51*song0E_mvl/mxv
 .byte   PAN , c_v+0
 .byte   VOL , 15*song0E_mvl/mxv
 .byte   PAN , c_v+3
 .byte   VOL , 15*song0E_mvl/mxv
 .byte   PAN , c_v-64
 .byte   VOL , 15*song0E_mvl/mxv
 .byte   PAN , c_v+63
 .byte   VOL , 15*song0E_mvl/mxv
 .byte   PAN , c_v+3
 .byte   W24
 .byte   N02 ,An2 ,v064
 .byte   W03
 .byte   N02
 .byte   W03
 .byte   N02
 .byte   W03
 .byte   N02
 .byte   W03
 .byte   N02
 .byte   W03
 .byte   N02
 .byte   W03
 .byte   N02
 .byte   W03
 .byte   N02
 .byte   W03
 .byte   N23 ,Bn0 ,v080
 .byte   W90
@ 001   ----------------------------------------
 .byte   N02 ,Dn1
 .byte   W03
 .byte   N02
 .byte   W03
Label_9_0128F208:
 .byte   N23 ,Bn0 ,v080
 .byte   N23 ,Dn1
 .byte   W24
 .byte   Bn0
 .byte   N23 ,Dn1
 .byte   W72
 .byte   PEND 
@ 002   ----------------------------------------
 .byte   Bn0
 .byte   N23 ,Dn1
 .byte   N92 ,An2 ,v064
 .byte   W90
 .byte   N02 ,Dn1 ,v080
 .byte   W03
 .byte   N02
 .byte   W03
@ 003   ----------------------------------------
 .byte   N23 ,Bn0
 .byte   N23 ,Dn1
 .byte   W24
 .byte   Bn0
 .byte   N23 ,Dn1
 .byte   W48
 .byte   N02 ,An2 ,v064
 .byte   W03
 .byte   N02
 .byte   W03
 .byte   N02
 .byte   W03
 .byte   N02
 .byte   W03
 .byte   N02
 .byte   W03
 .byte   N02
 .byte   W03
 .byte   N02
 .byte   W03
 .byte   N02
 .byte   W03
@ 004   ----------------------------------------
 .byte   N23 ,Bn0 ,v080
 .byte   N23 ,Dn1
 .byte   W90
 .byte   N02
 .byte   W03
 .byte   N02
 .byte   W03
 .byte   PATT
  .word Label_9_0128F208
@ 005   ----------------------------------------
 .byte   N44 ,Bn0 ,v080
 .byte   N44 ,Dn1
 .byte   N92 ,An2 ,v064
 .byte   W48
 .byte   N44 ,Bn0 ,v080
 .byte   N23 ,Dn1
 .byte   W42
 .byte   N02
 .byte   W03
 .byte   N02
 .byte   W03
@ 006   ----------------------------------------
 .byte   N44 ,Bn0
 .byte   N44 ,Dn1
 .byte   N92 ,An2 ,v064
 .byte   W48
 .byte   N44 ,Bn0 ,v080
 .byte   N01 ,Dn1
 .byte   W01
 .byte   N01
 .byte   W01
 .byte   N01
 .byte   W02
 .byte   N01
 .byte   W01
 .byte   N01
 .byte   W02
 .byte   N01
 .byte   W01
 .byte   N01
 .byte   W02
 .byte   N01
 .byte   W01
 .byte   N01
 .byte   W02
 .byte   N01
 .byte   W01
 .byte   N01
 .byte   W02
 .byte   N01
 .byte   W01
 .byte   N01
 .byte   W02
 .byte   N01
 .byte   W01
 .byte   N01
 .byte   W02
 .byte   N01
 .byte   W01
 .byte   N01
 .byte   W02
 .byte   N01
 .byte   W01
 .byte   N01
 .byte   W02
 .byte   N01
 .byte   W01
 .byte   N01
 .byte   W02
 .byte   N01
 .byte   W01
 .byte   N01
 .byte   W02
 .byte   N01
 .byte   W01
 .byte   N01
 .byte   W02
 .byte   N01
 .byte   W01
 .byte   N01
 .byte   W02
 .byte   N01
 .byte   W01
 .byte   N01
 .byte   W02
 .byte   N01
 .byte   W01
 .byte   N01
 .byte   W02
 .byte   N01
 .byte   W02
@ 007   ----------------------------------------
 .byte   N11 ,Fs1 ,v036
 .byte   N92 ,An2 ,v064
 .byte   W12
 .byte   N11 ,Fs1 ,v036
 .byte   W12
 .byte   N11
 .byte   W12
 .byte   N11
 .byte   W24
 .byte   N11
 .byte   W12
 .byte   N11
 .byte   W12
 .byte   N05
 .byte   W06
 .byte   N05
 .byte   W06
@ 008   ----------------------------------------
Label_9_0128F2C0:
 .byte   N11 ,Fs1 ,v036
 .byte   W12
 .byte   N11
 .byte   W12
 .byte   N11
 .byte   W12
 .byte   N11
 .byte   W24
 .byte   N11
 .byte   W12
 .byte   N11
 .byte   W12
 .byte   N05
 .byte   W06
 .byte   N05
 .byte   W06
 .byte   PEND 
 .byte   PATT
  .word Label_9_0128F2C0
 .byte   PATT
  .word Label_9_0128F2C0
 .byte   PATT
  .word Label_9_0128F2C0
 .byte   PATT
  .word Label_9_0128F2C0
 .byte   PATT
  .word Label_9_0128F2C0
@ 009   ----------------------------------------
 .byte   N11 ,Fs1 ,v036
 .byte   N02 ,An2
 .byte   W02
 .byte   N02
 .byte   W03
 .byte   N02
 .byte   W01
 .byte   W02
 .byte   N02
 .byte   W01
 .byte   W02
 .byte   N02
 .byte   W01
 .byte   N11 ,Fs1
 .byte   W02
 .byte   N02 ,An2
 .byte   W01
 .byte   W02
 .byte   N02
 .byte   W01
 .byte   W02
 .byte   N02
 .byte   W01
 .byte   W02
 .byte   N02
 .byte   W01
 .byte   N11 ,Fs1
 .byte   W02
 .byte   N02 ,An2
 .byte   W01
 .byte   W02
 .byte   N02
 .byte   W01
 .byte   W02
 .byte   N02
 .byte   W01
 .byte   W02
 .byte   N02
 .byte   W01
 .byte   N11 ,Fs1
 .byte   W02
 .byte   N02 ,An2
 .byte   W01
 .byte   W02
 .byte   N02
 .byte   W01
 .byte   W02
 .byte   N02
 .byte   W01
 .byte   W02
 .byte   N02
 .byte   W01
 .byte   W02
 .byte   N02
 .byte   W01
 .byte   W02
 .byte   N02
 .byte   W01
 .byte   W02
 .byte   N02
 .byte   W01
 .byte   W02
 .byte   N02
 .byte   W01
 .byte   N11 ,Fs1
 .byte   W01
 .byte   W01
 .byte   N02 ,An2
 .byte   W02
 .byte   W01
 .byte   N02
 .byte   W02
 .byte   W01
 .byte   N02
 .byte   W02
 .byte   W01
 .byte   N02
 .byte   W01
 .byte   N11 ,Fs1
 .byte   W01
 .byte   W01
 .byte   N02 ,An2
 .byte   W02
 .byte   W01
 .byte   N02
 .byte   W02
 .byte   W01
 .byte   N02
 .byte   W02
 .byte   W01
 .byte   N02
 .byte   W01
 .byte   N05 ,Fs1
 .byte   W01
 .byte   W01
 .byte   N02 ,An2
 .byte   W02
 .byte   W01
 .byte   N02
 .byte   W01
 .byte   N05 ,Fs1
 .byte   W01
 .byte   W01
 .byte   N02 ,An2
 .byte   W02
 .byte   W02
@ 010   ----------------------------------------
Label_9_0128F367:
 .byte   N11 ,Dn1 ,v052
 .byte   N11 ,Fs1
 .byte   W12
 .byte   Dn1 ,v036
 .byte   N11 ,Fs1 ,v052
 .byte   W12
 .byte   Dn1 ,v036
 .byte   N11 ,Fs1 ,v052
 .byte   W12
 .byte   Dn1
 .byte   N11 ,Fs1
 .byte   W24
 .byte   N11
 .byte   W12
 .byte   N11
 .byte   W12
 .byte   N05 ,Dn1
 .byte   N05 ,Fs1
 .byte   W06
 .byte   Dn1
 .byte   N05 ,Fs1
 .byte   W06
 .byte   PEND 
@ 011   ----------------------------------------
Label_9_0128F38B:
 .byte   N11 ,Dn1 ,v052
 .byte   N11 ,Fs1
 .byte   W12
 .byte   N11
 .byte   W12
 .byte   N11
 .byte   W12
 .byte   Dn1
 .byte   N11 ,Fs1
 .byte   W24
 .byte   Dn1
 .byte   N11 ,Fs1
 .byte   W12
 .byte   N11
 .byte   W12
 .byte   N05
 .byte   W06
 .byte   N05
 .byte   W06
 .byte   PEND 
 .byte   PATT
  .word Label_9_0128F367
 .byte   PATT
  .word Label_9_0128F38B
 .byte   PATT
  .word Label_9_0128F367
 .byte   PATT
  .word Label_9_0128F38B
 .byte   PATT
  .word Label_9_0128F367
@ 012   ----------------------------------------
Label_9_0128F3BD:
 .byte   N11 ,Dn1 ,v052
 .byte   N11 ,Fs1
 .byte   W12
 .byte   N11
 .byte   W12
 .byte   N11
 .byte   W12
 .byte   Dn1
 .byte   N11 ,Fs1
 .byte   W24
 .byte   Dn1
 .byte   N11 ,Fs1
 .byte   W12
 .byte   N05 ,Dn1 ,v036
 .byte   N11 ,Fs1 ,v052
 .byte   W06
 .byte   N05 ,Dn1 ,v036
 .byte   W06
 .byte   N05
 .byte   N05 ,Fs1 ,v052
 .byte   W06
 .byte   Dn1 ,v036
 .byte   N05 ,Fs1 ,v052
 .byte   W06
 .byte   PEND 
 .byte   PATT
  .word Label_9_0128F367
 .byte   PATT
  .word Label_9_0128F3BD
@ 013   ----------------------------------------
Label_9_0128F3F0:
 .byte   N11 ,Dn1 ,v052
 .byte   N11 ,Fs1
 .byte   W12
 .byte   Dn1 ,v036
 .byte   N11 ,Fs1 ,v052
 .byte   W12
 .byte   Dn1 ,v036
 .byte   N11 ,Fs1 ,v052
 .byte   W12
 .byte   Dn1
 .byte   N11 ,Fs1
 .byte   W12
 .byte   Dn1 ,v036
 .byte   W12
 .byte   N11
 .byte   N11 ,Fs1 ,v052
 .byte   W12
 .byte   Dn1 ,v036
 .byte   N11 ,Fs1 ,v052
 .byte   W12
 .byte   N05 ,Dn1
 .byte   N05 ,Fs1
 .byte   W06
 .byte   Dn1
 .byte   N05 ,Fs1
 .byte   W06
 .byte   PEND 
 .byte   PATT
  .word Label_9_0128F3BD
 .byte   PATT
  .word Label_9_0128F3F0
 .byte   PATT
  .word Label_9_0128F3BD
 .byte   PATT
  .word Label_9_0128F3F0
@ 014   ----------------------------------------
 .byte   N11 ,Dn1 ,v052
 .byte   N11 ,Fs1
 .byte   N02 ,An2 ,v036
 .byte   W02
 .byte   N02
 .byte   W02
 .byte   W01
 .byte   N02
 .byte   W01
 .byte   W02
 .byte   N02
 .byte   W02
 .byte   W01
 .byte   N02
 .byte   W01
 .byte   N11 ,Fs1 ,v052
 .byte   W02
 .byte   N02 ,An2 ,v036
 .byte   W02
 .byte   W01
 .byte   N02
 .byte   W01
 .byte   W02
 .byte   N02
 .byte   W02
 .byte   W01
 .byte   N02
 .byte   W01
 .byte   N11 ,Fs1 ,v052
 .byte   W02
 .byte   N02 ,An2 ,v036
 .byte   W02
 .byte   W01
 .byte   N02
 .byte   W01
 .byte   W02
 .byte   N02
 .byte   W02
 .byte   W01
 .byte   N02
 .byte   W01
 .byte   N11 ,Dn1 ,v052
 .byte   N11 ,Fs1
 .byte   W02
 .byte   N02 ,An2 ,v036
 .byte   W02
 .byte   W01
 .byte   N02
 .byte   W01
 .byte   W02
 .byte   N02
 .byte   W02
 .byte   W01
 .byte   N02
 .byte   W01
 .byte   W02
 .byte   N02
 .byte   W02
 .byte   W01
 .byte   N02
 .byte   W01
 .byte   W02
 .byte   N02
 .byte   W02
 .byte   W01
 .byte   N02
 .byte   W01
 .byte   N11 ,Dn1 ,v052
 .byte   N11 ,Fs1
 .byte   W02
 .byte   N02 ,An2 ,v036
 .byte   W02
 .byte   W01
 .byte   N02
 .byte   W01
 .byte   W02
 .byte   N02
 .byte   W02
 .byte   W01
 .byte   N02
 .byte   W01
 .byte   N05 ,Dn1
 .byte   N11 ,Fs1 ,v052
 .byte   W02
 .byte   N02 ,An2 ,v036
 .byte   W02
 .byte   W01
 .byte   N02
 .byte   W01
 .byte   N05 ,Dn1
 .byte   W02
 .byte   N02 ,An2
 .byte   W02
 .byte   W01
 .byte   N02
 .byte   W01
 .byte   N05 ,Dn1
 .byte   N05 ,Fs1 ,v052
 .byte   W02
 .byte   N02 ,An2 ,v036
 .byte   W02
 .byte   W01
 .byte   N02
 .byte   W01
 .byte   N05 ,Dn1
 .byte   N05 ,Fs1 ,v052
 .byte   W02
 .byte   N02 ,An2 ,v036
 .byte   W02
 .byte   W02
@ 015   ----------------------------------------
Label_9_0128F4C8:
 .byte   N92 ,Bn0 ,v064
 .byte   N11 ,Dn1 ,v052
 .byte   N11 ,Fs1
 .byte   W12
 .byte   Dn1 ,v036
 .byte   N11 ,Fs1 ,v052
 .byte   W12
 .byte   Dn1 ,v036
 .byte   N11 ,Fs1 ,v052
 .byte   W12
 .byte   Dn1
 .byte   N11 ,Fs1
 .byte   W24
 .byte   N11
 .byte   W12
 .byte   N11
 .byte   W12
 .byte   N05 ,Dn1
 .byte   N05 ,Fs1
 .byte   W06
 .byte   Dn1
 .byte   N05 ,Fs1
 .byte   W06
 .byte   PEND 
@ 016   ----------------------------------------
Label_9_0128F4EF:
 .byte   N92 ,Bn0 ,v064
 .byte   N11 ,Dn1 ,v052
 .byte   N11 ,Fs1
 .byte   W12
 .byte   N11
 .byte   W12
 .byte   N11
 .byte   W12
 .byte   Dn1
 .byte   N11 ,Fs1
 .byte   W24
 .byte   Dn1
 .byte   N11 ,Fs1
 .byte   W12
 .byte   N11
 .byte   W12
 .byte   N05
 .byte   W06
 .byte   N05
 .byte   W06
 .byte   PEND 
 .byte   PATT
  .word Label_9_0128F4C8
 .byte   PATT
  .word Label_9_0128F4EF
 .byte   PATT
  .word Label_9_0128F4C8
 .byte   PATT
  .word Label_9_0128F4EF
 .byte   PATT
  .word Label_9_0128F4C8
 .byte   PATT
  .word Label_9_0128F4EF
@ 017   ----------------------------------------
Label_9_0128F529:
 .byte   N92 ,Bn0 ,v064
 .byte   N11 ,Dn1 ,v052
 .byte   N11 ,Fs1
 .byte   W12
 .byte   Dn1 ,v036
 .byte   N11 ,Fs1 ,v052
 .byte   W12
 .byte   Dn1 ,v036
 .byte   N11 ,Fs1 ,v052
 .byte   W12
 .byte   Dn1
 .byte   N11 ,Fs1
 .byte   W12
 .byte   Dn1 ,v036
 .byte   W12
 .byte   N11
 .byte   N11 ,Fs1 ,v052
 .byte   W12
 .byte   Dn1 ,v036
 .byte   N11 ,Fs1 ,v052
 .byte   W12
 .byte   N05 ,Dn1
 .byte   N05 ,Fs1
 .byte   W06
 .byte   Dn1
 .byte   N05 ,Fs1
 .byte   W06
 .byte   PEND 
@ 018   ----------------------------------------
Label_9_0128F55A:
 .byte   N92 ,Bn0 ,v064
 .byte   N11 ,Dn1 ,v052
 .byte   N11 ,Fs1
 .byte   W12
 .byte   N11
 .byte   W12
 .byte   N11
 .byte   W12
 .byte   Dn1
 .byte   N11 ,Fs1
 .byte   W24
 .byte   Dn1
 .byte   N11 ,Fs1
 .byte   W12
 .byte   N05 ,Dn1 ,v036
 .byte   N11 ,Fs1 ,v052
 .byte   W06
 .byte   N05 ,Dn1 ,v036
 .byte   W06
 .byte   N05
 .byte   N05 ,Fs1 ,v052
 .byte   W06
 .byte   Dn1 ,v036
 .byte   N05 ,Fs1 ,v052
 .byte   W06
 .byte   PEND 
 .byte   PATT
  .word Label_9_0128F529
 .byte   PATT
  .word Label_9_0128F55A
 .byte   PATT
  .word Label_9_0128F529
 .byte   PATT
  .word Label_9_0128F55A
@ 019   ----------------------------------------
 .byte   N68 ,Bn0 ,v064
 .byte   N23 ,Dn1 ,v036
 .byte   N23 ,Fs1 ,v052
 .byte   N02 ,An2 ,v036
 .byte   W02
 .byte   N02
 .byte   W03
 .byte   N02
 .byte   W01
 .byte   W02
 .byte   N02
 .byte   W01
 .byte   W02
 .byte   N02
 .byte   W01
 .byte   W02
 .byte   N02
 .byte   W01
 .byte   W02
 .byte   N02
 .byte   W01
 .byte   W02
 .byte   N02
 .byte   W01
 .byte   W02
 .byte   N02
 .byte   W01
 .byte   N11 ,Dn1 ,v044
 .byte   N11 ,Fs1 ,v052
 .byte   W02
 .byte   N02 ,An2 ,v036
 .byte   W01
 .byte   W02
 .byte   N02
 .byte   W01
 .byte   W02
 .byte   N02
 .byte   W01
 .byte   W02
 .byte   N02
 .byte   W01
 .byte   N11 ,Dn1 ,v052
 .byte   N11 ,Fs1
 .byte   W02
 .byte   N02 ,An2 ,v036
 .byte   W01
 .byte   W02
 .byte   N02
 .byte   W01
 .byte   W02
 .byte   N02
 .byte   W01
 .byte   W02
 .byte   N02
 .byte   W01
 .byte   N11 ,Dn1 ,v056
 .byte   N11 ,Fs1 ,v052
 .byte   W02
 .byte   N02 ,An2 ,v036
 .byte   W01
 .byte   W02
 .byte   N02
 .byte   W01
 .byte   W02
 .byte   N02
 .byte   W01
 .byte   W02
 .byte   N02
 .byte   W01
 .byte   N11 ,Dn1 ,v064
 .byte   N11 ,Fs1 ,v052
 .byte   W01
 .byte   W01
 .byte   N02 ,An2 ,v036
 .byte   W02
 .byte   W01
 .byte   N02
 .byte   W02
 .byte   W01
 .byte   N02
 .byte   W02
 .byte   W01
 .byte   N02
 .byte   W01
 .byte   N11 ,Bn0 ,v064
 .byte   N11 ,Dn1 ,v068
 .byte   N05 ,Fs1 ,v052
 .byte   W01
 .byte   W01
 .byte   N02 ,An2 ,v036
 .byte   W02
 .byte   W01
 .byte   N02
 .byte   W01
 .byte   N05 ,Fs1 ,v052
 .byte   W01
 .byte   W01
 .byte   N02 ,An2 ,v036
 .byte   W02
 .byte   W01
 .byte   N02
 .byte   W01
 .byte   N11 ,Bn0 ,v064
 .byte   N11 ,Dn1 ,v076
 .byte   N05 ,Fs1 ,v052
 .byte   W01
 .byte   W01
 .byte   N02 ,An2 ,v036
 .byte   W02
 .byte   W01
 .byte   N02
 .byte   W01
 .byte   N05 ,Fs1 ,v052
 .byte   W01
 .byte   W01
 .byte   N02 ,An2 ,v036
 .byte   W02
 .byte   W02
@ 020   ----------------------------------------
 .byte   W96
@ 021   ----------------------------------------
Label_9_0128F648:
 .byte   N11 ,Bn0 ,v064
 .byte   N11 ,Dn1
 .byte   N11 ,Fs1 ,v080
 .byte   N92 ,An2 ,v064
 .byte   W12
 .byte   N11 ,Bn0
 .byte   N02 ,Fs1 ,v080
 .byte   W03
 .byte   N02
 .byte   W03
 .byte   N02
 .byte   W03
 .byte   N02
 .byte   W03
 .byte   N11
 .byte   W12
 .byte   N23 ,Bn0 ,v064
 .byte   N11 ,Dn1
 .byte   N11 ,Fs1 ,v080
 .byte   W12
 .byte   N11
 .byte   W12
 .byte   N23 ,Bn0 ,v064
 .byte   N11 ,Fs1 ,v080
 .byte   W12
 .byte   N05
 .byte   W06
 .byte   N05
 .byte   W06
 .byte   Dn1 ,v064
 .byte   N11 ,Fs1 ,v080
 .byte   W06
 .byte   N05 ,Dn1 ,v064
 .byte   W06
 .byte   PEND 
@ 022   ----------------------------------------
Label_9_0128F683:
 .byte   N11 ,Bn0 ,v064
 .byte   N11 ,Dn1
 .byte   N11 ,Fs1 ,v080
 .byte   W12
 .byte   Bn0 ,v064
 .byte   N11 ,Fs1 ,v080
 .byte   W12
 .byte   N11
 .byte   W12
 .byte   N23 ,Bn0 ,v064
 .byte   N23 ,Dn1
 .byte   N11 ,Fs1 ,v080
 .byte   W12
 .byte   N05
 .byte   W06
 .byte   N05
 .byte   W06
 .byte   N23 ,Bn0 ,v064
 .byte   N11 ,Dn1
 .byte   N11 ,Fs1 ,v080
 .byte   W12
 .byte   N11
 .byte   W12
 .byte   N11
 .byte   W12
 .byte   PEND 
@ 023   ----------------------------------------
Label_9_0128F6AF:
 .byte   N11 ,Bn0 ,v064
 .byte   N11 ,Dn1
 .byte   N11 ,Fs1 ,v080
 .byte   N32 ,An2 ,v064
 .byte   W12
 .byte   N11 ,Bn0
 .byte   N02 ,Fs1 ,v080
 .byte   W03
 .byte   N02
 .byte   W03
 .byte   N02
 .byte   W03
 .byte   N02
 .byte   W03
 .byte   N11
 .byte   W12
 .byte   N23 ,Bn0 ,v064
 .byte   N11 ,Dn1
 .byte   N11 ,Fs1 ,v080
 .byte   N11 ,An2 ,v064
 .byte   W12
 .byte   Fs1 ,v080
 .byte   W12
 .byte   N23 ,Bn0 ,v064
 .byte   N11 ,Fs1 ,v080
 .byte   W12
 .byte   N05
 .byte   W06
 .byte   N05
 .byte   W06
 .byte   Dn1 ,v064
 .byte   N11 ,Fs1 ,v080
 .byte   W06
 .byte   N05 ,Dn1 ,v064
 .byte   W06
 .byte   PEND 
 .byte   PATT
  .word Label_9_0128F683
 .byte   PATT
  .word Label_9_0128F648
 .byte   PATT
  .word Label_9_0128F683
 .byte   PATT
  .word Label_9_0128F6AF
@ 024   ----------------------------------------
Label_9_0128F702:
 .byte   N11 ,Bn0 ,v064
 .byte   N11 ,Dn1
 .byte   N11 ,Fs1 ,v080
 .byte   W12
 .byte   Bn0 ,v064
 .byte   N11 ,Fs1 ,v080
 .byte   W12
 .byte   N11
 .byte   W12
 .byte   N23 ,Bn0 ,v064
 .byte   N23 ,Dn1
 .byte   N11 ,Fs1 ,v080
 .byte   W12
 .byte   N05
 .byte   N02 ,An2 ,v064
 .byte   W02
 .byte   N02
 .byte   W03
 .byte   N02
 .byte   W01
 .byte   N05 ,Fs1 ,v080
 .byte   W02
 .byte   N02 ,An2 ,v064
 .byte   W03
 .byte   N02
 .byte   W01
 .byte   N23 ,Bn0
 .byte   N11 ,Dn1
 .byte   N11 ,Fs1 ,v080
 .byte   W02
 .byte   N02 ,An2 ,v064
 .byte   W03
 .byte   N02
 .byte   W03
 .byte   N02
 .byte   W03
 .byte   N02
 .byte   W01
 .byte   N11 ,Fs1 ,v080
 .byte   W02
 .byte   N02 ,An2 ,v064
 .byte   W03
 .byte   N02
 .byte   W03
 .byte   N02
 .byte   W03
 .byte   N02
 .byte   W01
 .byte   N11 ,Fs1 ,v080
 .byte   W02
 .byte   N02 ,An2 ,v064
 .byte   W03
 .byte   N02
 .byte   W03
 .byte   N02
 .byte   W04
 .byte   PEND 
@ 025   ----------------------------------------
 .byte   N11 ,Bn0
 .byte   N11 ,Dn1
 .byte   N11 ,Fs1 ,v080
 .byte   W12
 .byte   Bn0 ,v064
 .byte   N02 ,Fs1 ,v080
 .byte   W03
 .byte   N02
 .byte   W03
 .byte   N02
 .byte   W03
 .byte   N02
 .byte   W03
 .byte   N11
 .byte   W12
 .byte   N23 ,Bn0 ,v064
 .byte   N11 ,Dn1
 .byte   N11 ,Fs1 ,v080
 .byte   W12
 .byte   N11
 .byte   W12
 .byte   N23 ,Bn0 ,v064
 .byte   N11 ,Fs1 ,v080
 .byte   W12
 .byte   N05
 .byte   W06
 .byte   N05
 .byte   W06
 .byte   Dn1 ,v064
 .byte   N11 ,Fs1 ,v080
 .byte   W06
 .byte   N05 ,Dn1 ,v064
 .byte   W06
 .byte   PATT
  .word Label_9_0128F683
 .byte   PATT
  .word Label_9_0128F6AF
 .byte   PATT
  .word Label_9_0128F683
 .byte   PATT
  .word Label_9_0128F648
 .byte   PATT
  .word Label_9_0128F683
 .byte   PATT
  .word Label_9_0128F6AF
 .byte   PATT
  .word Label_9_0128F702
@ 026   ----------------------------------------
Label_9_0128F7B5:
 .byte   N92 ,Bn0 ,v080
 .byte   N11 ,Dn1 ,v064
 .byte   W36
 .byte   N11
 .byte   W48
 .byte   N05
 .byte   W06
 .byte   N05
 .byte   W06
 .byte   PEND 
@ 027   ----------------------------------------
Label_9_0128F7C3:
 .byte   N11 ,Dn1 ,v064
 .byte   W36
 .byte   N11
 .byte   W48
 .byte   N05
 .byte   W06
 .byte   N05
 .byte   W06
 .byte   PEND 
 .byte   PATT
  .word Label_9_0128F7B5
@ 028   ----------------------------------------
Label_9_0128F7D3:
 .byte   N11 ,Dn1 ,v064
 .byte   W36
 .byte   N23
 .byte   W24
 .byte   N11
 .byte   W12
 .byte   N05
 .byte   W06
 .byte   N05
 .byte   W06
 .byte   N05
 .byte   W06
 .byte   N05
 .byte   W06
 .byte   PEND 
 .byte   PATT
  .word Label_9_0128F7B5
 .byte   PATT
  .word Label_9_0128F7C3
 .byte   PATT
  .word Label_9_0128F7B5
@ 029   ----------------------------------------
Label_9_0128F7F3:
 .byte   N02 ,An2 ,v036
 .byte   W02
 .byte   N02
 .byte   W03
 .byte   N02
 .byte   W01
 .byte   W02
 .byte   N02
 .byte   W01
 .byte   W02
 .byte   N02
 .byte   W01
 .byte   N11 ,Dn1 ,v064
 .byte   W02
 .byte   N02 ,An2 ,v036
 .byte   W01
 .byte   W02
 .byte   N02
 .byte   W01
 .byte   W02
 .byte   N02
 .byte   W01
 .byte   W02
 .byte   N02
 .byte   W01
 .byte   N11 ,Dn1 ,v064
 .byte   W02
 .byte   N02 ,An2 ,v036
 .byte   W01
 .byte   W02
 .byte   N02
 .byte   W01
 .byte   W02
 .byte   N02
 .byte   W01
 .byte   W02
 .byte   N02
 .byte   W01
 .byte   N11 ,Dn1 ,v064
 .byte   W02
 .byte   N02 ,An2 ,v036
 .byte   W01
 .byte   W02
 .byte   N02
 .byte   W01
 .byte   W02
 .byte   N02
 .byte   W01
 .byte   W02
 .byte   N02
 .byte   W01
 .byte   W02
 .byte   N02
 .byte   W01
 .byte   W02
 .byte   N02
 .byte   W01
 .byte   W02
 .byte   N02
 .byte   W01
 .byte   W02
 .byte   N02
 .byte   W01
 .byte   N11 ,Dn1 ,v064
 .byte   W01
 .byte   W01
 .byte   N02 ,An2 ,v036
 .byte   W02
 .byte   W01
 .byte   N02
 .byte   W02
 .byte   W01
 .byte   N02
 .byte   W02
 .byte   W01
 .byte   N02
 .byte   W01
 .byte   N05 ,Dn1 ,v064
 .byte   W01
 .byte   W01
 .byte   N02 ,An2 ,v036
 .byte   W02
 .byte   W01
 .byte   N02
 .byte   W01
 .byte   N05 ,Dn1 ,v064
 .byte   W01
 .byte   W01
 .byte   N02 ,An2 ,v036
 .byte   W02
 .byte   W01
 .byte   N02
 .byte   W01
 .byte   N05 ,Dn1 ,v064
 .byte   W01
 .byte   W01
 .byte   N02 ,An2 ,v036
 .byte   W02
 .byte   W01
 .byte   N02
 .byte   W01
 .byte   N05 ,Dn1 ,v064
 .byte   W01
 .byte   W01
 .byte   N02 ,An2 ,v036
 .byte   W02
 .byte   W02
 .byte   PEND 
 .byte   PATT
  .word Label_9_0128F7B5
 .byte   PATT
  .word Label_9_0128F7C3
 .byte   PATT
  .word Label_9_0128F7B5
 .byte   PATT
  .word Label_9_0128F7D3
 .byte   PATT
  .word Label_9_0128F7B5
 .byte   PATT
  .word Label_9_0128F7C3
 .byte   PATT
  .word Label_9_0128F7B5
 .byte   PATT
  .word Label_9_0128F7F3
@ 030   ----------------------------------------
Label_9_0128F8A9:
 .byte   N23 ,Bn0 ,v052
 .byte   W24
 .byte   N23
 .byte   W24
 .byte   N23
 .byte   W24
 .byte   N23
 .byte   W24
 .byte   PEND 
 .byte   PATT
  .word Label_9_0128F8A9
 .byte   PATT
  .word Label_9_0128F8A9
 .byte   PATT
  .word Label_9_0128F8A9
 .byte   PATT
  .word Label_9_0128F8A9
 .byte   PATT
  .word Label_9_0128F8A9
 .byte   PATT
  .word Label_9_0128F8A9
@ 031   ----------------------------------------
 .byte   N23 ,Bn0 ,v052
 .byte   N02 ,An2 ,v036
 .byte   W02
 .byte   N02
 .byte   W03
 .byte   N02
 .byte   W01
 .byte   W02
 .byte   N02
 .byte   W01
 .byte   W02
 .byte   N02
 .byte   W01
 .byte   W02
 .byte   N02
 .byte   W01
 .byte   W02
 .byte   N02
 .byte   W01
 .byte   W02
 .byte   N02
 .byte   W01
 .byte   W02
 .byte   N02
 .byte   W01
 .byte   N23 ,Bn0 ,v052
 .byte   W02
 .byte   N02 ,An2 ,v036
 .byte   W01
 .byte   W02
 .byte   N02
 .byte   W01
 .byte   W02
 .byte   N02
 .byte   W01
 .byte   W02
 .byte   N02
 .byte   W01
 .byte   W02
 .byte   N02
 .byte   W01
 .byte   W02
 .byte   N02
 .byte   W01
 .byte   W02
 .byte   N02
 .byte   W01
 .byte   W02
 .byte   N02
 .byte   W01
 .byte   N23 ,Bn0 ,v052
 .byte   W02
 .byte   N02 ,An2 ,v036
 .byte   W01
 .byte   W02
 .byte   N02
 .byte   W01
 .byte   W02
 .byte   N02
 .byte   W01
 .byte   W02
 .byte   N02
 .byte   W02
 .byte   W01
 .byte   N02
 .byte   W02
 .byte   W01
 .byte   N02
 .byte   W02
 .byte   W01
 .byte   N02
 .byte   W02
 .byte   W01
 .byte   N02
 .byte   W01
 .byte   N23 ,Bn0 ,v052
 .byte   W01
 .byte   W01
 .byte   N02 ,An2 ,v036
 .byte   W02
 .byte   W01
 .byte   N02
 .byte   W02
 .byte   W01
 .byte   N02
 .byte   W02
 .byte   W01
 .byte   N02
 .byte   W02
 .byte   W01
 .byte   N02
 .byte   W02
 .byte   W01
 .byte   N02
 .byte   W02
 .byte   W01
 .byte   N02
 .byte   W02
 .byte   W02
@ 032   ----------------------------------------
 .byte   N32 ,Bn0 ,v064
 .byte   N11 ,Fs1 ,v080
 .byte   W12
 .byte   Gs1
 .byte   W12
 .byte   N32 ,Cs1 ,v064
 .byte   N11 ,Fs1 ,v080
 .byte   W12
 .byte   N32 ,Bn0 ,v064
 .byte   N11 ,Gs1 ,v080
 .byte   W12
 .byte   Fs1
 .byte   W12
 .byte   N32 ,Cs1 ,v064
 .byte   N11 ,Gs1 ,v080
 .byte   W12
 .byte   N23 ,Bn0 ,v064
 .byte   N11 ,Fs1 ,v080
 .byte   W12
 .byte   Gs1
 .byte   W12
@ 033   ----------------------------------------
Label_9_0128F96E:
 .byte   N32 ,Cs1 ,v064
 .byte   N11 ,Fs1 ,v080
 .byte   W12
 .byte   N23 ,Bn0 ,v064
 .byte   N11 ,Gs1 ,v080
 .byte   W12
 .byte   Fs1
 .byte   W12
 .byte   N32 ,Cs1 ,v064
 .byte   N11 ,Gs1 ,v080
 .byte   W12
 .byte   N05 ,Bn0 ,v064
 .byte   N11 ,Fs1 ,v080
 .byte   W06
 .byte   N05 ,Bn0 ,v064
 .byte   W06
 .byte   N11
 .byte   N11 ,Gs1 ,v080
 .byte   W12
 .byte   N23 ,Cs1 ,v064
 .byte   N11 ,Fs1 ,v080
 .byte   W12
 .byte   Gs1
 .byte   W12
 .byte   PEND 
@ 034   ----------------------------------------
Label_9_0128F99F:
 .byte   N32 ,Bn0 ,v064
 .byte   N11 ,Fs1 ,v080
 .byte   W12
 .byte   Gs1
 .byte   W12
 .byte   N23 ,Cs1 ,v064
 .byte   N11 ,Fs1 ,v080
 .byte   W12
 .byte   N23 ,Bn0 ,v064
 .byte   N11 ,Gs1 ,v080
 .byte   W12
 .byte   Fs1
 .byte   W12
 .byte   N23 ,Bn0 ,v064
 .byte   N11 ,Gs1 ,v080
 .byte   W12
 .byte   N23 ,Cs1 ,v064
 .byte   N11 ,Fs1 ,v080
 .byte   W12
 .byte   Gs1
 .byte   W12
 .byte   PEND 
@ 035   ----------------------------------------
 .byte   N23 ,Bn0 ,v064
 .byte   N11 ,Fs1 ,v080
 .byte   W12
 .byte   Gs1
 .byte   W12
 .byte   N23 ,Cs1 ,v064
 .byte   N11 ,Fs1 ,v080
 .byte   W12
 .byte   N05 ,Bn0 ,v064
 .byte   N11 ,Gs1 ,v080
 .byte   W06
 .byte   N05 ,Bn0 ,v064
 .byte   W06
 .byte   N23
 .byte   N11 ,Fs1 ,v080
 .byte   W12
 .byte   Gs1
 .byte   W12
 .byte   N23 ,Bn0 ,v064
 .byte   N05 ,Cs1
 .byte   N05 ,Fs1 ,v080
 .byte   W06
 .byte   N05
 .byte   W06
 .byte   N11 ,Cs1 ,v064
 .byte   N11 ,Gs1 ,v080
 .byte   W12
@ 036   ----------------------------------------
 .byte   N32 ,Bn0 ,v064
 .byte   N11 ,Fs1 ,v080
 .byte   W12
 .byte   Gs1
 .byte   W12
 .byte   N32 ,Cs1 ,v064
 .byte   N11 ,Fs1 ,v080
 .byte   W12
 .byte   N23 ,Bn0 ,v064
 .byte   N11 ,Gs1 ,v080
 .byte   W12
 .byte   Fs1
 .byte   W12
 .byte   N23 ,Bn0 ,v064
 .byte   N32 ,Cs1
 .byte   N11 ,Gs1 ,v080
 .byte   W12
 .byte   Fs1
 .byte   W12
 .byte   Gs1
 .byte   W12
 .byte   PATT
  .word Label_9_0128F96E
 .byte   PATT
  .word Label_9_0128F99F
@ 037   ----------------------------------------
 .byte   N23 ,Bn0 ,v064
 .byte   N11 ,Fs1 ,v080
 .byte   N02 ,An2 ,v036
 .byte   W02
 .byte   N02
 .byte   W02
 .byte   W01
 .byte   N02
 .byte   W01
 .byte   W02
 .byte   N02
 .byte   W02
 .byte   W01
 .byte   N02
 .byte   W01
 .byte   N11 ,Gs1 ,v080
 .byte   W02
 .byte   N02 ,An2 ,v036
 .byte   W02
 .byte   W01
 .byte   N02
 .byte   W01
 .byte   W02
 .byte   N02
 .byte   W02
 .byte   W01
 .byte   N02
 .byte   W01
 .byte   N23 ,Cs1 ,v064
 .byte   N11 ,As1 ,v080
 .byte   W02
 .byte   N02 ,An2 ,v036
 .byte   W02
 .byte   W01
 .byte   N02
 .byte   W01
 .byte   W02
 .byte   N02
 .byte   W02
 .byte   W01
 .byte   N02
 .byte   W01
 .byte   N05 ,Bn0 ,v064
 .byte   N11 ,Fs1 ,v080
 .byte   W02
 .byte   N02 ,An2 ,v036
 .byte   W02
 .byte   W01
 .byte   N02
 .byte   W01
 .byte   N05 ,Bn0 ,v064
 .byte   W02
 .byte   N02 ,An2 ,v036
 .byte   W02
 .byte   W01
 .byte   N02
 .byte   W01
 .byte   N23 ,Bn0 ,v064
 .byte   N05 ,Fs1 ,v080
 .byte   W02
 .byte   N02 ,An2 ,v036
 .byte   W01
 .byte   W01
 .byte   W01
 .byte   N02
 .byte   W01
 .byte   N05 ,Fs1 ,v084
 .byte   W02
 .byte   N02 ,An2 ,v036
 .byte   W01
 .byte   W01
 .byte   W01
 .byte   N02
 .byte   W01
 .byte   N11 ,Cs1 ,v064
 .byte   N05 ,Fs1 ,v084
 .byte   W02
 .byte   N02 ,An2 ,v036
 .byte   W01
 .byte   W01
 .byte   W01
 .byte   N02
 .byte   W01
 .byte   N05 ,Fs1 ,v088
 .byte   W02
 .byte   N02 ,An2 ,v036
 .byte   W01
 .byte   W01
 .byte   W01
 .byte   N02
 .byte   W01
 .byte   N23 ,Bn0 ,v064
 .byte   N23 ,Cs1
 .byte   N05 ,Fs1 ,v088
 .byte   W02
 .byte   N02 ,An2 ,v036
 .byte   W01
 .byte   W01
 .byte   W01
 .byte   N02
 .byte   W01
 .byte   N05 ,Fs1 ,v092
 .byte   W02
 .byte   N02 ,An2 ,v036
 .byte   W01
 .byte   W01
 .byte   W01
 .byte   N02
 .byte   W01
 .byte   N05 ,Fs1 ,v092
 .byte   W02
 .byte   N02 ,An2 ,v036
 .byte   W01
 .byte   W01
 .byte   W01
 .byte   N02
 .byte   W01
 .byte   N05 ,Fs1 ,v096
 .byte   W02
 .byte   N02 ,An2 ,v036
 .byte   W01
 .byte   W01
 .byte   W02
@ 038   ----------------------------------------
Label_9_0128FAE9:
 .byte   N32 ,Bn0 ,v080
 .byte   N32 ,Dn1 ,v064
 .byte   N32 ,An2 ,v080
 .byte   W36
 .byte   Bn0
 .byte   N32 ,Dn1 ,v064
 .byte   N32 ,An2 ,v080
 .byte   W36
 .byte   N23 ,Bn0
 .byte   N23 ,Dn1 ,v064
 .byte   N23 ,An2 ,v080
 .byte   W24
 .byte   PEND 
@ 039   ----------------------------------------
Label_9_0128FB05:
 .byte   N32 ,Dn1 ,v064
 .byte   W36
 .byte   N32
 .byte   W12
 .byte   N44 ,Bn0 ,v080
 .byte   N44 ,An2
 .byte   W48
 .byte   PEND 
@ 040   ----------------------------------------
Label_9_0128FB12:
 .byte   N92 ,Bn0 ,v080
 .byte   N32 ,Dn1 ,v064
 .byte   N92 ,An2 ,v080
 .byte   W36
 .byte   N32 ,Dn1 ,v064
 .byte   W36
 .byte   N23
 .byte   W24
 .byte   PEND 
@ 041   ----------------------------------------
Label_9_0128FB23:
 .byte   N92 ,Bn0 ,v080
 .byte   N32 ,Dn1 ,v064
 .byte   N92 ,An2 ,v080
 .byte   W36
 .byte   N32 ,Dn1 ,v064
 .byte   W60
 .byte   PEND 
 .byte   PATT
  .word Label_9_0128FAE9
 .byte   PATT
  .word Label_9_0128FB05
 .byte   PATT
  .word Label_9_0128FB12
 .byte   PATT
  .word Label_9_0128FB23
@ 042   ----------------------------------------
 .byte   N32 ,Bn0 ,v080
 .byte   N32 ,Dn1 ,v064
 .byte   N11 ,Fs1 ,v096
 .byte   N32 ,An2 ,v064
 .byte   W12
 .byte   N11 ,Fs1 ,v096
 .byte   W12
 .byte   N11
 .byte   W12
 .byte   N32 ,Bn0 ,v080
 .byte   N32 ,Dn1 ,v064
 .byte   N02 ,Fs1 ,v096
 .byte   N32 ,An2 ,v064
 .byte   W03
 .byte   N02 ,Fs1 ,v096
 .byte   W03
 .byte   N02
 .byte   W03
 .byte   N02
 .byte   W03
 .byte   N11
 .byte   W12
 .byte   N11
 .byte   W12
 .byte   N23 ,Bn0 ,v080
 .byte   N23 ,Dn1 ,v064
 .byte   N11 ,Fs1 ,v096
 .byte   N23 ,An2 ,v064
 .byte   W12
 .byte   N11 ,Fs1 ,v096
 .byte   W12
@ 043   ----------------------------------------
 .byte   N32 ,Dn1 ,v064
 .byte   N11 ,Fs1 ,v096
 .byte   W12
 .byte   N11
 .byte   W12
 .byte   N11
 .byte   W12
 .byte   N32 ,Dn1 ,v064
 .byte   N11 ,Fs1 ,v096
 .byte   W12
 .byte   N44 ,Bn0 ,v080
 .byte   N11 ,Fs1 ,v096
 .byte   N44 ,An2 ,v064
 .byte   W12
 .byte   N11 ,Fs1 ,v096
 .byte   W12
 .byte   N11
 .byte   W12
 .byte   N02
 .byte   W03
 .byte   N02
 .byte   W03
 .byte   N02
 .byte   W03
 .byte   N02
 .byte   W03
@ 044   ----------------------------------------
 .byte   N92 ,Bn0 ,v080
 .byte   N32 ,Dn1 ,v064
 .byte   N11 ,Fs1 ,v096
 .byte   N92 ,An2 ,v064
 .byte   W12
 .byte   N11 ,Fs1 ,v096
 .byte   W12
 .byte   N11
 .byte   W12
 .byte   N32 ,Dn1 ,v064
 .byte   N11 ,Fs1 ,v096
 .byte   W12
 .byte   N11
 .byte   W12
 .byte   N11
 .byte   W12
 .byte   N23 ,Dn1 ,v064
 .byte   N11 ,Fs1 ,v096
 .byte   W12
 .byte   N11
 .byte   W12
@ 045   ----------------------------------------
 .byte   N92 ,Bn0 ,v080
 .byte   N32 ,Dn1 ,v064
 .byte   N11 ,Fs1 ,v096
 .byte   N92 ,An2 ,v064
 .byte   W12
 .byte   N11 ,Fs1 ,v096
 .byte   W12
 .byte   N11
 .byte   W12
 .byte   N32 ,Dn1 ,v064
 .byte   N11 ,Fs1 ,v096
 .byte   W12
 .byte   N11
 .byte   W12
 .byte   N11
 .byte   W12
 .byte   N11
 .byte   W12
 .byte   N11
 .byte   W12
@ 046   ----------------------------------------
 .byte   N32 ,Bn0 ,v080
 .byte   N32 ,Dn1 ,v064
 .byte   N11 ,Fs1 ,v096
 .byte   N32 ,An2 ,v064
 .byte   W12
 .byte   N11 ,Fs1 ,v096
 .byte   W12
 .byte   N11
 .byte   W12
 .byte   N32 ,Bn0 ,v080
 .byte   N32 ,Dn1 ,v064
 .byte   N11 ,Fs1 ,v096
 .byte   N32 ,An2 ,v064
 .byte   W12
 .byte   N11 ,Fs1 ,v096
 .byte   W12
 .byte   N11
 .byte   W12
 .byte   N23 ,Bn0 ,v080
 .byte   N23 ,Dn1 ,v064
 .byte   N11 ,Fs1 ,v096
 .byte   N23 ,An2 ,v064
 .byte   W12
 .byte   N11 ,Fs1 ,v096
 .byte   W12
@ 047   ----------------------------------------
 .byte   N32 ,Dn1 ,v064
 .byte   N11 ,Fs1 ,v096
 .byte   W12
 .byte   N11
 .byte   W12
 .byte   N11
 .byte   W12
 .byte   N32 ,Dn1 ,v064
 .byte   N11 ,Fs1 ,v096
 .byte   W12
 .byte   N44 ,Bn0 ,v080
 .byte   N11 ,Fs1 ,v096
 .byte   W12
 .byte   N11
 .byte   W12
 .byte   N11
 .byte   W12
 .byte   N11
 .byte   W12
@ 048   ----------------------------------------
 .byte   N92 ,Bn0 ,v080
 .byte   N11 ,Dn1 ,v064
 .byte   N11 ,Fs1 ,v096
 .byte   N92 ,An2 ,v064
 .byte   W12
 .byte   N11 ,Dn1
 .byte   N11 ,Fs1 ,v096
 .byte   W12
 .byte   Dn1 ,v064
 .byte   N11 ,Fs1 ,v096
 .byte   W12
 .byte   Dn1 ,v064
 .byte   N11 ,Fs1 ,v096
 .byte   W12
 .byte   N05 ,Dn1 ,v064
 .byte   N11 ,Fs1 ,v096
 .byte   W06
 .byte   N05 ,Dn1 ,v064
 .byte   W06
 .byte   N05
 .byte   N11 ,Fs1 ,v096
 .byte   W06
 .byte   N05 ,Dn1 ,v064
 .byte   W06
 .byte   N05
 .byte   N11 ,Fs1 ,v096
 .byte   W06
 .byte   N05 ,Dn1 ,v064
 .byte   W06
 .byte   N05
 .byte   N11 ,Fs1 ,v096
 .byte   W06
 .byte   N05 ,Dn1 ,v064
 .byte   W06
@ 049   ----------------------------------------
 .byte   W96
@ 050   ----------------------------------------
Label_9_0128FC92:
 .byte   N32 ,Bn0 ,v080
 .byte   N32 ,Dn1 ,v064
 .byte   N11 ,Fs1
 .byte   N92 ,An2
 .byte   W12
 .byte   N02 ,Fs1
 .byte   W03
 .byte   N02
 .byte   W03
 .byte   N02
 .byte   W03
 .byte   N02
 .byte   W03
 .byte   N02
 .byte   W03
 .byte   N02
 .byte   W03
 .byte   N02
 .byte   W03
 .byte   N02
 .byte   W03
 .byte   N56 ,Bn0 ,v080
 .byte   N32 ,Dn1 ,v064
 .byte   N02 ,Fs1
 .byte   W03
 .byte   N02
 .byte   W03
 .byte   N02
 .byte   W03
 .byte   N02
 .byte   W03
 .byte   N11
 .byte   W12
 .byte   N02
 .byte   W03
 .byte   N02
 .byte   W03
 .byte   N02
 .byte   W03
 .byte   N02
 .byte   W03
 .byte   N23 ,Dn1
 .byte   N02 ,Fs1
 .byte   W03
 .byte   N02
 .byte   W03
 .byte   N02
 .byte   W03
 .byte   N02
 .byte   W03
 .byte   N02
 .byte   W03
 .byte   N02
 .byte   W03
 .byte   N02
 .byte   W03
 .byte   N02
 .byte   W03
 .byte   PEND 
@ 051   ----------------------------------------
Label_9_0128FCDB:
 .byte   N32 ,Bn0 ,v080
 .byte   N32 ,Dn1 ,v064
 .byte   N11 ,Fs1
 .byte   W12
 .byte   N02
 .byte   W03
 .byte   N02
 .byte   W03
 .byte   N02
 .byte   W03
 .byte   N02
 .byte   W03
 .byte   N02
 .byte   W03
 .byte   N02
 .byte   W03
 .byte   N02
 .byte   W03
 .byte   N02
 .byte   W03
 .byte   N56 ,Bn0 ,v080
 .byte   N32 ,Dn1 ,v064
 .byte   N02 ,Fs1
 .byte   W03
 .byte   N02
 .byte   W03
 .byte   N02
 .byte   W03
 .byte   N02
 .byte   W03
 .byte   N11
 .byte   W12
 .byte   N02
 .byte   W03
 .byte   N02
 .byte   W03
 .byte   N02
 .byte   W03
 .byte   N02
 .byte   W03
 .byte   N02
 .byte   W03
 .byte   N02
 .byte   W03
 .byte   N02
 .byte   W03
 .byte   N02
 .byte   W03
 .byte   N02
 .byte   W03
 .byte   N02
 .byte   W03
 .byte   N02
 .byte   W03
 .byte   N02
 .byte   W03
 .byte   PEND 
@ 052   ----------------------------------------
Label_9_0128FD1E:
 .byte   N32 ,Bn0 ,v080
 .byte   N32 ,Dn1 ,v064
 .byte   N11 ,Fs1
 .byte   W12
 .byte   N02
 .byte   W03
 .byte   N02
 .byte   W03
 .byte   N02
 .byte   W03
 .byte   N02
 .byte   W03
 .byte   N02
 .byte   W03
 .byte   N02
 .byte   W03
 .byte   N02
 .byte   W03
 .byte   N02
 .byte   W03
 .byte   N56 ,Bn0 ,v080
 .byte   N32 ,Dn1 ,v064
 .byte   N02 ,Fs1
 .byte   W03
 .byte   N02
 .byte   W03
 .byte   N02
 .byte   W03
 .byte   N02
 .byte   W03
 .byte   N11
 .byte   W12
 .byte   N02
 .byte   W03
 .byte   N02
 .byte   W03
 .byte   N02
 .byte   W03
 .byte   N02
 .byte   W03
 .byte   N23 ,Dn1
 .byte   N02 ,Fs1
 .byte   W03
 .byte   N02
 .byte   W03
 .byte   N02
 .byte   W03
 .byte   N02
 .byte   W03
 .byte   N02
 .byte   W03
 .byte   N02
 .byte   W03
 .byte   N02
 .byte   W03
 .byte   N02
 .byte   W03
 .byte   PEND 
 .byte   PATT
  .word Label_9_0128FCDB
 .byte   PATT
  .word Label_9_0128FC92
 .byte   PATT
  .word Label_9_0128FCDB
 .byte   PATT
  .word Label_9_0128FD1E
 .byte   PATT
  .word Label_9_0128FCDB
 .byte   PATT
  .word Label_9_0128FC92
 .byte   PATT
  .word Label_9_0128FCDB
 .byte   PATT
  .word Label_9_0128FD1E
 .byte   PATT
  .word Label_9_0128FCDB
 .byte   PATT
  .word Label_9_0128FD1E
 .byte   PATT
  .word Label_9_0128FCDB
 .byte   PATT
  .word Label_9_0128FC92
@ 053   ----------------------------------------
 .byte   N32 ,Bn0 ,v080
 .byte   N32 ,Dn1 ,v064
 .byte   N11 ,Fs1
 .byte   N02 ,An2 ,v036
 .byte   W02
 .byte   N02
 .byte   W03
 .byte   N02
 .byte   W01
 .byte   W02
 .byte   N02
 .byte   W01
 .byte   W02
 .byte   N02
 .byte   W01
 .byte   Fs1 ,v064
 .byte   W02
 .byte   An2 ,v036
 .byte   W01
 .byte   Fs1 ,v064
 .byte   W02
 .byte   An2 ,v036
 .byte   W01
 .byte   Fs1 ,v064
 .byte   W02
 .byte   An2 ,v036
 .byte   W01
 .byte   Fs1 ,v064
 .byte   W02
 .byte   An2 ,v036
 .byte   W01
 .byte   Fs1 ,v064
 .byte   W02
 .byte   An2 ,v036
 .byte   W01
 .byte   Fs1 ,v064
 .byte   W02
 .byte   An2 ,v036
 .byte   W01
 .byte   Fs1 ,v064
 .byte   W02
 .byte   An2 ,v036
 .byte   W01
 .byte   Fs1 ,v064
 .byte   W02
 .byte   An2 ,v036
 .byte   W01
 .byte   N56 ,Bn0 ,v080
 .byte   N32 ,Dn1 ,v064
 .byte   N02 ,Fs1
 .byte   W02
 .byte   An2 ,v036
 .byte   W01
 .byte   Fs1 ,v064
 .byte   W02
 .byte   An2 ,v036
 .byte   W01
 .byte   Fs1 ,v064
 .byte   W02
 .byte   An2 ,v036
 .byte   W01
 .byte   Fs1 ,v064
 .byte   W02
 .byte   An2 ,v036
 .byte   W01
 .byte   N11 ,Fs1 ,v064
 .byte   W02
 .byte   N02 ,An2 ,v036
 .byte   W01
 .byte   W02
 .byte   N02
 .byte   W01
 .byte   W02
 .byte   N02
 .byte   W01
 .byte   W02
 .byte   N02
 .byte   W01
 .byte   Fs1 ,v064
 .byte   W01
 .byte   W01
 .byte   An2 ,v036
 .byte   W01
 .byte   Fs1 ,v064
 .byte   W01
 .byte   W01
 .byte   An2 ,v036
 .byte   W01
 .byte   Fs1 ,v064
 .byte   W01
 .byte   W01
 .byte   An2 ,v036
 .byte   W01
 .byte   Fs1 ,v064
 .byte   W01
 .byte   W01
 .byte   An2 ,v036
 .byte   W01
 .byte   Fs1 ,v064
 .byte   W01
 .byte   W01
 .byte   An2 ,v036
 .byte   W01
 .byte   Fs1 ,v064
 .byte   W01
 .byte   W01
 .byte   An2 ,v036
 .byte   W01
 .byte   Fs1 ,v064
 .byte   W01
 .byte   W01
 .byte   An2 ,v036
 .byte   W01
 .byte   Fs1 ,v064
 .byte   W01
 .byte   W01
 .byte   An2 ,v036
 .byte   W01
 .byte   Fs1 ,v064
 .byte   W01
 .byte   W01
 .byte   An2 ,v036
 .byte   W01
 .byte   Fs1 ,v064
 .byte   W01
 .byte   W01
 .byte   An2 ,v036
 .byte   W01
 .byte   Fs1 ,v064
 .byte   W01
 .byte   W01
 .byte   An2 ,v036
 .byte   W01
 .byte   Fs1 ,v064
 .byte   W01
 .byte   W02
@ 054   ----------------------------------------
Label_9_0128FE66:
 .byte   N32 ,Dn1 ,v064
 .byte   W36
 .byte   N32
 .byte   W36
 .byte   N23
 .byte   W24
 .byte   PEND 
@ 055   ----------------------------------------
 .byte   N32
 .byte   W36
 .byte   N32
 .byte   W48
 .byte   N05
 .byte   W06
 .byte   N05
 .byte   W06
 .byte   PATT
  .word Label_9_0128FE66
@ 056   ----------------------------------------
 .byte   N32 ,Dn1 ,v064
 .byte   W36
 .byte   N32
 .byte   W48
 .byte   N11
 .byte   W12
 .byte   PATT
  .word Label_9_0128FE66
@ 057   ----------------------------------------
Label_9_0128FE89:
 .byte   N32 ,Dn1 ,v064
 .byte   W36
 .byte   N32
 .byte   W60
 .byte   PEND 
 .byte   PATT
  .word Label_9_0128FE66
 .byte   PATT
  .word Label_9_0128FE89
@ 058   ----------------------------------------
 .byte   N64 ,Bn0 ,v096
 .byte   N32 ,Dn1 ,v064
 .byte   W36
 .byte   N32
 .byte   W36
 .byte   N23
 .byte   W24
 .byte   PATT
  .word Label_9_0128FE89
@ 059   ----------------------------------------
Label_9_0128FEAA:
 .byte   N92 ,Bn0 ,v080
 .byte   N32 ,Dn1 ,v064
 .byte   W36
 .byte   N32
 .byte   W36
 .byte   N23
 .byte   W24
 .byte   PEND 
 .byte   PATT
  .word Label_9_0128FE89
 .byte   PATT
  .word Label_9_0128FEAA
 .byte   PATT
  .word Label_9_0128FE89
 .byte   PATT
  .word Label_9_0128FEAA
 .byte   PATT
  .word Label_9_0128FE89
 .byte   PATT
  .word Label_9_0128FEAA
@ 060   ----------------------------------------
 .byte   N92 ,Bn0 ,v080
 .byte   N32 ,Dn1 ,v064
 .byte   W48
 .byte   N02 ,Fs1
 .byte   W03
 .byte   N02
 .byte   W03
 .byte   N02
 .byte   W03
 .byte   N02
 .byte   W15
 .byte   N02
 .byte   N02 ,An2 ,v052
 .byte   W03
 .byte   Fs1 ,v064
 .byte   N02 ,An2 ,v052
 .byte   W03
 .byte   Fs1 ,v064
 .byte   N02 ,An2 ,v052
 .byte   W03
 .byte   Fs1 ,v064
 .byte   N02 ,An2 ,v052
 .byte   W03
 .byte   N02
 .byte   W03
 .byte   N02
 .byte   W03
 .byte   N02
 .byte   W03
 .byte   N02
 .byte   W03
@ 061   ----------------------------------------
 .byte   W96
@ 062   ----------------------------------------
 .byte   W96
@ 063   ----------------------------------------
 .byte   W96
@ 064   ----------------------------------------
 .byte   W96
@ 065   ----------------------------------------
 .byte   W96
@ 066   ----------------------------------------
 .byte   W96
@ 067   ----------------------------------------
 .byte   W96
@ 068   ----------------------------------------
 .byte   W96
@ 069   ----------------------------------------
 .byte   N23 ,Bn0 ,v080
 .byte   W12
 .byte   N05 ,Fs1 ,v064
 .byte   W06
 .byte   N05
 .byte   W06
 .byte   N23 ,Bn0 ,v080
 .byte   N05 ,Fs1 ,v064
 .byte   W06
 .byte   N05
 .byte   W06
 .byte   N05
 .byte   W06
 .byte   N05
 .byte   W06
 .byte   N23 ,Bn0 ,v080
 .byte   W24
 .byte   N23
 .byte   W12
 .byte   N02 ,Fs1 ,v064
 .byte   W03
 .byte   N02
 .byte   W03
 .byte   N02
 .byte   W03
 .byte   N02
 .byte   W03
@ 070   ----------------------------------------
 .byte   N23 ,Bn0 ,v080
 .byte   W12
 .byte   N05 ,Fs1 ,v064
 .byte   W06
 .byte   N05
 .byte   W06
 .byte   N23 ,Bn0 ,v080
 .byte   N05 ,Fs1 ,v064
 .byte   W06
 .byte   N05
 .byte   W06
 .byte   N02
 .byte   W03
 .byte   N02
 .byte   W03
 .byte   N02
 .byte   W03
 .byte   N02
 .byte   W03
 .byte   N23 ,Bn0 ,v080
 .byte   N02 ,Fs1 ,v064
 .byte   W24
 .byte   N23 ,Bn0 ,v080
 .byte   W12
 .byte   N05 ,Fs1 ,v064
 .byte   W06
 .byte   N05
 .byte   W06
@ 071   ----------------------------------------
Label_9_0128FF5E:
 .byte   N23 ,Bn0 ,v080
 .byte   N11 ,Fs1 ,v064
 .byte   W12
 .byte   N11
 .byte   W12
 .byte   N23 ,Bn0 ,v080
 .byte   N11 ,Fs1 ,v064
 .byte   W12
 .byte   N11
 .byte   W12
 .byte   N23 ,Bn0 ,v080
 .byte   N11 ,Fs1 ,v064
 .byte   W12
 .byte   N11
 .byte   W12
 .byte   N23 ,Bn0 ,v080
 .byte   N11 ,Fs1 ,v064
 .byte   W12
 .byte   N11
 .byte   W12
 .byte   PEND 
 .byte   PATT
  .word Label_9_0128FF5E
 .byte   PATT
  .word Label_9_0128FF5E
 .byte   PATT
  .word Label_9_0128FF5E
@ 072   ----------------------------------------
 .byte   N11 ,Bn0 ,v080
 .byte   N11 ,Fs1 ,v064
 .byte   W12
 .byte   Bn0 ,v080
 .byte   N11 ,Fs1 ,v064
 .byte   W12
 .byte   Bn0 ,v080
 .byte   N11 ,Fs1 ,v064
 .byte   W12
 .byte   Bn0 ,v080
 .byte   N11 ,Fs1 ,v064
 .byte   W12
 .byte   N05 ,Bn0 ,v080
 .byte   N05 ,Fs1 ,v064
 .byte   W01
 .byte   W02
 .byte   W01
 .byte   W02
 .byte   Bn0 ,v080
 .byte   N05 ,Fs1 ,v068
 .byte   W01
 .byte   W02
 .byte   W01
 .byte   W02
 .byte   Bn0 ,v080
 .byte   N05 ,Fs1 ,v072
 .byte   W01
 .byte   W02
 .byte   W01
 .byte   W02
 .byte   Bn0 ,v080
 .byte   N05 ,Fs1 ,v076
 .byte   W01
 .byte   W02
 .byte   W01
 .byte   W02
 .byte   Bn0 ,v080
 .byte   N05 ,Fs1
 .byte   W01
 .byte   W02
 .byte   W01
 .byte   W02
 .byte   Bn0
 .byte   N05 ,Fs1 ,v084
 .byte   W01
 .byte   W02
 .byte   W01
 .byte   W02
 .byte   Bn0 ,v080
 .byte   N05 ,Fs1 ,v088
 .byte   W01
 .byte   W02
 .byte   W01
 .byte   W02
 .byte   Bn0 ,v080
 .byte   N05 ,Fs1 ,v092
 .byte   W01
 .byte   W02
 .byte   W01
 .byte   W02
@ 073   ----------------------------------------
 .byte   N02 ,An2 ,v016
 .byte   W02
 .byte   N02
 .byte   W03
 .byte   N02
 .byte   W03
 .byte   N02
 .byte   W03
 .byte   N02
 .byte   W03
 .byte   N02
 .byte   W03
 .byte   N02
 .byte   W03
 .byte   N02
 .byte   W03
 .byte   N02
 .byte   W03
 .byte   N02
 .byte   W03
 .byte   N02
 .byte   W03
 .byte   N02
 .byte   W03
 .byte   N02
 .byte   W03
 .byte   N02
 .byte   W03
 .byte   N02
 .byte   W03
 .byte   N02
 .byte   W03
 .byte   N02
 .byte   W03
 .byte   N02
 .byte   W03
 .byte   N02
 .byte   W03
 .byte   N02
 .byte   W03
 .byte   N02
 .byte   W03
 .byte   N02
 .byte   W03
 .byte   N02
 .byte   W03
 .byte   N02
 .byte   W03
 .byte   N02
 .byte   W03
 .byte   N02
 .byte   W03
 .byte   N02
 .byte   W03
 .byte   N02
 .byte   W03
 .byte   N02
 .byte   W03
 .byte   N02
 .byte   W03
 .byte   N02
 .byte   W03
 .byte   N02
 .byte   W04
@ 074   ----------------------------------------
 .byte   N05 ,Fs1 ,v064
 .byte   W06
 .byte   N05
 .byte   W06
 .byte   N05
 .byte   W06
 .byte   N05
 .byte   W06
 .byte   N05
 .byte   W06
 .byte   N05
 .byte   W06
 .byte   N05
 .byte   W06
 .byte   N05
 .byte   W06
 .byte   N44 ,Bn0 ,v080
 .byte   N32 ,Dn1 ,v064
 .byte   N44 ,An2 ,v080
 .byte   W36
 .byte   N11 ,Dn1 ,v064
 .byte   W12
@ 075   ----------------------------------------
 .byte   N32 ,Bn0 ,v080
 .byte   N32 ,Dn1 ,v064
 .byte   N11 ,Fs1
 .byte   N92 ,An2 ,v080
 .byte   W12
 .byte   N02 ,Fs1 ,v064
 .byte   W03
 .byte   N02
 .byte   W03
 .byte   N02
 .byte   W03
 .byte   N02
 .byte   W03
 .byte   N02
 .byte   W03
 .byte   N02
 .byte   W03
 .byte   N02
 .byte   W03
 .byte   N02
 .byte   W03
 .byte   N32 ,Bn0 ,v080
 .byte   N32 ,Dn1 ,v064
 .byte   N02 ,Fs1
 .byte   W03
 .byte   N02
 .byte   W03
 .byte   N02
 .byte   W03
 .byte   N02
 .byte   W03
 .byte   N11
 .byte   W12
 .byte   N02
 .byte   W03
 .byte   N02
 .byte   W03
 .byte   N02
 .byte   W03
 .byte   N02
 .byte   W03
 .byte   N02
 .byte   W03
 .byte   N02
 .byte   W03
 .byte   N02
 .byte   W03
 .byte   N02
 .byte   W03
 .byte   N05 ,Dn1
 .byte   N02 ,Fs1
 .byte   W03
 .byte   N02
 .byte   W03
 .byte   N05 ,Dn1
 .byte   N02 ,Fs1
 .byte   W03
 .byte   N02
 .byte   W03
@ 076   ----------------------------------------
Label_9_012900A1:
 .byte   N32 ,Bn0 ,v080
 .byte   N32 ,Dn1 ,v064
 .byte   N11 ,Fs1
 .byte   N92 ,An2 ,v080
 .byte   W12
 .byte   N02 ,Fs1 ,v064
 .byte   W03
 .byte   N02
 .byte   W03
 .byte   N02
 .byte   W03
 .byte   N02
 .byte   W03
 .byte   N02
 .byte   W03
 .byte   N02
 .byte   W03
 .byte   N02
 .byte   W03
 .byte   N02
 .byte   W03
 .byte   N32 ,Bn0 ,v080
 .byte   N32 ,Dn1 ,v064
 .byte   N02 ,Fs1
 .byte   W03
 .byte   N02
 .byte   W03
 .byte   N02
 .byte   W03
 .byte   N02
 .byte   W03
 .byte   N11
 .byte   W12
 .byte   N02
 .byte   W03
 .byte   N02
 .byte   W03
 .byte   N02
 .byte   W03
 .byte   N02
 .byte   W03
 .byte   N23 ,Dn1
 .byte   N02 ,Fs1
 .byte   W03
 .byte   N02
 .byte   W03
 .byte   N02
 .byte   W03
 .byte   N02
 .byte   W03
 .byte   N02
 .byte   W03
 .byte   N02
 .byte   W03
 .byte   N02
 .byte   W03
 .byte   N02
 .byte   W03
 .byte   PEND 
@ 077   ----------------------------------------
Label_9_012900EC:
 .byte   N32 ,Bn0 ,v080
 .byte   N32 ,Dn1 ,v064
 .byte   N11 ,Fs1
 .byte   W12
 .byte   N02
 .byte   W03
 .byte   N02
 .byte   W03
 .byte   N02
 .byte   W03
 .byte   N02
 .byte   W03
 .byte   N02
 .byte   W03
 .byte   N02
 .byte   W03
 .byte   N02
 .byte   W03
 .byte   N02
 .byte   W03
 .byte   N32 ,Bn0 ,v080
 .byte   N32 ,Dn1 ,v064
 .byte   N02 ,Fs1
 .byte   W03
 .byte   N02
 .byte   W03
 .byte   N02
 .byte   W03
 .byte   N02
 .byte   W03
 .byte   N11
 .byte   W12
 .byte   N02
 .byte   W03
 .byte   N02
 .byte   W03
 .byte   N02
 .byte   W03
 .byte   N02
 .byte   W03
 .byte   N02
 .byte   W03
 .byte   N02
 .byte   W03
 .byte   N02
 .byte   W03
 .byte   N02
 .byte   W03
 .byte   N02
 .byte   W03
 .byte   N02
 .byte   W03
 .byte   N02
 .byte   W03
 .byte   N02
 .byte   W03
 .byte   PEND 
 .byte   PATT
  .word Label_9_012900A1
 .byte   PATT
  .word Label_9_012900EC
 .byte   PATT
  .word Label_9_012900A1
 .byte   PATT
  .word Label_9_012900EC
 .byte   PATT
  .word Label_9_012900A1
 .byte   PATT
  .word Label_9_012900EC
 .byte   PATT
  .word Label_9_012900A1
 .byte   PATT
  .word Label_9_012900EC
 .byte   PATT
  .word Label_9_012900A1
 .byte   PATT
  .word Label_9_012900EC
 .byte   PATT
  .word Label_9_012900A1
 .byte   PATT
  .word Label_9_012900EC
@ 078   ----------------------------------------
Label_9_0129016B:
 .byte   N92 ,Bn0 ,v080
 .byte   N32 ,Dn1 ,v064
 .byte   N23 ,Fs1
 .byte   W24
 .byte   N23
 .byte   W12
 .byte   N32 ,Dn1
 .byte   W12
 .byte   N23 ,Fs1
 .byte   W24
 .byte   Dn1
 .byte   N23 ,Fs1
 .byte   W24
 .byte   PEND 
@ 079   ----------------------------------------
Label_9_01290181:
 .byte   N92 ,Bn0 ,v080
 .byte   N32 ,Dn1 ,v064
 .byte   N23 ,Fs1
 .byte   W24
 .byte   N23
 .byte   W12
 .byte   N32 ,Dn1
 .byte   W12
 .byte   N23 ,Fs1
 .byte   W24
 .byte   N23
 .byte   W24
 .byte   PEND 
 .byte   PATT
  .word Label_9_0129016B
 .byte   PATT
  .word Label_9_01290181
 .byte   PATT
  .word Label_9_0129016B
 .byte   PATT
  .word Label_9_01290181
 .byte   PATT
  .word Label_9_0129016B
 .byte   PATT
  .word Label_9_01290181
@ 080   ----------------------------------------
 .byte   N92 ,Bn0 ,v080
 .byte   N32 ,Dn1 ,v064
 .byte   N23 ,Fs1
 .byte   N92 ,An2 ,v080
 .byte   W24
 .byte   N23 ,Fs1 ,v064
 .byte   W12
 .byte   N32 ,Dn1
 .byte   W12
 .byte   N23 ,Fs1
 .byte   W24
 .byte   Dn1
 .byte   N23 ,Fs1
 .byte   W24
@ 081   ----------------------------------------
 .byte   N92 ,Bn0 ,v080
 .byte   N32 ,Dn1 ,v064
 .byte   N23 ,Fs1
 .byte   W24
 .byte   N23
 .byte   W12
 .byte   N32 ,Dn1
 .byte   W12
 .byte   N23 ,Fs1
 .byte   W24
 .byte   N05 ,Dn1
 .byte   N23 ,Fs1
 .byte   N02 ,An2
 .byte   W03
 .byte   N02
 .byte   W03
 .byte   N05 ,Dn1
 .byte   N02 ,An2
 .byte   W03
 .byte   N02
 .byte   W03
 .byte   N05 ,Dn1
 .byte   N02 ,An2
 .byte   W03
 .byte   N02
 .byte   W03
 .byte   N05 ,Dn1
 .byte   N02 ,An2
 .byte   W03
 .byte   N02
 .byte   W03
@ 082   ----------------------------------------
 .byte   GOTO
  .word Label_9_0128F1B6
 .byte   FINE

@**************** Track 11 (Midi-Chn.10) ****************@

song0E_011:
@ 000   ----------------------------------------
 .byte   KEYSH , song0E_key+0
Label_10_01290206:
 .byte   VOICE , 45
 .byte   VOL , 51*song0E_mvl/mxv
 .byte   PAN , c_v+0
 .byte   VOL , 51*song0E_mvl/mxv
 .byte   PAN , c_v+0
 .byte   VOL , 50*song0E_mvl/mxv
 .byte   PAN , c_v+18
 .byte   VOL , 51*song0E_mvl/mxv
 .byte   PAN , c_v+0
 .byte   VOL , 51*song0E_mvl/mxv
 .byte   PAN , c_v+0
 .byte   W48
 .byte   W96
@ 001   ----------------------------------------
 .byte   W96
@ 002   ----------------------------------------
 .byte   W96
@ 003   ----------------------------------------
 .byte   W96
@ 004   ----------------------------------------
 .byte   W96
@ 005   ----------------------------------------
 .byte   W96
@ 006   ----------------------------------------
 .byte   W96
@ 007   ----------------------------------------
 .byte   W96
@ 008   ----------------------------------------
 .byte   W96
@ 009   ----------------------------------------
 .byte   W96
@ 010   ----------------------------------------
 .byte   W96
@ 011   ----------------------------------------
 .byte   W96
@ 012   ----------------------------------------
 .byte   W96
@ 013   ----------------------------------------
 .byte   W96
@ 014   ----------------------------------------
 .byte   W96
@ 015   ----------------------------------------
 .byte   W96
@ 016   ----------------------------------------
 .byte   W96
@ 017   ----------------------------------------
 .byte   W96
@ 018   ----------------------------------------
 .byte   W96
@ 019   ----------------------------------------
 .byte   W96
@ 020   ----------------------------------------
 .byte   W96
@ 021   ----------------------------------------
 .byte   W96
@ 022   ----------------------------------------
 .byte   W96
@ 023   ----------------------------------------
 .byte   W96
@ 024   ----------------------------------------
 .byte   W96
@ 025   ----------------------------------------
 .byte   W96
@ 026   ----------------------------------------
 .byte   W96
@ 027   ----------------------------------------
 .byte   W96
@ 028   ----------------------------------------
 .byte   W96
@ 029   ----------------------------------------
 .byte   W96
@ 030   ----------------------------------------
 .byte   W96
@ 031   ----------------------------------------
 .byte   W96
@ 032   ----------------------------------------
 .byte   W96
@ 033   ----------------------------------------
 .byte   W96
@ 034   ----------------------------------------
 .byte   W96
@ 035   ----------------------------------------
 .byte   W96
@ 036   ----------------------------------------
 .byte   W96
@ 037   ----------------------------------------
 .byte   W96
@ 038   ----------------------------------------
 .byte   W96
@ 039   ----------------------------------------
 .byte   W96
@ 040   ----------------------------------------
 .byte   W96
@ 041   ----------------------------------------
 .byte   W96
@ 042   ----------------------------------------
 .byte   W96
@ 043   ----------------------------------------
 .byte   W96
@ 044   ----------------------------------------
 .byte   W96
@ 045   ----------------------------------------
 .byte   W96
@ 046   ----------------------------------------
 .byte   W96
@ 047   ----------------------------------------
 .byte   W96
@ 048   ----------------------------------------
 .byte   W96
@ 049   ----------------------------------------
 .byte   W96
@ 050   ----------------------------------------
 .byte   W96
@ 051   ----------------------------------------
 .byte   W96
@ 052   ----------------------------------------
 .byte   W96
@ 053   ----------------------------------------
 .byte   W96
@ 054   ----------------------------------------
 .byte   W96
@ 055   ----------------------------------------
 .byte   W96
@ 056   ----------------------------------------
 .byte   W96
@ 057   ----------------------------------------
 .byte   W96
@ 058   ----------------------------------------
 .byte   W96
@ 059   ----------------------------------------
 .byte   W96
@ 060   ----------------------------------------
 .byte   W96
@ 061   ----------------------------------------
 .byte   W96
@ 062   ----------------------------------------
 .byte   W96
@ 063   ----------------------------------------
 .byte   W96
@ 064   ----------------------------------------
 .byte   W96
@ 065   ----------------------------------------
 .byte   W96
@ 066   ----------------------------------------
 .byte   W96
@ 067   ----------------------------------------
 .byte   W96
@ 068   ----------------------------------------
 .byte   W96
@ 069   ----------------------------------------
 .byte   W96
@ 070   ----------------------------------------
 .byte   W96
@ 071   ----------------------------------------
 .byte   W96
@ 072   ----------------------------------------
 .byte   W96
@ 073   ----------------------------------------
 .byte   W96
@ 074   ----------------------------------------
 .byte   W96
@ 075   ----------------------------------------
 .byte   W96
@ 076   ----------------------------------------
 .byte   W96
@ 077   ----------------------------------------
 .byte   W96
@ 078   ----------------------------------------
 .byte   W96
@ 079   ----------------------------------------
 .byte   W96
@ 080   ----------------------------------------
 .byte   W96
@ 081   ----------------------------------------
 .byte   W96
@ 082   ----------------------------------------
 .byte   W96
@ 083   ----------------------------------------
 .byte   W96
@ 084   ----------------------------------------
 .byte   W96
@ 085   ----------------------------------------
 .byte   W96
@ 086   ----------------------------------------
 .byte   W96
@ 087   ----------------------------------------
 .byte   W96
@ 088   ----------------------------------------
 .byte   W96
@ 089   ----------------------------------------
 .byte   W96
@ 090   ----------------------------------------
 .byte   W96
@ 091   ----------------------------------------
 .byte   W96
@ 092   ----------------------------------------
 .byte   W96
@ 093   ----------------------------------------
 .byte   W96
@ 094   ----------------------------------------
 .byte   W96
@ 095   ----------------------------------------
 .byte   W96
@ 096   ----------------------------------------
 .byte   N32 ,Dn2 ,v080
 .byte   W36
 .byte   En2
 .byte   W36
 .byte   N68 ,Cn3
 .byte   W24
@ 097   ----------------------------------------
 .byte   W48
 .byte   N44 ,Bn2
 .byte   W48
@ 098   ----------------------------------------
Label_10_0129028A:
 .byte   N11 ,Gn2 ,v080
 .byte   W12
 .byte   Bn2
 .byte   W12
 .byte   Dn3
 .byte   W12
 .byte   Bn2
 .byte   W12
 .byte   Gn2
 .byte   W12
 .byte   Bn2
 .byte   W12
 .byte   Dn3
 .byte   W12
 .byte   Bn2
 .byte   W12
 .byte   PEND 
 .byte   PATT
  .word Label_10_0129028A
@ 099   ----------------------------------------
 .byte   N32 ,Dn2 ,v080
 .byte   W36
 .byte   En2
 .byte   W36
 .byte   TIE ,Bn2
 .byte   W24
@ 100   ----------------------------------------
 .byte   W92
 .byte   W03
 .byte   EOT
 .byte   W01
@ 101   ----------------------------------------
 .byte   N11 ,Dn3
 .byte   W12
 .byte   En2
 .byte   W12
 .byte   Gn2
 .byte   W12
 .byte   En2
 .byte   W12
 .byte   Gn2
 .byte   W12
 .byte   Bn2
 .byte   W12
 .byte   Dn3
 .byte   W12
 .byte   Bn2
 .byte   W12
 .byte   PATT
  .word Label_10_0129028A
@ 102   ----------------------------------------
 .byte   N11 ,Fn2 ,v064
 .byte   W12
 .byte   N11
 .byte   W12
 .byte   N11
 .byte   W12
 .byte   Gn2
 .byte   W12
 .byte   N11
 .byte   W12
 .byte   N11
 .byte   W12
 .byte   N11
 .byte   W12
 .byte   N11
 .byte   W12
@ 103   ----------------------------------------
Label_10_012902D7:
 .byte   N11 ,Gn2 ,v064
 .byte   W12
 .byte   N11
 .byte   W12
 .byte   N11
 .byte   W12
 .byte   Dn2
 .byte   W12
 .byte   N11
 .byte   W12
 .byte   N11
 .byte   W12
 .byte   En2
 .byte   W24
 .byte   PEND 
 .byte   PATT
  .word Label_10_012902D7
@ 104   ----------------------------------------
 .byte   N11 ,Gn2 ,v064
 .byte   W12
 .byte   N11
 .byte   W12
 .byte   N11
 .byte   W12
 .byte   N11
 .byte   W12
 .byte   N11
 .byte   W12
 .byte   N11
 .byte   W12
 .byte   N11
 .byte   W12
 .byte   N11
 .byte   W12
@ 105   ----------------------------------------
 .byte   An2
 .byte   W12
 .byte   N11
 .byte   W12
 .byte   N11
 .byte   W12
 .byte   N11
 .byte   W12
 .byte   N11
 .byte   W12
 .byte   N11
 .byte   W12
 .byte   Bn2
 .byte   W12
 .byte   N11
 .byte   W12
@ 106   ----------------------------------------
 .byte   N11
 .byte   W12
 .byte   N11
 .byte   W12
 .byte   N11
 .byte   W12
 .byte   N11
 .byte   W12
 .byte   N11
 .byte   W12
 .byte   N11
 .byte   W12
 .byte   N11
 .byte   W12
 .byte   N11
 .byte   W12
@ 107   ----------------------------------------
 .byte   Gs2
 .byte   W12
 .byte   N11
 .byte   W12
 .byte   N11
 .byte   W12
 .byte   N11
 .byte   W12
 .byte   N11
 .byte   W12
 .byte   N11
 .byte   W12
 .byte   N11
 .byte   W12
 .byte   N11
 .byte   W12
@ 108   ----------------------------------------
 .byte   W48
 .byte   N44 ,En2 ,v016
 .byte   W01
 .byte   W01
 .byte   W01
 .byte   W01
 .byte   W01
 .byte   W01
 .byte   W01
 .byte   W01
 .byte   W01
 .byte   W01
 .byte   W01
 .byte   W01
 .byte   W01
 .byte   W01
 .byte   W01
 .byte   W01
 .byte   W01
 .byte   W01
 .byte   W01
 .byte   W01
 .byte   W01
 .byte   W01
 .byte   W01
 .byte   W01
 .byte   W01
 .byte   W01
 .byte   W01
 .byte   W01
 .byte   W01
 .byte   W01
 .byte   W01
 .byte   W01
 .byte   W01
 .byte   W01
 .byte   W01
 .byte   W01
 .byte   W01
 .byte   W01
 .byte   W01
 .byte   W01
 .byte   W01
 .byte   W01
 .byte   W01
 .byte   W01
 .byte   W01
 .byte   W01
 .byte   W01
 .byte   W01
@ 109   ----------------------------------------
 .byte   N32 ,Fn2 ,v080
 .byte   W36
 .byte   N23
 .byte   W24
 .byte   N32 ,En2
 .byte   W36
@ 110   ----------------------------------------
 .byte   N92 ,Gn2
 .byte   W96
@ 111   ----------------------------------------
 .byte   An2
 .byte   W96
@ 112   ----------------------------------------
 .byte   En2
 .byte   W96
@ 113   ----------------------------------------
 .byte   Dn2
 .byte   W96
@ 114   ----------------------------------------
 .byte   N44 ,En2
 .byte   W48
 .byte   Gs2
 .byte   W48
@ 115   ----------------------------------------
 .byte   N92 ,An2
 .byte   W96
@ 116   ----------------------------------------
 .byte   N32 ,Gn2
 .byte   W36
 .byte   N32
 .byte   W36
 .byte   N23 ,Fs2
 .byte   W24
@ 117   ----------------------------------------
 .byte   N32 ,Fn2
 .byte   W36
 .byte   N23
 .byte   W24
 .byte   N32
 .byte   W36
@ 118   ----------------------------------------
 .byte   N92 ,Gn2
 .byte   W96
@ 119   ----------------------------------------
 .byte   En2
 .byte   W96
@ 120   ----------------------------------------
 .byte   N44 ,An2
 .byte   W48
 .byte   N23 ,Bn2
 .byte   W24
 .byte   N11 ,An2
 .byte   W12
 .byte   Gn2
 .byte   W12
@ 121   ----------------------------------------
 .byte   N92 ,Dn2
 .byte   W96
@ 122   ----------------------------------------
 .byte   En2
 .byte   W96
@ 123   ----------------------------------------
 .byte   TIE ,An2
 .byte   W96
@ 124   ----------------------------------------
 .byte   W92
 .byte   W03
 .byte   EOT
 .byte   W01
@ 125   ----------------------------------------
 .byte   N44
 .byte   W48
 .byte   En2
 .byte   W48
@ 126   ----------------------------------------
 .byte   N32 ,Cn3
 .byte   W36
 .byte   Dn3
 .byte   W36
 .byte   N23 ,Dn2
 .byte   W24
@ 127   ----------------------------------------
 .byte   N44 ,Cn2
 .byte   W48
 .byte   Bn1
 .byte   W48
@ 128   ----------------------------------------
 .byte   N92 ,Gn2
 .byte   W96
@ 129   ----------------------------------------
 .byte   Fn2
 .byte   W96
@ 130   ----------------------------------------
 .byte   N44 ,Bn2
 .byte   W48
 .byte   Gs2
 .byte   W48
@ 131   ----------------------------------------
 .byte   N92 ,An2
 .byte   W96
@ 132   ----------------------------------------
 .byte   Gn2
 .byte   W96
@ 133   ----------------------------------------
 .byte   W96
@ 134   ----------------------------------------
 .byte   W96
@ 135   ----------------------------------------
 .byte   W96
@ 136   ----------------------------------------
 .byte   W96
@ 137   ----------------------------------------
 .byte   W96
@ 138   ----------------------------------------
 .byte   W96
@ 139   ----------------------------------------
 .byte   W96
@ 140   ----------------------------------------
 .byte   W96
@ 141   ----------------------------------------
 .byte   W96
@ 142   ----------------------------------------
 .byte   W96
@ 143   ----------------------------------------
 .byte   W96
@ 144   ----------------------------------------
 .byte   W96
@ 145   ----------------------------------------
 .byte   W96
@ 146   ----------------------------------------
 .byte   W96
@ 147   ----------------------------------------
 .byte   W96
@ 148   ----------------------------------------
 .byte   W96
@ 149   ----------------------------------------
 .byte   W96
@ 150   ----------------------------------------
 .byte   W96
@ 151   ----------------------------------------
 .byte   W96
@ 152   ----------------------------------------
 .byte   W96
@ 153   ----------------------------------------
 .byte   W96
@ 154   ----------------------------------------
 .byte   W96
@ 155   ----------------------------------------
 .byte   W96
@ 156   ----------------------------------------
 .byte   W96
@ 157   ----------------------------------------
 .byte   W96
@ 158   ----------------------------------------
 .byte   W96
@ 159   ----------------------------------------
 .byte   W96
@ 160   ----------------------------------------
 .byte   W96
@ 161   ----------------------------------------
 .byte   W96
@ 162   ----------------------------------------
 .byte   W96
@ 163   ----------------------------------------
 .byte   W96
@ 164   ----------------------------------------
 .byte   W96
@ 165   ----------------------------------------
 .byte   W96
@ 166   ----------------------------------------
 .byte   W96
@ 167   ----------------------------------------
 .byte   W96
@ 168   ----------------------------------------
 .byte   W96
@ 169   ----------------------------------------
 .byte   W96
@ 170   ----------------------------------------
 .byte   W96
@ 171   ----------------------------------------
 .byte   W96
@ 172   ----------------------------------------
 .byte   W96
@ 173   ----------------------------------------
 .byte   W96
@ 174   ----------------------------------------
 .byte   W96
@ 175   ----------------------------------------
 .byte   W96
@ 176   ----------------------------------------
 .byte   W96
@ 177   ----------------------------------------
 .byte   W96
@ 178   ----------------------------------------
 .byte   W96
@ 179   ----------------------------------------
 .byte   W96
@ 180   ----------------------------------------
 .byte   W96
@ 181   ----------------------------------------
 .byte   W96
@ 182   ----------------------------------------
 .byte   W96
@ 183   ----------------------------------------
 .byte   W96
@ 184   ----------------------------------------
 .byte   W96
@ 185   ----------------------------------------
 .byte   GOTO
  .word Label_10_01290206
 .byte   FINE

@**************** Track 12 (Midi-Chn.11) ****************@

song0E_012:
@ 000   ----------------------------------------
 .byte   KEYSH , song0E_key+0
Label_11_01290406:
 .byte   VOICE , 116
 .byte   VOL , 51*song0E_mvl/mxv
 .byte   PAN , c_v+0
 .byte   VOL , 51*song0E_mvl/mxv
 .byte   PAN , c_v+0
 .byte   VOL , 51*song0E_mvl/mxv
 .byte   PAN , c_v+0
 .byte   VOL , 51*song0E_mvl/mxv
 .byte   PAN , c_v+0
 .byte   VOL , 51*song0E_mvl/mxv
 .byte   PAN , c_v+0
 .byte   W48
 .byte   W96
@ 001   ----------------------------------------
 .byte   W96
@ 002   ----------------------------------------
 .byte   W96
@ 003   ----------------------------------------
 .byte   W96
@ 004   ----------------------------------------
 .byte   W96
@ 005   ----------------------------------------
 .byte   W96
@ 006   ----------------------------------------
 .byte   W96
@ 007   ----------------------------------------
 .byte   W96
@ 008   ----------------------------------------
 .byte   W96
@ 009   ----------------------------------------
 .byte   W96
@ 010   ----------------------------------------
 .byte   W96
@ 011   ----------------------------------------
 .byte   W96
@ 012   ----------------------------------------
 .byte   W96
@ 013   ----------------------------------------
 .byte   W96
@ 014   ----------------------------------------
 .byte   W96
@ 015   ----------------------------------------
 .byte   W96
@ 016   ----------------------------------------
Label_11_0129042D:
 .byte   N92 ,Cn3 ,v036
 .byte   W06
 .byte   W03
 .byte   W03
 .byte   W03
 .byte   W03
 .byte   W03
 .byte   W03
 .byte   W03
 .byte   W03
 .byte   W03
 .byte   W03
 .byte   W03
 .byte   W03
 .byte   W03
 .byte   W03
 .byte   W03
 .byte   W03
 .byte   W03
 .byte   W04
 .byte   W03
 .byte   W03
 .byte   W03
 .byte   W03
 .byte   W03
 .byte   W03
 .byte   W03
 .byte   W03
 .byte   W03
 .byte   W03
 .byte   W03
 .byte   W02
 .byte   PEND 
@ 017   ----------------------------------------
 .byte   Cn3 ,v064
 .byte   W96
@ 018   ----------------------------------------
Label_11_01290453:
 .byte   TIE ,Cn3 ,v064
 .byte   W09
 .byte   W04
 .byte   W05
 .byte   W05
 .byte   W04
 .byte   W05
 .byte   W04
 .byte   W05
 .byte   W05
 .byte   W04
 .byte   W05
 .byte   W04
 .byte   W05
 .byte   W05
 .byte   W04
 .byte   W05
 .byte   W04
 .byte   W05
 .byte   W05
 .byte   W04
 .byte   PEND 
@ 019   ----------------------------------------
Label_11_0129046B:
 .byte   W05
 .byte   W04
 .byte   W05
 .byte   W05
 .byte   W04
 .byte   W05
 .byte   W04
 .byte   W05
 .byte   W05
 .byte   W04
 .byte   W01
 .byte   PEND 
 .byte   EOT
 .byte   Cn3
 .byte   W48
 .byte   W01
@ 020   ----------------------------------------
Label_11_0129047B:
 .byte   N92 ,An2 ,v036
 .byte   W06
 .byte   W03
 .byte   W03
 .byte   W03
 .byte   W03
 .byte   W03
 .byte   W03
 .byte   W03
 .byte   W03
 .byte   W03
 .byte   W03
 .byte   W03
 .byte   W03
 .byte   W03
 .byte   W03
 .byte   W03
 .byte   W03
 .byte   W03
 .byte   W04
 .byte   W03
 .byte   W03
 .byte   W03
 .byte   W03
 .byte   W03
 .byte   W03
 .byte   W03
 .byte   W03
 .byte   W03
 .byte   W03
 .byte   W03
 .byte   W02
 .byte   PEND 
@ 021   ----------------------------------------
 .byte   Bn2 ,v064
 .byte   W96
@ 022   ----------------------------------------
 .byte   TIE
 .byte   W09
 .byte   W04
 .byte   W05
 .byte   W05
 .byte   W04
 .byte   W05
 .byte   W04
 .byte   W05
 .byte   W05
 .byte   W04
 .byte   W05
 .byte   W04
 .byte   W05
 .byte   W05
 .byte   W04
 .byte   W05
 .byte   W04
 .byte   W05
 .byte   W05
 .byte   W04
 .byte   PATT
  .word Label_11_0129046B
@ 023   ----------------------------------------
 .byte   EOT
 .byte   Bn2
 .byte   W48
 .byte   W01
 .byte   PATT
  .word Label_11_0129042D
@ 024   ----------------------------------------
 .byte   N92 ,Cn3 ,v064
 .byte   W96
 .byte   PATT
  .word Label_11_01290453
 .byte   PATT
  .word Label_11_0129046B
@ 025   ----------------------------------------
 .byte   EOT
 .byte   Cn3
 .byte   W48
 .byte   W01
 .byte   PATT
  .word Label_11_0129047B
@ 026   ----------------------------------------
 .byte   N92 ,Bn2 ,v064
 .byte   W96
@ 027   ----------------------------------------
 .byte   TIE
 .byte   W09
 .byte   W10
 .byte   W09
 .byte   W10
 .byte   W10
 .byte   W09
 .byte   W10
 .byte   W09
 .byte   W10
 .byte   W10
@ 028   ----------------------------------------
 .byte   W09
 .byte   W10
 .byte   W09
 .byte   W10
 .byte   W09
 .byte   EOT
 .byte   W48
 .byte   W01
@ 029   ----------------------------------------
Label_11_012904F2:
 .byte   W24
 .byte   N11 ,En3 ,v080
 .byte   W36
 .byte   N11
 .byte   W36
 .byte   PEND 
@ 030   ----------------------------------------
 .byte   W24
 .byte   N11
 .byte   W72
@ 031   ----------------------------------------
Label_11_012904FD:
 .byte   W24
 .byte   N11 ,Cn3 ,v080
 .byte   W36
 .byte   N11
 .byte   W36
 .byte   PEND 
@ 032   ----------------------------------------
 .byte   W24
 .byte   N11
 .byte   W24
 .byte   Bn2
 .byte   W24
 .byte   An2
 .byte   W24
 .byte   PATT
  .word Label_11_012904FD
@ 033   ----------------------------------------
 .byte   W24
 .byte   N11 ,Cn3 ,v080
 .byte   W24
 .byte   Dn3
 .byte   W24
 .byte   N11
 .byte   W24
@ 034   ----------------------------------------
 .byte   W24
 .byte   N11
 .byte   W36
 .byte   N11
 .byte   W36
@ 035   ----------------------------------------
 .byte   W24
 .byte   N11
 .byte   W24
 .byte   N11
 .byte   W24
 .byte   N11
 .byte   W24
 .byte   PATT
  .word Label_11_012904F2
@ 036   ----------------------------------------
Label_11_0129052B:
 .byte   W24
 .byte   N11 ,En3 ,v080
 .byte   W24
 .byte   N11
 .byte   W24
 .byte   N11
 .byte   W24
 .byte   PEND 
 .byte   PATT
  .word Label_11_012904F2
 .byte   PATT
  .word Label_11_0129052B
 .byte   PATT
  .word Label_11_012904FD
@ 037   ----------------------------------------
 .byte   W24
 .byte   N11 ,Cn3 ,v080
 .byte   W24
 .byte   N11
 .byte   W24
 .byte   N11
 .byte   W24
@ 038   ----------------------------------------
 .byte   N92
 .byte   W96
@ 039   ----------------------------------------
 .byte   W96
@ 040   ----------------------------------------
 .byte   N11 ,Gn3
 .byte   W12
 .byte   Cn3
 .byte   W12
 .byte   An2
 .byte   W12
 .byte   Cn3
 .byte   W12
 .byte   Gn3
 .byte   W12
 .byte   Cn3
 .byte   W12
 .byte   An2
 .byte   W12
 .byte   Cn3
 .byte   W12
@ 041   ----------------------------------------
 .byte   Fn3
 .byte   W12
 .byte   Cn3
 .byte   W12
 .byte   An2
 .byte   W12
 .byte   Cn3
 .byte   W12
 .byte   Fn3
 .byte   W12
 .byte   Cn3
 .byte   W12
 .byte   An2
 .byte   W12
 .byte   Cn3
 .byte   W12
@ 042   ----------------------------------------
Label_11_01290571:
 .byte   N11 ,Dn3 ,v080
 .byte   W12
 .byte   Gn2
 .byte   W12
 .byte   Bn2
 .byte   W12
 .byte   Gn2
 .byte   W12
 .byte   Dn3
 .byte   W12
 .byte   Gn2
 .byte   W12
 .byte   Bn2
 .byte   W12
 .byte   Gn2
 .byte   W12
 .byte   PEND 
 .byte   PATT
  .word Label_11_01290571
@ 043   ----------------------------------------
Label_11_01290589:
 .byte   N11 ,Gn3 ,v080
 .byte   W12
 .byte   Cn3
 .byte   W12
 .byte   Bn2
 .byte   W12
 .byte   Cn3
 .byte   W12
 .byte   Gn3
 .byte   W12
 .byte   Cn3
 .byte   W12
 .byte   Bn2
 .byte   W12
 .byte   Cn3
 .byte   W12
 .byte   PEND 
@ 044   ----------------------------------------
 .byte   Fn3
 .byte   W12
 .byte   Cn3
 .byte   W12
 .byte   Bn2
 .byte   W12
 .byte   Cn3
 .byte   W12
 .byte   Fn3
 .byte   W12
 .byte   Cn3
 .byte   W12
 .byte   Bn2
 .byte   W12
 .byte   Cn3
 .byte   W12
@ 045   ----------------------------------------
 .byte   Bn3
 .byte   W12
 .byte   Gn3
 .byte   W12
 .byte   Dn3
 .byte   W12
 .byte   Gn3
 .byte   W12
 .byte   Bn3
 .byte   W12
 .byte   Gn3
 .byte   W12
 .byte   Dn3
 .byte   W12
 .byte   Gn3
 .byte   W12
@ 046   ----------------------------------------
 .byte   Cn4
 .byte   W12
 .byte   Gn3
 .byte   W12
 .byte   Dn3
 .byte   W12
 .byte   Gn3
 .byte   W12
 .byte   Cn4
 .byte   W12
 .byte   Gn3
 .byte   W12
 .byte   Dn3
 .byte   W12
 .byte   Gn3
 .byte   W12
@ 047   ----------------------------------------
Label_11_012905CC:
 .byte   N11 ,Dn4 ,v080
 .byte   W12
 .byte   En4
 .byte   W12
 .byte   Bn3
 .byte   W12
 .byte   An3
 .byte   W12
 .byte   Gn3
 .byte   W12
 .byte   En3
 .byte   W12
 .byte   Cn3
 .byte   W12
 .byte   Gn2
 .byte   W12
 .byte   PEND 
 .byte   PATT
  .word Label_11_012905CC
 .byte   PATT
  .word Label_11_012905CC
 .byte   PATT
  .word Label_11_012905CC
@ 048   ----------------------------------------
 .byte   N11 ,An3 ,v080
 .byte   W12
 .byte   Cn3
 .byte   W12
 .byte   En3
 .byte   W12
 .byte   Cn3
 .byte   W12
 .byte   An3
 .byte   W12
 .byte   Cn3
 .byte   W12
 .byte   En3
 .byte   W12
 .byte   Cn3
 .byte   W12
@ 049   ----------------------------------------
 .byte   Gs3
 .byte   W12
 .byte   Bn2
 .byte   W12
 .byte   Dn3
 .byte   W12
 .byte   Bn2
 .byte   W12
 .byte   Gs3
 .byte   W12
 .byte   Bn2
 .byte   W12
 .byte   Dn3
 .byte   W12
 .byte   Bn2
 .byte   W12
@ 050   ----------------------------------------
 .byte   Bn3
 .byte   W12
 .byte   Dn3
 .byte   W12
 .byte   En3
 .byte   W12
 .byte   Dn3
 .byte   W12
 .byte   An3
 .byte   W12
 .byte   Dn3
 .byte   W12
 .byte   En3
 .byte   W12
 .byte   Dn3
 .byte   W12
 .byte   PATT
  .word Label_11_01290589
@ 051   ----------------------------------------
 .byte   W96
@ 052   ----------------------------------------
 .byte   W96
@ 053   ----------------------------------------
 .byte   W96
@ 054   ----------------------------------------
 .byte   W96
@ 055   ----------------------------------------
 .byte   W96
@ 056   ----------------------------------------
 .byte   W96
@ 057   ----------------------------------------
 .byte   W96
@ 058   ----------------------------------------
 .byte   W96
@ 059   ----------------------------------------
 .byte   W96
@ 060   ----------------------------------------
 .byte   W96
@ 061   ----------------------------------------
 .byte   W96
@ 062   ----------------------------------------
 .byte   W96
@ 063   ----------------------------------------
 .byte   W96
@ 064   ----------------------------------------
 .byte   W96
@ 065   ----------------------------------------
 .byte   W96
@ 066   ----------------------------------------
 .byte   N92 ,En1 ,v080
 .byte   W96
@ 067   ----------------------------------------
 .byte   W96
@ 068   ----------------------------------------
 .byte   W96
@ 069   ----------------------------------------
 .byte   W96
@ 070   ----------------------------------------
 .byte   W96
@ 071   ----------------------------------------
 .byte   W96
@ 072   ----------------------------------------
 .byte   W96
@ 073   ----------------------------------------
 .byte   W96
@ 074   ----------------------------------------
 .byte   W96
@ 075   ----------------------------------------
 .byte   W96
@ 076   ----------------------------------------
 .byte   W96
@ 077   ----------------------------------------
 .byte   W96
@ 078   ----------------------------------------
 .byte   W96
@ 079   ----------------------------------------
 .byte   W96
@ 080   ----------------------------------------
 .byte   W96
@ 081   ----------------------------------------
 .byte   W96
@ 082   ----------------------------------------
 .byte   W96
@ 083   ----------------------------------------
 .byte   W96
@ 084   ----------------------------------------
 .byte   W96
@ 085   ----------------------------------------
 .byte   W96
@ 086   ----------------------------------------
 .byte   W96
@ 087   ----------------------------------------
 .byte   W96
@ 088   ----------------------------------------
 .byte   W96
@ 089   ----------------------------------------
 .byte   W96
@ 090   ----------------------------------------
 .byte   W96
@ 091   ----------------------------------------
 .byte   W96
@ 092   ----------------------------------------
 .byte   W96
@ 093   ----------------------------------------
 .byte   W96
@ 094   ----------------------------------------
 .byte   W96
@ 095   ----------------------------------------
 .byte   W96
@ 096   ----------------------------------------
 .byte   W96
@ 097   ----------------------------------------
 .byte   W96
@ 098   ----------------------------------------
 .byte   W96
@ 099   ----------------------------------------
 .byte   W96
@ 100   ----------------------------------------
 .byte   W96
@ 101   ----------------------------------------
 .byte   W96
@ 102   ----------------------------------------
 .byte   W96
@ 103   ----------------------------------------
 .byte   W96
@ 104   ----------------------------------------
 .byte   W96
@ 105   ----------------------------------------
 .byte   W96
@ 106   ----------------------------------------
 .byte   W96
@ 107   ----------------------------------------
 .byte   W96
@ 108   ----------------------------------------
 .byte   W96
@ 109   ----------------------------------------
 .byte   W96
@ 110   ----------------------------------------
 .byte   W96
@ 111   ----------------------------------------
 .byte   W96
@ 112   ----------------------------------------
 .byte   W96
@ 113   ----------------------------------------
 .byte   W96
@ 114   ----------------------------------------
 .byte   W96
@ 115   ----------------------------------------
 .byte   W96
@ 116   ----------------------------------------
 .byte   W96
@ 117   ----------------------------------------
 .byte   W96
@ 118   ----------------------------------------
 .byte   W96
@ 119   ----------------------------------------
 .byte   W96
@ 120   ----------------------------------------
 .byte   W96
@ 121   ----------------------------------------
 .byte   W96
@ 122   ----------------------------------------
 .byte   W96
@ 123   ----------------------------------------
Label_11_01290670:
 .byte   W12
 .byte   N11 ,Bn2 ,v080
 .byte   W24
 .byte   N11
 .byte   W24
 .byte   N11
 .byte   W24
 .byte   N11
 .byte   W12
 .byte   PEND 
 .byte   PATT
  .word Label_11_01290670
 .byte   PATT
  .word Label_11_01290670
 .byte   PATT
  .word Label_11_01290670
 .byte   PATT
  .word Label_11_01290670
 .byte   PATT
  .word Label_11_01290670
@ 124   ----------------------------------------
 .byte   W96
@ 125   ----------------------------------------
 .byte   W96
@ 126   ----------------------------------------
 .byte   W96
@ 127   ----------------------------------------
Label_11_01290698:
 .byte   N32 ,Cs3 ,v096
 .byte   W36
 .byte   Ds3
 .byte   W36
 .byte   N23 ,Cn3
 .byte   W24
 .byte   PEND 
@ 128   ----------------------------------------
 .byte   N92 ,Cs3
 .byte   W96
 .byte   PATT
  .word Label_11_01290698
@ 129   ----------------------------------------
 .byte   N92 ,Gs2 ,v096
 .byte   W96
 .byte   PATT
  .word Label_11_01290698
@ 130   ----------------------------------------
 .byte   N44 ,Cs3 ,v096
 .byte   W48
 .byte   Gs3
 .byte   W48
@ 131   ----------------------------------------
 .byte   N23
 .byte   W24
 .byte   Fs3
 .byte   W24
 .byte   Fn3
 .byte   W24
 .byte   N11 ,Ds3
 .byte   W12
 .byte   TIE ,Fn3
 .byte   W12
@ 132   ----------------------------------------
 .byte   W92
 .byte   W03
 .byte   EOT
 .byte   W01
 .byte   PATT
  .word Label_11_01290698
@ 133   ----------------------------------------
 .byte   N92 ,Cs3 ,v096
 .byte   W96
 .byte   PATT
  .word Label_11_01290698
@ 134   ----------------------------------------
 .byte   N44 ,Gs2 ,v096
 .byte   W48
 .byte   Gs3
 .byte   W48
@ 135   ----------------------------------------
 .byte   N23
 .byte   W24
 .byte   Fs3
 .byte   W24
 .byte   Fn3
 .byte   W24
 .byte   Ds3
 .byte   W24
@ 136   ----------------------------------------
 .byte   N44 ,Cs3
 .byte   W48
 .byte   Fn3
 .byte   W48
@ 137   ----------------------------------------
 .byte   Ds3
 .byte   W48
 .byte   TIE ,Cs3
 .byte   W48
@ 138   ----------------------------------------
 .byte   W92
 .byte   W03
 .byte   EOT
 .byte   W01
@ 139   ----------------------------------------
 .byte   W96
@ 140   ----------------------------------------
 .byte   W96
@ 141   ----------------------------------------
 .byte   W96
@ 142   ----------------------------------------
 .byte   W96
@ 143   ----------------------------------------
 .byte   W96
@ 144   ----------------------------------------
 .byte   W96
@ 145   ----------------------------------------
 .byte   W96
@ 146   ----------------------------------------
 .byte   W96
@ 147   ----------------------------------------
 .byte   W96
@ 148   ----------------------------------------
 .byte   W96
@ 149   ----------------------------------------
 .byte   W96
@ 150   ----------------------------------------
 .byte   W96
@ 151   ----------------------------------------
 .byte   W96
@ 152   ----------------------------------------
 .byte   W96
@ 153   ----------------------------------------
 .byte   W96
@ 154   ----------------------------------------
 .byte   W96
@ 155   ----------------------------------------
 .byte   W96
@ 156   ----------------------------------------
 .byte   W96
@ 157   ----------------------------------------
 .byte   W96
@ 158   ----------------------------------------
 .byte   W96
@ 159   ----------------------------------------
 .byte   W96
@ 160   ----------------------------------------
 .byte   W96
@ 161   ----------------------------------------
 .byte   W96
@ 162   ----------------------------------------
 .byte   W96
@ 163   ----------------------------------------
 .byte   W96
@ 164   ----------------------------------------
 .byte   W96
@ 165   ----------------------------------------
 .byte   W96
@ 166   ----------------------------------------
 .byte   GOTO
  .word Label_11_01290406
 .byte   FINE

@**************** Track 13 (Midi-Chn.12) ****************@

song0E_013:
@ 000   ----------------------------------------
 .byte   KEYSH , song0E_key+0
Label_12_01290716:
 .byte   VOICE , 110
 .byte   VOL , 51*song0E_mvl/mxv
 .byte   PAN , c_v+0
 .byte   VOL , 51*song0E_mvl/mxv
 .byte   PAN , c_v+0
 .byte   VOL , 51*song0E_mvl/mxv
 .byte   PAN , c_v+0
 .byte   VOL , 51*song0E_mvl/mxv
 .byte   PAN , c_v+0
 .byte   VOL , 51*song0E_mvl/mxv
 .byte   PAN , c_v+0
 .byte   W48
 .byte   TIE ,An1 ,v064
 .byte   W96
@ 001   ----------------------------------------
 .byte   W92
 .byte   W03
 .byte   EOT
 .byte   W01
@ 002   ----------------------------------------
 .byte   TIE ,Fn1
 .byte   W96
@ 003   ----------------------------------------
 .byte   W92
 .byte   W03
 .byte   EOT
 .byte   W01
@ 004   ----------------------------------------
 .byte   N92 ,Dn1
 .byte   W96
@ 005   ----------------------------------------
 .byte   En1
 .byte   W96
@ 006   ----------------------------------------
 .byte   Fn1
 .byte   W96
@ 007   ----------------------------------------
 .byte   Gn1
 .byte   W96
@ 008   ----------------------------------------
 .byte   W96
@ 009   ----------------------------------------
 .byte   W96
@ 010   ----------------------------------------
 .byte   W96
@ 011   ----------------------------------------
 .byte   W96
@ 012   ----------------------------------------
 .byte   W96
@ 013   ----------------------------------------
 .byte   W96
@ 014   ----------------------------------------
 .byte   W96
@ 015   ----------------------------------------
 .byte   W96
@ 016   ----------------------------------------
 .byte   W96
@ 017   ----------------------------------------
 .byte   W96
@ 018   ----------------------------------------
 .byte   W96
@ 019   ----------------------------------------
 .byte   W96
@ 020   ----------------------------------------
 .byte   W96
@ 021   ----------------------------------------
 .byte   W96
@ 022   ----------------------------------------
 .byte   W96
@ 023   ----------------------------------------
 .byte   W96
@ 024   ----------------------------------------
 .byte   W96
@ 025   ----------------------------------------
 .byte   W96
@ 026   ----------------------------------------
 .byte   W96
@ 027   ----------------------------------------
 .byte   W96
@ 028   ----------------------------------------
 .byte   W96
@ 029   ----------------------------------------
 .byte   W96
@ 030   ----------------------------------------
 .byte   W96
@ 031   ----------------------------------------
 .byte   W96
@ 032   ----------------------------------------
 .byte   W96
@ 033   ----------------------------------------
 .byte   W96
@ 034   ----------------------------------------
 .byte   W96
@ 035   ----------------------------------------
 .byte   W96
@ 036   ----------------------------------------
 .byte   W96
@ 037   ----------------------------------------
 .byte   W96
@ 038   ----------------------------------------
 .byte   W96
@ 039   ----------------------------------------
 .byte   W96
@ 040   ----------------------------------------
 .byte   W96
@ 041   ----------------------------------------
 .byte   W96
@ 042   ----------------------------------------
 .byte   W96
@ 043   ----------------------------------------
 .byte   W96
@ 044   ----------------------------------------
 .byte   W96
@ 045   ----------------------------------------
 .byte   W96
@ 046   ----------------------------------------
 .byte   W96
@ 047   ----------------------------------------
 .byte   W96
@ 048   ----------------------------------------
Label_12_0129076D:
 .byte   N11 ,An2 ,v080
 .byte   W12
 .byte   Fn2
 .byte   W24
 .byte   An2
 .byte   W12
 .byte   N11
 .byte   W12
 .byte   Fn2
 .byte   W24
 .byte   An2
 .byte   W12
 .byte   PEND 
 .byte   PATT
  .word Label_12_0129076D
@ 049   ----------------------------------------
Label_12_01290781:
 .byte   N11 ,Bn2 ,v080
 .byte   W12
 .byte   Gn2
 .byte   W24
 .byte   Bn2
 .byte   W12
 .byte   N11
 .byte   W12
 .byte   Gn2
 .byte   W24
 .byte   Bn2
 .byte   W12
 .byte   PEND 
 .byte   PATT
  .word Label_12_01290781
@ 050   ----------------------------------------
Label_12_01290795:
 .byte   N11 ,Cn3 ,v080
 .byte   W12
 .byte   Bn2
 .byte   W24
 .byte   Cn3
 .byte   W12
 .byte   N11
 .byte   W12
 .byte   Bn2
 .byte   W24
 .byte   Cn3
 .byte   W12
 .byte   PEND 
 .byte   PATT
  .word Label_12_01290795
@ 051   ----------------------------------------
 .byte   N11 ,Gn3 ,v080
 .byte   W12
 .byte   Gn2
 .byte   W12
 .byte   Dn3
 .byte   W12
 .byte   Gn2
 .byte   W12
 .byte   Gn3
 .byte   W12
 .byte   Gn2
 .byte   W12
 .byte   Dn3
 .byte   W12
 .byte   Gn2
 .byte   W12
@ 052   ----------------------------------------
 .byte   N44 ,Gn3
 .byte   W48
 .byte   N23 ,Fn3
 .byte   W24
 .byte   En3
 .byte   W24
@ 053   ----------------------------------------
 .byte   N11 ,Dn3
 .byte   W12
 .byte   N11
 .byte   W24
 .byte   N11
 .byte   W12
 .byte   N11
 .byte   W12
 .byte   N11
 .byte   W24
 .byte   N11
 .byte   W12
@ 054   ----------------------------------------
 .byte   En3
 .byte   W12
 .byte   N11
 .byte   W24
 .byte   N11
 .byte   W12
 .byte   N11
 .byte   W12
 .byte   N11
 .byte   W24
 .byte   N11
 .byte   W12
@ 055   ----------------------------------------
 .byte   Dn2
 .byte   W12
 .byte   Gn2
 .byte   W12
 .byte   Bn2
 .byte   W12
 .byte   Gn2
 .byte   W12
 .byte   Dn2
 .byte   W12
 .byte   Gn2
 .byte   W12
 .byte   Bn2
 .byte   W12
 .byte   Gn2
 .byte   W12
@ 056   ----------------------------------------
 .byte   Dn2
 .byte   W12
 .byte   Gn2
 .byte   W12
 .byte   Bn2
 .byte   W24
 .byte   N23 ,Gn2
 .byte   W24
 .byte   Bn2
 .byte   W24
@ 057   ----------------------------------------
 .byte   N11 ,Cn3
 .byte   W12
 .byte   N11
 .byte   W24
 .byte   N11
 .byte   W12
 .byte   N11
 .byte   W12
 .byte   N11
 .byte   W24
 .byte   N11
 .byte   W12
@ 058   ----------------------------------------
 .byte   Bn2
 .byte   W12
 .byte   Gs2
 .byte   W24
 .byte   Bn2
 .byte   W12
 .byte   N11
 .byte   W12
 .byte   Gs2
 .byte   W24
 .byte   Bn2
 .byte   W12
@ 059   ----------------------------------------
 .byte   N11
 .byte   W12
 .byte   Gn2
 .byte   W12
 .byte   Dn2
 .byte   W12
 .byte   Gn2
 .byte   W12
 .byte   An2
 .byte   W12
 .byte   Gn2
 .byte   W12
 .byte   Dn2
 .byte   W12
 .byte   Gn2
 .byte   W12
@ 060   ----------------------------------------
 .byte   N11
 .byte   W12
 .byte   Dn2
 .byte   W12
 .byte   Gn2
 .byte   W12
 .byte   Dn2
 .byte   W12
 .byte   Gn2
 .byte   W12
 .byte   Dn2
 .byte   W12
 .byte   Gn2
 .byte   W12
 .byte   Dn2
 .byte   W12
@ 061   ----------------------------------------
Label_12_01290830:
 .byte   N11 ,Fn2 ,v064
 .byte   W24
 .byte   N11
 .byte   W24
 .byte   N11
 .byte   W24
 .byte   N11
 .byte   W24
 .byte   PEND 
@ 062   ----------------------------------------
Label_12_0129083B:
 .byte   N11 ,Fn2 ,v064
 .byte   W24
 .byte   N11
 .byte   W24
 .byte   N11
 .byte   W24
 .byte   Cn2
 .byte   W12
 .byte   En2
 .byte   W12
 .byte   PEND 
 .byte   PATT
  .word Label_12_01290830
@ 063   ----------------------------------------
Label_12_0129084D:
 .byte   N11 ,Fn2 ,v064
 .byte   W24
 .byte   N11
 .byte   W24
 .byte   N11
 .byte   W24
 .byte   Gn2
 .byte   W12
 .byte   Fn2
 .byte   W12
 .byte   PEND 
@ 064   ----------------------------------------
Label_12_0129085A:
 .byte   N11 ,En2 ,v064
 .byte   W24
 .byte   N11
 .byte   W24
 .byte   N11
 .byte   W24
 .byte   N11
 .byte   W24
 .byte   PEND 
 .byte   PATT
  .word Label_12_0129085A
@ 065   ----------------------------------------
 .byte   N11 ,An2 ,v064
 .byte   W24
 .byte   N11
 .byte   W24
 .byte   N11
 .byte   W24
 .byte   N11
 .byte   W24
@ 066   ----------------------------------------
 .byte   N11
 .byte   W12
 .byte   Cn3
 .byte   W12
 .byte   Bn2
 .byte   W12
 .byte   Gn2
 .byte   W12
 .byte   Dn2
 .byte   W12
 .byte   En2
 .byte   W12
 .byte   N05
 .byte   W06
 .byte   Dn2
 .byte   W06
 .byte   Cn2
 .byte   W06
 .byte   Bn1
 .byte   W06
 .byte   PATT
  .word Label_12_01290830
 .byte   PATT
  .word Label_12_0129083B
 .byte   PATT
  .word Label_12_01290830
 .byte   PATT
  .word Label_12_0129084D
 .byte   PATT
  .word Label_12_0129085A
 .byte   PATT
  .word Label_12_0129085A
 .byte   PATT
  .word Label_12_0129085A
@ 067   ----------------------------------------
 .byte   W96
@ 068   ----------------------------------------
 .byte   W96
@ 069   ----------------------------------------
 .byte   W96
@ 070   ----------------------------------------
 .byte   W96
@ 071   ----------------------------------------
 .byte   W96
@ 072   ----------------------------------------
 .byte   W96
@ 073   ----------------------------------------
 .byte   W96
@ 074   ----------------------------------------
 .byte   W96
@ 075   ----------------------------------------
 .byte   W96
@ 076   ----------------------------------------
 .byte   W96
@ 077   ----------------------------------------
 .byte   W96
@ 078   ----------------------------------------
 .byte   W96
@ 079   ----------------------------------------
 .byte   W96
@ 080   ----------------------------------------
 .byte   W96
@ 081   ----------------------------------------
 .byte   W96
@ 082   ----------------------------------------
 .byte   W96
@ 083   ----------------------------------------
 .byte   W96
@ 084   ----------------------------------------
 .byte   W96
@ 085   ----------------------------------------
 .byte   W96
@ 086   ----------------------------------------
 .byte   W96
@ 087   ----------------------------------------
 .byte   W96
@ 088   ----------------------------------------
 .byte   W96
@ 089   ----------------------------------------
 .byte   W96
@ 090   ----------------------------------------
 .byte   W96
@ 091   ----------------------------------------
 .byte   W96
@ 092   ----------------------------------------
 .byte   W96
@ 093   ----------------------------------------
 .byte   W96
@ 094   ----------------------------------------
 .byte   W96
@ 095   ----------------------------------------
 .byte   W96
@ 096   ----------------------------------------
 .byte   W96
@ 097   ----------------------------------------
 .byte   W96
@ 098   ----------------------------------------
 .byte   W96
@ 099   ----------------------------------------
 .byte   W96
@ 100   ----------------------------------------
 .byte   W96
@ 101   ----------------------------------------
 .byte   W96
@ 102   ----------------------------------------
 .byte   W96
@ 103   ----------------------------------------
 .byte   W96
@ 104   ----------------------------------------
 .byte   W96
@ 105   ----------------------------------------
 .byte   W96
@ 106   ----------------------------------------
 .byte   W96
@ 107   ----------------------------------------
 .byte   W96
@ 108   ----------------------------------------
 .byte   W96
@ 109   ----------------------------------------
 .byte   W96
@ 110   ----------------------------------------
 .byte   W96
@ 111   ----------------------------------------
 .byte   W96
@ 112   ----------------------------------------
 .byte   W96
@ 113   ----------------------------------------
 .byte   W96
@ 114   ----------------------------------------
 .byte   W96
@ 115   ----------------------------------------
 .byte   W96
@ 116   ----------------------------------------
 .byte   W96
@ 117   ----------------------------------------
 .byte   W96
@ 118   ----------------------------------------
 .byte   W96
@ 119   ----------------------------------------
 .byte   W96
@ 120   ----------------------------------------
 .byte   W96
@ 121   ----------------------------------------
 .byte   W96
@ 122   ----------------------------------------
 .byte   W96
@ 123   ----------------------------------------
 .byte   W96
@ 124   ----------------------------------------
 .byte   W96
@ 125   ----------------------------------------
 .byte   W96
@ 126   ----------------------------------------
 .byte   W96
@ 127   ----------------------------------------
 .byte   W96
@ 128   ----------------------------------------
 .byte   W96
@ 129   ----------------------------------------
 .byte   W96
@ 130   ----------------------------------------
 .byte   W96
@ 131   ----------------------------------------
 .byte   W96
@ 132   ----------------------------------------
 .byte   W96
@ 133   ----------------------------------------
 .byte   W96
@ 134   ----------------------------------------
 .byte   W96
@ 135   ----------------------------------------
 .byte   W96
@ 136   ----------------------------------------
 .byte   W96
@ 137   ----------------------------------------
 .byte   W96
@ 138   ----------------------------------------
 .byte   W96
@ 139   ----------------------------------------
 .byte   W96
@ 140   ----------------------------------------
 .byte   W96
@ 141   ----------------------------------------
 .byte   W96
@ 142   ----------------------------------------
 .byte   W96
@ 143   ----------------------------------------
 .byte   W96
@ 144   ----------------------------------------
 .byte   W96
@ 145   ----------------------------------------
 .byte   W96
@ 146   ----------------------------------------
 .byte   W96
@ 147   ----------------------------------------
 .byte   W96
@ 148   ----------------------------------------
 .byte   W96
@ 149   ----------------------------------------
 .byte   W96
@ 150   ----------------------------------------
 .byte   W96
@ 151   ----------------------------------------
 .byte   W96
@ 152   ----------------------------------------
 .byte   W96
@ 153   ----------------------------------------
 .byte   W96
@ 154   ----------------------------------------
 .byte   W96
@ 155   ----------------------------------------
 .byte   W96
@ 156   ----------------------------------------
 .byte   W96
@ 157   ----------------------------------------
 .byte   W96
@ 158   ----------------------------------------
 .byte   W96
@ 159   ----------------------------------------
 .byte   W96
@ 160   ----------------------------------------
 .byte   W96
@ 161   ----------------------------------------
 .byte   W96
@ 162   ----------------------------------------
 .byte   W96
@ 163   ----------------------------------------
 .byte   W96
@ 164   ----------------------------------------
 .byte   W96
@ 165   ----------------------------------------
 .byte   W96
@ 166   ----------------------------------------
 .byte   W96
@ 167   ----------------------------------------
 .byte   W96
@ 168   ----------------------------------------
 .byte   W96
@ 169   ----------------------------------------
 .byte   W96
@ 170   ----------------------------------------
 .byte   W96
@ 171   ----------------------------------------
 .byte   W96
@ 172   ----------------------------------------
 .byte   W96
@ 173   ----------------------------------------
 .byte   W96
@ 174   ----------------------------------------
 .byte   W96
@ 175   ----------------------------------------
 .byte   W96
@ 176   ----------------------------------------
 .byte   GOTO
  .word Label_12_01290716
 .byte   FINE

@**************** Track 14 (Midi-Chn.13) ****************@

song0E_014:
@ 000   ----------------------------------------
 .byte   KEYSH , song0E_key+0
Label_13_01290922:
 .byte   VOICE , 45
 .byte   VOL , 51*song0E_mvl/mxv
 .byte   PAN , c_v+0
 .byte   VOL , 51*song0E_mvl/mxv
 .byte   PAN , c_v+0
 .byte   VOL , 51*song0E_mvl/mxv
 .byte   PAN , c_v+0
 .byte   VOL , 51*song0E_mvl/mxv
 .byte   PAN , c_v+0
 .byte   VOL , 51*song0E_mvl/mxv
 .byte   PAN , c_v+0
 .byte   W48
 .byte   W96
@ 001   ----------------------------------------
 .byte   W96
@ 002   ----------------------------------------
 .byte   W96
@ 003   ----------------------------------------
 .byte   W96
@ 004   ----------------------------------------
 .byte   W96
@ 005   ----------------------------------------
 .byte   W96
@ 006   ----------------------------------------
 .byte   W96
@ 007   ----------------------------------------
 .byte   W96
@ 008   ----------------------------------------
 .byte   W96
@ 009   ----------------------------------------
 .byte   W96
@ 010   ----------------------------------------
 .byte   W96
@ 011   ----------------------------------------
 .byte   W96
@ 012   ----------------------------------------
 .byte   W96
@ 013   ----------------------------------------
 .byte   W96
@ 014   ----------------------------------------
 .byte   W96
@ 015   ----------------------------------------
 .byte   W96
@ 016   ----------------------------------------
 .byte   W96
@ 017   ----------------------------------------
 .byte   W96
@ 018   ----------------------------------------
 .byte   W96
@ 019   ----------------------------------------
 .byte   W96
@ 020   ----------------------------------------
 .byte   W96
@ 021   ----------------------------------------
 .byte   W96
@ 022   ----------------------------------------
 .byte   W96
@ 023   ----------------------------------------
 .byte   W96
@ 024   ----------------------------------------
 .byte   W96
@ 025   ----------------------------------------
 .byte   W96
@ 026   ----------------------------------------
 .byte   W96
@ 027   ----------------------------------------
 .byte   W96
@ 028   ----------------------------------------
 .byte   W96
@ 029   ----------------------------------------
 .byte   W96
@ 030   ----------------------------------------
 .byte   W96
@ 031   ----------------------------------------
 .byte   W96
@ 032   ----------------------------------------
 .byte   W96
@ 033   ----------------------------------------
 .byte   W96
@ 034   ----------------------------------------
 .byte   W96
@ 035   ----------------------------------------
 .byte   W96
@ 036   ----------------------------------------
 .byte   W96
@ 037   ----------------------------------------
 .byte   W96
@ 038   ----------------------------------------
 .byte   W96
@ 039   ----------------------------------------
 .byte   W96
@ 040   ----------------------------------------
 .byte   W96
@ 041   ----------------------------------------
 .byte   W96
@ 042   ----------------------------------------
 .byte   W96
@ 043   ----------------------------------------
 .byte   W96
@ 044   ----------------------------------------
 .byte   W96
@ 045   ----------------------------------------
 .byte   W96
@ 046   ----------------------------------------
 .byte   W96
@ 047   ----------------------------------------
 .byte   W96
@ 048   ----------------------------------------
 .byte   W96
@ 049   ----------------------------------------
 .byte   W96
@ 050   ----------------------------------------
 .byte   W96
@ 051   ----------------------------------------
 .byte   W96
@ 052   ----------------------------------------
 .byte   W96
@ 053   ----------------------------------------
 .byte   W96
@ 054   ----------------------------------------
 .byte   W96
@ 055   ----------------------------------------
 .byte   W96
@ 056   ----------------------------------------
 .byte   W96
@ 057   ----------------------------------------
 .byte   W96
@ 058   ----------------------------------------
 .byte   W96
@ 059   ----------------------------------------
 .byte   W96
@ 060   ----------------------------------------
 .byte   W96
@ 061   ----------------------------------------
 .byte   W96
@ 062   ----------------------------------------
 .byte   W96
@ 063   ----------------------------------------
 .byte   W96
@ 064   ----------------------------------------
 .byte   W96
@ 065   ----------------------------------------
 .byte   W96
@ 066   ----------------------------------------
 .byte   W96
@ 067   ----------------------------------------
 .byte   W96
@ 068   ----------------------------------------
 .byte   W96
@ 069   ----------------------------------------
 .byte   W96
@ 070   ----------------------------------------
 .byte   W96
@ 071   ----------------------------------------
 .byte   W96
@ 072   ----------------------------------------
 .byte   W96
@ 073   ----------------------------------------
 .byte   W96
@ 074   ----------------------------------------
 .byte   W96
@ 075   ----------------------------------------
 .byte   W96
@ 076   ----------------------------------------
 .byte   W96
@ 077   ----------------------------------------
 .byte   W96
@ 078   ----------------------------------------
 .byte   W96
@ 079   ----------------------------------------
 .byte   W96
@ 080   ----------------------------------------
 .byte   W96
@ 081   ----------------------------------------
 .byte   W96
@ 082   ----------------------------------------
 .byte   W96
@ 083   ----------------------------------------
 .byte   W96
@ 084   ----------------------------------------
 .byte   W96
@ 085   ----------------------------------------
 .byte   W96
@ 086   ----------------------------------------
 .byte   W96
@ 087   ----------------------------------------
 .byte   W96
@ 088   ----------------------------------------
 .byte   W96
@ 089   ----------------------------------------
 .byte   W96
@ 090   ----------------------------------------
 .byte   W96
@ 091   ----------------------------------------
 .byte   W96
@ 092   ----------------------------------------
 .byte   W96
@ 093   ----------------------------------------
 .byte   W96
@ 094   ----------------------------------------
 .byte   W96
@ 095   ----------------------------------------
 .byte   W96
@ 096   ----------------------------------------
 .byte   N32 ,Fn3 ,v080
 .byte   W36
 .byte   En3
 .byte   W36
 .byte   TIE ,Gn3
 .byte   W24
@ 097   ----------------------------------------
 .byte   W96
@ 098   ----------------------------------------
 .byte   W96
@ 099   ----------------------------------------
 .byte   W92
 .byte   W03
 .byte   EOT
 .byte   W01
@ 100   ----------------------------------------
 .byte   N32 ,Fn3
 .byte   W36
 .byte   En3
 .byte   W36
 .byte   TIE
 .byte   W24
@ 101   ----------------------------------------
 .byte   W96
@ 102   ----------------------------------------
 .byte   W96
@ 103   ----------------------------------------
 .byte   W92
 .byte   W03
 .byte   EOT
 .byte   W01
@ 104   ----------------------------------------
 .byte   W96
@ 105   ----------------------------------------
 .byte   W96
@ 106   ----------------------------------------
 .byte   W96
@ 107   ----------------------------------------
 .byte   W96
@ 108   ----------------------------------------
 .byte   W96
@ 109   ----------------------------------------
 .byte   W96
@ 110   ----------------------------------------
 .byte   N11 ,Bn3 ,v064
 .byte   W12
 .byte   N11
 .byte   W12
 .byte   N11
 .byte   W12
 .byte   N11
 .byte   W12
 .byte   N11
 .byte   W12
 .byte   N11
 .byte   W12
 .byte   N11
 .byte   W12
 .byte   N11
 .byte   W12
@ 111   ----------------------------------------
 .byte   W48
 .byte   N44 ,Bn2 ,v016
 .byte   N44 ,Dn3
 .byte   W01
 .byte   W01
 .byte   W01
 .byte   W01
 .byte   W01
 .byte   W01
 .byte   W01
 .byte   W01
 .byte   W01
 .byte   W01
 .byte   W01
 .byte   W01
 .byte   W01
 .byte   W01
 .byte   W01
 .byte   W01
 .byte   W01
 .byte   W01
 .byte   W01
 .byte   W01
 .byte   W01
 .byte   W01
 .byte   W01
 .byte   W01
 .byte   W01
 .byte   W01
 .byte   W01
 .byte   W01
 .byte   W01
 .byte   W01
 .byte   W01
 .byte   W01
 .byte   W01
 .byte   W01
 .byte   W01
 .byte   W01
 .byte   W01
 .byte   W01
 .byte   W01
 .byte   W01
 .byte   W01
 .byte   W01
 .byte   W01
 .byte   W01
 .byte   W01
 .byte   W01
 .byte   W01
 .byte   W01
@ 112   ----------------------------------------
 .byte   N32 ,En3 ,v080
 .byte   W36
 .byte   N11
 .byte   W24
 .byte   N32 ,Cn3
 .byte   W36
@ 113   ----------------------------------------
Label_13_01290A0C:
 .byte   N32 ,Cn3 ,v080
 .byte   W36
 .byte   Dn3
 .byte   W36
 .byte   N23 ,Bn2
 .byte   W24
 .byte   PEND 
@ 114   ----------------------------------------
 .byte   N32 ,Cn3
 .byte   W36
 .byte   N11 ,Bn2
 .byte   W24
 .byte   N32
 .byte   W36
@ 115   ----------------------------------------
Label_13_01290A1E:
 .byte   N32 ,Dn3 ,v080
 .byte   W36
 .byte   Cn3
 .byte   W36
 .byte   N23 ,Bn2
 .byte   W24
 .byte   PEND 
@ 116   ----------------------------------------
 .byte   N44 ,An2
 .byte   W48
 .byte   N23 ,Gn3
 .byte   W24
 .byte   Fn3
 .byte   W24
@ 117   ----------------------------------------
 .byte   N44 ,Dn3
 .byte   W48
 .byte   Gs3
 .byte   W48
@ 118   ----------------------------------------
 .byte   N32 ,Bn3
 .byte   W36
 .byte   N56 ,An3
 .byte   W60
@ 119   ----------------------------------------
Label_13_01290A3B:
 .byte   N32 ,Gn3 ,v080
 .byte   W36
 .byte   Fn3
 .byte   W36
 .byte   N23 ,En3
 .byte   W24
 .byte   PEND 
@ 120   ----------------------------------------
 .byte   N23
 .byte   W24
 .byte   Fn3
 .byte   W24
 .byte   N32 ,An3
 .byte   W36
 .byte   N44 ,Gn3
 .byte   W12
@ 121   ----------------------------------------
 .byte   W36
 .byte   N32 ,Dn3
 .byte   W36
 .byte   N23 ,Gn3
 .byte   W24
@ 122   ----------------------------------------
 .byte   N32 ,Dn3
 .byte   W36
 .byte   N80 ,Bn3
 .byte   W60
@ 123   ----------------------------------------
 .byte   W24
 .byte   N68 ,Cn4
 .byte   W72
@ 124   ----------------------------------------
 .byte   N44 ,Fn3
 .byte   W48
 .byte   An3
 .byte   W48
@ 125   ----------------------------------------
 .byte   Gs3
 .byte   W48
 .byte   En3
 .byte   W48
@ 126   ----------------------------------------
 .byte   N32 ,Dn3
 .byte   W36
 .byte   TIE ,Cn3
 .byte   W60
@ 127   ----------------------------------------
 .byte   W92
 .byte   W03
 .byte   EOT
 .byte   W01
@ 128   ----------------------------------------
 .byte   N44 ,An2
 .byte   W48
 .byte   En2
 .byte   W48
 .byte   PATT
  .word Label_13_01290A0C
@ 129   ----------------------------------------
 .byte   N44 ,Cn3 ,v080
 .byte   W48
 .byte   Bn2
 .byte   W48
 .byte   PATT
  .word Label_13_01290A1E
@ 130   ----------------------------------------
 .byte   N23 ,An2 ,v080
 .byte   W24
 .byte   Cn3
 .byte   W24
 .byte   N44 ,Gn3
 .byte   W48
@ 131   ----------------------------------------
 .byte   N23 ,Dn3
 .byte   W24
 .byte   N07 ,En3
 .byte   W08
 .byte   Fn3
 .byte   W08
 .byte   Gn3
 .byte   W08
 .byte   N44 ,Gs3
 .byte   W48
@ 132   ----------------------------------------
 .byte   Bn3
 .byte   W48
 .byte   An3
 .byte   W48
 .byte   PATT
  .word Label_13_01290A3B
@ 133   ----------------------------------------
 .byte   W96
@ 134   ----------------------------------------
 .byte   W96
@ 135   ----------------------------------------
 .byte   W96
@ 136   ----------------------------------------
 .byte   W96
@ 137   ----------------------------------------
 .byte   W96
@ 138   ----------------------------------------
 .byte   W96
@ 139   ----------------------------------------
 .byte   W96
@ 140   ----------------------------------------
 .byte   W96
@ 141   ----------------------------------------
 .byte   W96
@ 142   ----------------------------------------
 .byte   W96
@ 143   ----------------------------------------
 .byte   W96
@ 144   ----------------------------------------
 .byte   W96
@ 145   ----------------------------------------
 .byte   W96
@ 146   ----------------------------------------
 .byte   W96
@ 147   ----------------------------------------
 .byte   W96
@ 148   ----------------------------------------
 .byte   W96
@ 149   ----------------------------------------
 .byte   W96
@ 150   ----------------------------------------
 .byte   W96
@ 151   ----------------------------------------
 .byte   W96
@ 152   ----------------------------------------
 .byte   W96
@ 153   ----------------------------------------
 .byte   W96
@ 154   ----------------------------------------
 .byte   W96
@ 155   ----------------------------------------
 .byte   W96
@ 156   ----------------------------------------
 .byte   W96
@ 157   ----------------------------------------
 .byte   W96
@ 158   ----------------------------------------
 .byte   W96
@ 159   ----------------------------------------
 .byte   W96
@ 160   ----------------------------------------
 .byte   W96
@ 161   ----------------------------------------
 .byte   W96
@ 162   ----------------------------------------
 .byte   W96
@ 163   ----------------------------------------
 .byte   W96
@ 164   ----------------------------------------
 .byte   W96
@ 165   ----------------------------------------
 .byte   W96
@ 166   ----------------------------------------
 .byte   W96
@ 167   ----------------------------------------
 .byte   W96
@ 168   ----------------------------------------
 .byte   W96
@ 169   ----------------------------------------
 .byte   W96
@ 170   ----------------------------------------
 .byte   W96
@ 171   ----------------------------------------
 .byte   W96
@ 172   ----------------------------------------
 .byte   W96
@ 173   ----------------------------------------
 .byte   W96
@ 174   ----------------------------------------
 .byte   W96
@ 175   ----------------------------------------
 .byte   W96
@ 176   ----------------------------------------
 .byte   W96
@ 177   ----------------------------------------
 .byte   W96
@ 178   ----------------------------------------
 .byte   W96
@ 179   ----------------------------------------
 .byte   W96
@ 180   ----------------------------------------
 .byte   W96
@ 181   ----------------------------------------
 .byte   W96
@ 182   ----------------------------------------
 .byte   W96
@ 183   ----------------------------------------
 .byte   W96
@ 184   ----------------------------------------
 .byte   W96
@ 185   ----------------------------------------
 .byte   GOTO
  .word Label_13_01290922
 .byte   FINE

@**************** Track 15 (Midi-Chn.14) ****************@

song0E_015:
@ 000   ----------------------------------------
 .byte   KEYSH , song0E_key+0
Label_14_01290AE6:
 .byte   VOICE , 110
 .byte   VOL , 38*song0E_mvl/mxv
 .byte   PAN , c_v+0
 .byte   VOL , 51*song0E_mvl/mxv
 .byte   PAN , c_v+0
 .byte   VOL , 51*song0E_mvl/mxv
 .byte   PAN , c_v+0
 .byte   VOL , 51*song0E_mvl/mxv
 .byte   PAN , c_v+0
 .byte   VOL , 51*song0E_mvl/mxv
 .byte   PAN , c_v+0
 .byte   W48
 .byte   W96
@ 001   ----------------------------------------
 .byte   W96
@ 002   ----------------------------------------
 .byte   W96
@ 003   ----------------------------------------
 .byte   W96
@ 004   ----------------------------------------
 .byte   W96
@ 005   ----------------------------------------
 .byte   W96
@ 006   ----------------------------------------
 .byte   W96
@ 007   ----------------------------------------
 .byte   W96
@ 008   ----------------------------------------
 .byte   W96
@ 009   ----------------------------------------
 .byte   W96
@ 010   ----------------------------------------
 .byte   W96
@ 011   ----------------------------------------
 .byte   W96
@ 012   ----------------------------------------
 .byte   W96
@ 013   ----------------------------------------
 .byte   W96
@ 014   ----------------------------------------
 .byte   W96
@ 015   ----------------------------------------
 .byte   W96
@ 016   ----------------------------------------
Label_14_01290B0D:
 .byte   N92 ,An2 ,v036
 .byte   W06
 .byte   W03
 .byte   W03
 .byte   W03
 .byte   W03
 .byte   W03
 .byte   W03
 .byte   W03
 .byte   W03
 .byte   W03
 .byte   W03
 .byte   W03
 .byte   W03
 .byte   W03
 .byte   W03
 .byte   W03
 .byte   W03
 .byte   W03
 .byte   W04
 .byte   W03
 .byte   W03
 .byte   W03
 .byte   W03
 .byte   W03
 .byte   W03
 .byte   W03
 .byte   W03
 .byte   W03
 .byte   W03
 .byte   W03
 .byte   W02
 .byte   PEND 
@ 017   ----------------------------------------
 .byte   Gn2 ,v064
 .byte   W96
@ 018   ----------------------------------------
Label_14_01290B33:
 .byte   TIE ,Fn2 ,v064
 .byte   W09
 .byte   W04
 .byte   W05
 .byte   W05
 .byte   W04
 .byte   W05
 .byte   W04
 .byte   W05
 .byte   W05
 .byte   W04
 .byte   W05
 .byte   W04
 .byte   W05
 .byte   W05
 .byte   W04
 .byte   W05
 .byte   W04
 .byte   W05
 .byte   W05
 .byte   W04
 .byte   PEND 
@ 019   ----------------------------------------
Label_14_01290B4B:
 .byte   W05
 .byte   W04
 .byte   W05
 .byte   W05
 .byte   W04
 .byte   W05
 .byte   W04
 .byte   W05
 .byte   W05
 .byte   W04
 .byte   W01
 .byte   PEND 
 .byte   EOT
 .byte   Fn2
 .byte   W48
 .byte   W01
@ 020   ----------------------------------------
Label_14_01290B5B:
 .byte   N44 ,Fn2 ,v036
 .byte   W06
 .byte   W03
 .byte   W03
 .byte   W03
 .byte   W03
 .byte   W03
 .byte   W03
 .byte   W03
 .byte   W03
 .byte   W03
 .byte   W03
 .byte   W03
 .byte   W03
 .byte   W03
 .byte   W03
 .byte   En2 ,v048
 .byte   W03
 .byte   W03
 .byte   W03
 .byte   W04
 .byte   W03
 .byte   W03
 .byte   W03
 .byte   W03
 .byte   W03
 .byte   W03
 .byte   W03
 .byte   W03
 .byte   W03
 .byte   W03
 .byte   W03
 .byte   W02
 .byte   PEND 
@ 021   ----------------------------------------
 .byte   N92 ,Gn2 ,v064
 .byte   W96
@ 022   ----------------------------------------
 .byte   TIE
 .byte   W09
 .byte   W04
 .byte   W05
 .byte   W05
 .byte   W04
 .byte   W05
 .byte   W04
 .byte   W05
 .byte   W05
 .byte   W04
 .byte   W05
 .byte   W04
 .byte   W05
 .byte   W05
 .byte   W04
 .byte   W05
 .byte   W04
 .byte   W05
 .byte   W05
 .byte   W04
 .byte   PATT
  .word Label_14_01290B4B
@ 023   ----------------------------------------
 .byte   EOT
 .byte   Gn2
 .byte   W48
 .byte   W01
 .byte   PATT
  .word Label_14_01290B0D
@ 024   ----------------------------------------
 .byte   N92 ,Gn2 ,v064
 .byte   W96
 .byte   PATT
  .word Label_14_01290B33
 .byte   PATT
  .word Label_14_01290B4B
@ 025   ----------------------------------------
 .byte   EOT
 .byte   Fn2
 .byte   W48
 .byte   W01
 .byte   PATT
  .word Label_14_01290B5B
@ 026   ----------------------------------------
 .byte   N92 ,Gn2 ,v064
 .byte   W96
@ 027   ----------------------------------------
 .byte   TIE
 .byte   W09
 .byte   W10
 .byte   W09
 .byte   W10
 .byte   W10
 .byte   W09
 .byte   W10
 .byte   W09
 .byte   W10
 .byte   W10
@ 028   ----------------------------------------
 .byte   W09
 .byte   W10
 .byte   W09
 .byte   W10
 .byte   W09
 .byte   EOT
 .byte   W48
 .byte   W01
@ 029   ----------------------------------------
Label_14_01290BD5:
 .byte   W24
 .byte   N11 ,An2 ,v080
 .byte   W36
 .byte   N11
 .byte   W36
 .byte   PEND 
@ 030   ----------------------------------------
Label_14_01290BDD:
 .byte   W24
 .byte   N11 ,Gn2 ,v080
 .byte   W24
 .byte   Dn2
 .byte   W24
 .byte   N11
 .byte   W24
 .byte   PEND 
@ 031   ----------------------------------------
Label_14_01290BE7:
 .byte   W24
 .byte   N11 ,En2 ,v080
 .byte   N11 ,An2
 .byte   W36
 .byte   En2
 .byte   N11 ,An2
 .byte   W36
 .byte   PEND 
@ 032   ----------------------------------------
Label_14_01290BF3:
 .byte   W24
 .byte   N11 ,En2 ,v080
 .byte   N11 ,An2
 .byte   W24
 .byte   En2
 .byte   N11 ,An2
 .byte   W24
 .byte   En2
 .byte   W24
 .byte   PEND 
@ 033   ----------------------------------------
Label_14_01290C01:
 .byte   W24
 .byte   N11 ,Dn2 ,v080
 .byte   N11 ,Fn2
 .byte   W36
 .byte   Dn2
 .byte   N11 ,Fn2
 .byte   W36
 .byte   PEND 
@ 034   ----------------------------------------
 .byte   W24
 .byte   Dn2
 .byte   N11 ,Fn2
 .byte   W24
 .byte   N11
 .byte   N11 ,Gn2
 .byte   W24
 .byte   Dn2
 .byte   N11 ,Gn2
 .byte   W24
@ 035   ----------------------------------------
 .byte   W24
 .byte   N11
 .byte   N11 ,Bn2
 .byte   W36
 .byte   Gn2
 .byte   N11 ,Bn2
 .byte   W36
@ 036   ----------------------------------------
 .byte   W24
 .byte   Gn2
 .byte   N11 ,Bn2
 .byte   W24
 .byte   Gn2
 .byte   N11 ,Bn2
 .byte   W24
 .byte   Gn2
 .byte   N11 ,Bn2
 .byte   W24
 .byte   PATT
  .word Label_14_01290BD5
 .byte   PATT
  .word Label_14_01290BDD
 .byte   PATT
  .word Label_14_01290BE7
 .byte   PATT
  .word Label_14_01290BF3
 .byte   PATT
  .word Label_14_01290C01
@ 037   ----------------------------------------
 .byte   W24
 .byte   N11 ,Dn2 ,v080
 .byte   N11 ,Fn2
 .byte   W24
 .byte   Dn2
 .byte   N11 ,Fn2
 .byte   W24
 .byte   Dn2
 .byte   N11 ,Fn2
 .byte   W24
@ 038   ----------------------------------------
 .byte   N92 ,Bn2
 .byte   W96
@ 039   ----------------------------------------
 .byte   W96
@ 040   ----------------------------------------
 .byte   W96
@ 041   ----------------------------------------
 .byte   W96
@ 042   ----------------------------------------
 .byte   W96
@ 043   ----------------------------------------
 .byte   W96
@ 044   ----------------------------------------
 .byte   W96
@ 045   ----------------------------------------
 .byte   W96
@ 046   ----------------------------------------
 .byte   W96
@ 047   ----------------------------------------
 .byte   W96
@ 048   ----------------------------------------
 .byte   W96
@ 049   ----------------------------------------
 .byte   W96
@ 050   ----------------------------------------
 .byte   W96
@ 051   ----------------------------------------
 .byte   W96
@ 052   ----------------------------------------
 .byte   W96
@ 053   ----------------------------------------
 .byte   W96
@ 054   ----------------------------------------
 .byte   W96
@ 055   ----------------------------------------
 .byte   W96
@ 056   ----------------------------------------
 .byte   W96
@ 057   ----------------------------------------
 .byte   W96
@ 058   ----------------------------------------
 .byte   W96
@ 059   ----------------------------------------
 .byte   W96
@ 060   ----------------------------------------
 .byte   W96
@ 061   ----------------------------------------
 .byte   W96
@ 062   ----------------------------------------
 .byte   W96
@ 063   ----------------------------------------
 .byte   W96
@ 064   ----------------------------------------
 .byte   W96
@ 065   ----------------------------------------
 .byte   W96
@ 066   ----------------------------------------
 .byte   W96
@ 067   ----------------------------------------
 .byte   W96
@ 068   ----------------------------------------
 .byte   W96
@ 069   ----------------------------------------
 .byte   W96
@ 070   ----------------------------------------
 .byte   W96
@ 071   ----------------------------------------
 .byte   En2 ,v064
 .byte   W96
@ 072   ----------------------------------------
 .byte   W96
@ 073   ----------------------------------------
 .byte   W96
@ 074   ----------------------------------------
 .byte   W96
@ 075   ----------------------------------------
 .byte   W96
@ 076   ----------------------------------------
 .byte   W96
@ 077   ----------------------------------------
 .byte   W96
@ 078   ----------------------------------------
 .byte   W96
@ 079   ----------------------------------------
 .byte   W96
@ 080   ----------------------------------------
 .byte   W96
@ 081   ----------------------------------------
 .byte   W96
@ 082   ----------------------------------------
 .byte   W96
@ 083   ----------------------------------------
 .byte   W96
@ 084   ----------------------------------------
 .byte   W96
@ 085   ----------------------------------------
 .byte   W96
@ 086   ----------------------------------------
 .byte   W96
@ 087   ----------------------------------------
 .byte   W96
@ 088   ----------------------------------------
 .byte   W96
@ 089   ----------------------------------------
 .byte   W96
@ 090   ----------------------------------------
 .byte   W96
@ 091   ----------------------------------------
 .byte   W96
@ 092   ----------------------------------------
 .byte   W96
@ 093   ----------------------------------------
 .byte   W96
@ 094   ----------------------------------------
 .byte   W96
@ 095   ----------------------------------------
 .byte   W96
@ 096   ----------------------------------------
 .byte   W96
@ 097   ----------------------------------------
 .byte   W96
@ 098   ----------------------------------------
 .byte   W96
@ 099   ----------------------------------------
 .byte   W96
@ 100   ----------------------------------------
 .byte   W96
@ 101   ----------------------------------------
 .byte   W96
@ 102   ----------------------------------------
 .byte   W96
@ 103   ----------------------------------------
 .byte   W96
@ 104   ----------------------------------------
 .byte   W96
@ 105   ----------------------------------------
 .byte   W96
@ 106   ----------------------------------------
 .byte   W96
@ 107   ----------------------------------------
 .byte   W96
@ 108   ----------------------------------------
 .byte   W96
@ 109   ----------------------------------------
 .byte   W96
@ 110   ----------------------------------------
 .byte   W96
@ 111   ----------------------------------------
 .byte   W96
@ 112   ----------------------------------------
 .byte   W96
@ 113   ----------------------------------------
 .byte   W96
@ 114   ----------------------------------------
 .byte   W96
@ 115   ----------------------------------------
 .byte   W96
@ 116   ----------------------------------------
 .byte   W96
@ 117   ----------------------------------------
 .byte   W96
@ 118   ----------------------------------------
 .byte   W96
@ 119   ----------------------------------------
 .byte   W96
@ 120   ----------------------------------------
 .byte   W96
@ 121   ----------------------------------------
 .byte   W96
@ 122   ----------------------------------------
 .byte   W96
@ 123   ----------------------------------------
 .byte   W96
@ 124   ----------------------------------------
 .byte   W96
@ 125   ----------------------------------------
 .byte   W96
@ 126   ----------------------------------------
 .byte   W96
@ 127   ----------------------------------------
 .byte   W96
@ 128   ----------------------------------------
 .byte   W96
@ 129   ----------------------------------------
 .byte   W96
@ 130   ----------------------------------------
 .byte   W96
@ 131   ----------------------------------------
 .byte   W96
@ 132   ----------------------------------------
 .byte   W96
@ 133   ----------------------------------------
 .byte   W96
@ 134   ----------------------------------------
 .byte   W96
@ 135   ----------------------------------------
 .byte   W96
@ 136   ----------------------------------------
 .byte   W96
@ 137   ----------------------------------------
 .byte   W96
@ 138   ----------------------------------------
 .byte   W96
@ 139   ----------------------------------------
 .byte   W96
@ 140   ----------------------------------------
 .byte   W96
@ 141   ----------------------------------------
 .byte   W96
@ 142   ----------------------------------------
 .byte   W96
@ 143   ----------------------------------------
 .byte   W96
@ 144   ----------------------------------------
 .byte   W96
@ 145   ----------------------------------------
 .byte   W96
@ 146   ----------------------------------------
 .byte   W96
@ 147   ----------------------------------------
 .byte   W96
@ 148   ----------------------------------------
 .byte   W96
@ 149   ----------------------------------------
 .byte   W96
@ 150   ----------------------------------------
 .byte   W96
@ 151   ----------------------------------------
 .byte   W96
@ 152   ----------------------------------------
 .byte   W96
@ 153   ----------------------------------------
 .byte   N68 ,Ds4 ,v016
 .byte   N68 ,Fs4
 .byte   W02
 .byte   W01
 .byte   W01
 .byte   W01
 .byte   W01
 .byte   W01
 .byte   W01
 .byte   W01
 .byte   W02
 .byte   W01
 .byte   W01
 .byte   W01
 .byte   W01
 .byte   W01
 .byte   W01
 .byte   W01
 .byte   W01
 .byte   W01
 .byte   W02
 .byte   W01
 .byte   W01
 .byte   W01
 .byte   W01
 .byte   W01
 .byte   W01
 .byte   W01
 .byte   W01
 .byte   W01
 .byte   W02
 .byte   W01
 .byte   W01
 .byte   W01
 .byte   W01
 .byte   W01
 .byte   W01
 .byte   W01
 .byte   W01
 .byte   W01
 .byte   W02
 .byte   W01
 .byte   W01
 .byte   W01
 .byte   W01
 .byte   W01
 .byte   W02
 .byte   W01
 .byte   W01
 .byte   W02
 .byte   W01
 .byte   W01
 .byte   W01
 .byte   W01
 .byte   W01
 .byte   W01
 .byte   W01
 .byte   W01
 .byte   W01
 .byte   W02
 .byte   W01
 .byte   W01
 .byte   W01
 .byte   W01
 .byte   W01
 .byte   W24
 .byte   W01
@ 154   ----------------------------------------
 .byte   W96
@ 155   ----------------------------------------
 .byte   W96
@ 156   ----------------------------------------
 .byte   W96
@ 157   ----------------------------------------
 .byte   W96
@ 158   ----------------------------------------
 .byte   W96
@ 159   ----------------------------------------
 .byte   W96
@ 160   ----------------------------------------
 .byte   W96
@ 161   ----------------------------------------
 .byte   W96
@ 162   ----------------------------------------
 .byte   W96
@ 163   ----------------------------------------
 .byte   W96
@ 164   ----------------------------------------
 .byte   W96
@ 165   ----------------------------------------
 .byte   W96
@ 166   ----------------------------------------
 .byte   W96
@ 167   ----------------------------------------
 .byte   W96
@ 168   ----------------------------------------
 .byte   W96
@ 169   ----------------------------------------
 .byte   W96
@ 170   ----------------------------------------
 .byte   W96
@ 171   ----------------------------------------
 .byte   W96
@ 172   ----------------------------------------
 .byte   W96
@ 173   ----------------------------------------
 .byte   W96
@ 174   ----------------------------------------
 .byte   W96
@ 175   ----------------------------------------
 .byte   W96
@ 176   ----------------------------------------
 .byte   W96
@ 177   ----------------------------------------
 .byte   W96
@ 178   ----------------------------------------
 .byte   W96
@ 179   ----------------------------------------
 .byte   W96
@ 180   ----------------------------------------
 .byte   GOTO
  .word Label_14_01290AE6
 .byte   FINE

@**************** Track 16 (Midi-Chn.15) ****************@

song0E_016:
@ 000   ----------------------------------------
 .byte   KEYSH , song0E_key+0
Label_15_01290D3A:
 .byte   VOICE , 48
 .byte   VOL , 51*song0E_mvl/mxv
 .byte   PAN , c_v+0
 .byte   VOL , 51*song0E_mvl/mxv
 .byte   PAN , c_v+0
 .byte   VOL , 51*song0E_mvl/mxv
 .byte   PAN , c_v+0
 .byte   VOL , 51*song0E_mvl/mxv
 .byte   PAN , c_v+0
 .byte   VOL , 51*song0E_mvl/mxv
 .byte   PAN , c_v+0
 .byte   W48
 .byte   TIE ,An1 ,v080
 .byte   W96
@ 001   ----------------------------------------
 .byte   W92
 .byte   W03
 .byte   EOT
 .byte   W01
@ 002   ----------------------------------------
 .byte   TIE ,Fn1
 .byte   W96
@ 003   ----------------------------------------
 .byte   W92
 .byte   W03
 .byte   EOT
 .byte   W01
@ 004   ----------------------------------------
 .byte   N92 ,Dn1
 .byte   W96
@ 005   ----------------------------------------
 .byte   En1
 .byte   W96
@ 006   ----------------------------------------
 .byte   Fn1
 .byte   W96
@ 007   ----------------------------------------
 .byte   Gn1
 .byte   W96
@ 008   ----------------------------------------
 .byte   W96
@ 009   ----------------------------------------
 .byte   W96
@ 010   ----------------------------------------
 .byte   W96
@ 011   ----------------------------------------
 .byte   W96
@ 012   ----------------------------------------
 .byte   W96
@ 013   ----------------------------------------
 .byte   W96
@ 014   ----------------------------------------
 .byte   W96
@ 015   ----------------------------------------
 .byte   W96
@ 016   ----------------------------------------
 .byte   W96
@ 017   ----------------------------------------
 .byte   W96
@ 018   ----------------------------------------
 .byte   W96
@ 019   ----------------------------------------
 .byte   W96
@ 020   ----------------------------------------
 .byte   W96
@ 021   ----------------------------------------
 .byte   W96
@ 022   ----------------------------------------
 .byte   W96
@ 023   ----------------------------------------
 .byte   W96
@ 024   ----------------------------------------
 .byte   W96
@ 025   ----------------------------------------
 .byte   W96
@ 026   ----------------------------------------
 .byte   W96
@ 027   ----------------------------------------
 .byte   W96
@ 028   ----------------------------------------
 .byte   W96
@ 029   ----------------------------------------
 .byte   W96
@ 030   ----------------------------------------
 .byte   W96
@ 031   ----------------------------------------
 .byte   W96
@ 032   ----------------------------------------
 .byte   W96
@ 033   ----------------------------------------
 .byte   W96
@ 034   ----------------------------------------
 .byte   W96
@ 035   ----------------------------------------
 .byte   W96
@ 036   ----------------------------------------
 .byte   W96
@ 037   ----------------------------------------
 .byte   W96
@ 038   ----------------------------------------
 .byte   W96
@ 039   ----------------------------------------
 .byte   W96
@ 040   ----------------------------------------
 .byte   W96
@ 041   ----------------------------------------
 .byte   W96
@ 042   ----------------------------------------
 .byte   W96
@ 043   ----------------------------------------
 .byte   W96
@ 044   ----------------------------------------
 .byte   W96
@ 045   ----------------------------------------
 .byte   W96
@ 046   ----------------------------------------
 .byte   W96
@ 047   ----------------------------------------
 .byte   W96
@ 048   ----------------------------------------
 .byte   W96
@ 049   ----------------------------------------
 .byte   W96
@ 050   ----------------------------------------
 .byte   W96
@ 051   ----------------------------------------
 .byte   W96
@ 052   ----------------------------------------
 .byte   W96
@ 053   ----------------------------------------
 .byte   W96
@ 054   ----------------------------------------
 .byte   W96
@ 055   ----------------------------------------
 .byte   W96
@ 056   ----------------------------------------
 .byte   W96
@ 057   ----------------------------------------
 .byte   W96
@ 058   ----------------------------------------
 .byte   W96
@ 059   ----------------------------------------
 .byte   W96
@ 060   ----------------------------------------
 .byte   W96
@ 061   ----------------------------------------
 .byte   W96
@ 062   ----------------------------------------
 .byte   W96
@ 063   ----------------------------------------
 .byte   W96
@ 064   ----------------------------------------
Label_15_01290DA1:
 .byte   N11 ,En3 ,v064
 .byte   W12
 .byte   An2
 .byte   W12
 .byte   Dn3
 .byte   W12
 .byte   An2
 .byte   W12
 .byte   En3
 .byte   W12
 .byte   An2
 .byte   W12
 .byte   Dn3
 .byte   W12
 .byte   An2
 .byte   W12
 .byte   PEND 
 .byte   PATT
  .word Label_15_01290DA1
@ 065   ----------------------------------------
Label_15_01290DB9:
 .byte   N11 ,En3 ,v064
 .byte   W12
 .byte   Bn2
 .byte   W12
 .byte   Cn3
 .byte   W12
 .byte   An3
 .byte   W12
 .byte   Cn3
 .byte   W12
 .byte   Bn2
 .byte   W12
 .byte   Cn3
 .byte   W12
 .byte   Gn3
 .byte   W12
 .byte   PEND 
@ 066   ----------------------------------------
Label_15_01290DCC:
 .byte   N11 ,Dn3 ,v064
 .byte   W12
 .byte   Bn2
 .byte   W12
 .byte   Cn3
 .byte   W12
 .byte   Gn3
 .byte   W12
 .byte   Dn3
 .byte   W12
 .byte   Bn2
 .byte   W12
 .byte   Cn3
 .byte   W12
 .byte   Gn3
 .byte   W12
 .byte   PEND 
@ 067   ----------------------------------------
Label_15_01290DDF:
 .byte   N11 ,Dn3 ,v064
 .byte   W12
 .byte   Gn2
 .byte   W12
 .byte   Bn2
 .byte   W12
 .byte   Cn3
 .byte   W12
 .byte   Gn2
 .byte   W12
 .byte   En2
 .byte   W12
 .byte   Bn2
 .byte   W12
 .byte   Cn3
 .byte   W12
 .byte   PEND 
@ 068   ----------------------------------------
Label_15_01290DF2:
 .byte   N11 ,Gn2 ,v064
 .byte   W12
 .byte   En2
 .byte   W12
 .byte   Bn2
 .byte   W12
 .byte   Cn3
 .byte   W12
 .byte   Gn2
 .byte   W12
 .byte   En2
 .byte   W12
 .byte   Bn2
 .byte   W12
 .byte   Cn3
 .byte   W12
 .byte   PEND 
 .byte   PATT
  .word Label_15_01290DDF
@ 069   ----------------------------------------
 .byte   N11 ,Gn2 ,v064
 .byte   W12
 .byte   Cn3
 .byte   W12
 .byte   Bn2
 .byte   W12
 .byte   Gn2
 .byte   W12
 .byte   En2
 .byte   W12
 .byte   Gn2
 .byte   W12
 .byte   Bn2
 .byte   W12
 .byte   Gn2
 .byte   W12
 .byte   PATT
  .word Label_15_01290DA1
 .byte   PATT
  .word Label_15_01290DA1
 .byte   PATT
  .word Label_15_01290DB9
 .byte   PATT
  .word Label_15_01290DCC
 .byte   PATT
  .word Label_15_01290DDF
 .byte   PATT
  .word Label_15_01290DF2
@ 070   ----------------------------------------
 .byte   N11 ,Cn3 ,v064
 .byte   W12
 .byte   En2
 .byte   W12
 .byte   Gs2
 .byte   W12
 .byte   Cn3
 .byte   W12
 .byte   N11
 .byte   W12
 .byte   En2
 .byte   W12
 .byte   Gs2
 .byte   W12
 .byte   Cn3
 .byte   W12
@ 071   ----------------------------------------
 .byte   W96
@ 072   ----------------------------------------
Label_15_01290E4D:
 .byte   N56 ,Cn3 ,v064
 .byte   W60
 .byte   N11 ,Bn2
 .byte   W12
 .byte   An2
 .byte   W12
 .byte   Gn2
 .byte   W12
 .byte   PEND 
@ 073   ----------------------------------------
 .byte   N56 ,An2
 .byte   W60
 .byte   N11 ,Gn2
 .byte   W12
 .byte   Fn2
 .byte   W12
 .byte   En2
 .byte   W12
@ 074   ----------------------------------------
 .byte   Dn2
 .byte   W24
 .byte   En2
 .byte   W12
 .byte   TIE
 .byte   W60
@ 075   ----------------------------------------
 .byte   W44
 .byte   W03
 .byte   EOT
 .byte   W24
 .byte   W01
 .byte   N11 ,An2
 .byte   W12
 .byte   Bn2
 .byte   W12
 .byte   PATT
  .word Label_15_01290E4D
@ 076   ----------------------------------------
 .byte   N56 ,An2 ,v064
 .byte   W60
 .byte   N11 ,Bn2
 .byte   W12
 .byte   Cn3
 .byte   W12
 .byte   Dn3
 .byte   W12
@ 077   ----------------------------------------
 .byte   N23 ,Bn2
 .byte   W24
 .byte   N11 ,Gn2
 .byte   W12
 .byte   TIE
 .byte   W60
@ 078   ----------------------------------------
 .byte   W44
 .byte   W03
 .byte   EOT
 .byte   W13
 .byte   N11 ,An2
 .byte   W12
 .byte   N11
 .byte   W12
 .byte   Bn2
 .byte   W12
@ 079   ----------------------------------------
 .byte   Fn3
 .byte   W12
 .byte   N11
 .byte   W12
 .byte   N11
 .byte   W12
 .byte   N11
 .byte   W24
 .byte   Bn2
 .byte   W12
 .byte   An2
 .byte   N11 ,Cn3
 .byte   N11 ,Fn3
 .byte   W12
 .byte   Gn2
 .byte   N11 ,Cn3
 .byte   N11 ,Fn3
 .byte   W12
@ 080   ----------------------------------------
 .byte   N56 ,An2
 .byte   N11 ,Cn3
 .byte   N11 ,Fn3
 .byte   W12
 .byte   Cn3
 .byte   N11 ,Fn3
 .byte   W48
 .byte   Gn2
 .byte   W12
 .byte   Fn2
 .byte   W12
 .byte   En2
 .byte   W12
@ 081   ----------------------------------------
 .byte   N23 ,Dn2
 .byte   N11 ,Bn2
 .byte   N11 ,Dn3
 .byte   W12
 .byte   Bn2
 .byte   N11 ,Dn3
 .byte   W12
 .byte   En2
 .byte   N11 ,Bn2
 .byte   N11 ,Dn3
 .byte   W12
 .byte   N23 ,En2
 .byte   N11 ,Bn2
 .byte   N11 ,Dn3
 .byte   W24
 .byte   Fn2
 .byte   W12
 .byte   N68 ,Gn2
 .byte   N11 ,Cn3
 .byte   N11 ,En3
 .byte   W12
 .byte   Cn3
 .byte   N11 ,En3
 .byte   W12
@ 082   ----------------------------------------
 .byte   Cn3
 .byte   N11 ,En3
 .byte   W12
 .byte   Cn3
 .byte   N11 ,En3
 .byte   W60
 .byte   En2
 .byte   W12
 .byte   Fn2
 .byte   W12
@ 083   ----------------------------------------
 .byte   N11
 .byte   N23 ,Gn2
 .byte   N11 ,Cn3
 .byte   W12
 .byte   Fn2
 .byte   N11 ,Cn3
 .byte   W12
 .byte   N11
 .byte   W12
 .byte   N11
 .byte   W24
 .byte   En2
 .byte   W12
 .byte   N68
 .byte   N11 ,Fn2
 .byte   N11 ,Cn3
 .byte   W12
 .byte   Fn2
 .byte   N11 ,Cn3
 .byte   W12
@ 084   ----------------------------------------
 .byte   Fn2
 .byte   N11 ,Cn3
 .byte   W12
 .byte   Fn2
 .byte   N11 ,Cn3
 .byte   W36
 .byte   N44 ,Dn2
 .byte   W48
@ 085   ----------------------------------------
 .byte   N23
 .byte   N11 ,Gs2
 .byte   W12
 .byte   Bn2
 .byte   W12
 .byte   En2
 .byte   N11 ,Dn3
 .byte   W12
 .byte   TIE ,En2
 .byte   N11 ,Gs2
 .byte   W12
 .byte   Dn3
 .byte   W12
 .byte   Fn3
 .byte   W12
 .byte   Gs3
 .byte   W12
 .byte   Fn3
 .byte   W12
@ 086   ----------------------------------------
 .byte   Dn4
 .byte   W12
 .byte   Gs3
 .byte   W12
 .byte   Bn3
 .byte   W12
 .byte   Dn4
 .byte   W12
 .byte   En4
 .byte   W12
 .byte   Gs3
 .byte   W12
 .byte   N05
 .byte   W06
 .byte   Bn3
 .byte   W06
 .byte   Dn4
 .byte   W06
 .byte   En4
 .byte   W05
 .byte   EOT
 .byte   En2
 .byte   W01
@ 087   ----------------------------------------
 .byte   W96
@ 088   ----------------------------------------
 .byte   W96
@ 089   ----------------------------------------
 .byte   W96
@ 090   ----------------------------------------
 .byte   W96
@ 091   ----------------------------------------
 .byte   W96
@ 092   ----------------------------------------
 .byte   W96
@ 093   ----------------------------------------
 .byte   W96
@ 094   ----------------------------------------
 .byte   W96
@ 095   ----------------------------------------
 .byte   W96
@ 096   ----------------------------------------
 .byte   W96
@ 097   ----------------------------------------
 .byte   W96
@ 098   ----------------------------------------
 .byte   W96
@ 099   ----------------------------------------
 .byte   W96
@ 100   ----------------------------------------
 .byte   W96
@ 101   ----------------------------------------
 .byte   W96
@ 102   ----------------------------------------
 .byte   W96
@ 103   ----------------------------------------
 .byte   W96
@ 104   ----------------------------------------
 .byte   W96
@ 105   ----------------------------------------
 .byte   W96
@ 106   ----------------------------------------
 .byte   W96
@ 107   ----------------------------------------
 .byte   W96
@ 108   ----------------------------------------
 .byte   W96
@ 109   ----------------------------------------
 .byte   W96
@ 110   ----------------------------------------
 .byte   W96
@ 111   ----------------------------------------
 .byte   W96
@ 112   ----------------------------------------
 .byte   W96
@ 113   ----------------------------------------
 .byte   W96
@ 114   ----------------------------------------
 .byte   W96
@ 115   ----------------------------------------
 .byte   W96
@ 116   ----------------------------------------
 .byte   W96
@ 117   ----------------------------------------
 .byte   W96
@ 118   ----------------------------------------
 .byte   W96
@ 119   ----------------------------------------
 .byte   W96
@ 120   ----------------------------------------
 .byte   W96
@ 121   ----------------------------------------
 .byte   W96
@ 122   ----------------------------------------
 .byte   W96
@ 123   ----------------------------------------
 .byte   W96
@ 124   ----------------------------------------
 .byte   W96
@ 125   ----------------------------------------
 .byte   W96
@ 126   ----------------------------------------
 .byte   W96
@ 127   ----------------------------------------
 .byte   W96
@ 128   ----------------------------------------
 .byte   W96
@ 129   ----------------------------------------
 .byte   W96
@ 130   ----------------------------------------
 .byte   W96
@ 131   ----------------------------------------
 .byte   W96
@ 132   ----------------------------------------
 .byte   W96
@ 133   ----------------------------------------
 .byte   W96
@ 134   ----------------------------------------
 .byte   W96
@ 135   ----------------------------------------
 .byte   W96
@ 136   ----------------------------------------
 .byte   W96
@ 137   ----------------------------------------
 .byte   W96
@ 138   ----------------------------------------
 .byte   W96
@ 139   ----------------------------------------
 .byte   W96
@ 140   ----------------------------------------
 .byte   W96
@ 141   ----------------------------------------
 .byte   W96
@ 142   ----------------------------------------
 .byte   W96
@ 143   ----------------------------------------
 .byte   W96
@ 144   ----------------------------------------
 .byte   W96
@ 145   ----------------------------------------
 .byte   W96
@ 146   ----------------------------------------
 .byte   W96
@ 147   ----------------------------------------
 .byte   W96
@ 148   ----------------------------------------
 .byte   W96
@ 149   ----------------------------------------
 .byte   W96
@ 150   ----------------------------------------
 .byte   W96
@ 151   ----------------------------------------
 .byte   W96
@ 152   ----------------------------------------
 .byte   W96
@ 153   ----------------------------------------
 .byte   W48
 .byte   N44 ,Cs3 ,v080
 .byte   W48
@ 154   ----------------------------------------
 .byte   N32
 .byte   W36
 .byte   Ds3
 .byte   W36
 .byte   N23 ,Cn3
 .byte   W24
@ 155   ----------------------------------------
 .byte   N32 ,Cs3
 .byte   W36
 .byte   N11 ,Cn3
 .byte   W24
 .byte   N32
 .byte   W36
@ 156   ----------------------------------------
 .byte   Ds3
 .byte   W36
 .byte   Cs3
 .byte   W36
 .byte   N23 ,Cn3
 .byte   W24
@ 157   ----------------------------------------
 .byte   N44 ,As2
 .byte   W48
 .byte   N23 ,Gs3
 .byte   W24
 .byte   Fs3
 .byte   W24
@ 158   ----------------------------------------
 .byte   N44 ,Ds3
 .byte   W48
 .byte   An3
 .byte   W48
@ 159   ----------------------------------------
 .byte   N32 ,Cn4
 .byte   W36
 .byte   N56 ,As3
 .byte   W60
@ 160   ----------------------------------------
 .byte   N32 ,Gs3
 .byte   W36
 .byte   Fs3
 .byte   W36
 .byte   N23 ,Fn3
 .byte   W24
@ 161   ----------------------------------------
 .byte   N23
 .byte   W24
 .byte   Fs3
 .byte   W24
 .byte   N32 ,As3
 .byte   W36
 .byte   N44 ,Gs3
 .byte   W12
@ 162   ----------------------------------------
 .byte   W36
 .byte   N32 ,Ds3
 .byte   W36
 .byte   N23 ,Gs3
 .byte   W24
@ 163   ----------------------------------------
 .byte   N32 ,Ds3
 .byte   W36
 .byte   N80 ,Cn4
 .byte   W60
@ 164   ----------------------------------------
 .byte   W24
 .byte   N68 ,Cs4
 .byte   W72
@ 165   ----------------------------------------
 .byte   N44 ,Fs3
 .byte   W48
 .byte   As3
 .byte   W48
@ 166   ----------------------------------------
 .byte   An3
 .byte   W48
 .byte   Fn3
 .byte   W48
@ 167   ----------------------------------------
 .byte   N32 ,Ds3
 .byte   W36
 .byte   TIE ,Cs3
 .byte   W60
@ 168   ----------------------------------------
 .byte   W92
 .byte   W03
 .byte   EOT
 .byte   W01
@ 169   ----------------------------------------
Label_15_01290FE7:
 .byte   N11 ,Cs3 ,v060
 .byte   W03
 .byte   W01
 .byte   W01
 .byte   W19
 .byte   N11
 .byte   W03
 .byte   W01
 .byte   W01
 .byte   W19
 .byte   N11
 .byte   W03
 .byte   W01
 .byte   W01
 .byte   W19
 .byte   N11
 .byte   W03
 .byte   W01
 .byte   W01
 .byte   W19
 .byte   PEND 
 .byte   PATT
  .word Label_15_01290FE7
 .byte   PATT
  .word Label_15_01290FE7
 .byte   PATT
  .word Label_15_01290FE7
 .byte   PATT
  .word Label_15_01290FE7
 .byte   PATT
  .word Label_15_01290FE7
@ 170   ----------------------------------------
Label_15_01291017:
 .byte   N11 ,Cn3 ,v060
 .byte   W03
 .byte   W01
 .byte   W01
 .byte   W19
 .byte   N11
 .byte   W03
 .byte   W01
 .byte   W01
 .byte   W19
 .byte   N11
 .byte   W03
 .byte   W01
 .byte   W01
 .byte   W19
 .byte   N11
 .byte   W03
 .byte   W01
 .byte   W01
 .byte   W19
 .byte   PEND 
 .byte   PATT
  .word Label_15_01291017
@ 171   ----------------------------------------
Label_15_01291033:
 .byte   N11 ,Dn3 ,v060
 .byte   W03
 .byte   W01
 .byte   W01
 .byte   W19
 .byte   N11
 .byte   W03
 .byte   W01
 .byte   W01
 .byte   W19
 .byte   N11
 .byte   W03
 .byte   W01
 .byte   W01
 .byte   W19
 .byte   N11
 .byte   W03
 .byte   W01
 .byte   W01
 .byte   W19
 .byte   PEND 
 .byte   PATT
  .word Label_15_01291033
@ 172   ----------------------------------------
 .byte   GOTO
  .word Label_15_01290D3A
 .byte   FINE

@******************************************************@
	.align	2

song0E:
	.byte	16	@ NumTrks
	.byte	0	@ NumBlks
	.byte	song0E_pri	@ Priority
	.byte	song0E_rev	@ Reverb.
    
	.word	song0E_grp
    
	.word	song0E_001
	.word	song0E_002
	.word	song0E_003
	.word	song0E_004
	.word	song0E_005
	.word	song0E_006
	.word	song0E_007
	.word	song0E_008
	.word	song0E_009
	.word	song0E_010
	.word	song0E_011
	.word	song0E_012
	.word	song0E_013
	.word	song0E_014
	.word	song0E_015
	.word	song0E_016

	.end
