	.include "MPlayDef.s"

	.equ	song58_grp, voicegroup000
	.equ	song58_pri, 0
	.equ	song58_rev, 0
	.equ	song58_mvl, 127
	.equ	song58_key, 0
	.equ	song58_tbs, 1
	.equ	song58_exg, 0
	.equ	song58_cmp, 1

	.section .rodata
	.global	song58
	.align	2


@**************** Track 1 (Midi-Chn.0) ****************@

song58_001:
@  #01 @000   ----------------------------------------
 .byte   KEYSH , song58_key+0
 .byte   TEMPO , 200*song58_tbs/2
 .byte   VOICE , 38
 .byte   VOL , 23*song58_mvl/mxv
 .byte   W48
 .byte   TEMPO , 130*song58_tbs/2
 .byte   N12 ,An1 ,v107
 .byte   W12
 .byte   N05
 .byte   W06
 .byte   An1
 .byte   W06
 .byte   N12
 .byte   W12
 .byte   N05
 .byte   W06
 .byte   An1
 .byte   W06
@  #01 @001   ----------------------------------------
Label_012A97E9:
 .byte   N12 ,An1 ,v107
 .byte   W12
 .byte   N05
 .byte   W06
 .byte   An1
 .byte   W06
 .byte   N12
 .byte   W12
 .byte   N05
 .byte   W06
 .byte   An1
 .byte   W06
 .byte   N12
 .byte   W12
 .byte   N05
 .byte   W06
 .byte   An1
 .byte   W06
 .byte   N12
 .byte   W12
 .byte   N05
 .byte   W06
 .byte   An1
 .byte   W06
 .byte   PEND 
@  #01 @002   ----------------------------------------
 .byte   PATT
  .word Label_012A97E9
@  #01 @003   ----------------------------------------
 .byte   PATT
  .word Label_012A97E9
@  #01 @004   ----------------------------------------
 .byte   PATT
  .word Label_012A97E9
@  #01 @005   ----------------------------------------
 .byte   PATT
  .word Label_012A97E9
@  #01 @006   ----------------------------------------
 .byte   PATT
  .word Label_012A97E9
@  #01 @007   ----------------------------------------
 .byte   PATT
  .word Label_012A97E9
@  #01 @008   ----------------------------------------
 .byte   PATT
  .word Label_012A97E9
@  #01 @009   ----------------------------------------
 .byte   PATT
  .word Label_012A97E9
@  #01 @010   ----------------------------------------
 .byte   PATT
  .word Label_012A97E9
@  #01 @011   ----------------------------------------
 .byte   PATT
  .word Label_012A97E9
@  #01 @012   ----------------------------------------
 .byte   PATT
  .word Label_012A97E9
@  #01 @013   ----------------------------------------
 .byte   PATT
  .word Label_012A97E9
@  #01 @014   ----------------------------------------
 .byte   PATT
  .word Label_012A97E9
@  #01 @015   ----------------------------------------
 .byte   PATT
  .word Label_012A97E9
@  #01 @016   ----------------------------------------
 .byte   PATT
  .word Label_012A97E9
@  #01 @017   ----------------------------------------
 .byte   PATT
  .word Label_012A97E9
@  #01 @018   ----------------------------------------
 .byte   PATT
  .word Label_012A97E9
@  #01 @019   ----------------------------------------
 .byte   PATT
  .word Label_012A97E9
@  #01 @020   ----------------------------------------
 .byte   N12 ,An1 ,v107
 .byte   W12
 .byte   N05
 .byte   W06
 .byte   An1
 .byte   W06
 .byte   N12
 .byte   W12
 .byte   N05
 .byte   W06
 .byte   An1
 .byte   W06
 .byte   N12 ,Cn2
 .byte   W12
 .byte   N05
 .byte   W06
 .byte   Cn2
 .byte   W06
 .byte   N12
 .byte   W12
 .byte   N05
 .byte   W06
 .byte   Cn2
 .byte   W06
@  #01 @021   ----------------------------------------
 .byte   N12
 .byte   W12
 .byte   N05
 .byte   W06
 .byte   Cn2
 .byte   W06
 .byte   N12
 .byte   W12
 .byte   N05
 .byte   W06
 .byte   Cn2
 .byte   W06
Label_012A9885:
 .byte   N12 ,Cn2 ,v107
 .byte   W12
 .byte   N05
 .byte   W06
 .byte   Cn2
 .byte   W06
 .byte   N12
 .byte   W12
 .byte   N05
 .byte   W06
 .byte   Cn2
 .byte   W06
@  #01 @022   ----------------------------------------
Label_012A9893:
 .byte   N12 ,Cn2 ,v107
 .byte   W12
 .byte   N05
 .byte   W06
 .byte   Cn2
 .byte   W06
 .byte   N12
 .byte   W12
 .byte   N05
 .byte   W06
 .byte   Cn2
 .byte   W06
 .byte   N12
 .byte   W12
 .byte   N05
 .byte   W06
 .byte   Cn2
 .byte   W06
 .byte   N12
 .byte   W12
 .byte   N05
 .byte   W06
 .byte   Cn2
 .byte   W06
 .byte   PEND 
@  #01 @023   ----------------------------------------
 .byte   PATT
  .word Label_012A9893
@  #01 @024   ----------------------------------------
 .byte   PATT
  .word Label_012A9893
@  #01 @025   ----------------------------------------
 .byte   PATT
  .word Label_012A9893
@  #01 @026   ----------------------------------------
 .byte   PATT
  .word Label_012A9893
@  #01 @027   ----------------------------------------
 .byte   PATT
  .word Label_012A9893
@  #01 @028   ----------------------------------------
 .byte   PATT
  .word Label_012A9893
@  #01 @029   ----------------------------------------
 .byte   PATT
  .word Label_012A9893
@  #01 @030   ----------------------------------------
 .byte   PATT
  .word Label_012A9893
@  #01 @031   ----------------------------------------
 .byte   PATT
  .word Label_012A9893
@  #01 @032   ----------------------------------------
 .byte   PATT
  .word Label_012A9893
@  #01 @033   ----------------------------------------
 .byte   PATT
  .word Label_012A9893
@  #01 @034   ----------------------------------------
 .byte   PATT
  .word Label_012A9893
@  #01 @035   ----------------------------------------
 .byte   PATT
  .word Label_012A9893
@  #01 @036   ----------------------------------------
 .byte   PATT
  .word Label_012A9893
@  #01 @037   ----------------------------------------
 .byte   PATT
  .word Label_012A9893
@  #01 @038   ----------------------------------------
 .byte   PATT
  .word Label_012A9893
@  #01 @039   ----------------------------------------
 .byte   PATT
  .word Label_012A9893
@  #01 @040   ----------------------------------------
 .byte   N12 ,Bn1 ,v107
 .byte   W12
 .byte   N05 ,Cn2
 .byte   W06
 .byte   Cn2
 .byte   W06
 .byte   N12
 .byte   W12
 .byte   N05
 .byte   W06
 .byte   Cn2
 .byte   W06
 .byte   GOTO
  .word Label_012A9885
 .byte   FINE

@**************** Track 2 (Midi-Chn.1) ****************@

song58_002:
@  #02 @000   ----------------------------------------
 .byte   KEYSH , song58_key+0
 .byte   VOICE , 56
 .byte   VOL , 52*song58_mvl/mxv
 .byte   W96
@  #02 @001   ----------------------------------------
 .byte   W96
@  #02 @002   ----------------------------------------
 .byte   W96
@  #02 @003   ----------------------------------------
 .byte   W96
@  #02 @004   ----------------------------------------
 .byte   W96
@  #02 @005   ----------------------------------------
 .byte   W96
@  #02 @006   ----------------------------------------
 .byte   W96
@  #02 @007   ----------------------------------------
 .byte   W96
@  #02 @008   ----------------------------------------
 .byte   W96
@  #02 @009   ----------------------------------------
 .byte   W96
@  #02 @010   ----------------------------------------
 .byte   W96
@  #02 @011   ----------------------------------------
 .byte   W48
 .byte   N92 ,Cn3 ,v101 ,gtp3
 .byte   En3
 .byte   N92 ,Gn3 ,v101 ,gtp3
 .byte   W03
 .byte   VOL , 41*song58_mvl/mxv
 .byte   W03
 .byte   VOL , 42*song58_mvl/mxv
 .byte   W03
 .byte   VOL , 43*song58_mvl/mxv
 .byte   W03
 .byte   VOL , 44*song58_mvl/mxv
 .byte   W03
 .byte   VOL , 45*song58_mvl/mxv
 .byte   W06
 .byte   VOL , 46*song58_mvl/mxv
 .byte   W03
 .byte   VOL , 47*song58_mvl/mxv
 .byte   W03
 .byte   VOL , 48*song58_mvl/mxv
 .byte   W06
 .byte   VOL , 49*song58_mvl/mxv
 .byte   W03
 .byte   VOL , 50*song58_mvl/mxv
 .byte   W06
 .byte   VOL , 51*song58_mvl/mxv
 .byte   W06
@  #02 @012   ----------------------------------------
 .byte   VOL , 52*song58_mvl/mxv
 .byte   W06
 .byte   VOL , 53*song58_mvl/mxv
 .byte   W06
 .byte   VOL , 54*song58_mvl/mxv
 .byte   W03
 .byte   VOL , 55*song58_mvl/mxv
 .byte   W03
 .byte   VOL , 56*song58_mvl/mxv
 .byte   W06
 .byte   VOL , 57*song58_mvl/mxv
 .byte   W03
 .byte   VOL , 58*song58_mvl/mxv
 .byte   W06
 .byte   VOL , 59*song58_mvl/mxv
 .byte   W03
 .byte   VOL , 60*song58_mvl/mxv
 .byte   W06
 .byte   VOL , 61*song58_mvl/mxv
 .byte   W06
 .byte   VOL , 48*song58_mvl/mxv
 .byte   N36 ,An2 ,v107
 .byte   W36
 .byte   N12 ,Cn3
 .byte   W12
@  #02 @013   ----------------------------------------
 .byte   N96 ,Gn3
 .byte   W96
@  #02 @014   ----------------------------------------
Label_012A96EA:
 .byte   N18 ,Fs3 ,v107
 .byte   W18
 .byte   Dn3
 .byte   W18
 .byte   N12 ,An2
 .byte   W12
 .byte   N36 ,Cn3
 .byte   W36
 .byte   N12 ,En3
 .byte   W12
 .byte   PEND 
@  #02 @015   ----------------------------------------
 .byte   N96 ,Bn3
 .byte   W96
@  #02 @016   ----------------------------------------
Label_012A96FD:
 .byte   N18 ,Gn3 ,v107
 .byte   W18
 .byte   En3
 .byte   W18
 .byte   N12 ,Bn2
 .byte   W12
 .byte   N36 ,An2
 .byte   W36
 .byte   N12 ,Cn3
 .byte   W12
 .byte   PEND 
@  #02 @017   ----------------------------------------
 .byte   N96 ,Gn3
 .byte   W96
@  #02 @018   ----------------------------------------
Label_012A9710:
 .byte   N18 ,Fs3 ,v107
 .byte   W18
 .byte   Dn3
 .byte   W18
 .byte   N12 ,Fs3
 .byte   W12
 .byte   N36 ,En3
 .byte   W36
 .byte   N12 ,Bn3
 .byte   W12
 .byte   PEND 
@  #02 @019   ----------------------------------------
Label_012A9720:
 .byte   N36 ,Dn4 ,v107
 .byte   W36
 .byte   N12 ,Cn4
 .byte   W12
 .byte   N92 ,Bn3 ,v107 ,gtp3
 .byte   W48
 .byte   PEND 
@  #02 @020   ----------------------------------------
 .byte   W96
@  #02 @021   ----------------------------------------
 .byte   W48
Label_012A972F:
 .byte   W48
@  #02 @022   ----------------------------------------
 .byte   W96
@  #02 @023   ----------------------------------------
 .byte   W96
@  #02 @024   ----------------------------------------
 .byte   W96
@  #02 @025   ----------------------------------------
 .byte   W96
@  #02 @026   ----------------------------------------
 .byte   W96
@  #02 @027   ----------------------------------------
 .byte   W96
@  #02 @028   ----------------------------------------
 .byte   W96
@  #02 @029   ----------------------------------------
 .byte   W96
@  #02 @030   ----------------------------------------
 .byte   W96
@  #02 @031   ----------------------------------------
 .byte   W48
 .byte   VOL , 52*song58_mvl/mxv
 .byte   N92 ,Ds3 ,v094 ,gtp3
 .byte   Gn3
 .byte   N92 ,As3 ,v094 ,gtp3
 .byte   Dn4
 .byte   W03
 .byte   VOL , 41*song58_mvl/mxv
 .byte   W03
 .byte   VOL , 42*song58_mvl/mxv
 .byte   W03
 .byte   VOL , 43*song58_mvl/mxv
 .byte   W03
 .byte   VOL , 44*song58_mvl/mxv
 .byte   W03
 .byte   VOL , 45*song58_mvl/mxv
 .byte   W06
 .byte   VOL , 46*song58_mvl/mxv
 .byte   W03
 .byte   VOL , 47*song58_mvl/mxv
 .byte   W03
 .byte   VOL , 48*song58_mvl/mxv
 .byte   W06
 .byte   VOL , 49*song58_mvl/mxv
 .byte   W03
 .byte   VOL , 50*song58_mvl/mxv
 .byte   W06
 .byte   VOL , 51*song58_mvl/mxv
 .byte   W06
@  #02 @032   ----------------------------------------
 .byte   VOL , 52*song58_mvl/mxv
 .byte   W06
 .byte   VOL , 53*song58_mvl/mxv
 .byte   W06
 .byte   VOL , 54*song58_mvl/mxv
 .byte   W03
 .byte   VOL , 55*song58_mvl/mxv
 .byte   W03
 .byte   VOL , 56*song58_mvl/mxv
 .byte   W06
 .byte   VOL , 57*song58_mvl/mxv
 .byte   W03
 .byte   VOL , 58*song58_mvl/mxv
 .byte   W06
 .byte   VOL , 59*song58_mvl/mxv
 .byte   W03
 .byte   VOL , 60*song58_mvl/mxv
 .byte   W06
 .byte   VOL , 61*song58_mvl/mxv
 .byte   W06
 .byte   VOL , 48*song58_mvl/mxv
 .byte   N36 ,Cn3 ,v107
 .byte   W36
 .byte   N12 ,Ds3
 .byte   W12
@  #02 @033   ----------------------------------------
 .byte   N96 ,As3
 .byte   W96
@  #02 @034   ----------------------------------------
Label_012A977D:
 .byte   N18 ,An3 ,v107
 .byte   W18
 .byte   Fn3
 .byte   W18
 .byte   N12 ,Cn3
 .byte   W12
 .byte   N36 ,Ds3
 .byte   W36
 .byte   N12 ,Gn3
 .byte   W12
 .byte   PEND 
@  #02 @035   ----------------------------------------
 .byte   N96 ,Dn4
 .byte   W96
@  #02 @036   ----------------------------------------
Label_012A9790:
 .byte   N18 ,As3 ,v107
 .byte   W18
 .byte   Gn3
 .byte   W18
 .byte   N12 ,Dn3
 .byte   W12
 .byte   N36 ,Cn3
 .byte   W36
 .byte   N12 ,Ds3
 .byte   W12
 .byte   PEND 
@  #02 @037   ----------------------------------------
 .byte   N96 ,As3
 .byte   W96
@  #02 @038   ----------------------------------------
Label_012A97A3:
 .byte   N18 ,An3 ,v107
 .byte   W18
 .byte   Fn3
 .byte   W18
 .byte   N12 ,An3
 .byte   W12
 .byte   N36 ,Gn3
 .byte   W36
 .byte   N12 ,Dn4
 .byte   W12
 .byte   PEND 
@  #02 @039   ----------------------------------------
Label_012A97B3:
 .byte   N36 ,Fn4 ,v107
 .byte   W36
 .byte   N12 ,Ds4
 .byte   W12
 .byte   N92 ,Dn4 ,v107 ,gtp3
 .byte   W48
 .byte   PEND 
@  #02 @040   ----------------------------------------
 .byte   W48
 .byte   GOTO
  .word Label_012A972F
 .byte   FINE

@**************** Track 3 (Midi-Chn.2) ****************@

song58_003:
@  #03 @000   ----------------------------------------
 .byte   KEYSH , song58_key+0
 .byte   W01
 .byte   VOICE , 57
 .byte   VOL , 62*song58_mvl/mxv
 .byte   PAN , c_v-24
 .byte   W92
 .byte   W03
@  #03 @001   ----------------------------------------
 .byte   W96
@  #03 @002   ----------------------------------------
 .byte   W96
@  #03 @003   ----------------------------------------
 .byte   W96
@  #03 @004   ----------------------------------------
 .byte   W48
 .byte   N36 ,An2 ,v107
 .byte   W36
 .byte   N12 ,Cn3
 .byte   W12
@  #03 @005   ----------------------------------------
 .byte   N96 ,Gn3
 .byte   W96
@  #03 @006   ----------------------------------------
 .byte   PATT
  .word Label_012A96EA
@  #03 @007   ----------------------------------------
 .byte   N96 ,Bn3 ,v107
 .byte   W96
@  #03 @008   ----------------------------------------
 .byte   PATT
  .word Label_012A96FD
@  #03 @009   ----------------------------------------
 .byte   N96 ,Gn3 ,v107
 .byte   W96
@  #03 @010   ----------------------------------------
 .byte   N18 ,Fs3
 .byte   W18
 .byte   Dn3
 .byte   W18
 .byte   N12 ,Fs3
 .byte   W12
 .byte   TIE ,En3
 .byte   W48
@  #03 @011   ----------------------------------------
 .byte   W09
 .byte   VOL , 61*song58_mvl/mxv
 .byte   W06
 .byte   VOL , 60*song58_mvl/mxv
 .byte   W09
 .byte   VOL , 59*song58_mvl/mxv
 .byte   W06
 .byte   VOL , 58*song58_mvl/mxv
 .byte   W06
 .byte   VOL , 57*song58_mvl/mxv
 .byte   W09
 .byte   VOL , 56*song58_mvl/mxv
 .byte   W06
 .byte   VOL , 55*song58_mvl/mxv
 .byte   W03
 .byte   VOL , 54*song58_mvl/mxv
 .byte   W09
 .byte   VOL , 53*song58_mvl/mxv
 .byte   W06
 .byte   VOL , 52*song58_mvl/mxv
 .byte   W09
 .byte   VOL , 51*song58_mvl/mxv
 .byte   W09
 .byte   VOL , 50*song58_mvl/mxv
 .byte   W09
@  #03 @012   ----------------------------------------
 .byte   VOL , 49*song58_mvl/mxv
 .byte   W06
 .byte   VOL , 48*song58_mvl/mxv
 .byte   W06
 .byte   VOL , 47*song58_mvl/mxv
 .byte   W06
 .byte   VOL , 46*song58_mvl/mxv
 .byte   W06
 .byte   VOL , 45*song58_mvl/mxv
 .byte   W06
 .byte   VOL , 44*song58_mvl/mxv
 .byte   W06
 .byte   VOL , 43*song58_mvl/mxv
 .byte   W06
 .byte   VOL , 42*song58_mvl/mxv
 .byte   W03
 .byte   VOL , 41*song58_mvl/mxv
 .byte   W02
 .byte   EOT
 .byte   W01
 .byte   VOL , 62*song58_mvl/mxv
 .byte   N36 ,An2
 .byte   W36
 .byte   N12 ,Cn3
 .byte   W12
@  #03 @013   ----------------------------------------
 .byte   N96 ,Gn3
 .byte   W96
@  #03 @014   ----------------------------------------
 .byte   PATT
  .word Label_012A96EA
@  #03 @015   ----------------------------------------
 .byte   N96 ,Bn3 ,v107
 .byte   W96
@  #03 @016   ----------------------------------------
 .byte   PATT
  .word Label_012A96FD
@  #03 @017   ----------------------------------------
 .byte   N96 ,Gn3 ,v107
 .byte   W96
@  #03 @018   ----------------------------------------
 .byte   PATT
  .word Label_012A9710
@  #03 @019   ----------------------------------------
 .byte   PATT
  .word Label_012A9720
@  #03 @020   ----------------------------------------
 .byte   W96
@  #03 @021   ----------------------------------------
 .byte   W48
Label_012AA219:
 .byte   W48
@  #03 @022   ----------------------------------------
 .byte   W96
@  #03 @023   ----------------------------------------
 .byte   W96
@  #03 @024   ----------------------------------------
Label_012AA21C:
 .byte   W48
 .byte   N36 ,Cn3 ,v107
 .byte   W36
 .byte   N12 ,Ds3
 .byte   W12
 .byte   PEND 
@  #03 @025   ----------------------------------------
 .byte   N96 ,As3
 .byte   W96
@  #03 @026   ----------------------------------------
 .byte   PATT
  .word Label_012A977D
@  #03 @027   ----------------------------------------
 .byte   N96 ,Dn4 ,v107
 .byte   W96
@  #03 @028   ----------------------------------------
 .byte   PATT
  .word Label_012A9790
@  #03 @029   ----------------------------------------
 .byte   N96 ,As3 ,v107
 .byte   W96
@  #03 @030   ----------------------------------------
 .byte   N18 ,An3
 .byte   W18
 .byte   Fn3
 .byte   W18
 .byte   N12 ,An3
 .byte   W12
 .byte   N84 ,Gn3
 .byte   W48
@  #03 @031   ----------------------------------------
 .byte   W36
 .byte   N06 ,Fn3
 .byte   W06
 .byte   Ds3
 .byte   W06
 .byte   N92 ,Gn2 ,v087 ,gtp3
 .byte   As2
 .byte   N92 ,Dn3 ,v107 ,gtp3
 .byte   W48
@  #03 @032   ----------------------------------------
 .byte   PATT
  .word Label_012AA21C
@  #03 @033   ----------------------------------------
 .byte   N96 ,As3 ,v107
 .byte   W96
@  #03 @034   ----------------------------------------
 .byte   PATT
  .word Label_012A977D
@  #03 @035   ----------------------------------------
 .byte   N96 ,Dn4 ,v107
 .byte   W96
@  #03 @036   ----------------------------------------
 .byte   PATT
  .word Label_012A9790
@  #03 @037   ----------------------------------------
 .byte   N96 ,As3 ,v107
 .byte   W96
@  #03 @038   ----------------------------------------
 .byte   PATT
  .word Label_012A97A3
@  #03 @039   ----------------------------------------
 .byte   PATT
  .word Label_012A97B3
@  #03 @040   ----------------------------------------
 .byte   W48
 .byte   GOTO
  .word Label_012AA219
 .byte   FINE

@**************** Track 4 (Midi-Chn.3) ****************@

song58_004:
@  #04 @000   ----------------------------------------
 .byte   KEYSH , song58_key+0
 .byte   W01
 .byte   VOICE , 60
 .byte   VOL , 48*song58_mvl/mxv
 .byte   PAN , c_v+31
 .byte   W92
 .byte   W03
@  #04 @001   ----------------------------------------
 .byte   W96
@  #04 @002   ----------------------------------------
 .byte   W96
@  #04 @003   ----------------------------------------
 .byte   W96
@  #04 @004   ----------------------------------------
 .byte   W48
 .byte   N36 ,An2 ,v118
 .byte   W36
 .byte   N12 ,Cn3
 .byte   W12
@  #04 @005   ----------------------------------------
 .byte   N96 ,Gn3
 .byte   W96
@  #04 @006   ----------------------------------------
Label_012A9FB9:
 .byte   N18 ,Fs3 ,v118
 .byte   W18
 .byte   Dn3
 .byte   W18
 .byte   N12 ,An2
 .byte   W12
 .byte   N36 ,Cn3
 .byte   W36
 .byte   N12 ,En3
 .byte   W12
 .byte   PEND 
@  #04 @007   ----------------------------------------
 .byte   N96 ,Bn3
 .byte   W96
@  #04 @008   ----------------------------------------
Label_012A9FCC:
 .byte   N18 ,Gn3 ,v118
 .byte   W18
 .byte   En3
 .byte   W18
 .byte   N12 ,Bn2
 .byte   W12
 .byte   N36 ,An2
 .byte   W36
 .byte   N12 ,Cn3
 .byte   W12
 .byte   PEND 
@  #04 @009   ----------------------------------------
 .byte   N96 ,Gn3
 .byte   W96
@  #04 @010   ----------------------------------------
 .byte   N18 ,Fs3
 .byte   W18
 .byte   Dn3
 .byte   W18
 .byte   N12 ,Fs3
 .byte   W12
 .byte   TIE ,En3
 .byte   W48
@  #04 @011   ----------------------------------------
 .byte   W06
 .byte   VOL , 47*song58_mvl/mxv
 .byte   W06
 .byte   VOL , 46*song58_mvl/mxv
 .byte   W03
 .byte   VOL , 45*song58_mvl/mxv
 .byte   W09
 .byte   VOL , 44*song58_mvl/mxv
 .byte   W06
 .byte   VOL , 43*song58_mvl/mxv
 .byte   W09
 .byte   VOL , 42*song58_mvl/mxv
 .byte   W03
 .byte   VOL , 41*song58_mvl/mxv
 .byte   W15
 .byte   VOL , 40*song58_mvl/mxv
 .byte   W03
 .byte   VOL , 39*song58_mvl/mxv
 .byte   W09
 .byte   VOL , 38*song58_mvl/mxv
 .byte   W03
 .byte   VOL , 37*song58_mvl/mxv
 .byte   W06
 .byte   VOL , 36*song58_mvl/mxv
 .byte   W09
 .byte   VOL , 35*song58_mvl/mxv
 .byte   W03
 .byte   VOL , 34*song58_mvl/mxv
 .byte   W06
@  #04 @012   ----------------------------------------
 .byte   VOL , 33*song58_mvl/mxv
 .byte   W06
 .byte   VOL , 32*song58_mvl/mxv
 .byte   W06
 .byte   VOL , 31*song58_mvl/mxv
 .byte   W03
 .byte   VOL , 30*song58_mvl/mxv
 .byte   W09
 .byte   VOL , 29*song58_mvl/mxv
 .byte   W03
 .byte   VOL , 28*song58_mvl/mxv
 .byte   W12
 .byte   VOL , 27*song58_mvl/mxv
 .byte   W03
 .byte   VOL , 26*song58_mvl/mxv
 .byte   W05
 .byte   EOT
 .byte   W01
 .byte   VOL , 48*song58_mvl/mxv
 .byte   N36 ,An2
 .byte   W36
 .byte   N12 ,Cn3
 .byte   W12
@  #04 @013   ----------------------------------------
 .byte   N96 ,Gn3
 .byte   W96
@  #04 @014   ----------------------------------------
 .byte   PATT
  .word Label_012A9FB9
@  #04 @015   ----------------------------------------
 .byte   N96 ,Bn3 ,v118
 .byte   W96
@  #04 @016   ----------------------------------------
 .byte   PATT
  .word Label_012A9FCC
@  #04 @017   ----------------------------------------
 .byte   N96 ,Gn3 ,v118
 .byte   W96
@  #04 @018   ----------------------------------------
 .byte   N18 ,Fs3
 .byte   W18
 .byte   Dn3
 .byte   W18
 .byte   N12 ,Fs3
 .byte   W12
 .byte   N36 ,En3
 .byte   W36
 .byte   N12 ,Bn3
 .byte   W12
@  #04 @019   ----------------------------------------
 .byte   N36 ,Dn4
 .byte   W36
 .byte   N12 ,Cn4
 .byte   W12
 .byte   N92 ,Bn3 ,v118 ,gtp3
 .byte   W48
@  #04 @020   ----------------------------------------
 .byte   W96
@  #04 @021   ----------------------------------------
 .byte   W48
Label_012AA052:
 .byte   W48
@  #04 @022   ----------------------------------------
 .byte   W96
@  #04 @023   ----------------------------------------
 .byte   W96
@  #04 @024   ----------------------------------------
Label_012AA055:
 .byte   W48
 .byte   N36 ,Cn3 ,v118
 .byte   W36
 .byte   N12 ,Ds3
 .byte   W12
 .byte   PEND 
@  #04 @025   ----------------------------------------
 .byte   N96 ,As3
 .byte   W96
@  #04 @026   ----------------------------------------
Label_012AA061:
 .byte   N18 ,An3 ,v118
 .byte   W18
 .byte   Fn3
 .byte   W18
 .byte   N12 ,Cn3
 .byte   W12
 .byte   N36 ,Ds3
 .byte   W36
 .byte   N12 ,Gn3
 .byte   W12
 .byte   PEND 
@  #04 @027   ----------------------------------------
 .byte   N96 ,Dn4
 .byte   W96
@  #04 @028   ----------------------------------------
Label_012AA074:
 .byte   N18 ,As3 ,v118
 .byte   W18
 .byte   Gn3
 .byte   W18
 .byte   N12 ,Dn3
 .byte   W12
 .byte   N36 ,Cn3
 .byte   W36
 .byte   N12 ,Ds3
 .byte   W12
 .byte   PEND 
@  #04 @029   ----------------------------------------
 .byte   N96 ,As3
 .byte   W96
@  #04 @030   ----------------------------------------
 .byte   N18 ,An3
 .byte   W18
 .byte   Fn3
 .byte   W18
 .byte   N12 ,An3
 .byte   W12
 .byte   N84 ,Gn3
 .byte   W48
@  #04 @031   ----------------------------------------
 .byte   W36
 .byte   N06 ,Fn3
 .byte   W06
 .byte   Ds3
 .byte   W06
 .byte   N92 ,Dn3 ,v118 ,gtp3
 .byte   W48
@  #04 @032   ----------------------------------------
 .byte   PATT
  .word Label_012AA055
@  #04 @033   ----------------------------------------
 .byte   N96 ,As3 ,v118
 .byte   W96
@  #04 @034   ----------------------------------------
 .byte   PATT
  .word Label_012AA061
@  #04 @035   ----------------------------------------
 .byte   N96 ,Dn4 ,v118
 .byte   W96
@  #04 @036   ----------------------------------------
 .byte   PATT
  .word Label_012AA074
@  #04 @037   ----------------------------------------
 .byte   N96 ,As3 ,v118
 .byte   W96
@  #04 @038   ----------------------------------------
 .byte   N18 ,An3
 .byte   W18
 .byte   Fn3
 .byte   W18
 .byte   N12 ,An3
 .byte   W12
 .byte   N36 ,Gn3
 .byte   W36
 .byte   N12 ,Dn4
 .byte   W12
@  #04 @039   ----------------------------------------
 .byte   N36 ,Fn4
 .byte   W36
 .byte   N12 ,Ds4
 .byte   W12
 .byte   N92 ,Dn4 ,v118 ,gtp3
 .byte   W48
@  #04 @040   ----------------------------------------
 .byte   W48
 .byte   GOTO
  .word Label_012AA052
 .byte   FINE

@**************** Track 5 (Midi-Chn.4) ****************@

song58_005:
@  #05 @000   ----------------------------------------
 .byte   KEYSH , song58_key+0
 .byte   W01
 .byte   VOICE , 40
 .byte   W01
 .byte   VOL , 21*song58_mvl/mxv
 .byte   PAN , c_v-28
 .byte   W44
 .byte   W02
 .byte   N06 ,An4 ,v123
 .byte   W06
 .byte   Bn4
 .byte   W06
 .byte   Cn5
 .byte   W06
 .byte   An4
 .byte   W06
 .byte   Dn5
 .byte   W06
 .byte   Cn5
 .byte   W06
 .byte   Bn4
 .byte   W06
 .byte   An4
 .byte   W06
@  #05 @001   ----------------------------------------
Label_012B383E:
 .byte   N06 ,An4 ,v123
 .byte   W06
 .byte   Bn4
 .byte   W06
 .byte   Cn5
 .byte   W06
 .byte   An4
 .byte   W06
 .byte   Bn4
 .byte   W06
 .byte   Cn5
 .byte   W06
 .byte   Dn5
 .byte   W06
 .byte   En5
 .byte   W06
 .byte   An4
 .byte   W06
 .byte   Bn4
 .byte   W06
 .byte   Cn5
 .byte   W06
 .byte   An4
 .byte   W06
 .byte   Dn5
 .byte   W06
 .byte   Cn5
 .byte   W06
 .byte   Bn4
 .byte   W06
 .byte   An4
 .byte   W06
 .byte   PEND 
@  #05 @002   ----------------------------------------
 .byte   PATT
  .word Label_012B383E
@  #05 @003   ----------------------------------------
 .byte   PATT
  .word Label_012B383E
@  #05 @004   ----------------------------------------
 .byte   PATT
  .word Label_012B383E
@  #05 @005   ----------------------------------------
 .byte   PATT
  .word Label_012B383E
@  #05 @006   ----------------------------------------
 .byte   PATT
  .word Label_012B383E
@  #05 @007   ----------------------------------------
 .byte   PATT
  .word Label_012B383E
@  #05 @008   ----------------------------------------
 .byte   PATT
  .word Label_012B383E
@  #05 @009   ----------------------------------------
 .byte   PATT
  .word Label_012B383E
@  #05 @010   ----------------------------------------
 .byte   PATT
  .word Label_012B383E
@  #05 @011   ----------------------------------------
 .byte   PATT
  .word Label_012B383E
@  #05 @012   ----------------------------------------
 .byte   PATT
  .word Label_012B383E
@  #05 @013   ----------------------------------------
 .byte   PATT
  .word Label_012B383E
@  #05 @014   ----------------------------------------
 .byte   PATT
  .word Label_012B383E
@  #05 @015   ----------------------------------------
 .byte   PATT
  .word Label_012B383E
@  #05 @016   ----------------------------------------
 .byte   PATT
  .word Label_012B383E
@  #05 @017   ----------------------------------------
 .byte   PATT
  .word Label_012B383E
@  #05 @018   ----------------------------------------
 .byte   PATT
  .word Label_012B383E
@  #05 @019   ----------------------------------------
 .byte   N06 ,An4 ,v123
 .byte   W06
 .byte   Bn4
 .byte   W06
 .byte   Cn5
 .byte   W06
 .byte   An4
 .byte   W06
 .byte   Bn4
 .byte   W06
 .byte   Cn5
 .byte   W06
 .byte   Dn5
 .byte   W06
 .byte   En5
 .byte   W06
 .byte   An4
 .byte   W03
 .byte   VOL , 22*song58_mvl/mxv
 .byte   W03
 .byte   VOL , 23*song58_mvl/mxv
 .byte   N06 ,Bn4
 .byte   W06
 .byte   VOL , 24*song58_mvl/mxv
 .byte   N06 ,Cn5
 .byte   W06
 .byte   An4
 .byte   W03
 .byte   VOL , 25*song58_mvl/mxv
 .byte   W03
 .byte   VOL , 26*song58_mvl/mxv
 .byte   N06 ,Dn5
 .byte   W03
 .byte   VOL , 27*song58_mvl/mxv
 .byte   W03
 .byte   N06 ,Cn5
 .byte   W06
 .byte   VOL , 28*song58_mvl/mxv
 .byte   N06 ,Bn4
 .byte   W06
 .byte   VOL , 29*song58_mvl/mxv
 .byte   N06 ,An4
 .byte   W03
 .byte   VOL , 30*song58_mvl/mxv
 .byte   W03
@  #05 @020   ----------------------------------------
 .byte   N06
 .byte   W06
 .byte   VOL , 31*song58_mvl/mxv
 .byte   N06 ,Bn4
 .byte   W06
 .byte   VOL , 32*song58_mvl/mxv
 .byte   N06 ,Cn5
 .byte   W03
 .byte   VOL , 33*song58_mvl/mxv
 .byte   W03
 .byte   N06 ,An4
 .byte   W06
 .byte   VOL , 34*song58_mvl/mxv
 .byte   N06 ,Bn4
 .byte   W06
 .byte   VOL , 35*song58_mvl/mxv
 .byte   N06 ,Cn5
 .byte   W06
 .byte   VOL , 36*song58_mvl/mxv
 .byte   N06 ,Dn5
 .byte   W06
 .byte   En5
 .byte   W03
 .byte   VOL , 37*song58_mvl/mxv
 .byte   W03
 .byte   VOL , 21*song58_mvl/mxv
 .byte   N06 ,Cn5
 .byte   W06
 .byte   Dn5
 .byte   W06
 .byte   Ds5
 .byte   W06
 .byte   Cn5
 .byte   W06
 .byte   Fn5
 .byte   W06
 .byte   Ds5
 .byte   W06
 .byte   Dn5
 .byte   W06
 .byte   Cn5
 .byte   W06
@  #05 @021   ----------------------------------------
 .byte   Cn5
 .byte   W06
 .byte   Dn5
 .byte   W06
 .byte   Ds5
 .byte   W06
 .byte   Cn5
 .byte   W06
 .byte   Dn5
 .byte   W06
 .byte   Ds5
 .byte   W06
 .byte   Fn5
 .byte   W06
 .byte   Gn5
 .byte   W06
Label_012B393A:
 .byte   N06 ,Cn5 ,v123
 .byte   W06
 .byte   Dn5
 .byte   W06
 .byte   Ds5
 .byte   W06
 .byte   Cn5
 .byte   W06
 .byte   Fn5
 .byte   W06
 .byte   Ds5
 .byte   W06
 .byte   Dn5
 .byte   W06
 .byte   Cn5
 .byte   W06
@  #05 @022   ----------------------------------------
Label_012B394C:
 .byte   N06 ,Cn5 ,v123
 .byte   W06
 .byte   Dn5
 .byte   W06
 .byte   Ds5
 .byte   W06
 .byte   Cn5
 .byte   W06
 .byte   Dn5
 .byte   W06
 .byte   Ds5
 .byte   W06
 .byte   Fn5
 .byte   W06
 .byte   Gn5
 .byte   W06
 .byte   Cn5
 .byte   W06
 .byte   Dn5
 .byte   W06
 .byte   Ds5
 .byte   W06
 .byte   Cn5
 .byte   W06
 .byte   Fn5
 .byte   W06
 .byte   Ds5
 .byte   W06
 .byte   Dn5
 .byte   W06
 .byte   Cn5
 .byte   W06
 .byte   PEND 
@  #05 @023   ----------------------------------------
 .byte   PATT
  .word Label_012B394C
@  #05 @024   ----------------------------------------
 .byte   PATT
  .word Label_012B394C
@  #05 @025   ----------------------------------------
 .byte   PATT
  .word Label_012B394C
@  #05 @026   ----------------------------------------
 .byte   PATT
  .word Label_012B394C
@  #05 @027   ----------------------------------------
 .byte   PATT
  .word Label_012B394C
@  #05 @028   ----------------------------------------
 .byte   PATT
  .word Label_012B394C
@  #05 @029   ----------------------------------------
 .byte   PATT
  .word Label_012B394C
@  #05 @030   ----------------------------------------
 .byte   PATT
  .word Label_012B394C
@  #05 @031   ----------------------------------------
 .byte   PATT
  .word Label_012B394C
@  #05 @032   ----------------------------------------
 .byte   PATT
  .word Label_012B394C
@  #05 @033   ----------------------------------------
 .byte   PATT
  .word Label_012B394C
@  #05 @034   ----------------------------------------
 .byte   PATT
  .word Label_012B394C
@  #05 @035   ----------------------------------------
 .byte   PATT
  .word Label_012B394C
@  #05 @036   ----------------------------------------
 .byte   PATT
  .word Label_012B394C
@  #05 @037   ----------------------------------------
 .byte   PATT
  .word Label_012B394C
@  #05 @038   ----------------------------------------
 .byte   PATT
  .word Label_012B394C
@  #05 @039   ----------------------------------------
 .byte   N06 ,Cn5 ,v123
 .byte   W06
 .byte   Dn5
 .byte   W06
 .byte   Ds5
 .byte   W06
 .byte   Cn5
 .byte   W06
 .byte   Dn5
 .byte   W06
 .byte   Ds5
 .byte   W06
 .byte   Fn5
 .byte   W06
 .byte   Gn5
 .byte   W06
 .byte   Cn5
 .byte   W06
 .byte   VOL , 22*song58_mvl/mxv
 .byte   N06 ,Dn5
 .byte   W03
 .byte   VOL , 23*song58_mvl/mxv
 .byte   W03
 .byte   N06 ,Ds5
 .byte   W03
 .byte   VOL , 24*song58_mvl/mxv
 .byte   W03
 .byte   N06 ,Cn5
 .byte   W06
 .byte   Fn5
 .byte   W03
 .byte   VOL , 25*song58_mvl/mxv
 .byte   W03
 .byte   VOL , 26*song58_mvl/mxv
 .byte   N06 ,Ds5
 .byte   W06
 .byte   VOL , 27*song58_mvl/mxv
 .byte   N06 ,Dn5
 .byte   W06
 .byte   Cn5
 .byte   W06
@  #05 @040   ----------------------------------------
 .byte   VOL , 28*song58_mvl/mxv
 .byte   N06
 .byte   W06
 .byte   Dn5
 .byte   W03
 .byte   VOL , 29*song58_mvl/mxv
 .byte   W03
 .byte   VOL , 30*song58_mvl/mxv
 .byte   N06 ,Ds5
 .byte   W06
 .byte   Cn5
 .byte   W06
 .byte   VOL , 31*song58_mvl/mxv
 .byte   N06 ,Dn5
 .byte   W06
 .byte   VOL , 32*song58_mvl/mxv
 .byte   N06 ,Ds5
 .byte   W06
 .byte   VOL , 33*song58_mvl/mxv
 .byte   N06 ,Fn5
 .byte   W06
 .byte   Gn5
 .byte   W06
 .byte   VOL , 21*song58_mvl/mxv
 .byte   GOTO
  .word Label_012B393A
 .byte   FINE

@**************** Track 6 (Midi-Chn.5) ****************@

song58_006:
@  #06 @000   ----------------------------------------
 .byte   KEYSH , song58_key+0
 .byte   W01
 .byte   VOICE , 40
 .byte   W01
 .byte   VOL , 27*song58_mvl/mxv
 .byte   PAN , c_v+10
 .byte   W44
 .byte   W02
 .byte   N06 ,An3 ,v123
 .byte   W06
 .byte   Bn3
 .byte   W06
 .byte   Cn4
 .byte   W06
 .byte   An3
 .byte   W06
 .byte   Dn4
 .byte   W06
 .byte   Cn4
 .byte   W06
 .byte   Bn3
 .byte   W06
 .byte   An3
 .byte   W06
@  #06 @001   ----------------------------------------
Label_012B3A3A:
 .byte   N06 ,An3 ,v123
 .byte   W06
 .byte   Bn3
 .byte   W06
 .byte   Cn4
 .byte   W06
 .byte   An3
 .byte   W06
 .byte   Bn3
 .byte   W06
 .byte   Cn4
 .byte   W06
 .byte   Dn4
 .byte   W06
 .byte   En4
 .byte   W06
 .byte   An3
 .byte   W06
 .byte   Bn3
 .byte   W06
 .byte   Cn4
 .byte   W06
 .byte   An3
 .byte   W06
 .byte   Dn4
 .byte   W06
 .byte   Cn4
 .byte   W06
 .byte   Bn3
 .byte   W06
 .byte   An3
 .byte   W06
 .byte   PEND 
@  #06 @002   ----------------------------------------
 .byte   PATT
  .word Label_012B3A3A
@  #06 @003   ----------------------------------------
 .byte   PATT
  .word Label_012B3A3A
@  #06 @004   ----------------------------------------
 .byte   PATT
  .word Label_012B3A3A
@  #06 @005   ----------------------------------------
 .byte   PATT
  .word Label_012B3A3A
@  #06 @006   ----------------------------------------
 .byte   PATT
  .word Label_012B3A3A
@  #06 @007   ----------------------------------------
 .byte   PATT
  .word Label_012B3A3A
@  #06 @008   ----------------------------------------
 .byte   PATT
  .word Label_012B3A3A
@  #06 @009   ----------------------------------------
 .byte   PATT
  .word Label_012B3A3A
@  #06 @010   ----------------------------------------
 .byte   PATT
  .word Label_012B3A3A
@  #06 @011   ----------------------------------------
 .byte   PATT
  .word Label_012B3A3A
@  #06 @012   ----------------------------------------
 .byte   PATT
  .word Label_012B3A3A
@  #06 @013   ----------------------------------------
 .byte   PATT
  .word Label_012B3A3A
@  #06 @014   ----------------------------------------
 .byte   PATT
  .word Label_012B3A3A
@  #06 @015   ----------------------------------------
 .byte   PATT
  .word Label_012B3A3A
@  #06 @016   ----------------------------------------
 .byte   PATT
  .word Label_012B3A3A
@  #06 @017   ----------------------------------------
 .byte   PATT
  .word Label_012B3A3A
@  #06 @018   ----------------------------------------
 .byte   PATT
  .word Label_012B3A3A
@  #06 @019   ----------------------------------------
Label_012B3AB2:
 .byte   N06 ,An3 ,v123
 .byte   W06
 .byte   Bn3
 .byte   W06
 .byte   Cn4
 .byte   W06
 .byte   An3
 .byte   W06
 .byte   Bn3
 .byte   W06
 .byte   Cn4
 .byte   W06
 .byte   Dn4
 .byte   W06
 .byte   En4
 .byte   W06
 .byte   An3
 .byte   W03
 .byte   VOL , 28*song58_mvl/mxv
 .byte   W03
 .byte   VOL , 29*song58_mvl/mxv
 .byte   N06 ,Bn3
 .byte   W06
 .byte   VOL , 30*song58_mvl/mxv
 .byte   N06 ,Cn4
 .byte   W06
 .byte   An3
 .byte   W03
 .byte   VOL , 31*song58_mvl/mxv
 .byte   W03
 .byte   VOL , 32*song58_mvl/mxv
 .byte   N06 ,Dn4
 .byte   W03
 .byte   VOL , 33*song58_mvl/mxv
 .byte   W03
 .byte   N06 ,Cn4
 .byte   W03
 .byte   VOL , 34*song58_mvl/mxv
 .byte   W03
 .byte   N06 ,Bn3
 .byte   W06
 .byte   VOL , 35*song58_mvl/mxv
 .byte   N06 ,An3
 .byte   W03
 .byte   VOL , 36*song58_mvl/mxv
 .byte   W03
 .byte   PEND 
@  #06 @020   ----------------------------------------
Label_012B3AF0:
 .byte   VOL , 37*song58_mvl/mxv
 .byte   N06 ,An3 ,v123
 .byte   W06
 .byte   VOL , 38*song58_mvl/mxv
 .byte   N06 ,Bn3
 .byte   W06
 .byte   Cn4
 .byte   W03
 .byte   VOL , 39*song58_mvl/mxv
 .byte   W03
 .byte   N06 ,An3
 .byte   W03
 .byte   VOL , 40*song58_mvl/mxv
 .byte   W03
 .byte   VOL , 41*song58_mvl/mxv
 .byte   N06 ,Bn3
 .byte   W06
 .byte   VOL , 42*song58_mvl/mxv
 .byte   N06 ,Cn4
 .byte   W06
 .byte   Dn4
 .byte   W03
 .byte   VOL , 43*song58_mvl/mxv
 .byte   W03
 .byte   N06 ,En4
 .byte   W03
 .byte   VOL , 44*song58_mvl/mxv
 .byte   W03
 .byte   VOL , 27*song58_mvl/mxv
 .byte   N06 ,Cn4
 .byte   W06
 .byte   Dn4
 .byte   W06
 .byte   Ds4
 .byte   W06
 .byte   Cn4
 .byte   W06
 .byte   Fn4
 .byte   W06
 .byte   Ds4
 .byte   W06
 .byte   Dn4
 .byte   W06
 .byte   Cn4
 .byte   W06
 .byte   PEND 
@  #06 @021   ----------------------------------------
 .byte   Cn4
 .byte   W06
 .byte   Dn4
 .byte   W06
 .byte   Ds4
 .byte   W06
 .byte   Cn4
 .byte   W06
 .byte   Dn4
 .byte   W06
 .byte   Ds4
 .byte   W06
 .byte   Fn4
 .byte   W06
 .byte   Gn4
 .byte   W06
Label_012B3B3D:
 .byte   N06 ,Cn4 ,v123
 .byte   W06
 .byte   Dn4
 .byte   W06
 .byte   Ds4
 .byte   W06
 .byte   Cn4
 .byte   W06
 .byte   Fn4
 .byte   W06
 .byte   Ds4
 .byte   W06
 .byte   Dn4
 .byte   W06
 .byte   Cn4
 .byte   W06
@  #06 @022   ----------------------------------------
Label_012B3B4F:
 .byte   N06 ,Cn4 ,v123
 .byte   W06
 .byte   Dn4
 .byte   W06
 .byte   Ds4
 .byte   W06
 .byte   Cn4
 .byte   W06
 .byte   Dn4
 .byte   W06
 .byte   Ds4
 .byte   W06
 .byte   Fn4
 .byte   W06
 .byte   Gn4
 .byte   W06
 .byte   Cn4
 .byte   W06
 .byte   Dn4
 .byte   W06
 .byte   Ds4
 .byte   W06
 .byte   Cn4
 .byte   W06
 .byte   Fn4
 .byte   W06
 .byte   Ds4
 .byte   W06
 .byte   Dn4
 .byte   W06
 .byte   Cn4
 .byte   W06
 .byte   PEND 
@  #06 @023   ----------------------------------------
 .byte   PATT
  .word Label_012B3B4F
@  #06 @024   ----------------------------------------
 .byte   PATT
  .word Label_012B3B4F
@  #06 @025   ----------------------------------------
 .byte   PATT
  .word Label_012B3B4F
@  #06 @026   ----------------------------------------
 .byte   PATT
  .word Label_012B3B4F
@  #06 @027   ----------------------------------------
 .byte   PATT
  .word Label_012B3B4F
@  #06 @028   ----------------------------------------
 .byte   PATT
  .word Label_012B3B4F
@  #06 @029   ----------------------------------------
 .byte   PATT
  .word Label_012B3B4F
@  #06 @030   ----------------------------------------
 .byte   PATT
  .word Label_012B3B4F
@  #06 @031   ----------------------------------------
 .byte   PATT
  .word Label_012B3B4F
@  #06 @032   ----------------------------------------
 .byte   PATT
  .word Label_012B3B4F
@  #06 @033   ----------------------------------------
 .byte   PATT
  .word Label_012B3B4F
@  #06 @034   ----------------------------------------
 .byte   PATT
  .word Label_012B3B4F
@  #06 @035   ----------------------------------------
 .byte   PATT
  .word Label_012B3B4F
@  #06 @036   ----------------------------------------
 .byte   PATT
  .word Label_012B3B4F
@  #06 @037   ----------------------------------------
 .byte   PATT
  .word Label_012B3B4F
@  #06 @038   ----------------------------------------
 .byte   PATT
  .word Label_012B3B4F
@  #06 @039   ----------------------------------------
Label_012B3BC2:
 .byte   N06 ,Cn4 ,v123
 .byte   W06
 .byte   Dn4
 .byte   W06
 .byte   Ds4
 .byte   W06
 .byte   Cn4
 .byte   W06
 .byte   Dn4
 .byte   W06
 .byte   Ds4
 .byte   W06
 .byte   Fn4
 .byte   W06
 .byte   Gn4
 .byte   W06
 .byte   Cn4
 .byte   W06
 .byte   VOL , 28*song58_mvl/mxv
 .byte   N06 ,Dn4
 .byte   W03
 .byte   VOL , 29*song58_mvl/mxv
 .byte   W03
 .byte   N06 ,Ds4
 .byte   W03
 .byte   VOL , 30*song58_mvl/mxv
 .byte   W03
 .byte   N06 ,Cn4
 .byte   W06
 .byte   Fn4
 .byte   W03
 .byte   VOL , 31*song58_mvl/mxv
 .byte   W03
 .byte   VOL , 32*song58_mvl/mxv
 .byte   N06 ,Ds4
 .byte   W06
 .byte   VOL , 33*song58_mvl/mxv
 .byte   N06 ,Dn4
 .byte   W06
 .byte   VOL , 34*song58_mvl/mxv
 .byte   N06 ,Cn4
 .byte   W06
 .byte   PEND 
@  #06 @040   ----------------------------------------
 .byte   Cn4
 .byte   W06
 .byte   Dn4
 .byte   W03
 .byte   VOL , 35*song58_mvl/mxv
 .byte   W03
 .byte   VOL , 36*song58_mvl/mxv
 .byte   N06 ,Ds4
 .byte   W06
 .byte   VOL , 37*song58_mvl/mxv
 .byte   N06 ,Cn4
 .byte   W06
 .byte   VOL , 38*song58_mvl/mxv
 .byte   N06 ,Dn4
 .byte   W06
 .byte   Ds4
 .byte   W06
 .byte   VOL , 39*song58_mvl/mxv
 .byte   N06 ,Fn4
 .byte   W06
 .byte   VOL , 40*song58_mvl/mxv
 .byte   N06 ,Gn4
 .byte   W06
 .byte   VOL , 27*song58_mvl/mxv
 .byte   GOTO
  .word Label_012B3B3D
 .byte   FINE

@**************** Track 7 (Midi-Chn.6) ****************@

song58_007:
@  #07 @000   ----------------------------------------
 .byte   KEYSH , song58_key+0
 .byte   W02
 .byte   VOICE , 41
 .byte   W01
 .byte   VOL , 27*song58_mvl/mxv
 .byte   PAN , c_v-24
 .byte   W44
 .byte   W01
 .byte   N06 ,An3 ,v123
 .byte   W06
 .byte   Bn3
 .byte   W06
 .byte   Cn4
 .byte   W06
 .byte   An3
 .byte   W06
 .byte   Dn4
 .byte   W06
 .byte   Cn4
 .byte   W06
 .byte   Bn3
 .byte   W06
 .byte   An3
 .byte   W06
@  #07 @001   ----------------------------------------
 .byte   PATT
  .word Label_012B3A3A
@  #07 @002   ----------------------------------------
 .byte   PATT
  .word Label_012B3A3A
@  #07 @003   ----------------------------------------
 .byte   PATT
  .word Label_012B3A3A
@  #07 @004   ----------------------------------------
 .byte   PATT
  .word Label_012B3A3A
@  #07 @005   ----------------------------------------
 .byte   PATT
  .word Label_012B3A3A
@  #07 @006   ----------------------------------------
 .byte   PATT
  .word Label_012B3A3A
@  #07 @007   ----------------------------------------
 .byte   PATT
  .word Label_012B3A3A
@  #07 @008   ----------------------------------------
 .byte   PATT
  .word Label_012B3A3A
@  #07 @009   ----------------------------------------
 .byte   PATT
  .word Label_012B3A3A
@  #07 @010   ----------------------------------------
 .byte   PATT
  .word Label_012B3A3A
@  #07 @011   ----------------------------------------
 .byte   PATT
  .word Label_012B3A3A
@  #07 @012   ----------------------------------------
 .byte   PATT
  .word Label_012B3A3A
@  #07 @013   ----------------------------------------
 .byte   PATT
  .word Label_012B3A3A
@  #07 @014   ----------------------------------------
 .byte   PATT
  .word Label_012B3A3A
@  #07 @015   ----------------------------------------
 .byte   PATT
  .word Label_012B3A3A
@  #07 @016   ----------------------------------------
 .byte   PATT
  .word Label_012B3A3A
@  #07 @017   ----------------------------------------
 .byte   PATT
  .word Label_012B3A3A
@  #07 @018   ----------------------------------------
 .byte   PATT
  .word Label_012B3A3A
@  #07 @019   ----------------------------------------
 .byte   PATT
  .word Label_012B3AB2
@  #07 @020   ----------------------------------------
 .byte   PATT
  .word Label_012B3AF0
@  #07 @021   ----------------------------------------
 .byte   N06 ,Cn4 ,v123
 .byte   W06
 .byte   Dn4
 .byte   W06
 .byte   Ds4
 .byte   W06
 .byte   Cn4
 .byte   W06
 .byte   Dn4
 .byte   W06
 .byte   Ds4
 .byte   W06
 .byte   Fn4
 .byte   W06
 .byte   Gn4
 .byte   W06
Label_012A9504:
 .byte   N06 ,Cn4 ,v123
 .byte   W06
 .byte   Dn4
 .byte   W06
 .byte   Ds4
 .byte   W06
 .byte   Cn4
 .byte   W06
 .byte   Fn4
 .byte   W06
 .byte   Ds4
 .byte   W06
 .byte   Dn4
 .byte   W06
 .byte   Cn4
 .byte   W06
@  #07 @022   ----------------------------------------
 .byte   PATT
  .word Label_012B3B4F
@  #07 @023   ----------------------------------------
 .byte   PATT
  .word Label_012B3B4F
@  #07 @024   ----------------------------------------
 .byte   PATT
  .word Label_012B3B4F
@  #07 @025   ----------------------------------------
 .byte   PATT
  .word Label_012B3B4F
@  #07 @026   ----------------------------------------
 .byte   PATT
  .word Label_012B3B4F
@  #07 @027   ----------------------------------------
 .byte   PATT
  .word Label_012B3B4F
@  #07 @028   ----------------------------------------
 .byte   PATT
  .word Label_012B3B4F
@  #07 @029   ----------------------------------------
 .byte   PATT
  .word Label_012B3B4F
@  #07 @030   ----------------------------------------
 .byte   PATT
  .word Label_012B3B4F
@  #07 @031   ----------------------------------------
 .byte   PATT
  .word Label_012B3B4F
@  #07 @032   ----------------------------------------
 .byte   PATT
  .word Label_012B3B4F
@  #07 @033   ----------------------------------------
 .byte   PATT
  .word Label_012B3B4F
@  #07 @034   ----------------------------------------
 .byte   PATT
  .word Label_012B3B4F
@  #07 @035   ----------------------------------------
 .byte   PATT
  .word Label_012B3B4F
@  #07 @036   ----------------------------------------
 .byte   PATT
  .word Label_012B3B4F
@  #07 @037   ----------------------------------------
 .byte   PATT
  .word Label_012B3B4F
@  #07 @038   ----------------------------------------
 .byte   PATT
  .word Label_012B3B4F
@  #07 @039   ----------------------------------------
 .byte   PATT
  .word Label_012B3BC2
@  #07 @040   ----------------------------------------
 .byte   N06 ,Cn4 ,v123
 .byte   W06
 .byte   Dn4
 .byte   W03
 .byte   VOL , 35*song58_mvl/mxv
 .byte   W03
 .byte   VOL , 36*song58_mvl/mxv
 .byte   N06 ,Ds4
 .byte   W06
 .byte   VOL , 37*song58_mvl/mxv
 .byte   N06 ,Cn4
 .byte   W06
 .byte   VOL , 38*song58_mvl/mxv
 .byte   N06 ,Dn4
 .byte   W06
 .byte   Ds4
 .byte   W06
 .byte   VOL , 39*song58_mvl/mxv
 .byte   N06 ,Fn4
 .byte   W06
 .byte   VOL , 40*song58_mvl/mxv
 .byte   N06 ,Gn4
 .byte   W06
 .byte   VOL , 27*song58_mvl/mxv
 .byte   GOTO
  .word Label_012A9504
 .byte   FINE

@**************** Track 8 (Midi-Chn.7) ****************@

song58_008:
@  #08 @000   ----------------------------------------
 .byte   KEYSH , song58_key+0
 .byte   W02
 .byte   VOICE , 41
 .byte   W01
 .byte   VOL , 21*song58_mvl/mxv
 .byte   PAN , c_v+22
 .byte   W44
 .byte   W01
 .byte   N06 ,An2 ,v123
 .byte   W06
 .byte   Bn2
 .byte   W06
 .byte   Cn3
 .byte   W06
 .byte   An2
 .byte   W06
 .byte   Dn3
 .byte   W06
 .byte   Cn3
 .byte   W06
 .byte   Bn2
 .byte   W06
 .byte   An2
 .byte   W06
@  #08 @001   ----------------------------------------
Label_012B3C42:
 .byte   N06 ,An2 ,v123
 .byte   W06
 .byte   Bn2
 .byte   W06
 .byte   Cn3
 .byte   W06
 .byte   An2
 .byte   W06
 .byte   Bn2
 .byte   W06
 .byte   Cn3
 .byte   W06
 .byte   Dn3
 .byte   W06
 .byte   En3
 .byte   W06
 .byte   An2
 .byte   W06
 .byte   Bn2
 .byte   W06
 .byte   Cn3
 .byte   W06
 .byte   An2
 .byte   W06
 .byte   Dn3
 .byte   W06
 .byte   Cn3
 .byte   W06
 .byte   Bn2
 .byte   W06
 .byte   An2
 .byte   W06
 .byte   PEND 
@  #08 @002   ----------------------------------------
 .byte   PATT
  .word Label_012B3C42
@  #08 @003   ----------------------------------------
 .byte   PATT
  .word Label_012B3C42
@  #08 @004   ----------------------------------------
 .byte   PATT
  .word Label_012B3C42
@  #08 @005   ----------------------------------------
 .byte   PATT
  .word Label_012B3C42
@  #08 @006   ----------------------------------------
 .byte   PATT
  .word Label_012B3C42
@  #08 @007   ----------------------------------------
 .byte   PATT
  .word Label_012B3C42
@  #08 @008   ----------------------------------------
 .byte   PATT
  .word Label_012B3C42
@  #08 @009   ----------------------------------------
 .byte   PATT
  .word Label_012B3C42
@  #08 @010   ----------------------------------------
 .byte   PATT
  .word Label_012B3C42
@  #08 @011   ----------------------------------------
 .byte   PATT
  .word Label_012B3C42
@  #08 @012   ----------------------------------------
 .byte   PATT
  .word Label_012B3C42
@  #08 @013   ----------------------------------------
 .byte   PATT
  .word Label_012B3C42
@  #08 @014   ----------------------------------------
 .byte   PATT
  .word Label_012B3C42
@  #08 @015   ----------------------------------------
 .byte   PATT
  .word Label_012B3C42
@  #08 @016   ----------------------------------------
 .byte   PATT
  .word Label_012B3C42
@  #08 @017   ----------------------------------------
 .byte   PATT
  .word Label_012B3C42
@  #08 @018   ----------------------------------------
 .byte   PATT
  .word Label_012B3C42
@  #08 @019   ----------------------------------------
 .byte   N06 ,An2 ,v123
 .byte   W06
 .byte   Bn2
 .byte   W06
 .byte   Cn3
 .byte   W06
 .byte   An2
 .byte   W06
 .byte   Bn2
 .byte   W06
 .byte   Cn3
 .byte   W06
 .byte   Dn3
 .byte   W06
 .byte   En3
 .byte   W06
 .byte   An2
 .byte   W03
 .byte   VOL , 22*song58_mvl/mxv
 .byte   W03
 .byte   VOL , 23*song58_mvl/mxv
 .byte   N06 ,Bn2
 .byte   W06
 .byte   VOL , 24*song58_mvl/mxv
 .byte   N06 ,Cn3
 .byte   W06
 .byte   An2
 .byte   W03
 .byte   VOL , 25*song58_mvl/mxv
 .byte   W03
 .byte   VOL , 26*song58_mvl/mxv
 .byte   N06 ,Dn3
 .byte   W03
 .byte   VOL , 27*song58_mvl/mxv
 .byte   W03
 .byte   N06 ,Cn3
 .byte   W06
 .byte   VOL , 28*song58_mvl/mxv
 .byte   N06 ,Bn2
 .byte   W06
 .byte   VOL , 29*song58_mvl/mxv
 .byte   N06 ,An2
 .byte   W03
 .byte   VOL , 30*song58_mvl/mxv
 .byte   W03
@  #08 @020   ----------------------------------------
 .byte   N06
 .byte   W06
 .byte   VOL , 31*song58_mvl/mxv
 .byte   N06 ,Bn2
 .byte   W06
 .byte   VOL , 32*song58_mvl/mxv
 .byte   N06 ,Cn3
 .byte   W03
 .byte   VOL , 33*song58_mvl/mxv
 .byte   W03
 .byte   N06 ,An2
 .byte   W06
 .byte   VOL , 34*song58_mvl/mxv
 .byte   N06 ,Bn2
 .byte   W06
 .byte   VOL , 35*song58_mvl/mxv
 .byte   N06 ,Cn3
 .byte   W06
 .byte   VOL , 36*song58_mvl/mxv
 .byte   N06 ,Dn3
 .byte   W06
 .byte   En3
 .byte   W03
 .byte   VOL , 37*song58_mvl/mxv
 .byte   W03
 .byte   VOL , 21*song58_mvl/mxv
 .byte   N06 ,Cn3
 .byte   W06
 .byte   Dn3
 .byte   W06
 .byte   Ds3
 .byte   W06
 .byte   Cn3
 .byte   W06
 .byte   Fn3
 .byte   W06
 .byte   Ds3
 .byte   W06
 .byte   Dn3
 .byte   W06
 .byte   Cn3
 .byte   W06
@  #08 @021   ----------------------------------------
 .byte   Cn3
 .byte   W06
 .byte   Dn3
 .byte   W06
 .byte   Ds3
 .byte   W06
 .byte   Cn3
 .byte   W06
 .byte   Dn3
 .byte   W06
 .byte   Ds3
 .byte   W06
 .byte   Fn3
 .byte   W06
 .byte   Gn3
 .byte   W06
Label_012B3D3E:
 .byte   N06 ,Cn3 ,v123
 .byte   W06
 .byte   Dn3
 .byte   W06
 .byte   Ds3
 .byte   W06
 .byte   Cn3
 .byte   W06
 .byte   Fn3
 .byte   W06
 .byte   Ds3
 .byte   W06
 .byte   Dn3
 .byte   W06
 .byte   Cn3
 .byte   W06
@  #08 @022   ----------------------------------------
Label_012B3D50:
 .byte   N06 ,Cn3 ,v123
 .byte   W06
 .byte   Dn3
 .byte   W06
 .byte   Ds3
 .byte   W06
 .byte   Cn3
 .byte   W06
 .byte   Dn3
 .byte   W06
 .byte   Ds3
 .byte   W06
 .byte   Fn3
 .byte   W06
 .byte   Gn3
 .byte   W06
 .byte   Cn3
 .byte   W06
 .byte   Dn3
 .byte   W06
 .byte   Ds3
 .byte   W06
 .byte   Cn3
 .byte   W06
 .byte   Fn3
 .byte   W06
 .byte   Ds3
 .byte   W06
 .byte   Dn3
 .byte   W06
 .byte   Cn3
 .byte   W06
 .byte   PEND 
@  #08 @023   ----------------------------------------
 .byte   PATT
  .word Label_012B3D50
@  #08 @024   ----------------------------------------
 .byte   PATT
  .word Label_012B3D50
@  #08 @025   ----------------------------------------
 .byte   PATT
  .word Label_012B3D50
@  #08 @026   ----------------------------------------
 .byte   PATT
  .word Label_012B3D50
@  #08 @027   ----------------------------------------
 .byte   PATT
  .word Label_012B3D50
@  #08 @028   ----------------------------------------
 .byte   PATT
  .word Label_012B3D50
@  #08 @029   ----------------------------------------
 .byte   PATT
  .word Label_012B3D50
@  #08 @030   ----------------------------------------
 .byte   PATT
  .word Label_012B3D50
@  #08 @031   ----------------------------------------
 .byte   PATT
  .word Label_012B3D50
@  #08 @032   ----------------------------------------
 .byte   PATT
  .word Label_012B3D50
@  #08 @033   ----------------------------------------
 .byte   PATT
  .word Label_012B3D50
@  #08 @034   ----------------------------------------
 .byte   PATT
  .word Label_012B3D50
@  #08 @035   ----------------------------------------
 .byte   PATT
  .word Label_012B3D50
@  #08 @036   ----------------------------------------
 .byte   PATT
  .word Label_012B3D50
@  #08 @037   ----------------------------------------
 .byte   PATT
  .word Label_012B3D50
@  #08 @038   ----------------------------------------
 .byte   PATT
  .word Label_012B3D50
@  #08 @039   ----------------------------------------
 .byte   N06 ,Cn3 ,v123
 .byte   W06
 .byte   Dn3
 .byte   W06
 .byte   Ds3
 .byte   W06
 .byte   Cn3
 .byte   W06
 .byte   Dn3
 .byte   W06
 .byte   Ds3
 .byte   W06
 .byte   Fn3
 .byte   W06
 .byte   Gn3
 .byte   W06
 .byte   Cn3
 .byte   W06
 .byte   VOL , 22*song58_mvl/mxv
 .byte   N06 ,Dn3
 .byte   W03
 .byte   VOL , 23*song58_mvl/mxv
 .byte   W03
 .byte   N06 ,Ds3
 .byte   W03
 .byte   VOL , 24*song58_mvl/mxv
 .byte   W03
 .byte   N06 ,Cn3
 .byte   W06
 .byte   Fn3
 .byte   W03
 .byte   VOL , 25*song58_mvl/mxv
 .byte   W03
 .byte   VOL , 26*song58_mvl/mxv
 .byte   N06 ,Ds3
 .byte   W06
 .byte   VOL , 27*song58_mvl/mxv
 .byte   N06 ,Dn3
 .byte   W06
 .byte   Cn3
 .byte   W06
@  #08 @040   ----------------------------------------
 .byte   VOL , 28*song58_mvl/mxv
 .byte   N06
 .byte   W06
 .byte   Dn3
 .byte   W03
 .byte   VOL , 29*song58_mvl/mxv
 .byte   W03
 .byte   VOL , 30*song58_mvl/mxv
 .byte   N06 ,Ds3
 .byte   W06
 .byte   Cn3
 .byte   W06
 .byte   VOL , 31*song58_mvl/mxv
 .byte   N06 ,Dn3
 .byte   W06
 .byte   VOL , 32*song58_mvl/mxv
 .byte   N06 ,Ds3
 .byte   W06
 .byte   VOL , 33*song58_mvl/mxv
 .byte   N06 ,Fn3
 .byte   W06
 .byte   Gn3
 .byte   W06
 .byte   VOL , 21*song58_mvl/mxv
 .byte   GOTO
  .word Label_012B3D3E
 .byte   FINE

@**************** Track 9 (Midi-Chn.8) ****************@

song58_009:
@  #09 @000   ----------------------------------------
 .byte   KEYSH , song58_key+0
 .byte   W03
 .byte   VOICE , 42
 .byte   W01
 .byte   VOL , 66*song58_mvl/mxv
 .byte   PAN , c_v+21
 .byte   W44
 .byte   N06 ,AnM1 ,v123
 .byte   W24
 .byte   AnM1
 .byte   W12
 .byte   AnM1
 .byte   W12
@  #09 @001   ----------------------------------------
Label_012A934B:
 .byte   W12
 .byte   N06 ,AnM1 ,v123
 .byte   W12
 .byte   AnM1
 .byte   W12
 .byte   AnM1
 .byte   W12
 .byte   AnM1
 .byte   W24
 .byte   AnM1
 .byte   W12
 .byte   AnM1
 .byte   W12
 .byte   PEND 
@  #09 @002   ----------------------------------------
 .byte   PATT
  .word Label_012A934B
@  #09 @003   ----------------------------------------
 .byte   PATT
  .word Label_012A934B
@  #09 @004   ----------------------------------------
 .byte   PATT
  .word Label_012A934B
@  #09 @005   ----------------------------------------
 .byte   PATT
  .word Label_012A934B
@  #09 @006   ----------------------------------------
 .byte   PATT
  .word Label_012A934B
@  #09 @007   ----------------------------------------
 .byte   PATT
  .word Label_012A934B
@  #09 @008   ----------------------------------------
 .byte   PATT
  .word Label_012A934B
@  #09 @009   ----------------------------------------
 .byte   PATT
  .word Label_012A934B
@  #09 @010   ----------------------------------------
 .byte   PATT
  .word Label_012A934B
@  #09 @011   ----------------------------------------
 .byte   PATT
  .word Label_012A934B
@  #09 @012   ----------------------------------------
 .byte   PATT
  .word Label_012A934B
@  #09 @013   ----------------------------------------
 .byte   PATT
  .word Label_012A934B
@  #09 @014   ----------------------------------------
 .byte   PATT
  .word Label_012A934B
@  #09 @015   ----------------------------------------
 .byte   PATT
  .word Label_012A934B
@  #09 @016   ----------------------------------------
 .byte   PATT
  .word Label_012A934B
@  #09 @017   ----------------------------------------
 .byte   PATT
  .word Label_012A934B
@  #09 @018   ----------------------------------------
 .byte   PATT
  .word Label_012A934B
@  #09 @019   ----------------------------------------
 .byte   PATT
  .word Label_012A934B
@  #09 @020   ----------------------------------------
 .byte   W12
 .byte   N06 ,AnM1 ,v123
 .byte   W12
 .byte   AnM1
 .byte   W12
 .byte   AnM1
 .byte   W12
 .byte   Cn0
 .byte   W24
 .byte   Cn0
 .byte   W12
 .byte   Cn0
 .byte   W12
@  #09 @021   ----------------------------------------
 .byte   W12
 .byte   Cn0
 .byte   W12
 .byte   Cn0
 .byte   W12
 .byte   Cn0
 .byte   W12
Label_012A93CB:
 .byte   N06 ,Cn0 ,v123
 .byte   W24
 .byte   Cn0
 .byte   W12
 .byte   Cn0
 .byte   W12
@  #09 @022   ----------------------------------------
Label_012A93D3:
 .byte   W12
 .byte   N06 ,Cn0 ,v123
 .byte   W12
 .byte   Cn0
 .byte   W12
 .byte   Cn0
 .byte   W12
 .byte   Cn0
 .byte   W24
 .byte   Cn0
 .byte   W12
 .byte   Cn0
 .byte   W12
 .byte   PEND 
@  #09 @023   ----------------------------------------
 .byte   PATT
  .word Label_012A93D3
@  #09 @024   ----------------------------------------
 .byte   PATT
  .word Label_012A93D3
@  #09 @025   ----------------------------------------
 .byte   PATT
  .word Label_012A93D3
@  #09 @026   ----------------------------------------
 .byte   PATT
  .word Label_012A93D3
@  #09 @027   ----------------------------------------
 .byte   PATT
  .word Label_012A93D3
@  #09 @028   ----------------------------------------
 .byte   PATT
  .word Label_012A93D3
@  #09 @029   ----------------------------------------
 .byte   PATT
  .word Label_012A93D3
@  #09 @030   ----------------------------------------
 .byte   PATT
  .word Label_012A93D3
@  #09 @031   ----------------------------------------
 .byte   PATT
  .word Label_012A93D3
@  #09 @032   ----------------------------------------
 .byte   PATT
  .word Label_012A93D3
@  #09 @033   ----------------------------------------
 .byte   PATT
  .word Label_012A93D3
@  #09 @034   ----------------------------------------
 .byte   PATT
  .word Label_012A93D3
@  #09 @035   ----------------------------------------
 .byte   PATT
  .word Label_012A93D3
@  #09 @036   ----------------------------------------
 .byte   PATT
  .word Label_012A93D3
@  #09 @037   ----------------------------------------
 .byte   PATT
  .word Label_012A93D3
@  #09 @038   ----------------------------------------
 .byte   PATT
  .word Label_012A93D3
@  #09 @039   ----------------------------------------
 .byte   PATT
  .word Label_012A93D3
@  #09 @040   ----------------------------------------
 .byte   W12
 .byte   N06 ,Cn0 ,v123
 .byte   W12
 .byte   Cn0
 .byte   W12
 .byte   Cn0
 .byte   W12
 .byte   GOTO
  .word Label_012A93CB
 .byte   FINE

@**************** Track 10 (Midi-Chn.9) ****************@

song58_010:
@  #10 @000   ----------------------------------------
 .byte   KEYSH , song58_key+0
 .byte   W04
 .byte   VOICE , 55
 .byte   W01
 .byte   VOL , 37*song58_mvl/mxv
 .byte   W42
 .byte   W01
 .byte   N96 ,An2 ,v107
 .byte   W48
@  #10 @001   ----------------------------------------
 .byte   W96
@  #10 @002   ----------------------------------------
Label_012AA293:
 .byte   W48
 .byte   N96 ,An2 ,v107
 .byte   W48
 .byte   PEND 
@  #10 @003   ----------------------------------------
 .byte   W96
@  #10 @004   ----------------------------------------
 .byte   PATT
  .word Label_012AA293
@  #10 @005   ----------------------------------------
 .byte   W96
@  #10 @006   ----------------------------------------
 .byte   PATT
  .word Label_012AA293
@  #10 @007   ----------------------------------------
 .byte   W96
@  #10 @008   ----------------------------------------
 .byte   PATT
  .word Label_012AA293
@  #10 @009   ----------------------------------------
 .byte   W96
@  #10 @010   ----------------------------------------
 .byte   PATT
  .word Label_012AA293
@  #10 @011   ----------------------------------------
 .byte   W96
@  #10 @012   ----------------------------------------
 .byte   PATT
  .word Label_012AA293
@  #10 @013   ----------------------------------------
 .byte   W96
@  #10 @014   ----------------------------------------
 .byte   PATT
  .word Label_012AA293
@  #10 @015   ----------------------------------------
 .byte   W96
@  #10 @016   ----------------------------------------
 .byte   PATT
  .word Label_012AA293
@  #10 @017   ----------------------------------------
 .byte   W96
@  #10 @018   ----------------------------------------
 .byte   PATT
  .word Label_012AA293
@  #10 @019   ----------------------------------------
 .byte   W96
@  #10 @020   ----------------------------------------
Label_012AA2CA:
 .byte   W48
 .byte   N96 ,Cn3 ,v107
 .byte   W48
 .byte   PEND 
@  #10 @021   ----------------------------------------
 .byte   W48
Label_012AA2D1:
 .byte   W48
@  #10 @022   ----------------------------------------
 .byte   PATT
  .word Label_012AA2CA
@  #10 @023   ----------------------------------------
 .byte   W96
@  #10 @024   ----------------------------------------
 .byte   PATT
  .word Label_012AA2CA
@  #10 @025   ----------------------------------------
 .byte   W96
@  #10 @026   ----------------------------------------
 .byte   PATT
  .word Label_012AA2CA
@  #10 @027   ----------------------------------------
 .byte   W96
@  #10 @028   ----------------------------------------
 .byte   PATT
  .word Label_012AA2CA
@  #10 @029   ----------------------------------------
 .byte   W96
@  #10 @030   ----------------------------------------
 .byte   PATT
  .word Label_012AA2CA
@  #10 @031   ----------------------------------------
 .byte   W96
@  #10 @032   ----------------------------------------
 .byte   PATT
  .word Label_012AA2CA
@  #10 @033   ----------------------------------------
 .byte   W96
@  #10 @034   ----------------------------------------
 .byte   PATT
  .word Label_012AA2CA
@  #10 @035   ----------------------------------------
 .byte   W96
@  #10 @036   ----------------------------------------
 .byte   PATT
  .word Label_012AA2CA
@  #10 @037   ----------------------------------------
 .byte   W96
@  #10 @038   ----------------------------------------
 .byte   PATT
  .word Label_012AA2CA
@  #10 @039   ----------------------------------------
 .byte   W96
@  #10 @040   ----------------------------------------
 .byte   W48
 .byte   GOTO
  .word Label_012AA2D1
 .byte   FINE

@**************** Track 11 (Midi-Chn.10) ****************@

song58_011:
@  #11 @000   ----------------------------------------
 .byte   KEYSH , song58_key+0
 .byte   W04
 .byte   VOICE , 126
 .byte   W01
 .byte   VOL , 70*song58_mvl/mxv
 .byte   W42
 .byte   W01
 .byte   N22 ,Cn1 ,v094
 .byte   N96 ,Fn2 ,v113
 .byte   W24
 .byte   N22 ,Cn1 ,v094
 .byte   W24
@  #11 @001   ----------------------------------------
Label_012A9EAD:
 .byte   N22 ,Cn1 ,v094
 .byte   W24
 .byte   Cn1
 .byte   W24
 .byte   Cn1
 .byte   W24
 .byte   Cn1
 .byte   W24
 .byte   PEND 
@  #11 @002   ----------------------------------------
 .byte   PATT
  .word Label_012A9EAD
@  #11 @003   ----------------------------------------
 .byte   PATT
  .word Label_012A9EAD
@  #11 @004   ----------------------------------------
Label_012A9EC2:
 .byte   N22 ,Cn1 ,v094
 .byte   W24
 .byte   Cn1
 .byte   W24
 .byte   Cn1
 .byte   N96 ,Fn2 ,v113
 .byte   W24
 .byte   N22 ,Cn1 ,v094
 .byte   W24
 .byte   PEND 
@  #11 @005   ----------------------------------------
 .byte   PATT
  .word Label_012A9EAD
@  #11 @006   ----------------------------------------
 .byte   PATT
  .word Label_012A9EAD
@  #11 @007   ----------------------------------------
 .byte   PATT
  .word Label_012A9EAD
@  #11 @008   ----------------------------------------
 .byte   PATT
  .word Label_012A9EC2
@  #11 @009   ----------------------------------------
 .byte   PATT
  .word Label_012A9EAD
@  #11 @010   ----------------------------------------
 .byte   PATT
  .word Label_012A9EAD
@  #11 @011   ----------------------------------------
 .byte   PATT
  .word Label_012A9EAD
@  #11 @012   ----------------------------------------
 .byte   PATT
  .word Label_012A9EC2
@  #11 @013   ----------------------------------------
 .byte   PATT
  .word Label_012A9EAD
@  #11 @014   ----------------------------------------
 .byte   PATT
  .word Label_012A9EAD
@  #11 @015   ----------------------------------------
 .byte   PATT
  .word Label_012A9EAD
@  #11 @016   ----------------------------------------
 .byte   PATT
  .word Label_012A9EC2
@  #11 @017   ----------------------------------------
 .byte   PATT
  .word Label_012A9EAD
@  #11 @018   ----------------------------------------
 .byte   PATT
  .word Label_012A9EAD
@  #11 @019   ----------------------------------------
 .byte   PATT
  .word Label_012A9EAD
@  #11 @020   ----------------------------------------
 .byte   PATT
  .word Label_012A9EC2
@  #11 @021   ----------------------------------------
 .byte   N22 ,Cn1 ,v094
 .byte   W24
 .byte   Cn1
 .byte   W24
Label_012A9F28:
 .byte   N22 ,Cn1 ,v094
 .byte   W24
 .byte   Cn1
 .byte   W24
@  #11 @022   ----------------------------------------
 .byte   PATT
  .word Label_012A9EAD
@  #11 @023   ----------------------------------------
 .byte   PATT
  .word Label_012A9EAD
@  #11 @024   ----------------------------------------
 .byte   PATT
  .word Label_012A9EC2
@  #11 @025   ----------------------------------------
 .byte   PATT
  .word Label_012A9EAD
@  #11 @026   ----------------------------------------
 .byte   PATT
  .word Label_012A9EAD
@  #11 @027   ----------------------------------------
 .byte   PATT
  .word Label_012A9EAD
@  #11 @028   ----------------------------------------
 .byte   PATT
  .word Label_012A9EC2
@  #11 @029   ----------------------------------------
 .byte   PATT
  .word Label_012A9EAD
@  #11 @030   ----------------------------------------
 .byte   PATT
  .word Label_012A9EAD
@  #11 @031   ----------------------------------------
 .byte   PATT
  .word Label_012A9EAD
@  #11 @032   ----------------------------------------
 .byte   PATT
  .word Label_012A9EC2
@  #11 @033   ----------------------------------------
 .byte   PATT
  .word Label_012A9EAD
@  #11 @034   ----------------------------------------
 .byte   PATT
  .word Label_012A9EAD
@  #11 @035   ----------------------------------------
 .byte   PATT
  .word Label_012A9EAD
@  #11 @036   ----------------------------------------
 .byte   PATT
  .word Label_012A9EC2
@  #11 @037   ----------------------------------------
 .byte   PATT
  .word Label_012A9EAD
@  #11 @038   ----------------------------------------
 .byte   PATT
  .word Label_012A9EAD
@  #11 @039   ----------------------------------------
 .byte   PATT
  .word Label_012A9EAD
@  #11 @040   ----------------------------------------
 .byte   N22 ,Cn1 ,v094
 .byte   W24
 .byte   Cn1
 .byte   W24
 .byte   GOTO
  .word Label_012A9F28
 .byte   FINE

@**************** Track 12 (Midi-Chn.11) ****************@

song58_012:
@  #12 @000   ----------------------------------------
 .byte   KEYSH , song58_key+0
 .byte   VOICE , 124
 .byte   W03
 .byte   Bn1
 .byte   W01
 .byte   VOL , 70*song58_mvl/mxv
 .byte   PAN , c_v-29
 .byte   W44
 .byte   N32 ,An1 ,v123 ,gtp3
 .byte   W36
 .byte   An1
 .byte   W12
@  #12 @001   ----------------------------------------
Label_012A99C7:
 .byte   W24
 .byte   N23 ,An1 ,v123
 .byte   W24
 .byte   N32 ,An1 ,v123 ,gtp3
 .byte   W36
 .byte   An1
 .byte   W12
 .byte   PEND 
@  #12 @002   ----------------------------------------
Label_012A99D4:
 .byte   W24
 .byte   N02 ,An1 ,v087
 .byte   W03
 .byte   An1 ,v094
 .byte   W03
 .byte   An1 ,v099
 .byte   W03
 .byte   An1 ,v105
 .byte   W03
 .byte   An1 ,v109
 .byte   W03
 .byte   An1 ,v114
 .byte   W03
 .byte   An1 ,v119
 .byte   W03
 .byte   An1 ,v123
 .byte   W03
 .byte   N32 ,An1 ,v123 ,gtp3
 .byte   W36
 .byte   An1
 .byte   W12
 .byte   PEND 
@  #12 @003   ----------------------------------------
 .byte   PATT
  .word Label_012A99C7
@  #12 @004   ----------------------------------------
 .byte   PATT
  .word Label_012A99D4
@  #12 @005   ----------------------------------------
 .byte   PATT
  .word Label_012A99C7
@  #12 @006   ----------------------------------------
 .byte   PATT
  .word Label_012A99D4
@  #12 @007   ----------------------------------------
 .byte   PATT
  .word Label_012A99C7
@  #12 @008   ----------------------------------------
 .byte   PATT
  .word Label_012A99D4
@  #12 @009   ----------------------------------------
 .byte   PATT
  .word Label_012A99C7
@  #12 @010   ----------------------------------------
 .byte   PATT
  .word Label_012A99D4
@  #12 @011   ----------------------------------------
 .byte   PATT
  .word Label_012A99C7
@  #12 @012   ----------------------------------------
 .byte   PATT
  .word Label_012A99D4
@  #12 @013   ----------------------------------------
 .byte   PATT
  .word Label_012A99C7
@  #12 @014   ----------------------------------------
 .byte   PATT
  .word Label_012A99D4
@  #12 @015   ----------------------------------------
 .byte   PATT
  .word Label_012A99C7
@  #12 @016   ----------------------------------------
 .byte   PATT
  .word Label_012A99D4
@  #12 @017   ----------------------------------------
 .byte   PATT
  .word Label_012A99C7
@  #12 @018   ----------------------------------------
 .byte   PATT
  .word Label_012A99D4
@  #12 @019   ----------------------------------------
 .byte   PATT
  .word Label_012A99C7
@  #12 @020   ----------------------------------------
 .byte   W24
 .byte   N02 ,An1 ,v087
 .byte   W03
 .byte   An1 ,v094
 .byte   W03
 .byte   An1 ,v099
 .byte   W03
 .byte   An1 ,v105
 .byte   W03
 .byte   An1 ,v109
 .byte   W03
 .byte   An1 ,v114
 .byte   W03
 .byte   An1 ,v119
 .byte   W03
 .byte   N03 ,An1 ,v123
 .byte   W03
 .byte   N32 ,Cn2 ,v123 ,gtp3
 .byte   W36
 .byte   Cn2
 .byte   W12
@  #12 @021   ----------------------------------------
 .byte   W24
 .byte   N23
 .byte   W24
Label_012A9A70:
 .byte   N32 ,Cn2 ,v123 ,gtp3
 .byte   W36
 .byte   Cn2
 .byte   W12
@  #12 @022   ----------------------------------------
Label_012A9A77:
 .byte   W24
 .byte   N02 ,Cn2 ,v087
 .byte   W03
 .byte   Cn2 ,v094
 .byte   W03
 .byte   Cn2 ,v099
 .byte   W03
 .byte   Cn2 ,v105
 .byte   W03
 .byte   Cn2 ,v109
 .byte   W03
 .byte   Cn2 ,v114
 .byte   W03
 .byte   Cn2 ,v119
 .byte   W03
 .byte   Cn2 ,v123
 .byte   W03
 .byte   N32 ,Cn2 ,v123 ,gtp3
 .byte   W36
 .byte   Cn2
 .byte   W12
 .byte   PEND 
@  #12 @023   ----------------------------------------
Label_012A9A99:
 .byte   W24
 .byte   N23 ,Cn2 ,v123
 .byte   W24
 .byte   N32 ,Cn2 ,v123 ,gtp3
 .byte   W36
 .byte   Cn2
 .byte   W12
 .byte   PEND 
@  #12 @024   ----------------------------------------
 .byte   PATT
  .word Label_012A9A77
@  #12 @025   ----------------------------------------
 .byte   PATT
  .word Label_012A9A99
@  #12 @026   ----------------------------------------
 .byte   PATT
  .word Label_012A9A77
@  #12 @027   ----------------------------------------
 .byte   PATT
  .word Label_012A9A99
@  #12 @028   ----------------------------------------
 .byte   PATT
  .word Label_012A9A77
@  #12 @029   ----------------------------------------
 .byte   PATT
  .word Label_012A9A99
@  #12 @030   ----------------------------------------
 .byte   PATT
  .word Label_012A9A77
@  #12 @031   ----------------------------------------
 .byte   PATT
  .word Label_012A9A99
@  #12 @032   ----------------------------------------
 .byte   PATT
  .word Label_012A9A77
@  #12 @033   ----------------------------------------
 .byte   PATT
  .word Label_012A9A99
@  #12 @034   ----------------------------------------
 .byte   PATT
  .word Label_012A9A77
@  #12 @035   ----------------------------------------
 .byte   PATT
  .word Label_012A9A99
@  #12 @036   ----------------------------------------
 .byte   PATT
  .word Label_012A9A77
@  #12 @037   ----------------------------------------
 .byte   PATT
  .word Label_012A9A99
@  #12 @038   ----------------------------------------
 .byte   PATT
  .word Label_012A9A77
@  #12 @039   ----------------------------------------
 .byte   PATT
  .word Label_012A9A99
@  #12 @040   ----------------------------------------
 .byte   W24
 .byte   N02 ,Cn2 ,v087
 .byte   W03
 .byte   Cn2 ,v094
 .byte   W03
 .byte   Cn2 ,v099
 .byte   W03
 .byte   Cn2 ,v105
 .byte   W03
 .byte   Cn2 ,v109
 .byte   W03
 .byte   Cn2 ,v114
 .byte   W03
 .byte   Cn2 ,v119
 .byte   W03
 .byte   Cn2 ,v123
 .byte   W03
 .byte   GOTO
  .word Label_012A9A70
 .byte   FINE

@**************** Track 13 (Midi-Chn.12) ****************@

song58_013:
@  #13 @000   ----------------------------------------
 .byte   KEYSH , song58_key+0
 .byte   W05
 .byte   VOICE , 127
 .byte   W01
 .byte   VOL , 70*song58_mvl/mxv
 .byte   PAN , c_v-64
 .byte   W42
 .byte   N48 ,Cn1 ,v113
 .byte   W48
@  #13 @001   ----------------------------------------
Label_012AA383:
 .byte   N24 ,Cn5 ,v107
 .byte   W24
 .byte   Cn2 ,v121
 .byte   W24
 .byte   Cn3 ,v113
 .byte   W24
 .byte   Cn5 ,v107
 .byte   W24
 .byte   PEND 
@  #13 @002   ----------------------------------------
Label_012AA391:
 .byte   N24 ,Cn4 ,v113
 .byte   W24
 .byte   Cn5 ,v121
 .byte   W24
 .byte   N48 ,Cn1 ,v113
 .byte   W48
 .byte   PEND 
@  #13 @003   ----------------------------------------
 .byte   PATT
  .word Label_012AA383
@  #13 @004   ----------------------------------------
 .byte   PATT
  .word Label_012AA391
@  #13 @005   ----------------------------------------
 .byte   PATT
  .word Label_012AA383
@  #13 @006   ----------------------------------------
 .byte   PATT
  .word Label_012AA391
@  #13 @007   ----------------------------------------
 .byte   PATT
  .word Label_012AA383
@  #13 @008   ----------------------------------------
 .byte   PATT
  .word Label_012AA391
@  #13 @009   ----------------------------------------
 .byte   PATT
  .word Label_012AA383
@  #13 @010   ----------------------------------------
 .byte   PATT
  .word Label_012AA391
@  #13 @011   ----------------------------------------
 .byte   PATT
  .word Label_012AA383
@  #13 @012   ----------------------------------------
 .byte   PATT
  .word Label_012AA391
@  #13 @013   ----------------------------------------
 .byte   PATT
  .word Label_012AA383
@  #13 @014   ----------------------------------------
 .byte   PATT
  .word Label_012AA391
@  #13 @015   ----------------------------------------
 .byte   PATT
  .word Label_012AA383
@  #13 @016   ----------------------------------------
 .byte   PATT
  .word Label_012AA391
@  #13 @017   ----------------------------------------
 .byte   PATT
  .word Label_012AA383
@  #13 @018   ----------------------------------------
 .byte   PATT
  .word Label_012AA391
@  #13 @019   ----------------------------------------
 .byte   PATT
  .word Label_012AA383
@  #13 @020   ----------------------------------------
 .byte   PATT
  .word Label_012AA391
@  #13 @021   ----------------------------------------
 .byte   N24 ,Cn5 ,v107
 .byte   W24
 .byte   Cn2 ,v121
 .byte   W24
Label_012AA3FE:
 .byte   N24 ,Cn3 ,v113
 .byte   W24
 .byte   Cn5 ,v107
 .byte   W24
@  #13 @022   ----------------------------------------
 .byte   PATT
  .word Label_012AA391
@  #13 @023   ----------------------------------------
 .byte   PATT
  .word Label_012AA383
@  #13 @024   ----------------------------------------
 .byte   PATT
  .word Label_012AA391
@  #13 @025   ----------------------------------------
 .byte   PATT
  .word Label_012AA383
@  #13 @026   ----------------------------------------
 .byte   PATT
  .word Label_012AA391
@  #13 @027   ----------------------------------------
 .byte   PATT
  .word Label_012AA383
@  #13 @028   ----------------------------------------
 .byte   PATT
  .word Label_012AA391
@  #13 @029   ----------------------------------------
 .byte   PATT
  .word Label_012AA383
@  #13 @030   ----------------------------------------
 .byte   PATT
  .word Label_012AA391
@  #13 @031   ----------------------------------------
 .byte   PATT
  .word Label_012AA383
@  #13 @032   ----------------------------------------
 .byte   PATT
  .word Label_012AA391
@  #13 @033   ----------------------------------------
 .byte   PATT
  .word Label_012AA383
@  #13 @034   ----------------------------------------
 .byte   PATT
  .word Label_012AA391
@  #13 @035   ----------------------------------------
 .byte   PATT
  .word Label_012AA383
@  #13 @036   ----------------------------------------
 .byte   PATT
  .word Label_012AA391
@  #13 @037   ----------------------------------------
 .byte   PATT
  .word Label_012AA383
@  #13 @038   ----------------------------------------
 .byte   PATT
  .word Label_012AA391
@  #13 @039   ----------------------------------------
 .byte   PATT
  .word Label_012AA383
@  #13 @040   ----------------------------------------
 .byte   N24 ,Cn4 ,v113
 .byte   W24
 .byte   Cn5 ,v121
 .byte   W24
 .byte   GOTO
  .word Label_012AA3FE
 .byte   FINE

@**************** Track 14 (Midi-Chn.13) ****************@

song58_014:
@  #14 @000   ----------------------------------------
 .byte   KEYSH , song58_key+0
 .byte   W05
 .byte   VOICE , 127
 .byte   W01
 .byte   VOL , 70*song58_mvl/mxv
 .byte   PAN , c_v+63
 .byte   W42
 .byte   BEND , c_v-2
 .byte   W01
 .byte   N48 ,Cn1 ,v113
 .byte   W44
 .byte   W03
@  #14 @001   ----------------------------------------
Label_012A9CC7:
 .byte   W01
 .byte   N24 ,Cn5 ,v107
 .byte   W24
 .byte   Cn2 ,v121
 .byte   W24
 .byte   Cn3 ,v113
 .byte   W24
 .byte   Cn5 ,v107
 .byte   W23
 .byte   PEND 
@  #14 @002   ----------------------------------------
Label_012A9CD6:
 .byte   W01
 .byte   N24 ,Cn4 ,v113
 .byte   W24
 .byte   Cn5 ,v121
 .byte   W24
 .byte   N48 ,Cn1 ,v113
 .byte   W44
 .byte   W03
 .byte   PEND 
@  #14 @003   ----------------------------------------
 .byte   PATT
  .word Label_012A9CC7
@  #14 @004   ----------------------------------------
 .byte   PATT
  .word Label_012A9CD6
@  #14 @005   ----------------------------------------
 .byte   PATT
  .word Label_012A9CC7
@  #14 @006   ----------------------------------------
 .byte   PATT
  .word Label_012A9CD6
@  #14 @007   ----------------------------------------
 .byte   PATT
  .word Label_012A9CC7
@  #14 @008   ----------------------------------------
 .byte   PATT
  .word Label_012A9CD6
@  #14 @009   ----------------------------------------
 .byte   PATT
  .word Label_012A9CC7
@  #14 @010   ----------------------------------------
 .byte   PATT
  .word Label_012A9CD6
@  #14 @011   ----------------------------------------
 .byte   PATT
  .word Label_012A9CC7
@  #14 @012   ----------------------------------------
 .byte   PATT
  .word Label_012A9CD6
@  #14 @013   ----------------------------------------
 .byte   PATT
  .word Label_012A9CC7
@  #14 @014   ----------------------------------------
 .byte   PATT
  .word Label_012A9CD6
@  #14 @015   ----------------------------------------
 .byte   PATT
  .word Label_012A9CC7
@  #14 @016   ----------------------------------------
 .byte   PATT
  .word Label_012A9CD6
@  #14 @017   ----------------------------------------
 .byte   PATT
  .word Label_012A9CC7
@  #14 @018   ----------------------------------------
 .byte   PATT
  .word Label_012A9CD6
@  #14 @019   ----------------------------------------
 .byte   PATT
  .word Label_012A9CC7
@  #14 @020   ----------------------------------------
 .byte   PATT
  .word Label_012A9CD6
@  #14 @021   ----------------------------------------
 .byte   W01
 .byte   N24 ,Cn5 ,v107
 .byte   W24
 .byte   Cn2 ,v121
 .byte   W23
Label_012A9D46:
 .byte   W01
 .byte   N24 ,Cn3 ,v113
 .byte   W24
 .byte   Cn5 ,v107
 .byte   W23
@  #14 @022   ----------------------------------------
 .byte   PATT
  .word Label_012A9CD6
@  #14 @023   ----------------------------------------
 .byte   PATT
  .word Label_012A9CC7
@  #14 @024   ----------------------------------------
 .byte   PATT
  .word Label_012A9CD6
@  #14 @025   ----------------------------------------
 .byte   PATT
  .word Label_012A9CC7
@  #14 @026   ----------------------------------------
 .byte   PATT
  .word Label_012A9CD6
@  #14 @027   ----------------------------------------
 .byte   PATT
  .word Label_012A9CC7
@  #14 @028   ----------------------------------------
 .byte   PATT
  .word Label_012A9CD6
@  #14 @029   ----------------------------------------
 .byte   PATT
  .word Label_012A9CC7
@  #14 @030   ----------------------------------------
 .byte   PATT
  .word Label_012A9CD6
@  #14 @031   ----------------------------------------
 .byte   PATT
  .word Label_012A9CC7
@  #14 @032   ----------------------------------------
 .byte   PATT
  .word Label_012A9CD6
@  #14 @033   ----------------------------------------
 .byte   PATT
  .word Label_012A9CC7
@  #14 @034   ----------------------------------------
 .byte   PATT
  .word Label_012A9CD6
@  #14 @035   ----------------------------------------
 .byte   PATT
  .word Label_012A9CC7
@  #14 @036   ----------------------------------------
 .byte   PATT
  .word Label_012A9CD6
@  #14 @037   ----------------------------------------
 .byte   PATT
  .word Label_012A9CC7
@  #14 @038   ----------------------------------------
 .byte   PATT
  .word Label_012A9CD6
@  #14 @039   ----------------------------------------
 .byte   PATT
  .word Label_012A9CC7
@  #14 @040   ----------------------------------------
 .byte   W01
 .byte   N24 ,Cn4 ,v113
 .byte   W24
 .byte   N22 ,Cn5 ,v121
 .byte   W23
 .byte   GOTO
  .word Label_012A9D46
 .byte   FINE

@******************************************************@
	.align	2

song58:
	.byte	14	@ NumTrks
	.byte	0	@ NumBlks
	.byte	song58_pri	@ Priority
	.byte	song58_rev	@ Reverb.
    
	.word	song58_grp
    
	.word	song58_001
	.word	song58_002
	.word	song58_003
	.word	song58_004
	.word	song58_005
	.word	song58_006
	.word	song58_007
	.word	song58_008
	.word	song58_009
	.word	song58_010
	.word	song58_011
	.word	song58_012
	.word	song58_013
	.word	song58_014

	.end
