	.include "MPlayDef.s"

	.equ	feb20211210232341_grp, voicegroup000
	.equ	feb20211210232341_pri, 0
	.equ	feb20211210232341_rev, 0
	.equ	feb20211210232341_mvl, 60
	.equ	feb20211210232341_key, 0
	.equ	feb20211210232341_tbs, 1
	.equ	feb20211210232341_exg, 0
	.equ	feb20211210232341_cmp, 1

	.section .rodata
	.global	feb20211210232341
	.align	2

@**************** Track 1 (Midi-Chn.1) ****************@

feb20211210232341_1:
	.byte	KEYSH , feb20211210232341_key+0
feb20211210232341_1_B1:
@ 000   ----------------------------------------
	.byte	TEMPO , 80*feb20211210232341_tbs/2
	.byte		VOICE , 116
	.byte		PAN   , c_v+0
	.byte		VOL   , 127*feb20211210232341_mvl/mxv
	.byte		MOD   , 0
	.byte	W96
@ 001   ----------------------------------------
	.byte	W96
@ 002   ----------------------------------------
feb20211210232341_1_002:
	.byte		N17   , An2 , v127
	.byte	W18
	.byte		        En2 
	.byte	W18
	.byte		N84   , Bn1 
	.byte	W60
	.byte	PEND
@ 003   ----------------------------------------
	.byte	W90
	.byte		N03   
	.byte	W03
	.byte		        Bn1 , v112
	.byte	W03
@ 004   ----------------------------------------
	.byte		N12   , An2 , v127
	.byte	W12
	.byte		N05   , En2 
	.byte	W06
	.byte		N11   
	.byte	W12
	.byte		N05   , Bn1 
	.byte	W06
	.byte		N84   
	.byte	W60
@ 005   ----------------------------------------
	.byte	W96
@ 006   ----------------------------------------
	.byte	PATT
	 .word	feb20211210232341_1_002
@ 007   ----------------------------------------
	.byte	W90
	.byte		N03   , Bn1 , v127
	.byte	W03
	.byte		        Bn1 , v108
	.byte	W03
@ 008   ----------------------------------------
	.byte		N12   , An2 , v127
	.byte	W12
	.byte		N05   , En2 
	.byte	W06
	.byte		N17   
	.byte	W18
	.byte		N84   , Bn1 
	.byte	W60
@ 009   ----------------------------------------
	.byte	W96
@ 010   ----------------------------------------
feb20211210232341_1_010:
	.byte		N17   , Cn3 , v127
	.byte	W18
	.byte		        Gn2 
	.byte	W18
	.byte		N84   , Dn2 
	.byte	W60
	.byte	PEND
@ 011   ----------------------------------------
	.byte	W90
	.byte		N03   
	.byte	W03
	.byte		        Dn2 , v108
	.byte	W03
@ 012   ----------------------------------------
	.byte		N12   , Cn3 , v127
	.byte	W12
	.byte		N05   , Gn2 
	.byte	W06
	.byte		N11   
	.byte	W12
	.byte		N05   , Dn2 
	.byte	W06
	.byte		N84   
	.byte	W60
@ 013   ----------------------------------------
	.byte	W96
@ 014   ----------------------------------------
	.byte	PATT
	 .word	feb20211210232341_1_010
@ 015   ----------------------------------------
	.byte	W90
	.byte		N03   , Dn2 , v127
	.byte	W03
	.byte		        Dn2 , v112
	.byte	W03
@ 016   ----------------------------------------
	.byte		N12   , Cn3 , v127
	.byte	W12
	.byte		N05   , Gn2 
	.byte	W06
	.byte		N17   
	.byte	W18
	.byte		N84   , Dn2 
	.byte	W60
@ 017   ----------------------------------------
	.byte	W96
@ 018   ----------------------------------------
	.byte	W96
@ 019   ----------------------------------------
	.byte	W96
@ 020   ----------------------------------------
	.byte	W96
@ 021   ----------------------------------------
	.byte	W96
	.byte	GOTO
	 .word	feb20211210232341_1_B1
feb20211210232341_1_B2:
@ 022   ----------------------------------------
	.byte	FINE

@**************** Track 2 (Midi-Chn.2) ****************@

feb20211210232341_2:
	.byte	KEYSH , feb20211210232341_key+0
feb20211210232341_2_B1:
@ 000   ----------------------------------------
	.byte		VOICE , 49
	.byte		PAN   , c_v-64
	.byte		VOL   , 70*feb20211210232341_mvl/mxv
	.byte		MOD   , 0
	.byte	W96
@ 001   ----------------------------------------
	.byte	W96
@ 002   ----------------------------------------
	.byte		TIE   , An1 , v127
	.byte	W96
@ 003   ----------------------------------------
	.byte	W96
@ 004   ----------------------------------------
	.byte	W96
@ 005   ----------------------------------------
	.byte	W96
	.byte		EOT   
@ 006   ----------------------------------------
	.byte		TIE   
	.byte	W96
@ 007   ----------------------------------------
	.byte	W96
@ 008   ----------------------------------------
	.byte	W96
@ 009   ----------------------------------------
	.byte	W96
	.byte		EOT   
@ 010   ----------------------------------------
	.byte		TIE   , Cn2 
	.byte	W96
@ 011   ----------------------------------------
	.byte	W96
@ 012   ----------------------------------------
	.byte	W96
@ 013   ----------------------------------------
	.byte	W96
	.byte		EOT   
@ 014   ----------------------------------------
	.byte		TIE   
	.byte	W96
@ 015   ----------------------------------------
	.byte	W96
@ 016   ----------------------------------------
	.byte	W96
@ 017   ----------------------------------------
	.byte	W96
	.byte		EOT   
@ 018   ----------------------------------------
	.byte	W96
@ 019   ----------------------------------------
	.byte	W96
@ 020   ----------------------------------------
	.byte	W96
@ 021   ----------------------------------------
	.byte	W96
	.byte	GOTO
	 .word	feb20211210232341_2_B1
feb20211210232341_2_B2:
@ 022   ----------------------------------------
	.byte	FINE

@**************** Track 3 (Midi-Chn.3) ****************@

feb20211210232341_3:
	.byte	KEYSH , feb20211210232341_key+0
feb20211210232341_3_B1:
@ 000   ----------------------------------------
	.byte		VOICE , 14
	.byte		PAN   , c_v+63
	.byte		VOL   , 70*feb20211210232341_mvl/mxv
	.byte		MOD   , 0
	.byte	W96
@ 001   ----------------------------------------
	.byte	W96
@ 002   ----------------------------------------
	.byte		TIE   , Gn2 , v127
	.byte	W96
@ 003   ----------------------------------------
	.byte	W96
@ 004   ----------------------------------------
	.byte	W96
@ 005   ----------------------------------------
	.byte	W96
	.byte		EOT   
@ 006   ----------------------------------------
	.byte		TIE   
	.byte	W96
@ 007   ----------------------------------------
	.byte	W96
@ 008   ----------------------------------------
	.byte	W96
@ 009   ----------------------------------------
	.byte	W96
	.byte		EOT   
@ 010   ----------------------------------------
	.byte		TIE   , As2 
	.byte	W96
@ 011   ----------------------------------------
	.byte	W96
@ 012   ----------------------------------------
	.byte	W96
@ 013   ----------------------------------------
	.byte	W96
	.byte		EOT   
@ 014   ----------------------------------------
	.byte		TIE   
	.byte	W96
@ 015   ----------------------------------------
	.byte	W96
@ 016   ----------------------------------------
	.byte	W96
@ 017   ----------------------------------------
	.byte	W96
	.byte		EOT   
@ 018   ----------------------------------------
	.byte	W96
@ 019   ----------------------------------------
	.byte	W96
@ 020   ----------------------------------------
	.byte	W96
@ 021   ----------------------------------------
	.byte	W96
	.byte	GOTO
	 .word	feb20211210232341_3_B1
feb20211210232341_3_B2:
@ 022   ----------------------------------------
	.byte	FINE

@**************** Track 4 (Midi-Chn.4) ****************@

feb20211210232341_4:
	.byte	KEYSH , feb20211210232341_key+0
feb20211210232341_4_B1:
@ 000   ----------------------------------------
	.byte		VOICE , 14
	.byte		PAN   , c_v+0
	.byte		VOL   , 127*feb20211210232341_mvl/mxv
	.byte		MOD   , 0
	.byte	W96
@ 001   ----------------------------------------
	.byte	W96
@ 002   ----------------------------------------
	.byte		PAN   , c_v+2
	.byte		TIE   , An2 , v112
	.byte	W01
	.byte		PAN   , c_v+0
	.byte	W01
	.byte		        c_v-1
	.byte	W01
	.byte		        c_v-3
	.byte	W01
	.byte		        c_v-4
	.byte	W01
	.byte		        c_v-5
	.byte	W01
	.byte		        c_v-7
	.byte	W01
	.byte		        c_v-8
	.byte	W01
	.byte		        c_v-10
	.byte	W01
	.byte		        c_v-11
	.byte	W01
	.byte		        c_v-12
	.byte	W01
	.byte		        c_v-14
	.byte	W01
	.byte		        c_v-15
	.byte	W01
	.byte		        c_v-17
	.byte	W01
	.byte		        c_v-18
	.byte	W01
	.byte		        c_v-19
	.byte	W01
	.byte		        c_v-21
	.byte	W01
	.byte		        c_v-22
	.byte	W01
	.byte		        c_v-24
	.byte	W01
	.byte		        c_v-25
	.byte	W01
	.byte		        c_v-26
	.byte	W01
	.byte		        c_v-28
	.byte	W01
	.byte		        c_v-29
	.byte	W01
	.byte		        c_v-31
	.byte	W01
	.byte		        c_v-32
	.byte	W01
	.byte		        c_v-33
	.byte	W01
	.byte		        c_v-35
	.byte	W01
	.byte		        c_v-36
	.byte	W01
	.byte		        c_v-38
	.byte	W01
	.byte		        c_v-39
	.byte	W01
	.byte		        c_v-40
	.byte	W01
	.byte		        c_v-42
	.byte	W01
	.byte		        c_v-43
	.byte	W01
	.byte		        c_v-45
	.byte	W01
	.byte		        c_v-46
	.byte	W01
	.byte		        c_v-47
	.byte	W01
	.byte		        c_v-49
	.byte	W01
	.byte		        c_v-50
	.byte	W01
	.byte		        c_v-52
	.byte	W01
	.byte		        c_v-53
	.byte	W01
	.byte		        c_v-55
	.byte	W01
	.byte		        c_v-56
	.byte	W01
	.byte		        c_v-57
	.byte	W01
	.byte		        c_v-59
	.byte	W01
	.byte		        c_v-60
	.byte	W01
	.byte		        c_v-62
	.byte	W01
	.byte		        c_v-63
	.byte	W01
	.byte		        c_v-64
	.byte	W01
	.byte		        c_v-64
	.byte	W01
	.byte		        c_v-63
	.byte	W01
	.byte		        c_v-62
	.byte	W01
	.byte		        c_v-60
	.byte	W01
	.byte		        c_v-59
	.byte	W01
	.byte		        c_v-58
	.byte	W01
	.byte		        c_v-56
	.byte	W01
	.byte		        c_v-55
	.byte	W01
	.byte		        c_v-54
	.byte	W01
	.byte		        c_v-52
	.byte	W01
	.byte		        c_v-51
	.byte	W01
	.byte		        c_v-50
	.byte	W01
	.byte		        c_v-48
	.byte	W01
	.byte		        c_v-47
	.byte	W01
	.byte		        c_v-46
	.byte	W01
	.byte		        c_v-44
	.byte	W01
	.byte		        c_v-43
	.byte	W01
	.byte		        c_v-42
	.byte	W01
	.byte		        c_v-40
	.byte	W01
	.byte		        c_v-39
	.byte	W01
	.byte		        c_v-38
	.byte	W01
	.byte		        c_v-36
	.byte	W01
	.byte		        c_v-35
	.byte	W01
	.byte		        c_v-34
	.byte	W01
	.byte		        c_v-32
	.byte	W01
	.byte		        c_v-31
	.byte	W01
	.byte		        c_v-29
	.byte	W01
	.byte		        c_v-28
	.byte	W01
	.byte		        c_v-27
	.byte	W01
	.byte		        c_v-25
	.byte	W01
	.byte		        c_v-24
	.byte	W01
	.byte		        c_v-23
	.byte	W01
	.byte		        c_v-21
	.byte	W01
	.byte		        c_v-20
	.byte	W01
	.byte		        c_v-19
	.byte	W01
	.byte		        c_v-17
	.byte	W01
	.byte		        c_v-16
	.byte	W01
	.byte		        c_v-15
	.byte	W01
	.byte		        c_v-13
	.byte	W01
	.byte		        c_v-12
	.byte	W01
	.byte		        c_v-11
	.byte	W01
	.byte		        c_v-9
	.byte	W01
	.byte		        c_v-8
	.byte	W01
	.byte		        c_v-7
	.byte	W01
	.byte		        c_v-5
	.byte	W01
	.byte		        c_v-4
	.byte	W01
	.byte		        c_v-3
	.byte	W02
@ 003   ----------------------------------------
feb20211210232341_4_003:
	.byte		PAN   , c_v-1
	.byte	W01
	.byte		        c_v+0
	.byte	W01
	.byte		        c_v+1
	.byte	W01
	.byte		        c_v+3
	.byte	W01
	.byte		        c_v+4
	.byte	W01
	.byte		        c_v+6
	.byte	W01
	.byte		        c_v+7
	.byte	W01
	.byte		        c_v+8
	.byte	W01
	.byte		        c_v+10
	.byte	W01
	.byte		        c_v+11
	.byte	W01
	.byte		        c_v+12
	.byte	W01
	.byte		        c_v+14
	.byte	W01
	.byte		        c_v+15
	.byte	W01
	.byte		        c_v+16
	.byte	W01
	.byte		        c_v+18
	.byte	W01
	.byte		        c_v+19
	.byte	W01
	.byte		        c_v+20
	.byte	W01
	.byte		        c_v+22
	.byte	W01
	.byte		        c_v+23
	.byte	W01
	.byte		        c_v+24
	.byte	W01
	.byte		        c_v+26
	.byte	W01
	.byte		        c_v+27
	.byte	W01
	.byte		        c_v+28
	.byte	W01
	.byte		        c_v+30
	.byte	W01
	.byte		        c_v+31
	.byte	W01
	.byte		        c_v+32
	.byte	W01
	.byte		        c_v+34
	.byte	W01
	.byte		        c_v+35
	.byte	W01
	.byte		        c_v+36
	.byte	W01
	.byte		        c_v+38
	.byte	W01
	.byte		        c_v+39
	.byte	W01
	.byte		        c_v+41
	.byte	W01
	.byte		        c_v+42
	.byte	W01
	.byte		        c_v+43
	.byte	W01
	.byte		        c_v+45
	.byte	W01
	.byte		        c_v+46
	.byte	W01
	.byte		        c_v+47
	.byte	W01
	.byte		        c_v+49
	.byte	W01
	.byte		        c_v+50
	.byte	W01
	.byte		        c_v+51
	.byte	W01
	.byte		        c_v+53
	.byte	W01
	.byte		        c_v+54
	.byte	W01
	.byte		        c_v+55
	.byte	W01
	.byte		        c_v+57
	.byte	W01
	.byte		        c_v+58
	.byte	W01
	.byte		        c_v+59
	.byte	W01
	.byte		        c_v+61
	.byte	W01
	.byte		        c_v+63
	.byte	W01
	.byte		        c_v+62
	.byte	W01
	.byte		        c_v+60
	.byte	W01
	.byte		        c_v+59
	.byte	W01
	.byte		        c_v+58
	.byte	W01
	.byte		        c_v+56
	.byte	W01
	.byte		        c_v+55
	.byte	W01
	.byte		        c_v+54
	.byte	W01
	.byte		        c_v+52
	.byte	W01
	.byte		        c_v+51
	.byte	W01
	.byte		        c_v+49
	.byte	W01
	.byte		        c_v+48
	.byte	W01
	.byte		        c_v+47
	.byte	W01
	.byte		        c_v+45
	.byte	W01
	.byte		        c_v+44
	.byte	W01
	.byte		        c_v+43
	.byte	W01
	.byte		        c_v+41
	.byte	W01
	.byte		        c_v+40
	.byte	W01
	.byte		        c_v+39
	.byte	W01
	.byte		        c_v+37
	.byte	W01
	.byte		        c_v+36
	.byte	W01
	.byte		        c_v+35
	.byte	W01
	.byte		        c_v+33
	.byte	W01
	.byte		        c_v+32
	.byte	W01
	.byte		        c_v+31
	.byte	W01
	.byte		        c_v+29
	.byte	W01
	.byte		        c_v+28
	.byte	W01
	.byte		        c_v+27
	.byte	W01
	.byte		        c_v+25
	.byte	W01
	.byte		        c_v+24
	.byte	W01
	.byte		        c_v+23
	.byte	W01
	.byte		        c_v+21
	.byte	W01
	.byte		        c_v+20
	.byte	W01
	.byte		        c_v+19
	.byte	W01
	.byte		        c_v+17
	.byte	W01
	.byte		        c_v+16
	.byte	W01
	.byte		        c_v+15
	.byte	W01
	.byte		        c_v+13
	.byte	W01
	.byte		        c_v+12
	.byte	W01
	.byte		        c_v+11
	.byte	W01
	.byte		        c_v+9
	.byte	W01
	.byte		        c_v+8
	.byte	W01
	.byte		        c_v+7
	.byte	W01
	.byte		        c_v+5
	.byte	W01
	.byte		        c_v+4
	.byte	W01
	.byte		        c_v+3
	.byte	W01
	.byte		        c_v+1
	.byte	W01
	.byte		        c_v+0
	.byte	W02
	.byte	PEND
@ 004   ----------------------------------------
	.byte		        c_v-1
	.byte	W01
	.byte		        c_v-3
	.byte	W01
	.byte		        c_v-4
	.byte	W01
	.byte		        c_v-5
	.byte	W01
	.byte		        c_v-7
	.byte	W01
	.byte		        c_v-8
	.byte	W01
	.byte		        c_v-9
	.byte	W01
	.byte		        c_v-11
	.byte	W01
	.byte		        c_v-12
	.byte	W01
	.byte		        c_v-13
	.byte	W01
	.byte		        c_v-15
	.byte	W01
	.byte		        c_v-16
	.byte	W01
	.byte		        c_v-17
	.byte	W01
	.byte		        c_v-19
	.byte	W01
	.byte		        c_v-20
	.byte	W01
	.byte		        c_v-21
	.byte	W01
	.byte		        c_v-23
	.byte	W01
	.byte		        c_v-24
	.byte	W01
	.byte		        c_v-25
	.byte	W01
	.byte		        c_v-27
	.byte	W01
	.byte		        c_v-28
	.byte	W01
	.byte		        c_v-29
	.byte	W01
	.byte		        c_v-31
	.byte	W01
	.byte		        c_v-32
	.byte	W01
	.byte		        c_v-33
	.byte	W01
	.byte		        c_v-35
	.byte	W01
	.byte		        c_v-36
	.byte	W01
	.byte		        c_v-37
	.byte	W01
	.byte		        c_v-39
	.byte	W01
	.byte		        c_v-40
	.byte	W01
	.byte		        c_v-41
	.byte	W01
	.byte		        c_v-43
	.byte	W01
	.byte		        c_v-44
	.byte	W01
	.byte		        c_v-45
	.byte	W01
	.byte		        c_v-47
	.byte	W01
	.byte		        c_v-48
	.byte	W01
	.byte		        c_v-49
	.byte	W01
	.byte		        c_v-51
	.byte	W01
	.byte		        c_v-52
	.byte	W01
	.byte		        c_v-53
	.byte	W01
	.byte		        c_v-55
	.byte	W01
	.byte		        c_v-56
	.byte	W01
	.byte		        c_v-57
	.byte	W01
	.byte		        c_v-59
	.byte	W01
	.byte		        c_v-60
	.byte	W01
	.byte		        c_v-61
	.byte	W01
	.byte		        c_v-63
	.byte	W01
	.byte		        c_v-64
	.byte	W01
	.byte		        c_v-64
	.byte	W01
	.byte		        c_v-63
	.byte	W01
	.byte		        c_v-62
	.byte	W01
	.byte		        c_v-61
	.byte	W01
	.byte		        c_v-59
	.byte	W01
	.byte		        c_v-58
	.byte	W01
	.byte		        c_v-57
	.byte	W01
	.byte		        c_v-55
	.byte	W01
	.byte		        c_v-54
	.byte	W01
	.byte		        c_v-52
	.byte	W01
	.byte		        c_v-51
	.byte	W01
	.byte		        c_v-50
	.byte	W01
	.byte		        c_v-48
	.byte	W01
	.byte		        c_v-47
	.byte	W01
	.byte		        c_v-46
	.byte	W01
	.byte		        c_v-44
	.byte	W01
	.byte		        c_v-43
	.byte	W01
	.byte		        c_v-42
	.byte	W01
	.byte		        c_v-40
	.byte	W01
	.byte		        c_v-39
	.byte	W01
	.byte		        c_v-38
	.byte	W01
	.byte		        c_v-36
	.byte	W01
	.byte		        c_v-35
	.byte	W01
	.byte		        c_v-34
	.byte	W01
	.byte		        c_v-32
	.byte	W01
	.byte		        c_v-31
	.byte	W01
	.byte		        c_v-30
	.byte	W01
	.byte		        c_v-28
	.byte	W01
	.byte		        c_v-27
	.byte	W01
	.byte		        c_v-26
	.byte	W01
	.byte		        c_v-24
	.byte	W01
	.byte		        c_v-23
	.byte	W01
	.byte		        c_v-22
	.byte	W01
	.byte		        c_v-20
	.byte	W01
	.byte		        c_v-19
	.byte	W01
	.byte		        c_v-18
	.byte	W01
	.byte		        c_v-16
	.byte	W01
	.byte		        c_v-15
	.byte	W01
	.byte		        c_v-14
	.byte	W01
	.byte		        c_v-12
	.byte	W01
	.byte		        c_v-11
	.byte	W01
	.byte		        c_v-10
	.byte	W01
	.byte		        c_v-8
	.byte	W01
	.byte		        c_v-7
	.byte	W01
	.byte		        c_v-6
	.byte	W01
	.byte		        c_v-4
	.byte	W01
	.byte		        c_v-3
	.byte	W02
@ 005   ----------------------------------------
	.byte		        c_v-2
	.byte	W01
	.byte		        c_v+0
	.byte	W01
	.byte		        c_v+1
	.byte	W01
	.byte		        c_v+2
	.byte	W01
	.byte		        c_v+4
	.byte	W01
	.byte		        c_v+5
	.byte	W01
	.byte		        c_v+6
	.byte	W01
	.byte		        c_v+8
	.byte	W01
	.byte		        c_v+9
	.byte	W01
	.byte		        c_v+10
	.byte	W01
	.byte		        c_v+12
	.byte	W01
	.byte		        c_v+13
	.byte	W01
	.byte		        c_v+14
	.byte	W01
	.byte		        c_v+16
	.byte	W01
	.byte		        c_v+17
	.byte	W01
	.byte		        c_v+18
	.byte	W01
	.byte		        c_v+20
	.byte	W01
	.byte		        c_v+21
	.byte	W01
	.byte		        c_v+22
	.byte	W01
	.byte		        c_v+24
	.byte	W01
	.byte		        c_v+25
	.byte	W01
	.byte		        c_v+26
	.byte	W01
	.byte		        c_v+28
	.byte	W01
	.byte		        c_v+29
	.byte	W01
	.byte		        c_v+30
	.byte	W01
	.byte		        c_v+32
	.byte	W01
	.byte		        c_v+33
	.byte	W01
	.byte		        c_v+34
	.byte	W01
	.byte		        c_v+36
	.byte	W01
	.byte		        c_v+37
	.byte	W01
	.byte		        c_v+38
	.byte	W01
	.byte		        c_v+40
	.byte	W01
	.byte		        c_v+41
	.byte	W01
	.byte		        c_v+42
	.byte	W01
	.byte		        c_v+44
	.byte	W01
	.byte		        c_v+45
	.byte	W01
	.byte		        c_v+46
	.byte	W01
	.byte		        c_v+48
	.byte	W01
	.byte		        c_v+49
	.byte	W01
	.byte		        c_v+50
	.byte	W01
	.byte		        c_v+52
	.byte	W01
	.byte		        c_v+53
	.byte	W01
	.byte		        c_v+54
	.byte	W01
	.byte		        c_v+56
	.byte	W01
	.byte		        c_v+57
	.byte	W01
	.byte		        c_v+58
	.byte	W01
	.byte		        c_v+60
	.byte	W01
	.byte		        c_v+62
	.byte	W01
	.byte		        c_v+62
	.byte	W01
	.byte		        c_v+60
	.byte	W01
	.byte		        c_v+59
	.byte	W01
	.byte		        c_v+58
	.byte	W01
	.byte		        c_v+56
	.byte	W01
	.byte		        c_v+55
	.byte	W01
	.byte		        c_v+54
	.byte	W01
	.byte		        c_v+52
	.byte	W01
	.byte		        c_v+51
	.byte	W01
	.byte		        c_v+49
	.byte	W01
	.byte		        c_v+48
	.byte	W01
	.byte		        c_v+47
	.byte	W01
	.byte		        c_v+45
	.byte	W01
	.byte		        c_v+44
	.byte	W01
	.byte		        c_v+43
	.byte	W01
	.byte		        c_v+41
	.byte	W01
	.byte		        c_v+40
	.byte	W01
	.byte		        c_v+39
	.byte	W01
	.byte		        c_v+37
	.byte	W01
	.byte		        c_v+36
	.byte	W01
	.byte		        c_v+35
	.byte	W01
	.byte		        c_v+33
	.byte	W01
	.byte		        c_v+32
	.byte	W01
	.byte		        c_v+31
	.byte	W01
	.byte		        c_v+29
	.byte	W01
	.byte		        c_v+28
	.byte	W01
	.byte		        c_v+27
	.byte	W01
	.byte		        c_v+25
	.byte	W01
	.byte		        c_v+24
	.byte	W01
	.byte		        c_v+23
	.byte	W01
	.byte		        c_v+21
	.byte	W01
	.byte		        c_v+20
	.byte	W01
	.byte		        c_v+19
	.byte	W01
	.byte		        c_v+17
	.byte	W01
	.byte		        c_v+16
	.byte	W01
	.byte		        c_v+15
	.byte	W01
	.byte		        c_v+13
	.byte	W01
	.byte		        c_v+12
	.byte	W01
	.byte		        c_v+11
	.byte	W01
	.byte		        c_v+9
	.byte	W01
	.byte		        c_v+8
	.byte	W01
	.byte		        c_v+7
	.byte	W01
	.byte		        c_v+5
	.byte	W01
	.byte		        c_v+4
	.byte	W01
	.byte		        c_v+3
	.byte	W01
	.byte		        c_v+1
	.byte	W01
	.byte		        c_v+0
	.byte	W02
	.byte		EOT   , An2 
@ 006   ----------------------------------------
	.byte		PAN   , c_v-1
	.byte		TIE   , An2 , v112
	.byte	W01
	.byte		PAN   , c_v-3
	.byte	W01
	.byte		        c_v-4
	.byte	W01
	.byte		        c_v-5
	.byte	W01
	.byte		        c_v-7
	.byte	W01
	.byte		        c_v-8
	.byte	W01
	.byte		        c_v-9
	.byte	W01
	.byte		        c_v-11
	.byte	W01
	.byte		        c_v-12
	.byte	W01
	.byte		        c_v-13
	.byte	W01
	.byte		        c_v-15
	.byte	W01
	.byte		        c_v-16
	.byte	W01
	.byte		        c_v-17
	.byte	W01
	.byte		        c_v-19
	.byte	W01
	.byte		        c_v-20
	.byte	W01
	.byte		        c_v-21
	.byte	W01
	.byte		        c_v-23
	.byte	W01
	.byte		        c_v-24
	.byte	W01
	.byte		        c_v-25
	.byte	W01
	.byte		        c_v-27
	.byte	W01
	.byte		        c_v-28
	.byte	W01
	.byte		        c_v-29
	.byte	W01
	.byte		        c_v-31
	.byte	W01
	.byte		        c_v-32
	.byte	W01
	.byte		        c_v-33
	.byte	W01
	.byte		        c_v-35
	.byte	W01
	.byte		        c_v-36
	.byte	W01
	.byte		        c_v-37
	.byte	W01
	.byte		        c_v-39
	.byte	W01
	.byte		        c_v-40
	.byte	W01
	.byte		        c_v-41
	.byte	W01
	.byte		        c_v-43
	.byte	W01
	.byte		        c_v-44
	.byte	W01
	.byte		        c_v-45
	.byte	W01
	.byte		        c_v-47
	.byte	W01
	.byte		        c_v-48
	.byte	W01
	.byte		        c_v-49
	.byte	W01
	.byte		        c_v-51
	.byte	W01
	.byte		        c_v-52
	.byte	W01
	.byte		        c_v-53
	.byte	W01
	.byte		        c_v-55
	.byte	W01
	.byte		        c_v-56
	.byte	W01
	.byte		        c_v-57
	.byte	W01
	.byte		        c_v-59
	.byte	W01
	.byte		        c_v-60
	.byte	W01
	.byte		        c_v-61
	.byte	W01
	.byte		        c_v-63
	.byte	W01
	.byte		        c_v-64
	.byte	W01
	.byte		        c_v-64
	.byte	W01
	.byte		        c_v-63
	.byte	W01
	.byte		        c_v-62
	.byte	W01
	.byte		        c_v-60
	.byte	W01
	.byte		        c_v-59
	.byte	W01
	.byte		        c_v-58
	.byte	W01
	.byte		        c_v-56
	.byte	W01
	.byte		        c_v-55
	.byte	W01
	.byte		        c_v-54
	.byte	W01
	.byte		        c_v-52
	.byte	W01
	.byte		        c_v-51
	.byte	W01
	.byte		        c_v-50
	.byte	W01
	.byte		        c_v-48
	.byte	W01
	.byte		        c_v-47
	.byte	W01
	.byte		        c_v-46
	.byte	W01
	.byte		        c_v-44
	.byte	W01
	.byte		        c_v-43
	.byte	W01
	.byte		        c_v-42
	.byte	W01
	.byte		        c_v-40
	.byte	W01
	.byte		        c_v-39
	.byte	W01
	.byte		        c_v-38
	.byte	W01
	.byte		        c_v-36
	.byte	W01
	.byte		        c_v-35
	.byte	W01
	.byte		        c_v-34
	.byte	W01
	.byte		        c_v-32
	.byte	W01
	.byte		        c_v-31
	.byte	W01
	.byte		        c_v-29
	.byte	W01
	.byte		        c_v-28
	.byte	W01
	.byte		        c_v-27
	.byte	W01
	.byte		        c_v-25
	.byte	W01
	.byte		        c_v-24
	.byte	W01
	.byte		        c_v-23
	.byte	W01
	.byte		        c_v-21
	.byte	W01
	.byte		        c_v-20
	.byte	W01
	.byte		        c_v-19
	.byte	W01
	.byte		        c_v-17
	.byte	W01
	.byte		        c_v-16
	.byte	W01
	.byte		        c_v-15
	.byte	W01
	.byte		        c_v-13
	.byte	W01
	.byte		        c_v-12
	.byte	W01
	.byte		        c_v-11
	.byte	W01
	.byte		        c_v-9
	.byte	W01
	.byte		        c_v-8
	.byte	W01
	.byte		        c_v-7
	.byte	W01
	.byte		        c_v-5
	.byte	W01
	.byte		        c_v-4
	.byte	W01
	.byte		        c_v-3
	.byte	W02
@ 007   ----------------------------------------
	.byte	PATT
	 .word	feb20211210232341_4_003
@ 008   ----------------------------------------
feb20211210232341_4_008:
	.byte		PAN   , c_v-1
	.byte	W01
	.byte		        c_v-3
	.byte	W01
	.byte		        c_v-4
	.byte	W01
	.byte		        c_v-5
	.byte	W01
	.byte		        c_v-7
	.byte	W01
	.byte		        c_v-8
	.byte	W01
	.byte		        c_v-9
	.byte	W01
	.byte		        c_v-11
	.byte	W01
	.byte		        c_v-12
	.byte	W01
	.byte		        c_v-13
	.byte	W01
	.byte		        c_v-15
	.byte	W01
	.byte		        c_v-16
	.byte	W01
	.byte		        c_v-17
	.byte	W01
	.byte		        c_v-19
	.byte	W01
	.byte		        c_v-20
	.byte	W01
	.byte		        c_v-21
	.byte	W01
	.byte		        c_v-23
	.byte	W01
	.byte		        c_v-24
	.byte	W01
	.byte		        c_v-25
	.byte	W01
	.byte		        c_v-27
	.byte	W01
	.byte		        c_v-28
	.byte	W01
	.byte		        c_v-29
	.byte	W01
	.byte		        c_v-31
	.byte	W01
	.byte		        c_v-32
	.byte	W01
	.byte		        c_v-33
	.byte	W01
	.byte		        c_v-35
	.byte	W01
	.byte		        c_v-36
	.byte	W01
	.byte		        c_v-37
	.byte	W01
	.byte		        c_v-39
	.byte	W01
	.byte		        c_v-40
	.byte	W01
	.byte		        c_v-41
	.byte	W01
	.byte		        c_v-43
	.byte	W01
	.byte		        c_v-44
	.byte	W01
	.byte		        c_v-45
	.byte	W01
	.byte		        c_v-47
	.byte	W01
	.byte		        c_v-48
	.byte	W01
	.byte		        c_v-49
	.byte	W01
	.byte		        c_v-51
	.byte	W01
	.byte		        c_v-52
	.byte	W01
	.byte		        c_v-53
	.byte	W01
	.byte		        c_v-55
	.byte	W01
	.byte		        c_v-56
	.byte	W01
	.byte		        c_v-57
	.byte	W01
	.byte		        c_v-59
	.byte	W01
	.byte		        c_v-60
	.byte	W01
	.byte		        c_v-61
	.byte	W01
	.byte		        c_v-63
	.byte	W01
	.byte		        c_v-64
	.byte	W01
	.byte		        c_v-64
	.byte	W01
	.byte		        c_v-63
	.byte	W01
	.byte		        c_v-62
	.byte	W01
	.byte		        c_v-60
	.byte	W01
	.byte		        c_v-59
	.byte	W01
	.byte		        c_v-58
	.byte	W01
	.byte		        c_v-56
	.byte	W01
	.byte		        c_v-55
	.byte	W01
	.byte		        c_v-54
	.byte	W01
	.byte		        c_v-52
	.byte	W01
	.byte		        c_v-51
	.byte	W01
	.byte		        c_v-50
	.byte	W01
	.byte		        c_v-48
	.byte	W01
	.byte		        c_v-47
	.byte	W01
	.byte		        c_v-46
	.byte	W01
	.byte		        c_v-44
	.byte	W01
	.byte		        c_v-43
	.byte	W01
	.byte		        c_v-42
	.byte	W01
	.byte		        c_v-40
	.byte	W01
	.byte		        c_v-39
	.byte	W01
	.byte		        c_v-38
	.byte	W01
	.byte		        c_v-36
	.byte	W01
	.byte		        c_v-35
	.byte	W01
	.byte		        c_v-34
	.byte	W01
	.byte		        c_v-32
	.byte	W01
	.byte		        c_v-31
	.byte	W01
	.byte		        c_v-29
	.byte	W01
	.byte		        c_v-28
	.byte	W01
	.byte		        c_v-27
	.byte	W01
	.byte		        c_v-25
	.byte	W01
	.byte		        c_v-24
	.byte	W01
	.byte		        c_v-23
	.byte	W01
	.byte		        c_v-21
	.byte	W01
	.byte		        c_v-20
	.byte	W01
	.byte		        c_v-19
	.byte	W01
	.byte		        c_v-17
	.byte	W01
	.byte		        c_v-16
	.byte	W01
	.byte		        c_v-15
	.byte	W01
	.byte		        c_v-13
	.byte	W01
	.byte		        c_v-12
	.byte	W01
	.byte		        c_v-11
	.byte	W01
	.byte		        c_v-9
	.byte	W01
	.byte		        c_v-8
	.byte	W01
	.byte		        c_v-7
	.byte	W01
	.byte		        c_v-5
	.byte	W01
	.byte		        c_v-4
	.byte	W01
	.byte		        c_v-3
	.byte	W02
	.byte	PEND
@ 009   ----------------------------------------
	.byte		        c_v-1
	.byte	W01
	.byte		        c_v+0
	.byte	W01
	.byte		        c_v+1
	.byte	W01
	.byte		        c_v+3
	.byte	W01
	.byte		        c_v+4
	.byte	W01
	.byte		        c_v+6
	.byte	W01
	.byte		        c_v+7
	.byte	W01
	.byte		        c_v+8
	.byte	W01
	.byte		        c_v+10
	.byte	W01
	.byte		        c_v+11
	.byte	W01
	.byte		        c_v+12
	.byte	W01
	.byte		        c_v+14
	.byte	W01
	.byte		        c_v+15
	.byte	W01
	.byte		        c_v+16
	.byte	W01
	.byte		        c_v+18
	.byte	W01
	.byte		        c_v+19
	.byte	W01
	.byte		        c_v+20
	.byte	W01
	.byte		        c_v+22
	.byte	W01
	.byte		        c_v+23
	.byte	W01
	.byte		        c_v+24
	.byte	W01
	.byte		        c_v+26
	.byte	W01
	.byte		        c_v+27
	.byte	W01
	.byte		        c_v+28
	.byte	W01
	.byte		        c_v+30
	.byte	W01
	.byte		        c_v+31
	.byte	W01
	.byte		        c_v+32
	.byte	W01
	.byte		        c_v+34
	.byte	W01
	.byte		        c_v+35
	.byte	W01
	.byte		        c_v+36
	.byte	W01
	.byte		        c_v+38
	.byte	W01
	.byte		        c_v+39
	.byte	W01
	.byte		        c_v+41
	.byte	W01
	.byte		        c_v+42
	.byte	W01
	.byte		        c_v+43
	.byte	W01
	.byte		        c_v+45
	.byte	W01
	.byte		        c_v+46
	.byte	W01
	.byte		        c_v+47
	.byte	W01
	.byte		        c_v+49
	.byte	W01
	.byte		        c_v+50
	.byte	W01
	.byte		        c_v+51
	.byte	W01
	.byte		        c_v+53
	.byte	W01
	.byte		        c_v+54
	.byte	W01
	.byte		        c_v+55
	.byte	W01
	.byte		        c_v+57
	.byte	W01
	.byte		        c_v+58
	.byte	W01
	.byte		        c_v+59
	.byte	W01
	.byte		        c_v+61
	.byte	W01
	.byte		        c_v+63
	.byte	W01
	.byte		        c_v+60
	.byte	W01
	.byte		        c_v+58
	.byte	W01
	.byte		        c_v+57
	.byte	W01
	.byte		        c_v+56
	.byte	W01
	.byte		        c_v+54
	.byte	W01
	.byte		        c_v+53
	.byte	W01
	.byte		        c_v+52
	.byte	W01
	.byte		        c_v+50
	.byte	W01
	.byte		        c_v+49
	.byte	W01
	.byte		        c_v+48
	.byte	W01
	.byte		        c_v+46
	.byte	W01
	.byte		        c_v+45
	.byte	W01
	.byte		        c_v+44
	.byte	W01
	.byte		        c_v+42
	.byte	W01
	.byte		        c_v+41
	.byte	W01
	.byte		        c_v+40
	.byte	W01
	.byte		        c_v+38
	.byte	W01
	.byte		        c_v+37
	.byte	W01
	.byte		        c_v+36
	.byte	W01
	.byte		        c_v+34
	.byte	W01
	.byte		        c_v+33
	.byte	W01
	.byte		        c_v+32
	.byte	W01
	.byte		        c_v+31
	.byte	W01
	.byte		        c_v+29
	.byte	W01
	.byte		        c_v+28
	.byte	W01
	.byte		        c_v+27
	.byte	W01
	.byte		        c_v+25
	.byte	W01
	.byte		        c_v+24
	.byte	W01
	.byte		        c_v+23
	.byte	W01
	.byte		        c_v+21
	.byte	W01
	.byte		        c_v+20
	.byte	W01
	.byte		        c_v+19
	.byte	W01
	.byte		        c_v+17
	.byte	W01
	.byte		        c_v+16
	.byte	W01
	.byte		        c_v+15
	.byte	W01
	.byte		        c_v+13
	.byte	W01
	.byte		        c_v+12
	.byte	W01
	.byte		        c_v+11
	.byte	W01
	.byte		        c_v+9
	.byte	W01
	.byte		        c_v+8
	.byte	W01
	.byte		        c_v+7
	.byte	W01
	.byte		        c_v+6
	.byte	W01
	.byte		        c_v+4
	.byte	W01
	.byte		        c_v+3
	.byte	W01
	.byte		        c_v+2
	.byte	W01
	.byte		        c_v+0
	.byte	W01
	.byte		        c_v-1
	.byte	W02
	.byte		EOT   , An2 
@ 010   ----------------------------------------
	.byte		PAN   , c_v-2
	.byte		TIE   , Cn3 , v112
	.byte	W01
	.byte		PAN   , c_v-4
	.byte	W01
	.byte		        c_v-5
	.byte	W01
	.byte		        c_v-6
	.byte	W01
	.byte		        c_v-8
	.byte	W01
	.byte		        c_v-9
	.byte	W01
	.byte		        c_v-10
	.byte	W01
	.byte		        c_v-12
	.byte	W01
	.byte		        c_v-13
	.byte	W01
	.byte		        c_v-14
	.byte	W01
	.byte		        c_v-16
	.byte	W01
	.byte		        c_v-17
	.byte	W01
	.byte		        c_v-18
	.byte	W01
	.byte		        c_v-19
	.byte	W01
	.byte		        c_v-21
	.byte	W01
	.byte		        c_v-22
	.byte	W01
	.byte		        c_v-23
	.byte	W01
	.byte		        c_v-25
	.byte	W01
	.byte		        c_v-26
	.byte	W01
	.byte		        c_v-27
	.byte	W01
	.byte		        c_v-29
	.byte	W01
	.byte		        c_v-30
	.byte	W01
	.byte		        c_v-31
	.byte	W01
	.byte		        c_v-33
	.byte	W01
	.byte		        c_v-34
	.byte	W01
	.byte		        c_v-35
	.byte	W01
	.byte		        c_v-37
	.byte	W01
	.byte		        c_v-38
	.byte	W01
	.byte		        c_v-39
	.byte	W01
	.byte		        c_v-41
	.byte	W01
	.byte		        c_v-42
	.byte	W01
	.byte		        c_v-43
	.byte	W01
	.byte		        c_v-44
	.byte	W01
	.byte		        c_v-46
	.byte	W01
	.byte		        c_v-47
	.byte	W01
	.byte		        c_v-48
	.byte	W01
	.byte		        c_v-50
	.byte	W01
	.byte		        c_v-51
	.byte	W01
	.byte		        c_v-52
	.byte	W01
	.byte		        c_v-54
	.byte	W01
	.byte		        c_v-55
	.byte	W01
	.byte		        c_v-56
	.byte	W01
	.byte		        c_v-58
	.byte	W01
	.byte		        c_v-59
	.byte	W01
	.byte		        c_v-60
	.byte	W01
	.byte		        c_v-62
	.byte	W01
	.byte		        c_v-63
	.byte	W01
	.byte		        c_v-64
	.byte	W01
	.byte		        c_v-64
	.byte	W01
	.byte		        c_v-63
	.byte	W01
	.byte		        c_v-62
	.byte	W01
	.byte		        c_v-60
	.byte	W01
	.byte		        c_v-59
	.byte	W01
	.byte		        c_v-58
	.byte	W01
	.byte		        c_v-56
	.byte	W01
	.byte		        c_v-55
	.byte	W01
	.byte		        c_v-54
	.byte	W01
	.byte		        c_v-52
	.byte	W01
	.byte		        c_v-51
	.byte	W01
	.byte		        c_v-50
	.byte	W01
	.byte		        c_v-48
	.byte	W01
	.byte		        c_v-47
	.byte	W01
	.byte		        c_v-46
	.byte	W01
	.byte		        c_v-44
	.byte	W01
	.byte		        c_v-43
	.byte	W01
	.byte		        c_v-42
	.byte	W01
	.byte		        c_v-40
	.byte	W01
	.byte		        c_v-39
	.byte	W01
	.byte		        c_v-38
	.byte	W01
	.byte		        c_v-36
	.byte	W01
	.byte		        c_v-35
	.byte	W01
	.byte		        c_v-34
	.byte	W01
	.byte		        c_v-32
	.byte	W01
	.byte		        c_v-31
	.byte	W01
	.byte		        c_v-29
	.byte	W01
	.byte		        c_v-28
	.byte	W01
	.byte		        c_v-27
	.byte	W01
	.byte		        c_v-25
	.byte	W01
	.byte		        c_v-24
	.byte	W01
	.byte		        c_v-23
	.byte	W01
	.byte		        c_v-21
	.byte	W01
	.byte		        c_v-20
	.byte	W01
	.byte		        c_v-19
	.byte	W01
	.byte		        c_v-17
	.byte	W01
	.byte		        c_v-16
	.byte	W01
	.byte		        c_v-15
	.byte	W01
	.byte		        c_v-13
	.byte	W01
	.byte		        c_v-12
	.byte	W01
	.byte		        c_v-11
	.byte	W01
	.byte		        c_v-9
	.byte	W01
	.byte		        c_v-8
	.byte	W01
	.byte		        c_v-7
	.byte	W01
	.byte		        c_v-5
	.byte	W01
	.byte		        c_v-4
	.byte	W01
	.byte		        c_v-3
	.byte	W02
@ 011   ----------------------------------------
feb20211210232341_4_011:
	.byte		PAN   , c_v-1
	.byte	W01
	.byte		        c_v+0
	.byte	W01
	.byte		        c_v+1
	.byte	W01
	.byte		        c_v+3
	.byte	W01
	.byte		        c_v+4
	.byte	W01
	.byte		        c_v+6
	.byte	W01
	.byte		        c_v+7
	.byte	W01
	.byte		        c_v+8
	.byte	W01
	.byte		        c_v+10
	.byte	W01
	.byte		        c_v+11
	.byte	W01
	.byte		        c_v+12
	.byte	W01
	.byte		        c_v+14
	.byte	W01
	.byte		        c_v+15
	.byte	W01
	.byte		        c_v+16
	.byte	W01
	.byte		        c_v+18
	.byte	W01
	.byte		        c_v+19
	.byte	W01
	.byte		        c_v+20
	.byte	W01
	.byte		        c_v+22
	.byte	W01
	.byte		        c_v+23
	.byte	W01
	.byte		        c_v+24
	.byte	W01
	.byte		        c_v+26
	.byte	W01
	.byte		        c_v+27
	.byte	W01
	.byte		        c_v+28
	.byte	W01
	.byte		        c_v+30
	.byte	W01
	.byte		        c_v+31
	.byte	W01
	.byte		        c_v+32
	.byte	W01
	.byte		        c_v+34
	.byte	W01
	.byte		        c_v+35
	.byte	W01
	.byte		        c_v+36
	.byte	W01
	.byte		        c_v+38
	.byte	W01
	.byte		        c_v+39
	.byte	W01
	.byte		        c_v+41
	.byte	W01
	.byte		        c_v+42
	.byte	W01
	.byte		        c_v+43
	.byte	W01
	.byte		        c_v+45
	.byte	W01
	.byte		        c_v+46
	.byte	W01
	.byte		        c_v+47
	.byte	W01
	.byte		        c_v+49
	.byte	W01
	.byte		        c_v+50
	.byte	W01
	.byte		        c_v+51
	.byte	W01
	.byte		        c_v+53
	.byte	W01
	.byte		        c_v+54
	.byte	W01
	.byte		        c_v+55
	.byte	W01
	.byte		        c_v+57
	.byte	W01
	.byte		        c_v+58
	.byte	W01
	.byte		        c_v+59
	.byte	W01
	.byte		        c_v+61
	.byte	W01
	.byte		        c_v+63
	.byte	W01
	.byte		        c_v+63
	.byte	W01
	.byte		        c_v+61
	.byte	W01
	.byte		        c_v+60
	.byte	W01
	.byte		        c_v+58
	.byte	W01
	.byte		        c_v+57
	.byte	W01
	.byte		        c_v+56
	.byte	W01
	.byte		        c_v+54
	.byte	W01
	.byte		        c_v+53
	.byte	W01
	.byte		        c_v+52
	.byte	W01
	.byte		        c_v+50
	.byte	W01
	.byte		        c_v+49
	.byte	W01
	.byte		        c_v+48
	.byte	W01
	.byte		        c_v+46
	.byte	W01
	.byte		        c_v+45
	.byte	W01
	.byte		        c_v+44
	.byte	W01
	.byte		        c_v+42
	.byte	W01
	.byte		        c_v+41
	.byte	W01
	.byte		        c_v+40
	.byte	W01
	.byte		        c_v+38
	.byte	W01
	.byte		        c_v+37
	.byte	W01
	.byte		        c_v+36
	.byte	W01
	.byte		        c_v+34
	.byte	W01
	.byte		        c_v+33
	.byte	W01
	.byte		        c_v+32
	.byte	W01
	.byte		        c_v+30
	.byte	W01
	.byte		        c_v+29
	.byte	W01
	.byte		        c_v+27
	.byte	W01
	.byte		        c_v+26
	.byte	W01
	.byte		        c_v+25
	.byte	W01
	.byte		        c_v+23
	.byte	W01
	.byte		        c_v+22
	.byte	W01
	.byte		        c_v+21
	.byte	W01
	.byte		        c_v+19
	.byte	W01
	.byte		        c_v+18
	.byte	W01
	.byte		        c_v+17
	.byte	W01
	.byte		        c_v+15
	.byte	W01
	.byte		        c_v+14
	.byte	W01
	.byte		        c_v+13
	.byte	W01
	.byte		        c_v+11
	.byte	W01
	.byte		        c_v+10
	.byte	W01
	.byte		        c_v+9
	.byte	W01
	.byte		        c_v+7
	.byte	W01
	.byte		        c_v+6
	.byte	W01
	.byte		        c_v+5
	.byte	W01
	.byte		        c_v+3
	.byte	W01
	.byte		        c_v+2
	.byte	W01
	.byte		        c_v+1
	.byte	W02
	.byte	PEND
@ 012   ----------------------------------------
	.byte		        c_v-1
	.byte	W01
	.byte		        c_v-2
	.byte	W01
	.byte		        c_v-3
	.byte	W01
	.byte		        c_v-5
	.byte	W01
	.byte		        c_v-6
	.byte	W01
	.byte		        c_v-8
	.byte	W01
	.byte		        c_v-9
	.byte	W01
	.byte		        c_v-10
	.byte	W01
	.byte		        c_v-12
	.byte	W01
	.byte		        c_v-13
	.byte	W01
	.byte		        c_v-14
	.byte	W01
	.byte		        c_v-16
	.byte	W01
	.byte		        c_v-17
	.byte	W01
	.byte		        c_v-18
	.byte	W01
	.byte		        c_v-20
	.byte	W01
	.byte		        c_v-21
	.byte	W01
	.byte		        c_v-22
	.byte	W01
	.byte		        c_v-24
	.byte	W01
	.byte		        c_v-25
	.byte	W01
	.byte		        c_v-26
	.byte	W01
	.byte		        c_v-28
	.byte	W01
	.byte		        c_v-29
	.byte	W01
	.byte		        c_v-30
	.byte	W01
	.byte		        c_v-32
	.byte	W01
	.byte		        c_v-33
	.byte	W01
	.byte		        c_v-34
	.byte	W01
	.byte		        c_v-36
	.byte	W01
	.byte		        c_v-37
	.byte	W01
	.byte		        c_v-38
	.byte	W01
	.byte		        c_v-40
	.byte	W01
	.byte		        c_v-41
	.byte	W01
	.byte		        c_v-43
	.byte	W01
	.byte		        c_v-44
	.byte	W01
	.byte		        c_v-45
	.byte	W01
	.byte		        c_v-47
	.byte	W01
	.byte		        c_v-48
	.byte	W01
	.byte		        c_v-49
	.byte	W01
	.byte		        c_v-51
	.byte	W01
	.byte		        c_v-52
	.byte	W01
	.byte		        c_v-53
	.byte	W01
	.byte		        c_v-55
	.byte	W01
	.byte		        c_v-56
	.byte	W01
	.byte		        c_v-57
	.byte	W01
	.byte		        c_v-59
	.byte	W01
	.byte		        c_v-60
	.byte	W01
	.byte		        c_v-61
	.byte	W01
	.byte		        c_v-63
	.byte	W01
	.byte		        c_v-64
	.byte	W01
	.byte		        c_v-64
	.byte	W01
	.byte		        c_v-63
	.byte	W01
	.byte		        c_v-62
	.byte	W01
	.byte		        c_v-60
	.byte	W01
	.byte		        c_v-59
	.byte	W01
	.byte		        c_v-58
	.byte	W01
	.byte		        c_v-56
	.byte	W01
	.byte		        c_v-55
	.byte	W01
	.byte		        c_v-54
	.byte	W01
	.byte		        c_v-52
	.byte	W01
	.byte		        c_v-51
	.byte	W01
	.byte		        c_v-50
	.byte	W01
	.byte		        c_v-48
	.byte	W01
	.byte		        c_v-47
	.byte	W01
	.byte		        c_v-46
	.byte	W01
	.byte		        c_v-44
	.byte	W01
	.byte		        c_v-43
	.byte	W01
	.byte		        c_v-42
	.byte	W01
	.byte		        c_v-40
	.byte	W01
	.byte		        c_v-39
	.byte	W01
	.byte		        c_v-38
	.byte	W01
	.byte		        c_v-36
	.byte	W01
	.byte		        c_v-35
	.byte	W01
	.byte		        c_v-34
	.byte	W01
	.byte		        c_v-32
	.byte	W01
	.byte		        c_v-31
	.byte	W01
	.byte		        c_v-29
	.byte	W01
	.byte		        c_v-28
	.byte	W01
	.byte		        c_v-27
	.byte	W01
	.byte		        c_v-25
	.byte	W01
	.byte		        c_v-24
	.byte	W01
	.byte		        c_v-23
	.byte	W01
	.byte		        c_v-21
	.byte	W01
	.byte		        c_v-20
	.byte	W01
	.byte		        c_v-19
	.byte	W01
	.byte		        c_v-17
	.byte	W01
	.byte		        c_v-16
	.byte	W01
	.byte		        c_v-15
	.byte	W01
	.byte		        c_v-13
	.byte	W01
	.byte		        c_v-12
	.byte	W01
	.byte		        c_v-11
	.byte	W01
	.byte		        c_v-9
	.byte	W01
	.byte		        c_v-8
	.byte	W01
	.byte		        c_v-7
	.byte	W01
	.byte		        c_v-5
	.byte	W01
	.byte		        c_v-4
	.byte	W01
	.byte		        c_v-3
	.byte	W02
@ 013   ----------------------------------------
	.byte	PATT
	 .word	feb20211210232341_4_011
	.byte		EOT   , Cn3 
@ 014   ----------------------------------------
	.byte		PAN   , c_v-1
	.byte		TIE   , Cn3 , v112
	.byte	W01
	.byte		PAN   , c_v-2
	.byte	W01
	.byte		        c_v-3
	.byte	W01
	.byte		        c_v-5
	.byte	W01
	.byte		        c_v-6
	.byte	W01
	.byte		        c_v-8
	.byte	W01
	.byte		        c_v-9
	.byte	W01
	.byte		        c_v-10
	.byte	W01
	.byte		        c_v-12
	.byte	W01
	.byte		        c_v-13
	.byte	W01
	.byte		        c_v-14
	.byte	W01
	.byte		        c_v-16
	.byte	W01
	.byte		        c_v-17
	.byte	W01
	.byte		        c_v-18
	.byte	W01
	.byte		        c_v-20
	.byte	W01
	.byte		        c_v-21
	.byte	W01
	.byte		        c_v-22
	.byte	W01
	.byte		        c_v-24
	.byte	W01
	.byte		        c_v-25
	.byte	W01
	.byte		        c_v-26
	.byte	W01
	.byte		        c_v-28
	.byte	W01
	.byte		        c_v-29
	.byte	W01
	.byte		        c_v-30
	.byte	W01
	.byte		        c_v-32
	.byte	W01
	.byte		        c_v-33
	.byte	W01
	.byte		        c_v-34
	.byte	W01
	.byte		        c_v-36
	.byte	W01
	.byte		        c_v-37
	.byte	W01
	.byte		        c_v-38
	.byte	W01
	.byte		        c_v-40
	.byte	W01
	.byte		        c_v-41
	.byte	W01
	.byte		        c_v-43
	.byte	W01
	.byte		        c_v-44
	.byte	W01
	.byte		        c_v-45
	.byte	W01
	.byte		        c_v-47
	.byte	W01
	.byte		        c_v-48
	.byte	W01
	.byte		        c_v-49
	.byte	W01
	.byte		        c_v-51
	.byte	W01
	.byte		        c_v-52
	.byte	W01
	.byte		        c_v-53
	.byte	W01
	.byte		        c_v-55
	.byte	W01
	.byte		        c_v-56
	.byte	W01
	.byte		        c_v-57
	.byte	W01
	.byte		        c_v-59
	.byte	W01
	.byte		        c_v-60
	.byte	W01
	.byte		        c_v-61
	.byte	W01
	.byte		        c_v-63
	.byte	W01
	.byte		        c_v-64
	.byte	W01
	.byte		        c_v-64
	.byte	W01
	.byte		        c_v-63
	.byte	W01
	.byte		        c_v-62
	.byte	W01
	.byte		        c_v-60
	.byte	W01
	.byte		        c_v-59
	.byte	W01
	.byte		        c_v-58
	.byte	W01
	.byte		        c_v-56
	.byte	W01
	.byte		        c_v-55
	.byte	W01
	.byte		        c_v-54
	.byte	W01
	.byte		        c_v-52
	.byte	W01
	.byte		        c_v-51
	.byte	W01
	.byte		        c_v-50
	.byte	W01
	.byte		        c_v-48
	.byte	W01
	.byte		        c_v-47
	.byte	W01
	.byte		        c_v-46
	.byte	W01
	.byte		        c_v-44
	.byte	W01
	.byte		        c_v-43
	.byte	W01
	.byte		        c_v-42
	.byte	W01
	.byte		        c_v-40
	.byte	W01
	.byte		        c_v-39
	.byte	W01
	.byte		        c_v-38
	.byte	W01
	.byte		        c_v-36
	.byte	W01
	.byte		        c_v-35
	.byte	W01
	.byte		        c_v-34
	.byte	W01
	.byte		        c_v-32
	.byte	W01
	.byte		        c_v-31
	.byte	W01
	.byte		        c_v-29
	.byte	W01
	.byte		        c_v-28
	.byte	W01
	.byte		        c_v-27
	.byte	W01
	.byte		        c_v-25
	.byte	W01
	.byte		        c_v-24
	.byte	W01
	.byte		        c_v-23
	.byte	W01
	.byte		        c_v-21
	.byte	W01
	.byte		        c_v-20
	.byte	W01
	.byte		        c_v-19
	.byte	W01
	.byte		        c_v-17
	.byte	W01
	.byte		        c_v-16
	.byte	W01
	.byte		        c_v-15
	.byte	W01
	.byte		        c_v-13
	.byte	W01
	.byte		        c_v-12
	.byte	W01
	.byte		        c_v-11
	.byte	W01
	.byte		        c_v-9
	.byte	W01
	.byte		        c_v-8
	.byte	W01
	.byte		        c_v-7
	.byte	W01
	.byte		        c_v-5
	.byte	W01
	.byte		        c_v-4
	.byte	W01
	.byte		        c_v-3
	.byte	W02
@ 015   ----------------------------------------
	.byte	PATT
	 .word	feb20211210232341_4_003
@ 016   ----------------------------------------
	.byte	PATT
	 .word	feb20211210232341_4_008
@ 017   ----------------------------------------
	.byte		PAN   , c_v-1
	.byte	W01
	.byte		        c_v+0
	.byte	W01
	.byte		        c_v+1
	.byte	W01
	.byte		        c_v+3
	.byte	W01
	.byte		        c_v+4
	.byte	W01
	.byte		        c_v+6
	.byte	W01
	.byte		        c_v+7
	.byte	W01
	.byte		        c_v+8
	.byte	W01
	.byte		        c_v+10
	.byte	W01
	.byte		        c_v+11
	.byte	W01
	.byte		        c_v+12
	.byte	W01
	.byte		        c_v+14
	.byte	W01
	.byte		        c_v+15
	.byte	W01
	.byte		        c_v+16
	.byte	W01
	.byte		        c_v+18
	.byte	W01
	.byte		        c_v+19
	.byte	W01
	.byte		        c_v+20
	.byte	W01
	.byte		        c_v+22
	.byte	W01
	.byte		        c_v+23
	.byte	W01
	.byte		        c_v+24
	.byte	W01
	.byte		        c_v+26
	.byte	W01
	.byte		        c_v+27
	.byte	W01
	.byte		        c_v+28
	.byte	W01
	.byte		        c_v+30
	.byte	W01
	.byte		        c_v+31
	.byte	W01
	.byte		        c_v+32
	.byte	W01
	.byte		        c_v+34
	.byte	W01
	.byte		        c_v+35
	.byte	W01
	.byte		        c_v+36
	.byte	W01
	.byte		        c_v+38
	.byte	W01
	.byte		        c_v+39
	.byte	W01
	.byte		        c_v+41
	.byte	W01
	.byte		        c_v+42
	.byte	W01
	.byte		        c_v+43
	.byte	W01
	.byte		        c_v+45
	.byte	W01
	.byte		        c_v+46
	.byte	W01
	.byte		        c_v+47
	.byte	W01
	.byte		        c_v+49
	.byte	W01
	.byte		        c_v+50
	.byte	W01
	.byte		        c_v+51
	.byte	W01
	.byte		        c_v+53
	.byte	W01
	.byte		        c_v+54
	.byte	W01
	.byte		        c_v+55
	.byte	W01
	.byte		        c_v+57
	.byte	W01
	.byte		        c_v+58
	.byte	W01
	.byte		        c_v+59
	.byte	W01
	.byte		        c_v+61
	.byte	W01
	.byte		        c_v+63
	.byte	W01
	.byte		        c_v+60
	.byte	W01
	.byte		        c_v+58
	.byte	W01
	.byte		        c_v+57
	.byte	W01
	.byte		        c_v+56
	.byte	W01
	.byte		        c_v+54
	.byte	W01
	.byte		        c_v+53
	.byte	W01
	.byte		        c_v+52
	.byte	W01
	.byte		        c_v+51
	.byte	W01
	.byte		        c_v+49
	.byte	W01
	.byte		        c_v+48
	.byte	W01
	.byte		        c_v+47
	.byte	W01
	.byte		        c_v+46
	.byte	W01
	.byte		        c_v+44
	.byte	W01
	.byte		        c_v+43
	.byte	W01
	.byte		        c_v+42
	.byte	W01
	.byte		        c_v+40
	.byte	W01
	.byte		        c_v+39
	.byte	W01
	.byte		        c_v+38
	.byte	W01
	.byte		        c_v+37
	.byte	W01
	.byte		        c_v+35
	.byte	W01
	.byte		        c_v+34
	.byte	W01
	.byte		        c_v+33
	.byte	W01
	.byte		        c_v+31
	.byte	W01
	.byte		        c_v+30
	.byte	W01
	.byte		        c_v+29
	.byte	W01
	.byte		        c_v+28
	.byte	W01
	.byte		        c_v+26
	.byte	W01
	.byte		        c_v+25
	.byte	W01
	.byte		        c_v+24
	.byte	W01
	.byte		        c_v+23
	.byte	W01
	.byte		        c_v+21
	.byte	W01
	.byte		        c_v+20
	.byte	W01
	.byte		        c_v+19
	.byte	W01
	.byte		        c_v+17
	.byte	W01
	.byte		        c_v+16
	.byte	W01
	.byte		        c_v+15
	.byte	W01
	.byte		        c_v+14
	.byte	W01
	.byte		        c_v+12
	.byte	W01
	.byte		        c_v+11
	.byte	W01
	.byte		        c_v+10
	.byte	W01
	.byte		        c_v+8
	.byte	W01
	.byte		        c_v+7
	.byte	W01
	.byte		        c_v+6
	.byte	W01
	.byte		        c_v+5
	.byte	W01
	.byte		        c_v+3
	.byte	W01
	.byte		        c_v+2
	.byte	W01
	.byte		        c_v+1
	.byte	W01
	.byte		        c_v+0
	.byte	W01
	.byte		EOT   , Cn3 
@ 018   ----------------------------------------
	.byte	W96
@ 019   ----------------------------------------
	.byte	W96
@ 020   ----------------------------------------
	.byte		PAN   , c_v-2
	.byte		TIE   , An2 , v112
	.byte	W01
	.byte		PAN   , c_v-4
	.byte	W01
	.byte		        c_v-5
	.byte	W01
	.byte		        c_v-6
	.byte	W01
	.byte		        c_v-8
	.byte	W01
	.byte		        c_v-9
	.byte	W01
	.byte		        c_v-10
	.byte	W01
	.byte		        c_v-12
	.byte	W01
	.byte		        c_v-13
	.byte	W01
	.byte		        c_v-14
	.byte	W01
	.byte		        c_v-16
	.byte	W01
	.byte		        c_v-17
	.byte	W01
	.byte		        c_v-18
	.byte	W01
	.byte		        c_v-20
	.byte	W01
	.byte		        c_v-21
	.byte	W01
	.byte		        c_v-22
	.byte	W01
	.byte		        c_v-24
	.byte	W01
	.byte		        c_v-25
	.byte	W01
	.byte		        c_v-26
	.byte	W01
	.byte		        c_v-28
	.byte	W01
	.byte		        c_v-29
	.byte	W01
	.byte		        c_v-30
	.byte	W01
	.byte		        c_v-31
	.byte	W01
	.byte		        c_v-33
	.byte	W01
	.byte		        c_v-34
	.byte	W01
	.byte		        c_v-35
	.byte	W01
	.byte		        c_v-37
	.byte	W01
	.byte		        c_v-38
	.byte	W01
	.byte		        c_v-39
	.byte	W01
	.byte		        c_v-41
	.byte	W01
	.byte		        c_v-42
	.byte	W01
	.byte		        c_v-43
	.byte	W01
	.byte		        c_v-45
	.byte	W01
	.byte		        c_v-46
	.byte	W01
	.byte		        c_v-47
	.byte	W01
	.byte		        c_v-49
	.byte	W01
	.byte		        c_v-50
	.byte	W01
	.byte		        c_v-51
	.byte	W01
	.byte		        c_v-53
	.byte	W01
	.byte		        c_v-54
	.byte	W01
	.byte		        c_v-55
	.byte	W01
	.byte		        c_v-56
	.byte	W01
	.byte		        c_v-58
	.byte	W01
	.byte		        c_v-59
	.byte	W01
	.byte		        c_v-60
	.byte	W01
	.byte		        c_v-62
	.byte	W01
	.byte		        c_v-63
	.byte	W01
	.byte		        c_v-64
	.byte	W01
	.byte		        c_v-64
	.byte	W01
	.byte		        c_v-63
	.byte	W01
	.byte		        c_v-62
	.byte	W01
	.byte		        c_v-60
	.byte	W01
	.byte		        c_v-59
	.byte	W01
	.byte		        c_v-58
	.byte	W01
	.byte		        c_v-56
	.byte	W01
	.byte		        c_v-55
	.byte	W01
	.byte		        c_v-54
	.byte	W01
	.byte		        c_v-52
	.byte	W01
	.byte		        c_v-51
	.byte	W01
	.byte		        c_v-50
	.byte	W01
	.byte		        c_v-48
	.byte	W01
	.byte		        c_v-47
	.byte	W01
	.byte		        c_v-46
	.byte	W01
	.byte		        c_v-44
	.byte	W01
	.byte		        c_v-43
	.byte	W01
	.byte		        c_v-42
	.byte	W01
	.byte		        c_v-40
	.byte	W01
	.byte		        c_v-39
	.byte	W01
	.byte		        c_v-38
	.byte	W01
	.byte		        c_v-36
	.byte	W01
	.byte		        c_v-35
	.byte	W01
	.byte		        c_v-34
	.byte	W01
	.byte		        c_v-32
	.byte	W01
	.byte		        c_v-31
	.byte	W01
	.byte		        c_v-29
	.byte	W01
	.byte		        c_v-28
	.byte	W01
	.byte		        c_v-27
	.byte	W01
	.byte		        c_v-25
	.byte	W01
	.byte		        c_v-24
	.byte	W01
	.byte		        c_v-23
	.byte	W01
	.byte		        c_v-21
	.byte	W01
	.byte		        c_v-20
	.byte	W01
	.byte		        c_v-19
	.byte	W01
	.byte		        c_v-17
	.byte	W01
	.byte		        c_v-16
	.byte	W01
	.byte		        c_v-15
	.byte	W01
	.byte		        c_v-13
	.byte	W01
	.byte		        c_v-12
	.byte	W01
	.byte		        c_v-11
	.byte	W01
	.byte		        c_v-9
	.byte	W01
	.byte		        c_v-8
	.byte	W01
	.byte		        c_v-7
	.byte	W01
	.byte		        c_v-5
	.byte	W01
	.byte		        c_v-4
	.byte	W01
	.byte		        c_v-3
	.byte	W02
@ 021   ----------------------------------------
	.byte		        c_v-1
	.byte	W01
	.byte		        c_v+0
	.byte	W01
	.byte		        c_v+1
	.byte	W01
	.byte		        c_v+3
	.byte	W01
	.byte		        c_v+4
	.byte	W01
	.byte		        c_v+6
	.byte	W01
	.byte		        c_v+7
	.byte	W01
	.byte		        c_v+8
	.byte	W01
	.byte		        c_v+10
	.byte	W01
	.byte		        c_v+11
	.byte	W01
	.byte		        c_v+12
	.byte	W01
	.byte		        c_v+14
	.byte	W01
	.byte		        c_v+15
	.byte	W01
	.byte		        c_v+16
	.byte	W01
	.byte		        c_v+18
	.byte	W01
	.byte		        c_v+19
	.byte	W01
	.byte		        c_v+20
	.byte	W01
	.byte		        c_v+22
	.byte	W01
	.byte		        c_v+23
	.byte	W01
	.byte		        c_v+24
	.byte	W01
	.byte		        c_v+26
	.byte	W01
	.byte		        c_v+27
	.byte	W01
	.byte		        c_v+28
	.byte	W01
	.byte		        c_v+30
	.byte	W01
	.byte		        c_v+31
	.byte	W01
	.byte		        c_v+32
	.byte	W01
	.byte		        c_v+34
	.byte	W01
	.byte		        c_v+35
	.byte	W01
	.byte		        c_v+36
	.byte	W01
	.byte		        c_v+38
	.byte	W01
	.byte		        c_v+39
	.byte	W01
	.byte		        c_v+41
	.byte	W01
	.byte		        c_v+42
	.byte	W01
	.byte		        c_v+43
	.byte	W01
	.byte		        c_v+45
	.byte	W01
	.byte		        c_v+46
	.byte	W01
	.byte		        c_v+47
	.byte	W01
	.byte		        c_v+49
	.byte	W01
	.byte		        c_v+50
	.byte	W01
	.byte		        c_v+51
	.byte	W01
	.byte		        c_v+53
	.byte	W01
	.byte		        c_v+54
	.byte	W01
	.byte		        c_v+55
	.byte	W01
	.byte		        c_v+57
	.byte	W01
	.byte		        c_v+58
	.byte	W01
	.byte		        c_v+59
	.byte	W01
	.byte		        c_v+61
	.byte	W01
	.byte		        c_v+63
	.byte	W01
	.byte		        c_v+62
	.byte	W01
	.byte		        c_v+60
	.byte	W01
	.byte		        c_v+59
	.byte	W01
	.byte		        c_v+58
	.byte	W01
	.byte		        c_v+56
	.byte	W01
	.byte		        c_v+55
	.byte	W01
	.byte		        c_v+54
	.byte	W01
	.byte		        c_v+52
	.byte	W01
	.byte		        c_v+51
	.byte	W01
	.byte		        c_v+50
	.byte	W01
	.byte		        c_v+48
	.byte	W01
	.byte		        c_v+47
	.byte	W01
	.byte		        c_v+46
	.byte	W01
	.byte		        c_v+44
	.byte	W01
	.byte		        c_v+43
	.byte	W01
	.byte		        c_v+42
	.byte	W01
	.byte		        c_v+40
	.byte	W01
	.byte		        c_v+39
	.byte	W01
	.byte		        c_v+38
	.byte	W01
	.byte		        c_v+36
	.byte	W01
	.byte		        c_v+35
	.byte	W01
	.byte		        c_v+34
	.byte	W01
	.byte		        c_v+33
	.byte	W01
	.byte		        c_v+31
	.byte	W01
	.byte		        c_v+30
	.byte	W01
	.byte		        c_v+29
	.byte	W01
	.byte		        c_v+27
	.byte	W01
	.byte		        c_v+26
	.byte	W01
	.byte		        c_v+25
	.byte	W01
	.byte		        c_v+23
	.byte	W01
	.byte		        c_v+22
	.byte	W01
	.byte		        c_v+21
	.byte	W01
	.byte		        c_v+19
	.byte	W01
	.byte		        c_v+18
	.byte	W01
	.byte		        c_v+17
	.byte	W01
	.byte		        c_v+15
	.byte	W01
	.byte		        c_v+14
	.byte	W01
	.byte		        c_v+13
	.byte	W01
	.byte		        c_v+11
	.byte	W01
	.byte		        c_v+10
	.byte	W01
	.byte		        c_v+9
	.byte	W01
	.byte		        c_v+8
	.byte	W01
	.byte		        c_v+6
	.byte	W01
	.byte		        c_v+5
	.byte	W01
	.byte		        c_v+4
	.byte	W01
	.byte		        c_v+2
	.byte	W01
	.byte		        c_v+1
	.byte	W02
	.byte		EOT   
	.byte	GOTO
	 .word	feb20211210232341_4_B1
feb20211210232341_4_B2:
@ 022   ----------------------------------------
	.byte	FINE

@**************** Track 5 (Midi-Chn.5) ****************@

feb20211210232341_5:
	.byte	KEYSH , feb20211210232341_key+0
feb20211210232341_5_B1:
@ 000   ----------------------------------------
	.byte		VOICE , 11
	.byte		VOL   , 42*feb20211210232341_mvl/mxv
	.byte		PAN   , c_v+0
	.byte		MOD   , 0
	.byte		N05   , An4 , v104
	.byte	W06
	.byte		        An3 
	.byte	W06
	.byte		        Dn4 
	.byte	W06
	.byte		        En4 
	.byte	W06
	.byte		        An4 
	.byte	W06
	.byte		        Dn4 
	.byte	W06
	.byte		        En4 
	.byte	W06
	.byte		        Cn5 
	.byte	W06
	.byte		        Bn4 
	.byte	W06
	.byte		        Dn4 
	.byte	W06
	.byte		        En4 
	.byte	W06
	.byte		        Gn4 
	.byte	W06
	.byte		        Dn5 
	.byte	W06
	.byte		        An4 
	.byte	W06
	.byte		        Bn4 
	.byte	W06
	.byte		        En5 
	.byte	W06
@ 001   ----------------------------------------
feb20211210232341_5_001:
	.byte		N05   , An4 , v104
	.byte	W06
	.byte		        An3 
	.byte	W06
	.byte		        Dn4 
	.byte	W06
	.byte		        En4 
	.byte	W06
	.byte		        An4 
	.byte	W06
	.byte		        Dn4 
	.byte	W06
	.byte		        En4 
	.byte	W06
	.byte		        Cn5 
	.byte	W06
	.byte		        Bn4 
	.byte	W06
	.byte		        Dn4 
	.byte	W06
	.byte		        En4 
	.byte	W06
	.byte		        Gn4 
	.byte	W06
	.byte		        Dn5 
	.byte	W06
	.byte		        An4 
	.byte	W06
	.byte		        Bn4 
	.byte	W06
	.byte		        En5 
	.byte	W06
	.byte	PEND
@ 002   ----------------------------------------
	.byte	PATT
	 .word	feb20211210232341_5_001
@ 003   ----------------------------------------
	.byte	PATT
	 .word	feb20211210232341_5_001
@ 004   ----------------------------------------
	.byte	PATT
	 .word	feb20211210232341_5_001
@ 005   ----------------------------------------
	.byte	PATT
	 .word	feb20211210232341_5_001
@ 006   ----------------------------------------
	.byte	PATT
	 .word	feb20211210232341_5_001
@ 007   ----------------------------------------
	.byte	PATT
	 .word	feb20211210232341_5_001
@ 008   ----------------------------------------
	.byte	PATT
	 .word	feb20211210232341_5_001
@ 009   ----------------------------------------
	.byte	PATT
	 .word	feb20211210232341_5_001
@ 010   ----------------------------------------
feb20211210232341_5_010:
	.byte		N05   , Cn5 , v104
	.byte	W06
	.byte		        Cn4 
	.byte	W06
	.byte		        Fn4 
	.byte	W06
	.byte		        Gn4 
	.byte	W06
	.byte		        Cn5 
	.byte	W06
	.byte		        Fn4 
	.byte	W06
	.byte		        Gn4 
	.byte	W06
	.byte		        Ds5 
	.byte	W06
	.byte		        Dn5 
	.byte	W06
	.byte		        Fn4 
	.byte	W06
	.byte		        Gn4 
	.byte	W06
	.byte		        As4 
	.byte	W06
	.byte		        Fn5 
	.byte	W06
	.byte		        Cn5 
	.byte	W06
	.byte		        Dn5 
	.byte	W06
	.byte		        Gn5 
	.byte	W06
	.byte	PEND
@ 011   ----------------------------------------
	.byte	PATT
	 .word	feb20211210232341_5_010
@ 012   ----------------------------------------
	.byte	PATT
	 .word	feb20211210232341_5_010
@ 013   ----------------------------------------
	.byte	PATT
	 .word	feb20211210232341_5_010
@ 014   ----------------------------------------
	.byte	PATT
	 .word	feb20211210232341_5_010
@ 015   ----------------------------------------
	.byte	PATT
	 .word	feb20211210232341_5_010
@ 016   ----------------------------------------
	.byte	PATT
	 .word	feb20211210232341_5_010
@ 017   ----------------------------------------
	.byte	PATT
	 .word	feb20211210232341_5_010
@ 018   ----------------------------------------
	.byte	PATT
	 .word	feb20211210232341_5_001
@ 019   ----------------------------------------
	.byte	PATT
	 .word	feb20211210232341_5_001
@ 020   ----------------------------------------
	.byte	PATT
	 .word	feb20211210232341_5_001
@ 021   ----------------------------------------
	.byte	PATT
	 .word	feb20211210232341_5_001
	.byte	GOTO
	 .word	feb20211210232341_5_B1
feb20211210232341_5_B2:
@ 022   ----------------------------------------
	.byte	FINE

@**************** Track 6 (Midi-Chn.6) ****************@

feb20211210232341_6:
	.byte	KEYSH , feb20211210232341_key+0
feb20211210232341_6_B1:
@ 000   ----------------------------------------
	.byte		VOICE , 11
	.byte		VOL   , 33*feb20211210232341_mvl/mxv
	.byte		PAN   , c_v-50
	.byte		MOD   , 0
	.byte	W05
	.byte		N05   , An4 , v104
	.byte	W06
	.byte		        An3 
	.byte	W06
	.byte		        Dn4 
	.byte	W06
	.byte		        En4 
	.byte	W06
	.byte		        An4 
	.byte	W06
	.byte		        Dn4 
	.byte	W06
	.byte		        En4 
	.byte	W06
	.byte		        Cn5 
	.byte	W06
	.byte		        Bn4 
	.byte	W06
	.byte		        Dn4 
	.byte	W06
	.byte		        En4 
	.byte	W06
	.byte		        Gn4 
	.byte	W06
	.byte		        Dn5 
	.byte	W06
	.byte		        An4 
	.byte	W06
	.byte		        Bn4 
	.byte	W06
	.byte		        En5 
	.byte	W01
@ 001   ----------------------------------------
feb20211210232341_6_001:
	.byte	W05
	.byte		N05   , An4 , v104
	.byte	W06
	.byte		        An3 
	.byte	W06
	.byte		        Dn4 
	.byte	W06
	.byte		        En4 
	.byte	W06
	.byte		        An4 
	.byte	W06
	.byte		        Dn4 
	.byte	W06
	.byte		        En4 
	.byte	W06
	.byte		        Cn5 
	.byte	W06
	.byte		        Bn4 
	.byte	W06
	.byte		        Dn4 
	.byte	W06
	.byte		        En4 
	.byte	W06
	.byte		        Gn4 
	.byte	W06
	.byte		        Dn5 
	.byte	W06
	.byte		        An4 
	.byte	W06
	.byte		        Bn4 
	.byte	W06
	.byte		        En5 
	.byte	W01
	.byte	PEND
@ 002   ----------------------------------------
	.byte	PATT
	 .word	feb20211210232341_6_001
@ 003   ----------------------------------------
	.byte	PATT
	 .word	feb20211210232341_6_001
@ 004   ----------------------------------------
	.byte	PATT
	 .word	feb20211210232341_6_001
@ 005   ----------------------------------------
	.byte	W05
	.byte		N05   , An4 , v104
	.byte	W06
	.byte		        An3 
	.byte	W06
	.byte		        Dn4 
	.byte	W06
	.byte		        En4 
	.byte	W06
	.byte		        An4 
	.byte	W06
	.byte		        Dn4 
	.byte	W06
	.byte		        En4 
	.byte	W06
	.byte		        Cn5 
	.byte	W06
	.byte		        Bn4 
	.byte	W06
	.byte		        Dn4 
	.byte	W06
	.byte		        En4 
	.byte	W06
	.byte		        Gn4 
	.byte	W06
	.byte		        Dn5 
	.byte	W06
	.byte		        An4 
	.byte	W06
	.byte		        Bn4 
	.byte	W06
	.byte		N02   , En5 
	.byte	W01
@ 006   ----------------------------------------
	.byte	PATT
	 .word	feb20211210232341_6_001
@ 007   ----------------------------------------
	.byte	PATT
	 .word	feb20211210232341_6_001
@ 008   ----------------------------------------
	.byte	PATT
	 .word	feb20211210232341_6_001
@ 009   ----------------------------------------
feb20211210232341_6_009:
	.byte	W05
	.byte		N05   , An4 , v104
	.byte	W06
	.byte		        An3 
	.byte	W06
	.byte		        Dn4 
	.byte	W06
	.byte		        En4 
	.byte	W06
	.byte		        An4 
	.byte	W06
	.byte		        Dn4 
	.byte	W06
	.byte		        En4 
	.byte	W06
	.byte		        Cn5 
	.byte	W06
	.byte		        Bn4 
	.byte	W06
	.byte		        Dn4 
	.byte	W06
	.byte		        En4 
	.byte	W06
	.byte		        Gn4 
	.byte	W06
	.byte		        Dn5 
	.byte	W06
	.byte		        An4 
	.byte	W06
	.byte		        Bn4 
	.byte	W06
	.byte		N01   , En5 
	.byte	W01
	.byte	PEND
@ 010   ----------------------------------------
feb20211210232341_6_010:
	.byte	W05
	.byte		N05   , Cn5 , v104
	.byte	W06
	.byte		        Cn4 
	.byte	W06
	.byte		        Fn4 
	.byte	W06
	.byte		        Gn4 
	.byte	W06
	.byte		        Cn5 
	.byte	W06
	.byte		        Fn4 
	.byte	W06
	.byte		        Gn4 
	.byte	W06
	.byte		        Ds5 
	.byte	W06
	.byte		        Dn5 
	.byte	W06
	.byte		        Fn4 
	.byte	W06
	.byte		        Gn4 
	.byte	W06
	.byte		        As4 
	.byte	W06
	.byte		        Fn5 
	.byte	W06
	.byte		        Cn5 
	.byte	W06
	.byte		        Dn5 
	.byte	W06
	.byte		        Gn5 
	.byte	W01
	.byte	PEND
@ 011   ----------------------------------------
	.byte	PATT
	 .word	feb20211210232341_6_010
@ 012   ----------------------------------------
	.byte	PATT
	 .word	feb20211210232341_6_010
@ 013   ----------------------------------------
	.byte	W05
	.byte		N05   , Cn5 , v104
	.byte	W06
	.byte		        Cn4 
	.byte	W06
	.byte		        Fn4 
	.byte	W06
	.byte		        Gn4 
	.byte	W06
	.byte		        Cn5 
	.byte	W06
	.byte		        Fn4 
	.byte	W06
	.byte		        Gn4 
	.byte	W06
	.byte		        Ds5 
	.byte	W06
	.byte		        Dn5 
	.byte	W06
	.byte		        Fn4 
	.byte	W06
	.byte		        Gn4 
	.byte	W06
	.byte		        As4 
	.byte	W06
	.byte		        Fn5 
	.byte	W06
	.byte		        Cn5 
	.byte	W06
	.byte		        Dn5 
	.byte	W06
	.byte		N02   , Gn5 
	.byte	W01
@ 014   ----------------------------------------
	.byte	PATT
	 .word	feb20211210232341_6_010
@ 015   ----------------------------------------
	.byte	PATT
	 .word	feb20211210232341_6_010
@ 016   ----------------------------------------
	.byte	PATT
	 .word	feb20211210232341_6_010
@ 017   ----------------------------------------
	.byte	W05
	.byte		N05   , Cn5 , v104
	.byte	W06
	.byte		        Cn4 
	.byte	W06
	.byte		        Fn4 
	.byte	W06
	.byte		        Gn4 
	.byte	W06
	.byte		        Cn5 
	.byte	W06
	.byte		        Fn4 
	.byte	W06
	.byte		        Gn4 
	.byte	W06
	.byte		        Ds5 
	.byte	W06
	.byte		        Dn5 
	.byte	W06
	.byte		        Fn4 
	.byte	W06
	.byte		        Gn4 
	.byte	W06
	.byte		        As4 
	.byte	W06
	.byte		        Fn5 
	.byte	W06
	.byte		        Cn5 
	.byte	W06
	.byte		        Dn5 
	.byte	W06
	.byte		N01   , Gn5 
	.byte	W01
@ 018   ----------------------------------------
	.byte	PATT
	 .word	feb20211210232341_6_001
@ 019   ----------------------------------------
	.byte	PATT
	 .word	feb20211210232341_6_009
@ 020   ----------------------------------------
	.byte	PATT
	 .word	feb20211210232341_6_001
@ 021   ----------------------------------------
	.byte	PATT
	 .word	feb20211210232341_6_009
	.byte	GOTO
	 .word	feb20211210232341_6_B1
feb20211210232341_6_B2:
@ 022   ----------------------------------------
	.byte	FINE

@**************** Track 7 (Midi-Chn.7) ****************@

feb20211210232341_7:
	.byte	KEYSH , feb20211210232341_key+0
feb20211210232341_7_B1:
@ 000   ----------------------------------------
	.byte		VOICE , 11
	.byte		VOL   , 22*feb20211210232341_mvl/mxv
	.byte		PAN   , c_v+50
	.byte		MOD   , 0
	.byte	W10
	.byte		N05   , An4 , v104
	.byte	W06
	.byte		        An3 
	.byte	W06
	.byte		        Dn4 
	.byte	W06
	.byte		        En4 
	.byte	W06
	.byte		        An4 
	.byte	W06
	.byte		        Dn4 
	.byte	W06
	.byte		        En4 
	.byte	W06
	.byte		        Cn5 
	.byte	W06
	.byte		        Bn4 
	.byte	W06
	.byte		        Dn4 
	.byte	W06
	.byte		        En4 
	.byte	W06
	.byte		        Gn4 
	.byte	W06
	.byte		        Dn5 
	.byte	W06
	.byte		        An4 
	.byte	W06
	.byte		        Bn4 
	.byte	W02
@ 001   ----------------------------------------
feb20211210232341_7_001:
	.byte	W04
	.byte		N05   , En5 , v104
	.byte	W06
	.byte		        An4 
	.byte	W06
	.byte		        An3 
	.byte	W06
	.byte		        Dn4 
	.byte	W06
	.byte		        En4 
	.byte	W06
	.byte		        An4 
	.byte	W06
	.byte		        Dn4 
	.byte	W06
	.byte		        En4 
	.byte	W06
	.byte		        Cn5 
	.byte	W06
	.byte		        Bn4 
	.byte	W06
	.byte		        Dn4 
	.byte	W06
	.byte		        En4 
	.byte	W06
	.byte		        Gn4 
	.byte	W06
	.byte		        Dn5 
	.byte	W06
	.byte		        An4 
	.byte	W06
	.byte		        Bn4 
	.byte	W02
	.byte	PEND
@ 002   ----------------------------------------
	.byte	PATT
	 .word	feb20211210232341_7_001
@ 003   ----------------------------------------
	.byte	PATT
	 .word	feb20211210232341_7_001
@ 004   ----------------------------------------
	.byte	PATT
	 .word	feb20211210232341_7_001
@ 005   ----------------------------------------
	.byte	W04
	.byte		N05   , En5 , v104
	.byte	W06
	.byte		        An4 
	.byte	W06
	.byte		        An3 
	.byte	W06
	.byte		        Dn4 
	.byte	W06
	.byte		        En4 
	.byte	W06
	.byte		        An4 
	.byte	W06
	.byte		        Dn4 
	.byte	W06
	.byte		        En4 
	.byte	W06
	.byte		        Cn5 
	.byte	W06
	.byte		        Bn4 
	.byte	W06
	.byte		        Dn4 
	.byte	W06
	.byte		        En4 
	.byte	W06
	.byte		        Gn4 
	.byte	W06
	.byte		        Dn5 
	.byte	W06
	.byte		        An4 
	.byte	W06
	.byte		N03   , Bn4 
	.byte	W02
@ 006   ----------------------------------------
	.byte	PATT
	 .word	feb20211210232341_7_001
@ 007   ----------------------------------------
	.byte	PATT
	 .word	feb20211210232341_7_001
@ 008   ----------------------------------------
	.byte	PATT
	 .word	feb20211210232341_7_001
@ 009   ----------------------------------------
feb20211210232341_7_009:
	.byte	W04
	.byte		N05   , En5 , v104
	.byte	W06
	.byte		        An4 
	.byte	W06
	.byte		        An3 
	.byte	W06
	.byte		        Dn4 
	.byte	W06
	.byte		        En4 
	.byte	W06
	.byte		        An4 
	.byte	W06
	.byte		        Dn4 
	.byte	W06
	.byte		        En4 
	.byte	W06
	.byte		        Cn5 
	.byte	W06
	.byte		        Bn4 
	.byte	W06
	.byte		        Dn4 
	.byte	W06
	.byte		        En4 
	.byte	W06
	.byte		        Gn4 
	.byte	W06
	.byte		        Dn5 
	.byte	W06
	.byte		        An4 
	.byte	W06
	.byte		N02   , Bn4 
	.byte	W02
	.byte	PEND
@ 010   ----------------------------------------
feb20211210232341_7_010:
	.byte	W04
	.byte		N05   , Gn5 , v104
	.byte	W06
	.byte		        Cn5 
	.byte	W06
	.byte		        Cn4 
	.byte	W06
	.byte		        Fn4 
	.byte	W06
	.byte		        Gn4 
	.byte	W06
	.byte		        Cn5 
	.byte	W06
	.byte		        Fn4 
	.byte	W06
	.byte		        Gn4 
	.byte	W06
	.byte		        Ds5 
	.byte	W06
	.byte		        Dn5 
	.byte	W06
	.byte		        Fn4 
	.byte	W06
	.byte		        Gn4 
	.byte	W06
	.byte		        As4 
	.byte	W06
	.byte		        Fn5 
	.byte	W06
	.byte		        Cn5 
	.byte	W06
	.byte		        Dn5 
	.byte	W02
	.byte	PEND
@ 011   ----------------------------------------
	.byte	PATT
	 .word	feb20211210232341_7_010
@ 012   ----------------------------------------
	.byte	PATT
	 .word	feb20211210232341_7_010
@ 013   ----------------------------------------
	.byte	W04
	.byte		N05   , Gn5 , v104
	.byte	W06
	.byte		        Cn5 
	.byte	W06
	.byte		        Cn4 
	.byte	W06
	.byte		        Fn4 
	.byte	W06
	.byte		        Gn4 
	.byte	W06
	.byte		        Cn5 
	.byte	W06
	.byte		        Fn4 
	.byte	W06
	.byte		        Gn4 
	.byte	W06
	.byte		        Ds5 
	.byte	W06
	.byte		        Dn5 
	.byte	W06
	.byte		        Fn4 
	.byte	W06
	.byte		        Gn4 
	.byte	W06
	.byte		        As4 
	.byte	W06
	.byte		        Fn5 
	.byte	W06
	.byte		        Cn5 
	.byte	W06
	.byte		N03   , Dn5 
	.byte	W02
@ 014   ----------------------------------------
	.byte	PATT
	 .word	feb20211210232341_7_010
@ 015   ----------------------------------------
	.byte	PATT
	 .word	feb20211210232341_7_010
@ 016   ----------------------------------------
	.byte	PATT
	 .word	feb20211210232341_7_010
@ 017   ----------------------------------------
	.byte	W04
	.byte		N05   , Gn5 , v104
	.byte	W06
	.byte		        Cn5 
	.byte	W06
	.byte		        Cn4 
	.byte	W06
	.byte		        Fn4 
	.byte	W06
	.byte		        Gn4 
	.byte	W06
	.byte		        Cn5 
	.byte	W06
	.byte		        Fn4 
	.byte	W06
	.byte		        Gn4 
	.byte	W06
	.byte		        Ds5 
	.byte	W06
	.byte		        Dn5 
	.byte	W06
	.byte		        Fn4 
	.byte	W06
	.byte		        Gn4 
	.byte	W06
	.byte		        As4 
	.byte	W06
	.byte		        Fn5 
	.byte	W06
	.byte		        Cn5 
	.byte	W06
	.byte		N02   , Dn5 
	.byte	W02
@ 018   ----------------------------------------
feb20211210232341_7_018:
	.byte	W10
	.byte		N05   , An4 , v104
	.byte	W06
	.byte		        An3 
	.byte	W06
	.byte		        Dn4 
	.byte	W06
	.byte		        En4 
	.byte	W06
	.byte		        An4 
	.byte	W06
	.byte		        Dn4 
	.byte	W06
	.byte		        En4 
	.byte	W06
	.byte		        Cn5 
	.byte	W06
	.byte		        Bn4 
	.byte	W06
	.byte		        Dn4 
	.byte	W06
	.byte		        En4 
	.byte	W06
	.byte		        Gn4 
	.byte	W06
	.byte		        Dn5 
	.byte	W06
	.byte		        An4 
	.byte	W06
	.byte		        Bn4 
	.byte	W02
	.byte	PEND
@ 019   ----------------------------------------
	.byte	PATT
	 .word	feb20211210232341_7_009
@ 020   ----------------------------------------
	.byte	PATT
	 .word	feb20211210232341_7_018
@ 021   ----------------------------------------
	.byte	PATT
	 .word	feb20211210232341_7_009
	.byte	GOTO
	 .word	feb20211210232341_7_B1
feb20211210232341_7_B2:
@ 022   ----------------------------------------
	.byte	FINE

@**************** Track 8 (Midi-Chn.8) ****************@

feb20211210232341_8:
	.byte	KEYSH , feb20211210232341_key+0
feb20211210232341_8_B1:
@ 000   ----------------------------------------
	.byte		VOICE , 11
	.byte		VOL   , 11*feb20211210232341_mvl/mxv
	.byte		PAN   , c_v+0
	.byte		MOD   , 0
	.byte	W18
	.byte		N05   , An4 , v104
	.byte	W06
	.byte		        An3 
	.byte	W06
	.byte		        Dn4 
	.byte	W06
	.byte		        En4 
	.byte	W06
	.byte		        An4 
	.byte	W06
	.byte		        Dn4 
	.byte	W06
	.byte		        En4 
	.byte	W06
	.byte		        Cn5 
	.byte	W06
	.byte		        Bn4 
	.byte	W06
	.byte		        Dn4 
	.byte	W06
	.byte		        En4 
	.byte	W06
	.byte		        Gn4 
	.byte	W06
	.byte		        Dn5 
	.byte	W06
@ 001   ----------------------------------------
feb20211210232341_8_001:
	.byte		N05   , An4 , v104
	.byte	W06
	.byte		        Bn4 
	.byte	W06
	.byte		        En5 
	.byte	W06
	.byte		        An4 
	.byte	W06
	.byte		        An3 
	.byte	W06
	.byte		        Dn4 
	.byte	W06
	.byte		        En4 
	.byte	W06
	.byte		        An4 
	.byte	W06
	.byte		        Dn4 
	.byte	W06
	.byte		        En4 
	.byte	W06
	.byte		        Cn5 
	.byte	W06
	.byte		        Bn4 
	.byte	W06
	.byte		        Dn4 
	.byte	W06
	.byte		        En4 
	.byte	W06
	.byte		        Gn4 
	.byte	W06
	.byte		        Dn5 
	.byte	W06
	.byte	PEND
@ 002   ----------------------------------------
	.byte	PATT
	 .word	feb20211210232341_8_001
@ 003   ----------------------------------------
	.byte	PATT
	 .word	feb20211210232341_8_001
@ 004   ----------------------------------------
	.byte	PATT
	 .word	feb20211210232341_8_001
@ 005   ----------------------------------------
	.byte	PATT
	 .word	feb20211210232341_8_001
@ 006   ----------------------------------------
	.byte	PATT
	 .word	feb20211210232341_8_001
@ 007   ----------------------------------------
	.byte	PATT
	 .word	feb20211210232341_8_001
@ 008   ----------------------------------------
	.byte	PATT
	 .word	feb20211210232341_8_001
@ 009   ----------------------------------------
	.byte	PATT
	 .word	feb20211210232341_8_001
@ 010   ----------------------------------------
	.byte		N05   , An4 , v104
	.byte	W06
	.byte		        Bn4 
	.byte	W06
	.byte		        En5 
	.byte	W06
	.byte		        Cn5 
	.byte	W06
	.byte		        Cn4 
	.byte	W06
	.byte		        Fn4 
	.byte	W06
	.byte		        Gn4 
	.byte	W06
	.byte		        Cn5 
	.byte	W06
	.byte		        Fn4 
	.byte	W06
	.byte		        Gn4 
	.byte	W06
	.byte		        Ds5 
	.byte	W06
	.byte		        Dn5 
	.byte	W06
	.byte		        Fn4 
	.byte	W06
	.byte		        Gn4 
	.byte	W06
	.byte		        As4 
	.byte	W06
	.byte		        Fn5 
	.byte	W06
@ 011   ----------------------------------------
feb20211210232341_8_011:
	.byte		N05   , Cn5 , v104
	.byte	W06
	.byte		        Dn5 
	.byte	W06
	.byte		        Gn5 
	.byte	W06
	.byte		        Cn5 
	.byte	W06
	.byte		        Cn4 
	.byte	W06
	.byte		        Fn4 
	.byte	W06
	.byte		        Gn4 
	.byte	W06
	.byte		        Cn5 
	.byte	W06
	.byte		        Fn4 
	.byte	W06
	.byte		        Gn4 
	.byte	W06
	.byte		        Ds5 
	.byte	W06
	.byte		        Dn5 
	.byte	W06
	.byte		        Fn4 
	.byte	W06
	.byte		        Gn4 
	.byte	W06
	.byte		        As4 
	.byte	W06
	.byte		        Fn5 
	.byte	W06
	.byte	PEND
@ 012   ----------------------------------------
	.byte	PATT
	 .word	feb20211210232341_8_011
@ 013   ----------------------------------------
	.byte	PATT
	 .word	feb20211210232341_8_011
@ 014   ----------------------------------------
	.byte	PATT
	 .word	feb20211210232341_8_011
@ 015   ----------------------------------------
	.byte	PATT
	 .word	feb20211210232341_8_011
@ 016   ----------------------------------------
	.byte	PATT
	 .word	feb20211210232341_8_011
@ 017   ----------------------------------------
	.byte	PATT
	 .word	feb20211210232341_8_011
@ 018   ----------------------------------------
	.byte		N05   , Cn5 , v104
	.byte	W06
	.byte		        Dn5 
	.byte	W06
	.byte		        Gn5 
	.byte	W06
	.byte		        An4 
	.byte	W06
	.byte		        An3 
	.byte	W06
	.byte		        Dn4 
	.byte	W06
	.byte		        En4 
	.byte	W06
	.byte		        An4 
	.byte	W06
	.byte		        Dn4 
	.byte	W06
	.byte		        En4 
	.byte	W06
	.byte		        Cn5 
	.byte	W06
	.byte		        Bn4 
	.byte	W06
	.byte		        Dn4 
	.byte	W06
	.byte		        En4 
	.byte	W06
	.byte		        Gn4 
	.byte	W06
	.byte		        Dn5 
	.byte	W06
@ 019   ----------------------------------------
	.byte	PATT
	 .word	feb20211210232341_8_001
@ 020   ----------------------------------------
	.byte	PATT
	 .word	feb20211210232341_8_001
@ 021   ----------------------------------------
	.byte	PATT
	 .word	feb20211210232341_8_001
	.byte	GOTO
	 .word	feb20211210232341_8_B1
feb20211210232341_8_B2:
@ 022   ----------------------------------------
	.byte	FINE

@******************************************************@
	.align	2

feb20211210232341:
	.byte	8	@ NumTrks
	.byte	0	@ NumBlks
	.byte	feb20211210232341_pri	@ Priority
	.byte	feb20211210232341_rev	@ Reverb.

	.word	feb20211210232341_grp

	.word	feb20211210232341_1
	.word	feb20211210232341_2
	.word	feb20211210232341_3
	.word	feb20211210232341_4
	.word	feb20211210232341_5
	.word	feb20211210232341_6
	.word	feb20211210232341_7
	.word	feb20211210232341_8

	.end
