	.include "MPlayDef.s"

	.equ	song0171_grp, voicegroup000
	.equ	song0171_pri, 0
	.equ	song0171_rev, 0
	.equ	song0171_mvl, 127
	.equ	song0171_key, 0
	.equ	song0171_tbs, 1
	.equ	song0171_exg, 0
	.equ	song0171_cmp, 1

	.section .rodata
	.global	song0171
	.align	2


@**************** Track 1 (Midi-Chn.0) ****************@

song0171_001:
@ 000   ----------------------------------------
 .byte   KEYSH , song0171_key+0
Label_0_0187E762:
 .byte   TEMPO , 174*song0171_tbs/2
 .byte   VOICE , 50
 .byte   VOL , 18*song0171_mvl/mxv
 .byte   N96 ,Gn2 ,v116
 .byte   N96 ,Bn2
 .byte   N96 ,Dn3
 .byte   N96 ,Fs3
 .byte   W96
@ 001   ----------------------------------------
Label_0_0187E772:
 .byte   N96 ,Fn2 ,v116
 .byte   N96 ,An2
 .byte   N96 ,Cn3
 .byte   N96 ,En3
 .byte   W96
 .byte   PEND 
@ 002   ----------------------------------------
Label_0_0187E77D:
 .byte   N96 ,As2 ,v116
 .byte   N96 ,Dn3
 .byte   N96 ,Fn3
 .byte   N96 ,An3
 .byte   W96
 .byte   PEND 
@ 003   ----------------------------------------
Label_0_0187E788:
 .byte   N96 ,Cn3 ,v116
 .byte   N96 ,En3
 .byte   N96 ,Gn3
 .byte   N96 ,Bn3
 .byte   W96
 .byte   PEND 
@ 004   ----------------------------------------
Label_0_0187E793:
 .byte   N96 ,Gn2 ,v116
 .byte   N96 ,Bn2
 .byte   N96 ,Dn3
 .byte   N96 ,Fs3
 .byte   W96
 .byte   PEND 
 .byte   PATT
  .word Label_0_0187E772
@ 005   ----------------------------------------
Label_0_0187E7A3:
 .byte   N96 ,As1 ,v116
 .byte   N96 ,Dn2
 .byte   N96 ,Fn2
 .byte   N96 ,An2
 .byte   W96
 .byte   PEND 
@ 006   ----------------------------------------
Label_0_0187E7AE:
 .byte   N96 ,Cn2 ,v116
 .byte   N96 ,En2
 .byte   N96 ,Gn2
 .byte   N96 ,Bn2
 .byte   W96
 .byte   PEND 
 .byte   PATT
  .word Label_0_0187E793
 .byte   PATT
  .word Label_0_0187E772
 .byte   PATT
  .word Label_0_0187E77D
 .byte   PATT
  .word Label_0_0187E788
 .byte   PATT
  .word Label_0_0187E793
 .byte   PATT
  .word Label_0_0187E772
 .byte   PATT
  .word Label_0_0187E7A3
 .byte   PATT
  .word Label_0_0187E7AE
 .byte   PATT
  .word Label_0_0187E793
 .byte   PATT
  .word Label_0_0187E772
 .byte   PATT
  .word Label_0_0187E77D
 .byte   PATT
  .word Label_0_0187E788
 .byte   PATT
  .word Label_0_0187E793
 .byte   PATT
  .word Label_0_0187E772
 .byte   PATT
  .word Label_0_0187E7A3
 .byte   PATT
  .word Label_0_0187E7AE
 .byte   PATT
  .word Label_0_0187E793
 .byte   PATT
  .word Label_0_0187E772
 .byte   PATT
  .word Label_0_0187E77D
 .byte   PATT
  .word Label_0_0187E788
 .byte   PATT
  .word Label_0_0187E793
 .byte   PATT
  .word Label_0_0187E772
 .byte   PATT
  .word Label_0_0187E7A3
 .byte   PATT
  .word Label_0_0187E7AE
 .byte   PATT
  .word Label_0_0187E793
 .byte   PATT
  .word Label_0_0187E772
 .byte   PATT
  .word Label_0_0187E77D
 .byte   PATT
  .word Label_0_0187E788
 .byte   PATT
  .word Label_0_0187E793
 .byte   PATT
  .word Label_0_0187E772
 .byte   PATT
  .word Label_0_0187E7A3
 .byte   PATT
  .word Label_0_0187E7AE
 .byte   PATT
  .word Label_0_0187E793
 .byte   PATT
  .word Label_0_0187E772
 .byte   PATT
  .word Label_0_0187E77D
 .byte   PATT
  .word Label_0_0187E788
 .byte   PATT
  .word Label_0_0187E793
 .byte   PATT
  .word Label_0_0187E772
 .byte   PATT
  .word Label_0_0187E7A3
 .byte   PATT
  .word Label_0_0187E7AE
 .byte   PATT
  .word Label_0_0187E793
 .byte   PATT
  .word Label_0_0187E772
 .byte   PATT
  .word Label_0_0187E77D
 .byte   PATT
  .word Label_0_0187E788
 .byte   PATT
  .word Label_0_0187E793
 .byte   PATT
  .word Label_0_0187E772
 .byte   PATT
  .word Label_0_0187E7A3
 .byte   PATT
  .word Label_0_0187E7AE
 .byte   PATT
  .word Label_0_0187E793
 .byte   PATT
  .word Label_0_0187E772
 .byte   PATT
  .word Label_0_0187E77D
 .byte   PATT
  .word Label_0_0187E788
 .byte   PATT
  .word Label_0_0187E793
 .byte   PATT
  .word Label_0_0187E772
 .byte   PATT
  .word Label_0_0187E7A3
 .byte   PATT
  .word Label_0_0187E7AE
 .byte   PATT
  .word Label_0_0187E793
 .byte   PATT
  .word Label_0_0187E772
 .byte   PATT
  .word Label_0_0187E77D
 .byte   PATT
  .word Label_0_0187E788
 .byte   PATT
  .word Label_0_0187E793
 .byte   PATT
  .word Label_0_0187E772
 .byte   PATT
  .word Label_0_0187E7A3
 .byte   PATT
  .word Label_0_0187E7AE
@ 007   ----------------------------------------
 .byte   W96
@ 008   ----------------------------------------
 .byte   W96
@ 009   ----------------------------------------
 .byte   W96
@ 010   ----------------------------------------
 .byte   W96
@ 011   ----------------------------------------
 .byte   W96
@ 012   ----------------------------------------
 .byte   W96
@ 013   ----------------------------------------
 .byte   W96
@ 014   ----------------------------------------
 .byte   W96
@ 015   ----------------------------------------
 .byte   W96
@ 016   ----------------------------------------
 .byte   W96
@ 017   ----------------------------------------
 .byte   W96
@ 018   ----------------------------------------
 .byte   W96
@ 019   ----------------------------------------
 .byte   W96
@ 020   ----------------------------------------
 .byte   W96
@ 021   ----------------------------------------
 .byte   W96
@ 022   ----------------------------------------
 .byte   W96
 .byte   PATT
  .word Label_0_0187E793
 .byte   PATT
  .word Label_0_0187E772
 .byte   PATT
  .word Label_0_0187E77D
 .byte   PATT
  .word Label_0_0187E788
 .byte   PATT
  .word Label_0_0187E793
 .byte   PATT
  .word Label_0_0187E772
 .byte   PATT
  .word Label_0_0187E7A3
 .byte   PATT
  .word Label_0_0187E7AE
 .byte   PATT
  .word Label_0_0187E793
 .byte   PATT
  .word Label_0_0187E772
 .byte   PATT
  .word Label_0_0187E77D
 .byte   PATT
  .word Label_0_0187E788
 .byte   PATT
  .word Label_0_0187E793
 .byte   PATT
  .word Label_0_0187E772
 .byte   PATT
  .word Label_0_0187E7A3
 .byte   PATT
  .word Label_0_0187E7AE
@ 023   ----------------------------------------
 .byte   GOTO
  .word Label_0_0187E762
 .byte   FINE

@**************** Track 2 (Midi-Chn.1) ****************@

song0171_002:
@ 000   ----------------------------------------
 .byte   KEYSH , song0171_key+0
Label_1_0187E962:
 .byte   VOICE , 73
 .byte   VOL , 32*song0171_mvl/mxv
 .byte   W24
 .byte   N24 ,Dn4 ,v116
 .byte   W24
 .byte   An4
 .byte   W24
 .byte   Gn4
 .byte   W24
@ 001   ----------------------------------------
Label_1_0187E96F:
 .byte   N48 ,Gn4 ,v116
 .byte   W48
 .byte   N12 ,An4
 .byte   W12
 .byte   As4
 .byte   W12
 .byte   N24 ,Cn5
 .byte   W24
 .byte   PEND 
@ 002   ----------------------------------------
Label_1_0187E97C:
 .byte   N60 ,Cn5 ,v116
 .byte   W60
 .byte   N12 ,As4
 .byte   W12
 .byte   An4
 .byte   W12
 .byte   N84 ,Gn4
 .byte   W12
 .byte   PEND 
@ 003   ----------------------------------------
 .byte   W96
@ 004   ----------------------------------------
Label_1_0187E98A:
 .byte   W24
 .byte   N24 ,Dn4 ,v116
 .byte   W24
 .byte   An4
 .byte   W24
 .byte   Gn4
 .byte   W24
 .byte   PEND 
 .byte   PATT
  .word Label_1_0187E96F
@ 005   ----------------------------------------
Label_1_0187E999:
 .byte   N72 ,Cn5 ,v116
 .byte   W72
 .byte   N12 ,Dn5
 .byte   W12
 .byte   N84
 .byte   W12
 .byte   PEND 
@ 006   ----------------------------------------
 .byte   W96
 .byte   PATT
  .word Label_1_0187E98A
 .byte   PATT
  .word Label_1_0187E96F
 .byte   PATT
  .word Label_1_0187E97C
@ 007   ----------------------------------------
 .byte   W96
 .byte   PATT
  .word Label_1_0187E98A
 .byte   PATT
  .word Label_1_0187E96F
 .byte   PATT
  .word Label_1_0187E999
@ 008   ----------------------------------------
 .byte   W96
 .byte   PATT
  .word Label_1_0187E98A
 .byte   PATT
  .word Label_1_0187E96F
 .byte   PATT
  .word Label_1_0187E97C
@ 009   ----------------------------------------
 .byte   W96
 .byte   PATT
  .word Label_1_0187E98A
 .byte   PATT
  .word Label_1_0187E96F
 .byte   PATT
  .word Label_1_0187E999
@ 010   ----------------------------------------
 .byte   W96
@ 011   ----------------------------------------
 .byte   W96
@ 012   ----------------------------------------
 .byte   W96
@ 013   ----------------------------------------
 .byte   W96
@ 014   ----------------------------------------
 .byte   W96
@ 015   ----------------------------------------
 .byte   W96
@ 016   ----------------------------------------
 .byte   W96
@ 017   ----------------------------------------
 .byte   W96
@ 018   ----------------------------------------
 .byte   W96
@ 019   ----------------------------------------
 .byte   W96
@ 020   ----------------------------------------
 .byte   W96
@ 021   ----------------------------------------
 .byte   W96
@ 022   ----------------------------------------
 .byte   W96
@ 023   ----------------------------------------
 .byte   W96
@ 024   ----------------------------------------
 .byte   W96
@ 025   ----------------------------------------
 .byte   W96
@ 026   ----------------------------------------
 .byte   W96
 .byte   PATT
  .word Label_1_0187E98A
 .byte   PATT
  .word Label_1_0187E96F
 .byte   PATT
  .word Label_1_0187E97C
@ 027   ----------------------------------------
 .byte   W96
 .byte   PATT
  .word Label_1_0187E98A
 .byte   PATT
  .word Label_1_0187E96F
 .byte   PATT
  .word Label_1_0187E999
@ 028   ----------------------------------------
 .byte   W96
 .byte   PATT
  .word Label_1_0187E98A
 .byte   PATT
  .word Label_1_0187E96F
 .byte   PATT
  .word Label_1_0187E97C
@ 029   ----------------------------------------
 .byte   W96
 .byte   PATT
  .word Label_1_0187E98A
 .byte   PATT
  .word Label_1_0187E96F
 .byte   PATT
  .word Label_1_0187E999
@ 030   ----------------------------------------
 .byte   W96
@ 031   ----------------------------------------
 .byte   W96
@ 032   ----------------------------------------
 .byte   W96
@ 033   ----------------------------------------
 .byte   W96
@ 034   ----------------------------------------
 .byte   W96
@ 035   ----------------------------------------
 .byte   W96
@ 036   ----------------------------------------
 .byte   W96
@ 037   ----------------------------------------
 .byte   W96
@ 038   ----------------------------------------
 .byte   W96
@ 039   ----------------------------------------
 .byte   W96
@ 040   ----------------------------------------
 .byte   W96
@ 041   ----------------------------------------
 .byte   W96
@ 042   ----------------------------------------
 .byte   W96
@ 043   ----------------------------------------
 .byte   W96
@ 044   ----------------------------------------
 .byte   W96
@ 045   ----------------------------------------
 .byte   W96
@ 046   ----------------------------------------
 .byte   W96
@ 047   ----------------------------------------
 .byte   W96
@ 048   ----------------------------------------
 .byte   W96
@ 049   ----------------------------------------
 .byte   W96
@ 050   ----------------------------------------
 .byte   W96
@ 051   ----------------------------------------
 .byte   W96
@ 052   ----------------------------------------
 .byte   W96
@ 053   ----------------------------------------
 .byte   W96
@ 054   ----------------------------------------
 .byte   W96
@ 055   ----------------------------------------
 .byte   W96
@ 056   ----------------------------------------
 .byte   W96
@ 057   ----------------------------------------
 .byte   W96
@ 058   ----------------------------------------
 .byte   W96
@ 059   ----------------------------------------
 .byte   W96
@ 060   ----------------------------------------
 .byte   W96
@ 061   ----------------------------------------
 .byte   W96
@ 062   ----------------------------------------
 .byte   W96
@ 063   ----------------------------------------
 .byte   W96
@ 064   ----------------------------------------
 .byte   W96
@ 065   ----------------------------------------
 .byte   W96
@ 066   ----------------------------------------
 .byte   W96
@ 067   ----------------------------------------
 .byte   W96
@ 068   ----------------------------------------
 .byte   W96
@ 069   ----------------------------------------
 .byte   W96
@ 070   ----------------------------------------
 .byte   W96
@ 071   ----------------------------------------
 .byte   W96
@ 072   ----------------------------------------
 .byte   W96
@ 073   ----------------------------------------
 .byte   W96
@ 074   ----------------------------------------
 .byte   W96
@ 075   ----------------------------------------
 .byte   W96
@ 076   ----------------------------------------
 .byte   W96
@ 077   ----------------------------------------
 .byte   W96
@ 078   ----------------------------------------
 .byte   W96
@ 079   ----------------------------------------
 .byte   GOTO
  .word Label_1_0187E962
 .byte   FINE

@**************** Track 3 (Midi-Chn.2) ****************@

song0171_003:
@ 000   ----------------------------------------
 .byte   KEYSH , song0171_key+0
Label_2_0187EA6E:
 .byte   VOICE , 33
 .byte   VOL , 65*song0171_mvl/mxv
 .byte   W96
@ 001   ----------------------------------------
 .byte   W96
@ 002   ----------------------------------------
 .byte   W96
@ 003   ----------------------------------------
 .byte   W96
@ 004   ----------------------------------------
 .byte   W96
@ 005   ----------------------------------------
 .byte   W96
@ 006   ----------------------------------------
 .byte   W96
@ 007   ----------------------------------------
 .byte   W96
@ 008   ----------------------------------------
Label_2_0187EA7A:
 .byte   N12 ,Gn0 ,v116
 .byte   W12
 .byte   N12
 .byte   W12
 .byte   N12
 .byte   W12
 .byte   N12
 .byte   W60
 .byte   PEND 
@ 009   ----------------------------------------
Label_2_0187EA85:
 .byte   N12 ,Fn0 ,v116
 .byte   W12
 .byte   N12
 .byte   W12
 .byte   N12
 .byte   W12
 .byte   N12
 .byte   W60
 .byte   PEND 
@ 010   ----------------------------------------
Label_2_0187EA90:
 .byte   N12 ,As0 ,v116
 .byte   W12
 .byte   N12
 .byte   W12
 .byte   N12
 .byte   W12
 .byte   N12
 .byte   W60
 .byte   PEND 
@ 011   ----------------------------------------
Label_2_0187EA9B:
 .byte   N12 ,Cn1 ,v116
 .byte   W12
 .byte   N12
 .byte   W12
 .byte   N12
 .byte   W12
 .byte   N12
 .byte   W60
 .byte   PEND 
 .byte   PATT
  .word Label_2_0187EA7A
 .byte   PATT
  .word Label_2_0187EA85
 .byte   PATT
  .word Label_2_0187EA90
 .byte   PATT
  .word Label_2_0187EA9B
 .byte   PATT
  .word Label_2_0187EA7A
 .byte   PATT
  .word Label_2_0187EA85
 .byte   PATT
  .word Label_2_0187EA90
 .byte   PATT
  .word Label_2_0187EA9B
 .byte   PATT
  .word Label_2_0187EA7A
 .byte   PATT
  .word Label_2_0187EA85
 .byte   PATT
  .word Label_2_0187EA90
@ 012   ----------------------------------------
 .byte   N12 ,Cn1 ,v116
 .byte   W96
 .byte   PATT
  .word Label_2_0187EA7A
 .byte   PATT
  .word Label_2_0187EA85
 .byte   PATT
  .word Label_2_0187EA90
 .byte   PATT
  .word Label_2_0187EA9B
 .byte   PATT
  .word Label_2_0187EA7A
 .byte   PATT
  .word Label_2_0187EA85
 .byte   PATT
  .word Label_2_0187EA90
 .byte   PATT
  .word Label_2_0187EA9B
 .byte   PATT
  .word Label_2_0187EA7A
 .byte   PATT
  .word Label_2_0187EA85
 .byte   PATT
  .word Label_2_0187EA90
 .byte   PATT
  .word Label_2_0187EA9B
 .byte   PATT
  .word Label_2_0187EA7A
 .byte   PATT
  .word Label_2_0187EA85
 .byte   PATT
  .word Label_2_0187EA90
 .byte   PATT
  .word Label_2_0187EA9B
 .byte   PATT
  .word Label_2_0187EA7A
 .byte   PATT
  .word Label_2_0187EA85
 .byte   PATT
  .word Label_2_0187EA90
 .byte   PATT
  .word Label_2_0187EA9B
 .byte   PATT
  .word Label_2_0187EA7A
 .byte   PATT
  .word Label_2_0187EA85
 .byte   PATT
  .word Label_2_0187EA90
 .byte   PATT
  .word Label_2_0187EA9B
 .byte   PATT
  .word Label_2_0187EA7A
 .byte   PATT
  .word Label_2_0187EA85
 .byte   PATT
  .word Label_2_0187EA90
 .byte   PATT
  .word Label_2_0187EA9B
 .byte   PATT
  .word Label_2_0187EA7A
 .byte   PATT
  .word Label_2_0187EA85
 .byte   PATT
  .word Label_2_0187EA90
 .byte   PATT
  .word Label_2_0187EA9B
 .byte   PATT
  .word Label_2_0187EA7A
 .byte   PATT
  .word Label_2_0187EA85
 .byte   PATT
  .word Label_2_0187EA90
 .byte   PATT
  .word Label_2_0187EA9B
 .byte   PATT
  .word Label_2_0187EA7A
 .byte   PATT
  .word Label_2_0187EA85
 .byte   PATT
  .word Label_2_0187EA90
 .byte   PATT
  .word Label_2_0187EA9B
 .byte   PATT
  .word Label_2_0187EA7A
 .byte   PATT
  .word Label_2_0187EA85
 .byte   PATT
  .word Label_2_0187EA90
 .byte   PATT
  .word Label_2_0187EA9B
 .byte   PATT
  .word Label_2_0187EA7A
 .byte   PATT
  .word Label_2_0187EA85
 .byte   PATT
  .word Label_2_0187EA90
 .byte   PATT
  .word Label_2_0187EA9B
 .byte   PATT
  .word Label_2_0187EA7A
 .byte   PATT
  .word Label_2_0187EA85
 .byte   PATT
  .word Label_2_0187EA90
 .byte   PATT
  .word Label_2_0187EA9B
 .byte   PATT
  .word Label_2_0187EA7A
 .byte   PATT
  .word Label_2_0187EA85
 .byte   PATT
  .word Label_2_0187EA90
 .byte   PATT
  .word Label_2_0187EA9B
 .byte   PATT
  .word Label_2_0187EA7A
 .byte   PATT
  .word Label_2_0187EA85
 .byte   PATT
  .word Label_2_0187EA90
 .byte   PATT
  .word Label_2_0187EA9B
 .byte   PATT
  .word Label_2_0187EA7A
 .byte   PATT
  .word Label_2_0187EA85
 .byte   PATT
  .word Label_2_0187EA90
@ 013   ----------------------------------------
 .byte   N03 ,As0 ,v116
 .byte   W96
 .byte   PATT
  .word Label_2_0187EA7A
 .byte   PATT
  .word Label_2_0187EA85
 .byte   PATT
  .word Label_2_0187EA90
 .byte   PATT
  .word Label_2_0187EA9B
 .byte   PATT
  .word Label_2_0187EA7A
 .byte   PATT
  .word Label_2_0187EA85
 .byte   PATT
  .word Label_2_0187EA90
 .byte   PATT
  .word Label_2_0187EA9B
 .byte   PATT
  .word Label_2_0187EA7A
 .byte   PATT
  .word Label_2_0187EA85
 .byte   PATT
  .word Label_2_0187EA90
 .byte   PATT
  .word Label_2_0187EA9B
 .byte   PATT
  .word Label_2_0187EA7A
 .byte   PATT
  .word Label_2_0187EA85
 .byte   PATT
  .word Label_2_0187EA90
 .byte   PATT
  .word Label_2_0187EA9B
@ 014   ----------------------------------------
 .byte   GOTO
  .word Label_2_0187EA6E
 .byte   FINE

@**************** Track 4 (Midi-Chn.3) ****************@

song0171_004:
@ 000   ----------------------------------------
 .byte   KEYSH , song0171_key+0
Label_3_0187EC7A:
 .byte   VOICE , 81
 .byte   VOL , 20*song0171_mvl/mxv
 .byte   W96
@ 001   ----------------------------------------
 .byte   W96
@ 002   ----------------------------------------
 .byte   W96
@ 003   ----------------------------------------
 .byte   W96
@ 004   ----------------------------------------
 .byte   W96
@ 005   ----------------------------------------
 .byte   W96
@ 006   ----------------------------------------
 .byte   W96
@ 007   ----------------------------------------
 .byte   W96
@ 008   ----------------------------------------
 .byte   W96
@ 009   ----------------------------------------
 .byte   W96
@ 010   ----------------------------------------
 .byte   W96
@ 011   ----------------------------------------
 .byte   W96
@ 012   ----------------------------------------
 .byte   W96
@ 013   ----------------------------------------
 .byte   W96
@ 014   ----------------------------------------
 .byte   W96
@ 015   ----------------------------------------
 .byte   W96
@ 016   ----------------------------------------
 .byte   W96
@ 017   ----------------------------------------
 .byte   W96
@ 018   ----------------------------------------
 .byte   W96
@ 019   ----------------------------------------
 .byte   W96
@ 020   ----------------------------------------
 .byte   W96
@ 021   ----------------------------------------
 .byte   W96
@ 022   ----------------------------------------
 .byte   W96
@ 023   ----------------------------------------
 .byte   W96
@ 024   ----------------------------------------
Label_3_0187EC96:
 .byte   W24
 .byte   N24 ,Dn4 ,v116
 .byte   W24
 .byte   An4
 .byte   W24
 .byte   Gn4
 .byte   W24
 .byte   PEND 
@ 025   ----------------------------------------
Label_3_0187ECA0:
 .byte   N48 ,Gn4 ,v116
 .byte   W48
 .byte   N12 ,An4
 .byte   W12
 .byte   As4
 .byte   W12
 .byte   N24 ,Cn5
 .byte   W24
 .byte   PEND 
@ 026   ----------------------------------------
Label_3_0187ECAD:
 .byte   N60 ,Cn5 ,v116
 .byte   W60
 .byte   N12 ,As4
 .byte   W12
 .byte   An4
 .byte   W12
 .byte   N84 ,Gn4
 .byte   W12
 .byte   PEND 
@ 027   ----------------------------------------
 .byte   W96
 .byte   PATT
  .word Label_3_0187EC96
 .byte   PATT
  .word Label_3_0187ECA0
@ 028   ----------------------------------------
Label_3_0187ECC5:
 .byte   N72 ,Cn5 ,v116
 .byte   W72
 .byte   N12 ,Dn5
 .byte   W12
 .byte   N84
 .byte   W12
 .byte   PEND 
@ 029   ----------------------------------------
 .byte   W96
 .byte   PATT
  .word Label_3_0187EC96
 .byte   PATT
  .word Label_3_0187ECA0
 .byte   PATT
  .word Label_3_0187ECAD
@ 030   ----------------------------------------
 .byte   W96
 .byte   PATT
  .word Label_3_0187EC96
 .byte   PATT
  .word Label_3_0187ECA0
 .byte   PATT
  .word Label_3_0187ECC5
@ 031   ----------------------------------------
 .byte   W96
@ 032   ----------------------------------------
 .byte   W96
@ 033   ----------------------------------------
 .byte   W96
@ 034   ----------------------------------------
 .byte   W96
@ 035   ----------------------------------------
 .byte   W96
@ 036   ----------------------------------------
 .byte   W96
@ 037   ----------------------------------------
 .byte   W96
@ 038   ----------------------------------------
 .byte   W96
@ 039   ----------------------------------------
 .byte   W96
@ 040   ----------------------------------------
 .byte   W96
@ 041   ----------------------------------------
 .byte   W96
@ 042   ----------------------------------------
 .byte   W96
@ 043   ----------------------------------------
 .byte   W96
@ 044   ----------------------------------------
 .byte   W96
@ 045   ----------------------------------------
 .byte   W96
@ 046   ----------------------------------------
 .byte   W96
@ 047   ----------------------------------------
 .byte   W96
 .byte   PATT
  .word Label_3_0187EC96
 .byte   PATT
  .word Label_3_0187ECA0
 .byte   PATT
  .word Label_3_0187ECAD
@ 048   ----------------------------------------
 .byte   W96
 .byte   PATT
  .word Label_3_0187EC96
 .byte   PATT
  .word Label_3_0187ECA0
 .byte   PATT
  .word Label_3_0187ECC5
@ 049   ----------------------------------------
 .byte   W96
 .byte   PATT
  .word Label_3_0187EC96
 .byte   PATT
  .word Label_3_0187ECA0
 .byte   PATT
  .word Label_3_0187ECAD
@ 050   ----------------------------------------
 .byte   W96
 .byte   PATT
  .word Label_3_0187EC96
 .byte   PATT
  .word Label_3_0187ECA0
 .byte   PATT
  .word Label_3_0187ECC5
@ 051   ----------------------------------------
 .byte   W96
@ 052   ----------------------------------------
 .byte   W96
@ 053   ----------------------------------------
 .byte   W96
@ 054   ----------------------------------------
 .byte   W96
@ 055   ----------------------------------------
 .byte   W96
@ 056   ----------------------------------------
 .byte   W96
@ 057   ----------------------------------------
 .byte   W96
@ 058   ----------------------------------------
 .byte   W96
@ 059   ----------------------------------------
 .byte   W96
@ 060   ----------------------------------------
 .byte   W96
@ 061   ----------------------------------------
 .byte   W96
@ 062   ----------------------------------------
 .byte   W96
@ 063   ----------------------------------------
 .byte   W96
@ 064   ----------------------------------------
 .byte   W96
@ 065   ----------------------------------------
 .byte   W96
@ 066   ----------------------------------------
 .byte   W96
@ 067   ----------------------------------------
 .byte   W96
 .byte   PATT
  .word Label_3_0187EC96
 .byte   PATT
  .word Label_3_0187ECA0
 .byte   PATT
  .word Label_3_0187ECAD
@ 068   ----------------------------------------
 .byte   W96
 .byte   PATT
  .word Label_3_0187EC96
 .byte   PATT
  .word Label_3_0187ECA0
 .byte   PATT
  .word Label_3_0187ECC5
@ 069   ----------------------------------------
 .byte   W96
 .byte   PATT
  .word Label_3_0187EC96
 .byte   PATT
  .word Label_3_0187ECA0
 .byte   PATT
  .word Label_3_0187ECAD
@ 070   ----------------------------------------
 .byte   W96
 .byte   PATT
  .word Label_3_0187EC96
 .byte   PATT
  .word Label_3_0187ECA0
 .byte   PATT
  .word Label_3_0187ECC5
@ 071   ----------------------------------------
 .byte   W96
@ 072   ----------------------------------------
 .byte   GOTO
  .word Label_3_0187EC7A
 .byte   FINE

@**************** Track 5 (Midi-Chn.4) ****************@

song0171_005:
@ 000   ----------------------------------------
 .byte   KEYSH , song0171_key+0
Label_4_0187ED9A:
 .byte   VOICE , 106
 .byte   VOL , 37*song0171_mvl/mxv
 .byte   W96
@ 001   ----------------------------------------
 .byte   W96
@ 002   ----------------------------------------
 .byte   W96
@ 003   ----------------------------------------
 .byte   W96
@ 004   ----------------------------------------
 .byte   W96
@ 005   ----------------------------------------
 .byte   W96
@ 006   ----------------------------------------
 .byte   W96
@ 007   ----------------------------------------
 .byte   W96
@ 008   ----------------------------------------
 .byte   W96
@ 009   ----------------------------------------
 .byte   W96
@ 010   ----------------------------------------
 .byte   W96
@ 011   ----------------------------------------
 .byte   W96
@ 012   ----------------------------------------
 .byte   W96
@ 013   ----------------------------------------
 .byte   W96
@ 014   ----------------------------------------
 .byte   W96
@ 015   ----------------------------------------
 .byte   W96
@ 016   ----------------------------------------
 .byte   W96
@ 017   ----------------------------------------
 .byte   W96
@ 018   ----------------------------------------
 .byte   W96
@ 019   ----------------------------------------
 .byte   W96
@ 020   ----------------------------------------
 .byte   W96
@ 021   ----------------------------------------
 .byte   W96
@ 022   ----------------------------------------
 .byte   W96
@ 023   ----------------------------------------
 .byte   W96
@ 024   ----------------------------------------
 .byte   W96
@ 025   ----------------------------------------
 .byte   W96
@ 026   ----------------------------------------
 .byte   W96
@ 027   ----------------------------------------
 .byte   W96
@ 028   ----------------------------------------
 .byte   W96
@ 029   ----------------------------------------
 .byte   W96
@ 030   ----------------------------------------
 .byte   W96
@ 031   ----------------------------------------
 .byte   W96
@ 032   ----------------------------------------
 .byte   W96
@ 033   ----------------------------------------
 .byte   W96
@ 034   ----------------------------------------
 .byte   W96
@ 035   ----------------------------------------
 .byte   W96
@ 036   ----------------------------------------
 .byte   W96
@ 037   ----------------------------------------
 .byte   W96
@ 038   ----------------------------------------
 .byte   W96
@ 039   ----------------------------------------
 .byte   W96
@ 040   ----------------------------------------
 .byte   W96
@ 041   ----------------------------------------
 .byte   W96
@ 042   ----------------------------------------
 .byte   W96
@ 043   ----------------------------------------
 .byte   W96
@ 044   ----------------------------------------
 .byte   W96
@ 045   ----------------------------------------
 .byte   W96
@ 046   ----------------------------------------
 .byte   W96
@ 047   ----------------------------------------
 .byte   W96
@ 048   ----------------------------------------
 .byte   W96
@ 049   ----------------------------------------
 .byte   W96
@ 050   ----------------------------------------
 .byte   W96
@ 051   ----------------------------------------
 .byte   W96
@ 052   ----------------------------------------
 .byte   W96
@ 053   ----------------------------------------
 .byte   W96
@ 054   ----------------------------------------
 .byte   W96
@ 055   ----------------------------------------
 .byte   W96
@ 056   ----------------------------------------
 .byte   W96
@ 057   ----------------------------------------
 .byte   W96
@ 058   ----------------------------------------
 .byte   W96
@ 059   ----------------------------------------
 .byte   W96
@ 060   ----------------------------------------
 .byte   W96
@ 061   ----------------------------------------
 .byte   W96
@ 062   ----------------------------------------
 .byte   W96
@ 063   ----------------------------------------
 .byte   W96
@ 064   ----------------------------------------
 .byte   W96
@ 065   ----------------------------------------
 .byte   W96
@ 066   ----------------------------------------
 .byte   W96
@ 067   ----------------------------------------
 .byte   W96
@ 068   ----------------------------------------
 .byte   W96
@ 069   ----------------------------------------
 .byte   W96
@ 070   ----------------------------------------
 .byte   W96
@ 071   ----------------------------------------
 .byte   W96
@ 072   ----------------------------------------
 .byte   W96
@ 073   ----------------------------------------
 .byte   W96
@ 074   ----------------------------------------
 .byte   W96
@ 075   ----------------------------------------
 .byte   W96
@ 076   ----------------------------------------
 .byte   W96
@ 077   ----------------------------------------
 .byte   W96
@ 078   ----------------------------------------
 .byte   W96
@ 079   ----------------------------------------
 .byte   W96
@ 080   ----------------------------------------
Label_4_0187EDEE:
 .byte   N12 ,Cn6 ,v052
 .byte   W36
 .byte   As5
 .byte   W12
 .byte   Cn6
 .byte   W36
 .byte   As5
 .byte   W12
 .byte   PEND 
@ 081   ----------------------------------------
Label_4_0187EDF9:
 .byte   N12 ,Cn6 ,v052
 .byte   W12
 .byte   Dn6
 .byte   W12
 .byte   As5
 .byte   W24
 .byte   Gn5
 .byte   W24
 .byte   As5
 .byte   W24
 .byte   PEND 
 .byte   PATT
  .word Label_4_0187EDEE
@ 082   ----------------------------------------
 .byte   N12 ,Cn6 ,v052
 .byte   W12
 .byte   Dn6
 .byte   W12
 .byte   As5
 .byte   W48
 .byte   Gn5
 .byte   W12
 .byte   As5
 .byte   W12
 .byte   PATT
  .word Label_4_0187EDEE
 .byte   PATT
  .word Label_4_0187EDF9
 .byte   PATT
  .word Label_4_0187EDEE
@ 083   ----------------------------------------
 .byte   N12 ,Cn6 ,v052
 .byte   W12
 .byte   Dn6
 .byte   W12
 .byte   As5
 .byte   W72
@ 084   ----------------------------------------
 .byte   W96
@ 085   ----------------------------------------
 .byte   W96
@ 086   ----------------------------------------
 .byte   W96
@ 087   ----------------------------------------
 .byte   W96
@ 088   ----------------------------------------
 .byte   W96
@ 089   ----------------------------------------
 .byte   W96
@ 090   ----------------------------------------
 .byte   W96
@ 091   ----------------------------------------
 .byte   W96
@ 092   ----------------------------------------
 .byte   W96
@ 093   ----------------------------------------
 .byte   W96
@ 094   ----------------------------------------
 .byte   W96
@ 095   ----------------------------------------
 .byte   W96
@ 096   ----------------------------------------
 .byte   W96
@ 097   ----------------------------------------
 .byte   W96
@ 098   ----------------------------------------
 .byte   W96
@ 099   ----------------------------------------
 .byte   W96
@ 100   ----------------------------------------
 .byte   GOTO
  .word Label_4_0187ED9A
 .byte   FINE

@**************** Track 6 (Midi-Chn.5) ****************@

song0171_006:
@ 000   ----------------------------------------
 .byte   KEYSH , song0171_key+0
Label_5_0187EE46:
 .byte   VOICE , 70
 .byte   VOL , 10*song0171_mvl/mxv
 .byte   W96
@ 001   ----------------------------------------
 .byte   W96
@ 002   ----------------------------------------
 .byte   W96
@ 003   ----------------------------------------
 .byte   W96
@ 004   ----------------------------------------
 .byte   W96
@ 005   ----------------------------------------
 .byte   W96
@ 006   ----------------------------------------
 .byte   W96
@ 007   ----------------------------------------
 .byte   W96
@ 008   ----------------------------------------
 .byte   W96
@ 009   ----------------------------------------
 .byte   W60
 .byte   N12 ,Gn3 ,v116
 .byte   W36
@ 010   ----------------------------------------
 .byte   W96
@ 011   ----------------------------------------
Label_5_0187EE59:
 .byte   W36
 .byte   N12 ,Gn3 ,v116
 .byte   N12 ,Gn4 ,v080
 .byte   W60
 .byte   PEND 
@ 012   ----------------------------------------
 .byte   W96
@ 013   ----------------------------------------
 .byte   W60
 .byte   Gn3 ,v116
 .byte   W36
@ 014   ----------------------------------------
 .byte   W96
@ 015   ----------------------------------------
 .byte   W36
 .byte   Gn4 ,v092
 .byte   W60
@ 016   ----------------------------------------
 .byte   W96
@ 017   ----------------------------------------
 .byte   W60
 .byte   Gn3 ,v116
 .byte   W36
@ 018   ----------------------------------------
 .byte   W96
 .byte   PATT
  .word Label_5_0187EE59
@ 019   ----------------------------------------
 .byte   W96
@ 020   ----------------------------------------
 .byte   W60
 .byte   N12 ,Gn3 ,v116
 .byte   W36
@ 021   ----------------------------------------
 .byte   W96
@ 022   ----------------------------------------
 .byte   W36
 .byte   Gn4 ,v092
 .byte   W60
@ 023   ----------------------------------------
 .byte   W96
@ 024   ----------------------------------------
 .byte   W60
 .byte   Gn3 ,v116
 .byte   W36
@ 025   ----------------------------------------
 .byte   W96
 .byte   PATT
  .word Label_5_0187EE59
@ 026   ----------------------------------------
 .byte   W96
@ 027   ----------------------------------------
 .byte   W60
 .byte   N12 ,Gn3 ,v116
 .byte   W36
@ 028   ----------------------------------------
 .byte   W96
@ 029   ----------------------------------------
 .byte   W36
 .byte   Gn4 ,v092
 .byte   W60
@ 030   ----------------------------------------
 .byte   W96
@ 031   ----------------------------------------
 .byte   W60
 .byte   Gn3 ,v116
 .byte   W36
@ 032   ----------------------------------------
 .byte   W96
 .byte   PATT
  .word Label_5_0187EE59
@ 033   ----------------------------------------
 .byte   W96
@ 034   ----------------------------------------
 .byte   W60
 .byte   N12 ,Gn3 ,v116
 .byte   W36
@ 035   ----------------------------------------
 .byte   W96
@ 036   ----------------------------------------
 .byte   W36
 .byte   Gn4 ,v092
 .byte   W60
@ 037   ----------------------------------------
 .byte   W96
@ 038   ----------------------------------------
 .byte   W60
 .byte   Gn3 ,v116
 .byte   W36
@ 039   ----------------------------------------
 .byte   W96
 .byte   PATT
  .word Label_5_0187EE59
@ 040   ----------------------------------------
 .byte   W96
@ 041   ----------------------------------------
 .byte   W60
 .byte   N12 ,Gn3 ,v116
 .byte   W36
@ 042   ----------------------------------------
 .byte   W96
@ 043   ----------------------------------------
 .byte   W36
 .byte   Gn4 ,v092
 .byte   W60
@ 044   ----------------------------------------
 .byte   W96
@ 045   ----------------------------------------
 .byte   W60
 .byte   Gn3 ,v116
 .byte   W36
@ 046   ----------------------------------------
 .byte   W96
 .byte   PATT
  .word Label_5_0187EE59
@ 047   ----------------------------------------
 .byte   W96
@ 048   ----------------------------------------
 .byte   W60
 .byte   N12 ,Gn3 ,v116
 .byte   W36
@ 049   ----------------------------------------
 .byte   W96
@ 050   ----------------------------------------
 .byte   W36
 .byte   Gn4 ,v092
 .byte   W60
@ 051   ----------------------------------------
 .byte   W96
@ 052   ----------------------------------------
 .byte   W60
 .byte   Gn3 ,v116
 .byte   W36
@ 053   ----------------------------------------
 .byte   W96
 .byte   PATT
  .word Label_5_0187EE59
@ 054   ----------------------------------------
 .byte   W96
@ 055   ----------------------------------------
 .byte   W60
 .byte   N12 ,Gn3 ,v116
 .byte   W36
@ 056   ----------------------------------------
 .byte   W96
@ 057   ----------------------------------------
 .byte   W36
 .byte   Gn4 ,v092
 .byte   W60
@ 058   ----------------------------------------
 .byte   W96
@ 059   ----------------------------------------
 .byte   W60
 .byte   Gn3 ,v116
 .byte   W36
@ 060   ----------------------------------------
 .byte   W96
 .byte   PATT
  .word Label_5_0187EE59
@ 061   ----------------------------------------
 .byte   W96
@ 062   ----------------------------------------
 .byte   W60
 .byte   N12 ,Gn3 ,v116
 .byte   W36
@ 063   ----------------------------------------
 .byte   W96
@ 064   ----------------------------------------
 .byte   W36
 .byte   Gn4 ,v092
 .byte   W60
@ 065   ----------------------------------------
 .byte   W96
@ 066   ----------------------------------------
 .byte   W60
 .byte   Gn3 ,v116
 .byte   W36
@ 067   ----------------------------------------
 .byte   W96
 .byte   PATT
  .word Label_5_0187EE59
@ 068   ----------------------------------------
 .byte   W96
@ 069   ----------------------------------------
 .byte   W60
 .byte   N12 ,Gn3 ,v116
 .byte   W36
@ 070   ----------------------------------------
 .byte   W96
@ 071   ----------------------------------------
 .byte   W36
 .byte   Gn4 ,v092
 .byte   W60
@ 072   ----------------------------------------
 .byte   W96
@ 073   ----------------------------------------
 .byte   W60
 .byte   Gn3 ,v116
 .byte   W36
@ 074   ----------------------------------------
 .byte   W96
 .byte   PATT
  .word Label_5_0187EE59
@ 075   ----------------------------------------
 .byte   W96
@ 076   ----------------------------------------
 .byte   W60
 .byte   N12 ,Gn3 ,v116
 .byte   W36
@ 077   ----------------------------------------
 .byte   W96
@ 078   ----------------------------------------
 .byte   W36
 .byte   Gn4 ,v092
 .byte   W60
@ 079   ----------------------------------------
 .byte   W96
@ 080   ----------------------------------------
 .byte   W60
 .byte   Gn3 ,v116
 .byte   W36
@ 081   ----------------------------------------
 .byte   W96
 .byte   PATT
  .word Label_5_0187EE59
@ 082   ----------------------------------------
 .byte   W96
@ 083   ----------------------------------------
 .byte   W60
 .byte   N12 ,Gn3 ,v116
 .byte   W36
@ 084   ----------------------------------------
 .byte   W96
@ 085   ----------------------------------------
 .byte   W36
 .byte   Gn4 ,v092
 .byte   W60
@ 086   ----------------------------------------
 .byte   W96
@ 087   ----------------------------------------
 .byte   W60
 .byte   Gn3 ,v116
 .byte   W36
@ 088   ----------------------------------------
 .byte   W96
 .byte   PATT
  .word Label_5_0187EE59
@ 089   ----------------------------------------
 .byte   W96
@ 090   ----------------------------------------
 .byte   W60
 .byte   N12 ,Gn3 ,v116
 .byte   W36
@ 091   ----------------------------------------
 .byte   W96
@ 092   ----------------------------------------
 .byte   W36
 .byte   Gn4 ,v092
 .byte   W60
@ 093   ----------------------------------------
 .byte   GOTO
  .word Label_5_0187EE46
 .byte   FINE

@**************** Track 7 (Midi-Chn.6) ****************@

song0171_007:
@ 000   ----------------------------------------
 .byte   KEYSH , song0171_key+0
Label_6_0187EF66:
 .byte   VOICE , 123
 .byte   VOL , 50*song0171_mvl/mxv
 .byte   N06 ,Cn1 ,v116
 .byte   N06 ,Gs1
 .byte   W12
 .byte   N06
 .byte   W06
 .byte   Cn1
 .byte   W06
 .byte   Dn1
 .byte   N06 ,Gs1
 .byte   W12
 .byte   N06
 .byte   W06
 .byte   Cn1
 .byte   W06
 .byte   Gs1
 .byte   W06
 .byte   Cn1
 .byte   W06
 .byte   N06
 .byte   N06 ,Gs1
 .byte   W06
 .byte   Cn1
 .byte   W06
 .byte   Dn1
 .byte   N06 ,Gs1
 .byte   W12
 .byte   Cn1
 .byte   N06 ,Gs1
 .byte   W12
@ 001   ----------------------------------------
Label_6_0187EF8E:
 .byte   N06 ,Cn1 ,v116
 .byte   N06 ,Gs1
 .byte   W12
 .byte   N06
 .byte   W12
 .byte   Dn1
 .byte   N06 ,Gs1
 .byte   W12
 .byte   N06
 .byte   W12
 .byte   Dn1
 .byte   N06 ,Gs1
 .byte   W12
 .byte   Cn1
 .byte   N06 ,Gs1
 .byte   W06
 .byte   Cn1
 .byte   W06
 .byte   Dn1
 .byte   N06 ,Gs1
 .byte   W12
 .byte   N06
 .byte   W12
 .byte   PEND 
@ 002   ----------------------------------------
Label_6_0187EFAD:
 .byte   N06 ,Cn1 ,v116
 .byte   N06 ,Gs1
 .byte   W12
 .byte   N06
 .byte   W06
 .byte   Cn1
 .byte   W06
 .byte   Dn1
 .byte   N06 ,Gs1
 .byte   W12
 .byte   N06
 .byte   W06
 .byte   Cn1
 .byte   W06
 .byte   Gs1
 .byte   W06
 .byte   Cn1
 .byte   W06
 .byte   N06
 .byte   N06 ,Gs1
 .byte   W06
 .byte   Cn1
 .byte   W06
 .byte   Dn1
 .byte   N06 ,Gs1
 .byte   W12
 .byte   Cn1
 .byte   N06 ,Gs1
 .byte   W12
 .byte   PEND 
 .byte   PATT
  .word Label_6_0187EF8E
 .byte   PATT
  .word Label_6_0187EFAD
 .byte   PATT
  .word Label_6_0187EF8E
 .byte   PATT
  .word Label_6_0187EFAD
@ 003   ----------------------------------------
Label_6_0187EFE6:
 .byte   N06 ,Cn1 ,v116
 .byte   N06 ,Gs1
 .byte   N12 ,Cn3
 .byte   W12
 .byte   N06 ,Gs1
 .byte   N12 ,Cs3
 .byte   W12
 .byte   N06 ,Dn1
 .byte   N06 ,Gs1
 .byte   N12 ,Cs3
 .byte   W12
 .byte   N06 ,Gs1
 .byte   N12 ,Cn3
 .byte   W12
 .byte   N06 ,Dn1
 .byte   N06 ,Gs1
 .byte   N12 ,Cs3
 .byte   W12
 .byte   N06 ,Cn1
 .byte   N06 ,Gs1
 .byte   N12 ,Cs3
 .byte   W06
 .byte   N06 ,Cn1
 .byte   W06
 .byte   Dn1
 .byte   N06 ,Gs1
 .byte   N12 ,Cn3
 .byte   W12
 .byte   N06 ,Gs1
 .byte   W12
 .byte   PEND 
 .byte   PATT
  .word Label_6_0187EFAD
 .byte   PATT
  .word Label_6_0187EF8E
 .byte   PATT
  .word Label_6_0187EFAD
 .byte   PATT
  .word Label_6_0187EF8E
 .byte   PATT
  .word Label_6_0187EFAD
 .byte   PATT
  .word Label_6_0187EF8E
 .byte   PATT
  .word Label_6_0187EFAD
@ 004   ----------------------------------------
 .byte   N06 ,Cn1 ,v116
 .byte   N06 ,Gs1
 .byte   W12
 .byte   N06
 .byte   N12 ,Cn3
 .byte   N12 ,Cs3
 .byte   W12
 .byte   N06 ,Dn1
 .byte   N06 ,Gs1
 .byte   W12
 .byte   N06
 .byte   W12
 .byte   Dn1
 .byte   N06 ,Gs1
 .byte   N12 ,Cn3
 .byte   N12 ,Cs3
 .byte   W12
 .byte   N06 ,Cn1
 .byte   N06 ,Gs1
 .byte   W06
 .byte   Cn1
 .byte   W06
 .byte   Dn1
 .byte   N06 ,Gs1
 .byte   W12
 .byte   N06
 .byte   N12 ,Cn3
 .byte   N12 ,Cs3
 .byte   W12
 .byte   PATT
  .word Label_6_0187EFAD
 .byte   PATT
  .word Label_6_0187EF8E
 .byte   PATT
  .word Label_6_0187EFAD
 .byte   PATT
  .word Label_6_0187EF8E
 .byte   PATT
  .word Label_6_0187EFAD
 .byte   PATT
  .word Label_6_0187EF8E
 .byte   PATT
  .word Label_6_0187EFAD
@ 005   ----------------------------------------
 .byte   W12
 .byte   N12 ,Cn3 ,v116
 .byte   N12 ,Cs3
 .byte   W18
 .byte   Cn3
 .byte   N12 ,Cs3
 .byte   W18
 .byte   Cn3
 .byte   N12 ,Cs3
 .byte   W24
 .byte   Cn3
 .byte   N12 ,Cs3
 .byte   W12
 .byte   Cn3
 .byte   N12 ,Cs3
 .byte   W12
 .byte   PATT
  .word Label_6_0187EFAD
 .byte   PATT
  .word Label_6_0187EF8E
 .byte   PATT
  .word Label_6_0187EFAD
 .byte   PATT
  .word Label_6_0187EF8E
 .byte   PATT
  .word Label_6_0187EFAD
 .byte   PATT
  .word Label_6_0187EF8E
 .byte   PATT
  .word Label_6_0187EFAD
@ 006   ----------------------------------------
 .byte   N06 ,Cn1 ,v116
 .byte   N06 ,Gs1
 .byte   W12
 .byte   N06
 .byte   W12
 .byte   Dn1
 .byte   N06 ,Gs1
 .byte   W12
 .byte   N06
 .byte   W12
 .byte   Dn1
 .byte   N06 ,Gs1
 .byte   N12 ,Cn3
 .byte   N12 ,Cs3
 .byte   W12
 .byte   N06 ,Cn1
 .byte   N06 ,Gs1
 .byte   W06
 .byte   Cn1
 .byte   W06
 .byte   Dn1
 .byte   N06 ,Gs1
 .byte   W12
 .byte   N06
 .byte   N12 ,Cn3
 .byte   N12 ,Cs3
 .byte   W12
@ 007   ----------------------------------------
 .byte   N06 ,Cn1
 .byte   N06 ,Gs1
 .byte   W12
 .byte   N06
 .byte   W06
 .byte   Cn1
 .byte   W06
 .byte   Dn1
 .byte   N06 ,Gs1
 .byte   N12 ,Cn3
 .byte   N12 ,Cs3
 .byte   W12
 .byte   N06 ,Gs1
 .byte   W06
 .byte   Cn1
 .byte   W06
 .byte   Gs1
 .byte   W06
 .byte   Cn1
 .byte   W06
 .byte   N06
 .byte   N06 ,Gs1
 .byte   W06
 .byte   Cn1
 .byte   W06
 .byte   Dn1
 .byte   N06 ,Gs1
 .byte   W12
 .byte   Cn1
 .byte   N06 ,Gs1
 .byte   W12
 .byte   PATT
  .word Label_6_0187EF8E
 .byte   PATT
  .word Label_6_0187EFAD
 .byte   PATT
  .word Label_6_0187EF8E
 .byte   PATT
  .word Label_6_0187EFAD
 .byte   PATT
  .word Label_6_0187EF8E
 .byte   PATT
  .word Label_6_0187EFAD
@ 008   ----------------------------------------
Label_6_0187F133:
 .byte   N06 ,Cn1 ,v116
 .byte   N06 ,Gs1
 .byte   W12
 .byte   N06
 .byte   N12 ,Cn3
 .byte   W12
 .byte   N06 ,Dn1
 .byte   N06 ,Gs1
 .byte   W06
 .byte   N12 ,Cn3
 .byte   W06
 .byte   N06 ,Gs1
 .byte   W12
 .byte   Dn1
 .byte   N06 ,Gs1
 .byte   N12 ,Cn3
 .byte   W12
 .byte   N06 ,Cn1
 .byte   N06 ,Gs1
 .byte   W06
 .byte   Cn1
 .byte   N12 ,Cn3
 .byte   W06
 .byte   N06 ,Dn1
 .byte   N06 ,Gs1
 .byte   W12
 .byte   N06
 .byte   N12 ,Cn3
 .byte   W12
 .byte   PEND 
 .byte   PATT
  .word Label_6_0187EFAD
 .byte   PATT
  .word Label_6_0187EF8E
 .byte   PATT
  .word Label_6_0187EFAD
 .byte   PATT
  .word Label_6_0187EF8E
 .byte   PATT
  .word Label_6_0187EFAD
 .byte   PATT
  .word Label_6_0187EF8E
 .byte   PATT
  .word Label_6_0187EFAD
 .byte   PATT
  .word Label_6_0187EFE6
 .byte   PATT
  .word Label_6_0187EFAD
 .byte   PATT
  .word Label_6_0187EF8E
 .byte   PATT
  .word Label_6_0187EFAD
 .byte   PATT
  .word Label_6_0187EF8E
 .byte   PATT
  .word Label_6_0187EFAD
 .byte   PATT
  .word Label_6_0187EF8E
 .byte   PATT
  .word Label_6_0187EFAD
 .byte   PATT
  .word Label_6_0187EFE6
 .byte   PATT
  .word Label_6_0187EFAD
 .byte   PATT
  .word Label_6_0187EF8E
 .byte   PATT
  .word Label_6_0187EFAD
 .byte   PATT
  .word Label_6_0187EF8E
 .byte   PATT
  .word Label_6_0187EFAD
 .byte   PATT
  .word Label_6_0187EF8E
 .byte   PATT
  .word Label_6_0187EFAD
 .byte   PATT
  .word Label_6_0187EF8E
 .byte   PATT
  .word Label_6_0187EFAD
 .byte   PATT
  .word Label_6_0187EF8E
 .byte   PATT
  .word Label_6_0187EFAD
 .byte   PATT
  .word Label_6_0187EF8E
 .byte   PATT
  .word Label_6_0187EFAD
 .byte   PATT
  .word Label_6_0187EF8E
 .byte   PATT
  .word Label_6_0187EFAD
 .byte   PATT
  .word Label_6_0187F133
 .byte   PATT
  .word Label_6_0187EFAD
 .byte   PATT
  .word Label_6_0187EF8E
 .byte   PATT
  .word Label_6_0187EFAD
@ 009   ----------------------------------------
 .byte   N06 ,Cn1 ,v116
 .byte   N06 ,Gs1
 .byte   W12
 .byte   N06
 .byte   W12
 .byte   Dn1
 .byte   N06 ,Gs1
 .byte   W12
 .byte   N06
 .byte   W12
 .byte   Dn1
 .byte   N06 ,Gs1
 .byte   N12 ,Cn3
 .byte   W12
 .byte   N06 ,Cn1
 .byte   N06 ,Gs1
 .byte   W06
 .byte   Cn1
 .byte   W06
 .byte   Dn1
 .byte   N06 ,Gs1
 .byte   W12
 .byte   N06
 .byte   N12 ,Cn3
 .byte   W12
 .byte   PATT
  .word Label_6_0187EFAD
 .byte   PATT
  .word Label_6_0187EF8E
@ 010   ----------------------------------------
Label_6_0187F23D:
 .byte   N06 ,Cn1 ,v116
 .byte   N06 ,Gs1
 .byte   W12
 .byte   N06
 .byte   W12
 .byte   Dn1
 .byte   N06 ,Gs1
 .byte   W12
 .byte   Cn1
 .byte   N06 ,Gs1
 .byte   W12
 .byte   N06
 .byte   W12
 .byte   Cn1
 .byte   N06 ,Gs1
 .byte   W12
 .byte   Dn1
 .byte   N06 ,Gs1
 .byte   W12
 .byte   N06
 .byte   W12
 .byte   PEND 
@ 011   ----------------------------------------
 .byte   Cn1
 .byte   N06 ,Gs1
 .byte   W12
 .byte   N06
 .byte   W12
 .byte   Dn1
 .byte   N06 ,Gs1
 .byte   W12
 .byte   Cn1
 .byte   N06 ,Gs1
 .byte   W12
 .byte   Dn1
 .byte   N06 ,Gs1
 .byte   N12 ,Cn3
 .byte   N12 ,Cs3
 .byte   W12
 .byte   N06 ,Dn1
 .byte   N06 ,Gs1
 .byte   W12
 .byte   Cn1
 .byte   N06 ,Gs1
 .byte   W12
 .byte   Dn1
 .byte   N06 ,Gs1
 .byte   N12 ,Cn3
 .byte   N12 ,Cs3
 .byte   W12
 .byte   PATT
  .word Label_6_0187EFAD
 .byte   PATT
  .word Label_6_0187EF8E
 .byte   PATT
  .word Label_6_0187F23D
 .byte   PATT
  .word Label_6_0187F23D
 .byte   PATT
  .word Label_6_0187EFAD
 .byte   PATT
  .word Label_6_0187EF8E
 .byte   PATT
  .word Label_6_0187EFAD
@ 012   ----------------------------------------
 .byte   N06 ,Cn1 ,v116
 .byte   W48
 .byte   Dn1 ,v080
 .byte   N12 ,Cs3 ,v052
 .byte   W18
 .byte   Ds3
 .byte   W30
 .byte   PATT
  .word Label_6_0187EFAD
 .byte   PATT
  .word Label_6_0187EF8E
 .byte   PATT
  .word Label_6_0187EFAD
 .byte   PATT
  .word Label_6_0187EF8E
 .byte   PATT
  .word Label_6_0187EFAD
 .byte   PATT
  .word Label_6_0187EF8E
 .byte   PATT
  .word Label_6_0187EFAD
 .byte   PATT
  .word Label_6_0187EF8E
 .byte   PATT
  .word Label_6_0187EFAD
 .byte   PATT
  .word Label_6_0187EF8E
 .byte   PATT
  .word Label_6_0187EFAD
 .byte   PATT
  .word Label_6_0187EF8E
 .byte   PATT
  .word Label_6_0187EFAD
 .byte   PATT
  .word Label_6_0187EF8E
 .byte   PATT
  .word Label_6_0187EFAD
 .byte   PATT
  .word Label_6_0187F133
@ 013   ----------------------------------------
 .byte   GOTO
  .word Label_6_0187EF66
 .byte   FINE

@******************************************************@
	.align	2

song0171:
	.byte	7	@ NumTrks
	.byte	0	@ NumBlks
	.byte	song0171_pri	@ Priority
	.byte	song0171_rev	@ Reverb.
    
	.word	song0171_grp
    
	.word	song0171_001
	.word	song0171_002
	.word	song0171_003
	.word	song0171_004
	.word	song0171_005
	.word	song0171_006
	.word	song0171_007

	.end
