	.include "MPlayDef.s"

	.equ	song35_grp, voicegroup000
	.equ	song35_pri, 10
	.equ	song35_rev, 0
	.equ	song35_mvl, 127
	.equ	song35_key, 0
	.equ	song35_tbs, 1
	.equ	song35_exg, 0
	.equ	song35_cmp, 1

	.section .rodata
	.global	song35
	.align	2


@**************** Track 1 (Midi-Chn.0) ****************@

song35_001:
@ 000   ----------------------------------------
Label_0_011F441C:
 .byte   VOL , 10*song35_mvl/mxv
 .byte   KEYSH , song35_key+0
 .byte   VOICE , 121
 .byte   N12 ,An4 ,v100
 .byte   N12 ,Bn3
 .byte   TEMPO , 116*song35_tbs/2
 .byte   W12
 .byte   N12 ,An3 ,v100
 .byte   W12
 .byte   An4
 .byte   N12 ,An3
 .byte   W12
 .byte   An4
 .byte   N12 ,An3
 .byte   W12
 .byte   Bn3
 .byte   W12
 .byte   An4
 .byte   N12 ,An3
 .byte   W12
 .byte   An3
 .byte   W12
 .byte   An3
 .byte   W12
@ 001   ----------------------------------------
Label_0_011F4440:
 .byte   N12 ,An4 ,v100
 .byte   N12 ,Bn3
 .byte   W12
 .byte   An3
 .byte   W12
 .byte   An4
 .byte   N12 ,An3
 .byte   W12
 .byte   An4
 .byte   N12 ,An3
 .byte   W12
 .byte   Bn3
 .byte   W12
 .byte   An4
 .byte   N12 ,An3
 .byte   W12
 .byte   An3
 .byte   W12
 .byte   An3
 .byte   W12
 .byte   PEND 
 .byte   PATT
  .word Label_0_011F4440
 .byte   PATT
  .word Label_0_011F4440
 .byte   PATT
  .word Label_0_011F4440
 .byte   PATT
  .word Label_0_011F4440
 .byte   PATT
  .word Label_0_011F4440
 .byte   PATT
  .word Label_0_011F4440
 .byte   PATT
  .word Label_0_011F4440
 .byte   PATT
  .word Label_0_011F4440
 .byte   PATT
  .word Label_0_011F4440
 .byte   PATT
  .word Label_0_011F4440
 .byte   PATT
  .word Label_0_011F4440
 .byte   PATT
  .word Label_0_011F4440
 .byte   PATT
  .word Label_0_011F4440
 .byte   PATT
  .word Label_0_011F4440
 .byte   PATT
  .word Label_0_011F4440
 .byte   PATT
  .word Label_0_011F4440
 .byte   PATT
  .word Label_0_011F4440
 .byte   PATT
  .word Label_0_011F4440
 .byte   PATT
  .word Label_0_011F4440
 .byte   PATT
  .word Label_0_011F4440
 .byte   PATT
  .word Label_0_011F4440
 .byte   PATT
  .word Label_0_011F4440
 .byte   PATT
  .word Label_0_011F4440
 .byte   PATT
  .word Label_0_011F4440
 .byte   PATT
  .word Label_0_011F4440
 .byte   PATT
  .word Label_0_011F4440
 .byte   PATT
  .word Label_0_011F4440
 .byte   PATT
  .word Label_0_011F4440
 .byte   PATT
  .word Label_0_011F4440
 .byte   PATT
  .word Label_0_011F4440
 .byte   PATT
  .word Label_0_011F4440
 .byte   PATT
  .word Label_0_011F4440
 .byte   PATT
  .word Label_0_011F4440
 .byte   PATT
  .word Label_0_011F4440
 .byte   PATT
  .word Label_0_011F4440
 .byte   PATT
  .word Label_0_011F4440
 .byte   PATT
  .word Label_0_011F4440
 .byte   PATT
  .word Label_0_011F4440
 .byte   PATT
  .word Label_0_011F4440
 .byte   PATT
  .word Label_0_011F4440
 .byte   PATT
  .word Label_0_011F4440
 .byte   PATT
  .word Label_0_011F4440
 .byte   PATT
  .word Label_0_011F4440
 .byte   PATT
  .word Label_0_011F4440
 .byte   PATT
  .word Label_0_011F4440
 .byte   PATT
  .word Label_0_011F4440
 .byte   PATT
  .word Label_0_011F4440
 .byte   PATT
  .word Label_0_011F4440
 .byte   PATT
  .word Label_0_011F4440
 .byte   PATT
  .word Label_0_011F4440
 .byte   PATT
  .word Label_0_011F4440
 .byte   PATT
  .word Label_0_011F4440
 .byte   PATT
  .word Label_0_011F4440
 .byte   PATT
  .word Label_0_011F4440
 .byte   PATT
  .word Label_0_011F4440
 .byte   PATT
  .word Label_0_011F4440
 .byte   PATT
  .word Label_0_011F4440
 .byte   PATT
  .word Label_0_011F4440
 .byte   PATT
  .word Label_0_011F4440
 .byte   PATT
  .word Label_0_011F4440
 .byte   PATT
  .word Label_0_011F4440
 .byte   PATT
  .word Label_0_011F4440
 .byte   PATT
  .word Label_0_011F4440
 .byte   PATT
  .word Label_0_011F4440
 .byte   PATT
  .word Label_0_011F4440
 .byte   PATT
  .word Label_0_011F4440
 .byte   PATT
  .word Label_0_011F4440
 .byte   PATT
  .word Label_0_011F4440
 .byte   PATT
  .word Label_0_011F4440
@ 002   ----------------------------------------
 .byte   N12 ,An4 ,v100
 .byte   N12 ,Bn3
 .byte   W12
 .byte   An3
 .byte   W12
 .byte   An4
 .byte   N12 ,An3
 .byte   W12
 .byte   An4
 .byte   N12 ,An3
 .byte   W12
 .byte   Bn3
 .byte   W12
 .byte   An4
 .byte   N12 ,An3
 .byte   W12
 .byte   An3
 .byte   W12
 .byte   N12 ,An3 ,v100
 .byte   W12
@ 003   ----------------------------------------
 .byte   GOTO
  .word Label_0_011F441C
 .byte   FINE

@**************** Track 2 (Midi-Chn.1) ****************@

song35_002:
@ 000   ----------------------------------------
Label_1_011F45D8:
 .byte   KEYSH , song35_key+0
 .byte   VOICE , 75
 .byte   VOL , 42*song35_mvl/mxv
 .byte   TEMPO , 116*song35_tbs/2
 .byte   W96
@ 001   ----------------------------------------
 .byte   W96
@ 002   ----------------------------------------
Label_1_011F45E2:
 .byte   N18 ,Gn4 ,v100
 .byte   N18 ,Cn5
 .byte   W24
 .byte   N12 ,Gn4
 .byte   N12 ,Cn5
 .byte   W12
 .byte   Fn4
 .byte   N12 ,As4
 .byte   W12
 .byte   N18 ,Gn4
 .byte   N18 ,Cn5
 .byte   W24
 .byte   N12 ,Gn4
 .byte   N12 ,Cn5
 .byte   W12
 .byte   Fn4
 .byte   N12 ,As4
 .byte   W12
 .byte   PEND 
@ 003   ----------------------------------------
Label_1_011F4600:
 .byte   N12 ,Gn4 ,v100
 .byte   N12 ,Cn5
 .byte   W12
 .byte   Fn4
 .byte   N12 ,As4
 .byte   W12
 .byte   Dn4
 .byte   N12 ,Gn4
 .byte   W24
 .byte   N24 ,Dn4
 .byte   N24 ,Gn4
 .byte   W48
 .byte   PEND 
@ 004   ----------------------------------------
Label_1_011F4614:
 .byte   N18 ,Fn4 ,v100
 .byte   N18 ,As4
 .byte   W24
 .byte   N12 ,Fn4
 .byte   N12 ,As4
 .byte   W12
 .byte   Ds4
 .byte   N12 ,Gs4
 .byte   W12
 .byte   N18 ,Fn4
 .byte   N18 ,As4
 .byte   W24
 .byte   N12 ,Fn4
 .byte   N12 ,As4
 .byte   W12
 .byte   Ds4
 .byte   N12 ,Gs4
 .byte   W12
 .byte   PEND 
@ 005   ----------------------------------------
Label_1_011F4632:
 .byte   N12 ,Fn4 ,v100
 .byte   N12 ,As4
 .byte   W12
 .byte   Ds4
 .byte   N12 ,Gs4
 .byte   W12
 .byte   Cn4
 .byte   N12 ,Fn4
 .byte   W24
 .byte   N24 ,Cn4
 .byte   N24 ,Fn4
 .byte   W48
 .byte   PEND 
@ 006   ----------------------------------------
Label_1_011F4646:
 .byte   N18 ,Dn4 ,v100
 .byte   N18 ,Gn4
 .byte   W24
 .byte   N12 ,Dn4
 .byte   N12 ,Gn4
 .byte   W12
 .byte   Cn4
 .byte   N12 ,Fn4
 .byte   W12
 .byte   N18 ,Dn4
 .byte   N18 ,Gn4
 .byte   W24
 .byte   N12 ,Dn4
 .byte   N12 ,Gn4
 .byte   W12
 .byte   Cn4
 .byte   N12 ,Fn4
 .byte   W12
 .byte   PEND 
@ 007   ----------------------------------------
Label_1_011F4664:
 .byte   N12 ,Dn4 ,v100
 .byte   N12 ,Gn4
 .byte   W12
 .byte   Fn4
 .byte   N12 ,As4
 .byte   W12
 .byte   Dn4
 .byte   N12 ,Gn4
 .byte   W12
 .byte   Cn4
 .byte   N12 ,Fn4
 .byte   W12
 .byte   N24 ,Dn4
 .byte   N24 ,Gn4
 .byte   W48
 .byte   PEND 
@ 008   ----------------------------------------
Label_1_011F467C:
 .byte   N18 ,Fn4 ,v100
 .byte   N18 ,Cn4
 .byte   W24
 .byte   N12
 .byte   N12 ,Fn4
 .byte   W12
 .byte   As3
 .byte   N12 ,Ds4
 .byte   W12
 .byte   Cn4
 .byte   N12 ,Fn4
 .byte   W12
 .byte   As3
 .byte   N12 ,Ds4
 .byte   W12
 .byte   Cn4
 .byte   N12 ,Fn4
 .byte   W12
 .byte   Ds4
 .byte   N12 ,Gs4
 .byte   W12
 .byte   PEND 
@ 009   ----------------------------------------
Label_1_011F469B:
 .byte   N18 ,As4 ,v100
 .byte   N18 ,Fn4
 .byte   W24
 .byte   N12
 .byte   N12 ,As4
 .byte   W12
 .byte   Ds4
 .byte   N12 ,Gs4
 .byte   W12
 .byte   Fn4
 .byte   N12 ,As4
 .byte   W12
 .byte   Ds4
 .byte   N12 ,Gs4
 .byte   W12
 .byte   Fn4
 .byte   N12 ,As4
 .byte   W12
 .byte   Gn4
 .byte   N12 ,Cn5
 .byte   W12
 .byte   PEND 
@ 010   ----------------------------------------
Label_1_011F46BA:
 .byte   N18 ,Cn5 ,v100
 .byte   N18 ,Gn4
 .byte   W24
 .byte   N12
 .byte   N12 ,Cn5
 .byte   W12
 .byte   Fn4
 .byte   N12 ,As4
 .byte   W12
 .byte   N18 ,Cn5
 .byte   N18 ,Gn4
 .byte   W24
 .byte   N12
 .byte   N12 ,Cn5
 .byte   W12
 .byte   Fn4
 .byte   N12 ,As4
 .byte   W12
 .byte   PEND 
@ 011   ----------------------------------------
Label_1_011F46D6:
 .byte   N12 ,Gn4 ,v100
 .byte   N12 ,Cn5
 .byte   W12
 .byte   As4
 .byte   N12 ,Ds5
 .byte   W12
 .byte   Gn4
 .byte   N12 ,Cn5
 .byte   W12
 .byte   Fn4
 .byte   N12 ,As4
 .byte   W12
 .byte   N24 ,Gn4
 .byte   N24 ,Cn5
 .byte   W96
@ 012   ----------------------------------------
 .byte   W96
@ 013   ----------------------------------------
 .byte   W48
 .byte   PEND 
 .byte   PATT
  .word Label_1_011F45E2
 .byte   PATT
  .word Label_1_011F4600
 .byte   PATT
  .word Label_1_011F4614
 .byte   PATT
  .word Label_1_011F4632
 .byte   PATT
  .word Label_1_011F4646
 .byte   PATT
  .word Label_1_011F4664
 .byte   PATT
  .word Label_1_011F467C
 .byte   PATT
  .word Label_1_011F469B
 .byte   PATT
  .word Label_1_011F46BA
 .byte   PATT
  .word Label_1_011F46D6
 .byte   PATT
  .word Label_1_011F45E2
 .byte   PATT
  .word Label_1_011F4600
 .byte   PATT
  .word Label_1_011F4614
 .byte   PATT
  .word Label_1_011F4632
 .byte   PATT
  .word Label_1_011F4646
 .byte   PATT
  .word Label_1_011F4664
 .byte   PATT
  .word Label_1_011F467C
 .byte   PATT
  .word Label_1_011F469B
 .byte   PATT
  .word Label_1_011F46BA
 .byte   PATT
  .word Label_1_011F46D6
 .byte   PATT
  .word Label_1_011F45E2
 .byte   PATT
  .word Label_1_011F4600
 .byte   PATT
  .word Label_1_011F4614
 .byte   PATT
  .word Label_1_011F4632
 .byte   PATT
  .word Label_1_011F4646
 .byte   PATT
  .word Label_1_011F4664
 .byte   PATT
  .word Label_1_011F467C
 .byte   PATT
  .word Label_1_011F469B
 .byte   PATT
  .word Label_1_011F46BA
 .byte   PATT
  .word Label_1_011F46D6
 .byte   PATT
  .word Label_1_011F45E2
 .byte   PATT
  .word Label_1_011F4600
 .byte   PATT
  .word Label_1_011F4614
 .byte   PATT
  .word Label_1_011F4632
 .byte   PATT
  .word Label_1_011F4646
 .byte   PATT
  .word Label_1_011F4664
 .byte   PATT
  .word Label_1_011F467C
 .byte   PATT
  .word Label_1_011F469B
 .byte   PATT
  .word Label_1_011F46BA
 .byte   PATT
  .word Label_1_011F46D6
 .byte   PATT
  .word Label_1_011F45E2
 .byte   PATT
  .word Label_1_011F4600
 .byte   PATT
  .word Label_1_011F4614
 .byte   PATT
  .word Label_1_011F4632
 .byte   PATT
  .word Label_1_011F4646
 .byte   PATT
  .word Label_1_011F4664
 .byte   PATT
  .word Label_1_011F467C
 .byte   PATT
  .word Label_1_011F469B
 .byte   PATT
  .word Label_1_011F46BA
@ 014   ----------------------------------------
 .byte   N12 ,Gn4 ,v100
 .byte   N12 ,Cn5
 .byte   W12
 .byte   As4
 .byte   N12 ,Ds5
 .byte   W12
 .byte   Gn4
 .byte   N12 ,Cn5
 .byte   W12
 .byte   Fn4
 .byte   N12 ,As4
 .byte   W12
 .byte   N24 ,Gn4
 .byte   N24 ,Cn5
 .byte   W24
 .byte   W24
@ 015   ----------------------------------------
 .byte   GOTO
  .word Label_1_011F45D8
 .byte   FINE

@**************** Track 3 (Midi-Chn.2) ****************@

song35_003:
@ 000   ----------------------------------------
Label_2_011F4804:
 .byte   KEYSH , song35_key+0
 .byte   VOICE , 75
 .byte   VOL , 42*song35_mvl/mxv
 .byte   TEMPO , 116*song35_tbs/2
 .byte   W96
@ 001   ----------------------------------------
 .byte   W96
@ 002   ----------------------------------------
 .byte   W96
@ 003   ----------------------------------------
 .byte   W96
@ 004   ----------------------------------------
 .byte   W96
@ 005   ----------------------------------------
 .byte   W96
@ 006   ----------------------------------------
 .byte   W96
@ 007   ----------------------------------------
 .byte   W96
@ 008   ----------------------------------------
 .byte   W96
@ 009   ----------------------------------------
 .byte   W96
@ 010   ----------------------------------------
 .byte   W96
@ 011   ----------------------------------------
 .byte   W96
@ 012   ----------------------------------------
Label_2_011F4818:
 .byte   N24 ,Cn1 ,v100
 .byte   W48
 .byte   Gn0
 .byte   W48
 .byte   PEND 
@ 013   ----------------------------------------
Label_2_011F481F:
 .byte   N24 ,Cn1 ,v100
 .byte   W48
 .byte   Gn0
 .byte   W24
 .byte   As0
 .byte   W24
 .byte   PEND 
 .byte   PATT
  .word Label_2_011F4818
@ 014   ----------------------------------------
Label_2_011F482D:
 .byte   N24 ,Cn1 ,v100
 .byte   W48
 .byte   N18 ,Gn0
 .byte   W24
 .byte   N24 ,Cn1
 .byte   W24
 .byte   PEND 
@ 015   ----------------------------------------
Label_2_011F4838:
 .byte   N24 ,As0 ,v100
 .byte   W48
 .byte   Fn0
 .byte   W48
 .byte   PEND 
@ 016   ----------------------------------------
Label_2_011F483F:
 .byte   N24 ,As0 ,v100
 .byte   W48
 .byte   N18 ,Fn0
 .byte   W24
 .byte   N24 ,As0
 .byte   W24
 .byte   PEND 
@ 017   ----------------------------------------
Label_2_011F484A:
 .byte   N24 ,Gn0 ,v100
 .byte   W48
 .byte   Gn0
 .byte   W48
 .byte   PEND 
@ 018   ----------------------------------------
Label_2_011F4851:
 .byte   N24 ,Gn0 ,v100
 .byte   W48
 .byte   Gn0
 .byte   W24
 .byte   Fs0
 .byte   W24
 .byte   PEND 
@ 019   ----------------------------------------
Label_2_011F485A:
 .byte   N24 ,Fn0 ,v100
 .byte   W48
 .byte   Fn0
 .byte   W48
 .byte   PEND 
@ 020   ----------------------------------------
Label_2_011F4861:
 .byte   N24 ,As0 ,v100
 .byte   W48
 .byte   As0
 .byte   W24
 .byte   Gn0
 .byte   W24
 .byte   PEND 
 .byte   PATT
  .word Label_2_011F4818
@ 021   ----------------------------------------
Label_2_011F486F:
 .byte   N18 ,Cn1 ,v100
 .byte   W24
 .byte   Gn0
 .byte   W24
 .byte   N24 ,Cn1
 .byte   W96
@ 022   ----------------------------------------
 .byte   W96
@ 023   ----------------------------------------
 .byte   W96
@ 024   ----------------------------------------
 .byte   W96
@ 025   ----------------------------------------
 .byte   W96
@ 026   ----------------------------------------
 .byte   W96
@ 027   ----------------------------------------
 .byte   W96
@ 028   ----------------------------------------
 .byte   W96
@ 029   ----------------------------------------
 .byte   W96
@ 030   ----------------------------------------
 .byte   W96
@ 031   ----------------------------------------
 .byte   W96
@ 032   ----------------------------------------
 .byte   W96
@ 033   ----------------------------------------
 .byte   W48
 .byte   PEND 
 .byte   PATT
  .word Label_2_011F4818
 .byte   PATT
  .word Label_2_011F481F
 .byte   PATT
  .word Label_2_011F4818
 .byte   PATT
  .word Label_2_011F482D
 .byte   PATT
  .word Label_2_011F4838
 .byte   PATT
  .word Label_2_011F483F
 .byte   PATT
  .word Label_2_011F484A
 .byte   PATT
  .word Label_2_011F4851
 .byte   PATT
  .word Label_2_011F485A
 .byte   PATT
  .word Label_2_011F4861
 .byte   PATT
  .word Label_2_011F4818
 .byte   PATT
  .word Label_2_011F486F
 .byte   PATT
  .word Label_2_011F4818
 .byte   PATT
  .word Label_2_011F481F
 .byte   PATT
  .word Label_2_011F4818
 .byte   PATT
  .word Label_2_011F482D
 .byte   PATT
  .word Label_2_011F4838
 .byte   PATT
  .word Label_2_011F483F
 .byte   PATT
  .word Label_2_011F484A
 .byte   PATT
  .word Label_2_011F4851
 .byte   PATT
  .word Label_2_011F485A
 .byte   PATT
  .word Label_2_011F4861
 .byte   PATT
  .word Label_2_011F4818
@ 034   ----------------------------------------
 .byte   N18 ,Cn1 ,v100
 .byte   W24
 .byte   Gn0
 .byte   W24
 .byte   N24 ,Cn1
 .byte   W24
 .byte   W24
@ 035   ----------------------------------------
 .byte   GOTO
  .word Label_2_011F4804
 .byte   FINE

@**************** Track 4 (Midi-Chn.3) ****************@

song35_004:
@ 000   ----------------------------------------
Label_3_011F4908:
 .byte   KEYSH , song35_key+0
 .byte   VOICE , 32
 .byte   VOL , 57*song35_mvl/mxv
 .byte   TEMPO , 116*song35_tbs/2
 .byte   W96
@ 001   ----------------------------------------
 .byte   W96
@ 002   ----------------------------------------
 .byte   W96
@ 003   ----------------------------------------
 .byte   W96
@ 004   ----------------------------------------
 .byte   W96
@ 005   ----------------------------------------
 .byte   W96
@ 006   ----------------------------------------
 .byte   W96
@ 007   ----------------------------------------
 .byte   W96
@ 008   ----------------------------------------
 .byte   W96
@ 009   ----------------------------------------
 .byte   W96
@ 010   ----------------------------------------
 .byte   W96
@ 011   ----------------------------------------
 .byte   W96
@ 012   ----------------------------------------
 .byte   W96
@ 013   ----------------------------------------
 .byte   W96
@ 014   ----------------------------------------
Label_3_011F491E:
 .byte   N18 ,Gn3 ,v100
 .byte   N18 ,Cn4
 .byte   W24
 .byte   N12 ,Gn3
 .byte   N12 ,Cn4
 .byte   W12
 .byte   Fn3
 .byte   N12 ,As3
 .byte   W12
 .byte   N18 ,Gn3
 .byte   N18 ,Cn4
 .byte   W24
 .byte   N12 ,Gn3
 .byte   N12 ,Cn4
 .byte   W12
 .byte   Fn3
 .byte   N12 ,As3
 .byte   W12
 .byte   PEND 
@ 015   ----------------------------------------
Label_3_011F493C:
 .byte   N12 ,Gn3 ,v100
 .byte   N12 ,Cn4
 .byte   W12
 .byte   Fn3
 .byte   N12 ,As3
 .byte   W12
 .byte   Dn3
 .byte   N12 ,Gn3
 .byte   W24
 .byte   N24 ,Dn3
 .byte   N24 ,Gn3
 .byte   W48
 .byte   PEND 
@ 016   ----------------------------------------
Label_3_011F4950:
 .byte   N18 ,Fn3 ,v100
 .byte   N18 ,As3
 .byte   W24
 .byte   N12 ,Fn3
 .byte   N12 ,As3
 .byte   W12
 .byte   Ds3
 .byte   N12 ,Gs3
 .byte   W12
 .byte   N18 ,Fn3
 .byte   N18 ,As3
 .byte   W24
 .byte   N12 ,Fn3
 .byte   N12 ,As3
 .byte   W12
 .byte   Ds3
 .byte   N12 ,Gs3
 .byte   W12
 .byte   PEND 
@ 017   ----------------------------------------
Label_3_011F496E:
 .byte   N12 ,Fn3 ,v100
 .byte   N12 ,As3
 .byte   W12
 .byte   Ds3
 .byte   N12 ,Gs3
 .byte   W12
 .byte   Cn3
 .byte   N12 ,Fn3
 .byte   W24
 .byte   N24 ,Cn3
 .byte   N24 ,Fn3
 .byte   W48
 .byte   PEND 
@ 018   ----------------------------------------
Label_3_011F4982:
 .byte   N18 ,Dn3 ,v100
 .byte   N18 ,Gn3
 .byte   W24
 .byte   N12 ,Dn3
 .byte   N12 ,Gn3
 .byte   W12
 .byte   Cn3
 .byte   N12 ,Fn3
 .byte   W12
 .byte   N18 ,Dn3
 .byte   N18 ,Gn3
 .byte   W24
 .byte   N12 ,Dn3
 .byte   N12 ,Gn3
 .byte   W12
 .byte   Cn3
 .byte   N12 ,Fn3
 .byte   W12
 .byte   PEND 
@ 019   ----------------------------------------
Label_3_011F49A0:
 .byte   N12 ,Dn3 ,v100
 .byte   N12 ,Gn3
 .byte   W12
 .byte   Fn3
 .byte   N12 ,As3
 .byte   W12
 .byte   Dn3
 .byte   N12 ,Gn3
 .byte   W12
 .byte   Cn3
 .byte   N12 ,Fn3
 .byte   W12
 .byte   N24 ,Dn3
 .byte   N24 ,Gn3
 .byte   W48
 .byte   PEND 
@ 020   ----------------------------------------
Label_3_011F49B8:
 .byte   N18 ,Fn3 ,v100
 .byte   N18 ,Cn3
 .byte   W24
 .byte   N12
 .byte   N12 ,Fn3
 .byte   W12
 .byte   As2
 .byte   N12 ,Ds3
 .byte   W12
 .byte   Cn3
 .byte   N12 ,Fn3
 .byte   W12
 .byte   As2
 .byte   N12 ,Ds3
 .byte   W12
 .byte   Cn3
 .byte   N12 ,Fn3
 .byte   W12
 .byte   Ds3
 .byte   N12 ,Gs3
 .byte   W12
 .byte   PEND 
@ 021   ----------------------------------------
Label_3_011F49D7:
 .byte   N18 ,As3 ,v100
 .byte   N18 ,Fn3
 .byte   W24
 .byte   N12
 .byte   N12 ,As3
 .byte   W12
 .byte   Ds3
 .byte   N12 ,Gs3
 .byte   W12
 .byte   Fn3
 .byte   N12 ,As3
 .byte   W12
 .byte   Ds3
 .byte   N12 ,Gs3
 .byte   W12
 .byte   Fn3
 .byte   N12 ,As3
 .byte   W12
 .byte   Gn3
 .byte   N12 ,Cn4
 .byte   W12
 .byte   PEND 
@ 022   ----------------------------------------
Label_3_011F49F6:
 .byte   N18 ,Cn4 ,v100
 .byte   N18 ,Gn3
 .byte   W24
 .byte   N12
 .byte   N12 ,Cn4
 .byte   W12
 .byte   Fn3
 .byte   N12 ,As3
 .byte   W12
 .byte   N18 ,Cn4
 .byte   N18 ,Gn3
 .byte   W24
 .byte   N12
 .byte   N12 ,Cn4
 .byte   W12
 .byte   Fn3
 .byte   N12 ,As3
 .byte   W12
 .byte   PEND 
@ 023   ----------------------------------------
Label_3_011F4A12:
 .byte   N12 ,Gn3 ,v100
 .byte   N12 ,Cn4
 .byte   W12
 .byte   As3
 .byte   N12 ,Ds4
 .byte   W12
 .byte   Gn3
 .byte   N12 ,Cn4
 .byte   W12
 .byte   Fn3
 .byte   N12 ,As3
 .byte   W12
 .byte   N24 ,Gn3
 .byte   N24 ,Cn4
 .byte   W96
@ 024   ----------------------------------------
 .byte   W96
@ 025   ----------------------------------------
 .byte   W96
@ 026   ----------------------------------------
 .byte   W96
@ 027   ----------------------------------------
 .byte   W96
@ 028   ----------------------------------------
 .byte   W96
@ 029   ----------------------------------------
 .byte   W96
@ 030   ----------------------------------------
 .byte   W96
@ 031   ----------------------------------------
 .byte   W96
@ 032   ----------------------------------------
 .byte   W96
@ 033   ----------------------------------------
 .byte   W96
@ 034   ----------------------------------------
 .byte   W96
@ 035   ----------------------------------------
 .byte   W96
@ 036   ----------------------------------------
 .byte   W96
@ 037   ----------------------------------------
 .byte   W48
 .byte   PEND 
 .byte   PATT
  .word Label_3_011F491E
 .byte   PATT
  .word Label_3_011F493C
 .byte   PATT
  .word Label_3_011F4950
 .byte   PATT
  .word Label_3_011F496E
 .byte   PATT
  .word Label_3_011F4982
 .byte   PATT
  .word Label_3_011F49A0
 .byte   PATT
  .word Label_3_011F49B8
 .byte   PATT
  .word Label_3_011F49D7
 .byte   PATT
  .word Label_3_011F49F6
 .byte   PATT
  .word Label_3_011F4A12
 .byte   PATT
  .word Label_3_011F491E
 .byte   PATT
  .word Label_3_011F493C
 .byte   PATT
  .word Label_3_011F4950
 .byte   PATT
  .word Label_3_011F496E
 .byte   PATT
  .word Label_3_011F4982
 .byte   PATT
  .word Label_3_011F49A0
 .byte   PATT
  .word Label_3_011F49B8
 .byte   PATT
  .word Label_3_011F49D7
 .byte   PATT
  .word Label_3_011F49F6
@ 038   ----------------------------------------
 .byte   N12 ,Gn3 ,v100
 .byte   N12 ,Cn4
 .byte   W12
 .byte   As3
 .byte   N12 ,Ds4
 .byte   W12
 .byte   Gn3
 .byte   N12 ,Cn4
 .byte   W12
 .byte   Fn3
 .byte   N12 ,As3
 .byte   W12
 .byte   N24 ,Gn3
 .byte   N24 ,Cn4
 .byte   W24
 .byte   W24
@ 039   ----------------------------------------
 .byte   GOTO
  .word Label_3_011F4908
 .byte   FINE

@**************** Track 5 (Midi-Chn.4) ****************@

song35_005:
@ 000   ----------------------------------------
Label_4_011F4AB8:
 .byte   VOL , 30*song35_mvl/mxv
 .byte   KEYSH , song35_key+0
 .byte   VOICE , 11
 .byte   N24 ,An3 ,v100
 .byte   TEMPO , 116*song35_tbs/2
 .byte   W24
 .byte   N12 ,An3 ,v100
 .byte   W12
 .byte   An3
 .byte   W24
 .byte   An3
 .byte   W36
@ 001   ----------------------------------------
Label_4_011F4ACC:
 .byte   N12 ,An3 ,v100
 .byte   W24
 .byte   An3
 .byte   W12
 .byte   An3
 .byte   W24
 .byte   An3
 .byte   W36
 .byte   PEND 
@ 002   ----------------------------------------
Label_4_011F4AD7:
 .byte   N24 ,An3 ,v100
 .byte   W24
 .byte   N12
 .byte   W12
 .byte   An3
 .byte   W24
 .byte   An3
 .byte   W36
 .byte   PEND 
 .byte   PATT
  .word Label_4_011F4ACC
 .byte   PATT
  .word Label_4_011F4AD7
 .byte   PATT
  .word Label_4_011F4ACC
 .byte   PATT
  .word Label_4_011F4AD7
 .byte   PATT
  .word Label_4_011F4ACC
 .byte   PATT
  .word Label_4_011F4AD7
 .byte   PATT
  .word Label_4_011F4ACC
 .byte   PATT
  .word Label_4_011F4AD7
 .byte   PATT
  .word Label_4_011F4ACC
 .byte   PATT
  .word Label_4_011F4AD7
 .byte   PATT
  .word Label_4_011F4ACC
 .byte   PATT
  .word Label_4_011F4AD7
 .byte   PATT
  .word Label_4_011F4ACC
 .byte   PATT
  .word Label_4_011F4AD7
 .byte   PATT
  .word Label_4_011F4ACC
 .byte   PATT
  .word Label_4_011F4AD7
 .byte   PATT
  .word Label_4_011F4ACC
 .byte   PATT
  .word Label_4_011F4AD7
 .byte   PATT
  .word Label_4_011F4ACC
 .byte   PATT
  .word Label_4_011F4AD7
 .byte   PATT
  .word Label_4_011F4ACC
 .byte   PATT
  .word Label_4_011F4AD7
 .byte   PATT
  .word Label_4_011F4ACC
 .byte   PATT
  .word Label_4_011F4AD7
 .byte   PATT
  .word Label_4_011F4ACC
 .byte   PATT
  .word Label_4_011F4AD7
 .byte   PATT
  .word Label_4_011F4ACC
 .byte   PATT
  .word Label_4_011F4AD7
 .byte   PATT
  .word Label_4_011F4ACC
 .byte   PATT
  .word Label_4_011F4AD7
 .byte   PATT
  .word Label_4_011F4ACC
 .byte   PATT
  .word Label_4_011F4AD7
 .byte   PATT
  .word Label_4_011F4ACC
 .byte   PATT
  .word Label_4_011F4AD7
 .byte   PATT
  .word Label_4_011F4ACC
 .byte   PATT
  .word Label_4_011F4AD7
 .byte   PATT
  .word Label_4_011F4ACC
 .byte   PATT
  .word Label_4_011F4AD7
 .byte   PATT
  .word Label_4_011F4ACC
 .byte   PATT
  .word Label_4_011F4AD7
 .byte   PATT
  .word Label_4_011F4ACC
 .byte   PATT
  .word Label_4_011F4AD7
 .byte   PATT
  .word Label_4_011F4ACC
 .byte   PATT
  .word Label_4_011F4AD7
 .byte   PATT
  .word Label_4_011F4ACC
 .byte   PATT
  .word Label_4_011F4AD7
 .byte   PATT
  .word Label_4_011F4ACC
 .byte   PATT
  .word Label_4_011F4AD7
 .byte   PATT
  .word Label_4_011F4ACC
 .byte   PATT
  .word Label_4_011F4AD7
 .byte   PATT
  .word Label_4_011F4ACC
 .byte   PATT
  .word Label_4_011F4AD7
 .byte   PATT
  .word Label_4_011F4ACC
 .byte   PATT
  .word Label_4_011F4AD7
 .byte   PATT
  .word Label_4_011F4ACC
 .byte   PATT
  .word Label_4_011F4AD7
 .byte   PATT
  .word Label_4_011F4ACC
 .byte   PATT
  .word Label_4_011F4AD7
 .byte   PATT
  .word Label_4_011F4ACC
 .byte   PATT
  .word Label_4_011F4AD7
 .byte   PATT
  .word Label_4_011F4ACC
 .byte   PATT
  .word Label_4_011F4AD7
 .byte   PATT
  .word Label_4_011F4ACC
 .byte   PATT
  .word Label_4_011F4AD7
 .byte   PATT
  .word Label_4_011F4ACC
 .byte   PATT
  .word Label_4_011F4AD7
 .byte   PATT
  .word Label_4_011F4ACC
 .byte   PATT
  .word Label_4_011F4AD7
@ 003   ----------------------------------------
 .byte   N12 ,An3 ,v100
 .byte   W24
 .byte   An3
 .byte   W12
 .byte   An3
 .byte   W24
 .byte   An3
 .byte   W12
 .byte   W24
@ 004   ----------------------------------------
 .byte   GOTO
  .word Label_4_011F4AB8
 .byte   FINE

@**************** Track 6 (Midi-Chn.5) ****************@

song35_006:
@ 000   ----------------------------------------
Label_5_011F4C48:
 .byte   KEYSH , song35_key+0
 .byte   VOICE , 67
 .byte   VOL , 42*song35_mvl/mxv
 .byte   TEMPO , 116*song35_tbs/2
 .byte   W96
@ 001   ----------------------------------------
 .byte   W96
@ 002   ----------------------------------------
 .byte   W96
@ 003   ----------------------------------------
 .byte   W96
@ 004   ----------------------------------------
 .byte   W96
@ 005   ----------------------------------------
 .byte   W96
@ 006   ----------------------------------------
 .byte   W96
@ 007   ----------------------------------------
 .byte   W96
@ 008   ----------------------------------------
 .byte   W96
@ 009   ----------------------------------------
 .byte   W96
@ 010   ----------------------------------------
 .byte   W96
@ 011   ----------------------------------------
 .byte   W96
@ 012   ----------------------------------------
Label_5_011F4C5C:
 .byte   N24 ,Cn1 ,v100
 .byte   W48
 .byte   Gn0
 .byte   W48
 .byte   PEND 
@ 013   ----------------------------------------
Label_5_011F4C63:
 .byte   N24 ,Cn1 ,v100
 .byte   W48
 .byte   Gn0
 .byte   W24
 .byte   As0
 .byte   W24
 .byte   PEND 
 .byte   PATT
  .word Label_5_011F4C5C
@ 014   ----------------------------------------
Label_5_011F4C71:
 .byte   N24 ,Cn1 ,v100
 .byte   W48
 .byte   N18 ,Gn0
 .byte   W24
 .byte   N24 ,Cn1
 .byte   W24
 .byte   PEND 
@ 015   ----------------------------------------
Label_5_011F4C7C:
 .byte   N24 ,As0 ,v100
 .byte   W48
 .byte   Fn0
 .byte   W48
 .byte   PEND 
@ 016   ----------------------------------------
Label_5_011F4C83:
 .byte   N24 ,As0 ,v100
 .byte   W48
 .byte   N18 ,Fn0
 .byte   W24
 .byte   N24 ,As0
 .byte   W24
 .byte   PEND 
@ 017   ----------------------------------------
Label_5_011F4C8E:
 .byte   N24 ,Gn0 ,v100
 .byte   W48
 .byte   Gn0
 .byte   W48
 .byte   PEND 
@ 018   ----------------------------------------
Label_5_011F4C95:
 .byte   N24 ,Gn0 ,v100
 .byte   W48
 .byte   Gn0
 .byte   W24
 .byte   Fs0
 .byte   W24
 .byte   PEND 
@ 019   ----------------------------------------
Label_5_011F4C9E:
 .byte   N24 ,Fn0 ,v100
 .byte   W48
 .byte   Fn0
 .byte   W48
 .byte   PEND 
@ 020   ----------------------------------------
Label_5_011F4CA5:
 .byte   N24 ,As0 ,v100
 .byte   W48
 .byte   As0
 .byte   W24
 .byte   Gn0
 .byte   W24
 .byte   PEND 
 .byte   PATT
  .word Label_5_011F4C5C
@ 021   ----------------------------------------
Label_5_011F4CB3:
 .byte   N18 ,Cn1 ,v100
 .byte   W24
 .byte   Gn0
 .byte   W24
 .byte   N24 ,Cn1
 .byte   W96
@ 022   ----------------------------------------
 .byte   W96
@ 023   ----------------------------------------
 .byte   W96
@ 024   ----------------------------------------
 .byte   W96
@ 025   ----------------------------------------
 .byte   W96
@ 026   ----------------------------------------
 .byte   W96
@ 027   ----------------------------------------
 .byte   W96
@ 028   ----------------------------------------
 .byte   W96
@ 029   ----------------------------------------
 .byte   W96
@ 030   ----------------------------------------
 .byte   W96
@ 031   ----------------------------------------
 .byte   W96
@ 032   ----------------------------------------
 .byte   W96
@ 033   ----------------------------------------
 .byte   W48
 .byte   PEND 
 .byte   PATT
  .word Label_5_011F4C5C
 .byte   PATT
  .word Label_5_011F4C63
 .byte   PATT
  .word Label_5_011F4C5C
 .byte   PATT
  .word Label_5_011F4C71
 .byte   PATT
  .word Label_5_011F4C7C
 .byte   PATT
  .word Label_5_011F4C83
 .byte   PATT
  .word Label_5_011F4C8E
 .byte   PATT
  .word Label_5_011F4C95
 .byte   PATT
  .word Label_5_011F4C9E
 .byte   PATT
  .word Label_5_011F4CA5
 .byte   PATT
  .word Label_5_011F4C5C
 .byte   PATT
  .word Label_5_011F4CB3
 .byte   PATT
  .word Label_5_011F4C5C
 .byte   PATT
  .word Label_5_011F4C63
 .byte   PATT
  .word Label_5_011F4C5C
 .byte   PATT
  .word Label_5_011F4C71
 .byte   PATT
  .word Label_5_011F4C7C
 .byte   PATT
  .word Label_5_011F4C83
 .byte   PATT
  .word Label_5_011F4C8E
 .byte   PATT
  .word Label_5_011F4C95
 .byte   PATT
  .word Label_5_011F4C9E
 .byte   PATT
  .word Label_5_011F4CA5
 .byte   PATT
  .word Label_5_011F4C5C
@ 034   ----------------------------------------
 .byte   N18 ,Cn1 ,v100
 .byte   W24
 .byte   Gn0
 .byte   W24
 .byte   N24 ,Cn1
 .byte   W24
 .byte   W24
@ 035   ----------------------------------------
 .byte   GOTO
  .word Label_5_011F4C48
 .byte   FINE

@******************************************************@
	.align	2

song35:
	.byte	6	@ NumTrks
	.byte	0	@ NumBlks
	.byte	song35_pri	@ Priority
	.byte	song35_rev	@ Reverb.
    
	.word	song35_grp
    
	.word	song35_001
	.word	song35_002
	.word	song35_003
	.word	song35_004
	.word	song35_005
	.word	song35_006

	.end
