	.include "MPlayDef.s"

	.equ	SpoopHouse_grp, voicegroup000
	.equ	SpoopHouse_pri, 0
	.equ	SpoopHouse_rev, 0
	.equ	SpoopHouse_mvl, 80
	.equ	SpoopHouse_key, 0
	.equ	SpoopHouse_tbs, 1
	.equ	SpoopHouse_exg, 0
	.equ	SpoopHouse_cmp, 1

	.section .rodata
	.global	SpoopHouse
	.align	2

@**************** Track 1 (Midi-Chn.1) ****************@

SpoopHouse_1:
	.byte	KEYSH , SpoopHouse_key+0
@ 000   ----------------------------------------
	.byte	TEMPO , 130*SpoopHouse_tbs/2
	.byte		VOICE , 47
	.byte		VOL   , 100*SpoopHouse_mvl/mxv
	.byte	W96
@ 001   ----------------------------------------
	.byte	W96
@ 002   ----------------------------------------
	.byte	W96
@ 003   ----------------------------------------
	.byte	W96
@ 004   ----------------------------------------
	.byte	W96
@ 005   ----------------------------------------
	.byte	W96
@ 006   ----------------------------------------
SpoopHouse_1_006:
	.byte	W72
	.byte	W03
	.byte		N03   , Cn3 , v012
	.byte	W03
	.byte		        Cn3 , v024
	.byte	W03
	.byte		N01   , Cn3 , v048
	.byte	W03
	.byte		        Cn3 , v064
	.byte	W03
	.byte		        Cn3 , v084
	.byte	W03
	.byte		        Cn3 , v108
	.byte	W03
	.byte		        Cn3 , v127
	.byte	W03
	.byte	PEND
SpoopHouse_1_B1:
@ 007   ----------------------------------------
	.byte		N01   , Cn3 , v127
	.byte	W96
@ 008   ----------------------------------------
	.byte	PATT
	 .word	SpoopHouse_1_006
@ 009   ----------------------------------------
	.byte		N01   , Cn3 , v127
	.byte	W96
@ 010   ----------------------------------------
	.byte	W96
@ 011   ----------------------------------------
	.byte	W96
@ 012   ----------------------------------------
	.byte	W96
@ 013   ----------------------------------------
	.byte	W96
@ 014   ----------------------------------------
	.byte	W96
@ 015   ----------------------------------------
	.byte	W96
@ 016   ----------------------------------------
	.byte	PATT
	 .word	SpoopHouse_1_006
@ 017   ----------------------------------------
	.byte		N01   , Cn3 , v127
	.byte	W96
@ 018   ----------------------------------------
	.byte	W96
@ 019   ----------------------------------------
	.byte	W96
@ 020   ----------------------------------------
	.byte	W96
@ 021   ----------------------------------------
	.byte	W96
@ 022   ----------------------------------------
	.byte	W96
@ 023   ----------------------------------------
	.byte	W96
@ 024   ----------------------------------------
	.byte	PATT
	 .word	SpoopHouse_1_006
@ 025   ----------------------------------------
	.byte		N01   , Cn3 , v127
	.byte	W96
@ 026   ----------------------------------------
	.byte	W96
@ 027   ----------------------------------------
	.byte	W96
@ 028   ----------------------------------------
	.byte	W96
@ 029   ----------------------------------------
	.byte	W96
@ 030   ----------------------------------------
	.byte	W96
@ 031   ----------------------------------------
	.byte	W96
@ 032   ----------------------------------------
	.byte	PATT
	 .word	SpoopHouse_1_006
@ 033   ----------------------------------------
	.byte		N01   , Cn3 , v127
	.byte	W96
@ 034   ----------------------------------------
	.byte	W96
@ 035   ----------------------------------------
	.byte	W96
@ 036   ----------------------------------------
	.byte	PATT
	 .word	SpoopHouse_1_006
@ 037   ----------------------------------------
	.byte		N52   , Cs3 , v127
	.byte	W96
@ 038   ----------------------------------------
SpoopHouse_1_038:
	.byte	W72
	.byte	W03
	.byte		N03   , Cs3 , v012
	.byte	W03
	.byte		        Cs3 , v024
	.byte	W03
	.byte		N01   , Cs3 , v048
	.byte	W03
	.byte		        Cs3 , v064
	.byte	W03
	.byte		        Cs3 , v084
	.byte	W03
	.byte		        Cs3 , v108
	.byte	W03
	.byte		        Cs3 , v127
	.byte	W03
	.byte	PEND
@ 039   ----------------------------------------
	.byte		N01   
	.byte	W96
@ 040   ----------------------------------------
	.byte	W96
@ 041   ----------------------------------------
	.byte	W96
@ 042   ----------------------------------------
	.byte	W96
@ 043   ----------------------------------------
	.byte	W96
@ 044   ----------------------------------------
	.byte	W96
@ 045   ----------------------------------------
	.byte	W96
@ 046   ----------------------------------------
	.byte	PATT
	 .word	SpoopHouse_1_038
@ 047   ----------------------------------------
	.byte		N01   , Cs3 , v127
	.byte	W96
@ 048   ----------------------------------------
	.byte	W96
@ 049   ----------------------------------------
	.byte	W96
@ 050   ----------------------------------------
	.byte	W96
@ 051   ----------------------------------------
	.byte	W96
@ 052   ----------------------------------------
	.byte	W96
@ 053   ----------------------------------------
	.byte	W96
@ 054   ----------------------------------------
	.byte	PATT
	 .word	SpoopHouse_1_038
@ 055   ----------------------------------------
	.byte		N01   , Cs3 , v127
	.byte	W96
@ 056   ----------------------------------------
	.byte	W96
@ 057   ----------------------------------------
	.byte	W96
@ 058   ----------------------------------------
	.byte	PATT
	 .word	SpoopHouse_1_038
@ 059   ----------------------------------------
	.byte		N01   , Cs3 , v127
	.byte	W96
@ 060   ----------------------------------------
	.byte	PATT
	 .word	SpoopHouse_1_038
@ 061   ----------------------------------------
	.byte		N01   , Cs3 , v127
	.byte	W96
@ 062   ----------------------------------------
	.byte	PATT
	 .word	SpoopHouse_1_038
@ 063   ----------------------------------------
	.byte		N01   , Cs3 , v120
	.byte	W96
@ 064   ----------------------------------------
	.byte		N88   , Cn3 
	.byte	W96
@ 065   ----------------------------------------
	.byte		N90   , Bn2 
	.byte	W96
@ 066   ----------------------------------------
	.byte		N92   , As2 
	.byte	W96
@ 067   ----------------------------------------
	.byte		N44   , En2 
	.byte	W48
	.byte		        Fn2 
	.byte	W48
@ 068   ----------------------------------------
	.byte		        Fs2 
	.byte	W48
	.byte		N28   , Gn2 
	.byte	W24
	.byte	W03
	.byte		N03   , Cn3 , v004
	.byte	W03
	.byte		        Cn3 , v016
	.byte	W03
	.byte		N01   , Cn3 , v036
	.byte	W03
	.byte		        Cn3 , v052
	.byte	W03
	.byte		        Cn3 , v076
	.byte	W03
	.byte		        Cn3 , v096
	.byte	W03
	.byte		        Cn3 , v116
	.byte	W03
	.byte	GOTO
	 .word	SpoopHouse_1_B1
SpoopHouse_1_B2:
@ 069   ----------------------------------------
	.byte	FINE

@**************** Track 2 (Midi-Chn.2) ****************@

SpoopHouse_2:
	.byte	KEYSH , SpoopHouse_key+0
@ 000   ----------------------------------------
	.byte		VOICE , 127
	.byte		VOL   , 102*SpoopHouse_mvl/mxv
	.byte	W96
@ 001   ----------------------------------------
	.byte	W96
@ 002   ----------------------------------------
	.byte	W96
@ 003   ----------------------------------------
	.byte	W96
@ 004   ----------------------------------------
	.byte	W96
@ 005   ----------------------------------------
	.byte	W96
@ 006   ----------------------------------------
	.byte	W96
SpoopHouse_2_B1:
@ 007   ----------------------------------------
	.byte		N60   , Cs2 , v127
	.byte	W96
@ 008   ----------------------------------------
	.byte	W96
@ 009   ----------------------------------------
	.byte		N60   
	.byte	W96
@ 010   ----------------------------------------
	.byte	W96
@ 011   ----------------------------------------
	.byte	W96
@ 012   ----------------------------------------
	.byte	W96
@ 013   ----------------------------------------
	.byte	W96
@ 014   ----------------------------------------
	.byte	W96
@ 015   ----------------------------------------
	.byte	W96
@ 016   ----------------------------------------
	.byte	W96
@ 017   ----------------------------------------
	.byte		N60   
	.byte	W96
@ 018   ----------------------------------------
	.byte	W96
@ 019   ----------------------------------------
	.byte	W96
@ 020   ----------------------------------------
	.byte	W96
@ 021   ----------------------------------------
	.byte	W96
@ 022   ----------------------------------------
	.byte	W96
@ 023   ----------------------------------------
	.byte	W96
@ 024   ----------------------------------------
	.byte	W96
@ 025   ----------------------------------------
	.byte		N60   
	.byte	W96
@ 026   ----------------------------------------
	.byte	W96
@ 027   ----------------------------------------
	.byte	W96
@ 028   ----------------------------------------
	.byte	W96
@ 029   ----------------------------------------
	.byte	W96
@ 030   ----------------------------------------
	.byte	W96
@ 031   ----------------------------------------
	.byte	W96
@ 032   ----------------------------------------
	.byte	W96
@ 033   ----------------------------------------
	.byte		N60   
	.byte	W96
@ 034   ----------------------------------------
	.byte	W96
@ 035   ----------------------------------------
	.byte	W96
@ 036   ----------------------------------------
	.byte	W96
@ 037   ----------------------------------------
	.byte		N60   
	.byte	W96
@ 038   ----------------------------------------
	.byte	W96
@ 039   ----------------------------------------
	.byte		N60   
	.byte	W96
@ 040   ----------------------------------------
	.byte	W96
@ 041   ----------------------------------------
	.byte	W96
@ 042   ----------------------------------------
	.byte	W96
@ 043   ----------------------------------------
	.byte	W96
@ 044   ----------------------------------------
	.byte	W96
@ 045   ----------------------------------------
	.byte	W96
@ 046   ----------------------------------------
	.byte	W96
@ 047   ----------------------------------------
	.byte		N60   
	.byte	W96
@ 048   ----------------------------------------
	.byte	W96
@ 049   ----------------------------------------
	.byte	W96
@ 050   ----------------------------------------
	.byte	W96
@ 051   ----------------------------------------
	.byte	W96
@ 052   ----------------------------------------
	.byte	W96
@ 053   ----------------------------------------
	.byte	W96
@ 054   ----------------------------------------
	.byte	W96
@ 055   ----------------------------------------
	.byte		N60   
	.byte	W96
@ 056   ----------------------------------------
	.byte	W96
@ 057   ----------------------------------------
	.byte	W96
@ 058   ----------------------------------------
	.byte	W96
@ 059   ----------------------------------------
	.byte		N60   
	.byte	W96
@ 060   ----------------------------------------
	.byte	W96
@ 061   ----------------------------------------
	.byte		N60   
	.byte	W96
@ 062   ----------------------------------------
	.byte	W96
@ 063   ----------------------------------------
	.byte		        Cs2 , v124
	.byte	W96
@ 064   ----------------------------------------
	.byte		N60   
	.byte	W96
@ 065   ----------------------------------------
	.byte		N60   
	.byte	W96
@ 066   ----------------------------------------
	.byte		N60   
	.byte	W96
@ 067   ----------------------------------------
SpoopHouse_2_067:
	.byte		N44   , Cs2 , v124
	.byte	W48
	.byte		N44   
	.byte	W48
	.byte	PEND
@ 068   ----------------------------------------
	.byte	PATT
	 .word	SpoopHouse_2_067
	.byte	GOTO
	 .word	SpoopHouse_2_B1
SpoopHouse_2_B2:
@ 069   ----------------------------------------
	.byte	FINE

@**************** Track 3 (Midi-Chn.3) ****************@

SpoopHouse_3:
	.byte	KEYSH , SpoopHouse_key+0
@ 000   ----------------------------------------
	.byte		VOICE , 49
	.byte		PAN   , c_v-29
	.byte		VOL   , 90*SpoopHouse_mvl/mxv
	.byte	W96
@ 001   ----------------------------------------
	.byte	W96
@ 002   ----------------------------------------
	.byte	W96
@ 003   ----------------------------------------
	.byte	W96
@ 004   ----------------------------------------
	.byte	W96
@ 005   ----------------------------------------
	.byte	W96
@ 006   ----------------------------------------
	.byte	W96
SpoopHouse_3_B1:
@ 007   ----------------------------------------
	.byte	W12
	.byte		N06   , Cn2 , v060
	.byte		N06   , Ds2 
	.byte		N06   , Gn2 
	.byte	W24
	.byte		        Cn2 
	.byte		N06   , Ds2 
	.byte		N06   , Gn2 
	.byte	W24
	.byte		        Cn2 
	.byte		N06   , Ds2 
	.byte		N06   , Gn2 
	.byte	W24
	.byte		        Cn2 
	.byte		N06   , Ds2 
	.byte		N06   , Gn2 
	.byte	W12
@ 008   ----------------------------------------
SpoopHouse_3_008:
	.byte	W12
	.byte		N06   , Cn2 , v060
	.byte		N06   , Ds2 
	.byte		N06   , Gn2 
	.byte	W24
	.byte		        Cn2 
	.byte		N06   , Ds2 
	.byte		N06   , Gn2 
	.byte	W24
	.byte		        Cn2 
	.byte		N06   , Ds2 
	.byte		N06   , Gn2 
	.byte	W24
	.byte		        Cn2 
	.byte		N06   , Ds2 
	.byte		N06   , Gn2 
	.byte	W12
	.byte	PEND
@ 009   ----------------------------------------
	.byte	PATT
	 .word	SpoopHouse_3_008
@ 010   ----------------------------------------
SpoopHouse_3_010:
	.byte	W12
	.byte		N06   , Bn1 , v060
	.byte		N06   , Ds2 
	.byte		N06   , Gs2 
	.byte	W24
	.byte		        Bn1 
	.byte		N06   , Ds2 
	.byte		N06   , Gs2 
	.byte	W24
	.byte		        Bn1 
	.byte		N06   , Ds2 
	.byte		N06   , Gs2 
	.byte	W24
	.byte		        Bn1 
	.byte		N06   , Ds2 
	.byte		N06   , Gs2 
	.byte	W12
	.byte	PEND
@ 011   ----------------------------------------
	.byte	PATT
	 .word	SpoopHouse_3_008
@ 012   ----------------------------------------
SpoopHouse_3_012:
	.byte	W12
	.byte		N06   , As1 , v060
	.byte		N06   , Cs2 
	.byte		N06   , Fs2 
	.byte	W24
	.byte		        As1 
	.byte		N06   , Cs2 
	.byte		N06   , Fs2 
	.byte	W24
	.byte		        As1 
	.byte		N06   , Cs2 
	.byte		N06   , Fs2 
	.byte	W24
	.byte		        As1 
	.byte		N06   , Cs2 
	.byte		N06   , Fs2 
	.byte	W12
	.byte	PEND
@ 013   ----------------------------------------
	.byte	PATT
	 .word	SpoopHouse_3_008
@ 014   ----------------------------------------
	.byte	PATT
	 .word	SpoopHouse_3_010
@ 015   ----------------------------------------
SpoopHouse_3_015:
	.byte	W12
	.byte		N06   , Cn2 , v060
	.byte		N06   , Ds2 
	.byte		N06   , Gn2 
	.byte	W24
	.byte		        Cn2 
	.byte		N06   , Ds2 
	.byte		N06   , Gn2 
	.byte	W24
	.byte		        Bn1 
	.byte		N06   , Dn2 
	.byte		N06   , Fn2 
	.byte		N06   , Gn2 
	.byte	W24
	.byte		        Bn1 
	.byte		N06   , Dn2 
	.byte		N06   , Fn2 
	.byte		N06   , Gn2 
	.byte	W12
	.byte	PEND
@ 016   ----------------------------------------
	.byte	PATT
	 .word	SpoopHouse_3_015
@ 017   ----------------------------------------
	.byte	PATT
	 .word	SpoopHouse_3_008
@ 018   ----------------------------------------
	.byte	PATT
	 .word	SpoopHouse_3_010
@ 019   ----------------------------------------
	.byte	PATT
	 .word	SpoopHouse_3_008
@ 020   ----------------------------------------
	.byte	PATT
	 .word	SpoopHouse_3_012
@ 021   ----------------------------------------
	.byte	PATT
	 .word	SpoopHouse_3_008
@ 022   ----------------------------------------
	.byte	PATT
	 .word	SpoopHouse_3_010
@ 023   ----------------------------------------
	.byte	PATT
	 .word	SpoopHouse_3_015
@ 024   ----------------------------------------
	.byte	PATT
	 .word	SpoopHouse_3_015
@ 025   ----------------------------------------
SpoopHouse_3_025:
	.byte		N07   , Cn4 , v048
	.byte		N07   , Ds4 
	.byte		N07   , Gn4 
	.byte	W24
	.byte		        Cn4 
	.byte		N07   , Ds4 
	.byte		N07   , Gn4 
	.byte	W24
	.byte		        Cn4 
	.byte		N07   , Ds4 
	.byte		N07   , Gn4 
	.byte	W24
	.byte		        Cn4 
	.byte		N07   , Ds4 
	.byte		N07   , Gn4 
	.byte	W24
	.byte	PEND
@ 026   ----------------------------------------
SpoopHouse_3_026:
	.byte		N07   , Cn4 , v048
	.byte		N07   , Ds4 
	.byte		N07   , Fs4 
	.byte	W24
	.byte		        Cn4 
	.byte		N07   , Ds4 
	.byte		N07   , Fs4 
	.byte	W24
	.byte		        Cn4 
	.byte		N07   , Ds4 
	.byte		N07   , Gn4 
	.byte	W24
	.byte		        Cn4 
	.byte		N07   , Ds4 
	.byte		N07   , Gn4 
	.byte	W24
	.byte	PEND
@ 027   ----------------------------------------
SpoopHouse_3_027:
	.byte		N07   , Cn4 , v048
	.byte		N07   , Fn4 
	.byte		N07   , Gs4 
	.byte	W24
	.byte		        Cn4 
	.byte		N07   , Fn4 
	.byte		N07   , Gs4 
	.byte	W24
	.byte		        Cn4 
	.byte		N07   , Fn4 
	.byte		N07   , Gs4 
	.byte	W24
	.byte		        Cn4 
	.byte		N07   , Fn4 
	.byte		N07   , Gs4 
	.byte	W24
	.byte	PEND
@ 028   ----------------------------------------
SpoopHouse_3_028:
	.byte		N07   , Cn4 , v048
	.byte		N07   , Fs4 
	.byte		N07   , An4 
	.byte	W24
	.byte		        Cn4 
	.byte		N07   , Dn4 
	.byte		N07   , Fs4 
	.byte		N07   , An4 
	.byte	W24
	.byte		        Bn3 
	.byte		N07   , Dn4 
	.byte		N07   , Gn4 
	.byte	W24
	.byte		        Bn3 
	.byte		N07   , Dn4 
	.byte		N07   , Gn4 
	.byte	W24
	.byte	PEND
@ 029   ----------------------------------------
	.byte	PATT
	 .word	SpoopHouse_3_025
@ 030   ----------------------------------------
	.byte	PATT
	 .word	SpoopHouse_3_026
@ 031   ----------------------------------------
	.byte	PATT
	 .word	SpoopHouse_3_027
@ 032   ----------------------------------------
	.byte	PATT
	 .word	SpoopHouse_3_028
@ 033   ----------------------------------------
SpoopHouse_3_033:
	.byte	W12
	.byte		N06   , Cn2 , v060
	.byte		N06   , Ds2 
	.byte		N06   , Gn2 
	.byte	W24
	.byte		        Cn2 
	.byte		N06   , Ds2 
	.byte		N06   , Gn2 
	.byte	W24
	.byte		        An1 
	.byte		N06   , Cs2 
	.byte		N06   , Fs2 
	.byte	W24
	.byte		        An1 
	.byte		N06   , Cs2 
	.byte		N06   , Fs2 
	.byte	W12
	.byte	PEND
@ 034   ----------------------------------------
SpoopHouse_3_034:
	.byte	W12
	.byte		N06   , Cn2 , v060
	.byte		N06   , Ds2 
	.byte		N06   , Gn2 
	.byte	W24
	.byte		        Cn2 
	.byte		N06   , Ds2 
	.byte		N06   , Gn2 
	.byte	W24
	.byte		        Bn1 
	.byte		N06   , Dn2 
	.byte		N06   , Fs2 
	.byte	W24
	.byte		        Bn1 
	.byte		N06   , Dn2 
	.byte		N06   , Fs2 
	.byte	W12
	.byte	PEND
@ 035   ----------------------------------------
	.byte	PATT
	 .word	SpoopHouse_3_033
@ 036   ----------------------------------------
	.byte	PATT
	 .word	SpoopHouse_3_034
@ 037   ----------------------------------------
SpoopHouse_3_037:
	.byte	W12
	.byte		N06   , Cs2 , v060
	.byte		N06   , En2 
	.byte		N06   , Gs2 
	.byte	W24
	.byte		        Cs2 
	.byte		N06   , En2 
	.byte		N06   , Gs2 
	.byte	W24
	.byte		        Cs2 
	.byte		N06   , En2 
	.byte		N06   , Gs2 
	.byte	W24
	.byte		        Cs2 
	.byte		N06   , En2 
	.byte		N06   , Gs2 
	.byte	W12
	.byte	PEND
@ 038   ----------------------------------------
	.byte	PATT
	 .word	SpoopHouse_3_037
@ 039   ----------------------------------------
	.byte	PATT
	 .word	SpoopHouse_3_037
@ 040   ----------------------------------------
SpoopHouse_3_040:
	.byte	W12
	.byte		N06   , Cn2 , v060
	.byte		N06   , En2 
	.byte		N06   , An2 
	.byte	W24
	.byte		        Cn2 
	.byte		N06   , En2 
	.byte		N06   , An2 
	.byte	W24
	.byte		        Cn2 
	.byte		N06   , En2 
	.byte		N06   , An2 
	.byte	W24
	.byte		        Cn2 
	.byte		N06   , En2 
	.byte		N06   , An2 
	.byte	W12
	.byte	PEND
@ 041   ----------------------------------------
	.byte	PATT
	 .word	SpoopHouse_3_037
@ 042   ----------------------------------------
	.byte	W12
	.byte		N06   , Bn1 , v060
	.byte		N06   , Dn2 
	.byte		N06   , Gn2 
	.byte	W24
	.byte		        Bn1 
	.byte		N06   , Dn2 
	.byte		N06   , Gn2 
	.byte	W24
	.byte		        Bn1 
	.byte		N06   , Dn2 
	.byte		N06   , Gn2 
	.byte	W24
	.byte		        Bn1 
	.byte		N06   , Dn2 
	.byte		N06   , Gn2 
	.byte	W12
@ 043   ----------------------------------------
	.byte	PATT
	 .word	SpoopHouse_3_037
@ 044   ----------------------------------------
	.byte	PATT
	 .word	SpoopHouse_3_040
@ 045   ----------------------------------------
SpoopHouse_3_045:
	.byte	W12
	.byte		N06   , Cs2 , v060
	.byte		N06   , En2 
	.byte		N06   , Gs2 
	.byte	W24
	.byte		        Cs2 
	.byte		N06   , En2 
	.byte		N06   , Gs2 
	.byte	W24
	.byte		        Cn2 
	.byte		N06   , Ds2 
	.byte		N06   , Fs2 
	.byte		N06   , Gs2 
	.byte	W24
	.byte		        Cn2 
	.byte		N06   , Ds2 
	.byte		N06   , Fs2 
	.byte		N06   , Gs2 
	.byte	W12
	.byte	PEND
@ 046   ----------------------------------------
	.byte	PATT
	 .word	SpoopHouse_3_045
@ 047   ----------------------------------------
	.byte	W96
@ 048   ----------------------------------------
	.byte	W96
@ 049   ----------------------------------------
	.byte	W96
@ 050   ----------------------------------------
	.byte	W96
@ 051   ----------------------------------------
	.byte	W96
@ 052   ----------------------------------------
	.byte	W96
@ 053   ----------------------------------------
	.byte	W96
@ 054   ----------------------------------------
	.byte	W96
@ 055   ----------------------------------------
SpoopHouse_3_055:
	.byte		N48   , En4 , v020
	.byte		N48   , Gs4 
	.byte		N48   , Cs5 
	.byte	W48
	.byte		        Dn4 
	.byte		N48   , Gn4 
	.byte		N48   , As4 
	.byte	W48
	.byte	PEND
@ 056   ----------------------------------------
SpoopHouse_3_056:
	.byte		N48   , En4 , v020
	.byte		N48   , Gs4 
	.byte		N48   , Cs5 
	.byte	W48
	.byte		        Ds4 
	.byte		N48   , Gn4 
	.byte		N48   , Cn5 
	.byte	W48
	.byte	PEND
@ 057   ----------------------------------------
	.byte	PATT
	 .word	SpoopHouse_3_055
@ 058   ----------------------------------------
	.byte	PATT
	 .word	SpoopHouse_3_056
@ 059   ----------------------------------------
	.byte	PATT
	 .word	SpoopHouse_3_055
@ 060   ----------------------------------------
	.byte	PATT
	 .word	SpoopHouse_3_056
@ 061   ----------------------------------------
	.byte	PATT
	 .word	SpoopHouse_3_055
@ 062   ----------------------------------------
	.byte	PATT
	 .word	SpoopHouse_3_056
@ 063   ----------------------------------------
	.byte	W12
	.byte		N06   , Cs3 , v048
	.byte		N06   , Fn3 , v052
	.byte		N06   , Gs3 , v048
	.byte	W24
	.byte		        Cs3 
	.byte		N06   , Fn3 , v052
	.byte		N06   , Gs3 , v048
	.byte	W24
	.byte		        Cs3 
	.byte		N06   , Fn3 , v052
	.byte		N06   , Gs3 , v048
	.byte	W24
	.byte		        Cs3 
	.byte		N06   , Fn3 , v052
	.byte		N06   , Gs3 , v048
	.byte	W12
@ 064   ----------------------------------------
	.byte	W12
	.byte		        Cn3 
	.byte		N06   , En3 , v044
	.byte		N06   , Gn3 , v036
	.byte	W24
	.byte		        Cn3 , v048
	.byte		N06   , En3 , v044
	.byte		N06   , Gn3 , v036
	.byte	W24
	.byte		        Cn3 , v048
	.byte		N06   , En3 , v044
	.byte		N06   , Gn3 , v036
	.byte	W24
	.byte		        Cn3 , v048
	.byte		N06   , En3 , v044
	.byte		N06   , Gn3 , v036
	.byte	W12
@ 065   ----------------------------------------
	.byte	W12
	.byte		        Bn2 , v052
	.byte		N06   , Ds3 , v048
	.byte		N06   , Fs3 
	.byte	W24
	.byte		        Bn2 , v052
	.byte		N06   , Ds3 , v048
	.byte		N06   , Fs3 
	.byte	W24
	.byte		        Bn2 , v052
	.byte		N06   , Ds3 , v048
	.byte		N06   , Fs3 
	.byte	W24
	.byte		        Bn2 , v052
	.byte		N06   , Ds3 , v048
	.byte		N06   , Fs3 
	.byte	W12
@ 066   ----------------------------------------
	.byte	W12
	.byte		        As2 , v052
	.byte		N06   , Dn3 , v048
	.byte		N06   , Fn3 , v028
	.byte	W24
	.byte		        As2 , v052
	.byte		N06   , Dn3 , v048
	.byte		N06   , Fn3 , v028
	.byte	W24
	.byte		        As2 , v052
	.byte		N06   , Dn3 , v048
	.byte		N06   , Fn3 , v028
	.byte	W24
	.byte		        As2 , v052
	.byte		N06   , Dn3 , v048
	.byte		N06   , Fn3 , v028
	.byte	W12
@ 067   ----------------------------------------
	.byte	W96
@ 068   ----------------------------------------
	.byte	W96
	.byte	GOTO
	 .word	SpoopHouse_3_B1
SpoopHouse_3_B2:
@ 069   ----------------------------------------
	.byte	FINE

@**************** Track 4 (Midi-Chn.4) ****************@

SpoopHouse_4:
	.byte	KEYSH , SpoopHouse_key+0
@ 000   ----------------------------------------
	.byte		VOICE , 48
	.byte		PAN   , c_v+21
	.byte		VOL   , 77*SpoopHouse_mvl/mxv
	.byte	W96
@ 001   ----------------------------------------
	.byte	W96
@ 002   ----------------------------------------
	.byte	W96
@ 003   ----------------------------------------
	.byte	W96
@ 004   ----------------------------------------
	.byte	W96
@ 005   ----------------------------------------
	.byte	W96
@ 006   ----------------------------------------
	.byte	W96
SpoopHouse_4_B1:
@ 007   ----------------------------------------
	.byte		N11   , Cn2 , v127
	.byte	W24
	.byte		N12   , Gn1 , v116
	.byte	W24
	.byte		N11   , Cn2 , v127
	.byte	W24
	.byte		N13   , Gn1 , v112
	.byte	W24
@ 008   ----------------------------------------
SpoopHouse_4_008:
	.byte		N12   , Cn2 , v127
	.byte	W24
	.byte		N14   , Gn1 , v120
	.byte	W24
	.byte		N09   , Cn2 , v127
	.byte	W12
	.byte		N06   , Gn1 
	.byte	W12
	.byte		        An1 
	.byte	W12
	.byte		N07   , Bn1 
	.byte	W12
	.byte	PEND
@ 009   ----------------------------------------
SpoopHouse_4_009:
	.byte		N11   , Cn2 , v127
	.byte	W24
	.byte		N12   , Gn1 , v116
	.byte	W24
	.byte		N11   , Cn2 , v127
	.byte	W24
	.byte		N13   , Gn1 , v112
	.byte	W24
	.byte	PEND
@ 010   ----------------------------------------
SpoopHouse_4_010:
	.byte		N12   , Gs1 , v127
	.byte	W24
	.byte		N15   , Ds1 , v116
	.byte	W24
	.byte		N11   , Gs1 , v127
	.byte	W24
	.byte		N15   , Ds1 , v112
	.byte	W24
	.byte	PEND
@ 011   ----------------------------------------
SpoopHouse_4_011:
	.byte		N12   , Cn2 , v127
	.byte	W24
	.byte		N13   , Gn1 , v116
	.byte	W24
	.byte		N12   , Cn2 , v124
	.byte	W24
	.byte		N14   , Gn1 , v112
	.byte	W24
	.byte	PEND
@ 012   ----------------------------------------
SpoopHouse_4_012:
	.byte		N15   , Fs1 , v116
	.byte	W24
	.byte		        Cs2 , v127
	.byte	W24
	.byte		N05   , Fs1 
	.byte	W12
	.byte		N07   , Fs1 , v124
	.byte	W12
	.byte		N06   , Gs1 , v127
	.byte	W12
	.byte		N05   , As1 , v112
	.byte	W12
	.byte	PEND
@ 013   ----------------------------------------
SpoopHouse_4_013:
	.byte		N11   , Cn2 , v124
	.byte	W24
	.byte		N12   , Gn1 , v120
	.byte	W24
	.byte		N11   , Cn2 , v127
	.byte	W24
	.byte		N14   , Gn1 , v120
	.byte	W24
	.byte	PEND
@ 014   ----------------------------------------
SpoopHouse_4_014:
	.byte		N13   , Gs1 , v124
	.byte	W24
	.byte		N15   , Dn1 , v116
	.byte	W24
	.byte		N13   , Gs1 , v124
	.byte	W24
	.byte		N14   , Ds1 
	.byte	W24
	.byte	PEND
@ 015   ----------------------------------------
SpoopHouse_4_015:
	.byte		N12   , Cn2 , v127
	.byte	W24
	.byte		N15   , Gn1 , v120
	.byte	W24
	.byte		N14   , Gn1 , v127
	.byte	W24
	.byte		N15   , Bn1 
	.byte	W24
	.byte	PEND
@ 016   ----------------------------------------
	.byte	PATT
	 .word	SpoopHouse_4_008
@ 017   ----------------------------------------
	.byte	PATT
	 .word	SpoopHouse_4_009
@ 018   ----------------------------------------
	.byte	PATT
	 .word	SpoopHouse_4_010
@ 019   ----------------------------------------
	.byte	PATT
	 .word	SpoopHouse_4_011
@ 020   ----------------------------------------
	.byte	PATT
	 .word	SpoopHouse_4_012
@ 021   ----------------------------------------
	.byte	PATT
	 .word	SpoopHouse_4_013
@ 022   ----------------------------------------
	.byte	PATT
	 .word	SpoopHouse_4_014
@ 023   ----------------------------------------
	.byte	PATT
	 .word	SpoopHouse_4_015
@ 024   ----------------------------------------
	.byte	PATT
	 .word	SpoopHouse_4_008
@ 025   ----------------------------------------
SpoopHouse_4_025:
	.byte		N23   , Cn2 , v092
	.byte	W36
	.byte		N10   , Ds2 , v108
	.byte	W12
	.byte		N15   , Gn2 , v096
	.byte	W24
	.byte		N17   , Cn3 , v100
	.byte	W24
	.byte	PEND
@ 026   ----------------------------------------
SpoopHouse_4_026:
	.byte		N04   , Gn2 , v108
	.byte	W04
	.byte		        Fs2 
	.byte	W04
	.byte		        Gn2 
	.byte	W04
	.byte		        Fs2 
	.byte	W04
	.byte		        Gn2 
	.byte	W04
	.byte		        Fs2 
	.byte	W04
	.byte		        Gn2 
	.byte	W04
	.byte		        Fs2 
	.byte	W04
	.byte		        Gn2 
	.byte	W04
	.byte		        Fs2 
	.byte	W04
	.byte		        Gn2 
	.byte	W04
	.byte		        Fs2 
	.byte	W04
	.byte		N24   , Gn2 , v100
	.byte	W48
	.byte	PEND
@ 027   ----------------------------------------
SpoopHouse_4_027:
	.byte		N24   , Gs2 , v096
	.byte	W36
	.byte		N08   , Gn2 , v088
	.byte	W12
	.byte		N13   , Gs2 , v096
	.byte	W24
	.byte		N16   , Gn2 , v088
	.byte	W24
	.byte	PEND
@ 028   ----------------------------------------
SpoopHouse_4_028:
	.byte		N20   , Fs2 , v096
	.byte	W24
	.byte		N24   , Dn2 , v100
	.byte	W24
	.byte		N23   , Gn2 , v092
	.byte	W24
	.byte		N24   , Gn1 , v084
	.byte	W24
	.byte	PEND
@ 029   ----------------------------------------
	.byte	PATT
	 .word	SpoopHouse_4_025
@ 030   ----------------------------------------
	.byte	PATT
	 .word	SpoopHouse_4_026
@ 031   ----------------------------------------
	.byte	PATT
	 .word	SpoopHouse_4_027
@ 032   ----------------------------------------
	.byte	PATT
	 .word	SpoopHouse_4_028
@ 033   ----------------------------------------
	.byte		N16   , Cn2 , v120
	.byte	W24
	.byte		        Gn1 , v112
	.byte	W24
	.byte		        Fs1 , v108
	.byte	W24
	.byte		N17   , Cs2 , v116
	.byte	W24
@ 034   ----------------------------------------
	.byte		        Cn2 , v120
	.byte	W24
	.byte		        Gn1 , v116
	.byte	W24
	.byte		        Bn1 
	.byte	W24
	.byte		        Fs1 , v104
	.byte	W24
@ 035   ----------------------------------------
	.byte		N18   , Cn2 , v112
	.byte	W24
	.byte		        Gn1 
	.byte	W24
	.byte		N17   , Fs1 , v104
	.byte	W24
	.byte		        Cs2 , v116
	.byte	W24
@ 036   ----------------------------------------
	.byte		N18   , Cn2 , v120
	.byte	W24
	.byte		N17   , Gn1 , v112
	.byte	W24
	.byte		N18   , Bn1 
	.byte	W24
	.byte		N19   , Fs1 , v116
	.byte	W24
@ 037   ----------------------------------------
SpoopHouse_4_037:
	.byte		N11   , Cs2 , v127
	.byte	W24
	.byte		N12   , Gs1 , v116
	.byte	W24
	.byte		N11   , Cs2 , v127
	.byte	W24
	.byte		N13   , Gs1 , v112
	.byte	W24
	.byte	PEND
@ 038   ----------------------------------------
SpoopHouse_4_038:
	.byte		N12   , Cs2 , v127
	.byte	W24
	.byte		N14   , Gs1 , v120
	.byte	W24
	.byte		N09   , Cs2 , v127
	.byte	W12
	.byte		N06   , Gs1 
	.byte	W12
	.byte		        As1 
	.byte	W12
	.byte		N07   , Cn2 
	.byte	W12
	.byte	PEND
@ 039   ----------------------------------------
	.byte	PATT
	 .word	SpoopHouse_4_037
@ 040   ----------------------------------------
	.byte		N12   , An1 , v127
	.byte	W24
	.byte		N15   , En1 , v116
	.byte	W24
	.byte		N11   , An1 , v127
	.byte	W24
	.byte		N15   , En1 , v112
	.byte	W24
@ 041   ----------------------------------------
	.byte		N12   , Cs2 , v127
	.byte	W24
	.byte		N13   , Gs1 , v116
	.byte	W24
	.byte		N12   , Cs2 , v124
	.byte	W24
	.byte		N14   , Gs1 , v112
	.byte	W24
@ 042   ----------------------------------------
	.byte		N15   , Gn1 , v116
	.byte	W24
	.byte		        Dn2 , v127
	.byte	W24
	.byte		N05   , Gn1 
	.byte	W12
	.byte		N07   , Gn1 , v124
	.byte	W12
	.byte		N06   , An1 , v127
	.byte	W12
	.byte		N05   , Bn1 , v112
	.byte	W12
@ 043   ----------------------------------------
	.byte		N11   , Cs2 , v124
	.byte	W24
	.byte		N12   , Gs1 , v120
	.byte	W24
	.byte		N11   , Cs2 , v127
	.byte	W24
	.byte		N14   , Gs1 , v120
	.byte	W24
@ 044   ----------------------------------------
	.byte		N13   , An1 , v124
	.byte	W24
	.byte		N15   , Ds1 , v116
	.byte	W24
	.byte		N13   , An1 , v124
	.byte	W24
	.byte		N14   , En1 
	.byte	W24
@ 045   ----------------------------------------
	.byte		N12   , Cs2 , v127
	.byte	W24
	.byte		N15   , Gs1 , v120
	.byte	W24
	.byte		N14   , Gs1 , v127
	.byte	W24
	.byte		N15   , Cn2 
	.byte	W24
@ 046   ----------------------------------------
	.byte	PATT
	 .word	SpoopHouse_4_038
@ 047   ----------------------------------------
	.byte	W96
@ 048   ----------------------------------------
	.byte	W96
@ 049   ----------------------------------------
	.byte	W96
@ 050   ----------------------------------------
	.byte	W96
@ 051   ----------------------------------------
	.byte	W96
@ 052   ----------------------------------------
	.byte	W96
@ 053   ----------------------------------------
	.byte	W96
@ 054   ----------------------------------------
	.byte	W96
@ 055   ----------------------------------------
	.byte	W96
@ 056   ----------------------------------------
	.byte	W96
@ 057   ----------------------------------------
	.byte	W96
@ 058   ----------------------------------------
	.byte	W96
@ 059   ----------------------------------------
	.byte		N10   , Cs2 , v127
	.byte	W36
	.byte		N07   
	.byte	W12
	.byte		N11   , Gn1 , v124
	.byte	W36
	.byte		N07   , Gn1 , v127
	.byte	W12
@ 060   ----------------------------------------
	.byte		N09   , Cs2 
	.byte	W36
	.byte		N06   
	.byte	W12
	.byte		N08   , Cn2 , v120
	.byte	W24
	.byte		N10   , Cn2 , v100
	.byte	W24
@ 061   ----------------------------------------
	.byte		        Cs2 , v127
	.byte	W36
	.byte		N07   
	.byte	W12
	.byte		N09   , Gn1 , v120
	.byte	W36
	.byte		N08   
	.byte	W12
@ 062   ----------------------------------------
	.byte		N09   , Cs2 , v127
	.byte	W36
	.byte		N06   
	.byte	W12
	.byte		N09   , Cn2 , v124
	.byte	W24
	.byte		N08   , Cn2 , v127
	.byte	W24
@ 063   ----------------------------------------
	.byte		N17   , Cs2 , v108
	.byte	W24
	.byte		        Gs1 
	.byte	W24
	.byte		        Cs2 
	.byte	W24
	.byte		        Gs1 
	.byte	W24
@ 064   ----------------------------------------
	.byte		        Cn2 
	.byte	W24
	.byte		        Gn1 
	.byte	W24
	.byte		        Cn2 
	.byte	W24
	.byte		        Gn1 
	.byte	W24
@ 065   ----------------------------------------
	.byte		        Bn1 
	.byte	W24
	.byte		        Fs1 
	.byte	W24
	.byte		        Bn1 
	.byte	W24
	.byte		        Fs1 
	.byte	W24
@ 066   ----------------------------------------
	.byte		        As1 
	.byte	W24
	.byte		        Fn1 
	.byte	W24
	.byte		        As1 
	.byte	W24
	.byte		        Fn1 
	.byte	W24
@ 067   ----------------------------------------
	.byte		N20   , En2 
	.byte	W24
	.byte		N20   
	.byte	W24
	.byte		        Fn2 
	.byte	W24
	.byte		N20   
	.byte	W24
@ 068   ----------------------------------------
	.byte		        Fs2 
	.byte	W24
	.byte		N20   
	.byte	W24
	.byte		        Gn2 
	.byte	W24
	.byte		N20   
	.byte	W24
	.byte	GOTO
	 .word	SpoopHouse_4_B1
SpoopHouse_4_B2:
@ 069   ----------------------------------------
	.byte	FINE

@**************** Track 5 (Midi-Chn.5) ****************@

SpoopHouse_5:
	.byte	KEYSH , SpoopHouse_key+0
@ 000   ----------------------------------------
	.byte		VOICE , 19
	.byte		PAN   , c_v+21
	.byte		VOL   , 90*SpoopHouse_mvl/mxv
	.byte		TIE   , Cn1 , v092
	.byte		N90   , Cn2 
	.byte		N90   , Ds2 
	.byte		N90   , Gn2 
	.byte	W96
@ 001   ----------------------------------------
	.byte		N84   , Gs0 
	.byte		N84   , Bn1 
	.byte		N88   , Ds2 
	.byte		N84   , Gs2 
	.byte	W01
	.byte		EOT   , Cn1 
	.byte	W92
	.byte	W03
@ 002   ----------------------------------------
	.byte		N88   
	.byte		N84   , Cn2 
	.byte		N84   , Ds2 
	.byte		N80   , Gn2 
	.byte	W96
@ 003   ----------------------------------------
	.byte		TIE   , As0 
	.byte		N48   , Cn2 , v112
	.byte		N92   , Cs2 , v092
	.byte		N90   , Fs2 
	.byte	W48
	.byte		N42   , As1 , v112
	.byte	W48
@ 004   ----------------------------------------
	.byte		TIE   , Cn1 , v092
	.byte		TIE   , Gn1 
	.byte		TIE   , Cn2 
	.byte		TIE   , Ds2 
	.byte	W02
	.byte		EOT   , As0 
	.byte	W92
	.byte	W02
@ 005   ----------------------------------------
	.byte	W96
@ 006   ----------------------------------------
	.byte	W96
	.byte		        Cn1 
	.byte		        Gn1 
	.byte		        Cn2 
	.byte		        Ds2 
SpoopHouse_5_B1:
@ 007   ----------------------------------------
	.byte	W96
@ 008   ----------------------------------------
	.byte	W96
@ 009   ----------------------------------------
	.byte	W96
@ 010   ----------------------------------------
	.byte	W96
@ 011   ----------------------------------------
	.byte	W96
@ 012   ----------------------------------------
	.byte	W96
@ 013   ----------------------------------------
	.byte	W96
@ 014   ----------------------------------------
	.byte	W96
@ 015   ----------------------------------------
	.byte	W96
@ 016   ----------------------------------------
	.byte	W96
@ 017   ----------------------------------------
	.byte	W96
@ 018   ----------------------------------------
	.byte	W96
@ 019   ----------------------------------------
	.byte	W96
@ 020   ----------------------------------------
	.byte	W96
@ 021   ----------------------------------------
	.byte	W96
@ 022   ----------------------------------------
	.byte	W96
@ 023   ----------------------------------------
	.byte	W96
@ 024   ----------------------------------------
	.byte	W96
@ 025   ----------------------------------------
	.byte	W96
@ 026   ----------------------------------------
	.byte	W96
@ 027   ----------------------------------------
	.byte	W96
@ 028   ----------------------------------------
	.byte	W96
@ 029   ----------------------------------------
	.byte	W96
@ 030   ----------------------------------------
	.byte	W96
@ 031   ----------------------------------------
	.byte	W96
@ 032   ----------------------------------------
	.byte	W96
@ 033   ----------------------------------------
	.byte	W96
@ 034   ----------------------------------------
	.byte	W96
@ 035   ----------------------------------------
	.byte	W96
@ 036   ----------------------------------------
	.byte	W96
@ 037   ----------------------------------------
	.byte	W96
@ 038   ----------------------------------------
	.byte	W96
@ 039   ----------------------------------------
	.byte	W96
@ 040   ----------------------------------------
	.byte	W96
@ 041   ----------------------------------------
	.byte	W96
@ 042   ----------------------------------------
	.byte	W96
@ 043   ----------------------------------------
	.byte	W96
@ 044   ----------------------------------------
	.byte	W96
@ 045   ----------------------------------------
	.byte	W96
@ 046   ----------------------------------------
	.byte	W96
@ 047   ----------------------------------------
SpoopHouse_5_047:
	.byte		N96   , Cs1 , v060
	.byte		N90   , Cs2 
	.byte		N90   , En2 
	.byte		N90   , Gs2 
	.byte	W96
	.byte	PEND
@ 048   ----------------------------------------
SpoopHouse_5_048:
	.byte		N96   , An0 , v060
	.byte		N84   , Cn2 
	.byte		N88   , En2 
	.byte		N84   , An2 
	.byte	W96
	.byte	PEND
@ 049   ----------------------------------------
	.byte		N96   , Cs1 
	.byte		N84   , Cs2 
	.byte		N84   , En2 
	.byte		N80   , Gs2 
	.byte	W96
@ 050   ----------------------------------------
	.byte		TIE   , Bn0 
	.byte		N48   , Cs2 , v080
	.byte		N92   , Dn2 , v060
	.byte		N90   , Gn2 
	.byte	W48
	.byte		N42   , Bn1 , v080
	.byte	W48
@ 051   ----------------------------------------
	.byte		N96   , Cs1 , v060
	.byte		N90   , Cs2 
	.byte		N90   , En2 
	.byte		N90   , Gs2 
	.byte	W02
	.byte		EOT   , Bn0 
	.byte	W92
	.byte	W02
@ 052   ----------------------------------------
	.byte	PATT
	 .word	SpoopHouse_5_048
@ 053   ----------------------------------------
	.byte		N44   , Cs1 , v060
	.byte		N44   , Cs2 
	.byte		N44   , En2 
	.byte		N44   , Gs2 
	.byte	W48
	.byte		        Gs0 
	.byte		N44   , Cn2 
	.byte		N44   , Ds2 
	.byte		N44   , Gs2 
	.byte	W48
@ 054   ----------------------------------------
	.byte	PATT
	 .word	SpoopHouse_5_047
@ 055   ----------------------------------------
	.byte	W96
@ 056   ----------------------------------------
	.byte	W96
@ 057   ----------------------------------------
	.byte	W96
@ 058   ----------------------------------------
	.byte	W96
@ 059   ----------------------------------------
	.byte	W96
@ 060   ----------------------------------------
	.byte	W96
@ 061   ----------------------------------------
	.byte	W96
@ 062   ----------------------------------------
	.byte	W96
@ 063   ----------------------------------------
	.byte	W96
@ 064   ----------------------------------------
	.byte	W96
@ 065   ----------------------------------------
	.byte	W96
@ 066   ----------------------------------------
	.byte	W96
@ 067   ----------------------------------------
	.byte	W96
@ 068   ----------------------------------------
	.byte	W96
	.byte	GOTO
	 .word	SpoopHouse_5_B1
SpoopHouse_5_B2:
@ 069   ----------------------------------------
	.byte	FINE

@**************** Track 6 (Midi-Chn.6) ****************@

SpoopHouse_6:
	.byte	KEYSH , SpoopHouse_key+0
@ 000   ----------------------------------------
	.byte		VOICE , 77
	.byte		VOL   , 66*SpoopHouse_mvl/mxv
	.byte		PAN   , c_v-19
	.byte	W96
@ 001   ----------------------------------------
	.byte	W96
@ 002   ----------------------------------------
	.byte	W96
@ 003   ----------------------------------------
	.byte	W96
@ 004   ----------------------------------------
	.byte		N48   , Cn3 , v100
	.byte	W48
	.byte		        Cn4 , v104
	.byte	W48
@ 005   ----------------------------------------
	.byte		        Bn3 
	.byte	W48
	.byte		TIE   , Gn3 
	.byte	W48
@ 006   ----------------------------------------
	.byte	W96
	.byte		EOT   
SpoopHouse_6_B1:
@ 007   ----------------------------------------
	.byte	W96
@ 008   ----------------------------------------
	.byte	W96
@ 009   ----------------------------------------
	.byte	W96
@ 010   ----------------------------------------
	.byte	W96
@ 011   ----------------------------------------
	.byte	W96
@ 012   ----------------------------------------
	.byte	W96
@ 013   ----------------------------------------
	.byte	W96
@ 014   ----------------------------------------
	.byte	W96
@ 015   ----------------------------------------
	.byte	W96
@ 016   ----------------------------------------
	.byte	W96
@ 017   ----------------------------------------
	.byte	W96
@ 018   ----------------------------------------
	.byte	W96
@ 019   ----------------------------------------
	.byte	W96
@ 020   ----------------------------------------
	.byte	W96
@ 021   ----------------------------------------
	.byte	W96
@ 022   ----------------------------------------
	.byte	W96
@ 023   ----------------------------------------
	.byte	W96
@ 024   ----------------------------------------
	.byte	W96
@ 025   ----------------------------------------
	.byte	W96
@ 026   ----------------------------------------
	.byte	W96
@ 027   ----------------------------------------
	.byte	W96
@ 028   ----------------------------------------
	.byte	W96
@ 029   ----------------------------------------
	.byte	W96
@ 030   ----------------------------------------
	.byte	W96
@ 031   ----------------------------------------
	.byte	W96
@ 032   ----------------------------------------
	.byte	W96
@ 033   ----------------------------------------
	.byte	W96
@ 034   ----------------------------------------
	.byte	W96
@ 035   ----------------------------------------
	.byte	W96
@ 036   ----------------------------------------
	.byte	W96
@ 037   ----------------------------------------
	.byte	W96
@ 038   ----------------------------------------
	.byte	W96
@ 039   ----------------------------------------
	.byte	W96
@ 040   ----------------------------------------
	.byte		N48   , An2 , v104
	.byte	W48
	.byte		N96   , En3 
	.byte	W48
@ 041   ----------------------------------------
	.byte	W48
	.byte		N24   , Cs3 
	.byte	W24
	.byte		        Gs2 
	.byte	W24
@ 042   ----------------------------------------
	.byte		N48   , Gn2 
	.byte	W48
	.byte		        Dn3 
	.byte	W48
@ 043   ----------------------------------------
	.byte		N72   , Cs3 
	.byte	W72
	.byte		N24   , Gs2 
	.byte	W24
@ 044   ----------------------------------------
	.byte		N48   , An2 
	.byte	W48
	.byte		        En3 
	.byte	W48
@ 045   ----------------------------------------
	.byte		        Cs3 
	.byte	W48
	.byte		        Cn3 
	.byte	W48
@ 046   ----------------------------------------
	.byte		N96   , Cs3 
	.byte	W96
@ 047   ----------------------------------------
	.byte	W96
@ 048   ----------------------------------------
	.byte	W96
@ 049   ----------------------------------------
	.byte	W96
@ 050   ----------------------------------------
	.byte		N48   , Cs2 
	.byte	W48
	.byte		        Cs3 
	.byte	W48
@ 051   ----------------------------------------
	.byte		        Cn3 
	.byte	W48
	.byte		TIE   , An2 
	.byte	W48
@ 052   ----------------------------------------
	.byte	W24
	.byte		BEND  , c_v+0
	.byte	W72
	.byte		EOT   
@ 053   ----------------------------------------
	.byte	W96
@ 054   ----------------------------------------
	.byte	W96
@ 055   ----------------------------------------
	.byte	W96
@ 056   ----------------------------------------
	.byte	W96
@ 057   ----------------------------------------
	.byte	W96
@ 058   ----------------------------------------
	.byte	W96
@ 059   ----------------------------------------
	.byte	W96
@ 060   ----------------------------------------
	.byte	W96
@ 061   ----------------------------------------
	.byte	W96
@ 062   ----------------------------------------
	.byte	W96
@ 063   ----------------------------------------
	.byte	W96
@ 064   ----------------------------------------
	.byte	W96
@ 065   ----------------------------------------
	.byte	W96
@ 066   ----------------------------------------
	.byte	W96
@ 067   ----------------------------------------
	.byte	W96
@ 068   ----------------------------------------
	.byte	W96
	.byte	GOTO
	 .word	SpoopHouse_6_B1
SpoopHouse_6_B2:
@ 069   ----------------------------------------
	.byte	FINE

@**************** Track 7 (Midi-Chn.7) ****************@

SpoopHouse_7:
	.byte	KEYSH , SpoopHouse_key+0
@ 000   ----------------------------------------
	.byte		VOICE , 70
	.byte		PAN   , c_v+6
	.byte		VOL   , 116*SpoopHouse_mvl/mxv
	.byte	W96
@ 001   ----------------------------------------
	.byte	W96
@ 002   ----------------------------------------
	.byte	W96
@ 003   ----------------------------------------
	.byte	W96
@ 004   ----------------------------------------
	.byte	W96
@ 005   ----------------------------------------
	.byte	W96
@ 006   ----------------------------------------
	.byte	W96
SpoopHouse_7_B1:
@ 007   ----------------------------------------
	.byte	W96
@ 008   ----------------------------------------
	.byte	W96
@ 009   ----------------------------------------
	.byte		N12   , Cn2 , v116
	.byte	W24
	.byte		N09   , Gn1 
	.byte	W24
	.byte		N32   , Cn2 
	.byte	W36
	.byte		N07   , Gn1 
	.byte	W12
@ 010   ----------------------------------------
	.byte		N04   , Gs1 
	.byte	W12
	.byte		N05   , As1 
	.byte	W12
	.byte		N16   , Bn1 
	.byte	W24
	.byte		N05   
	.byte	W12
	.byte		        Cs2 
	.byte	W12
	.byte		N20   , Ds2 
	.byte	W24
@ 011   ----------------------------------------
	.byte		N07   , Cn2 
	.byte	W24
	.byte		N08   , Gn1 
	.byte	W24
	.byte		N32   , Cn2 
	.byte	W36
	.byte		N07   , Gn1 
	.byte	W12
@ 012   ----------------------------------------
	.byte		N05   , Fs1 
	.byte	W12
	.byte		        Gs1 
	.byte	W12
	.byte		N06   , As1 
	.byte	W12
	.byte		        Bn1 
	.byte	W12
	.byte		N04   , Cs2 
	.byte	W12
	.byte		N05   , Ds2 
	.byte	W12
	.byte		N06   , En2 
	.byte	W12
	.byte		        Fs2 
	.byte	W12
@ 013   ----------------------------------------
	.byte		N10   , Cn2 
	.byte	W24
	.byte		N08   , Gn1 
	.byte	W24
	.byte		N32   , Cn2 
	.byte	W36
	.byte		N07   , Gn1 
	.byte	W12
@ 014   ----------------------------------------
	.byte		N05   , Gs1 
	.byte	W12
	.byte		N06   , As1 
	.byte	W12
	.byte		N17   , Bn1 
	.byte	W24
	.byte		N07   
	.byte	W12
	.byte		N05   , Cs2 
	.byte	W12
	.byte		N17   , Ds2 
	.byte	W24
@ 015   ----------------------------------------
	.byte		N30   , Cn2 
	.byte	W36
	.byte		N08   , Gn1 
	.byte	W12
	.byte		N17   , Bn1 
	.byte	W24
	.byte		N18   , Dn2 
	.byte	W24
@ 016   ----------------------------------------
	.byte		N21   , Ds2 
	.byte	W24
	.byte		N08   , Dn2 
	.byte	W18
	.byte		N07   
	.byte	W06
	.byte		N13   , Cn2 
	.byte	W48
@ 017   ----------------------------------------
	.byte	W96
@ 018   ----------------------------------------
	.byte	W96
@ 019   ----------------------------------------
	.byte	W96
@ 020   ----------------------------------------
	.byte	W96
@ 021   ----------------------------------------
	.byte	W96
@ 022   ----------------------------------------
	.byte	W96
@ 023   ----------------------------------------
	.byte	W96
@ 024   ----------------------------------------
	.byte	W96
@ 025   ----------------------------------------
	.byte		N23   , Cn1 , v112
	.byte	W36
	.byte		N10   , Ds1 , v127
	.byte	W12
	.byte		N15   , Gn1 , v116
	.byte	W24
	.byte		N17   , Cn2 , v120
	.byte	W24
@ 026   ----------------------------------------
	.byte		N04   , Gn1 , v127
	.byte	W04
	.byte		        Fs1 
	.byte	W04
	.byte		        Gn1 
	.byte	W04
	.byte		        Fs1 
	.byte	W04
	.byte		        Gn1 
	.byte	W04
	.byte		        Fs1 
	.byte	W04
	.byte		        Gn1 
	.byte	W04
	.byte		        Fs1 
	.byte	W04
	.byte		        Gn1 
	.byte	W04
	.byte		        Fs1 
	.byte	W04
	.byte		        Gn1 
	.byte	W04
	.byte		        Fs1 
	.byte	W04
	.byte		N24   , Gn1 , v120
	.byte	W48
@ 027   ----------------------------------------
	.byte		        Gs1 , v116
	.byte	W36
	.byte		N08   , Gn1 , v108
	.byte	W12
	.byte		N13   , Gs1 , v116
	.byte	W24
	.byte		N16   , Gn1 , v108
	.byte	W24
@ 028   ----------------------------------------
	.byte		N20   , Fs1 , v116
	.byte	W24
	.byte		N24   , Dn1 , v120
	.byte	W24
	.byte		N23   , Gn1 , v112
	.byte	W24
	.byte		N24   , Gn0 , v104
	.byte	W24
@ 029   ----------------------------------------
	.byte	W96
@ 030   ----------------------------------------
	.byte	W96
@ 031   ----------------------------------------
	.byte	W96
@ 032   ----------------------------------------
	.byte	W96
@ 033   ----------------------------------------
	.byte	W96
@ 034   ----------------------------------------
	.byte	W96
@ 035   ----------------------------------------
	.byte	W96
@ 036   ----------------------------------------
	.byte	W96
@ 037   ----------------------------------------
	.byte	W96
@ 038   ----------------------------------------
	.byte	W96
@ 039   ----------------------------------------
	.byte	W96
@ 040   ----------------------------------------
	.byte	W96
@ 041   ----------------------------------------
	.byte	W96
@ 042   ----------------------------------------
	.byte	W96
@ 043   ----------------------------------------
	.byte	W96
@ 044   ----------------------------------------
	.byte	W96
@ 045   ----------------------------------------
	.byte	W96
@ 046   ----------------------------------------
	.byte	W96
@ 047   ----------------------------------------
	.byte	W96
@ 048   ----------------------------------------
	.byte	W96
@ 049   ----------------------------------------
	.byte	W96
@ 050   ----------------------------------------
	.byte	W96
@ 051   ----------------------------------------
	.byte	W96
@ 052   ----------------------------------------
	.byte	W96
@ 053   ----------------------------------------
	.byte	W96
@ 054   ----------------------------------------
	.byte	W96
@ 055   ----------------------------------------
	.byte		N10   , Cs2 , v116
	.byte	W36
	.byte		N07   , Cs2 , v112
	.byte	W12
	.byte		N11   , Gn1 , v096
	.byte	W36
	.byte		N07   , Gn1 , v100
	.byte	W12
@ 056   ----------------------------------------
	.byte		N09   , Cs2 , v112
	.byte	W36
	.byte		N06   , Cs2 , v100
	.byte	W12
	.byte		N08   , Cn2 , v088
	.byte	W24
	.byte		N10   , Cn2 , v072
	.byte	W24
@ 057   ----------------------------------------
	.byte		        Cs2 , v100
	.byte	W36
	.byte		N07   , Cs2 , v104
	.byte	W12
	.byte		N09   , Gn1 , v092
	.byte	W36
	.byte		N08   , Gn1 , v088
	.byte	W12
@ 058   ----------------------------------------
	.byte		N09   , Cs2 , v100
	.byte	W36
	.byte		N06   , Cs2 , v104
	.byte	W12
	.byte		N09   , Cn2 , v092
	.byte	W24
	.byte		N08   , Cn2 , v100
	.byte	W24
@ 059   ----------------------------------------
	.byte		N06   , Cs1 , v056
	.byte	W06
	.byte		        En1 
	.byte	W06
	.byte		        Gs1 
	.byte	W06
	.byte		        Cs2 
	.byte	W06
	.byte		        En2 
	.byte	W06
	.byte		        Cs2 
	.byte	W06
	.byte		        Gs1 
	.byte	W06
	.byte		        Gn1 
	.byte	W06
	.byte		        As1 
	.byte	W06
	.byte		        Dn2 
	.byte	W06
	.byte		        Gn2 
	.byte	W06
	.byte		        As2 
	.byte	W06
	.byte		        Gn2 
	.byte	W06
	.byte		        Dn2 
	.byte	W06
	.byte		        As1 
	.byte	W06
	.byte		        Gn1 
	.byte	W06
@ 060   ----------------------------------------
	.byte		        En1 
	.byte	W06
	.byte		        Gs1 
	.byte	W06
	.byte		        Cs2 
	.byte	W06
	.byte		        En2 
	.byte	W06
	.byte		        Gs2 
	.byte	W06
	.byte		        En2 
	.byte	W06
	.byte		        Cs2 
	.byte	W06
	.byte		        Cn2 
	.byte	W06
	.byte		        Ds2 
	.byte	W06
	.byte		        Gn2 
	.byte	W06
	.byte		        Cn3 
	.byte	W06
	.byte		        Ds3 
	.byte	W06
	.byte		        Cn3 
	.byte	W06
	.byte		        Gn2 
	.byte	W06
	.byte		        Ds2 
	.byte	W06
	.byte		        Cn2 
	.byte	W06
@ 061   ----------------------------------------
	.byte		        Cs2 
	.byte	W06
	.byte		        Gs1 
	.byte	W06
	.byte		        Cs2 
	.byte	W06
	.byte		        En2 
	.byte	W06
	.byte		        Cs2 
	.byte	W06
	.byte		        Gs1 
	.byte	W06
	.byte		        En1 
	.byte	W06
	.byte		        Dn1 
	.byte	W06
	.byte		        Gn1 
	.byte	W06
	.byte		        As1 
	.byte	W06
	.byte		        Dn2 
	.byte	W06
	.byte		        Gn2 
	.byte	W06
	.byte		        As2 
	.byte	W06
	.byte		        Gn2 
	.byte	W06
	.byte		        Dn2 
	.byte	W06
	.byte		        As1 
	.byte	W06
@ 062   ----------------------------------------
	.byte		        Gs1 
	.byte	W06
	.byte		        En1 
	.byte	W06
	.byte		        Gs1 
	.byte	W06
	.byte		        Cs2 
	.byte	W06
	.byte		        En2 
	.byte	W06
	.byte		        Gs2 
	.byte	W06
	.byte		        En2 
	.byte	W06
	.byte		        Dn2 
	.byte	W06
	.byte		        Cn2 
	.byte	W06
	.byte		        Ds2 
	.byte	W06
	.byte		        Gn2 
	.byte	W06
	.byte		        Cn3 
	.byte	W06
	.byte		        Gn2 
	.byte	W06
	.byte		        Ds2 
	.byte	W06
	.byte		        Cn2 
	.byte	W06
	.byte		        Gn1 
	.byte	W06
@ 063   ----------------------------------------
	.byte		N17   , Cs2 , v104
	.byte	W24
	.byte		N06   , Gs1 
	.byte	W12
	.byte		N07   , Cs2 
	.byte	W12
	.byte		N15   , Ds2 
	.byte	W24
	.byte		N17   , Fn2 
	.byte	W24
@ 064   ----------------------------------------
	.byte		N24   , Cn2 
	.byte	W36
	.byte		N08   , Dn2 
	.byte	W12
	.byte		N42   , En2 
	.byte	W48
@ 065   ----------------------------------------
	.byte	W96
@ 066   ----------------------------------------
	.byte	W36
	.byte		N03   , Dn2 
	.byte		N04   , Fn2 , v096
	.byte		N04   , As2 , v104
	.byte	W06
	.byte		        Dn2 , v100
	.byte		N04   , Fn2 , v088
	.byte		N04   , As2 , v104
	.byte	W06
	.byte		N05   , Dn2 , v100
	.byte		N05   , Fn2 , v076
	.byte		N05   , As2 , v104
	.byte	W12
	.byte		        As1 
	.byte		N04   , Dn2 
	.byte		N04   , Fn2 , v100
	.byte	W12
	.byte		N06   , Dn2 , v104
	.byte		N05   , Fn2 , v100
	.byte		N05   , As2 , v104
	.byte	W12
	.byte		N07   , Fn2 , v100
	.byte		N08   , As2 , v104
	.byte		N07   , Dn3 
	.byte	W12
@ 067   ----------------------------------------
	.byte		N36   , Bn1 , v084
	.byte		N36   , En2 
	.byte		N36   , Gs2 
	.byte	W48
	.byte		N40   , Cn2 , v072
	.byte		N40   , Fn2 
	.byte		N40   , An2 , v088
	.byte	W48
@ 068   ----------------------------------------
	.byte		N36   , As1 
	.byte		N36   , Cs2 , v080
	.byte		N40   , Fs2 , v088
	.byte	W48
	.byte		N42   , Bn1 , v100
	.byte		N42   , Dn2 , v088
	.byte		N44   , Gn2 , v084
	.byte	W48
	.byte	GOTO
	 .word	SpoopHouse_7_B1
SpoopHouse_7_B2:
@ 069   ----------------------------------------
	.byte	FINE

@**************** Track 8 (Midi-Chn.8) ****************@

SpoopHouse_8:
	.byte	KEYSH , SpoopHouse_key+0
@ 000   ----------------------------------------
	.byte		VOICE , 13
	.byte		PAN   , c_v-9
	.byte		VOL   , 90*SpoopHouse_mvl/mxv
	.byte	W96
@ 001   ----------------------------------------
	.byte	W96
@ 002   ----------------------------------------
	.byte	W96
@ 003   ----------------------------------------
	.byte	W96
@ 004   ----------------------------------------
	.byte	W96
@ 005   ----------------------------------------
	.byte	W96
@ 006   ----------------------------------------
	.byte	W96
SpoopHouse_8_B1:
@ 007   ----------------------------------------
	.byte	W96
@ 008   ----------------------------------------
	.byte	W96
@ 009   ----------------------------------------
	.byte	W96
@ 010   ----------------------------------------
	.byte	W96
@ 011   ----------------------------------------
	.byte	W96
@ 012   ----------------------------------------
	.byte	W96
@ 013   ----------------------------------------
	.byte	W96
@ 014   ----------------------------------------
	.byte	W96
@ 015   ----------------------------------------
	.byte	W96
@ 016   ----------------------------------------
	.byte	W96
@ 017   ----------------------------------------
SpoopHouse_8_017:
	.byte		N24   , Cn3 , v100
	.byte	W24
	.byte		        Gn2 
	.byte	W24
	.byte		N04   , Cn3 
	.byte	W04
	.byte		        Gn2 
	.byte	W04
	.byte		        Cn3 
	.byte	W04
	.byte		        Gn2 
	.byte	W04
	.byte		        Cn3 
	.byte	W04
	.byte		        Gn2 
	.byte	W04
	.byte		        Cn3 
	.byte	W04
	.byte		        Gn2 
	.byte	W04
	.byte		        Cn3 
	.byte	W04
	.byte		N12   , Gn2 
	.byte	W12
	.byte	PEND
@ 018   ----------------------------------------
	.byte		        Gs2 
	.byte	W12
	.byte		        As2 
	.byte	W12
	.byte		N04   , Bn2 
	.byte	W04
	.byte		        Gs2 
	.byte	W04
	.byte		        Bn2 
	.byte	W04
	.byte		        Gs2 
	.byte	W04
	.byte		        Bn2 
	.byte	W04
	.byte		        Gs2 
	.byte	W04
	.byte		N12   , Bn2 
	.byte	W12
	.byte		        Cs3 
	.byte	W12
	.byte		N04   , Ds3 
	.byte	W04
	.byte		        Bn2 
	.byte	W04
	.byte		        Ds3 
	.byte	W04
	.byte		        Bn2 
	.byte	W04
	.byte		        Ds3 
	.byte	W04
	.byte		        Bn2 
	.byte	W04
@ 019   ----------------------------------------
	.byte	PATT
	 .word	SpoopHouse_8_017
@ 020   ----------------------------------------
	.byte		N12   , Fs2 , v100
	.byte	W12
	.byte		        Gs2 
	.byte	W12
	.byte		        As2 
	.byte	W12
	.byte		        Bn2 
	.byte	W12
	.byte		        Cs3 
	.byte	W12
	.byte		        Ds3 
	.byte	W12
	.byte		        En3 
	.byte	W12
	.byte		        Fs3 
	.byte	W12
@ 021   ----------------------------------------
	.byte	PATT
	 .word	SpoopHouse_8_017
@ 022   ----------------------------------------
	.byte		N12   , Gs2 , v100
	.byte	W12
	.byte		        As2 
	.byte	W12
	.byte		N04   , Bn2 
	.byte	W04
	.byte		        Gs2 
	.byte	W04
	.byte		        Bn2 
	.byte	W04
	.byte		        Gs2 
	.byte	W04
	.byte		        Bn2 
	.byte	W04
	.byte		        Gs2 
	.byte	W04
	.byte		N11   , Bn2 
	.byte	W12
	.byte		        Cs3 
	.byte	W12
	.byte		N04   , Ds3 
	.byte	W04
	.byte		        Bn2 
	.byte	W04
	.byte		        Ds3 
	.byte	W04
	.byte		        Bn2 
	.byte	W04
	.byte		        Ds3 
	.byte	W04
	.byte		        Bn2 
	.byte	W04
@ 023   ----------------------------------------
	.byte		N24   , Cn3 
	.byte	W36
	.byte		N12   , Gn2 
	.byte	W12
	.byte		N24   , Bn2 
	.byte	W24
	.byte		        Dn3 
	.byte	W24
@ 024   ----------------------------------------
	.byte		        Ds3 
	.byte	W24
	.byte		N16   , Dn3 
	.byte	W18
	.byte		N07   
	.byte	W06
	.byte		N24   , Cn3 
	.byte	W48
@ 025   ----------------------------------------
	.byte	W96
@ 026   ----------------------------------------
	.byte	W96
@ 027   ----------------------------------------
	.byte	W96
@ 028   ----------------------------------------
	.byte	W96
@ 029   ----------------------------------------
	.byte		N36   , Cn2 , v112
	.byte	W36
	.byte		N12   , Ds2 , v127
	.byte	W12
	.byte		N24   , Gn2 , v116
	.byte	W24
	.byte		        Cn3 , v120
	.byte	W24
@ 030   ----------------------------------------
	.byte		N04   , Gn2 , v127
	.byte	W04
	.byte		        Fs2 
	.byte	W04
	.byte		        Gn2 
	.byte	W04
	.byte		        Fs2 
	.byte	W04
	.byte		        Gn2 
	.byte	W04
	.byte		        Fs2 
	.byte	W04
	.byte		        Gn2 
	.byte	W04
	.byte		        Fs2 
	.byte	W04
	.byte		        Gn2 
	.byte	W04
	.byte		        Fs2 
	.byte	W04
	.byte		        Gn2 
	.byte	W04
	.byte		        Fs2 
	.byte	W04
	.byte		N42   , Gn2 , v120
	.byte	W48
@ 031   ----------------------------------------
	.byte		N32   , Gs2 , v116
	.byte	W36
	.byte		N12   , Gn2 , v108
	.byte	W12
	.byte		N24   , Gs2 , v116
	.byte	W24
	.byte		        Gn2 , v108
	.byte	W24
@ 032   ----------------------------------------
	.byte		        Fs2 , v116
	.byte	W24
	.byte		        Dn2 , v120
	.byte	W24
	.byte		        Gn2 , v112
	.byte	W24
	.byte		        Gn1 , v104
	.byte	W24
@ 033   ----------------------------------------
	.byte	W96
@ 034   ----------------------------------------
	.byte	W96
@ 035   ----------------------------------------
	.byte	W96
@ 036   ----------------------------------------
	.byte	W96
@ 037   ----------------------------------------
	.byte	W96
@ 038   ----------------------------------------
	.byte	W96
@ 039   ----------------------------------------
	.byte	W96
@ 040   ----------------------------------------
	.byte	W96
@ 041   ----------------------------------------
	.byte	W96
@ 042   ----------------------------------------
	.byte	W96
@ 043   ----------------------------------------
	.byte	W96
@ 044   ----------------------------------------
	.byte	W96
@ 045   ----------------------------------------
	.byte	W96
@ 046   ----------------------------------------
	.byte	W96
@ 047   ----------------------------------------
	.byte	W96
@ 048   ----------------------------------------
	.byte	W96
@ 049   ----------------------------------------
	.byte	W96
@ 050   ----------------------------------------
	.byte	W96
@ 051   ----------------------------------------
	.byte	W96
@ 052   ----------------------------------------
	.byte	W96
@ 053   ----------------------------------------
	.byte	W96
@ 054   ----------------------------------------
	.byte	W96
@ 055   ----------------------------------------
SpoopHouse_8_055:
	.byte	W12
	.byte		N24   , Cs3 , v060
	.byte		N24   , En3 
	.byte	W24
	.byte		        Cs3 
	.byte		N24   , En3 
	.byte	W24
	.byte		        As2 
	.byte		N24   , Dn3 
	.byte	W24
	.byte		        As2 
	.byte		N24   , Dn3 
	.byte	W12
	.byte	PEND
@ 056   ----------------------------------------
	.byte	W12
	.byte		        Cs3 
	.byte		N24   , En3 
	.byte	W24
	.byte		        Cs3 
	.byte		N24   , En3 
	.byte	W24
	.byte		        Cn3 
	.byte		N24   , Ds3 
	.byte	W24
	.byte		        Cn3 
	.byte		N24   , Ds3 
	.byte	W12
@ 057   ----------------------------------------
	.byte	PATT
	 .word	SpoopHouse_8_055
@ 058   ----------------------------------------
	.byte	W12
	.byte		N24   , Cs3 , v060
	.byte		N24   , En3 
	.byte	W24
	.byte		        Cs3 
	.byte		N24   , En3 
	.byte	W24
	.byte		        Cn3 
	.byte		N24   , Ds3 
	.byte	W24
	.byte		N12   , Cn3 
	.byte		N12   , Ds3 
	.byte	W12
@ 059   ----------------------------------------
	.byte	W96
@ 060   ----------------------------------------
	.byte	W96
@ 061   ----------------------------------------
	.byte	W96
@ 062   ----------------------------------------
	.byte	W96
@ 063   ----------------------------------------
	.byte	W96
@ 064   ----------------------------------------
	.byte	W96
@ 065   ----------------------------------------
	.byte	W96
@ 066   ----------------------------------------
	.byte	W96
@ 067   ----------------------------------------
	.byte	W96
@ 068   ----------------------------------------
	.byte	W96
	.byte	GOTO
	 .word	SpoopHouse_8_B1
SpoopHouse_8_B2:
@ 069   ----------------------------------------
	.byte	FINE

@**************** Track 9 (Midi-Chn.9) ****************@

SpoopHouse_9:
	.byte	KEYSH , SpoopHouse_key+0
@ 000   ----------------------------------------
	.byte		VOICE , 11
	.byte		PAN   , c_v+21
	.byte		VOL   , 90*SpoopHouse_mvl/mxv
	.byte	W96
@ 001   ----------------------------------------
	.byte	W96
@ 002   ----------------------------------------
	.byte	W96
@ 003   ----------------------------------------
	.byte	W96
@ 004   ----------------------------------------
	.byte	W96
@ 005   ----------------------------------------
	.byte	W96
@ 006   ----------------------------------------
	.byte	W96
SpoopHouse_9_B1:
@ 007   ----------------------------------------
	.byte	W96
@ 008   ----------------------------------------
	.byte	W96
@ 009   ----------------------------------------
	.byte	W96
@ 010   ----------------------------------------
	.byte	W96
@ 011   ----------------------------------------
	.byte	W96
@ 012   ----------------------------------------
	.byte	W96
@ 013   ----------------------------------------
	.byte	W96
@ 014   ----------------------------------------
	.byte	W96
@ 015   ----------------------------------------
	.byte	W96
@ 016   ----------------------------------------
	.byte	W96
@ 017   ----------------------------------------
SpoopHouse_9_017:
	.byte		N12   , Cn5 , v052
	.byte	W12
	.byte		        Dn5 
	.byte	W12
	.byte		        Ds5 
	.byte	W12
	.byte		        Gn5 
	.byte	W12
	.byte		        Cn5 
	.byte	W12
	.byte		        Dn5 
	.byte	W12
	.byte		        Ds5 
	.byte	W12
	.byte		        Gn5 
	.byte	W12
	.byte	PEND
@ 018   ----------------------------------------
SpoopHouse_9_018:
	.byte		N12   , Gs4 , v052
	.byte	W12
	.byte		        As4 
	.byte	W12
	.byte		        Bn4 
	.byte	W12
	.byte		        Ds5 
	.byte	W12
	.byte		        Gs4 
	.byte	W12
	.byte		        As4 
	.byte	W12
	.byte		        Bn4 
	.byte	W12
	.byte		        Ds5 
	.byte	W12
	.byte	PEND
@ 019   ----------------------------------------
	.byte	PATT
	 .word	SpoopHouse_9_017
@ 020   ----------------------------------------
	.byte		N12   , As4 , v052
	.byte	W12
	.byte		        Cn5 
	.byte	W12
	.byte		        Cs5 
	.byte	W12
	.byte		        Fs5 
	.byte	W12
	.byte		        As4 
	.byte	W12
	.byte		        Cn5 
	.byte	W12
	.byte		        Cs5 
	.byte	W12
	.byte		        Fn5 
	.byte	W12
@ 021   ----------------------------------------
	.byte	PATT
	 .word	SpoopHouse_9_017
@ 022   ----------------------------------------
	.byte	PATT
	 .word	SpoopHouse_9_018
@ 023   ----------------------------------------
	.byte		N12   , Cn5 , v052
	.byte	W12
	.byte		        Dn5 
	.byte	W12
	.byte		        Ds5 
	.byte	W12
	.byte		        Gn5 
	.byte	W12
	.byte		        Bn4 
	.byte	W12
	.byte		        Cn5 
	.byte	W12
	.byte		        Dn5 
	.byte	W12
	.byte		        Fn5 
	.byte	W12
@ 024   ----------------------------------------
	.byte		        Cn5 
	.byte	W12
	.byte		        Dn5 
	.byte	W12
	.byte		        Ds5 
	.byte	W12
	.byte		        Gn5 
	.byte	W12
	.byte		        Cn6 
	.byte	W48
@ 025   ----------------------------------------
SpoopHouse_9_025:
	.byte		N12   , Cn5 , v052
	.byte	W12
	.byte		        Gn5 
	.byte	W12
	.byte		        Ds5 
	.byte	W12
	.byte		        Gn5 
	.byte	W12
	.byte		        Cn5 
	.byte	W12
	.byte		        Gn5 
	.byte	W12
	.byte		        Ds5 
	.byte	W12
	.byte		        Gn5 
	.byte	W12
	.byte	PEND
@ 026   ----------------------------------------
SpoopHouse_9_026:
	.byte		N12   , Cn5 , v052
	.byte	W12
	.byte		        Fs5 
	.byte	W12
	.byte		        Ds5 
	.byte	W12
	.byte		        Fs5 
	.byte	W12
	.byte		        Cn5 
	.byte	W12
	.byte		        Gn5 
	.byte	W12
	.byte		        Ds5 
	.byte	W12
	.byte		        Gn5 
	.byte	W12
	.byte	PEND
@ 027   ----------------------------------------
SpoopHouse_9_027:
	.byte		N12   , Cn5 , v052
	.byte	W12
	.byte		        Gs5 
	.byte	W12
	.byte		        Fn5 
	.byte	W12
	.byte		        Gs5 
	.byte	W12
	.byte		        Cn5 
	.byte	W12
	.byte		        Gs5 
	.byte	W12
	.byte		        Fn5 
	.byte	W12
	.byte		        Gs5 
	.byte	W12
	.byte	PEND
@ 028   ----------------------------------------
SpoopHouse_9_028:
	.byte		N12   , Cn5 , v052
	.byte	W12
	.byte		        An5 
	.byte	W12
	.byte		        Fs5 
	.byte	W12
	.byte		        An5 
	.byte	W12
	.byte		        Dn5 
	.byte	W12
	.byte		        Gn5 
	.byte	W12
	.byte		        Fn5 
	.byte	W12
	.byte		        Gn5 
	.byte	W12
	.byte	PEND
@ 029   ----------------------------------------
	.byte	PATT
	 .word	SpoopHouse_9_025
@ 030   ----------------------------------------
	.byte	PATT
	 .word	SpoopHouse_9_026
@ 031   ----------------------------------------
	.byte	PATT
	 .word	SpoopHouse_9_027
@ 032   ----------------------------------------
	.byte	PATT
	 .word	SpoopHouse_9_028
@ 033   ----------------------------------------
	.byte	W96
@ 034   ----------------------------------------
	.byte	W96
@ 035   ----------------------------------------
	.byte	W96
@ 036   ----------------------------------------
	.byte	W96
@ 037   ----------------------------------------
	.byte	W96
@ 038   ----------------------------------------
	.byte	W96
@ 039   ----------------------------------------
	.byte	W96
@ 040   ----------------------------------------
	.byte	W96
@ 041   ----------------------------------------
	.byte	W96
@ 042   ----------------------------------------
	.byte	W96
@ 043   ----------------------------------------
	.byte	W96
@ 044   ----------------------------------------
	.byte	W96
@ 045   ----------------------------------------
	.byte	W96
@ 046   ----------------------------------------
	.byte	W96
@ 047   ----------------------------------------
SpoopHouse_9_047:
	.byte		N12   , Cs5 , v052
	.byte	W12
	.byte		        Ds5 
	.byte	W12
	.byte		        En5 
	.byte	W12
	.byte		        Gs5 
	.byte	W12
	.byte		        Cs5 
	.byte	W12
	.byte		        Ds5 
	.byte	W12
	.byte		        En5 
	.byte	W12
	.byte		        Gs5 
	.byte	W12
	.byte	PEND
@ 048   ----------------------------------------
SpoopHouse_9_048:
	.byte		N12   , An4 , v052
	.byte	W12
	.byte		        Bn4 
	.byte	W12
	.byte		        Cn5 
	.byte	W12
	.byte		        En5 
	.byte	W12
	.byte		        An4 
	.byte	W12
	.byte		        Bn4 
	.byte	W12
	.byte		        Cn5 
	.byte	W12
	.byte		        En5 
	.byte	W12
	.byte	PEND
@ 049   ----------------------------------------
	.byte	PATT
	 .word	SpoopHouse_9_047
@ 050   ----------------------------------------
	.byte		N12   , Bn4 , v052
	.byte	W12
	.byte		        Cs5 
	.byte	W12
	.byte		        Dn5 
	.byte	W12
	.byte		        Gn5 
	.byte	W12
	.byte		        Bn4 
	.byte	W12
	.byte		        Cs5 
	.byte	W12
	.byte		        Dn5 
	.byte	W12
	.byte		        Fs5 
	.byte	W12
@ 051   ----------------------------------------
	.byte	PATT
	 .word	SpoopHouse_9_047
@ 052   ----------------------------------------
	.byte	PATT
	 .word	SpoopHouse_9_048
@ 053   ----------------------------------------
	.byte		N12   , Cs5 , v052
	.byte	W12
	.byte		        Ds5 
	.byte	W12
	.byte		        En5 
	.byte	W12
	.byte		        Gs5 
	.byte	W12
	.byte		        Cn5 
	.byte	W12
	.byte		        Cs5 
	.byte	W12
	.byte		        Ds5 
	.byte	W12
	.byte		        Fs5 
	.byte	W12
@ 054   ----------------------------------------
	.byte		        Cs5 
	.byte	W12
	.byte		        Ds5 
	.byte	W12
	.byte		        En5 
	.byte	W12
	.byte		        Gs5 
	.byte	W12
	.byte		        Cs6 
	.byte	W48
@ 055   ----------------------------------------
	.byte	W96
@ 056   ----------------------------------------
	.byte	W96
@ 057   ----------------------------------------
	.byte	W96
@ 058   ----------------------------------------
	.byte	W96
@ 059   ----------------------------------------
	.byte	W96
@ 060   ----------------------------------------
	.byte	W96
@ 061   ----------------------------------------
	.byte	W96
@ 062   ----------------------------------------
	.byte	W96
@ 063   ----------------------------------------
	.byte	W96
@ 064   ----------------------------------------
	.byte	W96
@ 065   ----------------------------------------
	.byte	W96
@ 066   ----------------------------------------
	.byte	W96
@ 067   ----------------------------------------
	.byte	W96
@ 068   ----------------------------------------
	.byte	W96
	.byte	GOTO
	 .word	SpoopHouse_9_B1
SpoopHouse_9_B2:
@ 069   ----------------------------------------
	.byte	FINE

@**************** Track 10 (Midi-Chn.11) ****************@

SpoopHouse_10:
	.byte	KEYSH , SpoopHouse_key+0
@ 000   ----------------------------------------
	.byte		VOICE , 73
	.byte		PAN   , c_v-19
	.byte		VOL   , 80*SpoopHouse_mvl/mxv
	.byte	W96
@ 001   ----------------------------------------
	.byte	W96
@ 002   ----------------------------------------
	.byte	W96
@ 003   ----------------------------------------
	.byte	W96
@ 004   ----------------------------------------
	.byte	W96
@ 005   ----------------------------------------
	.byte	W96
@ 006   ----------------------------------------
	.byte	W96
SpoopHouse_10_B1:
@ 007   ----------------------------------------
	.byte	W96
@ 008   ----------------------------------------
	.byte	W96
@ 009   ----------------------------------------
	.byte	W96
@ 010   ----------------------------------------
	.byte	W96
@ 011   ----------------------------------------
	.byte	W96
@ 012   ----------------------------------------
	.byte	W96
@ 013   ----------------------------------------
	.byte	W96
@ 014   ----------------------------------------
	.byte	W96
@ 015   ----------------------------------------
	.byte	W96
@ 016   ----------------------------------------
	.byte	W96
@ 017   ----------------------------------------
	.byte	W96
@ 018   ----------------------------------------
	.byte	W96
@ 019   ----------------------------------------
	.byte	W96
@ 020   ----------------------------------------
	.byte	W96
@ 021   ----------------------------------------
	.byte	W96
@ 022   ----------------------------------------
	.byte	W96
@ 023   ----------------------------------------
	.byte	W96
@ 024   ----------------------------------------
	.byte	W96
@ 025   ----------------------------------------
	.byte	W96
@ 026   ----------------------------------------
	.byte	W96
@ 027   ----------------------------------------
	.byte	W96
@ 028   ----------------------------------------
	.byte	W96
@ 029   ----------------------------------------
	.byte		N23   , Cn3 , v104
	.byte	W36
	.byte		N10   , Ds3 , v120
	.byte	W12
	.byte		N15   , Gn3 , v104
	.byte	W24
	.byte		N17   , Cn4 , v112
	.byte	W24
@ 030   ----------------------------------------
	.byte		N04   , Gn3 , v120
	.byte	W04
	.byte		        Fs3 
	.byte	W04
	.byte		        Gn3 
	.byte	W04
	.byte		        Fs3 
	.byte	W04
	.byte		        Gn3 
	.byte	W04
	.byte		        Fs3 
	.byte	W04
	.byte		        Gn3 
	.byte	W04
	.byte		        Fs3 
	.byte	W04
	.byte		        Gn3 
	.byte	W04
	.byte		        Fs3 
	.byte	W04
	.byte		        Gn3 
	.byte	W04
	.byte		        Fs3 
	.byte	W04
	.byte		N24   , Gn3 , v112
	.byte	W48
@ 031   ----------------------------------------
	.byte		        Gs3 , v108
	.byte	W36
	.byte		N08   , Gn3 , v100
	.byte	W12
	.byte		N13   , Gs3 , v104
	.byte	W24
	.byte		N16   , Gn3 , v096
	.byte	W24
@ 032   ----------------------------------------
	.byte		N20   , Fs3 , v104
	.byte	W24
	.byte		N24   , Dn3 , v112
	.byte	W24
	.byte		N23   , Gn3 , v100
	.byte	W24
	.byte		N24   , Gn2 , v096
	.byte	W24
@ 033   ----------------------------------------
	.byte		N06   , Cn3 , v036
	.byte	W06
	.byte		        Ds3 
	.byte	W06
	.byte		        Gn3 
	.byte	W06
	.byte		        Cn4 
	.byte	W06
	.byte		        Ds4 
	.byte	W06
	.byte		        Cn4 
	.byte	W06
	.byte		        Gn3 
	.byte	W06
	.byte		        Fs3 
	.byte	W06
	.byte		        An3 
	.byte	W06
	.byte		        Cs4 
	.byte	W06
	.byte		        Fs4 
	.byte	W06
	.byte		        An4 
	.byte	W06
	.byte		        Fs4 
	.byte	W06
	.byte		        Cs4 
	.byte	W06
	.byte		        An3 
	.byte	W06
	.byte		        Fs3 
	.byte	W06
@ 034   ----------------------------------------
	.byte		        Ds3 
	.byte	W06
	.byte		        Gn3 
	.byte	W06
	.byte		        Cn4 
	.byte	W06
	.byte		        Ds4 
	.byte	W06
	.byte		        Gn4 
	.byte	W06
	.byte		        Ds4 
	.byte	W06
	.byte		        Cn4 
	.byte	W06
	.byte		        Bn3 
	.byte	W06
	.byte		        Dn4 
	.byte	W06
	.byte		        Fs4 
	.byte	W06
	.byte		        Bn4 
	.byte	W06
	.byte		        Dn5 
	.byte	W06
	.byte		        Bn4 
	.byte	W06
	.byte		        Fs4 
	.byte	W06
	.byte		        Dn4 
	.byte	W06
	.byte		        Bn3 
	.byte	W06
@ 035   ----------------------------------------
	.byte		        Cn4 
	.byte	W06
	.byte		        Gn3 
	.byte	W06
	.byte		        Cn4 
	.byte	W06
	.byte		        Ds4 
	.byte	W06
	.byte		        Cn4 
	.byte	W06
	.byte		        Gn3 
	.byte	W06
	.byte		        Ds3 
	.byte	W06
	.byte		        Cs3 
	.byte	W06
	.byte		        Fs3 
	.byte	W06
	.byte		        An3 
	.byte	W06
	.byte		        Cs4 
	.byte	W06
	.byte		        Fs4 
	.byte	W06
	.byte		        An4 
	.byte	W06
	.byte		        Fs4 
	.byte	W06
	.byte		        Cs4 
	.byte	W06
	.byte		        An3 
	.byte	W06
@ 036   ----------------------------------------
	.byte		        Gn3 
	.byte	W06
	.byte		        Ds3 
	.byte	W06
	.byte		        Gn3 
	.byte	W06
	.byte		        Cn4 
	.byte	W06
	.byte		        Ds4 
	.byte	W06
	.byte		        Gn4 
	.byte	W06
	.byte		        Ds4 
	.byte	W06
	.byte		        Cs4 
	.byte	W06
	.byte		        Bn3 
	.byte	W06
	.byte		        Dn4 
	.byte	W06
	.byte		        Fs4 
	.byte	W06
	.byte		        Bn4 
	.byte	W06
	.byte		        Fs4 
	.byte	W06
	.byte		        Dn4 
	.byte	W06
	.byte		        Bn3 
	.byte	W06
	.byte		        Fs3 
	.byte	W06
@ 037   ----------------------------------------
	.byte	W96
@ 038   ----------------------------------------
	.byte	W96
@ 039   ----------------------------------------
	.byte		N12   , Cs4 , v096
	.byte	W24
	.byte		N09   , Gs3 
	.byte	W24
	.byte		N32   , Cs4 
	.byte	W36
	.byte		N07   , Gs3 
	.byte	W12
@ 040   ----------------------------------------
	.byte		N04   , An3 
	.byte	W12
	.byte		N05   , Bn3 
	.byte	W12
	.byte		N16   , Cn4 
	.byte	W24
	.byte		N05   
	.byte	W12
	.byte		        Dn4 
	.byte	W12
	.byte		N20   , En4 
	.byte	W24
@ 041   ----------------------------------------
	.byte		N07   , Cs4 
	.byte	W24
	.byte		N08   , Gs3 
	.byte	W24
	.byte		N32   , Cs4 
	.byte	W36
	.byte		N07   , Gs3 
	.byte	W12
@ 042   ----------------------------------------
	.byte		N05   , Gn3 
	.byte	W12
	.byte		        An3 
	.byte	W12
	.byte		N06   , Bn3 
	.byte	W12
	.byte		        Cn4 
	.byte	W12
	.byte		N04   , Dn4 
	.byte	W12
	.byte		N05   , En4 
	.byte	W12
	.byte		N06   , Fn4 
	.byte	W12
	.byte		        Gn4 
	.byte	W12
@ 043   ----------------------------------------
	.byte		N10   , Cs4 
	.byte	W24
	.byte		N08   , Gs3 
	.byte	W24
	.byte		N32   , Cs4 
	.byte	W36
	.byte		N07   , Gs3 
	.byte	W12
@ 044   ----------------------------------------
	.byte		N05   , An3 
	.byte	W12
	.byte		N06   , Bn3 
	.byte	W12
	.byte		N17   , Cn4 
	.byte	W24
	.byte		N07   
	.byte	W12
	.byte		N05   , Dn4 
	.byte	W12
	.byte		N17   , En4 
	.byte	W24
@ 045   ----------------------------------------
	.byte		N30   , Cs4 
	.byte	W36
	.byte		N08   , Gs3 
	.byte	W12
	.byte		N17   , Cn4 
	.byte	W24
	.byte		N18   , Ds4 
	.byte	W24
@ 046   ----------------------------------------
	.byte		N21   , En4 
	.byte	W24
	.byte		N08   , Ds4 
	.byte	W18
	.byte		N07   
	.byte	W06
	.byte		N13   , Cs4 
	.byte	W48
@ 047   ----------------------------------------
	.byte	W96
@ 048   ----------------------------------------
	.byte	W96
@ 049   ----------------------------------------
	.byte	W96
@ 050   ----------------------------------------
	.byte	W96
@ 051   ----------------------------------------
	.byte	W96
@ 052   ----------------------------------------
	.byte	W96
@ 053   ----------------------------------------
	.byte	W96
@ 054   ----------------------------------------
	.byte	W96
@ 055   ----------------------------------------
	.byte	W96
@ 056   ----------------------------------------
	.byte	W96
@ 057   ----------------------------------------
	.byte		N06   , Cs4 , v048
	.byte	W06
	.byte		        Gs3 
	.byte	W06
	.byte		        Cs4 
	.byte	W06
	.byte		        En4 
	.byte	W06
	.byte		        Cs4 
	.byte	W06
	.byte		        Gs3 
	.byte	W06
	.byte		        En3 
	.byte	W06
	.byte		        Dn3 
	.byte	W06
	.byte		        Gn3 
	.byte	W06
	.byte		        As3 
	.byte	W06
	.byte		        Dn4 
	.byte	W06
	.byte		        Gn4 
	.byte	W06
	.byte		        As4 
	.byte	W06
	.byte		        Gn4 
	.byte	W06
	.byte		        Dn4 
	.byte	W06
	.byte		        As3 
	.byte	W06
@ 058   ----------------------------------------
	.byte		        Gs3 
	.byte	W06
	.byte		        En3 
	.byte	W06
	.byte		        Gs3 
	.byte	W06
	.byte		        Cs4 
	.byte	W06
	.byte		        En4 
	.byte	W06
	.byte		        Gs4 
	.byte	W06
	.byte		        En4 
	.byte	W06
	.byte		        Dn4 
	.byte	W06
	.byte		        Cn4 
	.byte	W06
	.byte		        Ds4 
	.byte	W06
	.byte		        Gn4 
	.byte	W06
	.byte		        Cn5 
	.byte	W06
	.byte		        Gn4 
	.byte	W06
	.byte		        Ds4 
	.byte	W06
	.byte		        Cn4 
	.byte	W06
	.byte		        Gn3 
	.byte	W06
@ 059   ----------------------------------------
SpoopHouse_10_059:
	.byte	W12
	.byte		N09   , Cs3 , v060
	.byte		N09   , En3 
	.byte		N09   , Gs3 
	.byte	W24
	.byte		        Cs3 
	.byte		N09   , En3 
	.byte		N09   , Gs3 
	.byte	W24
	.byte		        As2 
	.byte		N09   , Dn3 
	.byte		N09   , Gn3 
	.byte	W24
	.byte		        As2 
	.byte		N09   , Dn3 
	.byte		N09   , Gn3 
	.byte	W12
	.byte	PEND
@ 060   ----------------------------------------
SpoopHouse_10_060:
	.byte	W12
	.byte		N09   , Cs3 , v060
	.byte		N09   , En3 
	.byte		N09   , Gs3 
	.byte	W24
	.byte		        Cs3 
	.byte		N09   , En3 
	.byte		N09   , Gs3 
	.byte	W24
	.byte		        Cn3 
	.byte		N09   , Ds3 
	.byte		N09   , Gn3 
	.byte	W24
	.byte		        Cn3 
	.byte		N09   , Ds3 
	.byte		N09   , Gn3 
	.byte	W12
	.byte	PEND
@ 061   ----------------------------------------
	.byte	PATT
	 .word	SpoopHouse_10_059
@ 062   ----------------------------------------
	.byte	PATT
	 .word	SpoopHouse_10_060
@ 063   ----------------------------------------
	.byte		N19   , Cs4 , v112
	.byte	W24
	.byte		N07   , Gs3 
	.byte	W12
	.byte		N06   , Cs4 
	.byte	W12
	.byte		N17   , Ds4 
	.byte	W24
	.byte		N19   , Fn4 
	.byte	W24
@ 064   ----------------------------------------
	.byte		N24   , Cn4 
	.byte	W36
	.byte		N06   , Dn4 
	.byte	W12
	.byte		N40   , En4 
	.byte	W48
@ 065   ----------------------------------------
	.byte		N16   , Bn3 
	.byte	W24
	.byte		N07   , Fs3 
	.byte	W12
	.byte		N04   , Bn3 
	.byte	W12
	.byte		N18   , Cs4 
	.byte	W24
	.byte		N19   , Ds4 
	.byte	W24
@ 066   ----------------------------------------
	.byte		N24   , As3 
	.byte	W36
	.byte		N06   , Cn4 
	.byte	W12
	.byte		N42   , Dn4 
	.byte	W48
@ 067   ----------------------------------------
	.byte		N21   , En3 
	.byte	W24
	.byte		        Bn3 
	.byte	W24
	.byte		        Cn4 
	.byte	W24
	.byte		N16   , Fn3 
	.byte	W24
@ 068   ----------------------------------------
	.byte		N22   , Fs3 
	.byte	W24
	.byte		N19   , Cs4 
	.byte	W24
	.byte		N22   , Dn4 
	.byte	W24
	.byte		        Gn3 
	.byte	W24
	.byte	GOTO
	 .word	SpoopHouse_10_B1
SpoopHouse_10_B2:
@ 069   ----------------------------------------
	.byte	FINE

@**************** Track 11 (Midi-Chn.12) ****************@

SpoopHouse_11:
	.byte	KEYSH , SpoopHouse_key+0
@ 000   ----------------------------------------
	.byte		VOICE , 73
	.byte		PAN   , c_v+16
	.byte		VOL   , 90*SpoopHouse_mvl/mxv
	.byte	W96
@ 001   ----------------------------------------
	.byte	W96
@ 002   ----------------------------------------
	.byte	W96
@ 003   ----------------------------------------
	.byte	W96
@ 004   ----------------------------------------
	.byte	W96
@ 005   ----------------------------------------
	.byte	W96
@ 006   ----------------------------------------
	.byte	W96
SpoopHouse_11_B1:
@ 007   ----------------------------------------
	.byte	W96
@ 008   ----------------------------------------
	.byte	W96
@ 009   ----------------------------------------
	.byte	W96
@ 010   ----------------------------------------
	.byte	W96
@ 011   ----------------------------------------
	.byte	W96
@ 012   ----------------------------------------
	.byte	W96
@ 013   ----------------------------------------
	.byte	W96
@ 014   ----------------------------------------
	.byte	W96
@ 015   ----------------------------------------
	.byte	W96
@ 016   ----------------------------------------
	.byte	W96
@ 017   ----------------------------------------
	.byte	W96
@ 018   ----------------------------------------
	.byte	W96
@ 019   ----------------------------------------
	.byte	W96
@ 020   ----------------------------------------
	.byte	W96
@ 021   ----------------------------------------
	.byte	W96
@ 022   ----------------------------------------
	.byte	W96
@ 023   ----------------------------------------
	.byte	W96
@ 024   ----------------------------------------
	.byte	W96
@ 025   ----------------------------------------
	.byte	W96
@ 026   ----------------------------------------
	.byte	W96
@ 027   ----------------------------------------
	.byte	W96
@ 028   ----------------------------------------
	.byte	W96
@ 029   ----------------------------------------
	.byte	W96
@ 030   ----------------------------------------
	.byte	W96
@ 031   ----------------------------------------
	.byte	W96
@ 032   ----------------------------------------
	.byte	W96
@ 033   ----------------------------------------
	.byte		N06   , Cn4 , v056
	.byte	W06
	.byte		        Ds4 
	.byte	W06
	.byte		        Gn4 
	.byte	W06
	.byte		        Cn5 
	.byte	W06
	.byte		        Ds5 
	.byte	W06
	.byte		        Cn5 
	.byte	W06
	.byte		        Gn4 
	.byte	W06
	.byte		        Fs4 
	.byte	W06
	.byte		        An4 
	.byte	W06
	.byte		        Cs5 
	.byte	W06
	.byte		        Fs5 
	.byte	W06
	.byte		        An5 
	.byte	W06
	.byte		        Fs5 
	.byte	W06
	.byte		        Cs5 
	.byte	W06
	.byte		        An4 
	.byte	W06
	.byte		        Fs4 
	.byte	W06
@ 034   ----------------------------------------
	.byte		        Ds4 
	.byte	W06
	.byte		        Gn4 
	.byte	W06
	.byte		        Cn5 
	.byte	W06
	.byte		        Ds5 
	.byte	W06
	.byte		        Gn5 
	.byte	W06
	.byte		        Ds5 
	.byte	W06
	.byte		        Cn5 
	.byte	W06
	.byte		        Bn4 
	.byte	W06
	.byte		        Dn5 
	.byte	W06
	.byte		        Fs5 
	.byte	W06
	.byte		        Bn5 
	.byte	W06
	.byte		        Dn6 
	.byte	W06
	.byte		        Bn5 
	.byte	W06
	.byte		        Fs5 
	.byte	W06
	.byte		        Dn5 
	.byte	W06
	.byte		        Bn4 
	.byte	W06
@ 035   ----------------------------------------
	.byte		        Cn5 
	.byte	W06
	.byte		        Gn4 
	.byte	W06
	.byte		        Cn5 
	.byte	W06
	.byte		        Ds5 
	.byte	W06
	.byte		        Cn5 
	.byte	W06
	.byte		        Gn4 
	.byte	W06
	.byte		        Ds4 
	.byte	W06
	.byte		        Cs4 
	.byte	W06
	.byte		        Fs4 
	.byte	W06
	.byte		        An4 
	.byte	W06
	.byte		        Cs5 
	.byte	W06
	.byte		        Fs5 
	.byte	W06
	.byte		        An5 
	.byte	W06
	.byte		        Fs5 
	.byte	W06
	.byte		        Cs5 
	.byte	W06
	.byte		        An4 
	.byte	W06
@ 036   ----------------------------------------
	.byte		        Gn4 
	.byte	W06
	.byte		        Ds4 
	.byte	W06
	.byte		        Gn4 
	.byte	W06
	.byte		        Cn5 
	.byte	W06
	.byte		        Ds5 
	.byte	W06
	.byte		        Gn5 
	.byte	W06
	.byte		        Ds5 
	.byte	W06
	.byte		        Cs5 
	.byte	W06
	.byte		        Bn4 
	.byte	W06
	.byte		        Dn5 
	.byte	W06
	.byte		        Fs5 
	.byte	W06
	.byte		        Bn5 
	.byte	W06
	.byte		        Fs5 
	.byte	W06
	.byte		        Dn5 
	.byte	W06
	.byte		        Bn4 
	.byte	W06
	.byte		        Fs4 
	.byte	W06
@ 037   ----------------------------------------
	.byte	W96
@ 038   ----------------------------------------
	.byte	W96
@ 039   ----------------------------------------
SpoopHouse_11_039:
	.byte		N04   , Cs4 , v052
	.byte	W04
	.byte		        En4 
	.byte	W04
	.byte		        Gs4 
	.byte	W04
	.byte		        Cs5 
	.byte	W04
	.byte		        En5 
	.byte	W04
	.byte		        Gs5 
	.byte	W04
	.byte		        Cs6 
	.byte	W04
	.byte		        Gs5 
	.byte	W04
	.byte		        En5 
	.byte	W04
	.byte		        Cs5 
	.byte	W04
	.byte		        Gs4 
	.byte	W04
	.byte		        En4 
	.byte	W04
	.byte		        Cs4 
	.byte	W04
	.byte		        En4 
	.byte	W04
	.byte		        Gs4 
	.byte	W04
	.byte		        Cs5 
	.byte	W04
	.byte		        En5 
	.byte	W04
	.byte		        Gs5 
	.byte	W04
	.byte		        Cs6 
	.byte	W04
	.byte		        Gs5 
	.byte	W04
	.byte		        En5 
	.byte	W04
	.byte		        Cs5 
	.byte	W04
	.byte		        Gs4 
	.byte	W04
	.byte		        En4 
	.byte	W04
	.byte	PEND
@ 040   ----------------------------------------
SpoopHouse_11_040:
	.byte		N04   , An3 , v052
	.byte	W04
	.byte		        Cn4 
	.byte	W04
	.byte		        En4 
	.byte	W04
	.byte		        An4 
	.byte	W04
	.byte		        Cn5 
	.byte	W04
	.byte		        En5 
	.byte	W04
	.byte		        An5 
	.byte	W04
	.byte		        En5 
	.byte	W04
	.byte		        Cn5 
	.byte	W04
	.byte		        An4 
	.byte	W04
	.byte		        En4 
	.byte	W04
	.byte		        Cn4 
	.byte	W04
	.byte		        An3 
	.byte	W04
	.byte		        Cn4 
	.byte	W04
	.byte		        En4 
	.byte	W04
	.byte		        An4 
	.byte	W04
	.byte		        Cn5 
	.byte	W04
	.byte		        En5 
	.byte	W04
	.byte		        An5 
	.byte	W04
	.byte		        En5 
	.byte	W04
	.byte		        Cn5 
	.byte	W04
	.byte		        An4 
	.byte	W04
	.byte		        En4 
	.byte	W04
	.byte		        Cn4 
	.byte	W04
	.byte	PEND
@ 041   ----------------------------------------
	.byte	PATT
	 .word	SpoopHouse_11_039
@ 042   ----------------------------------------
	.byte		N04   , Bn3 , v052
	.byte	W04
	.byte		        Dn4 
	.byte	W04
	.byte		        Gn4 
	.byte	W04
	.byte		        Bn4 
	.byte	W04
	.byte		        Dn5 
	.byte	W04
	.byte		        Gn5 
	.byte	W04
	.byte		        Bn5 
	.byte	W04
	.byte		        Gn5 
	.byte	W04
	.byte		        Dn5 
	.byte	W04
	.byte		        Bn4 
	.byte	W04
	.byte		        Gn4 
	.byte	W04
	.byte		        Dn4 
	.byte	W04
	.byte		        Bn3 
	.byte	W04
	.byte		        Dn4 
	.byte	W04
	.byte		        Gn4 
	.byte	W04
	.byte		        Bn4 
	.byte	W04
	.byte		        Dn5 
	.byte	W04
	.byte		        Gn5 
	.byte	W04
	.byte		        Bn5 
	.byte	W04
	.byte		        Gn5 
	.byte	W04
	.byte		        Dn5 
	.byte	W04
	.byte		        Bn4 
	.byte	W04
	.byte		        Gn4 
	.byte	W04
	.byte		        Dn4 
	.byte	W04
@ 043   ----------------------------------------
	.byte	PATT
	 .word	SpoopHouse_11_039
@ 044   ----------------------------------------
	.byte	PATT
	 .word	SpoopHouse_11_040
@ 045   ----------------------------------------
	.byte		N04   , Cs4 , v052
	.byte	W04
	.byte		        En4 
	.byte	W04
	.byte		        Gs4 
	.byte	W04
	.byte		        Cs5 
	.byte	W04
	.byte		        En5 
	.byte	W04
	.byte		        Gs5 
	.byte	W04
	.byte		        Cs6 
	.byte	W04
	.byte		        Gs5 
	.byte	W04
	.byte		        En5 
	.byte	W04
	.byte		        Cs5 
	.byte	W04
	.byte		        Gs4 
	.byte	W04
	.byte		        En4 
	.byte	W04
	.byte		        Gs3 
	.byte	W04
	.byte		        Cn4 
	.byte	W04
	.byte		        Ds4 
	.byte	W04
	.byte		        Gs4 
	.byte	W04
	.byte		        Cn5 
	.byte	W04
	.byte		        Ds5 
	.byte	W04
	.byte		        Gs5 
	.byte	W04
	.byte		        Ds5 
	.byte	W04
	.byte		        Cn5 
	.byte	W04
	.byte		        Gs4 
	.byte	W04
	.byte		        Ds4 
	.byte	W04
	.byte		        Cn4 
	.byte	W04
@ 046   ----------------------------------------
	.byte	PATT
	 .word	SpoopHouse_11_039
@ 047   ----------------------------------------
	.byte	W96
@ 048   ----------------------------------------
	.byte	W96
@ 049   ----------------------------------------
	.byte	W96
@ 050   ----------------------------------------
	.byte	W96
@ 051   ----------------------------------------
	.byte	W96
@ 052   ----------------------------------------
	.byte	W96
@ 053   ----------------------------------------
	.byte	W96
@ 054   ----------------------------------------
	.byte	W96
@ 055   ----------------------------------------
SpoopHouse_11_055:
	.byte		N06   , Cs4 , v056
	.byte	W06
	.byte		        En4 
	.byte	W06
	.byte		        Gs4 
	.byte	W06
	.byte		        Cs5 
	.byte	W06
	.byte		        En5 
	.byte	W06
	.byte		        Cs5 
	.byte	W06
	.byte		        Gs4 
	.byte	W06
	.byte		        Gn4 
	.byte	W06
	.byte		        As4 
	.byte	W06
	.byte		        Dn5 
	.byte	W06
	.byte		        Gn5 
	.byte	W06
	.byte		        As5 
	.byte	W06
	.byte		        Gn5 
	.byte	W06
	.byte		        Dn5 
	.byte	W06
	.byte		        As4 
	.byte	W06
	.byte		        Gn4 
	.byte	W06
	.byte	PEND
@ 056   ----------------------------------------
SpoopHouse_11_056:
	.byte		N06   , En4 , v056
	.byte	W06
	.byte		        Gs4 
	.byte	W06
	.byte		        Cs5 
	.byte	W06
	.byte		        En5 
	.byte	W06
	.byte		        Gs5 
	.byte	W06
	.byte		        En5 
	.byte	W06
	.byte		        Cs5 
	.byte	W06
	.byte		        Cn5 
	.byte	W06
	.byte		        Ds5 
	.byte	W06
	.byte		        Gn5 
	.byte	W06
	.byte		        Cn6 
	.byte	W06
	.byte		        Ds6 
	.byte	W06
	.byte		        Cn6 
	.byte	W06
	.byte		        Gn5 
	.byte	W06
	.byte		        Ds5 
	.byte	W06
	.byte		        Cn5 
	.byte	W06
	.byte	PEND
@ 057   ----------------------------------------
SpoopHouse_11_057:
	.byte		N06   , Cs5 , v056
	.byte	W06
	.byte		        Gs4 
	.byte	W06
	.byte		        Cs5 
	.byte	W06
	.byte		        En5 
	.byte	W06
	.byte		        Cs5 
	.byte	W06
	.byte		        Gs4 
	.byte	W06
	.byte		        En4 
	.byte	W06
	.byte		        Dn4 
	.byte	W06
	.byte		        Gn4 
	.byte	W06
	.byte		        As4 
	.byte	W06
	.byte		        Dn5 
	.byte	W06
	.byte		        Gn5 
	.byte	W06
	.byte		        As5 
	.byte	W06
	.byte		        Gn5 
	.byte	W06
	.byte		        Dn5 
	.byte	W06
	.byte		        As4 
	.byte	W06
	.byte	PEND
@ 058   ----------------------------------------
SpoopHouse_11_058:
	.byte		N06   , Gs4 , v056
	.byte	W06
	.byte		        En4 
	.byte	W06
	.byte		        Gs4 
	.byte	W06
	.byte		        Cs5 
	.byte	W06
	.byte		        En5 
	.byte	W06
	.byte		        Gs5 
	.byte	W06
	.byte		        En5 
	.byte	W06
	.byte		        Dn5 
	.byte	W06
	.byte		        Cn5 
	.byte	W06
	.byte		        Ds5 
	.byte	W06
	.byte		        Gn5 
	.byte	W06
	.byte		        Cn6 
	.byte	W06
	.byte		        Gn5 
	.byte	W06
	.byte		        Ds5 
	.byte	W06
	.byte		        Cn5 
	.byte	W06
	.byte		        Gn4 
	.byte	W06
	.byte	PEND
@ 059   ----------------------------------------
	.byte	PATT
	 .word	SpoopHouse_11_055
@ 060   ----------------------------------------
	.byte	PATT
	 .word	SpoopHouse_11_056
@ 061   ----------------------------------------
	.byte	PATT
	 .word	SpoopHouse_11_057
@ 062   ----------------------------------------
	.byte	PATT
	 .word	SpoopHouse_11_058
@ 063   ----------------------------------------
	.byte	W96
@ 064   ----------------------------------------
	.byte	W36
	.byte		N04   , Cn5 , v052
	.byte		N04   , En5 
	.byte		N04   , Gn5 , v060
	.byte	W06
	.byte		N03   , Cn5 , v052
	.byte		N03   , En5 
	.byte		N03   , Gn5 , v040
	.byte	W06
	.byte		N05   , Cn5 , v056
	.byte		N05   , En5 , v052
	.byte		N05   , Gn5 , v036
	.byte	W12
	.byte		        Cn5 , v060
	.byte		N05   , En5 , v052
	.byte	W12
	.byte		N06   , Cn5 
	.byte		N04   , En5 , v056
	.byte		N05   , Gn5 , v060
	.byte	W12
	.byte		N06   , En5 , v052
	.byte		N05   , Gn5 
	.byte		N05   , Cn6 , v060
	.byte	W12
@ 065   ----------------------------------------
	.byte		N48   , Ds5 , v052
	.byte		N48   , Fs5 
	.byte		N48   , Bn5 , v068
	.byte	W96
@ 066   ----------------------------------------
	.byte	W96
@ 067   ----------------------------------------
	.byte		N22   , En4 
	.byte		N20   , En5 
	.byte	W24
	.byte		N18   , Bn4 
	.byte		N17   , Bn5 
	.byte	W24
	.byte		N19   , Cn5 , v064
	.byte		N17   , Cn6 , v060
	.byte	W24
	.byte		N16   , Fn4 
	.byte		N16   , Fn5 , v064
	.byte	W24
@ 068   ----------------------------------------
	.byte		N19   , Fs4 , v068
	.byte		N17   , Fs5 
	.byte	W24
	.byte		N16   , Cs5 
	.byte		N17   , Cs6 
	.byte	W24
	.byte		N15   , Dn5 
	.byte		N16   , Dn6 
	.byte	W24
	.byte		N21   , Gn4 
	.byte		N20   , Gn5 
	.byte	W24
	.byte	GOTO
	 .word	SpoopHouse_11_B1
SpoopHouse_11_B2:
@ 069   ----------------------------------------
	.byte	FINE

@**************** Track 12 (Midi-Chn.16) ****************@

SpoopHouse_12:
	.byte	KEYSH , SpoopHouse_key+0
@ 000   ----------------------------------------
	.byte		VOICE , 39
	.byte		PAN   , c_v-9
	.byte		VOL   , 110*SpoopHouse_mvl/mxv
	.byte	W96
@ 001   ----------------------------------------
	.byte	W96
@ 002   ----------------------------------------
	.byte	W96
@ 003   ----------------------------------------
	.byte	W96
@ 004   ----------------------------------------
	.byte	W96
@ 005   ----------------------------------------
	.byte	W96
@ 006   ----------------------------------------
	.byte	W96
SpoopHouse_12_B1:
@ 007   ----------------------------------------
	.byte	W96
@ 008   ----------------------------------------
	.byte	W96
@ 009   ----------------------------------------
	.byte	W96
@ 010   ----------------------------------------
	.byte	W96
@ 011   ----------------------------------------
	.byte	W96
@ 012   ----------------------------------------
	.byte	W96
@ 013   ----------------------------------------
	.byte	W96
@ 014   ----------------------------------------
	.byte	W96
@ 015   ----------------------------------------
	.byte	W96
@ 016   ----------------------------------------
	.byte	W96
@ 017   ----------------------------------------
	.byte	W96
@ 018   ----------------------------------------
	.byte	W96
@ 019   ----------------------------------------
	.byte	W96
@ 020   ----------------------------------------
	.byte	W96
@ 021   ----------------------------------------
	.byte	W96
@ 022   ----------------------------------------
	.byte	W96
@ 023   ----------------------------------------
	.byte	W96
@ 024   ----------------------------------------
	.byte	W96
@ 025   ----------------------------------------
	.byte	W96
@ 026   ----------------------------------------
	.byte	W96
@ 027   ----------------------------------------
	.byte	W96
@ 028   ----------------------------------------
	.byte	W96
@ 029   ----------------------------------------
	.byte	W96
@ 030   ----------------------------------------
	.byte	W96
@ 031   ----------------------------------------
	.byte	W96
@ 032   ----------------------------------------
	.byte	W96
@ 033   ----------------------------------------
	.byte	W96
@ 034   ----------------------------------------
	.byte	W96
@ 035   ----------------------------------------
	.byte	W96
@ 036   ----------------------------------------
	.byte	W96
@ 037   ----------------------------------------
	.byte	W96
@ 038   ----------------------------------------
	.byte	W96
@ 039   ----------------------------------------
	.byte	W96
@ 040   ----------------------------------------
	.byte	W96
@ 041   ----------------------------------------
	.byte	W96
@ 042   ----------------------------------------
	.byte	W96
@ 043   ----------------------------------------
	.byte	W96
@ 044   ----------------------------------------
	.byte	W96
@ 045   ----------------------------------------
	.byte	W96
@ 046   ----------------------------------------
	.byte	W96
@ 047   ----------------------------------------
SpoopHouse_12_047:
	.byte		N12   , Cs3 , v127
	.byte	W24
	.byte		        Gs2 
	.byte	W24
	.byte		        Cs3 
	.byte	W36
	.byte		        Gs2 
	.byte	W12
	.byte	PEND
@ 048   ----------------------------------------
SpoopHouse_12_048:
	.byte		N12   , An2 , v127
	.byte	W12
	.byte		        Bn2 
	.byte	W12
	.byte		        Cn3 
	.byte	W24
	.byte		N12   
	.byte	W12
	.byte		        Dn3 
	.byte	W12
	.byte		        En3 
	.byte	W24
	.byte	PEND
@ 049   ----------------------------------------
	.byte	PATT
	 .word	SpoopHouse_12_047
@ 050   ----------------------------------------
	.byte		N12   , Gn2 , v127
	.byte	W12
	.byte		        An2 
	.byte	W12
	.byte		        Bn2 
	.byte	W12
	.byte		        Cn3 
	.byte	W12
	.byte		        Dn3 
	.byte	W12
	.byte		        En3 
	.byte	W12
	.byte		        Fn3 
	.byte	W12
	.byte		        Gn3 
	.byte	W12
@ 051   ----------------------------------------
	.byte	PATT
	 .word	SpoopHouse_12_047
@ 052   ----------------------------------------
	.byte	PATT
	 .word	SpoopHouse_12_048
@ 053   ----------------------------------------
	.byte		N12   , Cs3 , v127
	.byte	W36
	.byte		        Gs2 
	.byte	W12
	.byte		        Cn3 
	.byte	W24
	.byte		        Ds3 
	.byte	W24
@ 054   ----------------------------------------
	.byte		        En3 
	.byte	W24
	.byte		        Ds3 
	.byte	W18
	.byte		N06   
	.byte	W06
	.byte		N12   , Cs3 
	.byte	W48
@ 055   ----------------------------------------
	.byte	W96
@ 056   ----------------------------------------
	.byte	W96
@ 057   ----------------------------------------
	.byte	W96
@ 058   ----------------------------------------
	.byte	W96
@ 059   ----------------------------------------
	.byte	W96
@ 060   ----------------------------------------
	.byte	W96
@ 061   ----------------------------------------
	.byte	W96
@ 062   ----------------------------------------
	.byte	W96
@ 063   ----------------------------------------
	.byte	W96
@ 064   ----------------------------------------
	.byte	W96
@ 065   ----------------------------------------
	.byte	W96
@ 066   ----------------------------------------
	.byte	W96
@ 067   ----------------------------------------
	.byte	W96
@ 068   ----------------------------------------
	.byte	W96
	.byte	GOTO
	 .word	SpoopHouse_12_B1
SpoopHouse_12_B2:
@ 069   ----------------------------------------
	.byte	FINE

@******************************************************@
	.align	2

SpoopHouse:
	.byte	12	@ NumTrks
	.byte	0	@ NumBlks
	.byte	SpoopHouse_pri	@ Priority
	.byte	SpoopHouse_rev	@ Reverb.

	.word	SpoopHouse_grp

	.word	SpoopHouse_1
	.word	SpoopHouse_2
	.word	SpoopHouse_3
	.word	SpoopHouse_4
	.word	SpoopHouse_5
	.word	SpoopHouse_6
	.word	SpoopHouse_7
	.word	SpoopHouse_8
	.word	SpoopHouse_9
	.word	SpoopHouse_10
	.word	SpoopHouse_11
	.word	SpoopHouse_12

	.end
