	.include "MPlayDef.s"

	.equ	song5E_grp, voicegroup000
	.equ	song5E_pri, 0
	.equ	song5E_rev, 0
	.equ	song5E_mvl, 127
	.equ	song5E_key, 0
	.equ	song5E_tbs, 1
	.equ	song5E_exg, 0
	.equ	song5E_cmp, 1

	.section .rodata
	.global	song5E
	.align	2


@**************** Track 1 (Midi-Chn.0) ****************@

song5E_001:
@ 000   ----------------------------------------
 .byte   KEYSH , song5E_key+0
 .byte   TEMPO , 250*song5E_tbs/2
 .byte   VOICE , 36
 .byte   VOL , 40*song5E_mvl/mxv
 .byte   N11 ,As0 ,v127
 .byte   W12
 .byte   Bn0
 .byte   W12
 .byte   Cn1
 .byte   W24
 .byte   N11
 .byte   W36
 .byte   N11
 .byte   W12
@ 001   ----------------------------------------
Label_0_014B3C80:
 .byte   W12
 .byte   N11 ,Cn1 ,v127
 .byte   W24
 .byte   N11
 .byte   W12
 .byte   Ds1
 .byte   W24
 .byte   Fn1
 .byte   W24
 .byte   PEND 
@ 002   ----------------------------------------
Label_0_014B3C8C:
 .byte   N11 ,As0 ,v127
 .byte   W12
 .byte   Bn0
 .byte   W12
 .byte   Cn1
 .byte   W24
 .byte   N11
 .byte   W36
 .byte   N11
 .byte   W12
 .byte   PEND 
@ 003   ----------------------------------------
Label_0_014B3C99:
 .byte   W12
 .byte   N11 ,Cn1 ,v127
 .byte   W24
 .byte   N11
 .byte   W12
 .byte   As0
 .byte   W24
 .byte   Cn1
 .byte   W24
 .byte   PEND 
@ 004   ----------------------------------------
 .byte   PATT
  .word Label_0_014B3C8C
@ 005   ----------------------------------------
Label_0_014B3CAA:
 .byte   W12
 .byte   N11 ,Cn1 ,v127
 .byte   W24
 .byte   N11
 .byte   W12
 .byte   Gn1
 .byte   W12
 .byte   As1
 .byte   W12
 .byte   Bn1
 .byte   W12
 .byte   Cn2
 .byte   W12
 .byte   PEND 
@ 006   ----------------------------------------
Label_0_014B3CBA:
 .byte   N11 ,Fn0 ,v127
 .byte   W48
 .byte   N11
 .byte   W48
 .byte   PEND 
@ 007   ----------------------------------------
Label_0_014B3CC1:
 .byte   N11 ,Gn0 ,v127
 .byte   W48
 .byte   N11
 .byte   W48
 .byte   PEND 
@ 008   ----------------------------------------
Label_0_014B3CC8:
 .byte   TEMPO , 250*song5E_tbs/2
 .byte   N11 ,As0 ,v127
 .byte   W12
 .byte   Bn0
 .byte   W12
 .byte   Cn1
 .byte   W24
 .byte   N11
 .byte   W36
 .byte   N11
 .byte   W12
 .byte   PEND 
@ 009   ----------------------------------------
 .byte   PATT
  .word Label_0_014B3C80
@ 010   ----------------------------------------
 .byte   PATT
  .word Label_0_014B3C8C
@ 011   ----------------------------------------
 .byte   PATT
  .word Label_0_014B3C99
@ 012   ----------------------------------------
 .byte   PATT
  .word Label_0_014B3C8C
@ 013   ----------------------------------------
 .byte   PATT
  .word Label_0_014B3CAA
@ 014   ----------------------------------------
 .byte   N19 ,Fn0 ,v127
 .byte   W96
@ 015   ----------------------------------------
 .byte   W96
@ 016   ----------------------------------------
Label_0_014B3CF5:
@ 017   ----------------------------------------
 .byte   PATT
  .word Label_0_014B3CC8
@ 018   ----------------------------------------
 .byte   PATT
  .word Label_0_014B3C80
@ 019   ----------------------------------------
 .byte   PATT
  .word Label_0_014B3C8C
@ 020   ----------------------------------------
 .byte   PATT
  .word Label_0_014B3C99
@ 021   ----------------------------------------
 .byte   PATT
  .word Label_0_014B3C8C
@ 022   ----------------------------------------
 .byte   PATT
  .word Label_0_014B3CAA
@ 023   ----------------------------------------
 .byte   PATT
  .word Label_0_014B3CBA
@ 024   ----------------------------------------
 .byte   PATT
  .word Label_0_014B3CC1
@ 025   ----------------------------------------
 .byte   PATT
  .word Label_0_014B3CC8
@ 026   ----------------------------------------
 .byte   PATT
  .word Label_0_014B3C80
@ 027   ----------------------------------------
 .byte   PATT
  .word Label_0_014B3C8C
@ 028   ----------------------------------------
 .byte   PATT
  .word Label_0_014B3C99
@ 029   ----------------------------------------
 .byte   PATT
  .word Label_0_014B3C8C
@ 030   ----------------------------------------
 .byte   PATT
  .word Label_0_014B3CAA
@ 031   ----------------------------------------
 .byte   PATT
  .word Label_0_014B3CBA
@ 032   ----------------------------------------
 .byte   PATT
  .word Label_0_014B3CC1
@ 033   ----------------------------------------
 .byte   PATT
  .word Label_0_014B3CC8
@ 034   ----------------------------------------
 .byte   PATT
  .word Label_0_014B3C80
@ 035   ----------------------------------------
 .byte   PATT
  .word Label_0_014B3C8C
@ 036   ----------------------------------------
 .byte   PATT
  .word Label_0_014B3C99
@ 037   ----------------------------------------
 .byte   PATT
  .word Label_0_014B3C8C
@ 038   ----------------------------------------
 .byte   PATT
  .word Label_0_014B3CAA
@ 039   ----------------------------------------
 .byte   N19 ,Fn0 ,v127
 .byte   W96
@ 040   ----------------------------------------
 .byte   W96
@ 041   ----------------------------------------
 .byte   PATT
  .word Label_0_014B3CC8
@ 042   ----------------------------------------
 .byte   PATT
  .word Label_0_014B3C80
@ 043   ----------------------------------------
 .byte   PATT
  .word Label_0_014B3C8C
@ 044   ----------------------------------------
 .byte   PATT
  .word Label_0_014B3C99
@ 045   ----------------------------------------
 .byte   PATT
  .word Label_0_014B3C8C
@ 046   ----------------------------------------
 .byte   PATT
  .word Label_0_014B3CAA
@ 047   ----------------------------------------
 .byte   PATT
  .word Label_0_014B3CBA
@ 048   ----------------------------------------
 .byte   PATT
  .word Label_0_014B3CC1
@ 049   ----------------------------------------
 .byte   PATT
  .word Label_0_014B3CC8
@ 050   ----------------------------------------
 .byte   PATT
  .word Label_0_014B3C80
@ 051   ----------------------------------------
 .byte   PATT
  .word Label_0_014B3C8C
@ 052   ----------------------------------------
 .byte   PATT
  .word Label_0_014B3C99
@ 053   ----------------------------------------
 .byte   PATT
  .word Label_0_014B3C8C
@ 054   ----------------------------------------
 .byte   PATT
  .word Label_0_014B3CAA
@ 055   ----------------------------------------
 .byte   PATT
  .word Label_0_014B3CBA
@ 056   ----------------------------------------
 .byte   PATT
  .word Label_0_014B3CC1
@ 057   ----------------------------------------
 .byte   PATT
  .word Label_0_014B3CC8
@ 058   ----------------------------------------
 .byte   PATT
  .word Label_0_014B3C80
@ 059   ----------------------------------------
 .byte   PATT
  .word Label_0_014B3C8C
@ 060   ----------------------------------------
 .byte   PATT
  .word Label_0_014B3C99
@ 061   ----------------------------------------
 .byte   PATT
  .word Label_0_014B3C8C
@ 062   ----------------------------------------
 .byte   PATT
  .word Label_0_014B3CAA
@ 063   ----------------------------------------
 .byte   PATT
  .word Label_0_014B3CBA
@ 064   ----------------------------------------
 .byte   PATT
  .word Label_0_014B3CC1
@ 065   ----------------------------------------
 .byte   PATT
  .word Label_0_014B3CC8
@ 066   ----------------------------------------
 .byte   PATT
  .word Label_0_014B3C80
@ 067   ----------------------------------------
 .byte   PATT
  .word Label_0_014B3C8C
@ 068   ----------------------------------------
 .byte   PATT
  .word Label_0_014B3C99
@ 069   ----------------------------------------
 .byte   PATT
  .word Label_0_014B3C8C
@ 070   ----------------------------------------
 .byte   PATT
  .word Label_0_014B3CAA
@ 071   ----------------------------------------
 .byte   N19 ,Fn0 ,v127
 .byte   W96
@ 072   ----------------------------------------
 .byte   W96
@ 073   ----------------------------------------
Label_0_014B3E03:
 .byte   TEMPO , 250*song5E_tbs/2
 .byte   N11 ,Fn0 ,v127
 .byte   W24
 .byte   Fn1
 .byte   W24
 .byte   N23 ,Ds1
 .byte   W36
 .byte   N11 ,Fn1
 .byte   W12
 .byte   PEND 
@ 074   ----------------------------------------
Label_0_014B3E12:
 .byte   W12
 .byte   N11 ,Fn0 ,v127
 .byte   W12
 .byte   Cn1
 .byte   W24
 .byte   Ds1
 .byte   W24
 .byte   Fn1
 .byte   W24
 .byte   PEND 
@ 075   ----------------------------------------
Label_0_014B3E1E:
 .byte   N11 ,Gn0 ,v127
 .byte   W24
 .byte   Gn1
 .byte   W24
 .byte   Fn1
 .byte   W36
 .byte   Gn1
 .byte   W12
 .byte   PEND 
@ 076   ----------------------------------------
Label_0_014B3E29:
 .byte   W12
 .byte   N23 ,Gn0 ,v127
 .byte   W36
 .byte   As0
 .byte   W48
 .byte   PEND 
@ 077   ----------------------------------------
Label_0_014B3E31:
 .byte   N11 ,Cn1 ,v127
 .byte   W24
 .byte   Cn2
 .byte   W24
 .byte   As1
 .byte   W36
 .byte   Cn2
 .byte   W12
 .byte   PEND 
@ 078   ----------------------------------------
Label_0_014B3E3C:
 .byte   W12
 .byte   N11 ,Cn1 ,v127
 .byte   W12
 .byte   Ds1
 .byte   W24
 .byte   Gn1
 .byte   W24
 .byte   As1
 .byte   W24
 .byte   PEND 
@ 079   ----------------------------------------
 .byte   PATT
  .word Label_0_014B3E31
@ 080   ----------------------------------------
 .byte   PATT
  .word Label_0_014B3E3C
@ 081   ----------------------------------------
 .byte   PATT
  .word Label_0_014B3E03
@ 082   ----------------------------------------
 .byte   PATT
  .word Label_0_014B3E12
@ 083   ----------------------------------------
 .byte   PATT
  .word Label_0_014B3E1E
@ 084   ----------------------------------------
 .byte   PATT
  .word Label_0_014B3E29
@ 085   ----------------------------------------
 .byte   PATT
  .word Label_0_014B3E31
@ 086   ----------------------------------------
 .byte   PATT
  .word Label_0_014B3E3C
@ 087   ----------------------------------------
 .byte   GOTO
  .word Label_0_014B3CF5
@ 088   ----------------------------------------
 .byte   N23 ,Cn1 ,v127
 .byte   W96
@ 089   ----------------------------------------
 .byte   W80
 .byte   W03
 .byte   FINE

@**************** Track 2 (Midi-Chn.1) ****************@

song5E_002:
@ 000   ----------------------------------------
 .byte   KEYSH , song5E_key+0
 .byte   VOICE , 0
 .byte   VOL , 40*song5E_mvl/mxv
 .byte   N11 ,Cn3 ,v127
 .byte   N11 ,Ds3
 .byte   W48
 .byte   N23 ,Cn3
 .byte   N23 ,Ds3
 .byte   W36
 .byte   N11 ,Cn3
 .byte   N11 ,Ds3
 .byte   W12
@ 001   ----------------------------------------
Label_1_014B3EBA:
 .byte   W12
 .byte   N11 ,Cn3 ,v127
 .byte   N11 ,Ds3
 .byte   W24
 .byte   Cn3 ,v100
 .byte   N11 ,Ds3
 .byte   W12
 .byte   N32 ,Ds3 ,v127
 .byte   N32 ,Fn3
 .byte   W48
 .byte   PEND 
@ 002   ----------------------------------------
Label_1_014B3ECD:
 .byte   N11 ,Cn3 ,v127
 .byte   N11 ,Ds3
 .byte   W48
 .byte   N23 ,Cn3
 .byte   N23 ,Ds3
 .byte   W36
 .byte   N11 ,Cn3
 .byte   N11 ,Ds3
 .byte   W12
 .byte   PEND 
@ 003   ----------------------------------------
 .byte   PATT
  .word Label_1_014B3EBA
@ 004   ----------------------------------------
 .byte   PATT
  .word Label_1_014B3ECD
@ 005   ----------------------------------------
 .byte   PATT
  .word Label_1_014B3EBA
@ 006   ----------------------------------------
Label_1_014B3EED:
 .byte   N11 ,Gs2 ,v127
 .byte   N11 ,Ds3
 .byte   W48
 .byte   N32 ,Gs2
 .byte   N32 ,Ds3
 .byte   W48
 .byte   PEND 
@ 007   ----------------------------------------
Label_1_014B3EF9:
 .byte   N11 ,As2 ,v127
 .byte   N11 ,Ds3
 .byte   W36
 .byte   As2
 .byte   N11 ,Ds3
 .byte   W36
 .byte   N23 ,As2
 .byte   N23 ,Ds3
 .byte   W24
 .byte   PEND 
@ 008   ----------------------------------------
 .byte   PATT
  .word Label_1_014B3ECD
@ 009   ----------------------------------------
 .byte   PATT
  .word Label_1_014B3EBA
@ 010   ----------------------------------------
 .byte   PATT
  .word Label_1_014B3ECD
@ 011   ----------------------------------------
 .byte   PATT
  .word Label_1_014B3EBA
@ 012   ----------------------------------------
 .byte   PATT
  .word Label_1_014B3ECD
@ 013   ----------------------------------------
 .byte   PATT
  .word Label_1_014B3EBA
@ 014   ----------------------------------------
 .byte   PATT
  .word Label_1_014B3EED
@ 015   ----------------------------------------
 .byte   PATT
  .word Label_1_014B3EF9
@ 016   ----------------------------------------
Label_1_014B3F31:
@ 017   ----------------------------------------
 .byte   PATT
  .word Label_1_014B3ECD
@ 018   ----------------------------------------
 .byte   PATT
  .word Label_1_014B3EBA
@ 019   ----------------------------------------
 .byte   PATT
  .word Label_1_014B3ECD
@ 020   ----------------------------------------
 .byte   PATT
  .word Label_1_014B3EBA
@ 021   ----------------------------------------
 .byte   PATT
  .word Label_1_014B3ECD
@ 022   ----------------------------------------
 .byte   PATT
  .word Label_1_014B3EBA
@ 023   ----------------------------------------
 .byte   PATT
  .word Label_1_014B3EED
@ 024   ----------------------------------------
 .byte   PATT
  .word Label_1_014B3EF9
@ 025   ----------------------------------------
 .byte   PATT
  .word Label_1_014B3ECD
@ 026   ----------------------------------------
 .byte   PATT
  .word Label_1_014B3EBA
@ 027   ----------------------------------------
 .byte   PATT
  .word Label_1_014B3ECD
@ 028   ----------------------------------------
 .byte   PATT
  .word Label_1_014B3EBA
@ 029   ----------------------------------------
 .byte   PATT
  .word Label_1_014B3ECD
@ 030   ----------------------------------------
 .byte   PATT
  .word Label_1_014B3EBA
@ 031   ----------------------------------------
 .byte   PATT
  .word Label_1_014B3EED
@ 032   ----------------------------------------
 .byte   PATT
  .word Label_1_014B3EF9
@ 033   ----------------------------------------
 .byte   PATT
  .word Label_1_014B3ECD
@ 034   ----------------------------------------
 .byte   PATT
  .word Label_1_014B3EBA
@ 035   ----------------------------------------
 .byte   PATT
  .word Label_1_014B3ECD
@ 036   ----------------------------------------
 .byte   PATT
  .word Label_1_014B3EBA
@ 037   ----------------------------------------
 .byte   PATT
  .word Label_1_014B3ECD
@ 038   ----------------------------------------
 .byte   PATT
  .word Label_1_014B3EBA
@ 039   ----------------------------------------
 .byte   PATT
  .word Label_1_014B3EED
@ 040   ----------------------------------------
 .byte   PATT
  .word Label_1_014B3EF9
@ 041   ----------------------------------------
 .byte   W96
@ 042   ----------------------------------------
 .byte   W96
@ 043   ----------------------------------------
 .byte   W96
@ 044   ----------------------------------------
 .byte   W96
@ 045   ----------------------------------------
 .byte   W96
@ 046   ----------------------------------------
 .byte   W96
@ 047   ----------------------------------------
 .byte   W96
@ 048   ----------------------------------------
 .byte   W96
@ 049   ----------------------------------------
 .byte   W96
@ 050   ----------------------------------------
 .byte   W96
@ 051   ----------------------------------------
 .byte   W96
@ 052   ----------------------------------------
 .byte   W96
@ 053   ----------------------------------------
 .byte   W96
@ 054   ----------------------------------------
 .byte   W96
@ 055   ----------------------------------------
 .byte   W96
@ 056   ----------------------------------------
 .byte   W96
@ 057   ----------------------------------------
 .byte   PATT
  .word Label_1_014B3ECD
@ 058   ----------------------------------------
 .byte   PATT
  .word Label_1_014B3EBA
@ 059   ----------------------------------------
 .byte   PATT
  .word Label_1_014B3ECD
@ 060   ----------------------------------------
 .byte   PATT
  .word Label_1_014B3EBA
@ 061   ----------------------------------------
 .byte   PATT
  .word Label_1_014B3ECD
@ 062   ----------------------------------------
 .byte   PATT
  .word Label_1_014B3EBA
@ 063   ----------------------------------------
 .byte   PATT
  .word Label_1_014B3EED
@ 064   ----------------------------------------
 .byte   PATT
  .word Label_1_014B3EF9
@ 065   ----------------------------------------
 .byte   PATT
  .word Label_1_014B3ECD
@ 066   ----------------------------------------
 .byte   PATT
  .word Label_1_014B3EBA
@ 067   ----------------------------------------
 .byte   PATT
  .word Label_1_014B3ECD
@ 068   ----------------------------------------
 .byte   PATT
  .word Label_1_014B3EBA
@ 069   ----------------------------------------
 .byte   PATT
  .word Label_1_014B3ECD
@ 070   ----------------------------------------
 .byte   PATT
  .word Label_1_014B3EBA
@ 071   ----------------------------------------
 .byte   PATT
  .word Label_1_014B3EED
@ 072   ----------------------------------------
 .byte   PATT
  .word Label_1_014B3EF9
@ 073   ----------------------------------------
 .byte   PATT
  .word Label_1_014B3ECD
@ 074   ----------------------------------------
Label_1_014B400E:
 .byte   W12
 .byte   N11 ,Cn3 ,v127
 .byte   N11 ,Ds3
 .byte   W24
 .byte   Cn3 ,v100
 .byte   N11 ,Ds3
 .byte   W12
 .byte   N32 ,Cn3 ,v127
 .byte   N32 ,Ds3
 .byte   W48
 .byte   PEND 
@ 075   ----------------------------------------
Label_1_014B4021:
 .byte   N11 ,Ds3 ,v127
 .byte   N11 ,Fn3
 .byte   W48
 .byte   N23 ,Ds3
 .byte   N23 ,Fn3
 .byte   W36
 .byte   N11 ,Ds3
 .byte   N11 ,Fn3
 .byte   W12
 .byte   PEND 
@ 076   ----------------------------------------
Label_1_014B4032:
 .byte   W12
 .byte   N11 ,Ds3 ,v127
 .byte   N11 ,Fn3
 .byte   W24
 .byte   Ds3 ,v100
 .byte   N11 ,Fn3
 .byte   W12
 .byte   N32 ,Ds3 ,v127
 .byte   N32 ,Fn3
 .byte   W48
 .byte   PEND 
@ 077   ----------------------------------------
Label_1_014B4045:
 .byte   N11 ,Gn2 ,v127
 .byte   N11 ,Ds3
 .byte   W48
 .byte   N23 ,Gn2
 .byte   N23 ,Ds3
 .byte   W36
 .byte   N11 ,Gn2
 .byte   N11 ,Ds3
 .byte   W12
 .byte   PEND 
@ 078   ----------------------------------------
Label_1_014B4056:
 .byte   W12
 .byte   N11 ,Gn2 ,v127
 .byte   N11 ,Ds3
 .byte   W24
 .byte   Gn2 ,v100
 .byte   N11 ,Ds3
 .byte   W12
 .byte   N32 ,Gn2 ,v127
 .byte   N32 ,Ds3
 .byte   W48
 .byte   PEND 
@ 079   ----------------------------------------
 .byte   N11 ,As2
 .byte   N11 ,Ds3
 .byte   W48
 .byte   As2
 .byte   N11 ,Ds3
 .byte   W36
 .byte   As2
 .byte   N11 ,Ds3
 .byte   W12
@ 080   ----------------------------------------
 .byte   W12
 .byte   As2
 .byte   N11 ,Ds3
 .byte   W24
 .byte   As2 ,v100
 .byte   N11 ,Ds3
 .byte   W12
 .byte   As2 ,v127
 .byte   N11 ,Ds3
 .byte   W48
@ 081   ----------------------------------------
 .byte   PATT
  .word Label_1_014B3ECD
@ 082   ----------------------------------------
 .byte   PATT
  .word Label_1_014B400E
@ 083   ----------------------------------------
 .byte   PATT
  .word Label_1_014B4021
@ 084   ----------------------------------------
 .byte   PATT
  .word Label_1_014B4032
@ 085   ----------------------------------------
 .byte   PATT
  .word Label_1_014B4045
@ 086   ----------------------------------------
 .byte   PATT
  .word Label_1_014B4056
@ 087   ----------------------------------------
 .byte   GOTO
  .word Label_1_014B3F31
@ 088   ----------------------------------------
 .byte   N23 ,Gn2 ,v127
 .byte   N23 ,Cn3
 .byte   W96
@ 089   ----------------------------------------
 .byte   W80
 .byte   W03
 .byte   FINE

@**************** Track 3 (Midi-Chn.2) ****************@

song5E_003:
@ 000   ----------------------------------------
 .byte   KEYSH , song5E_key+0
 .byte   VOICE , 124
 .byte   VOL , 50*song5E_mvl/mxv
 .byte   N11 ,An2 ,v127
 .byte   N11 ,Dn3
 .byte   W36
 .byte   N11
 .byte   W12
 .byte   N11
 .byte   W24
 .byte   N11
 .byte   W12
 .byte   N11
 .byte   W12
@ 001   ----------------------------------------
Label_2_014B3880:
 .byte   W12
 .byte   N11 ,Dn3 ,v127
 .byte   W24
 .byte   N11
 .byte   W12
 .byte   N11
 .byte   W24
 .byte   N11
 .byte   W24
 .byte   PEND 
@ 002   ----------------------------------------
Label_2_014B388C:
 .byte   N11 ,Dn3 ,v127
 .byte   W36
 .byte   N11
 .byte   W12
 .byte   N11
 .byte   W24
 .byte   N11
 .byte   W12
 .byte   N11
 .byte   W12
 .byte   PEND 
@ 003   ----------------------------------------
 .byte   PATT
  .word Label_2_014B3880
@ 004   ----------------------------------------
 .byte   PATT
  .word Label_2_014B388C
@ 005   ----------------------------------------
 .byte   PATT
  .word Label_2_014B3880
@ 006   ----------------------------------------
 .byte   N12 ,Dn3 ,v127
 .byte   W48
 .byte   N12
 .byte   W36
 .byte   N12
 .byte   W12
@ 007   ----------------------------------------
 .byte   W12
 .byte   N12
 .byte   W24
 .byte   N12
 .byte   W60
@ 008   ----------------------------------------
Label_2_014B38B5:
 .byte   VOICE , 124
 .byte   N11 ,Cn1 ,v127
 .byte   N05 ,An2
 .byte   N11 ,Dn3
 .byte   W24
 .byte   Bn2
 .byte   W12
 .byte   Cn1
 .byte   N11 ,Dn3
 .byte   W12
 .byte   En0
 .byte   N11 ,Dn1
 .byte   N11 ,Dn3
 .byte   W24
 .byte   Cn1
 .byte   N11 ,Dn3
 .byte   W12
 .byte   N11
 .byte   W12
 .byte   PEND 
@ 009   ----------------------------------------
Label_2_014B38D2:
 .byte   N11 ,Cn1 ,v127
 .byte   W12
 .byte   Dn3
 .byte   W12
 .byte   Bn2
 .byte   W12
 .byte   Dn3
 .byte   W12
 .byte   En0
 .byte   N11 ,Dn1
 .byte   N11 ,Dn3
 .byte   W24
 .byte   Cn1
 .byte   N11 ,Dn3
 .byte   W24
 .byte   PEND 
@ 010   ----------------------------------------
Label_2_014B38E7:
 .byte   N11 ,Cn1 ,v127
 .byte   N11 ,Dn3
 .byte   W24
 .byte   Bn2
 .byte   W12
 .byte   Cn1
 .byte   N11 ,Dn3
 .byte   W12
 .byte   En0
 .byte   N11 ,Dn1
 .byte   N11 ,Dn3
 .byte   W24
 .byte   Cn1
 .byte   N11 ,Dn3
 .byte   W12
 .byte   N11
 .byte   W12
 .byte   PEND 
@ 011   ----------------------------------------
 .byte   PATT
  .word Label_2_014B38D2
@ 012   ----------------------------------------
 .byte   PATT
  .word Label_2_014B38E7
@ 013   ----------------------------------------
 .byte   PATT
  .word Label_2_014B38D2
@ 014   ----------------------------------------
 .byte   N05 ,An2 ,v127
 .byte   N12 ,Dn3
 .byte   W12
 .byte   N11 ,Fn3
 .byte   W36
 .byte   N12 ,Dn3
 .byte   N11 ,Fn3
 .byte   W36
 .byte   N12 ,Dn3
 .byte   N11 ,Fn3
 .byte   W12
@ 015   ----------------------------------------
 .byte   W12
 .byte   N12 ,Dn3
 .byte   N05 ,Fn3
 .byte   W06
 .byte   N05
 .byte   W06
 .byte   N05
 .byte   W06
 .byte   N05
 .byte   W06
 .byte   N12 ,Dn3
 .byte   N05 ,Fn3
 .byte   W24
 .byte   N05
 .byte   W36
@ 016   ----------------------------------------
Label_2_014B3935:
@ 017   ----------------------------------------
 .byte   PATT
  .word Label_2_014B38B5
@ 018   ----------------------------------------
 .byte   PATT
  .word Label_2_014B38D2
@ 019   ----------------------------------------
 .byte   PATT
  .word Label_2_014B38E7
@ 020   ----------------------------------------
 .byte   PATT
  .word Label_2_014B38D2
@ 021   ----------------------------------------
 .byte   PATT
  .word Label_2_014B38E7
@ 022   ----------------------------------------
 .byte   PATT
  .word Label_2_014B38D2
@ 023   ----------------------------------------
Label_2_014B3953:
 .byte   N11 ,Cn1 ,v127
 .byte   N12 ,Dn3
 .byte   W24
 .byte   N11 ,Bn2
 .byte   W12
 .byte   Cn1
 .byte   W12
 .byte   En0
 .byte   N11 ,Dn1
 .byte   N12 ,Dn3
 .byte   W24
 .byte   N11 ,Cn1
 .byte   W12
 .byte   N12 ,Dn3
 .byte   W12
 .byte   PEND 
@ 024   ----------------------------------------
Label_2_014B396B:
 .byte   N11 ,Cn1 ,v127
 .byte   W12
 .byte   N12 ,Dn3
 .byte   W12
 .byte   N11 ,Bn2
 .byte   W12
 .byte   N12 ,Dn3
 .byte   W12
 .byte   N11 ,En0
 .byte   N11 ,Dn1
 .byte   W24
 .byte   Cn1
 .byte   W24
 .byte   PEND 
@ 025   ----------------------------------------
 .byte   PATT
  .word Label_2_014B38B5
@ 026   ----------------------------------------
 .byte   PATT
  .word Label_2_014B38D2
@ 027   ----------------------------------------
 .byte   PATT
  .word Label_2_014B38E7
@ 028   ----------------------------------------
 .byte   PATT
  .word Label_2_014B38D2
@ 029   ----------------------------------------
 .byte   PATT
  .word Label_2_014B38E7
@ 030   ----------------------------------------
 .byte   PATT
  .word Label_2_014B38D2
@ 031   ----------------------------------------
 .byte   PATT
  .word Label_2_014B3953
@ 032   ----------------------------------------
 .byte   PATT
  .word Label_2_014B396B
@ 033   ----------------------------------------
 .byte   PATT
  .word Label_2_014B38B5
@ 034   ----------------------------------------
 .byte   PATT
  .word Label_2_014B38D2
@ 035   ----------------------------------------
 .byte   PATT
  .word Label_2_014B38E7
@ 036   ----------------------------------------
 .byte   PATT
  .word Label_2_014B38D2
@ 037   ----------------------------------------
 .byte   PATT
  .word Label_2_014B38E7
@ 038   ----------------------------------------
 .byte   PATT
  .word Label_2_014B38D2
@ 039   ----------------------------------------
 .byte   N05 ,An2 ,v127
 .byte   N12 ,Dn3
 .byte   N05 ,Fn3
 .byte   W06
 .byte   N05
 .byte   W06
 .byte   N05
 .byte   W06
 .byte   N05
 .byte   W30
 .byte   N12 ,Dn3
 .byte   N05 ,Fn3
 .byte   W30
 .byte   N05
 .byte   W06
 .byte   N12 ,Dn3
 .byte   W12
@ 040   ----------------------------------------
Label_2_014B39DE:
 .byte   W12
 .byte   N12 ,Dn3 ,v127
 .byte   W06
 .byte   N05 ,Fn3
 .byte   W06
 .byte   N05
 .byte   W06
 .byte   N05
 .byte   W06
 .byte   N12 ,Dn3
 .byte   N05 ,Fn3
 .byte   W60
 .byte   PEND 
@ 041   ----------------------------------------
 .byte   PATT
  .word Label_2_014B38B5
@ 042   ----------------------------------------
 .byte   PATT
  .word Label_2_014B38D2
@ 043   ----------------------------------------
 .byte   PATT
  .word Label_2_014B38E7
@ 044   ----------------------------------------
 .byte   PATT
  .word Label_2_014B38D2
@ 045   ----------------------------------------
 .byte   PATT
  .word Label_2_014B38E7
@ 046   ----------------------------------------
 .byte   PATT
  .word Label_2_014B38D2
@ 047   ----------------------------------------
 .byte   PATT
  .word Label_2_014B3953
@ 048   ----------------------------------------
 .byte   PATT
  .word Label_2_014B396B
@ 049   ----------------------------------------
 .byte   PATT
  .word Label_2_014B38B5
@ 050   ----------------------------------------
 .byte   PATT
  .word Label_2_014B38D2
@ 051   ----------------------------------------
 .byte   PATT
  .word Label_2_014B38E7
@ 052   ----------------------------------------
 .byte   PATT
  .word Label_2_014B38D2
@ 053   ----------------------------------------
 .byte   PATT
  .word Label_2_014B38E7
@ 054   ----------------------------------------
 .byte   PATT
  .word Label_2_014B38D2
@ 055   ----------------------------------------
 .byte   N12 ,Dn3 ,v127
 .byte   N05 ,Fn3
 .byte   W06
 .byte   N05
 .byte   W06
 .byte   N05
 .byte   W06
 .byte   N05
 .byte   W30
 .byte   N12 ,Dn3
 .byte   N05 ,Fn3
 .byte   W30
 .byte   N05
 .byte   W06
 .byte   N12 ,Dn3
 .byte   W12
@ 056   ----------------------------------------
 .byte   PATT
  .word Label_2_014B39DE
@ 057   ----------------------------------------
 .byte   PATT
  .word Label_2_014B38B5
@ 058   ----------------------------------------
 .byte   PATT
  .word Label_2_014B38D2
@ 059   ----------------------------------------
 .byte   PATT
  .word Label_2_014B38E7
@ 060   ----------------------------------------
 .byte   PATT
  .word Label_2_014B38D2
@ 061   ----------------------------------------
 .byte   PATT
  .word Label_2_014B38E7
@ 062   ----------------------------------------
 .byte   PATT
  .word Label_2_014B38D2
@ 063   ----------------------------------------
 .byte   PATT
  .word Label_2_014B3953
@ 064   ----------------------------------------
 .byte   PATT
  .word Label_2_014B396B
@ 065   ----------------------------------------
 .byte   PATT
  .word Label_2_014B38B5
@ 066   ----------------------------------------
 .byte   PATT
  .word Label_2_014B38D2
@ 067   ----------------------------------------
 .byte   PATT
  .word Label_2_014B38E7
@ 068   ----------------------------------------
 .byte   PATT
  .word Label_2_014B38D2
@ 069   ----------------------------------------
 .byte   PATT
  .word Label_2_014B38E7
@ 070   ----------------------------------------
 .byte   PATT
  .word Label_2_014B38D2
@ 071   ----------------------------------------
 .byte   N05 ,An2 ,v127
 .byte   N12 ,Dn3
 .byte   N05 ,Fn3
 .byte   W36
 .byte   N05
 .byte   W06
 .byte   N05
 .byte   W06
 .byte   N12 ,Dn3
 .byte   N05 ,Fn3
 .byte   W06
 .byte   N05
 .byte   W06
 .byte   N05
 .byte   W24
 .byte   N12 ,Dn3
 .byte   W12
@ 072   ----------------------------------------
 .byte   W06
 .byte   N05 ,Fn3
 .byte   W06
 .byte   N12 ,Dn3
 .byte   W24
 .byte   N12
 .byte   N05 ,Fn3
 .byte   W60
@ 073   ----------------------------------------
 .byte   PATT
  .word Label_2_014B38B5
@ 074   ----------------------------------------
 .byte   PATT
  .word Label_2_014B38D2
@ 075   ----------------------------------------
 .byte   PATT
  .word Label_2_014B38E7
@ 076   ----------------------------------------
 .byte   PATT
  .word Label_2_014B38D2
@ 077   ----------------------------------------
 .byte   PATT
  .word Label_2_014B38E7
@ 078   ----------------------------------------
 .byte   PATT
  .word Label_2_014B38D2
@ 079   ----------------------------------------
 .byte   PATT
  .word Label_2_014B3953
@ 080   ----------------------------------------
 .byte   PATT
  .word Label_2_014B396B
@ 081   ----------------------------------------
 .byte   PATT
  .word Label_2_014B38B5
@ 082   ----------------------------------------
 .byte   PATT
  .word Label_2_014B38D2
@ 083   ----------------------------------------
 .byte   PATT
  .word Label_2_014B38E7
@ 084   ----------------------------------------
 .byte   PATT
  .word Label_2_014B38D2
@ 085   ----------------------------------------
 .byte   PATT
  .word Label_2_014B38E7
@ 086   ----------------------------------------
 .byte   PATT
  .word Label_2_014B38D2
@ 087   ----------------------------------------
 .byte   GOTO
  .word Label_2_014B3935
@ 088   ----------------------------------------
 .byte   N05 ,An2 ,v127
 .byte   N12 ,Dn3
 .byte   W12
 .byte   N05 ,Fn3
 .byte   W36
 .byte   N12 ,Dn3
 .byte   N05 ,Fn3
 .byte   W06
 .byte   N05
 .byte   W06
 .byte   N05
 .byte   W06
 .byte   N05
 .byte   W18
 .byte   N12 ,Dn3
 .byte   N05 ,Fn3
 .byte   W06
 .byte   N05
 .byte   W06
@ 089   ----------------------------------------
 .byte   N05
 .byte   W06
 .byte   N05
 .byte   W06
 .byte   N12 ,Dn3
 .byte   W24
 .byte   N12
 .byte   W12
 .byte   N06 ,Fn3
 .byte   W24
 .byte   N05
 .byte   W11
 .byte   FINE

@**************** Track 4 (Midi-Chn.3) ****************@

song5E_004:
@ 000   ----------------------------------------
 .byte   KEYSH , song5E_key+0
 .byte   VOICE , 42
 .byte   VOL , 45*song5E_mvl/mxv
 .byte   TIE ,Cn5 ,v088
 .byte   TIE ,Cn6
 .byte   W96
@ 001   ----------------------------------------
 .byte   W96
@ 002   ----------------------------------------
 .byte   W96
@ 003   ----------------------------------------
 .byte   W96
@ 004   ----------------------------------------
 .byte   W92
 .byte   W03
 .byte   EOT
 .byte   Cn5 ,v096
 .byte   W01
@ 005   ----------------------------------------
 .byte   W96
@ 006   ----------------------------------------
 .byte   N92 ,Gn4
 .byte   N92 ,Gn5
 .byte   W96
@ 007   ----------------------------------------
 .byte   As4
 .byte   N92 ,As5
 .byte   W96
@ 008   ----------------------------------------
Label_3_014B01BF:
 .byte   TIE ,Cn5 ,v088
 .byte   TIE ,Cn6
 .byte   W96
 .byte   PEND 
@ 009   ----------------------------------------
 .byte   W96
@ 010   ----------------------------------------
 .byte   W96
@ 011   ----------------------------------------
 .byte   W96
@ 012   ----------------------------------------
 .byte   W92
 .byte   W03
 .byte   EOT
 .byte   Cn5 ,v096
 .byte   W01
@ 013   ----------------------------------------
 .byte   W96
@ 014   ----------------------------------------
 .byte   W96
@ 015   ----------------------------------------
 .byte   W96
@ 016   ----------------------------------------
Label_3_014B01D2:
@ 017   ----------------------------------------
 .byte   PATT
  .word Label_3_014B01BF
@ 018   ----------------------------------------
 .byte   W96
@ 019   ----------------------------------------
 .byte   W96
@ 020   ----------------------------------------
 .byte   W96
@ 021   ----------------------------------------
 .byte   W92
 .byte   W03
 .byte   EOT
 .byte   Cn5 ,v096
 .byte   W01
@ 022   ----------------------------------------
 .byte   W96
@ 023   ----------------------------------------
 .byte   W96
@ 024   ----------------------------------------
 .byte   W96
@ 025   ----------------------------------------
 .byte   PATT
  .word Label_3_014B01BF
@ 026   ----------------------------------------
 .byte   W96
@ 027   ----------------------------------------
 .byte   W96
@ 028   ----------------------------------------
 .byte   W96
@ 029   ----------------------------------------
 .byte   W92
 .byte   W03
 .byte   EOT
 .byte   Cn5 ,v096
 .byte   W01
@ 030   ----------------------------------------
 .byte   W96
@ 031   ----------------------------------------
 .byte   W96
@ 032   ----------------------------------------
 .byte   W96
@ 033   ----------------------------------------
 .byte   PATT
  .word Label_3_014B01BF
@ 034   ----------------------------------------
 .byte   W96
@ 035   ----------------------------------------
 .byte   W96
@ 036   ----------------------------------------
 .byte   W96
@ 037   ----------------------------------------
 .byte   W92
 .byte   W03
 .byte   EOT
 .byte   Cn5 ,v096
 .byte   W01
@ 038   ----------------------------------------
 .byte   W96
@ 039   ----------------------------------------
 .byte   W96
@ 040   ----------------------------------------
 .byte   W96
@ 041   ----------------------------------------
 .byte   W96
@ 042   ----------------------------------------
 .byte   W96
@ 043   ----------------------------------------
 .byte   W96
@ 044   ----------------------------------------
 .byte   W96
@ 045   ----------------------------------------
 .byte   W96
@ 046   ----------------------------------------
 .byte   W96
@ 047   ----------------------------------------
 .byte   N92 ,Ds2 ,v100
 .byte   N92 ,Ds3
 .byte   W96
@ 048   ----------------------------------------
 .byte   Dn2
 .byte   N92 ,Dn3
 .byte   W96
@ 049   ----------------------------------------
 .byte   W96
@ 050   ----------------------------------------
 .byte   W96
@ 051   ----------------------------------------
 .byte   W96
@ 052   ----------------------------------------
 .byte   W96
@ 053   ----------------------------------------
 .byte   W96
@ 054   ----------------------------------------
 .byte   W96
@ 055   ----------------------------------------
 .byte   Ds2
 .byte   N92 ,Ds3
 .byte   W96
@ 056   ----------------------------------------
 .byte   Dn2
 .byte   N92 ,Dn3
 .byte   W96
@ 057   ----------------------------------------
 .byte   PATT
  .word Label_3_014B01BF
@ 058   ----------------------------------------
 .byte   W96
@ 059   ----------------------------------------
 .byte   W96
@ 060   ----------------------------------------
 .byte   W96
@ 061   ----------------------------------------
 .byte   W92
 .byte   W03
 .byte   EOT
 .byte   Cn5 ,v096
 .byte   W01
@ 062   ----------------------------------------
 .byte   W96
@ 063   ----------------------------------------
 .byte   W96
@ 064   ----------------------------------------
 .byte   W96
@ 065   ----------------------------------------
 .byte   PATT
  .word Label_3_014B01BF
@ 066   ----------------------------------------
 .byte   W96
@ 067   ----------------------------------------
 .byte   W96
@ 068   ----------------------------------------
 .byte   W96
@ 069   ----------------------------------------
 .byte   W92
 .byte   W03
 .byte   EOT
 .byte   Cn5 ,v096
 .byte   W01
@ 070   ----------------------------------------
 .byte   W96
@ 071   ----------------------------------------
 .byte   W96
@ 072   ----------------------------------------
 .byte   W96
@ 073   ----------------------------------------
 .byte   W96
@ 074   ----------------------------------------
 .byte   W96
@ 075   ----------------------------------------
 .byte   W96
@ 076   ----------------------------------------
 .byte   W96
@ 077   ----------------------------------------
 .byte   W96
@ 078   ----------------------------------------
 .byte   W96
@ 079   ----------------------------------------
 .byte   W96
@ 080   ----------------------------------------
 .byte   W96
@ 081   ----------------------------------------
 .byte   W96
@ 082   ----------------------------------------
 .byte   W96
@ 083   ----------------------------------------
 .byte   W96
@ 084   ----------------------------------------
 .byte   W96
@ 085   ----------------------------------------
 .byte   W96
@ 086   ----------------------------------------
 .byte   W96
@ 087   ----------------------------------------
 .byte   GOTO
  .word Label_3_014B01D2
@ 088   ----------------------------------------
 .byte   W96
@ 089   ----------------------------------------
 .byte   W80
 .byte   W03
 .byte   FINE

@**************** Track 5 (Midi-Chn.4) ****************@

song5E_005:
@ 000   ----------------------------------------
 .byte   KEYSH , song5E_key+0
 .byte   VOICE , 28
 .byte   VOL , 70*song5E_mvl/mxv
 .byte   W96
@ 001   ----------------------------------------
 .byte   W96
@ 002   ----------------------------------------
 .byte   W96
@ 003   ----------------------------------------
 .byte   W96
@ 004   ----------------------------------------
 .byte   W96
@ 005   ----------------------------------------
 .byte   W96
@ 006   ----------------------------------------
Label_4_014B3600:
 .byte   W24
 .byte   N11 ,Ds3 ,v127
 .byte   W12
 .byte   N11
 .byte   W12
 .byte   N11
 .byte   W12
 .byte   Fn3
 .byte   W36
 .byte   PEND 
@ 007   ----------------------------------------
 .byte   Ds3 ,v100
 .byte   W12
 .byte   N11
 .byte   W12
 .byte   N11
 .byte   W12
 .byte   Fn3
 .byte   W60
@ 008   ----------------------------------------
 .byte   PATT
  .word Label_4_014B3600
@ 009   ----------------------------------------
Label_4_014B361A:
 .byte   N11 ,Ds3 ,v127
 .byte   W12
 .byte   N11
 .byte   W12
 .byte   N11
 .byte   W12
 .byte   Fn3
 .byte   W60
 .byte   PEND 
@ 010   ----------------------------------------
 .byte   PATT
  .word Label_4_014B3600
@ 011   ----------------------------------------
 .byte   PATT
  .word Label_4_014B361A
@ 012   ----------------------------------------
 .byte   PATT
  .word Label_4_014B3600
@ 013   ----------------------------------------
 .byte   PATT
  .word Label_4_014B361A
@ 014   ----------------------------------------
 .byte   PATT
  .word Label_4_014B3600
@ 015   ----------------------------------------
 .byte   PATT
  .word Label_4_014B361A
@ 016   ----------------------------------------
Label_4_014B3643:
@ 017   ----------------------------------------
 .byte   PATT
  .word Label_4_014B3600
@ 018   ----------------------------------------
 .byte   PATT
  .word Label_4_014B361A
@ 019   ----------------------------------------
 .byte   PATT
  .word Label_4_014B3600
@ 020   ----------------------------------------
 .byte   PATT
  .word Label_4_014B361A
@ 021   ----------------------------------------
 .byte   PATT
  .word Label_4_014B3600
@ 022   ----------------------------------------
 .byte   PATT
  .word Label_4_014B361A
@ 023   ----------------------------------------
 .byte   PATT
  .word Label_4_014B3600
@ 024   ----------------------------------------
 .byte   PATT
  .word Label_4_014B361A
@ 025   ----------------------------------------
 .byte   PATT
  .word Label_4_014B3600
@ 026   ----------------------------------------
 .byte   PATT
  .word Label_4_014B361A
@ 027   ----------------------------------------
 .byte   PATT
  .word Label_4_014B3600
@ 028   ----------------------------------------
 .byte   PATT
  .word Label_4_014B361A
@ 029   ----------------------------------------
 .byte   PATT
  .word Label_4_014B3600
@ 030   ----------------------------------------
 .byte   PATT
  .word Label_4_014B361A
@ 031   ----------------------------------------
 .byte   PATT
  .word Label_4_014B3600
@ 032   ----------------------------------------
 .byte   PATT
  .word Label_4_014B361A
@ 033   ----------------------------------------
 .byte   PATT
  .word Label_4_014B3600
@ 034   ----------------------------------------
 .byte   PATT
  .word Label_4_014B361A
@ 035   ----------------------------------------
 .byte   PATT
  .word Label_4_014B3600
@ 036   ----------------------------------------
 .byte   PATT
  .word Label_4_014B361A
@ 037   ----------------------------------------
 .byte   PATT
  .word Label_4_014B3600
@ 038   ----------------------------------------
 .byte   PATT
  .word Label_4_014B361A
@ 039   ----------------------------------------
 .byte   W96
@ 040   ----------------------------------------
 .byte   W96
@ 041   ----------------------------------------
 .byte   W96
@ 042   ----------------------------------------
 .byte   W96
@ 043   ----------------------------------------
 .byte   W96
@ 044   ----------------------------------------
 .byte   W96
@ 045   ----------------------------------------
 .byte   W96
@ 046   ----------------------------------------
 .byte   W96
@ 047   ----------------------------------------
 .byte   W96
@ 048   ----------------------------------------
 .byte   W96
@ 049   ----------------------------------------
 .byte   W96
@ 050   ----------------------------------------
 .byte   W96
@ 051   ----------------------------------------
 .byte   W96
@ 052   ----------------------------------------
 .byte   W96
@ 053   ----------------------------------------
 .byte   W96
@ 054   ----------------------------------------
 .byte   W96
@ 055   ----------------------------------------
 .byte   W96
@ 056   ----------------------------------------
 .byte   W96
@ 057   ----------------------------------------
 .byte   W96
@ 058   ----------------------------------------
 .byte   W96
@ 059   ----------------------------------------
 .byte   W96
@ 060   ----------------------------------------
 .byte   W96
@ 061   ----------------------------------------
 .byte   W96
@ 062   ----------------------------------------
 .byte   W96
@ 063   ----------------------------------------
 .byte   W96
@ 064   ----------------------------------------
 .byte   W96
@ 065   ----------------------------------------
 .byte   W96
@ 066   ----------------------------------------
 .byte   W96
@ 067   ----------------------------------------
 .byte   W96
@ 068   ----------------------------------------
 .byte   W96
@ 069   ----------------------------------------
 .byte   W96
@ 070   ----------------------------------------
 .byte   W96
@ 071   ----------------------------------------
 .byte   W96
@ 072   ----------------------------------------
 .byte   W96
@ 073   ----------------------------------------
 .byte   W96
@ 074   ----------------------------------------
 .byte   W96
@ 075   ----------------------------------------
 .byte   W96
@ 076   ----------------------------------------
 .byte   W96
@ 077   ----------------------------------------
 .byte   W96
@ 078   ----------------------------------------
 .byte   W96
@ 079   ----------------------------------------
 .byte   W96
@ 080   ----------------------------------------
 .byte   W96
@ 081   ----------------------------------------
 .byte   W96
@ 082   ----------------------------------------
 .byte   W96
@ 083   ----------------------------------------
 .byte   W96
@ 084   ----------------------------------------
 .byte   W96
@ 085   ----------------------------------------
 .byte   W96
@ 086   ----------------------------------------
 .byte   W96
@ 087   ----------------------------------------
 .byte   GOTO
  .word Label_4_014B3643
@ 088   ----------------------------------------
 .byte   W96
@ 089   ----------------------------------------
 .byte   W80
 .byte   W03
 .byte   FINE

@**************** Track 6 (Midi-Chn.5) ****************@

song5E_006:
@ 000   ----------------------------------------
 .byte   KEYSH , song5E_key+0
 .byte   VOICE , 40
 .byte   VOL , 50*song5E_mvl/mxv
 .byte   W96
@ 001   ----------------------------------------
 .byte   W96
@ 002   ----------------------------------------
 .byte   W96
@ 003   ----------------------------------------
 .byte   W96
@ 004   ----------------------------------------
 .byte   W96
@ 005   ----------------------------------------
 .byte   W96
@ 006   ----------------------------------------
 .byte   W96
@ 007   ----------------------------------------
 .byte   W96
@ 008   ----------------------------------------
 .byte   W96
@ 009   ----------------------------------------
Label_5_014B30F7:
 .byte   W48
 .byte   N11 ,As2 ,v127
 .byte   N11 ,As3
 .byte   W12
 .byte   Cn3
 .byte   N11 ,Cn4
 .byte   W24
 .byte   Cn3
 .byte   N11 ,Cn4
 .byte   W12
 .byte   PEND 
@ 010   ----------------------------------------
 .byte   W96
@ 011   ----------------------------------------
Label_5_014B3108:
 .byte   W48
 .byte   N11 ,Cn3 ,v127
 .byte   N11 ,Cn4
 .byte   W12
 .byte   Gn2
 .byte   N11 ,Gn3
 .byte   W12
 .byte   As2
 .byte   N11 ,As3
 .byte   W12
 .byte   Cn3
 .byte   N11 ,Cn4
 .byte   W12
 .byte   PEND 
@ 012   ----------------------------------------
 .byte   W96
@ 013   ----------------------------------------
Label_5_014B311D:
 .byte   N11 ,Gn2 ,v127
 .byte   N05 ,Gn3
 .byte   W12
 .byte   N11 ,As2
 .byte   N11 ,As3
 .byte   W24
 .byte   Cn4
 .byte   W06
 .byte   Cn3
 .byte   W18
 .byte   N23 ,Ds3
 .byte   N23 ,Ds4
 .byte   W36
 .byte   PEND 
@ 014   ----------------------------------------
Label_5_014B3132:
 .byte   W12
 .byte   N11 ,Fn3 ,v127
 .byte   N11 ,Fn4
 .byte   W12
 .byte   Ds3
 .byte   N11 ,Ds4
 .byte   W12
 .byte   Cn3
 .byte   N11 ,Cn4
 .byte   W12
 .byte   Ds3
 .byte   N11 ,Ds4
 .byte   W12
 .byte   Fn3
 .byte   N11 ,Fn4
 .byte   W24
 .byte   Gn3
 .byte   N11 ,Gn4
 .byte   W12
 .byte   PEND 
@ 015   ----------------------------------------
Label_5_014B314E:
 .byte   W12
 .byte   N11 ,Fn3 ,v127
 .byte   N11 ,Fn4
 .byte   W24
 .byte   Gn3
 .byte   N11 ,Gn4
 .byte   W24
 .byte   N23 ,As3
 .byte   N23 ,As4
 .byte   W36
 .byte   PEND 
@ 016   ----------------------------------------
Label_5_014B315F:
 .byte   N23 ,Cn4 ,v127
 .byte   N23 ,Cn5
 .byte   W96
@ 017   ----------------------------------------
 .byte   PATT
  .word Label_5_014B30F7
@ 018   ----------------------------------------
 .byte   W96
@ 019   ----------------------------------------
 .byte   PATT
  .word Label_5_014B3108
@ 020   ----------------------------------------
 .byte   W96
@ 021   ----------------------------------------
 .byte   PATT
  .word Label_5_014B311D
@ 022   ----------------------------------------
Label_5_014B3176:
 .byte   W24
 .byte   N11 ,Cn3 ,v127
 .byte   N11 ,Cn4
 .byte   W12
 .byte   Gn2
 .byte   N11 ,Gn3
 .byte   W12
 .byte   As2
 .byte   N11 ,As3
 .byte   W12
 .byte   Cn3
 .byte   N11 ,Cn4
 .byte   W36
 .byte   PEND 
@ 023   ----------------------------------------
 .byte   Cn3
 .byte   N11 ,Cn4
 .byte   W12
 .byte   Gn2
 .byte   N11 ,Gn3
 .byte   W12
 .byte   As2
 .byte   N11 ,As3
 .byte   W12
 .byte   Cn3
 .byte   N11 ,Cn4
 .byte   W24
 .byte   Ds3
 .byte   N11 ,Ds4
 .byte   W12
 .byte   N23 ,Fn3
 .byte   N23 ,Fn4
 .byte   W24
@ 024   ----------------------------------------
 .byte   Cn3
 .byte   N23 ,Cn4
 .byte   W96
@ 025   ----------------------------------------
 .byte   PATT
  .word Label_5_014B30F7
@ 026   ----------------------------------------
 .byte   W96
@ 027   ----------------------------------------
 .byte   PATT
  .word Label_5_014B3108
@ 028   ----------------------------------------
 .byte   W96
@ 029   ----------------------------------------
 .byte   PATT
  .word Label_5_014B311D
@ 030   ----------------------------------------
 .byte   PATT
  .word Label_5_014B3132
@ 031   ----------------------------------------
 .byte   PATT
  .word Label_5_014B314E
@ 032   ----------------------------------------
 .byte   N23 ,Cn4 ,v127
 .byte   N23 ,Cn5
 .byte   W96
@ 033   ----------------------------------------
 .byte   PATT
  .word Label_5_014B30F7
@ 034   ----------------------------------------
 .byte   W96
@ 035   ----------------------------------------
 .byte   PATT
  .word Label_5_014B3108
@ 036   ----------------------------------------
 .byte   W96
@ 037   ----------------------------------------
 .byte   PATT
  .word Label_5_014B311D
@ 038   ----------------------------------------
 .byte   PATT
  .word Label_5_014B3132
@ 039   ----------------------------------------
 .byte   PATT
  .word Label_5_014B314E
@ 040   ----------------------------------------
 .byte   N23 ,Cn4 ,v127
 .byte   N23 ,Cn5
 .byte   W96
@ 041   ----------------------------------------
 .byte   W96
@ 042   ----------------------------------------
 .byte   W96
@ 043   ----------------------------------------
 .byte   PATT
  .word Label_5_014B30F7
@ 044   ----------------------------------------
 .byte   W96
@ 045   ----------------------------------------
 .byte   W96
@ 046   ----------------------------------------
 .byte   PATT
  .word Label_5_014B3176
@ 047   ----------------------------------------
 .byte   N11 ,Cn3 ,v127
 .byte   N11 ,Cn4
 .byte   W12
 .byte   Gn2
 .byte   N11 ,Gn3
 .byte   W12
 .byte   As2
 .byte   N11 ,As3
 .byte   W12
 .byte   Cn3
 .byte   N11 ,Cn4
 .byte   W24
 .byte   Ds3
 .byte   N11 ,Ds4
 .byte   W12
 .byte   Fn3
 .byte   N11 ,Fn4
 .byte   W24
@ 048   ----------------------------------------
 .byte   Cn3
 .byte   N23 ,Cn4
 .byte   W96
@ 049   ----------------------------------------
 .byte   W96
@ 050   ----------------------------------------
 .byte   W96
@ 051   ----------------------------------------
 .byte   PATT
  .word Label_5_014B30F7
@ 052   ----------------------------------------
 .byte   W96
@ 053   ----------------------------------------
 .byte   W96
@ 054   ----------------------------------------
 .byte   W96
@ 055   ----------------------------------------
 .byte   N11 ,As3 ,v127
 .byte   W12
 .byte   Cn4
 .byte   W24
 .byte   Ds4
 .byte   W24
 .byte   N23 ,Fn4
 .byte   W36
@ 056   ----------------------------------------
 .byte   Cn4
 .byte   N23 ,Cn5
 .byte   W96
@ 057   ----------------------------------------
 .byte   PATT
  .word Label_5_014B30F7
@ 058   ----------------------------------------
 .byte   W96
@ 059   ----------------------------------------
 .byte   PATT
  .word Label_5_014B3108
@ 060   ----------------------------------------
 .byte   W96
@ 061   ----------------------------------------
 .byte   PATT
  .word Label_5_014B311D
@ 062   ----------------------------------------
 .byte   PATT
  .word Label_5_014B3176
@ 063   ----------------------------------------
 .byte   N11 ,Cn3 ,v127
 .byte   N11 ,Cn4
 .byte   W12
 .byte   Gn2
 .byte   N11 ,Gn3
 .byte   W12
 .byte   As2
 .byte   N11 ,As3
 .byte   W12
 .byte   Cn3
 .byte   N11 ,Cn4
 .byte   W24
 .byte   Ds3
 .byte   N11 ,Ds4
 .byte   W12
 .byte   Fn3
 .byte   N23 ,Fn4
 .byte   W24
@ 064   ----------------------------------------
 .byte   Cn3
 .byte   N23 ,Cn4
 .byte   W96
@ 065   ----------------------------------------
 .byte   PATT
  .word Label_5_014B30F7
@ 066   ----------------------------------------
 .byte   W96
@ 067   ----------------------------------------
 .byte   PATT
  .word Label_5_014B3108
@ 068   ----------------------------------------
 .byte   W96
@ 069   ----------------------------------------
 .byte   PATT
  .word Label_5_014B311D
@ 070   ----------------------------------------
 .byte   W96
@ 071   ----------------------------------------
 .byte   W96
@ 072   ----------------------------------------
Label_5_014B3275:
 .byte   W24
 .byte   N11 ,Ds3 ,v127
 .byte   N11 ,Ds4
 .byte   W12
 .byte   As2
 .byte   N11 ,As3
 .byte   W12
 .byte   Cn3
 .byte   N11 ,Cn4
 .byte   W12
 .byte   Ds3
 .byte   N11 ,Ds4
 .byte   W36
 .byte   PEND 
@ 073   ----------------------------------------
Label_5_014B3289:
 .byte   N11 ,Ds3 ,v127
 .byte   N11 ,Ds4
 .byte   W12
 .byte   As2
 .byte   N11 ,As3
 .byte   W12
 .byte   Cn3
 .byte   N11 ,Cn4
 .byte   W12
 .byte   Ds3
 .byte   N11 ,Ds4
 .byte   W24
 .byte   Fn3
 .byte   N11 ,Fn4
 .byte   W36
 .byte   PEND 
@ 074   ----------------------------------------
Label_5_014B32A0:
 .byte   W24
 .byte   N11 ,Fn3 ,v127
 .byte   N11 ,Fn4
 .byte   W12
 .byte   Bn2
 .byte   N11 ,Bn3
 .byte   W12
 .byte   Ds3
 .byte   N11 ,Ds4
 .byte   W12
 .byte   Fn3
 .byte   N11 ,Fn4
 .byte   W36
 .byte   PEND 
@ 075   ----------------------------------------
Label_5_014B32B4:
 .byte   N11 ,Fn3 ,v127
 .byte   N11 ,Fn4
 .byte   W12
 .byte   Bn2
 .byte   N11 ,Bn3
 .byte   W12
 .byte   Ds3
 .byte   N11 ,Ds4
 .byte   W12
 .byte   Fn3
 .byte   N11 ,Fn4
 .byte   W24
 .byte   Gn3
 .byte   N11 ,Gn4
 .byte   W36
 .byte   PEND 
@ 076   ----------------------------------------
 .byte   TIE ,Fn3
 .byte   TIE ,Fn4
 .byte   W96
@ 077   ----------------------------------------
 .byte   W80
 .byte   W01
 .byte   EOT
 .byte   Fn3 ,v077
 .byte   W03
 .byte   N05 ,Gn3
 .byte   N05 ,Gn4
 .byte   W06
 .byte   Fn3
 .byte   N05 ,Fn4
 .byte   W06
@ 078   ----------------------------------------
 .byte   TIE ,En3
 .byte   TIE ,En4
 .byte   W96
@ 079   ----------------------------------------
 .byte   W44
 .byte   W03
 .byte   EOT
 .byte   En3 ,v076
 .byte   W01
 .byte   N11 ,Cn3
 .byte   N11 ,Cn4
 .byte   W12
 .byte   Dn3
 .byte   N11 ,Dn4
 .byte   W12
 .byte   N32 ,En3
 .byte   N32 ,En4
 .byte   W24
@ 080   ----------------------------------------
 .byte   PATT
  .word Label_5_014B3275
@ 081   ----------------------------------------
 .byte   PATT
  .word Label_5_014B3289
@ 082   ----------------------------------------
 .byte   PATT
  .word Label_5_014B32A0
@ 083   ----------------------------------------
 .byte   PATT
  .word Label_5_014B32B4
@ 084   ----------------------------------------
 .byte   N92 ,Fn3 ,v127
 .byte   N92 ,Fn4
 .byte   W96
@ 085   ----------------------------------------
 .byte   N11 ,Ds3
 .byte   N11 ,Ds4
 .byte   W12
 .byte   Fn3
 .byte   N11 ,Fn4
 .byte   W24
 .byte   Gn3
 .byte   N11 ,Gn4
 .byte   W24
 .byte   N23 ,As3
 .byte   N23 ,As4
 .byte   W36
@ 086   ----------------------------------------
 .byte   GOTO
  .word Label_5_014B315F
@ 087   ----------------------------------------
 .byte   N23 ,Cn4 ,v127
 .byte   N23 ,Cn5
 .byte   W96
@ 088   ----------------------------------------
 .byte   W80
 .byte   W03
 .byte   FINE

@**************** Track 7 (Midi-Chn.6) ****************@

song5E_007:
@ 000   ----------------------------------------
 .byte   KEYSH , song5E_key+0
 .byte   VOICE , 47
 .byte   VOL , 45*song5E_mvl/mxv
 .byte   W96
@ 001   ----------------------------------------
 .byte   W96
@ 002   ----------------------------------------
 .byte   W96
@ 003   ----------------------------------------
 .byte   W96
@ 004   ----------------------------------------
 .byte   W96
@ 005   ----------------------------------------
 .byte   W96
@ 006   ----------------------------------------
 .byte   W96
@ 007   ----------------------------------------
 .byte   W96
@ 008   ----------------------------------------
Label_6_014B4336:
 .byte   N05 ,Cn4 ,v127
 .byte   W36
 .byte   N05
 .byte   W36
 .byte   N05
 .byte   W24
 .byte   PEND 
@ 009   ----------------------------------------
 .byte   PATT
  .word Label_6_014B4336
@ 010   ----------------------------------------
 .byte   PATT
  .word Label_6_014B4336
@ 011   ----------------------------------------
 .byte   PATT
  .word Label_6_014B4336
@ 012   ----------------------------------------
 .byte   PATT
  .word Label_6_014B4336
@ 013   ----------------------------------------
 .byte   PATT
  .word Label_6_014B4336
@ 014   ----------------------------------------
 .byte   W96
@ 015   ----------------------------------------
 .byte   W96
@ 016   ----------------------------------------
Label_6_014B435A:
@ 017   ----------------------------------------
 .byte   PATT
  .word Label_6_014B4336
@ 018   ----------------------------------------
 .byte   PATT
  .word Label_6_014B4336
@ 019   ----------------------------------------
 .byte   PATT
  .word Label_6_014B4336
@ 020   ----------------------------------------
 .byte   PATT
  .word Label_6_014B4336
@ 021   ----------------------------------------
 .byte   PATT
  .word Label_6_014B4336
@ 022   ----------------------------------------
 .byte   PATT
  .word Label_6_014B4336
@ 023   ----------------------------------------
 .byte   W96
@ 024   ----------------------------------------
 .byte   W96
@ 025   ----------------------------------------
 .byte   PATT
  .word Label_6_014B4336
@ 026   ----------------------------------------
 .byte   PATT
  .word Label_6_014B4336
@ 027   ----------------------------------------
 .byte   PATT
  .word Label_6_014B4336
@ 028   ----------------------------------------
 .byte   PATT
  .word Label_6_014B4336
@ 029   ----------------------------------------
 .byte   PATT
  .word Label_6_014B4336
@ 030   ----------------------------------------
 .byte   PATT
  .word Label_6_014B4336
@ 031   ----------------------------------------
 .byte   W96
@ 032   ----------------------------------------
 .byte   W96
@ 033   ----------------------------------------
 .byte   PATT
  .word Label_6_014B4336
@ 034   ----------------------------------------
 .byte   PATT
  .word Label_6_014B4336
@ 035   ----------------------------------------
 .byte   PATT
  .word Label_6_014B4336
@ 036   ----------------------------------------
 .byte   PATT
  .word Label_6_014B4336
@ 037   ----------------------------------------
 .byte   PATT
  .word Label_6_014B4336
@ 038   ----------------------------------------
 .byte   PATT
  .word Label_6_014B4336
@ 039   ----------------------------------------
 .byte   W96
@ 040   ----------------------------------------
 .byte   W96
@ 041   ----------------------------------------
 .byte   PATT
  .word Label_6_014B4336
@ 042   ----------------------------------------
 .byte   PATT
  .word Label_6_014B4336
@ 043   ----------------------------------------
 .byte   PATT
  .word Label_6_014B4336
@ 044   ----------------------------------------
 .byte   PATT
  .word Label_6_014B4336
@ 045   ----------------------------------------
 .byte   PATT
  .word Label_6_014B4336
@ 046   ----------------------------------------
 .byte   PATT
  .word Label_6_014B4336
@ 047   ----------------------------------------
 .byte   PATT
  .word Label_6_014B4336
@ 048   ----------------------------------------
 .byte   PATT
  .word Label_6_014B4336
@ 049   ----------------------------------------
 .byte   PATT
  .word Label_6_014B4336
@ 050   ----------------------------------------
 .byte   PATT
  .word Label_6_014B4336
@ 051   ----------------------------------------
 .byte   PATT
  .word Label_6_014B4336
@ 052   ----------------------------------------
 .byte   PATT
  .word Label_6_014B4336
@ 053   ----------------------------------------
 .byte   PATT
  .word Label_6_014B4336
@ 054   ----------------------------------------
 .byte   PATT
  .word Label_6_014B4336
@ 055   ----------------------------------------
 .byte   PATT
  .word Label_6_014B4336
@ 056   ----------------------------------------
 .byte   PATT
  .word Label_6_014B4336
@ 057   ----------------------------------------
 .byte   PATT
  .word Label_6_014B4336
@ 058   ----------------------------------------
 .byte   PATT
  .word Label_6_014B4336
@ 059   ----------------------------------------
 .byte   PATT
  .word Label_6_014B4336
@ 060   ----------------------------------------
 .byte   PATT
  .word Label_6_014B4336
@ 061   ----------------------------------------
 .byte   PATT
  .word Label_6_014B4336
@ 062   ----------------------------------------
 .byte   PATT
  .word Label_6_014B4336
@ 063   ----------------------------------------
 .byte   W96
@ 064   ----------------------------------------
 .byte   W96
@ 065   ----------------------------------------
 .byte   PATT
  .word Label_6_014B4336
@ 066   ----------------------------------------
 .byte   PATT
  .word Label_6_014B4336
@ 067   ----------------------------------------
 .byte   PATT
  .word Label_6_014B4336
@ 068   ----------------------------------------
 .byte   PATT
  .word Label_6_014B4336
@ 069   ----------------------------------------
 .byte   PATT
  .word Label_6_014B4336
@ 070   ----------------------------------------
 .byte   PATT
  .word Label_6_014B4336
@ 071   ----------------------------------------
 .byte   W96
@ 072   ----------------------------------------
 .byte   W96
@ 073   ----------------------------------------
 .byte   PATT
  .word Label_6_014B4336
@ 074   ----------------------------------------
 .byte   PATT
  .word Label_6_014B4336
@ 075   ----------------------------------------
 .byte   PATT
  .word Label_6_014B4336
@ 076   ----------------------------------------
 .byte   PATT
  .word Label_6_014B4336
@ 077   ----------------------------------------
 .byte   PATT
  .word Label_6_014B4336
@ 078   ----------------------------------------
 .byte   PATT
  .word Label_6_014B4336
@ 079   ----------------------------------------
 .byte   W96
@ 080   ----------------------------------------
 .byte   W96
@ 081   ----------------------------------------
 .byte   PATT
  .word Label_6_014B4336
@ 082   ----------------------------------------
 .byte   PATT
  .word Label_6_014B4336
@ 083   ----------------------------------------
 .byte   PATT
  .word Label_6_014B4336
@ 084   ----------------------------------------
 .byte   PATT
  .word Label_6_014B4336
@ 085   ----------------------------------------
 .byte   PATT
  .word Label_6_014B4336
@ 086   ----------------------------------------
 .byte   PATT
  .word Label_6_014B4336
@ 087   ----------------------------------------
 .byte   GOTO
  .word Label_6_014B435A
@ 088   ----------------------------------------
 .byte   W96
@ 089   ----------------------------------------
 .byte   W80
 .byte   W03
 .byte   FINE

@**************** Track 8 (Midi-Chn.7) ****************@

song5E_008:
@ 000   ----------------------------------------
 .byte   KEYSH , song5E_key+0
 .byte   VOICE , 60
 .byte   VOL , 60*song5E_mvl/mxv
 .byte   W96
@ 001   ----------------------------------------
 .byte   W96
@ 002   ----------------------------------------
 .byte   W96
@ 003   ----------------------------------------
 .byte   W96
@ 004   ----------------------------------------
Label_7_014B449E:
 .byte   W24
 .byte   N11 ,Cn3 ,v127
 .byte   W24
 .byte   Ds3
 .byte   W12
 .byte   Fn3
 .byte   W24
 .byte   Gn3
 .byte   W12
 .byte   PEND 
@ 005   ----------------------------------------
Label_7_014B44AA:
 .byte   W12
 .byte   N11 ,Fn3 ,v127
 .byte   W24
 .byte   Ds3
 .byte   W12
 .byte   Fn3
 .byte   W24
 .byte   Gn3
 .byte   W24
 .byte   PEND 
@ 006   ----------------------------------------
 .byte   W96
@ 007   ----------------------------------------
 .byte   W96
@ 008   ----------------------------------------
 .byte   W96
@ 009   ----------------------------------------
 .byte   W96
@ 010   ----------------------------------------
 .byte   W96
@ 011   ----------------------------------------
 .byte   W96
@ 012   ----------------------------------------
 .byte   PATT
  .word Label_7_014B449E
@ 013   ----------------------------------------
 .byte   PATT
  .word Label_7_014B44AA
@ 014   ----------------------------------------
 .byte   W96
@ 015   ----------------------------------------
 .byte   W96
@ 016   ----------------------------------------
Label_7_014B44C8:
 .byte   W24
 .byte   N11 ,Cn3 ,v127
 .byte   N11 ,Gn4
 .byte   W24
 .byte   Ds3
 .byte   N11 ,Fn4
 .byte   W12
 .byte   Fn3
 .byte   W24
 .byte   Gn3
 .byte   N11 ,Fn4
 .byte   W12
 .byte   PEND 
@ 017   ----------------------------------------
Label_7_014B44DA:
 .byte   W12
 .byte   N11 ,Fn3 ,v127
 .byte   N11 ,Fn4
 .byte   W24
 .byte   Ds3
 .byte   N11 ,Ds4
 .byte   W12
 .byte   Fn3
 .byte   N11 ,Fn4
 .byte   W24
 .byte   Ds3
 .byte   N11 ,Ds4
 .byte   W24
 .byte   PEND 
@ 018   ----------------------------------------
 .byte   PATT
  .word Label_7_014B44C8
@ 019   ----------------------------------------
 .byte   PATT
  .word Label_7_014B44DA
@ 020   ----------------------------------------
 .byte   PATT
  .word Label_7_014B44C8
@ 021   ----------------------------------------
 .byte   PATT
  .word Label_7_014B44DA
@ 022   ----------------------------------------
Label_7_014B4502:
 .byte   N11 ,Gn3 ,v127
 .byte   N11 ,Gn4
 .byte   W48
 .byte   Cn3
 .byte   N11 ,Cn4
 .byte   W36
 .byte   As2
 .byte   N11 ,As3
 .byte   W12
 .byte   PEND 
@ 023   ----------------------------------------
Label_7_014B4511:
 .byte   W12
 .byte   N11 ,As2 ,v127
 .byte   N11 ,As3
 .byte   W12
 .byte   Cn3
 .byte   N11 ,Cn4
 .byte   W72
 .byte   PEND 
@ 024   ----------------------------------------
 .byte   PATT
  .word Label_7_014B44C8
@ 025   ----------------------------------------
 .byte   PATT
  .word Label_7_014B44DA
@ 026   ----------------------------------------
 .byte   PATT
  .word Label_7_014B44C8
@ 027   ----------------------------------------
 .byte   PATT
  .word Label_7_014B44DA
@ 028   ----------------------------------------
 .byte   PATT
  .word Label_7_014B44C8
@ 029   ----------------------------------------
 .byte   PATT
  .word Label_7_014B44DA
@ 030   ----------------------------------------
 .byte   PATT
  .word Label_7_014B4502
@ 031   ----------------------------------------
 .byte   PATT
  .word Label_7_014B4511
@ 032   ----------------------------------------
 .byte   W96
@ 033   ----------------------------------------
 .byte   W96
@ 034   ----------------------------------------
 .byte   W96
@ 035   ----------------------------------------
 .byte   W96
@ 036   ----------------------------------------
 .byte   W96
@ 037   ----------------------------------------
 .byte   W96
@ 038   ----------------------------------------
 .byte   W96
@ 039   ----------------------------------------
 .byte   W96
@ 040   ----------------------------------------
Label_7_014B454D:
 .byte   W24
 .byte   N23 ,Gn4 ,v127
 .byte   W24
 .byte   Fn4
 .byte   W24
 .byte   Ds4
 .byte   W24
 .byte   PEND 
@ 041   ----------------------------------------
Label_7_014B4557:
 .byte   N23 ,Gn4 ,v127
 .byte   W72
 .byte   Fn4
 .byte   W24
 .byte   PEND 
@ 042   ----------------------------------------
Label_7_014B455E:
 .byte   W24
 .byte   N23 ,Ds4 ,v127
 .byte   W48
 .byte   Dn4
 .byte   W24
 .byte   PEND 
@ 043   ----------------------------------------
 .byte   W24
 .byte   Ds4
 .byte   W72
@ 044   ----------------------------------------
Label_7_014B4569:
 .byte   W24
 .byte   N11 ,Gn3 ,v127
 .byte   N11 ,Cn5
 .byte   W24
 .byte   Fn3
 .byte   N11 ,As4
 .byte   W36
 .byte   Fn3
 .byte   N11 ,As4
 .byte   W12
 .byte   PEND 
@ 045   ----------------------------------------
Label_7_014B4579:
 .byte   W12
 .byte   N11 ,Fn3 ,v127
 .byte   N11 ,As4
 .byte   W24
 .byte   Ds3
 .byte   N11 ,Gn4
 .byte   W12
 .byte   Fn3
 .byte   N11 ,As4
 .byte   W24
 .byte   Gn3
 .byte   N11 ,Cn5
 .byte   W24
 .byte   PEND 
@ 046   ----------------------------------------
 .byte   PATT
  .word Label_7_014B4569
@ 047   ----------------------------------------
 .byte   PATT
  .word Label_7_014B4579
@ 048   ----------------------------------------
 .byte   PATT
  .word Label_7_014B454D
@ 049   ----------------------------------------
 .byte   PATT
  .word Label_7_014B4557
@ 050   ----------------------------------------
 .byte   PATT
  .word Label_7_014B455E
@ 051   ----------------------------------------
 .byte   W24
 .byte   N23 ,Ds4 ,v127
 .byte   W72
@ 052   ----------------------------------------
 .byte   PATT
  .word Label_7_014B454D
@ 053   ----------------------------------------
 .byte   N23 ,Gn4 ,v127
 .byte   W48
 .byte   Cn5
 .byte   W24
 .byte   Fn4
 .byte   W24
@ 054   ----------------------------------------
 .byte   W24
 .byte   Ds4
 .byte   W48
 .byte   Gn4
 .byte   W24
@ 055   ----------------------------------------
 .byte   W24
 .byte   As3
 .byte   W72
@ 056   ----------------------------------------
 .byte   PATT
  .word Label_7_014B44C8
@ 057   ----------------------------------------
 .byte   PATT
  .word Label_7_014B44DA
@ 058   ----------------------------------------
 .byte   PATT
  .word Label_7_014B44C8
@ 059   ----------------------------------------
 .byte   PATT
  .word Label_7_014B44DA
@ 060   ----------------------------------------
 .byte   PATT
  .word Label_7_014B44C8
@ 061   ----------------------------------------
 .byte   PATT
  .word Label_7_014B44DA
@ 062   ----------------------------------------
 .byte   PATT
  .word Label_7_014B4502
@ 063   ----------------------------------------
 .byte   PATT
  .word Label_7_014B4511
@ 064   ----------------------------------------
 .byte   PATT
  .word Label_7_014B44C8
@ 065   ----------------------------------------
 .byte   PATT
  .word Label_7_014B44DA
@ 066   ----------------------------------------
 .byte   PATT
  .word Label_7_014B44C8
@ 067   ----------------------------------------
 .byte   PATT
  .word Label_7_014B44DA
@ 068   ----------------------------------------
 .byte   PATT
  .word Label_7_014B44C8
@ 069   ----------------------------------------
 .byte   PATT
  .word Label_7_014B44DA
@ 070   ----------------------------------------
 .byte   PATT
  .word Label_7_014B4502
@ 071   ----------------------------------------
 .byte   PATT
  .word Label_7_014B4511
@ 072   ----------------------------------------
 .byte   W96
@ 073   ----------------------------------------
 .byte   W96
@ 074   ----------------------------------------
Label_7_014B4612:
 .byte   W24
 .byte   N11 ,Cn4 ,v127
 .byte   W24
 .byte   Ds4
 .byte   W12
 .byte   Fn4
 .byte   W24
 .byte   Gn4
 .byte   W12
 .byte   PEND 
@ 075   ----------------------------------------
Label_7_014B461E:
 .byte   W12
 .byte   N11 ,Fn4 ,v127
 .byte   W24
 .byte   Ds4
 .byte   W12
 .byte   Fn4
 .byte   W24
 .byte   Gn4
 .byte   W24
 .byte   PEND 
@ 076   ----------------------------------------
Label_7_014B462A:
 .byte   W24
 .byte   N11 ,Cn3 ,v127
 .byte   N11 ,Cn4
 .byte   W24
 .byte   As2
 .byte   N11 ,As3
 .byte   W12
 .byte   Gn2
 .byte   W24
 .byte   As2
 .byte   N11 ,As3
 .byte   W12
 .byte   PEND 
@ 077   ----------------------------------------
Label_7_014B463C:
 .byte   W12
 .byte   N11 ,As2 ,v127
 .byte   N11 ,As3
 .byte   W24
 .byte   Gn2
 .byte   N11 ,Gn3
 .byte   W12
 .byte   As2
 .byte   N11 ,As3
 .byte   W24
 .byte   Cn3
 .byte   N11 ,Cn4
 .byte   W24
 .byte   PEND 
@ 078   ----------------------------------------
 .byte   PATT
  .word Label_7_014B462A
@ 079   ----------------------------------------
 .byte   PATT
  .word Label_7_014B463C
@ 080   ----------------------------------------
 .byte   N11 ,Gn4 ,v127
 .byte   W48
 .byte   Cn4
 .byte   W36
 .byte   As3
 .byte   W12
@ 081   ----------------------------------------
 .byte   W12
 .byte   N11
 .byte   W12
 .byte   Cn4
 .byte   W72
@ 082   ----------------------------------------
 .byte   PATT
  .word Label_7_014B4612
@ 083   ----------------------------------------
 .byte   PATT
  .word Label_7_014B461E
@ 084   ----------------------------------------
 .byte   PATT
  .word Label_7_014B462A
@ 085   ----------------------------------------
 .byte   PATT
  .word Label_7_014B463C
@ 086   ----------------------------------------
 .byte   GOTO
  .word Label_7_014B44C8
@ 087   ----------------------------------------
 .byte   PATT
  .word Label_7_014B462A
@ 088   ----------------------------------------
 .byte   W12
 .byte   N11 ,As2 ,v127
 .byte   N11 ,As3
 .byte   W24
 .byte   Gn2
 .byte   N11 ,Gn3
 .byte   W12
 .byte   As2
 .byte   N11 ,As3
 .byte   W24
 .byte   Cn3
 .byte   N11 ,Cn4
 .byte   W11
 .byte   FINE

@******************************************************@
	.align	2

song5E:
	.byte	8	@ NumTrks
	.byte	0	@ NumBlks
	.byte	song5E_pri	@ Priority
	.byte	song5E_rev	@ Reverb.
    
	.word	song5E_grp
    
	.word	song5E_001
	.word	song5E_002
	.word	song5E_003
	.word	song5E_004
	.word	song5E_005
	.word	song5E_006
	.word	song5E_007
	.word	song5E_008

	.end
