	.include "MPlayDef.s"

	.equ	song09_grp, voicegroup000
	.equ	song09_pri, 0
	.equ	song09_rev, 0
	.equ	song09_mvl, 127
	.equ	song09_key, 0
	.equ	song09_tbs, 1
	.equ	song09_exg, 0
	.equ	song09_cmp, 1

	.section .rodata
	.global	song09
	.align	2


@**************** Track 1 (Midi-Chn.0) ****************@

song09_001:
@ 000   ----------------------------------------
 .byte   KEYSH , song09_key+0
 .byte   TEMPO , 234*song09_tbs/2
 .byte   VOICE , 48
 .byte   VOL , 56*song09_mvl/mxv
 .byte   PAN , c_v+0
 .byte   W96
@ 001   ----------------------------------------
Label_0_014DC8B3:
 .byte   N12 ,An2 ,v127
 .byte   W36
 .byte   As2
 .byte   W36
 .byte   Bn2
 .byte   W24
 .byte   PEND 
@ 002   ----------------------------------------
 .byte   W96
@ 003   ----------------------------------------
Label_0_014DC8BD:
 .byte   N12 ,Cn3 ,v127
 .byte   W36
 .byte   Cs3
 .byte   W36
 .byte   Dn3
 .byte   W12
 .byte   N12
 .byte   W12
 .byte   PEND 
@ 004   ----------------------------------------
 .byte   W96
@ 005   ----------------------------------------
Label_0_014DC8C9:
 .byte   N12 ,Bn2 ,v127
 .byte   W36
 .byte   Cn3
 .byte   W36
 .byte   Cs3
 .byte   W24
 .byte   PEND 
@ 006   ----------------------------------------
 .byte   W96
@ 007   ----------------------------------------
Label_0_014DC8D3:
 .byte   N12 ,Dn3 ,v127
 .byte   W36
 .byte   Ds3
 .byte   W36
 .byte   En3
 .byte   W12
 .byte   N12
 .byte   W12
 .byte   PEND 
@ 008   ----------------------------------------
Label_0_014DC8DE:
 .byte   N12 ,As3 ,v127
 .byte   W12
 .byte   N12
 .byte   W12
 .byte   N12
 .byte   W24
 .byte   N12
 .byte   W24
 .byte   N12
 .byte   W12
 .byte   N12
 .byte   W12
 .byte   PEND 
@ 009   ----------------------------------------
Label_0_014DC8ED:
 .byte   N12 ,As3 ,v127
 .byte   W12
 .byte   N12
 .byte   W24
 .byte   N12
 .byte   W12
 .byte   N12
 .byte   W24
 .byte   N12
 .byte   W12
 .byte   N12
 .byte   W12
 .byte   PEND 
@ 010   ----------------------------------------
 .byte   PATT
  .word Label_0_014DC8DE
@ 011   ----------------------------------------
 .byte   PATT
  .word Label_0_014DC8ED
@ 012   ----------------------------------------
Label_0_014DC906:
 .byte   N12 ,An3 ,v127
 .byte   W12
 .byte   N12
 .byte   W12
 .byte   N12
 .byte   W24
 .byte   N12
 .byte   W24
 .byte   N12
 .byte   W12
 .byte   N12
 .byte   W12
 .byte   PEND 
@ 013   ----------------------------------------
Label_0_014DC915:
 .byte   N12 ,An3 ,v127
 .byte   W12
 .byte   N12
 .byte   W24
 .byte   N12
 .byte   W12
 .byte   N12
 .byte   W24
 .byte   N12
 .byte   W12
 .byte   N12
 .byte   W12
 .byte   PEND 
@ 014   ----------------------------------------
 .byte   PATT
  .word Label_0_014DC906
@ 015   ----------------------------------------
 .byte   PATT
  .word Label_0_014DC915
@ 016   ----------------------------------------
 .byte   PATT
  .word Label_0_014DC8DE
@ 017   ----------------------------------------
 .byte   PATT
  .word Label_0_014DC8ED
@ 018   ----------------------------------------
 .byte   PATT
  .word Label_0_014DC8DE
@ 019   ----------------------------------------
 .byte   PATT
  .word Label_0_014DC8ED
@ 020   ----------------------------------------
 .byte   PATT
  .word Label_0_014DC906
@ 021   ----------------------------------------
 .byte   PATT
  .word Label_0_014DC915
@ 022   ----------------------------------------
 .byte   PATT
  .word Label_0_014DC906
@ 023   ----------------------------------------
 .byte   PATT
  .word Label_0_014DC915
@ 024   ----------------------------------------
 .byte   W96
@ 025   ----------------------------------------
 .byte   W96
@ 026   ----------------------------------------
 .byte   W96
@ 027   ----------------------------------------
 .byte   W96
@ 028   ----------------------------------------
 .byte   W96
@ 029   ----------------------------------------
 .byte   W96
@ 030   ----------------------------------------
 .byte   W96
@ 031   ----------------------------------------
 .byte   W96
@ 032   ----------------------------------------
Label_0_014DC95E:
 .byte   N12 ,An3 ,v080
 .byte   W24
 .byte   N12
 .byte   W48
 .byte   N12
 .byte   W24
 .byte   PEND 
@ 033   ----------------------------------------
Label_0_014DC967:
 .byte   N12 ,An3 ,v080
 .byte   W12
 .byte   N12
 .byte   W12
 .byte   N12
 .byte   W48
 .byte   N12
 .byte   W24
 .byte   PEND 
@ 034   ----------------------------------------
Label_0_014DC972:
 .byte   N12 ,Gn3 ,v080
 .byte   W24
 .byte   N12
 .byte   W48
 .byte   N12
 .byte   W24
 .byte   PEND 
@ 035   ----------------------------------------
Label_0_014DC97B:
 .byte   N12 ,An3 ,v080
 .byte   W12
 .byte   N12
 .byte   W12
 .byte   N12
 .byte   W24
 .byte   N12
 .byte   W24
 .byte   N12
 .byte   W12
 .byte   N12
 .byte   W12
 .byte   PEND 
@ 036   ----------------------------------------
 .byte   PATT
  .word Label_0_014DC95E
@ 037   ----------------------------------------
 .byte   PATT
  .word Label_0_014DC967
@ 038   ----------------------------------------
 .byte   PATT
  .word Label_0_014DC972
@ 039   ----------------------------------------
 .byte   PATT
  .word Label_0_014DC97B
@ 040   ----------------------------------------
Label_0_014DC99E:
 .byte   N12 ,Dn3 ,v080
 .byte   W24
 .byte   N12
 .byte   W48
 .byte   N12
 .byte   W24
 .byte   PEND 
@ 041   ----------------------------------------
Label_0_014DC9A7:
 .byte   N12 ,Dn3 ,v080
 .byte   W12
 .byte   N12
 .byte   W12
 .byte   N12
 .byte   W48
 .byte   N12
 .byte   W24
 .byte   PEND 
@ 042   ----------------------------------------
Label_0_014DC9B2:
 .byte   N12 ,Cn3 ,v080
 .byte   W24
 .byte   N12
 .byte   W48
 .byte   N12
 .byte   W24
 .byte   PEND 
@ 043   ----------------------------------------
Label_0_014DC9BB:
 .byte   N12 ,Dn3 ,v080
 .byte   W12
 .byte   N12
 .byte   W12
 .byte   N12
 .byte   W24
 .byte   N12
 .byte   W24
 .byte   N12
 .byte   W12
 .byte   N12
 .byte   W12
 .byte   PEND 
@ 044   ----------------------------------------
 .byte   PATT
  .word Label_0_014DC99E
@ 045   ----------------------------------------
 .byte   PATT
  .word Label_0_014DC9A7
@ 046   ----------------------------------------
 .byte   PATT
  .word Label_0_014DC95E
@ 047   ----------------------------------------
 .byte   PATT
  .word Label_0_014DC967
@ 048   ----------------------------------------
 .byte   PATT
  .word Label_0_014DC95E
@ 049   ----------------------------------------
 .byte   PATT
  .word Label_0_014DC97B
@ 050   ----------------------------------------
 .byte   W96
@ 051   ----------------------------------------
 .byte   W96
@ 052   ----------------------------------------
 .byte   W96
@ 053   ----------------------------------------
 .byte   W96
@ 054   ----------------------------------------
 .byte   W96
@ 055   ----------------------------------------
 .byte   PATT
  .word Label_0_014DC8B3
@ 056   ----------------------------------------
 .byte   W96
@ 057   ----------------------------------------
 .byte   PATT
  .word Label_0_014DC8BD
@ 058   ----------------------------------------
 .byte   W96
@ 059   ----------------------------------------
 .byte   PATT
  .word Label_0_014DC8C9
@ 060   ----------------------------------------
 .byte   W96
@ 061   ----------------------------------------
 .byte   PATT
  .word Label_0_014DC8D3
@ 062   ----------------------------------------
 .byte   PATT
  .word Label_0_014DC8DE
@ 063   ----------------------------------------
 .byte   PATT
  .word Label_0_014DC8ED
@ 064   ----------------------------------------
 .byte   PATT
  .word Label_0_014DC8DE
@ 065   ----------------------------------------
 .byte   PATT
  .word Label_0_014DC8ED
@ 066   ----------------------------------------
 .byte   PATT
  .word Label_0_014DC906
@ 067   ----------------------------------------
 .byte   PATT
  .word Label_0_014DC915
@ 068   ----------------------------------------
 .byte   PATT
  .word Label_0_014DC906
@ 069   ----------------------------------------
 .byte   PATT
  .word Label_0_014DC915
@ 070   ----------------------------------------
 .byte   PATT
  .word Label_0_014DC8DE
@ 071   ----------------------------------------
 .byte   PATT
  .word Label_0_014DC8ED
@ 072   ----------------------------------------
 .byte   PATT
  .word Label_0_014DC8DE
@ 073   ----------------------------------------
 .byte   PATT
  .word Label_0_014DC8ED
@ 074   ----------------------------------------
 .byte   PATT
  .word Label_0_014DC906
@ 075   ----------------------------------------
 .byte   PATT
  .word Label_0_014DC915
@ 076   ----------------------------------------
 .byte   PATT
  .word Label_0_014DC906
@ 077   ----------------------------------------
 .byte   PATT
  .word Label_0_014DC915
@ 078   ----------------------------------------
 .byte   W96
@ 079   ----------------------------------------
 .byte   W96
@ 080   ----------------------------------------
 .byte   W96
@ 081   ----------------------------------------
 .byte   W96
@ 082   ----------------------------------------
 .byte   W96
@ 083   ----------------------------------------
 .byte   W96
@ 084   ----------------------------------------
 .byte   W96
@ 085   ----------------------------------------
 .byte   W96
@ 086   ----------------------------------------
 .byte   PATT
  .word Label_0_014DC95E
@ 087   ----------------------------------------
 .byte   PATT
  .word Label_0_014DC967
@ 088   ----------------------------------------
 .byte   PATT
  .word Label_0_014DC972
@ 089   ----------------------------------------
 .byte   PATT
  .word Label_0_014DC97B
@ 090   ----------------------------------------
 .byte   PATT
  .word Label_0_014DC95E
@ 091   ----------------------------------------
 .byte   PATT
  .word Label_0_014DC967
@ 092   ----------------------------------------
 .byte   PATT
  .word Label_0_014DC972
@ 093   ----------------------------------------
 .byte   PATT
  .word Label_0_014DC97B
@ 094   ----------------------------------------
 .byte   GOTO
  .word Label_0_014DC8DE
@ 095   ----------------------------------------
 .byte   PATT
  .word Label_0_014DC99E
@ 096   ----------------------------------------
 .byte   PATT
  .word Label_0_014DC9A7
@ 097   ----------------------------------------
 .byte   PATT
  .word Label_0_014DC9B2
@ 098   ----------------------------------------
 .byte   PATT
  .word Label_0_014DC9BB
@ 099   ----------------------------------------
 .byte   PATT
  .word Label_0_014DC99E
@ 100   ----------------------------------------
 .byte   PATT
  .word Label_0_014DC9A7
@ 101   ----------------------------------------
 .byte   PATT
  .word Label_0_014DC95E
@ 102   ----------------------------------------
 .byte   PATT
  .word Label_0_014DC967
@ 103   ----------------------------------------
 .byte   PATT
  .word Label_0_014DC95E
@ 104   ----------------------------------------
 .byte   PATT
  .word Label_0_014DC97B
@ 105   ----------------------------------------
 .byte   W96
@ 106   ----------------------------------------
 .byte   W96
@ 107   ----------------------------------------
 .byte   W96
@ 108   ----------------------------------------
 .byte   W90
 .byte   FINE

@**************** Track 2 (Midi-Chn.1) ****************@

song09_002:
@ 000   ----------------------------------------
 .byte   KEYSH , song09_key+0
 .byte   VOICE , 48
 .byte   VOL , 56*song09_mvl/mxv
 .byte   PAN , c_v+40
 .byte   W96
@ 001   ----------------------------------------
Label_1_54D4A5:
 .byte   N12 ,Dn3 ,v127
 .byte   W36
 .byte   Ds3
 .byte   W36
 .byte   N12
 .byte   W24
 .byte   PEND 
@ 002   ----------------------------------------
 .byte   W96
@ 003   ----------------------------------------
Label_1_54D4AF:
 .byte   N12 ,En3 ,v127
 .byte   W36
 .byte   Fn3
 .byte   W36
 .byte   N12
 .byte   W12
 .byte   Fs3
 .byte   W12
 .byte   PEND 
@ 004   ----------------------------------------
 .byte   W96
@ 005   ----------------------------------------
Label_1_54D4BB:
 .byte   N12 ,En3 ,v127
 .byte   W36
 .byte   Fn3
 .byte   W36
 .byte   Fs3
 .byte   W24
 .byte   PEND 
@ 006   ----------------------------------------
 .byte   W96
@ 007   ----------------------------------------
Label_1_54D4C5:
 .byte   N12 ,Fs3 ,v127
 .byte   W36
 .byte   Gn3
 .byte   W36
 .byte   N12
 .byte   W12
 .byte   Gs3
 .byte   W12
 .byte   PEND 
@ 008   ----------------------------------------
Label_1_54D4D0:
 .byte   N12 ,Dn3 ,v127
 .byte   W12
 .byte   N12
 .byte   W12
 .byte   N12
 .byte   W24
 .byte   N12
 .byte   W24
 .byte   N12
 .byte   W12
 .byte   N12
 .byte   W12
 .byte   PEND 
@ 009   ----------------------------------------
Label_1_54D4DF:
 .byte   N12 ,Dn3 ,v127
 .byte   W12
 .byte   N12
 .byte   W24
 .byte   N12
 .byte   W12
 .byte   N12
 .byte   W24
 .byte   N12
 .byte   W12
 .byte   N12
 .byte   W12
 .byte   PEND 
@ 010   ----------------------------------------
 .byte   PATT
  .word Label_1_54D4D0
@ 011   ----------------------------------------
 .byte   PATT
  .word Label_1_54D4DF
@ 012   ----------------------------------------
 .byte   PATT
  .word Label_1_54D4D0
@ 013   ----------------------------------------
 .byte   PATT
  .word Label_1_54D4DF
@ 014   ----------------------------------------
 .byte   PATT
  .word Label_1_54D4D0
@ 015   ----------------------------------------
 .byte   PATT
  .word Label_1_54D4DF
@ 016   ----------------------------------------
 .byte   PATT
  .word Label_1_54D4D0
@ 017   ----------------------------------------
 .byte   PATT
  .word Label_1_54D4DF
@ 018   ----------------------------------------
 .byte   PATT
  .word Label_1_54D4D0
@ 019   ----------------------------------------
 .byte   PATT
  .word Label_1_54D4DF
@ 020   ----------------------------------------
 .byte   PATT
  .word Label_1_54D4D0
@ 021   ----------------------------------------
 .byte   PATT
  .word Label_1_54D4DF
@ 022   ----------------------------------------
 .byte   PATT
  .word Label_1_54D4D0
@ 023   ----------------------------------------
 .byte   PATT
  .word Label_1_54D4DF
@ 024   ----------------------------------------
 .byte   W96
@ 025   ----------------------------------------
 .byte   W96
@ 026   ----------------------------------------
 .byte   W96
@ 027   ----------------------------------------
 .byte   W96
@ 028   ----------------------------------------
 .byte   W96
@ 029   ----------------------------------------
 .byte   W96
@ 030   ----------------------------------------
 .byte   W96
@ 031   ----------------------------------------
 .byte   W96
@ 032   ----------------------------------------
Label_1_54D53C:
 .byte   N12 ,Dn3 ,v080
 .byte   W24
 .byte   N12
 .byte   W48
 .byte   N12
 .byte   W24
 .byte   PEND 
@ 033   ----------------------------------------
Label_1_54D545:
 .byte   N12 ,As2 ,v080
 .byte   W12
 .byte   N12
 .byte   W12
 .byte   N12
 .byte   W48
 .byte   N12
 .byte   W24
 .byte   PEND 
@ 034   ----------------------------------------
Label_1_54D550:
 .byte   N12 ,Cs3 ,v080
 .byte   W24
 .byte   N12
 .byte   W48
 .byte   N12
 .byte   W24
 .byte   PEND 
@ 035   ----------------------------------------
Label_1_54D559:
 .byte   N12 ,Dn3 ,v080
 .byte   W12
 .byte   N12
 .byte   W12
 .byte   N12
 .byte   W24
 .byte   N12
 .byte   W24
 .byte   N12
 .byte   W12
 .byte   N12
 .byte   W12
 .byte   PEND 
@ 036   ----------------------------------------
 .byte   PATT
  .word Label_1_54D53C
@ 037   ----------------------------------------
 .byte   PATT
  .word Label_1_54D545
@ 038   ----------------------------------------
 .byte   PATT
  .word Label_1_54D550
@ 039   ----------------------------------------
 .byte   PATT
  .word Label_1_54D559
@ 040   ----------------------------------------
Label_1_54D57C:
 .byte   N12 ,Gn3 ,v080
 .byte   W24
 .byte   N12
 .byte   W48
 .byte   N12
 .byte   W24
 .byte   PEND 
@ 041   ----------------------------------------
Label_1_54D585:
 .byte   N12 ,Ds3 ,v080
 .byte   W12
 .byte   N12
 .byte   W12
 .byte   N12
 .byte   W48
 .byte   N12
 .byte   W24
 .byte   PEND 
@ 042   ----------------------------------------
Label_1_54D590:
 .byte   N12 ,Fs3 ,v080
 .byte   W24
 .byte   N12
 .byte   W48
 .byte   N12
 .byte   W24
 .byte   PEND 
@ 043   ----------------------------------------
Label_1_54D599:
 .byte   N12 ,Gn3 ,v080
 .byte   W12
 .byte   N12
 .byte   W12
 .byte   N12
 .byte   W24
 .byte   N12
 .byte   W24
 .byte   N12
 .byte   W12
 .byte   N12
 .byte   W12
 .byte   PEND 
@ 044   ----------------------------------------
 .byte   PATT
  .word Label_1_54D57C
@ 045   ----------------------------------------
 .byte   PATT
  .word Label_1_54D585
@ 046   ----------------------------------------
 .byte   PATT
  .word Label_1_54D53C
@ 047   ----------------------------------------
Label_1_54D5B7:
 .byte   N12 ,Dn3 ,v080
 .byte   W12
 .byte   N12
 .byte   W12
 .byte   N12
 .byte   W48
 .byte   N12
 .byte   W24
 .byte   PEND 
@ 048   ----------------------------------------
 .byte   PATT
  .word Label_1_54D53C
@ 049   ----------------------------------------
 .byte   PATT
  .word Label_1_54D559
@ 050   ----------------------------------------
 .byte   W96
@ 051   ----------------------------------------
 .byte   W96
@ 052   ----------------------------------------
 .byte   W96
@ 053   ----------------------------------------
 .byte   W96
@ 054   ----------------------------------------
 .byte   W96
@ 055   ----------------------------------------
 .byte   PATT
  .word Label_1_54D4A5
@ 056   ----------------------------------------
 .byte   W96
@ 057   ----------------------------------------
 .byte   PATT
  .word Label_1_54D4AF
@ 058   ----------------------------------------
 .byte   W96
@ 059   ----------------------------------------
 .byte   PATT
  .word Label_1_54D4BB
@ 060   ----------------------------------------
 .byte   W96
@ 061   ----------------------------------------
 .byte   PATT
  .word Label_1_54D4C5
@ 062   ----------------------------------------
 .byte   PATT
  .word Label_1_54D4D0
@ 063   ----------------------------------------
 .byte   PATT
  .word Label_1_54D4DF
@ 064   ----------------------------------------
 .byte   PATT
  .word Label_1_54D4D0
@ 065   ----------------------------------------
 .byte   PATT
  .word Label_1_54D4DF
@ 066   ----------------------------------------
 .byte   PATT
  .word Label_1_54D4D0
@ 067   ----------------------------------------
 .byte   PATT
  .word Label_1_54D4DF
@ 068   ----------------------------------------
 .byte   PATT
  .word Label_1_54D4D0
@ 069   ----------------------------------------
 .byte   PATT
  .word Label_1_54D4DF
@ 070   ----------------------------------------
 .byte   PATT
  .word Label_1_54D4D0
@ 071   ----------------------------------------
 .byte   PATT
  .word Label_1_54D4DF
@ 072   ----------------------------------------
 .byte   PATT
  .word Label_1_54D4D0
@ 073   ----------------------------------------
 .byte   PATT
  .word Label_1_54D4DF
@ 074   ----------------------------------------
 .byte   PATT
  .word Label_1_54D4D0
@ 075   ----------------------------------------
 .byte   PATT
  .word Label_1_54D4DF
@ 076   ----------------------------------------
 .byte   PATT
  .word Label_1_54D4D0
@ 077   ----------------------------------------
 .byte   PATT
  .word Label_1_54D4DF
@ 078   ----------------------------------------
 .byte   W96
@ 079   ----------------------------------------
 .byte   W96
@ 080   ----------------------------------------
 .byte   W96
@ 081   ----------------------------------------
 .byte   W96
@ 082   ----------------------------------------
 .byte   W96
@ 083   ----------------------------------------
 .byte   W96
@ 084   ----------------------------------------
 .byte   W96
@ 085   ----------------------------------------
 .byte   W96
@ 086   ----------------------------------------
 .byte   PATT
  .word Label_1_54D53C
@ 087   ----------------------------------------
 .byte   PATT
  .word Label_1_54D545
@ 088   ----------------------------------------
 .byte   PATT
  .word Label_1_54D550
@ 089   ----------------------------------------
 .byte   PATT
  .word Label_1_54D559
@ 090   ----------------------------------------
 .byte   PATT
  .word Label_1_54D53C
@ 091   ----------------------------------------
 .byte   PATT
  .word Label_1_54D545
@ 092   ----------------------------------------
 .byte   PATT
  .word Label_1_54D550
@ 093   ----------------------------------------
 .byte   PATT
  .word Label_1_54D559
@ 094   ----------------------------------------
 .byte   GOTO
  .word Label_1_54D4D0
@ 095   ----------------------------------------
 .byte   PATT
  .word Label_1_54D57C
@ 096   ----------------------------------------
 .byte   PATT
  .word Label_1_54D585
@ 097   ----------------------------------------
 .byte   PATT
  .word Label_1_54D590
@ 098   ----------------------------------------
 .byte   PATT
  .word Label_1_54D599
@ 099   ----------------------------------------
 .byte   PATT
  .word Label_1_54D57C
@ 100   ----------------------------------------
 .byte   PATT
  .word Label_1_54D585
@ 101   ----------------------------------------
 .byte   PATT
  .word Label_1_54D53C
@ 102   ----------------------------------------
 .byte   PATT
  .word Label_1_54D5B7
@ 103   ----------------------------------------
 .byte   PATT
  .word Label_1_54D53C
@ 104   ----------------------------------------
 .byte   PATT
  .word Label_1_54D559
@ 105   ----------------------------------------
 .byte   W96
@ 106   ----------------------------------------
 .byte   W96
@ 107   ----------------------------------------
 .byte   W96
@ 108   ----------------------------------------
 .byte   W90
 .byte   FINE

@**************** Track 3 (Midi-Chn.2) ****************@

song09_003:
@ 000   ----------------------------------------
 .byte   KEYSH , song09_key+0
 .byte   VOICE , 48
 .byte   VOL , 56*song09_mvl/mxv
 .byte   PAN , c_v-40
 .byte   W96
@ 001   ----------------------------------------
Label_2_54C6F5:
 .byte   N12 ,Fn2 ,v127
 .byte   W36
 .byte   N12
 .byte   W36
 .byte   N12
 .byte   W24
 .byte   PEND 
@ 002   ----------------------------------------
 .byte   W96
@ 003   ----------------------------------------
Label_2_54C6FF:
 .byte   N12 ,Gs2 ,v127
 .byte   W36
 .byte   N12
 .byte   W36
 .byte   N12
 .byte   W12
 .byte   N12
 .byte   W12
 .byte   PEND 
@ 004   ----------------------------------------
 .byte   Gs2 ,v080
 .byte   W96
@ 005   ----------------------------------------
Label_2_54C70D:
 .byte   N12 ,Gn2 ,v127
 .byte   W36
 .byte   N12
 .byte   W36
 .byte   N12
 .byte   W24
 .byte   PEND 
@ 006   ----------------------------------------
 .byte   W96
@ 007   ----------------------------------------
Label_2_54C717:
 .byte   N12 ,As2 ,v127
 .byte   W36
 .byte   N12
 .byte   W36
 .byte   N12
 .byte   W12
 .byte   N12
 .byte   W12
 .byte   PEND 
@ 008   ----------------------------------------
Label_2_54C722:
 .byte   N12 ,Gn3 ,v127
 .byte   W12
 .byte   N12
 .byte   W12
 .byte   N12
 .byte   W24
 .byte   N12
 .byte   W24
 .byte   N12
 .byte   W12
 .byte   N12
 .byte   W12
 .byte   PEND 
@ 009   ----------------------------------------
Label_2_54C731:
 .byte   N12 ,Gn3 ,v127
 .byte   W12
 .byte   N12
 .byte   W24
 .byte   N12
 .byte   W12
 .byte   N12
 .byte   W24
 .byte   N12
 .byte   W12
 .byte   N12
 .byte   W12
 .byte   PEND 
@ 010   ----------------------------------------
 .byte   PATT
  .word Label_2_54C722
@ 011   ----------------------------------------
 .byte   PATT
  .word Label_2_54C731
@ 012   ----------------------------------------
Label_2_54C74A:
 .byte   N12 ,Fs3 ,v127
 .byte   W12
 .byte   N12
 .byte   W12
 .byte   N12
 .byte   W24
 .byte   N12
 .byte   W24
 .byte   N12
 .byte   W12
 .byte   N12
 .byte   W12
 .byte   PEND 
@ 013   ----------------------------------------
Label_2_54C759:
 .byte   N12 ,Fs3 ,v127
 .byte   W12
 .byte   N12
 .byte   W24
 .byte   N12
 .byte   W12
 .byte   N12
 .byte   W24
 .byte   N12
 .byte   W12
 .byte   N12
 .byte   W12
 .byte   PEND 
@ 014   ----------------------------------------
 .byte   PATT
  .word Label_2_54C74A
@ 015   ----------------------------------------
 .byte   PATT
  .word Label_2_54C759
@ 016   ----------------------------------------
 .byte   PATT
  .word Label_2_54C722
@ 017   ----------------------------------------
 .byte   PATT
  .word Label_2_54C731
@ 018   ----------------------------------------
 .byte   PATT
  .word Label_2_54C722
@ 019   ----------------------------------------
 .byte   PATT
  .word Label_2_54C731
@ 020   ----------------------------------------
 .byte   PATT
  .word Label_2_54C74A
@ 021   ----------------------------------------
 .byte   PATT
  .word Label_2_54C759
@ 022   ----------------------------------------
 .byte   PATT
  .word Label_2_54C74A
@ 023   ----------------------------------------
 .byte   PATT
  .word Label_2_54C759
@ 024   ----------------------------------------
 .byte   W96
@ 025   ----------------------------------------
 .byte   W96
@ 026   ----------------------------------------
 .byte   W96
@ 027   ----------------------------------------
 .byte   W96
@ 028   ----------------------------------------
 .byte   W96
@ 029   ----------------------------------------
 .byte   W96
@ 030   ----------------------------------------
 .byte   W96
@ 031   ----------------------------------------
 .byte   W96
@ 032   ----------------------------------------
Label_2_54C7A2:
 .byte   N12 ,Fn3 ,v080
 .byte   W24
 .byte   N12
 .byte   W48
 .byte   N12
 .byte   W24
 .byte   PEND 
@ 033   ----------------------------------------
Label_2_54C7AB:
 .byte   N12 ,Dn3 ,v080
 .byte   W12
 .byte   N12
 .byte   W12
 .byte   N12
 .byte   W48
 .byte   N12
 .byte   W24
 .byte   PEND 
@ 034   ----------------------------------------
Label_2_54C7B6:
 .byte   N12 ,En3 ,v080
 .byte   W24
 .byte   N12
 .byte   W48
 .byte   N12
 .byte   W24
 .byte   PEND 
@ 035   ----------------------------------------
Label_2_54C7BF:
 .byte   N12 ,Fn3 ,v080
 .byte   W12
 .byte   N12
 .byte   W12
 .byte   N12
 .byte   W24
 .byte   N12
 .byte   W24
 .byte   N12
 .byte   W12
 .byte   N12
 .byte   W12
 .byte   PEND 
@ 036   ----------------------------------------
 .byte   PATT
  .word Label_2_54C7A2
@ 037   ----------------------------------------
 .byte   PATT
  .word Label_2_54C7AB
@ 038   ----------------------------------------
 .byte   PATT
  .word Label_2_54C7B6
@ 039   ----------------------------------------
 .byte   PATT
  .word Label_2_54C7BF
@ 040   ----------------------------------------
Label_2_54C7E2:
 .byte   N12 ,As3 ,v080
 .byte   W24
 .byte   N12
 .byte   W48
 .byte   N12
 .byte   W24
 .byte   PEND 
@ 041   ----------------------------------------
Label_2_54C7EB:
 .byte   N12 ,Gn3 ,v080
 .byte   W12
 .byte   N12
 .byte   W12
 .byte   N12
 .byte   W48
 .byte   N12
 .byte   W24
 .byte   PEND 
@ 042   ----------------------------------------
Label_2_54C7F6:
 .byte   N12 ,An3 ,v080
 .byte   W24
 .byte   N12
 .byte   W48
 .byte   N12
 .byte   W24
 .byte   PEND 
@ 043   ----------------------------------------
Label_2_54C7FF:
 .byte   N12 ,As3 ,v080
 .byte   W12
 .byte   N12
 .byte   W12
 .byte   N12
 .byte   W24
 .byte   N12
 .byte   W24
 .byte   N12
 .byte   W12
 .byte   N12
 .byte   W12
 .byte   PEND 
@ 044   ----------------------------------------
 .byte   PATT
  .word Label_2_54C7E2
@ 045   ----------------------------------------
 .byte   PATT
  .word Label_2_54C7EB
@ 046   ----------------------------------------
Label_2_54C818:
 .byte   N12 ,Fs3 ,v080
 .byte   W24
 .byte   N12
 .byte   W48
 .byte   N12
 .byte   W24
 .byte   PEND 
@ 047   ----------------------------------------
Label_2_54C821:
 .byte   N12 ,Fs3 ,v080
 .byte   W12
 .byte   N12
 .byte   W12
 .byte   N12
 .byte   W48
 .byte   N12
 .byte   W24
 .byte   PEND 
@ 048   ----------------------------------------
 .byte   PATT
  .word Label_2_54C818
@ 049   ----------------------------------------
Label_2_54C831:
 .byte   N12 ,Fs3 ,v080
 .byte   W12
 .byte   N12
 .byte   W12
 .byte   N12
 .byte   W24
 .byte   N12
 .byte   W24
 .byte   N12
 .byte   W12
 .byte   N12
 .byte   W12
 .byte   PEND 
@ 050   ----------------------------------------
 .byte   W96
@ 051   ----------------------------------------
 .byte   W96
@ 052   ----------------------------------------
 .byte   W96
@ 053   ----------------------------------------
 .byte   W96
@ 054   ----------------------------------------
 .byte   W96
@ 055   ----------------------------------------
 .byte   PATT
  .word Label_2_54C6F5
@ 056   ----------------------------------------
 .byte   W96
@ 057   ----------------------------------------
 .byte   PATT
  .word Label_2_54C6FF
@ 058   ----------------------------------------
 .byte   N12 ,Gs2 ,v080
 .byte   W96
@ 059   ----------------------------------------
 .byte   PATT
  .word Label_2_54C70D
@ 060   ----------------------------------------
 .byte   W96
@ 061   ----------------------------------------
 .byte   PATT
  .word Label_2_54C717
@ 062   ----------------------------------------
 .byte   PATT
  .word Label_2_54C722
@ 063   ----------------------------------------
 .byte   PATT
  .word Label_2_54C731
@ 064   ----------------------------------------
 .byte   PATT
  .word Label_2_54C722
@ 065   ----------------------------------------
 .byte   PATT
  .word Label_2_54C731
@ 066   ----------------------------------------
 .byte   PATT
  .word Label_2_54C74A
@ 067   ----------------------------------------
 .byte   PATT
  .word Label_2_54C759
@ 068   ----------------------------------------
 .byte   PATT
  .word Label_2_54C74A
@ 069   ----------------------------------------
 .byte   PATT
  .word Label_2_54C759
@ 070   ----------------------------------------
 .byte   PATT
  .word Label_2_54C722
@ 071   ----------------------------------------
 .byte   PATT
  .word Label_2_54C731
@ 072   ----------------------------------------
 .byte   PATT
  .word Label_2_54C722
@ 073   ----------------------------------------
 .byte   PATT
  .word Label_2_54C731
@ 074   ----------------------------------------
 .byte   PATT
  .word Label_2_54C74A
@ 075   ----------------------------------------
 .byte   PATT
  .word Label_2_54C759
@ 076   ----------------------------------------
 .byte   PATT
  .word Label_2_54C74A
@ 077   ----------------------------------------
 .byte   PATT
  .word Label_2_54C759
@ 078   ----------------------------------------
 .byte   W96
@ 079   ----------------------------------------
 .byte   W96
@ 080   ----------------------------------------
 .byte   W96
@ 081   ----------------------------------------
 .byte   W96
@ 082   ----------------------------------------
 .byte   W96
@ 083   ----------------------------------------
 .byte   W96
@ 084   ----------------------------------------
 .byte   W96
@ 085   ----------------------------------------
 .byte   W96
@ 086   ----------------------------------------
 .byte   PATT
  .word Label_2_54C7A2
@ 087   ----------------------------------------
 .byte   PATT
  .word Label_2_54C7AB
@ 088   ----------------------------------------
 .byte   PATT
  .word Label_2_54C7B6
@ 089   ----------------------------------------
 .byte   PATT
  .word Label_2_54C7BF
@ 090   ----------------------------------------
 .byte   PATT
  .word Label_2_54C7A2
@ 091   ----------------------------------------
 .byte   PATT
  .word Label_2_54C7AB
@ 092   ----------------------------------------
 .byte   PATT
  .word Label_2_54C7B6
@ 093   ----------------------------------------
 .byte   PATT
  .word Label_2_54C7BF
@ 094   ----------------------------------------
 .byte   GOTO
  .word Label_2_54C722
@ 095   ----------------------------------------
 .byte   PATT
  .word Label_2_54C7E2
@ 096   ----------------------------------------
 .byte   PATT
  .word Label_2_54C7EB
@ 097   ----------------------------------------
 .byte   PATT
  .word Label_2_54C7F6
@ 098   ----------------------------------------
 .byte   PATT
  .word Label_2_54C7FF
@ 099   ----------------------------------------
 .byte   PATT
  .word Label_2_54C7E2
@ 100   ----------------------------------------
 .byte   PATT
  .word Label_2_54C7EB
@ 101   ----------------------------------------
 .byte   PATT
  .word Label_2_54C818
@ 102   ----------------------------------------
 .byte   PATT
  .word Label_2_54C821
@ 103   ----------------------------------------
 .byte   PATT
  .word Label_2_54C818
@ 104   ----------------------------------------
 .byte   PATT
  .word Label_2_54C831
@ 105   ----------------------------------------
 .byte   W96
@ 106   ----------------------------------------
 .byte   W96
@ 107   ----------------------------------------
 .byte   W96
@ 108   ----------------------------------------
 .byte   W90
 .byte   FINE

@**************** Track 4 (Midi-Chn.3) ****************@

song09_004:
@ 000   ----------------------------------------
 .byte   KEYSH , song09_key+0
 .byte   VOICE , 48
 .byte   VOL , 56*song09_mvl/mxv
 .byte   PAN , c_v+0
 .byte   TIE ,AnM1 ,v127
 .byte   TIE ,An0
 .byte   W96
@ 001   ----------------------------------------
 .byte   W96
@ 002   ----------------------------------------
 .byte   W96
@ 003   ----------------------------------------
 .byte   W96
@ 004   ----------------------------------------
 .byte   EOT
 .byte   AnM1
 .byte   W96
@ 005   ----------------------------------------
 .byte   W96
@ 006   ----------------------------------------
 .byte   W96
@ 007   ----------------------------------------
 .byte   W96
@ 008   ----------------------------------------
 .byte   An0
Label_3_014DD6C8:
 .byte   W96
@ 009   ----------------------------------------
 .byte   W96
@ 010   ----------------------------------------
 .byte   W96
@ 011   ----------------------------------------
 .byte   W96
@ 012   ----------------------------------------
 .byte   W96
@ 013   ----------------------------------------
 .byte   W96
@ 014   ----------------------------------------
 .byte   W96
@ 015   ----------------------------------------
 .byte   W96
@ 016   ----------------------------------------
 .byte   W96
@ 017   ----------------------------------------
 .byte   W96
@ 018   ----------------------------------------
 .byte   W96
@ 019   ----------------------------------------
 .byte   W96
@ 020   ----------------------------------------
 .byte   W96
@ 021   ----------------------------------------
 .byte   W96
@ 022   ----------------------------------------
 .byte   W96
@ 023   ----------------------------------------
 .byte   W96
@ 024   ----------------------------------------
 .byte   W96
@ 025   ----------------------------------------
 .byte   W96
@ 026   ----------------------------------------
 .byte   W96
@ 027   ----------------------------------------
 .byte   W96
@ 028   ----------------------------------------
 .byte   W96
@ 029   ----------------------------------------
 .byte   W96
@ 030   ----------------------------------------
 .byte   W96
@ 031   ----------------------------------------
 .byte   W96
@ 032   ----------------------------------------
 .byte   W96
@ 033   ----------------------------------------
 .byte   W96
@ 034   ----------------------------------------
 .byte   W96
@ 035   ----------------------------------------
 .byte   W96
@ 036   ----------------------------------------
 .byte   W96
@ 037   ----------------------------------------
 .byte   W96
@ 038   ----------------------------------------
 .byte   W96
@ 039   ----------------------------------------
 .byte   W96
@ 040   ----------------------------------------
 .byte   W96
@ 041   ----------------------------------------
 .byte   W96
@ 042   ----------------------------------------
 .byte   W96
@ 043   ----------------------------------------
 .byte   W96
@ 044   ----------------------------------------
 .byte   W96
@ 045   ----------------------------------------
 .byte   W96
@ 046   ----------------------------------------
 .byte   W96
@ 047   ----------------------------------------
 .byte   W96
@ 048   ----------------------------------------
 .byte   W96
@ 049   ----------------------------------------
 .byte   W96
@ 050   ----------------------------------------
 .byte   W96
@ 051   ----------------------------------------
 .byte   W96
@ 052   ----------------------------------------
 .byte   W96
@ 053   ----------------------------------------
 .byte   W96
@ 054   ----------------------------------------
 .byte   TIE ,AnM1 ,v127
 .byte   TIE ,An0
 .byte   W96
@ 055   ----------------------------------------
 .byte   W96
@ 056   ----------------------------------------
 .byte   W96
@ 057   ----------------------------------------
 .byte   W96
@ 058   ----------------------------------------
 .byte   EOT
 .byte   AnM1
 .byte   W96
@ 059   ----------------------------------------
 .byte   W96
@ 060   ----------------------------------------
 .byte   W96
@ 061   ----------------------------------------
 .byte   W96
@ 062   ----------------------------------------
 .byte   An0
 .byte   W96
@ 063   ----------------------------------------
 .byte   W96
@ 064   ----------------------------------------
 .byte   W96
@ 065   ----------------------------------------
 .byte   W96
@ 066   ----------------------------------------
 .byte   W96
@ 067   ----------------------------------------
 .byte   W96
@ 068   ----------------------------------------
 .byte   W96
@ 069   ----------------------------------------
 .byte   W96
@ 070   ----------------------------------------
 .byte   W96
@ 071   ----------------------------------------
 .byte   W96
@ 072   ----------------------------------------
 .byte   W96
@ 073   ----------------------------------------
 .byte   W96
@ 074   ----------------------------------------
 .byte   W96
@ 075   ----------------------------------------
 .byte   W96
@ 076   ----------------------------------------
 .byte   W96
@ 077   ----------------------------------------
 .byte   W96
@ 078   ----------------------------------------
 .byte   W96
@ 079   ----------------------------------------
 .byte   W96
@ 080   ----------------------------------------
 .byte   W96
@ 081   ----------------------------------------
 .byte   W96
@ 082   ----------------------------------------
 .byte   W96
@ 083   ----------------------------------------
 .byte   W96
@ 084   ----------------------------------------
 .byte   W96
@ 085   ----------------------------------------
 .byte   W96
@ 086   ----------------------------------------
 .byte   W96
@ 087   ----------------------------------------
 .byte   W96
@ 088   ----------------------------------------
 .byte   W96
@ 089   ----------------------------------------
 .byte   W96
@ 090   ----------------------------------------
 .byte   W96
@ 091   ----------------------------------------
 .byte   W96
@ 092   ----------------------------------------
 .byte   W96
@ 093   ----------------------------------------
 .byte   W96
@ 094   ----------------------------------------
 .byte   GOTO
  .word Label_3_014DD6C8
@ 095   ----------------------------------------
 .byte   W96
@ 096   ----------------------------------------
 .byte   W96
@ 097   ----------------------------------------
 .byte   W96
@ 098   ----------------------------------------
 .byte   W96
@ 099   ----------------------------------------
 .byte   W96
@ 100   ----------------------------------------
 .byte   W96
@ 101   ----------------------------------------
 .byte   W96
@ 102   ----------------------------------------
 .byte   W96
@ 103   ----------------------------------------
 .byte   W96
@ 104   ----------------------------------------
 .byte   W96
@ 105   ----------------------------------------
 .byte   W96
@ 106   ----------------------------------------
 .byte   W96
@ 107   ----------------------------------------
 .byte   W96
@ 108   ----------------------------------------
 .byte   W90
 .byte   FINE

@**************** Track 5 (Midi-Chn.4) ****************@

song09_005:
@ 000   ----------------------------------------
 .byte   KEYSH , song09_key+0
 .byte   VOICE , 48
 .byte   VOL , 56*song09_mvl/mxv
 .byte   PAN , c_v+0
 .byte   VOL , 0*song09_mvl/mxv
 .byte   TIE ,Dn5 ,v104
 .byte   W24
 .byte   VOL , 0*song09_mvl/mxv
 .byte   W24
 .byte   VOL , 6*song09_mvl/mxv
 .byte   W24
 .byte   VOL , 16*song09_mvl/mxv
 .byte   W24
@ 001   ----------------------------------------
Label_4_54BECB:
 .byte   VOL , 25*song09_mvl/mxv
 .byte   W24
 .byte   VOL , 35*song09_mvl/mxv
 .byte   W24
 .byte   VOL , 45*song09_mvl/mxv
 .byte   W24
 .byte   VOL , 56*song09_mvl/mxv
 .byte   W24
 .byte   PEND 
@ 002   ----------------------------------------
 .byte   W96
@ 003   ----------------------------------------
 .byte   W96
@ 004   ----------------------------------------
 .byte   EOT
 .byte   Dn5
 .byte   W96
@ 005   ----------------------------------------
 .byte   W96
@ 006   ----------------------------------------
Label_4_54BEDE:
 .byte   W24
 .byte   VOL , 45*song09_mvl/mxv
 .byte   W24
 .byte   VOL , 35*song09_mvl/mxv
 .byte   W24
 .byte   VOL , 25*song09_mvl/mxv
 .byte   W24
 .byte   PEND 
@ 007   ----------------------------------------
Label_4_54BEE9:
 .byte   VOL , 16*song09_mvl/mxv
 .byte   W24
 .byte   VOL , 6*song09_mvl/mxv
 .byte   W24
 .byte   VOL , 0*song09_mvl/mxv
 .byte   W24
 .byte   VOL , 0*song09_mvl/mxv
 .byte   W24
 .byte   PEND 
@ 008   ----------------------------------------
Label_4_54BEF6:
 .byte   W96
@ 009   ----------------------------------------
 .byte   W96
@ 010   ----------------------------------------
 .byte   W96
@ 011   ----------------------------------------
 .byte   W96
@ 012   ----------------------------------------
 .byte   W96
@ 013   ----------------------------------------
 .byte   W96
@ 014   ----------------------------------------
 .byte   W96
@ 015   ----------------------------------------
 .byte   W96
@ 016   ----------------------------------------
 .byte   W96
@ 017   ----------------------------------------
 .byte   W96
@ 018   ----------------------------------------
 .byte   W96
@ 019   ----------------------------------------
 .byte   W96
@ 020   ----------------------------------------
 .byte   W96
@ 021   ----------------------------------------
 .byte   W96
@ 022   ----------------------------------------
 .byte   W96
@ 023   ----------------------------------------
 .byte   W96
@ 024   ----------------------------------------
 .byte   W96
@ 025   ----------------------------------------
 .byte   W96
@ 026   ----------------------------------------
 .byte   W96
@ 027   ----------------------------------------
 .byte   W96
@ 028   ----------------------------------------
 .byte   W96
@ 029   ----------------------------------------
 .byte   W96
@ 030   ----------------------------------------
 .byte   W96
@ 031   ----------------------------------------
 .byte   W96
@ 032   ----------------------------------------
 .byte   W96
@ 033   ----------------------------------------
 .byte   W96
@ 034   ----------------------------------------
 .byte   W96
@ 035   ----------------------------------------
 .byte   W96
@ 036   ----------------------------------------
 .byte   W96
@ 037   ----------------------------------------
 .byte   W96
@ 038   ----------------------------------------
 .byte   W96
@ 039   ----------------------------------------
 .byte   W96
@ 040   ----------------------------------------
 .byte   W96
@ 041   ----------------------------------------
 .byte   W96
@ 042   ----------------------------------------
 .byte   W96
@ 043   ----------------------------------------
 .byte   W96
@ 044   ----------------------------------------
 .byte   W96
@ 045   ----------------------------------------
 .byte   W96
@ 046   ----------------------------------------
 .byte   W96
@ 047   ----------------------------------------
 .byte   W96
@ 048   ----------------------------------------
 .byte   W96
@ 049   ----------------------------------------
 .byte   W96
@ 050   ----------------------------------------
 .byte   W96
@ 051   ----------------------------------------
 .byte   W96
@ 052   ----------------------------------------
 .byte   W96
@ 053   ----------------------------------------
 .byte   W96
@ 054   ----------------------------------------
 .byte   TIE ,Dn5 ,v104
 .byte   W24
 .byte   VOL , 0*song09_mvl/mxv
 .byte   W24
 .byte   VOL , 6*song09_mvl/mxv
 .byte   W24
 .byte   VOL , 16*song09_mvl/mxv
 .byte   W24
@ 055   ----------------------------------------
 .byte   PATT
  .word Label_4_54BECB
@ 056   ----------------------------------------
 .byte   W96
@ 057   ----------------------------------------
 .byte   W96
@ 058   ----------------------------------------
 .byte   W96
@ 059   ----------------------------------------
 .byte   EOT
 .byte   Dn5
 .byte   W96
@ 060   ----------------------------------------
 .byte   PATT
  .word Label_4_54BEDE
@ 061   ----------------------------------------
 .byte   PATT
  .word Label_4_54BEE9
@ 062   ----------------------------------------
 .byte   W96
@ 063   ----------------------------------------
 .byte   W96
@ 064   ----------------------------------------
 .byte   W96
@ 065   ----------------------------------------
 .byte   W96
@ 066   ----------------------------------------
 .byte   W96
@ 067   ----------------------------------------
 .byte   W96
@ 068   ----------------------------------------
 .byte   W96
@ 069   ----------------------------------------
 .byte   W96
@ 070   ----------------------------------------
 .byte   W96
@ 071   ----------------------------------------
 .byte   W96
@ 072   ----------------------------------------
 .byte   W96
@ 073   ----------------------------------------
 .byte   W96
@ 074   ----------------------------------------
 .byte   W96
@ 075   ----------------------------------------
 .byte   W96
@ 076   ----------------------------------------
 .byte   W96
@ 077   ----------------------------------------
 .byte   W96
@ 078   ----------------------------------------
 .byte   W96
@ 079   ----------------------------------------
 .byte   W96
@ 080   ----------------------------------------
 .byte   W96
@ 081   ----------------------------------------
 .byte   W96
@ 082   ----------------------------------------
 .byte   W96
@ 083   ----------------------------------------
 .byte   W96
@ 084   ----------------------------------------
 .byte   W96
@ 085   ----------------------------------------
 .byte   W96
@ 086   ----------------------------------------
 .byte   W96
@ 087   ----------------------------------------
 .byte   W96
@ 088   ----------------------------------------
 .byte   W96
@ 089   ----------------------------------------
 .byte   W96
@ 090   ----------------------------------------
 .byte   W96
@ 091   ----------------------------------------
 .byte   W96
@ 092   ----------------------------------------
 .byte   W96
@ 093   ----------------------------------------
 .byte   W96
@ 094   ----------------------------------------
 .byte   GOTO
  .word Label_4_54BEF6
@ 095   ----------------------------------------
 .byte   W96
@ 096   ----------------------------------------
 .byte   W96
@ 097   ----------------------------------------
 .byte   W96
@ 098   ----------------------------------------
 .byte   W96
@ 099   ----------------------------------------
 .byte   W96
@ 100   ----------------------------------------
 .byte   W96
@ 101   ----------------------------------------
 .byte   W96
@ 102   ----------------------------------------
 .byte   W96
@ 103   ----------------------------------------
 .byte   W96
@ 104   ----------------------------------------
 .byte   W96
@ 105   ----------------------------------------
 .byte   W96
@ 106   ----------------------------------------
 .byte   W96
@ 107   ----------------------------------------
 .byte   W96
@ 108   ----------------------------------------
 .byte   W90
 .byte   FINE

@**************** Track 6 (Midi-Chn.5) ****************@

song09_006:
@ 000   ----------------------------------------
 .byte   KEYSH , song09_key+0
 .byte   VOICE , 30
 .byte   VOL , 24*song09_mvl/mxv
 .byte   PAN , c_v-50
 .byte   N06 ,FnM2 ,v127
 .byte   N06 ,FnM1
 .byte   W24
 .byte   FnM2
 .byte   N06 ,FnM1
 .byte   W24
 .byte   FnM2
 .byte   N06 ,FnM1
 .byte   W24
 .byte   FnM2
 .byte   N06 ,FnM1
 .byte   W24
@ 001   ----------------------------------------
Label_5_54CF32:
 .byte   N06 ,FnM2 ,v127
 .byte   N06 ,FnM1
 .byte   W24
 .byte   FnM2
 .byte   N06 ,FnM1
 .byte   W24
 .byte   FnM2
 .byte   N06 ,FnM1
 .byte   W24
 .byte   FnM2
 .byte   N06 ,FnM1
 .byte   W24
 .byte   PEND 
@ 002   ----------------------------------------
 .byte   PATT
  .word Label_5_54CF32
@ 003   ----------------------------------------
 .byte   PATT
  .word Label_5_54CF32
@ 004   ----------------------------------------
 .byte   PATT
  .word Label_5_54CF32
@ 005   ----------------------------------------
 .byte   PATT
  .word Label_5_54CF32
@ 006   ----------------------------------------
 .byte   PATT
  .word Label_5_54CF32
@ 007   ----------------------------------------
 .byte   PATT
  .word Label_5_54CF32
@ 008   ----------------------------------------
Label_5_54CF63:
 .byte   N06 ,GnM1 ,v127
 .byte   N06 ,Gn0
 .byte   W24
 .byte   GnM1
 .byte   N06 ,Gn0
 .byte   W24
 .byte   GnM1
 .byte   N06 ,Gn0
 .byte   W24
 .byte   GnM1
 .byte   N06 ,Gn0
 .byte   W24
 .byte   PEND 
@ 009   ----------------------------------------
 .byte   PATT
  .word Label_5_54CF63
@ 010   ----------------------------------------
 .byte   PATT
  .word Label_5_54CF63
@ 011   ----------------------------------------
 .byte   PATT
  .word Label_5_54CF63
@ 012   ----------------------------------------
 .byte   PATT
  .word Label_5_54CF63
@ 013   ----------------------------------------
 .byte   PATT
  .word Label_5_54CF63
@ 014   ----------------------------------------
 .byte   PATT
  .word Label_5_54CF63
@ 015   ----------------------------------------
 .byte   PATT
  .word Label_5_54CF63
@ 016   ----------------------------------------
 .byte   PATT
  .word Label_5_54CF63
@ 017   ----------------------------------------
 .byte   PATT
  .word Label_5_54CF63
@ 018   ----------------------------------------
 .byte   PATT
  .word Label_5_54CF63
@ 019   ----------------------------------------
 .byte   PATT
  .word Label_5_54CF63
@ 020   ----------------------------------------
 .byte   PATT
  .word Label_5_54CF63
@ 021   ----------------------------------------
 .byte   PATT
  .word Label_5_54CF63
@ 022   ----------------------------------------
 .byte   PATT
  .word Label_5_54CF63
@ 023   ----------------------------------------
 .byte   PATT
  .word Label_5_54CF63
@ 024   ----------------------------------------
 .byte   PATT
  .word Label_5_54CF63
@ 025   ----------------------------------------
 .byte   PATT
  .word Label_5_54CF63
@ 026   ----------------------------------------
 .byte   PATT
  .word Label_5_54CF63
@ 027   ----------------------------------------
 .byte   PATT
  .word Label_5_54CF63
@ 028   ----------------------------------------
 .byte   PATT
  .word Label_5_54CF63
@ 029   ----------------------------------------
 .byte   PATT
  .word Label_5_54CF63
@ 030   ----------------------------------------
 .byte   PATT
  .word Label_5_54CF63
@ 031   ----------------------------------------
 .byte   PATT
  .word Label_5_54CF63
@ 032   ----------------------------------------
Label_5_54CFE9:
 .byte   N06 ,FnM2 ,v104
 .byte   N06 ,FnM1
 .byte   W24
 .byte   FnM2
 .byte   N06 ,FnM1
 .byte   W24
 .byte   FnM2
 .byte   N06 ,FnM1
 .byte   W24
 .byte   FnM2
 .byte   N06 ,FnM1
 .byte   W24
 .byte   PEND 
@ 033   ----------------------------------------
 .byte   PATT
  .word Label_5_54CFE9
@ 034   ----------------------------------------
 .byte   PATT
  .word Label_5_54CFE9
@ 035   ----------------------------------------
 .byte   PATT
  .word Label_5_54CFE9
@ 036   ----------------------------------------
 .byte   PATT
  .word Label_5_54CFE9
@ 037   ----------------------------------------
 .byte   PATT
  .word Label_5_54CFE9
@ 038   ----------------------------------------
 .byte   PATT
  .word Label_5_54CFE9
@ 039   ----------------------------------------
 .byte   PATT
  .word Label_5_54CFE9
@ 040   ----------------------------------------
 .byte   W96
@ 041   ----------------------------------------
 .byte   W96
@ 042   ----------------------------------------
 .byte   W96
@ 043   ----------------------------------------
 .byte   W96
@ 044   ----------------------------------------
 .byte   W96
@ 045   ----------------------------------------
 .byte   W96
@ 046   ----------------------------------------
 .byte   W96
@ 047   ----------------------------------------
 .byte   W96
@ 048   ----------------------------------------
 .byte   W96
@ 049   ----------------------------------------
 .byte   W96
@ 050   ----------------------------------------
 .byte   PATT
  .word Label_5_54CF63
@ 051   ----------------------------------------
 .byte   PATT
  .word Label_5_54CF63
@ 052   ----------------------------------------
 .byte   PATT
  .word Label_5_54CF63
@ 053   ----------------------------------------
 .byte   PATT
  .word Label_5_54CF63
@ 054   ----------------------------------------
 .byte   PATT
  .word Label_5_54CF32
@ 055   ----------------------------------------
 .byte   PATT
  .word Label_5_54CF32
@ 056   ----------------------------------------
 .byte   PATT
  .word Label_5_54CF32
@ 057   ----------------------------------------
 .byte   PATT
  .word Label_5_54CF32
@ 058   ----------------------------------------
 .byte   PATT
  .word Label_5_54CF32
@ 059   ----------------------------------------
 .byte   PATT
  .word Label_5_54CF32
@ 060   ----------------------------------------
 .byte   PATT
  .word Label_5_54CF32
@ 061   ----------------------------------------
 .byte   PATT
  .word Label_5_54CF32
@ 062   ----------------------------------------
 .byte   PATT
  .word Label_5_54CF63
@ 063   ----------------------------------------
 .byte   PATT
  .word Label_5_54CF63
@ 064   ----------------------------------------
 .byte   PATT
  .word Label_5_54CF63
@ 065   ----------------------------------------
 .byte   PATT
  .word Label_5_54CF63
@ 066   ----------------------------------------
 .byte   PATT
  .word Label_5_54CF63
@ 067   ----------------------------------------
 .byte   PATT
  .word Label_5_54CF63
@ 068   ----------------------------------------
 .byte   PATT
  .word Label_5_54CF63
@ 069   ----------------------------------------
 .byte   PATT
  .word Label_5_54CF63
@ 070   ----------------------------------------
 .byte   PATT
  .word Label_5_54CF63
@ 071   ----------------------------------------
 .byte   PATT
  .word Label_5_54CF63
@ 072   ----------------------------------------
 .byte   PATT
  .word Label_5_54CF63
@ 073   ----------------------------------------
 .byte   PATT
  .word Label_5_54CF63
@ 074   ----------------------------------------
 .byte   PATT
  .word Label_5_54CF63
@ 075   ----------------------------------------
 .byte   PATT
  .word Label_5_54CF63
@ 076   ----------------------------------------
 .byte   PATT
  .word Label_5_54CF63
@ 077   ----------------------------------------
 .byte   PATT
  .word Label_5_54CF63
@ 078   ----------------------------------------
 .byte   PATT
  .word Label_5_54CF63
@ 079   ----------------------------------------
 .byte   PATT
  .word Label_5_54CF63
@ 080   ----------------------------------------
 .byte   PATT
  .word Label_5_54CF63
@ 081   ----------------------------------------
 .byte   PATT
  .word Label_5_54CF63
@ 082   ----------------------------------------
 .byte   PATT
  .word Label_5_54CF63
@ 083   ----------------------------------------
 .byte   PATT
  .word Label_5_54CF63
@ 084   ----------------------------------------
 .byte   PATT
  .word Label_5_54CF63
@ 085   ----------------------------------------
 .byte   PATT
  .word Label_5_54CF63
@ 086   ----------------------------------------
 .byte   PATT
  .word Label_5_54CFE9
@ 087   ----------------------------------------
 .byte   PATT
  .word Label_5_54CFE9
@ 088   ----------------------------------------
 .byte   PATT
  .word Label_5_54CFE9
@ 089   ----------------------------------------
 .byte   PATT
  .word Label_5_54CFE9
@ 090   ----------------------------------------
 .byte   PATT
  .word Label_5_54CFE9
@ 091   ----------------------------------------
 .byte   PATT
  .word Label_5_54CFE9
@ 092   ----------------------------------------
 .byte   PATT
  .word Label_5_54CFE9
@ 093   ----------------------------------------
 .byte   PATT
  .word Label_5_54CFE9
@ 094   ----------------------------------------
 .byte   GOTO
  .word Label_5_54CF63
@ 095   ----------------------------------------
 .byte   W96
@ 096   ----------------------------------------
 .byte   W96
@ 097   ----------------------------------------
 .byte   W96
@ 098   ----------------------------------------
 .byte   W96
@ 099   ----------------------------------------
 .byte   W96
@ 100   ----------------------------------------
 .byte   W96
@ 101   ----------------------------------------
 .byte   W96
@ 102   ----------------------------------------
 .byte   W96
@ 103   ----------------------------------------
 .byte   W96
@ 104   ----------------------------------------
 .byte   W96
@ 105   ----------------------------------------
 .byte   PATT
  .word Label_5_54CF63
@ 106   ----------------------------------------
 .byte   PATT
  .word Label_5_54CF63
@ 107   ----------------------------------------
 .byte   PATT
  .word Label_5_54CF63
@ 108   ----------------------------------------
 .byte   N06 ,GnM1 ,v127
 .byte   N06 ,Gn0
 .byte   W24
 .byte   GnM1
 .byte   N06 ,Gn0
 .byte   W24
 .byte   GnM1
 .byte   N06 ,Gn0
 .byte   W24
 .byte   GnM1
 .byte   N06 ,Gn0
 .byte   W18
 .byte   FINE

@**************** Track 7 (Midi-Chn.6) ****************@

song09_007:
@ 000   ----------------------------------------
 .byte   KEYSH , song09_key+0
 .byte   VOICE , 30
 .byte   VOL , 24*song09_mvl/mxv
 .byte   PAN , c_v+50
 .byte   W12
 .byte   N06 ,FnM2 ,v127
 .byte   N06 ,FnM1
 .byte   W24
 .byte   FnM2
 .byte   N06 ,FnM1
 .byte   W24
 .byte   FnM2
 .byte   N06 ,FnM1
 .byte   W24
 .byte   FnM2
 .byte   N06 ,FnM1
 .byte   W12
@ 001   ----------------------------------------
Label_6_014DCB07:
 .byte   W12
 .byte   N06 ,FnM2 ,v127
 .byte   N06 ,FnM1
 .byte   W24
 .byte   FnM2
 .byte   N06 ,FnM1
 .byte   W24
 .byte   FnM2
 .byte   N06 ,FnM1
 .byte   W24
 .byte   FnM2
 .byte   N06 ,FnM1
 .byte   W12
 .byte   PEND 
@ 002   ----------------------------------------
 .byte   PATT
  .word Label_6_014DCB07
@ 003   ----------------------------------------
 .byte   PATT
  .word Label_6_014DCB07
@ 004   ----------------------------------------
 .byte   PATT
  .word Label_6_014DCB07
@ 005   ----------------------------------------
 .byte   PATT
  .word Label_6_014DCB07
@ 006   ----------------------------------------
 .byte   PATT
  .word Label_6_014DCB07
@ 007   ----------------------------------------
 .byte   PATT
  .word Label_6_014DCB07
@ 008   ----------------------------------------
Label_6_014DCB39:
 .byte   W12
 .byte   N06 ,GnM1 ,v127
 .byte   N06 ,Gn0
 .byte   W24
 .byte   GnM1
 .byte   N06 ,Gn0
 .byte   W24
 .byte   GnM1
 .byte   N06 ,Gn0
 .byte   W24
 .byte   GnM1
 .byte   N06 ,Gn0
 .byte   W12
 .byte   PEND 
@ 009   ----------------------------------------
 .byte   PATT
  .word Label_6_014DCB39
@ 010   ----------------------------------------
 .byte   PATT
  .word Label_6_014DCB39
@ 011   ----------------------------------------
 .byte   PATT
  .word Label_6_014DCB39
@ 012   ----------------------------------------
 .byte   PATT
  .word Label_6_014DCB39
@ 013   ----------------------------------------
 .byte   PATT
  .word Label_6_014DCB39
@ 014   ----------------------------------------
 .byte   PATT
  .word Label_6_014DCB39
@ 015   ----------------------------------------
 .byte   PATT
  .word Label_6_014DCB39
@ 016   ----------------------------------------
 .byte   PATT
  .word Label_6_014DCB39
@ 017   ----------------------------------------
 .byte   PATT
  .word Label_6_014DCB39
@ 018   ----------------------------------------
 .byte   PATT
  .word Label_6_014DCB39
@ 019   ----------------------------------------
 .byte   PATT
  .word Label_6_014DCB39
@ 020   ----------------------------------------
 .byte   PATT
  .word Label_6_014DCB39
@ 021   ----------------------------------------
 .byte   PATT
  .word Label_6_014DCB39
@ 022   ----------------------------------------
 .byte   PATT
  .word Label_6_014DCB39
@ 023   ----------------------------------------
 .byte   PATT
  .word Label_6_014DCB39
@ 024   ----------------------------------------
 .byte   PATT
  .word Label_6_014DCB39
@ 025   ----------------------------------------
 .byte   PATT
  .word Label_6_014DCB39
@ 026   ----------------------------------------
 .byte   PATT
  .word Label_6_014DCB39
@ 027   ----------------------------------------
 .byte   PATT
  .word Label_6_014DCB39
@ 028   ----------------------------------------
 .byte   PATT
  .word Label_6_014DCB39
@ 029   ----------------------------------------
 .byte   PATT
  .word Label_6_014DCB39
@ 030   ----------------------------------------
 .byte   PATT
  .word Label_6_014DCB39
@ 031   ----------------------------------------
 .byte   PATT
  .word Label_6_014DCB39
@ 032   ----------------------------------------
Label_6_014DCBC0:
 .byte   W12
 .byte   N06 ,FnM2 ,v104
 .byte   N06 ,FnM1
 .byte   W24
 .byte   FnM2
 .byte   N06 ,FnM1
 .byte   W24
 .byte   FnM2
 .byte   N06 ,FnM1
 .byte   W24
 .byte   FnM2
 .byte   N06 ,FnM1
 .byte   W12
 .byte   PEND 
@ 033   ----------------------------------------
 .byte   PATT
  .word Label_6_014DCBC0
@ 034   ----------------------------------------
 .byte   PATT
  .word Label_6_014DCBC0
@ 035   ----------------------------------------
 .byte   PATT
  .word Label_6_014DCBC0
@ 036   ----------------------------------------
 .byte   PATT
  .word Label_6_014DCBC0
@ 037   ----------------------------------------
 .byte   PATT
  .word Label_6_014DCBC0
@ 038   ----------------------------------------
 .byte   PATT
  .word Label_6_014DCBC0
@ 039   ----------------------------------------
 .byte   PATT
  .word Label_6_014DCBC0
@ 040   ----------------------------------------
 .byte   W96
@ 041   ----------------------------------------
 .byte   W96
@ 042   ----------------------------------------
 .byte   W96
@ 043   ----------------------------------------
 .byte   W96
@ 044   ----------------------------------------
 .byte   W96
@ 045   ----------------------------------------
 .byte   W96
@ 046   ----------------------------------------
 .byte   W96
@ 047   ----------------------------------------
 .byte   W96
@ 048   ----------------------------------------
 .byte   W96
@ 049   ----------------------------------------
 .byte   W96
@ 050   ----------------------------------------
 .byte   PATT
  .word Label_6_014DCB39
@ 051   ----------------------------------------
 .byte   PATT
  .word Label_6_014DCB39
@ 052   ----------------------------------------
 .byte   PATT
  .word Label_6_014DCB39
@ 053   ----------------------------------------
 .byte   PATT
  .word Label_6_014DCB39
@ 054   ----------------------------------------
 .byte   PATT
  .word Label_6_014DCB07
@ 055   ----------------------------------------
 .byte   PATT
  .word Label_6_014DCB07
@ 056   ----------------------------------------
 .byte   PATT
  .word Label_6_014DCB07
@ 057   ----------------------------------------
 .byte   PATT
  .word Label_6_014DCB07
@ 058   ----------------------------------------
 .byte   PATT
  .word Label_6_014DCB07
@ 059   ----------------------------------------
 .byte   PATT
  .word Label_6_014DCB07
@ 060   ----------------------------------------
 .byte   PATT
  .word Label_6_014DCB07
@ 061   ----------------------------------------
 .byte   PATT
  .word Label_6_014DCB07
@ 062   ----------------------------------------
 .byte   PATT
  .word Label_6_014DCB39
@ 063   ----------------------------------------
 .byte   PATT
  .word Label_6_014DCB39
@ 064   ----------------------------------------
 .byte   PATT
  .word Label_6_014DCB39
@ 065   ----------------------------------------
 .byte   PATT
  .word Label_6_014DCB39
@ 066   ----------------------------------------
 .byte   PATT
  .word Label_6_014DCB39
@ 067   ----------------------------------------
 .byte   PATT
  .word Label_6_014DCB39
@ 068   ----------------------------------------
 .byte   PATT
  .word Label_6_014DCB39
@ 069   ----------------------------------------
 .byte   PATT
  .word Label_6_014DCB39
@ 070   ----------------------------------------
 .byte   PATT
  .word Label_6_014DCB39
@ 071   ----------------------------------------
 .byte   PATT
  .word Label_6_014DCB39
@ 072   ----------------------------------------
 .byte   PATT
  .word Label_6_014DCB39
@ 073   ----------------------------------------
 .byte   PATT
  .word Label_6_014DCB39
@ 074   ----------------------------------------
 .byte   PATT
  .word Label_6_014DCB39
@ 075   ----------------------------------------
 .byte   PATT
  .word Label_6_014DCB39
@ 076   ----------------------------------------
 .byte   PATT
  .word Label_6_014DCB39
@ 077   ----------------------------------------
 .byte   PATT
  .word Label_6_014DCB39
@ 078   ----------------------------------------
 .byte   PATT
  .word Label_6_014DCB39
@ 079   ----------------------------------------
 .byte   PATT
  .word Label_6_014DCB39
@ 080   ----------------------------------------
 .byte   PATT
  .word Label_6_014DCB39
@ 081   ----------------------------------------
 .byte   PATT
  .word Label_6_014DCB39
@ 082   ----------------------------------------
 .byte   PATT
  .word Label_6_014DCB39
@ 083   ----------------------------------------
 .byte   PATT
  .word Label_6_014DCB39
@ 084   ----------------------------------------
 .byte   PATT
  .word Label_6_014DCB39
@ 085   ----------------------------------------
 .byte   PATT
  .word Label_6_014DCB39
@ 086   ----------------------------------------
 .byte   PATT
  .word Label_6_014DCBC0
@ 087   ----------------------------------------
 .byte   PATT
  .word Label_6_014DCBC0
@ 088   ----------------------------------------
 .byte   PATT
  .word Label_6_014DCBC0
@ 089   ----------------------------------------
 .byte   PATT
  .word Label_6_014DCBC0
@ 090   ----------------------------------------
 .byte   PATT
  .word Label_6_014DCBC0
@ 091   ----------------------------------------
 .byte   PATT
  .word Label_6_014DCBC0
@ 092   ----------------------------------------
 .byte   PATT
  .word Label_6_014DCBC0
@ 093   ----------------------------------------
 .byte   PATT
  .word Label_6_014DCBC0
@ 094   ----------------------------------------
 .byte   GOTO
  .word Label_6_014DCB39
@ 095   ----------------------------------------
 .byte   W96
@ 096   ----------------------------------------
 .byte   W96
@ 097   ----------------------------------------
 .byte   W96
@ 098   ----------------------------------------
 .byte   W96
@ 099   ----------------------------------------
 .byte   W96
@ 100   ----------------------------------------
 .byte   W96
@ 101   ----------------------------------------
 .byte   W96
@ 102   ----------------------------------------
 .byte   W96
@ 103   ----------------------------------------
 .byte   W96
@ 104   ----------------------------------------
 .byte   W96
@ 105   ----------------------------------------
 .byte   PATT
  .word Label_6_014DCB39
@ 106   ----------------------------------------
 .byte   PATT
  .word Label_6_014DCB39
@ 107   ----------------------------------------
 .byte   PATT
  .word Label_6_014DCB39
@ 108   ----------------------------------------
 .byte   W12
 .byte   N06 ,GnM1 ,v127
 .byte   N06 ,Gn0
 .byte   W24
 .byte   GnM1
 .byte   N06 ,Gn0
 .byte   W24
 .byte   GnM1
 .byte   N06 ,Gn0
 .byte   W24
 .byte   GnM1
 .byte   N06 ,Gn0
 .byte   W06
 .byte   FINE

@**************** Track 8 (Midi-Chn.7) ****************@

song09_008:
@ 000   ----------------------------------------
 .byte   KEYSH , song09_key+0
 .byte   VOICE , 48
 .byte   VOL , 56*song09_mvl/mxv
 .byte   PAN , c_v+40
 .byte   W96
@ 001   ----------------------------------------
 .byte   W96
@ 002   ----------------------------------------
 .byte   W96
@ 003   ----------------------------------------
 .byte   W96
@ 004   ----------------------------------------
 .byte   W96
@ 005   ----------------------------------------
 .byte   W96
@ 006   ----------------------------------------
 .byte   W96
@ 007   ----------------------------------------
 .byte   W96
@ 008   ----------------------------------------
Label_7_014DD7B0:
 .byte   W96
@ 009   ----------------------------------------
 .byte   W96
@ 010   ----------------------------------------
 .byte   W96
@ 011   ----------------------------------------
 .byte   W96
@ 012   ----------------------------------------
 .byte   W96
@ 013   ----------------------------------------
 .byte   W96
@ 014   ----------------------------------------
 .byte   W96
@ 015   ----------------------------------------
 .byte   W96
@ 016   ----------------------------------------
Label_7_014DD7B8:
 .byte   N12 ,Ds3 ,v127
 .byte   W24
 .byte   Dn3
 .byte   W24
 .byte   As2
 .byte   W24
 .byte   Ds3
 .byte   W24
 .byte   PEND 
@ 017   ----------------------------------------
Label_7_014DD7C3:
 .byte   N12 ,Dn3 ,v127
 .byte   W24
 .byte   As2
 .byte   W24
 .byte   Ds3
 .byte   W24
 .byte   Dn3
 .byte   W24
 .byte   PEND 
@ 018   ----------------------------------------
 .byte   PATT
  .word Label_7_014DD7B8
@ 019   ----------------------------------------
Label_7_014DD7D3:
 .byte   N12 ,Dn3 ,v127
 .byte   W24
 .byte   As2
 .byte   W24
 .byte   Fn3
 .byte   W24
 .byte   Dn3
 .byte   W24
 .byte   PEND 
@ 020   ----------------------------------------
Label_7_014DD7DE:
 .byte   N12 ,Ds3 ,v127
 .byte   W24
 .byte   Dn3
 .byte   W24
 .byte   An2
 .byte   W24
 .byte   Ds3
 .byte   W24
 .byte   PEND 
@ 021   ----------------------------------------
Label_7_014DD7E9:
 .byte   N12 ,Dn3 ,v127
 .byte   W24
 .byte   An2
 .byte   W24
 .byte   Ds3
 .byte   W24
 .byte   Dn3
 .byte   W24
 .byte   PEND 
@ 022   ----------------------------------------
 .byte   PATT
  .word Label_7_014DD7DE
@ 023   ----------------------------------------
Label_7_014DD7F9:
 .byte   N12 ,Dn3 ,v127
 .byte   W24
 .byte   An2
 .byte   W24
 .byte   Fn3
 .byte   W24
 .byte   Dn3
 .byte   W24
 .byte   PEND 
@ 024   ----------------------------------------
 .byte   W96
@ 025   ----------------------------------------
 .byte   W96
@ 026   ----------------------------------------
 .byte   W96
@ 027   ----------------------------------------
 .byte   W96
@ 028   ----------------------------------------
 .byte   W96
@ 029   ----------------------------------------
 .byte   W96
@ 030   ----------------------------------------
 .byte   W96
@ 031   ----------------------------------------
 .byte   W96
@ 032   ----------------------------------------
Label_7_014DD80C:
 .byte   N32 ,Dn2 ,v127
 .byte   W36
 .byte   N12
 .byte   W12
 .byte   N24 ,Fn2
 .byte   W24
 .byte   Gn2
 .byte   W24
 .byte   PEND 
@ 033   ----------------------------------------
Label_7_014DD818:
 .byte   N48 ,An2 ,v127
 .byte   W72
 .byte   N24 ,Fn2
 .byte   W24
 .byte   PEND 
@ 034   ----------------------------------------
Label_7_014DD820:
 .byte   N24 ,Gn2 ,v127
 .byte   W36
 .byte   N12
 .byte   W12
 .byte   N24 ,Fn2
 .byte   W24
 .byte   Gn2
 .byte   W24
 .byte   PEND 
@ 035   ----------------------------------------
Label_7_014DD82C:
 .byte   N24 ,An2 ,v127
 .byte   W24
 .byte   Fn2
 .byte   W24
 .byte   N48 ,Dn2
 .byte   W48
 .byte   PEND 
@ 036   ----------------------------------------
 .byte   PATT
  .word Label_7_014DD80C
@ 037   ----------------------------------------
 .byte   PATT
  .word Label_7_014DD818
@ 038   ----------------------------------------
Label_7_014DD840:
 .byte   N24 ,Gn2 ,v127
 .byte   W24
 .byte   N24
 .byte   W24
 .byte   Fn2
 .byte   W24
 .byte   En2
 .byte   W24
 .byte   PEND 
@ 039   ----------------------------------------
 .byte   N48 ,Dn2
 .byte   W96
@ 040   ----------------------------------------
 .byte   W96
@ 041   ----------------------------------------
 .byte   W96
@ 042   ----------------------------------------
 .byte   W96
@ 043   ----------------------------------------
 .byte   W96
@ 044   ----------------------------------------
 .byte   W96
@ 045   ----------------------------------------
 .byte   W96
@ 046   ----------------------------------------
 .byte   W96
@ 047   ----------------------------------------
 .byte   W96
@ 048   ----------------------------------------
 .byte   W96
@ 049   ----------------------------------------
 .byte   W96
@ 050   ----------------------------------------
 .byte   W96
@ 051   ----------------------------------------
 .byte   W96
@ 052   ----------------------------------------
 .byte   W96
@ 053   ----------------------------------------
 .byte   W96
@ 054   ----------------------------------------
 .byte   W96
@ 055   ----------------------------------------
 .byte   W96
@ 056   ----------------------------------------
 .byte   W96
@ 057   ----------------------------------------
 .byte   W96
@ 058   ----------------------------------------
 .byte   W96
@ 059   ----------------------------------------
 .byte   W96
@ 060   ----------------------------------------
 .byte   W96
@ 061   ----------------------------------------
 .byte   W96
@ 062   ----------------------------------------
 .byte   W96
@ 063   ----------------------------------------
 .byte   W96
@ 064   ----------------------------------------
 .byte   W96
@ 065   ----------------------------------------
 .byte   W96
@ 066   ----------------------------------------
 .byte   W96
@ 067   ----------------------------------------
 .byte   W96
@ 068   ----------------------------------------
 .byte   W96
@ 069   ----------------------------------------
 .byte   W96
@ 070   ----------------------------------------
 .byte   PATT
  .word Label_7_014DD7B8
@ 071   ----------------------------------------
 .byte   PATT
  .word Label_7_014DD7C3
@ 072   ----------------------------------------
 .byte   PATT
  .word Label_7_014DD7B8
@ 073   ----------------------------------------
 .byte   PATT
  .word Label_7_014DD7D3
@ 074   ----------------------------------------
 .byte   PATT
  .word Label_7_014DD7DE
@ 075   ----------------------------------------
 .byte   PATT
  .word Label_7_014DD7E9
@ 076   ----------------------------------------
 .byte   PATT
  .word Label_7_014DD7DE
@ 077   ----------------------------------------
 .byte   PATT
  .word Label_7_014DD7F9
@ 078   ----------------------------------------
 .byte   W96
@ 079   ----------------------------------------
 .byte   W96
@ 080   ----------------------------------------
 .byte   W96
@ 081   ----------------------------------------
 .byte   W96
@ 082   ----------------------------------------
 .byte   W96
@ 083   ----------------------------------------
 .byte   W96
@ 084   ----------------------------------------
 .byte   W96
@ 085   ----------------------------------------
 .byte   W96
@ 086   ----------------------------------------
 .byte   PATT
  .word Label_7_014DD80C
@ 087   ----------------------------------------
 .byte   PATT
  .word Label_7_014DD818
@ 088   ----------------------------------------
 .byte   PATT
  .word Label_7_014DD820
@ 089   ----------------------------------------
 .byte   PATT
  .word Label_7_014DD82C
@ 090   ----------------------------------------
 .byte   PATT
  .word Label_7_014DD80C
@ 091   ----------------------------------------
 .byte   PATT
  .word Label_7_014DD818
@ 092   ----------------------------------------
 .byte   PATT
  .word Label_7_014DD840
@ 093   ----------------------------------------
 .byte   N48 ,Dn2 ,v127
 .byte   W96
@ 094   ----------------------------------------
 .byte   GOTO
  .word Label_7_014DD7B0
@ 095   ----------------------------------------
 .byte   W96
@ 096   ----------------------------------------
 .byte   W96
@ 097   ----------------------------------------
 .byte   W96
@ 098   ----------------------------------------
 .byte   W96
@ 099   ----------------------------------------
 .byte   W96
@ 100   ----------------------------------------
 .byte   W96
@ 101   ----------------------------------------
 .byte   W96
@ 102   ----------------------------------------
 .byte   W96
@ 103   ----------------------------------------
 .byte   W96
@ 104   ----------------------------------------
 .byte   W96
@ 105   ----------------------------------------
 .byte   W96
@ 106   ----------------------------------------
 .byte   W96
@ 107   ----------------------------------------
 .byte   W96
@ 108   ----------------------------------------
 .byte   W90
 .byte   FINE

@**************** Track 9 (Midi-Chn.8) ****************@

song09_009:
@ 000   ----------------------------------------
 .byte   KEYSH , song09_key+0
 .byte   VOICE , 48
 .byte   VOL , 32*song09_mvl/mxv
 .byte   PAN , c_v-40
 .byte   W96
@ 001   ----------------------------------------
 .byte   W96
@ 002   ----------------------------------------
 .byte   W96
@ 003   ----------------------------------------
 .byte   W96
@ 004   ----------------------------------------
 .byte   W96
@ 005   ----------------------------------------
 .byte   W96
@ 006   ----------------------------------------
 .byte   W96
@ 007   ----------------------------------------
 .byte   W96
@ 008   ----------------------------------------
Label_8_014DCFE4:
 .byte   W96
@ 009   ----------------------------------------
 .byte   W96
@ 010   ----------------------------------------
 .byte   W96
@ 011   ----------------------------------------
 .byte   W96
@ 012   ----------------------------------------
 .byte   W96
@ 013   ----------------------------------------
 .byte   W96
@ 014   ----------------------------------------
 .byte   W96
@ 015   ----------------------------------------
 .byte   W96
@ 016   ----------------------------------------
Label_8_014DCFEC:
 .byte   W12
 .byte   N12 ,Ds3 ,v127
 .byte   W24
 .byte   Dn3
 .byte   W24
 .byte   As2
 .byte   W24
 .byte   Ds3
 .byte   W12
 .byte   PEND 
@ 017   ----------------------------------------
Label_8_014DCFF8:
 .byte   W12
 .byte   N12 ,Dn3 ,v127
 .byte   W24
 .byte   As2
 .byte   W24
 .byte   Ds3
 .byte   W24
 .byte   Dn3
 .byte   W12
 .byte   PEND 
@ 018   ----------------------------------------
 .byte   PATT
  .word Label_8_014DCFEC
@ 019   ----------------------------------------
Label_8_014DD009:
 .byte   W12
 .byte   N12 ,Dn3 ,v127
 .byte   W24
 .byte   As2
 .byte   W24
 .byte   Fn3
 .byte   W24
 .byte   Dn3
 .byte   W12
 .byte   PEND 
@ 020   ----------------------------------------
Label_8_014DD015:
 .byte   W12
 .byte   N12 ,Ds3 ,v127
 .byte   W24
 .byte   Dn3
 .byte   W24
 .byte   An2
 .byte   W24
 .byte   Ds3
 .byte   W12
 .byte   PEND 
@ 021   ----------------------------------------
Label_8_014DD021:
 .byte   W12
 .byte   N12 ,Dn3 ,v127
 .byte   W24
 .byte   An2
 .byte   W24
 .byte   Ds3
 .byte   W24
 .byte   Dn3
 .byte   W12
 .byte   PEND 
@ 022   ----------------------------------------
 .byte   PATT
  .word Label_8_014DD015
@ 023   ----------------------------------------
Label_8_014DD032:
 .byte   W12
 .byte   N12 ,Dn3 ,v127
 .byte   W24
 .byte   An2
 .byte   W24
 .byte   Fn3
 .byte   W24
 .byte   Dn3
 .byte   W12
 .byte   PEND 
@ 024   ----------------------------------------
 .byte   W96
@ 025   ----------------------------------------
 .byte   W96
@ 026   ----------------------------------------
 .byte   W96
@ 027   ----------------------------------------
 .byte   W96
@ 028   ----------------------------------------
 .byte   W96
@ 029   ----------------------------------------
 .byte   W96
@ 030   ----------------------------------------
 .byte   W96
@ 031   ----------------------------------------
 .byte   W96
@ 032   ----------------------------------------
Label_8_014DD046:
 .byte   W12
 .byte   N32 ,Dn2 ,v127
 .byte   W36
 .byte   N12
 .byte   W12
 .byte   N24 ,Fn2
 .byte   W24
 .byte   Gn2
 .byte   W12
 .byte   PEND 
@ 033   ----------------------------------------
Label_8_014DD053:
 .byte   W12
 .byte   N48 ,An2 ,v127
 .byte   W72
 .byte   N24 ,Fn2
 .byte   W12
 .byte   PEND 
@ 034   ----------------------------------------
Label_8_014DD05C:
 .byte   W12
 .byte   N24 ,Gn2 ,v127
 .byte   W36
 .byte   N12
 .byte   W12
 .byte   N24 ,Fn2
 .byte   W24
 .byte   Gn2
 .byte   W12
 .byte   PEND 
@ 035   ----------------------------------------
Label_8_014DD069:
 .byte   W12
 .byte   N24 ,An2 ,v127
 .byte   W24
 .byte   Fn2
 .byte   W24
 .byte   N48 ,Dn2
 .byte   W36
 .byte   PEND 
@ 036   ----------------------------------------
 .byte   PATT
  .word Label_8_014DD046
@ 037   ----------------------------------------
 .byte   PATT
  .word Label_8_014DD053
@ 038   ----------------------------------------
Label_8_014DD07E:
 .byte   W12
 .byte   N24 ,Gn2 ,v127
 .byte   W24
 .byte   N24
 .byte   W24
 .byte   Fn2
 .byte   W24
 .byte   En2
 .byte   W12
 .byte   PEND 
@ 039   ----------------------------------------
 .byte   W12
 .byte   N48 ,Dn2
 .byte   W84
@ 040   ----------------------------------------
 .byte   W96
@ 041   ----------------------------------------
 .byte   W96
@ 042   ----------------------------------------
 .byte   W96
@ 043   ----------------------------------------
 .byte   W96
@ 044   ----------------------------------------
 .byte   W96
@ 045   ----------------------------------------
 .byte   W96
@ 046   ----------------------------------------
 .byte   W96
@ 047   ----------------------------------------
 .byte   W96
@ 048   ----------------------------------------
 .byte   W96
@ 049   ----------------------------------------
 .byte   W96
@ 050   ----------------------------------------
 .byte   W96
@ 051   ----------------------------------------
 .byte   W96
@ 052   ----------------------------------------
 .byte   W96
@ 053   ----------------------------------------
 .byte   W96
@ 054   ----------------------------------------
 .byte   W96
@ 055   ----------------------------------------
 .byte   W96
@ 056   ----------------------------------------
 .byte   W96
@ 057   ----------------------------------------
 .byte   W96
@ 058   ----------------------------------------
 .byte   W96
@ 059   ----------------------------------------
 .byte   W96
@ 060   ----------------------------------------
 .byte   W96
@ 061   ----------------------------------------
 .byte   W96
@ 062   ----------------------------------------
 .byte   W96
@ 063   ----------------------------------------
 .byte   W96
@ 064   ----------------------------------------
 .byte   W96
@ 065   ----------------------------------------
 .byte   W96
@ 066   ----------------------------------------
 .byte   W96
@ 067   ----------------------------------------
 .byte   W96
@ 068   ----------------------------------------
 .byte   W96
@ 069   ----------------------------------------
 .byte   W96
@ 070   ----------------------------------------
 .byte   PATT
  .word Label_8_014DCFEC
@ 071   ----------------------------------------
 .byte   PATT
  .word Label_8_014DCFF8
@ 072   ----------------------------------------
 .byte   PATT
  .word Label_8_014DCFEC
@ 073   ----------------------------------------
 .byte   PATT
  .word Label_8_014DD009
@ 074   ----------------------------------------
 .byte   PATT
  .word Label_8_014DD015
@ 075   ----------------------------------------
 .byte   PATT
  .word Label_8_014DD021
@ 076   ----------------------------------------
 .byte   PATT
  .word Label_8_014DD015
@ 077   ----------------------------------------
 .byte   PATT
  .word Label_8_014DD032
@ 078   ----------------------------------------
 .byte   W96
@ 079   ----------------------------------------
 .byte   W96
@ 080   ----------------------------------------
 .byte   W96
@ 081   ----------------------------------------
 .byte   W96
@ 082   ----------------------------------------
 .byte   W96
@ 083   ----------------------------------------
 .byte   W96
@ 084   ----------------------------------------
 .byte   W96
@ 085   ----------------------------------------
 .byte   W96
@ 086   ----------------------------------------
 .byte   PATT
  .word Label_8_014DD046
@ 087   ----------------------------------------
 .byte   PATT
  .word Label_8_014DD053
@ 088   ----------------------------------------
 .byte   PATT
  .word Label_8_014DD05C
@ 089   ----------------------------------------
 .byte   PATT
  .word Label_8_014DD069
@ 090   ----------------------------------------
 .byte   PATT
  .word Label_8_014DD046
@ 091   ----------------------------------------
 .byte   PATT
  .word Label_8_014DD053
@ 092   ----------------------------------------
 .byte   PATT
  .word Label_8_014DD07E
@ 093   ----------------------------------------
 .byte   W12
 .byte   N48 ,Dn2 ,v127
 .byte   W84
@ 094   ----------------------------------------
 .byte   GOTO
  .word Label_8_014DCFE4
@ 095   ----------------------------------------
 .byte   W96
@ 096   ----------------------------------------
 .byte   W96
@ 097   ----------------------------------------
 .byte   W96
@ 098   ----------------------------------------
 .byte   W96
@ 099   ----------------------------------------
 .byte   W96
@ 100   ----------------------------------------
 .byte   W96
@ 101   ----------------------------------------
 .byte   W96
@ 102   ----------------------------------------
 .byte   W96
@ 103   ----------------------------------------
 .byte   W96
@ 104   ----------------------------------------
 .byte   W96
@ 105   ----------------------------------------
 .byte   W96
@ 106   ----------------------------------------
 .byte   W96
@ 107   ----------------------------------------
 .byte   W96
@ 108   ----------------------------------------
 .byte   W90
 .byte   FINE

@**************** Track 10 (Midi-Chn.9) ****************@

song09_010:
@ 000   ----------------------------------------
 .byte   KEYSH , song09_key+0
 .byte   VOICE , 119
 .byte   VOL , 32*song09_mvl/mxv
 .byte   PAN , c_v+0
 .byte   W96
@ 001   ----------------------------------------
 .byte   W96
@ 002   ----------------------------------------
 .byte   W96
@ 003   ----------------------------------------
 .byte   W96
@ 004   ----------------------------------------
 .byte   W96
@ 005   ----------------------------------------
 .byte   W96
@ 006   ----------------------------------------
 .byte   W96
@ 007   ----------------------------------------
 .byte   W96
@ 008   ----------------------------------------
Label_9_014DD128:
 .byte   W96
@ 009   ----------------------------------------
 .byte   W96
@ 010   ----------------------------------------
 .byte   W96
@ 011   ----------------------------------------
 .byte   W96
@ 012   ----------------------------------------
 .byte   W96
@ 013   ----------------------------------------
 .byte   W96
@ 014   ----------------------------------------
 .byte   W96
@ 015   ----------------------------------------
 .byte   W96
@ 016   ----------------------------------------
 .byte   W96
@ 017   ----------------------------------------
 .byte   W96
@ 018   ----------------------------------------
 .byte   W96
@ 019   ----------------------------------------
 .byte   W96
@ 020   ----------------------------------------
 .byte   W96
@ 021   ----------------------------------------
 .byte   W96
@ 022   ----------------------------------------
 .byte   W96
@ 023   ----------------------------------------
 .byte   W96
@ 024   ----------------------------------------
 .byte   W96
@ 025   ----------------------------------------
 .byte   W96
@ 026   ----------------------------------------
 .byte   W96
@ 027   ----------------------------------------
 .byte   W96
@ 028   ----------------------------------------
 .byte   W96
@ 029   ----------------------------------------
 .byte   W96
@ 030   ----------------------------------------
 .byte   W72
 .byte   N80 ,Gn2 ,v127
 .byte   W24
@ 031   ----------------------------------------
 .byte   W96
@ 032   ----------------------------------------
 .byte   W96
@ 033   ----------------------------------------
 .byte   W96
@ 034   ----------------------------------------
 .byte   W96
@ 035   ----------------------------------------
 .byte   W96
@ 036   ----------------------------------------
 .byte   W96
@ 037   ----------------------------------------
 .byte   W96
@ 038   ----------------------------------------
 .byte   W96
@ 039   ----------------------------------------
 .byte   W96
@ 040   ----------------------------------------
 .byte   W96
@ 041   ----------------------------------------
 .byte   W96
@ 042   ----------------------------------------
 .byte   W96
@ 043   ----------------------------------------
 .byte   W96
@ 044   ----------------------------------------
 .byte   W96
@ 045   ----------------------------------------
 .byte   W96
@ 046   ----------------------------------------
 .byte   W96
@ 047   ----------------------------------------
 .byte   W96
@ 048   ----------------------------------------
 .byte   W96
@ 049   ----------------------------------------
 .byte   W96
@ 050   ----------------------------------------
 .byte   W96
@ 051   ----------------------------------------
 .byte   W96
@ 052   ----------------------------------------
 .byte   W96
@ 053   ----------------------------------------
 .byte   W96
@ 054   ----------------------------------------
 .byte   W96
@ 055   ----------------------------------------
 .byte   W96
@ 056   ----------------------------------------
 .byte   W96
@ 057   ----------------------------------------
 .byte   W96
@ 058   ----------------------------------------
 .byte   W96
@ 059   ----------------------------------------
 .byte   W96
@ 060   ----------------------------------------
 .byte   W96
@ 061   ----------------------------------------
 .byte   W96
@ 062   ----------------------------------------
 .byte   W96
@ 063   ----------------------------------------
 .byte   W96
@ 064   ----------------------------------------
 .byte   W96
@ 065   ----------------------------------------
 .byte   W96
@ 066   ----------------------------------------
 .byte   W96
@ 067   ----------------------------------------
 .byte   W96
@ 068   ----------------------------------------
 .byte   W96
@ 069   ----------------------------------------
 .byte   W96
@ 070   ----------------------------------------
 .byte   W96
@ 071   ----------------------------------------
 .byte   W96
@ 072   ----------------------------------------
 .byte   W96
@ 073   ----------------------------------------
 .byte   W96
@ 074   ----------------------------------------
 .byte   W96
@ 075   ----------------------------------------
 .byte   W96
@ 076   ----------------------------------------
 .byte   W96
@ 077   ----------------------------------------
 .byte   W96
@ 078   ----------------------------------------
 .byte   W96
@ 079   ----------------------------------------
 .byte   W96
@ 080   ----------------------------------------
 .byte   W96
@ 081   ----------------------------------------
 .byte   W96
@ 082   ----------------------------------------
 .byte   W96
@ 083   ----------------------------------------
 .byte   W96
@ 084   ----------------------------------------
 .byte   W72
 .byte   N80
 .byte   W24
@ 085   ----------------------------------------
 .byte   W96
@ 086   ----------------------------------------
 .byte   W96
@ 087   ----------------------------------------
 .byte   W96
@ 088   ----------------------------------------
 .byte   W96
@ 089   ----------------------------------------
 .byte   W96
@ 090   ----------------------------------------
 .byte   W96
@ 091   ----------------------------------------
 .byte   W96
@ 092   ----------------------------------------
 .byte   W96
@ 093   ----------------------------------------
 .byte   W96
@ 094   ----------------------------------------
 .byte   GOTO
  .word Label_9_014DD128
@ 095   ----------------------------------------
 .byte   W96
@ 096   ----------------------------------------
 .byte   W96
@ 097   ----------------------------------------
 .byte   W96
@ 098   ----------------------------------------
 .byte   W96
@ 099   ----------------------------------------
 .byte   W96
@ 100   ----------------------------------------
 .byte   W96
@ 101   ----------------------------------------
 .byte   W96
@ 102   ----------------------------------------
 .byte   W96
@ 103   ----------------------------------------
 .byte   W96
@ 104   ----------------------------------------
 .byte   W96
@ 105   ----------------------------------------
 .byte   W96
@ 106   ----------------------------------------
 .byte   W96
@ 107   ----------------------------------------
 .byte   W96
@ 108   ----------------------------------------
 .byte   W90
 .byte   FINE

@**************** Track 11 (Midi-Chn.10) ****************@

song09_011:
@ 000   ----------------------------------------
 .byte   KEYSH , song09_key+0
 .byte   VOICE , 24
 .byte   VOL , 40*song09_mvl/mxv
 .byte   PAN , c_v+0
 .byte   W96
@ 001   ----------------------------------------
 .byte   W96
@ 002   ----------------------------------------
 .byte   W96
@ 003   ----------------------------------------
 .byte   W96
@ 004   ----------------------------------------
 .byte   W96
@ 005   ----------------------------------------
 .byte   W96
@ 006   ----------------------------------------
 .byte   W96
@ 007   ----------------------------------------
 .byte   W96
@ 008   ----------------------------------------
Label_10_014DCD20:
 .byte   N12 ,Gn0 ,v127
 .byte   N12 ,Gn1
 .byte   W48
 .byte   Gn0
 .byte   N12 ,Gn1
 .byte   W48
 .byte   PEND 
@ 009   ----------------------------------------
 .byte   PATT
  .word Label_10_014DCD20
@ 010   ----------------------------------------
 .byte   PATT
  .word Label_10_014DCD20
@ 011   ----------------------------------------
 .byte   PATT
  .word Label_10_014DCD20
@ 012   ----------------------------------------
 .byte   PATT
  .word Label_10_014DCD20
@ 013   ----------------------------------------
 .byte   PATT
  .word Label_10_014DCD20
@ 014   ----------------------------------------
 .byte   PATT
  .word Label_10_014DCD20
@ 015   ----------------------------------------
 .byte   PATT
  .word Label_10_014DCD20
@ 016   ----------------------------------------
 .byte   PATT
  .word Label_10_014DCD20
@ 017   ----------------------------------------
 .byte   PATT
  .word Label_10_014DCD20
@ 018   ----------------------------------------
 .byte   PATT
  .word Label_10_014DCD20
@ 019   ----------------------------------------
 .byte   PATT
  .word Label_10_014DCD20
@ 020   ----------------------------------------
 .byte   PATT
  .word Label_10_014DCD20
@ 021   ----------------------------------------
 .byte   PATT
  .word Label_10_014DCD20
@ 022   ----------------------------------------
 .byte   PATT
  .word Label_10_014DCD20
@ 023   ----------------------------------------
 .byte   PATT
  .word Label_10_014DCD20
@ 024   ----------------------------------------
Label_10_014DCD76:
 .byte   N12 ,Gn0 ,v127
 .byte   N12 ,Gn1
 .byte   W12
 .byte   Gn0
 .byte   N12 ,Gn1
 .byte   W12
 .byte   Gn0
 .byte   N12 ,Gn1
 .byte   W12
 .byte   Gn0
 .byte   N12 ,Gn1
 .byte   W12
 .byte   N24 ,As0
 .byte   N24 ,As1
 .byte   W24
 .byte   N12 ,Gn0
 .byte   N12 ,Gn1
 .byte   W24
 .byte   PEND 
@ 025   ----------------------------------------
Label_10_014DCD93:
 .byte   W24
 .byte   N12 ,Gn0 ,v127
 .byte   N12 ,Gn1
 .byte   W12
 .byte   Gn0
 .byte   N12 ,Gn1
 .byte   W12
 .byte   N24 ,As0
 .byte   N24 ,As1
 .byte   W48
 .byte   PEND 
@ 026   ----------------------------------------
 .byte   PATT
  .word Label_10_014DCD76
@ 027   ----------------------------------------
Label_10_014DCDA9:
 .byte   W24
 .byte   N12 ,Gn0 ,v127
 .byte   N12 ,Gn1
 .byte   W12
 .byte   Gn0
 .byte   N12 ,Gn1
 .byte   W12
 .byte   N24 ,Fn0
 .byte   N24 ,Fn1
 .byte   W48
 .byte   PEND 
@ 028   ----------------------------------------
 .byte   PATT
  .word Label_10_014DCD76
@ 029   ----------------------------------------
 .byte   PATT
  .word Label_10_014DCD93
@ 030   ----------------------------------------
 .byte   PATT
  .word Label_10_014DCD76
@ 031   ----------------------------------------
Label_10_014DCDC9:
 .byte   W24
 .byte   N12 ,Gn0 ,v127
 .byte   N12 ,Gn1
 .byte   W12
 .byte   Gn0
 .byte   N12 ,Gn1
 .byte   W12
 .byte   N24 ,An0
 .byte   N24 ,An1
 .byte   W48
 .byte   PEND 
@ 032   ----------------------------------------
 .byte   W96
@ 033   ----------------------------------------
 .byte   W96
@ 034   ----------------------------------------
 .byte   W96
@ 035   ----------------------------------------
 .byte   W96
@ 036   ----------------------------------------
 .byte   W96
@ 037   ----------------------------------------
 .byte   W96
@ 038   ----------------------------------------
 .byte   W96
@ 039   ----------------------------------------
 .byte   W96
@ 040   ----------------------------------------
 .byte   PATT
  .word Label_10_014DCD20
@ 041   ----------------------------------------
 .byte   PATT
  .word Label_10_014DCD20
@ 042   ----------------------------------------
 .byte   PATT
  .word Label_10_014DCD20
@ 043   ----------------------------------------
 .byte   PATT
  .word Label_10_014DCD20
@ 044   ----------------------------------------
 .byte   PATT
  .word Label_10_014DCD20
@ 045   ----------------------------------------
 .byte   PATT
  .word Label_10_014DCD20
@ 046   ----------------------------------------
 .byte   PATT
  .word Label_10_014DCD20
@ 047   ----------------------------------------
 .byte   PATT
  .word Label_10_014DCD20
@ 048   ----------------------------------------
 .byte   PATT
  .word Label_10_014DCD20
@ 049   ----------------------------------------
 .byte   PATT
  .word Label_10_014DCD20
@ 050   ----------------------------------------
 .byte   PATT
  .word Label_10_014DCD20
@ 051   ----------------------------------------
 .byte   PATT
  .word Label_10_014DCD20
@ 052   ----------------------------------------
 .byte   PATT
  .word Label_10_014DCD20
@ 053   ----------------------------------------
 .byte   PATT
  .word Label_10_014DCD20
@ 054   ----------------------------------------
 .byte   W96
@ 055   ----------------------------------------
 .byte   W96
@ 056   ----------------------------------------
 .byte   W96
@ 057   ----------------------------------------
 .byte   W96
@ 058   ----------------------------------------
 .byte   W96
@ 059   ----------------------------------------
 .byte   W96
@ 060   ----------------------------------------
 .byte   W96
@ 061   ----------------------------------------
 .byte   W96
@ 062   ----------------------------------------
 .byte   PATT
  .word Label_10_014DCD20
@ 063   ----------------------------------------
 .byte   PATT
  .word Label_10_014DCD20
@ 064   ----------------------------------------
 .byte   PATT
  .word Label_10_014DCD20
@ 065   ----------------------------------------
 .byte   PATT
  .word Label_10_014DCD20
@ 066   ----------------------------------------
 .byte   PATT
  .word Label_10_014DCD20
@ 067   ----------------------------------------
 .byte   PATT
  .word Label_10_014DCD20
@ 068   ----------------------------------------
 .byte   PATT
  .word Label_10_014DCD20
@ 069   ----------------------------------------
 .byte   PATT
  .word Label_10_014DCD20
@ 070   ----------------------------------------
 .byte   PATT
  .word Label_10_014DCD20
@ 071   ----------------------------------------
 .byte   PATT
  .word Label_10_014DCD20
@ 072   ----------------------------------------
 .byte   PATT
  .word Label_10_014DCD20
@ 073   ----------------------------------------
 .byte   PATT
  .word Label_10_014DCD20
@ 074   ----------------------------------------
 .byte   PATT
  .word Label_10_014DCD20
@ 075   ----------------------------------------
 .byte   PATT
  .word Label_10_014DCD20
@ 076   ----------------------------------------
 .byte   PATT
  .word Label_10_014DCD20
@ 077   ----------------------------------------
 .byte   PATT
  .word Label_10_014DCD20
@ 078   ----------------------------------------
 .byte   PATT
  .word Label_10_014DCD76
@ 079   ----------------------------------------
 .byte   PATT
  .word Label_10_014DCD93
@ 080   ----------------------------------------
 .byte   PATT
  .word Label_10_014DCD76
@ 081   ----------------------------------------
 .byte   PATT
  .word Label_10_014DCDA9
@ 082   ----------------------------------------
 .byte   PATT
  .word Label_10_014DCD76
@ 083   ----------------------------------------
 .byte   PATT
  .word Label_10_014DCD93
@ 084   ----------------------------------------
 .byte   PATT
  .word Label_10_014DCD76
@ 085   ----------------------------------------
 .byte   PATT
  .word Label_10_014DCDC9
@ 086   ----------------------------------------
 .byte   W96
@ 087   ----------------------------------------
 .byte   W96
@ 088   ----------------------------------------
 .byte   W96
@ 089   ----------------------------------------
 .byte   W96
@ 090   ----------------------------------------
 .byte   W96
@ 091   ----------------------------------------
 .byte   W96
@ 092   ----------------------------------------
 .byte   W96
@ 093   ----------------------------------------
 .byte   W96
@ 094   ----------------------------------------
 .byte   GOTO
  .word Label_10_014DCD20
@ 095   ----------------------------------------
 .byte   PATT
  .word Label_10_014DCD20
@ 096   ----------------------------------------
 .byte   PATT
  .word Label_10_014DCD20
@ 097   ----------------------------------------
 .byte   PATT
  .word Label_10_014DCD20
@ 098   ----------------------------------------
 .byte   PATT
  .word Label_10_014DCD20
@ 099   ----------------------------------------
 .byte   PATT
  .word Label_10_014DCD20
@ 100   ----------------------------------------
 .byte   PATT
  .word Label_10_014DCD20
@ 101   ----------------------------------------
 .byte   PATT
  .word Label_10_014DCD20
@ 102   ----------------------------------------
 .byte   PATT
  .word Label_10_014DCD20
@ 103   ----------------------------------------
 .byte   PATT
  .word Label_10_014DCD20
@ 104   ----------------------------------------
 .byte   PATT
  .word Label_10_014DCD20
@ 105   ----------------------------------------
 .byte   PATT
  .word Label_10_014DCD20
@ 106   ----------------------------------------
 .byte   PATT
  .word Label_10_014DCD20
@ 107   ----------------------------------------
 .byte   PATT
  .word Label_10_014DCD20
@ 108   ----------------------------------------
 .byte   N12 ,Gn0 ,v127
 .byte   N12 ,Gn1
 .byte   W48
 .byte   Gn0
 .byte   N12 ,Gn1
 .byte   W42
 .byte   FINE

@**************** Track 12 (Midi-Chn.11) ****************@

song09_012:
@ 000   ----------------------------------------
 .byte   KEYSH , song09_key+0
 .byte   VOICE , 103
 .byte   VOL , 40*song09_mvl/mxv
 .byte   PAN , c_v-40
 .byte   W96
@ 001   ----------------------------------------
 .byte   W96
@ 002   ----------------------------------------
 .byte   W96
@ 003   ----------------------------------------
 .byte   W96
@ 004   ----------------------------------------
 .byte   W96
@ 005   ----------------------------------------
 .byte   W96
@ 006   ----------------------------------------
 .byte   W96
@ 007   ----------------------------------------
 .byte   W96
@ 008   ----------------------------------------
Label_11_014DD1C4:
 .byte   W96
@ 009   ----------------------------------------
 .byte   W96
@ 010   ----------------------------------------
 .byte   W96
@ 011   ----------------------------------------
 .byte   W96
@ 012   ----------------------------------------
 .byte   W96
@ 013   ----------------------------------------
 .byte   W96
@ 014   ----------------------------------------
 .byte   W96
@ 015   ----------------------------------------
 .byte   W96
@ 016   ----------------------------------------
 .byte   W96
@ 017   ----------------------------------------
 .byte   W96
@ 018   ----------------------------------------
 .byte   W96
@ 019   ----------------------------------------
 .byte   W96
@ 020   ----------------------------------------
 .byte   W96
@ 021   ----------------------------------------
 .byte   W96
@ 022   ----------------------------------------
 .byte   W96
@ 023   ----------------------------------------
 .byte   W96
@ 024   ----------------------------------------
 .byte   W96
@ 025   ----------------------------------------
 .byte   W96
@ 026   ----------------------------------------
 .byte   W96
@ 027   ----------------------------------------
 .byte   W96
@ 028   ----------------------------------------
 .byte   W96
@ 029   ----------------------------------------
 .byte   W96
@ 030   ----------------------------------------
 .byte   W96
@ 031   ----------------------------------------
 .byte   W96
@ 032   ----------------------------------------
 .byte   W96
@ 033   ----------------------------------------
 .byte   W96
@ 034   ----------------------------------------
 .byte   W96
@ 035   ----------------------------------------
 .byte   W96
@ 036   ----------------------------------------
 .byte   W96
@ 037   ----------------------------------------
 .byte   W96
@ 038   ----------------------------------------
 .byte   W96
@ 039   ----------------------------------------
 .byte   W96
@ 040   ----------------------------------------
Label_11_014DD1E4:
 .byte   W24
 .byte   N48 ,Dn2 ,v127
 .byte   W48
 .byte   N24
 .byte   W24
 .byte   PEND 
@ 041   ----------------------------------------
Label_11_014DD1EC:
 .byte   N48 ,Dn2 ,v127
 .byte   W72
 .byte   N12 ,Cn2
 .byte   W12
 .byte   As1
 .byte   W12
 .byte   PEND 
@ 042   ----------------------------------------
Label_11_014DD1F6:
 .byte   N48 ,An1 ,v127
 .byte   W48
 .byte   N24 ,As1
 .byte   W24
 .byte   An1
 .byte   W24
 .byte   PEND 
@ 043   ----------------------------------------
Label_11_014DD200:
 .byte   N24 ,As1 ,v127
 .byte   W24
 .byte   An1
 .byte   W24
 .byte   N72 ,Gn1
 .byte   W48
 .byte   PEND 
@ 044   ----------------------------------------
 .byte   PATT
  .word Label_11_014DD1E4
@ 045   ----------------------------------------
 .byte   PATT
  .word Label_11_014DD1EC
@ 046   ----------------------------------------
Label_11_014DD214:
 .byte   N32 ,An1 ,v127
 .byte   W36
 .byte   N12
 .byte   W12
 .byte   N24 ,As1
 .byte   W24
 .byte   N72 ,An1
 .byte   W24
 .byte   PEND 
@ 047   ----------------------------------------
Label_11_014DD221:
 .byte   W48
 .byte   N24 ,Cn2 ,v127
 .byte   W24
 .byte   As1
 .byte   W24
 .byte   PEND 
@ 048   ----------------------------------------
Label_11_014DD229:
 .byte   N32 ,An1 ,v127
 .byte   W36
 .byte   N12
 .byte   W12
 .byte   N24 ,As1
 .byte   W24
 .byte   N48 ,Cn2
 .byte   W24
 .byte   PEND 
@ 049   ----------------------------------------
Label_11_014DD236:
 .byte   W24
 .byte   N24 ,As1 ,v127
 .byte   W24
 .byte   N48 ,Dn2
 .byte   W48
 .byte   PEND 
@ 050   ----------------------------------------
 .byte   W96
@ 051   ----------------------------------------
 .byte   W96
@ 052   ----------------------------------------
 .byte   W96
@ 053   ----------------------------------------
 .byte   W96
@ 054   ----------------------------------------
 .byte   W96
@ 055   ----------------------------------------
 .byte   W96
@ 056   ----------------------------------------
 .byte   W96
@ 057   ----------------------------------------
 .byte   W96
@ 058   ----------------------------------------
 .byte   W96
@ 059   ----------------------------------------
 .byte   W96
@ 060   ----------------------------------------
 .byte   W96
@ 061   ----------------------------------------
 .byte   W96
@ 062   ----------------------------------------
 .byte   W96
@ 063   ----------------------------------------
 .byte   W96
@ 064   ----------------------------------------
 .byte   W96
@ 065   ----------------------------------------
 .byte   W96
@ 066   ----------------------------------------
 .byte   W96
@ 067   ----------------------------------------
 .byte   W96
@ 068   ----------------------------------------
 .byte   W96
@ 069   ----------------------------------------
 .byte   W96
@ 070   ----------------------------------------
 .byte   W96
@ 071   ----------------------------------------
 .byte   W96
@ 072   ----------------------------------------
 .byte   W96
@ 073   ----------------------------------------
 .byte   W96
@ 074   ----------------------------------------
 .byte   W96
@ 075   ----------------------------------------
 .byte   W96
@ 076   ----------------------------------------
 .byte   W96
@ 077   ----------------------------------------
 .byte   W96
@ 078   ----------------------------------------
 .byte   W96
@ 079   ----------------------------------------
 .byte   W96
@ 080   ----------------------------------------
 .byte   W96
@ 081   ----------------------------------------
 .byte   W96
@ 082   ----------------------------------------
 .byte   W96
@ 083   ----------------------------------------
 .byte   W96
@ 084   ----------------------------------------
 .byte   W96
@ 085   ----------------------------------------
 .byte   W96
@ 086   ----------------------------------------
 .byte   W96
@ 087   ----------------------------------------
 .byte   W96
@ 088   ----------------------------------------
 .byte   W96
@ 089   ----------------------------------------
 .byte   W96
@ 090   ----------------------------------------
 .byte   W96
@ 091   ----------------------------------------
 .byte   W96
@ 092   ----------------------------------------
 .byte   W96
@ 093   ----------------------------------------
 .byte   W96
@ 094   ----------------------------------------
 .byte   GOTO
  .word Label_11_014DD1C4
@ 095   ----------------------------------------
 .byte   PATT
  .word Label_11_014DD1E4
@ 096   ----------------------------------------
 .byte   PATT
  .word Label_11_014DD1EC
@ 097   ----------------------------------------
 .byte   PATT
  .word Label_11_014DD1F6
@ 098   ----------------------------------------
 .byte   PATT
  .word Label_11_014DD200
@ 099   ----------------------------------------
 .byte   PATT
  .word Label_11_014DD1E4
@ 100   ----------------------------------------
 .byte   PATT
  .word Label_11_014DD1EC
@ 101   ----------------------------------------
 .byte   PATT
  .word Label_11_014DD214
@ 102   ----------------------------------------
 .byte   PATT
  .word Label_11_014DD221
@ 103   ----------------------------------------
 .byte   PATT
  .word Label_11_014DD229
@ 104   ----------------------------------------
 .byte   PATT
  .word Label_11_014DD236
@ 105   ----------------------------------------
 .byte   W96
@ 106   ----------------------------------------
 .byte   W96
@ 107   ----------------------------------------
 .byte   W96
@ 108   ----------------------------------------
 .byte   W90
 .byte   FINE

@**************** Track 13 (Midi-Chn.12) ****************@

song09_013:
@ 000   ----------------------------------------
 .byte   KEYSH , song09_key+0
 .byte   VOICE , 30
 .byte   VOL , 48*song09_mvl/mxv
 .byte   PAN , c_v+40
 .byte   W96
@ 001   ----------------------------------------
 .byte   W96
@ 002   ----------------------------------------
 .byte   W96
@ 003   ----------------------------------------
 .byte   W96
@ 004   ----------------------------------------
 .byte   W96
@ 005   ----------------------------------------
 .byte   W96
@ 006   ----------------------------------------
 .byte   W96
@ 007   ----------------------------------------
 .byte   W96
@ 008   ----------------------------------------
Label_12_014DD2B8:
 .byte   W96
@ 009   ----------------------------------------
 .byte   W96
@ 010   ----------------------------------------
 .byte   W96
@ 011   ----------------------------------------
 .byte   W96
@ 012   ----------------------------------------
 .byte   W96
@ 013   ----------------------------------------
 .byte   W96
@ 014   ----------------------------------------
 .byte   W96
@ 015   ----------------------------------------
 .byte   W96
@ 016   ----------------------------------------
 .byte   W96
@ 017   ----------------------------------------
 .byte   W96
@ 018   ----------------------------------------
 .byte   W96
@ 019   ----------------------------------------
 .byte   W96
@ 020   ----------------------------------------
 .byte   W96
@ 021   ----------------------------------------
 .byte   W96
@ 022   ----------------------------------------
 .byte   W96
@ 023   ----------------------------------------
 .byte   W96
@ 024   ----------------------------------------
 .byte   W96
@ 025   ----------------------------------------
 .byte   W96
@ 026   ----------------------------------------
 .byte   W96
@ 027   ----------------------------------------
 .byte   W96
@ 028   ----------------------------------------
 .byte   W96
@ 029   ----------------------------------------
 .byte   W96
@ 030   ----------------------------------------
 .byte   W96
@ 031   ----------------------------------------
 .byte   W96
@ 032   ----------------------------------------
 .byte   W96
@ 033   ----------------------------------------
 .byte   W96
@ 034   ----------------------------------------
 .byte   W96
@ 035   ----------------------------------------
 .byte   W96
@ 036   ----------------------------------------
 .byte   W96
@ 037   ----------------------------------------
 .byte   W96
@ 038   ----------------------------------------
 .byte   W96
@ 039   ----------------------------------------
 .byte   W96
@ 040   ----------------------------------------
Label_12_014DD2D8:
 .byte   W36
 .byte   N48 ,Dn2 ,v127
 .byte   W48
 .byte   N24
 .byte   W12
 .byte   PEND 
@ 041   ----------------------------------------
Label_12_014DD2E0:
 .byte   W12
 .byte   N48 ,Dn2 ,v127
 .byte   W72
 .byte   N12 ,Cn2
 .byte   W12
 .byte   PEND 
@ 042   ----------------------------------------
Label_12_014DD2E9:
 .byte   N12 ,As1 ,v127
 .byte   W12
 .byte   N48 ,An1
 .byte   W48
 .byte   N24 ,As1
 .byte   W24
 .byte   An1
 .byte   W12
 .byte   PEND 
@ 043   ----------------------------------------
Label_12_014DD2F6:
 .byte   W12
 .byte   N24 ,As1 ,v127
 .byte   W24
 .byte   An1
 .byte   W24
 .byte   N72 ,Gn1
 .byte   W36
 .byte   PEND 
@ 044   ----------------------------------------
 .byte   PATT
  .word Label_12_014DD2D8
@ 045   ----------------------------------------
 .byte   PATT
  .word Label_12_014DD2E0
@ 046   ----------------------------------------
Label_12_014DD30B:
 .byte   N12 ,As1 ,v127
 .byte   W12
 .byte   N32 ,An1
 .byte   W36
 .byte   N12
 .byte   W12
 .byte   N24 ,As1
 .byte   W24
 .byte   N72 ,An1
 .byte   W12
 .byte   PEND 
@ 047   ----------------------------------------
Label_12_014DD31B:
 .byte   W60
 .byte   N24 ,Cn2 ,v127
 .byte   W24
 .byte   As1
 .byte   W12
 .byte   PEND 
@ 048   ----------------------------------------
Label_12_014DD323:
 .byte   W12
 .byte   N32 ,An1 ,v127
 .byte   W36
 .byte   N12
 .byte   W12
 .byte   N24 ,As1
 .byte   W24
 .byte   N48 ,Cn2
 .byte   W12
 .byte   PEND 
@ 049   ----------------------------------------
Label_12_014DD331:
 .byte   W36
 .byte   N24 ,As1 ,v127
 .byte   W24
 .byte   N48 ,Dn2
 .byte   W36
 .byte   PEND 
@ 050   ----------------------------------------
 .byte   W96
@ 051   ----------------------------------------
 .byte   W96
@ 052   ----------------------------------------
 .byte   W96
@ 053   ----------------------------------------
 .byte   W96
@ 054   ----------------------------------------
 .byte   W96
@ 055   ----------------------------------------
 .byte   W96
@ 056   ----------------------------------------
 .byte   W96
@ 057   ----------------------------------------
 .byte   W96
@ 058   ----------------------------------------
 .byte   W96
@ 059   ----------------------------------------
 .byte   W96
@ 060   ----------------------------------------
 .byte   W96
@ 061   ----------------------------------------
 .byte   W96
@ 062   ----------------------------------------
 .byte   W96
@ 063   ----------------------------------------
 .byte   W96
@ 064   ----------------------------------------
 .byte   W96
@ 065   ----------------------------------------
 .byte   W96
@ 066   ----------------------------------------
 .byte   W96
@ 067   ----------------------------------------
 .byte   W96
@ 068   ----------------------------------------
 .byte   W96
@ 069   ----------------------------------------
 .byte   W96
@ 070   ----------------------------------------
 .byte   W96
@ 071   ----------------------------------------
 .byte   W96
@ 072   ----------------------------------------
 .byte   W96
@ 073   ----------------------------------------
 .byte   W96
@ 074   ----------------------------------------
 .byte   W96
@ 075   ----------------------------------------
 .byte   W96
@ 076   ----------------------------------------
 .byte   W96
@ 077   ----------------------------------------
 .byte   W96
@ 078   ----------------------------------------
 .byte   W96
@ 079   ----------------------------------------
 .byte   W96
@ 080   ----------------------------------------
 .byte   W96
@ 081   ----------------------------------------
 .byte   W96
@ 082   ----------------------------------------
 .byte   W96
@ 083   ----------------------------------------
 .byte   W96
@ 084   ----------------------------------------
 .byte   W96
@ 085   ----------------------------------------
 .byte   W96
@ 086   ----------------------------------------
 .byte   W96
@ 087   ----------------------------------------
 .byte   W96
@ 088   ----------------------------------------
 .byte   W96
@ 089   ----------------------------------------
 .byte   W96
@ 090   ----------------------------------------
 .byte   W96
@ 091   ----------------------------------------
 .byte   W96
@ 092   ----------------------------------------
 .byte   W96
@ 093   ----------------------------------------
 .byte   W96
@ 094   ----------------------------------------
 .byte   GOTO
  .word Label_12_014DD2B8
@ 095   ----------------------------------------
 .byte   PATT
  .word Label_12_014DD2D8
@ 096   ----------------------------------------
 .byte   PATT
  .word Label_12_014DD2E0
@ 097   ----------------------------------------
 .byte   PATT
  .word Label_12_014DD2E9
@ 098   ----------------------------------------
 .byte   PATT
  .word Label_12_014DD2F6
@ 099   ----------------------------------------
 .byte   PATT
  .word Label_12_014DD2D8
@ 100   ----------------------------------------
 .byte   PATT
  .word Label_12_014DD2E0
@ 101   ----------------------------------------
 .byte   PATT
  .word Label_12_014DD30B
@ 102   ----------------------------------------
 .byte   PATT
  .word Label_12_014DD31B
@ 103   ----------------------------------------
 .byte   PATT
  .word Label_12_014DD323
@ 104   ----------------------------------------
 .byte   PATT
  .word Label_12_014DD331
@ 105   ----------------------------------------
 .byte   W96
@ 106   ----------------------------------------
 .byte   W96
@ 107   ----------------------------------------
 .byte   W96
@ 108   ----------------------------------------
 .byte   W90
 .byte   FINE

@**************** Track 14 (Midi-Chn.13) ****************@

song09_014:
@ 000   ----------------------------------------
 .byte   KEYSH , song09_key+0
 .byte   VOICE , 51
 .byte   VOL , 56*song09_mvl/mxv
 .byte   PAN , c_v+40
 .byte   W96
@ 001   ----------------------------------------
 .byte   W96
@ 002   ----------------------------------------
 .byte   W96
@ 003   ----------------------------------------
 .byte   W96
@ 004   ----------------------------------------
 .byte   W96
@ 005   ----------------------------------------
 .byte   W96
@ 006   ----------------------------------------
 .byte   W96
@ 007   ----------------------------------------
 .byte   W96
@ 008   ----------------------------------------
Label_13_014DD3B4:
 .byte   W96
@ 009   ----------------------------------------
 .byte   W96
@ 010   ----------------------------------------
 .byte   W96
@ 011   ----------------------------------------
 .byte   W96
@ 012   ----------------------------------------
 .byte   W96
@ 013   ----------------------------------------
 .byte   W96
@ 014   ----------------------------------------
 .byte   W96
@ 015   ----------------------------------------
 .byte   W96
@ 016   ----------------------------------------
Label_13_014DD3BC:
 .byte   N12 ,Ds3 ,v127
 .byte   W24
 .byte   Dn3
 .byte   W24
 .byte   As2
 .byte   W24
 .byte   Ds3
 .byte   W24
 .byte   PEND 
@ 017   ----------------------------------------
Label_13_014DD3C7:
 .byte   N12 ,Dn3 ,v127
 .byte   W24
 .byte   As2
 .byte   W24
 .byte   Ds3
 .byte   W24
 .byte   Dn3
 .byte   W24
 .byte   PEND 
@ 018   ----------------------------------------
 .byte   PATT
  .word Label_13_014DD3BC
@ 019   ----------------------------------------
Label_13_014DD3D7:
 .byte   N12 ,Dn3 ,v127
 .byte   W24
 .byte   As2
 .byte   W24
 .byte   Fn3
 .byte   W24
 .byte   Dn3
 .byte   W24
 .byte   PEND 
@ 020   ----------------------------------------
Label_13_014DD3E2:
 .byte   N12 ,Ds3 ,v127
 .byte   W24
 .byte   Dn3
 .byte   W24
 .byte   An2
 .byte   W24
 .byte   Ds3
 .byte   W24
 .byte   PEND 
@ 021   ----------------------------------------
Label_13_014DD3ED:
 .byte   N12 ,Dn3 ,v127
 .byte   W24
 .byte   An2
 .byte   W24
 .byte   Ds3
 .byte   W24
 .byte   Dn3
 .byte   W24
 .byte   PEND 
@ 022   ----------------------------------------
 .byte   PATT
  .word Label_13_014DD3E2
@ 023   ----------------------------------------
Label_13_014DD3FD:
 .byte   N12 ,Dn3 ,v127
 .byte   W24
 .byte   An2
 .byte   W24
 .byte   Fn3
 .byte   W24
 .byte   Dn3
 .byte   W24
 .byte   PEND 
@ 024   ----------------------------------------
 .byte   W96
@ 025   ----------------------------------------
 .byte   W96
@ 026   ----------------------------------------
 .byte   W96
@ 027   ----------------------------------------
 .byte   W96
@ 028   ----------------------------------------
 .byte   W96
@ 029   ----------------------------------------
 .byte   W96
@ 030   ----------------------------------------
 .byte   W96
@ 031   ----------------------------------------
 .byte   W96
@ 032   ----------------------------------------
Label_13_014DD410:
 .byte   N32 ,Dn2 ,v127
 .byte   W36
 .byte   N12
 .byte   W12
 .byte   N24 ,Fn2
 .byte   W24
 .byte   Gn2
 .byte   W24
 .byte   PEND 
@ 033   ----------------------------------------
Label_13_014DD41C:
 .byte   N48 ,An2 ,v127
 .byte   W72
 .byte   N24 ,Fn2
 .byte   W24
 .byte   PEND 
@ 034   ----------------------------------------
Label_13_014DD424:
 .byte   N24 ,Gn2 ,v127
 .byte   W36
 .byte   N12
 .byte   W12
 .byte   N24 ,Fn2
 .byte   W24
 .byte   Gn2
 .byte   W24
 .byte   PEND 
@ 035   ----------------------------------------
Label_13_014DD430:
 .byte   N24 ,An2 ,v127
 .byte   W24
 .byte   Fn2
 .byte   W24
 .byte   N48 ,Dn2
 .byte   W48
 .byte   PEND 
@ 036   ----------------------------------------
 .byte   PATT
  .word Label_13_014DD410
@ 037   ----------------------------------------
 .byte   PATT
  .word Label_13_014DD41C
@ 038   ----------------------------------------
Label_13_014DD444:
 .byte   N24 ,Gn2 ,v127
 .byte   W24
 .byte   N24
 .byte   W24
 .byte   Fn2
 .byte   W24
 .byte   En2
 .byte   W24
 .byte   PEND 
@ 039   ----------------------------------------
 .byte   N48 ,Dn2
 .byte   W96
@ 040   ----------------------------------------
 .byte   W96
@ 041   ----------------------------------------
 .byte   W96
@ 042   ----------------------------------------
 .byte   W96
@ 043   ----------------------------------------
 .byte   W96
@ 044   ----------------------------------------
 .byte   W96
@ 045   ----------------------------------------
 .byte   W96
@ 046   ----------------------------------------
 .byte   W96
@ 047   ----------------------------------------
 .byte   W96
@ 048   ----------------------------------------
 .byte   W96
@ 049   ----------------------------------------
 .byte   W96
@ 050   ----------------------------------------
 .byte   W96
@ 051   ----------------------------------------
 .byte   W96
@ 052   ----------------------------------------
 .byte   W96
@ 053   ----------------------------------------
 .byte   W96
@ 054   ----------------------------------------
 .byte   W96
@ 055   ----------------------------------------
 .byte   W96
@ 056   ----------------------------------------
 .byte   W96
@ 057   ----------------------------------------
 .byte   W96
@ 058   ----------------------------------------
 .byte   W96
@ 059   ----------------------------------------
 .byte   W96
@ 060   ----------------------------------------
 .byte   W96
@ 061   ----------------------------------------
 .byte   W96
@ 062   ----------------------------------------
 .byte   W96
@ 063   ----------------------------------------
 .byte   W96
@ 064   ----------------------------------------
 .byte   W96
@ 065   ----------------------------------------
 .byte   W96
@ 066   ----------------------------------------
 .byte   W96
@ 067   ----------------------------------------
 .byte   W96
@ 068   ----------------------------------------
 .byte   W96
@ 069   ----------------------------------------
 .byte   W96
@ 070   ----------------------------------------
 .byte   PATT
  .word Label_13_014DD3BC
@ 071   ----------------------------------------
 .byte   PATT
  .word Label_13_014DD3C7
@ 072   ----------------------------------------
 .byte   PATT
  .word Label_13_014DD3BC
@ 073   ----------------------------------------
 .byte   PATT
  .word Label_13_014DD3D7
@ 074   ----------------------------------------
 .byte   PATT
  .word Label_13_014DD3E2
@ 075   ----------------------------------------
 .byte   PATT
  .word Label_13_014DD3ED
@ 076   ----------------------------------------
 .byte   PATT
  .word Label_13_014DD3E2
@ 077   ----------------------------------------
 .byte   PATT
  .word Label_13_014DD3FD
@ 078   ----------------------------------------
 .byte   W96
@ 079   ----------------------------------------
 .byte   W96
@ 080   ----------------------------------------
 .byte   W96
@ 081   ----------------------------------------
 .byte   W96
@ 082   ----------------------------------------
 .byte   W96
@ 083   ----------------------------------------
 .byte   W96
@ 084   ----------------------------------------
 .byte   W96
@ 085   ----------------------------------------
 .byte   W96
@ 086   ----------------------------------------
 .byte   PATT
  .word Label_13_014DD410
@ 087   ----------------------------------------
 .byte   PATT
  .word Label_13_014DD41C
@ 088   ----------------------------------------
 .byte   PATT
  .word Label_13_014DD424
@ 089   ----------------------------------------
 .byte   PATT
  .word Label_13_014DD430
@ 090   ----------------------------------------
 .byte   PATT
  .word Label_13_014DD410
@ 091   ----------------------------------------
 .byte   PATT
  .word Label_13_014DD41C
@ 092   ----------------------------------------
 .byte   PATT
  .word Label_13_014DD444
@ 093   ----------------------------------------
 .byte   N48 ,Dn2 ,v127
 .byte   W96
@ 094   ----------------------------------------
 .byte   GOTO
  .word Label_13_014DD3B4
@ 095   ----------------------------------------
 .byte   W96
@ 096   ----------------------------------------
 .byte   W96
@ 097   ----------------------------------------
 .byte   W96
@ 098   ----------------------------------------
 .byte   W96
@ 099   ----------------------------------------
 .byte   W96
@ 100   ----------------------------------------
 .byte   W96
@ 101   ----------------------------------------
 .byte   W96
@ 102   ----------------------------------------
 .byte   W96
@ 103   ----------------------------------------
 .byte   W96
@ 104   ----------------------------------------
 .byte   W96
@ 105   ----------------------------------------
 .byte   W96
@ 106   ----------------------------------------
 .byte   W96
@ 107   ----------------------------------------
 .byte   W96
@ 108   ----------------------------------------
 .byte   W90
 .byte   FINE

@**************** Track 15 (Midi-Chn.14) ****************@

song09_015:
@ 000   ----------------------------------------
 .byte   KEYSH , song09_key+0
 .byte   VOICE , 51
 .byte   VOL , 24*song09_mvl/mxv
 .byte   PAN , c_v-40
 .byte   W96
@ 001   ----------------------------------------
 .byte   W96
@ 002   ----------------------------------------
 .byte   W96
@ 003   ----------------------------------------
 .byte   W96
@ 004   ----------------------------------------
 .byte   W96
@ 005   ----------------------------------------
 .byte   W96
@ 006   ----------------------------------------
 .byte   W96
@ 007   ----------------------------------------
 .byte   W96
@ 008   ----------------------------------------
Label_14_014DD4EC:
 .byte   W96
@ 009   ----------------------------------------
 .byte   W96
@ 010   ----------------------------------------
 .byte   W96
@ 011   ----------------------------------------
 .byte   W96
@ 012   ----------------------------------------
 .byte   W96
@ 013   ----------------------------------------
 .byte   W96
@ 014   ----------------------------------------
 .byte   W96
@ 015   ----------------------------------------
 .byte   W96
@ 016   ----------------------------------------
Label_14_014DD4F4:
 .byte   W12
 .byte   N12 ,Ds3 ,v127
 .byte   W24
 .byte   Dn3
 .byte   W24
 .byte   As2
 .byte   W24
 .byte   Ds3
 .byte   W12
 .byte   PEND 
@ 017   ----------------------------------------
Label_14_014DD500:
 .byte   W12
 .byte   N12 ,Dn3 ,v127
 .byte   W24
 .byte   As2
 .byte   W24
 .byte   Ds3
 .byte   W24
 .byte   Dn3
 .byte   W12
 .byte   PEND 
@ 018   ----------------------------------------
 .byte   PATT
  .word Label_14_014DD4F4
@ 019   ----------------------------------------
Label_14_014DD511:
 .byte   W12
 .byte   N12 ,Dn3 ,v127
 .byte   W24
 .byte   As2
 .byte   W24
 .byte   Fn3
 .byte   W24
 .byte   Dn3
 .byte   W12
 .byte   PEND 
@ 020   ----------------------------------------
Label_14_014DD51D:
 .byte   W12
 .byte   N12 ,Ds3 ,v127
 .byte   W24
 .byte   Dn3
 .byte   W24
 .byte   An2
 .byte   W24
 .byte   Ds3
 .byte   W12
 .byte   PEND 
@ 021   ----------------------------------------
Label_14_014DD529:
 .byte   W12
 .byte   N12 ,Dn3 ,v127
 .byte   W24
 .byte   An2
 .byte   W24
 .byte   Ds3
 .byte   W24
 .byte   Dn3
 .byte   W12
 .byte   PEND 
@ 022   ----------------------------------------
 .byte   PATT
  .word Label_14_014DD51D
@ 023   ----------------------------------------
Label_14_014DD53A:
 .byte   W12
 .byte   N12 ,Dn3 ,v127
 .byte   W24
 .byte   An2
 .byte   W24
 .byte   Fn3
 .byte   W24
 .byte   Dn3
 .byte   W12
 .byte   PEND 
@ 024   ----------------------------------------
 .byte   W96
@ 025   ----------------------------------------
 .byte   W96
@ 026   ----------------------------------------
 .byte   W96
@ 027   ----------------------------------------
 .byte   W96
@ 028   ----------------------------------------
 .byte   W96
@ 029   ----------------------------------------
 .byte   W96
@ 030   ----------------------------------------
 .byte   W96
@ 031   ----------------------------------------
 .byte   W96
@ 032   ----------------------------------------
Label_14_014DD54E:
 .byte   W12
 .byte   N32 ,Dn2 ,v127
 .byte   W36
 .byte   N12
 .byte   W12
 .byte   N24 ,Fn2
 .byte   W24
 .byte   Gn2
 .byte   W12
 .byte   PEND 
@ 033   ----------------------------------------
Label_14_014DD55B:
 .byte   W12
 .byte   N48 ,An2 ,v127
 .byte   W72
 .byte   N24 ,Fn2
 .byte   W12
 .byte   PEND 
@ 034   ----------------------------------------
Label_14_014DD564:
 .byte   W12
 .byte   N24 ,Gn2 ,v127
 .byte   W36
 .byte   N12
 .byte   W12
 .byte   N24 ,Fn2
 .byte   W24
 .byte   Gn2
 .byte   W12
 .byte   PEND 
@ 035   ----------------------------------------
Label_14_014DD571:
 .byte   W12
 .byte   N24 ,An2 ,v127
 .byte   W24
 .byte   Fn2
 .byte   W24
 .byte   N48 ,Dn2
 .byte   W36
 .byte   PEND 
@ 036   ----------------------------------------
 .byte   PATT
  .word Label_14_014DD54E
@ 037   ----------------------------------------
 .byte   PATT
  .word Label_14_014DD55B
@ 038   ----------------------------------------
Label_14_014DD586:
 .byte   W12
 .byte   N24 ,Gn2 ,v127
 .byte   W24
 .byte   N24
 .byte   W24
 .byte   Fn2
 .byte   W24
 .byte   En2
 .byte   W12
 .byte   PEND 
@ 039   ----------------------------------------
 .byte   W12
 .byte   N48 ,Dn2
 .byte   W84
@ 040   ----------------------------------------
 .byte   W96
@ 041   ----------------------------------------
 .byte   W96
@ 042   ----------------------------------------
 .byte   W96
@ 043   ----------------------------------------
 .byte   W96
@ 044   ----------------------------------------
 .byte   W96
@ 045   ----------------------------------------
 .byte   W96
@ 046   ----------------------------------------
 .byte   W96
@ 047   ----------------------------------------
 .byte   W96
@ 048   ----------------------------------------
 .byte   W96
@ 049   ----------------------------------------
 .byte   W96
@ 050   ----------------------------------------
 .byte   W96
@ 051   ----------------------------------------
 .byte   W96
@ 052   ----------------------------------------
 .byte   W96
@ 053   ----------------------------------------
 .byte   W96
@ 054   ----------------------------------------
 .byte   W96
@ 055   ----------------------------------------
 .byte   W96
@ 056   ----------------------------------------
 .byte   W96
@ 057   ----------------------------------------
 .byte   W96
@ 058   ----------------------------------------
 .byte   W96
@ 059   ----------------------------------------
 .byte   W96
@ 060   ----------------------------------------
 .byte   W96
@ 061   ----------------------------------------
 .byte   W96
@ 062   ----------------------------------------
 .byte   W96
@ 063   ----------------------------------------
 .byte   W96
@ 064   ----------------------------------------
 .byte   W96
@ 065   ----------------------------------------
 .byte   W96
@ 066   ----------------------------------------
 .byte   W96
@ 067   ----------------------------------------
 .byte   W96
@ 068   ----------------------------------------
 .byte   W96
@ 069   ----------------------------------------
 .byte   W96
@ 070   ----------------------------------------
 .byte   PATT
  .word Label_14_014DD4F4
@ 071   ----------------------------------------
 .byte   PATT
  .word Label_14_014DD500
@ 072   ----------------------------------------
 .byte   PATT
  .word Label_14_014DD4F4
@ 073   ----------------------------------------
 .byte   PATT
  .word Label_14_014DD511
@ 074   ----------------------------------------
 .byte   PATT
  .word Label_14_014DD51D
@ 075   ----------------------------------------
 .byte   PATT
  .word Label_14_014DD529
@ 076   ----------------------------------------
 .byte   PATT
  .word Label_14_014DD51D
@ 077   ----------------------------------------
 .byte   PATT
  .word Label_14_014DD53A
@ 078   ----------------------------------------
 .byte   W96
@ 079   ----------------------------------------
 .byte   W96
@ 080   ----------------------------------------
 .byte   W96
@ 081   ----------------------------------------
 .byte   W96
@ 082   ----------------------------------------
 .byte   W96
@ 083   ----------------------------------------
 .byte   W96
@ 084   ----------------------------------------
 .byte   W96
@ 085   ----------------------------------------
 .byte   W96
@ 086   ----------------------------------------
 .byte   PATT
  .word Label_14_014DD54E
@ 087   ----------------------------------------
 .byte   PATT
  .word Label_14_014DD55B
@ 088   ----------------------------------------
 .byte   PATT
  .word Label_14_014DD564
@ 089   ----------------------------------------
 .byte   PATT
  .word Label_14_014DD571
@ 090   ----------------------------------------
 .byte   PATT
  .word Label_14_014DD54E
@ 091   ----------------------------------------
 .byte   PATT
  .word Label_14_014DD55B
@ 092   ----------------------------------------
 .byte   PATT
  .word Label_14_014DD586
@ 093   ----------------------------------------
 .byte   W12
 .byte   N48 ,Dn2 ,v127
 .byte   W84
@ 094   ----------------------------------------
 .byte   GOTO
  .word Label_14_014DD4EC
@ 095   ----------------------------------------
 .byte   W96
@ 096   ----------------------------------------
 .byte   W96
@ 097   ----------------------------------------
 .byte   W96
@ 098   ----------------------------------------
 .byte   W96
@ 099   ----------------------------------------
 .byte   W96
@ 100   ----------------------------------------
 .byte   W96
@ 101   ----------------------------------------
 .byte   W96
@ 102   ----------------------------------------
 .byte   W96
@ 103   ----------------------------------------
 .byte   W96
@ 104   ----------------------------------------
 .byte   W96
@ 105   ----------------------------------------
 .byte   W96
@ 106   ----------------------------------------
 .byte   W96
@ 107   ----------------------------------------
 .byte   W96
@ 108   ----------------------------------------
 .byte   W90
 .byte   FINE

@**************** Track 16 (Midi-Chn.15) ****************@

song09_016:
@ 000   ----------------------------------------
 .byte   KEYSH , song09_key+0
 .byte   VOICE , 123
 .byte   VOL , 32*song09_mvl/mxv
 .byte   PAN , c_v+0
 .byte   N06 ,En1 ,v127
 .byte   N06 ,Gn1
 .byte   N06 ,Bn2
 .byte   W12
 .byte   En1
 .byte   N06 ,Gn1
 .byte   W12
 .byte   Bn2
 .byte   W24
 .byte   N06
 .byte   W24
 .byte   N06
 .byte   W24
@ 001   ----------------------------------------
Label_15_014DD932:
 .byte   N06 ,Bn2 ,v127
 .byte   W24
 .byte   N06
 .byte   W24
 .byte   N06
 .byte   W24
 .byte   N06
 .byte   W24
 .byte   PEND 
@ 002   ----------------------------------------
Label_15_014DD93D:
 .byte   N06 ,En1 ,v127
 .byte   N06 ,Gn1
 .byte   N06 ,Bn2
 .byte   W12
 .byte   En1
 .byte   N06 ,Gn1
 .byte   W12
 .byte   Bn2
 .byte   W24
 .byte   N06
 .byte   W24
 .byte   N06
 .byte   W24
 .byte   PEND 
@ 003   ----------------------------------------
 .byte   PATT
  .word Label_15_014DD932
@ 004   ----------------------------------------
 .byte   PATT
  .word Label_15_014DD93D
@ 005   ----------------------------------------
 .byte   PATT
  .word Label_15_014DD932
@ 006   ----------------------------------------
Label_15_014DD95F:
 .byte   N06 ,En1 ,v127
 .byte   N06 ,Gn1
 .byte   N06 ,Bn2
 .byte   W12
 .byte   En1
 .byte   N06 ,Gn1
 .byte   W12
 .byte   Bn2
 .byte   W24
 .byte   N06
 .byte   W24
 .byte   En1
 .byte   N06 ,Dn2
 .byte   N06 ,Bn2
 .byte   W12
 .byte   En1
 .byte   N06 ,Dn2
 .byte   W12
 .byte   PEND 
@ 007   ----------------------------------------
Label_15_014DD97A:
 .byte   N06 ,En1 ,v127
 .byte   N06 ,Cn2
 .byte   N06 ,Bn2
 .byte   W12
 .byte   En1
 .byte   N06 ,Cn2
 .byte   W12
 .byte   En1
 .byte   N06 ,Bn1
 .byte   N06 ,Bn2
 .byte   W12
 .byte   En1
 .byte   N06 ,Bn1
 .byte   W12
 .byte   En1
 .byte   N06 ,An1
 .byte   N06 ,Bn2
 .byte   W12
 .byte   En1
 .byte   N06 ,An1
 .byte   W12
 .byte   En1
 .byte   N06 ,Gn1
 .byte   N06 ,Bn2
 .byte   W12
 .byte   En1
 .byte   N06 ,Gn1
 .byte   W12
 .byte   PEND 
@ 008   ----------------------------------------
Label_15_014DD9A5:
 .byte   N06 ,Bn0 ,v127
 .byte   N06 ,Cn1
 .byte   W12
 .byte   Dn2 ,v052
 .byte   N06 ,Bn2 ,v127
 .byte   W12
 .byte   Cn2 ,v052
 .byte   N06 ,Bn2 ,v127
 .byte   W12
 .byte   Bn1 ,v052
 .byte   N06 ,Bn2 ,v127
 .byte   W12
 .byte   Dn1
 .byte   N06 ,Ds1
 .byte   N06 ,En1
 .byte   W24
 .byte   Cn2 ,v052
 .byte   N06 ,Bn2 ,v127
 .byte   W12
 .byte   Bn1 ,v052
 .byte   N06 ,Bn2 ,v127
 .byte   W12
 .byte   PEND 
@ 009   ----------------------------------------
Label_15_014DD9D0:
 .byte   N06 ,Bn0 ,v127
 .byte   N06 ,Cn1
 .byte   W12
 .byte   Cn2 ,v052
 .byte   N06 ,Bn2 ,v127
 .byte   W24
 .byte   Cn2 ,v052
 .byte   N06 ,Bn2 ,v127
 .byte   W12
 .byte   Dn1
 .byte   N06 ,Ds1
 .byte   N06 ,En1
 .byte   W24
 .byte   Cn2 ,v052
 .byte   N06 ,Bn2 ,v127
 .byte   W12
 .byte   Bn1 ,v052
 .byte   N06 ,Bn2 ,v127
 .byte   W12
 .byte   PEND 
@ 010   ----------------------------------------
 .byte   PATT
  .word Label_15_014DD9A5
@ 011   ----------------------------------------
 .byte   PATT
  .word Label_15_014DD9D0
@ 012   ----------------------------------------
 .byte   PATT
  .word Label_15_014DD9A5
@ 013   ----------------------------------------
 .byte   PATT
  .word Label_15_014DD9D0
@ 014   ----------------------------------------
 .byte   PATT
  .word Label_15_014DD9A5
@ 015   ----------------------------------------
 .byte   PATT
  .word Label_15_014DD9D0
@ 016   ----------------------------------------
 .byte   PATT
  .word Label_15_014DD9A5
@ 017   ----------------------------------------
 .byte   PATT
  .word Label_15_014DD9D0
@ 018   ----------------------------------------
 .byte   PATT
  .word Label_15_014DD9A5
@ 019   ----------------------------------------
 .byte   PATT
  .word Label_15_014DD9D0
@ 020   ----------------------------------------
 .byte   PATT
  .word Label_15_014DD9A5
@ 021   ----------------------------------------
 .byte   PATT
  .word Label_15_014DD9D0
@ 022   ----------------------------------------
 .byte   PATT
  .word Label_15_014DD9A5
@ 023   ----------------------------------------
 .byte   PATT
  .word Label_15_014DD9D0
@ 024   ----------------------------------------
Label_15_014DDA3B:
 .byte   N06 ,Bn0 ,v127
 .byte   N06 ,Cn1
 .byte   W12
 .byte   Bn0
 .byte   N06 ,Cn1
 .byte   W12
 .byte   Bn0 ,v080
 .byte   N06 ,Cn1
 .byte   W09
 .byte   N03 ,Bn0
 .byte   N03 ,Cn1
 .byte   W03
 .byte   Bn0 ,v127
 .byte   N03 ,Cn1
 .byte   W12
 .byte   N06 ,Dn1
 .byte   N06 ,Ds1
 .byte   N06 ,En1
 .byte   W12
 .byte   Bn0 ,v052
 .byte   N06 ,Cn1
 .byte   W12
 .byte   Dn1 ,v028
 .byte   N06 ,Ds1
 .byte   N06 ,En1
 .byte   W24
 .byte   PEND 
@ 025   ----------------------------------------
Label_15_014DDA68:
 .byte   W24
 .byte   N06 ,Bn0 ,v127
 .byte   N06 ,Cn1
 .byte   W12
 .byte   Bn0
 .byte   N06 ,Cn1
 .byte   W12
 .byte   Dn1
 .byte   N06 ,Ds1
 .byte   N06 ,En1
 .byte   W12
 .byte   Bn0 ,v052
 .byte   N06 ,Cn1
 .byte   W12
 .byte   Dn1 ,v028
 .byte   N06 ,Ds1
 .byte   N06 ,En1
 .byte   W24
 .byte   PEND 
@ 026   ----------------------------------------
 .byte   PATT
  .word Label_15_014DDA3B
@ 027   ----------------------------------------
 .byte   PATT
  .word Label_15_014DDA68
@ 028   ----------------------------------------
 .byte   PATT
  .word Label_15_014DDA3B
@ 029   ----------------------------------------
 .byte   PATT
  .word Label_15_014DDA68
@ 030   ----------------------------------------
Label_15_014DDA9A:
 .byte   N06 ,Bn0 ,v127
 .byte   N06 ,Cn1
 .byte   W12
 .byte   Bn0
 .byte   N06 ,Cn1
 .byte   W12
 .byte   Bn0 ,v080
 .byte   N06 ,Cn1
 .byte   W09
 .byte   N03 ,Bn0
 .byte   N03 ,Cn1
 .byte   W03
 .byte   Bn0 ,v127
 .byte   N03 ,Cn1
 .byte   W12
 .byte   N06 ,Dn1
 .byte   N06 ,Ds1
 .byte   N06 ,En1
 .byte   W12
 .byte   Bn0 ,v052
 .byte   N06 ,Cn1
 .byte   W12
 .byte   Dn1
 .byte   N06 ,Ds1 ,v028
 .byte   N06 ,En1
 .byte   W24
 .byte   PEND 
@ 031   ----------------------------------------
 .byte   W96
@ 032   ----------------------------------------
 .byte   W96
@ 033   ----------------------------------------
 .byte   W96
@ 034   ----------------------------------------
 .byte   W96
@ 035   ----------------------------------------
 .byte   W96
@ 036   ----------------------------------------
 .byte   W96
@ 037   ----------------------------------------
 .byte   W96
@ 038   ----------------------------------------
Label_15_014DDACE:
 .byte   W72
 .byte   N06 ,En1 ,v127
 .byte   N06 ,Dn2
 .byte   W12
 .byte   En1
 .byte   N06 ,Dn2
 .byte   W12
 .byte   PEND 
@ 039   ----------------------------------------
Label_15_014DDADA:
 .byte   N06 ,En1 ,v127
 .byte   N06 ,Cn2
 .byte   W12
 .byte   En1
 .byte   N06 ,Cn2
 .byte   W12
 .byte   En1
 .byte   N06 ,Bn1
 .byte   W12
 .byte   En1
 .byte   N06 ,Bn1
 .byte   W12
 .byte   En1
 .byte   N06 ,An1
 .byte   W12
 .byte   En1
 .byte   N06 ,An1
 .byte   W12
 .byte   En1
 .byte   N06 ,Gn1
 .byte   W12
 .byte   En1
 .byte   N06 ,Gn1
 .byte   W12
 .byte   PEND 
@ 040   ----------------------------------------
Label_15_014DDAFD:
 .byte   N06 ,Bn0 ,v127
 .byte   N06 ,Cn1
 .byte   W24
 .byte   Bn0
 .byte   N06 ,Cn1
 .byte   W24
 .byte   Dn1
 .byte   N06 ,Ds1
 .byte   N06 ,En1
 .byte   W18
 .byte   Dn1 ,v028
 .byte   N06 ,Ds1
 .byte   N06 ,En1
 .byte   W06
 .byte   Bn0 ,v127
 .byte   N06 ,Cn1
 .byte   W24
 .byte   PEND 
@ 041   ----------------------------------------
Label_15_014DDB1A:
 .byte   N06 ,Bn0 ,v127
 .byte   N06 ,Cn1
 .byte   W12
 .byte   Dn2 ,v104
 .byte   W12
 .byte   Cn2
 .byte   W12
 .byte   Bn1 ,v080
 .byte   W12
 .byte   Dn1 ,v127
 .byte   N06 ,Ds1
 .byte   N06 ,En1
 .byte   W24
 .byte   Dn1
 .byte   N06 ,Ds1
 .byte   N06 ,En1
 .byte   N06 ,Cn2 ,v052
 .byte   W12
 .byte   Bn1
 .byte   W12
 .byte   PEND 
@ 042   ----------------------------------------
 .byte   PATT
  .word Label_15_014DDAFD
@ 043   ----------------------------------------
Label_15_014DDB40:
 .byte   N06 ,Bn0 ,v127
 .byte   N06 ,Cn1
 .byte   W12
 .byte   Dn2 ,v104
 .byte   W12
 .byte   Cn2
 .byte   W12
 .byte   Bn1
 .byte   W12
 .byte   Dn1 ,v127
 .byte   N06 ,Ds1
 .byte   N06 ,En1
 .byte   W24
 .byte   Dn1
 .byte   N06 ,Ds1
 .byte   N06 ,En1
 .byte   N06 ,Cn2 ,v104
 .byte   W12
 .byte   Bn1
 .byte   W12
 .byte   PEND 
@ 044   ----------------------------------------
 .byte   PATT
  .word Label_15_014DDAFD
@ 045   ----------------------------------------
 .byte   PATT
  .word Label_15_014DDB40
@ 046   ----------------------------------------
 .byte   PATT
  .word Label_15_014DDAFD
@ 047   ----------------------------------------
Label_15_014DDB6F:
 .byte   N06 ,Bn0 ,v127
 .byte   N06 ,Cn1
 .byte   W12
 .byte   Dn2 ,v104
 .byte   W12
 .byte   Cn2
 .byte   W12
 .byte   Bn1
 .byte   W12
 .byte   Dn1 ,v127
 .byte   N06 ,Ds1
 .byte   N06 ,En1
 .byte   W24
 .byte   Dn1
 .byte   N06 ,Ds1
 .byte   N06 ,En1
 .byte   N06 ,Cn2 ,v052
 .byte   W12
 .byte   Bn1
 .byte   W12
 .byte   PEND 
@ 048   ----------------------------------------
 .byte   PATT
  .word Label_15_014DDAFD
@ 049   ----------------------------------------
 .byte   PATT
  .word Label_15_014DDB40
@ 050   ----------------------------------------
 .byte   PATT
  .word Label_15_014DDAFD
@ 051   ----------------------------------------
 .byte   PATT
  .word Label_15_014DDB6F
@ 052   ----------------------------------------
 .byte   PATT
  .word Label_15_014DDAFD
@ 053   ----------------------------------------
 .byte   PATT
  .word Label_15_014DDB40
@ 054   ----------------------------------------
 .byte   PATT
  .word Label_15_014DD93D
@ 055   ----------------------------------------
 .byte   PATT
  .word Label_15_014DD932
@ 056   ----------------------------------------
 .byte   PATT
  .word Label_15_014DD93D
@ 057   ----------------------------------------
 .byte   PATT
  .word Label_15_014DD932
@ 058   ----------------------------------------
 .byte   PATT
  .word Label_15_014DD93D
@ 059   ----------------------------------------
 .byte   PATT
  .word Label_15_014DD932
@ 060   ----------------------------------------
 .byte   PATT
  .word Label_15_014DD95F
@ 061   ----------------------------------------
 .byte   PATT
  .word Label_15_014DD97A
@ 062   ----------------------------------------
 .byte   PATT
  .word Label_15_014DD9A5
@ 063   ----------------------------------------
 .byte   PATT
  .word Label_15_014DD9D0
@ 064   ----------------------------------------
 .byte   PATT
  .word Label_15_014DD9A5
@ 065   ----------------------------------------
 .byte   PATT
  .word Label_15_014DD9D0
@ 066   ----------------------------------------
 .byte   PATT
  .word Label_15_014DD9A5
@ 067   ----------------------------------------
 .byte   PATT
  .word Label_15_014DD9D0
@ 068   ----------------------------------------
 .byte   PATT
  .word Label_15_014DD9A5
@ 069   ----------------------------------------
 .byte   PATT
  .word Label_15_014DD9D0
@ 070   ----------------------------------------
 .byte   PATT
  .word Label_15_014DD9A5
@ 071   ----------------------------------------
 .byte   PATT
  .word Label_15_014DD9D0
@ 072   ----------------------------------------
 .byte   PATT
  .word Label_15_014DD9A5
@ 073   ----------------------------------------
 .byte   PATT
  .word Label_15_014DD9D0
@ 074   ----------------------------------------
 .byte   PATT
  .word Label_15_014DD9A5
@ 075   ----------------------------------------
 .byte   PATT
  .word Label_15_014DD9D0
@ 076   ----------------------------------------
 .byte   PATT
  .word Label_15_014DD9A5
@ 077   ----------------------------------------
 .byte   PATT
  .word Label_15_014DD9D0
@ 078   ----------------------------------------
 .byte   PATT
  .word Label_15_014DDA3B
@ 079   ----------------------------------------
 .byte   PATT
  .word Label_15_014DDA68
@ 080   ----------------------------------------
 .byte   PATT
  .word Label_15_014DDA3B
@ 081   ----------------------------------------
 .byte   PATT
  .word Label_15_014DDA68
@ 082   ----------------------------------------
 .byte   PATT
  .word Label_15_014DDA3B
@ 083   ----------------------------------------
 .byte   PATT
  .word Label_15_014DDA68
@ 084   ----------------------------------------
 .byte   PATT
  .word Label_15_014DDA9A
@ 085   ----------------------------------------
 .byte   W96
@ 086   ----------------------------------------
 .byte   W96
@ 087   ----------------------------------------
 .byte   W96
@ 088   ----------------------------------------
 .byte   W96
@ 089   ----------------------------------------
 .byte   W96
@ 090   ----------------------------------------
 .byte   W96
@ 091   ----------------------------------------
 .byte   W96
@ 092   ----------------------------------------
 .byte   PATT
  .word Label_15_014DDACE
@ 093   ----------------------------------------
 .byte   PATT
  .word Label_15_014DDADA
@ 094   ----------------------------------------
 .byte   GOTO
  .word Label_15_014DD9A5
@ 095   ----------------------------------------
 .byte   PATT
  .word Label_15_014DDAFD
@ 096   ----------------------------------------
 .byte   PATT
  .word Label_15_014DDB1A
@ 097   ----------------------------------------
 .byte   PATT
  .word Label_15_014DDAFD
@ 098   ----------------------------------------
 .byte   PATT
  .word Label_15_014DDB40
@ 099   ----------------------------------------
 .byte   PATT
  .word Label_15_014DDAFD
@ 100   ----------------------------------------
 .byte   PATT
  .word Label_15_014DDB40
@ 101   ----------------------------------------
 .byte   PATT
  .word Label_15_014DDAFD
@ 102   ----------------------------------------
 .byte   PATT
  .word Label_15_014DDB6F
@ 103   ----------------------------------------
 .byte   PATT
  .word Label_15_014DDAFD
@ 104   ----------------------------------------
 .byte   PATT
  .word Label_15_014DDB40
@ 105   ----------------------------------------
 .byte   PATT
  .word Label_15_014DDAFD
@ 106   ----------------------------------------
 .byte   PATT
  .word Label_15_014DDB6F
@ 107   ----------------------------------------
 .byte   PATT
  .word Label_15_014DDAFD
@ 108   ----------------------------------------
 .byte   N06 ,Bn0 ,v127
 .byte   N06 ,Cn1
 .byte   W12
 .byte   Dn2 ,v104
 .byte   W12
 .byte   Cn2
 .byte   W12
 .byte   Bn1
 .byte   W12
 .byte   Dn1 ,v127
 .byte   N06 ,Ds1
 .byte   N06 ,En1
 .byte   W24
 .byte   Dn1
 .byte   N06 ,Ds1
 .byte   N06 ,En1
 .byte   N06 ,Cn2 ,v104
 .byte   W12
 .byte   Bn1
 .byte   W06
 .byte   FINE

@******************************************************@
	.align	2

song09:
	.byte	16	@ NumTrks
	.byte	0	@ NumBlks
	.byte	song09_pri	@ Priority
	.byte	song09_rev	@ Reverb.
    
	.word	song09_grp
    
	.word	song09_001
	.word	song09_002
	.word	song09_003
	.word	song09_004
	.word	song09_005
	.word	song09_006
	.word	song09_007
	.word	song09_008
	.word	song09_009
	.word	song09_010
	.word	song09_011
	.word	song09_012
	.word	song09_013
	.word	song09_014
	.word	song09_015
	.word	song09_016

	.end
