	.include "MPlayDef.s"

	.equ	song37_grp, voicegroup000
	.equ	song37_pri, 10
	.equ	song37_rev, 0
	.equ	song37_mvl, 127
	.equ	song37_key, 0
	.equ	song37_tbs, 1
	.equ	song37_exg, 0
	.equ	song37_cmp, 1

	.section .rodata
	.global	song37
	.align	2


@**************** Track 1 (Midi-Chn.0) ****************@

song37_001:
@ 000   ----------------------------------------
Label_0_01152D78:
 .byte   TEMPO , 94*song37_tbs/2
 .byte   KEYSH , song37_key+0
 .byte   VOICE , 24
 .byte   VOL , 19*song37_mvl/mxv
 .byte   PAN , c_v+58
 .byte   PAN , c_v-49
 .byte   N01 ,Gn5 ,v076
 .byte   W06
 .byte   PAN , c_v-58
 .byte   N01 ,Gn5 ,v051
 .byte   W06
 .byte   PAN , c_v+49
 .byte   N01 ,Gn5 ,v126
 .byte   W06
 .byte   PAN , c_v+25
 .byte   N01 ,Gn5 ,v126
 .byte   W06
 .byte   PAN , c_v+58
 .byte   N01 ,Gn5 ,v076
 .byte   W06
 .byte   PAN , c_v-58
 .byte   N01 ,Gn5 ,v051
 .byte   W06
 .byte   PAN , c_v+49
 .byte   N01 ,Gn5 ,v126
 .byte   W06
 .byte   PAN , c_v+25
 .byte   N01 ,Gn5 ,v126
 .byte   W06
Label_0_01152DB2:
 .byte   PAN , c_v+58
 .byte   N01 ,Gn5 ,v076
 .byte   W06
 .byte   PAN , c_v-58
 .byte   N01 ,Gn5 ,v051
 .byte   W06
 .byte   PAN , c_v+49
 .byte   N01 ,Gn5 ,v126
 .byte   W06
 .byte   PAN , c_v+25
 .byte   N01 ,Gn5 ,v126
 .byte   W06
 .byte   PAN , c_v+58
 .byte   N01 ,Gn5 ,v076
 .byte   W06
 .byte   PAN , c_v-58
 .byte   N01 ,Gn5 ,v051
 .byte   W06
 .byte   PAN , c_v+49
 .byte   N01 ,Gn5 ,v126
 .byte   W06
 .byte   PAN , c_v+25
 .byte   N01 ,Gn5 ,v126
 .byte   W06
 .byte   PEND 
 .byte   PATT
  .word Label_0_01152DB2
 .byte   PATT
  .word Label_0_01152DB2
 .byte   PATT
  .word Label_0_01152DB2
 .byte   PATT
  .word Label_0_01152DB2
 .byte   PATT
  .word Label_0_01152DB2
@ 001   ----------------------------------------
 .byte   PAN , c_v+58
 .byte   N01 ,Gn5 ,v076
 .byte   W06
 .byte   PAN , c_v-58
 .byte   N01 ,Gn5 ,v051
 .byte   W06
 .byte   PAN , c_v+49
 .byte   N01 ,Gn5 ,v126
 .byte   W06
 .byte   PAN , c_v+25
 .byte   N01 ,Gn5 ,v126
 .byte   W06
 .byte   PAN , c_v+58
 .byte   N01 ,Gn5 ,v076
 .byte   W06
 .byte   PAN , c_v-58
 .byte   N01 ,Gn5 ,v051
 .byte   W06
 .byte   PAN , c_v+49
 .byte   N01 ,Gn5 ,v126
 .byte   W06
 .byte   PAN , c_v+25
 .byte   N01 ,Gn5 ,v126
 .byte   W06
 .byte   PATT
  .word Label_0_01152DB2
 .byte   PATT
  .word Label_0_01152DB2
 .byte   PATT
  .word Label_0_01152DB2
 .byte   PATT
  .word Label_0_01152DB2
 .byte   PATT
  .word Label_0_01152DB2
 .byte   PATT
  .word Label_0_01152DB2
 .byte   PATT
  .word Label_0_01152DB2
@ 002   ----------------------------------------
 .byte   PAN , c_v+58
 .byte   N01 ,Gn5 ,v076
 .byte   W06
 .byte   PAN , c_v-58
 .byte   N01 ,Gn5 ,v051
 .byte   W06
 .byte   PAN , c_v+49
 .byte   N01 ,Gn5 ,v126
 .byte   W06
 .byte   PAN , c_v+25
 .byte   N01 ,Gn5 ,v126
 .byte   W06
 .byte   PAN , c_v+58
 .byte   N01 ,Gn5 ,v076
 .byte   W06
 .byte   PAN , c_v-58
 .byte   N01 ,Gn5 ,v051
 .byte   W06
 .byte   PAN , c_v+49
 .byte   N01 ,Gn5 ,v126
 .byte   W04
 .byte   W01
 .byte   PAN , c_v+25
 .byte   N01 ,Gn5 ,v126
 .byte   W01
 .byte   W01
 .byte   W02
 .byte   GOTO
  .word Label_0_01152D78
 .byte   FINE

@**************** Track 2 (Midi-Chn.1) ****************@

song37_002:
@ 000   ----------------------------------------
Label_1_01152E88:
 .byte   TEMPO , 94*song37_tbs/2
 .byte   KEYSH , song37_key+0
 .byte   VOICE , 31
 .byte   VOL , 53*song37_mvl/mxv
 .byte   PAN , c_v-25
 .byte   PAN , c_v+0
 .byte   N05 ,Gn3 ,v114
 .byte   W18
 .byte   Gn3
 .byte   W42
 .byte   Gn3
 .byte   W12
 .byte   Gn3
 .byte   W06
 .byte   Gn3
 .byte   W18
@ 001   ----------------------------------------
 .byte   Gn3
 .byte   W18
 .byte   Gn3
 .byte   W30
 .byte   Gn3
 .byte   W18
 .byte   Gn3
 .byte   W06
 .byte   VOICE , 28
 .byte   VOL , 116*song37_mvl/mxv
 .byte   PAN , c_v+49
 .byte   N04 ,Gn1 ,v126
 .byte   W06
 .byte   Gn1
 .byte   W06
 .byte   Gn1
 .byte   W12
@ 002   ----------------------------------------
 .byte   VOICE , 31
 .byte   VOL , 53*song37_mvl/mxv
 .byte   PAN , c_v-25
 .byte   N05 ,Gn3 ,v114
 .byte   W18
 .byte   Gn3
 .byte   W42
 .byte   Gn3
 .byte   W12
 .byte   Gn3
 .byte   W06
 .byte   Gn3
 .byte   W18
@ 003   ----------------------------------------
 .byte   Gn3
 .byte   W18
 .byte   Gn3
 .byte   W30
 .byte   Gn3
 .byte   W18
 .byte   Gn3
 .byte   W06
 .byte   VOICE , 28
 .byte   VOL , 116*song37_mvl/mxv
 .byte   PAN , c_v+49
 .byte   N04 ,Gn1 ,v126
 .byte   W06
 .byte   Gn1
 .byte   W06
 .byte   Gn1
 .byte   W12
@ 004   ----------------------------------------
 .byte   VOICE , 0
 .byte   VOL , 59*song37_mvl/mxv
 .byte   PAN , c_v+0
 .byte   N21 ,Dn1 ,v114
 .byte   W24
 .byte   N05 ,Dn2
 .byte   W12
 .byte   Dn1
 .byte   W36
 .byte   N04
 .byte   W06
 .byte   Dn1
 .byte   W06
 .byte   Cn1
 .byte   W06
 .byte   Dn1
 .byte   W06
@ 005   ----------------------------------------
 .byte   N21
 .byte   W24
 .byte   N05 ,Dn2
 .byte   W12
 .byte   Dn1
 .byte   W24
 .byte   N07 ,En2
 .byte   W12
 .byte   N21 ,Dn2
 .byte   W24
@ 006   ----------------------------------------
 .byte   Dn1
 .byte   W24
 .byte   N05 ,Dn2
 .byte   W12
 .byte   Dn1
 .byte   W36
 .byte   N04
 .byte   W06
 .byte   Dn1
 .byte   W06
 .byte   Cn1
 .byte   W06
 .byte   Dn1
 .byte   W06
@ 007   ----------------------------------------
 .byte   N21
 .byte   W24
 .byte   N05 ,Dn2
 .byte   W12
 .byte   Dn1
 .byte   W24
 .byte   N07 ,En2
 .byte   W12
 .byte   N21 ,Dn2
 .byte   W16
 .byte   W02
 .byte   W01
 .byte   W02
 .byte   GOTO
  .word Label_1_01152E88
 .byte   FINE

@**************** Track 3 (Midi-Chn.2) ****************@

song37_003:
@ 000   ----------------------------------------
Label_2_01152F28:
 .byte   TEMPO , 94*song37_tbs/2
 .byte   KEYSH , song37_key+0
 .byte   VOICE , 75
 .byte   VOL , 40*song37_mvl/mxv
 .byte   PAN , c_v+0
 .byte   W12
 .byte   N32 ,Gn1 ,v114
 .byte   W36
 .byte   N14
 .byte   W18
 .byte   Gn1
 .byte   W18
 .byte   N09
 .byte   W24
@ 001   ----------------------------------------
 .byte   N14
 .byte   W48
 .byte   N09
 .byte   W12
 .byte   N19
 .byte   W36
@ 002   ----------------------------------------
 .byte   N21
 .byte   W36
 .byte   N14
 .byte   W18
 .byte   Gn1
 .byte   W18
 .byte   N09
 .byte   W24
@ 003   ----------------------------------------
 .byte   N14
 .byte   W48
 .byte   N09
 .byte   W12
 .byte   N19
 .byte   W24
 .byte   VOICE , 75
 .byte   VOL , 53*song37_mvl/mxv
 .byte   PAN , c_v+0
 .byte   W12
@ 004   ----------------------------------------
 .byte   N32 ,Gn1 ,v114
 .byte   W36
 .byte   N14
 .byte   W18
 .byte   Gn1
 .byte   W18
 .byte   N09
 .byte   W24
@ 005   ----------------------------------------
 .byte   N14
 .byte   W48
 .byte   N09
 .byte   W12
 .byte   N19
 .byte   W36
@ 006   ----------------------------------------
 .byte   N21
 .byte   W36
 .byte   N14
 .byte   W18
 .byte   Gn1
 .byte   W18
 .byte   N09
 .byte   W24
@ 007   ----------------------------------------
 .byte   N14
 .byte   W48
 .byte   N09
 .byte   W12
 .byte   N19
 .byte   W16
 .byte   W02
 .byte   W01
 .byte   W02
 .byte   GOTO
  .word Label_2_01152F28
 .byte   FINE

@**************** Track 4 (Midi-Chn.3) ****************@

song37_004:
@ 000   ----------------------------------------
Label_3_01152F80:
 .byte   TEMPO , 94*song37_tbs/2
 .byte   KEYSH , song37_key+0
 .byte   VOICE , 32
 .byte   VOL , 31*song37_mvl/mxv
 .byte   PAN , c_v+60
 .byte   PAN , c_v+61
 .byte   W01
 .byte   PAN , c_v+59
 .byte   PAN , c_v+58
 .byte   PAN , c_v+57
 .byte   W01
 .byte   PAN , c_v+56
 .byte   PAN , c_v+55
 .byte   PAN , c_v+54
 .byte   W01
 .byte   PAN , c_v+53
 .byte   PAN , c_v+52
 .byte   PAN , c_v+51
 .byte   W01
 .byte   PAN , c_v+50
 .byte   PAN , c_v+49
 .byte   W01
 .byte   PAN , c_v+48
 .byte   PAN , c_v+47
 .byte   PAN , c_v+46
 .byte   W01
 .byte   PAN , c_v+45
 .byte   PAN , c_v+44
 .byte   PAN , c_v+43
 .byte   W01
 .byte   PAN , c_v+42
 .byte   PAN , c_v+41
 .byte   PAN , c_v+40
 .byte   W01
 .byte   PAN , c_v+39
 .byte   PAN , c_v+38
 .byte   W01
 .byte   PAN , c_v+37
 .byte   PAN , c_v+36
 .byte   PAN , c_v+35
 .byte   W01
 .byte   PAN , c_v+34
 .byte   PAN , c_v+33
 .byte   PAN , c_v+32
 .byte   W01
 .byte   PAN , c_v+31
 .byte   PAN , c_v+30
 .byte   PAN , c_v+29
 .byte   W01
 .byte   PAN , c_v+28
 .byte   PAN , c_v+27
 .byte   W01
 .byte   PAN , c_v+26
 .byte   PAN , c_v+25
 .byte   N10 ,Fn1 ,v114
 .byte   PAN , c_v+24
 .byte   W01
 .byte   PAN , c_v+23
 .byte   PAN , c_v+22
 .byte   PAN , c_v+21
 .byte   W01
 .byte   PAN , c_v+20
 .byte   PAN , c_v+19
 .byte   PAN , c_v+18
 .byte   W01
 .byte   PAN , c_v+17
 .byte   PAN , c_v+16
 .byte   W01
 .byte   PAN , c_v+15
 .byte   PAN , c_v+14
 .byte   PAN , c_v+13
 .byte   W01
 .byte   PAN , c_v+12
 .byte   PAN , c_v+11
 .byte   PAN , c_v+10
 .byte   W01
 .byte   PAN , c_v+9
 .byte   PAN , c_v+8
 .byte   PAN , c_v+7
 .byte   N05 ,Bn1 ,v114
 .byte   W01
 .byte   PAN , c_v+6
 .byte   PAN , c_v+5
 .byte   W01
 .byte   PAN , c_v+4
 .byte   PAN , c_v+3
 .byte   PAN , c_v+2
 .byte   W01
 .byte   PAN , c_v+1
 .byte   PAN , c_v+0
 .byte   PAN , c_v-1
 .byte   N05 ,Gs1 ,v114
 .byte   PAN , c_v-2
 .byte   PAN , c_v-3
 .byte   PAN , c_v-4
 .byte   W01
 .byte   PAN , c_v-5
 .byte   PAN , c_v-6
 .byte   W01
 .byte   PAN , c_v-7
 .byte   PAN , c_v-8
 .byte   PAN , c_v-9
 .byte   W01
Label_3_01153038:
 .byte   PAN , c_v-10
 .byte   N21 ,Gs1 ,v114
 .byte   PAN , c_v-11
 .byte   PAN , c_v-12
 .byte   W01
 .byte   PAN , c_v-13
 .byte   PAN , c_v-14
 .byte   PAN , c_v-15
 .byte   W01
 .byte   PAN , c_v-16
 .byte   PAN , c_v-17
 .byte   W01
 .byte   PAN , c_v-18
 .byte   PAN , c_v-19
 .byte   PAN , c_v-20
 .byte   W01
 .byte   PAN , c_v-21
 .byte   PAN , c_v-22
 .byte   PAN , c_v-23
 .byte   W01
 .byte   PAN , c_v-24
 .byte   PAN , c_v-25
 .byte   PAN , c_v-26
 .byte   W01
 .byte   PAN , c_v-27
 .byte   PAN , c_v-28
 .byte   W01
 .byte   PAN , c_v-29
 .byte   PAN , c_v-30
 .byte   PAN , c_v-31
 .byte   W01
 .byte   PAN , c_v-32
 .byte   PAN , c_v-33
 .byte   PAN , c_v-34
 .byte   W01
 .byte   PAN , c_v-35
 .byte   PAN , c_v-36
 .byte   PAN , c_v-37
 .byte   W01
 .byte   PAN , c_v-38
 .byte   PAN , c_v-39
 .byte   W01
 .byte   PAN , c_v-40
 .byte   PAN , c_v-41
 .byte   PAN , c_v-42
 .byte   W01
 .byte   PAN , c_v-43
 .byte   PAN , c_v-44
 .byte   PAN , c_v-45
 .byte   N21 ,Gs1 ,v051
 .byte   PAN , c_v-46
 .byte   PAN , c_v-47
 .byte   PAN , c_v-48
 .byte   W01
 .byte   PAN , c_v-49
 .byte   W21
 .byte   PEND 
Label_3_0115309D:
 .byte   PAN , c_v+60
 .byte   PAN , c_v+61
 .byte   W01
 .byte   PAN , c_v+59
 .byte   PAN , c_v+58
 .byte   PAN , c_v+57
 .byte   W01
 .byte   PAN , c_v+56
 .byte   PAN , c_v+55
 .byte   PAN , c_v+54
 .byte   W01
 .byte   PAN , c_v+53
 .byte   PAN , c_v+52
 .byte   PAN , c_v+51
 .byte   W01
 .byte   PAN , c_v+50
 .byte   PAN , c_v+49
 .byte   W01
 .byte   PAN , c_v+48
 .byte   PAN , c_v+47
 .byte   PAN , c_v+46
 .byte   W01
 .byte   PAN , c_v+45
 .byte   PAN , c_v+44
 .byte   PAN , c_v+43
 .byte   W01
 .byte   PAN , c_v+42
 .byte   PAN , c_v+41
 .byte   PAN , c_v+40
 .byte   W01
 .byte   PAN , c_v+39
 .byte   PAN , c_v+38
 .byte   W01
 .byte   PAN , c_v+37
 .byte   PAN , c_v+36
 .byte   PAN , c_v+35
 .byte   W01
 .byte   PAN , c_v+34
 .byte   PAN , c_v+33
 .byte   PAN , c_v+32
 .byte   W01
 .byte   PAN , c_v+31
 .byte   PAN , c_v+30
 .byte   PAN , c_v+29
 .byte   W01
 .byte   PAN , c_v+28
 .byte   PAN , c_v+27
 .byte   W01
 .byte   PAN , c_v+26
 .byte   PAN , c_v+25
 .byte   N10 ,Fn1 ,v114
 .byte   PAN , c_v+24
 .byte   W01
 .byte   PAN , c_v+23
 .byte   PAN , c_v+22
 .byte   PAN , c_v+21
 .byte   W01
 .byte   PAN , c_v+20
 .byte   PAN , c_v+19
 .byte   PAN , c_v+18
 .byte   W01
 .byte   PAN , c_v+17
 .byte   PAN , c_v+16
 .byte   W01
 .byte   PAN , c_v+15
 .byte   PAN , c_v+14
 .byte   PAN , c_v+13
 .byte   W01
 .byte   PAN , c_v+12
 .byte   PAN , c_v+11
 .byte   PAN , c_v+10
 .byte   W01
 .byte   PAN , c_v+9
 .byte   PAN , c_v+8
 .byte   PAN , c_v+7
 .byte   N05 ,Bn1 ,v114
 .byte   W01
 .byte   PAN , c_v+6
 .byte   PAN , c_v+5
 .byte   W01
 .byte   PAN , c_v+4
 .byte   PAN , c_v+3
 .byte   PAN , c_v+2
 .byte   W01
 .byte   PAN , c_v+1
 .byte   PAN , c_v+0
 .byte   PAN , c_v-1
 .byte   N05 ,Gs1 ,v114
 .byte   PAN , c_v-2
 .byte   PAN , c_v-3
 .byte   PAN , c_v-4
 .byte   W01
 .byte   PAN , c_v-5
 .byte   PAN , c_v-6
 .byte   W01
 .byte   PAN , c_v-7
 .byte   PAN , c_v-8
 .byte   PAN , c_v-9
 .byte   W01
 .byte   PEND 
 .byte   PATT
  .word Label_3_01153038
 .byte   PATT
  .word Label_3_0115309D
 .byte   PATT
  .word Label_3_01153038
 .byte   PATT
  .word Label_3_0115309D
@ 001   ----------------------------------------
 .byte   PAN , c_v-10
 .byte   N21 ,Gs1 ,v114
 .byte   PAN , c_v-11
 .byte   PAN , c_v-12
 .byte   W01
 .byte   PAN , c_v-13
 .byte   PAN , c_v-14
 .byte   PAN , c_v-15
 .byte   W01
 .byte   PAN , c_v-16
 .byte   PAN , c_v-17
 .byte   W01
 .byte   PAN , c_v-18
 .byte   PAN , c_v-19
 .byte   PAN , c_v-20
 .byte   W01
 .byte   PAN , c_v-21
 .byte   PAN , c_v-22
 .byte   PAN , c_v-23
 .byte   W01
 .byte   PAN , c_v-24
 .byte   PAN , c_v-25
 .byte   PAN , c_v-26
 .byte   W01
 .byte   PAN , c_v-27
 .byte   PAN , c_v-28
 .byte   W01
 .byte   PAN , c_v-29
 .byte   PAN , c_v-30
 .byte   PAN , c_v-31
 .byte   W01
 .byte   PAN , c_v-32
 .byte   PAN , c_v-33
 .byte   PAN , c_v-34
 .byte   W01
 .byte   PAN , c_v-35
 .byte   PAN , c_v-36
 .byte   PAN , c_v-37
 .byte   W01
 .byte   PAN , c_v-38
 .byte   PAN , c_v-39
 .byte   W01
 .byte   PAN , c_v-40
 .byte   PAN , c_v-41
 .byte   PAN , c_v-42
 .byte   W01
 .byte   PAN , c_v-43
 .byte   PAN , c_v-44
 .byte   PAN , c_v-45
 .byte   N21 ,Gs1 ,v051
 .byte   PAN , c_v-46
 .byte   PAN , c_v-47
 .byte   PAN , c_v-48
 .byte   W01
 .byte   PAN , c_v-49
 .byte   W22
 .byte   VOICE , 106
 .byte   VOL , 27*song37_mvl/mxv
 .byte   PAN , c_v-34
 .byte   N23 ,Fs4 ,v114
 .byte   W24
 .byte   PAN , c_v+34
 .byte   N17 ,Dn4 ,v102
 .byte   W18
 .byte   PAN , c_v-61
 .byte   N05 ,Gn4 ,v114
 .byte   W06
 .byte   PAN , c_v+61
 .byte   N23 ,Fn4 ,v102
 .byte   W24
@ 002   ----------------------------------------
 .byte   PAN , c_v-49
 .byte   N23 ,Dn4 ,v114
 .byte   W24
 .byte   PAN , c_v+49
 .byte   N11 ,Fs4 ,v102
 .byte   W12
 .byte   PAN , c_v-25
 .byte   N11 ,Fs4 ,v114
 .byte   W12
 .byte   PAN , c_v+25
 .byte   N17 ,Dn4 ,v102
 .byte   W18
 .byte   PAN , c_v-58
 .byte   N05 ,Gn4 ,v114
 .byte   W06
 .byte   PAN , c_v+58
 .byte   N11 ,Fn4 ,v102
 .byte   W12
 .byte   PAN , c_v-25
 .byte   N32 ,An4 ,v114
 .byte   W16
@ 003   ----------------------------------------
 .byte   N03
 .byte   W20
 .byte   PAN , c_v+25
 .byte   N23 ,Fs4 ,v102
 .byte   W24
 .byte   PAN , c_v-61
 .byte   N17 ,Dn4 ,v114
 .byte   W18
 .byte   PAN , c_v+61
 .byte   N05 ,Gn4 ,v102
 .byte   W06
 .byte   PAN , c_v-54
 .byte   N23 ,Fn4 ,v114
 .byte   W24
 .byte   PAN , c_v+54
 .byte   N23 ,Dn4 ,v102
 .byte   W24
@ 004   ----------------------------------------
 .byte   PAN , c_v-25
 .byte   N11 ,Fs4 ,v114
 .byte   W12
 .byte   PAN , c_v+25
 .byte   N11 ,Fs4 ,v102
 .byte   W12
 .byte   PAN , c_v-61
 .byte   N17 ,Dn4 ,v114
 .byte   W18
 .byte   PAN , c_v+61
 .byte   N05 ,Gn4 ,v102
 .byte   W06
 .byte   PAN , c_v-25
 .byte   N23 ,Fn4 ,v114
 .byte   W24
 .byte   PAN , c_v+25
 .byte   N23 ,Dn4 ,v102
 .byte   W16
 .byte   W02
 .byte   W01
 .byte   W02
 .byte   GOTO
  .word Label_3_01152F80
 .byte   FINE

@**************** Track 5 (Midi-Chn.4) ****************@

song37_005:
@ 000   ----------------------------------------
Label_4_0115325C:
 .byte   TEMPO , 94*song37_tbs/2
 .byte   KEYSH , song37_key+0
 .byte   VOICE , 33
 .byte   VOL , 31*song37_mvl/mxv
 .byte   PAN , c_v+25
 .byte   N05 ,An2 ,v114
 .byte   W06
 .byte   N01 ,An2 ,v076
 .byte   W06
 .byte   An2
 .byte   W06
 .byte   N05 ,An2 ,v114
 .byte   W06
 .byte   N01 ,An2 ,v076
 .byte   W06
 .byte   N05 ,An2 ,v114
 .byte   W06
 .byte   An2
 .byte   W06
 .byte   N01 ,An2 ,v076
 .byte   W06
 .byte   N05 ,Gs2 ,v114
 .byte   W06
 .byte   N01 ,Gs2 ,v076
 .byte   W06
 .byte   Gs2
 .byte   W06
 .byte   N05 ,Gs2 ,v114
 .byte   W06
 .byte   N01 ,Gs2 ,v076
 .byte   W06
 .byte   N05 ,Gs2 ,v114
 .byte   W06
 .byte   Gs2
 .byte   W06
 .byte   N01 ,Gs2 ,v076
 .byte   W06
@ 001   ----------------------------------------
Label_4_0115329E:
 .byte   N05 ,An2 ,v114
 .byte   W06
 .byte   N01 ,An2 ,v076
 .byte   W06
 .byte   An2
 .byte   W06
 .byte   N05 ,An2 ,v114
 .byte   W06
 .byte   N01 ,An2 ,v076
 .byte   W06
 .byte   N05 ,An2 ,v114
 .byte   W06
 .byte   An2
 .byte   W06
 .byte   N01 ,An2 ,v076
 .byte   W06
 .byte   N05 ,Gs2 ,v114
 .byte   W06
 .byte   N01 ,Gs2 ,v076
 .byte   W06
 .byte   Gs2
 .byte   W06
 .byte   N05 ,Gs2 ,v114
 .byte   W06
 .byte   N01 ,Gs2 ,v076
 .byte   W06
 .byte   N05 ,Gs2 ,v114
 .byte   W06
 .byte   Gs2
 .byte   W06
 .byte   N01 ,Gs2 ,v076
 .byte   W06
 .byte   PEND 
 .byte   PATT
  .word Label_4_0115329E
 .byte   PATT
  .word Label_4_0115329E
@ 002   ----------------------------------------
Label_4_011532E1:
 .byte   N05 ,An2 ,v114
 .byte   W06
 .byte   N01 ,An2 ,v051
 .byte   W06
 .byte   An2
 .byte   W06
 .byte   N05 ,An2 ,v114
 .byte   W06
 .byte   N01 ,An2 ,v051
 .byte   W06
 .byte   N05 ,An2 ,v114
 .byte   W06
 .byte   An2
 .byte   W06
 .byte   N01 ,An2 ,v051
 .byte   W06
 .byte   N05 ,Gs2 ,v114
 .byte   W06
 .byte   N01 ,Gs2 ,v051
 .byte   W06
 .byte   Gs2
 .byte   W06
 .byte   N05 ,Gs2 ,v114
 .byte   W06
 .byte   N01 ,Gs2 ,v051
 .byte   W06
 .byte   N05 ,Gs2 ,v114
 .byte   W06
 .byte   Gs2
 .byte   W06
 .byte   N01 ,Gs2 ,v051
 .byte   W06
 .byte   PEND 
 .byte   PATT
  .word Label_4_011532E1
 .byte   PATT
  .word Label_4_011532E1
@ 003   ----------------------------------------
 .byte   N05 ,An2 ,v114
 .byte   W06
 .byte   N01 ,An2 ,v051
 .byte   W06
 .byte   An2
 .byte   W06
 .byte   N05 ,An2 ,v114
 .byte   W06
 .byte   N01 ,An2 ,v051
 .byte   W06
 .byte   N05 ,An2 ,v114
 .byte   W06
 .byte   An2
 .byte   W06
 .byte   N01 ,An2 ,v051
 .byte   W06
 .byte   N05 ,Gs2 ,v114
 .byte   W06
 .byte   N01 ,Gs2 ,v051
 .byte   W06
 .byte   Gs2
 .byte   W06
 .byte   N05 ,Gs2 ,v114
 .byte   W06
 .byte   N01 ,Gs2 ,v051
 .byte   W06
 .byte   N05 ,Gs2 ,v114
 .byte   W06
 .byte   Gs2
 .byte   W04
 .byte   W01
 .byte   N01 ,Gs2 ,v051
 .byte   W01
 .byte   W01
 .byte   W02
 .byte   GOTO
  .word Label_4_0115325C
 .byte   FINE

@**************** Track 6 (Midi-Chn.5) ****************@

song37_006:
@ 000   ----------------------------------------
Label_5_01153368:
 .byte   TEMPO , 94*song37_tbs/2
 .byte   KEYSH , song37_key+0
 .byte   VOICE , 33
 .byte   VOL , 31*song37_mvl/mxv
 .byte   PAN , c_v+14
 .byte   N05 ,Dn3 ,v114
 .byte   W06
 .byte   N01 ,Dn3 ,v051
 .byte   W06
 .byte   Dn3
 .byte   W06
 .byte   N05 ,Dn3 ,v114
 .byte   W06
 .byte   N01 ,Dn3 ,v051
 .byte   W06
 .byte   N05 ,Dn3 ,v114
 .byte   W06
 .byte   Dn3
 .byte   W06
 .byte   N01 ,Dn3 ,v051
 .byte   W06
 .byte   N05 ,Dn3 ,v114
 .byte   W06
 .byte   N01 ,Dn3 ,v051
 .byte   W06
 .byte   Dn3
 .byte   W06
 .byte   N05 ,Dn3 ,v114
 .byte   W06
 .byte   N01 ,Dn3 ,v051
 .byte   W06
 .byte   N05 ,Dn3 ,v114
 .byte   W06
 .byte   Dn3
 .byte   W06
 .byte   N01 ,Dn3 ,v051
 .byte   W06
@ 001   ----------------------------------------
Label_5_011533AA:
 .byte   N05 ,Dn3 ,v114
 .byte   W06
 .byte   N01 ,Dn3 ,v051
 .byte   W06
 .byte   Dn3
 .byte   W06
 .byte   N05 ,Dn3 ,v114
 .byte   W06
 .byte   N01 ,Dn3 ,v051
 .byte   W06
 .byte   N05 ,Dn3 ,v114
 .byte   W06
 .byte   Dn3
 .byte   W06
 .byte   N01 ,Dn3 ,v051
 .byte   W06
 .byte   N05 ,Dn3 ,v114
 .byte   W06
 .byte   N01 ,Dn3 ,v051
 .byte   W06
 .byte   Dn3
 .byte   W06
 .byte   N05 ,Dn3 ,v114
 .byte   W06
 .byte   N01 ,Dn3 ,v051
 .byte   W06
 .byte   N05 ,Dn3 ,v114
 .byte   W06
 .byte   Dn3
 .byte   W06
 .byte   N01 ,Dn3 ,v051
 .byte   W06
 .byte   PEND 
 .byte   PATT
  .word Label_5_011533AA
@ 002   ----------------------------------------
 .byte   N05 ,Dn3 ,v114
 .byte   W06
 .byte   N01 ,Dn3 ,v051
 .byte   W06
 .byte   Dn3
 .byte   W06
 .byte   N05 ,Dn3 ,v114
 .byte   W06
 .byte   N01 ,Dn3 ,v051
 .byte   W06
 .byte   N05 ,Dn3 ,v114
 .byte   W06
 .byte   Dn3
 .byte   W06
 .byte   N01 ,Dn3 ,v051
 .byte   W06
 .byte   N05 ,Dn3 ,v114
 .byte   W06
 .byte   N01 ,Dn3 ,v051
 .byte   W06
 .byte   Dn3
 .byte   W06
 .byte   N05 ,Dn3 ,v114
 .byte   W06
 .byte   N01 ,Dn3 ,v051
 .byte   W06
 .byte   N05 ,Dn3 ,v114
 .byte   W06
 .byte   Dn3
 .byte   W06
 .byte   N01 ,Dn3 ,v051
 .byte   W06
@ 003   ----------------------------------------
Label_5_01153420:
 .byte   N05 ,Dn3 ,v114
 .byte   W06
 .byte   N01 ,Dn3 ,v076
 .byte   W06
 .byte   Dn3
 .byte   W06
 .byte   N05 ,Dn3 ,v114
 .byte   W06
 .byte   N01 ,Dn3 ,v076
 .byte   W06
 .byte   N05 ,Dn3 ,v114
 .byte   W06
 .byte   Dn3
 .byte   W06
 .byte   N01 ,Dn3 ,v076
 .byte   W06
 .byte   N05 ,Dn3 ,v114
 .byte   W06
 .byte   N01 ,Dn3 ,v076
 .byte   W06
 .byte   Dn3
 .byte   W06
 .byte   N05 ,Dn3 ,v114
 .byte   W06
 .byte   N01 ,Dn3 ,v076
 .byte   W06
 .byte   N05 ,Dn3 ,v114
 .byte   W06
 .byte   Dn3
 .byte   W06
 .byte   N01 ,Dn3 ,v076
 .byte   W06
 .byte   PEND 
 .byte   PATT
  .word Label_5_01153420
 .byte   PATT
  .word Label_5_01153420
@ 004   ----------------------------------------
 .byte   N05 ,Dn3 ,v114
 .byte   W06
 .byte   N01 ,Dn3 ,v076
 .byte   W06
 .byte   Dn3
 .byte   W06
 .byte   N05 ,Dn3 ,v114
 .byte   W06
 .byte   N01 ,Dn3 ,v076
 .byte   W06
 .byte   N05 ,Dn3 ,v114
 .byte   W06
 .byte   Dn3
 .byte   W06
 .byte   N01 ,Dn3 ,v076
 .byte   W06
 .byte   N05 ,Dn3 ,v114
 .byte   W06
 .byte   N01 ,Dn3 ,v076
 .byte   W06
 .byte   Dn3
 .byte   W06
 .byte   N05 ,Dn3 ,v114
 .byte   W06
 .byte   N01 ,Dn3 ,v076
 .byte   W06
 .byte   N05 ,Dn3 ,v114
 .byte   W06
 .byte   Dn3
 .byte   W04
 .byte   W02
 .byte   N01 ,Dn3 ,v076
 .byte   W01
 .byte   W02
 .byte   GOTO
  .word Label_5_01153368
 .byte   FINE

@**************** Track 7 (Midi-Chn.6) ****************@

song37_007:
@ 000   ----------------------------------------
Label_6_011534A4:
 .byte   TEMPO , 94*song37_tbs/2
 .byte   KEYSH , song37_key+0
 .byte   VOICE , 33
 .byte   VOL , 31*song37_mvl/mxv
 .byte   PAN , c_v-14
 .byte   W01
 .byte   N05 ,Fs3 ,v114
 .byte   W06
 .byte   N01 ,Fs3 ,v051
 .byte   W06
 .byte   Fs3
 .byte   W06
 .byte   N05 ,Fs3 ,v114
 .byte   W06
 .byte   N01 ,Fs3 ,v051
 .byte   W06
 .byte   N05 ,Fs3 ,v114
 .byte   W06
 .byte   Fs3
 .byte   W06
 .byte   N01 ,Fs3 ,v051
 .byte   W06
 .byte   N05 ,Fn3 ,v114
 .byte   W06
 .byte   N01 ,Fn3 ,v051
 .byte   W06
 .byte   Fn3
 .byte   W06
 .byte   N05 ,Fn3 ,v114
 .byte   W06
 .byte   N01 ,Fn3 ,v051
 .byte   W06
 .byte   N05 ,Fn3 ,v114
 .byte   W06
 .byte   Fn3
 .byte   W06
 .byte   N01 ,Fn3 ,v051
 .byte   W06
@ 001   ----------------------------------------
Label_6_011534E7:
 .byte   N05 ,Fs3 ,v114
 .byte   W06
 .byte   N01 ,Fs3 ,v051
 .byte   W06
 .byte   Fs3
 .byte   W06
 .byte   N05 ,Fs3 ,v114
 .byte   W06
 .byte   N01 ,Fs3 ,v051
 .byte   W06
 .byte   N05 ,Fs3 ,v114
 .byte   W06
 .byte   Fs3
 .byte   W06
 .byte   N01 ,Fs3 ,v051
 .byte   W06
 .byte   N05 ,Fn3 ,v114
 .byte   W06
 .byte   N01 ,Fn3 ,v051
 .byte   W06
 .byte   Fn3
 .byte   W06
 .byte   N05 ,Fn3 ,v114
 .byte   W06
 .byte   N01 ,Fn3 ,v051
 .byte   W06
 .byte   N05 ,Fn3 ,v114
 .byte   W06
 .byte   Fn3
 .byte   W06
 .byte   N01 ,Fn3 ,v051
 .byte   W06
 .byte   PEND 
 .byte   PATT
  .word Label_6_011534E7
@ 002   ----------------------------------------
 .byte   N05 ,Fs3 ,v114
 .byte   W06
 .byte   N01 ,Fs3 ,v051
 .byte   W06
 .byte   Fs3
 .byte   W06
 .byte   N05 ,Fs3 ,v114
 .byte   W06
 .byte   N01 ,Fs3 ,v051
 .byte   W06
 .byte   N05 ,Fs3 ,v114
 .byte   W06
 .byte   Fs3
 .byte   W06
 .byte   N01 ,Fs3 ,v051
 .byte   W06
 .byte   N05 ,Fn3 ,v114
 .byte   W06
 .byte   N01 ,Fn3 ,v051
 .byte   W06
 .byte   Fn3
 .byte   W06
 .byte   N05 ,Fn3 ,v114
 .byte   W06
 .byte   N01 ,Fn3 ,v051
 .byte   W06
 .byte   N05 ,Fn3 ,v114
 .byte   W06
 .byte   Fn3
 .byte   W12
 .byte   PATT
  .word Label_6_011534E7
 .byte   PATT
  .word Label_6_011534E7
 .byte   PATT
  .word Label_6_011534E7
@ 003   ----------------------------------------
 .byte   N05 ,Fs3 ,v114
 .byte   W06
 .byte   N01 ,Fs3 ,v051
 .byte   W06
 .byte   Fs3
 .byte   W06
 .byte   N05 ,Fs3 ,v114
 .byte   W06
 .byte   N01 ,Fs3 ,v051
 .byte   W06
 .byte   N05 ,Fs3 ,v114
 .byte   W06
 .byte   Fs3
 .byte   W06
 .byte   N01 ,Fs3 ,v051
 .byte   W06
 .byte   N05 ,Fn3 ,v114
 .byte   W06
 .byte   N01 ,Fn3 ,v051
 .byte   W06
 .byte   Fn3
 .byte   W06
 .byte   N05 ,Fn3 ,v114
 .byte   W06
 .byte   N01 ,Fn3 ,v051
 .byte   W06
 .byte   N05 ,Fn3 ,v114
 .byte   W06
 .byte   Fn3
 .byte   W03
 .byte   W02
 .byte   W01
 .byte   W02
 .byte   GOTO
  .word Label_6_011534A4
 .byte   FINE

@**************** Track 8 (Midi-Chn.7) ****************@

song37_008:
@ 000   ----------------------------------------
Label_7_011535A8:
 .byte   TEMPO , 94*song37_tbs/2
 .byte   KEYSH , song37_key+0
 .byte   VOICE , 75
 .byte   VOL , 31*song37_mvl/mxv
 .byte   PAN , c_v+0
 .byte   W96
@ 001   ----------------------------------------
 .byte   W78
 .byte   N64 ,Dn4 ,v114
 .byte   W32
@ 002   ----------------------------------------
 .byte   N01
 .byte   W96
@ 003   ----------------------------------------
 .byte   W64
 .byte   N17
 .byte   W18
 .byte   VOICE , 31
 .byte   VOICE , 31
 .byte   VOL , 53*song37_mvl/mxv
 .byte   PAN , c_v-25
 .byte   PAN , c_v+0
 .byte   N05 ,Gn3 ,v114
 .byte   W18
@ 004   ----------------------------------------
 .byte   Gn3
 .byte   W42
 .byte   Gn3
 .byte   W12
 .byte   Gn3
 .byte   W06
 .byte   Gn3
 .byte   W18
 .byte   Gn3
 .byte   W18
@ 005   ----------------------------------------
 .byte   Gn3
 .byte   W30
 .byte   Gn3
 .byte   W18
 .byte   Gn3
 .byte   W06
 .byte   VOICE , 28
 .byte   VOL , 116*song37_mvl/mxv
 .byte   PAN , c_v+49
 .byte   N04 ,Gn1 ,v126
 .byte   W06
 .byte   Gn1
 .byte   W06
 .byte   Gn1
 .byte   W12
 .byte   VOICE , 31
 .byte   VOL , 53*song37_mvl/mxv
 .byte   PAN , c_v-25
 .byte   N05 ,Gn3 ,v114
 .byte   W18
@ 006   ----------------------------------------
 .byte   Gn3
 .byte   W42
 .byte   Gn3
 .byte   W12
 .byte   Gn3
 .byte   W06
 .byte   Gn3
 .byte   W18
 .byte   Gn3
 .byte   W18
@ 007   ----------------------------------------
 .byte   Gn3
 .byte   W30
 .byte   Gn3
 .byte   W18
 .byte   Gn3
 .byte   W06
 .byte   VOICE , 28
 .byte   VOL , 116*song37_mvl/mxv
 .byte   PAN , c_v+49
 .byte   N04 ,Gn1 ,v126
 .byte   W06
 .byte   Gn1
 .byte   W06
 .byte   Gn1
 .byte   W04
 .byte   W02
 .byte   W01
 .byte   W02
 .byte   GOTO
  .word Label_7_011535A8
 .byte   FINE

@******************************************************@
	.align	2

song37:
	.byte	8	@ NumTrks
	.byte	0	@ NumBlks
	.byte	song37_pri	@ Priority
	.byte	song37_rev	@ Reverb.
    
	.word	song37_grp
    
	.word	song37_001
	.word	song37_002
	.word	song37_003
	.word	song37_004
	.word	song37_005
	.word	song37_006
	.word	song37_007
	.word	song37_008

	.end
