	.include "MPlayDef.s"

	.equ	song46_grp, voicegroup000
	.equ	song46_pri, 10
	.equ	song46_rev, 128
	.equ	song46_mvl, 127
	.equ	song46_key, 0
	.equ	song46_tbs, 1
	.equ	song46_exg, 0
	.equ	song46_cmp, 1

	.section .rodata
	.global	song46
	.align	2


@**************** Track 1 (Midi-Chn.0) ****************@

song46_001:
@ 000   ----------------------------------------
 .byte   VOL , 65*song46_mvl/mxv
 .byte   KEYSH , song46_key+0
 .byte   TEMPO , 74*song46_tbs/2
 .byte   VOICE , 1
 .byte   W96
@ 001   ----------------------------------------
 .byte   W96
@ 002   ----------------------------------------
 .byte   W96
@ 003   ----------------------------------------
 .byte   W96
@ 004   ----------------------------------------
 .byte   W54
Label_0_0100FD5D:
 .byte   W06
 .byte   N12 ,Dn3 ,v127
 .byte   W12
 .byte   Gn3
 .byte   W12
 .byte   An3
 .byte   W12
@ 005   ----------------------------------------
 .byte   N24 ,Bn3
 .byte   W24
 .byte   N12
 .byte   W12
 .byte   Dn4
 .byte   W12
 .byte   N24 ,An3
 .byte   W24
 .byte   N12
 .byte   W12
 .byte   Bn3
 .byte   W12
@ 006   ----------------------------------------
 .byte   N72 ,Gn3
 .byte   W72
 .byte   N12 ,Bn3
 .byte   W12
 .byte   An3
 .byte   W12
@ 007   ----------------------------------------
 .byte   N24 ,Gn3
 .byte   W24
 .byte   N12 ,Bn3
 .byte   W12
 .byte   Dn4
 .byte   W12
 .byte   N24 ,Cs4
 .byte   W24
 .byte   N12
 .byte   W12
 .byte   Dn4
 .byte   W12
@ 008   ----------------------------------------
 .byte   N72
 .byte   W84
 .byte   N12 ,Bn3
 .byte   W12
@ 009   ----------------------------------------
 .byte   N36 ,Gn3
 .byte   W36
 .byte   N12 ,Bn3
 .byte   W12
 .byte   N24 ,An3
 .byte   W24
 .byte   Dn4
 .byte   W24
@ 010   ----------------------------------------
 .byte   N36 ,En4
 .byte   W36
 .byte   N06 ,Bn3
 .byte   W06
 .byte   An3
 .byte   W06
 .byte   N36 ,Gn3
 .byte   W36
 .byte   N12 ,En3
 .byte   W12
@ 011   ----------------------------------------
 .byte   N36 ,Gn3
 .byte   W36
 .byte   N12 ,Bn3
 .byte   W12
 .byte   N24 ,An3
 .byte   W24
 .byte   N12 ,Gn3
 .byte   W12
 .byte   Fs3
 .byte   W12
@ 012   ----------------------------------------
 .byte   N72 ,Gn3
 .byte   W96
@ 013   ----------------------------------------
 .byte   W96
@ 014   ----------------------------------------
 .byte   W96
@ 015   ----------------------------------------
 .byte   W96
@ 016   ----------------------------------------
 .byte   W96
@ 017   ----------------------------------------
 .byte   W96
@ 018   ----------------------------------------
 .byte   W96
@ 019   ----------------------------------------
 .byte   W96
@ 020   ----------------------------------------
 .byte   W96
@ 021   ----------------------------------------
 .byte   W96
@ 022   ----------------------------------------
 .byte   W96
@ 023   ----------------------------------------
 .byte   W96
@ 024   ----------------------------------------
 .byte   W96
@ 025   ----------------------------------------
 .byte   W96
@ 026   ----------------------------------------
 .byte   W96
@ 027   ----------------------------------------
 .byte   W96
@ 028   ----------------------------------------
 .byte   W96
@ 029   ----------------------------------------
 .byte   W96
@ 030   ----------------------------------------
 .byte   W96
@ 031   ----------------------------------------
 .byte   W96
@ 032   ----------------------------------------
 .byte   W96
@ 033   ----------------------------------------
 .byte   W96
@ 034   ----------------------------------------
 .byte   W96
@ 035   ----------------------------------------
 .byte   W96
@ 036   ----------------------------------------
 .byte   W96
@ 037   ----------------------------------------
 .byte   W96
@ 038   ----------------------------------------
 .byte   W96
@ 039   ----------------------------------------
 .byte   W96
@ 040   ----------------------------------------
 .byte   W96
@ 041   ----------------------------------------
 .byte   W96
@ 042   ----------------------------------------
 .byte   W96
@ 043   ----------------------------------------
 .byte   W96
@ 044   ----------------------------------------
 .byte   W96
@ 045   ----------------------------------------
 .byte   W96
@ 046   ----------------------------------------
 .byte   W96
@ 047   ----------------------------------------
 .byte   W96
@ 048   ----------------------------------------
 .byte   W96
@ 049   ----------------------------------------
 .byte   W96
@ 050   ----------------------------------------
 .byte   W96
@ 051   ----------------------------------------
 .byte   W96
@ 052   ----------------------------------------
 .byte   W96
@ 053   ----------------------------------------
 .byte   W96
@ 054   ----------------------------------------
 .byte   W96
@ 055   ----------------------------------------
 .byte   W96
@ 056   ----------------------------------------
 .byte   W96
@ 057   ----------------------------------------
 .byte   W96
@ 058   ----------------------------------------
 .byte   W96
@ 059   ----------------------------------------
 .byte   W96
@ 060   ----------------------------------------
 .byte   W96
@ 061   ----------------------------------------
 .byte   W96
@ 062   ----------------------------------------
 .byte   W96
@ 063   ----------------------------------------
 .byte   W96
@ 064   ----------------------------------------
 .byte   W96
@ 065   ----------------------------------------
 .byte   W96
@ 066   ----------------------------------------
 .byte   W96
@ 067   ----------------------------------------
 .byte   W96
@ 068   ----------------------------------------
 .byte   W96
@ 069   ----------------------------------------
 .byte   W96
@ 070   ----------------------------------------
 .byte   W96
@ 071   ----------------------------------------
 .byte   W96
@ 072   ----------------------------------------
 .byte   W96
@ 073   ----------------------------------------
 .byte   W96
@ 074   ----------------------------------------
 .byte   W96
@ 075   ----------------------------------------
 .byte   W96
@ 076   ----------------------------------------
 .byte   W96
@ 077   ----------------------------------------
 .byte   W96
@ 078   ----------------------------------------
 .byte   W96
@ 079   ----------------------------------------
 .byte   W96
@ 080   ----------------------------------------
 .byte   W96
@ 081   ----------------------------------------
 .byte   W96
@ 082   ----------------------------------------
 .byte   W96
@ 083   ----------------------------------------
 .byte   W96
@ 084   ----------------------------------------
 .byte   N24
 .byte   W24
 .byte   Bn3
 .byte   W24
 .byte   Dn4
 .byte   W24
 .byte   Bn3
 .byte   W24
@ 085   ----------------------------------------
 .byte   Dn4
 .byte   W24
 .byte   Bn3
 .byte   W24
 .byte   N96 ,Gn4
 .byte   W48
@ 086   ----------------------------------------
 .byte   W48
 .byte   GOTO
  .word Label_0_0100FD5D
 .byte   FINE

@**************** Track 2 (Midi-Chn.1) ****************@

song46_002:
@ 000   ----------------------------------------
 .byte   VOL , 65*song46_mvl/mxv
 .byte   KEYSH , song46_key+0
 .byte   VOICE , 2
 .byte   W96
@ 001   ----------------------------------------
 .byte   W96
@ 002   ----------------------------------------
 .byte   W96
@ 003   ----------------------------------------
 .byte   W96
@ 004   ----------------------------------------
 .byte   W54
Label_1_0100FE22:
 .byte   W42
@ 005   ----------------------------------------
Label_1_0100FE23:
 .byte   N36 ,Gn1 ,v127
 .byte   W36
 .byte   N12
 .byte   W12
 .byte   N36 ,Fs1
 .byte   W36
 .byte   N12
 .byte   W12
 .byte   PEND 
@ 006   ----------------------------------------
Label_1_0100FE2F:
 .byte   N36 ,En1 ,v127
 .byte   W36
 .byte   N12
 .byte   W12
 .byte   N36 ,Dn1
 .byte   W36
 .byte   N12
 .byte   W12
 .byte   PEND 
@ 007   ----------------------------------------
Label_1_0100FE3B:
 .byte   N36 ,Cn1 ,v127
 .byte   W36
 .byte   N12
 .byte   W12
 .byte   N36 ,Dn1
 .byte   W36
 .byte   N12
 .byte   W12
 .byte   PEND 
@ 008   ----------------------------------------
Label_1_0100FE47:
 .byte   N36 ,Gn1 ,v127
 .byte   W36
 .byte   N12 ,Dn1
 .byte   W12
 .byte   N48 ,Gn0
 .byte   W48
 .byte   PEND 
 .byte   PATT
  .word Label_1_0100FE23
 .byte   PATT
  .word Label_1_0100FE2F
 .byte   PATT
  .word Label_1_0100FE3B
@ 009   ----------------------------------------
 .byte   N96 ,Gn1 ,v127
 .byte   W96
@ 010   ----------------------------------------
Label_1_0100FE65:
 .byte   N48 ,Gn1 ,v127
 .byte   W48
 .byte   N24 ,Cn1
 .byte   W24
 .byte   Dn1
 .byte   W24
 .byte   PEND 
@ 011   ----------------------------------------
Label_1_0100FE6F:
 .byte   N48 ,Gn1 ,v127
 .byte   W48
 .byte   N12
 .byte   W12
 .byte   N12
 .byte   W12
 .byte   Fs1
 .byte   W12
 .byte   N12
 .byte   W12
 .byte   PEND 
@ 012   ----------------------------------------
Label_1_0100FE7C:
 .byte   N24 ,En1 ,v127
 .byte   W24
 .byte   Dn1
 .byte   W24
 .byte   N12 ,Cs1
 .byte   W12
 .byte   Bn0
 .byte   W12
 .byte   N24 ,An0
 .byte   W24
 .byte   PEND 
@ 013   ----------------------------------------
Label_1_0100FE8B:
 .byte   N36 ,Dn1 ,v127
 .byte   W36
 .byte   N12 ,An0
 .byte   W12
 .byte   N48 ,Dn0
 .byte   W48
 .byte   PEND 
@ 014   ----------------------------------------
Label_1_0100FE96:
 .byte   W01
 .byte   N36 ,Gn1 ,v127
 .byte   W36
 .byte   N12
 .byte   W12
 .byte   N36 ,Fs1
 .byte   W36
 .byte   N12
 .byte   W11
 .byte   PEND 
@ 015   ----------------------------------------
Label_1_0100FEA3:
 .byte   W01
 .byte   N12 ,En1 ,v127
 .byte   W12
 .byte   Bn1
 .byte   W12
 .byte   N24 ,En1
 .byte   W24
 .byte   N12 ,Dn1
 .byte   W12
 .byte   An1
 .byte   W12
 .byte   N24 ,Dn1
 .byte   W23
 .byte   PEND 
@ 016   ----------------------------------------
Label_1_0100FEB6:
 .byte   W01
 .byte   N36 ,Cn1 ,v127
 .byte   W36
 .byte   N12
 .byte   W12
 .byte   N36 ,Dn1
 .byte   W36
 .byte   N12
 .byte   W11
 .byte   PEND 
@ 017   ----------------------------------------
Label_1_0100FEC3:
 .byte   W01
 .byte   N24 ,Gn1 ,v127
 .byte   W24
 .byte   N12 ,Dn1
 .byte   W12
 .byte   N48 ,En1
 .byte   W48
 .byte   N06 ,Gn1
 .byte   W06
 .byte   An1
 .byte   W05
 .byte   PEND 
@ 018   ----------------------------------------
Label_1_0100FED4:
 .byte   W01
 .byte   N24 ,Bn1 ,v127
 .byte   W24
 .byte   N12 ,Dn2
 .byte   W12
 .byte   N48 ,Gn1
 .byte   W56
 .byte   W03
 .byte   PEND 
@ 019   ----------------------------------------
Label_1_0100FEE1:
 .byte   N12 ,Cn2 ,v127
 .byte   W12
 .byte   N24
 .byte   W24
 .byte   N12
 .byte   W12
 .byte   Dn2
 .byte   W12
 .byte   N24
 .byte   W24
 .byte   N12
 .byte   W12
 .byte   PEND 
@ 020   ----------------------------------------
Label_1_0100FEF0:
 .byte   N36 ,Gn2 ,v127
 .byte   W36
 .byte   N12 ,Dn2
 .byte   W12
 .byte   Gn2
 .byte   W12
 .byte   N12
 .byte   W12
 .byte   Fs2
 .byte   W12
 .byte   N12
 .byte   W12
 .byte   PEND 
@ 021   ----------------------------------------
Label_1_0100FF00:
 .byte   N24 ,En2 ,v127
 .byte   W24
 .byte   Dn2
 .byte   W24
 .byte   N12 ,Cs2
 .byte   W12
 .byte   Bn1
 .byte   W12
 .byte   N24 ,An1
 .byte   W24
 .byte   PEND 
@ 022   ----------------------------------------
 .byte   N48 ,Dn2
 .byte   W96
 .byte   PATT
  .word Label_1_0100FE23
 .byte   PATT
  .word Label_1_0100FE2F
 .byte   PATT
  .word Label_1_0100FE3B
@ 023   ----------------------------------------
 .byte   N48 ,Gn1 ,v127
 .byte   W96
 .byte   PATT
  .word Label_1_0100FE23
@ 024   ----------------------------------------
Label_1_0100FF2A:
 .byte   N36 ,Fn1 ,v127
 .byte   W36
 .byte   N12
 .byte   W12
 .byte   N36 ,En1
 .byte   W36
 .byte   N12
 .byte   W12
 .byte   PEND 
@ 025   ----------------------------------------
Label_1_0100FF36:
 .byte   N36 ,Ds1 ,v127
 .byte   W36
 .byte   N12
 .byte   W12
 .byte   N36 ,Dn1
 .byte   W36
 .byte   N12
 .byte   W12
 .byte   PEND 
 .byte   PATT
  .word Label_1_0100FF36
 .byte   PATT
  .word Label_1_0100FE23
 .byte   PATT
  .word Label_1_0100FF2A
 .byte   PATT
  .word Label_1_0100FF36
 .byte   PATT
  .word Label_1_0100FF36
@ 026   ----------------------------------------
 .byte   W96
@ 027   ----------------------------------------
 .byte   W96
@ 028   ----------------------------------------
 .byte   N12 ,Gn1 ,v127
 .byte   W12
 .byte   N72
 .byte   W84
@ 029   ----------------------------------------
 .byte   W96
@ 030   ----------------------------------------
 .byte   N12
 .byte   W12
 .byte   N72 ,Gn0
 .byte   W84
@ 031   ----------------------------------------
 .byte   N48 ,Bn1
 .byte   W48
 .byte   N24 ,Cn2
 .byte   W24
 .byte   Dn2
 .byte   W24
@ 032   ----------------------------------------
 .byte   N12 ,Gn1
 .byte   W12
 .byte   N24
 .byte   W30
 .byte   N06
 .byte   W06
 .byte   N12 ,Fs1
 .byte   W12
 .byte   N24
 .byte   W30
 .byte   N06
 .byte   W06
@ 033   ----------------------------------------
 .byte   N12 ,Fn1
 .byte   W12
 .byte   N24
 .byte   W30
 .byte   N06
 .byte   W06
 .byte   N36 ,En1
 .byte   W36
 .byte   N12
 .byte   W12
@ 034   ----------------------------------------
 .byte   W11
 .byte   N24 ,Gn1
 .byte   W30
 .byte   N06
 .byte   W06
 .byte   N12 ,Fs1
 .byte   W12
 .byte   N24
 .byte   W30
 .byte   N06
 .byte   W06
 .byte   N12 ,Fn1
 .byte   W01
@ 035   ----------------------------------------
 .byte   W11
 .byte   N24
 .byte   W30
 .byte   N06
 .byte   W06
 .byte   N36 ,En1
 .byte   W36
 .byte   N12
 .byte   W12
 .byte   N01 ,Gn1
 .byte   W01
@ 036   ----------------------------------------
 .byte   W96
@ 037   ----------------------------------------
 .byte   W96
@ 038   ----------------------------------------
 .byte   W96
@ 039   ----------------------------------------
 .byte   W96
@ 040   ----------------------------------------
 .byte   N24
 .byte   W24
 .byte   N12 ,Dn1
 .byte   W12
 .byte   N48 ,En1
 .byte   W48
 .byte   N06 ,Gn1
 .byte   W06
 .byte   An1
 .byte   W06
@ 041   ----------------------------------------
 .byte   N24 ,Bn1
 .byte   W24
 .byte   N12 ,Dn2
 .byte   W12
 .byte   N48 ,Gn1
 .byte   W56
 .byte   W02
 .byte   N01 ,Cn2
 .byte   W02
 .byte   PATT
  .word Label_1_0100FE65
 .byte   PATT
  .word Label_1_0100FE6F
 .byte   PATT
  .word Label_1_0100FE7C
 .byte   PATT
  .word Label_1_0100FE8B
 .byte   PATT
  .word Label_1_0100FE96
 .byte   PATT
  .word Label_1_0100FEA3
 .byte   PATT
  .word Label_1_0100FEB6
 .byte   PATT
  .word Label_1_0100FEC3
 .byte   PATT
  .word Label_1_0100FED4
@ 042   ----------------------------------------
 .byte   W01
 .byte   N12 ,Cn2 ,v127
 .byte   W12
 .byte   N24
 .byte   W24
 .byte   N12
 .byte   W12
 .byte   Dn2
 .byte   W12
 .byte   N24
 .byte   W24
 .byte   N12
 .byte   W11
@ 043   ----------------------------------------
 .byte   W01
 .byte   N36 ,Gn2
 .byte   W36
 .byte   N12 ,Dn2
 .byte   W12
 .byte   Gn2
 .byte   W12
 .byte   N12
 .byte   W12
 .byte   Fs2
 .byte   W12
 .byte   N12
 .byte   W11
@ 044   ----------------------------------------
 .byte   W01
 .byte   N24 ,En2
 .byte   W24
 .byte   Dn2
 .byte   W24
 .byte   N12 ,Cs2
 .byte   W12
 .byte   Bn1
 .byte   W12
 .byte   N24 ,An1
 .byte   W23
@ 045   ----------------------------------------
 .byte   W01
 .byte   N48 ,Dn2
 .byte   W92
 .byte   W03
 .byte   PATT
  .word Label_1_0100FE96
@ 046   ----------------------------------------
 .byte   W01
 .byte   N36 ,En1 ,v127
 .byte   W36
 .byte   N12
 .byte   W12
 .byte   N36 ,Dn1
 .byte   W36
 .byte   N12
 .byte   W11
 .byte   PATT
  .word Label_1_0100FEB6
@ 047   ----------------------------------------
 .byte   W01
 .byte   N48 ,Gn1 ,v127
 .byte   W92
 .byte   W03
 .byte   PATT
  .word Label_1_0100FEE1
 .byte   PATT
  .word Label_1_0100FEF0
 .byte   PATT
  .word Label_1_0100FF00
@ 048   ----------------------------------------
 .byte   N48 ,Dn2 ,v127
 .byte   W96
 .byte   PATT
  .word Label_1_0100FE23
 .byte   PATT
  .word Label_1_0100FE2F
 .byte   PATT
  .word Label_1_0100FE3B
 .byte   PATT
  .word Label_1_0100FE47
 .byte   PATT
  .word Label_1_0100FE2F
@ 049   ----------------------------------------
 .byte   N36 ,Gn1 ,v127
 .byte   W36
 .byte   N12
 .byte   W12
 .byte   N48 ,Fs1
 .byte   W48
@ 050   ----------------------------------------
 .byte   W96
@ 051   ----------------------------------------
 .byte   W96
@ 052   ----------------------------------------
 .byte   W96
@ 053   ----------------------------------------
 .byte   W96
@ 054   ----------------------------------------
 .byte   W96
@ 055   ----------------------------------------
 .byte   W48
 .byte   GOTO
  .word Label_1_0100FE22
 .byte   FINE

@**************** Track 3 (Midi-Chn.2) ****************@

song46_003:
@ 000   ----------------------------------------
 .byte   VOL , 65*song46_mvl/mxv
 .byte   KEYSH , song46_key+0
 .byte   VOICE , 3
 .byte   W96
@ 001   ----------------------------------------
 .byte   W96
@ 002   ----------------------------------------
 .byte   W96
@ 003   ----------------------------------------
 .byte   W96
@ 004   ----------------------------------------
 .byte   W54
Label_2_0101008C:
 .byte   W42
@ 005   ----------------------------------------
 .byte   W96
@ 006   ----------------------------------------
 .byte   W96
@ 007   ----------------------------------------
 .byte   W96
@ 008   ----------------------------------------
 .byte   W96
@ 009   ----------------------------------------
 .byte   W96
@ 010   ----------------------------------------
 .byte   W96
@ 011   ----------------------------------------
 .byte   W96
@ 012   ----------------------------------------
 .byte   W96
@ 013   ----------------------------------------
 .byte   W96
@ 014   ----------------------------------------
 .byte   W96
@ 015   ----------------------------------------
 .byte   W96
@ 016   ----------------------------------------
 .byte   W96
@ 017   ----------------------------------------
 .byte   W96
@ 018   ----------------------------------------
 .byte   W96
@ 019   ----------------------------------------
 .byte   W96
@ 020   ----------------------------------------
 .byte   W96
@ 021   ----------------------------------------
Label_2_0101009D:
 .byte   W60
 .byte   N12 ,Gn3 ,v127
 .byte   W12
 .byte   Bn3
 .byte   W12
 .byte   Dn4
 .byte   W12
 .byte   PEND 
@ 022   ----------------------------------------
Label_2_010100A7:
 .byte   N24 ,En4 ,v127
 .byte   W24
 .byte   Gn4
 .byte   W24
 .byte   N36 ,Fs4
 .byte   W36
 .byte   N12 ,Dn4
 .byte   W12
 .byte   PEND 
@ 023   ----------------------------------------
Label_2_010100B4:
 .byte   N12 ,Bn3 ,v127
 .byte   W12
 .byte   Dn4
 .byte   W12
 .byte   N48 ,Bn3
 .byte   W48
 .byte   N12 ,An3
 .byte   W12
 .byte   Bn3
 .byte   W12
 .byte   PEND 
@ 024   ----------------------------------------
Label_2_010100C3:
 .byte   N24 ,Gn3 ,v127
 .byte   W24
 .byte   Bn3
 .byte   W24
 .byte   N36 ,An3
 .byte   W36
 .byte   N12 ,Gn3
 .byte   W12
 .byte   PEND 
@ 025   ----------------------------------------
Label_2_010100D0:
 .byte   N36 ,Gn3 ,v127
 .byte   W36
 .byte   N12 ,Fs3
 .byte   W12
 .byte   N36
 .byte   W48
 .byte   PEND 
@ 026   ----------------------------------------
Label_2_010100DA:
 .byte   N24 ,En4 ,v127
 .byte   W24
 .byte   Gn4
 .byte   W24
 .byte   N36 ,Fs4
 .byte   W36
 .byte   N06 ,Gn4
 .byte   W06
 .byte   An4
 .byte   W06
 .byte   PEND 
@ 027   ----------------------------------------
Label_2_010100E9:
 .byte   N12 ,Bn4 ,v127
 .byte   W12
 .byte   Dn5
 .byte   W12
 .byte   An4
 .byte   W12
 .byte   Bn4
 .byte   W12
 .byte   N36 ,Gn4
 .byte   W36
 .byte   N12 ,En4
 .byte   W12
 .byte   PEND 
@ 028   ----------------------------------------
Label_2_010100FA:
 .byte   N36 ,Gn4 ,v127
 .byte   W36
 .byte   N12 ,Bn4
 .byte   W12
 .byte   N24 ,An4
 .byte   W24
 .byte   N12 ,Gn4
 .byte   W12
 .byte   Fs4
 .byte   W12
 .byte   PEND 
@ 029   ----------------------------------------
 .byte   N72 ,Gn4
 .byte   W96
@ 030   ----------------------------------------
 .byte   W96
@ 031   ----------------------------------------
 .byte   W96
@ 032   ----------------------------------------
 .byte   W96
@ 033   ----------------------------------------
 .byte   W96
@ 034   ----------------------------------------
 .byte   W96
@ 035   ----------------------------------------
 .byte   W96
@ 036   ----------------------------------------
 .byte   W96
@ 037   ----------------------------------------
 .byte   W96
@ 038   ----------------------------------------
 .byte   W96
@ 039   ----------------------------------------
 .byte   W96
@ 040   ----------------------------------------
 .byte   W96
@ 041   ----------------------------------------
 .byte   W96
@ 042   ----------------------------------------
 .byte   W96
@ 043   ----------------------------------------
 .byte   W96
@ 044   ----------------------------------------
 .byte   W96
@ 045   ----------------------------------------
 .byte   W96
@ 046   ----------------------------------------
 .byte   W96
@ 047   ----------------------------------------
 .byte   W96
@ 048   ----------------------------------------
 .byte   W96
@ 049   ----------------------------------------
 .byte   W96
@ 050   ----------------------------------------
 .byte   W96
@ 051   ----------------------------------------
 .byte   W96
@ 052   ----------------------------------------
 .byte   W96
@ 053   ----------------------------------------
 .byte   W60
 .byte   N12 ,Dn3
 .byte   W12
 .byte   Gn3
 .byte   W12
 .byte   An3
 .byte   W12
@ 054   ----------------------------------------
 .byte   N24 ,Bn3
 .byte   W24
 .byte   N12
 .byte   W12
 .byte   Dn4
 .byte   W12
 .byte   N24 ,An3
 .byte   W24
 .byte   N12
 .byte   W12
 .byte   Bn3
 .byte   W12
@ 055   ----------------------------------------
 .byte   N72 ,Gn3
 .byte   W72
 .byte   N12 ,Bn3
 .byte   W12
 .byte   An3
 .byte   W12
@ 056   ----------------------------------------
 .byte   N24 ,Gn3
 .byte   W24
 .byte   N12 ,Bn3
 .byte   W12
 .byte   Dn4
 .byte   W12
 .byte   N24 ,Cs4
 .byte   W24
 .byte   N12
 .byte   W12
 .byte   Dn4
 .byte   W12
@ 057   ----------------------------------------
 .byte   N72
 .byte   W84
 .byte   N12 ,Bn3
 .byte   W12
@ 058   ----------------------------------------
 .byte   N36 ,Gn3
 .byte   W36
 .byte   N12 ,Bn3
 .byte   W12
 .byte   N24 ,An3
 .byte   W24
 .byte   Dn4
 .byte   W24
@ 059   ----------------------------------------
 .byte   N36 ,En4
 .byte   W36
 .byte   N06 ,Bn3
 .byte   W06
 .byte   An3
 .byte   W06
 .byte   N36 ,Gn3
 .byte   W36
 .byte   N12 ,En3
 .byte   W12
@ 060   ----------------------------------------
 .byte   N36 ,Gn3
 .byte   W36
 .byte   N12 ,Bn3
 .byte   W12
 .byte   N24 ,An3
 .byte   W24
 .byte   N12 ,Gn3
 .byte   W12
 .byte   Fs3
 .byte   W12
@ 061   ----------------------------------------
 .byte   N72 ,Gn3
 .byte   W96
 .byte   PATT
  .word Label_2_0101009D
 .byte   PATT
  .word Label_2_010100A7
 .byte   PATT
  .word Label_2_010100B4
 .byte   PATT
  .word Label_2_010100C3
 .byte   PATT
  .word Label_2_010100D0
 .byte   PATT
  .word Label_2_010100DA
 .byte   PATT
  .word Label_2_010100E9
 .byte   PATT
  .word Label_2_010100FA
@ 062   ----------------------------------------
 .byte   N60 ,Gn4 ,v127
 .byte   W60
 .byte   N12 ,Dn3
 .byte   W12
 .byte   Bn3
 .byte   W12
 .byte   Dn4
 .byte   W12
 .byte   PATT
  .word Label_2_010100A7
 .byte   PATT
  .word Label_2_010100B4
 .byte   PATT
  .word Label_2_010100C3
 .byte   PATT
  .word Label_2_010100D0
 .byte   PATT
  .word Label_2_010100DA
 .byte   PATT
  .word Label_2_010100E9
@ 063   ----------------------------------------
 .byte   N36 ,Gn4 ,v127
 .byte   W36
 .byte   N12 ,Bn4
 .byte   W12
 .byte   N24 ,An4
 .byte   W24
 .byte   N12 ,Gn4
 .byte   W12
 .byte   An4
 .byte   W12
@ 064   ----------------------------------------
 .byte   N24 ,Bn4
 .byte   W24
 .byte   Cn5
 .byte   W24
 .byte   Dn5
 .byte   W24
 .byte   N12 ,Bn4
 .byte   W12
 .byte   Dn5
 .byte   W12
@ 065   ----------------------------------------
 .byte   N24 ,En4
 .byte   W24
 .byte   Gn4
 .byte   W24
 .byte   Fs4
 .byte   W24
 .byte   N12 ,Gn4
 .byte   W12
 .byte   An4
 .byte   W12
@ 066   ----------------------------------------
 .byte   Bn4
 .byte   W12
 .byte   Dn5
 .byte   W12
 .byte   An4
 .byte   W12
 .byte   Bn4
 .byte   W12
 .byte   N72 ,Gn4
 .byte   W48
@ 067   ----------------------------------------
 .byte   W24
 .byte   N24 ,En4
 .byte   W24
 .byte   N48 ,Gn4
 .byte   W48
@ 068   ----------------------------------------
 .byte   N24
 .byte   W24
 .byte   Bn4
 .byte   W24
 .byte   N48 ,An4
 .byte   W48
@ 069   ----------------------------------------
 .byte   Gn4
 .byte   W48
 .byte   Fs4
 .byte   W48
@ 070   ----------------------------------------
 .byte   TIE ,Gn4
 .byte   W96
@ 071   ----------------------------------------
 .byte   W96
@ 072   ----------------------------------------
 .byte   EOT
 .byte   W48
 .byte   GOTO
  .word Label_2_0101008C
 .byte   FINE

@**************** Track 4 (Midi-Chn.3) ****************@

song46_004:
@ 000   ----------------------------------------
 .byte   VOL , 65*song46_mvl/mxv
 .byte   KEYSH , song46_key+0
 .byte   VOICE , 4
 .byte   N12 ,Bn3 ,v127
 .byte   W12
 .byte   Dn4
 .byte   W12
 .byte   Gn4
 .byte   W12
 .byte   Cn4
 .byte   W12
 .byte   Dn4
 .byte   W12
 .byte   Gn4
 .byte   W12
 .byte   Cn4
 .byte   W12
 .byte   Dn4
 .byte   W12
@ 001   ----------------------------------------
Label_3_01010239:
 .byte   N12 ,Bn3 ,v127
 .byte   W12
 .byte   Dn4
 .byte   W12
 .byte   Gn4
 .byte   W12
 .byte   Cn4
 .byte   W12
 .byte   Dn4
 .byte   W12
 .byte   Gn4
 .byte   W12
 .byte   Cn4
 .byte   W12
 .byte   Dn4
 .byte   W12
 .byte   PEND 
 .byte   PATT
  .word Label_3_01010239
 .byte   PATT
  .word Label_3_01010239
@ 002   ----------------------------------------
 .byte   N72 ,Gn4 ,v127
 .byte   W54
Label_3_0101025A:
 .byte   W42
@ 003   ----------------------------------------
 .byte   W96
@ 004   ----------------------------------------
 .byte   W96
@ 005   ----------------------------------------
 .byte   W96
@ 006   ----------------------------------------
 .byte   W96
@ 007   ----------------------------------------
 .byte   W96
@ 008   ----------------------------------------
 .byte   W96
@ 009   ----------------------------------------
 .byte   W96
@ 010   ----------------------------------------
 .byte   W96
@ 011   ----------------------------------------
 .byte   W96
@ 012   ----------------------------------------
 .byte   W96
@ 013   ----------------------------------------
 .byte   W96
@ 014   ----------------------------------------
 .byte   W96
@ 015   ----------------------------------------
 .byte   W96
@ 016   ----------------------------------------
 .byte   W96
@ 017   ----------------------------------------
 .byte   W96
@ 018   ----------------------------------------
 .byte   W96
@ 019   ----------------------------------------
 .byte   W96
@ 020   ----------------------------------------
 .byte   W96
@ 021   ----------------------------------------
 .byte   W96
@ 022   ----------------------------------------
 .byte   W96
@ 023   ----------------------------------------
 .byte   W96
@ 024   ----------------------------------------
 .byte   W96
@ 025   ----------------------------------------
 .byte   W96
@ 026   ----------------------------------------
 .byte   W96
@ 027   ----------------------------------------
 .byte   W96
@ 028   ----------------------------------------
 .byte   W96
@ 029   ----------------------------------------
 .byte   W96
@ 030   ----------------------------------------
 .byte   W96
@ 031   ----------------------------------------
 .byte   W96
@ 032   ----------------------------------------
 .byte   W96
@ 033   ----------------------------------------
 .byte   W96
@ 034   ----------------------------------------
 .byte   W96
@ 035   ----------------------------------------
 .byte   W96
@ 036   ----------------------------------------
 .byte   W96
@ 037   ----------------------------------------
 .byte   W96
@ 038   ----------------------------------------
 .byte   W96
@ 039   ----------------------------------------
 .byte   W96
@ 040   ----------------------------------------
 .byte   W96
@ 041   ----------------------------------------
 .byte   W96
@ 042   ----------------------------------------
 .byte   W96
@ 043   ----------------------------------------
 .byte   W96
@ 044   ----------------------------------------
 .byte   W96
@ 045   ----------------------------------------
 .byte   W96
@ 046   ----------------------------------------
 .byte   W96
@ 047   ----------------------------------------
 .byte   W96
@ 048   ----------------------------------------
 .byte   W96
@ 049   ----------------------------------------
 .byte   W96
@ 050   ----------------------------------------
 .byte   W96
@ 051   ----------------------------------------
 .byte   W96
@ 052   ----------------------------------------
 .byte   W96
@ 053   ----------------------------------------
 .byte   W96
@ 054   ----------------------------------------
 .byte   W96
@ 055   ----------------------------------------
 .byte   W96
@ 056   ----------------------------------------
 .byte   W96
@ 057   ----------------------------------------
 .byte   W96
@ 058   ----------------------------------------
 .byte   W96
@ 059   ----------------------------------------
 .byte   W96
@ 060   ----------------------------------------
 .byte   W96
@ 061   ----------------------------------------
 .byte   W96
@ 062   ----------------------------------------
 .byte   W96
@ 063   ----------------------------------------
 .byte   W96
@ 064   ----------------------------------------
 .byte   W96
@ 065   ----------------------------------------
 .byte   W96
@ 066   ----------------------------------------
 .byte   W96
@ 067   ----------------------------------------
 .byte   W96
@ 068   ----------------------------------------
 .byte   W96
@ 069   ----------------------------------------
 .byte   W96
@ 070   ----------------------------------------
 .byte   W96
@ 071   ----------------------------------------
 .byte   W96
@ 072   ----------------------------------------
 .byte   W96
@ 073   ----------------------------------------
 .byte   W96
@ 074   ----------------------------------------
 .byte   W96
@ 075   ----------------------------------------
 .byte   W96
@ 076   ----------------------------------------
 .byte   W96
@ 077   ----------------------------------------
 .byte   W96
@ 078   ----------------------------------------
 .byte   W96
@ 079   ----------------------------------------
 .byte   W96
@ 080   ----------------------------------------
 .byte   W96
@ 081   ----------------------------------------
 .byte   W96
@ 082   ----------------------------------------
 .byte   W96
@ 083   ----------------------------------------
 .byte   W96
@ 084   ----------------------------------------
 .byte   W48
 .byte   GOTO
  .word Label_3_0101025A
 .byte   FINE

@**************** Track 5 (Midi-Chn.4) ****************@

song46_005:
@ 000   ----------------------------------------
 .byte   VOL , 65*song46_mvl/mxv
 .byte   KEYSH , song46_key+0
 .byte   VOICE , 2
 .byte   W96
@ 001   ----------------------------------------
 .byte   W96
@ 002   ----------------------------------------
 .byte   W96
@ 003   ----------------------------------------
 .byte   W96
@ 004   ----------------------------------------
 .byte   W54
Label_4_010102BE:
 .byte   W42
@ 005   ----------------------------------------
 .byte   W96
@ 006   ----------------------------------------
 .byte   W96
@ 007   ----------------------------------------
 .byte   W96
@ 008   ----------------------------------------
 .byte   W96
@ 009   ----------------------------------------
 .byte   W96
@ 010   ----------------------------------------
 .byte   W96
@ 011   ----------------------------------------
 .byte   W96
@ 012   ----------------------------------------
 .byte   W96
@ 013   ----------------------------------------
 .byte   W96
@ 014   ----------------------------------------
 .byte   W96
@ 015   ----------------------------------------
 .byte   W96
@ 016   ----------------------------------------
 .byte   W96
@ 017   ----------------------------------------
 .byte   W96
@ 018   ----------------------------------------
 .byte   W96
@ 019   ----------------------------------------
 .byte   W96
@ 020   ----------------------------------------
 .byte   W96
@ 021   ----------------------------------------
 .byte   W96
@ 022   ----------------------------------------
 .byte   W96
@ 023   ----------------------------------------
 .byte   W96
@ 024   ----------------------------------------
 .byte   W96
@ 025   ----------------------------------------
 .byte   W96
@ 026   ----------------------------------------
 .byte   W96
@ 027   ----------------------------------------
 .byte   W96
@ 028   ----------------------------------------
 .byte   W96
@ 029   ----------------------------------------
 .byte   W96
@ 030   ----------------------------------------
 .byte   W96
@ 031   ----------------------------------------
 .byte   W96
@ 032   ----------------------------------------
 .byte   W96
@ 033   ----------------------------------------
 .byte   W96
@ 034   ----------------------------------------
 .byte   W96
@ 035   ----------------------------------------
 .byte   W96
@ 036   ----------------------------------------
 .byte   W96
@ 037   ----------------------------------------
 .byte   W96
@ 038   ----------------------------------------
 .byte   W96
@ 039   ----------------------------------------
 .byte   W96
@ 040   ----------------------------------------
 .byte   W96
@ 041   ----------------------------------------
 .byte   W96
@ 042   ----------------------------------------
 .byte   W96
@ 043   ----------------------------------------
 .byte   W96
@ 044   ----------------------------------------
Label_4_010102E6:
 .byte   N12 ,Gn1 ,v127
 .byte   W12
 .byte   N24
 .byte   W30
 .byte   N06
 .byte   W06
 .byte   N12 ,Fs1
 .byte   W12
 .byte   N24
 .byte   W30
 .byte   N06
 .byte   W06
 .byte   PEND 
@ 045   ----------------------------------------
Label_4_010102F6:
 .byte   N12 ,Fn1 ,v127
 .byte   W12
 .byte   N24
 .byte   W30
 .byte   N06
 .byte   W06
 .byte   N36 ,En1
 .byte   W36
 .byte   N12
 .byte   W12
 .byte   PEND 
 .byte   PATT
  .word Label_4_010102E6
 .byte   PATT
  .word Label_4_010102F6
 .byte   PATT
  .word Label_4_010102E6
 .byte   PATT
  .word Label_4_010102F6
 .byte   PATT
  .word Label_4_010102E6
 .byte   PATT
  .word Label_4_010102F6
@ 046   ----------------------------------------
 .byte   W96
@ 047   ----------------------------------------
 .byte   W96
@ 048   ----------------------------------------
 .byte   W96
@ 049   ----------------------------------------
 .byte   W96
@ 050   ----------------------------------------
 .byte   W96
@ 051   ----------------------------------------
 .byte   W96
@ 052   ----------------------------------------
 .byte   W96
@ 053   ----------------------------------------
 .byte   W96
@ 054   ----------------------------------------
 .byte   W96
@ 055   ----------------------------------------
 .byte   W96
@ 056   ----------------------------------------
 .byte   W96
@ 057   ----------------------------------------
 .byte   W96
@ 058   ----------------------------------------
 .byte   W96
@ 059   ----------------------------------------
 .byte   W96
@ 060   ----------------------------------------
 .byte   W96
@ 061   ----------------------------------------
 .byte   W96
@ 062   ----------------------------------------
 .byte   W96
@ 063   ----------------------------------------
 .byte   W96
@ 064   ----------------------------------------
 .byte   W96
@ 065   ----------------------------------------
 .byte   W96
@ 066   ----------------------------------------
 .byte   W96
@ 067   ----------------------------------------
 .byte   W96
@ 068   ----------------------------------------
 .byte   W96
@ 069   ----------------------------------------
 .byte   W96
@ 070   ----------------------------------------
 .byte   W96
@ 071   ----------------------------------------
 .byte   W96
@ 072   ----------------------------------------
 .byte   W96
@ 073   ----------------------------------------
 .byte   W96
@ 074   ----------------------------------------
 .byte   W96
@ 075   ----------------------------------------
 .byte   W96
@ 076   ----------------------------------------
 .byte   W96
@ 077   ----------------------------------------
 .byte   W96
@ 078   ----------------------------------------
 .byte   W96
@ 079   ----------------------------------------
 .byte   W96
@ 080   ----------------------------------------
 .byte   W48
 .byte   GOTO
  .word Label_4_010102BE
 .byte   FINE

@**************** Track 6 (Midi-Chn.5) ****************@

song46_006:
@ 000   ----------------------------------------
 .byte   VOL , 65*song46_mvl/mxv
 .byte   KEYSH , song46_key+0
 .byte   VOICE , 5
 .byte   W96
@ 001   ----------------------------------------
 .byte   W96
@ 002   ----------------------------------------
 .byte   W96
@ 003   ----------------------------------------
 .byte   W96
@ 004   ----------------------------------------
 .byte   W54
Label_5_01010356:
 .byte   W42
@ 005   ----------------------------------------
 .byte   W96
@ 006   ----------------------------------------
 .byte   W96
@ 007   ----------------------------------------
 .byte   W96
@ 008   ----------------------------------------
 .byte   W96
@ 009   ----------------------------------------
 .byte   W96
@ 010   ----------------------------------------
 .byte   W96
@ 011   ----------------------------------------
 .byte   W96
@ 012   ----------------------------------------
 .byte   W96
@ 013   ----------------------------------------
 .byte   W96
@ 014   ----------------------------------------
 .byte   W96
@ 015   ----------------------------------------
 .byte   W96
@ 016   ----------------------------------------
 .byte   W96
@ 017   ----------------------------------------
 .byte   W96
@ 018   ----------------------------------------
 .byte   W96
@ 019   ----------------------------------------
 .byte   W96
@ 020   ----------------------------------------
 .byte   W96
@ 021   ----------------------------------------
 .byte   W96
@ 022   ----------------------------------------
 .byte   W96
@ 023   ----------------------------------------
 .byte   W96
@ 024   ----------------------------------------
 .byte   W96
@ 025   ----------------------------------------
 .byte   W96
@ 026   ----------------------------------------
 .byte   W96
@ 027   ----------------------------------------
 .byte   W96
@ 028   ----------------------------------------
 .byte   W96
@ 029   ----------------------------------------
 .byte   W60
 .byte   N12 ,Dn3 ,v127
 .byte   W12
 .byte   Gn3
 .byte   W12
 .byte   An3
 .byte   W12
@ 030   ----------------------------------------
Label_5_01010378:
 .byte   N24 ,As3 ,v127
 .byte   W24
 .byte   N12
 .byte   W12
 .byte   Dn4
 .byte   W12
 .byte   N24 ,An3
 .byte   W24
 .byte   N12
 .byte   W12
 .byte   As3
 .byte   W12
 .byte   PEND 
@ 031   ----------------------------------------
Label_5_01010388:
 .byte   N48 ,Gn3 ,v127
 .byte   W60
 .byte   N12
 .byte   W12
 .byte   As3
 .byte   W12
 .byte   An3
 .byte   W12
 .byte   PEND 
@ 032   ----------------------------------------
Label_5_01010393:
 .byte   N24 ,Gn3 ,v127
 .byte   W24
 .byte   N12
 .byte   W12
 .byte   As3
 .byte   W12
 .byte   N48 ,An3
 .byte   W48
 .byte   PEND 
 .byte   PATT
  .word Label_5_01010393
 .byte   PATT
  .word Label_5_01010378
 .byte   PATT
  .word Label_5_01010388
 .byte   PATT
  .word Label_5_01010393
 .byte   PATT
  .word Label_5_01010393
@ 033   ----------------------------------------
Label_5_010103B8:
 .byte   N12 ,Bn4 ,v127
 .byte   W12
 .byte   N12
 .byte   W12
 .byte   Dn5
 .byte   W12
 .byte   Gn5
 .byte   W12
 .byte   An4
 .byte   W12
 .byte   N12
 .byte   W12
 .byte   Dn5
 .byte   W12
 .byte   Gn5
 .byte   W12
 .byte   PEND 
@ 034   ----------------------------------------
Label_5_010103CB:
 .byte   N12 ,Gn4 ,v127
 .byte   W12
 .byte   N12
 .byte   W12
 .byte   Dn5
 .byte   W12
 .byte   Gn5
 .byte   W12
 .byte   Gn4
 .byte   W12
 .byte   N12
 .byte   W12
 .byte   N09 ,An4
 .byte   W09
 .byte   N03
 .byte   W03
 .byte   N09
 .byte   W09
 .byte   N03
 .byte   W03
 .byte   PEND 
 .byte   PATT
  .word Label_5_010103B8
 .byte   PATT
  .word Label_5_010103CB
 .byte   PATT
  .word Label_5_010103B8
 .byte   PATT
  .word Label_5_010103CB
 .byte   PATT
  .word Label_5_010103B8
 .byte   PATT
  .word Label_5_010103CB
 .byte   PATT
  .word Label_5_010103B8
 .byte   PATT
  .word Label_5_010103CB
 .byte   PATT
  .word Label_5_010103B8
 .byte   PATT
  .word Label_5_010103CB
 .byte   PATT
  .word Label_5_010103B8
 .byte   PATT
  .word Label_5_010103CB
@ 035   ----------------------------------------
Label_5_0101041F:
 .byte   N12 ,Bn3 ,v127
 .byte   W12
 .byte   Dn4
 .byte   W12
 .byte   Gn4
 .byte   W12
 .byte   Cn4
 .byte   W12
 .byte   Dn4
 .byte   W12
 .byte   Gn4
 .byte   W12
 .byte   Cn4
 .byte   W12
 .byte   Dn4
 .byte   W12
 .byte   PEND 
 .byte   PATT
  .word Label_5_0101041F
@ 036   ----------------------------------------
 .byte   W96
@ 037   ----------------------------------------
 .byte   W96
@ 038   ----------------------------------------
 .byte   W96
@ 039   ----------------------------------------
 .byte   W96
@ 040   ----------------------------------------
 .byte   W96
@ 041   ----------------------------------------
 .byte   W96
@ 042   ----------------------------------------
 .byte   W96
@ 043   ----------------------------------------
 .byte   W96
@ 044   ----------------------------------------
 .byte   W96
@ 045   ----------------------------------------
 .byte   W96
@ 046   ----------------------------------------
 .byte   W96
@ 047   ----------------------------------------
 .byte   W96
@ 048   ----------------------------------------
 .byte   W96
@ 049   ----------------------------------------
 .byte   W96
@ 050   ----------------------------------------
 .byte   W96
@ 051   ----------------------------------------
 .byte   W96
@ 052   ----------------------------------------
 .byte   W96
@ 053   ----------------------------------------
 .byte   W96
@ 054   ----------------------------------------
 .byte   W96
@ 055   ----------------------------------------
 .byte   W96
@ 056   ----------------------------------------
 .byte   W96
@ 057   ----------------------------------------
 .byte   W96
@ 058   ----------------------------------------
 .byte   W96
@ 059   ----------------------------------------
 .byte   W96
@ 060   ----------------------------------------
 .byte   W96
@ 061   ----------------------------------------
 .byte   W96
@ 062   ----------------------------------------
 .byte   W96
@ 063   ----------------------------------------
 .byte   W96
@ 064   ----------------------------------------
 .byte   W96
@ 065   ----------------------------------------
 .byte   W96
@ 066   ----------------------------------------
 .byte   W96
@ 067   ----------------------------------------
 .byte   W96
@ 068   ----------------------------------------
 .byte   W48
 .byte   GOTO
  .word Label_5_01010356
 .byte   FINE

@**************** Track 7 (Midi-Chn.6) ****************@

song46_007:
@ 000   ----------------------------------------
 .byte   VOL , 65*song46_mvl/mxv
 .byte   KEYSH , song46_key+0
 .byte   VOICE , 5
 .byte   W96
@ 001   ----------------------------------------
 .byte   W96
@ 002   ----------------------------------------
 .byte   W96
@ 003   ----------------------------------------
 .byte   W96
@ 004   ----------------------------------------
 .byte   W54
Label_6_01010469:
 .byte   W42
@ 005   ----------------------------------------
 .byte   W96
@ 006   ----------------------------------------
 .byte   W96
@ 007   ----------------------------------------
 .byte   W96
@ 008   ----------------------------------------
 .byte   W96
@ 009   ----------------------------------------
 .byte   W96
@ 010   ----------------------------------------
 .byte   W96
@ 011   ----------------------------------------
 .byte   W96
@ 012   ----------------------------------------
 .byte   W96
@ 013   ----------------------------------------
 .byte   W96
@ 014   ----------------------------------------
 .byte   W96
@ 015   ----------------------------------------
 .byte   W96
@ 016   ----------------------------------------
 .byte   W96
@ 017   ----------------------------------------
 .byte   W96
@ 018   ----------------------------------------
 .byte   W96
@ 019   ----------------------------------------
 .byte   W96
@ 020   ----------------------------------------
 .byte   W96
@ 021   ----------------------------------------
 .byte   W96
@ 022   ----------------------------------------
 .byte   W96
@ 023   ----------------------------------------
 .byte   W96
@ 024   ----------------------------------------
 .byte   W96
@ 025   ----------------------------------------
 .byte   W96
@ 026   ----------------------------------------
 .byte   W96
@ 027   ----------------------------------------
 .byte   W96
@ 028   ----------------------------------------
 .byte   W96
@ 029   ----------------------------------------
 .byte   W96
@ 030   ----------------------------------------
 .byte   W96
@ 031   ----------------------------------------
 .byte   W96
@ 032   ----------------------------------------
 .byte   W96
@ 033   ----------------------------------------
 .byte   W96
@ 034   ----------------------------------------
 .byte   N24 ,Gn3 ,v127
 .byte   W24
 .byte   N12
 .byte   W12
 .byte   As3
 .byte   W12
 .byte   N24 ,Fs3
 .byte   W24
 .byte   N12
 .byte   W12
 .byte   Gn3
 .byte   W12
@ 035   ----------------------------------------
 .byte   N48 ,As3
 .byte   W60
 .byte   N12
 .byte   W12
 .byte   N12
 .byte   W12
 .byte   An3
 .byte   W12
@ 036   ----------------------------------------
Label_6_0101049F:
 .byte   N24 ,As3 ,v127
 .byte   W24
 .byte   N12
 .byte   W12
 .byte   En3
 .byte   W12
 .byte   N48 ,Fs3
 .byte   W48
 .byte   PEND 
 .byte   PATT
  .word Label_6_0101049F
@ 037   ----------------------------------------
Label_6_010104B0:
 .byte   N12 ,Bn3 ,v127
 .byte   W12
 .byte   Dn4
 .byte   W12
 .byte   Gn4
 .byte   W12
 .byte   Dn4
 .byte   W12
 .byte   An3
 .byte   W12
 .byte   Dn4
 .byte   W12
 .byte   Gn4
 .byte   W12
 .byte   Dn4
 .byte   W12
 .byte   PEND 
@ 038   ----------------------------------------
Label_6_010104C3:
 .byte   N12 ,Gn3 ,v127
 .byte   W12
 .byte   Dn4
 .byte   W12
 .byte   Gn4
 .byte   W12
 .byte   Dn4
 .byte   W12
 .byte   Gn3
 .byte   W12
 .byte   Dn4
 .byte   W12
 .byte   An3
 .byte   W12
 .byte   Dn4
 .byte   W12
 .byte   PEND 
 .byte   PATT
  .word Label_6_010104B0
 .byte   PATT
  .word Label_6_010104C3
 .byte   PATT
  .word Label_6_010104B0
 .byte   PATT
  .word Label_6_010104C3
@ 039   ----------------------------------------
 .byte   W96
@ 040   ----------------------------------------
 .byte   W96
@ 041   ----------------------------------------
 .byte   W96
@ 042   ----------------------------------------
 .byte   W96
@ 043   ----------------------------------------
 .byte   W96
@ 044   ----------------------------------------
 .byte   W96
@ 045   ----------------------------------------
 .byte   W96
@ 046   ----------------------------------------
 .byte   W96
@ 047   ----------------------------------------
 .byte   W96
@ 048   ----------------------------------------
 .byte   W96
@ 049   ----------------------------------------
 .byte   W96
@ 050   ----------------------------------------
 .byte   W96
@ 051   ----------------------------------------
 .byte   W96
@ 052   ----------------------------------------
 .byte   W96
@ 053   ----------------------------------------
 .byte   W96
@ 054   ----------------------------------------
 .byte   W96
@ 055   ----------------------------------------
 .byte   W96
@ 056   ----------------------------------------
 .byte   W96
@ 057   ----------------------------------------
 .byte   W96
@ 058   ----------------------------------------
 .byte   W96
@ 059   ----------------------------------------
 .byte   W96
@ 060   ----------------------------------------
 .byte   W96
@ 061   ----------------------------------------
 .byte   W96
@ 062   ----------------------------------------
 .byte   W96
@ 063   ----------------------------------------
 .byte   W96
@ 064   ----------------------------------------
 .byte   W96
@ 065   ----------------------------------------
 .byte   W96
@ 066   ----------------------------------------
 .byte   W96
@ 067   ----------------------------------------
 .byte   W96
@ 068   ----------------------------------------
 .byte   W96
@ 069   ----------------------------------------
 .byte   W96
@ 070   ----------------------------------------
 .byte   W96
@ 071   ----------------------------------------
 .byte   W96
@ 072   ----------------------------------------
 .byte   W96
@ 073   ----------------------------------------
 .byte   W96
@ 074   ----------------------------------------
 .byte   W96
@ 075   ----------------------------------------
 .byte   W96
@ 076   ----------------------------------------
 .byte   W96
@ 077   ----------------------------------------
 .byte   W96
@ 078   ----------------------------------------
 .byte   W96
@ 079   ----------------------------------------
 .byte   W96
@ 080   ----------------------------------------
 .byte   W96
@ 081   ----------------------------------------
 .byte   W48
 .byte   GOTO
  .word Label_6_01010469
 .byte   FINE

@**************** Track 8 (Midi-Chn.7) ****************@

song46_008:
@ 000   ----------------------------------------
 .byte   VOL , 65*song46_mvl/mxv
 .byte   KEYSH , song46_key+0
 .byte   VOICE , 6
 .byte   W24
 .byte   N96 ,Gn4 ,v127
 .byte   W72
@ 001   ----------------------------------------
 .byte   W24
 .byte   N96
 .byte   W72
@ 002   ----------------------------------------
 .byte   W24
 .byte   N96
 .byte   W72
@ 003   ----------------------------------------
 .byte   W24
 .byte   TIE
 .byte   W72
@ 004   ----------------------------------------
 .byte   W48
 .byte   EOT
 .byte   W06
Label_7_01010532:
 .byte   W42
@ 005   ----------------------------------------
 .byte   W96
@ 006   ----------------------------------------
 .byte   W96
@ 007   ----------------------------------------
 .byte   W96
@ 008   ----------------------------------------
 .byte   W96
@ 009   ----------------------------------------
 .byte   W96
@ 010   ----------------------------------------
 .byte   W96
@ 011   ----------------------------------------
 .byte   W96
@ 012   ----------------------------------------
Label_7_0101053A:
 .byte   W60
 .byte   N12 ,Dn3 ,v127
 .byte   W12
 .byte   Gn3
 .byte   W12
 .byte   An3
 .byte   W12
 .byte   PEND 
@ 013   ----------------------------------------
Label_7_01010544:
 .byte   N24 ,Bn3 ,v127
 .byte   W24
 .byte   N12
 .byte   W12
 .byte   Dn4
 .byte   W12
 .byte   N24 ,An3
 .byte   W24
 .byte   N12
 .byte   W12
 .byte   Bn3
 .byte   W12
 .byte   PEND 
@ 014   ----------------------------------------
Label_7_01010554:
 .byte   N72 ,Gn3 ,v127
 .byte   W72
 .byte   N12 ,Bn3
 .byte   W12
 .byte   An3
 .byte   W12
 .byte   PEND 
@ 015   ----------------------------------------
Label_7_0101055E:
 .byte   N24 ,Gn3 ,v127
 .byte   W24
 .byte   N12 ,Bn3
 .byte   W12
 .byte   Dn4
 .byte   W12
 .byte   N24 ,Cs4
 .byte   W24
 .byte   N12
 .byte   W12
 .byte   Dn4
 .byte   W12
 .byte   PEND 
@ 016   ----------------------------------------
Label_7_0101056F:
 .byte   N72 ,Dn4 ,v127
 .byte   W84
 .byte   N12 ,Bn3
 .byte   W12
 .byte   PEND 
@ 017   ----------------------------------------
Label_7_01010577:
 .byte   N36 ,Gn3 ,v127
 .byte   W36
 .byte   N12 ,Bn3
 .byte   W12
 .byte   N24 ,An3
 .byte   W24
 .byte   Dn4
 .byte   W24
 .byte   PEND 
@ 018   ----------------------------------------
Label_7_01010584:
 .byte   N36 ,En4 ,v127
 .byte   W36
 .byte   N06 ,Bn3
 .byte   W06
 .byte   An3
 .byte   W06
 .byte   N36 ,Gn3
 .byte   W36
 .byte   N12 ,En3
 .byte   W12
 .byte   PEND 
@ 019   ----------------------------------------
Label_7_01010594:
 .byte   N36 ,Gn3 ,v127
 .byte   W36
 .byte   N12 ,Bn3
 .byte   W12
 .byte   N24 ,An3
 .byte   W24
 .byte   N12 ,Gn3
 .byte   W12
 .byte   Fs3
 .byte   W12
 .byte   PEND 
@ 020   ----------------------------------------
 .byte   N72 ,Gn3
 .byte   W96
@ 021   ----------------------------------------
 .byte   W96
@ 022   ----------------------------------------
 .byte   W96
@ 023   ----------------------------------------
 .byte   W96
@ 024   ----------------------------------------
 .byte   W96
@ 025   ----------------------------------------
 .byte   W96
@ 026   ----------------------------------------
 .byte   W96
@ 027   ----------------------------------------
 .byte   W96
@ 028   ----------------------------------------
 .byte   W96
@ 029   ----------------------------------------
 .byte   W92
 .byte   W02
 .byte   N48 ,Dn3
 .byte   N48 ,Gn3
 .byte   N48 ,As3
 .byte   W02
@ 030   ----------------------------------------
Label_7_010105B8:
 .byte   W44
 .byte   W02
 .byte   N48 ,Dn3 ,v127
 .byte   N48 ,Fs3
 .byte   N48 ,An3
 .byte   W48
 .byte   Dn3
 .byte   N48 ,Gn3
 .byte   N48 ,As3
 .byte   W02
 .byte   PEND 
@ 031   ----------------------------------------
Label_7_010105C9:
 .byte   W44
 .byte   W02
 .byte   N48 ,Dn3 ,v127
 .byte   N48 ,Gn3
 .byte   N48 ,As3
 .byte   W48
 .byte   Dn3
 .byte   N48 ,Gn3
 .byte   N48 ,As3
 .byte   W02
 .byte   PEND 
 .byte   PATT
  .word Label_7_010105B8
@ 032   ----------------------------------------
 .byte   W44
 .byte   W02
 .byte   N48 ,Dn3 ,v127
 .byte   N48 ,Fs3
 .byte   N48 ,An3
 .byte   W48
 .byte   En3
 .byte   N48 ,Gn3
 .byte   N48 ,As3
 .byte   W02
 .byte   PATT
  .word Label_7_010105B8
 .byte   PATT
  .word Label_7_010105C9
 .byte   PATT
  .word Label_7_010105B8
@ 033   ----------------------------------------
 .byte   W44
 .byte   W02
 .byte   N48 ,Dn3 ,v127
 .byte   N48 ,Fs3
 .byte   N48 ,An3
 .byte   W48
 .byte   W02
@ 034   ----------------------------------------
 .byte   W96
@ 035   ----------------------------------------
 .byte   W96
@ 036   ----------------------------------------
 .byte   W96
@ 037   ----------------------------------------
 .byte   W96
@ 038   ----------------------------------------
 .byte   W96
@ 039   ----------------------------------------
 .byte   W96
@ 040   ----------------------------------------
 .byte   W96
@ 041   ----------------------------------------
 .byte   W96
@ 042   ----------------------------------------
 .byte   W96
@ 043   ----------------------------------------
 .byte   W96
@ 044   ----------------------------------------
 .byte   W01
 .byte   N72 ,Gn3
 .byte   W72
 .byte   N08 ,An3
 .byte   W08
 .byte   As3
 .byte   W08
 .byte   N06 ,An3
 .byte   W07
@ 045   ----------------------------------------
 .byte   N72 ,Gn3
 .byte   W72
 .byte   N08 ,An3
 .byte   N08 ,An4
 .byte   W08
 .byte   As3
 .byte   N08 ,As4
 .byte   W08
 .byte   An3
 .byte   N08 ,An4
 .byte   W08
@ 046   ----------------------------------------
Label_7_0101062F:
 .byte   N72 ,Gn3 ,v127
 .byte   N72 ,Gn4
 .byte   W72
 .byte   N08 ,An3
 .byte   N08 ,An4
 .byte   W08
 .byte   As3
 .byte   N08 ,As4
 .byte   W08
 .byte   An3
 .byte   N08 ,An4
 .byte   W08
 .byte   PEND 
 .byte   PATT
  .word Label_7_0101062F
@ 047   ----------------------------------------
 .byte   W96
 .byte   PATT
  .word Label_7_0101053A
 .byte   PATT
  .word Label_7_01010544
 .byte   PATT
  .word Label_7_01010554
 .byte   PATT
  .word Label_7_0101055E
 .byte   PATT
  .word Label_7_0101056F
 .byte   PATT
  .word Label_7_01010577
 .byte   PATT
  .word Label_7_01010584
 .byte   PATT
  .word Label_7_01010594
@ 048   ----------------------------------------
 .byte   N72 ,Gn3 ,v127
 .byte   W96
@ 049   ----------------------------------------
 .byte   W60
 .byte   N12
 .byte   W12
 .byte   Bn3
 .byte   W12
 .byte   Dn4
 .byte   W12
@ 050   ----------------------------------------
Label_7_0101067C:
 .byte   N24 ,En4 ,v127
 .byte   W24
 .byte   Gn4
 .byte   W24
 .byte   N36 ,Fs4
 .byte   W36
 .byte   N12 ,Dn4
 .byte   W12
 .byte   PEND 
@ 051   ----------------------------------------
Label_7_01010689:
 .byte   N12 ,Bn3 ,v127
 .byte   W12
 .byte   Dn4
 .byte   W12
 .byte   N48 ,Bn3
 .byte   W48
 .byte   N12 ,An3
 .byte   W12
 .byte   Bn3
 .byte   W12
 .byte   PEND 
@ 052   ----------------------------------------
Label_7_01010698:
 .byte   N24 ,Gn3 ,v127
 .byte   W24
 .byte   Bn3
 .byte   W24
 .byte   N36 ,An3
 .byte   W36
 .byte   N12 ,Gn3
 .byte   W12
 .byte   PEND 
@ 053   ----------------------------------------
Label_7_010106A5:
 .byte   N36 ,Gn3 ,v127
 .byte   W36
 .byte   N12 ,Fs3
 .byte   W12
 .byte   N36
 .byte   W48
 .byte   PEND 
@ 054   ----------------------------------------
Label_7_010106AF:
 .byte   N24 ,En4 ,v127
 .byte   W24
 .byte   Gn4
 .byte   W24
 .byte   N36 ,Fs4
 .byte   W36
 .byte   N06 ,Gn4
 .byte   W06
 .byte   An4
 .byte   W06
 .byte   PEND 
@ 055   ----------------------------------------
Label_7_010106BE:
 .byte   N12 ,Bn4 ,v127
 .byte   W12
 .byte   Dn5
 .byte   W12
 .byte   An4
 .byte   W12
 .byte   Bn4
 .byte   W12
 .byte   N36 ,Gn4
 .byte   W36
 .byte   N12 ,En4
 .byte   W12
 .byte   PEND 
@ 056   ----------------------------------------
 .byte   N36 ,Gn4
 .byte   W36
 .byte   N12 ,Bn4
 .byte   W12
 .byte   N24 ,An4
 .byte   W24
 .byte   N12 ,Gn4
 .byte   W12
 .byte   Fs4
 .byte   W12
@ 057   ----------------------------------------
 .byte   N48 ,Gn4
 .byte   W60
 .byte   N12 ,Dn3
 .byte   W12
 .byte   Bn3
 .byte   W12
 .byte   Dn4
 .byte   W12
 .byte   PATT
  .word Label_7_0101067C
 .byte   PATT
  .word Label_7_01010689
 .byte   PATT
  .word Label_7_01010698
 .byte   PATT
  .word Label_7_010106A5
 .byte   PATT
  .word Label_7_010106AF
 .byte   PATT
  .word Label_7_010106BE
@ 058   ----------------------------------------
 .byte   N36 ,Gn4 ,v127
 .byte   W36
 .byte   N12 ,Bn4
 .byte   W12
 .byte   N24 ,An4
 .byte   W24
 .byte   N12 ,Gn4
 .byte   W12
 .byte   An4
 .byte   W12
@ 059   ----------------------------------------
 .byte   N24 ,Bn4
 .byte   W24
 .byte   Cn5
 .byte   W24
 .byte   Dn5
 .byte   W24
 .byte   N12 ,Bn4
 .byte   W12
 .byte   Dn5
 .byte   W12
@ 060   ----------------------------------------
 .byte   N24 ,En4
 .byte   W24
 .byte   Gn4
 .byte   W24
 .byte   Fs4
 .byte   W24
 .byte   N12 ,Gn4
 .byte   W12
 .byte   An4
 .byte   W12
@ 061   ----------------------------------------
 .byte   Bn4
 .byte   W12
 .byte   Dn5
 .byte   W12
 .byte   An4
 .byte   W12
 .byte   Bn4
 .byte   W12
 .byte   N72 ,Gn4
 .byte   W48
@ 062   ----------------------------------------
 .byte   W96
@ 063   ----------------------------------------
 .byte   W96
@ 064   ----------------------------------------
 .byte   W96
@ 065   ----------------------------------------
 .byte   W96
@ 066   ----------------------------------------
 .byte   W48
 .byte   N96
 .byte   W48
@ 067   ----------------------------------------
 .byte   W48
 .byte   GOTO
  .word Label_7_01010532
 .byte   FINE

@**************** Track 9 (Midi-Chn.8) ****************@

song46_009:
@ 000   ----------------------------------------
 .byte   VOL , 65*song46_mvl/mxv
 .byte   KEYSH , song46_key+0
 .byte   VOICE , 7
 .byte   W96
@ 001   ----------------------------------------
 .byte   W96
@ 002   ----------------------------------------
 .byte   W96
@ 003   ----------------------------------------
 .byte   W96
@ 004   ----------------------------------------
 .byte   W54
Label_8_01010750:
 .byte   W42
@ 005   ----------------------------------------
 .byte   W96
@ 006   ----------------------------------------
 .byte   W96
@ 007   ----------------------------------------
 .byte   W96
@ 008   ----------------------------------------
 .byte   W96
@ 009   ----------------------------------------
 .byte   W96
@ 010   ----------------------------------------
 .byte   W96
@ 011   ----------------------------------------
 .byte   W96
@ 012   ----------------------------------------
 .byte   W96
@ 013   ----------------------------------------
 .byte   W96
@ 014   ----------------------------------------
 .byte   W96
@ 015   ----------------------------------------
 .byte   W96
@ 016   ----------------------------------------
 .byte   W96
@ 017   ----------------------------------------
 .byte   W96
@ 018   ----------------------------------------
 .byte   W96
@ 019   ----------------------------------------
 .byte   W96
@ 020   ----------------------------------------
 .byte   W96
@ 021   ----------------------------------------
 .byte   W96
@ 022   ----------------------------------------
 .byte   W96
@ 023   ----------------------------------------
 .byte   W96
@ 024   ----------------------------------------
 .byte   W96
@ 025   ----------------------------------------
 .byte   W96
@ 026   ----------------------------------------
 .byte   W96
@ 027   ----------------------------------------
 .byte   W96
@ 028   ----------------------------------------
 .byte   W96
@ 029   ----------------------------------------
 .byte   W96
@ 030   ----------------------------------------
 .byte   W96
@ 031   ----------------------------------------
 .byte   W96
@ 032   ----------------------------------------
 .byte   W96
@ 033   ----------------------------------------
 .byte   W96
@ 034   ----------------------------------------
 .byte   W96
@ 035   ----------------------------------------
 .byte   W96
@ 036   ----------------------------------------
 .byte   W96
@ 037   ----------------------------------------
 .byte   W96
@ 038   ----------------------------------------
 .byte   W96
@ 039   ----------------------------------------
 .byte   W96
@ 040   ----------------------------------------
 .byte   W96
@ 041   ----------------------------------------
 .byte   W96
@ 042   ----------------------------------------
 .byte   W96
@ 043   ----------------------------------------
 .byte   W96
@ 044   ----------------------------------------
 .byte   W96
@ 045   ----------------------------------------
 .byte   W96
@ 046   ----------------------------------------
 .byte   W96
@ 047   ----------------------------------------
 .byte   W96
@ 048   ----------------------------------------
 .byte   W96
@ 049   ----------------------------------------
 .byte   W96
@ 050   ----------------------------------------
 .byte   W96
@ 051   ----------------------------------------
 .byte   W96
@ 052   ----------------------------------------
 .byte   W96
@ 053   ----------------------------------------
 .byte   W60
 .byte   N12 ,Dn3 ,v127
 .byte   W12
 .byte   Gn3
 .byte   W12
 .byte   An3
 .byte   W12
@ 054   ----------------------------------------
 .byte   N24 ,Bn3
 .byte   W24
 .byte   N12
 .byte   W12
 .byte   Dn4
 .byte   W12
 .byte   N24 ,An3
 .byte   W24
 .byte   N12
 .byte   W12
 .byte   Bn3
 .byte   W12
@ 055   ----------------------------------------
 .byte   N72 ,Gn3
 .byte   W72
 .byte   N12 ,Bn3
 .byte   W12
 .byte   An3
 .byte   W12
@ 056   ----------------------------------------
 .byte   N24 ,Gn3
 .byte   W24
 .byte   N12 ,Bn3
 .byte   W12
 .byte   Dn4
 .byte   W12
 .byte   N24 ,Cs4
 .byte   W24
 .byte   N12
 .byte   W12
 .byte   Dn4
 .byte   W12
@ 057   ----------------------------------------
 .byte   N72
 .byte   W84
 .byte   N12 ,Bn3
 .byte   W12
@ 058   ----------------------------------------
 .byte   N36 ,Gn3
 .byte   W36
 .byte   N12 ,Bn3
 .byte   W12
 .byte   N24 ,An3
 .byte   W24
 .byte   Dn4
 .byte   W24
@ 059   ----------------------------------------
 .byte   N36 ,En4
 .byte   W36
 .byte   N06 ,Bn3
 .byte   W06
 .byte   An3
 .byte   W06
 .byte   N36 ,Gn3
 .byte   W36
 .byte   N12 ,En3
 .byte   W12
@ 060   ----------------------------------------
 .byte   N36 ,Gn3
 .byte   W36
 .byte   N12 ,Bn3
 .byte   W12
 .byte   N24 ,An3
 .byte   W24
 .byte   N12 ,Gn3
 .byte   W12
 .byte   Fs3
 .byte   W12
@ 061   ----------------------------------------
 .byte   N72 ,Gn3
 .byte   W96
@ 062   ----------------------------------------
 .byte   W60
 .byte   N12
 .byte   W12
 .byte   Bn3
 .byte   W12
 .byte   Dn4
 .byte   W12
@ 063   ----------------------------------------
 .byte   N24 ,En4
 .byte   W24
 .byte   Gn4
 .byte   W24
 .byte   N36 ,Fs4
 .byte   W36
 .byte   N12 ,Dn4
 .byte   W12
@ 064   ----------------------------------------
 .byte   Bn3
 .byte   W12
 .byte   Dn4
 .byte   W12
 .byte   N48 ,Bn3
 .byte   W48
 .byte   N12 ,An3
 .byte   W12
 .byte   Bn3
 .byte   W12
@ 065   ----------------------------------------
 .byte   N24 ,Gn3
 .byte   W24
 .byte   Bn3
 .byte   W24
 .byte   N36 ,An3
 .byte   W36
 .byte   N12 ,Gn3
 .byte   W12
@ 066   ----------------------------------------
 .byte   N36
 .byte   W36
 .byte   N12 ,Fs3
 .byte   W12
 .byte   N36
 .byte   W48
@ 067   ----------------------------------------
 .byte   N24 ,En4
 .byte   W24
 .byte   Gn4
 .byte   W24
 .byte   N36 ,Fs4
 .byte   W36
 .byte   N06 ,Gn4
 .byte   W06
 .byte   An4
 .byte   W06
@ 068   ----------------------------------------
 .byte   N12 ,Bn4
 .byte   W12
 .byte   Dn5
 .byte   W12
 .byte   An4
 .byte   W12
 .byte   Bn4
 .byte   W12
 .byte   N36 ,Gn4
 .byte   W36
 .byte   N12 ,En4
 .byte   W12
@ 069   ----------------------------------------
 .byte   N36 ,Gn4
 .byte   W36
 .byte   N12 ,Bn4
 .byte   W12
 .byte   N24 ,An4
 .byte   W24
 .byte   N12 ,Gn4
 .byte   W12
 .byte   Fs4
 .byte   W12
@ 070   ----------------------------------------
 .byte   N72 ,Gn4
 .byte   W96
@ 071   ----------------------------------------
 .byte   W96
@ 072   ----------------------------------------
 .byte   W96
@ 073   ----------------------------------------
 .byte   W96
@ 074   ----------------------------------------
 .byte   W96
@ 075   ----------------------------------------
 .byte   W96
@ 076   ----------------------------------------
 .byte   W96
@ 077   ----------------------------------------
 .byte   W96
@ 078   ----------------------------------------
 .byte   W96
@ 079   ----------------------------------------
 .byte   W96
@ 080   ----------------------------------------
 .byte   W96
@ 081   ----------------------------------------
 .byte   W96
@ 082   ----------------------------------------
 .byte   W96
@ 083   ----------------------------------------
 .byte   W96
@ 084   ----------------------------------------
 .byte   W96
@ 085   ----------------------------------------
 .byte   W96
@ 086   ----------------------------------------
 .byte   W48
 .byte   GOTO
  .word Label_8_01010750
 .byte   FINE

@**************** Track 10 (Midi-Chn.9) ****************@

song46_010:
@ 000   ----------------------------------------
 .byte   KEYSH , song46_key+0
 .byte   VOICE , 6
 .byte   VOL , 32*song46_mvl/mxv
 .byte   W96
@ 001   ----------------------------------------
 .byte   W96
@ 002   ----------------------------------------
 .byte   W96
@ 003   ----------------------------------------
 .byte   W96
@ 004   ----------------------------------------
 .byte   W54
Label_9_0101085C:
 .byte   W42
@ 005   ----------------------------------------
 .byte   W96
@ 006   ----------------------------------------
 .byte   W96
@ 007   ----------------------------------------
 .byte   W96
@ 008   ----------------------------------------
 .byte   W96
@ 009   ----------------------------------------
 .byte   W96
@ 010   ----------------------------------------
 .byte   W96
@ 011   ----------------------------------------
 .byte   W96
@ 012   ----------------------------------------
 .byte   W96
@ 013   ----------------------------------------
Label_9_01010865:
 .byte   TIE ,Dn4 ,v064
 .byte   TIE ,Gn4 ,v127
 .byte   TIE ,Bn4
 .byte   W96
 .byte   PEND 
@ 014   ----------------------------------------
 .byte   W96
@ 015   ----------------------------------------
 .byte   EOT
 .byte   Dn4 ,v079
 .byte   Bn4
Label_9_01010874:
 .byte   N48 ,Dn4 ,v064
 .byte   N48 ,Gn4 ,v127
 .byte   N48 ,Cn5
 .byte   W48
 .byte   Gn3
 .byte   N48 ,En4
 .byte   N48 ,Gn4
 .byte   W48
 .byte   PEND 
@ 016   ----------------------------------------
Label_9_01010884:
 .byte   N48 ,Dn4 ,v127
 .byte   N48 ,Gn4
 .byte   N48 ,Bn4 ,v064
 .byte   W48
 .byte   Dn4 ,v127
 .byte   N48 ,Fs4 ,v064
 .byte   N48 ,An4 ,v127
 .byte   W48
 .byte   PEND 
@ 017   ----------------------------------------
Label_9_01010897:
 .byte   N48 ,Dn4 ,v064
 .byte   N48 ,Gn4 ,v127
 .byte   N48 ,Bn4
 .byte   W48
 .byte   Dn4 ,v064
 .byte   N48 ,Fs4 ,v127
 .byte   N48 ,An4
 .byte   W48
 .byte   PEND 
@ 018   ----------------------------------------
Label_9_010108A9:
 .byte   N48 ,Cn4 ,v127
 .byte   N48 ,En4
 .byte   N48 ,Gn4
 .byte   W48
 .byte   Dn4
 .byte   N48 ,Gn4
 .byte   N48 ,Bn4
 .byte   W48
 .byte   PEND 
@ 019   ----------------------------------------
Label_9_010108B8:
 .byte   N48 ,Cn4 ,v127
 .byte   N48 ,En4
 .byte   N48 ,Gn4
 .byte   W48
 .byte   Dn4
 .byte   N48 ,Fs4
 .byte   N48 ,An4
 .byte   W48
 .byte   PEND 
@ 020   ----------------------------------------
Label_9_010108C7:
 .byte   N96 ,Dn4 ,v127
 .byte   N96 ,Gn4
 .byte   N96 ,Bn4
 .byte   W96
 .byte   PEND 
@ 021   ----------------------------------------
 .byte   W96
 .byte   PATT
  .word Label_9_010108B8
@ 022   ----------------------------------------
Label_9_010108D6:
 .byte   N48 ,Dn4 ,v127
 .byte   N48 ,Gn4
 .byte   N48 ,Bn4
 .byte   W48
 .byte   N24 ,Dn4
 .byte   N24 ,Gn4
 .byte   N24 ,Bn4
 .byte   W24
 .byte   Dn4
 .byte   N24 ,Fs4
 .byte   N24 ,An4
 .byte   W24
 .byte   PEND 
@ 023   ----------------------------------------
 .byte   N48 ,Dn4
 .byte   N48 ,Gn4
 .byte   N48 ,Bn4
 .byte   W48
 .byte   An3
 .byte   N48 ,Dn4
 .byte   N48 ,Fs4
 .byte   W48
@ 024   ----------------------------------------
Label_9_010108F9:
 .byte   N48 ,Cn4 ,v127
 .byte   N48 ,Fs4
 .byte   N48 ,An4
 .byte   W48
 .byte   Dn4
 .byte   N48 ,Fs4
 .byte   N48 ,An4
 .byte   W48
 .byte   PEND 
 .byte   PATT
  .word Label_9_010108B8
@ 025   ----------------------------------------
Label_9_0101090D:
 .byte   N48 ,Dn4 ,v127
 .byte   N48 ,Gn4
 .byte   N48 ,Bn4
 .byte   W48
 .byte   Gn3
 .byte   N48 ,Bn3
 .byte   N48 ,Dn4
 .byte   W48
 .byte   PEND 
 .byte   PATT
  .word Label_9_010108B8
@ 026   ----------------------------------------
Label_9_01010921:
 .byte   N96 ,Bn3 ,v127
 .byte   N96 ,Dn4
 .byte   N96 ,Gn4
 .byte   W96
 .byte   PEND 
@ 027   ----------------------------------------
 .byte   W96
@ 028   ----------------------------------------
 .byte   W96
@ 029   ----------------------------------------
 .byte   W96
@ 030   ----------------------------------------
 .byte   W96
@ 031   ----------------------------------------
 .byte   W96
@ 032   ----------------------------------------
 .byte   W96
@ 033   ----------------------------------------
 .byte   W96
@ 034   ----------------------------------------
 .byte   W96
@ 035   ----------------------------------------
 .byte   W96
@ 036   ----------------------------------------
 .byte   W96
@ 037   ----------------------------------------
 .byte   W96
@ 038   ----------------------------------------
 .byte   W96
@ 039   ----------------------------------------
 .byte   W96
@ 040   ----------------------------------------
 .byte   W96
@ 041   ----------------------------------------
 .byte   W96
@ 042   ----------------------------------------
 .byte   W96
@ 043   ----------------------------------------
 .byte   W96
@ 044   ----------------------------------------
 .byte   W96
@ 045   ----------------------------------------
 .byte   W96
@ 046   ----------------------------------------
 .byte   W96
@ 047   ----------------------------------------
 .byte   W96
@ 048   ----------------------------------------
 .byte   W96
@ 049   ----------------------------------------
 .byte   W96
@ 050   ----------------------------------------
 .byte   W96
 .byte   PATT
  .word Label_9_01010865
@ 051   ----------------------------------------
 .byte   W96
@ 052   ----------------------------------------
 .byte   EOT
 .byte   Dn4 ,v079
 .byte   Bn4
 .byte   PATT
  .word Label_9_01010874
 .byte   PATT
  .word Label_9_01010884
 .byte   PATT
  .word Label_9_01010897
 .byte   PATT
  .word Label_9_010108A9
 .byte   PATT
  .word Label_9_010108B8
 .byte   PATT
  .word Label_9_010108C7
@ 053   ----------------------------------------
 .byte   W96
 .byte   PATT
  .word Label_9_010108B8
 .byte   PATT
  .word Label_9_010108D6
 .byte   PATT
  .word Label_9_010108B8
 .byte   PATT
  .word Label_9_010108F9
 .byte   PATT
  .word Label_9_010108B8
 .byte   PATT
  .word Label_9_0101090D
 .byte   PATT
  .word Label_9_010108B8
 .byte   PATT
  .word Label_9_01010921
 .byte   PATT
  .word Label_9_010108B8
 .byte   PATT
  .word Label_9_010108D6
 .byte   PATT
  .word Label_9_010108B8
 .byte   PATT
  .word Label_9_010108F9
 .byte   PATT
  .word Label_9_010108B8
@ 054   ----------------------------------------
 .byte   N48 ,Dn4 ,v127
 .byte   N48 ,Gn4
 .byte   N48 ,Bn4
 .byte   W48
 .byte   Bn3
 .byte   N48 ,En4
 .byte   N48 ,Gn4
 .byte   W48
 .byte   PATT
  .word Label_9_010108B8
@ 055   ----------------------------------------
 .byte   N48 ,Dn4 ,v127
 .byte   N48 ,Gn4
 .byte   N48 ,Bn4
 .byte   W48
 .byte   Dn4
 .byte   N48 ,Gn4
 .byte   N48 ,Bn4
 .byte   W48
 .byte   PATT
  .word Label_9_010108B8
@ 056   ----------------------------------------
 .byte   N48 ,Dn4 ,v127
 .byte   N48 ,Gn4
 .byte   N48 ,Bn4
 .byte   W96
@ 057   ----------------------------------------
 .byte   W96
@ 058   ----------------------------------------
 .byte   W96
@ 059   ----------------------------------------
 .byte   W96
@ 060   ----------------------------------------
 .byte   W96
@ 061   ----------------------------------------
 .byte   W96
@ 062   ----------------------------------------
 .byte   W48
 .byte   GOTO
  .word Label_9_0101085C
 .byte   FINE

@**************** Track 11 (Midi-Chn.10) ****************@

song46_011:
@ 000   ----------------------------------------
 .byte   VOL , 65*song46_mvl/mxv
 .byte   KEYSH , song46_key+0
 .byte   VOICE , 0
 .byte   W96
@ 001   ----------------------------------------
 .byte   W96
@ 002   ----------------------------------------
 .byte   W96
@ 003   ----------------------------------------
 .byte   W96
@ 004   ----------------------------------------
 .byte   W54
Label_10_010109F1:
 .byte   W42
@ 005   ----------------------------------------
 .byte   W96
@ 006   ----------------------------------------
 .byte   W96
@ 007   ----------------------------------------
 .byte   W96
@ 008   ----------------------------------------
 .byte   W96
@ 009   ----------------------------------------
 .byte   W96
@ 010   ----------------------------------------
 .byte   W96
@ 011   ----------------------------------------
 .byte   W96
@ 012   ----------------------------------------
 .byte   W96
@ 013   ----------------------------------------
Label_10_010109FA:
 .byte   N12 ,GsM2 ,v127
 .byte   N12 ,AnM2
 .byte   N06 ,AsM2
 .byte   W06
 .byte   N06
 .byte   W06
 .byte   N06
 .byte   W06
 .byte   N06
 .byte   W06
 .byte   N12 ,BnM2
 .byte   N12 ,CnM1
 .byte   N06 ,AsM2
 .byte   W06
 .byte   N06
 .byte   W06
 .byte   N06
 .byte   W06
 .byte   N06
 .byte   W06
 .byte   N12 ,GsM2
 .byte   N12 ,AnM2
 .byte   N06 ,AsM2
 .byte   W06
 .byte   N06
 .byte   W06
 .byte   N12 ,GsM2
 .byte   N12 ,AnM2
 .byte   N06 ,AsM2
 .byte   W06
 .byte   N06
 .byte   W06
 .byte   N12 ,BnM2
 .byte   N12 ,CnM1
 .byte   N06 ,AsM2
 .byte   W06
 .byte   N06
 .byte   W06
 .byte   N06
 .byte   W06
 .byte   N06
 .byte   W06
 .byte   PEND 
 .byte   PATT
  .word Label_10_010109FA
 .byte   PATT
  .word Label_10_010109FA
 .byte   PATT
  .word Label_10_010109FA
 .byte   PATT
  .word Label_10_010109FA
 .byte   PATT
  .word Label_10_010109FA
 .byte   PATT
  .word Label_10_010109FA
@ 014   ----------------------------------------
 .byte   W96
@ 015   ----------------------------------------
 .byte   W96
 .byte   PATT
  .word Label_10_010109FA
 .byte   PATT
  .word Label_10_010109FA
 .byte   PATT
  .word Label_10_010109FA
 .byte   PATT
  .word Label_10_010109FA
 .byte   PATT
  .word Label_10_010109FA
 .byte   PATT
  .word Label_10_010109FA
 .byte   PATT
  .word Label_10_010109FA
 .byte   PATT
  .word Label_10_010109FA
@ 016   ----------------------------------------
 .byte   W96
@ 017   ----------------------------------------
 .byte   W96
@ 018   ----------------------------------------
 .byte   W96
@ 019   ----------------------------------------
 .byte   W96
@ 020   ----------------------------------------
 .byte   W96
@ 021   ----------------------------------------
 .byte   W96
@ 022   ----------------------------------------
 .byte   W96
@ 023   ----------------------------------------
 .byte   W96
@ 024   ----------------------------------------
 .byte   W96
@ 025   ----------------------------------------
 .byte   W96
@ 026   ----------------------------------------
 .byte   W96
@ 027   ----------------------------------------
 .byte   W96
@ 028   ----------------------------------------
 .byte   W96
@ 029   ----------------------------------------
 .byte   W96
@ 030   ----------------------------------------
Label_10_01010A8B:
 .byte   N12 ,GsM2 ,v127
 .byte   N12 ,AnM2
 .byte   N06 ,AsM2
 .byte   W06
 .byte   N06
 .byte   W06
 .byte   N12 ,GsM2
 .byte   N12 ,AnM2
 .byte   N06 ,AsM2
 .byte   W06
 .byte   N06
 .byte   W06
 .byte   N12 ,BnM2
 .byte   N12 ,CnM1
 .byte   N06 ,AsM2
 .byte   W06
 .byte   N06
 .byte   W06
 .byte   GsM2
 .byte   N06 ,AnM2
 .byte   N06 ,AsM2
 .byte   W06
 .byte   GsM2
 .byte   N06 ,AnM2
 .byte   N06 ,AsM2
 .byte   W06
 .byte   N12 ,GsM2
 .byte   N12 ,AnM2
 .byte   N06 ,AsM2
 .byte   W06
 .byte   N06
 .byte   W06
 .byte   N12 ,GsM2
 .byte   N12 ,AnM2
 .byte   N06 ,AsM2
 .byte   W06
 .byte   N06
 .byte   W06
 .byte   N12 ,BnM2
 .byte   N12 ,CnM1
 .byte   N06 ,AsM2
 .byte   W06
 .byte   N06
 .byte   W06
 .byte   GsM2
 .byte   N06 ,AnM2
 .byte   N06 ,AsM2
 .byte   W06
 .byte   GsM2
 .byte   N01 ,AnM2
 .byte   N04 ,AsM2
 .byte   W06
 .byte   PEND 
 .byte   PATT
  .word Label_10_01010A8B
 .byte   PATT
  .word Label_10_01010A8B
 .byte   PATT
  .word Label_10_01010A8B
 .byte   PATT
  .word Label_10_01010A8B
 .byte   PATT
  .word Label_10_01010A8B
 .byte   PATT
  .word Label_10_01010A8B
 .byte   PATT
  .word Label_10_01010A8B
@ 031   ----------------------------------------
 .byte   W96
@ 032   ----------------------------------------
 .byte   W96
 .byte   PATT
  .word Label_10_010109FA
 .byte   PATT
  .word Label_10_010109FA
 .byte   PATT
  .word Label_10_010109FA
 .byte   PATT
  .word Label_10_010109FA
 .byte   PATT
  .word Label_10_010109FA
 .byte   PATT
  .word Label_10_010109FA
 .byte   PATT
  .word Label_10_010109FA
 .byte   PATT
  .word Label_10_010109FA
 .byte   PATT
  .word Label_10_010109FA
 .byte   PATT
  .word Label_10_010109FA
 .byte   PATT
  .word Label_10_010109FA
 .byte   PATT
  .word Label_10_010109FA
 .byte   PATT
  .word Label_10_010109FA
 .byte   PATT
  .word Label_10_010109FA
 .byte   PATT
  .word Label_10_010109FA
 .byte   PATT
  .word Label_10_010109FA
 .byte   PATT
  .word Label_10_010109FA
 .byte   PATT
  .word Label_10_010109FA
 .byte   PATT
  .word Label_10_010109FA
 .byte   PATT
  .word Label_10_010109FA
 .byte   PATT
  .word Label_10_010109FA
 .byte   PATT
  .word Label_10_010109FA
 .byte   PATT
  .word Label_10_010109FA
 .byte   PATT
  .word Label_10_010109FA
 .byte   PATT
  .word Label_10_010109FA
 .byte   PATT
  .word Label_10_010109FA
 .byte   PATT
  .word Label_10_010109FA
@ 033   ----------------------------------------
Label_10_01010B87:
 .byte   N24 ,GsM2 ,v127
 .byte   N12 ,AsM2
 .byte   W12
 .byte   N12
 .byte   W12
 .byte   N24 ,GsM2
 .byte   N12 ,AsM2
 .byte   W12
 .byte   N12
 .byte   W12
 .byte   N12
 .byte   W12
 .byte   N12
 .byte   W12
 .byte   N24 ,BnM2
 .byte   N12 ,AsM2
 .byte   W12
 .byte   N12
 .byte   W12
 .byte   PEND 
@ 034   ----------------------------------------
Label_10_01010BA2:
 .byte   N24 ,GsM2 ,v127
 .byte   N12 ,AsM2
 .byte   W12
 .byte   N12
 .byte   W12
 .byte   N24 ,GsM2
 .byte   N12 ,AsM2
 .byte   W12
 .byte   N12
 .byte   W12
 .byte   N24 ,GsM2
 .byte   N12 ,AsM2
 .byte   W12
 .byte   N12
 .byte   W12
 .byte   N24 ,BnM2
 .byte   N12 ,AsM2
 .byte   W12
 .byte   N12
 .byte   W12
 .byte   PEND 
 .byte   PATT
  .word Label_10_01010B87
 .byte   PATT
  .word Label_10_01010BA2
@ 035   ----------------------------------------
 .byte   W96
@ 036   ----------------------------------------
 .byte   W48
 .byte   GOTO
  .word Label_10_010109F1
 .byte   FINE

@******************************************************@
	.align	2

song46:
	.byte	11	@ NumTrks
	.byte	0	@ NumBlks
	.byte	song46_pri	@ Priority
	.byte	song46_rev	@ Reverb.
    
	.word	song46_grp
    
	.word	song46_001
	.word	song46_002
	.word	song46_003
	.word	song46_004
	.word	song46_005
	.word	song46_006
	.word	song46_007
	.word	song46_008
	.word	song46_009
	.word	song46_010
	.word	song46_011

	.end
