	.include "MPlayDef.s"

	.equ	songC0_grp, voicegroup000
	.equ	songC0_pri, 0
	.equ	songC0_rev, 0
	.equ	songC0_mvl, 127
	.equ	songC0_key, 0
	.equ	songC0_tbs, 1
	.equ	songC0_exg, 0
	.equ	songC0_cmp, 1

	.section .rodata
	.global	songC0
	.align	2


@**************** Track 1 (Midi-Chn.0) ****************@

songC0_001:
@ 000   ----------------------------------------
 .byte   KEYSH , songC0_key+0
Label_0_01185B56:
 .byte   TEMPO , 122*songC0_tbs/2
 .byte   VOICE , 30
 .byte   VOL , 50*songC0_mvl/mxv
 .byte   PAN , c_v+0
 .byte   N48 ,Bn0 ,v100
 .byte   N48 ,Bn1 ,v072
 .byte   W48
 .byte   Cn1 ,v100
 .byte   N48 ,Cn2 ,v072
 .byte   W48
@ 001   ----------------------------------------
Label_0_01185B6B:
 .byte   N24 ,Cs1 ,v100
 .byte   N24 ,Cs2 ,v072
 .byte   W96
 .byte   PEND 
@ 002   ----------------------------------------
Label_0_01185B73:
 .byte   N24 ,Cn1 ,v100
 .byte   N24 ,Cn2 ,v072
 .byte   W96
 .byte   PEND 
@ 003   ----------------------------------------
 .byte   W96
@ 004   ----------------------------------------
Label_0_01185B7C:
 .byte   N48 ,Bn0 ,v100
 .byte   N48 ,Bn1 ,v072
 .byte   W48
 .byte   Cn1 ,v100
 .byte   N48 ,Cn2 ,v072
 .byte   W48
 .byte   PEND 
@ 005   ----------------------------------------
Label_0_01185B8A:
 .byte   N24 ,Cs1 ,v100
 .byte   N24 ,Cs2 ,v072
 .byte   W48
 .byte   N48 ,Fs1 ,v100
 .byte   N48 ,Fs2 ,v072
 .byte   W48
 .byte   PEND 
@ 006   ----------------------------------------
Label_0_01185B99:
 .byte   N48 ,Cn1 ,v100
 .byte   N48 ,Cn2 ,v072
 .byte   W48
 .byte   Gs1 ,v100
 .byte   N48 ,Gs2 ,v072
 .byte   W48
 .byte   PEND 
@ 007   ----------------------------------------
Label_0_01185BA7:
 .byte   N36 ,Dn1 ,v100
 .byte   N36 ,Dn2 ,v072
 .byte   W36
 .byte   N60 ,Fn1 ,v100
 .byte   N60 ,Fn2 ,v072
 .byte   W60
 .byte   PEND 
@ 008   ----------------------------------------
 .byte   PATT
  .word Label_0_01185B99
@ 009   ----------------------------------------
 .byte   PATT
  .word Label_0_01185BA7
@ 010   ----------------------------------------
 .byte   W96
@ 011   ----------------------------------------
 .byte   W96
@ 012   ----------------------------------------
 .byte   W96
@ 013   ----------------------------------------
 .byte   W96
@ 014   ----------------------------------------
 .byte   N48 ,Bn0 ,v100
 .byte   N48 ,Bn1 ,v072
 .byte   W48
 .byte   Cn1 ,v100
 .byte   N48 ,Cn2 ,v072
 .byte   W48
@ 015   ----------------------------------------
 .byte   PATT
  .word Label_0_01185B6B
@ 016   ----------------------------------------
 .byte   PATT
  .word Label_0_01185B73
@ 017   ----------------------------------------
 .byte   W96
@ 018   ----------------------------------------
 .byte   PATT
  .word Label_0_01185B7C
@ 019   ----------------------------------------
 .byte   PATT
  .word Label_0_01185B8A
@ 020   ----------------------------------------
 .byte   N48 ,Cn1 ,v100
 .byte   W48
 .byte   Gs1
 .byte   W48
@ 021   ----------------------------------------
 .byte   N36 ,Dn1
 .byte   W36
 .byte   N60 ,Fn1
 .byte   W60
@ 022   ----------------------------------------
Label_0_01185BF2:
 .byte   N06 ,Bn0 ,v100
 .byte   W12
 .byte   N06
 .byte   W84
 .byte   PEND 
@ 023   ----------------------------------------
 .byte   N06
 .byte   W96
@ 024   ----------------------------------------
 .byte   PATT
  .word Label_0_01185BF2
@ 025   ----------------------------------------
 .byte   N06 ,Bn0 ,v100
 .byte   W96
@ 026   ----------------------------------------
Label_0_01185C04:
 .byte   N24 ,Bn0 ,v100
 .byte   W24
 .byte   N24
 .byte   W72
 .byte   PEND 
@ 027   ----------------------------------------
Label_0_01185C0B:
 .byte   N24 ,Dn1 ,v100
 .byte   W24
 .byte   N24
 .byte   W72
 .byte   PEND 
@ 028   ----------------------------------------
 .byte   PATT
  .word Label_0_01185C04
@ 029   ----------------------------------------
 .byte   PATT
  .word Label_0_01185C0B
@ 030   ----------------------------------------
 .byte   PATT
  .word Label_0_01185C04
@ 031   ----------------------------------------
 .byte   PATT
  .word Label_0_01185C0B
@ 032   ----------------------------------------
 .byte   W96
@ 033   ----------------------------------------
 .byte   W96
@ 034   ----------------------------------------
 .byte   W96
@ 035   ----------------------------------------
 .byte   W96
@ 036   ----------------------------------------
 .byte   PATT
  .word Label_0_01185B7C
@ 037   ----------------------------------------
 .byte   PATT
  .word Label_0_01185B6B
@ 038   ----------------------------------------
 .byte   PATT
  .word Label_0_01185B73
@ 039   ----------------------------------------
 .byte   W96
@ 040   ----------------------------------------
 .byte   PATT
  .word Label_0_01185B7C
@ 041   ----------------------------------------
 .byte   PATT
  .word Label_0_01185B8A
@ 042   ----------------------------------------
 .byte   N48 ,Cn1 ,v100
 .byte   N48 ,Cn2
 .byte   W48
 .byte   Gs1
 .byte   N48 ,Gs2
 .byte   W48
@ 043   ----------------------------------------
 .byte   N36 ,Dn1
 .byte   N36 ,Dn2
 .byte   W36
 .byte   N60 ,Fn1
 .byte   N60 ,Fn2
 .byte   W60
@ 044   ----------------------------------------
 .byte   PATT
  .word Label_0_01185BF2
@ 045   ----------------------------------------
 .byte   N06 ,Bn0 ,v100
 .byte   W96
@ 046   ----------------------------------------
 .byte   PATT
  .word Label_0_01185BF2
@ 047   ----------------------------------------
 .byte   N06 ,Bn0 ,v100
 .byte   W96
@ 048   ----------------------------------------
 .byte   W96
@ 049   ----------------------------------------
 .byte   W96
@ 050   ----------------------------------------
 .byte   W96
@ 051   ----------------------------------------
 .byte   W96
@ 052   ----------------------------------------
 .byte   W96
@ 053   ----------------------------------------
 .byte   W96
@ 054   ----------------------------------------
 .byte   W96
@ 055   ----------------------------------------
 .byte   W96
@ 056   ----------------------------------------
 .byte   W96
@ 057   ----------------------------------------
 .byte   W96
@ 058   ----------------------------------------
 .byte   W96
@ 059   ----------------------------------------
 .byte   W96
@ 060   ----------------------------------------
 .byte   W96
@ 061   ----------------------------------------
 .byte   W96
@ 062   ----------------------------------------
 .byte   W96
@ 063   ----------------------------------------
 .byte   W96
@ 064   ----------------------------------------
 .byte   W96
@ 065   ----------------------------------------
 .byte   W96
@ 066   ----------------------------------------
 .byte   W96
@ 067   ----------------------------------------
 .byte   W96
@ 068   ----------------------------------------
 .byte   W96
@ 069   ----------------------------------------
 .byte   W84
 .byte   W03
 .byte   GOTO
  .word Label_0_01185B56
 .byte   FINE

@**************** Track 2 (Midi-Chn.1) ****************@

songC0_002:
@ 000   ----------------------------------------
 .byte   KEYSH , songC0_key+0
Label_1_01185C8A:
 .byte   VOICE , 81
 .byte   VOL , 50*songC0_mvl/mxv
 .byte   PAN , c_v+0
 .byte   W96
@ 001   ----------------------------------------
 .byte   W96
@ 002   ----------------------------------------
 .byte   W96
@ 003   ----------------------------------------
 .byte   W96
@ 004   ----------------------------------------
 .byte   W96
@ 005   ----------------------------------------
 .byte   W96
@ 006   ----------------------------------------
 .byte   W96
@ 007   ----------------------------------------
 .byte   W96
@ 008   ----------------------------------------
 .byte   W96
@ 009   ----------------------------------------
 .byte   W96
@ 010   ----------------------------------------
 .byte   W96
@ 011   ----------------------------------------
 .byte   W96
@ 012   ----------------------------------------
 .byte   W96
@ 013   ----------------------------------------
 .byte   W96
@ 014   ----------------------------------------
 .byte   W96
@ 015   ----------------------------------------
 .byte   W96
@ 016   ----------------------------------------
 .byte   W96
@ 017   ----------------------------------------
 .byte   W96
@ 018   ----------------------------------------
 .byte   W96
@ 019   ----------------------------------------
 .byte   W96
@ 020   ----------------------------------------
Label_1_01185CA4:
 .byte   N48 ,Cn1 ,v100
 .byte   W48
 .byte   Gs1
 .byte   W48
 .byte   PEND 
@ 021   ----------------------------------------
Label_1_01185CAB:
 .byte   N36 ,Dn1 ,v100
 .byte   W36
 .byte   N60 ,Fn1
 .byte   W60
 .byte   PEND 
@ 022   ----------------------------------------
Label_1_01185CB3:
 .byte   N12 ,Bn0 ,v100
 .byte   W12
 .byte   N12
 .byte   W84
 .byte   PEND 
@ 023   ----------------------------------------
 .byte   N12
 .byte   W96
@ 024   ----------------------------------------
 .byte   PATT
  .word Label_1_01185CB3
@ 025   ----------------------------------------
 .byte   N12 ,Bn0 ,v100
 .byte   W96
@ 026   ----------------------------------------
 .byte   W96
@ 027   ----------------------------------------
 .byte   W96
@ 028   ----------------------------------------
 .byte   W96
@ 029   ----------------------------------------
 .byte   W96
@ 030   ----------------------------------------
 .byte   W96
@ 031   ----------------------------------------
 .byte   W96
@ 032   ----------------------------------------
 .byte   W96
@ 033   ----------------------------------------
 .byte   W96
@ 034   ----------------------------------------
 .byte   W96
@ 035   ----------------------------------------
 .byte   W96
@ 036   ----------------------------------------
 .byte   W96
@ 037   ----------------------------------------
 .byte   W96
@ 038   ----------------------------------------
 .byte   W96
@ 039   ----------------------------------------
 .byte   W96
@ 040   ----------------------------------------
 .byte   W96
@ 041   ----------------------------------------
 .byte   W96
@ 042   ----------------------------------------
 .byte   PATT
  .word Label_1_01185CA4
@ 043   ----------------------------------------
 .byte   PATT
  .word Label_1_01185CAB
@ 044   ----------------------------------------
 .byte   PATT
  .word Label_1_01185CB3
@ 045   ----------------------------------------
 .byte   N12 ,Bn0 ,v100
 .byte   W96
@ 046   ----------------------------------------
 .byte   PATT
  .word Label_1_01185CB3
@ 047   ----------------------------------------
 .byte   N12 ,Bn0 ,v100
 .byte   W96
@ 048   ----------------------------------------
 .byte   W96
@ 049   ----------------------------------------
 .byte   W96
@ 050   ----------------------------------------
 .byte   W96
@ 051   ----------------------------------------
 .byte   W96
@ 052   ----------------------------------------
 .byte   W96
@ 053   ----------------------------------------
 .byte   W96
@ 054   ----------------------------------------
 .byte   W96
@ 055   ----------------------------------------
 .byte   W96
@ 056   ----------------------------------------
 .byte   W96
@ 057   ----------------------------------------
 .byte   W96
@ 058   ----------------------------------------
 .byte   W96
@ 059   ----------------------------------------
 .byte   W96
@ 060   ----------------------------------------
 .byte   W96
@ 061   ----------------------------------------
 .byte   W96
@ 062   ----------------------------------------
 .byte   W96
@ 063   ----------------------------------------
 .byte   W96
@ 064   ----------------------------------------
 .byte   W96
@ 065   ----------------------------------------
 .byte   W96
@ 066   ----------------------------------------
 .byte   W96
@ 067   ----------------------------------------
 .byte   W96
@ 068   ----------------------------------------
 .byte   W96
@ 069   ----------------------------------------
 .byte   W84
 .byte   W03
 .byte   GOTO
  .word Label_1_01185C8A
 .byte   FINE

@**************** Track 3 (Midi-Chn.2) ****************@

songC0_003:
@ 000   ----------------------------------------
 .byte   KEYSH , songC0_key+0
Label_2_01185D12:
 .byte   VOICE , 61
 .byte   VOL , 50*songC0_mvl/mxv
 .byte   PAN , c_v+0
 .byte   W96
@ 001   ----------------------------------------
 .byte   W96
@ 002   ----------------------------------------
 .byte   W96
@ 003   ----------------------------------------
 .byte   W96
@ 004   ----------------------------------------
 .byte   W96
@ 005   ----------------------------------------
 .byte   W96
@ 006   ----------------------------------------
 .byte   W96
@ 007   ----------------------------------------
 .byte   W96
@ 008   ----------------------------------------
 .byte   W96
@ 009   ----------------------------------------
 .byte   W96
@ 010   ----------------------------------------
 .byte   W96
@ 011   ----------------------------------------
 .byte   W96
@ 012   ----------------------------------------
 .byte   W96
@ 013   ----------------------------------------
 .byte   W96
@ 014   ----------------------------------------
 .byte   W96
@ 015   ----------------------------------------
 .byte   W96
@ 016   ----------------------------------------
 .byte   W96
@ 017   ----------------------------------------
 .byte   W96
@ 018   ----------------------------------------
 .byte   W96
@ 019   ----------------------------------------
 .byte   W96
@ 020   ----------------------------------------
 .byte   W96
@ 021   ----------------------------------------
 .byte   W96
@ 022   ----------------------------------------
Label_2_01185D2E:
 .byte   N12 ,Bn1 ,v100
 .byte   N12 ,Bn2
 .byte   W12
 .byte   Bn1
 .byte   N12 ,Bn2
 .byte   W84
 .byte   PEND 
@ 023   ----------------------------------------
 .byte   Bn1
 .byte   N12 ,Bn2
 .byte   W96
@ 024   ----------------------------------------
 .byte   PATT
  .word Label_2_01185D2E
@ 025   ----------------------------------------
 .byte   N12 ,Bn1 ,v100
 .byte   N12 ,Bn2
 .byte   W96
@ 026   ----------------------------------------
Label_2_01185D48:
 .byte   N24 ,Bn2 ,v100
 .byte   N24 ,Bn3
 .byte   W24
 .byte   N12 ,Bn2
 .byte   N12 ,Bn3
 .byte   W12
 .byte   Fs2
 .byte   N12 ,Fs3
 .byte   W12
 .byte   Cn3
 .byte   N12 ,Cn4
 .byte   W12
 .byte   Bn2
 .byte   N12 ,Bn3
 .byte   W12
 .byte   Fs3
 .byte   N12 ,Fs4
 .byte   W12
 .byte   Fn3
 .byte   N12 ,Fn4
 .byte   W12
 .byte   PEND 
@ 027   ----------------------------------------
Label_2_01185D68:
 .byte   N24 ,Dn3 ,v100
 .byte   N24 ,Dn4
 .byte   W24
 .byte   N12 ,Dn3
 .byte   N12 ,Dn4
 .byte   W12
 .byte   An2
 .byte   N12 ,An3
 .byte   W12
 .byte   Ds3
 .byte   N12 ,Ds4
 .byte   W12
 .byte   Dn3
 .byte   N12 ,Dn4
 .byte   W12
 .byte   An3
 .byte   N12 ,An4
 .byte   W12
 .byte   Gs3
 .byte   N12 ,Gs4
 .byte   W12
 .byte   PEND 
@ 028   ----------------------------------------
 .byte   W96
@ 029   ----------------------------------------
 .byte   W96
@ 030   ----------------------------------------
 .byte   PATT
  .word Label_2_01185D48
@ 031   ----------------------------------------
 .byte   PATT
  .word Label_2_01185D68
@ 032   ----------------------------------------
 .byte   W96
@ 033   ----------------------------------------
 .byte   W96
@ 034   ----------------------------------------
 .byte   W96
@ 035   ----------------------------------------
 .byte   W96
@ 036   ----------------------------------------
 .byte   W96
@ 037   ----------------------------------------
 .byte   W96
@ 038   ----------------------------------------
 .byte   W96
@ 039   ----------------------------------------
 .byte   W96
@ 040   ----------------------------------------
 .byte   W96
@ 041   ----------------------------------------
 .byte   W96
@ 042   ----------------------------------------
 .byte   W96
@ 043   ----------------------------------------
 .byte   W96
@ 044   ----------------------------------------
 .byte   PATT
  .word Label_2_01185D2E
@ 045   ----------------------------------------
 .byte   N12 ,Bn1 ,v100
 .byte   N12 ,Bn2
 .byte   W96
@ 046   ----------------------------------------
 .byte   PATT
  .word Label_2_01185D2E
@ 047   ----------------------------------------
 .byte   N12 ,Bn1 ,v100
 .byte   N12 ,Bn2
 .byte   W96
@ 048   ----------------------------------------
 .byte   W96
@ 049   ----------------------------------------
 .byte   W96
@ 050   ----------------------------------------
 .byte   W96
@ 051   ----------------------------------------
 .byte   W96
@ 052   ----------------------------------------
 .byte   W96
@ 053   ----------------------------------------
 .byte   W96
@ 054   ----------------------------------------
 .byte   W96
@ 055   ----------------------------------------
 .byte   W96
@ 056   ----------------------------------------
 .byte   W96
@ 057   ----------------------------------------
 .byte   W96
@ 058   ----------------------------------------
 .byte   N36 ,Dn2 ,v127
 .byte   W36
 .byte   Cs2
 .byte   W36
 .byte   N24 ,Bn1
 .byte   W24
@ 059   ----------------------------------------
 .byte   N96 ,Gs1
 .byte   W96
@ 060   ----------------------------------------
 .byte   W96
@ 061   ----------------------------------------
 .byte   W96
@ 062   ----------------------------------------
 .byte   W96
@ 063   ----------------------------------------
 .byte   W96
@ 064   ----------------------------------------
 .byte   W96
@ 065   ----------------------------------------
 .byte   W96
@ 066   ----------------------------------------
 .byte   W96
@ 067   ----------------------------------------
 .byte   W96
@ 068   ----------------------------------------
 .byte   W96
@ 069   ----------------------------------------
 .byte   W84
 .byte   W03
 .byte   GOTO
  .word Label_2_01185D12
 .byte   FINE

@**************** Track 4 (Midi-Chn.3) ****************@

songC0_004:
@ 000   ----------------------------------------
 .byte   KEYSH , songC0_key+0
Label_3_01185DE2:
 .byte   VOICE , 1
 .byte   VOL , 50*songC0_mvl/mxv
 .byte   PAN , c_v+0
 .byte   W96
@ 001   ----------------------------------------
 .byte   W96
@ 002   ----------------------------------------
 .byte   W96
@ 003   ----------------------------------------
 .byte   W96
@ 004   ----------------------------------------
 .byte   W96
@ 005   ----------------------------------------
 .byte   W96
@ 006   ----------------------------------------
 .byte   W96
@ 007   ----------------------------------------
 .byte   W96
@ 008   ----------------------------------------
 .byte   W96
@ 009   ----------------------------------------
 .byte   W96
@ 010   ----------------------------------------
 .byte   W96
@ 011   ----------------------------------------
 .byte   W96
@ 012   ----------------------------------------
 .byte   W96
@ 013   ----------------------------------------
 .byte   W96
@ 014   ----------------------------------------
 .byte   W96
@ 015   ----------------------------------------
 .byte   W96
@ 016   ----------------------------------------
 .byte   W96
@ 017   ----------------------------------------
 .byte   W96
@ 018   ----------------------------------------
 .byte   W96
@ 019   ----------------------------------------
 .byte   W96
@ 020   ----------------------------------------
 .byte   W96
@ 021   ----------------------------------------
 .byte   W96
@ 022   ----------------------------------------
 .byte   W96
@ 023   ----------------------------------------
 .byte   W96
@ 024   ----------------------------------------
 .byte   W96
@ 025   ----------------------------------------
 .byte   W96
@ 026   ----------------------------------------
 .byte   W96
@ 027   ----------------------------------------
 .byte   W96
@ 028   ----------------------------------------
 .byte   W96
@ 029   ----------------------------------------
Label_3_01185E05:
 .byte   W60
 .byte   N06 ,BnM1 ,v127
 .byte   N06 ,Bn0
 .byte   W06
 .byte   BnM1
 .byte   N06 ,Bn0
 .byte   W06
 .byte   Cn0
 .byte   N06 ,Cn1
 .byte   W06
 .byte   AnM1
 .byte   N06 ,An0
 .byte   W06
 .byte   N12 ,BnM1
 .byte   N12 ,Bn0
 .byte   W12
 .byte   PEND 
@ 030   ----------------------------------------
 .byte   W96
@ 031   ----------------------------------------
 .byte   W96
@ 032   ----------------------------------------
 .byte   W96
@ 033   ----------------------------------------
 .byte   PATT
  .word Label_3_01185E05
@ 034   ----------------------------------------
 .byte   W96
@ 035   ----------------------------------------
 .byte   W96
@ 036   ----------------------------------------
 .byte   W96
@ 037   ----------------------------------------
 .byte   W96
@ 038   ----------------------------------------
 .byte   W96
@ 039   ----------------------------------------
 .byte   PATT
  .word Label_3_01185E05
@ 040   ----------------------------------------
 .byte   W96
@ 041   ----------------------------------------
 .byte   W96
@ 042   ----------------------------------------
 .byte   W96
@ 043   ----------------------------------------
 .byte   W96
@ 044   ----------------------------------------
 .byte   W96
@ 045   ----------------------------------------
 .byte   W96
@ 046   ----------------------------------------
 .byte   W96
@ 047   ----------------------------------------
 .byte   W96
@ 048   ----------------------------------------
 .byte   W96
@ 049   ----------------------------------------
 .byte   W96
@ 050   ----------------------------------------
 .byte   W96
@ 051   ----------------------------------------
 .byte   W96
@ 052   ----------------------------------------
 .byte   W96
@ 053   ----------------------------------------
 .byte   W96
@ 054   ----------------------------------------
 .byte   W96
@ 055   ----------------------------------------
 .byte   W96
@ 056   ----------------------------------------
 .byte   W96
@ 057   ----------------------------------------
 .byte   W96
@ 058   ----------------------------------------
 .byte   N36 ,Dn1 ,v127
 .byte   W36
 .byte   Cs1
 .byte   W36
 .byte   N24 ,Bn0
 .byte   W24
@ 059   ----------------------------------------
 .byte   N96 ,Gs0
 .byte   W96
@ 060   ----------------------------------------
 .byte   W96
@ 061   ----------------------------------------
 .byte   W96
@ 062   ----------------------------------------
 .byte   W96
@ 063   ----------------------------------------
 .byte   W96
@ 064   ----------------------------------------
 .byte   W96
@ 065   ----------------------------------------
 .byte   W96
@ 066   ----------------------------------------
 .byte   W96
@ 067   ----------------------------------------
 .byte   W96
@ 068   ----------------------------------------
 .byte   W96
@ 069   ----------------------------------------
 .byte   W84
 .byte   W03
 .byte   GOTO
  .word Label_3_01185DE2
 .byte   FINE

@**************** Track 5 (Midi-Chn.4) ****************@

songC0_005:
@ 000   ----------------------------------------
 .byte   KEYSH , songC0_key+0
Label_4_01185E62:
 .byte   VOICE , 48
 .byte   VOL , 50*songC0_mvl/mxv
 .byte   PAN , c_v+0
 .byte   W96
@ 001   ----------------------------------------
 .byte   W96
@ 002   ----------------------------------------
 .byte   W96
@ 003   ----------------------------------------
 .byte   W96
@ 004   ----------------------------------------
 .byte   W96
@ 005   ----------------------------------------
 .byte   W96
@ 006   ----------------------------------------
 .byte   W96
@ 007   ----------------------------------------
 .byte   W96
@ 008   ----------------------------------------
 .byte   W96
@ 009   ----------------------------------------
 .byte   W96
@ 010   ----------------------------------------
 .byte   W96
@ 011   ----------------------------------------
 .byte   W96
@ 012   ----------------------------------------
 .byte   W96
@ 013   ----------------------------------------
 .byte   W96
@ 014   ----------------------------------------
 .byte   W96
@ 015   ----------------------------------------
 .byte   W96
@ 016   ----------------------------------------
 .byte   W96
@ 017   ----------------------------------------
 .byte   W96
@ 018   ----------------------------------------
 .byte   W96
@ 019   ----------------------------------------
 .byte   W96
@ 020   ----------------------------------------
 .byte   W96
@ 021   ----------------------------------------
 .byte   W96
@ 022   ----------------------------------------
 .byte   W96
@ 023   ----------------------------------------
 .byte   W96
@ 024   ----------------------------------------
 .byte   W96
@ 025   ----------------------------------------
 .byte   W96
@ 026   ----------------------------------------
 .byte   W96
@ 027   ----------------------------------------
 .byte   W96
@ 028   ----------------------------------------
 .byte   W96
@ 029   ----------------------------------------
 .byte   W96
@ 030   ----------------------------------------
 .byte   W96
@ 031   ----------------------------------------
 .byte   W96
@ 032   ----------------------------------------
 .byte   W96
@ 033   ----------------------------------------
 .byte   W96
@ 034   ----------------------------------------
 .byte   W96
@ 035   ----------------------------------------
 .byte   W96
@ 036   ----------------------------------------
 .byte   W96
@ 037   ----------------------------------------
 .byte   W96
@ 038   ----------------------------------------
 .byte   W96
@ 039   ----------------------------------------
 .byte   W96
@ 040   ----------------------------------------
 .byte   W96
@ 041   ----------------------------------------
 .byte   W96
@ 042   ----------------------------------------
 .byte   W96
@ 043   ----------------------------------------
 .byte   W96
@ 044   ----------------------------------------
 .byte   W96
@ 045   ----------------------------------------
 .byte   W96
@ 046   ----------------------------------------
 .byte   W96
@ 047   ----------------------------------------
 .byte   W96
@ 048   ----------------------------------------
 .byte   TIE ,Bn0 ,v100
 .byte   W96
@ 049   ----------------------------------------
 .byte   W96
@ 050   ----------------------------------------
 .byte   W96
@ 051   ----------------------------------------
 .byte   W96
@ 052   ----------------------------------------
 .byte   EOT
Label_4_01185EA0:
 .byte   TIE ,Bn0 ,v100
 .byte   N36 ,Gn2
 .byte   N36 ,Bn2
 .byte   W36
 .byte   Fs2
 .byte   N36 ,Dn3
 .byte   W36
 .byte   N24 ,Dn2
 .byte   N24 ,As3
 .byte   W24
 .byte   PEND 
@ 053   ----------------------------------------
 .byte   N96 ,Fn2
 .byte   N96 ,An3
 .byte   W96
@ 054   ----------------------------------------
 .byte   W96
@ 055   ----------------------------------------
 .byte   W96
@ 056   ----------------------------------------
 .byte   EOT
 .byte   Bn0
 .byte   TIE
 .byte   N36 ,An2
 .byte   N36 ,Dn3
 .byte   W36
 .byte   As2
 .byte   N36 ,Cs3
 .byte   W36
 .byte   N24 ,Fs2
 .byte   N24 ,Bn2
 .byte   W24
@ 057   ----------------------------------------
 .byte   N96 ,Dn2 ,v072
 .byte   N96 ,Gs2 ,v100
 .byte   W96
@ 058   ----------------------------------------
 .byte   W96
@ 059   ----------------------------------------
 .byte   W96
@ 060   ----------------------------------------
 .byte   EOT
 .byte   Bn0
@ 061   ----------------------------------------
 .byte   PATT
  .word Label_4_01185EA0
@ 062   ----------------------------------------
 .byte   N96 ,Fn2 ,v100
 .byte   N96 ,An3
 .byte   W96
@ 063   ----------------------------------------
 .byte   W96
@ 064   ----------------------------------------
 .byte   W96
@ 065   ----------------------------------------
 .byte   EOT
 .byte   Bn0
 .byte   TIE
 .byte   N36 ,An2
 .byte   N36 ,Dn3
 .byte   W36
 .byte   As2
 .byte   N36 ,Cs3
 .byte   W36
 .byte   N24 ,Fs2
 .byte   N24 ,As2
 .byte   W24
@ 066   ----------------------------------------
 .byte   N96 ,Bn1 ,v072
 .byte   N96 ,Bn2 ,v100
 .byte   W96
@ 067   ----------------------------------------
 .byte   W96
@ 068   ----------------------------------------
 .byte   W96
@ 069   ----------------------------------------
 .byte   W96
@ 070   ----------------------------------------
 .byte   W48
 .byte   EOT
 .byte   Bn0
 .byte   W36
 .byte   W03
 .byte   GOTO
  .word Label_4_01185E62
 .byte   FINE

@**************** Track 6 (Midi-Chn.5) ****************@

songC0_006:
@ 000   ----------------------------------------
 .byte   KEYSH , songC0_key+0
Label_5_01185F0A:
 .byte   VOICE , 10
 .byte   VOL , 50*songC0_mvl/mxv
 .byte   PAN , c_v+0
 .byte   W96
@ 001   ----------------------------------------
 .byte   W96
@ 002   ----------------------------------------
 .byte   W96
@ 003   ----------------------------------------
 .byte   W96
@ 004   ----------------------------------------
 .byte   W96
@ 005   ----------------------------------------
 .byte   W96
@ 006   ----------------------------------------
 .byte   W96
@ 007   ----------------------------------------
 .byte   W96
@ 008   ----------------------------------------
 .byte   W96
@ 009   ----------------------------------------
 .byte   W96
@ 010   ----------------------------------------
 .byte   W96
@ 011   ----------------------------------------
 .byte   W96
@ 012   ----------------------------------------
 .byte   W96
@ 013   ----------------------------------------
 .byte   W96
@ 014   ----------------------------------------
 .byte   W96
@ 015   ----------------------------------------
 .byte   W96
@ 016   ----------------------------------------
 .byte   W96
@ 017   ----------------------------------------
 .byte   W96
@ 018   ----------------------------------------
 .byte   W96
@ 019   ----------------------------------------
 .byte   W96
@ 020   ----------------------------------------
 .byte   W96
@ 021   ----------------------------------------
 .byte   W96
@ 022   ----------------------------------------
 .byte   W96
@ 023   ----------------------------------------
 .byte   W96
@ 024   ----------------------------------------
 .byte   W96
@ 025   ----------------------------------------
 .byte   W96
@ 026   ----------------------------------------
 .byte   W96
@ 027   ----------------------------------------
 .byte   W96
@ 028   ----------------------------------------
 .byte   W96
@ 029   ----------------------------------------
 .byte   W96
@ 030   ----------------------------------------
 .byte   W96
@ 031   ----------------------------------------
 .byte   W96
@ 032   ----------------------------------------
 .byte   W96
@ 033   ----------------------------------------
 .byte   W96
@ 034   ----------------------------------------
 .byte   W96
@ 035   ----------------------------------------
 .byte   W96
@ 036   ----------------------------------------
 .byte   W96
@ 037   ----------------------------------------
 .byte   W96
@ 038   ----------------------------------------
 .byte   W96
@ 039   ----------------------------------------
 .byte   W96
@ 040   ----------------------------------------
 .byte   W96
@ 041   ----------------------------------------
 .byte   W96
@ 042   ----------------------------------------
 .byte   W96
@ 043   ----------------------------------------
 .byte   W96
@ 044   ----------------------------------------
 .byte   W96
@ 045   ----------------------------------------
 .byte   W96
@ 046   ----------------------------------------
 .byte   W96
@ 047   ----------------------------------------
 .byte   W96
@ 048   ----------------------------------------
 .byte   W96
@ 049   ----------------------------------------
 .byte   W96
@ 050   ----------------------------------------
 .byte   W96
@ 051   ----------------------------------------
 .byte   W96
@ 052   ----------------------------------------
 .byte   W96
@ 053   ----------------------------------------
 .byte   W96
@ 054   ----------------------------------------
Label_5_01185F46:
 .byte   N36 ,Gn4 ,v100
 .byte   N36 ,Bn4
 .byte   W36
 .byte   Fs4
 .byte   N36 ,Dn5
 .byte   W36
 .byte   N24 ,Dn4
 .byte   N24 ,As4
 .byte   W24
 .byte   PEND 
@ 055   ----------------------------------------
Label_5_01185F56:
 .byte   N72 ,Fn4 ,v100
 .byte   N24 ,An4
 .byte   W24
 .byte   As4 ,v076
 .byte   W24
 .byte   An4 ,v056
 .byte   W24
 .byte   As4 ,v032
 .byte   W24
 .byte   PEND 
@ 056   ----------------------------------------
 .byte   W96
@ 057   ----------------------------------------
 .byte   W96
@ 058   ----------------------------------------
 .byte   W96
@ 059   ----------------------------------------
 .byte   W96
@ 060   ----------------------------------------
 .byte   W96
@ 061   ----------------------------------------
 .byte   W96
@ 062   ----------------------------------------
 .byte   PATT
  .word Label_5_01185F46
@ 063   ----------------------------------------
 .byte   PATT
  .word Label_5_01185F56
@ 064   ----------------------------------------
 .byte   W96
@ 065   ----------------------------------------
 .byte   W96
@ 066   ----------------------------------------
 .byte   W96
@ 067   ----------------------------------------
 .byte   W96
@ 068   ----------------------------------------
 .byte   W96
@ 069   ----------------------------------------
 .byte   W84
 .byte   W03
 .byte   GOTO
  .word Label_5_01185F0A
 .byte   FINE

@**************** Track 7 (Midi-Chn.6) ****************@

songC0_007:
@ 000   ----------------------------------------
 .byte   KEYSH , songC0_key+0
Label_6_01185F86:
 .byte   VOICE , 112
 .byte   VOL , 50*songC0_mvl/mxv
 .byte   PAN , c_v+0
 .byte   W96
@ 001   ----------------------------------------
 .byte   W96
@ 002   ----------------------------------------
 .byte   W96
@ 003   ----------------------------------------
 .byte   W96
@ 004   ----------------------------------------
 .byte   W96
@ 005   ----------------------------------------
 .byte   W96
@ 006   ----------------------------------------
 .byte   W96
@ 007   ----------------------------------------
 .byte   W96
@ 008   ----------------------------------------
 .byte   W96
@ 009   ----------------------------------------
 .byte   W96
@ 010   ----------------------------------------
Label_6_01185F96:
 .byte   W06
 .byte   N06 ,Dn5 ,v044
 .byte   W06
 .byte   An5
 .byte   W06
 .byte   Dn5
 .byte   W06
 .byte   As5
 .byte   W12
 .byte   Bn5
 .byte   W12
 .byte   As5
 .byte   W12
 .byte   Dn5
 .byte   W06
 .byte   As5
 .byte   W12
 .byte   Dn5
 .byte   W06
 .byte   Bn5
 .byte   W12
 .byte   PEND 
@ 011   ----------------------------------------
 .byte   PATT
  .word Label_6_01185F96
@ 012   ----------------------------------------
 .byte   PATT
  .word Label_6_01185F96
@ 013   ----------------------------------------
 .byte   PATT
  .word Label_6_01185F96
@ 014   ----------------------------------------
 .byte   W96
@ 015   ----------------------------------------
 .byte   W96
@ 016   ----------------------------------------
 .byte   W96
@ 017   ----------------------------------------
 .byte   W96
@ 018   ----------------------------------------
 .byte   W96
@ 019   ----------------------------------------
 .byte   W96
@ 020   ----------------------------------------
 .byte   W96
@ 021   ----------------------------------------
 .byte   W96
@ 022   ----------------------------------------
 .byte   W96
@ 023   ----------------------------------------
 .byte   W96
@ 024   ----------------------------------------
 .byte   W96
@ 025   ----------------------------------------
 .byte   W96
@ 026   ----------------------------------------
 .byte   W96
@ 027   ----------------------------------------
 .byte   W96
@ 028   ----------------------------------------
 .byte   W96
@ 029   ----------------------------------------
 .byte   W96
@ 030   ----------------------------------------
 .byte   W96
@ 031   ----------------------------------------
 .byte   W96
@ 032   ----------------------------------------
 .byte   PATT
  .word Label_6_01185F96
@ 033   ----------------------------------------
 .byte   PATT
  .word Label_6_01185F96
@ 034   ----------------------------------------
 .byte   PATT
  .word Label_6_01185F96
@ 035   ----------------------------------------
 .byte   PATT
  .word Label_6_01185F96
@ 036   ----------------------------------------
 .byte   W96
@ 037   ----------------------------------------
 .byte   W96
@ 038   ----------------------------------------
 .byte   W96
@ 039   ----------------------------------------
 .byte   W96
@ 040   ----------------------------------------
 .byte   W96
@ 041   ----------------------------------------
 .byte   W96
@ 042   ----------------------------------------
 .byte   W96
@ 043   ----------------------------------------
 .byte   W96
@ 044   ----------------------------------------
 .byte   W96
@ 045   ----------------------------------------
 .byte   W96
@ 046   ----------------------------------------
 .byte   W96
@ 047   ----------------------------------------
 .byte   W96
@ 048   ----------------------------------------
 .byte   PATT
  .word Label_6_01185F96
@ 049   ----------------------------------------
 .byte   PATT
  .word Label_6_01185F96
@ 050   ----------------------------------------
 .byte   W96
@ 051   ----------------------------------------
 .byte   W96
@ 052   ----------------------------------------
 .byte   W96
@ 053   ----------------------------------------
 .byte   W96
@ 054   ----------------------------------------
 .byte   W96
@ 055   ----------------------------------------
 .byte   W96
@ 056   ----------------------------------------
 .byte   W96
@ 057   ----------------------------------------
 .byte   W96
@ 058   ----------------------------------------
 .byte   W96
@ 059   ----------------------------------------
 .byte   W96
@ 060   ----------------------------------------
 .byte   W96
@ 061   ----------------------------------------
 .byte   W96
@ 062   ----------------------------------------
 .byte   W96
@ 063   ----------------------------------------
 .byte   W96
@ 064   ----------------------------------------
 .byte   W96
@ 065   ----------------------------------------
 .byte   W96
@ 066   ----------------------------------------
 .byte   PATT
  .word Label_6_01185F96
@ 067   ----------------------------------------
 .byte   PATT
  .word Label_6_01185F96
@ 068   ----------------------------------------
 .byte   W96
@ 069   ----------------------------------------
 .byte   W84
 .byte   W03
 .byte   GOTO
  .word Label_6_01185F86
 .byte   FINE

@**************** Track 8 (Midi-Chn.7) ****************@

songC0_008:
@ 000   ----------------------------------------
 .byte   KEYSH , songC0_key+0
Label_7_0118601E:
 .byte   VOICE , 51
 .byte   VOL , 50*songC0_mvl/mxv
 .byte   PAN , c_v+0
 .byte   N24 ,Bn2 ,v100
 .byte   N24 ,Bn3
 .byte   W96
@ 001   ----------------------------------------
 .byte   W96
@ 002   ----------------------------------------
 .byte   W96
@ 003   ----------------------------------------
 .byte   W96
@ 004   ----------------------------------------
 .byte   W96
@ 005   ----------------------------------------
 .byte   W96
@ 006   ----------------------------------------
Label_7_0118602F:
 .byte   W24
 .byte   N24 ,Cn3 ,v100
 .byte   N24 ,Cn4
 .byte   W48
 .byte   Gs3
 .byte   N24 ,Gs4
 .byte   W24
 .byte   PEND 
@ 007   ----------------------------------------
Label_7_0118603B:
 .byte   W24
 .byte   N24 ,Dn3 ,v100
 .byte   N24 ,Dn4
 .byte   W36
 .byte   Fn3
 .byte   N24 ,Fn4
 .byte   W36
 .byte   PEND 
@ 008   ----------------------------------------
 .byte   PATT
  .word Label_7_0118602F
@ 009   ----------------------------------------
 .byte   PATT
  .word Label_7_0118603B
@ 010   ----------------------------------------
 .byte   W96
@ 011   ----------------------------------------
 .byte   W96
@ 012   ----------------------------------------
 .byte   W96
@ 013   ----------------------------------------
 .byte   W96
@ 014   ----------------------------------------
 .byte   N24 ,Bn2 ,v100
 .byte   N24 ,Bn3
 .byte   W96
@ 015   ----------------------------------------
 .byte   W96
@ 016   ----------------------------------------
 .byte   W96
@ 017   ----------------------------------------
 .byte   W96
@ 018   ----------------------------------------
 .byte   Bn2
 .byte   N24 ,Bn3
 .byte   W96
@ 019   ----------------------------------------
 .byte   W96
@ 020   ----------------------------------------
 .byte   PATT
  .word Label_7_0118602F
@ 021   ----------------------------------------
Label_7_01186068:
 .byte   W24
 .byte   N24 ,Dn3 ,v100
 .byte   N24 ,Dn4
 .byte   W36
 .byte   Fn3
 .byte   N24 ,Fn4
 .byte   W24
 .byte   N12 ,Dn3
 .byte   N12 ,Dn4
 .byte   W12
 .byte   PEND 
@ 022   ----------------------------------------
Label_7_01186079:
 .byte   N12 ,Bn2 ,v100
 .byte   N12 ,Bn3
 .byte   W12
 .byte   Bn2
 .byte   N12 ,Bn3
 .byte   W84
 .byte   PEND 
@ 023   ----------------------------------------
 .byte   Bn2
 .byte   N12 ,Bn3
 .byte   W96
@ 024   ----------------------------------------
 .byte   PATT
  .word Label_7_01186079
@ 025   ----------------------------------------
 .byte   N12 ,Bn2 ,v100
 .byte   N12 ,Bn3
 .byte   W96
@ 026   ----------------------------------------
 .byte   W96
@ 027   ----------------------------------------
 .byte   W96
@ 028   ----------------------------------------
 .byte   W96
@ 029   ----------------------------------------
 .byte   W96
@ 030   ----------------------------------------
 .byte   W96
@ 031   ----------------------------------------
 .byte   W96
@ 032   ----------------------------------------
 .byte   W96
@ 033   ----------------------------------------
 .byte   W96
@ 034   ----------------------------------------
 .byte   W96
@ 035   ----------------------------------------
 .byte   W96
@ 036   ----------------------------------------
 .byte   N24 ,Bn2
 .byte   N24 ,Bn3
 .byte   W96
@ 037   ----------------------------------------
 .byte   W96
@ 038   ----------------------------------------
 .byte   W96
@ 039   ----------------------------------------
 .byte   W96
@ 040   ----------------------------------------
 .byte   W96
@ 041   ----------------------------------------
 .byte   W96
@ 042   ----------------------------------------
 .byte   PATT
  .word Label_7_0118602F
@ 043   ----------------------------------------
 .byte   PATT
  .word Label_7_01186068
@ 044   ----------------------------------------
 .byte   PATT
  .word Label_7_01186079
@ 045   ----------------------------------------
 .byte   N12 ,Bn2 ,v100
 .byte   N12 ,Bn3
 .byte   W96
@ 046   ----------------------------------------
 .byte   PATT
  .word Label_7_01186079
@ 047   ----------------------------------------
 .byte   N12 ,Bn2 ,v100
 .byte   N12 ,Bn3
 .byte   W96
@ 048   ----------------------------------------
 .byte   W96
@ 049   ----------------------------------------
 .byte   W96
@ 050   ----------------------------------------
 .byte   W96
@ 051   ----------------------------------------
 .byte   W96
@ 052   ----------------------------------------
 .byte   W96
@ 053   ----------------------------------------
 .byte   W96
@ 054   ----------------------------------------
 .byte   W96
@ 055   ----------------------------------------
 .byte   W96
@ 056   ----------------------------------------
 .byte   W96
@ 057   ----------------------------------------
 .byte   W96
@ 058   ----------------------------------------
 .byte   W96
@ 059   ----------------------------------------
 .byte   W96
@ 060   ----------------------------------------
 .byte   W96
@ 061   ----------------------------------------
 .byte   W96
@ 062   ----------------------------------------
 .byte   W96
@ 063   ----------------------------------------
 .byte   W96
@ 064   ----------------------------------------
 .byte   N24 ,Dn3
 .byte   N24 ,Dn4
 .byte   W36
 .byte   Cs3
 .byte   N24 ,Cs4
 .byte   W36
 .byte   As2
 .byte   N24 ,As3
 .byte   W24
@ 065   ----------------------------------------
 .byte   Bn2
 .byte   N24 ,Bn3
 .byte   W96
@ 066   ----------------------------------------
 .byte   W96
@ 067   ----------------------------------------
 .byte   W96
@ 068   ----------------------------------------
 .byte   W96
@ 069   ----------------------------------------
 .byte   W84
 .byte   W03
 .byte   GOTO
  .word Label_7_0118601E
 .byte   FINE

@**************** Track 9 (Midi-Chn.8) ****************@

songC0_009:
@ 000   ----------------------------------------
 .byte   KEYSH , songC0_key+0
Label_8_011860F6:
 .byte   VOICE , 121
 .byte   VOL , 50*songC0_mvl/mxv
 .byte   PAN , c_v+0
 .byte   N03 ,Fn1 ,v127
 .byte   N03 ,Fs1 ,v068
 .byte   W06
 .byte   N03
 .byte   W06
 .byte   Fn1 ,v127
 .byte   N03 ,Fs1 ,v068
 .byte   W06
 .byte   N03
 .byte   W06
 .byte   N03
 .byte   N03 ,En4 ,v080
 .byte   W06
 .byte   Fs1 ,v068
 .byte   W06
 .byte   N03
 .byte   N03 ,En4 ,v080
 .byte   W06
 .byte   Fs1 ,v068
 .byte   W06
 .byte   N03
 .byte   N03 ,Ds4 ,v080
 .byte   W06
 .byte   Fs1 ,v068
 .byte   W06
 .byte   N03
 .byte   W06
 .byte   N03
 .byte   N03 ,En4 ,v080
 .byte   W06
 .byte   Fs1 ,v068
 .byte   W06
 .byte   N03
 .byte   W06
 .byte   N03
 .byte   N03 ,En4 ,v080
 .byte   W06
 .byte   Fs1 ,v068
 .byte   W06
@ 001   ----------------------------------------
Label_8_01186139:
 .byte   N03 ,Fn1 ,v127
 .byte   N03 ,Fs1 ,v068
 .byte   W06
 .byte   N03
 .byte   W06
 .byte   N03
 .byte   W06
 .byte   Fn1 ,v127
 .byte   N03 ,Fs1 ,v068
 .byte   W06
 .byte   N03
 .byte   N03 ,En4 ,v080
 .byte   W06
 .byte   Fs1 ,v068
 .byte   W06
 .byte   N03
 .byte   N03 ,En4 ,v080
 .byte   W06
 .byte   Fs1 ,v068
 .byte   W06
 .byte   N03
 .byte   N03 ,Ds4 ,v080
 .byte   W06
 .byte   Fs1 ,v068
 .byte   W06
 .byte   N03
 .byte   W06
 .byte   N03
 .byte   N03 ,En4 ,v080
 .byte   W06
 .byte   En1 ,v127
 .byte   N03 ,Fs1 ,v068
 .byte   W06
 .byte   N03
 .byte   W06
 .byte   N03
 .byte   N03 ,En4 ,v080
 .byte   W06
 .byte   Fs1 ,v068
 .byte   W06
 .byte   PEND 
@ 002   ----------------------------------------
Label_8_0118617A:
 .byte   N03 ,Fs1 ,v068
 .byte   N03 ,Bn1 ,v127
 .byte   W06
 .byte   Fs1 ,v068
 .byte   W06
 .byte   N03
 .byte   N03 ,An1 ,v127
 .byte   W06
 .byte   Fs1 ,v068
 .byte   N03 ,Gn1 ,v127
 .byte   W06
 .byte   Fs1 ,v068
 .byte   N03 ,En4 ,v080
 .byte   W06
 .byte   Fn1 ,v127
 .byte   N03 ,Fs1 ,v068
 .byte   W06
 .byte   N03
 .byte   N03 ,En4 ,v080
 .byte   W06
 .byte   Fs1 ,v068
 .byte   W06
 .byte   N03
 .byte   N03 ,Ds4 ,v080
 .byte   W06
 .byte   Fs1 ,v068
 .byte   W06
 .byte   N03
 .byte   W06
 .byte   N03
 .byte   N03 ,En4 ,v080
 .byte   W06
 .byte   Fs1 ,v068
 .byte   W06
 .byte   N03
 .byte   W06
 .byte   N03
 .byte   N03 ,En4 ,v080
 .byte   W06
 .byte   Fs1 ,v068
 .byte   N03 ,An1 ,v127
 .byte   W06
 .byte   PEND 
@ 003   ----------------------------------------
Label_8_011861C3:
 .byte   N03 ,Fs1 ,v068
 .byte   N03 ,Gn1 ,v127
 .byte   W06
 .byte   Fs1 ,v068
 .byte   N03 ,Gn1 ,v127
 .byte   W06
 .byte   Fn1
 .byte   N03 ,Fs1 ,v068
 .byte   W06
 .byte   Fn1 ,v127
 .byte   N03 ,Fs1 ,v068
 .byte   W06
 .byte   N03
 .byte   N03 ,En4 ,v080
 .byte   W06
 .byte   Fs1 ,v068
 .byte   W06
 .byte   N03
 .byte   N03 ,En4 ,v080
 .byte   W06
 .byte   Fs1 ,v068
 .byte   W06
 .byte   N03
 .byte   N03 ,Ds4 ,v080
 .byte   W06
 .byte   Fs1 ,v068
 .byte   W06
 .byte   N03
 .byte   N03 ,Fn3 ,v127
 .byte   N03 ,Fn4 ,v100
 .byte   W06
 .byte   Fs1 ,v068
 .byte   N03 ,Fn3 ,v127
 .byte   N03 ,En4 ,v080
 .byte   W06
 .byte   Fs1 ,v068
 .byte   N03 ,Fn3 ,v127
 .byte   N03 ,Ds4 ,v100
 .byte   W06
 .byte   Fs1 ,v068
 .byte   W06
 .byte   N03
 .byte   N03 ,En4 ,v080
 .byte   W06
 .byte   Fs1 ,v068
 .byte   W06
 .byte   PEND 
@ 004   ----------------------------------------
Label_8_01186219:
 .byte   N03 ,Fn1 ,v127
 .byte   N03 ,Fs1 ,v068
 .byte   W06
 .byte   N03
 .byte   W06
 .byte   Fn1 ,v127
 .byte   N03 ,Fs1 ,v068
 .byte   W06
 .byte   N03
 .byte   W06
 .byte   N03
 .byte   N03 ,En4 ,v080
 .byte   W06
 .byte   Fs1 ,v068
 .byte   W06
 .byte   N03
 .byte   N03 ,En4 ,v080
 .byte   W06
 .byte   Fs1 ,v068
 .byte   W06
 .byte   N03
 .byte   N03 ,Ds4 ,v080
 .byte   W06
 .byte   Fs1 ,v068
 .byte   W06
 .byte   N03
 .byte   W06
 .byte   N03
 .byte   N03 ,En4 ,v080
 .byte   W06
 .byte   Fs1 ,v068
 .byte   W06
 .byte   N03
 .byte   W06
 .byte   N03
 .byte   N03 ,En4 ,v080
 .byte   W06
 .byte   Fs1 ,v068
 .byte   W06
 .byte   PEND 
@ 005   ----------------------------------------
Label_8_01186257:
 .byte   N03 ,Fn1 ,v127
 .byte   N03 ,Fs1 ,v068
 .byte   W06
 .byte   N03
 .byte   W06
 .byte   N03
 .byte   W06
 .byte   N03
 .byte   W06
 .byte   N03
 .byte   N03 ,En4 ,v080
 .byte   W06
 .byte   Fs1 ,v068
 .byte   W06
 .byte   N03
 .byte   N03 ,En4 ,v080
 .byte   W06
 .byte   Fs1 ,v068
 .byte   W06
 .byte   N03
 .byte   N03 ,Ds4 ,v080
 .byte   W06
 .byte   Fs1 ,v068
 .byte   W06
 .byte   N03
 .byte   W06
 .byte   N03
 .byte   N03 ,En4 ,v080
 .byte   W06
 .byte   En1 ,v127
 .byte   N03 ,Fs1 ,v068
 .byte   W06
 .byte   N03
 .byte   W06
 .byte   N03
 .byte   N03 ,En4 ,v080
 .byte   W06
 .byte   Fs1 ,v068
 .byte   W06
 .byte   PEND 
@ 006   ----------------------------------------
Label_8_01186294:
 .byte   N03 ,Fn1 ,v127
 .byte   N03 ,Fs1 ,v068
 .byte   W06
 .byte   N03
 .byte   W06
 .byte   Fn1 ,v127
 .byte   N03 ,Fs1 ,v068
 .byte   W06
 .byte   N03
 .byte   W06
 .byte   N03
 .byte   N03 ,En4 ,v080
 .byte   W06
 .byte   Fs1 ,v068
 .byte   W06
 .byte   N03
 .byte   N03 ,En4 ,v080
 .byte   W06
 .byte   Fs1 ,v068
 .byte   W06
 .byte   Fn1 ,v127
 .byte   N03 ,Fs1 ,v068
 .byte   N03 ,Ds4 ,v080
 .byte   W06
 .byte   Fs1 ,v068
 .byte   W06
 .byte   N03
 .byte   W06
 .byte   Fn1 ,v127
 .byte   N03 ,Fs1 ,v068
 .byte   N03 ,En4 ,v080
 .byte   W06
 .byte   Fs1 ,v068
 .byte   W06
 .byte   N03
 .byte   W06
 .byte   Fn1 ,v127
 .byte   N03 ,Fs1 ,v068
 .byte   N03 ,En4 ,v080
 .byte   W06
 .byte   Fs1 ,v068
 .byte   W06
 .byte   PEND 
@ 007   ----------------------------------------
Label_8_011862DE:
 .byte   N03 ,Fn1 ,v127
 .byte   N03 ,Fs1 ,v068
 .byte   W06
 .byte   N03
 .byte   W06
 .byte   Fn1 ,v127
 .byte   N03 ,Fs1 ,v068
 .byte   W06
 .byte   N03
 .byte   W06
 .byte   N03
 .byte   N03 ,En4 ,v080
 .byte   W06
 .byte   Fs1 ,v068
 .byte   W06
 .byte   N03
 .byte   N03 ,En4 ,v080
 .byte   W06
 .byte   Fs1 ,v068
 .byte   W06
 .byte   Fn1 ,v127
 .byte   N03 ,Fs1 ,v068
 .byte   N03 ,Ds4 ,v080
 .byte   W06
 .byte   Fs1 ,v068
 .byte   W06
 .byte   N03
 .byte   N03 ,Fn3 ,v127
 .byte   W06
 .byte   Fn1
 .byte   N03 ,Fs1 ,v068
 .byte   N03 ,Fn3 ,v127
 .byte   N03 ,En4 ,v080
 .byte   W06
 .byte   Fs1 ,v068
 .byte   N03 ,Fn3 ,v127
 .byte   W06
 .byte   Fs1 ,v068
 .byte   W06
 .byte   Fn1 ,v127
 .byte   N03 ,Fs1 ,v068
 .byte   N03 ,En4 ,v080
 .byte   W06
 .byte   Fs1 ,v068
 .byte   W06
 .byte   PEND 
@ 008   ----------------------------------------
 .byte   PATT
  .word Label_8_01186294
@ 009   ----------------------------------------
 .byte   PATT
  .word Label_8_011862DE
@ 010   ----------------------------------------
 .byte   PATT
  .word Label_8_01186219
@ 011   ----------------------------------------
Label_8_01186340:
 .byte   N03 ,Fn1 ,v127
 .byte   N03 ,Fs1 ,v068
 .byte   W06
 .byte   N03
 .byte   W06
 .byte   Fn1 ,v127
 .byte   N03 ,Fs1 ,v068
 .byte   W06
 .byte   N03
 .byte   W06
 .byte   N03
 .byte   N03 ,En4 ,v080
 .byte   W06
 .byte   Fs1 ,v068
 .byte   W06
 .byte   N03
 .byte   N03 ,En4 ,v080
 .byte   W06
 .byte   Fs1 ,v068
 .byte   W06
 .byte   N03
 .byte   N03 ,Ds4 ,v080
 .byte   W06
 .byte   Fs1 ,v068
 .byte   W06
 .byte   N03
 .byte   W06
 .byte   N03
 .byte   N03 ,En4 ,v080
 .byte   W06
 .byte   Fs1 ,v068
 .byte   W06
 .byte   N03
 .byte   W06
 .byte   N03
 .byte   N03 ,En4 ,v080
 .byte   W06
 .byte   Fn1 ,v127
 .byte   N03 ,Fs1 ,v068
 .byte   W06
 .byte   PEND 
@ 012   ----------------------------------------
Label_8_01186381:
 .byte   N03 ,Fn1 ,v127
 .byte   N03 ,Fs1 ,v068
 .byte   N03 ,Gn1 ,v052
 .byte   W06
 .byte   Fs1 ,v068
 .byte   W06
 .byte   Fn1 ,v127
 .byte   N03 ,Fs1 ,v068
 .byte   N03 ,Gn1 ,v056
 .byte   W06
 .byte   Fs1 ,v068
 .byte   W06
 .byte   N03
 .byte   N03 ,Gn1 ,v060
 .byte   N03 ,En4 ,v080
 .byte   W06
 .byte   Fs1 ,v068
 .byte   W06
 .byte   N03
 .byte   N03 ,Gn1
 .byte   N03 ,En4 ,v080
 .byte   W06
 .byte   Fs1 ,v068
 .byte   W06
 .byte   N03
 .byte   N03 ,Gn1 ,v072
 .byte   N03 ,Ds4 ,v080
 .byte   W06
 .byte   Fs1 ,v068
 .byte   W06
 .byte   N03
 .byte   N03 ,Gn1 ,v076
 .byte   W06
 .byte   Fs1 ,v068
 .byte   N03 ,En4 ,v080
 .byte   W06
 .byte   Fs1 ,v068
 .byte   N03 ,Gn1 ,v080
 .byte   W06
 .byte   Fs1 ,v068
 .byte   W06
 .byte   N03
 .byte   N03 ,Gn1 ,v088
 .byte   N03 ,En4 ,v080
 .byte   W06
 .byte   Fs1 ,v068
 .byte   W06
 .byte   PEND 
@ 013   ----------------------------------------
Label_8_011863DA:
 .byte   N03 ,Fn1 ,v052
 .byte   N03 ,Fs1 ,v068
 .byte   N03 ,Gn1 ,v092
 .byte   W06
 .byte   Fs1 ,v068
 .byte   W06
 .byte   Fn1 ,v056
 .byte   N03 ,Fs1 ,v068
 .byte   N03 ,Gn1 ,v096
 .byte   W06
 .byte   Fs1 ,v068
 .byte   W06
 .byte   Fn1 ,v060
 .byte   N03 ,Fs1 ,v068
 .byte   N03 ,Gn1 ,v100
 .byte   N03 ,En4 ,v080
 .byte   W06
 .byte   Fs1 ,v068
 .byte   W06
 .byte   Fn1
 .byte   N03 ,Fs1
 .byte   N03 ,Gn1 ,v108
 .byte   N03 ,En4 ,v080
 .byte   W06
 .byte   Fs1 ,v068
 .byte   W06
 .byte   Fn1 ,v072
 .byte   N03 ,Fs1 ,v068
 .byte   N03 ,Gn1 ,v112
 .byte   N03 ,Ds4 ,v080
 .byte   W06
 .byte   Fs1 ,v068
 .byte   W06
 .byte   Fn1 ,v076
 .byte   N03 ,Fs1 ,v068
 .byte   N03 ,Gn1 ,v116
 .byte   N03 ,Fn3 ,v100
 .byte   N03 ,Fn4
 .byte   W06
 .byte   Fs1 ,v068
 .byte   N03 ,Fn3 ,v100
 .byte   N03 ,En4 ,v080
 .byte   W06
 .byte   Fn1 ,v088
 .byte   N03 ,Fs1 ,v068
 .byte   N03 ,Gn1 ,v120
 .byte   N03 ,Fn3 ,v100
 .byte   N03 ,Ds4 ,v112
 .byte   W06
 .byte   Fs1 ,v068
 .byte   W06
 .byte   Fn1 ,v096
 .byte   N03 ,Fs1 ,v068
 .byte   N03 ,Gn1 ,v127
 .byte   N03 ,En4 ,v080
 .byte   W06
 .byte   Fs1 ,v068
 .byte   W06
 .byte   PEND 
@ 014   ----------------------------------------
 .byte   PATT
  .word Label_8_01186219
@ 015   ----------------------------------------
 .byte   PATT
  .word Label_8_01186139
@ 016   ----------------------------------------
 .byte   PATT
  .word Label_8_0118617A
@ 017   ----------------------------------------
 .byte   PATT
  .word Label_8_011861C3
@ 018   ----------------------------------------
 .byte   PATT
  .word Label_8_01186219
@ 019   ----------------------------------------
 .byte   PATT
  .word Label_8_01186257
@ 020   ----------------------------------------
 .byte   PATT
  .word Label_8_01186294
@ 021   ----------------------------------------
Label_8_0118647A:
 .byte   N03 ,Fn1 ,v127
 .byte   N03 ,Fs1 ,v068
 .byte   W06
 .byte   N03
 .byte   W06
 .byte   Fn1 ,v127
 .byte   N03 ,Fs1 ,v068
 .byte   W06
 .byte   N03
 .byte   W06
 .byte   N03
 .byte   N03 ,En4 ,v080
 .byte   W06
 .byte   Fs1 ,v068
 .byte   W06
 .byte   N03
 .byte   N03 ,En4 ,v080
 .byte   W06
 .byte   Fs1 ,v068
 .byte   W06
 .byte   Fn1 ,v127
 .byte   N03 ,Fs1 ,v068
 .byte   N03 ,Ds4 ,v080
 .byte   W06
 .byte   Fs1 ,v068
 .byte   W06
 .byte   N03
 .byte   N03 ,Fn3 ,v127
 .byte   N03 ,Fn4 ,v100
 .byte   W06
 .byte   Fn1 ,v127
 .byte   N03 ,Fs1 ,v068
 .byte   N03 ,Fn3 ,v127
 .byte   N03 ,En4 ,v100
 .byte   W06
 .byte   Fs1 ,v068
 .byte   N03 ,Fn3 ,v127
 .byte   N03 ,Ds4 ,v100
 .byte   W06
 .byte   Fs1 ,v068
 .byte   W06
 .byte   Fn1 ,v127
 .byte   N03 ,Fs1 ,v068
 .byte   N03 ,En4 ,v080
 .byte   W06
 .byte   Fs1 ,v068
 .byte   W06
 .byte   PEND 
@ 022   ----------------------------------------
Label_8_011864D4:
 .byte   N03 ,Fn1 ,v127
 .byte   N03 ,Fs1 ,v068
 .byte   W06
 .byte   N03
 .byte   W06
 .byte   Fn1 ,v127
 .byte   N03 ,Fs1 ,v068
 .byte   W06
 .byte   N03
 .byte   W06
 .byte   En1 ,v092
 .byte   N03 ,Fs1 ,v068
 .byte   N03 ,En4 ,v080
 .byte   W06
 .byte   Fs1 ,v068
 .byte   W06
 .byte   N03
 .byte   N03 ,En4 ,v080
 .byte   W06
 .byte   Fs1 ,v068
 .byte   N03 ,Cn2 ,v092
 .byte   W06
 .byte   Fs1 ,v068
 .byte   N03 ,Bn1 ,v092
 .byte   N03 ,Ds4 ,v080
 .byte   W06
 .byte   En1 ,v092
 .byte   N03 ,Fs1 ,v068
 .byte   N03 ,An1 ,v092
 .byte   W06
 .byte   Fs1 ,v068
 .byte   N03 ,Gn1 ,v092
 .byte   N03 ,Fn3 ,v100
 .byte   N03 ,Fn4
 .byte   W06
 .byte   Fs1 ,v068
 .byte   N03 ,Fn3 ,v100
 .byte   N03 ,En4 ,v080
 .byte   W06
 .byte   En1 ,v092
 .byte   N03 ,Fs1 ,v068
 .byte   N03 ,Gn1 ,v092
 .byte   N03 ,Fn3 ,v100
 .byte   N03 ,Ds4
 .byte   W06
 .byte   Fs1 ,v068
 .byte   W06
 .byte   Fn1 ,v092
 .byte   N03 ,Fs1 ,v068
 .byte   N03 ,En4 ,v080
 .byte   W06
 .byte   Fn1 ,v092
 .byte   N03 ,Fs1 ,v068
 .byte   W06
 .byte   PEND 
@ 023   ----------------------------------------
Label_8_01186543:
 .byte   N03 ,Fn1 ,v127
 .byte   N03 ,Fs1 ,v068
 .byte   W06
 .byte   N03
 .byte   W06
 .byte   N03
 .byte   W06
 .byte   N03
 .byte   W06
 .byte   En1 ,v092
 .byte   N03 ,Fs1 ,v068
 .byte   N03 ,En4 ,v080
 .byte   W06
 .byte   Fs1 ,v068
 .byte   W06
 .byte   N03
 .byte   N03 ,En4 ,v080
 .byte   W06
 .byte   Fs1 ,v068
 .byte   N03 ,Gn1 ,v100
 .byte   W06
 .byte   Fn1
 .byte   N03 ,Fs1 ,v068
 .byte   N03 ,Ds4 ,v080
 .byte   W06
 .byte   En1 ,v092
 .byte   N03 ,Fs1 ,v068
 .byte   N03 ,Gn1 ,v100
 .byte   W06
 .byte   Fs1 ,v068
 .byte   N03 ,Fn3 ,v100
 .byte   N03 ,Fn4
 .byte   W06
 .byte   Fn1
 .byte   N03 ,Fs1 ,v068
 .byte   N03 ,Fn3 ,v100
 .byte   N03 ,En4 ,v080
 .byte   W06
 .byte   En1 ,v092
 .byte   N03 ,Fs1 ,v068
 .byte   N03 ,Gn1 ,v100
 .byte   N03 ,Fn3
 .byte   N03 ,Ds4
 .byte   W06
 .byte   Fs1 ,v068
 .byte   W06
 .byte   N03
 .byte   N03 ,Gn1 ,v100
 .byte   N03 ,En4 ,v080
 .byte   W06
 .byte   Fs1 ,v068
 .byte   W06
 .byte   PEND 
@ 024   ----------------------------------------
 .byte   PATT
  .word Label_8_011864D4
@ 025   ----------------------------------------
Label_8_011865AC:
 .byte   N03 ,Fn1 ,v127
 .byte   N03 ,Fs1 ,v068
 .byte   W06
 .byte   N03
 .byte   W06
 .byte   N03
 .byte   W06
 .byte   N03
 .byte   W06
 .byte   En1 ,v092
 .byte   N03 ,Fs1 ,v068
 .byte   N03 ,En4 ,v080
 .byte   W06
 .byte   Fs1 ,v068
 .byte   W06
 .byte   N03
 .byte   N03 ,En4 ,v080
 .byte   W06
 .byte   Fs1 ,v068
 .byte   N03 ,Gn1 ,v100
 .byte   W04
 .byte   N02 ,Cn3 ,v112
 .byte   W02
 .byte   N03 ,Fn1 ,v100
 .byte   N03 ,Fs1 ,v068
 .byte   N01 ,Cn3 ,v127
 .byte   N03 ,Ds4 ,v080
 .byte   W06
 .byte   En1 ,v092
 .byte   N03 ,Fs1 ,v068
 .byte   N03 ,Gn1 ,v100
 .byte   W02
 .byte   Cn3 ,v127
 .byte   W04
 .byte   Fs1 ,v068
 .byte   N03 ,Fn3 ,v100
 .byte   N03 ,Fn4
 .byte   W04
 .byte   Cn3 ,v127
 .byte   W02
 .byte   Fn1 ,v100
 .byte   N03 ,Fs1 ,v068
 .byte   N03 ,Fn3 ,v100
 .byte   N03 ,En4 ,v080
 .byte   W06
 .byte   En1 ,v092
 .byte   N03 ,Fs1 ,v068
 .byte   N03 ,Gn1 ,v100
 .byte   N03 ,Cn3 ,v127
 .byte   N03 ,Fn3 ,v100
 .byte   N03 ,Ds4
 .byte   W06
 .byte   Fs1 ,v068
 .byte   W06
 .byte   N03
 .byte   N03 ,Gn1 ,v100
 .byte   N03 ,En4 ,v080
 .byte   W06
 .byte   Fs1 ,v068
 .byte   W06
 .byte   PEND 
@ 026   ----------------------------------------
 .byte   Fn1 ,v127
 .byte   N03 ,Fs1 ,v068
 .byte   N03 ,Cs2 ,v127
 .byte   W06
 .byte   Fs1 ,v068
 .byte   W06
 .byte   Fn1 ,v127
 .byte   N03 ,Fs1 ,v068
 .byte   W06
 .byte   N03
 .byte   W06
 .byte   En1 ,v127
 .byte   N03 ,Fs1 ,v068
 .byte   N03 ,En4 ,v080
 .byte   W06
 .byte   Fs1 ,v068
 .byte   W06
 .byte   N03
 .byte   N03 ,En4 ,v080
 .byte   W06
 .byte   Fs1 ,v068
 .byte   W06
 .byte   Fn1 ,v127
 .byte   N03 ,Fs1 ,v068
 .byte   N03 ,Ds4 ,v080
 .byte   W06
 .byte   Fs1 ,v068
 .byte   W06
 .byte   N03
 .byte   W06
 .byte   Fn1 ,v127
 .byte   N03 ,Fs1 ,v068
 .byte   N03 ,En4 ,v080
 .byte   W06
 .byte   Fs1 ,v068
 .byte   W06
 .byte   N03
 .byte   W06
 .byte   En1 ,v127
 .byte   N03 ,Fn1
 .byte   N03 ,Fs1 ,v068
 .byte   N03 ,En4 ,v080
 .byte   W06
 .byte   Fs1 ,v068
 .byte   W06
@ 027   ----------------------------------------
Label_8_01186676:
 .byte   N03 ,Fn1 ,v127
 .byte   N03 ,Fs1 ,v068
 .byte   W06
 .byte   N03
 .byte   W06
 .byte   Fn1 ,v127
 .byte   N03 ,Fs1 ,v068
 .byte   W06
 .byte   N03
 .byte   W06
 .byte   En1 ,v127
 .byte   N03 ,Fs1 ,v068
 .byte   N03 ,En4 ,v080
 .byte   W06
 .byte   Fs1 ,v068
 .byte   W06
 .byte   N03
 .byte   N03 ,En4 ,v080
 .byte   W06
 .byte   Fs1 ,v068
 .byte   W06
 .byte   Fn1 ,v127
 .byte   N03 ,Fs1 ,v068
 .byte   N03 ,Ds4 ,v080
 .byte   W06
 .byte   Fs1 ,v068
 .byte   W06
 .byte   N03
 .byte   W06
 .byte   Fn1 ,v127
 .byte   N03 ,Fs1 ,v068
 .byte   N03 ,En4 ,v080
 .byte   W06
 .byte   Fs1 ,v068
 .byte   W06
 .byte   N03
 .byte   W06
 .byte   En1 ,v127
 .byte   N03 ,Fn1
 .byte   N03 ,Fs1 ,v068
 .byte   N03 ,En4 ,v080
 .byte   W06
 .byte   Fs1 ,v068
 .byte   W06
 .byte   PEND 
@ 028   ----------------------------------------
 .byte   Fn1 ,v127
 .byte   N03 ,Fs1 ,v068
 .byte   N03 ,Bn1 ,v127
 .byte   W06
 .byte   Fs1 ,v068
 .byte   N03 ,An1 ,v127
 .byte   W06
 .byte   Fn1
 .byte   N03 ,Fs1 ,v068
 .byte   N03 ,Gn1 ,v127
 .byte   W06
 .byte   Fn1
 .byte   N03 ,Fs1 ,v068
 .byte   W06
 .byte   En1 ,v127
 .byte   N03 ,Fs1 ,v068
 .byte   N03 ,En4 ,v080
 .byte   W06
 .byte   Fn1 ,v127
 .byte   N03 ,Fs1 ,v068
 .byte   W06
 .byte   N03
 .byte   N03 ,En4 ,v080
 .byte   W06
 .byte   Fn1 ,v127
 .byte   N03 ,Fs1 ,v068
 .byte   W06
 .byte   N03
 .byte   N03 ,Ds4 ,v080
 .byte   W06
 .byte   Fn1 ,v127
 .byte   N03 ,Fs1 ,v068
 .byte   W06
 .byte   N03
 .byte   W06
 .byte   Fn1 ,v127
 .byte   N03 ,Fs1 ,v068
 .byte   N03 ,En4 ,v080
 .byte   W06
 .byte   Fn1 ,v127
 .byte   N03 ,Fs1 ,v068
 .byte   W06
 .byte   N03
 .byte   W06
 .byte   En1 ,v127
 .byte   N03 ,Fn1
 .byte   N03 ,Fs1 ,v068
 .byte   N03 ,En4 ,v080
 .byte   W06
 .byte   Fs1 ,v068
 .byte   W06
@ 029   ----------------------------------------
 .byte   N03
 .byte   N03 ,An1 ,v127
 .byte   W06
 .byte   Fs1 ,v068
 .byte   N03 ,Gn1 ,v127
 .byte   W06
 .byte   Fs1 ,v068
 .byte   N03 ,Gn1 ,v127
 .byte   W06
 .byte   Fn1
 .byte   N03 ,Fs1 ,v068
 .byte   W06
 .byte   En1 ,v127
 .byte   N03 ,Fs1 ,v068
 .byte   N03 ,En4 ,v080
 .byte   W06
 .byte   Fn1 ,v127
 .byte   N03 ,Fs1 ,v068
 .byte   W06
 .byte   N03
 .byte   N03 ,En4 ,v080
 .byte   W06
 .byte   Fs1 ,v068
 .byte   W06
 .byte   N03
 .byte   N03 ,Gn1 ,v127
 .byte   N03 ,Ds4 ,v080
 .byte   W06
 .byte   Fs1 ,v068
 .byte   W06
 .byte   N03
 .byte   W06
 .byte   N03
 .byte   N03 ,En4 ,v080
 .byte   W06
 .byte   Fn1 ,v127
 .byte   N03 ,Fs1 ,v068
 .byte   W06
 .byte   N03
 .byte   W06
 .byte   En1 ,v127
 .byte   N03 ,Fn1
 .byte   N03 ,Fs1 ,v068
 .byte   N03 ,En4 ,v080
 .byte   W06
 .byte   Fs1 ,v068
 .byte   W06
@ 030   ----------------------------------------
 .byte   PATT
  .word Label_8_01186676
@ 031   ----------------------------------------
 .byte   PATT
  .word Label_8_01186676
@ 032   ----------------------------------------
 .byte   PATT
  .word Label_8_01186219
@ 033   ----------------------------------------
 .byte   PATT
  .word Label_8_01186340
@ 034   ----------------------------------------
 .byte   PATT
  .word Label_8_01186381
@ 035   ----------------------------------------
 .byte   PATT
  .word Label_8_011863DA
@ 036   ----------------------------------------
 .byte   PATT
  .word Label_8_01186219
@ 037   ----------------------------------------
 .byte   PATT
  .word Label_8_01186139
@ 038   ----------------------------------------
 .byte   PATT
  .word Label_8_0118617A
@ 039   ----------------------------------------
 .byte   PATT
  .word Label_8_011861C3
@ 040   ----------------------------------------
 .byte   PATT
  .word Label_8_01186219
@ 041   ----------------------------------------
 .byte   PATT
  .word Label_8_01186257
@ 042   ----------------------------------------
 .byte   PATT
  .word Label_8_01186294
@ 043   ----------------------------------------
 .byte   PATT
  .word Label_8_0118647A
@ 044   ----------------------------------------
 .byte   PATT
  .word Label_8_011864D4
@ 045   ----------------------------------------
 .byte   PATT
  .word Label_8_01186543
@ 046   ----------------------------------------
 .byte   PATT
  .word Label_8_011864D4
@ 047   ----------------------------------------
 .byte   PATT
  .word Label_8_011865AC
@ 048   ----------------------------------------
 .byte   N03 ,Fs1 ,v068
 .byte   N03 ,Cs2 ,v127
 .byte   W06
 .byte   Fs1 ,v068
 .byte   W06
 .byte   N03
 .byte   W06
 .byte   N03
 .byte   W06
 .byte   N03
 .byte   N03 ,En4 ,v080
 .byte   W06
 .byte   Fs1 ,v068
 .byte   W06
 .byte   N03
 .byte   N03 ,En4 ,v080
 .byte   W06
 .byte   Fs1 ,v068
 .byte   W06
 .byte   N03
 .byte   N03 ,Ds4 ,v080
 .byte   W06
 .byte   Fs1 ,v068
 .byte   W06
 .byte   N03
 .byte   W06
 .byte   N03
 .byte   N03 ,En4 ,v080
 .byte   W06
 .byte   Fs1 ,v068
 .byte   W06
 .byte   N03
 .byte   W06
 .byte   N03
 .byte   N03 ,En4 ,v080
 .byte   W06
 .byte   Fs1 ,v068
 .byte   W06
@ 049   ----------------------------------------
Label_8_01186811:
 .byte   N03 ,Fs1 ,v068
 .byte   W06
 .byte   N03
 .byte   W06
 .byte   N03
 .byte   W06
 .byte   N03
 .byte   W06
 .byte   N03
 .byte   N03 ,En4 ,v080
 .byte   W06
 .byte   Fs1 ,v068
 .byte   W06
 .byte   N03
 .byte   N03 ,En4 ,v080
 .byte   W06
 .byte   Fs1 ,v068
 .byte   W06
 .byte   N03
 .byte   N03 ,Ds4 ,v080
 .byte   W06
 .byte   Fs1 ,v068
 .byte   W06
 .byte   N03
 .byte   W06
 .byte   N03
 .byte   N03 ,En4 ,v080
 .byte   W06
 .byte   Fs1 ,v068
 .byte   W06
 .byte   N03
 .byte   W06
 .byte   N03
 .byte   N03 ,En4 ,v080
 .byte   W06
 .byte   Fs1 ,v068
 .byte   W06
 .byte   PEND 
@ 050   ----------------------------------------
 .byte   PATT
  .word Label_8_01186811
@ 051   ----------------------------------------
 .byte   PATT
  .word Label_8_01186811
@ 052   ----------------------------------------
 .byte   PATT
  .word Label_8_01186811
@ 053   ----------------------------------------
 .byte   PATT
  .word Label_8_01186811
@ 054   ----------------------------------------
 .byte   PATT
  .word Label_8_01186811
@ 055   ----------------------------------------
 .byte   PATT
  .word Label_8_01186811
@ 056   ----------------------------------------
 .byte   PATT
  .word Label_8_01186811
@ 057   ----------------------------------------
 .byte   PATT
  .word Label_8_01186811
@ 058   ----------------------------------------
 .byte   PATT
  .word Label_8_01186811
@ 059   ----------------------------------------
 .byte   PATT
  .word Label_8_01186811
@ 060   ----------------------------------------
 .byte   PATT
  .word Label_8_01186811
@ 061   ----------------------------------------
 .byte   PATT
  .word Label_8_01186811
@ 062   ----------------------------------------
 .byte   PATT
  .word Label_8_01186811
@ 063   ----------------------------------------
 .byte   PATT
  .word Label_8_01186811
@ 064   ----------------------------------------
 .byte   PATT
  .word Label_8_01186811
@ 065   ----------------------------------------
 .byte   N03 ,Fn1 ,v127
 .byte   N03 ,Fs1 ,v068
 .byte   W06
 .byte   N03
 .byte   W06
 .byte   N03
 .byte   W06
 .byte   N03
 .byte   W06
 .byte   Fn1 ,v072
 .byte   N03 ,Fs1 ,v068
 .byte   N03 ,En4 ,v080
 .byte   W06
 .byte   Fs1 ,v068
 .byte   W06
 .byte   Fn1 ,v080
 .byte   N03 ,Fs1 ,v068
 .byte   N03 ,En4 ,v080
 .byte   W06
 .byte   Fs1 ,v068
 .byte   W06
 .byte   Fn1 ,v092
 .byte   N03 ,Fs1 ,v068
 .byte   N03 ,Ds4 ,v080
 .byte   W06
 .byte   Fs1 ,v068
 .byte   W06
 .byte   Fn1 ,v100
 .byte   N03 ,Fs1 ,v068
 .byte   W06
 .byte   N03
 .byte   N03 ,En4 ,v080
 .byte   W06
 .byte   Fn1 ,v112
 .byte   N03 ,Fs1 ,v068
 .byte   W06
 .byte   N03
 .byte   W06
 .byte   Fn1 ,v120
 .byte   N03 ,Fs1 ,v068
 .byte   N03 ,En4 ,v080
 .byte   W06
 .byte   Fs1 ,v068
 .byte   W06
@ 066   ----------------------------------------
 .byte   Fn1 ,v127
 .byte   N03 ,Fs1 ,v068
 .byte   N03 ,Cs2 ,v100
 .byte   W06
 .byte   Fs1 ,v068
 .byte   W06
 .byte   N03
 .byte   W06
 .byte   N03
 .byte   W06
 .byte   En1 ,v127
 .byte   N03 ,Fs1 ,v068
 .byte   N03 ,En4 ,v080
 .byte   W06
 .byte   Fs1 ,v068
 .byte   W06
 .byte   N03
 .byte   N03 ,En4 ,v080
 .byte   W06
 .byte   Fs1 ,v068
 .byte   W06
 .byte   Fn1 ,v127
 .byte   N03 ,Fs1 ,v068
 .byte   N03 ,Ds4 ,v080
 .byte   W06
 .byte   Fs1 ,v068
 .byte   W06
 .byte   N03
 .byte   W06
 .byte   Fn1 ,v127
 .byte   N03 ,Fs1 ,v068
 .byte   N03 ,En4 ,v080
 .byte   W06
 .byte   Fs1 ,v068
 .byte   W06
 .byte   N03
 .byte   W06
 .byte   En1 ,v127
 .byte   N03 ,Fn1
 .byte   N03 ,Fs1 ,v068
 .byte   N03 ,En4 ,v080
 .byte   W06
 .byte   Fs1 ,v068
 .byte   W06
@ 067   ----------------------------------------
 .byte   Fn1 ,v127
 .byte   N03 ,Fs1 ,v068
 .byte   W06
 .byte   N03
 .byte   W06
 .byte   Fn1 ,v127
 .byte   N03 ,Fs1 ,v068
 .byte   W06
 .byte   N03
 .byte   W06
 .byte   En1 ,v127
 .byte   N03 ,Fs1 ,v068
 .byte   N03 ,En4 ,v080
 .byte   W06
 .byte   Fs1 ,v068
 .byte   W06
 .byte   N03
 .byte   N03 ,En4 ,v080
 .byte   W06
 .byte   Fs1 ,v068
 .byte   W06
 .byte   En1 ,v127
 .byte   N03 ,Fn1
 .byte   N03 ,Fs1 ,v068
 .byte   N03 ,Ds4 ,v080
 .byte   W06
 .byte   Fs1 ,v068
 .byte   W06
 .byte   Fn1 ,v127
 .byte   N03 ,Fs1 ,v068
 .byte   W06
 .byte   Fn1 ,v127
 .byte   N03 ,Fs1 ,v068
 .byte   N03 ,En4 ,v080
 .byte   W06
 .byte   Fs1 ,v068
 .byte   W06
 .byte   N03
 .byte   W06
 .byte   En1 ,v127
 .byte   N03 ,Fn1
 .byte   N03 ,Fs1 ,v068
 .byte   N03 ,En4 ,v080
 .byte   W06
 .byte   Fs1 ,v068
 .byte   W06
@ 068   ----------------------------------------
 .byte   Fn1 ,v127
 .byte   N03 ,Fs1 ,v068
 .byte   W06
 .byte   N03
 .byte   W06
 .byte   Fn1 ,v100
 .byte   N03 ,Fs1 ,v068
 .byte   W06
 .byte   N03
 .byte   W06
 .byte   En1 ,v127
 .byte   N03 ,Fs1 ,v068
 .byte   N03 ,En4 ,v080
 .byte   W06
 .byte   Fs1 ,v068
 .byte   W06
 .byte   N03
 .byte   N03 ,En4 ,v080
 .byte   W06
 .byte   Fs1 ,v068
 .byte   W06
 .byte   Fn1 ,v127
 .byte   N03 ,Fs1 ,v068
 .byte   N03 ,Ds4 ,v080
 .byte   W06
 .byte   Fs1 ,v068
 .byte   W06
 .byte   N03
 .byte   W06
 .byte   Fn1 ,v127
 .byte   N03 ,Fs1 ,v068
 .byte   N03 ,En4 ,v080
 .byte   W06
 .byte   En1 ,v100
 .byte   N03 ,Fs1 ,v068
 .byte   W06
 .byte   N03
 .byte   W06
 .byte   Fn1 ,v127
 .byte   N03 ,Fs1 ,v068
 .byte   N03 ,En4 ,v080
 .byte   W06
 .byte   Fs1 ,v068
 .byte   W06
@ 069   ----------------------------------------
 .byte   Fn1 ,v127
 .byte   N03 ,Fs1 ,v068
 .byte   W06
 .byte   N03
 .byte   W06
 .byte   Fn1 ,v100
 .byte   N03 ,Fs1 ,v068
 .byte   W06
 .byte   N03
 .byte   W06
 .byte   En1 ,v127
 .byte   N03 ,Fs1 ,v068
 .byte   W06
 .byte   N03
 .byte   W06
 .byte   N03
 .byte   W06
 .byte   N03
 .byte   W06
 .byte   En1 ,v127
 .byte   N03 ,Fn1
 .byte   W36
 .byte   En1
 .byte   W03
 .byte   GOTO
  .word Label_8_011860F6
 .byte   FINE

@******************************************************@
	.align	2

songC0:
	.byte	9	@ NumTrks
	.byte	0	@ NumBlks
	.byte	songC0_pri	@ Priority
	.byte	songC0_rev	@ Reverb.
    
	.word	songC0_grp
    
	.word	songC0_001
	.word	songC0_002
	.word	songC0_003
	.word	songC0_004
	.word	songC0_005
	.word	songC0_006
	.word	songC0_007
	.word	songC0_008
	.word	songC0_009

	.end
