	.include "MPlayDef.s"

	.equ	songE0_grp, voicegroup000
	.equ	songE0_pri, 0
	.equ	songE0_rev, 0
	.equ	songE0_mvl, 127
	.equ	songE0_key, 0
	.equ	songE0_tbs, 1
	.equ	songE0_exg, 0
	.equ	songE0_cmp, 1

	.section .rodata
	.global	songE0
	.align	2


@**************** Track 1 (Midi-Chn.0) ****************@

songE0_001:
@ 000   ----------------------------------------
 .byte   KEYSH , songE0_key+0
 .byte   TEMPO , 124*songE0_tbs/2
 .byte   VOICE , 4
 .byte   VOL , 57*songE0_mvl/mxv
 .byte   PAN , c_v+0
 .byte   N11 ,Dn4 ,v080
 .byte   W12
 .byte   En4
 .byte   W12
 .byte   Fs4
 .byte   W12
 .byte   An4
 .byte   W12
Label_0_0182D468:
 .byte   N23 ,Bn4 ,v080
 .byte   W24
 .byte   N11 ,Fs4
 .byte   W12
 .byte   An4
 .byte   W12
@ 001   ----------------------------------------
 .byte   N44 ,En4
 .byte   W48
 .byte   PEND 
Label_0_0182D475:
 .byte   N23 ,Fs4 ,v080
 .byte   W24
 .byte   N11 ,Dn4
 .byte   W12
 .byte   N23 ,En4
 .byte   W24
@ 002   ----------------------------------------
 .byte   N32 ,Fs4
 .byte   W36
 .byte   PEND 
@ 003   ----------------------------------------
 .byte   PATT
  .word Label_0_0182D468
@ 004   ----------------------------------------
Label_0_0182D488:
 .byte   N23 ,Fs4 ,v080
 .byte   W24
 .byte   N11 ,Dn4
 .byte   W12
 .byte   N56 ,Bn3
 .byte   W60
 .byte   PEND 
@ 005   ----------------------------------------
 .byte   PATT
  .word Label_0_0182D468
@ 006   ----------------------------------------
Label_0_0182D498:
 .byte   N23 ,Fs4 ,v080
 .byte   W24
 .byte   N11 ,Dn4
 .byte   W12
 .byte   N32 ,En4
 .byte   W36
 .byte   N23 ,Dn4
 .byte   W24
 .byte   PEND 
@ 007   ----------------------------------------
Label_0_0182D4A6:
 .byte   N23 ,Bn4 ,v080
 .byte   W24
 .byte   N11 ,Fs4
 .byte   W12
 .byte   N23 ,An4
 .byte   W24
 .byte   Bn4
 .byte   W24
 .byte   N56 ,Fs4
 .byte   W12
 .byte   PEND 
@ 008   ----------------------------------------
Label_0_0182D4B6:
 .byte   W48
 .byte   N11 ,Dn4 ,v080
 .byte   W12
 .byte   En4
 .byte   W12
 .byte   Fs4
 .byte   W12
 .byte   An4
 .byte   W12
 .byte   PEND 
@ 009   ----------------------------------------
 .byte   PATT
  .word Label_0_0182D468
@ 010   ----------------------------------------
 .byte   PATT
  .word Label_0_0182D475
@ 011   ----------------------------------------
Label_0_0182D4CC:
 .byte   N23 ,Bn4 ,v080
 .byte   W24
 .byte   N11 ,Fs4
 .byte   W12
 .byte   N23 ,An4
 .byte   W24
 .byte   Dn5
 .byte   W24
 .byte   N56 ,Bn4
 .byte   W12
 .byte   PEND 
@ 012   ----------------------------------------
Label_0_0182D4DC:
 .byte   W48
 .byte   N11 ,Fs4 ,v080
 .byte   W12
 .byte   An4
 .byte   W12
 .byte   Bn4
 .byte   W12
 .byte   Dn5
 .byte   W12
 .byte   PEND 
@ 013   ----------------------------------------
 .byte   PATT
  .word Label_0_0182D468
@ 014   ----------------------------------------
 .byte   PATT
  .word Label_0_0182D498
@ 015   ----------------------------------------
Label_0_0182D4F2:
 .byte   N23 ,Bn4 ,v080
 .byte   W24
 .byte   N11 ,Fs4
 .byte   W12
 .byte   N23 ,An4
 .byte   W24
 .byte   N32 ,Bn4
 .byte   W36
 .byte   PEND 
@ 016   ----------------------------------------
 .byte   N92 ,Fs4
 .byte   W96
@ 017   ----------------------------------------
 .byte   W48
 .byte   N44 ,Dn3 ,v036
 .byte   W48
@ 018   ----------------------------------------
Label_0_0182D508:
 .byte   N44 ,Cs3 ,v036
 .byte   W48
 .byte   N23
 .byte   W24
 .byte   En3
 .byte   W24
 .byte   PEND 
@ 019   ----------------------------------------
Label_0_0182D511:
 .byte   N44 ,Dn3 ,v036
 .byte   W48
 .byte   N23
 .byte   W24
 .byte   En3
 .byte   W24
 .byte   PEND 
@ 020   ----------------------------------------
Label_0_0182D51A:
 .byte   N44 ,Cs3 ,v036
 .byte   W48
 .byte   N44
 .byte   W48
 .byte   PEND 
@ 021   ----------------------------------------
Label_0_0182D521:
 .byte   N44 ,Gn2 ,v036
 .byte   W48
 .byte   Dn3
 .byte   W48
 .byte   PEND 
@ 022   ----------------------------------------
Label_0_0182D528:
 .byte   N68 ,An2 ,v036
 .byte   W72
 .byte   N23 ,En3
 .byte   W24
 .byte   PEND 
@ 023   ----------------------------------------
Label_0_0182D530:
 .byte   N44 ,Bn2 ,v036
 .byte   W48
 .byte   N23 ,Fs3
 .byte   W24
 .byte   En3
 .byte   W24
 .byte   PEND 
@ 024   ----------------------------------------
Label_0_0182D53A:
 .byte   N03 ,Dn3 ,v036
 .byte   W03
 .byte   N20 ,En3
 .byte   W92
 .byte   W01
 .byte   PEND 
@ 025   ----------------------------------------
 .byte   PATT
  .word Label_0_0182D521
@ 026   ----------------------------------------
 .byte   PATT
  .word Label_0_0182D528
@ 027   ----------------------------------------
Label_0_0182D54D:
 .byte   N44 ,Bn2 ,v036
 .byte   W48
 .byte   N23 ,Dn3
 .byte   W24
 .byte   En3
 .byte   W24
 .byte   PEND 
@ 028   ----------------------------------------
 .byte   PATT
  .word Label_0_0182D51A
@ 029   ----------------------------------------
 .byte   PATT
  .word Label_0_0182D521
@ 030   ----------------------------------------
 .byte   PATT
  .word Label_0_0182D528
@ 031   ----------------------------------------
 .byte   PATT
  .word Label_0_0182D530
@ 032   ----------------------------------------
Label_0_0182D56B:
 .byte   N23 ,Cs3 ,v036
 .byte   W48
 .byte   N07 ,En3
 .byte   W08
 .byte   Fs3
 .byte   W08
 .byte   An3
 .byte   W08
 .byte   Bn3
 .byte   W08
 .byte   Dn4
 .byte   W08
 .byte   En4
 .byte   W08
 .byte   PEND 
@ 033   ----------------------------------------
Label_0_0182D57D:
 .byte   N44 ,Dn4 ,v036
 .byte   W48
 .byte   N23 ,Bn4
 .byte   W24
 .byte   Cs5
 .byte   W24
 .byte   PEND 
@ 034   ----------------------------------------
Label_0_0182D587:
 .byte   N44 ,An4 ,v036
 .byte   W48
 .byte   N23 ,Fs4
 .byte   W24
 .byte   En4
 .byte   W24
 .byte   PEND 
@ 035   ----------------------------------------
Label_0_0182D591:
 .byte   N23 ,En4 ,v036
 .byte   W24
 .byte   Fs4
 .byte   W24
 .byte   Dn4
 .byte   W24
 .byte   Cs4
 .byte   W24
 .byte   PEND 
@ 036   ----------------------------------------
Label_0_0182D59C:
 .byte   N44 ,Dn4 ,v036
 .byte   W48
 .byte   N11 ,Dn4 ,v096
 .byte   W12
 .byte   En4
 .byte   W12
 .byte   Fs4
 .byte   W12
 .byte   An4
 .byte   W12
 .byte   PEND 
@ 037   ----------------------------------------
Label_0_0182D5AB:
 .byte   N23 ,Bn4 ,v096
 .byte   W24
 .byte   Dn4
 .byte   W24
 .byte   Fs4
 .byte   W24
 .byte   Bn4
 .byte   W24
 .byte   PEND 
@ 038   ----------------------------------------
Label_0_0182D5B6:
 .byte   N44 ,An4 ,v096
 .byte   W48
 .byte   N23 ,Fs4
 .byte   W24
 .byte   En4
 .byte   W24
 .byte   PEND 
@ 039   ----------------------------------------
Label_0_0182D5C0:
 .byte   N44 ,Dn4 ,v096
 .byte   W48
 .byte   N23 ,En4
 .byte   W24
 .byte   Fs4
 .byte   W24
 .byte   PEND 
@ 040   ----------------------------------------
 .byte   N05 ,Dn4
 .byte   W48
 .byte   N11
 .byte   W12
 .byte   En4
 .byte   W12
 .byte   Fs4
 .byte   W12
 .byte   An4
 .byte   W11
 .byte   TEMPO , 124*songE0_tbs/2
 .byte   W01
@ 041   ----------------------------------------
 .byte   GOTO
  .word Label_0_0182D468
@ 042   ----------------------------------------
 .byte   PATT
  .word Label_0_0182D468
@ 043   ----------------------------------------
 .byte   PATT
  .word Label_0_0182D475
@ 044   ----------------------------------------
 .byte   PATT
  .word Label_0_0182D468
@ 045   ----------------------------------------
 .byte   PATT
  .word Label_0_0182D488
@ 046   ----------------------------------------
 .byte   PATT
  .word Label_0_0182D468
@ 047   ----------------------------------------
 .byte   PATT
  .word Label_0_0182D498
@ 048   ----------------------------------------
 .byte   PATT
  .word Label_0_0182D4A6
@ 049   ----------------------------------------
 .byte   PATT
  .word Label_0_0182D4B6
@ 050   ----------------------------------------
 .byte   PATT
  .word Label_0_0182D468
@ 051   ----------------------------------------
 .byte   PATT
  .word Label_0_0182D475
@ 052   ----------------------------------------
 .byte   PATT
  .word Label_0_0182D4CC
@ 053   ----------------------------------------
 .byte   PATT
  .word Label_0_0182D4DC
@ 054   ----------------------------------------
 .byte   PATT
  .word Label_0_0182D468
@ 055   ----------------------------------------
 .byte   PATT
  .word Label_0_0182D498
@ 056   ----------------------------------------
 .byte   PATT
  .word Label_0_0182D4F2
@ 057   ----------------------------------------
 .byte   N92 ,Fs4 ,v080
 .byte   W96
@ 058   ----------------------------------------
 .byte   W48
 .byte   N44 ,Dn3 ,v036
 .byte   W48
@ 059   ----------------------------------------
 .byte   PATT
  .word Label_0_0182D508
@ 060   ----------------------------------------
 .byte   PATT
  .word Label_0_0182D511
@ 061   ----------------------------------------
 .byte   PATT
  .word Label_0_0182D51A
@ 062   ----------------------------------------
 .byte   PATT
  .word Label_0_0182D521
@ 063   ----------------------------------------
 .byte   PATT
  .word Label_0_0182D528
@ 064   ----------------------------------------
 .byte   PATT
  .word Label_0_0182D530
@ 065   ----------------------------------------
 .byte   PATT
  .word Label_0_0182D53A
@ 066   ----------------------------------------
 .byte   PATT
  .word Label_0_0182D521
@ 067   ----------------------------------------
 .byte   PATT
  .word Label_0_0182D528
@ 068   ----------------------------------------
 .byte   PATT
  .word Label_0_0182D54D
@ 069   ----------------------------------------
 .byte   PATT
  .word Label_0_0182D51A
@ 070   ----------------------------------------
 .byte   PATT
  .word Label_0_0182D521
@ 071   ----------------------------------------
 .byte   PATT
  .word Label_0_0182D528
@ 072   ----------------------------------------
 .byte   PATT
  .word Label_0_0182D530
@ 073   ----------------------------------------
 .byte   PATT
  .word Label_0_0182D56B
@ 074   ----------------------------------------
 .byte   PATT
  .word Label_0_0182D57D
@ 075   ----------------------------------------
 .byte   PATT
  .word Label_0_0182D587
@ 076   ----------------------------------------
 .byte   PATT
  .word Label_0_0182D591
@ 077   ----------------------------------------
 .byte   PATT
  .word Label_0_0182D59C
@ 078   ----------------------------------------
 .byte   PATT
  .word Label_0_0182D5AB
@ 079   ----------------------------------------
 .byte   PATT
  .word Label_0_0182D5B6
@ 080   ----------------------------------------
 .byte   PATT
  .word Label_0_0182D5C0
@ 081   ----------------------------------------
 .byte   N05 ,Dn4 ,v096
 .byte   W92
 .byte   W03
 .byte   FINE

@**************** Track 2 (Midi-Chn.1) ****************@

songE0_002:
@ 000   ----------------------------------------
 .byte   KEYSH , songE0_key+0
 .byte   VOICE , 40
 .byte   VOL , 52*songE0_mvl/mxv
 .byte   PAN , c_v+0
 .byte   N11 ,Dn4 ,v080
 .byte   W12
 .byte   En4
 .byte   W12
 .byte   Fs4
 .byte   W12
 .byte   An4
 .byte   W12
Label_1_0182D6BA:
 .byte   N23 ,Bn4 ,v080
 .byte   W24
 .byte   N11 ,Fs4
 .byte   W12
 .byte   An4
 .byte   W12
@ 001   ----------------------------------------
 .byte   N44 ,En4
 .byte   W48
 .byte   PEND 
Label_1_0182D6C7:
 .byte   N23 ,Fs4 ,v080
 .byte   W24
 .byte   N11 ,Dn4
 .byte   W12
 .byte   N23 ,En4
 .byte   W24
@ 002   ----------------------------------------
 .byte   N32 ,Fs4
 .byte   W36
 .byte   PEND 
Label_1_0182D6D5:
 .byte   N23 ,Bn4 ,v080
 .byte   W24
 .byte   N11 ,Fs4
 .byte   W12
 .byte   An4
 .byte   W12
 .byte   N44 ,En4
 .byte   W48
 .byte   PEND 
@ 003   ----------------------------------------
Label_1_0182D6E2:
 .byte   N23 ,Fs4 ,v080
 .byte   W24
 .byte   N11 ,Dn4
 .byte   W12
 .byte   N56 ,Bn3
 .byte   W48
 .byte   W12
 .byte   PEND 
@ 004   ----------------------------------------
Label_1_0182D6EE:
 .byte   N23 ,Bn4 ,v080
 .byte   W24
 .byte   N11 ,Fs4
 .byte   W12
 .byte   An4
 .byte   W12
 .byte   N44 ,En4
 .byte   W48
 .byte   PEND 
@ 005   ----------------------------------------
Label_1_0182D6FB:
 .byte   N23 ,Fs4 ,v080
 .byte   W24
 .byte   N11 ,Dn4
 .byte   W12
 .byte   N32 ,En4
 .byte   W36
 .byte   N23 ,Dn4
 .byte   W24
 .byte   PEND 
@ 006   ----------------------------------------
Label_1_0182D709:
 .byte   N23 ,Bn4 ,v080
 .byte   W24
 .byte   N11 ,Fs4
 .byte   W12
 .byte   N23 ,An4
 .byte   W24
 .byte   Bn4
 .byte   W24
 .byte   N56 ,Fs4
 .byte   W12
 .byte   PEND 
@ 007   ----------------------------------------
Label_1_0182D719:
 .byte   W48
 .byte   N11 ,Dn4 ,v080
 .byte   W12
 .byte   En4
 .byte   W12
 .byte   Fs4
 .byte   W12
 .byte   An4
 .byte   W12
 .byte   PEND 
@ 008   ----------------------------------------
 .byte   PATT
  .word Label_1_0182D6BA
@ 009   ----------------------------------------
 .byte   PATT
  .word Label_1_0182D6C7
@ 010   ----------------------------------------
Label_1_0182D72F:
 .byte   N23 ,Bn4 ,v080
 .byte   W24
 .byte   N11 ,Fs4
 .byte   W12
 .byte   N23 ,An4
 .byte   W24
 .byte   Dn5
 .byte   W24
 .byte   N56 ,Bn4
 .byte   W12
 .byte   PEND 
@ 011   ----------------------------------------
Label_1_0182D73F:
 .byte   W48
 .byte   N11 ,Fs4 ,v080
 .byte   W12
 .byte   An4
 .byte   W12
 .byte   Bn4
 .byte   W12
 .byte   Dn5
 .byte   W12
 .byte   PEND 
@ 012   ----------------------------------------
 .byte   PATT
  .word Label_1_0182D6D5
@ 013   ----------------------------------------
 .byte   PATT
  .word Label_1_0182D6FB
@ 014   ----------------------------------------
Label_1_0182D755:
 .byte   N23 ,Bn4 ,v080
 .byte   W24
 .byte   N11 ,Fs4
 .byte   W12
 .byte   N23 ,An4
 .byte   W24
 .byte   N32 ,Bn4
 .byte   W36
 .byte   PEND 
@ 015   ----------------------------------------
Label_1_0182D763:
 .byte   N92 ,Fs4 ,v080
 .byte   W96
 .byte   PEND 
@ 016   ----------------------------------------
 .byte   W96
@ 017   ----------------------------------------
 .byte   W96
@ 018   ----------------------------------------
 .byte   W96
@ 019   ----------------------------------------
 .byte   W96
@ 020   ----------------------------------------
 .byte   W96
@ 021   ----------------------------------------
 .byte   W96
@ 022   ----------------------------------------
 .byte   W96
@ 023   ----------------------------------------
 .byte   W96
@ 024   ----------------------------------------
 .byte   W96
@ 025   ----------------------------------------
 .byte   W96
@ 026   ----------------------------------------
 .byte   W96
@ 027   ----------------------------------------
 .byte   W96
@ 028   ----------------------------------------
 .byte   W96
@ 029   ----------------------------------------
 .byte   W96
@ 030   ----------------------------------------
 .byte   W96
@ 031   ----------------------------------------
 .byte   W96
@ 032   ----------------------------------------
Label_1_0182D778:
 .byte   N44 ,Dn4 ,v080
 .byte   W48
 .byte   N23 ,Bn4
 .byte   W24
 .byte   Cs5
 .byte   W24
 .byte   PEND 
@ 033   ----------------------------------------
Label_1_0182D782:
 .byte   N44 ,An4 ,v080
 .byte   W48
 .byte   N23 ,Fs4
 .byte   W24
 .byte   En4
 .byte   W24
 .byte   PEND 
@ 034   ----------------------------------------
Label_1_0182D78C:
 .byte   N23 ,En4 ,v080
 .byte   W24
 .byte   Fs4
 .byte   W24
 .byte   Dn4
 .byte   W24
 .byte   Cs4
 .byte   W24
 .byte   PEND 
@ 035   ----------------------------------------
 .byte   N92 ,Dn4
 .byte   W96
@ 036   ----------------------------------------
Label_1_0182D79A:
 .byte   N44 ,Dn3 ,v064
 .byte   W48
 .byte   TIE ,An4
 .byte   W48
 .byte   PEND 
@ 037   ----------------------------------------
Label_1_0182D7A2:
 .byte   W68
 .byte   W03
 .byte   PEND 
 .byte   EOT
 .byte   An4
 .byte   W01
 .byte   N23 ,Bn4 ,v064
 .byte   W24
@ 038   ----------------------------------------
Label_1_0182D7AC:
 .byte   N68 ,An4 ,v064
 .byte   W96
 .byte   PEND 
@ 039   ----------------------------------------
 .byte   W48
 .byte   N11 ,Dn4
 .byte   W12
 .byte   En4
 .byte   W12
 .byte   Fs4
 .byte   W12
 .byte   An4
 .byte   W12
@ 040   ----------------------------------------
 .byte   GOTO
  .word Label_1_0182D6BA
@ 041   ----------------------------------------
 .byte   PATT
  .word Label_1_0182D6BA
@ 042   ----------------------------------------
 .byte   PATT
  .word Label_1_0182D6C7
@ 043   ----------------------------------------
 .byte   PATT
  .word Label_1_0182D6D5
@ 044   ----------------------------------------
 .byte   PATT
  .word Label_1_0182D6E2
@ 045   ----------------------------------------
 .byte   PATT
  .word Label_1_0182D6EE
@ 046   ----------------------------------------
 .byte   PATT
  .word Label_1_0182D6FB
@ 047   ----------------------------------------
 .byte   PATT
  .word Label_1_0182D709
@ 048   ----------------------------------------
 .byte   PATT
  .word Label_1_0182D719
@ 049   ----------------------------------------
 .byte   PATT
  .word Label_1_0182D6BA
@ 050   ----------------------------------------
 .byte   PATT
  .word Label_1_0182D6C7
@ 051   ----------------------------------------
 .byte   PATT
  .word Label_1_0182D72F
@ 052   ----------------------------------------
 .byte   PATT
  .word Label_1_0182D73F
@ 053   ----------------------------------------
 .byte   PATT
  .word Label_1_0182D6D5
@ 054   ----------------------------------------
 .byte   PATT
  .word Label_1_0182D6FB
@ 055   ----------------------------------------
 .byte   PATT
  .word Label_1_0182D755
@ 056   ----------------------------------------
 .byte   PATT
  .word Label_1_0182D763
@ 057   ----------------------------------------
 .byte   W96
@ 058   ----------------------------------------
 .byte   W96
@ 059   ----------------------------------------
 .byte   W96
@ 060   ----------------------------------------
 .byte   W96
@ 061   ----------------------------------------
 .byte   W96
@ 062   ----------------------------------------
 .byte   W96
@ 063   ----------------------------------------
 .byte   W96
@ 064   ----------------------------------------
 .byte   W96
@ 065   ----------------------------------------
 .byte   W96
@ 066   ----------------------------------------
 .byte   W96
@ 067   ----------------------------------------
 .byte   W96
@ 068   ----------------------------------------
 .byte   W96
@ 069   ----------------------------------------
 .byte   W96
@ 070   ----------------------------------------
 .byte   W96
@ 071   ----------------------------------------
 .byte   W96
@ 072   ----------------------------------------
 .byte   W96
@ 073   ----------------------------------------
 .byte   PATT
  .word Label_1_0182D778
@ 074   ----------------------------------------
 .byte   PATT
  .word Label_1_0182D782
@ 075   ----------------------------------------
 .byte   PATT
  .word Label_1_0182D78C
@ 076   ----------------------------------------
 .byte   N92 ,Dn4 ,v080
 .byte   W96
@ 077   ----------------------------------------
 .byte   PATT
  .word Label_1_0182D79A
@ 078   ----------------------------------------
 .byte   PATT
  .word Label_1_0182D7A2
@ 079   ----------------------------------------
 .byte   EOT
 .byte   An4
 .byte   W01
 .byte   N23 ,Bn4 ,v064
 .byte   W24
@ 080   ----------------------------------------
 .byte   PATT
  .word Label_1_0182D7AC
@ 081   ----------------------------------------
 .byte   W92
 .byte   W03
 .byte   FINE

@**************** Track 3 (Midi-Chn.2) ****************@

songE0_003:
@ 000   ----------------------------------------
 .byte   KEYSH , songE0_key+0
 .byte   VOICE , 45
 .byte   VOL , 52*songE0_mvl/mxv
 .byte   PAN , c_v+0
 .byte   W48
Label_2_0182D855:
 .byte   W96
@ 001   ----------------------------------------
 .byte   W96
@ 002   ----------------------------------------
 .byte   W96
@ 003   ----------------------------------------
 .byte   W96
@ 004   ----------------------------------------
 .byte   W96
@ 005   ----------------------------------------
 .byte   W96
@ 006   ----------------------------------------
 .byte   W96
@ 007   ----------------------------------------
 .byte   W96
@ 008   ----------------------------------------
 .byte   W96
@ 009   ----------------------------------------
 .byte   W96
@ 010   ----------------------------------------
 .byte   W96
@ 011   ----------------------------------------
 .byte   W96
@ 012   ----------------------------------------
 .byte   W96
@ 013   ----------------------------------------
 .byte   W96
@ 014   ----------------------------------------
 .byte   W96
@ 015   ----------------------------------------
 .byte   W96
@ 016   ----------------------------------------
Label_2_0182D865:
 .byte   N92 ,Bn4 ,v120
 .byte   W01
 .byte   W01
 .byte   W01
 .byte   W01
 .byte   W01
 .byte   W90
 .byte   W01
 .byte   PEND 
@ 017   ----------------------------------------
Label_2_0182D870:
 .byte   N44 ,Dn5 ,v120
 .byte   W01
 .byte   W01
 .byte   W01
 .byte   W01
 .byte   W01
 .byte   W42
 .byte   W01
 .byte   Bn4
 .byte   W01
 .byte   W01
 .byte   W01
 .byte   W01
 .byte   W01
 .byte   W42
 .byte   W01
 .byte   PEND 
@ 018   ----------------------------------------
Label_2_0182D883:
 .byte   N23 ,An4 ,v120
 .byte   W01
 .byte   W01
 .byte   W01
 .byte   W01
 .byte   W01
 .byte   W19
 .byte   Bn4
 .byte   W01
 .byte   W01
 .byte   W01
 .byte   W01
 .byte   W01
 .byte   W19
 .byte   Fs4
 .byte   W01
 .byte   W01
 .byte   W01
 .byte   W01
 .byte   W01
 .byte   W19
 .byte   En4
 .byte   W01
 .byte   W01
 .byte   W01
 .byte   W01
 .byte   W01
 .byte   W19
 .byte   PEND 
@ 019   ----------------------------------------
Label_2_0182D8A2:
 .byte   N44 ,Fs4 ,v120
 .byte   W01
 .byte   W01
 .byte   W01
 .byte   W01
 .byte   W01
 .byte   W42
 .byte   W01
 .byte   N23
 .byte   W01
 .byte   W01
 .byte   W01
 .byte   W01
 .byte   W01
 .byte   W19
 .byte   An4
 .byte   W01
 .byte   W01
 .byte   W01
 .byte   W01
 .byte   W01
 .byte   W19
 .byte   PEND 
@ 020   ----------------------------------------
 .byte   PATT
  .word Label_2_0182D865
@ 021   ----------------------------------------
Label_2_0182D8C0:
 .byte   N44 ,Bn4 ,v120
 .byte   W01
 .byte   W01
 .byte   W01
 .byte   W01
 .byte   W01
 .byte   W42
 .byte   W01
 .byte   Dn5
 .byte   W01
 .byte   W01
 .byte   W01
 .byte   W01
 .byte   W01
 .byte   W42
 .byte   W01
 .byte   PEND 
@ 022   ----------------------------------------
Label_2_0182D8D3:
 .byte   N23 ,Dn5 ,v120
 .byte   W01
 .byte   W01
 .byte   W01
 .byte   W01
 .byte   W01
 .byte   W19
 .byte   En5
 .byte   W01
 .byte   W01
 .byte   W01
 .byte   W01
 .byte   W01
 .byte   W19
 .byte   Bn4
 .byte   W01
 .byte   W01
 .byte   W01
 .byte   W01
 .byte   W01
 .byte   W19
 .byte   An4
 .byte   W01
 .byte   W01
 .byte   W01
 .byte   W01
 .byte   W01
 .byte   W19
 .byte   PEND 
@ 023   ----------------------------------------
Label_2_0182D8F2:
 .byte   N44 ,Bn4 ,v120
 .byte   W01
 .byte   W01
 .byte   W01
 .byte   W01
 .byte   W01
 .byte   W42
 .byte   W01
 .byte   N23 ,Fs4 ,v080
 .byte   W24
 .byte   An4
 .byte   W24
 .byte   PEND 
@ 024   ----------------------------------------
Label_2_0182D903:
 .byte   N92 ,Bn4 ,v080
 .byte   W96
 .byte   PEND 
@ 025   ----------------------------------------
Label_2_0182D908:
 .byte   N44 ,Dn5 ,v080
 .byte   W48
 .byte   Bn4
 .byte   W48
 .byte   PEND 
@ 026   ----------------------------------------
Label_2_0182D90F:
 .byte   N23 ,An4 ,v080
 .byte   W24
 .byte   Bn4
 .byte   W24
 .byte   Fs4
 .byte   W24
 .byte   En4
 .byte   W24
 .byte   PEND 
@ 027   ----------------------------------------
Label_2_0182D91A:
 .byte   N44 ,Fs4 ,v080
 .byte   W48
 .byte   N23
 .byte   W24
 .byte   An4
 .byte   W24
 .byte   PEND 
@ 028   ----------------------------------------
 .byte   PATT
  .word Label_2_0182D903
@ 029   ----------------------------------------
Label_2_0182D928:
 .byte   N44 ,Bn4 ,v080
 .byte   W48
 .byte   Dn5
 .byte   W48
 .byte   PEND 
@ 030   ----------------------------------------
Label_2_0182D92F:
 .byte   N23 ,Dn5 ,v080
 .byte   W24
 .byte   En5
 .byte   W24
 .byte   Bn4
 .byte   W24
 .byte   An4
 .byte   W24
 .byte   PEND 
@ 031   ----------------------------------------
Label_2_0182D93A:
 .byte   N23 ,Bn4 ,v080
 .byte   W24
 .byte   Cs5
 .byte   W24
 .byte   Dn5
 .byte   W24
 .byte   En5
 .byte   W24
 .byte   PEND 
@ 032   ----------------------------------------
 .byte   W96
@ 033   ----------------------------------------
 .byte   W96
@ 034   ----------------------------------------
 .byte   W96
@ 035   ----------------------------------------
 .byte   W96
@ 036   ----------------------------------------
 .byte   W96
@ 037   ----------------------------------------
 .byte   W96
@ 038   ----------------------------------------
 .byte   W96
@ 039   ----------------------------------------
 .byte   W96
@ 040   ----------------------------------------
 .byte   GOTO
  .word Label_2_0182D855
@ 041   ----------------------------------------
 .byte   W96
@ 042   ----------------------------------------
 .byte   W96
@ 043   ----------------------------------------
 .byte   W96
@ 044   ----------------------------------------
 .byte   W96
@ 045   ----------------------------------------
 .byte   W96
@ 046   ----------------------------------------
 .byte   W96
@ 047   ----------------------------------------
 .byte   W96
@ 048   ----------------------------------------
 .byte   W96
@ 049   ----------------------------------------
 .byte   W96
@ 050   ----------------------------------------
 .byte   W96
@ 051   ----------------------------------------
 .byte   W96
@ 052   ----------------------------------------
 .byte   W96
@ 053   ----------------------------------------
 .byte   W96
@ 054   ----------------------------------------
 .byte   W96
@ 055   ----------------------------------------
 .byte   W96
@ 056   ----------------------------------------
 .byte   W96
@ 057   ----------------------------------------
 .byte   PATT
  .word Label_2_0182D865
@ 058   ----------------------------------------
 .byte   PATT
  .word Label_2_0182D870
@ 059   ----------------------------------------
 .byte   PATT
  .word Label_2_0182D883
@ 060   ----------------------------------------
 .byte   PATT
  .word Label_2_0182D8A2
@ 061   ----------------------------------------
 .byte   PATT
  .word Label_2_0182D865
@ 062   ----------------------------------------
 .byte   PATT
  .word Label_2_0182D8C0
@ 063   ----------------------------------------
 .byte   PATT
  .word Label_2_0182D8D3
@ 064   ----------------------------------------
 .byte   PATT
  .word Label_2_0182D8F2
@ 065   ----------------------------------------
 .byte   PATT
  .word Label_2_0182D903
@ 066   ----------------------------------------
 .byte   PATT
  .word Label_2_0182D908
@ 067   ----------------------------------------
 .byte   PATT
  .word Label_2_0182D90F
@ 068   ----------------------------------------
 .byte   PATT
  .word Label_2_0182D91A
@ 069   ----------------------------------------
 .byte   PATT
  .word Label_2_0182D903
@ 070   ----------------------------------------
 .byte   PATT
  .word Label_2_0182D928
@ 071   ----------------------------------------
 .byte   PATT
  .word Label_2_0182D92F
@ 072   ----------------------------------------
 .byte   PATT
  .word Label_2_0182D93A
@ 073   ----------------------------------------
 .byte   W96
@ 074   ----------------------------------------
 .byte   W96
@ 075   ----------------------------------------
 .byte   W96
@ 076   ----------------------------------------
 .byte   W96
@ 077   ----------------------------------------
 .byte   W96
@ 078   ----------------------------------------
 .byte   W96
@ 079   ----------------------------------------
 .byte   W96
@ 080   ----------------------------------------
 .byte   W92
 .byte   W03
 .byte   FINE

@**************** Track 4 (Midi-Chn.3) ****************@

songE0_004:
@ 000   ----------------------------------------
 .byte   KEYSH , songE0_key+0
 .byte   VOICE , 41
 .byte   VOL , 52*songE0_mvl/mxv
 .byte   PAN , c_v+0
 .byte   N11 ,Dn3 ,v080
 .byte   W12
 .byte   En3
 .byte   W12
 .byte   Fs3
 .byte   W12
 .byte   An3
 .byte   W12
Label_3_0182D9CE:
 .byte   N44 ,Fs3 ,v064
 .byte   W48
@ 001   ----------------------------------------
 .byte   N23 ,An3
 .byte   W24
 .byte   Fs3
 .byte   W24
 .byte   PEND 
Label_3_0182D9D8:
 .byte   N03 ,Dn3 ,v064
 .byte   W03
 .byte   N92 ,En3
 .byte   W92
@ 002   ----------------------------------------
 .byte   W01
 .byte   PEND 
Label_3_0182D9E1:
 .byte   N23 ,Fs3 ,v064
 .byte   W24
 .byte   An3
 .byte   W24
 .byte   Bn3
 .byte   W24
 .byte   Cs4
 .byte   W24
 .byte   PEND 
@ 003   ----------------------------------------
Label_3_0182D9EC:
 .byte   N23 ,Dn4 ,v064
 .byte   W24
 .byte   En3
 .byte   W24
 .byte   Fs3
 .byte   W24
 .byte   An3
 .byte   W24
 .byte   PEND 
@ 004   ----------------------------------------
Label_3_0182D9F7:
 .byte   N44 ,Fs3 ,v064
 .byte   W48
 .byte   N44
 .byte   W48
 .byte   PEND 
@ 005   ----------------------------------------
Label_3_0182D9FE:
 .byte   N92 ,An3 ,v064
 .byte   W96
 .byte   PEND 
@ 006   ----------------------------------------
Label_3_0182DA03:
 .byte   N23 ,Bn3 ,v064
 .byte   W24
 .byte   N11 ,Fs3
 .byte   W12
 .byte   N23 ,An3
 .byte   W24
 .byte   Bn3
 .byte   W24
 .byte   N11 ,Fs3
 .byte   W12
 .byte   PEND 
@ 007   ----------------------------------------
Label_3_0182DA13:
 .byte   W48
 .byte   N11 ,Dn3 ,v064
 .byte   W12
 .byte   En3
 .byte   W12
 .byte   Fs3
 .byte   W12
 .byte   An3
 .byte   W12
 .byte   PEND 
@ 008   ----------------------------------------
 .byte   PATT
  .word Label_3_0182D9CE
@ 009   ----------------------------------------
 .byte   PATT
  .word Label_3_0182D9D8
@ 010   ----------------------------------------
Label_3_0182DA29:
 .byte   W24
 .byte   N11 ,Bn2 ,v064
 .byte   W12
 .byte   N23 ,Fs3
 .byte   W24
 .byte   En3
 .byte   W24
 .byte   N56 ,Dn3
 .byte   W12
 .byte   PEND 
@ 011   ----------------------------------------
Label_3_0182DA37:
 .byte   W48
 .byte   N44 ,Dn3 ,v064
 .byte   W48
 .byte   PEND 
@ 012   ----------------------------------------
Label_3_0182DA3D:
 .byte   N23 ,Dn3 ,v064
 .byte   W24
 .byte   Fs3
 .byte   W24
 .byte   An3
 .byte   W24
 .byte   Fs3
 .byte   W24
 .byte   PEND 
@ 013   ----------------------------------------
 .byte   PATT
  .word Label_3_0182D9D8
@ 014   ----------------------------------------
 .byte   N92 ,En3 ,v064
 .byte   W96
@ 015   ----------------------------------------
 .byte   W96
@ 016   ----------------------------------------
 .byte   W96
@ 017   ----------------------------------------
 .byte   W96
@ 018   ----------------------------------------
 .byte   W96
@ 019   ----------------------------------------
 .byte   W96
@ 020   ----------------------------------------
 .byte   W96
@ 021   ----------------------------------------
 .byte   W96
@ 022   ----------------------------------------
 .byte   W96
@ 023   ----------------------------------------
 .byte   W96
@ 024   ----------------------------------------
 .byte   W96
@ 025   ----------------------------------------
 .byte   W96
@ 026   ----------------------------------------
 .byte   W96
@ 027   ----------------------------------------
 .byte   W96
@ 028   ----------------------------------------
 .byte   W96
@ 029   ----------------------------------------
 .byte   W96
@ 030   ----------------------------------------
 .byte   W96
@ 031   ----------------------------------------
 .byte   W96
@ 032   ----------------------------------------
 .byte   W96
@ 033   ----------------------------------------
 .byte   W96
@ 034   ----------------------------------------
 .byte   W96
@ 035   ----------------------------------------
 .byte   W96
@ 036   ----------------------------------------
 .byte   W96
@ 037   ----------------------------------------
 .byte   W96
@ 038   ----------------------------------------
 .byte   W96
@ 039   ----------------------------------------
 .byte   W48
 .byte   N11 ,Dn3 ,v080
 .byte   W12
 .byte   En3
 .byte   W12
 .byte   Fs3
 .byte   W12
 .byte   An3
 .byte   W12
@ 040   ----------------------------------------
 .byte   GOTO
  .word Label_3_0182D9CE
@ 041   ----------------------------------------
 .byte   PATT
  .word Label_3_0182D9CE
@ 042   ----------------------------------------
 .byte   PATT
  .word Label_3_0182D9D8
@ 043   ----------------------------------------
 .byte   PATT
  .word Label_3_0182D9E1
@ 044   ----------------------------------------
 .byte   PATT
  .word Label_3_0182D9EC
@ 045   ----------------------------------------
 .byte   PATT
  .word Label_3_0182D9F7
@ 046   ----------------------------------------
 .byte   PATT
  .word Label_3_0182D9FE
@ 047   ----------------------------------------
 .byte   PATT
  .word Label_3_0182DA03
@ 048   ----------------------------------------
 .byte   PATT
  .word Label_3_0182DA13
@ 049   ----------------------------------------
 .byte   PATT
  .word Label_3_0182D9CE
@ 050   ----------------------------------------
 .byte   PATT
  .word Label_3_0182D9D8
@ 051   ----------------------------------------
 .byte   PATT
  .word Label_3_0182DA29
@ 052   ----------------------------------------
 .byte   PATT
  .word Label_3_0182DA37
@ 053   ----------------------------------------
 .byte   PATT
  .word Label_3_0182DA3D
@ 054   ----------------------------------------
 .byte   PATT
  .word Label_3_0182D9D8
@ 055   ----------------------------------------
 .byte   N92 ,En3 ,v064
 .byte   W96
@ 056   ----------------------------------------
 .byte   W96
@ 057   ----------------------------------------
 .byte   W96
@ 058   ----------------------------------------
 .byte   W96
@ 059   ----------------------------------------
 .byte   W96
@ 060   ----------------------------------------
 .byte   W96
@ 061   ----------------------------------------
 .byte   W96
@ 062   ----------------------------------------
 .byte   W96
@ 063   ----------------------------------------
 .byte   W96
@ 064   ----------------------------------------
 .byte   W96
@ 065   ----------------------------------------
 .byte   W96
@ 066   ----------------------------------------
 .byte   W96
@ 067   ----------------------------------------
 .byte   W96
@ 068   ----------------------------------------
 .byte   W96
@ 069   ----------------------------------------
 .byte   W96
@ 070   ----------------------------------------
 .byte   W96
@ 071   ----------------------------------------
 .byte   W96
@ 072   ----------------------------------------
 .byte   W96
@ 073   ----------------------------------------
 .byte   W96
@ 074   ----------------------------------------
 .byte   W96
@ 075   ----------------------------------------
 .byte   W96
@ 076   ----------------------------------------
 .byte   W96
@ 077   ----------------------------------------
 .byte   W96
@ 078   ----------------------------------------
 .byte   W96
@ 079   ----------------------------------------
 .byte   W96
@ 080   ----------------------------------------
 .byte   W92
 .byte   W03
 .byte   FINE

@**************** Track 5 (Midi-Chn.4) ****************@

songE0_005:
@ 000   ----------------------------------------
 .byte   KEYSH , songE0_key+0
 .byte   VOICE , 45
 .byte   VOL , 52*songE0_mvl/mxv
 .byte   PAN , c_v+0
 .byte   W48
Label_4_0182DAE9:
 .byte   W96
@ 001   ----------------------------------------
 .byte   W96
@ 002   ----------------------------------------
 .byte   W96
@ 003   ----------------------------------------
 .byte   W96
@ 004   ----------------------------------------
 .byte   W96
@ 005   ----------------------------------------
 .byte   W96
@ 006   ----------------------------------------
 .byte   W96
@ 007   ----------------------------------------
 .byte   W96
@ 008   ----------------------------------------
 .byte   W96
@ 009   ----------------------------------------
 .byte   W96
@ 010   ----------------------------------------
 .byte   W96
@ 011   ----------------------------------------
 .byte   W96
@ 012   ----------------------------------------
 .byte   W96
@ 013   ----------------------------------------
 .byte   W96
@ 014   ----------------------------------------
 .byte   W96
@ 015   ----------------------------------------
Label_4_0182DAF8:
 .byte   N23 ,Dn3 ,v112
 .byte   W24
 .byte   En3
 .byte   W24
 .byte   Fs3
 .byte   W24
 .byte   An3
 .byte   W24
 .byte   PEND 
@ 016   ----------------------------------------
Label_4_0182DB03:
 .byte   N23 ,Bn3 ,v080
 .byte   W24
 .byte   N11 ,Dn3
 .byte   W12
 .byte   Bn2
 .byte   W12
 .byte   N23 ,Dn3
 .byte   W24
 .byte   N11 ,Fs3
 .byte   W12
 .byte   Bn2
 .byte   W12
 .byte   PEND 
@ 017   ----------------------------------------
Label_4_0182DB15:
 .byte   N23 ,Dn3 ,v080
 .byte   W24
 .byte   N11 ,En3
 .byte   W12
 .byte   Fs3
 .byte   W12
 .byte   An3
 .byte   W12
 .byte   Gn3
 .byte   W12
 .byte   Fs3
 .byte   W12
 .byte   En3
 .byte   W12
 .byte   PEND 
@ 018   ----------------------------------------
Label_4_0182DB27:
 .byte   N23 ,Dn3 ,v080
 .byte   W24
 .byte   N11
 .byte   W12
 .byte   Cs3
 .byte   W12
 .byte   N23 ,Dn3
 .byte   W24
 .byte   N11 ,Fs3
 .byte   W12
 .byte   Bn2
 .byte   W12
 .byte   PEND 
@ 019   ----------------------------------------
Label_4_0182DB38:
 .byte   N11 ,Dn3 ,v080
 .byte   W12
 .byte   En3
 .byte   W12
 .byte   N23 ,Fs3
 .byte   W24
 .byte   N23
 .byte   W24
 .byte   N11
 .byte   W12
 .byte   En3
 .byte   W12
 .byte   PEND 
@ 020   ----------------------------------------
Label_4_0182DB48:
 .byte   N23 ,Dn3 ,v080
 .byte   W24
 .byte   N11
 .byte   W12
 .byte   Bn2
 .byte   W12
 .byte   N23 ,Dn3
 .byte   W24
 .byte   N11 ,Fs3
 .byte   W12
 .byte   Bn2
 .byte   W12
 .byte   PEND 
@ 021   ----------------------------------------
Label_4_0182DB59:
 .byte   N23 ,Dn3 ,v080
 .byte   W24
 .byte   N11 ,Cs3
 .byte   W12
 .byte   Dn3
 .byte   W12
 .byte   En3
 .byte   W12
 .byte   Fs3
 .byte   W12
 .byte   Gn3
 .byte   W12
 .byte   An3
 .byte   W12
 .byte   PEND 
@ 022   ----------------------------------------
Label_4_0182DB6B:
 .byte   N23 ,Bn3 ,v080
 .byte   W24
 .byte   N11 ,Fs3
 .byte   W12
 .byte   En3
 .byte   W12
 .byte   N23 ,Dn3
 .byte   W24
 .byte   En3
 .byte   W24
 .byte   PEND 
@ 023   ----------------------------------------
Label_4_0182DB7A:
 .byte   N11 ,Bn2 ,v080
 .byte   W12
 .byte   Cs3
 .byte   W12
 .byte   N23 ,Dn3
 .byte   W24
 .byte   N23
 .byte   W24
 .byte   N23
 .byte   W24
 .byte   PEND 
@ 024   ----------------------------------------
 .byte   PATT
  .word Label_4_0182DB03
@ 025   ----------------------------------------
Label_4_0182DB8D:
 .byte   N23 ,Dn3 ,v080
 .byte   W24
 .byte   N11 ,En3
 .byte   W12
 .byte   Fs3
 .byte   W12
 .byte   An3
 .byte   W12
 .byte   Gn3
 .byte   W12
 .byte   Fs3
 .byte   W12
 .byte   En3
 .byte   W12
 .byte   PEND 
@ 026   ----------------------------------------
Label_4_0182DB9F:
 .byte   N23 ,Dn3 ,v080
 .byte   W24
 .byte   N11
 .byte   W12
 .byte   Cs3
 .byte   W12
 .byte   N23 ,Dn3
 .byte   W24
 .byte   N11 ,Fs3
 .byte   W12
 .byte   Bn2
 .byte   W12
 .byte   PEND 
@ 027   ----------------------------------------
 .byte   PATT
  .word Label_4_0182DB38
@ 028   ----------------------------------------
 .byte   PATT
  .word Label_4_0182DB48
@ 029   ----------------------------------------
Label_4_0182DBBA:
 .byte   N23 ,Dn3 ,v080
 .byte   W24
 .byte   N11 ,Cs3
 .byte   W12
 .byte   Dn3
 .byte   W12
 .byte   En3
 .byte   W12
 .byte   Fs3
 .byte   W12
 .byte   Gn3
 .byte   W12
 .byte   An3
 .byte   W12
 .byte   PEND 
@ 030   ----------------------------------------
Label_4_0182DBCC:
 .byte   N23 ,Bn3 ,v080
 .byte   W24
 .byte   N11 ,Fs3
 .byte   W12
 .byte   En3
 .byte   W12
 .byte   N23 ,Dn3
 .byte   W24
 .byte   En3
 .byte   W24
 .byte   PEND 
@ 031   ----------------------------------------
Label_4_0182DBDB:
 .byte   N11 ,Bn2 ,v080
 .byte   W12
 .byte   Cs3
 .byte   W12
 .byte   N23 ,Dn3
 .byte   W72
 .byte   PEND 
@ 032   ----------------------------------------
Label_4_0182DBE5:
 .byte   N92 ,Gn2 ,v080
 .byte   W96
 .byte   PEND 
@ 033   ----------------------------------------
 .byte   W96
@ 034   ----------------------------------------
 .byte   W96
@ 035   ----------------------------------------
 .byte   W96
@ 036   ----------------------------------------
 .byte   W96
@ 037   ----------------------------------------
 .byte   W96
@ 038   ----------------------------------------
 .byte   W96
@ 039   ----------------------------------------
 .byte   W96
@ 040   ----------------------------------------
 .byte   GOTO
  .word Label_4_0182DAE9
@ 041   ----------------------------------------
 .byte   W96
@ 042   ----------------------------------------
 .byte   W96
@ 043   ----------------------------------------
 .byte   W96
@ 044   ----------------------------------------
 .byte   W96
@ 045   ----------------------------------------
 .byte   W96
@ 046   ----------------------------------------
 .byte   W96
@ 047   ----------------------------------------
 .byte   W96
@ 048   ----------------------------------------
 .byte   W96
@ 049   ----------------------------------------
 .byte   W96
@ 050   ----------------------------------------
 .byte   W96
@ 051   ----------------------------------------
 .byte   W96
@ 052   ----------------------------------------
 .byte   W96
@ 053   ----------------------------------------
 .byte   W96
@ 054   ----------------------------------------
 .byte   W96
@ 055   ----------------------------------------
 .byte   W96
@ 056   ----------------------------------------
 .byte   PATT
  .word Label_4_0182DAF8
@ 057   ----------------------------------------
 .byte   PATT
  .word Label_4_0182DB03
@ 058   ----------------------------------------
 .byte   PATT
  .word Label_4_0182DB15
@ 059   ----------------------------------------
 .byte   PATT
  .word Label_4_0182DB27
@ 060   ----------------------------------------
 .byte   PATT
  .word Label_4_0182DB38
@ 061   ----------------------------------------
 .byte   PATT
  .word Label_4_0182DB48
@ 062   ----------------------------------------
 .byte   PATT
  .word Label_4_0182DB59
@ 063   ----------------------------------------
 .byte   PATT
  .word Label_4_0182DB6B
@ 064   ----------------------------------------
 .byte   PATT
  .word Label_4_0182DB7A
@ 065   ----------------------------------------
 .byte   PATT
  .word Label_4_0182DB03
@ 066   ----------------------------------------
 .byte   PATT
  .word Label_4_0182DB8D
@ 067   ----------------------------------------
 .byte   PATT
  .word Label_4_0182DB9F
@ 068   ----------------------------------------
 .byte   PATT
  .word Label_4_0182DB38
@ 069   ----------------------------------------
 .byte   PATT
  .word Label_4_0182DB48
@ 070   ----------------------------------------
 .byte   PATT
  .word Label_4_0182DBBA
@ 071   ----------------------------------------
 .byte   PATT
  .word Label_4_0182DBCC
@ 072   ----------------------------------------
 .byte   PATT
  .word Label_4_0182DBDB
@ 073   ----------------------------------------
 .byte   PATT
  .word Label_4_0182DBE5
@ 074   ----------------------------------------
 .byte   W96
@ 075   ----------------------------------------
 .byte   W96
@ 076   ----------------------------------------
 .byte   W96
@ 077   ----------------------------------------
 .byte   W96
@ 078   ----------------------------------------
 .byte   W96
@ 079   ----------------------------------------
 .byte   W96
@ 080   ----------------------------------------
 .byte   W92
 .byte   W03
 .byte   FINE

@**************** Track 6 (Midi-Chn.5) ****************@

songE0_006:
@ 000   ----------------------------------------
 .byte   KEYSH , songE0_key+0
 .byte   VOICE , 42
 .byte   VOL , 52*songE0_mvl/mxv
 .byte   PAN , c_v+0
 .byte   W48
Label_5_0182DC71:
 .byte   W24
 .byte   N23 ,Bn1 ,v080
 .byte   W24
@ 001   ----------------------------------------
 .byte   Fs2
 .byte   W24
 .byte   Dn2
 .byte   W24
 .byte   PEND 
Label_5_0182DC7B:
 .byte   N92 ,Cs2 ,v080
 .byte   W96
 .byte   PEND 
@ 002   ----------------------------------------
Label_5_0182DC80:
 .byte   W48
 .byte   N23 ,Bn1 ,v080
 .byte   W24
 .byte   Cs2
 .byte   W24
 .byte   PEND 
@ 003   ----------------------------------------
Label_5_0182DC88:
 .byte   N92 ,Bn1 ,v080
 .byte   W96
 .byte   PEND 
@ 004   ----------------------------------------
Label_5_0182DC8D:
 .byte   N44 ,Fs2 ,v080
 .byte   W48
 .byte   Bn1
 .byte   W48
 .byte   PEND 
@ 005   ----------------------------------------
Label_5_0182DC94:
 .byte   N92 ,An2 ,v080
 .byte   W96
 .byte   PEND 
@ 006   ----------------------------------------
Label_5_0182DC99:
 .byte   W36
 .byte   N44 ,En2 ,v080
 .byte   W48
 .byte   N11 ,Fs2
 .byte   W12
 .byte   PEND 
@ 007   ----------------------------------------
Label_5_0182DCA2:
 .byte   N44 ,Fs2 ,v080
 .byte   W48
 .byte   N23 ,Dn2
 .byte   W24
 .byte   Bn1
 .byte   W24
 .byte   PEND 
@ 008   ----------------------------------------
 .byte   PATT
  .word Label_5_0182DC71
@ 009   ----------------------------------------
 .byte   PATT
  .word Label_5_0182DC7B
@ 010   ----------------------------------------
Label_5_0182DCB6:
 .byte   W24
 .byte   N11 ,Bn1 ,v080
 .byte   W12
 .byte   N23 ,Fs2
 .byte   W24
 .byte   Cs2
 .byte   W24
 .byte   N56 ,Dn2
 .byte   W12
 .byte   PEND 
@ 011   ----------------------------------------
Label_5_0182DCC4:
 .byte   W48
 .byte   N44 ,Dn2 ,v080
 .byte   W48
 .byte   PEND 
@ 012   ----------------------------------------
Label_5_0182DCCA:
 .byte   N23 ,En2 ,v080
 .byte   W24
 .byte   Bn1
 .byte   W24
 .byte   Fs2
 .byte   W24
 .byte   Dn2
 .byte   W24
 .byte   PEND 
@ 013   ----------------------------------------
 .byte   PATT
  .word Label_5_0182DC7B
@ 014   ----------------------------------------
Label_5_0182DCDA:
 .byte   N23 ,Bn1 ,v080
 .byte   W24
 .byte   N23
 .byte   W24
 .byte   N11
 .byte   W12
 .byte   N32 ,Dn2
 .byte   W36
 .byte   PEND 
@ 015   ----------------------------------------
Label_5_0182DCE6:
 .byte   N92 ,Dn2 ,v080
 .byte   W96
 .byte   PEND 
@ 016   ----------------------------------------
 .byte   W96
@ 017   ----------------------------------------
 .byte   W96
@ 018   ----------------------------------------
 .byte   W96
@ 019   ----------------------------------------
 .byte   W96
@ 020   ----------------------------------------
 .byte   W96
@ 021   ----------------------------------------
 .byte   W96
@ 022   ----------------------------------------
 .byte   W96
@ 023   ----------------------------------------
 .byte   W96
@ 024   ----------------------------------------
 .byte   W96
@ 025   ----------------------------------------
 .byte   W96
@ 026   ----------------------------------------
 .byte   W96
@ 027   ----------------------------------------
 .byte   W96
@ 028   ----------------------------------------
 .byte   W96
@ 029   ----------------------------------------
 .byte   W96
@ 030   ----------------------------------------
 .byte   W96
@ 031   ----------------------------------------
Label_5_0182DCFA:
 .byte   N44 ,Bn2 ,v052
 .byte   W48
 .byte   Cs3
 .byte   W48
 .byte   PEND 
@ 032   ----------------------------------------
Label_5_0182DD01:
 .byte   N44 ,Gn2 ,v052
 .byte   W48
 .byte   En2
 .byte   W48
 .byte   PEND 
@ 033   ----------------------------------------
Label_5_0182DD08:
 .byte   N44 ,Fs2 ,v052
 .byte   W48
 .byte   Cs3
 .byte   W48
 .byte   PEND 
@ 034   ----------------------------------------
Label_5_0182DD0F:
 .byte   N92 ,An2 ,v052
 .byte   W96
 .byte   PEND 
@ 035   ----------------------------------------
Label_5_0182DD14:
 .byte   N23 ,An2 ,v052
 .byte   W24
 .byte   Gn2
 .byte   W24
 .byte   Fs2
 .byte   W24
 .byte   En2
 .byte   W24
 .byte   PEND 
@ 036   ----------------------------------------
Label_5_0182DD1F:
 .byte   N44 ,Dn2 ,v052
 .byte   W48
 .byte   N23 ,Fs2
 .byte   W24
 .byte   N11 ,Dn2
 .byte   W12
 .byte   En2
 .byte   W12
 .byte   PEND 
@ 037   ----------------------------------------
Label_5_0182DD2C:
 .byte   N68 ,Fs2 ,v052
 .byte   W72
 .byte   N23 ,Gn2
 .byte   W24
 .byte   PEND 
@ 038   ----------------------------------------
Label_5_0182DD34:
 .byte   N68 ,Fs2 ,v052
 .byte   W72
 .byte   N23 ,Dn3
 .byte   W24
 .byte   PEND 
@ 039   ----------------------------------------
 .byte   N11 ,An2
 .byte   W96
@ 040   ----------------------------------------
 .byte   GOTO
  .word Label_5_0182DC71
@ 041   ----------------------------------------
 .byte   PATT
  .word Label_5_0182DC71
@ 042   ----------------------------------------
 .byte   PATT
  .word Label_5_0182DC7B
@ 043   ----------------------------------------
 .byte   PATT
  .word Label_5_0182DC80
@ 044   ----------------------------------------
 .byte   PATT
  .word Label_5_0182DC88
@ 045   ----------------------------------------
 .byte   PATT
  .word Label_5_0182DC8D
@ 046   ----------------------------------------
 .byte   PATT
  .word Label_5_0182DC94
@ 047   ----------------------------------------
 .byte   PATT
  .word Label_5_0182DC99
@ 048   ----------------------------------------
 .byte   PATT
  .word Label_5_0182DCA2
@ 049   ----------------------------------------
 .byte   PATT
  .word Label_5_0182DC71
@ 050   ----------------------------------------
 .byte   PATT
  .word Label_5_0182DC7B
@ 051   ----------------------------------------
 .byte   PATT
  .word Label_5_0182DCB6
@ 052   ----------------------------------------
 .byte   PATT
  .word Label_5_0182DCC4
@ 053   ----------------------------------------
 .byte   PATT
  .word Label_5_0182DCCA
@ 054   ----------------------------------------
 .byte   PATT
  .word Label_5_0182DC7B
@ 055   ----------------------------------------
 .byte   PATT
  .word Label_5_0182DCDA
@ 056   ----------------------------------------
 .byte   PATT
  .word Label_5_0182DCE6
@ 057   ----------------------------------------
 .byte   W96
@ 058   ----------------------------------------
 .byte   W96
@ 059   ----------------------------------------
 .byte   W96
@ 060   ----------------------------------------
 .byte   W96
@ 061   ----------------------------------------
 .byte   W96
@ 062   ----------------------------------------
 .byte   W96
@ 063   ----------------------------------------
 .byte   W96
@ 064   ----------------------------------------
 .byte   W96
@ 065   ----------------------------------------
 .byte   W96
@ 066   ----------------------------------------
 .byte   W96
@ 067   ----------------------------------------
 .byte   W96
@ 068   ----------------------------------------
 .byte   W96
@ 069   ----------------------------------------
 .byte   W96
@ 070   ----------------------------------------
 .byte   W96
@ 071   ----------------------------------------
 .byte   W96
@ 072   ----------------------------------------
 .byte   PATT
  .word Label_5_0182DCFA
@ 073   ----------------------------------------
 .byte   PATT
  .word Label_5_0182DD01
@ 074   ----------------------------------------
 .byte   PATT
  .word Label_5_0182DD08
@ 075   ----------------------------------------
 .byte   PATT
  .word Label_5_0182DD0F
@ 076   ----------------------------------------
 .byte   PATT
  .word Label_5_0182DD14
@ 077   ----------------------------------------
 .byte   PATT
  .word Label_5_0182DD1F
@ 078   ----------------------------------------
 .byte   PATT
  .word Label_5_0182DD2C
@ 079   ----------------------------------------
 .byte   PATT
  .word Label_5_0182DD34
@ 080   ----------------------------------------
 .byte   N11 ,An2 ,v052
 .byte   W92
 .byte   W03
 .byte   FINE

@**************** Track 7 (Midi-Chn.6) ****************@

songE0_007:
@ 000   ----------------------------------------
 .byte   KEYSH , songE0_key+0
 .byte   VOICE , 121
 .byte   VOL , 52*songE0_mvl/mxv
 .byte   PAN , c_v+0
 .byte   W48
Label_6_0182DDDD:
 .byte   N80 ,Bn0 ,v080
 .byte   W84
@ 001   ----------------------------------------
 .byte   N11
 .byte   W12
 .byte   PEND 
 .byte   N92
 .byte   W96
@ 002   ----------------------------------------
 .byte   PATT
  .word Label_6_0182DDDD
@ 003   ----------------------------------------
 .byte   N92 ,Bn0 ,v080
 .byte   W96
@ 004   ----------------------------------------
 .byte   PATT
  .word Label_6_0182DDDD
@ 005   ----------------------------------------
 .byte   N92 ,Bn0 ,v080
 .byte   W96
@ 006   ----------------------------------------
 .byte   PATT
  .word Label_6_0182DDDD
@ 007   ----------------------------------------
 .byte   N92 ,Bn0 ,v080
 .byte   W96
@ 008   ----------------------------------------
 .byte   PATT
  .word Label_6_0182DDDD
@ 009   ----------------------------------------
 .byte   N92 ,Bn0 ,v080
 .byte   W96
@ 010   ----------------------------------------
 .byte   PATT
  .word Label_6_0182DDDD
@ 011   ----------------------------------------
 .byte   N92 ,Bn0 ,v080
 .byte   W96
@ 012   ----------------------------------------
 .byte   PATT
  .word Label_6_0182DDDD
@ 013   ----------------------------------------
 .byte   N92 ,Bn0 ,v080
 .byte   W96
@ 014   ----------------------------------------
 .byte   PATT
  .word Label_6_0182DDDD
@ 015   ----------------------------------------
 .byte   N92 ,Bn0 ,v080
 .byte   W96
@ 016   ----------------------------------------
 .byte   N92
 .byte   W96
@ 017   ----------------------------------------
 .byte   N92
 .byte   W96
@ 018   ----------------------------------------
 .byte   N92
 .byte   W96
@ 019   ----------------------------------------
 .byte   N92
 .byte   W96
@ 020   ----------------------------------------
 .byte   N92
 .byte   W96
@ 021   ----------------------------------------
 .byte   N92
 .byte   W96
@ 022   ----------------------------------------
 .byte   N92
 .byte   W96
@ 023   ----------------------------------------
 .byte   N92
 .byte   W96
@ 024   ----------------------------------------
 .byte   N92
 .byte   W96
@ 025   ----------------------------------------
 .byte   N92
 .byte   W96
@ 026   ----------------------------------------
 .byte   N92
 .byte   W96
@ 027   ----------------------------------------
 .byte   N92
 .byte   W96
@ 028   ----------------------------------------
 .byte   N92
 .byte   W96
@ 029   ----------------------------------------
 .byte   N92
 .byte   W96
@ 030   ----------------------------------------
 .byte   N92
 .byte   W96
@ 031   ----------------------------------------
 .byte   N92
 .byte   W96
@ 032   ----------------------------------------
 .byte   PATT
  .word Label_6_0182DDDD
@ 033   ----------------------------------------
 .byte   N92 ,Bn0 ,v080
 .byte   W96
@ 034   ----------------------------------------
 .byte   PATT
  .word Label_6_0182DDDD
@ 035   ----------------------------------------
 .byte   N92 ,Bn0 ,v080
 .byte   W96
@ 036   ----------------------------------------
 .byte   PATT
  .word Label_6_0182DDDD
@ 037   ----------------------------------------
 .byte   N92 ,Bn0 ,v080
 .byte   W96
@ 038   ----------------------------------------
 .byte   PATT
  .word Label_6_0182DDDD
@ 039   ----------------------------------------
 .byte   N92 ,Bn0 ,v080
 .byte   W96
@ 040   ----------------------------------------
 .byte   GOTO
  .word Label_6_0182DDDD
@ 041   ----------------------------------------
 .byte   PATT
  .word Label_6_0182DDDD
@ 042   ----------------------------------------
 .byte   N92 ,Bn0 ,v080
 .byte   W96
@ 043   ----------------------------------------
 .byte   PATT
  .word Label_6_0182DDDD
@ 044   ----------------------------------------
 .byte   N92 ,Bn0 ,v080
 .byte   W96
@ 045   ----------------------------------------
 .byte   PATT
  .word Label_6_0182DDDD
@ 046   ----------------------------------------
 .byte   N92 ,Bn0 ,v080
 .byte   W96
@ 047   ----------------------------------------
 .byte   PATT
  .word Label_6_0182DDDD
@ 048   ----------------------------------------
 .byte   N92 ,Bn0 ,v080
 .byte   W96
@ 049   ----------------------------------------
 .byte   PATT
  .word Label_6_0182DDDD
@ 050   ----------------------------------------
 .byte   N92 ,Bn0 ,v080
 .byte   W96
@ 051   ----------------------------------------
 .byte   PATT
  .word Label_6_0182DDDD
@ 052   ----------------------------------------
 .byte   N92 ,Bn0 ,v080
 .byte   W96
@ 053   ----------------------------------------
 .byte   PATT
  .word Label_6_0182DDDD
@ 054   ----------------------------------------
 .byte   N92 ,Bn0 ,v080
 .byte   W96
@ 055   ----------------------------------------
 .byte   PATT
  .word Label_6_0182DDDD
@ 056   ----------------------------------------
 .byte   N92 ,Bn0 ,v080
 .byte   W96
@ 057   ----------------------------------------
 .byte   N92
 .byte   W96
@ 058   ----------------------------------------
 .byte   N92
 .byte   W96
@ 059   ----------------------------------------
 .byte   N92
 .byte   W96
@ 060   ----------------------------------------
 .byte   N92
 .byte   W96
@ 061   ----------------------------------------
 .byte   N92
 .byte   W96
@ 062   ----------------------------------------
 .byte   N92
 .byte   W96
@ 063   ----------------------------------------
 .byte   N92
 .byte   W96
@ 064   ----------------------------------------
 .byte   N92
 .byte   W96
@ 065   ----------------------------------------
 .byte   N92
 .byte   W96
@ 066   ----------------------------------------
 .byte   N92
 .byte   W96
@ 067   ----------------------------------------
 .byte   N92
 .byte   W96
@ 068   ----------------------------------------
 .byte   N92
 .byte   W96
@ 069   ----------------------------------------
 .byte   N92
 .byte   W96
@ 070   ----------------------------------------
 .byte   N92
 .byte   W96
@ 071   ----------------------------------------
 .byte   N92
 .byte   W96
@ 072   ----------------------------------------
 .byte   N92
 .byte   W96
@ 073   ----------------------------------------
 .byte   PATT
  .word Label_6_0182DDDD
@ 074   ----------------------------------------
 .byte   N92 ,Bn0 ,v080
 .byte   W96
@ 075   ----------------------------------------
 .byte   PATT
  .word Label_6_0182DDDD
@ 076   ----------------------------------------
 .byte   N92 ,Bn0 ,v080
 .byte   W96
@ 077   ----------------------------------------
 .byte   PATT
  .word Label_6_0182DDDD
@ 078   ----------------------------------------
 .byte   N92 ,Bn0 ,v080
 .byte   W96
@ 079   ----------------------------------------
 .byte   PATT
  .word Label_6_0182DDDD
@ 080   ----------------------------------------
 .byte   N92 ,Bn0 ,v080
 .byte   W92
 .byte   W03
 .byte   FINE

@**************** Track 8 (Midi-Chn.7) ****************@

songE0_008:
@ 000   ----------------------------------------
 .byte   KEYSH , songE0_key+0
 .byte   VOICE , 42
 .byte   VOL , 52*songE0_mvl/mxv
 .byte   PAN , c_v+0
 .byte   W48
Label_7_0182DF05:
 .byte   N92 ,Bn0 ,v080
 .byte   W96
 .byte   PEND 
@ 001   ----------------------------------------
Label_7_0182DF0A:
 .byte   N92 ,Cs1 ,v080
 .byte   W96
 .byte   PEND 
@ 002   ----------------------------------------
Label_7_0182DF0F:
 .byte   TIE ,Dn1 ,v080
 .byte   W96
 .byte   PEND 
@ 003   ----------------------------------------
 .byte   W23
 .byte   EOT
 .byte   W01
 .byte   N23 ,En1
 .byte   W24
 .byte   Fs1
 .byte   W24
 .byte   An1
 .byte   W24
@ 004   ----------------------------------------
Label_7_0182DF1E:
 .byte   N44 ,Bn0 ,v080
 .byte   W48
 .byte   N44
 .byte   W48
 .byte   PEND 
@ 005   ----------------------------------------
 .byte   PATT
  .word Label_7_0182DF0A
@ 006   ----------------------------------------
Label_7_0182DF2A:
 .byte   N92 ,Dn1 ,v080
 .byte   W96
 .byte   PEND 
@ 007   ----------------------------------------
Label_7_0182DF2F:
 .byte   N44 ,Bn0 ,v080
 .byte   W48
 .byte   N23 ,Dn1
 .byte   W24
 .byte   An0
 .byte   W24
 .byte   PEND 
@ 008   ----------------------------------------
Label_7_0182DF39:
 .byte   N92 ,Gn0 ,v096
 .byte   W96
 .byte   PEND 
@ 009   ----------------------------------------
Label_7_0182DF3E:
 .byte   N92 ,An0 ,v096
 .byte   W96
 .byte   PEND 
@ 010   ----------------------------------------
Label_7_0182DF43:
 .byte   TIE ,Bn0 ,v096
 .byte   W96
 .byte   PEND 
@ 011   ----------------------------------------
Label_7_0182DF48:
 .byte   W44
 .byte   W03
 .byte   PEND 
 .byte   EOT
 .byte   Bn0
 .byte   W01
 .byte   N44 ,Dn1 ,v096
 .byte   W48
@ 012   ----------------------------------------
Label_7_0182DF52:
 .byte   N92 ,En1 ,v096
 .byte   W96
 .byte   PEND 
@ 013   ----------------------------------------
Label_7_0182DF57:
 .byte   N92 ,Cs1 ,v096
 .byte   W96
 .byte   PEND 
@ 014   ----------------------------------------
Label_7_0182DF5C:
 .byte   N23 ,Bn0 ,v096
 .byte   W24
 .byte   N23
 .byte   W24
 .byte   N11
 .byte   W12
 .byte   N32 ,Dn1
 .byte   W36
 .byte   PEND 
@ 015   ----------------------------------------
Label_7_0182DF68:
 .byte   N92 ,Dn1 ,v096
 .byte   W96
 .byte   PEND 
@ 016   ----------------------------------------
 .byte   W96
@ 017   ----------------------------------------
 .byte   W96
@ 018   ----------------------------------------
 .byte   W96
@ 019   ----------------------------------------
 .byte   W96
@ 020   ----------------------------------------
 .byte   W96
@ 021   ----------------------------------------
 .byte   W96
@ 022   ----------------------------------------
 .byte   W96
@ 023   ----------------------------------------
 .byte   W96
@ 024   ----------------------------------------
 .byte   W96
@ 025   ----------------------------------------
 .byte   W96
@ 026   ----------------------------------------
 .byte   W96
@ 027   ----------------------------------------
 .byte   W96
@ 028   ----------------------------------------
 .byte   W96
@ 029   ----------------------------------------
 .byte   W96
@ 030   ----------------------------------------
 .byte   W96
@ 031   ----------------------------------------
Label_7_0182DF7C:
 .byte   W48
 .byte   N44 ,Fs1 ,v096
 .byte   W48
 .byte   PEND 
@ 032   ----------------------------------------
Label_7_0182DF82:
 .byte   N44 ,Gn1 ,v052
 .byte   W48
 .byte   En1
 .byte   W48
 .byte   PEND 
@ 033   ----------------------------------------
Label_7_0182DF89:
 .byte   N44 ,Fs1 ,v052
 .byte   W48
 .byte   Cs2
 .byte   W48
 .byte   PEND 
@ 034   ----------------------------------------
Label_7_0182DF90:
 .byte   N92 ,An1 ,v052
 .byte   W96
 .byte   PEND 
@ 035   ----------------------------------------
Label_7_0182DF95:
 .byte   N23 ,An1 ,v052
 .byte   W24
 .byte   Gn1
 .byte   W24
 .byte   Fs1
 .byte   W24
 .byte   En1
 .byte   W24
 .byte   PEND 
@ 036   ----------------------------------------
Label_7_0182DFA0:
 .byte   N44 ,Dn1 ,v052
 .byte   W48
 .byte   N23 ,Fs1
 .byte   W24
 .byte   N11 ,Dn1
 .byte   W12
 .byte   En1
 .byte   W12
 .byte   PEND 
@ 037   ----------------------------------------
Label_7_0182DFAD:
 .byte   N68 ,Fs1 ,v052
 .byte   W72
 .byte   N23 ,Gn1
 .byte   W24
 .byte   PEND 
@ 038   ----------------------------------------
Label_7_0182DFB5:
 .byte   N68 ,Fs1 ,v052
 .byte   W72
 .byte   N23 ,Dn2
 .byte   W24
 .byte   PEND 
@ 039   ----------------------------------------
 .byte   N11 ,An1
 .byte   W96
@ 040   ----------------------------------------
 .byte   GOTO
  .word Label_7_0182DF05
@ 041   ----------------------------------------
 .byte   PATT
  .word Label_7_0182DF05
@ 042   ----------------------------------------
 .byte   PATT
  .word Label_7_0182DF0A
@ 043   ----------------------------------------
 .byte   PATT
  .word Label_7_0182DF0F
@ 044   ----------------------------------------
 .byte   W23
 .byte   EOT
 .byte   Dn1
 .byte   W01
 .byte   N23 ,En1 ,v080
 .byte   W24
 .byte   Fs1
 .byte   W24
 .byte   An1
 .byte   W24
@ 045   ----------------------------------------
 .byte   PATT
  .word Label_7_0182DF1E
@ 046   ----------------------------------------
 .byte   PATT
  .word Label_7_0182DF0A
@ 047   ----------------------------------------
 .byte   PATT
  .word Label_7_0182DF2A
@ 048   ----------------------------------------
 .byte   PATT
  .word Label_7_0182DF2F
@ 049   ----------------------------------------
 .byte   PATT
  .word Label_7_0182DF39
@ 050   ----------------------------------------
 .byte   PATT
  .word Label_7_0182DF3E
@ 051   ----------------------------------------
 .byte   PATT
  .word Label_7_0182DF43
@ 052   ----------------------------------------
 .byte   PATT
  .word Label_7_0182DF48
@ 053   ----------------------------------------
 .byte   EOT
 .byte   Bn0
 .byte   W01
 .byte   N44 ,Dn1 ,v096
 .byte   W48
@ 054   ----------------------------------------
 .byte   PATT
  .word Label_7_0182DF52
@ 055   ----------------------------------------
 .byte   PATT
  .word Label_7_0182DF57
@ 056   ----------------------------------------
 .byte   PATT
  .word Label_7_0182DF5C
@ 057   ----------------------------------------
 .byte   PATT
  .word Label_7_0182DF68
@ 058   ----------------------------------------
 .byte   W96
@ 059   ----------------------------------------
 .byte   W96
@ 060   ----------------------------------------
 .byte   W96
@ 061   ----------------------------------------
 .byte   W96
@ 062   ----------------------------------------
 .byte   W96
@ 063   ----------------------------------------
 .byte   W96
@ 064   ----------------------------------------
 .byte   W96
@ 065   ----------------------------------------
 .byte   W96
@ 066   ----------------------------------------
 .byte   W96
@ 067   ----------------------------------------
 .byte   W96
@ 068   ----------------------------------------
 .byte   W96
@ 069   ----------------------------------------
 .byte   W96
@ 070   ----------------------------------------
 .byte   W96
@ 071   ----------------------------------------
 .byte   W96
@ 072   ----------------------------------------
 .byte   W96
@ 073   ----------------------------------------
 .byte   PATT
  .word Label_7_0182DF7C
@ 074   ----------------------------------------
 .byte   PATT
  .word Label_7_0182DF82
@ 075   ----------------------------------------
 .byte   PATT
  .word Label_7_0182DF89
@ 076   ----------------------------------------
 .byte   PATT
  .word Label_7_0182DF90
@ 077   ----------------------------------------
 .byte   PATT
  .word Label_7_0182DF95
@ 078   ----------------------------------------
 .byte   PATT
  .word Label_7_0182DFA0
@ 079   ----------------------------------------
 .byte   PATT
  .word Label_7_0182DFAD
@ 080   ----------------------------------------
 .byte   PATT
  .word Label_7_0182DFB5
@ 081   ----------------------------------------
 .byte   N11 ,An1 ,v052
 .byte   W92
 .byte   W03
 .byte   FINE

@**************** Track 9 (Midi-Chn.8) ****************@

songE0_009:
@ 000   ----------------------------------------
 .byte   KEYSH , songE0_key+0
 .byte   VOICE , 32
 .byte   VOL , 52*songE0_mvl/mxv
 .byte   PAN , c_v+0
 .byte   W48
Label_8_0182E069:
 .byte   W96
@ 001   ----------------------------------------
 .byte   W96
@ 002   ----------------------------------------
 .byte   W96
@ 003   ----------------------------------------
 .byte   W96
@ 004   ----------------------------------------
 .byte   W96
@ 005   ----------------------------------------
 .byte   W96
@ 006   ----------------------------------------
 .byte   W96
@ 007   ----------------------------------------
 .byte   W96
@ 008   ----------------------------------------
 .byte   W96
@ 009   ----------------------------------------
 .byte   W96
@ 010   ----------------------------------------
 .byte   W96
@ 011   ----------------------------------------
 .byte   W96
@ 012   ----------------------------------------
 .byte   W96
@ 013   ----------------------------------------
 .byte   W96
@ 014   ----------------------------------------
 .byte   W96
@ 015   ----------------------------------------
 .byte   W96
@ 016   ----------------------------------------
Label_8_0182E079:
 .byte   N92 ,Bn0 ,v096
 .byte   W96
 .byte   PEND 
@ 017   ----------------------------------------
Label_8_0182E07E:
 .byte   N92 ,Cs1 ,v096
 .byte   W96
 .byte   PEND 
@ 018   ----------------------------------------
Label_8_0182E083:
 .byte   N92 ,Dn1 ,v096
 .byte   W96
 .byte   PEND 
@ 019   ----------------------------------------
Label_8_0182E088:
 .byte   N44 ,Gn0 ,v096
 .byte   W48
 .byte   N23 ,An0
 .byte   W24
 .byte   Cs1
 .byte   W24
 .byte   PEND 
@ 020   ----------------------------------------
 .byte   PATT
  .word Label_8_0182E079
@ 021   ----------------------------------------
 .byte   PATT
  .word Label_8_0182E07E
@ 022   ----------------------------------------
 .byte   PATT
  .word Label_8_0182E083
@ 023   ----------------------------------------
Label_8_0182E0A1:
 .byte   N92 ,En1 ,v096
 .byte   W96
 .byte   PEND 
@ 024   ----------------------------------------
 .byte   PATT
  .word Label_8_0182E079
@ 025   ----------------------------------------
 .byte   PATT
  .word Label_8_0182E07E
@ 026   ----------------------------------------
 .byte   PATT
  .word Label_8_0182E083
@ 027   ----------------------------------------
 .byte   PATT
  .word Label_8_0182E088
@ 028   ----------------------------------------
 .byte   PATT
  .word Label_8_0182E079
@ 029   ----------------------------------------
 .byte   PATT
  .word Label_8_0182E07E
@ 030   ----------------------------------------
 .byte   PATT
  .word Label_8_0182E083
@ 031   ----------------------------------------
Label_8_0182E0C9:
 .byte   N44 ,Bn0 ,v096
 .byte   W96
 .byte   PEND 
@ 032   ----------------------------------------
 .byte   W96
@ 033   ----------------------------------------
 .byte   W96
@ 034   ----------------------------------------
 .byte   W96
@ 035   ----------------------------------------
 .byte   W96
@ 036   ----------------------------------------
 .byte   W96
@ 037   ----------------------------------------
 .byte   W96
@ 038   ----------------------------------------
 .byte   W96
@ 039   ----------------------------------------
 .byte   W96
@ 040   ----------------------------------------
 .byte   GOTO
  .word Label_8_0182E069
@ 041   ----------------------------------------
 .byte   W96
@ 042   ----------------------------------------
 .byte   W96
@ 043   ----------------------------------------
 .byte   W96
@ 044   ----------------------------------------
 .byte   W96
@ 045   ----------------------------------------
 .byte   W96
@ 046   ----------------------------------------
 .byte   W96
@ 047   ----------------------------------------
 .byte   W96
@ 048   ----------------------------------------
 .byte   W96
@ 049   ----------------------------------------
 .byte   W96
@ 050   ----------------------------------------
 .byte   W96
@ 051   ----------------------------------------
 .byte   W96
@ 052   ----------------------------------------
 .byte   W96
@ 053   ----------------------------------------
 .byte   W96
@ 054   ----------------------------------------
 .byte   W96
@ 055   ----------------------------------------
 .byte   W96
@ 056   ----------------------------------------
 .byte   W96
@ 057   ----------------------------------------
 .byte   PATT
  .word Label_8_0182E079
@ 058   ----------------------------------------
 .byte   PATT
  .word Label_8_0182E07E
@ 059   ----------------------------------------
 .byte   PATT
  .word Label_8_0182E083
@ 060   ----------------------------------------
 .byte   PATT
  .word Label_8_0182E088
@ 061   ----------------------------------------
 .byte   PATT
  .word Label_8_0182E079
@ 062   ----------------------------------------
 .byte   PATT
  .word Label_8_0182E07E
@ 063   ----------------------------------------
 .byte   PATT
  .word Label_8_0182E083
@ 064   ----------------------------------------
 .byte   PATT
  .word Label_8_0182E0A1
@ 065   ----------------------------------------
 .byte   PATT
  .word Label_8_0182E079
@ 066   ----------------------------------------
 .byte   PATT
  .word Label_8_0182E07E
@ 067   ----------------------------------------
 .byte   PATT
  .word Label_8_0182E083
@ 068   ----------------------------------------
 .byte   PATT
  .word Label_8_0182E088
@ 069   ----------------------------------------
 .byte   PATT
  .word Label_8_0182E079
@ 070   ----------------------------------------
 .byte   PATT
  .word Label_8_0182E07E
@ 071   ----------------------------------------
 .byte   PATT
  .word Label_8_0182E083
@ 072   ----------------------------------------
 .byte   PATT
  .word Label_8_0182E0C9
@ 073   ----------------------------------------
 .byte   W96
@ 074   ----------------------------------------
 .byte   W96
@ 075   ----------------------------------------
 .byte   W96
@ 076   ----------------------------------------
 .byte   W96
@ 077   ----------------------------------------
 .byte   W96
@ 078   ----------------------------------------
 .byte   W96
@ 079   ----------------------------------------
 .byte   W96
@ 080   ----------------------------------------
 .byte   W92
 .byte   W03
 .byte   FINE

@******************************************************@
	.align	2

songE0:
	.byte	9	@ NumTrks
	.byte	0	@ NumBlks
	.byte	songE0_pri	@ Priority
	.byte	songE0_rev	@ Reverb.
    
	.word	songE0_grp
    
	.word	songE0_001
	.word	songE0_002
	.word	songE0_003
	.word	songE0_004
	.word	songE0_005
	.word	songE0_006
	.word	songE0_007
	.word	songE0_008
	.word	songE0_009

	.end
