	.include "MPlayDef.s"

	.equ	song09_grp, voicegroup000
	.equ	song09_pri, 0
	.equ	song09_rev, 0
	.equ	song09_mvl, 127
	.equ	song09_key, 0
	.equ	song09_tbs, 1
	.equ	song09_exg, 0
	.equ	song09_cmp, 1

	.section .rodata
	.global	song09
	.align	2


@**************** Track 1 (Midi-Chn.0) ****************@

song09_001:
@ 000   ----------------------------------------
 .byte   KEYSH , song09_key+0
 .byte   TEMPO , 120*song09_tbs/2
 .byte   VOICE , 52
 .byte   PAN , c_v-20
 .byte   VOL , 40*song09_mvl/mxv
 .byte   W36
 .byte   N11 ,Dn3 ,v092
 .byte   W12
 .byte   N80 ,An3
 .byte   W48
@ 001   ----------------------------------------
 .byte   W36
 .byte   N23 ,Cn4 ,v080
 .byte   W24
 .byte   N11 ,Bn3
 .byte   W12
 .byte   TIE ,Dn4
 .byte   W24
@ 002   ----------------------------------------
 .byte   W36
 .byte   VOL , 44*song09_mvl/mxv
 .byte   W36
 .byte   Bn1
 .byte   W24
@ 003   ----------------------------------------
 .byte   W12
 .byte   Ds1
 .byte   W23
 .byte   EOT
 .byte   W01
 .byte   N23 ,Cn4 ,v092
 .byte   W24
 .byte   Dn4
 .byte   W24
 .byte   N11 ,Cn4 ,v080
 .byte   W12
@ 004   ----------------------------------------
 .byte   N92 ,Dn4
 .byte   W96
@ 005   ----------------------------------------
 .byte   An3 ,v092
 .byte   W96
@ 006   ----------------------------------------
 .byte   N11 ,As3
 .byte   W12
 .byte   An3
 .byte   W12
 .byte   N23 ,As3
 .byte   W24
 .byte   An3
 .byte   W24
 .byte   N11 ,Gn3
 .byte   W12
 .byte   Fn3
 .byte   W12
@ 007   ----------------------------------------
 .byte   N44 ,Gn3
 .byte   W48
 .byte   N11 ,En3
 .byte   W12
 .byte   Fn3
 .byte   W12
 .byte   En3
 .byte   W12
 .byte   Fn3
 .byte   W12
@ 008   ----------------------------------------
 .byte   N23 ,Dn3
 .byte   W24
 .byte   En3
 .byte   W24
 .byte   Fn3
 .byte   W24
 .byte   Gn3
 .byte   W24
@ 009   ----------------------------------------
 .byte   TIE ,Dn3
 .byte   W96
@ 010   ----------------------------------------
 .byte   VOL , 35*song09_mvl/mxv
 .byte   W96
@ 011   ----------------------------------------
 .byte   Gn0
 .byte   W96
@ 012   ----------------------------------------
 .byte   Ds0
 .byte   W92
 .byte   W03
 .byte   EOT
 .byte   W01
@ 013   ----------------------------------------
 .byte   W96
@ 014   ----------------------------------------
 .byte   W96
@ 015   ----------------------------------------
 .byte   W96
@ 016   ----------------------------------------
 .byte   W96
@ 017   ----------------------------------------
Label_0_014B2729:
 .byte   TEMPO , 240*song09_tbs/2
 .byte   W96
@ 018   ----------------------------------------
 .byte   W96
@ 019   ----------------------------------------
 .byte   W96
@ 020   ----------------------------------------
 .byte   W96
@ 021   ----------------------------------------
 .byte   W96
@ 022   ----------------------------------------
 .byte   W96
@ 023   ----------------------------------------
 .byte   W96
@ 024   ----------------------------------------
 .byte   W96
@ 025   ----------------------------------------
 .byte   W96
@ 026   ----------------------------------------
 .byte   W96
@ 027   ----------------------------------------
 .byte   W96
@ 028   ----------------------------------------
 .byte   W96
@ 029   ----------------------------------------
 .byte   W96
@ 030   ----------------------------------------
 .byte   W96
@ 031   ----------------------------------------
 .byte   W96
@ 032   ----------------------------------------
 .byte   W96
@ 033   ----------------------------------------
 .byte   W96
@ 034   ----------------------------------------
 .byte   W96
@ 035   ----------------------------------------
 .byte   W96
@ 036   ----------------------------------------
 .byte   W96
@ 037   ----------------------------------------
 .byte   W96
@ 038   ----------------------------------------
 .byte   W96
@ 039   ----------------------------------------
 .byte   W96
@ 040   ----------------------------------------
 .byte   W96
@ 041   ----------------------------------------
 .byte   W96
@ 042   ----------------------------------------
 .byte   W96
@ 043   ----------------------------------------
 .byte   W96
@ 044   ----------------------------------------
 .byte   W96
@ 045   ----------------------------------------
 .byte   W96
@ 046   ----------------------------------------
 .byte   W96
@ 047   ----------------------------------------
 .byte   W96
@ 048   ----------------------------------------
 .byte   W96
@ 049   ----------------------------------------
 .byte   W96
@ 050   ----------------------------------------
 .byte   W96
@ 051   ----------------------------------------
 .byte   W96
@ 052   ----------------------------------------
 .byte   W96
@ 053   ----------------------------------------
 .byte   W96
@ 054   ----------------------------------------
 .byte   W96
@ 055   ----------------------------------------
 .byte   W96
@ 056   ----------------------------------------
 .byte   W96
@ 057   ----------------------------------------
 .byte   W96
@ 058   ----------------------------------------
 .byte   W96
@ 059   ----------------------------------------
 .byte   W96
@ 060   ----------------------------------------
Label_0_014B2756:
 .byte   VOL , 40*song09_mvl/mxv
 .byte   N32 ,Cn4 ,v092
 .byte   W36
 .byte   As3
 .byte   W36
 .byte   N11 ,An3
 .byte   W24
 .byte   PEND 
@ 061   ----------------------------------------
 .byte   N92
 .byte   W96
@ 062   ----------------------------------------
 .byte   Gn3
 .byte   W96
@ 063   ----------------------------------------
 .byte   As3
 .byte   W96
@ 064   ----------------------------------------
 .byte   An3
 .byte   W96
@ 065   ----------------------------------------
 .byte   TIE ,Dn3
 .byte   W96
@ 066   ----------------------------------------
 .byte   W92
 .byte   W03
 .byte   EOT
 .byte   W01
@ 067   ----------------------------------------
 .byte   N44 ,En3
 .byte   W48
 .byte   Fn3
 .byte   W48
@ 068   ----------------------------------------
Label_0_014B2776:
 .byte   N44 ,Gn3 ,v092
 .byte   W48
 .byte   An3
 .byte   W48
 .byte   PEND 
@ 069   ----------------------------------------
 .byte   W96
@ 070   ----------------------------------------
 .byte   W96
@ 071   ----------------------------------------
 .byte   W96
@ 072   ----------------------------------------
 .byte   W96
@ 073   ----------------------------------------
 .byte   W96
@ 074   ----------------------------------------
 .byte   W96
@ 075   ----------------------------------------
 .byte   W96
@ 076   ----------------------------------------
 .byte   PATT
  .word Label_0_014B2756
@ 077   ----------------------------------------
 .byte   N92 ,An3 ,v092
 .byte   W96
@ 078   ----------------------------------------
 .byte   Gn3
 .byte   W96
@ 079   ----------------------------------------
 .byte   As3
 .byte   W96
@ 080   ----------------------------------------
 .byte   An3
 .byte   W96
@ 081   ----------------------------------------
 .byte   TIE ,Dn3
 .byte   W96
@ 082   ----------------------------------------
 .byte   W92
 .byte   W03
 .byte   EOT
 .byte   W01
@ 083   ----------------------------------------
 .byte   N44 ,En3
 .byte   W48
 .byte   Fn3
 .byte   W48
@ 084   ----------------------------------------
 .byte   PATT
  .word Label_0_014B2776
@ 085   ----------------------------------------
 .byte   W96
@ 086   ----------------------------------------
 .byte   W96
@ 087   ----------------------------------------
 .byte   W96
@ 088   ----------------------------------------
 .byte   W96
@ 089   ----------------------------------------
 .byte   N92 ,Dn2 ,v080
 .byte   W96
@ 090   ----------------------------------------
 .byte   En2 ,v092
 .byte   W96
@ 091   ----------------------------------------
Label_0_014B27AF:
 .byte   N92 ,Cs3 ,v080
 .byte   N92 ,Gn3 ,v092
 .byte   W96
 .byte   PEND 
@ 092   ----------------------------------------
Label_0_014B27B7:
 .byte   N92 ,Dn3 ,v080
 .byte   N92 ,Fn3 ,v092
 .byte   W96
 .byte   PEND 
@ 093   ----------------------------------------
 .byte   W96
@ 094   ----------------------------------------
 .byte   W96
@ 095   ----------------------------------------
 .byte   W96
@ 096   ----------------------------------------
 .byte   W96
@ 097   ----------------------------------------
 .byte   W96
@ 098   ----------------------------------------
 .byte   W96
@ 099   ----------------------------------------
 .byte   W96
@ 100   ----------------------------------------
 .byte   W96
@ 101   ----------------------------------------
 .byte   W96
@ 102   ----------------------------------------
 .byte   W96
@ 103   ----------------------------------------
 .byte   W96
@ 104   ----------------------------------------
 .byte   W96
@ 105   ----------------------------------------
 .byte   W96
@ 106   ----------------------------------------
 .byte   W96
@ 107   ----------------------------------------
 .byte   W96
@ 108   ----------------------------------------
 .byte   W96
@ 109   ----------------------------------------
 .byte   W96
@ 110   ----------------------------------------
 .byte   W96
@ 111   ----------------------------------------
 .byte   W96
@ 112   ----------------------------------------
 .byte   W96
@ 113   ----------------------------------------
 .byte   W96
@ 114   ----------------------------------------
 .byte   W96
@ 115   ----------------------------------------
 .byte   W96
@ 116   ----------------------------------------
 .byte   W96
@ 117   ----------------------------------------
 .byte   W96
@ 118   ----------------------------------------
 .byte   W96
@ 119   ----------------------------------------
 .byte   W96
@ 120   ----------------------------------------
 .byte   W96
@ 121   ----------------------------------------
 .byte   W96
@ 122   ----------------------------------------
 .byte   W96
@ 123   ----------------------------------------
 .byte   W96
@ 124   ----------------------------------------
 .byte   W96
@ 125   ----------------------------------------
 .byte   W96
@ 126   ----------------------------------------
 .byte   W96
@ 127   ----------------------------------------
 .byte   W96
@ 128   ----------------------------------------
 .byte   W96
@ 129   ----------------------------------------
 .byte   W96
@ 130   ----------------------------------------
 .byte   W96
@ 131   ----------------------------------------
 .byte   W96
@ 132   ----------------------------------------
 .byte   W96
@ 133   ----------------------------------------
 .byte   W96
@ 134   ----------------------------------------
 .byte   W96
@ 135   ----------------------------------------
 .byte   W96
@ 136   ----------------------------------------
 .byte   W96
@ 137   ----------------------------------------
 .byte   W96
@ 138   ----------------------------------------
 .byte   W96
@ 139   ----------------------------------------
 .byte   W96
@ 140   ----------------------------------------
 .byte   W96
@ 141   ----------------------------------------
 .byte   W96
@ 142   ----------------------------------------
 .byte   W96
@ 143   ----------------------------------------
 .byte   W96
@ 144   ----------------------------------------
 .byte   PATT
  .word Label_0_014B2756
@ 145   ----------------------------------------
 .byte   N92 ,An3 ,v092
 .byte   W96
@ 146   ----------------------------------------
 .byte   Gn3
 .byte   W96
@ 147   ----------------------------------------
 .byte   As3
 .byte   W96
@ 148   ----------------------------------------
 .byte   An3
 .byte   W96
@ 149   ----------------------------------------
 .byte   TIE ,Dn3
 .byte   W96
@ 150   ----------------------------------------
 .byte   W92
 .byte   W03
 .byte   EOT
 .byte   W01
@ 151   ----------------------------------------
 .byte   N44 ,En3
 .byte   W48
 .byte   Fn3
 .byte   W48
@ 152   ----------------------------------------
 .byte   PATT
  .word Label_0_014B2776
@ 153   ----------------------------------------
 .byte   W96
@ 154   ----------------------------------------
 .byte   W96
@ 155   ----------------------------------------
 .byte   W96
@ 156   ----------------------------------------
 .byte   W96
@ 157   ----------------------------------------
 .byte   W96
@ 158   ----------------------------------------
 .byte   W96
@ 159   ----------------------------------------
 .byte   W96
@ 160   ----------------------------------------
 .byte   PATT
  .word Label_0_014B2756
@ 161   ----------------------------------------
 .byte   N92 ,An3 ,v092
 .byte   W96
@ 162   ----------------------------------------
 .byte   Gn3
 .byte   W96
@ 163   ----------------------------------------
 .byte   As3
 .byte   W96
@ 164   ----------------------------------------
 .byte   An3
 .byte   W96
@ 165   ----------------------------------------
 .byte   TIE ,Dn3
 .byte   W96
@ 166   ----------------------------------------
 .byte   W92
 .byte   W03
 .byte   EOT
 .byte   W01
@ 167   ----------------------------------------
 .byte   N44 ,En3
 .byte   W48
 .byte   Fn3
 .byte   W48
@ 168   ----------------------------------------
 .byte   PATT
  .word Label_0_014B2776
@ 169   ----------------------------------------
 .byte   W96
@ 170   ----------------------------------------
 .byte   W96
@ 171   ----------------------------------------
 .byte   W96
@ 172   ----------------------------------------
 .byte   W96
@ 173   ----------------------------------------
 .byte   N92 ,Dn2 ,v080
 .byte   W96
@ 174   ----------------------------------------
 .byte   En2 ,v092
 .byte   W96
@ 175   ----------------------------------------
 .byte   PATT
  .word Label_0_014B27AF
@ 176   ----------------------------------------
 .byte   PATT
  .word Label_0_014B27B7
@ 177   ----------------------------------------
 .byte   W96
@ 178   ----------------------------------------
 .byte   W96
@ 179   ----------------------------------------
 .byte   W96
@ 180   ----------------------------------------
 .byte   W96
@ 181   ----------------------------------------
 .byte   W96
@ 182   ----------------------------------------
 .byte   W96
@ 183   ----------------------------------------
 .byte   W96
@ 184   ----------------------------------------
 .byte   W96
@ 185   ----------------------------------------
 .byte   W96
@ 186   ----------------------------------------
 .byte   W96
@ 187   ----------------------------------------
 .byte   W96
@ 188   ----------------------------------------
 .byte   W96
@ 189   ----------------------------------------
 .byte   W96
@ 190   ----------------------------------------
 .byte   W96
@ 191   ----------------------------------------
 .byte   W96
@ 192   ----------------------------------------
 .byte   W96
@ 193   ----------------------------------------
 .byte   W96
@ 194   ----------------------------------------
 .byte   W96
@ 195   ----------------------------------------
 .byte   W96
@ 196   ----------------------------------------
 .byte   W96
@ 197   ----------------------------------------
 .byte   W96
@ 198   ----------------------------------------
 .byte   W96
@ 199   ----------------------------------------
 .byte   W96
@ 200   ----------------------------------------
 .byte   W96
@ 201   ----------------------------------------
 .byte   W96
@ 202   ----------------------------------------
 .byte   W96
@ 203   ----------------------------------------
 .byte   W96
@ 204   ----------------------------------------
 .byte   W96
@ 205   ----------------------------------------
 .byte   W96
@ 206   ----------------------------------------
 .byte   W96
@ 207   ----------------------------------------
 .byte   W96
@ 208   ----------------------------------------
 .byte   W96
@ 209   ----------------------------------------
 .byte   W96
@ 210   ----------------------------------------
 .byte   W96
@ 211   ----------------------------------------
 .byte   W96
@ 212   ----------------------------------------
 .byte   W96
@ 213   ----------------------------------------
 .byte   W96
@ 214   ----------------------------------------
 .byte   W96
@ 215   ----------------------------------------
 .byte   W96
@ 216   ----------------------------------------
 .byte   W96
@ 217   ----------------------------------------
 .byte   W96
@ 218   ----------------------------------------
 .byte   W96
@ 219   ----------------------------------------
 .byte   W96
@ 220   ----------------------------------------
 .byte   W96
@ 221   ----------------------------------------
 .byte   W96
@ 222   ----------------------------------------
 .byte   W96
@ 223   ----------------------------------------
 .byte   W96
@ 224   ----------------------------------------
 .byte   W96
@ 225   ----------------------------------------
 .byte   W96
@ 226   ----------------------------------------
 .byte   W96
@ 227   ----------------------------------------
 .byte   W96
@ 228   ----------------------------------------
 .byte   PATT
  .word Label_0_014B2756
@ 229   ----------------------------------------
 .byte   N92 ,An3 ,v092
 .byte   W96
@ 230   ----------------------------------------
 .byte   Gn3
 .byte   W96
@ 231   ----------------------------------------
 .byte   As3
 .byte   W96
@ 232   ----------------------------------------
 .byte   An3
 .byte   W96
@ 233   ----------------------------------------
 .byte   TIE ,Dn3
 .byte   W96
@ 234   ----------------------------------------
 .byte   W92
 .byte   W03
 .byte   EOT
 .byte   W01
@ 235   ----------------------------------------
 .byte   N44 ,En3
 .byte   W48
 .byte   Fn3
 .byte   W48
@ 236   ----------------------------------------
 .byte   PATT
  .word Label_0_014B2776
@ 237   ----------------------------------------
 .byte   W96
@ 238   ----------------------------------------
 .byte   W96
@ 239   ----------------------------------------
 .byte   W96
@ 240   ----------------------------------------
 .byte   W96
@ 241   ----------------------------------------
 .byte   W96
@ 242   ----------------------------------------
 .byte   W96
@ 243   ----------------------------------------
 .byte   W96
@ 244   ----------------------------------------
 .byte   PATT
  .word Label_0_014B2756
@ 245   ----------------------------------------
 .byte   N92 ,An3 ,v092
 .byte   W96
@ 246   ----------------------------------------
 .byte   Gn3
 .byte   W96
@ 247   ----------------------------------------
 .byte   As3
 .byte   W96
@ 248   ----------------------------------------
 .byte   An3
 .byte   W96
@ 249   ----------------------------------------
 .byte   TIE ,Dn3
 .byte   W96
@ 250   ----------------------------------------
 .byte   W92
 .byte   W03
 .byte   EOT
 .byte   W01
@ 251   ----------------------------------------
 .byte   N44 ,En3
 .byte   W48
 .byte   Fn3
 .byte   W48
@ 252   ----------------------------------------
 .byte   PATT
  .word Label_0_014B2776
@ 253   ----------------------------------------
 .byte   W96
@ 254   ----------------------------------------
 .byte   W96
@ 255   ----------------------------------------
 .byte   W96
@ 256   ----------------------------------------
 .byte   W96
@ 257   ----------------------------------------
 .byte   GOTO
  .word Label_0_014B2729
@ 258   ----------------------------------------
 .byte   N92 ,Dn2 ,v080
 .byte   W96
@ 259   ----------------------------------------
 .byte   En2 ,v092
 .byte   W96
@ 260   ----------------------------------------
 .byte   PATT
  .word Label_0_014B27AF
@ 261   ----------------------------------------
 .byte   PATT
  .word Label_0_014B27B7
@ 262   ----------------------------------------
 .byte   TIE ,Dn3 ,v092
 .byte   W96
@ 263   ----------------------------------------
 .byte   W96
@ 264   ----------------------------------------
 .byte   W96
@ 265   ----------------------------------------
 .byte   VOL , 34*song09_mvl/mxv
 .byte   W48
 .byte   Ds0
 .byte   W48
@ 266   ----------------------------------------
 .byte   BnM1
 .byte   W24
 .byte   GnM1
 .byte   W24
 .byte   DsM1
 .byte   W24
 .byte   BnM2
 .byte   W23
 .byte   EOT
 .byte   FINE

@**************** Track 2 (Midi-Chn.1) ****************@

song09_002:
@ 000   ----------------------------------------
 .byte   KEYSH , song09_key+0
 .byte   VOICE , 52
 .byte   PAN , c_v+2
 .byte   VOL , 40*song09_mvl/mxv
 .byte   W96
@ 001   ----------------------------------------
 .byte   W96
@ 002   ----------------------------------------
 .byte   W12
 .byte   N11 ,An3 ,v092
 .byte   W12
 .byte   Gn3
 .byte   W12
 .byte   N68 ,An3
 .byte   W60
@ 003   ----------------------------------------
 .byte   W12
 .byte   N23
 .byte   W24
 .byte   Gn3
 .byte   W24
 .byte   An3
 .byte   W24
 .byte   N11 ,Gn3 ,v080
 .byte   W12
@ 004   ----------------------------------------
 .byte   N92 ,An3
 .byte   W96
@ 005   ----------------------------------------
 .byte   Dn3 ,v092
 .byte   W96
@ 006   ----------------------------------------
 .byte   N44
 .byte   W48
 .byte   Cs3
 .byte   W48
@ 007   ----------------------------------------
 .byte   Dn3
 .byte   W48
 .byte   An2
 .byte   W48
@ 008   ----------------------------------------
 .byte   N92
 .byte   W96
@ 009   ----------------------------------------
 .byte   TIE
 .byte   W96
@ 010   ----------------------------------------
 .byte   VOL , 35*song09_mvl/mxv
 .byte   W96
@ 011   ----------------------------------------
 .byte   Gn0
 .byte   W96
@ 012   ----------------------------------------
 .byte   Ds0
 .byte   W92
 .byte   W03
 .byte   EOT
 .byte   W01
@ 013   ----------------------------------------
 .byte   W96
@ 014   ----------------------------------------
 .byte   W96
@ 015   ----------------------------------------
 .byte   W96
@ 016   ----------------------------------------
 .byte   W96
@ 017   ----------------------------------------
Label_1_014B34FF:
 .byte   W96
@ 018   ----------------------------------------
 .byte   W96
@ 019   ----------------------------------------
 .byte   W96
@ 020   ----------------------------------------
 .byte   W96
@ 021   ----------------------------------------
 .byte   W96
@ 022   ----------------------------------------
 .byte   W96
@ 023   ----------------------------------------
 .byte   W96
@ 024   ----------------------------------------
 .byte   W96
@ 025   ----------------------------------------
 .byte   W96
@ 026   ----------------------------------------
 .byte   W96
@ 027   ----------------------------------------
 .byte   W96
@ 028   ----------------------------------------
 .byte   W96
@ 029   ----------------------------------------
 .byte   W96
@ 030   ----------------------------------------
 .byte   W96
@ 031   ----------------------------------------
 .byte   W96
@ 032   ----------------------------------------
 .byte   W96
@ 033   ----------------------------------------
 .byte   W96
@ 034   ----------------------------------------
 .byte   W96
@ 035   ----------------------------------------
 .byte   W96
@ 036   ----------------------------------------
 .byte   W96
@ 037   ----------------------------------------
 .byte   W96
@ 038   ----------------------------------------
 .byte   W96
@ 039   ----------------------------------------
 .byte   W96
@ 040   ----------------------------------------
 .byte   W96
@ 041   ----------------------------------------
 .byte   W96
@ 042   ----------------------------------------
 .byte   W96
@ 043   ----------------------------------------
 .byte   W96
@ 044   ----------------------------------------
 .byte   W96
@ 045   ----------------------------------------
 .byte   W96
@ 046   ----------------------------------------
 .byte   W96
@ 047   ----------------------------------------
 .byte   W96
@ 048   ----------------------------------------
 .byte   W96
@ 049   ----------------------------------------
 .byte   W96
@ 050   ----------------------------------------
 .byte   W96
@ 051   ----------------------------------------
 .byte   W96
@ 052   ----------------------------------------
 .byte   W96
@ 053   ----------------------------------------
 .byte   W96
@ 054   ----------------------------------------
 .byte   W96
@ 055   ----------------------------------------
 .byte   W96
@ 056   ----------------------------------------
 .byte   W96
@ 057   ----------------------------------------
 .byte   W96
@ 058   ----------------------------------------
 .byte   W96
@ 059   ----------------------------------------
 .byte   W96
@ 060   ----------------------------------------
 .byte   W96
@ 061   ----------------------------------------
 .byte   W96
@ 062   ----------------------------------------
 .byte   W96
@ 063   ----------------------------------------
 .byte   W96
@ 064   ----------------------------------------
 .byte   W96
@ 065   ----------------------------------------
 .byte   W96
@ 066   ----------------------------------------
 .byte   W96
@ 067   ----------------------------------------
 .byte   W96
@ 068   ----------------------------------------
 .byte   W96
@ 069   ----------------------------------------
 .byte   W96
@ 070   ----------------------------------------
 .byte   W96
@ 071   ----------------------------------------
 .byte   W96
@ 072   ----------------------------------------
 .byte   W96
@ 073   ----------------------------------------
 .byte   W96
@ 074   ----------------------------------------
 .byte   W96
@ 075   ----------------------------------------
 .byte   W96
@ 076   ----------------------------------------
 .byte   W96
@ 077   ----------------------------------------
 .byte   W96
@ 078   ----------------------------------------
 .byte   W96
@ 079   ----------------------------------------
 .byte   W96
@ 080   ----------------------------------------
 .byte   W96
@ 081   ----------------------------------------
 .byte   W96
@ 082   ----------------------------------------
 .byte   W96
@ 083   ----------------------------------------
 .byte   W96
@ 084   ----------------------------------------
 .byte   W96
@ 085   ----------------------------------------
 .byte   W96
@ 086   ----------------------------------------
 .byte   W96
@ 087   ----------------------------------------
 .byte   W96
@ 088   ----------------------------------------
 .byte   W96
@ 089   ----------------------------------------
Label_1_014B3547:
 .byte   VOL , 40*song09_mvl/mxv
 .byte   N92 ,Dn3 ,v080
 .byte   W96
 .byte   PEND 
@ 090   ----------------------------------------
 .byte   En3 ,v092
 .byte   W96
@ 091   ----------------------------------------
 .byte   Cs2 ,v088
 .byte   W96
@ 092   ----------------------------------------
 .byte   Dn2 ,v092
 .byte   W96
@ 093   ----------------------------------------
 .byte   W96
@ 094   ----------------------------------------
 .byte   W96
@ 095   ----------------------------------------
 .byte   W96
@ 096   ----------------------------------------
 .byte   W96
@ 097   ----------------------------------------
 .byte   W96
@ 098   ----------------------------------------
 .byte   W96
@ 099   ----------------------------------------
 .byte   W96
@ 100   ----------------------------------------
 .byte   W96
@ 101   ----------------------------------------
 .byte   W96
@ 102   ----------------------------------------
 .byte   W96
@ 103   ----------------------------------------
 .byte   W96
@ 104   ----------------------------------------
 .byte   W96
@ 105   ----------------------------------------
 .byte   W96
@ 106   ----------------------------------------
 .byte   W96
@ 107   ----------------------------------------
 .byte   W96
@ 108   ----------------------------------------
 .byte   W96
@ 109   ----------------------------------------
 .byte   W96
@ 110   ----------------------------------------
 .byte   W96
@ 111   ----------------------------------------
 .byte   W96
@ 112   ----------------------------------------
 .byte   W96
@ 113   ----------------------------------------
 .byte   W96
@ 114   ----------------------------------------
 .byte   W96
@ 115   ----------------------------------------
 .byte   W96
@ 116   ----------------------------------------
 .byte   W96
@ 117   ----------------------------------------
 .byte   W96
@ 118   ----------------------------------------
 .byte   W96
@ 119   ----------------------------------------
 .byte   W96
@ 120   ----------------------------------------
 .byte   W96
@ 121   ----------------------------------------
 .byte   W96
@ 122   ----------------------------------------
 .byte   W96
@ 123   ----------------------------------------
 .byte   W96
@ 124   ----------------------------------------
 .byte   W96
@ 125   ----------------------------------------
 .byte   W96
@ 126   ----------------------------------------
 .byte   W96
@ 127   ----------------------------------------
 .byte   W96
@ 128   ----------------------------------------
 .byte   W96
@ 129   ----------------------------------------
 .byte   W96
@ 130   ----------------------------------------
 .byte   W96
@ 131   ----------------------------------------
 .byte   W96
@ 132   ----------------------------------------
 .byte   W96
@ 133   ----------------------------------------
 .byte   W96
@ 134   ----------------------------------------
 .byte   W96
@ 135   ----------------------------------------
 .byte   W96
@ 136   ----------------------------------------
 .byte   W96
@ 137   ----------------------------------------
 .byte   W96
@ 138   ----------------------------------------
 .byte   W96
@ 139   ----------------------------------------
 .byte   W96
@ 140   ----------------------------------------
 .byte   W96
@ 141   ----------------------------------------
 .byte   W96
@ 142   ----------------------------------------
 .byte   W96
@ 143   ----------------------------------------
 .byte   W96
@ 144   ----------------------------------------
 .byte   W96
@ 145   ----------------------------------------
 .byte   W96
@ 146   ----------------------------------------
 .byte   W96
@ 147   ----------------------------------------
 .byte   W96
@ 148   ----------------------------------------
 .byte   W96
@ 149   ----------------------------------------
 .byte   W96
@ 150   ----------------------------------------
 .byte   W96
@ 151   ----------------------------------------
 .byte   W96
@ 152   ----------------------------------------
 .byte   W96
@ 153   ----------------------------------------
 .byte   W96
@ 154   ----------------------------------------
 .byte   W96
@ 155   ----------------------------------------
 .byte   W96
@ 156   ----------------------------------------
 .byte   W96
@ 157   ----------------------------------------
 .byte   W96
@ 158   ----------------------------------------
 .byte   W96
@ 159   ----------------------------------------
 .byte   W96
@ 160   ----------------------------------------
 .byte   W96
@ 161   ----------------------------------------
 .byte   W96
@ 162   ----------------------------------------
 .byte   W96
@ 163   ----------------------------------------
 .byte   W96
@ 164   ----------------------------------------
 .byte   W96
@ 165   ----------------------------------------
 .byte   W96
@ 166   ----------------------------------------
 .byte   W96
@ 167   ----------------------------------------
 .byte   W96
@ 168   ----------------------------------------
 .byte   W96
@ 169   ----------------------------------------
 .byte   W96
@ 170   ----------------------------------------
 .byte   W96
@ 171   ----------------------------------------
 .byte   W96
@ 172   ----------------------------------------
 .byte   W96
@ 173   ----------------------------------------
 .byte   PATT
  .word Label_1_014B3547
@ 174   ----------------------------------------
 .byte   N92 ,En3 ,v092
 .byte   W96
@ 175   ----------------------------------------
 .byte   Cs2 ,v088
 .byte   W96
@ 176   ----------------------------------------
 .byte   Dn2 ,v092
 .byte   W96
@ 177   ----------------------------------------
 .byte   W96
@ 178   ----------------------------------------
 .byte   W96
@ 179   ----------------------------------------
 .byte   W96
@ 180   ----------------------------------------
 .byte   W96
@ 181   ----------------------------------------
 .byte   W96
@ 182   ----------------------------------------
 .byte   W96
@ 183   ----------------------------------------
 .byte   W96
@ 184   ----------------------------------------
 .byte   W96
@ 185   ----------------------------------------
 .byte   W96
@ 186   ----------------------------------------
 .byte   W96
@ 187   ----------------------------------------
 .byte   W96
@ 188   ----------------------------------------
 .byte   W96
@ 189   ----------------------------------------
 .byte   W96
@ 190   ----------------------------------------
 .byte   W96
@ 191   ----------------------------------------
 .byte   W96
@ 192   ----------------------------------------
 .byte   W96
@ 193   ----------------------------------------
 .byte   W96
@ 194   ----------------------------------------
 .byte   W96
@ 195   ----------------------------------------
 .byte   W96
@ 196   ----------------------------------------
 .byte   W96
@ 197   ----------------------------------------
 .byte   W96
@ 198   ----------------------------------------
 .byte   W96
@ 199   ----------------------------------------
 .byte   W96
@ 200   ----------------------------------------
 .byte   W96
@ 201   ----------------------------------------
 .byte   W96
@ 202   ----------------------------------------
 .byte   W96
@ 203   ----------------------------------------
 .byte   W96
@ 204   ----------------------------------------
 .byte   W96
@ 205   ----------------------------------------
 .byte   W96
@ 206   ----------------------------------------
 .byte   W96
@ 207   ----------------------------------------
 .byte   W96
@ 208   ----------------------------------------
 .byte   W96
@ 209   ----------------------------------------
 .byte   W96
@ 210   ----------------------------------------
 .byte   W96
@ 211   ----------------------------------------
 .byte   W96
@ 212   ----------------------------------------
 .byte   W96
@ 213   ----------------------------------------
 .byte   W96
@ 214   ----------------------------------------
 .byte   W96
@ 215   ----------------------------------------
 .byte   W96
@ 216   ----------------------------------------
 .byte   W96
@ 217   ----------------------------------------
 .byte   W96
@ 218   ----------------------------------------
 .byte   W96
@ 219   ----------------------------------------
 .byte   W96
@ 220   ----------------------------------------
 .byte   W96
@ 221   ----------------------------------------
 .byte   W96
@ 222   ----------------------------------------
 .byte   W96
@ 223   ----------------------------------------
 .byte   W96
@ 224   ----------------------------------------
 .byte   W96
@ 225   ----------------------------------------
 .byte   W96
@ 226   ----------------------------------------
 .byte   W96
@ 227   ----------------------------------------
 .byte   W96
@ 228   ----------------------------------------
 .byte   W96
@ 229   ----------------------------------------
 .byte   W96
@ 230   ----------------------------------------
 .byte   W96
@ 231   ----------------------------------------
 .byte   W96
@ 232   ----------------------------------------
 .byte   W96
@ 233   ----------------------------------------
 .byte   W96
@ 234   ----------------------------------------
 .byte   W96
@ 235   ----------------------------------------
 .byte   W96
@ 236   ----------------------------------------
 .byte   W96
@ 237   ----------------------------------------
 .byte   W96
@ 238   ----------------------------------------
 .byte   W96
@ 239   ----------------------------------------
 .byte   W96
@ 240   ----------------------------------------
 .byte   W96
@ 241   ----------------------------------------
 .byte   W96
@ 242   ----------------------------------------
 .byte   W96
@ 243   ----------------------------------------
 .byte   W96
@ 244   ----------------------------------------
 .byte   W96
@ 245   ----------------------------------------
 .byte   W96
@ 246   ----------------------------------------
 .byte   W96
@ 247   ----------------------------------------
 .byte   W96
@ 248   ----------------------------------------
 .byte   W96
@ 249   ----------------------------------------
 .byte   W96
@ 250   ----------------------------------------
 .byte   W96
@ 251   ----------------------------------------
 .byte   W96
@ 252   ----------------------------------------
 .byte   W96
@ 253   ----------------------------------------
 .byte   W96
@ 254   ----------------------------------------
 .byte   W96
@ 255   ----------------------------------------
 .byte   W96
@ 256   ----------------------------------------
 .byte   W96
@ 257   ----------------------------------------
 .byte   GOTO
  .word Label_1_014B34FF
@ 258   ----------------------------------------
 .byte   PATT
  .word Label_1_014B3547
@ 259   ----------------------------------------
 .byte   N92 ,En3 ,v092
 .byte   W96
@ 260   ----------------------------------------
 .byte   Cs2 ,v088
 .byte   W96
@ 261   ----------------------------------------
 .byte   Dn2 ,v092
 .byte   W96
@ 262   ----------------------------------------
 .byte   Gn2
 .byte   W96
@ 263   ----------------------------------------
 .byte   N44 ,Fn2
 .byte   W48
 .byte   En2
 .byte   W48
@ 264   ----------------------------------------
 .byte   TIE ,Dn2
 .byte   W96
@ 265   ----------------------------------------
 .byte   VOL , 34*song09_mvl/mxv
 .byte   W48
 .byte   Ds0
 .byte   W48
@ 266   ----------------------------------------
 .byte   BnM1
 .byte   W24
 .byte   GnM1
 .byte   W24
 .byte   DsM1
 .byte   W24
 .byte   BnM2
 .byte   W23
 .byte   EOT
 .byte   FINE

@**************** Track 3 (Midi-Chn.2) ****************@

song09_003:
@ 000   ----------------------------------------
 .byte   KEYSH , song09_key+0
 .byte   VOICE , 52
 .byte   PAN , c_v+25
 .byte   VOL , 40*song09_mvl/mxv
 .byte   W96
@ 001   ----------------------------------------
 .byte   W96
@ 002   ----------------------------------------
 .byte   W60
 .byte   N11 ,An2 ,v092
 .byte   W12
 .byte   Gn2
 .byte   W12
 .byte   N23 ,An2
 .byte   W12
@ 003   ----------------------------------------
 .byte   W12
 .byte   Dn2
 .byte   W24
 .byte   Cn2
 .byte   W24
 .byte   Dn2
 .byte   W24
 .byte   N11 ,En2 ,v080
 .byte   W12
@ 004   ----------------------------------------
 .byte   N92 ,Fn2
 .byte   W96
@ 005   ----------------------------------------
 .byte   N23 ,Fn2 ,v092
 .byte   W24
 .byte   En2
 .byte   W24
 .byte   Dn2
 .byte   W24
 .byte   N23
 .byte   W12
 .byte   N11 ,Cs2
 .byte   W12
@ 006   ----------------------------------------
 .byte   N44 ,Dn2
 .byte   W48
 .byte   Cs2
 .byte   W48
@ 007   ----------------------------------------
 .byte   Dn2
 .byte   W48
 .byte   N44
 .byte   W48
@ 008   ----------------------------------------
 .byte   N92
 .byte   W96
@ 009   ----------------------------------------
 .byte   TIE
 .byte   W96
@ 010   ----------------------------------------
 .byte   VOL , 35*song09_mvl/mxv
 .byte   W96
@ 011   ----------------------------------------
 .byte   Gn0
 .byte   W96
@ 012   ----------------------------------------
 .byte   Ds0
 .byte   W92
 .byte   W03
 .byte   EOT
 .byte   W01
@ 013   ----------------------------------------
 .byte   W96
@ 014   ----------------------------------------
 .byte   W96
@ 015   ----------------------------------------
 .byte   W96
@ 016   ----------------------------------------
 .byte   W96
@ 017   ----------------------------------------
Label_2_014B3256:
 .byte   W96
@ 018   ----------------------------------------
 .byte   W96
@ 019   ----------------------------------------
 .byte   W96
@ 020   ----------------------------------------
 .byte   W96
@ 021   ----------------------------------------
 .byte   W96
@ 022   ----------------------------------------
 .byte   W96
@ 023   ----------------------------------------
 .byte   W96
@ 024   ----------------------------------------
 .byte   W96
@ 025   ----------------------------------------
 .byte   W96
@ 026   ----------------------------------------
 .byte   W96
@ 027   ----------------------------------------
 .byte   W96
@ 028   ----------------------------------------
 .byte   W96
@ 029   ----------------------------------------
 .byte   W96
@ 030   ----------------------------------------
 .byte   W96
@ 031   ----------------------------------------
 .byte   W96
@ 032   ----------------------------------------
 .byte   W96
@ 033   ----------------------------------------
 .byte   W96
@ 034   ----------------------------------------
 .byte   W96
@ 035   ----------------------------------------
 .byte   W96
@ 036   ----------------------------------------
 .byte   W96
@ 037   ----------------------------------------
 .byte   W96
@ 038   ----------------------------------------
 .byte   W96
@ 039   ----------------------------------------
 .byte   W96
@ 040   ----------------------------------------
 .byte   W96
@ 041   ----------------------------------------
 .byte   W96
@ 042   ----------------------------------------
 .byte   W96
@ 043   ----------------------------------------
 .byte   W96
@ 044   ----------------------------------------
 .byte   W96
@ 045   ----------------------------------------
 .byte   W96
@ 046   ----------------------------------------
 .byte   W96
@ 047   ----------------------------------------
 .byte   W96
@ 048   ----------------------------------------
 .byte   W96
@ 049   ----------------------------------------
 .byte   W96
@ 050   ----------------------------------------
 .byte   W96
@ 051   ----------------------------------------
 .byte   W96
@ 052   ----------------------------------------
 .byte   W96
@ 053   ----------------------------------------
 .byte   W96
@ 054   ----------------------------------------
 .byte   W96
@ 055   ----------------------------------------
 .byte   W96
@ 056   ----------------------------------------
 .byte   W96
@ 057   ----------------------------------------
 .byte   W96
@ 058   ----------------------------------------
 .byte   W96
@ 059   ----------------------------------------
 .byte   W96
@ 060   ----------------------------------------
 .byte   W96
@ 061   ----------------------------------------
 .byte   W96
@ 062   ----------------------------------------
 .byte   W96
@ 063   ----------------------------------------
 .byte   W96
@ 064   ----------------------------------------
 .byte   W96
@ 065   ----------------------------------------
 .byte   W96
@ 066   ----------------------------------------
 .byte   W96
@ 067   ----------------------------------------
 .byte   W96
@ 068   ----------------------------------------
 .byte   W96
@ 069   ----------------------------------------
 .byte   W96
@ 070   ----------------------------------------
 .byte   W96
@ 071   ----------------------------------------
 .byte   W96
@ 072   ----------------------------------------
 .byte   W96
@ 073   ----------------------------------------
 .byte   W96
@ 074   ----------------------------------------
 .byte   W96
@ 075   ----------------------------------------
 .byte   W96
@ 076   ----------------------------------------
 .byte   W96
@ 077   ----------------------------------------
 .byte   W96
@ 078   ----------------------------------------
 .byte   W96
@ 079   ----------------------------------------
 .byte   W96
@ 080   ----------------------------------------
 .byte   W96
@ 081   ----------------------------------------
 .byte   W96
@ 082   ----------------------------------------
 .byte   W96
@ 083   ----------------------------------------
 .byte   W96
@ 084   ----------------------------------------
 .byte   W96
@ 085   ----------------------------------------
 .byte   W96
@ 086   ----------------------------------------
 .byte   W96
@ 087   ----------------------------------------
 .byte   W96
@ 088   ----------------------------------------
 .byte   W96
@ 089   ----------------------------------------
Label_2_014B329E:
 .byte   VOL , 40*song09_mvl/mxv
 .byte   N92 ,Fn4 ,v080
 .byte   W96
 .byte   PEND 
@ 090   ----------------------------------------
 .byte   En4 ,v092
 .byte   W96
@ 091   ----------------------------------------
Label_2_014B32A8:
 .byte   N44 ,Cs4 ,v080
 .byte   W48
 .byte   Dn4 ,v088
 .byte   W48
 .byte   PEND 
@ 092   ----------------------------------------
Label_2_014B32B0:
 .byte   N44 ,En4 ,v092
 .byte   W48
 .byte   Fn4
 .byte   W48
 .byte   PEND 
@ 093   ----------------------------------------
 .byte   W96
@ 094   ----------------------------------------
 .byte   W96
@ 095   ----------------------------------------
 .byte   W96
@ 096   ----------------------------------------
 .byte   W96
@ 097   ----------------------------------------
 .byte   W96
@ 098   ----------------------------------------
 .byte   W96
@ 099   ----------------------------------------
 .byte   W96
@ 100   ----------------------------------------
 .byte   W96
@ 101   ----------------------------------------
 .byte   W96
@ 102   ----------------------------------------
 .byte   W96
@ 103   ----------------------------------------
 .byte   W96
@ 104   ----------------------------------------
 .byte   W96
@ 105   ----------------------------------------
 .byte   W96
@ 106   ----------------------------------------
 .byte   W96
@ 107   ----------------------------------------
 .byte   W96
@ 108   ----------------------------------------
 .byte   W96
@ 109   ----------------------------------------
 .byte   W96
@ 110   ----------------------------------------
 .byte   W96
@ 111   ----------------------------------------
 .byte   W96
@ 112   ----------------------------------------
 .byte   W96
@ 113   ----------------------------------------
 .byte   W96
@ 114   ----------------------------------------
 .byte   W96
@ 115   ----------------------------------------
 .byte   W96
@ 116   ----------------------------------------
 .byte   W96
@ 117   ----------------------------------------
 .byte   W96
@ 118   ----------------------------------------
 .byte   W96
@ 119   ----------------------------------------
 .byte   W96
@ 120   ----------------------------------------
 .byte   W96
@ 121   ----------------------------------------
 .byte   W96
@ 122   ----------------------------------------
 .byte   W96
@ 123   ----------------------------------------
 .byte   W96
@ 124   ----------------------------------------
 .byte   W96
@ 125   ----------------------------------------
 .byte   W96
@ 126   ----------------------------------------
 .byte   W96
@ 127   ----------------------------------------
 .byte   W96
@ 128   ----------------------------------------
 .byte   W96
@ 129   ----------------------------------------
 .byte   W96
@ 130   ----------------------------------------
 .byte   W96
@ 131   ----------------------------------------
 .byte   W96
@ 132   ----------------------------------------
 .byte   W96
@ 133   ----------------------------------------
 .byte   W96
@ 134   ----------------------------------------
 .byte   W96
@ 135   ----------------------------------------
 .byte   W96
@ 136   ----------------------------------------
 .byte   W96
@ 137   ----------------------------------------
 .byte   W96
@ 138   ----------------------------------------
 .byte   W96
@ 139   ----------------------------------------
 .byte   W96
@ 140   ----------------------------------------
 .byte   W96
@ 141   ----------------------------------------
 .byte   W96
@ 142   ----------------------------------------
 .byte   W96
@ 143   ----------------------------------------
 .byte   W96
@ 144   ----------------------------------------
 .byte   W96
@ 145   ----------------------------------------
 .byte   W96
@ 146   ----------------------------------------
 .byte   W96
@ 147   ----------------------------------------
 .byte   W96
@ 148   ----------------------------------------
 .byte   W96
@ 149   ----------------------------------------
 .byte   W96
@ 150   ----------------------------------------
 .byte   W96
@ 151   ----------------------------------------
 .byte   W96
@ 152   ----------------------------------------
 .byte   W96
@ 153   ----------------------------------------
 .byte   W96
@ 154   ----------------------------------------
 .byte   W96
@ 155   ----------------------------------------
 .byte   W96
@ 156   ----------------------------------------
 .byte   W96
@ 157   ----------------------------------------
 .byte   W96
@ 158   ----------------------------------------
 .byte   W96
@ 159   ----------------------------------------
 .byte   W96
@ 160   ----------------------------------------
 .byte   W96
@ 161   ----------------------------------------
 .byte   W96
@ 162   ----------------------------------------
 .byte   W96
@ 163   ----------------------------------------
 .byte   W96
@ 164   ----------------------------------------
 .byte   W96
@ 165   ----------------------------------------
 .byte   W96
@ 166   ----------------------------------------
 .byte   W96
@ 167   ----------------------------------------
 .byte   W96
@ 168   ----------------------------------------
 .byte   W96
@ 169   ----------------------------------------
 .byte   W96
@ 170   ----------------------------------------
 .byte   W96
@ 171   ----------------------------------------
 .byte   W96
@ 172   ----------------------------------------
 .byte   W96
@ 173   ----------------------------------------
 .byte   PATT
  .word Label_2_014B329E
@ 174   ----------------------------------------
 .byte   N92 ,En4 ,v092
 .byte   W96
@ 175   ----------------------------------------
 .byte   PATT
  .word Label_2_014B32A8
@ 176   ----------------------------------------
 .byte   PATT
  .word Label_2_014B32B0
@ 177   ----------------------------------------
 .byte   W96
@ 178   ----------------------------------------
 .byte   W96
@ 179   ----------------------------------------
 .byte   W96
@ 180   ----------------------------------------
 .byte   W96
@ 181   ----------------------------------------
 .byte   W96
@ 182   ----------------------------------------
 .byte   W96
@ 183   ----------------------------------------
 .byte   W96
@ 184   ----------------------------------------
 .byte   W96
@ 185   ----------------------------------------
 .byte   W96
@ 186   ----------------------------------------
 .byte   W96
@ 187   ----------------------------------------
 .byte   W96
@ 188   ----------------------------------------
 .byte   W96
@ 189   ----------------------------------------
 .byte   W96
@ 190   ----------------------------------------
 .byte   W96
@ 191   ----------------------------------------
 .byte   W96
@ 192   ----------------------------------------
 .byte   W96
@ 193   ----------------------------------------
 .byte   W96
@ 194   ----------------------------------------
 .byte   W96
@ 195   ----------------------------------------
 .byte   W96
@ 196   ----------------------------------------
 .byte   W96
@ 197   ----------------------------------------
 .byte   W96
@ 198   ----------------------------------------
 .byte   W96
@ 199   ----------------------------------------
 .byte   W96
@ 200   ----------------------------------------
 .byte   W96
@ 201   ----------------------------------------
 .byte   W96
@ 202   ----------------------------------------
 .byte   W96
@ 203   ----------------------------------------
 .byte   W96
@ 204   ----------------------------------------
 .byte   W96
@ 205   ----------------------------------------
 .byte   W96
@ 206   ----------------------------------------
 .byte   W96
@ 207   ----------------------------------------
 .byte   W96
@ 208   ----------------------------------------
 .byte   W96
@ 209   ----------------------------------------
 .byte   W96
@ 210   ----------------------------------------
 .byte   W96
@ 211   ----------------------------------------
 .byte   W96
@ 212   ----------------------------------------
 .byte   W96
@ 213   ----------------------------------------
 .byte   W96
@ 214   ----------------------------------------
 .byte   W96
@ 215   ----------------------------------------
 .byte   W96
@ 216   ----------------------------------------
 .byte   W96
@ 217   ----------------------------------------
 .byte   W96
@ 218   ----------------------------------------
 .byte   W96
@ 219   ----------------------------------------
 .byte   W96
@ 220   ----------------------------------------
 .byte   W96
@ 221   ----------------------------------------
 .byte   W96
@ 222   ----------------------------------------
 .byte   W96
@ 223   ----------------------------------------
 .byte   W96
@ 224   ----------------------------------------
 .byte   W96
@ 225   ----------------------------------------
 .byte   W96
@ 226   ----------------------------------------
 .byte   W96
@ 227   ----------------------------------------
 .byte   W96
@ 228   ----------------------------------------
 .byte   W96
@ 229   ----------------------------------------
 .byte   W96
@ 230   ----------------------------------------
 .byte   W96
@ 231   ----------------------------------------
 .byte   W96
@ 232   ----------------------------------------
 .byte   W96
@ 233   ----------------------------------------
 .byte   W96
@ 234   ----------------------------------------
 .byte   W96
@ 235   ----------------------------------------
 .byte   W96
@ 236   ----------------------------------------
 .byte   W96
@ 237   ----------------------------------------
 .byte   W96
@ 238   ----------------------------------------
 .byte   W96
@ 239   ----------------------------------------
 .byte   W96
@ 240   ----------------------------------------
 .byte   W96
@ 241   ----------------------------------------
 .byte   W96
@ 242   ----------------------------------------
 .byte   W96
@ 243   ----------------------------------------
 .byte   W96
@ 244   ----------------------------------------
 .byte   W96
@ 245   ----------------------------------------
 .byte   W96
@ 246   ----------------------------------------
 .byte   W96
@ 247   ----------------------------------------
 .byte   W96
@ 248   ----------------------------------------
 .byte   W96
@ 249   ----------------------------------------
 .byte   W96
@ 250   ----------------------------------------
 .byte   W96
@ 251   ----------------------------------------
 .byte   W96
@ 252   ----------------------------------------
 .byte   W96
@ 253   ----------------------------------------
 .byte   W96
@ 254   ----------------------------------------
 .byte   W96
@ 255   ----------------------------------------
 .byte   W96
@ 256   ----------------------------------------
 .byte   W96
@ 257   ----------------------------------------
 .byte   GOTO
  .word Label_2_014B3256
@ 258   ----------------------------------------
 .byte   PATT
  .word Label_2_014B329E
@ 259   ----------------------------------------
 .byte   N92 ,En4 ,v092
 .byte   W96
@ 260   ----------------------------------------
 .byte   PATT
  .word Label_2_014B32A8
@ 261   ----------------------------------------
 .byte   N44 ,En4 ,v092
 .byte   W48
 .byte   Cs4
 .byte   W48
@ 262   ----------------------------------------
 .byte   TIE ,Dn4
 .byte   W96
@ 263   ----------------------------------------
 .byte   W96
@ 264   ----------------------------------------
 .byte   W96
@ 265   ----------------------------------------
 .byte   VOL , 34*song09_mvl/mxv
 .byte   W48
 .byte   Fn0
 .byte   W48
@ 266   ----------------------------------------
 .byte   BnM1
 .byte   W24
 .byte   GnM1
 .byte   W24
 .byte   DsM1
 .byte   W24
 .byte   BnM2
 .byte   W23
 .byte   EOT
 .byte   FINE

@**************** Track 4 (Midi-Chn.3) ****************@

song09_004:
@ 000   ----------------------------------------
 .byte   KEYSH , song09_key+0
 .byte   VOICE , 0
 .byte   PAN , c_v-19
 .byte   VOL , 40*song09_mvl/mxv
 .byte   W96
@ 001   ----------------------------------------
 .byte   W96
@ 002   ----------------------------------------
 .byte   W96
@ 003   ----------------------------------------
 .byte   W96
@ 004   ----------------------------------------
 .byte   W96
@ 005   ----------------------------------------
 .byte   W96
@ 006   ----------------------------------------
 .byte   W96
@ 007   ----------------------------------------
 .byte   W96
@ 008   ----------------------------------------
 .byte   W96
@ 009   ----------------------------------------
 .byte   En0
 .byte   N11 ,Fn4 ,v092
 .byte   W12
 .byte   Dn3
 .byte   W12
 .byte   Fn4
 .byte   W12
 .byte   Dn3
 .byte   W12
 .byte   Gn4
 .byte   W12
 .byte   Dn3
 .byte   W12
 .byte   Gn4
 .byte   W12
 .byte   Dn3
 .byte   W12
@ 010   ----------------------------------------
 .byte   VOL , 31*song09_mvl/mxv
 .byte   N11 ,En4
 .byte   W12
 .byte   Dn3
 .byte   W12
 .byte   En4
 .byte   W12
 .byte   Dn3
 .byte   W12
 .byte   Fn4
 .byte   W12
 .byte   Dn3
 .byte   W12
 .byte   Fn4
 .byte   W12
 .byte   Dn3
 .byte   W12
@ 011   ----------------------------------------
 .byte   VOL , 34*song09_mvl/mxv
 .byte   N11 ,Dn4
 .byte   W12
 .byte   Dn3
 .byte   W12
 .byte   Dn4
 .byte   W12
 .byte   Dn3
 .byte   W12
 .byte   VOL , 36*song09_mvl/mxv
 .byte   N11 ,En4
 .byte   W12
 .byte   Dn3
 .byte   W12
 .byte   En4
 .byte   W12
 .byte   Dn3
 .byte   W12
@ 012   ----------------------------------------
 .byte   VOL , 38*song09_mvl/mxv
 .byte   N11 ,Cs4
 .byte   W12
 .byte   Dn3
 .byte   W12
 .byte   Dn4
 .byte   W12
 .byte   Dn3
 .byte   W12
 .byte   VOL , 40*song09_mvl/mxv
 .byte   N11 ,En4
 .byte   W12
 .byte   Dn3
 .byte   W12
 .byte   Fn4
 .byte   W12
 .byte   Dn3
 .byte   W12
@ 013   ----------------------------------------
 .byte   Fn4
 .byte   W12
 .byte   Dn3
 .byte   W12
 .byte   Fn4
 .byte   W12
 .byte   Dn3
 .byte   W12
 .byte   Gn4
 .byte   W12
 .byte   Dn3
 .byte   W12
 .byte   Gn4
 .byte   W12
 .byte   Dn3
 .byte   W12
@ 014   ----------------------------------------
 .byte   En4
 .byte   W12
 .byte   Dn3
 .byte   W12
 .byte   En4
 .byte   W12
 .byte   Dn3
 .byte   W12
 .byte   Fn4
 .byte   W12
 .byte   Dn3
 .byte   W12
 .byte   Fn4
 .byte   W12
 .byte   Dn3
 .byte   W12
@ 015   ----------------------------------------
 .byte   Dn4
 .byte   W12
 .byte   Dn3
 .byte   W12
 .byte   Dn4
 .byte   W12
 .byte   Dn3
 .byte   W12
 .byte   En4
 .byte   W12
 .byte   Dn3
 .byte   W12
 .byte   En4
 .byte   W12
 .byte   Dn3
 .byte   W12
@ 016   ----------------------------------------
 .byte   Cs4
 .byte   W12
 .byte   Dn3
 .byte   W12
 .byte   Dn4
 .byte   W12
 .byte   Dn3
 .byte   W12
 .byte   En4
 .byte   W12
 .byte   Dn3
 .byte   W12
 .byte   Fn4
 .byte   W12
 .byte   Dn3
 .byte   W12
@ 017   ----------------------------------------
Label_3_014C1773:
 .byte   W96
@ 018   ----------------------------------------
 .byte   W96
@ 019   ----------------------------------------
 .byte   W96
@ 020   ----------------------------------------
 .byte   W96
@ 021   ----------------------------------------
 .byte   W96
@ 022   ----------------------------------------
 .byte   W96
@ 023   ----------------------------------------
 .byte   W96
@ 024   ----------------------------------------
 .byte   W96
@ 025   ----------------------------------------
 .byte   W96
@ 026   ----------------------------------------
 .byte   W96
@ 027   ----------------------------------------
 .byte   W96
@ 028   ----------------------------------------
 .byte   W96
@ 029   ----------------------------------------
 .byte   W96
@ 030   ----------------------------------------
 .byte   W96
@ 031   ----------------------------------------
 .byte   W96
@ 032   ----------------------------------------
 .byte   W96
@ 033   ----------------------------------------
 .byte   W96
@ 034   ----------------------------------------
 .byte   W96
@ 035   ----------------------------------------
 .byte   W96
@ 036   ----------------------------------------
 .byte   W96
@ 037   ----------------------------------------
 .byte   W96
@ 038   ----------------------------------------
 .byte   W96
@ 039   ----------------------------------------
 .byte   W96
@ 040   ----------------------------------------
 .byte   W96
@ 041   ----------------------------------------
 .byte   W96
@ 042   ----------------------------------------
 .byte   W96
@ 043   ----------------------------------------
 .byte   W96
@ 044   ----------------------------------------
 .byte   W96
@ 045   ----------------------------------------
 .byte   W96
@ 046   ----------------------------------------
 .byte   W96
@ 047   ----------------------------------------
 .byte   W96
@ 048   ----------------------------------------
 .byte   W96
@ 049   ----------------------------------------
 .byte   W96
@ 050   ----------------------------------------
 .byte   W96
@ 051   ----------------------------------------
 .byte   W96
@ 052   ----------------------------------------
 .byte   W96
@ 053   ----------------------------------------
 .byte   W96
@ 054   ----------------------------------------
 .byte   W96
@ 055   ----------------------------------------
 .byte   W96
@ 056   ----------------------------------------
 .byte   W96
@ 057   ----------------------------------------
 .byte   W96
@ 058   ----------------------------------------
 .byte   W96
@ 059   ----------------------------------------
 .byte   W96
@ 060   ----------------------------------------
 .byte   W96
@ 061   ----------------------------------------
 .byte   W96
@ 062   ----------------------------------------
 .byte   W96
@ 063   ----------------------------------------
 .byte   W96
@ 064   ----------------------------------------
 .byte   W96
@ 065   ----------------------------------------
 .byte   W96
@ 066   ----------------------------------------
 .byte   W96
@ 067   ----------------------------------------
 .byte   W96
@ 068   ----------------------------------------
 .byte   W96
@ 069   ----------------------------------------
 .byte   W96
@ 070   ----------------------------------------
 .byte   W96
@ 071   ----------------------------------------
 .byte   W96
@ 072   ----------------------------------------
 .byte   W96
@ 073   ----------------------------------------
 .byte   W96
@ 074   ----------------------------------------
 .byte   W96
@ 075   ----------------------------------------
 .byte   W96
@ 076   ----------------------------------------
 .byte   W96
@ 077   ----------------------------------------
 .byte   W96
@ 078   ----------------------------------------
 .byte   W96
@ 079   ----------------------------------------
 .byte   W96
@ 080   ----------------------------------------
 .byte   W96
@ 081   ----------------------------------------
 .byte   W96
@ 082   ----------------------------------------
 .byte   W96
@ 083   ----------------------------------------
 .byte   W96
@ 084   ----------------------------------------
 .byte   W96
@ 085   ----------------------------------------
 .byte   W96
@ 086   ----------------------------------------
 .byte   W96
@ 087   ----------------------------------------
 .byte   W96
@ 088   ----------------------------------------
 .byte   W96
@ 089   ----------------------------------------
 .byte   W96
@ 090   ----------------------------------------
 .byte   W96
@ 091   ----------------------------------------
 .byte   W96
@ 092   ----------------------------------------
 .byte   W96
@ 093   ----------------------------------------
 .byte   W96
@ 094   ----------------------------------------
 .byte   W96
@ 095   ----------------------------------------
 .byte   W96
@ 096   ----------------------------------------
 .byte   W96
@ 097   ----------------------------------------
 .byte   W96
@ 098   ----------------------------------------
 .byte   W96
@ 099   ----------------------------------------
 .byte   W96
@ 100   ----------------------------------------
 .byte   W96
@ 101   ----------------------------------------
 .byte   W96
@ 102   ----------------------------------------
 .byte   W96
@ 103   ----------------------------------------
 .byte   W96
@ 104   ----------------------------------------
 .byte   W96
@ 105   ----------------------------------------
 .byte   W96
@ 106   ----------------------------------------
 .byte   W96
@ 107   ----------------------------------------
 .byte   W96
@ 108   ----------------------------------------
 .byte   W96
@ 109   ----------------------------------------
 .byte   W96
@ 110   ----------------------------------------
 .byte   W96
@ 111   ----------------------------------------
 .byte   W96
@ 112   ----------------------------------------
 .byte   W96
@ 113   ----------------------------------------
 .byte   W96
@ 114   ----------------------------------------
 .byte   W96
@ 115   ----------------------------------------
 .byte   W96
@ 116   ----------------------------------------
 .byte   W96
@ 117   ----------------------------------------
 .byte   W96
@ 118   ----------------------------------------
 .byte   W96
@ 119   ----------------------------------------
 .byte   W96
@ 120   ----------------------------------------
 .byte   W96
@ 121   ----------------------------------------
 .byte   W96
@ 122   ----------------------------------------
 .byte   W96
@ 123   ----------------------------------------
 .byte   W96
@ 124   ----------------------------------------
 .byte   W96
@ 125   ----------------------------------------
 .byte   W96
@ 126   ----------------------------------------
 .byte   W96
@ 127   ----------------------------------------
 .byte   W96
@ 128   ----------------------------------------
 .byte   W96
@ 129   ----------------------------------------
 .byte   W96
@ 130   ----------------------------------------
 .byte   W96
@ 131   ----------------------------------------
 .byte   W96
@ 132   ----------------------------------------
 .byte   W96
@ 133   ----------------------------------------
 .byte   W96
@ 134   ----------------------------------------
 .byte   W96
@ 135   ----------------------------------------
 .byte   W96
@ 136   ----------------------------------------
 .byte   W96
@ 137   ----------------------------------------
 .byte   W96
@ 138   ----------------------------------------
 .byte   W96
@ 139   ----------------------------------------
 .byte   W96
@ 140   ----------------------------------------
 .byte   W96
@ 141   ----------------------------------------
 .byte   W96
@ 142   ----------------------------------------
 .byte   W96
@ 143   ----------------------------------------
 .byte   W96
@ 144   ----------------------------------------
 .byte   W96
@ 145   ----------------------------------------
 .byte   W96
@ 146   ----------------------------------------
 .byte   W96
@ 147   ----------------------------------------
 .byte   W96
@ 148   ----------------------------------------
 .byte   W96
@ 149   ----------------------------------------
 .byte   W96
@ 150   ----------------------------------------
 .byte   W96
@ 151   ----------------------------------------
 .byte   W96
@ 152   ----------------------------------------
 .byte   W96
@ 153   ----------------------------------------
 .byte   W96
@ 154   ----------------------------------------
 .byte   W96
@ 155   ----------------------------------------
 .byte   W96
@ 156   ----------------------------------------
 .byte   W96
@ 157   ----------------------------------------
 .byte   W96
@ 158   ----------------------------------------
 .byte   W96
@ 159   ----------------------------------------
 .byte   W96
@ 160   ----------------------------------------
 .byte   W96
@ 161   ----------------------------------------
 .byte   W96
@ 162   ----------------------------------------
 .byte   W96
@ 163   ----------------------------------------
 .byte   W96
@ 164   ----------------------------------------
 .byte   W96
@ 165   ----------------------------------------
 .byte   W96
@ 166   ----------------------------------------
 .byte   W96
@ 167   ----------------------------------------
 .byte   W96
@ 168   ----------------------------------------
 .byte   W96
@ 169   ----------------------------------------
 .byte   W96
@ 170   ----------------------------------------
 .byte   W96
@ 171   ----------------------------------------
 .byte   W96
@ 172   ----------------------------------------
 .byte   W96
@ 173   ----------------------------------------
 .byte   W96
@ 174   ----------------------------------------
 .byte   W96
@ 175   ----------------------------------------
 .byte   W96
@ 176   ----------------------------------------
 .byte   W96
@ 177   ----------------------------------------
 .byte   W96
@ 178   ----------------------------------------
 .byte   W96
@ 179   ----------------------------------------
 .byte   W96
@ 180   ----------------------------------------
 .byte   W96
@ 181   ----------------------------------------
 .byte   W96
@ 182   ----------------------------------------
 .byte   W96
@ 183   ----------------------------------------
 .byte   W96
@ 184   ----------------------------------------
 .byte   W96
@ 185   ----------------------------------------
 .byte   W96
@ 186   ----------------------------------------
 .byte   W96
@ 187   ----------------------------------------
 .byte   W96
@ 188   ----------------------------------------
 .byte   W96
@ 189   ----------------------------------------
 .byte   W96
@ 190   ----------------------------------------
 .byte   W96
@ 191   ----------------------------------------
 .byte   W96
@ 192   ----------------------------------------
 .byte   W96
@ 193   ----------------------------------------
 .byte   W96
@ 194   ----------------------------------------
 .byte   W96
@ 195   ----------------------------------------
 .byte   W96
@ 196   ----------------------------------------
 .byte   W96
@ 197   ----------------------------------------
 .byte   W96
@ 198   ----------------------------------------
 .byte   W96
@ 199   ----------------------------------------
 .byte   W96
@ 200   ----------------------------------------
 .byte   W96
@ 201   ----------------------------------------
 .byte   W96
@ 202   ----------------------------------------
 .byte   W96
@ 203   ----------------------------------------
 .byte   W96
@ 204   ----------------------------------------
 .byte   W96
@ 205   ----------------------------------------
 .byte   W96
@ 206   ----------------------------------------
 .byte   W96
@ 207   ----------------------------------------
 .byte   W96
@ 208   ----------------------------------------
 .byte   W96
@ 209   ----------------------------------------
 .byte   W96
@ 210   ----------------------------------------
 .byte   W96
@ 211   ----------------------------------------
 .byte   W96
@ 212   ----------------------------------------
 .byte   W96
@ 213   ----------------------------------------
 .byte   W96
@ 214   ----------------------------------------
 .byte   W96
@ 215   ----------------------------------------
 .byte   W96
@ 216   ----------------------------------------
 .byte   W96
@ 217   ----------------------------------------
 .byte   W96
@ 218   ----------------------------------------
 .byte   W96
@ 219   ----------------------------------------
 .byte   W96
@ 220   ----------------------------------------
 .byte   W96
@ 221   ----------------------------------------
 .byte   W96
@ 222   ----------------------------------------
 .byte   W96
@ 223   ----------------------------------------
 .byte   W96
@ 224   ----------------------------------------
 .byte   W96
@ 225   ----------------------------------------
 .byte   W96
@ 226   ----------------------------------------
 .byte   W96
@ 227   ----------------------------------------
 .byte   W96
@ 228   ----------------------------------------
 .byte   W96
@ 229   ----------------------------------------
 .byte   W96
@ 230   ----------------------------------------
 .byte   W96
@ 231   ----------------------------------------
 .byte   W96
@ 232   ----------------------------------------
 .byte   W96
@ 233   ----------------------------------------
 .byte   W96
@ 234   ----------------------------------------
 .byte   W96
@ 235   ----------------------------------------
 .byte   W96
@ 236   ----------------------------------------
 .byte   W96
@ 237   ----------------------------------------
 .byte   W96
@ 238   ----------------------------------------
 .byte   W96
@ 239   ----------------------------------------
 .byte   W96
@ 240   ----------------------------------------
 .byte   W96
@ 241   ----------------------------------------
 .byte   W96
@ 242   ----------------------------------------
 .byte   W96
@ 243   ----------------------------------------
 .byte   W96
@ 244   ----------------------------------------
 .byte   W96
@ 245   ----------------------------------------
 .byte   W96
@ 246   ----------------------------------------
 .byte   W96
@ 247   ----------------------------------------
 .byte   W96
@ 248   ----------------------------------------
 .byte   W96
@ 249   ----------------------------------------
 .byte   W96
@ 250   ----------------------------------------
 .byte   W96
@ 251   ----------------------------------------
 .byte   W96
@ 252   ----------------------------------------
 .byte   W96
@ 253   ----------------------------------------
 .byte   W96
@ 254   ----------------------------------------
 .byte   W96
@ 255   ----------------------------------------
 .byte   W96
@ 256   ----------------------------------------
 .byte   W96
@ 257   ----------------------------------------
 .byte   GOTO
  .word Label_3_014C1773
@ 258   ----------------------------------------
 .byte   W96
@ 259   ----------------------------------------
 .byte   W96
@ 260   ----------------------------------------
 .byte   W96
@ 261   ----------------------------------------
 .byte   W96
@ 262   ----------------------------------------
 .byte   W96
@ 263   ----------------------------------------
 .byte   W96
@ 264   ----------------------------------------
 .byte   W96
@ 265   ----------------------------------------
 .byte   W96
@ 266   ----------------------------------------
 .byte   W92
 .byte   W03
 .byte   FINE

@**************** Track 5 (Midi-Chn.4) ****************@

song09_005:
@ 000   ----------------------------------------
 .byte   KEYSH , song09_key+0
 .byte   VOICE , 19
 .byte   PAN , c_v+21
 .byte   VOL , 40*song09_mvl/mxv
 .byte   W96
@ 001   ----------------------------------------
 .byte   W96
@ 002   ----------------------------------------
 .byte   W96
@ 003   ----------------------------------------
 .byte   W96
@ 004   ----------------------------------------
 .byte   W96
@ 005   ----------------------------------------
 .byte   W96
@ 006   ----------------------------------------
 .byte   W96
@ 007   ----------------------------------------
 .byte   W96
@ 008   ----------------------------------------
 .byte   W96
@ 009   ----------------------------------------
 .byte   W96
@ 010   ----------------------------------------
 .byte   W96
@ 011   ----------------------------------------
 .byte   W96
@ 012   ----------------------------------------
 .byte   W96
@ 013   ----------------------------------------
 .byte   Gn0
 .byte   N44 ,Dn3 ,v092
 .byte   N44 ,Dn4
 .byte   N44 ,Fn4
 .byte   W48
 .byte   Dn3
 .byte   N44 ,Dn4
 .byte   N44 ,Gn4
 .byte   W48
@ 014   ----------------------------------------
 .byte   Dn3
 .byte   N44 ,En4
 .byte   W48
 .byte   Dn3
 .byte   N44 ,Fn4
 .byte   W48
@ 015   ----------------------------------------
 .byte   Dn3
 .byte   N44 ,Dn4
 .byte   W48
 .byte   Dn3
 .byte   N44 ,En4
 .byte   W48
@ 016   ----------------------------------------
 .byte   N23 ,Dn3
 .byte   N23 ,Cs4
 .byte   W24
 .byte   Dn3
 .byte   N23 ,Dn4
 .byte   W24
 .byte   Dn3
 .byte   N23 ,En4
 .byte   W24
 .byte   Dn3
 .byte   N23 ,Fn4
 .byte   W24
@ 017   ----------------------------------------
Label_4_014C18B9:
 .byte   W96
@ 018   ----------------------------------------
 .byte   W96
@ 019   ----------------------------------------
 .byte   W96
@ 020   ----------------------------------------
 .byte   W96
@ 021   ----------------------------------------
 .byte   W96
@ 022   ----------------------------------------
 .byte   W96
@ 023   ----------------------------------------
 .byte   W96
@ 024   ----------------------------------------
 .byte   W96
@ 025   ----------------------------------------
 .byte   W96
@ 026   ----------------------------------------
 .byte   W96
@ 027   ----------------------------------------
 .byte   W96
@ 028   ----------------------------------------
 .byte   W96
@ 029   ----------------------------------------
 .byte   W96
@ 030   ----------------------------------------
 .byte   W96
@ 031   ----------------------------------------
 .byte   W96
@ 032   ----------------------------------------
 .byte   W96
@ 033   ----------------------------------------
 .byte   W96
@ 034   ----------------------------------------
 .byte   W96
@ 035   ----------------------------------------
 .byte   W96
@ 036   ----------------------------------------
 .byte   W96
@ 037   ----------------------------------------
 .byte   W96
@ 038   ----------------------------------------
 .byte   W96
@ 039   ----------------------------------------
 .byte   W96
@ 040   ----------------------------------------
 .byte   W96
@ 041   ----------------------------------------
 .byte   W96
@ 042   ----------------------------------------
 .byte   W96
@ 043   ----------------------------------------
 .byte   W96
@ 044   ----------------------------------------
 .byte   W96
@ 045   ----------------------------------------
 .byte   W96
@ 046   ----------------------------------------
 .byte   W96
@ 047   ----------------------------------------
 .byte   W96
@ 048   ----------------------------------------
 .byte   W96
@ 049   ----------------------------------------
 .byte   W96
@ 050   ----------------------------------------
 .byte   W96
@ 051   ----------------------------------------
 .byte   W96
@ 052   ----------------------------------------
 .byte   W96
@ 053   ----------------------------------------
 .byte   W96
@ 054   ----------------------------------------
 .byte   W96
@ 055   ----------------------------------------
 .byte   W96
@ 056   ----------------------------------------
 .byte   W96
@ 057   ----------------------------------------
Label_4_014C18E1:
 .byte   VOL , 40*song09_mvl/mxv
 .byte   N11 ,As4 ,v092
 .byte   W12
 .byte   Fn5
 .byte   W12
 .byte   En5
 .byte   W12
 .byte   Fn5
 .byte   W12
 .byte   As4
 .byte   W12
 .byte   Fn5
 .byte   W12
 .byte   En5
 .byte   W12
 .byte   Fn5
 .byte   W12
 .byte   PEND 
@ 058   ----------------------------------------
Label_4_014C18F6:
 .byte   N11 ,As4 ,v092
 .byte   W12
 .byte   Fn5
 .byte   W12
 .byte   En5
 .byte   W12
 .byte   Fn5
 .byte   W12
 .byte   As4
 .byte   W12
 .byte   Fn5
 .byte   W12
 .byte   En5
 .byte   W12
 .byte   Fn5
 .byte   W12
 .byte   PEND 
@ 059   ----------------------------------------
Label_4_014C1909:
 .byte   N11 ,Gn4 ,v092
 .byte   W12
 .byte   En5
 .byte   W12
 .byte   Dn5
 .byte   W12
 .byte   En5
 .byte   W12
 .byte   Gn4
 .byte   W12
 .byte   En5
 .byte   W12
 .byte   Dn5
 .byte   W12
 .byte   En5
 .byte   W12
 .byte   PEND 
@ 060   ----------------------------------------
 .byte   PATT
  .word Label_4_014C1909
@ 061   ----------------------------------------
Label_4_014C1921:
 .byte   N11 ,An4 ,v092
 .byte   W12
 .byte   En5
 .byte   W12
 .byte   Dn5
 .byte   W12
 .byte   En5
 .byte   W12
 .byte   An4
 .byte   W12
 .byte   En5
 .byte   W12
 .byte   Dn5
 .byte   W12
 .byte   En5
 .byte   W12
 .byte   PEND 
@ 062   ----------------------------------------
 .byte   PATT
  .word Label_4_014C1921
@ 063   ----------------------------------------
Label_4_014C1939:
 .byte   N11 ,As4 ,v092
 .byte   W12
 .byte   Dn5
 .byte   W12
 .byte   Cn5
 .byte   W12
 .byte   Dn5
 .byte   W12
 .byte   As4
 .byte   W12
 .byte   Dn5
 .byte   W12
 .byte   Cn5
 .byte   W12
 .byte   Dn5
 .byte   W12
 .byte   PEND 
@ 064   ----------------------------------------
Label_4_014C194C:
 .byte   N11 ,An4 ,v092
 .byte   W12
 .byte   Dn5
 .byte   W12
 .byte   Cn5
 .byte   W12
 .byte   Dn5
 .byte   W12
 .byte   An4
 .byte   W12
 .byte   Dn5
 .byte   W12
 .byte   Cn5
 .byte   W12
 .byte   Dn5
 .byte   W12
 .byte   PEND 
@ 065   ----------------------------------------
Label_4_014C195F:
 .byte   N11 ,Gn4 ,v092
 .byte   W12
 .byte   Dn5
 .byte   W12
 .byte   Cn5
 .byte   W12
 .byte   Dn5
 .byte   W12
 .byte   Gn4
 .byte   W12
 .byte   Dn5
 .byte   W12
 .byte   Cn5
 .byte   W12
 .byte   Dn5
 .byte   W12
 .byte   PEND 
@ 066   ----------------------------------------
 .byte   PATT
  .word Label_4_014C195F
@ 067   ----------------------------------------
Label_4_014C1977:
 .byte   N11 ,An4 ,v092
 .byte   W12
 .byte   Cs5
 .byte   W12
 .byte   Dn5
 .byte   W12
 .byte   Cs5
 .byte   W12
 .byte   An4
 .byte   W12
 .byte   Cs5
 .byte   W12
 .byte   Dn5
 .byte   W12
 .byte   Cs5
 .byte   W12
 .byte   PEND 
@ 068   ----------------------------------------
 .byte   PATT
  .word Label_4_014C1977
@ 069   ----------------------------------------
 .byte   W96
@ 070   ----------------------------------------
 .byte   W96
@ 071   ----------------------------------------
 .byte   W96
@ 072   ----------------------------------------
 .byte   W96
@ 073   ----------------------------------------
 .byte   PATT
  .word Label_4_014C18F6
@ 074   ----------------------------------------
 .byte   PATT
  .word Label_4_014C18F6
@ 075   ----------------------------------------
 .byte   PATT
  .word Label_4_014C1909
@ 076   ----------------------------------------
 .byte   PATT
  .word Label_4_014C1909
@ 077   ----------------------------------------
 .byte   PATT
  .word Label_4_014C1921
@ 078   ----------------------------------------
 .byte   PATT
  .word Label_4_014C1921
@ 079   ----------------------------------------
 .byte   PATT
  .word Label_4_014C1939
@ 080   ----------------------------------------
 .byte   PATT
  .word Label_4_014C194C
@ 081   ----------------------------------------
 .byte   PATT
  .word Label_4_014C195F
@ 082   ----------------------------------------
 .byte   PATT
  .word Label_4_014C195F
@ 083   ----------------------------------------
 .byte   PATT
  .word Label_4_014C1977
@ 084   ----------------------------------------
 .byte   PATT
  .word Label_4_014C1977
@ 085   ----------------------------------------
 .byte   W96
@ 086   ----------------------------------------
 .byte   W96
@ 087   ----------------------------------------
 .byte   W96
@ 088   ----------------------------------------
 .byte   W96
@ 089   ----------------------------------------
 .byte   W96
@ 090   ----------------------------------------
 .byte   W96
@ 091   ----------------------------------------
 .byte   W96
@ 092   ----------------------------------------
 .byte   W96
@ 093   ----------------------------------------
 .byte   W96
@ 094   ----------------------------------------
 .byte   W96
@ 095   ----------------------------------------
 .byte   W96
@ 096   ----------------------------------------
 .byte   W96
@ 097   ----------------------------------------
 .byte   W96
@ 098   ----------------------------------------
 .byte   W96
@ 099   ----------------------------------------
 .byte   W96
@ 100   ----------------------------------------
 .byte   W96
@ 101   ----------------------------------------
 .byte   W96
@ 102   ----------------------------------------
 .byte   W96
@ 103   ----------------------------------------
 .byte   W96
@ 104   ----------------------------------------
 .byte   W96
@ 105   ----------------------------------------
 .byte   W96
@ 106   ----------------------------------------
 .byte   W96
@ 107   ----------------------------------------
 .byte   W96
@ 108   ----------------------------------------
 .byte   W96
@ 109   ----------------------------------------
 .byte   W96
@ 110   ----------------------------------------
 .byte   W96
@ 111   ----------------------------------------
 .byte   W96
@ 112   ----------------------------------------
 .byte   W96
@ 113   ----------------------------------------
 .byte   W96
@ 114   ----------------------------------------
 .byte   W96
@ 115   ----------------------------------------
 .byte   W96
@ 116   ----------------------------------------
 .byte   W96
@ 117   ----------------------------------------
 .byte   W96
@ 118   ----------------------------------------
 .byte   W96
@ 119   ----------------------------------------
 .byte   W96
@ 120   ----------------------------------------
 .byte   W96
@ 121   ----------------------------------------
 .byte   W96
@ 122   ----------------------------------------
 .byte   W96
@ 123   ----------------------------------------
 .byte   W96
@ 124   ----------------------------------------
 .byte   W96
@ 125   ----------------------------------------
 .byte   W96
@ 126   ----------------------------------------
 .byte   W96
@ 127   ----------------------------------------
 .byte   W96
@ 128   ----------------------------------------
 .byte   W96
@ 129   ----------------------------------------
 .byte   W96
@ 130   ----------------------------------------
 .byte   W96
@ 131   ----------------------------------------
 .byte   W96
@ 132   ----------------------------------------
 .byte   W96
@ 133   ----------------------------------------
 .byte   W96
@ 134   ----------------------------------------
 .byte   W96
@ 135   ----------------------------------------
 .byte   W96
@ 136   ----------------------------------------
 .byte   W96
@ 137   ----------------------------------------
 .byte   W96
@ 138   ----------------------------------------
 .byte   W96
@ 139   ----------------------------------------
 .byte   W96
@ 140   ----------------------------------------
 .byte   W96
@ 141   ----------------------------------------
 .byte   PATT
  .word Label_4_014C18E1
@ 142   ----------------------------------------
 .byte   PATT
  .word Label_4_014C18F6
@ 143   ----------------------------------------
 .byte   PATT
  .word Label_4_014C1909
@ 144   ----------------------------------------
 .byte   PATT
  .word Label_4_014C1909
@ 145   ----------------------------------------
 .byte   PATT
  .word Label_4_014C1921
@ 146   ----------------------------------------
 .byte   PATT
  .word Label_4_014C1921
@ 147   ----------------------------------------
 .byte   PATT
  .word Label_4_014C1939
@ 148   ----------------------------------------
 .byte   PATT
  .word Label_4_014C194C
@ 149   ----------------------------------------
 .byte   PATT
  .word Label_4_014C195F
@ 150   ----------------------------------------
 .byte   PATT
  .word Label_4_014C195F
@ 151   ----------------------------------------
 .byte   PATT
  .word Label_4_014C1977
@ 152   ----------------------------------------
 .byte   PATT
  .word Label_4_014C1977
@ 153   ----------------------------------------
 .byte   W96
@ 154   ----------------------------------------
 .byte   W96
@ 155   ----------------------------------------
 .byte   W96
@ 156   ----------------------------------------
 .byte   W96
@ 157   ----------------------------------------
 .byte   PATT
  .word Label_4_014C18F6
@ 158   ----------------------------------------
 .byte   PATT
  .word Label_4_014C18F6
@ 159   ----------------------------------------
 .byte   PATT
  .word Label_4_014C1909
@ 160   ----------------------------------------
 .byte   PATT
  .word Label_4_014C1909
@ 161   ----------------------------------------
 .byte   PATT
  .word Label_4_014C1921
@ 162   ----------------------------------------
 .byte   PATT
  .word Label_4_014C1921
@ 163   ----------------------------------------
 .byte   PATT
  .word Label_4_014C1939
@ 164   ----------------------------------------
 .byte   PATT
  .word Label_4_014C194C
@ 165   ----------------------------------------
 .byte   PATT
  .word Label_4_014C195F
@ 166   ----------------------------------------
 .byte   PATT
  .word Label_4_014C195F
@ 167   ----------------------------------------
 .byte   PATT
  .word Label_4_014C1977
@ 168   ----------------------------------------
 .byte   PATT
  .word Label_4_014C1977
@ 169   ----------------------------------------
 .byte   W96
@ 170   ----------------------------------------
 .byte   W96
@ 171   ----------------------------------------
 .byte   W96
@ 172   ----------------------------------------
 .byte   W96
@ 173   ----------------------------------------
 .byte   W96
@ 174   ----------------------------------------
 .byte   W96
@ 175   ----------------------------------------
 .byte   W96
@ 176   ----------------------------------------
 .byte   W96
@ 177   ----------------------------------------
 .byte   W96
@ 178   ----------------------------------------
 .byte   W96
@ 179   ----------------------------------------
 .byte   W96
@ 180   ----------------------------------------
 .byte   W96
@ 181   ----------------------------------------
 .byte   W96
@ 182   ----------------------------------------
 .byte   W96
@ 183   ----------------------------------------
 .byte   W96
@ 184   ----------------------------------------
 .byte   W96
@ 185   ----------------------------------------
 .byte   W96
@ 186   ----------------------------------------
 .byte   W96
@ 187   ----------------------------------------
 .byte   W96
@ 188   ----------------------------------------
 .byte   W96
@ 189   ----------------------------------------
 .byte   W96
@ 190   ----------------------------------------
 .byte   W96
@ 191   ----------------------------------------
 .byte   W96
@ 192   ----------------------------------------
 .byte   W96
@ 193   ----------------------------------------
 .byte   W96
@ 194   ----------------------------------------
 .byte   W96
@ 195   ----------------------------------------
 .byte   W96
@ 196   ----------------------------------------
 .byte   W96
@ 197   ----------------------------------------
 .byte   W96
@ 198   ----------------------------------------
 .byte   W96
@ 199   ----------------------------------------
 .byte   W96
@ 200   ----------------------------------------
 .byte   W96
@ 201   ----------------------------------------
 .byte   W96
@ 202   ----------------------------------------
 .byte   W96
@ 203   ----------------------------------------
 .byte   W96
@ 204   ----------------------------------------
 .byte   W96
@ 205   ----------------------------------------
 .byte   W96
@ 206   ----------------------------------------
 .byte   W96
@ 207   ----------------------------------------
 .byte   W96
@ 208   ----------------------------------------
 .byte   W96
@ 209   ----------------------------------------
 .byte   W96
@ 210   ----------------------------------------
 .byte   W96
@ 211   ----------------------------------------
 .byte   W96
@ 212   ----------------------------------------
 .byte   W96
@ 213   ----------------------------------------
 .byte   W96
@ 214   ----------------------------------------
 .byte   W96
@ 215   ----------------------------------------
 .byte   W96
@ 216   ----------------------------------------
 .byte   W96
@ 217   ----------------------------------------
 .byte   W96
@ 218   ----------------------------------------
 .byte   W96
@ 219   ----------------------------------------
 .byte   W96
@ 220   ----------------------------------------
 .byte   W96
@ 221   ----------------------------------------
 .byte   W96
@ 222   ----------------------------------------
 .byte   W96
@ 223   ----------------------------------------
 .byte   W96
@ 224   ----------------------------------------
 .byte   W96
@ 225   ----------------------------------------
 .byte   PATT
  .word Label_4_014C18E1
@ 226   ----------------------------------------
 .byte   PATT
  .word Label_4_014C18F6
@ 227   ----------------------------------------
 .byte   PATT
  .word Label_4_014C1909
@ 228   ----------------------------------------
 .byte   PATT
  .word Label_4_014C1909
@ 229   ----------------------------------------
 .byte   PATT
  .word Label_4_014C1921
@ 230   ----------------------------------------
 .byte   PATT
  .word Label_4_014C1921
@ 231   ----------------------------------------
 .byte   PATT
  .word Label_4_014C1939
@ 232   ----------------------------------------
 .byte   PATT
  .word Label_4_014C194C
@ 233   ----------------------------------------
 .byte   PATT
  .word Label_4_014C195F
@ 234   ----------------------------------------
 .byte   PATT
  .word Label_4_014C195F
@ 235   ----------------------------------------
 .byte   PATT
  .word Label_4_014C1977
@ 236   ----------------------------------------
 .byte   PATT
  .word Label_4_014C1977
@ 237   ----------------------------------------
 .byte   W96
@ 238   ----------------------------------------
 .byte   W96
@ 239   ----------------------------------------
 .byte   W96
@ 240   ----------------------------------------
 .byte   W96
@ 241   ----------------------------------------
 .byte   PATT
  .word Label_4_014C18F6
@ 242   ----------------------------------------
 .byte   PATT
  .word Label_4_014C18F6
@ 243   ----------------------------------------
 .byte   PATT
  .word Label_4_014C1909
@ 244   ----------------------------------------
 .byte   PATT
  .word Label_4_014C1909
@ 245   ----------------------------------------
 .byte   PATT
  .word Label_4_014C1921
@ 246   ----------------------------------------
 .byte   PATT
  .word Label_4_014C1921
@ 247   ----------------------------------------
 .byte   PATT
  .word Label_4_014C1939
@ 248   ----------------------------------------
 .byte   PATT
  .word Label_4_014C194C
@ 249   ----------------------------------------
 .byte   PATT
  .word Label_4_014C195F
@ 250   ----------------------------------------
 .byte   PATT
  .word Label_4_014C195F
@ 251   ----------------------------------------
 .byte   PATT
  .word Label_4_014C1977
@ 252   ----------------------------------------
 .byte   PATT
  .word Label_4_014C1977
@ 253   ----------------------------------------
 .byte   W96
@ 254   ----------------------------------------
 .byte   W96
@ 255   ----------------------------------------
 .byte   W96
@ 256   ----------------------------------------
 .byte   W96
@ 257   ----------------------------------------
 .byte   GOTO
  .word Label_4_014C18B9
@ 258   ----------------------------------------
 .byte   W96
@ 259   ----------------------------------------
 .byte   W96
@ 260   ----------------------------------------
 .byte   W96
@ 261   ----------------------------------------
 .byte   W96
@ 262   ----------------------------------------
 .byte   W96
@ 263   ----------------------------------------
 .byte   W96
@ 264   ----------------------------------------
 .byte   W96
@ 265   ----------------------------------------
 .byte   W96
@ 266   ----------------------------------------
 .byte   W92
 .byte   W03
 .byte   FINE

@**************** Track 6 (Midi-Chn.5) ****************@

song09_006:
@ 000   ----------------------------------------
 .byte   KEYSH , song09_key+0
 .byte   VOICE , 127
 .byte   VOL , 40*song09_mvl/mxv
 .byte   W96
@ 001   ----------------------------------------
 .byte   W96
@ 002   ----------------------------------------
 .byte   W96
@ 003   ----------------------------------------
 .byte   W96
@ 004   ----------------------------------------
 .byte   W96
@ 005   ----------------------------------------
 .byte   W96
@ 006   ----------------------------------------
 .byte   W96
@ 007   ----------------------------------------
 .byte   W96
@ 008   ----------------------------------------
 .byte   W96
@ 009   ----------------------------------------
 .byte   W96
@ 010   ----------------------------------------
 .byte   W96
@ 011   ----------------------------------------
 .byte   W96
@ 012   ----------------------------------------
 .byte   W96
@ 013   ----------------------------------------
 .byte   W96
@ 014   ----------------------------------------
 .byte   W96
@ 015   ----------------------------------------
 .byte   W96
@ 016   ----------------------------------------
 .byte   W96
@ 017   ----------------------------------------
Label_5_014C1B63:
 .byte   N11 ,Cn1 ,v092
 .byte   N11 ,Cs2
 .byte   N11 ,Gn2
 .byte   W96
@ 018   ----------------------------------------
 .byte   W96
@ 019   ----------------------------------------
 .byte   W96
@ 020   ----------------------------------------
 .byte   W96
@ 021   ----------------------------------------
 .byte   Cn1
 .byte   N11 ,Gn2
 .byte   N11 ,An2
 .byte   W12
 .byte   Cn1
 .byte   W84
@ 022   ----------------------------------------
 .byte   W96
@ 023   ----------------------------------------
 .byte   W96
@ 024   ----------------------------------------
 .byte   Dn1
 .byte   W12
 .byte   Cn1
 .byte   W12
 .byte   N11
 .byte   W12
 .byte   Dn1
 .byte   W12
 .byte   Cn1
 .byte   W12
 .byte   N11
 .byte   W12
 .byte   N11
 .byte   N11 ,Dn1
 .byte   W12
 .byte   Cn1
 .byte   N11 ,Dn1
 .byte   W12
@ 025   ----------------------------------------
Label_5_014C1B8C:
 .byte   N11 ,Cn1 ,v092
 .byte   N11 ,Cs2
 .byte   N11 ,Gn2
 .byte   W24
 .byte   Dn1
 .byte   N11 ,As1 ,v076
 .byte   W24
 .byte   Cn1 ,v092
 .byte   N11 ,As1
 .byte   W24
 .byte   Dn1
 .byte   N11 ,As1 ,v076
 .byte   W12
 .byte   Cn1 ,v092
 .byte   W12
 .byte   PEND 
@ 026   ----------------------------------------
Label_5_014C1BA7:
 .byte   N11 ,As1 ,v092
 .byte   W12
 .byte   Cn1
 .byte   W12
 .byte   Dn1
 .byte   N11 ,As1 ,v076
 .byte   W12
 .byte   Cn1 ,v092
 .byte   W12
 .byte   N11
 .byte   N11 ,As1
 .byte   W12
 .byte   Cn1
 .byte   W12
 .byte   Dn1
 .byte   N11 ,As1 ,v076
 .byte   W24
 .byte   PEND 
@ 027   ----------------------------------------
Label_5_014C1BC1:
 .byte   N11 ,Cn1 ,v092
 .byte   N11 ,As1
 .byte   W24
 .byte   Dn1
 .byte   N11 ,As1 ,v076
 .byte   W24
 .byte   Cn1 ,v092
 .byte   N11 ,As1
 .byte   W24
 .byte   Dn1
 .byte   N11 ,As1 ,v076
 .byte   W24
 .byte   PEND 
@ 028   ----------------------------------------
Label_5_014C1BD7:
 .byte   N11 ,Cn1 ,v092
 .byte   N11 ,As1
 .byte   W24
 .byte   Dn1
 .byte   N11 ,As1 ,v076
 .byte   W12
 .byte   Cn1 ,v092
 .byte   W12
 .byte   As1
 .byte   W12
 .byte   Cn1
 .byte   W12
 .byte   Dn1
 .byte   N11 ,As1 ,v076
 .byte   W12
 .byte   Cn1 ,v092
 .byte   W12
 .byte   PEND 
@ 029   ----------------------------------------
Label_5_014C1BF2:
 .byte   N11 ,Cn1 ,v092
 .byte   N11 ,As1
 .byte   W24
 .byte   Dn1
 .byte   N11 ,As1 ,v076
 .byte   W24
 .byte   Cn1 ,v092
 .byte   N11 ,As1
 .byte   W24
 .byte   Dn1
 .byte   N11 ,As1 ,v076
 .byte   W12
 .byte   Cn1 ,v092
 .byte   W12
 .byte   PEND 
@ 030   ----------------------------------------
 .byte   PATT
  .word Label_5_014C1BA7
@ 031   ----------------------------------------
 .byte   PATT
  .word Label_5_014C1BF2
@ 032   ----------------------------------------
Label_5_014C1C15:
 .byte   N11 ,Cn1 ,v092
 .byte   N11 ,An2
 .byte   W12
 .byte   Cn1
 .byte   W12
 .byte   Dn1
 .byte   N11 ,As1 ,v076
 .byte   W12
 .byte   Cn1 ,v092
 .byte   W12
 .byte   Dn1
 .byte   N11 ,Cs2
 .byte   W12
 .byte   Cn1
 .byte   W12
 .byte   N11
 .byte   N11 ,Dn1
 .byte   N11 ,As1 ,v076
 .byte   W12
 .byte   Cn1 ,v092
 .byte   N11 ,Dn1
 .byte   W12
 .byte   PEND 
@ 033   ----------------------------------------
 .byte   PATT
  .word Label_5_014C1B8C
@ 034   ----------------------------------------
 .byte   PATT
  .word Label_5_014C1BA7
@ 035   ----------------------------------------
 .byte   PATT
  .word Label_5_014C1BC1
@ 036   ----------------------------------------
 .byte   PATT
  .word Label_5_014C1BD7
@ 037   ----------------------------------------
 .byte   PATT
  .word Label_5_014C1BF2
@ 038   ----------------------------------------
 .byte   PATT
  .word Label_5_014C1BA7
@ 039   ----------------------------------------
 .byte   PATT
  .word Label_5_014C1BF2
@ 040   ----------------------------------------
Label_5_014C1C5B:
 .byte   N11 ,Dn1 ,v092
 .byte   N11 ,An2
 .byte   W12
 .byte   Cn1
 .byte   W12
 .byte   Dn1
 .byte   N11 ,As1 ,v076
 .byte   W12
 .byte   Cn1 ,v092
 .byte   W12
 .byte   Dn1
 .byte   N11 ,Cs2
 .byte   W12
 .byte   Cn1
 .byte   W12
 .byte   N11
 .byte   N11 ,Dn1
 .byte   N11 ,As1 ,v076
 .byte   W12
 .byte   Cn1 ,v092
 .byte   N11 ,Dn1
 .byte   W12
 .byte   PEND 
@ 041   ----------------------------------------
Label_5_014C1C7E:
 .byte   N11 ,Cn1 ,v092
 .byte   N11 ,Gn2
 .byte   N11 ,An2
 .byte   W24
 .byte   Dn1
 .byte   N11 ,As1 ,v076
 .byte   W24
 .byte   Cn1 ,v092
 .byte   N11 ,As1
 .byte   W24
 .byte   Dn1
 .byte   N11 ,As1 ,v076
 .byte   W12
 .byte   Cn1 ,v092
 .byte   W12
 .byte   PEND 
@ 042   ----------------------------------------
 .byte   PATT
  .word Label_5_014C1BA7
@ 043   ----------------------------------------
 .byte   PATT
  .word Label_5_014C1BC1
@ 044   ----------------------------------------
 .byte   PATT
  .word Label_5_014C1BD7
@ 045   ----------------------------------------
 .byte   PATT
  .word Label_5_014C1B8C
@ 046   ----------------------------------------
Label_5_014C1CAD:
 .byte   N11 ,Cn1 ,v092
 .byte   N11 ,As1
 .byte   W12
 .byte   Cn1
 .byte   W12
 .byte   Dn1
 .byte   N11 ,As1 ,v076
 .byte   W12
 .byte   Cn1 ,v092
 .byte   W12
 .byte   As1
 .byte   W12
 .byte   Cn1
 .byte   W12
 .byte   Dn1
 .byte   N11 ,As1 ,v076
 .byte   W12
 .byte   Cn1 ,v092
 .byte   W12
 .byte   PEND 
@ 047   ----------------------------------------
Label_5_014C1CCA:
 .byte   N11 ,Cn1 ,v092
 .byte   N11 ,An2
 .byte   W24
 .byte   Dn1
 .byte   N11 ,Fs1 ,v076
 .byte   W12
 .byte   Cn1 ,v092
 .byte   W12
 .byte   N11
 .byte   N11 ,As1
 .byte   W24
 .byte   Dn1
 .byte   N11 ,As1 ,v076
 .byte   W12
 .byte   Cn1 ,v092
 .byte   W12
 .byte   PEND 
@ 048   ----------------------------------------
Label_5_014C1CE5:
 .byte   N11 ,Cn1 ,v092
 .byte   N11 ,Cs2
 .byte   W24
 .byte   Dn1
 .byte   N11 ,As1 ,v076
 .byte   W12
 .byte   Cn1 ,v092
 .byte   W12
 .byte   N11
 .byte   N11 ,As1
 .byte   W24
 .byte   Dn1
 .byte   N11 ,As1 ,v076
 .byte   W12
 .byte   Cn1 ,v092
 .byte   W12
 .byte   PEND 
@ 049   ----------------------------------------
 .byte   PATT
  .word Label_5_014C1C7E
@ 050   ----------------------------------------
 .byte   PATT
  .word Label_5_014C1BA7
@ 051   ----------------------------------------
 .byte   PATT
  .word Label_5_014C1BC1
@ 052   ----------------------------------------
 .byte   PATT
  .word Label_5_014C1BD7
@ 053   ----------------------------------------
Label_5_014C1D14:
 .byte   N11 ,Cn1 ,v092
 .byte   N11 ,Cs2
 .byte   N11 ,Gn2
 .byte   W24
 .byte   Dn1
 .byte   N11 ,As1 ,v076
 .byte   W24
 .byte   Cn1 ,v092
 .byte   N11 ,As1
 .byte   W12
 .byte   Cn1
 .byte   W12
 .byte   Dn1
 .byte   N11 ,As1 ,v076
 .byte   W12
 .byte   Cn1 ,v092
 .byte   W12
 .byte   PEND 
@ 054   ----------------------------------------
Label_5_014C1D31:
 .byte   N11 ,As1 ,v092
 .byte   W12
 .byte   Cn1
 .byte   W12
 .byte   Dn1
 .byte   N11 ,As1 ,v076
 .byte   W12
 .byte   Cn1 ,v092
 .byte   W12
 .byte   N11
 .byte   N11 ,As1
 .byte   W12
 .byte   Cn1
 .byte   W12
 .byte   Dn1
 .byte   N11 ,As1 ,v076
 .byte   W12
 .byte   Cn1 ,v092
 .byte   W12
 .byte   PEND 
@ 055   ----------------------------------------
 .byte   PATT
  .word Label_5_014C1CCA
@ 056   ----------------------------------------
Label_5_014C1D53:
 .byte   N11 ,Dn1 ,v092
 .byte   N11 ,Cs2
 .byte   W12
 .byte   Cn1
 .byte   W12
 .byte   Dn1
 .byte   N11 ,As1 ,v076
 .byte   W12
 .byte   Cn1 ,v092
 .byte   W12
 .byte   Dn1
 .byte   N11 ,As1
 .byte   W12
 .byte   Dn1
 .byte   W12
 .byte   Cn1
 .byte   N11 ,Dn1
 .byte   N11 ,As1 ,v076
 .byte   W12
 .byte   Cn1 ,v092
 .byte   N11 ,Dn1
 .byte   W12
 .byte   PEND 
@ 057   ----------------------------------------
Label_5_014C1D76:
 .byte   N11 ,Cn1 ,v092
 .byte   N11 ,Gn2
 .byte   N11 ,An2
 .byte   W24
 .byte   Dn1
 .byte   N11 ,As1 ,v076
 .byte   W12
 .byte   Cn1 ,v092
 .byte   W12
 .byte   N11
 .byte   N11 ,As1
 .byte   W24
 .byte   Dn1
 .byte   N11 ,As1 ,v076
 .byte   W12
 .byte   Cn1 ,v092
 .byte   W12
 .byte   PEND 
@ 058   ----------------------------------------
 .byte   PATT
  .word Label_5_014C1BA7
@ 059   ----------------------------------------
 .byte   PATT
  .word Label_5_014C1BF2
@ 060   ----------------------------------------
Label_5_014C1D9D:
 .byte   N11 ,Cn1 ,v092
 .byte   N11 ,As1
 .byte   W24
 .byte   Dn1
 .byte   N11 ,As1 ,v076
 .byte   W12
 .byte   Cn1 ,v092
 .byte   W12
 .byte   N11
 .byte   N11 ,As1
 .byte   W12
 .byte   Cn1
 .byte   W12
 .byte   Dn1
 .byte   N11 ,As1 ,v076
 .byte   W12
 .byte   Cn1 ,v092
 .byte   W12
 .byte   PEND 
@ 061   ----------------------------------------
Label_5_014C1DBA:
 .byte   N11 ,Cn1 ,v092
 .byte   N11 ,As1
 .byte   W24
 .byte   Dn1
 .byte   N11 ,As1 ,v076
 .byte   W12
 .byte   Cn1 ,v092
 .byte   W12
 .byte   N11
 .byte   N11 ,As1
 .byte   W24
 .byte   Dn1
 .byte   N11 ,As1 ,v076
 .byte   W12
 .byte   Cn1 ,v092
 .byte   W12
 .byte   PEND 
@ 062   ----------------------------------------
 .byte   PATT
  .word Label_5_014C1BA7
@ 063   ----------------------------------------
 .byte   PATT
  .word Label_5_014C1BF2
@ 064   ----------------------------------------
 .byte   PATT
  .word Label_5_014C1D9D
@ 065   ----------------------------------------
 .byte   PATT
  .word Label_5_014C1DBA
@ 066   ----------------------------------------
 .byte   PATT
  .word Label_5_014C1BA7
@ 067   ----------------------------------------
 .byte   PATT
  .word Label_5_014C1BF2
@ 068   ----------------------------------------
 .byte   PATT
  .word Label_5_014C1D9D
@ 069   ----------------------------------------
Label_5_014C1DF8:
 .byte   N11 ,Cn1 ,v092
 .byte   N11 ,Cs2
 .byte   W12
 .byte   Cn1
 .byte   W12
 .byte   Dn1
 .byte   N11 ,As1 ,v076
 .byte   W12
 .byte   Cn1 ,v092
 .byte   W12
 .byte   N11
 .byte   N11 ,As1
 .byte   W12
 .byte   Cn1
 .byte   W12
 .byte   Dn1
 .byte   N11 ,As1 ,v076
 .byte   W12
 .byte   Cn1 ,v092
 .byte   W12
 .byte   PEND 
@ 070   ----------------------------------------
Label_5_014C1E17:
 .byte   N11 ,Cn1 ,v092
 .byte   N11 ,An2
 .byte   W12
 .byte   Cn1
 .byte   W12
 .byte   Dn1
 .byte   N11 ,As1 ,v076
 .byte   W12
 .byte   Cn1 ,v092
 .byte   W12
 .byte   N11
 .byte   N11 ,As1
 .byte   W12
 .byte   Cn1
 .byte   W12
 .byte   Dn1
 .byte   N11 ,As1 ,v076
 .byte   W12
 .byte   Cn1 ,v092
 .byte   W12
 .byte   PEND 
@ 071   ----------------------------------------
 .byte   PATT
  .word Label_5_014C1DF8
@ 072   ----------------------------------------
Label_5_014C1E3B:
 .byte   N11 ,Dn1 ,v092
 .byte   N11 ,An2
 .byte   W12
 .byte   Cn1
 .byte   W12
 .byte   Dn1
 .byte   W12
 .byte   Cn1
 .byte   W12
 .byte   Dn1
 .byte   W12
 .byte   N11
 .byte   W12
 .byte   Cn1
 .byte   N11 ,Dn1
 .byte   W12
 .byte   Cn1
 .byte   N11 ,Dn1
 .byte   W12
 .byte   PEND 
@ 073   ----------------------------------------
 .byte   PATT
  .word Label_5_014C1D76
@ 074   ----------------------------------------
 .byte   PATT
  .word Label_5_014C1BA7
@ 075   ----------------------------------------
 .byte   PATT
  .word Label_5_014C1BF2
@ 076   ----------------------------------------
 .byte   PATT
  .word Label_5_014C1D9D
@ 077   ----------------------------------------
 .byte   PATT
  .word Label_5_014C1DBA
@ 078   ----------------------------------------
 .byte   PATT
  .word Label_5_014C1BA7
@ 079   ----------------------------------------
 .byte   PATT
  .word Label_5_014C1BF2
@ 080   ----------------------------------------
 .byte   PATT
  .word Label_5_014C1D9D
@ 081   ----------------------------------------
 .byte   PATT
  .word Label_5_014C1DBA
@ 082   ----------------------------------------
 .byte   PATT
  .word Label_5_014C1BA7
@ 083   ----------------------------------------
 .byte   PATT
  .word Label_5_014C1BF2
@ 084   ----------------------------------------
 .byte   PATT
  .word Label_5_014C1D9D
@ 085   ----------------------------------------
 .byte   PATT
  .word Label_5_014C1DF8
@ 086   ----------------------------------------
 .byte   PATT
  .word Label_5_014C1E17
@ 087   ----------------------------------------
 .byte   PATT
  .word Label_5_014C1DF8
@ 088   ----------------------------------------
 .byte   PATT
  .word Label_5_014C1E3B
@ 089   ----------------------------------------
 .byte   N11 ,Cs2 ,v092
 .byte   W96
@ 090   ----------------------------------------
 .byte   W96
@ 091   ----------------------------------------
 .byte   W96
@ 092   ----------------------------------------
 .byte   W96
@ 093   ----------------------------------------
 .byte   PATT
  .word Label_5_014C1E17
@ 094   ----------------------------------------
Label_5_014C1EB0:
 .byte   N11 ,Cn1 ,v092
 .byte   N11 ,As1
 .byte   W12
 .byte   Cn1
 .byte   W12
 .byte   Dn1
 .byte   N11 ,As1 ,v076
 .byte   W12
 .byte   Cn1 ,v092
 .byte   W12
 .byte   N11
 .byte   N11 ,As1
 .byte   W12
 .byte   Cn1
 .byte   W12
 .byte   Dn1
 .byte   N11 ,As1 ,v076
 .byte   W12
 .byte   Cn1 ,v092
 .byte   W12
 .byte   PEND 
@ 095   ----------------------------------------
 .byte   PATT
  .word Label_5_014C1EB0
@ 096   ----------------------------------------
 .byte   PATT
  .word Label_5_014C1EB0
@ 097   ----------------------------------------
 .byte   PATT
  .word Label_5_014C1DF8
@ 098   ----------------------------------------
 .byte   PATT
  .word Label_5_014C1EB0
@ 099   ----------------------------------------
Label_5_014C1EE3:
 .byte   N11 ,Cn1 ,v092
 .byte   N11 ,As1
 .byte   W12
 .byte   Cn1
 .byte   W12
 .byte   Dn1
 .byte   N11 ,As1 ,v076
 .byte   W12
 .byte   Cn1 ,v092
 .byte   W12
 .byte   N11
 .byte   N11 ,As1
 .byte   W12
 .byte   Cn1
 .byte   W12
 .byte   Dn1
 .byte   N11 ,As1 ,v076
 .byte   W24
 .byte   PEND 
@ 100   ----------------------------------------
Label_5_014C1EFF:
 .byte   N11 ,Cn1 ,v092
 .byte   N11 ,As1
 .byte   W12
 .byte   Cn1
 .byte   W12
 .byte   Dn1
 .byte   N11 ,An2
 .byte   W24
 .byte   Cn1
 .byte   N11 ,As1
 .byte   W12
 .byte   Cn1
 .byte   W12
 .byte   Dn1
 .byte   N11 ,An2 ,v076
 .byte   W12
 .byte   Cn1 ,v092
 .byte   W12
 .byte   PEND 
@ 101   ----------------------------------------
 .byte   PATT
  .word Label_5_014C1DF8
@ 102   ----------------------------------------
 .byte   PATT
  .word Label_5_014C1EB0
@ 103   ----------------------------------------
Label_5_014C1F24:
 .byte   N11 ,Cn1 ,v092
 .byte   N11 ,An2
 .byte   W12
 .byte   Cn1
 .byte   W12
 .byte   Dn1
 .byte   N11 ,As1 ,v076
 .byte   W12
 .byte   Cn1 ,v092
 .byte   W12
 .byte   N11
 .byte   N11 ,An2
 .byte   W12
 .byte   Cn1
 .byte   W12
 .byte   Dn1
 .byte   N11 ,As1 ,v076
 .byte   W12
 .byte   Cn1 ,v092
 .byte   W12
 .byte   PEND 
@ 104   ----------------------------------------
Label_5_014C1F43:
 .byte   N11 ,Cn1 ,v092
 .byte   N11 ,An2
 .byte   W12
 .byte   Cn1
 .byte   W12
 .byte   Dn1
 .byte   N11 ,As1 ,v076
 .byte   W12
 .byte   Cn1 ,v092
 .byte   W12
 .byte   Dn1
 .byte   N11 ,As1
 .byte   W12
 .byte   Dn1
 .byte   W12
 .byte   Cn1
 .byte   N11 ,As1 ,v076
 .byte   W12
 .byte   Dn1 ,v092
 .byte   W12
 .byte   PEND 
@ 105   ----------------------------------------
 .byte   PATT
  .word Label_5_014C1DF8
@ 106   ----------------------------------------
 .byte   PATT
  .word Label_5_014C1EB0
@ 107   ----------------------------------------
 .byte   PATT
  .word Label_5_014C1EB0
@ 108   ----------------------------------------
 .byte   PATT
  .word Label_5_014C1EB0
@ 109   ----------------------------------------
 .byte   PATT
  .word Label_5_014C1B8C
@ 110   ----------------------------------------
 .byte   PATT
  .word Label_5_014C1BA7
@ 111   ----------------------------------------
 .byte   PATT
  .word Label_5_014C1BC1
@ 112   ----------------------------------------
 .byte   PATT
  .word Label_5_014C1BD7
@ 113   ----------------------------------------
 .byte   PATT
  .word Label_5_014C1BF2
@ 114   ----------------------------------------
 .byte   PATT
  .word Label_5_014C1BA7
@ 115   ----------------------------------------
 .byte   PATT
  .word Label_5_014C1BF2
@ 116   ----------------------------------------
 .byte   PATT
  .word Label_5_014C1C15
@ 117   ----------------------------------------
 .byte   PATT
  .word Label_5_014C1B8C
@ 118   ----------------------------------------
 .byte   PATT
  .word Label_5_014C1BA7
@ 119   ----------------------------------------
 .byte   PATT
  .word Label_5_014C1BC1
@ 120   ----------------------------------------
 .byte   PATT
  .word Label_5_014C1BD7
@ 121   ----------------------------------------
 .byte   PATT
  .word Label_5_014C1BF2
@ 122   ----------------------------------------
 .byte   PATT
  .word Label_5_014C1BA7
@ 123   ----------------------------------------
 .byte   PATT
  .word Label_5_014C1BF2
@ 124   ----------------------------------------
 .byte   PATT
  .word Label_5_014C1C5B
@ 125   ----------------------------------------
 .byte   PATT
  .word Label_5_014C1C7E
@ 126   ----------------------------------------
 .byte   PATT
  .word Label_5_014C1BA7
@ 127   ----------------------------------------
 .byte   PATT
  .word Label_5_014C1BC1
@ 128   ----------------------------------------
 .byte   PATT
  .word Label_5_014C1BD7
@ 129   ----------------------------------------
 .byte   PATT
  .word Label_5_014C1B8C
@ 130   ----------------------------------------
 .byte   PATT
  .word Label_5_014C1CAD
@ 131   ----------------------------------------
 .byte   PATT
  .word Label_5_014C1CCA
@ 132   ----------------------------------------
 .byte   PATT
  .word Label_5_014C1CE5
@ 133   ----------------------------------------
 .byte   PATT
  .word Label_5_014C1C7E
@ 134   ----------------------------------------
 .byte   PATT
  .word Label_5_014C1BA7
@ 135   ----------------------------------------
 .byte   PATT
  .word Label_5_014C1BC1
@ 136   ----------------------------------------
 .byte   PATT
  .word Label_5_014C1BD7
@ 137   ----------------------------------------
 .byte   PATT
  .word Label_5_014C1D14
@ 138   ----------------------------------------
 .byte   PATT
  .word Label_5_014C1D31
@ 139   ----------------------------------------
 .byte   PATT
  .word Label_5_014C1CCA
@ 140   ----------------------------------------
 .byte   PATT
  .word Label_5_014C1D53
@ 141   ----------------------------------------
 .byte   PATT
  .word Label_5_014C1D76
@ 142   ----------------------------------------
 .byte   PATT
  .word Label_5_014C1BA7
@ 143   ----------------------------------------
 .byte   PATT
  .word Label_5_014C1BF2
@ 144   ----------------------------------------
 .byte   PATT
  .word Label_5_014C1D9D
@ 145   ----------------------------------------
 .byte   PATT
  .word Label_5_014C1DBA
@ 146   ----------------------------------------
 .byte   PATT
  .word Label_5_014C1BA7
@ 147   ----------------------------------------
 .byte   PATT
  .word Label_5_014C1BF2
@ 148   ----------------------------------------
 .byte   PATT
  .word Label_5_014C1D9D
@ 149   ----------------------------------------
 .byte   PATT
  .word Label_5_014C1DBA
@ 150   ----------------------------------------
 .byte   PATT
  .word Label_5_014C1BA7
@ 151   ----------------------------------------
 .byte   PATT
  .word Label_5_014C1BF2
@ 152   ----------------------------------------
 .byte   PATT
  .word Label_5_014C1D9D
@ 153   ----------------------------------------
 .byte   PATT
  .word Label_5_014C1DF8
@ 154   ----------------------------------------
 .byte   PATT
  .word Label_5_014C1E17
@ 155   ----------------------------------------
 .byte   PATT
  .word Label_5_014C1DF8
@ 156   ----------------------------------------
 .byte   PATT
  .word Label_5_014C1E3B
@ 157   ----------------------------------------
 .byte   PATT
  .word Label_5_014C1D76
@ 158   ----------------------------------------
 .byte   PATT
  .word Label_5_014C1BA7
@ 159   ----------------------------------------
 .byte   PATT
  .word Label_5_014C1BF2
@ 160   ----------------------------------------
 .byte   PATT
  .word Label_5_014C1D9D
@ 161   ----------------------------------------
 .byte   PATT
  .word Label_5_014C1DBA
@ 162   ----------------------------------------
 .byte   PATT
  .word Label_5_014C1BA7
@ 163   ----------------------------------------
 .byte   PATT
  .word Label_5_014C1BF2
@ 164   ----------------------------------------
 .byte   PATT
  .word Label_5_014C1D9D
@ 165   ----------------------------------------
 .byte   PATT
  .word Label_5_014C1DBA
@ 166   ----------------------------------------
 .byte   PATT
  .word Label_5_014C1BA7
@ 167   ----------------------------------------
 .byte   PATT
  .word Label_5_014C1BF2
@ 168   ----------------------------------------
 .byte   PATT
  .word Label_5_014C1D9D
@ 169   ----------------------------------------
 .byte   PATT
  .word Label_5_014C1DF8
@ 170   ----------------------------------------
 .byte   PATT
  .word Label_5_014C1E17
@ 171   ----------------------------------------
 .byte   PATT
  .word Label_5_014C1DF8
@ 172   ----------------------------------------
 .byte   PATT
  .word Label_5_014C1E3B
@ 173   ----------------------------------------
 .byte   N11 ,Cs2 ,v092
 .byte   W96
@ 174   ----------------------------------------
 .byte   W96
@ 175   ----------------------------------------
 .byte   W96
@ 176   ----------------------------------------
 .byte   W96
@ 177   ----------------------------------------
 .byte   PATT
  .word Label_5_014C1E17
@ 178   ----------------------------------------
 .byte   PATT
  .word Label_5_014C1EB0
@ 179   ----------------------------------------
 .byte   PATT
  .word Label_5_014C1EB0
@ 180   ----------------------------------------
 .byte   PATT
  .word Label_5_014C1EB0
@ 181   ----------------------------------------
 .byte   PATT
  .word Label_5_014C1DF8
@ 182   ----------------------------------------
 .byte   PATT
  .word Label_5_014C1EB0
@ 183   ----------------------------------------
 .byte   PATT
  .word Label_5_014C1EE3
@ 184   ----------------------------------------
 .byte   PATT
  .word Label_5_014C1EFF
@ 185   ----------------------------------------
 .byte   PATT
  .word Label_5_014C1DF8
@ 186   ----------------------------------------
 .byte   PATT
  .word Label_5_014C1EB0
@ 187   ----------------------------------------
 .byte   PATT
  .word Label_5_014C1F24
@ 188   ----------------------------------------
 .byte   PATT
  .word Label_5_014C1F43
@ 189   ----------------------------------------
 .byte   PATT
  .word Label_5_014C1DF8
@ 190   ----------------------------------------
 .byte   PATT
  .word Label_5_014C1EB0
@ 191   ----------------------------------------
 .byte   PATT
  .word Label_5_014C1EB0
@ 192   ----------------------------------------
 .byte   PATT
  .word Label_5_014C1EB0
@ 193   ----------------------------------------
 .byte   PATT
  .word Label_5_014C1B8C
@ 194   ----------------------------------------
 .byte   PATT
  .word Label_5_014C1BA7
@ 195   ----------------------------------------
 .byte   PATT
  .word Label_5_014C1BC1
@ 196   ----------------------------------------
 .byte   PATT
  .word Label_5_014C1BD7
@ 197   ----------------------------------------
 .byte   PATT
  .word Label_5_014C1BF2
@ 198   ----------------------------------------
 .byte   PATT
  .word Label_5_014C1BA7
@ 199   ----------------------------------------
 .byte   PATT
  .word Label_5_014C1BF2
@ 200   ----------------------------------------
 .byte   PATT
  .word Label_5_014C1C15
@ 201   ----------------------------------------
 .byte   PATT
  .word Label_5_014C1B8C
@ 202   ----------------------------------------
 .byte   PATT
  .word Label_5_014C1BA7
@ 203   ----------------------------------------
 .byte   PATT
  .word Label_5_014C1BC1
@ 204   ----------------------------------------
 .byte   PATT
  .word Label_5_014C1BD7
@ 205   ----------------------------------------
 .byte   PATT
  .word Label_5_014C1BF2
@ 206   ----------------------------------------
 .byte   PATT
  .word Label_5_014C1BA7
@ 207   ----------------------------------------
 .byte   PATT
  .word Label_5_014C1BF2
@ 208   ----------------------------------------
 .byte   PATT
  .word Label_5_014C1C5B
@ 209   ----------------------------------------
 .byte   PATT
  .word Label_5_014C1C7E
@ 210   ----------------------------------------
 .byte   PATT
  .word Label_5_014C1BA7
@ 211   ----------------------------------------
 .byte   PATT
  .word Label_5_014C1BC1
@ 212   ----------------------------------------
 .byte   PATT
  .word Label_5_014C1BD7
@ 213   ----------------------------------------
 .byte   PATT
  .word Label_5_014C1B8C
@ 214   ----------------------------------------
 .byte   PATT
  .word Label_5_014C1CAD
@ 215   ----------------------------------------
 .byte   PATT
  .word Label_5_014C1CCA
@ 216   ----------------------------------------
 .byte   PATT
  .word Label_5_014C1CE5
@ 217   ----------------------------------------
 .byte   PATT
  .word Label_5_014C1C7E
@ 218   ----------------------------------------
 .byte   PATT
  .word Label_5_014C1BA7
@ 219   ----------------------------------------
 .byte   PATT
  .word Label_5_014C1BC1
@ 220   ----------------------------------------
 .byte   PATT
  .word Label_5_014C1BD7
@ 221   ----------------------------------------
 .byte   PATT
  .word Label_5_014C1D14
@ 222   ----------------------------------------
 .byte   PATT
  .word Label_5_014C1D31
@ 223   ----------------------------------------
 .byte   PATT
  .word Label_5_014C1CCA
@ 224   ----------------------------------------
 .byte   PATT
  .word Label_5_014C1D53
@ 225   ----------------------------------------
 .byte   PATT
  .word Label_5_014C1D76
@ 226   ----------------------------------------
 .byte   PATT
  .word Label_5_014C1BA7
@ 227   ----------------------------------------
 .byte   PATT
  .word Label_5_014C1BF2
@ 228   ----------------------------------------
 .byte   PATT
  .word Label_5_014C1D9D
@ 229   ----------------------------------------
 .byte   PATT
  .word Label_5_014C1DBA
@ 230   ----------------------------------------
 .byte   PATT
  .word Label_5_014C1BA7
@ 231   ----------------------------------------
 .byte   PATT
  .word Label_5_014C1BF2
@ 232   ----------------------------------------
 .byte   PATT
  .word Label_5_014C1D9D
@ 233   ----------------------------------------
 .byte   PATT
  .word Label_5_014C1DBA
@ 234   ----------------------------------------
 .byte   PATT
  .word Label_5_014C1BA7
@ 235   ----------------------------------------
 .byte   PATT
  .word Label_5_014C1BF2
@ 236   ----------------------------------------
 .byte   PATT
  .word Label_5_014C1D9D
@ 237   ----------------------------------------
 .byte   PATT
  .word Label_5_014C1DF8
@ 238   ----------------------------------------
 .byte   PATT
  .word Label_5_014C1E17
@ 239   ----------------------------------------
 .byte   PATT
  .word Label_5_014C1DF8
@ 240   ----------------------------------------
 .byte   PATT
  .word Label_5_014C1E3B
@ 241   ----------------------------------------
 .byte   PATT
  .word Label_5_014C1D76
@ 242   ----------------------------------------
 .byte   PATT
  .word Label_5_014C1BA7
@ 243   ----------------------------------------
 .byte   PATT
  .word Label_5_014C1BF2
@ 244   ----------------------------------------
 .byte   PATT
  .word Label_5_014C1D9D
@ 245   ----------------------------------------
 .byte   PATT
  .word Label_5_014C1DBA
@ 246   ----------------------------------------
 .byte   PATT
  .word Label_5_014C1BA7
@ 247   ----------------------------------------
 .byte   PATT
  .word Label_5_014C1BF2
@ 248   ----------------------------------------
 .byte   PATT
  .word Label_5_014C1D9D
@ 249   ----------------------------------------
 .byte   PATT
  .word Label_5_014C1DBA
@ 250   ----------------------------------------
 .byte   PATT
  .word Label_5_014C1BA7
@ 251   ----------------------------------------
 .byte   PATT
  .word Label_5_014C1BF2
@ 252   ----------------------------------------
 .byte   PATT
  .word Label_5_014C1D9D
@ 253   ----------------------------------------
 .byte   PATT
  .word Label_5_014C1DF8
@ 254   ----------------------------------------
 .byte   PATT
  .word Label_5_014C1E17
@ 255   ----------------------------------------
 .byte   PATT
  .word Label_5_014C1DF8
@ 256   ----------------------------------------
 .byte   PATT
  .word Label_5_014C1E3B
@ 257   ----------------------------------------
 .byte   GOTO
  .word Label_5_014C1B63
@ 258   ----------------------------------------
 .byte   N11 ,Cs2 ,v092
 .byte   W96
@ 259   ----------------------------------------
 .byte   W96
@ 260   ----------------------------------------
 .byte   W96
@ 261   ----------------------------------------
 .byte   W96
@ 262   ----------------------------------------
 .byte   W96
@ 263   ----------------------------------------
 .byte   W96
@ 264   ----------------------------------------
 .byte   W96
@ 265   ----------------------------------------
 .byte   W96
@ 266   ----------------------------------------
 .byte   W92
 .byte   W03
 .byte   FINE

@**************** Track 7 (Midi-Chn.6) ****************@

song09_007:
@ 000   ----------------------------------------
 .byte   KEYSH , song09_key+0
 .byte   VOICE , 33
 .byte   PAN , c_v+2
 .byte   VOL , 40*song09_mvl/mxv
 .byte   W96
@ 001   ----------------------------------------
 .byte   W96
@ 002   ----------------------------------------
 .byte   W96
@ 003   ----------------------------------------
 .byte   W96
@ 004   ----------------------------------------
 .byte   W96
@ 005   ----------------------------------------
 .byte   W96
@ 006   ----------------------------------------
 .byte   W96
@ 007   ----------------------------------------
 .byte   W96
@ 008   ----------------------------------------
 .byte   W96
@ 009   ----------------------------------------
 .byte   W96
@ 010   ----------------------------------------
 .byte   W96
@ 011   ----------------------------------------
 .byte   W96
@ 012   ----------------------------------------
 .byte   W96
@ 013   ----------------------------------------
 .byte   W96
@ 014   ----------------------------------------
 .byte   W96
@ 015   ----------------------------------------
 .byte   W96
@ 016   ----------------------------------------
 .byte   W96
@ 017   ----------------------------------------
Label_6_014C2279:
 .byte   TIE ,Dn1 ,v092
 .byte   W96
@ 018   ----------------------------------------
 .byte   W96
@ 019   ----------------------------------------
 .byte   W96
@ 020   ----------------------------------------
 .byte   W92
 .byte   W03
 .byte   EOT
 .byte   W01
@ 021   ----------------------------------------
 .byte   N11
 .byte   W12
 .byte   N11
 .byte   W84
@ 022   ----------------------------------------
 .byte   W96
@ 023   ----------------------------------------
 .byte   W96
@ 024   ----------------------------------------
 .byte   W96
@ 025   ----------------------------------------
Label_6_014C228A:
 .byte   N05 ,Dn1 ,v092
 .byte   W12
 .byte   N05
 .byte   W12
 .byte   N05
 .byte   W12
 .byte   N05
 .byte   W12
 .byte   N05
 .byte   W12
 .byte   N05
 .byte   W12
 .byte   N05
 .byte   W12
 .byte   N05
 .byte   W12
 .byte   PEND 
@ 026   ----------------------------------------
 .byte   PATT
  .word Label_6_014C228A
@ 027   ----------------------------------------
 .byte   PATT
  .word Label_6_014C228A
@ 028   ----------------------------------------
 .byte   PATT
  .word Label_6_014C228A
@ 029   ----------------------------------------
Label_6_014C22AC:
 .byte   N05 ,Fn1 ,v092
 .byte   W12
 .byte   N05
 .byte   W12
 .byte   N05
 .byte   W12
 .byte   N05
 .byte   W12
 .byte   N05
 .byte   W12
 .byte   N05
 .byte   W12
 .byte   N05
 .byte   W12
 .byte   N05
 .byte   W12
 .byte   PEND 
@ 030   ----------------------------------------
 .byte   PATT
  .word Label_6_014C22AC
@ 031   ----------------------------------------
 .byte   PATT
  .word Label_6_014C22AC
@ 032   ----------------------------------------
Label_6_014C22C9:
 .byte   N44 ,As0 ,v092
 .byte   W48
 .byte   An0
 .byte   W48
 .byte   PEND 
@ 033   ----------------------------------------
 .byte   PATT
  .word Label_6_014C228A
@ 034   ----------------------------------------
 .byte   PATT
  .word Label_6_014C228A
@ 035   ----------------------------------------
 .byte   PATT
  .word Label_6_014C228A
@ 036   ----------------------------------------
 .byte   PATT
  .word Label_6_014C228A
@ 037   ----------------------------------------
 .byte   PATT
  .word Label_6_014C22AC
@ 038   ----------------------------------------
 .byte   PATT
  .word Label_6_014C22AC
@ 039   ----------------------------------------
 .byte   PATT
  .word Label_6_014C22AC
@ 040   ----------------------------------------
 .byte   PATT
  .word Label_6_014C22C9
@ 041   ----------------------------------------
 .byte   PATT
  .word Label_6_014C228A
@ 042   ----------------------------------------
 .byte   PATT
  .word Label_6_014C228A
@ 043   ----------------------------------------
 .byte   PATT
  .word Label_6_014C22AC
@ 044   ----------------------------------------
 .byte   PATT
  .word Label_6_014C22AC
@ 045   ----------------------------------------
Label_6_014C230C:
 .byte   N05 ,Gn1 ,v092
 .byte   W12
 .byte   N05
 .byte   W12
 .byte   N05
 .byte   W12
 .byte   N05
 .byte   W12
 .byte   N05
 .byte   W12
 .byte   N05
 .byte   W12
 .byte   N05
 .byte   W12
 .byte   N05
 .byte   W12
 .byte   PEND 
@ 046   ----------------------------------------
 .byte   PATT
  .word Label_6_014C230C
@ 047   ----------------------------------------
 .byte   PATT
  .word Label_6_014C22AC
@ 048   ----------------------------------------
Label_6_014C2329:
 .byte   N05 ,An1 ,v092
 .byte   W12
 .byte   N05
 .byte   W12
 .byte   N05
 .byte   W12
 .byte   N05
 .byte   W12
 .byte   N05
 .byte   W12
 .byte   N05
 .byte   W12
 .byte   N05
 .byte   W12
 .byte   N05
 .byte   W12
 .byte   PEND 
@ 049   ----------------------------------------
 .byte   PATT
  .word Label_6_014C228A
@ 050   ----------------------------------------
 .byte   PATT
  .word Label_6_014C228A
@ 051   ----------------------------------------
 .byte   PATT
  .word Label_6_014C22AC
@ 052   ----------------------------------------
 .byte   PATT
  .word Label_6_014C22AC
@ 053   ----------------------------------------
Label_6_014C2350:
 .byte   N05 ,As0 ,v092
 .byte   W12
 .byte   N05
 .byte   W12
 .byte   N05
 .byte   W12
 .byte   N05
 .byte   W12
 .byte   N05
 .byte   W12
 .byte   N05
 .byte   W12
 .byte   N05
 .byte   W12
 .byte   N05
 .byte   W12
 .byte   PEND 
@ 054   ----------------------------------------
Label_6_014C2363:
 .byte   N05 ,Cs1 ,v092
 .byte   W12
 .byte   N05
 .byte   W12
 .byte   N05
 .byte   W12
 .byte   N05
 .byte   W12
 .byte   N05
 .byte   W12
 .byte   N05
 .byte   W12
 .byte   N05
 .byte   W12
 .byte   N05
 .byte   W12
 .byte   PEND 
@ 055   ----------------------------------------
 .byte   PATT
  .word Label_6_014C228A
@ 056   ----------------------------------------
Label_6_014C237B:
 .byte   N05 ,En1 ,v092
 .byte   W12
 .byte   N05
 .byte   W12
 .byte   N05
 .byte   W12
 .byte   N05
 .byte   W12
 .byte   N05
 .byte   W12
 .byte   Cs1
 .byte   W12
 .byte   Cn1
 .byte   W12
 .byte   Bn0
 .byte   W12
 .byte   PEND 
@ 057   ----------------------------------------
Label_6_014C238E:
 .byte   N05 ,Gn0 ,v092
 .byte   W12
 .byte   N05
 .byte   W12
 .byte   N05
 .byte   W12
 .byte   N05
 .byte   W12
 .byte   N05
 .byte   W12
 .byte   N05
 .byte   W12
 .byte   N05
 .byte   W12
 .byte   N05
 .byte   W12
 .byte   PEND 
@ 058   ----------------------------------------
 .byte   PATT
  .word Label_6_014C238E
@ 059   ----------------------------------------
Label_6_014C23A6:
 .byte   N05 ,Cn1 ,v092
 .byte   W12
 .byte   N05
 .byte   W12
 .byte   N05
 .byte   W12
 .byte   N05
 .byte   W12
 .byte   N05
 .byte   W12
 .byte   N05
 .byte   W12
 .byte   N05
 .byte   W12
 .byte   N05
 .byte   W12
 .byte   PEND 
@ 060   ----------------------------------------
 .byte   PATT
  .word Label_6_014C23A6
@ 061   ----------------------------------------
Label_6_014C23BE:
 .byte   N05 ,An0 ,v092
 .byte   W12
 .byte   N05
 .byte   W12
 .byte   N05
 .byte   W12
 .byte   N05
 .byte   W12
 .byte   N05
 .byte   W12
 .byte   N05
 .byte   W12
 .byte   N05
 .byte   W12
 .byte   N05
 .byte   W12
 .byte   PEND 
@ 062   ----------------------------------------
 .byte   PATT
  .word Label_6_014C23BE
@ 063   ----------------------------------------
 .byte   PATT
  .word Label_6_014C2350
@ 064   ----------------------------------------
 .byte   PATT
  .word Label_6_014C2350
@ 065   ----------------------------------------
 .byte   PATT
  .word Label_6_014C238E
@ 066   ----------------------------------------
 .byte   PATT
  .word Label_6_014C238E
@ 067   ----------------------------------------
 .byte   PATT
  .word Label_6_014C23BE
@ 068   ----------------------------------------
 .byte   PATT
  .word Label_6_014C23BE
@ 069   ----------------------------------------
 .byte   PATT
  .word Label_6_014C228A
@ 070   ----------------------------------------
Label_6_014C23F9:
 .byte   N05 ,En1 ,v092
 .byte   W12
 .byte   N05
 .byte   W12
 .byte   N05
 .byte   W12
 .byte   N05
 .byte   W12
 .byte   N05
 .byte   W12
 .byte   N05
 .byte   W12
 .byte   N05
 .byte   W12
 .byte   N05
 .byte   W12
 .byte   PEND 
@ 071   ----------------------------------------
 .byte   PATT
  .word Label_6_014C22AC
@ 072   ----------------------------------------
 .byte   PATT
  .word Label_6_014C228A
@ 073   ----------------------------------------
 .byte   PATT
  .word Label_6_014C238E
@ 074   ----------------------------------------
 .byte   PATT
  .word Label_6_014C238E
@ 075   ----------------------------------------
 .byte   PATT
  .word Label_6_014C23A6
@ 076   ----------------------------------------
 .byte   PATT
  .word Label_6_014C23A6
@ 077   ----------------------------------------
 .byte   PATT
  .word Label_6_014C23BE
@ 078   ----------------------------------------
 .byte   PATT
  .word Label_6_014C23BE
@ 079   ----------------------------------------
 .byte   PATT
  .word Label_6_014C2350
@ 080   ----------------------------------------
 .byte   PATT
  .word Label_6_014C2350
@ 081   ----------------------------------------
 .byte   PATT
  .word Label_6_014C238E
@ 082   ----------------------------------------
 .byte   PATT
  .word Label_6_014C238E
@ 083   ----------------------------------------
 .byte   PATT
  .word Label_6_014C23BE
@ 084   ----------------------------------------
 .byte   PATT
  .word Label_6_014C23BE
@ 085   ----------------------------------------
 .byte   PATT
  .word Label_6_014C228A
@ 086   ----------------------------------------
 .byte   PATT
  .word Label_6_014C23F9
@ 087   ----------------------------------------
 .byte   PATT
  .word Label_6_014C22AC
@ 088   ----------------------------------------
Label_6_014C2461:
 .byte   N05 ,Fs1 ,v092
 .byte   W12
 .byte   N05
 .byte   W12
 .byte   N05
 .byte   W12
 .byte   N05
 .byte   W12
 .byte   N05
 .byte   W12
 .byte   N05
 .byte   W12
 .byte   N05
 .byte   W12
 .byte   N05
 .byte   W12
 .byte   PEND 
@ 089   ----------------------------------------
 .byte   W96
@ 090   ----------------------------------------
 .byte   W96
@ 091   ----------------------------------------
 .byte   W96
@ 092   ----------------------------------------
 .byte   W96
@ 093   ----------------------------------------
Label_6_014C2478:
 .byte   N05 ,Dn0 ,v092
 .byte   W12
 .byte   N05
 .byte   W12
 .byte   N05
 .byte   W12
 .byte   N05
 .byte   W12
 .byte   N05
 .byte   W12
 .byte   N05
 .byte   W12
 .byte   N05
 .byte   W12
 .byte   N05
 .byte   W12
 .byte   PEND 
@ 094   ----------------------------------------
 .byte   PATT
  .word Label_6_014C2478
@ 095   ----------------------------------------
Label_6_014C2490:
 .byte   N05 ,En0 ,v092
 .byte   W12
 .byte   N05
 .byte   W12
 .byte   N05
 .byte   W12
 .byte   N05
 .byte   W12
 .byte   N05
 .byte   W12
 .byte   N05
 .byte   W12
 .byte   N05
 .byte   W12
 .byte   N05
 .byte   W12
 .byte   PEND 
@ 096   ----------------------------------------
 .byte   PATT
  .word Label_6_014C2490
@ 097   ----------------------------------------
Label_6_014C24A8:
 .byte   N05 ,Fs0 ,v092
 .byte   W12
 .byte   N05
 .byte   W12
 .byte   N05
 .byte   W12
 .byte   N05
 .byte   W12
 .byte   N05
 .byte   W12
 .byte   N05
 .byte   W12
 .byte   N05
 .byte   W12
 .byte   N05
 .byte   W12
 .byte   PEND 
@ 098   ----------------------------------------
 .byte   PATT
  .word Label_6_014C24A8
@ 099   ----------------------------------------
 .byte   PATT
  .word Label_6_014C238E
@ 100   ----------------------------------------
Label_6_014C24C5:
 .byte   N05 ,Gn0 ,v092
 .byte   W12
 .byte   N05
 .byte   W12
 .byte   N05
 .byte   W12
 .byte   N05
 .byte   W12
 .byte   Fn0
 .byte   W12
 .byte   N05
 .byte   W12
 .byte   N05
 .byte   W12
 .byte   N05
 .byte   W12
 .byte   PEND 
@ 101   ----------------------------------------
 .byte   PATT
  .word Label_6_014C2490
@ 102   ----------------------------------------
 .byte   PATT
  .word Label_6_014C23BE
@ 103   ----------------------------------------
Label_6_014C24E2:
 .byte   N05 ,Dn0 ,v092
 .byte   W12
 .byte   N05
 .byte   W12
 .byte   N05
 .byte   W12
 .byte   N05
 .byte   W12
 .byte   En0
 .byte   W12
 .byte   N05
 .byte   W12
 .byte   N05
 .byte   W12
 .byte   N05
 .byte   W12
 .byte   PEND 
@ 104   ----------------------------------------
Label_6_014C24F5:
 .byte   N05 ,Fn0 ,v092
 .byte   W12
 .byte   N05
 .byte   W12
 .byte   N05
 .byte   W12
 .byte   N05
 .byte   W12
 .byte   Fs0
 .byte   W12
 .byte   N05
 .byte   W12
 .byte   N05
 .byte   W12
 .byte   N05
 .byte   W12
 .byte   PEND 
@ 105   ----------------------------------------
 .byte   PATT
  .word Label_6_014C238E
@ 106   ----------------------------------------
Label_6_014C250D:
 .byte   N05 ,Gs0 ,v092
 .byte   W12
 .byte   N05
 .byte   W12
 .byte   N05
 .byte   W12
 .byte   N05
 .byte   W12
 .byte   N05
 .byte   W12
 .byte   N05
 .byte   W12
 .byte   N05
 .byte   W12
 .byte   N05
 .byte   W12
 .byte   PEND 
@ 107   ----------------------------------------
 .byte   PATT
  .word Label_6_014C23BE
@ 108   ----------------------------------------
Label_6_014C2525:
 .byte   N05 ,An0 ,v092
 .byte   W12
 .byte   N05
 .byte   W12
 .byte   N05
 .byte   W12
 .byte   N05
 .byte   W12
 .byte   Cs1
 .byte   W12
 .byte   N05
 .byte   W12
 .byte   N05
 .byte   W12
 .byte   N05
 .byte   W12
 .byte   PEND 
@ 109   ----------------------------------------
 .byte   PATT
  .word Label_6_014C228A
@ 110   ----------------------------------------
 .byte   PATT
  .word Label_6_014C228A
@ 111   ----------------------------------------
 .byte   PATT
  .word Label_6_014C228A
@ 112   ----------------------------------------
 .byte   PATT
  .word Label_6_014C228A
@ 113   ----------------------------------------
 .byte   PATT
  .word Label_6_014C22AC
@ 114   ----------------------------------------
 .byte   PATT
  .word Label_6_014C22AC
@ 115   ----------------------------------------
 .byte   PATT
  .word Label_6_014C22AC
@ 116   ----------------------------------------
 .byte   PATT
  .word Label_6_014C22C9
@ 117   ----------------------------------------
 .byte   PATT
  .word Label_6_014C228A
@ 118   ----------------------------------------
 .byte   PATT
  .word Label_6_014C228A
@ 119   ----------------------------------------
 .byte   PATT
  .word Label_6_014C228A
@ 120   ----------------------------------------
 .byte   PATT
  .word Label_6_014C228A
@ 121   ----------------------------------------
 .byte   PATT
  .word Label_6_014C22AC
@ 122   ----------------------------------------
 .byte   PATT
  .word Label_6_014C22AC
@ 123   ----------------------------------------
 .byte   PATT
  .word Label_6_014C22AC
@ 124   ----------------------------------------
 .byte   PATT
  .word Label_6_014C22C9
@ 125   ----------------------------------------
 .byte   PATT
  .word Label_6_014C228A
@ 126   ----------------------------------------
 .byte   PATT
  .word Label_6_014C228A
@ 127   ----------------------------------------
 .byte   PATT
  .word Label_6_014C22AC
@ 128   ----------------------------------------
 .byte   PATT
  .word Label_6_014C22AC
@ 129   ----------------------------------------
 .byte   PATT
  .word Label_6_014C230C
@ 130   ----------------------------------------
 .byte   PATT
  .word Label_6_014C230C
@ 131   ----------------------------------------
 .byte   PATT
  .word Label_6_014C22AC
@ 132   ----------------------------------------
 .byte   PATT
  .word Label_6_014C2329
@ 133   ----------------------------------------
 .byte   PATT
  .word Label_6_014C228A
@ 134   ----------------------------------------
 .byte   PATT
  .word Label_6_014C228A
@ 135   ----------------------------------------
 .byte   PATT
  .word Label_6_014C22AC
@ 136   ----------------------------------------
 .byte   PATT
  .word Label_6_014C22AC
@ 137   ----------------------------------------
 .byte   PATT
  .word Label_6_014C2350
@ 138   ----------------------------------------
 .byte   PATT
  .word Label_6_014C2363
@ 139   ----------------------------------------
 .byte   PATT
  .word Label_6_014C228A
@ 140   ----------------------------------------
 .byte   PATT
  .word Label_6_014C237B
@ 141   ----------------------------------------
 .byte   PATT
  .word Label_6_014C238E
@ 142   ----------------------------------------
 .byte   PATT
  .word Label_6_014C238E
@ 143   ----------------------------------------
 .byte   PATT
  .word Label_6_014C23A6
@ 144   ----------------------------------------
 .byte   PATT
  .word Label_6_014C23A6
@ 145   ----------------------------------------
 .byte   PATT
  .word Label_6_014C23BE
@ 146   ----------------------------------------
 .byte   PATT
  .word Label_6_014C23BE
@ 147   ----------------------------------------
 .byte   PATT
  .word Label_6_014C2350
@ 148   ----------------------------------------
 .byte   PATT
  .word Label_6_014C2350
@ 149   ----------------------------------------
 .byte   PATT
  .word Label_6_014C238E
@ 150   ----------------------------------------
 .byte   PATT
  .word Label_6_014C238E
@ 151   ----------------------------------------
 .byte   PATT
  .word Label_6_014C23BE
@ 152   ----------------------------------------
 .byte   PATT
  .word Label_6_014C23BE
@ 153   ----------------------------------------
 .byte   PATT
  .word Label_6_014C228A
@ 154   ----------------------------------------
 .byte   PATT
  .word Label_6_014C23F9
@ 155   ----------------------------------------
 .byte   PATT
  .word Label_6_014C22AC
@ 156   ----------------------------------------
 .byte   PATT
  .word Label_6_014C228A
@ 157   ----------------------------------------
 .byte   PATT
  .word Label_6_014C238E
@ 158   ----------------------------------------
 .byte   PATT
  .word Label_6_014C238E
@ 159   ----------------------------------------
 .byte   PATT
  .word Label_6_014C23A6
@ 160   ----------------------------------------
 .byte   PATT
  .word Label_6_014C23A6
@ 161   ----------------------------------------
 .byte   PATT
  .word Label_6_014C23BE
@ 162   ----------------------------------------
 .byte   PATT
  .word Label_6_014C23BE
@ 163   ----------------------------------------
 .byte   PATT
  .word Label_6_014C2350
@ 164   ----------------------------------------
 .byte   PATT
  .word Label_6_014C2350
@ 165   ----------------------------------------
 .byte   PATT
  .word Label_6_014C238E
@ 166   ----------------------------------------
 .byte   PATT
  .word Label_6_014C238E
@ 167   ----------------------------------------
 .byte   PATT
  .word Label_6_014C23BE
@ 168   ----------------------------------------
 .byte   PATT
  .word Label_6_014C23BE
@ 169   ----------------------------------------
 .byte   PATT
  .word Label_6_014C228A
@ 170   ----------------------------------------
 .byte   PATT
  .word Label_6_014C23F9
@ 171   ----------------------------------------
 .byte   PATT
  .word Label_6_014C22AC
@ 172   ----------------------------------------
 .byte   PATT
  .word Label_6_014C2461
@ 173   ----------------------------------------
 .byte   W96
@ 174   ----------------------------------------
 .byte   W96
@ 175   ----------------------------------------
 .byte   W96
@ 176   ----------------------------------------
 .byte   W96
@ 177   ----------------------------------------
 .byte   PATT
  .word Label_6_014C2478
@ 178   ----------------------------------------
 .byte   PATT
  .word Label_6_014C2478
@ 179   ----------------------------------------
 .byte   PATT
  .word Label_6_014C2490
@ 180   ----------------------------------------
 .byte   PATT
  .word Label_6_014C2490
@ 181   ----------------------------------------
 .byte   PATT
  .word Label_6_014C24A8
@ 182   ----------------------------------------
 .byte   PATT
  .word Label_6_014C24A8
@ 183   ----------------------------------------
 .byte   PATT
  .word Label_6_014C238E
@ 184   ----------------------------------------
 .byte   PATT
  .word Label_6_014C24C5
@ 185   ----------------------------------------
 .byte   PATT
  .word Label_6_014C2490
@ 186   ----------------------------------------
 .byte   PATT
  .word Label_6_014C23BE
@ 187   ----------------------------------------
 .byte   PATT
  .word Label_6_014C24E2
@ 188   ----------------------------------------
 .byte   PATT
  .word Label_6_014C24F5
@ 189   ----------------------------------------
 .byte   PATT
  .word Label_6_014C238E
@ 190   ----------------------------------------
 .byte   PATT
  .word Label_6_014C250D
@ 191   ----------------------------------------
 .byte   PATT
  .word Label_6_014C23BE
@ 192   ----------------------------------------
 .byte   PATT
  .word Label_6_014C2525
@ 193   ----------------------------------------
 .byte   PATT
  .word Label_6_014C228A
@ 194   ----------------------------------------
 .byte   PATT
  .word Label_6_014C228A
@ 195   ----------------------------------------
 .byte   PATT
  .word Label_6_014C228A
@ 196   ----------------------------------------
 .byte   PATT
  .word Label_6_014C228A
@ 197   ----------------------------------------
 .byte   PATT
  .word Label_6_014C22AC
@ 198   ----------------------------------------
 .byte   PATT
  .word Label_6_014C22AC
@ 199   ----------------------------------------
 .byte   PATT
  .word Label_6_014C22AC
@ 200   ----------------------------------------
 .byte   PATT
  .word Label_6_014C22C9
@ 201   ----------------------------------------
 .byte   PATT
  .word Label_6_014C228A
@ 202   ----------------------------------------
 .byte   PATT
  .word Label_6_014C228A
@ 203   ----------------------------------------
 .byte   PATT
  .word Label_6_014C228A
@ 204   ----------------------------------------
 .byte   PATT
  .word Label_6_014C228A
@ 205   ----------------------------------------
 .byte   PATT
  .word Label_6_014C22AC
@ 206   ----------------------------------------
 .byte   PATT
  .word Label_6_014C22AC
@ 207   ----------------------------------------
 .byte   PATT
  .word Label_6_014C22AC
@ 208   ----------------------------------------
 .byte   PATT
  .word Label_6_014C22C9
@ 209   ----------------------------------------
 .byte   PATT
  .word Label_6_014C228A
@ 210   ----------------------------------------
 .byte   PATT
  .word Label_6_014C228A
@ 211   ----------------------------------------
 .byte   PATT
  .word Label_6_014C22AC
@ 212   ----------------------------------------
 .byte   PATT
  .word Label_6_014C22AC
@ 213   ----------------------------------------
 .byte   PATT
  .word Label_6_014C230C
@ 214   ----------------------------------------
 .byte   PATT
  .word Label_6_014C230C
@ 215   ----------------------------------------
 .byte   PATT
  .word Label_6_014C22AC
@ 216   ----------------------------------------
 .byte   PATT
  .word Label_6_014C2329
@ 217   ----------------------------------------
 .byte   PATT
  .word Label_6_014C228A
@ 218   ----------------------------------------
 .byte   PATT
  .word Label_6_014C228A
@ 219   ----------------------------------------
 .byte   PATT
  .word Label_6_014C22AC
@ 220   ----------------------------------------
 .byte   PATT
  .word Label_6_014C22AC
@ 221   ----------------------------------------
 .byte   PATT
  .word Label_6_014C2350
@ 222   ----------------------------------------
 .byte   PATT
  .word Label_6_014C2363
@ 223   ----------------------------------------
 .byte   PATT
  .word Label_6_014C228A
@ 224   ----------------------------------------
 .byte   PATT
  .word Label_6_014C237B
@ 225   ----------------------------------------
 .byte   PATT
  .word Label_6_014C238E
@ 226   ----------------------------------------
 .byte   PATT
  .word Label_6_014C238E
@ 227   ----------------------------------------
 .byte   PATT
  .word Label_6_014C23A6
@ 228   ----------------------------------------
 .byte   PATT
  .word Label_6_014C23A6
@ 229   ----------------------------------------
 .byte   PATT
  .word Label_6_014C23BE
@ 230   ----------------------------------------
 .byte   PATT
  .word Label_6_014C23BE
@ 231   ----------------------------------------
 .byte   PATT
  .word Label_6_014C2350
@ 232   ----------------------------------------
 .byte   PATT
  .word Label_6_014C2350
@ 233   ----------------------------------------
 .byte   PATT
  .word Label_6_014C238E
@ 234   ----------------------------------------
 .byte   PATT
  .word Label_6_014C238E
@ 235   ----------------------------------------
 .byte   PATT
  .word Label_6_014C23BE
@ 236   ----------------------------------------
 .byte   PATT
  .word Label_6_014C23BE
@ 237   ----------------------------------------
 .byte   PATT
  .word Label_6_014C228A
@ 238   ----------------------------------------
 .byte   PATT
  .word Label_6_014C23F9
@ 239   ----------------------------------------
 .byte   PATT
  .word Label_6_014C22AC
@ 240   ----------------------------------------
 .byte   PATT
  .word Label_6_014C228A
@ 241   ----------------------------------------
 .byte   PATT
  .word Label_6_014C238E
@ 242   ----------------------------------------
 .byte   PATT
  .word Label_6_014C238E
@ 243   ----------------------------------------
 .byte   PATT
  .word Label_6_014C23A6
@ 244   ----------------------------------------
 .byte   PATT
  .word Label_6_014C23A6
@ 245   ----------------------------------------
 .byte   PATT
  .word Label_6_014C23BE
@ 246   ----------------------------------------
 .byte   PATT
  .word Label_6_014C23BE
@ 247   ----------------------------------------
 .byte   PATT
  .word Label_6_014C2350
@ 248   ----------------------------------------
 .byte   PATT
  .word Label_6_014C2350
@ 249   ----------------------------------------
 .byte   PATT
  .word Label_6_014C238E
@ 250   ----------------------------------------
 .byte   PATT
  .word Label_6_014C238E
@ 251   ----------------------------------------
 .byte   PATT
  .word Label_6_014C23BE
@ 252   ----------------------------------------
 .byte   PATT
  .word Label_6_014C23BE
@ 253   ----------------------------------------
 .byte   PATT
  .word Label_6_014C228A
@ 254   ----------------------------------------
 .byte   PATT
  .word Label_6_014C23F9
@ 255   ----------------------------------------
 .byte   PATT
  .word Label_6_014C22AC
@ 256   ----------------------------------------
 .byte   PATT
  .word Label_6_014C2461
@ 257   ----------------------------------------
 .byte   GOTO
  .word Label_6_014C2279
@ 258   ----------------------------------------
 .byte   W96
@ 259   ----------------------------------------
 .byte   W96
@ 260   ----------------------------------------
 .byte   W96
@ 261   ----------------------------------------
 .byte   W96
@ 262   ----------------------------------------
 .byte   W96
@ 263   ----------------------------------------
 .byte   W96
@ 264   ----------------------------------------
 .byte   W96
@ 265   ----------------------------------------
 .byte   W96
@ 266   ----------------------------------------
 .byte   W92
 .byte   W03
 .byte   FINE

@**************** Track 8 (Midi-Chn.7) ****************@

song09_008:
@ 000   ----------------------------------------
 .byte   KEYSH , song09_key+0
 .byte   VOICE , 30
 .byte   PAN , c_v-19
 .byte   VOL , 40*song09_mvl/mxv
 .byte   W96
@ 001   ----------------------------------------
 .byte   W96
@ 002   ----------------------------------------
 .byte   W96
@ 003   ----------------------------------------
 .byte   W96
@ 004   ----------------------------------------
 .byte   W96
@ 005   ----------------------------------------
 .byte   W96
@ 006   ----------------------------------------
 .byte   W96
@ 007   ----------------------------------------
 .byte   W96
@ 008   ----------------------------------------
 .byte   W96
@ 009   ----------------------------------------
 .byte   W96
@ 010   ----------------------------------------
 .byte   W96
@ 011   ----------------------------------------
 .byte   W96
@ 012   ----------------------------------------
 .byte   W96
@ 013   ----------------------------------------
 .byte   W96
@ 014   ----------------------------------------
 .byte   W96
@ 015   ----------------------------------------
 .byte   W96
@ 016   ----------------------------------------
 .byte   W96
@ 017   ----------------------------------------
Label_7_014C2835:
 .byte   TIE ,Dn2 ,v092
 .byte   TIE ,An2
 .byte   W96
@ 018   ----------------------------------------
 .byte   W96
@ 019   ----------------------------------------
 .byte   W96
@ 020   ----------------------------------------
 .byte   W92
 .byte   W03
 .byte   EOT
 .byte   Dn2 ,v057
 .byte   W01
@ 021   ----------------------------------------
 .byte   N11 ,Dn2
 .byte   N11 ,An2
 .byte   W12
 .byte   Dn2
 .byte   N11 ,An2
 .byte   W84
@ 022   ----------------------------------------
 .byte   W96
@ 023   ----------------------------------------
 .byte   W96
@ 024   ----------------------------------------
 .byte   W96
@ 025   ----------------------------------------
Label_7_014C284F:
 .byte   N11 ,Cn2 ,v092
 .byte   N11 ,Cn3
 .byte   W12
 .byte   Dn2
 .byte   N11 ,Dn3
 .byte   W12
 .byte   N05 ,Dn2
 .byte   W12
 .byte   N05
 .byte   W12
 .byte   N05
 .byte   W12
 .byte   N05
 .byte   W12
 .byte   N05
 .byte   W12
 .byte   N05
 .byte   W12
 .byte   PEND 
@ 026   ----------------------------------------
Label_7_014C2867:
 .byte   N05 ,Dn2 ,v092
 .byte   W12
 .byte   N05
 .byte   W12
 .byte   N05
 .byte   W12
 .byte   N05
 .byte   W12
 .byte   N05
 .byte   W12
 .byte   N05
 .byte   W12
 .byte   N05
 .byte   W12
 .byte   N05
 .byte   W12
 .byte   PEND 
@ 027   ----------------------------------------
 .byte   PATT
  .word Label_7_014C284F
@ 028   ----------------------------------------
Label_7_014C287F:
 .byte   N11 ,Cn2 ,v092
 .byte   N11 ,Cn3
 .byte   W12
 .byte   Dn2
 .byte   N11 ,Dn3
 .byte   W12
 .byte   N05 ,Dn2
 .byte   W12
 .byte   N05
 .byte   W12
 .byte   N11
 .byte   N11 ,Dn3
 .byte   W12
 .byte   Dn2
 .byte   W12
 .byte   N23
 .byte   N23 ,Dn3
 .byte   W24
 .byte   PEND 
@ 029   ----------------------------------------
Label_7_014C2899:
 .byte   N11 ,Cn2 ,v092
 .byte   N11 ,Cn3
 .byte   W12
 .byte   Dn2
 .byte   N11 ,Dn3
 .byte   W12
 .byte   N05 ,Fn2
 .byte   W12
 .byte   N05
 .byte   W12
 .byte   N05
 .byte   W12
 .byte   N05
 .byte   W12
 .byte   N05
 .byte   W12
 .byte   N05
 .byte   W12
 .byte   PEND 
@ 030   ----------------------------------------
Label_7_014C28B1:
 .byte   N05 ,Fn2 ,v092
 .byte   W12
 .byte   N05
 .byte   W12
 .byte   N05
 .byte   W12
 .byte   N05
 .byte   W12
 .byte   N05
 .byte   W12
 .byte   N05
 .byte   W12
 .byte   N05
 .byte   W12
 .byte   N05
 .byte   W12
 .byte   PEND 
@ 031   ----------------------------------------
 .byte   PATT
  .word Label_7_014C2899
@ 032   ----------------------------------------
Label_7_014C28C9:
 .byte   N44 ,As1 ,v092
 .byte   N44 ,As2
 .byte   W48
 .byte   An1
 .byte   N44 ,An2
 .byte   W48
 .byte   PEND 
@ 033   ----------------------------------------
 .byte   PATT
  .word Label_7_014C284F
@ 034   ----------------------------------------
 .byte   PATT
  .word Label_7_014C2867
@ 035   ----------------------------------------
 .byte   PATT
  .word Label_7_014C284F
@ 036   ----------------------------------------
 .byte   PATT
  .word Label_7_014C287F
@ 037   ----------------------------------------
 .byte   PATT
  .word Label_7_014C2899
@ 038   ----------------------------------------
 .byte   PATT
  .word Label_7_014C28B1
@ 039   ----------------------------------------
 .byte   PATT
  .word Label_7_014C2899
@ 040   ----------------------------------------
 .byte   PATT
  .word Label_7_014C28C9
@ 041   ----------------------------------------
Label_7_014C28FC:
 .byte   N11 ,Bn1 ,v092
 .byte   N11 ,Cn3
 .byte   W12
 .byte   Cn2
 .byte   N11 ,Dn3
 .byte   W12
 .byte   N05 ,Dn2
 .byte   W12
 .byte   N05
 .byte   W12
 .byte   N05
 .byte   W12
 .byte   N05
 .byte   W12
 .byte   N05
 .byte   W12
 .byte   N05
 .byte   W12
 .byte   PEND 
@ 042   ----------------------------------------
 .byte   PATT
  .word Label_7_014C2867
@ 043   ----------------------------------------
 .byte   PATT
  .word Label_7_014C28B1
@ 044   ----------------------------------------
 .byte   PATT
  .word Label_7_014C28B1
@ 045   ----------------------------------------
Label_7_014C2923:
 .byte   N05 ,Gn2 ,v092
 .byte   W12
 .byte   N05
 .byte   W12
 .byte   N05
 .byte   W12
 .byte   N05
 .byte   W12
 .byte   N05
 .byte   W12
 .byte   N05
 .byte   W12
 .byte   N05
 .byte   W12
 .byte   N05
 .byte   W12
 .byte   PEND 
@ 046   ----------------------------------------
 .byte   PATT
  .word Label_7_014C2923
@ 047   ----------------------------------------
 .byte   N92 ,Cn2 ,v092
 .byte   N92 ,Fn2
 .byte   W96
@ 048   ----------------------------------------
 .byte   En2
 .byte   N92 ,An2
 .byte   W96
@ 049   ----------------------------------------
 .byte   PATT
  .word Label_7_014C2867
@ 050   ----------------------------------------
 .byte   PATT
  .word Label_7_014C2867
@ 051   ----------------------------------------
 .byte   PATT
  .word Label_7_014C28B1
@ 052   ----------------------------------------
 .byte   PATT
  .word Label_7_014C28B1
@ 053   ----------------------------------------
 .byte   N92 ,As1 ,v092
 .byte   W96
@ 054   ----------------------------------------
 .byte   Cs2
 .byte   W96
@ 055   ----------------------------------------
 .byte   Dn2
 .byte   W96
@ 056   ----------------------------------------
 .byte   En2
 .byte   W96
@ 057   ----------------------------------------
Label_7_014C2963:
 .byte   N05 ,Gn1 ,v092
 .byte   W12
 .byte   N05
 .byte   W12
 .byte   N05
 .byte   W12
 .byte   N05
 .byte   W12
 .byte   N05
 .byte   W12
 .byte   N05
 .byte   W12
 .byte   N05
 .byte   W12
 .byte   N05
 .byte   W12
 .byte   PEND 
@ 058   ----------------------------------------
 .byte   PATT
  .word Label_7_014C2963
@ 059   ----------------------------------------
Label_7_014C297B:
 .byte   N05 ,Cn2 ,v092
 .byte   W12
 .byte   N05
 .byte   W12
 .byte   N05
 .byte   W12
 .byte   N05
 .byte   W12
 .byte   N05
 .byte   W12
 .byte   N05
 .byte   W12
 .byte   N05
 .byte   W12
 .byte   N05
 .byte   W12
 .byte   PEND 
@ 060   ----------------------------------------
 .byte   PATT
  .word Label_7_014C297B
@ 061   ----------------------------------------
Label_7_014C2993:
 .byte   N05 ,An1 ,v092
 .byte   W12
 .byte   N05
 .byte   W12
 .byte   N05
 .byte   W12
 .byte   N05
 .byte   W12
 .byte   N05
 .byte   W12
 .byte   N05
 .byte   W12
 .byte   N05
 .byte   W12
 .byte   N05
 .byte   W12
 .byte   PEND 
@ 062   ----------------------------------------
 .byte   PATT
  .word Label_7_014C2993
@ 063   ----------------------------------------
Label_7_014C29AB:
 .byte   N05 ,As1 ,v092
 .byte   W12
 .byte   N05
 .byte   W12
 .byte   N05
 .byte   W12
 .byte   N05
 .byte   W12
 .byte   N05
 .byte   W12
 .byte   N05
 .byte   W12
 .byte   N05
 .byte   W12
 .byte   N05
 .byte   W12
 .byte   PEND 
@ 064   ----------------------------------------
 .byte   PATT
  .word Label_7_014C29AB
@ 065   ----------------------------------------
 .byte   PATT
  .word Label_7_014C2963
@ 066   ----------------------------------------
 .byte   PATT
  .word Label_7_014C2963
@ 067   ----------------------------------------
 .byte   PATT
  .word Label_7_014C2993
@ 068   ----------------------------------------
 .byte   PATT
  .word Label_7_014C2993
@ 069   ----------------------------------------
 .byte   N92 ,Dn2 ,v092
 .byte   W96
@ 070   ----------------------------------------
 .byte   En2
 .byte   W96
@ 071   ----------------------------------------
 .byte   Fn2
 .byte   W96
@ 072   ----------------------------------------
 .byte   Dn2
 .byte   W96
@ 073   ----------------------------------------
 .byte   PATT
  .word Label_7_014C2963
@ 074   ----------------------------------------
 .byte   PATT
  .word Label_7_014C2963
@ 075   ----------------------------------------
 .byte   PATT
  .word Label_7_014C297B
@ 076   ----------------------------------------
 .byte   PATT
  .word Label_7_014C297B
@ 077   ----------------------------------------
 .byte   PATT
  .word Label_7_014C2993
@ 078   ----------------------------------------
 .byte   PATT
  .word Label_7_014C2993
@ 079   ----------------------------------------
 .byte   PATT
  .word Label_7_014C29AB
@ 080   ----------------------------------------
 .byte   PATT
  .word Label_7_014C29AB
@ 081   ----------------------------------------
 .byte   PATT
  .word Label_7_014C2963
@ 082   ----------------------------------------
 .byte   PATT
  .word Label_7_014C2963
@ 083   ----------------------------------------
 .byte   PATT
  .word Label_7_014C2993
@ 084   ----------------------------------------
 .byte   PATT
  .word Label_7_014C2993
@ 085   ----------------------------------------
 .byte   N92 ,Dn2 ,v092
 .byte   W96
@ 086   ----------------------------------------
 .byte   En2
 .byte   W96
@ 087   ----------------------------------------
 .byte   Fn2
 .byte   W96
@ 088   ----------------------------------------
 .byte   Fs2
 .byte   W96
@ 089   ----------------------------------------
 .byte   W96
@ 090   ----------------------------------------
 .byte   W96
@ 091   ----------------------------------------
 .byte   W96
@ 092   ----------------------------------------
 .byte   W96
@ 093   ----------------------------------------
Label_7_014C2A2B:
 .byte   N23 ,Dn1 ,v092
 .byte   W24
 .byte   N05
 .byte   W12
 .byte   N05
 .byte   W12
 .byte   N05
 .byte   W12
 .byte   N05
 .byte   W12
 .byte   N05
 .byte   W12
 .byte   N05
 .byte   W12
 .byte   PEND 
@ 094   ----------------------------------------
Label_7_014C2A3C:
 .byte   N05 ,Dn1 ,v092
 .byte   W12
 .byte   N05
 .byte   W12
 .byte   N05
 .byte   W12
 .byte   N05
 .byte   W12
 .byte   N05
 .byte   W12
 .byte   N05
 .byte   W12
 .byte   N05
 .byte   W12
 .byte   N05
 .byte   W12
 .byte   PEND 
@ 095   ----------------------------------------
Label_7_014C2A4F:
 .byte   N23 ,En1 ,v092
 .byte   W24
 .byte   N05
 .byte   W12
 .byte   N05
 .byte   W12
 .byte   N05
 .byte   W12
 .byte   N05
 .byte   W12
 .byte   N05
 .byte   W12
 .byte   N05
 .byte   W12
 .byte   PEND 
@ 096   ----------------------------------------
Label_7_014C2A60:
 .byte   N05 ,En1 ,v092
 .byte   W12
 .byte   N05
 .byte   W12
 .byte   N05
 .byte   W12
 .byte   N05
 .byte   W12
 .byte   N05
 .byte   W12
 .byte   N05
 .byte   W12
 .byte   N05
 .byte   W12
 .byte   N05
 .byte   W12
 .byte   PEND 
@ 097   ----------------------------------------
Label_7_014C2A73:
 .byte   N23 ,Fs1 ,v092
 .byte   W24
 .byte   N05
 .byte   W12
 .byte   N05
 .byte   W12
 .byte   N05
 .byte   W12
 .byte   N05
 .byte   W12
 .byte   N05
 .byte   W12
 .byte   N05
 .byte   W12
 .byte   PEND 
@ 098   ----------------------------------------
Label_7_014C2A84:
 .byte   N05 ,Fs1 ,v092
 .byte   W12
 .byte   N05
 .byte   W12
 .byte   N05
 .byte   W12
 .byte   N05
 .byte   W12
 .byte   N05
 .byte   W12
 .byte   N05
 .byte   W12
 .byte   N05
 .byte   W12
 .byte   N05
 .byte   W12
 .byte   PEND 
@ 099   ----------------------------------------
Label_7_014C2A97:
 .byte   N23 ,Gn1 ,v092
 .byte   W24
 .byte   N05
 .byte   W12
 .byte   N05
 .byte   W12
 .byte   N05
 .byte   W12
 .byte   N05
 .byte   W12
 .byte   N05
 .byte   W12
 .byte   N05
 .byte   W12
 .byte   PEND 
@ 100   ----------------------------------------
Label_7_014C2AA8:
 .byte   N44 ,Gn1 ,v092
 .byte   W48
 .byte   Fn1
 .byte   W48
 .byte   PEND 
@ 101   ----------------------------------------
 .byte   PATT
  .word Label_7_014C2A4F
@ 102   ----------------------------------------
 .byte   PATT
  .word Label_7_014C2993
@ 103   ----------------------------------------
Label_7_014C2AB9:
 .byte   N05 ,Dn1 ,v092
 .byte   W12
 .byte   N05
 .byte   W12
 .byte   N05
 .byte   W12
 .byte   N05
 .byte   W12
 .byte   En1
 .byte   W12
 .byte   N05
 .byte   W12
 .byte   N05
 .byte   W12
 .byte   N05
 .byte   W12
 .byte   PEND 
@ 104   ----------------------------------------
Label_7_014C2ACC:
 .byte   N05 ,Fn1 ,v092
 .byte   W12
 .byte   N05
 .byte   W12
 .byte   N05
 .byte   W12
 .byte   N05
 .byte   W12
 .byte   Fs1
 .byte   W12
 .byte   N05
 .byte   W12
 .byte   N05
 .byte   W12
 .byte   N05
 .byte   W12
 .byte   PEND 
@ 105   ----------------------------------------
 .byte   PATT
  .word Label_7_014C2A97
@ 106   ----------------------------------------
Label_7_014C2AE4:
 .byte   N23 ,Gs1 ,v092
 .byte   W24
 .byte   N05
 .byte   W12
 .byte   N05
 .byte   W12
 .byte   N05
 .byte   W12
 .byte   N05
 .byte   W12
 .byte   N05
 .byte   W12
 .byte   N05
 .byte   W12
 .byte   PEND 
@ 107   ----------------------------------------
Label_7_014C2AF5:
 .byte   N23 ,An1 ,v092
 .byte   W24
 .byte   N05
 .byte   W12
 .byte   N05
 .byte   W12
 .byte   N05
 .byte   W12
 .byte   N05
 .byte   W12
 .byte   N05
 .byte   W12
 .byte   N05
 .byte   W12
 .byte   PEND 
@ 108   ----------------------------------------
Label_7_014C2B06:
 .byte   N05 ,An1 ,v092
 .byte   W12
 .byte   N05
 .byte   W12
 .byte   N05
 .byte   W12
 .byte   N05
 .byte   W12
 .byte   N44 ,Cs2
 .byte   W48
 .byte   PEND 
@ 109   ----------------------------------------
 .byte   PATT
  .word Label_7_014C284F
@ 110   ----------------------------------------
 .byte   PATT
  .word Label_7_014C2867
@ 111   ----------------------------------------
 .byte   PATT
  .word Label_7_014C284F
@ 112   ----------------------------------------
 .byte   PATT
  .word Label_7_014C287F
@ 113   ----------------------------------------
 .byte   PATT
  .word Label_7_014C2899
@ 114   ----------------------------------------
 .byte   PATT
  .word Label_7_014C28B1
@ 115   ----------------------------------------
 .byte   PATT
  .word Label_7_014C2899
@ 116   ----------------------------------------
 .byte   PATT
  .word Label_7_014C28C9
@ 117   ----------------------------------------
 .byte   PATT
  .word Label_7_014C284F
@ 118   ----------------------------------------
 .byte   PATT
  .word Label_7_014C2867
@ 119   ----------------------------------------
 .byte   PATT
  .word Label_7_014C284F
@ 120   ----------------------------------------
 .byte   PATT
  .word Label_7_014C287F
@ 121   ----------------------------------------
 .byte   PATT
  .word Label_7_014C2899
@ 122   ----------------------------------------
 .byte   PATT
  .word Label_7_014C28B1
@ 123   ----------------------------------------
 .byte   PATT
  .word Label_7_014C2899
@ 124   ----------------------------------------
 .byte   PATT
  .word Label_7_014C28C9
@ 125   ----------------------------------------
 .byte   PATT
  .word Label_7_014C28FC
@ 126   ----------------------------------------
 .byte   PATT
  .word Label_7_014C2867
@ 127   ----------------------------------------
 .byte   PATT
  .word Label_7_014C28B1
@ 128   ----------------------------------------
 .byte   PATT
  .word Label_7_014C28B1
@ 129   ----------------------------------------
 .byte   PATT
  .word Label_7_014C2923
@ 130   ----------------------------------------
 .byte   PATT
  .word Label_7_014C2923
@ 131   ----------------------------------------
 .byte   N92 ,Cn2 ,v092
 .byte   N92 ,Fn2
 .byte   W96
@ 132   ----------------------------------------
 .byte   En2
 .byte   N92 ,An2
 .byte   W96
@ 133   ----------------------------------------
 .byte   PATT
  .word Label_7_014C2867
@ 134   ----------------------------------------
 .byte   PATT
  .word Label_7_014C2867
@ 135   ----------------------------------------
 .byte   PATT
  .word Label_7_014C28B1
@ 136   ----------------------------------------
 .byte   PATT
  .word Label_7_014C28B1
@ 137   ----------------------------------------
 .byte   N92 ,As1 ,v092
 .byte   W96
@ 138   ----------------------------------------
 .byte   Cs2
 .byte   W96
@ 139   ----------------------------------------
 .byte   Dn2
 .byte   W96
@ 140   ----------------------------------------
 .byte   En2
 .byte   W96
@ 141   ----------------------------------------
 .byte   PATT
  .word Label_7_014C2963
@ 142   ----------------------------------------
 .byte   PATT
  .word Label_7_014C2963
@ 143   ----------------------------------------
 .byte   PATT
  .word Label_7_014C297B
@ 144   ----------------------------------------
 .byte   PATT
  .word Label_7_014C297B
@ 145   ----------------------------------------
 .byte   PATT
  .word Label_7_014C2993
@ 146   ----------------------------------------
 .byte   PATT
  .word Label_7_014C2993
@ 147   ----------------------------------------
 .byte   PATT
  .word Label_7_014C29AB
@ 148   ----------------------------------------
 .byte   PATT
  .word Label_7_014C29AB
@ 149   ----------------------------------------
 .byte   PATT
  .word Label_7_014C2963
@ 150   ----------------------------------------
 .byte   PATT
  .word Label_7_014C2963
@ 151   ----------------------------------------
 .byte   PATT
  .word Label_7_014C2993
@ 152   ----------------------------------------
 .byte   PATT
  .word Label_7_014C2993
@ 153   ----------------------------------------
 .byte   N92 ,Dn2 ,v092
 .byte   W96
@ 154   ----------------------------------------
 .byte   En2
 .byte   W96
@ 155   ----------------------------------------
 .byte   Fn2
 .byte   W96
@ 156   ----------------------------------------
 .byte   Dn2
 .byte   W96
@ 157   ----------------------------------------
 .byte   PATT
  .word Label_7_014C2963
@ 158   ----------------------------------------
 .byte   PATT
  .word Label_7_014C2963
@ 159   ----------------------------------------
 .byte   PATT
  .word Label_7_014C297B
@ 160   ----------------------------------------
 .byte   PATT
  .word Label_7_014C297B
@ 161   ----------------------------------------
 .byte   PATT
  .word Label_7_014C2993
@ 162   ----------------------------------------
 .byte   PATT
  .word Label_7_014C2993
@ 163   ----------------------------------------
 .byte   PATT
  .word Label_7_014C29AB
@ 164   ----------------------------------------
 .byte   PATT
  .word Label_7_014C29AB
@ 165   ----------------------------------------
 .byte   PATT
  .word Label_7_014C2963
@ 166   ----------------------------------------
 .byte   PATT
  .word Label_7_014C2963
@ 167   ----------------------------------------
 .byte   PATT
  .word Label_7_014C2993
@ 168   ----------------------------------------
 .byte   PATT
  .word Label_7_014C2993
@ 169   ----------------------------------------
 .byte   N92 ,Dn2 ,v092
 .byte   W96
@ 170   ----------------------------------------
 .byte   En2
 .byte   W96
@ 171   ----------------------------------------
 .byte   Fn2
 .byte   W96
@ 172   ----------------------------------------
 .byte   Fs2
 .byte   W96
@ 173   ----------------------------------------
 .byte   W96
@ 174   ----------------------------------------
 .byte   W96
@ 175   ----------------------------------------
 .byte   W96
@ 176   ----------------------------------------
 .byte   W96
@ 177   ----------------------------------------
 .byte   PATT
  .word Label_7_014C2A2B
@ 178   ----------------------------------------
 .byte   PATT
  .word Label_7_014C2A3C
@ 179   ----------------------------------------
 .byte   PATT
  .word Label_7_014C2A4F
@ 180   ----------------------------------------
 .byte   PATT
  .word Label_7_014C2A60
@ 181   ----------------------------------------
 .byte   PATT
  .word Label_7_014C2A73
@ 182   ----------------------------------------
 .byte   PATT
  .word Label_7_014C2A84
@ 183   ----------------------------------------
 .byte   PATT
  .word Label_7_014C2A97
@ 184   ----------------------------------------
 .byte   PATT
  .word Label_7_014C2AA8
@ 185   ----------------------------------------
 .byte   PATT
  .word Label_7_014C2A4F
@ 186   ----------------------------------------
 .byte   PATT
  .word Label_7_014C2993
@ 187   ----------------------------------------
 .byte   PATT
  .word Label_7_014C2AB9
@ 188   ----------------------------------------
 .byte   PATT
  .word Label_7_014C2ACC
@ 189   ----------------------------------------
 .byte   PATT
  .word Label_7_014C2A97
@ 190   ----------------------------------------
 .byte   PATT
  .word Label_7_014C2AE4
@ 191   ----------------------------------------
 .byte   PATT
  .word Label_7_014C2AF5
@ 192   ----------------------------------------
 .byte   PATT
  .word Label_7_014C2B06
@ 193   ----------------------------------------
 .byte   PATT
  .word Label_7_014C284F
@ 194   ----------------------------------------
 .byte   PATT
  .word Label_7_014C2867
@ 195   ----------------------------------------
 .byte   PATT
  .word Label_7_014C284F
@ 196   ----------------------------------------
 .byte   PATT
  .word Label_7_014C287F
@ 197   ----------------------------------------
 .byte   PATT
  .word Label_7_014C2899
@ 198   ----------------------------------------
 .byte   PATT
  .word Label_7_014C28B1
@ 199   ----------------------------------------
 .byte   PATT
  .word Label_7_014C2899
@ 200   ----------------------------------------
 .byte   PATT
  .word Label_7_014C28C9
@ 201   ----------------------------------------
 .byte   PATT
  .word Label_7_014C284F
@ 202   ----------------------------------------
 .byte   PATT
  .word Label_7_014C2867
@ 203   ----------------------------------------
 .byte   PATT
  .word Label_7_014C284F
@ 204   ----------------------------------------
 .byte   PATT
  .word Label_7_014C287F
@ 205   ----------------------------------------
 .byte   PATT
  .word Label_7_014C2899
@ 206   ----------------------------------------
 .byte   PATT
  .word Label_7_014C28B1
@ 207   ----------------------------------------
 .byte   PATT
  .word Label_7_014C2899
@ 208   ----------------------------------------
 .byte   PATT
  .word Label_7_014C28C9
@ 209   ----------------------------------------
 .byte   PATT
  .word Label_7_014C28FC
@ 210   ----------------------------------------
 .byte   PATT
  .word Label_7_014C2867
@ 211   ----------------------------------------
 .byte   PATT
  .word Label_7_014C28B1
@ 212   ----------------------------------------
 .byte   PATT
  .word Label_7_014C28B1
@ 213   ----------------------------------------
 .byte   PATT
  .word Label_7_014C2923
@ 214   ----------------------------------------
 .byte   PATT
  .word Label_7_014C2923
@ 215   ----------------------------------------
 .byte   N92 ,Cn2 ,v092
 .byte   N92 ,Fn2
 .byte   W96
@ 216   ----------------------------------------
 .byte   En2
 .byte   N92 ,An2
 .byte   W96
@ 217   ----------------------------------------
 .byte   PATT
  .word Label_7_014C2867
@ 218   ----------------------------------------
 .byte   PATT
  .word Label_7_014C2867
@ 219   ----------------------------------------
 .byte   PATT
  .word Label_7_014C28B1
@ 220   ----------------------------------------
 .byte   PATT
  .word Label_7_014C28B1
@ 221   ----------------------------------------
 .byte   N92 ,As1 ,v092
 .byte   W96
@ 222   ----------------------------------------
 .byte   Cs2
 .byte   W96
@ 223   ----------------------------------------
 .byte   Dn2
 .byte   W96
@ 224   ----------------------------------------
 .byte   En2
 .byte   W96
@ 225   ----------------------------------------
 .byte   PATT
  .word Label_7_014C2963
@ 226   ----------------------------------------
 .byte   PATT
  .word Label_7_014C2963
@ 227   ----------------------------------------
 .byte   PATT
  .word Label_7_014C297B
@ 228   ----------------------------------------
 .byte   PATT
  .word Label_7_014C297B
@ 229   ----------------------------------------
 .byte   PATT
  .word Label_7_014C2993
@ 230   ----------------------------------------
 .byte   PATT
  .word Label_7_014C2993
@ 231   ----------------------------------------
 .byte   PATT
  .word Label_7_014C29AB
@ 232   ----------------------------------------
 .byte   PATT
  .word Label_7_014C29AB
@ 233   ----------------------------------------
 .byte   PATT
  .word Label_7_014C2963
@ 234   ----------------------------------------
 .byte   PATT
  .word Label_7_014C2963
@ 235   ----------------------------------------
 .byte   PATT
  .word Label_7_014C2993
@ 236   ----------------------------------------
 .byte   PATT
  .word Label_7_014C2993
@ 237   ----------------------------------------
 .byte   N92 ,Dn2 ,v092
 .byte   W96
@ 238   ----------------------------------------
 .byte   En2
 .byte   W96
@ 239   ----------------------------------------
 .byte   Fn2
 .byte   W96
@ 240   ----------------------------------------
 .byte   Dn2
 .byte   W96
@ 241   ----------------------------------------
 .byte   PATT
  .word Label_7_014C2963
@ 242   ----------------------------------------
 .byte   PATT
  .word Label_7_014C2963
@ 243   ----------------------------------------
 .byte   PATT
  .word Label_7_014C297B
@ 244   ----------------------------------------
 .byte   PATT
  .word Label_7_014C297B
@ 245   ----------------------------------------
 .byte   PATT
  .word Label_7_014C2993
@ 246   ----------------------------------------
 .byte   PATT
  .word Label_7_014C2993
@ 247   ----------------------------------------
 .byte   PATT
  .word Label_7_014C29AB
@ 248   ----------------------------------------
 .byte   PATT
  .word Label_7_014C29AB
@ 249   ----------------------------------------
 .byte   PATT
  .word Label_7_014C2963
@ 250   ----------------------------------------
 .byte   PATT
  .word Label_7_014C2963
@ 251   ----------------------------------------
 .byte   PATT
  .word Label_7_014C2993
@ 252   ----------------------------------------
 .byte   PATT
  .word Label_7_014C2993
@ 253   ----------------------------------------
 .byte   N92 ,Dn2 ,v092
 .byte   W96
@ 254   ----------------------------------------
 .byte   En2
 .byte   W96
@ 255   ----------------------------------------
 .byte   Fn2
 .byte   W96
@ 256   ----------------------------------------
 .byte   Fs2
 .byte   W96
@ 257   ----------------------------------------
 .byte   GOTO
  .word Label_7_014C2835
@ 258   ----------------------------------------
 .byte   W96
@ 259   ----------------------------------------
 .byte   W96
@ 260   ----------------------------------------
 .byte   W96
@ 261   ----------------------------------------
 .byte   W96
@ 262   ----------------------------------------
 .byte   W96
@ 263   ----------------------------------------
 .byte   W96
@ 264   ----------------------------------------
 .byte   W96
@ 265   ----------------------------------------
 .byte   W96
@ 266   ----------------------------------------
 .byte   W92
 .byte   W03
 .byte   FINE

@**************** Track 9 (Midi-Chn.8) ****************@

song09_009:
@ 000   ----------------------------------------
 .byte   KEYSH , song09_key+0
 .byte   VOICE , 30
 .byte   PAN , c_v-7
 .byte   VOL , 45*song09_mvl/mxv
 .byte   W96
@ 001   ----------------------------------------
 .byte   W96
@ 002   ----------------------------------------
 .byte   W96
@ 003   ----------------------------------------
 .byte   W96
@ 004   ----------------------------------------
 .byte   W96
@ 005   ----------------------------------------
 .byte   W96
@ 006   ----------------------------------------
 .byte   W96
@ 007   ----------------------------------------
 .byte   W96
@ 008   ----------------------------------------
 .byte   W96
@ 009   ----------------------------------------
 .byte   W96
@ 010   ----------------------------------------
 .byte   W96
@ 011   ----------------------------------------
 .byte   W96
@ 012   ----------------------------------------
 .byte   W96
@ 013   ----------------------------------------
 .byte   W96
@ 014   ----------------------------------------
 .byte   W96
@ 015   ----------------------------------------
 .byte   W96
@ 016   ----------------------------------------
 .byte   W96
@ 017   ----------------------------------------
Label_8_014C2DD5:
 .byte   N11 ,Fn3 ,v092
 .byte   W12
 .byte   An2
 .byte   W12
 .byte   Fn3
 .byte   W12
 .byte   An2
 .byte   W12
 .byte   Gn3
 .byte   W12
 .byte   An2
 .byte   W12
 .byte   Gn3
 .byte   W12
 .byte   An2
 .byte   W12
 .byte   PEND 
@ 018   ----------------------------------------
Label_8_014C2DE8:
 .byte   N11 ,En3 ,v092
 .byte   W12
 .byte   An2
 .byte   W12
 .byte   En3
 .byte   W12
 .byte   An2
 .byte   W12
 .byte   Fn3
 .byte   W12
 .byte   An2
 .byte   W12
 .byte   Fn3
 .byte   W12
 .byte   An2
 .byte   W12
 .byte   PEND 
@ 019   ----------------------------------------
Label_8_014C2DFB:
 .byte   N11 ,Dn3 ,v092
 .byte   W12
 .byte   An2
 .byte   W12
 .byte   Dn3
 .byte   W12
 .byte   An2
 .byte   W12
 .byte   En3
 .byte   W12
 .byte   An2
 .byte   W12
 .byte   En3
 .byte   W12
 .byte   An2
 .byte   W12
 .byte   PEND 
@ 020   ----------------------------------------
Label_8_014C2E0E:
 .byte   N11 ,Cs3 ,v092
 .byte   W12
 .byte   An2
 .byte   W12
 .byte   Dn3
 .byte   W12
 .byte   An2
 .byte   W12
 .byte   En3
 .byte   W12
 .byte   An2
 .byte   W12
 .byte   Fn3
 .byte   W12
 .byte   An2
 .byte   W12
 .byte   PEND 
@ 021   ----------------------------------------
 .byte   PATT
  .word Label_8_014C2DD5
@ 022   ----------------------------------------
 .byte   PATT
  .word Label_8_014C2DE8
@ 023   ----------------------------------------
 .byte   PATT
  .word Label_8_014C2DFB
@ 024   ----------------------------------------
Label_8_014C2E30:
 .byte   N11 ,Cs3 ,v092
 .byte   W12
 .byte   An2
 .byte   W12
 .byte   Dn3
 .byte   W12
 .byte   An2
 .byte   W12
 .byte   As3
 .byte   W12
 .byte   An2
 .byte   W12
 .byte   An3
 .byte   W12
 .byte   An2
 .byte   W12
 .byte   PEND 
@ 025   ----------------------------------------
 .byte   PATT
  .word Label_8_014C2DD5
@ 026   ----------------------------------------
 .byte   PATT
  .word Label_8_014C2DE8
@ 027   ----------------------------------------
 .byte   PATT
  .word Label_8_014C2DFB
@ 028   ----------------------------------------
 .byte   PATT
  .word Label_8_014C2E0E
@ 029   ----------------------------------------
 .byte   PATT
  .word Label_8_014C2DD5
@ 030   ----------------------------------------
 .byte   PATT
  .word Label_8_014C2DE8
@ 031   ----------------------------------------
 .byte   PATT
  .word Label_8_014C2DFB
@ 032   ----------------------------------------
 .byte   PATT
  .word Label_8_014C2E30
@ 033   ----------------------------------------
 .byte   PATT
  .word Label_8_014C2DD5
@ 034   ----------------------------------------
 .byte   PATT
  .word Label_8_014C2DE8
@ 035   ----------------------------------------
 .byte   PATT
  .word Label_8_014C2DFB
@ 036   ----------------------------------------
 .byte   PATT
  .word Label_8_014C2E0E
@ 037   ----------------------------------------
 .byte   PATT
  .word Label_8_014C2DD5
@ 038   ----------------------------------------
 .byte   PATT
  .word Label_8_014C2DE8
@ 039   ----------------------------------------
 .byte   PATT
  .word Label_8_014C2DFB
@ 040   ----------------------------------------
 .byte   PATT
  .word Label_8_014C2E30
@ 041   ----------------------------------------
Label_8_014C2E93:
 .byte   N02 ,En3 ,v108
 .byte   N92 ,Fn3 ,v092
 .byte   W96
 .byte   PEND 
@ 042   ----------------------------------------
Label_8_014C2E9B:
 .byte   N02 ,Dn3 ,v108
 .byte   N44 ,En3 ,v092
 .byte   W48
 .byte   Gn3
 .byte   W48
 .byte   PEND 
@ 043   ----------------------------------------
Label_8_014C2EA5:
 .byte   N02 ,En3 ,v108
 .byte   TIE ,Fn3 ,v092
 .byte   W96
 .byte   PEND 
@ 044   ----------------------------------------
 .byte   W92
 .byte   W03
 .byte   EOT
 .byte   W01
@ 045   ----------------------------------------
 .byte   PATT
  .word Label_8_014C2E93
@ 046   ----------------------------------------
Label_8_014C2EB6:
 .byte   N02 ,Dn3 ,v108
 .byte   N32 ,En3 ,v092
 .byte   W36
 .byte   Fn3
 .byte   W36
 .byte   N23 ,Gn3
 .byte   W24
 .byte   PEND 
@ 047   ----------------------------------------
Label_8_014C2EC3:
 .byte   N02 ,Gn3 ,v108
 .byte   N32 ,An3 ,v092
 .byte   W36
 .byte   As3
 .byte   W36
 .byte   N23 ,An3
 .byte   W24
 .byte   PEND 
@ 048   ----------------------------------------
 .byte   N92 ,En3
 .byte   W96
@ 049   ----------------------------------------
 .byte   PATT
  .word Label_8_014C2E93
@ 050   ----------------------------------------
 .byte   PATT
  .word Label_8_014C2E9B
@ 051   ----------------------------------------
 .byte   PATT
  .word Label_8_014C2EA5
@ 052   ----------------------------------------
 .byte   W92
 .byte   W03
 .byte   EOT
 .byte   Fn3
 .byte   W01
@ 053   ----------------------------------------
 .byte   PATT
  .word Label_8_014C2E93
@ 054   ----------------------------------------
 .byte   PATT
  .word Label_8_014C2EB6
@ 055   ----------------------------------------
 .byte   PATT
  .word Label_8_014C2EC3
@ 056   ----------------------------------------
 .byte   N92 ,Gn3 ,v092
 .byte   W96
@ 057   ----------------------------------------
 .byte   W96
@ 058   ----------------------------------------
Label_8_014C2EFB:
 .byte   N44 ,Fn3 ,v092
 .byte   W48
 .byte   Gn3
 .byte   W48
 .byte   PEND 
@ 059   ----------------------------------------
Label_8_014C2F02:
 .byte   N32 ,Cn3 ,v092
 .byte   W36
 .byte   Dn3
 .byte   W36
 .byte   TIE ,En3
 .byte   W24
 .byte   PEND 
@ 060   ----------------------------------------
 .byte   W92
 .byte   W03
 .byte   EOT
 .byte   W01
@ 061   ----------------------------------------
 .byte   N92 ,En2
 .byte   W96
@ 062   ----------------------------------------
Label_8_014C2F13:
 .byte   N44 ,Gn3 ,v092
 .byte   W48
 .byte   En3
 .byte   W48
 .byte   PEND 
@ 063   ----------------------------------------
Label_8_014C2F1A:
 .byte   N32 ,As2 ,v092
 .byte   W36
 .byte   Cn3
 .byte   W36
 .byte   TIE ,Dn3
 .byte   W24
 .byte   PEND 
@ 064   ----------------------------------------
 .byte   W92
 .byte   W03
 .byte   EOT
 .byte   W01
@ 065   ----------------------------------------
 .byte   TIE ,Gn3
 .byte   W96
@ 066   ----------------------------------------
 .byte   W92
 .byte   W03
 .byte   EOT
 .byte   W01
@ 067   ----------------------------------------
 .byte   N44 ,En3
 .byte   W48
 .byte   Fn3
 .byte   W48
@ 068   ----------------------------------------
Label_8_014C2F34:
 .byte   N44 ,Gn3 ,v092
 .byte   W48
 .byte   An3
 .byte   W48
 .byte   PEND 
@ 069   ----------------------------------------
Label_8_014C2F3B:
 .byte   N11 ,Gn2 ,v092
 .byte   W12
 .byte   Dn3
 .byte   W12
 .byte   Cs3
 .byte   W12
 .byte   Dn3
 .byte   W12
 .byte   Gn2
 .byte   W12
 .byte   Dn3
 .byte   W12
 .byte   Cs3
 .byte   W12
 .byte   Dn3
 .byte   W12
 .byte   PEND 
@ 070   ----------------------------------------
Label_8_014C2F4E:
 .byte   N11 ,An2 ,v092
 .byte   W12
 .byte   En3
 .byte   W12
 .byte   Dn3
 .byte   W12
 .byte   En3
 .byte   W12
 .byte   An2
 .byte   W12
 .byte   En3
 .byte   W12
 .byte   Dn3
 .byte   W12
 .byte   En3
 .byte   W12
 .byte   PEND 
@ 071   ----------------------------------------
Label_8_014C2F61:
 .byte   N11 ,Gn3 ,v092
 .byte   W12
 .byte   Fn3
 .byte   W12
 .byte   En3
 .byte   W12
 .byte   Dn3
 .byte   W12
 .byte   Cs3
 .byte   W12
 .byte   Dn3
 .byte   W12
 .byte   En3
 .byte   W12
 .byte   Fn3
 .byte   W12
 .byte   PEND 
@ 072   ----------------------------------------
Label_8_014C2F74:
 .byte   N11 ,Gn3 ,v092
 .byte   W12
 .byte   Fn3
 .byte   W12
 .byte   As3
 .byte   W12
 .byte   N56 ,An3
 .byte   W60
 .byte   PEND 
@ 073   ----------------------------------------
 .byte   W96
@ 074   ----------------------------------------
 .byte   PATT
  .word Label_8_014C2EFB
@ 075   ----------------------------------------
 .byte   PATT
  .word Label_8_014C2F02
@ 076   ----------------------------------------
 .byte   W92
 .byte   W03
 .byte   EOT
 .byte   En3
 .byte   W01
@ 077   ----------------------------------------
 .byte   N92 ,En2 ,v092
 .byte   W96
@ 078   ----------------------------------------
 .byte   PATT
  .word Label_8_014C2F13
@ 079   ----------------------------------------
 .byte   PATT
  .word Label_8_014C2F1A
@ 080   ----------------------------------------
 .byte   W92
 .byte   W03
 .byte   EOT
 .byte   Dn3
 .byte   W01
@ 081   ----------------------------------------
 .byte   TIE ,Gn3 ,v092
 .byte   W96
@ 082   ----------------------------------------
 .byte   W92
 .byte   W03
 .byte   EOT
 .byte   W01
@ 083   ----------------------------------------
 .byte   N44 ,En3
 .byte   W48
 .byte   Fn3
 .byte   W48
@ 084   ----------------------------------------
 .byte   PATT
  .word Label_8_014C2F34
@ 085   ----------------------------------------
 .byte   PATT
  .word Label_8_014C2F3B
@ 086   ----------------------------------------
 .byte   PATT
  .word Label_8_014C2F4E
@ 087   ----------------------------------------
 .byte   PATT
  .word Label_8_014C2F61
@ 088   ----------------------------------------
Label_8_014C2FC4:
 .byte   N11 ,Fs3 ,v092
 .byte   W12
 .byte   Dn3
 .byte   W12
 .byte   Fs3
 .byte   W12
 .byte   An3
 .byte   W12
 .byte   As3
 .byte   W12
 .byte   An3
 .byte   W12
 .byte   Gn3
 .byte   W12
 .byte   Fs3
 .byte   W12
 .byte   PEND 
@ 089   ----------------------------------------
 .byte   W96
@ 090   ----------------------------------------
 .byte   W96
@ 091   ----------------------------------------
 .byte   W96
@ 092   ----------------------------------------
 .byte   W96
@ 093   ----------------------------------------
 .byte   W96
@ 094   ----------------------------------------
 .byte   W96
@ 095   ----------------------------------------
 .byte   W96
@ 096   ----------------------------------------
 .byte   W96
@ 097   ----------------------------------------
 .byte   W96
@ 098   ----------------------------------------
 .byte   W96
@ 099   ----------------------------------------
 .byte   W96
@ 100   ----------------------------------------
 .byte   W96
@ 101   ----------------------------------------
 .byte   W96
@ 102   ----------------------------------------
 .byte   W96
@ 103   ----------------------------------------
 .byte   W96
@ 104   ----------------------------------------
 .byte   W96
@ 105   ----------------------------------------
 .byte   W96
@ 106   ----------------------------------------
 .byte   W96
@ 107   ----------------------------------------
 .byte   W96
@ 108   ----------------------------------------
 .byte   W96
@ 109   ----------------------------------------
 .byte   PATT
  .word Label_8_014C2DD5
@ 110   ----------------------------------------
 .byte   PATT
  .word Label_8_014C2DE8
@ 111   ----------------------------------------
 .byte   PATT
  .word Label_8_014C2DFB
@ 112   ----------------------------------------
 .byte   PATT
  .word Label_8_014C2E0E
@ 113   ----------------------------------------
 .byte   PATT
  .word Label_8_014C2DD5
@ 114   ----------------------------------------
 .byte   PATT
  .word Label_8_014C2DE8
@ 115   ----------------------------------------
 .byte   PATT
  .word Label_8_014C2DFB
@ 116   ----------------------------------------
 .byte   PATT
  .word Label_8_014C2E30
@ 117   ----------------------------------------
 .byte   PATT
  .word Label_8_014C2DD5
@ 118   ----------------------------------------
 .byte   PATT
  .word Label_8_014C2DE8
@ 119   ----------------------------------------
 .byte   PATT
  .word Label_8_014C2DFB
@ 120   ----------------------------------------
 .byte   PATT
  .word Label_8_014C2E0E
@ 121   ----------------------------------------
 .byte   PATT
  .word Label_8_014C2DD5
@ 122   ----------------------------------------
 .byte   PATT
  .word Label_8_014C2DE8
@ 123   ----------------------------------------
 .byte   PATT
  .word Label_8_014C2DFB
@ 124   ----------------------------------------
 .byte   PATT
  .word Label_8_014C2E30
@ 125   ----------------------------------------
 .byte   PATT
  .word Label_8_014C2E93
@ 126   ----------------------------------------
 .byte   PATT
  .word Label_8_014C2E9B
@ 127   ----------------------------------------
 .byte   PATT
  .word Label_8_014C2EA5
@ 128   ----------------------------------------
 .byte   W92
 .byte   W03
 .byte   EOT
 .byte   Fn3
 .byte   W01
@ 129   ----------------------------------------
 .byte   PATT
  .word Label_8_014C2E93
@ 130   ----------------------------------------
 .byte   PATT
  .word Label_8_014C2EB6
@ 131   ----------------------------------------
 .byte   PATT
  .word Label_8_014C2EC3
@ 132   ----------------------------------------
 .byte   N92 ,En3 ,v092
 .byte   W96
@ 133   ----------------------------------------
 .byte   PATT
  .word Label_8_014C2E93
@ 134   ----------------------------------------
 .byte   PATT
  .word Label_8_014C2E9B
@ 135   ----------------------------------------
 .byte   PATT
  .word Label_8_014C2EA5
@ 136   ----------------------------------------
 .byte   W92
 .byte   W03
 .byte   EOT
 .byte   Fn3
 .byte   W01
@ 137   ----------------------------------------
 .byte   PATT
  .word Label_8_014C2E93
@ 138   ----------------------------------------
 .byte   PATT
  .word Label_8_014C2EB6
@ 139   ----------------------------------------
 .byte   PATT
  .word Label_8_014C2EC3
@ 140   ----------------------------------------
 .byte   N92 ,Gn3 ,v092
 .byte   W96
@ 141   ----------------------------------------
 .byte   W96
@ 142   ----------------------------------------
 .byte   PATT
  .word Label_8_014C2EFB
@ 143   ----------------------------------------
 .byte   PATT
  .word Label_8_014C2F02
@ 144   ----------------------------------------
 .byte   W92
 .byte   W03
 .byte   EOT
 .byte   En3
 .byte   W01
@ 145   ----------------------------------------
 .byte   N92 ,En2 ,v092
 .byte   W96
@ 146   ----------------------------------------
 .byte   PATT
  .word Label_8_014C2F13
@ 147   ----------------------------------------
 .byte   PATT
  .word Label_8_014C2F1A
@ 148   ----------------------------------------
 .byte   W92
 .byte   W03
 .byte   EOT
 .byte   Dn3
 .byte   W01
@ 149   ----------------------------------------
 .byte   TIE ,Gn3 ,v092
 .byte   W96
@ 150   ----------------------------------------
 .byte   W92
 .byte   W03
 .byte   EOT
 .byte   W01
@ 151   ----------------------------------------
 .byte   N44 ,En3
 .byte   W48
 .byte   Fn3
 .byte   W48
@ 152   ----------------------------------------
 .byte   PATT
  .word Label_8_014C2F34
@ 153   ----------------------------------------
 .byte   PATT
  .word Label_8_014C2F3B
@ 154   ----------------------------------------
 .byte   PATT
  .word Label_8_014C2F4E
@ 155   ----------------------------------------
 .byte   PATT
  .word Label_8_014C2F61
@ 156   ----------------------------------------
 .byte   PATT
  .word Label_8_014C2F74
@ 157   ----------------------------------------
 .byte   W96
@ 158   ----------------------------------------
 .byte   PATT
  .word Label_8_014C2EFB
@ 159   ----------------------------------------
 .byte   PATT
  .word Label_8_014C2F02
@ 160   ----------------------------------------
 .byte   W92
 .byte   W03
 .byte   EOT
 .byte   En3
 .byte   W01
@ 161   ----------------------------------------
 .byte   N92 ,En2 ,v092
 .byte   W96
@ 162   ----------------------------------------
 .byte   PATT
  .word Label_8_014C2F13
@ 163   ----------------------------------------
 .byte   PATT
  .word Label_8_014C2F1A
@ 164   ----------------------------------------
 .byte   W92
 .byte   W03
 .byte   EOT
 .byte   Dn3
 .byte   W01
@ 165   ----------------------------------------
 .byte   TIE ,Gn3 ,v092
 .byte   W96
@ 166   ----------------------------------------
 .byte   W92
 .byte   W03
 .byte   EOT
 .byte   W01
@ 167   ----------------------------------------
 .byte   N44 ,En3
 .byte   W48
 .byte   Fn3
 .byte   W48
@ 168   ----------------------------------------
 .byte   PATT
  .word Label_8_014C2F34
@ 169   ----------------------------------------
 .byte   PATT
  .word Label_8_014C2F3B
@ 170   ----------------------------------------
 .byte   PATT
  .word Label_8_014C2F4E
@ 171   ----------------------------------------
 .byte   PATT
  .word Label_8_014C2F61
@ 172   ----------------------------------------
 .byte   PATT
  .word Label_8_014C2FC4
@ 173   ----------------------------------------
 .byte   W96
@ 174   ----------------------------------------
 .byte   W96
@ 175   ----------------------------------------
 .byte   W96
@ 176   ----------------------------------------
 .byte   W96
@ 177   ----------------------------------------
 .byte   W96
@ 178   ----------------------------------------
 .byte   W96
@ 179   ----------------------------------------
 .byte   W96
@ 180   ----------------------------------------
 .byte   W96
@ 181   ----------------------------------------
 .byte   W96
@ 182   ----------------------------------------
 .byte   W96
@ 183   ----------------------------------------
 .byte   W96
@ 184   ----------------------------------------
 .byte   W96
@ 185   ----------------------------------------
 .byte   W96
@ 186   ----------------------------------------
 .byte   W96
@ 187   ----------------------------------------
 .byte   W96
@ 188   ----------------------------------------
 .byte   W96
@ 189   ----------------------------------------
 .byte   W96
@ 190   ----------------------------------------
 .byte   W96
@ 191   ----------------------------------------
 .byte   W96
@ 192   ----------------------------------------
 .byte   W96
@ 193   ----------------------------------------
 .byte   PATT
  .word Label_8_014C2DD5
@ 194   ----------------------------------------
 .byte   PATT
  .word Label_8_014C2DE8
@ 195   ----------------------------------------
 .byte   PATT
  .word Label_8_014C2DFB
@ 196   ----------------------------------------
 .byte   PATT
  .word Label_8_014C2E0E
@ 197   ----------------------------------------
 .byte   PATT
  .word Label_8_014C2DD5
@ 198   ----------------------------------------
 .byte   PATT
  .word Label_8_014C2DE8
@ 199   ----------------------------------------
 .byte   PATT
  .word Label_8_014C2DFB
@ 200   ----------------------------------------
 .byte   PATT
  .word Label_8_014C2E30
@ 201   ----------------------------------------
 .byte   PATT
  .word Label_8_014C2DD5
@ 202   ----------------------------------------
 .byte   PATT
  .word Label_8_014C2DE8
@ 203   ----------------------------------------
 .byte   PATT
  .word Label_8_014C2DFB
@ 204   ----------------------------------------
 .byte   PATT
  .word Label_8_014C2E0E
@ 205   ----------------------------------------
 .byte   PATT
  .word Label_8_014C2DD5
@ 206   ----------------------------------------
 .byte   PATT
  .word Label_8_014C2DE8
@ 207   ----------------------------------------
 .byte   PATT
  .word Label_8_014C2DFB
@ 208   ----------------------------------------
 .byte   PATT
  .word Label_8_014C2E30
@ 209   ----------------------------------------
 .byte   PATT
  .word Label_8_014C2E93
@ 210   ----------------------------------------
 .byte   PATT
  .word Label_8_014C2E9B
@ 211   ----------------------------------------
 .byte   PATT
  .word Label_8_014C2EA5
@ 212   ----------------------------------------
 .byte   W92
 .byte   W03
 .byte   EOT
 .byte   Fn3
 .byte   W01
@ 213   ----------------------------------------
 .byte   PATT
  .word Label_8_014C2E93
@ 214   ----------------------------------------
 .byte   PATT
  .word Label_8_014C2EB6
@ 215   ----------------------------------------
 .byte   PATT
  .word Label_8_014C2EC3
@ 216   ----------------------------------------
 .byte   N92 ,En3 ,v092
 .byte   W96
@ 217   ----------------------------------------
 .byte   PATT
  .word Label_8_014C2E93
@ 218   ----------------------------------------
 .byte   PATT
  .word Label_8_014C2E9B
@ 219   ----------------------------------------
 .byte   PATT
  .word Label_8_014C2EA5
@ 220   ----------------------------------------
 .byte   W92
 .byte   W03
 .byte   EOT
 .byte   Fn3
 .byte   W01
@ 221   ----------------------------------------
 .byte   PATT
  .word Label_8_014C2E93
@ 222   ----------------------------------------
 .byte   PATT
  .word Label_8_014C2EB6
@ 223   ----------------------------------------
 .byte   PATT
  .word Label_8_014C2EC3
@ 224   ----------------------------------------
 .byte   N92 ,Gn3 ,v092
 .byte   W96
@ 225   ----------------------------------------
 .byte   W96
@ 226   ----------------------------------------
 .byte   PATT
  .word Label_8_014C2EFB
@ 227   ----------------------------------------
 .byte   PATT
  .word Label_8_014C2F02
@ 228   ----------------------------------------
 .byte   W92
 .byte   W03
 .byte   EOT
 .byte   En3
 .byte   W01
@ 229   ----------------------------------------
 .byte   N92 ,En2 ,v092
 .byte   W96
@ 230   ----------------------------------------
 .byte   PATT
  .word Label_8_014C2F13
@ 231   ----------------------------------------
 .byte   PATT
  .word Label_8_014C2F1A
@ 232   ----------------------------------------
 .byte   W92
 .byte   W03
 .byte   EOT
 .byte   Dn3
 .byte   W01
@ 233   ----------------------------------------
 .byte   TIE ,Gn3 ,v092
 .byte   W96
@ 234   ----------------------------------------
 .byte   W92
 .byte   W03
 .byte   EOT
 .byte   W01
@ 235   ----------------------------------------
 .byte   N44 ,En3
 .byte   W48
 .byte   Fn3
 .byte   W48
@ 236   ----------------------------------------
 .byte   PATT
  .word Label_8_014C2F34
@ 237   ----------------------------------------
 .byte   PATT
  .word Label_8_014C2F3B
@ 238   ----------------------------------------
 .byte   PATT
  .word Label_8_014C2F4E
@ 239   ----------------------------------------
 .byte   PATT
  .word Label_8_014C2F61
@ 240   ----------------------------------------
 .byte   PATT
  .word Label_8_014C2F74
@ 241   ----------------------------------------
 .byte   W96
@ 242   ----------------------------------------
 .byte   PATT
  .word Label_8_014C2EFB
@ 243   ----------------------------------------
 .byte   PATT
  .word Label_8_014C2F02
@ 244   ----------------------------------------
 .byte   W92
 .byte   W03
 .byte   EOT
 .byte   En3
 .byte   W01
@ 245   ----------------------------------------
 .byte   N92 ,En2 ,v092
 .byte   W96
@ 246   ----------------------------------------
 .byte   PATT
  .word Label_8_014C2F13
@ 247   ----------------------------------------
 .byte   PATT
  .word Label_8_014C2F1A
@ 248   ----------------------------------------
 .byte   W92
 .byte   W03
 .byte   EOT
 .byte   Dn3
 .byte   W01
@ 249   ----------------------------------------
 .byte   TIE ,Gn3 ,v092
 .byte   W96
@ 250   ----------------------------------------
 .byte   W92
 .byte   W03
 .byte   EOT
 .byte   W01
@ 251   ----------------------------------------
 .byte   N44 ,En3
 .byte   W48
 .byte   Fn3
 .byte   W48
@ 252   ----------------------------------------
 .byte   PATT
  .word Label_8_014C2F34
@ 253   ----------------------------------------
 .byte   PATT
  .word Label_8_014C2F3B
@ 254   ----------------------------------------
 .byte   PATT
  .word Label_8_014C2F4E
@ 255   ----------------------------------------
 .byte   PATT
  .word Label_8_014C2F61
@ 256   ----------------------------------------
 .byte   PATT
  .word Label_8_014C2FC4
@ 257   ----------------------------------------
 .byte   GOTO
  .word Label_8_014C2DD5
@ 258   ----------------------------------------
 .byte   W96
@ 259   ----------------------------------------
 .byte   W96
@ 260   ----------------------------------------
 .byte   W96
@ 261   ----------------------------------------
 .byte   W96
@ 262   ----------------------------------------
 .byte   W96
@ 263   ----------------------------------------
 .byte   W96
@ 264   ----------------------------------------
 .byte   W96
@ 265   ----------------------------------------
 .byte   W96
@ 266   ----------------------------------------
 .byte   W92
 .byte   W03
 .byte   FINE

@**************** Track 10 (Midi-Chn.9) ****************@

song09_010:
@ 000   ----------------------------------------
 .byte   KEYSH , song09_key+0
 .byte   VOICE , 30
 .byte   PAN , c_v+21
 .byte   VOL , 40*song09_mvl/mxv
 .byte   W96
@ 001   ----------------------------------------
 .byte   W96
@ 002   ----------------------------------------
 .byte   W96
@ 003   ----------------------------------------
 .byte   W96
@ 004   ----------------------------------------
 .byte   W96
@ 005   ----------------------------------------
 .byte   W96
@ 006   ----------------------------------------
 .byte   W96
@ 007   ----------------------------------------
 .byte   W96
@ 008   ----------------------------------------
 .byte   W96
@ 009   ----------------------------------------
 .byte   W96
@ 010   ----------------------------------------
 .byte   W96
@ 011   ----------------------------------------
 .byte   W96
@ 012   ----------------------------------------
 .byte   W96
@ 013   ----------------------------------------
 .byte   W96
@ 014   ----------------------------------------
 .byte   W96
@ 015   ----------------------------------------
 .byte   W96
@ 016   ----------------------------------------
 .byte   W96
@ 017   ----------------------------------------
Label_9_014C3289:
 .byte   W96
@ 018   ----------------------------------------
 .byte   W96
@ 019   ----------------------------------------
 .byte   W96
@ 020   ----------------------------------------
 .byte   W96
@ 021   ----------------------------------------
Label_9_014C328D:
 .byte   N11 ,An3 ,v092
 .byte   W12
 .byte   Dn3
 .byte   W12
 .byte   An3
 .byte   W12
 .byte   Dn3
 .byte   W12
 .byte   As3
 .byte   W12
 .byte   Dn3
 .byte   W12
 .byte   As3
 .byte   W12
 .byte   Dn3
 .byte   W12
 .byte   PEND 
@ 022   ----------------------------------------
Label_9_014C32A0:
 .byte   N11 ,Gn3 ,v092
 .byte   W12
 .byte   Dn3
 .byte   W12
 .byte   Gn3
 .byte   W12
 .byte   Dn3
 .byte   W12
 .byte   An3
 .byte   W12
 .byte   Dn3
 .byte   W12
 .byte   An3
 .byte   W12
 .byte   Dn3
 .byte   W12
 .byte   PEND 
@ 023   ----------------------------------------
Label_9_014C32B3:
 .byte   N11 ,Fn3 ,v092
 .byte   W12
 .byte   Dn3
 .byte   W12
 .byte   Fn3
 .byte   W12
 .byte   Dn3
 .byte   W12
 .byte   Gn3
 .byte   W12
 .byte   Dn3
 .byte   W12
 .byte   Gn3
 .byte   W12
 .byte   Dn3
 .byte   W12
 .byte   PEND 
@ 024   ----------------------------------------
Label_9_014C32C6:
 .byte   N11 ,En3 ,v092
 .byte   W12
 .byte   Dn3
 .byte   W12
 .byte   Fn3
 .byte   W12
 .byte   Dn3
 .byte   W12
 .byte   Dn4
 .byte   W12
 .byte   Dn3
 .byte   W12
 .byte   Cs4
 .byte   W12
 .byte   Dn3
 .byte   W12
 .byte   PEND 
@ 025   ----------------------------------------
 .byte   PATT
  .word Label_9_014C328D
@ 026   ----------------------------------------
 .byte   PATT
  .word Label_9_014C32A0
@ 027   ----------------------------------------
 .byte   PATT
  .word Label_9_014C32B3
@ 028   ----------------------------------------
Label_9_014C32E8:
 .byte   N11 ,En3 ,v092
 .byte   W12
 .byte   Dn3
 .byte   W12
 .byte   Fn3
 .byte   W12
 .byte   Dn3
 .byte   W12
 .byte   Gn3
 .byte   W12
 .byte   Dn3
 .byte   W12
 .byte   An3
 .byte   W12
 .byte   Dn3
 .byte   W12
 .byte   PEND 
@ 029   ----------------------------------------
 .byte   PATT
  .word Label_9_014C328D
@ 030   ----------------------------------------
 .byte   PATT
  .word Label_9_014C32A0
@ 031   ----------------------------------------
 .byte   PATT
  .word Label_9_014C32B3
@ 032   ----------------------------------------
 .byte   PATT
  .word Label_9_014C32C6
@ 033   ----------------------------------------
 .byte   PATT
  .word Label_9_014C328D
@ 034   ----------------------------------------
 .byte   PATT
  .word Label_9_014C32A0
@ 035   ----------------------------------------
 .byte   PATT
  .word Label_9_014C32B3
@ 036   ----------------------------------------
 .byte   PATT
  .word Label_9_014C32E8
@ 037   ----------------------------------------
 .byte   PATT
  .word Label_9_014C328D
@ 038   ----------------------------------------
 .byte   PATT
  .word Label_9_014C32A0
@ 039   ----------------------------------------
 .byte   PATT
  .word Label_9_014C32B3
@ 040   ----------------------------------------
 .byte   PATT
  .word Label_9_014C32C6
@ 041   ----------------------------------------
 .byte   N92 ,Dn3 ,v092
 .byte   W96
@ 042   ----------------------------------------
 .byte   Cs3
 .byte   W96
@ 043   ----------------------------------------
Label_9_014C333D:
 .byte   N72 ,Dn3 ,v092
 .byte   W72
 .byte   TIE
 .byte   W12
 .byte   N11 ,En3
 .byte   W12
 .byte   PEND 
@ 044   ----------------------------------------
Label_9_014C3347:
 .byte   N44 ,Fn3 ,v092
 .byte   W48
 .byte   Gn3
 .byte   W44
 .byte   W03
 .byte   PEND 
 .byte   EOT
 .byte   Dn3
 .byte   W01
@ 045   ----------------------------------------
 .byte   N92
 .byte   W96
@ 046   ----------------------------------------
Label_9_014C3354:
 .byte   N32 ,Cs3 ,v092
 .byte   W36
 .byte   Dn3
 .byte   W36
 .byte   N23 ,En3
 .byte   W24
 .byte   PEND 
@ 047   ----------------------------------------
Label_9_014C335E:
 .byte   N32 ,Fn3 ,v092
 .byte   W36
 .byte   Gn3
 .byte   W36
 .byte   N23 ,Fn3
 .byte   W24
 .byte   PEND 
@ 048   ----------------------------------------
 .byte   N92 ,Cs3
 .byte   W96
@ 049   ----------------------------------------
 .byte   Dn3
 .byte   W96
@ 050   ----------------------------------------
 .byte   Cs3
 .byte   W96
@ 051   ----------------------------------------
 .byte   PATT
  .word Label_9_014C333D
@ 052   ----------------------------------------
 .byte   PATT
  .word Label_9_014C3347
@ 053   ----------------------------------------
 .byte   EOT
 .byte   Dn3
 .byte   W01
 .byte   N92 ,Dn3 ,v092
 .byte   W96
@ 054   ----------------------------------------
 .byte   PATT
  .word Label_9_014C3354
@ 055   ----------------------------------------
 .byte   PATT
  .word Label_9_014C335E
@ 056   ----------------------------------------
 .byte   N92 ,En3 ,v092
 .byte   W96
@ 057   ----------------------------------------
 .byte   W96
@ 058   ----------------------------------------
 .byte   W48
 .byte   N44 ,Dn3
 .byte   W48
@ 059   ----------------------------------------
Label_9_014C3393:
 .byte   N32 ,Gn2 ,v092
 .byte   W36
 .byte   N32
 .byte   W36
 .byte   TIE ,Cn3
 .byte   W24
 .byte   PEND 
@ 060   ----------------------------------------
Label_9_014C339D:
 .byte   N32 ,Cn4 ,v092
 .byte   W36
 .byte   As3
 .byte   W36
 .byte   N23 ,An3
 .byte   W23
 .byte   PEND 
 .byte   EOT
 .byte   Cn3
 .byte   W01
@ 061   ----------------------------------------
 .byte   N92 ,An2
 .byte   W96
@ 062   ----------------------------------------
Label_9_014C33AD:
 .byte   N44 ,An2 ,v092
 .byte   W48
 .byte   Cn3
 .byte   W48
 .byte   PEND 
@ 063   ----------------------------------------
Label_9_014C33B4:
 .byte   N32 ,Gn2 ,v092
 .byte   W36
 .byte   An2
 .byte   W36
 .byte   TIE ,As2
 .byte   W24
 .byte   PEND 
@ 064   ----------------------------------------
 .byte   W92
 .byte   W03
 .byte   EOT
 .byte   W01
@ 065   ----------------------------------------
 .byte   TIE ,Gn2
 .byte   W96
@ 066   ----------------------------------------
 .byte   W92
 .byte   W03
 .byte   EOT
 .byte   W01
@ 067   ----------------------------------------
 .byte   TIE ,An2
 .byte   W96
@ 068   ----------------------------------------
 .byte   W92
 .byte   W03
 .byte   EOT
 .byte   W01
@ 069   ----------------------------------------
 .byte   N92
 .byte   W96
@ 070   ----------------------------------------
 .byte   Bn2
 .byte   W96
@ 071   ----------------------------------------
 .byte   Cn3
 .byte   W96
@ 072   ----------------------------------------
 .byte   An2
 .byte   W96
@ 073   ----------------------------------------
 .byte   W96
@ 074   ----------------------------------------
 .byte   W48
 .byte   N44 ,Dn3
 .byte   W48
@ 075   ----------------------------------------
 .byte   PATT
  .word Label_9_014C3393
@ 076   ----------------------------------------
 .byte   PATT
  .word Label_9_014C339D
@ 077   ----------------------------------------
 .byte   EOT
 .byte   Cn3
 .byte   W01
 .byte   N92 ,An2 ,v092
 .byte   W96
@ 078   ----------------------------------------
 .byte   PATT
  .word Label_9_014C33AD
@ 079   ----------------------------------------
 .byte   PATT
  .word Label_9_014C33B4
@ 080   ----------------------------------------
 .byte   W92
 .byte   W03
 .byte   EOT
 .byte   As2
 .byte   W01
@ 081   ----------------------------------------
 .byte   TIE ,Gn2 ,v092
 .byte   W96
@ 082   ----------------------------------------
 .byte   W92
 .byte   W03
 .byte   EOT
 .byte   W01
@ 083   ----------------------------------------
 .byte   TIE ,An2
 .byte   W96
@ 084   ----------------------------------------
 .byte   W92
 .byte   W03
 .byte   EOT
 .byte   W01
@ 085   ----------------------------------------
 .byte   N92
 .byte   W96
@ 086   ----------------------------------------
 .byte   Bn2
 .byte   W96
@ 087   ----------------------------------------
 .byte   Cn3
 .byte   W96
@ 088   ----------------------------------------
 .byte   An2
 .byte   W96
@ 089   ----------------------------------------
 .byte   W96
@ 090   ----------------------------------------
 .byte   W96
@ 091   ----------------------------------------
 .byte   W96
@ 092   ----------------------------------------
 .byte   W96
@ 093   ----------------------------------------
Label_9_014C3418:
 .byte   N23 ,Dn2 ,v092
 .byte   W24
 .byte   N05
 .byte   W12
 .byte   N05
 .byte   W12
 .byte   N05
 .byte   W12
 .byte   N05
 .byte   W12
 .byte   N05
 .byte   W12
 .byte   N05
 .byte   W12
 .byte   PEND 
@ 094   ----------------------------------------
Label_9_014C3429:
 .byte   N05 ,Dn2 ,v092
 .byte   W12
 .byte   N05
 .byte   W12
 .byte   N05
 .byte   W12
 .byte   N05
 .byte   W12
 .byte   N05
 .byte   W12
 .byte   N05
 .byte   W12
 .byte   N05
 .byte   W12
 .byte   N05
 .byte   W12
 .byte   PEND 
@ 095   ----------------------------------------
Label_9_014C343C:
 .byte   N23 ,En2 ,v092
 .byte   W24
 .byte   N05
 .byte   W12
 .byte   N05
 .byte   W12
 .byte   N05
 .byte   W12
 .byte   N05
 .byte   W12
 .byte   N05
 .byte   W12
 .byte   N05
 .byte   W12
 .byte   PEND 
@ 096   ----------------------------------------
Label_9_014C344D:
 .byte   N05 ,En2 ,v092
 .byte   W12
 .byte   N05
 .byte   W12
 .byte   N05
 .byte   W12
 .byte   N05
 .byte   W12
 .byte   N05
 .byte   W12
 .byte   N05
 .byte   W12
 .byte   N05
 .byte   W12
 .byte   N05
 .byte   W12
 .byte   PEND 
@ 097   ----------------------------------------
Label_9_014C3460:
 .byte   N23 ,Fs2 ,v092
 .byte   W24
 .byte   N05
 .byte   W12
 .byte   N05
 .byte   W12
 .byte   N05
 .byte   W12
 .byte   N05
 .byte   W12
 .byte   N05
 .byte   W12
 .byte   N05
 .byte   W12
 .byte   PEND 
@ 098   ----------------------------------------
Label_9_014C3471:
 .byte   N05 ,Fs2 ,v092
 .byte   W12
 .byte   N05
 .byte   W12
 .byte   N05
 .byte   W12
 .byte   N05
 .byte   W12
 .byte   N05
 .byte   W12
 .byte   N05
 .byte   W12
 .byte   N05
 .byte   W12
 .byte   N05
 .byte   W12
 .byte   PEND 
@ 099   ----------------------------------------
Label_9_014C3484:
 .byte   N23 ,Gn2 ,v092
 .byte   W24
 .byte   N05
 .byte   W12
 .byte   N05
 .byte   W12
 .byte   N05
 .byte   W12
 .byte   N05
 .byte   W12
 .byte   N05
 .byte   W12
 .byte   N05
 .byte   W12
 .byte   PEND 
@ 100   ----------------------------------------
Label_9_014C3495:
 .byte   N44 ,Gn2 ,v092
 .byte   W48
 .byte   Fn2
 .byte   W48
 .byte   PEND 
@ 101   ----------------------------------------
 .byte   PATT
  .word Label_9_014C343C
@ 102   ----------------------------------------
Label_9_014C34A1:
 .byte   N05 ,An2 ,v092
 .byte   W12
 .byte   N05
 .byte   W12
 .byte   N05
 .byte   W12
 .byte   N05
 .byte   W12
 .byte   N05
 .byte   W12
 .byte   N05
 .byte   W12
 .byte   N05
 .byte   W12
 .byte   N05
 .byte   W12
 .byte   PEND 
@ 103   ----------------------------------------
Label_9_014C34B4:
 .byte   N05 ,Dn2 ,v092
 .byte   W12
 .byte   N05
 .byte   W12
 .byte   N05
 .byte   W12
 .byte   N05
 .byte   W12
 .byte   En2
 .byte   W12
 .byte   N05
 .byte   W12
 .byte   N05
 .byte   W12
 .byte   N05
 .byte   W12
 .byte   PEND 
@ 104   ----------------------------------------
Label_9_014C34C7:
 .byte   N05 ,Fn2 ,v092
 .byte   W12
 .byte   N05
 .byte   W12
 .byte   N05
 .byte   W12
 .byte   N05
 .byte   W12
 .byte   Fs2
 .byte   W12
 .byte   N05
 .byte   W12
 .byte   N05
 .byte   W12
 .byte   N05
 .byte   W12
 .byte   PEND 
@ 105   ----------------------------------------
 .byte   PATT
  .word Label_9_014C3484
@ 106   ----------------------------------------
Label_9_014C34DF:
 .byte   N23 ,Gs2 ,v092
 .byte   W24
 .byte   N05
 .byte   W12
 .byte   N05
 .byte   W12
 .byte   N05
 .byte   W12
 .byte   N05
 .byte   W12
 .byte   N05
 .byte   W12
 .byte   N05
 .byte   W12
 .byte   PEND 
@ 107   ----------------------------------------
Label_9_014C34F0:
 .byte   N23 ,An2 ,v092
 .byte   W24
 .byte   N05
 .byte   W12
 .byte   N05
 .byte   W12
 .byte   N05
 .byte   W12
 .byte   N05
 .byte   W12
 .byte   N05
 .byte   W12
 .byte   N05
 .byte   W12
 .byte   PEND 
@ 108   ----------------------------------------
Label_9_014C3501:
 .byte   N05 ,An2 ,v092
 .byte   W12
 .byte   N05
 .byte   W12
 .byte   N05
 .byte   W12
 .byte   N05
 .byte   W12
 .byte   N44 ,Cs3
 .byte   W48
 .byte   PEND 
@ 109   ----------------------------------------
 .byte   PATT
  .word Label_9_014C328D
@ 110   ----------------------------------------
 .byte   PATT
  .word Label_9_014C32A0
@ 111   ----------------------------------------
 .byte   PATT
  .word Label_9_014C32B3
@ 112   ----------------------------------------
 .byte   PATT
  .word Label_9_014C32E8
@ 113   ----------------------------------------
 .byte   PATT
  .word Label_9_014C328D
@ 114   ----------------------------------------
 .byte   PATT
  .word Label_9_014C32A0
@ 115   ----------------------------------------
 .byte   PATT
  .word Label_9_014C32B3
@ 116   ----------------------------------------
 .byte   PATT
  .word Label_9_014C32C6
@ 117   ----------------------------------------
 .byte   PATT
  .word Label_9_014C328D
@ 118   ----------------------------------------
 .byte   PATT
  .word Label_9_014C32A0
@ 119   ----------------------------------------
 .byte   PATT
  .word Label_9_014C32B3
@ 120   ----------------------------------------
 .byte   PATT
  .word Label_9_014C32E8
@ 121   ----------------------------------------
 .byte   PATT
  .word Label_9_014C328D
@ 122   ----------------------------------------
 .byte   PATT
  .word Label_9_014C32A0
@ 123   ----------------------------------------
 .byte   PATT
  .word Label_9_014C32B3
@ 124   ----------------------------------------
 .byte   PATT
  .word Label_9_014C32C6
@ 125   ----------------------------------------
 .byte   N92 ,Dn3 ,v092
 .byte   W96
@ 126   ----------------------------------------
 .byte   Cs3
 .byte   W96
@ 127   ----------------------------------------
 .byte   PATT
  .word Label_9_014C333D
@ 128   ----------------------------------------
 .byte   PATT
  .word Label_9_014C3347
@ 129   ----------------------------------------
 .byte   EOT
 .byte   Dn3
 .byte   W01
 .byte   N92 ,Dn3 ,v092
 .byte   W96
@ 130   ----------------------------------------
 .byte   PATT
  .word Label_9_014C3354
@ 131   ----------------------------------------
 .byte   PATT
  .word Label_9_014C335E
@ 132   ----------------------------------------
 .byte   N92 ,Cs3 ,v092
 .byte   W96
@ 133   ----------------------------------------
 .byte   Dn3
 .byte   W96
@ 134   ----------------------------------------
 .byte   Cs3
 .byte   W96
@ 135   ----------------------------------------
 .byte   PATT
  .word Label_9_014C333D
@ 136   ----------------------------------------
 .byte   PATT
  .word Label_9_014C3347
@ 137   ----------------------------------------
 .byte   EOT
 .byte   Dn3
 .byte   W01
 .byte   N92 ,Dn3 ,v092
 .byte   W96
@ 138   ----------------------------------------
 .byte   PATT
  .word Label_9_014C3354
@ 139   ----------------------------------------
 .byte   PATT
  .word Label_9_014C335E
@ 140   ----------------------------------------
 .byte   N92 ,En3 ,v092
 .byte   W96
@ 141   ----------------------------------------
 .byte   W96
@ 142   ----------------------------------------
 .byte   W48
 .byte   N44 ,Dn3
 .byte   W48
@ 143   ----------------------------------------
 .byte   PATT
  .word Label_9_014C3393
@ 144   ----------------------------------------
 .byte   PATT
  .word Label_9_014C339D
@ 145   ----------------------------------------
 .byte   EOT
 .byte   Cn3
 .byte   W01
 .byte   N92 ,An2 ,v092
 .byte   W96
@ 146   ----------------------------------------
 .byte   PATT
  .word Label_9_014C33AD
@ 147   ----------------------------------------
 .byte   PATT
  .word Label_9_014C33B4
@ 148   ----------------------------------------
 .byte   W92
 .byte   W03
 .byte   EOT
 .byte   As2
 .byte   W01
@ 149   ----------------------------------------
 .byte   TIE ,Gn2 ,v092
 .byte   W96
@ 150   ----------------------------------------
 .byte   W92
 .byte   W03
 .byte   EOT
 .byte   W01
@ 151   ----------------------------------------
 .byte   TIE ,An2
 .byte   W96
@ 152   ----------------------------------------
 .byte   W92
 .byte   W03
 .byte   EOT
 .byte   W01
@ 153   ----------------------------------------
 .byte   N92
 .byte   W96
@ 154   ----------------------------------------
 .byte   Bn2
 .byte   W96
@ 155   ----------------------------------------
 .byte   Cn3
 .byte   W96
@ 156   ----------------------------------------
 .byte   An2
 .byte   W96
@ 157   ----------------------------------------
 .byte   W96
@ 158   ----------------------------------------
 .byte   W48
 .byte   N44 ,Dn3
 .byte   W48
@ 159   ----------------------------------------
 .byte   PATT
  .word Label_9_014C3393
@ 160   ----------------------------------------
 .byte   PATT
  .word Label_9_014C339D
@ 161   ----------------------------------------
 .byte   EOT
 .byte   Cn3
 .byte   W01
 .byte   N92 ,An2 ,v092
 .byte   W96
@ 162   ----------------------------------------
 .byte   PATT
  .word Label_9_014C33AD
@ 163   ----------------------------------------
 .byte   PATT
  .word Label_9_014C33B4
@ 164   ----------------------------------------
 .byte   W92
 .byte   W03
 .byte   EOT
 .byte   As2
 .byte   W01
@ 165   ----------------------------------------
 .byte   TIE ,Gn2 ,v092
 .byte   W96
@ 166   ----------------------------------------
 .byte   W92
 .byte   W03
 .byte   EOT
 .byte   W01
@ 167   ----------------------------------------
 .byte   TIE ,An2
 .byte   W96
@ 168   ----------------------------------------
 .byte   W92
 .byte   W03
 .byte   EOT
 .byte   W01
@ 169   ----------------------------------------
 .byte   N92
 .byte   W96
@ 170   ----------------------------------------
 .byte   Bn2
 .byte   W96
@ 171   ----------------------------------------
 .byte   Cn3
 .byte   W96
@ 172   ----------------------------------------
 .byte   An2
 .byte   W96
@ 173   ----------------------------------------
 .byte   W96
@ 174   ----------------------------------------
 .byte   W96
@ 175   ----------------------------------------
 .byte   W96
@ 176   ----------------------------------------
 .byte   W96
@ 177   ----------------------------------------
 .byte   PATT
  .word Label_9_014C3418
@ 178   ----------------------------------------
 .byte   PATT
  .word Label_9_014C3429
@ 179   ----------------------------------------
 .byte   PATT
  .word Label_9_014C343C
@ 180   ----------------------------------------
 .byte   PATT
  .word Label_9_014C344D
@ 181   ----------------------------------------
 .byte   PATT
  .word Label_9_014C3460
@ 182   ----------------------------------------
 .byte   PATT
  .word Label_9_014C3471
@ 183   ----------------------------------------
 .byte   PATT
  .word Label_9_014C3484
@ 184   ----------------------------------------
 .byte   PATT
  .word Label_9_014C3495
@ 185   ----------------------------------------
 .byte   PATT
  .word Label_9_014C343C
@ 186   ----------------------------------------
 .byte   PATT
  .word Label_9_014C34A1
@ 187   ----------------------------------------
 .byte   PATT
  .word Label_9_014C34B4
@ 188   ----------------------------------------
 .byte   PATT
  .word Label_9_014C34C7
@ 189   ----------------------------------------
 .byte   PATT
  .word Label_9_014C3484
@ 190   ----------------------------------------
 .byte   PATT
  .word Label_9_014C34DF
@ 191   ----------------------------------------
 .byte   PATT
  .word Label_9_014C34F0
@ 192   ----------------------------------------
 .byte   PATT
  .word Label_9_014C3501
@ 193   ----------------------------------------
 .byte   PATT
  .word Label_9_014C328D
@ 194   ----------------------------------------
 .byte   PATT
  .word Label_9_014C32A0
@ 195   ----------------------------------------
 .byte   PATT
  .word Label_9_014C32B3
@ 196   ----------------------------------------
 .byte   PATT
  .word Label_9_014C32E8
@ 197   ----------------------------------------
 .byte   PATT
  .word Label_9_014C328D
@ 198   ----------------------------------------
 .byte   PATT
  .word Label_9_014C32A0
@ 199   ----------------------------------------
 .byte   PATT
  .word Label_9_014C32B3
@ 200   ----------------------------------------
 .byte   PATT
  .word Label_9_014C32C6
@ 201   ----------------------------------------
 .byte   PATT
  .word Label_9_014C328D
@ 202   ----------------------------------------
 .byte   PATT
  .word Label_9_014C32A0
@ 203   ----------------------------------------
 .byte   PATT
  .word Label_9_014C32B3
@ 204   ----------------------------------------
 .byte   PATT
  .word Label_9_014C32E8
@ 205   ----------------------------------------
 .byte   PATT
  .word Label_9_014C328D
@ 206   ----------------------------------------
 .byte   PATT
  .word Label_9_014C32A0
@ 207   ----------------------------------------
 .byte   PATT
  .word Label_9_014C32B3
@ 208   ----------------------------------------
 .byte   PATT
  .word Label_9_014C32C6
@ 209   ----------------------------------------
 .byte   N92 ,Dn3 ,v092
 .byte   W96
@ 210   ----------------------------------------
 .byte   Cs3
 .byte   W96
@ 211   ----------------------------------------
 .byte   PATT
  .word Label_9_014C333D
@ 212   ----------------------------------------
 .byte   PATT
  .word Label_9_014C3347
@ 213   ----------------------------------------
 .byte   EOT
 .byte   Dn3
 .byte   W01
 .byte   N92 ,Dn3 ,v092
 .byte   W96
@ 214   ----------------------------------------
 .byte   PATT
  .word Label_9_014C3354
@ 215   ----------------------------------------
 .byte   PATT
  .word Label_9_014C335E
@ 216   ----------------------------------------
 .byte   N92 ,Cs3 ,v092
 .byte   W96
@ 217   ----------------------------------------
 .byte   Dn3
 .byte   W96
@ 218   ----------------------------------------
 .byte   Cs3
 .byte   W96
@ 219   ----------------------------------------
 .byte   PATT
  .word Label_9_014C333D
@ 220   ----------------------------------------
 .byte   PATT
  .word Label_9_014C3347
@ 221   ----------------------------------------
 .byte   EOT
 .byte   Dn3
 .byte   W01
 .byte   N92 ,Dn3 ,v092
 .byte   W96
@ 222   ----------------------------------------
 .byte   PATT
  .word Label_9_014C3354
@ 223   ----------------------------------------
 .byte   PATT
  .word Label_9_014C335E
@ 224   ----------------------------------------
 .byte   N92 ,En3 ,v092
 .byte   W96
@ 225   ----------------------------------------
 .byte   W96
@ 226   ----------------------------------------
 .byte   W48
 .byte   N44 ,Dn3
 .byte   W48
@ 227   ----------------------------------------
 .byte   PATT
  .word Label_9_014C3393
@ 228   ----------------------------------------
 .byte   PATT
  .word Label_9_014C339D
@ 229   ----------------------------------------
 .byte   EOT
 .byte   Cn3
 .byte   W01
 .byte   N92 ,An2 ,v092
 .byte   W96
@ 230   ----------------------------------------
 .byte   PATT
  .word Label_9_014C33AD
@ 231   ----------------------------------------
 .byte   PATT
  .word Label_9_014C33B4
@ 232   ----------------------------------------
 .byte   W92
 .byte   W03
 .byte   EOT
 .byte   As2
 .byte   W01
@ 233   ----------------------------------------
 .byte   TIE ,Gn2 ,v092
 .byte   W96
@ 234   ----------------------------------------
 .byte   W92
 .byte   W03
 .byte   EOT
 .byte   W01
@ 235   ----------------------------------------
 .byte   TIE ,An2
 .byte   W96
@ 236   ----------------------------------------
 .byte   W92
 .byte   W03
 .byte   EOT
 .byte   W01
@ 237   ----------------------------------------
 .byte   N92
 .byte   W96
@ 238   ----------------------------------------
 .byte   Bn2
 .byte   W96
@ 239   ----------------------------------------
 .byte   Cn3
 .byte   W96
@ 240   ----------------------------------------
 .byte   An2
 .byte   W96
@ 241   ----------------------------------------
 .byte   W96
@ 242   ----------------------------------------
 .byte   W48
 .byte   N44 ,Dn3
 .byte   W48
@ 243   ----------------------------------------
 .byte   PATT
  .word Label_9_014C3393
@ 244   ----------------------------------------
 .byte   PATT
  .word Label_9_014C339D
@ 245   ----------------------------------------
 .byte   EOT
 .byte   Cn3
 .byte   W01
 .byte   N92 ,An2 ,v092
 .byte   W96
@ 246   ----------------------------------------
 .byte   PATT
  .word Label_9_014C33AD
@ 247   ----------------------------------------
 .byte   PATT
  .word Label_9_014C33B4
@ 248   ----------------------------------------
 .byte   W92
 .byte   W03
 .byte   EOT
 .byte   As2
 .byte   W01
@ 249   ----------------------------------------
 .byte   TIE ,Gn2 ,v092
 .byte   W96
@ 250   ----------------------------------------
 .byte   W92
 .byte   W03
 .byte   EOT
 .byte   W01
@ 251   ----------------------------------------
 .byte   TIE ,An2
 .byte   W96
@ 252   ----------------------------------------
 .byte   W92
 .byte   W03
 .byte   EOT
 .byte   W01
@ 253   ----------------------------------------
 .byte   N92
 .byte   W96
@ 254   ----------------------------------------
 .byte   Bn2
 .byte   W96
@ 255   ----------------------------------------
 .byte   Cn3
 .byte   W96
@ 256   ----------------------------------------
 .byte   An2
 .byte   W96
@ 257   ----------------------------------------
 .byte   GOTO
  .word Label_9_014C3289
@ 258   ----------------------------------------
 .byte   W96
@ 259   ----------------------------------------
 .byte   W96
@ 260   ----------------------------------------
 .byte   W96
@ 261   ----------------------------------------
 .byte   W96
@ 262   ----------------------------------------
 .byte   W96
@ 263   ----------------------------------------
 .byte   W96
@ 264   ----------------------------------------
 .byte   W96
@ 265   ----------------------------------------
 .byte   W96
@ 266   ----------------------------------------
 .byte   W92
 .byte   W03
 .byte   FINE

@**************** Track 11 (Midi-Chn.10) ****************@

song09_011:
@ 000   ----------------------------------------
 .byte   KEYSH , song09_key+0
 .byte   VOICE , 48
 .byte   PAN , c_v+6
 .byte   VOL , 37*song09_mvl/mxv
 .byte   W96
@ 001   ----------------------------------------
 .byte   W96
@ 002   ----------------------------------------
 .byte   W96
@ 003   ----------------------------------------
 .byte   W96
@ 004   ----------------------------------------
 .byte   W96
@ 005   ----------------------------------------
 .byte   W96
@ 006   ----------------------------------------
 .byte   W96
@ 007   ----------------------------------------
 .byte   W96
@ 008   ----------------------------------------
 .byte   W96
@ 009   ----------------------------------------
 .byte   W96
@ 010   ----------------------------------------
 .byte   W96
@ 011   ----------------------------------------
 .byte   W96
@ 012   ----------------------------------------
 .byte   W96
@ 013   ----------------------------------------
 .byte   W96
@ 014   ----------------------------------------
 .byte   W96
@ 015   ----------------------------------------
 .byte   W96
@ 016   ----------------------------------------
 .byte   W96
@ 017   ----------------------------------------
Label_10_014C37AD:
 .byte   TIE ,Dn3 ,v092
 .byte   TIE ,Dn4
 .byte   W96
 .byte   PEND 
@ 018   ----------------------------------------
 .byte   W96
@ 019   ----------------------------------------
 .byte   W96
@ 020   ----------------------------------------
 .byte   W92
 .byte   W03
 .byte   EOT
 .byte   Dn3 ,v074
 .byte   W01
@ 021   ----------------------------------------
 .byte   W96
@ 022   ----------------------------------------
 .byte   W96
@ 023   ----------------------------------------
 .byte   W96
@ 024   ----------------------------------------
 .byte   W96
@ 025   ----------------------------------------
 .byte   W96
@ 026   ----------------------------------------
 .byte   W96
@ 027   ----------------------------------------
 .byte   W96
@ 028   ----------------------------------------
 .byte   W96
@ 029   ----------------------------------------
 .byte   W96
@ 030   ----------------------------------------
 .byte   W96
@ 031   ----------------------------------------
 .byte   W96
@ 032   ----------------------------------------
 .byte   W96
@ 033   ----------------------------------------
 .byte   W96
@ 034   ----------------------------------------
 .byte   W96
@ 035   ----------------------------------------
 .byte   W96
@ 036   ----------------------------------------
 .byte   W96
@ 037   ----------------------------------------
 .byte   W96
@ 038   ----------------------------------------
 .byte   W96
@ 039   ----------------------------------------
 .byte   W96
@ 040   ----------------------------------------
 .byte   W96
@ 041   ----------------------------------------
 .byte   PATT
  .word Label_10_014C37AD
@ 042   ----------------------------------------
 .byte   W92
 .byte   W03
 .byte   EOT
 .byte   Dn3 ,v074
 .byte   W01
@ 043   ----------------------------------------
Label_10_014C37DB:
 .byte   TIE ,Fn3 ,v092
 .byte   TIE ,Fn4
 .byte   W96
 .byte   PEND 
@ 044   ----------------------------------------
 .byte   W92
 .byte   W03
 .byte   EOT
 .byte   Fn3 ,v077
 .byte   W01
@ 045   ----------------------------------------
 .byte   PATT
  .word Label_10_014C37AD
@ 046   ----------------------------------------
 .byte   W92
 .byte   W03
 .byte   EOT
 .byte   Dn3 ,v074
 .byte   W01
@ 047   ----------------------------------------
 .byte   N92 ,Fn3 ,v092
 .byte   N92 ,Fn4
 .byte   W96
@ 048   ----------------------------------------
 .byte   An3
 .byte   N92 ,An4
 .byte   W96
@ 049   ----------------------------------------
 .byte   PATT
  .word Label_10_014C37AD
@ 050   ----------------------------------------
 .byte   W92
 .byte   W03
 .byte   EOT
 .byte   Dn3 ,v074
 .byte   W01
@ 051   ----------------------------------------
 .byte   PATT
  .word Label_10_014C37DB
@ 052   ----------------------------------------
 .byte   W92
 .byte   W03
 .byte   EOT
 .byte   Fn3 ,v077
 .byte   W01
@ 053   ----------------------------------------
 .byte   N92 ,As3 ,v092
 .byte   N92 ,As4
 .byte   W96
@ 054   ----------------------------------------
 .byte   Cs4
 .byte   N92 ,Cs5
 .byte   W96
@ 055   ----------------------------------------
 .byte   Dn4
 .byte   N92 ,Dn5
 .byte   W96
@ 056   ----------------------------------------
 .byte   En4
 .byte   N92 ,En5
 .byte   W96
@ 057   ----------------------------------------
Label_10_014C3825:
 .byte   N92 ,As3 ,v092
 .byte   N92 ,Dn4
 .byte   N92 ,As4
 .byte   W96
 .byte   PEND 
@ 058   ----------------------------------------
Label_10_014C382E:
 .byte   N92 ,Cn4 ,v092
 .byte   N92 ,Fn4
 .byte   N92 ,Cn5
 .byte   W96
 .byte   PEND 
@ 059   ----------------------------------------
Label_10_014C3837:
 .byte   TIE ,En4 ,v092
 .byte   TIE ,Cn5
 .byte   TIE ,En5
 .byte   W96
 .byte   PEND 
@ 060   ----------------------------------------
 .byte   W92
 .byte   W03
 .byte   EOT
 .byte   En4 ,v084
 .byte   En5
 .byte   W01
@ 061   ----------------------------------------
Label_10_014C3847:
 .byte   N92 ,An3 ,v092
 .byte   N92 ,En4
 .byte   N92 ,An4
 .byte   W96
 .byte   PEND 
@ 062   ----------------------------------------
Label_10_014C3850:
 .byte   N92 ,Cn4 ,v092
 .byte   N92 ,Gn4
 .byte   N92 ,Cn5
 .byte   W96
 .byte   PEND 
@ 063   ----------------------------------------
Label_10_014C3859:
 .byte   TIE ,Dn4 ,v092
 .byte   TIE ,As4
 .byte   TIE ,Dn5
 .byte   W96
 .byte   PEND 
@ 064   ----------------------------------------
 .byte   W92
 .byte   W03
 .byte   EOT
 .byte   Dn4 ,v082
 .byte   Dn5
 .byte   W01
@ 065   ----------------------------------------
Label_10_014C3869:
 .byte   TIE ,Gn3 ,v092
 .byte   TIE ,Dn4
 .byte   TIE ,Gn4
 .byte   W96
 .byte   PEND 
@ 066   ----------------------------------------
 .byte   W92
 .byte   W03
 .byte   EOT
 .byte   Gn3 ,v074
 .byte   Gn4
 .byte   W01
@ 067   ----------------------------------------
Label_10_014C3879:
 .byte   TIE ,Cs4 ,v092
 .byte   TIE ,En4
 .byte   TIE ,An4
 .byte   TIE ,Cs5
 .byte   W96
 .byte   PEND 
@ 068   ----------------------------------------
 .byte   W92
 .byte   W03
 .byte   EOT
 .byte   Cs4 ,v076
 .byte   An4 ,v085
 .byte   W01
@ 069   ----------------------------------------
Label_10_014C388C:
 .byte   N92 ,An3 ,v092
 .byte   N92 ,Dn4
 .byte   N92 ,Dn5
 .byte   W96
 .byte   PEND 
@ 070   ----------------------------------------
Label_10_014C3895:
 .byte   N92 ,An3 ,v092
 .byte   N92 ,En4
 .byte   N92 ,En5
 .byte   W96
 .byte   PEND 
@ 071   ----------------------------------------
Label_10_014C389E:
 .byte   N92 ,An3 ,v092
 .byte   N92 ,Fn4
 .byte   N92 ,Fn5
 .byte   W96
 .byte   PEND 
@ 072   ----------------------------------------
Label_10_014C38A7:
 .byte   N92 ,An3 ,v092
 .byte   N92 ,An4
 .byte   N92 ,An5
 .byte   W96
 .byte   PEND 
@ 073   ----------------------------------------
 .byte   PATT
  .word Label_10_014C3825
@ 074   ----------------------------------------
 .byte   PATT
  .word Label_10_014C382E
@ 075   ----------------------------------------
 .byte   PATT
  .word Label_10_014C3837
@ 076   ----------------------------------------
 .byte   W92
 .byte   W03
 .byte   EOT
 .byte   En4 ,v084
 .byte   En5
 .byte   W01
@ 077   ----------------------------------------
 .byte   PATT
  .word Label_10_014C3847
@ 078   ----------------------------------------
 .byte   PATT
  .word Label_10_014C3850
@ 079   ----------------------------------------
 .byte   PATT
  .word Label_10_014C3859
@ 080   ----------------------------------------
 .byte   W92
 .byte   W03
 .byte   EOT
 .byte   Dn4 ,v082
 .byte   Dn5
 .byte   W01
@ 081   ----------------------------------------
 .byte   PATT
  .word Label_10_014C3869
@ 082   ----------------------------------------
 .byte   W92
 .byte   W03
 .byte   EOT
 .byte   Gn3 ,v074
 .byte   Gn4
 .byte   W01
@ 083   ----------------------------------------
 .byte   PATT
  .word Label_10_014C3879
@ 084   ----------------------------------------
 .byte   W92
 .byte   W03
 .byte   EOT
 .byte   Cs4 ,v076
 .byte   An4 ,v085
 .byte   W01
@ 085   ----------------------------------------
 .byte   PATT
  .word Label_10_014C388C
@ 086   ----------------------------------------
 .byte   PATT
  .word Label_10_014C3895
@ 087   ----------------------------------------
 .byte   PATT
  .word Label_10_014C389E
@ 088   ----------------------------------------
Label_10_014C3904:
 .byte   N92 ,An3 ,v092
 .byte   N92 ,Fs4
 .byte   N92 ,Fs5
 .byte   W96
 .byte   PEND 
@ 089   ----------------------------------------
 .byte   W96
@ 090   ----------------------------------------
 .byte   W96
@ 091   ----------------------------------------
 .byte   W96
@ 092   ----------------------------------------
 .byte   W96
@ 093   ----------------------------------------
 .byte   W96
@ 094   ----------------------------------------
 .byte   W96
@ 095   ----------------------------------------
 .byte   W96
@ 096   ----------------------------------------
 .byte   W96
@ 097   ----------------------------------------
 .byte   W96
@ 098   ----------------------------------------
 .byte   W96
@ 099   ----------------------------------------
 .byte   W96
@ 100   ----------------------------------------
 .byte   W96
@ 101   ----------------------------------------
 .byte   W96
@ 102   ----------------------------------------
 .byte   W96
@ 103   ----------------------------------------
 .byte   W96
@ 104   ----------------------------------------
 .byte   W96
@ 105   ----------------------------------------
 .byte   W96
@ 106   ----------------------------------------
 .byte   W96
@ 107   ----------------------------------------
 .byte   W96
@ 108   ----------------------------------------
 .byte   W96
@ 109   ----------------------------------------
 .byte   W96
@ 110   ----------------------------------------
 .byte   W96
@ 111   ----------------------------------------
 .byte   W96
@ 112   ----------------------------------------
 .byte   W96
@ 113   ----------------------------------------
 .byte   W96
@ 114   ----------------------------------------
 .byte   W96
@ 115   ----------------------------------------
 .byte   W96
@ 116   ----------------------------------------
 .byte   W96
@ 117   ----------------------------------------
 .byte   W96
@ 118   ----------------------------------------
 .byte   W96
@ 119   ----------------------------------------
 .byte   W96
@ 120   ----------------------------------------
 .byte   W96
@ 121   ----------------------------------------
 .byte   W96
@ 122   ----------------------------------------
 .byte   W96
@ 123   ----------------------------------------
 .byte   W96
@ 124   ----------------------------------------
 .byte   W96
@ 125   ----------------------------------------
 .byte   PATT
  .word Label_10_014C37AD
@ 126   ----------------------------------------
 .byte   W92
 .byte   W03
 .byte   EOT
 .byte   Dn3 ,v074
 .byte   W01
@ 127   ----------------------------------------
 .byte   PATT
  .word Label_10_014C37DB
@ 128   ----------------------------------------
 .byte   W92
 .byte   W03
 .byte   EOT
 .byte   Fn3 ,v077
 .byte   W01
@ 129   ----------------------------------------
 .byte   PATT
  .word Label_10_014C37AD
@ 130   ----------------------------------------
 .byte   W92
 .byte   W03
 .byte   EOT
 .byte   Dn3 ,v074
 .byte   W01
@ 131   ----------------------------------------
 .byte   N92 ,Fn3 ,v092
 .byte   N92 ,Fn4
 .byte   W96
@ 132   ----------------------------------------
 .byte   An3
 .byte   N92 ,An4
 .byte   W96
@ 133   ----------------------------------------
 .byte   PATT
  .word Label_10_014C37AD
@ 134   ----------------------------------------
 .byte   W92
 .byte   W03
 .byte   EOT
 .byte   Dn3 ,v074
 .byte   W01
@ 135   ----------------------------------------
 .byte   PATT
  .word Label_10_014C37DB
@ 136   ----------------------------------------
 .byte   W92
 .byte   W03
 .byte   EOT
 .byte   Fn3 ,v077
 .byte   W01
@ 137   ----------------------------------------
 .byte   N92 ,As3 ,v092
 .byte   N92 ,As4
 .byte   W96
@ 138   ----------------------------------------
 .byte   Cs4
 .byte   N92 ,Cs5
 .byte   W96
@ 139   ----------------------------------------
 .byte   Dn4
 .byte   N92 ,Dn5
 .byte   W96
@ 140   ----------------------------------------
 .byte   En4
 .byte   N92 ,En5
 .byte   W96
@ 141   ----------------------------------------
 .byte   PATT
  .word Label_10_014C3825
@ 142   ----------------------------------------
 .byte   PATT
  .word Label_10_014C382E
@ 143   ----------------------------------------
 .byte   PATT
  .word Label_10_014C3837
@ 144   ----------------------------------------
 .byte   W92
 .byte   W03
 .byte   EOT
 .byte   En4 ,v084
 .byte   En5
 .byte   W01
@ 145   ----------------------------------------
 .byte   PATT
  .word Label_10_014C3847
@ 146   ----------------------------------------
 .byte   PATT
  .word Label_10_014C3850
@ 147   ----------------------------------------
 .byte   PATT
  .word Label_10_014C3859
@ 148   ----------------------------------------
 .byte   W92
 .byte   W03
 .byte   EOT
 .byte   Dn4 ,v082
 .byte   Dn5
 .byte   W01
@ 149   ----------------------------------------
 .byte   PATT
  .word Label_10_014C3869
@ 150   ----------------------------------------
 .byte   W92
 .byte   W03
 .byte   EOT
 .byte   Gn3 ,v074
 .byte   Gn4
 .byte   W01
@ 151   ----------------------------------------
 .byte   PATT
  .word Label_10_014C3879
@ 152   ----------------------------------------
 .byte   W92
 .byte   W03
 .byte   EOT
 .byte   Cs4 ,v076
 .byte   An4 ,v085
 .byte   W01
@ 153   ----------------------------------------
 .byte   PATT
  .word Label_10_014C388C
@ 154   ----------------------------------------
 .byte   PATT
  .word Label_10_014C3895
@ 155   ----------------------------------------
 .byte   PATT
  .word Label_10_014C389E
@ 156   ----------------------------------------
 .byte   PATT
  .word Label_10_014C38A7
@ 157   ----------------------------------------
 .byte   PATT
  .word Label_10_014C3825
@ 158   ----------------------------------------
 .byte   PATT
  .word Label_10_014C382E
@ 159   ----------------------------------------
 .byte   PATT
  .word Label_10_014C3837
@ 160   ----------------------------------------
 .byte   W92
 .byte   W03
 .byte   EOT
 .byte   En4 ,v084
 .byte   En5
 .byte   W01
@ 161   ----------------------------------------
 .byte   PATT
  .word Label_10_014C3847
@ 162   ----------------------------------------
 .byte   PATT
  .word Label_10_014C3850
@ 163   ----------------------------------------
 .byte   PATT
  .word Label_10_014C3859
@ 164   ----------------------------------------
 .byte   W92
 .byte   W03
 .byte   EOT
 .byte   Dn4 ,v082
 .byte   Dn5
 .byte   W01
@ 165   ----------------------------------------
 .byte   PATT
  .word Label_10_014C3869
@ 166   ----------------------------------------
 .byte   W92
 .byte   W03
 .byte   EOT
 .byte   Gn3 ,v074
 .byte   Gn4
 .byte   W01
@ 167   ----------------------------------------
 .byte   PATT
  .word Label_10_014C3879
@ 168   ----------------------------------------
 .byte   W92
 .byte   W03
 .byte   EOT
 .byte   Cs4 ,v076
 .byte   An4 ,v085
 .byte   W01
@ 169   ----------------------------------------
 .byte   PATT
  .word Label_10_014C388C
@ 170   ----------------------------------------
 .byte   PATT
  .word Label_10_014C3895
@ 171   ----------------------------------------
 .byte   PATT
  .word Label_10_014C389E
@ 172   ----------------------------------------
 .byte   PATT
  .word Label_10_014C3904
@ 173   ----------------------------------------
 .byte   W96
@ 174   ----------------------------------------
 .byte   W96
@ 175   ----------------------------------------
 .byte   W96
@ 176   ----------------------------------------
 .byte   W96
@ 177   ----------------------------------------
 .byte   W96
@ 178   ----------------------------------------
 .byte   W96
@ 179   ----------------------------------------
 .byte   W96
@ 180   ----------------------------------------
 .byte   W96
@ 181   ----------------------------------------
 .byte   W96
@ 182   ----------------------------------------
 .byte   W96
@ 183   ----------------------------------------
 .byte   W96
@ 184   ----------------------------------------
 .byte   W96
@ 185   ----------------------------------------
 .byte   W96
@ 186   ----------------------------------------
 .byte   W96
@ 187   ----------------------------------------
 .byte   W96
@ 188   ----------------------------------------
 .byte   W96
@ 189   ----------------------------------------
 .byte   W96
@ 190   ----------------------------------------
 .byte   W96
@ 191   ----------------------------------------
 .byte   W96
@ 192   ----------------------------------------
 .byte   W96
@ 193   ----------------------------------------
 .byte   W96
@ 194   ----------------------------------------
 .byte   W96
@ 195   ----------------------------------------
 .byte   W96
@ 196   ----------------------------------------
 .byte   W96
@ 197   ----------------------------------------
 .byte   W96
@ 198   ----------------------------------------
 .byte   W96
@ 199   ----------------------------------------
 .byte   W96
@ 200   ----------------------------------------
 .byte   W96
@ 201   ----------------------------------------
 .byte   W96
@ 202   ----------------------------------------
 .byte   W96
@ 203   ----------------------------------------
 .byte   W96
@ 204   ----------------------------------------
 .byte   W96
@ 205   ----------------------------------------
 .byte   W96
@ 206   ----------------------------------------
 .byte   W96
@ 207   ----------------------------------------
 .byte   W96
@ 208   ----------------------------------------
 .byte   W96
@ 209   ----------------------------------------
 .byte   PATT
  .word Label_10_014C37AD
@ 210   ----------------------------------------
 .byte   W92
 .byte   W03
 .byte   EOT
 .byte   Dn3 ,v074
 .byte   W01
@ 211   ----------------------------------------
 .byte   PATT
  .word Label_10_014C37DB
@ 212   ----------------------------------------
 .byte   W92
 .byte   W03
 .byte   EOT
 .byte   Fn3 ,v077
 .byte   W01
@ 213   ----------------------------------------
 .byte   PATT
  .word Label_10_014C37AD
@ 214   ----------------------------------------
 .byte   W92
 .byte   W03
 .byte   EOT
 .byte   Dn3 ,v074
 .byte   W01
@ 215   ----------------------------------------
 .byte   N92 ,Fn3 ,v092
 .byte   N92 ,Fn4
 .byte   W96
@ 216   ----------------------------------------
 .byte   An3
 .byte   N92 ,An4
 .byte   W96
@ 217   ----------------------------------------
 .byte   PATT
  .word Label_10_014C37AD
@ 218   ----------------------------------------
 .byte   W92
 .byte   W03
 .byte   EOT
 .byte   Dn3 ,v074
 .byte   W01
@ 219   ----------------------------------------
 .byte   PATT
  .word Label_10_014C37DB
@ 220   ----------------------------------------
 .byte   W92
 .byte   W03
 .byte   EOT
 .byte   Fn3 ,v077
 .byte   W01
@ 221   ----------------------------------------
 .byte   N92 ,As3 ,v092
 .byte   N92 ,As4
 .byte   W96
@ 222   ----------------------------------------
 .byte   Cs4
 .byte   N92 ,Cs5
 .byte   W96
@ 223   ----------------------------------------
 .byte   Dn4
 .byte   N92 ,Dn5
 .byte   W96
@ 224   ----------------------------------------
 .byte   En4
 .byte   N92 ,En5
 .byte   W96
@ 225   ----------------------------------------
 .byte   PATT
  .word Label_10_014C3825
@ 226   ----------------------------------------
 .byte   PATT
  .word Label_10_014C382E
@ 227   ----------------------------------------
 .byte   PATT
  .word Label_10_014C3837
@ 228   ----------------------------------------
 .byte   W92
 .byte   W03
 .byte   EOT
 .byte   En4 ,v084
 .byte   En5
 .byte   W01
@ 229   ----------------------------------------
 .byte   PATT
  .word Label_10_014C3847
@ 230   ----------------------------------------
 .byte   PATT
  .word Label_10_014C3850
@ 231   ----------------------------------------
 .byte   PATT
  .word Label_10_014C3859
@ 232   ----------------------------------------
 .byte   W92
 .byte   W03
 .byte   EOT
 .byte   Dn4 ,v082
 .byte   Dn5
 .byte   W01
@ 233   ----------------------------------------
 .byte   PATT
  .word Label_10_014C3869
@ 234   ----------------------------------------
 .byte   W92
 .byte   W03
 .byte   EOT
 .byte   Gn3 ,v074
 .byte   Gn4
 .byte   W01
@ 235   ----------------------------------------
 .byte   PATT
  .word Label_10_014C3879
@ 236   ----------------------------------------
 .byte   W92
 .byte   W03
 .byte   EOT
 .byte   Cs4 ,v076
 .byte   An4 ,v085
 .byte   W01
@ 237   ----------------------------------------
 .byte   PATT
  .word Label_10_014C388C
@ 238   ----------------------------------------
 .byte   PATT
  .word Label_10_014C3895
@ 239   ----------------------------------------
 .byte   PATT
  .word Label_10_014C389E
@ 240   ----------------------------------------
 .byte   PATT
  .word Label_10_014C38A7
@ 241   ----------------------------------------
 .byte   PATT
  .word Label_10_014C3825
@ 242   ----------------------------------------
 .byte   PATT
  .word Label_10_014C382E
@ 243   ----------------------------------------
 .byte   PATT
  .word Label_10_014C3837
@ 244   ----------------------------------------
 .byte   W92
 .byte   W03
 .byte   EOT
 .byte   En4 ,v084
 .byte   En5
 .byte   W01
@ 245   ----------------------------------------
 .byte   PATT
  .word Label_10_014C3847
@ 246   ----------------------------------------
 .byte   PATT
  .word Label_10_014C3850
@ 247   ----------------------------------------
 .byte   PATT
  .word Label_10_014C3859
@ 248   ----------------------------------------
 .byte   W92
 .byte   W03
 .byte   EOT
 .byte   Dn4 ,v082
 .byte   Dn5
 .byte   W01
@ 249   ----------------------------------------
 .byte   PATT
  .word Label_10_014C3869
@ 250   ----------------------------------------
 .byte   W92
 .byte   W03
 .byte   EOT
 .byte   Gn3 ,v074
 .byte   Gn4
 .byte   W01
@ 251   ----------------------------------------
 .byte   PATT
  .word Label_10_014C3879
@ 252   ----------------------------------------
 .byte   W92
 .byte   W03
 .byte   EOT
 .byte   Cs4 ,v076
 .byte   An4 ,v085
 .byte   W01
@ 253   ----------------------------------------
 .byte   PATT
  .word Label_10_014C388C
@ 254   ----------------------------------------
 .byte   PATT
  .word Label_10_014C3895
@ 255   ----------------------------------------
 .byte   PATT
  .word Label_10_014C389E
@ 256   ----------------------------------------
 .byte   PATT
  .word Label_10_014C3904
@ 257   ----------------------------------------
 .byte   GOTO
  .word Label_10_014C37AD
@ 258   ----------------------------------------
 .byte   W96
@ 259   ----------------------------------------
 .byte   W96
@ 260   ----------------------------------------
 .byte   W96
@ 261   ----------------------------------------
 .byte   W96
@ 262   ----------------------------------------
 .byte   W96
@ 263   ----------------------------------------
 .byte   W96
@ 264   ----------------------------------------
 .byte   W96
@ 265   ----------------------------------------
 .byte   W96
@ 266   ----------------------------------------
 .byte   W92
 .byte   W03
 .byte   FINE

@**************** Track 12 (Midi-Chn.11) ****************@

song09_012:
@ 000   ----------------------------------------
 .byte   KEYSH , song09_key+0
 .byte   VOICE , 48
 .byte   PAN , c_v-34
 .byte   VOL , 37*song09_mvl/mxv
 .byte   W96
@ 001   ----------------------------------------
 .byte   W96
@ 002   ----------------------------------------
 .byte   W96
@ 003   ----------------------------------------
 .byte   W96
@ 004   ----------------------------------------
 .byte   W96
@ 005   ----------------------------------------
 .byte   W96
@ 006   ----------------------------------------
 .byte   W96
@ 007   ----------------------------------------
 .byte   W96
@ 008   ----------------------------------------
 .byte   W96
@ 009   ----------------------------------------
 .byte   W96
@ 010   ----------------------------------------
 .byte   W96
@ 011   ----------------------------------------
 .byte   W96
@ 012   ----------------------------------------
 .byte   W96
@ 013   ----------------------------------------
 .byte   W96
@ 014   ----------------------------------------
 .byte   W96
@ 015   ----------------------------------------
 .byte   W96
@ 016   ----------------------------------------
 .byte   W96
@ 017   ----------------------------------------
Label_11_014C3B89:
 .byte   W96
@ 018   ----------------------------------------
 .byte   W96
@ 019   ----------------------------------------
 .byte   W96
@ 020   ----------------------------------------
 .byte   W96
@ 021   ----------------------------------------
 .byte   W96
@ 022   ----------------------------------------
 .byte   W96
@ 023   ----------------------------------------
 .byte   W96
@ 024   ----------------------------------------
 .byte   W96
@ 025   ----------------------------------------
Label_11_014C3B91:
 .byte   PAN , c_v+6
 .byte   N44 ,Fn3 ,v092
 .byte   N44 ,Fn4
 .byte   W48
 .byte   Gn3
 .byte   N44 ,Gn4
 .byte   W48
 .byte   PEND 
@ 026   ----------------------------------------
Label_11_014C3B9E:
 .byte   N44 ,En3 ,v092
 .byte   N44 ,En4
 .byte   W48
 .byte   Fn3
 .byte   N44 ,Fn4
 .byte   W48
 .byte   PEND 
@ 027   ----------------------------------------
Label_11_014C3BA9:
 .byte   N44 ,Dn3 ,v092
 .byte   N44 ,Dn4
 .byte   W48
 .byte   En3
 .byte   N44 ,En4
 .byte   W48
 .byte   PEND 
@ 028   ----------------------------------------
Label_11_014C3BB4:
 .byte   N23 ,Cs3 ,v092
 .byte   N23 ,Cs4
 .byte   W24
 .byte   Dn3
 .byte   N23 ,Dn4
 .byte   W24
 .byte   En3
 .byte   N23 ,En4
 .byte   W24
 .byte   Fn3
 .byte   N23 ,Fn4
 .byte   W24
 .byte   PEND 
@ 029   ----------------------------------------
Label_11_014C3BC7:
 .byte   N44 ,Fn3 ,v092
 .byte   N44 ,Fn4
 .byte   W48
 .byte   Gn3
 .byte   N44 ,Gn4
 .byte   W48
 .byte   PEND 
@ 030   ----------------------------------------
 .byte   PATT
  .word Label_11_014C3B9E
@ 031   ----------------------------------------
 .byte   PATT
  .word Label_11_014C3BA9
@ 032   ----------------------------------------
Label_11_014C3BDC:
 .byte   N23 ,Cs3 ,v092
 .byte   N23 ,Cs4
 .byte   W24
 .byte   Dn3
 .byte   N23 ,Dn4
 .byte   W24
 .byte   As3
 .byte   N23 ,As4
 .byte   W24
 .byte   An3
 .byte   N23 ,An4
 .byte   W24
 .byte   PEND 
@ 033   ----------------------------------------
 .byte   PATT
  .word Label_11_014C3BC7
@ 034   ----------------------------------------
 .byte   PATT
  .word Label_11_014C3B9E
@ 035   ----------------------------------------
 .byte   PATT
  .word Label_11_014C3BA9
@ 036   ----------------------------------------
 .byte   PATT
  .word Label_11_014C3BB4
@ 037   ----------------------------------------
 .byte   PATT
  .word Label_11_014C3BC7
@ 038   ----------------------------------------
 .byte   PATT
  .word Label_11_014C3B9E
@ 039   ----------------------------------------
 .byte   PATT
  .word Label_11_014C3BA9
@ 040   ----------------------------------------
 .byte   PATT
  .word Label_11_014C3BDC
@ 041   ----------------------------------------
 .byte   W96
@ 042   ----------------------------------------
 .byte   W96
@ 043   ----------------------------------------
 .byte   W96
@ 044   ----------------------------------------
 .byte   W96
@ 045   ----------------------------------------
 .byte   W96
@ 046   ----------------------------------------
 .byte   W96
@ 047   ----------------------------------------
 .byte   W96
@ 048   ----------------------------------------
 .byte   W96
@ 049   ----------------------------------------
 .byte   W96
@ 050   ----------------------------------------
 .byte   W96
@ 051   ----------------------------------------
 .byte   W96
@ 052   ----------------------------------------
 .byte   W96
@ 053   ----------------------------------------
 .byte   W96
@ 054   ----------------------------------------
 .byte   W96
@ 055   ----------------------------------------
 .byte   W96
@ 056   ----------------------------------------
 .byte   W96
@ 057   ----------------------------------------
 .byte   W96
@ 058   ----------------------------------------
 .byte   W96
@ 059   ----------------------------------------
 .byte   W96
@ 060   ----------------------------------------
 .byte   W96
@ 061   ----------------------------------------
 .byte   W96
@ 062   ----------------------------------------
 .byte   W96
@ 063   ----------------------------------------
 .byte   W96
@ 064   ----------------------------------------
 .byte   W96
@ 065   ----------------------------------------
 .byte   W96
@ 066   ----------------------------------------
 .byte   W96
@ 067   ----------------------------------------
 .byte   W96
@ 068   ----------------------------------------
 .byte   W96
@ 069   ----------------------------------------
 .byte   W96
@ 070   ----------------------------------------
 .byte   W96
@ 071   ----------------------------------------
 .byte   W96
@ 072   ----------------------------------------
 .byte   W96
@ 073   ----------------------------------------
 .byte   W96
@ 074   ----------------------------------------
 .byte   W96
@ 075   ----------------------------------------
 .byte   W96
@ 076   ----------------------------------------
 .byte   W96
@ 077   ----------------------------------------
 .byte   W96
@ 078   ----------------------------------------
 .byte   W96
@ 079   ----------------------------------------
 .byte   W96
@ 080   ----------------------------------------
 .byte   W96
@ 081   ----------------------------------------
 .byte   W96
@ 082   ----------------------------------------
 .byte   W96
@ 083   ----------------------------------------
 .byte   W96
@ 084   ----------------------------------------
 .byte   W96
@ 085   ----------------------------------------
 .byte   W96
@ 086   ----------------------------------------
 .byte   W96
@ 087   ----------------------------------------
 .byte   W96
@ 088   ----------------------------------------
 .byte   W96
@ 089   ----------------------------------------
 .byte   W96
@ 090   ----------------------------------------
 .byte   W96
@ 091   ----------------------------------------
 .byte   W96
@ 092   ----------------------------------------
 .byte   W96
@ 093   ----------------------------------------
Label_11_014C3C4B:
 .byte   TIE ,An3 ,v092
 .byte   TIE ,An4
 .byte   W96
 .byte   PEND 
@ 094   ----------------------------------------
 .byte   W96
@ 095   ----------------------------------------
 .byte   W96
@ 096   ----------------------------------------
 .byte   W92
 .byte   W03
 .byte   EOT
 .byte   An3 ,v081
 .byte   W01
@ 097   ----------------------------------------
Label_11_014C3C5A:
 .byte   TIE ,Fs3 ,v092
 .byte   TIE ,Fs4
 .byte   W96
 .byte   PEND 
@ 098   ----------------------------------------
 .byte   W92
 .byte   W03
 .byte   EOT
 .byte   Fs3 ,v078
 .byte   W01
@ 099   ----------------------------------------
Label_11_014C3C67:
 .byte   TIE ,Gn3 ,v092
 .byte   TIE ,Gn4
 .byte   W96
 .byte   PEND 
@ 100   ----------------------------------------
 .byte   W44
 .byte   W03
 .byte   EOT
 .byte   Gn3 ,v079
 .byte   W01
 .byte   N44 ,Fn3
 .byte   N44 ,Fn4
 .byte   W48
@ 101   ----------------------------------------
 .byte   N92 ,Gn3
 .byte   N92 ,Gn4
 .byte   W96
@ 102   ----------------------------------------
 .byte   An3
 .byte   N92 ,An4
 .byte   W96
@ 103   ----------------------------------------
 .byte   PATT
  .word Label_11_014C3BA9
@ 104   ----------------------------------------
Label_11_014C3C87:
 .byte   N44 ,Fn3 ,v092
 .byte   N44 ,Fn4
 .byte   W48
 .byte   Fs3
 .byte   N44 ,Fs4
 .byte   W48
 .byte   PEND 
@ 105   ----------------------------------------
 .byte   N92 ,As3
 .byte   N92 ,As4
 .byte   W96
@ 106   ----------------------------------------
 .byte   Bn3
 .byte   N92 ,Bn4
 .byte   W96
@ 107   ----------------------------------------
 .byte   PATT
  .word Label_11_014C3C4B
@ 108   ----------------------------------------
 .byte   W92
 .byte   W03
 .byte   EOT
 .byte   An3 ,v081
 .byte   W01
@ 109   ----------------------------------------
 .byte   PATT
  .word Label_11_014C3B91
@ 110   ----------------------------------------
 .byte   PATT
  .word Label_11_014C3B9E
@ 111   ----------------------------------------
 .byte   PATT
  .word Label_11_014C3BA9
@ 112   ----------------------------------------
 .byte   PATT
  .word Label_11_014C3BB4
@ 113   ----------------------------------------
 .byte   PATT
  .word Label_11_014C3BC7
@ 114   ----------------------------------------
 .byte   PATT
  .word Label_11_014C3B9E
@ 115   ----------------------------------------
 .byte   PATT
  .word Label_11_014C3BA9
@ 116   ----------------------------------------
 .byte   PATT
  .word Label_11_014C3BDC
@ 117   ----------------------------------------
 .byte   PATT
  .word Label_11_014C3BC7
@ 118   ----------------------------------------
 .byte   PATT
  .word Label_11_014C3B9E
@ 119   ----------------------------------------
 .byte   PATT
  .word Label_11_014C3BA9
@ 120   ----------------------------------------
 .byte   PATT
  .word Label_11_014C3BB4
@ 121   ----------------------------------------
 .byte   PATT
  .word Label_11_014C3BC7
@ 122   ----------------------------------------
 .byte   PATT
  .word Label_11_014C3B9E
@ 123   ----------------------------------------
 .byte   PATT
  .word Label_11_014C3BA9
@ 124   ----------------------------------------
 .byte   PATT
  .word Label_11_014C3BDC
@ 125   ----------------------------------------
 .byte   W96
@ 126   ----------------------------------------
 .byte   W96
@ 127   ----------------------------------------
 .byte   W96
@ 128   ----------------------------------------
 .byte   W96
@ 129   ----------------------------------------
 .byte   W96
@ 130   ----------------------------------------
 .byte   W96
@ 131   ----------------------------------------
 .byte   W96
@ 132   ----------------------------------------
 .byte   W96
@ 133   ----------------------------------------
 .byte   W96
@ 134   ----------------------------------------
 .byte   W96
@ 135   ----------------------------------------
 .byte   W96
@ 136   ----------------------------------------
 .byte   W96
@ 137   ----------------------------------------
 .byte   W96
@ 138   ----------------------------------------
 .byte   W96
@ 139   ----------------------------------------
 .byte   W96
@ 140   ----------------------------------------
 .byte   W96
@ 141   ----------------------------------------
 .byte   W96
@ 142   ----------------------------------------
 .byte   W96
@ 143   ----------------------------------------
 .byte   W96
@ 144   ----------------------------------------
 .byte   W96
@ 145   ----------------------------------------
 .byte   W96
@ 146   ----------------------------------------
 .byte   W96
@ 147   ----------------------------------------
 .byte   W96
@ 148   ----------------------------------------
 .byte   W96
@ 149   ----------------------------------------
 .byte   W96
@ 150   ----------------------------------------
 .byte   W96
@ 151   ----------------------------------------
 .byte   W96
@ 152   ----------------------------------------
 .byte   W96
@ 153   ----------------------------------------
 .byte   W96
@ 154   ----------------------------------------
 .byte   W96
@ 155   ----------------------------------------
 .byte   W96
@ 156   ----------------------------------------
 .byte   W96
@ 157   ----------------------------------------
 .byte   W96
@ 158   ----------------------------------------
 .byte   W96
@ 159   ----------------------------------------
 .byte   W96
@ 160   ----------------------------------------
 .byte   W96
@ 161   ----------------------------------------
 .byte   W96
@ 162   ----------------------------------------
 .byte   W96
@ 163   ----------------------------------------
 .byte   W96
@ 164   ----------------------------------------
 .byte   W96
@ 165   ----------------------------------------
 .byte   W96
@ 166   ----------------------------------------
 .byte   W96
@ 167   ----------------------------------------
 .byte   W96
@ 168   ----------------------------------------
 .byte   W96
@ 169   ----------------------------------------
 .byte   W96
@ 170   ----------------------------------------
 .byte   W96
@ 171   ----------------------------------------
 .byte   W96
@ 172   ----------------------------------------
 .byte   W96
@ 173   ----------------------------------------
 .byte   W96
@ 174   ----------------------------------------
 .byte   W96
@ 175   ----------------------------------------
 .byte   W96
@ 176   ----------------------------------------
 .byte   W96
@ 177   ----------------------------------------
 .byte   PATT
  .word Label_11_014C3C4B
@ 178   ----------------------------------------
 .byte   W96
@ 179   ----------------------------------------
 .byte   W96
@ 180   ----------------------------------------
 .byte   W92
 .byte   W03
 .byte   EOT
 .byte   An3 ,v081
 .byte   W01
@ 181   ----------------------------------------
 .byte   PATT
  .word Label_11_014C3C5A
@ 182   ----------------------------------------
 .byte   W92
 .byte   W03
 .byte   EOT
 .byte   Fs3 ,v078
 .byte   W01
@ 183   ----------------------------------------
 .byte   PATT
  .word Label_11_014C3C67
@ 184   ----------------------------------------
 .byte   W44
 .byte   W03
 .byte   EOT
 .byte   Gn3 ,v079
 .byte   W01
 .byte   N44 ,Fn3 ,v092
 .byte   N44 ,Fn4
 .byte   W48
@ 185   ----------------------------------------
 .byte   N92 ,Gn3
 .byte   N92 ,Gn4
 .byte   W96
@ 186   ----------------------------------------
 .byte   An3
 .byte   N92 ,An4
 .byte   W96
@ 187   ----------------------------------------
 .byte   PATT
  .word Label_11_014C3BA9
@ 188   ----------------------------------------
 .byte   PATT
  .word Label_11_014C3C87
@ 189   ----------------------------------------
 .byte   N92 ,As3 ,v092
 .byte   N92 ,As4
 .byte   W96
@ 190   ----------------------------------------
 .byte   Bn3
 .byte   N92 ,Bn4
 .byte   W96
@ 191   ----------------------------------------
 .byte   PATT
  .word Label_11_014C3C4B
@ 192   ----------------------------------------
 .byte   W92
 .byte   W03
 .byte   EOT
 .byte   An3 ,v081
 .byte   W01
@ 193   ----------------------------------------
 .byte   PATT
  .word Label_11_014C3B91
@ 194   ----------------------------------------
 .byte   PATT
  .word Label_11_014C3B9E
@ 195   ----------------------------------------
 .byte   PATT
  .word Label_11_014C3BA9
@ 196   ----------------------------------------
 .byte   PATT
  .word Label_11_014C3BB4
@ 197   ----------------------------------------
 .byte   PATT
  .word Label_11_014C3BC7
@ 198   ----------------------------------------
 .byte   PATT
  .word Label_11_014C3B9E
@ 199   ----------------------------------------
 .byte   PATT
  .word Label_11_014C3BA9
@ 200   ----------------------------------------
 .byte   PATT
  .word Label_11_014C3BDC
@ 201   ----------------------------------------
 .byte   PATT
  .word Label_11_014C3BC7
@ 202   ----------------------------------------
 .byte   PATT
  .word Label_11_014C3B9E
@ 203   ----------------------------------------
 .byte   PATT
  .word Label_11_014C3BA9
@ 204   ----------------------------------------
 .byte   PATT
  .word Label_11_014C3BB4
@ 205   ----------------------------------------
 .byte   PATT
  .word Label_11_014C3BC7
@ 206   ----------------------------------------
 .byte   PATT
  .word Label_11_014C3B9E
@ 207   ----------------------------------------
 .byte   PATT
  .word Label_11_014C3BA9
@ 208   ----------------------------------------
 .byte   PATT
  .word Label_11_014C3BDC
@ 209   ----------------------------------------
 .byte   W96
@ 210   ----------------------------------------
 .byte   W96
@ 211   ----------------------------------------
 .byte   W96
@ 212   ----------------------------------------
 .byte   W96
@ 213   ----------------------------------------
 .byte   W96
@ 214   ----------------------------------------
 .byte   W96
@ 215   ----------------------------------------
 .byte   W96
@ 216   ----------------------------------------
 .byte   W96
@ 217   ----------------------------------------
 .byte   W96
@ 218   ----------------------------------------
 .byte   W96
@ 219   ----------------------------------------
 .byte   W96
@ 220   ----------------------------------------
 .byte   W96
@ 221   ----------------------------------------
 .byte   W96
@ 222   ----------------------------------------
 .byte   W96
@ 223   ----------------------------------------
 .byte   W96
@ 224   ----------------------------------------
 .byte   W96
@ 225   ----------------------------------------
 .byte   W96
@ 226   ----------------------------------------
 .byte   W96
@ 227   ----------------------------------------
 .byte   W96
@ 228   ----------------------------------------
 .byte   W96
@ 229   ----------------------------------------
 .byte   W96
@ 230   ----------------------------------------
 .byte   W96
@ 231   ----------------------------------------
 .byte   W96
@ 232   ----------------------------------------
 .byte   W96
@ 233   ----------------------------------------
 .byte   W96
@ 234   ----------------------------------------
 .byte   W96
@ 235   ----------------------------------------
 .byte   W96
@ 236   ----------------------------------------
 .byte   W96
@ 237   ----------------------------------------
 .byte   W96
@ 238   ----------------------------------------
 .byte   W96
@ 239   ----------------------------------------
 .byte   W96
@ 240   ----------------------------------------
 .byte   W96
@ 241   ----------------------------------------
 .byte   W96
@ 242   ----------------------------------------
 .byte   W96
@ 243   ----------------------------------------
 .byte   W96
@ 244   ----------------------------------------
 .byte   W96
@ 245   ----------------------------------------
 .byte   W96
@ 246   ----------------------------------------
 .byte   W96
@ 247   ----------------------------------------
 .byte   W96
@ 248   ----------------------------------------
 .byte   W96
@ 249   ----------------------------------------
 .byte   W96
@ 250   ----------------------------------------
 .byte   W96
@ 251   ----------------------------------------
 .byte   W96
@ 252   ----------------------------------------
 .byte   W96
@ 253   ----------------------------------------
 .byte   W96
@ 254   ----------------------------------------
 .byte   W96
@ 255   ----------------------------------------
 .byte   W96
@ 256   ----------------------------------------
 .byte   W96
@ 257   ----------------------------------------
 .byte   GOTO
  .word Label_11_014C3B89
@ 258   ----------------------------------------
 .byte   W96
@ 259   ----------------------------------------
 .byte   W96
@ 260   ----------------------------------------
 .byte   W96
@ 261   ----------------------------------------
 .byte   W96
@ 262   ----------------------------------------
 .byte   W96
@ 263   ----------------------------------------
 .byte   W96
@ 264   ----------------------------------------
 .byte   W96
@ 265   ----------------------------------------
 .byte   W96
@ 266   ----------------------------------------
 .byte   W92
 .byte   W03
 .byte   FINE

@**************** Track 13 (Midi-Chn.12) ****************@

song09_013:
@ 000   ----------------------------------------
 .byte   KEYSH , song09_key+0
 .byte   VOICE , 4
 .byte   PAN , c_v-7
 .byte   VOL , 40*song09_mvl/mxv
 .byte   W96
@ 001   ----------------------------------------
 .byte   W96
@ 002   ----------------------------------------
 .byte   W96
@ 003   ----------------------------------------
 .byte   W96
@ 004   ----------------------------------------
 .byte   W96
@ 005   ----------------------------------------
 .byte   W96
@ 006   ----------------------------------------
 .byte   W96
@ 007   ----------------------------------------
 .byte   W96
@ 008   ----------------------------------------
 .byte   W96
@ 009   ----------------------------------------
 .byte   W96
@ 010   ----------------------------------------
 .byte   W96
@ 011   ----------------------------------------
 .byte   W96
@ 012   ----------------------------------------
 .byte   W96
@ 013   ----------------------------------------
 .byte   W96
@ 014   ----------------------------------------
 .byte   W96
@ 015   ----------------------------------------
 .byte   W96
@ 016   ----------------------------------------
 .byte   W96
@ 017   ----------------------------------------
Label_12_014C3E25:
 .byte   W96
@ 018   ----------------------------------------
 .byte   W96
@ 019   ----------------------------------------
 .byte   W96
@ 020   ----------------------------------------
 .byte   W96
@ 021   ----------------------------------------
 .byte   W96
@ 022   ----------------------------------------
 .byte   W96
@ 023   ----------------------------------------
 .byte   W96
@ 024   ----------------------------------------
 .byte   W96
@ 025   ----------------------------------------
 .byte   W96
@ 026   ----------------------------------------
 .byte   W96
@ 027   ----------------------------------------
 .byte   W96
@ 028   ----------------------------------------
 .byte   W96
@ 029   ----------------------------------------
 .byte   W96
@ 030   ----------------------------------------
 .byte   W96
@ 031   ----------------------------------------
 .byte   W96
@ 032   ----------------------------------------
 .byte   W96
@ 033   ----------------------------------------
 .byte   W96
@ 034   ----------------------------------------
 .byte   W96
@ 035   ----------------------------------------
 .byte   W96
@ 036   ----------------------------------------
 .byte   W96
@ 037   ----------------------------------------
 .byte   W96
@ 038   ----------------------------------------
 .byte   W96
@ 039   ----------------------------------------
 .byte   W96
@ 040   ----------------------------------------
 .byte   W96
@ 041   ----------------------------------------
 .byte   W96
@ 042   ----------------------------------------
 .byte   W96
@ 043   ----------------------------------------
 .byte   W96
@ 044   ----------------------------------------
 .byte   W96
@ 045   ----------------------------------------
 .byte   W96
@ 046   ----------------------------------------
 .byte   W96
@ 047   ----------------------------------------
 .byte   W96
@ 048   ----------------------------------------
 .byte   W96
@ 049   ----------------------------------------
 .byte   W96
@ 050   ----------------------------------------
 .byte   W96
@ 051   ----------------------------------------
 .byte   W96
@ 052   ----------------------------------------
 .byte   W96
@ 053   ----------------------------------------
 .byte   W96
@ 054   ----------------------------------------
 .byte   W96
@ 055   ----------------------------------------
 .byte   W96
@ 056   ----------------------------------------
 .byte   W96
@ 057   ----------------------------------------
 .byte   W96
@ 058   ----------------------------------------
 .byte   W96
@ 059   ----------------------------------------
 .byte   W96
@ 060   ----------------------------------------
 .byte   W96
@ 061   ----------------------------------------
 .byte   W96
@ 062   ----------------------------------------
 .byte   W96
@ 063   ----------------------------------------
 .byte   W96
@ 064   ----------------------------------------
 .byte   W96
@ 065   ----------------------------------------
 .byte   W96
@ 066   ----------------------------------------
 .byte   W96
@ 067   ----------------------------------------
 .byte   W96
@ 068   ----------------------------------------
 .byte   W96
@ 069   ----------------------------------------
 .byte   W96
@ 070   ----------------------------------------
 .byte   W96
@ 071   ----------------------------------------
 .byte   W96
@ 072   ----------------------------------------
 .byte   W96
@ 073   ----------------------------------------
 .byte   W96
@ 074   ----------------------------------------
 .byte   W96
@ 075   ----------------------------------------
 .byte   W96
@ 076   ----------------------------------------
 .byte   W96
@ 077   ----------------------------------------
 .byte   W96
@ 078   ----------------------------------------
 .byte   W96
@ 079   ----------------------------------------
 .byte   W96
@ 080   ----------------------------------------
 .byte   W96
@ 081   ----------------------------------------
 .byte   W96
@ 082   ----------------------------------------
 .byte   W96
@ 083   ----------------------------------------
 .byte   W96
@ 084   ----------------------------------------
 .byte   W96
@ 085   ----------------------------------------
 .byte   W96
@ 086   ----------------------------------------
 .byte   W96
@ 087   ----------------------------------------
 .byte   W96
@ 088   ----------------------------------------
 .byte   W96
@ 089   ----------------------------------------
 .byte   W96
@ 090   ----------------------------------------
 .byte   W96
@ 091   ----------------------------------------
 .byte   W96
@ 092   ----------------------------------------
 .byte   W96
@ 093   ----------------------------------------
Label_12_014C3E71:
 .byte   N02 ,Cn3 ,v108
 .byte   N56 ,Dn3 ,v092
 .byte   W60
 .byte   N11 ,An2
 .byte   W12
 .byte   Dn3
 .byte   W12
 .byte   En3
 .byte   W12
 .byte   PEND 
@ 094   ----------------------------------------
Label_12_014C3E80:
 .byte   N02 ,En3 ,v108
 .byte   N23 ,Fn3 ,v092
 .byte   W24
 .byte   N11 ,Gn3
 .byte   W12
 .byte   Fn3
 .byte   W12
 .byte   N32 ,En3
 .byte   W36
 .byte   N11 ,Fn3
 .byte   W12
 .byte   PEND 
@ 095   ----------------------------------------
Label_12_014C3E93:
 .byte   N02 ,Dn3 ,v108
 .byte   N44 ,En3 ,v092
 .byte   W48
 .byte   An2
 .byte   W48
 .byte   PEND 
@ 096   ----------------------------------------
Label_12_014C3E9D:
 .byte   N02 ,Gn3 ,v108
 .byte   N68 ,An3 ,v092
 .byte   W72
 .byte   N11
 .byte   W12
 .byte   Gn3
 .byte   W12
 .byte   PEND 
@ 097   ----------------------------------------
Label_12_014C3EA9:
 .byte   N02 ,Dn3 ,v108
 .byte   N68 ,Fs3 ,v092
 .byte   W72
 .byte   N11 ,Dn3
 .byte   W12
 .byte   Fs3
 .byte   W12
 .byte   PEND 
@ 098   ----------------------------------------
Label_12_014C3EB6:
 .byte   N11 ,An3 ,v092
 .byte   W12
 .byte   Dn3
 .byte   W12
 .byte   Fs3
 .byte   W12
 .byte   An3
 .byte   W12
 .byte   Fs3
 .byte   W12
 .byte   An3
 .byte   W12
 .byte   Dn4
 .byte   W12
 .byte   An3
 .byte   W12
 .byte   PEND 
@ 099   ----------------------------------------
Label_12_014C3EC9:
 .byte   N02 ,As3 ,v108
 .byte   N68 ,Cn4 ,v092
 .byte   W72
 .byte   N11 ,Dn4
 .byte   W12
 .byte   Cn4
 .byte   W12
 .byte   PEND 
@ 100   ----------------------------------------
Label_12_014C3ED6:
 .byte   N02 ,Gn3 ,v108
 .byte   N68 ,As3 ,v092
 .byte   W72
 .byte   N23 ,An3
 .byte   W24
 .byte   PEND 
@ 101   ----------------------------------------
Label_12_014C3EE1:
 .byte   N56 ,Gn3 ,v092
 .byte   W60
 .byte   N11
 .byte   W12
 .byte   An3
 .byte   W12
 .byte   As3
 .byte   W12
 .byte   PEND 
@ 102   ----------------------------------------
Label_12_014C3EEC:
 .byte   N11 ,An3 ,v092
 .byte   W12
 .byte   En3
 .byte   W12
 .byte   Gn3
 .byte   W12
 .byte   Fn3
 .byte   W12
 .byte   En3
 .byte   W12
 .byte   Dn3
 .byte   W12
 .byte   En3
 .byte   W12
 .byte   Fn3
 .byte   W12
 .byte   PEND 
@ 103   ----------------------------------------
Label_12_014C3EFF:
 .byte   N11 ,Dn3 ,v092
 .byte   W12
 .byte   An2
 .byte   W12
 .byte   Dn3
 .byte   W12
 .byte   Fn3
 .byte   W12
 .byte   Gn3
 .byte   W12
 .byte   Dn3
 .byte   W12
 .byte   Gn3
 .byte   W12
 .byte   As3
 .byte   W12
 .byte   PEND 
@ 104   ----------------------------------------
Label_12_014C3F12:
 .byte   N02 ,Cn4 ,v108
 .byte   N68 ,Dn4 ,v092
 .byte   W72
 .byte   N11
 .byte   W12
 .byte   Cn4
 .byte   W12
 .byte   PEND 
@ 105   ----------------------------------------
Label_12_014C3F1E:
 .byte   N68 ,As3 ,v092
 .byte   W72
 .byte   N11 ,En3
 .byte   W12
 .byte   Gn3
 .byte   W12
 .byte   PEND 
@ 106   ----------------------------------------
Label_12_014C3F28:
 .byte   N11 ,An3 ,v092
 .byte   W12
 .byte   Dn3
 .byte   W12
 .byte   En3
 .byte   W12
 .byte   Gs3
 .byte   W12
 .byte   En3
 .byte   W12
 .byte   Gs3
 .byte   W12
 .byte   En4
 .byte   W12
 .byte   Bn3
 .byte   W12
 .byte   PEND 
@ 107   ----------------------------------------
Label_12_014C3F3B:
 .byte   N02 ,Cs4 ,v108
 .byte   N68 ,Dn4 ,v092
 .byte   W72
 .byte   N11 ,Cs4
 .byte   W12
 .byte   Bn3
 .byte   W12
 .byte   PEND 
@ 108   ----------------------------------------
Label_12_014C3F48:
 .byte   N02 ,Bn3 ,v108
 .byte   N92 ,Cs4 ,v092
 .byte   W96
 .byte   PEND 
@ 109   ----------------------------------------
 .byte   W96
@ 110   ----------------------------------------
 .byte   W96
@ 111   ----------------------------------------
 .byte   W96
@ 112   ----------------------------------------
 .byte   W96
@ 113   ----------------------------------------
 .byte   W96
@ 114   ----------------------------------------
 .byte   W96
@ 115   ----------------------------------------
 .byte   W96
@ 116   ----------------------------------------
 .byte   W96
@ 117   ----------------------------------------
 .byte   W96
@ 118   ----------------------------------------
 .byte   W96
@ 119   ----------------------------------------
 .byte   W96
@ 120   ----------------------------------------
 .byte   W96
@ 121   ----------------------------------------
 .byte   W96
@ 122   ----------------------------------------
 .byte   W96
@ 123   ----------------------------------------
 .byte   W96
@ 124   ----------------------------------------
 .byte   W96
@ 125   ----------------------------------------
 .byte   W96
@ 126   ----------------------------------------
 .byte   W96
@ 127   ----------------------------------------
 .byte   W96
@ 128   ----------------------------------------
 .byte   W96
@ 129   ----------------------------------------
 .byte   W96
@ 130   ----------------------------------------
 .byte   W96
@ 131   ----------------------------------------
 .byte   W96
@ 132   ----------------------------------------
 .byte   W96
@ 133   ----------------------------------------
 .byte   W96
@ 134   ----------------------------------------
 .byte   W96
@ 135   ----------------------------------------
 .byte   W96
@ 136   ----------------------------------------
 .byte   W96
@ 137   ----------------------------------------
 .byte   W96
@ 138   ----------------------------------------
 .byte   W96
@ 139   ----------------------------------------
 .byte   W96
@ 140   ----------------------------------------
 .byte   W96
@ 141   ----------------------------------------
 .byte   W96
@ 142   ----------------------------------------
 .byte   W96
@ 143   ----------------------------------------
 .byte   W96
@ 144   ----------------------------------------
 .byte   W96
@ 145   ----------------------------------------
 .byte   W96
@ 146   ----------------------------------------
 .byte   W96
@ 147   ----------------------------------------
 .byte   W96
@ 148   ----------------------------------------
 .byte   W96
@ 149   ----------------------------------------
 .byte   W96
@ 150   ----------------------------------------
 .byte   W96
@ 151   ----------------------------------------
 .byte   W96
@ 152   ----------------------------------------
 .byte   W96
@ 153   ----------------------------------------
 .byte   W96
@ 154   ----------------------------------------
 .byte   W96
@ 155   ----------------------------------------
 .byte   W96
@ 156   ----------------------------------------
 .byte   W96
@ 157   ----------------------------------------
 .byte   W96
@ 158   ----------------------------------------
 .byte   W96
@ 159   ----------------------------------------
 .byte   W96
@ 160   ----------------------------------------
 .byte   W96
@ 161   ----------------------------------------
 .byte   W96
@ 162   ----------------------------------------
 .byte   W96
@ 163   ----------------------------------------
 .byte   W96
@ 164   ----------------------------------------
 .byte   W96
@ 165   ----------------------------------------
 .byte   W96
@ 166   ----------------------------------------
 .byte   W96
@ 167   ----------------------------------------
 .byte   W96
@ 168   ----------------------------------------
 .byte   W96
@ 169   ----------------------------------------
 .byte   W96
@ 170   ----------------------------------------
 .byte   W96
@ 171   ----------------------------------------
 .byte   W96
@ 172   ----------------------------------------
 .byte   W96
@ 173   ----------------------------------------
 .byte   W96
@ 174   ----------------------------------------
 .byte   W96
@ 175   ----------------------------------------
 .byte   W96
@ 176   ----------------------------------------
 .byte   W96
@ 177   ----------------------------------------
 .byte   PATT
  .word Label_12_014C3E71
@ 178   ----------------------------------------
 .byte   PATT
  .word Label_12_014C3E80
@ 179   ----------------------------------------
 .byte   PATT
  .word Label_12_014C3E93
@ 180   ----------------------------------------
 .byte   PATT
  .word Label_12_014C3E9D
@ 181   ----------------------------------------
 .byte   PATT
  .word Label_12_014C3EA9
@ 182   ----------------------------------------
 .byte   PATT
  .word Label_12_014C3EB6
@ 183   ----------------------------------------
 .byte   PATT
  .word Label_12_014C3EC9
@ 184   ----------------------------------------
 .byte   PATT
  .word Label_12_014C3ED6
@ 185   ----------------------------------------
 .byte   PATT
  .word Label_12_014C3EE1
@ 186   ----------------------------------------
 .byte   PATT
  .word Label_12_014C3EEC
@ 187   ----------------------------------------
 .byte   PATT
  .word Label_12_014C3EFF
@ 188   ----------------------------------------
 .byte   PATT
  .word Label_12_014C3F12
@ 189   ----------------------------------------
 .byte   PATT
  .word Label_12_014C3F1E
@ 190   ----------------------------------------
 .byte   PATT
  .word Label_12_014C3F28
@ 191   ----------------------------------------
 .byte   PATT
  .word Label_12_014C3F3B
@ 192   ----------------------------------------
 .byte   PATT
  .word Label_12_014C3F48
@ 193   ----------------------------------------
 .byte   W96
@ 194   ----------------------------------------
 .byte   W96
@ 195   ----------------------------------------
 .byte   W96
@ 196   ----------------------------------------
 .byte   W96
@ 197   ----------------------------------------
 .byte   W96
@ 198   ----------------------------------------
 .byte   W96
@ 199   ----------------------------------------
 .byte   W96
@ 200   ----------------------------------------
 .byte   W96
@ 201   ----------------------------------------
 .byte   W96
@ 202   ----------------------------------------
 .byte   W96
@ 203   ----------------------------------------
 .byte   W96
@ 204   ----------------------------------------
 .byte   W96
@ 205   ----------------------------------------
 .byte   W96
@ 206   ----------------------------------------
 .byte   W96
@ 207   ----------------------------------------
 .byte   W96
@ 208   ----------------------------------------
 .byte   W96
@ 209   ----------------------------------------
 .byte   W96
@ 210   ----------------------------------------
 .byte   W96
@ 211   ----------------------------------------
 .byte   W96
@ 212   ----------------------------------------
 .byte   W96
@ 213   ----------------------------------------
 .byte   W96
@ 214   ----------------------------------------
 .byte   W96
@ 215   ----------------------------------------
 .byte   W96
@ 216   ----------------------------------------
 .byte   W96
@ 217   ----------------------------------------
 .byte   W96
@ 218   ----------------------------------------
 .byte   W96
@ 219   ----------------------------------------
 .byte   W96
@ 220   ----------------------------------------
 .byte   W96
@ 221   ----------------------------------------
 .byte   W96
@ 222   ----------------------------------------
 .byte   W96
@ 223   ----------------------------------------
 .byte   W96
@ 224   ----------------------------------------
 .byte   W96
@ 225   ----------------------------------------
 .byte   W96
@ 226   ----------------------------------------
 .byte   W96
@ 227   ----------------------------------------
 .byte   W96
@ 228   ----------------------------------------
 .byte   W96
@ 229   ----------------------------------------
 .byte   W96
@ 230   ----------------------------------------
 .byte   W96
@ 231   ----------------------------------------
 .byte   W96
@ 232   ----------------------------------------
 .byte   W96
@ 233   ----------------------------------------
 .byte   W96
@ 234   ----------------------------------------
 .byte   W96
@ 235   ----------------------------------------
 .byte   W96
@ 236   ----------------------------------------
 .byte   W96
@ 237   ----------------------------------------
 .byte   W96
@ 238   ----------------------------------------
 .byte   W96
@ 239   ----------------------------------------
 .byte   W96
@ 240   ----------------------------------------
 .byte   W96
@ 241   ----------------------------------------
 .byte   W96
@ 242   ----------------------------------------
 .byte   W96
@ 243   ----------------------------------------
 .byte   W96
@ 244   ----------------------------------------
 .byte   W96
@ 245   ----------------------------------------
 .byte   W96
@ 246   ----------------------------------------
 .byte   W96
@ 247   ----------------------------------------
 .byte   W96
@ 248   ----------------------------------------
 .byte   W96
@ 249   ----------------------------------------
 .byte   W96
@ 250   ----------------------------------------
 .byte   W96
@ 251   ----------------------------------------
 .byte   W96
@ 252   ----------------------------------------
 .byte   W96
@ 253   ----------------------------------------
 .byte   W96
@ 254   ----------------------------------------
 .byte   W96
@ 255   ----------------------------------------
 .byte   W96
@ 256   ----------------------------------------
 .byte   W96
@ 257   ----------------------------------------
 .byte   GOTO
  .word Label_12_014C3E25
@ 258   ----------------------------------------
 .byte   W96
@ 259   ----------------------------------------
 .byte   W96
@ 260   ----------------------------------------
 .byte   W96
@ 261   ----------------------------------------
 .byte   W96
@ 262   ----------------------------------------
 .byte   W96
@ 263   ----------------------------------------
 .byte   W96
@ 264   ----------------------------------------
 .byte   W96
@ 265   ----------------------------------------
 .byte   W96
@ 266   ----------------------------------------
 .byte   W92
 .byte   W03
 .byte   FINE

@**************** Track 14 (Midi-Chn.13) ****************@

song09_014:
@ 000   ----------------------------------------
 .byte   KEYSH , song09_key+0
 .byte   VOICE , 110
 .byte   PAN , c_v+15
 .byte   VOL , 40*song09_mvl/mxv
 .byte   W96
@ 001   ----------------------------------------
 .byte   W96
@ 002   ----------------------------------------
 .byte   W96
@ 003   ----------------------------------------
 .byte   W96
@ 004   ----------------------------------------
 .byte   W96
@ 005   ----------------------------------------
 .byte   W96
@ 006   ----------------------------------------
 .byte   W96
@ 007   ----------------------------------------
 .byte   W96
@ 008   ----------------------------------------
 .byte   W96
@ 009   ----------------------------------------
 .byte   W96
@ 010   ----------------------------------------
 .byte   W96
@ 011   ----------------------------------------
 .byte   W96
@ 012   ----------------------------------------
 .byte   W96
@ 013   ----------------------------------------
 .byte   W96
@ 014   ----------------------------------------
 .byte   W96
@ 015   ----------------------------------------
 .byte   W96
@ 016   ----------------------------------------
 .byte   W96
@ 017   ----------------------------------------
Label_13_014C404D:
 .byte   W96
@ 018   ----------------------------------------
 .byte   W96
@ 019   ----------------------------------------
 .byte   W96
@ 020   ----------------------------------------
 .byte   W96
@ 021   ----------------------------------------
 .byte   W96
@ 022   ----------------------------------------
 .byte   W96
@ 023   ----------------------------------------
 .byte   W96
@ 024   ----------------------------------------
 .byte   W96
@ 025   ----------------------------------------
 .byte   W96
@ 026   ----------------------------------------
 .byte   W96
@ 027   ----------------------------------------
 .byte   W96
@ 028   ----------------------------------------
 .byte   W96
@ 029   ----------------------------------------
 .byte   W96
@ 030   ----------------------------------------
 .byte   W96
@ 031   ----------------------------------------
 .byte   W96
@ 032   ----------------------------------------
 .byte   W96
@ 033   ----------------------------------------
 .byte   W96
@ 034   ----------------------------------------
 .byte   W96
@ 035   ----------------------------------------
 .byte   W96
@ 036   ----------------------------------------
 .byte   W96
@ 037   ----------------------------------------
 .byte   W96
@ 038   ----------------------------------------
 .byte   W96
@ 039   ----------------------------------------
 .byte   W96
@ 040   ----------------------------------------
 .byte   W96
@ 041   ----------------------------------------
 .byte   W96
@ 042   ----------------------------------------
 .byte   W96
@ 043   ----------------------------------------
 .byte   W96
@ 044   ----------------------------------------
 .byte   W96
@ 045   ----------------------------------------
 .byte   W96
@ 046   ----------------------------------------
 .byte   W96
@ 047   ----------------------------------------
 .byte   W96
@ 048   ----------------------------------------
 .byte   W96
@ 049   ----------------------------------------
 .byte   W96
@ 050   ----------------------------------------
 .byte   W96
@ 051   ----------------------------------------
 .byte   W96
@ 052   ----------------------------------------
 .byte   W96
@ 053   ----------------------------------------
 .byte   W96
@ 054   ----------------------------------------
 .byte   W96
@ 055   ----------------------------------------
 .byte   W96
@ 056   ----------------------------------------
 .byte   W96
@ 057   ----------------------------------------
 .byte   W96
@ 058   ----------------------------------------
 .byte   W96
@ 059   ----------------------------------------
 .byte   W96
@ 060   ----------------------------------------
 .byte   W96
@ 061   ----------------------------------------
 .byte   W96
@ 062   ----------------------------------------
 .byte   W96
@ 063   ----------------------------------------
 .byte   W96
@ 064   ----------------------------------------
 .byte   W96
@ 065   ----------------------------------------
 .byte   W96
@ 066   ----------------------------------------
 .byte   W96
@ 067   ----------------------------------------
 .byte   W96
@ 068   ----------------------------------------
 .byte   W96
@ 069   ----------------------------------------
 .byte   W96
@ 070   ----------------------------------------
 .byte   W96
@ 071   ----------------------------------------
 .byte   W96
@ 072   ----------------------------------------
 .byte   W96
@ 073   ----------------------------------------
 .byte   W96
@ 074   ----------------------------------------
 .byte   W96
@ 075   ----------------------------------------
 .byte   W96
@ 076   ----------------------------------------
 .byte   W96
@ 077   ----------------------------------------
 .byte   W96
@ 078   ----------------------------------------
 .byte   W96
@ 079   ----------------------------------------
 .byte   W96
@ 080   ----------------------------------------
 .byte   W96
@ 081   ----------------------------------------
 .byte   W96
@ 082   ----------------------------------------
 .byte   W96
@ 083   ----------------------------------------
 .byte   W96
@ 084   ----------------------------------------
 .byte   W96
@ 085   ----------------------------------------
 .byte   W96
@ 086   ----------------------------------------
 .byte   W96
@ 087   ----------------------------------------
 .byte   W96
@ 088   ----------------------------------------
 .byte   W96
@ 089   ----------------------------------------
 .byte   W96
@ 090   ----------------------------------------
 .byte   W96
@ 091   ----------------------------------------
 .byte   W96
@ 092   ----------------------------------------
 .byte   W96
@ 093   ----------------------------------------
Label_13_014C4099:
 .byte   N56 ,Dn4 ,v092
 .byte   W60
 .byte   N11 ,An3
 .byte   W12
 .byte   Dn4
 .byte   W12
 .byte   En4
 .byte   W12
 .byte   PEND 
@ 094   ----------------------------------------
Label_13_014C40A5:
 .byte   N23 ,Fn4 ,v092
 .byte   W24
 .byte   N11 ,Gn4
 .byte   W12
 .byte   Fn4
 .byte   W12
 .byte   N32 ,En4
 .byte   W36
 .byte   N11 ,Fn4
 .byte   W12
 .byte   PEND 
@ 095   ----------------------------------------
Label_13_014C40B5:
 .byte   N44 ,En4 ,v092
 .byte   W48
 .byte   An3
 .byte   W48
 .byte   PEND 
@ 096   ----------------------------------------
Label_13_014C40BC:
 .byte   N68 ,An4 ,v092
 .byte   W72
 .byte   N11
 .byte   W12
 .byte   Gn4
 .byte   W12
 .byte   PEND 
@ 097   ----------------------------------------
Label_13_014C40C5:
 .byte   N68 ,Fs4 ,v092
 .byte   W72
 .byte   N11 ,Dn4
 .byte   W12
 .byte   Fs4
 .byte   W12
 .byte   PEND 
@ 098   ----------------------------------------
Label_13_014C40CF:
 .byte   N11 ,An4 ,v092
 .byte   W12
 .byte   Dn4
 .byte   W12
 .byte   Fs4
 .byte   W12
 .byte   An4
 .byte   W12
 .byte   Fs4
 .byte   W12
 .byte   An4
 .byte   W12
 .byte   Dn5
 .byte   W12
 .byte   An4
 .byte   W12
 .byte   PEND 
@ 099   ----------------------------------------
Label_13_014C40E2:
 .byte   N68 ,Cn5 ,v092
 .byte   W72
 .byte   N11 ,Dn5
 .byte   W12
 .byte   Cn5
 .byte   W12
 .byte   PEND 
@ 100   ----------------------------------------
Label_13_014C40EC:
 .byte   N68 ,As4 ,v092
 .byte   W72
 .byte   N23 ,An4
 .byte   W24
 .byte   PEND 
@ 101   ----------------------------------------
Label_13_014C40F4:
 .byte   N56 ,Gn4 ,v092
 .byte   W60
 .byte   N11
 .byte   W12
 .byte   An4
 .byte   W12
 .byte   As4
 .byte   W12
 .byte   PEND 
@ 102   ----------------------------------------
Label_13_014C40FF:
 .byte   N11 ,An4 ,v092
 .byte   W12
 .byte   En4
 .byte   W12
 .byte   Gn4
 .byte   W12
 .byte   Fn4
 .byte   W12
 .byte   En4
 .byte   W12
 .byte   Dn4
 .byte   W12
 .byte   En4
 .byte   W12
 .byte   Fn4
 .byte   W12
 .byte   PEND 
@ 103   ----------------------------------------
Label_13_014C4112:
 .byte   N11 ,Dn4 ,v092
 .byte   W12
 .byte   An3
 .byte   W12
 .byte   Dn4
 .byte   W12
 .byte   Fn4
 .byte   W12
 .byte   Gn4
 .byte   W12
 .byte   Dn4
 .byte   W12
 .byte   Gn4
 .byte   W12
 .byte   As4
 .byte   W12
 .byte   PEND 
@ 104   ----------------------------------------
Label_13_014C4125:
 .byte   N68 ,Dn5 ,v092
 .byte   W72
 .byte   N11
 .byte   W12
 .byte   Cn5
 .byte   W12
 .byte   PEND 
@ 105   ----------------------------------------
Label_13_014C412E:
 .byte   N68 ,As4 ,v092
 .byte   W72
 .byte   N11 ,En4
 .byte   W12
 .byte   Gn4
 .byte   W12
 .byte   PEND 
@ 106   ----------------------------------------
Label_13_014C4138:
 .byte   N11 ,An4 ,v092
 .byte   W12
 .byte   Dn4
 .byte   W12
 .byte   En4
 .byte   W12
 .byte   Gs4
 .byte   W12
 .byte   En4
 .byte   W12
 .byte   Gs4
 .byte   W12
 .byte   En5
 .byte   W12
 .byte   Bn4
 .byte   W12
 .byte   PEND 
@ 107   ----------------------------------------
Label_13_014C414B:
 .byte   N68 ,Dn5 ,v092
 .byte   W72
 .byte   N11 ,Cs5
 .byte   W12
 .byte   Bn4
 .byte   W12
 .byte   PEND 
@ 108   ----------------------------------------
 .byte   N92 ,Cs5
 .byte   W96
@ 109   ----------------------------------------
 .byte   W96
@ 110   ----------------------------------------
 .byte   W96
@ 111   ----------------------------------------
 .byte   W96
@ 112   ----------------------------------------
 .byte   W96
@ 113   ----------------------------------------
 .byte   W96
@ 114   ----------------------------------------
 .byte   W96
@ 115   ----------------------------------------
 .byte   W96
@ 116   ----------------------------------------
 .byte   W96
@ 117   ----------------------------------------
 .byte   W96
@ 118   ----------------------------------------
 .byte   W96
@ 119   ----------------------------------------
 .byte   W96
@ 120   ----------------------------------------
 .byte   W96
@ 121   ----------------------------------------
 .byte   W96
@ 122   ----------------------------------------
 .byte   W96
@ 123   ----------------------------------------
 .byte   W96
@ 124   ----------------------------------------
 .byte   W96
@ 125   ----------------------------------------
 .byte   W96
@ 126   ----------------------------------------
 .byte   W96
@ 127   ----------------------------------------
 .byte   W96
@ 128   ----------------------------------------
 .byte   W96
@ 129   ----------------------------------------
 .byte   W96
@ 130   ----------------------------------------
 .byte   W96
@ 131   ----------------------------------------
 .byte   W96
@ 132   ----------------------------------------
 .byte   W96
@ 133   ----------------------------------------
 .byte   W96
@ 134   ----------------------------------------
 .byte   W96
@ 135   ----------------------------------------
 .byte   W96
@ 136   ----------------------------------------
 .byte   W96
@ 137   ----------------------------------------
 .byte   W96
@ 138   ----------------------------------------
 .byte   W96
@ 139   ----------------------------------------
 .byte   W96
@ 140   ----------------------------------------
 .byte   W96
@ 141   ----------------------------------------
 .byte   W96
@ 142   ----------------------------------------
 .byte   W96
@ 143   ----------------------------------------
 .byte   W96
@ 144   ----------------------------------------
 .byte   W96
@ 145   ----------------------------------------
 .byte   W96
@ 146   ----------------------------------------
 .byte   W96
@ 147   ----------------------------------------
 .byte   W96
@ 148   ----------------------------------------
 .byte   W96
@ 149   ----------------------------------------
 .byte   W96
@ 150   ----------------------------------------
 .byte   W96
@ 151   ----------------------------------------
 .byte   W96
@ 152   ----------------------------------------
 .byte   W96
@ 153   ----------------------------------------
 .byte   W96
@ 154   ----------------------------------------
 .byte   W96
@ 155   ----------------------------------------
 .byte   W96
@ 156   ----------------------------------------
 .byte   W96
@ 157   ----------------------------------------
 .byte   W96
@ 158   ----------------------------------------
 .byte   W96
@ 159   ----------------------------------------
 .byte   W96
@ 160   ----------------------------------------
 .byte   W96
@ 161   ----------------------------------------
 .byte   W96
@ 162   ----------------------------------------
 .byte   W96
@ 163   ----------------------------------------
 .byte   W96
@ 164   ----------------------------------------
 .byte   W96
@ 165   ----------------------------------------
 .byte   W96
@ 166   ----------------------------------------
 .byte   W96
@ 167   ----------------------------------------
 .byte   W96
@ 168   ----------------------------------------
 .byte   W96
@ 169   ----------------------------------------
 .byte   W96
@ 170   ----------------------------------------
 .byte   W96
@ 171   ----------------------------------------
 .byte   W96
@ 172   ----------------------------------------
 .byte   W96
@ 173   ----------------------------------------
 .byte   W96
@ 174   ----------------------------------------
 .byte   W96
@ 175   ----------------------------------------
 .byte   W96
@ 176   ----------------------------------------
 .byte   W96
@ 177   ----------------------------------------
 .byte   PATT
  .word Label_13_014C4099
@ 178   ----------------------------------------
 .byte   PATT
  .word Label_13_014C40A5
@ 179   ----------------------------------------
 .byte   PATT
  .word Label_13_014C40B5
@ 180   ----------------------------------------
 .byte   PATT
  .word Label_13_014C40BC
@ 181   ----------------------------------------
 .byte   PATT
  .word Label_13_014C40C5
@ 182   ----------------------------------------
 .byte   PATT
  .word Label_13_014C40CF
@ 183   ----------------------------------------
 .byte   PATT
  .word Label_13_014C40E2
@ 184   ----------------------------------------
 .byte   PATT
  .word Label_13_014C40EC
@ 185   ----------------------------------------
 .byte   PATT
  .word Label_13_014C40F4
@ 186   ----------------------------------------
 .byte   PATT
  .word Label_13_014C40FF
@ 187   ----------------------------------------
 .byte   PATT
  .word Label_13_014C4112
@ 188   ----------------------------------------
 .byte   PATT
  .word Label_13_014C4125
@ 189   ----------------------------------------
 .byte   PATT
  .word Label_13_014C412E
@ 190   ----------------------------------------
 .byte   PATT
  .word Label_13_014C4138
@ 191   ----------------------------------------
 .byte   PATT
  .word Label_13_014C414B
@ 192   ----------------------------------------
 .byte   N92 ,Cs5 ,v092
 .byte   W96
@ 193   ----------------------------------------
 .byte   W96
@ 194   ----------------------------------------
 .byte   W96
@ 195   ----------------------------------------
 .byte   W96
@ 196   ----------------------------------------
 .byte   W96
@ 197   ----------------------------------------
 .byte   W96
@ 198   ----------------------------------------
 .byte   W96
@ 199   ----------------------------------------
 .byte   W96
@ 200   ----------------------------------------
 .byte   W96
@ 201   ----------------------------------------
 .byte   W96
@ 202   ----------------------------------------
 .byte   W96
@ 203   ----------------------------------------
 .byte   W96
@ 204   ----------------------------------------
 .byte   W96
@ 205   ----------------------------------------
 .byte   W96
@ 206   ----------------------------------------
 .byte   W96
@ 207   ----------------------------------------
 .byte   W96
@ 208   ----------------------------------------
 .byte   W96
@ 209   ----------------------------------------
 .byte   W96
@ 210   ----------------------------------------
 .byte   W96
@ 211   ----------------------------------------
 .byte   W96
@ 212   ----------------------------------------
 .byte   W96
@ 213   ----------------------------------------
 .byte   W96
@ 214   ----------------------------------------
 .byte   W96
@ 215   ----------------------------------------
 .byte   W96
@ 216   ----------------------------------------
 .byte   W96
@ 217   ----------------------------------------
 .byte   W96
@ 218   ----------------------------------------
 .byte   W96
@ 219   ----------------------------------------
 .byte   W96
@ 220   ----------------------------------------
 .byte   W96
@ 221   ----------------------------------------
 .byte   W96
@ 222   ----------------------------------------
 .byte   W96
@ 223   ----------------------------------------
 .byte   W96
@ 224   ----------------------------------------
 .byte   W96
@ 225   ----------------------------------------
 .byte   W96
@ 226   ----------------------------------------
 .byte   W96
@ 227   ----------------------------------------
 .byte   W96
@ 228   ----------------------------------------
 .byte   W96
@ 229   ----------------------------------------
 .byte   W96
@ 230   ----------------------------------------
 .byte   W96
@ 231   ----------------------------------------
 .byte   W96
@ 232   ----------------------------------------
 .byte   W96
@ 233   ----------------------------------------
 .byte   W96
@ 234   ----------------------------------------
 .byte   W96
@ 235   ----------------------------------------
 .byte   W96
@ 236   ----------------------------------------
 .byte   W96
@ 237   ----------------------------------------
 .byte   W96
@ 238   ----------------------------------------
 .byte   W96
@ 239   ----------------------------------------
 .byte   W96
@ 240   ----------------------------------------
 .byte   W96
@ 241   ----------------------------------------
 .byte   W96
@ 242   ----------------------------------------
 .byte   W96
@ 243   ----------------------------------------
 .byte   W96
@ 244   ----------------------------------------
 .byte   W96
@ 245   ----------------------------------------
 .byte   W96
@ 246   ----------------------------------------
 .byte   W96
@ 247   ----------------------------------------
 .byte   W96
@ 248   ----------------------------------------
 .byte   W96
@ 249   ----------------------------------------
 .byte   W96
@ 250   ----------------------------------------
 .byte   W96
@ 251   ----------------------------------------
 .byte   W96
@ 252   ----------------------------------------
 .byte   W96
@ 253   ----------------------------------------
 .byte   W96
@ 254   ----------------------------------------
 .byte   W96
@ 255   ----------------------------------------
 .byte   W96
@ 256   ----------------------------------------
 .byte   W96
@ 257   ----------------------------------------
 .byte   GOTO
  .word Label_13_014C404D
@ 258   ----------------------------------------
 .byte   W96
@ 259   ----------------------------------------
 .byte   W96
@ 260   ----------------------------------------
 .byte   W96
@ 261   ----------------------------------------
 .byte   W96
@ 262   ----------------------------------------
 .byte   W96
@ 263   ----------------------------------------
 .byte   W96
@ 264   ----------------------------------------
 .byte   W96
@ 265   ----------------------------------------
 .byte   W96
@ 266   ----------------------------------------
 .byte   W92
 .byte   W03
 .byte   FINE

@******************************************************@
	.align	2

song09:
	.byte	14	@ NumTrks
	.byte	0	@ NumBlks
	.byte	song09_pri	@ Priority
	.byte	song09_rev	@ Reverb.
    
	.word	song09_grp
    
	.word	song09_001
	.word	song09_002
	.word	song09_003
	.word	song09_004
	.word	song09_005
	.word	song09_006
	.word	song09_007
	.word	song09_008
	.word	song09_009
	.word	song09_010
	.word	song09_011
	.word	song09_012
	.word	song09_013
	.word	song09_014

	.end
