	.include "MPlayDef.s"

	.equ	song01E8_grp, voicegroup000
	.equ	song01E8_pri, 0
	.equ	song01E8_rev, 0
	.equ	song01E8_mvl, 127
	.equ	song01E8_key, 0
	.equ	song01E8_tbs, 1
	.equ	song01E8_exg, 0
	.equ	song01E8_cmp, 1

	.section .rodata
	.global	song01E8
	.align	2


@**************** Track 1 (Midi-Chn.0) ****************@

song01E8_001:
@ 000   ----------------------------------------
 .byte   VOL , 45*song01E8_mvl/mxv
 .byte   KEYSH , song01E8_key+0
 .byte   TEMPO , 170*song01E8_tbs/2
 .byte   VOICE , 19
 .byte   TIE ,Cn3 ,v096
 .byte   N06 ,Gn4
 .byte   W06
 .byte   Ds4
 .byte   W06
 .byte   Cn4
 .byte   W06
 .byte   Ds4
 .byte   W06
 .byte   Fn4
 .byte   W06
 .byte   Dn4
 .byte   W06
 .byte   Bn3
 .byte   W06
 .byte   Dn4
 .byte   W06
 .byte   Ds4
 .byte   W06
 .byte   Cn4
 .byte   W06
 .byte   Gn3
 .byte   W06
 .byte   Cn4
 .byte   W06
 .byte   Dn4
 .byte   W06
 .byte   Bn3
 .byte   W06
 .byte   Gn3
 .byte   W06
 .byte   Bn3
 .byte   W06
@ 001   ----------------------------------------
 .byte   Cn4
 .byte   W06
 .byte   Gs3
 .byte   W06
 .byte   Gn3
 .byte   W06
 .byte   Gs3
 .byte   W06
 .byte   Bn3
 .byte   W06
 .byte   Gs3
 .byte   W06
 .byte   Gn3
 .byte   W06
 .byte   Gs3
 .byte   W06
 .byte   Cn4
 .byte   W06
 .byte   Gs3
 .byte   W06
 .byte   Gn3
 .byte   W06
 .byte   Gs3
 .byte   W06
 .byte   Dn4
 .byte   W06
 .byte   Bn3
 .byte   W06
 .byte   Gs3
 .byte   W06
 .byte   Gn3
 .byte   W06
@ 002   ----------------------------------------
 .byte   EOT
 .byte   Cn3
 .byte   TIE ,Bn2
 .byte   W06
 .byte   N06 ,Dn3
 .byte   W06
 .byte   Fn3
 .byte   W06
 .byte   Gs3
 .byte   W06
 .byte   Gn3
 .byte   W06
 .byte   Fn3
 .byte   W06
 .byte   Ds3
 .byte   W06
 .byte   Fn3
 .byte   W06
 .byte   Dn3
 .byte   W06
 .byte   Fn3
 .byte   W06
 .byte   Bn3
 .byte   W06
 .byte   Dn4
 .byte   W06
 .byte   Fn4
 .byte   W06
 .byte   Dn4
 .byte   W06
 .byte   Bn3
 .byte   W06
 .byte   Gs3
 .byte   W06
@ 003   ----------------------------------------
 .byte   Gn3
 .byte   W06
 .byte   N06
 .byte   W06
 .byte   Fn3
 .byte   W06
 .byte   Ds3
 .byte   W06
 .byte   Fn3
 .byte   W06
 .byte   Ds3
 .byte   W06
 .byte   Fn3
 .byte   W06
 .byte   Ds3
 .byte   W06
 .byte   Gn3
 .byte   W06
 .byte   Gs3
 .byte   W06
 .byte   Bn3
 .byte   W06
 .byte   Fn4
 .byte   W06
 .byte   Gs4
 .byte   W06
 .byte   Fn4
 .byte   W06
 .byte   Dn4
 .byte   W06
 .byte   Bn3
 .byte   W06
@ 004   ----------------------------------------
 .byte   EOT
 .byte   Bn2
 .byte   N12 ,Gn3
 .byte   N12 ,Cn4
 .byte   N12 ,Ds4
 .byte   W24
 .byte   TIE ,Gs3
 .byte   TIE ,Dn4
 .byte   TIE ,Fn4
 .byte   W72
@ 005   ----------------------------------------
 .byte   W96
@ 006   ----------------------------------------
 .byte   W96
@ 007   ----------------------------------------
 .byte   W96
@ 008   ----------------------------------------
 .byte   EOT
 .byte   Gs3 ,v074
 .byte   Fn4
Label_0_01E884C3:
 .byte   W96
@ 009   ----------------------------------------
 .byte   W96
@ 010   ----------------------------------------
 .byte   W96
@ 011   ----------------------------------------
 .byte   W96
@ 012   ----------------------------------------
 .byte   W96
@ 013   ----------------------------------------
 .byte   W96
@ 014   ----------------------------------------
 .byte   W96
@ 015   ----------------------------------------
 .byte   W96
@ 016   ----------------------------------------
 .byte   W96
@ 017   ----------------------------------------
 .byte   W96
@ 018   ----------------------------------------
 .byte   W96
@ 019   ----------------------------------------
 .byte   W96
@ 020   ----------------------------------------
 .byte   W96
@ 021   ----------------------------------------
 .byte   W96
@ 022   ----------------------------------------
 .byte   W96
@ 023   ----------------------------------------
 .byte   W96
@ 024   ----------------------------------------
 .byte   W96
@ 025   ----------------------------------------
 .byte   W96
@ 026   ----------------------------------------
 .byte   W96
@ 027   ----------------------------------------
 .byte   W96
@ 028   ----------------------------------------
 .byte   W96
@ 029   ----------------------------------------
 .byte   W96
@ 030   ----------------------------------------
 .byte   W96
@ 031   ----------------------------------------
 .byte   W96
@ 032   ----------------------------------------
 .byte   W96
@ 033   ----------------------------------------
 .byte   W96
@ 034   ----------------------------------------
 .byte   W96
@ 035   ----------------------------------------
 .byte   W96
@ 036   ----------------------------------------
 .byte   W96
@ 037   ----------------------------------------
 .byte   W96
@ 038   ----------------------------------------
 .byte   W96
@ 039   ----------------------------------------
 .byte   W96
@ 040   ----------------------------------------
 .byte   W96
@ 041   ----------------------------------------
 .byte   W96
@ 042   ----------------------------------------
 .byte   W96
@ 043   ----------------------------------------
 .byte   W96
@ 044   ----------------------------------------
 .byte   W96
@ 045   ----------------------------------------
 .byte   W96
@ 046   ----------------------------------------
 .byte   W96
@ 047   ----------------------------------------
 .byte   W96
@ 048   ----------------------------------------
 .byte   W96
@ 049   ----------------------------------------
 .byte   W96
@ 050   ----------------------------------------
 .byte   W96
@ 051   ----------------------------------------
 .byte   W96
@ 052   ----------------------------------------
 .byte   W96
@ 053   ----------------------------------------
 .byte   W96
@ 054   ----------------------------------------
 .byte   W96
@ 055   ----------------------------------------
 .byte   W96
@ 056   ----------------------------------------
 .byte   W96
@ 057   ----------------------------------------
 .byte   W96
@ 058   ----------------------------------------
 .byte   W96
@ 059   ----------------------------------------
 .byte   W96
@ 060   ----------------------------------------
 .byte   W96
@ 061   ----------------------------------------
 .byte   W96
@ 062   ----------------------------------------
 .byte   W96
@ 063   ----------------------------------------
 .byte   W96
@ 064   ----------------------------------------
 .byte   W96
@ 065   ----------------------------------------
 .byte   W96
@ 066   ----------------------------------------
 .byte   W96
@ 067   ----------------------------------------
 .byte   W96
@ 068   ----------------------------------------
 .byte   W96
@ 069   ----------------------------------------
 .byte   W96
@ 070   ----------------------------------------
 .byte   W96
@ 071   ----------------------------------------
 .byte   W96
@ 072   ----------------------------------------
 .byte   W96
@ 073   ----------------------------------------
 .byte   W96
@ 074   ----------------------------------------
 .byte   W96
@ 075   ----------------------------------------
 .byte   W96
@ 076   ----------------------------------------
 .byte   W96
@ 077   ----------------------------------------
 .byte   W96
@ 078   ----------------------------------------
Label_0_01E88509:
 .byte   N12 ,Cn4 ,v096
 .byte   W12
 .byte   Ds4
 .byte   W12
 .byte   Gn4
 .byte   W12
 .byte   Cn5
 .byte   W12
 .byte   Ds5
 .byte   W12
 .byte   Cn5
 .byte   W12
 .byte   Gn4
 .byte   W12
 .byte   Ds4
 .byte   W12
 .byte   PEND 
@ 079   ----------------------------------------
Label_0_01E8851C:
 .byte   N12 ,As3 ,v096
 .byte   W12
 .byte   Dn4
 .byte   W12
 .byte   Fn4
 .byte   W12
 .byte   As4
 .byte   W12
 .byte   Dn5
 .byte   W12
 .byte   As4
 .byte   W12
 .byte   Fn4
 .byte   W12
 .byte   Dn4
 .byte   W12
 .byte   PEND 
@ 080   ----------------------------------------
Label_0_01E8852F:
 .byte   N12 ,Gs3 ,v096
 .byte   W12
 .byte   Cn4
 .byte   W12
 .byte   Ds4
 .byte   W12
 .byte   Gs4
 .byte   W12
 .byte   Cn5
 .byte   W12
 .byte   Gs4
 .byte   W12
 .byte   Ds4
 .byte   W12
 .byte   Cn4
 .byte   W12
 .byte   PEND 
@ 081   ----------------------------------------
 .byte   PATT
  .word Label_0_01E8851C
@ 082   ----------------------------------------
 .byte   PATT
  .word Label_0_01E88509
@ 083   ----------------------------------------
 .byte   PATT
  .word Label_0_01E8851C
@ 084   ----------------------------------------
 .byte   PATT
  .word Label_0_01E8852F
@ 085   ----------------------------------------
 .byte   PATT
  .word Label_0_01E8851C
@ 086   ----------------------------------------
Label_0_01E8855B:
 .byte   N12 ,Cn4 ,v096
 .byte   W12
 .byte   Cn5
 .byte   W12
 .byte   Bn4
 .byte   W12
 .byte   Gn4
 .byte   W12
 .byte   As4
 .byte   W12
 .byte   Gs4
 .byte   W12
 .byte   Fn4
 .byte   W12
 .byte   Gn4
 .byte   W12
 .byte   PEND 
@ 087   ----------------------------------------
 .byte   Cn4
 .byte   W12
 .byte   Dn4
 .byte   W12
 .byte   Ds4
 .byte   W12
 .byte   Cn4
 .byte   W12
 .byte   Dn4
 .byte   W12
 .byte   Ds4
 .byte   W12
 .byte   Gn4
 .byte   W12
 .byte   Fn4
 .byte   W12
@ 088   ----------------------------------------
 .byte   PATT
  .word Label_0_01E8855B
@ 089   ----------------------------------------
 .byte   N12 ,Cn4 ,v096
 .byte   W12
 .byte   Dn4
 .byte   W12
 .byte   Ds4
 .byte   W12
 .byte   Cn4
 .byte   W12
 .byte   Dn4
 .byte   W12
 .byte   Ds4
 .byte   W12
 .byte   Gn4
 .byte   W12
 .byte   Fn4
 .byte   W11
 .byte   GOTO
  .word Label_0_01E884C3
@ 090   ----------------------------------------
 .byte   W01
 .byte   FINE

@**************** Track 2 (Midi-Chn.1) ****************@

song01E8_002:
@ 000   ----------------------------------------
 .byte   VOL , 45*song01E8_mvl/mxv
 .byte   KEYSH , song01E8_key+0
 .byte   VOICE , 52
 .byte   TIE ,Gn3 ,v096
 .byte   W01
 .byte   Cn3
 .byte   W92
 .byte   W03
@ 001   ----------------------------------------
 .byte   W92
 .byte   W03
 .byte   EOT
 .byte   W01
@ 002   ----------------------------------------
 .byte   TIE ,Bn2
 .byte   W96
@ 003   ----------------------------------------
 .byte   W96
@ 004   ----------------------------------------
 .byte   EOT
 .byte   Gn3
 .byte   TIE ,Gs3
 .byte   TIE ,Cn4
 .byte   W01
 .byte   EOT
 .byte   Bn2
 .byte   W92
 .byte   W03
@ 005   ----------------------------------------
 .byte   W96
@ 006   ----------------------------------------
 .byte   TIE ,Dn4 ,v127
 .byte   W96
@ 007   ----------------------------------------
 .byte   W96
@ 008   ----------------------------------------
 .byte   EOT
 .byte   Gs3 ,v072
 .byte   Dn4
Label_1_01E885C6:
 .byte   TIE ,Cn3 ,v096
 .byte   TIE ,Gn3
 .byte   W96
 .byte   PEND 
@ 009   ----------------------------------------
 .byte   W96
@ 010   ----------------------------------------
 .byte   W96
@ 011   ----------------------------------------
 .byte   W96
@ 012   ----------------------------------------
 .byte   EOT
 .byte   Cn3 ,v067
@ 013   ----------------------------------------
 .byte   PATT
  .word Label_1_01E885C6
@ 014   ----------------------------------------
 .byte   W96
@ 015   ----------------------------------------
 .byte   W96
@ 016   ----------------------------------------
 .byte   W96
@ 017   ----------------------------------------
 .byte   EOT
 .byte   Cn3 ,v067
Label_1_01E885DE:
 .byte   TIE ,Bn2 ,v096
 .byte   TIE ,Gn3
 .byte   W96
 .byte   PEND 
@ 018   ----------------------------------------
 .byte   W96
@ 019   ----------------------------------------
 .byte   W96
@ 020   ----------------------------------------
 .byte   W96
@ 021   ----------------------------------------
 .byte   EOT
 .byte   Bn2 ,v067
@ 022   ----------------------------------------
 .byte   PATT
  .word Label_1_01E885C6
@ 023   ----------------------------------------
 .byte   W96
@ 024   ----------------------------------------
 .byte   W96
@ 025   ----------------------------------------
 .byte   W96
@ 026   ----------------------------------------
 .byte   EOT
 .byte   Cn3 ,v067
@ 027   ----------------------------------------
 .byte   PATT
  .word Label_1_01E885DE
@ 028   ----------------------------------------
 .byte   W96
@ 029   ----------------------------------------
 .byte   W96
@ 030   ----------------------------------------
 .byte   W96
@ 031   ----------------------------------------
 .byte   EOT
 .byte   Bn2 ,v067
 .byte   TIE ,Gs2 ,v096
 .byte   TIE ,Gn3
 .byte   W96
@ 032   ----------------------------------------
 .byte   W96
@ 033   ----------------------------------------
 .byte   W96
@ 034   ----------------------------------------
 .byte   W96
@ 035   ----------------------------------------
 .byte   EOT
 .byte   Gs2 ,v067
@ 036   ----------------------------------------
 .byte   PATT
  .word Label_1_01E885C6
@ 037   ----------------------------------------
 .byte   W96
@ 038   ----------------------------------------
 .byte   EOT
 .byte   Cn3 ,v067
@ 039   ----------------------------------------
 .byte   PATT
  .word Label_1_01E885DE
@ 040   ----------------------------------------
 .byte   W96
@ 041   ----------------------------------------
 .byte   EOT
 .byte   Bn2 ,v067
Label_1_01E8861F:
 .byte   TIE ,Cn3 ,v096
 .byte   TIE ,Gs3
 .byte   W96
 .byte   PEND 
@ 042   ----------------------------------------
 .byte   W96
@ 043   ----------------------------------------
 .byte   EOT
 .byte   Cn3 ,v068
 .byte   TIE ,Cn3
 .byte   TIE ,An3
 .byte   W96
@ 044   ----------------------------------------
 .byte   W96
@ 045   ----------------------------------------
 .byte   EOT
 .byte   Cn3 ,v069
 .byte   TIE ,Dn3
 .byte   TIE ,Bn3
 .byte   W96
@ 046   ----------------------------------------
 .byte   W96
@ 047   ----------------------------------------
 .byte   EOT
 .byte   Dn3 ,v071
@ 048   ----------------------------------------
 .byte   PATT
  .word Label_1_01E885C6
@ 049   ----------------------------------------
 .byte   W96
@ 050   ----------------------------------------
 .byte   W96
@ 051   ----------------------------------------
 .byte   W96
@ 052   ----------------------------------------
 .byte   EOT
 .byte   Cn3 ,v067
@ 053   ----------------------------------------
 .byte   PATT
  .word Label_1_01E885DE
@ 054   ----------------------------------------
 .byte   W96
@ 055   ----------------------------------------
 .byte   W96
@ 056   ----------------------------------------
 .byte   W96
@ 057   ----------------------------------------
 .byte   EOT
 .byte   Bn2 ,v067
@ 058   ----------------------------------------
 .byte   PATT
  .word Label_1_01E885C6
@ 059   ----------------------------------------
 .byte   W96
@ 060   ----------------------------------------
 .byte   W96
@ 061   ----------------------------------------
 .byte   W96
@ 062   ----------------------------------------
 .byte   EOT
 .byte   Cn3 ,v067
@ 063   ----------------------------------------
 .byte   PATT
  .word Label_1_01E885DE
@ 064   ----------------------------------------
 .byte   W96
@ 065   ----------------------------------------
 .byte   W96
@ 066   ----------------------------------------
 .byte   W96
@ 067   ----------------------------------------
 .byte   EOT
 .byte   Bn2 ,v067
@ 068   ----------------------------------------
 .byte   PATT
  .word Label_1_01E8861F
@ 069   ----------------------------------------
 .byte   W96
@ 070   ----------------------------------------
 .byte   W96
@ 071   ----------------------------------------
 .byte   W96
@ 072   ----------------------------------------
 .byte   EOT
 .byte   Cn3 ,v068
Label_1_01E88673:
 .byte   TIE ,Dn3 ,v096
 .byte   TIE ,As3
 .byte   W96
 .byte   PEND 
@ 073   ----------------------------------------
 .byte   W96
@ 074   ----------------------------------------
 .byte   W96
@ 075   ----------------------------------------
 .byte   W96
@ 076   ----------------------------------------
 .byte   EOT
 .byte   Dn3 ,v070
@ 077   ----------------------------------------
 .byte   PATT
  .word Label_1_01E8861F
@ 078   ----------------------------------------
 .byte   W96
@ 079   ----------------------------------------
 .byte   W96
@ 080   ----------------------------------------
 .byte   W96
@ 081   ----------------------------------------
 .byte   EOT
 .byte   Cn3 ,v068
@ 082   ----------------------------------------
 .byte   PATT
  .word Label_1_01E88673
@ 083   ----------------------------------------
 .byte   W96
@ 084   ----------------------------------------
 .byte   W96
@ 085   ----------------------------------------
 .byte   W96
@ 086   ----------------------------------------
 .byte   EOT
 .byte   Dn3 ,v070
 .byte   TIE ,Ds3 ,v096
 .byte   TIE ,Cn4
 .byte   W96
@ 087   ----------------------------------------
 .byte   W96
@ 088   ----------------------------------------
 .byte   EOT
 .byte   Ds3 ,v072
 .byte   TIE ,Dn3
 .byte   TIE ,Gs3
 .byte   W96
@ 089   ----------------------------------------
 .byte   W96
@ 090   ----------------------------------------
 .byte   EOT
 .byte   Dn3 ,v068
 .byte   TIE ,Ds3
 .byte   TIE ,Gn3
 .byte   N96 ,Cn4
 .byte   W96
@ 091   ----------------------------------------
 .byte   As3
 .byte   W96
@ 092   ----------------------------------------
 .byte   EOT
 .byte   Ds3 ,v067
 .byte   TIE ,Ds3
 .byte   TIE ,Fn3
 .byte   N96 ,Gs3
 .byte   W96
@ 093   ----------------------------------------
 .byte   As3
 .byte   W96
@ 094   ----------------------------------------
 .byte   EOT
 .byte   Ds3 ,v065
 .byte   TIE ,Cn3
 .byte   TIE ,Gn3
 .byte   N96 ,Cn4
 .byte   W96
@ 095   ----------------------------------------
 .byte   As3
 .byte   W96
@ 096   ----------------------------------------
 .byte   EOT
 .byte   Cn3 ,v067
 .byte   TIE ,Dn3
 .byte   TIE ,Fn3
 .byte   N96 ,Gs3
 .byte   W96
@ 097   ----------------------------------------
 .byte   As3
 .byte   W96
@ 098   ----------------------------------------
 .byte   EOT
 .byte   Dn3 ,v065
 .byte   TIE ,Ds3
 .byte   TIE ,Gn3
 .byte   TIE ,Cn4
 .byte   W96
@ 099   ----------------------------------------
 .byte   W92
 .byte   W02
 .byte   EOT
 .byte   Ds3 ,v067
 .byte   Cn4
 .byte   TIE ,Ds3
 .byte   TIE ,Gn3
 .byte   TIE ,Cn4
 .byte   W02
@ 100   ----------------------------------------
 .byte   W96
@ 101   ----------------------------------------
 .byte   W92
 .byte   W03
 .byte   EOT
 .byte   Ds3 ,v067
 .byte   Cn4
 .byte   GOTO
  .word Label_1_01E885C6
@ 102   ----------------------------------------
 .byte   W01
 .byte   FINE

@**************** Track 3 (Midi-Chn.2) ****************@

song01E8_003:
@ 000   ----------------------------------------
 .byte   VOL , 76*song01E8_mvl/mxv
 .byte   KEYSH , song01E8_key+0
 .byte   VOICE , 116
 .byte   W96
@ 001   ----------------------------------------
 .byte   W96
@ 002   ----------------------------------------
 .byte   W96
@ 003   ----------------------------------------
 .byte   W96
@ 004   ----------------------------------------
 .byte   W96
@ 005   ----------------------------------------
 .byte   W96
@ 006   ----------------------------------------
 .byte   W96
@ 007   ----------------------------------------
 .byte   W96
@ 008   ----------------------------------------
Label_2_01E8870A:
 .byte   N24 ,Cn1 ,v116
 .byte   W24
 .byte   N24
 .byte   W24
 .byte   N24
 .byte   W24
 .byte   N24
 .byte   W24
 .byte   PEND 
@ 009   ----------------------------------------
 .byte   PATT
  .word Label_2_01E8870A
@ 010   ----------------------------------------
 .byte   PATT
  .word Label_2_01E8870A
@ 011   ----------------------------------------
 .byte   PATT
  .word Label_2_01E8870A
@ 012   ----------------------------------------
 .byte   PATT
  .word Label_2_01E8870A
@ 013   ----------------------------------------
 .byte   PATT
  .word Label_2_01E8870A
@ 014   ----------------------------------------
 .byte   PATT
  .word Label_2_01E8870A
@ 015   ----------------------------------------
 .byte   PATT
  .word Label_2_01E8870A
@ 016   ----------------------------------------
Label_2_01E88738:
 .byte   N24 ,Bn0 ,v116
 .byte   W24
 .byte   Cn1
 .byte   W24
 .byte   N24
 .byte   W24
 .byte   N24
 .byte   W24
 .byte   PEND 
@ 017   ----------------------------------------
 .byte   PATT
  .word Label_2_01E8870A
@ 018   ----------------------------------------
 .byte   PATT
  .word Label_2_01E8870A
@ 019   ----------------------------------------
 .byte   PATT
  .word Label_2_01E8870A
@ 020   ----------------------------------------
 .byte   PATT
  .word Label_2_01E8870A
@ 021   ----------------------------------------
 .byte   PATT
  .word Label_2_01E8870A
@ 022   ----------------------------------------
 .byte   PATT
  .word Label_2_01E8870A
@ 023   ----------------------------------------
 .byte   PATT
  .word Label_2_01E8870A
@ 024   ----------------------------------------
Label_2_01E88766:
 .byte   N24 ,Cn1 ,v116
 .byte   W24
 .byte   Bn0
 .byte   W24
 .byte   Cn1
 .byte   W24
 .byte   N24
 .byte   W24
 .byte   PEND 
@ 025   ----------------------------------------
 .byte   PATT
  .word Label_2_01E8870A
@ 026   ----------------------------------------
 .byte   PATT
  .word Label_2_01E8870A
@ 027   ----------------------------------------
 .byte   PATT
  .word Label_2_01E8870A
@ 028   ----------------------------------------
 .byte   PATT
  .word Label_2_01E8870A
@ 029   ----------------------------------------
 .byte   PATT
  .word Label_2_01E8870A
@ 030   ----------------------------------------
 .byte   PATT
  .word Label_2_01E8870A
@ 031   ----------------------------------------
 .byte   PATT
  .word Label_2_01E8870A
@ 032   ----------------------------------------
Label_2_01E88794:
 .byte   N24 ,Cn1 ,v116
 .byte   W24
 .byte   N24
 .byte   W24
 .byte   Bn0
 .byte   W24
 .byte   Cn1
 .byte   W24
 .byte   PEND 
@ 033   ----------------------------------------
 .byte   PATT
  .word Label_2_01E8870A
@ 034   ----------------------------------------
 .byte   PATT
  .word Label_2_01E8870A
@ 035   ----------------------------------------
 .byte   PATT
  .word Label_2_01E8870A
@ 036   ----------------------------------------
 .byte   PATT
  .word Label_2_01E8870A
@ 037   ----------------------------------------
 .byte   PATT
  .word Label_2_01E8870A
@ 038   ----------------------------------------
 .byte   PATT
  .word Label_2_01E8870A
@ 039   ----------------------------------------
 .byte   PATT
  .word Label_2_01E8870A
@ 040   ----------------------------------------
 .byte   N24 ,Cn1 ,v116
 .byte   W24
 .byte   N24
 .byte   W24
 .byte   N24
 .byte   W24
 .byte   Bn0
 .byte   W24
@ 041   ----------------------------------------
Label_2_01E887CC:
 .byte   N24 ,En2 ,v116
 .byte   W36
 .byte   N24
 .byte   W36
 .byte   N24
 .byte   W24
 .byte   PEND 
@ 042   ----------------------------------------
 .byte   PATT
  .word Label_2_01E8870A
@ 043   ----------------------------------------
 .byte   PATT
  .word Label_2_01E8870A
@ 044   ----------------------------------------
 .byte   PATT
  .word Label_2_01E8870A
@ 045   ----------------------------------------
 .byte   PATT
  .word Label_2_01E8870A
@ 046   ----------------------------------------
 .byte   PATT
  .word Label_2_01E88738
@ 047   ----------------------------------------
 .byte   PATT
  .word Label_2_01E8870A
@ 048   ----------------------------------------
 .byte   PATT
  .word Label_2_01E8870A
@ 049   ----------------------------------------
 .byte   PATT
  .word Label_2_01E8870A
@ 050   ----------------------------------------
 .byte   PATT
  .word Label_2_01E8870A
@ 051   ----------------------------------------
 .byte   PATT
  .word Label_2_01E8870A
@ 052   ----------------------------------------
 .byte   PATT
  .word Label_2_01E8870A
@ 053   ----------------------------------------
 .byte   PATT
  .word Label_2_01E8870A
@ 054   ----------------------------------------
 .byte   PATT
  .word Label_2_01E88766
@ 055   ----------------------------------------
 .byte   PATT
  .word Label_2_01E8870A
@ 056   ----------------------------------------
 .byte   PATT
  .word Label_2_01E8870A
@ 057   ----------------------------------------
 .byte   PATT
  .word Label_2_01E8870A
@ 058   ----------------------------------------
 .byte   W96
@ 059   ----------------------------------------
 .byte   W96
@ 060   ----------------------------------------
 .byte   W96
@ 061   ----------------------------------------
 .byte   W96
@ 062   ----------------------------------------
 .byte   PATT
  .word Label_2_01E8870A
@ 063   ----------------------------------------
 .byte   PATT
  .word Label_2_01E8870A
@ 064   ----------------------------------------
 .byte   PATT
  .word Label_2_01E8870A
@ 065   ----------------------------------------
 .byte   PATT
  .word Label_2_01E8870A
@ 066   ----------------------------------------
 .byte   PATT
  .word Label_2_01E88766
@ 067   ----------------------------------------
 .byte   PATT
  .word Label_2_01E8870A
@ 068   ----------------------------------------
 .byte   PATT
  .word Label_2_01E8870A
@ 069   ----------------------------------------
 .byte   PATT
  .word Label_2_01E8870A
@ 070   ----------------------------------------
 .byte   PATT
  .word Label_2_01E8870A
@ 071   ----------------------------------------
 .byte   PATT
  .word Label_2_01E8870A
@ 072   ----------------------------------------
 .byte   PATT
  .word Label_2_01E8870A
@ 073   ----------------------------------------
 .byte   PATT
  .word Label_2_01E8870A
@ 074   ----------------------------------------
 .byte   PATT
  .word Label_2_01E88794
@ 075   ----------------------------------------
 .byte   PATT
  .word Label_2_01E8870A
@ 076   ----------------------------------------
 .byte   PATT
  .word Label_2_01E8870A
@ 077   ----------------------------------------
 .byte   PATT
  .word Label_2_01E887CC
@ 078   ----------------------------------------
 .byte   W96
@ 079   ----------------------------------------
 .byte   W96
@ 080   ----------------------------------------
 .byte   W96
@ 081   ----------------------------------------
 .byte   W96
@ 082   ----------------------------------------
 .byte   W96
@ 083   ----------------------------------------
 .byte   W96
@ 084   ----------------------------------------
 .byte   W96
@ 085   ----------------------------------------
 .byte   W96
@ 086   ----------------------------------------
 .byte   W96
@ 087   ----------------------------------------
 .byte   W96
@ 088   ----------------------------------------
 .byte   W96
@ 089   ----------------------------------------
 .byte   W92
 .byte   W03
 .byte   GOTO
  .word Label_2_01E8870A
@ 090   ----------------------------------------
 .byte   W01
 .byte   FINE

@**************** Track 4 (Midi-Chn.3) ****************@

song01E8_004:
@ 000   ----------------------------------------
 .byte   VOL , 74*song01E8_mvl/mxv
 .byte   KEYSH , song01E8_key+0
 .byte   VOICE , 117
 .byte   W96
@ 001   ----------------------------------------
 .byte   W96
@ 002   ----------------------------------------
 .byte   W96
@ 003   ----------------------------------------
 .byte   W96
@ 004   ----------------------------------------
Label_3_01E8889A:
 .byte   N12 ,Cn1 ,v116
 .byte   N12 ,En1
 .byte   W12
 .byte   N06 ,Fs1
 .byte   W06
 .byte   N06
 .byte   W06
 .byte   N06
 .byte   W12
 .byte   N12 ,Cn1
 .byte   W12
 .byte   N06 ,Fs1
 .byte   W06
 .byte   N06
 .byte   W06
 .byte   N06
 .byte   W12
 .byte   N12 ,Cn1
 .byte   W12
 .byte   N06 ,Fs1
 .byte   W06
 .byte   N06
 .byte   W06
 .byte   PEND 
@ 005   ----------------------------------------
Label_3_01E888BA:
 .byte   N12 ,En1 ,v116
 .byte   N06 ,Fs1
 .byte   W12
 .byte   N12 ,Cn1
 .byte   W12
 .byte   N06 ,Fs1
 .byte   W06
 .byte   N06
 .byte   W06
 .byte   N06
 .byte   W12
 .byte   N12 ,Cn1
 .byte   W12
 .byte   N06 ,Fs1
 .byte   W06
 .byte   N06
 .byte   W06
 .byte   N12 ,Cn1
 .byte   W12
 .byte   N06 ,Fs1
 .byte   W06
 .byte   N06
 .byte   W06
 .byte   PEND 
@ 006   ----------------------------------------
 .byte   PATT
  .word Label_3_01E8889A
@ 007   ----------------------------------------
 .byte   PATT
  .word Label_3_01E888BA
@ 008   ----------------------------------------
Label_3_01E888E5:
 .byte   N12 ,Cn1 ,v104
 .byte   N12 ,En1
 .byte   W12
 .byte   An1 ,v088
 .byte   W12
 .byte   N12
 .byte   W12
 .byte   Cn1 ,v104
 .byte   N12 ,An1 ,v088
 .byte   W12
 .byte   N12
 .byte   W12
 .byte   N12
 .byte   W12
 .byte   Cn1 ,v104
 .byte   N12 ,An1 ,v088
 .byte   W12
 .byte   N12
 .byte   W12
 .byte   PEND 
@ 009   ----------------------------------------
Label_3_01E88903:
 .byte   N12 ,En1 ,v104
 .byte   W12
 .byte   Cn1
 .byte   N12 ,An1 ,v088
 .byte   W12
 .byte   N12
 .byte   W12
 .byte   N12
 .byte   W12
 .byte   Cn1 ,v104
 .byte   N12 ,An1 ,v088
 .byte   W12
 .byte   N12
 .byte   W12
 .byte   N06 ,Cn1 ,v104
 .byte   N12 ,An1 ,v088
 .byte   W06
 .byte   N06 ,Cn1 ,v104
 .byte   W06
 .byte   N06
 .byte   N12 ,An1 ,v088
 .byte   W06
 .byte   N06 ,Cn1 ,v104
 .byte   W06
 .byte   PEND 
@ 010   ----------------------------------------
 .byte   PATT
  .word Label_3_01E888E5
@ 011   ----------------------------------------
 .byte   PATT
  .word Label_3_01E88903
@ 012   ----------------------------------------
 .byte   PATT
  .word Label_3_01E888E5
@ 013   ----------------------------------------
 .byte   PATT
  .word Label_3_01E88903
@ 014   ----------------------------------------
 .byte   PATT
  .word Label_3_01E888E5
@ 015   ----------------------------------------
 .byte   PATT
  .word Label_3_01E88903
@ 016   ----------------------------------------
 .byte   PATT
  .word Label_3_01E888E5
@ 017   ----------------------------------------
 .byte   PATT
  .word Label_3_01E88903
@ 018   ----------------------------------------
 .byte   PATT
  .word Label_3_01E888E5
@ 019   ----------------------------------------
 .byte   PATT
  .word Label_3_01E88903
@ 020   ----------------------------------------
 .byte   PATT
  .word Label_3_01E888E5
@ 021   ----------------------------------------
Label_3_01E88964:
 .byte   N12 ,En1 ,v104
 .byte   W12
 .byte   Cn1
 .byte   N12 ,An1 ,v088
 .byte   W12
 .byte   N12
 .byte   W12
 .byte   N12
 .byte   W12
 .byte   Cn1 ,v104
 .byte   N12 ,An1 ,v088
 .byte   W12
 .byte   N12
 .byte   W12
 .byte   Cn1 ,v104
 .byte   N12 ,An1 ,v088
 .byte   W12
 .byte   N12
 .byte   W12
 .byte   PEND 
@ 022   ----------------------------------------
 .byte   PATT
  .word Label_3_01E888E5
@ 023   ----------------------------------------
 .byte   PATT
  .word Label_3_01E88964
@ 024   ----------------------------------------
 .byte   PATT
  .word Label_3_01E888E5
@ 025   ----------------------------------------
 .byte   PATT
  .word Label_3_01E88964
@ 026   ----------------------------------------
 .byte   PATT
  .word Label_3_01E888E5
@ 027   ----------------------------------------
 .byte   PATT
  .word Label_3_01E88964
@ 028   ----------------------------------------
 .byte   PATT
  .word Label_3_01E888E5
@ 029   ----------------------------------------
 .byte   PATT
  .word Label_3_01E88903
@ 030   ----------------------------------------
 .byte   PATT
  .word Label_3_01E888E5
@ 031   ----------------------------------------
 .byte   PATT
  .word Label_3_01E88903
@ 032   ----------------------------------------
 .byte   PATT
  .word Label_3_01E888E5
@ 033   ----------------------------------------
 .byte   PATT
  .word Label_3_01E88903
@ 034   ----------------------------------------
 .byte   PATT
  .word Label_3_01E888E5
@ 035   ----------------------------------------
 .byte   PATT
  .word Label_3_01E88903
@ 036   ----------------------------------------
 .byte   PATT
  .word Label_3_01E888E5
@ 037   ----------------------------------------
 .byte   PATT
  .word Label_3_01E88903
@ 038   ----------------------------------------
 .byte   PATT
  .word Label_3_01E888E5
@ 039   ----------------------------------------
 .byte   PATT
  .word Label_3_01E88903
@ 040   ----------------------------------------
 .byte   PATT
  .word Label_3_01E888E5
@ 041   ----------------------------------------
 .byte   PATT
  .word Label_3_01E88903
@ 042   ----------------------------------------
 .byte   PATT
  .word Label_3_01E888E5
@ 043   ----------------------------------------
 .byte   PATT
  .word Label_3_01E88903
@ 044   ----------------------------------------
 .byte   PATT
  .word Label_3_01E888E5
@ 045   ----------------------------------------
 .byte   PATT
  .word Label_3_01E88903
@ 046   ----------------------------------------
 .byte   PATT
  .word Label_3_01E888E5
@ 047   ----------------------------------------
 .byte   PATT
  .word Label_3_01E88903
@ 048   ----------------------------------------
 .byte   PATT
  .word Label_3_01E888E5
@ 049   ----------------------------------------
 .byte   PATT
  .word Label_3_01E88903
@ 050   ----------------------------------------
 .byte   PATT
  .word Label_3_01E888E5
@ 051   ----------------------------------------
 .byte   PATT
  .word Label_3_01E88903
@ 052   ----------------------------------------
 .byte   PATT
  .word Label_3_01E888E5
@ 053   ----------------------------------------
 .byte   PATT
  .word Label_3_01E88903
@ 054   ----------------------------------------
 .byte   PATT
  .word Label_3_01E888E5
@ 055   ----------------------------------------
 .byte   PATT
  .word Label_3_01E88903
@ 056   ----------------------------------------
 .byte   PATT
  .word Label_3_01E888E5
@ 057   ----------------------------------------
 .byte   PATT
  .word Label_3_01E88903
@ 058   ----------------------------------------
 .byte   W96
@ 059   ----------------------------------------
 .byte   W96
@ 060   ----------------------------------------
 .byte   W96
@ 061   ----------------------------------------
 .byte   W96
@ 062   ----------------------------------------
 .byte   PATT
  .word Label_3_01E888E5
@ 063   ----------------------------------------
 .byte   PATT
  .word Label_3_01E88903
@ 064   ----------------------------------------
 .byte   PATT
  .word Label_3_01E888E5
@ 065   ----------------------------------------
 .byte   PATT
  .word Label_3_01E88903
@ 066   ----------------------------------------
 .byte   PATT
  .word Label_3_01E888E5
@ 067   ----------------------------------------
 .byte   PATT
  .word Label_3_01E88903
@ 068   ----------------------------------------
 .byte   PATT
  .word Label_3_01E888E5
@ 069   ----------------------------------------
 .byte   PATT
  .word Label_3_01E88903
@ 070   ----------------------------------------
 .byte   PATT
  .word Label_3_01E888E5
@ 071   ----------------------------------------
 .byte   PATT
  .word Label_3_01E88903
@ 072   ----------------------------------------
 .byte   PATT
  .word Label_3_01E888E5
@ 073   ----------------------------------------
 .byte   PATT
  .word Label_3_01E88903
@ 074   ----------------------------------------
 .byte   PATT
  .word Label_3_01E888E5
@ 075   ----------------------------------------
 .byte   PATT
  .word Label_3_01E88903
@ 076   ----------------------------------------
 .byte   PATT
  .word Label_3_01E888E5
@ 077   ----------------------------------------
 .byte   PATT
  .word Label_3_01E88903
@ 078   ----------------------------------------
 .byte   W96
@ 079   ----------------------------------------
 .byte   W96
@ 080   ----------------------------------------
 .byte   W96
@ 081   ----------------------------------------
 .byte   W96
@ 082   ----------------------------------------
 .byte   W96
@ 083   ----------------------------------------
 .byte   W96
@ 084   ----------------------------------------
 .byte   W96
@ 085   ----------------------------------------
 .byte   W96
@ 086   ----------------------------------------
 .byte   W96
@ 087   ----------------------------------------
 .byte   W96
@ 088   ----------------------------------------
 .byte   W96
@ 089   ----------------------------------------
 .byte   W84
 .byte   N03 ,Ds3 ,v127
 .byte   W03
 .byte   N03
 .byte   W03
 .byte   N03
 .byte   W03
 .byte   N03
 .byte   W02
 .byte   GOTO
  .word Label_3_01E888E5
@ 090   ----------------------------------------
 .byte   W01
 .byte   FINE

@**************** Track 5 (Midi-Chn.4) ****************@

song01E8_005:
@ 000   ----------------------------------------
 .byte   VOL , 47*song01E8_mvl/mxv
 .byte   KEYSH , song01E8_key+0
 .byte   VOICE , 57
 .byte   W96
@ 001   ----------------------------------------
 .byte   W96
@ 002   ----------------------------------------
 .byte   W96
@ 003   ----------------------------------------
 .byte   W96
@ 004   ----------------------------------------
 .byte   N96 ,Cn2 ,v096
 .byte   W96
@ 005   ----------------------------------------
 .byte   N96
 .byte   W96
@ 006   ----------------------------------------
 .byte   W96
@ 007   ----------------------------------------
 .byte   W96
@ 008   ----------------------------------------
Label_4_01E88ABA:
 .byte   TIE ,Cn2 ,v096
 .byte   W96
@ 009   ----------------------------------------
 .byte   W96
@ 010   ----------------------------------------
 .byte   EOT
 .byte   W96
@ 011   ----------------------------------------
 .byte   W96
@ 012   ----------------------------------------
 .byte   TIE
 .byte   W96
@ 013   ----------------------------------------
 .byte   W96
@ 014   ----------------------------------------
 .byte   EOT
 .byte   W96
@ 015   ----------------------------------------
 .byte   W96
@ 016   ----------------------------------------
 .byte   TIE ,Bn1
 .byte   W96
@ 017   ----------------------------------------
 .byte   W96
@ 018   ----------------------------------------
 .byte   EOT
 .byte   W96
@ 019   ----------------------------------------
 .byte   W96
@ 020   ----------------------------------------
 .byte   TIE ,Cn2
 .byte   W96
@ 021   ----------------------------------------
 .byte   W96
@ 022   ----------------------------------------
 .byte   EOT
 .byte   W96
@ 023   ----------------------------------------
 .byte   W96
@ 024   ----------------------------------------
 .byte   TIE ,Bn1
 .byte   W96
@ 025   ----------------------------------------
 .byte   W96
@ 026   ----------------------------------------
 .byte   EOT
 .byte   W96
@ 027   ----------------------------------------
 .byte   W96
@ 028   ----------------------------------------
 .byte   W96
@ 029   ----------------------------------------
 .byte   W96
@ 030   ----------------------------------------
 .byte   W96
@ 031   ----------------------------------------
 .byte   W96
@ 032   ----------------------------------------
 .byte   W96
@ 033   ----------------------------------------
 .byte   W96
@ 034   ----------------------------------------
 .byte   W96
@ 035   ----------------------------------------
 .byte   W96
@ 036   ----------------------------------------
 .byte   TIE ,Cn2
 .byte   W96
@ 037   ----------------------------------------
 .byte   W96
@ 038   ----------------------------------------
 .byte   EOT
 .byte   W96
@ 039   ----------------------------------------
 .byte   W96
@ 040   ----------------------------------------
 .byte   W96
@ 041   ----------------------------------------
 .byte   W96
@ 042   ----------------------------------------
 .byte   TIE
 .byte   W96
@ 043   ----------------------------------------
 .byte   W96
@ 044   ----------------------------------------
 .byte   EOT
 .byte   W96
@ 045   ----------------------------------------
 .byte   W96
@ 046   ----------------------------------------
 .byte   TIE ,Bn1
 .byte   W96
@ 047   ----------------------------------------
 .byte   W96
@ 048   ----------------------------------------
 .byte   EOT
 .byte   W96
@ 049   ----------------------------------------
 .byte   W96
@ 050   ----------------------------------------
 .byte   TIE ,Cn2
 .byte   W96
@ 051   ----------------------------------------
 .byte   W96
@ 052   ----------------------------------------
 .byte   EOT
 .byte   W96
@ 053   ----------------------------------------
 .byte   W96
@ 054   ----------------------------------------
 .byte   TIE ,Bn1
 .byte   W96
@ 055   ----------------------------------------
 .byte   W96
@ 056   ----------------------------------------
 .byte   EOT
 .byte   W96
@ 057   ----------------------------------------
 .byte   W96
@ 058   ----------------------------------------
 .byte   TIE ,Gs1 ,v116
 .byte   W96
@ 059   ----------------------------------------
 .byte   W48
 .byte   EOT
 .byte   W48
@ 060   ----------------------------------------
 .byte   W96
@ 061   ----------------------------------------
 .byte   W96
@ 062   ----------------------------------------
 .byte   TIE ,As1
 .byte   W96
@ 063   ----------------------------------------
 .byte   W48
 .byte   EOT
 .byte   W48
@ 064   ----------------------------------------
 .byte   W96
@ 065   ----------------------------------------
 .byte   W96
@ 066   ----------------------------------------
 .byte   TIE ,Gs1
 .byte   W96
@ 067   ----------------------------------------
 .byte   W48
 .byte   EOT
 .byte   W48
@ 068   ----------------------------------------
 .byte   W96
@ 069   ----------------------------------------
 .byte   W96
@ 070   ----------------------------------------
 .byte   TIE ,As1
 .byte   W96
@ 071   ----------------------------------------
 .byte   W48
 .byte   EOT
 .byte   W48
@ 072   ----------------------------------------
 .byte   W96
@ 073   ----------------------------------------
 .byte   W96
@ 074   ----------------------------------------
 .byte   TIE ,Gs1
 .byte   W96
@ 075   ----------------------------------------
 .byte   W48
 .byte   EOT
 .byte   W48
@ 076   ----------------------------------------
 .byte   N96 ,As1
 .byte   W96
@ 077   ----------------------------------------
 .byte   Bn1
 .byte   W96
@ 078   ----------------------------------------
 .byte   W96
@ 079   ----------------------------------------
 .byte   W96
@ 080   ----------------------------------------
 .byte   W96
@ 081   ----------------------------------------
 .byte   W96
@ 082   ----------------------------------------
 .byte   W96
@ 083   ----------------------------------------
 .byte   W96
@ 084   ----------------------------------------
 .byte   W96
@ 085   ----------------------------------------
 .byte   W96
@ 086   ----------------------------------------
 .byte   W96
@ 087   ----------------------------------------
 .byte   W96
@ 088   ----------------------------------------
 .byte   W96
@ 089   ----------------------------------------
 .byte   W92
 .byte   W03
 .byte   GOTO
  .word Label_4_01E88ABA
@ 090   ----------------------------------------
 .byte   W01
 .byte   FINE

@**************** Track 6 (Midi-Chn.5) ****************@

song01E8_006:
@ 000   ----------------------------------------
 .byte   VOL , 94*song01E8_mvl/mxv
 .byte   KEYSH , song01E8_key+0
 .byte   VOICE , 42
 .byte   W96
@ 001   ----------------------------------------
 .byte   W96
@ 002   ----------------------------------------
 .byte   W96
@ 003   ----------------------------------------
 .byte   W96
@ 004   ----------------------------------------
 .byte   TIE ,Gn4 ,v096
 .byte   W96
@ 005   ----------------------------------------
 .byte   W96
@ 006   ----------------------------------------
 .byte   EOT
 .byte   N96 ,Cn5
 .byte   W96
@ 007   ----------------------------------------
 .byte   N72 ,Dn5
 .byte   W72
 .byte   N06
 .byte   W06
 .byte   N06
 .byte   W06
 .byte   N06
 .byte   W06
 .byte   N06
 .byte   W06
@ 008   ----------------------------------------
Label_5_01E88B6A:
 .byte   W96
@ 009   ----------------------------------------
 .byte   W96
@ 010   ----------------------------------------
 .byte   W96
@ 011   ----------------------------------------
 .byte   W72
 .byte   N06 ,Gn3 ,v096
 .byte   W06
 .byte   An3
 .byte   W06
 .byte   Bn3
 .byte   W06
 .byte   Cn4
 .byte   W06
@ 012   ----------------------------------------
Label_5_01E88B78:
 .byte   N60 ,Dn4 ,v096
 .byte   W60
 .byte   N12 ,Cn4
 .byte   W12
 .byte   Gn4
 .byte   W12
 .byte   N72 ,Dn4
 .byte   W12
 .byte   PEND 
@ 013   ----------------------------------------
Label_5_01E88B85:
 .byte   W60
 .byte   N12 ,Cn4 ,v096
 .byte   W12
 .byte   Gn4
 .byte   W12
 .byte   TIE ,Dn4
 .byte   W12
 .byte   PEND 
@ 014   ----------------------------------------
 .byte   W96
@ 015   ----------------------------------------
 .byte   W12
 .byte   EOT
 .byte   N12 ,Cn4
 .byte   W12
 .byte   Dn4
 .byte   W12
 .byte   Ds4
 .byte   W12
 .byte   Fn4
 .byte   W12
 .byte   Ds4
 .byte   W12
 .byte   Dn4
 .byte   W12
 .byte   Cn4
 .byte   W12
@ 016   ----------------------------------------
 .byte   TIE ,Bn3
 .byte   W96
@ 017   ----------------------------------------
 .byte   W60
 .byte   EOT
 .byte   N12 ,Gn3
 .byte   W12
 .byte   Gn4
 .byte   W12
 .byte   TIE ,Dn4
 .byte   W12
@ 018   ----------------------------------------
 .byte   W96
@ 019   ----------------------------------------
 .byte   W72
 .byte   EOT
 .byte   N06
 .byte   W06
 .byte   Ds4
 .byte   W06
 .byte   Dn4
 .byte   W06
 .byte   Cn4
 .byte   W06
@ 020   ----------------------------------------
 .byte   PATT
  .word Label_5_01E88B78
@ 021   ----------------------------------------
 .byte   PATT
  .word Label_5_01E88B85
@ 022   ----------------------------------------
 .byte   W96
@ 023   ----------------------------------------
 .byte   W12
 .byte   EOT
 .byte   Dn4
 .byte   N12 ,Cn4 ,v096
 .byte   W12
 .byte   Dn4
 .byte   W12
 .byte   Ds4
 .byte   W12
 .byte   Fn4
 .byte   W12
 .byte   Ds4
 .byte   W12
 .byte   Fn4
 .byte   W12
 .byte   Gn4
 .byte   W12
@ 024   ----------------------------------------
 .byte   TIE ,Bn3
 .byte   W96
@ 025   ----------------------------------------
 .byte   W72
 .byte   EOT
 .byte   N06
 .byte   W06
 .byte   Cn4
 .byte   W06
 .byte   Dn4
 .byte   W06
 .byte   Ds4
 .byte   W06
@ 026   ----------------------------------------
 .byte   TIE ,Dn4
 .byte   W96
@ 027   ----------------------------------------
 .byte   W72
 .byte   EOT
 .byte   N06
 .byte   W06
 .byte   Ds4
 .byte   W06
 .byte   Dn4
 .byte   W06
 .byte   Cn4
 .byte   W06
@ 028   ----------------------------------------
 .byte   N06
 .byte   W06
 .byte   N18 ,Dn4
 .byte   W18
 .byte   N12 ,Cn4
 .byte   W12
 .byte   Dn4
 .byte   W12
 .byte   Gn4
 .byte   W12
 .byte   N24 ,Dn4
 .byte   W24
 .byte   N12 ,Cn4
 .byte   W12
@ 029   ----------------------------------------
 .byte   Gn3
 .byte   W12
 .byte   Cn4
 .byte   W12
 .byte   Dn4
 .byte   W12
 .byte   N24 ,Gn4
 .byte   W24
 .byte   N12 ,Dn4
 .byte   W12
 .byte   N12
 .byte   W12
 .byte   Cn4
 .byte   W12
@ 030   ----------------------------------------
 .byte   N18 ,Cs4
 .byte   W18
 .byte   Cn4
 .byte   W18
 .byte   N12 ,Cs4
 .byte   W12
 .byte   N06 ,Gn4
 .byte   W06
 .byte   Gs4
 .byte   W06
 .byte   N60 ,As4
 .byte   W36
@ 031   ----------------------------------------
 .byte   W24
 .byte   N24 ,Gs4
 .byte   W24
 .byte   As4
 .byte   W24
 .byte   Gs4
 .byte   W24
@ 032   ----------------------------------------
 .byte   N06 ,Gn4
 .byte   W06
 .byte   Gs4
 .byte   W06
 .byte   Gn4
 .byte   W06
 .byte   Fn4
 .byte   W06
 .byte   TIE ,Gn4
 .byte   W72
@ 033   ----------------------------------------
 .byte   W48
 .byte   EOT
 .byte   W24
 .byte   N24 ,Cn4
 .byte   W24
@ 034   ----------------------------------------
 .byte   TIE ,Gn3
 .byte   W96
@ 035   ----------------------------------------
 .byte   W24
 .byte   EOT
 .byte   N24 ,En3
 .byte   W24
 .byte   Gn3
 .byte   W24
 .byte   En3
 .byte   W24
@ 036   ----------------------------------------
 .byte   N48 ,Fn3
 .byte   W48
 .byte   Gn3
 .byte   W48
@ 037   ----------------------------------------
 .byte   Gs3
 .byte   W48
 .byte   As3
 .byte   W48
@ 038   ----------------------------------------
 .byte   TIE ,Cn4
 .byte   W96
@ 039   ----------------------------------------
 .byte   W84
 .byte   EOT
 .byte   N06 ,Bn3
 .byte   W06
 .byte   Cn4
 .byte   W06
@ 040   ----------------------------------------
 .byte   TIE ,Dn4
 .byte   W96
@ 041   ----------------------------------------
 .byte   W60
 .byte   EOT
 .byte   W12
 .byte   N06 ,Gn3
 .byte   W06
 .byte   An3
 .byte   W06
 .byte   Bn3
 .byte   W06
 .byte   Cn4
 .byte   W06
@ 042   ----------------------------------------
 .byte   PATT
  .word Label_5_01E88B78
@ 043   ----------------------------------------
 .byte   PATT
  .word Label_5_01E88B85
@ 044   ----------------------------------------
 .byte   W96
@ 045   ----------------------------------------
 .byte   W12
 .byte   EOT
 .byte   Dn4
 .byte   N12 ,Cn4 ,v096
 .byte   W12
 .byte   Dn4
 .byte   W12
 .byte   Ds4
 .byte   W12
 .byte   Fn4
 .byte   W12
 .byte   Ds4
 .byte   W12
 .byte   Dn4
 .byte   W12
 .byte   Cn4
 .byte   W12
@ 046   ----------------------------------------
 .byte   TIE ,Bn3
 .byte   W96
@ 047   ----------------------------------------
 .byte   W60
 .byte   EOT
 .byte   N12 ,Gn3
 .byte   W12
 .byte   Gn4
 .byte   W12
 .byte   TIE ,Dn4
 .byte   W12
@ 048   ----------------------------------------
 .byte   W96
@ 049   ----------------------------------------
 .byte   W72
 .byte   EOT
 .byte   N06
 .byte   W06
 .byte   Ds4
 .byte   W06
 .byte   Dn4
 .byte   W06
 .byte   Cn4
 .byte   W06
@ 050   ----------------------------------------
 .byte   PATT
  .word Label_5_01E88B78
@ 051   ----------------------------------------
 .byte   PATT
  .word Label_5_01E88B85
@ 052   ----------------------------------------
 .byte   W96
@ 053   ----------------------------------------
 .byte   W12
 .byte   EOT
 .byte   Dn4
 .byte   N12 ,Cn4 ,v096
 .byte   W12
 .byte   Dn4
 .byte   W12
 .byte   Ds4
 .byte   W12
 .byte   Fn4
 .byte   W12
 .byte   Ds4
 .byte   W12
 .byte   Fn4
 .byte   W12
 .byte   Gn4
 .byte   W12
@ 054   ----------------------------------------
 .byte   TIE ,Bn3
 .byte   W96
@ 055   ----------------------------------------
 .byte   W72
 .byte   EOT
 .byte   N06
 .byte   W06
 .byte   Cn4
 .byte   W06
 .byte   Dn4
 .byte   W06
 .byte   Ds4
 .byte   W06
@ 056   ----------------------------------------
 .byte   TIE ,Dn4
 .byte   W96
@ 057   ----------------------------------------
 .byte   W72
 .byte   EOT
 .byte   N06 ,Cn4
 .byte   W06
 .byte   Dn4
 .byte   W06
 .byte   Ds4
 .byte   W06
 .byte   Fn4
 .byte   W06
@ 058   ----------------------------------------
 .byte   TIE ,Gn4
 .byte   W96
@ 059   ----------------------------------------
 .byte   W36
 .byte   EOT
 .byte   N36 ,Dn5
 .byte   W36
 .byte   N24 ,Ds5
 .byte   W24
@ 060   ----------------------------------------
 .byte   N36 ,Dn5
 .byte   W36
 .byte   Cn5
 .byte   W36
 .byte   N24 ,Gn4
 .byte   W24
@ 061   ----------------------------------------
Label_5_01E88CEE:
 .byte   N36 ,Fn4 ,v096
 .byte   W36
 .byte   Ds4
 .byte   W36
 .byte   N24 ,Dn4
 .byte   W24
 .byte   PEND 
@ 062   ----------------------------------------
 .byte   N36 ,Cn4
 .byte   W36
 .byte   N96 ,Gn4
 .byte   W60
@ 063   ----------------------------------------
 .byte   W36
 .byte   N36 ,As4
 .byte   W36
 .byte   N24 ,Gs4
 .byte   W24
@ 064   ----------------------------------------
Label_5_01E88D05:
 .byte   N36 ,Gn4 ,v096
 .byte   W36
 .byte   N60 ,Dn4
 .byte   W60
 .byte   PEND 
@ 065   ----------------------------------------
 .byte   PATT
  .word Label_5_01E88CEE
@ 066   ----------------------------------------
 .byte   TIE ,Gn4 ,v096
 .byte   W96
@ 067   ----------------------------------------
 .byte   W36
 .byte   EOT
 .byte   N36 ,Dn5
 .byte   W36
 .byte   N24 ,Ds5
 .byte   W24
@ 068   ----------------------------------------
 .byte   N36 ,Dn5
 .byte   W36
 .byte   Cn5
 .byte   W36
 .byte   N24 ,Dn5
 .byte   W24
@ 069   ----------------------------------------
 .byte   N36 ,Fn5
 .byte   W36
 .byte   Ds5
 .byte   W36
 .byte   N24 ,Dn5
 .byte   W24
@ 070   ----------------------------------------
 .byte   N36 ,Cn5
 .byte   W36
 .byte   N96 ,Gn5
 .byte   W60
@ 071   ----------------------------------------
 .byte   W36
 .byte   N36 ,Fn4
 .byte   W36
 .byte   N24 ,Ds4
 .byte   W24
@ 072   ----------------------------------------
 .byte   N36 ,Dn4
 .byte   W36
 .byte   Ds4
 .byte   W36
 .byte   N24 ,Fn4
 .byte   W24
@ 073   ----------------------------------------
 .byte   N36 ,Gn4
 .byte   W36
 .byte   Fn4
 .byte   W36
 .byte   N24 ,As4
 .byte   W24
@ 074   ----------------------------------------
 .byte   N36 ,Cn5
 .byte   W36
 .byte   N96 ,Gn4
 .byte   W60
@ 075   ----------------------------------------
 .byte   W36
 .byte   N36
 .byte   W36
 .byte   N24 ,Gs4
 .byte   W24
@ 076   ----------------------------------------
 .byte   PATT
  .word Label_5_01E88D05
@ 077   ----------------------------------------
 .byte   PATT
  .word Label_5_01E88CEE
@ 078   ----------------------------------------
 .byte   W96
@ 079   ----------------------------------------
 .byte   W96
@ 080   ----------------------------------------
 .byte   W96
@ 081   ----------------------------------------
 .byte   W96
@ 082   ----------------------------------------
 .byte   W96
@ 083   ----------------------------------------
 .byte   W96
@ 084   ----------------------------------------
 .byte   W96
@ 085   ----------------------------------------
 .byte   W96
@ 086   ----------------------------------------
 .byte   W96
@ 087   ----------------------------------------
 .byte   W96
@ 088   ----------------------------------------
 .byte   W96
@ 089   ----------------------------------------
 .byte   W92
 .byte   W03
 .byte   GOTO
  .word Label_5_01E88B6A
@ 090   ----------------------------------------
 .byte   W01
 .byte   FINE

@**************** Track 7 (Midi-Chn.6) ****************@

song01E8_007:
@ 000   ----------------------------------------
 .byte   VOL , 32*song01E8_mvl/mxv
 .byte   KEYSH , song01E8_key+0
 .byte   VOICE , 40
 .byte   W96
@ 001   ----------------------------------------
 .byte   W96
@ 002   ----------------------------------------
 .byte   W96
@ 003   ----------------------------------------
 .byte   W96
@ 004   ----------------------------------------
 .byte   W96
@ 005   ----------------------------------------
 .byte   W96
@ 006   ----------------------------------------
 .byte   W96
@ 007   ----------------------------------------
 .byte   W72
 .byte   N06 ,As2 ,v096
 .byte   N06 ,Cn3
 .byte   W06
 .byte   Bn2
 .byte   N06 ,Dn3
 .byte   W06
 .byte   Cn3
 .byte   N06 ,Ds3
 .byte   W06
 .byte   Dn3
 .byte   N06 ,Fn3
 .byte   W06
@ 008   ----------------------------------------
Label_6_01E88D98:
 .byte   N18 ,Cn3 ,v096
 .byte   N18 ,Gn3 ,v127
 .byte   W36
 .byte   Cn3 ,v096
 .byte   N18 ,Gn3 ,v127
 .byte   W36
 .byte   Bn2 ,v096
 .byte   N18 ,Fn3 ,v127
 .byte   W24
 .byte   PEND 
@ 009   ----------------------------------------
 .byte   PATT
  .word Label_6_01E88D98
@ 010   ----------------------------------------
Label_6_01E88DB1:
 .byte   N18 ,Cn3 ,v096
 .byte   N18 ,Ds3
 .byte   N18 ,Gn3 ,v127
 .byte   W36
 .byte   Cn3 ,v096
 .byte   N18 ,Fn3
 .byte   N18 ,Gs3 ,v127
 .byte   W36
 .byte   Bn2 ,v096
 .byte   N18 ,Gn3
 .byte   N18 ,As3 ,v127
 .byte   W24
 .byte   PEND 
@ 011   ----------------------------------------
Label_6_01E88DCB:
 .byte   N18 ,Cn3 ,v096
 .byte   N18 ,Fn3 ,v092
 .byte   N18 ,Gs3 ,v127
 .byte   W36
 .byte   Cn3 ,v096
 .byte   N18 ,Ds3 ,v092
 .byte   N18 ,Gn3 ,v127
 .byte   W36
 .byte   Bn2 ,v096
 .byte   N18 ,Dn3 ,v092
 .byte   N18 ,Fn3 ,v127
 .byte   W24
 .byte   PEND 
@ 012   ----------------------------------------
 .byte   PATT
  .word Label_6_01E88D98
@ 013   ----------------------------------------
 .byte   PATT
  .word Label_6_01E88D98
@ 014   ----------------------------------------
Label_6_01E88DF2:
 .byte   N18 ,Cn3 ,v096
 .byte   N18 ,Gn3 ,v127
 .byte   W36
 .byte   Cn3 ,v096
 .byte   N18 ,Gs3 ,v127
 .byte   W36
 .byte   Bn2 ,v096
 .byte   N18 ,As3 ,v127
 .byte   W24
 .byte   PEND 
@ 015   ----------------------------------------
Label_6_01E88E06:
 .byte   N18 ,Cn3 ,v096
 .byte   N18 ,Gs3 ,v127
 .byte   W36
 .byte   Cn3 ,v096
 .byte   N18 ,Gn3 ,v127
 .byte   W36
 .byte   Bn2 ,v096
 .byte   N18 ,Fn3 ,v127
 .byte   W24
 .byte   PEND 
@ 016   ----------------------------------------
Label_6_01E88E1A:
 .byte   N18 ,Bn2 ,v096
 .byte   N18 ,Gn3 ,v127
 .byte   W36
 .byte   Bn2 ,v096
 .byte   N18 ,Gn3 ,v127
 .byte   W36
 .byte   Gn2 ,v096
 .byte   N18 ,Fn3 ,v127
 .byte   W24
 .byte   PEND 
@ 017   ----------------------------------------
 .byte   PATT
  .word Label_6_01E88E1A
@ 018   ----------------------------------------
Label_6_01E88E33:
 .byte   N18 ,Bn2 ,v096
 .byte   N18 ,Gn3 ,v127
 .byte   W36
 .byte   Bn2 ,v096
 .byte   N18 ,Gs3 ,v127
 .byte   W36
 .byte   Gn2 ,v096
 .byte   N18 ,Bn3 ,v127
 .byte   W24
 .byte   PEND 
@ 019   ----------------------------------------
Label_6_01E88E47:
 .byte   N18 ,Bn2 ,v096
 .byte   N18 ,Gs3 ,v127
 .byte   W36
 .byte   Bn2 ,v096
 .byte   N18 ,Gn3 ,v127
 .byte   W36
 .byte   Gn2 ,v096
 .byte   N18 ,Fn3 ,v127
 .byte   W24
 .byte   PEND 
@ 020   ----------------------------------------
 .byte   PATT
  .word Label_6_01E88D98
@ 021   ----------------------------------------
 .byte   PATT
  .word Label_6_01E88D98
@ 022   ----------------------------------------
 .byte   PATT
  .word Label_6_01E88DF2
@ 023   ----------------------------------------
 .byte   PATT
  .word Label_6_01E88E06
@ 024   ----------------------------------------
 .byte   PATT
  .word Label_6_01E88E1A
@ 025   ----------------------------------------
 .byte   PATT
  .word Label_6_01E88E1A
@ 026   ----------------------------------------
 .byte   PATT
  .word Label_6_01E88E33
@ 027   ----------------------------------------
 .byte   PATT
  .word Label_6_01E88E47
@ 028   ----------------------------------------
Label_6_01E88E83:
 .byte   N06 ,Ds3 ,v060
 .byte   N06 ,Gn3 ,v092
 .byte   W06
 .byte   Ds3 ,v060
 .byte   N06 ,Gn3 ,v092
 .byte   W06
 .byte   Cn3 ,v060
 .byte   N06 ,Ds3 ,v092
 .byte   W06
 .byte   Cn3 ,v060
 .byte   N06 ,Ds3 ,v092
 .byte   W06
 .byte   Cn3 ,v060
 .byte   N06 ,Ds3 ,v092
 .byte   W06
 .byte   Cn3 ,v060
 .byte   N06 ,Ds3 ,v092
 .byte   W06
 .byte   Gn2 ,v060
 .byte   N06 ,Cn3 ,v092
 .byte   W06
 .byte   Gn2 ,v060
 .byte   N06 ,Cn3 ,v092
 .byte   W06
 .byte   Ds3 ,v060
 .byte   N06 ,Gn3 ,v092
 .byte   W06
 .byte   Ds3 ,v060
 .byte   N06 ,Gn3 ,v092
 .byte   W06
 .byte   Cn3 ,v060
 .byte   N06 ,Ds3 ,v092
 .byte   W06
 .byte   Cn3 ,v060
 .byte   N06 ,Ds3 ,v092
 .byte   W06
 .byte   Cn3 ,v060
 .byte   N06 ,Ds3 ,v092
 .byte   W06
 .byte   Cn3 ,v060
 .byte   N06 ,Ds3 ,v092
 .byte   W06
 .byte   Gn2 ,v060
 .byte   N06 ,Cn3 ,v092
 .byte   W06
 .byte   Gn2 ,v060
 .byte   N06 ,Cn3 ,v092
 .byte   W06
 .byte   PEND 
@ 029   ----------------------------------------
 .byte   PATT
  .word Label_6_01E88E83
@ 030   ----------------------------------------
Label_6_01E88EEA:
 .byte   N06 ,Cs3 ,v060
 .byte   N06 ,Gs3 ,v092
 .byte   W06
 .byte   Cs3 ,v060
 .byte   N06 ,Gs3 ,v092
 .byte   W06
 .byte   As2 ,v060
 .byte   N06 ,Fn3 ,v092
 .byte   W06
 .byte   As2 ,v060
 .byte   N06 ,Fn3 ,v092
 .byte   W06
 .byte   As2 ,v060
 .byte   N06 ,Fn3 ,v092
 .byte   W06
 .byte   As2 ,v060
 .byte   N06 ,Fn3 ,v092
 .byte   W06
 .byte   Fn2 ,v060
 .byte   N06 ,Cs3 ,v092
 .byte   W06
 .byte   Fn2 ,v060
 .byte   N06 ,Cs3 ,v092
 .byte   W06
 .byte   Cs3 ,v060
 .byte   N06 ,Gs3 ,v092
 .byte   W06
 .byte   Cs3 ,v060
 .byte   N06 ,Gs3 ,v092
 .byte   W06
 .byte   As2 ,v060
 .byte   N06 ,Fn3 ,v092
 .byte   W06
 .byte   As2 ,v060
 .byte   N06 ,Fn3 ,v092
 .byte   W06
 .byte   As2 ,v060
 .byte   N06 ,Fn3 ,v092
 .byte   W06
 .byte   As2 ,v060
 .byte   N06 ,Fn3 ,v092
 .byte   W06
 .byte   Fn2 ,v060
 .byte   N06 ,Cs3 ,v092
 .byte   W06
 .byte   Fn2 ,v060
 .byte   N06 ,Cs3 ,v092
 .byte   W06
 .byte   PEND 
@ 031   ----------------------------------------
 .byte   PATT
  .word Label_6_01E88EEA
@ 032   ----------------------------------------
 .byte   PATT
  .word Label_6_01E88E83
@ 033   ----------------------------------------
 .byte   PATT
  .word Label_6_01E88E83
@ 034   ----------------------------------------
 .byte   N06 ,En3 ,v076
 .byte   N06 ,Gn3 ,v092
 .byte   W06
 .byte   En3 ,v076
 .byte   N06 ,Gn3 ,v092
 .byte   W06
 .byte   Bn2 ,v076
 .byte   N06 ,En3 ,v092
 .byte   W06
 .byte   Bn2 ,v076
 .byte   N06 ,En3 ,v092
 .byte   W06
 .byte   Bn2 ,v076
 .byte   N06 ,En3 ,v092
 .byte   W06
 .byte   Bn2 ,v076
 .byte   N06 ,En3 ,v092
 .byte   W06
 .byte   En2 ,v076
 .byte   N06 ,Bn2 ,v092
 .byte   W06
 .byte   En2 ,v076
 .byte   N06 ,Bn2 ,v092
 .byte   W06
 .byte   En3 ,v080
 .byte   N06 ,Gn3 ,v092
 .byte   W06
 .byte   En3 ,v080
 .byte   N06 ,Gn3 ,v092
 .byte   W06
 .byte   Bn2 ,v080
 .byte   N06 ,En3 ,v092
 .byte   W06
 .byte   Bn2 ,v080
 .byte   N06 ,En3 ,v092
 .byte   W06
 .byte   Bn2 ,v080
 .byte   N06 ,En3 ,v092
 .byte   W06
 .byte   Bn2 ,v080
 .byte   N06 ,En3 ,v092
 .byte   W06
 .byte   En2 ,v080
 .byte   N06 ,Bn2 ,v092
 .byte   W06
 .byte   En2 ,v080
 .byte   N06 ,Bn2 ,v092
 .byte   W06
@ 035   ----------------------------------------
 .byte   En3 ,v080
 .byte   N06 ,Gn3 ,v092
 .byte   W06
 .byte   En3 ,v080
 .byte   N06 ,Gn3 ,v092
 .byte   W06
 .byte   Bn2 ,v080
 .byte   N06 ,En3 ,v092
 .byte   W06
 .byte   Bn2 ,v080
 .byte   N06 ,En3 ,v092
 .byte   W06
 .byte   Bn2 ,v080
 .byte   N06 ,En3 ,v092
 .byte   W06
 .byte   Bn2 ,v080
 .byte   N06 ,En3 ,v092
 .byte   W06
 .byte   En2 ,v080
 .byte   N06 ,Bn2 ,v092
 .byte   W06
 .byte   En2 ,v080
 .byte   N06 ,Bn2 ,v092
 .byte   W06
 .byte   En3 ,v080
 .byte   N06 ,Gn3 ,v092
 .byte   W06
 .byte   En3 ,v080
 .byte   N06 ,Gn3 ,v092
 .byte   W06
 .byte   Bn2 ,v080
 .byte   N06 ,En3 ,v092
 .byte   W06
 .byte   Bn2 ,v080
 .byte   N06 ,En3 ,v092
 .byte   W06
 .byte   Bn2 ,v080
 .byte   N06 ,En3 ,v092
 .byte   W06
 .byte   Bn2 ,v080
 .byte   N06 ,En3 ,v092
 .byte   W06
 .byte   En2 ,v080
 .byte   N06 ,Bn2 ,v092
 .byte   W06
 .byte   En2 ,v080
 .byte   N06 ,Bn2 ,v092
 .byte   W06
@ 036   ----------------------------------------
 .byte   PATT
  .word Label_6_01E88E83
@ 037   ----------------------------------------
 .byte   PATT
  .word Label_6_01E88E83
@ 038   ----------------------------------------
Label_6_01E89026:
 .byte   N06 ,Ds3 ,v060
 .byte   N06 ,Gs3 ,v092
 .byte   W06
 .byte   Ds3 ,v060
 .byte   N06 ,Gs3 ,v092
 .byte   W06
 .byte   Cn3 ,v060
 .byte   N06 ,Ds3 ,v092
 .byte   W06
 .byte   Cn3 ,v060
 .byte   N06 ,Ds3 ,v092
 .byte   W06
 .byte   Cn3 ,v060
 .byte   N06 ,Ds3 ,v092
 .byte   W06
 .byte   Cn3 ,v060
 .byte   N06 ,Ds3 ,v092
 .byte   W06
 .byte   Gn2 ,v060
 .byte   N06 ,Cn3 ,v092
 .byte   W06
 .byte   Gn2 ,v060
 .byte   N06 ,Cn3 ,v092
 .byte   W06
 .byte   Ds3 ,v060
 .byte   N06 ,Gs3 ,v092
 .byte   W06
 .byte   Ds3 ,v060
 .byte   N06 ,Gs3 ,v092
 .byte   W06
 .byte   Cn3 ,v060
 .byte   N06 ,Ds3 ,v092
 .byte   W06
 .byte   Cn3 ,v060
 .byte   N06 ,Ds3 ,v092
 .byte   W06
 .byte   Cn3 ,v060
 .byte   N06 ,Ds3 ,v092
 .byte   W06
 .byte   Cn3 ,v060
 .byte   N06 ,Ds3 ,v092
 .byte   W06
 .byte   Gn2 ,v060
 .byte   N06 ,Cn3 ,v092
 .byte   W06
 .byte   Gn2 ,v060
 .byte   N06 ,Cn3 ,v092
 .byte   W06
 .byte   PEND 
@ 039   ----------------------------------------
 .byte   PATT
  .word Label_6_01E89026
@ 040   ----------------------------------------
 .byte   PATT
  .word Label_6_01E88E33
@ 041   ----------------------------------------
 .byte   PATT
  .word Label_6_01E88E47
@ 042   ----------------------------------------
 .byte   PATT
  .word Label_6_01E88D98
@ 043   ----------------------------------------
 .byte   PATT
  .word Label_6_01E88D98
@ 044   ----------------------------------------
 .byte   PATT
  .word Label_6_01E88DF2
@ 045   ----------------------------------------
 .byte   PATT
  .word Label_6_01E88E06
@ 046   ----------------------------------------
 .byte   PATT
  .word Label_6_01E88E1A
@ 047   ----------------------------------------
 .byte   PATT
  .word Label_6_01E88E1A
@ 048   ----------------------------------------
 .byte   PATT
  .word Label_6_01E88E33
@ 049   ----------------------------------------
 .byte   PATT
  .word Label_6_01E88E47
@ 050   ----------------------------------------
 .byte   PATT
  .word Label_6_01E88D98
@ 051   ----------------------------------------
 .byte   PATT
  .word Label_6_01E88D98
@ 052   ----------------------------------------
 .byte   PATT
  .word Label_6_01E88DF2
@ 053   ----------------------------------------
 .byte   PATT
  .word Label_6_01E88E06
@ 054   ----------------------------------------
 .byte   PATT
  .word Label_6_01E88E1A
@ 055   ----------------------------------------
 .byte   PATT
  .word Label_6_01E88E1A
@ 056   ----------------------------------------
 .byte   PATT
  .word Label_6_01E88E33
@ 057   ----------------------------------------
 .byte   PATT
  .word Label_6_01E88E47
@ 058   ----------------------------------------
 .byte   W96
@ 059   ----------------------------------------
 .byte   W96
@ 060   ----------------------------------------
 .byte   W96
@ 061   ----------------------------------------
 .byte   W96
@ 062   ----------------------------------------
 .byte   PATT
  .word Label_6_01E88D98
@ 063   ----------------------------------------
 .byte   PATT
  .word Label_6_01E88D98
@ 064   ----------------------------------------
 .byte   PATT
  .word Label_6_01E88DB1
@ 065   ----------------------------------------
 .byte   PATT
  .word Label_6_01E88DCB
@ 066   ----------------------------------------
 .byte   PATT
  .word Label_6_01E88D98
@ 067   ----------------------------------------
 .byte   PATT
  .word Label_6_01E88D98
@ 068   ----------------------------------------
 .byte   PATT
  .word Label_6_01E88DF2
@ 069   ----------------------------------------
 .byte   PATT
  .word Label_6_01E88E06
@ 070   ----------------------------------------
 .byte   PATT
  .word Label_6_01E88D98
@ 071   ----------------------------------------
 .byte   PATT
  .word Label_6_01E88D98
@ 072   ----------------------------------------
 .byte   PATT
  .word Label_6_01E88DF2
@ 073   ----------------------------------------
 .byte   PATT
  .word Label_6_01E88E06
@ 074   ----------------------------------------
Label_6_01E89127:
 .byte   N18 ,Bn2 ,v072
 .byte   N18 ,Gn3 ,v104
 .byte   W36
 .byte   Bn2 ,v072
 .byte   N18 ,Gn3 ,v104
 .byte   W36
 .byte   Gn2 ,v072
 .byte   N18 ,Fn3 ,v104
 .byte   W24
 .byte   PEND 
@ 075   ----------------------------------------
 .byte   PATT
  .word Label_6_01E89127
@ 076   ----------------------------------------
 .byte   N18 ,Bn2 ,v127
 .byte   N18 ,Gn3
 .byte   W36
 .byte   Bn2
 .byte   N18 ,Gs3
 .byte   W36
 .byte   Gn2
 .byte   N18 ,Bn3
 .byte   W24
@ 077   ----------------------------------------
 .byte   Bn2
 .byte   N18 ,Gs3
 .byte   W36
 .byte   Bn2
 .byte   N18 ,Gn3
 .byte   W36
 .byte   Gn2
 .byte   N18 ,Fn3
 .byte   W24
@ 078   ----------------------------------------
 .byte   W96
@ 079   ----------------------------------------
 .byte   W96
@ 080   ----------------------------------------
 .byte   W96
@ 081   ----------------------------------------
 .byte   W96
@ 082   ----------------------------------------
 .byte   W96
@ 083   ----------------------------------------
 .byte   W96
@ 084   ----------------------------------------
 .byte   W96
@ 085   ----------------------------------------
 .byte   W96
@ 086   ----------------------------------------
Label_6_01E89162:
 .byte   N12 ,Cn4 ,v096
 .byte   W12
 .byte   Cn5
 .byte   W12
 .byte   Bn4
 .byte   W12
 .byte   Gn4
 .byte   W12
 .byte   As4
 .byte   W12
 .byte   Gs4
 .byte   W12
 .byte   Fn4
 .byte   W12
 .byte   Gn4
 .byte   W12
 .byte   PEND 
@ 087   ----------------------------------------
 .byte   Cn4
 .byte   W12
 .byte   Dn4
 .byte   W12
 .byte   Ds4
 .byte   W12
 .byte   Cn4
 .byte   W12
 .byte   Dn4
 .byte   W12
 .byte   Ds4
 .byte   W12
 .byte   Gn4
 .byte   W12
 .byte   Fn4
 .byte   W12
@ 088   ----------------------------------------
 .byte   PATT
  .word Label_6_01E89162
@ 089   ----------------------------------------
 .byte   N12 ,Cn4 ,v096
 .byte   W12
 .byte   Dn4
 .byte   W12
 .byte   Ds4
 .byte   W12
 .byte   Cn4
 .byte   W12
 .byte   Dn4
 .byte   W12
 .byte   Ds4
 .byte   W12
 .byte   N06 ,As2
 .byte   N06 ,Cn3
 .byte   W06
 .byte   Bn2
 .byte   N06 ,Dn3
 .byte   W06
 .byte   Cn3
 .byte   N06 ,Ds3
 .byte   W06
 .byte   Dn3
 .byte   N06 ,Fn3
 .byte   W05
 .byte   GOTO
  .word Label_6_01E88D98
@ 090   ----------------------------------------
 .byte   W01
 .byte   FINE

@**************** Track 8 (Midi-Chn.7) ****************@

song01E8_008:
@ 000   ----------------------------------------
 .byte   VOL , 23*song01E8_mvl/mxv
 .byte   KEYSH , song01E8_key+0
 .byte   VOICE , 48
 .byte   W96
@ 001   ----------------------------------------
 .byte   W96
@ 002   ----------------------------------------
 .byte   W96
@ 003   ----------------------------------------
 .byte   W96
@ 004   ----------------------------------------
 .byte   W96
@ 005   ----------------------------------------
 .byte   W96
@ 006   ----------------------------------------
 .byte   W96
@ 007   ----------------------------------------
 .byte   W96
@ 008   ----------------------------------------
Label_7_01E891BE:
 .byte   TIE ,Cn3 ,v096
 .byte   W96
@ 009   ----------------------------------------
 .byte   W96
@ 010   ----------------------------------------
 .byte   W96
@ 011   ----------------------------------------
 .byte   W96
@ 012   ----------------------------------------
 .byte   EOT
Label_7_01E891C6:
 .byte   N60 ,Dn4 ,v096
 .byte   W60
 .byte   N12 ,Cn4
 .byte   W12
 .byte   Gn4
 .byte   W01
 .byte   N10 ,As3
 .byte   W11
 .byte   N72 ,Dn4
 .byte   W12
 .byte   PEND 
@ 013   ----------------------------------------
Label_7_01E891D6:
 .byte   W60
 .byte   N12 ,Fn3 ,v096
 .byte   N12 ,Cn4
 .byte   W12
 .byte   As3
 .byte   N12 ,Gn4
 .byte   W12
 .byte   N06 ,An3
 .byte   TIE ,Dn4
 .byte   W06
 .byte   N06 ,Gs3
 .byte   W06
 .byte   PEND 
@ 014   ----------------------------------------
 .byte   TIE ,Gn3
 .byte   W96
@ 015   ----------------------------------------
 .byte   W09
 .byte   EOT
 .byte   Dn4
 .byte   W03
 .byte   N12 ,Cn3
 .byte   N12 ,Cn4
 .byte   W03
 .byte   EOT
 .byte   Gn3
 .byte   W09
 .byte   N12 ,Dn3
 .byte   N12 ,Dn4
 .byte   W12
 .byte   Ds3
 .byte   N12 ,Ds4
 .byte   W12
 .byte   Fn3
 .byte   N12 ,Fn4
 .byte   W12
 .byte   Ds3
 .byte   N12 ,Ds4
 .byte   W12
 .byte   Dn3
 .byte   N12 ,Dn4
 .byte   W12
 .byte   Cn3
 .byte   N12 ,Cn4
 .byte   W12
@ 016   ----------------------------------------
Label_7_01E89212:
 .byte   N60 ,Gn3 ,v096
 .byte   N60 ,Dn4
 .byte   W60
 .byte   N12 ,Fn3
 .byte   N12 ,Cn4
 .byte   W12
 .byte   Gn4
 .byte   W01
 .byte   N10 ,As3
 .byte   W11
 .byte   N72 ,Gn3
 .byte   N72 ,Dn4
 .byte   W12
 .byte   PEND 
@ 017   ----------------------------------------
Label_7_01E89228:
 .byte   W60
 .byte   N12 ,Fn3 ,v096
 .byte   N12 ,Cn4
 .byte   W12
 .byte   Bn3
 .byte   N12 ,Gn4
 .byte   W12
 .byte   N06 ,As3
 .byte   TIE ,Dn4
 .byte   W06
 .byte   N06 ,Gs3
 .byte   W06
 .byte   PEND 
@ 018   ----------------------------------------
 .byte   TIE ,Gn3
 .byte   W96
@ 019   ----------------------------------------
 .byte   W09
 .byte   EOT
 .byte   Dn4
 .byte   W03
 .byte   N12 ,Cn3
 .byte   N12 ,Cn4
 .byte   W03
 .byte   EOT
 .byte   Gn3
 .byte   W09
 .byte   N12 ,Dn3
 .byte   N12 ,Dn4
 .byte   W12
 .byte   Ds3
 .byte   N12 ,Ds4
 .byte   W12
 .byte   Fn3
 .byte   N12 ,Fn4
 .byte   W12
 .byte   Gn3
 .byte   N12 ,Gn4
 .byte   W12
 .byte   N06 ,Dn3
 .byte   N06 ,Dn4
 .byte   W06
 .byte   Ds3
 .byte   N06 ,Ds4
 .byte   W06
 .byte   Fn3
 .byte   N06 ,Dn4
 .byte   W06
 .byte   As3
 .byte   N06 ,Cn4
 .byte   W06
@ 020   ----------------------------------------
Label_7_01E8926D:
 .byte   N60 ,Dn4 ,v096
 .byte   W60
 .byte   N12 ,Cn4
 .byte   W12
 .byte   Gn4
 .byte   W12
 .byte   N72 ,Dn4
 .byte   W12
 .byte   PEND 
@ 021   ----------------------------------------
Label_7_01E8927A:
 .byte   W60
 .byte   N12 ,Cn4 ,v096
 .byte   W12
 .byte   As3
 .byte   N12 ,Gn4
 .byte   W12
 .byte   N06 ,An3
 .byte   TIE ,Dn4
 .byte   W06
 .byte   N06 ,Gs3
 .byte   W06
 .byte   PEND 
@ 022   ----------------------------------------
 .byte   N96 ,Gn3
 .byte   W96
@ 023   ----------------------------------------
 .byte   EOT
 .byte   Dn4
 .byte   N15 ,Gn4
 .byte   N09 ,Dn5
 .byte   W12
 .byte   N12 ,Cn4
 .byte   N12 ,Cn5
 .byte   W12
 .byte   Dn4
 .byte   N12 ,Dn5
 .byte   W12
 .byte   Ds4
 .byte   N12 ,Ds5
 .byte   W12
 .byte   Fn4
 .byte   N12 ,Fn5
 .byte   W12
 .byte   Ds4
 .byte   N12 ,Ds5
 .byte   W12
 .byte   Fn4
 .byte   N12 ,Fn5
 .byte   W12
 .byte   Gn4
 .byte   N12 ,Gn5
 .byte   W12
@ 024   ----------------------------------------
 .byte   TIE ,Dn5
 .byte   W96
@ 025   ----------------------------------------
 .byte   W48
 .byte   EOT
 .byte   N12
 .byte   W12
 .byte   Fn3
 .byte   N12 ,Cn4
 .byte   W12
 .byte   Bn3
 .byte   N12 ,Gn4
 .byte   W12
 .byte   N06 ,As3
 .byte   TIE ,Dn4
 .byte   W06
 .byte   N06 ,Gs3
 .byte   W06
@ 026   ----------------------------------------
 .byte   TIE ,Gn3
 .byte   W96
@ 027   ----------------------------------------
 .byte   W09
 .byte   EOT
 .byte   Dn4
 .byte   W03
 .byte   N12 ,Cn3
 .byte   N12 ,Cn4
 .byte   W03
 .byte   EOT
 .byte   Gn3
 .byte   W09
 .byte   N12 ,Dn3
 .byte   N12 ,Dn4
 .byte   W12
 .byte   Ds3
 .byte   N12 ,Ds4
 .byte   W12
 .byte   Fn3
 .byte   N12 ,Fn4
 .byte   W12
 .byte   Gn3
 .byte   N12 ,Gn4
 .byte   W12
 .byte   N06 ,Dn3
 .byte   N06 ,Dn4
 .byte   W06
 .byte   Ds3
 .byte   N06 ,Ds4
 .byte   W06
 .byte   Fn3
 .byte   N06 ,Dn4
 .byte   W06
 .byte   As3
 .byte   N06 ,Cn4
 .byte   W06
@ 028   ----------------------------------------
 .byte   Cn3
 .byte   W06
 .byte   N18 ,Dn3
 .byte   W18
 .byte   N12 ,Cn3
 .byte   W12
 .byte   Dn3
 .byte   W12
 .byte   Gn3
 .byte   W12
 .byte   Dn3
 .byte   W12
 .byte   N12
 .byte   W12
 .byte   Cn3
 .byte   W12
@ 029   ----------------------------------------
 .byte   Gn2
 .byte   W12
 .byte   Cn3
 .byte   W12
 .byte   Dn3
 .byte   W12
 .byte   N24 ,Gn3
 .byte   W24
 .byte   N12 ,Dn3
 .byte   W12
 .byte   N12
 .byte   W12
 .byte   Cn3
 .byte   W12
@ 030   ----------------------------------------
 .byte   N18 ,Cs5
 .byte   W18
 .byte   Cn5
 .byte   W18
 .byte   N12 ,Cs5
 .byte   W12
 .byte   N06 ,Gn5
 .byte   W06
 .byte   Gs5
 .byte   W06
 .byte   N60 ,As5
 .byte   W36
@ 031   ----------------------------------------
 .byte   W24
 .byte   N24 ,Gs5
 .byte   W24
 .byte   As5
 .byte   W24
 .byte   Gs5
 .byte   W24
@ 032   ----------------------------------------
 .byte   N06 ,Gn5
 .byte   W06
 .byte   Gs5
 .byte   W06
 .byte   Gn5
 .byte   W06
 .byte   Fn5
 .byte   W06
 .byte   TIE ,Gn5
 .byte   W72
@ 033   ----------------------------------------
 .byte   W72
 .byte   EOT
 .byte   N24 ,Cn5
 .byte   W24
@ 034   ----------------------------------------
 .byte   Gn4
 .byte   W24
 .byte   En4
 .byte   W24
 .byte   N48 ,Bn3
 .byte   W48
@ 035   ----------------------------------------
 .byte   En4
 .byte   W48
 .byte   Gn4
 .byte   W48
@ 036   ----------------------------------------
 .byte   Fn3
 .byte   W48
 .byte   Gn3
 .byte   W48
@ 037   ----------------------------------------
 .byte   Gs3
 .byte   W48
 .byte   As3
 .byte   W48
@ 038   ----------------------------------------
 .byte   Cn4
 .byte   W48
 .byte   Dn4
 .byte   W48
@ 039   ----------------------------------------
 .byte   Ds4
 .byte   W48
 .byte   Fn4
 .byte   W48
@ 040   ----------------------------------------
 .byte   N96 ,Gn4
 .byte   W96
@ 041   ----------------------------------------
 .byte   N06
 .byte   W06
 .byte   Fn4
 .byte   W06
 .byte   Ds4
 .byte   W06
 .byte   Fn4
 .byte   W06
 .byte   Ds4
 .byte   W06
 .byte   Dn4
 .byte   W06
 .byte   Bn3
 .byte   W06
 .byte   Gs3
 .byte   W06
 .byte   N24 ,Gn3
 .byte   W24
 .byte   N06
 .byte   W06
 .byte   An3
 .byte   W06
 .byte   Bn3
 .byte   W06
 .byte   Cn4
 .byte   W06
@ 042   ----------------------------------------
 .byte   PATT
  .word Label_7_01E891C6
@ 043   ----------------------------------------
 .byte   PATT
  .word Label_7_01E891D6
@ 044   ----------------------------------------
 .byte   TIE ,Gn3 ,v096
 .byte   W96
@ 045   ----------------------------------------
 .byte   W09
 .byte   EOT
 .byte   Dn4
 .byte   W03
 .byte   N12 ,Cn3
 .byte   N12 ,Cn4
 .byte   W03
 .byte   EOT
 .byte   Gn3
 .byte   W09
 .byte   N12 ,Dn3
 .byte   N12 ,Dn4
 .byte   W12
 .byte   Ds3
 .byte   N12 ,Ds4
 .byte   W12
 .byte   Fn3
 .byte   N12 ,Fn4
 .byte   W12
 .byte   Ds3
 .byte   N12 ,Ds4
 .byte   W12
 .byte   Dn3
 .byte   N12 ,Dn4
 .byte   W12
 .byte   Cn3
 .byte   N12 ,Cn4
 .byte   W12
@ 046   ----------------------------------------
 .byte   PATT
  .word Label_7_01E89212
@ 047   ----------------------------------------
 .byte   PATT
  .word Label_7_01E89228
@ 048   ----------------------------------------
 .byte   TIE ,Gn3 ,v096
 .byte   W96
@ 049   ----------------------------------------
 .byte   W09
 .byte   EOT
 .byte   Dn4
 .byte   W03
 .byte   N12 ,Cn3
 .byte   N12 ,Cn4
 .byte   W03
 .byte   EOT
 .byte   Gn3
 .byte   W09
 .byte   N12 ,Dn3
 .byte   N12 ,Dn4
 .byte   W12
 .byte   Ds3
 .byte   N12 ,Ds4
 .byte   W12
 .byte   Fn3
 .byte   N12 ,Fn4
 .byte   W12
 .byte   Gn3
 .byte   N12 ,Gn4
 .byte   W12
 .byte   N06 ,Dn3
 .byte   N06 ,Dn4
 .byte   W06
 .byte   Ds3
 .byte   N06 ,Ds4
 .byte   W06
 .byte   Fn3
 .byte   N06 ,Dn4
 .byte   W06
 .byte   As3
 .byte   N06 ,Cn4
 .byte   W06
@ 050   ----------------------------------------
 .byte   PATT
  .word Label_7_01E8926D
@ 051   ----------------------------------------
 .byte   PATT
  .word Label_7_01E8927A
@ 052   ----------------------------------------
 .byte   TIE ,Gn3 ,v096
 .byte   W96
@ 053   ----------------------------------------
 .byte   W09
 .byte   EOT
 .byte   Dn4
 .byte   W03
 .byte   N12 ,Cn3
 .byte   N12 ,Cn4
 .byte   W03
 .byte   EOT
 .byte   Gn3
 .byte   W09
 .byte   N12 ,Dn3
 .byte   N12 ,Dn4
 .byte   W12
 .byte   Ds3
 .byte   N12 ,Ds4
 .byte   W12
 .byte   Fn3
 .byte   N12 ,Fn4
 .byte   W12
 .byte   Ds3
 .byte   N12 ,Ds4
 .byte   W12
 .byte   Fn3
 .byte   N12 ,Fn4
 .byte   W12
 .byte   Gn3
 .byte   N12 ,Gn4
 .byte   W12
@ 054   ----------------------------------------
 .byte   PATT
  .word Label_7_01E89212
@ 055   ----------------------------------------
 .byte   PATT
  .word Label_7_01E89228
@ 056   ----------------------------------------
 .byte   TIE ,Gn3 ,v096
 .byte   W96
@ 057   ----------------------------------------
 .byte   W09
 .byte   EOT
 .byte   Dn4
 .byte   W03
 .byte   N12 ,Cn3
 .byte   N12 ,Cn4
 .byte   W03
 .byte   EOT
 .byte   Gn3
 .byte   W09
 .byte   N12 ,Dn3
 .byte   N12 ,Dn4
 .byte   W12
 .byte   Ds3
 .byte   N12 ,Ds4
 .byte   W12
 .byte   Fn3
 .byte   N12 ,Fn4
 .byte   W12
 .byte   Gn3
 .byte   N12 ,Gn4
 .byte   W12
 .byte   N06 ,Dn3
 .byte   N06 ,Dn4
 .byte   W06
 .byte   Ds3
 .byte   N06 ,Ds4
 .byte   W06
 .byte   Fn3
 .byte   N06 ,Dn4
 .byte   W06
 .byte   As3
 .byte   N06 ,Cn4
 .byte   W06
@ 058   ----------------------------------------
 .byte   W96
@ 059   ----------------------------------------
 .byte   W96
@ 060   ----------------------------------------
 .byte   W96
@ 061   ----------------------------------------
 .byte   W96
@ 062   ----------------------------------------
 .byte   N36 ,Cn4 ,v127
 .byte   W36
 .byte   N96 ,Gn4
 .byte   W60
@ 063   ----------------------------------------
Label_7_01E89468:
 .byte   W36
 .byte   N36 ,As4 ,v096
 .byte   W36
 .byte   N24 ,Gs4
 .byte   W24
 .byte   PEND 
@ 064   ----------------------------------------
 .byte   N36 ,Gn4
 .byte   W36
 .byte   N60 ,Dn4
 .byte   W60
@ 065   ----------------------------------------
Label_7_01E89477:
 .byte   N36 ,Fn4 ,v096
 .byte   W36
 .byte   Ds4
 .byte   W36
 .byte   N24 ,Dn4
 .byte   W24
 .byte   PEND 
@ 066   ----------------------------------------
 .byte   TIE ,Gn5
 .byte   W96
@ 067   ----------------------------------------
 .byte   W36
 .byte   EOT
 .byte   N36 ,Dn6
 .byte   W36
 .byte   N24 ,Ds6
 .byte   W24
@ 068   ----------------------------------------
 .byte   N36 ,Dn6
 .byte   W36
 .byte   Cn6
 .byte   W36
 .byte   N24 ,Dn6
 .byte   W24
@ 069   ----------------------------------------
 .byte   N36 ,Fn6
 .byte   W36
 .byte   Ds6
 .byte   W36
 .byte   N24 ,Dn6
 .byte   W24
@ 070   ----------------------------------------
Label_7_01E8949C:
 .byte   N36 ,Cn6 ,v096
 .byte   W36
 .byte   N96 ,Gn5
 .byte   W60
 .byte   PEND 
@ 071   ----------------------------------------
 .byte   W36
 .byte   N36 ,Fn5
 .byte   W36
 .byte   N24 ,Ds5
 .byte   W24
@ 072   ----------------------------------------
 .byte   N36 ,Dn5
 .byte   W36
 .byte   Ds5
 .byte   W36
 .byte   N24 ,Fn5
 .byte   W24
@ 073   ----------------------------------------
 .byte   N36 ,Gn5
 .byte   W36
 .byte   Fn5
 .byte   W36
 .byte   N24 ,As5
 .byte   W24
@ 074   ----------------------------------------
 .byte   PATT
  .word Label_7_01E8949C
@ 075   ----------------------------------------
 .byte   W36
 .byte   N36 ,Gn5 ,v096
 .byte   W36
 .byte   N24 ,Gs5
 .byte   W24
@ 076   ----------------------------------------
 .byte   N36 ,Gn5
 .byte   W36
 .byte   N60 ,Dn5
 .byte   W60
@ 077   ----------------------------------------
 .byte   N36 ,Fn5
 .byte   W36
 .byte   Ds5
 .byte   W36
 .byte   N24 ,Dn5
 .byte   W24
@ 078   ----------------------------------------
 .byte   N96 ,Gn4
 .byte   W96
@ 079   ----------------------------------------
 .byte   W36
 .byte   N36 ,Dn5
 .byte   W36
 .byte   N24 ,Ds5
 .byte   W24
@ 080   ----------------------------------------
 .byte   N36 ,Dn5
 .byte   W36
 .byte   Cn5
 .byte   W36
 .byte   N24 ,Gn4
 .byte   W24
@ 081   ----------------------------------------
 .byte   PATT
  .word Label_7_01E89477
@ 082   ----------------------------------------
 .byte   N36 ,Cn4 ,v096
 .byte   W36
 .byte   N96 ,Gn4
 .byte   W60
@ 083   ----------------------------------------
 .byte   PATT
  .word Label_7_01E89468
@ 084   ----------------------------------------
 .byte   N36 ,Gn4 ,v096
 .byte   W36
 .byte   N60 ,Cn4
 .byte   W60
@ 085   ----------------------------------------
 .byte   PATT
  .word Label_7_01E89477
@ 086   ----------------------------------------
Label_7_01E89505:
 .byte   N12 ,Cn4 ,v096
 .byte   W12
 .byte   Cn5
 .byte   W12
 .byte   Bn4
 .byte   W12
 .byte   Gn4
 .byte   W12
 .byte   As4
 .byte   W12
 .byte   Gs4
 .byte   W12
 .byte   Fn4
 .byte   W12
 .byte   Gn4
 .byte   W12
 .byte   PEND 
@ 087   ----------------------------------------
 .byte   Cn4
 .byte   W12
 .byte   Dn4
 .byte   W12
 .byte   Ds4
 .byte   W12
 .byte   Cn4
 .byte   W12
 .byte   Dn4
 .byte   W12
 .byte   Ds4
 .byte   W12
 .byte   Gn4
 .byte   W12
 .byte   Fn4
 .byte   W12
@ 088   ----------------------------------------
 .byte   PATT
  .word Label_7_01E89505
@ 089   ----------------------------------------
 .byte   N12 ,Cn4 ,v096
 .byte   W12
 .byte   Dn4
 .byte   W12
 .byte   Ds4
 .byte   W12
 .byte   Cn4
 .byte   W12
 .byte   Dn4
 .byte   W12
 .byte   Ds4
 .byte   W12
 .byte   Gn4
 .byte   W12
 .byte   Fn4
 .byte   W11
 .byte   GOTO
  .word Label_7_01E891BE
@ 090   ----------------------------------------
 .byte   W01
 .byte   FINE

@**************** Track 9 (Midi-Chn.8) ****************@

song01E8_009:
@ 000   ----------------------------------------
 .byte   VOL , 55*song01E8_mvl/mxv
 .byte   KEYSH , song01E8_key+0
 .byte   VOICE , 0
 .byte   W96
@ 001   ----------------------------------------
 .byte   W96
@ 002   ----------------------------------------
 .byte   W96
@ 003   ----------------------------------------
 .byte   W96
@ 004   ----------------------------------------
 .byte   W96
@ 005   ----------------------------------------
 .byte   W96
@ 006   ----------------------------------------
 .byte   W96
@ 007   ----------------------------------------
 .byte   W96
@ 008   ----------------------------------------
Label_8_01E89556:
 .byte   N12 ,Cn1 ,v116
 .byte   W12
 .byte   Ds1
 .byte   W12
 .byte   Gn1
 .byte   W12
 .byte   Fn1
 .byte   W12
 .byte   Dn1
 .byte   W12
 .byte   As1
 .byte   W12
 .byte   Gn1
 .byte   W12
 .byte   Dn1
 .byte   W12
 .byte   PEND 
@ 009   ----------------------------------------
 .byte   PATT
  .word Label_8_01E89556
@ 010   ----------------------------------------
 .byte   PATT
  .word Label_8_01E89556
@ 011   ----------------------------------------
 .byte   N12 ,Gn2 ,v116
 .byte   W12
 .byte   Dn2
 .byte   W12
 .byte   Cn2
 .byte   W12
 .byte   Ds2
 .byte   W12
 .byte   Gs1
 .byte   W12
 .byte   Gn1
 .byte   W12
 .byte   Dn2
 .byte   W12
 .byte   Gn1
 .byte   W12
@ 012   ----------------------------------------
 .byte   PATT
  .word Label_8_01E89556
@ 013   ----------------------------------------
 .byte   PATT
  .word Label_8_01E89556
@ 014   ----------------------------------------
 .byte   PATT
  .word Label_8_01E89556
@ 015   ----------------------------------------
Label_8_01E89594:
 .byte   N12 ,Dn2 ,v116
 .byte   W12
 .byte   As1
 .byte   W12
 .byte   Gn1
 .byte   W12
 .byte   Ds2
 .byte   W12
 .byte   Cn2
 .byte   W12
 .byte   Gn1
 .byte   W12
 .byte   Fn1
 .byte   W12
 .byte   Gn1
 .byte   W12
 .byte   PEND 
@ 016   ----------------------------------------
Label_8_01E895A7:
 .byte   N12 ,Bn0 ,v116
 .byte   W12
 .byte   Dn1
 .byte   W12
 .byte   Gn1
 .byte   W12
 .byte   Fn1
 .byte   W12
 .byte   Dn1
 .byte   W12
 .byte   As1
 .byte   W12
 .byte   Gn1
 .byte   W12
 .byte   Dn1
 .byte   W12
 .byte   PEND 
@ 017   ----------------------------------------
 .byte   PATT
  .word Label_8_01E895A7
@ 018   ----------------------------------------
 .byte   PATT
  .word Label_8_01E895A7
@ 019   ----------------------------------------
 .byte   PATT
  .word Label_8_01E89594
@ 020   ----------------------------------------
 .byte   PATT
  .word Label_8_01E89556
@ 021   ----------------------------------------
 .byte   PATT
  .word Label_8_01E89556
@ 022   ----------------------------------------
 .byte   PATT
  .word Label_8_01E89556
@ 023   ----------------------------------------
 .byte   PATT
  .word Label_8_01E89594
@ 024   ----------------------------------------
 .byte   PATT
  .word Label_8_01E895A7
@ 025   ----------------------------------------
 .byte   PATT
  .word Label_8_01E895A7
@ 026   ----------------------------------------
 .byte   PATT
  .word Label_8_01E895A7
@ 027   ----------------------------------------
 .byte   PATT
  .word Label_8_01E89594
@ 028   ----------------------------------------
Label_8_01E895F1:
 .byte   N24 ,Gs0 ,v112
 .byte   W36
 .byte   N24
 .byte   W36
 .byte   N24
 .byte   W24
 .byte   PEND 
@ 029   ----------------------------------------
Label_8_01E895FA:
 .byte   W12
 .byte   N24 ,Gs0 ,v112
 .byte   W36
 .byte   N24
 .byte   W24
 .byte   N24
 .byte   W24
 .byte   PEND 
@ 030   ----------------------------------------
 .byte   Fs0
 .byte   W36
 .byte   N24
 .byte   W36
 .byte   N24
 .byte   W24
@ 031   ----------------------------------------
 .byte   W12
 .byte   N24
 .byte   W36
 .byte   N24
 .byte   W24
 .byte   N24
 .byte   W24
@ 032   ----------------------------------------
 .byte   Cn1
 .byte   W36
 .byte   N24
 .byte   W36
 .byte   N24
 .byte   W24
@ 033   ----------------------------------------
 .byte   W12
 .byte   N24
 .byte   W36
 .byte   N24
 .byte   W24
 .byte   N24
 .byte   W24
@ 034   ----------------------------------------
 .byte   En1
 .byte   W36
 .byte   Bn0
 .byte   W36
 .byte   En1
 .byte   W24
@ 035   ----------------------------------------
 .byte   W12
 .byte   Bn0
 .byte   W36
 .byte   En1
 .byte   W24
 .byte   Bn0
 .byte   W24
@ 036   ----------------------------------------
 .byte   PATT
  .word Label_8_01E895F1
@ 037   ----------------------------------------
 .byte   PATT
  .word Label_8_01E895FA
@ 038   ----------------------------------------
 .byte   PATT
  .word Label_8_01E895A7
@ 039   ----------------------------------------
 .byte   PATT
  .word Label_8_01E895A7
@ 040   ----------------------------------------
 .byte   N36 ,Cn1 ,v112
 .byte   W36
 .byte   Dn1
 .byte   W36
 .byte   Ds1
 .byte   W24
@ 041   ----------------------------------------
 .byte   W12
 .byte   Fn1
 .byte   W36
 .byte   N24 ,Gn1
 .byte   W24
 .byte   Gs1
 .byte   W24
@ 042   ----------------------------------------
 .byte   PATT
  .word Label_8_01E89556
@ 043   ----------------------------------------
 .byte   PATT
  .word Label_8_01E89556
@ 044   ----------------------------------------
 .byte   PATT
  .word Label_8_01E89556
@ 045   ----------------------------------------
 .byte   PATT
  .word Label_8_01E89594
@ 046   ----------------------------------------
 .byte   PATT
  .word Label_8_01E895A7
@ 047   ----------------------------------------
 .byte   PATT
  .word Label_8_01E895A7
@ 048   ----------------------------------------
 .byte   PATT
  .word Label_8_01E895A7
@ 049   ----------------------------------------
 .byte   PATT
  .word Label_8_01E89594
@ 050   ----------------------------------------
 .byte   PATT
  .word Label_8_01E89556
@ 051   ----------------------------------------
 .byte   PATT
  .word Label_8_01E89556
@ 052   ----------------------------------------
 .byte   PATT
  .word Label_8_01E89556
@ 053   ----------------------------------------
 .byte   PATT
  .word Label_8_01E89594
@ 054   ----------------------------------------
 .byte   PATT
  .word Label_8_01E895A7
@ 055   ----------------------------------------
 .byte   PATT
  .word Label_8_01E895A7
@ 056   ----------------------------------------
 .byte   PATT
  .word Label_8_01E895A7
@ 057   ----------------------------------------
 .byte   PATT
  .word Label_8_01E89594
@ 058   ----------------------------------------
 .byte   W96
@ 059   ----------------------------------------
 .byte   W96
@ 060   ----------------------------------------
 .byte   W96
@ 061   ----------------------------------------
 .byte   W96
@ 062   ----------------------------------------
Label_8_01E896A3:
 .byte   N24 ,Cn1 ,v127
 .byte   W36
 .byte   N24
 .byte   W36
 .byte   Gn0
 .byte   W24
 .byte   PEND 
@ 063   ----------------------------------------
Label_8_01E896AC:
 .byte   N12 ,Cn1 ,v127
 .byte   W12
 .byte   N12
 .byte   W24
 .byte   N12
 .byte   W24
 .byte   N12
 .byte   W12
 .byte   N24 ,Gn0
 .byte   W24
 .byte   PEND 
@ 064   ----------------------------------------
 .byte   PATT
  .word Label_8_01E896A3
@ 065   ----------------------------------------
 .byte   PATT
  .word Label_8_01E896AC
@ 066   ----------------------------------------
Label_8_01E896C4:
 .byte   N24 ,Gs0 ,v127
 .byte   W36
 .byte   N24
 .byte   W36
 .byte   Ds0
 .byte   W24
 .byte   PEND 
@ 067   ----------------------------------------
Label_8_01E896CD:
 .byte   N12 ,Gs0 ,v127
 .byte   W12
 .byte   N12
 .byte   W24
 .byte   N12
 .byte   W24
 .byte   N12
 .byte   W12
 .byte   N24 ,Ds0
 .byte   W24
 .byte   PEND 
@ 068   ----------------------------------------
 .byte   PATT
  .word Label_8_01E896C4
@ 069   ----------------------------------------
 .byte   PATT
  .word Label_8_01E896CD
@ 070   ----------------------------------------
Label_8_01E896E5:
 .byte   N24 ,As0 ,v127
 .byte   W36
 .byte   N24
 .byte   W36
 .byte   Fn0
 .byte   W24
 .byte   PEND 
@ 071   ----------------------------------------
Label_8_01E896EE:
 .byte   N12 ,As0 ,v127
 .byte   W12
 .byte   N12
 .byte   W24
 .byte   N12
 .byte   W24
 .byte   N12
 .byte   W12
 .byte   N24 ,Fn0
 .byte   W24
 .byte   PEND 
@ 072   ----------------------------------------
 .byte   PATT
  .word Label_8_01E896E5
@ 073   ----------------------------------------
 .byte   PATT
  .word Label_8_01E896EE
@ 074   ----------------------------------------
 .byte   PATT
  .word Label_8_01E896A3
@ 075   ----------------------------------------
Label_8_01E8970B:
 .byte   N12 ,Cn1 ,v127
 .byte   W12
 .byte   N12
 .byte   W24
 .byte   N12
 .byte   W24
 .byte   N12
 .byte   W12
 .byte   N24 ,Gs0
 .byte   W24
 .byte   PEND 
@ 076   ----------------------------------------
 .byte   PATT
  .word Label_8_01E896A3
@ 077   ----------------------------------------
 .byte   PATT
  .word Label_8_01E8970B
@ 078   ----------------------------------------
 .byte   W96
@ 079   ----------------------------------------
 .byte   W96
@ 080   ----------------------------------------
 .byte   W96
@ 081   ----------------------------------------
 .byte   W96
@ 082   ----------------------------------------
 .byte   W96
@ 083   ----------------------------------------
 .byte   W96
@ 084   ----------------------------------------
 .byte   W96
@ 085   ----------------------------------------
 .byte   W96
@ 086   ----------------------------------------
Label_8_01E8972B:
 .byte   N12 ,Cn1 ,v127
 .byte   W12
 .byte   Ds1
 .byte   W12
 .byte   Gn1
 .byte   W12
 .byte   Bn0
 .byte   W12
 .byte   Dn1
 .byte   W12
 .byte   Fn1
 .byte   W12
 .byte   Gs1
 .byte   W12
 .byte   Gn1
 .byte   W12
 .byte   PEND 
@ 087   ----------------------------------------
 .byte   Fn1
 .byte   W12
 .byte   Dn1
 .byte   W12
 .byte   Bn0
 .byte   W12
 .byte   Ds1
 .byte   W12
 .byte   Cn1
 .byte   W12
 .byte   Gn0
 .byte   W12
 .byte   Fn0
 .byte   W12
 .byte   Gn0
 .byte   W12
@ 088   ----------------------------------------
 .byte   PATT
  .word Label_8_01E8972B
@ 089   ----------------------------------------
 .byte   N12 ,Fn1 ,v127
 .byte   W12
 .byte   Dn1
 .byte   W12
 .byte   Bn0
 .byte   W12
 .byte   Ds1
 .byte   W12
 .byte   Cn1
 .byte   W12
 .byte   Gn0
 .byte   W12
 .byte   Fn0
 .byte   W12
 .byte   Gn0
 .byte   W11
 .byte   GOTO
  .word Label_8_01E89556
@ 090   ----------------------------------------
 .byte   W01
 .byte   FINE

@**************** Track 10 (Midi-Chn.9) ****************@

song01E8_010:
@ 000   ----------------------------------------
 .byte   VOL , 47*song01E8_mvl/mxv
 .byte   KEYSH , song01E8_key+0
 .byte   VOICE , 119
 .byte   W96
@ 001   ----------------------------------------
 .byte   W96
@ 002   ----------------------------------------
 .byte   W96
@ 003   ----------------------------------------
 .byte   W96
@ 004   ----------------------------------------
 .byte   W96
@ 005   ----------------------------------------
 .byte   W96
@ 006   ----------------------------------------
 .byte   W96
@ 007   ----------------------------------------
 .byte   W96
@ 008   ----------------------------------------
Label_9_01E8977A:
 .byte   TIE ,Cn3 ,v127
 .byte   W96
@ 009   ----------------------------------------
 .byte   W48
 .byte   EOT
 .byte   W48
@ 010   ----------------------------------------
 .byte   W96
@ 011   ----------------------------------------
 .byte   W96
@ 012   ----------------------------------------
 .byte   TIE
 .byte   W96
@ 013   ----------------------------------------
 .byte   W48
 .byte   EOT
 .byte   W48
@ 014   ----------------------------------------
 .byte   W96
@ 015   ----------------------------------------
 .byte   W96
@ 016   ----------------------------------------
 .byte   W96
@ 017   ----------------------------------------
 .byte   W96
@ 018   ----------------------------------------
 .byte   W96
@ 019   ----------------------------------------
 .byte   W96
@ 020   ----------------------------------------
 .byte   TIE
 .byte   W96
@ 021   ----------------------------------------
 .byte   W48
 .byte   EOT
 .byte   W48
@ 022   ----------------------------------------
 .byte   W96
@ 023   ----------------------------------------
 .byte   W96
@ 024   ----------------------------------------
 .byte   W96
@ 025   ----------------------------------------
 .byte   W96
@ 026   ----------------------------------------
 .byte   W96
@ 027   ----------------------------------------
 .byte   W96
@ 028   ----------------------------------------
 .byte   TIE
 .byte   W96
@ 029   ----------------------------------------
 .byte   W48
 .byte   EOT
 .byte   W48
@ 030   ----------------------------------------
 .byte   W96
@ 031   ----------------------------------------
 .byte   W96
@ 032   ----------------------------------------
 .byte   W96
@ 033   ----------------------------------------
 .byte   W96
@ 034   ----------------------------------------
 .byte   W96
@ 035   ----------------------------------------
 .byte   W96
@ 036   ----------------------------------------
 .byte   W96
@ 037   ----------------------------------------
 .byte   W96
@ 038   ----------------------------------------
 .byte   W96
@ 039   ----------------------------------------
 .byte   W96
@ 040   ----------------------------------------
 .byte   W96
@ 041   ----------------------------------------
 .byte   W96
@ 042   ----------------------------------------
 .byte   TIE
 .byte   W96
@ 043   ----------------------------------------
 .byte   W48
 .byte   EOT
 .byte   W48
@ 044   ----------------------------------------
 .byte   W96
@ 045   ----------------------------------------
 .byte   W96
@ 046   ----------------------------------------
 .byte   W96
@ 047   ----------------------------------------
 .byte   W96
@ 048   ----------------------------------------
 .byte   W96
@ 049   ----------------------------------------
 .byte   W96
@ 050   ----------------------------------------
 .byte   TIE
 .byte   W96
@ 051   ----------------------------------------
 .byte   W48
 .byte   EOT
 .byte   W48
@ 052   ----------------------------------------
 .byte   W96
@ 053   ----------------------------------------
 .byte   W96
@ 054   ----------------------------------------
 .byte   W96
@ 055   ----------------------------------------
 .byte   W96
@ 056   ----------------------------------------
 .byte   W96
@ 057   ----------------------------------------
 .byte   W96
@ 058   ----------------------------------------
 .byte   TIE
 .byte   W96
@ 059   ----------------------------------------
 .byte   W48
 .byte   EOT
 .byte   W48
@ 060   ----------------------------------------
 .byte   W96
@ 061   ----------------------------------------
 .byte   W96
@ 062   ----------------------------------------
 .byte   TIE
 .byte   W96
@ 063   ----------------------------------------
 .byte   W48
 .byte   EOT
 .byte   W48
@ 064   ----------------------------------------
 .byte   W96
@ 065   ----------------------------------------
 .byte   W96
@ 066   ----------------------------------------
 .byte   W96
@ 067   ----------------------------------------
 .byte   W96
@ 068   ----------------------------------------
 .byte   W96
@ 069   ----------------------------------------
 .byte   W96
@ 070   ----------------------------------------
 .byte   W96
@ 071   ----------------------------------------
 .byte   W96
@ 072   ----------------------------------------
 .byte   W96
@ 073   ----------------------------------------
 .byte   W96
@ 074   ----------------------------------------
 .byte   W96
@ 075   ----------------------------------------
 .byte   W96
@ 076   ----------------------------------------
 .byte   W96
@ 077   ----------------------------------------
 .byte   W96
@ 078   ----------------------------------------
 .byte   W96
@ 079   ----------------------------------------
 .byte   W96
@ 080   ----------------------------------------
 .byte   W96
@ 081   ----------------------------------------
 .byte   W96
@ 082   ----------------------------------------
 .byte   W96
@ 083   ----------------------------------------
 .byte   W96
@ 084   ----------------------------------------
 .byte   W96
@ 085   ----------------------------------------
 .byte   W96
@ 086   ----------------------------------------
 .byte   W96
@ 087   ----------------------------------------
 .byte   W96
@ 088   ----------------------------------------
 .byte   W96
@ 089   ----------------------------------------
 .byte   W92
 .byte   W03
 .byte   GOTO
  .word Label_9_01E8977A
@ 090   ----------------------------------------
 .byte   W01
 .byte   FINE

@**************** Track 11 (Midi-Chn.10) ****************@

song01E8_011:
@ 000   ----------------------------------------
 .byte   VOL , 47*song01E8_mvl/mxv
 .byte   KEYSH , song01E8_key+0
 .byte   VOICE , 60
 .byte   W96
@ 001   ----------------------------------------
 .byte   W96
@ 002   ----------------------------------------
 .byte   W96
@ 003   ----------------------------------------
 .byte   W96
@ 004   ----------------------------------------
 .byte   W96
@ 005   ----------------------------------------
 .byte   W96
@ 006   ----------------------------------------
 .byte   W96
@ 007   ----------------------------------------
 .byte   W96
@ 008   ----------------------------------------
Label_10_01E897FE:
 .byte   TIE ,Gn2 ,v096
 .byte   W96
@ 009   ----------------------------------------
 .byte   W96
@ 010   ----------------------------------------
 .byte   EOT
 .byte   TIE ,Cn2
 .byte   W96
@ 011   ----------------------------------------
 .byte   W96
@ 012   ----------------------------------------
 .byte   EOT
 .byte   TIE
 .byte   W96
@ 013   ----------------------------------------
 .byte   W96
@ 014   ----------------------------------------
 .byte   W96
@ 015   ----------------------------------------
 .byte   W96
@ 016   ----------------------------------------
 .byte   EOT
 .byte   TIE ,Bn1
 .byte   W96
@ 017   ----------------------------------------
 .byte   W96
@ 018   ----------------------------------------
 .byte   W48
 .byte   EOT
 .byte   N48 ,Gn2
 .byte   W48
@ 019   ----------------------------------------
Label_10_01E89818:
 .byte   N48 ,Dn3 ,v096
 .byte   W48
 .byte   Gn3
 .byte   W48
 .byte   PEND 
@ 020   ----------------------------------------
 .byte   TIE ,Cn2
 .byte   W96
@ 021   ----------------------------------------
 .byte   W96
@ 022   ----------------------------------------
 .byte   W96
@ 023   ----------------------------------------
 .byte   W96
@ 024   ----------------------------------------
 .byte   EOT
 .byte   TIE ,Bn1
 .byte   W96
@ 025   ----------------------------------------
 .byte   W96
@ 026   ----------------------------------------
 .byte   W48
 .byte   EOT
 .byte   N48 ,Bn2
 .byte   W48
@ 027   ----------------------------------------
Label_10_01E8982F:
 .byte   N48 ,Fn3 ,v096
 .byte   W48
 .byte   As3
 .byte   W48
 .byte   PEND 
@ 028   ----------------------------------------
 .byte   TIE ,Cn2
 .byte   W96
@ 029   ----------------------------------------
 .byte   W96
@ 030   ----------------------------------------
 .byte   EOT
 .byte   N48 ,Gs1
 .byte   W48
 .byte   Cs2
 .byte   W48
@ 031   ----------------------------------------
 .byte   Fn2
 .byte   W48
 .byte   Gs2
 .byte   W48
@ 032   ----------------------------------------
 .byte   N06 ,Gn2
 .byte   W06
 .byte   Gs2
 .byte   W06
 .byte   Gn2
 .byte   W06
 .byte   Fn2
 .byte   W06
 .byte   TIE ,Gn2
 .byte   W72
@ 033   ----------------------------------------
 .byte   W96
@ 034   ----------------------------------------
 .byte   EOT
 .byte   TIE ,En2
 .byte   W96
@ 035   ----------------------------------------
 .byte   W96
@ 036   ----------------------------------------
 .byte   EOT
 .byte   TIE ,Fn2
 .byte   W96
@ 037   ----------------------------------------
 .byte   W96
@ 038   ----------------------------------------
 .byte   EOT
 .byte   N96 ,Fs2
 .byte   W96
@ 039   ----------------------------------------
 .byte   Gs2
 .byte   W96
@ 040   ----------------------------------------
 .byte   Gn2
 .byte   W96
@ 041   ----------------------------------------
 .byte   N24
 .byte   W36
 .byte   Gs2
 .byte   W36
 .byte   As2
 .byte   W24
@ 042   ----------------------------------------
 .byte   TIE ,Cn3
 .byte   W96
@ 043   ----------------------------------------
 .byte   W96
@ 044   ----------------------------------------
 .byte   W96
@ 045   ----------------------------------------
 .byte   W96
@ 046   ----------------------------------------
 .byte   EOT
 .byte   TIE ,Bn2
 .byte   W96
@ 047   ----------------------------------------
 .byte   W96
@ 048   ----------------------------------------
 .byte   W48
 .byte   EOT
 .byte   N48 ,Gn2
 .byte   W48
@ 049   ----------------------------------------
 .byte   PATT
  .word Label_10_01E89818
@ 050   ----------------------------------------
 .byte   TIE ,Cn3 ,v096
 .byte   W96
@ 051   ----------------------------------------
 .byte   W96
@ 052   ----------------------------------------
 .byte   W96
@ 053   ----------------------------------------
 .byte   W96
@ 054   ----------------------------------------
 .byte   EOT
 .byte   TIE ,Bn2
 .byte   W96
@ 055   ----------------------------------------
 .byte   W96
@ 056   ----------------------------------------
 .byte   W48
 .byte   EOT
 .byte   N48
 .byte   W48
@ 057   ----------------------------------------
 .byte   PATT
  .word Label_10_01E8982F
@ 058   ----------------------------------------
 .byte   TIE ,Cn3 ,v096
 .byte   W96
@ 059   ----------------------------------------
 .byte   W96
@ 060   ----------------------------------------
 .byte   W96
@ 061   ----------------------------------------
 .byte   W96
@ 062   ----------------------------------------
 .byte   EOT
 .byte   TIE ,As2
 .byte   W96
@ 063   ----------------------------------------
 .byte   W96
@ 064   ----------------------------------------
 .byte   W48
 .byte   EOT
 .byte   N48
 .byte   W48
@ 065   ----------------------------------------
 .byte   PATT
  .word Label_10_01E8982F
@ 066   ----------------------------------------
 .byte   TIE ,Cn3 ,v096
 .byte   W96
@ 067   ----------------------------------------
 .byte   W96
@ 068   ----------------------------------------
 .byte   W96
@ 069   ----------------------------------------
 .byte   W96
@ 070   ----------------------------------------
 .byte   EOT
 .byte   TIE ,As2
 .byte   W96
@ 071   ----------------------------------------
 .byte   W96
@ 072   ----------------------------------------
 .byte   W48
 .byte   EOT
 .byte   N48
 .byte   W48
@ 073   ----------------------------------------
 .byte   Fn3
 .byte   W48
 .byte   Dn3
 .byte   W48
@ 074   ----------------------------------------
 .byte   TIE ,Ds3
 .byte   W96
@ 075   ----------------------------------------
 .byte   W96
@ 076   ----------------------------------------
 .byte   W96
@ 077   ----------------------------------------
 .byte   EOT
 .byte   N96 ,Dn3
 .byte   W96
@ 078   ----------------------------------------
 .byte   Gn3
 .byte   W96
@ 079   ----------------------------------------
 .byte   W36
 .byte   N36 ,Dn4
 .byte   W36
 .byte   N24 ,Ds4
 .byte   W24
@ 080   ----------------------------------------
 .byte   N36 ,Dn4
 .byte   W36
 .byte   Cn4
 .byte   W36
 .byte   N24 ,Gn3
 .byte   W24
@ 081   ----------------------------------------
Label_10_01E898D6:
 .byte   N36 ,Fn3 ,v096
 .byte   W36
 .byte   Ds3
 .byte   W36
 .byte   N24 ,Dn3
 .byte   W24
 .byte   PEND 
@ 082   ----------------------------------------
 .byte   N36 ,Cn3
 .byte   W36
 .byte   N96 ,Gn3
 .byte   W60
@ 083   ----------------------------------------
 .byte   W36
 .byte   N36 ,As3
 .byte   W36
 .byte   N24 ,Gs3
 .byte   W24
@ 084   ----------------------------------------
 .byte   N36 ,Gn3
 .byte   W36
 .byte   N60 ,Cn3
 .byte   W60
@ 085   ----------------------------------------
 .byte   PATT
  .word Label_10_01E898D6
@ 086   ----------------------------------------
 .byte   W96
@ 087   ----------------------------------------
 .byte   W96
@ 088   ----------------------------------------
 .byte   W96
@ 089   ----------------------------------------
 .byte   W92
 .byte   W03
 .byte   GOTO
  .word Label_10_01E897FE
@ 090   ----------------------------------------
 .byte   W01
 .byte   FINE

@**************** Track 12 (Midi-Chn.11) ****************@

song01E8_012:
@ 000   ----------------------------------------
 .byte   VOL , 47*song01E8_mvl/mxv
 .byte   KEYSH , song01E8_key+0
 .byte   VOICE , 11
 .byte   W96
@ 001   ----------------------------------------
 .byte   W96
@ 002   ----------------------------------------
 .byte   W96
@ 003   ----------------------------------------
 .byte   W96
@ 004   ----------------------------------------
 .byte   W96
@ 005   ----------------------------------------
 .byte   W96
@ 006   ----------------------------------------
 .byte   W96
@ 007   ----------------------------------------
 .byte   W96
@ 008   ----------------------------------------
Label_11_01E89912:
 .byte   W96
@ 009   ----------------------------------------
 .byte   W96
@ 010   ----------------------------------------
 .byte   W96
@ 011   ----------------------------------------
 .byte   W96
@ 012   ----------------------------------------
 .byte   W96
@ 013   ----------------------------------------
 .byte   W96
@ 014   ----------------------------------------
 .byte   W96
@ 015   ----------------------------------------
 .byte   W96
@ 016   ----------------------------------------
 .byte   W96
@ 017   ----------------------------------------
 .byte   W96
@ 018   ----------------------------------------
 .byte   W96
@ 019   ----------------------------------------
 .byte   W96
@ 020   ----------------------------------------
 .byte   W96
@ 021   ----------------------------------------
 .byte   W96
@ 022   ----------------------------------------
 .byte   W96
@ 023   ----------------------------------------
 .byte   W96
@ 024   ----------------------------------------
 .byte   W96
@ 025   ----------------------------------------
 .byte   W96
@ 026   ----------------------------------------
 .byte   W96
@ 027   ----------------------------------------
 .byte   W96
@ 028   ----------------------------------------
 .byte   W96
@ 029   ----------------------------------------
 .byte   W96
@ 030   ----------------------------------------
 .byte   W48
 .byte   N12 ,Cs3 ,v127
 .byte   W48
@ 031   ----------------------------------------
Label_11_01E8992D:
 .byte   N12 ,Fn3 ,v127
 .byte   W48
 .byte   Gs3
 .byte   W48
 .byte   PEND 
@ 032   ----------------------------------------
 .byte   W48
 .byte   Cn3
 .byte   W48
@ 033   ----------------------------------------
 .byte   PATT
  .word Label_11_01E8992D
@ 034   ----------------------------------------
 .byte   W48
 .byte   N12 ,Bn2 ,v127
 .byte   W48
@ 035   ----------------------------------------
 .byte   En3
 .byte   W48
 .byte   Bn3
 .byte   W48
@ 036   ----------------------------------------
 .byte   W96
@ 037   ----------------------------------------
 .byte   W96
@ 038   ----------------------------------------
 .byte   W96
@ 039   ----------------------------------------
 .byte   W96
@ 040   ----------------------------------------
 .byte   W96
@ 041   ----------------------------------------
 .byte   W96
@ 042   ----------------------------------------
 .byte   W96
@ 043   ----------------------------------------
 .byte   W96
@ 044   ----------------------------------------
 .byte   W96
@ 045   ----------------------------------------
 .byte   W96
@ 046   ----------------------------------------
 .byte   W96
@ 047   ----------------------------------------
 .byte   W96
@ 048   ----------------------------------------
 .byte   W96
@ 049   ----------------------------------------
 .byte   W96
@ 050   ----------------------------------------
 .byte   W96
@ 051   ----------------------------------------
 .byte   W96
@ 052   ----------------------------------------
 .byte   W96
@ 053   ----------------------------------------
 .byte   W96
@ 054   ----------------------------------------
 .byte   W96
@ 055   ----------------------------------------
 .byte   W96
@ 056   ----------------------------------------
 .byte   W96
@ 057   ----------------------------------------
 .byte   W96
@ 058   ----------------------------------------
 .byte   W96
@ 059   ----------------------------------------
 .byte   W96
@ 060   ----------------------------------------
 .byte   W96
@ 061   ----------------------------------------
 .byte   W96
@ 062   ----------------------------------------
 .byte   W96
@ 063   ----------------------------------------
 .byte   W96
@ 064   ----------------------------------------
 .byte   W96
@ 065   ----------------------------------------
 .byte   W96
@ 066   ----------------------------------------
 .byte   W96
@ 067   ----------------------------------------
 .byte   W96
@ 068   ----------------------------------------
 .byte   W96
@ 069   ----------------------------------------
 .byte   W96
@ 070   ----------------------------------------
 .byte   W96
@ 071   ----------------------------------------
 .byte   W96
@ 072   ----------------------------------------
 .byte   W96
@ 073   ----------------------------------------
 .byte   W96
@ 074   ----------------------------------------
 .byte   W96
@ 075   ----------------------------------------
 .byte   W96
@ 076   ----------------------------------------
 .byte   W96
@ 077   ----------------------------------------
 .byte   W96
@ 078   ----------------------------------------
 .byte   W96
@ 079   ----------------------------------------
 .byte   W96
@ 080   ----------------------------------------
 .byte   W96
@ 081   ----------------------------------------
 .byte   W96
@ 082   ----------------------------------------
 .byte   W96
@ 083   ----------------------------------------
 .byte   W96
@ 084   ----------------------------------------
 .byte   W96
@ 085   ----------------------------------------
 .byte   W96
@ 086   ----------------------------------------
 .byte   W96
@ 087   ----------------------------------------
 .byte   W96
@ 088   ----------------------------------------
 .byte   W96
@ 089   ----------------------------------------
 .byte   W92
 .byte   W03
 .byte   GOTO
  .word Label_11_01E89912
@ 090   ----------------------------------------
 .byte   W01
 .byte   FINE

@**************** Track 13 (Midi-Chn.12) ****************@

song01E8_013:
@ 000   ----------------------------------------
 .byte   VOL , 47*song01E8_mvl/mxv
 .byte   KEYSH , song01E8_key+0
 .byte   VOICE , 77
 .byte   W96
@ 001   ----------------------------------------
 .byte   W96
@ 002   ----------------------------------------
 .byte   W96
@ 003   ----------------------------------------
 .byte   W96
@ 004   ----------------------------------------
 .byte   W96
@ 005   ----------------------------------------
 .byte   W96
@ 006   ----------------------------------------
 .byte   W96
@ 007   ----------------------------------------
 .byte   W96
@ 008   ----------------------------------------
Label_12_01E89992:
 .byte   W96
@ 009   ----------------------------------------
 .byte   W96
@ 010   ----------------------------------------
 .byte   W96
@ 011   ----------------------------------------
 .byte   W96
@ 012   ----------------------------------------
 .byte   W96
@ 013   ----------------------------------------
 .byte   W96
@ 014   ----------------------------------------
 .byte   W96
@ 015   ----------------------------------------
 .byte   W96
@ 016   ----------------------------------------
 .byte   W96
@ 017   ----------------------------------------
 .byte   W96
@ 018   ----------------------------------------
 .byte   W96
@ 019   ----------------------------------------
 .byte   W96
@ 020   ----------------------------------------
 .byte   W96
@ 021   ----------------------------------------
 .byte   W96
@ 022   ----------------------------------------
 .byte   W96
@ 023   ----------------------------------------
 .byte   W96
@ 024   ----------------------------------------
 .byte   W96
@ 025   ----------------------------------------
 .byte   W96
@ 026   ----------------------------------------
 .byte   W96
@ 027   ----------------------------------------
 .byte   W96
@ 028   ----------------------------------------
 .byte   W96
@ 029   ----------------------------------------
 .byte   W96
@ 030   ----------------------------------------
 .byte   W96
@ 031   ----------------------------------------
 .byte   W96
@ 032   ----------------------------------------
 .byte   W96
@ 033   ----------------------------------------
 .byte   W96
@ 034   ----------------------------------------
 .byte   W96
@ 035   ----------------------------------------
 .byte   W96
@ 036   ----------------------------------------
 .byte   W96
@ 037   ----------------------------------------
 .byte   W96
@ 038   ----------------------------------------
 .byte   W96
@ 039   ----------------------------------------
 .byte   W96
@ 040   ----------------------------------------
 .byte   W96
@ 041   ----------------------------------------
 .byte   W96
@ 042   ----------------------------------------
 .byte   W96
@ 043   ----------------------------------------
 .byte   W96
@ 044   ----------------------------------------
 .byte   W96
@ 045   ----------------------------------------
 .byte   W96
@ 046   ----------------------------------------
 .byte   W96
@ 047   ----------------------------------------
 .byte   W96
@ 048   ----------------------------------------
 .byte   W96
@ 049   ----------------------------------------
 .byte   W96
@ 050   ----------------------------------------
 .byte   W96
@ 051   ----------------------------------------
 .byte   W96
@ 052   ----------------------------------------
 .byte   W96
@ 053   ----------------------------------------
 .byte   W96
@ 054   ----------------------------------------
 .byte   W96
@ 055   ----------------------------------------
 .byte   W96
@ 056   ----------------------------------------
 .byte   W96
@ 057   ----------------------------------------
 .byte   W96
@ 058   ----------------------------------------
 .byte   W96
@ 059   ----------------------------------------
 .byte   W96
@ 060   ----------------------------------------
 .byte   W96
@ 061   ----------------------------------------
 .byte   W96
@ 062   ----------------------------------------
 .byte   W96
@ 063   ----------------------------------------
 .byte   W96
@ 064   ----------------------------------------
 .byte   W96
@ 065   ----------------------------------------
 .byte   W96
@ 066   ----------------------------------------
Label_12_01E899CC:
 .byte   N36 ,Cn3 ,v096
 .byte   W36
 .byte   W01
 .byte   TIE ,Gn3
 .byte   W56
 .byte   W03
 .byte   PEND 
@ 067   ----------------------------------------
 .byte   W44
 .byte   W03
 .byte   EOT
 .byte   W48
 .byte   W01
@ 068   ----------------------------------------
 .byte   W96
@ 069   ----------------------------------------
Label_12_01E899DC:
 .byte   N36 ,Gn3 ,v096
 .byte   W36
 .byte   Cn4
 .byte   W36
 .byte   N24 ,Gn3
 .byte   W24
 .byte   PEND 
@ 070   ----------------------------------------
Label_12_01E899E6:
 .byte   N36 ,Gn3 ,v096
 .byte   W36
 .byte   N60 ,Ds3
 .byte   W60
 .byte   PEND 
@ 071   ----------------------------------------
 .byte   PATT
  .word Label_12_01E899CC
@ 072   ----------------------------------------
 .byte   W44
 .byte   W03
 .byte   EOT
 .byte   Gn3
 .byte   W48
 .byte   W01
@ 073   ----------------------------------------
 .byte   PATT
  .word Label_12_01E899DC
@ 074   ----------------------------------------
 .byte   PATT
  .word Label_12_01E899E6
@ 075   ----------------------------------------
 .byte   PATT
  .word Label_12_01E899CC
@ 076   ----------------------------------------
 .byte   W44
 .byte   W03
 .byte   EOT
 .byte   Gn3
 .byte   W48
 .byte   W01
@ 077   ----------------------------------------
 .byte   W96
@ 078   ----------------------------------------
 .byte   W96
@ 079   ----------------------------------------
 .byte   W96
@ 080   ----------------------------------------
 .byte   W96
@ 081   ----------------------------------------
 .byte   W96
@ 082   ----------------------------------------
 .byte   W96
@ 083   ----------------------------------------
 .byte   W96
@ 084   ----------------------------------------
 .byte   W96
@ 085   ----------------------------------------
 .byte   W96
@ 086   ----------------------------------------
 .byte   W96
@ 087   ----------------------------------------
 .byte   W96
@ 088   ----------------------------------------
 .byte   W96
@ 089   ----------------------------------------
 .byte   W92
 .byte   W03
 .byte   GOTO
  .word Label_12_01E89992
@ 090   ----------------------------------------
 .byte   W01
 .byte   FINE

@******************************************************@
	.align	2

song01E8:
	.byte	13	@ NumTrks
	.byte	0	@ NumBlks
	.byte	song01E8_pri	@ Priority
	.byte	song01E8_rev	@ Reverb.
    
	.word	song01E8_grp
    
	.word	song01E8_001
	.word	song01E8_002
	.word	song01E8_003
	.word	song01E8_004
	.word	song01E8_005
	.word	song01E8_006
	.word	song01E8_007
	.word	song01E8_008
	.word	song01E8_009
	.word	song01E8_010
	.word	song01E8_011
	.word	song01E8_012
	.word	song01E8_013

	.end
