	.include "MPlayDef.s"

	.equ	song29_grp, voicegroup000
	.equ	song29_pri, 0
	.equ	song29_rev, 148
	.equ	song29_mvl, 127
	.equ	song29_key, 0
	.equ	song29_tbs, 1
	.equ	song29_exg, 0
	.equ	song29_cmp, 1

	.section .rodata
	.global	song29
	.align	2


@**************** Track 1 (Midi-Chn.0) ****************@

song29_001:
@  #01 @000   ----------------------------------------
 .byte   KEYSH , song29_key+0
 .byte   TEMPO , 152*song29_tbs/2
 .byte   VOICE , 76
 .byte   VOL , 48*song29_mvl/mxv
 .byte   PAN , c_v+0
 .byte   W96
@  #01 @001   ----------------------------------------
Label_01054107:
 .byte   N18 ,Gn4 ,v127
 .byte   W96
@  #01 @002   ----------------------------------------
 .byte   W36
 .byte   N06 ,En4
 .byte   W06
 .byte   Fn4
 .byte   W06
 .byte   N15 ,Gn4
 .byte   W18
 .byte   N18 ,Cn5
 .byte   W18
 .byte   N12 ,Gn4
 .byte   W12
@  #01 @003   ----------------------------------------
 .byte   N18
 .byte   W96
@  #01 @004   ----------------------------------------
 .byte   Dn4
 .byte   W96
@  #01 @005   ----------------------------------------
 .byte   Gn4
 .byte   W17
 .byte   PAN , c_v-28
 .byte   W01
 .byte   N18 ,Gn4 ,v080
 .byte   W17
 .byte   PAN , c_v+26
 .byte   W01
 .byte   N18 ,Gn4 ,v068
 .byte   W17
 .byte   PAN , c_v-40
 .byte   W01
 .byte   N18 ,Gn4 ,v056
 .byte   W17
 .byte   PAN , c_v+41
 .byte   W01
 .byte   N18 ,Gn4 ,v048
 .byte   W17
 .byte   PAN , c_v-51
 .byte   W01
 .byte   N18 ,Gn4 ,v044
 .byte   W06
@  #01 @006   ----------------------------------------
 .byte   W11
 .byte   PAN , c_v+48
 .byte   W01
 .byte   N18 ,Gn4 ,v040
 .byte   W17
 .byte   PAN , c_v-59
 .byte   W01
 .byte   N06 ,Gn4 ,v036
 .byte   W05
 .byte   PAN , c_v+0
 .byte   W01
 .byte   N06 ,En4 ,v127
 .byte   W06
 .byte   Fn4
 .byte   W06
 .byte   N18 ,Gn4
 .byte   W18
 .byte   Cn5
 .byte   W18
 .byte   N12 ,Gn4
 .byte   W12
@  #01 @007   ----------------------------------------
 .byte   N18 ,Dn5
 .byte   W17
 .byte   PAN , c_v-28
 .byte   W01
 .byte   N18 ,Dn5 ,v080
 .byte   W17
 .byte   PAN , c_v+26
 .byte   W01
 .byte   N18 ,Dn5 ,v068
 .byte   W17
 .byte   PAN , c_v-40
 .byte   W01
 .byte   N18 ,Dn5 ,v056
 .byte   W17
 .byte   PAN , c_v+41
 .byte   W01
 .byte   N18 ,Dn5 ,v048
 .byte   W17
 .byte   PAN , c_v-51
 .byte   W01
 .byte   N05 ,Dn5 ,v044
 .byte   W05
 .byte   VOICE , 8
 .byte   PAN , c_v-35
 .byte   W01
@  #01 @008   ----------------------------------------
 .byte   N18 ,Fs5 ,v127
 .byte   W17
 .byte   PAN , c_v+26
 .byte   W01
 .byte   N18 ,Fs5 ,v080
 .byte   W17
 .byte   PAN , c_v-40
 .byte   W01
 .byte   N18 ,Fs5 ,v068
 .byte   W17
 .byte   PAN , c_v+41
 .byte   W01
 .byte   N18 ,Fs5 ,v056
 .byte   W17
 .byte   PAN , c_v-57
 .byte   W01
 .byte   N18 ,Fs5 ,v048
 .byte   W17
 .byte   PAN , c_v+53
 .byte   W01
 .byte   N06 ,Fs5 ,v044
 .byte   W06
@  #01 @009   ----------------------------------------
 .byte   W96
@  #01 @010   ----------------------------------------
 .byte   W96
@  #01 @011   ----------------------------------------
 .byte   W96
@  #01 @012   ----------------------------------------
 .byte   W96
@  #01 @013   ----------------------------------------
 .byte   W96
@  #01 @014   ----------------------------------------
 .byte   W96
@  #01 @015   ----------------------------------------
 .byte   W96
@  #01 @016   ----------------------------------------
 .byte   W96
@  #01 @017   ----------------------------------------
 .byte   W96
@  #01 @018   ----------------------------------------
 .byte   W96
@  #01 @019   ----------------------------------------
 .byte   W96
@  #01 @020   ----------------------------------------
 .byte   W96
@  #01 @021   ----------------------------------------
 .byte   W96
@  #01 @022   ----------------------------------------
 .byte   W96
@  #01 @023   ----------------------------------------
 .byte   W96
@  #01 @024   ----------------------------------------
 .byte   W96
@  #01 @025   ----------------------------------------
 .byte   W96
@  #01 @026   ----------------------------------------
 .byte   W96
@  #01 @027   ----------------------------------------
 .byte   W96
@  #01 @028   ----------------------------------------
 .byte   W96
@  #01 @029   ----------------------------------------
 .byte   W96
@  #01 @030   ----------------------------------------
 .byte   W96
@  #01 @031   ----------------------------------------
 .byte   W96
@  #01 @032   ----------------------------------------
 .byte   W96
@  #01 @033   ----------------------------------------
 .byte   W96
@  #01 @034   ----------------------------------------
 .byte   W96
@  #01 @035   ----------------------------------------
 .byte   W96
@  #01 @036   ----------------------------------------
 .byte   W96
@  #01 @037   ----------------------------------------
 .byte   W96
@  #01 @038   ----------------------------------------
 .byte   W96
@  #01 @039   ----------------------------------------
 .byte   W96
@  #01 @040   ----------------------------------------
 .byte   W96
@  #01 @041   ----------------------------------------
 .byte   W96
@  #01 @042   ----------------------------------------
 .byte   W96
@  #01 @043   ----------------------------------------
 .byte   W96
@  #01 @044   ----------------------------------------
 .byte   W96
@  #01 @045   ----------------------------------------
 .byte   W96
@  #01 @046   ----------------------------------------
 .byte   W96
@  #01 @047   ----------------------------------------
 .byte   W96
@  #01 @048   ----------------------------------------
 .byte   W96
@  #01 @049   ----------------------------------------
 .byte   W96
@  #01 @050   ----------------------------------------
 .byte   W96
@  #01 @051   ----------------------------------------
 .byte   W96
@  #01 @052   ----------------------------------------
 .byte   VOICE , 76
 .byte   PAN , c_v+0
 .byte   W96
@  #01 @053   ----------------------------------------
 .byte   GOTO
  .word Label_01054107
 .byte   FINE

@**************** Track 2 (Midi-Chn.1) ****************@

song29_002:
@  #02 @000   ----------------------------------------
 .byte   KEYSH , song29_key+0
 .byte   VOICE , 76
 .byte   VOL , 20*song29_mvl/mxv
 .byte   PAN , c_v+16
 .byte   BEND , c_v-3
 .byte   W96
@  #02 @001   ----------------------------------------
Label_01054217:
 .byte   W18
 .byte   N18 ,Gn4 ,v127
 .byte   W78
@  #02 @002   ----------------------------------------
 .byte   W54
 .byte   N06 ,En4
 .byte   W06
 .byte   Fn4
 .byte   W06
 .byte   N15 ,Gn4
 .byte   W18
 .byte   N18 ,Cn5
 .byte   W12
@  #02 @003   ----------------------------------------
 .byte   W06
 .byte   N12 ,Gn4
 .byte   W12
 .byte   N18
 .byte   W78
@  #02 @004   ----------------------------------------
 .byte   W18
 .byte   Dn4
 .byte   W78
@  #02 @005   ----------------------------------------
 .byte   W18
 .byte   Gn4
 .byte   W17
 .byte   PAN , c_v-28
 .byte   W01
 .byte   N18 ,Gn4 ,v080
 .byte   W17
 .byte   PAN , c_v+26
 .byte   W01
 .byte   N18 ,Gn4 ,v068
 .byte   W17
 .byte   PAN , c_v-40
 .byte   W01
 .byte   N18 ,Gn4 ,v056
 .byte   W17
 .byte   PAN , c_v+41
 .byte   W01
 .byte   N18 ,Gn4 ,v048
 .byte   W06
@  #02 @006   ----------------------------------------
 .byte   W11
 .byte   PAN , c_v-51
 .byte   W01
 .byte   N18 ,Gn4 ,v044
 .byte   W17
 .byte   PAN , c_v+48
 .byte   W01
 .byte   N18 ,Gn4 ,v040
 .byte   W17
 .byte   PAN , c_v-59
 .byte   W01
 .byte   N06 ,Gn4 ,v036
 .byte   W05
 .byte   PAN , c_v+16
 .byte   W01
 .byte   N06 ,En4 ,v127
 .byte   W06
 .byte   Fn4
 .byte   W06
 .byte   N18 ,Gn4
 .byte   W18
 .byte   Cn5
 .byte   W12
@  #02 @007   ----------------------------------------
 .byte   W06
 .byte   N12 ,Gn4
 .byte   W12
 .byte   N18 ,Dn5
 .byte   W17
 .byte   PAN , c_v-28
 .byte   W01
 .byte   N18 ,Dn5 ,v080
 .byte   W17
 .byte   PAN , c_v+26
 .byte   W01
 .byte   N18 ,Dn5 ,v068
 .byte   W17
 .byte   PAN , c_v-40
 .byte   W01
 .byte   N18 ,Dn5 ,v056
 .byte   W17
 .byte   PAN , c_v+41
 .byte   W01
 .byte   N18 ,Dn5 ,v048
 .byte   W06
@  #02 @008   ----------------------------------------
 .byte   W11
 .byte   PAN , c_v-51
 .byte   W01
 .byte   N05 ,Dn5 ,v044
 .byte   W05
 .byte   VOICE , 8
 .byte   PAN , c_v-35
 .byte   W01
 .byte   N18 ,Fs5 ,v127
 .byte   W17
 .byte   PAN , c_v+26
 .byte   W01
 .byte   N18 ,Fs5 ,v080
 .byte   W17
 .byte   PAN , c_v-40
 .byte   W01
 .byte   N18 ,Fs5 ,v068
 .byte   W17
 .byte   PAN , c_v+41
 .byte   W01
 .byte   N18 ,Fs5 ,v056
 .byte   W17
 .byte   PAN , c_v-57
 .byte   W01
 .byte   N18 ,Fs5 ,v048
 .byte   W06
@  #02 @009   ----------------------------------------
 .byte   W11
 .byte   PAN , c_v+53
 .byte   W01
 .byte   N06 ,Fs5 ,v044
 .byte   W84
@  #02 @010   ----------------------------------------
 .byte   W96
@  #02 @011   ----------------------------------------
 .byte   W96
@  #02 @012   ----------------------------------------
 .byte   W96
@  #02 @013   ----------------------------------------
 .byte   W96
@  #02 @014   ----------------------------------------
 .byte   W96
@  #02 @015   ----------------------------------------
 .byte   W96
@  #02 @016   ----------------------------------------
 .byte   W96
@  #02 @017   ----------------------------------------
 .byte   W96
@  #02 @018   ----------------------------------------
 .byte   W96
@  #02 @019   ----------------------------------------
 .byte   W96
@  #02 @020   ----------------------------------------
 .byte   W96
@  #02 @021   ----------------------------------------
 .byte   W96
@  #02 @022   ----------------------------------------
 .byte   W96
@  #02 @023   ----------------------------------------
 .byte   W96
@  #02 @024   ----------------------------------------
 .byte   W96
@  #02 @025   ----------------------------------------
 .byte   W96
@  #02 @026   ----------------------------------------
 .byte   W96
@  #02 @027   ----------------------------------------
 .byte   W96
@  #02 @028   ----------------------------------------
 .byte   W96
@  #02 @029   ----------------------------------------
 .byte   W96
@  #02 @030   ----------------------------------------
 .byte   W96
@  #02 @031   ----------------------------------------
 .byte   W96
@  #02 @032   ----------------------------------------
 .byte   W96
@  #02 @033   ----------------------------------------
 .byte   W96
@  #02 @034   ----------------------------------------
 .byte   W96
@  #02 @035   ----------------------------------------
 .byte   W96
@  #02 @036   ----------------------------------------
 .byte   W96
@  #02 @037   ----------------------------------------
 .byte   W96
@  #02 @038   ----------------------------------------
 .byte   W96
@  #02 @039   ----------------------------------------
 .byte   W96
@  #02 @040   ----------------------------------------
 .byte   W96
@  #02 @041   ----------------------------------------
 .byte   W96
@  #02 @042   ----------------------------------------
 .byte   W96
@  #02 @043   ----------------------------------------
 .byte   W96
@  #02 @044   ----------------------------------------
 .byte   W96
@  #02 @045   ----------------------------------------
 .byte   W96
@  #02 @046   ----------------------------------------
 .byte   W96
@  #02 @047   ----------------------------------------
 .byte   W96
@  #02 @048   ----------------------------------------
 .byte   W96
@  #02 @049   ----------------------------------------
 .byte   W96
@  #02 @050   ----------------------------------------
 .byte   W96
@  #02 @051   ----------------------------------------
 .byte   W96
@  #02 @052   ----------------------------------------
 .byte   W12
 .byte   VOICE , 76
 .byte   PAN , c_v+16
 .byte   W84
@  #02 @053   ----------------------------------------
 .byte   GOTO
  .word Label_01054217
 .byte   FINE

@**************** Track 3 (Midi-Chn.2) ****************@

song29_003:
@  #03 @000   ----------------------------------------
 .byte   KEYSH , song29_key+0
 .byte   VOICE , 50
 .byte   PAN , c_v+0
 .byte   VOL , 32*song29_mvl/mxv
 .byte   W96
@  #03 @001   ----------------------------------------
Label_01053941:
 .byte   N15 ,Fn1 ,v127
 .byte   W18
 .byte   Cn2
 .byte   W18
 .byte   Fn1
 .byte   W24
 .byte   N06
 .byte   W12
 .byte   N12 ,Cn2
 .byte   W12
 .byte   N09 ,Fn1
 .byte   W12
 .byte   PEND 
@  #03 @002   ----------------------------------------
Label_01053952:
 .byte   N15 ,Fn1 ,v127
 .byte   W18
 .byte   Cn2
 .byte   W18
 .byte   Fn1
 .byte   W24
 .byte   N06
 .byte   W12
 .byte   Fn2
 .byte   W06
 .byte   Cn2
 .byte   W06
 .byte   N09 ,Fn1
 .byte   W12
 .byte   PEND 
@  #03 @003   ----------------------------------------
Label_01053964:
 .byte   N15 ,En1 ,v127
 .byte   W18
 .byte   Bn1
 .byte   W18
 .byte   En1
 .byte   W24
 .byte   N06
 .byte   W12
 .byte   N12 ,En2
 .byte   W12
 .byte   N09 ,En1
 .byte   W12
 .byte   PEND 
@  #03 @004   ----------------------------------------
Label_01053975:
 .byte   N15 ,En1 ,v127
 .byte   W18
 .byte   Bn1
 .byte   W18
 .byte   En1
 .byte   W24
 .byte   N06
 .byte   W12
 .byte   En2
 .byte   W06
 .byte   Bn1
 .byte   W06
 .byte   N09 ,En1
 .byte   W12
 .byte   PEND 
@  #03 @005   ----------------------------------------
 .byte   PATT
  .word Label_01053941
@  #03 @006   ----------------------------------------
 .byte   PATT
  .word Label_01053952
@  #03 @007   ----------------------------------------
 .byte   PATT
  .word Label_01053975
@  #03 @008   ----------------------------------------
 .byte   PATT
  .word Label_01053975
@  #03 @009   ----------------------------------------
Label_0105399B:
 .byte   N15 ,Dn1 ,v127
 .byte   W18
 .byte   An1
 .byte   W18
 .byte   Dn1
 .byte   W24
 .byte   N06
 .byte   W12
 .byte   N12 ,An1
 .byte   W12
 .byte   N09 ,Dn1
 .byte   W12
 .byte   PEND 
@  #03 @010   ----------------------------------------
Label_010539AC:
 .byte   N15 ,Gn1 ,v127
 .byte   W18
 .byte   Gn2
 .byte   W18
 .byte   Gn1
 .byte   W24
 .byte   N06
 .byte   W12
 .byte   Gn2
 .byte   W06
 .byte   Dn2
 .byte   W06
 .byte   N09 ,Gn1
 .byte   W12
 .byte   PEND 
@  #03 @011   ----------------------------------------
Label_010539BE:
 .byte   N15 ,Cn1 ,v127
 .byte   W18
 .byte   Gn1
 .byte   W18
 .byte   N12 ,Cn1
 .byte   W12
 .byte   N06
 .byte   W18
 .byte   N04
 .byte   W06
 .byte   N12 ,Cn2
 .byte   W12
 .byte   Cn1
 .byte   W12
 .byte   PEND 
@  #03 @012   ----------------------------------------
Label_010539D1:
 .byte   N15 ,Cn1 ,v127
 .byte   W18
 .byte   Gn1
 .byte   W18
 .byte   N12 ,Cn1
 .byte   W12
 .byte   N06
 .byte   W18
 .byte   N04
 .byte   W06
 .byte   Cn2
 .byte   W06
 .byte   Gn1
 .byte   W06
 .byte   N12 ,Cn1
 .byte   W12
 .byte   PEND 
@  #03 @013   ----------------------------------------
Label_010539E6:
 .byte   N15 ,Gs0 ,v127
 .byte   W18
 .byte   Gs1
 .byte   W18
 .byte   Gs0
 .byte   W24
 .byte   N06
 .byte   W12
 .byte   N12 ,Gs1
 .byte   W12
 .byte   N09 ,Gs0
 .byte   W12
 .byte   PEND 
@  #03 @014   ----------------------------------------
 .byte   N15
 .byte   W18
 .byte   Gs1
 .byte   W18
 .byte   Gs0
 .byte   W24
 .byte   N06
 .byte   W12
 .byte   Gs1
 .byte   W06
 .byte   Gs0
 .byte   W06
 .byte   N09 ,Gs1
 .byte   W12
@  #03 @015   ----------------------------------------
 .byte   N15 ,Dn1
 .byte   W18
 .byte   Dn2
 .byte   W18
 .byte   Dn1
 .byte   W24
 .byte   N06
 .byte   W12
 .byte   N12 ,Dn2
 .byte   W12
 .byte   N09 ,Dn1
 .byte   W12
@  #03 @016   ----------------------------------------
 .byte   PATT
  .word Label_010539AC
@  #03 @017   ----------------------------------------
 .byte   PATT
  .word Label_01053941
@  #03 @018   ----------------------------------------
 .byte   PATT
  .word Label_01053952
@  #03 @019   ----------------------------------------
 .byte   PATT
  .word Label_01053964
@  #03 @020   ----------------------------------------
 .byte   PATT
  .word Label_01053975
@  #03 @021   ----------------------------------------
 .byte   PATT
  .word Label_01053941
@  #03 @022   ----------------------------------------
 .byte   PATT
  .word Label_01053952
@  #03 @023   ----------------------------------------
 .byte   PATT
  .word Label_01053975
@  #03 @024   ----------------------------------------
 .byte   PATT
  .word Label_01053975
@  #03 @025   ----------------------------------------
 .byte   PATT
  .word Label_0105399B
@  #03 @026   ----------------------------------------
 .byte   PATT
  .word Label_010539AC
@  #03 @027   ----------------------------------------
 .byte   PATT
  .word Label_010539BE
@  #03 @028   ----------------------------------------
 .byte   PATT
  .word Label_010539D1
@  #03 @029   ----------------------------------------
 .byte   PATT
  .word Label_010539E6
@  #03 @030   ----------------------------------------
 .byte   N15 ,Dn1 ,v127
 .byte   W18
 .byte   N04 ,Dn2
 .byte   W06
 .byte   Dn1
 .byte   W06
 .byte   Dn2
 .byte   W06
 .byte   N09 ,Dn1
 .byte   W12
 .byte   N15 ,Gn0
 .byte   W18
 .byte   N04 ,Gn1
 .byte   W06
 .byte   Gn0
 .byte   W06
 .byte   Gn1
 .byte   W06
 .byte   N09 ,Gn0
 .byte   W12
@  #03 @031   ----------------------------------------
 .byte   N15 ,Gs0
 .byte   W18
 .byte   Gs1
 .byte   W18
 .byte   Gs0
 .byte   W24
 .byte   N06 ,As0
 .byte   W12
 .byte   N12 ,As1
 .byte   W12
 .byte   N09 ,As0
 .byte   W12
@  #03 @032   ----------------------------------------
 .byte   N15 ,Cn1
 .byte   W18
 .byte   Cn2
 .byte   W18
 .byte   Cn1
 .byte   W24
 .byte   N06
 .byte   W12
 .byte   N04 ,Cn2
 .byte   W06
 .byte   Gn1
 .byte   W06
 .byte   Cn1
 .byte   W06
 .byte   Cn2
 .byte   W06
@  #03 @033   ----------------------------------------
 .byte   PATT
  .word Label_01053941
@  #03 @034   ----------------------------------------
 .byte   N15 ,As1 ,v127
 .byte   W18
 .byte   As2
 .byte   W18
 .byte   As1
 .byte   W24
 .byte   N06
 .byte   W12
 .byte   As2
 .byte   W06
 .byte   Fn2
 .byte   W06
 .byte   N09 ,As1
 .byte   W12
@  #03 @035   ----------------------------------------
 .byte   N15 ,En1
 .byte   W18
 .byte   Bn1
 .byte   W18
 .byte   En1
 .byte   W24
 .byte   N06
 .byte   W12
 .byte   N12 ,Bn1
 .byte   W12
 .byte   N09 ,En1
 .byte   W12
@  #03 @036   ----------------------------------------
Label_01053ABD:
 .byte   N15 ,An1 ,v127
 .byte   W18
 .byte   An2
 .byte   W18
 .byte   An1
 .byte   W24
 .byte   N06
 .byte   W12
 .byte   Gn2
 .byte   W06
 .byte   Dn2
 .byte   W06
 .byte   N09 ,Gn1
 .byte   W12
 .byte   PEND 
@  #03 @037   ----------------------------------------
 .byte   N15 ,Fn1
 .byte   W18
 .byte   Fn2
 .byte   W18
 .byte   Fn1
 .byte   W24
 .byte   N06
 .byte   W12
 .byte   N12 ,Fn2
 .byte   W12
 .byte   N09 ,Fn1
 .byte   W12
@  #03 @038   ----------------------------------------
 .byte   N15
 .byte   W18
 .byte   Fn2
 .byte   W18
 .byte   N12 ,Fn1
 .byte   W12
 .byte   N12
 .byte   W12
 .byte   N06
 .byte   W12
 .byte   N04 ,Fn2
 .byte   W06
 .byte   Cn2
 .byte   W06
 .byte   Fn1
 .byte   W06
 .byte   Fn2
 .byte   W06
@  #03 @039   ----------------------------------------
 .byte   N15 ,En1
 .byte   W18
 .byte   En2
 .byte   W18
 .byte   En1
 .byte   W24
 .byte   N06
 .byte   W12
 .byte   N12 ,En2
 .byte   W12
 .byte   N09 ,En1
 .byte   W12
@  #03 @040   ----------------------------------------
 .byte   N15 ,An1
 .byte   W18
 .byte   An2
 .byte   W18
 .byte   An1
 .byte   W24
 .byte   N06
 .byte   W12
 .byte   N12 ,An2
 .byte   W12
 .byte   N09 ,An1
 .byte   W12
@  #03 @041   ----------------------------------------
Label_01053B10:
 .byte   N15 ,Fn1 ,v127
 .byte   W18
 .byte   Cn2
 .byte   W18
 .byte   Fn1
 .byte   W24
 .byte   N06
 .byte   W12
 .byte   N12 ,Cn2
 .byte   W12
 .byte   N06 ,Fn1
 .byte   W12
 .byte   PEND 
@  #03 @042   ----------------------------------------
 .byte   PATT
  .word Label_01053B10
@  #03 @043   ----------------------------------------
 .byte   N15 ,En1 ,v127
 .byte   W18
 .byte   Bn1
 .byte   W18
 .byte   En1
 .byte   W24
 .byte   N06
 .byte   W12
 .byte   N12 ,En2
 .byte   W12
 .byte   N06 ,En1
 .byte   W12
@  #03 @044   ----------------------------------------
 .byte   PATT
  .word Label_01053ABD
@  #03 @045   ----------------------------------------
 .byte   N15 ,Dn1 ,v127
 .byte   W18
 .byte   Dn2
 .byte   W18
 .byte   Dn1
 .byte   W24
 .byte   N06
 .byte   W12
 .byte   N12 ,Dn2
 .byte   W12
 .byte   N06 ,Dn1
 .byte   W12
@  #03 @046   ----------------------------------------
 .byte   N15 ,En1
 .byte   W18
 .byte   En2
 .byte   W18
 .byte   En1
 .byte   W24
 .byte   N06
 .byte   W12
 .byte   N12 ,En2
 .byte   W12
 .byte   N06 ,En1
 .byte   W12
@  #03 @047   ----------------------------------------
 .byte   N15 ,Fn1
 .byte   W18
 .byte   Fn2
 .byte   W18
 .byte   Fn1
 .byte   W24
 .byte   N06
 .byte   W12
 .byte   N12 ,Fn2
 .byte   W12
 .byte   N06 ,Fn1
 .byte   W12
@  #03 @048   ----------------------------------------
 .byte   N15 ,Dn1
 .byte   W18
 .byte   Dn2
 .byte   W18
 .byte   Dn1
 .byte   W24
 .byte   N06 ,Gn1
 .byte   W12
 .byte   N12 ,Gn2
 .byte   W12
 .byte   N06 ,Gn1
 .byte   W12
@  #03 @049   ----------------------------------------
 .byte   N15 ,Gs0
 .byte   W18
 .byte   Gs1
 .byte   W18
 .byte   Gs0
 .byte   W24
 .byte   N06
 .byte   W12
 .byte   N12 ,Gs1
 .byte   W12
 .byte   N06 ,Gs0
 .byte   W12
@  #03 @050   ----------------------------------------
 .byte   N15 ,As0
 .byte   W18
 .byte   As1
 .byte   W18
 .byte   As0
 .byte   W24
 .byte   N06
 .byte   W12
 .byte   N12 ,As1
 .byte   W12
 .byte   N06 ,As0
 .byte   W12
@  #03 @051   ----------------------------------------
Label_01053B97:
 .byte   N15 ,Cn1 ,v127
 .byte   W18
 .byte   Cn2
 .byte   W18
 .byte   Cn1
 .byte   W24
 .byte   N06
 .byte   W12
 .byte   N12 ,Cn2
 .byte   W12
 .byte   N06 ,Cn1
 .byte   W12
 .byte   PEND 
@  #03 @052   ----------------------------------------
 .byte   PATT
  .word Label_01053B97
@  #03 @053   ----------------------------------------
 .byte   GOTO
  .word Label_01053941
 .byte   FINE

@**************** Track 4 (Midi-Chn.3) ****************@

song29_004:
@  #04 @000   ----------------------------------------
 .byte   KEYSH , song29_key+0
 .byte   VOICE , 50
 .byte   PAN , c_v+0
 .byte   VOL , 22*song29_mvl/mxv
 .byte   W96
@  #04 @001   ----------------------------------------
Label_01053BF1:
 .byte   W12
 .byte   N15 ,Fn1 ,v127
 .byte   W18
 .byte   Cn2
 .byte   W18
 .byte   Fn1
 .byte   W24
 .byte   N06
 .byte   W12
 .byte   N12 ,Cn2
 .byte   W12
@  #04 @002   ----------------------------------------
Label_01053BFF:
 .byte   N09 ,Fn1 ,v127
 .byte   W12
 .byte   N15
 .byte   W18
 .byte   Cn2
 .byte   W18
 .byte   Fn1
 .byte   W24
 .byte   N06
 .byte   W12
 .byte   Fn2
 .byte   W06
 .byte   Cn2
 .byte   W06
 .byte   PEND 
@  #04 @003   ----------------------------------------
Label_01053C10:
 .byte   N09 ,Fn1 ,v127
 .byte   W12
 .byte   N15 ,En1
 .byte   W18
 .byte   Bn1
 .byte   W18
 .byte   En1
 .byte   W24
 .byte   N06
 .byte   W12
 .byte   N12 ,En2
 .byte   W12
 .byte   PEND 
@  #04 @004   ----------------------------------------
Label_01053C21:
 .byte   N09 ,En1 ,v127
 .byte   W12
 .byte   N15
 .byte   W18
 .byte   Bn1
 .byte   W18
 .byte   En1
 .byte   W24
 .byte   N06
 .byte   W12
 .byte   En2
 .byte   W06
 .byte   Bn1
 .byte   W06
 .byte   PEND 
@  #04 @005   ----------------------------------------
Label_01053C32:
 .byte   N09 ,En1 ,v127
 .byte   W12
 .byte   N15 ,Fn1
 .byte   W18
 .byte   Cn2
 .byte   W18
 .byte   Fn1
 .byte   W24
 .byte   N06
 .byte   W12
 .byte   N12 ,Cn2
 .byte   W12
 .byte   PEND 
@  #04 @006   ----------------------------------------
 .byte   PATT
  .word Label_01053BFF
@  #04 @007   ----------------------------------------
Label_01053C48:
 .byte   N09 ,Fn1 ,v127
 .byte   W12
 .byte   N15 ,En1
 .byte   W18
 .byte   Bn1
 .byte   W18
 .byte   En1
 .byte   W24
 .byte   N06
 .byte   W12
 .byte   En2
 .byte   W06
 .byte   Bn1
 .byte   W06
 .byte   PEND 
@  #04 @008   ----------------------------------------
 .byte   PATT
  .word Label_01053C21
@  #04 @009   ----------------------------------------
Label_01053C5F:
 .byte   N09 ,En1 ,v127
 .byte   W12
 .byte   N15 ,Dn1
 .byte   W18
 .byte   An1
 .byte   W18
 .byte   Dn1
 .byte   W24
 .byte   N06
 .byte   W12
 .byte   N12 ,An1
 .byte   W12
 .byte   PEND 
@  #04 @010   ----------------------------------------
Label_01053C70:
 .byte   N09 ,Dn1 ,v127
 .byte   W12
 .byte   N15 ,Gn1
 .byte   W18
 .byte   Gn2
 .byte   W18
 .byte   Gn1
 .byte   W24
 .byte   N06
 .byte   W12
 .byte   Gn2
 .byte   W06
 .byte   Dn2
 .byte   W06
 .byte   PEND 
@  #04 @011   ----------------------------------------
Label_01053C82:
 .byte   N09 ,Gn1 ,v127
 .byte   W12
 .byte   N15 ,Cn1
 .byte   W18
 .byte   Gn1
 .byte   W18
 .byte   N12 ,Cn1
 .byte   W12
 .byte   N06
 .byte   W18
 .byte   N04
 .byte   W06
 .byte   N12 ,Cn2
 .byte   W12
 .byte   PEND 
@  #04 @012   ----------------------------------------
Label_01053C96:
 .byte   N12 ,Cn1 ,v127
 .byte   W12
 .byte   N15
 .byte   W18
 .byte   Gn1
 .byte   W18
 .byte   N12 ,Cn1
 .byte   W12
 .byte   N06
 .byte   W18
 .byte   N04
 .byte   W06
 .byte   Cn2
 .byte   W06
 .byte   Gn1
 .byte   W06
 .byte   PEND 
@  #04 @013   ----------------------------------------
Label_01053CAA:
 .byte   N12 ,Cn1 ,v127
 .byte   W12
 .byte   N15 ,Gs0
 .byte   W18
 .byte   Gs1
 .byte   W18
 .byte   Gs0
 .byte   W24
 .byte   N06
 .byte   W12
 .byte   N12 ,Gs1
 .byte   W12
 .byte   PEND 
@  #04 @014   ----------------------------------------
 .byte   N09 ,Gs0
 .byte   W12
 .byte   N15
 .byte   W18
 .byte   Gs1
 .byte   W18
 .byte   Gs0
 .byte   W24
 .byte   N06
 .byte   W12
 .byte   Gs1
 .byte   W06
 .byte   Gs0
 .byte   W06
@  #04 @015   ----------------------------------------
 .byte   N09 ,Gs1
 .byte   W12
 .byte   N15 ,Dn1
 .byte   W18
 .byte   Dn2
 .byte   W18
 .byte   Dn1
 .byte   W24
 .byte   N06
 .byte   W12
 .byte   N12 ,Dn2
 .byte   W12
@  #04 @016   ----------------------------------------
 .byte   PATT
  .word Label_01053C70
@  #04 @017   ----------------------------------------
 .byte   N09 ,Gn1 ,v127
 .byte   W12
 .byte   N15 ,Fn1
 .byte   W18
 .byte   Cn2
 .byte   W18
 .byte   Fn1
 .byte   W24
 .byte   N06
 .byte   W12
 .byte   N12 ,Cn2
 .byte   W12
@  #04 @018   ----------------------------------------
 .byte   PATT
  .word Label_01053BFF
@  #04 @019   ----------------------------------------
 .byte   PATT
  .word Label_01053C10
@  #04 @020   ----------------------------------------
 .byte   PATT
  .word Label_01053C21
@  #04 @021   ----------------------------------------
 .byte   PATT
  .word Label_01053C32
@  #04 @022   ----------------------------------------
 .byte   PATT
  .word Label_01053BFF
@  #04 @023   ----------------------------------------
 .byte   PATT
  .word Label_01053C48
@  #04 @024   ----------------------------------------
 .byte   PATT
  .word Label_01053C21
@  #04 @025   ----------------------------------------
 .byte   PATT
  .word Label_01053C5F
@  #04 @026   ----------------------------------------
 .byte   PATT
  .word Label_01053C70
@  #04 @027   ----------------------------------------
 .byte   PATT
  .word Label_01053C82
@  #04 @028   ----------------------------------------
 .byte   PATT
  .word Label_01053C96
@  #04 @029   ----------------------------------------
 .byte   PATT
  .word Label_01053CAA
@  #04 @030   ----------------------------------------
 .byte   N09 ,Gs0 ,v127
 .byte   W12
 .byte   N15 ,Dn1
 .byte   W18
 .byte   N04 ,Dn2
 .byte   W06
 .byte   Dn1
 .byte   W06
 .byte   Dn2
 .byte   W06
 .byte   N09 ,Dn1
 .byte   W12
 .byte   N15 ,Gn0
 .byte   W18
 .byte   N04 ,Gn1
 .byte   W06
 .byte   Gn0
 .byte   W06
 .byte   Gn1
 .byte   W06
@  #04 @031   ----------------------------------------
 .byte   N09 ,Gn0
 .byte   W12
 .byte   N15 ,Gs0
 .byte   W18
 .byte   Gs1
 .byte   W18
 .byte   Gs0
 .byte   W24
 .byte   N06 ,As0
 .byte   W12
 .byte   N12 ,As1
 .byte   W12
@  #04 @032   ----------------------------------------
 .byte   N09 ,As0
 .byte   W12
 .byte   N15 ,Cn1
 .byte   W18
 .byte   Cn2
 .byte   W18
 .byte   Cn1
 .byte   W24
 .byte   N06
 .byte   W12
 .byte   N04 ,Cn2
 .byte   W06
 .byte   Gn1
 .byte   W06
@  #04 @033   ----------------------------------------
 .byte   Cn1
 .byte   W06
 .byte   Cn2
 .byte   W06
 .byte   N15 ,Fn1
 .byte   W18
 .byte   Cn2
 .byte   W18
 .byte   Fn1
 .byte   W24
 .byte   N06
 .byte   W12
 .byte   N12 ,Cn2
 .byte   W12
@  #04 @034   ----------------------------------------
 .byte   N09 ,Fn1
 .byte   W12
 .byte   N15 ,As1
 .byte   W18
 .byte   As2
 .byte   W18
 .byte   As1
 .byte   W24
 .byte   N06
 .byte   W12
 .byte   As2
 .byte   W06
 .byte   Fn2
 .byte   W06
@  #04 @035   ----------------------------------------
 .byte   N09 ,As1
 .byte   W12
 .byte   N15 ,En1
 .byte   W18
 .byte   Bn1
 .byte   W18
 .byte   En1
 .byte   W24
 .byte   N06
 .byte   W12
 .byte   N12 ,Bn1
 .byte   W12
@  #04 @036   ----------------------------------------
 .byte   N09 ,En1
 .byte   W12
 .byte   N15 ,An1
 .byte   W18
 .byte   An2
 .byte   W18
 .byte   An1
 .byte   W24
 .byte   N06
 .byte   W12
 .byte   Gn2
 .byte   W06
 .byte   Dn2
 .byte   W06
@  #04 @037   ----------------------------------------
 .byte   N09 ,Gn1
 .byte   W12
 .byte   N15 ,Fn1
 .byte   W18
 .byte   Fn2
 .byte   W18
 .byte   Fn1
 .byte   W24
 .byte   N06
 .byte   W12
 .byte   N12 ,Fn2
 .byte   W12
@  #04 @038   ----------------------------------------
 .byte   N09 ,Fn1
 .byte   W12
 .byte   N15
 .byte   W18
 .byte   Fn2
 .byte   W18
 .byte   N12 ,Fn1
 .byte   W12
 .byte   N12
 .byte   W12
 .byte   N06
 .byte   W12
 .byte   N04 ,Fn2
 .byte   W06
 .byte   Cn2
 .byte   W06
@  #04 @039   ----------------------------------------
 .byte   Fn1
 .byte   W06
 .byte   Fn2
 .byte   W06
 .byte   N15 ,En1
 .byte   W18
 .byte   En2
 .byte   W18
 .byte   En1
 .byte   W24
 .byte   N06
 .byte   W12
 .byte   N12 ,En2
 .byte   W12
@  #04 @040   ----------------------------------------
 .byte   N09 ,En1
 .byte   W12
 .byte   N15 ,An1
 .byte   W18
 .byte   An2
 .byte   W18
 .byte   An1
 .byte   W24
 .byte   N06
 .byte   W12
 .byte   N12 ,An2
 .byte   W12
@  #04 @041   ----------------------------------------
 .byte   N09 ,An1
 .byte   W12
 .byte   N15 ,Fn1
 .byte   W18
 .byte   Cn2
 .byte   W18
 .byte   Fn1
 .byte   W24
 .byte   N06
 .byte   W12
 .byte   N12 ,Cn2
 .byte   W12
@  #04 @042   ----------------------------------------
 .byte   N06 ,Fn1
 .byte   W12
 .byte   N15
 .byte   W18
 .byte   Cn2
 .byte   W18
 .byte   Fn1
 .byte   W24
 .byte   N06
 .byte   W12
 .byte   N12 ,Cn2
 .byte   W12
@  #04 @043   ----------------------------------------
 .byte   N06 ,Fn1
 .byte   W12
 .byte   N15 ,En1
 .byte   W18
 .byte   Bn1
 .byte   W18
 .byte   En1
 .byte   W24
 .byte   N06
 .byte   W12
 .byte   N12 ,En2
 .byte   W12
@  #04 @044   ----------------------------------------
 .byte   N06 ,En1
 .byte   W12
 .byte   N15 ,An1
 .byte   W18
 .byte   An2
 .byte   W18
 .byte   An1
 .byte   W24
 .byte   N06
 .byte   W12
 .byte   Gn2
 .byte   W06
 .byte   Dn2
 .byte   W06
@  #04 @045   ----------------------------------------
 .byte   N09 ,Gn1
 .byte   W12
 .byte   N15 ,Dn1
 .byte   W18
 .byte   Dn2
 .byte   W18
 .byte   Dn1
 .byte   W24
 .byte   N06
 .byte   W12
 .byte   N12 ,Dn2
 .byte   W12
@  #04 @046   ----------------------------------------
 .byte   N06 ,Dn1
 .byte   W12
 .byte   N15 ,En1
 .byte   W18
 .byte   En2
 .byte   W18
 .byte   En1
 .byte   W24
 .byte   N06
 .byte   W12
 .byte   N12 ,En2
 .byte   W12
@  #04 @047   ----------------------------------------
 .byte   N06 ,En1
 .byte   W12
 .byte   N15 ,Fn1
 .byte   W18
 .byte   Fn2
 .byte   W18
 .byte   Fn1
 .byte   W24
 .byte   N06
 .byte   W12
 .byte   N12 ,Fn2
 .byte   W12
@  #04 @048   ----------------------------------------
 .byte   N06 ,Fn1
 .byte   W12
 .byte   N15 ,Dn1
 .byte   W18
 .byte   Dn2
 .byte   W18
 .byte   Dn1
 .byte   W24
 .byte   N06 ,Gn1
 .byte   W12
 .byte   N12 ,Gn2
 .byte   W12
@  #04 @049   ----------------------------------------
 .byte   N06 ,Gn1
 .byte   W12
 .byte   N15 ,Gs0
 .byte   W18
 .byte   Gs1
 .byte   W18
 .byte   Gs0
 .byte   W24
 .byte   N06
 .byte   W12
 .byte   N12 ,Gs1
 .byte   W12
@  #04 @050   ----------------------------------------
 .byte   N06 ,Gs0
 .byte   W12
 .byte   N15 ,As0
 .byte   W18
 .byte   As1
 .byte   W18
 .byte   As0
 .byte   W24
 .byte   N06
 .byte   W12
 .byte   N12 ,As1
 .byte   W12
@  #04 @051   ----------------------------------------
 .byte   N06 ,As0
 .byte   W12
 .byte   N15 ,Cn1
 .byte   W18
 .byte   Cn2
 .byte   W18
 .byte   Cn1
 .byte   W24
 .byte   N06
 .byte   W12
 .byte   N12 ,Cn2
 .byte   W12
@  #04 @052   ----------------------------------------
 .byte   N06 ,Cn1
 .byte   W12
 .byte   N15
 .byte   W18
 .byte   Cn2
 .byte   W18
 .byte   Cn1
 .byte   W24
 .byte   N06
 .byte   W12
 .byte   N12 ,Cn2
 .byte   W12
@  #04 @053   ----------------------------------------
 .byte   GOTO
  .word Label_01053BF1
 .byte   FINE

@**************** Track 5 (Midi-Chn.4) ****************@

song29_005:
@  #05 @000   ----------------------------------------
 .byte   KEYSH , song29_key+0
 .byte   VOICE , 4
 .byte   VOL , 30*song29_mvl/mxv
 .byte   PAN , c_v+51
 .byte   W96
@  #05 @001   ----------------------------------------
Label_010513F9:
 .byte   N06 ,En4 ,v127
 .byte   W06
 .byte   Cn4
 .byte   W06
 .byte   Fn3
 .byte   W06
 .byte   En4
 .byte   W06
 .byte   Cn4
 .byte   W06
 .byte   Fn3
 .byte   W06
 .byte   En4
 .byte   W06
 .byte   Cn4
 .byte   W06
 .byte   En4
 .byte   W06
 .byte   Cn4
 .byte   W06
 .byte   Fn3
 .byte   W06
 .byte   En4
 .byte   W06
 .byte   Cn4
 .byte   W06
 .byte   Fn3
 .byte   W06
 .byte   En4
 .byte   W06
 .byte   Cn4
 .byte   W06
 .byte   PEND 
@  #05 @002   ----------------------------------------
 .byte   PATT
  .word Label_010513F9
@  #05 @003   ----------------------------------------
Label_01051421:
 .byte   N06 ,Dn4 ,v127
 .byte   W06
 .byte   Bn3
 .byte   W06
 .byte   En3
 .byte   W06
 .byte   Dn4
 .byte   W06
 .byte   Bn3
 .byte   W06
 .byte   En3
 .byte   W06
 .byte   Dn4
 .byte   W06
 .byte   Bn3
 .byte   W06
 .byte   Dn4
 .byte   W06
 .byte   Bn3
 .byte   W06
 .byte   En3
 .byte   W06
 .byte   Dn4
 .byte   W06
 .byte   Bn3
 .byte   W06
 .byte   En3
 .byte   W06
 .byte   Dn4
 .byte   W06
 .byte   Bn3
 .byte   W06
 .byte   PEND 
@  #05 @004   ----------------------------------------
 .byte   PATT
  .word Label_01051421
@  #05 @005   ----------------------------------------
 .byte   PATT
  .word Label_010513F9
@  #05 @006   ----------------------------------------
 .byte   PATT
  .word Label_010513F9
@  #05 @007   ----------------------------------------
 .byte   PATT
  .word Label_01051421
@  #05 @008   ----------------------------------------
 .byte   PATT
  .word Label_01051421
@  #05 @009   ----------------------------------------
Label_0105145D:
 .byte   N06 ,Fn4 ,v127
 .byte   W06
 .byte   Cn4
 .byte   W06
 .byte   Fn3
 .byte   W06
 .byte   Fn4
 .byte   W06
 .byte   Cn4
 .byte   W06
 .byte   Fn3
 .byte   W06
 .byte   Fn4
 .byte   W06
 .byte   Cn4
 .byte   W06
 .byte   Fn4
 .byte   W06
 .byte   Cn4
 .byte   W06
 .byte   Fn3
 .byte   W06
 .byte   Fn4
 .byte   W06
 .byte   Cn4
 .byte   W06
 .byte   Fn3
 .byte   W06
 .byte   Fn4
 .byte   W06
 .byte   Cn4
 .byte   W06
 .byte   PEND 
@  #05 @010   ----------------------------------------
Label_01051480:
 .byte   N06 ,Fn4 ,v127
 .byte   W06
 .byte   Dn4
 .byte   W06
 .byte   Fn3
 .byte   W06
 .byte   Fn4
 .byte   W06
 .byte   Dn4
 .byte   W06
 .byte   Fn3
 .byte   W06
 .byte   Fn4
 .byte   W06
 .byte   Dn4
 .byte   W06
 .byte   Fn4
 .byte   W06
 .byte   Dn4
 .byte   W06
 .byte   Fn3
 .byte   W06
 .byte   Fn4
 .byte   W06
 .byte   Dn4
 .byte   W06
 .byte   Fn3
 .byte   W06
 .byte   Fn4
 .byte   W06
 .byte   Dn4
 .byte   W06
 .byte   PEND 
@  #05 @011   ----------------------------------------
Label_010514A3:
 .byte   N06 ,En4 ,v127
 .byte   W06
 .byte   Bn3
 .byte   W06
 .byte   En3
 .byte   W06
 .byte   En4
 .byte   W06
 .byte   Bn3
 .byte   W06
 .byte   En3
 .byte   W06
 .byte   En4
 .byte   W06
 .byte   Bn3
 .byte   W06
 .byte   En4
 .byte   W06
 .byte   Bn3
 .byte   W06
 .byte   En3
 .byte   W06
 .byte   En4
 .byte   W06
 .byte   Bn3
 .byte   W06
 .byte   En3
 .byte   W06
 .byte   En4
 .byte   W06
 .byte   Bn3
 .byte   W06
 .byte   PEND 
@  #05 @012   ----------------------------------------
 .byte   PATT
  .word Label_01051421
@  #05 @013   ----------------------------------------
Label_010514CB:
 .byte   N06 ,Ds4 ,v127
 .byte   W06
 .byte   Cn4
 .byte   W06
 .byte   Ds3
 .byte   W06
 .byte   Ds4
 .byte   W06
 .byte   Cn4
 .byte   W06
 .byte   Ds3
 .byte   W06
 .byte   Ds4
 .byte   W06
 .byte   Cn4
 .byte   W06
 .byte   Ds4
 .byte   W06
 .byte   Cn4
 .byte   W06
 .byte   Ds3
 .byte   W06
 .byte   Ds4
 .byte   W06
 .byte   Cn4
 .byte   W06
 .byte   Ds3
 .byte   W06
 .byte   Ds4
 .byte   W06
 .byte   Cn4
 .byte   W06
 .byte   PEND 
@  #05 @014   ----------------------------------------
 .byte   PATT
  .word Label_010514CB
@  #05 @015   ----------------------------------------
 .byte   PATT
  .word Label_01051480
@  #05 @016   ----------------------------------------
 .byte   N06 ,Fn4 ,v127
 .byte   W06
 .byte   Dn4
 .byte   W06
 .byte   Fn3
 .byte   W06
 .byte   Fn4
 .byte   W06
 .byte   Dn4
 .byte   W06
 .byte   Fn3
 .byte   W06
 .byte   Fn4
 .byte   W06
 .byte   Dn4
 .byte   W06
 .byte   Fn4
 .byte   W06
 .byte   Dn4
 .byte   W06
 .byte   Gs3
 .byte   W06
 .byte   Fn4
 .byte   W06
 .byte   Dn4
 .byte   W06
 .byte   Gs3
 .byte   W06
 .byte   Fn4
 .byte   W06
 .byte   Dn4
 .byte   W06
@  #05 @017   ----------------------------------------
 .byte   PATT
  .word Label_010513F9
@  #05 @018   ----------------------------------------
 .byte   PATT
  .word Label_010513F9
@  #05 @019   ----------------------------------------
 .byte   PATT
  .word Label_01051421
@  #05 @020   ----------------------------------------
 .byte   PATT
  .word Label_01051421
@  #05 @021   ----------------------------------------
 .byte   PATT
  .word Label_010513F9
@  #05 @022   ----------------------------------------
 .byte   PATT
  .word Label_010513F9
@  #05 @023   ----------------------------------------
 .byte   PATT
  .word Label_01051421
@  #05 @024   ----------------------------------------
 .byte   PATT
  .word Label_01051421
@  #05 @025   ----------------------------------------
 .byte   PATT
  .word Label_0105145D
@  #05 @026   ----------------------------------------
 .byte   PATT
  .word Label_01051480
@  #05 @027   ----------------------------------------
 .byte   PATT
  .word Label_010514A3
@  #05 @028   ----------------------------------------
 .byte   PATT
  .word Label_01051421
@  #05 @029   ----------------------------------------
 .byte   PATT
  .word Label_010514CB
@  #05 @030   ----------------------------------------
 .byte   PATT
  .word Label_01051480
@  #05 @031   ----------------------------------------
 .byte   PATT
  .word Label_010514CB
@  #05 @032   ----------------------------------------
 .byte   N06 ,Dn4 ,v127
 .byte   W06
 .byte   Bn3
 .byte   W06
 .byte   En3
 .byte   W06
 .byte   Dn4
 .byte   W06
 .byte   Bn3
 .byte   W06
 .byte   En3
 .byte   W06
 .byte   Dn4
 .byte   W06
 .byte   Bn3
 .byte   W06
 .byte   Dn4
 .byte   W06
 .byte   Bn3
 .byte   W06
 .byte   En3
 .byte   W06
 .byte   Dn4
 .byte   W06
 .byte   Bn3
 .byte   W06
 .byte   En3
 .byte   W06
 .byte   Dn4
 .byte   W06
 .byte   N05 ,Bn3
 .byte   W05
 .byte   VOICE , 11
 .byte   W01
@  #05 @033   ----------------------------------------
 .byte   N06 ,Gn3
 .byte   W06
 .byte   Ds3
 .byte   W06
 .byte   Gs2
 .byte   W06
 .byte   Gn3
 .byte   W06
 .byte   Ds3
 .byte   W06
 .byte   Gs2
 .byte   W06
 .byte   Gn3
 .byte   W06
 .byte   Ds3
 .byte   W06
 .byte   Gn3
 .byte   W06
 .byte   Ds3
 .byte   W06
 .byte   Gs2
 .byte   W06
 .byte   Gn3
 .byte   W06
 .byte   Ds3
 .byte   W06
 .byte   Gs2
 .byte   W06
 .byte   Gn3
 .byte   W06
 .byte   Ds3
 .byte   W06
@  #05 @034   ----------------------------------------
 .byte   Fn3
 .byte   W06
 .byte   Dn3
 .byte   W06
 .byte   Fn2
 .byte   W06
 .byte   Fn3
 .byte   W06
 .byte   Dn3
 .byte   W06
 .byte   Fn2
 .byte   W06
 .byte   Fn3
 .byte   W06
 .byte   Dn3
 .byte   W06
 .byte   Fn3
 .byte   W06
 .byte   Dn3
 .byte   W06
 .byte   Fn2
 .byte   W06
 .byte   Fn3
 .byte   W06
 .byte   Dn3
 .byte   W06
 .byte   Fn2
 .byte   W06
 .byte   Fn3
 .byte   W06
 .byte   Dn3
 .byte   W06
@  #05 @035   ----------------------------------------
 .byte   Gn3
 .byte   W06
 .byte   Dn3
 .byte   W06
 .byte   Gn2
 .byte   W06
 .byte   Gn3
 .byte   W06
 .byte   Dn3
 .byte   W06
 .byte   Gn2
 .byte   W06
 .byte   Gn3
 .byte   W06
 .byte   Dn3
 .byte   W06
 .byte   Gn3
 .byte   W06
 .byte   Dn3
 .byte   W06
 .byte   Gn2
 .byte   W06
 .byte   Gn3
 .byte   W06
 .byte   Dn3
 .byte   W06
 .byte   Gn2
 .byte   W06
 .byte   Gn3
 .byte   W06
 .byte   Dn3
 .byte   W06
@  #05 @036   ----------------------------------------
 .byte   Gn3
 .byte   W06
 .byte   En3
 .byte   W06
 .byte   An2
 .byte   W06
 .byte   Gn3
 .byte   W06
 .byte   En3
 .byte   W06
 .byte   An2
 .byte   W06
 .byte   Gn3
 .byte   W06
 .byte   En3
 .byte   W06
 .byte   Gn3
 .byte   W06
 .byte   En3
 .byte   W06
 .byte   An2
 .byte   W06
 .byte   Gn3
 .byte   W06
 .byte   En3
 .byte   W06
 .byte   An2
 .byte   W06
 .byte   Gn3
 .byte   W06
 .byte   En3
 .byte   W06
@  #05 @037   ----------------------------------------
Label_0105160C:
 .byte   N06 ,An3 ,v127
 .byte   W06
 .byte   Fn3
 .byte   W06
 .byte   Fn2
 .byte   W06
 .byte   An3
 .byte   W06
 .byte   Fn3
 .byte   W06
 .byte   Fn2
 .byte   W06
 .byte   An3
 .byte   W06
 .byte   Fn3
 .byte   W06
 .byte   An3
 .byte   W06
 .byte   Fn3
 .byte   W06
 .byte   Fn2
 .byte   W06
 .byte   An3
 .byte   W06
 .byte   Fn3
 .byte   W06
 .byte   Fn2
 .byte   W06
 .byte   An3
 .byte   W06
 .byte   Fn3
 .byte   W06
 .byte   PEND 
@  #05 @038   ----------------------------------------
 .byte   PATT
  .word Label_0105160C
@  #05 @039   ----------------------------------------
 .byte   N06 ,Bn3 ,v127
 .byte   W06
 .byte   Gn3
 .byte   W06
 .byte   Gn2
 .byte   W06
 .byte   Bn3
 .byte   W06
 .byte   Gn3
 .byte   W06
 .byte   Gn2
 .byte   W06
 .byte   Bn3
 .byte   W06
 .byte   Gn3
 .byte   W06
 .byte   Bn3
 .byte   W06
 .byte   Gn3
 .byte   W06
 .byte   Gn2
 .byte   W06
 .byte   Bn3
 .byte   W06
 .byte   Gn3
 .byte   W06
 .byte   Gn2
 .byte   W06
 .byte   Bn3
 .byte   W06
 .byte   Gn3
 .byte   W06
@  #05 @040   ----------------------------------------
 .byte   Cs4
 .byte   W06
 .byte   An3
 .byte   W06
 .byte   An2
 .byte   W06
 .byte   Cs4
 .byte   W06
 .byte   An3
 .byte   W06
 .byte   An2
 .byte   W06
 .byte   Cs4
 .byte   W06
 .byte   An3
 .byte   W06
 .byte   En4
 .byte   W06
 .byte   Cs4
 .byte   W06
 .byte   An2
 .byte   W06
 .byte   En4
 .byte   W06
 .byte   Cs4
 .byte   W06
 .byte   An2
 .byte   W06
 .byte   En4
 .byte   W06
 .byte   Cs4
 .byte   W05
 .byte   VOICE , 4
 .byte   W01
@  #05 @041   ----------------------------------------
Label_01051679:
 .byte   N05 ,An3 ,v127
 .byte   W06
 .byte   Fn3
 .byte   W06
 .byte   Fn2
 .byte   W06
 .byte   An3
 .byte   W06
 .byte   Fn3
 .byte   W06
 .byte   Fn2
 .byte   W06
 .byte   An3
 .byte   W06
 .byte   Fn3
 .byte   W06
 .byte   An3
 .byte   W06
 .byte   Fn3
 .byte   W06
 .byte   Fn2
 .byte   W06
 .byte   An3
 .byte   W06
 .byte   Fn3
 .byte   W06
 .byte   Fn2
 .byte   W06
 .byte   An3
 .byte   W06
 .byte   Fn3
 .byte   W06
 .byte   PEND 
@  #05 @042   ----------------------------------------
 .byte   PATT
  .word Label_01051679
@  #05 @043   ----------------------------------------
 .byte   N05 ,Gn3 ,v127
 .byte   W06
 .byte   En3
 .byte   W06
 .byte   En2
 .byte   W06
 .byte   Gn3
 .byte   W06
 .byte   En3
 .byte   W06
 .byte   En2
 .byte   W06
 .byte   Gn3
 .byte   W06
 .byte   En3
 .byte   W06
 .byte   Gn3
 .byte   W06
 .byte   En3
 .byte   W06
 .byte   En2
 .byte   W06
 .byte   Gn3
 .byte   W06
 .byte   En3
 .byte   W06
 .byte   En2
 .byte   W06
 .byte   Gn3
 .byte   W06
 .byte   En3
 .byte   W06
@  #05 @044   ----------------------------------------
 .byte   Gn3
 .byte   W06
 .byte   En3
 .byte   W06
 .byte   An2
 .byte   W06
 .byte   Gn3
 .byte   W06
 .byte   En3
 .byte   W06
 .byte   An2
 .byte   W06
 .byte   Gn3
 .byte   W06
 .byte   En3
 .byte   W06
 .byte   Gn3
 .byte   W06
 .byte   En3
 .byte   W06
 .byte   An2
 .byte   W06
 .byte   Gn3
 .byte   W06
 .byte   En3
 .byte   W06
 .byte   An2
 .byte   W06
 .byte   Gn3
 .byte   W06
 .byte   En3
 .byte   W06
@  #05 @045   ----------------------------------------
 .byte   An3
 .byte   W06
 .byte   Fn3
 .byte   W06
 .byte   An2
 .byte   W06
 .byte   An3
 .byte   W06
 .byte   Fn3
 .byte   W06
 .byte   An2
 .byte   W06
 .byte   An3
 .byte   W06
 .byte   Fn3
 .byte   W06
 .byte   An3
 .byte   W06
 .byte   Fn3
 .byte   W06
 .byte   An2
 .byte   W06
 .byte   An3
 .byte   W06
 .byte   Fn3
 .byte   W06
 .byte   An2
 .byte   W06
 .byte   An3
 .byte   W06
 .byte   Fn3
 .byte   W06
@  #05 @046   ----------------------------------------
Label_01051703:
 .byte   N05 ,Bn3 ,v127
 .byte   W06
 .byte   Gn3
 .byte   W06
 .byte   Gn2
 .byte   W06
 .byte   Bn3
 .byte   W06
 .byte   Gn3
 .byte   W06
 .byte   Gn2
 .byte   W06
 .byte   Bn3
 .byte   W06
 .byte   Gn3
 .byte   W06
 .byte   Bn3
 .byte   W06
 .byte   Gn3
 .byte   W06
 .byte   Gn2
 .byte   W06
 .byte   Bn3
 .byte   W06
 .byte   Gn3
 .byte   W06
 .byte   Gn2
 .byte   W06
 .byte   Bn3
 .byte   W06
 .byte   Gn3
 .byte   W06
 .byte   PEND 
@  #05 @047   ----------------------------------------
 .byte   Cn4
 .byte   W06
 .byte   An3
 .byte   W06
 .byte   An2
 .byte   W06
 .byte   Cn4
 .byte   W06
 .byte   An3
 .byte   W06
 .byte   An2
 .byte   W06
 .byte   Cn4
 .byte   W06
 .byte   An3
 .byte   W06
 .byte   Cn4
 .byte   W06
 .byte   An3
 .byte   W06
 .byte   An2
 .byte   W06
 .byte   Cn4
 .byte   W06
 .byte   An3
 .byte   W06
 .byte   An2
 .byte   W06
 .byte   Cn4
 .byte   W06
 .byte   An3
 .byte   W06
@  #05 @048   ----------------------------------------
 .byte   Cn4
 .byte   W06
 .byte   An3
 .byte   W06
 .byte   An2
 .byte   W06
 .byte   Cn4
 .byte   W06
 .byte   An3
 .byte   W06
 .byte   An2
 .byte   W06
 .byte   Cn4
 .byte   W06
 .byte   An3
 .byte   W06
 .byte   Cn4
 .byte   W06
 .byte   An3
 .byte   W06
 .byte   Gn2
 .byte   W06
 .byte   Cn4
 .byte   W06
 .byte   An3
 .byte   W06
 .byte   Gn2
 .byte   W06
 .byte   Cn4
 .byte   W06
 .byte   An3
 .byte   W06
@  #05 @049   ----------------------------------------
 .byte   Cn4
 .byte   W06
 .byte   Gn3
 .byte   W06
 .byte   Gs2
 .byte   W06
 .byte   Cn4
 .byte   W06
 .byte   Gn3
 .byte   W06
 .byte   Gs2
 .byte   W06
 .byte   Cn4
 .byte   W06
 .byte   Gn3
 .byte   W06
 .byte   Cn4
 .byte   W06
 .byte   Gn3
 .byte   W06
 .byte   Gs2
 .byte   W06
 .byte   Cn4
 .byte   W06
 .byte   Gn3
 .byte   W06
 .byte   Gs2
 .byte   W06
 .byte   Cn4
 .byte   W06
 .byte   Gn3
 .byte   W06
@  #05 @050   ----------------------------------------
 .byte   Cn4
 .byte   W06
 .byte   Gn3
 .byte   W06
 .byte   As2
 .byte   W06
 .byte   Cn4
 .byte   W06
 .byte   Gn3
 .byte   W06
 .byte   As2
 .byte   W06
 .byte   Cn4
 .byte   W06
 .byte   Gn3
 .byte   W06
 .byte   Cn4
 .byte   W06
 .byte   Gn3
 .byte   W06
 .byte   As2
 .byte   W06
 .byte   Cn4
 .byte   W06
 .byte   Gn3
 .byte   W06
 .byte   As2
 .byte   W06
 .byte   Cn4
 .byte   W06
 .byte   Gn3
 .byte   W06
@  #05 @051   ----------------------------------------
 .byte   PATT
  .word Label_01051703
@  #05 @052   ----------------------------------------
 .byte   N05 ,Bn3 ,v127
 .byte   W06
 .byte   Gn3
 .byte   W06
 .byte   Gn2
 .byte   W06
 .byte   Bn3
 .byte   W06
 .byte   Gn3
 .byte   W06
 .byte   Gn2
 .byte   W06
 .byte   Bn3
 .byte   W06
 .byte   Gn3
 .byte   W06
 .byte   Bn3
 .byte   W06
 .byte   Gn3
 .byte   W06
 .byte   Gn2
 .byte   W06
 .byte   Bn3
 .byte   W06
 .byte   Gn3
 .byte   W06
 .byte   Gn2
 .byte   W06
 .byte   Bn3
 .byte   W12
@  #05 @053   ----------------------------------------
 .byte   GOTO
  .word Label_010513F9
 .byte   FINE

@**************** Track 6 (Midi-Chn.5) ****************@

song29_006:
@  #06 @000   ----------------------------------------
 .byte   KEYSH , song29_key+0
 .byte   VOICE , 4
 .byte   VOL , 12*song29_mvl/mxv
 .byte   PAN , c_v-39
 .byte   W96
@  #06 @001   ----------------------------------------
Label_01051801:
 .byte   W12
 .byte   N06 ,En4 ,v127
 .byte   W06
 .byte   Cn4
 .byte   W06
 .byte   Fn3
 .byte   W06
 .byte   En4
 .byte   W06
 .byte   Cn4
 .byte   W06
 .byte   Fn3
 .byte   W06
 .byte   En4
 .byte   W06
 .byte   Cn4
 .byte   W06
 .byte   En4
 .byte   W06
 .byte   Cn4
 .byte   W06
 .byte   Fn3
 .byte   W06
 .byte   En4
 .byte   W06
 .byte   Cn4
 .byte   W06
 .byte   Fn3
 .byte   W06
@  #06 @002   ----------------------------------------
Label_01051820:
 .byte   N06 ,En4 ,v127
 .byte   W06
 .byte   Cn4
 .byte   W06
 .byte   En4
 .byte   W06
 .byte   Cn4
 .byte   W06
 .byte   Fn3
 .byte   W06
 .byte   En4
 .byte   W06
 .byte   Cn4
 .byte   W06
 .byte   Fn3
 .byte   W06
 .byte   En4
 .byte   W06
 .byte   Cn4
 .byte   W06
 .byte   En4
 .byte   W06
 .byte   Cn4
 .byte   W06
 .byte   Fn3
 .byte   W06
 .byte   En4
 .byte   W06
 .byte   Cn4
 .byte   W06
 .byte   Fn3
 .byte   W06
 .byte   PEND 
@  #06 @003   ----------------------------------------
Label_01051843:
 .byte   N06 ,En4 ,v127
 .byte   W06
 .byte   Cn4
 .byte   W06
 .byte   Dn4
 .byte   W06
 .byte   Bn3
 .byte   W06
 .byte   En3
 .byte   W06
 .byte   Dn4
 .byte   W06
 .byte   Bn3
 .byte   W06
 .byte   En3
 .byte   W06
 .byte   Dn4
 .byte   W06
 .byte   Bn3
 .byte   W06
 .byte   Dn4
 .byte   W06
 .byte   Bn3
 .byte   W06
 .byte   En3
 .byte   W06
 .byte   Dn4
 .byte   W06
 .byte   Bn3
 .byte   W06
 .byte   En3
 .byte   W06
 .byte   PEND 
@  #06 @004   ----------------------------------------
Label_01051866:
 .byte   N06 ,Dn4 ,v127
 .byte   W06
 .byte   Bn3
 .byte   W06
 .byte   Dn4
 .byte   W06
 .byte   Bn3
 .byte   W06
 .byte   En3
 .byte   W06
 .byte   Dn4
 .byte   W06
 .byte   Bn3
 .byte   W06
 .byte   En3
 .byte   W06
 .byte   Dn4
 .byte   W06
 .byte   Bn3
 .byte   W06
 .byte   Dn4
 .byte   W06
 .byte   Bn3
 .byte   W06
 .byte   En3
 .byte   W06
 .byte   Dn4
 .byte   W06
 .byte   Bn3
 .byte   W06
 .byte   En3
 .byte   W06
 .byte   PEND 
@  #06 @005   ----------------------------------------
Label_01051889:
 .byte   N06 ,Dn4 ,v127
 .byte   W06
 .byte   Bn3
 .byte   W06
 .byte   En4
 .byte   W06
 .byte   Cn4
 .byte   W06
 .byte   Fn3
 .byte   W06
 .byte   En4
 .byte   W06
 .byte   Cn4
 .byte   W06
 .byte   Fn3
 .byte   W06
 .byte   En4
 .byte   W06
 .byte   Cn4
 .byte   W06
 .byte   En4
 .byte   W06
 .byte   Cn4
 .byte   W06
 .byte   Fn3
 .byte   W06
 .byte   En4
 .byte   W06
 .byte   Cn4
 .byte   W06
 .byte   Fn3
 .byte   W06
 .byte   PEND 
@  #06 @006   ----------------------------------------
 .byte   PATT
  .word Label_01051820
@  #06 @007   ----------------------------------------
 .byte   PATT
  .word Label_01051843
@  #06 @008   ----------------------------------------
 .byte   PATT
  .word Label_01051866
@  #06 @009   ----------------------------------------
Label_010518BB:
 .byte   N06 ,Dn4 ,v127
 .byte   W06
 .byte   Bn3
 .byte   W06
 .byte   Fn4
 .byte   W06
 .byte   Cn4
 .byte   W06
 .byte   Fn3
 .byte   W06
 .byte   Fn4
 .byte   W06
 .byte   Cn4
 .byte   W06
 .byte   Fn3
 .byte   W06
 .byte   Fn4
 .byte   W06
 .byte   Cn4
 .byte   W06
 .byte   Fn4
 .byte   W06
 .byte   Cn4
 .byte   W06
 .byte   Fn3
 .byte   W06
 .byte   Fn4
 .byte   W06
 .byte   Cn4
 .byte   W06
 .byte   Fn3
 .byte   W06
 .byte   PEND 
@  #06 @010   ----------------------------------------
Label_010518DE:
 .byte   N06 ,Fn4 ,v127
 .byte   W06
 .byte   Cn4
 .byte   W06
 .byte   Fn4
 .byte   W06
 .byte   Dn4
 .byte   W06
 .byte   Fn3
 .byte   W06
 .byte   Fn4
 .byte   W06
 .byte   Dn4
 .byte   W06
 .byte   Fn3
 .byte   W06
 .byte   Fn4
 .byte   W06
 .byte   Dn4
 .byte   W06
 .byte   Fn4
 .byte   W06
 .byte   Dn4
 .byte   W06
 .byte   Fn3
 .byte   W06
 .byte   Fn4
 .byte   W06
 .byte   Dn4
 .byte   W06
 .byte   Fn3
 .byte   W06
 .byte   PEND 
@  #06 @011   ----------------------------------------
Label_01051901:
 .byte   N06 ,Fn4 ,v127
 .byte   W06
 .byte   Dn4
 .byte   W06
 .byte   En4
 .byte   W06
 .byte   Bn3
 .byte   W06
 .byte   En3
 .byte   W06
 .byte   En4
 .byte   W06
 .byte   Bn3
 .byte   W06
 .byte   En3
 .byte   W06
 .byte   En4
 .byte   W06
 .byte   Bn3
 .byte   W06
 .byte   En4
 .byte   W06
 .byte   Bn3
 .byte   W06
 .byte   En3
 .byte   W06
 .byte   En4
 .byte   W06
 .byte   Bn3
 .byte   W06
 .byte   En3
 .byte   W06
 .byte   PEND 
@  #06 @012   ----------------------------------------
Label_01051924:
 .byte   N06 ,En4 ,v127
 .byte   W06
 .byte   Bn3
 .byte   W06
 .byte   Dn4
 .byte   W06
 .byte   Bn3
 .byte   W06
 .byte   En3
 .byte   W06
 .byte   Dn4
 .byte   W06
 .byte   Bn3
 .byte   W06
 .byte   En3
 .byte   W06
 .byte   Dn4
 .byte   W06
 .byte   Bn3
 .byte   W06
 .byte   Dn4
 .byte   W06
 .byte   Bn3
 .byte   W06
 .byte   En3
 .byte   W06
 .byte   Dn4
 .byte   W06
 .byte   Bn3
 .byte   W06
 .byte   En3
 .byte   W06
 .byte   PEND 
@  #06 @013   ----------------------------------------
Label_01051947:
 .byte   N06 ,Dn4 ,v127
 .byte   W06
 .byte   Bn3
 .byte   W06
 .byte   Ds4
 .byte   W06
 .byte   Cn4
 .byte   W06
 .byte   Ds3
 .byte   W06
 .byte   Ds4
 .byte   W06
 .byte   Cn4
 .byte   W06
 .byte   Ds3
 .byte   W06
 .byte   Ds4
 .byte   W06
 .byte   Cn4
 .byte   W06
 .byte   Ds4
 .byte   W06
 .byte   Cn4
 .byte   W06
 .byte   Ds3
 .byte   W06
 .byte   Ds4
 .byte   W06
 .byte   Cn4
 .byte   W06
 .byte   Ds3
 .byte   W06
 .byte   PEND 
@  #06 @014   ----------------------------------------
 .byte   Ds4
 .byte   W06
 .byte   Cn4
 .byte   W06
 .byte   Ds4
 .byte   W06
 .byte   Cn4
 .byte   W06
 .byte   Ds3
 .byte   W06
 .byte   Ds4
 .byte   W06
 .byte   Cn4
 .byte   W06
 .byte   Ds3
 .byte   W06
 .byte   Ds4
 .byte   W06
 .byte   Cn4
 .byte   W06
 .byte   Ds4
 .byte   W06
 .byte   Cn4
 .byte   W06
 .byte   Ds3
 .byte   W06
 .byte   Ds4
 .byte   W06
 .byte   Cn4
 .byte   W06
 .byte   Ds3
 .byte   W06
@  #06 @015   ----------------------------------------
Label_0105198A:
 .byte   N06 ,Ds4 ,v127
 .byte   W06
 .byte   Cn4
 .byte   W06
 .byte   Fn4
 .byte   W06
 .byte   Dn4
 .byte   W06
 .byte   Fn3
 .byte   W06
 .byte   Fn4
 .byte   W06
 .byte   Dn4
 .byte   W06
 .byte   Fn3
 .byte   W06
 .byte   Fn4
 .byte   W06
 .byte   Dn4
 .byte   W06
 .byte   Fn4
 .byte   W06
 .byte   Dn4
 .byte   W06
 .byte   Fn3
 .byte   W06
 .byte   Fn4
 .byte   W06
 .byte   Dn4
 .byte   W06
 .byte   Fn3
 .byte   W06
 .byte   PEND 
@  #06 @016   ----------------------------------------
 .byte   Fn4
 .byte   W06
 .byte   Dn4
 .byte   W06
 .byte   Fn4
 .byte   W06
 .byte   Dn4
 .byte   W06
 .byte   Fn3
 .byte   W06
 .byte   Fn4
 .byte   W06
 .byte   Dn4
 .byte   W06
 .byte   Fn3
 .byte   W06
 .byte   Fn4
 .byte   W06
 .byte   Dn4
 .byte   W06
 .byte   Fn4
 .byte   W06
 .byte   Dn4
 .byte   W06
 .byte   Gs3
 .byte   W06
 .byte   Fn4
 .byte   W06
 .byte   Dn4
 .byte   W06
 .byte   Gs3
 .byte   W06
@  #06 @017   ----------------------------------------
 .byte   Fn4
 .byte   W06
 .byte   Dn4
 .byte   W06
 .byte   En4
 .byte   W06
 .byte   Cn4
 .byte   W06
 .byte   Fn3
 .byte   W06
 .byte   En4
 .byte   W06
 .byte   Cn4
 .byte   W06
 .byte   Fn3
 .byte   W06
 .byte   En4
 .byte   W06
 .byte   Cn4
 .byte   W06
 .byte   En4
 .byte   W06
 .byte   Cn4
 .byte   W06
 .byte   Fn3
 .byte   W06
 .byte   En4
 .byte   W06
 .byte   Cn4
 .byte   W06
 .byte   Fn3
 .byte   W06
@  #06 @018   ----------------------------------------
 .byte   PATT
  .word Label_01051820
@  #06 @019   ----------------------------------------
 .byte   PATT
  .word Label_01051843
@  #06 @020   ----------------------------------------
 .byte   PATT
  .word Label_01051866
@  #06 @021   ----------------------------------------
 .byte   PATT
  .word Label_01051889
@  #06 @022   ----------------------------------------
 .byte   PATT
  .word Label_01051820
@  #06 @023   ----------------------------------------
 .byte   PATT
  .word Label_01051843
@  #06 @024   ----------------------------------------
 .byte   PATT
  .word Label_01051866
@  #06 @025   ----------------------------------------
 .byte   PATT
  .word Label_010518BB
@  #06 @026   ----------------------------------------
 .byte   PATT
  .word Label_010518DE
@  #06 @027   ----------------------------------------
 .byte   PATT
  .word Label_01051901
@  #06 @028   ----------------------------------------
 .byte   PATT
  .word Label_01051924
@  #06 @029   ----------------------------------------
 .byte   PATT
  .word Label_01051947
@  #06 @030   ----------------------------------------
 .byte   PATT
  .word Label_0105198A
@  #06 @031   ----------------------------------------
 .byte   N06 ,Fn4 ,v127
 .byte   W06
 .byte   Dn4
 .byte   W06
 .byte   Ds4
 .byte   W06
 .byte   Cn4
 .byte   W06
 .byte   Ds3
 .byte   W06
 .byte   Ds4
 .byte   W06
 .byte   Cn4
 .byte   W06
 .byte   Ds3
 .byte   W06
 .byte   Ds4
 .byte   W06
 .byte   Cn4
 .byte   W06
 .byte   Ds4
 .byte   W06
 .byte   Cn4
 .byte   W06
 .byte   Ds3
 .byte   W06
 .byte   Ds4
 .byte   W06
 .byte   Cn4
 .byte   W06
 .byte   Ds3
 .byte   W06
@  #06 @032   ----------------------------------------
 .byte   Ds4
 .byte   W06
 .byte   Cn4
 .byte   W06
 .byte   Dn4
 .byte   W06
 .byte   Bn3
 .byte   W06
 .byte   En3
 .byte   W06
 .byte   Dn4
 .byte   W06
 .byte   Bn3
 .byte   W06
 .byte   En3
 .byte   W06
 .byte   Dn4
 .byte   W06
 .byte   Bn3
 .byte   W06
 .byte   Dn4
 .byte   W06
 .byte   Bn3
 .byte   W06
 .byte   En3
 .byte   W06
 .byte   Dn4
 .byte   W06
 .byte   Bn3
 .byte   W06
 .byte   En3
 .byte   W06
@  #06 @033   ----------------------------------------
 .byte   Dn4
 .byte   W06
 .byte   N05 ,Bn3
 .byte   W05
 .byte   VOICE , 11
 .byte   W01
 .byte   N06 ,Gn3
 .byte   W06
 .byte   Ds3
 .byte   W06
 .byte   Gs2
 .byte   W06
 .byte   Gn3
 .byte   W06
 .byte   Ds3
 .byte   W06
 .byte   Gs2
 .byte   W06
 .byte   Gn3
 .byte   W06
 .byte   Ds3
 .byte   W06
 .byte   Gn3
 .byte   W06
 .byte   Ds3
 .byte   W06
 .byte   Gs2
 .byte   W06
 .byte   Gn3
 .byte   W06
 .byte   Ds3
 .byte   W06
 .byte   Gs2
 .byte   W06
@  #06 @034   ----------------------------------------
 .byte   Gn3
 .byte   W06
 .byte   Ds3
 .byte   W06
 .byte   Fn3
 .byte   W06
 .byte   Dn3
 .byte   W06
 .byte   Fn2
 .byte   W06
 .byte   Fn3
 .byte   W06
 .byte   Dn3
 .byte   W06
 .byte   Fn2
 .byte   W06
 .byte   Fn3
 .byte   W06
 .byte   Dn3
 .byte   W06
 .byte   Fn3
 .byte   W06
 .byte   Dn3
 .byte   W06
 .byte   Fn2
 .byte   W06
 .byte   Fn3
 .byte   W06
 .byte   Dn3
 .byte   W06
 .byte   Fn2
 .byte   W06
@  #06 @035   ----------------------------------------
 .byte   Fn3
 .byte   W06
 .byte   Dn3
 .byte   W06
 .byte   Gn3
 .byte   W06
 .byte   Dn3
 .byte   W06
 .byte   Gn2
 .byte   W06
 .byte   Gn3
 .byte   W06
 .byte   Dn3
 .byte   W06
 .byte   Gn2
 .byte   W06
 .byte   Gn3
 .byte   W06
 .byte   Dn3
 .byte   W06
 .byte   Gn3
 .byte   W06
 .byte   Dn3
 .byte   W06
 .byte   Gn2
 .byte   W06
 .byte   Gn3
 .byte   W06
 .byte   Dn3
 .byte   W06
 .byte   Gn2
 .byte   W06
@  #06 @036   ----------------------------------------
 .byte   Gn3
 .byte   W06
 .byte   Dn3
 .byte   W06
 .byte   Gn3
 .byte   W06
 .byte   En3
 .byte   W06
 .byte   An2
 .byte   W06
 .byte   Gn3
 .byte   W06
 .byte   En3
 .byte   W06
 .byte   An2
 .byte   W06
 .byte   Gn3
 .byte   W06
 .byte   En3
 .byte   W06
 .byte   Gn3
 .byte   W06
 .byte   En3
 .byte   W06
 .byte   An2
 .byte   W06
 .byte   Gn3
 .byte   W06
 .byte   En3
 .byte   W06
 .byte   An2
 .byte   W06
@  #06 @037   ----------------------------------------
 .byte   Gn3
 .byte   W06
 .byte   En3
 .byte   W06
 .byte   An3
 .byte   W06
 .byte   Fn3
 .byte   W06
 .byte   Fn2
 .byte   W06
 .byte   An3
 .byte   W06
 .byte   Fn3
 .byte   W06
 .byte   Fn2
 .byte   W06
 .byte   An3
 .byte   W06
 .byte   Fn3
 .byte   W06
 .byte   An3
 .byte   W06
 .byte   Fn3
 .byte   W06
 .byte   Fn2
 .byte   W06
 .byte   An3
 .byte   W06
 .byte   Fn3
 .byte   W06
 .byte   Fn2
 .byte   W06
@  #06 @038   ----------------------------------------
 .byte   An3
 .byte   W06
 .byte   Fn3
 .byte   W06
 .byte   An3
 .byte   W06
 .byte   Fn3
 .byte   W06
 .byte   Fn2
 .byte   W06
 .byte   An3
 .byte   W06
 .byte   Fn3
 .byte   W06
 .byte   Fn2
 .byte   W06
 .byte   An3
 .byte   W06
 .byte   Fn3
 .byte   W06
 .byte   An3
 .byte   W06
 .byte   Fn3
 .byte   W06
 .byte   Fn2
 .byte   W06
 .byte   An3
 .byte   W06
 .byte   Fn3
 .byte   W06
 .byte   Fn2
 .byte   W06
@  #06 @039   ----------------------------------------
 .byte   An3
 .byte   W06
 .byte   Fn3
 .byte   W06
 .byte   Bn3
 .byte   W06
 .byte   Gn3
 .byte   W06
 .byte   Gn2
 .byte   W06
 .byte   Bn3
 .byte   W06
 .byte   Gn3
 .byte   W06
 .byte   Gn2
 .byte   W06
 .byte   Bn3
 .byte   W06
 .byte   Gn3
 .byte   W06
 .byte   Bn3
 .byte   W06
 .byte   Gn3
 .byte   W06
 .byte   Gn2
 .byte   W06
 .byte   Bn3
 .byte   W06
 .byte   Gn3
 .byte   W06
 .byte   Gn2
 .byte   W06
@  #06 @040   ----------------------------------------
 .byte   Bn3
 .byte   W06
 .byte   Gn3
 .byte   W06
 .byte   Cs4
 .byte   W06
 .byte   An3
 .byte   W06
 .byte   An2
 .byte   W06
 .byte   Cs4
 .byte   W06
 .byte   An3
 .byte   W06
 .byte   An2
 .byte   W06
 .byte   Cs4
 .byte   W06
 .byte   An3
 .byte   W06
 .byte   En4
 .byte   W06
 .byte   Cs4
 .byte   W06
 .byte   An2
 .byte   W06
 .byte   En4
 .byte   W06
 .byte   Cs4
 .byte   W06
 .byte   An2
 .byte   W06
@  #06 @041   ----------------------------------------
 .byte   En4
 .byte   W06
 .byte   Cs4
 .byte   W05
 .byte   VOICE , 4
 .byte   W01
 .byte   N05 ,An3
 .byte   W06
 .byte   Fn3
 .byte   W06
 .byte   Fn2
 .byte   W06
 .byte   An3
 .byte   W06
 .byte   Fn3
 .byte   W06
 .byte   Fn2
 .byte   W06
 .byte   An3
 .byte   W06
 .byte   Fn3
 .byte   W06
 .byte   An3
 .byte   W06
 .byte   Fn3
 .byte   W06
 .byte   Fn2
 .byte   W06
 .byte   An3
 .byte   W06
 .byte   Fn3
 .byte   W06
 .byte   Fn2
 .byte   W06
@  #06 @042   ----------------------------------------
 .byte   An3
 .byte   W06
 .byte   Fn3
 .byte   W06
 .byte   An3
 .byte   W06
 .byte   Fn3
 .byte   W06
 .byte   Fn2
 .byte   W06
 .byte   An3
 .byte   W06
 .byte   Fn3
 .byte   W06
 .byte   Fn2
 .byte   W06
 .byte   An3
 .byte   W06
 .byte   Fn3
 .byte   W06
 .byte   An3
 .byte   W06
 .byte   Fn3
 .byte   W06
 .byte   Fn2
 .byte   W06
 .byte   An3
 .byte   W06
 .byte   Fn3
 .byte   W06
 .byte   Fn2
 .byte   W06
@  #06 @043   ----------------------------------------
 .byte   An3
 .byte   W06
 .byte   Fn3
 .byte   W06
 .byte   Gn3
 .byte   W06
 .byte   En3
 .byte   W06
 .byte   En2
 .byte   W06
 .byte   Gn3
 .byte   W06
 .byte   En3
 .byte   W06
 .byte   En2
 .byte   W06
 .byte   Gn3
 .byte   W06
 .byte   En3
 .byte   W06
 .byte   Gn3
 .byte   W06
 .byte   En3
 .byte   W06
 .byte   En2
 .byte   W06
 .byte   Gn3
 .byte   W06
 .byte   En3
 .byte   W06
 .byte   En2
 .byte   W06
@  #06 @044   ----------------------------------------
 .byte   Gn3
 .byte   W06
 .byte   En3
 .byte   W06
 .byte   Gn3
 .byte   W06
 .byte   En3
 .byte   W06
 .byte   An2
 .byte   W06
 .byte   Gn3
 .byte   W06
 .byte   En3
 .byte   W06
 .byte   An2
 .byte   W06
 .byte   Gn3
 .byte   W06
 .byte   En3
 .byte   W06
 .byte   Gn3
 .byte   W06
 .byte   En3
 .byte   W06
 .byte   An2
 .byte   W06
 .byte   Gn3
 .byte   W06
 .byte   En3
 .byte   W06
 .byte   An2
 .byte   W06
@  #06 @045   ----------------------------------------
 .byte   Gn3
 .byte   W06
 .byte   En3
 .byte   W06
 .byte   An3
 .byte   W06
 .byte   Fn3
 .byte   W06
 .byte   An2
 .byte   W06
 .byte   An3
 .byte   W06
 .byte   Fn3
 .byte   W06
 .byte   An2
 .byte   W06
 .byte   An3
 .byte   W06
 .byte   Fn3
 .byte   W06
 .byte   An3
 .byte   W06
 .byte   Fn3
 .byte   W06
 .byte   An2
 .byte   W06
 .byte   An3
 .byte   W06
 .byte   Fn3
 .byte   W06
 .byte   An2
 .byte   W06
@  #06 @046   ----------------------------------------
 .byte   An3
 .byte   W06
 .byte   Fn3
 .byte   W06
 .byte   Bn3
 .byte   W06
 .byte   Gn3
 .byte   W06
 .byte   Gn2
 .byte   W06
 .byte   Bn3
 .byte   W06
 .byte   Gn3
 .byte   W06
 .byte   Gn2
 .byte   W06
 .byte   Bn3
 .byte   W06
 .byte   Gn3
 .byte   W06
 .byte   Bn3
 .byte   W06
 .byte   Gn3
 .byte   W06
 .byte   Gn2
 .byte   W06
 .byte   Bn3
 .byte   W06
 .byte   Gn3
 .byte   W06
 .byte   Gn2
 .byte   W06
@  #06 @047   ----------------------------------------
 .byte   Bn3
 .byte   W06
 .byte   Gn3
 .byte   W06
 .byte   Cn4
 .byte   W06
 .byte   An3
 .byte   W06
 .byte   An2
 .byte   W06
 .byte   Cn4
 .byte   W06
 .byte   An3
 .byte   W06
 .byte   An2
 .byte   W06
 .byte   Cn4
 .byte   W06
 .byte   An3
 .byte   W06
 .byte   Cn4
 .byte   W06
 .byte   An3
 .byte   W06
 .byte   An2
 .byte   W06
 .byte   Cn4
 .byte   W06
 .byte   An3
 .byte   W06
 .byte   An2
 .byte   W06
@  #06 @048   ----------------------------------------
 .byte   Cn4
 .byte   W06
 .byte   An3
 .byte   W06
 .byte   Cn4
 .byte   W06
 .byte   An3
 .byte   W06
 .byte   An2
 .byte   W06
 .byte   Cn4
 .byte   W06
 .byte   An3
 .byte   W06
 .byte   An2
 .byte   W06
 .byte   Cn4
 .byte   W06
 .byte   An3
 .byte   W06
 .byte   Cn4
 .byte   W06
 .byte   An3
 .byte   W06
 .byte   Gn2
 .byte   W06
 .byte   Cn4
 .byte   W06
 .byte   An3
 .byte   W06
 .byte   Gn2
 .byte   W06
@  #06 @049   ----------------------------------------
 .byte   Cn4
 .byte   W06
 .byte   An3
 .byte   W06
 .byte   Cn4
 .byte   W06
 .byte   Gn3
 .byte   W06
 .byte   Gs2
 .byte   W06
 .byte   Cn4
 .byte   W06
 .byte   Gn3
 .byte   W06
 .byte   Gs2
 .byte   W06
 .byte   Cn4
 .byte   W06
 .byte   Gn3
 .byte   W06
 .byte   Cn4
 .byte   W06
 .byte   Gn3
 .byte   W06
 .byte   Gs2
 .byte   W06
 .byte   Cn4
 .byte   W06
 .byte   Gn3
 .byte   W06
 .byte   Gs2
 .byte   W06
@  #06 @050   ----------------------------------------
 .byte   Cn4
 .byte   W06
 .byte   Gn3
 .byte   W06
 .byte   Cn4
 .byte   W06
 .byte   Gn3
 .byte   W06
 .byte   As2
 .byte   W06
 .byte   Cn4
 .byte   W06
 .byte   Gn3
 .byte   W06
 .byte   As2
 .byte   W06
 .byte   Cn4
 .byte   W06
 .byte   Gn3
 .byte   W06
 .byte   Cn4
 .byte   W06
 .byte   Gn3
 .byte   W06
 .byte   As2
 .byte   W06
 .byte   Cn4
 .byte   W06
 .byte   Gn3
 .byte   W06
 .byte   As2
 .byte   W06
@  #06 @051   ----------------------------------------
 .byte   Cn4
 .byte   W06
 .byte   Gn3
 .byte   W06
 .byte   Bn3
 .byte   W06
 .byte   Gn3
 .byte   W06
 .byte   Gn2
 .byte   W06
 .byte   Bn3
 .byte   W06
 .byte   Gn3
 .byte   W06
 .byte   Gn2
 .byte   W06
 .byte   Bn3
 .byte   W06
 .byte   Gn3
 .byte   W06
 .byte   Bn3
 .byte   W06
 .byte   Gn3
 .byte   W06
 .byte   Gn2
 .byte   W06
 .byte   Bn3
 .byte   W06
 .byte   Gn3
 .byte   W06
 .byte   Gn2
 .byte   W06
@  #06 @052   ----------------------------------------
 .byte   Bn3
 .byte   W06
 .byte   Gn3
 .byte   W06
 .byte   Bn3
 .byte   W06
 .byte   Gn3
 .byte   W06
 .byte   Gn2
 .byte   W06
 .byte   Bn3
 .byte   W06
 .byte   Gn3
 .byte   W06
 .byte   Gn2
 .byte   W06
 .byte   Bn3
 .byte   W06
 .byte   Gn3
 .byte   W06
 .byte   Bn3
 .byte   W06
 .byte   Gn3
 .byte   W06
 .byte   Gn2
 .byte   W06
 .byte   Bn3
 .byte   W06
 .byte   Gn3
 .byte   W12
@  #06 @053   ----------------------------------------
 .byte   GOTO
  .word Label_01051801
 .byte   FINE

@**************** Track 7 (Midi-Chn.6) ****************@

song29_007:
@  #07 @000   ----------------------------------------
 .byte   KEYSH , song29_key+0
 .byte   VOICE , 127
 .byte   VOL , 42*song29_mvl/mxv
 .byte   PAN , c_v+0
 .byte   BEND , c_v+14
 .byte   W72
 .byte   N06 ,Dn1 ,v127
 .byte   W06
 .byte   N06
 .byte   W06
 .byte   BEND , c_v+4
 .byte   N06
 .byte   W06
 .byte   BEND , c_v-11
 .byte   N06
 .byte   W06
@  #07 @001   ----------------------------------------
Label_0105105D:
 .byte   BEND , c_v+14
 .byte   N06 ,Bn0 ,v127
 .byte   N06 ,Cn1 ,v100
 .byte   W06
 .byte   PAN , c_v-64
 .byte   N06 ,Fs1 ,v084
 .byte   W06
 .byte   PAN , c_v+0
 .byte   N06 ,Fs1 ,v096
 .byte   W06
 .byte   PAN , c_v+63
 .byte   N06 ,Fs1 ,v112
 .byte   W06
 .byte   Dn1 ,v127
 .byte   W06
 .byte   PAN , c_v-64
 .byte   N06 ,Fs1 ,v084
 .byte   W06
 .byte   PAN , c_v+0
 .byte   N06 ,Fs1 ,v096
 .byte   W06
 .byte   PAN , c_v+63
 .byte   N06 ,Fs1 ,v112
 .byte   W06
 .byte   PAN , c_v+0
 .byte   N06 ,Bn0 ,v127
 .byte   N06 ,Cn1 ,v100
 .byte   W06
 .byte   PAN , c_v-64
 .byte   N06 ,Fs1 ,v084
 .byte   W06
 .byte   PAN , c_v+0
 .byte   N06 ,Fs1 ,v096
 .byte   W06
 .byte   PAN , c_v+63
 .byte   N06 ,Fs1 ,v112
 .byte   W06
 .byte   Dn1 ,v127
 .byte   W06
 .byte   PAN , c_v-64
 .byte   N06 ,Fs1 ,v084
 .byte   W06
 .byte   PAN , c_v+0
 .byte   N06 ,Fs1 ,v096
 .byte   W06
 .byte   PAN , c_v+63
 .byte   N06 ,Fs1 ,v112
 .byte   W06
@  #07 @002   ----------------------------------------
Label_010510BD:
 .byte   PAN , c_v+0
 .byte   N06 ,Bn0 ,v127
 .byte   N06 ,Cn1 ,v100
 .byte   W06
 .byte   PAN , c_v-64
 .byte   N06 ,Fs1 ,v084
 .byte   W06
 .byte   PAN , c_v+0
 .byte   N06 ,Fs1 ,v096
 .byte   W06
 .byte   PAN , c_v+63
 .byte   N06 ,Fs1 ,v112
 .byte   W06
 .byte   Dn1 ,v127
 .byte   W06
 .byte   PAN , c_v-64
 .byte   N06 ,Fs1 ,v084
 .byte   W06
 .byte   PAN , c_v+0
 .byte   N06 ,Fs1 ,v096
 .byte   W06
 .byte   PAN , c_v+63
 .byte   N06 ,Fs1 ,v112
 .byte   W06
 .byte   PAN , c_v+0
 .byte   N06 ,Bn0 ,v127
 .byte   N06 ,Cn1 ,v100
 .byte   W06
 .byte   PAN , c_v-64
 .byte   N06 ,Fs1 ,v084
 .byte   W06
 .byte   PAN , c_v+0
 .byte   N06 ,Fs1 ,v096
 .byte   W06
 .byte   PAN , c_v+63
 .byte   N06 ,Fs1 ,v112
 .byte   W06
 .byte   Dn1 ,v127
 .byte   W06
 .byte   PAN , c_v-64
 .byte   N06 ,Fs1 ,v084
 .byte   W06
 .byte   PAN , c_v+0
 .byte   N06 ,Fs1 ,v096
 .byte   W06
 .byte   PAN , c_v+63
 .byte   N06 ,Fs1 ,v112
 .byte   W06
 .byte   PEND 
@  #07 @003   ----------------------------------------
 .byte   PATT
  .word Label_010510BD
@  #07 @004   ----------------------------------------
 .byte   PATT
  .word Label_010510BD
@  #07 @005   ----------------------------------------
 .byte   PATT
  .word Label_010510BD
@  #07 @006   ----------------------------------------
 .byte   PATT
  .word Label_010510BD
@  #07 @007   ----------------------------------------
 .byte   PATT
  .word Label_010510BD
@  #07 @008   ----------------------------------------
 .byte   PATT
  .word Label_010510BD
@  #07 @009   ----------------------------------------
 .byte   PATT
  .word Label_010510BD
@  #07 @010   ----------------------------------------
 .byte   PATT
  .word Label_010510BD
@  #07 @011   ----------------------------------------
 .byte   PATT
  .word Label_010510BD
@  #07 @012   ----------------------------------------
 .byte   PATT
  .word Label_010510BD
@  #07 @013   ----------------------------------------
 .byte   PATT
  .word Label_010510BD
@  #07 @014   ----------------------------------------
 .byte   PATT
  .word Label_010510BD
@  #07 @015   ----------------------------------------
 .byte   PATT
  .word Label_010510BD
@  #07 @016   ----------------------------------------
 .byte   PAN , c_v+0
 .byte   N06 ,Bn0 ,v127
 .byte   N06 ,Cn1 ,v100
 .byte   W06
 .byte   PAN , c_v-64
 .byte   N06 ,Fs1 ,v084
 .byte   W06
 .byte   PAN , c_v+0
 .byte   N06 ,Fs1 ,v096
 .byte   W06
 .byte   PAN , c_v+63
 .byte   N06 ,Fs1 ,v112
 .byte   W06
 .byte   Dn1 ,v127
 .byte   W06
 .byte   PAN , c_v-64
 .byte   N06 ,Fs1 ,v084
 .byte   W06
 .byte   PAN , c_v+0
 .byte   N06 ,Fs1 ,v096
 .byte   W06
 .byte   PAN , c_v+63
 .byte   N06 ,Fs1 ,v112
 .byte   W06
 .byte   PAN , c_v+0
 .byte   N06 ,Bn0 ,v127
 .byte   N06 ,Cn1 ,v100
 .byte   W06
 .byte   PAN , c_v-64
 .byte   N06 ,Fs1 ,v084
 .byte   W06
 .byte   PAN , c_v+0
 .byte   N06 ,Fs1 ,v096
 .byte   W06
 .byte   PAN , c_v+63
 .byte   N06 ,Fs1 ,v112
 .byte   W06
 .byte   Dn1 ,v127
 .byte   W06
 .byte   PAN , c_v-64
 .byte   N06 ,Fs1 ,v084
 .byte   W06
 .byte   PAN , c_v+0
 .byte   N06 ,Dn1 ,v127
 .byte   N06 ,Fs1 ,v096
 .byte   W06
 .byte   PAN , c_v+63
 .byte   N06 ,Dn1
 .byte   N06 ,Fs1 ,v112
 .byte   W06
@  #07 @017   ----------------------------------------
 .byte   PATT
  .word Label_010510BD
@  #07 @018   ----------------------------------------
 .byte   PATT
  .word Label_010510BD
@  #07 @019   ----------------------------------------
 .byte   PATT
  .word Label_010510BD
@  #07 @020   ----------------------------------------
 .byte   PATT
  .word Label_010510BD
@  #07 @021   ----------------------------------------
 .byte   PATT
  .word Label_010510BD
@  #07 @022   ----------------------------------------
 .byte   PATT
  .word Label_010510BD
@  #07 @023   ----------------------------------------
 .byte   PATT
  .word Label_010510BD
@  #07 @024   ----------------------------------------
 .byte   PATT
  .word Label_010510BD
@  #07 @025   ----------------------------------------
 .byte   PATT
  .word Label_010510BD
@  #07 @026   ----------------------------------------
 .byte   PATT
  .word Label_010510BD
@  #07 @027   ----------------------------------------
 .byte   PATT
  .word Label_010510BD
@  #07 @028   ----------------------------------------
 .byte   PATT
  .word Label_010510BD
@  #07 @029   ----------------------------------------
 .byte   PATT
  .word Label_010510BD
@  #07 @030   ----------------------------------------
 .byte   PATT
  .word Label_010510BD
@  #07 @031   ----------------------------------------
 .byte   PATT
  .word Label_010510BD
@  #07 @032   ----------------------------------------
 .byte   PAN , c_v+0
 .byte   N06 ,Bn0 ,v127
 .byte   N06 ,Cn1 ,v100
 .byte   W06
 .byte   PAN , c_v-64
 .byte   N06 ,Fs1 ,v084
 .byte   W06
 .byte   PAN , c_v+0
 .byte   N06 ,Fs1 ,v096
 .byte   W06
 .byte   PAN , c_v+63
 .byte   N06 ,Fs1 ,v112
 .byte   W06
 .byte   Dn1 ,v127
 .byte   W06
 .byte   PAN , c_v-64
 .byte   N06 ,Fs1 ,v084
 .byte   W06
 .byte   PAN , c_v+0
 .byte   N06 ,Fs1 ,v096
 .byte   W06
 .byte   PAN , c_v+63
 .byte   N06 ,Fs1 ,v112
 .byte   W06
 .byte   PAN , c_v+0
 .byte   N06 ,Bn0 ,v127
 .byte   N06 ,Cn1 ,v100
 .byte   W06
 .byte   PAN , c_v-64
 .byte   N06 ,Fs1 ,v084
 .byte   W06
 .byte   PAN , c_v+0
 .byte   N06 ,Fs1 ,v096
 .byte   W06
 .byte   PAN , c_v+63
 .byte   N06 ,Dn1 ,v092
 .byte   N06 ,Fs1 ,v112
 .byte   W06
 .byte   Dn1 ,v127
 .byte   W06
 .byte   PAN , c_v-64
 .byte   N06
 .byte   N06 ,Fs1 ,v084
 .byte   W06
 .byte   PAN , c_v+0
 .byte   BEND , c_v+4
 .byte   N06 ,Dn1 ,v127
 .byte   N06 ,Fs1 ,v096
 .byte   W06
 .byte   PAN , c_v+63
 .byte   BEND , c_v-11
 .byte   N06 ,Dn1 ,v127
 .byte   N06 ,Fs1 ,v112
 .byte   W06
@  #07 @033   ----------------------------------------
 .byte   PAN , c_v+0
 .byte   BEND , c_v+14
 .byte   N06 ,Bn0 ,v127
 .byte   N06 ,Cn1 ,v100
 .byte   W06
 .byte   PAN , c_v-64
 .byte   N06 ,Fs1 ,v084
 .byte   W06
 .byte   PAN , c_v+0
 .byte   N06 ,Fs1 ,v096
 .byte   W06
 .byte   PAN , c_v+63
 .byte   N06 ,Fs1 ,v112
 .byte   W06
 .byte   Dn1 ,v127
 .byte   W06
 .byte   PAN , c_v-64
 .byte   N06 ,Fs1 ,v084
 .byte   W06
 .byte   PAN , c_v+0
 .byte   N06 ,Fs1 ,v096
 .byte   W06
 .byte   PAN , c_v+63
 .byte   N06 ,Fs1 ,v112
 .byte   W06
 .byte   PAN , c_v+0
 .byte   N06 ,Bn0 ,v127
 .byte   N06 ,Cn1 ,v100
 .byte   W06
 .byte   PAN , c_v-64
 .byte   N06 ,Fs1 ,v084
 .byte   W06
 .byte   PAN , c_v+0
 .byte   N06 ,Fs1 ,v096
 .byte   W06
 .byte   PAN , c_v+63
 .byte   N06 ,Fs1 ,v112
 .byte   W06
 .byte   Dn1 ,v127
 .byte   W06
 .byte   PAN , c_v-64
 .byte   N06 ,Fs1 ,v084
 .byte   W06
 .byte   PAN , c_v+0
 .byte   N06 ,Fs1 ,v096
 .byte   W06
 .byte   PAN , c_v+63
 .byte   N06 ,Fs1 ,v112
 .byte   W06
@  #07 @034   ----------------------------------------
 .byte   PATT
  .word Label_010510BD
@  #07 @035   ----------------------------------------
 .byte   PATT
  .word Label_010510BD
@  #07 @036   ----------------------------------------
 .byte   PATT
  .word Label_010510BD
@  #07 @037   ----------------------------------------
 .byte   PATT
  .word Label_010510BD
@  #07 @038   ----------------------------------------
 .byte   PATT
  .word Label_010510BD
@  #07 @039   ----------------------------------------
 .byte   PATT
  .word Label_010510BD
@  #07 @040   ----------------------------------------
 .byte   PATT
  .word Label_010510BD
@  #07 @041   ----------------------------------------
 .byte   PATT
  .word Label_010510BD
@  #07 @042   ----------------------------------------
 .byte   PATT
  .word Label_010510BD
@  #07 @043   ----------------------------------------
 .byte   PATT
  .word Label_010510BD
@  #07 @044   ----------------------------------------
 .byte   PATT
  .word Label_010510BD
@  #07 @045   ----------------------------------------
 .byte   PATT
  .word Label_010510BD
@  #07 @046   ----------------------------------------
 .byte   PATT
  .word Label_010510BD
@  #07 @047   ----------------------------------------
 .byte   PATT
  .word Label_010510BD
@  #07 @048   ----------------------------------------
 .byte   PATT
  .word Label_010510BD
@  #07 @049   ----------------------------------------
 .byte   PATT
  .word Label_010510BD
@  #07 @050   ----------------------------------------
 .byte   PATT
  .word Label_010510BD
@  #07 @051   ----------------------------------------
 .byte   PATT
  .word Label_010510BD
@  #07 @052   ----------------------------------------
 .byte   PAN , c_v+0
 .byte   N06 ,Bn0 ,v127
 .byte   N06 ,Cn1 ,v100
 .byte   W06
 .byte   PAN , c_v-64
 .byte   N06 ,Fs1 ,v084
 .byte   W06
 .byte   PAN , c_v+0
 .byte   N06 ,Fs1 ,v096
 .byte   W06
 .byte   PAN , c_v+63
 .byte   N06 ,Fs1 ,v112
 .byte   W06
 .byte   Dn1 ,v127
 .byte   W06
 .byte   PAN , c_v-64
 .byte   N06 ,Fs1 ,v084
 .byte   W06
 .byte   PAN , c_v+0
 .byte   N06 ,Fs1 ,v096
 .byte   W06
 .byte   PAN , c_v+63
 .byte   N06 ,Fs1 ,v112
 .byte   W06
 .byte   PAN , c_v+0
 .byte   N06 ,Bn0 ,v127
 .byte   N06 ,Cn1 ,v100
 .byte   W06
 .byte   PAN , c_v-64
 .byte   N06 ,Fs1 ,v084
 .byte   W06
 .byte   PAN , c_v+0
 .byte   N06 ,Dn1 ,v127
 .byte   N06 ,Fs1 ,v096
 .byte   W06
 .byte   PAN , c_v+63
 .byte   N06 ,Dn1 ,v080
 .byte   N06 ,Fs1 ,v112
 .byte   W06
 .byte   Dn1 ,v127
 .byte   W06
 .byte   PAN , c_v-64
 .byte   N06
 .byte   N06 ,Fs1 ,v084
 .byte   W06
 .byte   PAN , c_v+0
 .byte   BEND , c_v+4
 .byte   N06 ,Dn1 ,v127
 .byte   N06 ,Fs1 ,v096
 .byte   W12
@  #07 @053   ----------------------------------------
 .byte   GOTO
  .word Label_0105105D
 .byte   FINE

@**************** Track 8 (Midi-Chn.7) ****************@

song29_008:
@  #08 @000   ----------------------------------------
 .byte   KEYSH , song29_key+0
 .byte   VOICE , 105
 .byte   MOD 0
 .byte   PAN , c_v+0
 .byte   VOL , 48*song29_mvl/mxv
 .byte   W96
@  #08 @001   ----------------------------------------
Label_01050D07:
 .byte   W96
@  #08 @002   ----------------------------------------
 .byte   W96
@  #08 @003   ----------------------------------------
 .byte   W96
@  #08 @004   ----------------------------------------
 .byte   W96
@  #08 @005   ----------------------------------------
 .byte   W96
@  #08 @006   ----------------------------------------
 .byte   W96
@  #08 @007   ----------------------------------------
 .byte   W96
@  #08 @008   ----------------------------------------
 .byte   W96
@  #08 @009   ----------------------------------------
 .byte   TIE ,An4 ,v112
 .byte   W96
@  #08 @010   ----------------------------------------
 .byte   W24
 .byte   EOT
 .byte   W12
 .byte   N06 ,An4 ,v108
 .byte   W06
 .byte   Bn4 ,v116
 .byte   W06
 .byte   N12 ,En5 ,v127
 .byte   W18
 .byte   Dn5 ,v120
 .byte   W18
 .byte   Cn5 ,v108
 .byte   W12
@  #08 @011   ----------------------------------------
 .byte   Bn4 ,v104
 .byte   W18
 .byte   En4 ,v092
 .byte   W18
 .byte   Bn4 ,v100
 .byte   W18
 .byte   TIE ,En4 ,v092
 .byte   W42
@  #08 @012   ----------------------------------------
 .byte   W90
 .byte   EOT
 .byte   W06
@  #08 @013   ----------------------------------------
 .byte   N12 ,Cn4 ,v096
 .byte   W18
 .byte   Gn4 ,v112
 .byte   W18
 .byte   Cn4 ,v100
 .byte   W12
 .byte   N78 ,Gn4 ,v116
 .byte   W48
@  #08 @014   ----------------------------------------
 .byte   W36
 .byte   N06 ,Ds4 ,v108
 .byte   W06
 .byte   Fn4 ,v112
 .byte   W06
 .byte   N12 ,Gn4 ,v120
 .byte   W18
 .byte   As4 ,v127
 .byte   W18
 .byte   Gs4 ,v124
 .byte   W12
@  #08 @015   ----------------------------------------
 .byte   TIE ,Gn4 ,v116
 .byte   W96
@  #08 @016   ----------------------------------------
 .byte   W96
@  #08 @017   ----------------------------------------
 .byte   EOT
 .byte   W96
@  #08 @018   ----------------------------------------
 .byte   W96
@  #08 @019   ----------------------------------------
 .byte   W96
@  #08 @020   ----------------------------------------
 .byte   W96
@  #08 @021   ----------------------------------------
 .byte   W96
@  #08 @022   ----------------------------------------
 .byte   W96
@  #08 @023   ----------------------------------------
 .byte   W96
@  #08 @024   ----------------------------------------
 .byte   W96
@  #08 @025   ----------------------------------------
 .byte   TIE ,An4 ,v112
 .byte   W96
@  #08 @026   ----------------------------------------
 .byte   W24
 .byte   EOT
 .byte   W12
 .byte   N06 ,An4 ,v108
 .byte   W06
 .byte   Bn4 ,v116
 .byte   W06
 .byte   N12 ,En5 ,v127
 .byte   W18
 .byte   Dn5 ,v120
 .byte   W18
 .byte   Cn5 ,v108
 .byte   W12
@  #08 @027   ----------------------------------------
 .byte   Bn4 ,v104
 .byte   W18
 .byte   Cn5 ,v092
 .byte   W18
 .byte   Dn5 ,v100
 .byte   W12
 .byte   Gn4 ,v076
 .byte   W18
 .byte   Bn4
 .byte   W18
 .byte   N24 ,En4
 .byte   W12
@  #08 @028   ----------------------------------------
 .byte   W12
 .byte   N72 ,Gn4 ,v120
 .byte   W84
@  #08 @029   ----------------------------------------
 .byte   N12 ,Cn4 ,v080
 .byte   W18
 .byte   Gn4 ,v084
 .byte   W18
 .byte   Cn4 ,v108
 .byte   W12
 .byte   N72 ,Gn4 ,v120
 .byte   W48
@  #08 @030   ----------------------------------------
 .byte   W36
 .byte   N12 ,Dn4 ,v108
 .byte   W12
 .byte   Fn4 ,v120
 .byte   W18
 .byte   En4 ,v127
 .byte   W18
 .byte   Dn4 ,v124
 .byte   W12
@  #08 @031   ----------------------------------------
 .byte   TIE ,Cn4 ,v116
 .byte   W96
@  #08 @032   ----------------------------------------
 .byte   W96
@  #08 @033   ----------------------------------------
 .byte   EOT
 .byte   W96
@  #08 @034   ----------------------------------------
 .byte   W96
@  #08 @035   ----------------------------------------
 .byte   W96
@  #08 @036   ----------------------------------------
 .byte   W96
@  #08 @037   ----------------------------------------
 .byte   W96
@  #08 @038   ----------------------------------------
 .byte   W96
@  #08 @039   ----------------------------------------
 .byte   W96
@  #08 @040   ----------------------------------------
 .byte   W72
 .byte   N24 ,An4 ,v112
 .byte   W24
@  #08 @041   ----------------------------------------
 .byte   TIE ,An5 ,v100
 .byte   W96
@  #08 @042   ----------------------------------------
 .byte   W36
 .byte   EOT
 .byte   N12
 .byte   W12
 .byte   Gn5 ,v096
 .byte   W12
 .byte   Fn5 ,v092
 .byte   W12
 .byte   En5 ,v088
 .byte   W12
 .byte   Dn5 ,v084
 .byte   W12
@  #08 @043   ----------------------------------------
 .byte   N18 ,En5 ,v108
 .byte   W18
 .byte   Fn5 ,v092
 .byte   W18
 .byte   N12 ,Gn5 ,v088
 .byte   W12
 .byte   N18 ,Fn5 ,v108
 .byte   W18
 .byte   En5 ,v092
 .byte   W18
 .byte   N12 ,Dn5 ,v088
 .byte   W12
@  #08 @044   ----------------------------------------
 .byte   N48 ,Cs5 ,v092
 .byte   W48
 .byte   N24 ,An4 ,v096
 .byte   W24
 .byte   An4 ,v084
 .byte   W24
@  #08 @045   ----------------------------------------
 .byte   N32 ,En5 ,v096
 .byte   W36
 .byte   An4 ,v092
 .byte   W36
 .byte   N09 ,Cn5 ,v088
 .byte   W12
 .byte   Dn5 ,v096
 .byte   W12
@  #08 @046   ----------------------------------------
 .byte   N32 ,En5
 .byte   W36
 .byte   N21 ,Gn4 ,v092
 .byte   W24
 .byte   N15 ,Cn5 ,v088
 .byte   W18
 .byte   Dn5 ,v096
 .byte   W18
@  #08 @047   ----------------------------------------
 .byte   N44 ,En5
 .byte   W44
 .byte   W01
 .byte   N48 ,An4 ,v088
 .byte   W48
 .byte   W03
@  #08 @048   ----------------------------------------
 .byte   N32 ,Dn5
 .byte   W36
 .byte   En5 ,v096
 .byte   W36
 .byte   N21 ,Dn5 ,v088
 .byte   W24
@  #08 @049   ----------------------------------------
 .byte   W96
@  #08 @050   ----------------------------------------
 .byte   W96
@  #08 @051   ----------------------------------------
 .byte   W96
@  #08 @052   ----------------------------------------
 .byte   W96
@  #08 @053   ----------------------------------------
 .byte   GOTO
  .word Label_01050D07
 .byte   FINE

@**************** Track 9 (Midi-Chn.8) ****************@

song29_009:
@  #09 @000   ----------------------------------------
 .byte   KEYSH , song29_key+0
 .byte   VOICE , 105
 .byte   MOD 0
 .byte   PAN , c_v-29
 .byte   VOL , 23*song29_mvl/mxv
 .byte   BEND , c_v-3
 .byte   W96
@  #09 @001   ----------------------------------------
Label_01050E79:
 .byte   W96
@  #09 @002   ----------------------------------------
 .byte   W96
@  #09 @003   ----------------------------------------
 .byte   W96
@  #09 @004   ----------------------------------------
 .byte   W96
@  #09 @005   ----------------------------------------
 .byte   W96
@  #09 @006   ----------------------------------------
 .byte   W96
@  #09 @007   ----------------------------------------
 .byte   W96
@  #09 @008   ----------------------------------------
 .byte   W96
@  #09 @009   ----------------------------------------
Label_01050E81:
 .byte   W12
 .byte   TIE ,An4 ,v112
 .byte   W84
 .byte   PEND 
@  #09 @010   ----------------------------------------
 .byte   W36
 .byte   EOT
 .byte   W12
 .byte   N06 ,An4 ,v108
 .byte   W06
 .byte   Bn4 ,v116
 .byte   W06
 .byte   N12 ,En5 ,v127
 .byte   W18
 .byte   Dn5 ,v120
 .byte   W18
@  #09 @011   ----------------------------------------
 .byte   Cn5 ,v108
 .byte   W12
 .byte   Bn4 ,v104
 .byte   W18
 .byte   En4 ,v092
 .byte   W18
 .byte   Bn4 ,v100
 .byte   W18
 .byte   TIE ,En4 ,v092
 .byte   W30
@  #09 @012   ----------------------------------------
 .byte   W96
@  #09 @013   ----------------------------------------
 .byte   W06
 .byte   EOT
 .byte   W06
 .byte   N12 ,Cn4 ,v096
 .byte   W18
 .byte   Gn4 ,v112
 .byte   W18
 .byte   Cn4 ,v100
 .byte   W12
 .byte   N78 ,Gn4 ,v116
 .byte   W36
@  #09 @014   ----------------------------------------
 .byte   W48
 .byte   N06 ,Ds4 ,v108
 .byte   W06
 .byte   Fn4 ,v112
 .byte   W06
 .byte   N12 ,Gn4 ,v120
 .byte   W18
 .byte   As4 ,v127
 .byte   W18
@  #09 @015   ----------------------------------------
 .byte   Gs4 ,v124
 .byte   W12
 .byte   TIE ,Gn4 ,v116
 .byte   W84
@  #09 @016   ----------------------------------------
 .byte   W96
@  #09 @017   ----------------------------------------
 .byte   W12
 .byte   EOT
 .byte   W84
@  #09 @018   ----------------------------------------
 .byte   W96
@  #09 @019   ----------------------------------------
 .byte   W96
@  #09 @020   ----------------------------------------
 .byte   W96
@  #09 @021   ----------------------------------------
 .byte   W96
@  #09 @022   ----------------------------------------
 .byte   W96
@  #09 @023   ----------------------------------------
 .byte   W96
@  #09 @024   ----------------------------------------
 .byte   W96
@  #09 @025   ----------------------------------------
 .byte   PATT
  .word Label_01050E81
@  #09 @026   ----------------------------------------
 .byte   W36
 .byte   EOT
 .byte   An4
 .byte   W12
 .byte   N06 ,An4 ,v108
 .byte   W06
 .byte   Bn4 ,v116
 .byte   W06
 .byte   N12 ,En5 ,v127
 .byte   W18
 .byte   Dn5 ,v120
 .byte   W18
@  #09 @027   ----------------------------------------
 .byte   Cn5 ,v108
 .byte   W12
 .byte   Bn4 ,v104
 .byte   W18
 .byte   Cn5 ,v092
 .byte   W18
 .byte   Dn5 ,v100
 .byte   W12
 .byte   Gn4 ,v076
 .byte   W18
 .byte   Bn4
 .byte   W18
@  #09 @028   ----------------------------------------
 .byte   N24 ,En4
 .byte   W24
 .byte   N72 ,Gn4 ,v120
 .byte   W72
@  #09 @029   ----------------------------------------
 .byte   W12
 .byte   N12 ,Cn4 ,v080
 .byte   W18
 .byte   Gn4 ,v084
 .byte   W18
 .byte   Cn4 ,v108
 .byte   W12
 .byte   N72 ,Gn4 ,v120
 .byte   W36
@  #09 @030   ----------------------------------------
 .byte   W48
 .byte   N12 ,Dn4 ,v108
 .byte   W12
 .byte   Fn4 ,v120
 .byte   W18
 .byte   En4 ,v127
 .byte   W18
@  #09 @031   ----------------------------------------
 .byte   Dn4 ,v124
 .byte   W12
 .byte   TIE ,Cn4 ,v116
 .byte   W84
@  #09 @032   ----------------------------------------
 .byte   W96
@  #09 @033   ----------------------------------------
 .byte   W12
 .byte   EOT
 .byte   W84
@  #09 @034   ----------------------------------------
 .byte   W96
@  #09 @035   ----------------------------------------
 .byte   W96
@  #09 @036   ----------------------------------------
 .byte   W96
@  #09 @037   ----------------------------------------
 .byte   W96
@  #09 @038   ----------------------------------------
 .byte   W96
@  #09 @039   ----------------------------------------
 .byte   W96
@  #09 @040   ----------------------------------------
 .byte   W84
 .byte   N24 ,An4 ,v112
 .byte   W12
@  #09 @041   ----------------------------------------
 .byte   W12
 .byte   TIE ,An5 ,v100
 .byte   W84
@  #09 @042   ----------------------------------------
 .byte   W48
 .byte   EOT
 .byte   N12
 .byte   W12
 .byte   Gn5 ,v096
 .byte   W12
 .byte   Fn5 ,v092
 .byte   W12
 .byte   En5 ,v088
 .byte   W12
@  #09 @043   ----------------------------------------
 .byte   Dn5 ,v084
 .byte   W12
 .byte   N18 ,En5 ,v108
 .byte   W18
 .byte   Fn5 ,v092
 .byte   W18
 .byte   N12 ,Gn5 ,v088
 .byte   W12
 .byte   N18 ,Fn5 ,v108
 .byte   W18
 .byte   En5 ,v092
 .byte   W18
@  #09 @044   ----------------------------------------
 .byte   N12 ,Dn5 ,v088
 .byte   W12
 .byte   N48 ,Cs5 ,v092
 .byte   W48
 .byte   N24 ,An4 ,v096
 .byte   W24
 .byte   An4 ,v084
 .byte   W12
@  #09 @045   ----------------------------------------
 .byte   W12
 .byte   N32 ,En5 ,v096
 .byte   W36
 .byte   An4 ,v092
 .byte   W36
 .byte   N09 ,Cn5 ,v088
 .byte   W12
@  #09 @046   ----------------------------------------
 .byte   Dn5 ,v096
 .byte   W12
 .byte   N32 ,En5
 .byte   W36
 .byte   N21 ,Gn4 ,v092
 .byte   W24
 .byte   N15 ,Cn5 ,v088
 .byte   W18
 .byte   Dn5 ,v096
 .byte   W06
@  #09 @047   ----------------------------------------
 .byte   W12
 .byte   N44 ,En5
 .byte   W44
 .byte   W01
 .byte   N48 ,An4 ,v088
 .byte   W36
 .byte   W03
@  #09 @048   ----------------------------------------
 .byte   W12
 .byte   N32 ,Dn5
 .byte   W36
 .byte   En5 ,v096
 .byte   W36
 .byte   N21 ,Dn5 ,v088
 .byte   W12
@  #09 @049   ----------------------------------------
 .byte   W96
@  #09 @050   ----------------------------------------
 .byte   W96
@  #09 @051   ----------------------------------------
 .byte   W96
@  #09 @052   ----------------------------------------
 .byte   W96
@  #09 @053   ----------------------------------------
 .byte   GOTO
  .word Label_01050E79
 .byte   FINE

@**************** Track 10 (Midi-Chn.9) ****************@

song29_010:
@  #10 @000   ----------------------------------------
 .byte   KEYSH , song29_key+0
 .byte   VOICE , 76
 .byte   MOD 0
 .byte   VOL , 48*song29_mvl/mxv
 .byte   PAN , c_v+0
 .byte   W96
@  #10 @001   ----------------------------------------
Label_01050FB7:
 .byte   W96
@  #10 @002   ----------------------------------------
 .byte   W96
@  #10 @003   ----------------------------------------
 .byte   W96
@  #10 @004   ----------------------------------------
 .byte   W96
@  #10 @005   ----------------------------------------
 .byte   W96
@  #10 @006   ----------------------------------------
 .byte   W96
@  #10 @007   ----------------------------------------
 .byte   W96
@  #10 @008   ----------------------------------------
 .byte   W96
@  #10 @009   ----------------------------------------
 .byte   W96
@  #10 @010   ----------------------------------------
 .byte   W96
@  #10 @011   ----------------------------------------
 .byte   W96
@  #10 @012   ----------------------------------------
 .byte   W96
@  #10 @013   ----------------------------------------
 .byte   W96
@  #10 @014   ----------------------------------------
 .byte   W96
@  #10 @015   ----------------------------------------
 .byte   W96
@  #10 @016   ----------------------------------------
 .byte   W96
@  #10 @017   ----------------------------------------
 .byte   TIE ,Gn4 ,v127
 .byte   W96
@  #10 @018   ----------------------------------------
 .byte   W24
 .byte   EOT
 .byte   W12
 .byte   N06 ,En4
 .byte   W06
 .byte   Fn4
 .byte   W06
 .byte   N18 ,Gn4
 .byte   W18
 .byte   Cn5
 .byte   W18
 .byte   N12 ,Gn4
 .byte   W12
@  #10 @019   ----------------------------------------
 .byte   N96
 .byte   W96
@  #10 @020   ----------------------------------------
 .byte   N84 ,Dn4
 .byte   W96
@  #10 @021   ----------------------------------------
 .byte   TIE ,Gn4
 .byte   W96
@  #10 @022   ----------------------------------------
 .byte   W24
 .byte   EOT
 .byte   W12
 .byte   N06 ,En4
 .byte   W06
 .byte   Fn4
 .byte   W06
 .byte   N15 ,Gn4
 .byte   W18
 .byte   N18 ,Cn5
 .byte   W18
 .byte   N12 ,Gn4
 .byte   W12
@  #10 @023   ----------------------------------------
 .byte   N96 ,Dn5
 .byte   W96
@  #10 @024   ----------------------------------------
 .byte   Fs5
 .byte   W96
@  #10 @025   ----------------------------------------
 .byte   W96
@  #10 @026   ----------------------------------------
 .byte   W96
@  #10 @027   ----------------------------------------
 .byte   W96
@  #10 @028   ----------------------------------------
 .byte   W96
@  #10 @029   ----------------------------------------
 .byte   W96
@  #10 @030   ----------------------------------------
 .byte   W96
@  #10 @031   ----------------------------------------
 .byte   W96
@  #10 @032   ----------------------------------------
 .byte   W96
@  #10 @033   ----------------------------------------
 .byte   W96
@  #10 @034   ----------------------------------------
 .byte   W96
@  #10 @035   ----------------------------------------
 .byte   W96
@  #10 @036   ----------------------------------------
 .byte   W96
@  #10 @037   ----------------------------------------
 .byte   W96
@  #10 @038   ----------------------------------------
 .byte   W96
@  #10 @039   ----------------------------------------
 .byte   W96
@  #10 @040   ----------------------------------------
 .byte   W96
@  #10 @041   ----------------------------------------
 .byte   W96
@  #10 @042   ----------------------------------------
 .byte   W96
@  #10 @043   ----------------------------------------
 .byte   W96
@  #10 @044   ----------------------------------------
 .byte   W96
@  #10 @045   ----------------------------------------
 .byte   W96
@  #10 @046   ----------------------------------------
 .byte   W96
@  #10 @047   ----------------------------------------
 .byte   W96
@  #10 @048   ----------------------------------------
 .byte   W96
@  #10 @049   ----------------------------------------
 .byte   W96
@  #10 @050   ----------------------------------------
 .byte   W96
@  #10 @051   ----------------------------------------
 .byte   W96
@  #10 @052   ----------------------------------------
 .byte   W96
@  #10 @053   ----------------------------------------
 .byte   GOTO
  .word Label_01050FB7
 .byte   FINE

@**************** Track 11 (Midi-Chn.10) ****************@

song29_011:
@  #11 @000   ----------------------------------------
 .byte   KEYSH , song29_key+0
 .byte   VOICE , 76
 .byte   MOD 0
 .byte   VOL , 20*song29_mvl/mxv
 .byte   PAN , c_v-34
 .byte   W96
@  #11 @001   ----------------------------------------
Label_010523AB:
 .byte   W96
@  #11 @002   ----------------------------------------
 .byte   W96
@  #11 @003   ----------------------------------------
 .byte   W96
@  #11 @004   ----------------------------------------
 .byte   W96
@  #11 @005   ----------------------------------------
 .byte   W96
@  #11 @006   ----------------------------------------
 .byte   W96
@  #11 @007   ----------------------------------------
 .byte   W96
@  #11 @008   ----------------------------------------
 .byte   W96
@  #11 @009   ----------------------------------------
 .byte   W96
@  #11 @010   ----------------------------------------
 .byte   W96
@  #11 @011   ----------------------------------------
 .byte   W96
@  #11 @012   ----------------------------------------
 .byte   W96
@  #11 @013   ----------------------------------------
 .byte   W96
@  #11 @014   ----------------------------------------
 .byte   W96
@  #11 @015   ----------------------------------------
 .byte   W96
@  #11 @016   ----------------------------------------
 .byte   W96
@  #11 @017   ----------------------------------------
Label_010523BB:
 .byte   W18
 .byte   TIE ,Gn4 ,v127
 .byte   W78
 .byte   PEND 
@  #11 @018   ----------------------------------------
 .byte   W42
 .byte   EOT
 .byte   W12
 .byte   N06 ,En4
 .byte   W06
 .byte   Fn4
 .byte   W06
 .byte   N18 ,Gn4
 .byte   W18
 .byte   Cn5
 .byte   W12
@  #11 @019   ----------------------------------------
 .byte   W06
 .byte   N12 ,Gn4
 .byte   W12
 .byte   N96
 .byte   W78
@  #11 @020   ----------------------------------------
 .byte   W18
 .byte   N84 ,Dn4
 .byte   W78
@  #11 @021   ----------------------------------------
 .byte   PATT
  .word Label_010523BB
@  #11 @022   ----------------------------------------
 .byte   W42
 .byte   EOT
 .byte   Gn4
 .byte   W12
 .byte   N06 ,En4 ,v127
 .byte   W06
 .byte   Fn4
 .byte   W06
 .byte   N15 ,Gn4
 .byte   W18
 .byte   N18 ,Cn5
 .byte   W12
@  #11 @023   ----------------------------------------
 .byte   W06
 .byte   N12 ,Gn4
 .byte   W12
 .byte   N96 ,Dn5
 .byte   W78
@  #11 @024   ----------------------------------------
 .byte   W18
 .byte   Fs5
 .byte   W78
@  #11 @025   ----------------------------------------
 .byte   W96
@  #11 @026   ----------------------------------------
 .byte   W96
@  #11 @027   ----------------------------------------
 .byte   W96
@  #11 @028   ----------------------------------------
 .byte   W96
@  #11 @029   ----------------------------------------
 .byte   W96
@  #11 @030   ----------------------------------------
 .byte   W96
@  #11 @031   ----------------------------------------
 .byte   W96
@  #11 @032   ----------------------------------------
 .byte   W96
@  #11 @033   ----------------------------------------
 .byte   W96
@  #11 @034   ----------------------------------------
 .byte   W96
@  #11 @035   ----------------------------------------
 .byte   W96
@  #11 @036   ----------------------------------------
 .byte   W96
@  #11 @037   ----------------------------------------
 .byte   W96
@  #11 @038   ----------------------------------------
 .byte   W96
@  #11 @039   ----------------------------------------
 .byte   W96
@  #11 @040   ----------------------------------------
 .byte   W96
@  #11 @041   ----------------------------------------
 .byte   W96
@  #11 @042   ----------------------------------------
 .byte   W96
@  #11 @043   ----------------------------------------
 .byte   W96
@  #11 @044   ----------------------------------------
 .byte   W96
@  #11 @045   ----------------------------------------
 .byte   W96
@  #11 @046   ----------------------------------------
 .byte   W96
@  #11 @047   ----------------------------------------
 .byte   W96
@  #11 @048   ----------------------------------------
 .byte   W96
@  #11 @049   ----------------------------------------
 .byte   W96
@  #11 @050   ----------------------------------------
 .byte   W96
@  #11 @051   ----------------------------------------
 .byte   W96
@  #11 @052   ----------------------------------------
 .byte   W96
@  #11 @053   ----------------------------------------
 .byte   GOTO
  .word Label_010523AB
 .byte   FINE

@**************** Track 12 (Midi-Chn.11) ****************@

song29_012:
@  #12 @000   ----------------------------------------
 .byte   KEYSH , song29_key+0
 .byte   VOICE , 56
 .byte   MOD 0
 .byte   VOL , 60*song29_mvl/mxv
 .byte   PAN , c_v+0
 .byte   W96
@  #12 @001   ----------------------------------------
Label_01052427:
 .byte   W96
@  #12 @002   ----------------------------------------
 .byte   W96
@  #12 @003   ----------------------------------------
 .byte   W96
@  #12 @004   ----------------------------------------
 .byte   W96
@  #12 @005   ----------------------------------------
 .byte   W96
@  #12 @006   ----------------------------------------
 .byte   W96
@  #12 @007   ----------------------------------------
 .byte   W96
@  #12 @008   ----------------------------------------
 .byte   W96
@  #12 @009   ----------------------------------------
 .byte   W96
@  #12 @010   ----------------------------------------
 .byte   W96
@  #12 @011   ----------------------------------------
 .byte   W96
@  #12 @012   ----------------------------------------
 .byte   W96
@  #12 @013   ----------------------------------------
 .byte   W96
@  #12 @014   ----------------------------------------
 .byte   W96
@  #12 @015   ----------------------------------------
 .byte   W96
@  #12 @016   ----------------------------------------
 .byte   W96
@  #12 @017   ----------------------------------------
 .byte   W96
@  #12 @018   ----------------------------------------
 .byte   W96
@  #12 @019   ----------------------------------------
 .byte   W96
@  #12 @020   ----------------------------------------
 .byte   W96
@  #12 @021   ----------------------------------------
 .byte   W96
@  #12 @022   ----------------------------------------
 .byte   W96
@  #12 @023   ----------------------------------------
 .byte   W96
@  #12 @024   ----------------------------------------
 .byte   W96
@  #12 @025   ----------------------------------------
 .byte   W96
@  #12 @026   ----------------------------------------
 .byte   W96
@  #12 @027   ----------------------------------------
 .byte   W96
@  #12 @028   ----------------------------------------
 .byte   W96
@  #12 @029   ----------------------------------------
 .byte   W96
@  #12 @030   ----------------------------------------
 .byte   W96
@  #12 @031   ----------------------------------------
 .byte   W96
@  #12 @032   ----------------------------------------
 .byte   W96
@  #12 @033   ----------------------------------------
 .byte   N16 ,Cn4 ,v127
 .byte   W18
 .byte   Gn4
 .byte   W18
 .byte   N10 ,Cn4
 .byte   W12
 .byte   N80 ,Gn4
 .byte   W48
@  #12 @034   ----------------------------------------
 .byte   W36
 .byte   N10 ,Cn5
 .byte   W12
 .byte   As4
 .byte   W12
 .byte   Gs4
 .byte   W12
 .byte   Gn4
 .byte   W12
 .byte   Fn4
 .byte   W12
@  #12 @035   ----------------------------------------
 .byte   N16 ,Gn4
 .byte   W18
 .byte   Dn5
 .byte   W18
 .byte   N10 ,Gn4
 .byte   W12
 .byte   N16 ,Bn4
 .byte   W18
 .byte   Cn5
 .byte   W18
 .byte   N10 ,Dn5
 .byte   W12
@  #12 @036   ----------------------------------------
 .byte   N92 ,Cn5
 .byte   W92
 .byte   W03
 .byte   BEND , c_v-7
 .byte   W01
@  #12 @037   ----------------------------------------
 .byte   BEND , c_v-9
 .byte   N16 ,An4
 .byte   W01
 .byte   BEND , c_v-8
 .byte   W01
 .byte   BEND , c_v-7
 .byte   W01
 .byte   BEND , c_v-6
 .byte   W01
 .byte   BEND , c_v-3
 .byte   W01
 .byte   BEND , c_v+0
 .byte   W13
 .byte   N16 ,Bn4
 .byte   W18
 .byte   N92 ,Cn5
 .byte   W60
@  #12 @038   ----------------------------------------
 .byte   W36
 .byte   N10 ,En5
 .byte   W12
 .byte   Dn5
 .byte   W12
 .byte   Cn5
 .byte   W12
 .byte   Bn4
 .byte   W12
 .byte   An4
 .byte   W12
@  #12 @039   ----------------------------------------
 .byte   N16 ,Bn4
 .byte   W18
 .byte   Cn5
 .byte   W18
 .byte   N10 ,Dn5
 .byte   W12
 .byte   N16 ,En4
 .byte   W18
 .byte   Bn4
 .byte   W18
 .byte   N10 ,Dn5
 .byte   W12
@  #12 @040   ----------------------------------------
 .byte   N44 ,Cs5
 .byte   W48
 .byte   N22 ,An4
 .byte   W48
@  #12 @041   ----------------------------------------
 .byte   W96
@  #12 @042   ----------------------------------------
 .byte   W96
@  #12 @043   ----------------------------------------
 .byte   W96
@  #12 @044   ----------------------------------------
 .byte   W96
@  #12 @045   ----------------------------------------
 .byte   W96
@  #12 @046   ----------------------------------------
 .byte   W96
@  #12 @047   ----------------------------------------
 .byte   W96
@  #12 @048   ----------------------------------------
 .byte   W96
@  #12 @049   ----------------------------------------
 .byte   W96
@  #12 @050   ----------------------------------------
 .byte   W96
@  #12 @051   ----------------------------------------
 .byte   W96
@  #12 @052   ----------------------------------------
 .byte   W96
@  #12 @053   ----------------------------------------
 .byte   GOTO
  .word Label_01052427
 .byte   FINE

@**************** Track 13 (Midi-Chn.12) ****************@

song29_013:
@  #13 @000   ----------------------------------------
 .byte   KEYSH , song29_key+0
 .byte   VOICE , 56
 .byte   MOD 0
 .byte   VOL , 25*song29_mvl/mxv
 .byte   PAN , c_v+26
 .byte   W96
@  #13 @001   ----------------------------------------
Label_010524CB:
 .byte   W96
@  #13 @002   ----------------------------------------
 .byte   W96
@  #13 @003   ----------------------------------------
 .byte   W96
@  #13 @004   ----------------------------------------
 .byte   W96
@  #13 @005   ----------------------------------------
 .byte   W96
@  #13 @006   ----------------------------------------
 .byte   W96
@  #13 @007   ----------------------------------------
 .byte   W96
@  #13 @008   ----------------------------------------
 .byte   W96
@  #13 @009   ----------------------------------------
 .byte   W96
@  #13 @010   ----------------------------------------
 .byte   W96
@  #13 @011   ----------------------------------------
 .byte   W96
@  #13 @012   ----------------------------------------
 .byte   W96
@  #13 @013   ----------------------------------------
 .byte   W96
@  #13 @014   ----------------------------------------
 .byte   W96
@  #13 @015   ----------------------------------------
 .byte   W96
@  #13 @016   ----------------------------------------
 .byte   W96
@  #13 @017   ----------------------------------------
 .byte   W96
@  #13 @018   ----------------------------------------
 .byte   W96
@  #13 @019   ----------------------------------------
 .byte   W96
@  #13 @020   ----------------------------------------
 .byte   W96
@  #13 @021   ----------------------------------------
 .byte   W96
@  #13 @022   ----------------------------------------
 .byte   W96
@  #13 @023   ----------------------------------------
 .byte   W96
@  #13 @024   ----------------------------------------
 .byte   W96
@  #13 @025   ----------------------------------------
 .byte   W96
@  #13 @026   ----------------------------------------
 .byte   W96
@  #13 @027   ----------------------------------------
 .byte   W96
@  #13 @028   ----------------------------------------
 .byte   W96
@  #13 @029   ----------------------------------------
 .byte   W96
@  #13 @030   ----------------------------------------
 .byte   W96
@  #13 @031   ----------------------------------------
 .byte   W96
@  #13 @032   ----------------------------------------
 .byte   W96
@  #13 @033   ----------------------------------------
 .byte   W12
 .byte   N16 ,Cn4 ,v127
 .byte   W18
 .byte   Gn4
 .byte   W18
 .byte   N10 ,Cn4
 .byte   W12
 .byte   N80 ,Gn4
 .byte   W36
@  #13 @034   ----------------------------------------
 .byte   W48
 .byte   N10 ,Cn5
 .byte   W12
 .byte   As4
 .byte   W12
 .byte   Gs4
 .byte   W12
 .byte   Gn4
 .byte   W12
@  #13 @035   ----------------------------------------
 .byte   Fn4
 .byte   W12
 .byte   N16 ,Gn4
 .byte   W18
 .byte   Dn5
 .byte   W18
 .byte   N10 ,Gn4
 .byte   W12
 .byte   N16 ,Bn4
 .byte   W18
 .byte   Cn5
 .byte   W18
@  #13 @036   ----------------------------------------
 .byte   N10 ,Dn5
 .byte   W12
 .byte   N92 ,Cn5
 .byte   W84
@  #13 @037   ----------------------------------------
 .byte   W11
 .byte   BEND , c_v-7
 .byte   W01
 .byte   BEND , c_v-9
 .byte   N16 ,An4
 .byte   W01
 .byte   BEND , c_v-8
 .byte   W01
 .byte   BEND , c_v-7
 .byte   W01
 .byte   BEND , c_v-6
 .byte   W01
 .byte   BEND , c_v-3
 .byte   W01
 .byte   BEND , c_v+0
 .byte   W13
 .byte   N16 ,Bn4
 .byte   W18
 .byte   N92 ,Cn5
 .byte   W48
@  #13 @038   ----------------------------------------
 .byte   W48
 .byte   N10 ,En5
 .byte   W12
 .byte   Dn5
 .byte   W12
 .byte   Cn5
 .byte   W12
 .byte   Bn4
 .byte   W12
@  #13 @039   ----------------------------------------
 .byte   An4
 .byte   W12
 .byte   N16 ,Bn4
 .byte   W18
 .byte   Cn5
 .byte   W18
 .byte   N10 ,Dn5
 .byte   W12
 .byte   N16 ,En4
 .byte   W18
 .byte   Bn4
 .byte   W18
@  #13 @040   ----------------------------------------
 .byte   N10 ,Dn5
 .byte   W12
 .byte   N44 ,Cs5
 .byte   W48
 .byte   N22 ,An4
 .byte   W36
@  #13 @041   ----------------------------------------
 .byte   W96
@  #13 @042   ----------------------------------------
 .byte   W96
@  #13 @043   ----------------------------------------
 .byte   W96
@  #13 @044   ----------------------------------------
 .byte   W96
@  #13 @045   ----------------------------------------
 .byte   W96
@  #13 @046   ----------------------------------------
 .byte   W96
@  #13 @047   ----------------------------------------
 .byte   W96
@  #13 @048   ----------------------------------------
 .byte   W96
@  #13 @049   ----------------------------------------
 .byte   W96
@  #13 @050   ----------------------------------------
 .byte   W96
@  #13 @051   ----------------------------------------
 .byte   W96
@  #13 @052   ----------------------------------------
 .byte   W96
@  #13 @053   ----------------------------------------
 .byte   GOTO
  .word Label_010524CB
 .byte   FINE

@******************************************************@
	.align	2

song29:
	.byte	13	@ NumTrks
	.byte	0	@ NumBlks
	.byte	song29_pri	@ Priority
	.byte	song29_rev	@ Reverb.
    
	.word	song29_grp
    
	.word	song29_001
	.word	song29_002
	.word	song29_003
	.word	song29_004
	.word	song29_005
	.word	song29_006
	.word	song29_007
	.word	song29_008
	.word	song29_009
	.word	song29_010
	.word	song29_011
	.word	song29_012
	.word	song29_013

	.end
