	.include "MPlayDef.s"

	.equ	song09_grp, voicegroup000
	.equ	song09_pri, 0
	.equ	song09_rev, 0
	.equ	song09_mvl, 127
	.equ	song09_key, 0
	.equ	song09_tbs, 1
	.equ	song09_exg, 0
	.equ	song09_cmp, 1

	.section .rodata
	.global	song09
	.align	2


@**************** Track 1 (Midi-Chn.0) ****************@

song09_001:
@  #01 @000   ----------------------------------------
 .byte   KEYSH , song09_key+0
 .byte   TEMPO , 132*song09_tbs/2
 .byte   VOICE , 1
 .byte   MODT 0
 .byte   LFOS 44
 .byte   VOL , 80*song09_mvl/mxv
 .byte   W24
 .byte   N32 ,Ds2 ,v036
 .byte   N32 ,Bn2
 .byte   N32 ,Ds3
 .byte   W36
 .byte   Fn2
 .byte   N32 ,Cs3
 .byte   N32 ,Fn3
 .byte   W36
@  #01 @001   ----------------------------------------
Label_011B1953:
 .byte   W24
 .byte   N32 ,Fs2 ,v036
 .byte   N32 ,Ds3
 .byte   N32 ,Fs3
 .byte   W36
 .byte   Fn2
 .byte   N32 ,Cs3
 .byte   N32 ,Fn3
 .byte   W36
 .byte   PEND 
@  #01 @002   ----------------------------------------
Label_011B1963:
 .byte   W24
 .byte   N32 ,Ds2 ,v036
 .byte   N32 ,Bn2
 .byte   N32 ,Ds3
 .byte   W36
 .byte   Fn2
 .byte   N32 ,Cs3
 .byte   N32 ,Fn3
 .byte   W36
 .byte   PEND 
@  #01 @003   ----------------------------------------
 .byte   PATT
  .word Label_011B1953
@  #01 @004   ----------------------------------------
 .byte   W96
@  #01 @005   ----------------------------------------
 .byte   W96
@  #01 @006   ----------------------------------------
 .byte   W96
@  #01 @007   ----------------------------------------
 .byte   W96
@  #01 @008   ----------------------------------------
 .byte   W96
@  #01 @009   ----------------------------------------
 .byte   W96
@  #01 @010   ----------------------------------------
 .byte   W96
@  #01 @011   ----------------------------------------
 .byte   W96
@  #01 @012   ----------------------------------------
 .byte   W96
@  #01 @013   ----------------------------------------
 .byte   W96
@  #01 @014   ----------------------------------------
 .byte   W96
@  #01 @015   ----------------------------------------
 .byte   W96
@  #01 @016   ----------------------------------------
 .byte   W96
@  #01 @017   ----------------------------------------
 .byte   W96
@  #01 @018   ----------------------------------------
 .byte   W96
@  #01 @019   ----------------------------------------
 .byte   W96
@  #01 @020   ----------------------------------------
 .byte   W96
@  #01 @021   ----------------------------------------
 .byte   W96
@  #01 @022   ----------------------------------------
 .byte   W96
@  #01 @023   ----------------------------------------
 .byte   W96
@  #01 @024   ----------------------------------------
 .byte   W96
@  #01 @025   ----------------------------------------
 .byte   W96
@  #01 @026   ----------------------------------------
 .byte   W96
@  #01 @027   ----------------------------------------
 .byte   W96
@  #01 @028   ----------------------------------------
Label_011B1990:
 .byte   W24
 .byte   N23 ,Gs2 ,v036
 .byte   N23 ,Ds3
 .byte   N23 ,Gs3
 .byte   W36
 .byte   Fs2
 .byte   N23 ,Cs3
 .byte   N23 ,Fs3
 .byte   W36
 .byte   PEND 
@  #01 @029   ----------------------------------------
Label_011B19A0:
 .byte   W24
 .byte   N23 ,Fs2 ,v036
 .byte   N23 ,Cs3
 .byte   N23 ,Fs3
 .byte   W36
 .byte   Fs2
 .byte   N23 ,Cs3
 .byte   N23 ,Fs3
 .byte   W36
 .byte   PEND 
@  #01 @030   ----------------------------------------
 .byte   PATT
  .word Label_011B1990
@  #01 @031   ----------------------------------------
 .byte   PATT
  .word Label_011B19A0
@  #01 @032   ----------------------------------------
 .byte   W24
 .byte   N32 ,Ds2 ,v036
 .byte   N32 ,Bn2
 .byte   N32 ,Ds3
 .byte   W36
 .byte   Fn2
 .byte   N32 ,Cs3
 .byte   N32 ,Fn3
 .byte   W36
@  #01 @033   ----------------------------------------
 .byte   PATT
  .word Label_011B1953
@  #01 @034   ----------------------------------------
 .byte   PATT
  .word Label_011B1963
@  #01 @035   ----------------------------------------
 .byte   PATT
  .word Label_011B1953
@  #01 @036   ----------------------------------------
 .byte   W96
@  #01 @037   ----------------------------------------
 .byte   W96
@  #01 @038   ----------------------------------------
 .byte   W96
@  #01 @039   ----------------------------------------
 .byte   W96
@  #01 @040   ----------------------------------------
 .byte   W96
@  #01 @041   ----------------------------------------
 .byte   W96
@  #01 @042   ----------------------------------------
 .byte   W96
@  #01 @043   ----------------------------------------
 .byte   W96
@  #01 @044   ----------------------------------------
 .byte   W96
@  #01 @045   ----------------------------------------
 .byte   W96
@  #01 @046   ----------------------------------------
 .byte   W96
@  #01 @047   ----------------------------------------
 .byte   W96
@  #01 @048   ----------------------------------------
 .byte   W96
@  #01 @049   ----------------------------------------
 .byte   W96
@  #01 @050   ----------------------------------------
 .byte   W96
@  #01 @051   ----------------------------------------
 .byte   W96
@  #01 @052   ----------------------------------------
 .byte   W96
@  #01 @053   ----------------------------------------
 .byte   W96
@  #01 @054   ----------------------------------------
 .byte   W96
@  #01 @055   ----------------------------------------
 .byte   W96
@  #01 @056   ----------------------------------------
 .byte   W96
@  #01 @057   ----------------------------------------
 .byte   W96
@  #01 @058   ----------------------------------------
 .byte   W96
@  #01 @059   ----------------------------------------
 .byte   W96
@  #01 @060   ----------------------------------------
 .byte   GOTO
  .word Label_011B1990
@  #01 @061   ----------------------------------------
 .byte   PATT
  .word Label_011B1990
@  #01 @062   ----------------------------------------
 .byte   PATT
  .word Label_011B19A0
@  #01 @063   ----------------------------------------
 .byte   PATT
  .word Label_011B1990
@  #01 @064   ----------------------------------------
 .byte   W24
 .byte   N23 ,Fs2 ,v036
 .byte   N23 ,Cs3
 .byte   N23 ,Fs3
 .byte   W36
 .byte   Fs2
 .byte   N23 ,Cs3
 .byte   N23 ,Fs3
 .byte   W23
 .byte   FINE

@**************** Track 2 (Midi-Chn.1) ****************@

song09_002:
@  #02 @000   ----------------------------------------
 .byte   KEYSH , song09_key+0
 .byte   VOICE , 33
 .byte   MODT 0
 .byte   LFOS 44
 .byte   VOL , 48*song09_mvl/mxv
 .byte   N11 ,Gs1 ,v036
 .byte   W12
 .byte   N11
 .byte   W12
 .byte   N11
 .byte   W12
 .byte   N06
 .byte   W06
 .byte   N05
 .byte   W06
 .byte   N11
 .byte   W12
 .byte   N11
 .byte   W12
 .byte   N11
 .byte   W12
 .byte   N11
 .byte   W12
@  #02 @001   ----------------------------------------
Label_0121C4EE:
 .byte   N11 ,Gs1 ,v036
 .byte   W12
 .byte   N11
 .byte   W12
 .byte   N11
 .byte   W12
 .byte   N11
 .byte   W12
 .byte   N06
 .byte   W06
 .byte   N05
 .byte   W06
 .byte   N11
 .byte   W12
 .byte   N11
 .byte   W12
 .byte   Fs1
 .byte   W12
 .byte   PEND 
@  #02 @002   ----------------------------------------
Label_0121C503:
 .byte   N11 ,Gs1 ,v036
 .byte   W12
 .byte   N11
 .byte   W12
 .byte   N11
 .byte   W12
 .byte   N06
 .byte   W06
 .byte   N05
 .byte   W06
 .byte   N11
 .byte   W12
 .byte   N11
 .byte   W12
 .byte   N11
 .byte   W12
 .byte   N11
 .byte   W12
 .byte   PEND 
@  #02 @003   ----------------------------------------
 .byte   PATT
  .word Label_0121C4EE
@  #02 @004   ----------------------------------------
Label_0121C51D:
 .byte   N11 ,Gs1 ,v036
 .byte   W12
 .byte   N11
 .byte   W12
 .byte   N11
 .byte   W12
 .byte   N11
 .byte   W12
 .byte   N06
 .byte   W06
 .byte   N05
 .byte   W06
 .byte   N11
 .byte   W12
 .byte   N11
 .byte   W12
 .byte   N11
 .byte   W12
 .byte   PEND 
@  #02 @005   ----------------------------------------
 .byte   PATT
  .word Label_0121C51D
@  #02 @006   ----------------------------------------
Label_0121C537:
 .byte   N11 ,Fs1 ,v036
 .byte   W12
 .byte   N11
 .byte   W12
 .byte   N11
 .byte   W12
 .byte   N11
 .byte   W12
 .byte   N06
 .byte   W06
 .byte   N05
 .byte   W06
 .byte   N11
 .byte   W12
 .byte   N11
 .byte   W12
 .byte   N11
 .byte   W12
 .byte   PEND 
@  #02 @007   ----------------------------------------
 .byte   PATT
  .word Label_0121C537
@  #02 @008   ----------------------------------------
Label_0121C551:
 .byte   N11 ,Fn1 ,v036
 .byte   W12
 .byte   N11
 .byte   W12
 .byte   N11
 .byte   W12
 .byte   N11
 .byte   W12
 .byte   N06
 .byte   W06
 .byte   N05
 .byte   W06
 .byte   N11
 .byte   W12
 .byte   N11
 .byte   W12
 .byte   N11
 .byte   W12
 .byte   PEND 
@  #02 @009   ----------------------------------------
 .byte   PATT
  .word Label_0121C551
@  #02 @010   ----------------------------------------
Label_0121C56B:
 .byte   N11 ,En1 ,v036
 .byte   W12
 .byte   N11
 .byte   W12
 .byte   En2
 .byte   W12
 .byte   En1
 .byte   W12
 .byte   N06
 .byte   W06
 .byte   N05
 .byte   W06
 .byte   N11 ,En2
 .byte   W12
 .byte   En1
 .byte   W12
 .byte   Fn1
 .byte   W12
 .byte   PEND 
@  #02 @011   ----------------------------------------
Label_0121C581:
 .byte   N11 ,Fs1 ,v036
 .byte   W12
 .byte   N11
 .byte   W12
 .byte   N11
 .byte   W12
 .byte   N11
 .byte   W12
 .byte   N06
 .byte   W06
 .byte   N05
 .byte   W06
 .byte   N11
 .byte   W12
 .byte   Fn1
 .byte   W12
 .byte   Fs1
 .byte   W12
 .byte   PEND 
@  #02 @012   ----------------------------------------
 .byte   PATT
  .word Label_0121C51D
@  #02 @013   ----------------------------------------
 .byte   PATT
  .word Label_0121C51D
@  #02 @014   ----------------------------------------
 .byte   PATT
  .word Label_0121C537
@  #02 @015   ----------------------------------------
 .byte   PATT
  .word Label_0121C537
@  #02 @016   ----------------------------------------
 .byte   PATT
  .word Label_0121C551
@  #02 @017   ----------------------------------------
 .byte   PATT
  .word Label_0121C551
@  #02 @018   ----------------------------------------
 .byte   PATT
  .word Label_0121C56B
@  #02 @019   ----------------------------------------
 .byte   PATT
  .word Label_0121C581
@  #02 @020   ----------------------------------------
 .byte   PATT
  .word Label_0121C51D
@  #02 @021   ----------------------------------------
 .byte   PATT
  .word Label_0121C51D
@  #02 @022   ----------------------------------------
 .byte   PATT
  .word Label_0121C537
@  #02 @023   ----------------------------------------
 .byte   PATT
  .word Label_0121C537
@  #02 @024   ----------------------------------------
 .byte   PATT
  .word Label_0121C551
@  #02 @025   ----------------------------------------
 .byte   PATT
  .word Label_0121C551
@  #02 @026   ----------------------------------------
 .byte   PATT
  .word Label_0121C56B
@  #02 @027   ----------------------------------------
 .byte   PATT
  .word Label_0121C581
@  #02 @028   ----------------------------------------
Label_0121C5E6:
 .byte   N32 ,Gs1 ,v036
 .byte   W36
 .byte   N11
 .byte   W12
 .byte   N32 ,As1
 .byte   W36
 .byte   N11
 .byte   W12
 .byte   PEND 
@  #02 @029   ----------------------------------------
Label_0121C5F2:
 .byte   N11 ,Bn1 ,v036
 .byte   W12
 .byte   N11
 .byte   W12
 .byte   N11
 .byte   W12
 .byte   N11
 .byte   W12
 .byte   N11
 .byte   W12
 .byte   N11
 .byte   W12
 .byte   N11
 .byte   W12
 .byte   N11
 .byte   W12
 .byte   PEND 
@  #02 @030   ----------------------------------------
 .byte   PATT
  .word Label_0121C5E6
@  #02 @031   ----------------------------------------
 .byte   PATT
  .word Label_0121C5F2
@  #02 @032   ----------------------------------------
 .byte   PATT
  .word Label_0121C503
@  #02 @033   ----------------------------------------
 .byte   PATT
  .word Label_0121C4EE
@  #02 @034   ----------------------------------------
 .byte   PATT
  .word Label_0121C503
@  #02 @035   ----------------------------------------
 .byte   PATT
  .word Label_0121C4EE
@  #02 @036   ----------------------------------------
 .byte   PATT
  .word Label_0121C51D
@  #02 @037   ----------------------------------------
 .byte   PATT
  .word Label_0121C51D
@  #02 @038   ----------------------------------------
 .byte   PATT
  .word Label_0121C537
@  #02 @039   ----------------------------------------
 .byte   PATT
  .word Label_0121C537
@  #02 @040   ----------------------------------------
 .byte   PATT
  .word Label_0121C551
@  #02 @041   ----------------------------------------
 .byte   PATT
  .word Label_0121C551
@  #02 @042   ----------------------------------------
 .byte   PATT
  .word Label_0121C56B
@  #02 @043   ----------------------------------------
 .byte   PATT
  .word Label_0121C581
@  #02 @044   ----------------------------------------
 .byte   PATT
  .word Label_0121C51D
@  #02 @045   ----------------------------------------
 .byte   PATT
  .word Label_0121C51D
@  #02 @046   ----------------------------------------
 .byte   PATT
  .word Label_0121C537
@  #02 @047   ----------------------------------------
 .byte   PATT
  .word Label_0121C537
@  #02 @048   ----------------------------------------
 .byte   PATT
  .word Label_0121C551
@  #02 @049   ----------------------------------------
 .byte   PATT
  .word Label_0121C551
@  #02 @050   ----------------------------------------
 .byte   PATT
  .word Label_0121C56B
@  #02 @051   ----------------------------------------
 .byte   PATT
  .word Label_0121C581
@  #02 @052   ----------------------------------------
 .byte   PATT
  .word Label_0121C51D
@  #02 @053   ----------------------------------------
 .byte   PATT
  .word Label_0121C51D
@  #02 @054   ----------------------------------------
 .byte   PATT
  .word Label_0121C537
@  #02 @055   ----------------------------------------
 .byte   PATT
  .word Label_0121C537
@  #02 @056   ----------------------------------------
 .byte   PATT
  .word Label_0121C551
@  #02 @057   ----------------------------------------
 .byte   PATT
  .word Label_0121C551
@  #02 @058   ----------------------------------------
 .byte   PATT
  .word Label_0121C56B
@  #02 @059   ----------------------------------------
 .byte   PATT
  .word Label_0121C581
@  #02 @060   ----------------------------------------
 .byte   GOTO
  .word Label_0121C5E6
@  #02 @061   ----------------------------------------
 .byte   PATT
  .word Label_0121C5E6
@  #02 @062   ----------------------------------------
 .byte   PATT
  .word Label_0121C5F2
@  #02 @063   ----------------------------------------
 .byte   PATT
  .word Label_0121C5E6
@  #02 @064   ----------------------------------------
 .byte   N11 ,Bn1 ,v036
 .byte   W12
 .byte   N11
 .byte   W12
 .byte   N11
 .byte   W12
 .byte   N11
 .byte   W12
 .byte   N11
 .byte   W12
 .byte   N11
 .byte   W12
 .byte   N11
 .byte   W12
 .byte   N11
 .byte   W11
 .byte   FINE

@**************** Track 3 (Midi-Chn.2) ****************@

song09_003:
@  #03 @000   ----------------------------------------
 .byte   VOL , 72*song09_mvl/mxv
 .byte   KEYSH , song09_key+0
 .byte   VOICE , 68
 .byte   MODT 0
 .byte   LFOS 44
 .byte   W96
@  #03 @001   ----------------------------------------
 .byte   W96
@  #03 @002   ----------------------------------------
 .byte   W96
@  #03 @003   ----------------------------------------
 .byte   W96
@  #03 @004   ----------------------------------------
Label_0121D77A:
 .byte   N68 ,As3 ,v036
 .byte   W72
 .byte   N11 ,Gs3
 .byte   W12
 .byte   N23 ,As3
 .byte   W12
 .byte   PEND 
@  #03 @005   ----------------------------------------
Label_0121D785:
 .byte   W12
 .byte   N23 ,Bn3 ,v036
 .byte   W24
 .byte   Cs4
 .byte   W24
 .byte   As3
 .byte   W24
 .byte   N11 ,Gs3
 .byte   W12
 .byte   PEND 
@  #03 @006   ----------------------------------------
Label_0121D792:
 .byte   N68 ,As3 ,v036
 .byte   W72
 .byte   N11 ,Gs3
 .byte   W12
 .byte   N23 ,As3
 .byte   W12
 .byte   PEND 
@  #03 @007   ----------------------------------------
Label_0121D79D:
 .byte   W12
 .byte   N23 ,Bn3 ,v036
 .byte   W24
 .byte   Cs4
 .byte   W24
 .byte   N11 ,Ds4
 .byte   W12
 .byte   As3
 .byte   W12
 .byte   Gs3
 .byte   W12
 .byte   PEND 
@  #03 @008   ----------------------------------------
 .byte   PATT
  .word Label_0121D792
@  #03 @009   ----------------------------------------
Label_0121D7B1:
 .byte   W12
 .byte   N23 ,Bn3 ,v036
 .byte   W24
 .byte   Cs4
 .byte   W24
 .byte   As3
 .byte   W24
 .byte   N11 ,Ds3
 .byte   W12
 .byte   PEND 
@  #03 @010   ----------------------------------------
Label_0121D7BE:
 .byte   N23 ,As3 ,v036
 .byte   W24
 .byte   N11 ,Bn3
 .byte   W12
 .byte   N23 ,As3
 .byte   W24
 .byte   N11 ,Bn3
 .byte   W12
 .byte   N80 ,As3
 .byte   W24
 .byte   PEND 
@  #03 @011   ----------------------------------------
 .byte   W60
 .byte   N23 ,Fs3
 .byte   W36
@  #03 @012   ----------------------------------------
 .byte   PATT
  .word Label_0121D792
@  #03 @013   ----------------------------------------
 .byte   PATT
  .word Label_0121D785
@  #03 @014   ----------------------------------------
Label_0121D7DD:
 .byte   N68 ,As3 ,v036
 .byte   W72
 .byte   N11 ,Ds3
 .byte   W12
 .byte   N23 ,As3
 .byte   W12
 .byte   PEND 
@  #03 @015   ----------------------------------------
 .byte   PATT
  .word Label_0121D79D
@  #03 @016   ----------------------------------------
Label_0121D7ED:
 .byte   N23 ,As3 ,v036
 .byte   W24
 .byte   N11 ,Bn3
 .byte   W12
 .byte   N23 ,As3
 .byte   W24
 .byte   N11 ,Gs3
 .byte   W24
 .byte   N23 ,As3
 .byte   W12
 .byte   PEND 
@  #03 @017   ----------------------------------------
Label_0121D7FE:
 .byte   W12
 .byte   N23 ,Bn3 ,v036
 .byte   W24
 .byte   Cs4
 .byte   W24
 .byte   As3
 .byte   W24
 .byte   N11 ,Fs3
 .byte   W12
 .byte   PEND 
@  #03 @018   ----------------------------------------
Label_0121D80B:
 .byte   N23 ,Gs3 ,v036
 .byte   W24
 .byte   N11 ,As3
 .byte   W12
 .byte   N23 ,Bn3
 .byte   W24
 .byte   N11 ,Cs4
 .byte   W12
 .byte   N80 ,As3
 .byte   W24
 .byte   PEND 
@  #03 @019   ----------------------------------------
 .byte   W60
 .byte   N23 ,Fs3
 .byte   W36
@  #03 @020   ----------------------------------------
 .byte   W96
@  #03 @021   ----------------------------------------
 .byte   W96
@  #03 @022   ----------------------------------------
 .byte   W96
@  #03 @023   ----------------------------------------
 .byte   W96
@  #03 @024   ----------------------------------------
 .byte   W96
@  #03 @025   ----------------------------------------
 .byte   W96
@  #03 @026   ----------------------------------------
 .byte   W96
@  #03 @027   ----------------------------------------
 .byte   W96
@  #03 @028   ----------------------------------------
Label_0121D828:
 .byte   W96
@  #03 @029   ----------------------------------------
 .byte   W96
@  #03 @030   ----------------------------------------
 .byte   W96
@  #03 @031   ----------------------------------------
 .byte   W96
@  #03 @032   ----------------------------------------
 .byte   W96
@  #03 @033   ----------------------------------------
 .byte   W96
@  #03 @034   ----------------------------------------
 .byte   W96
@  #03 @035   ----------------------------------------
 .byte   W96
@  #03 @036   ----------------------------------------
 .byte   PATT
  .word Label_0121D77A
@  #03 @037   ----------------------------------------
 .byte   PATT
  .word Label_0121D785
@  #03 @038   ----------------------------------------
 .byte   PATT
  .word Label_0121D792
@  #03 @039   ----------------------------------------
 .byte   PATT
  .word Label_0121D79D
@  #03 @040   ----------------------------------------
 .byte   PATT
  .word Label_0121D792
@  #03 @041   ----------------------------------------
 .byte   PATT
  .word Label_0121D7B1
@  #03 @042   ----------------------------------------
 .byte   PATT
  .word Label_0121D7BE
@  #03 @043   ----------------------------------------
 .byte   W60
 .byte   N23 ,Fs3 ,v036
 .byte   W36
@  #03 @044   ----------------------------------------
 .byte   PATT
  .word Label_0121D792
@  #03 @045   ----------------------------------------
 .byte   PATT
  .word Label_0121D785
@  #03 @046   ----------------------------------------
 .byte   PATT
  .word Label_0121D7DD
@  #03 @047   ----------------------------------------
 .byte   PATT
  .word Label_0121D79D
@  #03 @048   ----------------------------------------
 .byte   PATT
  .word Label_0121D7ED
@  #03 @049   ----------------------------------------
 .byte   PATT
  .word Label_0121D7FE
@  #03 @050   ----------------------------------------
 .byte   PATT
  .word Label_0121D80B
@  #03 @051   ----------------------------------------
 .byte   W60
 .byte   N23 ,Fs3 ,v036
 .byte   W36
@  #03 @052   ----------------------------------------
 .byte   W96
@  #03 @053   ----------------------------------------
 .byte   W96
@  #03 @054   ----------------------------------------
 .byte   W96
@  #03 @055   ----------------------------------------
 .byte   W96
@  #03 @056   ----------------------------------------
 .byte   W96
@  #03 @057   ----------------------------------------
 .byte   W96
@  #03 @058   ----------------------------------------
 .byte   W96
@  #03 @059   ----------------------------------------
 .byte   W96
@  #03 @060   ----------------------------------------
 .byte   GOTO
  .word Label_0121D828
@  #03 @061   ----------------------------------------
 .byte   W96
@  #03 @062   ----------------------------------------
 .byte   W96
@  #03 @063   ----------------------------------------
 .byte   W96
@  #03 @064   ----------------------------------------
 .byte   W80
 .byte   W03
 .byte   FINE

@**************** Track 4 (Midi-Chn.3) ****************@

song09_004:
@  #04 @000   ----------------------------------------
 .byte   VOL , 72*song09_mvl/mxv
 .byte   KEYSH , song09_key+0
 .byte   VOICE , 56
 .byte   MODT 0
 .byte   LFOS 44
 .byte   W96
@  #04 @001   ----------------------------------------
 .byte   W96
@  #04 @002   ----------------------------------------
 .byte   W96
@  #04 @003   ----------------------------------------
 .byte   W96
@  #04 @004   ----------------------------------------
Label_0121C9A6:
 .byte   N68 ,As2 ,v036
 .byte   W72
 .byte   N11 ,Gs2
 .byte   W12
 .byte   N23 ,As2
 .byte   W12
 .byte   PEND 
@  #04 @005   ----------------------------------------
Label_0121C9B1:
 .byte   W12
 .byte   N23 ,Bn2 ,v036
 .byte   W24
 .byte   Cs3
 .byte   W24
 .byte   As2
 .byte   W24
 .byte   N11 ,Gs2
 .byte   W12
 .byte   PEND 
@  #04 @006   ----------------------------------------
Label_0121C9BE:
 .byte   N68 ,As2 ,v036
 .byte   W72
 .byte   N11 ,Gs2
 .byte   W12
 .byte   N23 ,As2
 .byte   W12
 .byte   PEND 
@  #04 @007   ----------------------------------------
Label_0121C9C9:
 .byte   W12
 .byte   N23 ,Bn2 ,v036
 .byte   W24
 .byte   Cs3
 .byte   W24
 .byte   N11 ,Ds3
 .byte   W12
 .byte   As2
 .byte   W12
 .byte   Gs2
 .byte   W12
 .byte   PEND 
@  #04 @008   ----------------------------------------
 .byte   PATT
  .word Label_0121C9BE
@  #04 @009   ----------------------------------------
Label_0121C9DD:
 .byte   W12
 .byte   N23 ,Bn2 ,v036
 .byte   W24
 .byte   Cs3
 .byte   W24
 .byte   As2
 .byte   W24
 .byte   N11 ,Ds2
 .byte   W12
 .byte   PEND 
@  #04 @010   ----------------------------------------
Label_0121C9EA:
 .byte   N23 ,As2 ,v036
 .byte   W24
 .byte   N11 ,Bn2
 .byte   W12
 .byte   N23 ,As2
 .byte   W24
 .byte   N11 ,Bn2
 .byte   W12
 .byte   N80 ,As2
 .byte   W24
 .byte   PEND 
@  #04 @011   ----------------------------------------
 .byte   W60
 .byte   N23 ,Fs2
 .byte   W36
@  #04 @012   ----------------------------------------
 .byte   PATT
  .word Label_0121C9BE
@  #04 @013   ----------------------------------------
 .byte   PATT
  .word Label_0121C9B1
@  #04 @014   ----------------------------------------
Label_0121CA09:
 .byte   N68 ,As2 ,v036
 .byte   W72
 .byte   N11 ,Ds2
 .byte   W12
 .byte   N23 ,As2
 .byte   W12
 .byte   PEND 
@  #04 @015   ----------------------------------------
 .byte   PATT
  .word Label_0121C9C9
@  #04 @016   ----------------------------------------
Label_0121CA19:
 .byte   N23 ,As2 ,v036
 .byte   W24
 .byte   N11 ,Bn2
 .byte   W12
 .byte   N23 ,As2
 .byte   W24
 .byte   N11 ,Gs2
 .byte   W24
 .byte   N23 ,As2
 .byte   W12
 .byte   PEND 
@  #04 @017   ----------------------------------------
Label_0121CA2A:
 .byte   W12
 .byte   N23 ,Bn2 ,v036
 .byte   W24
 .byte   Cs3
 .byte   W24
 .byte   As2
 .byte   W24
 .byte   N11 ,Fs2
 .byte   W12
 .byte   PEND 
@  #04 @018   ----------------------------------------
Label_0121CA37:
 .byte   N23 ,Gs2 ,v036
 .byte   W24
 .byte   N11 ,As2
 .byte   W12
 .byte   N23 ,Bn2
 .byte   W24
 .byte   N11 ,Cs3
 .byte   W12
 .byte   N80 ,As2
 .byte   W24
 .byte   PEND 
@  #04 @019   ----------------------------------------
 .byte   W60
 .byte   N23 ,Fs2
 .byte   W36
@  #04 @020   ----------------------------------------
 .byte   W96
@  #04 @021   ----------------------------------------
 .byte   W96
@  #04 @022   ----------------------------------------
 .byte   W96
@  #04 @023   ----------------------------------------
 .byte   W96
@  #04 @024   ----------------------------------------
 .byte   W96
@  #04 @025   ----------------------------------------
 .byte   W96
@  #04 @026   ----------------------------------------
 .byte   W96
@  #04 @027   ----------------------------------------
 .byte   W96
@  #04 @028   ----------------------------------------
Label_0121CA54:
 .byte   W96
@  #04 @029   ----------------------------------------
 .byte   W96
@  #04 @030   ----------------------------------------
 .byte   W96
@  #04 @031   ----------------------------------------
 .byte   W96
@  #04 @032   ----------------------------------------
 .byte   W96
@  #04 @033   ----------------------------------------
 .byte   W96
@  #04 @034   ----------------------------------------
 .byte   W96
@  #04 @035   ----------------------------------------
 .byte   W96
@  #04 @036   ----------------------------------------
 .byte   PATT
  .word Label_0121C9A6
@  #04 @037   ----------------------------------------
 .byte   PATT
  .word Label_0121C9B1
@  #04 @038   ----------------------------------------
 .byte   PATT
  .word Label_0121C9BE
@  #04 @039   ----------------------------------------
 .byte   PATT
  .word Label_0121C9C9
@  #04 @040   ----------------------------------------
 .byte   PATT
  .word Label_0121C9BE
@  #04 @041   ----------------------------------------
 .byte   PATT
  .word Label_0121C9DD
@  #04 @042   ----------------------------------------
 .byte   PATT
  .word Label_0121C9EA
@  #04 @043   ----------------------------------------
 .byte   W60
 .byte   N23 ,Fs2 ,v036
 .byte   W36
@  #04 @044   ----------------------------------------
 .byte   PATT
  .word Label_0121C9BE
@  #04 @045   ----------------------------------------
 .byte   PATT
  .word Label_0121C9B1
@  #04 @046   ----------------------------------------
 .byte   PATT
  .word Label_0121CA09
@  #04 @047   ----------------------------------------
 .byte   PATT
  .word Label_0121C9C9
@  #04 @048   ----------------------------------------
 .byte   PATT
  .word Label_0121CA19
@  #04 @049   ----------------------------------------
 .byte   PATT
  .word Label_0121CA2A
@  #04 @050   ----------------------------------------
 .byte   PATT
  .word Label_0121CA37
@  #04 @051   ----------------------------------------
 .byte   W60
 .byte   N23 ,Fs2 ,v036
 .byte   W36
@  #04 @052   ----------------------------------------
 .byte   W96
@  #04 @053   ----------------------------------------
 .byte   W96
@  #04 @054   ----------------------------------------
 .byte   W96
@  #04 @055   ----------------------------------------
 .byte   W96
@  #04 @056   ----------------------------------------
 .byte   W96
@  #04 @057   ----------------------------------------
 .byte   W96
@  #04 @058   ----------------------------------------
 .byte   W96
@  #04 @059   ----------------------------------------
 .byte   W96
@  #04 @060   ----------------------------------------
 .byte   GOTO
  .word Label_0121CA54
@  #04 @061   ----------------------------------------
 .byte   W96
@  #04 @062   ----------------------------------------
 .byte   W96
@  #04 @063   ----------------------------------------
 .byte   W96
@  #04 @064   ----------------------------------------
 .byte   W80
 .byte   W03
 .byte   FINE

@**************** Track 5 (Midi-Chn.4) ****************@

song09_005:
@  #05 @000   ----------------------------------------
 .byte   KEYSH , song09_key+0
 .byte   VOICE , 40
 .byte   MODT 0
 .byte   LFOS 44
 .byte   VOL , 40*song09_mvl/mxv
 .byte   W96
@  #05 @001   ----------------------------------------
 .byte   W96
@  #05 @002   ----------------------------------------
 .byte   W96
@  #05 @003   ----------------------------------------
 .byte   W96
@  #05 @004   ----------------------------------------
Label_0103C18E:
 .byte   TIE ,Gs3 ,v036
 .byte   TIE ,Ds4
 .byte   W96
 .byte   PEND 
@  #05 @005   ----------------------------------------
 .byte   W92
 .byte   W03
 .byte   EOT
 .byte   Gs3 ,v075
 .byte   W01
@  #05 @006   ----------------------------------------
Label_0103C19B:
 .byte   TIE ,Fs3 ,v036
 .byte   TIE ,As3
 .byte   TIE ,Ds4
 .byte   W96
 .byte   PEND 
@  #05 @007   ----------------------------------------
 .byte   W92
 .byte   W03
 .byte   EOT
 .byte   Fs3 ,v070
 .byte   Ds4
 .byte   W01
@  #05 @008   ----------------------------------------
Label_0103C1AB:
 .byte   TIE ,Fn3 ,v036
 .byte   TIE ,As3
 .byte   TIE ,Ds4
 .byte   W96
 .byte   PEND 
@  #05 @009   ----------------------------------------
 .byte   W92
 .byte   W03
 .byte   EOT
 .byte   Fn3 ,v070
 .byte   Ds4
 .byte   W01
@  #05 @010   ----------------------------------------
 .byte   N92 ,Gs3
 .byte   N92 ,Ds4
 .byte   W96
@  #05 @011   ----------------------------------------
 .byte   As3
 .byte   N92 ,Ds4
 .byte   W96
@  #05 @012   ----------------------------------------
 .byte   PATT
  .word Label_0103C18E
@  #05 @013   ----------------------------------------
 .byte   W92
 .byte   W03
 .byte   EOT
 .byte   Gs3 ,v075
 .byte   W01
@  #05 @014   ----------------------------------------
 .byte   PATT
  .word Label_0103C19B
@  #05 @015   ----------------------------------------
 .byte   W92
 .byte   W03
 .byte   EOT
 .byte   Fs3 ,v070
 .byte   Ds4
 .byte   W01
@  #05 @016   ----------------------------------------
 .byte   PATT
  .word Label_0103C1AB
@  #05 @017   ----------------------------------------
 .byte   W92
 .byte   W03
 .byte   EOT
 .byte   Fn3 ,v070
 .byte   Ds4
 .byte   W01
@  #05 @018   ----------------------------------------
 .byte   N92 ,Gs3 ,v036
 .byte   N92 ,Ds4
 .byte   W96
@  #05 @019   ----------------------------------------
 .byte   As3
 .byte   N92 ,Ds4
 .byte   W96
@  #05 @020   ----------------------------------------
Label_0103C1F1:
 .byte   TIE ,Gs2 ,v036
 .byte   TIE ,Ds3
 .byte   TIE ,Gs3
 .byte   W96
 .byte   PEND 
@  #05 @021   ----------------------------------------
 .byte   W92
 .byte   W03
 .byte   EOT
 .byte   Gs2 ,v063
 .byte   Gs3
 .byte   W01
@  #05 @022   ----------------------------------------
Label_0103C201:
 .byte   TIE ,Fs2 ,v036
 .byte   TIE ,Cs3
 .byte   TIE ,Fs3
 .byte   W96
 .byte   PEND 
@  #05 @023   ----------------------------------------
 .byte   W92
 .byte   W03
 .byte   EOT
 .byte   Fs2 ,v061
 .byte   Fs3
 .byte   W01
@  #05 @024   ----------------------------------------
Label_0103C211:
 .byte   N92 ,Cs3 ,v036
 .byte   N92 ,Fn3
 .byte   N92 ,Gs3
 .byte   W96
 .byte   PEND 
@  #05 @025   ----------------------------------------
 .byte   N92
 .byte   N92 ,Bn3
 .byte   W96
@  #05 @026   ----------------------------------------
Label_0103C21E:
 .byte   N92 ,Ds3 ,v036
 .byte   N92 ,As3
 .byte   N92 ,Ds4
 .byte   W96
 .byte   PEND 
@  #05 @027   ----------------------------------------
Label_0103C227:
 .byte   N92 ,As3 ,v036
 .byte   N92 ,Ds4
 .byte   N92 ,Fs4
 .byte   W96
 .byte   PEND 
@  #05 @028   ----------------------------------------
Label_0103C230:
 .byte   W96
@  #05 @029   ----------------------------------------
 .byte   W96
@  #05 @030   ----------------------------------------
 .byte   W96
@  #05 @031   ----------------------------------------
 .byte   W96
@  #05 @032   ----------------------------------------
 .byte   W96
@  #05 @033   ----------------------------------------
 .byte   W96
@  #05 @034   ----------------------------------------
 .byte   W96
@  #05 @035   ----------------------------------------
 .byte   W96
@  #05 @036   ----------------------------------------
 .byte   PATT
  .word Label_0103C18E
@  #05 @037   ----------------------------------------
 .byte   W92
 .byte   W03
 .byte   EOT
 .byte   Gs3 ,v075
 .byte   W01
@  #05 @038   ----------------------------------------
 .byte   PATT
  .word Label_0103C19B
@  #05 @039   ----------------------------------------
 .byte   W92
 .byte   W03
 .byte   EOT
 .byte   Fs3 ,v070
 .byte   Ds4
 .byte   W01
@  #05 @040   ----------------------------------------
 .byte   PATT
  .word Label_0103C1AB
@  #05 @041   ----------------------------------------
 .byte   W92
 .byte   W03
 .byte   EOT
 .byte   Fn3 ,v070
 .byte   Ds4
 .byte   W01
@  #05 @042   ----------------------------------------
 .byte   N92 ,Gs3 ,v036
 .byte   N92 ,Ds4
 .byte   W96
@  #05 @043   ----------------------------------------
 .byte   As3
 .byte   N92 ,Ds4
 .byte   W96
@  #05 @044   ----------------------------------------
 .byte   PATT
  .word Label_0103C18E
@  #05 @045   ----------------------------------------
 .byte   W92
 .byte   W03
 .byte   EOT
 .byte   Gs3 ,v075
 .byte   W01
@  #05 @046   ----------------------------------------
 .byte   PATT
  .word Label_0103C19B
@  #05 @047   ----------------------------------------
 .byte   W92
 .byte   W03
 .byte   EOT
 .byte   Fs3 ,v070
 .byte   Ds4
 .byte   W01
@  #05 @048   ----------------------------------------
 .byte   PATT
  .word Label_0103C1AB
@  #05 @049   ----------------------------------------
 .byte   W92
 .byte   W03
 .byte   EOT
 .byte   Fn3 ,v070
 .byte   Ds4
 .byte   W01
@  #05 @050   ----------------------------------------
 .byte   N92 ,Gs3 ,v036
 .byte   N92 ,Ds4
 .byte   W96
@  #05 @051   ----------------------------------------
 .byte   As3
 .byte   N92 ,Ds4
 .byte   W96
@  #05 @052   ----------------------------------------
 .byte   PATT
  .word Label_0103C1F1
@  #05 @053   ----------------------------------------
 .byte   W92
 .byte   W03
 .byte   EOT
 .byte   Gs2 ,v063
 .byte   Gs3
 .byte   W01
@  #05 @054   ----------------------------------------
 .byte   PATT
  .word Label_0103C201
@  #05 @055   ----------------------------------------
 .byte   W92
 .byte   W03
 .byte   EOT
 .byte   Fs2 ,v061
 .byte   Fs3
 .byte   W01
@  #05 @056   ----------------------------------------
 .byte   PATT
  .word Label_0103C211
@  #05 @057   ----------------------------------------
 .byte   N92 ,Gs3 ,v036
 .byte   N92 ,Bn3
 .byte   W96
@  #05 @058   ----------------------------------------
 .byte   PATT
  .word Label_0103C21E
@  #05 @059   ----------------------------------------
 .byte   PATT
  .word Label_0103C227
@  #05 @060   ----------------------------------------
 .byte   GOTO
  .word Label_0103C230
@  #05 @061   ----------------------------------------
 .byte   W96
@  #05 @062   ----------------------------------------
 .byte   W96
@  #05 @063   ----------------------------------------
 .byte   W96
@  #05 @064   ----------------------------------------
 .byte   W80
 .byte   W03
 .byte   FINE

@**************** Track 6 (Midi-Chn.5) ****************@

song09_006:
@  #06 @000   ----------------------------------------
 .byte   KEYSH , song09_key+0
 .byte   VOICE , 61
 .byte   MODT 0
 .byte   LFOS 44
 .byte   VOL , 80*song09_mvl/mxv
 .byte   W96
@  #06 @001   ----------------------------------------
 .byte   W96
@  #06 @002   ----------------------------------------
 .byte   W96
@  #06 @003   ----------------------------------------
 .byte   W96
@  #06 @004   ----------------------------------------
 .byte   W96
@  #06 @005   ----------------------------------------
 .byte   W96
@  #06 @006   ----------------------------------------
 .byte   W96
@  #06 @007   ----------------------------------------
 .byte   W96
@  #06 @008   ----------------------------------------
 .byte   W96
@  #06 @009   ----------------------------------------
 .byte   W96
@  #06 @010   ----------------------------------------
 .byte   W96
@  #06 @011   ----------------------------------------
 .byte   W96
@  #06 @012   ----------------------------------------
 .byte   W96
@  #06 @013   ----------------------------------------
 .byte   W96
@  #06 @014   ----------------------------------------
 .byte   W96
@  #06 @015   ----------------------------------------
 .byte   W96
@  #06 @016   ----------------------------------------
 .byte   W96
@  #06 @017   ----------------------------------------
 .byte   W96
@  #06 @018   ----------------------------------------
 .byte   W96
@  #06 @019   ----------------------------------------
 .byte   W96
@  #06 @020   ----------------------------------------
Label_0103C2EA:
 .byte   W24
 .byte   N11 ,Ds3 ,v036
 .byte   W12
 .byte   N23 ,As3
 .byte   W24
 .byte   Gs3
 .byte   W24
 .byte   As3
 .byte   W12
 .byte   PEND 
@  #06 @021   ----------------------------------------
Label_0103C2F7:
 .byte   W12
 .byte   N11 ,As3 ,v036
 .byte   W24
 .byte   Gs3
 .byte   W12
 .byte   As3
 .byte   W12
 .byte   Bn3
 .byte   W12
 .byte   Cs4
 .byte   W12
 .byte   Dn4
 .byte   W12
 .byte   PEND 
@  #06 @022   ----------------------------------------
Label_0103C307:
 .byte   N11 ,Ds4 ,v036
 .byte   W06
 .byte   N05 ,Cs4
 .byte   W06
 .byte   N12 ,Bn3
 .byte   W12
 .byte   N11
 .byte   W12
 .byte   Gs3
 .byte   W12
 .byte   Bn3
 .byte   W06
 .byte   Cs4
 .byte   W12
 .byte   As3
 .byte   W18
 .byte   Fs3
 .byte   W12
 .byte   PEND 
@  #06 @023   ----------------------------------------
Label_0103C31E:
 .byte   N11 ,Fs3 ,v036
 .byte   W72
 .byte   Ds3
 .byte   W06
 .byte   Fs3
 .byte   W18
 .byte   PEND 
@  #06 @024   ----------------------------------------
Label_0103C327:
 .byte   N23 ,Fn3 ,v036
 .byte   W36
 .byte   N05 ,Cs4
 .byte   W06
 .byte   Bn3
 .byte   W06
 .byte   N11 ,Cs4
 .byte   W12
 .byte   N11
 .byte   W36
 .byte   PEND 
@  #06 @025   ----------------------------------------
Label_0103C336:
 .byte   N05 ,Gs3 ,v036
 .byte   N23 ,As3
 .byte   W18
 .byte   Bn3
 .byte   W18
 .byte   Gs3
 .byte   W18
 .byte   As3
 .byte   W18
 .byte   N11 ,Bn3
 .byte   W12
 .byte   Cs4
 .byte   W12
 .byte   PEND 
@  #06 @026   ----------------------------------------
Label_0103C348:
 .byte   W12
 .byte   N05 ,Ds4 ,v036
 .byte   W06
 .byte   Cs4
 .byte   W06
 .byte   N11 ,Bn3
 .byte   W12
 .byte   N06
 .byte   W06
 .byte   N05
 .byte   W06
 .byte   N06 ,Gs3
 .byte   W06
 .byte   N05
 .byte   W06
 .byte   N11 ,Bn3
 .byte   W12
 .byte   N23
 .byte   W24
 .byte   PEND 
@  #06 @027   ----------------------------------------
Label_0103C361:
 .byte   N23 ,Fs4 ,v036
 .byte   N05 ,Gs4
 .byte   W24
 .byte   N11 ,As4
 .byte   W06
 .byte   Gs4
 .byte   W12
 .byte   N06 ,As4
 .byte   W06
 .byte   N05
 .byte   W06
 .byte   Bn4
 .byte   W06
 .byte   N06
 .byte   W06
 .byte   N05
 .byte   W06
 .byte   Cs5
 .byte   W06
 .byte   N05
 .byte   W06
 .byte   N11
 .byte   W12
 .byte   PEND 
@  #06 @028   ----------------------------------------
Label_0103C37E:
 .byte   N32 ,Ds5 ,v036
 .byte   W96
@  #06 @029   ----------------------------------------
 .byte   W96
@  #06 @030   ----------------------------------------
 .byte   W96
@  #06 @031   ----------------------------------------
 .byte   W96
@  #06 @032   ----------------------------------------
 .byte   W96
@  #06 @033   ----------------------------------------
 .byte   W96
@  #06 @034   ----------------------------------------
 .byte   W96
@  #06 @035   ----------------------------------------
 .byte   W96
@  #06 @036   ----------------------------------------
 .byte   W96
@  #06 @037   ----------------------------------------
 .byte   W96
@  #06 @038   ----------------------------------------
 .byte   W96
@  #06 @039   ----------------------------------------
 .byte   W96
@  #06 @040   ----------------------------------------
 .byte   W96
@  #06 @041   ----------------------------------------
 .byte   W96
@  #06 @042   ----------------------------------------
 .byte   W96
@  #06 @043   ----------------------------------------
 .byte   W96
@  #06 @044   ----------------------------------------
 .byte   W96
@  #06 @045   ----------------------------------------
 .byte   W96
@  #06 @046   ----------------------------------------
 .byte   W96
@  #06 @047   ----------------------------------------
 .byte   W96
@  #06 @048   ----------------------------------------
 .byte   W96
@  #06 @049   ----------------------------------------
 .byte   W96
@  #06 @050   ----------------------------------------
 .byte   W96
@  #06 @051   ----------------------------------------
 .byte   W96
@  #06 @052   ----------------------------------------
 .byte   PATT
  .word Label_0103C2EA
@  #06 @053   ----------------------------------------
 .byte   PATT
  .word Label_0103C2F7
@  #06 @054   ----------------------------------------
 .byte   PATT
  .word Label_0103C307
@  #06 @055   ----------------------------------------
 .byte   PATT
  .word Label_0103C31E
@  #06 @056   ----------------------------------------
 .byte   PATT
  .word Label_0103C327
@  #06 @057   ----------------------------------------
 .byte   PATT
  .word Label_0103C336
@  #06 @058   ----------------------------------------
 .byte   PATT
  .word Label_0103C348
@  #06 @059   ----------------------------------------
 .byte   PATT
  .word Label_0103C361
@  #06 @060   ----------------------------------------
 .byte   GOTO
  .word Label_0103C37E
@  #06 @061   ----------------------------------------
 .byte   N32 ,Ds5 ,v036
 .byte   W96
@  #06 @062   ----------------------------------------
 .byte   W96
@  #06 @063   ----------------------------------------
 .byte   W96
@  #06 @064   ----------------------------------------
 .byte   W80
 .byte   W03
 .byte   FINE

@**************** Track 7 (Midi-Chn.6) ****************@

song09_007:
@  #07 @000   ----------------------------------------
 .byte   VOL , 80*song09_mvl/mxv
 .byte   KEYSH , song09_key+0
 .byte   VOICE , 4
 .byte   MODT 0
 .byte   LFOS 44
 .byte   W96
@  #07 @001   ----------------------------------------
 .byte   W96
@  #07 @002   ----------------------------------------
 .byte   W96
@  #07 @003   ----------------------------------------
 .byte   W96
@  #07 @004   ----------------------------------------
 .byte   W96
@  #07 @005   ----------------------------------------
 .byte   W96
@  #07 @006   ----------------------------------------
 .byte   W96
@  #07 @007   ----------------------------------------
 .byte   W96
@  #07 @008   ----------------------------------------
 .byte   W96
@  #07 @009   ----------------------------------------
 .byte   W96
@  #07 @010   ----------------------------------------
 .byte   W96
@  #07 @011   ----------------------------------------
 .byte   W96
@  #07 @012   ----------------------------------------
 .byte   W96
@  #07 @013   ----------------------------------------
 .byte   W96
@  #07 @014   ----------------------------------------
 .byte   W96
@  #07 @015   ----------------------------------------
 .byte   W96
@  #07 @016   ----------------------------------------
 .byte   W96
@  #07 @017   ----------------------------------------
 .byte   W96
@  #07 @018   ----------------------------------------
 .byte   W96
@  #07 @019   ----------------------------------------
 .byte   W96
@  #07 @020   ----------------------------------------
 .byte   W96
@  #07 @021   ----------------------------------------
 .byte   W96
@  #07 @022   ----------------------------------------
 .byte   W96
@  #07 @023   ----------------------------------------
 .byte   W96
@  #07 @024   ----------------------------------------
 .byte   W96
@  #07 @025   ----------------------------------------
 .byte   W96
@  #07 @026   ----------------------------------------
 .byte   W96
@  #07 @027   ----------------------------------------
 .byte   W96
@  #07 @028   ----------------------------------------
Label_0121D8BA:
 .byte   W12
 .byte   N11 ,Cs4 ,v036
 .byte   W12
 .byte   Ds4
 .byte   W24
 .byte   Cs4
 .byte   W12
 .byte   Ds4
 .byte   W12
 .byte   Gs3
 .byte   W24
 .byte   PEND 
@  #07 @029   ----------------------------------------
Label_0121D8C8:
 .byte   N11 ,Ds4 ,v036
 .byte   W24
 .byte   N17 ,Cs4
 .byte   W24
 .byte   N11 ,Fs4
 .byte   W12
 .byte   N17 ,Cs4
 .byte   W24
 .byte   N11 ,Fs4
 .byte   W12
 .byte   PEND 
@  #07 @030   ----------------------------------------
 .byte   PATT
  .word Label_0121D8BA
@  #07 @031   ----------------------------------------
 .byte   PATT
  .word Label_0121D8C8
@  #07 @032   ----------------------------------------
 .byte   W96
@  #07 @033   ----------------------------------------
 .byte   W96
@  #07 @034   ----------------------------------------
 .byte   W96
@  #07 @035   ----------------------------------------
 .byte   W96
@  #07 @036   ----------------------------------------
 .byte   W96
@  #07 @037   ----------------------------------------
 .byte   W96
@  #07 @038   ----------------------------------------
 .byte   W96
@  #07 @039   ----------------------------------------
 .byte   W96
@  #07 @040   ----------------------------------------
 .byte   W96
@  #07 @041   ----------------------------------------
 .byte   W96
@  #07 @042   ----------------------------------------
 .byte   W96
@  #07 @043   ----------------------------------------
 .byte   W96
@  #07 @044   ----------------------------------------
 .byte   W96
@  #07 @045   ----------------------------------------
 .byte   W96
@  #07 @046   ----------------------------------------
 .byte   W96
@  #07 @047   ----------------------------------------
 .byte   W96
@  #07 @048   ----------------------------------------
 .byte   W96
@  #07 @049   ----------------------------------------
 .byte   W96
@  #07 @050   ----------------------------------------
 .byte   W96
@  #07 @051   ----------------------------------------
 .byte   W96
@  #07 @052   ----------------------------------------
 .byte   W96
@  #07 @053   ----------------------------------------
 .byte   W96
@  #07 @054   ----------------------------------------
 .byte   W96
@  #07 @055   ----------------------------------------
 .byte   W96
@  #07 @056   ----------------------------------------
 .byte   W96
@  #07 @057   ----------------------------------------
 .byte   W96
@  #07 @058   ----------------------------------------
 .byte   W96
@  #07 @059   ----------------------------------------
 .byte   W96
@  #07 @060   ----------------------------------------
 .byte   GOTO
  .word Label_0121D8BA
@  #07 @061   ----------------------------------------
 .byte   PATT
  .word Label_0121D8BA
@  #07 @062   ----------------------------------------
 .byte   PATT
  .word Label_0121D8C8
@  #07 @063   ----------------------------------------
 .byte   PATT
  .word Label_0121D8BA
@  #07 @064   ----------------------------------------
 .byte   N11 ,Ds4 ,v036
 .byte   W24
 .byte   N17 ,Cs4
 .byte   W24
 .byte   N11 ,Fs4
 .byte   W12
 .byte   N17 ,Cs4
 .byte   W24
 .byte   N11 ,Fs4
 .byte   W11
 .byte   FINE

@**************** Track 8 (Midi-Chn.7) ****************@

song09_008:
@  #08 @000   ----------------------------------------
 .byte   VOL , 80*song09_mvl/mxv
 .byte   KEYSH , song09_key+0
 .byte   VOICE , 0
 .byte   MODT 0
 .byte   LFOS 44
 .byte   W96
@  #08 @001   ----------------------------------------
 .byte   W96
@  #08 @002   ----------------------------------------
 .byte   W96
@  #08 @003   ----------------------------------------
 .byte   W96
@  #08 @004   ----------------------------------------
 .byte   W96
@  #08 @005   ----------------------------------------
 .byte   W96
@  #08 @006   ----------------------------------------
 .byte   W96
@  #08 @007   ----------------------------------------
 .byte   W96
@  #08 @008   ----------------------------------------
 .byte   W96
@  #08 @009   ----------------------------------------
 .byte   W96
@  #08 @010   ----------------------------------------
 .byte   W96
@  #08 @011   ----------------------------------------
 .byte   W96
@  #08 @012   ----------------------------------------
 .byte   W96
@  #08 @013   ----------------------------------------
 .byte   W96
@  #08 @014   ----------------------------------------
 .byte   W96
@  #08 @015   ----------------------------------------
 .byte   W96
@  #08 @016   ----------------------------------------
 .byte   W96
@  #08 @017   ----------------------------------------
 .byte   W96
@  #08 @018   ----------------------------------------
 .byte   W96
@  #08 @019   ----------------------------------------
 .byte   W96
@  #08 @020   ----------------------------------------
 .byte   W96
@  #08 @021   ----------------------------------------
 .byte   W96
@  #08 @022   ----------------------------------------
 .byte   W96
@  #08 @023   ----------------------------------------
 .byte   W96
@  #08 @024   ----------------------------------------
 .byte   W96
@  #08 @025   ----------------------------------------
 .byte   W96
@  #08 @026   ----------------------------------------
 .byte   W96
@  #08 @027   ----------------------------------------
 .byte   W96
@  #08 @028   ----------------------------------------
Label_0121CAE6:
 .byte   W24
 .byte   N23 ,Gs2 ,v036
 .byte   N23 ,Ds3
 .byte   N23 ,Gs3
 .byte   W36
 .byte   Fs2
 .byte   N23 ,Cs3
 .byte   N23 ,Fs3
 .byte   W36
 .byte   PEND 
@  #08 @029   ----------------------------------------
Label_0121CAF6:
 .byte   W24
 .byte   N23 ,Fs2 ,v036
 .byte   N23 ,Cs3
 .byte   N23 ,Fs3
 .byte   W36
 .byte   Fs2
 .byte   N23 ,Cs3
 .byte   N23 ,Fs3
 .byte   W36
 .byte   PEND 
@  #08 @030   ----------------------------------------
 .byte   PATT
  .word Label_0121CAE6
@  #08 @031   ----------------------------------------
 .byte   PATT
  .word Label_0121CAF6
@  #08 @032   ----------------------------------------
 .byte   W96
@  #08 @033   ----------------------------------------
 .byte   W96
@  #08 @034   ----------------------------------------
 .byte   W96
@  #08 @035   ----------------------------------------
 .byte   W96
@  #08 @036   ----------------------------------------
 .byte   W96
@  #08 @037   ----------------------------------------
 .byte   W96
@  #08 @038   ----------------------------------------
 .byte   W96
@  #08 @039   ----------------------------------------
 .byte   W96
@  #08 @040   ----------------------------------------
 .byte   W96
@  #08 @041   ----------------------------------------
 .byte   W96
@  #08 @042   ----------------------------------------
 .byte   W96
@  #08 @043   ----------------------------------------
 .byte   W96
@  #08 @044   ----------------------------------------
 .byte   W96
@  #08 @045   ----------------------------------------
 .byte   W96
@  #08 @046   ----------------------------------------
 .byte   W96
@  #08 @047   ----------------------------------------
 .byte   W96
@  #08 @048   ----------------------------------------
 .byte   W96
@  #08 @049   ----------------------------------------
 .byte   W96
@  #08 @050   ----------------------------------------
 .byte   W96
@  #08 @051   ----------------------------------------
 .byte   W96
@  #08 @052   ----------------------------------------
 .byte   W96
@  #08 @053   ----------------------------------------
 .byte   W96
@  #08 @054   ----------------------------------------
 .byte   W96
@  #08 @055   ----------------------------------------
 .byte   W96
@  #08 @056   ----------------------------------------
 .byte   W96
@  #08 @057   ----------------------------------------
 .byte   W96
@  #08 @058   ----------------------------------------
 .byte   W96
@  #08 @059   ----------------------------------------
 .byte   W96
@  #08 @060   ----------------------------------------
 .byte   GOTO
  .word Label_0121CAE6
@  #08 @061   ----------------------------------------
 .byte   PATT
  .word Label_0121CAE6
@  #08 @062   ----------------------------------------
 .byte   PATT
  .word Label_0121CAF6
@  #08 @063   ----------------------------------------
 .byte   PATT
  .word Label_0121CAE6
@  #08 @064   ----------------------------------------
 .byte   W24
 .byte   N23 ,Fs2 ,v036
 .byte   N23 ,Cs3
 .byte   N23 ,Fs3
 .byte   W36
 .byte   Fs2
 .byte   N23 ,Cs3
 .byte   N23 ,Fs3
 .byte   W23
 .byte   FINE

@**************** Track 9 (Midi-Chn.8) ****************@

song09_009:
@  #09 @000   ----------------------------------------
 .byte   VOL , 80*song09_mvl/mxv
 .byte   KEYSH , song09_key+0
 .byte   VOICE , 1
 .byte   MODT 0
 .byte   LFOS 44
 .byte   W36
 .byte   N32 ,Ds2 ,v036
 .byte   N32 ,Bn2
 .byte   N32 ,Ds3
 .byte   W36
 .byte   Fn2
 .byte   N32 ,Cs3
 .byte   N32 ,Fn3
 .byte   W24
@  #09 @001   ----------------------------------------
Label_0121C6DD:
 .byte   W36
 .byte   N32 ,Fs2 ,v036
 .byte   N32 ,Ds3
 .byte   N32 ,Fs3
 .byte   W36
 .byte   Fn2
 .byte   N32 ,Cs3
 .byte   N32 ,Fn3
 .byte   W24
 .byte   PEND 
@  #09 @002   ----------------------------------------
Label_0121C6ED:
 .byte   W36
 .byte   N32 ,Ds2 ,v036
 .byte   N32 ,Bn2
 .byte   N32 ,Ds3
 .byte   W36
 .byte   Fn2
 .byte   N32 ,Cs3
 .byte   N32 ,Fn3
 .byte   W24
 .byte   PEND 
@  #09 @003   ----------------------------------------
 .byte   PATT
  .word Label_0121C6DD
@  #09 @004   ----------------------------------------
 .byte   W96
@  #09 @005   ----------------------------------------
 .byte   W96
@  #09 @006   ----------------------------------------
 .byte   W96
@  #09 @007   ----------------------------------------
 .byte   W96
@  #09 @008   ----------------------------------------
 .byte   W96
@  #09 @009   ----------------------------------------
 .byte   W96
@  #09 @010   ----------------------------------------
 .byte   W96
@  #09 @011   ----------------------------------------
 .byte   W96
@  #09 @012   ----------------------------------------
 .byte   W96
@  #09 @013   ----------------------------------------
 .byte   W96
@  #09 @014   ----------------------------------------
 .byte   W96
@  #09 @015   ----------------------------------------
 .byte   W96
@  #09 @016   ----------------------------------------
 .byte   W96
@  #09 @017   ----------------------------------------
 .byte   W96
@  #09 @018   ----------------------------------------
 .byte   W96
@  #09 @019   ----------------------------------------
 .byte   W96
@  #09 @020   ----------------------------------------
 .byte   W96
@  #09 @021   ----------------------------------------
 .byte   W96
@  #09 @022   ----------------------------------------
 .byte   W96
@  #09 @023   ----------------------------------------
 .byte   W96
@  #09 @024   ----------------------------------------
 .byte   W96
@  #09 @025   ----------------------------------------
 .byte   W96
@  #09 @026   ----------------------------------------
 .byte   W96
@  #09 @027   ----------------------------------------
 .byte   W96
@  #09 @028   ----------------------------------------
Label_0121C71A:
 .byte   W96
@  #09 @029   ----------------------------------------
 .byte   W96
@  #09 @030   ----------------------------------------
 .byte   W96
@  #09 @031   ----------------------------------------
 .byte   W96
@  #09 @032   ----------------------------------------
 .byte   PATT
  .word Label_0121C6ED
@  #09 @033   ----------------------------------------
 .byte   PATT
  .word Label_0121C6DD
@  #09 @034   ----------------------------------------
 .byte   PATT
  .word Label_0121C6ED
@  #09 @035   ----------------------------------------
 .byte   PATT
  .word Label_0121C6DD
@  #09 @036   ----------------------------------------
 .byte   W96
@  #09 @037   ----------------------------------------
 .byte   W96
@  #09 @038   ----------------------------------------
 .byte   W96
@  #09 @039   ----------------------------------------
 .byte   W96
@  #09 @040   ----------------------------------------
 .byte   W96
@  #09 @041   ----------------------------------------
 .byte   W96
@  #09 @042   ----------------------------------------
 .byte   W96
@  #09 @043   ----------------------------------------
 .byte   W96
@  #09 @044   ----------------------------------------
 .byte   W96
@  #09 @045   ----------------------------------------
 .byte   W96
@  #09 @046   ----------------------------------------
 .byte   W96
@  #09 @047   ----------------------------------------
 .byte   W96
@  #09 @048   ----------------------------------------
 .byte   W96
@  #09 @049   ----------------------------------------
 .byte   W96
@  #09 @050   ----------------------------------------
 .byte   W96
@  #09 @051   ----------------------------------------
 .byte   W96
@  #09 @052   ----------------------------------------
 .byte   W96
@  #09 @053   ----------------------------------------
 .byte   W96
@  #09 @054   ----------------------------------------
 .byte   W96
@  #09 @055   ----------------------------------------
 .byte   W96
@  #09 @056   ----------------------------------------
 .byte   W96
@  #09 @057   ----------------------------------------
 .byte   W96
@  #09 @058   ----------------------------------------
 .byte   W96
@  #09 @059   ----------------------------------------
 .byte   W96
@  #09 @060   ----------------------------------------
 .byte   GOTO
  .word Label_0121C71A
@  #09 @061   ----------------------------------------
 .byte   W96
@  #09 @062   ----------------------------------------
 .byte   W96
@  #09 @063   ----------------------------------------
 .byte   W96
@  #09 @064   ----------------------------------------
 .byte   W80
 .byte   W03
 .byte   FINE

@**************** Track 10 (Midi-Chn.9) ****************@

song09_010:
@  #10 @000   ----------------------------------------
 .byte   VOL , 80*song09_mvl/mxv
 .byte   KEYSH , song09_key+0
 .byte   VOICE , 46
 .byte   MODT 0
 .byte   LFOS 44
 .byte   W96
@  #10 @001   ----------------------------------------
 .byte   W96
@  #10 @002   ----------------------------------------
 .byte   W96
@  #10 @003   ----------------------------------------
 .byte   W96
@  #10 @004   ----------------------------------------
 .byte   W96
@  #10 @005   ----------------------------------------
 .byte   W96
@  #10 @006   ----------------------------------------
 .byte   W96
@  #10 @007   ----------------------------------------
 .byte   W96
@  #10 @008   ----------------------------------------
 .byte   W96
@  #10 @009   ----------------------------------------
 .byte   W96
@  #10 @010   ----------------------------------------
 .byte   W96
@  #10 @011   ----------------------------------------
 .byte   W96
@  #10 @012   ----------------------------------------
 .byte   W96
@  #10 @013   ----------------------------------------
 .byte   W96
@  #10 @014   ----------------------------------------
 .byte   W96
@  #10 @015   ----------------------------------------
 .byte   W96
@  #10 @016   ----------------------------------------
 .byte   W96
@  #10 @017   ----------------------------------------
 .byte   W96
@  #10 @018   ----------------------------------------
 .byte   W96
@  #10 @019   ----------------------------------------
 .byte   W96
@  #10 @020   ----------------------------------------
 .byte   W96
@  #10 @021   ----------------------------------------
 .byte   W96
@  #10 @022   ----------------------------------------
 .byte   W96
@  #10 @023   ----------------------------------------
 .byte   W96
@  #10 @024   ----------------------------------------
 .byte   W96
@  #10 @025   ----------------------------------------
 .byte   W96
@  #10 @026   ----------------------------------------
 .byte   W96
@  #10 @027   ----------------------------------------
 .byte   W96
@  #10 @028   ----------------------------------------
Label_011B1A3A:
 .byte   N11 ,Gs3 ,v036
 .byte   W36
 .byte   N11
 .byte   W48
 .byte   Cs4
 .byte   W12
 .byte   PEND 
@  #10 @029   ----------------------------------------
Label_011B1A43:
 .byte   W12
 .byte   N11 ,Fs4 ,v036
 .byte   W24
 .byte   Ds4
 .byte   W36
 .byte   N11
 .byte   W24
 .byte   PEND 
@  #10 @030   ----------------------------------------
 .byte   PATT
  .word Label_011B1A3A
@  #10 @031   ----------------------------------------
 .byte   PATT
  .word Label_011B1A43
@  #10 @032   ----------------------------------------
 .byte   W96
@  #10 @033   ----------------------------------------
 .byte   W96
@  #10 @034   ----------------------------------------
 .byte   W96
@  #10 @035   ----------------------------------------
 .byte   W96
@  #10 @036   ----------------------------------------
 .byte   W96
@  #10 @037   ----------------------------------------
 .byte   W96
@  #10 @038   ----------------------------------------
 .byte   W96
@  #10 @039   ----------------------------------------
 .byte   W96
@  #10 @040   ----------------------------------------
 .byte   W96
@  #10 @041   ----------------------------------------
 .byte   W96
@  #10 @042   ----------------------------------------
 .byte   W96
@  #10 @043   ----------------------------------------
 .byte   W96
@  #10 @044   ----------------------------------------
 .byte   W96
@  #10 @045   ----------------------------------------
 .byte   W96
@  #10 @046   ----------------------------------------
 .byte   W96
@  #10 @047   ----------------------------------------
 .byte   W96
@  #10 @048   ----------------------------------------
 .byte   W96
@  #10 @049   ----------------------------------------
 .byte   W96
@  #10 @050   ----------------------------------------
 .byte   W96
@  #10 @051   ----------------------------------------
 .byte   W96
@  #10 @052   ----------------------------------------
 .byte   W96
@  #10 @053   ----------------------------------------
 .byte   W96
@  #10 @054   ----------------------------------------
 .byte   W96
@  #10 @055   ----------------------------------------
 .byte   W96
@  #10 @056   ----------------------------------------
 .byte   W96
@  #10 @057   ----------------------------------------
 .byte   W96
@  #10 @058   ----------------------------------------
 .byte   W96
@  #10 @059   ----------------------------------------
 .byte   W96
@  #10 @060   ----------------------------------------
 .byte   GOTO
  .word Label_011B1A3A
@  #10 @061   ----------------------------------------
 .byte   PATT
  .word Label_011B1A3A
@  #10 @062   ----------------------------------------
 .byte   PATT
  .word Label_011B1A43
@  #10 @063   ----------------------------------------
 .byte   PATT
  .word Label_011B1A3A
@  #10 @064   ----------------------------------------
 .byte   W12
 .byte   N11 ,Fs4 ,v036
 .byte   W24
 .byte   Ds4
 .byte   W36
 .byte   N11
 .byte   W11
 .byte   FINE

@**************** Track 11 (Midi-Chn.10) ****************@

song09_011:
@  #11 @000   ----------------------------------------
 .byte   KEYSH , song09_key+0
 .byte   VOICE , 127
 .byte   MODT 0
 .byte   LFOS 44
 .byte   VOL , 40*song09_mvl/mxv
 .byte   N11 ,Cn1 ,v036
 .byte   N05 ,En3
 .byte   N11 ,An3
 .byte   W06
 .byte   N05 ,Ds3
 .byte   W06
 .byte   En3
 .byte   N11 ,As3
 .byte   W12
 .byte   Dn1
 .byte   N11 ,Ds1
 .byte   N11 ,Fn1
 .byte   N11 ,An3
 .byte   W12
 .byte   N06 ,As3
 .byte   W06
 .byte   N05
 .byte   W06
 .byte   N06 ,En3
 .byte   W06
 .byte   N05 ,Dn3
 .byte   N05 ,En3
 .byte   W06
 .byte   N11 ,Cn1
 .byte   N11 ,En3
 .byte   N11 ,An3
 .byte   W12
 .byte   Dn1
 .byte   N11 ,Ds1
 .byte   N11 ,Fn1
 .byte   N11 ,En3
 .byte   N11 ,As3
 .byte   W12
 .byte   N11
 .byte   W12
@  #11 @001   ----------------------------------------
Label_013C193D:
 .byte   N11 ,Cn1 ,v036
 .byte   N05 ,En3
 .byte   N11 ,An3
 .byte   W06
 .byte   N05 ,Ds3
 .byte   W06
 .byte   En3
 .byte   N11 ,As3
 .byte   W12
 .byte   Dn1
 .byte   N11 ,Ds1
 .byte   N11 ,Fn1
 .byte   N11 ,An3
 .byte   W12
 .byte   N06 ,As3
 .byte   W06
 .byte   N05
 .byte   W06
 .byte   N06 ,En3
 .byte   W06
 .byte   N05 ,Dn3
 .byte   N05 ,En3
 .byte   W06
 .byte   N11 ,Cn1
 .byte   N11 ,En3
 .byte   N11 ,An3
 .byte   W12
 .byte   Dn1
 .byte   N11 ,Ds1
 .byte   N11 ,Fn1
 .byte   N11 ,En3
 .byte   N11 ,As3
 .byte   W12
 .byte   N11
 .byte   W12
 .byte   PEND 
@  #11 @002   ----------------------------------------
 .byte   PATT
  .word Label_013C193D
@  #11 @003   ----------------------------------------
Label_013C197A:
 .byte   N11 ,Cn1 ,v036
 .byte   N05 ,En3
 .byte   N11 ,An3
 .byte   W06
 .byte   N05 ,Ds3
 .byte   W06
 .byte   En3
 .byte   N11 ,As3
 .byte   W12
 .byte   Dn1
 .byte   N11 ,Ds1
 .byte   N11 ,Fn1
 .byte   N11 ,An3
 .byte   W12
 .byte   N06 ,As3
 .byte   W06
 .byte   N05
 .byte   W06
 .byte   N06 ,En3
 .byte   W06
 .byte   N05 ,Dn3
 .byte   N05 ,En3
 .byte   W06
 .byte   N11 ,Cn1
 .byte   N11 ,En3
 .byte   N11 ,An3
 .byte   W12
 .byte   Dn1
 .byte   N11 ,Ds1
 .byte   N11 ,Fn1
 .byte   N11 ,En3
 .byte   N11 ,As3
 .byte   W12
 .byte   Cn1
 .byte   N11 ,As3
 .byte   W12
 .byte   PEND 
@  #11 @004   ----------------------------------------
Label_013C19B4:
 .byte   N11 ,Cn1 ,v036
 .byte   N11 ,Gs1
 .byte   N23 ,Cs2
 .byte   N23 ,Gn2
 .byte   W12
 .byte   N11 ,Gs1
 .byte   W12
 .byte   Dn1
 .byte   N11 ,Ds1
 .byte   N11 ,Fn1
 .byte   N11 ,Fs1
 .byte   W12
 .byte   As1
 .byte   W12
 .byte   Gs1
 .byte   W12
 .byte   Cn1
 .byte   N11 ,Gs1
 .byte   W12
 .byte   Dn1
 .byte   N11 ,Ds1
 .byte   N11 ,Fn1
 .byte   N11 ,Fs1
 .byte   W12
 .byte   As1
 .byte   W12
 .byte   PEND 
@  #11 @005   ----------------------------------------
Label_013C19DC:
 .byte   N11 ,Cn1 ,v036
 .byte   N11 ,Gs1
 .byte   W12
 .byte   N11
 .byte   W12
 .byte   Dn1
 .byte   N11 ,Ds1
 .byte   N11 ,Fn1
 .byte   N11 ,Fs1
 .byte   W12
 .byte   As1
 .byte   W12
 .byte   Gs1
 .byte   W12
 .byte   Cn1
 .byte   N11 ,Gs1
 .byte   W12
 .byte   Dn1
 .byte   N11 ,Ds1
 .byte   N11 ,Fn1
 .byte   N11 ,Fs1
 .byte   W12
 .byte   As1
 .byte   W12
 .byte   PEND 
@  #11 @006   ----------------------------------------
 .byte   PATT
  .word Label_013C19DC
@  #11 @007   ----------------------------------------
 .byte   PATT
  .word Label_013C19DC
@  #11 @008   ----------------------------------------
 .byte   PATT
  .word Label_013C19DC
@  #11 @009   ----------------------------------------
 .byte   PATT
  .word Label_013C19DC
@  #11 @010   ----------------------------------------
 .byte   PATT
  .word Label_013C19DC
@  #11 @011   ----------------------------------------
Label_013C1A18:
 .byte   N05 ,En3 ,v036
 .byte   W01
 .byte   N11 ,Cn1
 .byte   N11 ,Gs1
 .byte   W05
 .byte   N05 ,Ds3
 .byte   W06
 .byte   Dn3
 .byte   N05 ,En3
 .byte   W01
 .byte   N11 ,Gs1
 .byte   W11
 .byte   Dn3
 .byte   W01
 .byte   Dn1
 .byte   N11 ,Ds1
 .byte   N11 ,Fn1
 .byte   N11 ,Fs1
 .byte   W11
 .byte   Dn3
 .byte   W01
 .byte   As1
 .byte   W11
 .byte   Cn1
 .byte   N05 ,En3
 .byte   W01
 .byte   N11 ,Gs1
 .byte   W05
 .byte   N05 ,Dn1
 .byte   N05 ,En1
 .byte   N05 ,Dn3
 .byte   N05 ,En3
 .byte   W06
 .byte   Dn1
 .byte   N05 ,En1
 .byte   N05 ,Ds3
 .byte   W01
 .byte   N11 ,Gs1
 .byte   W11
 .byte   N05 ,Dn3
 .byte   N05 ,En3
 .byte   W01
 .byte   N11 ,Dn1
 .byte   N11 ,Ds1
 .byte   N11 ,Fn1
 .byte   N11 ,Fs1
 .byte   W12
 .byte   As1
 .byte   W11
 .byte   PEND 
@  #11 @012   ----------------------------------------
Label_013C1A63:
 .byte   N23 ,Cs2 ,v036
 .byte   N23 ,Gn2
 .byte   N05 ,En3
 .byte   W01
 .byte   N11 ,Cn1
 .byte   N11 ,Gs1
 .byte   W05
 .byte   N05 ,Ds3
 .byte   W06
 .byte   Dn3
 .byte   N05 ,En3
 .byte   W01
 .byte   N11 ,Gs1
 .byte   W12
 .byte   Dn1
 .byte   N11 ,Ds1
 .byte   N11 ,Fn1
 .byte   N11 ,Fs1
 .byte   W12
 .byte   As1
 .byte   W11
 .byte   N05 ,En3
 .byte   W01
 .byte   N11 ,Gs1
 .byte   W05
 .byte   N05 ,Dn3
 .byte   N05 ,En3
 .byte   W06
 .byte   N11 ,Cn1
 .byte   N05 ,Ds3
 .byte   W01
 .byte   N11 ,Gs1
 .byte   W11
 .byte   N05 ,Dn3
 .byte   N05 ,En3
 .byte   W01
 .byte   N11 ,Dn1
 .byte   N11 ,Ds1
 .byte   N11 ,Fn1
 .byte   N11 ,Fs1
 .byte   W12
 .byte   As1
 .byte   W11
 .byte   PEND 
@  #11 @013   ----------------------------------------
Label_013C1AA8:
 .byte   N05 ,En3 ,v036
 .byte   W01
 .byte   N11 ,Cn1
 .byte   N11 ,Gs1
 .byte   W05
 .byte   N05 ,Ds3
 .byte   W06
 .byte   Dn3
 .byte   N05 ,En3
 .byte   W01
 .byte   N11 ,Gs1
 .byte   W12
 .byte   Dn1
 .byte   N11 ,Ds1
 .byte   N11 ,Fn1
 .byte   N11 ,Fs1
 .byte   W12
 .byte   As1
 .byte   W11
 .byte   N05 ,En3
 .byte   W01
 .byte   N11 ,Gs1
 .byte   W05
 .byte   N05 ,Dn3
 .byte   N05 ,En3
 .byte   W06
 .byte   N11 ,Cn1
 .byte   N05 ,Ds3
 .byte   W01
 .byte   N11 ,Gs1
 .byte   W11
 .byte   N05 ,Dn3
 .byte   N05 ,En3
 .byte   W01
 .byte   N11 ,Dn1
 .byte   N11 ,Ds1
 .byte   N11 ,Fn1
 .byte   N11 ,Fs1
 .byte   W12
 .byte   As1
 .byte   W11
 .byte   PEND 
@  #11 @014   ----------------------------------------
 .byte   PATT
  .word Label_013C1AA8
@  #11 @015   ----------------------------------------
 .byte   PATT
  .word Label_013C1AA8
@  #11 @016   ----------------------------------------
 .byte   PATT
  .word Label_013C1AA8
@  #11 @017   ----------------------------------------
 .byte   PATT
  .word Label_013C1AA8
@  #11 @018   ----------------------------------------
 .byte   PATT
  .word Label_013C1AA8
@  #11 @019   ----------------------------------------
Label_013C1B02:
 .byte   N23 ,Cs2 ,v036
 .byte   N23 ,Gn2
 .byte   N05 ,En3
 .byte   W01
 .byte   N11 ,Cn1
 .byte   N11 ,Gs1
 .byte   W05
 .byte   N05 ,Ds3
 .byte   W06
 .byte   Dn3
 .byte   N05 ,En3
 .byte   W01
 .byte   N11 ,Gs1
 .byte   W11
 .byte   Dn3
 .byte   W01
 .byte   Dn1
 .byte   N11 ,Ds1
 .byte   N11 ,Fn1
 .byte   N11 ,Fs1
 .byte   W11
 .byte   Dn3
 .byte   W01
 .byte   As1
 .byte   W11
 .byte   Cn1
 .byte   N05 ,En3
 .byte   W01
 .byte   N11 ,Gs1
 .byte   W05
 .byte   N05 ,Dn1
 .byte   N05 ,En1
 .byte   N05 ,Dn3
 .byte   N05 ,En3
 .byte   W06
 .byte   Dn1
 .byte   N05 ,En1
 .byte   N05 ,Ds3
 .byte   W01
 .byte   N11 ,Gs1
 .byte   W11
 .byte   N05 ,Dn3
 .byte   N05 ,En3
 .byte   W01
 .byte   N11 ,Dn1
 .byte   N11 ,Ds1
 .byte   N11 ,Fn1
 .byte   N11 ,Fs1
 .byte   W12
 .byte   As1
 .byte   W11
 .byte   PEND 
@  #11 @020   ----------------------------------------
Label_013C1B51:
 .byte   N11 ,Cn1 ,v036
 .byte   N23 ,Cs2
 .byte   N23 ,Gn2
 .byte   W24
 .byte   N11 ,Dn1
 .byte   N11 ,Ds1
 .byte   N11 ,Fn1
 .byte   N11 ,An3
 .byte   W06
 .byte   N05 ,As3
 .byte   W06
 .byte   N05
 .byte   W06
 .byte   An3
 .byte   N05 ,As3
 .byte   W12
 .byte   N05
 .byte   W06
 .byte   N11 ,Cn1
 .byte   N05 ,As3
 .byte   W06
 .byte   N05
 .byte   W06
 .byte   N11 ,Dn1
 .byte   N11 ,Ds1
 .byte   N11 ,Fn1
 .byte   N05 ,An3
 .byte   N05 ,As3
 .byte   W06
 .byte   N05
 .byte   W06
 .byte   An3
 .byte   N05 ,As3
 .byte   W06
 .byte   N05
 .byte   W06
 .byte   PEND 
@  #11 @021   ----------------------------------------
Label_013C1B88:
 .byte   N11 ,Cn1 ,v036
 .byte   W12
 .byte   N05 ,As3
 .byte   W06
 .byte   N05
 .byte   W06
 .byte   N11 ,Dn1
 .byte   N11 ,Ds1
 .byte   N11 ,Fn1
 .byte   N11 ,An3
 .byte   W06
 .byte   N05 ,As3
 .byte   W06
 .byte   N05
 .byte   W06
 .byte   An3
 .byte   N05 ,As3
 .byte   W12
 .byte   N05
 .byte   W06
 .byte   N11 ,Cn1
 .byte   N05 ,As3
 .byte   W06
 .byte   N05
 .byte   W06
 .byte   N11 ,Dn1
 .byte   N11 ,Ds1
 .byte   N11 ,Fn1
 .byte   N05 ,An3
 .byte   N05 ,As3
 .byte   W06
 .byte   N05
 .byte   W06
 .byte   An3
 .byte   N05 ,As3
 .byte   W12
 .byte   PEND 
@  #11 @022   ----------------------------------------
 .byte   PATT
  .word Label_013C1B88
@  #11 @023   ----------------------------------------
 .byte   PATT
  .word Label_013C1B88
@  #11 @024   ----------------------------------------
Label_013C1BC8:
 .byte   N11 ,Cn1 ,v036
 .byte   N05 ,Cs2
 .byte   N23 ,Gn2
 .byte   W12
 .byte   N05 ,As3
 .byte   W06
 .byte   N05
 .byte   W06
 .byte   N11 ,Dn1
 .byte   N11 ,Ds1
 .byte   N11 ,Fn1
 .byte   N11 ,An3
 .byte   W06
 .byte   N05 ,As3
 .byte   W06
 .byte   N05
 .byte   W06
 .byte   An3
 .byte   N05 ,As3
 .byte   W12
 .byte   N05
 .byte   W06
 .byte   N11 ,Cn1
 .byte   N05 ,As3
 .byte   W06
 .byte   N05
 .byte   W06
 .byte   N11 ,Dn1
 .byte   N11 ,Ds1
 .byte   N11 ,Fn1
 .byte   N05 ,An3
 .byte   N05 ,As3
 .byte   W06
 .byte   N05
 .byte   W06
 .byte   An3
 .byte   N05 ,As3
 .byte   W12
 .byte   PEND 
@  #11 @025   ----------------------------------------
 .byte   PATT
  .word Label_013C1B88
@  #11 @026   ----------------------------------------
Label_013C1C07:
 .byte   N11 ,Cn1 ,v036
 .byte   W12
 .byte   N05 ,As3
 .byte   W06
 .byte   N05
 .byte   W06
 .byte   N11 ,Dn1
 .byte   N11 ,Ds1
 .byte   N11 ,Fn1
 .byte   N11 ,An3
 .byte   W06
 .byte   N05 ,As3
 .byte   W06
 .byte   N05
 .byte   W06
 .byte   An3
 .byte   N05 ,As3
 .byte   W12
 .byte   N05
 .byte   W06
 .byte   N11 ,Cn1
 .byte   N05 ,As3
 .byte   W06
 .byte   N05
 .byte   W06
 .byte   N11 ,Dn1
 .byte   N11 ,Ds1
 .byte   N11 ,Fn1
 .byte   N23 ,Cs2
 .byte   N23 ,Gn2
 .byte   N05 ,An3
 .byte   N05 ,As3
 .byte   W06
 .byte   N05
 .byte   W06
 .byte   An3
 .byte   N05 ,As3
 .byte   W12
 .byte   PEND 
@  #11 @027   ----------------------------------------
Label_013C1C41:
 .byte   N23 ,Gn2 ,v036
 .byte   N23 ,An2
 .byte   W01
 .byte   N11 ,Cn1
 .byte   W11
 .byte   N05 ,As3
 .byte   W06
 .byte   N05
 .byte   W07
 .byte   N11 ,Dn1
 .byte   N11 ,Ds1
 .byte   N11 ,Fn1
 .byte   N11 ,An3
 .byte   W06
 .byte   N05 ,As3
 .byte   W05
 .byte   Cn2
 .byte   N06 ,Dn2
 .byte   W01
 .byte   N05 ,As3
 .byte   W05
 .byte   Dn2
 .byte   W01
 .byte   An3
 .byte   N05 ,As3
 .byte   W05
 .byte   N06 ,Cn2
 .byte   W06
 .byte   N05
 .byte   W01
 .byte   As3
 .byte   W05
 .byte   N06 ,Bn1
 .byte   W01
 .byte   N11 ,Cn1
 .byte   N05 ,As3
 .byte   W05
 .byte   Bn1
 .byte   W01
 .byte   As3
 .byte   W05
 .byte   N06 ,An1
 .byte   W01
 .byte   N11 ,Dn1
 .byte   N11 ,Ds1
 .byte   N11 ,Fn1
 .byte   N05 ,An3
 .byte   N05 ,As3
 .byte   W05
 .byte   An1
 .byte   W01
 .byte   As3
 .byte   W05
 .byte   N11 ,Gn1
 .byte   W01
 .byte   N05 ,An3
 .byte   N05 ,As3
 .byte   W11
 .byte   PEND 
@  #11 @028   ----------------------------------------
Label_013C1C96:
 .byte   N11 ,Cn1 ,v036
 .byte   N11 ,Ds2
 .byte   N05 ,Bn2
 .byte   W12
 .byte   N05
 .byte   W12
 .byte   N23 ,Dn1
 .byte   N23 ,En1
 .byte   N05 ,Bn2
 .byte   W12
 .byte   N05
 .byte   W12
 .byte   N05
 .byte   W12
 .byte   N11 ,Cn1
 .byte   N11 ,Ds2
 .byte   N05 ,Bn2
 .byte   W12
 .byte   N23 ,Dn1
 .byte   N23 ,En1
 .byte   N05 ,Bn2
 .byte   W12
 .byte   N05
 .byte   W12
 .byte   PEND 
@  #11 @029   ----------------------------------------
Label_013C1CBC:
 .byte   N11 ,Cn1 ,v036
 .byte   N05 ,Bn2
 .byte   W12
 .byte   N05
 .byte   W12
 .byte   N23 ,Dn1
 .byte   N23 ,En1
 .byte   N11 ,Ds2
 .byte   N05 ,Bn2
 .byte   W12
 .byte   N05
 .byte   W12
 .byte   N05
 .byte   W06
 .byte   N05
 .byte   W06
 .byte   N11 ,Cn1
 .byte   N11 ,Ds2
 .byte   N05 ,Bn2
 .byte   W12
 .byte   N23 ,Dn1
 .byte   N11 ,En1
 .byte   N05 ,Bn2
 .byte   W12
 .byte   N05
 .byte   W12
 .byte   PEND 
@  #11 @030   ----------------------------------------
 .byte   PATT
  .word Label_013C1C96
@  #11 @031   ----------------------------------------
 .byte   PATT
  .word Label_013C1CBC
@  #11 @032   ----------------------------------------
 .byte   PATT
  .word Label_013C193D
@  #11 @033   ----------------------------------------
 .byte   PATT
  .word Label_013C193D
@  #11 @034   ----------------------------------------
 .byte   PATT
  .word Label_013C193D
@  #11 @035   ----------------------------------------
 .byte   PATT
  .word Label_013C197A
@  #11 @036   ----------------------------------------
 .byte   PATT
  .word Label_013C19B4
@  #11 @037   ----------------------------------------
 .byte   PATT
  .word Label_013C19DC
@  #11 @038   ----------------------------------------
 .byte   PATT
  .word Label_013C19DC
@  #11 @039   ----------------------------------------
 .byte   PATT
  .word Label_013C19DC
@  #11 @040   ----------------------------------------
 .byte   PATT
  .word Label_013C19DC
@  #11 @041   ----------------------------------------
 .byte   PATT
  .word Label_013C19DC
@  #11 @042   ----------------------------------------
 .byte   PATT
  .word Label_013C19DC
@  #11 @043   ----------------------------------------
 .byte   PATT
  .word Label_013C1A18
@  #11 @044   ----------------------------------------
 .byte   PATT
  .word Label_013C1A63
@  #11 @045   ----------------------------------------
 .byte   PATT
  .word Label_013C1AA8
@  #11 @046   ----------------------------------------
 .byte   PATT
  .word Label_013C1AA8
@  #11 @047   ----------------------------------------
 .byte   PATT
  .word Label_013C1AA8
@  #11 @048   ----------------------------------------
 .byte   PATT
  .word Label_013C1AA8
@  #11 @049   ----------------------------------------
 .byte   PATT
  .word Label_013C1AA8
@  #11 @050   ----------------------------------------
 .byte   PATT
  .word Label_013C1AA8
@  #11 @051   ----------------------------------------
 .byte   PATT
  .word Label_013C1B02
@  #11 @052   ----------------------------------------
 .byte   PATT
  .word Label_013C1B51
@  #11 @053   ----------------------------------------
 .byte   PATT
  .word Label_013C1B88
@  #11 @054   ----------------------------------------
 .byte   PATT
  .word Label_013C1B88
@  #11 @055   ----------------------------------------
 .byte   PATT
  .word Label_013C1B88
@  #11 @056   ----------------------------------------
 .byte   PATT
  .word Label_013C1BC8
@  #11 @057   ----------------------------------------
 .byte   PATT
  .word Label_013C1B88
@  #11 @058   ----------------------------------------
 .byte   PATT
  .word Label_013C1C07
@  #11 @059   ----------------------------------------
 .byte   PATT
  .word Label_013C1C41
@  #11 @060   ----------------------------------------
 .byte   GOTO
  .word Label_013C1C96
@  #11 @061   ----------------------------------------
 .byte   PATT
  .word Label_013C1C96
@  #11 @062   ----------------------------------------
 .byte   PATT
  .word Label_013C1CBC
@  #11 @063   ----------------------------------------
 .byte   PATT
  .word Label_013C1C96
@  #11 @064   ----------------------------------------
 .byte   N11 ,Cn1 ,v036
 .byte   N05 ,Bn2
 .byte   W12
 .byte   N05
 .byte   W12
 .byte   N23 ,Dn1
 .byte   N23 ,En1
 .byte   N11 ,Ds2
 .byte   N05 ,Bn2
 .byte   W12
 .byte   N05
 .byte   W12
 .byte   N05
 .byte   W06
 .byte   N05
 .byte   W06
 .byte   N11 ,Cn1
 .byte   N11 ,Ds2
 .byte   N05 ,Bn2
 .byte   W12
 .byte   N23 ,Dn1
 .byte   N11 ,En1
 .byte   N05 ,Bn2
 .byte   W12
 .byte   N05
 .byte   W11
 .byte   FINE

@******************************************************@
	.align	2

song09:
	.byte	11	@ NumTrks
	.byte	0	@ NumBlks
	.byte	song09_pri	@ Priority
	.byte	song09_rev	@ Reverb.
    
	.word	song09_grp
    
	.word	song09_001
	.word	song09_002
	.word	song09_003
	.word	song09_004
	.word	song09_005
	.word	song09_006
	.word	song09_007
	.word	song09_008
	.word	song09_009
	.word	song09_010
	.word	song09_011

	.end
