	.include "MPlayDef.s"

	.equ	song02A0_grp, voicegroup000
	.equ	song02A0_pri, 0
	.equ	song02A0_rev, 128
	.equ	song02A0_mvl, 127
	.equ	song02A0_key, 0
	.equ	song02A0_tbs, 1
	.equ	song02A0_exg, 0
	.equ	song02A0_cmp, 1

	.section .rodata
	.global	song02A0
	.align	2


@**************** Track 1 (Midi-Chn.0) ****************@

song02A0_001:
@ 000   ----------------------------------------
 .byte   KEYSH , song02A0_key+0
Label_0_0190482E:
 .byte   TEMPO , 174*song02A0_tbs/2
 .byte   VOICE , 80
 .byte   PAN , c_v+0
 .byte   VOL , 70*song02A0_mvl/mxv
 .byte   N09 ,Cs3 ,v080
 .byte   W12
 .byte   N04 ,En3
 .byte   W06
 .byte   N04
 .byte   W06
 .byte   N09
 .byte   W12
 .byte   N04
 .byte   W06
 .byte   N04
 .byte   W06
 .byte   N11
 .byte   W12
 .byte   Cs3
 .byte   W24
 .byte   N04
 .byte   W06
 .byte   N04
 .byte   W06
@ 001   ----------------------------------------
Label_0_0190484D:
 .byte   N09 ,En3 ,v080
 .byte   W12
 .byte   N04
 .byte   W06
 .byte   N04
 .byte   W06
 .byte   N09
 .byte   W12
 .byte   Cs3
 .byte   W24
 .byte   Gs3
 .byte   W12
 .byte   Fs3
 .byte   W12
 .byte   Gs3
 .byte   W12
 .byte   PEND 
@ 002   ----------------------------------------
Label_0_01904860:
 .byte   W12
 .byte   N04 ,En3 ,v080
 .byte   W06
 .byte   N04
 .byte   W06
 .byte   N09
 .byte   W12
 .byte   N04
 .byte   W06
 .byte   N04
 .byte   W06
 .byte   N09
 .byte   W12
 .byte   Cs3
 .byte   W24
 .byte   Gs3
 .byte   W12
 .byte   PEND 
@ 003   ----------------------------------------
Label_0_01904874:
 .byte   W12
 .byte   N09 ,Fs3 ,v080
 .byte   W24
 .byte   En3
 .byte   W24
 .byte   Fs3
 .byte   W36
 .byte   PEND 
@ 004   ----------------------------------------
Label_0_0190487E:
 .byte   W12
 .byte   N04 ,Fs3 ,v080
 .byte   W06
 .byte   N04
 .byte   W06
 .byte   N09
 .byte   W12
 .byte   N04
 .byte   W06
 .byte   N04
 .byte   W06
 .byte   N09
 .byte   W12
 .byte   Ds3
 .byte   W24
 .byte   Gs3
 .byte   W12
 .byte   PEND 
@ 005   ----------------------------------------
Label_0_01904892:
 .byte   W12
 .byte   N09 ,Fs3 ,v080
 .byte   W24
 .byte   En3
 .byte   W24
 .byte   Ds3
 .byte   W24
 .byte   Cs3
 .byte   W12
 .byte   PEND 
@ 006   ----------------------------------------
Label_0_0190489E:
 .byte   W12
 .byte   N09 ,Cs3 ,v080
 .byte   W12
 .byte   Gs3
 .byte   W12
 .byte   Bn3
 .byte   W12
 .byte   N30 ,As3
 .byte   W36
 .byte   N09 ,Cs3
 .byte   W12
 .byte   PEND 
@ 007   ----------------------------------------
 .byte   W12
 .byte   N09
 .byte   W12
 .byte   Gs3
 .byte   W12
 .byte   Bn3
 .byte   W12
 .byte   N23 ,As3
 .byte   W24
 .byte   N09 ,Ds4
 .byte   W12
 .byte   En4
 .byte   W12
@ 008   ----------------------------------------
 .byte   W12
 .byte   N04 ,En3
 .byte   W06
 .byte   N04
 .byte   W06
 .byte   N09
 .byte   W12
 .byte   N04
 .byte   W06
 .byte   N04
 .byte   W06
 .byte   N11
 .byte   W12
 .byte   Cs3
 .byte   W24
 .byte   N04
 .byte   W06
 .byte   N04
 .byte   W06
@ 009   ----------------------------------------
 .byte   PATT
  .word Label_0_0190484D
@ 010   ----------------------------------------
 .byte   PATT
  .word Label_0_01904860
@ 011   ----------------------------------------
 .byte   PATT
  .word Label_0_01904874
@ 012   ----------------------------------------
 .byte   PATT
  .word Label_0_0190487E
@ 013   ----------------------------------------
 .byte   PATT
  .word Label_0_01904892
@ 014   ----------------------------------------
 .byte   PATT
  .word Label_0_0190489E
@ 015   ----------------------------------------
 .byte   W12
 .byte   N09 ,Cs3 ,v080
 .byte   W12
 .byte   Gs3
 .byte   W12
 .byte   Bn3
 .byte   W12
 .byte   N23 ,As3
 .byte   W24
 .byte   N09 ,Bn3
 .byte   W12
 .byte   N68 ,Cs4
 .byte   W12
@ 016   ----------------------------------------
Label_0_01904901:
 .byte   W72
 .byte   N09 ,Bn3 ,v080
 .byte   W12
 .byte   N21 ,En4
 .byte   W12
 .byte   PEND 
@ 017   ----------------------------------------
Label_0_0190490A:
 .byte   W12
 .byte   N19 ,Cs4 ,v080
 .byte   W24
 .byte   Bn3
 .byte   W24
 .byte   Cs4
 .byte   W24
 .byte   N48 ,Bn3
 .byte   W12
 .byte   PEND 
@ 018   ----------------------------------------
Label_0_01904917:
 .byte   W48
 .byte   N09 ,Bn3 ,v080
 .byte   W12
 .byte   N32 ,Cs4
 .byte   W36
 .byte   PEND 
@ 019   ----------------------------------------
Label_0_01904920:
 .byte   N09 ,Gs3 ,v080
 .byte   W12
 .byte   An3
 .byte   W12
 .byte   Gs3
 .byte   W12
 .byte   En3
 .byte   W24
 .byte   N09
 .byte   W12
 .byte   Gs3
 .byte   W12
 .byte   Bn3
 .byte   W12
 .byte   PEND 
@ 020   ----------------------------------------
Label_0_01904931:
 .byte   N56 ,Cs4 ,v080
 .byte   W72
 .byte   N09 ,Bn3
 .byte   W12
 .byte   N21 ,En4
 .byte   W12
 .byte   PEND 
@ 021   ----------------------------------------
Label_0_0190493C:
 .byte   W12
 .byte   N19 ,Cs4 ,v080
 .byte   W24
 .byte   Bn3
 .byte   W24
 .byte   Cs4
 .byte   W24
 .byte   N56 ,Bn3
 .byte   W12
 .byte   PEND 
@ 022   ----------------------------------------
Label_0_01904949:
 .byte   W48
 .byte   N09 ,Bn3 ,v080
 .byte   W12
 .byte   Gs3
 .byte   W12
 .byte   Bn3
 .byte   W12
 .byte   Cn4
 .byte   W12
 .byte   PEND 
@ 023   ----------------------------------------
 .byte   W12
 .byte   N09
 .byte   W12
 .byte   N09
 .byte   W12
 .byte   Ds4
 .byte   W12
 .byte   N44 ,Gs4
 .byte   W48
@ 024   ----------------------------------------
 .byte   N56 ,Gs2
 .byte   W72
 .byte   N09 ,Fs2
 .byte   W12
 .byte   N21 ,Bn2
 .byte   W12
@ 025   ----------------------------------------
 .byte   W12
 .byte   N19 ,An2
 .byte   W24
 .byte   Gs2
 .byte   W24
 .byte   An2
 .byte   W24
 .byte   N68 ,Gs2
 .byte   W12
@ 026   ----------------------------------------
 .byte   W72
 .byte   N09 ,Fs2
 .byte   W12
 .byte   N21 ,Bn2
 .byte   W12
@ 027   ----------------------------------------
 .byte   W12
 .byte   N19 ,An2
 .byte   W24
 .byte   Gs2
 .byte   W24
 .byte   An2
 .byte   W24
 .byte   N48 ,En2
 .byte   W12
@ 028   ----------------------------------------
 .byte   W48
 .byte   N09
 .byte   W12
 .byte   Fs2
 .byte   W12
 .byte   Gs2
 .byte   W12
 .byte   N92 ,Ds2
 .byte   W12
@ 029   ----------------------------------------
 .byte   W84
 .byte   N09 ,Cs3
 .byte   W12
@ 030   ----------------------------------------
 .byte   W12
 .byte   N09
 .byte   W12
 .byte   Gs3
 .byte   W12
 .byte   Bn3
 .byte   W12
 .byte   N32 ,As3
 .byte   W36
 .byte   N09 ,Cs3
 .byte   W12
@ 031   ----------------------------------------
 .byte   W12
 .byte   N09
 .byte   W12
 .byte   Gs3
 .byte   W12
 .byte   Bn3
 .byte   W12
 .byte   As3
 .byte   W24
 .byte   Bn3
 .byte   W12
 .byte   N48 ,Cs4
 .byte   W12
@ 032   ----------------------------------------
 .byte   W48
 .byte   N19
 .byte   W24
 .byte   N09 ,Bn3
 .byte   W12
 .byte   Cs4
 .byte   W12
@ 033   ----------------------------------------
 .byte   W12
 .byte   N32 ,En4
 .byte   W36
 .byte   N09 ,Gs4
 .byte   W12
 .byte   Fs4
 .byte   W12
 .byte   En4
 .byte   W12
 .byte   Ds4
 .byte   W12
@ 034   ----------------------------------------
 .byte   N36 ,Cs4
 .byte   W48
 .byte   N19
 .byte   W24
 .byte   N09 ,Bn3
 .byte   W12
 .byte   Cs4
 .byte   W12
@ 035   ----------------------------------------
 .byte   W12
 .byte   N32 ,En4
 .byte   W36
 .byte   N09
 .byte   W12
 .byte   Fs4
 .byte   W12
 .byte   N22 ,En4
 .byte   W24
@ 036   ----------------------------------------
 .byte   N36 ,Ds4
 .byte   W48
 .byte   N09
 .byte   W12
 .byte   Cs4
 .byte   W12
 .byte   Bn3
 .byte   W12
 .byte   N21 ,Gs4
 .byte   W12
@ 037   ----------------------------------------
 .byte   W12
 .byte   N19 ,Fs4
 .byte   W24
 .byte   En4
 .byte   W24
 .byte   Ds4
 .byte   W36
@ 038   ----------------------------------------
 .byte   N09
 .byte   W12
 .byte   En4
 .byte   W12
 .byte   Ds4
 .byte   W12
 .byte   N40 ,Cs4
 .byte   W48
 .byte   N09 ,Cs3
 .byte   W12
@ 039   ----------------------------------------
 .byte   W12
 .byte   N09
 .byte   W12
 .byte   Gs3
 .byte   W12
 .byte   Bn3
 .byte   W12
 .byte   As3
 .byte   W24
 .byte   Bn3
 .byte   W12
 .byte   N68 ,Cs4
 .byte   W12
@ 040   ----------------------------------------
 .byte   PATT
  .word Label_0_01904901
@ 041   ----------------------------------------
 .byte   PATT
  .word Label_0_0190490A
@ 042   ----------------------------------------
 .byte   PATT
  .word Label_0_01904917
@ 043   ----------------------------------------
 .byte   PATT
  .word Label_0_01904920
@ 044   ----------------------------------------
 .byte   PATT
  .word Label_0_01904931
@ 045   ----------------------------------------
 .byte   PATT
  .word Label_0_0190493C
@ 046   ----------------------------------------
 .byte   PATT
  .word Label_0_01904949
@ 047   ----------------------------------------
 .byte   W12
 .byte   N09 ,Cn4 ,v080
 .byte   W12
 .byte   N09
 .byte   W12
 .byte   Ds4
 .byte   W12
 .byte   N28 ,Gs4
 .byte   W36
 .byte   N21 ,En3
 .byte   W12
@ 048   ----------------------------------------
Label_0_01904A38:
 .byte   W12
 .byte   N09 ,En3 ,v080
 .byte   W12
 .byte   N09
 .byte   W12
 .byte   Ds3
 .byte   W12
 .byte   N19 ,En3
 .byte   W24
 .byte   N09 ,Cs4
 .byte   W12
 .byte   N23 ,Bn3
 .byte   W12
 .byte   PEND 
@ 049   ----------------------------------------
 .byte   W12
 .byte   N19 ,An3
 .byte   W24
 .byte   Gs3
 .byte   W24
 .byte   Fs3
 .byte   W24
 .byte   N09
 .byte   W12
@ 050   ----------------------------------------
 .byte   W12
 .byte   Gs3
 .byte   W12
 .byte   N09
 .byte   W24
 .byte   N09
 .byte   W36
 .byte   Fs3
 .byte   W12
@ 051   ----------------------------------------
 .byte   W12
 .byte   Gs3
 .byte   W12
 .byte   N09
 .byte   W24
 .byte   N09
 .byte   W24
 .byte   Fs3
 .byte   W12
 .byte   En3
 .byte   W12
@ 052   ----------------------------------------
 .byte   PATT
  .word Label_0_01904A38
@ 053   ----------------------------------------
 .byte   W12
 .byte   N19 ,An3 ,v080
 .byte   W24
 .byte   Gs3
 .byte   W24
 .byte   Fs3
 .byte   W36
@ 054   ----------------------------------------
 .byte   N09 ,Ds3
 .byte   W12
 .byte   En3
 .byte   W12
 .byte   Ds3
 .byte   W12
 .byte   TIE ,Cs3
 .byte   W60
@ 055   ----------------------------------------
 .byte   W76
 .byte   EOT
 .byte   W20
@ 056   ----------------------------------------
 .byte   GOTO
  .word Label_0_0190482E
@ 057   ----------------------------------------
 .byte   W96
@ 058   ----------------------------------------
 .byte   W96
@ 059   ----------------------------------------
 .byte   W96
@ 060   ----------------------------------------
 .byte   W96
@ 061   ----------------------------------------
 .byte   W96
@ 062   ----------------------------------------
 .byte   W96
@ 063   ----------------------------------------
 .byte   W96
@ 064   ----------------------------------------
 .byte   W96
@ 065   ----------------------------------------
 .byte   W96
@ 066   ----------------------------------------
 .byte   W96
@ 067   ----------------------------------------
 .byte   W96
@ 068   ----------------------------------------
 .byte   W96
@ 069   ----------------------------------------
 .byte   W96
@ 070   ----------------------------------------
 .byte   W96
@ 071   ----------------------------------------
 .byte   W96
@ 072   ----------------------------------------
 .byte   W96
@ 073   ----------------------------------------
 .byte   W96
@ 074   ----------------------------------------
 .byte   W96
@ 075   ----------------------------------------
 .byte   W96
@ 076   ----------------------------------------
 .byte   W96
@ 077   ----------------------------------------
 .byte   W96
@ 078   ----------------------------------------
 .byte   W96
@ 079   ----------------------------------------
 .byte   W96
@ 080   ----------------------------------------
 .byte   W96
@ 081   ----------------------------------------
 .byte   W96
@ 082   ----------------------------------------
 .byte   W96
@ 083   ----------------------------------------
 .byte   W96
@ 084   ----------------------------------------
 .byte   W96
@ 085   ----------------------------------------
 .byte   W96
@ 086   ----------------------------------------
 .byte   W96
@ 087   ----------------------------------------
 .byte   W96
@ 088   ----------------------------------------
 .byte   W96
@ 089   ----------------------------------------
 .byte   W96
@ 090   ----------------------------------------
 .byte   W96
@ 091   ----------------------------------------
 .byte   W96
@ 092   ----------------------------------------
 .byte   W96
@ 093   ----------------------------------------
 .byte   W96
@ 094   ----------------------------------------
 .byte   W96
@ 095   ----------------------------------------
 .byte   W96
@ 096   ----------------------------------------
 .byte   W96
@ 097   ----------------------------------------
 .byte   W96
@ 098   ----------------------------------------
 .byte   W96
@ 099   ----------------------------------------
 .byte   W96
@ 100   ----------------------------------------
 .byte   W96
@ 101   ----------------------------------------
 .byte   W96
@ 102   ----------------------------------------
 .byte   W96
@ 103   ----------------------------------------
 .byte   W96
@ 104   ----------------------------------------
 .byte   W96
@ 105   ----------------------------------------
 .byte   W96
@ 106   ----------------------------------------
 .byte   W96
@ 107   ----------------------------------------
 .byte   W96
@ 108   ----------------------------------------
 .byte   W96
@ 109   ----------------------------------------
 .byte   W96
@ 110   ----------------------------------------
 .byte   W96
@ 111   ----------------------------------------
 .byte   W96
@ 112   ----------------------------------------
 .byte   W96
@ 113   ----------------------------------------
 .byte   W96
@ 114   ----------------------------------------
 .byte   W96
@ 115   ----------------------------------------
 .byte   W96
@ 116   ----------------------------------------
 .byte   W96
@ 117   ----------------------------------------
 .byte   W96
@ 118   ----------------------------------------
 .byte   W96
@ 119   ----------------------------------------
 .byte   W96
@ 120   ----------------------------------------
 .byte   W96
@ 121   ----------------------------------------
 .byte   W96
@ 122   ----------------------------------------
 .byte   W96
@ 123   ----------------------------------------
 .byte   W96
@ 124   ----------------------------------------
 .byte   W96
@ 125   ----------------------------------------
 .byte   W96
@ 126   ----------------------------------------
 .byte   W96
@ 127   ----------------------------------------
 .byte   W96
@ 128   ----------------------------------------
 .byte   W96
@ 129   ----------------------------------------
 .byte   W96
@ 130   ----------------------------------------
 .byte   W96
@ 131   ----------------------------------------
 .byte   W96
@ 132   ----------------------------------------
 .byte   W96
@ 133   ----------------------------------------
 .byte   W96
@ 134   ----------------------------------------
 .byte   W96
@ 135   ----------------------------------------
 .byte   W96
@ 136   ----------------------------------------
 .byte   W96
@ 137   ----------------------------------------
 .byte   W96
@ 138   ----------------------------------------
 .byte   W96
@ 139   ----------------------------------------
 .byte   W96
@ 140   ----------------------------------------
 .byte   W96
@ 141   ----------------------------------------
 .byte   W96
@ 142   ----------------------------------------
 .byte   W96
@ 143   ----------------------------------------
 .byte   W96
@ 144   ----------------------------------------
 .byte   W96
@ 145   ----------------------------------------
 .byte   W96
@ 146   ----------------------------------------
 .byte   W96
@ 147   ----------------------------------------
 .byte   W96
@ 148   ----------------------------------------
 .byte   W96
@ 149   ----------------------------------------
 .byte   W96
@ 150   ----------------------------------------
 .byte   W96
@ 151   ----------------------------------------
 .byte   W96
@ 152   ----------------------------------------
 .byte   W96
@ 153   ----------------------------------------
 .byte   W96
@ 154   ----------------------------------------
 .byte   W96
@ 155   ----------------------------------------
 .byte   W96
@ 156   ----------------------------------------
 .byte   W96
@ 157   ----------------------------------------
 .byte   W96
@ 158   ----------------------------------------
 .byte   W96
@ 159   ----------------------------------------
 .byte   W96
@ 160   ----------------------------------------
 .byte   W96
@ 161   ----------------------------------------
 .byte   W96
@ 162   ----------------------------------------
 .byte   W96
@ 163   ----------------------------------------
 .byte   W96
@ 164   ----------------------------------------
 .byte   W96
@ 165   ----------------------------------------
 .byte   W96
@ 166   ----------------------------------------
 .byte   W96
@ 167   ----------------------------------------
 .byte   W96
@ 168   ----------------------------------------
 .byte   W96
@ 169   ----------------------------------------
 .byte   W96
@ 170   ----------------------------------------
 .byte   W96
@ 171   ----------------------------------------
 .byte   W96
@ 172   ----------------------------------------
 .byte   W96
@ 173   ----------------------------------------
 .byte   W96
@ 174   ----------------------------------------
 .byte   W96
@ 175   ----------------------------------------
 .byte   W96
@ 176   ----------------------------------------
 .byte   W96
@ 177   ----------------------------------------
 .byte   W96
@ 178   ----------------------------------------
 .byte   W96
@ 179   ----------------------------------------
 .byte   W96
@ 180   ----------------------------------------
 .byte   W96
@ 181   ----------------------------------------
 .byte   W96
@ 182   ----------------------------------------
 .byte   W96
@ 183   ----------------------------------------
 .byte   W96
@ 184   ----------------------------------------
 .byte   W96
@ 185   ----------------------------------------
 .byte   W96
@ 186   ----------------------------------------
 .byte   W96
@ 187   ----------------------------------------
 .byte   W96
@ 188   ----------------------------------------
 .byte   W96
@ 189   ----------------------------------------
 .byte   W96
@ 190   ----------------------------------------
 .byte   W96
@ 191   ----------------------------------------
 .byte   W96
@ 192   ----------------------------------------
 .byte   W96
@ 193   ----------------------------------------
 .byte   W96
@ 194   ----------------------------------------
 .byte   W76
 .byte   FINE

@**************** Track 2 (Midi-Chn.1) ****************@

song02A0_002:
@ 000   ----------------------------------------
 .byte   KEYSH , song02A0_key+0
Label_1_01904B72:
 .byte   VOICE , 80
 .byte   PAN , c_v+0
 .byte   VOL , 54*song02A0_mvl/mxv
 .byte   W12
 .byte   N04 ,Cs3 ,v080
 .byte   W06
 .byte   N04
 .byte   W06
 .byte   N09
 .byte   W12
 .byte   N04
 .byte   W06
 .byte   N04
 .byte   W06
 .byte   N09
 .byte   W12
 .byte   Gs2
 .byte   W24
 .byte   N04
 .byte   W06
 .byte   N04
 .byte   W06
@ 001   ----------------------------------------
Label_1_01904B8D:
 .byte   N09 ,Cs3 ,v080
 .byte   W12
 .byte   N04
 .byte   W06
 .byte   N04
 .byte   W06
 .byte   N09
 .byte   W12
 .byte   Gs2
 .byte   W24
 .byte   En3
 .byte   W12
 .byte   Ds3
 .byte   W12
 .byte   En3
 .byte   W12
 .byte   PEND 
@ 002   ----------------------------------------
Label_1_01904BA0:
 .byte   W12
 .byte   N04 ,Cs3 ,v080
 .byte   W06
 .byte   N04
 .byte   W06
 .byte   N09
 .byte   W12
 .byte   N04
 .byte   W06
 .byte   N04
 .byte   W06
 .byte   N09
 .byte   W12
 .byte   Gs2
 .byte   W24
 .byte   En3
 .byte   W12
 .byte   PEND 
@ 003   ----------------------------------------
Label_1_01904BB4:
 .byte   W12
 .byte   N09 ,Ds3 ,v080
 .byte   W24
 .byte   Cs3
 .byte   W24
 .byte   Ds3
 .byte   W36
 .byte   PEND 
@ 004   ----------------------------------------
Label_1_01904BBE:
 .byte   W12
 .byte   N04 ,Ds3 ,v080
 .byte   W06
 .byte   N04
 .byte   W06
 .byte   N09
 .byte   W12
 .byte   N04
 .byte   W06
 .byte   N04
 .byte   W06
 .byte   N09
 .byte   W12
 .byte   Bn2
 .byte   W24
 .byte   En3
 .byte   W12
 .byte   PEND 
@ 005   ----------------------------------------
Label_1_01904BD2:
 .byte   W12
 .byte   N09 ,Ds3 ,v080
 .byte   W24
 .byte   Cs3
 .byte   W24
 .byte   Bn2
 .byte   W36
 .byte   PEND 
@ 006   ----------------------------------------
Label_1_01904BDC:
 .byte   N09 ,Cs3 ,v080
 .byte   W24
 .byte   N09
 .byte   W12
 .byte   Gs3
 .byte   W12
 .byte   Bn3
 .byte   W12
 .byte   N30 ,As3
 .byte   W36
 .byte   PEND 
@ 007   ----------------------------------------
Label_1_01904BEA:
 .byte   N09 ,Cs3 ,v080
 .byte   W24
 .byte   N09
 .byte   W12
 .byte   Gs3
 .byte   W12
 .byte   Bn3
 .byte   W12
 .byte   As3
 .byte   W12
 .byte   Bn3
 .byte   W12
 .byte   Cs4
 .byte   W12
 .byte   PEND 
@ 008   ----------------------------------------
 .byte   W12
 .byte   N04 ,Cs3
 .byte   W06
 .byte   N04
 .byte   W06
 .byte   N09
 .byte   W12
 .byte   N04
 .byte   W06
 .byte   N04
 .byte   W06
 .byte   N09
 .byte   W12
 .byte   Gs2
 .byte   W24
 .byte   N04
 .byte   W06
 .byte   N04
 .byte   W06
@ 009   ----------------------------------------
 .byte   PATT
  .word Label_1_01904B8D
@ 010   ----------------------------------------
 .byte   PATT
  .word Label_1_01904BA0
@ 011   ----------------------------------------
 .byte   PATT
  .word Label_1_01904BB4
@ 012   ----------------------------------------
 .byte   PATT
  .word Label_1_01904BBE
@ 013   ----------------------------------------
 .byte   PATT
  .word Label_1_01904BD2
@ 014   ----------------------------------------
 .byte   PATT
  .word Label_1_01904BDC
@ 015   ----------------------------------------
 .byte   PATT
  .word Label_1_01904BEA
@ 016   ----------------------------------------
Label_1_01904C32:
 .byte   W12
 .byte   N56 ,Cs4 ,v080
 .byte   W72
 .byte   N09 ,Bn3
 .byte   W12
 .byte   PEND 
@ 017   ----------------------------------------
Label_1_01904C3B:
 .byte   N19 ,En4 ,v080
 .byte   W24
 .byte   Cs4
 .byte   W24
 .byte   Bn3
 .byte   W24
 .byte   Cs4
 .byte   W24
 .byte   PEND 
@ 018   ----------------------------------------
Label_1_01904C46:
 .byte   N48 ,Bn3 ,v080
 .byte   W60
 .byte   N09
 .byte   W12
 .byte   N32 ,Cs4
 .byte   W24
 .byte   PEND 
@ 019   ----------------------------------------
Label_1_01904C50:
 .byte   W12
 .byte   N09 ,Gs3 ,v080
 .byte   W12
 .byte   An3
 .byte   W12
 .byte   Gs3
 .byte   W12
 .byte   En3
 .byte   W24
 .byte   N09
 .byte   W12
 .byte   Gs3
 .byte   W12
 .byte   PEND 
@ 020   ----------------------------------------
Label_1_01904C60:
 .byte   N09 ,Bn3 ,v080
 .byte   W12
 .byte   N56 ,Cs4
 .byte   W72
 .byte   N09 ,Bn3
 .byte   W12
 .byte   PEND 
@ 021   ----------------------------------------
 .byte   PATT
  .word Label_1_01904C3B
@ 022   ----------------------------------------
Label_1_01904C70:
 .byte   N48 ,Bn3 ,v080
 .byte   W60
 .byte   N09
 .byte   W12
 .byte   Gs3
 .byte   W12
 .byte   Bn3
 .byte   W12
 .byte   PEND 
@ 023   ----------------------------------------
 .byte   Cn4
 .byte   W24
 .byte   N09
 .byte   W12
 .byte   N09
 .byte   W12
 .byte   Ds4
 .byte   W12
 .byte   N30 ,Gs4
 .byte   W36
@ 024   ----------------------------------------
Label_1_01904C86:
 .byte   W12
 .byte   N04 ,En3 ,v080
 .byte   W06
 .byte   N04
 .byte   W06
 .byte   N09
 .byte   W12
 .byte   N04
 .byte   W06
 .byte   N04
 .byte   W06
 .byte   N11
 .byte   W12
 .byte   Cs3
 .byte   W24
 .byte   N04
 .byte   W06
 .byte   N04
 .byte   W06
 .byte   PEND 
@ 025   ----------------------------------------
Label_1_01904C9C:
 .byte   N09 ,En3 ,v080
 .byte   W12
 .byte   N04
 .byte   W06
 .byte   N04
 .byte   W06
 .byte   N09
 .byte   W12
 .byte   Cs3
 .byte   W24
 .byte   Gs3
 .byte   W12
 .byte   Fs3
 .byte   W12
 .byte   Gs3
 .byte   W12
 .byte   PEND 
@ 026   ----------------------------------------
Label_1_01904CAF:
 .byte   W12
 .byte   N04 ,En3 ,v080
 .byte   W06
 .byte   N04
 .byte   W06
 .byte   N09
 .byte   W12
 .byte   N04
 .byte   W06
 .byte   N04
 .byte   W06
 .byte   N09
 .byte   W12
 .byte   Cs3
 .byte   W24
 .byte   Gs3
 .byte   W12
 .byte   PEND 
@ 027   ----------------------------------------
Label_1_01904CC3:
 .byte   W12
 .byte   N09 ,Fs3 ,v080
 .byte   W24
 .byte   En3
 .byte   W24
 .byte   Fs3
 .byte   W36
 .byte   PEND 
@ 028   ----------------------------------------
Label_1_01904CCD:
 .byte   W12
 .byte   N04 ,Fs3 ,v080
 .byte   W06
 .byte   N04
 .byte   W06
 .byte   N09
 .byte   W12
 .byte   N04
 .byte   W06
 .byte   N04
 .byte   W06
 .byte   N09
 .byte   W12
 .byte   Ds3
 .byte   W24
 .byte   Gs3
 .byte   W12
 .byte   PEND 
@ 029   ----------------------------------------
 .byte   W12
 .byte   Fs3
 .byte   W24
 .byte   En3
 .byte   W24
 .byte   Ds3
 .byte   W36
@ 030   ----------------------------------------
 .byte   PATT
  .word Label_1_01904BDC
@ 031   ----------------------------------------
Label_1_01904CED:
 .byte   N09 ,Cs3 ,v080
 .byte   W24
 .byte   N09
 .byte   W12
 .byte   Gs3
 .byte   W12
 .byte   Bn3
 .byte   W12
 .byte   As3
 .byte   W12
 .byte   Ds4
 .byte   W12
 .byte   En4
 .byte   W12
 .byte   PEND 
@ 032   ----------------------------------------
 .byte   PATT
  .word Label_1_01904C86
@ 033   ----------------------------------------
 .byte   PATT
  .word Label_1_01904C9C
@ 034   ----------------------------------------
 .byte   PATT
  .word Label_1_01904CAF
@ 035   ----------------------------------------
 .byte   PATT
  .word Label_1_01904CC3
@ 036   ----------------------------------------
 .byte   PATT
  .word Label_1_01904CCD
@ 037   ----------------------------------------
 .byte   W12
 .byte   N09 ,Fs3 ,v080
 .byte   W24
 .byte   En3
 .byte   W24
 .byte   Ds3
 .byte   W24
 .byte   Cs3
 .byte   W12
@ 038   ----------------------------------------
 .byte   W12
 .byte   N09
 .byte   W12
 .byte   Gs3
 .byte   W12
 .byte   Bn3
 .byte   W12
 .byte   N44 ,As3
 .byte   W48
@ 039   ----------------------------------------
 .byte   PATT
  .word Label_1_01904CED
@ 040   ----------------------------------------
 .byte   PATT
  .word Label_1_01904C32
@ 041   ----------------------------------------
 .byte   PATT
  .word Label_1_01904C3B
@ 042   ----------------------------------------
 .byte   PATT
  .word Label_1_01904C46
@ 043   ----------------------------------------
 .byte   PATT
  .word Label_1_01904C50
@ 044   ----------------------------------------
 .byte   PATT
  .word Label_1_01904C60
@ 045   ----------------------------------------
 .byte   PATT
  .word Label_1_01904C3B
@ 046   ----------------------------------------
 .byte   PATT
  .word Label_1_01904C70
@ 047   ----------------------------------------
 .byte   N09 ,Cn4 ,v080
 .byte   W24
 .byte   N09
 .byte   W12
 .byte   N09
 .byte   W12
 .byte   Ds4
 .byte   W12
 .byte   N23 ,Gs4
 .byte   W24
 .byte   N21 ,Cs3
 .byte   W12
@ 048   ----------------------------------------
 .byte   W12
 .byte   N09
 .byte   W12
 .byte   N09
 .byte   W12
 .byte   Bn2
 .byte   W12
 .byte   N19 ,Cs3
 .byte   W24
 .byte   N09 ,An3
 .byte   W12
 .byte   N23 ,Fs3
 .byte   W12
@ 049   ----------------------------------------
 .byte   W12
 .byte   N19
 .byte   W24
 .byte   En3
 .byte   W24
 .byte   Ds3
 .byte   W24
 .byte   N09
 .byte   W12
@ 050   ----------------------------------------
 .byte   W12
 .byte   En3
 .byte   W12
 .byte   N09
 .byte   W24
 .byte   N09
 .byte   W36
 .byte   Ds3
 .byte   W12
@ 051   ----------------------------------------
 .byte   W12
 .byte   En3
 .byte   W12
 .byte   N09
 .byte   W24
 .byte   N09
 .byte   W24
 .byte   Ds3
 .byte   W12
 .byte   Cs3
 .byte   W12
@ 052   ----------------------------------------
 .byte   W12
 .byte   N09
 .byte   W12
 .byte   N09
 .byte   W12
 .byte   Bn2
 .byte   W12
 .byte   N22 ,Cs3
 .byte   W24
 .byte   N09 ,An3
 .byte   W12
 .byte   N23 ,Fs3
 .byte   W12
@ 053   ----------------------------------------
 .byte   W12
 .byte   N19
 .byte   W24
 .byte   En3
 .byte   W24
 .byte   Ds3
 .byte   W36
@ 054   ----------------------------------------
 .byte   N09 ,Bn2
 .byte   W12
 .byte   Cs3
 .byte   W12
 .byte   Bn2
 .byte   W12
 .byte   TIE ,Gs2
 .byte   W60
@ 055   ----------------------------------------
 .byte   W76
 .byte   EOT
 .byte   W20
@ 056   ----------------------------------------
 .byte   GOTO
  .word Label_1_01904B72
@ 057   ----------------------------------------
 .byte   W96
@ 058   ----------------------------------------
 .byte   W96
@ 059   ----------------------------------------
 .byte   W96
@ 060   ----------------------------------------
 .byte   W96
@ 061   ----------------------------------------
 .byte   W96
@ 062   ----------------------------------------
 .byte   W96
@ 063   ----------------------------------------
 .byte   W96
@ 064   ----------------------------------------
 .byte   W96
@ 065   ----------------------------------------
 .byte   W96
@ 066   ----------------------------------------
 .byte   W96
@ 067   ----------------------------------------
 .byte   W96
@ 068   ----------------------------------------
 .byte   W96
@ 069   ----------------------------------------
 .byte   W96
@ 070   ----------------------------------------
 .byte   W96
@ 071   ----------------------------------------
 .byte   W96
@ 072   ----------------------------------------
 .byte   W96
@ 073   ----------------------------------------
 .byte   W96
@ 074   ----------------------------------------
 .byte   W96
@ 075   ----------------------------------------
 .byte   W96
@ 076   ----------------------------------------
 .byte   W96
@ 077   ----------------------------------------
 .byte   W96
@ 078   ----------------------------------------
 .byte   W96
@ 079   ----------------------------------------
 .byte   W96
@ 080   ----------------------------------------
 .byte   W96
@ 081   ----------------------------------------
 .byte   W96
@ 082   ----------------------------------------
 .byte   W96
@ 083   ----------------------------------------
 .byte   W96
@ 084   ----------------------------------------
 .byte   W96
@ 085   ----------------------------------------
 .byte   W96
@ 086   ----------------------------------------
 .byte   W96
@ 087   ----------------------------------------
 .byte   W96
@ 088   ----------------------------------------
 .byte   W96
@ 089   ----------------------------------------
 .byte   W96
@ 090   ----------------------------------------
 .byte   W96
@ 091   ----------------------------------------
 .byte   W96
@ 092   ----------------------------------------
 .byte   W96
@ 093   ----------------------------------------
 .byte   W96
@ 094   ----------------------------------------
 .byte   W96
@ 095   ----------------------------------------
 .byte   W96
@ 096   ----------------------------------------
 .byte   W96
@ 097   ----------------------------------------
 .byte   W96
@ 098   ----------------------------------------
 .byte   W96
@ 099   ----------------------------------------
 .byte   W96
@ 100   ----------------------------------------
 .byte   W96
@ 101   ----------------------------------------
 .byte   W96
@ 102   ----------------------------------------
 .byte   W96
@ 103   ----------------------------------------
 .byte   W96
@ 104   ----------------------------------------
 .byte   W96
@ 105   ----------------------------------------
 .byte   W96
@ 106   ----------------------------------------
 .byte   W96
@ 107   ----------------------------------------
 .byte   W96
@ 108   ----------------------------------------
 .byte   W96
@ 109   ----------------------------------------
 .byte   W96
@ 110   ----------------------------------------
 .byte   W96
@ 111   ----------------------------------------
 .byte   W96
@ 112   ----------------------------------------
 .byte   W96
@ 113   ----------------------------------------
 .byte   W96
@ 114   ----------------------------------------
 .byte   W96
@ 115   ----------------------------------------
 .byte   W96
@ 116   ----------------------------------------
 .byte   W96
@ 117   ----------------------------------------
 .byte   W96
@ 118   ----------------------------------------
 .byte   W96
@ 119   ----------------------------------------
 .byte   W96
@ 120   ----------------------------------------
 .byte   W96
@ 121   ----------------------------------------
 .byte   W96
@ 122   ----------------------------------------
 .byte   W96
@ 123   ----------------------------------------
 .byte   W96
@ 124   ----------------------------------------
 .byte   W96
@ 125   ----------------------------------------
 .byte   W96
@ 126   ----------------------------------------
 .byte   W96
@ 127   ----------------------------------------
 .byte   W96
@ 128   ----------------------------------------
 .byte   W96
@ 129   ----------------------------------------
 .byte   W96
@ 130   ----------------------------------------
 .byte   W96
@ 131   ----------------------------------------
 .byte   W96
@ 132   ----------------------------------------
 .byte   W96
@ 133   ----------------------------------------
 .byte   W96
@ 134   ----------------------------------------
 .byte   W96
@ 135   ----------------------------------------
 .byte   W96
@ 136   ----------------------------------------
 .byte   W96
@ 137   ----------------------------------------
 .byte   W96
@ 138   ----------------------------------------
 .byte   W96
@ 139   ----------------------------------------
 .byte   W96
@ 140   ----------------------------------------
 .byte   W96
@ 141   ----------------------------------------
 .byte   W96
@ 142   ----------------------------------------
 .byte   W96
@ 143   ----------------------------------------
 .byte   W96
@ 144   ----------------------------------------
 .byte   W96
@ 145   ----------------------------------------
 .byte   W96
@ 146   ----------------------------------------
 .byte   W96
@ 147   ----------------------------------------
 .byte   W96
@ 148   ----------------------------------------
 .byte   W96
@ 149   ----------------------------------------
 .byte   W96
@ 150   ----------------------------------------
 .byte   W96
@ 151   ----------------------------------------
 .byte   W96
@ 152   ----------------------------------------
 .byte   W96
@ 153   ----------------------------------------
 .byte   W96
@ 154   ----------------------------------------
 .byte   W96
@ 155   ----------------------------------------
 .byte   W96
@ 156   ----------------------------------------
 .byte   W96
@ 157   ----------------------------------------
 .byte   W96
@ 158   ----------------------------------------
 .byte   W96
@ 159   ----------------------------------------
 .byte   W96
@ 160   ----------------------------------------
 .byte   W96
@ 161   ----------------------------------------
 .byte   W96
@ 162   ----------------------------------------
 .byte   W96
@ 163   ----------------------------------------
 .byte   W96
@ 164   ----------------------------------------
 .byte   W96
@ 165   ----------------------------------------
 .byte   W96
@ 166   ----------------------------------------
 .byte   W96
@ 167   ----------------------------------------
 .byte   W96
@ 168   ----------------------------------------
 .byte   W96
@ 169   ----------------------------------------
 .byte   W96
@ 170   ----------------------------------------
 .byte   W96
@ 171   ----------------------------------------
 .byte   W96
@ 172   ----------------------------------------
 .byte   W96
@ 173   ----------------------------------------
 .byte   W96
@ 174   ----------------------------------------
 .byte   W96
@ 175   ----------------------------------------
 .byte   W96
@ 176   ----------------------------------------
 .byte   W96
@ 177   ----------------------------------------
 .byte   W96
@ 178   ----------------------------------------
 .byte   W96
@ 179   ----------------------------------------
 .byte   W96
@ 180   ----------------------------------------
 .byte   W96
@ 181   ----------------------------------------
 .byte   W96
@ 182   ----------------------------------------
 .byte   W96
@ 183   ----------------------------------------
 .byte   W96
@ 184   ----------------------------------------
 .byte   W96
@ 185   ----------------------------------------
 .byte   W96
@ 186   ----------------------------------------
 .byte   W96
@ 187   ----------------------------------------
 .byte   W96
@ 188   ----------------------------------------
 .byte   W96
@ 189   ----------------------------------------
 .byte   W96
@ 190   ----------------------------------------
 .byte   W96
@ 191   ----------------------------------------
 .byte   W96
@ 192   ----------------------------------------
 .byte   W96
@ 193   ----------------------------------------
 .byte   W96
@ 194   ----------------------------------------
 .byte   W76
 .byte   FINE

@**************** Track 3 (Midi-Chn.2) ****************@

song02A0_003:
@ 000   ----------------------------------------
 .byte   KEYSH , song02A0_key+0
Label_2_01904EAE:
 .byte   VOICE , 30
 .byte   PAN , c_v+0
 .byte   VOL , 70*song02A0_mvl/mxv
 .byte   N09 ,Cs3 ,v080
 .byte   W12
 .byte   N04
 .byte   W06
 .byte   N04
 .byte   W06
 .byte   N09
 .byte   W12
 .byte   N04
 .byte   W06
 .byte   N04
 .byte   W06
 .byte   N09
 .byte   W12
 .byte   N04
 .byte   W06
 .byte   N04
 .byte   W06
 .byte   N09
 .byte   W12
 .byte   N04
 .byte   W06
 .byte   N04
 .byte   W06
@ 001   ----------------------------------------
Label_2_01904ECE:
 .byte   N09 ,Cs3 ,v080
 .byte   W12
 .byte   N04
 .byte   W06
 .byte   N04
 .byte   W06
 .byte   N09
 .byte   W12
 .byte   N04
 .byte   W06
 .byte   N04
 .byte   W06
 .byte   N09
 .byte   W12
 .byte   N04
 .byte   W06
 .byte   N04
 .byte   W06
 .byte   N09
 .byte   W12
 .byte   N04
 .byte   W06
 .byte   N04
 .byte   W06
 .byte   PEND 
@ 002   ----------------------------------------
Label_2_01904EE9:
 .byte   N09 ,An2 ,v080
 .byte   W12
 .byte   N04
 .byte   W06
 .byte   N04
 .byte   W06
 .byte   N09
 .byte   W12
 .byte   N04
 .byte   W06
 .byte   N04
 .byte   W06
 .byte   N09
 .byte   W12
 .byte   N04
 .byte   W06
 .byte   N04
 .byte   W06
 .byte   N09
 .byte   W12
 .byte   N04
 .byte   W06
 .byte   N04
 .byte   W06
 .byte   PEND 
@ 003   ----------------------------------------
 .byte   PATT
  .word Label_2_01904EE9
@ 004   ----------------------------------------
Label_2_01904F09:
 .byte   N09 ,Bn2 ,v080
 .byte   W12
 .byte   N04
 .byte   W06
 .byte   N04
 .byte   W06
 .byte   N09
 .byte   W12
 .byte   N04
 .byte   W06
 .byte   N04
 .byte   W06
 .byte   N09
 .byte   W12
 .byte   N04
 .byte   W06
 .byte   N04
 .byte   W06
 .byte   N09
 .byte   W12
 .byte   N04
 .byte   W06
 .byte   N04
 .byte   W06
 .byte   PEND 
@ 005   ----------------------------------------
 .byte   PATT
  .word Label_2_01904F09
@ 006   ----------------------------------------
 .byte   PATT
  .word Label_2_01904ECE
@ 007   ----------------------------------------
Label_2_01904F2E:
 .byte   N09 ,Cs3 ,v080
 .byte   W12
 .byte   N04
 .byte   W06
 .byte   N04
 .byte   W06
 .byte   N09
 .byte   W12
 .byte   N04
 .byte   W06
 .byte   N04
 .byte   W06
 .byte   N09
 .byte   W12
 .byte   N04
 .byte   W06
 .byte   N04
 .byte   W06
 .byte   N09 ,Bn2
 .byte   W12
 .byte   Cs3
 .byte   W12
 .byte   PEND 
@ 008   ----------------------------------------
 .byte   PATT
  .word Label_2_01904ECE
@ 009   ----------------------------------------
 .byte   PATT
  .word Label_2_01904ECE
@ 010   ----------------------------------------
 .byte   PATT
  .word Label_2_01904EE9
@ 011   ----------------------------------------
 .byte   PATT
  .word Label_2_01904EE9
@ 012   ----------------------------------------
 .byte   PATT
  .word Label_2_01904F09
@ 013   ----------------------------------------
 .byte   PATT
  .word Label_2_01904F09
@ 014   ----------------------------------------
 .byte   PATT
  .word Label_2_01904ECE
@ 015   ----------------------------------------
 .byte   PATT
  .word Label_2_01904F2E
@ 016   ----------------------------------------
Label_2_01904F70:
 .byte   N09 ,Dn3 ,v080
 .byte   W12
 .byte   N04
 .byte   W06
 .byte   N04
 .byte   W06
 .byte   N09
 .byte   W12
 .byte   N04
 .byte   W06
 .byte   N04
 .byte   W06
 .byte   N09
 .byte   W12
 .byte   N04 ,An3
 .byte   W06
 .byte   N04
 .byte   W06
 .byte   Fs3
 .byte   W06
 .byte   N04
 .byte   W06
 .byte   N04
 .byte   W12
 .byte   PEND 
@ 017   ----------------------------------------
Label_2_01904F8C:
 .byte   W12
 .byte   N04 ,Dn3 ,v080
 .byte   W06
 .byte   N04
 .byte   W06
 .byte   N09 ,Fs3
 .byte   W12
 .byte   N04 ,Dn3
 .byte   W06
 .byte   N04
 .byte   W06
 .byte   N09 ,Cs4
 .byte   W12
 .byte   Dn3
 .byte   W12
 .byte   An3
 .byte   W12
 .byte   N04 ,Dn3
 .byte   W06
 .byte   N04
 .byte   W06
 .byte   PEND 
@ 018   ----------------------------------------
Label_2_01904FA8:
 .byte   N09 ,Cs3 ,v080
 .byte   W12
 .byte   N04
 .byte   W06
 .byte   N04
 .byte   W06
 .byte   N09
 .byte   W12
 .byte   N04
 .byte   W06
 .byte   N04
 .byte   W06
 .byte   N09
 .byte   W12
 .byte   N04 ,Gs3
 .byte   W06
 .byte   N04
 .byte   W06
 .byte   En3
 .byte   W06
 .byte   N04
 .byte   W06
 .byte   Bn3
 .byte   W12
 .byte   PEND 
@ 019   ----------------------------------------
Label_2_01904FC4:
 .byte   W12
 .byte   N04 ,Cs3 ,v080
 .byte   W06
 .byte   N04
 .byte   W06
 .byte   N09 ,En3
 .byte   W12
 .byte   N04 ,Cs3
 .byte   W06
 .byte   N04
 .byte   W06
 .byte   N09 ,Bn3
 .byte   W12
 .byte   N04 ,En3
 .byte   W06
 .byte   N04
 .byte   W06
 .byte   N09 ,Gs3
 .byte   W12
 .byte   N04 ,Cs3
 .byte   W06
 .byte   N04
 .byte   W06
 .byte   PEND 
@ 020   ----------------------------------------
 .byte   PATT
  .word Label_2_01904F70
@ 021   ----------------------------------------
 .byte   PATT
  .word Label_2_01904F8C
@ 022   ----------------------------------------
Label_2_01904FEE:
 .byte   N09 ,Bn2 ,v080
 .byte   W12
 .byte   N04
 .byte   W06
 .byte   N04
 .byte   W06
 .byte   N09
 .byte   W12
 .byte   N04
 .byte   W06
 .byte   N04
 .byte   W06
 .byte   N09
 .byte   W12
 .byte   N04
 .byte   W06
 .byte   N04
 .byte   W06
 .byte   N09
 .byte   W12
 .byte   Cn3
 .byte   W12
 .byte   PEND 
@ 023   ----------------------------------------
 .byte   W12
 .byte   N09
 .byte   W12
 .byte   N09
 .byte   W12
 .byte   N09
 .byte   W12
 .byte   N28
 .byte   W48
@ 024   ----------------------------------------
 .byte   PATT
  .word Label_2_01904ECE
@ 025   ----------------------------------------
 .byte   PATT
  .word Label_2_01904ECE
@ 026   ----------------------------------------
 .byte   PATT
  .word Label_2_01904EE9
@ 027   ----------------------------------------
 .byte   PATT
  .word Label_2_01904EE9
@ 028   ----------------------------------------
 .byte   PATT
  .word Label_2_01904F09
@ 029   ----------------------------------------
 .byte   PATT
  .word Label_2_01904F09
@ 030   ----------------------------------------
 .byte   PATT
  .word Label_2_01904ECE
@ 031   ----------------------------------------
 .byte   PATT
  .word Label_2_01904F2E
@ 032   ----------------------------------------
 .byte   PATT
  .word Label_2_01904ECE
@ 033   ----------------------------------------
 .byte   PATT
  .word Label_2_01904ECE
@ 034   ----------------------------------------
 .byte   PATT
  .word Label_2_01904EE9
@ 035   ----------------------------------------
 .byte   PATT
  .word Label_2_01904EE9
@ 036   ----------------------------------------
 .byte   PATT
  .word Label_2_01904F09
@ 037   ----------------------------------------
 .byte   PATT
  .word Label_2_01904F09
@ 038   ----------------------------------------
 .byte   PATT
  .word Label_2_01904ECE
@ 039   ----------------------------------------
 .byte   PATT
  .word Label_2_01904F2E
@ 040   ----------------------------------------
 .byte   PATT
  .word Label_2_01904F70
@ 041   ----------------------------------------
 .byte   PATT
  .word Label_2_01904F8C
@ 042   ----------------------------------------
 .byte   PATT
  .word Label_2_01904FA8
@ 043   ----------------------------------------
 .byte   PATT
  .word Label_2_01904FC4
@ 044   ----------------------------------------
 .byte   PATT
  .word Label_2_01904F70
@ 045   ----------------------------------------
 .byte   PATT
  .word Label_2_01904F8C
@ 046   ----------------------------------------
 .byte   PATT
  .word Label_2_01904FEE
@ 047   ----------------------------------------
 .byte   W12
 .byte   N09 ,Cn3 ,v080
 .byte   W12
 .byte   N09
 .byte   W12
 .byte   N09
 .byte   W12
 .byte   N28
 .byte   W36
 .byte   N21 ,An2
 .byte   W12
@ 048   ----------------------------------------
 .byte   W12
 .byte   N04
 .byte   W06
 .byte   N04
 .byte   W06
 .byte   N09
 .byte   W12
 .byte   N04
 .byte   W06
 .byte   N04
 .byte   W06
 .byte   N09
 .byte   W12
 .byte   N05
 .byte   W06
 .byte   N04
 .byte   W06
 .byte   N09
 .byte   W12
 .byte   N21 ,Bn2
 .byte   W12
@ 049   ----------------------------------------
 .byte   W12
 .byte   N04
 .byte   W06
 .byte   N04
 .byte   W06
 .byte   N09
 .byte   W12
 .byte   N04
 .byte   W06
 .byte   N04
 .byte   W06
 .byte   N09
 .byte   W12
 .byte   N04
 .byte   W06
 .byte   N04
 .byte   W06
 .byte   N09
 .byte   W12
 .byte   N21 ,Cs2
 .byte   W12
@ 050   ----------------------------------------
 .byte   W12
 .byte   N09 ,Cs3
 .byte   W12
 .byte   Ds2
 .byte   W12
 .byte   Ds3
 .byte   W12
 .byte   En2
 .byte   W12
 .byte   En3
 .byte   W12
 .byte   Ds2
 .byte   W12
 .byte   N21 ,Cs2
 .byte   W12
@ 051   ----------------------------------------
 .byte   W12
 .byte   N09 ,Cs3
 .byte   W12
 .byte   Ds2
 .byte   W12
 .byte   Ds3
 .byte   W12
 .byte   En2
 .byte   W12
 .byte   En3
 .byte   W12
 .byte   Ds2
 .byte   W12
 .byte   N21 ,An2
 .byte   W12
@ 052   ----------------------------------------
 .byte   W12
 .byte   N04
 .byte   W06
 .byte   N04
 .byte   W06
 .byte   N09
 .byte   W12
 .byte   N04
 .byte   W06
 .byte   N04
 .byte   W06
 .byte   N09
 .byte   W12
 .byte   N04
 .byte   W06
 .byte   N04
 .byte   W06
 .byte   N09
 .byte   W12
 .byte   N21 ,Bn2
 .byte   W12
@ 053   ----------------------------------------
 .byte   W12
 .byte   N04
 .byte   W06
 .byte   N04
 .byte   W06
 .byte   N09
 .byte   W12
 .byte   N04
 .byte   W06
 .byte   N04
 .byte   W06
 .byte   N09
 .byte   W12
 .byte   N04
 .byte   W06
 .byte   N04
 .byte   W06
 .byte   N09
 .byte   W12
 .byte   Cn3
 .byte   W12
@ 054   ----------------------------------------
 .byte   Cs3
 .byte   W72
 .byte   Bn2
 .byte   W12
 .byte   Cs3
 .byte   W12
@ 055   ----------------------------------------
 .byte   W12
 .byte   Bn2
 .byte   W12
 .byte   N19 ,Cs3
 .byte   W24
 .byte   N09 ,Bn2
 .byte   W12
 .byte   Cn3
 .byte   W12
 .byte   N19 ,Cs3
 .byte   W24
@ 056   ----------------------------------------
 .byte   GOTO
  .word Label_2_01904EAE
@ 057   ----------------------------------------
 .byte   W96
@ 058   ----------------------------------------
 .byte   W96
@ 059   ----------------------------------------
 .byte   W96
@ 060   ----------------------------------------
 .byte   W96
@ 061   ----------------------------------------
 .byte   W96
@ 062   ----------------------------------------
 .byte   W96
@ 063   ----------------------------------------
 .byte   W96
@ 064   ----------------------------------------
 .byte   W96
@ 065   ----------------------------------------
 .byte   W96
@ 066   ----------------------------------------
 .byte   W96
@ 067   ----------------------------------------
 .byte   W96
@ 068   ----------------------------------------
 .byte   W96
@ 069   ----------------------------------------
 .byte   W96
@ 070   ----------------------------------------
 .byte   W96
@ 071   ----------------------------------------
 .byte   W96
@ 072   ----------------------------------------
 .byte   W96
@ 073   ----------------------------------------
 .byte   W96
@ 074   ----------------------------------------
 .byte   W96
@ 075   ----------------------------------------
 .byte   W96
@ 076   ----------------------------------------
 .byte   W96
@ 077   ----------------------------------------
 .byte   W96
@ 078   ----------------------------------------
 .byte   W96
@ 079   ----------------------------------------
 .byte   W96
@ 080   ----------------------------------------
 .byte   W96
@ 081   ----------------------------------------
 .byte   W96
@ 082   ----------------------------------------
 .byte   W96
@ 083   ----------------------------------------
 .byte   W96
@ 084   ----------------------------------------
 .byte   W96
@ 085   ----------------------------------------
 .byte   W96
@ 086   ----------------------------------------
 .byte   W96
@ 087   ----------------------------------------
 .byte   W96
@ 088   ----------------------------------------
 .byte   W96
@ 089   ----------------------------------------
 .byte   W96
@ 090   ----------------------------------------
 .byte   W96
@ 091   ----------------------------------------
 .byte   W96
@ 092   ----------------------------------------
 .byte   W96
@ 093   ----------------------------------------
 .byte   W96
@ 094   ----------------------------------------
 .byte   W96
@ 095   ----------------------------------------
 .byte   W96
@ 096   ----------------------------------------
 .byte   W96
@ 097   ----------------------------------------
 .byte   W96
@ 098   ----------------------------------------
 .byte   W96
@ 099   ----------------------------------------
 .byte   W96
@ 100   ----------------------------------------
 .byte   W96
@ 101   ----------------------------------------
 .byte   W96
@ 102   ----------------------------------------
 .byte   W96
@ 103   ----------------------------------------
 .byte   W96
@ 104   ----------------------------------------
 .byte   W96
@ 105   ----------------------------------------
 .byte   W96
@ 106   ----------------------------------------
 .byte   W96
@ 107   ----------------------------------------
 .byte   W96
@ 108   ----------------------------------------
 .byte   W96
@ 109   ----------------------------------------
 .byte   W96
@ 110   ----------------------------------------
 .byte   W96
@ 111   ----------------------------------------
 .byte   W96
@ 112   ----------------------------------------
 .byte   W96
@ 113   ----------------------------------------
 .byte   W96
@ 114   ----------------------------------------
 .byte   W96
@ 115   ----------------------------------------
 .byte   W96
@ 116   ----------------------------------------
 .byte   W96
@ 117   ----------------------------------------
 .byte   W96
@ 118   ----------------------------------------
 .byte   W96
@ 119   ----------------------------------------
 .byte   W96
@ 120   ----------------------------------------
 .byte   W96
@ 121   ----------------------------------------
 .byte   W96
@ 122   ----------------------------------------
 .byte   W96
@ 123   ----------------------------------------
 .byte   W96
@ 124   ----------------------------------------
 .byte   W96
@ 125   ----------------------------------------
 .byte   W96
@ 126   ----------------------------------------
 .byte   W96
@ 127   ----------------------------------------
 .byte   W96
@ 128   ----------------------------------------
 .byte   W96
@ 129   ----------------------------------------
 .byte   W96
@ 130   ----------------------------------------
 .byte   W96
@ 131   ----------------------------------------
 .byte   W96
@ 132   ----------------------------------------
 .byte   W96
@ 133   ----------------------------------------
 .byte   W96
@ 134   ----------------------------------------
 .byte   W96
@ 135   ----------------------------------------
 .byte   W96
@ 136   ----------------------------------------
 .byte   W96
@ 137   ----------------------------------------
 .byte   W96
@ 138   ----------------------------------------
 .byte   W96
@ 139   ----------------------------------------
 .byte   W96
@ 140   ----------------------------------------
 .byte   W96
@ 141   ----------------------------------------
 .byte   W96
@ 142   ----------------------------------------
 .byte   W96
@ 143   ----------------------------------------
 .byte   W96
@ 144   ----------------------------------------
 .byte   W96
@ 145   ----------------------------------------
 .byte   W96
@ 146   ----------------------------------------
 .byte   W96
@ 147   ----------------------------------------
 .byte   W96
@ 148   ----------------------------------------
 .byte   W96
@ 149   ----------------------------------------
 .byte   W96
@ 150   ----------------------------------------
 .byte   W96
@ 151   ----------------------------------------
 .byte   W96
@ 152   ----------------------------------------
 .byte   W96
@ 153   ----------------------------------------
 .byte   W96
@ 154   ----------------------------------------
 .byte   W96
@ 155   ----------------------------------------
 .byte   W96
@ 156   ----------------------------------------
 .byte   W96
@ 157   ----------------------------------------
 .byte   W96
@ 158   ----------------------------------------
 .byte   W96
@ 159   ----------------------------------------
 .byte   W96
@ 160   ----------------------------------------
 .byte   W96
@ 161   ----------------------------------------
 .byte   W96
@ 162   ----------------------------------------
 .byte   W96
@ 163   ----------------------------------------
 .byte   W96
@ 164   ----------------------------------------
 .byte   W96
@ 165   ----------------------------------------
 .byte   W96
@ 166   ----------------------------------------
 .byte   W96
@ 167   ----------------------------------------
 .byte   W96
@ 168   ----------------------------------------
 .byte   W96
@ 169   ----------------------------------------
 .byte   W96
@ 170   ----------------------------------------
 .byte   W96
@ 171   ----------------------------------------
 .byte   W96
@ 172   ----------------------------------------
 .byte   W96
@ 173   ----------------------------------------
 .byte   W96
@ 174   ----------------------------------------
 .byte   W96
@ 175   ----------------------------------------
 .byte   W96
@ 176   ----------------------------------------
 .byte   W96
@ 177   ----------------------------------------
 .byte   W96
@ 178   ----------------------------------------
 .byte   W96
@ 179   ----------------------------------------
 .byte   W96
@ 180   ----------------------------------------
 .byte   W96
@ 181   ----------------------------------------
 .byte   W96
@ 182   ----------------------------------------
 .byte   W96
@ 183   ----------------------------------------
 .byte   W96
@ 184   ----------------------------------------
 .byte   W96
@ 185   ----------------------------------------
 .byte   W96
@ 186   ----------------------------------------
 .byte   W96
@ 187   ----------------------------------------
 .byte   W96
@ 188   ----------------------------------------
 .byte   W96
@ 189   ----------------------------------------
 .byte   W96
@ 190   ----------------------------------------
 .byte   W96
@ 191   ----------------------------------------
 .byte   W96
@ 192   ----------------------------------------
 .byte   W96
@ 193   ----------------------------------------
 .byte   W96
@ 194   ----------------------------------------
 .byte   W76
 .byte   FINE

@**************** Track 4 (Midi-Chn.3) ****************@

song02A0_004:
@ 000   ----------------------------------------
 .byte   KEYSH , song02A0_key+0
Label_3_0190536A:
 .byte   VOICE , 32
 .byte   PAN , c_v+0
 .byte   VOL , 40*song02A0_mvl/mxv
 .byte   N11 ,Cs2 ,v127
 .byte   W12
 .byte   N05
 .byte   W06
 .byte   N05
 .byte   W06
 .byte   N11
 .byte   W12
 .byte   N05
 .byte   W06
 .byte   N05
 .byte   W06
 .byte   N11
 .byte   W12
 .byte   N05
 .byte   W06
 .byte   N05
 .byte   W06
 .byte   N11
 .byte   W12
 .byte   N05
 .byte   W06
 .byte   N05
 .byte   W06
@ 001   ----------------------------------------
Label_3_0190538A:
 .byte   N11 ,Cs2 ,v127
 .byte   W12
 .byte   N05
 .byte   W06
 .byte   N05
 .byte   W06
 .byte   N11
 .byte   W12
 .byte   N05
 .byte   W06
 .byte   N05
 .byte   W06
 .byte   N11
 .byte   W12
 .byte   N05
 .byte   W06
 .byte   N05
 .byte   W06
 .byte   N11
 .byte   W12
 .byte   N05
 .byte   W06
 .byte   N05
 .byte   W06
 .byte   PEND 
@ 002   ----------------------------------------
Label_3_019053A5:
 .byte   N11 ,An1 ,v127
 .byte   W12
 .byte   N05
 .byte   W06
 .byte   N05
 .byte   W06
 .byte   N11
 .byte   W12
 .byte   N05
 .byte   W06
 .byte   N05
 .byte   W06
 .byte   N11
 .byte   W12
 .byte   N05
 .byte   W06
 .byte   N05
 .byte   W06
 .byte   N11
 .byte   W12
 .byte   N05
 .byte   W06
 .byte   N05
 .byte   W06
 .byte   PEND 
@ 003   ----------------------------------------
 .byte   PATT
  .word Label_3_019053A5
@ 004   ----------------------------------------
Label_3_019053C5:
 .byte   N11 ,Bn1 ,v127
 .byte   W12
 .byte   N05
 .byte   W06
 .byte   N05
 .byte   W06
 .byte   N11
 .byte   W12
 .byte   N05
 .byte   W06
 .byte   N05
 .byte   W06
 .byte   N11
 .byte   W12
 .byte   N05
 .byte   W06
 .byte   N05
 .byte   W06
 .byte   N11
 .byte   W12
 .byte   N05
 .byte   W06
 .byte   N05
 .byte   W06
 .byte   PEND 
@ 005   ----------------------------------------
 .byte   PATT
  .word Label_3_019053C5
@ 006   ----------------------------------------
 .byte   PATT
  .word Label_3_0190538A
@ 007   ----------------------------------------
Label_3_019053EA:
 .byte   N11 ,Cs2 ,v127
 .byte   W12
 .byte   N05
 .byte   W06
 .byte   N05
 .byte   W06
 .byte   N11
 .byte   W12
 .byte   N05
 .byte   W06
 .byte   N05
 .byte   W06
 .byte   N11
 .byte   W12
 .byte   N05
 .byte   W06
 .byte   N05
 .byte   W06
 .byte   N11 ,Bn1
 .byte   W12
 .byte   Cs2
 .byte   W12
 .byte   PEND 
@ 008   ----------------------------------------
 .byte   PATT
  .word Label_3_0190538A
@ 009   ----------------------------------------
 .byte   PATT
  .word Label_3_0190538A
@ 010   ----------------------------------------
 .byte   PATT
  .word Label_3_019053A5
@ 011   ----------------------------------------
 .byte   PATT
  .word Label_3_019053A5
@ 012   ----------------------------------------
 .byte   PATT
  .word Label_3_019053C5
@ 013   ----------------------------------------
 .byte   PATT
  .word Label_3_019053C5
@ 014   ----------------------------------------
 .byte   PATT
  .word Label_3_0190538A
@ 015   ----------------------------------------
 .byte   PATT
  .word Label_3_019053EA
@ 016   ----------------------------------------
Label_3_0190542C:
 .byte   N11 ,Dn2 ,v127
 .byte   W12
 .byte   N05
 .byte   W06
 .byte   N05
 .byte   W06
 .byte   N11
 .byte   W12
 .byte   N05
 .byte   W06
 .byte   N05
 .byte   W06
 .byte   N11
 .byte   W12
 .byte   N05
 .byte   W06
 .byte   N05
 .byte   W06
 .byte   N11
 .byte   W12
 .byte   N05
 .byte   W06
 .byte   N05
 .byte   W06
 .byte   PEND 
@ 017   ----------------------------------------
 .byte   PATT
  .word Label_3_0190542C
@ 018   ----------------------------------------
 .byte   PATT
  .word Label_3_0190538A
@ 019   ----------------------------------------
 .byte   PATT
  .word Label_3_0190538A
@ 020   ----------------------------------------
 .byte   PATT
  .word Label_3_0190542C
@ 021   ----------------------------------------
 .byte   PATT
  .word Label_3_0190542C
@ 022   ----------------------------------------
 .byte   PATT
  .word Label_3_019053C5
@ 023   ----------------------------------------
Label_3_01905465:
 .byte   N11 ,Cn2 ,v127
 .byte   W12
 .byte   N05
 .byte   W06
 .byte   N05
 .byte   W06
 .byte   N11
 .byte   W12
 .byte   N05
 .byte   W06
 .byte   N05
 .byte   W06
 .byte   N11
 .byte   W12
 .byte   N05
 .byte   W06
 .byte   N05
 .byte   W06
 .byte   N11
 .byte   W12
 .byte   N05
 .byte   W06
 .byte   N05
 .byte   W06
 .byte   PEND 
@ 024   ----------------------------------------
 .byte   PATT
  .word Label_3_0190538A
@ 025   ----------------------------------------
 .byte   PATT
  .word Label_3_0190538A
@ 026   ----------------------------------------
 .byte   PATT
  .word Label_3_019053A5
@ 027   ----------------------------------------
 .byte   PATT
  .word Label_3_019053A5
@ 028   ----------------------------------------
 .byte   PATT
  .word Label_3_019053C5
@ 029   ----------------------------------------
 .byte   PATT
  .word Label_3_019053C5
@ 030   ----------------------------------------
 .byte   PATT
  .word Label_3_0190538A
@ 031   ----------------------------------------
 .byte   PATT
  .word Label_3_019053EA
@ 032   ----------------------------------------
 .byte   PATT
  .word Label_3_0190538A
@ 033   ----------------------------------------
 .byte   PATT
  .word Label_3_0190538A
@ 034   ----------------------------------------
 .byte   PATT
  .word Label_3_019053A5
@ 035   ----------------------------------------
 .byte   PATT
  .word Label_3_019053A5
@ 036   ----------------------------------------
 .byte   PATT
  .word Label_3_019053C5
@ 037   ----------------------------------------
 .byte   PATT
  .word Label_3_019053C5
@ 038   ----------------------------------------
 .byte   PATT
  .word Label_3_0190538A
@ 039   ----------------------------------------
 .byte   PATT
  .word Label_3_019053EA
@ 040   ----------------------------------------
 .byte   PATT
  .word Label_3_0190542C
@ 041   ----------------------------------------
 .byte   PATT
  .word Label_3_0190542C
@ 042   ----------------------------------------
 .byte   PATT
  .word Label_3_0190538A
@ 043   ----------------------------------------
 .byte   PATT
  .word Label_3_0190538A
@ 044   ----------------------------------------
 .byte   PATT
  .word Label_3_0190542C
@ 045   ----------------------------------------
 .byte   PATT
  .word Label_3_0190542C
@ 046   ----------------------------------------
 .byte   PATT
  .word Label_3_019053C5
@ 047   ----------------------------------------
 .byte   PATT
  .word Label_3_01905465
@ 048   ----------------------------------------
 .byte   PATT
  .word Label_3_019053A5
@ 049   ----------------------------------------
 .byte   N11 ,Bn1 ,v127
 .byte   W12
 .byte   N05
 .byte   W06
 .byte   N05
 .byte   W06
 .byte   N11
 .byte   W12
 .byte   N05
 .byte   W06
 .byte   N05
 .byte   W06
 .byte   N11
 .byte   W12
 .byte   N05
 .byte   W06
 .byte   N05
 .byte   W06
 .byte   N11
 .byte   W12
 .byte   N23 ,Cs1
 .byte   W12
@ 050   ----------------------------------------
 .byte   W12
 .byte   N11
 .byte   W12
 .byte   N20 ,Ds1
 .byte   W24
 .byte   En1
 .byte   W24
 .byte   N11 ,Ds1
 .byte   W12
 .byte   N23 ,Cs1
 .byte   W12
@ 051   ----------------------------------------
 .byte   W12
 .byte   N11
 .byte   W12
 .byte   N20 ,Ds1
 .byte   W24
 .byte   En1
 .byte   W24
 .byte   Ds1
 .byte   W24
@ 052   ----------------------------------------
 .byte   PATT
  .word Label_3_019053A5
@ 053   ----------------------------------------
 .byte   N11 ,Bn1 ,v127
 .byte   W12
 .byte   N05
 .byte   W06
 .byte   N05
 .byte   W06
 .byte   N11
 .byte   W12
 .byte   N05
 .byte   W06
 .byte   N05
 .byte   W06
 .byte   N11
 .byte   W12
 .byte   N05
 .byte   W06
 .byte   N05
 .byte   W06
 .byte   N11 ,Cn2
 .byte   W12
 .byte   N05
 .byte   W06
 .byte   N05
 .byte   W06
@ 054   ----------------------------------------
 .byte   PATT
  .word Label_3_0190538A
@ 055   ----------------------------------------
 .byte   PATT
  .word Label_3_0190538A
@ 056   ----------------------------------------
 .byte   GOTO
  .word Label_3_0190536A
@ 057   ----------------------------------------
 .byte   W96
@ 058   ----------------------------------------
 .byte   W96
@ 059   ----------------------------------------
 .byte   W96
@ 060   ----------------------------------------
 .byte   W96
@ 061   ----------------------------------------
 .byte   W96
@ 062   ----------------------------------------
 .byte   W96
@ 063   ----------------------------------------
 .byte   W96
@ 064   ----------------------------------------
 .byte   W96
@ 065   ----------------------------------------
 .byte   W96
@ 066   ----------------------------------------
 .byte   W96
@ 067   ----------------------------------------
 .byte   W96
@ 068   ----------------------------------------
 .byte   W96
@ 069   ----------------------------------------
 .byte   W96
@ 070   ----------------------------------------
 .byte   W96
@ 071   ----------------------------------------
 .byte   W96
@ 072   ----------------------------------------
 .byte   W96
@ 073   ----------------------------------------
 .byte   W96
@ 074   ----------------------------------------
 .byte   W96
@ 075   ----------------------------------------
 .byte   W96
@ 076   ----------------------------------------
 .byte   W96
@ 077   ----------------------------------------
 .byte   W96
@ 078   ----------------------------------------
 .byte   W96
@ 079   ----------------------------------------
 .byte   W96
@ 080   ----------------------------------------
 .byte   W96
@ 081   ----------------------------------------
 .byte   W96
@ 082   ----------------------------------------
 .byte   W96
@ 083   ----------------------------------------
 .byte   W96
@ 084   ----------------------------------------
 .byte   W96
@ 085   ----------------------------------------
 .byte   W96
@ 086   ----------------------------------------
 .byte   W96
@ 087   ----------------------------------------
 .byte   W96
@ 088   ----------------------------------------
 .byte   W96
@ 089   ----------------------------------------
 .byte   W96
@ 090   ----------------------------------------
 .byte   W96
@ 091   ----------------------------------------
 .byte   W96
@ 092   ----------------------------------------
 .byte   W96
@ 093   ----------------------------------------
 .byte   W96
@ 094   ----------------------------------------
 .byte   W96
@ 095   ----------------------------------------
 .byte   W96
@ 096   ----------------------------------------
 .byte   W96
@ 097   ----------------------------------------
 .byte   W96
@ 098   ----------------------------------------
 .byte   W96
@ 099   ----------------------------------------
 .byte   W96
@ 100   ----------------------------------------
 .byte   W96
@ 101   ----------------------------------------
 .byte   W96
@ 102   ----------------------------------------
 .byte   W96
@ 103   ----------------------------------------
 .byte   W96
@ 104   ----------------------------------------
 .byte   W96
@ 105   ----------------------------------------
 .byte   W96
@ 106   ----------------------------------------
 .byte   W96
@ 107   ----------------------------------------
 .byte   W96
@ 108   ----------------------------------------
 .byte   W96
@ 109   ----------------------------------------
 .byte   W96
@ 110   ----------------------------------------
 .byte   W96
@ 111   ----------------------------------------
 .byte   W96
@ 112   ----------------------------------------
 .byte   W96
@ 113   ----------------------------------------
 .byte   W96
@ 114   ----------------------------------------
 .byte   W96
@ 115   ----------------------------------------
 .byte   W96
@ 116   ----------------------------------------
 .byte   W96
@ 117   ----------------------------------------
 .byte   W96
@ 118   ----------------------------------------
 .byte   W96
@ 119   ----------------------------------------
 .byte   W96
@ 120   ----------------------------------------
 .byte   W96
@ 121   ----------------------------------------
 .byte   W96
@ 122   ----------------------------------------
 .byte   W96
@ 123   ----------------------------------------
 .byte   W96
@ 124   ----------------------------------------
 .byte   W96
@ 125   ----------------------------------------
 .byte   W96
@ 126   ----------------------------------------
 .byte   W96
@ 127   ----------------------------------------
 .byte   W96
@ 128   ----------------------------------------
 .byte   W96
@ 129   ----------------------------------------
 .byte   W96
@ 130   ----------------------------------------
 .byte   W96
@ 131   ----------------------------------------
 .byte   W96
@ 132   ----------------------------------------
 .byte   W96
@ 133   ----------------------------------------
 .byte   W96
@ 134   ----------------------------------------
 .byte   W96
@ 135   ----------------------------------------
 .byte   W96
@ 136   ----------------------------------------
 .byte   W96
@ 137   ----------------------------------------
 .byte   W96
@ 138   ----------------------------------------
 .byte   W96
@ 139   ----------------------------------------
 .byte   W96
@ 140   ----------------------------------------
 .byte   W96
@ 141   ----------------------------------------
 .byte   W96
@ 142   ----------------------------------------
 .byte   W96
@ 143   ----------------------------------------
 .byte   W96
@ 144   ----------------------------------------
 .byte   W96
@ 145   ----------------------------------------
 .byte   W96
@ 146   ----------------------------------------
 .byte   W96
@ 147   ----------------------------------------
 .byte   W96
@ 148   ----------------------------------------
 .byte   W96
@ 149   ----------------------------------------
 .byte   W96
@ 150   ----------------------------------------
 .byte   W96
@ 151   ----------------------------------------
 .byte   W96
@ 152   ----------------------------------------
 .byte   W96
@ 153   ----------------------------------------
 .byte   W96
@ 154   ----------------------------------------
 .byte   W96
@ 155   ----------------------------------------
 .byte   W96
@ 156   ----------------------------------------
 .byte   W96
@ 157   ----------------------------------------
 .byte   W96
@ 158   ----------------------------------------
 .byte   W96
@ 159   ----------------------------------------
 .byte   W96
@ 160   ----------------------------------------
 .byte   W96
@ 161   ----------------------------------------
 .byte   W96
@ 162   ----------------------------------------
 .byte   W96
@ 163   ----------------------------------------
 .byte   W96
@ 164   ----------------------------------------
 .byte   W96
@ 165   ----------------------------------------
 .byte   W96
@ 166   ----------------------------------------
 .byte   W96
@ 167   ----------------------------------------
 .byte   W96
@ 168   ----------------------------------------
 .byte   W96
@ 169   ----------------------------------------
 .byte   W96
@ 170   ----------------------------------------
 .byte   W96
@ 171   ----------------------------------------
 .byte   W96
@ 172   ----------------------------------------
 .byte   W96
@ 173   ----------------------------------------
 .byte   W96
@ 174   ----------------------------------------
 .byte   W96
@ 175   ----------------------------------------
 .byte   W96
@ 176   ----------------------------------------
 .byte   W96
@ 177   ----------------------------------------
 .byte   W96
@ 178   ----------------------------------------
 .byte   W96
@ 179   ----------------------------------------
 .byte   W96
@ 180   ----------------------------------------
 .byte   W96
@ 181   ----------------------------------------
 .byte   W96
@ 182   ----------------------------------------
 .byte   W96
@ 183   ----------------------------------------
 .byte   W96
@ 184   ----------------------------------------
 .byte   W96
@ 185   ----------------------------------------
 .byte   W96
@ 186   ----------------------------------------
 .byte   W96
@ 187   ----------------------------------------
 .byte   W96
@ 188   ----------------------------------------
 .byte   W96
@ 189   ----------------------------------------
 .byte   W96
@ 190   ----------------------------------------
 .byte   W96
@ 191   ----------------------------------------
 .byte   W96
@ 192   ----------------------------------------
 .byte   W96
@ 193   ----------------------------------------
 .byte   W92
 .byte   W02
 .byte   FINE

@**************** Track 5 (Midi-Chn.4) ****************@

song02A0_005:
@ 000   ----------------------------------------
 .byte   KEYSH , song02A0_key+0
Label_4_019055EA:
 .byte   VOICE , 29
 .byte   PAN , c_v+0
 .byte   VOL , 54*song02A0_mvl/mxv
 .byte   N09 ,Cs3 ,v080
 .byte   W12
 .byte   N04 ,En3
 .byte   W06
 .byte   N04
 .byte   W06
 .byte   N09
 .byte   W12
 .byte   N04
 .byte   W06
 .byte   N04
 .byte   W06
 .byte   N11
 .byte   W12
 .byte   Cs3
 .byte   W24
 .byte   N04
 .byte   W06
 .byte   N04
 .byte   W06
@ 001   ----------------------------------------
Label_4_01905607:
 .byte   N09 ,En3 ,v080
 .byte   W12
 .byte   N04
 .byte   W06
 .byte   N04
 .byte   W06
 .byte   N09
 .byte   W12
 .byte   Cs3
 .byte   W24
 .byte   Gs3
 .byte   W12
 .byte   Fs3
 .byte   W12
 .byte   Gs3
 .byte   W12
 .byte   PEND 
@ 002   ----------------------------------------
Label_4_0190561A:
 .byte   W12
 .byte   N04 ,En3 ,v080
 .byte   W06
 .byte   N04
 .byte   W06
 .byte   N09
 .byte   W12
 .byte   N04
 .byte   W06
 .byte   N04
 .byte   W06
 .byte   N09
 .byte   W12
 .byte   Cs3
 .byte   W24
 .byte   Gs3
 .byte   W12
 .byte   PEND 
@ 003   ----------------------------------------
Label_4_0190562E:
 .byte   W12
 .byte   N09 ,Fs3 ,v080
 .byte   W24
 .byte   En3
 .byte   W24
 .byte   Fs3
 .byte   W36
 .byte   PEND 
@ 004   ----------------------------------------
Label_4_01905638:
 .byte   W12
 .byte   N04 ,Fs3 ,v080
 .byte   W06
 .byte   N04
 .byte   W06
 .byte   N09
 .byte   W12
 .byte   N04
 .byte   W06
 .byte   N04
 .byte   W06
 .byte   N09
 .byte   W12
 .byte   Ds3
 .byte   W24
 .byte   Gs3
 .byte   W12
 .byte   PEND 
@ 005   ----------------------------------------
Label_4_0190564C:
 .byte   W12
 .byte   N09 ,Fs3 ,v080
 .byte   W24
 .byte   En3
 .byte   W24
 .byte   Ds3
 .byte   W24
 .byte   Cs3
 .byte   W12
 .byte   PEND 
@ 006   ----------------------------------------
Label_4_01905658:
 .byte   W12
 .byte   N09 ,Cs3 ,v080
 .byte   W12
 .byte   Gs3
 .byte   W12
 .byte   Bn3
 .byte   W12
 .byte   N30 ,As3
 .byte   W36
 .byte   N09 ,Cs3
 .byte   W12
 .byte   PEND 
@ 007   ----------------------------------------
 .byte   W12
 .byte   N09
 .byte   W12
 .byte   Gs3
 .byte   W12
 .byte   Bn3
 .byte   W12
 .byte   N23 ,As3
 .byte   W24
 .byte   N09 ,Ds4
 .byte   W12
 .byte   En4
 .byte   W12
@ 008   ----------------------------------------
 .byte   W12
 .byte   N04 ,En3
 .byte   W06
 .byte   N04
 .byte   W06
 .byte   N09
 .byte   W12
 .byte   N04
 .byte   W06
 .byte   N04
 .byte   W06
 .byte   N11
 .byte   W12
 .byte   Cs3
 .byte   W24
 .byte   N04
 .byte   W06
 .byte   N04
 .byte   W06
@ 009   ----------------------------------------
 .byte   PATT
  .word Label_4_01905607
@ 010   ----------------------------------------
 .byte   PATT
  .word Label_4_0190561A
@ 011   ----------------------------------------
 .byte   PATT
  .word Label_4_0190562E
@ 012   ----------------------------------------
 .byte   PATT
  .word Label_4_01905638
@ 013   ----------------------------------------
 .byte   PATT
  .word Label_4_0190564C
@ 014   ----------------------------------------
 .byte   PATT
  .word Label_4_01905658
@ 015   ----------------------------------------
 .byte   W12
 .byte   N09 ,Cs3 ,v080
 .byte   W12
 .byte   Gs3
 .byte   W12
 .byte   Bn3
 .byte   W12
 .byte   N23 ,As3
 .byte   W24
 .byte   N09 ,Bn3
 .byte   W12
 .byte   N68 ,Cs4
 .byte   W12
@ 016   ----------------------------------------
Label_4_019056BB:
 .byte   W72
 .byte   N09 ,Bn3 ,v080
 .byte   W12
 .byte   N21 ,En4
 .byte   W12
 .byte   PEND 
@ 017   ----------------------------------------
Label_4_019056C4:
 .byte   W12
 .byte   N19 ,Cs4 ,v080
 .byte   W24
 .byte   N24 ,Bn3
 .byte   W24
 .byte   N19 ,Cs4
 .byte   W24
 .byte   N48 ,Bn3
 .byte   W12
 .byte   PEND 
@ 018   ----------------------------------------
Label_4_019056D3:
 .byte   W48
 .byte   N09 ,Bn3 ,v080
 .byte   W12
 .byte   N32 ,Cs4
 .byte   W36
 .byte   PEND 
@ 019   ----------------------------------------
Label_4_019056DC:
 .byte   N09 ,Gs3 ,v080
 .byte   W12
 .byte   An3
 .byte   W12
 .byte   Gs3
 .byte   W12
 .byte   En3
 .byte   W24
 .byte   N09
 .byte   W12
 .byte   Gs3
 .byte   W12
 .byte   Bn3
 .byte   W12
 .byte   PEND 
@ 020   ----------------------------------------
Label_4_019056ED:
 .byte   N56 ,Cs4 ,v080
 .byte   W72
 .byte   N09 ,Bn3
 .byte   W12
 .byte   N21 ,En4
 .byte   W12
 .byte   PEND 
@ 021   ----------------------------------------
Label_4_019056F8:
 .byte   W12
 .byte   N19 ,Cs4 ,v080
 .byte   W24
 .byte   N24 ,Bn3
 .byte   W24
 .byte   N19 ,Cs4
 .byte   W24
 .byte   N56 ,Bn3
 .byte   W12
 .byte   PEND 
@ 022   ----------------------------------------
Label_4_01905707:
 .byte   W48
 .byte   N09 ,Bn3 ,v080
 .byte   W12
 .byte   Gs3
 .byte   W12
 .byte   Bn3
 .byte   W12
 .byte   Cn4
 .byte   W12
 .byte   PEND 
@ 023   ----------------------------------------
 .byte   W12
 .byte   N09
 .byte   W12
 .byte   N09
 .byte   W12
 .byte   Ds4
 .byte   W12
 .byte   N44 ,Gs4
 .byte   W48
@ 024   ----------------------------------------
 .byte   W96
@ 025   ----------------------------------------
 .byte   W96
@ 026   ----------------------------------------
 .byte   W96
@ 027   ----------------------------------------
 .byte   W96
@ 028   ----------------------------------------
 .byte   W96
@ 029   ----------------------------------------
 .byte   W84
 .byte   N09 ,Cs3
 .byte   W12
@ 030   ----------------------------------------
 .byte   W12
 .byte   N09
 .byte   W12
 .byte   Gs3
 .byte   W12
 .byte   Bn3
 .byte   W12
 .byte   N32 ,As3
 .byte   W36
 .byte   N09 ,Cs3
 .byte   W12
@ 031   ----------------------------------------
 .byte   W12
 .byte   N09
 .byte   W12
 .byte   Gs3
 .byte   W12
 .byte   Bn3
 .byte   W12
 .byte   As3
 .byte   W24
 .byte   Bn3
 .byte   W24
@ 032   ----------------------------------------
 .byte   W96
@ 033   ----------------------------------------
 .byte   W96
@ 034   ----------------------------------------
 .byte   W96
@ 035   ----------------------------------------
 .byte   W96
@ 036   ----------------------------------------
 .byte   W96
@ 037   ----------------------------------------
 .byte   W96
@ 038   ----------------------------------------
 .byte   W84
 .byte   Cs3
 .byte   W12
@ 039   ----------------------------------------
 .byte   W12
 .byte   N09
 .byte   W12
 .byte   Gs3
 .byte   W12
 .byte   Bn3
 .byte   W12
 .byte   As3
 .byte   W24
 .byte   Bn3
 .byte   W12
 .byte   N68 ,Cs4
 .byte   W12
@ 040   ----------------------------------------
 .byte   PATT
  .word Label_4_019056BB
@ 041   ----------------------------------------
 .byte   PATT
  .word Label_4_019056C4
@ 042   ----------------------------------------
 .byte   PATT
  .word Label_4_019056D3
@ 043   ----------------------------------------
 .byte   PATT
  .word Label_4_019056DC
@ 044   ----------------------------------------
 .byte   PATT
  .word Label_4_019056ED
@ 045   ----------------------------------------
 .byte   PATT
  .word Label_4_019056F8
@ 046   ----------------------------------------
 .byte   PATT
  .word Label_4_01905707
@ 047   ----------------------------------------
 .byte   W12
 .byte   N09 ,Cn4 ,v080
 .byte   W12
 .byte   N09
 .byte   W12
 .byte   Ds4
 .byte   W12
 .byte   N28 ,Gs4
 .byte   W36
 .byte   N21 ,En3
 .byte   W12
@ 048   ----------------------------------------
Label_4_01905787:
 .byte   W12
 .byte   N09 ,En3 ,v080
 .byte   W12
 .byte   N09
 .byte   W12
 .byte   Ds3
 .byte   W12
 .byte   N19 ,En3
 .byte   W24
 .byte   N09 ,Cs4
 .byte   W12
 .byte   N23 ,Bn3
 .byte   W12
 .byte   PEND 
@ 049   ----------------------------------------
 .byte   W12
 .byte   N19 ,An3
 .byte   W24
 .byte   N24 ,Gs3
 .byte   W24
 .byte   N19 ,Fs3
 .byte   W24
 .byte   N09
 .byte   W12
@ 050   ----------------------------------------
 .byte   W12
 .byte   Gs3
 .byte   W12
 .byte   N11
 .byte   W24
 .byte   N11
 .byte   W36
 .byte   N09 ,Fs3
 .byte   W12
@ 051   ----------------------------------------
 .byte   W12
 .byte   Gs3
 .byte   W12
 .byte   N09
 .byte   W24
 .byte   N09
 .byte   W24
 .byte   Fs3
 .byte   W12
 .byte   En3
 .byte   W12
@ 052   ----------------------------------------
 .byte   PATT
  .word Label_4_01905787
@ 053   ----------------------------------------
 .byte   W12
 .byte   N19 ,An3 ,v080
 .byte   W24
 .byte   N24 ,Gs3
 .byte   W24
 .byte   N19 ,Fs3
 .byte   W36
@ 054   ----------------------------------------
 .byte   N09 ,Ds3
 .byte   W12
 .byte   En3
 .byte   W12
 .byte   Ds3
 .byte   W12
 .byte   N60 ,Cs3
 .byte   W60
@ 055   ----------------------------------------
 .byte   W96
@ 056   ----------------------------------------
 .byte   GOTO
  .word Label_4_019055EA
@ 057   ----------------------------------------
 .byte   W96
@ 058   ----------------------------------------
 .byte   W96
@ 059   ----------------------------------------
 .byte   W96
@ 060   ----------------------------------------
 .byte   W96
@ 061   ----------------------------------------
 .byte   W96
@ 062   ----------------------------------------
 .byte   W96
@ 063   ----------------------------------------
 .byte   W96
@ 064   ----------------------------------------
 .byte   W96
@ 065   ----------------------------------------
 .byte   W96
@ 066   ----------------------------------------
 .byte   W96
@ 067   ----------------------------------------
 .byte   W96
@ 068   ----------------------------------------
 .byte   W96
@ 069   ----------------------------------------
 .byte   W96
@ 070   ----------------------------------------
 .byte   W96
@ 071   ----------------------------------------
 .byte   W96
@ 072   ----------------------------------------
 .byte   W96
@ 073   ----------------------------------------
 .byte   W96
@ 074   ----------------------------------------
 .byte   W96
@ 075   ----------------------------------------
 .byte   W96
@ 076   ----------------------------------------
 .byte   W96
@ 077   ----------------------------------------
 .byte   W96
@ 078   ----------------------------------------
 .byte   W96
@ 079   ----------------------------------------
 .byte   W96
@ 080   ----------------------------------------
 .byte   W96
@ 081   ----------------------------------------
 .byte   W96
@ 082   ----------------------------------------
 .byte   W96
@ 083   ----------------------------------------
 .byte   W96
@ 084   ----------------------------------------
 .byte   W96
@ 085   ----------------------------------------
 .byte   W96
@ 086   ----------------------------------------
 .byte   W96
@ 087   ----------------------------------------
 .byte   W96
@ 088   ----------------------------------------
 .byte   W96
@ 089   ----------------------------------------
 .byte   W96
@ 090   ----------------------------------------
 .byte   W96
@ 091   ----------------------------------------
 .byte   W96
@ 092   ----------------------------------------
 .byte   W96
@ 093   ----------------------------------------
 .byte   W96
@ 094   ----------------------------------------
 .byte   W96
@ 095   ----------------------------------------
 .byte   W96
@ 096   ----------------------------------------
 .byte   W96
@ 097   ----------------------------------------
 .byte   W96
@ 098   ----------------------------------------
 .byte   W96
@ 099   ----------------------------------------
 .byte   W96
@ 100   ----------------------------------------
 .byte   W96
@ 101   ----------------------------------------
 .byte   W96
@ 102   ----------------------------------------
 .byte   W96
@ 103   ----------------------------------------
 .byte   W96
@ 104   ----------------------------------------
 .byte   W96
@ 105   ----------------------------------------
 .byte   W96
@ 106   ----------------------------------------
 .byte   W96
@ 107   ----------------------------------------
 .byte   W96
@ 108   ----------------------------------------
 .byte   W96
@ 109   ----------------------------------------
 .byte   W96
@ 110   ----------------------------------------
 .byte   W96
@ 111   ----------------------------------------
 .byte   W96
@ 112   ----------------------------------------
 .byte   W96
@ 113   ----------------------------------------
 .byte   W96
@ 114   ----------------------------------------
 .byte   W96
@ 115   ----------------------------------------
 .byte   W96
@ 116   ----------------------------------------
 .byte   W96
@ 117   ----------------------------------------
 .byte   W96
@ 118   ----------------------------------------
 .byte   W96
@ 119   ----------------------------------------
 .byte   W96
@ 120   ----------------------------------------
 .byte   W96
@ 121   ----------------------------------------
 .byte   W96
@ 122   ----------------------------------------
 .byte   W96
@ 123   ----------------------------------------
 .byte   W96
@ 124   ----------------------------------------
 .byte   W96
@ 125   ----------------------------------------
 .byte   W96
@ 126   ----------------------------------------
 .byte   W96
@ 127   ----------------------------------------
 .byte   W96
@ 128   ----------------------------------------
 .byte   W96
@ 129   ----------------------------------------
 .byte   W96
@ 130   ----------------------------------------
 .byte   W96
@ 131   ----------------------------------------
 .byte   W96
@ 132   ----------------------------------------
 .byte   W96
@ 133   ----------------------------------------
 .byte   W96
@ 134   ----------------------------------------
 .byte   W96
@ 135   ----------------------------------------
 .byte   W96
@ 136   ----------------------------------------
 .byte   W96
@ 137   ----------------------------------------
 .byte   W96
@ 138   ----------------------------------------
 .byte   W96
@ 139   ----------------------------------------
 .byte   W96
@ 140   ----------------------------------------
 .byte   W96
@ 141   ----------------------------------------
 .byte   W96
@ 142   ----------------------------------------
 .byte   W96
@ 143   ----------------------------------------
 .byte   W96
@ 144   ----------------------------------------
 .byte   W96
@ 145   ----------------------------------------
 .byte   W96
@ 146   ----------------------------------------
 .byte   W96
@ 147   ----------------------------------------
 .byte   W96
@ 148   ----------------------------------------
 .byte   W96
@ 149   ----------------------------------------
 .byte   W96
@ 150   ----------------------------------------
 .byte   W96
@ 151   ----------------------------------------
 .byte   W96
@ 152   ----------------------------------------
 .byte   W96
@ 153   ----------------------------------------
 .byte   W96
@ 154   ----------------------------------------
 .byte   W96
@ 155   ----------------------------------------
 .byte   W96
@ 156   ----------------------------------------
 .byte   W96
@ 157   ----------------------------------------
 .byte   W96
@ 158   ----------------------------------------
 .byte   W96
@ 159   ----------------------------------------
 .byte   W96
@ 160   ----------------------------------------
 .byte   W96
@ 161   ----------------------------------------
 .byte   W96
@ 162   ----------------------------------------
 .byte   W96
@ 163   ----------------------------------------
 .byte   W96
@ 164   ----------------------------------------
 .byte   W96
@ 165   ----------------------------------------
 .byte   W96
@ 166   ----------------------------------------
 .byte   W96
@ 167   ----------------------------------------
 .byte   W96
@ 168   ----------------------------------------
 .byte   W96
@ 169   ----------------------------------------
 .byte   W96
@ 170   ----------------------------------------
 .byte   W96
@ 171   ----------------------------------------
 .byte   W96
@ 172   ----------------------------------------
 .byte   W96
@ 173   ----------------------------------------
 .byte   W96
@ 174   ----------------------------------------
 .byte   W96
@ 175   ----------------------------------------
 .byte   W96
@ 176   ----------------------------------------
 .byte   W96
@ 177   ----------------------------------------
 .byte   W96
@ 178   ----------------------------------------
 .byte   W96
@ 179   ----------------------------------------
 .byte   W96
@ 180   ----------------------------------------
 .byte   W96
@ 181   ----------------------------------------
 .byte   W96
@ 182   ----------------------------------------
 .byte   W96
@ 183   ----------------------------------------
 .byte   W76
 .byte   FINE

@**************** Track 6 (Midi-Chn.5) ****************@

song02A0_006:
@ 000   ----------------------------------------
 .byte   KEYSH , song02A0_key+0
Label_5_01917636:
 .byte   VOICE , 65
 .byte   PAN , c_v+0
 .byte   VOL , 60*song02A0_mvl/mxv
 .byte   W96
@ 001   ----------------------------------------
 .byte   W96
@ 002   ----------------------------------------
 .byte   W96
@ 003   ----------------------------------------
 .byte   W96
@ 004   ----------------------------------------
 .byte   W96
@ 005   ----------------------------------------
 .byte   W96
@ 006   ----------------------------------------
 .byte   W96
@ 007   ----------------------------------------
 .byte   W96
@ 008   ----------------------------------------
 .byte   W96
@ 009   ----------------------------------------
 .byte   W96
@ 010   ----------------------------------------
 .byte   W96
@ 011   ----------------------------------------
 .byte   W96
@ 012   ----------------------------------------
 .byte   W96
@ 013   ----------------------------------------
 .byte   W96
@ 014   ----------------------------------------
 .byte   W96
@ 015   ----------------------------------------
 .byte   W96
@ 016   ----------------------------------------
 .byte   W96
@ 017   ----------------------------------------
 .byte   W96
@ 018   ----------------------------------------
 .byte   W96
@ 019   ----------------------------------------
 .byte   W96
@ 020   ----------------------------------------
 .byte   W96
@ 021   ----------------------------------------
 .byte   W96
@ 022   ----------------------------------------
 .byte   W96
@ 023   ----------------------------------------
 .byte   W96
@ 024   ----------------------------------------
 .byte   N56 ,Gs2 ,v080
 .byte   W72
 .byte   N09 ,Fs2
 .byte   W12
 .byte   N21 ,Bn2
 .byte   W12
@ 025   ----------------------------------------
 .byte   W12
 .byte   N19 ,An2
 .byte   W24
 .byte   N24 ,Gs2
 .byte   W24
 .byte   N19 ,An2
 .byte   W24
 .byte   N68 ,Gs2
 .byte   W12
@ 026   ----------------------------------------
 .byte   W72
 .byte   N09 ,Fs2
 .byte   W12
 .byte   N21 ,Bn2
 .byte   W12
@ 027   ----------------------------------------
 .byte   W12
 .byte   N19 ,An2
 .byte   W24
 .byte   N24 ,Gs2
 .byte   W24
 .byte   N19 ,An2
 .byte   W24
 .byte   N48 ,En2
 .byte   W12
@ 028   ----------------------------------------
 .byte   W48
 .byte   N09
 .byte   W12
 .byte   Fs2
 .byte   W12
 .byte   Gs2
 .byte   W12
 .byte   N78 ,Ds2
 .byte   W12
@ 029   ----------------------------------------
 .byte   W96
@ 030   ----------------------------------------
 .byte   W96
@ 031   ----------------------------------------
 .byte   W84
 .byte   N48 ,Cs4
 .byte   W12
@ 032   ----------------------------------------
 .byte   W48
 .byte   N19
 .byte   W24
 .byte   N09 ,Bn3
 .byte   W12
 .byte   Cs4
 .byte   W12
@ 033   ----------------------------------------
 .byte   W12
 .byte   N28 ,En4
 .byte   W36
 .byte   N09 ,Gs4
 .byte   W12
 .byte   Fs4
 .byte   W12
 .byte   En4
 .byte   W12
 .byte   Ds4
 .byte   W12
@ 034   ----------------------------------------
 .byte   N36 ,Cs4
 .byte   W48
 .byte   N19
 .byte   W24
 .byte   N09 ,Bn3
 .byte   W12
 .byte   Cs4
 .byte   W12
@ 035   ----------------------------------------
 .byte   W12
 .byte   N28 ,En4
 .byte   W36
 .byte   N09
 .byte   W12
 .byte   Fs4
 .byte   W12
 .byte   N22 ,En4
 .byte   W24
@ 036   ----------------------------------------
 .byte   N36 ,Ds4
 .byte   W48
 .byte   N09
 .byte   W12
 .byte   Cs4
 .byte   W12
 .byte   Bn3
 .byte   W12
 .byte   N21 ,Gs4
 .byte   W12
@ 037   ----------------------------------------
 .byte   W12
 .byte   N19 ,Fs4
 .byte   W24
 .byte   N24 ,En4
 .byte   W24
 .byte   N19 ,Ds4
 .byte   W36
@ 038   ----------------------------------------
 .byte   N09
 .byte   W12
 .byte   En4
 .byte   W12
 .byte   Ds4
 .byte   W12
 .byte   N56 ,Cs4
 .byte   W60
@ 039   ----------------------------------------
 .byte   W96
@ 040   ----------------------------------------
 .byte   W96
@ 041   ----------------------------------------
 .byte   W96
@ 042   ----------------------------------------
 .byte   W96
@ 043   ----------------------------------------
 .byte   W96
@ 044   ----------------------------------------
 .byte   W96
@ 045   ----------------------------------------
 .byte   W96
@ 046   ----------------------------------------
 .byte   W96
@ 047   ----------------------------------------
 .byte   W84
 .byte   N21 ,An2
 .byte   N21 ,Cs3
 .byte   N21 ,En3
 .byte   W12
@ 048   ----------------------------------------
 .byte   W12
 .byte   N09 ,An2
 .byte   N09 ,Cs3
 .byte   N09 ,En3
 .byte   W12
 .byte   An2
 .byte   N09 ,Cs3
 .byte   N09 ,En3
 .byte   W12
 .byte   An2
 .byte   N09 ,Bn2
 .byte   N09 ,Ds3
 .byte   W12
 .byte   N22 ,An2
 .byte   N22 ,Cs3
 .byte   N22 ,En3
 .byte   W24
 .byte   N09 ,An2
 .byte   N09 ,An3
 .byte   N09 ,Cs4
 .byte   W12
 .byte   N21 ,Bn2
 .byte   N21 ,Fs3
 .byte   N21 ,Bn3
 .byte   W12
@ 049   ----------------------------------------
 .byte   W12
 .byte   N19 ,Bn2
 .byte   N19 ,Fs3
 .byte   N19 ,An3
 .byte   W24
 .byte   Bn2
 .byte   N19 ,En3
 .byte   N19 ,Gs3
 .byte   W24
 .byte   Bn2
 .byte   N19 ,Ds3
 .byte   N19 ,Fs3
 .byte   W24
 .byte   N09 ,Cs3
 .byte   N09 ,Ds3
 .byte   N09 ,Fs3
 .byte   W12
@ 050   ----------------------------------------
 .byte   W12
 .byte   Cs3
 .byte   N09 ,En3
 .byte   N09 ,Gs3
 .byte   W12
 .byte   N11 ,Cs3
 .byte   N11 ,En3
 .byte   N11 ,Gs3
 .byte   W24
 .byte   Cs3
 .byte   N11 ,En3
 .byte   N11 ,Gs3
 .byte   W36
 .byte   N09 ,Cs3
 .byte   N09 ,Ds3
 .byte   N09 ,Fs3
 .byte   W12
@ 051   ----------------------------------------
 .byte   W12
 .byte   Cs3
 .byte   N09 ,En3
 .byte   N09 ,Gs3
 .byte   W12
 .byte   N11 ,Cs3
 .byte   N11 ,En3
 .byte   N11 ,Gs3
 .byte   W24
 .byte   Cs3
 .byte   N11 ,En3
 .byte   N11 ,Gs3
 .byte   W24
 .byte   N09 ,Bn2
 .byte   N09 ,Ds3
 .byte   N09 ,Fs3
 .byte   W12
 .byte   An2
 .byte   N09 ,Cs3
 .byte   N09 ,En3
 .byte   W12
@ 052   ----------------------------------------
 .byte   W12
 .byte   An2
 .byte   N09 ,Cs3
 .byte   N09 ,En3
 .byte   W12
 .byte   An2
 .byte   N09 ,Cs3
 .byte   N09 ,En3
 .byte   W12
 .byte   An2
 .byte   N09 ,Bn2
 .byte   N09 ,Ds3
 .byte   W12
 .byte   N19 ,An2
 .byte   N19 ,Cs3
 .byte   N19 ,En3
 .byte   W24
 .byte   N09 ,An2
 .byte   N09 ,An3
 .byte   N09 ,Cs4
 .byte   W12
 .byte   N21 ,Bn2
 .byte   N21 ,Gs3
 .byte   N21 ,Bn3
 .byte   W12
@ 053   ----------------------------------------
 .byte   W12
 .byte   N19 ,Bn2
 .byte   N19 ,Fs3
 .byte   N19 ,An3
 .byte   W24
 .byte   Bn2
 .byte   N19 ,En3
 .byte   N19 ,Gs3
 .byte   W24
 .byte   N28 ,Bn2
 .byte   N28 ,Ds3
 .byte   N28 ,Fs3
 .byte   W36
@ 054   ----------------------------------------
 .byte   N09 ,Bn2
 .byte   N09 ,Ds3
 .byte   W12
 .byte   Cs3
 .byte   N09 ,En3
 .byte   W12
 .byte   Bn2
 .byte   N09 ,Ds3
 .byte   W12
 .byte   TIE ,Gs2
 .byte   TIE ,Cs3
 .byte   W60
@ 055   ----------------------------------------
 .byte   W76
 .byte   EOT
 .byte   Gs2 ,v061
 .byte   W20
@ 056   ----------------------------------------
 .byte   GOTO
  .word Label_5_01917636
@ 057   ----------------------------------------
 .byte   W96
@ 058   ----------------------------------------
 .byte   W96
@ 059   ----------------------------------------
 .byte   W96
@ 060   ----------------------------------------
 .byte   W96
@ 061   ----------------------------------------
 .byte   W96
@ 062   ----------------------------------------
 .byte   W96
@ 063   ----------------------------------------
 .byte   W96
@ 064   ----------------------------------------
 .byte   W96
@ 065   ----------------------------------------
 .byte   W96
@ 066   ----------------------------------------
 .byte   W96
@ 067   ----------------------------------------
 .byte   W96
@ 068   ----------------------------------------
 .byte   W96
@ 069   ----------------------------------------
 .byte   W96
@ 070   ----------------------------------------
 .byte   W96
@ 071   ----------------------------------------
 .byte   W96
@ 072   ----------------------------------------
 .byte   W96
@ 073   ----------------------------------------
 .byte   W96
@ 074   ----------------------------------------
 .byte   W96
@ 075   ----------------------------------------
 .byte   W96
@ 076   ----------------------------------------
 .byte   W96
@ 077   ----------------------------------------
 .byte   W96
@ 078   ----------------------------------------
 .byte   W96
@ 079   ----------------------------------------
 .byte   W96
@ 080   ----------------------------------------
 .byte   W96
@ 081   ----------------------------------------
 .byte   W96
@ 082   ----------------------------------------
 .byte   W96
@ 083   ----------------------------------------
 .byte   W96
@ 084   ----------------------------------------
 .byte   W96
@ 085   ----------------------------------------
 .byte   W96
@ 086   ----------------------------------------
 .byte   W96
@ 087   ----------------------------------------
 .byte   W96
@ 088   ----------------------------------------
 .byte   W96
@ 089   ----------------------------------------
 .byte   W96
@ 090   ----------------------------------------
 .byte   W96
@ 091   ----------------------------------------
 .byte   W96
@ 092   ----------------------------------------
 .byte   W96
@ 093   ----------------------------------------
 .byte   W96
@ 094   ----------------------------------------
 .byte   W96
@ 095   ----------------------------------------
 .byte   W96
@ 096   ----------------------------------------
 .byte   W96
@ 097   ----------------------------------------
 .byte   W96
@ 098   ----------------------------------------
 .byte   W96
@ 099   ----------------------------------------
 .byte   W96
@ 100   ----------------------------------------
 .byte   W96
@ 101   ----------------------------------------
 .byte   W96
@ 102   ----------------------------------------
 .byte   W96
@ 103   ----------------------------------------
 .byte   W96
@ 104   ----------------------------------------
 .byte   W96
@ 105   ----------------------------------------
 .byte   W96
@ 106   ----------------------------------------
 .byte   W96
@ 107   ----------------------------------------
 .byte   W96
@ 108   ----------------------------------------
 .byte   W96
@ 109   ----------------------------------------
 .byte   W96
@ 110   ----------------------------------------
 .byte   W96
@ 111   ----------------------------------------
 .byte   W96
@ 112   ----------------------------------------
 .byte   W96
@ 113   ----------------------------------------
 .byte   W96
@ 114   ----------------------------------------
 .byte   W96
@ 115   ----------------------------------------
 .byte   W96
@ 116   ----------------------------------------
 .byte   W96
@ 117   ----------------------------------------
 .byte   W96
@ 118   ----------------------------------------
 .byte   W96
@ 119   ----------------------------------------
 .byte   W96
@ 120   ----------------------------------------
 .byte   W96
@ 121   ----------------------------------------
 .byte   W96
@ 122   ----------------------------------------
 .byte   W96
@ 123   ----------------------------------------
 .byte   W96
@ 124   ----------------------------------------
 .byte   W96
@ 125   ----------------------------------------
 .byte   W96
@ 126   ----------------------------------------
 .byte   W96
@ 127   ----------------------------------------
 .byte   W96
@ 128   ----------------------------------------
 .byte   W96
@ 129   ----------------------------------------
 .byte   W96
@ 130   ----------------------------------------
 .byte   W96
@ 131   ----------------------------------------
 .byte   W96
@ 132   ----------------------------------------
 .byte   W96
@ 133   ----------------------------------------
 .byte   W96
@ 134   ----------------------------------------
 .byte   W96
@ 135   ----------------------------------------
 .byte   W96
@ 136   ----------------------------------------
 .byte   W96
@ 137   ----------------------------------------
 .byte   W96
@ 138   ----------------------------------------
 .byte   W96
@ 139   ----------------------------------------
 .byte   W96
@ 140   ----------------------------------------
 .byte   W96
@ 141   ----------------------------------------
 .byte   W96
@ 142   ----------------------------------------
 .byte   W96
@ 143   ----------------------------------------
 .byte   W96
@ 144   ----------------------------------------
 .byte   W96
@ 145   ----------------------------------------
 .byte   W96
@ 146   ----------------------------------------
 .byte   W96
@ 147   ----------------------------------------
 .byte   W96
@ 148   ----------------------------------------
 .byte   W96
@ 149   ----------------------------------------
 .byte   W96
@ 150   ----------------------------------------
 .byte   W96
@ 151   ----------------------------------------
 .byte   W96
@ 152   ----------------------------------------
 .byte   W96
@ 153   ----------------------------------------
 .byte   W96
@ 154   ----------------------------------------
 .byte   W96
@ 155   ----------------------------------------
 .byte   W96
@ 156   ----------------------------------------
 .byte   W96
@ 157   ----------------------------------------
 .byte   W96
@ 158   ----------------------------------------
 .byte   W96
@ 159   ----------------------------------------
 .byte   W96
@ 160   ----------------------------------------
 .byte   W96
@ 161   ----------------------------------------
 .byte   W96
@ 162   ----------------------------------------
 .byte   W96
@ 163   ----------------------------------------
 .byte   W96
@ 164   ----------------------------------------
 .byte   W96
@ 165   ----------------------------------------
 .byte   W96
@ 166   ----------------------------------------
 .byte   W96
@ 167   ----------------------------------------
 .byte   W96
@ 168   ----------------------------------------
 .byte   W96
@ 169   ----------------------------------------
 .byte   W96
@ 170   ----------------------------------------
 .byte   W96
@ 171   ----------------------------------------
 .byte   W96
@ 172   ----------------------------------------
 .byte   W96
@ 173   ----------------------------------------
 .byte   W96
@ 174   ----------------------------------------
 .byte   W96
@ 175   ----------------------------------------
 .byte   W96
@ 176   ----------------------------------------
 .byte   W96
@ 177   ----------------------------------------
 .byte   W96
@ 178   ----------------------------------------
 .byte   W96
@ 179   ----------------------------------------
 .byte   W96
@ 180   ----------------------------------------
 .byte   W96
@ 181   ----------------------------------------
 .byte   W96
@ 182   ----------------------------------------
 .byte   W96
@ 183   ----------------------------------------
 .byte   W90
 .byte   W01
 .byte   FINE

@**************** Track 7 (Midi-Chn.6) ****************@

song02A0_007:
@ 000   ----------------------------------------
 .byte   KEYSH , song02A0_key+0
Label_6_01917846:
 .byte   VOICE , 29
 .byte   PAN , c_v+0
 .byte   VOL , 48*song02A0_mvl/mxv
 .byte   W12
 .byte   N04 ,Cs3 ,v080
 .byte   W06
 .byte   N04
 .byte   W06
 .byte   N09
 .byte   W12
 .byte   N04
 .byte   W06
 .byte   N04
 .byte   W06
 .byte   N09
 .byte   W12
 .byte   Gs2
 .byte   W24
 .byte   N04
 .byte   W06
 .byte   N04
 .byte   W06
@ 001   ----------------------------------------
Label_6_01917861:
 .byte   N09 ,Cs3 ,v080
 .byte   W12
 .byte   N04
 .byte   W06
 .byte   N04
 .byte   W06
 .byte   N09
 .byte   W12
 .byte   Gs2
 .byte   W24
 .byte   En3
 .byte   W12
 .byte   Ds3
 .byte   W12
 .byte   En3
 .byte   W12
 .byte   PEND 
@ 002   ----------------------------------------
Label_6_01917874:
 .byte   W12
 .byte   N04 ,Cs3 ,v080
 .byte   W06
 .byte   N04
 .byte   W06
 .byte   N09
 .byte   W12
 .byte   N04
 .byte   W06
 .byte   N04
 .byte   W06
 .byte   N09
 .byte   W12
 .byte   Gs2
 .byte   W24
 .byte   En3
 .byte   W12
 .byte   PEND 
@ 003   ----------------------------------------
Label_6_01917888:
 .byte   W12
 .byte   N09 ,Ds3 ,v080
 .byte   W24
 .byte   Cs3
 .byte   W24
 .byte   Ds3
 .byte   W36
 .byte   PEND 
@ 004   ----------------------------------------
Label_6_01917892:
 .byte   W12
 .byte   N04 ,Ds3 ,v080
 .byte   W06
 .byte   N04
 .byte   W06
 .byte   N09
 .byte   W12
 .byte   N04
 .byte   W06
 .byte   N04
 .byte   W06
 .byte   N09
 .byte   W12
 .byte   Bn2
 .byte   W24
 .byte   En3
 .byte   W12
 .byte   PEND 
@ 005   ----------------------------------------
Label_6_019178A6:
 .byte   W12
 .byte   N09 ,Ds3 ,v080
 .byte   W24
 .byte   Cs3
 .byte   W24
 .byte   Bn2
 .byte   W36
 .byte   PEND 
@ 006   ----------------------------------------
Label_6_019178B0:
 .byte   N09 ,Cs3 ,v080
 .byte   W24
 .byte   N09
 .byte   W12
 .byte   Gs3
 .byte   W12
 .byte   Bn3
 .byte   W12
 .byte   N30 ,As3
 .byte   W36
 .byte   PEND 
@ 007   ----------------------------------------
Label_6_019178BE:
 .byte   N09 ,Cs3 ,v080
 .byte   W24
 .byte   N09
 .byte   W12
 .byte   Gs3
 .byte   W12
 .byte   Bn3
 .byte   W12
 .byte   As3
 .byte   W12
 .byte   Bn3
 .byte   W12
 .byte   Cs4
 .byte   W12
 .byte   PEND 
@ 008   ----------------------------------------
 .byte   W12
 .byte   N04 ,Cs3
 .byte   W06
 .byte   N04
 .byte   W06
 .byte   N09
 .byte   W12
 .byte   N04
 .byte   W06
 .byte   N04
 .byte   W06
 .byte   N09
 .byte   W12
 .byte   Gs2
 .byte   W24
 .byte   N04
 .byte   W06
 .byte   N04
 .byte   W06
@ 009   ----------------------------------------
 .byte   PATT
  .word Label_6_01917861
@ 010   ----------------------------------------
 .byte   PATT
  .word Label_6_01917874
@ 011   ----------------------------------------
 .byte   PATT
  .word Label_6_01917888
@ 012   ----------------------------------------
 .byte   PATT
  .word Label_6_01917892
@ 013   ----------------------------------------
 .byte   PATT
  .word Label_6_019178A6
@ 014   ----------------------------------------
 .byte   PATT
  .word Label_6_019178B0
@ 015   ----------------------------------------
 .byte   PATT
  .word Label_6_019178BE
@ 016   ----------------------------------------
Label_6_01917906:
 .byte   W12
 .byte   N56 ,Cs4 ,v080
 .byte   W72
 .byte   N09 ,Bn3
 .byte   W12
 .byte   PEND 
@ 017   ----------------------------------------
Label_6_0191790F:
 .byte   N19 ,En4 ,v080
 .byte   W24
 .byte   Cs4
 .byte   W24
 .byte   Bn3
 .byte   W24
 .byte   Cs4
 .byte   W24
 .byte   PEND 
@ 018   ----------------------------------------
Label_6_0191791A:
 .byte   N48 ,Bn3 ,v080
 .byte   W60
 .byte   N09
 .byte   W12
 .byte   N32 ,Cs4
 .byte   W24
 .byte   PEND 
@ 019   ----------------------------------------
Label_6_01917924:
 .byte   W12
 .byte   N09 ,Gs3 ,v080
 .byte   W12
 .byte   An3
 .byte   W12
 .byte   Gs3
 .byte   W12
 .byte   En3
 .byte   W24
 .byte   N09
 .byte   W12
 .byte   Gs3
 .byte   W12
 .byte   PEND 
@ 020   ----------------------------------------
Label_6_01917934:
 .byte   N09 ,Bn3 ,v080
 .byte   W12
 .byte   N56 ,Cs4
 .byte   W72
 .byte   N09 ,Bn3
 .byte   W12
 .byte   PEND 
@ 021   ----------------------------------------
 .byte   PATT
  .word Label_6_0191790F
@ 022   ----------------------------------------
Label_6_01917944:
 .byte   N48 ,Bn3 ,v080
 .byte   W60
 .byte   N09
 .byte   W12
 .byte   Gs3
 .byte   W12
 .byte   Bn3
 .byte   W12
 .byte   PEND 
@ 023   ----------------------------------------
 .byte   Cn4
 .byte   W24
 .byte   N09
 .byte   W12
 .byte   N09
 .byte   W12
 .byte   Ds4
 .byte   W12
 .byte   N30 ,Gs4
 .byte   W36
@ 024   ----------------------------------------
Label_6_0191795A:
 .byte   W12
 .byte   N04 ,En3 ,v080
 .byte   W06
 .byte   N04
 .byte   W06
 .byte   N09
 .byte   W12
 .byte   N04
 .byte   W06
 .byte   N04
 .byte   W06
 .byte   N11
 .byte   W12
 .byte   Cs3
 .byte   W24
 .byte   N04
 .byte   W06
 .byte   N04
 .byte   W06
 .byte   PEND 
@ 025   ----------------------------------------
Label_6_01917970:
 .byte   N09 ,En3 ,v080
 .byte   W12
 .byte   N04
 .byte   W06
 .byte   N04
 .byte   W06
 .byte   N09
 .byte   W12
 .byte   Cs3
 .byte   W24
 .byte   Gs3
 .byte   W12
 .byte   Fs3
 .byte   W12
 .byte   Gs3
 .byte   W12
 .byte   PEND 
@ 026   ----------------------------------------
Label_6_01917983:
 .byte   W12
 .byte   N04 ,En3 ,v080
 .byte   W06
 .byte   N04
 .byte   W06
 .byte   N09
 .byte   W12
 .byte   N04
 .byte   W06
 .byte   N04
 .byte   W06
 .byte   N09
 .byte   W12
 .byte   Cs3
 .byte   W24
 .byte   Gs3
 .byte   W12
 .byte   PEND 
@ 027   ----------------------------------------
Label_6_01917997:
 .byte   W12
 .byte   N09 ,Fs3 ,v080
 .byte   W24
 .byte   En3
 .byte   W24
 .byte   Fs3
 .byte   W36
 .byte   PEND 
@ 028   ----------------------------------------
Label_6_019179A1:
 .byte   W12
 .byte   N04 ,Fs3 ,v080
 .byte   W06
 .byte   N04
 .byte   W06
 .byte   N09
 .byte   W12
 .byte   N04
 .byte   W06
 .byte   N04
 .byte   W06
 .byte   N09
 .byte   W12
 .byte   Ds3
 .byte   W24
 .byte   Gs3
 .byte   W12
 .byte   PEND 
@ 029   ----------------------------------------
 .byte   W12
 .byte   Fs3
 .byte   W24
 .byte   En3
 .byte   W24
 .byte   Ds3
 .byte   W36
@ 030   ----------------------------------------
 .byte   PATT
  .word Label_6_019178B0
@ 031   ----------------------------------------
Label_6_019179C1:
 .byte   N09 ,Cs3 ,v080
 .byte   W24
 .byte   N09
 .byte   W12
 .byte   Gs3
 .byte   W12
 .byte   Bn3
 .byte   W12
 .byte   As3
 .byte   W12
 .byte   Ds4
 .byte   W12
 .byte   En4
 .byte   W12
 .byte   PEND 
@ 032   ----------------------------------------
 .byte   PATT
  .word Label_6_0191795A
@ 033   ----------------------------------------
 .byte   PATT
  .word Label_6_01917970
@ 034   ----------------------------------------
 .byte   PATT
  .word Label_6_01917983
@ 035   ----------------------------------------
 .byte   PATT
  .word Label_6_01917997
@ 036   ----------------------------------------
 .byte   PATT
  .word Label_6_019179A1
@ 037   ----------------------------------------
 .byte   W12
 .byte   N09 ,Fs3 ,v080
 .byte   W24
 .byte   En3
 .byte   W24
 .byte   Ds3
 .byte   W24
 .byte   Cs3
 .byte   W12
@ 038   ----------------------------------------
 .byte   W12
 .byte   N09
 .byte   W12
 .byte   Gs3
 .byte   W12
 .byte   Bn3
 .byte   W12
 .byte   N44 ,As3
 .byte   W48
@ 039   ----------------------------------------
 .byte   PATT
  .word Label_6_019179C1
@ 040   ----------------------------------------
 .byte   PATT
  .word Label_6_01917906
@ 041   ----------------------------------------
 .byte   PATT
  .word Label_6_0191790F
@ 042   ----------------------------------------
 .byte   PATT
  .word Label_6_0191791A
@ 043   ----------------------------------------
 .byte   PATT
  .word Label_6_01917924
@ 044   ----------------------------------------
 .byte   PATT
  .word Label_6_01917934
@ 045   ----------------------------------------
 .byte   PATT
  .word Label_6_0191790F
@ 046   ----------------------------------------
 .byte   PATT
  .word Label_6_01917944
@ 047   ----------------------------------------
 .byte   N09 ,Cn4 ,v080
 .byte   W24
 .byte   N09
 .byte   W12
 .byte   N09
 .byte   W12
 .byte   Ds4
 .byte   W12
 .byte   N23 ,Gs4
 .byte   W24
 .byte   N21 ,Cs3
 .byte   W12
@ 048   ----------------------------------------
 .byte   W12
 .byte   N09
 .byte   W12
 .byte   N09
 .byte   W12
 .byte   Bn2
 .byte   W12
 .byte   N19 ,Cs3
 .byte   W24
 .byte   N09 ,An3
 .byte   W12
 .byte   N23 ,Fs3
 .byte   W12
@ 049   ----------------------------------------
 .byte   W12
 .byte   N19
 .byte   W24
 .byte   En3
 .byte   W24
 .byte   Ds3
 .byte   W24
 .byte   N09
 .byte   W12
@ 050   ----------------------------------------
 .byte   W12
 .byte   En3
 .byte   W12
 .byte   N09
 .byte   W24
 .byte   N09
 .byte   W36
 .byte   Ds3
 .byte   W12
@ 051   ----------------------------------------
 .byte   W12
 .byte   En3
 .byte   W12
 .byte   N09
 .byte   W24
 .byte   N09
 .byte   W24
 .byte   Ds3
 .byte   W12
 .byte   Cs3
 .byte   W12
@ 052   ----------------------------------------
 .byte   W12
 .byte   N09
 .byte   W12
 .byte   N09
 .byte   W12
 .byte   Bn2
 .byte   W12
 .byte   N22 ,Cs3
 .byte   W24
 .byte   N09 ,An3
 .byte   W12
 .byte   N23 ,Fs3
 .byte   W12
@ 053   ----------------------------------------
 .byte   W12
 .byte   N19
 .byte   W24
 .byte   En3
 .byte   W24
 .byte   Ds3
 .byte   W36
@ 054   ----------------------------------------
 .byte   N09 ,Bn2
 .byte   W12
 .byte   Cs3
 .byte   W12
 .byte   Bn2
 .byte   W12
 .byte   TIE ,Gs2
 .byte   W60
@ 055   ----------------------------------------
 .byte   W76
 .byte   EOT
 .byte   W20
@ 056   ----------------------------------------
 .byte   GOTO
  .word Label_6_01917846
@ 057   ----------------------------------------
 .byte   W96
@ 058   ----------------------------------------
 .byte   W96
@ 059   ----------------------------------------
 .byte   W96
@ 060   ----------------------------------------
 .byte   W96
@ 061   ----------------------------------------
 .byte   W96
@ 062   ----------------------------------------
 .byte   W96
@ 063   ----------------------------------------
 .byte   W96
@ 064   ----------------------------------------
 .byte   W96
@ 065   ----------------------------------------
 .byte   W96
@ 066   ----------------------------------------
 .byte   W96
@ 067   ----------------------------------------
 .byte   W96
@ 068   ----------------------------------------
 .byte   W96
@ 069   ----------------------------------------
 .byte   W96
@ 070   ----------------------------------------
 .byte   W96
@ 071   ----------------------------------------
 .byte   W96
@ 072   ----------------------------------------
 .byte   W96
@ 073   ----------------------------------------
 .byte   W96
@ 074   ----------------------------------------
 .byte   W96
@ 075   ----------------------------------------
 .byte   W96
@ 076   ----------------------------------------
 .byte   W96
@ 077   ----------------------------------------
 .byte   W96
@ 078   ----------------------------------------
 .byte   W96
@ 079   ----------------------------------------
 .byte   W96
@ 080   ----------------------------------------
 .byte   W96
@ 081   ----------------------------------------
 .byte   W96
@ 082   ----------------------------------------
 .byte   W96
@ 083   ----------------------------------------
 .byte   W96
@ 084   ----------------------------------------
 .byte   W96
@ 085   ----------------------------------------
 .byte   W96
@ 086   ----------------------------------------
 .byte   W96
@ 087   ----------------------------------------
 .byte   W96
@ 088   ----------------------------------------
 .byte   W96
@ 089   ----------------------------------------
 .byte   W96
@ 090   ----------------------------------------
 .byte   W96
@ 091   ----------------------------------------
 .byte   W96
@ 092   ----------------------------------------
 .byte   W96
@ 093   ----------------------------------------
 .byte   W96
@ 094   ----------------------------------------
 .byte   W96
@ 095   ----------------------------------------
 .byte   W96
@ 096   ----------------------------------------
 .byte   W96
@ 097   ----------------------------------------
 .byte   W96
@ 098   ----------------------------------------
 .byte   W96
@ 099   ----------------------------------------
 .byte   W96
@ 100   ----------------------------------------
 .byte   W96
@ 101   ----------------------------------------
 .byte   W96
@ 102   ----------------------------------------
 .byte   W96
@ 103   ----------------------------------------
 .byte   W96
@ 104   ----------------------------------------
 .byte   W96
@ 105   ----------------------------------------
 .byte   W96
@ 106   ----------------------------------------
 .byte   W96
@ 107   ----------------------------------------
 .byte   W96
@ 108   ----------------------------------------
 .byte   W96
@ 109   ----------------------------------------
 .byte   W96
@ 110   ----------------------------------------
 .byte   W96
@ 111   ----------------------------------------
 .byte   W96
@ 112   ----------------------------------------
 .byte   W96
@ 113   ----------------------------------------
 .byte   W96
@ 114   ----------------------------------------
 .byte   W96
@ 115   ----------------------------------------
 .byte   W96
@ 116   ----------------------------------------
 .byte   W96
@ 117   ----------------------------------------
 .byte   W96
@ 118   ----------------------------------------
 .byte   W96
@ 119   ----------------------------------------
 .byte   W96
@ 120   ----------------------------------------
 .byte   W96
@ 121   ----------------------------------------
 .byte   W96
@ 122   ----------------------------------------
 .byte   W96
@ 123   ----------------------------------------
 .byte   W96
@ 124   ----------------------------------------
 .byte   W96
@ 125   ----------------------------------------
 .byte   W96
@ 126   ----------------------------------------
 .byte   W96
@ 127   ----------------------------------------
 .byte   W96
@ 128   ----------------------------------------
 .byte   W96
@ 129   ----------------------------------------
 .byte   W96
@ 130   ----------------------------------------
 .byte   W96
@ 131   ----------------------------------------
 .byte   W96
@ 132   ----------------------------------------
 .byte   W96
@ 133   ----------------------------------------
 .byte   W96
@ 134   ----------------------------------------
 .byte   W96
@ 135   ----------------------------------------
 .byte   W96
@ 136   ----------------------------------------
 .byte   W96
@ 137   ----------------------------------------
 .byte   W96
@ 138   ----------------------------------------
 .byte   W96
@ 139   ----------------------------------------
 .byte   W96
@ 140   ----------------------------------------
 .byte   W96
@ 141   ----------------------------------------
 .byte   W96
@ 142   ----------------------------------------
 .byte   W96
@ 143   ----------------------------------------
 .byte   W96
@ 144   ----------------------------------------
 .byte   W96
@ 145   ----------------------------------------
 .byte   W96
@ 146   ----------------------------------------
 .byte   W96
@ 147   ----------------------------------------
 .byte   W96
@ 148   ----------------------------------------
 .byte   W96
@ 149   ----------------------------------------
 .byte   W96
@ 150   ----------------------------------------
 .byte   W96
@ 151   ----------------------------------------
 .byte   W96
@ 152   ----------------------------------------
 .byte   W96
@ 153   ----------------------------------------
 .byte   W96
@ 154   ----------------------------------------
 .byte   W96
@ 155   ----------------------------------------
 .byte   W96
@ 156   ----------------------------------------
 .byte   W96
@ 157   ----------------------------------------
 .byte   W96
@ 158   ----------------------------------------
 .byte   W96
@ 159   ----------------------------------------
 .byte   W96
@ 160   ----------------------------------------
 .byte   W96
@ 161   ----------------------------------------
 .byte   W96
@ 162   ----------------------------------------
 .byte   W96
@ 163   ----------------------------------------
 .byte   W96
@ 164   ----------------------------------------
 .byte   W96
@ 165   ----------------------------------------
 .byte   W96
@ 166   ----------------------------------------
 .byte   W96
@ 167   ----------------------------------------
 .byte   W96
@ 168   ----------------------------------------
 .byte   W96
@ 169   ----------------------------------------
 .byte   W96
@ 170   ----------------------------------------
 .byte   W96
@ 171   ----------------------------------------
 .byte   W96
@ 172   ----------------------------------------
 .byte   W96
@ 173   ----------------------------------------
 .byte   W96
@ 174   ----------------------------------------
 .byte   W96
@ 175   ----------------------------------------
 .byte   W96
@ 176   ----------------------------------------
 .byte   W96
@ 177   ----------------------------------------
 .byte   W96
@ 178   ----------------------------------------
 .byte   W96
@ 179   ----------------------------------------
 .byte   W96
@ 180   ----------------------------------------
 .byte   W96
@ 181   ----------------------------------------
 .byte   W96
@ 182   ----------------------------------------
 .byte   W76
 .byte   FINE

@******************************************************@
	.align	2

song02A0:
	.byte	7	@ NumTrks
	.byte	0	@ NumBlks
	.byte	song02A0_pri	@ Priority
	.byte	song02A0_rev	@ Reverb.
    
	.word	song02A0_grp
    
	.word	song02A0_001
	.word	song02A0_002
	.word	song02A0_003
	.word	song02A0_004
	.word	song02A0_005
	.word	song02A0_006
	.word	song02A0_007

	.end
