	.include "MPlayDef.s"

	.equ	songDB_grp, voicegroup000
	.equ	songDB_pri, 0
	.equ	songDB_rev, 0
	.equ	songDB_mvl, 127
	.equ	songDB_key, 0
	.equ	songDB_tbs, 1
	.equ	songDB_exg, 0
	.equ	songDB_cmp, 1

	.section .rodata
	.global	songDB
	.align	2


@**************** Track 1 (Midi-Chn.0) ****************@

songDB_001:
@ 000   ----------------------------------------
 .byte   KEYSH , songDB_key+0
Label_0_018C3ADA:
 .byte   TEMPO , 74*songDB_tbs/2
 .byte   VOICE , 2
 .byte   VOL , 80*songDB_mvl/mxv
 .byte   N48 ,Cn1 ,v127
 .byte   W48
 .byte   N48
 .byte   W48
@ 001   ----------------------------------------
Label_0_018C3AE6:
 .byte   N48 ,Cn1 ,v127
 .byte   W48
 .byte   N48
 .byte   W48
 .byte   PEND 
 .byte   PATT
  .word Label_0_018C3AE6
 .byte   PATT
  .word Label_0_018C3AE6
 .byte   PATT
  .word Label_0_018C3AE6
 .byte   PATT
  .word Label_0_018C3AE6
 .byte   PATT
  .word Label_0_018C3AE6
 .byte   PATT
  .word Label_0_018C3AE6
 .byte   PATT
  .word Label_0_018C3AE6
 .byte   PATT
  .word Label_0_018C3AE6
 .byte   PATT
  .word Label_0_018C3AE6
 .byte   PATT
  .word Label_0_018C3AE6
 .byte   PATT
  .word Label_0_018C3AE6
@ 002   ----------------------------------------
Label_0_018C3B24:
 .byte   N12 ,Cn1 ,v127
 .byte   W18
 .byte   As0
 .byte   W18
 .byte   Cs1
 .byte   W18
 .byte   As0
 .byte   W18
 .byte   Cn1
 .byte   W12
 .byte   Cs1
 .byte   W12
 .byte   PEND 
@ 003   ----------------------------------------
Label_0_018C3B33:
 .byte   N12 ,Cn1 ,v127
 .byte   W18
 .byte   Gn0
 .byte   W78
 .byte   PEND 
 .byte   PATT
  .word Label_0_018C3B24
@ 004   ----------------------------------------
 .byte   N96 ,Cn1 ,v127
 .byte   W96
 .byte   PATT
  .word Label_0_018C3B24
 .byte   PATT
  .word Label_0_018C3B33
 .byte   PATT
  .word Label_0_018C3B24
@ 005   ----------------------------------------
 .byte   N96 ,Cn1 ,v127
 .byte   W96
@ 006   ----------------------------------------
 .byte   W96
@ 007   ----------------------------------------
 .byte   W96
@ 008   ----------------------------------------
 .byte   W96
@ 009   ----------------------------------------
 .byte   W96
@ 010   ----------------------------------------
 .byte   W96
@ 011   ----------------------------------------
 .byte   W96
 .byte   PATT
  .word Label_0_018C3AE6
@ 012   ----------------------------------------
Label_0_018C3B61:
 .byte   N48 ,Cn1 ,v127
 .byte   W48
 .byte   Gs0
 .byte   W48
 .byte   PEND 
 .byte   PATT
  .word Label_0_018C3AE6
@ 013   ----------------------------------------
Label_0_018C3B6D:
 .byte   N48 ,Cn1 ,v127
 .byte   W48
 .byte   Fs1
 .byte   W48
 .byte   PEND 
 .byte   PATT
  .word Label_0_018C3AE6
 .byte   PATT
  .word Label_0_018C3B61
 .byte   PATT
  .word Label_0_018C3AE6
 .byte   PATT
  .word Label_0_018C3B6D
 .byte   PATT
  .word Label_0_018C3AE6
 .byte   PATT
  .word Label_0_018C3B61
 .byte   PATT
  .word Label_0_018C3AE6
 .byte   PATT
  .word Label_0_018C3B6D
 .byte   PATT
  .word Label_0_018C3AE6
 .byte   PATT
  .word Label_0_018C3B61
 .byte   PATT
  .word Label_0_018C3AE6
 .byte   PATT
  .word Label_0_018C3B6D
 .byte   PATT
  .word Label_0_018C3AE6
 .byte   PATT
  .word Label_0_018C3B61
 .byte   PATT
  .word Label_0_018C3AE6
 .byte   PATT
  .word Label_0_018C3B6D
 .byte   PATT
  .word Label_0_018C3AE6
 .byte   PATT
  .word Label_0_018C3AE6
 .byte   PATT
  .word Label_0_018C3AE6
 .byte   PATT
  .word Label_0_018C3AE6
 .byte   PATT
  .word Label_0_018C3AE6
 .byte   PATT
  .word Label_0_018C3AE6
 .byte   PATT
  .word Label_0_018C3AE6
 .byte   PATT
  .word Label_0_018C3AE6
 .byte   PATT
  .word Label_0_018C3AE6
 .byte   PATT
  .word Label_0_018C3B24
 .byte   PATT
  .word Label_0_018C3B33
 .byte   PATT
  .word Label_0_018C3B24
@ 014   ----------------------------------------
 .byte   N96 ,Cn1 ,v127
 .byte   W96
 .byte   PATT
  .word Label_0_018C3B24
 .byte   PATT
  .word Label_0_018C3B33
 .byte   PATT
  .word Label_0_018C3B24
@ 015   ----------------------------------------
 .byte   N96 ,Cn1 ,v127
 .byte   W96
@ 016   ----------------------------------------
 .byte   W96
@ 017   ----------------------------------------
 .byte   W96
@ 018   ----------------------------------------
 .byte   W96
@ 019   ----------------------------------------
 .byte   W96
@ 020   ----------------------------------------
 .byte   W96
@ 021   ----------------------------------------
 .byte   W96
 .byte   PATT
  .word Label_0_018C3AE6
 .byte   PATT
  .word Label_0_018C3B61
 .byte   PATT
  .word Label_0_018C3AE6
 .byte   PATT
  .word Label_0_018C3B6D
 .byte   PATT
  .word Label_0_018C3AE6
 .byte   PATT
  .word Label_0_018C3B61
 .byte   PATT
  .word Label_0_018C3AE6
 .byte   PATT
  .word Label_0_018C3B6D
 .byte   PATT
  .word Label_0_018C3AE6
 .byte   PATT
  .word Label_0_018C3B61
 .byte   PATT
  .word Label_0_018C3AE6
 .byte   PATT
  .word Label_0_018C3B6D
 .byte   PATT
  .word Label_0_018C3AE6
 .byte   PATT
  .word Label_0_018C3B61
 .byte   PATT
  .word Label_0_018C3AE6
 .byte   PATT
  .word Label_0_018C3B6D
 .byte   PATT
  .word Label_0_018C3AE6
 .byte   PATT
  .word Label_0_018C3B61
 .byte   PATT
  .word Label_0_018C3AE6
 .byte   PATT
  .word Label_0_018C3B6D
@ 022   ----------------------------------------
 .byte   W24
 .byte   GOTO
  .word Label_0_018C3ADA
 .byte   FINE

@**************** Track 2 (Midi-Chn.1) ****************@

songDB_002:
@ 000   ----------------------------------------
 .byte   KEYSH , songDB_key+0
Label_1_018C3C8A:
 .byte   VOICE , 48
 .byte   VOL , 76*songDB_mvl/mxv
 .byte   W96
@ 001   ----------------------------------------
Label_1_018C3C8F:
 .byte   N12 ,Cn4 ,v127
 .byte   W12
 .byte   N06 ,Gn3
 .byte   W06
 .byte   N12 ,As3
 .byte   W12
 .byte   N03 ,Gs3
 .byte   W03
 .byte   Gn3
 .byte   W03
 .byte   N06 ,Gs3
 .byte   W06
 .byte   Ds3
 .byte   W06
 .byte   N12 ,Gn3
 .byte   W12
 .byte   N06 ,Dn3
 .byte   W06
 .byte   N12 ,Fn3
 .byte   W12
 .byte   N03 ,Ds3
 .byte   W03
 .byte   Dn3
 .byte   W03
 .byte   N12 ,Cn3
 .byte   W12
 .byte   PEND 
@ 002   ----------------------------------------
 .byte   Cn4
 .byte   W12
 .byte   N06 ,Gn3
 .byte   W06
 .byte   N12 ,As3
 .byte   W12
 .byte   N03 ,Gs3
 .byte   W03
 .byte   Gn3
 .byte   W03
 .byte   N06 ,Gs3
 .byte   W06
 .byte   Ds3
 .byte   W06
 .byte   N12 ,Gn3
 .byte   W12
 .byte   N06 ,Dn3
 .byte   W06
 .byte   N12 ,Fn3
 .byte   W12
 .byte   N03 ,Ds3
 .byte   W03
 .byte   Fn3
 .byte   W03
 .byte   N12 ,Gn3
 .byte   W12
@ 003   ----------------------------------------
 .byte   VOICE , 48
 .byte   N36 ,Cn3
 .byte   W18
 .byte   N18 ,Ds3
 .byte   W18
 .byte   N36 ,Gs2
 .byte   N18 ,Ds3
 .byte   W18
 .byte   Fn3
 .byte   W18
 .byte   N24 ,As2
 .byte   N24 ,Dn3
 .byte   W24
@ 004   ----------------------------------------
 .byte   N96 ,Cn3
 .byte   W96
@ 005   ----------------------------------------
 .byte   W96
@ 006   ----------------------------------------
Label_1_018C3CF0:
 .byte   N12 ,Cn5 ,v127
 .byte   W12
 .byte   N06 ,Gn4
 .byte   W06
 .byte   N12 ,As4
 .byte   W12
 .byte   N03 ,Gs4
 .byte   W03
 .byte   Gn4
 .byte   W03
 .byte   N06 ,Gs4
 .byte   W06
 .byte   Ds4
 .byte   W06
 .byte   N12 ,Gn4
 .byte   W12
 .byte   N06 ,Dn4
 .byte   W06
 .byte   N12 ,Fn4
 .byte   W12
 .byte   N03 ,Ds4
 .byte   W03
 .byte   Dn4
 .byte   W03
 .byte   N12 ,Cn4
 .byte   W12
 .byte   PEND 
 .byte   PATT
  .word Label_1_018C3CF0
@ 007   ----------------------------------------
Label_1_018C3D1B:
 .byte   VOICE , 48
 .byte   N36 ,Cn4 ,v127
 .byte   W18
 .byte   N18 ,Ds4
 .byte   W18
 .byte   N36 ,Gs3
 .byte   N18 ,Ds4
 .byte   W18
 .byte   Fn4
 .byte   W18
 .byte   N24 ,As3
 .byte   N24 ,Dn4
 .byte   W24
 .byte   PEND 
@ 008   ----------------------------------------
 .byte   N96 ,Cn4
 .byte   W96
@ 009   ----------------------------------------
 .byte   W96
@ 010   ----------------------------------------
 .byte   W96
@ 011   ----------------------------------------
 .byte   W96
@ 012   ----------------------------------------
 .byte   W96
@ 013   ----------------------------------------
 .byte   W96
@ 014   ----------------------------------------
 .byte   W96
@ 015   ----------------------------------------
 .byte   W96
@ 016   ----------------------------------------
 .byte   W96
@ 017   ----------------------------------------
 .byte   W96
@ 018   ----------------------------------------
 .byte   W96
@ 019   ----------------------------------------
 .byte   W96
 .byte   PATT
  .word Label_1_018C3C8F
 .byte   PATT
  .word Label_1_018C3CF0
@ 020   ----------------------------------------
 .byte   W96
@ 021   ----------------------------------------
 .byte   W96
@ 022   ----------------------------------------
Label_1_018C3D4B:
 .byte   VOICE , 48
 .byte   N36 ,Cn3 ,v127
 .byte   N36 ,Cn4
 .byte   W18
 .byte   N18 ,Ds3
 .byte   N18 ,Ds4
 .byte   W18
 .byte   N36 ,Gs2
 .byte   N18 ,Ds3
 .byte   N36 ,Gs3
 .byte   N18 ,Ds4
 .byte   W18
 .byte   Fn3
 .byte   N18 ,Fn4
 .byte   W18
 .byte   N24 ,As2
 .byte   N24 ,Dn3
 .byte   N24 ,As3
 .byte   N24 ,Dn4
 .byte   W24
 .byte   PEND 
@ 023   ----------------------------------------
 .byte   N96 ,Cn3
 .byte   N96 ,Cn4
 .byte   W96
@ 024   ----------------------------------------
 .byte   W96
@ 025   ----------------------------------------
 .byte   W96
@ 026   ----------------------------------------
 .byte   W96
@ 027   ----------------------------------------
 .byte   W96
@ 028   ----------------------------------------
 .byte   W96
@ 029   ----------------------------------------
 .byte   W96
@ 030   ----------------------------------------
 .byte   W96
@ 031   ----------------------------------------
 .byte   W96
@ 032   ----------------------------------------
Label_1_018C3D7C:
 .byte   N06 ,Gn2 ,v127
 .byte   W06
 .byte   Cn2
 .byte   W06
 .byte   Gs2
 .byte   W06
 .byte   Cn2
 .byte   W06
 .byte   Gn2
 .byte   W06
 .byte   Cn2
 .byte   W06
 .byte   Fn2
 .byte   W06
 .byte   Cn2
 .byte   W06
 .byte   Gn2
 .byte   W06
 .byte   Cn2
 .byte   W06
 .byte   Gs2
 .byte   W06
 .byte   Cn2
 .byte   W06
 .byte   Gn2
 .byte   W06
 .byte   Cn2
 .byte   W06
 .byte   Fn2
 .byte   W06
 .byte   Cn2
 .byte   W06
 .byte   PEND 
@ 033   ----------------------------------------
Label_1_018C3D9F:
 .byte   N06 ,Gn2 ,v127
 .byte   W06
 .byte   Cn2
 .byte   W06
 .byte   Gs2
 .byte   W06
 .byte   Cn2
 .byte   W06
 .byte   Gn2
 .byte   W06
 .byte   Cn2
 .byte   W06
 .byte   Fn2
 .byte   W06
 .byte   Cn2
 .byte   W06
 .byte   Gs2
 .byte   W06
 .byte   Cn2
 .byte   W06
 .byte   Ds2
 .byte   W06
 .byte   Cn2
 .byte   W06
 .byte   Gs2
 .byte   W06
 .byte   Cn2
 .byte   W06
 .byte   Cn3
 .byte   W06
 .byte   Cn2
 .byte   W06
 .byte   PEND 
 .byte   PATT
  .word Label_1_018C3D7C
@ 034   ----------------------------------------
Label_1_018C3DC7:
 .byte   N06 ,Gn2 ,v127
 .byte   W06
 .byte   Cn2
 .byte   W06
 .byte   Gs2
 .byte   W06
 .byte   Cn2
 .byte   W06
 .byte   Gn2
 .byte   W06
 .byte   Cn2
 .byte   W06
 .byte   Fn2
 .byte   W06
 .byte   Cn2
 .byte   W06
 .byte   Fs2
 .byte   W06
 .byte   As1
 .byte   W06
 .byte   Cs2
 .byte   W06
 .byte   As1
 .byte   W06
 .byte   Fs2
 .byte   W06
 .byte   As1
 .byte   W06
 .byte   As2
 .byte   W06
 .byte   As1
 .byte   W06
 .byte   PEND 
 .byte   PATT
  .word Label_1_018C3D7C
 .byte   PATT
  .word Label_1_018C3D9F
 .byte   PATT
  .word Label_1_018C3D7C
 .byte   PATT
  .word Label_1_018C3DC7
 .byte   PATT
  .word Label_1_018C3D7C
 .byte   PATT
  .word Label_1_018C3D9F
 .byte   PATT
  .word Label_1_018C3D7C
 .byte   PATT
  .word Label_1_018C3DC7
@ 035   ----------------------------------------
 .byte   W96
@ 036   ----------------------------------------
 .byte   W96
 .byte   PATT
  .word Label_1_018C3CF0
 .byte   PATT
  .word Label_1_018C3CF0
 .byte   PATT
  .word Label_1_018C3D1B
@ 037   ----------------------------------------
 .byte   N96 ,Cn4 ,v127
 .byte   W96
@ 038   ----------------------------------------
 .byte   W96
@ 039   ----------------------------------------
 .byte   W96
@ 040   ----------------------------------------
 .byte   W96
@ 041   ----------------------------------------
 .byte   W96
@ 042   ----------------------------------------
 .byte   W96
@ 043   ----------------------------------------
 .byte   W96
@ 044   ----------------------------------------
 .byte   W96
@ 045   ----------------------------------------
 .byte   W96
@ 046   ----------------------------------------
 .byte   W96
@ 047   ----------------------------------------
 .byte   W96
@ 048   ----------------------------------------
 .byte   W96
 .byte   PATT
  .word Label_1_018C3C8F
 .byte   PATT
  .word Label_1_018C3CF0
@ 049   ----------------------------------------
 .byte   W96
@ 050   ----------------------------------------
 .byte   W96
 .byte   PATT
  .word Label_1_018C3D4B
@ 051   ----------------------------------------
 .byte   N96 ,Cn3 ,v127
 .byte   N96 ,Cn4
 .byte   W96
@ 052   ----------------------------------------
 .byte   W96
@ 053   ----------------------------------------
 .byte   W96
@ 054   ----------------------------------------
 .byte   W96
@ 055   ----------------------------------------
 .byte   W96
@ 056   ----------------------------------------
 .byte   W96
@ 057   ----------------------------------------
 .byte   W96
@ 058   ----------------------------------------
 .byte   W96
@ 059   ----------------------------------------
 .byte   W96
 .byte   PATT
  .word Label_1_018C3D7C
 .byte   PATT
  .word Label_1_018C3D9F
 .byte   PATT
  .word Label_1_018C3D7C
 .byte   PATT
  .word Label_1_018C3DC7
 .byte   PATT
  .word Label_1_018C3D7C
 .byte   PATT
  .word Label_1_018C3D9F
 .byte   PATT
  .word Label_1_018C3D7C
 .byte   PATT
  .word Label_1_018C3DC7
 .byte   PATT
  .word Label_1_018C3D7C
 .byte   PATT
  .word Label_1_018C3D9F
 .byte   PATT
  .word Label_1_018C3D7C
 .byte   PATT
  .word Label_1_018C3DC7
@ 060   ----------------------------------------
 .byte   W24
 .byte   GOTO
  .word Label_1_018C3C8A
 .byte   FINE

@**************** Track 3 (Midi-Chn.2) ****************@

songDB_003:
@ 000   ----------------------------------------
 .byte   KEYSH , songDB_key+0
Label_2_018C3E96:
 .byte   VOICE , 48
 .byte   VOL , 77*songDB_mvl/mxv
 .byte   W96
@ 001   ----------------------------------------
 .byte   W96
@ 002   ----------------------------------------
 .byte   N96 ,Cn3 ,v127
 .byte   W96
@ 003   ----------------------------------------
 .byte   W96
@ 004   ----------------------------------------
 .byte   W96
@ 005   ----------------------------------------
 .byte   W96
@ 006   ----------------------------------------
Label_2_018C3EA3:
 .byte   N12 ,Cn4 ,v127
 .byte   W12
 .byte   N06 ,Gn3
 .byte   W06
 .byte   N12 ,As3
 .byte   W12
 .byte   N03 ,Gs3
 .byte   W03
 .byte   Gn3
 .byte   W03
 .byte   N06 ,Gs3
 .byte   W06
 .byte   Ds3
 .byte   W06
 .byte   N12 ,Gn3
 .byte   W12
 .byte   N06 ,Dn3
 .byte   W06
 .byte   N12 ,Fn3
 .byte   W12
 .byte   N03 ,Ds3
 .byte   W03
 .byte   Dn3
 .byte   W03
 .byte   N12 ,Cn3
 .byte   W12
 .byte   PEND 
 .byte   PATT
  .word Label_2_018C3EA3
@ 007   ----------------------------------------
Label_2_018C3ECE:
 .byte   VOICE , 48
 .byte   N36 ,Cn3 ,v127
 .byte   W18
 .byte   N18 ,Ds3
 .byte   W18
 .byte   N36 ,Gs2
 .byte   N18 ,Ds3
 .byte   W18
 .byte   Fn3
 .byte   W18
 .byte   N24 ,As2
 .byte   N24 ,Dn3
 .byte   W24
 .byte   PEND 
@ 008   ----------------------------------------
 .byte   N96 ,Cn3
 .byte   W96
@ 009   ----------------------------------------
 .byte   W96
@ 010   ----------------------------------------
 .byte   W96
@ 011   ----------------------------------------
 .byte   W96
@ 012   ----------------------------------------
 .byte   W96
@ 013   ----------------------------------------
 .byte   W96
@ 014   ----------------------------------------
 .byte   W96
@ 015   ----------------------------------------
 .byte   W96
@ 016   ----------------------------------------
 .byte   W96
@ 017   ----------------------------------------
 .byte   W96
@ 018   ----------------------------------------
 .byte   W96
@ 019   ----------------------------------------
 .byte   W96
@ 020   ----------------------------------------
 .byte   W96
 .byte   PATT
  .word Label_2_018C3EA3
@ 021   ----------------------------------------
 .byte   W96
@ 022   ----------------------------------------
 .byte   W96
@ 023   ----------------------------------------
 .byte   W96
@ 024   ----------------------------------------
 .byte   W96
@ 025   ----------------------------------------
 .byte   W96
@ 026   ----------------------------------------
 .byte   W96
@ 027   ----------------------------------------
 .byte   W96
@ 028   ----------------------------------------
 .byte   W96
@ 029   ----------------------------------------
 .byte   W96
@ 030   ----------------------------------------
 .byte   W96
@ 031   ----------------------------------------
 .byte   W96
@ 032   ----------------------------------------
 .byte   W96
@ 033   ----------------------------------------
Label_2_018C3F04:
 .byte   N96 ,Cn3 ,v127
 .byte   N96 ,Ds3
 .byte   N96 ,Gn3
 .byte   W96
 .byte   PEND 
@ 034   ----------------------------------------
Label_2_018C3F0D:
 .byte   N48 ,Cn3 ,v127
 .byte   N48 ,Ds3
 .byte   N48 ,Gn3
 .byte   W48
 .byte   Cn3
 .byte   N48 ,Ds3
 .byte   N48 ,Gs3
 .byte   W48
 .byte   PEND 
 .byte   PATT
  .word Label_2_018C3F04
@ 035   ----------------------------------------
Label_2_018C3F21:
 .byte   N48 ,Cn3 ,v127
 .byte   N48 ,Ds3
 .byte   N48 ,Gn3
 .byte   W48
 .byte   As2
 .byte   N48 ,Cs3
 .byte   N48 ,Fs3
 .byte   W48
 .byte   PEND 
 .byte   PATT
  .word Label_2_018C3F04
 .byte   PATT
  .word Label_2_018C3F0D
 .byte   PATT
  .word Label_2_018C3F04
 .byte   PATT
  .word Label_2_018C3F21
 .byte   PATT
  .word Label_2_018C3F04
 .byte   PATT
  .word Label_2_018C3F0D
 .byte   PATT
  .word Label_2_018C3F04
 .byte   PATT
  .word Label_2_018C3F21
@ 036   ----------------------------------------
 .byte   W96
@ 037   ----------------------------------------
 .byte   W96
 .byte   PATT
  .word Label_2_018C3EA3
 .byte   PATT
  .word Label_2_018C3EA3
 .byte   PATT
  .word Label_2_018C3ECE
@ 038   ----------------------------------------
 .byte   N96 ,Cn3 ,v127
 .byte   W96
@ 039   ----------------------------------------
 .byte   W96
@ 040   ----------------------------------------
 .byte   W96
@ 041   ----------------------------------------
 .byte   W96
@ 042   ----------------------------------------
 .byte   W96
@ 043   ----------------------------------------
 .byte   W96
@ 044   ----------------------------------------
 .byte   W96
@ 045   ----------------------------------------
 .byte   W96
@ 046   ----------------------------------------
 .byte   W96
@ 047   ----------------------------------------
 .byte   W96
@ 048   ----------------------------------------
 .byte   W96
@ 049   ----------------------------------------
 .byte   W96
@ 050   ----------------------------------------
 .byte   W96
 .byte   PATT
  .word Label_2_018C3EA3
@ 051   ----------------------------------------
 .byte   W96
@ 052   ----------------------------------------
 .byte   W96
@ 053   ----------------------------------------
 .byte   W96
@ 054   ----------------------------------------
 .byte   W96
@ 055   ----------------------------------------
 .byte   W96
@ 056   ----------------------------------------
 .byte   W96
@ 057   ----------------------------------------
 .byte   W96
@ 058   ----------------------------------------
 .byte   W96
@ 059   ----------------------------------------
 .byte   W96
@ 060   ----------------------------------------
 .byte   W96
@ 061   ----------------------------------------
 .byte   W96
@ 062   ----------------------------------------
 .byte   W96
 .byte   PATT
  .word Label_2_018C3F04
 .byte   PATT
  .word Label_2_018C3F0D
 .byte   PATT
  .word Label_2_018C3F04
 .byte   PATT
  .word Label_2_018C3F21
 .byte   PATT
  .word Label_2_018C3F04
 .byte   PATT
  .word Label_2_018C3F0D
 .byte   PATT
  .word Label_2_018C3F04
 .byte   PATT
  .word Label_2_018C3F21
 .byte   PATT
  .word Label_2_018C3F04
 .byte   PATT
  .word Label_2_018C3F0D
 .byte   PATT
  .word Label_2_018C3F04
 .byte   PATT
  .word Label_2_018C3F21
@ 063   ----------------------------------------
 .byte   W24
 .byte   GOTO
  .word Label_2_018C3E96
 .byte   FINE

@**************** Track 4 (Midi-Chn.3) ****************@

songDB_004:
@ 000   ----------------------------------------
 .byte   KEYSH , songDB_key+0
Label_3_018C3FD2:
 .byte   VOICE , 81
 .byte   VOL , 80*songDB_mvl/mxv
 .byte   W96
@ 001   ----------------------------------------
 .byte   W96
@ 002   ----------------------------------------
 .byte   W96
@ 003   ----------------------------------------
 .byte   W96
@ 004   ----------------------------------------
Label_3_018C3FDA:
 .byte   W06
 .byte   N06 ,Cn2 ,v127
 .byte   W06
 .byte   Gn2
 .byte   W06
 .byte   Cn2
 .byte   W06
 .byte   Cn3
 .byte   W06
 .byte   Cn2
 .byte   W12
 .byte   N06
 .byte   W06
 .byte   Gn2
 .byte   W06
 .byte   Cn2
 .byte   W06
 .byte   Cn3
 .byte   W06
 .byte   Cn2
 .byte   W06
 .byte   Fs2
 .byte   W06
 .byte   Cn2
 .byte   W06
 .byte   Fs2
 .byte   W06
 .byte   Gn2
 .byte   W06
 .byte   PEND 
 .byte   PATT
  .word Label_3_018C3FDA
@ 005   ----------------------------------------
 .byte   W96
@ 006   ----------------------------------------
 .byte   W96
@ 007   ----------------------------------------
 .byte   W96
 .byte   PATT
  .word Label_3_018C3FDA
 .byte   PATT
  .word Label_3_018C3FDA
 .byte   PATT
  .word Label_3_018C3FDA
 .byte   PATT
  .word Label_3_018C3FDA
@ 008   ----------------------------------------
 .byte   W96
 .byte   PATT
  .word Label_3_018C3FDA
@ 009   ----------------------------------------
 .byte   W96
 .byte   PATT
  .word Label_3_018C3FDA
@ 010   ----------------------------------------
 .byte   W96
 .byte   PATT
  .word Label_3_018C3FDA
@ 011   ----------------------------------------
 .byte   W96
 .byte   PATT
  .word Label_3_018C3FDA
@ 012   ----------------------------------------
 .byte   W96
@ 013   ----------------------------------------
 .byte   W96
@ 014   ----------------------------------------
 .byte   W96
@ 015   ----------------------------------------
 .byte   W96
@ 016   ----------------------------------------
 .byte   W96
@ 017   ----------------------------------------
 .byte   W96
@ 018   ----------------------------------------
 .byte   W96
@ 019   ----------------------------------------
 .byte   W96
@ 020   ----------------------------------------
 .byte   W96
@ 021   ----------------------------------------
 .byte   W96
@ 022   ----------------------------------------
 .byte   W96
@ 023   ----------------------------------------
 .byte   W96
@ 024   ----------------------------------------
 .byte   W96
@ 025   ----------------------------------------
 .byte   W96
@ 026   ----------------------------------------
 .byte   W96
@ 027   ----------------------------------------
 .byte   W96
@ 028   ----------------------------------------
 .byte   W96
@ 029   ----------------------------------------
 .byte   W96
@ 030   ----------------------------------------
 .byte   W96
@ 031   ----------------------------------------
 .byte   W96
@ 032   ----------------------------------------
 .byte   W96
@ 033   ----------------------------------------
 .byte   W96
@ 034   ----------------------------------------
 .byte   W96
@ 035   ----------------------------------------
 .byte   W96
@ 036   ----------------------------------------
 .byte   W96
@ 037   ----------------------------------------
 .byte   W96
 .byte   PATT
  .word Label_3_018C3FDA
 .byte   PATT
  .word Label_3_018C3FDA
@ 038   ----------------------------------------
 .byte   W96
@ 039   ----------------------------------------
 .byte   W96
@ 040   ----------------------------------------
 .byte   W96
 .byte   PATT
  .word Label_3_018C3FDA
 .byte   PATT
  .word Label_3_018C3FDA
 .byte   PATT
  .word Label_3_018C3FDA
 .byte   PATT
  .word Label_3_018C3FDA
@ 041   ----------------------------------------
 .byte   W96
 .byte   PATT
  .word Label_3_018C3FDA
@ 042   ----------------------------------------
 .byte   W96
 .byte   PATT
  .word Label_3_018C3FDA
@ 043   ----------------------------------------
 .byte   W96
 .byte   PATT
  .word Label_3_018C3FDA
@ 044   ----------------------------------------
 .byte   W96
 .byte   PATT
  .word Label_3_018C3FDA
@ 045   ----------------------------------------
 .byte   W96
@ 046   ----------------------------------------
 .byte   W96
@ 047   ----------------------------------------
 .byte   W96
@ 048   ----------------------------------------
 .byte   W96
@ 049   ----------------------------------------
 .byte   W96
@ 050   ----------------------------------------
 .byte   W96
@ 051   ----------------------------------------
 .byte   W96
@ 052   ----------------------------------------
 .byte   W96
@ 053   ----------------------------------------
 .byte   W96
@ 054   ----------------------------------------
 .byte   W96
@ 055   ----------------------------------------
 .byte   W96
@ 056   ----------------------------------------
 .byte   W96
@ 057   ----------------------------------------
 .byte   W96
@ 058   ----------------------------------------
 .byte   W96
@ 059   ----------------------------------------
 .byte   W96
@ 060   ----------------------------------------
 .byte   W96
@ 061   ----------------------------------------
 .byte   W96
@ 062   ----------------------------------------
 .byte   W96
@ 063   ----------------------------------------
 .byte   W96
@ 064   ----------------------------------------
 .byte   W96
@ 065   ----------------------------------------
 .byte   W96
@ 066   ----------------------------------------
 .byte   W96
@ 067   ----------------------------------------
 .byte   W96
@ 068   ----------------------------------------
 .byte   W96
@ 069   ----------------------------------------
 .byte   W96
@ 070   ----------------------------------------
 .byte   W96
@ 071   ----------------------------------------
 .byte   W24
 .byte   GOTO
  .word Label_3_018C3FD2
 .byte   FINE

@**************** Track 5 (Midi-Chn.4) ****************@

songDB_005:
@ 000   ----------------------------------------
 .byte   KEYSH , songDB_key+0
Label_4_018C40A6:
 .byte   VOICE , 119
 .byte   VOL , 80*songDB_mvl/mxv
 .byte   W96
@ 001   ----------------------------------------
 .byte   W96
@ 002   ----------------------------------------
 .byte   W96
@ 003   ----------------------------------------
 .byte   W96
@ 004   ----------------------------------------
 .byte   W96
@ 005   ----------------------------------------
 .byte   W96
@ 006   ----------------------------------------
 .byte   W96
@ 007   ----------------------------------------
 .byte   W96
@ 008   ----------------------------------------
 .byte   W96
@ 009   ----------------------------------------
 .byte   W96
@ 010   ----------------------------------------
 .byte   W96
@ 011   ----------------------------------------
 .byte   W96
@ 012   ----------------------------------------
 .byte   W48
 .byte   N48 ,Cn3 ,v127
 .byte   W48
@ 013   ----------------------------------------
 .byte   W96
@ 014   ----------------------------------------
 .byte   W96
@ 015   ----------------------------------------
 .byte   W96
@ 016   ----------------------------------------
 .byte   W96
@ 017   ----------------------------------------
 .byte   W96
@ 018   ----------------------------------------
 .byte   W96
@ 019   ----------------------------------------
 .byte   W96
@ 020   ----------------------------------------
 .byte   W96
@ 021   ----------------------------------------
 .byte   W96
@ 022   ----------------------------------------
 .byte   W96
@ 023   ----------------------------------------
 .byte   W96
@ 024   ----------------------------------------
 .byte   W96
@ 025   ----------------------------------------
 .byte   W96
@ 026   ----------------------------------------
 .byte   W48
 .byte   N48
 .byte   W48
@ 027   ----------------------------------------
 .byte   W96
@ 028   ----------------------------------------
 .byte   W96
@ 029   ----------------------------------------
 .byte   W96
@ 030   ----------------------------------------
 .byte   W48
 .byte   N48
 .byte   W48
@ 031   ----------------------------------------
 .byte   W96
@ 032   ----------------------------------------
 .byte   W96
@ 033   ----------------------------------------
 .byte   W96
@ 034   ----------------------------------------
 .byte   W48
 .byte   N48
 .byte   W48
@ 035   ----------------------------------------
 .byte   W96
@ 036   ----------------------------------------
 .byte   W96
@ 037   ----------------------------------------
 .byte   W96
@ 038   ----------------------------------------
 .byte   W48
 .byte   N48
 .byte   W48
@ 039   ----------------------------------------
 .byte   W96
@ 040   ----------------------------------------
 .byte   W96
@ 041   ----------------------------------------
 .byte   W96
@ 042   ----------------------------------------
 .byte   W48
 .byte   N48
 .byte   W48
@ 043   ----------------------------------------
 .byte   W96
@ 044   ----------------------------------------
 .byte   W96
@ 045   ----------------------------------------
 .byte   W96
@ 046   ----------------------------------------
 .byte   W96
@ 047   ----------------------------------------
 .byte   W96
@ 048   ----------------------------------------
 .byte   W96
@ 049   ----------------------------------------
 .byte   W96
@ 050   ----------------------------------------
 .byte   W96
@ 051   ----------------------------------------
 .byte   W96
@ 052   ----------------------------------------
 .byte   W96
@ 053   ----------------------------------------
 .byte   W96
@ 054   ----------------------------------------
 .byte   W96
@ 055   ----------------------------------------
 .byte   W48
 .byte   N48
 .byte   W48
@ 056   ----------------------------------------
 .byte   W96
@ 057   ----------------------------------------
 .byte   W96
@ 058   ----------------------------------------
 .byte   W96
@ 059   ----------------------------------------
 .byte   W96
@ 060   ----------------------------------------
 .byte   W96
@ 061   ----------------------------------------
 .byte   W96
@ 062   ----------------------------------------
 .byte   W96
@ 063   ----------------------------------------
 .byte   W96
@ 064   ----------------------------------------
 .byte   W96
@ 065   ----------------------------------------
 .byte   W96
@ 066   ----------------------------------------
 .byte   W96
@ 067   ----------------------------------------
 .byte   W96
@ 068   ----------------------------------------
 .byte   W96
@ 069   ----------------------------------------
 .byte   W48
 .byte   N48
 .byte   W48
@ 070   ----------------------------------------
 .byte   W96
@ 071   ----------------------------------------
 .byte   W96
@ 072   ----------------------------------------
 .byte   W96
@ 073   ----------------------------------------
 .byte   W48
 .byte   N48
 .byte   W48
@ 074   ----------------------------------------
 .byte   W96
@ 075   ----------------------------------------
 .byte   W96
@ 076   ----------------------------------------
 .byte   W96
@ 077   ----------------------------------------
 .byte   W48
 .byte   N48
 .byte   W48
@ 078   ----------------------------------------
 .byte   W96
@ 079   ----------------------------------------
 .byte   W96
@ 080   ----------------------------------------
 .byte   W96
@ 081   ----------------------------------------
 .byte   W48
 .byte   N48
 .byte   W48
@ 082   ----------------------------------------
 .byte   W96
@ 083   ----------------------------------------
 .byte   W96
@ 084   ----------------------------------------
 .byte   W96
@ 085   ----------------------------------------
 .byte   W48
 .byte   N48
 .byte   W48
@ 086   ----------------------------------------
 .byte   W96
@ 087   ----------------------------------------
 .byte   W96
@ 088   ----------------------------------------
 .byte   W96
@ 089   ----------------------------------------
 .byte   W96
@ 090   ----------------------------------------
 .byte   W24
 .byte   GOTO
  .word Label_4_018C40A6
 .byte   FINE

@**************** Track 6 (Midi-Chn.5) ****************@

songDB_006:
@ 000   ----------------------------------------
 .byte   KEYSH , songDB_key+0
Label_5_018C412A:
 .byte   VOICE , 2
 .byte   VOL , 80*songDB_mvl/mxv
 .byte   W96
@ 001   ----------------------------------------
 .byte   W96
@ 002   ----------------------------------------
 .byte   W96
@ 003   ----------------------------------------
 .byte   W96
@ 004   ----------------------------------------
 .byte   W96
@ 005   ----------------------------------------
 .byte   W96
@ 006   ----------------------------------------
 .byte   W96
@ 007   ----------------------------------------
 .byte   W96
@ 008   ----------------------------------------
 .byte   W96
@ 009   ----------------------------------------
 .byte   W96
@ 010   ----------------------------------------
 .byte   W96
@ 011   ----------------------------------------
 .byte   W96
@ 012   ----------------------------------------
 .byte   W96
@ 013   ----------------------------------------
Label_5_018C413B:
 .byte   N12 ,Cn2 ,v127
 .byte   W18
 .byte   As1
 .byte   W18
 .byte   Cs2
 .byte   W18
 .byte   As1
 .byte   W18
 .byte   Cn2
 .byte   W12
 .byte   Cs2
 .byte   W12
 .byte   PEND 
@ 014   ----------------------------------------
Label_5_018C414A:
 .byte   N12 ,Cn2 ,v127
 .byte   W18
 .byte   Gn1
 .byte   W78
 .byte   PEND 
 .byte   PATT
  .word Label_5_018C413B
@ 015   ----------------------------------------
 .byte   N96 ,Cn2 ,v127
 .byte   W96
 .byte   PATT
  .word Label_5_018C413B
 .byte   PATT
  .word Label_5_018C414A
 .byte   PATT
  .word Label_5_018C413B
@ 016   ----------------------------------------
 .byte   N96 ,Cn2 ,v127
 .byte   W96
@ 017   ----------------------------------------
 .byte   W96
@ 018   ----------------------------------------
 .byte   W96
@ 019   ----------------------------------------
Label_5_018C416F:
 .byte   W06
 .byte   N06 ,Cn2 ,v127
 .byte   W06
 .byte   Gn2
 .byte   W06
 .byte   Cn2
 .byte   W06
 .byte   Cn3
 .byte   W06
 .byte   Cn2
 .byte   W12
 .byte   N06
 .byte   W06
 .byte   Gn2
 .byte   W06
 .byte   Cn2
 .byte   W06
 .byte   Cn3
 .byte   W06
 .byte   Cn2
 .byte   W06
 .byte   Fs2
 .byte   W06
 .byte   Cn2
 .byte   W06
 .byte   Fs2
 .byte   W06
 .byte   Gn2
 .byte   W06
 .byte   PEND 
 .byte   PATT
  .word Label_5_018C416F
@ 020   ----------------------------------------
 .byte   W96
 .byte   PATT
  .word Label_5_018C416F
@ 021   ----------------------------------------
 .byte   W96
@ 022   ----------------------------------------
 .byte   W96
@ 023   ----------------------------------------
 .byte   W96
@ 024   ----------------------------------------
 .byte   W96
@ 025   ----------------------------------------
 .byte   W96
@ 026   ----------------------------------------
 .byte   W96
@ 027   ----------------------------------------
 .byte   W96
@ 028   ----------------------------------------
 .byte   W96
@ 029   ----------------------------------------
 .byte   W96
@ 030   ----------------------------------------
 .byte   W96
@ 031   ----------------------------------------
 .byte   W96
@ 032   ----------------------------------------
 .byte   W96
@ 033   ----------------------------------------
 .byte   W96
@ 034   ----------------------------------------
 .byte   W96
@ 035   ----------------------------------------
 .byte   W96
@ 036   ----------------------------------------
 .byte   W96
@ 037   ----------------------------------------
 .byte   W96
@ 038   ----------------------------------------
 .byte   W96
@ 039   ----------------------------------------
 .byte   W96
@ 040   ----------------------------------------
 .byte   W96
@ 041   ----------------------------------------
 .byte   W96
@ 042   ----------------------------------------
 .byte   W96
@ 043   ----------------------------------------
 .byte   W96
@ 044   ----------------------------------------
 .byte   W96
@ 045   ----------------------------------------
 .byte   W96
@ 046   ----------------------------------------
 .byte   W96
@ 047   ----------------------------------------
 .byte   W96
@ 048   ----------------------------------------
 .byte   W96
@ 049   ----------------------------------------
 .byte   W96
 .byte   PATT
  .word Label_5_018C413B
 .byte   PATT
  .word Label_5_018C414A
 .byte   PATT
  .word Label_5_018C413B
@ 050   ----------------------------------------
 .byte   N96 ,Cn2 ,v127
 .byte   W96
 .byte   PATT
  .word Label_5_018C413B
 .byte   PATT
  .word Label_5_018C414A
 .byte   PATT
  .word Label_5_018C413B
@ 051   ----------------------------------------
 .byte   N96 ,Cn2 ,v127
 .byte   W96
@ 052   ----------------------------------------
 .byte   W96
@ 053   ----------------------------------------
 .byte   W96
 .byte   PATT
  .word Label_5_018C416F
 .byte   PATT
  .word Label_5_018C416F
@ 054   ----------------------------------------
 .byte   W96
 .byte   PATT
  .word Label_5_018C416F
@ 055   ----------------------------------------
 .byte   W96
@ 056   ----------------------------------------
 .byte   W96
@ 057   ----------------------------------------
 .byte   W96
@ 058   ----------------------------------------
 .byte   W96
@ 059   ----------------------------------------
 .byte   W96
@ 060   ----------------------------------------
 .byte   W96
@ 061   ----------------------------------------
 .byte   W96
@ 062   ----------------------------------------
 .byte   W96
@ 063   ----------------------------------------
 .byte   W96
@ 064   ----------------------------------------
 .byte   W96
@ 065   ----------------------------------------
 .byte   W96
@ 066   ----------------------------------------
 .byte   W96
@ 067   ----------------------------------------
 .byte   W96
@ 068   ----------------------------------------
 .byte   W96
@ 069   ----------------------------------------
 .byte   W96
@ 070   ----------------------------------------
 .byte   W96
@ 071   ----------------------------------------
 .byte   W96
@ 072   ----------------------------------------
 .byte   W96
@ 073   ----------------------------------------
 .byte   W96
@ 074   ----------------------------------------
 .byte   W96
@ 075   ----------------------------------------
 .byte   W24
 .byte   GOTO
  .word Label_5_018C412A
 .byte   FINE

@**************** Track 7 (Midi-Chn.6) ****************@

songDB_007:
@ 000   ----------------------------------------
 .byte   KEYSH , songDB_key+0
Label_6_018C420E:
 .byte   VOICE , 38
 .byte   VOL , 61*songDB_mvl/mxv
 .byte   W96
@ 001   ----------------------------------------
 .byte   W96
@ 002   ----------------------------------------
 .byte   W96
@ 003   ----------------------------------------
 .byte   W96
@ 004   ----------------------------------------
 .byte   W96
@ 005   ----------------------------------------
 .byte   W96
@ 006   ----------------------------------------
 .byte   W96
@ 007   ----------------------------------------
 .byte   W96
@ 008   ----------------------------------------
 .byte   W96
@ 009   ----------------------------------------
 .byte   W96
@ 010   ----------------------------------------
 .byte   W96
@ 011   ----------------------------------------
 .byte   W96
@ 012   ----------------------------------------
 .byte   W96
@ 013   ----------------------------------------
Label_6_018C421F:
 .byte   N06 ,Cn1 ,v127
 .byte   W06
 .byte   N06
 .byte   W06
 .byte   N06
 .byte   W06
 .byte   N06
 .byte   W06
 .byte   N06
 .byte   W06
 .byte   N06
 .byte   W06
 .byte   N06
 .byte   W06
 .byte   N06
 .byte   W06
 .byte   As0
 .byte   W06
 .byte   N06
 .byte   W06
 .byte   N06
 .byte   W06
 .byte   N06
 .byte   W06
 .byte   N06
 .byte   W06
 .byte   N06
 .byte   W06
 .byte   N06
 .byte   W06
 .byte   N06
 .byte   W06
 .byte   PEND 
@ 014   ----------------------------------------
Label_6_018C4242:
 .byte   N06 ,Cn1 ,v127
 .byte   W06
 .byte   N06
 .byte   W06
 .byte   N06
 .byte   W06
 .byte   N06
 .byte   W06
 .byte   N06
 .byte   W06
 .byte   N06
 .byte   W06
 .byte   N06
 .byte   W06
 .byte   N06
 .byte   W06
 .byte   N06
 .byte   W06
 .byte   N06
 .byte   W06
 .byte   N06
 .byte   W06
 .byte   N06
 .byte   W06
 .byte   N06
 .byte   W06
 .byte   N06
 .byte   W06
 .byte   N06
 .byte   W06
 .byte   N06
 .byte   W06
 .byte   PEND 
 .byte   PATT
  .word Label_6_018C421F
 .byte   PATT
  .word Label_6_018C4242
 .byte   PATT
  .word Label_6_018C421F
 .byte   PATT
  .word Label_6_018C4242
 .byte   PATT
  .word Label_6_018C421F
 .byte   PATT
  .word Label_6_018C4242
 .byte   PATT
  .word Label_6_018C4242
 .byte   PATT
  .word Label_6_018C4242
 .byte   PATT
  .word Label_6_018C4242
 .byte   PATT
  .word Label_6_018C4242
 .byte   PATT
  .word Label_6_018C421F
 .byte   PATT
  .word Label_6_018C4242
@ 015   ----------------------------------------
 .byte   W96
@ 016   ----------------------------------------
 .byte   W96
@ 017   ----------------------------------------
 .byte   W96
@ 018   ----------------------------------------
 .byte   W96
@ 019   ----------------------------------------
 .byte   W96
@ 020   ----------------------------------------
 .byte   W96
@ 021   ----------------------------------------
 .byte   W96
@ 022   ----------------------------------------
 .byte   W96
@ 023   ----------------------------------------
 .byte   W96
@ 024   ----------------------------------------
 .byte   W96
@ 025   ----------------------------------------
 .byte   W96
@ 026   ----------------------------------------
 .byte   W96
@ 027   ----------------------------------------
 .byte   W96
@ 028   ----------------------------------------
 .byte   W96
@ 029   ----------------------------------------
 .byte   W96
@ 030   ----------------------------------------
 .byte   W96
@ 031   ----------------------------------------
 .byte   W96
@ 032   ----------------------------------------
 .byte   W96
@ 033   ----------------------------------------
 .byte   W96
@ 034   ----------------------------------------
 .byte   W96
@ 035   ----------------------------------------
 .byte   W96
@ 036   ----------------------------------------
 .byte   W96
@ 037   ----------------------------------------
 .byte   W96
@ 038   ----------------------------------------
 .byte   W96
@ 039   ----------------------------------------
 .byte   W96
@ 040   ----------------------------------------
 .byte   W96
@ 041   ----------------------------------------
 .byte   W96
@ 042   ----------------------------------------
 .byte   W96
@ 043   ----------------------------------------
 .byte   W96
 .byte   PATT
  .word Label_6_018C421F
 .byte   PATT
  .word Label_6_018C4242
 .byte   PATT
  .word Label_6_018C421F
 .byte   PATT
  .word Label_6_018C4242
 .byte   PATT
  .word Label_6_018C421F
 .byte   PATT
  .word Label_6_018C4242
 .byte   PATT
  .word Label_6_018C421F
 .byte   PATT
  .word Label_6_018C4242
 .byte   PATT
  .word Label_6_018C4242
 .byte   PATT
  .word Label_6_018C4242
 .byte   PATT
  .word Label_6_018C4242
 .byte   PATT
  .word Label_6_018C4242
 .byte   PATT
  .word Label_6_018C421F
 .byte   PATT
  .word Label_6_018C4242
@ 044   ----------------------------------------
 .byte   W96
@ 045   ----------------------------------------
 .byte   W96
@ 046   ----------------------------------------
 .byte   W96
@ 047   ----------------------------------------
 .byte   W96
@ 048   ----------------------------------------
 .byte   W96
@ 049   ----------------------------------------
 .byte   W96
@ 050   ----------------------------------------
 .byte   W96
@ 051   ----------------------------------------
 .byte   W96
@ 052   ----------------------------------------
 .byte   W96
@ 053   ----------------------------------------
 .byte   W96
@ 054   ----------------------------------------
 .byte   W96
@ 055   ----------------------------------------
 .byte   W96
@ 056   ----------------------------------------
 .byte   W96
@ 057   ----------------------------------------
 .byte   W96
@ 058   ----------------------------------------
 .byte   W96
@ 059   ----------------------------------------
 .byte   W96
@ 060   ----------------------------------------
 .byte   W96
@ 061   ----------------------------------------
 .byte   W96
@ 062   ----------------------------------------
 .byte   W96
@ 063   ----------------------------------------
 .byte   W96
@ 064   ----------------------------------------
 .byte   W24
 .byte   GOTO
  .word Label_6_018C420E
 .byte   FINE

@**************** Track 8 (Midi-Chn.7) ****************@

songDB_008:
@ 000   ----------------------------------------
 .byte   KEYSH , songDB_key+0
Label_7_018C4322:
 .byte   VOICE , 100
 .byte   VOL , 73*songDB_mvl/mxv
 .byte   W96
@ 001   ----------------------------------------
 .byte   W96
@ 002   ----------------------------------------
 .byte   W96
@ 003   ----------------------------------------
 .byte   W96
@ 004   ----------------------------------------
 .byte   W96
@ 005   ----------------------------------------
 .byte   W96
@ 006   ----------------------------------------
 .byte   W96
@ 007   ----------------------------------------
 .byte   W96
@ 008   ----------------------------------------
 .byte   W96
@ 009   ----------------------------------------
 .byte   W96
@ 010   ----------------------------------------
 .byte   W96
@ 011   ----------------------------------------
 .byte   W96
@ 012   ----------------------------------------
 .byte   W96
@ 013   ----------------------------------------
 .byte   W96
@ 014   ----------------------------------------
 .byte   W96
@ 015   ----------------------------------------
 .byte   W96
@ 016   ----------------------------------------
 .byte   W96
@ 017   ----------------------------------------
 .byte   W96
@ 018   ----------------------------------------
 .byte   W96
@ 019   ----------------------------------------
 .byte   W96
@ 020   ----------------------------------------
 .byte   W96
@ 021   ----------------------------------------
 .byte   W96
@ 022   ----------------------------------------
 .byte   W96
@ 023   ----------------------------------------
 .byte   W96
@ 024   ----------------------------------------
 .byte   W96
@ 025   ----------------------------------------
 .byte   W96
@ 026   ----------------------------------------
 .byte   W96
@ 027   ----------------------------------------
Label_7_018C4341:
 .byte   N06 ,Gn3 ,v127
 .byte   W06
 .byte   Cn3
 .byte   W06
 .byte   Gs3
 .byte   W06
 .byte   Cn3
 .byte   W06
 .byte   Gn3
 .byte   W06
 .byte   Cn3
 .byte   W06
 .byte   Fn3
 .byte   W06
 .byte   Cn3
 .byte   W06
 .byte   Gn3
 .byte   W06
 .byte   Cn3
 .byte   W06
 .byte   Gs3
 .byte   W06
 .byte   Cn3
 .byte   W06
 .byte   Gn3
 .byte   W06
 .byte   Cn3
 .byte   W06
 .byte   Fn3
 .byte   W06
 .byte   Cn3
 .byte   W06
 .byte   PEND 
@ 028   ----------------------------------------
Label_7_018C4364:
 .byte   N06 ,Gn3 ,v127
 .byte   W06
 .byte   Cn3
 .byte   W06
 .byte   Gs3
 .byte   W06
 .byte   Cn3
 .byte   W06
 .byte   Gn3
 .byte   W06
 .byte   Cn3
 .byte   W06
 .byte   Fn3
 .byte   W06
 .byte   Cn3
 .byte   W06
 .byte   Gs3
 .byte   W06
 .byte   Cn3
 .byte   W06
 .byte   Ds3
 .byte   W06
 .byte   Cn3
 .byte   W06
 .byte   Gs3
 .byte   W06
 .byte   Cn3
 .byte   W06
 .byte   Cn4
 .byte   W06
 .byte   Cn3
 .byte   W06
 .byte   PEND 
 .byte   PATT
  .word Label_7_018C4341
@ 029   ----------------------------------------
Label_7_018C438C:
 .byte   N06 ,Gn3 ,v127
 .byte   W06
 .byte   Cn3
 .byte   W06
 .byte   Gs3
 .byte   W06
 .byte   Cn3
 .byte   W06
 .byte   Gn3
 .byte   W06
 .byte   Cn3
 .byte   W06
 .byte   Fn3
 .byte   W06
 .byte   Cn3
 .byte   W06
 .byte   Fs3
 .byte   W06
 .byte   As2
 .byte   W06
 .byte   Cs3
 .byte   W06
 .byte   As2
 .byte   W06
 .byte   Fs3
 .byte   W06
 .byte   As2
 .byte   W06
 .byte   As3
 .byte   W06
 .byte   As2
 .byte   W06
 .byte   PEND 
 .byte   PATT
  .word Label_7_018C4341
 .byte   PATT
  .word Label_7_018C4364
 .byte   PATT
  .word Label_7_018C4341
 .byte   PATT
  .word Label_7_018C438C
@ 030   ----------------------------------------
 .byte   W96
@ 031   ----------------------------------------
 .byte   W96
@ 032   ----------------------------------------
 .byte   W96
@ 033   ----------------------------------------
 .byte   W96
@ 034   ----------------------------------------
 .byte   W96
@ 035   ----------------------------------------
 .byte   W96
@ 036   ----------------------------------------
 .byte   W96
@ 037   ----------------------------------------
 .byte   W96
@ 038   ----------------------------------------
 .byte   W96
@ 039   ----------------------------------------
 .byte   W96
@ 040   ----------------------------------------
 .byte   W96
@ 041   ----------------------------------------
 .byte   W96
@ 042   ----------------------------------------
 .byte   W96
@ 043   ----------------------------------------
 .byte   W96
@ 044   ----------------------------------------
 .byte   W96
@ 045   ----------------------------------------
 .byte   W96
@ 046   ----------------------------------------
 .byte   W96
@ 047   ----------------------------------------
 .byte   W96
@ 048   ----------------------------------------
 .byte   W96
@ 049   ----------------------------------------
 .byte   W96
@ 050   ----------------------------------------
 .byte   W96
@ 051   ----------------------------------------
 .byte   W96
@ 052   ----------------------------------------
 .byte   W96
@ 053   ----------------------------------------
 .byte   W96
@ 054   ----------------------------------------
 .byte   W96
@ 055   ----------------------------------------
 .byte   W96
@ 056   ----------------------------------------
 .byte   W96
@ 057   ----------------------------------------
 .byte   W96
@ 058   ----------------------------------------
 .byte   W96
@ 059   ----------------------------------------
 .byte   W96
@ 060   ----------------------------------------
 .byte   W96
@ 061   ----------------------------------------
 .byte   W96
@ 062   ----------------------------------------
 .byte   W96
@ 063   ----------------------------------------
 .byte   W96
@ 064   ----------------------------------------
 .byte   W96
 .byte   PATT
  .word Label_7_018C4341
 .byte   PATT
  .word Label_7_018C4364
 .byte   PATT
  .word Label_7_018C4341
 .byte   PATT
  .word Label_7_018C438C
 .byte   PATT
  .word Label_7_018C4341
 .byte   PATT
  .word Label_7_018C4364
 .byte   PATT
  .word Label_7_018C4341
 .byte   PATT
  .word Label_7_018C438C
@ 065   ----------------------------------------
 .byte   W96
@ 066   ----------------------------------------
 .byte   W96
@ 067   ----------------------------------------
 .byte   W96
@ 068   ----------------------------------------
 .byte   W96
@ 069   ----------------------------------------
 .byte   W96
@ 070   ----------------------------------------
 .byte   W96
@ 071   ----------------------------------------
 .byte   W96
@ 072   ----------------------------------------
 .byte   W96
@ 073   ----------------------------------------
 .byte   W96
@ 074   ----------------------------------------
 .byte   W96
@ 075   ----------------------------------------
 .byte   W96
@ 076   ----------------------------------------
 .byte   W96
@ 077   ----------------------------------------
 .byte   W24
 .byte   GOTO
  .word Label_7_018C4322
 .byte   FINE

@**************** Track 9 (Midi-Chn.8) ****************@

songDB_009:
@ 000   ----------------------------------------
 .byte   KEYSH , songDB_key+0
Label_8_018C4426:
 .byte   VOICE , 0
 .byte   VOL , 69*songDB_mvl/mxv
 .byte   W96
@ 001   ----------------------------------------
 .byte   W96
@ 002   ----------------------------------------
 .byte   W96
@ 003   ----------------------------------------
 .byte   W96
@ 004   ----------------------------------------
Label_8_018C442E:
 .byte   W12
 .byte   N12 ,Dn1 ,v127
 .byte   W24
 .byte   N12
 .byte   W24
 .byte   N12
 .byte   W24
 .byte   N12
 .byte   W12
 .byte   PEND 
 .byte   PATT
  .word Label_8_018C442E
@ 005   ----------------------------------------
Label_8_018C443F:
 .byte   N12 ,Cn1 ,v127
 .byte   W12
 .byte   Dn1
 .byte   W24
 .byte   N06
 .byte   W06
 .byte   Cn1
 .byte   W06
 .byte   N12
 .byte   W12
 .byte   Dn1
 .byte   W24
 .byte   N06
 .byte   W06
 .byte   Cn1
 .byte   W06
 .byte   PEND 
 .byte   PATT
  .word Label_8_018C443F
 .byte   PATT
  .word Label_8_018C443F
 .byte   PATT
  .word Label_8_018C443F
@ 006   ----------------------------------------
Label_8_018C4461:
 .byte   N12 ,Cn1 ,v127
 .byte   W12
 .byte   Dn1
 .byte   W24
 .byte   N12
 .byte   W36
 .byte   N03 ,Cn1
 .byte   W03
 .byte   N03
 .byte   W03
 .byte   N03
 .byte   W03
 .byte   N03
 .byte   W03
 .byte   N06 ,Dn1
 .byte   N06 ,An2
 .byte   W12
 .byte   PEND 
@ 007   ----------------------------------------
Label_8_018C4478:
 .byte   N06 ,Cn1 ,v127
 .byte   N12 ,As1
 .byte   N96 ,Gn2
 .byte   W06
 .byte   N06 ,Cn1
 .byte   W06
 .byte   Dn1
 .byte   N12 ,As1
 .byte   W06
 .byte   N06 ,Cn1
 .byte   W06
 .byte   N06
 .byte   N12 ,As1
 .byte   W06
 .byte   N06 ,Cn1
 .byte   W06
 .byte   Dn1
 .byte   N12 ,As1
 .byte   W06
 .byte   N06 ,Cn1
 .byte   W06
 .byte   N06
 .byte   N12 ,As1
 .byte   W06
 .byte   N06 ,Cn1
 .byte   W06
 .byte   Dn1
 .byte   N12 ,As1
 .byte   W06
 .byte   N06 ,Cn1
 .byte   W06
 .byte   N06
 .byte   N12 ,As1
 .byte   W06
 .byte   N06 ,Cn1
 .byte   W06
 .byte   Dn1
 .byte   N12 ,As1
 .byte   W06
 .byte   N06 ,Cn1
 .byte   W06
 .byte   PEND 
@ 008   ----------------------------------------
Label_8_018C44B5:
 .byte   N06 ,Cn1 ,v127
 .byte   N12 ,As1
 .byte   W06
 .byte   N06 ,Cn1
 .byte   W06
 .byte   Dn1
 .byte   N12 ,As1
 .byte   W06
 .byte   N06 ,Cn1
 .byte   W06
 .byte   N06
 .byte   N12 ,As1
 .byte   W06
 .byte   N06 ,Cn1
 .byte   W06
 .byte   Dn1
 .byte   N12 ,As1
 .byte   W06
 .byte   N06 ,Cn1
 .byte   W06
 .byte   N06
 .byte   N12 ,As1
 .byte   W06
 .byte   N06 ,Cn1
 .byte   W06
 .byte   Dn1
 .byte   N12 ,As1
 .byte   W06
 .byte   N06 ,Cn1
 .byte   W06
 .byte   N06
 .byte   N12 ,As1
 .byte   W06
 .byte   N06 ,Cn1
 .byte   W06
 .byte   Dn1
 .byte   N12 ,As1
 .byte   W06
 .byte   N06 ,Cn1
 .byte   W06
 .byte   PEND 
@ 009   ----------------------------------------
Label_8_018C44F0:
 .byte   N06 ,Cn1 ,v127
 .byte   N12 ,As1
 .byte   N96 ,An2
 .byte   W06
 .byte   N06 ,Cn1
 .byte   W06
 .byte   Dn1
 .byte   N12 ,As1
 .byte   W06
 .byte   N06 ,Cn1
 .byte   W06
 .byte   N06
 .byte   N12 ,As1
 .byte   W06
 .byte   N06 ,Cn1
 .byte   W06
 .byte   Dn1
 .byte   N12 ,As1
 .byte   W06
 .byte   N06 ,Cn1
 .byte   W06
 .byte   N06
 .byte   N12 ,As1
 .byte   W06
 .byte   N06 ,Cn1
 .byte   W06
 .byte   Dn1
 .byte   N12 ,As1
 .byte   W06
 .byte   N06 ,Cn1
 .byte   W06
 .byte   N06
 .byte   N12 ,As1
 .byte   W06
 .byte   N06 ,Cn1
 .byte   W06
 .byte   Dn1
 .byte   N12 ,As1
 .byte   W06
 .byte   N06 ,Cn1
 .byte   W06
 .byte   PEND 
 .byte   PATT
  .word Label_8_018C44B5
 .byte   PATT
  .word Label_8_018C44B5
@ 010   ----------------------------------------
Label_8_018C4537:
 .byte   N06 ,Cn1 ,v127
 .byte   N12 ,As1
 .byte   W06
 .byte   N06 ,Cn1
 .byte   W06
 .byte   Dn1
 .byte   N12 ,As1
 .byte   W06
 .byte   N06 ,Cn1
 .byte   W06
 .byte   N06
 .byte   N12 ,As1
 .byte   W06
 .byte   N06 ,Cn1
 .byte   W06
 .byte   Dn1
 .byte   N12 ,As1
 .byte   W06
 .byte   N06 ,Cn1
 .byte   W06
 .byte   N06
 .byte   N12 ,As1
 .byte   W06
 .byte   N06 ,Cn1
 .byte   W06
 .byte   Dn1
 .byte   N12 ,As1
 .byte   W06
 .byte   N06 ,Cn1
 .byte   W06
 .byte   N06
 .byte   N12 ,As1
 .byte   W06
 .byte   N06 ,Cn1
 .byte   W06
 .byte   Dn1
 .byte   N12 ,As1
 .byte   W06
 .byte   N06 ,Cn1
 .byte   W05
 .byte   N96 ,Gn2
 .byte   W01
 .byte   PEND 
 .byte   PATT
  .word Label_8_018C44B5
 .byte   PATT
  .word Label_8_018C44B5
 .byte   PATT
  .word Label_8_018C44B5
@ 011   ----------------------------------------
Label_8_018C4584:
 .byte   N06 ,Cn1 ,v127
 .byte   N12 ,As1
 .byte   W06
 .byte   N06 ,Cn1
 .byte   W06
 .byte   Dn1
 .byte   N12 ,As1
 .byte   W06
 .byte   N06 ,Cn1
 .byte   W06
 .byte   N06
 .byte   N12 ,As1
 .byte   W06
 .byte   N06 ,Cn1
 .byte   W06
 .byte   Dn1
 .byte   N12 ,As1
 .byte   W06
 .byte   N06 ,Cn1
 .byte   W06
 .byte   N06
 .byte   N12 ,As1
 .byte   W06
 .byte   N06 ,Cn1
 .byte   W06
 .byte   Dn1
 .byte   N12 ,As1
 .byte   W06
 .byte   N06 ,Cn1
 .byte   W06
 .byte   Dn1
 .byte   N12 ,As1
 .byte   W06
 .byte   N06 ,Dn1
 .byte   W06
 .byte   N06
 .byte   N12 ,As1
 .byte   W06
 .byte   N06 ,Dn1
 .byte   W06
 .byte   PEND 
 .byte   PATT
  .word Label_8_018C44F0
 .byte   PATT
  .word Label_8_018C44B5
 .byte   PATT
  .word Label_8_018C4478
 .byte   PATT
  .word Label_8_018C44B5
 .byte   PATT
  .word Label_8_018C4478
 .byte   PATT
  .word Label_8_018C44B5
@ 012   ----------------------------------------
Label_8_018C45DD:
 .byte   N06 ,Fn1 ,v127
 .byte   N06 ,An1
 .byte   N96 ,Gn2
 .byte   W06
 .byte   N12 ,Fn1
 .byte   N12 ,An1
 .byte   W90
 .byte   PEND 
@ 013   ----------------------------------------
 .byte   W96
@ 014   ----------------------------------------
 .byte   W96
@ 015   ----------------------------------------
 .byte   W96
@ 016   ----------------------------------------
Label_8_018C45EE:
 .byte   N06 ,Fn1 ,v127
 .byte   N06 ,An1
 .byte   N12 ,Gn2
 .byte   W06
 .byte   Fn1
 .byte   N12 ,An1
 .byte   W18
 .byte   N06 ,Cs1
 .byte   W06
 .byte   N06
 .byte   W06
 .byte   N48 ,Cn1
 .byte   W36
 .byte   N06 ,Cs1
 .byte   W06
 .byte   N06
 .byte   W18
 .byte   PEND 
@ 017   ----------------------------------------
Label_8_018C4608:
 .byte   W24
 .byte   N06 ,Cs1 ,v127
 .byte   W06
 .byte   N06
 .byte   W06
 .byte   N48 ,Cn1
 .byte   W36
 .byte   N06 ,Cs1
 .byte   W06
 .byte   N06
 .byte   W18
 .byte   PEND 
 .byte   PATT
  .word Label_8_018C4608
 .byte   PATT
  .word Label_8_018C4608
 .byte   PATT
  .word Label_8_018C45EE
 .byte   PATT
  .word Label_8_018C4608
 .byte   PATT
  .word Label_8_018C4608
 .byte   PATT
  .word Label_8_018C4608
 .byte   PATT
  .word Label_8_018C45EE
 .byte   PATT
  .word Label_8_018C4608
 .byte   PATT
  .word Label_8_018C4608
 .byte   PATT
  .word Label_8_018C4608
 .byte   PATT
  .word Label_8_018C45EE
 .byte   PATT
  .word Label_8_018C4608
 .byte   PATT
  .word Label_8_018C4608
 .byte   PATT
  .word Label_8_018C4608
 .byte   PATT
  .word Label_8_018C442E
 .byte   PATT
  .word Label_8_018C442E
 .byte   PATT
  .word Label_8_018C443F
 .byte   PATT
  .word Label_8_018C443F
 .byte   PATT
  .word Label_8_018C443F
 .byte   PATT
  .word Label_8_018C443F
 .byte   PATT
  .word Label_8_018C4461
 .byte   PATT
  .word Label_8_018C4478
 .byte   PATT
  .word Label_8_018C44B5
 .byte   PATT
  .word Label_8_018C44F0
 .byte   PATT
  .word Label_8_018C44B5
 .byte   PATT
  .word Label_8_018C44B5
 .byte   PATT
  .word Label_8_018C4537
 .byte   PATT
  .word Label_8_018C44B5
 .byte   PATT
  .word Label_8_018C44B5
 .byte   PATT
  .word Label_8_018C44B5
 .byte   PATT
  .word Label_8_018C4584
 .byte   PATT
  .word Label_8_018C44F0
 .byte   PATT
  .word Label_8_018C44B5
 .byte   PATT
  .word Label_8_018C4478
 .byte   PATT
  .word Label_8_018C44B5
 .byte   PATT
  .word Label_8_018C4478
 .byte   PATT
  .word Label_8_018C44B5
 .byte   PATT
  .word Label_8_018C45DD
@ 018   ----------------------------------------
 .byte   W96
@ 019   ----------------------------------------
 .byte   W96
@ 020   ----------------------------------------
 .byte   W96
 .byte   PATT
  .word Label_8_018C45EE
 .byte   PATT
  .word Label_8_018C4608
 .byte   PATT
  .word Label_8_018C4608
 .byte   PATT
  .word Label_8_018C4608
 .byte   PATT
  .word Label_8_018C45EE
 .byte   PATT
  .word Label_8_018C4608
 .byte   PATT
  .word Label_8_018C4608
 .byte   PATT
  .word Label_8_018C4608
 .byte   PATT
  .word Label_8_018C45EE
 .byte   PATT
  .word Label_8_018C4608
 .byte   PATT
  .word Label_8_018C4608
 .byte   PATT
  .word Label_8_018C4608
 .byte   PATT
  .word Label_8_018C45EE
 .byte   PATT
  .word Label_8_018C4608
 .byte   PATT
  .word Label_8_018C4608
 .byte   PATT
  .word Label_8_018C4608
@ 021   ----------------------------------------
 .byte   W24
 .byte   GOTO
  .word Label_8_018C4426
 .byte   FINE

@**************** Track 10 (Midi-Chn.9) ****************@

songDB_010:
@ 000   ----------------------------------------
 .byte   KEYSH , songDB_key+0
Label_9_018C4732:
 .byte   VOICE , 52
 .byte   VOL , 74*songDB_mvl/mxv
 .byte   W96
@ 001   ----------------------------------------
 .byte   W96
@ 002   ----------------------------------------
 .byte   W96
@ 003   ----------------------------------------
 .byte   W96
@ 004   ----------------------------------------
 .byte   W96
@ 005   ----------------------------------------
 .byte   W96
@ 006   ----------------------------------------
 .byte   W96
@ 007   ----------------------------------------
 .byte   W96
@ 008   ----------------------------------------
 .byte   W96
@ 009   ----------------------------------------
 .byte   W96
@ 010   ----------------------------------------
 .byte   W96
@ 011   ----------------------------------------
 .byte   W96
@ 012   ----------------------------------------
 .byte   W96
@ 013   ----------------------------------------
 .byte   W96
@ 014   ----------------------------------------
 .byte   W96
@ 015   ----------------------------------------
 .byte   W96
@ 016   ----------------------------------------
 .byte   W96
@ 017   ----------------------------------------
 .byte   W96
@ 018   ----------------------------------------
 .byte   W96
@ 019   ----------------------------------------
 .byte   W96
@ 020   ----------------------------------------
 .byte   W96
@ 021   ----------------------------------------
 .byte   W96
@ 022   ----------------------------------------
 .byte   W96
@ 023   ----------------------------------------
 .byte   W96
@ 024   ----------------------------------------
 .byte   W96
@ 025   ----------------------------------------
 .byte   W96
@ 026   ----------------------------------------
 .byte   W96
@ 027   ----------------------------------------
 .byte   W96
@ 028   ----------------------------------------
 .byte   W96
@ 029   ----------------------------------------
 .byte   W96
@ 030   ----------------------------------------
 .byte   W96
@ 031   ----------------------------------------
 .byte   W96
@ 032   ----------------------------------------
 .byte   W96
@ 033   ----------------------------------------
 .byte   W96
@ 034   ----------------------------------------
 .byte   W96
@ 035   ----------------------------------------
 .byte   W96
@ 036   ----------------------------------------
 .byte   W96
@ 037   ----------------------------------------
 .byte   W96
@ 038   ----------------------------------------
 .byte   W96
@ 039   ----------------------------------------
 .byte   W96
@ 040   ----------------------------------------
 .byte   W96
@ 041   ----------------------------------------
 .byte   W96
@ 042   ----------------------------------------
 .byte   W96
@ 043   ----------------------------------------
Label_9_018C4761:
 .byte   N24 ,Cn3 ,v127
 .byte   W24
 .byte   Ds3
 .byte   W24
 .byte   Gn3
 .byte   W24
 .byte   Cn4
 .byte   W24
 .byte   PEND 
@ 044   ----------------------------------------
Label_9_018C476C:
 .byte   N24 ,Ds4 ,v127
 .byte   W24
 .byte   Gn4
 .byte   W24
 .byte   Gs4
 .byte   W24
 .byte   Ds4
 .byte   W24
 .byte   PEND 
@ 045   ----------------------------------------
Label_9_018C4777:
 .byte   N24 ,Cn4 ,v127
 .byte   W24
 .byte   Gn3
 .byte   W24
 .byte   Ds3
 .byte   W24
 .byte   Dn3
 .byte   W24
 .byte   PEND 
@ 046   ----------------------------------------
Label_9_018C4782:
 .byte   N24 ,Cn3 ,v127
 .byte   W24
 .byte   Gn3
 .byte   W24
 .byte   Fs3
 .byte   W24
 .byte   Cs3
 .byte   W24
 .byte   PEND 
@ 047   ----------------------------------------
 .byte   W96
@ 048   ----------------------------------------
 .byte   W96
@ 049   ----------------------------------------
 .byte   W96
@ 050   ----------------------------------------
 .byte   W96
@ 051   ----------------------------------------
 .byte   W96
@ 052   ----------------------------------------
 .byte   W96
@ 053   ----------------------------------------
 .byte   W96
@ 054   ----------------------------------------
 .byte   W96
@ 055   ----------------------------------------
 .byte   W96
@ 056   ----------------------------------------
 .byte   W96
@ 057   ----------------------------------------
 .byte   W96
@ 058   ----------------------------------------
 .byte   W96
@ 059   ----------------------------------------
 .byte   W96
@ 060   ----------------------------------------
 .byte   W96
@ 061   ----------------------------------------
 .byte   W96
@ 062   ----------------------------------------
 .byte   W96
@ 063   ----------------------------------------
 .byte   W96
@ 064   ----------------------------------------
 .byte   W96
@ 065   ----------------------------------------
 .byte   W96
@ 066   ----------------------------------------
 .byte   W96
@ 067   ----------------------------------------
 .byte   W96
@ 068   ----------------------------------------
 .byte   W96
@ 069   ----------------------------------------
 .byte   W96
@ 070   ----------------------------------------
 .byte   W96
@ 071   ----------------------------------------
 .byte   W96
@ 072   ----------------------------------------
 .byte   W96
@ 073   ----------------------------------------
 .byte   W96
@ 074   ----------------------------------------
 .byte   W96
@ 075   ----------------------------------------
 .byte   W96
@ 076   ----------------------------------------
 .byte   W96
@ 077   ----------------------------------------
 .byte   W96
@ 078   ----------------------------------------
 .byte   W96
@ 079   ----------------------------------------
 .byte   W96
@ 080   ----------------------------------------
 .byte   W96
@ 081   ----------------------------------------
 .byte   W96
@ 082   ----------------------------------------
 .byte   W96
@ 083   ----------------------------------------
 .byte   W96
@ 084   ----------------------------------------
 .byte   W96
@ 085   ----------------------------------------
 .byte   W96
 .byte   PATT
  .word Label_9_018C4761
 .byte   PATT
  .word Label_9_018C476C
 .byte   PATT
  .word Label_9_018C4777
 .byte   PATT
  .word Label_9_018C4782
@ 086   ----------------------------------------
 .byte   W24
 .byte   GOTO
  .word Label_9_018C4732
 .byte   FINE

@**************** Track 11 (Midi-Chn.10) ****************@

songDB_011:
@ 000   ----------------------------------------
 .byte   KEYSH , songDB_key+0
Label_10_018C47D2:
 .byte   VOICE , 100
 .byte   VOL , 80*songDB_mvl/mxv
 .byte   W96
@ 001   ----------------------------------------
 .byte   W96
@ 002   ----------------------------------------
 .byte   W96
@ 003   ----------------------------------------
 .byte   W96
@ 004   ----------------------------------------
 .byte   W96
@ 005   ----------------------------------------
 .byte   W96
@ 006   ----------------------------------------
 .byte   W96
@ 007   ----------------------------------------
 .byte   W96
@ 008   ----------------------------------------
 .byte   W96
@ 009   ----------------------------------------
 .byte   W96
@ 010   ----------------------------------------
 .byte   W96
@ 011   ----------------------------------------
 .byte   W96
@ 012   ----------------------------------------
 .byte   W96
@ 013   ----------------------------------------
 .byte   W96
@ 014   ----------------------------------------
 .byte   W96
@ 015   ----------------------------------------
 .byte   W96
@ 016   ----------------------------------------
 .byte   W96
@ 017   ----------------------------------------
 .byte   W96
@ 018   ----------------------------------------
 .byte   W96
@ 019   ----------------------------------------
 .byte   W96
@ 020   ----------------------------------------
 .byte   W96
@ 021   ----------------------------------------
 .byte   W96
@ 022   ----------------------------------------
 .byte   W96
@ 023   ----------------------------------------
 .byte   W96
@ 024   ----------------------------------------
 .byte   W96
@ 025   ----------------------------------------
 .byte   W96
@ 026   ----------------------------------------
 .byte   W96
@ 027   ----------------------------------------
 .byte   W96
@ 028   ----------------------------------------
 .byte   W96
@ 029   ----------------------------------------
 .byte   W96
@ 030   ----------------------------------------
 .byte   W96
@ 031   ----------------------------------------
 .byte   W96
@ 032   ----------------------------------------
 .byte   W96
@ 033   ----------------------------------------
 .byte   W96
@ 034   ----------------------------------------
 .byte   W96
@ 035   ----------------------------------------
 .byte   W96
@ 036   ----------------------------------------
 .byte   W96
@ 037   ----------------------------------------
 .byte   W96
@ 038   ----------------------------------------
 .byte   W96
@ 039   ----------------------------------------
Label_10_018C47FD:
 .byte   N24 ,Cn3 ,v127
 .byte   W24
 .byte   Ds3
 .byte   W24
 .byte   Gn3
 .byte   W24
 .byte   Cn4
 .byte   W24
 .byte   PEND 
@ 040   ----------------------------------------
Label_10_018C4808:
 .byte   N24 ,Ds4 ,v127
 .byte   W24
 .byte   Gn4
 .byte   W24
 .byte   Gs4
 .byte   W24
 .byte   Ds4
 .byte   W24
 .byte   PEND 
@ 041   ----------------------------------------
Label_10_018C4813:
 .byte   N24 ,Cn4 ,v127
 .byte   W24
 .byte   Gn3
 .byte   W24
 .byte   Ds3
 .byte   W24
 .byte   Dn3
 .byte   W24
 .byte   PEND 
@ 042   ----------------------------------------
Label_10_018C481E:
 .byte   N24 ,Cn3 ,v127
 .byte   W24
 .byte   Gn3
 .byte   W24
 .byte   Fs3
 .byte   W24
 .byte   Cs3
 .byte   W24
 .byte   PEND 
@ 043   ----------------------------------------
 .byte   W96
@ 044   ----------------------------------------
 .byte   W96
@ 045   ----------------------------------------
 .byte   W96
@ 046   ----------------------------------------
 .byte   W96
@ 047   ----------------------------------------
 .byte   W96
@ 048   ----------------------------------------
 .byte   W96
@ 049   ----------------------------------------
 .byte   W96
@ 050   ----------------------------------------
 .byte   W96
@ 051   ----------------------------------------
 .byte   W96
@ 052   ----------------------------------------
 .byte   W96
@ 053   ----------------------------------------
 .byte   W96
@ 054   ----------------------------------------
 .byte   W96
@ 055   ----------------------------------------
 .byte   W96
@ 056   ----------------------------------------
 .byte   W96
@ 057   ----------------------------------------
 .byte   W96
@ 058   ----------------------------------------
 .byte   W96
@ 059   ----------------------------------------
 .byte   W96
@ 060   ----------------------------------------
 .byte   W96
@ 061   ----------------------------------------
 .byte   W96
@ 062   ----------------------------------------
 .byte   W96
@ 063   ----------------------------------------
 .byte   W96
@ 064   ----------------------------------------
 .byte   W96
@ 065   ----------------------------------------
 .byte   W96
@ 066   ----------------------------------------
 .byte   W96
@ 067   ----------------------------------------
 .byte   W96
@ 068   ----------------------------------------
 .byte   W96
@ 069   ----------------------------------------
 .byte   W96
@ 070   ----------------------------------------
 .byte   W96
@ 071   ----------------------------------------
 .byte   W96
@ 072   ----------------------------------------
 .byte   W96
@ 073   ----------------------------------------
 .byte   W96
@ 074   ----------------------------------------
 .byte   W96
@ 075   ----------------------------------------
 .byte   W96
@ 076   ----------------------------------------
 .byte   W96
@ 077   ----------------------------------------
 .byte   W96
@ 078   ----------------------------------------
 .byte   W96
@ 079   ----------------------------------------
 .byte   W96
@ 080   ----------------------------------------
 .byte   W96
@ 081   ----------------------------------------
 .byte   W96
 .byte   PATT
  .word Label_10_018C47FD
 .byte   PATT
  .word Label_10_018C4808
 .byte   PATT
  .word Label_10_018C4813
 .byte   PATT
  .word Label_10_018C481E
@ 082   ----------------------------------------
 .byte   W96
@ 083   ----------------------------------------
 .byte   W96
@ 084   ----------------------------------------
 .byte   W96
@ 085   ----------------------------------------
 .byte   W96
@ 086   ----------------------------------------
 .byte   W24
 .byte   GOTO
  .word Label_10_018C47D2
 .byte   FINE

@******************************************************@
	.align	2

songDB:
	.byte	11	@ NumTrks
	.byte	0	@ NumBlks
	.byte	songDB_pri	@ Priority
	.byte	songDB_rev	@ Reverb.
    
	.word	songDB_grp
    
	.word	songDB_001
	.word	songDB_002
	.word	songDB_003
	.word	songDB_004
	.word	songDB_005
	.word	songDB_006
	.word	songDB_007
	.word	songDB_008
	.word	songDB_009
	.word	songDB_010
	.word	songDB_011

	.end
