	.include "MPlayDef.s"

	.equ	song02_grp, voicegroup000
	.equ	song02_pri, 0
	.equ	song02_rev, 0
	.equ	song02_mvl, 127
	.equ	song02_key, 0
	.equ	song02_tbs, 1
	.equ	song02_exg, 0
	.equ	song02_cmp, 1

	.section .rodata
	.global	song02
	.align	2


@**************** Track 1 (Midi-Chn.0) ****************@

song02_001:
@ 000   ----------------------------------------
 .byte   KEYSH , song02_key+0
Label_0_5462B2:
 .byte   TEMPO , 160*song02_tbs/2
 .byte   VOICE , 45
 .byte   VOL , 78*song02_mvl/mxv
 .byte   PAN , c_v+0
 .byte   W96
@ 001   ----------------------------------------
 .byte   W96
@ 002   ----------------------------------------
 .byte   W96
@ 003   ----------------------------------------
 .byte   W96
@ 004   ----------------------------------------
 .byte   W96
@ 005   ----------------------------------------
Label_0_5462BF:
 .byte   W24
 .byte   N23 ,As3 ,v080
 .byte   W24
 .byte   Gs3
 .byte   W24
 .byte   En3
 .byte   W24
 .byte   PEND 
@ 006   ----------------------------------------
Label_0_5462C9:
 .byte   N68 ,Ds3 ,v080
 .byte   W04
 .byte   W02
 .byte   W03
 .byte   W02
 .byte   W02
 .byte   W03
 .byte   W02
 .byte   W02
 .byte   W03
 .byte   W02
 .byte   W02
 .byte   W02
 .byte   W03
 .byte   W02
 .byte   W02
 .byte   W03
 .byte   W02
 .byte   W02
 .byte   W03
 .byte   W02
 .byte   W02
 .byte   W02
 .byte   W03
 .byte   W02
 .byte   W02
 .byte   W03
 .byte   W02
 .byte   W02
 .byte   W03
 .byte   W02
 .byte   W24
 .byte   W01
 .byte   PEND 
@ 007   ----------------------------------------
 .byte   W96
@ 008   ----------------------------------------
 .byte   W96
@ 009   ----------------------------------------
 .byte   W96
@ 010   ----------------------------------------
 .byte   W96
@ 011   ----------------------------------------
 .byte   W96
@ 012   ----------------------------------------
 .byte   W96
@ 013   ----------------------------------------
 .byte   W96
@ 014   ----------------------------------------
 .byte   W96
@ 015   ----------------------------------------
 .byte   W96
@ 016   ----------------------------------------
 .byte   W96
@ 017   ----------------------------------------
 .byte   W96
@ 018   ----------------------------------------
 .byte   W96
@ 019   ----------------------------------------
 .byte   W96
@ 020   ----------------------------------------
 .byte   W96
@ 021   ----------------------------------------
 .byte   PATT
  .word Label_0_5462BF
@ 022   ----------------------------------------
 .byte   PATT
  .word Label_0_5462C9
@ 023   ----------------------------------------
 .byte   W96
@ 024   ----------------------------------------
 .byte   W96
@ 025   ----------------------------------------
 .byte   W96
@ 026   ----------------------------------------
 .byte   W96
@ 027   ----------------------------------------
 .byte   W96
@ 028   ----------------------------------------
 .byte   W96
@ 029   ----------------------------------------
 .byte   W96
@ 030   ----------------------------------------
 .byte   W96
@ 031   ----------------------------------------
 .byte   W96
@ 032   ----------------------------------------
 .byte   W96
@ 033   ----------------------------------------
 .byte   W96
@ 034   ----------------------------------------
 .byte   W96
@ 035   ----------------------------------------
 .byte   W96
@ 036   ----------------------------------------
 .byte   W96
@ 037   ----------------------------------------
 .byte   W96
@ 038   ----------------------------------------
 .byte   W96
@ 039   ----------------------------------------
 .byte   W96
@ 040   ----------------------------------------
 .byte   W96
@ 041   ----------------------------------------
 .byte   W96
@ 042   ----------------------------------------
 .byte   W96
@ 043   ----------------------------------------
 .byte   W96
@ 044   ----------------------------------------
 .byte   W96
@ 045   ----------------------------------------
 .byte   W96
@ 046   ----------------------------------------
 .byte   W96
@ 047   ----------------------------------------
 .byte   W96
@ 048   ----------------------------------------
 .byte   W96
@ 049   ----------------------------------------
 .byte   W96
@ 050   ----------------------------------------
 .byte   W96
@ 051   ----------------------------------------
 .byte   W96
@ 052   ----------------------------------------
 .byte   W96
@ 053   ----------------------------------------
 .byte   W96
@ 054   ----------------------------------------
 .byte   W96
@ 055   ----------------------------------------
Label_0_546325:
 .byte   N44 ,Bn3 ,v064
 .byte   W48
 .byte   N23 ,Gs3
 .byte   W24
 .byte   Bn3
 .byte   W24
 .byte   PEND 
@ 056   ----------------------------------------
 .byte   N44 ,As3
 .byte   W96
@ 057   ----------------------------------------
Label_0_546332:
 .byte   N44 ,Bn3 ,v064
 .byte   W48
 .byte   N23 ,Cs4
 .byte   W24
 .byte   Bn3
 .byte   W24
 .byte   PEND 
@ 058   ----------------------------------------
 .byte   N44 ,As3
 .byte   W96
@ 059   ----------------------------------------
Label_0_54633F:
 .byte   N11 ,Gs3 ,v064
 .byte   W12
 .byte   As3
 .byte   W12
 .byte   Bn3
 .byte   W24
 .byte   N23
 .byte   W24
 .byte   Gs3
 .byte   W24
 .byte   PEND 
@ 060   ----------------------------------------
Label_0_54634C:
 .byte   N11 ,Cs4 ,v064
 .byte   W12
 .byte   Ds4
 .byte   W12
 .byte   En4
 .byte   W24
 .byte   N23
 .byte   W24
 .byte   Cs4
 .byte   W24
 .byte   PEND 
@ 061   ----------------------------------------
 .byte   TIE ,Ds4
 .byte   W96
@ 062   ----------------------------------------
 .byte   W92
 .byte   W03
 .byte   EOT
 .byte   W01
@ 063   ----------------------------------------
 .byte   PATT
  .word Label_0_546325
@ 064   ----------------------------------------
 .byte   N44 ,As3 ,v064
 .byte   W96
@ 065   ----------------------------------------
 .byte   PATT
  .word Label_0_546332
@ 066   ----------------------------------------
 .byte   N44 ,As3 ,v064
 .byte   W96
@ 067   ----------------------------------------
 .byte   PATT
  .word Label_0_54633F
@ 068   ----------------------------------------
 .byte   PATT
  .word Label_0_54634C
@ 069   ----------------------------------------
 .byte   TIE ,Ds4 ,v064
 .byte   W96
@ 070   ----------------------------------------
 .byte   W92
 .byte   W03
 .byte   EOT
 .byte   W01
@ 071   ----------------------------------------
 .byte   GOTO
  .word Label_0_5462B2
 .byte   FINE

@**************** Track 2 (Midi-Chn.1) ****************@

song02_002:
@ 000   ----------------------------------------
 .byte   KEYSH , song02_key+0
Label_1_54721E:
 .byte   VOICE , 68
 .byte   VOL , 78*song02_mvl/mxv
 .byte   PAN , c_v+0
 .byte   W96
@ 001   ----------------------------------------
 .byte   W96
@ 002   ----------------------------------------
 .byte   W96
@ 003   ----------------------------------------
 .byte   W96
@ 004   ----------------------------------------
 .byte   W96
@ 005   ----------------------------------------
 .byte   W96
@ 006   ----------------------------------------
 .byte   W96
@ 007   ----------------------------------------
 .byte   W96
@ 008   ----------------------------------------
 .byte   W96
@ 009   ----------------------------------------
Label_1_54722D:
 .byte   N23 ,Ds3 ,v080
 .byte   W24
 .byte   En3
 .byte   W24
 .byte   N15 ,Ds3
 .byte   W16
 .byte   N11 ,En3
 .byte   W24
 .byte   N54 ,Ds3
 .byte   W08
 .byte   PEND 
@ 010   ----------------------------------------
 .byte   W48
 .byte   N44 ,Gn3
 .byte   W48
@ 011   ----------------------------------------
Label_1_547241:
 .byte   N44 ,Gs3 ,v080
 .byte   W06
 .byte   W06
 .byte   W06
 .byte   W06
 .byte   W06
 .byte   W06
 .byte   W06
 .byte   W06
 .byte   Ds3 ,v072
 .byte   W06
 .byte   W06
 .byte   W06
 .byte   W06
 .byte   W06
 .byte   W06
 .byte   W06
 .byte   W06
 .byte   PEND 
@ 012   ----------------------------------------
 .byte   N92 ,Cs3 ,v064
 .byte   W96
@ 013   ----------------------------------------
 .byte   N44 ,En3 ,v080
 .byte   W48
 .byte   Fs3
 .byte   W48
@ 014   ----------------------------------------
Label_1_547261:
 .byte   N44 ,Gs3 ,v080
 .byte   W48
 .byte   Bn3
 .byte   W48
 .byte   PEND 
@ 015   ----------------------------------------
 .byte   N92 ,As3
 .byte   W96
@ 016   ----------------------------------------
 .byte   W96
@ 017   ----------------------------------------
 .byte   W96
@ 018   ----------------------------------------
 .byte   W96
@ 019   ----------------------------------------
 .byte   W96
@ 020   ----------------------------------------
 .byte   W96
@ 021   ----------------------------------------
 .byte   W96
@ 022   ----------------------------------------
 .byte   W96
@ 023   ----------------------------------------
 .byte   W96
@ 024   ----------------------------------------
 .byte   W96
@ 025   ----------------------------------------
 .byte   PATT
  .word Label_1_54722D
@ 026   ----------------------------------------
 .byte   W48
 .byte   N44 ,Gn3 ,v080
 .byte   W48
@ 027   ----------------------------------------
 .byte   PATT
  .word Label_1_547241
@ 028   ----------------------------------------
 .byte   N92 ,Cs3 ,v064
 .byte   W96
@ 029   ----------------------------------------
 .byte   N44 ,En3 ,v080
 .byte   W48
 .byte   Fs3
 .byte   W48
@ 030   ----------------------------------------
 .byte   PATT
  .word Label_1_547261
@ 031   ----------------------------------------
 .byte   N92 ,As3 ,v080
 .byte   W96
@ 032   ----------------------------------------
 .byte   W96
@ 033   ----------------------------------------
 .byte   W96
@ 034   ----------------------------------------
 .byte   W96
@ 035   ----------------------------------------
 .byte   W96
@ 036   ----------------------------------------
 .byte   W96
@ 037   ----------------------------------------
 .byte   Gs3 ,v064
 .byte   W96
@ 038   ----------------------------------------
 .byte   Fs3
 .byte   W96
@ 039   ----------------------------------------
 .byte   En3
 .byte   W96
@ 040   ----------------------------------------
 .byte   W96
@ 041   ----------------------------------------
 .byte   Gs3
 .byte   W96
@ 042   ----------------------------------------
 .byte   Fs3
 .byte   W96
@ 043   ----------------------------------------
 .byte   En3
 .byte   W96
@ 044   ----------------------------------------
 .byte   W96
@ 045   ----------------------------------------
 .byte   Gs3
 .byte   W96
@ 046   ----------------------------------------
 .byte   Fs3
 .byte   W96
@ 047   ----------------------------------------
 .byte   En3
 .byte   W96
@ 048   ----------------------------------------
 .byte   W96
@ 049   ----------------------------------------
 .byte   N92
 .byte   W96
@ 050   ----------------------------------------
 .byte   W96
@ 051   ----------------------------------------
 .byte   W96
@ 052   ----------------------------------------
 .byte   W96
@ 053   ----------------------------------------
 .byte   W96
@ 054   ----------------------------------------
 .byte   W96
@ 055   ----------------------------------------
 .byte   W96
@ 056   ----------------------------------------
 .byte   W96
@ 057   ----------------------------------------
 .byte   W96
@ 058   ----------------------------------------
 .byte   W96
@ 059   ----------------------------------------
 .byte   W96
@ 060   ----------------------------------------
 .byte   W96
@ 061   ----------------------------------------
 .byte   W96
@ 062   ----------------------------------------
 .byte   W96
@ 063   ----------------------------------------
 .byte   W96
@ 064   ----------------------------------------
 .byte   W96
@ 065   ----------------------------------------
 .byte   W96
@ 066   ----------------------------------------
 .byte   W96
@ 067   ----------------------------------------
 .byte   W96
@ 068   ----------------------------------------
 .byte   W96
@ 069   ----------------------------------------
 .byte   W96
@ 070   ----------------------------------------
 .byte   W96
@ 071   ----------------------------------------
 .byte   GOTO
  .word Label_1_54721E
 .byte   FINE

@**************** Track 3 (Midi-Chn.2) ****************@

song02_003:
@ 000   ----------------------------------------
 .byte   KEYSH , song02_key+0
Label_2_5463A2:
 .byte   VOICE , 52
 .byte   VOL , 78*song02_mvl/mxv
 .byte   PAN , c_v+0
 .byte   W96
@ 001   ----------------------------------------
 .byte   W96
@ 002   ----------------------------------------
 .byte   W96
@ 003   ----------------------------------------
 .byte   W96
@ 004   ----------------------------------------
 .byte   W96
@ 005   ----------------------------------------
 .byte   W96
@ 006   ----------------------------------------
 .byte   W96
@ 007   ----------------------------------------
 .byte   W96
@ 008   ----------------------------------------
 .byte   W96
@ 009   ----------------------------------------
 .byte   W96
@ 010   ----------------------------------------
 .byte   W96
@ 011   ----------------------------------------
 .byte   W96
@ 012   ----------------------------------------
 .byte   W96
@ 013   ----------------------------------------
 .byte   W96
@ 014   ----------------------------------------
 .byte   W96
@ 015   ----------------------------------------
 .byte   W96
@ 016   ----------------------------------------
 .byte   W96
@ 017   ----------------------------------------
Label_2_5463B9:
 .byte   N72 ,Ds4 ,v080
 .byte   W72
 .byte   W03
 .byte   N02 ,Dn4
 .byte   W03
 .byte   N02
 .byte   W03
 .byte   N02
 .byte   W03
 .byte   Cs4
 .byte   W03
 .byte   Cn4
 .byte   W03
 .byte   N02
 .byte   W03
 .byte   N02
 .byte   W03
 .byte   PEND 
@ 018   ----------------------------------------
Label_2_5463CE:
 .byte   N72 ,Bn3 ,v080
 .byte   W76
 .byte   N03
 .byte   W04
 .byte   Cn4
 .byte   W04
 .byte   Bn3
 .byte   W04
 .byte   Cs4
 .byte   W04
 .byte   Cn4
 .byte   W04
 .byte   PEND 
@ 019   ----------------------------------------
 .byte   TIE ,Dn4
 .byte   W96
@ 020   ----------------------------------------
 .byte   W23
 .byte   EOT
 .byte   W72
 .byte   W01
@ 021   ----------------------------------------
 .byte   PATT
  .word Label_2_5463B9
@ 022   ----------------------------------------
 .byte   PATT
  .word Label_2_5463CE
@ 023   ----------------------------------------
 .byte   TIE ,Dn4 ,v080
 .byte   W96
@ 024   ----------------------------------------
 .byte   W23
 .byte   EOT
 .byte   W72
 .byte   W01
@ 025   ----------------------------------------
 .byte   W96
@ 026   ----------------------------------------
 .byte   W96
@ 027   ----------------------------------------
 .byte   W96
@ 028   ----------------------------------------
 .byte   W96
@ 029   ----------------------------------------
 .byte   W96
@ 030   ----------------------------------------
 .byte   W96
@ 031   ----------------------------------------
 .byte   W96
@ 032   ----------------------------------------
 .byte   W96
@ 033   ----------------------------------------
 .byte   W96
@ 034   ----------------------------------------
 .byte   W96
@ 035   ----------------------------------------
 .byte   W96
@ 036   ----------------------------------------
 .byte   W96
@ 037   ----------------------------------------
 .byte   W96
@ 038   ----------------------------------------
 .byte   W96
@ 039   ----------------------------------------
 .byte   W96
@ 040   ----------------------------------------
 .byte   W96
@ 041   ----------------------------------------
 .byte   W96
@ 042   ----------------------------------------
 .byte   W96
@ 043   ----------------------------------------
 .byte   W96
@ 044   ----------------------------------------
 .byte   W96
@ 045   ----------------------------------------
 .byte   W96
@ 046   ----------------------------------------
 .byte   W96
@ 047   ----------------------------------------
 .byte   W96
@ 048   ----------------------------------------
 .byte   W96
@ 049   ----------------------------------------
 .byte   W96
@ 050   ----------------------------------------
 .byte   W96
@ 051   ----------------------------------------
 .byte   W96
@ 052   ----------------------------------------
 .byte   W96
@ 053   ----------------------------------------
 .byte   W96
@ 054   ----------------------------------------
 .byte   W96
@ 055   ----------------------------------------
 .byte   W96
@ 056   ----------------------------------------
 .byte   W96
@ 057   ----------------------------------------
 .byte   W96
@ 058   ----------------------------------------
 .byte   W96
@ 059   ----------------------------------------
 .byte   W96
@ 060   ----------------------------------------
 .byte   W96
@ 061   ----------------------------------------
 .byte   W96
@ 062   ----------------------------------------
 .byte   W96
@ 063   ----------------------------------------
 .byte   W96
@ 064   ----------------------------------------
 .byte   W96
@ 065   ----------------------------------------
 .byte   W96
@ 066   ----------------------------------------
 .byte   W96
@ 067   ----------------------------------------
 .byte   W96
@ 068   ----------------------------------------
 .byte   W96
@ 069   ----------------------------------------
 .byte   W96
@ 070   ----------------------------------------
 .byte   W96
@ 071   ----------------------------------------
 .byte   GOTO
  .word Label_2_5463A2
 .byte   FINE

@**************** Track 4 (Midi-Chn.3) ****************@

song02_004:
@ 000   ----------------------------------------
 .byte   KEYSH , song02_key+0
Label_3_15E022:
 .byte   VOICE , 0
 .byte   VOL , 78*song02_mvl/mxv
 .byte   PAN , c_v+0
 .byte   W18
 .byte   N05 ,Gn3 ,v080
 .byte   W06
 .byte   Gs3
 .byte   W18
 .byte   As3
 .byte   W06
 .byte   Bn3
 .byte   W18
 .byte   Cs4
 .byte   W06
 .byte   Ds4
 .byte   W18
 .byte   En4
 .byte   W06
@ 001   ----------------------------------------
 .byte   N44 ,Ds4
 .byte   W96
@ 002   ----------------------------------------
Label_3_15E03C:
 .byte   W18
 .byte   N05 ,Ds4 ,v080
 .byte   W06
 .byte   Dn4
 .byte   W18
 .byte   Ds4
 .byte   W06
 .byte   Dn4
 .byte   W18
 .byte   Ds4
 .byte   W06
 .byte   Dn4
 .byte   W18
 .byte   Ds4
 .byte   W06
 .byte   PEND 
@ 003   ----------------------------------------
Label_3_15E04E:
 .byte   N32 ,Bn3 ,v080
 .byte   W36
 .byte   Gs3
 .byte   W60
 .byte   PEND 
@ 004   ----------------------------------------
Label_3_15E055:
 .byte   W18
 .byte   N05 ,Gn3 ,v080
 .byte   W06
 .byte   Gs3
 .byte   W18
 .byte   As3
 .byte   W06
 .byte   Bn3
 .byte   W18
 .byte   Cs4
 .byte   W06
 .byte   Ds4
 .byte   W18
 .byte   En4
 .byte   W06
 .byte   PEND 
@ 005   ----------------------------------------
 .byte   N44 ,Ds4
 .byte   W96
@ 006   ----------------------------------------
Label_3_15E06A:
 .byte   W18
 .byte   N05 ,Gs4 ,v080
 .byte   W06
 .byte   Fs4
 .byte   W18
 .byte   Ds4
 .byte   W06
 .byte   Cs4
 .byte   W18
 .byte   Fs4
 .byte   W06
 .byte   Ds4
 .byte   W18
 .byte   Bn3
 .byte   W06
 .byte   PEND 
@ 007   ----------------------------------------
 .byte   N44 ,Gs3
 .byte   W96
@ 008   ----------------------------------------
Label_3_15E07F:
 .byte   W24
 .byte   N05 ,Gs3 ,v080
 .byte   W18
 .byte   As3
 .byte   W06
 .byte   Bn3
 .byte   W18
 .byte   Cs4
 .byte   W06
 .byte   Ds4
 .byte   W18
 .byte   En4
 .byte   W06
 .byte   PEND 
@ 009   ----------------------------------------
Label_3_15E08F:
 .byte   N11 ,Cs1 ,v080
 .byte   N22 ,Ds4
 .byte   W24
 .byte   N11 ,En1
 .byte   N11 ,Gs1
 .byte   N22 ,En4
 .byte   W24
 .byte   N11 ,Gs0
 .byte   N15 ,Ds4
 .byte   W16
 .byte   N11 ,En4
 .byte   W08
 .byte   En1
 .byte   N11 ,Gs1
 .byte   W16
 .byte   N30 ,Ds4
 .byte   W08
 .byte   PEND 
@ 010   ----------------------------------------
Label_3_15E0AC:
 .byte   N11 ,Ds1 ,v080
 .byte   W24
 .byte   Gn1
 .byte   N11 ,As1
 .byte   N22 ,Cs4
 .byte   W24
 .byte   N11 ,As0
 .byte   N22 ,Bn3
 .byte   W24
 .byte   N11 ,Gn1
 .byte   N11 ,As1
 .byte   N22 ,As3
 .byte   W24
 .byte   PEND 
@ 011   ----------------------------------------
Label_3_15E0C3:
 .byte   N11 ,Gs1 ,v080
 .byte   N22 ,Bn3
 .byte   W24
 .byte   N11 ,Bn1
 .byte   N11 ,Ds2
 .byte   N22 ,Cs4
 .byte   W24
 .byte   N11 ,Ds1
 .byte   N15 ,Ds4
 .byte   W16
 .byte   N11 ,Bn3
 .byte   W08
 .byte   Bn1
 .byte   N11 ,Ds2
 .byte   W16
 .byte   N52 ,Gs3
 .byte   W08
 .byte   PEND 
@ 012   ----------------------------------------
Label_3_15E0E0:
 .byte   N11 ,Fn1 ,v080
 .byte   W24
 .byte   Gs1
 .byte   N11 ,Cs2
 .byte   W24
 .byte   Cs1
 .byte   W24
 .byte   Gs1
 .byte   N11 ,Cs2
 .byte   W24
 .byte   PEND 
@ 013   ----------------------------------------
Label_3_15E0EF:
 .byte   N11 ,Cs2 ,v080
 .byte   N11 ,Bn2
 .byte   W24
 .byte   En2
 .byte   N11 ,Gs2
 .byte   N11 ,Bn2
 .byte   W24
 .byte   Bn1
 .byte   N11 ,Bn2
 .byte   W24
 .byte   En2
 .byte   N11 ,Gs2
 .byte   N11 ,Bn2
 .byte   W24
 .byte   PEND 
@ 014   ----------------------------------------
Label_3_15E106:
 .byte   N11 ,As1 ,v080
 .byte   N11 ,Bn2
 .byte   W24
 .byte   Cs2
 .byte   N11 ,En2
 .byte   N11 ,Gs2
 .byte   W24
 .byte   N15 ,As2
 .byte   W16
 .byte   N11 ,Bn2
 .byte   W08
 .byte   Cs2
 .byte   N11 ,En2
 .byte   W16
 .byte   N30 ,As2
 .byte   W08
 .byte   PEND 
@ 015   ----------------------------------------
Label_3_15E120:
 .byte   N22 ,Ds2 ,v080
 .byte   W24
 .byte   Ds1
 .byte   W24
 .byte   Gn1
 .byte   W24
 .byte   As1
 .byte   W24
 .byte   PEND 
@ 016   ----------------------------------------
 .byte   Ds2
 .byte   W24
 .byte   Cs2
 .byte   W24
 .byte   Bn1
 .byte   W24
 .byte   As1
 .byte   W24
@ 017   ----------------------------------------
 .byte   W96
@ 018   ----------------------------------------
 .byte   PATT
  .word Label_3_15E03C
@ 019   ----------------------------------------
 .byte   PATT
  .word Label_3_15E04E
@ 020   ----------------------------------------
 .byte   PATT
  .word Label_3_15E055
@ 021   ----------------------------------------
 .byte   N44 ,Ds4 ,v080
 .byte   W96
@ 022   ----------------------------------------
 .byte   PATT
  .word Label_3_15E06A
@ 023   ----------------------------------------
 .byte   N44 ,Gs3 ,v080
 .byte   W96
@ 024   ----------------------------------------
 .byte   PATT
  .word Label_3_15E07F
@ 025   ----------------------------------------
 .byte   PATT
  .word Label_3_15E08F
@ 026   ----------------------------------------
 .byte   PATT
  .word Label_3_15E0AC
@ 027   ----------------------------------------
 .byte   PATT
  .word Label_3_15E0C3
@ 028   ----------------------------------------
 .byte   PATT
  .word Label_3_15E0E0
@ 029   ----------------------------------------
 .byte   PATT
  .word Label_3_15E0EF
@ 030   ----------------------------------------
 .byte   PATT
  .word Label_3_15E106
@ 031   ----------------------------------------
 .byte   PATT
  .word Label_3_15E120
@ 032   ----------------------------------------
 .byte   N22 ,Ds2 ,v080
 .byte   N11 ,Ds4
 .byte   W04
 .byte   W02
 .byte   W03
 .byte   W04
 .byte   W01
 .byte   W04
 .byte   W04
 .byte   W02
 .byte   Ds4 ,v076
 .byte   W02
 .byte   W01
 .byte   W03
 .byte   W01
 .byte   W03
 .byte   W02
 .byte   W02
 .byte   W02
 .byte   W02
 .byte   W03
 .byte   W02
 .byte   W01
 .byte   Ds4 ,v072
 .byte   W01
 .byte   W02
 .byte   W03
 .byte   W01
 .byte   W03
 .byte   W01
 .byte   W04
 .byte   W04
 .byte   W04
 .byte   W01
 .byte   Ds4 ,v064
 .byte   W24
@ 033   ----------------------------------------
Label_3_15E1A2:
 .byte   N32 ,Cs3 ,v080
 .byte   N32 ,En3
 .byte   N32 ,Gs3
 .byte   N32 ,Bn3
 .byte   N11 ,En4
 .byte   W12
 .byte   Ds4
 .byte   W12
 .byte   En4
 .byte   W12
 .byte   N56 ,Fs2
 .byte   N56 ,As2
 .byte   N56 ,Cs3
 .byte   N56 ,Fs3
 .byte   N11 ,Fs4
 .byte   W12
 .byte   Gs4
 .byte   W12
 .byte   As4
 .byte   W12
 .byte   Bn4
 .byte   W12
 .byte   Gs4
 .byte   W12
 .byte   PEND 
@ 034   ----------------------------------------
Label_3_15E1C6:
 .byte   N32 ,Bn2 ,v080
 .byte   N32 ,Ds3
 .byte   N32 ,Fs3
 .byte   N32 ,As3
 .byte   N11 ,As4
 .byte   W12
 .byte   Fs4
 .byte   W12
 .byte   Ds4
 .byte   W12
 .byte   N56 ,En2
 .byte   N56 ,Gs2
 .byte   N56 ,Bn2
 .byte   N56 ,Ds3
 .byte   N11 ,Cs4
 .byte   W12
 .byte   Ds4
 .byte   W12
 .byte   N32 ,Fs4
 .byte   W36
 .byte   PEND 
@ 035   ----------------------------------------
Label_3_15E1E7:
 .byte   N32 ,As2 ,v080
 .byte   N32 ,Cs3
 .byte   N32 ,En3
 .byte   N32 ,Gs3
 .byte   N11 ,Gs4
 .byte   W12
 .byte   En4
 .byte   W12
 .byte   Cs4
 .byte   W12
 .byte   N56 ,Ds2
 .byte   N56 ,Gn2
 .byte   N56 ,As2
 .byte   N56 ,Cs3
 .byte   N11 ,Bn3
 .byte   W12
 .byte   As3
 .byte   W12
 .byte   Ds4
 .byte   W24
 .byte   As3
 .byte   W12
 .byte   PEND 
@ 036   ----------------------------------------
Label_3_15E209:
 .byte   N22 ,Gs2 ,v080
 .byte   N11 ,Bn3
 .byte   W12
 .byte   Gs3
 .byte   W12
 .byte   Ds2
 .byte   N11 ,Ds3
 .byte   W12
 .byte   N22 ,As2
 .byte   N32 ,Cs4
 .byte   W24
 .byte   N11 ,Ds2
 .byte   W12
 .byte   N22 ,Bn2
 .byte   N22 ,Ds4
 .byte   W24
 .byte   PEND 
@ 037   ----------------------------------------
 .byte   PATT
  .word Label_3_15E1A2
@ 038   ----------------------------------------
 .byte   PATT
  .word Label_3_15E1C6
@ 039   ----------------------------------------
 .byte   PATT
  .word Label_3_15E1E7
@ 040   ----------------------------------------
 .byte   PATT
  .word Label_3_15E209
@ 041   ----------------------------------------
 .byte   PATT
  .word Label_3_15E1A2
@ 042   ----------------------------------------
 .byte   PATT
  .word Label_3_15E1C6
@ 043   ----------------------------------------
 .byte   PATT
  .word Label_3_15E1E7
@ 044   ----------------------------------------
 .byte   PATT
  .word Label_3_15E209
@ 045   ----------------------------------------
 .byte   PATT
  .word Label_3_15E1A2
@ 046   ----------------------------------------
 .byte   PATT
  .word Label_3_15E1C6
@ 047   ----------------------------------------
 .byte   PATT
  .word Label_3_15E1E7
@ 048   ----------------------------------------
Label_3_15E25A:
 .byte   N11 ,Gs2 ,v080
 .byte   N11 ,Bn3
 .byte   W24
 .byte   Gs2
 .byte   N11 ,Bn3
 .byte   W24
 .byte   Gs2
 .byte   N11 ,Bn3
 .byte   W24
 .byte   Gs2
 .byte   N11 ,Bn3
 .byte   W24
 .byte   PEND 
@ 049   ----------------------------------------
 .byte   PATT
  .word Label_3_15E1E7
@ 050   ----------------------------------------
 .byte   PATT
  .word Label_3_15E25A
@ 051   ----------------------------------------
 .byte   N90 ,Gs0 ,v080
 .byte   W96
@ 052   ----------------------------------------
 .byte   W96
@ 053   ----------------------------------------
 .byte   W96
@ 054   ----------------------------------------
 .byte   W96
@ 055   ----------------------------------------
 .byte   W96
@ 056   ----------------------------------------
 .byte   W96
@ 057   ----------------------------------------
 .byte   W96
@ 058   ----------------------------------------
 .byte   W96
@ 059   ----------------------------------------
 .byte   W96
@ 060   ----------------------------------------
 .byte   W96
@ 061   ----------------------------------------
 .byte   W96
@ 062   ----------------------------------------
 .byte   W96
@ 063   ----------------------------------------
 .byte   W96
@ 064   ----------------------------------------
 .byte   W96
@ 065   ----------------------------------------
 .byte   W96
@ 066   ----------------------------------------
 .byte   W96
@ 067   ----------------------------------------
 .byte   W96
@ 068   ----------------------------------------
 .byte   W96
@ 069   ----------------------------------------
 .byte   W96
@ 070   ----------------------------------------
 .byte   W96
@ 071   ----------------------------------------
 .byte   GOTO
  .word Label_3_15E022
 .byte   FINE

@**************** Track 5 (Midi-Chn.4) ****************@

song02_005:
@ 000   ----------------------------------------
 .byte   KEYSH , song02_key+0
Label_4_5466C2:
 .byte   VOICE , 38
 .byte   VOL , 78*song02_mvl/mxv
 .byte   PAN , c_v+0
 .byte   W96
@ 001   ----------------------------------------
Label_4_5466C9:
 .byte   N11 ,Gs3 ,v096
 .byte   W24
 .byte   Bn3
 .byte   W24
 .byte   Ds4
 .byte   W24
 .byte   Bn3
 .byte   W24
 .byte   PEND 
@ 002   ----------------------------------------
 .byte   Gs3
 .byte   W96
@ 003   ----------------------------------------
Label_4_5466D6:
 .byte   N11 ,En3 ,v096
 .byte   W24
 .byte   Gs3
 .byte   W24
 .byte   Bn3
 .byte   W24
 .byte   Gs3
 .byte   W24
 .byte   PEND 
@ 004   ----------------------------------------
 .byte   En3
 .byte   W48
 .byte   Ds3
 .byte   W48
@ 005   ----------------------------------------
 .byte   PATT
  .word Label_4_5466C9
@ 006   ----------------------------------------
 .byte   N11 ,Gs3 ,v096
 .byte   W96
@ 007   ----------------------------------------
 .byte   PATT
  .word Label_4_5466D6
@ 008   ----------------------------------------
 .byte   N11 ,En3 ,v096
 .byte   W48
 .byte   Ds3
 .byte   W48
@ 009   ----------------------------------------
Label_4_5466F9:
 .byte   N11 ,Cs3 ,v096
 .byte   W24
 .byte   En3
 .byte   W24
 .byte   Gs3
 .byte   W24
 .byte   En3
 .byte   W24
 .byte   PEND 
@ 010   ----------------------------------------
Label_4_546704:
 .byte   N11 ,Ds3 ,v096
 .byte   W24
 .byte   Gn3
 .byte   W24
 .byte   As3
 .byte   W24
 .byte   Ds3
 .byte   W24
 .byte   PEND 
@ 011   ----------------------------------------
Label_4_54670F:
 .byte   N11 ,Gs3 ,v096
 .byte   W48
 .byte   Ds3
 .byte   W48
 .byte   PEND 
@ 012   ----------------------------------------
 .byte   Gs2
 .byte   W96
@ 013   ----------------------------------------
Label_4_546718:
 .byte   N11 ,Bn3 ,v096
 .byte   W24
 .byte   N11
 .byte   W24
 .byte   Bn2
 .byte   W24
 .byte   Bn3
 .byte   W24
 .byte   PEND 
@ 014   ----------------------------------------
Label_4_546723:
 .byte   N11 ,En3 ,v096
 .byte   W48
 .byte   N15 ,Gs3
 .byte   W16
 .byte   N11 ,Bn3
 .byte   W24
 .byte   N19 ,As3
 .byte   W08
 .byte   PEND 
@ 015   ----------------------------------------
Label_4_546731:
 .byte   W24
 .byte   N11 ,As3 ,v096
 .byte   W24
 .byte   N11
 .byte   W24
 .byte   N11
 .byte   W24
 .byte   PEND 
@ 016   ----------------------------------------
 .byte   Ds4
 .byte   W24
 .byte   Cs4
 .byte   W24
 .byte   Bn3
 .byte   W24
 .byte   As3
 .byte   W24
@ 017   ----------------------------------------
 .byte   PATT
  .word Label_4_5466C9
@ 018   ----------------------------------------
 .byte   N11 ,Gs3 ,v096
 .byte   W96
@ 019   ----------------------------------------
 .byte   PATT
  .word Label_4_5466D6
@ 020   ----------------------------------------
 .byte   N11 ,En3 ,v096
 .byte   W48
 .byte   Ds3
 .byte   W48
@ 021   ----------------------------------------
 .byte   PATT
  .word Label_4_5466C9
@ 022   ----------------------------------------
 .byte   N11 ,Gs3 ,v096
 .byte   W96
@ 023   ----------------------------------------
 .byte   PATT
  .word Label_4_5466D6
@ 024   ----------------------------------------
 .byte   N11 ,En3 ,v096
 .byte   W48
 .byte   Ds3
 .byte   W48
@ 025   ----------------------------------------
 .byte   PATT
  .word Label_4_5466F9
@ 026   ----------------------------------------
 .byte   PATT
  .word Label_4_546704
@ 027   ----------------------------------------
 .byte   PATT
  .word Label_4_54670F
@ 028   ----------------------------------------
 .byte   N11 ,Gs2 ,v096
 .byte   W96
@ 029   ----------------------------------------
 .byte   PATT
  .word Label_4_546718
@ 030   ----------------------------------------
 .byte   PATT
  .word Label_4_546723
@ 031   ----------------------------------------
 .byte   PATT
  .word Label_4_546731
@ 032   ----------------------------------------
 .byte   N11 ,Ds4 ,v096
 .byte   W96
@ 033   ----------------------------------------
 .byte   W96
@ 034   ----------------------------------------
 .byte   W96
@ 035   ----------------------------------------
 .byte   W96
@ 036   ----------------------------------------
 .byte   W96
@ 037   ----------------------------------------
 .byte   W96
@ 038   ----------------------------------------
 .byte   W96
@ 039   ----------------------------------------
 .byte   W96
@ 040   ----------------------------------------
 .byte   W96
@ 041   ----------------------------------------
 .byte   W96
@ 042   ----------------------------------------
 .byte   W96
@ 043   ----------------------------------------
 .byte   W96
@ 044   ----------------------------------------
 .byte   W96
@ 045   ----------------------------------------
 .byte   W96
@ 046   ----------------------------------------
 .byte   W96
@ 047   ----------------------------------------
 .byte   W96
@ 048   ----------------------------------------
 .byte   W96
@ 049   ----------------------------------------
 .byte   W96
@ 050   ----------------------------------------
 .byte   W96
@ 051   ----------------------------------------
Label_4_5467A3:
 .byte   N05 ,Gs3 ,v096
 .byte   W12
 .byte   Bn3
 .byte   W12
 .byte   Dn4
 .byte   W12
 .byte   Ds4
 .byte   W12
 .byte   En4
 .byte   W12
 .byte   Ds4
 .byte   W12
 .byte   Bn3
 .byte   W12
 .byte   Gs3
 .byte   W12
 .byte   PEND 
@ 052   ----------------------------------------
Label_4_5467B6:
 .byte   N05 ,Gs3 ,v096
 .byte   W12
 .byte   Gs3 ,v052
 .byte   W06
 .byte   W06
 .byte   N03 ,Gs3 ,v072
 .byte   W02
 .byte   W01
 .byte   W01
 .byte   W01
 .byte   W01
 .byte   W04
 .byte   W02
 .byte   N05 ,Gs3 ,v044
 .byte   W02
 .byte   W04
 .byte   W04
 .byte   W02
 .byte   N03 ,Gs3 ,v064
 .byte   W02
 .byte   W01
 .byte   W01
 .byte   W01
 .byte   W01
 .byte   W05
 .byte   W01
 .byte   N05 ,Gs3 ,v040
 .byte   W03
 .byte   W04
 .byte   W04
 .byte   W01
 .byte   N03 ,Gs3 ,v056
 .byte   W03
 .byte   W01
 .byte   W01
 .byte   W02
 .byte   W04
 .byte   W01
 .byte   N05 ,Gs3 ,v036
 .byte   W12
 .byte   PEND 
@ 053   ----------------------------------------
 .byte   PATT
  .word Label_4_5467A3
@ 054   ----------------------------------------
 .byte   PATT
  .word Label_4_5467B6
@ 055   ----------------------------------------
 .byte   PATT
  .word Label_4_5467A3
@ 056   ----------------------------------------
Label_4_5467FD:
 .byte   N05 ,As3 ,v096
 .byte   W12
 .byte   As3 ,v052
 .byte   W06
 .byte   W06
 .byte   N03 ,As3 ,v072
 .byte   W02
 .byte   W01
 .byte   W01
 .byte   W01
 .byte   W01
 .byte   W04
 .byte   W02
 .byte   N05 ,As3 ,v044
 .byte   W02
 .byte   W04
 .byte   W04
 .byte   W02
 .byte   N03 ,As3 ,v064
 .byte   W02
 .byte   W01
 .byte   W01
 .byte   W01
 .byte   W01
 .byte   W05
 .byte   W01
 .byte   N05 ,As3 ,v040
 .byte   W03
 .byte   W04
 .byte   W04
 .byte   W01
 .byte   N03 ,As3 ,v056
 .byte   W03
 .byte   W01
 .byte   W01
 .byte   W02
 .byte   W04
 .byte   W01
 .byte   N05 ,As3 ,v036
 .byte   W12
 .byte   PEND 
@ 057   ----------------------------------------
 .byte   PATT
  .word Label_4_5467A3
@ 058   ----------------------------------------
 .byte   PATT
  .word Label_4_5467FD
@ 059   ----------------------------------------
Label_4_54683F:
 .byte   N05 ,Gs3 ,v096
 .byte   W12
 .byte   Gs3 ,v052
 .byte   W12
 .byte   N05
 .byte   W12
 .byte   N05
 .byte   W12
 .byte   Ds3 ,v096
 .byte   W12
 .byte   Ds3 ,v052
 .byte   W12
 .byte   N05
 .byte   W12
 .byte   N05
 .byte   W12
 .byte   PEND 
@ 060   ----------------------------------------
Label_4_546855:
 .byte   N05 ,Cs3 ,v096
 .byte   W12
 .byte   Cs3 ,v052
 .byte   W12
 .byte   N05
 .byte   W12
 .byte   N05
 .byte   W12
 .byte   Gs3 ,v096
 .byte   W12
 .byte   Gs3 ,v052
 .byte   W12
 .byte   N05
 .byte   W12
 .byte   N05
 .byte   W12
 .byte   PEND 
@ 061   ----------------------------------------
Label_4_54686B:
 .byte   N11 ,Ds3 ,v096
 .byte   W24
 .byte   N11
 .byte   W24
 .byte   Ds4
 .byte   W24
 .byte   N11
 .byte   W24
 .byte   PEND 
@ 062   ----------------------------------------
 .byte   PATT
  .word Label_4_54686B
@ 063   ----------------------------------------
 .byte   PATT
  .word Label_4_5467A3
@ 064   ----------------------------------------
 .byte   PATT
  .word Label_4_5467FD
@ 065   ----------------------------------------
 .byte   PATT
  .word Label_4_5467A3
@ 066   ----------------------------------------
 .byte   PATT
  .word Label_4_5467FD
@ 067   ----------------------------------------
 .byte   PATT
  .word Label_4_54683F
@ 068   ----------------------------------------
 .byte   PATT
  .word Label_4_546855
@ 069   ----------------------------------------
 .byte   PATT
  .word Label_4_54686B
@ 070   ----------------------------------------
 .byte   PATT
  .word Label_4_54686B
@ 071   ----------------------------------------
 .byte   GOTO
  .word Label_4_5466C2
 .byte   FINE

@**************** Track 6 (Midi-Chn.5) ****************@

song02_006:
@ 000   ----------------------------------------
 .byte   KEYSH , song02_key+0
Label_5_546E4E:
 .byte   VOICE , 46
 .byte   VOL , 78*song02_mvl/mxv
 .byte   PAN , c_v+0
 .byte   W96
@ 001   ----------------------------------------
Label_5_546E55:
 .byte   N11 ,Gs0 ,v080
 .byte   W12
 .byte   N11
 .byte   N11 ,Gs3
 .byte   W12
 .byte   Bn0
 .byte   W12
 .byte   Gs0
 .byte   N11 ,Bn3
 .byte   W12
 .byte   Cs1
 .byte   W12
 .byte   Ds0
 .byte   N11 ,Ds4
 .byte   W12
 .byte   Fs0
 .byte   W12
 .byte   Gn0
 .byte   N11 ,Bn3
 .byte   W12
 .byte   PEND 
@ 002   ----------------------------------------
Label_5_546E70:
 .byte   N11 ,Gs0 ,v080
 .byte   W12
 .byte   N11
 .byte   N11 ,Gs3
 .byte   W12
 .byte   Bn0
 .byte   W12
 .byte   Gs0
 .byte   N11 ,Gs3
 .byte   W12
 .byte   Cs1
 .byte   W12
 .byte   Dn1
 .byte   W12
 .byte   Cs1
 .byte   W12
 .byte   Bn0
 .byte   W12
 .byte   PEND 
@ 003   ----------------------------------------
Label_5_546E87:
 .byte   N11 ,En0 ,v080
 .byte   W12
 .byte   N11
 .byte   N11 ,Gs3
 .byte   W12
 .byte   Gs0
 .byte   W12
 .byte   En0
 .byte   N11 ,Bn3
 .byte   W12
 .byte   Cs1
 .byte   W12
 .byte   Dn1
 .byte   N11 ,Ds4
 .byte   W12
 .byte   Cs1
 .byte   W12
 .byte   Bn0
 .byte   N11 ,Bn3
 .byte   W12
 .byte   PEND 
@ 004   ----------------------------------------
Label_5_546EA2:
 .byte   N11 ,En0 ,v080
 .byte   W12
 .byte   N11
 .byte   W12
 .byte   Gs0
 .byte   W12
 .byte   Bn0
 .byte   W12
 .byte   Ds0
 .byte   W12
 .byte   N11
 .byte   W12
 .byte   Gn0
 .byte   W12
 .byte   As0
 .byte   W12
 .byte   PEND 
@ 005   ----------------------------------------
 .byte   PATT
  .word Label_5_546E55
@ 006   ----------------------------------------
 .byte   PATT
  .word Label_5_546E70
@ 007   ----------------------------------------
 .byte   PATT
  .word Label_5_546E87
@ 008   ----------------------------------------
 .byte   PATT
  .word Label_5_546EA2
@ 009   ----------------------------------------
Label_5_546EC9:
 .byte   N23 ,Ds4 ,v064
 .byte   W24
 .byte   En4
 .byte   W24
 .byte   N15 ,Ds4
 .byte   W16
 .byte   N11 ,En4
 .byte   W24
 .byte   N30 ,Ds4
 .byte   W08
 .byte   PEND 
@ 010   ----------------------------------------
Label_5_546ED9:
 .byte   W24
 .byte   N23 ,Cs4 ,v064
 .byte   W24
 .byte   Bn3
 .byte   W24
 .byte   As3
 .byte   W24
 .byte   PEND 
@ 011   ----------------------------------------
Label_5_546EE3:
 .byte   N23 ,Bn3 ,v064
 .byte   W24
 .byte   Cs4
 .byte   W24
 .byte   N15 ,Ds4
 .byte   W16
 .byte   N11 ,Bn3
 .byte   W24
 .byte   N54 ,Gs3
 .byte   W08
 .byte   PEND 
@ 012   ----------------------------------------
 .byte   W96
@ 013   ----------------------------------------
Label_5_546EF4:
 .byte   N11 ,Bn3 ,v064
 .byte   W24
 .byte   N11
 .byte   W24
 .byte   N11
 .byte   W24
 .byte   N11
 .byte   W24
 .byte   PEND 
@ 014   ----------------------------------------
Label_5_546EFF:
 .byte   N11 ,Bn3 ,v064
 .byte   W48
 .byte   N15 ,As2
 .byte   W16
 .byte   N11 ,Bn2
 .byte   W24
 .byte   N30 ,As2
 .byte   W08
 .byte   PEND 
@ 015   ----------------------------------------
 .byte   W96
@ 016   ----------------------------------------
 .byte   W96
@ 017   ----------------------------------------
 .byte   PATT
  .word Label_5_546E55
@ 018   ----------------------------------------
 .byte   PATT
  .word Label_5_546E70
@ 019   ----------------------------------------
 .byte   PATT
  .word Label_5_546E87
@ 020   ----------------------------------------
 .byte   PATT
  .word Label_5_546EA2
@ 021   ----------------------------------------
 .byte   PATT
  .word Label_5_546E55
@ 022   ----------------------------------------
 .byte   PATT
  .word Label_5_546E70
@ 023   ----------------------------------------
 .byte   PATT
  .word Label_5_546E87
@ 024   ----------------------------------------
 .byte   PATT
  .word Label_5_546EA2
@ 025   ----------------------------------------
 .byte   PATT
  .word Label_5_546EC9
@ 026   ----------------------------------------
 .byte   PATT
  .word Label_5_546ED9
@ 027   ----------------------------------------
 .byte   PATT
  .word Label_5_546EE3
@ 028   ----------------------------------------
 .byte   W96
@ 029   ----------------------------------------
 .byte   PATT
  .word Label_5_546EF4
@ 030   ----------------------------------------
 .byte   PATT
  .word Label_5_546EFF
@ 031   ----------------------------------------
 .byte   W96
@ 032   ----------------------------------------
 .byte   W96
@ 033   ----------------------------------------
 .byte   W96
@ 034   ----------------------------------------
 .byte   W96
@ 035   ----------------------------------------
 .byte   W96
@ 036   ----------------------------------------
 .byte   W96
@ 037   ----------------------------------------
 .byte   W96
@ 038   ----------------------------------------
 .byte   W96
@ 039   ----------------------------------------
 .byte   W96
@ 040   ----------------------------------------
 .byte   W96
@ 041   ----------------------------------------
 .byte   W96
@ 042   ----------------------------------------
 .byte   W96
@ 043   ----------------------------------------
 .byte   W96
@ 044   ----------------------------------------
 .byte   W96
@ 045   ----------------------------------------
 .byte   W96
@ 046   ----------------------------------------
 .byte   W96
@ 047   ----------------------------------------
 .byte   W96
@ 048   ----------------------------------------
 .byte   W96
@ 049   ----------------------------------------
 .byte   W96
@ 050   ----------------------------------------
 .byte   W96
@ 051   ----------------------------------------
 .byte   N11 ,Ds3 ,v080
 .byte   W12
 .byte   Dn3
 .byte   W12
 .byte   Ds3
 .byte   W12
 .byte   Gs3
 .byte   W12
 .byte   Fs3
 .byte   W12
 .byte   Ds3
 .byte   W12
 .byte   Dn3
 .byte   W12
 .byte   Ds3
 .byte   W12
@ 052   ----------------------------------------
Label_5_546F77:
 .byte   W48
 .byte   N05 ,Ds0 ,v080
 .byte   W06
 .byte   En0
 .byte   W06
 .byte   Ds0
 .byte   W06
 .byte   Dn0
 .byte   W06
 .byte   Ds0
 .byte   W24
 .byte   PEND 
@ 053   ----------------------------------------
Label_5_546F85:
 .byte   N44 ,Gs0 ,v080
 .byte   N11 ,Ds3
 .byte   W12
 .byte   Dn3
 .byte   W12
 .byte   Ds3
 .byte   W12
 .byte   Gs3
 .byte   W12
 .byte   N44 ,Ds0
 .byte   N11 ,Fs3
 .byte   W12
 .byte   Ds3
 .byte   W12
 .byte   Dn3
 .byte   W12
 .byte   Ds3
 .byte   W12
 .byte   PEND 
@ 054   ----------------------------------------
 .byte   PATT
  .word Label_5_546F77
@ 055   ----------------------------------------
 .byte   PATT
  .word Label_5_546F85
@ 056   ----------------------------------------
Label_5_546FA7:
 .byte   N44 ,As0 ,v080
 .byte   W48
 .byte   N05 ,Ds0
 .byte   W06
 .byte   En0
 .byte   W06
 .byte   Ds0
 .byte   W06
 .byte   Dn0
 .byte   W06
 .byte   Ds0
 .byte   W24
 .byte   PEND 
@ 057   ----------------------------------------
 .byte   PATT
  .word Label_5_546F85
@ 058   ----------------------------------------
 .byte   PATT
  .word Label_5_546FA7
@ 059   ----------------------------------------
Label_5_546FC1:
 .byte   N11 ,Gs0 ,v080
 .byte   W12
 .byte   Ds0
 .byte   N11 ,Gs3
 .byte   W12
 .byte   Gs0
 .byte   N11 ,Bn3
 .byte   W12
 .byte   As0
 .byte   N11 ,Gs3
 .byte   W12
 .byte   N23 ,Bn0
 .byte   W12
 .byte   N11 ,Ds3
 .byte   W12
 .byte   N23 ,Gs0
 .byte   N11 ,Bn3
 .byte   W12
 .byte   Ds3
 .byte   W12
 .byte   PEND 
@ 060   ----------------------------------------
Label_5_546FDF:
 .byte   N11 ,En0 ,v080
 .byte   W12
 .byte   Fs0
 .byte   N11 ,Cs3
 .byte   W12
 .byte   Gs0
 .byte   N11 ,Gs3
 .byte   W12
 .byte   En0
 .byte   N11 ,Cs3
 .byte   W12
 .byte   N23 ,Cs0
 .byte   W12
 .byte   N11 ,Gs3
 .byte   W12
 .byte   N23 ,En0
 .byte   N11 ,En4
 .byte   W12
 .byte   Gs3
 .byte   W12
 .byte   PEND 
@ 061   ----------------------------------------
Label_5_546FFD:
 .byte   N92 ,Ds0 ,v080
 .byte   N11 ,Ds4
 .byte   W12
 .byte   Bn3
 .byte   W12
 .byte   As3
 .byte   W12
 .byte   Gs3
 .byte   W12
 .byte   Ds4
 .byte   W12
 .byte   Bn3
 .byte   W12
 .byte   As3
 .byte   W12
 .byte   Gs3
 .byte   W12
 .byte   PEND 
@ 062   ----------------------------------------
Label_5_547012:
 .byte   N44 ,Ds0 ,v080
 .byte   N11 ,Ds4
 .byte   W12
 .byte   As3
 .byte   W12
 .byte   Gs3
 .byte   W12
 .byte   Gn3
 .byte   W12
 .byte   N44 ,Gn0
 .byte   N11 ,Ds3
 .byte   W12
 .byte   Gn3
 .byte   W12
 .byte   As3
 .byte   W12
 .byte   Ds4
 .byte   W12
 .byte   PEND 
@ 063   ----------------------------------------
 .byte   PATT
  .word Label_5_546F85
@ 064   ----------------------------------------
 .byte   PATT
  .word Label_5_546FA7
@ 065   ----------------------------------------
 .byte   PATT
  .word Label_5_546F85
@ 066   ----------------------------------------
 .byte   PATT
  .word Label_5_546FA7
@ 067   ----------------------------------------
 .byte   PATT
  .word Label_5_546FC1
@ 068   ----------------------------------------
 .byte   PATT
  .word Label_5_546FDF
@ 069   ----------------------------------------
 .byte   PATT
  .word Label_5_546FFD
@ 070   ----------------------------------------
 .byte   PATT
  .word Label_5_547012
@ 071   ----------------------------------------
 .byte   GOTO
  .word Label_5_546E4E
 .byte   FINE

@**************** Track 7 (Midi-Chn.6) ****************@

song02_007:
@ 000   ----------------------------------------
 .byte   KEYSH , song02_key+0
Label_6_15E2F6:
 .byte   VOICE , 127
 .byte   VOL , 78*song02_mvl/mxv
 .byte   PAN , c_v+0
 .byte   W96
@ 001   ----------------------------------------
Label_6_15E2FD:
 .byte   N11 ,Cn1 ,v064
 .byte   W12
 .byte   N05
 .byte   W06
 .byte   N05
 .byte   W06
 .byte   N23 ,Dn1
 .byte   W12
 .byte   N05 ,Cn1
 .byte   W06
 .byte   N05
 .byte   W06
 .byte   N11
 .byte   W12
 .byte   N11
 .byte   W12
 .byte   N23 ,Dn1
 .byte   W12
 .byte   N11 ,Cn1
 .byte   W12
 .byte   PEND 
@ 002   ----------------------------------------
 .byte   PATT
  .word Label_6_15E2FD
@ 003   ----------------------------------------
 .byte   PATT
  .word Label_6_15E2FD
@ 004   ----------------------------------------
Label_6_15E322:
 .byte   N11 ,Cn1 ,v064
 .byte   W12
 .byte   N05
 .byte   W06
 .byte   N05
 .byte   W06
 .byte   N23 ,Dn1
 .byte   W12
 .byte   N05 ,Cn1
 .byte   W06
 .byte   N05
 .byte   W06
 .byte   N11
 .byte   W12
 .byte   N11
 .byte   W12
 .byte   N05 ,Dn1
 .byte   W06
 .byte   N05
 .byte   W06
 .byte   N05
 .byte   W06
 .byte   N05
 .byte   W06
 .byte   PEND 
@ 005   ----------------------------------------
 .byte   PATT
  .word Label_6_15E2FD
@ 006   ----------------------------------------
 .byte   PATT
  .word Label_6_15E2FD
@ 007   ----------------------------------------
 .byte   PATT
  .word Label_6_15E2FD
@ 008   ----------------------------------------
 .byte   PATT
  .word Label_6_15E322
@ 009   ----------------------------------------
Label_6_15E354:
 .byte   N32 ,Cn1 ,v064
 .byte   N23 ,Fs1
 .byte   W24
 .byte   N11
 .byte   W12
 .byte   N56 ,Cn1
 .byte   N11 ,Fs1
 .byte   W12
 .byte   N44 ,Ds1 ,v080
 .byte   N11 ,Fs1 ,v064
 .byte   W12
 .byte   N11
 .byte   W12
 .byte   N11
 .byte   W12
 .byte   N11
 .byte   W12
 .byte   PEND 
@ 010   ----------------------------------------
Label_6_15E36F:
 .byte   N32 ,Cn1 ,v064
 .byte   N23 ,Fs1
 .byte   W24
 .byte   N11
 .byte   W12
 .byte   N32 ,Cn1
 .byte   N11 ,Fs1
 .byte   W12
 .byte   N44 ,Ds1 ,v080
 .byte   N11 ,Fs1 ,v064
 .byte   W12
 .byte   N11
 .byte   W12
 .byte   N23 ,Cn1
 .byte   N11 ,Fs1
 .byte   W12
 .byte   N11
 .byte   W12
 .byte   PEND 
@ 011   ----------------------------------------
 .byte   PATT
  .word Label_6_15E354
@ 012   ----------------------------------------
 .byte   PATT
  .word Label_6_15E36F
@ 013   ----------------------------------------
Label_6_15E397:
 .byte   N23 ,Cn1 ,v064
 .byte   N23 ,Fs1
 .byte   W24
 .byte   N11 ,Cn1
 .byte   N11 ,Fs1
 .byte   W12
 .byte   Cn1
 .byte   N11 ,Fs1
 .byte   W12
 .byte   N44 ,Ds1 ,v080
 .byte   N11 ,Fs1 ,v064
 .byte   W12
 .byte   N11
 .byte   W12
 .byte   N23 ,Cn1
 .byte   N11 ,Fs1
 .byte   W12
 .byte   N11
 .byte   W12
 .byte   PEND 
@ 014   ----------------------------------------
Label_6_15E3B7:
 .byte   N23 ,Cn1 ,v064
 .byte   N23 ,Fs1
 .byte   W24
 .byte   N11 ,Cn1
 .byte   N11 ,Fs1
 .byte   W12
 .byte   Cn1
 .byte   N11 ,Fs1
 .byte   W12
 .byte   N44 ,Ds1 ,v080
 .byte   N11 ,Fs1 ,v064
 .byte   W12
 .byte   Cn1
 .byte   N11 ,Fs1
 .byte   W12
 .byte   Cn1
 .byte   N11 ,Fs1
 .byte   W12
 .byte   Cn1
 .byte   N11 ,Fs1
 .byte   W12
 .byte   PEND 
@ 015   ----------------------------------------
 .byte   PATT
  .word Label_6_15E397
@ 016   ----------------------------------------
Label_6_15E3DF:
 .byte   N23 ,Cn1 ,v064
 .byte   N23 ,Fs1
 .byte   W24
 .byte   N23
 .byte   W72
 .byte   PEND 
@ 017   ----------------------------------------
 .byte   PATT
  .word Label_6_15E2FD
@ 018   ----------------------------------------
 .byte   PATT
  .word Label_6_15E2FD
@ 019   ----------------------------------------
 .byte   PATT
  .word Label_6_15E2FD
@ 020   ----------------------------------------
 .byte   PATT
  .word Label_6_15E322
@ 021   ----------------------------------------
 .byte   PATT
  .word Label_6_15E2FD
@ 022   ----------------------------------------
 .byte   PATT
  .word Label_6_15E2FD
@ 023   ----------------------------------------
 .byte   PATT
  .word Label_6_15E2FD
@ 024   ----------------------------------------
 .byte   PATT
  .word Label_6_15E322
@ 025   ----------------------------------------
 .byte   PATT
  .word Label_6_15E354
@ 026   ----------------------------------------
 .byte   PATT
  .word Label_6_15E36F
@ 027   ----------------------------------------
 .byte   PATT
  .word Label_6_15E354
@ 028   ----------------------------------------
 .byte   PATT
  .word Label_6_15E36F
@ 029   ----------------------------------------
 .byte   PATT
  .word Label_6_15E397
@ 030   ----------------------------------------
 .byte   PATT
  .word Label_6_15E3B7
@ 031   ----------------------------------------
 .byte   PATT
  .word Label_6_15E397
@ 032   ----------------------------------------
 .byte   PATT
  .word Label_6_15E3DF
@ 033   ----------------------------------------
 .byte   W96
@ 034   ----------------------------------------
 .byte   W96
@ 035   ----------------------------------------
 .byte   W96
@ 036   ----------------------------------------
 .byte   W96
@ 037   ----------------------------------------
 .byte   W96
@ 038   ----------------------------------------
 .byte   W96
@ 039   ----------------------------------------
 .byte   W96
@ 040   ----------------------------------------
 .byte   W96
@ 041   ----------------------------------------
Label_6_15E440:
 .byte   N11 ,Fs1 ,v064
 .byte   W12
 .byte   N11
 .byte   W12
 .byte   N11
 .byte   W12
 .byte   N11
 .byte   W12
 .byte   N11
 .byte   W12
 .byte   N05
 .byte   W06
 .byte   N05
 .byte   W06
 .byte   N11
 .byte   W12
 .byte   N11
 .byte   W12
 .byte   PEND 
@ 042   ----------------------------------------
Label_6_15E455:
 .byte   N11 ,Fs1 ,v064
 .byte   W12
 .byte   N05
 .byte   W06
 .byte   N05
 .byte   W06
 .byte   N11
 .byte   W12
 .byte   N11
 .byte   W12
 .byte   N11
 .byte   W12
 .byte   N11
 .byte   W12
 .byte   N11
 .byte   W12
 .byte   N11
 .byte   W12
 .byte   PEND 
@ 043   ----------------------------------------
 .byte   PATT
  .word Label_6_15E440
@ 044   ----------------------------------------
 .byte   PATT
  .word Label_6_15E455
@ 045   ----------------------------------------
Label_6_15E474:
 .byte   N32 ,Cn1 ,v064
 .byte   N11 ,Fs1
 .byte   W12
 .byte   N11
 .byte   W12
 .byte   N11
 .byte   W12
 .byte   N56 ,Cn1
 .byte   N11 ,Fs1
 .byte   W12
 .byte   N44 ,Ds1 ,v080
 .byte   N11 ,Fs1 ,v064
 .byte   W12
 .byte   N05
 .byte   W06
 .byte   N05
 .byte   W06
 .byte   N11
 .byte   W12
 .byte   N11
 .byte   W12
 .byte   PEND 
@ 046   ----------------------------------------
 .byte   N32 ,Cn1
 .byte   N11 ,Fs1
 .byte   W12
 .byte   N05
 .byte   W06
 .byte   N05
 .byte   W06
 .byte   N11
 .byte   W12
 .byte   Cn1
 .byte   N11 ,Fs1
 .byte   W12
 .byte   N44 ,Ds1 ,v080
 .byte   N11 ,Fs1 ,v064
 .byte   W12
 .byte   Cn1
 .byte   N11 ,Fs1
 .byte   W12
 .byte   N11
 .byte   W12
 .byte   Cn1
 .byte   N11 ,Fs1
 .byte   W12
@ 047   ----------------------------------------
 .byte   PATT
  .word Label_6_15E474
@ 048   ----------------------------------------
Label_6_15E4B8:
 .byte   N23 ,Cn1 ,v064
 .byte   N11 ,Fs1
 .byte   W12
 .byte   N11
 .byte   W12
 .byte   N23 ,Cn1
 .byte   N11 ,Fs1
 .byte   W12
 .byte   N11
 .byte   W12
 .byte   N23 ,Cn1
 .byte   N11 ,Fs1
 .byte   W12
 .byte   N11
 .byte   W12
 .byte   N23 ,Cn1
 .byte   N11 ,Fs1
 .byte   W12
 .byte   N11
 .byte   W12
 .byte   PEND 
@ 049   ----------------------------------------
 .byte   PATT
  .word Label_6_15E474
@ 050   ----------------------------------------
 .byte   PATT
  .word Label_6_15E4B8
@ 051   ----------------------------------------
 .byte   W96
@ 052   ----------------------------------------
 .byte   W96
@ 053   ----------------------------------------
 .byte   W96
@ 054   ----------------------------------------
 .byte   W96
@ 055   ----------------------------------------
 .byte   W96
@ 056   ----------------------------------------
 .byte   W96
@ 057   ----------------------------------------
 .byte   W96
@ 058   ----------------------------------------
 .byte   W96
@ 059   ----------------------------------------
 .byte   W96
@ 060   ----------------------------------------
 .byte   W96
@ 061   ----------------------------------------
 .byte   W96
@ 062   ----------------------------------------
 .byte   W36
 .byte   N11 ,Cn2 ,v064
 .byte   N11 ,Bn2 ,v040
 .byte   W36
 .byte   Gn1 ,v048
 .byte   W12
 .byte   N11
 .byte   W12
@ 063   ----------------------------------------
Label_6_15E4F8:
 .byte   N32 ,Cn1 ,v064
 .byte   W36
 .byte   N56
 .byte   W12
 .byte   N23 ,Fn1
 .byte   W24
 .byte   Gs1
 .byte   N23 ,Fs2 ,v032
 .byte   W24
 .byte   PEND 
@ 064   ----------------------------------------
Label_6_15E507:
 .byte   N32 ,Cn1 ,v064
 .byte   W36
 .byte   N56
 .byte   W12
 .byte   N44 ,Fn1
 .byte   W48
 .byte   PEND 
@ 065   ----------------------------------------
 .byte   PATT
  .word Label_6_15E4F8
@ 066   ----------------------------------------
 .byte   PATT
  .word Label_6_15E507
@ 067   ----------------------------------------
Label_6_15E51B:
 .byte   N11 ,Cn1 ,v064
 .byte   W12
 .byte   N11
 .byte   W12
 .byte   N11
 .byte   W12
 .byte   N11
 .byte   W12
 .byte   N11
 .byte   N44 ,Fn1
 .byte   W12
 .byte   N11 ,Cn1
 .byte   W12
 .byte   N11
 .byte   W12
 .byte   N11
 .byte   W12
 .byte   PEND 
@ 068   ----------------------------------------
 .byte   PATT
  .word Label_6_15E51B
@ 069   ----------------------------------------
 .byte   PATT
  .word Label_6_15E4F8
@ 070   ----------------------------------------
 .byte   PATT
  .word Label_6_15E507
@ 071   ----------------------------------------
 .byte   GOTO
  .word Label_6_15E2F6
 .byte   FINE

@**************** Track 8 (Midi-Chn.7) ****************@

song02_008:
@ 000   ----------------------------------------
 .byte   KEYSH , song02_key+0
Label_7_5473BE:
 .byte   VOICE , 48
 .byte   VOL , 78*song02_mvl/mxv
 .byte   PAN , c_v+0
 .byte   W96
@ 001   ----------------------------------------
 .byte   W96
@ 002   ----------------------------------------
 .byte   W96
@ 003   ----------------------------------------
 .byte   W96
@ 004   ----------------------------------------
 .byte   W96
@ 005   ----------------------------------------
 .byte   W96
@ 006   ----------------------------------------
 .byte   W96
@ 007   ----------------------------------------
 .byte   W96
@ 008   ----------------------------------------
 .byte   W96
@ 009   ----------------------------------------
 .byte   W96
@ 010   ----------------------------------------
 .byte   W96
@ 011   ----------------------------------------
Label_7_5473CF:
 .byte   TIE ,Bn2 ,v080
 .byte   W06
 .byte   W06
 .byte   W06
 .byte   W06
 .byte   W06
 .byte   W06
 .byte   W06
 .byte   W06
 .byte   W06
 .byte   W06
 .byte   W06
 .byte   W06
 .byte   W06
 .byte   W06
 .byte   W06
 .byte   W06
 .byte   PEND 
@ 012   ----------------------------------------
 .byte   W44
 .byte   W03
 .byte   EOT
 .byte   W01
 .byte   N44 ,Gs2 ,v064
 .byte   W48
@ 013   ----------------------------------------
 .byte   W96
@ 014   ----------------------------------------
 .byte   W96
@ 015   ----------------------------------------
 .byte   W96
@ 016   ----------------------------------------
 .byte   W96
@ 017   ----------------------------------------
 .byte   W96
@ 018   ----------------------------------------
 .byte   W96
@ 019   ----------------------------------------
 .byte   W96
@ 020   ----------------------------------------
 .byte   W96
@ 021   ----------------------------------------
 .byte   W96
@ 022   ----------------------------------------
 .byte   W96
@ 023   ----------------------------------------
 .byte   W96
@ 024   ----------------------------------------
 .byte   W96
@ 025   ----------------------------------------
 .byte   W96
@ 026   ----------------------------------------
 .byte   W96
@ 027   ----------------------------------------
 .byte   PATT
  .word Label_7_5473CF
@ 028   ----------------------------------------
 .byte   W44
 .byte   W03
 .byte   EOT
 .byte   Bn2
 .byte   W01
 .byte   N44 ,Gs2 ,v064
 .byte   W48
@ 029   ----------------------------------------
 .byte   W96
@ 030   ----------------------------------------
 .byte   W96
@ 031   ----------------------------------------
 .byte   W96
@ 032   ----------------------------------------
 .byte   W96
@ 033   ----------------------------------------
 .byte   W96
@ 034   ----------------------------------------
 .byte   W96
@ 035   ----------------------------------------
 .byte   W96
@ 036   ----------------------------------------
 .byte   W96
@ 037   ----------------------------------------
 .byte   W96
@ 038   ----------------------------------------
 .byte   W96
@ 039   ----------------------------------------
 .byte   W96
@ 040   ----------------------------------------
 .byte   W96
@ 041   ----------------------------------------
 .byte   W96
@ 042   ----------------------------------------
 .byte   W96
@ 043   ----------------------------------------
 .byte   W96
@ 044   ----------------------------------------
 .byte   W96
@ 045   ----------------------------------------
 .byte   W96
@ 046   ----------------------------------------
 .byte   W96
@ 047   ----------------------------------------
 .byte   W96
@ 048   ----------------------------------------
 .byte   W96
@ 049   ----------------------------------------
 .byte   W96
@ 050   ----------------------------------------
 .byte   W96
@ 051   ----------------------------------------
 .byte   W96
@ 052   ----------------------------------------
 .byte   W96
@ 053   ----------------------------------------
 .byte   W96
@ 054   ----------------------------------------
 .byte   W96
@ 055   ----------------------------------------
 .byte   W96
@ 056   ----------------------------------------
 .byte   W96
@ 057   ----------------------------------------
 .byte   W96
@ 058   ----------------------------------------
 .byte   W96
@ 059   ----------------------------------------
 .byte   W96
@ 060   ----------------------------------------
 .byte   W96
@ 061   ----------------------------------------
 .byte   W96
@ 062   ----------------------------------------
 .byte   W96
@ 063   ----------------------------------------
 .byte   W96
@ 064   ----------------------------------------
 .byte   W96
@ 065   ----------------------------------------
 .byte   W96
@ 066   ----------------------------------------
 .byte   W96
@ 067   ----------------------------------------
 .byte   W96
@ 068   ----------------------------------------
 .byte   W96
@ 069   ----------------------------------------
 .byte   W96
@ 070   ----------------------------------------
 .byte   W96
@ 071   ----------------------------------------
 .byte   GOTO
  .word Label_7_5473BE
 .byte   FINE

@**************** Track 9 (Midi-Chn.8) ****************@

song02_009:
@ 000   ----------------------------------------
 .byte   KEYSH , song02_key+0
Label_8_54690E:
 .byte   VOICE , 45
 .byte   VOL , 78*song02_mvl/mxv
 .byte   PAN , c_v+0
 .byte   W96
@ 001   ----------------------------------------
 .byte   W96
@ 002   ----------------------------------------
 .byte   W96
@ 003   ----------------------------------------
Label_8_546917:
 .byte   W12
 .byte   N11 ,Fs4 ,v080
 .byte   W12
 .byte   Ds4
 .byte   W12
 .byte   Dn4
 .byte   W12
 .byte   Cs4
 .byte   W12
 .byte   Bn3
 .byte   W12
 .byte   Gs3
 .byte   W12
 .byte   Fs3
 .byte   W12
 .byte   PEND 
@ 004   ----------------------------------------
Label_8_546929:
 .byte   N23 ,Gs3 ,v080
 .byte   W48
 .byte   Gn3
 .byte   W24
 .byte   Ds3
 .byte   W24
 .byte   PEND 
@ 005   ----------------------------------------
Label_8_546932:
 .byte   N23 ,Gs3 ,v080
 .byte   W48
 .byte   Ds3
 .byte   W48
 .byte   PEND 
@ 006   ----------------------------------------
 .byte   Gs3
 .byte   W96
@ 007   ----------------------------------------
 .byte   W96
@ 008   ----------------------------------------
 .byte   W96
@ 009   ----------------------------------------
 .byte   W96
@ 010   ----------------------------------------
 .byte   W96
@ 011   ----------------------------------------
 .byte   W96
@ 012   ----------------------------------------
 .byte   W96
@ 013   ----------------------------------------
 .byte   W96
@ 014   ----------------------------------------
 .byte   W96
@ 015   ----------------------------------------
 .byte   W96
@ 016   ----------------------------------------
 .byte   N17 ,Ds4
 .byte   W18
 .byte   N05 ,En4
 .byte   W06
 .byte   N17 ,Cs4
 .byte   W18
 .byte   N05 ,Ds4
 .byte   W06
 .byte   N17 ,Bn3
 .byte   W18
 .byte   N05 ,Cs4
 .byte   W06
 .byte   N17 ,As3
 .byte   W18
 .byte   N05 ,Bn3
 .byte   W06
@ 017   ----------------------------------------
 .byte   W96
@ 018   ----------------------------------------
 .byte   W96
@ 019   ----------------------------------------
 .byte   PATT
  .word Label_8_546917
@ 020   ----------------------------------------
 .byte   PATT
  .word Label_8_546929
@ 021   ----------------------------------------
 .byte   PATT
  .word Label_8_546932
@ 022   ----------------------------------------
 .byte   N23 ,Gs3 ,v080
 .byte   W96
@ 023   ----------------------------------------
 .byte   W96
@ 024   ----------------------------------------
 .byte   W96
@ 025   ----------------------------------------
 .byte   W96
@ 026   ----------------------------------------
 .byte   W96
@ 027   ----------------------------------------
 .byte   W96
@ 028   ----------------------------------------
 .byte   W96
@ 029   ----------------------------------------
 .byte   W96
@ 030   ----------------------------------------
 .byte   W96
@ 031   ----------------------------------------
 .byte   W96
@ 032   ----------------------------------------
 .byte   W96
@ 033   ----------------------------------------
Label_8_54697B:
 .byte   W12
 .byte   N11 ,Gs3 ,v096
 .byte   W12
 .byte   En3
 .byte   W12
 .byte   Cs3
 .byte   W24
 .byte   As2
 .byte   W12
 .byte   Cs3
 .byte   W12
 .byte   Gs3
 .byte   W12
 .byte   PEND 
@ 034   ----------------------------------------
Label_8_54698B:
 .byte   W12
 .byte   N11 ,Fs3 ,v096
 .byte   W12
 .byte   Ds3
 .byte   W12
 .byte   Bn2
 .byte   W24
 .byte   Gs2
 .byte   W12
 .byte   Bn2
 .byte   W12
 .byte   Fs3
 .byte   W12
 .byte   PEND 
@ 035   ----------------------------------------
Label_8_54699B:
 .byte   W12
 .byte   N11 ,En3 ,v096
 .byte   W12
 .byte   Cs3
 .byte   W12
 .byte   As2
 .byte   W24
 .byte   Gn2
 .byte   W12
 .byte   As2
 .byte   W12
 .byte   En3
 .byte   W12
 .byte   PEND 
@ 036   ----------------------------------------
Label_8_5469AB:
 .byte   N23 ,Ds3 ,v096
 .byte   W36
 .byte   En3
 .byte   W36
 .byte   Fs3
 .byte   W24
 .byte   PEND 
@ 037   ----------------------------------------
 .byte   PATT
  .word Label_8_54697B
@ 038   ----------------------------------------
 .byte   PATT
  .word Label_8_54698B
@ 039   ----------------------------------------
 .byte   PATT
  .word Label_8_54699B
@ 040   ----------------------------------------
 .byte   PATT
  .word Label_8_5469AB
@ 041   ----------------------------------------
 .byte   PATT
  .word Label_8_54697B
@ 042   ----------------------------------------
 .byte   PATT
  .word Label_8_54698B
@ 043   ----------------------------------------
 .byte   PATT
  .word Label_8_54699B
@ 044   ----------------------------------------
 .byte   PATT
  .word Label_8_5469AB
@ 045   ----------------------------------------
 .byte   PATT
  .word Label_8_54697B
@ 046   ----------------------------------------
 .byte   PATT
  .word Label_8_54698B
@ 047   ----------------------------------------
 .byte   PATT
  .word Label_8_54699B
@ 048   ----------------------------------------
 .byte   W96
@ 049   ----------------------------------------
 .byte   PATT
  .word Label_8_54699B
@ 050   ----------------------------------------
 .byte   W96
@ 051   ----------------------------------------
 .byte   W96
@ 052   ----------------------------------------
 .byte   W96
@ 053   ----------------------------------------
 .byte   W96
@ 054   ----------------------------------------
 .byte   W96
@ 055   ----------------------------------------
 .byte   W96
@ 056   ----------------------------------------
 .byte   W96
@ 057   ----------------------------------------
 .byte   W96
@ 058   ----------------------------------------
 .byte   W96
@ 059   ----------------------------------------
 .byte   W96
@ 060   ----------------------------------------
 .byte   W96
@ 061   ----------------------------------------
 .byte   W96
@ 062   ----------------------------------------
 .byte   W96
@ 063   ----------------------------------------
 .byte   W96
@ 064   ----------------------------------------
 .byte   W96
@ 065   ----------------------------------------
 .byte   W96
@ 066   ----------------------------------------
 .byte   W96
@ 067   ----------------------------------------
 .byte   W96
@ 068   ----------------------------------------
 .byte   W96
@ 069   ----------------------------------------
 .byte   W96
@ 070   ----------------------------------------
 .byte   W96
@ 071   ----------------------------------------
 .byte   GOTO
  .word Label_8_54690E
 .byte   FINE

@**************** Track 10 (Midi-Chn.9) ****************@

song02_010:
@ 000   ----------------------------------------
 .byte   KEYSH , song02_key+0
Label_9_547722:
 .byte   VOICE , 119
 .byte   VOL , 78*song02_mvl/mxv
 .byte   PAN , c_v-4
 .byte   W96
@ 001   ----------------------------------------
 .byte   W96
@ 002   ----------------------------------------
 .byte   W96
@ 003   ----------------------------------------
 .byte   W96
@ 004   ----------------------------------------
 .byte   W96
@ 005   ----------------------------------------
 .byte   W96
@ 006   ----------------------------------------
 .byte   W96
@ 007   ----------------------------------------
 .byte   W96
@ 008   ----------------------------------------
 .byte   W96
@ 009   ----------------------------------------
 .byte   W96
@ 010   ----------------------------------------
 .byte   W96
@ 011   ----------------------------------------
 .byte   W96
@ 012   ----------------------------------------
 .byte   W96
@ 013   ----------------------------------------
 .byte   W96
@ 014   ----------------------------------------
 .byte   W96
@ 015   ----------------------------------------
 .byte   W96
@ 016   ----------------------------------------
 .byte   W24
 .byte   N68 ,An2 ,v052
 .byte   W04
 .byte   W02
 .byte   W03
 .byte   W02
 .byte   W02
 .byte   W03
 .byte   W02
 .byte   W02
 .byte   W03
 .byte   W02
 .byte   W02
 .byte   W02
 .byte   W03
 .byte   W02
 .byte   W02
 .byte   W03
 .byte   W02
 .byte   W02
 .byte   W03
 .byte   W02
 .byte   W02
 .byte   W02
 .byte   W03
 .byte   W02
 .byte   W02
 .byte   W03
 .byte   W02
 .byte   W02
 .byte   W03
 .byte   W02
 .byte   W01
@ 017   ----------------------------------------
 .byte   W96
@ 018   ----------------------------------------
 .byte   W96
@ 019   ----------------------------------------
 .byte   W96
@ 020   ----------------------------------------
 .byte   W96
@ 021   ----------------------------------------
 .byte   W96
@ 022   ----------------------------------------
 .byte   W96
@ 023   ----------------------------------------
 .byte   W96
@ 024   ----------------------------------------
 .byte   W96
@ 025   ----------------------------------------
 .byte   W96
@ 026   ----------------------------------------
 .byte   W96
@ 027   ----------------------------------------
 .byte   W96
@ 028   ----------------------------------------
 .byte   W96
@ 029   ----------------------------------------
 .byte   W96
@ 030   ----------------------------------------
 .byte   W96
@ 031   ----------------------------------------
 .byte   W96
@ 032   ----------------------------------------
 .byte   W96
@ 033   ----------------------------------------
 .byte   W96
@ 034   ----------------------------------------
 .byte   W96
@ 035   ----------------------------------------
 .byte   W96
@ 036   ----------------------------------------
 .byte   W96
@ 037   ----------------------------------------
 .byte   W96
@ 038   ----------------------------------------
 .byte   W96
@ 039   ----------------------------------------
 .byte   W96
@ 040   ----------------------------------------
 .byte   W96
@ 041   ----------------------------------------
 .byte   W96
@ 042   ----------------------------------------
 .byte   W96
@ 043   ----------------------------------------
 .byte   W96
@ 044   ----------------------------------------
 .byte   W96
@ 045   ----------------------------------------
 .byte   W96
@ 046   ----------------------------------------
 .byte   W96
@ 047   ----------------------------------------
 .byte   W96
@ 048   ----------------------------------------
 .byte   W96
@ 049   ----------------------------------------
 .byte   W96
@ 050   ----------------------------------------
 .byte   W96
@ 051   ----------------------------------------
 .byte   W96
@ 052   ----------------------------------------
 .byte   W96
@ 053   ----------------------------------------
 .byte   W96
@ 054   ----------------------------------------
 .byte   W96
@ 055   ----------------------------------------
 .byte   W96
@ 056   ----------------------------------------
 .byte   W96
@ 057   ----------------------------------------
 .byte   W96
@ 058   ----------------------------------------
 .byte   W96
@ 059   ----------------------------------------
 .byte   W96
@ 060   ----------------------------------------
 .byte   W96
@ 061   ----------------------------------------
 .byte   W96
@ 062   ----------------------------------------
 .byte   W96
@ 063   ----------------------------------------
 .byte   W96
@ 064   ----------------------------------------
 .byte   W96
@ 065   ----------------------------------------
 .byte   W96
@ 066   ----------------------------------------
 .byte   W96
@ 067   ----------------------------------------
 .byte   W96
@ 068   ----------------------------------------
 .byte   W96
@ 069   ----------------------------------------
 .byte   W96
@ 070   ----------------------------------------
 .byte   W96
@ 071   ----------------------------------------
 .byte   GOTO
  .word Label_9_547722
 .byte   FINE

@**************** Track 11 (Midi-Chn.10) ****************@

song02_011:
@ 000   ----------------------------------------
 .byte   KEYSH , song02_key+0
Label_10_54779A:
 .byte   VOICE , 48
 .byte   VOL , 78*song02_mvl/mxv
 .byte   PAN , c_v+0
 .byte   W96
@ 001   ----------------------------------------
 .byte   W96
@ 002   ----------------------------------------
 .byte   W96
@ 003   ----------------------------------------
 .byte   W96
@ 004   ----------------------------------------
 .byte   W96
@ 005   ----------------------------------------
 .byte   W96
@ 006   ----------------------------------------
 .byte   W96
@ 007   ----------------------------------------
 .byte   W96
@ 008   ----------------------------------------
 .byte   W96
@ 009   ----------------------------------------
 .byte   W96
@ 010   ----------------------------------------
 .byte   W48
 .byte   N44 ,As2 ,v080
 .byte   W48
@ 011   ----------------------------------------
Label_10_5477AF:
 .byte   TIE ,Gs2 ,v080
 .byte   W06
 .byte   W06
 .byte   W06
 .byte   W06
 .byte   W06
 .byte   W06
 .byte   W06
 .byte   W06
 .byte   W06
 .byte   W06
 .byte   W06
 .byte   W06
 .byte   W06
 .byte   W06
 .byte   W06
 .byte   W06
 .byte   PEND 
@ 012   ----------------------------------------
 .byte   W92
 .byte   W03
 .byte   EOT
 .byte   W01
@ 013   ----------------------------------------
 .byte   W96
@ 014   ----------------------------------------
 .byte   W96
@ 015   ----------------------------------------
 .byte   W96
@ 016   ----------------------------------------
 .byte   W96
@ 017   ----------------------------------------
 .byte   W96
@ 018   ----------------------------------------
 .byte   W96
@ 019   ----------------------------------------
 .byte   W96
@ 020   ----------------------------------------
 .byte   W96
@ 021   ----------------------------------------
 .byte   W96
@ 022   ----------------------------------------
 .byte   W96
@ 023   ----------------------------------------
 .byte   W96
@ 024   ----------------------------------------
 .byte   W96
@ 025   ----------------------------------------
 .byte   W96
@ 026   ----------------------------------------
 .byte   W48
 .byte   N44 ,As2
 .byte   W48
@ 027   ----------------------------------------
 .byte   PATT
  .word Label_10_5477AF
@ 028   ----------------------------------------
 .byte   W92
 .byte   W03
 .byte   EOT
 .byte   Gs2
 .byte   W01
@ 029   ----------------------------------------
 .byte   W96
@ 030   ----------------------------------------
 .byte   W96
@ 031   ----------------------------------------
 .byte   W96
@ 032   ----------------------------------------
 .byte   W96
@ 033   ----------------------------------------
 .byte   W96
@ 034   ----------------------------------------
 .byte   W96
@ 035   ----------------------------------------
 .byte   W96
@ 036   ----------------------------------------
 .byte   W96
@ 037   ----------------------------------------
 .byte   N92 ,Bn2 ,v064
 .byte   W96
@ 038   ----------------------------------------
 .byte   N92
 .byte   W96
@ 039   ----------------------------------------
 .byte   As2
 .byte   W96
@ 040   ----------------------------------------
Label_10_5477F2:
 .byte   N23 ,Gs2 ,v064
 .byte   W36
 .byte   As2
 .byte   W36
 .byte   Bn2
 .byte   W24
 .byte   PEND 
@ 041   ----------------------------------------
 .byte   N92
 .byte   W96
@ 042   ----------------------------------------
 .byte   N92
 .byte   W96
@ 043   ----------------------------------------
 .byte   As2
 .byte   W96
@ 044   ----------------------------------------
 .byte   PATT
  .word Label_10_5477F2
@ 045   ----------------------------------------
 .byte   N92 ,Bn2 ,v064
 .byte   W96
@ 046   ----------------------------------------
 .byte   N92
 .byte   W96
@ 047   ----------------------------------------
 .byte   As2
 .byte   W96
@ 048   ----------------------------------------
Label_10_54780E:
 .byte   N11 ,Gs2 ,v064
 .byte   W24
 .byte   N11
 .byte   W24
 .byte   N11
 .byte   W24
 .byte   N11
 .byte   W24
 .byte   PEND 
@ 049   ----------------------------------------
 .byte   N92 ,As2
 .byte   W96
@ 050   ----------------------------------------
 .byte   PATT
  .word Label_10_54780E
@ 051   ----------------------------------------
 .byte   W96
@ 052   ----------------------------------------
 .byte   W96
@ 053   ----------------------------------------
 .byte   W96
@ 054   ----------------------------------------
 .byte   W96
@ 055   ----------------------------------------
 .byte   W96
@ 056   ----------------------------------------
 .byte   W96
@ 057   ----------------------------------------
 .byte   W96
@ 058   ----------------------------------------
 .byte   W96
@ 059   ----------------------------------------
 .byte   W96
@ 060   ----------------------------------------
 .byte   W96
@ 061   ----------------------------------------
 .byte   W96
@ 062   ----------------------------------------
 .byte   W96
@ 063   ----------------------------------------
 .byte   W96
@ 064   ----------------------------------------
 .byte   W96
@ 065   ----------------------------------------
 .byte   W96
@ 066   ----------------------------------------
 .byte   W96
@ 067   ----------------------------------------
 .byte   W96
@ 068   ----------------------------------------
 .byte   W96
@ 069   ----------------------------------------
 .byte   W96
@ 070   ----------------------------------------
 .byte   W96
@ 071   ----------------------------------------
 .byte   GOTO
  .word Label_10_54779A
 .byte   FINE

@******************************************************@
	.align	2

song02:
	.byte	11	@ NumTrks
	.byte	0	@ NumBlks
	.byte	song02_pri	@ Priority
	.byte	song02_rev	@ Reverb.
    
	.word	song02_grp
    
	.word	song02_001
	.word	song02_002
	.word	song02_003
	.word	song02_004
	.word	song02_005
	.word	song02_006
	.word	song02_007
	.word	song02_008
	.word	song02_009
	.word	song02_010
	.word	song02_011

	.end
