	.include "MPlayDef.s"

	.equ	song64_grp, voicegroup000
	.equ	song64_pri, 0
	.equ	song64_rev, 0
	.equ	song64_mvl, 127
	.equ	song64_key, 0
	.equ	song64_tbs, 1
	.equ	song64_exg, 0
	.equ	song64_cmp, 1

	.section .rodata
	.global	song64
	.align	2


@**************** Track 1 (Midi-Chn.0) ****************@

song64_001:
@ 000   ----------------------------------------
 .byte   KEYSH , song64_key+0
Label_0_01177CBE:
 .byte   TEMPO , 80*song64_tbs/2
 .byte   VOICE , 4
 .byte   VOL , 30*song64_mvl/mxv
 .byte   PAN , c_v+0
 .byte   VOL , 30*song64_mvl/mxv
 .byte   PAN , c_v+0
 .byte   N11 ,Fs3 ,v060
 .byte   W12
 .byte   Cs4
 .byte   W12
 .byte   An3
 .byte   W12
 .byte   N56 ,Fs3
 .byte   N56 ,Bn3
 .byte   W60
@ 001   ----------------------------------------
 .byte   N11 ,Fs3
 .byte   W12
 .byte   Cs4
 .byte   W12
 .byte   An3
 .byte   W12
 .byte   Bn3
 .byte   W12
 .byte   An3
 .byte   W12
 .byte   N32 ,Fs3
 .byte   W36
@ 002   ----------------------------------------
 .byte   N11
 .byte   W12
 .byte   Cs4
 .byte   W12
 .byte   An3
 .byte   W12
 .byte   N56 ,Fs3
 .byte   N56 ,Bn3
 .byte   W60
@ 003   ----------------------------------------
 .byte   N11 ,Fs3
 .byte   W12
 .byte   An3
 .byte   W12
 .byte   En4
 .byte   W12
 .byte   N20 ,Cs4
 .byte   W24
 .byte   N11 ,Cs3
 .byte   N11 ,Gs4
 .byte   W12
 .byte   En3
 .byte   N11 ,Gs3
 .byte   N11 ,Bn3
 .byte   N11 ,Gs4
 .byte   W12
 .byte   An3
 .byte   N11 ,An4
 .byte   W12
@ 004   ----------------------------------------
 .byte   Fs4
 .byte   W12
 .byte   Cs5
 .byte   W12
 .byte   An4
 .byte   W12
 .byte   N68 ,Gn3
 .byte   N68 ,Dn4
 .byte   N68 ,Fs4
 .byte   N68 ,Bn4
 .byte   W60
@ 005   ----------------------------------------
 .byte   W12
 .byte   N11 ,Cs5
 .byte   W12
 .byte   Bn4
 .byte   W12
 .byte   An4
 .byte   W12
 .byte   Fs4
 .byte   W12
 .byte   N20 ,En4
 .byte   W24
 .byte   N44 ,Dn3
 .byte   N44 ,An3
 .byte   N44 ,Cs4
 .byte   N44 ,Fs4
 .byte   W12
@ 006   ----------------------------------------
 .byte   W36
 .byte   N20 ,Bn3
 .byte   N20 ,Fs4
 .byte   W24
 .byte   N11 ,En4
 .byte   W12
 .byte   Fs3
 .byte   N11 ,Fs4
 .byte   W12
 .byte   N32 ,En3
 .byte   N32 ,En4
 .byte   W12
@ 007   ----------------------------------------
 .byte   W24
 .byte   N11 ,An3
 .byte   W12
 .byte   N42 ,Bn3
 .byte   W60
@ 008   ----------------------------------------
 .byte   W96
@ 009   ----------------------------------------
 .byte   W96
@ 010   ----------------------------------------
 .byte   W96
@ 011   ----------------------------------------
 .byte   W96
@ 012   ----------------------------------------
 .byte   W60
 .byte   N11 ,An2 ,v076
 .byte   W12
 .byte   N20 ,Bn2
 .byte   W24
@ 013   ----------------------------------------
 .byte   W96
@ 014   ----------------------------------------
 .byte   W96
@ 015   ----------------------------------------
 .byte   W96
@ 016   ----------------------------------------
Label_0_01177D58:
 .byte   W36
 .byte   N20 ,Fs3 ,v076
 .byte   W24
 .byte   N11 ,En3
 .byte   W12
 .byte   Fs3
 .byte   W12
 .byte   N32 ,Bn3
 .byte   W12
 .byte   PEND 
@ 017   ----------------------------------------
 .byte   W24
 .byte   N11 ,Fs3
 .byte   W12
 .byte   N56 ,An3
 .byte   W60
@ 018   ----------------------------------------
 .byte   PATT
  .word Label_0_01177D58
@ 019   ----------------------------------------
 .byte   W24
 .byte   N11 ,Fs3 ,v076
 .byte   W12
 .byte   N92 ,An3
 .byte   W60
@ 020   ----------------------------------------
 .byte   PATT
  .word Label_0_01177D58
@ 021   ----------------------------------------
 .byte   W24
 .byte   N11 ,Fs3 ,v076
 .byte   W12
 .byte   N68 ,An3
 .byte   W60
@ 022   ----------------------------------------
 .byte   W12
 .byte   N11 ,Bn3
 .byte   W12
 .byte   Dn4
 .byte   W12
 .byte   Cs4
 .byte   W12
 .byte   An3
 .byte   W12
 .byte   N44 ,En3
 .byte   W36
@ 023   ----------------------------------------
 .byte   W24
 .byte   N11
 .byte   W12
 .byte   Fs3
 .byte   W60
@ 024   ----------------------------------------
 .byte   W96
@ 025   ----------------------------------------
 .byte   W96
@ 026   ----------------------------------------
 .byte   W96
@ 027   ----------------------------------------
 .byte   W96
@ 028   ----------------------------------------
 .byte   W96
@ 029   ----------------------------------------
 .byte   W96
@ 030   ----------------------------------------
 .byte   W96
@ 031   ----------------------------------------
 .byte   W96
@ 032   ----------------------------------------
 .byte   W96
@ 033   ----------------------------------------
 .byte   W96
@ 034   ----------------------------------------
 .byte   W96
@ 035   ----------------------------------------
 .byte   W96
@ 036   ----------------------------------------
 .byte   W96
@ 037   ----------------------------------------
 .byte   W96
@ 038   ----------------------------------------
 .byte   W96
@ 039   ----------------------------------------
 .byte   W96
@ 040   ----------------------------------------
 .byte   W96
@ 041   ----------------------------------------
 .byte   W96
@ 042   ----------------------------------------
 .byte   W84
 .byte   N23 ,Gn3 ,v108
 .byte   N23 ,Cn4
 .byte   N23 ,Ds4
 .byte   W12
@ 043   ----------------------------------------
 .byte   W12
 .byte   N20 ,Cn4
 .byte   N20 ,Ds4
 .byte   N20 ,Gn4
 .byte   W72
 .byte   N11 ,Dn3
 .byte   N11 ,Gn3
 .byte   N11 ,Dn4
 .byte   N11 ,Fn4
 .byte   W12
@ 044   ----------------------------------------
 .byte   Dn3
 .byte   N11 ,As3
 .byte   N11 ,Dn4
 .byte   N11 ,Fn4
 .byte   W12
 .byte   Dn3
 .byte   N11 ,Gn3
 .byte   N11 ,Dn4
 .byte   N11 ,Fn4
 .byte   W84
@ 045   ----------------------------------------
 .byte   W96
@ 046   ----------------------------------------
 .byte   W96
@ 047   ----------------------------------------
 .byte   W96
@ 048   ----------------------------------------
 .byte   W48
 .byte   TEMPO , 64*song64_tbs/2
 .byte   W48
@ 049   ----------------------------------------
 .byte   W96
@ 050   ----------------------------------------
 .byte   W96
@ 051   ----------------------------------------
 .byte   W96
@ 052   ----------------------------------------
 .byte   GOTO
  .word Label_0_01177CBE
@ 053   ----------------------------------------
 .byte   W60
 .byte   W03
 .byte   FINE

@**************** Track 2 (Midi-Chn.1) ****************@

song64_002:
@ 000   ----------------------------------------
 .byte   KEYSH , song64_key+0
Label_1_01177DEA:
 .byte   VOICE , 4
 .byte   VOL , 30*song64_mvl/mxv
 .byte   PAN , c_v+0
 .byte   VOL , 30*song64_mvl/mxv
 .byte   PAN , c_v+0
 .byte   W36
 .byte   N56 ,Gn2 ,v060
 .byte   W60
@ 001   ----------------------------------------
 .byte   W36
 .byte   Fs2
 .byte   N56 ,Cs3
 .byte   N56 ,En3
 .byte   W60
@ 002   ----------------------------------------
 .byte   W36
 .byte   Gn2
 .byte   W60
@ 003   ----------------------------------------
 .byte   W36
 .byte   N20 ,Fs2
 .byte   W12
 .byte   Cs3
 .byte   W36
 .byte   N54 ,Fs2
 .byte   N54 ,Fs3
 .byte   W12
@ 004   ----------------------------------------
 .byte   W96
@ 005   ----------------------------------------
 .byte   W36
 .byte   N20 ,An3
 .byte   N20 ,Cs4
 .byte   W60
@ 006   ----------------------------------------
 .byte   W36
 .byte   N42 ,Gn2
 .byte   W48
 .byte   N23 ,Fs2
 .byte   W12
@ 007   ----------------------------------------
 .byte   W24
 .byte   N11 ,An2
 .byte   W12
 .byte   N42 ,Bn1
 .byte   W60
@ 008   ----------------------------------------
 .byte   W96
@ 009   ----------------------------------------
 .byte   W96
@ 010   ----------------------------------------
 .byte   W96
@ 011   ----------------------------------------
 .byte   W96
@ 012   ----------------------------------------
 .byte   W96
@ 013   ----------------------------------------
 .byte   W96
@ 014   ----------------------------------------
 .byte   W96
@ 015   ----------------------------------------
 .byte   W96
@ 016   ----------------------------------------
 .byte   W96
@ 017   ----------------------------------------
 .byte   W96
@ 018   ----------------------------------------
 .byte   W96
@ 019   ----------------------------------------
 .byte   W96
@ 020   ----------------------------------------
 .byte   W96
@ 021   ----------------------------------------
 .byte   W96
@ 022   ----------------------------------------
 .byte   W96
@ 023   ----------------------------------------
 .byte   W96
@ 024   ----------------------------------------
 .byte   W96
@ 025   ----------------------------------------
 .byte   W96
@ 026   ----------------------------------------
 .byte   W96
@ 027   ----------------------------------------
 .byte   W96
@ 028   ----------------------------------------
 .byte   W96
@ 029   ----------------------------------------
 .byte   W96
@ 030   ----------------------------------------
 .byte   W96
@ 031   ----------------------------------------
 .byte   W96
@ 032   ----------------------------------------
 .byte   W96
@ 033   ----------------------------------------
 .byte   W96
@ 034   ----------------------------------------
 .byte   W96
@ 035   ----------------------------------------
 .byte   W96
@ 036   ----------------------------------------
 .byte   W96
@ 037   ----------------------------------------
 .byte   W96
@ 038   ----------------------------------------
 .byte   W96
@ 039   ----------------------------------------
 .byte   W96
@ 040   ----------------------------------------
 .byte   W96
@ 041   ----------------------------------------
 .byte   W96
@ 042   ----------------------------------------
 .byte   W96
@ 043   ----------------------------------------
 .byte   W96
@ 044   ----------------------------------------
 .byte   W96
@ 045   ----------------------------------------
 .byte   W96
@ 046   ----------------------------------------
 .byte   W96
@ 047   ----------------------------------------
 .byte   W96
@ 048   ----------------------------------------
 .byte   W96
@ 049   ----------------------------------------
 .byte   W96
@ 050   ----------------------------------------
 .byte   W96
@ 051   ----------------------------------------
 .byte   W96
@ 052   ----------------------------------------
 .byte   GOTO
  .word Label_1_01177DEA
@ 053   ----------------------------------------
 .byte   W60
 .byte   W03
 .byte   FINE

@**************** Track 3 (Midi-Chn.2) ****************@

song64_003:
@ 000   ----------------------------------------
 .byte   KEYSH , song64_key+0
Label_2_01177E5A:
 .byte   VOICE , 60
 .byte   VOL , 30*song64_mvl/mxv
 .byte   PAN , c_v+0
 .byte   VOL , 30*song64_mvl/mxv
 .byte   PAN , c_v+0
 .byte   W96
@ 001   ----------------------------------------
 .byte   W96
@ 002   ----------------------------------------
 .byte   W96
@ 003   ----------------------------------------
 .byte   W96
@ 004   ----------------------------------------
 .byte   W96
@ 005   ----------------------------------------
 .byte   W96
@ 006   ----------------------------------------
 .byte   W96
@ 007   ----------------------------------------
 .byte   W60
 .byte   N24 ,Cs3 ,v076
 .byte   W24
 .byte   Dn3
 .byte   W12
@ 008   ----------------------------------------
 .byte   W12
 .byte   En3
 .byte   W24
 .byte   N48 ,Fs3
 .byte   W48
 .byte   N24 ,Bn2
 .byte   W12
@ 009   ----------------------------------------
 .byte   W12
 .byte   Fs3
 .byte   W24
 .byte   N32 ,En3
 .byte   W36
 .byte   N11 ,Dn3
 .byte   W12
 .byte   N23 ,Cs3
 .byte   W12
@ 010   ----------------------------------------
 .byte   W60
 .byte   N17 ,Fs3
 .byte   W18
 .byte   N05
 .byte   W06
 .byte   N44
 .byte   W12
@ 011   ----------------------------------------
 .byte   W36
 .byte   N32 ,Gs3
 .byte   W36
 .byte   N11 ,An3
 .byte   W12
 .byte   N44 ,Cs3
 .byte   W12
@ 012   ----------------------------------------
 .byte   W96
@ 013   ----------------------------------------
 .byte   W96
@ 014   ----------------------------------------
 .byte   W96
@ 015   ----------------------------------------
 .byte   W96
@ 016   ----------------------------------------
 .byte   W96
@ 017   ----------------------------------------
 .byte   W96
@ 018   ----------------------------------------
 .byte   W96
@ 019   ----------------------------------------
 .byte   W96
@ 020   ----------------------------------------
 .byte   W96
@ 021   ----------------------------------------
 .byte   W96
@ 022   ----------------------------------------
 .byte   W96
@ 023   ----------------------------------------
 .byte   W96
@ 024   ----------------------------------------
 .byte   W12
 .byte   N24 ,Fs3
 .byte   W24
 .byte   N68
 .byte   W60
@ 025   ----------------------------------------
 .byte   W96
@ 026   ----------------------------------------
 .byte   W96
@ 027   ----------------------------------------
 .byte   W96
@ 028   ----------------------------------------
 .byte   W96
@ 029   ----------------------------------------
 .byte   W96
@ 030   ----------------------------------------
 .byte   W96
@ 031   ----------------------------------------
 .byte   W96
@ 032   ----------------------------------------
 .byte   W96
@ 033   ----------------------------------------
 .byte   W96
@ 034   ----------------------------------------
 .byte   W96
@ 035   ----------------------------------------
 .byte   W96
@ 036   ----------------------------------------
Label_2_01177EB6:
 .byte   W12
 .byte   N11 ,Dn3 ,v092
 .byte   W12
 .byte   Fn3
 .byte   W12
 .byte   N68 ,Gn3
 .byte   W60
 .byte   PEND 
@ 037   ----------------------------------------
 .byte   PATT
  .word Label_2_01177EB6
@ 038   ----------------------------------------
 .byte   W12
 .byte   N11 ,Dn3 ,v092
 .byte   W12
 .byte   Fn3
 .byte   W12
 .byte   TIE ,Gn3
 .byte   W60
@ 039   ----------------------------------------
 .byte   W92
 .byte   EOT
 .byte   W04
@ 040   ----------------------------------------
 .byte   W36
 .byte   N92
 .byte   W60
@ 041   ----------------------------------------
 .byte   W36
 .byte   N32 ,Fn3
 .byte   W36
 .byte   N11 ,Ds3
 .byte   W12
 .byte   N44 ,Dn3
 .byte   W12
@ 042   ----------------------------------------
 .byte   W60
 .byte   N68 ,Gn3
 .byte   W36
@ 043   ----------------------------------------
 .byte   W36
 .byte   N32 ,An3
 .byte   W36
 .byte   N11 ,As3
 .byte   W12
 .byte   N44 ,Dn3
 .byte   W12
@ 044   ----------------------------------------
 .byte   W60
 .byte   N17 ,Ds3
 .byte   W18
 .byte   N05 ,Fn3
 .byte   W06
 .byte   N23 ,Gn3
 .byte   W12
@ 045   ----------------------------------------
 .byte   W96
@ 046   ----------------------------------------
 .byte   W96
@ 047   ----------------------------------------
 .byte   W96
@ 048   ----------------------------------------
 .byte   W96
@ 049   ----------------------------------------
 .byte   W96
@ 050   ----------------------------------------
 .byte   W96
@ 051   ----------------------------------------
 .byte   W96
@ 052   ----------------------------------------
 .byte   GOTO
  .word Label_2_01177E5A
@ 053   ----------------------------------------
 .byte   W60
 .byte   W03
 .byte   FINE

@**************** Track 4 (Midi-Chn.3) ****************@

song64_004:
@ 000   ----------------------------------------
 .byte   KEYSH , song64_key+0
Label_3_01177F0A:
 .byte   VOICE , 47
 .byte   VOL , 30*song64_mvl/mxv
 .byte   PAN , c_v+0
 .byte   VOL , 30*song64_mvl/mxv
 .byte   PAN , c_v+0
 .byte   W96
@ 001   ----------------------------------------
 .byte   W96
@ 002   ----------------------------------------
 .byte   W96
@ 003   ----------------------------------------
 .byte   W96
@ 004   ----------------------------------------
 .byte   W96
@ 005   ----------------------------------------
 .byte   W96
@ 006   ----------------------------------------
 .byte   W96
@ 007   ----------------------------------------
 .byte   W36
 .byte   N20 ,En1 ,v060
 .byte   W24
 .byte   N02 ,En1 ,v048
 .byte   W03
 .byte   N02
 .byte   W03
 .byte   N02
 .byte   W03
 .byte   N02
 .byte   W03
 .byte   N02
 .byte   W03
 .byte   N02
 .byte   W03
 .byte   N02
 .byte   W03
 .byte   N02
 .byte   W03
 .byte   N02
 .byte   W03
 .byte   N02
 .byte   W03
 .byte   N02
 .byte   W03
 .byte   N02
 .byte   W03
@ 008   ----------------------------------------
 .byte   En1 ,v060
 .byte   W03
 .byte   N02
 .byte   W03
 .byte   N02
 .byte   W03
 .byte   N02
 .byte   W03
 .byte   N02
 .byte   W03
 .byte   N02
 .byte   W03
 .byte   N02
 .byte   W03
 .byte   En1 ,v076
 .byte   W03
 .byte   N02
 .byte   W03
 .byte   N02
 .byte   W03
 .byte   N02
 .byte   W03
 .byte   N02
 .byte   W03
 .byte   N11
 .byte   W60
@ 009   ----------------------------------------
 .byte   W96
@ 010   ----------------------------------------
 .byte   W96
@ 011   ----------------------------------------
 .byte   W96
@ 012   ----------------------------------------
 .byte   W96
@ 013   ----------------------------------------
 .byte   W96
@ 014   ----------------------------------------
 .byte   W96
@ 015   ----------------------------------------
 .byte   W96
@ 016   ----------------------------------------
 .byte   W96
@ 017   ----------------------------------------
 .byte   W96
@ 018   ----------------------------------------
 .byte   W96
@ 019   ----------------------------------------
 .byte   W96
@ 020   ----------------------------------------
 .byte   W96
@ 021   ----------------------------------------
 .byte   W96
@ 022   ----------------------------------------
 .byte   W96
@ 023   ----------------------------------------
 .byte   W96
@ 024   ----------------------------------------
 .byte   W96
@ 025   ----------------------------------------
 .byte   W96
@ 026   ----------------------------------------
 .byte   W96
@ 027   ----------------------------------------
 .byte   W96
@ 028   ----------------------------------------
 .byte   W96
@ 029   ----------------------------------------
 .byte   W96
@ 030   ----------------------------------------
 .byte   W96
@ 031   ----------------------------------------
 .byte   W96
@ 032   ----------------------------------------
 .byte   W96
@ 033   ----------------------------------------
 .byte   W96
@ 034   ----------------------------------------
 .byte   W96
@ 035   ----------------------------------------
 .byte   W96
@ 036   ----------------------------------------
 .byte   W96
@ 037   ----------------------------------------
 .byte   W96
@ 038   ----------------------------------------
 .byte   W96
@ 039   ----------------------------------------
 .byte   W96
@ 040   ----------------------------------------
 .byte   W96
@ 041   ----------------------------------------
 .byte   W96
@ 042   ----------------------------------------
 .byte   W96
@ 043   ----------------------------------------
 .byte   W96
@ 044   ----------------------------------------
 .byte   W96
@ 045   ----------------------------------------
 .byte   W96
@ 046   ----------------------------------------
 .byte   W96
@ 047   ----------------------------------------
 .byte   W96
@ 048   ----------------------------------------
 .byte   W48
 .byte   N02 ,En1 ,v060
 .byte   W03
 .byte   N02
 .byte   W03
 .byte   N02
 .byte   W03
 .byte   N02
 .byte   W03
 .byte   N02
 .byte   W03
 .byte   N02
 .byte   W03
 .byte   N02
 .byte   W03
 .byte   N02
 .byte   W03
 .byte   N02
 .byte   W03
 .byte   N02
 .byte   W03
 .byte   N02
 .byte   W03
 .byte   N02
 .byte   W03
 .byte   N02
 .byte   W03
 .byte   N02
 .byte   W03
 .byte   N02
 .byte   W03
 .byte   N02
 .byte   W03
@ 049   ----------------------------------------
 .byte   N02
 .byte   W03
 .byte   N02
 .byte   W03
 .byte   N02
 .byte   W03
 .byte   N02
 .byte   W03
 .byte   N02
 .byte   W03
 .byte   N02
 .byte   W03
 .byte   N02
 .byte   W03
 .byte   N02
 .byte   W03
 .byte   N02
 .byte   W03
 .byte   N02
 .byte   W03
 .byte   N02
 .byte   W03
 .byte   N02
 .byte   W03
 .byte   N02
 .byte   W03
 .byte   N02
 .byte   W03
 .byte   N02
 .byte   W03
 .byte   N02
 .byte   W03
 .byte   N02
 .byte   W03
 .byte   N02
 .byte   W03
 .byte   N02
 .byte   W03
 .byte   N02
 .byte   W03
 .byte   N02
 .byte   W03
 .byte   N02
 .byte   W03
 .byte   N02
 .byte   W03
 .byte   N02
 .byte   W03
 .byte   N02
 .byte   W03
 .byte   N02
 .byte   W03
 .byte   N02
 .byte   W03
 .byte   N02
 .byte   W03
 .byte   N02
 .byte   W03
 .byte   N02
 .byte   W03
 .byte   N02
 .byte   W03
 .byte   N02
 .byte   W03
@ 050   ----------------------------------------
 .byte   N02
 .byte   W03
 .byte   N02
 .byte   W03
 .byte   N02
 .byte   W03
 .byte   N02
 .byte   W03
 .byte   N02
 .byte   W03
 .byte   N02
 .byte   W03
 .byte   N02
 .byte   W03
 .byte   N02
 .byte   W03
 .byte   N02
 .byte   W03
 .byte   N02
 .byte   W03
 .byte   N02
 .byte   W03
 .byte   N02
 .byte   W03
 .byte   N02
 .byte   W03
 .byte   N02
 .byte   W03
 .byte   N02
 .byte   W03
 .byte   N02
 .byte   W03
 .byte   N02
 .byte   W03
 .byte   N02
 .byte   W03
 .byte   N02
 .byte   W03
 .byte   N02
 .byte   W03
 .byte   N02
 .byte   W03
 .byte   N02
 .byte   W03
 .byte   N02
 .byte   W03
 .byte   N02
 .byte   W03
 .byte   En1 ,v076
 .byte   W03
 .byte   N02
 .byte   W03
 .byte   N02
 .byte   W03
 .byte   N02
 .byte   W03
 .byte   N02
 .byte   W03
 .byte   N02
 .byte   W03
 .byte   N02
 .byte   W03
 .byte   N02
 .byte   W03
@ 051   ----------------------------------------
 .byte   N02
 .byte   W03
 .byte   N02
 .byte   W03
 .byte   N02
 .byte   W03
 .byte   N02
 .byte   W03
 .byte   N02
 .byte   W03
 .byte   N02
 .byte   W03
 .byte   N02
 .byte   W03
 .byte   N02
 .byte   W03
 .byte   En1 ,v092
 .byte   W03
 .byte   N02
 .byte   W03
 .byte   N02
 .byte   W03
 .byte   N02
 .byte   W03
 .byte   N02
 .byte   W03
 .byte   N02
 .byte   W03
 .byte   N02
 .byte   W03
 .byte   N02
 .byte   W03
 .byte   N02
 .byte   W03
 .byte   N02
 .byte   W03
 .byte   N02
 .byte   W03
 .byte   N02
 .byte   W03
 .byte   N02
 .byte   W03
 .byte   N02
 .byte   W03
 .byte   N02
 .byte   W03
 .byte   N90 ,Cn1
 .byte   N90 ,En1
 .byte   W24
 .byte   W03
@ 052   ----------------------------------------
 .byte   GOTO
  .word Label_3_01177F0A
@ 053   ----------------------------------------
 .byte   W60
 .byte   W03
 .byte   FINE

@**************** Track 5 (Midi-Chn.4) ****************@

song64_005:
@ 000   ----------------------------------------
 .byte   KEYSH , song64_key+0
Label_4_01178062:
 .byte   VOICE , 48
 .byte   VOL , 30*song64_mvl/mxv
 .byte   PAN , c_v+0
 .byte   VOL , 30*song64_mvl/mxv
 .byte   PAN , c_v+0
 .byte   W96
@ 001   ----------------------------------------
 .byte   W96
@ 002   ----------------------------------------
 .byte   W96
@ 003   ----------------------------------------
 .byte   W96
@ 004   ----------------------------------------
 .byte   W96
@ 005   ----------------------------------------
 .byte   W96
@ 006   ----------------------------------------
 .byte   W96
@ 007   ----------------------------------------
 .byte   W96
@ 008   ----------------------------------------
Label_4_01178074:
 .byte   N11 ,Fs4 ,v092
 .byte   W12
 .byte   Cs5
 .byte   W12
 .byte   An4
 .byte   W12
 .byte   N56 ,Bn4
 .byte   W60
 .byte   PEND 
@ 009   ----------------------------------------
 .byte   N11 ,Fs4
 .byte   W12
 .byte   Cs5
 .byte   W12
 .byte   An4
 .byte   W12
 .byte   Bn4
 .byte   W12
 .byte   An4
 .byte   W12
 .byte   N32 ,Fs4
 .byte   W36
@ 010   ----------------------------------------
 .byte   PATT
  .word Label_4_01178074
@ 011   ----------------------------------------
 .byte   N11 ,Fs4 ,v092
 .byte   W12
 .byte   An4
 .byte   W12
 .byte   En5
 .byte   W12
 .byte   N56 ,Cs5
 .byte   W60
@ 012   ----------------------------------------
 .byte   N11 ,Fs4
 .byte   W12
 .byte   Cs5
 .byte   W12
 .byte   An4
 .byte   W12
 .byte   N68 ,Bn4
 .byte   W60
@ 013   ----------------------------------------
 .byte   W12
 .byte   N12 ,Cs5
 .byte   W12
 .byte   Bn4
 .byte   W12
 .byte   An4
 .byte   W12
 .byte   Fs4
 .byte   W12
 .byte   N24 ,En4
 .byte   W24
 .byte   N44 ,Fs4
 .byte   W12
@ 014   ----------------------------------------
 .byte   W36
 .byte   N24
 .byte   W24
 .byte   N12 ,En4
 .byte   W12
 .byte   Fs4
 .byte   W12
 .byte   N36 ,En4
 .byte   W12
@ 015   ----------------------------------------
 .byte   W24
 .byte   N12 ,An3
 .byte   W12
 .byte   N92 ,Bn3
 .byte   W60
@ 016   ----------------------------------------
 .byte   W96
@ 017   ----------------------------------------
 .byte   W60
 .byte   N11 ,An2 ,v076
 .byte   W12
 .byte   Bn2
 .byte   W12
 .byte   Cs3
 .byte   W12
@ 018   ----------------------------------------
 .byte   Dn3
 .byte   W12
 .byte   Cs3
 .byte   W12
 .byte   An2
 .byte   W12
 .byte   N20 ,Bn2
 .byte   W60
@ 019   ----------------------------------------
 .byte   W48
 .byte   N11 ,Fs3
 .byte   W12
 .byte   N11
 .byte   W12
 .byte   En3
 .byte   W12
 .byte   N11
 .byte   W12
@ 020   ----------------------------------------
 .byte   Dn3
 .byte   W12
 .byte   N11
 .byte   W12
 .byte   Cs3
 .byte   W12
 .byte   N42 ,Bn2
 .byte   W60
@ 021   ----------------------------------------
 .byte   W48
 .byte   N36 ,Fs2 ,v092
 .byte   W36
 .byte   N12 ,En2
 .byte   W12
@ 022   ----------------------------------------
 .byte   Fs2
 .byte   W12
 .byte   N24 ,Bn1
 .byte   W24
 .byte   N72 ,Dn2
 .byte   W60
@ 023   ----------------------------------------
 .byte   W12
 .byte   N12 ,Cs2
 .byte   W12
 .byte   Dn2
 .byte   W12
 .byte   Cs2
 .byte   W12
 .byte   An1
 .byte   W12
 .byte   N32 ,Fs1
 .byte   W36
@ 024   ----------------------------------------
 .byte   W96
@ 025   ----------------------------------------
 .byte   W96
@ 026   ----------------------------------------
 .byte   N11 ,Dn1 ,v108
 .byte   W12
 .byte   Gn1
 .byte   W12
 .byte   An1
 .byte   W12
 .byte   N92 ,Bn1
 .byte   W60
@ 027   ----------------------------------------
 .byte   W36
 .byte   N20
 .byte   W24
 .byte   Fs1
 .byte   W24
 .byte   N23 ,Bn1
 .byte   W12
@ 028   ----------------------------------------
 .byte   W12
 .byte   N20 ,An1
 .byte   W24
 .byte   N56 ,Gn1
 .byte   W60
@ 029   ----------------------------------------
 .byte   N11
 .byte   W12
 .byte   N20 ,Dn1
 .byte   W24
 .byte   N42 ,Gn1
 .byte   W60
@ 030   ----------------------------------------
 .byte   W96
@ 031   ----------------------------------------
 .byte   W96
@ 032   ----------------------------------------
 .byte   W36
 .byte   N56 ,Dn4 ,v092
 .byte   W60
@ 033   ----------------------------------------
 .byte   N11 ,Cn4
 .byte   W12
 .byte   Dn4
 .byte   W12
 .byte   Gn4
 .byte   W12
 .byte   N24 ,Fn4
 .byte   W24
 .byte   W03
 .byte   N05 ,Gn4
 .byte   W06
 .byte   Fn4
 .byte   W06
 .byte   Cn4
 .byte   W06
 .byte   N23 ,Dn4
 .byte   W15
@ 034   ----------------------------------------
 .byte   W09
 .byte   N11
 .byte   W12
 .byte   Fn4
 .byte   W12
 .byte   N56 ,Gn4
 .byte   W60
 .byte   N11 ,Fn4
 .byte   W03
@ 035   ----------------------------------------
 .byte   W09
 .byte   Gn4
 .byte   W12
 .byte   Cn5
 .byte   W12
 .byte   N32 ,Gn4
 .byte   W36
 .byte   N11 ,Fn4
 .byte   W12
 .byte   N23
 .byte   W15
@ 036   ----------------------------------------
 .byte   W96
@ 037   ----------------------------------------
 .byte   W96
@ 038   ----------------------------------------
 .byte   W96
@ 039   ----------------------------------------
 .byte   W96
@ 040   ----------------------------------------
Label_4_01178169:
 .byte   N11 ,Gn4 ,v108
 .byte   W12
 .byte   Dn5
 .byte   W12
 .byte   As4
 .byte   W12
 .byte   N56 ,Cn5
 .byte   W60
 .byte   PEND 
@ 041   ----------------------------------------
 .byte   N11 ,Gn4
 .byte   W12
 .byte   Dn5
 .byte   W12
 .byte   As4
 .byte   W12
 .byte   Cn5
 .byte   W12
 .byte   As4
 .byte   W12
 .byte   N32 ,Gn4
 .byte   W36
@ 042   ----------------------------------------
 .byte   PATT
  .word Label_4_01178169
@ 043   ----------------------------------------
 .byte   N11 ,Gn4 ,v108
 .byte   W12
 .byte   As4
 .byte   W12
 .byte   Fn5
 .byte   W12
 .byte   N56 ,Dn5
 .byte   W60
@ 044   ----------------------------------------
 .byte   N11 ,Gn4
 .byte   W12
 .byte   Dn5
 .byte   W12
 .byte   As4
 .byte   W12
 .byte   N68 ,Cn5
 .byte   W60
@ 045   ----------------------------------------
 .byte   W12
 .byte   N12 ,Dn5
 .byte   W12
 .byte   Cn5
 .byte   W12
 .byte   As4
 .byte   W12
 .byte   Gn4
 .byte   W12
 .byte   N24 ,Fn4
 .byte   W24
 .byte   N44 ,Gn4
 .byte   W12
@ 046   ----------------------------------------
 .byte   W96
@ 047   ----------------------------------------
 .byte   W36
 .byte   N24 ,Cn5 ,v092
 .byte   W24
 .byte   N12 ,Dn5
 .byte   W12
 .byte   As4
 .byte   W12
 .byte   Fn5
 .byte   W12
@ 048   ----------------------------------------
 .byte   Dn5
 .byte   W12
 .byte   N32 ,Gn4
 .byte   W84
@ 049   ----------------------------------------
 .byte   W96
@ 050   ----------------------------------------
 .byte   W96
@ 051   ----------------------------------------
 .byte   W96
@ 052   ----------------------------------------
 .byte   GOTO
  .word Label_4_01178062
@ 053   ----------------------------------------
 .byte   W60
 .byte   W03
 .byte   FINE

@**************** Track 6 (Midi-Chn.5) ****************@

song64_006:
@ 000   ----------------------------------------
 .byte   KEYSH , song64_key+0
Label_5_011781CE:
 .byte   VOICE , 58
 .byte   VOL , 30*song64_mvl/mxv
 .byte   PAN , c_v+0
 .byte   VOL , 30*song64_mvl/mxv
 .byte   PAN , c_v+0
 .byte   W96
@ 001   ----------------------------------------
 .byte   W96
@ 002   ----------------------------------------
 .byte   W96
@ 003   ----------------------------------------
 .byte   W96
@ 004   ----------------------------------------
 .byte   W96
@ 005   ----------------------------------------
 .byte   W96
@ 006   ----------------------------------------
 .byte   W96
@ 007   ----------------------------------------
 .byte   W84
 .byte   N44 ,Bn0 ,v060
 .byte   N44 ,Fs2
 .byte   W12
@ 008   ----------------------------------------
 .byte   W36
 .byte   N68 ,Gn1 ,v076
 .byte   W48
 .byte   N23 ,Gn2
 .byte   W12
@ 009   ----------------------------------------
 .byte   W12
 .byte   N20 ,Gn1
 .byte   N20 ,Fs2
 .byte   N20 ,An2
 .byte   W24
 .byte   Fs1
 .byte   N20 ,An2
 .byte   W24
 .byte   Fs1
 .byte   N20 ,Fs2
 .byte   W24
 .byte   N23 ,Fs1
 .byte   N23 ,An2
 .byte   W12
@ 010   ----------------------------------------
 .byte   W12
 .byte   N20 ,Fs1
 .byte   N20 ,Cs2
 .byte   W24
 .byte   N92 ,Gn1
 .byte   N92 ,Gn2
 .byte   W60
@ 011   ----------------------------------------
 .byte   W36
 .byte   N42 ,Fs1
 .byte   N42 ,Fs2
 .byte   W48
 .byte   N44 ,Fs1
 .byte   N44 ,Fs2
 .byte   W12
@ 012   ----------------------------------------
 .byte   W36
 .byte   N92 ,Gn1
 .byte   W60
@ 013   ----------------------------------------
 .byte   W96
@ 014   ----------------------------------------
 .byte   W96
@ 015   ----------------------------------------
 .byte   W96
@ 016   ----------------------------------------
 .byte   W96
@ 017   ----------------------------------------
 .byte   W96
@ 018   ----------------------------------------
 .byte   W96
@ 019   ----------------------------------------
 .byte   W96
@ 020   ----------------------------------------
 .byte   W96
@ 021   ----------------------------------------
 .byte   W96
@ 022   ----------------------------------------
 .byte   W84
 .byte   TIE ,Bn1 ,v048
 .byte   TIE ,Fs2
 .byte   TIE ,An2
 .byte   W12
@ 023   ----------------------------------------
 .byte   W96
@ 024   ----------------------------------------
 .byte   W32
 .byte   EOT
 .byte   Bn1 ,v054
 .byte   An2
 .byte   W04
 .byte   N68 ,Gn2 ,v060
 .byte   W60
@ 025   ----------------------------------------
 .byte   W12
 .byte   N20 ,Dn3
 .byte   W24
 .byte   N56 ,Gn1
 .byte   N56 ,Gn2
 .byte   W60
@ 026   ----------------------------------------
 .byte   N32 ,Gn1
 .byte   N32 ,Gn2
 .byte   W36
 .byte   N92 ,Fs2
 .byte   W60
@ 027   ----------------------------------------
 .byte   W36
 .byte   N42 ,Fs1
 .byte   N92 ,Bn1
 .byte   N92 ,Fs2
 .byte   W48
 .byte   N11 ,Fs1
 .byte   W12
@ 028   ----------------------------------------
 .byte   N32
 .byte   W36
 .byte   N92 ,Bn0
 .byte   N92 ,Bn1
 .byte   W60
@ 029   ----------------------------------------
 .byte   W36
 .byte   Gn1
 .byte   N92 ,Gn2
 .byte   W60
@ 030   ----------------------------------------
 .byte   W36
 .byte   Bn0
 .byte   W60
@ 031   ----------------------------------------
 .byte   W36
 .byte   N92
 .byte   N92 ,Bn1
 .byte   N92 ,Fs2
 .byte   W60
@ 032   ----------------------------------------
 .byte   W96
@ 033   ----------------------------------------
 .byte   W96
@ 034   ----------------------------------------
 .byte   W96
@ 035   ----------------------------------------
 .byte   W80
 .byte   W01
 .byte   N48 ,Fn1
 .byte   N48 ,Cn2
 .byte   N48 ,An2
 .byte   W15
@ 036   ----------------------------------------
 .byte   W36
 .byte   N32 ,Ds1 ,v092
 .byte   N32 ,As2
 .byte   W36
 .byte   N05 ,Ds1
 .byte   N05 ,Ds2
 .byte   N05 ,As2
 .byte   W06
 .byte   Ds1
 .byte   N05 ,Ds2
 .byte   N05 ,As2
 .byte   W06
 .byte   N44 ,Ds1
 .byte   N23 ,Ds2
 .byte   N44 ,As2
 .byte   W12
@ 037   ----------------------------------------
 .byte   W36
 .byte   N32 ,Dn1
 .byte   N32 ,An2
 .byte   W36
 .byte   N05 ,Dn1
 .byte   N05 ,An2
 .byte   W06
 .byte   Dn1
 .byte   N05 ,An2
 .byte   W06
 .byte   N44 ,Dn1
 .byte   N44 ,An2
 .byte   W12
@ 038   ----------------------------------------
 .byte   W36
 .byte   N68 ,Cs1
 .byte   N68 ,Gs2
 .byte   W60
@ 039   ----------------------------------------
 .byte   W12
 .byte   N20 ,Cs1
 .byte   N20 ,Gs2
 .byte   W24
 .byte   N92 ,Cn1
 .byte   N92 ,En2
 .byte   N92 ,Gn2
 .byte   W60
@ 040   ----------------------------------------
 .byte   W36
 .byte   N68 ,Gs1
 .byte   W48
 .byte   N23 ,Gs2
 .byte   W12
@ 041   ----------------------------------------
 .byte   W12
 .byte   N20 ,Gs1
 .byte   N20 ,Gn2
 .byte   N20 ,As2
 .byte   W24
 .byte   Gn1
 .byte   N20 ,As2
 .byte   W24
 .byte   Gn1
 .byte   N20 ,Gn2
 .byte   W24
 .byte   N23 ,Gn1
 .byte   N23 ,As2
 .byte   W12
@ 042   ----------------------------------------
 .byte   W12
 .byte   N20 ,Gn1
 .byte   N20 ,Dn2
 .byte   W24
 .byte   N92 ,Gs1
 .byte   N92 ,Gs2
 .byte   W60
@ 043   ----------------------------------------
 .byte   W36
 .byte   N42 ,Gn1
 .byte   N42 ,Gn2
 .byte   W48
 .byte   N44 ,Gn1
 .byte   N44 ,Gn2
 .byte   W12
@ 044   ----------------------------------------
 .byte   W36
 .byte   N92 ,Gs1
 .byte   W60
@ 045   ----------------------------------------
 .byte   W96
@ 046   ----------------------------------------
 .byte   W96
@ 047   ----------------------------------------
 .byte   W96
@ 048   ----------------------------------------
 .byte   W48
 .byte   N42
 .byte   W48
@ 049   ----------------------------------------
 .byte   Gn1
 .byte   W48
 .byte   N20 ,Cn1
 .byte   N20 ,Cn2
 .byte   W24
 .byte   Cn1
 .byte   N20 ,Cn2
 .byte   W24
@ 050   ----------------------------------------
 .byte   Gs1
 .byte   N20 ,Cn2
 .byte   W24
 .byte   Cn1
 .byte   N20 ,Cn2
 .byte   W24
 .byte   TIE ,Cn1
 .byte   TIE ,Cn2
 .byte   W48
@ 051   ----------------------------------------
 .byte   W80
 .byte   EOT
 .byte   Cn1 ,v048
 .byte   W16
@ 052   ----------------------------------------
 .byte   GOTO
  .word Label_5_011781CE
@ 053   ----------------------------------------
 .byte   W60
 .byte   W03
 .byte   FINE

@**************** Track 7 (Midi-Chn.6) ****************@

song64_007:
@ 000   ----------------------------------------
 .byte   KEYSH , song64_key+0
Label_6_0117831E:
 .byte   VOICE , 48
 .byte   VOL , 30*song64_mvl/mxv
 .byte   PAN , c_v+0
 .byte   VOL , 30*song64_mvl/mxv
 .byte   PAN , c_v+0
 .byte   W96
@ 001   ----------------------------------------
 .byte   W96
@ 002   ----------------------------------------
 .byte   W96
@ 003   ----------------------------------------
 .byte   W96
@ 004   ----------------------------------------
 .byte   W96
@ 005   ----------------------------------------
 .byte   W96
@ 006   ----------------------------------------
 .byte   W96
@ 007   ----------------------------------------
 .byte   W84
 .byte   N44 ,Bn2 ,v060
 .byte   N44 ,Fs3
 .byte   N44 ,Bn3
 .byte   W12
@ 008   ----------------------------------------
 .byte   W36
 .byte   N92 ,Dn3 ,v076
 .byte   N92 ,Fs3
 .byte   N92 ,Gn3
 .byte   N92 ,Bn3
 .byte   N92 ,Dn4
 .byte   W60
@ 009   ----------------------------------------
 .byte   W36
 .byte   N68 ,Cs3
 .byte   N68 ,En3
 .byte   N68 ,Fs3
 .byte   W60
@ 010   ----------------------------------------
 .byte   W12
 .byte   N20 ,En3
 .byte   N20 ,Fs3
 .byte   N20 ,An3
 .byte   N20 ,Bn3
 .byte   W24
 .byte   N42 ,Bn2
 .byte   N42 ,Gn3
 .byte   N42 ,Bn3
 .byte   W48
 .byte   N44 ,Bn2
 .byte   N44 ,Fs3
 .byte   N44 ,Bn3
 .byte   N44 ,Dn4
 .byte   W12
@ 011   ----------------------------------------
 .byte   W36
 .byte   N42 ,Cs3
 .byte   N42 ,Fs3
 .byte   N42 ,Gs3
 .byte   N42 ,Cs4
 .byte   W48
 .byte   N44 ,Cs3
 .byte   N44 ,En3
 .byte   N44 ,Fs3
 .byte   N44 ,An3
 .byte   N44 ,Cs4
 .byte   W12
@ 012   ----------------------------------------
 .byte   W36
 .byte   N92 ,Bn2
 .byte   N92 ,Gn3
 .byte   N92 ,Bn3
 .byte   W60
@ 013   ----------------------------------------
 .byte   W36
 .byte   N42 ,Cs4
 .byte   N42 ,Gn4
 .byte   W48
 .byte   N44 ,Cn4
 .byte   N44 ,Fs4
 .byte   N44 ,An4
 .byte   W12
@ 014   ----------------------------------------
 .byte   W36
 .byte   N42 ,Bn4
 .byte   N42 ,Dn5
 .byte   W48
 .byte   N44 ,An4
 .byte   N44 ,Cs5
 .byte   N44 ,En5
 .byte   W12
@ 015   ----------------------------------------
 .byte   W36
 .byte   N92 ,Fs4
 .byte   W48
 .byte   N44 ,Bn3
 .byte   N44 ,Ds4
 .byte   W12
@ 016   ----------------------------------------
 .byte   W36
 .byte   N04 ,Fs3
 .byte   N04 ,Bn3
 .byte   N04 ,Fs4
 .byte   W12
 .byte   Fs3
 .byte   N04 ,Bn3
 .byte   N04 ,Fs4
 .byte   W12
 .byte   Fs3
 .byte   N04 ,Bn3
 .byte   N04 ,Fs4
 .byte   W12
 .byte   Fs3
 .byte   N04 ,Bn3
 .byte   N04 ,Fs4
 .byte   W12
 .byte   Fs3
 .byte   N04 ,Bn3
 .byte   N04 ,Fs4
 .byte   W12
@ 017   ----------------------------------------
 .byte   W48
 .byte   Gn3
 .byte   N04 ,Bn3
 .byte   N04 ,Fs4
 .byte   N04 ,An4
 .byte   W12
 .byte   Gn3
 .byte   N04 ,Bn3
 .byte   N04 ,Fs4
 .byte   N04 ,An4
 .byte   W12
 .byte   Gn3
 .byte   N04 ,Bn3
 .byte   N04 ,Fs4
 .byte   N04 ,An4
 .byte   W12
 .byte   Gn3
 .byte   N04 ,Bn3
 .byte   N04 ,Fs4
 .byte   N04 ,An4
 .byte   W12
@ 018   ----------------------------------------
 .byte   W36
 .byte   Bn2
 .byte   N04 ,En3
 .byte   N04 ,Fs3
 .byte   N04 ,Bn3
 .byte   W12
 .byte   Bn2
 .byte   N04 ,En3
 .byte   N04 ,Fs3
 .byte   N04 ,Bn3
 .byte   W12
 .byte   Bn2
 .byte   N04 ,En3
 .byte   N04 ,Fs3
 .byte   N04 ,Bn3
 .byte   W12
 .byte   Bn2
 .byte   N04 ,En3
 .byte   N04 ,Fs3
 .byte   N04 ,Bn3
 .byte   W12
 .byte   Bn2
 .byte   N04 ,En3
 .byte   N04 ,Fs3
 .byte   N04 ,Bn3
 .byte   W12
@ 019   ----------------------------------------
 .byte   W48
 .byte   Dn3
 .byte   N04 ,En3
 .byte   N04 ,Fs3
 .byte   W12
 .byte   Dn3
 .byte   N04 ,En3
 .byte   N04 ,Fs3
 .byte   W12
 .byte   Dn3
 .byte   N04 ,En3
 .byte   N04 ,Fs3
 .byte   W12
 .byte   Dn3
 .byte   N04 ,En3
 .byte   N04 ,Fs3
 .byte   W12
@ 020   ----------------------------------------
 .byte   W36
 .byte   Bn2
 .byte   N04 ,Fs3
 .byte   N04 ,Bn3
 .byte   W12
 .byte   Bn2
 .byte   N04 ,Fs3
 .byte   N04 ,Bn3
 .byte   W12
 .byte   Bn2
 .byte   N04 ,Fs3
 .byte   N04 ,Bn3
 .byte   W12
 .byte   Bn2
 .byte   N04 ,Fs3
 .byte   N04 ,Bn3
 .byte   W12
 .byte   Bn2
 .byte   N04 ,Fs3
 .byte   N04 ,Bn3
 .byte   W12
@ 021   ----------------------------------------
 .byte   W96
@ 022   ----------------------------------------
 .byte   W84
 .byte   N11 ,Cs3 ,v048
 .byte   TIE ,Dn3
 .byte   TIE ,An3
 .byte   TIE ,Fs4
 .byte   W12
@ 023   ----------------------------------------
 .byte   Cs3
 .byte   W96
@ 024   ----------------------------------------
 .byte   W32
 .byte   EOT
 .byte   EOT
 .byte   Dn3 ,v069
 .byte   Fs4
 .byte   W04
 .byte   N92 ,Dn3 ,v060
 .byte   N92 ,Fs3
 .byte   N92 ,An3
 .byte   N92 ,Bn3
 .byte   N92 ,Fs4
 .byte   W60
@ 025   ----------------------------------------
 .byte   W36
 .byte   Dn3
 .byte   N92 ,Gn3
 .byte   N92 ,Bn3
 .byte   N92 ,Dn4
 .byte   W60
@ 026   ----------------------------------------
 .byte   W36
 .byte   Bn2
 .byte   N92 ,Fs3
 .byte   N92 ,Bn3
 .byte   N92 ,En4
 .byte   W60
@ 027   ----------------------------------------
 .byte   W36
 .byte   Cs3
 .byte   N92 ,Fs3
 .byte   N92 ,Bn3
 .byte   N92 ,Cs4
 .byte   W60
@ 028   ----------------------------------------
 .byte   W36
 .byte   Bn2
 .byte   N92 ,Dn3
 .byte   N92 ,Fs3
 .byte   N92 ,Bn3
 .byte   N92 ,Fs4
 .byte   W60
@ 029   ----------------------------------------
 .byte   W36
 .byte   Dn3
 .byte   N92 ,Gn3
 .byte   N92 ,Bn3
 .byte   N92 ,Dn4
 .byte   N92 ,Fs4
 .byte   W60
@ 030   ----------------------------------------
 .byte   W36
 .byte   TIE ,Bn2
 .byte   TIE ,An3
 .byte   TIE ,Bn3
 .byte   TIE ,Cs4
 .byte   TIE ,En4
 .byte   N92 ,An4
 .byte   W60
@ 031   ----------------------------------------
 .byte   W36
 .byte   N68 ,Fs3
 .byte   N68 ,Bn4
 .byte   W60
@ 032   ----------------------------------------
 .byte   W11
 .byte   EOT
 .byte   Bn2 ,v069
 .byte   Bn3 ,v073
 .byte   En4
 .byte   W01
 .byte   N20 ,Fs3
 .byte   N20 ,Bn3
 .byte   N20 ,Fs4
 .byte   N20 ,An4
 .byte   N20 ,Dn5
 .byte   N20 ,Fs5
 .byte   W24
 .byte   N11 ,Dn5 ,v076
 .byte   W12
 .byte   N11
 .byte   W12
 .byte   N11
 .byte   W12
 .byte   N11
 .byte   W12
 .byte   N11
 .byte   W12
@ 033   ----------------------------------------
 .byte   W12
 .byte   N20 ,Gn3
 .byte   N20 ,As3
 .byte   N20 ,Dn4
 .byte   W24
 .byte   N36 ,Fn3
 .byte   W44
 .byte   W01
 .byte   N44 ,As3
 .byte   N44 ,Dn4
 .byte   N44 ,Dn5
 .byte   W15
@ 034   ----------------------------------------
 .byte   W32
 .byte   W01
 .byte   N92 ,Gn3
 .byte   N92 ,Gn4
 .byte   W60
 .byte   W03
@ 035   ----------------------------------------
 .byte   W32
 .byte   W01
 .byte   N32 ,Cn4
 .byte   N32 ,Gn4
 .byte   W36
 .byte   N11 ,Cn4
 .byte   N11 ,Fn4
 .byte   W12
 .byte   N24 ,Fn3
 .byte   N24 ,An3
 .byte   N24 ,Cn4
 .byte   N24 ,Fn4
 .byte   W15
@ 036   ----------------------------------------
 .byte   W12
 .byte   N11 ,Cn3 ,v092
 .byte   N11 ,Fn3
 .byte   N11 ,An3
 .byte   N11 ,Dn4
 .byte   W12
 .byte   Cn3
 .byte   N11 ,An3
 .byte   N11 ,Cn4
 .byte   N11 ,Fn4
 .byte   W12
 .byte   N32 ,Ds3
 .byte   N32 ,Gn3
 .byte   N32 ,As3
 .byte   N32 ,Ds4
 .byte   N32 ,Gn4
 .byte   W36
 .byte   N05 ,Ds3
 .byte   N05 ,Gn3
 .byte   N05 ,As3
 .byte   N05 ,Ds4
 .byte   N05 ,Gn4
 .byte   W06
 .byte   Ds3
 .byte   N05 ,Gn3
 .byte   N05 ,As3
 .byte   N05 ,Ds4
 .byte   N05 ,Gn4
 .byte   W06
 .byte   N23 ,Ds3
 .byte   N23 ,Gn3
 .byte   N23 ,As3
 .byte   N23 ,Ds4
 .byte   N23 ,Gn4
 .byte   W12
@ 037   ----------------------------------------
 .byte   W12
 .byte   N11 ,Dn3
 .byte   N11 ,Gn3
 .byte   N11 ,An3
 .byte   N11 ,Dn4
 .byte   W12
 .byte   Cn3
 .byte   N11 ,An3
 .byte   N11 ,Cn4
 .byte   N11 ,Fn4
 .byte   W12
 .byte   N32 ,Cn3
 .byte   N32 ,Dn3
 .byte   N32 ,Fn3
 .byte   N32 ,Gn3
 .byte   N32 ,An3
 .byte   N32 ,Cn4
 .byte   N32 ,Gn4
 .byte   W36
 .byte   N05 ,Cn3
 .byte   N05 ,Dn3
 .byte   N05 ,Fn3
 .byte   N05 ,Gn3
 .byte   N05 ,An3
 .byte   N05 ,Cn4
 .byte   N05 ,Gn4
 .byte   W06
 .byte   Cn3
 .byte   N05 ,Dn3
 .byte   N05 ,Fn3
 .byte   N05 ,Gn3
 .byte   N05 ,An3
 .byte   N05 ,Cn4
 .byte   N05 ,Gn4
 .byte   W06
 .byte   N23 ,Cn3
 .byte   N23 ,Dn3
 .byte   N23 ,Fn3
 .byte   N23 ,Gn3
 .byte   N23 ,An3
 .byte   N23 ,Cn4
 .byte   N23 ,Gn4
 .byte   W12
@ 038   ----------------------------------------
 .byte   W12
 .byte   N11 ,Cn3
 .byte   N11 ,Fn3
 .byte   N11 ,An3
 .byte   N11 ,Dn4
 .byte   W12
 .byte   Cn3
 .byte   N11 ,An3
 .byte   N11 ,Cn4
 .byte   N11 ,Fn4
 .byte   W12
 .byte   N68 ,Cs3
 .byte   N68 ,Ds3
 .byte   N68 ,Gs3
 .byte   N68 ,Gn4
 .byte   W60
@ 039   ----------------------------------------
 .byte   W12
 .byte   N20 ,Cs3
 .byte   N20 ,Ds3
 .byte   N20 ,Gs3
 .byte   N20 ,Gn4
 .byte   W24
 .byte   N92 ,En3
 .byte   N92 ,Gn3
 .byte   N92 ,En4
 .byte   N92 ,Gn4
 .byte   W60
@ 040   ----------------------------------------
 .byte   W36
 .byte   Ds3
 .byte   N92 ,Gn3
 .byte   N92 ,Gs3
 .byte   N92 ,Cn4
 .byte   N92 ,Ds4
 .byte   W60
@ 041   ----------------------------------------
 .byte   W36
 .byte   N68 ,Dn3
 .byte   N68 ,Fn3
 .byte   N68 ,Gn3
 .byte   W60
@ 042   ----------------------------------------
 .byte   W12
 .byte   N20 ,Fn3
 .byte   N20 ,Gn3
 .byte   N20 ,As3
 .byte   N20 ,Cn4
 .byte   W24
 .byte   N42 ,Cn3
 .byte   N42 ,Gs3
 .byte   N42 ,Cn4
 .byte   W48
 .byte   N44 ,Cn3
 .byte   N44 ,Gn3
 .byte   N44 ,Cn4
 .byte   N44 ,Ds4
 .byte   W12
@ 043   ----------------------------------------
 .byte   W36
 .byte   N42 ,Dn3
 .byte   N42 ,Gn3
 .byte   N42 ,An3
 .byte   N42 ,Dn4
 .byte   W48
 .byte   N44 ,Dn3
 .byte   N44 ,Fn3
 .byte   N44 ,Gn3
 .byte   N44 ,As3
 .byte   N44 ,Dn4
 .byte   W12
@ 044   ----------------------------------------
 .byte   W36
 .byte   N92 ,Cn3
 .byte   N92 ,Gs3
 .byte   N92 ,Cn4
 .byte   W60
@ 045   ----------------------------------------
 .byte   W36
 .byte   N42 ,Dn3
 .byte   N42 ,Fn3
 .byte   N42 ,Gn3
 .byte   N42 ,As3
 .byte   W48
 .byte   N44 ,En3
 .byte   N44 ,Gn3
 .byte   N44 ,Cn4
 .byte   W12
@ 046   ----------------------------------------
 .byte   W36
 .byte   N48 ,Gn3 ,v076
 .byte   N48 ,Ds4
 .byte   W48
 .byte   Gs3
 .byte   N48 ,As4
 .byte   W12
@ 047   ----------------------------------------
 .byte   W36
 .byte   N42 ,Cn4
 .byte   N42 ,Ds4
 .byte   W48
 .byte   N23 ,As3
 .byte   N23 ,Dn4
 .byte   W12
@ 048   ----------------------------------------
 .byte   W12
 .byte   N32 ,Gn3
 .byte   N32 ,Ds4
 .byte   W36
 .byte   N42 ,Cn3 ,v092
 .byte   N42 ,Ds3
 .byte   N42 ,Gn3
 .byte   N42 ,Ds4
 .byte   N42 ,Gn4
 .byte   W48
@ 049   ----------------------------------------
 .byte   Ds3
 .byte   N42 ,Fn3
 .byte   N42 ,Gn3
 .byte   N42 ,As3
 .byte   N42 ,Fn4
 .byte   W48
 .byte   TIE ,Cn3
 .byte   TIE ,Gn3
 .byte   TIE ,Cn4
 .byte   TIE ,Dn4
 .byte   TIE ,Gn4
 .byte   TIE ,Cn5
 .byte   W48
@ 050   ----------------------------------------
 .byte   W96
@ 051   ----------------------------------------
 .byte   W80
 .byte   EOT
 .byte   Cn3 ,v067
 .byte   Cn4 ,v074
 .byte   Gn4 ,v084
 .byte   W16
@ 052   ----------------------------------------
 .byte   GOTO
  .word Label_6_0117831E
@ 053   ----------------------------------------
 .byte   W60
 .byte   W03
 .byte   FINE

@**************** Track 8 (Midi-Chn.7) ****************@

song64_008:
@ 000   ----------------------------------------
 .byte   KEYSH , song64_key+0
Label_7_0117866A:
 .byte   VOICE , 46
 .byte   VOL , 30*song64_mvl/mxv
 .byte   PAN , c_v+0
 .byte   VOL , 30*song64_mvl/mxv
 .byte   PAN , c_v+0
 .byte   W96
@ 001   ----------------------------------------
 .byte   W96
@ 002   ----------------------------------------
 .byte   W96
@ 003   ----------------------------------------
 .byte   W96
@ 004   ----------------------------------------
 .byte   W96
@ 005   ----------------------------------------
 .byte   W96
@ 006   ----------------------------------------
 .byte   W96
@ 007   ----------------------------------------
 .byte   W96
@ 008   ----------------------------------------
 .byte   W96
@ 009   ----------------------------------------
 .byte   W96
@ 010   ----------------------------------------
 .byte   W96
@ 011   ----------------------------------------
 .byte   W84
 .byte   N01 ,En5 ,v060
 .byte   W01
 .byte   Dn5
 .byte   W02
 .byte   Cs5
 .byte   W01
 .byte   Bn4
 .byte   W02
 .byte   An4
 .byte   W01
 .byte   Gn4
 .byte   W02
 .byte   Fs4
 .byte   W01
 .byte   En4
 .byte   W02
@ 012   ----------------------------------------
 .byte   Dn4
 .byte   W01
 .byte   Cs4
 .byte   W02
 .byte   Bn3
 .byte   W01
 .byte   An3
 .byte   W02
 .byte   Gn3
 .byte   W01
 .byte   Fs3
 .byte   W02
 .byte   En3
 .byte   W01
 .byte   Dn3
 .byte   W02
 .byte   Cs3
 .byte   W01
 .byte   Bn2
 .byte   W02
 .byte   An2
 .byte   W01
 .byte   Gn2
 .byte   W02
 .byte   Fs2
 .byte   W01
 .byte   En2
 .byte   W02
 .byte   Dn2
 .byte   W01
 .byte   Cs2
 .byte   W02
 .byte   Bn1
 .byte   W72
@ 013   ----------------------------------------
 .byte   W96
@ 014   ----------------------------------------
 .byte   W96
@ 015   ----------------------------------------
 .byte   W36
 .byte   N11 ,Bn2
 .byte   W12
 .byte   En3
 .byte   W12
 .byte   An3
 .byte   W12
 .byte   Fs4
 .byte   W12
 .byte   N44 ,Bn3
 .byte   N44 ,Ds4
 .byte   N44 ,Fs4
 .byte   W12
@ 016   ----------------------------------------
 .byte   W96
@ 017   ----------------------------------------
 .byte   W96
@ 018   ----------------------------------------
 .byte   W96
@ 019   ----------------------------------------
 .byte   W96
@ 020   ----------------------------------------
 .byte   W96
@ 021   ----------------------------------------
 .byte   W96
@ 022   ----------------------------------------
 .byte   W96
@ 023   ----------------------------------------
 .byte   W96
@ 024   ----------------------------------------
 .byte   W96
@ 025   ----------------------------------------
 .byte   W96
@ 026   ----------------------------------------
 .byte   W96
@ 027   ----------------------------------------
 .byte   W96
@ 028   ----------------------------------------
 .byte   W96
@ 029   ----------------------------------------
 .byte   W96
@ 030   ----------------------------------------
 .byte   W96
@ 031   ----------------------------------------
 .byte   W96
@ 032   ----------------------------------------
 .byte   W96
@ 033   ----------------------------------------
 .byte   W96
@ 034   ----------------------------------------
 .byte   W96
@ 035   ----------------------------------------
 .byte   W96
@ 036   ----------------------------------------
 .byte   W96
@ 037   ----------------------------------------
 .byte   W96
@ 038   ----------------------------------------
 .byte   W96
@ 039   ----------------------------------------
 .byte   W96
@ 040   ----------------------------------------
 .byte   W96
@ 041   ----------------------------------------
 .byte   W96
@ 042   ----------------------------------------
 .byte   W96
@ 043   ----------------------------------------
 .byte   W96
@ 044   ----------------------------------------
 .byte   W96
@ 045   ----------------------------------------
 .byte   W96
@ 046   ----------------------------------------
 .byte   W96
@ 047   ----------------------------------------
 .byte   W96
@ 048   ----------------------------------------
 .byte   W18
 .byte   N01 ,Gs2
 .byte   W01
 .byte   As2
 .byte   W02
 .byte   Cn3
 .byte   W01
 .byte   Dn3
 .byte   W02
 .byte   Ds3
 .byte   W01
 .byte   Fn3
 .byte   W02
 .byte   Gn3
 .byte   W01
 .byte   Gs3
 .byte   W02
 .byte   As3
 .byte   W01
 .byte   Cn4
 .byte   W02
 .byte   Dn4
 .byte   W01
 .byte   Ds4
 .byte   W02
 .byte   Fn4
 .byte   W01
 .byte   Gn4
 .byte   W02
 .byte   Gs4
 .byte   W01
 .byte   As4
 .byte   W02
 .byte   N05 ,Cn5
 .byte   W54
@ 049   ----------------------------------------
 .byte   W96
@ 050   ----------------------------------------
 .byte   W96
@ 051   ----------------------------------------
 .byte   W96
@ 052   ----------------------------------------
 .byte   GOTO
  .word Label_7_0117866A
@ 053   ----------------------------------------
 .byte   W60
 .byte   W03
 .byte   FINE

@**************** Track 9 (Midi-Chn.8) ****************@

song64_009:
@ 000   ----------------------------------------
 .byte   KEYSH , song64_key+0
Label_8_0117871A:
 .byte   VOICE , 121
 .byte   VOL , 30*song64_mvl/mxv
 .byte   PAN , c_v+0
 .byte   VOL , 30*song64_mvl/mxv
 .byte   PAN , c_v+0
 .byte   W96
@ 001   ----------------------------------------
 .byte   W96
@ 002   ----------------------------------------
 .byte   W96
@ 003   ----------------------------------------
 .byte   W96
@ 004   ----------------------------------------
 .byte   W96
@ 005   ----------------------------------------
 .byte   W96
@ 006   ----------------------------------------
 .byte   W96
@ 007   ----------------------------------------
 .byte   W96
@ 008   ----------------------------------------
 .byte   W36
 .byte   N42 ,Cs2 ,v112
 .byte   W60
@ 009   ----------------------------------------
 .byte   W96
@ 010   ----------------------------------------
 .byte   W96
@ 011   ----------------------------------------
 .byte   W96
@ 012   ----------------------------------------
 .byte   W96
@ 013   ----------------------------------------
 .byte   W24
 .byte   N11 ,An4
 .byte   W12
 .byte   N11
 .byte   W48
 .byte   N11
 .byte   W12
@ 014   ----------------------------------------
 .byte   W36
 .byte   N42
 .byte   W48
 .byte   N11
 .byte   W12
@ 015   ----------------------------------------
 .byte   W24
 .byte   Gs4
 .byte   W12
 .byte   An4
 .byte   W60
@ 016   ----------------------------------------
 .byte   W96
@ 017   ----------------------------------------
 .byte   W96
@ 018   ----------------------------------------
 .byte   W96
@ 019   ----------------------------------------
 .byte   W96
@ 020   ----------------------------------------
 .byte   W96
@ 021   ----------------------------------------
 .byte   W96
@ 022   ----------------------------------------
 .byte   W96
@ 023   ----------------------------------------
 .byte   W96
@ 024   ----------------------------------------
Label_8_0117874F:
 .byte   W36
 .byte   N20 ,Gs4 ,v076
 .byte   W24
 .byte   N11
 .byte   W12
 .byte   N11
 .byte   W12
 .byte   N32 ,An4
 .byte   W12
 .byte   PEND 
@ 025   ----------------------------------------
Label_8_0117875C:
 .byte   W24
 .byte   N11 ,Gs4 ,v076
 .byte   W12
 .byte   N11
 .byte   W60
 .byte   PEND 
@ 026   ----------------------------------------
 .byte   PATT
  .word Label_8_0117874F
@ 027   ----------------------------------------
 .byte   PATT
  .word Label_8_0117875C
@ 028   ----------------------------------------
 .byte   W96
@ 029   ----------------------------------------
 .byte   W96
@ 030   ----------------------------------------
 .byte   W96
@ 031   ----------------------------------------
 .byte   W96
@ 032   ----------------------------------------
Label_8_01178772:
 .byte   N02 ,Ds2 ,v032
 .byte   W03
 .byte   N02
 .byte   W03
 .byte   N02
 .byte   W03
 .byte   Ds2 ,v048
 .byte   W03
 .byte   N02
 .byte   W03
 .byte   N02
 .byte   W03
 .byte   Ds2 ,v060
 .byte   W03
 .byte   N02
 .byte   W03
 .byte   N02
 .byte   W03
 .byte   N02
 .byte   W03
 .byte   Ds2 ,v076
 .byte   W03
 .byte   N02
 .byte   W03
 .byte   N42 ,Ds2 ,v092
 .byte   W60
 .byte   PEND 
@ 033   ----------------------------------------
 .byte   W96
@ 034   ----------------------------------------
 .byte   W96
@ 035   ----------------------------------------
 .byte   W96
@ 036   ----------------------------------------
 .byte   W96
@ 037   ----------------------------------------
 .byte   W96
@ 038   ----------------------------------------
 .byte   W96
@ 039   ----------------------------------------
 .byte   W96
@ 040   ----------------------------------------
 .byte   PATT
  .word Label_8_01178772
@ 041   ----------------------------------------
 .byte   W96
@ 042   ----------------------------------------
 .byte   W96
@ 043   ----------------------------------------
 .byte   W96
@ 044   ----------------------------------------
 .byte   W96
@ 045   ----------------------------------------
 .byte   W96
@ 046   ----------------------------------------
 .byte   W96
@ 047   ----------------------------------------
 .byte   W96
@ 048   ----------------------------------------
 .byte   W48
 .byte   N42 ,Ds2 ,v092
 .byte   W48
@ 049   ----------------------------------------
 .byte   N42
 .byte   W48
 .byte   N42
 .byte   W48
@ 050   ----------------------------------------
 .byte   W96
@ 051   ----------------------------------------
 .byte   W96
@ 052   ----------------------------------------
 .byte   GOTO
  .word Label_8_0117871A
@ 053   ----------------------------------------
 .byte   W60
 .byte   W03
 .byte   FINE

@**************** Track 10 (Midi-Chn.9) ****************@

song64_010:
@ 000   ----------------------------------------
 .byte   KEYSH , song64_key+0
Label_9_011787BE:
 .byte   VOICE , 45
 .byte   VOL , 30*song64_mvl/mxv
 .byte   PAN , c_v+0
 .byte   VOL , 30*song64_mvl/mxv
 .byte   PAN , c_v+0
 .byte   W96
@ 001   ----------------------------------------
 .byte   W96
@ 002   ----------------------------------------
 .byte   W96
@ 003   ----------------------------------------
 .byte   W96
@ 004   ----------------------------------------
 .byte   W96
@ 005   ----------------------------------------
 .byte   W96
@ 006   ----------------------------------------
 .byte   W96
@ 007   ----------------------------------------
 .byte   W96
@ 008   ----------------------------------------
 .byte   W96
@ 009   ----------------------------------------
 .byte   W96
@ 010   ----------------------------------------
 .byte   W96
@ 011   ----------------------------------------
 .byte   W96
@ 012   ----------------------------------------
 .byte   W96
@ 013   ----------------------------------------
 .byte   W36
 .byte   N11 ,En1 ,v060
 .byte   W24
 .byte   An1
 .byte   W36
@ 014   ----------------------------------------
 .byte   W12
 .byte   An2
 .byte   W84
@ 015   ----------------------------------------
 .byte   W96
@ 016   ----------------------------------------
 .byte   W12
 .byte   N20 ,An1
 .byte   W24
 .byte   Gn1
 .byte   W60
@ 017   ----------------------------------------
 .byte   W12
 .byte   Dn1
 .byte   W24
 .byte   Fs1
 .byte   W60
@ 018   ----------------------------------------
 .byte   W36
 .byte   N42 ,Bn1
 .byte   W60
@ 019   ----------------------------------------
 .byte   W12
 .byte   N20 ,Fs1
 .byte   W24
 .byte   Bn0
 .byte   W60
@ 020   ----------------------------------------
 .byte   W12
 .byte   N11 ,Bn1
 .byte   W12
 .byte   An1
 .byte   W12
 .byte   Gn1
 .byte   W60
@ 021   ----------------------------------------
 .byte   W12
 .byte   N20 ,Dn1
 .byte   W24
 .byte   Gn1
 .byte   W60
@ 022   ----------------------------------------
 .byte   W96
@ 023   ----------------------------------------
 .byte   W96
@ 024   ----------------------------------------
 .byte   W96
@ 025   ----------------------------------------
 .byte   W96
@ 026   ----------------------------------------
 .byte   W96
@ 027   ----------------------------------------
 .byte   W96
@ 028   ----------------------------------------
 .byte   W96
@ 029   ----------------------------------------
 .byte   W96
@ 030   ----------------------------------------
 .byte   W96
@ 031   ----------------------------------------
 .byte   W96
@ 032   ----------------------------------------
 .byte   W36
 .byte   Ds1
 .byte   W60
@ 033   ----------------------------------------
 .byte   N11 ,As2
 .byte   W12
 .byte   N20 ,As0
 .byte   W24
 .byte   Ds1
 .byte   W56
 .byte   W01
 .byte   N11 ,As2
 .byte   W03
@ 034   ----------------------------------------
 .byte   W09
 .byte   N20 ,As0
 .byte   W24
 .byte   Ds1
 .byte   W60
 .byte   W03
@ 035   ----------------------------------------
 .byte   W09
 .byte   N20
 .byte   W24
 .byte   N42
 .byte   W60
 .byte   W03
@ 036   ----------------------------------------
 .byte   W96
@ 037   ----------------------------------------
 .byte   W96
@ 038   ----------------------------------------
 .byte   W96
@ 039   ----------------------------------------
 .byte   W96
@ 040   ----------------------------------------
 .byte   W96
@ 041   ----------------------------------------
 .byte   W96
@ 042   ----------------------------------------
 .byte   W96
@ 043   ----------------------------------------
 .byte   W96
@ 044   ----------------------------------------
 .byte   W96
@ 045   ----------------------------------------
 .byte   W96
@ 046   ----------------------------------------
 .byte   W96
@ 047   ----------------------------------------
 .byte   W96
@ 048   ----------------------------------------
 .byte   W96
@ 049   ----------------------------------------
 .byte   W96
@ 050   ----------------------------------------
 .byte   W96
@ 051   ----------------------------------------
 .byte   W96
@ 052   ----------------------------------------
 .byte   GOTO
  .word Label_9_011787BE
@ 053   ----------------------------------------
 .byte   W60
 .byte   W03
 .byte   FINE

@**************** Track 11 (Midi-Chn.10) ****************@

song64_011:
@ 000   ----------------------------------------
 .byte   KEYSH , song64_key+0
Label_10_01178846:
 .byte   VOICE , 73
 .byte   VOL , 30*song64_mvl/mxv
 .byte   PAN , c_v+0
 .byte   VOL , 30*song64_mvl/mxv
 .byte   PAN , c_v+0
 .byte   W96
@ 001   ----------------------------------------
 .byte   W96
@ 002   ----------------------------------------
 .byte   W96
@ 003   ----------------------------------------
 .byte   W96
@ 004   ----------------------------------------
 .byte   W96
@ 005   ----------------------------------------
 .byte   W96
@ 006   ----------------------------------------
 .byte   W96
@ 007   ----------------------------------------
 .byte   W96
@ 008   ----------------------------------------
 .byte   W96
@ 009   ----------------------------------------
 .byte   W96
@ 010   ----------------------------------------
 .byte   W96
@ 011   ----------------------------------------
 .byte   W96
@ 012   ----------------------------------------
 .byte   W96
@ 013   ----------------------------------------
 .byte   W96
@ 014   ----------------------------------------
 .byte   W96
@ 015   ----------------------------------------
 .byte   W96
@ 016   ----------------------------------------
 .byte   W96
@ 017   ----------------------------------------
 .byte   W48
 .byte   N04 ,Dn4 ,v060
 .byte   W12
 .byte   N04
 .byte   W12
 .byte   N04
 .byte   W12
 .byte   N04
 .byte   W12
@ 018   ----------------------------------------
 .byte   W96
@ 019   ----------------------------------------
 .byte   W36
 .byte   An4
 .byte   W12
 .byte   N04
 .byte   W12
 .byte   N04
 .byte   W12
 .byte   N04
 .byte   W12
 .byte   N04
 .byte   W12
@ 020   ----------------------------------------
 .byte   W96
@ 021   ----------------------------------------
 .byte   W96
@ 022   ----------------------------------------
 .byte   W96
@ 023   ----------------------------------------
 .byte   W96
@ 024   ----------------------------------------
 .byte   W96
@ 025   ----------------------------------------
 .byte   W96
@ 026   ----------------------------------------
 .byte   W96
@ 027   ----------------------------------------
 .byte   W96
@ 028   ----------------------------------------
 .byte   W96
@ 029   ----------------------------------------
 .byte   W96
@ 030   ----------------------------------------
 .byte   W96
@ 031   ----------------------------------------
 .byte   W96
@ 032   ----------------------------------------
 .byte   W96
@ 033   ----------------------------------------
 .byte   W96
@ 034   ----------------------------------------
 .byte   W96
@ 035   ----------------------------------------
 .byte   W96
@ 036   ----------------------------------------
 .byte   W96
@ 037   ----------------------------------------
 .byte   W96
@ 038   ----------------------------------------
 .byte   W96
@ 039   ----------------------------------------
 .byte   W96
@ 040   ----------------------------------------
 .byte   W96
@ 041   ----------------------------------------
 .byte   W96
@ 042   ----------------------------------------
 .byte   W96
@ 043   ----------------------------------------
 .byte   W96
@ 044   ----------------------------------------
 .byte   W96
@ 045   ----------------------------------------
 .byte   W96
@ 046   ----------------------------------------
 .byte   W36
 .byte   N24 ,Gn4 ,v092
 .byte   W24
 .byte   N12 ,Fn4
 .byte   W12
 .byte   Gn4
 .byte   W12
 .byte   N42 ,As4
 .byte   W12
@ 047   ----------------------------------------
 .byte   W96
@ 048   ----------------------------------------
 .byte   W96
@ 049   ----------------------------------------
 .byte   W96
@ 050   ----------------------------------------
 .byte   W96
@ 051   ----------------------------------------
 .byte   W96
@ 052   ----------------------------------------
 .byte   GOTO
  .word Label_10_01178846
@ 053   ----------------------------------------
 .byte   W60
 .byte   W03
 .byte   FINE

@**************** Track 12 (Midi-Chn.11) ****************@

song64_012:
@ 000   ----------------------------------------
 .byte   KEYSH , song64_key+0
Label_11_011788AE:
 .byte   VOICE , 68
 .byte   VOL , 30*song64_mvl/mxv
 .byte   PAN , c_v+0
 .byte   VOL , 30*song64_mvl/mxv
 .byte   PAN , c_v+0
 .byte   W96
@ 001   ----------------------------------------
 .byte   W96
@ 002   ----------------------------------------
 .byte   W96
@ 003   ----------------------------------------
 .byte   W96
@ 004   ----------------------------------------
 .byte   W96
@ 005   ----------------------------------------
 .byte   W96
@ 006   ----------------------------------------
 .byte   W96
@ 007   ----------------------------------------
 .byte   W96
@ 008   ----------------------------------------
 .byte   W96
@ 009   ----------------------------------------
 .byte   W96
@ 010   ----------------------------------------
 .byte   W96
@ 011   ----------------------------------------
 .byte   W96
@ 012   ----------------------------------------
 .byte   W96
@ 013   ----------------------------------------
 .byte   W96
@ 014   ----------------------------------------
 .byte   W96
@ 015   ----------------------------------------
 .byte   W96
@ 016   ----------------------------------------
 .byte   W96
@ 017   ----------------------------------------
 .byte   W96
@ 018   ----------------------------------------
 .byte   W96
@ 019   ----------------------------------------
 .byte   W96
@ 020   ----------------------------------------
 .byte   W96
@ 021   ----------------------------------------
 .byte   W96
@ 022   ----------------------------------------
 .byte   W96
@ 023   ----------------------------------------
 .byte   W96
@ 024   ----------------------------------------
Label_11_011788D0:
 .byte   W36
 .byte   N24 ,Fs3 ,v076
 .byte   W24
 .byte   N12 ,En3
 .byte   W12
 .byte   Fs3
 .byte   W12
 .byte   N36 ,Bn3
 .byte   W12
 .byte   PEND 
@ 025   ----------------------------------------
 .byte   W24
 .byte   N12 ,Fs3
 .byte   W12
 .byte   N92 ,An3
 .byte   W60
@ 026   ----------------------------------------
 .byte   PATT
  .word Label_11_011788D0
@ 027   ----------------------------------------
 .byte   W24
 .byte   N12 ,Fs3 ,v076
 .byte   W12
 .byte   N92 ,Dn3
 .byte   W60
@ 028   ----------------------------------------
 .byte   W36
 .byte   N20 ,Fs3
 .byte   W24
 .byte   N11 ,En3
 .byte   W12
 .byte   Fs3
 .byte   W12
 .byte   N32 ,Bn3
 .byte   W12
@ 029   ----------------------------------------
 .byte   W24
 .byte   N11 ,Fs3
 .byte   W12
 .byte   N68 ,An3
 .byte   W60
@ 030   ----------------------------------------
 .byte   W12
 .byte   N11 ,Bn3
 .byte   W12
 .byte   Dn4
 .byte   W12
 .byte   Cs4
 .byte   W12
 .byte   An3
 .byte   W12
 .byte   N68 ,En3
 .byte   W36
@ 031   ----------------------------------------
 .byte   W36
 .byte   N92 ,Dn3
 .byte   W60
@ 032   ----------------------------------------
 .byte   W96
@ 033   ----------------------------------------
 .byte   W96
@ 034   ----------------------------------------
 .byte   W96
@ 035   ----------------------------------------
 .byte   W96
@ 036   ----------------------------------------
 .byte   W96
@ 037   ----------------------------------------
 .byte   W96
@ 038   ----------------------------------------
 .byte   W96
@ 039   ----------------------------------------
 .byte   W96
@ 040   ----------------------------------------
 .byte   W96
@ 041   ----------------------------------------
 .byte   W96
@ 042   ----------------------------------------
 .byte   W96
@ 043   ----------------------------------------
 .byte   W96
@ 044   ----------------------------------------
 .byte   W96
@ 045   ----------------------------------------
 .byte   W96
@ 046   ----------------------------------------
 .byte   W96
@ 047   ----------------------------------------
 .byte   W96
@ 048   ----------------------------------------
 .byte   W96
@ 049   ----------------------------------------
 .byte   W96
@ 050   ----------------------------------------
 .byte   W96
@ 051   ----------------------------------------
 .byte   W96
@ 052   ----------------------------------------
 .byte   GOTO
  .word Label_11_011788AE
@ 053   ----------------------------------------
 .byte   W60
 .byte   W03
 .byte   FINE

@**************** Track 13 (Midi-Chn.12) ****************@

song64_013:
@ 000   ----------------------------------------
 .byte   KEYSH , song64_key+0
Label_12_01178936:
 .byte   VOICE , 57
 .byte   VOL , 30*song64_mvl/mxv
 .byte   PAN , c_v+0
 .byte   VOL , 30*song64_mvl/mxv
 .byte   PAN , c_v+0
 .byte   W96
@ 001   ----------------------------------------
 .byte   W96
@ 002   ----------------------------------------
 .byte   W96
@ 003   ----------------------------------------
 .byte   W96
@ 004   ----------------------------------------
 .byte   W96
@ 005   ----------------------------------------
 .byte   W96
@ 006   ----------------------------------------
 .byte   W96
@ 007   ----------------------------------------
 .byte   W96
@ 008   ----------------------------------------
 .byte   W96
@ 009   ----------------------------------------
 .byte   W96
@ 010   ----------------------------------------
 .byte   W96
@ 011   ----------------------------------------
 .byte   W96
@ 012   ----------------------------------------
 .byte   W96
@ 013   ----------------------------------------
 .byte   W96
@ 014   ----------------------------------------
 .byte   W96
@ 015   ----------------------------------------
 .byte   W96
@ 016   ----------------------------------------
 .byte   W96
@ 017   ----------------------------------------
 .byte   W96
@ 018   ----------------------------------------
 .byte   W96
@ 019   ----------------------------------------
 .byte   W96
@ 020   ----------------------------------------
 .byte   W96
@ 021   ----------------------------------------
 .byte   W96
@ 022   ----------------------------------------
 .byte   W96
@ 023   ----------------------------------------
 .byte   W96
@ 024   ----------------------------------------
 .byte   W96
@ 025   ----------------------------------------
 .byte   W96
@ 026   ----------------------------------------
 .byte   W96
@ 027   ----------------------------------------
 .byte   W96
@ 028   ----------------------------------------
 .byte   W96
@ 029   ----------------------------------------
 .byte   W96
@ 030   ----------------------------------------
 .byte   W96
@ 031   ----------------------------------------
 .byte   W96
@ 032   ----------------------------------------
 .byte   W96
@ 033   ----------------------------------------
 .byte   W96
@ 034   ----------------------------------------
 .byte   W96
@ 035   ----------------------------------------
 .byte   W96
@ 036   ----------------------------------------
 .byte   W96
@ 037   ----------------------------------------
 .byte   W96
@ 038   ----------------------------------------
 .byte   W96
@ 039   ----------------------------------------
 .byte   W96
@ 040   ----------------------------------------
 .byte   W96
@ 041   ----------------------------------------
 .byte   W96
@ 042   ----------------------------------------
 .byte   W96
@ 043   ----------------------------------------
 .byte   W96
@ 044   ----------------------------------------
 .byte   W96
@ 045   ----------------------------------------
 .byte   W12
 .byte   N11 ,Dn3 ,v108
 .byte   N11 ,Gn3
 .byte   W12
 .byte   Cn3
 .byte   N11 ,Gn3
 .byte   N11 ,Cn4
 .byte   W12
 .byte   As2
 .byte   N11 ,Dn3
 .byte   N11 ,Fn3
 .byte   N11 ,As3
 .byte   W12
 .byte   Gn2
 .byte   N11 ,Dn3
 .byte   N11 ,Fn3
 .byte   N11 ,Gn3
 .byte   W12
 .byte   N20 ,Fn2
 .byte   N20 ,Dn3
 .byte   N20 ,Fn3
 .byte   N20 ,Gn3
 .byte   W24
 .byte   N44 ,Gn2
 .byte   N44 ,En3
 .byte   N44 ,Gn3
 .byte   N44 ,Cn4
 .byte   W12
@ 046   ----------------------------------------
 .byte   W96
@ 047   ----------------------------------------
 .byte   W96
@ 048   ----------------------------------------
 .byte   W48
 .byte   N20 ,Cn3
 .byte   N20 ,Ds3
 .byte   N20 ,Gn3
 .byte   W24
 .byte   N11 ,Cn3
 .byte   N11 ,Ds3
 .byte   N11 ,Fn3
 .byte   W12
 .byte   Gn3
 .byte   W12
@ 049   ----------------------------------------
 .byte   N32 ,Cn3
 .byte   N32 ,Ds3
 .byte   N32 ,Fn3
 .byte   W36
 .byte   N11 ,As2
 .byte   W12
 .byte   N20 ,Cn3
 .byte   W24
 .byte   Gn2
 .byte   N20 ,Gs2
 .byte   N20 ,Cn3
 .byte   W24
@ 050   ----------------------------------------
 .byte   Gs2
 .byte   N20 ,Cn3
 .byte   W24
 .byte   As2
 .byte   N20 ,Cn3
 .byte   N20 ,Ds3
 .byte   W24
 .byte   TIE ,Cn3
 .byte   TIE ,Fn3
 .byte   TIE ,Gn3
 .byte   W48
@ 051   ----------------------------------------
 .byte   W80
 .byte   EOT
 .byte   Cn3 ,v065
 .byte   Gn3
 .byte   W16
@ 052   ----------------------------------------
 .byte   GOTO
  .word Label_12_01178936
@ 053   ----------------------------------------
 .byte   W60
 .byte   W03
 .byte   FINE

@******************************************************@
	.align	2

song64:
	.byte	13	@ NumTrks
	.byte	0	@ NumBlks
	.byte	song64_pri	@ Priority
	.byte	song64_rev	@ Reverb.
    
	.word	song64_grp
    
	.word	song64_001
	.word	song64_002
	.word	song64_003
	.word	song64_004
	.word	song64_005
	.word	song64_006
	.word	song64_007
	.word	song64_008
	.word	song64_009
	.word	song64_010
	.word	song64_011
	.word	song64_012
	.word	song64_013

	.end
