	.include "MPlayDef.s"

	.equ	song0166_grp, voicegroup000
	.equ	song0166_pri, 0
	.equ	song0166_rev, 0
	.equ	song0166_mvl, 127
	.equ	song0166_key, 0
	.equ	song0166_tbs, 1
	.equ	song0166_exg, 0
	.equ	song0166_cmp, 1

	.section .rodata
	.global	song0166
	.align	2


@**************** Track 1 (Midi-Chn.0) ****************@

song0166_001:
@ 000   ----------------------------------------
 .byte   KEYSH , song0166_key+0
Label_0_0128442E:
 .byte   TEMPO , 136*song0166_tbs/2
 .byte   VOICE , 81
 .byte   VOL , 40*song0166_mvl/mxv
 .byte   PAN , c_v+0
 .byte   N04 ,Fs5 ,v060
 .byte   W12
 .byte   N04
 .byte   W06
 .byte   N04
 .byte   W12
 .byte   N04
 .byte   W06
 .byte   N04
 .byte   W12
 .byte   N04
 .byte   W06
 .byte   N04
 .byte   W12
 .byte   N04
 .byte   W06
 .byte   N04
 .byte   W12
 .byte   N04
 .byte   W12
@ 001   ----------------------------------------
Label_0_0128444C:
 .byte   N04 ,Fs5 ,v060
 .byte   W06
 .byte   N04
 .byte   W12
 .byte   N04
 .byte   W06
 .byte   N04
 .byte   W12
 .byte   N04
 .byte   W06
 .byte   N04
 .byte   W12
 .byte   N04
 .byte   W06
 .byte   N04
 .byte   W12
 .byte   N04
 .byte   W06
 .byte   N04
 .byte   W12
 .byte   N04
 .byte   W06
 .byte   PEND 
@ 002   ----------------------------------------
Label_0_01284465:
 .byte   N04 ,En5 ,v060
 .byte   W12
 .byte   N04
 .byte   W06
 .byte   N04
 .byte   W12
 .byte   N04
 .byte   W06
 .byte   N04
 .byte   W12
 .byte   N04
 .byte   W06
 .byte   N04
 .byte   W12
 .byte   N04
 .byte   W06
 .byte   N04
 .byte   W12
 .byte   N04
 .byte   W12
 .byte   PEND 
@ 003   ----------------------------------------
Label_0_0128447C:
 .byte   N04 ,En5 ,v060
 .byte   W06
 .byte   N04
 .byte   W12
 .byte   N04
 .byte   W06
 .byte   N04
 .byte   W12
 .byte   N04
 .byte   W06
 .byte   N04
 .byte   W12
 .byte   N04
 .byte   W06
 .byte   N04
 .byte   W12
 .byte   N04
 .byte   W06
 .byte   N04
 .byte   W12
 .byte   N04
 .byte   W06
 .byte   PEND 
@ 004   ----------------------------------------
Label_0_01284495:
 .byte   N04 ,Dn5 ,v060
 .byte   W12
 .byte   N04
 .byte   W06
 .byte   N04
 .byte   W12
 .byte   N04
 .byte   W06
 .byte   N04
 .byte   W12
 .byte   N04
 .byte   W06
 .byte   N04
 .byte   W12
 .byte   N04
 .byte   W06
 .byte   N04
 .byte   W12
 .byte   N04
 .byte   W12
 .byte   PEND 
@ 005   ----------------------------------------
Label_0_012844AC:
 .byte   N04 ,Dn5 ,v060
 .byte   W06
 .byte   N04
 .byte   W12
 .byte   N04
 .byte   W06
 .byte   N04
 .byte   W12
 .byte   N04
 .byte   W06
 .byte   N04
 .byte   W12
 .byte   N04
 .byte   W06
 .byte   N04
 .byte   W12
 .byte   N04
 .byte   W06
 .byte   N04
 .byte   W12
 .byte   N04
 .byte   W06
 .byte   PEND 
@ 006   ----------------------------------------
 .byte   PATT
  .word Label_0_01284465
@ 007   ----------------------------------------
 .byte   PATT
  .word Label_0_0128447C
@ 008   ----------------------------------------
Label_0_012844CF:
 .byte   N04 ,Fs5 ,v060
 .byte   W12
 .byte   N04
 .byte   W06
 .byte   N04
 .byte   W12
 .byte   N04
 .byte   W06
 .byte   N04
 .byte   W12
 .byte   N04
 .byte   W06
 .byte   N04
 .byte   W12
 .byte   N04
 .byte   W06
 .byte   N04
 .byte   W12
 .byte   N04
 .byte   W12
 .byte   PEND 
@ 009   ----------------------------------------
 .byte   PATT
  .word Label_0_0128444C
@ 010   ----------------------------------------
 .byte   PATT
  .word Label_0_01284465
@ 011   ----------------------------------------
 .byte   PATT
  .word Label_0_0128447C
@ 012   ----------------------------------------
 .byte   PATT
  .word Label_0_01284495
@ 013   ----------------------------------------
 .byte   PATT
  .word Label_0_012844AC
@ 014   ----------------------------------------
 .byte   PATT
  .word Label_0_01284465
@ 015   ----------------------------------------
 .byte   PATT
  .word Label_0_0128447C
@ 016   ----------------------------------------
Label_0_01284509:
 .byte   N04 ,Fs6 ,v048
 .byte   W12
 .byte   N04
 .byte   W06
 .byte   N04
 .byte   W12
 .byte   N04
 .byte   W06
 .byte   N04
 .byte   W12
 .byte   N04
 .byte   W06
 .byte   N04
 .byte   W12
 .byte   N04
 .byte   W06
 .byte   N04
 .byte   W12
 .byte   N04
 .byte   W12
 .byte   PEND 
@ 017   ----------------------------------------
Label_0_01284520:
 .byte   N04 ,Fs6 ,v048
 .byte   W06
 .byte   N04
 .byte   W12
 .byte   N04
 .byte   W06
 .byte   N04
 .byte   W12
 .byte   N04
 .byte   W06
 .byte   N04
 .byte   W12
 .byte   N04
 .byte   W06
 .byte   N04
 .byte   W12
 .byte   N04
 .byte   W06
 .byte   N04
 .byte   W12
 .byte   N04
 .byte   W06
 .byte   PEND 
@ 018   ----------------------------------------
Label_0_01284539:
 .byte   N04 ,En6 ,v048
 .byte   W12
 .byte   N04
 .byte   W06
 .byte   N04
 .byte   W12
 .byte   N04
 .byte   W06
 .byte   N04
 .byte   W12
 .byte   N04
 .byte   W06
 .byte   N04
 .byte   W12
 .byte   N04
 .byte   W06
 .byte   N04
 .byte   W12
 .byte   N04
 .byte   W12
 .byte   PEND 
@ 019   ----------------------------------------
Label_0_01284550:
 .byte   N04 ,En6 ,v048
 .byte   W06
 .byte   N04
 .byte   W12
 .byte   N04
 .byte   W06
 .byte   N04
 .byte   W12
 .byte   N04
 .byte   W06
 .byte   N04
 .byte   W12
 .byte   N04
 .byte   W06
 .byte   N04
 .byte   W12
 .byte   N04
 .byte   W06
 .byte   N04
 .byte   W12
 .byte   N04
 .byte   W06
 .byte   PEND 
@ 020   ----------------------------------------
Label_0_01284569:
 .byte   N04 ,Dn6 ,v048
 .byte   W12
 .byte   N04
 .byte   W06
 .byte   N04
 .byte   W12
 .byte   N04
 .byte   W06
 .byte   N04
 .byte   W12
 .byte   N04
 .byte   W06
 .byte   N04
 .byte   W12
 .byte   N04
 .byte   W06
 .byte   N04
 .byte   W12
 .byte   N04
 .byte   W12
 .byte   PEND 
@ 021   ----------------------------------------
Label_0_01284580:
 .byte   N04 ,Dn6 ,v048
 .byte   W06
 .byte   N04
 .byte   W12
 .byte   N04
 .byte   W06
 .byte   N04
 .byte   W12
 .byte   N04
 .byte   W06
 .byte   N04
 .byte   W12
 .byte   N04
 .byte   W06
 .byte   N04
 .byte   W12
 .byte   N04
 .byte   W06
 .byte   N04
 .byte   W12
 .byte   N04
 .byte   W06
 .byte   PEND 
@ 022   ----------------------------------------
 .byte   PATT
  .word Label_0_01284539
@ 023   ----------------------------------------
 .byte   PATT
  .word Label_0_01284550
@ 024   ----------------------------------------
 .byte   PATT
  .word Label_0_01284509
@ 025   ----------------------------------------
 .byte   PATT
  .word Label_0_01284520
@ 026   ----------------------------------------
 .byte   PATT
  .word Label_0_01284539
@ 027   ----------------------------------------
 .byte   PATT
  .word Label_0_01284550
@ 028   ----------------------------------------
 .byte   PATT
  .word Label_0_01284569
@ 029   ----------------------------------------
 .byte   PATT
  .word Label_0_01284580
@ 030   ----------------------------------------
 .byte   PATT
  .word Label_0_01284539
@ 031   ----------------------------------------
 .byte   PATT
  .word Label_0_01284550
@ 032   ----------------------------------------
 .byte   PATT
  .word Label_0_01284580
@ 033   ----------------------------------------
 .byte   PATT
  .word Label_0_01284550
@ 034   ----------------------------------------
 .byte   PATT
  .word Label_0_01284509
@ 035   ----------------------------------------
 .byte   PATT
  .word Label_0_01284509
@ 036   ----------------------------------------
 .byte   PATT
  .word Label_0_01284580
@ 037   ----------------------------------------
 .byte   PATT
  .word Label_0_01284550
@ 038   ----------------------------------------
 .byte   PATT
  .word Label_0_01284509
@ 039   ----------------------------------------
 .byte   PATT
  .word Label_0_01284509
@ 040   ----------------------------------------
 .byte   PATT
  .word Label_0_01284509
@ 041   ----------------------------------------
 .byte   PATT
  .word Label_0_01284550
@ 042   ----------------------------------------
 .byte   PATT
  .word Label_0_01284550
@ 043   ----------------------------------------
Label_0_01284602:
 .byte   N04 ,Dn6 ,v048
 .byte   W06
 .byte   N04
 .byte   W12
 .byte   N04
 .byte   W06
 .byte   N04
 .byte   W12
 .byte   N04
 .byte   W06
 .byte   N04
 .byte   W06
 .byte   En6
 .byte   W06
 .byte   N04
 .byte   W12
 .byte   N04
 .byte   W06
 .byte   N04
 .byte   W12
 .byte   N04
 .byte   W12
 .byte   PEND 
@ 044   ----------------------------------------
 .byte   PATT
  .word Label_0_01284509
@ 045   ----------------------------------------
 .byte   PATT
  .word Label_0_01284550
@ 046   ----------------------------------------
 .byte   PATT
  .word Label_0_01284550
@ 047   ----------------------------------------
 .byte   PATT
  .word Label_0_01284602
@ 048   ----------------------------------------
 .byte   W96
@ 049   ----------------------------------------
 .byte   W96
@ 050   ----------------------------------------
 .byte   W96
@ 051   ----------------------------------------
 .byte   W96
@ 052   ----------------------------------------
Label_0_01284633:
 .byte   N04 ,En5 ,v048
 .byte   W06
 .byte   N04
 .byte   W12
 .byte   N04
 .byte   W06
 .byte   N04
 .byte   W12
 .byte   N04
 .byte   W06
 .byte   N04
 .byte   W12
 .byte   N04
 .byte   W06
 .byte   N04
 .byte   W12
 .byte   N04
 .byte   W06
 .byte   N04
 .byte   W12
 .byte   N04
 .byte   W06
 .byte   PEND 
@ 053   ----------------------------------------
 .byte   PATT
  .word Label_0_01284633
@ 054   ----------------------------------------
 .byte   PATT
  .word Label_0_01284633
@ 055   ----------------------------------------
 .byte   PATT
  .word Label_0_01284633
@ 056   ----------------------------------------
 .byte   PATT
  .word Label_0_01284633
@ 057   ----------------------------------------
 .byte   PATT
  .word Label_0_01284633
@ 058   ----------------------------------------
 .byte   PATT
  .word Label_0_01284633
@ 059   ----------------------------------------
 .byte   PATT
  .word Label_0_01284633
@ 060   ----------------------------------------
 .byte   PATT
  .word Label_0_01284633
@ 061   ----------------------------------------
 .byte   PATT
  .word Label_0_01284633
@ 062   ----------------------------------------
 .byte   PATT
  .word Label_0_01284633
@ 063   ----------------------------------------
 .byte   PATT
  .word Label_0_01284633
@ 064   ----------------------------------------
 .byte   PATT
  .word Label_0_01284633
@ 065   ----------------------------------------
 .byte   PATT
  .word Label_0_01284633
@ 066   ----------------------------------------
 .byte   PATT
  .word Label_0_01284633
@ 067   ----------------------------------------
 .byte   PATT
  .word Label_0_01284633
@ 068   ----------------------------------------
 .byte   PATT
  .word Label_0_01284633
@ 069   ----------------------------------------
 .byte   PATT
  .word Label_0_01284633
@ 070   ----------------------------------------
 .byte   PATT
  .word Label_0_01284633
@ 071   ----------------------------------------
 .byte   PATT
  .word Label_0_01284633
@ 072   ----------------------------------------
 .byte   PATT
  .word Label_0_01284633
@ 073   ----------------------------------------
 .byte   PATT
  .word Label_0_01284633
@ 074   ----------------------------------------
 .byte   PATT
  .word Label_0_01284633
@ 075   ----------------------------------------
 .byte   PATT
  .word Label_0_01284633
@ 076   ----------------------------------------
 .byte   PATT
  .word Label_0_01284633
@ 077   ----------------------------------------
 .byte   PATT
  .word Label_0_01284633
@ 078   ----------------------------------------
 .byte   PATT
  .word Label_0_01284633
@ 079   ----------------------------------------
 .byte   PATT
  .word Label_0_01284633
@ 080   ----------------------------------------
 .byte   PATT
  .word Label_0_01284633
@ 081   ----------------------------------------
 .byte   PATT
  .word Label_0_01284633
@ 082   ----------------------------------------
 .byte   PATT
  .word Label_0_01284633
@ 083   ----------------------------------------
 .byte   PATT
  .word Label_0_01284633
@ 084   ----------------------------------------
 .byte   TEMPO , 136*song0166_tbs/2
 .byte   VOICE , 81
 .byte   N04 ,Fs5 ,v060
 .byte   W12
 .byte   N04
 .byte   W06
 .byte   N04
 .byte   W12
 .byte   N04
 .byte   W06
 .byte   N04
 .byte   W12
 .byte   N04
 .byte   W06
 .byte   N04
 .byte   W12
 .byte   N04
 .byte   W06
 .byte   N04
 .byte   W12
 .byte   N04
 .byte   W12
@ 085   ----------------------------------------
 .byte   PATT
  .word Label_0_0128444C
@ 086   ----------------------------------------
 .byte   PATT
  .word Label_0_01284465
@ 087   ----------------------------------------
 .byte   PATT
  .word Label_0_0128447C
@ 088   ----------------------------------------
 .byte   PATT
  .word Label_0_01284495
@ 089   ----------------------------------------
 .byte   PATT
  .word Label_0_012844AC
@ 090   ----------------------------------------
 .byte   PATT
  .word Label_0_01284465
@ 091   ----------------------------------------
 .byte   PATT
  .word Label_0_0128447C
@ 092   ----------------------------------------
 .byte   PATT
  .word Label_0_012844CF
@ 093   ----------------------------------------
 .byte   PATT
  .word Label_0_0128444C
@ 094   ----------------------------------------
 .byte   PATT
  .word Label_0_01284465
@ 095   ----------------------------------------
 .byte   PATT
  .word Label_0_0128447C
@ 096   ----------------------------------------
 .byte   PATT
  .word Label_0_01284495
@ 097   ----------------------------------------
 .byte   PATT
  .word Label_0_012844AC
@ 098   ----------------------------------------
 .byte   PATT
  .word Label_0_01284465
@ 099   ----------------------------------------
 .byte   PATT
  .word Label_0_0128447C
@ 100   ----------------------------------------
 .byte   PATT
  .word Label_0_01284509
@ 101   ----------------------------------------
 .byte   PATT
  .word Label_0_01284520
@ 102   ----------------------------------------
 .byte   PATT
  .word Label_0_01284539
@ 103   ----------------------------------------
 .byte   PATT
  .word Label_0_01284550
@ 104   ----------------------------------------
 .byte   PATT
  .word Label_0_01284569
@ 105   ----------------------------------------
 .byte   PATT
  .word Label_0_01284580
@ 106   ----------------------------------------
 .byte   PATT
  .word Label_0_01284539
@ 107   ----------------------------------------
 .byte   PATT
  .word Label_0_01284550
@ 108   ----------------------------------------
 .byte   PATT
  .word Label_0_01284509
@ 109   ----------------------------------------
 .byte   PATT
  .word Label_0_01284520
@ 110   ----------------------------------------
 .byte   PATT
  .word Label_0_01284539
@ 111   ----------------------------------------
 .byte   PATT
  .word Label_0_01284550
@ 112   ----------------------------------------
 .byte   PATT
  .word Label_0_01284569
@ 113   ----------------------------------------
 .byte   PATT
  .word Label_0_01284580
@ 114   ----------------------------------------
 .byte   PATT
  .word Label_0_01284539
@ 115   ----------------------------------------
 .byte   PATT
  .word Label_0_01284550
@ 116   ----------------------------------------
 .byte   PATT
  .word Label_0_01284580
@ 117   ----------------------------------------
 .byte   PATT
  .word Label_0_01284550
@ 118   ----------------------------------------
 .byte   PATT
  .word Label_0_01284509
@ 119   ----------------------------------------
 .byte   PATT
  .word Label_0_01284509
@ 120   ----------------------------------------
 .byte   PATT
  .word Label_0_01284580
@ 121   ----------------------------------------
 .byte   PATT
  .word Label_0_01284550
@ 122   ----------------------------------------
 .byte   PATT
  .word Label_0_01284509
@ 123   ----------------------------------------
 .byte   PATT
  .word Label_0_01284509
@ 124   ----------------------------------------
 .byte   PATT
  .word Label_0_01284509
@ 125   ----------------------------------------
 .byte   PATT
  .word Label_0_01284550
@ 126   ----------------------------------------
 .byte   PATT
  .word Label_0_01284550
@ 127   ----------------------------------------
 .byte   PATT
  .word Label_0_01284602
@ 128   ----------------------------------------
 .byte   PATT
  .word Label_0_01284509
@ 129   ----------------------------------------
 .byte   PATT
  .word Label_0_01284550
@ 130   ----------------------------------------
 .byte   PATT
  .word Label_0_01284550
@ 131   ----------------------------------------
 .byte   PATT
  .word Label_0_01284602
@ 132   ----------------------------------------
 .byte   W96
@ 133   ----------------------------------------
 .byte   W96
@ 134   ----------------------------------------
 .byte   W96
@ 135   ----------------------------------------
 .byte   W96
@ 136   ----------------------------------------
 .byte   PATT
  .word Label_0_01284633
@ 137   ----------------------------------------
 .byte   PATT
  .word Label_0_01284633
@ 138   ----------------------------------------
 .byte   PATT
  .word Label_0_01284633
@ 139   ----------------------------------------
 .byte   PATT
  .word Label_0_01284633
@ 140   ----------------------------------------
 .byte   PATT
  .word Label_0_01284633
@ 141   ----------------------------------------
 .byte   PATT
  .word Label_0_01284633
@ 142   ----------------------------------------
 .byte   PATT
  .word Label_0_01284633
@ 143   ----------------------------------------
 .byte   PATT
  .word Label_0_01284633
@ 144   ----------------------------------------
 .byte   PATT
  .word Label_0_01284633
@ 145   ----------------------------------------
 .byte   PATT
  .word Label_0_01284633
@ 146   ----------------------------------------
 .byte   PATT
  .word Label_0_01284633
@ 147   ----------------------------------------
 .byte   PATT
  .word Label_0_01284633
@ 148   ----------------------------------------
 .byte   PATT
  .word Label_0_01284633
@ 149   ----------------------------------------
 .byte   PATT
  .word Label_0_01284633
@ 150   ----------------------------------------
 .byte   PATT
  .word Label_0_01284633
@ 151   ----------------------------------------
 .byte   PATT
  .word Label_0_01284633
@ 152   ----------------------------------------
 .byte   PATT
  .word Label_0_01284633
@ 153   ----------------------------------------
 .byte   PATT
  .word Label_0_01284633
@ 154   ----------------------------------------
 .byte   PATT
  .word Label_0_01284633
@ 155   ----------------------------------------
 .byte   PATT
  .word Label_0_01284633
@ 156   ----------------------------------------
 .byte   PATT
  .word Label_0_01284633
@ 157   ----------------------------------------
 .byte   PATT
  .word Label_0_01284633
@ 158   ----------------------------------------
 .byte   PATT
  .word Label_0_01284633
@ 159   ----------------------------------------
 .byte   PATT
  .word Label_0_01284633
@ 160   ----------------------------------------
 .byte   PATT
  .word Label_0_01284633
@ 161   ----------------------------------------
 .byte   PATT
  .word Label_0_01284633
@ 162   ----------------------------------------
 .byte   PATT
  .word Label_0_01284633
@ 163   ----------------------------------------
 .byte   PATT
  .word Label_0_01284633
@ 164   ----------------------------------------
 .byte   PATT
  .word Label_0_01284633
@ 165   ----------------------------------------
 .byte   PATT
  .word Label_0_01284633
@ 166   ----------------------------------------
 .byte   PATT
  .word Label_0_01284633
@ 167   ----------------------------------------
 .byte   N04 ,En5 ,v048
 .byte   W06
 .byte   N04
 .byte   W12
 .byte   N04
 .byte   W06
 .byte   N04
 .byte   W12
 .byte   N04
 .byte   W06
 .byte   N04
 .byte   W12
 .byte   N04
 .byte   W06
 .byte   N04
 .byte   W12
 .byte   N04
 .byte   W06
 .byte   N04
 .byte   W12
 .byte   N04
 .byte   W05
 .byte   GOTO
  .word Label_0_0128442E
 .byte   FINE

@**************** Track 2 (Midi-Chn.1) ****************@

song0166_002:
@ 000   ----------------------------------------
 .byte   KEYSH , song0166_key+0
Label_1_012848AE:
 .byte   VOICE , 73
 .byte   VOL , 40*song0166_mvl/mxv
 .byte   PAN , c_v+0
 .byte   W96
@ 001   ----------------------------------------
 .byte   W96
@ 002   ----------------------------------------
 .byte   W96
@ 003   ----------------------------------------
 .byte   W96
@ 004   ----------------------------------------
 .byte   W96
@ 005   ----------------------------------------
 .byte   W96
@ 006   ----------------------------------------
 .byte   W96
@ 007   ----------------------------------------
 .byte   W84
 .byte   N04 ,En4 ,v076
 .byte   W12
@ 008   ----------------------------------------
Label_1_012848C0:
 .byte   N04 ,En4 ,v076
 .byte   W12
 .byte   N04
 .byte   W12
 .byte   N04
 .byte   W06
 .byte   En5
 .byte   W12
 .byte   En4
 .byte   W06
 .byte   En5
 .byte   W12
 .byte   En4
 .byte   W06
 .byte   En5
 .byte   W12
 .byte   En4
 .byte   W06
 .byte   N04
 .byte   W06
 .byte   N04
 .byte   W06
 .byte   PEND 
@ 009   ----------------------------------------
Label_1_012848D9:
 .byte   W84
 .byte   N04 ,En4 ,v076
 .byte   W06
 .byte   N04
 .byte   W06
 .byte   PEND 
@ 010   ----------------------------------------
Label_1_012848E1:
 .byte   N04 ,En4 ,v076
 .byte   W12
 .byte   N04
 .byte   W12
 .byte   N04
 .byte   W06
 .byte   En5
 .byte   W12
 .byte   En4
 .byte   W06
 .byte   En5
 .byte   W12
 .byte   En4
 .byte   W06
 .byte   En5
 .byte   W12
 .byte   En4
 .byte   W06
 .byte   En5
 .byte   W06
 .byte   N04
 .byte   W06
 .byte   PEND 
@ 011   ----------------------------------------
 .byte   PATT
  .word Label_1_012848D9
@ 012   ----------------------------------------
 .byte   PATT
  .word Label_1_012848C0
@ 013   ----------------------------------------
 .byte   PATT
  .word Label_1_012848D9
@ 014   ----------------------------------------
 .byte   PATT
  .word Label_1_012848E1
@ 015   ----------------------------------------
 .byte   W96
@ 016   ----------------------------------------
 .byte   W96
@ 017   ----------------------------------------
 .byte   W96
@ 018   ----------------------------------------
 .byte   W96
@ 019   ----------------------------------------
 .byte   W96
@ 020   ----------------------------------------
 .byte   W96
@ 021   ----------------------------------------
 .byte   W96
@ 022   ----------------------------------------
 .byte   W96
@ 023   ----------------------------------------
 .byte   W96
@ 024   ----------------------------------------
 .byte   W96
@ 025   ----------------------------------------
 .byte   W96
@ 026   ----------------------------------------
 .byte   W96
@ 027   ----------------------------------------
 .byte   W96
@ 028   ----------------------------------------
 .byte   W96
@ 029   ----------------------------------------
 .byte   W96
@ 030   ----------------------------------------
 .byte   W96
@ 031   ----------------------------------------
 .byte   W96
@ 032   ----------------------------------------
 .byte   W96
@ 033   ----------------------------------------
 .byte   W96
@ 034   ----------------------------------------
 .byte   W96
@ 035   ----------------------------------------
 .byte   W96
@ 036   ----------------------------------------
 .byte   W96
@ 037   ----------------------------------------
 .byte   W96
@ 038   ----------------------------------------
 .byte   W96
@ 039   ----------------------------------------
 .byte   W96
@ 040   ----------------------------------------
Label_1_01284927:
 .byte   N04 ,En4 ,v060
 .byte   W12
 .byte   N04
 .byte   W12
 .byte   N04
 .byte   W06
 .byte   En5
 .byte   W12
 .byte   En4
 .byte   W06
 .byte   En5
 .byte   W12
 .byte   En4
 .byte   W06
 .byte   En5
 .byte   W12
 .byte   En4
 .byte   W06
 .byte   N04
 .byte   W06
 .byte   N04
 .byte   W06
 .byte   PEND 
@ 041   ----------------------------------------
Label_1_01284940:
 .byte   N04 ,En4 ,v060
 .byte   W12
 .byte   N04
 .byte   W12
 .byte   N04
 .byte   W06
 .byte   En5
 .byte   W12
 .byte   En4
 .byte   W06
 .byte   En5
 .byte   W12
 .byte   En4
 .byte   W06
 .byte   En5
 .byte   W12
 .byte   En4
 .byte   W06
 .byte   En5
 .byte   W06
 .byte   N04
 .byte   W06
 .byte   PEND 
@ 042   ----------------------------------------
 .byte   PATT
  .word Label_1_01284927
@ 043   ----------------------------------------
 .byte   PATT
  .word Label_1_01284940
@ 044   ----------------------------------------
 .byte   PATT
  .word Label_1_01284927
@ 045   ----------------------------------------
 .byte   PATT
  .word Label_1_01284940
@ 046   ----------------------------------------
 .byte   PATT
  .word Label_1_01284927
@ 047   ----------------------------------------
 .byte   PATT
  .word Label_1_01284940
@ 048   ----------------------------------------
Label_1_01284977:
 .byte   N06 ,En4 ,v076
 .byte   W18
 .byte   Bn4
 .byte   W18
 .byte   En5
 .byte   W18
 .byte   En4
 .byte   W18
 .byte   N04 ,Bn4
 .byte   W12
 .byte   N04
 .byte   W06
 .byte   En5
 .byte   W06
 .byte   PEND 
@ 049   ----------------------------------------
 .byte   PATT
  .word Label_1_01284977
@ 050   ----------------------------------------
 .byte   PATT
  .word Label_1_01284977
@ 051   ----------------------------------------
 .byte   PATT
  .word Label_1_01284977
@ 052   ----------------------------------------
 .byte   W96
@ 053   ----------------------------------------
 .byte   W96
@ 054   ----------------------------------------
 .byte   W96
@ 055   ----------------------------------------
 .byte   W96
@ 056   ----------------------------------------
 .byte   W96
@ 057   ----------------------------------------
 .byte   W96
@ 058   ----------------------------------------
 .byte   W96
@ 059   ----------------------------------------
 .byte   W96
@ 060   ----------------------------------------
 .byte   W96
@ 061   ----------------------------------------
 .byte   W96
@ 062   ----------------------------------------
 .byte   W96
@ 063   ----------------------------------------
 .byte   W96
@ 064   ----------------------------------------
 .byte   W96
@ 065   ----------------------------------------
 .byte   W96
@ 066   ----------------------------------------
 .byte   W96
@ 067   ----------------------------------------
 .byte   W96
@ 068   ----------------------------------------
 .byte   W96
@ 069   ----------------------------------------
 .byte   W96
@ 070   ----------------------------------------
 .byte   W96
@ 071   ----------------------------------------
 .byte   W96
@ 072   ----------------------------------------
 .byte   W96
@ 073   ----------------------------------------
 .byte   W96
@ 074   ----------------------------------------
 .byte   W96
@ 075   ----------------------------------------
 .byte   W96
@ 076   ----------------------------------------
Label_1_012849B0:
 .byte   W12
 .byte   N04 ,En4 ,v076
 .byte   W12
 .byte   N04
 .byte   W06
 .byte   N06 ,En5
 .byte   W18
 .byte   En4
 .byte   W18
 .byte   N06
 .byte   W18
 .byte   N04
 .byte   W12
 .byte   PEND 
@ 077   ----------------------------------------
Label_1_012849C1:
 .byte   W12
 .byte   N04 ,En4 ,v076
 .byte   W12
 .byte   N04
 .byte   W06
 .byte   N06 ,En5
 .byte   W18
 .byte   En4
 .byte   W18
 .byte   N06
 .byte   W18
 .byte   N04
 .byte   W06
 .byte   En5
 .byte   W06
 .byte   PEND 
@ 078   ----------------------------------------
 .byte   PATT
  .word Label_1_012849B0
@ 079   ----------------------------------------
Label_1_012849D9:
 .byte   W12
 .byte   N04 ,En4 ,v076
 .byte   W12
 .byte   N04
 .byte   W06
 .byte   N06 ,En5
 .byte   W18
 .byte   En4
 .byte   W18
 .byte   N06
 .byte   W18
 .byte   N04 ,En5
 .byte   W06
 .byte   N04
 .byte   W06
 .byte   PEND 
@ 080   ----------------------------------------
 .byte   PATT
  .word Label_1_012849B0
@ 081   ----------------------------------------
 .byte   PATT
  .word Label_1_012849C1
@ 082   ----------------------------------------
 .byte   PATT
  .word Label_1_012849B0
@ 083   ----------------------------------------
 .byte   W12
 .byte   N04 ,En4 ,v076
 .byte   W12
 .byte   N04
 .byte   W06
 .byte   N06 ,En5
 .byte   W18
 .byte   En4
 .byte   W18
 .byte   N06
 .byte   W18
 .byte   N04 ,En5
 .byte   W12
@ 084   ----------------------------------------
 .byte   VOICE , 73
 .byte   W96
@ 085   ----------------------------------------
 .byte   W96
@ 086   ----------------------------------------
 .byte   W96
@ 087   ----------------------------------------
 .byte   W96
@ 088   ----------------------------------------
 .byte   W96
@ 089   ----------------------------------------
 .byte   W96
@ 090   ----------------------------------------
 .byte   W96
@ 091   ----------------------------------------
 .byte   W84
 .byte   N04 ,En4
 .byte   W12
@ 092   ----------------------------------------
 .byte   PATT
  .word Label_1_012848C0
@ 093   ----------------------------------------
 .byte   PATT
  .word Label_1_012848D9
@ 094   ----------------------------------------
 .byte   PATT
  .word Label_1_012848E1
@ 095   ----------------------------------------
 .byte   PATT
  .word Label_1_012848D9
@ 096   ----------------------------------------
 .byte   PATT
  .word Label_1_012848C0
@ 097   ----------------------------------------
 .byte   PATT
  .word Label_1_012848D9
@ 098   ----------------------------------------
 .byte   PATT
  .word Label_1_012848E1
@ 099   ----------------------------------------
 .byte   W96
@ 100   ----------------------------------------
 .byte   W96
@ 101   ----------------------------------------
 .byte   W96
@ 102   ----------------------------------------
 .byte   W96
@ 103   ----------------------------------------
 .byte   W96
@ 104   ----------------------------------------
 .byte   W96
@ 105   ----------------------------------------
 .byte   W96
@ 106   ----------------------------------------
 .byte   W96
@ 107   ----------------------------------------
 .byte   W96
@ 108   ----------------------------------------
 .byte   W96
@ 109   ----------------------------------------
 .byte   W96
@ 110   ----------------------------------------
 .byte   W96
@ 111   ----------------------------------------
 .byte   W96
@ 112   ----------------------------------------
 .byte   W96
@ 113   ----------------------------------------
 .byte   W96
@ 114   ----------------------------------------
 .byte   W96
@ 115   ----------------------------------------
 .byte   W96
@ 116   ----------------------------------------
 .byte   W96
@ 117   ----------------------------------------
 .byte   W96
@ 118   ----------------------------------------
 .byte   W96
@ 119   ----------------------------------------
 .byte   W96
@ 120   ----------------------------------------
 .byte   W96
@ 121   ----------------------------------------
 .byte   W96
@ 122   ----------------------------------------
 .byte   W96
@ 123   ----------------------------------------
 .byte   W96
@ 124   ----------------------------------------
 .byte   PATT
  .word Label_1_01284927
@ 125   ----------------------------------------
 .byte   PATT
  .word Label_1_01284940
@ 126   ----------------------------------------
 .byte   PATT
  .word Label_1_01284927
@ 127   ----------------------------------------
 .byte   PATT
  .word Label_1_01284940
@ 128   ----------------------------------------
 .byte   PATT
  .word Label_1_01284927
@ 129   ----------------------------------------
 .byte   PATT
  .word Label_1_01284940
@ 130   ----------------------------------------
 .byte   PATT
  .word Label_1_01284927
@ 131   ----------------------------------------
 .byte   PATT
  .word Label_1_01284940
@ 132   ----------------------------------------
 .byte   PATT
  .word Label_1_01284977
@ 133   ----------------------------------------
 .byte   PATT
  .word Label_1_01284977
@ 134   ----------------------------------------
 .byte   PATT
  .word Label_1_01284977
@ 135   ----------------------------------------
 .byte   PATT
  .word Label_1_01284977
@ 136   ----------------------------------------
 .byte   W96
@ 137   ----------------------------------------
 .byte   W96
@ 138   ----------------------------------------
 .byte   W96
@ 139   ----------------------------------------
 .byte   W96
@ 140   ----------------------------------------
 .byte   W96
@ 141   ----------------------------------------
 .byte   W96
@ 142   ----------------------------------------
 .byte   W96
@ 143   ----------------------------------------
 .byte   W96
@ 144   ----------------------------------------
 .byte   W96
@ 145   ----------------------------------------
 .byte   W96
@ 146   ----------------------------------------
 .byte   W96
@ 147   ----------------------------------------
 .byte   W96
@ 148   ----------------------------------------
 .byte   W96
@ 149   ----------------------------------------
 .byte   W96
@ 150   ----------------------------------------
 .byte   W96
@ 151   ----------------------------------------
 .byte   W96
@ 152   ----------------------------------------
 .byte   W96
@ 153   ----------------------------------------
 .byte   W96
@ 154   ----------------------------------------
 .byte   W96
@ 155   ----------------------------------------
 .byte   W96
@ 156   ----------------------------------------
 .byte   W96
@ 157   ----------------------------------------
 .byte   W96
@ 158   ----------------------------------------
 .byte   W96
@ 159   ----------------------------------------
 .byte   W96
@ 160   ----------------------------------------
 .byte   PATT
  .word Label_1_012849B0
@ 161   ----------------------------------------
 .byte   PATT
  .word Label_1_012849C1
@ 162   ----------------------------------------
 .byte   PATT
  .word Label_1_012849B0
@ 163   ----------------------------------------
 .byte   PATT
  .word Label_1_012849D9
@ 164   ----------------------------------------
 .byte   PATT
  .word Label_1_012849B0
@ 165   ----------------------------------------
 .byte   PATT
  .word Label_1_012849C1
@ 166   ----------------------------------------
 .byte   PATT
  .word Label_1_012849B0
@ 167   ----------------------------------------
 .byte   W12
 .byte   N04 ,En4 ,v076
 .byte   W12
 .byte   N04
 .byte   W06
 .byte   N06 ,En5
 .byte   W18
 .byte   En4
 .byte   W18
 .byte   N06
 .byte   W18
 .byte   N04 ,En5
 .byte   W11
 .byte   GOTO
  .word Label_1_012848AE
 .byte   FINE

@**************** Track 3 (Midi-Chn.2) ****************@

song0166_003:
@ 000   ----------------------------------------
 .byte   KEYSH , song0166_key+0
Label_2_01284AE6:
 .byte   VOICE , 116
 .byte   VOL , 32*song0166_mvl/mxv
 .byte   PAN , c_v+0
 .byte   N04 ,Bn5 ,v060
 .byte   W12
 .byte   Dn6
 .byte   W12
 .byte   En6
 .byte   W06
 .byte   Dn6
 .byte   W12
 .byte   Bn5
 .byte   W06
 .byte   Dn6
 .byte   W12
 .byte   An5
 .byte   W06
 .byte   Dn6
 .byte   W06
 .byte   En6
 .byte   W06
 .byte   An5
 .byte   W06
 .byte   Dn6
 .byte   W06
 .byte   An5
 .byte   W06
@ 001   ----------------------------------------
Label_2_01284B06:
 .byte   N04 ,Bn5 ,v060
 .byte   W12
 .byte   Dn6
 .byte   W12
 .byte   En6
 .byte   W06
 .byte   Dn6
 .byte   W12
 .byte   Bn5
 .byte   W06
 .byte   Dn6
 .byte   W12
 .byte   An5
 .byte   W06
 .byte   Dn6
 .byte   W06
 .byte   En6
 .byte   W06
 .byte   An5
 .byte   W06
 .byte   Dn6
 .byte   W06
 .byte   An5
 .byte   W06
 .byte   PEND 
@ 002   ----------------------------------------
Label_2_01284B21:
 .byte   N04 ,Gn5 ,v060
 .byte   W12
 .byte   Cn6
 .byte   W12
 .byte   En6
 .byte   W06
 .byte   Cn6
 .byte   W12
 .byte   Gn5
 .byte   W06
 .byte   Cn6
 .byte   W12
 .byte   Gn5
 .byte   W06
 .byte   Cn6
 .byte   W06
 .byte   En6
 .byte   W06
 .byte   Gn5
 .byte   W06
 .byte   Cn6
 .byte   W12
 .byte   PEND 
@ 003   ----------------------------------------
 .byte   PATT
  .word Label_2_01284B21
@ 004   ----------------------------------------
Label_2_01284B3F:
 .byte   N04 ,En5 ,v060
 .byte   W12
 .byte   An5
 .byte   W12
 .byte   Cn6
 .byte   W06
 .byte   An5
 .byte   W12
 .byte   En5
 .byte   W06
 .byte   An5
 .byte   W12
 .byte   Cn6
 .byte   W06
 .byte   An5
 .byte   W12
 .byte   Cn6
 .byte   W06
 .byte   An5
 .byte   W12
 .byte   PEND 
@ 005   ----------------------------------------
 .byte   PATT
  .word Label_2_01284B3F
@ 006   ----------------------------------------
 .byte   PATT
  .word Label_2_01284B21
@ 007   ----------------------------------------
 .byte   PATT
  .word Label_2_01284B21
@ 008   ----------------------------------------
 .byte   PATT
  .word Label_2_01284B06
@ 009   ----------------------------------------
 .byte   PATT
  .word Label_2_01284B06
@ 010   ----------------------------------------
 .byte   PATT
  .word Label_2_01284B21
@ 011   ----------------------------------------
 .byte   PATT
  .word Label_2_01284B21
@ 012   ----------------------------------------
 .byte   PATT
  .word Label_2_01284B3F
@ 013   ----------------------------------------
 .byte   PATT
  .word Label_2_01284B3F
@ 014   ----------------------------------------
 .byte   PATT
  .word Label_2_01284B21
@ 015   ----------------------------------------
 .byte   PATT
  .word Label_2_01284B21
@ 016   ----------------------------------------
Label_2_01284B8D:
 .byte   N05 ,Gn5 ,v060
 .byte   W06
 .byte   Fs5
 .byte   W06
 .byte   Dn5
 .byte   W06
 .byte   Gn5
 .byte   W06
 .byte   Fs5
 .byte   W06
 .byte   Dn5
 .byte   W06
 .byte   Gn5
 .byte   W06
 .byte   Fs5
 .byte   W06
 .byte   Dn5
 .byte   W06
 .byte   Gn5
 .byte   W06
 .byte   Fs5
 .byte   W06
 .byte   Dn5
 .byte   W06
 .byte   Gn5
 .byte   W06
 .byte   Fs5
 .byte   W06
 .byte   Dn5
 .byte   W06
 .byte   Gn5
 .byte   W06
 .byte   PEND 
@ 017   ----------------------------------------
Label_2_01284BB0:
 .byte   N05 ,Fs5 ,v060
 .byte   W06
 .byte   Dn5
 .byte   W06
 .byte   Gn5
 .byte   W06
 .byte   Fs5
 .byte   W06
 .byte   Dn5
 .byte   W06
 .byte   Gn5
 .byte   W06
 .byte   Fs5
 .byte   W06
 .byte   Dn5
 .byte   W06
 .byte   Gn5
 .byte   W06
 .byte   Fs5
 .byte   W06
 .byte   Dn5
 .byte   W06
 .byte   N17
 .byte   W18
 .byte   N11 ,En5
 .byte   W12
 .byte   PEND 
@ 018   ----------------------------------------
 .byte   PATT
  .word Label_2_01284B8D
@ 019   ----------------------------------------
Label_2_01284BD3:
 .byte   N05 ,Fs5 ,v060
 .byte   W06
 .byte   Dn5
 .byte   W06
 .byte   Gn5
 .byte   W06
 .byte   Fs5
 .byte   W06
 .byte   Dn5
 .byte   W06
 .byte   Gn5
 .byte   W06
 .byte   Fs5
 .byte   W06
 .byte   Dn5
 .byte   W06
 .byte   Gn5
 .byte   W06
 .byte   Fs5
 .byte   W06
 .byte   Dn5
 .byte   W06
 .byte   N17 ,Gn5
 .byte   W18
 .byte   N11 ,An5
 .byte   W12
 .byte   PEND 
@ 020   ----------------------------------------
 .byte   PATT
  .word Label_2_01284B8D
@ 021   ----------------------------------------
 .byte   PATT
  .word Label_2_01284BB0
@ 022   ----------------------------------------
 .byte   PATT
  .word Label_2_01284B8D
@ 023   ----------------------------------------
Label_2_01284C01:
 .byte   N05 ,Fs5 ,v060
 .byte   W06
 .byte   Dn5
 .byte   W06
 .byte   Gn5
 .byte   W06
 .byte   Fs5
 .byte   W06
 .byte   Dn5
 .byte   W06
 .byte   Gn5
 .byte   W06
 .byte   Fs5
 .byte   W06
 .byte   Dn5
 .byte   W06
 .byte   N11 ,Gn5
 .byte   W12
 .byte   An5
 .byte   W12
 .byte   Bn5
 .byte   W12
 .byte   N05 ,An5
 .byte   W06
 .byte   Fs5
 .byte   W06
 .byte   PEND 
@ 024   ----------------------------------------
 .byte   PATT
  .word Label_2_01284B8D
@ 025   ----------------------------------------
 .byte   PATT
  .word Label_2_01284BB0
@ 026   ----------------------------------------
 .byte   PATT
  .word Label_2_01284B8D
@ 027   ----------------------------------------
 .byte   PATT
  .word Label_2_01284BD3
@ 028   ----------------------------------------
 .byte   PATT
  .word Label_2_01284B8D
@ 029   ----------------------------------------
 .byte   PATT
  .word Label_2_01284BB0
@ 030   ----------------------------------------
 .byte   PATT
  .word Label_2_01284B8D
@ 031   ----------------------------------------
 .byte   PATT
  .word Label_2_01284C01
@ 032   ----------------------------------------
Label_2_01284C48:
 .byte   W06
 .byte   N04 ,Bn5 ,v060
 .byte   W06
 .byte   Gn5
 .byte   W06
 .byte   En5
 .byte   W06
 .byte   Bn4
 .byte   W06
 .byte   Gn4
 .byte   W06
 .byte   En4
 .byte   W06
 .byte   Bn3
 .byte   W06
 .byte   N04
 .byte   W06
 .byte   En4
 .byte   W06
 .byte   Gn4
 .byte   W06
 .byte   Bn4
 .byte   W06
 .byte   Gn4
 .byte   W06
 .byte   Bn4
 .byte   W06
 .byte   En5
 .byte   W06
 .byte   Gn5
 .byte   W06
 .byte   PEND 
@ 033   ----------------------------------------
Label_2_01284C6A:
 .byte   W06
 .byte   N04 ,An5 ,v060
 .byte   W06
 .byte   Fs5
 .byte   W06
 .byte   Dn5
 .byte   W06
 .byte   An4
 .byte   W06
 .byte   Fs4
 .byte   W06
 .byte   Dn4
 .byte   W06
 .byte   An3
 .byte   W06
 .byte   N04
 .byte   W06
 .byte   Dn4
 .byte   W06
 .byte   Fs4
 .byte   W06
 .byte   An4
 .byte   W06
 .byte   Fs4
 .byte   W06
 .byte   N04
 .byte   W06
 .byte   An4
 .byte   W06
 .byte   Dn5
 .byte   W06
 .byte   PEND 
@ 034   ----------------------------------------
Label_2_01284C8C:
 .byte   W06
 .byte   N04 ,Gn5 ,v060
 .byte   W06
 .byte   Fs5
 .byte   W06
 .byte   Dn5
 .byte   W06
 .byte   An4
 .byte   W06
 .byte   Gn4
 .byte   W06
 .byte   Fs4
 .byte   W06
 .byte   Dn4
 .byte   W06
 .byte   An3
 .byte   W06
 .byte   N04
 .byte   W06
 .byte   Dn4
 .byte   W06
 .byte   Fs4
 .byte   W06
 .byte   N04
 .byte   W06
 .byte   An4
 .byte   W06
 .byte   Dn5
 .byte   W06
 .byte   Fs5
 .byte   W06
 .byte   PEND 
@ 035   ----------------------------------------
Label_2_01284CAE:
 .byte   N04 ,Gn5 ,v060
 .byte   W06
 .byte   Fs5
 .byte   W06
 .byte   Dn5
 .byte   W06
 .byte   Gn5
 .byte   W06
 .byte   Fs5
 .byte   W06
 .byte   Dn5
 .byte   W06
 .byte   Gn5
 .byte   W06
 .byte   Fs5
 .byte   W06
 .byte   Dn5
 .byte   W06
 .byte   Gn5
 .byte   W06
 .byte   Fs5
 .byte   W06
 .byte   Dn5
 .byte   W06
 .byte   N08 ,Gn5
 .byte   W12
 .byte   An5
 .byte   W12
 .byte   PEND 
@ 036   ----------------------------------------
 .byte   PATT
  .word Label_2_01284C48
@ 037   ----------------------------------------
 .byte   PATT
  .word Label_2_01284C6A
@ 038   ----------------------------------------
 .byte   PATT
  .word Label_2_01284C8C
@ 039   ----------------------------------------
Label_2_01284CDD:
 .byte   N04 ,Bn4 ,v060
 .byte   N04 ,En5
 .byte   W06
 .byte   Bn4
 .byte   N04 ,En5
 .byte   W06
 .byte   Bn5
 .byte   N04 ,En6
 .byte   W06
 .byte   Bn4
 .byte   N04 ,En5
 .byte   W06
 .byte   Bn4
 .byte   N04 ,En5
 .byte   W06
 .byte   Bn5
 .byte   N04 ,En6
 .byte   W06
 .byte   Bn4
 .byte   N04 ,En5
 .byte   W06
 .byte   Bn4
 .byte   N04 ,En5
 .byte   W06
 .byte   Bn5
 .byte   N04 ,En6
 .byte   W06
 .byte   Bn4
 .byte   N04 ,En5
 .byte   W06
 .byte   Bn4
 .byte   N04 ,En5
 .byte   W06
 .byte   Bn5
 .byte   N04 ,En6
 .byte   W06
 .byte   Bn4
 .byte   N04 ,En5
 .byte   W06
 .byte   Bn4
 .byte   N04 ,En5
 .byte   W06
 .byte   Bn5
 .byte   N04 ,En6
 .byte   W06
 .byte   Bn4
 .byte   N04 ,En5
 .byte   W06
 .byte   PEND 
@ 040   ----------------------------------------
Label_2_01284D20:
 .byte   N08 ,En5 ,v060
 .byte   W12
 .byte   Gn5
 .byte   W12
 .byte   N04 ,En5
 .byte   W06
 .byte   N08 ,Gn5
 .byte   W12
 .byte   N04 ,En5
 .byte   W06
 .byte   N08 ,Gn5
 .byte   W12
 .byte   N04 ,En5
 .byte   W06
 .byte   N08 ,Gn5
 .byte   W12
 .byte   N04 ,En5
 .byte   W06
 .byte   Gn5
 .byte   W06
 .byte   An5
 .byte   W06
 .byte   PEND 
@ 041   ----------------------------------------
Label_2_01284D40:
 .byte   N32 ,Bn5 ,v060
 .byte   W36
 .byte   N20 ,An5
 .byte   W24
 .byte   N08 ,Gn5
 .byte   W12
 .byte   N04 ,An5
 .byte   W06
 .byte   N12 ,Bn5
 .byte   W18
 .byte   PEND 
@ 042   ----------------------------------------
Label_2_01284D51:
 .byte   N32 ,En6 ,v060
 .byte   W36
 .byte   N17 ,Bn5
 .byte   W18
 .byte   N04 ,En5
 .byte   W06
 .byte   N20 ,An5
 .byte   W24
 .byte   N04 ,En5
 .byte   W06
 .byte   Fs5
 .byte   W06
 .byte   PEND 
@ 043   ----------------------------------------
Label_2_01284D64:
 .byte   N32 ,Gn5 ,v060
 .byte   W36
 .byte   Fs5
 .byte   W36
 .byte   N20 ,Dn5
 .byte   W24
 .byte   PEND 
@ 044   ----------------------------------------
Label_2_01284D6E:
 .byte   N04 ,En5 ,v060
 .byte   W06
 .byte   Dn5
 .byte   W06
 .byte   Bn4
 .byte   W06
 .byte   En5
 .byte   W06
 .byte   Dn5
 .byte   W06
 .byte   Bn4
 .byte   W06
 .byte   En5
 .byte   W06
 .byte   Dn5
 .byte   W06
 .byte   Bn4
 .byte   W06
 .byte   En5
 .byte   W06
 .byte   Dn5
 .byte   W06
 .byte   Bn4
 .byte   W06
 .byte   En5
 .byte   W06
 .byte   Dn5
 .byte   W06
 .byte   Bn4
 .byte   W06
 .byte   En5
 .byte   W06
 .byte   PEND 
@ 045   ----------------------------------------
Label_2_01284D91:
 .byte   N04 ,Dn5 ,v060
 .byte   W06
 .byte   Bn4
 .byte   W06
 .byte   En5
 .byte   W06
 .byte   Dn5
 .byte   W06
 .byte   Bn4
 .byte   W06
 .byte   En5
 .byte   W06
 .byte   Dn5
 .byte   W06
 .byte   Bn4
 .byte   W06
 .byte   En5
 .byte   W06
 .byte   Dn5
 .byte   W06
 .byte   Bn4
 .byte   W06
 .byte   N14 ,En5
 .byte   W18
 .byte   N08 ,Gn5
 .byte   W12
 .byte   PEND 
@ 046   ----------------------------------------
Label_2_01284DB0:
 .byte   N04 ,An5 ,v060
 .byte   W06
 .byte   Gn5
 .byte   W06
 .byte   En5
 .byte   W06
 .byte   An5
 .byte   W06
 .byte   Gn5
 .byte   W06
 .byte   En5
 .byte   W06
 .byte   An5
 .byte   W06
 .byte   Gn5
 .byte   W06
 .byte   En5
 .byte   W06
 .byte   An5
 .byte   W06
 .byte   Gn5
 .byte   W06
 .byte   En5
 .byte   W06
 .byte   N08 ,Gn5
 .byte   W12
 .byte   An5
 .byte   W12
 .byte   PEND 
@ 047   ----------------------------------------
Label_2_01284DD0:
 .byte   N11 ,Dn5 ,v060
 .byte   N11 ,Gn5
 .byte   W12
 .byte   N17
 .byte   N17 ,Dn6
 .byte   W18
 .byte   N11 ,Gn5
 .byte   N11 ,Dn6
 .byte   W12
 .byte   N05 ,Gn5
 .byte   N05 ,Bn5
 .byte   W06
 .byte   N11 ,Gn5
 .byte   N11 ,Dn6
 .byte   W12
 .byte   N05 ,Gn5
 .byte   N05 ,Bn5
 .byte   W06
 .byte   N11 ,Gn5
 .byte   N11 ,Dn6
 .byte   W12
 .byte   N05 ,Gn5
 .byte   N05 ,Bn5
 .byte   W06
 .byte   Gn5
 .byte   N05 ,Bn5
 .byte   W06
 .byte   Gn5
 .byte   N05 ,Dn6
 .byte   W06
 .byte   PEND 
@ 048   ----------------------------------------
Label_2_01284E01:
 .byte   N42 ,Bn5 ,v060
 .byte   N42 ,En6
 .byte   W12
 .byte   N06 ,En4
 .byte   W18
 .byte   N06
 .byte   W18
 .byte   N06
 .byte   W18
 .byte   N06
 .byte   W18
 .byte   N08
 .byte   W12
 .byte   PEND 
@ 049   ----------------------------------------
Label_2_01284E13:
 .byte   W12
 .byte   N06 ,En4 ,v060
 .byte   W18
 .byte   N06
 .byte   W18
 .byte   N06
 .byte   W18
 .byte   N06
 .byte   W18
 .byte   N08
 .byte   W12
 .byte   PEND 
@ 050   ----------------------------------------
 .byte   PATT
  .word Label_2_01284E13
@ 051   ----------------------------------------
 .byte   PATT
  .word Label_2_01284E13
@ 052   ----------------------------------------
 .byte   W96
@ 053   ----------------------------------------
 .byte   W96
@ 054   ----------------------------------------
 .byte   W96
@ 055   ----------------------------------------
 .byte   W96
@ 056   ----------------------------------------
 .byte   W96
@ 057   ----------------------------------------
 .byte   W96
@ 058   ----------------------------------------
 .byte   W96
@ 059   ----------------------------------------
 .byte   W96
@ 060   ----------------------------------------
 .byte   W96
@ 061   ----------------------------------------
 .byte   W96
@ 062   ----------------------------------------
 .byte   W96
@ 063   ----------------------------------------
 .byte   W96
@ 064   ----------------------------------------
 .byte   W96
@ 065   ----------------------------------------
 .byte   W96
@ 066   ----------------------------------------
 .byte   W96
@ 067   ----------------------------------------
 .byte   W96
@ 068   ----------------------------------------
 .byte   W96
@ 069   ----------------------------------------
 .byte   W96
@ 070   ----------------------------------------
 .byte   W96
@ 071   ----------------------------------------
 .byte   W96
@ 072   ----------------------------------------
 .byte   W96
@ 073   ----------------------------------------
 .byte   W96
@ 074   ----------------------------------------
 .byte   W96
@ 075   ----------------------------------------
 .byte   W96
@ 076   ----------------------------------------
 .byte   W96
@ 077   ----------------------------------------
 .byte   W96
@ 078   ----------------------------------------
 .byte   W96
@ 079   ----------------------------------------
 .byte   W96
@ 080   ----------------------------------------
 .byte   W96
@ 081   ----------------------------------------
 .byte   W96
@ 082   ----------------------------------------
 .byte   W96
@ 083   ----------------------------------------
 .byte   W96
@ 084   ----------------------------------------
 .byte   VOICE , 116
 .byte   N04 ,Bn5 ,v060
 .byte   W12
 .byte   Dn6
 .byte   W12
 .byte   En6
 .byte   W06
 .byte   Dn6
 .byte   W12
 .byte   Bn5
 .byte   W06
 .byte   Dn6
 .byte   W12
 .byte   An5
 .byte   W06
 .byte   Dn6
 .byte   W06
 .byte   En6
 .byte   W06
 .byte   An5
 .byte   W06
 .byte   Dn6
 .byte   W06
 .byte   An5
 .byte   W06
@ 085   ----------------------------------------
 .byte   PATT
  .word Label_2_01284B06
@ 086   ----------------------------------------
 .byte   PATT
  .word Label_2_01284B21
@ 087   ----------------------------------------
 .byte   PATT
  .word Label_2_01284B21
@ 088   ----------------------------------------
 .byte   PATT
  .word Label_2_01284B3F
@ 089   ----------------------------------------
 .byte   PATT
  .word Label_2_01284B3F
@ 090   ----------------------------------------
 .byte   PATT
  .word Label_2_01284B21
@ 091   ----------------------------------------
 .byte   PATT
  .word Label_2_01284B21
@ 092   ----------------------------------------
 .byte   PATT
  .word Label_2_01284B06
@ 093   ----------------------------------------
 .byte   PATT
  .word Label_2_01284B06
@ 094   ----------------------------------------
 .byte   PATT
  .word Label_2_01284B21
@ 095   ----------------------------------------
 .byte   PATT
  .word Label_2_01284B21
@ 096   ----------------------------------------
 .byte   PATT
  .word Label_2_01284B3F
@ 097   ----------------------------------------
 .byte   PATT
  .word Label_2_01284B3F
@ 098   ----------------------------------------
 .byte   PATT
  .word Label_2_01284B21
@ 099   ----------------------------------------
 .byte   PATT
  .word Label_2_01284B21
@ 100   ----------------------------------------
 .byte   PATT
  .word Label_2_01284B8D
@ 101   ----------------------------------------
 .byte   PATT
  .word Label_2_01284BB0
@ 102   ----------------------------------------
 .byte   PATT
  .word Label_2_01284B8D
@ 103   ----------------------------------------
 .byte   PATT
  .word Label_2_01284BD3
@ 104   ----------------------------------------
 .byte   PATT
  .word Label_2_01284B8D
@ 105   ----------------------------------------
 .byte   PATT
  .word Label_2_01284BB0
@ 106   ----------------------------------------
 .byte   PATT
  .word Label_2_01284B8D
@ 107   ----------------------------------------
 .byte   PATT
  .word Label_2_01284C01
@ 108   ----------------------------------------
 .byte   PATT
  .word Label_2_01284B8D
@ 109   ----------------------------------------
 .byte   PATT
  .word Label_2_01284BB0
@ 110   ----------------------------------------
 .byte   PATT
  .word Label_2_01284B8D
@ 111   ----------------------------------------
 .byte   PATT
  .word Label_2_01284BD3
@ 112   ----------------------------------------
 .byte   PATT
  .word Label_2_01284B8D
@ 113   ----------------------------------------
 .byte   PATT
  .word Label_2_01284BB0
@ 114   ----------------------------------------
 .byte   PATT
  .word Label_2_01284B8D
@ 115   ----------------------------------------
 .byte   PATT
  .word Label_2_01284C01
@ 116   ----------------------------------------
 .byte   PATT
  .word Label_2_01284C48
@ 117   ----------------------------------------
 .byte   PATT
  .word Label_2_01284C6A
@ 118   ----------------------------------------
 .byte   PATT
  .word Label_2_01284C8C
@ 119   ----------------------------------------
 .byte   PATT
  .word Label_2_01284CAE
@ 120   ----------------------------------------
 .byte   PATT
  .word Label_2_01284C48
@ 121   ----------------------------------------
 .byte   PATT
  .word Label_2_01284C6A
@ 122   ----------------------------------------
 .byte   PATT
  .word Label_2_01284C8C
@ 123   ----------------------------------------
 .byte   PATT
  .word Label_2_01284CDD
@ 124   ----------------------------------------
 .byte   PATT
  .word Label_2_01284D20
@ 125   ----------------------------------------
 .byte   PATT
  .word Label_2_01284D40
@ 126   ----------------------------------------
 .byte   PATT
  .word Label_2_01284D51
@ 127   ----------------------------------------
 .byte   PATT
  .word Label_2_01284D64
@ 128   ----------------------------------------
 .byte   PATT
  .word Label_2_01284D6E
@ 129   ----------------------------------------
 .byte   PATT
  .word Label_2_01284D91
@ 130   ----------------------------------------
 .byte   PATT
  .word Label_2_01284DB0
@ 131   ----------------------------------------
 .byte   PATT
  .word Label_2_01284DD0
@ 132   ----------------------------------------
 .byte   PATT
  .word Label_2_01284E01
@ 133   ----------------------------------------
 .byte   PATT
  .word Label_2_01284E13
@ 134   ----------------------------------------
 .byte   PATT
  .word Label_2_01284E13
@ 135   ----------------------------------------
 .byte   PATT
  .word Label_2_01284E13
@ 136   ----------------------------------------
 .byte   W96
@ 137   ----------------------------------------
 .byte   W96
@ 138   ----------------------------------------
 .byte   W96
@ 139   ----------------------------------------
 .byte   W96
@ 140   ----------------------------------------
 .byte   W96
@ 141   ----------------------------------------
 .byte   W96
@ 142   ----------------------------------------
 .byte   W96
@ 143   ----------------------------------------
 .byte   W96
@ 144   ----------------------------------------
 .byte   W96
@ 145   ----------------------------------------
 .byte   W96
@ 146   ----------------------------------------
 .byte   W96
@ 147   ----------------------------------------
 .byte   W96
@ 148   ----------------------------------------
 .byte   W96
@ 149   ----------------------------------------
 .byte   W96
@ 150   ----------------------------------------
 .byte   W96
@ 151   ----------------------------------------
 .byte   W96
@ 152   ----------------------------------------
 .byte   W96
@ 153   ----------------------------------------
 .byte   W96
@ 154   ----------------------------------------
 .byte   W96
@ 155   ----------------------------------------
 .byte   W96
@ 156   ----------------------------------------
 .byte   W96
@ 157   ----------------------------------------
 .byte   W96
@ 158   ----------------------------------------
 .byte   W96
@ 159   ----------------------------------------
 .byte   W96
@ 160   ----------------------------------------
 .byte   W96
@ 161   ----------------------------------------
 .byte   W96
@ 162   ----------------------------------------
 .byte   W96
@ 163   ----------------------------------------
 .byte   W96
@ 164   ----------------------------------------
 .byte   W96
@ 165   ----------------------------------------
 .byte   W96
@ 166   ----------------------------------------
 .byte   W96
@ 167   ----------------------------------------
 .byte   W92
 .byte   W03
 .byte   GOTO
  .word Label_2_01284AE6
 .byte   FINE

@**************** Track 4 (Midi-Chn.3) ****************@

song0166_004:
@ 000   ----------------------------------------
 .byte   KEYSH , song0166_key+0
Label_3_01284F92:
 .byte   VOICE , 34
 .byte   VOL , 32*song0166_mvl/mxv
 .byte   PAN , c_v+0
 .byte   N04 ,En2 ,v092
 .byte   W06
 .byte   N04
 .byte   W12
 .byte   N04
 .byte   W06
 .byte   N04
 .byte   W06
 .byte   N04
 .byte   W06
 .byte   N04
 .byte   W12
 .byte   N04
 .byte   W12
 .byte   N04
 .byte   W06
 .byte   N04
 .byte   W12
 .byte   N04
 .byte   W06
 .byte   N04
 .byte   W12
@ 001   ----------------------------------------
Label_3_01284FB0:
 .byte   N04 ,En2 ,v092
 .byte   W06
 .byte   N04
 .byte   W12
 .byte   N04
 .byte   W06
 .byte   N04
 .byte   W06
 .byte   N04
 .byte   W06
 .byte   N04
 .byte   W12
 .byte   N04
 .byte   W12
 .byte   N04
 .byte   W06
 .byte   N04
 .byte   W12
 .byte   N04
 .byte   W06
 .byte   N04
 .byte   W12
 .byte   PEND 
@ 002   ----------------------------------------
Label_3_01284FC9:
 .byte   N04 ,Dn2 ,v092
 .byte   W12
 .byte   N04
 .byte   W06
 .byte   N04
 .byte   W12
 .byte   N04
 .byte   W06
 .byte   N04
 .byte   W12
 .byte   N04
 .byte   W06
 .byte   N04
 .byte   W12
 .byte   N04
 .byte   W06
 .byte   N04
 .byte   W12
 .byte   N04
 .byte   W12
 .byte   PEND 
@ 003   ----------------------------------------
Label_3_01284FE0:
 .byte   N04 ,Dn2 ,v092
 .byte   W06
 .byte   N04
 .byte   W12
 .byte   N04
 .byte   W06
 .byte   N04
 .byte   W12
 .byte   N04
 .byte   W06
 .byte   N04
 .byte   W12
 .byte   N04
 .byte   W06
 .byte   N04
 .byte   W12
 .byte   N04
 .byte   W06
 .byte   N04
 .byte   W12
 .byte   N04
 .byte   W06
 .byte   PEND 
@ 004   ----------------------------------------
Label_3_01284FF9:
 .byte   N04 ,Cn2 ,v092
 .byte   W12
 .byte   N04
 .byte   W06
 .byte   N04
 .byte   W12
 .byte   N04
 .byte   W06
 .byte   N04
 .byte   W12
 .byte   N04
 .byte   W06
 .byte   N04
 .byte   W12
 .byte   N04
 .byte   W06
 .byte   N04
 .byte   W12
 .byte   N04
 .byte   W12
 .byte   PEND 
@ 005   ----------------------------------------
Label_3_01285010:
 .byte   N04 ,Cn2 ,v092
 .byte   W06
 .byte   N04
 .byte   W12
 .byte   N04
 .byte   W06
 .byte   N04
 .byte   W12
 .byte   N04
 .byte   W06
 .byte   N04
 .byte   W12
 .byte   N04
 .byte   W06
 .byte   N04
 .byte   W12
 .byte   N04
 .byte   W06
 .byte   N04
 .byte   W12
 .byte   N04
 .byte   W06
 .byte   PEND 
@ 006   ----------------------------------------
 .byte   PATT
  .word Label_3_01284FC9
@ 007   ----------------------------------------
Label_3_0128502E:
 .byte   N04 ,Dn2 ,v092
 .byte   W06
 .byte   N04
 .byte   W12
 .byte   N04
 .byte   W06
 .byte   N04
 .byte   W12
 .byte   N04
 .byte   W06
 .byte   N04
 .byte   W12
 .byte   N04
 .byte   W06
 .byte   N04
 .byte   W12
 .byte   N04
 .byte   W06
 .byte   N04
 .byte   W12
 .byte   Ds2
 .byte   W06
 .byte   PEND 
@ 008   ----------------------------------------
 .byte   PATT
  .word Label_3_01284FB0
@ 009   ----------------------------------------
 .byte   PATT
  .word Label_3_01284FB0
@ 010   ----------------------------------------
 .byte   PATT
  .word Label_3_01284FC9
@ 011   ----------------------------------------
 .byte   PATT
  .word Label_3_01284FE0
@ 012   ----------------------------------------
 .byte   PATT
  .word Label_3_01284FF9
@ 013   ----------------------------------------
 .byte   PATT
  .word Label_3_01285010
@ 014   ----------------------------------------
 .byte   PATT
  .word Label_3_01284FC9
@ 015   ----------------------------------------
 .byte   PATT
  .word Label_3_0128502E
@ 016   ----------------------------------------
 .byte   PATT
  .word Label_3_01284FB0
@ 017   ----------------------------------------
 .byte   PATT
  .word Label_3_01284FB0
@ 018   ----------------------------------------
 .byte   PATT
  .word Label_3_01284FC9
@ 019   ----------------------------------------
 .byte   PATT
  .word Label_3_01284FE0
@ 020   ----------------------------------------
 .byte   PATT
  .word Label_3_01284FF9
@ 021   ----------------------------------------
 .byte   PATT
  .word Label_3_01285010
@ 022   ----------------------------------------
 .byte   PATT
  .word Label_3_01284FC9
@ 023   ----------------------------------------
 .byte   PATT
  .word Label_3_0128502E
@ 024   ----------------------------------------
 .byte   PATT
  .word Label_3_01284FB0
@ 025   ----------------------------------------
 .byte   PATT
  .word Label_3_01284FB0
@ 026   ----------------------------------------
 .byte   PATT
  .word Label_3_01284FC9
@ 027   ----------------------------------------
 .byte   PATT
  .word Label_3_01284FE0
@ 028   ----------------------------------------
 .byte   PATT
  .word Label_3_01284FF9
@ 029   ----------------------------------------
 .byte   PATT
  .word Label_3_01285010
@ 030   ----------------------------------------
 .byte   PATT
  .word Label_3_01284FC9
@ 031   ----------------------------------------
 .byte   PATT
  .word Label_3_0128502E
@ 032   ----------------------------------------
 .byte   PATT
  .word Label_3_01285010
@ 033   ----------------------------------------
Label_3_012850C4:
 .byte   N04 ,Dn2 ,v092
 .byte   W12
 .byte   N04
 .byte   W06
 .byte   N04
 .byte   W12
 .byte   N04
 .byte   W06
 .byte   N04
 .byte   W12
 .byte   N04
 .byte   W06
 .byte   N04
 .byte   W12
 .byte   N04
 .byte   W06
 .byte   N04
 .byte   W12
 .byte   N04
 .byte   W06
 .byte   Ds2
 .byte   W06
 .byte   PEND 
@ 034   ----------------------------------------
 .byte   PATT
  .word Label_3_01284FB0
@ 035   ----------------------------------------
Label_3_012850E2:
 .byte   N04 ,En2 ,v092
 .byte   W06
 .byte   N04
 .byte   W12
 .byte   N04
 .byte   W06
 .byte   N04
 .byte   W06
 .byte   N04
 .byte   W06
 .byte   N04
 .byte   W12
 .byte   N04
 .byte   W12
 .byte   N04
 .byte   W06
 .byte   N04
 .byte   W12
 .byte   N04
 .byte   W06
 .byte   N04
 .byte   W06
 .byte   Dn2
 .byte   W06
 .byte   PEND 
@ 036   ----------------------------------------
 .byte   PATT
  .word Label_3_01285010
@ 037   ----------------------------------------
 .byte   PATT
  .word Label_3_012850C4
@ 038   ----------------------------------------
 .byte   PATT
  .word Label_3_01284FB0
@ 039   ----------------------------------------
 .byte   PATT
  .word Label_3_012850E2
@ 040   ----------------------------------------
 .byte   PATT
  .word Label_3_01284FB0
@ 041   ----------------------------------------
 .byte   PATT
  .word Label_3_01284FC9
@ 042   ----------------------------------------
Label_3_0128511B:
 .byte   N04 ,Cs2 ,v092
 .byte   W12
 .byte   N04
 .byte   W06
 .byte   N04
 .byte   W12
 .byte   N04
 .byte   W06
 .byte   N04
 .byte   W12
 .byte   N04
 .byte   W06
 .byte   N04
 .byte   W12
 .byte   N04
 .byte   W06
 .byte   N04
 .byte   W12
 .byte   N04
 .byte   W12
 .byte   PEND 
@ 043   ----------------------------------------
Label_3_01285132:
 .byte   N04 ,Cn2 ,v092
 .byte   W06
 .byte   N04
 .byte   W12
 .byte   N04
 .byte   W06
 .byte   N04
 .byte   W12
 .byte   N04
 .byte   W12
 .byte   Dn2
 .byte   W06
 .byte   N04
 .byte   W12
 .byte   N04
 .byte   W06
 .byte   N04
 .byte   W12
 .byte   Ds2
 .byte   W12
 .byte   PEND 
@ 044   ----------------------------------------
 .byte   PATT
  .word Label_3_01284FB0
@ 045   ----------------------------------------
 .byte   PATT
  .word Label_3_01284FC9
@ 046   ----------------------------------------
 .byte   PATT
  .word Label_3_0128511B
@ 047   ----------------------------------------
 .byte   PATT
  .word Label_3_01285132
@ 048   ----------------------------------------
 .byte   W96
@ 049   ----------------------------------------
 .byte   W96
@ 050   ----------------------------------------
 .byte   W96
@ 051   ----------------------------------------
 .byte   W96
@ 052   ----------------------------------------
 .byte   PATT
  .word Label_3_01284FB0
@ 053   ----------------------------------------
 .byte   PATT
  .word Label_3_01284FB0
@ 054   ----------------------------------------
 .byte   PATT
  .word Label_3_01284FB0
@ 055   ----------------------------------------
 .byte   PATT
  .word Label_3_01284FB0
@ 056   ----------------------------------------
 .byte   PATT
  .word Label_3_01284FB0
@ 057   ----------------------------------------
 .byte   PATT
  .word Label_3_01284FB0
@ 058   ----------------------------------------
 .byte   PATT
  .word Label_3_01284FB0
@ 059   ----------------------------------------
 .byte   PATT
  .word Label_3_01284FB0
@ 060   ----------------------------------------
 .byte   PATT
  .word Label_3_01284FB0
@ 061   ----------------------------------------
 .byte   PATT
  .word Label_3_01284FB0
@ 062   ----------------------------------------
 .byte   PATT
  .word Label_3_01284FB0
@ 063   ----------------------------------------
 .byte   PATT
  .word Label_3_01284FB0
@ 064   ----------------------------------------
 .byte   PATT
  .word Label_3_01284FB0
@ 065   ----------------------------------------
 .byte   PATT
  .word Label_3_01284FB0
@ 066   ----------------------------------------
 .byte   PATT
  .word Label_3_01284FB0
@ 067   ----------------------------------------
 .byte   PATT
  .word Label_3_01284FB0
@ 068   ----------------------------------------
 .byte   PATT
  .word Label_3_01284FB0
@ 069   ----------------------------------------
 .byte   PATT
  .word Label_3_01284FB0
@ 070   ----------------------------------------
 .byte   PATT
  .word Label_3_01284FB0
@ 071   ----------------------------------------
 .byte   PATT
  .word Label_3_01284FB0
@ 072   ----------------------------------------
 .byte   PATT
  .word Label_3_01284FB0
@ 073   ----------------------------------------
 .byte   PATT
  .word Label_3_01284FB0
@ 074   ----------------------------------------
 .byte   PATT
  .word Label_3_01284FB0
@ 075   ----------------------------------------
 .byte   PATT
  .word Label_3_01284FB0
@ 076   ----------------------------------------
 .byte   PATT
  .word Label_3_01284FB0
@ 077   ----------------------------------------
 .byte   PATT
  .word Label_3_01284FB0
@ 078   ----------------------------------------
 .byte   PATT
  .word Label_3_01284FB0
@ 079   ----------------------------------------
 .byte   PATT
  .word Label_3_01284FB0
@ 080   ----------------------------------------
 .byte   PATT
  .word Label_3_01284FB0
@ 081   ----------------------------------------
 .byte   PATT
  .word Label_3_01284FB0
@ 082   ----------------------------------------
 .byte   PATT
  .word Label_3_01284FB0
@ 083   ----------------------------------------
 .byte   PATT
  .word Label_3_01284FB0
@ 084   ----------------------------------------
 .byte   VOICE , 34
 .byte   N04 ,En2 ,v092
 .byte   W06
 .byte   N04
 .byte   W12
 .byte   N04
 .byte   W06
 .byte   N04
 .byte   W06
 .byte   N04
 .byte   W06
 .byte   N04
 .byte   W12
 .byte   N04
 .byte   W12
 .byte   N04
 .byte   W06
 .byte   N04
 .byte   W12
 .byte   N04
 .byte   W06
 .byte   N04
 .byte   W12
@ 085   ----------------------------------------
 .byte   PATT
  .word Label_3_01284FB0
@ 086   ----------------------------------------
 .byte   PATT
  .word Label_3_01284FC9
@ 087   ----------------------------------------
 .byte   PATT
  .word Label_3_01284FE0
@ 088   ----------------------------------------
 .byte   PATT
  .word Label_3_01284FF9
@ 089   ----------------------------------------
 .byte   PATT
  .word Label_3_01285010
@ 090   ----------------------------------------
 .byte   PATT
  .word Label_3_01284FC9
@ 091   ----------------------------------------
 .byte   PATT
  .word Label_3_0128502E
@ 092   ----------------------------------------
 .byte   PATT
  .word Label_3_01284FB0
@ 093   ----------------------------------------
 .byte   PATT
  .word Label_3_01284FB0
@ 094   ----------------------------------------
 .byte   PATT
  .word Label_3_01284FC9
@ 095   ----------------------------------------
 .byte   PATT
  .word Label_3_01284FE0
@ 096   ----------------------------------------
 .byte   PATT
  .word Label_3_01284FF9
@ 097   ----------------------------------------
 .byte   PATT
  .word Label_3_01285010
@ 098   ----------------------------------------
 .byte   PATT
  .word Label_3_01284FC9
@ 099   ----------------------------------------
 .byte   PATT
  .word Label_3_0128502E
@ 100   ----------------------------------------
 .byte   PATT
  .word Label_3_01284FB0
@ 101   ----------------------------------------
 .byte   PATT
  .word Label_3_01284FB0
@ 102   ----------------------------------------
 .byte   PATT
  .word Label_3_01284FC9
@ 103   ----------------------------------------
 .byte   PATT
  .word Label_3_01284FE0
@ 104   ----------------------------------------
 .byte   PATT
  .word Label_3_01284FF9
@ 105   ----------------------------------------
 .byte   PATT
  .word Label_3_01285010
@ 106   ----------------------------------------
 .byte   PATT
  .word Label_3_01284FC9
@ 107   ----------------------------------------
 .byte   PATT
  .word Label_3_0128502E
@ 108   ----------------------------------------
 .byte   PATT
  .word Label_3_01284FB0
@ 109   ----------------------------------------
 .byte   PATT
  .word Label_3_01284FB0
@ 110   ----------------------------------------
 .byte   PATT
  .word Label_3_01284FC9
@ 111   ----------------------------------------
 .byte   PATT
  .word Label_3_01284FE0
@ 112   ----------------------------------------
 .byte   PATT
  .word Label_3_01284FF9
@ 113   ----------------------------------------
 .byte   PATT
  .word Label_3_01285010
@ 114   ----------------------------------------
 .byte   PATT
  .word Label_3_01284FC9
@ 115   ----------------------------------------
 .byte   PATT
  .word Label_3_0128502E
@ 116   ----------------------------------------
 .byte   PATT
  .word Label_3_01285010
@ 117   ----------------------------------------
 .byte   PATT
  .word Label_3_012850C4
@ 118   ----------------------------------------
 .byte   PATT
  .word Label_3_01284FB0
@ 119   ----------------------------------------
 .byte   PATT
  .word Label_3_012850E2
@ 120   ----------------------------------------
 .byte   PATT
  .word Label_3_01285010
@ 121   ----------------------------------------
 .byte   PATT
  .word Label_3_012850C4
@ 122   ----------------------------------------
 .byte   PATT
  .word Label_3_01284FB0
@ 123   ----------------------------------------
 .byte   PATT
  .word Label_3_012850E2
@ 124   ----------------------------------------
 .byte   PATT
  .word Label_3_01284FB0
@ 125   ----------------------------------------
 .byte   PATT
  .word Label_3_01284FC9
@ 126   ----------------------------------------
 .byte   PATT
  .word Label_3_0128511B
@ 127   ----------------------------------------
 .byte   PATT
  .word Label_3_01285132
@ 128   ----------------------------------------
 .byte   PATT
  .word Label_3_01284FB0
@ 129   ----------------------------------------
 .byte   PATT
  .word Label_3_01284FC9
@ 130   ----------------------------------------
 .byte   PATT
  .word Label_3_0128511B
@ 131   ----------------------------------------
 .byte   PATT
  .word Label_3_01285132
@ 132   ----------------------------------------
 .byte   W96
@ 133   ----------------------------------------
 .byte   W96
@ 134   ----------------------------------------
 .byte   W96
@ 135   ----------------------------------------
 .byte   W96
@ 136   ----------------------------------------
 .byte   PATT
  .word Label_3_01284FB0
@ 137   ----------------------------------------
 .byte   PATT
  .word Label_3_01284FB0
@ 138   ----------------------------------------
 .byte   PATT
  .word Label_3_01284FB0
@ 139   ----------------------------------------
 .byte   PATT
  .word Label_3_01284FB0
@ 140   ----------------------------------------
 .byte   PATT
  .word Label_3_01284FB0
@ 141   ----------------------------------------
 .byte   PATT
  .word Label_3_01284FB0
@ 142   ----------------------------------------
 .byte   PATT
  .word Label_3_01284FB0
@ 143   ----------------------------------------
 .byte   PATT
  .word Label_3_01284FB0
@ 144   ----------------------------------------
 .byte   PATT
  .word Label_3_01284FB0
@ 145   ----------------------------------------
 .byte   PATT
  .word Label_3_01284FB0
@ 146   ----------------------------------------
 .byte   PATT
  .word Label_3_01284FB0
@ 147   ----------------------------------------
 .byte   PATT
  .word Label_3_01284FB0
@ 148   ----------------------------------------
 .byte   PATT
  .word Label_3_01284FB0
@ 149   ----------------------------------------
 .byte   PATT
  .word Label_3_01284FB0
@ 150   ----------------------------------------
 .byte   PATT
  .word Label_3_01284FB0
@ 151   ----------------------------------------
 .byte   PATT
  .word Label_3_01284FB0
@ 152   ----------------------------------------
 .byte   PATT
  .word Label_3_01284FB0
@ 153   ----------------------------------------
 .byte   PATT
  .word Label_3_01284FB0
@ 154   ----------------------------------------
 .byte   PATT
  .word Label_3_01284FB0
@ 155   ----------------------------------------
 .byte   PATT
  .word Label_3_01284FB0
@ 156   ----------------------------------------
 .byte   PATT
  .word Label_3_01284FB0
@ 157   ----------------------------------------
 .byte   PATT
  .word Label_3_01284FB0
@ 158   ----------------------------------------
 .byte   PATT
  .word Label_3_01284FB0
@ 159   ----------------------------------------
 .byte   PATT
  .word Label_3_01284FB0
@ 160   ----------------------------------------
 .byte   PATT
  .word Label_3_01284FB0
@ 161   ----------------------------------------
 .byte   PATT
  .word Label_3_01284FB0
@ 162   ----------------------------------------
 .byte   PATT
  .word Label_3_01284FB0
@ 163   ----------------------------------------
 .byte   PATT
  .word Label_3_01284FB0
@ 164   ----------------------------------------
 .byte   PATT
  .word Label_3_01284FB0
@ 165   ----------------------------------------
 .byte   PATT
  .word Label_3_01284FB0
@ 166   ----------------------------------------
 .byte   PATT
  .word Label_3_01284FB0
@ 167   ----------------------------------------
 .byte   N04 ,En2 ,v092
 .byte   W06
 .byte   N04
 .byte   W12
 .byte   N04
 .byte   W06
 .byte   N04
 .byte   W06
 .byte   N04
 .byte   W06
 .byte   N04
 .byte   W12
 .byte   N04
 .byte   W12
 .byte   N04
 .byte   W06
 .byte   N04
 .byte   W12
 .byte   N04
 .byte   W06
 .byte   N04
 .byte   W11
 .byte   GOTO
  .word Label_3_01284F92
 .byte   FINE

@**************** Track 5 (Midi-Chn.4) ****************@

song0166_005:
@ 000   ----------------------------------------
 .byte   KEYSH , song0166_key+0
Label_4_012853C6:
 .byte   VOICE , 38
 .byte   VOL , 40*song0166_mvl/mxv
 .byte   PAN , c_v+0
 .byte   W12
 .byte   N06 ,En2 ,v076
 .byte   W18
 .byte   N06
 .byte   W18
 .byte   N06
 .byte   W18
 .byte   N06
 .byte   W18
 .byte   N08
 .byte   W12
@ 001   ----------------------------------------
Label_4_012853D9:
 .byte   W12
 .byte   N06 ,En2 ,v076
 .byte   W18
 .byte   N06
 .byte   W18
 .byte   N06
 .byte   W18
 .byte   N06
 .byte   W18
 .byte   N08
 .byte   W12
 .byte   PEND 
@ 002   ----------------------------------------
Label_4_012853E7:
 .byte   W12
 .byte   N06 ,Dn2 ,v076
 .byte   W18
 .byte   N06
 .byte   W18
 .byte   N06
 .byte   W18
 .byte   N06
 .byte   W18
 .byte   N08
 .byte   W12
 .byte   PEND 
@ 003   ----------------------------------------
 .byte   PATT
  .word Label_4_012853E7
@ 004   ----------------------------------------
Label_4_012853FA:
 .byte   W12
 .byte   N06 ,Cn2 ,v076
 .byte   W18
 .byte   N06
 .byte   W18
 .byte   N06
 .byte   W18
 .byte   N06
 .byte   W18
 .byte   N08
 .byte   W12
 .byte   PEND 
@ 005   ----------------------------------------
 .byte   PATT
  .word Label_4_012853FA
@ 006   ----------------------------------------
 .byte   PATT
  .word Label_4_012853E7
@ 007   ----------------------------------------
 .byte   PATT
  .word Label_4_012853E7
@ 008   ----------------------------------------
 .byte   PATT
  .word Label_4_012853D9
@ 009   ----------------------------------------
 .byte   PATT
  .word Label_4_012853D9
@ 010   ----------------------------------------
 .byte   PATT
  .word Label_4_012853E7
@ 011   ----------------------------------------
 .byte   PATT
  .word Label_4_012853E7
@ 012   ----------------------------------------
 .byte   PATT
  .word Label_4_012853FA
@ 013   ----------------------------------------
 .byte   PATT
  .word Label_4_012853FA
@ 014   ----------------------------------------
 .byte   PATT
  .word Label_4_012853E7
@ 015   ----------------------------------------
 .byte   PATT
  .word Label_4_012853E7
@ 016   ----------------------------------------
Label_4_0128543F:
 .byte   VOICE , 11
 .byte   W12
 .byte   N06 ,En2 ,v076
 .byte   W18
 .byte   N06
 .byte   W18
 .byte   N06
 .byte   W18
 .byte   N06
 .byte   W18
 .byte   N08
 .byte   W12
 .byte   PEND 
@ 017   ----------------------------------------
 .byte   PATT
  .word Label_4_012853D9
@ 018   ----------------------------------------
 .byte   PATT
  .word Label_4_012853E7
@ 019   ----------------------------------------
 .byte   PATT
  .word Label_4_012853E7
@ 020   ----------------------------------------
 .byte   PATT
  .word Label_4_012853FA
@ 021   ----------------------------------------
 .byte   PATT
  .word Label_4_012853FA
@ 022   ----------------------------------------
 .byte   PATT
  .word Label_4_012853E7
@ 023   ----------------------------------------
 .byte   PATT
  .word Label_4_012853E7
@ 024   ----------------------------------------
 .byte   PATT
  .word Label_4_012853D9
@ 025   ----------------------------------------
 .byte   PATT
  .word Label_4_012853D9
@ 026   ----------------------------------------
 .byte   PATT
  .word Label_4_012853E7
@ 027   ----------------------------------------
 .byte   PATT
  .word Label_4_012853E7
@ 028   ----------------------------------------
 .byte   PATT
  .word Label_4_012853FA
@ 029   ----------------------------------------
 .byte   PATT
  .word Label_4_012853FA
@ 030   ----------------------------------------
 .byte   PATT
  .word Label_4_012853E7
@ 031   ----------------------------------------
 .byte   PATT
  .word Label_4_012853E7
@ 032   ----------------------------------------
 .byte   PATT
  .word Label_4_012853FA
@ 033   ----------------------------------------
 .byte   PATT
  .word Label_4_012853E7
@ 034   ----------------------------------------
 .byte   PATT
  .word Label_4_012853D9
@ 035   ----------------------------------------
 .byte   PATT
  .word Label_4_012853D9
@ 036   ----------------------------------------
 .byte   PATT
  .word Label_4_012853FA
@ 037   ----------------------------------------
 .byte   PATT
  .word Label_4_012853E7
@ 038   ----------------------------------------
 .byte   PATT
  .word Label_4_012853D9
@ 039   ----------------------------------------
 .byte   PATT
  .word Label_4_012853D9
@ 040   ----------------------------------------
 .byte   PATT
  .word Label_4_012853D9
@ 041   ----------------------------------------
 .byte   PATT
  .word Label_4_012853E7
@ 042   ----------------------------------------
Label_4_012854CC:
 .byte   W12
 .byte   N06 ,Cs2 ,v076
 .byte   W18
 .byte   N06
 .byte   W18
 .byte   N06
 .byte   W18
 .byte   N06
 .byte   W18
 .byte   N08
 .byte   W12
 .byte   PEND 
@ 043   ----------------------------------------
Label_4_012854DA:
 .byte   W12
 .byte   N06 ,Cn2 ,v076
 .byte   W18
 .byte   N06
 .byte   W18
 .byte   Dn2
 .byte   W18
 .byte   N06
 .byte   W18
 .byte   N08
 .byte   W12
 .byte   PEND 
@ 044   ----------------------------------------
 .byte   PATT
  .word Label_4_012853D9
@ 045   ----------------------------------------
 .byte   PATT
  .word Label_4_012853E7
@ 046   ----------------------------------------
 .byte   PATT
  .word Label_4_012854CC
@ 047   ----------------------------------------
 .byte   PATT
  .word Label_4_012854DA
@ 048   ----------------------------------------
Label_4_012854FC:
 .byte   VOICE , 38
 .byte   W12
 .byte   N06 ,En1 ,v076
 .byte   W18
 .byte   N06
 .byte   W18
 .byte   N06
 .byte   W18
 .byte   N06
 .byte   W18
 .byte   N08
 .byte   W12
 .byte   PEND 
@ 049   ----------------------------------------
Label_4_0128550C:
 .byte   W12
 .byte   N06 ,En1 ,v076
 .byte   W18
 .byte   N06
 .byte   W18
 .byte   N06
 .byte   W18
 .byte   N06
 .byte   W18
 .byte   N08
 .byte   W12
 .byte   PEND 
@ 050   ----------------------------------------
 .byte   PATT
  .word Label_4_0128550C
@ 051   ----------------------------------------
 .byte   PATT
  .word Label_4_0128550C
@ 052   ----------------------------------------
 .byte   W96
@ 053   ----------------------------------------
 .byte   W96
@ 054   ----------------------------------------
 .byte   W96
@ 055   ----------------------------------------
 .byte   W96
@ 056   ----------------------------------------
 .byte   W96
@ 057   ----------------------------------------
 .byte   W96
@ 058   ----------------------------------------
 .byte   W96
@ 059   ----------------------------------------
 .byte   W96
@ 060   ----------------------------------------
 .byte   W96
@ 061   ----------------------------------------
 .byte   W96
@ 062   ----------------------------------------
 .byte   W96
@ 063   ----------------------------------------
 .byte   W96
@ 064   ----------------------------------------
 .byte   W96
@ 065   ----------------------------------------
 .byte   W96
@ 066   ----------------------------------------
 .byte   W96
@ 067   ----------------------------------------
 .byte   W96
@ 068   ----------------------------------------
 .byte   PATT
  .word Label_4_0128543F
@ 069   ----------------------------------------
 .byte   PATT
  .word Label_4_012853D9
@ 070   ----------------------------------------
 .byte   PATT
  .word Label_4_012853D9
@ 071   ----------------------------------------
 .byte   PATT
  .word Label_4_012853D9
@ 072   ----------------------------------------
 .byte   PATT
  .word Label_4_012853D9
@ 073   ----------------------------------------
 .byte   PATT
  .word Label_4_012853D9
@ 074   ----------------------------------------
 .byte   PATT
  .word Label_4_012853D9
@ 075   ----------------------------------------
 .byte   PATT
  .word Label_4_012853D9
@ 076   ----------------------------------------
 .byte   W96
@ 077   ----------------------------------------
 .byte   W96
@ 078   ----------------------------------------
 .byte   W96
@ 079   ----------------------------------------
 .byte   W96
@ 080   ----------------------------------------
 .byte   W96
@ 081   ----------------------------------------
 .byte   W96
@ 082   ----------------------------------------
 .byte   W96
@ 083   ----------------------------------------
 .byte   W96
@ 084   ----------------------------------------
 .byte   VOICE , 38
 .byte   W12
 .byte   N06 ,En2 ,v076
 .byte   W18
 .byte   N06
 .byte   W18
 .byte   N06
 .byte   W18
 .byte   N06
 .byte   W18
 .byte   N08
 .byte   W12
@ 085   ----------------------------------------
 .byte   PATT
  .word Label_4_012853D9
@ 086   ----------------------------------------
 .byte   PATT
  .word Label_4_012853E7
@ 087   ----------------------------------------
 .byte   PATT
  .word Label_4_012853E7
@ 088   ----------------------------------------
 .byte   PATT
  .word Label_4_012853FA
@ 089   ----------------------------------------
 .byte   PATT
  .word Label_4_012853FA
@ 090   ----------------------------------------
 .byte   PATT
  .word Label_4_012853E7
@ 091   ----------------------------------------
 .byte   PATT
  .word Label_4_012853E7
@ 092   ----------------------------------------
 .byte   PATT
  .word Label_4_012853D9
@ 093   ----------------------------------------
 .byte   PATT
  .word Label_4_012853D9
@ 094   ----------------------------------------
 .byte   PATT
  .word Label_4_012853E7
@ 095   ----------------------------------------
 .byte   PATT
  .word Label_4_012853E7
@ 096   ----------------------------------------
 .byte   PATT
  .word Label_4_012853FA
@ 097   ----------------------------------------
 .byte   PATT
  .word Label_4_012853FA
@ 098   ----------------------------------------
 .byte   PATT
  .word Label_4_012853E7
@ 099   ----------------------------------------
 .byte   PATT
  .word Label_4_012853E7
@ 100   ----------------------------------------
 .byte   PATT
  .word Label_4_0128543F
@ 101   ----------------------------------------
 .byte   PATT
  .word Label_4_012853D9
@ 102   ----------------------------------------
 .byte   PATT
  .word Label_4_012853E7
@ 103   ----------------------------------------
 .byte   PATT
  .word Label_4_012853E7
@ 104   ----------------------------------------
 .byte   PATT
  .word Label_4_012853FA
@ 105   ----------------------------------------
 .byte   PATT
  .word Label_4_012853FA
@ 106   ----------------------------------------
 .byte   PATT
  .word Label_4_012853E7
@ 107   ----------------------------------------
 .byte   PATT
  .word Label_4_012853E7
@ 108   ----------------------------------------
 .byte   PATT
  .word Label_4_012853D9
@ 109   ----------------------------------------
 .byte   PATT
  .word Label_4_012853D9
@ 110   ----------------------------------------
 .byte   PATT
  .word Label_4_012853E7
@ 111   ----------------------------------------
 .byte   PATT
  .word Label_4_012853E7
@ 112   ----------------------------------------
 .byte   PATT
  .word Label_4_012853FA
@ 113   ----------------------------------------
 .byte   PATT
  .word Label_4_012853FA
@ 114   ----------------------------------------
 .byte   PATT
  .word Label_4_012853E7
@ 115   ----------------------------------------
 .byte   PATT
  .word Label_4_012853E7
@ 116   ----------------------------------------
 .byte   PATT
  .word Label_4_012853FA
@ 117   ----------------------------------------
 .byte   PATT
  .word Label_4_012853E7
@ 118   ----------------------------------------
 .byte   PATT
  .word Label_4_012853D9
@ 119   ----------------------------------------
 .byte   PATT
  .word Label_4_012853D9
@ 120   ----------------------------------------
 .byte   PATT
  .word Label_4_012853FA
@ 121   ----------------------------------------
 .byte   PATT
  .word Label_4_012853E7
@ 122   ----------------------------------------
 .byte   PATT
  .word Label_4_012853D9
@ 123   ----------------------------------------
 .byte   PATT
  .word Label_4_012853D9
@ 124   ----------------------------------------
 .byte   PATT
  .word Label_4_012853D9
@ 125   ----------------------------------------
 .byte   PATT
  .word Label_4_012853E7
@ 126   ----------------------------------------
 .byte   PATT
  .word Label_4_012854CC
@ 127   ----------------------------------------
 .byte   PATT
  .word Label_4_012854DA
@ 128   ----------------------------------------
 .byte   PATT
  .word Label_4_012853D9
@ 129   ----------------------------------------
 .byte   PATT
  .word Label_4_012853E7
@ 130   ----------------------------------------
 .byte   PATT
  .word Label_4_012854CC
@ 131   ----------------------------------------
 .byte   PATT
  .word Label_4_012854DA
@ 132   ----------------------------------------
 .byte   PATT
  .word Label_4_012854FC
@ 133   ----------------------------------------
 .byte   PATT
  .word Label_4_0128550C
@ 134   ----------------------------------------
 .byte   PATT
  .word Label_4_0128550C
@ 135   ----------------------------------------
 .byte   PATT
  .word Label_4_0128550C
@ 136   ----------------------------------------
 .byte   W96
@ 137   ----------------------------------------
 .byte   W96
@ 138   ----------------------------------------
 .byte   W96
@ 139   ----------------------------------------
 .byte   W96
@ 140   ----------------------------------------
 .byte   W96
@ 141   ----------------------------------------
 .byte   W96
@ 142   ----------------------------------------
 .byte   W96
@ 143   ----------------------------------------
 .byte   W96
@ 144   ----------------------------------------
 .byte   W96
@ 145   ----------------------------------------
 .byte   W96
@ 146   ----------------------------------------
 .byte   W96
@ 147   ----------------------------------------
 .byte   W96
@ 148   ----------------------------------------
 .byte   W96
@ 149   ----------------------------------------
 .byte   W96
@ 150   ----------------------------------------
 .byte   W96
@ 151   ----------------------------------------
 .byte   W96
@ 152   ----------------------------------------
 .byte   PATT
  .word Label_4_0128543F
@ 153   ----------------------------------------
 .byte   PATT
  .word Label_4_012853D9
@ 154   ----------------------------------------
 .byte   PATT
  .word Label_4_012853D9
@ 155   ----------------------------------------
 .byte   PATT
  .word Label_4_012853D9
@ 156   ----------------------------------------
 .byte   PATT
  .word Label_4_012853D9
@ 157   ----------------------------------------
 .byte   PATT
  .word Label_4_012853D9
@ 158   ----------------------------------------
 .byte   PATT
  .word Label_4_012853D9
@ 159   ----------------------------------------
 .byte   PATT
  .word Label_4_012853D9
@ 160   ----------------------------------------
 .byte   W96
@ 161   ----------------------------------------
 .byte   W96
@ 162   ----------------------------------------
 .byte   W96
@ 163   ----------------------------------------
 .byte   W96
@ 164   ----------------------------------------
 .byte   W96
@ 165   ----------------------------------------
 .byte   W96
@ 166   ----------------------------------------
 .byte   W96
@ 167   ----------------------------------------
 .byte   W92
 .byte   W03
 .byte   GOTO
  .word Label_4_012853C6
 .byte   FINE

@**************** Track 6 (Midi-Chn.5) ****************@

song0166_006:
@ 000   ----------------------------------------
 .byte   KEYSH , song0166_key+0
Label_5_012856BE:
 .byte   VOICE , 35
 .byte   VOL , 40*song0166_mvl/mxv
 .byte   PAN , c_v+0
 .byte   N11 ,En1 ,v076
 .byte   W12
 .byte   N05
 .byte   W06
 .byte   N05
 .byte   W06
 .byte   N11
 .byte   W12
 .byte   N05
 .byte   W06
 .byte   N05
 .byte   W06
 .byte   N11
 .byte   W12
 .byte   N05
 .byte   W06
 .byte   N05
 .byte   W06
 .byte   N11
 .byte   W12
 .byte   N05
 .byte   W06
 .byte   N05
 .byte   W06
@ 001   ----------------------------------------
Label_5_012856DE:
 .byte   N11 ,En1 ,v076
 .byte   W12
 .byte   N05
 .byte   W06
 .byte   N05
 .byte   W06
 .byte   N11
 .byte   W12
 .byte   N05
 .byte   W06
 .byte   N05
 .byte   W06
 .byte   N11
 .byte   W12
 .byte   N05
 .byte   W06
 .byte   N05
 .byte   W06
 .byte   N11
 .byte   W12
 .byte   N05
 .byte   W06
 .byte   N05
 .byte   W06
 .byte   PEND 
@ 002   ----------------------------------------
Label_5_012856F9:
 .byte   N11 ,Dn1 ,v076
 .byte   W12
 .byte   N05
 .byte   W06
 .byte   N05
 .byte   W06
 .byte   N11
 .byte   W12
 .byte   N05
 .byte   W06
 .byte   N05
 .byte   W06
 .byte   N11
 .byte   W12
 .byte   N05
 .byte   W06
 .byte   N05
 .byte   W06
 .byte   N11
 .byte   W12
 .byte   N05
 .byte   W06
 .byte   N05
 .byte   W06
 .byte   PEND 
@ 003   ----------------------------------------
 .byte   PATT
  .word Label_5_012856F9
@ 004   ----------------------------------------
Label_5_01285719:
 .byte   N11 ,Cn1 ,v076
 .byte   W12
 .byte   N05
 .byte   W06
 .byte   N05
 .byte   W06
 .byte   N11
 .byte   W12
 .byte   N05
 .byte   W06
 .byte   N05
 .byte   W06
 .byte   N11
 .byte   W12
 .byte   N05
 .byte   W06
 .byte   N05
 .byte   W06
 .byte   N11
 .byte   W12
 .byte   N05
 .byte   W06
 .byte   N05
 .byte   W06
 .byte   PEND 
@ 005   ----------------------------------------
 .byte   PATT
  .word Label_5_01285719
@ 006   ----------------------------------------
 .byte   PATT
  .word Label_5_012856F9
@ 007   ----------------------------------------
Label_5_0128573E:
 .byte   N11 ,Dn1 ,v076
 .byte   W12
 .byte   N05
 .byte   W06
 .byte   N05
 .byte   W06
 .byte   N11
 .byte   W12
 .byte   N05
 .byte   W06
 .byte   N05
 .byte   W06
 .byte   N11
 .byte   W12
 .byte   N05
 .byte   W06
 .byte   N05
 .byte   W06
 .byte   N11
 .byte   W12
 .byte   N05 ,Ds1
 .byte   W06
 .byte   N05
 .byte   W06
 .byte   PEND 
@ 008   ----------------------------------------
 .byte   PATT
  .word Label_5_012856DE
@ 009   ----------------------------------------
 .byte   PATT
  .word Label_5_012856DE
@ 010   ----------------------------------------
 .byte   PATT
  .word Label_5_012856F9
@ 011   ----------------------------------------
 .byte   PATT
  .word Label_5_012856F9
@ 012   ----------------------------------------
 .byte   PATT
  .word Label_5_01285719
@ 013   ----------------------------------------
 .byte   PATT
  .word Label_5_01285719
@ 014   ----------------------------------------
 .byte   PATT
  .word Label_5_012856F9
@ 015   ----------------------------------------
 .byte   PATT
  .word Label_5_0128573E
@ 016   ----------------------------------------
 .byte   PATT
  .word Label_5_012856DE
@ 017   ----------------------------------------
 .byte   PATT
  .word Label_5_012856DE
@ 018   ----------------------------------------
 .byte   PATT
  .word Label_5_012856F9
@ 019   ----------------------------------------
 .byte   PATT
  .word Label_5_012856F9
@ 020   ----------------------------------------
 .byte   PATT
  .word Label_5_01285719
@ 021   ----------------------------------------
 .byte   PATT
  .word Label_5_01285719
@ 022   ----------------------------------------
 .byte   PATT
  .word Label_5_012856F9
@ 023   ----------------------------------------
 .byte   PATT
  .word Label_5_0128573E
@ 024   ----------------------------------------
 .byte   PATT
  .word Label_5_012856DE
@ 025   ----------------------------------------
 .byte   PATT
  .word Label_5_012856DE
@ 026   ----------------------------------------
 .byte   PATT
  .word Label_5_012856F9
@ 027   ----------------------------------------
 .byte   PATT
  .word Label_5_012856F9
@ 028   ----------------------------------------
 .byte   PATT
  .word Label_5_01285719
@ 029   ----------------------------------------
 .byte   PATT
  .word Label_5_01285719
@ 030   ----------------------------------------
 .byte   PATT
  .word Label_5_012856F9
@ 031   ----------------------------------------
 .byte   PATT
  .word Label_5_0128573E
@ 032   ----------------------------------------
 .byte   PATT
  .word Label_5_01285719
@ 033   ----------------------------------------
Label_5_012857D7:
 .byte   N11 ,Dn1 ,v076
 .byte   W12
 .byte   N05
 .byte   W06
 .byte   N05
 .byte   W06
 .byte   N11
 .byte   W12
 .byte   N05
 .byte   W06
 .byte   N05
 .byte   W06
 .byte   N11
 .byte   W12
 .byte   N05
 .byte   W06
 .byte   N05
 .byte   W06
 .byte   N11
 .byte   W12
 .byte   N05
 .byte   W06
 .byte   Ds1
 .byte   W06
 .byte   PEND 
@ 034   ----------------------------------------
 .byte   PATT
  .word Label_5_012856DE
@ 035   ----------------------------------------
Label_5_012857F7:
 .byte   N11 ,En1 ,v076
 .byte   W12
 .byte   N05
 .byte   W06
 .byte   N05
 .byte   W06
 .byte   N11
 .byte   W12
 .byte   N05
 .byte   W06
 .byte   N05
 .byte   W06
 .byte   N11
 .byte   W12
 .byte   N05
 .byte   W06
 .byte   N05
 .byte   W06
 .byte   N11
 .byte   W12
 .byte   N05
 .byte   W06
 .byte   Dn1
 .byte   W06
 .byte   PEND 
@ 036   ----------------------------------------
 .byte   PATT
  .word Label_5_01285719
@ 037   ----------------------------------------
 .byte   PATT
  .word Label_5_012857D7
@ 038   ----------------------------------------
 .byte   PATT
  .word Label_5_012856DE
@ 039   ----------------------------------------
 .byte   PATT
  .word Label_5_012857F7
@ 040   ----------------------------------------
 .byte   PATT
  .word Label_5_012856DE
@ 041   ----------------------------------------
 .byte   PATT
  .word Label_5_012856F9
@ 042   ----------------------------------------
Label_5_01285830:
 .byte   N11 ,Cs1 ,v076
 .byte   W12
 .byte   N05
 .byte   W06
 .byte   N05
 .byte   W06
 .byte   N11
 .byte   W12
 .byte   N05
 .byte   W06
 .byte   N05
 .byte   W06
 .byte   N11
 .byte   W12
 .byte   N05
 .byte   W06
 .byte   N05
 .byte   W06
 .byte   N11
 .byte   W12
 .byte   N05
 .byte   W06
 .byte   N05
 .byte   W06
 .byte   PEND 
@ 043   ----------------------------------------
Label_5_0128584B:
 .byte   N11 ,Cn1 ,v076
 .byte   W12
 .byte   N05
 .byte   W06
 .byte   N05
 .byte   W06
 .byte   N11
 .byte   W12
 .byte   N05
 .byte   W06
 .byte   N05
 .byte   W06
 .byte   N11 ,Dn1
 .byte   W12
 .byte   N05
 .byte   W06
 .byte   N05
 .byte   W06
 .byte   N11
 .byte   W12
 .byte   N05
 .byte   W06
 .byte   Ds1
 .byte   W06
 .byte   PEND 
@ 044   ----------------------------------------
 .byte   PATT
  .word Label_5_012856DE
@ 045   ----------------------------------------
 .byte   PATT
  .word Label_5_012856F9
@ 046   ----------------------------------------
 .byte   PATT
  .word Label_5_01285830
@ 047   ----------------------------------------
 .byte   PATT
  .word Label_5_0128584B
@ 048   ----------------------------------------
 .byte   W96
@ 049   ----------------------------------------
 .byte   W96
@ 050   ----------------------------------------
 .byte   W96
@ 051   ----------------------------------------
 .byte   W96
@ 052   ----------------------------------------
Label_5_0128587F:
 .byte   N11 ,En1 ,v060
 .byte   W12
 .byte   N05
 .byte   W06
 .byte   N05
 .byte   W06
 .byte   N11
 .byte   W12
 .byte   N05
 .byte   W06
 .byte   N05
 .byte   W06
 .byte   N11
 .byte   W12
 .byte   N05
 .byte   W06
 .byte   N05
 .byte   W06
 .byte   N11
 .byte   W12
 .byte   N05
 .byte   W06
 .byte   N05
 .byte   W06
 .byte   PEND 
@ 053   ----------------------------------------
 .byte   PATT
  .word Label_5_0128587F
@ 054   ----------------------------------------
 .byte   PATT
  .word Label_5_0128587F
@ 055   ----------------------------------------
 .byte   PATT
  .word Label_5_0128587F
@ 056   ----------------------------------------
 .byte   PATT
  .word Label_5_0128587F
@ 057   ----------------------------------------
 .byte   PATT
  .word Label_5_0128587F
@ 058   ----------------------------------------
 .byte   PATT
  .word Label_5_0128587F
@ 059   ----------------------------------------
 .byte   PATT
  .word Label_5_0128587F
@ 060   ----------------------------------------
 .byte   PATT
  .word Label_5_0128587F
@ 061   ----------------------------------------
 .byte   PATT
  .word Label_5_0128587F
@ 062   ----------------------------------------
 .byte   PATT
  .word Label_5_0128587F
@ 063   ----------------------------------------
 .byte   PATT
  .word Label_5_0128587F
@ 064   ----------------------------------------
 .byte   PATT
  .word Label_5_0128587F
@ 065   ----------------------------------------
 .byte   PATT
  .word Label_5_0128587F
@ 066   ----------------------------------------
 .byte   PATT
  .word Label_5_0128587F
@ 067   ----------------------------------------
 .byte   PATT
  .word Label_5_0128587F
@ 068   ----------------------------------------
 .byte   PATT
  .word Label_5_0128587F
@ 069   ----------------------------------------
 .byte   PATT
  .word Label_5_0128587F
@ 070   ----------------------------------------
 .byte   PATT
  .word Label_5_0128587F
@ 071   ----------------------------------------
 .byte   PATT
  .word Label_5_0128587F
@ 072   ----------------------------------------
 .byte   PATT
  .word Label_5_0128587F
@ 073   ----------------------------------------
 .byte   PATT
  .word Label_5_0128587F
@ 074   ----------------------------------------
 .byte   PATT
  .word Label_5_0128587F
@ 075   ----------------------------------------
 .byte   PATT
  .word Label_5_0128587F
@ 076   ----------------------------------------
 .byte   PATT
  .word Label_5_012856DE
@ 077   ----------------------------------------
 .byte   PATT
  .word Label_5_012856DE
@ 078   ----------------------------------------
 .byte   PATT
  .word Label_5_012856DE
@ 079   ----------------------------------------
 .byte   PATT
  .word Label_5_012856DE
@ 080   ----------------------------------------
 .byte   PATT
  .word Label_5_012856DE
@ 081   ----------------------------------------
 .byte   PATT
  .word Label_5_012856DE
@ 082   ----------------------------------------
 .byte   PATT
  .word Label_5_012856DE
@ 083   ----------------------------------------
 .byte   PATT
  .word Label_5_012856DE
@ 084   ----------------------------------------
 .byte   VOICE , 35
 .byte   N11 ,En1 ,v076
 .byte   W12
 .byte   N05
 .byte   W06
 .byte   N05
 .byte   W06
 .byte   N11
 .byte   W12
 .byte   N05
 .byte   W06
 .byte   N05
 .byte   W06
 .byte   N11
 .byte   W12
 .byte   N05
 .byte   W06
 .byte   N05
 .byte   W06
 .byte   N11
 .byte   W12
 .byte   N05
 .byte   W06
 .byte   N05
 .byte   W06
@ 085   ----------------------------------------
 .byte   PATT
  .word Label_5_012856DE
@ 086   ----------------------------------------
 .byte   PATT
  .word Label_5_012856F9
@ 087   ----------------------------------------
 .byte   PATT
  .word Label_5_012856F9
@ 088   ----------------------------------------
 .byte   PATT
  .word Label_5_01285719
@ 089   ----------------------------------------
 .byte   PATT
  .word Label_5_01285719
@ 090   ----------------------------------------
 .byte   PATT
  .word Label_5_012856F9
@ 091   ----------------------------------------
 .byte   PATT
  .word Label_5_0128573E
@ 092   ----------------------------------------
 .byte   PATT
  .word Label_5_012856DE
@ 093   ----------------------------------------
 .byte   PATT
  .word Label_5_012856DE
@ 094   ----------------------------------------
 .byte   PATT
  .word Label_5_012856F9
@ 095   ----------------------------------------
 .byte   PATT
  .word Label_5_012856F9
@ 096   ----------------------------------------
 .byte   PATT
  .word Label_5_01285719
@ 097   ----------------------------------------
 .byte   PATT
  .word Label_5_01285719
@ 098   ----------------------------------------
 .byte   PATT
  .word Label_5_012856F9
@ 099   ----------------------------------------
 .byte   PATT
  .word Label_5_0128573E
@ 100   ----------------------------------------
 .byte   PATT
  .word Label_5_012856DE
@ 101   ----------------------------------------
 .byte   PATT
  .word Label_5_012856DE
@ 102   ----------------------------------------
 .byte   PATT
  .word Label_5_012856F9
@ 103   ----------------------------------------
 .byte   PATT
  .word Label_5_012856F9
@ 104   ----------------------------------------
 .byte   PATT
  .word Label_5_01285719
@ 105   ----------------------------------------
 .byte   PATT
  .word Label_5_01285719
@ 106   ----------------------------------------
 .byte   PATT
  .word Label_5_012856F9
@ 107   ----------------------------------------
 .byte   PATT
  .word Label_5_0128573E
@ 108   ----------------------------------------
 .byte   PATT
  .word Label_5_012856DE
@ 109   ----------------------------------------
 .byte   PATT
  .word Label_5_012856DE
@ 110   ----------------------------------------
 .byte   PATT
  .word Label_5_012856F9
@ 111   ----------------------------------------
 .byte   PATT
  .word Label_5_012856F9
@ 112   ----------------------------------------
 .byte   PATT
  .word Label_5_01285719
@ 113   ----------------------------------------
 .byte   PATT
  .word Label_5_01285719
@ 114   ----------------------------------------
 .byte   PATT
  .word Label_5_012856F9
@ 115   ----------------------------------------
 .byte   PATT
  .word Label_5_0128573E
@ 116   ----------------------------------------
 .byte   PATT
  .word Label_5_01285719
@ 117   ----------------------------------------
 .byte   PATT
  .word Label_5_012857D7
@ 118   ----------------------------------------
 .byte   PATT
  .word Label_5_012856DE
@ 119   ----------------------------------------
 .byte   PATT
  .word Label_5_012857F7
@ 120   ----------------------------------------
 .byte   PATT
  .word Label_5_01285719
@ 121   ----------------------------------------
 .byte   PATT
  .word Label_5_012857D7
@ 122   ----------------------------------------
 .byte   PATT
  .word Label_5_012856DE
@ 123   ----------------------------------------
 .byte   PATT
  .word Label_5_012857F7
@ 124   ----------------------------------------
 .byte   PATT
  .word Label_5_012856DE
@ 125   ----------------------------------------
 .byte   PATT
  .word Label_5_012856F9
@ 126   ----------------------------------------
 .byte   PATT
  .word Label_5_01285830
@ 127   ----------------------------------------
 .byte   PATT
  .word Label_5_0128584B
@ 128   ----------------------------------------
 .byte   PATT
  .word Label_5_012856DE
@ 129   ----------------------------------------
 .byte   PATT
  .word Label_5_012856F9
@ 130   ----------------------------------------
 .byte   PATT
  .word Label_5_01285830
@ 131   ----------------------------------------
 .byte   PATT
  .word Label_5_0128584B
@ 132   ----------------------------------------
 .byte   W96
@ 133   ----------------------------------------
 .byte   W96
@ 134   ----------------------------------------
 .byte   W96
@ 135   ----------------------------------------
 .byte   W96
@ 136   ----------------------------------------
 .byte   PATT
  .word Label_5_0128587F
@ 137   ----------------------------------------
 .byte   PATT
  .word Label_5_0128587F
@ 138   ----------------------------------------
 .byte   PATT
  .word Label_5_0128587F
@ 139   ----------------------------------------
 .byte   PATT
  .word Label_5_0128587F
@ 140   ----------------------------------------
 .byte   PATT
  .word Label_5_0128587F
@ 141   ----------------------------------------
 .byte   PATT
  .word Label_5_0128587F
@ 142   ----------------------------------------
 .byte   PATT
  .word Label_5_0128587F
@ 143   ----------------------------------------
 .byte   PATT
  .word Label_5_0128587F
@ 144   ----------------------------------------
 .byte   PATT
  .word Label_5_0128587F
@ 145   ----------------------------------------
 .byte   PATT
  .word Label_5_0128587F
@ 146   ----------------------------------------
 .byte   PATT
  .word Label_5_0128587F
@ 147   ----------------------------------------
 .byte   PATT
  .word Label_5_0128587F
@ 148   ----------------------------------------
 .byte   PATT
  .word Label_5_0128587F
@ 149   ----------------------------------------
 .byte   PATT
  .word Label_5_0128587F
@ 150   ----------------------------------------
 .byte   PATT
  .word Label_5_0128587F
@ 151   ----------------------------------------
 .byte   PATT
  .word Label_5_0128587F
@ 152   ----------------------------------------
 .byte   PATT
  .word Label_5_0128587F
@ 153   ----------------------------------------
 .byte   PATT
  .word Label_5_0128587F
@ 154   ----------------------------------------
 .byte   PATT
  .word Label_5_0128587F
@ 155   ----------------------------------------
 .byte   PATT
  .word Label_5_0128587F
@ 156   ----------------------------------------
 .byte   PATT
  .word Label_5_0128587F
@ 157   ----------------------------------------
 .byte   PATT
  .word Label_5_0128587F
@ 158   ----------------------------------------
 .byte   PATT
  .word Label_5_0128587F
@ 159   ----------------------------------------
 .byte   PATT
  .word Label_5_0128587F
@ 160   ----------------------------------------
 .byte   PATT
  .word Label_5_012856DE
@ 161   ----------------------------------------
 .byte   PATT
  .word Label_5_012856DE
@ 162   ----------------------------------------
 .byte   PATT
  .word Label_5_012856DE
@ 163   ----------------------------------------
 .byte   PATT
  .word Label_5_012856DE
@ 164   ----------------------------------------
 .byte   PATT
  .word Label_5_012856DE
@ 165   ----------------------------------------
 .byte   PATT
  .word Label_5_012856DE
@ 166   ----------------------------------------
 .byte   PATT
  .word Label_5_012856DE
@ 167   ----------------------------------------
 .byte   N11 ,En1 ,v076
 .byte   W12
 .byte   N05
 .byte   W06
 .byte   N05
 .byte   W06
 .byte   N11
 .byte   W12
 .byte   N05
 .byte   W06
 .byte   N05
 .byte   W06
 .byte   N11
 .byte   W12
 .byte   N05
 .byte   W06
 .byte   N05
 .byte   W06
 .byte   N11
 .byte   W12
 .byte   N05
 .byte   W06
 .byte   N05
 .byte   W05
 .byte   GOTO
  .word Label_5_012856BE
 .byte   FINE

@**************** Track 7 (Midi-Chn.6) ****************@

song0166_007:
@ 000   ----------------------------------------
 .byte   KEYSH , song0166_key+0
Label_6_01285AFE:
 .byte   VOICE , 38
 .byte   VOL , 40*song0166_mvl/mxv
 .byte   PAN , c_v+0
 .byte   N11 ,En1 ,v060
 .byte   W12
 .byte   N05
 .byte   W06
 .byte   N05
 .byte   W06
 .byte   N11
 .byte   W12
 .byte   N05
 .byte   W06
 .byte   N05
 .byte   W06
 .byte   N11
 .byte   W12
 .byte   N05
 .byte   W06
 .byte   N05
 .byte   W06
 .byte   N11
 .byte   W12
 .byte   N05
 .byte   W06
 .byte   N05
 .byte   W06
@ 001   ----------------------------------------
Label_6_01285B1E:
 .byte   N11 ,En1 ,v060
 .byte   W12
 .byte   N05
 .byte   W06
 .byte   N05
 .byte   W06
 .byte   N11
 .byte   W12
 .byte   N05
 .byte   W06
 .byte   N05
 .byte   W06
 .byte   N11
 .byte   W12
 .byte   N05
 .byte   W06
 .byte   N05
 .byte   W06
 .byte   N11
 .byte   W12
 .byte   N05
 .byte   W06
 .byte   N05
 .byte   W06
 .byte   PEND 
@ 002   ----------------------------------------
Label_6_01285B39:
 .byte   N11 ,Dn1 ,v060
 .byte   W12
 .byte   N05
 .byte   W06
 .byte   N05
 .byte   W06
 .byte   N11
 .byte   W12
 .byte   N05
 .byte   W06
 .byte   N05
 .byte   W06
 .byte   N11
 .byte   W12
 .byte   N05
 .byte   W06
 .byte   N05
 .byte   W06
 .byte   N11
 .byte   W12
 .byte   N05
 .byte   W06
 .byte   N05
 .byte   W06
 .byte   PEND 
@ 003   ----------------------------------------
 .byte   PATT
  .word Label_6_01285B39
@ 004   ----------------------------------------
Label_6_01285B59:
 .byte   N11 ,Cn1 ,v060
 .byte   W12
 .byte   N05
 .byte   W06
 .byte   N05
 .byte   W06
 .byte   N11
 .byte   W12
 .byte   N05
 .byte   W06
 .byte   N05
 .byte   W06
 .byte   N11
 .byte   W12
 .byte   N05
 .byte   W06
 .byte   N05
 .byte   W06
 .byte   N11
 .byte   W12
 .byte   N05
 .byte   W06
 .byte   N05
 .byte   W06
 .byte   PEND 
@ 005   ----------------------------------------
 .byte   PATT
  .word Label_6_01285B59
@ 006   ----------------------------------------
 .byte   PATT
  .word Label_6_01285B39
@ 007   ----------------------------------------
Label_6_01285B7E:
 .byte   N11 ,Dn1 ,v060
 .byte   W12
 .byte   N05
 .byte   W06
 .byte   N05
 .byte   W06
 .byte   N11
 .byte   W12
 .byte   N05
 .byte   W06
 .byte   N05
 .byte   W06
 .byte   N11
 .byte   W12
 .byte   N05
 .byte   W06
 .byte   N05
 .byte   W06
 .byte   N11
 .byte   W12
 .byte   N05 ,Ds1
 .byte   W06
 .byte   N05
 .byte   W06
 .byte   PEND 
@ 008   ----------------------------------------
 .byte   PATT
  .word Label_6_01285B1E
@ 009   ----------------------------------------
 .byte   PATT
  .word Label_6_01285B1E
@ 010   ----------------------------------------
 .byte   PATT
  .word Label_6_01285B39
@ 011   ----------------------------------------
 .byte   PATT
  .word Label_6_01285B39
@ 012   ----------------------------------------
 .byte   PATT
  .word Label_6_01285B59
@ 013   ----------------------------------------
 .byte   PATT
  .word Label_6_01285B59
@ 014   ----------------------------------------
 .byte   PATT
  .word Label_6_01285B39
@ 015   ----------------------------------------
 .byte   PATT
  .word Label_6_01285B7E
@ 016   ----------------------------------------
 .byte   PATT
  .word Label_6_01285B1E
@ 017   ----------------------------------------
 .byte   PATT
  .word Label_6_01285B1E
@ 018   ----------------------------------------
 .byte   PATT
  .word Label_6_01285B39
@ 019   ----------------------------------------
 .byte   PATT
  .word Label_6_01285B39
@ 020   ----------------------------------------
 .byte   PATT
  .word Label_6_01285B59
@ 021   ----------------------------------------
 .byte   PATT
  .word Label_6_01285B59
@ 022   ----------------------------------------
 .byte   PATT
  .word Label_6_01285B39
@ 023   ----------------------------------------
 .byte   PATT
  .word Label_6_01285B7E
@ 024   ----------------------------------------
 .byte   PATT
  .word Label_6_01285B1E
@ 025   ----------------------------------------
 .byte   PATT
  .word Label_6_01285B1E
@ 026   ----------------------------------------
 .byte   PATT
  .word Label_6_01285B39
@ 027   ----------------------------------------
 .byte   PATT
  .word Label_6_01285B39
@ 028   ----------------------------------------
 .byte   PATT
  .word Label_6_01285B59
@ 029   ----------------------------------------
 .byte   PATT
  .word Label_6_01285B59
@ 030   ----------------------------------------
 .byte   PATT
  .word Label_6_01285B39
@ 031   ----------------------------------------
 .byte   PATT
  .word Label_6_01285B7E
@ 032   ----------------------------------------
 .byte   PATT
  .word Label_6_01285B59
@ 033   ----------------------------------------
Label_6_01285C17:
 .byte   N11 ,Dn1 ,v060
 .byte   W12
 .byte   N05
 .byte   W06
 .byte   N05
 .byte   W06
 .byte   N11
 .byte   W12
 .byte   N05
 .byte   W06
 .byte   N05
 .byte   W06
 .byte   N11
 .byte   W12
 .byte   N05
 .byte   W06
 .byte   N05
 .byte   W06
 .byte   N11
 .byte   W12
 .byte   N05
 .byte   W06
 .byte   Ds1
 .byte   W06
 .byte   PEND 
@ 034   ----------------------------------------
 .byte   PATT
  .word Label_6_01285B1E
@ 035   ----------------------------------------
Label_6_01285C37:
 .byte   N11 ,En1 ,v060
 .byte   W12
 .byte   N05
 .byte   W06
 .byte   N05
 .byte   W06
 .byte   N11
 .byte   W12
 .byte   N05
 .byte   W06
 .byte   N05
 .byte   W06
 .byte   N11
 .byte   W12
 .byte   N05
 .byte   W06
 .byte   N05
 .byte   W06
 .byte   N11
 .byte   W12
 .byte   N05
 .byte   W06
 .byte   Dn1
 .byte   W06
 .byte   PEND 
@ 036   ----------------------------------------
 .byte   PATT
  .word Label_6_01285B59
@ 037   ----------------------------------------
 .byte   PATT
  .word Label_6_01285C17
@ 038   ----------------------------------------
 .byte   PATT
  .word Label_6_01285B1E
@ 039   ----------------------------------------
 .byte   PATT
  .word Label_6_01285C37
@ 040   ----------------------------------------
 .byte   PATT
  .word Label_6_01285B1E
@ 041   ----------------------------------------
 .byte   PATT
  .word Label_6_01285B39
@ 042   ----------------------------------------
Label_6_01285C70:
 .byte   N11 ,Cs1 ,v060
 .byte   W12
 .byte   N05
 .byte   W06
 .byte   N05
 .byte   W06
 .byte   N11
 .byte   W12
 .byte   N05
 .byte   W06
 .byte   N05
 .byte   W06
 .byte   N11
 .byte   W12
 .byte   N05
 .byte   W06
 .byte   N05
 .byte   W06
 .byte   N11
 .byte   W12
 .byte   N05
 .byte   W06
 .byte   N05
 .byte   W06
 .byte   PEND 
@ 043   ----------------------------------------
Label_6_01285C8B:
 .byte   N11 ,Cn1 ,v060
 .byte   W12
 .byte   N05
 .byte   W06
 .byte   N05
 .byte   W06
 .byte   N11
 .byte   W12
 .byte   N05
 .byte   W06
 .byte   N05
 .byte   W06
 .byte   N11 ,Dn1
 .byte   W12
 .byte   N05
 .byte   W06
 .byte   N05
 .byte   W06
 .byte   N11
 .byte   W12
 .byte   N05
 .byte   W06
 .byte   Ds1
 .byte   W06
 .byte   PEND 
@ 044   ----------------------------------------
 .byte   PATT
  .word Label_6_01285B1E
@ 045   ----------------------------------------
 .byte   PATT
  .word Label_6_01285B39
@ 046   ----------------------------------------
 .byte   PATT
  .word Label_6_01285C70
@ 047   ----------------------------------------
 .byte   PATT
  .word Label_6_01285C8B
@ 048   ----------------------------------------
Label_6_01285CBB:
 .byte   N04 ,En1 ,v060
 .byte   W06
 .byte   N04
 .byte   W06
 .byte   N04
 .byte   W06
 .byte   N04
 .byte   W06
 .byte   N04
 .byte   W06
 .byte   N04
 .byte   W06
 .byte   N04
 .byte   W06
 .byte   N04
 .byte   W06
 .byte   N04
 .byte   W06
 .byte   N04
 .byte   W06
 .byte   N04
 .byte   W06
 .byte   N04
 .byte   W06
 .byte   N04
 .byte   W06
 .byte   N04
 .byte   W06
 .byte   N04
 .byte   W06
 .byte   N04
 .byte   W06
 .byte   PEND 
@ 049   ----------------------------------------
 .byte   PATT
  .word Label_6_01285CBB
@ 050   ----------------------------------------
 .byte   PATT
  .word Label_6_01285CBB
@ 051   ----------------------------------------
 .byte   PATT
  .word Label_6_01285CBB
@ 052   ----------------------------------------
Label_6_01285CED:
 .byte   N04 ,En2 ,v060
 .byte   W06
 .byte   N04
 .byte   W06
 .byte   En3
 .byte   W06
 .byte   En2
 .byte   W06
 .byte   N04
 .byte   W06
 .byte   En3
 .byte   W06
 .byte   En2
 .byte   W06
 .byte   N04
 .byte   W06
 .byte   En3
 .byte   W06
 .byte   En2
 .byte   W06
 .byte   N04
 .byte   W06
 .byte   En3
 .byte   W06
 .byte   En2
 .byte   W06
 .byte   N04
 .byte   W06
 .byte   En3
 .byte   W06
 .byte   En2
 .byte   W06
 .byte   PEND 
@ 053   ----------------------------------------
 .byte   PATT
  .word Label_6_01285CED
@ 054   ----------------------------------------
 .byte   PATT
  .word Label_6_01285CED
@ 055   ----------------------------------------
 .byte   PATT
  .word Label_6_01285CED
@ 056   ----------------------------------------
 .byte   PATT
  .word Label_6_01285CED
@ 057   ----------------------------------------
 .byte   PATT
  .word Label_6_01285CED
@ 058   ----------------------------------------
 .byte   PATT
  .word Label_6_01285CED
@ 059   ----------------------------------------
 .byte   PATT
  .word Label_6_01285CED
@ 060   ----------------------------------------
 .byte   PATT
  .word Label_6_01285CED
@ 061   ----------------------------------------
 .byte   PATT
  .word Label_6_01285CED
@ 062   ----------------------------------------
 .byte   PATT
  .word Label_6_01285CED
@ 063   ----------------------------------------
 .byte   PATT
  .word Label_6_01285CED
@ 064   ----------------------------------------
 .byte   PATT
  .word Label_6_01285CED
@ 065   ----------------------------------------
 .byte   PATT
  .word Label_6_01285CED
@ 066   ----------------------------------------
 .byte   PATT
  .word Label_6_01285CED
@ 067   ----------------------------------------
 .byte   PATT
  .word Label_6_01285CED
@ 068   ----------------------------------------
 .byte   PATT
  .word Label_6_01285CED
@ 069   ----------------------------------------
 .byte   PATT
  .word Label_6_01285CED
@ 070   ----------------------------------------
 .byte   PATT
  .word Label_6_01285CED
@ 071   ----------------------------------------
 .byte   PATT
  .word Label_6_01285CED
@ 072   ----------------------------------------
 .byte   PATT
  .word Label_6_01285CED
@ 073   ----------------------------------------
 .byte   PATT
  .word Label_6_01285CED
@ 074   ----------------------------------------
 .byte   PATT
  .word Label_6_01285CED
@ 075   ----------------------------------------
 .byte   PATT
  .word Label_6_01285CED
@ 076   ----------------------------------------
 .byte   PATT
  .word Label_6_01285CED
@ 077   ----------------------------------------
 .byte   PATT
  .word Label_6_01285CED
@ 078   ----------------------------------------
 .byte   PATT
  .word Label_6_01285CED
@ 079   ----------------------------------------
 .byte   PATT
  .word Label_6_01285CED
@ 080   ----------------------------------------
 .byte   PATT
  .word Label_6_01285CED
@ 081   ----------------------------------------
 .byte   PATT
  .word Label_6_01285CED
@ 082   ----------------------------------------
 .byte   PATT
  .word Label_6_01285CED
@ 083   ----------------------------------------
 .byte   PATT
  .word Label_6_01285CED
@ 084   ----------------------------------------
 .byte   VOICE , 38
 .byte   N11 ,En1 ,v060
 .byte   W12
 .byte   N05
 .byte   W06
 .byte   N05
 .byte   W06
 .byte   N11
 .byte   W12
 .byte   N05
 .byte   W06
 .byte   N05
 .byte   W06
 .byte   N11
 .byte   W12
 .byte   N05
 .byte   W06
 .byte   N05
 .byte   W06
 .byte   N11
 .byte   W12
 .byte   N05
 .byte   W06
 .byte   N05
 .byte   W06
@ 085   ----------------------------------------
 .byte   PATT
  .word Label_6_01285B1E
@ 086   ----------------------------------------
 .byte   PATT
  .word Label_6_01285B39
@ 087   ----------------------------------------
 .byte   PATT
  .word Label_6_01285B39
@ 088   ----------------------------------------
 .byte   PATT
  .word Label_6_01285B59
@ 089   ----------------------------------------
 .byte   PATT
  .word Label_6_01285B59
@ 090   ----------------------------------------
 .byte   PATT
  .word Label_6_01285B39
@ 091   ----------------------------------------
 .byte   PATT
  .word Label_6_01285B7E
@ 092   ----------------------------------------
 .byte   PATT
  .word Label_6_01285B1E
@ 093   ----------------------------------------
 .byte   PATT
  .word Label_6_01285B1E
@ 094   ----------------------------------------
 .byte   PATT
  .word Label_6_01285B39
@ 095   ----------------------------------------
 .byte   PATT
  .word Label_6_01285B39
@ 096   ----------------------------------------
 .byte   PATT
  .word Label_6_01285B59
@ 097   ----------------------------------------
 .byte   PATT
  .word Label_6_01285B59
@ 098   ----------------------------------------
 .byte   PATT
  .word Label_6_01285B39
@ 099   ----------------------------------------
 .byte   PATT
  .word Label_6_01285B7E
@ 100   ----------------------------------------
 .byte   PATT
  .word Label_6_01285B1E
@ 101   ----------------------------------------
 .byte   PATT
  .word Label_6_01285B1E
@ 102   ----------------------------------------
 .byte   PATT
  .word Label_6_01285B39
@ 103   ----------------------------------------
 .byte   PATT
  .word Label_6_01285B39
@ 104   ----------------------------------------
 .byte   PATT
  .word Label_6_01285B59
@ 105   ----------------------------------------
 .byte   PATT
  .word Label_6_01285B59
@ 106   ----------------------------------------
 .byte   PATT
  .word Label_6_01285B39
@ 107   ----------------------------------------
 .byte   PATT
  .word Label_6_01285B7E
@ 108   ----------------------------------------
 .byte   PATT
  .word Label_6_01285B1E
@ 109   ----------------------------------------
 .byte   PATT
  .word Label_6_01285B1E
@ 110   ----------------------------------------
 .byte   PATT
  .word Label_6_01285B39
@ 111   ----------------------------------------
 .byte   PATT
  .word Label_6_01285B39
@ 112   ----------------------------------------
 .byte   PATT
  .word Label_6_01285B59
@ 113   ----------------------------------------
 .byte   PATT
  .word Label_6_01285B59
@ 114   ----------------------------------------
 .byte   PATT
  .word Label_6_01285B39
@ 115   ----------------------------------------
 .byte   PATT
  .word Label_6_01285B7E
@ 116   ----------------------------------------
 .byte   PATT
  .word Label_6_01285B59
@ 117   ----------------------------------------
 .byte   PATT
  .word Label_6_01285C17
@ 118   ----------------------------------------
 .byte   PATT
  .word Label_6_01285B1E
@ 119   ----------------------------------------
 .byte   PATT
  .word Label_6_01285C37
@ 120   ----------------------------------------
 .byte   PATT
  .word Label_6_01285B59
@ 121   ----------------------------------------
 .byte   PATT
  .word Label_6_01285C17
@ 122   ----------------------------------------
 .byte   PATT
  .word Label_6_01285B1E
@ 123   ----------------------------------------
 .byte   PATT
  .word Label_6_01285C37
@ 124   ----------------------------------------
 .byte   PATT
  .word Label_6_01285B1E
@ 125   ----------------------------------------
 .byte   PATT
  .word Label_6_01285B39
@ 126   ----------------------------------------
 .byte   PATT
  .word Label_6_01285C70
@ 127   ----------------------------------------
 .byte   PATT
  .word Label_6_01285C8B
@ 128   ----------------------------------------
 .byte   PATT
  .word Label_6_01285B1E
@ 129   ----------------------------------------
 .byte   PATT
  .word Label_6_01285B39
@ 130   ----------------------------------------
 .byte   PATT
  .word Label_6_01285C70
@ 131   ----------------------------------------
 .byte   PATT
  .word Label_6_01285C8B
@ 132   ----------------------------------------
 .byte   PATT
  .word Label_6_01285CBB
@ 133   ----------------------------------------
 .byte   PATT
  .word Label_6_01285CBB
@ 134   ----------------------------------------
 .byte   PATT
  .word Label_6_01285CBB
@ 135   ----------------------------------------
 .byte   PATT
  .word Label_6_01285CBB
@ 136   ----------------------------------------
 .byte   PATT
  .word Label_6_01285CED
@ 137   ----------------------------------------
 .byte   PATT
  .word Label_6_01285CED
@ 138   ----------------------------------------
 .byte   PATT
  .word Label_6_01285CED
@ 139   ----------------------------------------
 .byte   PATT
  .word Label_6_01285CED
@ 140   ----------------------------------------
 .byte   PATT
  .word Label_6_01285CED
@ 141   ----------------------------------------
 .byte   PATT
  .word Label_6_01285CED
@ 142   ----------------------------------------
 .byte   PATT
  .word Label_6_01285CED
@ 143   ----------------------------------------
 .byte   PATT
  .word Label_6_01285CED
@ 144   ----------------------------------------
 .byte   PATT
  .word Label_6_01285CED
@ 145   ----------------------------------------
 .byte   PATT
  .word Label_6_01285CED
@ 146   ----------------------------------------
 .byte   PATT
  .word Label_6_01285CED
@ 147   ----------------------------------------
 .byte   PATT
  .word Label_6_01285CED
@ 148   ----------------------------------------
 .byte   PATT
  .word Label_6_01285CED
@ 149   ----------------------------------------
 .byte   PATT
  .word Label_6_01285CED
@ 150   ----------------------------------------
 .byte   PATT
  .word Label_6_01285CED
@ 151   ----------------------------------------
 .byte   PATT
  .word Label_6_01285CED
@ 152   ----------------------------------------
 .byte   PATT
  .word Label_6_01285CED
@ 153   ----------------------------------------
 .byte   PATT
  .word Label_6_01285CED
@ 154   ----------------------------------------
 .byte   PATT
  .word Label_6_01285CED
@ 155   ----------------------------------------
 .byte   PATT
  .word Label_6_01285CED
@ 156   ----------------------------------------
 .byte   PATT
  .word Label_6_01285CED
@ 157   ----------------------------------------
 .byte   PATT
  .word Label_6_01285CED
@ 158   ----------------------------------------
 .byte   PATT
  .word Label_6_01285CED
@ 159   ----------------------------------------
 .byte   PATT
  .word Label_6_01285CED
@ 160   ----------------------------------------
 .byte   PATT
  .word Label_6_01285CED
@ 161   ----------------------------------------
 .byte   PATT
  .word Label_6_01285CED
@ 162   ----------------------------------------
 .byte   PATT
  .word Label_6_01285CED
@ 163   ----------------------------------------
 .byte   PATT
  .word Label_6_01285CED
@ 164   ----------------------------------------
 .byte   PATT
  .word Label_6_01285CED
@ 165   ----------------------------------------
 .byte   PATT
  .word Label_6_01285CED
@ 166   ----------------------------------------
 .byte   PATT
  .word Label_6_01285CED
@ 167   ----------------------------------------
 .byte   N04 ,En2 ,v060
 .byte   W06
 .byte   N04
 .byte   W06
 .byte   En3
 .byte   W06
 .byte   En2
 .byte   W06
 .byte   N04
 .byte   W06
 .byte   En3
 .byte   W06
 .byte   En2
 .byte   W06
 .byte   N04
 .byte   W06
 .byte   En3
 .byte   W06
 .byte   En2
 .byte   W06
 .byte   N04
 .byte   W06
 .byte   En3
 .byte   W06
 .byte   En2
 .byte   W06
 .byte   N04
 .byte   W06
 .byte   En3
 .byte   W06
 .byte   En2
 .byte   W05
 .byte   GOTO
  .word Label_6_01285AFE
 .byte   FINE

@**************** Track 8 (Midi-Chn.7) ****************@

song0166_008:
@ 000   ----------------------------------------
 .byte   KEYSH , song0166_key+0
Label_7_01285F8E:
 .byte   VOICE , 81
 .byte   VOL , 40*song0166_mvl/mxv
 .byte   PAN , c_v+0
 .byte   TIE ,En1 ,v060
 .byte   W96
@ 001   ----------------------------------------
 .byte   W96
@ 002   ----------------------------------------
 .byte   EOT
 .byte   TIE ,Dn1
 .byte   W96
@ 003   ----------------------------------------
 .byte   W96
@ 004   ----------------------------------------
 .byte   EOT
 .byte   TIE ,Cn1
 .byte   W96
@ 005   ----------------------------------------
 .byte   W96
@ 006   ----------------------------------------
 .byte   EOT
 .byte   TIE ,Dn1
 .byte   W96
@ 007   ----------------------------------------
 .byte   W96
@ 008   ----------------------------------------
 .byte   EOT
 .byte   TIE ,En1
 .byte   W96
@ 009   ----------------------------------------
 .byte   W96
@ 010   ----------------------------------------
 .byte   EOT
 .byte   TIE ,Dn1
 .byte   W96
@ 011   ----------------------------------------
 .byte   W96
@ 012   ----------------------------------------
 .byte   EOT
 .byte   TIE ,Cn1
 .byte   W96
@ 013   ----------------------------------------
 .byte   W96
@ 014   ----------------------------------------
 .byte   EOT
 .byte   TIE ,Dn1
 .byte   W96
@ 015   ----------------------------------------
 .byte   W96
@ 016   ----------------------------------------
 .byte   EOT
 .byte   TIE ,En1
 .byte   W96
@ 017   ----------------------------------------
 .byte   W96
@ 018   ----------------------------------------
 .byte   EOT
 .byte   TIE ,Dn1
 .byte   W96
@ 019   ----------------------------------------
 .byte   W96
@ 020   ----------------------------------------
 .byte   EOT
 .byte   TIE ,Cn1
 .byte   W96
@ 021   ----------------------------------------
 .byte   W96
@ 022   ----------------------------------------
 .byte   EOT
 .byte   TIE ,Dn1
 .byte   W96
@ 023   ----------------------------------------
 .byte   W96
@ 024   ----------------------------------------
 .byte   EOT
 .byte   TIE ,En1
 .byte   W96
@ 025   ----------------------------------------
 .byte   W96
@ 026   ----------------------------------------
 .byte   EOT
 .byte   TIE ,Dn1
 .byte   W96
@ 027   ----------------------------------------
 .byte   W96
@ 028   ----------------------------------------
 .byte   EOT
 .byte   TIE ,Cn1
 .byte   W96
@ 029   ----------------------------------------
 .byte   W96
@ 030   ----------------------------------------
 .byte   EOT
 .byte   TIE ,Dn1
 .byte   W96
@ 031   ----------------------------------------
 .byte   W96
@ 032   ----------------------------------------
 .byte   EOT
 .byte   N96 ,Cn1
 .byte   W96
@ 033   ----------------------------------------
 .byte   Dn1
 .byte   W96
@ 034   ----------------------------------------
 .byte   TIE ,En1
 .byte   W96
@ 035   ----------------------------------------
 .byte   W96
@ 036   ----------------------------------------
 .byte   EOT
 .byte   N96 ,Cn1
 .byte   W96
@ 037   ----------------------------------------
 .byte   Dn1
 .byte   W96
@ 038   ----------------------------------------
 .byte   TIE ,En1
 .byte   W96
@ 039   ----------------------------------------
 .byte   W96
@ 040   ----------------------------------------
 .byte   EOT
 .byte   N96
 .byte   W96
@ 041   ----------------------------------------
 .byte   Dn1
 .byte   W96
@ 042   ----------------------------------------
 .byte   Cs1
 .byte   W96
@ 043   ----------------------------------------
Label_7_01285FFF:
 .byte   N48 ,Cn1 ,v060
 .byte   W48
 .byte   Dn1
 .byte   W48
 .byte   PEND 
@ 044   ----------------------------------------
 .byte   N96 ,En1
 .byte   W96
@ 045   ----------------------------------------
 .byte   Dn1
 .byte   W96
@ 046   ----------------------------------------
 .byte   Cs1
 .byte   W96
@ 047   ----------------------------------------
 .byte   PATT
  .word Label_7_01285FFF
@ 048   ----------------------------------------
 .byte   W96
@ 049   ----------------------------------------
 .byte   W96
@ 050   ----------------------------------------
 .byte   W96
@ 051   ----------------------------------------
 .byte   W96
@ 052   ----------------------------------------
 .byte   W96
@ 053   ----------------------------------------
 .byte   W96
@ 054   ----------------------------------------
 .byte   W96
@ 055   ----------------------------------------
 .byte   W96
@ 056   ----------------------------------------
 .byte   W96
@ 057   ----------------------------------------
 .byte   W96
@ 058   ----------------------------------------
 .byte   W96
@ 059   ----------------------------------------
 .byte   W96
@ 060   ----------------------------------------
 .byte   W96
@ 061   ----------------------------------------
 .byte   W96
@ 062   ----------------------------------------
 .byte   W96
@ 063   ----------------------------------------
 .byte   W96
@ 064   ----------------------------------------
 .byte   W96
@ 065   ----------------------------------------
 .byte   W96
@ 066   ----------------------------------------
 .byte   W96
@ 067   ----------------------------------------
 .byte   W96
@ 068   ----------------------------------------
 .byte   TIE ,En1 ,v060
 .byte   W96
@ 069   ----------------------------------------
 .byte   W96
@ 070   ----------------------------------------
 .byte   W96
@ 071   ----------------------------------------
 .byte   W96
@ 072   ----------------------------------------
 .byte   W96
@ 073   ----------------------------------------
 .byte   W96
@ 074   ----------------------------------------
 .byte   W96
@ 075   ----------------------------------------
 .byte   W96
@ 076   ----------------------------------------
 .byte   EOT
 .byte   W96
@ 077   ----------------------------------------
 .byte   W96
@ 078   ----------------------------------------
 .byte   W96
@ 079   ----------------------------------------
 .byte   W96
@ 080   ----------------------------------------
 .byte   W96
@ 081   ----------------------------------------
 .byte   W96
@ 082   ----------------------------------------
 .byte   W96
@ 083   ----------------------------------------
 .byte   W96
@ 084   ----------------------------------------
 .byte   VOICE , 81
 .byte   TIE
 .byte   W96
@ 085   ----------------------------------------
 .byte   W96
@ 086   ----------------------------------------
 .byte   EOT
 .byte   TIE ,Dn1
 .byte   W96
@ 087   ----------------------------------------
 .byte   W96
@ 088   ----------------------------------------
 .byte   EOT
 .byte   TIE ,Cn1
 .byte   W96
@ 089   ----------------------------------------
 .byte   W96
@ 090   ----------------------------------------
 .byte   EOT
 .byte   TIE ,Dn1
 .byte   W96
@ 091   ----------------------------------------
 .byte   W96
@ 092   ----------------------------------------
 .byte   EOT
 .byte   TIE ,En1
 .byte   W96
@ 093   ----------------------------------------
 .byte   W96
@ 094   ----------------------------------------
 .byte   EOT
 .byte   TIE ,Dn1
 .byte   W96
@ 095   ----------------------------------------
 .byte   W96
@ 096   ----------------------------------------
 .byte   EOT
 .byte   TIE ,Cn1
 .byte   W96
@ 097   ----------------------------------------
 .byte   W96
@ 098   ----------------------------------------
 .byte   EOT
 .byte   TIE ,Dn1
 .byte   W96
@ 099   ----------------------------------------
 .byte   W96
@ 100   ----------------------------------------
 .byte   EOT
 .byte   TIE ,En1
 .byte   W96
@ 101   ----------------------------------------
 .byte   W96
@ 102   ----------------------------------------
 .byte   EOT
 .byte   TIE ,Dn1
 .byte   W96
@ 103   ----------------------------------------
 .byte   W96
@ 104   ----------------------------------------
 .byte   EOT
 .byte   TIE ,Cn1
 .byte   W96
@ 105   ----------------------------------------
 .byte   W96
@ 106   ----------------------------------------
 .byte   EOT
 .byte   TIE ,Dn1
 .byte   W96
@ 107   ----------------------------------------
 .byte   W96
@ 108   ----------------------------------------
 .byte   EOT
 .byte   TIE ,En1
 .byte   W96
@ 109   ----------------------------------------
 .byte   W96
@ 110   ----------------------------------------
 .byte   EOT
 .byte   TIE ,Dn1
 .byte   W96
@ 111   ----------------------------------------
 .byte   W96
@ 112   ----------------------------------------
 .byte   EOT
 .byte   TIE ,Cn1
 .byte   W96
@ 113   ----------------------------------------
 .byte   W96
@ 114   ----------------------------------------
 .byte   EOT
 .byte   TIE ,Dn1
 .byte   W96
@ 115   ----------------------------------------
 .byte   W96
@ 116   ----------------------------------------
 .byte   EOT
 .byte   N96 ,Cn1
 .byte   W96
@ 117   ----------------------------------------
 .byte   Dn1
 .byte   W96
@ 118   ----------------------------------------
 .byte   TIE ,En1
 .byte   W96
@ 119   ----------------------------------------
 .byte   W96
@ 120   ----------------------------------------
 .byte   EOT
 .byte   N96 ,Cn1
 .byte   W96
@ 121   ----------------------------------------
 .byte   Dn1
 .byte   W96
@ 122   ----------------------------------------
 .byte   TIE ,En1
 .byte   W96
@ 123   ----------------------------------------
 .byte   W96
@ 124   ----------------------------------------
 .byte   EOT
 .byte   N96
 .byte   W96
@ 125   ----------------------------------------
 .byte   Dn1
 .byte   W96
@ 126   ----------------------------------------
 .byte   Cs1
 .byte   W96
@ 127   ----------------------------------------
 .byte   PATT
  .word Label_7_01285FFF
@ 128   ----------------------------------------
 .byte   N96 ,En1 ,v060
 .byte   W96
@ 129   ----------------------------------------
 .byte   Dn1
 .byte   W96
@ 130   ----------------------------------------
 .byte   Cs1
 .byte   W96
@ 131   ----------------------------------------
 .byte   PATT
  .word Label_7_01285FFF
@ 132   ----------------------------------------
 .byte   W96
@ 133   ----------------------------------------
 .byte   W96
@ 134   ----------------------------------------
 .byte   W96
@ 135   ----------------------------------------
 .byte   W96
@ 136   ----------------------------------------
 .byte   W96
@ 137   ----------------------------------------
 .byte   W96
@ 138   ----------------------------------------
 .byte   W96
@ 139   ----------------------------------------
 .byte   W96
@ 140   ----------------------------------------
 .byte   W96
@ 141   ----------------------------------------
 .byte   W96
@ 142   ----------------------------------------
 .byte   W96
@ 143   ----------------------------------------
 .byte   W96
@ 144   ----------------------------------------
 .byte   W96
@ 145   ----------------------------------------
 .byte   W96
@ 146   ----------------------------------------
 .byte   W96
@ 147   ----------------------------------------
 .byte   W96
@ 148   ----------------------------------------
 .byte   W96
@ 149   ----------------------------------------
 .byte   W96
@ 150   ----------------------------------------
 .byte   W96
@ 151   ----------------------------------------
 .byte   W96
@ 152   ----------------------------------------
 .byte   TIE ,En1 ,v060
 .byte   W96
@ 153   ----------------------------------------
 .byte   W96
@ 154   ----------------------------------------
 .byte   W96
@ 155   ----------------------------------------
 .byte   W96
@ 156   ----------------------------------------
 .byte   W96
@ 157   ----------------------------------------
 .byte   W96
@ 158   ----------------------------------------
 .byte   W96
@ 159   ----------------------------------------
 .byte   W96
@ 160   ----------------------------------------
 .byte   EOT
 .byte   W96
@ 161   ----------------------------------------
 .byte   W96
@ 162   ----------------------------------------
 .byte   W96
@ 163   ----------------------------------------
 .byte   W96
@ 164   ----------------------------------------
 .byte   W96
@ 165   ----------------------------------------
 .byte   W96
@ 166   ----------------------------------------
 .byte   W96
@ 167   ----------------------------------------
 .byte   W92
 .byte   W03
 .byte   GOTO
  .word Label_7_01285F8E
 .byte   FINE

@**************** Track 9 (Midi-Chn.8) ****************@

song0166_009:
@ 000   ----------------------------------------
 .byte   KEYSH , song0166_key+0
Label_8_012860EA:
 .byte   VOICE , 104
 .byte   VOL , 40*song0166_mvl/mxv
 .byte   PAN , c_v+0
 .byte   N05 ,Dn3 ,v060
 .byte   N05 ,Gn3
 .byte   W06
 .byte   Dn3
 .byte   N05 ,Gn3
 .byte   W06
 .byte   Dn3
 .byte   N05 ,Gn3
 .byte   W06
 .byte   Dn3
 .byte   N05 ,Gn3
 .byte   W06
 .byte   N11 ,Dn3
 .byte   N11 ,Fs3
 .byte   W12
 .byte   N20 ,Dn3
 .byte   N20 ,Gn3
 .byte   W24
 .byte   N05 ,Dn3
 .byte   N05 ,Fs3
 .byte   W06
 .byte   Dn3
 .byte   N05 ,Fs3
 .byte   W06
 .byte   Dn3
 .byte   N05 ,Fs3
 .byte   W06
 .byte   Dn3
 .byte   N05 ,Fs3
 .byte   W06
 .byte   N11 ,Dn3
 .byte   N11 ,Fs3
 .byte   W12
@ 001   ----------------------------------------
Label_8_01286122:
 .byte   N05 ,Dn3 ,v060
 .byte   N05 ,Gn3
 .byte   W06
 .byte   Dn3
 .byte   N05 ,Gn3
 .byte   W06
 .byte   Dn3
 .byte   N05 ,Gn3
 .byte   W06
 .byte   Dn3
 .byte   N05 ,Gn3
 .byte   W06
 .byte   N11 ,Dn3
 .byte   N11 ,Fs3
 .byte   W12
 .byte   N23 ,Dn3
 .byte   N23 ,Gn3
 .byte   W24
 .byte   N11 ,Dn3
 .byte   N11 ,Fs3
 .byte   W12
 .byte   Dn3
 .byte   N11 ,Gn3
 .byte   W12
 .byte   Dn3
 .byte   N11 ,An3
 .byte   W12
 .byte   PEND 
@ 002   ----------------------------------------
Label_8_0128614C:
 .byte   N05 ,Dn3 ,v060
 .byte   N05 ,Gn3
 .byte   W06
 .byte   Dn3
 .byte   N05 ,Gn3
 .byte   W06
 .byte   Dn3
 .byte   N05 ,Gn3
 .byte   W06
 .byte   Dn3
 .byte   N05 ,Gn3
 .byte   W06
 .byte   N11 ,Dn3
 .byte   N11 ,Fs3
 .byte   W12
 .byte   N20 ,Dn3
 .byte   N20 ,Gn3
 .byte   W24
 .byte   N05 ,Dn3
 .byte   N05 ,Fs3
 .byte   W06
 .byte   Dn3
 .byte   N05 ,Fs3
 .byte   W06
 .byte   Dn3
 .byte   N05 ,Fs3
 .byte   W06
 .byte   Dn3
 .byte   N05 ,Fs3
 .byte   W06
 .byte   N11 ,Dn3
 .byte   N11 ,Fs3
 .byte   W12
 .byte   PEND 
@ 003   ----------------------------------------
 .byte   PATT
  .word Label_8_01286122
@ 004   ----------------------------------------
 .byte   PATT
  .word Label_8_0128614C
@ 005   ----------------------------------------
 .byte   PATT
  .word Label_8_01286122
@ 006   ----------------------------------------
 .byte   PATT
  .word Label_8_0128614C
@ 007   ----------------------------------------
 .byte   PATT
  .word Label_8_01286122
@ 008   ----------------------------------------
 .byte   PATT
  .word Label_8_0128614C
@ 009   ----------------------------------------
 .byte   PATT
  .word Label_8_01286122
@ 010   ----------------------------------------
 .byte   PATT
  .word Label_8_0128614C
@ 011   ----------------------------------------
 .byte   PATT
  .word Label_8_01286122
@ 012   ----------------------------------------
 .byte   PATT
  .word Label_8_0128614C
@ 013   ----------------------------------------
 .byte   PATT
  .word Label_8_01286122
@ 014   ----------------------------------------
 .byte   PATT
  .word Label_8_0128614C
@ 015   ----------------------------------------
 .byte   PATT
  .word Label_8_01286122
@ 016   ----------------------------------------
 .byte   W96
@ 017   ----------------------------------------
 .byte   W96
@ 018   ----------------------------------------
 .byte   W96
@ 019   ----------------------------------------
 .byte   W96
@ 020   ----------------------------------------
 .byte   W96
@ 021   ----------------------------------------
 .byte   W96
@ 022   ----------------------------------------
 .byte   W96
@ 023   ----------------------------------------
 .byte   W96
@ 024   ----------------------------------------
 .byte   W96
@ 025   ----------------------------------------
 .byte   W96
@ 026   ----------------------------------------
 .byte   W96
@ 027   ----------------------------------------
 .byte   W96
@ 028   ----------------------------------------
 .byte   W96
@ 029   ----------------------------------------
 .byte   W96
@ 030   ----------------------------------------
 .byte   W96
@ 031   ----------------------------------------
 .byte   W96
@ 032   ----------------------------------------
 .byte   W96
@ 033   ----------------------------------------
 .byte   W96
@ 034   ----------------------------------------
 .byte   W96
@ 035   ----------------------------------------
 .byte   W96
@ 036   ----------------------------------------
 .byte   W96
@ 037   ----------------------------------------
 .byte   W96
@ 038   ----------------------------------------
 .byte   W96
@ 039   ----------------------------------------
 .byte   W96
@ 040   ----------------------------------------
 .byte   W96
@ 041   ----------------------------------------
 .byte   W96
@ 042   ----------------------------------------
 .byte   W96
@ 043   ----------------------------------------
 .byte   W96
@ 044   ----------------------------------------
 .byte   W96
@ 045   ----------------------------------------
 .byte   W96
@ 046   ----------------------------------------
 .byte   W96
@ 047   ----------------------------------------
 .byte   W96
@ 048   ----------------------------------------
 .byte   W96
@ 049   ----------------------------------------
 .byte   W96
@ 050   ----------------------------------------
 .byte   W96
@ 051   ----------------------------------------
 .byte   W96
@ 052   ----------------------------------------
Label_8_012861E4:
 .byte   N90 ,Bn2 ,v076
 .byte   N90 ,Dn3
 .byte   N90 ,En3
 .byte   N90 ,Gn3
 .byte   W96
 .byte   PEND 
@ 053   ----------------------------------------
Label_8_012861EF:
 .byte   N66 ,Cs3 ,v076
 .byte   N66 ,En3
 .byte   N66 ,Fs3
 .byte   N66 ,As3
 .byte   W72
 .byte   N20 ,As2
 .byte   N20 ,Cs3
 .byte   N20 ,En3
 .byte   N20 ,Fs3
 .byte   W24
 .byte   PEND 
@ 054   ----------------------------------------
Label_8_01286203:
 .byte   N66 ,Cn3 ,v076
 .byte   N66 ,En3
 .byte   N66 ,Fs3
 .byte   N66 ,An3
 .byte   W72
 .byte   N20 ,An2
 .byte   N20 ,Cn3
 .byte   N20 ,En3
 .byte   N20 ,Fs3
 .byte   W24
 .byte   PEND 
@ 055   ----------------------------------------
 .byte   PATT
  .word Label_8_012861E4
@ 056   ----------------------------------------
 .byte   PATT
  .word Label_8_012861E4
@ 057   ----------------------------------------
 .byte   PATT
  .word Label_8_012861EF
@ 058   ----------------------------------------
 .byte   PATT
  .word Label_8_01286203
@ 059   ----------------------------------------
 .byte   PATT
  .word Label_8_012861E4
@ 060   ----------------------------------------
 .byte   PATT
  .word Label_8_012861E4
@ 061   ----------------------------------------
 .byte   PATT
  .word Label_8_012861EF
@ 062   ----------------------------------------
 .byte   PATT
  .word Label_8_01286203
@ 063   ----------------------------------------
 .byte   PATT
  .word Label_8_012861E4
@ 064   ----------------------------------------
 .byte   PATT
  .word Label_8_012861E4
@ 065   ----------------------------------------
 .byte   PATT
  .word Label_8_012861EF
@ 066   ----------------------------------------
 .byte   PATT
  .word Label_8_01286203
@ 067   ----------------------------------------
 .byte   PATT
  .word Label_8_012861E4
@ 068   ----------------------------------------
 .byte   W96
@ 069   ----------------------------------------
 .byte   W96
@ 070   ----------------------------------------
 .byte   W96
@ 071   ----------------------------------------
 .byte   W96
@ 072   ----------------------------------------
 .byte   W96
@ 073   ----------------------------------------
 .byte   W96
@ 074   ----------------------------------------
 .byte   W96
@ 075   ----------------------------------------
 .byte   W96
@ 076   ----------------------------------------
 .byte   W96
@ 077   ----------------------------------------
 .byte   W96
@ 078   ----------------------------------------
 .byte   W96
@ 079   ----------------------------------------
 .byte   W96
@ 080   ----------------------------------------
 .byte   W96
@ 081   ----------------------------------------
 .byte   W96
@ 082   ----------------------------------------
 .byte   W96
@ 083   ----------------------------------------
 .byte   W96
@ 084   ----------------------------------------
 .byte   VOICE , 104
 .byte   N05 ,Dn3 ,v060
 .byte   N05 ,Gn3
 .byte   W06
 .byte   Dn3
 .byte   N05 ,Gn3
 .byte   W06
 .byte   Dn3
 .byte   N05 ,Gn3
 .byte   W06
 .byte   Dn3
 .byte   N05 ,Gn3
 .byte   W06
 .byte   N11 ,Dn3
 .byte   N11 ,Fs3
 .byte   W12
 .byte   N20 ,Dn3
 .byte   N20 ,Gn3
 .byte   W24
 .byte   N05 ,Dn3
 .byte   N05 ,Fs3
 .byte   W06
 .byte   Dn3
 .byte   N05 ,Fs3
 .byte   W06
 .byte   Dn3
 .byte   N05 ,Fs3
 .byte   W06
 .byte   Dn3
 .byte   N05 ,Fs3
 .byte   W06
 .byte   N11 ,Dn3
 .byte   N11 ,Fs3
 .byte   W12
@ 085   ----------------------------------------
 .byte   PATT
  .word Label_8_01286122
@ 086   ----------------------------------------
 .byte   PATT
  .word Label_8_0128614C
@ 087   ----------------------------------------
 .byte   PATT
  .word Label_8_01286122
@ 088   ----------------------------------------
 .byte   PATT
  .word Label_8_0128614C
@ 089   ----------------------------------------
 .byte   PATT
  .word Label_8_01286122
@ 090   ----------------------------------------
 .byte   PATT
  .word Label_8_0128614C
@ 091   ----------------------------------------
 .byte   PATT
  .word Label_8_01286122
@ 092   ----------------------------------------
 .byte   PATT
  .word Label_8_0128614C
@ 093   ----------------------------------------
 .byte   PATT
  .word Label_8_01286122
@ 094   ----------------------------------------
 .byte   PATT
  .word Label_8_0128614C
@ 095   ----------------------------------------
 .byte   PATT
  .word Label_8_01286122
@ 096   ----------------------------------------
 .byte   PATT
  .word Label_8_0128614C
@ 097   ----------------------------------------
 .byte   PATT
  .word Label_8_01286122
@ 098   ----------------------------------------
 .byte   PATT
  .word Label_8_0128614C
@ 099   ----------------------------------------
 .byte   PATT
  .word Label_8_01286122
@ 100   ----------------------------------------
 .byte   W96
@ 101   ----------------------------------------
 .byte   W96
@ 102   ----------------------------------------
 .byte   W96
@ 103   ----------------------------------------
 .byte   W96
@ 104   ----------------------------------------
 .byte   W96
@ 105   ----------------------------------------
 .byte   W96
@ 106   ----------------------------------------
 .byte   W96
@ 107   ----------------------------------------
 .byte   W96
@ 108   ----------------------------------------
 .byte   W96
@ 109   ----------------------------------------
 .byte   W96
@ 110   ----------------------------------------
 .byte   W96
@ 111   ----------------------------------------
 .byte   W96
@ 112   ----------------------------------------
 .byte   W96
@ 113   ----------------------------------------
 .byte   W96
@ 114   ----------------------------------------
 .byte   W96
@ 115   ----------------------------------------
 .byte   W96
@ 116   ----------------------------------------
 .byte   W96
@ 117   ----------------------------------------
 .byte   W96
@ 118   ----------------------------------------
 .byte   W96
@ 119   ----------------------------------------
 .byte   W96
@ 120   ----------------------------------------
 .byte   W96
@ 121   ----------------------------------------
 .byte   W96
@ 122   ----------------------------------------
 .byte   W96
@ 123   ----------------------------------------
 .byte   W96
@ 124   ----------------------------------------
 .byte   W96
@ 125   ----------------------------------------
 .byte   W96
@ 126   ----------------------------------------
 .byte   W96
@ 127   ----------------------------------------
 .byte   W96
@ 128   ----------------------------------------
 .byte   W96
@ 129   ----------------------------------------
 .byte   W96
@ 130   ----------------------------------------
 .byte   W96
@ 131   ----------------------------------------
 .byte   W96
@ 132   ----------------------------------------
 .byte   W96
@ 133   ----------------------------------------
 .byte   W96
@ 134   ----------------------------------------
 .byte   W96
@ 135   ----------------------------------------
 .byte   W96
@ 136   ----------------------------------------
 .byte   PATT
  .word Label_8_012861E4
@ 137   ----------------------------------------
 .byte   PATT
  .word Label_8_012861EF
@ 138   ----------------------------------------
 .byte   PATT
  .word Label_8_01286203
@ 139   ----------------------------------------
 .byte   PATT
  .word Label_8_012861E4
@ 140   ----------------------------------------
 .byte   PATT
  .word Label_8_012861E4
@ 141   ----------------------------------------
 .byte   PATT
  .word Label_8_012861EF
@ 142   ----------------------------------------
 .byte   PATT
  .word Label_8_01286203
@ 143   ----------------------------------------
 .byte   PATT
  .word Label_8_012861E4
@ 144   ----------------------------------------
 .byte   PATT
  .word Label_8_012861E4
@ 145   ----------------------------------------
 .byte   PATT
  .word Label_8_012861EF
@ 146   ----------------------------------------
 .byte   PATT
  .word Label_8_01286203
@ 147   ----------------------------------------
 .byte   PATT
  .word Label_8_012861E4
@ 148   ----------------------------------------
 .byte   PATT
  .word Label_8_012861E4
@ 149   ----------------------------------------
 .byte   PATT
  .word Label_8_012861EF
@ 150   ----------------------------------------
 .byte   PATT
  .word Label_8_01286203
@ 151   ----------------------------------------
 .byte   PATT
  .word Label_8_012861E4
@ 152   ----------------------------------------
 .byte   W96
@ 153   ----------------------------------------
 .byte   W96
@ 154   ----------------------------------------
 .byte   W96
@ 155   ----------------------------------------
 .byte   W96
@ 156   ----------------------------------------
 .byte   W96
@ 157   ----------------------------------------
 .byte   W96
@ 158   ----------------------------------------
 .byte   W96
@ 159   ----------------------------------------
 .byte   W96
@ 160   ----------------------------------------
 .byte   W96
@ 161   ----------------------------------------
 .byte   W96
@ 162   ----------------------------------------
 .byte   W96
@ 163   ----------------------------------------
 .byte   W96
@ 164   ----------------------------------------
 .byte   W96
@ 165   ----------------------------------------
 .byte   W96
@ 166   ----------------------------------------
 .byte   W96
@ 167   ----------------------------------------
 .byte   W92
 .byte   W03
 .byte   GOTO
  .word Label_8_012860EA
 .byte   FINE

@**************** Track 10 (Midi-Chn.9) ****************@

song0166_010:
@ 000   ----------------------------------------
 .byte   KEYSH , song0166_key+0
Label_9_01286376:
 .byte   VOICE , 124
 .byte   VOL , 40*song0166_mvl/mxv
 .byte   PAN , c_v+0
 .byte   N05 ,Cn1 ,v092
 .byte   N05 ,Fs1
 .byte   N05 ,Cs2
 .byte   N05 ,An2
 .byte   W06
 .byte   Fs1
 .byte   W06
 .byte   As1
 .byte   W06
 .byte   Fs1
 .byte   W06
 .byte   Cn1
 .byte   N05 ,Dn1
 .byte   N05 ,En1
 .byte   N05 ,Fs1
 .byte   W06
 .byte   N05
 .byte   W06
 .byte   As1
 .byte   W06
 .byte   En1
 .byte   N05 ,Fs1
 .byte   W06
 .byte   Cn1
 .byte   N05 ,Fs1
 .byte   W06
 .byte   N05
 .byte   W06
 .byte   As1
 .byte   W06
 .byte   Fs1
 .byte   W06
 .byte   Cn1
 .byte   N05 ,Dn1
 .byte   N05 ,En1
 .byte   N05 ,Fs1
 .byte   W06
 .byte   N05
 .byte   W06
 .byte   As1
 .byte   W06
 .byte   Fs1
 .byte   W06
@ 001   ----------------------------------------
Label_9_012863B4:
 .byte   N05 ,Cn1 ,v092
 .byte   N05 ,Fs1
 .byte   W06
 .byte   N05
 .byte   W06
 .byte   As1
 .byte   W06
 .byte   Fs1
 .byte   W06
 .byte   Cn1
 .byte   N05 ,Dn1
 .byte   N05 ,En1
 .byte   N05 ,Fs1
 .byte   W06
 .byte   N05
 .byte   W06
 .byte   As1
 .byte   W06
 .byte   En1
 .byte   N05 ,Fs1
 .byte   W06
 .byte   Cn1
 .byte   N05 ,Fs1
 .byte   W06
 .byte   N05
 .byte   W06
 .byte   As1
 .byte   W06
 .byte   Fs1
 .byte   W06
 .byte   Cn1
 .byte   N05 ,Dn1
 .byte   N05 ,En1
 .byte   N05 ,Fs1
 .byte   W06
 .byte   N05
 .byte   W06
 .byte   As1
 .byte   W06
 .byte   Fs1
 .byte   W06
 .byte   PEND 
@ 002   ----------------------------------------
 .byte   PATT
  .word Label_9_012863B4
@ 003   ----------------------------------------
 .byte   PATT
  .word Label_9_012863B4
@ 004   ----------------------------------------
 .byte   PATT
  .word Label_9_012863B4
@ 005   ----------------------------------------
 .byte   PATT
  .word Label_9_012863B4
@ 006   ----------------------------------------
 .byte   PATT
  .word Label_9_012863B4
@ 007   ----------------------------------------
 .byte   PATT
  .word Label_9_012863B4
@ 008   ----------------------------------------
Label_9_01286407:
 .byte   N05 ,Cn1 ,v092
 .byte   N05 ,Fs1
 .byte   N05 ,Cs2
 .byte   N05 ,An2
 .byte   W06
 .byte   Fs1
 .byte   W06
 .byte   As1
 .byte   W06
 .byte   Fs1
 .byte   W06
 .byte   Cn1
 .byte   N05 ,Dn1
 .byte   N05 ,En1
 .byte   N05 ,Fs1
 .byte   W06
 .byte   N05
 .byte   W06
 .byte   As1
 .byte   W06
 .byte   En1
 .byte   N05 ,Fs1
 .byte   W06
 .byte   Cn1
 .byte   N05 ,Fs1
 .byte   W06
 .byte   N05
 .byte   W06
 .byte   As1
 .byte   W06
 .byte   Fs1
 .byte   W06
 .byte   Cn1
 .byte   N05 ,Dn1
 .byte   N05 ,En1
 .byte   N05 ,Fs1
 .byte   W06
 .byte   N05
 .byte   W06
 .byte   As1
 .byte   W06
 .byte   Fs1
 .byte   W06
 .byte   PEND 
@ 009   ----------------------------------------
 .byte   PATT
  .word Label_9_012863B4
@ 010   ----------------------------------------
 .byte   PATT
  .word Label_9_012863B4
@ 011   ----------------------------------------
 .byte   PATT
  .word Label_9_012863B4
@ 012   ----------------------------------------
 .byte   PATT
  .word Label_9_012863B4
@ 013   ----------------------------------------
 .byte   PATT
  .word Label_9_012863B4
@ 014   ----------------------------------------
 .byte   PATT
  .word Label_9_012863B4
@ 015   ----------------------------------------
 .byte   PATT
  .word Label_9_012863B4
@ 016   ----------------------------------------
 .byte   PATT
  .word Label_9_01286407
@ 017   ----------------------------------------
 .byte   PATT
  .word Label_9_012863B4
@ 018   ----------------------------------------
 .byte   PATT
  .word Label_9_012863B4
@ 019   ----------------------------------------
 .byte   PATT
  .word Label_9_012863B4
@ 020   ----------------------------------------
 .byte   PATT
  .word Label_9_012863B4
@ 021   ----------------------------------------
 .byte   PATT
  .word Label_9_012863B4
@ 022   ----------------------------------------
 .byte   PATT
  .word Label_9_012863B4
@ 023   ----------------------------------------
 .byte   PATT
  .word Label_9_012863B4
@ 024   ----------------------------------------
 .byte   PATT
  .word Label_9_01286407
@ 025   ----------------------------------------
 .byte   PATT
  .word Label_9_012863B4
@ 026   ----------------------------------------
 .byte   PATT
  .word Label_9_012863B4
@ 027   ----------------------------------------
 .byte   PATT
  .word Label_9_012863B4
@ 028   ----------------------------------------
 .byte   PATT
  .word Label_9_012863B4
@ 029   ----------------------------------------
 .byte   PATT
  .word Label_9_012863B4
@ 030   ----------------------------------------
 .byte   PATT
  .word Label_9_012863B4
@ 031   ----------------------------------------
 .byte   PATT
  .word Label_9_012863B4
@ 032   ----------------------------------------
 .byte   PATT
  .word Label_9_01286407
@ 033   ----------------------------------------
 .byte   PATT
  .word Label_9_012863B4
@ 034   ----------------------------------------
 .byte   PATT
  .word Label_9_012863B4
@ 035   ----------------------------------------
 .byte   PATT
  .word Label_9_012863B4
@ 036   ----------------------------------------
 .byte   PATT
  .word Label_9_01286407
@ 037   ----------------------------------------
 .byte   PATT
  .word Label_9_012863B4
@ 038   ----------------------------------------
 .byte   PATT
  .word Label_9_012863B4
@ 039   ----------------------------------------
 .byte   PATT
  .word Label_9_012863B4
@ 040   ----------------------------------------
 .byte   PATT
  .word Label_9_01286407
@ 041   ----------------------------------------
 .byte   PATT
  .word Label_9_012863B4
@ 042   ----------------------------------------
 .byte   PATT
  .word Label_9_012863B4
@ 043   ----------------------------------------
 .byte   PATT
  .word Label_9_012863B4
@ 044   ----------------------------------------
 .byte   PATT
  .word Label_9_01286407
@ 045   ----------------------------------------
 .byte   PATT
  .word Label_9_012863B4
@ 046   ----------------------------------------
 .byte   PATT
  .word Label_9_012863B4
@ 047   ----------------------------------------
 .byte   PATT
  .word Label_9_012863B4
@ 048   ----------------------------------------
Label_9_01286503:
 .byte   N05 ,Cn1 ,v092
 .byte   N05 ,Fs1
 .byte   N05 ,Gn1
 .byte   N05 ,Cs2
 .byte   N05 ,An2
 .byte   W06
 .byte   Fs1
 .byte   W06
 .byte   As1
 .byte   W06
 .byte   Fs1
 .byte   W06
 .byte   Cn1
 .byte   N05 ,Dn1
 .byte   N05 ,En1
 .byte   N05 ,Fs1
 .byte   W06
 .byte   N05
 .byte   W06
 .byte   As1
 .byte   W06
 .byte   En1
 .byte   N05 ,Fs1
 .byte   W06
 .byte   Cn1
 .byte   N05 ,Fs1
 .byte   N05 ,Gn1
 .byte   W06
 .byte   Fs1
 .byte   W06
 .byte   As1
 .byte   W06
 .byte   Fs1
 .byte   W06
 .byte   Cn1
 .byte   N05 ,Dn1
 .byte   N05 ,En1
 .byte   N05 ,Fs1
 .byte   W06
 .byte   N05
 .byte   W06
 .byte   As1
 .byte   W06
 .byte   Fs1
 .byte   W06
 .byte   PEND 
@ 049   ----------------------------------------
Label_9_01286540:
 .byte   N05 ,Cn1 ,v092
 .byte   N05 ,Fs1
 .byte   N05 ,Gn1
 .byte   W06
 .byte   Fs1
 .byte   W06
 .byte   As1
 .byte   W06
 .byte   Fs1
 .byte   W06
 .byte   Cn1
 .byte   N05 ,Dn1
 .byte   N05 ,En1
 .byte   N05 ,Fs1
 .byte   W06
 .byte   N05
 .byte   W06
 .byte   As1
 .byte   W06
 .byte   En1
 .byte   N05 ,Fs1
 .byte   W06
 .byte   Cn1
 .byte   N05 ,Fs1
 .byte   N05 ,Gn1
 .byte   W06
 .byte   Fs1
 .byte   W06
 .byte   As1
 .byte   W06
 .byte   Fs1
 .byte   W06
 .byte   Cn1
 .byte   N05 ,Dn1
 .byte   N05 ,En1
 .byte   N05 ,Fs1
 .byte   W06
 .byte   N05
 .byte   W06
 .byte   As1
 .byte   W06
 .byte   Fs1
 .byte   W06
 .byte   PEND 
@ 050   ----------------------------------------
 .byte   PATT
  .word Label_9_01286540
@ 051   ----------------------------------------
 .byte   PATT
  .word Label_9_01286540
@ 052   ----------------------------------------
Label_9_01286583:
 .byte   N05 ,Cn1 ,v092
 .byte   N05 ,Fs1
 .byte   N05 ,Cs2
 .byte   N05 ,An2
 .byte   W06
 .byte   Fs1
 .byte   W06
 .byte   As1
 .byte   W06
 .byte   Fs1
 .byte   W06
 .byte   N05
 .byte   W06
 .byte   N05
 .byte   W06
 .byte   As1
 .byte   W06
 .byte   Fs1
 .byte   W06
 .byte   N05
 .byte   W06
 .byte   N05
 .byte   W06
 .byte   As1
 .byte   W06
 .byte   Fs1
 .byte   W06
 .byte   N05
 .byte   W06
 .byte   N05
 .byte   W06
 .byte   As1
 .byte   W06
 .byte   Fs1
 .byte   W06
 .byte   PEND 
@ 053   ----------------------------------------
Label_9_012865AC:
 .byte   N05 ,Fs1 ,v092
 .byte   W06
 .byte   N05
 .byte   W06
 .byte   As1
 .byte   W06
 .byte   Fs1
 .byte   W06
 .byte   N05
 .byte   W06
 .byte   N05
 .byte   W06
 .byte   As1
 .byte   W06
 .byte   Fs1
 .byte   W06
 .byte   N05
 .byte   W06
 .byte   N05
 .byte   W06
 .byte   As1
 .byte   W06
 .byte   Fs1
 .byte   W06
 .byte   N05
 .byte   W06
 .byte   N05
 .byte   W06
 .byte   Cn1
 .byte   N05 ,As1
 .byte   N05 ,Gn2
 .byte   W06
 .byte   Fs1
 .byte   W06
 .byte   PEND 
@ 054   ----------------------------------------
 .byte   PATT
  .word Label_9_01286583
@ 055   ----------------------------------------
Label_9_012865D8:
 .byte   N05 ,Fs1 ,v092
 .byte   W06
 .byte   N05
 .byte   W06
 .byte   As1
 .byte   W06
 .byte   Fs1
 .byte   W06
 .byte   N05
 .byte   W06
 .byte   N05
 .byte   W06
 .byte   As1
 .byte   W06
 .byte   Fs1
 .byte   W06
 .byte   N05
 .byte   W06
 .byte   N05
 .byte   W06
 .byte   As1
 .byte   W06
 .byte   Fs1
 .byte   W06
 .byte   N05
 .byte   W06
 .byte   N05
 .byte   W06
 .byte   As1
 .byte   W06
 .byte   Fs1
 .byte   W06
 .byte   PEND 
@ 056   ----------------------------------------
 .byte   PATT
  .word Label_9_01286583
@ 057   ----------------------------------------
 .byte   PATT
  .word Label_9_012865D8
@ 058   ----------------------------------------
 .byte   PATT
  .word Label_9_01286583
@ 059   ----------------------------------------
Label_9_0128660A:
 .byte   N05 ,Cn1 ,v092
 .byte   N05 ,Fs1
 .byte   W06
 .byte   N05
 .byte   W06
 .byte   As1
 .byte   W06
 .byte   Fs1
 .byte   W06
 .byte   Cn1
 .byte   N05 ,Fs1
 .byte   W06
 .byte   N05
 .byte   W06
 .byte   As1
 .byte   W06
 .byte   Fs1
 .byte   W06
 .byte   Cn1
 .byte   N05 ,Fs1
 .byte   W06
 .byte   N05
 .byte   W06
 .byte   As1
 .byte   W06
 .byte   Fs1
 .byte   W06
 .byte   Cn1
 .byte   N05 ,Fs1
 .byte   W06
 .byte   N05
 .byte   W06
 .byte   Cn1
 .byte   N05 ,As1
 .byte   W06
 .byte   Fs1
 .byte   W06
 .byte   PEND 
@ 060   ----------------------------------------
 .byte   PATT
  .word Label_9_01286407
@ 061   ----------------------------------------
 .byte   PATT
  .word Label_9_012863B4
@ 062   ----------------------------------------
 .byte   PATT
  .word Label_9_01286407
@ 063   ----------------------------------------
 .byte   PATT
  .word Label_9_012863B4
@ 064   ----------------------------------------
 .byte   PATT
  .word Label_9_01286407
@ 065   ----------------------------------------
 .byte   PATT
  .word Label_9_012863B4
@ 066   ----------------------------------------
 .byte   PATT
  .word Label_9_01286407
@ 067   ----------------------------------------
 .byte   PATT
  .word Label_9_012863B4
@ 068   ----------------------------------------
 .byte   PATT
  .word Label_9_01286407
@ 069   ----------------------------------------
 .byte   PATT
  .word Label_9_012863B4
@ 070   ----------------------------------------
 .byte   PATT
  .word Label_9_01286407
@ 071   ----------------------------------------
 .byte   PATT
  .word Label_9_012863B4
@ 072   ----------------------------------------
 .byte   PATT
  .word Label_9_01286407
@ 073   ----------------------------------------
 .byte   PATT
  .word Label_9_012863B4
@ 074   ----------------------------------------
 .byte   PATT
  .word Label_9_01286407
@ 075   ----------------------------------------
 .byte   PATT
  .word Label_9_012863B4
@ 076   ----------------------------------------
 .byte   PATT
  .word Label_9_01286407
@ 077   ----------------------------------------
 .byte   PATT
  .word Label_9_012863B4
@ 078   ----------------------------------------
 .byte   PATT
  .word Label_9_01286407
@ 079   ----------------------------------------
 .byte   PATT
  .word Label_9_012863B4
@ 080   ----------------------------------------
 .byte   PATT
  .word Label_9_01286583
@ 081   ----------------------------------------
Label_9_012866A0:
 .byte   N05 ,Fs1 ,v092
 .byte   W06
 .byte   N05
 .byte   W06
 .byte   As1
 .byte   W06
 .byte   Fs1
 .byte   W06
 .byte   N05
 .byte   W06
 .byte   N05
 .byte   W06
 .byte   As1
 .byte   W06
 .byte   Fs1
 .byte   W06
 .byte   N05
 .byte   W06
 .byte   N05
 .byte   W06
 .byte   As1
 .byte   W06
 .byte   Fs1
 .byte   W06
 .byte   N05
 .byte   W06
 .byte   N05
 .byte   W06
 .byte   Cn1
 .byte   N05 ,As1
 .byte   W06
 .byte   Fs1
 .byte   W06
 .byte   PEND 
@ 082   ----------------------------------------
 .byte   PATT
  .word Label_9_01286583
@ 083   ----------------------------------------
 .byte   PATT
  .word Label_9_012865D8
@ 084   ----------------------------------------
 .byte   VOICE , 124
 .byte   N05 ,Cn1 ,v092
 .byte   N05 ,Fs1
 .byte   N05 ,Cs2
 .byte   N05 ,An2
 .byte   W06
 .byte   Fs1
 .byte   W06
 .byte   As1
 .byte   W06
 .byte   Fs1
 .byte   W06
 .byte   Cn1
 .byte   N05 ,Dn1
 .byte   N05 ,En1
 .byte   N05 ,Fs1
 .byte   W06
 .byte   N05
 .byte   W06
 .byte   As1
 .byte   W06
 .byte   En1
 .byte   N05 ,Fs1
 .byte   W06
 .byte   Cn1
 .byte   N05 ,Fs1
 .byte   W06
 .byte   N05
 .byte   W06
 .byte   As1
 .byte   W06
 .byte   Fs1
 .byte   W06
 .byte   Cn1
 .byte   N05 ,Dn1
 .byte   N05 ,En1
 .byte   N05 ,Fs1
 .byte   W06
 .byte   N05
 .byte   W06
 .byte   As1
 .byte   W06
 .byte   Fs1
 .byte   W06
@ 085   ----------------------------------------
 .byte   PATT
  .word Label_9_012863B4
@ 086   ----------------------------------------
 .byte   PATT
  .word Label_9_012863B4
@ 087   ----------------------------------------
 .byte   PATT
  .word Label_9_012863B4
@ 088   ----------------------------------------
 .byte   PATT
  .word Label_9_012863B4
@ 089   ----------------------------------------
 .byte   PATT
  .word Label_9_012863B4
@ 090   ----------------------------------------
 .byte   PATT
  .word Label_9_012863B4
@ 091   ----------------------------------------
 .byte   PATT
  .word Label_9_012863B4
@ 092   ----------------------------------------
 .byte   PATT
  .word Label_9_01286407
@ 093   ----------------------------------------
 .byte   PATT
  .word Label_9_012863B4
@ 094   ----------------------------------------
 .byte   PATT
  .word Label_9_012863B4
@ 095   ----------------------------------------
 .byte   PATT
  .word Label_9_012863B4
@ 096   ----------------------------------------
 .byte   PATT
  .word Label_9_012863B4
@ 097   ----------------------------------------
 .byte   PATT
  .word Label_9_012863B4
@ 098   ----------------------------------------
 .byte   PATT
  .word Label_9_012863B4
@ 099   ----------------------------------------
 .byte   PATT
  .word Label_9_012863B4
@ 100   ----------------------------------------
 .byte   PATT
  .word Label_9_01286407
@ 101   ----------------------------------------
 .byte   PATT
  .word Label_9_012863B4
@ 102   ----------------------------------------
 .byte   PATT
  .word Label_9_012863B4
@ 103   ----------------------------------------
 .byte   PATT
  .word Label_9_012863B4
@ 104   ----------------------------------------
 .byte   PATT
  .word Label_9_012863B4
@ 105   ----------------------------------------
 .byte   PATT
  .word Label_9_012863B4
@ 106   ----------------------------------------
 .byte   PATT
  .word Label_9_012863B4
@ 107   ----------------------------------------
 .byte   PATT
  .word Label_9_012863B4
@ 108   ----------------------------------------
 .byte   PATT
  .word Label_9_01286407
@ 109   ----------------------------------------
 .byte   PATT
  .word Label_9_012863B4
@ 110   ----------------------------------------
 .byte   PATT
  .word Label_9_012863B4
@ 111   ----------------------------------------
 .byte   PATT
  .word Label_9_012863B4
@ 112   ----------------------------------------
 .byte   PATT
  .word Label_9_012863B4
@ 113   ----------------------------------------
 .byte   PATT
  .word Label_9_012863B4
@ 114   ----------------------------------------
 .byte   PATT
  .word Label_9_012863B4
@ 115   ----------------------------------------
 .byte   PATT
  .word Label_9_012863B4
@ 116   ----------------------------------------
 .byte   PATT
  .word Label_9_01286407
@ 117   ----------------------------------------
 .byte   PATT
  .word Label_9_012863B4
@ 118   ----------------------------------------
 .byte   PATT
  .word Label_9_012863B4
@ 119   ----------------------------------------
 .byte   PATT
  .word Label_9_012863B4
@ 120   ----------------------------------------
 .byte   PATT
  .word Label_9_01286407
@ 121   ----------------------------------------
 .byte   PATT
  .word Label_9_012863B4
@ 122   ----------------------------------------
 .byte   PATT
  .word Label_9_012863B4
@ 123   ----------------------------------------
 .byte   PATT
  .word Label_9_012863B4
@ 124   ----------------------------------------
 .byte   PATT
  .word Label_9_01286407
@ 125   ----------------------------------------
 .byte   PATT
  .word Label_9_012863B4
@ 126   ----------------------------------------
 .byte   PATT
  .word Label_9_012863B4
@ 127   ----------------------------------------
 .byte   PATT
  .word Label_9_012863B4
@ 128   ----------------------------------------
 .byte   PATT
  .word Label_9_01286407
@ 129   ----------------------------------------
 .byte   PATT
  .word Label_9_012863B4
@ 130   ----------------------------------------
 .byte   PATT
  .word Label_9_012863B4
@ 131   ----------------------------------------
 .byte   PATT
  .word Label_9_012863B4
@ 132   ----------------------------------------
 .byte   PATT
  .word Label_9_01286503
@ 133   ----------------------------------------
 .byte   PATT
  .word Label_9_01286540
@ 134   ----------------------------------------
 .byte   PATT
  .word Label_9_01286540
@ 135   ----------------------------------------
 .byte   PATT
  .word Label_9_01286540
@ 136   ----------------------------------------
 .byte   PATT
  .word Label_9_01286583
@ 137   ----------------------------------------
 .byte   PATT
  .word Label_9_012865AC
@ 138   ----------------------------------------
 .byte   PATT
  .word Label_9_01286583
@ 139   ----------------------------------------
 .byte   PATT
  .word Label_9_012865D8
@ 140   ----------------------------------------
 .byte   PATT
  .word Label_9_01286583
@ 141   ----------------------------------------
 .byte   PATT
  .word Label_9_012865D8
@ 142   ----------------------------------------
 .byte   PATT
  .word Label_9_01286583
@ 143   ----------------------------------------
 .byte   PATT
  .word Label_9_0128660A
@ 144   ----------------------------------------
 .byte   PATT
  .word Label_9_01286407
@ 145   ----------------------------------------
 .byte   PATT
  .word Label_9_012863B4
@ 146   ----------------------------------------
 .byte   PATT
  .word Label_9_01286407
@ 147   ----------------------------------------
 .byte   PATT
  .word Label_9_012863B4
@ 148   ----------------------------------------
 .byte   PATT
  .word Label_9_01286407
@ 149   ----------------------------------------
 .byte   PATT
  .word Label_9_012863B4
@ 150   ----------------------------------------
 .byte   PATT
  .word Label_9_01286407
@ 151   ----------------------------------------
 .byte   PATT
  .word Label_9_012863B4
@ 152   ----------------------------------------
 .byte   PATT
  .word Label_9_01286407
@ 153   ----------------------------------------
 .byte   PATT
  .word Label_9_012863B4
@ 154   ----------------------------------------
 .byte   PATT
  .word Label_9_01286407
@ 155   ----------------------------------------
 .byte   PATT
  .word Label_9_012863B4
@ 156   ----------------------------------------
 .byte   PATT
  .word Label_9_01286407
@ 157   ----------------------------------------
 .byte   PATT
  .word Label_9_012863B4
@ 158   ----------------------------------------
 .byte   PATT
  .word Label_9_01286407
@ 159   ----------------------------------------
 .byte   PATT
  .word Label_9_012863B4
@ 160   ----------------------------------------
 .byte   PATT
  .word Label_9_01286407
@ 161   ----------------------------------------
 .byte   PATT
  .word Label_9_012863B4
@ 162   ----------------------------------------
 .byte   PATT
  .word Label_9_01286407
@ 163   ----------------------------------------
 .byte   PATT
  .word Label_9_012863B4
@ 164   ----------------------------------------
 .byte   PATT
  .word Label_9_01286583
@ 165   ----------------------------------------
 .byte   PATT
  .word Label_9_012866A0
@ 166   ----------------------------------------
 .byte   PATT
  .word Label_9_01286583
@ 167   ----------------------------------------
 .byte   N05 ,Fs1 ,v092
 .byte   W06
 .byte   N05
 .byte   W06
 .byte   As1
 .byte   W06
 .byte   Fs1
 .byte   W06
 .byte   N05
 .byte   W06
 .byte   N05
 .byte   W06
 .byte   As1
 .byte   W06
 .byte   Fs1
 .byte   W06
 .byte   N05
 .byte   W06
 .byte   N05
 .byte   W06
 .byte   As1
 .byte   W06
 .byte   Fs1
 .byte   W06
 .byte   N05
 .byte   W06
 .byte   N05
 .byte   W06
 .byte   As1
 .byte   W06
 .byte   Fs1
 .byte   W05
 .byte   GOTO
  .word Label_9_01286376
 .byte   FINE

@**************** Track 11 (Midi-Chn.10) ****************@

song0166_011:
@ 000   ----------------------------------------
 .byte   KEYSH , song0166_key+0
Label_10_012868CE:
 .byte   VOICE , 59
 .byte   VOL , 40*song0166_mvl/mxv
 .byte   PAN , c_v+0
 .byte   N06 ,Dn3 ,v092
 .byte   N06 ,Gn3
 .byte   W06
 .byte   Dn3
 .byte   N06 ,Gn3
 .byte   W06
 .byte   Dn3
 .byte   N06 ,Gn3
 .byte   W06
 .byte   Dn3
 .byte   N06 ,Gn3
 .byte   W06
 .byte   N12 ,Dn3
 .byte   N12 ,Fs3
 .byte   W12
 .byte   N24 ,Dn3
 .byte   N24 ,Gn3
 .byte   W24
 .byte   N06 ,Dn3
 .byte   N06 ,Fs3
 .byte   W06
 .byte   Dn3
 .byte   N06 ,Fs3
 .byte   W06
 .byte   Dn3
 .byte   N06 ,Fs3
 .byte   W06
 .byte   Dn3
 .byte   N06 ,Fs3
 .byte   W06
 .byte   N12 ,Dn3
 .byte   N12 ,Fs3
 .byte   W12
@ 001   ----------------------------------------
Label_10_01286906:
 .byte   N06 ,Dn3 ,v092
 .byte   N06 ,Gn3
 .byte   W06
 .byte   Dn3
 .byte   N06 ,Gn3
 .byte   W06
 .byte   Dn3
 .byte   N06 ,Gn3
 .byte   W06
 .byte   Dn3
 .byte   N06 ,Gn3
 .byte   W06
 .byte   N12 ,Dn3
 .byte   N12 ,Fs3
 .byte   W12
 .byte   N24 ,Dn3
 .byte   N24 ,Gn3
 .byte   W24
 .byte   N12 ,Dn3
 .byte   N12 ,Fs3
 .byte   W12
 .byte   Dn3
 .byte   N12 ,Gn3
 .byte   W12
 .byte   Dn3
 .byte   N12 ,An3
 .byte   W12
 .byte   PEND 
@ 002   ----------------------------------------
Label_10_01286930:
 .byte   N06 ,Dn3 ,v092
 .byte   N06 ,Gn3
 .byte   W06
 .byte   Dn3
 .byte   N06 ,Gn3
 .byte   W06
 .byte   Dn3
 .byte   N06 ,Gn3
 .byte   W06
 .byte   Dn3
 .byte   N06 ,Gn3
 .byte   W06
 .byte   N12 ,Dn3
 .byte   N12 ,Fs3
 .byte   W12
 .byte   N24 ,Dn3
 .byte   N24 ,Gn3
 .byte   W24
 .byte   N06 ,Dn3
 .byte   N06 ,Fs3
 .byte   W06
 .byte   Dn3
 .byte   N06 ,Fs3
 .byte   W06
 .byte   Dn3
 .byte   N06 ,Fs3
 .byte   W06
 .byte   Dn3
 .byte   N06 ,Fs3
 .byte   W06
 .byte   N12 ,Dn3
 .byte   N12 ,Fs3
 .byte   W12
 .byte   PEND 
@ 003   ----------------------------------------
 .byte   PATT
  .word Label_10_01286906
@ 004   ----------------------------------------
 .byte   PATT
  .word Label_10_01286930
@ 005   ----------------------------------------
 .byte   PATT
  .word Label_10_01286906
@ 006   ----------------------------------------
 .byte   PATT
  .word Label_10_01286930
@ 007   ----------------------------------------
 .byte   PATT
  .word Label_10_01286906
@ 008   ----------------------------------------
 .byte   PATT
  .word Label_10_01286930
@ 009   ----------------------------------------
 .byte   PATT
  .word Label_10_01286906
@ 010   ----------------------------------------
 .byte   PATT
  .word Label_10_01286930
@ 011   ----------------------------------------
 .byte   PATT
  .word Label_10_01286906
@ 012   ----------------------------------------
 .byte   PATT
  .word Label_10_01286930
@ 013   ----------------------------------------
 .byte   PATT
  .word Label_10_01286906
@ 014   ----------------------------------------
 .byte   PATT
  .word Label_10_01286930
@ 015   ----------------------------------------
 .byte   PATT
  .word Label_10_01286906
@ 016   ----------------------------------------
 .byte   W96
@ 017   ----------------------------------------
 .byte   W96
@ 018   ----------------------------------------
 .byte   W96
@ 019   ----------------------------------------
 .byte   W96
@ 020   ----------------------------------------
 .byte   W96
@ 021   ----------------------------------------
 .byte   W96
@ 022   ----------------------------------------
 .byte   W96
@ 023   ----------------------------------------
 .byte   W96
@ 024   ----------------------------------------
 .byte   W96
@ 025   ----------------------------------------
 .byte   W96
@ 026   ----------------------------------------
 .byte   W96
@ 027   ----------------------------------------
 .byte   W96
@ 028   ----------------------------------------
 .byte   W96
@ 029   ----------------------------------------
 .byte   W96
@ 030   ----------------------------------------
 .byte   W96
@ 031   ----------------------------------------
 .byte   W96
@ 032   ----------------------------------------
 .byte   W96
@ 033   ----------------------------------------
 .byte   W96
@ 034   ----------------------------------------
 .byte   W96
@ 035   ----------------------------------------
 .byte   W96
@ 036   ----------------------------------------
 .byte   W96
@ 037   ----------------------------------------
 .byte   W96
@ 038   ----------------------------------------
 .byte   W96
@ 039   ----------------------------------------
 .byte   W96
@ 040   ----------------------------------------
 .byte   W96
@ 041   ----------------------------------------
 .byte   W96
@ 042   ----------------------------------------
 .byte   W96
@ 043   ----------------------------------------
 .byte   W96
@ 044   ----------------------------------------
 .byte   W96
@ 045   ----------------------------------------
 .byte   W96
@ 046   ----------------------------------------
 .byte   W96
@ 047   ----------------------------------------
 .byte   W96
@ 048   ----------------------------------------
 .byte   W96
@ 049   ----------------------------------------
 .byte   W96
@ 050   ----------------------------------------
 .byte   W96
@ 051   ----------------------------------------
 .byte   W96
@ 052   ----------------------------------------
Label_10_012869C8:
 .byte   N90 ,Bn2 ,v092
 .byte   N90 ,Dn3
 .byte   N90 ,En3
 .byte   N90 ,Gn3
 .byte   W96
 .byte   PEND 
@ 053   ----------------------------------------
Label_10_012869D3:
 .byte   N66 ,Cs3 ,v092
 .byte   N66 ,En3
 .byte   N66 ,Fs3
 .byte   N66 ,As3
 .byte   W72
 .byte   N20 ,As2
 .byte   N20 ,Cs3
 .byte   N20 ,En3
 .byte   N20 ,Fs3
 .byte   W24
 .byte   PEND 
@ 054   ----------------------------------------
Label_10_012869E7:
 .byte   N66 ,Cn3 ,v092
 .byte   N66 ,En3
 .byte   N66 ,Fs3
 .byte   N66 ,An3
 .byte   W72
 .byte   N20 ,An2
 .byte   N20 ,Cn3
 .byte   N20 ,En3
 .byte   N20 ,Fs3
 .byte   W24
 .byte   PEND 
@ 055   ----------------------------------------
 .byte   PATT
  .word Label_10_012869C8
@ 056   ----------------------------------------
 .byte   PATT
  .word Label_10_012869C8
@ 057   ----------------------------------------
 .byte   PATT
  .word Label_10_012869D3
@ 058   ----------------------------------------
 .byte   PATT
  .word Label_10_012869E7
@ 059   ----------------------------------------
 .byte   PATT
  .word Label_10_012869C8
@ 060   ----------------------------------------
 .byte   PATT
  .word Label_10_012869C8
@ 061   ----------------------------------------
 .byte   PATT
  .word Label_10_012869D3
@ 062   ----------------------------------------
 .byte   PATT
  .word Label_10_012869E7
@ 063   ----------------------------------------
 .byte   PATT
  .word Label_10_012869C8
@ 064   ----------------------------------------
 .byte   PATT
  .word Label_10_012869C8
@ 065   ----------------------------------------
 .byte   PATT
  .word Label_10_012869D3
@ 066   ----------------------------------------
 .byte   PATT
  .word Label_10_012869E7
@ 067   ----------------------------------------
 .byte   PATT
  .word Label_10_012869C8
@ 068   ----------------------------------------
 .byte   W96
@ 069   ----------------------------------------
 .byte   W96
@ 070   ----------------------------------------
 .byte   W96
@ 071   ----------------------------------------
 .byte   W96
@ 072   ----------------------------------------
 .byte   W96
@ 073   ----------------------------------------
 .byte   W96
@ 074   ----------------------------------------
 .byte   W96
@ 075   ----------------------------------------
 .byte   W96
@ 076   ----------------------------------------
 .byte   W96
@ 077   ----------------------------------------
 .byte   W96
@ 078   ----------------------------------------
 .byte   W96
@ 079   ----------------------------------------
 .byte   W96
@ 080   ----------------------------------------
 .byte   W96
@ 081   ----------------------------------------
 .byte   W96
@ 082   ----------------------------------------
 .byte   W96
@ 083   ----------------------------------------
 .byte   W96
@ 084   ----------------------------------------
 .byte   VOICE , 59
 .byte   N06 ,Dn3 ,v092
 .byte   N06 ,Gn3
 .byte   W06
 .byte   Dn3
 .byte   N06 ,Gn3
 .byte   W06
 .byte   Dn3
 .byte   N06 ,Gn3
 .byte   W06
 .byte   Dn3
 .byte   N06 ,Gn3
 .byte   W06
 .byte   N12 ,Dn3
 .byte   N12 ,Fs3
 .byte   W12
 .byte   N24 ,Dn3
 .byte   N24 ,Gn3
 .byte   W24
 .byte   N06 ,Dn3
 .byte   N06 ,Fs3
 .byte   W06
 .byte   Dn3
 .byte   N06 ,Fs3
 .byte   W06
 .byte   Dn3
 .byte   N06 ,Fs3
 .byte   W06
 .byte   Dn3
 .byte   N06 ,Fs3
 .byte   W06
 .byte   N12 ,Dn3
 .byte   N12 ,Fs3
 .byte   W12
@ 085   ----------------------------------------
 .byte   PATT
  .word Label_10_01286906
@ 086   ----------------------------------------
 .byte   PATT
  .word Label_10_01286930
@ 087   ----------------------------------------
 .byte   PATT
  .word Label_10_01286906
@ 088   ----------------------------------------
 .byte   PATT
  .word Label_10_01286930
@ 089   ----------------------------------------
 .byte   PATT
  .word Label_10_01286906
@ 090   ----------------------------------------
 .byte   PATT
  .word Label_10_01286930
@ 091   ----------------------------------------
 .byte   PATT
  .word Label_10_01286906
@ 092   ----------------------------------------
 .byte   PATT
  .word Label_10_01286930
@ 093   ----------------------------------------
 .byte   PATT
  .word Label_10_01286906
@ 094   ----------------------------------------
 .byte   PATT
  .word Label_10_01286930
@ 095   ----------------------------------------
 .byte   PATT
  .word Label_10_01286906
@ 096   ----------------------------------------
 .byte   PATT
  .word Label_10_01286930
@ 097   ----------------------------------------
 .byte   PATT
  .word Label_10_01286906
@ 098   ----------------------------------------
 .byte   PATT
  .word Label_10_01286930
@ 099   ----------------------------------------
 .byte   PATT
  .word Label_10_01286906
@ 100   ----------------------------------------
 .byte   W96
@ 101   ----------------------------------------
 .byte   W96
@ 102   ----------------------------------------
 .byte   W96
@ 103   ----------------------------------------
 .byte   W96
@ 104   ----------------------------------------
 .byte   W96
@ 105   ----------------------------------------
 .byte   W96
@ 106   ----------------------------------------
 .byte   W96
@ 107   ----------------------------------------
 .byte   W96
@ 108   ----------------------------------------
 .byte   W96
@ 109   ----------------------------------------
 .byte   W96
@ 110   ----------------------------------------
 .byte   W96
@ 111   ----------------------------------------
 .byte   W96
@ 112   ----------------------------------------
 .byte   W96
@ 113   ----------------------------------------
 .byte   W96
@ 114   ----------------------------------------
 .byte   W96
@ 115   ----------------------------------------
 .byte   W96
@ 116   ----------------------------------------
 .byte   W96
@ 117   ----------------------------------------
 .byte   W96
@ 118   ----------------------------------------
 .byte   W96
@ 119   ----------------------------------------
 .byte   W96
@ 120   ----------------------------------------
 .byte   W96
@ 121   ----------------------------------------
 .byte   W96
@ 122   ----------------------------------------
 .byte   W96
@ 123   ----------------------------------------
 .byte   W96
@ 124   ----------------------------------------
 .byte   W96
@ 125   ----------------------------------------
 .byte   W96
@ 126   ----------------------------------------
 .byte   W96
@ 127   ----------------------------------------
 .byte   W96
@ 128   ----------------------------------------
 .byte   W96
@ 129   ----------------------------------------
 .byte   W96
@ 130   ----------------------------------------
 .byte   W96
@ 131   ----------------------------------------
 .byte   W96
@ 132   ----------------------------------------
 .byte   W96
@ 133   ----------------------------------------
 .byte   W96
@ 134   ----------------------------------------
 .byte   W96
@ 135   ----------------------------------------
 .byte   W96
@ 136   ----------------------------------------
 .byte   PATT
  .word Label_10_012869C8
@ 137   ----------------------------------------
 .byte   PATT
  .word Label_10_012869D3
@ 138   ----------------------------------------
 .byte   PATT
  .word Label_10_012869E7
@ 139   ----------------------------------------
 .byte   PATT
  .word Label_10_012869C8
@ 140   ----------------------------------------
 .byte   PATT
  .word Label_10_012869C8
@ 141   ----------------------------------------
 .byte   PATT
  .word Label_10_012869D3
@ 142   ----------------------------------------
 .byte   PATT
  .word Label_10_012869E7
@ 143   ----------------------------------------
 .byte   PATT
  .word Label_10_012869C8
@ 144   ----------------------------------------
 .byte   PATT
  .word Label_10_012869C8
@ 145   ----------------------------------------
 .byte   PATT
  .word Label_10_012869D3
@ 146   ----------------------------------------
 .byte   PATT
  .word Label_10_012869E7
@ 147   ----------------------------------------
 .byte   PATT
  .word Label_10_012869C8
@ 148   ----------------------------------------
 .byte   PATT
  .word Label_10_012869C8
@ 149   ----------------------------------------
 .byte   PATT
  .word Label_10_012869D3
@ 150   ----------------------------------------
 .byte   PATT
  .word Label_10_012869E7
@ 151   ----------------------------------------
 .byte   PATT
  .word Label_10_012869C8
@ 152   ----------------------------------------
 .byte   W96
@ 153   ----------------------------------------
 .byte   W96
@ 154   ----------------------------------------
 .byte   W96
@ 155   ----------------------------------------
 .byte   W96
@ 156   ----------------------------------------
 .byte   W96
@ 157   ----------------------------------------
 .byte   W96
@ 158   ----------------------------------------
 .byte   W96
@ 159   ----------------------------------------
 .byte   W96
@ 160   ----------------------------------------
 .byte   W96
@ 161   ----------------------------------------
 .byte   W96
@ 162   ----------------------------------------
 .byte   W96
@ 163   ----------------------------------------
 .byte   W96
@ 164   ----------------------------------------
 .byte   W96
@ 165   ----------------------------------------
 .byte   W96
@ 166   ----------------------------------------
 .byte   W96
@ 167   ----------------------------------------
 .byte   W92
 .byte   W03
 .byte   GOTO
  .word Label_10_012868CE
 .byte   FINE

@**************** Track 12 (Midi-Chn.11) ****************@

song0166_012:
@ 000   ----------------------------------------
 .byte   KEYSH , song0166_key+0
Label_11_01286B5A:
 .byte   VOICE , 81
 .byte   VOL , 40*song0166_mvl/mxv
 .byte   PAN , c_v+0
 .byte   W96
@ 001   ----------------------------------------
 .byte   W96
@ 002   ----------------------------------------
 .byte   W96
@ 003   ----------------------------------------
 .byte   W96
@ 004   ----------------------------------------
 .byte   W96
@ 005   ----------------------------------------
 .byte   W96
@ 006   ----------------------------------------
 .byte   W96
@ 007   ----------------------------------------
 .byte   W96
@ 008   ----------------------------------------
 .byte   W96
@ 009   ----------------------------------------
 .byte   W96
@ 010   ----------------------------------------
 .byte   W96
@ 011   ----------------------------------------
 .byte   W96
@ 012   ----------------------------------------
 .byte   W96
@ 013   ----------------------------------------
 .byte   W96
@ 014   ----------------------------------------
 .byte   W96
@ 015   ----------------------------------------
 .byte   W96
@ 016   ----------------------------------------
Label_11_01286B70:
 .byte   N04 ,Gn4 ,v076
 .byte   W06
 .byte   Fs4
 .byte   W06
 .byte   Dn4
 .byte   W06
 .byte   Gn4
 .byte   W06
 .byte   Fs4
 .byte   W06
 .byte   Dn4
 .byte   W06
 .byte   Gn4
 .byte   W06
 .byte   Fs4
 .byte   W06
 .byte   Dn4
 .byte   W06
 .byte   Gn4
 .byte   W06
 .byte   Fs4
 .byte   W06
 .byte   Dn4
 .byte   W06
 .byte   Gn4
 .byte   W06
 .byte   Fs4
 .byte   W06
 .byte   Dn4
 .byte   W06
 .byte   Gn4
 .byte   W06
 .byte   PEND 
@ 017   ----------------------------------------
Label_11_01286B93:
 .byte   N04 ,Fs4 ,v076
 .byte   W06
 .byte   Dn4
 .byte   W06
 .byte   Gn4
 .byte   W06
 .byte   Fs4
 .byte   W06
 .byte   Dn4
 .byte   W06
 .byte   Gn4
 .byte   W06
 .byte   Fs4
 .byte   W06
 .byte   Dn4
 .byte   W06
 .byte   Gn4
 .byte   W06
 .byte   Fs4
 .byte   W06
 .byte   Dn4
 .byte   W06
 .byte   N14
 .byte   W18
 .byte   N08 ,En4
 .byte   W12
 .byte   PEND 
@ 018   ----------------------------------------
 .byte   PATT
  .word Label_11_01286B70
@ 019   ----------------------------------------
Label_11_01286BB6:
 .byte   N04 ,Fs4 ,v076
 .byte   W06
 .byte   Dn4
 .byte   W06
 .byte   Gn4
 .byte   W06
 .byte   Fs4
 .byte   W06
 .byte   Dn4
 .byte   W06
 .byte   Gn4
 .byte   W06
 .byte   Fs4
 .byte   W06
 .byte   Dn4
 .byte   W06
 .byte   Gn4
 .byte   W06
 .byte   Fs4
 .byte   W06
 .byte   Dn4
 .byte   W06
 .byte   N14 ,Gn4
 .byte   W18
 .byte   N08 ,An4
 .byte   W12
 .byte   PEND 
@ 020   ----------------------------------------
 .byte   PATT
  .word Label_11_01286B70
@ 021   ----------------------------------------
 .byte   PATT
  .word Label_11_01286B93
@ 022   ----------------------------------------
 .byte   PATT
  .word Label_11_01286B70
@ 023   ----------------------------------------
Label_11_01286BE4:
 .byte   N04 ,Fs4 ,v076
 .byte   W06
 .byte   Dn4
 .byte   W06
 .byte   Gn4
 .byte   W06
 .byte   Fs4
 .byte   W06
 .byte   Dn4
 .byte   W06
 .byte   Gn4
 .byte   W06
 .byte   Fs4
 .byte   W06
 .byte   Dn4
 .byte   W06
 .byte   N08 ,Gn4
 .byte   W12
 .byte   An4
 .byte   W12
 .byte   Bn4
 .byte   W12
 .byte   N04 ,An4
 .byte   W06
 .byte   Fs4
 .byte   W06
 .byte   PEND 
@ 024   ----------------------------------------
 .byte   PATT
  .word Label_11_01286B70
@ 025   ----------------------------------------
 .byte   PATT
  .word Label_11_01286B93
@ 026   ----------------------------------------
 .byte   PATT
  .word Label_11_01286B70
@ 027   ----------------------------------------
 .byte   PATT
  .word Label_11_01286BB6
@ 028   ----------------------------------------
 .byte   PATT
  .word Label_11_01286B70
@ 029   ----------------------------------------
 .byte   PATT
  .word Label_11_01286B93
@ 030   ----------------------------------------
 .byte   PATT
  .word Label_11_01286B70
@ 031   ----------------------------------------
 .byte   PATT
  .word Label_11_01286BE4
@ 032   ----------------------------------------
Label_11_01286C2B:
 .byte   W06
 .byte   N04 ,Bn4 ,v076
 .byte   W06
 .byte   Gn4
 .byte   W06
 .byte   En4
 .byte   W06
 .byte   Bn3
 .byte   W06
 .byte   Gn3
 .byte   W06
 .byte   En3
 .byte   W06
 .byte   Bn2
 .byte   W06
 .byte   N04
 .byte   W06
 .byte   En3
 .byte   W06
 .byte   Gn3
 .byte   W06
 .byte   Bn3
 .byte   W06
 .byte   Gn3
 .byte   W06
 .byte   Bn3
 .byte   W06
 .byte   En4
 .byte   W06
 .byte   Gn4
 .byte   W06
 .byte   PEND 
@ 033   ----------------------------------------
Label_11_01286C4D:
 .byte   W06
 .byte   N04 ,An4 ,v076
 .byte   W06
 .byte   Fs4
 .byte   W06
 .byte   Dn4
 .byte   W06
 .byte   An3
 .byte   W06
 .byte   Fs3
 .byte   W06
 .byte   Dn3
 .byte   W06
 .byte   An2
 .byte   W06
 .byte   N04
 .byte   W06
 .byte   Dn3
 .byte   W06
 .byte   Fs3
 .byte   W06
 .byte   An3
 .byte   W06
 .byte   Fs3
 .byte   W06
 .byte   N04
 .byte   W06
 .byte   An3
 .byte   W06
 .byte   Dn4
 .byte   W06
 .byte   PEND 
@ 034   ----------------------------------------
Label_11_01286C6F:
 .byte   W06
 .byte   N04 ,Gn4 ,v076
 .byte   W06
 .byte   Fs4
 .byte   W06
 .byte   Dn4
 .byte   W06
 .byte   An3
 .byte   W06
 .byte   Gn3
 .byte   W06
 .byte   Fs3
 .byte   W06
 .byte   Dn3
 .byte   W06
 .byte   An2
 .byte   W06
 .byte   N04
 .byte   W06
 .byte   Dn3
 .byte   W06
 .byte   Fs3
 .byte   W06
 .byte   N04
 .byte   W06
 .byte   An3
 .byte   W06
 .byte   Dn4
 .byte   W06
 .byte   Fs4
 .byte   W06
 .byte   PEND 
@ 035   ----------------------------------------
Label_11_01286C91:
 .byte   N04 ,Gn4 ,v076
 .byte   W06
 .byte   Fs4
 .byte   W06
 .byte   Dn4
 .byte   W06
 .byte   Gn4
 .byte   W06
 .byte   Fs4
 .byte   W06
 .byte   Dn4
 .byte   W06
 .byte   Gn4
 .byte   W06
 .byte   Fs4
 .byte   W06
 .byte   Dn4
 .byte   W06
 .byte   Gn4
 .byte   W06
 .byte   Fs4
 .byte   W06
 .byte   Dn4
 .byte   W06
 .byte   N08 ,Gn4
 .byte   W12
 .byte   An4
 .byte   W12
 .byte   PEND 
@ 036   ----------------------------------------
 .byte   PATT
  .word Label_11_01286C2B
@ 037   ----------------------------------------
 .byte   PATT
  .word Label_11_01286C4D
@ 038   ----------------------------------------
 .byte   PATT
  .word Label_11_01286C6F
@ 039   ----------------------------------------
Label_11_01286CC0:
 .byte   N04 ,Bn3 ,v076
 .byte   N04 ,En4
 .byte   W06
 .byte   Bn3
 .byte   N04 ,En4
 .byte   W06
 .byte   Bn4
 .byte   N04 ,En5
 .byte   W06
 .byte   Bn3
 .byte   N04 ,En4
 .byte   W06
 .byte   Bn3
 .byte   N04 ,En4
 .byte   W06
 .byte   Bn4
 .byte   N04 ,En5
 .byte   W06
 .byte   Bn3
 .byte   N04 ,En4
 .byte   W06
 .byte   Bn3
 .byte   N04 ,En4
 .byte   W06
 .byte   Bn4
 .byte   N04 ,En5
 .byte   W06
 .byte   Bn3
 .byte   N04 ,En4
 .byte   W06
 .byte   Bn3
 .byte   N04 ,En4
 .byte   W06
 .byte   Bn4
 .byte   N04 ,En5
 .byte   W06
 .byte   Bn3
 .byte   N04 ,En4
 .byte   W06
 .byte   Bn3
 .byte   N04 ,En4
 .byte   W06
 .byte   Bn4
 .byte   N04 ,En5
 .byte   W06
 .byte   Bn3
 .byte   N04 ,En4
 .byte   W06
 .byte   PEND 
@ 040   ----------------------------------------
Label_11_01286D03:
 .byte   N08 ,En4 ,v076
 .byte   W12
 .byte   Gn4
 .byte   W12
 .byte   N04 ,En4
 .byte   W06
 .byte   N08 ,Gn4
 .byte   W12
 .byte   N04 ,En4
 .byte   W06
 .byte   N08 ,Gn4
 .byte   W12
 .byte   N04 ,En4
 .byte   W06
 .byte   N08 ,Gn4
 .byte   W12
 .byte   N04 ,En4
 .byte   W06
 .byte   Gn4
 .byte   W06
 .byte   An4
 .byte   W06
 .byte   PEND 
@ 041   ----------------------------------------
Label_11_01286D23:
 .byte   N32 ,Bn4 ,v076
 .byte   W36
 .byte   N20 ,An4
 .byte   W24
 .byte   N08 ,Gn4
 .byte   W12
 .byte   N04 ,An4
 .byte   W06
 .byte   N12 ,Bn4
 .byte   W18
 .byte   PEND 
@ 042   ----------------------------------------
Label_11_01286D34:
 .byte   N32 ,En5 ,v076
 .byte   W36
 .byte   N17 ,Bn4
 .byte   W18
 .byte   N04 ,En4
 .byte   W06
 .byte   N20 ,An4
 .byte   W24
 .byte   N04 ,En4
 .byte   W06
 .byte   Fs4
 .byte   W06
 .byte   PEND 
@ 043   ----------------------------------------
Label_11_01286D47:
 .byte   N32 ,Gn4 ,v076
 .byte   W36
 .byte   Fs4
 .byte   W36
 .byte   N20 ,Dn4
 .byte   W24
 .byte   PEND 
@ 044   ----------------------------------------
Label_11_01286D51:
 .byte   N04 ,En4 ,v076
 .byte   W06
 .byte   Dn4
 .byte   W06
 .byte   Bn3
 .byte   W06
 .byte   En4
 .byte   W06
 .byte   Dn4
 .byte   W06
 .byte   Bn3
 .byte   W06
 .byte   En4
 .byte   W06
 .byte   Dn4
 .byte   W06
 .byte   Bn3
 .byte   W06
 .byte   En4
 .byte   W06
 .byte   Dn4
 .byte   W06
 .byte   Bn3
 .byte   W06
 .byte   En4
 .byte   W06
 .byte   Dn4
 .byte   W06
 .byte   Bn3
 .byte   W06
 .byte   En4
 .byte   W06
 .byte   PEND 
@ 045   ----------------------------------------
Label_11_01286D74:
 .byte   N04 ,Dn4 ,v076
 .byte   W06
 .byte   Bn3
 .byte   W06
 .byte   En4
 .byte   W06
 .byte   Dn4
 .byte   W06
 .byte   Bn3
 .byte   W06
 .byte   En4
 .byte   W06
 .byte   Dn4
 .byte   W06
 .byte   Bn3
 .byte   W06
 .byte   En4
 .byte   W06
 .byte   Dn4
 .byte   W06
 .byte   Bn3
 .byte   W06
 .byte   N14 ,En4
 .byte   W18
 .byte   N08 ,Gn4
 .byte   W12
 .byte   PEND 
@ 046   ----------------------------------------
Label_11_01286D93:
 .byte   N04 ,An4 ,v076
 .byte   W06
 .byte   Gn4
 .byte   W06
 .byte   En4
 .byte   W06
 .byte   An4
 .byte   W06
 .byte   Gn4
 .byte   W06
 .byte   En4
 .byte   W06
 .byte   An4
 .byte   W06
 .byte   Gn4
 .byte   W06
 .byte   En4
 .byte   W06
 .byte   An4
 .byte   W06
 .byte   Gn4
 .byte   W06
 .byte   En4
 .byte   W06
 .byte   N08 ,Gn4
 .byte   W12
 .byte   An4
 .byte   W12
 .byte   PEND 
@ 047   ----------------------------------------
Label_11_01286DB3:
 .byte   N11 ,Dn4 ,v076
 .byte   N11 ,Gn4
 .byte   W12
 .byte   N17
 .byte   N17 ,Dn5
 .byte   W18
 .byte   N11 ,Gn4
 .byte   N11 ,Dn5
 .byte   W12
 .byte   N05 ,Gn4
 .byte   N05 ,Bn4
 .byte   W06
 .byte   N11 ,Gn4
 .byte   N11 ,Dn5
 .byte   W12
 .byte   N05 ,Gn4
 .byte   N05 ,Bn4
 .byte   W06
 .byte   N11 ,Gn4
 .byte   N11 ,Dn5
 .byte   W12
 .byte   N05 ,Gn4
 .byte   N05 ,Bn4
 .byte   W06
 .byte   Gn4
 .byte   N05 ,Bn4
 .byte   W06
 .byte   Gn4
 .byte   N05 ,Dn5
 .byte   W06
 .byte   PEND 
@ 048   ----------------------------------------
Label_11_01286DE4:
 .byte   VOL , 40*song0166_mvl/mxv
 .byte   N90 ,Bn4 ,v076
 .byte   N90 ,En5
 .byte   W02
 .byte   VOL , 39*song0166_mvl/mxv
 .byte   W03
 .byte   Fs4
 .byte   W03
 .byte   Fs4
 .byte   W02
 .byte   Fn4
 .byte   W03
 .byte   En4
 .byte   W03
 .byte   En4
 .byte   W02
 .byte   Ds4
 .byte   W03
 .byte   Dn4
 .byte   W03
 .byte   Dn4
 .byte   W02
 .byte   Cs4
 .byte   W03
 .byte   Cs4
 .byte   W03
 .byte   Cn4
 .byte   W02
 .byte   Bn3
 .byte   W03
 .byte   Bn3
 .byte   W03
 .byte   As3
 .byte   W02
 .byte   An3
 .byte   W03
 .byte   An3
 .byte   W03
 .byte   Gs3
 .byte   W01
 .byte   Gn3
 .byte   W01
 .byte   Fs3
 .byte   W01
 .byte   Fs3
 .byte   W01
 .byte   Fn3
 .byte   W01
 .byte   En3
 .byte   W01
 .byte   En3
 .byte   W01
 .byte   Ds3
 .byte   W01
 .byte   Dn3
 .byte   W01
 .byte   Dn3
 .byte   W01
 .byte   Cs3
 .byte   W01
 .byte   Cs3
 .byte   W01
 .byte   Cn3
 .byte   W01
 .byte   Bn2
 .byte   W01
 .byte   Bn2
 .byte   W01
 .byte   As2
 .byte   W01
 .byte   An2
 .byte   W01
 .byte   An2
 .byte   W01
 .byte   Gs2
 .byte   W01
 .byte   Gs2
 .byte   W01
 .byte   Gn2
 .byte   W01
 .byte   Fs2
 .byte   W01
 .byte   Fs2
 .byte   W01
 .byte   Fn2
 .byte   W01
 .byte   En2
 .byte   W01
 .byte   En2
 .byte   W01
 .byte   Ds2
 .byte   W01
 .byte   Ds2
 .byte   W01
 .byte   Dn2
 .byte   W01
 .byte   Cs2
 .byte   W01
 .byte   Cs2
 .byte   W01
 .byte   Cn2
 .byte   W01
 .byte   Bn1
 .byte   W01
 .byte   Bn1
 .byte   W01
 .byte   As1
 .byte   W01
 .byte   An1
 .byte   W01
 .byte   Fs1
 .byte   W01
 .byte   Dn1
 .byte   W01
 .byte   As0
 .byte   W01
 .byte   Fs0
 .byte   W01
 .byte   Ds0
 .byte   W01
 .byte   BnM1
 .byte   W01
 .byte   GnM1
 .byte   W01
 .byte   DsM1
 .byte   W01
 .byte   BnM2
 .byte   W01
 .byte   GsM2
 .byte   W01
 .byte   EnM2
 .byte   W01
 .byte   CsM2
 .byte   W01
 .byte   PEND 
@ 049   ----------------------------------------
 .byte   CnM2
 .byte   W96
@ 050   ----------------------------------------
 .byte   Gs4
 .byte   W96
@ 051   ----------------------------------------
 .byte   W96
@ 052   ----------------------------------------
 .byte   N96 ,Bn2 ,v060
 .byte   W96
@ 053   ----------------------------------------
Label_11_01286E79:
 .byte   N72 ,Cs3 ,v060
 .byte   W72
 .byte   N24 ,As2
 .byte   W24
 .byte   PEND 
@ 054   ----------------------------------------
Label_11_01286E81:
 .byte   N72 ,Cn3 ,v060
 .byte   W72
 .byte   N24
 .byte   W24
 .byte   PEND 
@ 055   ----------------------------------------
 .byte   N96 ,Bn2
 .byte   W96
@ 056   ----------------------------------------
 .byte   N96
 .byte   W96
@ 057   ----------------------------------------
 .byte   PATT
  .word Label_11_01286E79
@ 058   ----------------------------------------
 .byte   PATT
  .word Label_11_01286E81
@ 059   ----------------------------------------
 .byte   N96 ,Bn2 ,v060
 .byte   W96
@ 060   ----------------------------------------
 .byte   N96
 .byte   W96
@ 061   ----------------------------------------
 .byte   PATT
  .word Label_11_01286E79
@ 062   ----------------------------------------
 .byte   PATT
  .word Label_11_01286E81
@ 063   ----------------------------------------
 .byte   N96 ,Bn2 ,v060
 .byte   W96
@ 064   ----------------------------------------
 .byte   N96
 .byte   W96
@ 065   ----------------------------------------
 .byte   PATT
  .word Label_11_01286E79
@ 066   ----------------------------------------
 .byte   PATT
  .word Label_11_01286E81
@ 067   ----------------------------------------
 .byte   N96 ,Bn2 ,v060
 .byte   W96
@ 068   ----------------------------------------
Label_11_01286EBB:
 .byte   W06
 .byte   N04 ,Bn2 ,v076
 .byte   W06
 .byte   Dn3
 .byte   W06
 .byte   Fs3
 .byte   W06
 .byte   Dn3
 .byte   W06
 .byte   N04
 .byte   W06
 .byte   Gn3
 .byte   W06
 .byte   Bn3
 .byte   W06
 .byte   Gn3
 .byte   W06
 .byte   N04
 .byte   W06
 .byte   Bn3
 .byte   W06
 .byte   Dn4
 .byte   W06
 .byte   Bn3
 .byte   W06
 .byte   N04
 .byte   W06
 .byte   Dn4
 .byte   W06
 .byte   Gn4
 .byte   W06
 .byte   PEND 
@ 069   ----------------------------------------
Label_11_01286EDD:
 .byte   N04 ,As4 ,v076
 .byte   W06
 .byte   N04
 .byte   W06
 .byte   Fs4
 .byte   W06
 .byte   Cs4
 .byte   W06
 .byte   Fs4
 .byte   W06
 .byte   N04
 .byte   W06
 .byte   Cs4
 .byte   W06
 .byte   As3
 .byte   W06
 .byte   Cs4
 .byte   W06
 .byte   As3
 .byte   W06
 .byte   N04
 .byte   W06
 .byte   Fs3
 .byte   W06
 .byte   N04
 .byte   W06
 .byte   Cs3
 .byte   W06
 .byte   N04
 .byte   W06
 .byte   As2
 .byte   W06
 .byte   PEND 
@ 070   ----------------------------------------
Label_11_01286F00:
 .byte   W06
 .byte   N04 ,Cn3 ,v076
 .byte   W06
 .byte   En3
 .byte   W06
 .byte   An3
 .byte   W06
 .byte   En3
 .byte   W06
 .byte   N04
 .byte   W06
 .byte   An3
 .byte   W06
 .byte   Cn4
 .byte   W06
 .byte   An3
 .byte   W06
 .byte   N04
 .byte   W06
 .byte   Cn4
 .byte   W06
 .byte   En4
 .byte   W06
 .byte   Cn4
 .byte   W06
 .byte   N04
 .byte   W06
 .byte   En4
 .byte   W06
 .byte   An4
 .byte   W06
 .byte   PEND 
@ 071   ----------------------------------------
Label_11_01286F22:
 .byte   N04 ,Gn4 ,v076
 .byte   W06
 .byte   N04
 .byte   W06
 .byte   En4
 .byte   W06
 .byte   Bn3
 .byte   W06
 .byte   N04
 .byte   W06
 .byte   N04
 .byte   W06
 .byte   Gn3
 .byte   W06
 .byte   En3
 .byte   W06
 .byte   N04
 .byte   W06
 .byte   Gn3
 .byte   W06
 .byte   En3
 .byte   W06
 .byte   Bn2
 .byte   W06
 .byte   N04
 .byte   W06
 .byte   En3
 .byte   W06
 .byte   Bn2
 .byte   W06
 .byte   Gn2
 .byte   W06
 .byte   PEND 
@ 072   ----------------------------------------
 .byte   PATT
  .word Label_11_01286EBB
@ 073   ----------------------------------------
 .byte   PATT
  .word Label_11_01286EDD
@ 074   ----------------------------------------
 .byte   PATT
  .word Label_11_01286F00
@ 075   ----------------------------------------
 .byte   PATT
  .word Label_11_01286F22
@ 076   ----------------------------------------
 .byte   W96
@ 077   ----------------------------------------
 .byte   W96
@ 078   ----------------------------------------
 .byte   W96
@ 079   ----------------------------------------
 .byte   W96
@ 080   ----------------------------------------
 .byte   W96
@ 081   ----------------------------------------
 .byte   W96
@ 082   ----------------------------------------
 .byte   W96
@ 083   ----------------------------------------
 .byte   W96
@ 084   ----------------------------------------
 .byte   VOICE , 81
 .byte   W96
@ 085   ----------------------------------------
 .byte   W96
@ 086   ----------------------------------------
 .byte   W96
@ 087   ----------------------------------------
 .byte   W96
@ 088   ----------------------------------------
 .byte   W96
@ 089   ----------------------------------------
 .byte   W96
@ 090   ----------------------------------------
 .byte   W96
@ 091   ----------------------------------------
 .byte   W96
@ 092   ----------------------------------------
 .byte   W96
@ 093   ----------------------------------------
 .byte   W96
@ 094   ----------------------------------------
 .byte   W96
@ 095   ----------------------------------------
 .byte   W96
@ 096   ----------------------------------------
 .byte   W96
@ 097   ----------------------------------------
 .byte   W96
@ 098   ----------------------------------------
 .byte   W96
@ 099   ----------------------------------------
 .byte   W96
@ 100   ----------------------------------------
 .byte   PATT
  .word Label_11_01286B70
@ 101   ----------------------------------------
 .byte   PATT
  .word Label_11_01286B93
@ 102   ----------------------------------------
 .byte   PATT
  .word Label_11_01286B70
@ 103   ----------------------------------------
 .byte   PATT
  .word Label_11_01286BB6
@ 104   ----------------------------------------
 .byte   PATT
  .word Label_11_01286B70
@ 105   ----------------------------------------
 .byte   PATT
  .word Label_11_01286B93
@ 106   ----------------------------------------
 .byte   PATT
  .word Label_11_01286B70
@ 107   ----------------------------------------
 .byte   PATT
  .word Label_11_01286BE4
@ 108   ----------------------------------------
 .byte   PATT
  .word Label_11_01286B70
@ 109   ----------------------------------------
 .byte   PATT
  .word Label_11_01286B93
@ 110   ----------------------------------------
 .byte   PATT
  .word Label_11_01286B70
@ 111   ----------------------------------------
 .byte   PATT
  .word Label_11_01286BB6
@ 112   ----------------------------------------
 .byte   PATT
  .word Label_11_01286B70
@ 113   ----------------------------------------
 .byte   PATT
  .word Label_11_01286B93
@ 114   ----------------------------------------
 .byte   PATT
  .word Label_11_01286B70
@ 115   ----------------------------------------
 .byte   PATT
  .word Label_11_01286BE4
@ 116   ----------------------------------------
 .byte   PATT
  .word Label_11_01286C2B
@ 117   ----------------------------------------
 .byte   PATT
  .word Label_11_01286C4D
@ 118   ----------------------------------------
 .byte   PATT
  .word Label_11_01286C6F
@ 119   ----------------------------------------
 .byte   PATT
  .word Label_11_01286C91
@ 120   ----------------------------------------
 .byte   PATT
  .word Label_11_01286C2B
@ 121   ----------------------------------------
 .byte   PATT
  .word Label_11_01286C4D
@ 122   ----------------------------------------
 .byte   PATT
  .word Label_11_01286C6F
@ 123   ----------------------------------------
 .byte   PATT
  .word Label_11_01286CC0
@ 124   ----------------------------------------
 .byte   PATT
  .word Label_11_01286D03
@ 125   ----------------------------------------
 .byte   PATT
  .word Label_11_01286D23
@ 126   ----------------------------------------
 .byte   PATT
  .word Label_11_01286D34
@ 127   ----------------------------------------
 .byte   PATT
  .word Label_11_01286D47
@ 128   ----------------------------------------
 .byte   PATT
  .word Label_11_01286D51
@ 129   ----------------------------------------
 .byte   PATT
  .word Label_11_01286D74
@ 130   ----------------------------------------
 .byte   PATT
  .word Label_11_01286D93
@ 131   ----------------------------------------
 .byte   PATT
  .word Label_11_01286DB3
@ 132   ----------------------------------------
 .byte   PATT
  .word Label_11_01286DE4
@ 133   ----------------------------------------
 .byte   VOL , 0*song0166_mvl/mxv
 .byte   W96
@ 134   ----------------------------------------
 .byte   Gs4
 .byte   W96
@ 135   ----------------------------------------
 .byte   W96
@ 136   ----------------------------------------
 .byte   N96 ,Bn2 ,v060
 .byte   W96
@ 137   ----------------------------------------
 .byte   PATT
  .word Label_11_01286E79
@ 138   ----------------------------------------
 .byte   PATT
  .word Label_11_01286E81
@ 139   ----------------------------------------
 .byte   N96 ,Bn2 ,v060
 .byte   W96
@ 140   ----------------------------------------
 .byte   N96
 .byte   W96
@ 141   ----------------------------------------
 .byte   PATT
  .word Label_11_01286E79
@ 142   ----------------------------------------
 .byte   PATT
  .word Label_11_01286E81
@ 143   ----------------------------------------
 .byte   N96 ,Bn2 ,v060
 .byte   W96
@ 144   ----------------------------------------
 .byte   N96
 .byte   W96
@ 145   ----------------------------------------
 .byte   PATT
  .word Label_11_01286E79
@ 146   ----------------------------------------
 .byte   PATT
  .word Label_11_01286E81
@ 147   ----------------------------------------
 .byte   N96 ,Bn2 ,v060
 .byte   W96
@ 148   ----------------------------------------
 .byte   N96
 .byte   W96
@ 149   ----------------------------------------
 .byte   PATT
  .word Label_11_01286E79
@ 150   ----------------------------------------
 .byte   PATT
  .word Label_11_01286E81
@ 151   ----------------------------------------
 .byte   N96 ,Bn2 ,v060
 .byte   W96
@ 152   ----------------------------------------
 .byte   PATT
  .word Label_11_01286EBB
@ 153   ----------------------------------------
 .byte   PATT
  .word Label_11_01286EDD
@ 154   ----------------------------------------
 .byte   PATT
  .word Label_11_01286F00
@ 155   ----------------------------------------
 .byte   PATT
  .word Label_11_01286F22
@ 156   ----------------------------------------
 .byte   PATT
  .word Label_11_01286EBB
@ 157   ----------------------------------------
 .byte   PATT
  .word Label_11_01286EDD
@ 158   ----------------------------------------
 .byte   PATT
  .word Label_11_01286F00
@ 159   ----------------------------------------
 .byte   PATT
  .word Label_11_01286F22
@ 160   ----------------------------------------
 .byte   W96
@ 161   ----------------------------------------
 .byte   W96
@ 162   ----------------------------------------
 .byte   W96
@ 163   ----------------------------------------
 .byte   W96
@ 164   ----------------------------------------
 .byte   W96
@ 165   ----------------------------------------
 .byte   W96
@ 166   ----------------------------------------
 .byte   W96
@ 167   ----------------------------------------
 .byte   W92
 .byte   W03
 .byte   GOTO
  .word Label_11_01286B5A
 .byte   FINE

@**************** Track 13 (Midi-Chn.12) ****************@

song0166_013:
@ 000   ----------------------------------------
 .byte   KEYSH , song0166_key+0
Label_12_0128709A:
 .byte   VOICE , 62
 .byte   VOL , 40*song0166_mvl/mxv
 .byte   PAN , c_v+0
 .byte   W96
@ 001   ----------------------------------------
 .byte   W96
@ 002   ----------------------------------------
 .byte   W96
@ 003   ----------------------------------------
 .byte   W96
@ 004   ----------------------------------------
 .byte   W96
@ 005   ----------------------------------------
 .byte   W96
@ 006   ----------------------------------------
 .byte   W96
@ 007   ----------------------------------------
 .byte   W96
@ 008   ----------------------------------------
 .byte   W96
@ 009   ----------------------------------------
 .byte   W96
@ 010   ----------------------------------------
 .byte   W96
@ 011   ----------------------------------------
 .byte   W96
@ 012   ----------------------------------------
 .byte   W96
@ 013   ----------------------------------------
 .byte   W96
@ 014   ----------------------------------------
 .byte   W96
@ 015   ----------------------------------------
 .byte   W96
@ 016   ----------------------------------------
Label_12_012870B0:
 .byte   N04 ,Gn4 ,v076
 .byte   W06
 .byte   Fs4
 .byte   W06
 .byte   Dn4
 .byte   W06
 .byte   Gn4
 .byte   W06
 .byte   Fs4
 .byte   W06
 .byte   Dn4
 .byte   W06
 .byte   Gn4
 .byte   W06
 .byte   Fs4
 .byte   W06
 .byte   Dn4
 .byte   W06
 .byte   Gn4
 .byte   W06
 .byte   Fs4
 .byte   W06
 .byte   Dn4
 .byte   W06
 .byte   Gn4
 .byte   W06
 .byte   Fs4
 .byte   W06
 .byte   Dn4
 .byte   W06
 .byte   Gn4
 .byte   W06
 .byte   PEND 
@ 017   ----------------------------------------
Label_12_012870D3:
 .byte   N04 ,Fs4 ,v076
 .byte   W06
 .byte   Dn4
 .byte   W06
 .byte   Gn4
 .byte   W06
 .byte   Fs4
 .byte   W06
 .byte   Dn4
 .byte   W06
 .byte   Gn4
 .byte   W06
 .byte   Fs4
 .byte   W06
 .byte   Dn4
 .byte   W06
 .byte   Gn4
 .byte   W06
 .byte   Fs4
 .byte   W06
 .byte   Dn4
 .byte   W06
 .byte   N14
 .byte   W18
 .byte   N08 ,En4
 .byte   W12
 .byte   PEND 
@ 018   ----------------------------------------
 .byte   PATT
  .word Label_12_012870B0
@ 019   ----------------------------------------
Label_12_012870F6:
 .byte   N04 ,Fs4 ,v076
 .byte   W06
 .byte   Dn4
 .byte   W06
 .byte   Gn4
 .byte   W06
 .byte   Fs4
 .byte   W06
 .byte   Dn4
 .byte   W06
 .byte   Gn4
 .byte   W06
 .byte   Fs4
 .byte   W06
 .byte   Dn4
 .byte   W06
 .byte   Gn4
 .byte   W06
 .byte   Fs4
 .byte   W06
 .byte   Dn4
 .byte   W06
 .byte   N14 ,Gn4
 .byte   W18
 .byte   N08 ,An4
 .byte   W12
 .byte   PEND 
@ 020   ----------------------------------------
 .byte   PATT
  .word Label_12_012870B0
@ 021   ----------------------------------------
 .byte   PATT
  .word Label_12_012870D3
@ 022   ----------------------------------------
 .byte   PATT
  .word Label_12_012870B0
@ 023   ----------------------------------------
Label_12_01287124:
 .byte   N04 ,Fs4 ,v076
 .byte   W06
 .byte   Dn4
 .byte   W06
 .byte   Gn4
 .byte   W06
 .byte   Fs4
 .byte   W06
 .byte   Dn4
 .byte   W06
 .byte   Gn4
 .byte   W06
 .byte   Fs4
 .byte   W06
 .byte   Dn4
 .byte   W06
 .byte   N08 ,Gn4
 .byte   W12
 .byte   An4
 .byte   W12
 .byte   Bn4
 .byte   W12
 .byte   N04 ,An4
 .byte   W06
 .byte   Fs4
 .byte   W06
 .byte   PEND 
@ 024   ----------------------------------------
 .byte   PATT
  .word Label_12_012870B0
@ 025   ----------------------------------------
 .byte   PATT
  .word Label_12_012870D3
@ 026   ----------------------------------------
 .byte   PATT
  .word Label_12_012870B0
@ 027   ----------------------------------------
 .byte   PATT
  .word Label_12_012870F6
@ 028   ----------------------------------------
 .byte   PATT
  .word Label_12_012870B0
@ 029   ----------------------------------------
 .byte   PATT
  .word Label_12_012870D3
@ 030   ----------------------------------------
 .byte   PATT
  .word Label_12_012870B0
@ 031   ----------------------------------------
 .byte   PATT
  .word Label_12_01287124
@ 032   ----------------------------------------
Label_12_0128716B:
 .byte   W06
 .byte   N04 ,Bn4 ,v076
 .byte   W06
 .byte   Gn4
 .byte   W06
 .byte   En4
 .byte   W06
 .byte   Bn3
 .byte   W06
 .byte   Gn3
 .byte   W06
 .byte   En3
 .byte   W06
 .byte   Bn2
 .byte   W06
 .byte   N04
 .byte   W06
 .byte   En3
 .byte   W06
 .byte   Gn3
 .byte   W06
 .byte   Bn3
 .byte   W06
 .byte   Gn3
 .byte   W06
 .byte   Bn3
 .byte   W06
 .byte   En4
 .byte   W06
 .byte   Gn4
 .byte   W06
 .byte   PEND 
@ 033   ----------------------------------------
Label_12_0128718D:
 .byte   W06
 .byte   N04 ,An4 ,v076
 .byte   W06
 .byte   Fs4
 .byte   W06
 .byte   Dn4
 .byte   W06
 .byte   An3
 .byte   W06
 .byte   Fs3
 .byte   W06
 .byte   Dn3
 .byte   W06
 .byte   An2
 .byte   W06
 .byte   N04
 .byte   W06
 .byte   Dn3
 .byte   W06
 .byte   Fs3
 .byte   W06
 .byte   An3
 .byte   W06
 .byte   Fs3
 .byte   W06
 .byte   N04
 .byte   W06
 .byte   An3
 .byte   W06
 .byte   Dn4
 .byte   W06
 .byte   PEND 
@ 034   ----------------------------------------
Label_12_012871AF:
 .byte   W06
 .byte   N04 ,Gn4 ,v076
 .byte   W06
 .byte   Fs4
 .byte   W06
 .byte   Dn4
 .byte   W06
 .byte   An3
 .byte   W06
 .byte   Gn3
 .byte   W06
 .byte   Fs3
 .byte   W06
 .byte   Dn3
 .byte   W06
 .byte   An2
 .byte   W06
 .byte   N04
 .byte   W06
 .byte   Dn3
 .byte   W06
 .byte   Fs3
 .byte   W06
 .byte   N04
 .byte   W06
 .byte   An3
 .byte   W06
 .byte   Dn4
 .byte   W06
 .byte   Fs4
 .byte   W06
 .byte   PEND 
@ 035   ----------------------------------------
Label_12_012871D1:
 .byte   N04 ,Gn4 ,v076
 .byte   W06
 .byte   Fs4
 .byte   W06
 .byte   Dn4
 .byte   W06
 .byte   Gn4
 .byte   W06
 .byte   Fs4
 .byte   W06
 .byte   Dn4
 .byte   W06
 .byte   Gn4
 .byte   W06
 .byte   Fs4
 .byte   W06
 .byte   Dn4
 .byte   W06
 .byte   Gn4
 .byte   W06
 .byte   Fs4
 .byte   W06
 .byte   Dn4
 .byte   W06
 .byte   N08 ,Gn4
 .byte   W12
 .byte   An4
 .byte   W12
 .byte   PEND 
@ 036   ----------------------------------------
 .byte   PATT
  .word Label_12_0128716B
@ 037   ----------------------------------------
 .byte   PATT
  .word Label_12_0128718D
@ 038   ----------------------------------------
 .byte   PATT
  .word Label_12_012871AF
@ 039   ----------------------------------------
Label_12_01287200:
 .byte   N04 ,Bn3 ,v076
 .byte   N04 ,En4
 .byte   W06
 .byte   Bn3
 .byte   N04 ,En4
 .byte   W06
 .byte   Bn4
 .byte   N04 ,En5
 .byte   W06
 .byte   Bn3
 .byte   N04 ,En4
 .byte   W06
 .byte   Bn3
 .byte   N04 ,En4
 .byte   W06
 .byte   Bn4
 .byte   N04 ,En5
 .byte   W06
 .byte   Bn3
 .byte   N04 ,En4
 .byte   W06
 .byte   Bn3
 .byte   N04 ,En4
 .byte   W06
 .byte   Bn4
 .byte   N04 ,En5
 .byte   W06
 .byte   Bn3
 .byte   N04 ,En4
 .byte   W06
 .byte   Bn3
 .byte   N04 ,En4
 .byte   W06
 .byte   Bn4
 .byte   N04 ,En5
 .byte   W06
 .byte   Bn3
 .byte   N04 ,En4
 .byte   W06
 .byte   Bn3
 .byte   N04 ,En4
 .byte   W06
 .byte   Bn4
 .byte   N04 ,En5
 .byte   W06
 .byte   Bn3
 .byte   N04 ,En4
 .byte   W06
 .byte   PEND 
@ 040   ----------------------------------------
Label_12_01287243:
 .byte   N08 ,En4 ,v076
 .byte   W12
 .byte   Gn4
 .byte   W12
 .byte   N04 ,En4
 .byte   W06
 .byte   N08 ,Gn4
 .byte   W12
 .byte   N04 ,En4
 .byte   W06
 .byte   N08 ,Gn4
 .byte   W12
 .byte   N04 ,En4
 .byte   W06
 .byte   N08 ,Gn4
 .byte   W12
 .byte   N04 ,En4
 .byte   W06
 .byte   Gn4
 .byte   W06
 .byte   An4
 .byte   W06
 .byte   PEND 
@ 041   ----------------------------------------
Label_12_01287263:
 .byte   N32 ,Bn4 ,v076
 .byte   W36
 .byte   N20 ,An4
 .byte   W24
 .byte   N08 ,Gn4
 .byte   W12
 .byte   N04 ,An4
 .byte   W06
 .byte   N12 ,Bn4
 .byte   W18
 .byte   PEND 
@ 042   ----------------------------------------
Label_12_01287274:
 .byte   N32 ,En5 ,v076
 .byte   W36
 .byte   N17 ,Bn4
 .byte   W18
 .byte   N04 ,En4
 .byte   W06
 .byte   N20 ,An4
 .byte   W24
 .byte   N04 ,En4
 .byte   W06
 .byte   Fs4
 .byte   W06
 .byte   PEND 
@ 043   ----------------------------------------
Label_12_01287287:
 .byte   N32 ,Gn4 ,v076
 .byte   W36
 .byte   Fs4
 .byte   W36
 .byte   N20 ,Dn4
 .byte   W24
 .byte   PEND 
@ 044   ----------------------------------------
Label_12_01287291:
 .byte   N04 ,En4 ,v076
 .byte   W06
 .byte   Dn4
 .byte   W06
 .byte   Bn3
 .byte   W06
 .byte   En4
 .byte   W06
 .byte   Dn4
 .byte   W06
 .byte   Bn3
 .byte   W06
 .byte   En4
 .byte   W06
 .byte   Dn4
 .byte   W06
 .byte   Bn3
 .byte   W06
 .byte   En4
 .byte   W06
 .byte   Dn4
 .byte   W06
 .byte   Bn3
 .byte   W06
 .byte   En4
 .byte   W06
 .byte   Dn4
 .byte   W06
 .byte   Bn3
 .byte   W06
 .byte   En4
 .byte   W06
 .byte   PEND 
@ 045   ----------------------------------------
Label_12_012872B4:
 .byte   N04 ,Dn4 ,v076
 .byte   W06
 .byte   Bn3
 .byte   W06
 .byte   En4
 .byte   W06
 .byte   Dn4
 .byte   W06
 .byte   Bn3
 .byte   W06
 .byte   En4
 .byte   W06
 .byte   Dn4
 .byte   W06
 .byte   Bn3
 .byte   W06
 .byte   En4
 .byte   W06
 .byte   Dn4
 .byte   W06
 .byte   Bn3
 .byte   W06
 .byte   N14 ,En4
 .byte   W18
 .byte   N08 ,Gn4
 .byte   W12
 .byte   PEND 
@ 046   ----------------------------------------
Label_12_012872D3:
 .byte   N04 ,An4 ,v076
 .byte   W06
 .byte   Gn4
 .byte   W06
 .byte   En4
 .byte   W06
 .byte   An4
 .byte   W06
 .byte   Gn4
 .byte   W06
 .byte   En4
 .byte   W06
 .byte   An4
 .byte   W06
 .byte   Gn4
 .byte   W06
 .byte   En4
 .byte   W06
 .byte   An4
 .byte   W06
 .byte   Gn4
 .byte   W06
 .byte   En4
 .byte   W06
 .byte   N08 ,Gn4
 .byte   W12
 .byte   An4
 .byte   W12
 .byte   PEND 
@ 047   ----------------------------------------
Label_12_012872F3:
 .byte   N08 ,Dn4 ,v076
 .byte   N08 ,Gn4
 .byte   W12
 .byte   N12
 .byte   N12 ,Dn5
 .byte   W18
 .byte   N08 ,Gn4
 .byte   N08 ,Dn5
 .byte   W12
 .byte   N04 ,Gn4
 .byte   N04 ,Bn4
 .byte   W06
 .byte   N08 ,Gn4
 .byte   N08 ,Dn5
 .byte   W12
 .byte   N04 ,Gn4
 .byte   N04 ,Bn4
 .byte   W06
 .byte   N08 ,Gn4
 .byte   N08 ,Dn5
 .byte   W12
 .byte   N04 ,Gn4
 .byte   N04 ,Bn4
 .byte   W06
 .byte   Gn4
 .byte   N04 ,Bn4
 .byte   W06
 .byte   Gn4
 .byte   N04 ,Dn5
 .byte   W06
 .byte   PEND 
@ 048   ----------------------------------------
Label_12_01287324:
 .byte   VOL , 40*song0166_mvl/mxv
 .byte   N90 ,Bn4 ,v076
 .byte   N90 ,En5
 .byte   W02
 .byte   VOL , 39*song0166_mvl/mxv
 .byte   W03
 .byte   Fs4
 .byte   W03
 .byte   Fs4
 .byte   W02
 .byte   Fn4
 .byte   W03
 .byte   En4
 .byte   W03
 .byte   En4
 .byte   W02
 .byte   Ds4
 .byte   W03
 .byte   Dn4
 .byte   W03
 .byte   Dn4
 .byte   W02
 .byte   Cs4
 .byte   W03
 .byte   Cs4
 .byte   W03
 .byte   Cn4
 .byte   W02
 .byte   Bn3
 .byte   W03
 .byte   Bn3
 .byte   W03
 .byte   As3
 .byte   W02
 .byte   An3
 .byte   W03
 .byte   An3
 .byte   W03
 .byte   Gs3
 .byte   W01
 .byte   Gn3
 .byte   W01
 .byte   Fs3
 .byte   W01
 .byte   Fs3
 .byte   W01
 .byte   Fn3
 .byte   W01
 .byte   En3
 .byte   W01
 .byte   En3
 .byte   W01
 .byte   Ds3
 .byte   W01
 .byte   Dn3
 .byte   W01
 .byte   Dn3
 .byte   W01
 .byte   Cs3
 .byte   W01
 .byte   Cs3
 .byte   W01
 .byte   Cn3
 .byte   W01
 .byte   Bn2
 .byte   W01
 .byte   Bn2
 .byte   W01
 .byte   As2
 .byte   W01
 .byte   An2
 .byte   W01
 .byte   An2
 .byte   W01
 .byte   Gs2
 .byte   W01
 .byte   Gs2
 .byte   W01
 .byte   Gn2
 .byte   W01
 .byte   Fs2
 .byte   W01
 .byte   Fs2
 .byte   W01
 .byte   Fn2
 .byte   W01
 .byte   En2
 .byte   W01
 .byte   En2
 .byte   W01
 .byte   Ds2
 .byte   W01
 .byte   Ds2
 .byte   W01
 .byte   Dn2
 .byte   W01
 .byte   Cs2
 .byte   W01
 .byte   Cs2
 .byte   W01
 .byte   Cn2
 .byte   W01
 .byte   Bn1
 .byte   W01
 .byte   Bn1
 .byte   W01
 .byte   As1
 .byte   W01
 .byte   An1
 .byte   W01
 .byte   Fs1
 .byte   W01
 .byte   Dn1
 .byte   W01
 .byte   As0
 .byte   W01
 .byte   Fs0
 .byte   W01
 .byte   Ds0
 .byte   W01
 .byte   BnM1
 .byte   W01
 .byte   GnM1
 .byte   W01
 .byte   DsM1
 .byte   W01
 .byte   BnM2
 .byte   W01
 .byte   GsM2
 .byte   W01
 .byte   EnM2
 .byte   W01
 .byte   CsM2
 .byte   W01
 .byte   PEND 
@ 049   ----------------------------------------
 .byte   CnM2
 .byte   W96
@ 050   ----------------------------------------
 .byte   Gs4
 .byte   W96
@ 051   ----------------------------------------
 .byte   W96
@ 052   ----------------------------------------
 .byte   W96
@ 053   ----------------------------------------
 .byte   W96
@ 054   ----------------------------------------
 .byte   W96
@ 055   ----------------------------------------
 .byte   W96
@ 056   ----------------------------------------
 .byte   W96
@ 057   ----------------------------------------
 .byte   W96
@ 058   ----------------------------------------
 .byte   W96
@ 059   ----------------------------------------
 .byte   W96
@ 060   ----------------------------------------
 .byte   W96
@ 061   ----------------------------------------
 .byte   W96
@ 062   ----------------------------------------
 .byte   W96
@ 063   ----------------------------------------
 .byte   W96
@ 064   ----------------------------------------
 .byte   W96
@ 065   ----------------------------------------
 .byte   W96
@ 066   ----------------------------------------
 .byte   W96
@ 067   ----------------------------------------
 .byte   W96
@ 068   ----------------------------------------
Label_12_012873C5:
 .byte   W06
 .byte   N04 ,Bn2 ,v076
 .byte   W06
 .byte   Dn3
 .byte   W06
 .byte   Fs3
 .byte   W06
 .byte   Dn3
 .byte   W06
 .byte   N04
 .byte   W06
 .byte   Gn3
 .byte   W06
 .byte   Bn3
 .byte   W06
 .byte   Gn3
 .byte   W06
 .byte   N04
 .byte   W06
 .byte   Bn3
 .byte   W06
 .byte   Dn4
 .byte   W06
 .byte   Bn3
 .byte   W06
 .byte   N04
 .byte   W06
 .byte   Dn4
 .byte   W06
 .byte   Gn4
 .byte   W06
 .byte   PEND 
@ 069   ----------------------------------------
Label_12_012873E7:
 .byte   N04 ,As4 ,v076
 .byte   W06
 .byte   N04
 .byte   W06
 .byte   Fs4
 .byte   W06
 .byte   Cs4
 .byte   W06
 .byte   Fs4
 .byte   W06
 .byte   N04
 .byte   W06
 .byte   Cs4
 .byte   W06
 .byte   As3
 .byte   W06
 .byte   Cs4
 .byte   W06
 .byte   As3
 .byte   W06
 .byte   N04
 .byte   W06
 .byte   Fs3
 .byte   W06
 .byte   N04
 .byte   W06
 .byte   Cs3
 .byte   W06
 .byte   N04
 .byte   W06
 .byte   As2
 .byte   W06
 .byte   PEND 
@ 070   ----------------------------------------
Label_12_0128740A:
 .byte   W06
 .byte   N04 ,Cn3 ,v076
 .byte   W06
 .byte   En3
 .byte   W06
 .byte   An3
 .byte   W06
 .byte   En3
 .byte   W06
 .byte   N04
 .byte   W06
 .byte   An3
 .byte   W06
 .byte   Cn4
 .byte   W06
 .byte   An3
 .byte   W06
 .byte   N04
 .byte   W06
 .byte   Cn4
 .byte   W06
 .byte   En4
 .byte   W06
 .byte   Cn4
 .byte   W06
 .byte   N04
 .byte   W06
 .byte   En4
 .byte   W06
 .byte   An4
 .byte   W06
 .byte   PEND 
@ 071   ----------------------------------------
Label_12_0128742C:
 .byte   N04 ,Gn4 ,v076
 .byte   W06
 .byte   N04
 .byte   W06
 .byte   En4
 .byte   W06
 .byte   Bn3
 .byte   W06
 .byte   N04
 .byte   W06
 .byte   N04
 .byte   W06
 .byte   Gn3
 .byte   W06
 .byte   En3
 .byte   W06
 .byte   N04
 .byte   W06
 .byte   Gn3
 .byte   W06
 .byte   En3
 .byte   W06
 .byte   Bn2
 .byte   W06
 .byte   N04
 .byte   W06
 .byte   En3
 .byte   W06
 .byte   Bn2
 .byte   W06
 .byte   Gn2
 .byte   W06
 .byte   PEND 
@ 072   ----------------------------------------
 .byte   PATT
  .word Label_12_012873C5
@ 073   ----------------------------------------
 .byte   PATT
  .word Label_12_012873E7
@ 074   ----------------------------------------
 .byte   PATT
  .word Label_12_0128740A
@ 075   ----------------------------------------
 .byte   PATT
  .word Label_12_0128742C
@ 076   ----------------------------------------
 .byte   W96
@ 077   ----------------------------------------
 .byte   W96
@ 078   ----------------------------------------
 .byte   W96
@ 079   ----------------------------------------
 .byte   W96
@ 080   ----------------------------------------
 .byte   W96
@ 081   ----------------------------------------
 .byte   W96
@ 082   ----------------------------------------
 .byte   W96
@ 083   ----------------------------------------
 .byte   W96
@ 084   ----------------------------------------
 .byte   VOICE , 62
 .byte   W96
@ 085   ----------------------------------------
 .byte   W96
@ 086   ----------------------------------------
 .byte   W96
@ 087   ----------------------------------------
 .byte   W96
@ 088   ----------------------------------------
 .byte   W96
@ 089   ----------------------------------------
 .byte   W96
@ 090   ----------------------------------------
 .byte   W96
@ 091   ----------------------------------------
 .byte   W96
@ 092   ----------------------------------------
 .byte   W96
@ 093   ----------------------------------------
 .byte   W96
@ 094   ----------------------------------------
 .byte   W96
@ 095   ----------------------------------------
 .byte   W96
@ 096   ----------------------------------------
 .byte   W96
@ 097   ----------------------------------------
 .byte   W96
@ 098   ----------------------------------------
 .byte   W96
@ 099   ----------------------------------------
 .byte   W96
@ 100   ----------------------------------------
 .byte   PATT
  .word Label_12_012870B0
@ 101   ----------------------------------------
 .byte   PATT
  .word Label_12_012870D3
@ 102   ----------------------------------------
 .byte   PATT
  .word Label_12_012870B0
@ 103   ----------------------------------------
 .byte   PATT
  .word Label_12_012870F6
@ 104   ----------------------------------------
 .byte   PATT
  .word Label_12_012870B0
@ 105   ----------------------------------------
 .byte   PATT
  .word Label_12_012870D3
@ 106   ----------------------------------------
 .byte   PATT
  .word Label_12_012870B0
@ 107   ----------------------------------------
 .byte   PATT
  .word Label_12_01287124
@ 108   ----------------------------------------
 .byte   PATT
  .word Label_12_012870B0
@ 109   ----------------------------------------
 .byte   PATT
  .word Label_12_012870D3
@ 110   ----------------------------------------
 .byte   PATT
  .word Label_12_012870B0
@ 111   ----------------------------------------
 .byte   PATT
  .word Label_12_012870F6
@ 112   ----------------------------------------
 .byte   PATT
  .word Label_12_012870B0
@ 113   ----------------------------------------
 .byte   PATT
  .word Label_12_012870D3
@ 114   ----------------------------------------
 .byte   PATT
  .word Label_12_012870B0
@ 115   ----------------------------------------
 .byte   PATT
  .word Label_12_01287124
@ 116   ----------------------------------------
 .byte   PATT
  .word Label_12_0128716B
@ 117   ----------------------------------------
 .byte   PATT
  .word Label_12_0128718D
@ 118   ----------------------------------------
 .byte   PATT
  .word Label_12_012871AF
@ 119   ----------------------------------------
 .byte   PATT
  .word Label_12_012871D1
@ 120   ----------------------------------------
 .byte   PATT
  .word Label_12_0128716B
@ 121   ----------------------------------------
 .byte   PATT
  .word Label_12_0128718D
@ 122   ----------------------------------------
 .byte   PATT
  .word Label_12_012871AF
@ 123   ----------------------------------------
 .byte   PATT
  .word Label_12_01287200
@ 124   ----------------------------------------
 .byte   PATT
  .word Label_12_01287243
@ 125   ----------------------------------------
 .byte   PATT
  .word Label_12_01287263
@ 126   ----------------------------------------
 .byte   PATT
  .word Label_12_01287274
@ 127   ----------------------------------------
 .byte   PATT
  .word Label_12_01287287
@ 128   ----------------------------------------
 .byte   PATT
  .word Label_12_01287291
@ 129   ----------------------------------------
 .byte   PATT
  .word Label_12_012872B4
@ 130   ----------------------------------------
 .byte   PATT
  .word Label_12_012872D3
@ 131   ----------------------------------------
 .byte   PATT
  .word Label_12_012872F3
@ 132   ----------------------------------------
 .byte   PATT
  .word Label_12_01287324
@ 133   ----------------------------------------
 .byte   VOL , 0*song0166_mvl/mxv
 .byte   W96
@ 134   ----------------------------------------
 .byte   Gs4
 .byte   W96
@ 135   ----------------------------------------
 .byte   W96
@ 136   ----------------------------------------
 .byte   W96
@ 137   ----------------------------------------
 .byte   W96
@ 138   ----------------------------------------
 .byte   W96
@ 139   ----------------------------------------
 .byte   W96
@ 140   ----------------------------------------
 .byte   W96
@ 141   ----------------------------------------
 .byte   W96
@ 142   ----------------------------------------
 .byte   W96
@ 143   ----------------------------------------
 .byte   W96
@ 144   ----------------------------------------
 .byte   W96
@ 145   ----------------------------------------
 .byte   W96
@ 146   ----------------------------------------
 .byte   W96
@ 147   ----------------------------------------
 .byte   W96
@ 148   ----------------------------------------
 .byte   W96
@ 149   ----------------------------------------
 .byte   W96
@ 150   ----------------------------------------
 .byte   W96
@ 151   ----------------------------------------
 .byte   W96
@ 152   ----------------------------------------
 .byte   PATT
  .word Label_12_012873C5
@ 153   ----------------------------------------
 .byte   PATT
  .word Label_12_012873E7
@ 154   ----------------------------------------
 .byte   PATT
  .word Label_12_0128740A
@ 155   ----------------------------------------
 .byte   PATT
  .word Label_12_0128742C
@ 156   ----------------------------------------
 .byte   PATT
  .word Label_12_012873C5
@ 157   ----------------------------------------
 .byte   PATT
  .word Label_12_012873E7
@ 158   ----------------------------------------
 .byte   PATT
  .word Label_12_0128740A
@ 159   ----------------------------------------
 .byte   PATT
  .word Label_12_0128742C
@ 160   ----------------------------------------
 .byte   W96
@ 161   ----------------------------------------
 .byte   W96
@ 162   ----------------------------------------
 .byte   W96
@ 163   ----------------------------------------
 .byte   W96
@ 164   ----------------------------------------
 .byte   W96
@ 165   ----------------------------------------
 .byte   W96
@ 166   ----------------------------------------
 .byte   W96
@ 167   ----------------------------------------
 .byte   W92
 .byte   W03
 .byte   GOTO
  .word Label_12_0128709A
 .byte   FINE

@******************************************************@
	.align	2

song0166:
	.byte	13	@ NumTrks
	.byte	0	@ NumBlks
	.byte	song0166_pri	@ Priority
	.byte	song0166_rev	@ Reverb.
    
	.word	song0166_grp
    
	.word	song0166_001
	.word	song0166_002
	.word	song0166_003
	.word	song0166_004
	.word	song0166_005
	.word	song0166_006
	.word	song0166_007
	.word	song0166_008
	.word	song0166_009
	.word	song0166_010
	.word	song0166_011
	.word	song0166_012
	.word	song0166_013

	.end
