	.include "MPlayDef.s"

	.equ	song09_grp, voicegroup000
	.equ	song09_pri, 0
	.equ	song09_rev, 0
	.equ	song09_mvl, 127
	.equ	song09_key, 0
	.equ	song09_tbs, 1
	.equ	song09_exg, 0
	.equ	song09_cmp, 1

	.section .rodata
	.global	song09
	.align	2


@**************** Track 1 (Midi-Chn.0) ****************@

song09_001:
@  #01 @000   ----------------------------------------
 .byte   KEYSH , song09_key+0
 .byte   TEMPO , 150*song09_tbs/2
 .byte   VOICE , 47
 .byte   MODT 0
 .byte   LFOS 44
 .byte   VOL , 56*song09_mvl/mxv
 .byte   MODT 0
 .byte   LFOS 44
 .byte   N12 ,Gs2 ,v072
 .byte   N12 ,An2
 .byte   W72
 .byte   Gs2
 .byte   N12 ,An2
 .byte   W18
 .byte   Gs2
 .byte   N12 ,An2
 .byte   W06
@  #01 @001   ----------------------------------------
 .byte   W96
@  #01 @002   ----------------------------------------
Label_01237EBF:
 .byte   N12 ,Gs2 ,v072
 .byte   N12 ,An2
 .byte   W48
 .byte   Gs2
 .byte   N12 ,An2
 .byte   W48
 .byte   PEND 
@  #01 @003   ----------------------------------------
 .byte   Gs2
 .byte   N12 ,An2
 .byte   W24
 .byte   Gs2 ,v016
 .byte   N12 ,An2
 .byte   W24
 .byte   Gs2 ,v036
 .byte   N12 ,An2
 .byte   W24
 .byte   Gs2 ,v072
 .byte   N12 ,An2
 .byte   W24
@  #01 @004   ----------------------------------------
Label_01237EDD:
 .byte   TEMPO , 150*song09_tbs/2
 .byte   N12 ,Gs2 ,v036
 .byte   N12 ,An2
 .byte   W96
 .byte   PEND 
@  #01 @005   ----------------------------------------
 .byte   Gs2
 .byte   N12 ,An2
 .byte   W96
@  #01 @006   ----------------------------------------
 .byte   Gs2
 .byte   N12 ,An2
 .byte   W96
@  #01 @007   ----------------------------------------
 .byte   Gs2
 .byte   N12 ,An2
 .byte   W96
@  #01 @008   ----------------------------------------
 .byte   Gs2
 .byte   N12 ,An2
 .byte   W96
@  #01 @009   ----------------------------------------
 .byte   Gs2
 .byte   N12 ,An2
 .byte   W96
@  #01 @010   ----------------------------------------
 .byte   Gs2
 .byte   N12 ,An2
 .byte   W96
@  #01 @011   ----------------------------------------
 .byte   Gs2
 .byte   N12 ,An2
 .byte   W96
@  #01 @012   ----------------------------------------
 .byte   Gs2
 .byte   N12 ,An2
 .byte   W96
@  #01 @013   ----------------------------------------
 .byte   W96
@  #01 @014   ----------------------------------------
 .byte   W96
@  #01 @015   ----------------------------------------
 .byte   W96
@  #01 @016   ----------------------------------------
 .byte   W96
@  #01 @017   ----------------------------------------
 .byte   W96
@  #01 @018   ----------------------------------------
 .byte   W96
@  #01 @019   ----------------------------------------
 .byte   W96
@  #01 @020   ----------------------------------------
Label_01237F0D:
 .byte   N12 ,Gs2 ,v072
 .byte   N12 ,An2
 .byte   W96
@  #01 @021   ----------------------------------------
 .byte   Gs2
 .byte   N12 ,An2
 .byte   W96
@  #01 @022   ----------------------------------------
 .byte   Gs2
 .byte   N12 ,An2
 .byte   W96
@  #01 @023   ----------------------------------------
 .byte   Gs2
 .byte   N12 ,An2
 .byte   W96
@  #01 @024   ----------------------------------------
 .byte   W96
@  #01 @025   ----------------------------------------
 .byte   W96
@  #01 @026   ----------------------------------------
 .byte   W96
@  #01 @027   ----------------------------------------
 .byte   PATT
  .word Label_01237EBF
@  #01 @028   ----------------------------------------
 .byte   PATT
  .word Label_01237EBF
@  #01 @029   ----------------------------------------
 .byte   PATT
  .word Label_01237EBF
@  #01 @030   ----------------------------------------
 .byte   PATT
  .word Label_01237EBF
@  #01 @031   ----------------------------------------
 .byte   PATT
  .word Label_01237EBF
@  #01 @032   ----------------------------------------
 .byte   PATT
  .word Label_01237EBF
@  #01 @033   ----------------------------------------
 .byte   PATT
  .word Label_01237EBF
@  #01 @034   ----------------------------------------
 .byte   PATT
  .word Label_01237EBF
@  #01 @035   ----------------------------------------
 .byte   TEMPO , 150*song09_tbs/2
 .byte   W96
@  #01 @036   ----------------------------------------
 .byte   W96
@  #01 @037   ----------------------------------------
 .byte   W96
@  #01 @038   ----------------------------------------
 .byte   W96
@  #01 @039   ----------------------------------------
 .byte   W96
@  #01 @040   ----------------------------------------
 .byte   W96
@  #01 @041   ----------------------------------------
 .byte   W96
@  #01 @042   ----------------------------------------
 .byte   W96
@  #01 @043   ----------------------------------------
 .byte   W96
@  #01 @044   ----------------------------------------
 .byte   W96
@  #01 @045   ----------------------------------------
 .byte   W96
@  #01 @046   ----------------------------------------
 .byte   W96
@  #01 @047   ----------------------------------------
 .byte   W96
@  #01 @048   ----------------------------------------
 .byte   W96
@  #01 @049   ----------------------------------------
 .byte   W96
@  #01 @050   ----------------------------------------
 .byte   W96
@  #01 @051   ----------------------------------------
 .byte   N12 ,Gs2 ,v072
 .byte   N12 ,An2
 .byte   W96
@  #01 @052   ----------------------------------------
 .byte   Gs2
 .byte   N12 ,An2
 .byte   W96
@  #01 @053   ----------------------------------------
 .byte   Gs2
 .byte   N12 ,An2
 .byte   W96
@  #01 @054   ----------------------------------------
 .byte   W96
@  #01 @055   ----------------------------------------
 .byte   Gs2
 .byte   N12 ,An2
 .byte   W96
@  #01 @056   ----------------------------------------
 .byte   Gs2
 .byte   N12 ,An2
 .byte   W96
@  #01 @057   ----------------------------------------
 .byte   Gs2
 .byte   N12 ,An2
 .byte   W96
@  #01 @058   ----------------------------------------
 .byte   W96
@  #01 @059   ----------------------------------------
 .byte   Gs2
 .byte   N12 ,An2
 .byte   W96
@  #01 @060   ----------------------------------------
 .byte   Gs2
 .byte   N12 ,An2
 .byte   W96
@  #01 @061   ----------------------------------------
 .byte   Gs2
 .byte   N12 ,An2
 .byte   W96
@  #01 @062   ----------------------------------------
 .byte   W96
@  #01 @063   ----------------------------------------
 .byte   Gs2
 .byte   N12 ,An2
 .byte   W96
@  #01 @064   ----------------------------------------
 .byte   Gs2
 .byte   N12 ,An2
 .byte   W96
@  #01 @065   ----------------------------------------
 .byte   Gs2
 .byte   N12 ,An2
 .byte   W96
@  #01 @066   ----------------------------------------
 .byte   W96
@  #01 @067   ----------------------------------------
 .byte   PATT
  .word Label_01237EBF
@  #01 @068   ----------------------------------------
 .byte   PATT
  .word Label_01237EBF
@  #01 @069   ----------------------------------------
 .byte   PATT
  .word Label_01237EBF
@  #01 @070   ----------------------------------------
Label_01237FA1:
 .byte   N12 ,Gs2 ,v072
 .byte   N12 ,An2
 .byte   W48
 .byte   Gs2
 .byte   N12 ,An2
 .byte   W44
 .byte   W03
 .byte   TEMPO , 150*song09_tbs/2
 .byte   W01
 .byte   PEND 
@  #01 @071   ----------------------------------------
 .byte   PATT
  .word Label_01237EBF
@  #01 @072   ----------------------------------------
 .byte   PATT
  .word Label_01237EBF
@  #01 @073   ----------------------------------------
 .byte   PATT
  .word Label_01237EBF
@  #01 @074   ----------------------------------------
 .byte   PATT
  .word Label_01237FA1
@  #01 @075   ----------------------------------------
 .byte   N12 ,Gs2 ,v036
 .byte   N12 ,An2
 .byte   W96
@  #01 @076   ----------------------------------------
 .byte   Gs2
 .byte   N12 ,An2
 .byte   W96
@  #01 @077   ----------------------------------------
 .byte   Gs2
 .byte   N12 ,An2
 .byte   W96
@  #01 @078   ----------------------------------------
 .byte   Gs2
 .byte   N12 ,An2
 .byte   W96
@  #01 @079   ----------------------------------------
 .byte   Gs2
 .byte   N12 ,An2
 .byte   W96
@  #01 @080   ----------------------------------------
 .byte   Gs2
 .byte   N12 ,An2
 .byte   W96
@  #01 @081   ----------------------------------------
 .byte   Gs2
 .byte   N12 ,An2
 .byte   W96
@  #01 @082   ----------------------------------------
 .byte   Gs2
 .byte   N12 ,An2
 .byte   W96
@  #01 @083   ----------------------------------------
 .byte   Gs2
 .byte   N12 ,An2
 .byte   W96
@  #01 @084   ----------------------------------------
 .byte   W96
@  #01 @085   ----------------------------------------
 .byte   W96
@  #01 @086   ----------------------------------------
 .byte   W96
@  #01 @087   ----------------------------------------
 .byte   W96
@  #01 @088   ----------------------------------------
 .byte   W96
@  #01 @089   ----------------------------------------
 .byte   W96
@  #01 @090   ----------------------------------------
 .byte   W96
@  #01 @091   ----------------------------------------
 .byte   Gs2 ,v072
 .byte   N12 ,An2
 .byte   W96
@  #01 @092   ----------------------------------------
 .byte   Gs2
 .byte   N12 ,An2
 .byte   W96
@  #01 @093   ----------------------------------------
 .byte   Gs2
 .byte   N12 ,An2
 .byte   W96
@  #01 @094   ----------------------------------------
 .byte   Gs2
 .byte   N12 ,An2
 .byte   W96
@  #01 @095   ----------------------------------------
 .byte   W96
@  #01 @096   ----------------------------------------
 .byte   W96
@  #01 @097   ----------------------------------------
 .byte   W96
@  #01 @098   ----------------------------------------
 .byte   PATT
  .word Label_01237EBF
@  #01 @099   ----------------------------------------
 .byte   PATT
  .word Label_01237EBF
@  #01 @100   ----------------------------------------
 .byte   PATT
  .word Label_01237EBF
@  #01 @101   ----------------------------------------
 .byte   PATT
  .word Label_01237EBF
@  #01 @102   ----------------------------------------
 .byte   PATT
  .word Label_01237EBF
@  #01 @103   ----------------------------------------
 .byte   PATT
  .word Label_01237EBF
@  #01 @104   ----------------------------------------
 .byte   PATT
  .word Label_01237EBF
@  #01 @105   ----------------------------------------
 .byte   PATT
  .word Label_01237EBF
@  #01 @106   ----------------------------------------
 .byte   W96
@  #01 @107   ----------------------------------------
 .byte   W96
@  #01 @108   ----------------------------------------
 .byte   W96
@  #01 @109   ----------------------------------------
 .byte   W96
@  #01 @110   ----------------------------------------
 .byte   W96
@  #01 @111   ----------------------------------------
 .byte   W96
@  #01 @112   ----------------------------------------
 .byte   W96
@  #01 @113   ----------------------------------------
 .byte   W96
@  #01 @114   ----------------------------------------
 .byte   W96
@  #01 @115   ----------------------------------------
 .byte   W96
@  #01 @116   ----------------------------------------
 .byte   W96
@  #01 @117   ----------------------------------------
 .byte   W96
@  #01 @118   ----------------------------------------
 .byte   W96
@  #01 @119   ----------------------------------------
 .byte   W96
@  #01 @120   ----------------------------------------
 .byte   W96
@  #01 @121   ----------------------------------------
 .byte   W96
@  #01 @122   ----------------------------------------
 .byte   N12 ,Gs2 ,v072
 .byte   N12 ,An2
 .byte   W96
@  #01 @123   ----------------------------------------
 .byte   Gs2
 .byte   N12 ,An2
 .byte   W96
@  #01 @124   ----------------------------------------
 .byte   Gs2
 .byte   N12 ,An2
 .byte   W96
@  #01 @125   ----------------------------------------
 .byte   W96
@  #01 @126   ----------------------------------------
 .byte   Gs2
 .byte   N12 ,An2
 .byte   W96
@  #01 @127   ----------------------------------------
 .byte   Gs2
 .byte   N12 ,An2
 .byte   W96
@  #01 @128   ----------------------------------------
 .byte   Gs2
 .byte   N12 ,An2
 .byte   W96
@  #01 @129   ----------------------------------------
 .byte   W96
@  #01 @130   ----------------------------------------
 .byte   Gs2
 .byte   N12 ,An2
 .byte   W96
@  #01 @131   ----------------------------------------
 .byte   Gs2
 .byte   N12 ,An2
 .byte   W96
@  #01 @132   ----------------------------------------
 .byte   Gs2
 .byte   N12 ,An2
 .byte   W96
@  #01 @133   ----------------------------------------
 .byte   W96
@  #01 @134   ----------------------------------------
 .byte   Gs2
 .byte   N12 ,An2
 .byte   W96
@  #01 @135   ----------------------------------------
 .byte   Gs2
 .byte   N12 ,An2
 .byte   W96
@  #01 @136   ----------------------------------------
 .byte   Gs2
 .byte   N12 ,An2
 .byte   W96
@  #01 @137   ----------------------------------------
 .byte   W96
@  #01 @138   ----------------------------------------
 .byte   PATT
  .word Label_01237EBF
@  #01 @139   ----------------------------------------
 .byte   PATT
  .word Label_01237EBF
@  #01 @140   ----------------------------------------
 .byte   PATT
  .word Label_01237EBF
@  #01 @141   ----------------------------------------
 .byte   PATT
  .word Label_01237EBF
@  #01 @142   ----------------------------------------
 .byte   TEMPO , 150*song09_tbs/2
 .byte   N12 ,Gs2 ,v072
 .byte   N12 ,An2
 .byte   W48
 .byte   Gs2
 .byte   N12 ,An2
 .byte   W48
@  #01 @143   ----------------------------------------
 .byte   PATT
  .word Label_01237EBF
@  #01 @144   ----------------------------------------
 .byte   PATT
  .word Label_01237EBF
@  #01 @145   ----------------------------------------
 .byte   PATT
  .word Label_01237EBF
@  #01 @146   ----------------------------------------
 .byte   PATT
  .word Label_01237EDD
@  #01 @147   ----------------------------------------
 .byte   N12 ,Gs2 ,v036
 .byte   N12 ,An2
 .byte   W96
@  #01 @148   ----------------------------------------
 .byte   Gs2
 .byte   N12 ,An2
 .byte   W96
@  #01 @149   ----------------------------------------
 .byte   Gs2
 .byte   N12 ,An2
 .byte   W96
@  #01 @150   ----------------------------------------
 .byte   Gs2
 .byte   N12 ,An2
 .byte   W96
@  #01 @151   ----------------------------------------
 .byte   Gs2
 .byte   N12 ,An2
 .byte   W96
@  #01 @152   ----------------------------------------
 .byte   Gs2
 .byte   N12 ,An2
 .byte   W96
@  #01 @153   ----------------------------------------
 .byte   Gs2
 .byte   N12 ,An2
 .byte   W96
@  #01 @154   ----------------------------------------
 .byte   Gs2
 .byte   N12 ,An2
 .byte   W96
@  #01 @155   ----------------------------------------
 .byte   W96
@  #01 @156   ----------------------------------------
 .byte   W96
@  #01 @157   ----------------------------------------
 .byte   W96
@  #01 @158   ----------------------------------------
 .byte   W96
@  #01 @159   ----------------------------------------
 .byte   W96
@  #01 @160   ----------------------------------------
 .byte   W96
@  #01 @161   ----------------------------------------
 .byte   W96
@  #01 @162   ----------------------------------------
 .byte   GOTO
  .word Label_01237F0D
@  #01 @163   ----------------------------------------
 .byte   N12 ,Gs2 ,v072
 .byte   N12 ,An2
 .byte   W96
@  #01 @164   ----------------------------------------
 .byte   Gs2
 .byte   N12 ,An2
 .byte   W96
@  #01 @165   ----------------------------------------
 .byte   Gs2
 .byte   N12 ,An2
 .byte   W12
 .byte   FINE

@**************** Track 2 (Midi-Chn.1) ****************@

song09_002:
@  #02 @000   ----------------------------------------
 .byte   KEYSH , song09_key+0
 .byte   VOICE , 117
 .byte   MODT 0
 .byte   LFOS 44
 .byte   VOL , 56*song09_mvl/mxv
 .byte   MODT 0
 .byte   LFOS 44
 .byte   W96
@  #02 @001   ----------------------------------------
 .byte   W96
@  #02 @002   ----------------------------------------
 .byte   W96
@  #02 @003   ----------------------------------------
 .byte   W96
@  #02 @004   ----------------------------------------
Label_013DACF6:
 .byte   N06 ,Cs2 ,v072
 .byte   W24
 .byte   N06
 .byte   W24
 .byte   N06
 .byte   W24
 .byte   N06
 .byte   W24
 .byte   PEND 
@  #02 @005   ----------------------------------------
 .byte   PATT
  .word Label_013DACF6
@  #02 @006   ----------------------------------------
 .byte   PATT
  .word Label_013DACF6
@  #02 @007   ----------------------------------------
Label_013DAD0B:
 .byte   N06 ,Cs2 ,v072
 .byte   W24
 .byte   N06
 .byte   W24
 .byte   N06
 .byte   W24
 .byte   N06
 .byte   W12
 .byte   N06
 .byte   W06
 .byte   N06
 .byte   W06
 .byte   PEND 
@  #02 @008   ----------------------------------------
 .byte   PATT
  .word Label_013DACF6
@  #02 @009   ----------------------------------------
 .byte   PATT
  .word Label_013DACF6
@  #02 @010   ----------------------------------------
 .byte   PATT
  .word Label_013DACF6
@  #02 @011   ----------------------------------------
Label_013DAD29:
 .byte   N06 ,Cs2 ,v072
 .byte   W24
 .byte   N06
 .byte   W24
 .byte   N06
 .byte   W24
 .byte   N06
 .byte   W12
 .byte   N06
 .byte   W12
 .byte   PEND 
@  #02 @012   ----------------------------------------
 .byte   PATT
  .word Label_013DACF6
@  #02 @013   ----------------------------------------
 .byte   PATT
  .word Label_013DACF6
@  #02 @014   ----------------------------------------
 .byte   PATT
  .word Label_013DACF6
@  #02 @015   ----------------------------------------
 .byte   PATT
  .word Label_013DAD0B
@  #02 @016   ----------------------------------------
 .byte   PATT
  .word Label_013DACF6
@  #02 @017   ----------------------------------------
 .byte   PATT
  .word Label_013DACF6
@  #02 @018   ----------------------------------------
 .byte   PATT
  .word Label_013DACF6
@  #02 @019   ----------------------------------------
Label_013DAD59:
 .byte   N06 ,Cs2 ,v072
 .byte   W24
 .byte   N06
 .byte   W24
 .byte   N06
 .byte   W12
 .byte   N06
 .byte   W12
 .byte   N06
 .byte   W12
 .byte   N06
 .byte   W06
 .byte   N06
 .byte   W06
 .byte   PEND 
@  #02 @020   ----------------------------------------
Label_013DAD6A:
@  #02 @021   ----------------------------------------
 .byte   PATT
  .word Label_013DACF6
@  #02 @022   ----------------------------------------
 .byte   PATT
  .word Label_013DACF6
@  #02 @023   ----------------------------------------
 .byte   PATT
  .word Label_013DACF6
@  #02 @024   ----------------------------------------
 .byte   PATT
  .word Label_013DAD0B
@  #02 @025   ----------------------------------------
 .byte   PATT
  .word Label_013DACF6
@  #02 @026   ----------------------------------------
 .byte   PATT
  .word Label_013DACF6
@  #02 @027   ----------------------------------------
 .byte   PATT
  .word Label_013DACF6
@  #02 @028   ----------------------------------------
 .byte   W96
@  #02 @029   ----------------------------------------
 .byte   W96
@  #02 @030   ----------------------------------------
 .byte   W96
@  #02 @031   ----------------------------------------
Label_013DAD90:
 .byte   W72
 .byte   N06 ,Cs2 ,v072
 .byte   W12
 .byte   N06
 .byte   W12
 .byte   PEND 
@  #02 @032   ----------------------------------------
 .byte   PATT
  .word Label_013DACF6
@  #02 @033   ----------------------------------------
 .byte   PATT
  .word Label_013DACF6
@  #02 @034   ----------------------------------------
 .byte   PATT
  .word Label_013DACF6
@  #02 @035   ----------------------------------------
Label_013DADA7:
 .byte   N06 ,Cs2 ,v072
 .byte   W24
 .byte   N06
 .byte   W24
 .byte   N06
 .byte   W12
 .byte   N06
 .byte   W12
 .byte   N06
 .byte   W06
 .byte   N06
 .byte   W06
 .byte   N06
 .byte   W06
 .byte   N06
 .byte   W06
 .byte   PEND 
@  #02 @036   ----------------------------------------
 .byte   W96
@  #02 @037   ----------------------------------------
 .byte   W96
@  #02 @038   ----------------------------------------
 .byte   W96
@  #02 @039   ----------------------------------------
 .byte   W96
@  #02 @040   ----------------------------------------
 .byte   W96
@  #02 @041   ----------------------------------------
 .byte   W96
@  #02 @042   ----------------------------------------
 .byte   W96
@  #02 @043   ----------------------------------------
 .byte   W96
@  #02 @044   ----------------------------------------
 .byte   W96
@  #02 @045   ----------------------------------------
 .byte   W96
@  #02 @046   ----------------------------------------
 .byte   W96
@  #02 @047   ----------------------------------------
 .byte   W96
@  #02 @048   ----------------------------------------
 .byte   W96
@  #02 @049   ----------------------------------------
 .byte   W96
@  #02 @050   ----------------------------------------
 .byte   W96
@  #02 @051   ----------------------------------------
Label_013DADC9:
 .byte   W48
 .byte   N06 ,Cs2 ,v072
 .byte   W12
 .byte   N06
 .byte   W12
 .byte   N06
 .byte   W12
 .byte   N06
 .byte   W12
 .byte   PEND 
@  #02 @052   ----------------------------------------
 .byte   PATT
  .word Label_013DACF6
@  #02 @053   ----------------------------------------
 .byte   PATT
  .word Label_013DACF6
@  #02 @054   ----------------------------------------
 .byte   PATT
  .word Label_013DACF6
@  #02 @055   ----------------------------------------
 .byte   PATT
  .word Label_013DAD0B
@  #02 @056   ----------------------------------------
 .byte   PATT
  .word Label_013DACF6
@  #02 @057   ----------------------------------------
 .byte   PATT
  .word Label_013DACF6
@  #02 @058   ----------------------------------------
 .byte   PATT
  .word Label_013DACF6
@  #02 @059   ----------------------------------------
 .byte   PATT
  .word Label_013DAD0B
@  #02 @060   ----------------------------------------
 .byte   PATT
  .word Label_013DACF6
@  #02 @061   ----------------------------------------
 .byte   PATT
  .word Label_013DACF6
@  #02 @062   ----------------------------------------
 .byte   PATT
  .word Label_013DACF6
@  #02 @063   ----------------------------------------
 .byte   PATT
  .word Label_013DAD0B
@  #02 @064   ----------------------------------------
 .byte   PATT
  .word Label_013DACF6
@  #02 @065   ----------------------------------------
 .byte   PATT
  .word Label_013DACF6
@  #02 @066   ----------------------------------------
 .byte   PATT
  .word Label_013DACF6
@  #02 @067   ----------------------------------------
 .byte   PATT
  .word Label_013DAD0B
@  #02 @068   ----------------------------------------
 .byte   PATT
  .word Label_013DACF6
@  #02 @069   ----------------------------------------
 .byte   PATT
  .word Label_013DACF6
@  #02 @070   ----------------------------------------
 .byte   PATT
  .word Label_013DACF6
@  #02 @071   ----------------------------------------
Label_013DAE34:
 .byte   N06 ,Cs2 ,v072
 .byte   W24
 .byte   N06
 .byte   W24
 .byte   N06
 .byte   W24
 .byte   N06
 .byte   W06
 .byte   N06
 .byte   W06
 .byte   N06
 .byte   W06
 .byte   N06
 .byte   W06
 .byte   PEND 
@  #02 @072   ----------------------------------------
 .byte   PATT
  .word Label_013DACF6
@  #02 @073   ----------------------------------------
 .byte   PATT
  .word Label_013DACF6
@  #02 @074   ----------------------------------------
Label_013DAE4F:
 .byte   N06 ,Cs2 ,v072
 .byte   W06
 .byte   Cs2 ,v016
 .byte   W06
 .byte   N06
 .byte   W06
 .byte   N06
 .byte   W06
 .byte   Cs2 ,v072
 .byte   W06
 .byte   Cs2 ,v024
 .byte   W06
 .byte   N06
 .byte   W06
 .byte   N06
 .byte   W06
 .byte   Cs2 ,v072
 .byte   W06
 .byte   Cs2 ,v028
 .byte   W06
 .byte   N06
 .byte   W06
 .byte   N06
 .byte   W06
 .byte   Cs2 ,v072
 .byte   W06
 .byte   Cs2 ,v032
 .byte   W06
 .byte   N06
 .byte   W06
 .byte   N06
 .byte   W06
 .byte   PEND 
@  #02 @075   ----------------------------------------
Label_013DAE79:
 .byte   N06 ,Cs2 ,v072
 .byte   W06
 .byte   Cs2 ,v036
 .byte   W06
 .byte   N06
 .byte   W06
 .byte   N06
 .byte   W06
 .byte   Cs2 ,v072
 .byte   W06
 .byte   Cs2 ,v048
 .byte   W06
 .byte   N06
 .byte   W06
 .byte   N06
 .byte   W06
 .byte   Cs2 ,v072
 .byte   W06
 .byte   Cs2 ,v052
 .byte   W06
 .byte   N06
 .byte   W06
 .byte   N06
 .byte   W06
 .byte   Cs2 ,v072
 .byte   W06
 .byte   N06
 .byte   W06
 .byte   N06
 .byte   W06
 .byte   N06
 .byte   W06
 .byte   PEND 
@  #02 @076   ----------------------------------------
 .byte   PATT
  .word Label_013DACF6
@  #02 @077   ----------------------------------------
 .byte   PATT
  .word Label_013DACF6
@  #02 @078   ----------------------------------------
 .byte   PATT
  .word Label_013DACF6
@  #02 @079   ----------------------------------------
 .byte   PATT
  .word Label_013DAD0B
@  #02 @080   ----------------------------------------
 .byte   PATT
  .word Label_013DACF6
@  #02 @081   ----------------------------------------
 .byte   PATT
  .word Label_013DACF6
@  #02 @082   ----------------------------------------
 .byte   PATT
  .word Label_013DACF6
@  #02 @083   ----------------------------------------
 .byte   PATT
  .word Label_013DAD29
@  #02 @084   ----------------------------------------
 .byte   PATT
  .word Label_013DACF6
@  #02 @085   ----------------------------------------
 .byte   PATT
  .word Label_013DACF6
@  #02 @086   ----------------------------------------
 .byte   PATT
  .word Label_013DACF6
@  #02 @087   ----------------------------------------
 .byte   PATT
  .word Label_013DAD0B
@  #02 @088   ----------------------------------------
 .byte   PATT
  .word Label_013DACF6
@  #02 @089   ----------------------------------------
 .byte   PATT
  .word Label_013DACF6
@  #02 @090   ----------------------------------------
 .byte   PATT
  .word Label_013DACF6
@  #02 @091   ----------------------------------------
 .byte   PATT
  .word Label_013DAD59
@  #02 @092   ----------------------------------------
 .byte   PATT
  .word Label_013DACF6
@  #02 @093   ----------------------------------------
 .byte   PATT
  .word Label_013DACF6
@  #02 @094   ----------------------------------------
 .byte   PATT
  .word Label_013DACF6
@  #02 @095   ----------------------------------------
 .byte   PATT
  .word Label_013DAD0B
@  #02 @096   ----------------------------------------
 .byte   PATT
  .word Label_013DACF6
@  #02 @097   ----------------------------------------
 .byte   PATT
  .word Label_013DACF6
@  #02 @098   ----------------------------------------
 .byte   PATT
  .word Label_013DACF6
@  #02 @099   ----------------------------------------
 .byte   W96
@  #02 @100   ----------------------------------------
 .byte   W96
@  #02 @101   ----------------------------------------
 .byte   W96
@  #02 @102   ----------------------------------------
 .byte   PATT
  .word Label_013DAD90
@  #02 @103   ----------------------------------------
 .byte   PATT
  .word Label_013DACF6
@  #02 @104   ----------------------------------------
 .byte   PATT
  .word Label_013DACF6
@  #02 @105   ----------------------------------------
 .byte   PATT
  .word Label_013DACF6
@  #02 @106   ----------------------------------------
 .byte   PATT
  .word Label_013DADA7
@  #02 @107   ----------------------------------------
 .byte   W96
@  #02 @108   ----------------------------------------
 .byte   W96
@  #02 @109   ----------------------------------------
 .byte   W96
@  #02 @110   ----------------------------------------
 .byte   W96
@  #02 @111   ----------------------------------------
 .byte   W96
@  #02 @112   ----------------------------------------
 .byte   W96
@  #02 @113   ----------------------------------------
 .byte   W96
@  #02 @114   ----------------------------------------
 .byte   W96
@  #02 @115   ----------------------------------------
 .byte   W96
@  #02 @116   ----------------------------------------
 .byte   W96
@  #02 @117   ----------------------------------------
 .byte   W96
@  #02 @118   ----------------------------------------
 .byte   W96
@  #02 @119   ----------------------------------------
 .byte   W96
@  #02 @120   ----------------------------------------
 .byte   W96
@  #02 @121   ----------------------------------------
 .byte   W96
@  #02 @122   ----------------------------------------
 .byte   PATT
  .word Label_013DADC9
@  #02 @123   ----------------------------------------
 .byte   PATT
  .word Label_013DACF6
@  #02 @124   ----------------------------------------
 .byte   PATT
  .word Label_013DACF6
@  #02 @125   ----------------------------------------
 .byte   PATT
  .word Label_013DACF6
@  #02 @126   ----------------------------------------
 .byte   PATT
  .word Label_013DAD0B
@  #02 @127   ----------------------------------------
 .byte   PATT
  .word Label_013DACF6
@  #02 @128   ----------------------------------------
 .byte   PATT
  .word Label_013DACF6
@  #02 @129   ----------------------------------------
 .byte   PATT
  .word Label_013DACF6
@  #02 @130   ----------------------------------------
 .byte   PATT
  .word Label_013DAD0B
@  #02 @131   ----------------------------------------
 .byte   PATT
  .word Label_013DACF6
@  #02 @132   ----------------------------------------
 .byte   PATT
  .word Label_013DACF6
@  #02 @133   ----------------------------------------
 .byte   PATT
  .word Label_013DACF6
@  #02 @134   ----------------------------------------
 .byte   PATT
  .word Label_013DAD0B
@  #02 @135   ----------------------------------------
 .byte   PATT
  .word Label_013DACF6
@  #02 @136   ----------------------------------------
 .byte   PATT
  .word Label_013DACF6
@  #02 @137   ----------------------------------------
 .byte   PATT
  .word Label_013DACF6
@  #02 @138   ----------------------------------------
 .byte   PATT
  .word Label_013DAD0B
@  #02 @139   ----------------------------------------
 .byte   PATT
  .word Label_013DACF6
@  #02 @140   ----------------------------------------
 .byte   PATT
  .word Label_013DACF6
@  #02 @141   ----------------------------------------
 .byte   PATT
  .word Label_013DACF6
@  #02 @142   ----------------------------------------
 .byte   PATT
  .word Label_013DAE34
@  #02 @143   ----------------------------------------
 .byte   PATT
  .word Label_013DACF6
@  #02 @144   ----------------------------------------
 .byte   PATT
  .word Label_013DACF6
@  #02 @145   ----------------------------------------
 .byte   PATT
  .word Label_013DAE4F
@  #02 @146   ----------------------------------------
 .byte   PATT
  .word Label_013DAE79
@  #02 @147   ----------------------------------------
 .byte   PATT
  .word Label_013DACF6
@  #02 @148   ----------------------------------------
 .byte   PATT
  .word Label_013DACF6
@  #02 @149   ----------------------------------------
 .byte   PATT
  .word Label_013DACF6
@  #02 @150   ----------------------------------------
 .byte   PATT
  .word Label_013DAD0B
@  #02 @151   ----------------------------------------
 .byte   PATT
  .word Label_013DACF6
@  #02 @152   ----------------------------------------
 .byte   PATT
  .word Label_013DACF6
@  #02 @153   ----------------------------------------
 .byte   PATT
  .word Label_013DACF6
@  #02 @154   ----------------------------------------
 .byte   PATT
  .word Label_013DAD29
@  #02 @155   ----------------------------------------
 .byte   PATT
  .word Label_013DACF6
@  #02 @156   ----------------------------------------
 .byte   PATT
  .word Label_013DACF6
@  #02 @157   ----------------------------------------
 .byte   PATT
  .word Label_013DACF6
@  #02 @158   ----------------------------------------
 .byte   PATT
  .word Label_013DAD0B
@  #02 @159   ----------------------------------------
 .byte   PATT
  .word Label_013DACF6
@  #02 @160   ----------------------------------------
 .byte   PATT
  .word Label_013DACF6
@  #02 @161   ----------------------------------------
 .byte   PATT
  .word Label_013DACF6
@  #02 @162   ----------------------------------------
 .byte   PATT
  .word Label_013DAD59
@  #02 @163   ----------------------------------------
 .byte   GOTO
  .word Label_013DAD6A
@  #02 @164   ----------------------------------------
 .byte   PATT
  .word Label_013DACF6
@  #02 @165   ----------------------------------------
 .byte   PATT
  .word Label_013DACF6
@  #02 @166   ----------------------------------------
 .byte   N06 ,Cs2 ,v072
 .byte   W24
 .byte   N06
 .byte   W24
 .byte   N06
 .byte   W24
 .byte   N06
 .byte   W06
 .byte   FINE

@**************** Track 3 (Midi-Chn.2) ****************@

song09_003:
@  #03 @000   ----------------------------------------
 .byte   KEYSH , song09_key+0
 .byte   VOICE , 40
 .byte   MODT 0
 .byte   LFOS 44
 .byte   VOL , 64*song09_mvl/mxv
 .byte   MODT 0
 .byte   LFOS 44
 .byte   W96
@  #03 @001   ----------------------------------------
 .byte   W96
@  #03 @002   ----------------------------------------
 .byte   W96
@  #03 @003   ----------------------------------------
 .byte   W96
@  #03 @004   ----------------------------------------
Label_013D1772:
 .byte   N96 ,Dn3 ,v024
 .byte   N96 ,Gn3
 .byte   N96 ,As3 ,v072
 .byte   W96
 .byte   PEND 
@  #03 @005   ----------------------------------------
Label_013D177C:
 .byte   N96 ,Dn3 ,v024
 .byte   N96 ,Fs3
 .byte   N96 ,As3 ,v072
 .byte   W96
 .byte   PEND 
@  #03 @006   ----------------------------------------
Label_013D1786:
 .byte   N96 ,Dn3 ,v024
 .byte   N96 ,Fn3
 .byte   N96 ,As3 ,v072
 .byte   W96
 .byte   PEND 
@  #03 @007   ----------------------------------------
Label_013D1790:
 .byte   N96 ,En3 ,v024
 .byte   N96 ,Gn3
 .byte   N96 ,Cn4 ,v072
 .byte   W96
 .byte   PEND 
@  #03 @008   ----------------------------------------
 .byte   PATT
  .word Label_013D1772
@  #03 @009   ----------------------------------------
 .byte   PATT
  .word Label_013D177C
@  #03 @010   ----------------------------------------
 .byte   PATT
  .word Label_013D1786
@  #03 @011   ----------------------------------------
 .byte   PATT
  .word Label_013D1790
@  #03 @012   ----------------------------------------
 .byte   W96
@  #03 @013   ----------------------------------------
 .byte   W96
@  #03 @014   ----------------------------------------
 .byte   W96
@  #03 @015   ----------------------------------------
 .byte   W96
@  #03 @016   ----------------------------------------
 .byte   W96
@  #03 @017   ----------------------------------------
 .byte   W96
@  #03 @018   ----------------------------------------
 .byte   W96
@  #03 @019   ----------------------------------------
 .byte   W96
@  #03 @020   ----------------------------------------
Label_013D17B6:
@  #03 @021   ----------------------------------------
 .byte   PATT
  .word Label_013D1772
@  #03 @022   ----------------------------------------
 .byte   PATT
  .word Label_013D1772
@  #03 @023   ----------------------------------------
 .byte   PATT
  .word Label_013D1772
@  #03 @024   ----------------------------------------
 .byte   PATT
  .word Label_013D1790
@  #03 @025   ----------------------------------------
Label_013D17CA:
 .byte   N96 ,Cn3 ,v024
 .byte   N96 ,Fn3
 .byte   N96 ,An3 ,v072
 .byte   W96
 .byte   PEND 
@  #03 @026   ----------------------------------------
Label_013D17D4:
 .byte   N48 ,Fn3 ,v024
 .byte   N48 ,As3 ,v072
 .byte   N48 ,Dn4 ,v024
 .byte   W48
 .byte   Cn3
 .byte   N48 ,Fn3
 .byte   N48 ,An3 ,v072
 .byte   W48
 .byte   PEND 
@  #03 @027   ----------------------------------------
Label_013D17E6:
 .byte   N96 ,Fs3 ,v024
 .byte   N96 ,An3
 .byte   N96 ,Dn4 ,v072
 .byte   W96
 .byte   PEND 
@  #03 @028   ----------------------------------------
Label_013D17F0:
 .byte   N06 ,Dn3 ,v127
 .byte   N06 ,Gn3
 .byte   N06 ,As3
 .byte   W12
 .byte   Dn3
 .byte   N06 ,Gn3
 .byte   N06 ,As3
 .byte   W36
 .byte   Dn3
 .byte   N06 ,Gn3
 .byte   N06 ,As3
 .byte   W12
 .byte   Dn3
 .byte   N06 ,Gn3
 .byte   N06 ,As3
 .byte   W36
 .byte   PEND 
@  #03 @029   ----------------------------------------
Label_013D180B:
 .byte   N06 ,Ds3 ,v127
 .byte   N06 ,Gn3
 .byte   N06 ,As3
 .byte   W12
 .byte   Ds3
 .byte   N06 ,Gn3
 .byte   N06 ,As3
 .byte   W36
 .byte   Fs3
 .byte   N06 ,An3
 .byte   N06 ,Cn4
 .byte   W12
 .byte   Dn3
 .byte   N06 ,Fs3
 .byte   N06 ,An3
 .byte   W36
 .byte   PEND 
@  #03 @030   ----------------------------------------
 .byte   PATT
  .word Label_013D17F0
@  #03 @031   ----------------------------------------
 .byte   PATT
  .word Label_013D180B
@  #03 @032   ----------------------------------------
 .byte   PATT
  .word Label_013D17F0
@  #03 @033   ----------------------------------------
 .byte   PATT
  .word Label_013D180B
@  #03 @034   ----------------------------------------
 .byte   PATT
  .word Label_013D17F0
@  #03 @035   ----------------------------------------
 .byte   PATT
  .word Label_013D180B
@  #03 @036   ----------------------------------------
 .byte   N84 ,As5 ,v072
 .byte   W96
@  #03 @037   ----------------------------------------
 .byte   TIE ,An5
 .byte   W96
@  #03 @038   ----------------------------------------
 .byte   W96
@  #03 @039   ----------------------------------------
 .byte   EOT
 .byte   TIE ,Gn5
 .byte   W96
@  #03 @040   ----------------------------------------
 .byte   W48
 .byte   EOT
 .byte   N48 ,Fn5
 .byte   W48
@  #03 @041   ----------------------------------------
Label_013D1855:
 .byte   N24 ,Ds5 ,v072
 .byte   W24
 .byte   N72 ,As5
 .byte   W72
 .byte   PEND 
@  #03 @042   ----------------------------------------
 .byte   N96 ,Dn5
 .byte   W96
@  #03 @043   ----------------------------------------
 .byte   Gn5
 .byte   W96
@  #03 @044   ----------------------------------------
Label_013D1862:
 .byte   N48 ,Fs5 ,v072
 .byte   W48
 .byte   Gn5
 .byte   W48
 .byte   PEND 
@  #03 @045   ----------------------------------------
 .byte   N96 ,An5
 .byte   W96
@  #03 @046   ----------------------------------------
Label_013D186C:
 .byte   N48 ,Gn5 ,v072
 .byte   W48
 .byte   An5
 .byte   W48
 .byte   PEND 
@  #03 @047   ----------------------------------------
 .byte   N96 ,As5
 .byte   W96
@  #03 @048   ----------------------------------------
Label_013D1876:
 .byte   N48 ,Dn6 ,v072
 .byte   W48
 .byte   Cs6
 .byte   W48
 .byte   PEND 
@  #03 @049   ----------------------------------------
Label_013D187D:
 .byte   N48 ,Bn5 ,v072
 .byte   W48
 .byte   En5
 .byte   W48
 .byte   PEND 
@  #03 @050   ----------------------------------------
 .byte   N96 ,Gn5
 .byte   W96
@  #03 @051   ----------------------------------------
 .byte   Cs6 ,v127
 .byte   W96
@  #03 @052   ----------------------------------------
Label_013D188A:
 .byte   N90 ,Cn3 ,v024
 .byte   N90 ,Fn3
 .byte   N90 ,Gs3 ,v072
 .byte   W96
 .byte   PEND 
@  #03 @053   ----------------------------------------
Label_013D1894:
 .byte   N90 ,Dn3 ,v024
 .byte   N90 ,Gn3
 .byte   N90 ,As3 ,v072
 .byte   W96
 .byte   PEND 
@  #03 @054   ----------------------------------------
Label_013D189E:
 .byte   N90 ,Dn3 ,v024
 .byte   N90 ,Gs3
 .byte   N90 ,Bn3 ,v072
 .byte   W96
 .byte   PEND 
@  #03 @055   ----------------------------------------
Label_013D18A8:
 .byte   N90 ,Bn2 ,v024
 .byte   N90 ,Fn3
 .byte   N90 ,Gs3 ,v072
 .byte   W96
 .byte   PEND 
@  #03 @056   ----------------------------------------
Label_013D18B2:
 .byte   N90 ,En3 ,v024
 .byte   N90 ,An3
 .byte   N90 ,Cn4 ,v072
 .byte   W96
 .byte   PEND 
@  #03 @057   ----------------------------------------
Label_013D18BC:
 .byte   N90 ,Fn3 ,v024
 .byte   N90 ,As3
 .byte   N90 ,Cs4 ,v072
 .byte   W96
 .byte   PEND 
@  #03 @058   ----------------------------------------
Label_013D18C6:
 .byte   TIE ,Ds3 ,v024
 .byte   TIE ,Gs3
 .byte   TIE ,Bn3 ,v072
 .byte   W96
 .byte   PEND 
@  #03 @059   ----------------------------------------
 .byte   W90
 .byte   EOT
 .byte   Ds3 ,v068
 .byte   Bn3
 .byte   W06
@  #03 @060   ----------------------------------------
 .byte   PATT
  .word Label_013D188A
@  #03 @061   ----------------------------------------
 .byte   PATT
  .word Label_013D1894
@  #03 @062   ----------------------------------------
 .byte   PATT
  .word Label_013D189E
@  #03 @063   ----------------------------------------
 .byte   PATT
  .word Label_013D18A8
@  #03 @064   ----------------------------------------
 .byte   PATT
  .word Label_013D18B2
@  #03 @065   ----------------------------------------
 .byte   PATT
  .word Label_013D18BC
@  #03 @066   ----------------------------------------
 .byte   PATT
  .word Label_013D18C6
@  #03 @067   ----------------------------------------
 .byte   W90
 .byte   EOT
 .byte   Ds3 ,v068
 .byte   Bn3
 .byte   W06
@  #03 @068   ----------------------------------------
Label_013D18FF:
 .byte   N06 ,Dn3 ,v127
 .byte   N06 ,Gn3
 .byte   N06 ,As3
 .byte   N06 ,Gn5 ,v072
 .byte   W12
 .byte   Dn3 ,v127
 .byte   N06 ,Gn3
 .byte   N06 ,As3
 .byte   N06 ,Gn5 ,v072
 .byte   W36
 .byte   Dn3 ,v127
 .byte   N06 ,Gn3
 .byte   N06 ,As3
 .byte   N06 ,Gn5 ,v072
 .byte   W12
 .byte   Dn3 ,v127
 .byte   N06 ,Gn3
 .byte   N06 ,As3
 .byte   N06 ,Gn5 ,v072
 .byte   W36
 .byte   PEND 
@  #03 @069   ----------------------------------------
Label_013D1929:
 .byte   N06 ,Ds3 ,v127
 .byte   N06 ,Gn3
 .byte   N06 ,As3
 .byte   N06 ,Gn5 ,v072
 .byte   W12
 .byte   Ds3 ,v127
 .byte   N06 ,Gn3
 .byte   N06 ,As3
 .byte   N06 ,Gn5 ,v072
 .byte   W36
 .byte   Fs3 ,v127
 .byte   N06 ,An3
 .byte   N06 ,Cn4
 .byte   N06 ,An5 ,v072
 .byte   W12
 .byte   Dn3 ,v127
 .byte   N06 ,Fs3
 .byte   N06 ,An3
 .byte   N06 ,Fs5 ,v072
 .byte   W36
 .byte   PEND 
@  #03 @070   ----------------------------------------
 .byte   PATT
  .word Label_013D18FF
@  #03 @071   ----------------------------------------
 .byte   PATT
  .word Label_013D1929
@  #03 @072   ----------------------------------------
 .byte   PATT
  .word Label_013D18FF
@  #03 @073   ----------------------------------------
 .byte   PATT
  .word Label_013D1929
@  #03 @074   ----------------------------------------
 .byte   PATT
  .word Label_013D18FF
@  #03 @075   ----------------------------------------
 .byte   PATT
  .word Label_013D1929
@  #03 @076   ----------------------------------------
 .byte   PATT
  .word Label_013D1772
@  #03 @077   ----------------------------------------
 .byte   PATT
  .word Label_013D177C
@  #03 @078   ----------------------------------------
 .byte   PATT
  .word Label_013D1786
@  #03 @079   ----------------------------------------
 .byte   PATT
  .word Label_013D1790
@  #03 @080   ----------------------------------------
 .byte   PATT
  .word Label_013D1772
@  #03 @081   ----------------------------------------
 .byte   PATT
  .word Label_013D177C
@  #03 @082   ----------------------------------------
 .byte   PATT
  .word Label_013D1786
@  #03 @083   ----------------------------------------
 .byte   PATT
  .word Label_013D1790
@  #03 @084   ----------------------------------------
 .byte   W96
@  #03 @085   ----------------------------------------
 .byte   W96
@  #03 @086   ----------------------------------------
 .byte   W96
@  #03 @087   ----------------------------------------
 .byte   W96
@  #03 @088   ----------------------------------------
 .byte   W96
@  #03 @089   ----------------------------------------
 .byte   W96
@  #03 @090   ----------------------------------------
 .byte   W96
@  #03 @091   ----------------------------------------
 .byte   W96
@  #03 @092   ----------------------------------------
 .byte   PATT
  .word Label_013D1772
@  #03 @093   ----------------------------------------
 .byte   PATT
  .word Label_013D1772
@  #03 @094   ----------------------------------------
 .byte   PATT
  .word Label_013D1772
@  #03 @095   ----------------------------------------
 .byte   PATT
  .word Label_013D1790
@  #03 @096   ----------------------------------------
 .byte   PATT
  .word Label_013D17CA
@  #03 @097   ----------------------------------------
 .byte   PATT
  .word Label_013D17D4
@  #03 @098   ----------------------------------------
 .byte   PATT
  .word Label_013D17E6
@  #03 @099   ----------------------------------------
 .byte   PATT
  .word Label_013D17F0
@  #03 @100   ----------------------------------------
 .byte   PATT
  .word Label_013D180B
@  #03 @101   ----------------------------------------
 .byte   PATT
  .word Label_013D17F0
@  #03 @102   ----------------------------------------
 .byte   PATT
  .word Label_013D180B
@  #03 @103   ----------------------------------------
 .byte   PATT
  .word Label_013D17F0
@  #03 @104   ----------------------------------------
 .byte   PATT
  .word Label_013D180B
@  #03 @105   ----------------------------------------
 .byte   PATT
  .word Label_013D17F0
@  #03 @106   ----------------------------------------
 .byte   PATT
  .word Label_013D180B
@  #03 @107   ----------------------------------------
 .byte   N84 ,As5 ,v072
 .byte   W96
@  #03 @108   ----------------------------------------
 .byte   TIE ,An5
 .byte   W96
@  #03 @109   ----------------------------------------
 .byte   W96
@  #03 @110   ----------------------------------------
 .byte   EOT
 .byte   TIE ,Gn5
 .byte   W96
@  #03 @111   ----------------------------------------
 .byte   W48
 .byte   EOT
 .byte   N48 ,Fn5
 .byte   W48
@  #03 @112   ----------------------------------------
 .byte   PATT
  .word Label_013D1855
@  #03 @113   ----------------------------------------
 .byte   N96 ,Dn5 ,v072
 .byte   W96
@  #03 @114   ----------------------------------------
 .byte   Gn5
 .byte   W96
@  #03 @115   ----------------------------------------
 .byte   PATT
  .word Label_013D1862
@  #03 @116   ----------------------------------------
 .byte   N96 ,An5 ,v072
 .byte   W96
@  #03 @117   ----------------------------------------
 .byte   PATT
  .word Label_013D186C
@  #03 @118   ----------------------------------------
 .byte   N96 ,As5 ,v072
 .byte   W96
@  #03 @119   ----------------------------------------
 .byte   PATT
  .word Label_013D1876
@  #03 @120   ----------------------------------------
 .byte   PATT
  .word Label_013D187D
@  #03 @121   ----------------------------------------
 .byte   N96 ,Gn5 ,v072
 .byte   W96
@  #03 @122   ----------------------------------------
 .byte   Cs6 ,v127
 .byte   W96
@  #03 @123   ----------------------------------------
 .byte   PATT
  .word Label_013D188A
@  #03 @124   ----------------------------------------
 .byte   PATT
  .word Label_013D1894
@  #03 @125   ----------------------------------------
 .byte   PATT
  .word Label_013D189E
@  #03 @126   ----------------------------------------
 .byte   PATT
  .word Label_013D18A8
@  #03 @127   ----------------------------------------
 .byte   PATT
  .word Label_013D18B2
@  #03 @128   ----------------------------------------
 .byte   PATT
  .word Label_013D18BC
@  #03 @129   ----------------------------------------
 .byte   PATT
  .word Label_013D18C6
@  #03 @130   ----------------------------------------
 .byte   W90
 .byte   EOT
 .byte   Ds3 ,v068
 .byte   Bn3
 .byte   W06
@  #03 @131   ----------------------------------------
 .byte   PATT
  .word Label_013D188A
@  #03 @132   ----------------------------------------
 .byte   PATT
  .word Label_013D1894
@  #03 @133   ----------------------------------------
 .byte   PATT
  .word Label_013D189E
@  #03 @134   ----------------------------------------
 .byte   PATT
  .word Label_013D18A8
@  #03 @135   ----------------------------------------
 .byte   PATT
  .word Label_013D18B2
@  #03 @136   ----------------------------------------
 .byte   PATT
  .word Label_013D18BC
@  #03 @137   ----------------------------------------
 .byte   PATT
  .word Label_013D18C6
@  #03 @138   ----------------------------------------
 .byte   W90
 .byte   EOT
 .byte   Ds3 ,v068
 .byte   Bn3
 .byte   W06
@  #03 @139   ----------------------------------------
 .byte   PATT
  .word Label_013D18FF
@  #03 @140   ----------------------------------------
 .byte   PATT
  .word Label_013D1929
@  #03 @141   ----------------------------------------
 .byte   PATT
  .word Label_013D18FF
@  #03 @142   ----------------------------------------
 .byte   PATT
  .word Label_013D1929
@  #03 @143   ----------------------------------------
 .byte   PATT
  .word Label_013D18FF
@  #03 @144   ----------------------------------------
 .byte   PATT
  .word Label_013D1929
@  #03 @145   ----------------------------------------
 .byte   PATT
  .word Label_013D18FF
@  #03 @146   ----------------------------------------
 .byte   PATT
  .word Label_013D1929
@  #03 @147   ----------------------------------------
 .byte   PATT
  .word Label_013D1772
@  #03 @148   ----------------------------------------
 .byte   PATT
  .word Label_013D177C
@  #03 @149   ----------------------------------------
 .byte   PATT
  .word Label_013D1786
@  #03 @150   ----------------------------------------
 .byte   PATT
  .word Label_013D1790
@  #03 @151   ----------------------------------------
 .byte   PATT
  .word Label_013D1772
@  #03 @152   ----------------------------------------
 .byte   PATT
  .word Label_013D177C
@  #03 @153   ----------------------------------------
 .byte   PATT
  .word Label_013D1786
@  #03 @154   ----------------------------------------
 .byte   PATT
  .word Label_013D1790
@  #03 @155   ----------------------------------------
 .byte   W96
@  #03 @156   ----------------------------------------
 .byte   W96
@  #03 @157   ----------------------------------------
 .byte   W96
@  #03 @158   ----------------------------------------
 .byte   W96
@  #03 @159   ----------------------------------------
 .byte   W96
@  #03 @160   ----------------------------------------
 .byte   W96
@  #03 @161   ----------------------------------------
 .byte   W96
@  #03 @162   ----------------------------------------
 .byte   W96
@  #03 @163   ----------------------------------------
 .byte   GOTO
  .word Label_013D17B6
@  #03 @164   ----------------------------------------
 .byte   PATT
  .word Label_013D1772
@  #03 @165   ----------------------------------------
 .byte   PATT
  .word Label_013D1772
@  #03 @166   ----------------------------------------
 .byte   PATT
  .word Label_013D1772
 .byte   FINE

@**************** Track 4 (Midi-Chn.3) ****************@

song09_004:
@  #04 @000   ----------------------------------------
 .byte   KEYSH , song09_key+0
 .byte   VOICE , 52
 .byte   MODT 0
 .byte   LFOS 44
 .byte   VOL , 64*song09_mvl/mxv
 .byte   MODT 0
 .byte   LFOS 44
 .byte   W96
@  #04 @001   ----------------------------------------
 .byte   W96
@  #04 @002   ----------------------------------------
 .byte   W96
@  #04 @003   ----------------------------------------
 .byte   W96
@  #04 @004   ----------------------------------------
 .byte   N96 ,Gn4 ,v036
 .byte   W96
@  #04 @005   ----------------------------------------
Label_01238356:
 .byte   N48 ,Fs4 ,v036
 .byte   W48
 .byte   N24 ,Dn4
 .byte   W24
 .byte   En4
 .byte   W24
 .byte   PEND 
@  #04 @006   ----------------------------------------
Label_01238360:
 .byte   N72 ,Fn4 ,v036
 .byte   W72
 .byte   N24 ,Gn4
 .byte   W24
 .byte   PEND 
@  #04 @007   ----------------------------------------
 .byte   N96 ,En4
 .byte   W96
@  #04 @008   ----------------------------------------
 .byte   Gn4
 .byte   W96
@  #04 @009   ----------------------------------------
 .byte   PATT
  .word Label_01238356
@  #04 @010   ----------------------------------------
 .byte   PATT
  .word Label_01238360
@  #04 @011   ----------------------------------------
 .byte   N96 ,En4 ,v036
 .byte   W96
@  #04 @012   ----------------------------------------
 .byte   W96
@  #04 @013   ----------------------------------------
 .byte   W96
@  #04 @014   ----------------------------------------
 .byte   W96
@  #04 @015   ----------------------------------------
 .byte   W96
@  #04 @016   ----------------------------------------
Label_0123837F:
 .byte   N48 ,An3 ,v072
 .byte   W48
 .byte   Dn4
 .byte   W48
 .byte   PEND 
@  #04 @017   ----------------------------------------
Label_01238386:
 .byte   N48 ,Cn4 ,v072
 .byte   W48
 .byte   As3
 .byte   W48
 .byte   PEND 
@  #04 @018   ----------------------------------------
 .byte   N96 ,Gn4
 .byte   W96
@  #04 @019   ----------------------------------------
 .byte   W96
@  #04 @020   ----------------------------------------
Label_01238391:
 .byte   W96
@  #04 @021   ----------------------------------------
 .byte   W96
@  #04 @022   ----------------------------------------
 .byte   W96
@  #04 @023   ----------------------------------------
 .byte   W96
@  #04 @024   ----------------------------------------
Label_01238395:
 .byte   N48 ,An3 ,v036
 .byte   W48
 .byte   Dn4
 .byte   W48
 .byte   PEND 
@  #04 @025   ----------------------------------------
Label_0123839C:
 .byte   N48 ,Cn4 ,v036
 .byte   W48
 .byte   As3
 .byte   W48
 .byte   PEND 
@  #04 @026   ----------------------------------------
 .byte   N96 ,Fs4 ,v127
 .byte   W96
@  #04 @027   ----------------------------------------
 .byte   N06 ,Gn4 ,v072
 .byte   W96
@  #04 @028   ----------------------------------------
 .byte   W96
@  #04 @029   ----------------------------------------
 .byte   W96
@  #04 @030   ----------------------------------------
 .byte   W96
@  #04 @031   ----------------------------------------
 .byte   W96
@  #04 @032   ----------------------------------------
 .byte   W96
@  #04 @033   ----------------------------------------
 .byte   W96
@  #04 @034   ----------------------------------------
 .byte   W96
@  #04 @035   ----------------------------------------
Label_012383B2:
 .byte   N72 ,Dn3 ,v072
 .byte   W72
 .byte   N24 ,Cn3
 .byte   W24
 .byte   PEND 
@  #04 @036   ----------------------------------------
Label_012383BA:
 .byte   N48 ,Ds3 ,v072
 .byte   W48
 .byte   N96 ,Fs3
 .byte   W48
 .byte   PEND 
@  #04 @037   ----------------------------------------
 .byte   W48
 .byte   N48 ,Dn3
 .byte   W48
@  #04 @038   ----------------------------------------
 .byte   N96 ,As2
 .byte   W96
@  #04 @039   ----------------------------------------
Label_012383C9:
 .byte   N48 ,Gn3 ,v072
 .byte   W48
 .byte   Dn3
 .byte   W48
 .byte   PEND 
@  #04 @040   ----------------------------------------
Label_012383D0:
 .byte   N48 ,An2 ,v072
 .byte   W48
 .byte   Ds3
 .byte   W48
 .byte   PEND 
@  #04 @041   ----------------------------------------
 .byte   N96 ,An2
 .byte   W96
@  #04 @042   ----------------------------------------
 .byte   As2
 .byte   W96
@  #04 @043   ----------------------------------------
Label_012383DC:
 .byte   N48 ,Fs3 ,v072
 .byte   W48
 .byte   N24 ,Dn3
 .byte   W24
 .byte   Cn3
 .byte   W24
 .byte   PEND 
@  #04 @044   ----------------------------------------
Label_012383E6:
 .byte   N48 ,Ds3 ,v072
 .byte   W48
 .byte   Fs3
 .byte   W48
 .byte   PEND 
@  #04 @045   ----------------------------------------
 .byte   PATT
  .word Label_012383C9
@  #04 @046   ----------------------------------------
 .byte   N96 ,As2 ,v072
 .byte   W96
@  #04 @047   ----------------------------------------
Label_012383F6:
 .byte   N48 ,Fs3 ,v072
 .byte   W48
 .byte   Dn3
 .byte   W48
 .byte   PEND 
@  #04 @048   ----------------------------------------
Label_012383FD:
 .byte   N48 ,Gs2 ,v072
 .byte   W48
 .byte   Dn3
 .byte   W48
 .byte   PEND 
@  #04 @049   ----------------------------------------
 .byte   N96 ,Cs3
 .byte   W96
@  #04 @050   ----------------------------------------
 .byte   En3
 .byte   W96
@  #04 @051   ----------------------------------------
 .byte   N90 ,Fn4 ,v036
 .byte   W96
@  #04 @052   ----------------------------------------
 .byte   Gn4
 .byte   W96
@  #04 @053   ----------------------------------------
 .byte   N90
 .byte   W96
@  #04 @054   ----------------------------------------
 .byte   Dn4
 .byte   W96
@  #04 @055   ----------------------------------------
 .byte   An4
 .byte   W96
@  #04 @056   ----------------------------------------
 .byte   As4
 .byte   W96
@  #04 @057   ----------------------------------------
Label_01238417:
 .byte   N42 ,As4 ,v036
 .byte   W48
 .byte   Gs4
 .byte   W48
 .byte   PEND 
@  #04 @058   ----------------------------------------
Label_0123841E:
 .byte   N42 ,Fn4 ,v036
 .byte   W48
 .byte   Cs4
 .byte   W48
 .byte   PEND 
@  #04 @059   ----------------------------------------
 .byte   N90 ,Fn4
 .byte   W96
@  #04 @060   ----------------------------------------
Label_01238428:
 .byte   N42 ,Gn4 ,v036
 .byte   W48
 .byte   Cn5
 .byte   W48
 .byte   PEND 
@  #04 @061   ----------------------------------------
 .byte   N90 ,Gn4
 .byte   W96
@  #04 @062   ----------------------------------------
Label_01238432:
 .byte   N42 ,Dn4 ,v036
 .byte   W48
 .byte   Fn4
 .byte   W48
 .byte   PEND 
@  #04 @063   ----------------------------------------
 .byte   N90 ,An4
 .byte   W96
@  #04 @064   ----------------------------------------
Label_0123843C:
 .byte   N42 ,As4 ,v036
 .byte   W48
 .byte   Cs5
 .byte   W48
 .byte   PEND 
@  #04 @065   ----------------------------------------
Label_01238443:
 .byte   N42 ,Ds5 ,v036
 .byte   W48
 .byte   Cs5
 .byte   W48
 .byte   PEND 
@  #04 @066   ----------------------------------------
Label_0123844A:
 .byte   N42 ,Fn5 ,v036
 .byte   W48
 .byte   Cs5
 .byte   W48
 .byte   PEND 
@  #04 @067   ----------------------------------------
 .byte   W96
@  #04 @068   ----------------------------------------
 .byte   W96
@  #04 @069   ----------------------------------------
 .byte   W96
@  #04 @070   ----------------------------------------
 .byte   W96
@  #04 @071   ----------------------------------------
 .byte   W96
@  #04 @072   ----------------------------------------
 .byte   W96
@  #04 @073   ----------------------------------------
 .byte   W96
@  #04 @074   ----------------------------------------
 .byte   W96
@  #04 @075   ----------------------------------------
 .byte   N96 ,Gn4
 .byte   W96
@  #04 @076   ----------------------------------------
 .byte   PATT
  .word Label_01238356
@  #04 @077   ----------------------------------------
 .byte   PATT
  .word Label_01238360
@  #04 @078   ----------------------------------------
 .byte   N96 ,En4 ,v036
 .byte   W96
@  #04 @079   ----------------------------------------
 .byte   Gn4
 .byte   W96
@  #04 @080   ----------------------------------------
 .byte   PATT
  .word Label_01238356
@  #04 @081   ----------------------------------------
 .byte   PATT
  .word Label_01238360
@  #04 @082   ----------------------------------------
 .byte   N96 ,En4 ,v036
 .byte   W96
@  #04 @083   ----------------------------------------
 .byte   W96
@  #04 @084   ----------------------------------------
 .byte   W96
@  #04 @085   ----------------------------------------
 .byte   W96
@  #04 @086   ----------------------------------------
 .byte   W96
@  #04 @087   ----------------------------------------
 .byte   PATT
  .word Label_0123837F
@  #04 @088   ----------------------------------------
 .byte   PATT
  .word Label_01238386
@  #04 @089   ----------------------------------------
 .byte   N96 ,Gn4 ,v072
 .byte   W96
@  #04 @090   ----------------------------------------
 .byte   W96
@  #04 @091   ----------------------------------------
 .byte   W96
@  #04 @092   ----------------------------------------
 .byte   W96
@  #04 @093   ----------------------------------------
 .byte   W96
@  #04 @094   ----------------------------------------
 .byte   W96
@  #04 @095   ----------------------------------------
 .byte   PATT
  .word Label_01238395
@  #04 @096   ----------------------------------------
 .byte   PATT
  .word Label_0123839C
@  #04 @097   ----------------------------------------
 .byte   N96 ,Fs4 ,v127
 .byte   W96
@  #04 @098   ----------------------------------------
 .byte   N06 ,Gn4 ,v072
 .byte   W96
@  #04 @099   ----------------------------------------
 .byte   W96
@  #04 @100   ----------------------------------------
 .byte   W96
@  #04 @101   ----------------------------------------
 .byte   W96
@  #04 @102   ----------------------------------------
 .byte   W96
@  #04 @103   ----------------------------------------
 .byte   W96
@  #04 @104   ----------------------------------------
 .byte   W96
@  #04 @105   ----------------------------------------
 .byte   W96
@  #04 @106   ----------------------------------------
 .byte   PATT
  .word Label_012383B2
@  #04 @107   ----------------------------------------
 .byte   PATT
  .word Label_012383BA
@  #04 @108   ----------------------------------------
 .byte   W48
 .byte   N48 ,Dn3 ,v072
 .byte   W48
@  #04 @109   ----------------------------------------
 .byte   N96 ,As2
 .byte   W96
@  #04 @110   ----------------------------------------
 .byte   PATT
  .word Label_012383C9
@  #04 @111   ----------------------------------------
 .byte   PATT
  .word Label_012383D0
@  #04 @112   ----------------------------------------
 .byte   N96 ,An2 ,v072
 .byte   W96
@  #04 @113   ----------------------------------------
 .byte   As2
 .byte   W96
@  #04 @114   ----------------------------------------
 .byte   PATT
  .word Label_012383DC
@  #04 @115   ----------------------------------------
 .byte   PATT
  .word Label_012383E6
@  #04 @116   ----------------------------------------
 .byte   PATT
  .word Label_012383C9
@  #04 @117   ----------------------------------------
 .byte   N96 ,As2 ,v072
 .byte   W96
@  #04 @118   ----------------------------------------
 .byte   PATT
  .word Label_012383F6
@  #04 @119   ----------------------------------------
 .byte   PATT
  .word Label_012383FD
@  #04 @120   ----------------------------------------
 .byte   N96 ,Cs3 ,v072
 .byte   W96
@  #04 @121   ----------------------------------------
 .byte   En3
 .byte   W96
@  #04 @122   ----------------------------------------
 .byte   N90 ,Fn4 ,v036
 .byte   W96
@  #04 @123   ----------------------------------------
 .byte   Gn4
 .byte   W96
@  #04 @124   ----------------------------------------
 .byte   N90
 .byte   W96
@  #04 @125   ----------------------------------------
 .byte   Dn4
 .byte   W96
@  #04 @126   ----------------------------------------
 .byte   An4
 .byte   W96
@  #04 @127   ----------------------------------------
 .byte   As4
 .byte   W96
@  #04 @128   ----------------------------------------
 .byte   PATT
  .word Label_01238417
@  #04 @129   ----------------------------------------
 .byte   PATT
  .word Label_0123841E
@  #04 @130   ----------------------------------------
 .byte   N90 ,Fn4 ,v036
 .byte   W96
@  #04 @131   ----------------------------------------
 .byte   PATT
  .word Label_01238428
@  #04 @132   ----------------------------------------
 .byte   N90 ,Gn4 ,v036
 .byte   W96
@  #04 @133   ----------------------------------------
 .byte   PATT
  .word Label_01238432
@  #04 @134   ----------------------------------------
 .byte   N90 ,An4 ,v036
 .byte   W96
@  #04 @135   ----------------------------------------
 .byte   PATT
  .word Label_0123843C
@  #04 @136   ----------------------------------------
 .byte   PATT
  .word Label_01238443
@  #04 @137   ----------------------------------------
 .byte   PATT
  .word Label_0123844A
@  #04 @138   ----------------------------------------
 .byte   W96
@  #04 @139   ----------------------------------------
 .byte   W96
@  #04 @140   ----------------------------------------
 .byte   W96
@  #04 @141   ----------------------------------------
 .byte   W96
@  #04 @142   ----------------------------------------
 .byte   W96
@  #04 @143   ----------------------------------------
 .byte   W96
@  #04 @144   ----------------------------------------
 .byte   W96
@  #04 @145   ----------------------------------------
 .byte   W96
@  #04 @146   ----------------------------------------
 .byte   N96 ,Gn4 ,v036
 .byte   W96
@  #04 @147   ----------------------------------------
 .byte   PATT
  .word Label_01238356
@  #04 @148   ----------------------------------------
 .byte   PATT
  .word Label_01238360
@  #04 @149   ----------------------------------------
 .byte   N96 ,En4 ,v036
 .byte   W96
@  #04 @150   ----------------------------------------
 .byte   Gn4
 .byte   W96
@  #04 @151   ----------------------------------------
 .byte   PATT
  .word Label_01238356
@  #04 @152   ----------------------------------------
 .byte   PATT
  .word Label_01238360
@  #04 @153   ----------------------------------------
 .byte   N96 ,En4 ,v036
 .byte   W96
@  #04 @154   ----------------------------------------
 .byte   W96
@  #04 @155   ----------------------------------------
 .byte   W96
@  #04 @156   ----------------------------------------
 .byte   W96
@  #04 @157   ----------------------------------------
 .byte   W96
@  #04 @158   ----------------------------------------
 .byte   PATT
  .word Label_0123837F
@  #04 @159   ----------------------------------------
 .byte   PATT
  .word Label_01238386
@  #04 @160   ----------------------------------------
 .byte   N96 ,Gn4 ,v072
 .byte   W96
@  #04 @161   ----------------------------------------
 .byte   W96
@  #04 @162   ----------------------------------------
 .byte   GOTO
  .word Label_01238391
@  #04 @163   ----------------------------------------
 .byte   W96
@  #04 @164   ----------------------------------------
 .byte   W96
@  #04 @165   ----------------------------------------
 .byte   W12
 .byte   FINE

@**************** Track 5 (Midi-Chn.4) ****************@

song09_005:
@  #05 @000   ----------------------------------------
 .byte   KEYSH , song09_key+0
 .byte   VOICE , 110
 .byte   MODT 0
 .byte   LFOS 44
 .byte   VOL , 88*song09_mvl/mxv
 .byte   MODT 0
 .byte   LFOS 44
 .byte   W96
@  #05 @001   ----------------------------------------
 .byte   W96
@  #05 @002   ----------------------------------------
 .byte   W96
@  #05 @003   ----------------------------------------
 .byte   W96
@  #05 @004   ----------------------------------------
 .byte   W96
@  #05 @005   ----------------------------------------
 .byte   W96
@  #05 @006   ----------------------------------------
 .byte   W96
@  #05 @007   ----------------------------------------
 .byte   W96
@  #05 @008   ----------------------------------------
 .byte   W96
@  #05 @009   ----------------------------------------
 .byte   W96
@  #05 @010   ----------------------------------------
 .byte   W96
@  #05 @011   ----------------------------------------
 .byte   W96
@  #05 @012   ----------------------------------------
Label_013DA9F6:
 .byte   N12 ,Dn4 ,v072
 .byte   W18
 .byte   Gn4
 .byte   W18
 .byte   N06 ,Fs4
 .byte   W06
 .byte   Gn4
 .byte   W06
 .byte   N12 ,Dn4
 .byte   W24
 .byte   Gn4
 .byte   W24
 .byte   PEND 
@  #05 @013   ----------------------------------------
Label_013DAA07:
 .byte   N12 ,Dn4 ,v072
 .byte   W18
 .byte   Gn4
 .byte   W18
 .byte   N06 ,Fs4
 .byte   W06
 .byte   Gn4
 .byte   W06
 .byte   N12 ,An4
 .byte   W24
 .byte   Cn5
 .byte   W24
 .byte   PEND 
@  #05 @014   ----------------------------------------
Label_013DAA18:
 .byte   N12 ,Dn4 ,v072
 .byte   W18
 .byte   Gn4
 .byte   W18
 .byte   N06 ,As4
 .byte   W06
 .byte   Cn5
 .byte   W06
 .byte   N12 ,Dn5
 .byte   W24
 .byte   Fn4
 .byte   W24
 .byte   PEND 
@  #05 @015   ----------------------------------------
Label_013DAA29:
 .byte   N12 ,Gn4 ,v072
 .byte   W24
 .byte   N06 ,Dn5
 .byte   W12
 .byte   Cn5
 .byte   W24
 .byte   N12 ,As4
 .byte   W24
 .byte   N06 ,An4
 .byte   W12
 .byte   PEND 
@  #05 @016   ----------------------------------------
Label_013DAA39:
 .byte   N12 ,Fn4 ,v072
 .byte   W24
 .byte   N06 ,Ds5
 .byte   W12
 .byte   Dn5
 .byte   W24
 .byte   Fn5
 .byte   W24
 .byte   Dn5
 .byte   W12
 .byte   PEND 
@  #05 @017   ----------------------------------------
Label_013DAA47:
 .byte   N03 ,Cn5 ,v072
 .byte   W03
 .byte   Dn5
 .byte   W03
 .byte   Cn5
 .byte   W03
 .byte   Dn5
 .byte   W03
 .byte   Cn5
 .byte   W03
 .byte   Dn5
 .byte   W03
 .byte   Cn5
 .byte   W03
 .byte   Dn5
 .byte   W03
 .byte   N06 ,Cn5
 .byte   W12
 .byte   As4
 .byte   W24
 .byte   Dn5
 .byte   W24
 .byte   Fn4
 .byte   W12
 .byte   PEND 
@  #05 @018   ----------------------------------------
Label_013DAA63:
 .byte   N12 ,An4 ,v072
 .byte   W24
 .byte   N06 ,As4
 .byte   W12
 .byte   N12 ,An4
 .byte   W24
 .byte   Gn4
 .byte   W12
 .byte   N06 ,Ds4
 .byte   W12
 .byte   N12 ,Dn4
 .byte   W12
 .byte   PEND 
@  #05 @019   ----------------------------------------
 .byte   W96
@  #05 @020   ----------------------------------------
Label_013DAA77:
@  #05 @021   ----------------------------------------
 .byte   PATT
  .word Label_013DA9F6
@  #05 @022   ----------------------------------------
 .byte   PATT
  .word Label_013DAA07
@  #05 @023   ----------------------------------------
 .byte   PATT
  .word Label_013DAA18
@  #05 @024   ----------------------------------------
 .byte   PATT
  .word Label_013DAA29
@  #05 @025   ----------------------------------------
 .byte   PATT
  .word Label_013DAA39
@  #05 @026   ----------------------------------------
 .byte   PATT
  .word Label_013DAA47
@  #05 @027   ----------------------------------------
Label_013DAA95:
 .byte   N06 ,Fs4 ,v072
 .byte   W12
 .byte   An4
 .byte   W12
 .byte   Ds5
 .byte   W12
 .byte   N12 ,Dn5
 .byte   W24
 .byte   Fs5
 .byte   W24
 .byte   N06 ,Dn5
 .byte   W12
 .byte   PEND 
@  #05 @028   ----------------------------------------
 .byte   Gn5
 .byte   W96
@  #05 @029   ----------------------------------------
 .byte   W96
@  #05 @030   ----------------------------------------
 .byte   W96
@  #05 @031   ----------------------------------------
 .byte   W96
@  #05 @032   ----------------------------------------
Label_013DAAAB:
 .byte   W24
 .byte   N06 ,Gn5 ,v032
 .byte   W06
 .byte   Dn5
 .byte   W06
 .byte   Gn5
 .byte   W06
 .byte   Dn5
 .byte   W30
 .byte   Gn5
 .byte   W06
 .byte   Dn5
 .byte   W06
 .byte   Gn5
 .byte   W12
 .byte   PEND 
@  #05 @033   ----------------------------------------
Label_013DAABD:
 .byte   W24
 .byte   N06 ,Gn5 ,v032
 .byte   W06
 .byte   Dn5
 .byte   W06
 .byte   Gn5
 .byte   W06
 .byte   Dn5
 .byte   W30
 .byte   Fs5
 .byte   W06
 .byte   Dn5
 .byte   W06
 .byte   Fs5
 .byte   W12
 .byte   PEND 
@  #05 @034   ----------------------------------------
 .byte   PATT
  .word Label_013DAAAB
@  #05 @035   ----------------------------------------
 .byte   PATT
  .word Label_013DAABD
@  #05 @036   ----------------------------------------
 .byte   W96
@  #05 @037   ----------------------------------------
 .byte   W96
@  #05 @038   ----------------------------------------
 .byte   W96
@  #05 @039   ----------------------------------------
 .byte   W96
@  #05 @040   ----------------------------------------
 .byte   W96
@  #05 @041   ----------------------------------------
 .byte   W96
@  #05 @042   ----------------------------------------
 .byte   W96
@  #05 @043   ----------------------------------------
 .byte   W96
@  #05 @044   ----------------------------------------
 .byte   W96
@  #05 @045   ----------------------------------------
 .byte   W96
@  #05 @046   ----------------------------------------
 .byte   W96
@  #05 @047   ----------------------------------------
 .byte   W96
@  #05 @048   ----------------------------------------
 .byte   W96
@  #05 @049   ----------------------------------------
 .byte   W96
@  #05 @050   ----------------------------------------
 .byte   W96
@  #05 @051   ----------------------------------------
 .byte   W96
@  #05 @052   ----------------------------------------
 .byte   W96
@  #05 @053   ----------------------------------------
 .byte   W96
@  #05 @054   ----------------------------------------
 .byte   W96
@  #05 @055   ----------------------------------------
 .byte   W96
@  #05 @056   ----------------------------------------
 .byte   W96
@  #05 @057   ----------------------------------------
 .byte   W96
@  #05 @058   ----------------------------------------
 .byte   W96
@  #05 @059   ----------------------------------------
 .byte   W96
@  #05 @060   ----------------------------------------
 .byte   W96
@  #05 @061   ----------------------------------------
 .byte   W96
@  #05 @062   ----------------------------------------
 .byte   W96
@  #05 @063   ----------------------------------------
 .byte   W96
@  #05 @064   ----------------------------------------
 .byte   W96
@  #05 @065   ----------------------------------------
 .byte   W96
@  #05 @066   ----------------------------------------
 .byte   W96
@  #05 @067   ----------------------------------------
 .byte   W96
@  #05 @068   ----------------------------------------
 .byte   W96
@  #05 @069   ----------------------------------------
 .byte   W96
@  #05 @070   ----------------------------------------
 .byte   W96
@  #05 @071   ----------------------------------------
 .byte   W96
@  #05 @072   ----------------------------------------
 .byte   PATT
  .word Label_013DAAAB
@  #05 @073   ----------------------------------------
 .byte   PATT
  .word Label_013DAABD
@  #05 @074   ----------------------------------------
 .byte   PATT
  .word Label_013DAAAB
@  #05 @075   ----------------------------------------
 .byte   PATT
  .word Label_013DAABD
@  #05 @076   ----------------------------------------
 .byte   W96
@  #05 @077   ----------------------------------------
 .byte   W96
@  #05 @078   ----------------------------------------
 .byte   W96
@  #05 @079   ----------------------------------------
 .byte   W96
@  #05 @080   ----------------------------------------
 .byte   W96
@  #05 @081   ----------------------------------------
 .byte   W96
@  #05 @082   ----------------------------------------
 .byte   W96
@  #05 @083   ----------------------------------------
 .byte   W96
@  #05 @084   ----------------------------------------
 .byte   PATT
  .word Label_013DA9F6
@  #05 @085   ----------------------------------------
 .byte   PATT
  .word Label_013DAA07
@  #05 @086   ----------------------------------------
 .byte   PATT
  .word Label_013DAA18
@  #05 @087   ----------------------------------------
 .byte   PATT
  .word Label_013DAA29
@  #05 @088   ----------------------------------------
 .byte   PATT
  .word Label_013DAA39
@  #05 @089   ----------------------------------------
 .byte   PATT
  .word Label_013DAA47
@  #05 @090   ----------------------------------------
 .byte   PATT
  .word Label_013DAA63
@  #05 @091   ----------------------------------------
 .byte   W96
@  #05 @092   ----------------------------------------
 .byte   PATT
  .word Label_013DA9F6
@  #05 @093   ----------------------------------------
 .byte   PATT
  .word Label_013DAA07
@  #05 @094   ----------------------------------------
 .byte   PATT
  .word Label_013DAA18
@  #05 @095   ----------------------------------------
 .byte   PATT
  .word Label_013DAA29
@  #05 @096   ----------------------------------------
 .byte   PATT
  .word Label_013DAA39
@  #05 @097   ----------------------------------------
 .byte   PATT
  .word Label_013DAA47
@  #05 @098   ----------------------------------------
 .byte   PATT
  .word Label_013DAA95
@  #05 @099   ----------------------------------------
 .byte   N06 ,Gn5 ,v072
 .byte   W96
@  #05 @100   ----------------------------------------
 .byte   W96
@  #05 @101   ----------------------------------------
 .byte   W96
@  #05 @102   ----------------------------------------
 .byte   W96
@  #05 @103   ----------------------------------------
 .byte   PATT
  .word Label_013DAAAB
@  #05 @104   ----------------------------------------
 .byte   PATT
  .word Label_013DAABD
@  #05 @105   ----------------------------------------
 .byte   PATT
  .word Label_013DAAAB
@  #05 @106   ----------------------------------------
 .byte   PATT
  .word Label_013DAABD
@  #05 @107   ----------------------------------------
 .byte   W96
@  #05 @108   ----------------------------------------
 .byte   W96
@  #05 @109   ----------------------------------------
 .byte   W96
@  #05 @110   ----------------------------------------
 .byte   W96
@  #05 @111   ----------------------------------------
 .byte   W96
@  #05 @112   ----------------------------------------
 .byte   W96
@  #05 @113   ----------------------------------------
 .byte   W96
@  #05 @114   ----------------------------------------
 .byte   W96
@  #05 @115   ----------------------------------------
 .byte   W96
@  #05 @116   ----------------------------------------
 .byte   W96
@  #05 @117   ----------------------------------------
 .byte   W96
@  #05 @118   ----------------------------------------
 .byte   W96
@  #05 @119   ----------------------------------------
 .byte   W96
@  #05 @120   ----------------------------------------
 .byte   W96
@  #05 @121   ----------------------------------------
 .byte   W96
@  #05 @122   ----------------------------------------
 .byte   W96
@  #05 @123   ----------------------------------------
 .byte   W96
@  #05 @124   ----------------------------------------
 .byte   W96
@  #05 @125   ----------------------------------------
 .byte   W96
@  #05 @126   ----------------------------------------
 .byte   W96
@  #05 @127   ----------------------------------------
 .byte   W96
@  #05 @128   ----------------------------------------
 .byte   W96
@  #05 @129   ----------------------------------------
 .byte   W96
@  #05 @130   ----------------------------------------
 .byte   W96
@  #05 @131   ----------------------------------------
 .byte   W96
@  #05 @132   ----------------------------------------
 .byte   W96
@  #05 @133   ----------------------------------------
 .byte   W96
@  #05 @134   ----------------------------------------
 .byte   W96
@  #05 @135   ----------------------------------------
 .byte   W96
@  #05 @136   ----------------------------------------
 .byte   W96
@  #05 @137   ----------------------------------------
 .byte   W96
@  #05 @138   ----------------------------------------
 .byte   W96
@  #05 @139   ----------------------------------------
 .byte   W96
@  #05 @140   ----------------------------------------
 .byte   W96
@  #05 @141   ----------------------------------------
 .byte   W96
@  #05 @142   ----------------------------------------
 .byte   W96
@  #05 @143   ----------------------------------------
 .byte   PATT
  .word Label_013DAAAB
@  #05 @144   ----------------------------------------
 .byte   PATT
  .word Label_013DAABD
@  #05 @145   ----------------------------------------
 .byte   PATT
  .word Label_013DAAAB
@  #05 @146   ----------------------------------------
 .byte   PATT
  .word Label_013DAABD
@  #05 @147   ----------------------------------------
 .byte   W96
@  #05 @148   ----------------------------------------
 .byte   W96
@  #05 @149   ----------------------------------------
 .byte   W96
@  #05 @150   ----------------------------------------
 .byte   W96
@  #05 @151   ----------------------------------------
 .byte   W96
@  #05 @152   ----------------------------------------
 .byte   W96
@  #05 @153   ----------------------------------------
 .byte   W96
@  #05 @154   ----------------------------------------
 .byte   W96
@  #05 @155   ----------------------------------------
 .byte   PATT
  .word Label_013DA9F6
@  #05 @156   ----------------------------------------
 .byte   PATT
  .word Label_013DAA07
@  #05 @157   ----------------------------------------
 .byte   PATT
  .word Label_013DAA18
@  #05 @158   ----------------------------------------
 .byte   PATT
  .word Label_013DAA29
@  #05 @159   ----------------------------------------
 .byte   PATT
  .word Label_013DAA39
@  #05 @160   ----------------------------------------
 .byte   PATT
  .word Label_013DAA47
@  #05 @161   ----------------------------------------
 .byte   PATT
  .word Label_013DAA63
@  #05 @162   ----------------------------------------
 .byte   W96
@  #05 @163   ----------------------------------------
 .byte   GOTO
  .word Label_013DAA77
@  #05 @164   ----------------------------------------
 .byte   PATT
  .word Label_013DA9F6
@  #05 @165   ----------------------------------------
 .byte   PATT
  .word Label_013DAA07
@  #05 @166   ----------------------------------------
 .byte   N12 ,Dn4 ,v072
 .byte   W18
 .byte   Gn4
 .byte   W18
 .byte   N06 ,As4
 .byte   W06
 .byte   Cn5
 .byte   W06
 .byte   N12 ,Dn5
 .byte   W24
 .byte   Fn4
 .byte   W12
 .byte   FINE

@**************** Track 6 (Midi-Chn.5) ****************@

song09_006:
@  #06 @000   ----------------------------------------
 .byte   KEYSH , song09_key+0
 .byte   VOICE , 20
 .byte   MODT 0
 .byte   LFOS 44
 .byte   VOL , 96*song09_mvl/mxv
 .byte   MODT 0
 .byte   LFOS 44
 .byte   W08
 .byte   N04 ,Cs3 ,v072
 .byte   W04
 .byte   Dn3
 .byte   W04
 .byte   Cs3
 .byte   W04
 .byte   Dn3
 .byte   W04
 .byte   N06 ,As3
 .byte   W06
 .byte   An3
 .byte   W06
 .byte   Gn3
 .byte   W06
 .byte   An3
 .byte   W06
 .byte   Gn3
 .byte   W06
 .byte   Fn3
 .byte   W06
 .byte   Gn3
 .byte   W06
 .byte   En3
 .byte   W06
 .byte   Dn3
 .byte   W06
 .byte   Cs3
 .byte   W06
 .byte   En3
 .byte   W06
 .byte   As3
 .byte   W06
@  #06 @001   ----------------------------------------
 .byte   N04 ,Dn4
 .byte   W04
 .byte   Cs4
 .byte   W04
 .byte   Dn4
 .byte   W04
 .byte   An3
 .byte   W04
 .byte   Gn3
 .byte   W04
 .byte   An3
 .byte   W04
 .byte   N06 ,Fn3
 .byte   W06
 .byte   En3
 .byte   W06
 .byte   Fn3
 .byte   W06
 .byte   Dn3
 .byte   W06
 .byte   En3
 .byte   W06
 .byte   Fn3
 .byte   W06
 .byte   Gn3
 .byte   W06
 .byte   As3
 .byte   W06
 .byte   Cs4
 .byte   W06
 .byte   Dn4
 .byte   W06
 .byte   En4
 .byte   W06
 .byte   Cs4
 .byte   W06
@  #06 @002   ----------------------------------------
 .byte   N04 ,Dn5 ,v064
 .byte   W04
 .byte   En5 ,v056
 .byte   W04
 .byte   Dn5 ,v052
 .byte   W04
 .byte   En5 ,v044
 .byte   W04
 .byte   Dn5 ,v036
 .byte   W04
 .byte   En5 ,v032
 .byte   W04
 .byte   Dn5
 .byte   W04
 .byte   En5
 .byte   W04
 .byte   Dn5 ,v036
 .byte   W04
 .byte   En5 ,v044
 .byte   W04
 .byte   Dn5 ,v048
 .byte   W04
 .byte   En5 ,v052
 .byte   W04
 .byte   Dn5 ,v056
 .byte   W04
 .byte   En5 ,v060
 .byte   W04
 .byte   Dn5 ,v064
 .byte   W04
 .byte   En5 ,v072
 .byte   W04
 .byte   Dn5 ,v076
 .byte   W04
 .byte   En5
 .byte   W04
 .byte   Dn5 ,v088
 .byte   W04
 .byte   En5 ,v092
 .byte   W04
 .byte   Dn5 ,v100
 .byte   W04
 .byte   En5 ,v104
 .byte   W04
 .byte   Dn5 ,v112
 .byte   W04
 .byte   En5 ,v116
 .byte   W04
@  #06 @003   ----------------------------------------
 .byte   W96
@  #06 @004   ----------------------------------------
 .byte   W96
@  #06 @005   ----------------------------------------
 .byte   W96
@  #06 @006   ----------------------------------------
 .byte   W96
@  #06 @007   ----------------------------------------
 .byte   W96
@  #06 @008   ----------------------------------------
 .byte   W96
@  #06 @009   ----------------------------------------
 .byte   W96
@  #06 @010   ----------------------------------------
 .byte   W96
@  #06 @011   ----------------------------------------
 .byte   W96
@  #06 @012   ----------------------------------------
 .byte   W96
@  #06 @013   ----------------------------------------
 .byte   W96
@  #06 @014   ----------------------------------------
 .byte   W96
@  #06 @015   ----------------------------------------
 .byte   W96
@  #06 @016   ----------------------------------------
Label_013C1BEF:
 .byte   N06 ,An2 ,v048
 .byte   W06
 .byte   Gn2
 .byte   W06
 .byte   An2
 .byte   W06
 .byte   Fn3
 .byte   W06
 .byte   An3
 .byte   W06
 .byte   An2
 .byte   W06
 .byte   Gn3
 .byte   W06
 .byte   An2
 .byte   W06
 .byte   Fn3
 .byte   W06
 .byte   An2
 .byte   W06
 .byte   Ds3
 .byte   W06
 .byte   An2
 .byte   W06
 .byte   Dn3
 .byte   W06
 .byte   Cn3
 .byte   W06
 .byte   Fn3
 .byte   W06
 .byte   Ds3
 .byte   W06
 .byte   PEND 
@  #06 @017   ----------------------------------------
Label_013C1C12:
 .byte   N04 ,Dn4 ,v048
 .byte   W04
 .byte   Cn4
 .byte   W04
 .byte   Dn4
 .byte   W04
 .byte   As3
 .byte   W04
 .byte   An3
 .byte   W04
 .byte   As3
 .byte   W04
 .byte   N06 ,Fn3
 .byte   W06
 .byte   En3
 .byte   W06
 .byte   Fn3
 .byte   W06
 .byte   Dn3
 .byte   W06
 .byte   En3
 .byte   W06
 .byte   Fn3
 .byte   W06
 .byte   Gn3
 .byte   W06
 .byte   As3
 .byte   W06
 .byte   Cn4
 .byte   W06
 .byte   Dn4
 .byte   W06
 .byte   Fn4
 .byte   W06
 .byte   Dn4
 .byte   W06
 .byte   PEND 
@  #06 @018   ----------------------------------------
Label_013C1C3A:
 .byte   N04 ,Dn4 ,v048
 .byte   W04
 .byte   Ds4
 .byte   W04
 .byte   Dn4
 .byte   W04
 .byte   Ds4
 .byte   W04
 .byte   Dn4
 .byte   W04
 .byte   Ds4
 .byte   W04
 .byte   Dn4
 .byte   W04
 .byte   Ds4
 .byte   W04
 .byte   Dn4
 .byte   W04
 .byte   Ds4
 .byte   W04
 .byte   Dn4
 .byte   W04
 .byte   Ds4
 .byte   W04
 .byte   Dn4
 .byte   W04
 .byte   Ds4
 .byte   W04
 .byte   Dn4
 .byte   W04
 .byte   Ds4
 .byte   W04
 .byte   Dn4
 .byte   W04
 .byte   Ds4
 .byte   W04
 .byte   N06 ,Dn4
 .byte   W06
 .byte   Cn4
 .byte   W06
 .byte   As3
 .byte   W06
 .byte   An3
 .byte   W06
 .byte   PEND 
@  #06 @019   ----------------------------------------
Label_013C1C6A:
 .byte   N06 ,Fs3 ,v048
 .byte   W06
 .byte   Gn3
 .byte   W06
 .byte   Dn4
 .byte   W06
 .byte   Dn3
 .byte   W06
 .byte   Ds3
 .byte   W06
 .byte   As3
 .byte   W06
 .byte   Cn3
 .byte   W06
 .byte   Dn3
 .byte   W06
 .byte   An3
 .byte   W06
 .byte   Gn3
 .byte   W06
 .byte   Fs3
 .byte   W06
 .byte   Ds3
 .byte   W06
 .byte   Dn3
 .byte   W06
 .byte   Cn3
 .byte   W06
 .byte   As2
 .byte   W06
 .byte   An2
 .byte   W06
 .byte   PEND 
@  #06 @020   ----------------------------------------
Label_013C1C8D:
 .byte   W96
@  #06 @021   ----------------------------------------
 .byte   W96
@  #06 @022   ----------------------------------------
 .byte   W96
@  #06 @023   ----------------------------------------
 .byte   W96
@  #06 @024   ----------------------------------------
 .byte   PATT
  .word Label_013C1BEF
@  #06 @025   ----------------------------------------
 .byte   PATT
  .word Label_013C1C12
@  #06 @026   ----------------------------------------
 .byte   PATT
  .word Label_013C1C3A
@  #06 @027   ----------------------------------------
 .byte   W96
@  #06 @028   ----------------------------------------
 .byte   W96
@  #06 @029   ----------------------------------------
 .byte   W96
@  #06 @030   ----------------------------------------
 .byte   W96
@  #06 @031   ----------------------------------------
 .byte   W96
@  #06 @032   ----------------------------------------
 .byte   W96
@  #06 @033   ----------------------------------------
 .byte   W96
@  #06 @034   ----------------------------------------
 .byte   W96
@  #06 @035   ----------------------------------------
 .byte   W96
@  #06 @036   ----------------------------------------
 .byte   W96
@  #06 @037   ----------------------------------------
 .byte   W96
@  #06 @038   ----------------------------------------
 .byte   W96
@  #06 @039   ----------------------------------------
 .byte   W96
@  #06 @040   ----------------------------------------
 .byte   W96
@  #06 @041   ----------------------------------------
 .byte   W96
@  #06 @042   ----------------------------------------
 .byte   W96
@  #06 @043   ----------------------------------------
 .byte   W96
@  #06 @044   ----------------------------------------
 .byte   W96
@  #06 @045   ----------------------------------------
 .byte   W96
@  #06 @046   ----------------------------------------
 .byte   W96
@  #06 @047   ----------------------------------------
 .byte   W96
@  #06 @048   ----------------------------------------
 .byte   W96
@  #06 @049   ----------------------------------------
 .byte   W96
@  #06 @050   ----------------------------------------
 .byte   W96
@  #06 @051   ----------------------------------------
 .byte   W96
@  #06 @052   ----------------------------------------
 .byte   W96
@  #06 @053   ----------------------------------------
 .byte   W96
@  #06 @054   ----------------------------------------
 .byte   W96
@  #06 @055   ----------------------------------------
 .byte   W96
@  #06 @056   ----------------------------------------
 .byte   W96
@  #06 @057   ----------------------------------------
 .byte   W96
@  #06 @058   ----------------------------------------
 .byte   W96
@  #06 @059   ----------------------------------------
 .byte   W96
@  #06 @060   ----------------------------------------
 .byte   W96
@  #06 @061   ----------------------------------------
 .byte   W96
@  #06 @062   ----------------------------------------
 .byte   W96
@  #06 @063   ----------------------------------------
 .byte   W96
@  #06 @064   ----------------------------------------
 .byte   W96
@  #06 @065   ----------------------------------------
 .byte   W96
@  #06 @066   ----------------------------------------
 .byte   W96
@  #06 @067   ----------------------------------------
 .byte   W96
@  #06 @068   ----------------------------------------
 .byte   W96
@  #06 @069   ----------------------------------------
 .byte   W96
@  #06 @070   ----------------------------------------
 .byte   W96
@  #06 @071   ----------------------------------------
 .byte   W96
@  #06 @072   ----------------------------------------
 .byte   W96
@  #06 @073   ----------------------------------------
 .byte   W96
@  #06 @074   ----------------------------------------
 .byte   W96
@  #06 @075   ----------------------------------------
 .byte   W96
@  #06 @076   ----------------------------------------
 .byte   W96
@  #06 @077   ----------------------------------------
 .byte   W96
@  #06 @078   ----------------------------------------
 .byte   W96
@  #06 @079   ----------------------------------------
 .byte   W96
@  #06 @080   ----------------------------------------
 .byte   W96
@  #06 @081   ----------------------------------------
 .byte   W96
@  #06 @082   ----------------------------------------
 .byte   W96
@  #06 @083   ----------------------------------------
 .byte   W96
@  #06 @084   ----------------------------------------
 .byte   W96
@  #06 @085   ----------------------------------------
 .byte   W96
@  #06 @086   ----------------------------------------
 .byte   W96
@  #06 @087   ----------------------------------------
 .byte   PATT
  .word Label_013C1BEF
@  #06 @088   ----------------------------------------
 .byte   PATT
  .word Label_013C1C12
@  #06 @089   ----------------------------------------
 .byte   PATT
  .word Label_013C1C3A
@  #06 @090   ----------------------------------------
 .byte   PATT
  .word Label_013C1C6A
@  #06 @091   ----------------------------------------
 .byte   W96
@  #06 @092   ----------------------------------------
 .byte   W96
@  #06 @093   ----------------------------------------
 .byte   W96
@  #06 @094   ----------------------------------------
 .byte   W96
@  #06 @095   ----------------------------------------
 .byte   PATT
  .word Label_013C1BEF
@  #06 @096   ----------------------------------------
 .byte   PATT
  .word Label_013C1C12
@  #06 @097   ----------------------------------------
 .byte   PATT
  .word Label_013C1C3A
@  #06 @098   ----------------------------------------
 .byte   W96
@  #06 @099   ----------------------------------------
 .byte   W96
@  #06 @100   ----------------------------------------
 .byte   W96
@  #06 @101   ----------------------------------------
 .byte   W96
@  #06 @102   ----------------------------------------
 .byte   W96
@  #06 @103   ----------------------------------------
 .byte   W96
@  #06 @104   ----------------------------------------
 .byte   W96
@  #06 @105   ----------------------------------------
 .byte   W96
@  #06 @106   ----------------------------------------
 .byte   W96
@  #06 @107   ----------------------------------------
 .byte   W96
@  #06 @108   ----------------------------------------
 .byte   W96
@  #06 @109   ----------------------------------------
 .byte   W96
@  #06 @110   ----------------------------------------
 .byte   W96
@  #06 @111   ----------------------------------------
 .byte   W96
@  #06 @112   ----------------------------------------
 .byte   W96
@  #06 @113   ----------------------------------------
 .byte   W96
@  #06 @114   ----------------------------------------
 .byte   W96
@  #06 @115   ----------------------------------------
 .byte   W96
@  #06 @116   ----------------------------------------
 .byte   W96
@  #06 @117   ----------------------------------------
 .byte   W96
@  #06 @118   ----------------------------------------
 .byte   W96
@  #06 @119   ----------------------------------------
 .byte   W96
@  #06 @120   ----------------------------------------
 .byte   W96
@  #06 @121   ----------------------------------------
 .byte   W96
@  #06 @122   ----------------------------------------
 .byte   W96
@  #06 @123   ----------------------------------------
 .byte   W96
@  #06 @124   ----------------------------------------
 .byte   W96
@  #06 @125   ----------------------------------------
 .byte   W96
@  #06 @126   ----------------------------------------
 .byte   W96
@  #06 @127   ----------------------------------------
 .byte   W96
@  #06 @128   ----------------------------------------
 .byte   W96
@  #06 @129   ----------------------------------------
 .byte   W96
@  #06 @130   ----------------------------------------
 .byte   W96
@  #06 @131   ----------------------------------------
 .byte   W96
@  #06 @132   ----------------------------------------
 .byte   W96
@  #06 @133   ----------------------------------------
 .byte   W96
@  #06 @134   ----------------------------------------
 .byte   W96
@  #06 @135   ----------------------------------------
 .byte   W96
@  #06 @136   ----------------------------------------
 .byte   W96
@  #06 @137   ----------------------------------------
 .byte   W96
@  #06 @138   ----------------------------------------
 .byte   W96
@  #06 @139   ----------------------------------------
 .byte   W96
@  #06 @140   ----------------------------------------
 .byte   W96
@  #06 @141   ----------------------------------------
 .byte   W96
@  #06 @142   ----------------------------------------
 .byte   W96
@  #06 @143   ----------------------------------------
 .byte   W96
@  #06 @144   ----------------------------------------
 .byte   W96
@  #06 @145   ----------------------------------------
 .byte   W96
@  #06 @146   ----------------------------------------
 .byte   W96
@  #06 @147   ----------------------------------------
 .byte   W96
@  #06 @148   ----------------------------------------
 .byte   W96
@  #06 @149   ----------------------------------------
 .byte   W96
@  #06 @150   ----------------------------------------
 .byte   W96
@  #06 @151   ----------------------------------------
 .byte   W96
@  #06 @152   ----------------------------------------
 .byte   W96
@  #06 @153   ----------------------------------------
 .byte   W96
@  #06 @154   ----------------------------------------
 .byte   W96
@  #06 @155   ----------------------------------------
 .byte   W96
@  #06 @156   ----------------------------------------
 .byte   W96
@  #06 @157   ----------------------------------------
 .byte   W96
@  #06 @158   ----------------------------------------
 .byte   PATT
  .word Label_013C1BEF
@  #06 @159   ----------------------------------------
 .byte   PATT
  .word Label_013C1C12
@  #06 @160   ----------------------------------------
 .byte   PATT
  .word Label_013C1C3A
@  #06 @161   ----------------------------------------
 .byte   PATT
  .word Label_013C1C6A
@  #06 @162   ----------------------------------------
 .byte   GOTO
  .word Label_013C1C8D
@  #06 @163   ----------------------------------------
 .byte   W96
@  #06 @164   ----------------------------------------
 .byte   W96
@  #06 @165   ----------------------------------------
 .byte   W12
 .byte   FINE

@**************** Track 7 (Midi-Chn.6) ****************@

song09_007:
@  #07 @000   ----------------------------------------
 .byte   KEYSH , song09_key+0
 .byte   VOICE , 2
 .byte   MODT 0
 .byte   LFOS 44
 .byte   VOL , 56*song09_mvl/mxv
 .byte   MODT 0
 .byte   LFOS 44
 .byte   N06 ,Dn1 ,v072
 .byte   W06
 .byte   Dn2
 .byte   W06
 .byte   Dn1
 .byte   W06
 .byte   N06
 .byte   W06
 .byte   Dn2
 .byte   W06
 .byte   Dn1
 .byte   W06
 .byte   N06
 .byte   W06
 .byte   Dn2
 .byte   W06
 .byte   Dn1
 .byte   W06
 .byte   N06
 .byte   W06
 .byte   Dn2
 .byte   W06
 .byte   Dn1
 .byte   W06
 .byte   N06
 .byte   W06
 .byte   Dn2
 .byte   W06
 .byte   Dn1
 .byte   W06
 .byte   N06
 .byte   W06
@  #07 @001   ----------------------------------------
 .byte   N06
 .byte   W06
 .byte   Dn2
 .byte   W06
 .byte   Dn1
 .byte   W06
 .byte   N06
 .byte   W06
 .byte   Dn2
 .byte   W06
 .byte   Dn1
 .byte   W06
 .byte   N06
 .byte   W06
 .byte   Dn2
 .byte   W06
 .byte   Dn1
 .byte   W06
 .byte   N06
 .byte   W06
 .byte   Dn2
 .byte   W06
 .byte   Dn1
 .byte   W06
 .byte   N06
 .byte   W06
 .byte   Dn2
 .byte   W06
 .byte   N12 ,Cn1
 .byte   W12
@  #07 @002   ----------------------------------------
 .byte   N06 ,Dn1
 .byte   W06
 .byte   Dn2
 .byte   W06
 .byte   Dn1
 .byte   W06
 .byte   N06
 .byte   W06
 .byte   Dn2
 .byte   W06
 .byte   Dn1
 .byte   W06
 .byte   N06
 .byte   W06
 .byte   Dn2
 .byte   W06
 .byte   Dn1
 .byte   W06
 .byte   N06
 .byte   W06
 .byte   Dn2
 .byte   W06
 .byte   Dn1
 .byte   W06
 .byte   N24
 .byte   W24
@  #07 @003   ----------------------------------------
 .byte   N12 ,As1
 .byte   W12
 .byte   N06 ,As2
 .byte   W12
 .byte   N12 ,An1
 .byte   W12
 .byte   N06 ,An2
 .byte   W12
 .byte   N12 ,Gn1
 .byte   W12
 .byte   N06 ,Gn2
 .byte   W12
 .byte   N24 ,Fs1
 .byte   W24
@  #07 @004   ----------------------------------------
Label_013DB273:
 .byte   N06 ,Gn1 ,v072
 .byte   W06
 .byte   N12 ,Gn0
 .byte   W12
 .byte   N06 ,Gn2
 .byte   W06
 .byte   Gn1
 .byte   W06
 .byte   Gn2
 .byte   W06
 .byte   Gn0
 .byte   W06
 .byte   N06
 .byte   W06
 .byte   Gn1
 .byte   W06
 .byte   N12 ,Gn0
 .byte   W12
 .byte   N06 ,Gn2
 .byte   W06
 .byte   Gn1
 .byte   W06
 .byte   Gn2
 .byte   W06
 .byte   Gn0
 .byte   W06
 .byte   N06
 .byte   W06
 .byte   PEND 
@  #07 @005   ----------------------------------------
Label_013DB296:
 .byte   N06 ,Fs1 ,v072
 .byte   W06
 .byte   N12 ,Fs0
 .byte   W12
 .byte   N06 ,Fs2
 .byte   W06
 .byte   Fs1
 .byte   W06
 .byte   Fs2
 .byte   W06
 .byte   Fs0
 .byte   W06
 .byte   N06
 .byte   W06
 .byte   Fs1
 .byte   W06
 .byte   N12 ,Fs0
 .byte   W12
 .byte   N06 ,Fs2
 .byte   W06
 .byte   Fs1
 .byte   W06
 .byte   Fs2
 .byte   W06
 .byte   Fs0
 .byte   W06
 .byte   N06
 .byte   W06
 .byte   PEND 
@  #07 @006   ----------------------------------------
Label_013DB2B9:
 .byte   N06 ,Fn1 ,v072
 .byte   W06
 .byte   N12 ,Fn0
 .byte   W12
 .byte   N06 ,Fn2
 .byte   W06
 .byte   Fn1
 .byte   W06
 .byte   Fn2
 .byte   W06
 .byte   Fn0
 .byte   W06
 .byte   N06
 .byte   W06
 .byte   Fn1
 .byte   W06
 .byte   N12 ,Fn0
 .byte   W12
 .byte   N06 ,Fn2
 .byte   W06
 .byte   Fn1
 .byte   W06
 .byte   Fn2
 .byte   W06
 .byte   Fn0
 .byte   W06
 .byte   N06
 .byte   W06
 .byte   PEND 
@  #07 @007   ----------------------------------------
Label_013DB2DC:
 .byte   N06 ,En1 ,v072
 .byte   W06
 .byte   N12 ,En0
 .byte   W12
 .byte   N06 ,En2
 .byte   W06
 .byte   En1
 .byte   W06
 .byte   En2
 .byte   W06
 .byte   En0
 .byte   W06
 .byte   N06
 .byte   W06
 .byte   En1
 .byte   W06
 .byte   N12 ,En0
 .byte   W12
 .byte   N06 ,En2
 .byte   W06
 .byte   En1
 .byte   W06
 .byte   En2
 .byte   W06
 .byte   En0
 .byte   W06
 .byte   N06
 .byte   W06
 .byte   PEND 
@  #07 @008   ----------------------------------------
 .byte   PATT
  .word Label_013DB273
@  #07 @009   ----------------------------------------
 .byte   PATT
  .word Label_013DB296
@  #07 @010   ----------------------------------------
 .byte   PATT
  .word Label_013DB2B9
@  #07 @011   ----------------------------------------
 .byte   PATT
  .word Label_013DB2DC
@  #07 @012   ----------------------------------------
 .byte   PATT
  .word Label_013DB273
@  #07 @013   ----------------------------------------
 .byte   PATT
  .word Label_013DB296
@  #07 @014   ----------------------------------------
 .byte   PATT
  .word Label_013DB2B9
@  #07 @015   ----------------------------------------
 .byte   PATT
  .word Label_013DB2DC
@  #07 @016   ----------------------------------------
 .byte   PATT
  .word Label_013DB2B9
@  #07 @017   ----------------------------------------
Label_013DB32C:
 .byte   N06 ,As1 ,v072
 .byte   W06
 .byte   N12 ,As0
 .byte   W12
 .byte   N06 ,As2
 .byte   W06
 .byte   As1
 .byte   W06
 .byte   As2
 .byte   W06
 .byte   As0
 .byte   W06
 .byte   N06
 .byte   W06
 .byte   As1
 .byte   W06
 .byte   N12 ,As0
 .byte   W12
 .byte   N06 ,As2
 .byte   W06
 .byte   As1
 .byte   W06
 .byte   As2
 .byte   W06
 .byte   As0
 .byte   W06
 .byte   N06
 .byte   W06
 .byte   PEND 
@  #07 @018   ----------------------------------------
Label_013DB34F:
 .byte   N06 ,Ds1 ,v072
 .byte   W06
 .byte   N12 ,Ds0
 .byte   W12
 .byte   N06 ,Ds2
 .byte   W06
 .byte   Ds1
 .byte   W06
 .byte   Ds2
 .byte   W06
 .byte   Ds0
 .byte   W06
 .byte   N06
 .byte   W06
 .byte   Ds1
 .byte   W06
 .byte   N12 ,Ds0
 .byte   W12
 .byte   N06 ,Ds2
 .byte   W06
 .byte   Ds1
 .byte   W06
 .byte   Ds2
 .byte   W06
 .byte   Ds0
 .byte   W06
 .byte   N06
 .byte   W06
 .byte   PEND 
@  #07 @019   ----------------------------------------
Label_013DB372:
 .byte   N06 ,Dn1 ,v072
 .byte   W06
 .byte   N12 ,Dn0
 .byte   W12
 .byte   N06 ,Dn2
 .byte   W06
 .byte   Dn1
 .byte   W06
 .byte   Dn2
 .byte   W06
 .byte   Dn0
 .byte   W06
 .byte   N06
 .byte   W06
 .byte   Dn1
 .byte   W06
 .byte   N12 ,Dn0
 .byte   W12
 .byte   N06 ,Dn2
 .byte   W06
 .byte   Dn1
 .byte   W06
 .byte   Dn2
 .byte   W06
 .byte   Dn0
 .byte   W06
 .byte   N06
 .byte   W06
 .byte   PEND 
@  #07 @020   ----------------------------------------
Label_013DB395:
@  #07 @021   ----------------------------------------
 .byte   PATT
  .word Label_013DB273
@  #07 @022   ----------------------------------------
 .byte   PATT
  .word Label_013DB296
@  #07 @023   ----------------------------------------
 .byte   PATT
  .word Label_013DB32C
@  #07 @024   ----------------------------------------
 .byte   PATT
  .word Label_013DB2DC
@  #07 @025   ----------------------------------------
 .byte   PATT
  .word Label_013DB2B9
@  #07 @026   ----------------------------------------
Label_013DB3AE:
 .byte   N06 ,Gn1 ,v072
 .byte   W06
 .byte   N12 ,Gn0
 .byte   W12
 .byte   N06 ,Gn2
 .byte   W06
 .byte   Gn1
 .byte   W06
 .byte   Gn2
 .byte   W06
 .byte   Gn0
 .byte   W06
 .byte   N06
 .byte   W06
 .byte   Fn1
 .byte   W06
 .byte   N12 ,Fn0
 .byte   W12
 .byte   N06 ,Fn2
 .byte   W06
 .byte   Fn1
 .byte   W06
 .byte   Fn2
 .byte   W06
 .byte   Fn0
 .byte   W06
 .byte   N06
 .byte   W06
 .byte   PEND 
@  #07 @027   ----------------------------------------
 .byte   PATT
  .word Label_013DB372
@  #07 @028   ----------------------------------------
 .byte   PATT
  .word Label_013DB3AE
@  #07 @029   ----------------------------------------
Label_013DB3DB:
 .byte   N06 ,Ds1 ,v072
 .byte   W06
 .byte   N12 ,Ds0
 .byte   W12
 .byte   N06 ,Ds2
 .byte   W06
 .byte   Ds1
 .byte   W06
 .byte   Ds2
 .byte   W06
 .byte   Ds0
 .byte   W06
 .byte   N06
 .byte   W06
 .byte   Dn1
 .byte   W06
 .byte   N15 ,Dn2
 .byte   W18
 .byte   N06
 .byte   W06
 .byte   Dn1
 .byte   W06
 .byte   N06
 .byte   W06
 .byte   N06
 .byte   W06
 .byte   PEND 
@  #07 @030   ----------------------------------------
 .byte   PATT
  .word Label_013DB3AE
@  #07 @031   ----------------------------------------
 .byte   PATT
  .word Label_013DB3DB
@  #07 @032   ----------------------------------------
 .byte   PATT
  .word Label_013DB3AE
@  #07 @033   ----------------------------------------
 .byte   PATT
  .word Label_013DB3DB
@  #07 @034   ----------------------------------------
 .byte   PATT
  .word Label_013DB3AE
@  #07 @035   ----------------------------------------
 .byte   PATT
  .word Label_013DB3DB
@  #07 @036   ----------------------------------------
Label_013DB419:
 .byte   N12 ,Dn0 ,v072
 .byte   W12
 .byte   N18 ,Dn1
 .byte   W24
 .byte   N12 ,Cn1
 .byte   W18
 .byte   N04 ,As0
 .byte   W06
 .byte   An0
 .byte   W06
 .byte   Gn0
 .byte   W06
 .byte   Fn0
 .byte   W06
 .byte   Gn0
 .byte   W06
 .byte   An0
 .byte   W06
 .byte   Dn1
 .byte   W06
 .byte   PEND 
@  #07 @037   ----------------------------------------
 .byte   PATT
  .word Label_013DB419
@  #07 @038   ----------------------------------------
Label_013DB438:
 .byte   N12 ,Gn0 ,v072
 .byte   W12
 .byte   N18 ,Gn1
 .byte   W24
 .byte   N12 ,Fn1
 .byte   W18
 .byte   N04 ,Ds1
 .byte   W06
 .byte   Dn1
 .byte   W06
 .byte   Cn1
 .byte   W06
 .byte   As0
 .byte   W06
 .byte   Cn1
 .byte   W06
 .byte   Dn1
 .byte   W06
 .byte   Gn1
 .byte   W06
 .byte   PEND 
@  #07 @039   ----------------------------------------
 .byte   PATT
  .word Label_013DB438
@  #07 @040   ----------------------------------------
Label_013DB457:
 .byte   N12 ,Cn1 ,v072
 .byte   W12
 .byte   N18 ,Cn2
 .byte   W24
 .byte   N12 ,As1
 .byte   W18
 .byte   N04 ,Gs1
 .byte   W06
 .byte   Gn1
 .byte   W06
 .byte   Fn1
 .byte   W06
 .byte   Ds1
 .byte   W06
 .byte   Fn1
 .byte   W06
 .byte   Gn1
 .byte   W06
 .byte   Cn2
 .byte   W06
 .byte   PEND 
@  #07 @041   ----------------------------------------
Label_013DB471:
 .byte   N12 ,Fn0 ,v072
 .byte   W12
 .byte   N18 ,Fn1
 .byte   W24
 .byte   N24 ,Cn1
 .byte   W24
 .byte   Fn1
 .byte   W24
 .byte   N12 ,Fn0
 .byte   W12
 .byte   PEND 
@  #07 @042   ----------------------------------------
Label_013DB481:
 .byte   N12 ,As0 ,v072
 .byte   W12
 .byte   N18 ,As1
 .byte   W24
 .byte   N12 ,An1
 .byte   W18
 .byte   N04 ,Gn1
 .byte   W06
 .byte   Fn1
 .byte   W06
 .byte   Ds1
 .byte   W06
 .byte   Dn1
 .byte   W06
 .byte   As0
 .byte   W06
 .byte   Dn1
 .byte   W06
 .byte   As0
 .byte   W06
 .byte   PEND 
@  #07 @043   ----------------------------------------
Label_013DB49B:
 .byte   N12 ,Ds1 ,v072
 .byte   W12
 .byte   N18 ,Ds2
 .byte   W24
 .byte   As1
 .byte   W24
 .byte   Gn1
 .byte   W24
 .byte   N12 ,Ds1
 .byte   W12
 .byte   PEND 
@  #07 @044   ----------------------------------------
 .byte   PATT
  .word Label_013DB419
@  #07 @045   ----------------------------------------
 .byte   PATT
  .word Label_013DB419
@  #07 @046   ----------------------------------------
 .byte   PATT
  .word Label_013DB438
@  #07 @047   ----------------------------------------
 .byte   PATT
  .word Label_013DB438
@  #07 @048   ----------------------------------------
Label_013DB4BE:
 .byte   N12 ,Bn0 ,v072
 .byte   W12
 .byte   N18 ,Bn1
 .byte   W24
 .byte   N12 ,An1
 .byte   W18
 .byte   N04 ,Gn1
 .byte   W06
 .byte   Fs1
 .byte   W06
 .byte   En1
 .byte   W06
 .byte   Dn1
 .byte   W06
 .byte   En1
 .byte   W06
 .byte   Fs1
 .byte   W06
 .byte   Bn1
 .byte   W06
 .byte   PEND 
@  #07 @049   ----------------------------------------
Label_013DB4D8:
 .byte   N12 ,En0 ,v072
 .byte   W12
 .byte   N18 ,En1
 .byte   W24
 .byte   N24 ,Bn0
 .byte   W24
 .byte   En1
 .byte   W24
 .byte   N12 ,En0
 .byte   W12
 .byte   PEND 
@  #07 @050   ----------------------------------------
Label_013DB4E8:
 .byte   N12 ,An0 ,v072
 .byte   W12
 .byte   N18 ,An1
 .byte   W24
 .byte   N12 ,Gn1
 .byte   W18
 .byte   N04 ,Fn1
 .byte   W06
 .byte   En1
 .byte   W06
 .byte   Dn1
 .byte   W06
 .byte   Cs1
 .byte   W06
 .byte   An0
 .byte   W06
 .byte   Cs1
 .byte   W06
 .byte   An0
 .byte   W06
 .byte   PEND 
@  #07 @051   ----------------------------------------
Label_013DB502:
 .byte   N12 ,An0 ,v072
 .byte   W12
 .byte   N18 ,An1
 .byte   W24
 .byte   En1
 .byte   W24
 .byte   Cs1
 .byte   W24
 .byte   N12 ,An0
 .byte   W12
 .byte   PEND 
@  #07 @052   ----------------------------------------
 .byte   PATT
  .word Label_013DB2B9
@  #07 @053   ----------------------------------------
 .byte   PATT
  .word Label_013DB273
@  #07 @054   ----------------------------------------
Label_013DB51B:
 .byte   N06 ,Gs1 ,v072
 .byte   W06
 .byte   N12 ,Gs0
 .byte   W12
 .byte   N06 ,Gs2
 .byte   W06
 .byte   Gs1
 .byte   W06
 .byte   Gs2
 .byte   W06
 .byte   Gs0
 .byte   W06
 .byte   N06
 .byte   W06
 .byte   Gs1
 .byte   W06
 .byte   N12 ,Gs0
 .byte   W12
 .byte   N06 ,Gs2
 .byte   W06
 .byte   Gs1
 .byte   W06
 .byte   Gs2
 .byte   W06
 .byte   Gs0
 .byte   W06
 .byte   N06
 .byte   W06
 .byte   PEND 
@  #07 @055   ----------------------------------------
 .byte   PATT
  .word Label_013DB51B
@  #07 @056   ----------------------------------------
Label_013DB543:
 .byte   N06 ,An1 ,v072
 .byte   W06
 .byte   N12 ,An0
 .byte   W12
 .byte   N06 ,An2
 .byte   W06
 .byte   An1
 .byte   W06
 .byte   An2
 .byte   W06
 .byte   An0
 .byte   W06
 .byte   N06
 .byte   W06
 .byte   An1
 .byte   W06
 .byte   N12 ,An0
 .byte   W12
 .byte   N06 ,An2
 .byte   W06
 .byte   An1
 .byte   W06
 .byte   An2
 .byte   W06
 .byte   An0
 .byte   W06
 .byte   N06
 .byte   W06
 .byte   PEND 
@  #07 @057   ----------------------------------------
 .byte   PATT
  .word Label_013DB32C
@  #07 @058   ----------------------------------------
Label_013DB56B:
 .byte   N06 ,Cs2 ,v072
 .byte   W06
 .byte   N12 ,Cs1
 .byte   W12
 .byte   N06 ,Cs3
 .byte   W06
 .byte   Cs2
 .byte   W06
 .byte   Cs3
 .byte   W06
 .byte   Cs1
 .byte   W06
 .byte   N06
 .byte   W06
 .byte   Cs2
 .byte   W06
 .byte   N12 ,Cs1
 .byte   W12
 .byte   N06 ,Cs3
 .byte   W06
 .byte   Cs2
 .byte   W06
 .byte   Cs3
 .byte   W06
 .byte   Cs1
 .byte   W06
 .byte   N06
 .byte   W06
 .byte   PEND 
@  #07 @059   ----------------------------------------
 .byte   PATT
  .word Label_013DB56B
@  #07 @060   ----------------------------------------
 .byte   PATT
  .word Label_013DB2B9
@  #07 @061   ----------------------------------------
 .byte   PATT
  .word Label_013DB273
@  #07 @062   ----------------------------------------
 .byte   PATT
  .word Label_013DB51B
@  #07 @063   ----------------------------------------
 .byte   PATT
  .word Label_013DB51B
@  #07 @064   ----------------------------------------
 .byte   PATT
  .word Label_013DB543
@  #07 @065   ----------------------------------------
 .byte   PATT
  .word Label_013DB32C
@  #07 @066   ----------------------------------------
 .byte   PATT
  .word Label_013DB56B
@  #07 @067   ----------------------------------------
 .byte   PATT
  .word Label_013DB56B
@  #07 @068   ----------------------------------------
 .byte   PATT
  .word Label_013DB3AE
@  #07 @069   ----------------------------------------
 .byte   PATT
  .word Label_013DB3DB
@  #07 @070   ----------------------------------------
 .byte   PATT
  .word Label_013DB3AE
@  #07 @071   ----------------------------------------
 .byte   PATT
  .word Label_013DB3DB
@  #07 @072   ----------------------------------------
 .byte   PATT
  .word Label_013DB3AE
@  #07 @073   ----------------------------------------
 .byte   PATT
  .word Label_013DB3DB
@  #07 @074   ----------------------------------------
 .byte   PATT
  .word Label_013DB3AE
@  #07 @075   ----------------------------------------
 .byte   PATT
  .word Label_013DB3DB
@  #07 @076   ----------------------------------------
 .byte   PATT
  .word Label_013DB273
@  #07 @077   ----------------------------------------
 .byte   PATT
  .word Label_013DB296
@  #07 @078   ----------------------------------------
 .byte   PATT
  .word Label_013DB2B9
@  #07 @079   ----------------------------------------
 .byte   PATT
  .word Label_013DB2DC
@  #07 @080   ----------------------------------------
 .byte   PATT
  .word Label_013DB273
@  #07 @081   ----------------------------------------
 .byte   PATT
  .word Label_013DB296
@  #07 @082   ----------------------------------------
 .byte   PATT
  .word Label_013DB2B9
@  #07 @083   ----------------------------------------
 .byte   PATT
  .word Label_013DB2DC
@  #07 @084   ----------------------------------------
 .byte   PATT
  .word Label_013DB273
@  #07 @085   ----------------------------------------
 .byte   PATT
  .word Label_013DB296
@  #07 @086   ----------------------------------------
 .byte   PATT
  .word Label_013DB2B9
@  #07 @087   ----------------------------------------
 .byte   PATT
  .word Label_013DB2DC
@  #07 @088   ----------------------------------------
 .byte   PATT
  .word Label_013DB2B9
@  #07 @089   ----------------------------------------
 .byte   PATT
  .word Label_013DB32C
@  #07 @090   ----------------------------------------
 .byte   PATT
  .word Label_013DB34F
@  #07 @091   ----------------------------------------
 .byte   PATT
  .word Label_013DB372
@  #07 @092   ----------------------------------------
 .byte   PATT
  .word Label_013DB273
@  #07 @093   ----------------------------------------
 .byte   PATT
  .word Label_013DB296
@  #07 @094   ----------------------------------------
 .byte   PATT
  .word Label_013DB32C
@  #07 @095   ----------------------------------------
 .byte   PATT
  .word Label_013DB2DC
@  #07 @096   ----------------------------------------
 .byte   PATT
  .word Label_013DB2B9
@  #07 @097   ----------------------------------------
 .byte   PATT
  .word Label_013DB3AE
@  #07 @098   ----------------------------------------
 .byte   PATT
  .word Label_013DB372
@  #07 @099   ----------------------------------------
 .byte   PATT
  .word Label_013DB3AE
@  #07 @100   ----------------------------------------
 .byte   PATT
  .word Label_013DB3DB
@  #07 @101   ----------------------------------------
 .byte   PATT
  .word Label_013DB3AE
@  #07 @102   ----------------------------------------
 .byte   PATT
  .word Label_013DB3DB
@  #07 @103   ----------------------------------------
 .byte   PATT
  .word Label_013DB3AE
@  #07 @104   ----------------------------------------
 .byte   PATT
  .word Label_013DB3DB
@  #07 @105   ----------------------------------------
 .byte   PATT
  .word Label_013DB3AE
@  #07 @106   ----------------------------------------
 .byte   PATT
  .word Label_013DB3DB
@  #07 @107   ----------------------------------------
 .byte   PATT
  .word Label_013DB419
@  #07 @108   ----------------------------------------
 .byte   PATT
  .word Label_013DB419
@  #07 @109   ----------------------------------------
 .byte   PATT
  .word Label_013DB438
@  #07 @110   ----------------------------------------
 .byte   PATT
  .word Label_013DB438
@  #07 @111   ----------------------------------------
 .byte   PATT
  .word Label_013DB457
@  #07 @112   ----------------------------------------
 .byte   PATT
  .word Label_013DB471
@  #07 @113   ----------------------------------------
 .byte   PATT
  .word Label_013DB481
@  #07 @114   ----------------------------------------
 .byte   PATT
  .word Label_013DB49B
@  #07 @115   ----------------------------------------
 .byte   PATT
  .word Label_013DB419
@  #07 @116   ----------------------------------------
 .byte   PATT
  .word Label_013DB419
@  #07 @117   ----------------------------------------
 .byte   PATT
  .word Label_013DB438
@  #07 @118   ----------------------------------------
 .byte   PATT
  .word Label_013DB438
@  #07 @119   ----------------------------------------
 .byte   PATT
  .word Label_013DB4BE
@  #07 @120   ----------------------------------------
 .byte   PATT
  .word Label_013DB4D8
@  #07 @121   ----------------------------------------
 .byte   PATT
  .word Label_013DB4E8
@  #07 @122   ----------------------------------------
 .byte   PATT
  .word Label_013DB502
@  #07 @123   ----------------------------------------
 .byte   PATT
  .word Label_013DB2B9
@  #07 @124   ----------------------------------------
 .byte   PATT
  .word Label_013DB273
@  #07 @125   ----------------------------------------
 .byte   PATT
  .word Label_013DB51B
@  #07 @126   ----------------------------------------
 .byte   PATT
  .word Label_013DB51B
@  #07 @127   ----------------------------------------
 .byte   PATT
  .word Label_013DB543
@  #07 @128   ----------------------------------------
 .byte   PATT
  .word Label_013DB32C
@  #07 @129   ----------------------------------------
 .byte   PATT
  .word Label_013DB56B
@  #07 @130   ----------------------------------------
 .byte   PATT
  .word Label_013DB56B
@  #07 @131   ----------------------------------------
 .byte   PATT
  .word Label_013DB2B9
@  #07 @132   ----------------------------------------
 .byte   PATT
  .word Label_013DB273
@  #07 @133   ----------------------------------------
 .byte   PATT
  .word Label_013DB51B
@  #07 @134   ----------------------------------------
 .byte   PATT
  .word Label_013DB51B
@  #07 @135   ----------------------------------------
 .byte   PATT
  .word Label_013DB543
@  #07 @136   ----------------------------------------
 .byte   PATT
  .word Label_013DB32C
@  #07 @137   ----------------------------------------
 .byte   PATT
  .word Label_013DB56B
@  #07 @138   ----------------------------------------
 .byte   PATT
  .word Label_013DB56B
@  #07 @139   ----------------------------------------
 .byte   PATT
  .word Label_013DB3AE
@  #07 @140   ----------------------------------------
 .byte   PATT
  .word Label_013DB3DB
@  #07 @141   ----------------------------------------
 .byte   PATT
  .word Label_013DB3AE
@  #07 @142   ----------------------------------------
 .byte   PATT
  .word Label_013DB3DB
@  #07 @143   ----------------------------------------
 .byte   PATT
  .word Label_013DB3AE
@  #07 @144   ----------------------------------------
 .byte   PATT
  .word Label_013DB3DB
@  #07 @145   ----------------------------------------
 .byte   PATT
  .word Label_013DB3AE
@  #07 @146   ----------------------------------------
 .byte   PATT
  .word Label_013DB3DB
@  #07 @147   ----------------------------------------
 .byte   PATT
  .word Label_013DB273
@  #07 @148   ----------------------------------------
 .byte   PATT
  .word Label_013DB296
@  #07 @149   ----------------------------------------
 .byte   PATT
  .word Label_013DB2B9
@  #07 @150   ----------------------------------------
 .byte   PATT
  .word Label_013DB2DC
@  #07 @151   ----------------------------------------
 .byte   PATT
  .word Label_013DB273
@  #07 @152   ----------------------------------------
 .byte   PATT
  .word Label_013DB296
@  #07 @153   ----------------------------------------
 .byte   PATT
  .word Label_013DB2B9
@  #07 @154   ----------------------------------------
 .byte   PATT
  .word Label_013DB2DC
@  #07 @155   ----------------------------------------
 .byte   PATT
  .word Label_013DB273
@  #07 @156   ----------------------------------------
 .byte   PATT
  .word Label_013DB296
@  #07 @157   ----------------------------------------
 .byte   PATT
  .word Label_013DB2B9
@  #07 @158   ----------------------------------------
 .byte   PATT
  .word Label_013DB2DC
@  #07 @159   ----------------------------------------
 .byte   PATT
  .word Label_013DB2B9
@  #07 @160   ----------------------------------------
 .byte   PATT
  .word Label_013DB32C
@  #07 @161   ----------------------------------------
 .byte   PATT
  .word Label_013DB34F
@  #07 @162   ----------------------------------------
 .byte   PATT
  .word Label_013DB372
@  #07 @163   ----------------------------------------
 .byte   GOTO
  .word Label_013DB395
@  #07 @164   ----------------------------------------
 .byte   PATT
  .word Label_013DB273
@  #07 @165   ----------------------------------------
 .byte   PATT
  .word Label_013DB296
@  #07 @166   ----------------------------------------
 .byte   PATT
  .word Label_013DB32C
 .byte   FINE

@**************** Track 8 (Midi-Chn.7) ****************@

song09_008:
@  #08 @000   ----------------------------------------
 .byte   KEYSH , song09_key+0
 .byte   VOICE , 7
 .byte   MODT 0
 .byte   LFOS 44
 .byte   VOL , 96*song09_mvl/mxv
 .byte   MODT 0
 .byte   LFOS 44
 .byte   W96
@  #08 @001   ----------------------------------------
 .byte   W96
@  #08 @002   ----------------------------------------
 .byte   W96
@  #08 @003   ----------------------------------------
 .byte   W96
@  #08 @004   ----------------------------------------
Label_013D1B36:
 .byte   N06 ,Gn3 ,v072
 .byte   W12
 .byte   N18 ,Gn4
 .byte   W18
 .byte   N06 ,Gn3
 .byte   W06
 .byte   N12 ,Dn4
 .byte   W12
 .byte   N06 ,As3
 .byte   W06
 .byte   An3
 .byte   W06
 .byte   Gn3
 .byte   W06
 .byte   An3
 .byte   W06
 .byte   As3
 .byte   W06
 .byte   Cn4
 .byte   W06
 .byte   Dn4
 .byte   W06
 .byte   Gn4
 .byte   W06
 .byte   PEND 
@  #08 @005   ----------------------------------------
Label_013D1B55:
 .byte   N06 ,Fs3 ,v072
 .byte   W12
 .byte   N18 ,Fs4
 .byte   W18
 .byte   N06 ,Fs3
 .byte   W06
 .byte   N12 ,Dn4
 .byte   W12
 .byte   N06 ,As3
 .byte   W06
 .byte   An3
 .byte   W06
 .byte   Fs3
 .byte   W06
 .byte   An3
 .byte   W06
 .byte   As3
 .byte   W06
 .byte   Cn4
 .byte   W06
 .byte   Dn4
 .byte   W06
 .byte   Fs4
 .byte   W06
 .byte   PEND 
@  #08 @006   ----------------------------------------
Label_013D1B74:
 .byte   N06 ,Fn3 ,v072
 .byte   W12
 .byte   N18 ,Fn4
 .byte   W18
 .byte   N06 ,Fn3
 .byte   W06
 .byte   N12 ,Dn4
 .byte   W12
 .byte   N06 ,As3
 .byte   W06
 .byte   An3
 .byte   W06
 .byte   Fn3
 .byte   W06
 .byte   An3
 .byte   W06
 .byte   As3
 .byte   W06
 .byte   Cn4
 .byte   W06
 .byte   Dn4
 .byte   W06
 .byte   Fn4
 .byte   W06
 .byte   PEND 
@  #08 @007   ----------------------------------------
Label_013D1B93:
 .byte   N12 ,As4 ,v072
 .byte   W12
 .byte   N06 ,An4
 .byte   W06
 .byte   N12 ,Gn4
 .byte   W12
 .byte   N06 ,As4
 .byte   W06
 .byte   En4
 .byte   W12
 .byte   N04 ,Dn4
 .byte   W04
 .byte   En4
 .byte   W04
 .byte   Dn5
 .byte   W04
 .byte   Cn4
 .byte   W04
 .byte   En4
 .byte   W04
 .byte   Cn5
 .byte   W04
 .byte   As3
 .byte   W04
 .byte   En4
 .byte   W04
 .byte   As4
 .byte   W04
 .byte   Cn4
 .byte   W04
 .byte   En4
 .byte   W04
 .byte   Cn5
 .byte   W04
 .byte   PEND 
@  #08 @008   ----------------------------------------
Label_013D1BBC:
 .byte   N06 ,Gn3 ,v072
 .byte   N06 ,Dn4
 .byte   W12
 .byte   N18 ,Gn4
 .byte   N18 ,Dn5
 .byte   W18
 .byte   N06 ,Gn3
 .byte   N06 ,Dn4
 .byte   W06
 .byte   N12
 .byte   N12 ,Cn5
 .byte   W12
 .byte   N06 ,As3
 .byte   N06 ,Dn5
 .byte   W06
 .byte   An3
 .byte   N06 ,Cn5
 .byte   W06
 .byte   Gn3
 .byte   N06 ,As4
 .byte   W06
 .byte   An3
 .byte   N06 ,Dn5
 .byte   W06
 .byte   As3
 .byte   N06 ,Gn4
 .byte   W06
 .byte   Cn4
 .byte   N06 ,An4
 .byte   W06
 .byte   Dn4
 .byte   N06 ,As4
 .byte   W06
 .byte   Gn4
 .byte   N06 ,Dn5
 .byte   W06
 .byte   PEND 
@  #08 @009   ----------------------------------------
Label_013D1BF2:
 .byte   N06 ,Fs3 ,v072
 .byte   N06 ,Dn4
 .byte   W12
 .byte   N18 ,Fs4
 .byte   N18 ,Dn5
 .byte   W18
 .byte   N06 ,Fs3
 .byte   N06 ,Dn4
 .byte   W06
 .byte   N12
 .byte   N12 ,Cn5
 .byte   W12
 .byte   N06 ,As3
 .byte   N06 ,Dn5
 .byte   W06
 .byte   An3
 .byte   N06 ,Cn5
 .byte   W06
 .byte   Fs3
 .byte   N06 ,As4
 .byte   W06
 .byte   An3
 .byte   N06 ,Dn5
 .byte   W06
 .byte   As3
 .byte   N06 ,Fs4
 .byte   W06
 .byte   Cn4
 .byte   N06 ,An4
 .byte   W06
 .byte   Dn4
 .byte   N06 ,As4
 .byte   W06
 .byte   Fs4
 .byte   N06 ,Dn5
 .byte   W06
 .byte   PEND 
@  #08 @010   ----------------------------------------
Label_013D1C28:
 .byte   N06 ,Fn3 ,v072
 .byte   N06 ,Dn4
 .byte   W12
 .byte   N18 ,Fn4
 .byte   N18 ,Dn5
 .byte   W18
 .byte   N06 ,Fn3
 .byte   N06 ,Dn4
 .byte   W06
 .byte   N12
 .byte   N12 ,Cn5
 .byte   W12
 .byte   N06 ,As3
 .byte   N06 ,Dn5
 .byte   W06
 .byte   An3
 .byte   N06 ,Cn5
 .byte   W06
 .byte   Fn3
 .byte   N06 ,As4
 .byte   W06
 .byte   An3
 .byte   N06 ,Dn5
 .byte   W06
 .byte   As3
 .byte   N06 ,Gn4
 .byte   W06
 .byte   Cn4
 .byte   N06 ,An4
 .byte   W06
 .byte   Dn4
 .byte   N06 ,As4
 .byte   W06
 .byte   Fn4
 .byte   N18 ,Dn5
 .byte   W06
 .byte   PEND 
@  #08 @011   ----------------------------------------
Label_013D1C5E:
 .byte   N12 ,As4 ,v072
 .byte   W12
 .byte   N06 ,An4
 .byte   N06 ,Cn5
 .byte   W06
 .byte   N12 ,Gn4
 .byte   N12 ,As4
 .byte   W12
 .byte   N06
 .byte   N06 ,Dn5
 .byte   W06
 .byte   En4
 .byte   N06 ,As4
 .byte   W12
 .byte   N04 ,Dn4
 .byte   N04 ,Gn4
 .byte   W04
 .byte   En4
 .byte   N04 ,As4
 .byte   W04
 .byte   Dn5
 .byte   N04 ,Gn5
 .byte   W04
 .byte   Cn4
 .byte   N04 ,Fn4
 .byte   W04
 .byte   En4
 .byte   N04 ,As4
 .byte   W04
 .byte   Cn5
 .byte   N04 ,Fn5
 .byte   W04
 .byte   As3
 .byte   N04 ,En4
 .byte   W04
 .byte   N04
 .byte   N04 ,As4
 .byte   W04
 .byte   N04
 .byte   N04 ,En5
 .byte   W04
 .byte   Cn4
 .byte   N04 ,Fn4
 .byte   W04
 .byte   En4
 .byte   N04 ,As4
 .byte   W04
 .byte   Cn5
 .byte   N04 ,Fn5
 .byte   W04
 .byte   PEND 
@  #08 @012   ----------------------------------------
 .byte   W96
@  #08 @013   ----------------------------------------
 .byte   W96
@  #08 @014   ----------------------------------------
 .byte   W96
@  #08 @015   ----------------------------------------
 .byte   W96
@  #08 @016   ----------------------------------------
 .byte   W96
@  #08 @017   ----------------------------------------
 .byte   W96
@  #08 @018   ----------------------------------------
 .byte   W96
@  #08 @019   ----------------------------------------
 .byte   W96
@  #08 @020   ----------------------------------------
Label_013D1CAE:
 .byte   W96
@  #08 @021   ----------------------------------------
 .byte   W96
@  #08 @022   ----------------------------------------
 .byte   W96
@  #08 @023   ----------------------------------------
 .byte   W96
@  #08 @024   ----------------------------------------
 .byte   W96
@  #08 @025   ----------------------------------------
 .byte   W96
@  #08 @026   ----------------------------------------
 .byte   W96
@  #08 @027   ----------------------------------------
 .byte   W96
@  #08 @028   ----------------------------------------
 .byte   W96
@  #08 @029   ----------------------------------------
 .byte   W96
@  #08 @030   ----------------------------------------
 .byte   W96
@  #08 @031   ----------------------------------------
Label_013D1CB9:
 .byte   N06 ,As3 ,v072
 .byte   N06 ,Dn4
 .byte   W06
 .byte   N12 ,As3
 .byte   N12 ,Dn4
 .byte   W12
 .byte   N06 ,As3
 .byte   N06 ,Dn4
 .byte   W06
 .byte   N12 ,Gn3
 .byte   N12 ,As3
 .byte   W12
 .byte   N06
 .byte   N06 ,Dn4
 .byte   W06
 .byte   Gn3
 .byte   N06 ,As3
 .byte   W06
 .byte   Dn3
 .byte   N06 ,Gn3
 .byte   W06
 .byte   Ds3
 .byte   N06 ,An3
 .byte   W06
 .byte   Fn3
 .byte   N06 ,As3
 .byte   W06
 .byte   Fn3
 .byte   N06 ,As3
 .byte   W06
 .byte   N06
 .byte   N06 ,Ds4
 .byte   W06
 .byte   An3
 .byte   N06 ,Dn4
 .byte   W06
 .byte   Gn3
 .byte   N06 ,Cn4
 .byte   W06
 .byte   Fn3
 .byte   N06 ,As3
 .byte   W06
 .byte   PEND 
@  #08 @032   ----------------------------------------
Label_013D1CF7:
 .byte   N06 ,As3 ,v072
 .byte   N06 ,Dn4
 .byte   W06
 .byte   N12 ,Gn3
 .byte   N12 ,As3
 .byte   W12
 .byte   N06 ,Gn3
 .byte   N06 ,As3
 .byte   W06
 .byte   N06
 .byte   N06 ,Dn4
 .byte   W06
 .byte   Gn3
 .byte   N06 ,As3
 .byte   W06
 .byte   Cs4
 .byte   N06 ,Fn4
 .byte   W06
 .byte   N12 ,An3
 .byte   N12 ,Dn4
 .byte   W12
 .byte   N12
 .byte   N12 ,Fs4
 .byte   W12
 .byte   N06 ,As3
 .byte   N06 ,Dn4
 .byte   W06
 .byte   Fs4
 .byte   N06 ,An4
 .byte   W06
 .byte   Dn4
 .byte   N06 ,Fs4
 .byte   W06
 .byte   Cn4
 .byte   N06 ,Ds4
 .byte   W06
 .byte   As3
 .byte   N06 ,Dn4
 .byte   W06
 .byte   PEND 
@  #08 @033   ----------------------------------------
 .byte   PATT
  .word Label_013D1CB9
@  #08 @034   ----------------------------------------
Label_013D1D37:
 .byte   N06 ,As3 ,v072
 .byte   N06 ,Dn4
 .byte   W06
 .byte   N12 ,Gn3
 .byte   N12 ,As3
 .byte   W12
 .byte   N06 ,Gn3
 .byte   N06 ,As3
 .byte   W06
 .byte   N06
 .byte   N06 ,Dn4
 .byte   W06
 .byte   Gn3
 .byte   N06 ,As3
 .byte   W06
 .byte   Cs4
 .byte   N06 ,Fn4
 .byte   W06
 .byte   N12 ,An3
 .byte   N12 ,Dn4
 .byte   W12
 .byte   N12
 .byte   N12 ,Fs4
 .byte   W12
 .byte   N06 ,As3
 .byte   N06 ,Dn4
 .byte   W06
 .byte   Fs4
 .byte   N06 ,An4
 .byte   W06
 .byte   Dn4
 .byte   N06 ,Fs4
 .byte   W06
 .byte   Cn4
 .byte   N06 ,Ds4
 .byte   W06
 .byte   As3
 .byte   N12 ,Dn4
 .byte   W06
 .byte   PEND 
@  #08 @035   ----------------------------------------
 .byte   N06 ,As3
 .byte   W96
@  #08 @036   ----------------------------------------
 .byte   W96
@  #08 @037   ----------------------------------------
 .byte   W96
@  #08 @038   ----------------------------------------
 .byte   W96
@  #08 @039   ----------------------------------------
 .byte   W96
@  #08 @040   ----------------------------------------
 .byte   W96
@  #08 @041   ----------------------------------------
 .byte   W96
@  #08 @042   ----------------------------------------
 .byte   W96
@  #08 @043   ----------------------------------------
 .byte   W96
@  #08 @044   ----------------------------------------
 .byte   W96
@  #08 @045   ----------------------------------------
 .byte   W96
@  #08 @046   ----------------------------------------
 .byte   W96
@  #08 @047   ----------------------------------------
 .byte   W96
@  #08 @048   ----------------------------------------
 .byte   W96
@  #08 @049   ----------------------------------------
 .byte   W96
@  #08 @050   ----------------------------------------
 .byte   W96
@  #08 @051   ----------------------------------------
Label_013D1D84:
 .byte   N06 ,Fn3 ,v072
 .byte   W12
 .byte   N18 ,Fn4
 .byte   W18
 .byte   N06 ,Fn3
 .byte   W06
 .byte   N12 ,Cn4
 .byte   W12
 .byte   N06 ,Gs3
 .byte   W06
 .byte   Gn3
 .byte   W06
 .byte   Fn3
 .byte   W06
 .byte   Gn3
 .byte   W06
 .byte   Gs3
 .byte   W06
 .byte   As3
 .byte   W06
 .byte   Cn4
 .byte   W06
 .byte   Fn4
 .byte   W06
 .byte   PEND 
@  #08 @052   ----------------------------------------
 .byte   PATT
  .word Label_013D1B36
@  #08 @053   ----------------------------------------
Label_013D1DA8:
 .byte   N06 ,Gn3 ,v072
 .byte   W06
 .byte   N12 ,Gn4
 .byte   W12
 .byte   N06 ,Dn4
 .byte   W06
 .byte   Gs4
 .byte   W06
 .byte   Dn4
 .byte   W06
 .byte   Gn3
 .byte   W06
 .byte   N12 ,Gn4
 .byte   W12
 .byte   N06 ,Dn4
 .byte   W06
 .byte   Gs4
 .byte   W06
 .byte   Dn4
 .byte   W06
 .byte   Gn3
 .byte   W06
 .byte   Dn4
 .byte   W06
 .byte   Gn4
 .byte   W06
 .byte   Gs4
 .byte   W06
 .byte   PEND 
@  #08 @054   ----------------------------------------
Label_013D1DCB:
 .byte   N12 ,As4 ,v072
 .byte   W12
 .byte   N06 ,Gs4
 .byte   W06
 .byte   Gn4
 .byte   W06
 .byte   Gs4
 .byte   W06
 .byte   Gn4
 .byte   W06
 .byte   Fn4
 .byte   W06
 .byte   N12 ,Dn4
 .byte   W12
 .byte   N06
 .byte   W06
 .byte   Bn3
 .byte   W06
 .byte   Dn4
 .byte   W06
 .byte   Gs3
 .byte   W06
 .byte   Bn3
 .byte   W06
 .byte   Dn4
 .byte   W06
 .byte   Gn4
 .byte   W06
 .byte   PEND 
@  #08 @055   ----------------------------------------
Label_013D1DEC:
 .byte   N06 ,An3 ,v072
 .byte   W12
 .byte   N18 ,An4
 .byte   W18
 .byte   N06 ,An3
 .byte   W06
 .byte   N12 ,En4
 .byte   W12
 .byte   N06 ,Cn4
 .byte   W06
 .byte   Bn3
 .byte   W06
 .byte   An3
 .byte   W06
 .byte   Bn3
 .byte   W06
 .byte   Cn4
 .byte   W06
 .byte   Dn4
 .byte   W06
 .byte   En4
 .byte   W06
 .byte   An4
 .byte   W06
 .byte   PEND 
@  #08 @056   ----------------------------------------
Label_013D1E0B:
 .byte   N06 ,As3 ,v072
 .byte   W12
 .byte   N18 ,As4
 .byte   W18
 .byte   N06 ,As3
 .byte   W06
 .byte   N12 ,Fn4
 .byte   W12
 .byte   N06 ,Cs4
 .byte   W06
 .byte   Cn4
 .byte   W06
 .byte   As3
 .byte   W06
 .byte   Cn4
 .byte   W06
 .byte   Cs4
 .byte   W06
 .byte   Ds4
 .byte   W06
 .byte   Fn4
 .byte   W06
 .byte   As4
 .byte   W06
 .byte   PEND 
@  #08 @057   ----------------------------------------
Label_013D1E2A:
 .byte   N06 ,Bn3 ,v072
 .byte   W06
 .byte   N12 ,Bn4
 .byte   W12
 .byte   N06 ,Fs4
 .byte   W06
 .byte   Cs5
 .byte   W06
 .byte   Fs4
 .byte   W06
 .byte   Bn3
 .byte   W06
 .byte   N12 ,Bn4
 .byte   W12
 .byte   N06 ,Fs4
 .byte   W06
 .byte   Cs5
 .byte   W06
 .byte   Fs4
 .byte   W06
 .byte   Bn3
 .byte   W06
 .byte   Fs4
 .byte   W06
 .byte   Bn4
 .byte   W06
 .byte   Cs5
 .byte   W06
 .byte   PEND 
@  #08 @058   ----------------------------------------
Label_013D1E4D:
 .byte   N12 ,Ds5 ,v072
 .byte   W12
 .byte   N06 ,Cs5
 .byte   W06
 .byte   Bn4
 .byte   W06
 .byte   Cs5
 .byte   W06
 .byte   Bn4
 .byte   W06
 .byte   Gs4
 .byte   W06
 .byte   N12 ,Fs4
 .byte   W12
 .byte   N06
 .byte   W06
 .byte   Ds4
 .byte   W06
 .byte   Fs4
 .byte   W06
 .byte   Cs4
 .byte   W06
 .byte   Ds4
 .byte   W06
 .byte   Fs4
 .byte   W06
 .byte   Bn4
 .byte   W06
 .byte   PEND 
@  #08 @059   ----------------------------------------
Label_013D1E6E:
 .byte   N06 ,Cn3 ,v072
 .byte   N06 ,Fn3
 .byte   W12
 .byte   N18 ,Cn4
 .byte   N18 ,Fn4
 .byte   W18
 .byte   N06 ,Cn3
 .byte   N06 ,Fn3
 .byte   W06
 .byte   N12 ,Gn3
 .byte   N12 ,Cn4
 .byte   W12
 .byte   N06 ,Ds3
 .byte   N06 ,Gs3
 .byte   W06
 .byte   Dn3
 .byte   N06 ,Gn3
 .byte   W06
 .byte   Cn3
 .byte   N06 ,Fn3
 .byte   W06
 .byte   Dn3
 .byte   N06 ,Gn3
 .byte   W06
 .byte   Ds3
 .byte   N06 ,Gs3
 .byte   W06
 .byte   Fn3
 .byte   N06 ,As3
 .byte   W06
 .byte   Gn3
 .byte   N06 ,Cn4
 .byte   W06
 .byte   N06
 .byte   N06 ,Fn4
 .byte   W06
 .byte   PEND 
@  #08 @060   ----------------------------------------
Label_013D1EA5:
 .byte   N06 ,Dn3 ,v072
 .byte   N06 ,Gn3
 .byte   W12
 .byte   N18 ,Dn4
 .byte   N18 ,Gn4
 .byte   W18
 .byte   N06 ,Dn3
 .byte   N06 ,Gn3
 .byte   W06
 .byte   N12 ,An3
 .byte   N12 ,Dn4
 .byte   W12
 .byte   N06 ,Fn3
 .byte   N06 ,As3
 .byte   W06
 .byte   En3
 .byte   N06 ,An3
 .byte   W06
 .byte   Dn3
 .byte   N06 ,Gn3
 .byte   W06
 .byte   En3
 .byte   N06 ,An3
 .byte   W06
 .byte   Fn3
 .byte   N06 ,As3
 .byte   W06
 .byte   Gn3
 .byte   N06 ,Cn4
 .byte   W06
 .byte   An3
 .byte   N06 ,Dn4
 .byte   W06
 .byte   N06
 .byte   N06 ,Gn4
 .byte   W06
 .byte   PEND 
@  #08 @061   ----------------------------------------
Label_013D1EDC:
 .byte   N06 ,Dn3 ,v072
 .byte   N06 ,Gn3
 .byte   W06
 .byte   N12 ,Dn4
 .byte   N12 ,Gn4
 .byte   W12
 .byte   N06 ,Gn3
 .byte   N06 ,Dn4
 .byte   W06
 .byte   Fn4
 .byte   N06 ,Gs4
 .byte   W06
 .byte   Gn3
 .byte   N06 ,Dn4
 .byte   W06
 .byte   Dn3
 .byte   N06 ,Gn3
 .byte   W06
 .byte   N12 ,Dn4
 .byte   N12 ,Gn4
 .byte   W12
 .byte   N06 ,Dn3
 .byte   N06 ,Dn4
 .byte   W06
 .byte   Fn4
 .byte   N06 ,Gs4
 .byte   W06
 .byte   Gn3
 .byte   N06 ,Dn4
 .byte   W06
 .byte   Dn3
 .byte   N06 ,Gn3
 .byte   W06
 .byte   N06
 .byte   N06 ,Dn4
 .byte   W06
 .byte   N06
 .byte   N06 ,Gn4
 .byte   W06
 .byte   Fn4
 .byte   N06 ,Gs4
 .byte   W06
 .byte   PEND 
@  #08 @062   ----------------------------------------
Label_013D1F1B:
 .byte   N12 ,Gn4 ,v072
 .byte   N12 ,As4
 .byte   W12
 .byte   N06 ,Fn4
 .byte   N06 ,Gs4
 .byte   W06
 .byte   Dn4
 .byte   N06 ,Gn4
 .byte   W06
 .byte   Fn4
 .byte   N06 ,Gs4
 .byte   W06
 .byte   Dn4
 .byte   N06 ,Gn4
 .byte   W06
 .byte   Bn3
 .byte   N06 ,Fn4
 .byte   W06
 .byte   N12 ,Gn3
 .byte   N12 ,Dn4
 .byte   W12
 .byte   N06 ,Gn3
 .byte   N06 ,Dn4
 .byte   W06
 .byte   Fn3
 .byte   N06 ,Bn3
 .byte   W06
 .byte   Gn3
 .byte   N06 ,Dn4
 .byte   W06
 .byte   Dn3
 .byte   N06 ,Gs3
 .byte   W06
 .byte   Gn3
 .byte   N06 ,Bn3
 .byte   W06
 .byte   N06
 .byte   N06 ,Dn4
 .byte   W06
 .byte   N06
 .byte   N06 ,Gn4
 .byte   W06
 .byte   PEND 
@  #08 @063   ----------------------------------------
Label_013D1F59:
 .byte   N06 ,En3 ,v072
 .byte   N06 ,An3
 .byte   W12
 .byte   N18 ,En4
 .byte   N18 ,An4
 .byte   W18
 .byte   N06 ,En3
 .byte   N06 ,An3
 .byte   W06
 .byte   N12 ,Bn3
 .byte   N12 ,En4
 .byte   W12
 .byte   N06 ,Gn3
 .byte   N06 ,Cn4
 .byte   W06
 .byte   Fs3
 .byte   N06 ,Bn3
 .byte   W06
 .byte   En3
 .byte   N06 ,An3
 .byte   W06
 .byte   Fs3
 .byte   N06 ,Bn3
 .byte   W06
 .byte   Gn3
 .byte   N06 ,Cn4
 .byte   W06
 .byte   An3
 .byte   N06 ,Dn4
 .byte   W06
 .byte   Bn3
 .byte   N06 ,En4
 .byte   W06
 .byte   N06
 .byte   N06 ,An4
 .byte   W06
 .byte   PEND 
@  #08 @064   ----------------------------------------
Label_013D1F90:
 .byte   N06 ,Fn3 ,v072
 .byte   N06 ,As3
 .byte   W12
 .byte   N18 ,Fn4
 .byte   N18 ,As4
 .byte   W18
 .byte   N06 ,Fn3
 .byte   N06 ,As3
 .byte   W06
 .byte   N12 ,Cn4
 .byte   N12 ,Fn4
 .byte   W12
 .byte   N06 ,Gs3
 .byte   N06 ,Cs4
 .byte   W06
 .byte   Gn3
 .byte   N06 ,Cn4
 .byte   W06
 .byte   Fn3
 .byte   N06 ,As3
 .byte   W06
 .byte   Gn3
 .byte   N06 ,Cn4
 .byte   W06
 .byte   Gs3
 .byte   N06 ,Cs4
 .byte   W06
 .byte   As3
 .byte   N06 ,Ds4
 .byte   W06
 .byte   Cn4
 .byte   N06 ,Fn4
 .byte   W06
 .byte   N06
 .byte   N06 ,As4
 .byte   W06
 .byte   PEND 
@  #08 @065   ----------------------------------------
Label_013D1FC7:
 .byte   N06 ,Fs3 ,v072
 .byte   N06 ,Bn3
 .byte   W06
 .byte   N12 ,Fs4
 .byte   N12 ,Bn4
 .byte   W12
 .byte   N06 ,Cs4
 .byte   N06 ,Fs4
 .byte   W06
 .byte   Gs4
 .byte   N06 ,Cs5
 .byte   W06
 .byte   Cs4
 .byte   N06 ,Fs4
 .byte   W06
 .byte   Fs3
 .byte   N06 ,Bn3
 .byte   W06
 .byte   N12 ,Fs4
 .byte   N12 ,Bn4
 .byte   W12
 .byte   N06 ,Cs4
 .byte   N06 ,Fs4
 .byte   W06
 .byte   Gs4
 .byte   N06 ,Cs5
 .byte   W06
 .byte   Cs4
 .byte   N06 ,Fs4
 .byte   W06
 .byte   Fs3
 .byte   N06 ,Bn3
 .byte   W06
 .byte   Cs4
 .byte   N06 ,Fs4
 .byte   W06
 .byte   N06
 .byte   N06 ,Bn4
 .byte   W06
 .byte   Gs4
 .byte   N06 ,Cs5
 .byte   W06
 .byte   PEND 
@  #08 @066   ----------------------------------------
Label_013D2006:
 .byte   N12 ,As4 ,v072
 .byte   N12 ,Ds5
 .byte   W12
 .byte   N06 ,Gs4
 .byte   N06 ,Cs5
 .byte   W06
 .byte   Fs4
 .byte   N06 ,Bn4
 .byte   W06
 .byte   Gs4
 .byte   N06 ,Cs5
 .byte   W06
 .byte   Fs4
 .byte   N06 ,Bn4
 .byte   W06
 .byte   Ds4
 .byte   N06 ,Gs4
 .byte   W06
 .byte   N12 ,Cs4
 .byte   N12 ,Fs4
 .byte   W12
 .byte   N06 ,Cs4
 .byte   N06 ,Fs4
 .byte   W06
 .byte   As3
 .byte   N06 ,Ds4
 .byte   W06
 .byte   Cs4
 .byte   N06 ,Fs4
 .byte   W06
 .byte   Gs3
 .byte   N06 ,Cs4
 .byte   W06
 .byte   As3
 .byte   N06 ,Ds4
 .byte   W06
 .byte   Cs4
 .byte   N06 ,Fs4
 .byte   W06
 .byte   N06
 .byte   N06 ,Bn4
 .byte   W06
 .byte   PEND 
@  #08 @067   ----------------------------------------
 .byte   PATT
  .word Label_013D1CB9
@  #08 @068   ----------------------------------------
 .byte   PATT
  .word Label_013D1CF7
@  #08 @069   ----------------------------------------
 .byte   PATT
  .word Label_013D1CB9
@  #08 @070   ----------------------------------------
 .byte   PATT
  .word Label_013D1CF7
@  #08 @071   ----------------------------------------
 .byte   PATT
  .word Label_013D1CB9
@  #08 @072   ----------------------------------------
 .byte   PATT
  .word Label_013D1CF7
@  #08 @073   ----------------------------------------
 .byte   PATT
  .word Label_013D1CB9
@  #08 @074   ----------------------------------------
 .byte   PATT
  .word Label_013D1CF7
@  #08 @075   ----------------------------------------
 .byte   PATT
  .word Label_013D1B36
@  #08 @076   ----------------------------------------
 .byte   PATT
  .word Label_013D1B55
@  #08 @077   ----------------------------------------
 .byte   PATT
  .word Label_013D1B74
@  #08 @078   ----------------------------------------
 .byte   PATT
  .word Label_013D1B93
@  #08 @079   ----------------------------------------
 .byte   PATT
  .word Label_013D1BBC
@  #08 @080   ----------------------------------------
 .byte   PATT
  .word Label_013D1BF2
@  #08 @081   ----------------------------------------
 .byte   PATT
  .word Label_013D1C28
@  #08 @082   ----------------------------------------
 .byte   PATT
  .word Label_013D1C5E
@  #08 @083   ----------------------------------------
 .byte   W96
@  #08 @084   ----------------------------------------
 .byte   W96
@  #08 @085   ----------------------------------------
 .byte   W96
@  #08 @086   ----------------------------------------
 .byte   W96
@  #08 @087   ----------------------------------------
 .byte   W96
@  #08 @088   ----------------------------------------
 .byte   W96
@  #08 @089   ----------------------------------------
 .byte   W96
@  #08 @090   ----------------------------------------
 .byte   W96
@  #08 @091   ----------------------------------------
 .byte   W96
@  #08 @092   ----------------------------------------
 .byte   W96
@  #08 @093   ----------------------------------------
 .byte   W96
@  #08 @094   ----------------------------------------
 .byte   W96
@  #08 @095   ----------------------------------------
 .byte   W96
@  #08 @096   ----------------------------------------
 .byte   W96
@  #08 @097   ----------------------------------------
 .byte   W96
@  #08 @098   ----------------------------------------
 .byte   W96
@  #08 @099   ----------------------------------------
 .byte   W96
@  #08 @100   ----------------------------------------
 .byte   W96
@  #08 @101   ----------------------------------------
 .byte   W96
@  #08 @102   ----------------------------------------
 .byte   PATT
  .word Label_013D1CB9
@  #08 @103   ----------------------------------------
 .byte   PATT
  .word Label_013D1CF7
@  #08 @104   ----------------------------------------
 .byte   PATT
  .word Label_013D1CB9
@  #08 @105   ----------------------------------------
 .byte   PATT
  .word Label_013D1D37
@  #08 @106   ----------------------------------------
 .byte   N06 ,As3 ,v072
 .byte   W96
@  #08 @107   ----------------------------------------
 .byte   W96
@  #08 @108   ----------------------------------------
 .byte   W96
@  #08 @109   ----------------------------------------
 .byte   W96
@  #08 @110   ----------------------------------------
 .byte   W96
@  #08 @111   ----------------------------------------
 .byte   W96
@  #08 @112   ----------------------------------------
 .byte   W96
@  #08 @113   ----------------------------------------
 .byte   W96
@  #08 @114   ----------------------------------------
 .byte   W96
@  #08 @115   ----------------------------------------
 .byte   W96
@  #08 @116   ----------------------------------------
 .byte   W96
@  #08 @117   ----------------------------------------
 .byte   W96
@  #08 @118   ----------------------------------------
 .byte   W96
@  #08 @119   ----------------------------------------
 .byte   W96
@  #08 @120   ----------------------------------------
 .byte   W96
@  #08 @121   ----------------------------------------
 .byte   W96
@  #08 @122   ----------------------------------------
 .byte   PATT
  .word Label_013D1D84
@  #08 @123   ----------------------------------------
 .byte   PATT
  .word Label_013D1B36
@  #08 @124   ----------------------------------------
 .byte   PATT
  .word Label_013D1DA8
@  #08 @125   ----------------------------------------
 .byte   PATT
  .word Label_013D1DCB
@  #08 @126   ----------------------------------------
 .byte   PATT
  .word Label_013D1DEC
@  #08 @127   ----------------------------------------
 .byte   PATT
  .word Label_013D1E0B
@  #08 @128   ----------------------------------------
 .byte   PATT
  .word Label_013D1E2A
@  #08 @129   ----------------------------------------
 .byte   PATT
  .word Label_013D1E4D
@  #08 @130   ----------------------------------------
 .byte   PATT
  .word Label_013D1E6E
@  #08 @131   ----------------------------------------
 .byte   PATT
  .word Label_013D1EA5
@  #08 @132   ----------------------------------------
 .byte   PATT
  .word Label_013D1EDC
@  #08 @133   ----------------------------------------
 .byte   PATT
  .word Label_013D1F1B
@  #08 @134   ----------------------------------------
 .byte   PATT
  .word Label_013D1F59
@  #08 @135   ----------------------------------------
 .byte   PATT
  .word Label_013D1F90
@  #08 @136   ----------------------------------------
 .byte   PATT
  .word Label_013D1FC7
@  #08 @137   ----------------------------------------
 .byte   PATT
  .word Label_013D2006
@  #08 @138   ----------------------------------------
 .byte   PATT
  .word Label_013D1CB9
@  #08 @139   ----------------------------------------
 .byte   PATT
  .word Label_013D1CF7
@  #08 @140   ----------------------------------------
 .byte   PATT
  .word Label_013D1CB9
@  #08 @141   ----------------------------------------
 .byte   PATT
  .word Label_013D1CF7
@  #08 @142   ----------------------------------------
 .byte   PATT
  .word Label_013D1CB9
@  #08 @143   ----------------------------------------
 .byte   PATT
  .word Label_013D1CF7
@  #08 @144   ----------------------------------------
 .byte   PATT
  .word Label_013D1CB9
@  #08 @145   ----------------------------------------
 .byte   PATT
  .word Label_013D1CF7
@  #08 @146   ----------------------------------------
 .byte   PATT
  .word Label_013D1B36
@  #08 @147   ----------------------------------------
 .byte   PATT
  .word Label_013D1B55
@  #08 @148   ----------------------------------------
 .byte   PATT
  .word Label_013D1B74
@  #08 @149   ----------------------------------------
 .byte   PATT
  .word Label_013D1B93
@  #08 @150   ----------------------------------------
 .byte   PATT
  .word Label_013D1BBC
@  #08 @151   ----------------------------------------
 .byte   PATT
  .word Label_013D1BF2
@  #08 @152   ----------------------------------------
 .byte   PATT
  .word Label_013D1C28
@  #08 @153   ----------------------------------------
 .byte   PATT
  .word Label_013D1C5E
@  #08 @154   ----------------------------------------
 .byte   W96
@  #08 @155   ----------------------------------------
 .byte   W96
@  #08 @156   ----------------------------------------
 .byte   W96
@  #08 @157   ----------------------------------------
 .byte   W96
@  #08 @158   ----------------------------------------
 .byte   W96
@  #08 @159   ----------------------------------------
 .byte   W96
@  #08 @160   ----------------------------------------
 .byte   W96
@  #08 @161   ----------------------------------------
 .byte   W96
@  #08 @162   ----------------------------------------
 .byte   GOTO
  .word Label_013D1CAE
@  #08 @163   ----------------------------------------
 .byte   W96
@  #08 @164   ----------------------------------------
 .byte   W96
@  #08 @165   ----------------------------------------
 .byte   W12
 .byte   FINE

@**************** Track 9 (Midi-Chn.8) ****************@

song09_009:
@  #09 @000   ----------------------------------------
 .byte   KEYSH , song09_key+0
 .byte   VOICE , 4
 .byte   MODT 0
 .byte   LFOS 44
 .byte   VOL , 80*song09_mvl/mxv
 .byte   MODT 0
 .byte   LFOS 44
 .byte   W96
@  #09 @001   ----------------------------------------
 .byte   W96
@  #09 @002   ----------------------------------------
 .byte   W96
@  #09 @003   ----------------------------------------
 .byte   W96
@  #09 @004   ----------------------------------------
 .byte   W96
@  #09 @005   ----------------------------------------
 .byte   W96
@  #09 @006   ----------------------------------------
 .byte   W96
@  #09 @007   ----------------------------------------
 .byte   W96
@  #09 @008   ----------------------------------------
 .byte   W96
@  #09 @009   ----------------------------------------
 .byte   W96
@  #09 @010   ----------------------------------------
 .byte   W96
@  #09 @011   ----------------------------------------
 .byte   W96
@  #09 @012   ----------------------------------------
 .byte   W96
@  #09 @013   ----------------------------------------
 .byte   W96
@  #09 @014   ----------------------------------------
 .byte   W96
@  #09 @015   ----------------------------------------
 .byte   W96
@  #09 @016   ----------------------------------------
 .byte   W96
@  #09 @017   ----------------------------------------
 .byte   W96
@  #09 @018   ----------------------------------------
 .byte   W96
@  #09 @019   ----------------------------------------
 .byte   W96
@  #09 @020   ----------------------------------------
Label_013DB87A:
 .byte   W96
@  #09 @021   ----------------------------------------
 .byte   W96
@  #09 @022   ----------------------------------------
 .byte   W96
@  #09 @023   ----------------------------------------
 .byte   W96
@  #09 @024   ----------------------------------------
 .byte   W96
@  #09 @025   ----------------------------------------
 .byte   W96
@  #09 @026   ----------------------------------------
 .byte   W96
@  #09 @027   ----------------------------------------
 .byte   W96
@  #09 @028   ----------------------------------------
 .byte   W96
@  #09 @029   ----------------------------------------
 .byte   W96
@  #09 @030   ----------------------------------------
 .byte   W96
@  #09 @031   ----------------------------------------
 .byte   W96
@  #09 @032   ----------------------------------------
 .byte   W96
@  #09 @033   ----------------------------------------
 .byte   W96
@  #09 @034   ----------------------------------------
 .byte   W96
@  #09 @035   ----------------------------------------
Label_013DB889:
 .byte   N06 ,Fs3 ,v072
 .byte   W12
 .byte   Gn3
 .byte   W12
 .byte   An3
 .byte   W12
 .byte   Dn4
 .byte   W12
 .byte   Fs4
 .byte   W12
 .byte   An4
 .byte   W12
 .byte   Fs4
 .byte   W12
 .byte   Dn4
 .byte   W12
 .byte   PEND 
@  #09 @036   ----------------------------------------
 .byte   PATT
  .word Label_013DB889
@  #09 @037   ----------------------------------------
Label_013DB8A1:
 .byte   N06 ,Gn3 ,v072
 .byte   W12
 .byte   An3
 .byte   W12
 .byte   As3
 .byte   W12
 .byte   Dn4
 .byte   W12
 .byte   Gn4
 .byte   W12
 .byte   As4
 .byte   W12
 .byte   Gn4
 .byte   W12
 .byte   Dn4
 .byte   W12
 .byte   PEND 
@  #09 @038   ----------------------------------------
 .byte   PATT
  .word Label_013DB8A1
@  #09 @039   ----------------------------------------
 .byte   PATT
  .word Label_013DB8A1
@  #09 @040   ----------------------------------------
Label_013DB8BE:
 .byte   N06 ,Fn3 ,v072
 .byte   W06
 .byte   Cn4
 .byte   W06
 .byte   Fn4
 .byte   W24
 .byte   Ds4
 .byte   W24
 .byte   Dn4
 .byte   W06
 .byte   Gn4
 .byte   W18
 .byte   Ds4
 .byte   W12
 .byte   PEND 
@  #09 @041   ----------------------------------------
Label_013DB8CF:
 .byte   N06 ,Fn3 ,v072
 .byte   W12
 .byte   Gn3
 .byte   W12
 .byte   An3
 .byte   W12
 .byte   Cn4
 .byte   W12
 .byte   Fn4
 .byte   W12
 .byte   An4
 .byte   W12
 .byte   Fn4
 .byte   W12
 .byte   Dn4
 .byte   W12
 .byte   PEND 
@  #09 @042   ----------------------------------------
 .byte   PATT
  .word Label_013DB8A1
@  #09 @043   ----------------------------------------
Label_013DB8E7:
 .byte   N06 ,Fs3 ,v072
 .byte   W06
 .byte   Dn3
 .byte   W06
 .byte   An3
 .byte   W06
 .byte   Dn3
 .byte   W06
 .byte   Cn4
 .byte   W06
 .byte   Dn3
 .byte   W06
 .byte   Ds4
 .byte   W06
 .byte   Fs3
 .byte   W06
 .byte   Fs4
 .byte   W06
 .byte   An3
 .byte   W06
 .byte   An4
 .byte   W06
 .byte   Cn4
 .byte   W06
 .byte   Fs4
 .byte   W06
 .byte   An3
 .byte   W06
 .byte   Ds4
 .byte   W06
 .byte   Fs3
 .byte   W06
 .byte   PEND 
@  #09 @044   ----------------------------------------
 .byte   PATT
  .word Label_013DB8E7
@  #09 @045   ----------------------------------------
Label_013DB90F:
 .byte   N06 ,Gn3 ,v072
 .byte   W06
 .byte   Dn3
 .byte   W06
 .byte   An3
 .byte   W06
 .byte   Dn3
 .byte   W06
 .byte   As3
 .byte   W06
 .byte   Dn3
 .byte   W06
 .byte   Dn4
 .byte   W06
 .byte   Gn3
 .byte   W06
 .byte   Gn4
 .byte   W06
 .byte   As3
 .byte   W06
 .byte   As4
 .byte   W06
 .byte   Dn4
 .byte   W06
 .byte   Gn4
 .byte   W06
 .byte   As3
 .byte   W06
 .byte   Dn4
 .byte   W06
 .byte   Gn3
 .byte   W06
 .byte   PEND 
@  #09 @046   ----------------------------------------
Label_013DB932:
 .byte   N06 ,Gn3 ,v072
 .byte   W06
 .byte   Dn3
 .byte   W06
 .byte   An3
 .byte   W06
 .byte   Dn3
 .byte   W06
 .byte   As3
 .byte   W06
 .byte   Dn3
 .byte   W06
 .byte   Dn4
 .byte   W06
 .byte   Gn3
 .byte   W06
 .byte   N03 ,Fn3
 .byte   W03
 .byte   Gn3
 .byte   W03
 .byte   Fn3
 .byte   W03
 .byte   Gn3
 .byte   W03
 .byte   Fn3
 .byte   W03
 .byte   Gn3
 .byte   W03
 .byte   An3
 .byte   W03
 .byte   Gn3
 .byte   W03
 .byte   An3
 .byte   W03
 .byte   As3
 .byte   W03
 .byte   Gn3
 .byte   W03
 .byte   As3
 .byte   W03
 .byte   Dn4
 .byte   W03
 .byte   Fn4
 .byte   W03
 .byte   Gn4
 .byte   W03
 .byte   As4
 .byte   W03
 .byte   PEND 
@  #09 @047   ----------------------------------------
Label_013DB966:
 .byte   N06 ,Bn4 ,v072
 .byte   W06
 .byte   Dn4
 .byte   W06
 .byte   Fs4
 .byte   W06
 .byte   Fs3
 .byte   W06
 .byte   Dn4
 .byte   W06
 .byte   Fs3
 .byte   W06
 .byte   Bn4
 .byte   W06
 .byte   Dn4
 .byte   W06
 .byte   Fs4
 .byte   W06
 .byte   Fs3
 .byte   W06
 .byte   Dn4
 .byte   W06
 .byte   Fs3
 .byte   W06
 .byte   Bn4
 .byte   W06
 .byte   Dn4
 .byte   W06
 .byte   Fs4
 .byte   W06
 .byte   Fs3
 .byte   W06
 .byte   PEND 
@  #09 @048   ----------------------------------------
Label_013DB989:
 .byte   N06 ,Gs3 ,v072
 .byte   W06
 .byte   Bn3
 .byte   W06
 .byte   Fs4
 .byte   W06
 .byte   Gs3
 .byte   W06
 .byte   En3
 .byte   W06
 .byte   Bn2
 .byte   W06
 .byte   Dn4
 .byte   W06
 .byte   Gs3
 .byte   W06
 .byte   En3
 .byte   W06
 .byte   Bn2
 .byte   W06
 .byte   Bn3
 .byte   W06
 .byte   Gs4
 .byte   W06
 .byte   Gs3
 .byte   W06
 .byte   En3
 .byte   W06
 .byte   Dn4
 .byte   W06
 .byte   Gs4
 .byte   W06
 .byte   PEND 
@  #09 @049   ----------------------------------------
Label_013DB9AC:
 .byte   N06 ,An4 ,v072
 .byte   W06
 .byte   Cs4
 .byte   W06
 .byte   En4
 .byte   W06
 .byte   Gn3
 .byte   W06
 .byte   Cs4
 .byte   W06
 .byte   Gn3
 .byte   W06
 .byte   An4
 .byte   W06
 .byte   Cs4
 .byte   W06
 .byte   En4
 .byte   W06
 .byte   Gn3
 .byte   W06
 .byte   Cs4
 .byte   W06
 .byte   Gn3
 .byte   W06
 .byte   An4
 .byte   W06
 .byte   Cs4
 .byte   W06
 .byte   En4
 .byte   W06
 .byte   Gn3
 .byte   W06
 .byte   PEND 
@  #09 @050   ----------------------------------------
Label_013DB9CF:
 .byte   N06 ,As4 ,v072
 .byte   W06
 .byte   Cs4
 .byte   W06
 .byte   Fn4
 .byte   W06
 .byte   Gn3
 .byte   W06
 .byte   Cs4
 .byte   W06
 .byte   Gn3
 .byte   W06
 .byte   As4
 .byte   W06
 .byte   Cs4
 .byte   W06
 .byte   N04 ,En3
 .byte   W04
 .byte   Gn3
 .byte   W04
 .byte   As3
 .byte   W04
 .byte   Gn3
 .byte   W04
 .byte   As3
 .byte   W05
 .byte   Cs4
 .byte   W03
 .byte   Gn3
 .byte   W04
 .byte   As3
 .byte   W05
 .byte   Cs4
 .byte   W03
 .byte   En4
 .byte   W04
 .byte   Gn4
 .byte   W05
 .byte   As4
 .byte   W03
 .byte   PEND 
@  #09 @051   ----------------------------------------
 .byte   W96
@  #09 @052   ----------------------------------------
 .byte   W96
@  #09 @053   ----------------------------------------
 .byte   W96
@  #09 @054   ----------------------------------------
 .byte   W96
@  #09 @055   ----------------------------------------
 .byte   W96
@  #09 @056   ----------------------------------------
 .byte   W96
@  #09 @057   ----------------------------------------
 .byte   W96
@  #09 @058   ----------------------------------------
 .byte   W96
@  #09 @059   ----------------------------------------
 .byte   W96
@  #09 @060   ----------------------------------------
 .byte   W96
@  #09 @061   ----------------------------------------
 .byte   W96
@  #09 @062   ----------------------------------------
 .byte   W96
@  #09 @063   ----------------------------------------
 .byte   W96
@  #09 @064   ----------------------------------------
 .byte   W96
@  #09 @065   ----------------------------------------
 .byte   W96
@  #09 @066   ----------------------------------------
 .byte   W96
@  #09 @067   ----------------------------------------
 .byte   W96
@  #09 @068   ----------------------------------------
 .byte   W96
@  #09 @069   ----------------------------------------
 .byte   W96
@  #09 @070   ----------------------------------------
 .byte   W96
@  #09 @071   ----------------------------------------
 .byte   W96
@  #09 @072   ----------------------------------------
 .byte   W96
@  #09 @073   ----------------------------------------
 .byte   W96
@  #09 @074   ----------------------------------------
 .byte   W96
@  #09 @075   ----------------------------------------
 .byte   W96
@  #09 @076   ----------------------------------------
 .byte   W96
@  #09 @077   ----------------------------------------
 .byte   W96
@  #09 @078   ----------------------------------------
 .byte   W96
@  #09 @079   ----------------------------------------
 .byte   W96
@  #09 @080   ----------------------------------------
 .byte   W96
@  #09 @081   ----------------------------------------
 .byte   W96
@  #09 @082   ----------------------------------------
 .byte   W96
@  #09 @083   ----------------------------------------
 .byte   W96
@  #09 @084   ----------------------------------------
 .byte   W96
@  #09 @085   ----------------------------------------
 .byte   W96
@  #09 @086   ----------------------------------------
 .byte   W96
@  #09 @087   ----------------------------------------
 .byte   W96
@  #09 @088   ----------------------------------------
 .byte   W96
@  #09 @089   ----------------------------------------
 .byte   W96
@  #09 @090   ----------------------------------------
 .byte   W96
@  #09 @091   ----------------------------------------
 .byte   W96
@  #09 @092   ----------------------------------------
 .byte   W96
@  #09 @093   ----------------------------------------
 .byte   W96
@  #09 @094   ----------------------------------------
 .byte   W96
@  #09 @095   ----------------------------------------
 .byte   W96
@  #09 @096   ----------------------------------------
 .byte   W96
@  #09 @097   ----------------------------------------
 .byte   W96
@  #09 @098   ----------------------------------------
 .byte   W96
@  #09 @099   ----------------------------------------
 .byte   W96
@  #09 @100   ----------------------------------------
 .byte   W96
@  #09 @101   ----------------------------------------
 .byte   W96
@  #09 @102   ----------------------------------------
 .byte   W96
@  #09 @103   ----------------------------------------
 .byte   W96
@  #09 @104   ----------------------------------------
 .byte   W96
@  #09 @105   ----------------------------------------
 .byte   W96
@  #09 @106   ----------------------------------------
 .byte   PATT
  .word Label_013DB889
@  #09 @107   ----------------------------------------
 .byte   PATT
  .word Label_013DB889
@  #09 @108   ----------------------------------------
 .byte   PATT
  .word Label_013DB8A1
@  #09 @109   ----------------------------------------
 .byte   PATT
  .word Label_013DB8A1
@  #09 @110   ----------------------------------------
 .byte   PATT
  .word Label_013DB8A1
@  #09 @111   ----------------------------------------
 .byte   PATT
  .word Label_013DB8BE
@  #09 @112   ----------------------------------------
 .byte   PATT
  .word Label_013DB8CF
@  #09 @113   ----------------------------------------
 .byte   PATT
  .word Label_013DB8A1
@  #09 @114   ----------------------------------------
 .byte   PATT
  .word Label_013DB8E7
@  #09 @115   ----------------------------------------
 .byte   PATT
  .word Label_013DB8E7
@  #09 @116   ----------------------------------------
 .byte   PATT
  .word Label_013DB90F
@  #09 @117   ----------------------------------------
 .byte   PATT
  .word Label_013DB932
@  #09 @118   ----------------------------------------
 .byte   PATT
  .word Label_013DB966
@  #09 @119   ----------------------------------------
 .byte   PATT
  .word Label_013DB989
@  #09 @120   ----------------------------------------
 .byte   PATT
  .word Label_013DB9AC
@  #09 @121   ----------------------------------------
 .byte   PATT
  .word Label_013DB9CF
@  #09 @122   ----------------------------------------
 .byte   W96
@  #09 @123   ----------------------------------------
 .byte   W96
@  #09 @124   ----------------------------------------
 .byte   W96
@  #09 @125   ----------------------------------------
 .byte   W96
@  #09 @126   ----------------------------------------
 .byte   W96
@  #09 @127   ----------------------------------------
 .byte   W96
@  #09 @128   ----------------------------------------
 .byte   W96
@  #09 @129   ----------------------------------------
 .byte   W96
@  #09 @130   ----------------------------------------
 .byte   W96
@  #09 @131   ----------------------------------------
 .byte   W96
@  #09 @132   ----------------------------------------
 .byte   W96
@  #09 @133   ----------------------------------------
 .byte   W96
@  #09 @134   ----------------------------------------
 .byte   W96
@  #09 @135   ----------------------------------------
 .byte   W96
@  #09 @136   ----------------------------------------
 .byte   W96
@  #09 @137   ----------------------------------------
 .byte   W96
@  #09 @138   ----------------------------------------
 .byte   W96
@  #09 @139   ----------------------------------------
 .byte   W96
@  #09 @140   ----------------------------------------
 .byte   W96
@  #09 @141   ----------------------------------------
 .byte   W96
@  #09 @142   ----------------------------------------
 .byte   W96
@  #09 @143   ----------------------------------------
 .byte   W96
@  #09 @144   ----------------------------------------
 .byte   W96
@  #09 @145   ----------------------------------------
 .byte   W96
@  #09 @146   ----------------------------------------
 .byte   W96
@  #09 @147   ----------------------------------------
 .byte   W96
@  #09 @148   ----------------------------------------
 .byte   W96
@  #09 @149   ----------------------------------------
 .byte   W96
@  #09 @150   ----------------------------------------
 .byte   W96
@  #09 @151   ----------------------------------------
 .byte   W96
@  #09 @152   ----------------------------------------
 .byte   W96
@  #09 @153   ----------------------------------------
 .byte   W96
@  #09 @154   ----------------------------------------
 .byte   W96
@  #09 @155   ----------------------------------------
 .byte   W96
@  #09 @156   ----------------------------------------
 .byte   W96
@  #09 @157   ----------------------------------------
 .byte   W96
@  #09 @158   ----------------------------------------
 .byte   W96
@  #09 @159   ----------------------------------------
 .byte   W96
@  #09 @160   ----------------------------------------
 .byte   W96
@  #09 @161   ----------------------------------------
 .byte   W96
@  #09 @162   ----------------------------------------
 .byte   GOTO
  .word Label_013DB87A
@  #09 @163   ----------------------------------------
 .byte   W96
@  #09 @164   ----------------------------------------
 .byte   W96
@  #09 @165   ----------------------------------------
 .byte   W12
 .byte   FINE

@**************** Track 10 (Midi-Chn.9) ****************@

song09_010:
@  #10 @000   ----------------------------------------
 .byte   KEYSH , song09_key+0
 .byte   VOICE , 4
 .byte   MODT 0
 .byte   LFOS 44
 .byte   VOL , 80*song09_mvl/mxv
 .byte   MODT 0
 .byte   LFOS 44
 .byte   W96
@  #10 @001   ----------------------------------------
 .byte   W96
@  #10 @002   ----------------------------------------
 .byte   W96
@  #10 @003   ----------------------------------------
 .byte   W96
@  #10 @004   ----------------------------------------
 .byte   W96
@  #10 @005   ----------------------------------------
 .byte   W96
@  #10 @006   ----------------------------------------
 .byte   W96
@  #10 @007   ----------------------------------------
 .byte   W96
@  #10 @008   ----------------------------------------
 .byte   W96
@  #10 @009   ----------------------------------------
 .byte   W96
@  #10 @010   ----------------------------------------
 .byte   W96
@  #10 @011   ----------------------------------------
 .byte   W96
@  #10 @012   ----------------------------------------
 .byte   W96
@  #10 @013   ----------------------------------------
 .byte   W96
@  #10 @014   ----------------------------------------
 .byte   W96
@  #10 @015   ----------------------------------------
 .byte   W96
@  #10 @016   ----------------------------------------
 .byte   W96
@  #10 @017   ----------------------------------------
 .byte   W96
@  #10 @018   ----------------------------------------
 .byte   W96
@  #10 @019   ----------------------------------------
 .byte   W96
@  #10 @020   ----------------------------------------
Label_013DBAD6:
 .byte   W96
@  #10 @021   ----------------------------------------
 .byte   W96
@  #10 @022   ----------------------------------------
 .byte   W96
@  #10 @023   ----------------------------------------
 .byte   W96
@  #10 @024   ----------------------------------------
 .byte   W96
@  #10 @025   ----------------------------------------
 .byte   W96
@  #10 @026   ----------------------------------------
 .byte   W96
@  #10 @027   ----------------------------------------
 .byte   W96
@  #10 @028   ----------------------------------------
 .byte   W96
@  #10 @029   ----------------------------------------
 .byte   W96
@  #10 @030   ----------------------------------------
 .byte   W96
@  #10 @031   ----------------------------------------
 .byte   W96
@  #10 @032   ----------------------------------------
 .byte   W96
@  #10 @033   ----------------------------------------
 .byte   W96
@  #10 @034   ----------------------------------------
 .byte   W96
@  #10 @035   ----------------------------------------
Label_013DBAE5:
 .byte   W03
 .byte   N06 ,Fs3 ,v072
 .byte   W12
 .byte   Gn3
 .byte   W12
 .byte   An3
 .byte   W12
 .byte   Dn4
 .byte   W12
 .byte   Fs4
 .byte   W12
 .byte   An4
 .byte   W12
 .byte   Fs4
 .byte   W12
 .byte   Dn4
 .byte   W09
 .byte   PEND 
@  #10 @036   ----------------------------------------
 .byte   PATT
  .word Label_013DBAE5
@  #10 @037   ----------------------------------------
Label_013DBAFE:
 .byte   W03
 .byte   N06 ,Gn3 ,v072
 .byte   W12
 .byte   An3
 .byte   W12
 .byte   As3
 .byte   W12
 .byte   Dn4
 .byte   W12
 .byte   Gn4
 .byte   W12
 .byte   As4
 .byte   W12
 .byte   Gn4
 .byte   W12
 .byte   Dn4
 .byte   W09
 .byte   PEND 
@  #10 @038   ----------------------------------------
 .byte   PATT
  .word Label_013DBAFE
@  #10 @039   ----------------------------------------
 .byte   PATT
  .word Label_013DBAFE
@  #10 @040   ----------------------------------------
Label_013DBB1C:
 .byte   W03
 .byte   N06 ,Fn3 ,v072
 .byte   W06
 .byte   Cn4
 .byte   W06
 .byte   Fn4
 .byte   W24
 .byte   Ds4
 .byte   W24
 .byte   Dn4
 .byte   W06
 .byte   Gn4
 .byte   W18
 .byte   Ds4
 .byte   W09
 .byte   PEND 
@  #10 @041   ----------------------------------------
Label_013DBB2E:
 .byte   W03
 .byte   N06 ,Fn3 ,v072
 .byte   W12
 .byte   Gn3
 .byte   W12
 .byte   An3
 .byte   W12
 .byte   Cn4
 .byte   W12
 .byte   Fn4
 .byte   W12
 .byte   An4
 .byte   W12
 .byte   Fn4
 .byte   W12
 .byte   Dn4
 .byte   W09
 .byte   PEND 
@  #10 @042   ----------------------------------------
 .byte   PATT
  .word Label_013DBAFE
@  #10 @043   ----------------------------------------
Label_013DBB47:
 .byte   W03
 .byte   N06 ,Fs3 ,v072
 .byte   W06
 .byte   Dn3
 .byte   W06
 .byte   An3
 .byte   W06
 .byte   Dn3
 .byte   W06
 .byte   Cn4
 .byte   W06
 .byte   Dn3
 .byte   W06
 .byte   Ds4
 .byte   W06
 .byte   Fs3
 .byte   W06
 .byte   Fs4
 .byte   W06
 .byte   An3
 .byte   W06
 .byte   An4
 .byte   W06
 .byte   Cn4
 .byte   W06
 .byte   Fs4
 .byte   W06
 .byte   An3
 .byte   W06
 .byte   Ds4
 .byte   W06
 .byte   Fs3
 .byte   W03
 .byte   PEND 
@  #10 @044   ----------------------------------------
 .byte   PATT
  .word Label_013DBB47
@  #10 @045   ----------------------------------------
Label_013DBB70:
 .byte   W03
 .byte   N06 ,Gn3 ,v072
 .byte   W06
 .byte   Dn3
 .byte   W06
 .byte   An3
 .byte   W06
 .byte   Dn3
 .byte   W06
 .byte   As3
 .byte   W06
 .byte   Dn3
 .byte   W06
 .byte   Dn4
 .byte   W06
 .byte   Gn3
 .byte   W06
 .byte   Gn4
 .byte   W06
 .byte   As3
 .byte   W06
 .byte   As4
 .byte   W06
 .byte   Dn4
 .byte   W06
 .byte   Gn4
 .byte   W06
 .byte   As3
 .byte   W06
 .byte   Dn4
 .byte   W06
 .byte   Gn3
 .byte   W03
 .byte   PEND 
@  #10 @046   ----------------------------------------
Label_013DBB94:
 .byte   W03
 .byte   N06 ,Gn3 ,v072
 .byte   W06
 .byte   Dn3
 .byte   W06
 .byte   An3
 .byte   W06
 .byte   Dn3
 .byte   W06
 .byte   As3
 .byte   W06
 .byte   Dn3
 .byte   W06
 .byte   Dn4
 .byte   W06
 .byte   Gn3
 .byte   W06
 .byte   N03 ,Fn3
 .byte   W03
 .byte   Gn3
 .byte   W03
 .byte   Fn3
 .byte   W03
 .byte   Gn3
 .byte   N03 ,An3
 .byte   W03
 .byte   Fn3
 .byte   N03 ,Gn3
 .byte   N06 ,As4
 .byte   W03
 .byte   N03 ,Gn3
 .byte   N03 ,An3
 .byte   W03
 .byte   N03
 .byte   N03 ,As3
 .byte   N06 ,Dn4
 .byte   W03
 .byte   N03 ,Gn3
 .byte   W03
 .byte   An3
 .byte   N03 ,As3
 .byte   N06 ,Gn4
 .byte   W03
 .byte   N02 ,As3
 .byte   N03 ,Dn4
 .byte   W03
 .byte   Gn3
 .byte   N03 ,As3
 .byte   N03 ,Fn4
 .byte   W03
 .byte   As3
 .byte   N03 ,Gn4
 .byte   W03
 .byte   N05 ,Dn4
 .byte   N03 ,As4
 .byte   W03
 .byte   Fn4
 .byte   N06 ,Bn4
 .byte   W03
 .byte   Gn3
 .byte   N03 ,Gn4
 .byte   W03
 .byte   PEND 
@  #10 @047   ----------------------------------------
Label_013DBBE9:
 .byte   N06 ,Dn4 ,v072
 .byte   N03 ,As4
 .byte   W03
 .byte   N06 ,Bn4
 .byte   W06
 .byte   Dn4
 .byte   W06
 .byte   Fs4
 .byte   W06
 .byte   Fs3
 .byte   W06
 .byte   Dn4
 .byte   W06
 .byte   Fs3
 .byte   W06
 .byte   Bn4
 .byte   W06
 .byte   Dn4
 .byte   W06
 .byte   Fs4
 .byte   W06
 .byte   Fs3
 .byte   W06
 .byte   Dn4
 .byte   W06
 .byte   Fs3
 .byte   W06
 .byte   Bn4
 .byte   W06
 .byte   Dn4
 .byte   W06
 .byte   Fs4
 .byte   W06
 .byte   Fs3
 .byte   W03
 .byte   PEND 
@  #10 @048   ----------------------------------------
Label_013DBC11:
 .byte   W03
 .byte   N06 ,Gs3 ,v072
 .byte   W06
 .byte   Bn3
 .byte   W06
 .byte   Fs4
 .byte   W06
 .byte   Gs3
 .byte   W06
 .byte   En3
 .byte   W06
 .byte   Bn2
 .byte   W06
 .byte   Dn4
 .byte   W06
 .byte   Gs3
 .byte   W06
 .byte   En3
 .byte   W06
 .byte   Bn2
 .byte   W06
 .byte   Bn3
 .byte   W06
 .byte   Gs4
 .byte   W06
 .byte   Gs3
 .byte   W06
 .byte   En3
 .byte   W06
 .byte   Dn4
 .byte   W06
 .byte   Gs4
 .byte   W03
 .byte   PEND 
@  #10 @049   ----------------------------------------
Label_013DBC35:
 .byte   W03
 .byte   N06 ,An4 ,v072
 .byte   W06
 .byte   Cs4
 .byte   W06
 .byte   En4
 .byte   W06
 .byte   Gn3
 .byte   W06
 .byte   Cs4
 .byte   W06
 .byte   Gn3
 .byte   W06
 .byte   An4
 .byte   W06
 .byte   Cs4
 .byte   W06
 .byte   En4
 .byte   W06
 .byte   Gn3
 .byte   W06
 .byte   Cs4
 .byte   W06
 .byte   Gn3
 .byte   W06
 .byte   An4
 .byte   W06
 .byte   Cs4
 .byte   W06
 .byte   En4
 .byte   W06
 .byte   Gn3
 .byte   W03
 .byte   PEND 
@  #10 @050   ----------------------------------------
Label_013DBC59:
 .byte   W03
 .byte   N06 ,As4 ,v072
 .byte   W06
 .byte   Cs4
 .byte   W06
 .byte   Fn4
 .byte   W06
 .byte   Gn3
 .byte   W06
 .byte   Cs4
 .byte   W06
 .byte   Gn3
 .byte   W06
 .byte   As4
 .byte   W06
 .byte   Cs4
 .byte   W06
 .byte   N04 ,En3
 .byte   W04
 .byte   Gn3
 .byte   W04
 .byte   As3
 .byte   W04
 .byte   Gn3
 .byte   W04
 .byte   As3
 .byte   W05
 .byte   Cs4
 .byte   W03
 .byte   Gn3
 .byte   W04
 .byte   As3
 .byte   W05
 .byte   Cs4
 .byte   W03
 .byte   En4
 .byte   W04
 .byte   Gn4
 .byte   W05
 .byte   PEND 
@  #10 @051   ----------------------------------------
 .byte   As4
 .byte   W96
@  #10 @052   ----------------------------------------
 .byte   W96
@  #10 @053   ----------------------------------------
 .byte   W96
@  #10 @054   ----------------------------------------
 .byte   W96
@  #10 @055   ----------------------------------------
 .byte   W96
@  #10 @056   ----------------------------------------
 .byte   W96
@  #10 @057   ----------------------------------------
 .byte   W96
@  #10 @058   ----------------------------------------
 .byte   W96
@  #10 @059   ----------------------------------------
 .byte   W96
@  #10 @060   ----------------------------------------
 .byte   W96
@  #10 @061   ----------------------------------------
 .byte   W96
@  #10 @062   ----------------------------------------
 .byte   W96
@  #10 @063   ----------------------------------------
 .byte   W96
@  #10 @064   ----------------------------------------
 .byte   W96
@  #10 @065   ----------------------------------------
 .byte   W96
@  #10 @066   ----------------------------------------
 .byte   W96
@  #10 @067   ----------------------------------------
 .byte   W96
@  #10 @068   ----------------------------------------
 .byte   W96
@  #10 @069   ----------------------------------------
 .byte   W96
@  #10 @070   ----------------------------------------
 .byte   W96
@  #10 @071   ----------------------------------------
 .byte   W96
@  #10 @072   ----------------------------------------
 .byte   W96
@  #10 @073   ----------------------------------------
 .byte   W96
@  #10 @074   ----------------------------------------
 .byte   W96
@  #10 @075   ----------------------------------------
 .byte   W96
@  #10 @076   ----------------------------------------
 .byte   W96
@  #10 @077   ----------------------------------------
 .byte   W96
@  #10 @078   ----------------------------------------
 .byte   W96
@  #10 @079   ----------------------------------------
 .byte   W96
@  #10 @080   ----------------------------------------
 .byte   W96
@  #10 @081   ----------------------------------------
 .byte   W96
@  #10 @082   ----------------------------------------
 .byte   W96
@  #10 @083   ----------------------------------------
 .byte   W96
@  #10 @084   ----------------------------------------
 .byte   W96
@  #10 @085   ----------------------------------------
 .byte   W96
@  #10 @086   ----------------------------------------
 .byte   W96
@  #10 @087   ----------------------------------------
 .byte   W96
@  #10 @088   ----------------------------------------
 .byte   W96
@  #10 @089   ----------------------------------------
 .byte   W96
@  #10 @090   ----------------------------------------
 .byte   W96
@  #10 @091   ----------------------------------------
 .byte   W96
@  #10 @092   ----------------------------------------
 .byte   W96
@  #10 @093   ----------------------------------------
 .byte   W96
@  #10 @094   ----------------------------------------
 .byte   W96
@  #10 @095   ----------------------------------------
 .byte   W96
@  #10 @096   ----------------------------------------
 .byte   W96
@  #10 @097   ----------------------------------------
 .byte   W96
@  #10 @098   ----------------------------------------
 .byte   W96
@  #10 @099   ----------------------------------------
 .byte   W96
@  #10 @100   ----------------------------------------
 .byte   W96
@  #10 @101   ----------------------------------------
 .byte   W96
@  #10 @102   ----------------------------------------
 .byte   W96
@  #10 @103   ----------------------------------------
 .byte   W96
@  #10 @104   ----------------------------------------
 .byte   W96
@  #10 @105   ----------------------------------------
 .byte   W96
@  #10 @106   ----------------------------------------
 .byte   PATT
  .word Label_013DBAE5
@  #10 @107   ----------------------------------------
 .byte   PATT
  .word Label_013DBAE5
@  #10 @108   ----------------------------------------
 .byte   PATT
  .word Label_013DBAFE
@  #10 @109   ----------------------------------------
 .byte   PATT
  .word Label_013DBAFE
@  #10 @110   ----------------------------------------
 .byte   PATT
  .word Label_013DBAFE
@  #10 @111   ----------------------------------------
 .byte   PATT
  .word Label_013DBB1C
@  #10 @112   ----------------------------------------
 .byte   PATT
  .word Label_013DBB2E
@  #10 @113   ----------------------------------------
 .byte   PATT
  .word Label_013DBAFE
@  #10 @114   ----------------------------------------
 .byte   PATT
  .word Label_013DBB47
@  #10 @115   ----------------------------------------
 .byte   PATT
  .word Label_013DBB47
@  #10 @116   ----------------------------------------
 .byte   PATT
  .word Label_013DBB70
@  #10 @117   ----------------------------------------
 .byte   PATT
  .word Label_013DBB94
@  #10 @118   ----------------------------------------
 .byte   PATT
  .word Label_013DBBE9
@  #10 @119   ----------------------------------------
 .byte   PATT
  .word Label_013DBC11
@  #10 @120   ----------------------------------------
 .byte   PATT
  .word Label_013DBC35
@  #10 @121   ----------------------------------------
 .byte   PATT
  .word Label_013DBC59
@  #10 @122   ----------------------------------------
 .byte   N04 ,As4 ,v072
 .byte   W96
@  #10 @123   ----------------------------------------
 .byte   W96
@  #10 @124   ----------------------------------------
 .byte   W96
@  #10 @125   ----------------------------------------
 .byte   W96
@  #10 @126   ----------------------------------------
 .byte   W96
@  #10 @127   ----------------------------------------
 .byte   W96
@  #10 @128   ----------------------------------------
 .byte   W96
@  #10 @129   ----------------------------------------
 .byte   W96
@  #10 @130   ----------------------------------------
 .byte   W96
@  #10 @131   ----------------------------------------
 .byte   W96
@  #10 @132   ----------------------------------------
 .byte   W96
@  #10 @133   ----------------------------------------
 .byte   W96
@  #10 @134   ----------------------------------------
 .byte   W96
@  #10 @135   ----------------------------------------
 .byte   W96
@  #10 @136   ----------------------------------------
 .byte   W96
@  #10 @137   ----------------------------------------
 .byte   W96
@  #10 @138   ----------------------------------------
 .byte   W96
@  #10 @139   ----------------------------------------
 .byte   W96
@  #10 @140   ----------------------------------------
 .byte   W96
@  #10 @141   ----------------------------------------
 .byte   W96
@  #10 @142   ----------------------------------------
 .byte   W96
@  #10 @143   ----------------------------------------
 .byte   W96
@  #10 @144   ----------------------------------------
 .byte   W96
@  #10 @145   ----------------------------------------
 .byte   W96
@  #10 @146   ----------------------------------------
 .byte   W96
@  #10 @147   ----------------------------------------
 .byte   W96
@  #10 @148   ----------------------------------------
 .byte   W96
@  #10 @149   ----------------------------------------
 .byte   W96
@  #10 @150   ----------------------------------------
 .byte   W96
@  #10 @151   ----------------------------------------
 .byte   W96
@  #10 @152   ----------------------------------------
 .byte   W96
@  #10 @153   ----------------------------------------
 .byte   W96
@  #10 @154   ----------------------------------------
 .byte   W96
@  #10 @155   ----------------------------------------
 .byte   W96
@  #10 @156   ----------------------------------------
 .byte   W96
@  #10 @157   ----------------------------------------
 .byte   W96
@  #10 @158   ----------------------------------------
 .byte   W96
@  #10 @159   ----------------------------------------
 .byte   W96
@  #10 @160   ----------------------------------------
 .byte   W96
@  #10 @161   ----------------------------------------
 .byte   W96
@  #10 @162   ----------------------------------------
 .byte   GOTO
  .word Label_013DBAD6
@  #10 @163   ----------------------------------------
 .byte   W96
@  #10 @164   ----------------------------------------
 .byte   W96
@  #10 @165   ----------------------------------------
 .byte   W12
 .byte   FINE

@**************** Track 11 (Midi-Chn.10) ****************@

song09_011:
@  #11 @000   ----------------------------------------
 .byte   KEYSH , song09_key+0
 .byte   VOICE , 123
 .byte   MODT 0
 .byte   LFOS 44
 .byte   VOL , 56*song09_mvl/mxv
 .byte   MODT 0
 .byte   LFOS 44
 .byte   W96
@  #11 @001   ----------------------------------------
 .byte   W96
@  #11 @002   ----------------------------------------
 .byte   W96
@  #11 @003   ----------------------------------------
 .byte   W96
@  #11 @004   ----------------------------------------
Label_013C1F96:
 .byte   N06 ,Ds0 ,v072
 .byte   N06 ,Cn1
 .byte   N06 ,Fs1
 .byte   W06
 .byte   N06
 .byte   W06
 .byte   As1
 .byte   W12
 .byte   Ds0
 .byte   N06 ,Cn1
 .byte   N06 ,Fs1
 .byte   W06
 .byte   N06
 .byte   W06
 .byte   As1
 .byte   W06
 .byte   Fs1
 .byte   W06
 .byte   Ds0
 .byte   N06 ,Cn1
 .byte   N06 ,Fs1
 .byte   W06
 .byte   N06
 .byte   W06
 .byte   As1
 .byte   W12
 .byte   Ds0
 .byte   N06 ,Cn1
 .byte   N06 ,Fs1
 .byte   W06
 .byte   N06
 .byte   W06
 .byte   As1
 .byte   W06
 .byte   Fs1
 .byte   W06
 .byte   PEND 
@  #11 @005   ----------------------------------------
 .byte   PATT
  .word Label_013C1F96
@  #11 @006   ----------------------------------------
 .byte   PATT
  .word Label_013C1F96
@  #11 @007   ----------------------------------------
Label_013C1FCF:
 .byte   N06 ,Ds0 ,v072
 .byte   N06 ,Cn1
 .byte   N06 ,Fs1
 .byte   W06
 .byte   N06
 .byte   W06
 .byte   As1
 .byte   W12
 .byte   Ds0
 .byte   N06 ,Cn1
 .byte   N06 ,Fs1
 .byte   W06
 .byte   N06
 .byte   W06
 .byte   N03
 .byte   W03
 .byte   N03
 .byte   W03
 .byte   N03
 .byte   W03
 .byte   N06
 .byte   W03
 .byte   Ds0
 .byte   N06 ,Cn1
 .byte   N06 ,As1
 .byte   W12
 .byte   Fs1
 .byte   W06
 .byte   N06
 .byte   W06
 .byte   Ds0
 .byte   N06 ,Cn1
 .byte   N06 ,Fs1
 .byte   W06
 .byte   N06
 .byte   W06
 .byte   Ds0
 .byte   N06 ,Cn1
 .byte   N06 ,As1
 .byte   W06
 .byte   Ds0
 .byte   N06 ,Cn1
 .byte   N06 ,Fs1
 .byte   W06
 .byte   PEND 
@  #11 @008   ----------------------------------------
 .byte   PATT
  .word Label_013C1F96
@  #11 @009   ----------------------------------------
 .byte   PATT
  .word Label_013C1F96
@  #11 @010   ----------------------------------------
 .byte   PATT
  .word Label_013C1F96
@  #11 @011   ----------------------------------------
Label_013C2019:
 .byte   N06 ,Ds0 ,v072
 .byte   N06 ,Cn1
 .byte   N06 ,Fs1
 .byte   W06
 .byte   N06
 .byte   W06
 .byte   As1
 .byte   W12
 .byte   Ds0
 .byte   N06 ,Cn1
 .byte   N06 ,Fs1
 .byte   W06
 .byte   N06
 .byte   W06
 .byte   N03
 .byte   W03
 .byte   N03
 .byte   W03
 .byte   N03
 .byte   W03
 .byte   N06
 .byte   W03
 .byte   Ds0
 .byte   N06 ,Cn1
 .byte   N06 ,As1
 .byte   W12
 .byte   Fs1
 .byte   W06
 .byte   N06
 .byte   W06
 .byte   Ds0
 .byte   N06 ,Cn1
 .byte   N06 ,Fs1
 .byte   W06
 .byte   N06
 .byte   W06
 .byte   Ds0
 .byte   N06 ,Cn1
 .byte   N06 ,As1
 .byte   W12
 .byte   PEND 
@  #11 @012   ----------------------------------------
 .byte   PATT
  .word Label_013C1F96
@  #11 @013   ----------------------------------------
 .byte   PATT
  .word Label_013C1F96
@  #11 @014   ----------------------------------------
 .byte   PATT
  .word Label_013C1F96
@  #11 @015   ----------------------------------------
 .byte   PATT
  .word Label_013C1FCF
@  #11 @016   ----------------------------------------
 .byte   PATT
  .word Label_013C1F96
@  #11 @017   ----------------------------------------
 .byte   PATT
  .word Label_013C1F96
@  #11 @018   ----------------------------------------
 .byte   PATT
  .word Label_013C1F96
@  #11 @019   ----------------------------------------
Label_013C2071:
 .byte   N06 ,Ds0 ,v072
 .byte   N06 ,Cn1
 .byte   N06 ,Fs1
 .byte   W06
 .byte   N06
 .byte   W06
 .byte   As1
 .byte   W12
 .byte   Ds0
 .byte   N06 ,Cn1
 .byte   N06 ,Fs1
 .byte   W06
 .byte   N06
 .byte   W06
 .byte   N03
 .byte   W03
 .byte   N03
 .byte   W03
 .byte   N03
 .byte   W03
 .byte   N06
 .byte   W03
 .byte   Ds0
 .byte   N06 ,Cn1
 .byte   N06 ,As1
 .byte   W12
 .byte   Ds0
 .byte   N06 ,Cn1
 .byte   N06 ,Fs1
 .byte   W06
 .byte   N06
 .byte   W06
 .byte   Ds0
 .byte   N06 ,Cn1
 .byte   N06 ,Fs1
 .byte   W06
 .byte   N06
 .byte   W06
 .byte   Ds0
 .byte   N06 ,Cn1
 .byte   N06 ,As1
 .byte   W06
 .byte   Ds0
 .byte   N06 ,Cn1
 .byte   N06 ,Fs1
 .byte   W06
 .byte   PEND 
@  #11 @020   ----------------------------------------
Label_013C20B0:
@  #11 @021   ----------------------------------------
 .byte   PATT
  .word Label_013C1F96
@  #11 @022   ----------------------------------------
 .byte   PATT
  .word Label_013C1F96
@  #11 @023   ----------------------------------------
 .byte   PATT
  .word Label_013C1F96
@  #11 @024   ----------------------------------------
 .byte   PATT
  .word Label_013C1FCF
@  #11 @025   ----------------------------------------
 .byte   PATT
  .word Label_013C1F96
@  #11 @026   ----------------------------------------
 .byte   PATT
  .word Label_013C1F96
@  #11 @027   ----------------------------------------
 .byte   PATT
  .word Label_013C1F96
@  #11 @028   ----------------------------------------
Label_013C20D3:
 .byte   N06 ,Fs1 ,v127
 .byte   W06
 .byte   Fs1 ,v072
 .byte   W06
 .byte   N06
 .byte   W06
 .byte   N06
 .byte   W06
 .byte   Fs1 ,v016
 .byte   W06
 .byte   N06
 .byte   W06
 .byte   N04 ,Fs1 ,v072
 .byte   W04
 .byte   N04
 .byte   W04
 .byte   N04
 .byte   W04
 .byte   N06 ,Fs1 ,v127
 .byte   W06
 .byte   Fs1 ,v072
 .byte   W06
 .byte   N06
 .byte   W06
 .byte   N06
 .byte   W06
 .byte   Fs1 ,v016
 .byte   W06
 .byte   N06
 .byte   W06
 .byte   N04 ,Fs1 ,v072
 .byte   W04
 .byte   N04
 .byte   W04
 .byte   N04
 .byte   W04
 .byte   PEND 
@  #11 @029   ----------------------------------------
 .byte   PATT
  .word Label_013C20D3
@  #11 @030   ----------------------------------------
 .byte   PATT
  .word Label_013C20D3
@  #11 @031   ----------------------------------------
Label_013C210E:
 .byte   N06 ,Fs1 ,v127
 .byte   W06
 .byte   Fs1 ,v016
 .byte   W06
 .byte   N06
 .byte   W06
 .byte   Fs1 ,v127
 .byte   W06
 .byte   Fs1 ,v016
 .byte   W06
 .byte   N06
 .byte   W06
 .byte   Fs1 ,v127
 .byte   W06
 .byte   Fs1 ,v016
 .byte   W06
 .byte   N04 ,Fs1 ,v072
 .byte   W04
 .byte   N04
 .byte   W04
 .byte   N04
 .byte   W04
 .byte   N06 ,Fs1 ,v127
 .byte   W06
 .byte   Fs1 ,v072
 .byte   W06
 .byte   Ds0
 .byte   N06 ,Cn1
 .byte   N06 ,Fs1
 .byte   W06
 .byte   N06
 .byte   W06
 .byte   Ds0
 .byte   N06 ,Cn1
 .byte   N06 ,Fs1
 .byte   W06
 .byte   N06
 .byte   W06
 .byte   PEND 
@  #11 @032   ----------------------------------------
 .byte   PATT
  .word Label_013C1F96
@  #11 @033   ----------------------------------------
 .byte   PATT
  .word Label_013C1F96
@  #11 @034   ----------------------------------------
 .byte   PATT
  .word Label_013C1F96
@  #11 @035   ----------------------------------------
Label_013C2154:
 .byte   N06 ,Ds0 ,v072
 .byte   N06 ,Cn1
 .byte   N06 ,Fs1
 .byte   W06
 .byte   N06
 .byte   W06
 .byte   As1
 .byte   W12
 .byte   Ds0
 .byte   N06 ,Cn1
 .byte   N06 ,Fs1
 .byte   W06
 .byte   N06
 .byte   W06
 .byte   N03 ,Fs1 ,v016
 .byte   W03
 .byte   N03
 .byte   W03
 .byte   N03
 .byte   W03
 .byte   N06
 .byte   W03
 .byte   Ds0 ,v072
 .byte   N06 ,Cn1
 .byte   W12
 .byte   Ds0
 .byte   N06 ,Cn1
 .byte   N06 ,Fs1
 .byte   W06
 .byte   N05
 .byte   W05
 .byte   N06
 .byte   W01
 .byte   Ds0
 .byte   N06 ,Cn1
 .byte   W05
 .byte   Fs1
 .byte   W01
 .byte   Ds0
 .byte   N06 ,Cn1
 .byte   W05
 .byte   Fs1
 .byte   W01
 .byte   Ds0
 .byte   N06 ,Cn1
 .byte   W05
 .byte   Fs1
 .byte   W01
 .byte   Ds0
 .byte   N06 ,Cn1
 .byte   W06
 .byte   PEND 
@  #11 @036   ----------------------------------------
 .byte   W96
@  #11 @037   ----------------------------------------
 .byte   W96
@  #11 @038   ----------------------------------------
 .byte   W96
@  #11 @039   ----------------------------------------
 .byte   W96
@  #11 @040   ----------------------------------------
 .byte   W96
@  #11 @041   ----------------------------------------
 .byte   W96
@  #11 @042   ----------------------------------------
 .byte   W96
@  #11 @043   ----------------------------------------
 .byte   W96
@  #11 @044   ----------------------------------------
 .byte   PATT
  .word Label_013C20D3
@  #11 @045   ----------------------------------------
 .byte   PATT
  .word Label_013C20D3
@  #11 @046   ----------------------------------------
 .byte   PATT
  .word Label_013C20D3
@  #11 @047   ----------------------------------------
Label_013C21AF:
 .byte   N06 ,Fs1 ,v127
 .byte   W06
 .byte   Fs1 ,v016
 .byte   W06
 .byte   N06
 .byte   W06
 .byte   Fs1 ,v127
 .byte   W06
 .byte   Fs1 ,v016
 .byte   W06
 .byte   N06
 .byte   W06
 .byte   Fs1 ,v127
 .byte   W06
 .byte   Fs1 ,v016
 .byte   W06
 .byte   N04 ,Fs1 ,v072
 .byte   W04
 .byte   N04
 .byte   W04
 .byte   N04
 .byte   W04
 .byte   N06 ,Fs1 ,v127
 .byte   W06
 .byte   Fs1 ,v072
 .byte   W06
 .byte   N06
 .byte   W06
 .byte   N06
 .byte   W06
 .byte   N06
 .byte   W06
 .byte   N06
 .byte   W06
 .byte   PEND 
@  #11 @048   ----------------------------------------
Label_013C21DE:
 .byte   N06 ,Fs1 ,v072
 .byte   W06
 .byte   N06
 .byte   W06
 .byte   As1
 .byte   W12
 .byte   Fs1
 .byte   W06
 .byte   N06
 .byte   W06
 .byte   As1
 .byte   W06
 .byte   Fs1
 .byte   W06
 .byte   N06
 .byte   W06
 .byte   N06
 .byte   W06
 .byte   As1
 .byte   W12
 .byte   Fs1
 .byte   W06
 .byte   N06
 .byte   W06
 .byte   As1
 .byte   W06
 .byte   Fs1
 .byte   W06
 .byte   PEND 
@  #11 @049   ----------------------------------------
 .byte   PATT
  .word Label_013C21DE
@  #11 @050   ----------------------------------------
 .byte   PATT
  .word Label_013C21DE
@  #11 @051   ----------------------------------------
Label_013C2207:
 .byte   N06 ,Fs1 ,v072
 .byte   W06
 .byte   N06
 .byte   W06
 .byte   As1
 .byte   W12
 .byte   Fs1
 .byte   W06
 .byte   N06
 .byte   W06
 .byte   N03 ,Fs1 ,v016
 .byte   W03
 .byte   N03
 .byte   W03
 .byte   N03
 .byte   W03
 .byte   N06
 .byte   W03
 .byte   Ds0 ,v072
 .byte   N06 ,Cn1
 .byte   W12
 .byte   Ds0
 .byte   N06 ,Cn1
 .byte   W12
 .byte   Ds0
 .byte   N06 ,Cn1
 .byte   W12
 .byte   Ds0
 .byte   N06 ,Cn1
 .byte   W12
 .byte   PEND 
@  #11 @052   ----------------------------------------
 .byte   PATT
  .word Label_013C1F96
@  #11 @053   ----------------------------------------
 .byte   PATT
  .word Label_013C1F96
@  #11 @054   ----------------------------------------
 .byte   PATT
  .word Label_013C1F96
@  #11 @055   ----------------------------------------
 .byte   PATT
  .word Label_013C1FCF
@  #11 @056   ----------------------------------------
 .byte   PATT
  .word Label_013C1F96
@  #11 @057   ----------------------------------------
 .byte   PATT
  .word Label_013C1F96
@  #11 @058   ----------------------------------------
 .byte   PATT
  .word Label_013C1F96
@  #11 @059   ----------------------------------------
 .byte   PATT
  .word Label_013C1FCF
@  #11 @060   ----------------------------------------
 .byte   PATT
  .word Label_013C1F96
@  #11 @061   ----------------------------------------
 .byte   PATT
  .word Label_013C1F96
@  #11 @062   ----------------------------------------
 .byte   PATT
  .word Label_013C1F96
@  #11 @063   ----------------------------------------
 .byte   PATT
  .word Label_013C1FCF
@  #11 @064   ----------------------------------------
 .byte   PATT
  .word Label_013C1F96
@  #11 @065   ----------------------------------------
 .byte   PATT
  .word Label_013C1F96
@  #11 @066   ----------------------------------------
 .byte   PATT
  .word Label_013C1F96
@  #11 @067   ----------------------------------------
 .byte   PATT
  .word Label_013C1FCF
@  #11 @068   ----------------------------------------
 .byte   PATT
  .word Label_013C1F96
@  #11 @069   ----------------------------------------
 .byte   PATT
  .word Label_013C1F96
@  #11 @070   ----------------------------------------
 .byte   PATT
  .word Label_013C1F96
@  #11 @071   ----------------------------------------
Label_013C228E:
 .byte   N06 ,Ds0 ,v072
 .byte   N06 ,Cn1
 .byte   N06 ,Fs1
 .byte   W06
 .byte   N06
 .byte   W06
 .byte   As1
 .byte   W12
 .byte   Ds0
 .byte   N06 ,Cn1
 .byte   N06 ,Fs1
 .byte   W06
 .byte   N06
 .byte   W06
 .byte   N03
 .byte   W03
 .byte   N03
 .byte   W03
 .byte   N03
 .byte   W03
 .byte   N06
 .byte   W03
 .byte   Ds0
 .byte   N06 ,Cn1
 .byte   W12
 .byte   Fs1
 .byte   W06
 .byte   N06
 .byte   W06
 .byte   Ds0
 .byte   N06 ,Cn1
 .byte   N06 ,Fs1
 .byte   W06
 .byte   Ds0
 .byte   N06 ,Cn1
 .byte   N06 ,Fs1
 .byte   W06
 .byte   Ds0
 .byte   N06 ,Cn1
 .byte   N06 ,Fs1
 .byte   W06
 .byte   Ds0
 .byte   N06 ,Cn1
 .byte   N06 ,Fs1
 .byte   W06
 .byte   PEND 
@  #11 @072   ----------------------------------------
 .byte   PATT
  .word Label_013C1F96
@  #11 @073   ----------------------------------------
 .byte   PATT
  .word Label_013C1F96
@  #11 @074   ----------------------------------------
Label_013C22D5:
 .byte   N06 ,Ds0 ,v072
 .byte   N06 ,Cn1
 .byte   N06 ,Fs1
 .byte   W06
 .byte   Ds0 ,v016
 .byte   N06 ,Cn1
 .byte   N06 ,Fs1 ,v072
 .byte   W06
 .byte   Ds0 ,v016
 .byte   N06 ,Cn1
 .byte   N06 ,As1 ,v072
 .byte   W06
 .byte   Ds0 ,v016
 .byte   N06 ,Cn1
 .byte   W06
 .byte   Ds0 ,v072
 .byte   N06 ,Cn1
 .byte   N06 ,Fs1
 .byte   W06
 .byte   Ds0 ,v024
 .byte   N06 ,Cn1
 .byte   N06 ,Fs1 ,v072
 .byte   W06
 .byte   Ds0 ,v024
 .byte   N06 ,Cn1
 .byte   N06 ,As1 ,v072
 .byte   W06
 .byte   Ds0 ,v024
 .byte   N06 ,Cn1
 .byte   N06 ,Fs1 ,v072
 .byte   W06
 .byte   Ds0
 .byte   N06 ,Cn1
 .byte   N06 ,Fs1
 .byte   W06
 .byte   Ds0 ,v028
 .byte   N06 ,Cn1
 .byte   N06 ,Fs1 ,v072
 .byte   W06
 .byte   Ds0 ,v028
 .byte   N06 ,Cn1
 .byte   N06 ,As1 ,v072
 .byte   W06
 .byte   Ds0 ,v028
 .byte   N06 ,Cn1
 .byte   W06
 .byte   Ds0 ,v072
 .byte   N06 ,Cn1
 .byte   N06 ,Fs1
 .byte   W06
 .byte   Ds0 ,v032
 .byte   N06 ,Cn1
 .byte   N06 ,Fs1 ,v072
 .byte   W06
 .byte   Ds0 ,v032
 .byte   N06 ,Cn1
 .byte   N06 ,As1 ,v072
 .byte   W06
 .byte   Ds0 ,v032
 .byte   N06 ,Cn1
 .byte   N06 ,Fs1 ,v072
 .byte   W06
 .byte   PEND 
@  #11 @075   ----------------------------------------
Label_013C234C:
 .byte   N06 ,Ds0 ,v072
 .byte   N06 ,Cn1
 .byte   N06 ,Fs1
 .byte   W06
 .byte   Ds0 ,v036
 .byte   N06 ,Cn1
 .byte   N06 ,Fs1 ,v072
 .byte   W06
 .byte   Ds0 ,v036
 .byte   N06 ,Cn1
 .byte   N06 ,As1 ,v072
 .byte   W06
 .byte   Ds0 ,v036
 .byte   N06 ,Cn1
 .byte   W06
 .byte   Ds0 ,v072
 .byte   N06 ,Cn1
 .byte   N06 ,Fs1
 .byte   W06
 .byte   Ds0 ,v048
 .byte   N06 ,Cn1
 .byte   N06 ,Fs1 ,v072
 .byte   W06
 .byte   Ds0 ,v048
 .byte   N06 ,Cn1
 .byte   N03 ,Fs1 ,v072
 .byte   W03
 .byte   N03
 .byte   W03
 .byte   N06 ,Ds0 ,v048
 .byte   N06 ,Cn1
 .byte   N03 ,Fs1 ,v072
 .byte   W03
 .byte   N06
 .byte   W03
 .byte   Ds0
 .byte   N06 ,Cn1
 .byte   W06
 .byte   Ds0 ,v052
 .byte   N06 ,Cn1
 .byte   W06
 .byte   Ds0
 .byte   N06 ,Cn1
 .byte   N06 ,Fs1 ,v072
 .byte   W06
 .byte   Ds0 ,v052
 .byte   N06 ,Cn1
 .byte   N06 ,Fs1 ,v072
 .byte   W06
 .byte   Ds0
 .byte   N06 ,Cn1
 .byte   N06 ,Fs1
 .byte   W06
 .byte   Ds0
 .byte   N06 ,Cn1
 .byte   N06 ,Fs1
 .byte   W06
 .byte   Ds0
 .byte   N06 ,Cn1
 .byte   N06 ,Fs1
 .byte   W06
 .byte   Ds0
 .byte   N06 ,Cn1
 .byte   N06 ,Fs1
 .byte   W06
 .byte   PEND 
@  #11 @076   ----------------------------------------
 .byte   PATT
  .word Label_013C1F96
@  #11 @077   ----------------------------------------
 .byte   PATT
  .word Label_013C1F96
@  #11 @078   ----------------------------------------
 .byte   PATT
  .word Label_013C1F96
@  #11 @079   ----------------------------------------
 .byte   PATT
  .word Label_013C1FCF
@  #11 @080   ----------------------------------------
 .byte   PATT
  .word Label_013C1F96
@  #11 @081   ----------------------------------------
 .byte   PATT
  .word Label_013C1F96
@  #11 @082   ----------------------------------------
 .byte   PATT
  .word Label_013C1F96
@  #11 @083   ----------------------------------------
 .byte   PATT
  .word Label_013C2019
@  #11 @084   ----------------------------------------
 .byte   PATT
  .word Label_013C1F96
@  #11 @085   ----------------------------------------
 .byte   PATT
  .word Label_013C1F96
@  #11 @086   ----------------------------------------
 .byte   PATT
  .word Label_013C1F96
@  #11 @087   ----------------------------------------
 .byte   PATT
  .word Label_013C1FCF
@  #11 @088   ----------------------------------------
 .byte   PATT
  .word Label_013C1F96
@  #11 @089   ----------------------------------------
 .byte   PATT
  .word Label_013C1F96
@  #11 @090   ----------------------------------------
 .byte   PATT
  .word Label_013C1F96
@  #11 @091   ----------------------------------------
 .byte   PATT
  .word Label_013C2071
@  #11 @092   ----------------------------------------
 .byte   PATT
  .word Label_013C1F96
@  #11 @093   ----------------------------------------
 .byte   PATT
  .word Label_013C1F96
@  #11 @094   ----------------------------------------
 .byte   PATT
  .word Label_013C1F96
@  #11 @095   ----------------------------------------
 .byte   PATT
  .word Label_013C1FCF
@  #11 @096   ----------------------------------------
 .byte   PATT
  .word Label_013C1F96
@  #11 @097   ----------------------------------------
 .byte   PATT
  .word Label_013C1F96
@  #11 @098   ----------------------------------------
 .byte   PATT
  .word Label_013C1F96
@  #11 @099   ----------------------------------------
 .byte   PATT
  .word Label_013C20D3
@  #11 @100   ----------------------------------------
 .byte   PATT
  .word Label_013C20D3
@  #11 @101   ----------------------------------------
 .byte   PATT
  .word Label_013C20D3
@  #11 @102   ----------------------------------------
 .byte   PATT
  .word Label_013C210E
@  #11 @103   ----------------------------------------
 .byte   PATT
  .word Label_013C1F96
@  #11 @104   ----------------------------------------
 .byte   PATT
  .word Label_013C1F96
@  #11 @105   ----------------------------------------
 .byte   PATT
  .word Label_013C1F96
@  #11 @106   ----------------------------------------
 .byte   PATT
  .word Label_013C2154
@  #11 @107   ----------------------------------------
 .byte   W96
@  #11 @108   ----------------------------------------
 .byte   W96
@  #11 @109   ----------------------------------------
 .byte   W96
@  #11 @110   ----------------------------------------
 .byte   W96
@  #11 @111   ----------------------------------------
 .byte   W96
@  #11 @112   ----------------------------------------
 .byte   W96
@  #11 @113   ----------------------------------------
 .byte   W96
@  #11 @114   ----------------------------------------
 .byte   W96
@  #11 @115   ----------------------------------------
 .byte   PATT
  .word Label_013C20D3
@  #11 @116   ----------------------------------------
 .byte   PATT
  .word Label_013C20D3
@  #11 @117   ----------------------------------------
 .byte   PATT
  .word Label_013C20D3
@  #11 @118   ----------------------------------------
 .byte   PATT
  .word Label_013C21AF
@  #11 @119   ----------------------------------------
 .byte   PATT
  .word Label_013C21DE
@  #11 @120   ----------------------------------------
 .byte   PATT
  .word Label_013C21DE
@  #11 @121   ----------------------------------------
 .byte   PATT
  .word Label_013C21DE
@  #11 @122   ----------------------------------------
 .byte   PATT
  .word Label_013C2207
@  #11 @123   ----------------------------------------
 .byte   PATT
  .word Label_013C1F96
@  #11 @124   ----------------------------------------
 .byte   PATT
  .word Label_013C1F96
@  #11 @125   ----------------------------------------
 .byte   PATT
  .word Label_013C1F96
@  #11 @126   ----------------------------------------
 .byte   PATT
  .word Label_013C1FCF
@  #11 @127   ----------------------------------------
 .byte   PATT
  .word Label_013C1F96
@  #11 @128   ----------------------------------------
 .byte   PATT
  .word Label_013C1F96
@  #11 @129   ----------------------------------------
 .byte   PATT
  .word Label_013C1F96
@  #11 @130   ----------------------------------------
 .byte   PATT
  .word Label_013C1FCF
@  #11 @131   ----------------------------------------
 .byte   PATT
  .word Label_013C1F96
@  #11 @132   ----------------------------------------
 .byte   PATT
  .word Label_013C1F96
@  #11 @133   ----------------------------------------
 .byte   PATT
  .word Label_013C1F96
@  #11 @134   ----------------------------------------
 .byte   PATT
  .word Label_013C1FCF
@  #11 @135   ----------------------------------------
 .byte   PATT
  .word Label_013C1F96
@  #11 @136   ----------------------------------------
 .byte   PATT
  .word Label_013C1F96
@  #11 @137   ----------------------------------------
 .byte   PATT
  .word Label_013C1F96
@  #11 @138   ----------------------------------------
 .byte   PATT
  .word Label_013C1FCF
@  #11 @139   ----------------------------------------
 .byte   PATT
  .word Label_013C1F96
@  #11 @140   ----------------------------------------
 .byte   PATT
  .word Label_013C1F96
@  #11 @141   ----------------------------------------
 .byte   PATT
  .word Label_013C1F96
@  #11 @142   ----------------------------------------
 .byte   PATT
  .word Label_013C228E
@  #11 @143   ----------------------------------------
 .byte   PATT
  .word Label_013C1F96
@  #11 @144   ----------------------------------------
 .byte   PATT
  .word Label_013C1F96
@  #11 @145   ----------------------------------------
 .byte   PATT
  .word Label_013C22D5
@  #11 @146   ----------------------------------------
 .byte   PATT
  .word Label_013C234C
@  #11 @147   ----------------------------------------
 .byte   PATT
  .word Label_013C1F96
@  #11 @148   ----------------------------------------
 .byte   PATT
  .word Label_013C1F96
@  #11 @149   ----------------------------------------
 .byte   PATT
  .word Label_013C1F96
@  #11 @150   ----------------------------------------
 .byte   PATT
  .word Label_013C1FCF
@  #11 @151   ----------------------------------------
 .byte   PATT
  .word Label_013C1F96
@  #11 @152   ----------------------------------------
 .byte   PATT
  .word Label_013C1F96
@  #11 @153   ----------------------------------------
 .byte   PATT
  .word Label_013C1F96
@  #11 @154   ----------------------------------------
 .byte   PATT
  .word Label_013C2019
@  #11 @155   ----------------------------------------
 .byte   PATT
  .word Label_013C1F96
@  #11 @156   ----------------------------------------
 .byte   PATT
  .word Label_013C1F96
@  #11 @157   ----------------------------------------
 .byte   PATT
  .word Label_013C1F96
@  #11 @158   ----------------------------------------
 .byte   PATT
  .word Label_013C1FCF
@  #11 @159   ----------------------------------------
 .byte   PATT
  .word Label_013C1F96
@  #11 @160   ----------------------------------------
 .byte   PATT
  .word Label_013C1F96
@  #11 @161   ----------------------------------------
 .byte   PATT
  .word Label_013C1F96
@  #11 @162   ----------------------------------------
 .byte   PATT
  .word Label_013C2071
@  #11 @163   ----------------------------------------
 .byte   GOTO
  .word Label_013C20B0
@  #11 @164   ----------------------------------------
 .byte   PATT
  .word Label_013C1F96
@  #11 @165   ----------------------------------------
 .byte   PATT
  .word Label_013C1F96
@  #11 @166   ----------------------------------------
 .byte   PATT
  .word Label_013C1F96
 .byte   FINE

@******************************************************@
	.align	2

song09:
	.byte	11	@ NumTrks
	.byte	0	@ NumBlks
	.byte	song09_pri	@ Priority
	.byte	song09_rev	@ Reverb.
    
	.word	song09_grp
    
	.word	song09_001
	.word	song09_002
	.word	song09_003
	.word	song09_004
	.word	song09_005
	.word	song09_006
	.word	song09_007
	.word	song09_008
	.word	song09_009
	.word	song09_010
	.word	song09_011

	.end
