	.include "MPlayDef.s"

	.equ	song0105_grp, voicegroup000
	.equ	song0105_pri, 0
	.equ	song0105_rev, 0
	.equ	song0105_mvl, 127
	.equ	song0105_key, 0
	.equ	song0105_tbs, 1
	.equ	song0105_exg, 0
	.equ	song0105_cmp, 1

	.section .rodata
	.global	song0105
	.align	2


@**************** Track 1 (Midi-Chn.0) ****************@

song0105_001:
@ 000   ----------------------------------------
 .byte   KEYSH , song0105_key+0
Label_0_0125E1EE:
 .byte   TEMPO , 130*song0105_tbs/2
 .byte   VOICE , 50
 .byte   W08
 .byte   VOL , 41*song0105_mvl/mxv
 .byte   N90 ,Gs1 ,v127
 .byte   N90 ,Gs2
 .byte   W88
@ 001   ----------------------------------------
Label_0_0125E1FB:
 .byte   W08
 .byte   N36 ,Cs1 ,v127
 .byte   N36 ,Cs2
 .byte   W36
 .byte   N60 ,Dn1
 .byte   N60 ,Dn2
 .byte   W52
 .byte   PEND 
@ 002   ----------------------------------------
Label_0_0125E208:
 .byte   W08
 .byte   N96 ,Gs1 ,v127
 .byte   N96 ,Gs2
 .byte   W88
 .byte   PEND 
@ 003   ----------------------------------------
Label_0_0125E210:
 .byte   W08
 .byte   N36 ,Cs1 ,v127
 .byte   N36 ,Cs2
 .byte   W36
 .byte   N54 ,An1
 .byte   N48 ,An2
 .byte   W52
 .byte   PEND 
@ 004   ----------------------------------------
Label_0_0125E21D:
 .byte   W08
 .byte   N90 ,Gs1 ,v127
 .byte   N90 ,Gs2
 .byte   W88
 .byte   PEND 
@ 005   ----------------------------------------
 .byte   PATT
  .word Label_0_0125E1FB
@ 006   ----------------------------------------
 .byte   PATT
  .word Label_0_0125E208
@ 007   ----------------------------------------
 .byte   PATT
  .word Label_0_0125E210
@ 008   ----------------------------------------
Label_0_0125E234:
 .byte   W08
 .byte   TIE ,Fn1 ,v127
 .byte   TIE ,Fn2
 .byte   W88
 .byte   PEND 
@ 009   ----------------------------------------
 .byte   W96
@ 010   ----------------------------------------
 .byte   W02
 .byte   EOT
 .byte   Fn1 ,v053
 .byte   W06
 .byte   TIE ,Fs1
 .byte   TIE ,Fs2
 .byte   W88
@ 011   ----------------------------------------
 .byte   W96
@ 012   ----------------------------------------
 .byte   W02
 .byte   EOT
 .byte   Fs1 ,v054
 .byte   W92
 .byte   W02
@ 013   ----------------------------------------
 .byte   W96
@ 014   ----------------------------------------
 .byte   W96
@ 015   ----------------------------------------
 .byte   W96
@ 016   ----------------------------------------
 .byte   W96
@ 017   ----------------------------------------
 .byte   W96
@ 018   ----------------------------------------
 .byte   W96
@ 019   ----------------------------------------
 .byte   W96
@ 020   ----------------------------------------
Label_0_0125E255:
 .byte   W08
 .byte   N72 ,An1 ,v127
 .byte   N72 ,An2
 .byte   W72
 .byte   N24 ,Gn1
 .byte   N24 ,Gn2
 .byte   W16
 .byte   PEND 
@ 021   ----------------------------------------
Label_0_0125E262:
 .byte   W08
 .byte   N72 ,As1 ,v127
 .byte   N72 ,As2
 .byte   W72
 .byte   N24 ,Cn2
 .byte   N24 ,Cn3
 .byte   W16
 .byte   PEND 
@ 022   ----------------------------------------
Label_0_0125E26F:
 .byte   W08
 .byte   TIE ,An1 ,v127
 .byte   TIE ,An2
 .byte   W88
 .byte   PEND 
@ 023   ----------------------------------------
 .byte   W96
@ 024   ----------------------------------------
 .byte   W08
 .byte   EOT
 .byte   An1 ,v057
 .byte   N72 ,An1
 .byte   N72 ,An2
 .byte   W72
 .byte   N24 ,Gn1
 .byte   N24 ,Gn2
 .byte   W16
@ 025   ----------------------------------------
 .byte   PATT
  .word Label_0_0125E262
@ 026   ----------------------------------------
 .byte   W96
@ 027   ----------------------------------------
 .byte   W96
@ 028   ----------------------------------------
 .byte   W96
@ 029   ----------------------------------------
 .byte   W96
@ 030   ----------------------------------------
 .byte   W08
 .byte   VOL , 41*song0105_mvl/mxv
 .byte   N90 ,Gs1 ,v127
 .byte   N90 ,Gs2
 .byte   W88
@ 031   ----------------------------------------
 .byte   PATT
  .word Label_0_0125E1FB
@ 032   ----------------------------------------
 .byte   PATT
  .word Label_0_0125E208
@ 033   ----------------------------------------
 .byte   PATT
  .word Label_0_0125E210
@ 034   ----------------------------------------
 .byte   PATT
  .word Label_0_0125E21D
@ 035   ----------------------------------------
 .byte   PATT
  .word Label_0_0125E1FB
@ 036   ----------------------------------------
 .byte   PATT
  .word Label_0_0125E208
@ 037   ----------------------------------------
 .byte   PATT
  .word Label_0_0125E210
@ 038   ----------------------------------------
 .byte   PATT
  .word Label_0_0125E234
@ 039   ----------------------------------------
 .byte   W96
@ 040   ----------------------------------------
 .byte   W02
 .byte   EOT
 .byte   Fn1 ,v053
 .byte   W06
 .byte   TIE ,Fs1 ,v127
 .byte   TIE ,Fs2
 .byte   W88
@ 041   ----------------------------------------
 .byte   W96
@ 042   ----------------------------------------
 .byte   W02
 .byte   EOT
 .byte   Fs1 ,v054
 .byte   W92
 .byte   W02
@ 043   ----------------------------------------
 .byte   W96
@ 044   ----------------------------------------
 .byte   W96
@ 045   ----------------------------------------
 .byte   W96
@ 046   ----------------------------------------
 .byte   W96
@ 047   ----------------------------------------
 .byte   W96
@ 048   ----------------------------------------
 .byte   W96
@ 049   ----------------------------------------
 .byte   W96
@ 050   ----------------------------------------
 .byte   PATT
  .word Label_0_0125E255
@ 051   ----------------------------------------
 .byte   PATT
  .word Label_0_0125E262
@ 052   ----------------------------------------
 .byte   PATT
  .word Label_0_0125E26F
@ 053   ----------------------------------------
 .byte   W96
@ 054   ----------------------------------------
 .byte   W08
 .byte   EOT
 .byte   An1 ,v057
 .byte   N72 ,An1 ,v127
 .byte   N72 ,An2
 .byte   W72
 .byte   N24 ,Gn1
 .byte   N24 ,Gn2
 .byte   W16
@ 055   ----------------------------------------
 .byte   PATT
  .word Label_0_0125E262
@ 056   ----------------------------------------
 .byte   W96
@ 057   ----------------------------------------
 .byte   W96
@ 058   ----------------------------------------
 .byte   W96
@ 059   ----------------------------------------
 .byte   W96
@ 060   ----------------------------------------
 .byte   W32
 .byte   GOTO
  .word Label_0_0125E1EE
 .byte   FINE

@**************** Track 2 (Midi-Chn.1) ****************@

song0105_002:
@ 000   ----------------------------------------
 .byte   KEYSH , song0105_key+0
Label_1_0125E30E:
 .byte   VOICE , 92
 .byte   W08
 .byte   PAN , c_v-26
 .byte   VOL , 53*song0105_mvl/mxv
 .byte   W88
@ 001   ----------------------------------------
 .byte   W96
@ 002   ----------------------------------------
 .byte   W96
@ 003   ----------------------------------------
 .byte   W96
@ 004   ----------------------------------------
 .byte   W96
@ 005   ----------------------------------------
 .byte   W96
@ 006   ----------------------------------------
 .byte   W96
@ 007   ----------------------------------------
 .byte   W96
@ 008   ----------------------------------------
 .byte   W96
@ 009   ----------------------------------------
 .byte   W96
@ 010   ----------------------------------------
 .byte   W96
@ 011   ----------------------------------------
 .byte   W96
@ 012   ----------------------------------------
Label_1_0125E321:
 .byte   W08
 .byte   N12 ,Fn4 ,v127
 .byte   W36
 .byte   Fs4
 .byte   W36
 .byte   Gs4
 .byte   W16
 .byte   PEND 
@ 013   ----------------------------------------
Label_1_0125E32B:
 .byte   W08
 .byte   N12 ,Cs4 ,v127
 .byte   W36
 .byte   Ds4
 .byte   W36
 .byte   En4
 .byte   W16
 .byte   PEND 
@ 014   ----------------------------------------
 .byte   PATT
  .word Label_1_0125E321
@ 015   ----------------------------------------
Label_1_0125E33A:
 .byte   W08
 .byte   N12 ,Cs4 ,v127
 .byte   W36
 .byte   Cn4
 .byte   W24
 .byte   Bn3
 .byte   W12
 .byte   Cn4
 .byte   W16
 .byte   PEND 
@ 016   ----------------------------------------
 .byte   PATT
  .word Label_1_0125E321
@ 017   ----------------------------------------
 .byte   PATT
  .word Label_1_0125E32B
@ 018   ----------------------------------------
 .byte   PATT
  .word Label_1_0125E321
@ 019   ----------------------------------------
 .byte   PATT
  .word Label_1_0125E33A
@ 020   ----------------------------------------
 .byte   W96
@ 021   ----------------------------------------
 .byte   W96
@ 022   ----------------------------------------
 .byte   W96
@ 023   ----------------------------------------
 .byte   W96
@ 024   ----------------------------------------
 .byte   W96
@ 025   ----------------------------------------
 .byte   W96
@ 026   ----------------------------------------
 .byte   W96
@ 027   ----------------------------------------
 .byte   W96
@ 028   ----------------------------------------
 .byte   W96
@ 029   ----------------------------------------
 .byte   W96
@ 030   ----------------------------------------
 .byte   W08
 .byte   PAN , c_v-26
 .byte   VOL , 53*song0105_mvl/mxv
 .byte   W88
@ 031   ----------------------------------------
 .byte   W96
@ 032   ----------------------------------------
 .byte   W96
@ 033   ----------------------------------------
 .byte   W96
@ 034   ----------------------------------------
 .byte   W96
@ 035   ----------------------------------------
 .byte   W96
@ 036   ----------------------------------------
 .byte   W96
@ 037   ----------------------------------------
 .byte   W96
@ 038   ----------------------------------------
 .byte   W96
@ 039   ----------------------------------------
 .byte   W96
@ 040   ----------------------------------------
 .byte   W96
@ 041   ----------------------------------------
 .byte   W96
@ 042   ----------------------------------------
 .byte   PATT
  .word Label_1_0125E321
@ 043   ----------------------------------------
 .byte   PATT
  .word Label_1_0125E32B
@ 044   ----------------------------------------
 .byte   PATT
  .word Label_1_0125E321
@ 045   ----------------------------------------
 .byte   PATT
  .word Label_1_0125E33A
@ 046   ----------------------------------------
 .byte   PATT
  .word Label_1_0125E321
@ 047   ----------------------------------------
 .byte   PATT
  .word Label_1_0125E32B
@ 048   ----------------------------------------
 .byte   PATT
  .word Label_1_0125E321
@ 049   ----------------------------------------
 .byte   PATT
  .word Label_1_0125E33A
@ 050   ----------------------------------------
 .byte   W96
@ 051   ----------------------------------------
 .byte   W96
@ 052   ----------------------------------------
 .byte   W96
@ 053   ----------------------------------------
 .byte   W96
@ 054   ----------------------------------------
 .byte   W96
@ 055   ----------------------------------------
 .byte   W96
@ 056   ----------------------------------------
 .byte   W96
@ 057   ----------------------------------------
 .byte   W96
@ 058   ----------------------------------------
 .byte   W96
@ 059   ----------------------------------------
 .byte   W96
@ 060   ----------------------------------------
 .byte   W32
 .byte   GOTO
  .word Label_1_0125E30E
 .byte   FINE

@**************** Track 3 (Midi-Chn.2) ****************@

song0105_003:
@ 000   ----------------------------------------
 .byte   KEYSH , song0105_key+0
Label_2_0125E3B2:
 .byte   VOICE , 63
 .byte   W08
 .byte   VOL , 65*song0105_mvl/mxv
 .byte   W88
@ 001   ----------------------------------------
 .byte   W96
@ 002   ----------------------------------------
 .byte   W96
@ 003   ----------------------------------------
 .byte   W96
@ 004   ----------------------------------------
 .byte   W96
@ 005   ----------------------------------------
 .byte   W96
@ 006   ----------------------------------------
 .byte   W96
@ 007   ----------------------------------------
 .byte   W96
@ 008   ----------------------------------------
 .byte   W96
@ 009   ----------------------------------------
 .byte   W96
@ 010   ----------------------------------------
 .byte   W96
@ 011   ----------------------------------------
 .byte   W96
@ 012   ----------------------------------------
Label_2_0125E3C3:
 .byte   W08
 .byte   TIE ,Fn0 ,v127
 .byte   W48
 .byte   N12 ,Fn1
 .byte   W18
 .byte   N12
 .byte   W22
 .byte   PEND 
@ 013   ----------------------------------------
Label_2_0125E3CE:
 .byte   W56
 .byte   N12 ,Fn1 ,v127
 .byte   W18
 .byte   N12
 .byte   W22
 .byte   PEND 
@ 014   ----------------------------------------
 .byte   W08
 .byte   EOT
 .byte   Fn0
 .byte   TIE
 .byte   W48
 .byte   N12 ,Fn1
 .byte   W18
 .byte   N12
 .byte   W22
@ 015   ----------------------------------------
 .byte   PATT
  .word Label_2_0125E3CE
@ 016   ----------------------------------------
 .byte   W08
 .byte   EOT
 .byte   Fn0
 .byte   TIE ,Fn0 ,v127
 .byte   W48
 .byte   N12 ,Fn1
 .byte   W18
 .byte   N12
 .byte   W22
@ 017   ----------------------------------------
 .byte   PATT
  .word Label_2_0125E3CE
@ 018   ----------------------------------------
 .byte   W08
 .byte   EOT
 .byte   Fn0
 .byte   TIE ,Fn0 ,v127
 .byte   W48
 .byte   N12 ,Fn1
 .byte   W18
 .byte   N12
 .byte   W22
@ 019   ----------------------------------------
 .byte   PATT
  .word Label_2_0125E3CE
@ 020   ----------------------------------------
 .byte   W08
 .byte   EOT
 .byte   Fn0
 .byte   W88
@ 021   ----------------------------------------
 .byte   W96
@ 022   ----------------------------------------
 .byte   W96
@ 023   ----------------------------------------
 .byte   W96
@ 024   ----------------------------------------
 .byte   W96
@ 025   ----------------------------------------
 .byte   W96
@ 026   ----------------------------------------
Label_2_0125E410:
 .byte   W08
 .byte   TIE ,Dn0 ,v127
 .byte   W88
 .byte   PEND 
@ 027   ----------------------------------------
 .byte   W96
@ 028   ----------------------------------------
 .byte   W08
 .byte   EOT
 .byte   TIE
 .byte   W88
@ 029   ----------------------------------------
 .byte   W96
@ 030   ----------------------------------------
 .byte   W08
 .byte   EOT
 .byte   VOL , 65*song0105_mvl/mxv
 .byte   W88
@ 031   ----------------------------------------
 .byte   W96
@ 032   ----------------------------------------
 .byte   W96
@ 033   ----------------------------------------
 .byte   W96
@ 034   ----------------------------------------
 .byte   W96
@ 035   ----------------------------------------
 .byte   W96
@ 036   ----------------------------------------
 .byte   W96
@ 037   ----------------------------------------
 .byte   W96
@ 038   ----------------------------------------
 .byte   W96
@ 039   ----------------------------------------
 .byte   W96
@ 040   ----------------------------------------
 .byte   W96
@ 041   ----------------------------------------
 .byte   W96
@ 042   ----------------------------------------
 .byte   PATT
  .word Label_2_0125E3C3
@ 043   ----------------------------------------
 .byte   PATT
  .word Label_2_0125E3CE
@ 044   ----------------------------------------
 .byte   W08
 .byte   EOT
 .byte   Fn0
 .byte   TIE ,Fn0 ,v127
 .byte   W48
 .byte   N12 ,Fn1
 .byte   W18
 .byte   N12
 .byte   W22
@ 045   ----------------------------------------
 .byte   PATT
  .word Label_2_0125E3CE
@ 046   ----------------------------------------
 .byte   W08
 .byte   EOT
 .byte   Fn0
 .byte   TIE ,Fn0 ,v127
 .byte   W48
 .byte   N12 ,Fn1
 .byte   W18
 .byte   N12
 .byte   W22
@ 047   ----------------------------------------
 .byte   PATT
  .word Label_2_0125E3CE
@ 048   ----------------------------------------
 .byte   W08
 .byte   EOT
 .byte   Fn0
 .byte   TIE ,Fn0 ,v127
 .byte   W48
 .byte   N12 ,Fn1
 .byte   W18
 .byte   N12
 .byte   W22
@ 049   ----------------------------------------
 .byte   PATT
  .word Label_2_0125E3CE
@ 050   ----------------------------------------
 .byte   W08
 .byte   EOT
 .byte   Fn0
 .byte   W88
@ 051   ----------------------------------------
 .byte   W96
@ 052   ----------------------------------------
 .byte   W96
@ 053   ----------------------------------------
 .byte   W96
@ 054   ----------------------------------------
 .byte   W96
@ 055   ----------------------------------------
 .byte   W96
@ 056   ----------------------------------------
 .byte   PATT
  .word Label_2_0125E410
@ 057   ----------------------------------------
 .byte   W96
@ 058   ----------------------------------------
 .byte   W08
 .byte   EOT
 .byte   Dn0
 .byte   TIE ,Dn0 ,v127
 .byte   W88
@ 059   ----------------------------------------
 .byte   W96
@ 060   ----------------------------------------
 .byte   W08
 .byte   EOT
 .byte   W24
 .byte   GOTO
  .word Label_2_0125E3B2
 .byte   FINE

@**************** Track 4 (Midi-Chn.3) ****************@

song0105_004:
@ 000   ----------------------------------------
 .byte   KEYSH , song0105_key+0
Label_3_0125E48E:
 .byte   VOICE , 106
 .byte   VOL , 20*song0105_mvl/mxv
 .byte   W96
@ 001   ----------------------------------------
 .byte   W96
@ 002   ----------------------------------------
 .byte   W96
@ 003   ----------------------------------------
 .byte   W96
@ 004   ----------------------------------------
 .byte   W96
@ 005   ----------------------------------------
 .byte   W96
@ 006   ----------------------------------------
 .byte   W96
@ 007   ----------------------------------------
 .byte   W96
@ 008   ----------------------------------------
Label_3_0125E49A:
 .byte   W08
 .byte   N06 ,Fn2 ,v127
 .byte   W12
 .byte   N06
 .byte   W12
 .byte   N06
 .byte   W06
 .byte   N06
 .byte   W18
 .byte   N06
 .byte   W18
 .byte   N06
 .byte   W12
 .byte   N06
 .byte   W06
 .byte   N06
 .byte   W04
 .byte   PEND 
@ 009   ----------------------------------------
Label_3_0125E4AE:
 .byte   W20
 .byte   N06 ,Fn2 ,v127
 .byte   W12
 .byte   N06
 .byte   W06
 .byte   N06
 .byte   W18
 .byte   N06
 .byte   W12
 .byte   N06
 .byte   W06
 .byte   N06
 .byte   W12
 .byte   N06
 .byte   W06
 .byte   N06
 .byte   W04
 .byte   PEND 
@ 010   ----------------------------------------
 .byte   PATT
  .word Label_3_0125E49A
@ 011   ----------------------------------------
 .byte   PATT
  .word Label_3_0125E4AE
@ 012   ----------------------------------------
 .byte   PATT
  .word Label_3_0125E49A
@ 013   ----------------------------------------
 .byte   PATT
  .word Label_3_0125E4AE
@ 014   ----------------------------------------
 .byte   PATT
  .word Label_3_0125E49A
@ 015   ----------------------------------------
 .byte   PATT
  .word Label_3_0125E4AE
@ 016   ----------------------------------------
 .byte   PATT
  .word Label_3_0125E49A
@ 017   ----------------------------------------
 .byte   PATT
  .word Label_3_0125E4AE
@ 018   ----------------------------------------
 .byte   PATT
  .word Label_3_0125E49A
@ 019   ----------------------------------------
 .byte   PATT
  .word Label_3_0125E4AE
@ 020   ----------------------------------------
 .byte   PATT
  .word Label_3_0125E49A
@ 021   ----------------------------------------
 .byte   PATT
  .word Label_3_0125E4AE
@ 022   ----------------------------------------
 .byte   PATT
  .word Label_3_0125E49A
@ 023   ----------------------------------------
 .byte   PATT
  .word Label_3_0125E4AE
@ 024   ----------------------------------------
 .byte   PATT
  .word Label_3_0125E49A
@ 025   ----------------------------------------
 .byte   PATT
  .word Label_3_0125E4AE
@ 026   ----------------------------------------
 .byte   PATT
  .word Label_3_0125E49A
@ 027   ----------------------------------------
 .byte   PATT
  .word Label_3_0125E4AE
@ 028   ----------------------------------------
 .byte   PATT
  .word Label_3_0125E49A
@ 029   ----------------------------------------
 .byte   PATT
  .word Label_3_0125E4AE
@ 030   ----------------------------------------
 .byte   W96
@ 031   ----------------------------------------
 .byte   W96
@ 032   ----------------------------------------
 .byte   W96
@ 033   ----------------------------------------
 .byte   W96
@ 034   ----------------------------------------
 .byte   W96
@ 035   ----------------------------------------
 .byte   W96
@ 036   ----------------------------------------
 .byte   W96
@ 037   ----------------------------------------
 .byte   W96
@ 038   ----------------------------------------
 .byte   PATT
  .word Label_3_0125E49A
@ 039   ----------------------------------------
 .byte   PATT
  .word Label_3_0125E4AE
@ 040   ----------------------------------------
 .byte   PATT
  .word Label_3_0125E49A
@ 041   ----------------------------------------
 .byte   PATT
  .word Label_3_0125E4AE
@ 042   ----------------------------------------
 .byte   PATT
  .word Label_3_0125E49A
@ 043   ----------------------------------------
 .byte   PATT
  .word Label_3_0125E4AE
@ 044   ----------------------------------------
 .byte   PATT
  .word Label_3_0125E49A
@ 045   ----------------------------------------
 .byte   PATT
  .word Label_3_0125E4AE
@ 046   ----------------------------------------
 .byte   PATT
  .word Label_3_0125E49A
@ 047   ----------------------------------------
 .byte   PATT
  .word Label_3_0125E4AE
@ 048   ----------------------------------------
 .byte   PATT
  .word Label_3_0125E49A
@ 049   ----------------------------------------
 .byte   PATT
  .word Label_3_0125E4AE
@ 050   ----------------------------------------
 .byte   PATT
  .word Label_3_0125E49A
@ 051   ----------------------------------------
 .byte   PATT
  .word Label_3_0125E4AE
@ 052   ----------------------------------------
 .byte   PATT
  .word Label_3_0125E49A
@ 053   ----------------------------------------
 .byte   PATT
  .word Label_3_0125E4AE
@ 054   ----------------------------------------
 .byte   PATT
  .word Label_3_0125E49A
@ 055   ----------------------------------------
 .byte   PATT
  .word Label_3_0125E4AE
@ 056   ----------------------------------------
 .byte   PATT
  .word Label_3_0125E49A
@ 057   ----------------------------------------
 .byte   PATT
  .word Label_3_0125E4AE
@ 058   ----------------------------------------
 .byte   PATT
  .word Label_3_0125E49A
@ 059   ----------------------------------------
 .byte   PATT
  .word Label_3_0125E4AE
@ 060   ----------------------------------------
 .byte   W32
 .byte   GOTO
  .word Label_3_0125E48E
 .byte   FINE

@**************** Track 5 (Midi-Chn.4) ****************@

song0105_005:
@ 000   ----------------------------------------
 .byte   KEYSH , song0105_key+0
Label_4_0125E5A6:
 .byte   VOICE , 52
 .byte   W08
 .byte   VOL , 65*song0105_mvl/mxv
 .byte   W88
@ 001   ----------------------------------------
 .byte   W96
@ 002   ----------------------------------------
 .byte   W96
@ 003   ----------------------------------------
 .byte   W96
@ 004   ----------------------------------------
 .byte   W96
@ 005   ----------------------------------------
 .byte   W96
@ 006   ----------------------------------------
 .byte   W96
@ 007   ----------------------------------------
 .byte   W96
@ 008   ----------------------------------------
 .byte   W96
@ 009   ----------------------------------------
 .byte   W96
@ 010   ----------------------------------------
 .byte   W96
@ 011   ----------------------------------------
 .byte   W96
@ 012   ----------------------------------------
 .byte   W96
@ 013   ----------------------------------------
 .byte   W96
@ 014   ----------------------------------------
 .byte   W96
@ 015   ----------------------------------------
 .byte   W96
@ 016   ----------------------------------------
Label_4_0125E5BB:
 .byte   W08
 .byte   N36 ,Fn2 ,v127
 .byte   W36
 .byte   Ds2
 .byte   W36
 .byte   N24 ,Cs2
 .byte   W16
 .byte   PEND 
@ 017   ----------------------------------------
Label_4_0125E5C6:
 .byte   W08
 .byte   N36 ,Cn2 ,v127
 .byte   W36
 .byte   Bn1
 .byte   W36
 .byte   N24 ,Cn2
 .byte   W16
 .byte   PEND 
@ 018   ----------------------------------------
 .byte   PATT
  .word Label_4_0125E5BB
@ 019   ----------------------------------------
 .byte   PATT
  .word Label_4_0125E5C6
@ 020   ----------------------------------------
Label_4_0125E5DB:
 .byte   W08
 .byte   N72 ,An2 ,v127
 .byte   W72
 .byte   N24 ,Gn2
 .byte   W16
 .byte   PEND 
@ 021   ----------------------------------------
Label_4_0125E5E4:
 .byte   W08
 .byte   N72 ,As2 ,v127
 .byte   W72
 .byte   N24 ,Cn3
 .byte   W16
 .byte   PEND 
@ 022   ----------------------------------------
Label_4_0125E5ED:
 .byte   W08
 .byte   TIE ,An2 ,v127
 .byte   W88
 .byte   PEND 
@ 023   ----------------------------------------
 .byte   W96
@ 024   ----------------------------------------
 .byte   W08
 .byte   EOT
 .byte   N72
 .byte   W72
 .byte   N24 ,Gn2
 .byte   W16
@ 025   ----------------------------------------
 .byte   PATT
  .word Label_4_0125E5E4
@ 026   ----------------------------------------
 .byte   W96
@ 027   ----------------------------------------
 .byte   W96
@ 028   ----------------------------------------
 .byte   W96
@ 029   ----------------------------------------
 .byte   W96
@ 030   ----------------------------------------
 .byte   W08
 .byte   VOL , 65*song0105_mvl/mxv
 .byte   W88
@ 031   ----------------------------------------
 .byte   W96
@ 032   ----------------------------------------
 .byte   W96
@ 033   ----------------------------------------
 .byte   W96
@ 034   ----------------------------------------
 .byte   W96
@ 035   ----------------------------------------
 .byte   W96
@ 036   ----------------------------------------
 .byte   W96
@ 037   ----------------------------------------
 .byte   W96
@ 038   ----------------------------------------
 .byte   W96
@ 039   ----------------------------------------
 .byte   W96
@ 040   ----------------------------------------
 .byte   W96
@ 041   ----------------------------------------
 .byte   W96
@ 042   ----------------------------------------
 .byte   W96
@ 043   ----------------------------------------
 .byte   W96
@ 044   ----------------------------------------
 .byte   W96
@ 045   ----------------------------------------
 .byte   W96
@ 046   ----------------------------------------
 .byte   PATT
  .word Label_4_0125E5BB
@ 047   ----------------------------------------
 .byte   PATT
  .word Label_4_0125E5C6
@ 048   ----------------------------------------
 .byte   PATT
  .word Label_4_0125E5BB
@ 049   ----------------------------------------
 .byte   PATT
  .word Label_4_0125E5C6
@ 050   ----------------------------------------
 .byte   PATT
  .word Label_4_0125E5DB
@ 051   ----------------------------------------
 .byte   PATT
  .word Label_4_0125E5E4
@ 052   ----------------------------------------
 .byte   PATT
  .word Label_4_0125E5ED
@ 053   ----------------------------------------
 .byte   W96
@ 054   ----------------------------------------
 .byte   W08
 .byte   EOT
 .byte   An2
 .byte   N72 ,An2 ,v127
 .byte   W72
 .byte   N24 ,Gn2
 .byte   W16
@ 055   ----------------------------------------
 .byte   PATT
  .word Label_4_0125E5E4
@ 056   ----------------------------------------
 .byte   W96
@ 057   ----------------------------------------
 .byte   W96
@ 058   ----------------------------------------
 .byte   W96
@ 059   ----------------------------------------
 .byte   W96
@ 060   ----------------------------------------
 .byte   W32
 .byte   GOTO
  .word Label_4_0125E5A6
 .byte   FINE

@**************** Track 6 (Midi-Chn.5) ****************@

song0105_006:
@ 000   ----------------------------------------
 .byte   KEYSH , song0105_key+0
Label_5_0125E65A:
 .byte   VOICE , 46
 .byte   W08
 .byte   PAN , c_v+63
 .byte   VOL , 29*song0105_mvl/mxv
 .byte   W88
@ 001   ----------------------------------------
 .byte   W96
@ 002   ----------------------------------------
 .byte   W96
@ 003   ----------------------------------------
 .byte   W96
@ 004   ----------------------------------------
 .byte   W96
@ 005   ----------------------------------------
 .byte   W96
@ 006   ----------------------------------------
 .byte   W96
@ 007   ----------------------------------------
 .byte   W96
@ 008   ----------------------------------------
 .byte   W96
@ 009   ----------------------------------------
 .byte   W96
@ 010   ----------------------------------------
 .byte   W96
@ 011   ----------------------------------------
 .byte   W96
@ 012   ----------------------------------------
 .byte   W96
@ 013   ----------------------------------------
 .byte   W96
@ 014   ----------------------------------------
 .byte   W96
@ 015   ----------------------------------------
 .byte   W96
@ 016   ----------------------------------------
 .byte   W96
@ 017   ----------------------------------------
 .byte   W96
@ 018   ----------------------------------------
 .byte   W96
@ 019   ----------------------------------------
 .byte   W96
@ 020   ----------------------------------------
 .byte   W96
@ 021   ----------------------------------------
 .byte   W96
@ 022   ----------------------------------------
 .byte   W96
@ 023   ----------------------------------------
Label_5_0125E678:
 .byte   W08
 .byte   N06 ,An3 ,v127
 .byte   W12
 .byte   Gn3
 .byte   W12
 .byte   En3
 .byte   W12
 .byte   Fn3
 .byte   W12
 .byte   En3
 .byte   W12
 .byte   N24 ,Dn3
 .byte   W28
 .byte   PEND 
@ 024   ----------------------------------------
 .byte   W96
@ 025   ----------------------------------------
 .byte   W96
@ 026   ----------------------------------------
 .byte   W96
@ 027   ----------------------------------------
 .byte   W96
@ 028   ----------------------------------------
 .byte   W96
@ 029   ----------------------------------------
 .byte   W96
@ 030   ----------------------------------------
 .byte   W08
 .byte   PAN , c_v+63
 .byte   VOL , 29*song0105_mvl/mxv
 .byte   W88
@ 031   ----------------------------------------
 .byte   W96
@ 032   ----------------------------------------
 .byte   W96
@ 033   ----------------------------------------
 .byte   W96
@ 034   ----------------------------------------
 .byte   W96
@ 035   ----------------------------------------
 .byte   W96
@ 036   ----------------------------------------
 .byte   W96
@ 037   ----------------------------------------
 .byte   W96
@ 038   ----------------------------------------
 .byte   W96
@ 039   ----------------------------------------
 .byte   W96
@ 040   ----------------------------------------
 .byte   W96
@ 041   ----------------------------------------
 .byte   W96
@ 042   ----------------------------------------
 .byte   W96
@ 043   ----------------------------------------
 .byte   W96
@ 044   ----------------------------------------
 .byte   W96
@ 045   ----------------------------------------
 .byte   W96
@ 046   ----------------------------------------
 .byte   W96
@ 047   ----------------------------------------
 .byte   W96
@ 048   ----------------------------------------
 .byte   W96
@ 049   ----------------------------------------
 .byte   W96
@ 050   ----------------------------------------
 .byte   W96
@ 051   ----------------------------------------
 .byte   W96
@ 052   ----------------------------------------
 .byte   W96
@ 053   ----------------------------------------
 .byte   PATT
  .word Label_5_0125E678
@ 054   ----------------------------------------
 .byte   W96
@ 055   ----------------------------------------
 .byte   W96
@ 056   ----------------------------------------
 .byte   W96
@ 057   ----------------------------------------
 .byte   W96
@ 058   ----------------------------------------
 .byte   W96
@ 059   ----------------------------------------
 .byte   W96
@ 060   ----------------------------------------
 .byte   W32
 .byte   GOTO
  .word Label_5_0125E65A
 .byte   FINE

@**************** Track 7 (Midi-Chn.6) ****************@

song0105_007:
@ 000   ----------------------------------------
 .byte   KEYSH , song0105_key+0
Label_6_0125E6C2:
 .byte   VOICE , 106
 .byte   W08
 .byte   VOL , 65*song0105_mvl/mxv
 .byte   PAN , c_v-35
 .byte   W88
@ 001   ----------------------------------------
 .byte   W96
@ 002   ----------------------------------------
 .byte   W96
@ 003   ----------------------------------------
 .byte   W96
@ 004   ----------------------------------------
 .byte   W96
@ 005   ----------------------------------------
 .byte   W96
@ 006   ----------------------------------------
 .byte   W96
@ 007   ----------------------------------------
 .byte   W96
@ 008   ----------------------------------------
 .byte   W96
@ 009   ----------------------------------------
 .byte   W96
@ 010   ----------------------------------------
 .byte   W96
@ 011   ----------------------------------------
 .byte   W96
@ 012   ----------------------------------------
 .byte   W96
@ 013   ----------------------------------------
 .byte   W96
@ 014   ----------------------------------------
 .byte   W96
@ 015   ----------------------------------------
 .byte   W96
@ 016   ----------------------------------------
 .byte   W96
@ 017   ----------------------------------------
 .byte   W96
@ 018   ----------------------------------------
 .byte   W96
@ 019   ----------------------------------------
 .byte   W96
@ 020   ----------------------------------------
 .byte   W96
@ 021   ----------------------------------------
 .byte   W96
@ 022   ----------------------------------------
 .byte   W96
@ 023   ----------------------------------------
 .byte   W96
@ 024   ----------------------------------------
 .byte   W96
@ 025   ----------------------------------------
 .byte   W96
@ 026   ----------------------------------------
Label_6_0125E6E3:
 .byte   W08
 .byte   VOL , 65*song0105_mvl/mxv
 .byte   N12 ,Gs2 ,v127
 .byte   N12 ,Gs3
 .byte   W18
 .byte   An2
 .byte   N12 ,An3
 .byte   W18
 .byte   Bn2
 .byte   N12 ,Bn3
 .byte   W18
 .byte   N18 ,Cn3
 .byte   N18 ,Cn4
 .byte   W18
 .byte   N12 ,Bn2
 .byte   N12 ,Bn3
 .byte   W16
 .byte   PEND 
@ 027   ----------------------------------------
Label_6_0125E6FF:
 .byte   W08
 .byte   N12 ,Gs2 ,v127
 .byte   N12 ,Gs3
 .byte   W18
 .byte   An2
 .byte   N12 ,An3
 .byte   W18
 .byte   Bn2
 .byte   N24 ,Bn3
 .byte   W52
 .byte   PEND 
@ 028   ----------------------------------------
 .byte   PATT
  .word Label_6_0125E6E3
@ 029   ----------------------------------------
Label_6_0125E714:
 .byte   W08
 .byte   N12 ,Gs2 ,v127
 .byte   N12 ,Gs3
 .byte   W18
 .byte   An2
 .byte   N12 ,An3
 .byte   W18
 .byte   Bn2
 .byte   N12 ,Bn3
 .byte   W18
 .byte   Cn3
 .byte   N12 ,Cn4
 .byte   W18
 .byte   N24 ,Dn3
 .byte   N24 ,Dn4
 .byte   W16
 .byte   PEND 
@ 030   ----------------------------------------
 .byte   W08
 .byte   VOL , 65*song0105_mvl/mxv
 .byte   PAN , c_v-35
 .byte   W88
@ 031   ----------------------------------------
 .byte   W96
@ 032   ----------------------------------------
 .byte   W96
@ 033   ----------------------------------------
 .byte   W96
@ 034   ----------------------------------------
 .byte   W96
@ 035   ----------------------------------------
 .byte   W96
@ 036   ----------------------------------------
 .byte   W96
@ 037   ----------------------------------------
 .byte   W96
@ 038   ----------------------------------------
 .byte   W96
@ 039   ----------------------------------------
 .byte   W96
@ 040   ----------------------------------------
 .byte   W96
@ 041   ----------------------------------------
 .byte   W96
@ 042   ----------------------------------------
 .byte   W96
@ 043   ----------------------------------------
 .byte   W96
@ 044   ----------------------------------------
 .byte   W96
@ 045   ----------------------------------------
 .byte   W96
@ 046   ----------------------------------------
 .byte   W96
@ 047   ----------------------------------------
 .byte   W96
@ 048   ----------------------------------------
 .byte   W96
@ 049   ----------------------------------------
 .byte   W96
@ 050   ----------------------------------------
 .byte   W96
@ 051   ----------------------------------------
 .byte   W96
@ 052   ----------------------------------------
 .byte   W96
@ 053   ----------------------------------------
 .byte   W96
@ 054   ----------------------------------------
 .byte   W96
@ 055   ----------------------------------------
 .byte   W96
@ 056   ----------------------------------------
 .byte   PATT
  .word Label_6_0125E6E3
@ 057   ----------------------------------------
 .byte   PATT
  .word Label_6_0125E6FF
@ 058   ----------------------------------------
 .byte   PATT
  .word Label_6_0125E6E3
@ 059   ----------------------------------------
 .byte   PATT
  .word Label_6_0125E714
@ 060   ----------------------------------------
 .byte   W32
 .byte   GOTO
  .word Label_6_0125E6C2
 .byte   FINE

@**************** Track 8 (Midi-Chn.7) ****************@

song0105_008:
@ 000   ----------------------------------------
 .byte   KEYSH , song0105_key+0
Label_7_0125E76A:
 .byte   VOICE , 104
 .byte   W08
 .byte   PAN , c_v+63
 .byte   VOL , 37*song0105_mvl/mxv
 .byte   W88
@ 001   ----------------------------------------
 .byte   W96
@ 002   ----------------------------------------
 .byte   W96
@ 003   ----------------------------------------
 .byte   W96
@ 004   ----------------------------------------
 .byte   W96
@ 005   ----------------------------------------
 .byte   W96
@ 006   ----------------------------------------
 .byte   W96
@ 007   ----------------------------------------
 .byte   W96
@ 008   ----------------------------------------
 .byte   W96
@ 009   ----------------------------------------
 .byte   W96
@ 010   ----------------------------------------
 .byte   W96
@ 011   ----------------------------------------
 .byte   W96
@ 012   ----------------------------------------
 .byte   W96
@ 013   ----------------------------------------
 .byte   W96
@ 014   ----------------------------------------
 .byte   W96
@ 015   ----------------------------------------
 .byte   W96
@ 016   ----------------------------------------
 .byte   W96
@ 017   ----------------------------------------
 .byte   W96
@ 018   ----------------------------------------
 .byte   W96
@ 019   ----------------------------------------
 .byte   W96
@ 020   ----------------------------------------
 .byte   W96
@ 021   ----------------------------------------
 .byte   W96
@ 022   ----------------------------------------
 .byte   W96
@ 023   ----------------------------------------
Label_7_0125E788:
 .byte   W08
 .byte   N06 ,An4 ,v127
 .byte   W12
 .byte   Gn4
 .byte   W12
 .byte   En4
 .byte   W12
 .byte   Fn4
 .byte   W12
 .byte   En4
 .byte   W12
 .byte   N24 ,Dn4
 .byte   W28
 .byte   PEND 
@ 024   ----------------------------------------
 .byte   W96
@ 025   ----------------------------------------
 .byte   W96
@ 026   ----------------------------------------
 .byte   W96
@ 027   ----------------------------------------
 .byte   W96
@ 028   ----------------------------------------
 .byte   W96
@ 029   ----------------------------------------
 .byte   W96
@ 030   ----------------------------------------
 .byte   W08
 .byte   PAN , c_v+63
 .byte   VOL , 37*song0105_mvl/mxv
 .byte   W88
@ 031   ----------------------------------------
 .byte   W96
@ 032   ----------------------------------------
 .byte   W96
@ 033   ----------------------------------------
 .byte   W96
@ 034   ----------------------------------------
 .byte   W96
@ 035   ----------------------------------------
 .byte   W96
@ 036   ----------------------------------------
 .byte   W96
@ 037   ----------------------------------------
 .byte   W96
@ 038   ----------------------------------------
 .byte   W96
@ 039   ----------------------------------------
 .byte   W96
@ 040   ----------------------------------------
 .byte   W96
@ 041   ----------------------------------------
 .byte   W96
@ 042   ----------------------------------------
 .byte   W96
@ 043   ----------------------------------------
 .byte   W96
@ 044   ----------------------------------------
 .byte   W96
@ 045   ----------------------------------------
 .byte   W96
@ 046   ----------------------------------------
 .byte   W96
@ 047   ----------------------------------------
 .byte   W96
@ 048   ----------------------------------------
 .byte   W96
@ 049   ----------------------------------------
 .byte   W96
@ 050   ----------------------------------------
 .byte   W96
@ 051   ----------------------------------------
 .byte   W96
@ 052   ----------------------------------------
 .byte   W96
@ 053   ----------------------------------------
 .byte   PATT
  .word Label_7_0125E788
@ 054   ----------------------------------------
 .byte   W96
@ 055   ----------------------------------------
 .byte   W96
@ 056   ----------------------------------------
 .byte   W96
@ 057   ----------------------------------------
 .byte   W96
@ 058   ----------------------------------------
 .byte   W96
@ 059   ----------------------------------------
 .byte   W96
@ 060   ----------------------------------------
 .byte   W32
 .byte   GOTO
  .word Label_7_0125E76A
 .byte   FINE

@**************** Track 9 (Midi-Chn.8) ****************@

song0105_009:
@ 000   ----------------------------------------
 .byte   KEYSH , song0105_key+0
Label_8_0125E7D2:
 .byte   VOICE , 100
 .byte   W08
 .byte   VOL , 65*song0105_mvl/mxv
 .byte   N12 ,Bn0 ,v127
 .byte   W24
 .byte   N12
 .byte   N12 ,Ds1 ,v096
 .byte   N06 ,As2 ,v068
 .byte   W24
 .byte   N12 ,Bn0 ,v127
 .byte   W24
 .byte   N12
 .byte   N12 ,Ds1 ,v096
 .byte   N06 ,As2 ,v068
 .byte   W16
@ 001   ----------------------------------------
Label_8_0125E7EF:
 .byte   W08
 .byte   VOL , 65*song0105_mvl/mxv
 .byte   N12 ,Bn0 ,v127
 .byte   W24
 .byte   N12
 .byte   N12 ,Ds1 ,v096
 .byte   N06 ,As2 ,v068
 .byte   W24
 .byte   N12 ,Bn0 ,v127
 .byte   W24
 .byte   N06
 .byte   N12 ,Ds1 ,v096
 .byte   N06 ,As2 ,v068
 .byte   W16
 .byte   PEND 
@ 002   ----------------------------------------
Label_8_0125E80B:
 .byte   W02
 .byte   N06 ,Bn0 ,v127
 .byte   W06
 .byte   VOL , 65*song0105_mvl/mxv
 .byte   N12
 .byte   W24
 .byte   N12
 .byte   N12 ,Ds1 ,v096
 .byte   N06 ,As2 ,v068
 .byte   W24
 .byte   N12 ,Bn0 ,v127
 .byte   W24
 .byte   N06
 .byte   N12 ,Ds1 ,v096
 .byte   N06 ,As2 ,v068
 .byte   W16
 .byte   PEND 
@ 003   ----------------------------------------
Label_8_0125E829:
 .byte   W02
 .byte   N06 ,Bn0 ,v127
 .byte   W06
 .byte   VOL , 65*song0105_mvl/mxv
 .byte   N12
 .byte   W12
 .byte   N06 ,Dn1
 .byte   W12
 .byte   N12 ,Bn0
 .byte   N06 ,Dn1
 .byte   N12 ,Ds1 ,v096
 .byte   N06 ,As2 ,v068
 .byte   W18
 .byte   Dn1 ,v127
 .byte   W06
 .byte   N12 ,Bn0
 .byte   W06
 .byte   N06 ,Dn1
 .byte   W12
 .byte   N06
 .byte   W06
 .byte   N12 ,Bn0
 .byte   N06 ,Dn1
 .byte   N12 ,Ds1 ,v096
 .byte   N06 ,As2 ,v068
 .byte   W06
 .byte   Dn1 ,v127
 .byte   W06
 .byte   N06
 .byte   W04
 .byte   PEND 
@ 004   ----------------------------------------
Label_8_0125E85C:
 .byte   W08
 .byte   VOL , 65*song0105_mvl/mxv
 .byte   N12 ,Bn0 ,v127
 .byte   N06 ,Ds2
 .byte   W12
 .byte   N06
 .byte   W06
 .byte   N06
 .byte   W06
 .byte   N12 ,Bn0
 .byte   N12 ,Ds1 ,v096
 .byte   N06 ,Ds2 ,v127
 .byte   N06 ,As2 ,v068
 .byte   W12
 .byte   Ds2 ,v127
 .byte   W12
 .byte   N12 ,Bn0
 .byte   N06 ,Ds2
 .byte   W12
 .byte   N06
 .byte   W12
 .byte   N12 ,Bn0
 .byte   N12 ,Ds1 ,v096
 .byte   N06 ,As2 ,v068
 .byte   W12
 .byte   Ds2 ,v127
 .byte   W04
 .byte   PEND 
@ 005   ----------------------------------------
Label_8_0125E88C:
 .byte   W08
 .byte   VOL , 65*song0105_mvl/mxv
 .byte   N12 ,Bn0 ,v127
 .byte   N06 ,Ds2
 .byte   W12
 .byte   N06
 .byte   W12
 .byte   N12 ,Bn0
 .byte   N12 ,Ds1 ,v096
 .byte   N06 ,As2 ,v068
 .byte   W12
 .byte   Ds2 ,v127
 .byte   W12
 .byte   N12 ,Bn0
 .byte   N06 ,Ds2
 .byte   W12
 .byte   N06
 .byte   W12
 .byte   Bn0
 .byte   N12 ,Ds1 ,v096
 .byte   N06 ,As2 ,v068
 .byte   W12
 .byte   Ds2 ,v127
 .byte   W04
 .byte   PEND 
@ 006   ----------------------------------------
Label_8_0125E8B6:
 .byte   W02
 .byte   N06 ,Bn0 ,v127
 .byte   N06 ,Ds2
 .byte   W06
 .byte   VOL , 65*song0105_mvl/mxv
 .byte   N12 ,Bn0
 .byte   N06 ,Ds2
 .byte   W12
 .byte   N06
 .byte   W06
 .byte   N06
 .byte   W06
 .byte   N12 ,Bn0
 .byte   N12 ,Ds1 ,v096
 .byte   N06 ,Ds2 ,v127
 .byte   N06 ,As2 ,v068
 .byte   W12
 .byte   Ds2 ,v127
 .byte   W12
 .byte   N12 ,Bn0
 .byte   N06 ,Ds2
 .byte   W12
 .byte   N06
 .byte   W12
 .byte   Bn0
 .byte   N12 ,Ds1 ,v096
 .byte   N06 ,As2 ,v068
 .byte   W12
 .byte   Ds2 ,v127
 .byte   W04
 .byte   PEND 
@ 007   ----------------------------------------
Label_8_0125E8EA:
 .byte   W02
 .byte   N06 ,Bn0 ,v127
 .byte   W06
 .byte   VOL , 65*song0105_mvl/mxv
 .byte   N12
 .byte   N06 ,Ds2
 .byte   W12
 .byte   Dn1
 .byte   N06 ,Ds2
 .byte   W12
 .byte   N12 ,Bn0
 .byte   N06 ,Dn1
 .byte   N12 ,Ds1 ,v096
 .byte   N06 ,As2 ,v068
 .byte   W12
 .byte   Ds2 ,v127
 .byte   W06
 .byte   Dn1
 .byte   W06
 .byte   N12 ,Bn0
 .byte   N06 ,Ds2
 .byte   W06
 .byte   Dn1
 .byte   W06
 .byte   Ds2
 .byte   W06
 .byte   Dn1
 .byte   W06
 .byte   N12 ,Bn0
 .byte   N06 ,Dn1
 .byte   N12 ,Ds1 ,v096
 .byte   N06 ,As2 ,v068
 .byte   W12
 .byte   Dn1 ,v127
 .byte   N06 ,Ds2
 .byte   W04
 .byte   PEND 
@ 008   ----------------------------------------
Label_8_0125E925:
 .byte   W02
 .byte   N06 ,Dn1 ,v127
 .byte   N06 ,Ds2
 .byte   W06
 .byte   VOL , 65*song0105_mvl/mxv
 .byte   N12 ,Bn0
 .byte   N06 ,Ds2
 .byte   W12
 .byte   N06
 .byte   W06
 .byte   N06
 .byte   W06
 .byte   N12 ,Bn0
 .byte   N12 ,Ds1 ,v096
 .byte   N06 ,Ds2 ,v127
 .byte   W12
 .byte   N06
 .byte   W12
 .byte   N12 ,Bn0
 .byte   N06 ,Ds2
 .byte   W12
 .byte   N06
 .byte   W12
 .byte   N12 ,Bn0
 .byte   N12 ,Ds1 ,v096
 .byte   W12
 .byte   N06 ,Ds2 ,v127
 .byte   W04
 .byte   PEND 
@ 009   ----------------------------------------
Label_8_0125E954:
 .byte   W08
 .byte   VOL , 65*song0105_mvl/mxv
 .byte   N12 ,Bn0 ,v127
 .byte   N06 ,Ds2
 .byte   W12
 .byte   N06
 .byte   W12
 .byte   N12 ,Bn0
 .byte   N12 ,Ds1 ,v096
 .byte   W12
 .byte   N06 ,Ds2 ,v127
 .byte   W12
 .byte   N12 ,Bn0
 .byte   N06 ,Ds2
 .byte   W12
 .byte   N06
 .byte   W12
 .byte   N12 ,Bn0
 .byte   N12 ,Ds1 ,v096
 .byte   W12
 .byte   N06 ,Dn1 ,v072
 .byte   N06 ,Ds2 ,v127
 .byte   W04
 .byte   PEND 
@ 010   ----------------------------------------
Label_8_0125E97E:
 .byte   W02
 .byte   N06 ,Dn1 ,v072
 .byte   N06 ,Ds2 ,v127
 .byte   W06
 .byte   VOL , 65*song0105_mvl/mxv
 .byte   N12 ,Bn0
 .byte   N06 ,Ds2
 .byte   W12
 .byte   N06
 .byte   W06
 .byte   N06
 .byte   W06
 .byte   N12 ,Bn0
 .byte   N12 ,Ds1 ,v096
 .byte   N06 ,Ds2 ,v127
 .byte   W12
 .byte   N06
 .byte   W12
 .byte   N12 ,Bn0
 .byte   N06 ,Ds2
 .byte   W12
 .byte   N06
 .byte   W12
 .byte   N12 ,Bn0
 .byte   N12 ,Ds1 ,v096
 .byte   W12
 .byte   N06 ,Ds2 ,v127
 .byte   W04
 .byte   PEND 
@ 011   ----------------------------------------
 .byte   PATT
  .word Label_8_0125E954
@ 012   ----------------------------------------
Label_8_0125E9B3:
 .byte   W02
 .byte   N06 ,Dn1 ,v072
 .byte   N06 ,Ds2 ,v127
 .byte   W06
 .byte   VOL , 65*song0105_mvl/mxv
 .byte   N12 ,Bn0
 .byte   N06 ,Ds2
 .byte   W12
 .byte   N06
 .byte   W06
 .byte   N06
 .byte   W06
 .byte   N12 ,Bn0
 .byte   N06 ,Dn1
 .byte   N12 ,Ds1 ,v096
 .byte   N06 ,Ds2 ,v127
 .byte   N06 ,En2 ,v072
 .byte   W12
 .byte   Ds2 ,v127
 .byte   W06
 .byte   Dn1
 .byte   W06
 .byte   N12 ,Bn0
 .byte   N06 ,Ds2
 .byte   W06
 .byte   Dn1
 .byte   N06 ,En2 ,v072
 .byte   W06
 .byte   Ds2 ,v127
 .byte   W12
 .byte   N12 ,Bn0
 .byte   N06 ,Dn1
 .byte   N12 ,Ds1 ,v096
 .byte   N06 ,En2 ,v072
 .byte   W12
 .byte   Ds2 ,v127
 .byte   W04
 .byte   PEND 
@ 013   ----------------------------------------
Label_8_0125E9F5:
 .byte   W08
 .byte   VOL , 65*song0105_mvl/mxv
 .byte   N12 ,Bn0 ,v127
 .byte   N06 ,Ds2
 .byte   W12
 .byte   N06
 .byte   W12
 .byte   N12 ,Bn0
 .byte   N06 ,Dn1
 .byte   N12 ,Ds1 ,v096
 .byte   N06 ,En2 ,v072
 .byte   W12
 .byte   Ds2 ,v127
 .byte   W06
 .byte   Dn1
 .byte   W06
 .byte   N12 ,Bn0
 .byte   N06 ,Ds2
 .byte   W06
 .byte   Dn1
 .byte   N06 ,En2 ,v072
 .byte   W06
 .byte   Ds2 ,v127
 .byte   W12
 .byte   N12 ,Bn0
 .byte   N06 ,Dn1
 .byte   N12 ,Ds1 ,v096
 .byte   N06 ,En2 ,v072
 .byte   W12
 .byte   Dn1
 .byte   N06 ,Ds2 ,v127
 .byte   W04
 .byte   PEND 
@ 014   ----------------------------------------
 .byte   PATT
  .word Label_8_0125E9B3
@ 015   ----------------------------------------
 .byte   PATT
  .word Label_8_0125E9F5
@ 016   ----------------------------------------
 .byte   PATT
  .word Label_8_0125E9B3
@ 017   ----------------------------------------
 .byte   PATT
  .word Label_8_0125E9F5
@ 018   ----------------------------------------
 .byte   PATT
  .word Label_8_0125E9B3
@ 019   ----------------------------------------
 .byte   PATT
  .word Label_8_0125E9F5
@ 020   ----------------------------------------
Label_8_0125EA4C:
 .byte   W02
 .byte   N06 ,Dn1 ,v072
 .byte   N06 ,Ds2 ,v127
 .byte   W06
 .byte   VOL , 65*song0105_mvl/mxv
 .byte   N12 ,Bn0
 .byte   W12
 .byte   N06 ,Gs1 ,v068
 .byte   W12
 .byte   N12 ,Bn0 ,v127
 .byte   N06 ,Dn1
 .byte   N12 ,Ds1 ,v096
 .byte   N06 ,Fs2 ,v127
 .byte   W12
 .byte   Gs1 ,v068
 .byte   W06
 .byte   Dn1 ,v127
 .byte   W06
 .byte   N12 ,Bn0
 .byte   W06
 .byte   N06 ,Dn1
 .byte   W06
 .byte   Gs1 ,v068
 .byte   W12
 .byte   N12 ,Bn0 ,v127
 .byte   N12 ,Ds1 ,v096
 .byte   N06 ,Fs2 ,v127
 .byte   W12
 .byte   Gs1 ,v068
 .byte   W04
 .byte   PEND 
@ 021   ----------------------------------------
Label_8_0125EA86:
 .byte   W08
 .byte   VOL , 65*song0105_mvl/mxv
 .byte   N12 ,Bn0 ,v127
 .byte   W12
 .byte   N06 ,Gs1 ,v068
 .byte   W12
 .byte   N12 ,Bn0 ,v127
 .byte   N06 ,Dn1
 .byte   N12 ,Ds1 ,v096
 .byte   N06 ,Fs2 ,v127
 .byte   W12
 .byte   Gs1 ,v068
 .byte   W06
 .byte   Dn1 ,v127
 .byte   W06
 .byte   N12 ,Bn0
 .byte   W06
 .byte   N06 ,Dn1
 .byte   W06
 .byte   Gs1 ,v068
 .byte   W12
 .byte   N12 ,Bn0 ,v127
 .byte   N12 ,Ds1 ,v096
 .byte   N06 ,Fs2 ,v127
 .byte   W12
 .byte   Gs1 ,v068
 .byte   N06 ,Fs2 ,v127
 .byte   W04
 .byte   PEND 
@ 022   ----------------------------------------
Label_8_0125EABD:
 .byte   W02
 .byte   N06 ,Fs2 ,v127
 .byte   W06
 .byte   VOL , 65*song0105_mvl/mxv
 .byte   N12 ,Bn0
 .byte   W12
 .byte   N06 ,Gs1 ,v068
 .byte   W12
 .byte   N12 ,Bn0 ,v127
 .byte   N06 ,Dn1
 .byte   N12 ,Ds1 ,v096
 .byte   N06 ,Fs2 ,v127
 .byte   W12
 .byte   Gs1 ,v068
 .byte   W06
 .byte   Dn1 ,v127
 .byte   W06
 .byte   N12 ,Bn0
 .byte   W06
 .byte   N06 ,Dn1
 .byte   W06
 .byte   Gs1 ,v068
 .byte   W12
 .byte   N12 ,Bn0 ,v127
 .byte   N12 ,Ds1 ,v096
 .byte   N06 ,Fs2 ,v127
 .byte   W12
 .byte   Gs1 ,v068
 .byte   W04
 .byte   PEND 
@ 023   ----------------------------------------
 .byte   PATT
  .word Label_8_0125EA86
@ 024   ----------------------------------------
 .byte   PATT
  .word Label_8_0125EABD
@ 025   ----------------------------------------
 .byte   PATT
  .word Label_8_0125EA86
@ 026   ----------------------------------------
 .byte   PATT
  .word Label_8_0125EABD
@ 027   ----------------------------------------
 .byte   PATT
  .word Label_8_0125EA86
@ 028   ----------------------------------------
 .byte   PATT
  .word Label_8_0125EABD
@ 029   ----------------------------------------
 .byte   W08
 .byte   VOL , 65*song0105_mvl/mxv
 .byte   N12 ,Bn0 ,v127
 .byte   W12
 .byte   N06 ,Gs1 ,v084
 .byte   W12
 .byte   N12 ,Bn0 ,v127
 .byte   N12 ,Ds1 ,v120
 .byte   N06 ,Fs2 ,v127
 .byte   W12
 .byte   Gs1 ,v084
 .byte   W12
 .byte   N12 ,Bn0 ,v127
 .byte   W06
 .byte   Dn1
 .byte   N06 ,En2
 .byte   W06
 .byte   Gs1 ,v084
 .byte   W12
 .byte   N12 ,Bn0 ,v127
 .byte   N12 ,Dn1
 .byte   N06 ,En2
 .byte   N06 ,Fs2
 .byte   W12
 .byte   Dn1
 .byte   N06 ,Gs1 ,v084
 .byte   N12 ,Ds2 ,v127
 .byte   N12 ,An2 ,v048
 .byte   N12 ,Bn2 ,v127
 .byte   W04
@ 030   ----------------------------------------
 .byte   W08
 .byte   VOL , 65*song0105_mvl/mxv
 .byte   N12 ,Bn0
 .byte   W24
 .byte   N12
 .byte   N12 ,Ds1 ,v096
 .byte   N06 ,As2 ,v068
 .byte   W24
 .byte   N12 ,Bn0 ,v127
 .byte   W24
 .byte   N12
 .byte   N12 ,Ds1 ,v096
 .byte   N06 ,As2 ,v068
 .byte   W16
@ 031   ----------------------------------------
 .byte   PATT
  .word Label_8_0125E7EF
@ 032   ----------------------------------------
 .byte   PATT
  .word Label_8_0125E80B
@ 033   ----------------------------------------
 .byte   PATT
  .word Label_8_0125E829
@ 034   ----------------------------------------
 .byte   PATT
  .word Label_8_0125E85C
@ 035   ----------------------------------------
 .byte   PATT
  .word Label_8_0125E88C
@ 036   ----------------------------------------
 .byte   PATT
  .word Label_8_0125E8B6
@ 037   ----------------------------------------
 .byte   PATT
  .word Label_8_0125E8EA
@ 038   ----------------------------------------
 .byte   PATT
  .word Label_8_0125E925
@ 039   ----------------------------------------
 .byte   PATT
  .word Label_8_0125E954
@ 040   ----------------------------------------
 .byte   PATT
  .word Label_8_0125E97E
@ 041   ----------------------------------------
 .byte   PATT
  .word Label_8_0125E954
@ 042   ----------------------------------------
 .byte   PATT
  .word Label_8_0125E9B3
@ 043   ----------------------------------------
 .byte   PATT
  .word Label_8_0125E9F5
@ 044   ----------------------------------------
 .byte   PATT
  .word Label_8_0125E9B3
@ 045   ----------------------------------------
 .byte   PATT
  .word Label_8_0125E9F5
@ 046   ----------------------------------------
 .byte   PATT
  .word Label_8_0125E9B3
@ 047   ----------------------------------------
 .byte   PATT
  .word Label_8_0125E9F5
@ 048   ----------------------------------------
 .byte   PATT
  .word Label_8_0125E9B3
@ 049   ----------------------------------------
 .byte   PATT
  .word Label_8_0125E9F5
@ 050   ----------------------------------------
 .byte   PATT
  .word Label_8_0125EA4C
@ 051   ----------------------------------------
 .byte   PATT
  .word Label_8_0125EA86
@ 052   ----------------------------------------
 .byte   PATT
  .word Label_8_0125EABD
@ 053   ----------------------------------------
 .byte   PATT
  .word Label_8_0125EA86
@ 054   ----------------------------------------
 .byte   PATT
  .word Label_8_0125EABD
@ 055   ----------------------------------------
 .byte   PATT
  .word Label_8_0125EA86
@ 056   ----------------------------------------
 .byte   PATT
  .word Label_8_0125EABD
@ 057   ----------------------------------------
 .byte   PATT
  .word Label_8_0125EA86
@ 058   ----------------------------------------
 .byte   PATT
  .word Label_8_0125EABD
@ 059   ----------------------------------------
 .byte   W08
 .byte   VOL , 65*song0105_mvl/mxv
 .byte   N12 ,Bn0 ,v127
 .byte   W12
 .byte   N06 ,Gs1 ,v084
 .byte   W12
 .byte   N12 ,Bn0 ,v127
 .byte   N12 ,Ds1 ,v120
 .byte   N06 ,Fs2 ,v127
 .byte   W12
 .byte   Gs1 ,v084
 .byte   W12
 .byte   N12 ,Bn0 ,v127
 .byte   W06
 .byte   Dn1
 .byte   N06 ,En2
 .byte   W06
 .byte   Gs1 ,v084
 .byte   W12
 .byte   N12 ,Bn0 ,v127
 .byte   N12 ,Dn1
 .byte   N06 ,En2
 .byte   N06 ,Fs2
 .byte   W12
 .byte   Gs1 ,v084
 .byte   W04
@ 060   ----------------------------------------
 .byte   W08
 .byte   VOL , 65*song0105_mvl/mxv
 .byte   N24 ,Gs1 ,v004
 .byte   W24
 .byte   GOTO
  .word Label_8_0125E7D2
 .byte   FINE

@**************** Track 10 (Midi-Chn.9) ****************@

song0105_010:
@ 000   ----------------------------------------
 .byte   KEYSH , song0105_key+0
Label_9_0125EC32:
 .byte   VOICE , 93
 .byte   W08
 .byte   PAN , c_v-13
 .byte   VOL , 41*song0105_mvl/mxv
 .byte   W88
@ 001   ----------------------------------------
 .byte   W96
@ 002   ----------------------------------------
 .byte   W96
@ 003   ----------------------------------------
 .byte   W96
@ 004   ----------------------------------------
 .byte   W96
@ 005   ----------------------------------------
 .byte   W96
@ 006   ----------------------------------------
 .byte   W96
@ 007   ----------------------------------------
 .byte   W96
@ 008   ----------------------------------------
 .byte   W96
@ 009   ----------------------------------------
 .byte   W96
@ 010   ----------------------------------------
 .byte   W96
@ 011   ----------------------------------------
 .byte   W96
@ 012   ----------------------------------------
Label_9_0125EC45:
 .byte   W08
 .byte   N12 ,Fn4 ,v127
 .byte   W36
 .byte   Fs4
 .byte   W36
 .byte   Gs4
 .byte   W16
 .byte   PEND 
@ 013   ----------------------------------------
Label_9_0125EC4F:
 .byte   W08
 .byte   N12 ,Cs4 ,v127
 .byte   W36
 .byte   Ds4
 .byte   W36
 .byte   En4
 .byte   W16
 .byte   PEND 
@ 014   ----------------------------------------
 .byte   PATT
  .word Label_9_0125EC45
@ 015   ----------------------------------------
Label_9_0125EC5E:
 .byte   W08
 .byte   N12 ,Cs4 ,v127
 .byte   W36
 .byte   Cn4
 .byte   W24
 .byte   Bn3
 .byte   W12
 .byte   Cn4
 .byte   W16
 .byte   PEND 
@ 016   ----------------------------------------
 .byte   PATT
  .word Label_9_0125EC45
@ 017   ----------------------------------------
 .byte   PATT
  .word Label_9_0125EC4F
@ 018   ----------------------------------------
 .byte   PATT
  .word Label_9_0125EC45
@ 019   ----------------------------------------
 .byte   PATT
  .word Label_9_0125EC5E
@ 020   ----------------------------------------
 .byte   W96
@ 021   ----------------------------------------
 .byte   W96
@ 022   ----------------------------------------
 .byte   W96
@ 023   ----------------------------------------
 .byte   W96
@ 024   ----------------------------------------
 .byte   W96
@ 025   ----------------------------------------
 .byte   W96
@ 026   ----------------------------------------
 .byte   W96
@ 027   ----------------------------------------
 .byte   W96
@ 028   ----------------------------------------
 .byte   W96
@ 029   ----------------------------------------
 .byte   W96
@ 030   ----------------------------------------
 .byte   W08
 .byte   PAN , c_v-13
 .byte   VOL , 41*song0105_mvl/mxv
 .byte   W88
@ 031   ----------------------------------------
 .byte   W96
@ 032   ----------------------------------------
 .byte   W96
@ 033   ----------------------------------------
 .byte   W96
@ 034   ----------------------------------------
 .byte   W96
@ 035   ----------------------------------------
 .byte   W96
@ 036   ----------------------------------------
 .byte   W96
@ 037   ----------------------------------------
 .byte   W96
@ 038   ----------------------------------------
 .byte   W96
@ 039   ----------------------------------------
 .byte   W96
@ 040   ----------------------------------------
 .byte   W96
@ 041   ----------------------------------------
 .byte   W96
@ 042   ----------------------------------------
 .byte   PATT
  .word Label_9_0125EC45
@ 043   ----------------------------------------
 .byte   PATT
  .word Label_9_0125EC4F
@ 044   ----------------------------------------
 .byte   PATT
  .word Label_9_0125EC45
@ 045   ----------------------------------------
 .byte   PATT
  .word Label_9_0125EC5E
@ 046   ----------------------------------------
 .byte   PATT
  .word Label_9_0125EC45
@ 047   ----------------------------------------
 .byte   PATT
  .word Label_9_0125EC4F
@ 048   ----------------------------------------
 .byte   PATT
  .word Label_9_0125EC45
@ 049   ----------------------------------------
 .byte   PATT
  .word Label_9_0125EC5E
@ 050   ----------------------------------------
 .byte   W96
@ 051   ----------------------------------------
 .byte   W96
@ 052   ----------------------------------------
 .byte   W96
@ 053   ----------------------------------------
 .byte   W96
@ 054   ----------------------------------------
 .byte   W96
@ 055   ----------------------------------------
 .byte   W96
@ 056   ----------------------------------------
 .byte   W96
@ 057   ----------------------------------------
 .byte   W96
@ 058   ----------------------------------------
 .byte   W96
@ 059   ----------------------------------------
 .byte   W96
@ 060   ----------------------------------------
 .byte   W32
 .byte   GOTO
  .word Label_9_0125EC32
 .byte   FINE

@******************************************************@
	.align	2

song0105:
	.byte	10	@ NumTrks
	.byte	0	@ NumBlks
	.byte	song0105_pri	@ Priority
	.byte	song0105_rev	@ Reverb.
    
	.word	song0105_grp
    
	.word	song0105_001
	.word	song0105_002
	.word	song0105_003
	.word	song0105_004
	.word	song0105_005
	.word	song0105_006
	.word	song0105_007
	.word	song0105_008
	.word	song0105_009
	.word	song0105_010

	.end
