	.include "MPlayDef.s"

	.equ	song09_grp, voicegroup000
	.equ	song09_pri, 0
	.equ	song09_rev, 0
	.equ	song09_mvl, 127
	.equ	song09_key, 0
	.equ	song09_tbs, 1
	.equ	song09_exg, 0
	.equ	song09_cmp, 1

	.section .rodata
	.global	song09
	.align	2


@**************** Track 1 (Midi-Chn.0) ****************@

song09_001:
@  #01 @000   ----------------------------------------
 .byte   KEYSH , song09_key+0
 .byte   TEMPO , 132*song09_tbs/2
 .byte   VOICE , 30
 .byte   MODT 0
 .byte   LFOS 44
 .byte   VOL , 61*song09_mvl/mxv
 .byte   BENDR, 12
 .byte   PAN , c_v+0
 .byte   MODT 0
 .byte   LFOS 44
 .byte   N05 ,Fs2 ,v112
 .byte   W06
 .byte   En2
 .byte   W06
 .byte   N11 ,Fs2
 .byte   W12
 .byte   An2
 .byte   W12
 .byte   N05 ,Fs2
 .byte   W06
 .byte   En2
 .byte   W06
 .byte   N11 ,Fs2
 .byte   W12
 .byte   An2
 .byte   W12
 .byte   N05 ,Fs2
 .byte   W06
 .byte   En2
 .byte   W06
 .byte   N08 ,Fs2
 .byte   W12
@  #01 @001   ----------------------------------------
Label_0121C501:
 .byte   N05 ,Fs2 ,v112
 .byte   W06
 .byte   En2
 .byte   W06
 .byte   N11 ,Fs2
 .byte   W12
 .byte   An2
 .byte   W12
 .byte   N05 ,Fs2
 .byte   W06
 .byte   En2
 .byte   W06
 .byte   N11 ,Fs2
 .byte   W09
 .byte   BEND , c_v-10
 .byte   W02
 .byte   BEND , c_v-10
 .byte   W01
 .byte   BEND , c_v+0
 .byte   N06 ,Cn3
 .byte   W05
 .byte   BEND , c_v+0
 .byte   W01
 .byte   BEND , c_v-16
 .byte   N05 ,Cn3 ,v036
 .byte   W05
 .byte   BEND , c_v-16
 .byte   W01
 .byte   BEND , c_v+0
 .byte   N06 ,Bn2 ,v112
 .byte   W06
 .byte   BEND , c_v-12
 .byte   N05 ,Bn2 ,v036
 .byte   W05
 .byte   BEND , c_v-12
 .byte   W01
 .byte   BEND , c_v+0
 .byte   N05 ,Fs2 ,v112
 .byte   W06
 .byte   En2
 .byte   W06
 .byte   PEND 
@  #01 @002   ----------------------------------------
Label_0121C53E:
 .byte   N05 ,Fs2 ,v112
 .byte   W06
 .byte   En2
 .byte   W06
 .byte   N11 ,Fs2
 .byte   W12
 .byte   An2
 .byte   W12
 .byte   N05 ,Fs2
 .byte   W06
 .byte   En2
 .byte   W06
 .byte   N11 ,Fs2
 .byte   W12
 .byte   An2
 .byte   W12
 .byte   N05 ,Fs2
 .byte   W06
 .byte   En2
 .byte   W06
 .byte   N08 ,Fs2
 .byte   W12
 .byte   PEND 
@  #01 @003   ----------------------------------------
 .byte   PATT
  .word Label_0121C501
@  #01 @004   ----------------------------------------
 .byte   PATT
  .word Label_0121C53E
@  #01 @005   ----------------------------------------
 .byte   PATT
  .word Label_0121C501
@  #01 @006   ----------------------------------------
 .byte   PATT
  .word Label_0121C53E
@  #01 @007   ----------------------------------------
 .byte   PATT
  .word Label_0121C501
@  #01 @008   ----------------------------------------
 .byte   PATT
  .word Label_0121C53E
@  #01 @009   ----------------------------------------
 .byte   PATT
  .word Label_0121C501
@  #01 @010   ----------------------------------------
 .byte   PATT
  .word Label_0121C53E
@  #01 @011   ----------------------------------------
 .byte   PATT
  .word Label_0121C501
@  #01 @012   ----------------------------------------
 .byte   PATT
  .word Label_0121C53E
@  #01 @013   ----------------------------------------
 .byte   PATT
  .word Label_0121C501
@  #01 @014   ----------------------------------------
 .byte   PATT
  .word Label_0121C53E
@  #01 @015   ----------------------------------------
 .byte   N05 ,Fs2 ,v112
 .byte   W06
 .byte   En2
 .byte   W06
 .byte   Fs2
 .byte   W12
 .byte   N05
 .byte   W06
 .byte   En2
 .byte   W06
 .byte   Fs2
 .byte   W12
 .byte   N05
 .byte   W06
 .byte   N05
 .byte   W06
 .byte   N05
 .byte   W06
 .byte   N05
 .byte   W12
 .byte   N05
 .byte   W12
 .byte   N05
 .byte   W06
@  #01 @016   ----------------------------------------
 .byte   PATT
  .word Label_0121C53E
@  #01 @017   ----------------------------------------
 .byte   PATT
  .word Label_0121C501
@  #01 @018   ----------------------------------------
 .byte   PATT
  .word Label_0121C53E
@  #01 @019   ----------------------------------------
 .byte   PATT
  .word Label_0121C501
@  #01 @020   ----------------------------------------
 .byte   PATT
  .word Label_0121C53E
@  #01 @021   ----------------------------------------
 .byte   PATT
  .word Label_0121C501
@  #01 @022   ----------------------------------------
 .byte   PATT
  .word Label_0121C53E
@  #01 @023   ----------------------------------------
 .byte   PATT
  .word Label_0121C501
@  #01 @024   ----------------------------------------
 .byte   W96
@  #01 @025   ----------------------------------------
 .byte   W96
@  #01 @026   ----------------------------------------
 .byte   W96
@  #01 @027   ----------------------------------------
 .byte   W96
@  #01 @028   ----------------------------------------
 .byte   W96
@  #01 @029   ----------------------------------------
 .byte   W96
@  #01 @030   ----------------------------------------
 .byte   W96
@  #01 @031   ----------------------------------------
 .byte   W96
@  #01 @032   ----------------------------------------
 .byte   PATT
  .word Label_0121C53E
@  #01 @033   ----------------------------------------
 .byte   PATT
  .word Label_0121C501
@  #01 @034   ----------------------------------------
 .byte   PATT
  .word Label_0121C53E
@  #01 @035   ----------------------------------------
 .byte   PATT
  .word Label_0121C501
@  #01 @036   ----------------------------------------
 .byte   PATT
  .word Label_0121C53E
@  #01 @037   ----------------------------------------
 .byte   PATT
  .word Label_0121C501
@  #01 @038   ----------------------------------------
 .byte   PATT
  .word Label_0121C53E
@  #01 @039   ----------------------------------------
 .byte   PATT
  .word Label_0121C501
@  #01 @040   ----------------------------------------
 .byte   W96
@  #01 @041   ----------------------------------------
 .byte   W96
@  #01 @042   ----------------------------------------
 .byte   W96
@  #01 @043   ----------------------------------------
 .byte   W96
@  #01 @044   ----------------------------------------
 .byte   W96
@  #01 @045   ----------------------------------------
 .byte   W96
@  #01 @046   ----------------------------------------
 .byte   W96
@  #01 @047   ----------------------------------------
 .byte   W96
@  #01 @048   ----------------------------------------
 .byte   W96
@  #01 @049   ----------------------------------------
 .byte   W96
@  #01 @050   ----------------------------------------
 .byte   W96
@  #01 @051   ----------------------------------------
 .byte   W96
@  #01 @052   ----------------------------------------
 .byte   W96
@  #01 @053   ----------------------------------------
 .byte   W96
@  #01 @054   ----------------------------------------
 .byte   W96
@  #01 @055   ----------------------------------------
 .byte   W96
@  #01 @056   ----------------------------------------
 .byte   W96
@  #01 @057   ----------------------------------------
 .byte   W96
@  #01 @058   ----------------------------------------
 .byte   W96
@  #01 @059   ----------------------------------------
 .byte   W96
@  #01 @060   ----------------------------------------
Label_0121C61E:
 .byte   VOICE , 29
 .byte   PAN , c_v+63
 .byte   BEND , c_v-1
 .byte   N32 ,Fs0 ,v112
 .byte   W01
 .byte   BEND , c_v-1
 .byte   N32 ,Fs1
 .byte   W01
 .byte   BEND , c_v-1
 .byte   N32 ,Fs2
 .byte   W01
 .byte   BEND , c_v-2
 .byte   N32 ,Fs3 ,v052
 .byte   W01
 .byte   BEND , c_v-3
 .byte   W01
 .byte   BEND , c_v-4
 .byte   W01
 .byte   BEND , c_v-5
 .byte   W01
 .byte   BEND , c_v-7
 .byte   W01
 .byte   BEND , c_v-10
 .byte   W01
 .byte   BEND , c_v-12
 .byte   W01
 .byte   BEND , c_v-15
 .byte   W01
 .byte   BEND , c_v-17
 .byte   W01
 .byte   BEND , c_v-20
 .byte   W01
 .byte   BEND , c_v-22
 .byte   W01
 .byte   BEND , c_v-25
 .byte   W01
 .byte   BEND , c_v-32
 .byte   W01
 .byte   BEND , c_v-36
 .byte   W01
 .byte   BEND , c_v-40
 .byte   W01
 .byte   BEND , c_v-40
 .byte   W06
 .byte   BEND , c_v+0
 .byte   W12
 .byte   PAN , c_v-64
 .byte   BEND , c_v-1
 .byte   N32 ,Fs0 ,v112
 .byte   W01
 .byte   BEND , c_v-1
 .byte   N32 ,Fs1
 .byte   W01
 .byte   BEND , c_v-1
 .byte   N32 ,Fs2
 .byte   W01
 .byte   BEND , c_v-2
 .byte   N32 ,Fs3 ,v052
 .byte   W01
 .byte   BEND , c_v-3
 .byte   W01
 .byte   BEND , c_v-4
 .byte   W01
 .byte   BEND , c_v-5
 .byte   W01
 .byte   BEND , c_v-7
 .byte   W01
 .byte   BEND , c_v-10
 .byte   W01
 .byte   BEND , c_v-12
 .byte   W01
 .byte   BEND , c_v-15
 .byte   W01
 .byte   BEND , c_v-17
 .byte   W01
 .byte   BEND , c_v-20
 .byte   W01
 .byte   BEND , c_v-22
 .byte   W01
 .byte   BEND , c_v-25
 .byte   W01
 .byte   BEND , c_v-32
 .byte   W01
 .byte   BEND , c_v-36
 .byte   W01
 .byte   BEND , c_v-40
 .byte   W01
 .byte   BEND , c_v-40
 .byte   W06
 .byte   BEND , c_v+0
 .byte   W36
 .byte   PEND 
@  #01 @061   ----------------------------------------
Label_0121C693:
 .byte   VOICE , 30
 .byte   PAN , c_v+0
 .byte   W12
 .byte   N05 ,Fs2 ,v112
 .byte   W06
 .byte   En2
 .byte   W06
 .byte   Fs2
 .byte   W12
 .byte   An2
 .byte   W12
 .byte   Fs2
 .byte   W06
 .byte   En2
 .byte   W06
 .byte   Fs2
 .byte   W12
 .byte   An2
 .byte   W12
 .byte   Fs2
 .byte   W06
 .byte   En2
 .byte   W06
 .byte   PEND 
@  #01 @062   ----------------------------------------
 .byte   PATT
  .word Label_0121C61E
@  #01 @063   ----------------------------------------
 .byte   PATT
  .word Label_0121C693
@  #01 @064   ----------------------------------------
 .byte   PATT
  .word Label_0121C61E
@  #01 @065   ----------------------------------------
 .byte   PATT
  .word Label_0121C693
@  #01 @066   ----------------------------------------
 .byte   PATT
  .word Label_0121C61E
@  #01 @067   ----------------------------------------
Label_0121C6C8:
 .byte   PAN , c_v+63
 .byte   BEND , c_v-1
 .byte   N32 ,Fs0 ,v112
 .byte   W01
 .byte   BEND , c_v-1
 .byte   N32 ,Fs1
 .byte   W01
 .byte   BEND , c_v-1
 .byte   N32 ,Fs2
 .byte   W01
 .byte   BEND , c_v-2
 .byte   N32 ,Fs3 ,v052
 .byte   W01
 .byte   BEND , c_v-3
 .byte   W01
 .byte   BEND , c_v-4
 .byte   W01
 .byte   BEND , c_v-5
 .byte   W01
 .byte   BEND , c_v-7
 .byte   W01
 .byte   BEND , c_v-10
 .byte   W01
 .byte   BEND , c_v-12
 .byte   W01
 .byte   BEND , c_v-15
 .byte   W01
 .byte   BEND , c_v-17
 .byte   W01
 .byte   BEND , c_v-20
 .byte   W01
 .byte   BEND , c_v-22
 .byte   W01
 .byte   BEND , c_v-25
 .byte   W01
 .byte   BEND , c_v-32
 .byte   W01
 .byte   BEND , c_v-36
 .byte   W01
 .byte   BEND , c_v-40
 .byte   W01
 .byte   BEND , c_v-40
 .byte   W06
 .byte   BEND , c_v+0
 .byte   W72
 .byte   PEND 
@  #01 @068   ----------------------------------------
Label_0121C702:
 .byte   VOICE , 30
 .byte   PAN , c_v+0
 .byte   N05 ,Fs2 ,v112
 .byte   W06
 .byte   En2
 .byte   W06
 .byte   N11 ,Fs2
 .byte   W12
 .byte   An2
 .byte   W12
 .byte   N05 ,Fs2
 .byte   W06
 .byte   En2
 .byte   W06
 .byte   N11 ,Fs2
 .byte   W12
 .byte   An2
 .byte   W12
 .byte   N05 ,Fs2
 .byte   W06
 .byte   En2
 .byte   W06
 .byte   N08 ,Fs2
 .byte   W12
 .byte   PEND 
@  #01 @069   ----------------------------------------
 .byte   PATT
  .word Label_0121C501
@  #01 @070   ----------------------------------------
 .byte   PATT
  .word Label_0121C53E
@  #01 @071   ----------------------------------------
 .byte   PATT
  .word Label_0121C501
@  #01 @072   ----------------------------------------
 .byte   PATT
  .word Label_0121C53E
@  #01 @073   ----------------------------------------
 .byte   PATT
  .word Label_0121C501
@  #01 @074   ----------------------------------------
 .byte   PATT
  .word Label_0121C53E
@  #01 @075   ----------------------------------------
 .byte   PATT
  .word Label_0121C501
@  #01 @076   ----------------------------------------
 .byte   W96
@  #01 @077   ----------------------------------------
 .byte   W96
@  #01 @078   ----------------------------------------
 .byte   W96
@  #01 @079   ----------------------------------------
 .byte   W96
@  #01 @080   ----------------------------------------
 .byte   W96
@  #01 @081   ----------------------------------------
 .byte   W96
@  #01 @082   ----------------------------------------
 .byte   W96
@  #01 @083   ----------------------------------------
 .byte   W96
@  #01 @084   ----------------------------------------
 .byte   PATT
  .word Label_0121C53E
@  #01 @085   ----------------------------------------
 .byte   PATT
  .word Label_0121C501
@  #01 @086   ----------------------------------------
 .byte   PATT
  .word Label_0121C53E
@  #01 @087   ----------------------------------------
 .byte   PATT
  .word Label_0121C501
@  #01 @088   ----------------------------------------
 .byte   PATT
  .word Label_0121C53E
@  #01 @089   ----------------------------------------
 .byte   PATT
  .word Label_0121C501
@  #01 @090   ----------------------------------------
 .byte   PATT
  .word Label_0121C53E
@  #01 @091   ----------------------------------------
 .byte   PATT
  .word Label_0121C501
@  #01 @092   ----------------------------------------
 .byte   W96
@  #01 @093   ----------------------------------------
 .byte   W96
@  #01 @094   ----------------------------------------
 .byte   W96
@  #01 @095   ----------------------------------------
 .byte   W96
@  #01 @096   ----------------------------------------
 .byte   W96
@  #01 @097   ----------------------------------------
 .byte   W96
@  #01 @098   ----------------------------------------
 .byte   W96
@  #01 @099   ----------------------------------------
 .byte   W96
@  #01 @100   ----------------------------------------
 .byte   W96
@  #01 @101   ----------------------------------------
 .byte   W96
@  #01 @102   ----------------------------------------
 .byte   W96
@  #01 @103   ----------------------------------------
 .byte   W96
@  #01 @104   ----------------------------------------
 .byte   W96
@  #01 @105   ----------------------------------------
 .byte   W96
@  #01 @106   ----------------------------------------
 .byte   W96
@  #01 @107   ----------------------------------------
 .byte   W96
@  #01 @108   ----------------------------------------
 .byte   W96
@  #01 @109   ----------------------------------------
 .byte   W96
@  #01 @110   ----------------------------------------
 .byte   W96
@  #01 @111   ----------------------------------------
 .byte   W96
@  #01 @112   ----------------------------------------
 .byte   PATT
  .word Label_0121C61E
@  #01 @113   ----------------------------------------
 .byte   PATT
  .word Label_0121C693
@  #01 @114   ----------------------------------------
 .byte   PATT
  .word Label_0121C61E
@  #01 @115   ----------------------------------------
 .byte   PATT
  .word Label_0121C693
@  #01 @116   ----------------------------------------
 .byte   PATT
  .word Label_0121C61E
@  #01 @117   ----------------------------------------
 .byte   PATT
  .word Label_0121C693
@  #01 @118   ----------------------------------------
 .byte   PATT
  .word Label_0121C61E
@  #01 @119   ----------------------------------------
 .byte   PATT
  .word Label_0121C6C8
@  #01 @120   ----------------------------------------
 .byte   GOTO
  .word Label_0121C702
@  #01 @121   ----------------------------------------
 .byte   PATT
  .word Label_0121C702
@  #01 @122   ----------------------------------------
 .byte   PATT
  .word Label_0121C501
@  #01 @123   ----------------------------------------
 .byte   PATT
  .word Label_0121C53E
@  #01 @124   ----------------------------------------
 .byte   PATT
  .word Label_0121C501
@  #01 @125   ----------------------------------------
 .byte   PATT
  .word Label_0121C53E
@  #01 @126   ----------------------------------------
 .byte   PATT
  .word Label_0121C501
@  #01 @127   ----------------------------------------
 .byte   PATT
  .word Label_0121C53E
@  #01 @128   ----------------------------------------
 .byte   PATT
  .word Label_0121C501
@  #01 @129   ----------------------------------------
 .byte   W96
@  #01 @130   ----------------------------------------
 .byte   W96
@  #01 @131   ----------------------------------------
 .byte   BEND , c_v+0
 .byte   W96
@  #01 @132   ----------------------------------------
 .byte   W96
@  #01 @133   ----------------------------------------
 .byte   BEND , c_v+0
 .byte   FINE

@**************** Track 2 (Midi-Chn.1) ****************@

song09_002:
@  #02 @000   ----------------------------------------
 .byte   KEYSH , song09_key+0
 .byte   VOICE , 29
 .byte   MODT 0
 .byte   LFOS 44
 .byte   VOL , 40*song09_mvl/mxv
 .byte   BENDR, 12
 .byte   PAN , c_v+0
 .byte   MODT 0
 .byte   LFOS 44
 .byte   W96
@  #02 @001   ----------------------------------------
 .byte   W96
@  #02 @002   ----------------------------------------
 .byte   W96
@  #02 @003   ----------------------------------------
 .byte   W96
@  #02 @004   ----------------------------------------
 .byte   W96
@  #02 @005   ----------------------------------------
 .byte   W96
@  #02 @006   ----------------------------------------
 .byte   W96
@  #02 @007   ----------------------------------------
 .byte   W96
@  #02 @008   ----------------------------------------
 .byte   W96
@  #02 @009   ----------------------------------------
 .byte   W96
@  #02 @010   ----------------------------------------
 .byte   W96
@  #02 @011   ----------------------------------------
 .byte   W96
@  #02 @012   ----------------------------------------
 .byte   W96
@  #02 @013   ----------------------------------------
 .byte   W96
@  #02 @014   ----------------------------------------
 .byte   W96
@  #02 @015   ----------------------------------------
 .byte   W96
@  #02 @016   ----------------------------------------
Label_011B1BDA:
 .byte   N05 ,Cs2 ,v127
 .byte   W12
 .byte   N05
 .byte   W12
 .byte   Bn1
 .byte   W06
 .byte   N17 ,Cs2
 .byte   W18
 .byte   N05
 .byte   W12
 .byte   N05
 .byte   W12
 .byte   Bn1
 .byte   W06
 .byte   N17 ,Cs2
 .byte   W18
 .byte   PEND 
@  #02 @017   ----------------------------------------
Label_011B1BEF:
 .byte   N05 ,En2 ,v127
 .byte   W12
 .byte   N05
 .byte   W12
 .byte   Cs2
 .byte   W06
 .byte   N17 ,En2
 .byte   W18
 .byte   N05 ,Fs2
 .byte   W12
 .byte   N05
 .byte   W12
 .byte   En2
 .byte   W06
 .byte   N17 ,Fs2
 .byte   W18
 .byte   PEND 
@  #02 @018   ----------------------------------------
 .byte   PATT
  .word Label_011B1BDA
@  #02 @019   ----------------------------------------
 .byte   PATT
  .word Label_011B1BEF
@  #02 @020   ----------------------------------------
 .byte   PATT
  .word Label_011B1BDA
@  #02 @021   ----------------------------------------
 .byte   PATT
  .word Label_011B1BEF
@  #02 @022   ----------------------------------------
 .byte   PATT
  .word Label_011B1BDA
@  #02 @023   ----------------------------------------
 .byte   PATT
  .word Label_011B1BEF
@  #02 @024   ----------------------------------------
 .byte   N92 ,Gs2 ,v127
 .byte   W96
@  #02 @025   ----------------------------------------
 .byte   Fs2
 .byte   W96
@  #02 @026   ----------------------------------------
 .byte   En2
 .byte   W96
@  #02 @027   ----------------------------------------
 .byte   Fs2
 .byte   W96
@  #02 @028   ----------------------------------------
 .byte   Gs2
 .byte   W96
@  #02 @029   ----------------------------------------
 .byte   Fs2
 .byte   W96
@  #02 @030   ----------------------------------------
 .byte   En2
 .byte   W96
@  #02 @031   ----------------------------------------
Label_011B1C33:
 .byte   N44 ,Fs2 ,v127
 .byte   W48
 .byte   Gs2
 .byte   W48
 .byte   PEND 
@  #02 @032   ----------------------------------------
 .byte   PATT
  .word Label_011B1BDA
@  #02 @033   ----------------------------------------
 .byte   PATT
  .word Label_011B1BEF
@  #02 @034   ----------------------------------------
 .byte   PATT
  .word Label_011B1BDA
@  #02 @035   ----------------------------------------
 .byte   PATT
  .word Label_011B1BEF
@  #02 @036   ----------------------------------------
 .byte   PATT
  .word Label_011B1BDA
@  #02 @037   ----------------------------------------
 .byte   PATT
  .word Label_011B1BEF
@  #02 @038   ----------------------------------------
 .byte   PATT
  .word Label_011B1BDA
@  #02 @039   ----------------------------------------
 .byte   PATT
  .word Label_011B1BEF
@  #02 @040   ----------------------------------------
Label_011B1C62:
 .byte   N11 ,Cs2 ,v127
 .byte   W12
 .byte   N05 ,Bn1
 .byte   W06
 .byte   Cs2
 .byte   W12
 .byte   N11 ,En2
 .byte   W12
 .byte   Fs2
 .byte   W12
 .byte   N05 ,En2
 .byte   W06
 .byte   N11 ,Fs2
 .byte   W12
 .byte   N05 ,Gn2
 .byte   W06
 .byte   Fs2
 .byte   W06
 .byte   N11 ,En2
 .byte   W12
 .byte   PEND 
@  #02 @041   ----------------------------------------
 .byte   PATT
  .word Label_011B1C62
@  #02 @042   ----------------------------------------
 .byte   PATT
  .word Label_011B1C62
@  #02 @043   ----------------------------------------
 .byte   PATT
  .word Label_011B1C62
@  #02 @044   ----------------------------------------
 .byte   PATT
  .word Label_011B1C62
@  #02 @045   ----------------------------------------
 .byte   PATT
  .word Label_011B1C62
@  #02 @046   ----------------------------------------
 .byte   PATT
  .word Label_011B1C62
@  #02 @047   ----------------------------------------
 .byte   PATT
  .word Label_011B1C62
@  #02 @048   ----------------------------------------
 .byte   PATT
  .word Label_011B1C62
@  #02 @049   ----------------------------------------
 .byte   PATT
  .word Label_011B1C62
@  #02 @050   ----------------------------------------
 .byte   PATT
  .word Label_011B1C62
@  #02 @051   ----------------------------------------
 .byte   PATT
  .word Label_011B1C62
@  #02 @052   ----------------------------------------
 .byte   PATT
  .word Label_011B1C62
@  #02 @053   ----------------------------------------
 .byte   PATT
  .word Label_011B1C62
@  #02 @054   ----------------------------------------
 .byte   PATT
  .word Label_011B1C62
@  #02 @055   ----------------------------------------
 .byte   PATT
  .word Label_011B1C62
@  #02 @056   ----------------------------------------
 .byte   PATT
  .word Label_011B1C62
@  #02 @057   ----------------------------------------
 .byte   PATT
  .word Label_011B1C62
@  #02 @058   ----------------------------------------
 .byte   PATT
  .word Label_011B1C62
@  #02 @059   ----------------------------------------
 .byte   PATT
  .word Label_011B1C62
@  #02 @060   ----------------------------------------
 .byte   PATT
  .word Label_011B1C62
@  #02 @061   ----------------------------------------
 .byte   PATT
  .word Label_011B1C62
@  #02 @062   ----------------------------------------
 .byte   PATT
  .word Label_011B1C62
@  #02 @063   ----------------------------------------
 .byte   PATT
  .word Label_011B1C62
@  #02 @064   ----------------------------------------
 .byte   PATT
  .word Label_011B1C62
@  #02 @065   ----------------------------------------
 .byte   PATT
  .word Label_011B1C62
@  #02 @066   ----------------------------------------
 .byte   PATT
  .word Label_011B1C62
@  #02 @067   ----------------------------------------
 .byte   PATT
  .word Label_011B1C62
@  #02 @068   ----------------------------------------
Label_011B1D06:
@  #02 @069   ----------------------------------------
 .byte   PATT
  .word Label_011B1BDA
@  #02 @070   ----------------------------------------
 .byte   PATT
  .word Label_011B1BEF
@  #02 @071   ----------------------------------------
 .byte   PATT
  .word Label_011B1BDA
@  #02 @072   ----------------------------------------
 .byte   PATT
  .word Label_011B1BEF
@  #02 @073   ----------------------------------------
 .byte   PATT
  .word Label_011B1BDA
@  #02 @074   ----------------------------------------
 .byte   PATT
  .word Label_011B1BEF
@  #02 @075   ----------------------------------------
 .byte   PATT
  .word Label_011B1BDA
@  #02 @076   ----------------------------------------
 .byte   PATT
  .word Label_011B1BEF
@  #02 @077   ----------------------------------------
 .byte   N92 ,Gs2 ,v127
 .byte   W96
@  #02 @078   ----------------------------------------
 .byte   Fs2
 .byte   W96
@  #02 @079   ----------------------------------------
 .byte   En2
 .byte   W96
@  #02 @080   ----------------------------------------
 .byte   Fs2
 .byte   W96
@  #02 @081   ----------------------------------------
 .byte   Gs2
 .byte   W96
@  #02 @082   ----------------------------------------
 .byte   Fs2
 .byte   W96
@  #02 @083   ----------------------------------------
 .byte   En2
 .byte   W96
@  #02 @084   ----------------------------------------
 .byte   PATT
  .word Label_011B1C33
@  #02 @085   ----------------------------------------
 .byte   PATT
  .word Label_011B1BDA
@  #02 @086   ----------------------------------------
 .byte   PATT
  .word Label_011B1BEF
@  #02 @087   ----------------------------------------
 .byte   PATT
  .word Label_011B1BDA
@  #02 @088   ----------------------------------------
 .byte   PATT
  .word Label_011B1BEF
@  #02 @089   ----------------------------------------
 .byte   PATT
  .word Label_011B1BDA
@  #02 @090   ----------------------------------------
 .byte   PATT
  .word Label_011B1BEF
@  #02 @091   ----------------------------------------
 .byte   PATT
  .word Label_011B1BDA
@  #02 @092   ----------------------------------------
 .byte   PATT
  .word Label_011B1BEF
@  #02 @093   ----------------------------------------
 .byte   PATT
  .word Label_011B1C62
@  #02 @094   ----------------------------------------
 .byte   PATT
  .word Label_011B1C62
@  #02 @095   ----------------------------------------
 .byte   PATT
  .word Label_011B1C62
@  #02 @096   ----------------------------------------
 .byte   PATT
  .word Label_011B1C62
@  #02 @097   ----------------------------------------
 .byte   PATT
  .word Label_011B1C62
@  #02 @098   ----------------------------------------
 .byte   PATT
  .word Label_011B1C62
@  #02 @099   ----------------------------------------
 .byte   PATT
  .word Label_011B1C62
@  #02 @100   ----------------------------------------
 .byte   PATT
  .word Label_011B1C62
@  #02 @101   ----------------------------------------
 .byte   PATT
  .word Label_011B1C62
@  #02 @102   ----------------------------------------
 .byte   PATT
  .word Label_011B1C62
@  #02 @103   ----------------------------------------
 .byte   PATT
  .word Label_011B1C62
@  #02 @104   ----------------------------------------
 .byte   PATT
  .word Label_011B1C62
@  #02 @105   ----------------------------------------
 .byte   PATT
  .word Label_011B1C62
@  #02 @106   ----------------------------------------
 .byte   PATT
  .word Label_011B1C62
@  #02 @107   ----------------------------------------
 .byte   PATT
  .word Label_011B1C62
@  #02 @108   ----------------------------------------
 .byte   PATT
  .word Label_011B1C62
@  #02 @109   ----------------------------------------
 .byte   PATT
  .word Label_011B1C62
@  #02 @110   ----------------------------------------
 .byte   PATT
  .word Label_011B1C62
@  #02 @111   ----------------------------------------
 .byte   PATT
  .word Label_011B1C62
@  #02 @112   ----------------------------------------
 .byte   PATT
  .word Label_011B1C62
@  #02 @113   ----------------------------------------
 .byte   PATT
  .word Label_011B1C62
@  #02 @114   ----------------------------------------
 .byte   PATT
  .word Label_011B1C62
@  #02 @115   ----------------------------------------
 .byte   PATT
  .word Label_011B1C62
@  #02 @116   ----------------------------------------
 .byte   PATT
  .word Label_011B1C62
@  #02 @117   ----------------------------------------
 .byte   PATT
  .word Label_011B1C62
@  #02 @118   ----------------------------------------
 .byte   PATT
  .word Label_011B1C62
@  #02 @119   ----------------------------------------
 .byte   PATT
  .word Label_011B1C62
@  #02 @120   ----------------------------------------
 .byte   PATT
  .word Label_011B1C62
@  #02 @121   ----------------------------------------
 .byte   GOTO
  .word Label_011B1D06
@  #02 @122   ----------------------------------------
 .byte   PATT
  .word Label_011B1BDA
@  #02 @123   ----------------------------------------
 .byte   PATT
  .word Label_011B1BEF
@  #02 @124   ----------------------------------------
 .byte   PATT
  .word Label_011B1BDA
@  #02 @125   ----------------------------------------
 .byte   PATT
  .word Label_011B1BEF
@  #02 @126   ----------------------------------------
 .byte   PATT
  .word Label_011B1BDA
@  #02 @127   ----------------------------------------
 .byte   PATT
  .word Label_011B1BEF
@  #02 @128   ----------------------------------------
 .byte   PATT
  .word Label_011B1BDA
@  #02 @129   ----------------------------------------
 .byte   PATT
  .word Label_011B1BEF
@  #02 @130   ----------------------------------------
 .byte   N92 ,Gs2 ,v127
 .byte   W96
@  #02 @131   ----------------------------------------
 .byte   Fs2
 .byte   W96
@  #02 @132   ----------------------------------------
 .byte   W96
@  #02 @133   ----------------------------------------
 .byte   W96
 .byte   FINE

@**************** Track 3 (Midi-Chn.2) ****************@

song09_003:
@  #03 @000   ----------------------------------------
 .byte   KEYSH , song09_key+0
 .byte   VOICE , 39
 .byte   MODT 0
 .byte   LFOS 44
 .byte   VOL , 40*song09_mvl/mxv
 .byte   BENDR, 12
 .byte   PAN , c_v+0
 .byte   MODT 0
 .byte   LFOS 44
 .byte   W96
@  #03 @001   ----------------------------------------
 .byte   W96
@  #03 @002   ----------------------------------------
 .byte   W96
@  #03 @003   ----------------------------------------
 .byte   W96
@  #03 @004   ----------------------------------------
 .byte   W96
@  #03 @005   ----------------------------------------
 .byte   W96
@  #03 @006   ----------------------------------------
 .byte   W96
@  #03 @007   ----------------------------------------
 .byte   W96
@  #03 @008   ----------------------------------------
 .byte   W96
@  #03 @009   ----------------------------------------
 .byte   W96
@  #03 @010   ----------------------------------------
 .byte   W96
@  #03 @011   ----------------------------------------
 .byte   W96
@  #03 @012   ----------------------------------------
 .byte   W96
@  #03 @013   ----------------------------------------
 .byte   W96
@  #03 @014   ----------------------------------------
 .byte   W96
@  #03 @015   ----------------------------------------
 .byte   W96
@  #03 @016   ----------------------------------------
Label_0121D78E:
 .byte   N05 ,Cs1 ,v036
 .byte   W12
 .byte   N05
 .byte   W12
 .byte   Bn0
 .byte   W06
 .byte   N17 ,Cs1
 .byte   W18
 .byte   N05
 .byte   W12
 .byte   N05
 .byte   W12
 .byte   Bn0
 .byte   W06
 .byte   N17 ,Cs1
 .byte   W18
 .byte   PEND 
@  #03 @017   ----------------------------------------
Label_0121D7A3:
 .byte   N05 ,En1 ,v036
 .byte   W12
 .byte   N05
 .byte   W12
 .byte   Cs1
 .byte   W06
 .byte   N17 ,En1
 .byte   W18
 .byte   N05 ,Fs1
 .byte   W12
 .byte   N05
 .byte   W12
 .byte   En1
 .byte   W06
 .byte   N17 ,Fs1
 .byte   W18
 .byte   PEND 
@  #03 @018   ----------------------------------------
 .byte   PATT
  .word Label_0121D78E
@  #03 @019   ----------------------------------------
 .byte   PATT
  .word Label_0121D7A3
@  #03 @020   ----------------------------------------
 .byte   PATT
  .word Label_0121D78E
@  #03 @021   ----------------------------------------
 .byte   PATT
  .word Label_0121D7A3
@  #03 @022   ----------------------------------------
 .byte   PATT
  .word Label_0121D78E
@  #03 @023   ----------------------------------------
 .byte   PATT
  .word Label_0121D7A3
@  #03 @024   ----------------------------------------
 .byte   N92 ,Gs1 ,v036
 .byte   W96
@  #03 @025   ----------------------------------------
 .byte   Fs1
 .byte   W96
@  #03 @026   ----------------------------------------
 .byte   En1
 .byte   W96
@  #03 @027   ----------------------------------------
 .byte   Fs1
 .byte   W96
@  #03 @028   ----------------------------------------
 .byte   Gs1
 .byte   W96
@  #03 @029   ----------------------------------------
 .byte   Fs1
 .byte   W96
@  #03 @030   ----------------------------------------
 .byte   En1
 .byte   W96
@  #03 @031   ----------------------------------------
Label_0121D7E7:
 .byte   N44 ,Fs1 ,v036
 .byte   W48
 .byte   Gs1
 .byte   W48
 .byte   PEND 
@  #03 @032   ----------------------------------------
 .byte   PATT
  .word Label_0121D78E
@  #03 @033   ----------------------------------------
 .byte   PATT
  .word Label_0121D7A3
@  #03 @034   ----------------------------------------
 .byte   PATT
  .word Label_0121D78E
@  #03 @035   ----------------------------------------
 .byte   PATT
  .word Label_0121D7A3
@  #03 @036   ----------------------------------------
 .byte   PATT
  .word Label_0121D78E
@  #03 @037   ----------------------------------------
 .byte   PATT
  .word Label_0121D7A3
@  #03 @038   ----------------------------------------
 .byte   PATT
  .word Label_0121D78E
@  #03 @039   ----------------------------------------
 .byte   PATT
  .word Label_0121D7A3
@  #03 @040   ----------------------------------------
Label_0121D816:
 .byte   N11 ,Cs1 ,v036
 .byte   W12
 .byte   N05 ,Bn0
 .byte   W06
 .byte   Cs1
 .byte   W12
 .byte   N11 ,En1
 .byte   W12
 .byte   Fs1
 .byte   W12
 .byte   N05 ,En1
 .byte   W06
 .byte   N11 ,Fs1
 .byte   W12
 .byte   N05 ,Gn1
 .byte   W06
 .byte   Fs1
 .byte   W06
 .byte   N11 ,En1
 .byte   W12
 .byte   PEND 
@  #03 @041   ----------------------------------------
 .byte   PATT
  .word Label_0121D816
@  #03 @042   ----------------------------------------
 .byte   PATT
  .word Label_0121D816
@  #03 @043   ----------------------------------------
 .byte   PATT
  .word Label_0121D816
@  #03 @044   ----------------------------------------
 .byte   PATT
  .word Label_0121D816
@  #03 @045   ----------------------------------------
 .byte   PATT
  .word Label_0121D816
@  #03 @046   ----------------------------------------
 .byte   PATT
  .word Label_0121D816
@  #03 @047   ----------------------------------------
 .byte   PATT
  .word Label_0121D816
@  #03 @048   ----------------------------------------
 .byte   PATT
  .word Label_0121D816
@  #03 @049   ----------------------------------------
 .byte   PATT
  .word Label_0121D816
@  #03 @050   ----------------------------------------
 .byte   PATT
  .word Label_0121D816
@  #03 @051   ----------------------------------------
 .byte   PATT
  .word Label_0121D816
@  #03 @052   ----------------------------------------
 .byte   PATT
  .word Label_0121D816
@  #03 @053   ----------------------------------------
 .byte   PATT
  .word Label_0121D816
@  #03 @054   ----------------------------------------
 .byte   PATT
  .word Label_0121D816
@  #03 @055   ----------------------------------------
 .byte   PATT
  .word Label_0121D816
@  #03 @056   ----------------------------------------
 .byte   PATT
  .word Label_0121D816
@  #03 @057   ----------------------------------------
 .byte   PATT
  .word Label_0121D816
@  #03 @058   ----------------------------------------
 .byte   PATT
  .word Label_0121D816
@  #03 @059   ----------------------------------------
 .byte   PATT
  .word Label_0121D816
@  #03 @060   ----------------------------------------
 .byte   PATT
  .word Label_0121D816
@  #03 @061   ----------------------------------------
 .byte   PATT
  .word Label_0121D816
@  #03 @062   ----------------------------------------
 .byte   PATT
  .word Label_0121D816
@  #03 @063   ----------------------------------------
 .byte   PATT
  .word Label_0121D816
@  #03 @064   ----------------------------------------
 .byte   PATT
  .word Label_0121D816
@  #03 @065   ----------------------------------------
 .byte   PATT
  .word Label_0121D816
@  #03 @066   ----------------------------------------
 .byte   PATT
  .word Label_0121D816
@  #03 @067   ----------------------------------------
 .byte   PATT
  .word Label_0121D816
@  #03 @068   ----------------------------------------
Label_0121D8BA:
@  #03 @069   ----------------------------------------
 .byte   PATT
  .word Label_0121D78E
@  #03 @070   ----------------------------------------
 .byte   PATT
  .word Label_0121D7A3
@  #03 @071   ----------------------------------------
 .byte   PATT
  .word Label_0121D78E
@  #03 @072   ----------------------------------------
 .byte   PATT
  .word Label_0121D7A3
@  #03 @073   ----------------------------------------
 .byte   PATT
  .word Label_0121D78E
@  #03 @074   ----------------------------------------
 .byte   PATT
  .word Label_0121D7A3
@  #03 @075   ----------------------------------------
 .byte   PATT
  .word Label_0121D78E
@  #03 @076   ----------------------------------------
 .byte   PATT
  .word Label_0121D7A3
@  #03 @077   ----------------------------------------
 .byte   N92 ,Gs1 ,v036
 .byte   W96
@  #03 @078   ----------------------------------------
 .byte   Fs1
 .byte   W96
@  #03 @079   ----------------------------------------
 .byte   En1
 .byte   W96
@  #03 @080   ----------------------------------------
 .byte   Fs1
 .byte   W96
@  #03 @081   ----------------------------------------
 .byte   Gs1
 .byte   W96
@  #03 @082   ----------------------------------------
 .byte   Fs1
 .byte   W96
@  #03 @083   ----------------------------------------
 .byte   En1
 .byte   W96
@  #03 @084   ----------------------------------------
 .byte   PATT
  .word Label_0121D7E7
@  #03 @085   ----------------------------------------
 .byte   PATT
  .word Label_0121D78E
@  #03 @086   ----------------------------------------
 .byte   PATT
  .word Label_0121D7A3
@  #03 @087   ----------------------------------------
 .byte   PATT
  .word Label_0121D78E
@  #03 @088   ----------------------------------------
 .byte   PATT
  .word Label_0121D7A3
@  #03 @089   ----------------------------------------
 .byte   PATT
  .word Label_0121D78E
@  #03 @090   ----------------------------------------
 .byte   PATT
  .word Label_0121D7A3
@  #03 @091   ----------------------------------------
 .byte   PATT
  .word Label_0121D78E
@  #03 @092   ----------------------------------------
 .byte   PATT
  .word Label_0121D7A3
@  #03 @093   ----------------------------------------
 .byte   PATT
  .word Label_0121D816
@  #03 @094   ----------------------------------------
 .byte   PATT
  .word Label_0121D816
@  #03 @095   ----------------------------------------
 .byte   PATT
  .word Label_0121D816
@  #03 @096   ----------------------------------------
 .byte   PATT
  .word Label_0121D816
@  #03 @097   ----------------------------------------
 .byte   PATT
  .word Label_0121D816
@  #03 @098   ----------------------------------------
 .byte   PATT
  .word Label_0121D816
@  #03 @099   ----------------------------------------
 .byte   PATT
  .word Label_0121D816
@  #03 @100   ----------------------------------------
 .byte   PATT
  .word Label_0121D816
@  #03 @101   ----------------------------------------
 .byte   PATT
  .word Label_0121D816
@  #03 @102   ----------------------------------------
 .byte   PATT
  .word Label_0121D816
@  #03 @103   ----------------------------------------
 .byte   PATT
  .word Label_0121D816
@  #03 @104   ----------------------------------------
 .byte   PATT
  .word Label_0121D816
@  #03 @105   ----------------------------------------
 .byte   PATT
  .word Label_0121D816
@  #03 @106   ----------------------------------------
 .byte   PATT
  .word Label_0121D816
@  #03 @107   ----------------------------------------
 .byte   PATT
  .word Label_0121D816
@  #03 @108   ----------------------------------------
 .byte   PATT
  .word Label_0121D816
@  #03 @109   ----------------------------------------
 .byte   PATT
  .word Label_0121D816
@  #03 @110   ----------------------------------------
 .byte   PATT
  .word Label_0121D816
@  #03 @111   ----------------------------------------
 .byte   PATT
  .word Label_0121D816
@  #03 @112   ----------------------------------------
 .byte   PATT
  .word Label_0121D816
@  #03 @113   ----------------------------------------
 .byte   PATT
  .word Label_0121D816
@  #03 @114   ----------------------------------------
 .byte   PATT
  .word Label_0121D816
@  #03 @115   ----------------------------------------
 .byte   PATT
  .word Label_0121D816
@  #03 @116   ----------------------------------------
 .byte   PATT
  .word Label_0121D816
@  #03 @117   ----------------------------------------
 .byte   PATT
  .word Label_0121D816
@  #03 @118   ----------------------------------------
 .byte   PATT
  .word Label_0121D816
@  #03 @119   ----------------------------------------
 .byte   PATT
  .word Label_0121D816
@  #03 @120   ----------------------------------------
 .byte   PATT
  .word Label_0121D816
@  #03 @121   ----------------------------------------
 .byte   GOTO
  .word Label_0121D8BA
@  #03 @122   ----------------------------------------
 .byte   PATT
  .word Label_0121D78E
@  #03 @123   ----------------------------------------
 .byte   PATT
  .word Label_0121D7A3
@  #03 @124   ----------------------------------------
 .byte   PATT
  .word Label_0121D78E
@  #03 @125   ----------------------------------------
 .byte   PATT
  .word Label_0121D7A3
@  #03 @126   ----------------------------------------
 .byte   PATT
  .word Label_0121D78E
@  #03 @127   ----------------------------------------
 .byte   PATT
  .word Label_0121D7A3
@  #03 @128   ----------------------------------------
 .byte   PATT
  .word Label_0121D78E
@  #03 @129   ----------------------------------------
 .byte   PATT
  .word Label_0121D7A3
@  #03 @130   ----------------------------------------
 .byte   N92 ,Gs1 ,v036
 .byte   W96
@  #03 @131   ----------------------------------------
 .byte   Fs1
 .byte   W96
@  #03 @132   ----------------------------------------
 .byte   W96
@  #03 @133   ----------------------------------------
 .byte   W96
 .byte   FINE

@**************** Track 4 (Midi-Chn.3) ****************@

song09_004:
@  #04 @000   ----------------------------------------
 .byte   KEYSH , song09_key+0
 .byte   VOICE , 21
 .byte   MODT 0
 .byte   LFOS 44
 .byte   VOL , 40*song09_mvl/mxv
 .byte   BENDR, 12
 .byte   PAN , c_v+0
 .byte   MODT 0
 .byte   LFOS 44
 .byte   W96
@  #04 @001   ----------------------------------------
 .byte   W96
@  #04 @002   ----------------------------------------
 .byte   W96
@  #04 @003   ----------------------------------------
 .byte   W96
@  #04 @004   ----------------------------------------
 .byte   W96
@  #04 @005   ----------------------------------------
 .byte   W96
@  #04 @006   ----------------------------------------
 .byte   W96
@  #04 @007   ----------------------------------------
 .byte   W96
@  #04 @008   ----------------------------------------
 .byte   W96
@  #04 @009   ----------------------------------------
 .byte   W96
@  #04 @010   ----------------------------------------
 .byte   W96
@  #04 @011   ----------------------------------------
 .byte   W96
@  #04 @012   ----------------------------------------
 .byte   W96
@  #04 @013   ----------------------------------------
 .byte   W96
@  #04 @014   ----------------------------------------
 .byte   W96
@  #04 @015   ----------------------------------------
 .byte   W96
@  #04 @016   ----------------------------------------
Label_0121CFC2:
 .byte   N05 ,Cs2 ,v036
 .byte   W12
 .byte   N05
 .byte   W12
 .byte   Bn1
 .byte   W06
 .byte   N17 ,Cs2
 .byte   W18
 .byte   N05
 .byte   W12
 .byte   N05
 .byte   W12
 .byte   Bn1
 .byte   W06
 .byte   N17 ,Cs2
 .byte   W18
 .byte   PEND 
@  #04 @017   ----------------------------------------
Label_0121CFD7:
 .byte   N05 ,En2 ,v036
 .byte   W12
 .byte   N05
 .byte   W12
 .byte   Cs2
 .byte   W06
 .byte   N17 ,En2
 .byte   W18
 .byte   N05 ,Fs2
 .byte   W12
 .byte   N05
 .byte   W12
 .byte   En2
 .byte   W06
 .byte   N17 ,Fs2
 .byte   W18
 .byte   PEND 
@  #04 @018   ----------------------------------------
 .byte   PATT
  .word Label_0121CFC2
@  #04 @019   ----------------------------------------
 .byte   PATT
  .word Label_0121CFD7
@  #04 @020   ----------------------------------------
 .byte   PATT
  .word Label_0121CFC2
@  #04 @021   ----------------------------------------
 .byte   PATT
  .word Label_0121CFD7
@  #04 @022   ----------------------------------------
 .byte   PATT
  .word Label_0121CFC2
@  #04 @023   ----------------------------------------
 .byte   PATT
  .word Label_0121CFD7
@  #04 @024   ----------------------------------------
 .byte   N92 ,Gs2 ,v036
 .byte   W96
@  #04 @025   ----------------------------------------
 .byte   Fs2
 .byte   W96
@  #04 @026   ----------------------------------------
 .byte   En2
 .byte   W96
@  #04 @027   ----------------------------------------
 .byte   Fs2
 .byte   W96
@  #04 @028   ----------------------------------------
 .byte   Gs2
 .byte   W96
@  #04 @029   ----------------------------------------
 .byte   Fs2
 .byte   W96
@  #04 @030   ----------------------------------------
 .byte   En2
 .byte   W96
@  #04 @031   ----------------------------------------
Label_0121D01B:
 .byte   N44 ,Fs2 ,v036
 .byte   W48
 .byte   Gs2
 .byte   W48
 .byte   PEND 
@  #04 @032   ----------------------------------------
 .byte   PATT
  .word Label_0121CFC2
@  #04 @033   ----------------------------------------
 .byte   PATT
  .word Label_0121CFD7
@  #04 @034   ----------------------------------------
 .byte   PATT
  .word Label_0121CFC2
@  #04 @035   ----------------------------------------
 .byte   PATT
  .word Label_0121CFD7
@  #04 @036   ----------------------------------------
 .byte   PATT
  .word Label_0121CFC2
@  #04 @037   ----------------------------------------
 .byte   PATT
  .word Label_0121CFD7
@  #04 @038   ----------------------------------------
 .byte   PATT
  .word Label_0121CFC2
@  #04 @039   ----------------------------------------
 .byte   PATT
  .word Label_0121CFD7
@  #04 @040   ----------------------------------------
Label_0121D04A:
 .byte   N11 ,Cs2 ,v036
 .byte   W12
 .byte   N05 ,Bn1
 .byte   W06
 .byte   Cs2
 .byte   W12
 .byte   N11 ,En2
 .byte   W12
 .byte   Fs2
 .byte   W12
 .byte   N05 ,En2
 .byte   W06
 .byte   N11 ,Fs2
 .byte   W12
 .byte   N05 ,Gn2
 .byte   W06
 .byte   Fs2
 .byte   W06
 .byte   N11 ,En2
 .byte   W12
 .byte   PEND 
@  #04 @041   ----------------------------------------
 .byte   PATT
  .word Label_0121D04A
@  #04 @042   ----------------------------------------
 .byte   PATT
  .word Label_0121D04A
@  #04 @043   ----------------------------------------
 .byte   PATT
  .word Label_0121D04A
@  #04 @044   ----------------------------------------
 .byte   PATT
  .word Label_0121D04A
@  #04 @045   ----------------------------------------
 .byte   PATT
  .word Label_0121D04A
@  #04 @046   ----------------------------------------
 .byte   PATT
  .word Label_0121D04A
@  #04 @047   ----------------------------------------
 .byte   PATT
  .word Label_0121D04A
@  #04 @048   ----------------------------------------
 .byte   PATT
  .word Label_0121D04A
@  #04 @049   ----------------------------------------
 .byte   PATT
  .word Label_0121D04A
@  #04 @050   ----------------------------------------
 .byte   PATT
  .word Label_0121D04A
@  #04 @051   ----------------------------------------
 .byte   PATT
  .word Label_0121D04A
@  #04 @052   ----------------------------------------
 .byte   PATT
  .word Label_0121D04A
@  #04 @053   ----------------------------------------
 .byte   PATT
  .word Label_0121D04A
@  #04 @054   ----------------------------------------
 .byte   PATT
  .word Label_0121D04A
@  #04 @055   ----------------------------------------
 .byte   PATT
  .word Label_0121D04A
@  #04 @056   ----------------------------------------
 .byte   PATT
  .word Label_0121D04A
@  #04 @057   ----------------------------------------
 .byte   PATT
  .word Label_0121D04A
@  #04 @058   ----------------------------------------
 .byte   PATT
  .word Label_0121D04A
@  #04 @059   ----------------------------------------
 .byte   PATT
  .word Label_0121D04A
@  #04 @060   ----------------------------------------
 .byte   PATT
  .word Label_0121D04A
@  #04 @061   ----------------------------------------
 .byte   PATT
  .word Label_0121D04A
@  #04 @062   ----------------------------------------
 .byte   PATT
  .word Label_0121D04A
@  #04 @063   ----------------------------------------
 .byte   PATT
  .word Label_0121D04A
@  #04 @064   ----------------------------------------
 .byte   PATT
  .word Label_0121D04A
@  #04 @065   ----------------------------------------
 .byte   PATT
  .word Label_0121D04A
@  #04 @066   ----------------------------------------
 .byte   PATT
  .word Label_0121D04A
@  #04 @067   ----------------------------------------
 .byte   PATT
  .word Label_0121D04A
@  #04 @068   ----------------------------------------
Label_0121D0EE:
@  #04 @069   ----------------------------------------
 .byte   PATT
  .word Label_0121CFC2
@  #04 @070   ----------------------------------------
 .byte   PATT
  .word Label_0121CFD7
@  #04 @071   ----------------------------------------
 .byte   PATT
  .word Label_0121CFC2
@  #04 @072   ----------------------------------------
 .byte   PATT
  .word Label_0121CFD7
@  #04 @073   ----------------------------------------
 .byte   PATT
  .word Label_0121CFC2
@  #04 @074   ----------------------------------------
 .byte   PATT
  .word Label_0121CFD7
@  #04 @075   ----------------------------------------
 .byte   PATT
  .word Label_0121CFC2
@  #04 @076   ----------------------------------------
 .byte   PATT
  .word Label_0121CFD7
@  #04 @077   ----------------------------------------
 .byte   N92 ,Gs2 ,v036
 .byte   W96
@  #04 @078   ----------------------------------------
 .byte   Fs2
 .byte   W96
@  #04 @079   ----------------------------------------
 .byte   En2
 .byte   W96
@  #04 @080   ----------------------------------------
 .byte   Fs2
 .byte   W96
@  #04 @081   ----------------------------------------
 .byte   Gs2
 .byte   W96
@  #04 @082   ----------------------------------------
 .byte   Fs2
 .byte   W96
@  #04 @083   ----------------------------------------
 .byte   En2
 .byte   W96
@  #04 @084   ----------------------------------------
 .byte   PATT
  .word Label_0121D01B
@  #04 @085   ----------------------------------------
 .byte   PATT
  .word Label_0121CFC2
@  #04 @086   ----------------------------------------
 .byte   PATT
  .word Label_0121CFD7
@  #04 @087   ----------------------------------------
 .byte   PATT
  .word Label_0121CFC2
@  #04 @088   ----------------------------------------
 .byte   PATT
  .word Label_0121CFD7
@  #04 @089   ----------------------------------------
 .byte   PATT
  .word Label_0121CFC2
@  #04 @090   ----------------------------------------
 .byte   PATT
  .word Label_0121CFD7
@  #04 @091   ----------------------------------------
 .byte   PATT
  .word Label_0121CFC2
@  #04 @092   ----------------------------------------
 .byte   PATT
  .word Label_0121CFD7
@  #04 @093   ----------------------------------------
 .byte   PATT
  .word Label_0121D04A
@  #04 @094   ----------------------------------------
 .byte   PATT
  .word Label_0121D04A
@  #04 @095   ----------------------------------------
 .byte   PATT
  .word Label_0121D04A
@  #04 @096   ----------------------------------------
 .byte   PATT
  .word Label_0121D04A
@  #04 @097   ----------------------------------------
 .byte   PATT
  .word Label_0121D04A
@  #04 @098   ----------------------------------------
 .byte   PATT
  .word Label_0121D04A
@  #04 @099   ----------------------------------------
 .byte   PATT
  .word Label_0121D04A
@  #04 @100   ----------------------------------------
 .byte   PATT
  .word Label_0121D04A
@  #04 @101   ----------------------------------------
 .byte   PATT
  .word Label_0121D04A
@  #04 @102   ----------------------------------------
 .byte   PATT
  .word Label_0121D04A
@  #04 @103   ----------------------------------------
 .byte   PATT
  .word Label_0121D04A
@  #04 @104   ----------------------------------------
 .byte   PATT
  .word Label_0121D04A
@  #04 @105   ----------------------------------------
 .byte   PATT
  .word Label_0121D04A
@  #04 @106   ----------------------------------------
 .byte   PATT
  .word Label_0121D04A
@  #04 @107   ----------------------------------------
 .byte   PATT
  .word Label_0121D04A
@  #04 @108   ----------------------------------------
 .byte   PATT
  .word Label_0121D04A
@  #04 @109   ----------------------------------------
 .byte   PATT
  .word Label_0121D04A
@  #04 @110   ----------------------------------------
 .byte   PATT
  .word Label_0121D04A
@  #04 @111   ----------------------------------------
 .byte   PATT
  .word Label_0121D04A
@  #04 @112   ----------------------------------------
 .byte   PATT
  .word Label_0121D04A
@  #04 @113   ----------------------------------------
 .byte   PATT
  .word Label_0121D04A
@  #04 @114   ----------------------------------------
 .byte   PATT
  .word Label_0121D04A
@  #04 @115   ----------------------------------------
 .byte   PATT
  .word Label_0121D04A
@  #04 @116   ----------------------------------------
 .byte   PATT
  .word Label_0121D04A
@  #04 @117   ----------------------------------------
 .byte   PATT
  .word Label_0121D04A
@  #04 @118   ----------------------------------------
 .byte   PATT
  .word Label_0121D04A
@  #04 @119   ----------------------------------------
 .byte   PATT
  .word Label_0121D04A
@  #04 @120   ----------------------------------------
 .byte   PATT
  .word Label_0121D04A
@  #04 @121   ----------------------------------------
 .byte   GOTO
  .word Label_0121D0EE
@  #04 @122   ----------------------------------------
 .byte   PATT
  .word Label_0121CFC2
@  #04 @123   ----------------------------------------
 .byte   PATT
  .word Label_0121CFD7
@  #04 @124   ----------------------------------------
 .byte   PATT
  .word Label_0121CFC2
@  #04 @125   ----------------------------------------
 .byte   PATT
  .word Label_0121CFD7
@  #04 @126   ----------------------------------------
 .byte   PATT
  .word Label_0121CFC2
@  #04 @127   ----------------------------------------
 .byte   PATT
  .word Label_0121CFD7
@  #04 @128   ----------------------------------------
 .byte   PATT
  .word Label_0121CFC2
@  #04 @129   ----------------------------------------
 .byte   PATT
  .word Label_0121CFD7
@  #04 @130   ----------------------------------------
 .byte   N92 ,Gs2 ,v036
 .byte   W96
@  #04 @131   ----------------------------------------
 .byte   Fs2
 .byte   W96
@  #04 @132   ----------------------------------------
 .byte   W96
@  #04 @133   ----------------------------------------
 .byte   W96
 .byte   FINE

@**************** Track 5 (Midi-Chn.4) ****************@

song09_005:
@  #05 @000   ----------------------------------------
 .byte   KEYSH , song09_key+0
 .byte   VOICE , 50
 .byte   MODT 0
 .byte   LFOS 44
 .byte   VOL , 15*song09_mvl/mxv
 .byte   BENDR, 12
 .byte   PAN , c_v+0
 .byte   MODT 0
 .byte   LFOS 44
 .byte   W96
@  #05 @001   ----------------------------------------
 .byte   W96
@  #05 @002   ----------------------------------------
 .byte   W96
@  #05 @003   ----------------------------------------
 .byte   W96
@  #05 @004   ----------------------------------------
Label_013C1912:
 .byte   PAN , c_v-62
 .byte   BEND , c_v-49
 .byte   N92 ,Fs5 ,v088
 .byte   N92 ,Fs6
 .byte   W01
 .byte   BEND , c_v-46
 .byte   W01
 .byte   BEND , c_v-41
 .byte   W01
 .byte   BEND , c_v-33
 .byte   W01
 .byte   BEND , c_v-23
 .byte   W01
 .byte   BEND , c_v-10
 .byte   W01
 .byte   BEND , c_v+0
 .byte   W02
 .byte   PAN , c_v-61
 .byte   W04
 .byte   PAN , c_v-60
 .byte   W03
 .byte   PAN , c_v-59
 .byte   W02
 .byte   PAN , c_v-58
 .byte   W02
 .byte   PAN , c_v-57
 .byte   W02
 .byte   PAN , c_v-56
 .byte   W02
 .byte   PAN , c_v-55
 .byte   W01
 .byte   PAN , c_v-54
 .byte   W02
 .byte   PAN , c_v-53
 .byte   W01
 .byte   PAN , c_v-52
 .byte   W02
 .byte   PAN , c_v-51
 .byte   W01
 .byte   PAN , c_v-50
 .byte   W01
 .byte   PAN , c_v-49
 .byte   W01
 .byte   PAN , c_v-48
 .byte   W01
 .byte   PAN , c_v-47
 .byte   W01
 .byte   PAN , c_v-46
 .byte   W01
 .byte   PAN , c_v-45
 .byte   W02
 .byte   PAN , c_v-44
 .byte   W01
 .byte   PAN , c_v-43
 .byte   W01
 .byte   PAN , c_v-41
 .byte   W01
 .byte   PAN , c_v-40
 .byte   W01
 .byte   PAN , c_v-39
 .byte   W01
 .byte   PAN , c_v-38
 .byte   W01
 .byte   PAN , c_v-37
 .byte   W01
 .byte   PAN , c_v-36
 .byte   W01
 .byte   PAN , c_v-35
 .byte   W01
 .byte   PAN , c_v-34
 .byte   W01
 .byte   PAN , c_v-31
 .byte   W01
 .byte   PAN , c_v-30
 .byte   W01
 .byte   PAN , c_v-29
 .byte   W01
 .byte   PAN , c_v-28
 .byte   W01
 .byte   PAN , c_v-27
 .byte   W01
 .byte   PAN , c_v-25
 .byte   W01
 .byte   PAN , c_v-24
 .byte   W01
 .byte   PAN , c_v-23
 .byte   W01
 .byte   PAN , c_v-20
 .byte   W01
 .byte   PAN , c_v-19
 .byte   W01
 .byte   PAN , c_v-17
 .byte   W01
 .byte   PAN , c_v-16
 .byte   W01
 .byte   PAN , c_v-15
 .byte   W01
 .byte   PAN , c_v-13
 .byte   W01
 .byte   PAN , c_v-12
 .byte   W01
 .byte   PAN , c_v-9
 .byte   W01
 .byte   PAN , c_v-7
 .byte   W01
 .byte   PAN , c_v-6
 .byte   W01
 .byte   PAN , c_v-4
 .byte   W01
 .byte   PAN , c_v-3
 .byte   BEND , c_v-1
 .byte   W01
 .byte   PAN , c_v-1
 .byte   BEND , c_v-1
 .byte   W01
 .byte   PAN , c_v+1
 .byte   BEND , c_v-1
 .byte   W01
 .byte   PAN , c_v+2
 .byte   BEND , c_v-2
 .byte   W01
 .byte   PAN , c_v+6
 .byte   BEND , c_v-3
 .byte   W01
 .byte   PAN , c_v+7
 .byte   BEND , c_v-4
 .byte   W01
 .byte   PAN , c_v+9
 .byte   BEND , c_v-5
 .byte   W01
 .byte   PAN , c_v+11
 .byte   BEND , c_v-5
 .byte   W01
 .byte   PAN , c_v+13
 .byte   BEND , c_v-7
 .byte   W01
 .byte   PAN , c_v+15
 .byte   BEND , c_v-9
 .byte   W01
 .byte   PAN , c_v+16
 .byte   BEND , c_v-11
 .byte   W01
 .byte   PAN , c_v+18
 .byte   BEND , c_v-13
 .byte   W01
 .byte   PAN , c_v+22
 .byte   BEND , c_v-15
 .byte   W01
 .byte   PAN , c_v+24
 .byte   BEND , c_v-17
 .byte   W01
 .byte   PAN , c_v+26
 .byte   BEND , c_v-20
 .byte   W01
 .byte   PAN , c_v+28
 .byte   BEND , c_v-23
 .byte   W01
 .byte   PAN , c_v+30
 .byte   BEND , c_v-24
 .byte   W01
 .byte   PAN , c_v+32
 .byte   BEND , c_v-28
 .byte   W01
 .byte   PAN , c_v+34
 .byte   BEND , c_v-31
 .byte   W01
 .byte   PAN , c_v+36
 .byte   BEND , c_v-35
 .byte   W01
 .byte   PAN , c_v+40
 .byte   BEND , c_v-38
 .byte   W01
 .byte   PAN , c_v+42
 .byte   BEND , c_v-42
 .byte   W01
 .byte   PAN , c_v+44
 .byte   BEND , c_v-46
 .byte   W01
 .byte   PAN , c_v+46
 .byte   BEND , c_v-51
 .byte   W01
 .byte   PAN , c_v+48
 .byte   BEND , c_v-53
 .byte   W01
 .byte   PAN , c_v+51
 .byte   BEND , c_v-58
 .byte   W01
 .byte   PAN , c_v+53
 .byte   BEND , c_v-63
 .byte   W01
 .byte   PAN , c_v+55
 .byte   BEND , c_v-64
 .byte   W01
 .byte   PAN , c_v+60
 .byte   W01
 .byte   PAN , c_v+62
 .byte   W01
 .byte   PEND 
@  #05 @005   ----------------------------------------
 .byte   Gn8
 .byte   W96
@  #05 @006   ----------------------------------------
Label_013C1A19:
 .byte   PAN , c_v+62
 .byte   BEND , c_v-49
 .byte   N92 ,Fs5 ,v088
 .byte   N92 ,Fs6
 .byte   W01
 .byte   BEND , c_v-46
 .byte   W01
 .byte   BEND , c_v-41
 .byte   W01
 .byte   BEND , c_v-33
 .byte   W01
 .byte   BEND , c_v-23
 .byte   W01
 .byte   BEND , c_v-11
 .byte   W01
 .byte   BEND , c_v+0
 .byte   W02
 .byte   PAN , c_v+61
 .byte   W04
 .byte   PAN , c_v+60
 .byte   W03
 .byte   PAN , c_v+59
 .byte   W02
 .byte   PAN , c_v+58
 .byte   W02
 .byte   PAN , c_v+57
 .byte   W02
 .byte   PAN , c_v+56
 .byte   W02
 .byte   PAN , c_v+55
 .byte   W01
 .byte   PAN , c_v+54
 .byte   W01
 .byte   PAN , c_v+53
 .byte   W02
 .byte   PAN , c_v+52
 .byte   W01
 .byte   PAN , c_v+51
 .byte   W02
 .byte   PAN , c_v+50
 .byte   W01
 .byte   PAN , c_v+48
 .byte   W02
 .byte   PAN , c_v+47
 .byte   W01
 .byte   PAN , c_v+46
 .byte   W01
 .byte   PAN , c_v+45
 .byte   W01
 .byte   PAN , c_v+44
 .byte   W01
 .byte   PAN , c_v+43
 .byte   W02
 .byte   PAN , c_v+41
 .byte   W01
 .byte   PAN , c_v+40
 .byte   W01
 .byte   PAN , c_v+39
 .byte   W01
 .byte   PAN , c_v+38
 .byte   W01
 .byte   PAN , c_v+36
 .byte   W01
 .byte   PAN , c_v+35
 .byte   W01
 .byte   PAN , c_v+34
 .byte   W01
 .byte   PAN , c_v+33
 .byte   W01
 .byte   PAN , c_v+31
 .byte   W01
 .byte   PAN , c_v+30
 .byte   W01
 .byte   PAN , c_v+29
 .byte   W01
 .byte   PAN , c_v+27
 .byte   W01
 .byte   PAN , c_v+26
 .byte   W01
 .byte   PAN , c_v+25
 .byte   W01
 .byte   PAN , c_v+24
 .byte   W01
 .byte   PAN , c_v+21
 .byte   W01
 .byte   PAN , c_v+20
 .byte   W01
 .byte   PAN , c_v+18
 .byte   W01
 .byte   PAN , c_v+17
 .byte   W01
 .byte   PAN , c_v+15
 .byte   W01
 .byte   PAN , c_v+14
 .byte   W01
 .byte   PAN , c_v+12
 .byte   W01
 .byte   PAN , c_v+11
 .byte   W01
 .byte   PAN , c_v+8
 .byte   W01
 .byte   PAN , c_v+6
 .byte   W01
 .byte   PAN , c_v+5
 .byte   W01
 .byte   PAN , c_v+3
 .byte   W01
 .byte   PAN , c_v+2
 .byte   BEND , c_v-1
 .byte   W01
 .byte   PAN , c_v+0
 .byte   BEND , c_v-1
 .byte   W01
 .byte   PAN , c_v-2
 .byte   BEND , c_v-1
 .byte   W01
 .byte   PAN , c_v-3
 .byte   BEND , c_v-2
 .byte   W01
 .byte   PAN , c_v-7
 .byte   BEND , c_v-3
 .byte   W01
 .byte   PAN , c_v-8
 .byte   BEND , c_v-4
 .byte   W01
 .byte   PAN , c_v-10
 .byte   BEND , c_v-5
 .byte   W01
 .byte   PAN , c_v-12
 .byte   BEND , c_v-5
 .byte   W01
 .byte   PAN , c_v-14
 .byte   BEND , c_v-7
 .byte   W01
 .byte   PAN , c_v-16
 .byte   BEND , c_v-9
 .byte   W01
 .byte   PAN , c_v-18
 .byte   BEND , c_v-11
 .byte   W01
 .byte   PAN , c_v-19
 .byte   BEND , c_v-13
 .byte   W01
 .byte   PAN , c_v-23
 .byte   BEND , c_v-15
 .byte   W01
 .byte   PAN , c_v-25
 .byte   BEND , c_v-17
 .byte   W01
 .byte   PAN , c_v-27
 .byte   BEND , c_v-20
 .byte   W01
 .byte   PAN , c_v-29
 .byte   BEND , c_v-23
 .byte   W01
 .byte   PAN , c_v-31
 .byte   BEND , c_v-24
 .byte   W01
 .byte   PAN , c_v-33
 .byte   BEND , c_v-28
 .byte   W01
 .byte   PAN , c_v-35
 .byte   BEND , c_v-31
 .byte   W01
 .byte   PAN , c_v-37
 .byte   BEND , c_v-35
 .byte   W01
 .byte   PAN , c_v-41
 .byte   BEND , c_v-38
 .byte   W01
 .byte   PAN , c_v-43
 .byte   BEND , c_v-42
 .byte   W01
 .byte   PAN , c_v-46
 .byte   BEND , c_v-46
 .byte   W01
 .byte   PAN , c_v-48
 .byte   BEND , c_v-51
 .byte   W01
 .byte   PAN , c_v-50
 .byte   BEND , c_v-53
 .byte   W01
 .byte   PAN , c_v-52
 .byte   BEND , c_v-58
 .byte   W01
 .byte   PAN , c_v-55
 .byte   BEND , c_v-63
 .byte   W01
 .byte   PAN , c_v-57
 .byte   BEND , c_v-64
 .byte   W01
 .byte   PAN , c_v-61
 .byte   W01
 .byte   PAN , c_v-64
 .byte   W01
 .byte   PEND 
@  #05 @007   ----------------------------------------
 .byte   W96
@  #05 @008   ----------------------------------------
 .byte   PATT
  .word Label_013C1912
@  #05 @009   ----------------------------------------
 .byte   PAN , c_v+63
 .byte   W96
@  #05 @010   ----------------------------------------
 .byte   PATT
  .word Label_013C1A19
@  #05 @011   ----------------------------------------
 .byte   W96
@  #05 @012   ----------------------------------------
 .byte   PATT
  .word Label_013C1912
@  #05 @013   ----------------------------------------
 .byte   PAN , c_v+63
 .byte   W96
@  #05 @014   ----------------------------------------
 .byte   PATT
  .word Label_013C1A19
@  #05 @015   ----------------------------------------
 .byte   W96
@  #05 @016   ----------------------------------------
 .byte   PATT
  .word Label_013C1912
@  #05 @017   ----------------------------------------
 .byte   PAN , c_v+63
 .byte   W96
@  #05 @018   ----------------------------------------
 .byte   PATT
  .word Label_013C1A19
@  #05 @019   ----------------------------------------
 .byte   W96
@  #05 @020   ----------------------------------------
 .byte   PATT
  .word Label_013C1912
@  #05 @021   ----------------------------------------
 .byte   PAN , c_v+63
 .byte   W96
@  #05 @022   ----------------------------------------
 .byte   PATT
  .word Label_013C1A19
@  #05 @023   ----------------------------------------
Label_013C1B54:
 .byte   W92
 .byte   W01
 .byte   VOICE , 42
 .byte   BEND , c_v+0
 .byte   W03
 .byte   PEND 
@  #05 @024   ----------------------------------------
Label_013C1B5C:
 .byte   TIE ,Cs6 ,v088
 .byte   W90
 .byte   BEND , c_v+0
 .byte   W01
 .byte   BEND , c_v-2
 .byte   W01
 .byte   BEND , c_v-4
 .byte   W01
 .byte   BEND , c_v-5
 .byte   W01
 .byte   BEND , c_v-7
 .byte   W01
 .byte   BEND , c_v-10
 .byte   W01
 .byte   PEND 
@  #05 @025   ----------------------------------------
Label_013C1B6E:
 .byte   W90
 .byte   BEND , c_v-10
 .byte   W01
 .byte   BEND , c_v-12
 .byte   W01
 .byte   BEND , c_v-14
 .byte   W01
 .byte   BEND , c_v-15
 .byte   W01
 .byte   BEND , c_v-17
 .byte   W01
 .byte   BEND , c_v-20
 .byte   W01
 .byte   PEND 
@  #05 @026   ----------------------------------------
Label_013C1B7D:
 .byte   W90
 .byte   BEND , c_v-20
 .byte   W01
 .byte   BEND , c_v-19
 .byte   W01
 .byte   BEND , c_v-17
 .byte   W01
 .byte   BEND , c_v-16
 .byte   W01
 .byte   BEND , c_v-14
 .byte   W01
 .byte   BEND , c_v-10
 .byte   W01
 .byte   PEND 
@  #05 @027   ----------------------------------------
 .byte   W92
 .byte   W03
 .byte   EOT
 .byte   Cs6
 .byte   W01
@  #05 @028   ----------------------------------------
Label_013C1B91:
 .byte   BEND , c_v+0
 .byte   TIE ,Cs6 ,v088
 .byte   W84
 .byte   W03
 .byte   BEND , c_v-1
 .byte   W01
 .byte   BEND , c_v-2
 .byte   W01
 .byte   BEND , c_v-3
 .byte   W01
 .byte   BEND , c_v-4
 .byte   W01
 .byte   BEND , c_v-5
 .byte   W01
 .byte   BEND , c_v-6
 .byte   W01
 .byte   BEND , c_v-7
 .byte   W01
 .byte   BEND , c_v-8
 .byte   W01
 .byte   BEND , c_v-10
 .byte   W01
 .byte   PEND 
@  #05 @029   ----------------------------------------
Label_013C1BAC:
 .byte   W84
 .byte   W03
 .byte   BEND , c_v-11
 .byte   W01
 .byte   BEND , c_v-12
 .byte   W01
 .byte   BEND , c_v-13
 .byte   W01
 .byte   BEND , c_v-14
 .byte   W01
 .byte   BEND , c_v-15
 .byte   W01
 .byte   BEND , c_v-16
 .byte   W01
 .byte   BEND , c_v-17
 .byte   W01
 .byte   BEND , c_v-18
 .byte   W01
 .byte   BEND , c_v-20
 .byte   W01
 .byte   PEND 
@  #05 @030   ----------------------------------------
Label_013C1BC2:
 .byte   W84
 .byte   W03
 .byte   BEND , c_v-20
 .byte   W01
 .byte   BEND , c_v-19
 .byte   W01
 .byte   BEND , c_v-18
 .byte   W01
 .byte   BEND , c_v-17
 .byte   W01
 .byte   BEND , c_v-16
 .byte   W01
 .byte   BEND , c_v-15
 .byte   W01
 .byte   BEND , c_v-14
 .byte   W01
 .byte   BEND , c_v-13
 .byte   W01
 .byte   BEND , c_v-10
 .byte   W01
 .byte   PEND 
@  #05 @031   ----------------------------------------
Label_013C1BD8:
 .byte   W36
 .byte   W03
 .byte   BEND , c_v-10
 .byte   W01
 .byte   BEND , c_v-9
 .byte   W01
 .byte   BEND , c_v-8
 .byte   W01
 .byte   BEND , c_v-7
 .byte   W01
 .byte   BEND , c_v-6
 .byte   W01
 .byte   BEND , c_v-5
 .byte   W01
 .byte   BEND , c_v-4
 .byte   W01
 .byte   BEND , c_v-3
 .byte   W01
 .byte   BEND , c_v+0
 .byte   W48
 .byte   PEND 
 .byte   EOT
 .byte   Cs6
 .byte   W01
@  #05 @032   ----------------------------------------
 .byte   PATT
  .word Label_013C1912
@  #05 @033   ----------------------------------------
 .byte   PAN , c_v+63
 .byte   W96
@  #05 @034   ----------------------------------------
 .byte   PATT
  .word Label_013C1A19
@  #05 @035   ----------------------------------------
 .byte   W96
@  #05 @036   ----------------------------------------
 .byte   PATT
  .word Label_013C1912
@  #05 @037   ----------------------------------------
 .byte   PAN , c_v+63
 .byte   W96
@  #05 @038   ----------------------------------------
 .byte   PATT
  .word Label_013C1A19
@  #05 @039   ----------------------------------------
 .byte   W96
@  #05 @040   ----------------------------------------
 .byte   W96
@  #05 @041   ----------------------------------------
 .byte   W96
@  #05 @042   ----------------------------------------
 .byte   W96
@  #05 @043   ----------------------------------------
 .byte   PATT
  .word Label_013C1B54
@  #05 @044   ----------------------------------------
 .byte   PATT
  .word Label_013C1B5C
@  #05 @045   ----------------------------------------
 .byte   PATT
  .word Label_013C1B6E
@  #05 @046   ----------------------------------------
 .byte   PATT
  .word Label_013C1B7D
@  #05 @047   ----------------------------------------
Label_013C1C24:
 .byte   W92
 .byte   W01
 .byte   VOICE , 42
 .byte   BEND , c_v+0
 .byte   W02
 .byte   PEND 
 .byte   EOT
 .byte   Cs6
 .byte   W01
@  #05 @048   ----------------------------------------
 .byte   PATT
  .word Label_013C1B5C
@  #05 @049   ----------------------------------------
 .byte   PATT
  .word Label_013C1B6E
@  #05 @050   ----------------------------------------
 .byte   PATT
  .word Label_013C1B7D
@  #05 @051   ----------------------------------------
 .byte   PATT
  .word Label_013C1C24
@  #05 @052   ----------------------------------------
 .byte   EOT
 .byte   Cs6
 .byte   W01
@  #05 @053   ----------------------------------------
 .byte   PATT
  .word Label_013C1B5C
@  #05 @054   ----------------------------------------
 .byte   PATT
  .word Label_013C1B6E
@  #05 @055   ----------------------------------------
 .byte   PATT
  .word Label_013C1B7D
@  #05 @056   ----------------------------------------
 .byte   PATT
  .word Label_013C1C24
@  #05 @057   ----------------------------------------
 .byte   EOT
 .byte   Cs6
 .byte   W01
@  #05 @058   ----------------------------------------
 .byte   PATT
  .word Label_013C1B5C
@  #05 @059   ----------------------------------------
 .byte   PATT
  .word Label_013C1B6E
@  #05 @060   ----------------------------------------
 .byte   PATT
  .word Label_013C1B7D
@  #05 @061   ----------------------------------------
 .byte   PATT
  .word Label_013C1C24
@  #05 @062   ----------------------------------------
 .byte   EOT
 .byte   Cs6
 .byte   W01
@  #05 @063   ----------------------------------------
 .byte   PATT
  .word Label_013C1B5C
@  #05 @064   ----------------------------------------
 .byte   PATT
  .word Label_013C1B6E
@  #05 @065   ----------------------------------------
 .byte   PATT
  .word Label_013C1B7D
@  #05 @066   ----------------------------------------
 .byte   PATT
  .word Label_013C1C24
@  #05 @067   ----------------------------------------
 .byte   EOT
 .byte   Cs6
 .byte   W01
@  #05 @068   ----------------------------------------
 .byte   PATT
  .word Label_013C1B5C
@  #05 @069   ----------------------------------------
 .byte   PATT
  .word Label_013C1B6E
@  #05 @070   ----------------------------------------
 .byte   PATT
  .word Label_013C1B7D
@  #05 @071   ----------------------------------------
 .byte   W11
 .byte   EOT
 .byte   Cs6
 .byte   W01
 .byte   BEND , c_v-62
 .byte   N80 ,Cs6 ,v088
 .byte   W01
 .byte   BEND , c_v-61
 .byte   W01
 .byte   BEND , c_v-61
 .byte   W01
 .byte   BEND , c_v-56
 .byte   W01
 .byte   BEND , c_v-55
 .byte   W01
 .byte   BEND , c_v-55
 .byte   W01
 .byte   BEND , c_v-54
 .byte   W01
 .byte   BEND , c_v-53
 .byte   W01
 .byte   BEND , c_v-56
 .byte   W01
 .byte   BEND , c_v-52
 .byte   W01
 .byte   BEND , c_v-51
 .byte   W01
 .byte   BEND , c_v-50
 .byte   W01
 .byte   BEND , c_v-50
 .byte   W01
 .byte   BEND , c_v-49
 .byte   W01
 .byte   BEND , c_v-48
 .byte   W01
 .byte   BEND , c_v-48
 .byte   W01
 .byte   BEND , c_v-47
 .byte   W01
 .byte   BEND , c_v-47
 .byte   W01
 .byte   BEND , c_v-45
 .byte   W01
 .byte   BEND , c_v-45
 .byte   W01
 .byte   BEND , c_v-44
 .byte   W01
 .byte   BEND , c_v-43
 .byte   W01
 .byte   BEND , c_v-43
 .byte   W01
 .byte   BEND , c_v-42
 .byte   W01
 .byte   BEND , c_v-42
 .byte   W01
 .byte   BEND , c_v-41
 .byte   W01
 .byte   BEND , c_v-40
 .byte   W01
 .byte   BEND , c_v-39
 .byte   W01
 .byte   BEND , c_v-39
 .byte   W01
 .byte   BEND , c_v-38
 .byte   W01
 .byte   BEND , c_v-37
 .byte   W01
 .byte   BEND , c_v-37
 .byte   W01
 .byte   BEND , c_v-36
 .byte   W01
 .byte   BEND , c_v-36
 .byte   W01
 .byte   BEND , c_v-34
 .byte   W01
 .byte   BEND , c_v-34
 .byte   W01
 .byte   BEND , c_v-33
 .byte   W01
 .byte   BEND , c_v-32
 .byte   W01
 .byte   BEND , c_v-32
 .byte   W01
 .byte   BEND , c_v-31
 .byte   W01
 .byte   BEND , c_v-31
 .byte   W01
 .byte   BEND , c_v-30
 .byte   W01
 .byte   BEND , c_v-29
 .byte   W01
 .byte   BEND , c_v-28
 .byte   W01
 .byte   BEND , c_v-28
 .byte   W01
 .byte   BEND , c_v-27
 .byte   W01
 .byte   BEND , c_v-26
 .byte   W01
 .byte   BEND , c_v-26
 .byte   W01
 .byte   BEND , c_v-25
 .byte   W01
 .byte   BEND , c_v-24
 .byte   W01
 .byte   BEND , c_v-24
 .byte   W01
 .byte   BEND , c_v-23
 .byte   W01
 .byte   BEND , c_v-22
 .byte   W01
 .byte   BEND , c_v-21
 .byte   W01
 .byte   BEND , c_v-21
 .byte   W01
 .byte   BEND , c_v-20
 .byte   W01
 .byte   BEND , c_v-20
 .byte   W01
 .byte   BEND , c_v-19
 .byte   W01
 .byte   BEND , c_v-18
 .byte   W01
 .byte   BEND , c_v-17
 .byte   W01
 .byte   BEND , c_v-17
 .byte   W01
 .byte   BEND , c_v-16
 .byte   W01
 .byte   BEND , c_v-15
 .byte   W01
 .byte   BEND , c_v-15
 .byte   W01
 .byte   BEND , c_v-14
 .byte   W01
 .byte   BEND , c_v-13
 .byte   W01
 .byte   BEND , c_v-13
 .byte   W01
 .byte   BEND , c_v-12
 .byte   W01
 .byte   BEND , c_v-11
 .byte   W01
 .byte   BEND , c_v-10
 .byte   W01
 .byte   BEND , c_v-10
 .byte   W01
 .byte   BEND , c_v-9
 .byte   W01
 .byte   BEND , c_v-9
 .byte   W01
 .byte   BEND , c_v-8
 .byte   W01
 .byte   BEND , c_v-7
 .byte   W01
 .byte   BEND , c_v-6
 .byte   W01
 .byte   BEND , c_v-5
 .byte   W01
 .byte   BEND , c_v-5
 .byte   W01
 .byte   BEND , c_v-4
 .byte   W01
 .byte   BEND , c_v-4
 .byte   W01
 .byte   BEND , c_v-3
 .byte   W01
 .byte   BEND , c_v-2
 .byte   W01
 .byte   BEND , c_v-2
 .byte   W01
 .byte   BEND , c_v+0
 .byte   W01
@  #05 @072   ----------------------------------------
Label_013C1D4B:
 .byte   VOICE , 50
 .byte   PAN , c_v-62
 .byte   BEND , c_v-49
 .byte   N92 ,Fs5 ,v088
 .byte   N92 ,Fs6
 .byte   W01
 .byte   BEND , c_v-46
 .byte   W01
 .byte   BEND , c_v-41
 .byte   W01
 .byte   BEND , c_v-33
 .byte   W01
 .byte   BEND , c_v-23
 .byte   W01
 .byte   BEND , c_v-10
 .byte   W01
 .byte   BEND , c_v+0
 .byte   W02
 .byte   PAN , c_v-61
 .byte   W04
 .byte   PAN , c_v-60
 .byte   W03
 .byte   PAN , c_v-59
 .byte   W02
 .byte   PAN , c_v-58
 .byte   W02
 .byte   PAN , c_v-57
 .byte   W02
 .byte   PAN , c_v-56
 .byte   W02
 .byte   PAN , c_v-55
 .byte   W01
 .byte   PAN , c_v-54
 .byte   W02
 .byte   PAN , c_v-53
 .byte   W01
 .byte   PAN , c_v-52
 .byte   W02
 .byte   PAN , c_v-51
 .byte   W01
 .byte   PAN , c_v-50
 .byte   W01
 .byte   PAN , c_v-49
 .byte   W01
 .byte   PAN , c_v-48
 .byte   W01
 .byte   PAN , c_v-47
 .byte   W01
 .byte   PAN , c_v-46
 .byte   W01
 .byte   PAN , c_v-45
 .byte   W02
 .byte   PAN , c_v-44
 .byte   W01
 .byte   PAN , c_v-43
 .byte   W01
 .byte   PAN , c_v-41
 .byte   W01
 .byte   PAN , c_v-40
 .byte   W01
 .byte   PAN , c_v-39
 .byte   W01
 .byte   PAN , c_v-38
 .byte   W01
 .byte   PAN , c_v-37
 .byte   W01
 .byte   PAN , c_v-36
 .byte   W01
 .byte   PAN , c_v-35
 .byte   W01
 .byte   PAN , c_v-34
 .byte   W01
 .byte   PAN , c_v-31
 .byte   W01
 .byte   PAN , c_v-30
 .byte   W01
 .byte   PAN , c_v-29
 .byte   W01
 .byte   PAN , c_v-28
 .byte   W01
 .byte   PAN , c_v-27
 .byte   W01
 .byte   PAN , c_v-25
 .byte   W01
 .byte   PAN , c_v-24
 .byte   W01
 .byte   PAN , c_v-23
 .byte   W01
 .byte   PAN , c_v-20
 .byte   W01
 .byte   PAN , c_v-19
 .byte   W01
 .byte   PAN , c_v-17
 .byte   W01
 .byte   PAN , c_v-16
 .byte   W01
 .byte   PAN , c_v-15
 .byte   W01
 .byte   PAN , c_v-13
 .byte   W01
 .byte   PAN , c_v-12
 .byte   W01
 .byte   PAN , c_v-9
 .byte   W01
 .byte   PAN , c_v-7
 .byte   W01
 .byte   PAN , c_v-6
 .byte   W01
 .byte   PAN , c_v-4
 .byte   W01
 .byte   PAN , c_v-3
 .byte   BEND , c_v-1
 .byte   W01
 .byte   PAN , c_v-1
 .byte   BEND , c_v-1
 .byte   W01
 .byte   PAN , c_v+1
 .byte   BEND , c_v-1
 .byte   W01
 .byte   PAN , c_v+2
 .byte   BEND , c_v-2
 .byte   W01
 .byte   PAN , c_v+6
 .byte   BEND , c_v-3
 .byte   W01
 .byte   PAN , c_v+7
 .byte   BEND , c_v-4
 .byte   W01
 .byte   PAN , c_v+9
 .byte   BEND , c_v-5
 .byte   W01
 .byte   PAN , c_v+11
 .byte   BEND , c_v-5
 .byte   W01
 .byte   PAN , c_v+13
 .byte   BEND , c_v-7
 .byte   W01
 .byte   PAN , c_v+15
 .byte   BEND , c_v-9
 .byte   W01
 .byte   PAN , c_v+16
 .byte   BEND , c_v-11
 .byte   W01
 .byte   PAN , c_v+18
 .byte   BEND , c_v-13
 .byte   W01
 .byte   PAN , c_v+22
 .byte   BEND , c_v-15
 .byte   W01
 .byte   PAN , c_v+24
 .byte   BEND , c_v-17
 .byte   W01
 .byte   PAN , c_v+26
 .byte   BEND , c_v-20
 .byte   W01
 .byte   PAN , c_v+28
 .byte   BEND , c_v-23
 .byte   W01
 .byte   PAN , c_v+30
 .byte   BEND , c_v-24
 .byte   W01
 .byte   PAN , c_v+32
 .byte   BEND , c_v-28
 .byte   W01
 .byte   PAN , c_v+34
 .byte   BEND , c_v-31
 .byte   W01
 .byte   PAN , c_v+36
 .byte   BEND , c_v-35
 .byte   W01
 .byte   PAN , c_v+40
 .byte   BEND , c_v-38
 .byte   W01
 .byte   PAN , c_v+42
 .byte   BEND , c_v-42
 .byte   W01
 .byte   PAN , c_v+44
 .byte   BEND , c_v-46
 .byte   W01
 .byte   PAN , c_v+46
 .byte   BEND , c_v-51
 .byte   W01
 .byte   PAN , c_v+48
 .byte   BEND , c_v-53
 .byte   W01
 .byte   PAN , c_v+51
 .byte   BEND , c_v-58
 .byte   W01
 .byte   PAN , c_v+53
 .byte   BEND , c_v-63
 .byte   W01
 .byte   PAN , c_v+55
 .byte   BEND , c_v-64
 .byte   W01
 .byte   PAN , c_v+60
 .byte   W01
 .byte   PAN , c_v+62
 .byte   W01
 .byte   PEND 
@  #05 @073   ----------------------------------------
 .byte   Gn8
 .byte   W96
@  #05 @074   ----------------------------------------
 .byte   PATT
  .word Label_013C1A19
@  #05 @075   ----------------------------------------
 .byte   W96
@  #05 @076   ----------------------------------------
 .byte   PATT
  .word Label_013C1912
@  #05 @077   ----------------------------------------
 .byte   PAN , c_v+63
 .byte   W96
@  #05 @078   ----------------------------------------
 .byte   PATT
  .word Label_013C1A19
@  #05 @079   ----------------------------------------
 .byte   PATT
  .word Label_013C1B54
@  #05 @080   ----------------------------------------
 .byte   PATT
  .word Label_013C1B5C
@  #05 @081   ----------------------------------------
 .byte   PATT
  .word Label_013C1B6E
@  #05 @082   ----------------------------------------
 .byte   PATT
  .word Label_013C1B7D
@  #05 @083   ----------------------------------------
 .byte   W92
 .byte   W03
 .byte   EOT
 .byte   Cs6
 .byte   W01
@  #05 @084   ----------------------------------------
 .byte   PATT
  .word Label_013C1B91
@  #05 @085   ----------------------------------------
 .byte   PATT
  .word Label_013C1BAC
@  #05 @086   ----------------------------------------
 .byte   PATT
  .word Label_013C1BC2
@  #05 @087   ----------------------------------------
 .byte   PATT
  .word Label_013C1BD8
@  #05 @088   ----------------------------------------
 .byte   EOT
 .byte   Cs6
 .byte   W01
@  #05 @089   ----------------------------------------
 .byte   PATT
  .word Label_013C1912
@  #05 @090   ----------------------------------------
 .byte   PAN , c_v+63
 .byte   W96
@  #05 @091   ----------------------------------------
 .byte   PATT
  .word Label_013C1A19
@  #05 @092   ----------------------------------------
 .byte   W96
@  #05 @093   ----------------------------------------
 .byte   PATT
  .word Label_013C1912
@  #05 @094   ----------------------------------------
 .byte   PAN , c_v+63
 .byte   W96
@  #05 @095   ----------------------------------------
 .byte   PATT
  .word Label_013C1A19
@  #05 @096   ----------------------------------------
 .byte   W96
@  #05 @097   ----------------------------------------
 .byte   W96
@  #05 @098   ----------------------------------------
 .byte   W96
@  #05 @099   ----------------------------------------
 .byte   W96
@  #05 @100   ----------------------------------------
 .byte   PATT
  .word Label_013C1B54
@  #05 @101   ----------------------------------------
 .byte   PATT
  .word Label_013C1B5C
@  #05 @102   ----------------------------------------
 .byte   PATT
  .word Label_013C1B6E
@  #05 @103   ----------------------------------------
 .byte   PATT
  .word Label_013C1B7D
@  #05 @104   ----------------------------------------
 .byte   PATT
  .word Label_013C1C24
@  #05 @105   ----------------------------------------
 .byte   EOT
 .byte   Cs6
 .byte   W01
@  #05 @106   ----------------------------------------
 .byte   PATT
  .word Label_013C1B5C
@  #05 @107   ----------------------------------------
 .byte   PATT
  .word Label_013C1B6E
@  #05 @108   ----------------------------------------
 .byte   PATT
  .word Label_013C1B7D
@  #05 @109   ----------------------------------------
 .byte   PATT
  .word Label_013C1C24
@  #05 @110   ----------------------------------------
 .byte   EOT
 .byte   Cs6
 .byte   W01
@  #05 @111   ----------------------------------------
 .byte   PATT
  .word Label_013C1B5C
@  #05 @112   ----------------------------------------
 .byte   PATT
  .word Label_013C1B6E
@  #05 @113   ----------------------------------------
 .byte   PATT
  .word Label_013C1B7D
@  #05 @114   ----------------------------------------
 .byte   PATT
  .word Label_013C1C24
@  #05 @115   ----------------------------------------
 .byte   EOT
 .byte   Cs6
 .byte   W01
@  #05 @116   ----------------------------------------
 .byte   PATT
  .word Label_013C1B5C
@  #05 @117   ----------------------------------------
 .byte   PATT
  .word Label_013C1B6E
@  #05 @118   ----------------------------------------
 .byte   PATT
  .word Label_013C1B7D
@  #05 @119   ----------------------------------------
 .byte   PATT
  .word Label_013C1C24
@  #05 @120   ----------------------------------------
 .byte   EOT
 .byte   Cs6
 .byte   W01
@  #05 @121   ----------------------------------------
 .byte   PATT
  .word Label_013C1B5C
@  #05 @122   ----------------------------------------
 .byte   PATT
  .word Label_013C1B6E
@  #05 @123   ----------------------------------------
 .byte   PATT
  .word Label_013C1B7D
@  #05 @124   ----------------------------------------
 .byte   PATT
  .word Label_013C1C24
@  #05 @125   ----------------------------------------
 .byte   EOT
 .byte   Cs6
 .byte   W01
@  #05 @126   ----------------------------------------
 .byte   PATT
  .word Label_013C1B5C
@  #05 @127   ----------------------------------------
 .byte   PATT
  .word Label_013C1B6E
@  #05 @128   ----------------------------------------
 .byte   PATT
  .word Label_013C1B7D
@  #05 @129   ----------------------------------------
 .byte   W11
 .byte   EOT
 .byte   Cs6
 .byte   W01
 .byte   BEND , c_v-62
 .byte   N80 ,Cs6 ,v088
 .byte   W01
 .byte   BEND , c_v-61
 .byte   W01
 .byte   BEND , c_v-61
 .byte   W01
 .byte   BEND , c_v-56
 .byte   W01
 .byte   BEND , c_v-55
 .byte   W01
 .byte   BEND , c_v-55
 .byte   W01
 .byte   BEND , c_v-54
 .byte   W01
 .byte   BEND , c_v-53
 .byte   W01
 .byte   BEND , c_v-56
 .byte   W01
 .byte   BEND , c_v-52
 .byte   W01
 .byte   BEND , c_v-51
 .byte   W01
 .byte   BEND , c_v-50
 .byte   W01
 .byte   BEND , c_v-50
 .byte   W01
 .byte   BEND , c_v-49
 .byte   W01
 .byte   BEND , c_v-48
 .byte   W01
 .byte   BEND , c_v-48
 .byte   W01
 .byte   BEND , c_v-47
 .byte   W01
 .byte   BEND , c_v-47
 .byte   W01
 .byte   BEND , c_v-45
 .byte   W01
 .byte   BEND , c_v-45
 .byte   W01
 .byte   BEND , c_v-44
 .byte   W01
 .byte   BEND , c_v-43
 .byte   W01
 .byte   BEND , c_v-43
 .byte   W01
 .byte   BEND , c_v-42
 .byte   W01
 .byte   BEND , c_v-42
 .byte   W01
 .byte   BEND , c_v-41
 .byte   W01
 .byte   BEND , c_v-40
 .byte   W01
 .byte   BEND , c_v-39
 .byte   W01
 .byte   BEND , c_v-39
 .byte   W01
 .byte   BEND , c_v-38
 .byte   W01
 .byte   BEND , c_v-37
 .byte   W01
 .byte   BEND , c_v-37
 .byte   W01
 .byte   BEND , c_v-36
 .byte   W01
 .byte   BEND , c_v-36
 .byte   W01
 .byte   BEND , c_v-34
 .byte   W01
 .byte   BEND , c_v-34
 .byte   W01
 .byte   BEND , c_v-33
 .byte   W01
 .byte   BEND , c_v-32
 .byte   W01
 .byte   BEND , c_v-32
 .byte   W01
 .byte   BEND , c_v-31
 .byte   W01
 .byte   BEND , c_v-31
 .byte   W01
 .byte   BEND , c_v-30
 .byte   W01
 .byte   BEND , c_v-29
 .byte   W01
 .byte   BEND , c_v-28
 .byte   W01
 .byte   BEND , c_v-28
 .byte   W01
 .byte   BEND , c_v-27
 .byte   W01
 .byte   BEND , c_v-26
 .byte   W01
 .byte   BEND , c_v-26
 .byte   W01
 .byte   BEND , c_v-25
 .byte   W01
 .byte   BEND , c_v-24
 .byte   W01
 .byte   BEND , c_v-24
 .byte   W01
 .byte   BEND , c_v-23
 .byte   W01
 .byte   BEND , c_v-22
 .byte   W01
 .byte   BEND , c_v-21
 .byte   W01
 .byte   BEND , c_v-21
 .byte   W01
 .byte   BEND , c_v-20
 .byte   W01
 .byte   BEND , c_v-20
 .byte   W01
 .byte   BEND , c_v-19
 .byte   W01
 .byte   BEND , c_v-18
 .byte   W01
 .byte   BEND , c_v-17
 .byte   W01
 .byte   BEND , c_v-17
 .byte   W01
 .byte   BEND , c_v-16
 .byte   W01
 .byte   BEND , c_v-15
 .byte   W01
 .byte   BEND , c_v-15
 .byte   W01
 .byte   BEND , c_v-14
 .byte   W01
 .byte   BEND , c_v-13
 .byte   W01
 .byte   BEND , c_v-13
 .byte   W01
 .byte   BEND , c_v-12
 .byte   W01
 .byte   BEND , c_v-11
 .byte   W01
 .byte   BEND , c_v-10
 .byte   W01
 .byte   BEND , c_v-10
 .byte   W01
 .byte   BEND , c_v-9
 .byte   W01
 .byte   BEND , c_v-9
 .byte   W01
 .byte   BEND , c_v-8
 .byte   W01
 .byte   BEND , c_v-7
 .byte   W01
 .byte   BEND , c_v-6
 .byte   W01
 .byte   BEND , c_v-5
 .byte   W01
 .byte   BEND , c_v-5
 .byte   W01
 .byte   BEND , c_v-4
 .byte   W01
 .byte   BEND , c_v-4
 .byte   W01
 .byte   BEND , c_v-3
 .byte   W01
 .byte   BEND , c_v-2
 .byte   W01
 .byte   BEND , c_v-2
 .byte   W01
 .byte   BEND , c_v+0
 .byte   W01
@  #05 @130   ----------------------------------------
 .byte   GOTO
  .word Label_013C1D4B
@  #05 @131   ----------------------------------------
 .byte   PATT
  .word Label_013C1D4B
@  #05 @132   ----------------------------------------
 .byte   PAN , c_v+63
 .byte   W96
@  #05 @133   ----------------------------------------
 .byte   PATT
  .word Label_013C1A19
@  #05 @134   ----------------------------------------
 .byte   W96
@  #05 @135   ----------------------------------------
 .byte   PATT
  .word Label_013C1912
@  #05 @136   ----------------------------------------
 .byte   PAN , c_v+63
 .byte   W96
@  #05 @137   ----------------------------------------
 .byte   PATT
  .word Label_013C1A19
@  #05 @138   ----------------------------------------
 .byte   PATT
  .word Label_013C1B54
@  #05 @139   ----------------------------------------
 .byte   PATT
  .word Label_013C1B5C
@  #05 @140   ----------------------------------------
 .byte   W90
 .byte   BEND , c_v-10
 .byte   W01
 .byte   BEND , c_v-12
 .byte   W01
 .byte   BEND , c_v-14
 .byte   W01
 .byte   BEND , c_v-15
 .byte   W01
 .byte   BEND , c_v-17
 .byte   W01
 .byte   EOT
 .byte   Cs6
 .byte   BEND , c_v-20
 .byte   W01
@  #05 @141   ----------------------------------------
 .byte   W96
@  #05 @142   ----------------------------------------
 .byte   W96
@  #05 @143   ----------------------------------------
 .byte   BEND , c_v+0
 .byte   FINE

@**************** Track 6 (Midi-Chn.5) ****************@

song09_006:
@  #06 @000   ----------------------------------------
 .byte   KEYSH , song09_key+0
 .byte   VOICE , 41
 .byte   MODT 0
 .byte   LFOS 44
 .byte   VOL , 26*song09_mvl/mxv
 .byte   BENDR, 12
 .byte   PAN , c_v+0
 .byte   MODT 0
 .byte   LFOS 44
 .byte   W96
@  #06 @001   ----------------------------------------
 .byte   W96
@  #06 @002   ----------------------------------------
 .byte   W96
@  #06 @003   ----------------------------------------
 .byte   W96
@  #06 @004   ----------------------------------------
 .byte   W96
@  #06 @005   ----------------------------------------
 .byte   W96
@  #06 @006   ----------------------------------------
 .byte   W96
@  #06 @007   ----------------------------------------
 .byte   W96
@  #06 @008   ----------------------------------------
 .byte   W96
@  #06 @009   ----------------------------------------
 .byte   W96
@  #06 @010   ----------------------------------------
 .byte   W96
@  #06 @011   ----------------------------------------
 .byte   W96
@  #06 @012   ----------------------------------------
 .byte   W96
@  #06 @013   ----------------------------------------
 .byte   W96
@  #06 @014   ----------------------------------------
 .byte   W96
@  #06 @015   ----------------------------------------
 .byte   W96
@  #06 @016   ----------------------------------------
 .byte   W96
@  #06 @017   ----------------------------------------
 .byte   W96
@  #06 @018   ----------------------------------------
 .byte   W96
@  #06 @019   ----------------------------------------
 .byte   W96
@  #06 @020   ----------------------------------------
 .byte   W96
@  #06 @021   ----------------------------------------
 .byte   W96
@  #06 @022   ----------------------------------------
 .byte   W96
@  #06 @023   ----------------------------------------
 .byte   W96
@  #06 @024   ----------------------------------------
 .byte   N92 ,Cs5 ,v072
 .byte   W96
@  #06 @025   ----------------------------------------
 .byte   Bn4
 .byte   W96
@  #06 @026   ----------------------------------------
 .byte   An4
 .byte   W96
@  #06 @027   ----------------------------------------
 .byte   Bn4
 .byte   W96
@  #06 @028   ----------------------------------------
 .byte   Cs5
 .byte   W96
@  #06 @029   ----------------------------------------
 .byte   Bn4
 .byte   W96
@  #06 @030   ----------------------------------------
 .byte   An4
 .byte   W96
@  #06 @031   ----------------------------------------
Label_011B1972:
 .byte   N44 ,Bn4 ,v072
 .byte   W48
 .byte   Cs5
 .byte   W48
 .byte   PEND 
@  #06 @032   ----------------------------------------
 .byte   W96
@  #06 @033   ----------------------------------------
 .byte   W96
@  #06 @034   ----------------------------------------
 .byte   W96
@  #06 @035   ----------------------------------------
 .byte   W96
@  #06 @036   ----------------------------------------
 .byte   W96
@  #06 @037   ----------------------------------------
 .byte   W96
@  #06 @038   ----------------------------------------
 .byte   W96
@  #06 @039   ----------------------------------------
 .byte   W96
@  #06 @040   ----------------------------------------
 .byte   W96
@  #06 @041   ----------------------------------------
 .byte   W96
@  #06 @042   ----------------------------------------
 .byte   W96
@  #06 @043   ----------------------------------------
 .byte   W96
@  #06 @044   ----------------------------------------
 .byte   N92 ,Cs4
 .byte   W96
@  #06 @045   ----------------------------------------
 .byte   Bn3
 .byte   W96
@  #06 @046   ----------------------------------------
 .byte   An3
 .byte   W96
@  #06 @047   ----------------------------------------
 .byte   Bn3
 .byte   W96
@  #06 @048   ----------------------------------------
 .byte   Cs4
 .byte   W96
@  #06 @049   ----------------------------------------
 .byte   Bn3
 .byte   W96
@  #06 @050   ----------------------------------------
 .byte   An3
 .byte   W96
@  #06 @051   ----------------------------------------
 .byte   Bn3
 .byte   W96
@  #06 @052   ----------------------------------------
 .byte   Cs4
 .byte   W96
@  #06 @053   ----------------------------------------
 .byte   Bn3
 .byte   W96
@  #06 @054   ----------------------------------------
 .byte   An3
 .byte   W96
@  #06 @055   ----------------------------------------
 .byte   Bn3
 .byte   W96
@  #06 @056   ----------------------------------------
 .byte   Cs4
 .byte   W96
@  #06 @057   ----------------------------------------
 .byte   Bn3
 .byte   W96
@  #06 @058   ----------------------------------------
 .byte   An3
 .byte   W96
@  #06 @059   ----------------------------------------
 .byte   Bn3
 .byte   W96
@  #06 @060   ----------------------------------------
 .byte   Cs4
 .byte   W96
@  #06 @061   ----------------------------------------
 .byte   Bn3
 .byte   W96
@  #06 @062   ----------------------------------------
 .byte   An3
 .byte   W96
@  #06 @063   ----------------------------------------
 .byte   Bn3
 .byte   W96
@  #06 @064   ----------------------------------------
 .byte   Cs4
 .byte   W96
@  #06 @065   ----------------------------------------
 .byte   Bn3
 .byte   W96
@  #06 @066   ----------------------------------------
 .byte   An3
 .byte   W96
@  #06 @067   ----------------------------------------
Label_011B19B4:
 .byte   N11 ,Bn3 ,v072
 .byte   W12
 .byte   BEND , c_v-62
 .byte   N80 ,Cs5 ,v088
 .byte   W01
 .byte   BEND , c_v-61
 .byte   W01
 .byte   BEND , c_v-61
 .byte   W01
 .byte   BEND , c_v-56
 .byte   W01
 .byte   BEND , c_v-55
 .byte   W01
 .byte   BEND , c_v-55
 .byte   W01
 .byte   BEND , c_v-54
 .byte   W01
 .byte   BEND , c_v-53
 .byte   W01
 .byte   BEND , c_v-56
 .byte   W01
 .byte   BEND , c_v-52
 .byte   W01
 .byte   BEND , c_v-51
 .byte   W01
 .byte   BEND , c_v-50
 .byte   W01
 .byte   BEND , c_v-50
 .byte   W01
 .byte   BEND , c_v-49
 .byte   W01
 .byte   BEND , c_v-48
 .byte   W01
 .byte   BEND , c_v-48
 .byte   W01
 .byte   BEND , c_v-47
 .byte   W01
 .byte   BEND , c_v-47
 .byte   W01
 .byte   BEND , c_v-45
 .byte   W01
 .byte   BEND , c_v-45
 .byte   W01
 .byte   BEND , c_v-44
 .byte   W01
 .byte   BEND , c_v-43
 .byte   W01
 .byte   BEND , c_v-43
 .byte   W01
 .byte   BEND , c_v-42
 .byte   W01
 .byte   BEND , c_v-42
 .byte   W01
 .byte   BEND , c_v-41
 .byte   W01
 .byte   BEND , c_v-40
 .byte   W01
 .byte   BEND , c_v-39
 .byte   W01
 .byte   BEND , c_v-39
 .byte   W01
 .byte   BEND , c_v-38
 .byte   W01
 .byte   BEND , c_v-37
 .byte   W01
 .byte   BEND , c_v-37
 .byte   W01
 .byte   BEND , c_v-36
 .byte   W01
 .byte   BEND , c_v-36
 .byte   W01
 .byte   BEND , c_v-34
 .byte   W01
 .byte   BEND , c_v-34
 .byte   W01
 .byte   BEND , c_v-33
 .byte   W01
 .byte   BEND , c_v-32
 .byte   W01
 .byte   BEND , c_v-32
 .byte   W01
 .byte   BEND , c_v-31
 .byte   W01
 .byte   BEND , c_v-31
 .byte   W01
 .byte   BEND , c_v-30
 .byte   W01
 .byte   BEND , c_v-29
 .byte   W01
 .byte   BEND , c_v-28
 .byte   W01
 .byte   BEND , c_v-28
 .byte   W01
 .byte   BEND , c_v-27
 .byte   W01
 .byte   BEND , c_v-26
 .byte   W01
 .byte   BEND , c_v-26
 .byte   W01
 .byte   BEND , c_v-25
 .byte   W01
 .byte   BEND , c_v-24
 .byte   W01
 .byte   BEND , c_v-24
 .byte   W01
 .byte   BEND , c_v-23
 .byte   W01
 .byte   BEND , c_v-22
 .byte   W01
 .byte   BEND , c_v-21
 .byte   W01
 .byte   BEND , c_v-21
 .byte   W01
 .byte   BEND , c_v-20
 .byte   W01
 .byte   BEND , c_v-20
 .byte   W01
 .byte   BEND , c_v-19
 .byte   W01
 .byte   BEND , c_v-18
 .byte   W01
 .byte   BEND , c_v-17
 .byte   W01
 .byte   BEND , c_v-17
 .byte   W01
 .byte   BEND , c_v-16
 .byte   W01
 .byte   BEND , c_v-15
 .byte   W01
 .byte   BEND , c_v-15
 .byte   W01
 .byte   BEND , c_v-14
 .byte   W01
 .byte   BEND , c_v-13
 .byte   W01
 .byte   BEND , c_v-13
 .byte   W01
 .byte   BEND , c_v-12
 .byte   W01
 .byte   BEND , c_v-11
 .byte   W01
 .byte   BEND , c_v-10
 .byte   W01
 .byte   BEND , c_v-10
 .byte   W01
 .byte   BEND , c_v-9
 .byte   W01
 .byte   BEND , c_v-9
 .byte   W01
 .byte   BEND , c_v-8
 .byte   W01
 .byte   BEND , c_v-7
 .byte   W01
 .byte   BEND , c_v-6
 .byte   W01
 .byte   BEND , c_v-5
 .byte   W01
 .byte   BEND , c_v-5
 .byte   W01
 .byte   BEND , c_v-4
 .byte   W01
 .byte   BEND , c_v-4
 .byte   W01
 .byte   BEND , c_v-3
 .byte   W01
 .byte   BEND , c_v-2
 .byte   W01
 .byte   BEND , c_v-2
 .byte   W01
 .byte   BEND , c_v+0
 .byte   W01
 .byte   PEND 
@  #06 @068   ----------------------------------------
Label_011B1A66:
 .byte   W96
@  #06 @069   ----------------------------------------
 .byte   W96
@  #06 @070   ----------------------------------------
 .byte   W96
@  #06 @071   ----------------------------------------
 .byte   W96
@  #06 @072   ----------------------------------------
 .byte   W96
@  #06 @073   ----------------------------------------
 .byte   W96
@  #06 @074   ----------------------------------------
 .byte   W96
@  #06 @075   ----------------------------------------
 .byte   W96
@  #06 @076   ----------------------------------------
 .byte   N92 ,Cs5 ,v072
 .byte   W96
@  #06 @077   ----------------------------------------
 .byte   Bn4
 .byte   W96
@  #06 @078   ----------------------------------------
 .byte   An4
 .byte   W96
@  #06 @079   ----------------------------------------
 .byte   Bn4
 .byte   W96
@  #06 @080   ----------------------------------------
 .byte   Cs5
 .byte   W96
@  #06 @081   ----------------------------------------
 .byte   Bn4
 .byte   W96
@  #06 @082   ----------------------------------------
 .byte   An4
 .byte   W96
@  #06 @083   ----------------------------------------
 .byte   PATT
  .word Label_011B1972
@  #06 @084   ----------------------------------------
 .byte   W96
@  #06 @085   ----------------------------------------
 .byte   W96
@  #06 @086   ----------------------------------------
 .byte   W96
@  #06 @087   ----------------------------------------
 .byte   W96
@  #06 @088   ----------------------------------------
 .byte   W96
@  #06 @089   ----------------------------------------
 .byte   W96
@  #06 @090   ----------------------------------------
 .byte   W96
@  #06 @091   ----------------------------------------
 .byte   W96
@  #06 @092   ----------------------------------------
 .byte   W96
@  #06 @093   ----------------------------------------
 .byte   W96
@  #06 @094   ----------------------------------------
 .byte   W96
@  #06 @095   ----------------------------------------
 .byte   W96
@  #06 @096   ----------------------------------------
 .byte   N92 ,Cs4 ,v072
 .byte   W96
@  #06 @097   ----------------------------------------
 .byte   Bn3
 .byte   W96
@  #06 @098   ----------------------------------------
 .byte   An3
 .byte   W96
@  #06 @099   ----------------------------------------
 .byte   Bn3
 .byte   W96
@  #06 @100   ----------------------------------------
 .byte   Cs4
 .byte   W96
@  #06 @101   ----------------------------------------
 .byte   Bn3
 .byte   W96
@  #06 @102   ----------------------------------------
 .byte   An3
 .byte   W96
@  #06 @103   ----------------------------------------
 .byte   Bn3
 .byte   W96
@  #06 @104   ----------------------------------------
 .byte   Cs4
 .byte   W96
@  #06 @105   ----------------------------------------
 .byte   Bn3
 .byte   W96
@  #06 @106   ----------------------------------------
 .byte   An3
 .byte   W96
@  #06 @107   ----------------------------------------
 .byte   Bn3
 .byte   W96
@  #06 @108   ----------------------------------------
 .byte   Cs4
 .byte   W96
@  #06 @109   ----------------------------------------
 .byte   Bn3
 .byte   W96
@  #06 @110   ----------------------------------------
 .byte   An3
 .byte   W96
@  #06 @111   ----------------------------------------
 .byte   Bn3
 .byte   W96
@  #06 @112   ----------------------------------------
 .byte   Cs4
 .byte   W96
@  #06 @113   ----------------------------------------
 .byte   Bn3
 .byte   W96
@  #06 @114   ----------------------------------------
 .byte   An3
 .byte   W96
@  #06 @115   ----------------------------------------
 .byte   Bn3
 .byte   W96
@  #06 @116   ----------------------------------------
 .byte   Cs4
 .byte   W96
@  #06 @117   ----------------------------------------
 .byte   Bn3
 .byte   W96
@  #06 @118   ----------------------------------------
 .byte   An3
 .byte   W96
@  #06 @119   ----------------------------------------
 .byte   PATT
  .word Label_011B19B4
@  #06 @120   ----------------------------------------
 .byte   GOTO
  .word Label_011B1A66
@  #06 @121   ----------------------------------------
 .byte   W96
@  #06 @122   ----------------------------------------
 .byte   W96
@  #06 @123   ----------------------------------------
 .byte   W96
@  #06 @124   ----------------------------------------
 .byte   W96
@  #06 @125   ----------------------------------------
 .byte   W96
@  #06 @126   ----------------------------------------
 .byte   W96
@  #06 @127   ----------------------------------------
 .byte   W96
@  #06 @128   ----------------------------------------
 .byte   W96
@  #06 @129   ----------------------------------------
 .byte   N92 ,Cs5 ,v072
 .byte   W96
@  #06 @130   ----------------------------------------
 .byte   Bn4
 .byte   W96
@  #06 @131   ----------------------------------------
 .byte   BEND , c_v+0
 .byte   W96
@  #06 @132   ----------------------------------------
 .byte   W96
@  #06 @133   ----------------------------------------
 .byte   BEND , c_v+0
 .byte   FINE

@**************** Track 7 (Midi-Chn.6) ****************@

song09_007:
@  #07 @000   ----------------------------------------
 .byte   KEYSH , song09_key+0
 .byte   VOICE , 30
 .byte   MODT 0
 .byte   LFOS 44
 .byte   VOL , 26*song09_mvl/mxv
 .byte   BENDR, 12
 .byte   PAN , c_v+63
 .byte   MODT 0
 .byte   LFOS 44
 .byte   W03
 .byte   N05 ,Fs2 ,v112
 .byte   W06
 .byte   En2
 .byte   W06
 .byte   N11 ,Fs2
 .byte   W12
 .byte   An2
 .byte   W12
 .byte   N05 ,Fs2
 .byte   W06
 .byte   En2
 .byte   W06
 .byte   N11 ,Fs2
 .byte   W12
 .byte   An2
 .byte   W12
 .byte   N05 ,Fs2
 .byte   W06
 .byte   En2
 .byte   W06
 .byte   N08 ,Fs2
 .byte   W09
@  #07 @001   ----------------------------------------
Label_0121D248:
 .byte   W03
 .byte   N05 ,Fs2 ,v112
 .byte   W06
 .byte   En2
 .byte   W06
 .byte   N11 ,Fs2
 .byte   W12
 .byte   An2
 .byte   W12
 .byte   N05 ,Fs2
 .byte   W06
 .byte   En2
 .byte   W06
 .byte   N11 ,Fs2
 .byte   W09
 .byte   BEND , c_v-10
 .byte   W02
 .byte   BEND , c_v-10
 .byte   W01
 .byte   BEND , c_v+0
 .byte   N06 ,Cn3
 .byte   W05
 .byte   BEND , c_v+0
 .byte   W01
 .byte   BEND , c_v-16
 .byte   N05 ,Cn3 ,v036
 .byte   W05
 .byte   BEND , c_v-16
 .byte   W01
 .byte   BEND , c_v+0
 .byte   N06 ,Bn2 ,v112
 .byte   W06
 .byte   BEND , c_v-12
 .byte   N05 ,Bn2 ,v036
 .byte   W05
 .byte   BEND , c_v-12
 .byte   W01
 .byte   BEND , c_v+0
 .byte   N05 ,Fs2 ,v112
 .byte   W06
 .byte   En2
 .byte   W03
 .byte   PEND 
@  #07 @002   ----------------------------------------
Label_0121D286:
 .byte   W03
 .byte   N05 ,Fs2 ,v112
 .byte   W06
 .byte   En2
 .byte   W06
 .byte   N11 ,Fs2
 .byte   W12
 .byte   An2
 .byte   W12
 .byte   N05 ,Fs2
 .byte   W06
 .byte   En2
 .byte   W06
 .byte   N11 ,Fs2
 .byte   W12
 .byte   An2
 .byte   W12
 .byte   N05 ,Fs2
 .byte   W06
 .byte   En2
 .byte   W06
 .byte   N08 ,Fs2
 .byte   W09
 .byte   PEND 
@  #07 @003   ----------------------------------------
 .byte   PATT
  .word Label_0121D248
@  #07 @004   ----------------------------------------
 .byte   PATT
  .word Label_0121D286
@  #07 @005   ----------------------------------------
 .byte   PATT
  .word Label_0121D248
@  #07 @006   ----------------------------------------
 .byte   PATT
  .word Label_0121D286
@  #07 @007   ----------------------------------------
 .byte   PATT
  .word Label_0121D248
@  #07 @008   ----------------------------------------
 .byte   PATT
  .word Label_0121D286
@  #07 @009   ----------------------------------------
 .byte   PATT
  .word Label_0121D248
@  #07 @010   ----------------------------------------
 .byte   PATT
  .word Label_0121D286
@  #07 @011   ----------------------------------------
 .byte   PATT
  .word Label_0121D248
@  #07 @012   ----------------------------------------
 .byte   PATT
  .word Label_0121D286
@  #07 @013   ----------------------------------------
 .byte   PATT
  .word Label_0121D248
@  #07 @014   ----------------------------------------
 .byte   PATT
  .word Label_0121D286
@  #07 @015   ----------------------------------------
 .byte   W03
 .byte   N05 ,Fs2 ,v112
 .byte   W06
 .byte   En2
 .byte   W06
 .byte   Fs2
 .byte   W12
 .byte   N05
 .byte   W06
 .byte   En2
 .byte   W06
 .byte   Fs2
 .byte   W12
 .byte   N05
 .byte   W06
 .byte   N05
 .byte   W06
 .byte   N05
 .byte   W06
 .byte   N05
 .byte   W12
 .byte   N05
 .byte   W12
 .byte   N05
 .byte   W03
@  #07 @016   ----------------------------------------
 .byte   PATT
  .word Label_0121D286
@  #07 @017   ----------------------------------------
 .byte   PATT
  .word Label_0121D248
@  #07 @018   ----------------------------------------
 .byte   PATT
  .word Label_0121D286
@  #07 @019   ----------------------------------------
 .byte   PATT
  .word Label_0121D248
@  #07 @020   ----------------------------------------
 .byte   PATT
  .word Label_0121D286
@  #07 @021   ----------------------------------------
 .byte   PATT
  .word Label_0121D248
@  #07 @022   ----------------------------------------
 .byte   PATT
  .word Label_0121D286
@  #07 @023   ----------------------------------------
 .byte   PATT
  .word Label_0121D248
@  #07 @024   ----------------------------------------
 .byte   W96
@  #07 @025   ----------------------------------------
 .byte   W96
@  #07 @026   ----------------------------------------
 .byte   W96
@  #07 @027   ----------------------------------------
 .byte   W96
@  #07 @028   ----------------------------------------
 .byte   W96
@  #07 @029   ----------------------------------------
 .byte   W96
@  #07 @030   ----------------------------------------
 .byte   W96
@  #07 @031   ----------------------------------------
 .byte   W96
@  #07 @032   ----------------------------------------
 .byte   PATT
  .word Label_0121D286
@  #07 @033   ----------------------------------------
 .byte   PATT
  .word Label_0121D248
@  #07 @034   ----------------------------------------
 .byte   PATT
  .word Label_0121D286
@  #07 @035   ----------------------------------------
 .byte   PATT
  .word Label_0121D248
@  #07 @036   ----------------------------------------
 .byte   PATT
  .word Label_0121D286
@  #07 @037   ----------------------------------------
 .byte   PATT
  .word Label_0121D248
@  #07 @038   ----------------------------------------
 .byte   PATT
  .word Label_0121D286
@  #07 @039   ----------------------------------------
 .byte   PATT
  .word Label_0121D248
@  #07 @040   ----------------------------------------
 .byte   W96
@  #07 @041   ----------------------------------------
 .byte   W96
@  #07 @042   ----------------------------------------
 .byte   W96
@  #07 @043   ----------------------------------------
 .byte   W96
@  #07 @044   ----------------------------------------
 .byte   W96
@  #07 @045   ----------------------------------------
 .byte   W96
@  #07 @046   ----------------------------------------
 .byte   W96
@  #07 @047   ----------------------------------------
 .byte   W96
@  #07 @048   ----------------------------------------
 .byte   W96
@  #07 @049   ----------------------------------------
 .byte   W96
@  #07 @050   ----------------------------------------
 .byte   W96
@  #07 @051   ----------------------------------------
 .byte   W96
@  #07 @052   ----------------------------------------
 .byte   W96
@  #07 @053   ----------------------------------------
 .byte   W96
@  #07 @054   ----------------------------------------
 .byte   W96
@  #07 @055   ----------------------------------------
 .byte   W96
@  #07 @056   ----------------------------------------
 .byte   W96
@  #07 @057   ----------------------------------------
 .byte   W96
@  #07 @058   ----------------------------------------
 .byte   W96
@  #07 @059   ----------------------------------------
 .byte   W96
@  #07 @060   ----------------------------------------
 .byte   W03
 .byte   VOICE , 29
 .byte   BEND , c_v-1
 .byte   N32 ,Fs0 ,v112
 .byte   W01
 .byte   BEND , c_v-1
 .byte   N32 ,Fs1
 .byte   W01
 .byte   BEND , c_v-1
 .byte   N32 ,Fs2
 .byte   W01
 .byte   BEND , c_v-2
 .byte   N32 ,Fs3 ,v052
 .byte   W01
 .byte   BEND , c_v-3
 .byte   W01
 .byte   BEND , c_v-4
 .byte   W01
 .byte   BEND , c_v-5
 .byte   W01
 .byte   BEND , c_v-7
 .byte   W01
 .byte   BEND , c_v-10
 .byte   W01
 .byte   BEND , c_v-12
 .byte   W01
 .byte   BEND , c_v-15
 .byte   W01
 .byte   BEND , c_v-17
 .byte   W01
 .byte   BEND , c_v-20
 .byte   W01
 .byte   BEND , c_v-22
 .byte   W01
 .byte   BEND , c_v-25
 .byte   W01
 .byte   BEND , c_v-32
 .byte   W01
 .byte   BEND , c_v-36
 .byte   W01
 .byte   BEND , c_v-40
 .byte   W01
 .byte   BEND , c_v-40
 .byte   W06
 .byte   BEND , c_v+0
 .byte   W12
 .byte   PAN , c_v-64
 .byte   BEND , c_v-1
 .byte   N32 ,Fs0 ,v112
 .byte   W01
 .byte   BEND , c_v-1
 .byte   N32 ,Fs1
 .byte   W01
 .byte   BEND , c_v-1
 .byte   N32 ,Fs2
 .byte   W01
 .byte   BEND , c_v-2
 .byte   N32 ,Fs3 ,v052
 .byte   W01
 .byte   BEND , c_v-3
 .byte   W01
 .byte   BEND , c_v-4
 .byte   W01
 .byte   BEND , c_v-5
 .byte   W01
 .byte   BEND , c_v-7
 .byte   W01
 .byte   BEND , c_v-10
 .byte   W01
 .byte   BEND , c_v-12
 .byte   W01
 .byte   BEND , c_v-15
 .byte   W01
 .byte   BEND , c_v-17
 .byte   W01
 .byte   BEND , c_v-20
 .byte   W01
 .byte   BEND , c_v-22
 .byte   W01
 .byte   BEND , c_v-25
 .byte   W01
 .byte   BEND , c_v-32
 .byte   W01
 .byte   BEND , c_v-36
 .byte   W01
 .byte   BEND , c_v-40
 .byte   W01
 .byte   BEND , c_v-40
 .byte   W06
 .byte   BEND , c_v+0
 .byte   W32
 .byte   W01
@  #07 @061   ----------------------------------------
Label_0121D3DC:
 .byte   W03
 .byte   VOICE , 30
 .byte   PAN , c_v+0
 .byte   W12
 .byte   N05 ,Fs2 ,v112
 .byte   W06
 .byte   En2
 .byte   W06
 .byte   Fs2
 .byte   W12
 .byte   An2
 .byte   W12
 .byte   Fs2
 .byte   W06
 .byte   En2
 .byte   W06
 .byte   Fs2
 .byte   W12
 .byte   An2
 .byte   W12
 .byte   Fs2
 .byte   W06
 .byte   En2
 .byte   W03
 .byte   PEND 
@  #07 @062   ----------------------------------------
Label_0121D3F9:
 .byte   W03
 .byte   VOICE , 29
 .byte   PAN , c_v+63
 .byte   BEND , c_v-1
 .byte   N32 ,Fs0 ,v112
 .byte   W01
 .byte   BEND , c_v-1
 .byte   N32 ,Fs1
 .byte   W01
 .byte   BEND , c_v-1
 .byte   N32 ,Fs2
 .byte   W01
 .byte   BEND , c_v-2
 .byte   N32 ,Fs3 ,v052
 .byte   W01
 .byte   BEND , c_v-3
 .byte   W01
 .byte   BEND , c_v-4
 .byte   W01
 .byte   BEND , c_v-5
 .byte   W01
 .byte   BEND , c_v-7
 .byte   W01
 .byte   BEND , c_v-10
 .byte   W01
 .byte   BEND , c_v-12
 .byte   W01
 .byte   BEND , c_v-15
 .byte   W01
 .byte   BEND , c_v-17
 .byte   W01
 .byte   BEND , c_v-20
 .byte   W01
 .byte   BEND , c_v-22
 .byte   W01
 .byte   BEND , c_v-25
 .byte   W01
 .byte   BEND , c_v-32
 .byte   W01
 .byte   BEND , c_v-36
 .byte   W01
 .byte   BEND , c_v-40
 .byte   W01
 .byte   BEND , c_v-40
 .byte   W06
 .byte   BEND , c_v+0
 .byte   W12
 .byte   PAN , c_v-64
 .byte   BEND , c_v-1
 .byte   N32 ,Fs0 ,v112
 .byte   W01
 .byte   BEND , c_v-1
 .byte   N32 ,Fs1
 .byte   W01
 .byte   BEND , c_v-1
 .byte   N32 ,Fs2
 .byte   W01
 .byte   BEND , c_v-2
 .byte   N32 ,Fs3 ,v052
 .byte   W01
 .byte   BEND , c_v-3
 .byte   W01
 .byte   BEND , c_v-4
 .byte   W01
 .byte   BEND , c_v-5
 .byte   W01
 .byte   BEND , c_v-7
 .byte   W01
 .byte   BEND , c_v-10
 .byte   W01
 .byte   BEND , c_v-12
 .byte   W01
 .byte   BEND , c_v-15
 .byte   W01
 .byte   BEND , c_v-17
 .byte   W01
 .byte   BEND , c_v-20
 .byte   W01
 .byte   BEND , c_v-22
 .byte   W01
 .byte   BEND , c_v-25
 .byte   W01
 .byte   BEND , c_v-32
 .byte   W01
 .byte   BEND , c_v-36
 .byte   W01
 .byte   BEND , c_v-40
 .byte   W01
 .byte   BEND , c_v-40
 .byte   W06
 .byte   BEND , c_v+0
 .byte   W32
 .byte   W01
 .byte   PEND 
@  #07 @063   ----------------------------------------
 .byte   PATT
  .word Label_0121D3DC
@  #07 @064   ----------------------------------------
 .byte   PATT
  .word Label_0121D3F9
@  #07 @065   ----------------------------------------
 .byte   PATT
  .word Label_0121D3DC
@  #07 @066   ----------------------------------------
 .byte   PATT
  .word Label_0121D3F9
@  #07 @067   ----------------------------------------
Label_0121D484:
 .byte   W03
 .byte   PAN , c_v+63
 .byte   BEND , c_v-1
 .byte   N32 ,Fs0 ,v112
 .byte   W01
 .byte   BEND , c_v-1
 .byte   N32 ,Fs1
 .byte   W01
 .byte   BEND , c_v-1
 .byte   N32 ,Fs2
 .byte   W01
 .byte   BEND , c_v-2
 .byte   N32 ,Fs3 ,v052
 .byte   W01
 .byte   BEND , c_v-3
 .byte   W01
 .byte   BEND , c_v-4
 .byte   W01
 .byte   BEND , c_v-5
 .byte   W01
 .byte   BEND , c_v-7
 .byte   W01
 .byte   BEND , c_v-10
 .byte   W01
 .byte   BEND , c_v-12
 .byte   W01
 .byte   BEND , c_v-15
 .byte   W01
 .byte   BEND , c_v-17
 .byte   W01
 .byte   BEND , c_v-20
 .byte   W01
 .byte   BEND , c_v-22
 .byte   W01
 .byte   BEND , c_v-25
 .byte   W01
 .byte   BEND , c_v-32
 .byte   W01
 .byte   BEND , c_v-36
 .byte   W01
 .byte   BEND , c_v-40
 .byte   W01
 .byte   BEND , c_v-40
 .byte   W06
 .byte   BEND , c_v+0
 .byte   W68
 .byte   W01
 .byte   PEND 
@  #07 @068   ----------------------------------------
Label_0121D4C0:
 .byte   W03
 .byte   VOICE , 30
 .byte   PAN , c_v+0
 .byte   N05 ,Fs2 ,v112
 .byte   W06
 .byte   En2
 .byte   W06
 .byte   N11 ,Fs2
 .byte   W12
 .byte   An2
 .byte   W12
 .byte   N05 ,Fs2
 .byte   W06
 .byte   En2
 .byte   W06
 .byte   N11 ,Fs2
 .byte   W12
 .byte   An2
 .byte   W12
 .byte   N05 ,Fs2
 .byte   W06
 .byte   En2
 .byte   W06
 .byte   N08 ,Fs2
 .byte   W09
 .byte   PEND 
@  #07 @069   ----------------------------------------
 .byte   PATT
  .word Label_0121D248
@  #07 @070   ----------------------------------------
 .byte   PATT
  .word Label_0121D286
@  #07 @071   ----------------------------------------
 .byte   PATT
  .word Label_0121D248
@  #07 @072   ----------------------------------------
 .byte   PATT
  .word Label_0121D286
@  #07 @073   ----------------------------------------
 .byte   PATT
  .word Label_0121D248
@  #07 @074   ----------------------------------------
 .byte   PATT
  .word Label_0121D286
@  #07 @075   ----------------------------------------
 .byte   PATT
  .word Label_0121D248
@  #07 @076   ----------------------------------------
 .byte   W96
@  #07 @077   ----------------------------------------
 .byte   W96
@  #07 @078   ----------------------------------------
 .byte   W96
@  #07 @079   ----------------------------------------
 .byte   W96
@  #07 @080   ----------------------------------------
 .byte   W96
@  #07 @081   ----------------------------------------
 .byte   W96
@  #07 @082   ----------------------------------------
 .byte   W96
@  #07 @083   ----------------------------------------
 .byte   W96
@  #07 @084   ----------------------------------------
 .byte   PATT
  .word Label_0121D286
@  #07 @085   ----------------------------------------
 .byte   PATT
  .word Label_0121D248
@  #07 @086   ----------------------------------------
 .byte   PATT
  .word Label_0121D286
@  #07 @087   ----------------------------------------
 .byte   PATT
  .word Label_0121D248
@  #07 @088   ----------------------------------------
 .byte   PATT
  .word Label_0121D286
@  #07 @089   ----------------------------------------
 .byte   PATT
  .word Label_0121D248
@  #07 @090   ----------------------------------------
 .byte   PATT
  .word Label_0121D286
@  #07 @091   ----------------------------------------
 .byte   PATT
  .word Label_0121D248
@  #07 @092   ----------------------------------------
 .byte   W96
@  #07 @093   ----------------------------------------
 .byte   W96
@  #07 @094   ----------------------------------------
 .byte   W96
@  #07 @095   ----------------------------------------
 .byte   W96
@  #07 @096   ----------------------------------------
 .byte   W96
@  #07 @097   ----------------------------------------
 .byte   W96
@  #07 @098   ----------------------------------------
 .byte   W96
@  #07 @099   ----------------------------------------
 .byte   W96
@  #07 @100   ----------------------------------------
 .byte   W96
@  #07 @101   ----------------------------------------
 .byte   W96
@  #07 @102   ----------------------------------------
 .byte   W96
@  #07 @103   ----------------------------------------
 .byte   W96
@  #07 @104   ----------------------------------------
 .byte   W96
@  #07 @105   ----------------------------------------
 .byte   W96
@  #07 @106   ----------------------------------------
 .byte   W96
@  #07 @107   ----------------------------------------
 .byte   W96
@  #07 @108   ----------------------------------------
 .byte   W96
@  #07 @109   ----------------------------------------
 .byte   W96
@  #07 @110   ----------------------------------------
 .byte   W96
@  #07 @111   ----------------------------------------
 .byte   W96
@  #07 @112   ----------------------------------------
 .byte   PATT
  .word Label_0121D3F9
@  #07 @113   ----------------------------------------
 .byte   PATT
  .word Label_0121D3DC
@  #07 @114   ----------------------------------------
 .byte   PATT
  .word Label_0121D3F9
@  #07 @115   ----------------------------------------
 .byte   PATT
  .word Label_0121D3DC
@  #07 @116   ----------------------------------------
 .byte   PATT
  .word Label_0121D3F9
@  #07 @117   ----------------------------------------
 .byte   PATT
  .word Label_0121D3DC
@  #07 @118   ----------------------------------------
 .byte   PATT
  .word Label_0121D3F9
@  #07 @119   ----------------------------------------
 .byte   PATT
  .word Label_0121D484
@  #07 @120   ----------------------------------------
 .byte   GOTO
  .word Label_0121D4C0
@  #07 @121   ----------------------------------------
 .byte   PATT
  .word Label_0121D4C0
@  #07 @122   ----------------------------------------
 .byte   PATT
  .word Label_0121D248
@  #07 @123   ----------------------------------------
 .byte   PATT
  .word Label_0121D286
@  #07 @124   ----------------------------------------
 .byte   PATT
  .word Label_0121D248
@  #07 @125   ----------------------------------------
 .byte   PATT
  .word Label_0121D286
@  #07 @126   ----------------------------------------
 .byte   PATT
  .word Label_0121D248
@  #07 @127   ----------------------------------------
 .byte   PATT
  .word Label_0121D286
@  #07 @128   ----------------------------------------
 .byte   PATT
  .word Label_0121D248
@  #07 @129   ----------------------------------------
 .byte   W96
@  #07 @130   ----------------------------------------
 .byte   W96
@  #07 @131   ----------------------------------------
 .byte   BEND , c_v+0
 .byte   W96
@  #07 @132   ----------------------------------------
 .byte   W96
@  #07 @133   ----------------------------------------
 .byte   BEND , c_v+0
 .byte   FINE

@**************** Track 8 (Midi-Chn.7) ****************@

song09_008:
@  #08 @000   ----------------------------------------
 .byte   KEYSH , song09_key+0
 .byte   VOICE , 30
 .byte   MODT 0
 .byte   LFOS 44
 .byte   VOL , 26*song09_mvl/mxv
 .byte   BENDR, 12
 .byte   PAN , c_v-64
 .byte   MODT 0
 .byte   LFOS 44
 .byte   W06
 .byte   N05 ,Fs2 ,v112
 .byte   W06
 .byte   En2
 .byte   W06
 .byte   N11 ,Fs2
 .byte   W12
 .byte   An2
 .byte   W12
 .byte   N05 ,Fs2
 .byte   W06
 .byte   En2
 .byte   W06
 .byte   N11 ,Fs2
 .byte   W12
 .byte   An2
 .byte   W12
 .byte   N05 ,Fs2
 .byte   W06
 .byte   En2
 .byte   W06
 .byte   N08 ,Fs2
 .byte   W06
@  #08 @001   ----------------------------------------
Label_0103C1B0:
 .byte   W06
 .byte   N05 ,Fs2 ,v112
 .byte   W06
 .byte   En2
 .byte   W06
 .byte   N11 ,Fs2
 .byte   W12
 .byte   An2
 .byte   W12
 .byte   N05 ,Fs2
 .byte   W06
 .byte   En2
 .byte   W06
 .byte   N11 ,Fs2
 .byte   W09
 .byte   BEND , c_v-10
 .byte   W02
 .byte   BEND , c_v-10
 .byte   W01
 .byte   BEND , c_v+0
 .byte   N06 ,Cn3
 .byte   W05
 .byte   BEND , c_v+0
 .byte   W01
 .byte   BEND , c_v-16
 .byte   N05 ,Cn3 ,v036
 .byte   W05
 .byte   BEND , c_v-16
 .byte   W01
 .byte   BEND , c_v+0
 .byte   N06 ,Bn2 ,v112
 .byte   W06
 .byte   BEND , c_v-12
 .byte   N05 ,Bn2 ,v036
 .byte   W05
 .byte   BEND , c_v-12
 .byte   W01
 .byte   BEND , c_v+0
 .byte   N05 ,Fs2 ,v112
 .byte   W06
 .byte   PEND 
@  #08 @002   ----------------------------------------
Label_0103C1EC:
 .byte   N05 ,En2 ,v112
 .byte   W06
 .byte   Fs2
 .byte   W06
 .byte   En2
 .byte   W06
 .byte   N11 ,Fs2
 .byte   W12
 .byte   An2
 .byte   W12
 .byte   N05 ,Fs2
 .byte   W06
 .byte   En2
 .byte   W06
 .byte   N11 ,Fs2
 .byte   W12
 .byte   An2
 .byte   W12
 .byte   N05 ,Fs2
 .byte   W06
 .byte   En2
 .byte   W06
 .byte   N08 ,Fs2
 .byte   W06
 .byte   PEND 
@  #08 @003   ----------------------------------------
 .byte   PATT
  .word Label_0103C1B0
@  #08 @004   ----------------------------------------
 .byte   PATT
  .word Label_0103C1EC
@  #08 @005   ----------------------------------------
 .byte   PATT
  .word Label_0103C1B0
@  #08 @006   ----------------------------------------
 .byte   PATT
  .word Label_0103C1EC
@  #08 @007   ----------------------------------------
 .byte   PATT
  .word Label_0103C1B0
@  #08 @008   ----------------------------------------
 .byte   PATT
  .word Label_0103C1EC
@  #08 @009   ----------------------------------------
 .byte   PATT
  .word Label_0103C1B0
@  #08 @010   ----------------------------------------
 .byte   PATT
  .word Label_0103C1EC
@  #08 @011   ----------------------------------------
 .byte   PATT
  .word Label_0103C1B0
@  #08 @012   ----------------------------------------
 .byte   PATT
  .word Label_0103C1EC
@  #08 @013   ----------------------------------------
 .byte   PATT
  .word Label_0103C1B0
@  #08 @014   ----------------------------------------
 .byte   PATT
  .word Label_0103C1EC
@  #08 @015   ----------------------------------------
 .byte   W06
 .byte   N05 ,Fs2 ,v112
 .byte   W06
 .byte   En2
 .byte   W06
 .byte   Fs2
 .byte   W12
 .byte   N05
 .byte   W06
 .byte   En2
 .byte   W06
 .byte   Fs2
 .byte   W12
 .byte   N05
 .byte   W06
 .byte   N05
 .byte   W06
 .byte   N05
 .byte   W06
 .byte   N05
 .byte   W12
 .byte   N05
 .byte   W12
@  #08 @016   ----------------------------------------
 .byte   N05
 .byte   W06
 .byte   N05
 .byte   W06
 .byte   En2
 .byte   W06
 .byte   N11 ,Fs2
 .byte   W12
 .byte   An2
 .byte   W12
 .byte   N05 ,Fs2
 .byte   W06
 .byte   En2
 .byte   W06
 .byte   N11 ,Fs2
 .byte   W12
 .byte   An2
 .byte   W12
 .byte   N05 ,Fs2
 .byte   W06
 .byte   En2
 .byte   W06
 .byte   N08 ,Fs2
 .byte   W06
@  #08 @017   ----------------------------------------
 .byte   PATT
  .word Label_0103C1B0
@  #08 @018   ----------------------------------------
 .byte   PATT
  .word Label_0103C1EC
@  #08 @019   ----------------------------------------
 .byte   PATT
  .word Label_0103C1B0
@  #08 @020   ----------------------------------------
 .byte   PATT
  .word Label_0103C1EC
@  #08 @021   ----------------------------------------
 .byte   PATT
  .word Label_0103C1B0
@  #08 @022   ----------------------------------------
 .byte   PATT
  .word Label_0103C1EC
@  #08 @023   ----------------------------------------
 .byte   PATT
  .word Label_0103C1B0
@  #08 @024   ----------------------------------------
 .byte   N05 ,En2 ,v112
 .byte   W96
@  #08 @025   ----------------------------------------
 .byte   W96
@  #08 @026   ----------------------------------------
 .byte   W96
@  #08 @027   ----------------------------------------
 .byte   W96
@  #08 @028   ----------------------------------------
 .byte   W96
@  #08 @029   ----------------------------------------
 .byte   W96
@  #08 @030   ----------------------------------------
 .byte   W96
@  #08 @031   ----------------------------------------
 .byte   W96
@  #08 @032   ----------------------------------------
Label_0103C2AC:
 .byte   W06
 .byte   N05 ,Fs2 ,v112
 .byte   W06
 .byte   En2
 .byte   W06
 .byte   N11 ,Fs2
 .byte   W12
 .byte   An2
 .byte   W12
 .byte   N05 ,Fs2
 .byte   W06
 .byte   En2
 .byte   W06
 .byte   N11 ,Fs2
 .byte   W12
 .byte   An2
 .byte   W12
 .byte   N05 ,Fs2
 .byte   W06
 .byte   En2
 .byte   W06
 .byte   N08 ,Fs2
 .byte   W06
 .byte   PEND 
@  #08 @033   ----------------------------------------
 .byte   PATT
  .word Label_0103C1B0
@  #08 @034   ----------------------------------------
 .byte   PATT
  .word Label_0103C1EC
@  #08 @035   ----------------------------------------
 .byte   PATT
  .word Label_0103C1B0
@  #08 @036   ----------------------------------------
 .byte   PATT
  .word Label_0103C1EC
@  #08 @037   ----------------------------------------
 .byte   PATT
  .word Label_0103C1B0
@  #08 @038   ----------------------------------------
 .byte   PATT
  .word Label_0103C1EC
@  #08 @039   ----------------------------------------
 .byte   PATT
  .word Label_0103C1B0
@  #08 @040   ----------------------------------------
 .byte   N05 ,En2 ,v112
 .byte   W96
@  #08 @041   ----------------------------------------
 .byte   W96
@  #08 @042   ----------------------------------------
 .byte   W96
@  #08 @043   ----------------------------------------
 .byte   W96
@  #08 @044   ----------------------------------------
 .byte   W96
@  #08 @045   ----------------------------------------
 .byte   W96
@  #08 @046   ----------------------------------------
 .byte   W96
@  #08 @047   ----------------------------------------
 .byte   W96
@  #08 @048   ----------------------------------------
 .byte   W96
@  #08 @049   ----------------------------------------
 .byte   W96
@  #08 @050   ----------------------------------------
 .byte   W96
@  #08 @051   ----------------------------------------
 .byte   W96
@  #08 @052   ----------------------------------------
 .byte   W96
@  #08 @053   ----------------------------------------
 .byte   W96
@  #08 @054   ----------------------------------------
 .byte   W96
@  #08 @055   ----------------------------------------
 .byte   W96
@  #08 @056   ----------------------------------------
 .byte   W96
@  #08 @057   ----------------------------------------
 .byte   W96
@  #08 @058   ----------------------------------------
 .byte   W96
@  #08 @059   ----------------------------------------
 .byte   W96
@  #08 @060   ----------------------------------------
Label_0103C305:
 .byte   W06
 .byte   VOICE , 29
 .byte   PAN , c_v+63
 .byte   BEND , c_v-1
 .byte   N32 ,Fs0 ,v112
 .byte   W01
 .byte   BEND , c_v-1
 .byte   N32 ,Fs1
 .byte   W01
 .byte   BEND , c_v-1
 .byte   N32 ,Fs2
 .byte   W01
 .byte   BEND , c_v-2
 .byte   N32 ,Fs3 ,v052
 .byte   W01
 .byte   BEND , c_v-3
 .byte   W01
 .byte   BEND , c_v-4
 .byte   W01
 .byte   BEND , c_v-5
 .byte   W01
 .byte   BEND , c_v-7
 .byte   W01
 .byte   BEND , c_v-10
 .byte   W01
 .byte   BEND , c_v-12
 .byte   W01
 .byte   BEND , c_v-15
 .byte   W01
 .byte   BEND , c_v-17
 .byte   W01
 .byte   BEND , c_v-20
 .byte   W01
 .byte   BEND , c_v-22
 .byte   W01
 .byte   BEND , c_v-25
 .byte   W01
 .byte   BEND , c_v-32
 .byte   W01
 .byte   BEND , c_v-36
 .byte   W01
 .byte   BEND , c_v-40
 .byte   W01
 .byte   BEND , c_v-40
 .byte   W06
 .byte   BEND , c_v+0
 .byte   W12
 .byte   PAN , c_v-64
 .byte   BEND , c_v-1
 .byte   N32 ,Fs0 ,v112
 .byte   W01
 .byte   BEND , c_v-1
 .byte   N32 ,Fs1
 .byte   W01
 .byte   BEND , c_v-1
 .byte   N32 ,Fs2
 .byte   W01
 .byte   BEND , c_v-2
 .byte   N32 ,Fs3 ,v052
 .byte   W01
 .byte   BEND , c_v-3
 .byte   W01
 .byte   BEND , c_v-4
 .byte   W01
 .byte   BEND , c_v-5
 .byte   W01
 .byte   BEND , c_v-7
 .byte   W01
 .byte   BEND , c_v-10
 .byte   W01
 .byte   BEND , c_v-12
 .byte   W01
 .byte   BEND , c_v-15
 .byte   W01
 .byte   BEND , c_v-17
 .byte   W01
 .byte   BEND , c_v-20
 .byte   W01
 .byte   BEND , c_v-22
 .byte   W01
 .byte   BEND , c_v-25
 .byte   W01
 .byte   BEND , c_v-32
 .byte   W01
 .byte   BEND , c_v-36
 .byte   W01
 .byte   BEND , c_v-40
 .byte   W01
 .byte   BEND , c_v-40
 .byte   W06
 .byte   BEND , c_v+0
 .byte   W30
 .byte   PEND 
@  #08 @061   ----------------------------------------
Label_0103C37B:
 .byte   W06
 .byte   VOICE , 30
 .byte   PAN , c_v+0
 .byte   W12
 .byte   N05 ,Fs2 ,v112
 .byte   W06
 .byte   En2
 .byte   W06
 .byte   Fs2
 .byte   W12
 .byte   An2
 .byte   W12
 .byte   Fs2
 .byte   W06
 .byte   En2
 .byte   W06
 .byte   Fs2
 .byte   W12
 .byte   An2
 .byte   W12
 .byte   Fs2
 .byte   W06
 .byte   PEND 
@  #08 @062   ----------------------------------------
Label_0103C396:
 .byte   N05 ,En2 ,v112
 .byte   W06
 .byte   VOICE , 29
 .byte   PAN , c_v+63
 .byte   BEND , c_v-1
 .byte   N32 ,Fs0
 .byte   W01
 .byte   BEND , c_v-1
 .byte   N32 ,Fs1
 .byte   W01
 .byte   BEND , c_v-1
 .byte   N32 ,Fs2
 .byte   W01
 .byte   BEND , c_v-2
 .byte   N32 ,Fs3 ,v052
 .byte   W01
 .byte   BEND , c_v-3
 .byte   W01
 .byte   BEND , c_v-4
 .byte   W01
 .byte   BEND , c_v-5
 .byte   W01
 .byte   BEND , c_v-7
 .byte   W01
 .byte   BEND , c_v-10
 .byte   W01
 .byte   BEND , c_v-12
 .byte   W01
 .byte   BEND , c_v-15
 .byte   W01
 .byte   BEND , c_v-17
 .byte   W01
 .byte   BEND , c_v-20
 .byte   W01
 .byte   BEND , c_v-22
 .byte   W01
 .byte   BEND , c_v-25
 .byte   W01
 .byte   BEND , c_v-32
 .byte   W01
 .byte   BEND , c_v-36
 .byte   W01
 .byte   BEND , c_v-40
 .byte   W01
 .byte   BEND , c_v-40
 .byte   W06
 .byte   BEND , c_v+0
 .byte   W12
 .byte   PAN , c_v-64
 .byte   BEND , c_v-1
 .byte   N32 ,Fs0 ,v112
 .byte   W01
 .byte   BEND , c_v-1
 .byte   N32 ,Fs1
 .byte   W01
 .byte   BEND , c_v-1
 .byte   N32 ,Fs2
 .byte   W01
 .byte   BEND , c_v-2
 .byte   N32 ,Fs3 ,v052
 .byte   W01
 .byte   BEND , c_v-3
 .byte   W01
 .byte   BEND , c_v-4
 .byte   W01
 .byte   BEND , c_v-5
 .byte   W01
 .byte   BEND , c_v-7
 .byte   W01
 .byte   BEND , c_v-10
 .byte   W01
 .byte   BEND , c_v-12
 .byte   W01
 .byte   BEND , c_v-15
 .byte   W01
 .byte   BEND , c_v-17
 .byte   W01
 .byte   BEND , c_v-20
 .byte   W01
 .byte   BEND , c_v-22
 .byte   W01
 .byte   BEND , c_v-25
 .byte   W01
 .byte   BEND , c_v-32
 .byte   W01
 .byte   BEND , c_v-36
 .byte   W01
 .byte   BEND , c_v-40
 .byte   W01
 .byte   BEND , c_v-40
 .byte   W06
 .byte   BEND , c_v+0
 .byte   W30
 .byte   PEND 
@  #08 @063   ----------------------------------------
 .byte   PATT
  .word Label_0103C37B
@  #08 @064   ----------------------------------------
 .byte   PATT
  .word Label_0103C396
@  #08 @065   ----------------------------------------
 .byte   PATT
  .word Label_0103C37B
@  #08 @066   ----------------------------------------
 .byte   PATT
  .word Label_0103C396
@  #08 @067   ----------------------------------------
Label_0103C422:
 .byte   W06
 .byte   PAN , c_v+63
 .byte   BEND , c_v-1
 .byte   N32 ,Fs0 ,v112
 .byte   W01
 .byte   BEND , c_v-1
 .byte   N32 ,Fs1
 .byte   W01
 .byte   BEND , c_v-1
 .byte   N32 ,Fs2
 .byte   W01
 .byte   BEND , c_v-2
 .byte   N32 ,Fs3 ,v052
 .byte   W01
 .byte   BEND , c_v-3
 .byte   W01
 .byte   BEND , c_v-4
 .byte   W01
 .byte   BEND , c_v-5
 .byte   W01
 .byte   BEND , c_v-7
 .byte   W01
 .byte   BEND , c_v-10
 .byte   W01
 .byte   BEND , c_v-12
 .byte   W01
 .byte   BEND , c_v-15
 .byte   W01
 .byte   BEND , c_v-17
 .byte   W01
 .byte   BEND , c_v-20
 .byte   W01
 .byte   BEND , c_v-22
 .byte   W01
 .byte   BEND , c_v-25
 .byte   W01
 .byte   BEND , c_v-32
 .byte   W01
 .byte   BEND , c_v-36
 .byte   W01
 .byte   BEND , c_v-40
 .byte   W01
 .byte   BEND , c_v-40
 .byte   W06
 .byte   BEND , c_v+0
 .byte   W66
 .byte   PEND 
@  #08 @068   ----------------------------------------
Label_0103C45D:
 .byte   W06
 .byte   VOICE , 30
 .byte   PAN , c_v+0
 .byte   N05 ,Fs2 ,v112
 .byte   W06
 .byte   En2
 .byte   W06
 .byte   N11 ,Fs2
 .byte   W12
 .byte   An2
 .byte   W12
 .byte   N05 ,Fs2
 .byte   W06
 .byte   En2
 .byte   W06
 .byte   N11 ,Fs2
 .byte   W12
 .byte   An2
 .byte   W12
 .byte   N05 ,Fs2
 .byte   W06
 .byte   En2
 .byte   W06
 .byte   N08 ,Fs2
 .byte   W06
 .byte   PEND 
@  #08 @069   ----------------------------------------
 .byte   PATT
  .word Label_0103C1B0
@  #08 @070   ----------------------------------------
 .byte   PATT
  .word Label_0103C1EC
@  #08 @071   ----------------------------------------
 .byte   PATT
  .word Label_0103C1B0
@  #08 @072   ----------------------------------------
 .byte   PATT
  .word Label_0103C1EC
@  #08 @073   ----------------------------------------
 .byte   PATT
  .word Label_0103C1B0
@  #08 @074   ----------------------------------------
 .byte   PATT
  .word Label_0103C1EC
@  #08 @075   ----------------------------------------
 .byte   PATT
  .word Label_0103C1B0
@  #08 @076   ----------------------------------------
 .byte   N05 ,En2 ,v112
 .byte   W96
@  #08 @077   ----------------------------------------
 .byte   W96
@  #08 @078   ----------------------------------------
 .byte   W96
@  #08 @079   ----------------------------------------
 .byte   W96
@  #08 @080   ----------------------------------------
 .byte   W96
@  #08 @081   ----------------------------------------
 .byte   W96
@  #08 @082   ----------------------------------------
 .byte   W96
@  #08 @083   ----------------------------------------
 .byte   W96
@  #08 @084   ----------------------------------------
 .byte   PATT
  .word Label_0103C2AC
@  #08 @085   ----------------------------------------
 .byte   PATT
  .word Label_0103C1B0
@  #08 @086   ----------------------------------------
 .byte   PATT
  .word Label_0103C1EC
@  #08 @087   ----------------------------------------
 .byte   PATT
  .word Label_0103C1B0
@  #08 @088   ----------------------------------------
 .byte   PATT
  .word Label_0103C1EC
@  #08 @089   ----------------------------------------
 .byte   PATT
  .word Label_0103C1B0
@  #08 @090   ----------------------------------------
 .byte   PATT
  .word Label_0103C1EC
@  #08 @091   ----------------------------------------
 .byte   PATT
  .word Label_0103C1B0
@  #08 @092   ----------------------------------------
 .byte   N05 ,En2 ,v112
 .byte   W96
@  #08 @093   ----------------------------------------
 .byte   W96
@  #08 @094   ----------------------------------------
 .byte   W96
@  #08 @095   ----------------------------------------
 .byte   W96
@  #08 @096   ----------------------------------------
 .byte   W96
@  #08 @097   ----------------------------------------
 .byte   W96
@  #08 @098   ----------------------------------------
 .byte   W96
@  #08 @099   ----------------------------------------
 .byte   W96
@  #08 @100   ----------------------------------------
 .byte   W96
@  #08 @101   ----------------------------------------
 .byte   W96
@  #08 @102   ----------------------------------------
 .byte   W96
@  #08 @103   ----------------------------------------
 .byte   W96
@  #08 @104   ----------------------------------------
 .byte   W96
@  #08 @105   ----------------------------------------
 .byte   W96
@  #08 @106   ----------------------------------------
 .byte   W96
@  #08 @107   ----------------------------------------
 .byte   W96
@  #08 @108   ----------------------------------------
 .byte   W96
@  #08 @109   ----------------------------------------
 .byte   W96
@  #08 @110   ----------------------------------------
 .byte   W96
@  #08 @111   ----------------------------------------
 .byte   W96
@  #08 @112   ----------------------------------------
 .byte   PATT
  .word Label_0103C305
@  #08 @113   ----------------------------------------
 .byte   PATT
  .word Label_0103C37B
@  #08 @114   ----------------------------------------
 .byte   PATT
  .word Label_0103C396
@  #08 @115   ----------------------------------------
 .byte   PATT
  .word Label_0103C37B
@  #08 @116   ----------------------------------------
 .byte   PATT
  .word Label_0103C396
@  #08 @117   ----------------------------------------
 .byte   PATT
  .word Label_0103C37B
@  #08 @118   ----------------------------------------
 .byte   PATT
  .word Label_0103C396
@  #08 @119   ----------------------------------------
 .byte   PATT
  .word Label_0103C422
@  #08 @120   ----------------------------------------
 .byte   GOTO
  .word Label_0103C45D
@  #08 @121   ----------------------------------------
 .byte   PATT
  .word Label_0103C45D
@  #08 @122   ----------------------------------------
 .byte   PATT
  .word Label_0103C1B0
@  #08 @123   ----------------------------------------
 .byte   PATT
  .word Label_0103C1EC
@  #08 @124   ----------------------------------------
 .byte   PATT
  .word Label_0103C1B0
@  #08 @125   ----------------------------------------
 .byte   PATT
  .word Label_0103C1EC
@  #08 @126   ----------------------------------------
 .byte   PATT
  .word Label_0103C1B0
@  #08 @127   ----------------------------------------
 .byte   PATT
  .word Label_0103C1EC
@  #08 @128   ----------------------------------------
 .byte   PATT
  .word Label_0103C1B0
@  #08 @129   ----------------------------------------
 .byte   N05 ,En2 ,v112
 .byte   W96
@  #08 @130   ----------------------------------------
 .byte   W96
@  #08 @131   ----------------------------------------
 .byte   BEND , c_v+0
 .byte   W96
@  #08 @132   ----------------------------------------
 .byte   W96
@  #08 @133   ----------------------------------------
 .byte   BEND , c_v+0
 .byte   FINE

@**************** Track 9 (Midi-Chn.8) ****************@

song09_009:
@  #09 @000   ----------------------------------------
 .byte   KEYSH , song09_key+0
 .byte   VOICE , 103
 .byte   MODT 0
 .byte   LFOS 44
 .byte   BENDR, 12
 .byte   PAN , c_v+0
 .byte   VOL , 14*song09_mvl/mxv
 .byte   MODT 0
 .byte   LFOS 44
 .byte   W96
@  #09 @001   ----------------------------------------
 .byte   W96
@  #09 @002   ----------------------------------------
 .byte   W96
@  #09 @003   ----------------------------------------
 .byte   W96
@  #09 @004   ----------------------------------------
 .byte   W96
@  #09 @005   ----------------------------------------
 .byte   W96
@  #09 @006   ----------------------------------------
 .byte   W96
@  #09 @007   ----------------------------------------
 .byte   W96
@  #09 @008   ----------------------------------------
 .byte   W96
@  #09 @009   ----------------------------------------
 .byte   W96
@  #09 @010   ----------------------------------------
 .byte   W96
@  #09 @011   ----------------------------------------
 .byte   W96
@  #09 @012   ----------------------------------------
 .byte   W96
@  #09 @013   ----------------------------------------
 .byte   W96
@  #09 @014   ----------------------------------------
 .byte   W96
@  #09 @015   ----------------------------------------
 .byte   W96
@  #09 @016   ----------------------------------------
 .byte   W96
@  #09 @017   ----------------------------------------
 .byte   W96
@  #09 @018   ----------------------------------------
 .byte   W96
@  #09 @019   ----------------------------------------
 .byte   W96
@  #09 @020   ----------------------------------------
 .byte   W96
@  #09 @021   ----------------------------------------
 .byte   W96
@  #09 @022   ----------------------------------------
 .byte   W96
@  #09 @023   ----------------------------------------
 .byte   W96
@  #09 @024   ----------------------------------------
Label_0121C9C2:
 .byte   N05 ,Gs2 ,v088
 .byte   W06
 .byte   Ds3
 .byte   W06
 .byte   Gs3
 .byte   W06
 .byte   Gs2
 .byte   W06
 .byte   Ds3
 .byte   W06
 .byte   Gs3
 .byte   W06
 .byte   Gs2
 .byte   W06
 .byte   Ds3
 .byte   W06
 .byte   Gs3
 .byte   W06
 .byte   Gs2
 .byte   W06
 .byte   Ds3
 .byte   W06
 .byte   Gs3
 .byte   W06
 .byte   Gs2
 .byte   W06
 .byte   Ds3
 .byte   W06
 .byte   Gs3
 .byte   W06
 .byte   Gs2
 .byte   W06
 .byte   PEND 
@  #09 @025   ----------------------------------------
Label_0121C9E5:
 .byte   N05 ,Fs2 ,v088
 .byte   W06
 .byte   Cs3
 .byte   W06
 .byte   Fs3
 .byte   W06
 .byte   Fs2
 .byte   W06
 .byte   Cs3
 .byte   W06
 .byte   Fs3
 .byte   W06
 .byte   Fs2
 .byte   W06
 .byte   Cs3
 .byte   W06
 .byte   Fs3
 .byte   W06
 .byte   Fs2
 .byte   W06
 .byte   Cs3
 .byte   W06
 .byte   Fs3
 .byte   W06
 .byte   Fs2
 .byte   W06
 .byte   Cs3
 .byte   W06
 .byte   Fs3
 .byte   W06
 .byte   Fs2
 .byte   W06
 .byte   PEND 
@  #09 @026   ----------------------------------------
Label_0121CA08:
 .byte   N05 ,En2 ,v088
 .byte   W06
 .byte   Bn2
 .byte   W06
 .byte   En3
 .byte   W06
 .byte   En2
 .byte   W06
 .byte   Bn2
 .byte   W06
 .byte   En3
 .byte   W06
 .byte   En2
 .byte   W06
 .byte   Bn2
 .byte   W06
 .byte   En3
 .byte   W06
 .byte   En2
 .byte   W06
 .byte   Bn2
 .byte   W06
 .byte   En3
 .byte   W06
 .byte   En2
 .byte   W06
 .byte   Bn2
 .byte   W06
 .byte   En3
 .byte   W06
 .byte   En2
 .byte   W06
 .byte   PEND 
@  #09 @027   ----------------------------------------
 .byte   PATT
  .word Label_0121C9E5
@  #09 @028   ----------------------------------------
Label_0121CA30:
 .byte   N05 ,Gs2 ,v088
 .byte   W06
 .byte   Gs3
 .byte   W06
 .byte   Gs2
 .byte   W06
 .byte   N05
 .byte   W06
 .byte   Gs3
 .byte   W06
 .byte   Gs2
 .byte   W06
 .byte   Ds3
 .byte   W06
 .byte   Gs3
 .byte   W06
 .byte   Gs2
 .byte   W06
 .byte   Gs3
 .byte   W06
 .byte   Gs2
 .byte   W06
 .byte   N05
 .byte   W06
 .byte   Gs3
 .byte   W06
 .byte   Gs2
 .byte   W06
 .byte   N05
 .byte   W06
 .byte   Gs3
 .byte   W06
 .byte   PEND 
@  #09 @029   ----------------------------------------
Label_0121CA53:
 .byte   N05 ,Fs2 ,v088
 .byte   W06
 .byte   Fs3
 .byte   W06
 .byte   Fs2
 .byte   W06
 .byte   N05
 .byte   W06
 .byte   Fs3
 .byte   W06
 .byte   Fs2
 .byte   W06
 .byte   Cs3
 .byte   W06
 .byte   Fs3
 .byte   W06
 .byte   Fs2
 .byte   W06
 .byte   Fs3
 .byte   W06
 .byte   Fs2
 .byte   W06
 .byte   N05
 .byte   W06
 .byte   Fs3
 .byte   W06
 .byte   Fs2
 .byte   W06
 .byte   N05
 .byte   W06
 .byte   Fs3
 .byte   W06
 .byte   PEND 
@  #09 @030   ----------------------------------------
Label_0121CA76:
 .byte   N05 ,En2 ,v088
 .byte   W06
 .byte   En3
 .byte   W06
 .byte   En2
 .byte   W06
 .byte   N05
 .byte   W06
 .byte   En3
 .byte   W06
 .byte   En2
 .byte   W06
 .byte   Bn2
 .byte   W06
 .byte   En3
 .byte   W06
 .byte   En2
 .byte   W06
 .byte   En3
 .byte   W06
 .byte   En2
 .byte   W06
 .byte   N05
 .byte   W06
 .byte   En3
 .byte   W06
 .byte   En2
 .byte   W06
 .byte   N05
 .byte   W06
 .byte   En3
 .byte   W06
 .byte   PEND 
@  #09 @031   ----------------------------------------
Label_0121CA99:
 .byte   N05 ,Fs2 ,v088
 .byte   W06
 .byte   Fs3
 .byte   W06
 .byte   Fs2
 .byte   W06
 .byte   N05
 .byte   W06
 .byte   Fs3
 .byte   W06
 .byte   Fs2
 .byte   W06
 .byte   Cs3
 .byte   W06
 .byte   Fs3
 .byte   W06
 .byte   Gs2
 .byte   W06
 .byte   Gs3
 .byte   W06
 .byte   Gs2
 .byte   W06
 .byte   N05
 .byte   W06
 .byte   Gs3
 .byte   W06
 .byte   Gs2
 .byte   W06
 .byte   Ds3
 .byte   W06
 .byte   Gs3
 .byte   W06
 .byte   PEND 
@  #09 @032   ----------------------------------------
 .byte   W96
@  #09 @033   ----------------------------------------
 .byte   W96
@  #09 @034   ----------------------------------------
 .byte   W96
@  #09 @035   ----------------------------------------
 .byte   W96
@  #09 @036   ----------------------------------------
 .byte   W96
@  #09 @037   ----------------------------------------
 .byte   W96
@  #09 @038   ----------------------------------------
 .byte   W96
@  #09 @039   ----------------------------------------
 .byte   W96
@  #09 @040   ----------------------------------------
 .byte   W96
@  #09 @041   ----------------------------------------
 .byte   W96
@  #09 @042   ----------------------------------------
 .byte   W96
@  #09 @043   ----------------------------------------
 .byte   W96
@  #09 @044   ----------------------------------------
 .byte   W96
@  #09 @045   ----------------------------------------
 .byte   W96
@  #09 @046   ----------------------------------------
 .byte   W96
@  #09 @047   ----------------------------------------
 .byte   W96
@  #09 @048   ----------------------------------------
 .byte   W96
@  #09 @049   ----------------------------------------
 .byte   W96
@  #09 @050   ----------------------------------------
 .byte   W96
@  #09 @051   ----------------------------------------
 .byte   W96
@  #09 @052   ----------------------------------------
 .byte   W96
@  #09 @053   ----------------------------------------
 .byte   W96
@  #09 @054   ----------------------------------------
 .byte   W96
@  #09 @055   ----------------------------------------
 .byte   W96
@  #09 @056   ----------------------------------------
 .byte   W96
@  #09 @057   ----------------------------------------
 .byte   W96
@  #09 @058   ----------------------------------------
 .byte   W96
@  #09 @059   ----------------------------------------
 .byte   W96
@  #09 @060   ----------------------------------------
 .byte   W96
@  #09 @061   ----------------------------------------
 .byte   W96
@  #09 @062   ----------------------------------------
 .byte   W96
@  #09 @063   ----------------------------------------
 .byte   W96
@  #09 @064   ----------------------------------------
 .byte   W96
@  #09 @065   ----------------------------------------
 .byte   W96
@  #09 @066   ----------------------------------------
 .byte   W96
@  #09 @067   ----------------------------------------
 .byte   W96
@  #09 @068   ----------------------------------------
Label_0121CAE0:
 .byte   W96
@  #09 @069   ----------------------------------------
 .byte   W96
@  #09 @070   ----------------------------------------
 .byte   W96
@  #09 @071   ----------------------------------------
 .byte   W96
@  #09 @072   ----------------------------------------
 .byte   W96
@  #09 @073   ----------------------------------------
 .byte   W96
@  #09 @074   ----------------------------------------
 .byte   W96
@  #09 @075   ----------------------------------------
 .byte   W96
@  #09 @076   ----------------------------------------
 .byte   PATT
  .word Label_0121C9C2
@  #09 @077   ----------------------------------------
 .byte   PATT
  .word Label_0121C9E5
@  #09 @078   ----------------------------------------
 .byte   PATT
  .word Label_0121CA08
@  #09 @079   ----------------------------------------
 .byte   PATT
  .word Label_0121C9E5
@  #09 @080   ----------------------------------------
 .byte   PATT
  .word Label_0121CA30
@  #09 @081   ----------------------------------------
 .byte   PATT
  .word Label_0121CA53
@  #09 @082   ----------------------------------------
 .byte   PATT
  .word Label_0121CA76
@  #09 @083   ----------------------------------------
 .byte   PATT
  .word Label_0121CA99
@  #09 @084   ----------------------------------------
 .byte   W96
@  #09 @085   ----------------------------------------
 .byte   W96
@  #09 @086   ----------------------------------------
 .byte   W96
@  #09 @087   ----------------------------------------
 .byte   W96
@  #09 @088   ----------------------------------------
 .byte   W96
@  #09 @089   ----------------------------------------
 .byte   W96
@  #09 @090   ----------------------------------------
 .byte   W96
@  #09 @091   ----------------------------------------
 .byte   W96
@  #09 @092   ----------------------------------------
 .byte   W96
@  #09 @093   ----------------------------------------
 .byte   W96
@  #09 @094   ----------------------------------------
 .byte   W96
@  #09 @095   ----------------------------------------
 .byte   W96
@  #09 @096   ----------------------------------------
 .byte   W96
@  #09 @097   ----------------------------------------
 .byte   W96
@  #09 @098   ----------------------------------------
 .byte   W96
@  #09 @099   ----------------------------------------
 .byte   W96
@  #09 @100   ----------------------------------------
 .byte   W96
@  #09 @101   ----------------------------------------
 .byte   W96
@  #09 @102   ----------------------------------------
 .byte   W96
@  #09 @103   ----------------------------------------
 .byte   W96
@  #09 @104   ----------------------------------------
 .byte   W96
@  #09 @105   ----------------------------------------
 .byte   W96
@  #09 @106   ----------------------------------------
 .byte   W96
@  #09 @107   ----------------------------------------
 .byte   W96
@  #09 @108   ----------------------------------------
 .byte   W96
@  #09 @109   ----------------------------------------
 .byte   W96
@  #09 @110   ----------------------------------------
 .byte   W96
@  #09 @111   ----------------------------------------
 .byte   W96
@  #09 @112   ----------------------------------------
 .byte   W96
@  #09 @113   ----------------------------------------
 .byte   W96
@  #09 @114   ----------------------------------------
 .byte   W96
@  #09 @115   ----------------------------------------
 .byte   W96
@  #09 @116   ----------------------------------------
 .byte   W96
@  #09 @117   ----------------------------------------
 .byte   W96
@  #09 @118   ----------------------------------------
 .byte   W96
@  #09 @119   ----------------------------------------
 .byte   W96
@  #09 @120   ----------------------------------------
 .byte   GOTO
  .word Label_0121CAE0
@  #09 @121   ----------------------------------------
 .byte   W09
 .byte   VOL , 13*song09_mvl/mxv
 .byte   W28
 .byte   W01
 .byte   VOL , 12*song09_mvl/mxv
 .byte   W10
 .byte   VOL , 12*song09_mvl/mxv
 .byte   W19
 .byte   VOL , 11*song09_mvl/mxv
 .byte   W09
 .byte   VOL , 10*song09_mvl/mxv
 .byte   W20
@  #09 @122   ----------------------------------------
 .byte   VOL , 10*song09_mvl/mxv
 .byte   W19
 .byte   VOL , 9*song09_mvl/mxv
 .byte   W19
 .byte   VOL , 9*song09_mvl/mxv
 .byte   W28
 .byte   W01
 .byte   VOL , 8*song09_mvl/mxv
 .byte   W09
 .byte   VOL , 7*song09_mvl/mxv
 .byte   W10
 .byte   VOL , 7*song09_mvl/mxv
 .byte   W10
@  #09 @123   ----------------------------------------
 .byte   VOL , 6*song09_mvl/mxv
 .byte   W28
 .byte   VOL , 6*song09_mvl/mxv
 .byte   W28
 .byte   W01
 .byte   VOL , 5*song09_mvl/mxv
 .byte   W10
 .byte   VOL , 5*song09_mvl/mxv
 .byte   W19
 .byte   VOL , 4*song09_mvl/mxv
 .byte   W10
@  #09 @124   ----------------------------------------
 .byte   W19
 .byte   VOL , 4*song09_mvl/mxv
 .byte   W19
 .byte   VOL , 3*song09_mvl/mxv
 .byte   W28
 .byte   W01
 .byte   VOL , 3*song09_mvl/mxv
 .byte   W09
 .byte   VOL , 3*song09_mvl/mxv
 .byte   W20
@  #09 @125   ----------------------------------------
 .byte   W09
 .byte   VOL , 2*song09_mvl/mxv
 .byte   W19
 .byte   VOL , 2*song09_mvl/mxv
 .byte   W28
 .byte   W01
 .byte   VOL , 1*song09_mvl/mxv
 .byte   W10
 .byte   VOL , 1*song09_mvl/mxv
 .byte   W28
 .byte   W01
@  #09 @126   ----------------------------------------
 .byte   W09
 .byte   VOL , 1*song09_mvl/mxv
 .byte   W36
 .byte   W03
 .byte   VOL , 1*song09_mvl/mxv
 .byte   W09
 .byte   VOL , 0*song09_mvl/mxv
 .byte   W36
 .byte   W03
@  #09 @127   ----------------------------------------
 .byte   VOL , 0*song09_mvl/mxv
 .byte   W09
 .byte   VOL , 0*song09_mvl/mxv
 .byte   W48
 .byte   VOL , 0*song09_mvl/mxv
 .byte   W36
 .byte   W03
@  #09 @128   ----------------------------------------
 .byte   VOL , 0*song09_mvl/mxv
 .byte   W28
 .byte   VOL , 0*song09_mvl/mxv
 .byte   W48
 .byte   VOL , 0*song09_mvl/mxv
 .byte   W20
@  #09 @129   ----------------------------------------
 .byte   N05 ,Gs2 ,v088
 .byte   W06
 .byte   Ds3
 .byte   W03
 .byte   VOL , 0*song09_mvl/mxv
 .byte   W03
 .byte   N05 ,Gs3
 .byte   W06
 .byte   Gs2
 .byte   W06
 .byte   Ds3
 .byte   W06
 .byte   Gs3
 .byte   W06
 .byte   Gs2
 .byte   W06
 .byte   Ds3
 .byte   W06
 .byte   Gs3
 .byte   W06
 .byte   Gs2
 .byte   W06
 .byte   Ds3
 .byte   W06
 .byte   Gs3
 .byte   W06
 .byte   Gs2
 .byte   W06
 .byte   Ds3
 .byte   W06
 .byte   Gs3
 .byte   W02
 .byte   VOL , 0*song09_mvl/mxv
 .byte   W04
 .byte   N05 ,Gs2
 .byte   W06
@  #09 @130   ----------------------------------------
 .byte   PATT
  .word Label_0121C9E5
@  #09 @131   ----------------------------------------
 .byte   W96
@  #09 @132   ----------------------------------------
 .byte   W96
 .byte   FINE

@**************** Track 10 (Midi-Chn.9) ****************@

song09_010:
@  #10 @000   ----------------------------------------
 .byte   KEYSH , song09_key+0
 .byte   VOICE , 36
 .byte   MODT 0
 .byte   LFOS 44
 .byte   VOL , 12*song09_mvl/mxv
 .byte   BENDR, 12
 .byte   PAN , c_v+0
 .byte   MODT 0
 .byte   LFOS 44
 .byte   BEND , c_v-64
 .byte   W96
@  #10 @001   ----------------------------------------
 .byte   N11 ,Dn2 ,v088
 .byte   W96
@  #10 @002   ----------------------------------------
 .byte   W96
@  #10 @003   ----------------------------------------
 .byte   N11
 .byte   W96
@  #10 @004   ----------------------------------------
 .byte   W96
@  #10 @005   ----------------------------------------
 .byte   N11
 .byte   W96
@  #10 @006   ----------------------------------------
 .byte   W96
@  #10 @007   ----------------------------------------
 .byte   N11
 .byte   W96
@  #10 @008   ----------------------------------------
 .byte   W96
@  #10 @009   ----------------------------------------
 .byte   W96
@  #10 @010   ----------------------------------------
 .byte   W96
@  #10 @011   ----------------------------------------
 .byte   W96
@  #10 @012   ----------------------------------------
 .byte   W96
@  #10 @013   ----------------------------------------
 .byte   W96
@  #10 @014   ----------------------------------------
 .byte   W96
@  #10 @015   ----------------------------------------
 .byte   W96
@  #10 @016   ----------------------------------------
 .byte   W96
@  #10 @017   ----------------------------------------
 .byte   W96
@  #10 @018   ----------------------------------------
 .byte   W96
@  #10 @019   ----------------------------------------
 .byte   W96
@  #10 @020   ----------------------------------------
 .byte   W96
@  #10 @021   ----------------------------------------
 .byte   W96
@  #10 @022   ----------------------------------------
 .byte   W96
@  #10 @023   ----------------------------------------
 .byte   W96
@  #10 @024   ----------------------------------------
 .byte   W96
@  #10 @025   ----------------------------------------
 .byte   W96
@  #10 @026   ----------------------------------------
 .byte   W96
@  #10 @027   ----------------------------------------
 .byte   W96
@  #10 @028   ----------------------------------------
 .byte   W96
@  #10 @029   ----------------------------------------
 .byte   W96
@  #10 @030   ----------------------------------------
 .byte   W96
@  #10 @031   ----------------------------------------
 .byte   W96
@  #10 @032   ----------------------------------------
 .byte   W96
@  #10 @033   ----------------------------------------
 .byte   W96
@  #10 @034   ----------------------------------------
 .byte   W96
@  #10 @035   ----------------------------------------
 .byte   W96
@  #10 @036   ----------------------------------------
 .byte   W96
@  #10 @037   ----------------------------------------
 .byte   W96
@  #10 @038   ----------------------------------------
 .byte   W96
@  #10 @039   ----------------------------------------
Label_0121CDB1:
 .byte   N05 ,Bn2 ,v127
 .byte   W06
 .byte   N05
 .byte   W06
 .byte   An2
 .byte   W06
 .byte   N05
 .byte   W06
 .byte   N11 ,Gn2
 .byte   W12
 .byte   N05 ,Bn2
 .byte   W06
 .byte   N05
 .byte   W06
 .byte   An2
 .byte   W06
 .byte   N05
 .byte   W06
 .byte   N11 ,Gn2
 .byte   W12
 .byte   N05 ,An2
 .byte   W06
 .byte   Cn3
 .byte   W06
 .byte   N05
 .byte   W06
 .byte   An2
 .byte   W06
 .byte   PEND 
@  #10 @040   ----------------------------------------
 .byte   W96
@  #10 @041   ----------------------------------------
 .byte   W96
@  #10 @042   ----------------------------------------
 .byte   W96
@  #10 @043   ----------------------------------------
 .byte   W96
@  #10 @044   ----------------------------------------
 .byte   W96
@  #10 @045   ----------------------------------------
 .byte   W96
@  #10 @046   ----------------------------------------
 .byte   W96
@  #10 @047   ----------------------------------------
 .byte   W96
@  #10 @048   ----------------------------------------
 .byte   W96
@  #10 @049   ----------------------------------------
 .byte   W96
@  #10 @050   ----------------------------------------
 .byte   W96
@  #10 @051   ----------------------------------------
 .byte   W96
@  #10 @052   ----------------------------------------
 .byte   W96
@  #10 @053   ----------------------------------------
 .byte   W96
@  #10 @054   ----------------------------------------
 .byte   W96
@  #10 @055   ----------------------------------------
 .byte   W96
@  #10 @056   ----------------------------------------
 .byte   W96
@  #10 @057   ----------------------------------------
 .byte   W96
@  #10 @058   ----------------------------------------
 .byte   W96
@  #10 @059   ----------------------------------------
 .byte   W96
@  #10 @060   ----------------------------------------
 .byte   W96
@  #10 @061   ----------------------------------------
 .byte   W96
@  #10 @062   ----------------------------------------
 .byte   W96
@  #10 @063   ----------------------------------------
 .byte   W96
@  #10 @064   ----------------------------------------
 .byte   W96
@  #10 @065   ----------------------------------------
 .byte   W96
@  #10 @066   ----------------------------------------
 .byte   W96
@  #10 @067   ----------------------------------------
Label_0121CDEF:
 .byte   W72
 .byte   N05 ,Bn2 ,v127
 .byte   W06
 .byte   Gn2
 .byte   W06
 .byte   N05
 .byte   W06
 .byte   Fn2
 .byte   W06
 .byte   PEND 
@  #10 @068   ----------------------------------------
Label_0121CDFB:
 .byte   W96
@  #10 @069   ----------------------------------------
 .byte   W96
@  #10 @070   ----------------------------------------
 .byte   W96
@  #10 @071   ----------------------------------------
 .byte   W96
@  #10 @072   ----------------------------------------
 .byte   W96
@  #10 @073   ----------------------------------------
 .byte   W96
@  #10 @074   ----------------------------------------
 .byte   W96
@  #10 @075   ----------------------------------------
 .byte   W96
@  #10 @076   ----------------------------------------
 .byte   W96
@  #10 @077   ----------------------------------------
 .byte   W96
@  #10 @078   ----------------------------------------
 .byte   W96
@  #10 @079   ----------------------------------------
 .byte   W96
@  #10 @080   ----------------------------------------
 .byte   W96
@  #10 @081   ----------------------------------------
 .byte   W96
@  #10 @082   ----------------------------------------
 .byte   W96
@  #10 @083   ----------------------------------------
 .byte   W96
@  #10 @084   ----------------------------------------
 .byte   W96
@  #10 @085   ----------------------------------------
 .byte   W96
@  #10 @086   ----------------------------------------
 .byte   W96
@  #10 @087   ----------------------------------------
 .byte   W96
@  #10 @088   ----------------------------------------
 .byte   W96
@  #10 @089   ----------------------------------------
 .byte   W96
@  #10 @090   ----------------------------------------
 .byte   W96
@  #10 @091   ----------------------------------------
 .byte   PATT
  .word Label_0121CDB1
@  #10 @092   ----------------------------------------
 .byte   W96
@  #10 @093   ----------------------------------------
 .byte   W96
@  #10 @094   ----------------------------------------
 .byte   W96
@  #10 @095   ----------------------------------------
 .byte   W96
@  #10 @096   ----------------------------------------
 .byte   W96
@  #10 @097   ----------------------------------------
 .byte   W96
@  #10 @098   ----------------------------------------
 .byte   W96
@  #10 @099   ----------------------------------------
 .byte   W96
@  #10 @100   ----------------------------------------
 .byte   W96
@  #10 @101   ----------------------------------------
 .byte   W96
@  #10 @102   ----------------------------------------
 .byte   W96
@  #10 @103   ----------------------------------------
 .byte   W96
@  #10 @104   ----------------------------------------
 .byte   W96
@  #10 @105   ----------------------------------------
 .byte   W96
@  #10 @106   ----------------------------------------
 .byte   W96
@  #10 @107   ----------------------------------------
 .byte   W96
@  #10 @108   ----------------------------------------
 .byte   W96
@  #10 @109   ----------------------------------------
 .byte   W96
@  #10 @110   ----------------------------------------
 .byte   W96
@  #10 @111   ----------------------------------------
 .byte   W96
@  #10 @112   ----------------------------------------
 .byte   W96
@  #10 @113   ----------------------------------------
 .byte   W96
@  #10 @114   ----------------------------------------
 .byte   W96
@  #10 @115   ----------------------------------------
 .byte   W96
@  #10 @116   ----------------------------------------
 .byte   W96
@  #10 @117   ----------------------------------------
 .byte   W96
@  #10 @118   ----------------------------------------
 .byte   W96
@  #10 @119   ----------------------------------------
 .byte   PATT
  .word Label_0121CDEF
@  #10 @120   ----------------------------------------
 .byte   GOTO
  .word Label_0121CDFB
@  #10 @121   ----------------------------------------
 .byte   W96
@  #10 @122   ----------------------------------------
 .byte   W96
@  #10 @123   ----------------------------------------
 .byte   W96
@  #10 @124   ----------------------------------------
 .byte   W96
@  #10 @125   ----------------------------------------
 .byte   W96
@  #10 @126   ----------------------------------------
 .byte   W96
@  #10 @127   ----------------------------------------
 .byte   W96
@  #10 @128   ----------------------------------------
 .byte   W96
@  #10 @129   ----------------------------------------
 .byte   W96
@  #10 @130   ----------------------------------------
 .byte   W96
@  #10 @131   ----------------------------------------
 .byte   BEND , c_v+0
 .byte   W96
@  #10 @132   ----------------------------------------
 .byte   W96
@  #10 @133   ----------------------------------------
 .byte   BEND , c_v+0
 .byte   FINE

@**************** Track 11 (Midi-Chn.10) ****************@

song09_011:
@  #11 @000   ----------------------------------------
 .byte   KEYSH , song09_key+0
 .byte   VOICE , 127
 .byte   MODT 0
 .byte   LFOS 44
 .byte   VOL , 26*song09_mvl/mxv
 .byte   BENDR, 12
 .byte   PAN , c_v+0
 .byte   MODT 0
 .byte   LFOS 44
 .byte   N11 ,Cn1 ,v112
 .byte   N11 ,Cs2 ,v088
 .byte   W01
 .byte   An2
 .byte   W92
 .byte   W03
@  #11 @001   ----------------------------------------
Label_01237F00:
 .byte   N11 ,Cn1 ,v112
 .byte   N11 ,En1 ,v088
 .byte   W96
 .byte   PEND 
@  #11 @002   ----------------------------------------
Label_01237F08:
 .byte   N11 ,Cn1 ,v112
 .byte   N11 ,Cs2 ,v088
 .byte   W01
 .byte   An2
 .byte   W92
 .byte   W03
 .byte   PEND 
@  #11 @003   ----------------------------------------
 .byte   PATT
  .word Label_01237F00
@  #11 @004   ----------------------------------------
 .byte   PATT
  .word Label_01237F08
@  #11 @005   ----------------------------------------
 .byte   PATT
  .word Label_01237F00
@  #11 @006   ----------------------------------------
 .byte   PATT
  .word Label_01237F08
@  #11 @007   ----------------------------------------
 .byte   PATT
  .word Label_01237F00
@  #11 @008   ----------------------------------------
Label_01237F2C:
 .byte   N11 ,Cn1 ,v112
 .byte   N11 ,Dn1 ,v004
 .byte   N11 ,Fs1 ,v088
 .byte   N11 ,Cs2
 .byte   W01
 .byte   An2
 .byte   W11
 .byte   N05 ,Dn1 ,v004
 .byte   N05 ,Fs1 ,v088
 .byte   W06
 .byte   Cn1 ,v112
 .byte   N05 ,Dn1 ,v004
 .byte   N05 ,Fs1 ,v088
 .byte   W06
 .byte   N11 ,Dn1 ,v036
 .byte   N11 ,As1 ,v088
 .byte   W12
 .byte   Cn1 ,v112
 .byte   N05 ,Dn1 ,v004
 .byte   N05 ,Fs1 ,v088
 .byte   W06
 .byte   Dn1 ,v004
 .byte   N05 ,Fs1 ,v088
 .byte   W06
 .byte   Dn1 ,v004
 .byte   N05 ,Fs1 ,v088
 .byte   W06
 .byte   Cn1 ,v112
 .byte   N05 ,Dn1 ,v004
 .byte   N05 ,Fs1 ,v088
 .byte   W06
 .byte   N11 ,Dn1 ,v036
 .byte   N11 ,As1 ,v088
 .byte   W12
 .byte   N05 ,Dn1 ,v004
 .byte   N05 ,Fs1 ,v088
 .byte   W06
 .byte   Dn1 ,v004
 .byte   N11 ,As1 ,v088
 .byte   W06
 .byte   Dn1 ,v036
 .byte   W12
 .byte   PEND 
@  #11 @009   ----------------------------------------
Label_01237F87:
 .byte   N11 ,Cn1 ,v112
 .byte   N11 ,Dn1 ,v004
 .byte   N11 ,Fs1 ,v088
 .byte   W12
 .byte   N05 ,Dn1 ,v004
 .byte   N05 ,Fs1 ,v088
 .byte   W06
 .byte   Cn1 ,v112
 .byte   N05 ,Dn1 ,v004
 .byte   N05 ,Fs1 ,v088
 .byte   W06
 .byte   N11 ,Dn1 ,v036
 .byte   N11 ,As1 ,v088
 .byte   W12
 .byte   Cn1 ,v112
 .byte   N05 ,Dn1 ,v004
 .byte   N05 ,Fs1 ,v088
 .byte   W06
 .byte   Dn1 ,v004
 .byte   N05 ,Fs1 ,v088
 .byte   W06
 .byte   Dn1 ,v004
 .byte   N05 ,Fs1 ,v088
 .byte   W06
 .byte   Cn1 ,v112
 .byte   N05 ,Dn1 ,v004
 .byte   N05 ,Fs1 ,v088
 .byte   W06
 .byte   N11 ,Dn1 ,v036
 .byte   N11 ,As1 ,v088
 .byte   W12
 .byte   N05 ,Dn1 ,v004
 .byte   N05 ,Fs1 ,v088
 .byte   W06
 .byte   Dn1 ,v004
 .byte   N11 ,As1 ,v088
 .byte   W06
 .byte   Dn1 ,v036
 .byte   W12
 .byte   PEND 
@  #11 @010   ----------------------------------------
 .byte   PATT
  .word Label_01237F2C
@  #11 @011   ----------------------------------------
 .byte   PATT
  .word Label_01237F87
@  #11 @012   ----------------------------------------
 .byte   PATT
  .word Label_01237F2C
@  #11 @013   ----------------------------------------
 .byte   PATT
  .word Label_01237F87
@  #11 @014   ----------------------------------------
 .byte   PATT
  .word Label_01237F2C
@  #11 @015   ----------------------------------------
 .byte   N11 ,Cn1 ,v112
 .byte   N11 ,Dn1 ,v004
 .byte   N11 ,Cs2 ,v088
 .byte   W01
 .byte   An2
 .byte   W23
 .byte   Cn1 ,v112
 .byte   N11 ,Dn1 ,v004
 .byte   N11 ,Cs2 ,v088
 .byte   W01
 .byte   An2
 .byte   W23
 .byte   N05 ,Cn1 ,v112
 .byte   N05 ,Dn1 ,v004
 .byte   N05 ,Cs2 ,v088
 .byte   W01
 .byte   An2
 .byte   W05
 .byte   Cn1 ,v112
 .byte   N05 ,Dn1 ,v004
 .byte   N05 ,Cs2 ,v088
 .byte   W01
 .byte   An2
 .byte   W05
 .byte   Cn1 ,v112
 .byte   N05 ,Dn1 ,v004
 .byte   N05 ,Cs2 ,v088
 .byte   W01
 .byte   An2
 .byte   W05
 .byte   Cn1 ,v112
 .byte   N05 ,Dn1 ,v004
 .byte   N05 ,Cs2 ,v088
 .byte   W01
 .byte   An2
 .byte   W11
 .byte   Cn1 ,v112
 .byte   N05 ,Dn1 ,v004
 .byte   N05 ,Cs2 ,v088
 .byte   W01
 .byte   An2
 .byte   W11
 .byte   Cn1 ,v112
 .byte   N05 ,Dn1 ,v004
 .byte   N05 ,Cs2 ,v088
 .byte   W01
 .byte   An2
 .byte   W05
@  #11 @016   ----------------------------------------
Label_01238051:
 .byte   N11 ,Cn1 ,v112
 .byte   N11 ,Fn1 ,v052
 .byte   N05 ,Gs1 ,v127
 .byte   N11 ,Cs2 ,v088
 .byte   N11 ,Gs2
 .byte   N11 ,Bn2 ,v052
 .byte   W01
 .byte   An2 ,v088
 .byte   W05
 .byte   N05 ,Gs1 ,v008
 .byte   W06
 .byte   N11 ,Cn1 ,v112
 .byte   N11 ,Fn1 ,v052
 .byte   N05 ,Gs1 ,v127
 .byte   N11 ,Bn2 ,v052
 .byte   W06
 .byte   N05 ,Gs1 ,v008
 .byte   W06
 .byte   N11 ,Dn1 ,v088
 .byte   N05 ,Gs1 ,v127
 .byte   N11 ,Gs2 ,v088
 .byte   W06
 .byte   N05 ,Gs1 ,v008
 .byte   N11 ,Bn2 ,v052
 .byte   W06
 .byte   N05 ,Cn1 ,v112
 .byte   N11 ,Fn1 ,v052
 .byte   N05 ,Gs1 ,v127
 .byte   W06
 .byte   Cn1 ,v112
 .byte   N05 ,Gs1 ,v008
 .byte   W06
 .byte   Gs1 ,v127
 .byte   N11 ,Gs2 ,v088
 .byte   N11 ,Bn2 ,v052
 .byte   W06
 .byte   N05 ,Cn1 ,v112
 .byte   N05 ,Gs1 ,v008
 .byte   W06
 .byte   Cn1 ,v112
 .byte   N11 ,Fn1 ,v052
 .byte   N05 ,Gs1 ,v127
 .byte   W06
 .byte   Cn1 ,v112
 .byte   N05 ,Gs1 ,v008
 .byte   N11 ,Bn2 ,v052
 .byte   W06
 .byte   N05 ,Dn1 ,v088
 .byte   N05 ,Gs1 ,v127
 .byte   N11 ,Gs2 ,v088
 .byte   W06
 .byte   N05 ,Cn1 ,v112
 .byte   N05 ,Fn1 ,v052
 .byte   N05 ,Gs1 ,v008
 .byte   W06
 .byte   Cn1 ,v112
 .byte   N05 ,Fn1 ,v052
 .byte   N11 ,As1 ,v088
 .byte   N11 ,Bn2 ,v052
 .byte   W06
 .byte   N05 ,Cn1 ,v112
 .byte   N05 ,Fn1 ,v008
 .byte   W06
 .byte   PEND 
@  #11 @017   ----------------------------------------
Label_012380E6:
 .byte   N11 ,Cn1 ,v112
 .byte   N11 ,Fn1 ,v052
 .byte   N05 ,Gs1 ,v127
 .byte   N11 ,Gs2 ,v088
 .byte   N11 ,Bn2 ,v052
 .byte   W06
 .byte   N05 ,Gs1 ,v008
 .byte   W06
 .byte   N11 ,Cn1 ,v112
 .byte   N11 ,Fn1 ,v052
 .byte   N05 ,Gs1 ,v127
 .byte   N11 ,Bn2 ,v052
 .byte   W06
 .byte   N05 ,Gs1 ,v008
 .byte   W06
 .byte   N11 ,Dn1 ,v088
 .byte   N05 ,Gs1 ,v127
 .byte   N11 ,Gs2 ,v088
 .byte   W06
 .byte   N05 ,Gs1 ,v008
 .byte   N11 ,Bn2 ,v052
 .byte   W06
 .byte   N05 ,Cn1 ,v112
 .byte   N11 ,Fn1 ,v052
 .byte   N05 ,Gs1 ,v127
 .byte   W06
 .byte   Cn1 ,v112
 .byte   N05 ,Gs1 ,v008
 .byte   W06
 .byte   Gs1 ,v127
 .byte   N11 ,Gs2 ,v088
 .byte   N11 ,Bn2 ,v052
 .byte   W06
 .byte   N05 ,Cn1 ,v112
 .byte   N05 ,Gs1 ,v008
 .byte   W06
 .byte   Cn1 ,v112
 .byte   N11 ,Fn1 ,v052
 .byte   N05 ,Gs1 ,v127
 .byte   W06
 .byte   Cn1 ,v112
 .byte   N05 ,Gs1 ,v008
 .byte   N11 ,Bn2 ,v052
 .byte   W06
 .byte   N05 ,Dn1 ,v088
 .byte   N05 ,Gs1 ,v127
 .byte   N11 ,Gs2 ,v088
 .byte   W06
 .byte   N05 ,Cn1 ,v112
 .byte   N05 ,Fn1 ,v052
 .byte   N05 ,Gs1 ,v008
 .byte   W06
 .byte   Cn1 ,v112
 .byte   N05 ,Fn1 ,v052
 .byte   N11 ,As1 ,v088
 .byte   N11 ,Bn2 ,v052
 .byte   W06
 .byte   N05 ,Cn1 ,v112
 .byte   N05 ,Fn1 ,v008
 .byte   W06
 .byte   PEND 
@  #11 @018   ----------------------------------------
 .byte   PATT
  .word Label_012380E6
@  #11 @019   ----------------------------------------
 .byte   PATT
  .word Label_012380E6
@  #11 @020   ----------------------------------------
 .byte   PATT
  .word Label_01238051
@  #11 @021   ----------------------------------------
 .byte   PATT
  .word Label_012380E6
@  #11 @022   ----------------------------------------
 .byte   PATT
  .word Label_012380E6
@  #11 @023   ----------------------------------------
 .byte   PATT
  .word Label_012380E6
@  #11 @024   ----------------------------------------
 .byte   PATT
  .word Label_01238051
@  #11 @025   ----------------------------------------
 .byte   PATT
  .word Label_012380E6
@  #11 @026   ----------------------------------------
 .byte   PATT
  .word Label_012380E6
@  #11 @027   ----------------------------------------
 .byte   PATT
  .word Label_012380E6
@  #11 @028   ----------------------------------------
 .byte   PATT
  .word Label_01238051
@  #11 @029   ----------------------------------------
 .byte   PATT
  .word Label_012380E6
@  #11 @030   ----------------------------------------
 .byte   PATT
  .word Label_012380E6
@  #11 @031   ----------------------------------------
 .byte   PATT
  .word Label_012380E6
@  #11 @032   ----------------------------------------
 .byte   PATT
  .word Label_01238051
@  #11 @033   ----------------------------------------
 .byte   PATT
  .word Label_012380E6
@  #11 @034   ----------------------------------------
 .byte   PATT
  .word Label_012380E6
@  #11 @035   ----------------------------------------
 .byte   PATT
  .word Label_012380E6
@  #11 @036   ----------------------------------------
 .byte   PATT
  .word Label_01238051
@  #11 @037   ----------------------------------------
 .byte   PATT
  .word Label_012380E6
@  #11 @038   ----------------------------------------
 .byte   PATT
  .word Label_012380E6
@  #11 @039   ----------------------------------------
Label_012381DF:
 .byte   N11 ,Cn1 ,v112
 .byte   N05 ,Gs1 ,v127
 .byte   N05 ,Dn2
 .byte   N11 ,Gs2 ,v088
 .byte   W06
 .byte   N05 ,Gs1 ,v008
 .byte   N05 ,Cn2 ,v127
 .byte   W06
 .byte   N11 ,Cn1 ,v112
 .byte   N05 ,Gs1 ,v127
 .byte   N05 ,Bn1
 .byte   W06
 .byte   Gs1 ,v008
 .byte   N05 ,An1 ,v127
 .byte   W06
 .byte   N11 ,Gn1
 .byte   N05 ,Gs1
 .byte   N11 ,Gs2 ,v088
 .byte   W06
 .byte   N05 ,Gs1 ,v008
 .byte   W06
 .byte   Cn1 ,v112
 .byte   N05 ,Gs1 ,v127
 .byte   N05 ,Dn2
 .byte   W06
 .byte   Cn1 ,v112
 .byte   N05 ,Gs1 ,v008
 .byte   N05 ,Cn2 ,v127
 .byte   W06
 .byte   Gs1
 .byte   N05 ,Bn1
 .byte   N11 ,Gs2 ,v088
 .byte   W06
 .byte   N05 ,Cn1 ,v112
 .byte   N05 ,Gs1 ,v008
 .byte   N05 ,An1 ,v127
 .byte   W06
 .byte   Cn1 ,v112
 .byte   N11 ,Gn1 ,v127
 .byte   N05 ,Gs1
 .byte   W06
 .byte   Cn1 ,v112
 .byte   N05 ,Gs1 ,v008
 .byte   W06
 .byte   Gs1 ,v127
 .byte   N05 ,An1
 .byte   N11 ,Gs2 ,v088
 .byte   W06
 .byte   N05 ,Cn1 ,v112
 .byte   N05 ,Gs1 ,v008
 .byte   N05 ,Dn2 ,v127
 .byte   W06
 .byte   Cn1 ,v112
 .byte   N11 ,As1 ,v088
 .byte   N05 ,Cn2 ,v127
 .byte   W06
 .byte   Cn1 ,v112
 .byte   N05 ,Bn1 ,v127
 .byte   W06
 .byte   PEND 
@  #11 @040   ----------------------------------------
Label_0123825F:
 .byte   N11 ,Cn1 ,v112
 .byte   N11 ,Fn1 ,v036
 .byte   N05 ,Gs1 ,v127
 .byte   N11 ,Gs2 ,v088
 .byte   N11 ,An2 ,v127
 .byte   N11 ,Bn2 ,v052
 .byte   W06
 .byte   N05 ,Gs1 ,v008
 .byte   W06
 .byte   N11 ,Cn1 ,v112
 .byte   N11 ,Fn1 ,v036
 .byte   N05 ,Gs1 ,v127
 .byte   N11 ,An1
 .byte   N11 ,Bn2 ,v052
 .byte   W06
 .byte   N05 ,Gs1 ,v008
 .byte   W06
 .byte   N11 ,Cn1 ,v112
 .byte   N11 ,Fn1 ,v036
 .byte   N05 ,Gs1 ,v127
 .byte   N11 ,Gs2 ,v088
 .byte   W06
 .byte   N05 ,Gs1 ,v008
 .byte   N11 ,Bn2 ,v052
 .byte   W06
 .byte   Cn1 ,v112
 .byte   N11 ,Fn1 ,v036
 .byte   N05 ,Gs1 ,v127
 .byte   N11 ,An1
 .byte   W06
 .byte   N05 ,Gs1 ,v008
 .byte   W06
 .byte   N11 ,Cn1 ,v112
 .byte   N11 ,Fn1 ,v036
 .byte   N05 ,Gs1 ,v127
 .byte   N11 ,Gs2 ,v088
 .byte   N11 ,Bn2 ,v052
 .byte   W06
 .byte   N05 ,Gs1 ,v008
 .byte   W06
 .byte   N11 ,Cn1 ,v112
 .byte   N11 ,Fn1 ,v036
 .byte   N05 ,Gs1 ,v127
 .byte   N11 ,An1
 .byte   W06
 .byte   N05 ,Gs1 ,v008
 .byte   N11 ,Bn2 ,v052
 .byte   W06
 .byte   Cn1 ,v112
 .byte   N11 ,Fn1 ,v036
 .byte   N05 ,Gs1 ,v127
 .byte   N11 ,Gs2 ,v088
 .byte   W06
 .byte   N05 ,Gs1 ,v008
 .byte   W06
 .byte   N11 ,Cn1 ,v112
 .byte   N11 ,Fn1 ,v036
 .byte   N11 ,An1 ,v127
 .byte   N11 ,As1 ,v088
 .byte   N11 ,Bn2 ,v052
 .byte   W12
 .byte   PEND 
@  #11 @041   ----------------------------------------
Label_012382F4:
 .byte   N11 ,Cn1 ,v112
 .byte   N11 ,Fn1 ,v036
 .byte   N05 ,Gs1 ,v127
 .byte   N11 ,Gs2 ,v088
 .byte   N11 ,Bn2 ,v052
 .byte   W06
 .byte   N05 ,Gs1 ,v008
 .byte   W06
 .byte   N11 ,Cn1 ,v112
 .byte   N11 ,Fn1 ,v036
 .byte   N05 ,Gs1 ,v127
 .byte   N11 ,An1
 .byte   N11 ,Bn2 ,v052
 .byte   W06
 .byte   N05 ,Gs1 ,v008
 .byte   W06
 .byte   N11 ,Cn1 ,v112
 .byte   N11 ,Fn1 ,v036
 .byte   N05 ,Gs1 ,v127
 .byte   N11 ,Gs2 ,v088
 .byte   W06
 .byte   N05 ,Gs1 ,v008
 .byte   N11 ,Bn2 ,v052
 .byte   W06
 .byte   Cn1 ,v112
 .byte   N11 ,Fn1 ,v036
 .byte   N05 ,Gs1 ,v127
 .byte   N11 ,An1
 .byte   W06
 .byte   N05 ,Gs1 ,v008
 .byte   W06
 .byte   N11 ,Cn1 ,v112
 .byte   N11 ,Fn1 ,v036
 .byte   N05 ,Gs1 ,v127
 .byte   N11 ,Gs2 ,v088
 .byte   N11 ,Bn2 ,v052
 .byte   W06
 .byte   N05 ,Gs1 ,v008
 .byte   W06
 .byte   N11 ,Cn1 ,v112
 .byte   N11 ,Fn1 ,v036
 .byte   N05 ,Gs1 ,v127
 .byte   N11 ,An1
 .byte   W06
 .byte   N05 ,Gs1 ,v008
 .byte   N11 ,Bn2 ,v052
 .byte   W06
 .byte   Cn1 ,v112
 .byte   N11 ,Fn1 ,v036
 .byte   N05 ,Gs1 ,v127
 .byte   N11 ,Gs2 ,v088
 .byte   W06
 .byte   N05 ,Gs1 ,v008
 .byte   W06
 .byte   N11 ,Cn1 ,v112
 .byte   N11 ,Fn1 ,v036
 .byte   N11 ,An1 ,v127
 .byte   N11 ,As1 ,v088
 .byte   N11 ,Bn2 ,v052
 .byte   W12
 .byte   PEND 
@  #11 @042   ----------------------------------------
 .byte   PATT
  .word Label_012382F4
@  #11 @043   ----------------------------------------
 .byte   PATT
  .word Label_012382F4
@  #11 @044   ----------------------------------------
 .byte   PATT
  .word Label_0123825F
@  #11 @045   ----------------------------------------
 .byte   PATT
  .word Label_012382F4
@  #11 @046   ----------------------------------------
 .byte   PATT
  .word Label_012382F4
@  #11 @047   ----------------------------------------
 .byte   PATT
  .word Label_012382F4
@  #11 @048   ----------------------------------------
 .byte   PATT
  .word Label_0123825F
@  #11 @049   ----------------------------------------
 .byte   PATT
  .word Label_012382F4
@  #11 @050   ----------------------------------------
 .byte   PATT
  .word Label_012382F4
@  #11 @051   ----------------------------------------
 .byte   PATT
  .word Label_012382F4
@  #11 @052   ----------------------------------------
Label_012383B8:
 .byte   N11 ,Cn1 ,v112
 .byte   N11 ,Gn1
 .byte   N05 ,Gs1 ,v127
 .byte   N11 ,Cs2 ,v088
 .byte   N11 ,Gs2
 .byte   N11 ,Bn2 ,v052
 .byte   W01
 .byte   An2 ,v088
 .byte   W05
 .byte   N05 ,Gs1 ,v008
 .byte   W06
 .byte   Cn1 ,v036
 .byte   N05 ,Gn1
 .byte   N05 ,Gs1 ,v127
 .byte   N11 ,Bn2 ,v052
 .byte   W06
 .byte   N05 ,Cn1 ,v112
 .byte   N05 ,Gn1
 .byte   N05 ,Gs1 ,v008
 .byte   W06
 .byte   N11 ,Cn1 ,v112
 .byte   N11 ,Dn1 ,v088
 .byte   N11 ,Gn1 ,v112
 .byte   N05 ,Gs1 ,v127
 .byte   N11 ,Gs2 ,v088
 .byte   W06
 .byte   N05 ,Gs1 ,v008
 .byte   N11 ,Bn2 ,v052
 .byte   W06
 .byte   Cn1 ,v112
 .byte   N11 ,Gn1
 .byte   N05 ,Gs1 ,v127
 .byte   W06
 .byte   Gs1 ,v008
 .byte   W06
 .byte   Cn1 ,v036
 .byte   N05 ,Gn1
 .byte   N05 ,Gs1 ,v127
 .byte   N11 ,Gs2 ,v088
 .byte   N11 ,Bn2 ,v052
 .byte   W06
 .byte   N05 ,Cn1 ,v036
 .byte   N05 ,Gn1
 .byte   N05 ,Gs1 ,v008
 .byte   W06
 .byte   N11 ,Cn1 ,v112
 .byte   N11 ,Dn1 ,v088
 .byte   N11 ,Gn1 ,v112
 .byte   N05 ,Gs1 ,v127
 .byte   W06
 .byte   Gs1 ,v008
 .byte   N11 ,Bn2 ,v052
 .byte   W06
 .byte   N05 ,Cn1 ,v036
 .byte   N05 ,Gn1
 .byte   N05 ,Gs1 ,v127
 .byte   N11 ,Gs2 ,v088
 .byte   W06
 .byte   Cn1 ,v112
 .byte   N11 ,Dn1 ,v088
 .byte   N11 ,Gn1 ,v112
 .byte   N05 ,Gs1 ,v008
 .byte   W06
 .byte   N11 ,As1 ,v088
 .byte   N11 ,Bn2 ,v052
 .byte   W12
 .byte   PEND 
@  #11 @053   ----------------------------------------
Label_01238450:
 .byte   N11 ,Cn1 ,v112
 .byte   N11 ,Gn1
 .byte   N05 ,Gs1 ,v127
 .byte   N11 ,Gs2 ,v088
 .byte   N11 ,Bn2 ,v052
 .byte   W06
 .byte   N05 ,Gs1 ,v008
 .byte   W06
 .byte   Cn1 ,v036
 .byte   N05 ,Gn1
 .byte   N05 ,Gs1 ,v127
 .byte   N11 ,Bn2 ,v052
 .byte   W06
 .byte   N05 ,Cn1 ,v112
 .byte   N05 ,Gn1
 .byte   N05 ,Gs1 ,v008
 .byte   W06
 .byte   N11 ,Cn1 ,v112
 .byte   N11 ,Dn1 ,v088
 .byte   N11 ,Gn1 ,v112
 .byte   N05 ,Gs1 ,v127
 .byte   N11 ,Gs2 ,v088
 .byte   W06
 .byte   N05 ,Gs1 ,v008
 .byte   N11 ,Bn2 ,v052
 .byte   W06
 .byte   Cn1 ,v112
 .byte   N11 ,Gn1
 .byte   N05 ,Gs1 ,v127
 .byte   W06
 .byte   Gs1 ,v008
 .byte   W06
 .byte   Cn1 ,v036
 .byte   N05 ,Gn1
 .byte   N05 ,Gs1 ,v127
 .byte   N11 ,Gs2 ,v088
 .byte   N11 ,Bn2 ,v052
 .byte   W06
 .byte   N05 ,Cn1 ,v036
 .byte   N05 ,Gn1
 .byte   N05 ,Gs1 ,v008
 .byte   W06
 .byte   N11 ,Cn1 ,v112
 .byte   N11 ,Dn1 ,v088
 .byte   N11 ,Gn1 ,v112
 .byte   N05 ,Gs1 ,v127
 .byte   W06
 .byte   Gs1 ,v008
 .byte   N11 ,Bn2 ,v052
 .byte   W06
 .byte   N05 ,Cn1 ,v036
 .byte   N05 ,Gn1
 .byte   N05 ,Gs1 ,v127
 .byte   N11 ,Gs2 ,v088
 .byte   W06
 .byte   Cn1 ,v112
 .byte   N11 ,Dn1 ,v088
 .byte   N11 ,Gn1 ,v112
 .byte   N05 ,Gs1 ,v008
 .byte   W06
 .byte   N11 ,As1 ,v088
 .byte   N11 ,Bn2 ,v052
 .byte   W12
 .byte   PEND 
@  #11 @054   ----------------------------------------
 .byte   PATT
  .word Label_01238450
@  #11 @055   ----------------------------------------
 .byte   PATT
  .word Label_01238450
@  #11 @056   ----------------------------------------
 .byte   PATT
  .word Label_012383B8
@  #11 @057   ----------------------------------------
 .byte   PATT
  .word Label_01238450
@  #11 @058   ----------------------------------------
 .byte   PATT
  .word Label_01238450
@  #11 @059   ----------------------------------------
 .byte   PATT
  .word Label_01238450
@  #11 @060   ----------------------------------------
 .byte   PATT
  .word Label_012383B8
@  #11 @061   ----------------------------------------
 .byte   PATT
  .word Label_01238450
@  #11 @062   ----------------------------------------
 .byte   PATT
  .word Label_01238450
@  #11 @063   ----------------------------------------
 .byte   PATT
  .word Label_01238450
@  #11 @064   ----------------------------------------
 .byte   PATT
  .word Label_012383B8
@  #11 @065   ----------------------------------------
 .byte   PATT
  .word Label_01238450
@  #11 @066   ----------------------------------------
 .byte   PATT
  .word Label_01238450
@  #11 @067   ----------------------------------------
Label_01238524:
 .byte   N11 ,Cn1 ,v032
 .byte   N11 ,As1 ,v088
 .byte   N11 ,Cs2
 .byte   N11 ,Gs2
 .byte   N11 ,Bn2 ,v052
 .byte   W01
 .byte   An2 ,v088
 .byte   W11
 .byte   Cn1 ,v036
 .byte   W12
 .byte   Dn1 ,v032
 .byte   W12
 .byte   N05 ,Cn1 ,v056
 .byte   W06
 .byte   Cn1 ,v060
 .byte   W12
 .byte   Cn1 ,v072
 .byte   W06
 .byte   Cn1 ,v076
 .byte   W06
 .byte   Cn1 ,v088
 .byte   W06
 .byte   Dn1 ,v072
 .byte   N05 ,Dn2 ,v127
 .byte   W06
 .byte   Cn1 ,v100
 .byte   N05 ,Bn1 ,v127
 .byte   W06
 .byte   Cn1 ,v104
 .byte   N05 ,Gn1 ,v127
 .byte   W06
 .byte   Cn1 ,v112
 .byte   N05 ,Fn1 ,v127
 .byte   W06
 .byte   PEND 
@  #11 @068   ----------------------------------------
Label_01238564:
@  #11 @069   ----------------------------------------
 .byte   PATT
  .word Label_01238051
@  #11 @070   ----------------------------------------
 .byte   PATT
  .word Label_012380E6
@  #11 @071   ----------------------------------------
 .byte   PATT
  .word Label_012380E6
@  #11 @072   ----------------------------------------
 .byte   PATT
  .word Label_012380E6
@  #11 @073   ----------------------------------------
 .byte   PATT
  .word Label_01238051
@  #11 @074   ----------------------------------------
 .byte   PATT
  .word Label_012380E6
@  #11 @075   ----------------------------------------
 .byte   PATT
  .word Label_012380E6
@  #11 @076   ----------------------------------------
 .byte   PATT
  .word Label_012380E6
@  #11 @077   ----------------------------------------
 .byte   PATT
  .word Label_01238051
@  #11 @078   ----------------------------------------
 .byte   PATT
  .word Label_012380E6
@  #11 @079   ----------------------------------------
 .byte   PATT
  .word Label_012380E6
@  #11 @080   ----------------------------------------
 .byte   PATT
  .word Label_012380E6
@  #11 @081   ----------------------------------------
 .byte   PATT
  .word Label_01238051
@  #11 @082   ----------------------------------------
 .byte   PATT
  .word Label_012380E6
@  #11 @083   ----------------------------------------
 .byte   PATT
  .word Label_012380E6
@  #11 @084   ----------------------------------------
 .byte   PATT
  .word Label_012380E6
@  #11 @085   ----------------------------------------
 .byte   PATT
  .word Label_01238051
@  #11 @086   ----------------------------------------
 .byte   PATT
  .word Label_012380E6
@  #11 @087   ----------------------------------------
 .byte   PATT
  .word Label_012380E6
@  #11 @088   ----------------------------------------
 .byte   PATT
  .word Label_012380E6
@  #11 @089   ----------------------------------------
 .byte   PATT
  .word Label_01238051
@  #11 @090   ----------------------------------------
 .byte   PATT
  .word Label_012380E6
@  #11 @091   ----------------------------------------
 .byte   PATT
  .word Label_012380E6
@  #11 @092   ----------------------------------------
 .byte   PATT
  .word Label_012381DF
@  #11 @093   ----------------------------------------
 .byte   PATT
  .word Label_0123825F
@  #11 @094   ----------------------------------------
 .byte   PATT
  .word Label_012382F4
@  #11 @095   ----------------------------------------
 .byte   PATT
  .word Label_012382F4
@  #11 @096   ----------------------------------------
 .byte   PATT
  .word Label_012382F4
@  #11 @097   ----------------------------------------
 .byte   PATT
  .word Label_0123825F
@  #11 @098   ----------------------------------------
 .byte   PATT
  .word Label_012382F4
@  #11 @099   ----------------------------------------
 .byte   PATT
  .word Label_012382F4
@  #11 @100   ----------------------------------------
 .byte   PATT
  .word Label_012382F4
@  #11 @101   ----------------------------------------
 .byte   PATT
  .word Label_0123825F
@  #11 @102   ----------------------------------------
 .byte   PATT
  .word Label_012382F4
@  #11 @103   ----------------------------------------
 .byte   PATT
  .word Label_012382F4
@  #11 @104   ----------------------------------------
 .byte   PATT
  .word Label_012382F4
@  #11 @105   ----------------------------------------
 .byte   PATT
  .word Label_012383B8
@  #11 @106   ----------------------------------------
 .byte   PATT
  .word Label_01238450
@  #11 @107   ----------------------------------------
 .byte   PATT
  .word Label_01238450
@  #11 @108   ----------------------------------------
 .byte   PATT
  .word Label_01238450
@  #11 @109   ----------------------------------------
 .byte   PATT
  .word Label_012383B8
@  #11 @110   ----------------------------------------
 .byte   PATT
  .word Label_01238450
@  #11 @111   ----------------------------------------
 .byte   PATT
  .word Label_01238450
@  #11 @112   ----------------------------------------
 .byte   PATT
  .word Label_01238450
@  #11 @113   ----------------------------------------
 .byte   PATT
  .word Label_012383B8
@  #11 @114   ----------------------------------------
 .byte   PATT
  .word Label_01238450
@  #11 @115   ----------------------------------------
 .byte   PATT
  .word Label_01238450
@  #11 @116   ----------------------------------------
 .byte   PATT
  .word Label_01238450
@  #11 @117   ----------------------------------------
 .byte   PATT
  .word Label_012383B8
@  #11 @118   ----------------------------------------
 .byte   PATT
  .word Label_01238450
@  #11 @119   ----------------------------------------
 .byte   PATT
  .word Label_01238450
@  #11 @120   ----------------------------------------
 .byte   PATT
  .word Label_01238524
@  #11 @121   ----------------------------------------
 .byte   GOTO
  .word Label_01238564
@  #11 @122   ----------------------------------------
 .byte   PATT
  .word Label_01238051
@  #11 @123   ----------------------------------------
 .byte   PATT
  .word Label_012380E6
@  #11 @124   ----------------------------------------
 .byte   PATT
  .word Label_012380E6
@  #11 @125   ----------------------------------------
 .byte   PATT
  .word Label_012380E6
@  #11 @126   ----------------------------------------
 .byte   PATT
  .word Label_01238051
@  #11 @127   ----------------------------------------
 .byte   PATT
  .word Label_012380E6
@  #11 @128   ----------------------------------------
 .byte   PATT
  .word Label_012380E6
@  #11 @129   ----------------------------------------
 .byte   PATT
  .word Label_012380E6
@  #11 @130   ----------------------------------------
 .byte   PATT
  .word Label_01238051
@  #11 @131   ----------------------------------------
 .byte   PATT
  .word Label_012380E6
@  #11 @132   ----------------------------------------
 .byte   W96
@  #11 @133   ----------------------------------------
 .byte   W96
 .byte   FINE

@******************************************************@
	.align	2

song09:
	.byte	11	@ NumTrks
	.byte	0	@ NumBlks
	.byte	song09_pri	@ Priority
	.byte	song09_rev	@ Reverb.
    
	.word	song09_grp
    
	.word	song09_001
	.word	song09_002
	.word	song09_003
	.word	song09_004
	.word	song09_005
	.word	song09_006
	.word	song09_007
	.word	song09_008
	.word	song09_009
	.word	song09_010
	.word	song09_011

	.end
