	.include "MPlayDef.s"

	.equ	song59_grp, voicegroup000
	.equ	song59_pri, 0
	.equ	song59_rev, 0
	.equ	song59_mvl, 127
	.equ	song59_key, 0
	.equ	song59_tbs, 1
	.equ	song59_exg, 0
	.equ	song59_cmp, 1

	.section .rodata
	.global	song59
	.align	2


@**************** Track 1 (Midi-Chn.0) ****************@

song59_001:
@ 000   ----------------------------------------
 .byte   KEYSH , song59_key+0
Label_0_01165F8A:
 .byte   TEMPO , 120*song59_tbs/2
 .byte   VOICE , 73
 .byte   PAN , c_v+0
 .byte   VOL , 40*song59_mvl/mxv
 .byte   W90
 .byte   N06 ,An4 ,v127
 .byte   W06
@ 001   ----------------------------------------
Label_0_01165F97:
 .byte   BEND , c_v+0
 .byte   N84 ,En4 ,v127
 .byte   W02
 .byte   BEND , c_v-1
 .byte   W02
 .byte   Dn3
 .byte   W02
 .byte   Cs3
 .byte   W02
 .byte   Cs3
 .byte   W02
 .byte   Cn3
 .byte   W02
 .byte   Bn2
 .byte   W02
 .byte   As2
 .byte   W02
 .byte   As2
 .byte   W02
 .byte   An2
 .byte   W02
 .byte   Gs2
 .byte   W02
 .byte   Gn2
 .byte   W02
 .byte   Gn2
 .byte   W02
 .byte   Fs2
 .byte   W02
 .byte   Fn2
 .byte   W02
 .byte   En2
 .byte   W02
 .byte   En2
 .byte   W02
 .byte   Ds2
 .byte   W02
 .byte   Dn2
 .byte   W02
 .byte   Cs2
 .byte   W02
 .byte   Cs2
 .byte   W02
 .byte   Cn2
 .byte   W02
 .byte   Bn1
 .byte   W02
 .byte   Bn1
 .byte   W02
 .byte   As1
 .byte   W02
 .byte   An1
 .byte   W02
 .byte   Gs1
 .byte   W02
 .byte   Gs1
 .byte   W02
 .byte   Gn1
 .byte   W02
 .byte   Fs1
 .byte   W02
 .byte   Fn1
 .byte   W02
 .byte   Fn1
 .byte   W02
 .byte   En1
 .byte   W02
 .byte   Ds1
 .byte   W02
 .byte   Dn1
 .byte   W02
 .byte   Dn1
 .byte   W02
 .byte   Cs1
 .byte   W02
 .byte   Cn1
 .byte   W02
 .byte   Bn0
 .byte   W02
 .byte   Bn0
 .byte   W02
 .byte   As0
 .byte   W02
 .byte   An0
 .byte   W02
 .byte   An0
 .byte   W11
 .byte   En3
 .byte   W01
 .byte   PEND 
@ 002   ----------------------------------------
 .byte   W96
@ 003   ----------------------------------------
 .byte   W96
@ 004   ----------------------------------------
 .byte   W96
@ 005   ----------------------------------------
 .byte   W96
@ 006   ----------------------------------------
 .byte   W96
@ 007   ----------------------------------------
 .byte   W96
@ 008   ----------------------------------------
 .byte   W96
@ 009   ----------------------------------------
 .byte   W96
@ 010   ----------------------------------------
 .byte   VOL , 40*song59_mvl/mxv
 .byte   W96
@ 011   ----------------------------------------
Label_0_01166000:
 .byte   BEND , c_v+0
 .byte   N06 ,En4 ,v127
 .byte   W02
 .byte   BEND , c_v-1
 .byte   W02
 .byte   Dn3
 .byte   W02
 .byte   Cs3
 .byte   N06 ,An4
 .byte   W02
 .byte   BEND , c_v-3
 .byte   W02
 .byte   Cn3
 .byte   W02
 .byte   Bn2
 .byte   N06 ,En4
 .byte   W02
 .byte   BEND , c_v-6
 .byte   W02
 .byte   As2
 .byte   W02
 .byte   An2
 .byte   N06 ,An4
 .byte   W02
 .byte   BEND , c_v-8
 .byte   W02
 .byte   Gn2
 .byte   W02
 .byte   Gn2
 .byte   N72 ,En4
 .byte   W02
 .byte   BEND , c_v-10
 .byte   W02
 .byte   Fn2
 .byte   W02
 .byte   En2
 .byte   W02
 .byte   En2
 .byte   W02
 .byte   Ds2
 .byte   W02
 .byte   Dn2
 .byte   W02
 .byte   Cs2
 .byte   W02
 .byte   Cs2
 .byte   W02
 .byte   Cn2
 .byte   W02
 .byte   Bn1
 .byte   W02
 .byte   Bn1
 .byte   W02
 .byte   As1
 .byte   W02
 .byte   An1
 .byte   W02
 .byte   Gs1
 .byte   W02
 .byte   Gs1
 .byte   W02
 .byte   Gn1
 .byte   W02
 .byte   Fs1
 .byte   W02
 .byte   Fn1
 .byte   W02
 .byte   Fn1
 .byte   W02
 .byte   En1
 .byte   W02
 .byte   Ds1
 .byte   W02
 .byte   Dn1
 .byte   W02
 .byte   Dn1
 .byte   W02
 .byte   Cs1
 .byte   W02
 .byte   Cn1
 .byte   W02
 .byte   Bn0
 .byte   W02
 .byte   Bn0
 .byte   W02
 .byte   As0
 .byte   W02
 .byte   An0
 .byte   W02
 .byte   An0
 .byte   W11
 .byte   En3
 .byte   W01
 .byte   PEND 
@ 012   ----------------------------------------
 .byte   W96
@ 013   ----------------------------------------
 .byte   W96
@ 014   ----------------------------------------
 .byte   W96
@ 015   ----------------------------------------
 .byte   W96
@ 016   ----------------------------------------
 .byte   W96
@ 017   ----------------------------------------
 .byte   W96
@ 018   ----------------------------------------
 .byte   W96
@ 019   ----------------------------------------
 .byte   PATT
  .word Label_0_01166000
@ 020   ----------------------------------------
 .byte   W96
@ 021   ----------------------------------------
 .byte   W96
@ 022   ----------------------------------------
 .byte   W96
@ 023   ----------------------------------------
 .byte   W96
@ 024   ----------------------------------------
Label_0_0116607A:
 .byte   VOL , 40*song59_mvl/mxv
 .byte   W90
 .byte   N06 ,An4 ,v127
 .byte   W06
 .byte   PEND 
@ 025   ----------------------------------------
 .byte   PATT
  .word Label_0_01165F97
@ 026   ----------------------------------------
 .byte   W96
@ 027   ----------------------------------------
 .byte   W96
@ 028   ----------------------------------------
 .byte   W96
@ 029   ----------------------------------------
 .byte   W96
@ 030   ----------------------------------------
 .byte   W96
@ 031   ----------------------------------------
 .byte   W96
@ 032   ----------------------------------------
 .byte   W96
@ 033   ----------------------------------------
 .byte   W96
@ 034   ----------------------------------------
 .byte   VOL , 40*song59_mvl/mxv
 .byte   W96
@ 035   ----------------------------------------
 .byte   PATT
  .word Label_0_01166000
@ 036   ----------------------------------------
 .byte   W96
@ 037   ----------------------------------------
 .byte   W96
@ 038   ----------------------------------------
 .byte   W96
@ 039   ----------------------------------------
 .byte   W96
@ 040   ----------------------------------------
 .byte   W96
@ 041   ----------------------------------------
 .byte   W96
@ 042   ----------------------------------------
 .byte   W96
@ 043   ----------------------------------------
 .byte   PATT
  .word Label_0_01166000
@ 044   ----------------------------------------
 .byte   W96
@ 045   ----------------------------------------
 .byte   W96
@ 046   ----------------------------------------
 .byte   W96
@ 047   ----------------------------------------
 .byte   W96
@ 048   ----------------------------------------
 .byte   PATT
  .word Label_0_0116607A
@ 049   ----------------------------------------
 .byte   PATT
  .word Label_0_01165F97
@ 050   ----------------------------------------
 .byte   VOL , 40*song59_mvl/mxv
 .byte   W48
 .byte   W03
 .byte   GOTO
  .word Label_0_01165F8A
@ 051   ----------------------------------------
 .byte   W44
 .byte   W01
 .byte   FINE

@**************** Track 2 (Midi-Chn.1) ****************@

song59_002:
@ 000   ----------------------------------------
 .byte   KEYSH , song59_key+0
Label_1_011660C6:
 .byte   VOICE , 30
 .byte   PAN , c_v+0
 .byte   VOL , 32*song59_mvl/mxv
 .byte   W96
@ 001   ----------------------------------------
 .byte   W96
@ 002   ----------------------------------------
Label_1_011660CE:
 .byte   W12
 .byte   N06 ,Cn3 ,v127
 .byte   N06 ,En3
 .byte   W24
 .byte   Cn3
 .byte   N06 ,En3
 .byte   W24
 .byte   Cn3
 .byte   N06 ,En3
 .byte   W24
 .byte   Cn3
 .byte   N06 ,En3
 .byte   W12
 .byte   PEND 
@ 003   ----------------------------------------
 .byte   PATT
  .word Label_1_011660CE
@ 004   ----------------------------------------
 .byte   PATT
  .word Label_1_011660CE
@ 005   ----------------------------------------
 .byte   PATT
  .word Label_1_011660CE
@ 006   ----------------------------------------
 .byte   PATT
  .word Label_1_011660CE
@ 007   ----------------------------------------
 .byte   PATT
  .word Label_1_011660CE
@ 008   ----------------------------------------
 .byte   PATT
  .word Label_1_011660CE
@ 009   ----------------------------------------
Label_1_01166100:
 .byte   W12
 .byte   N06 ,Dn3 ,v127
 .byte   N06 ,Gn3
 .byte   W24
 .byte   Dn3
 .byte   N06 ,Gn3
 .byte   W24
 .byte   Dn3
 .byte   N06 ,Gn3
 .byte   W24
 .byte   Dn3
 .byte   N06 ,Gn3
 .byte   W12
 .byte   PEND 
@ 010   ----------------------------------------
Label_1_01166114:
 .byte   W12
 .byte   N06 ,Cn3 ,v127
 .byte   N06 ,Fn3
 .byte   W24
 .byte   Cn3
 .byte   N06 ,Fn3
 .byte   W24
 .byte   Cn3
 .byte   N06 ,Fn3
 .byte   W24
 .byte   Cn3
 .byte   N06 ,Fn3
 .byte   W12
 .byte   PEND 
@ 011   ----------------------------------------
Label_1_01166128:
 .byte   W12
 .byte   N06 ,Bn2 ,v127
 .byte   N06 ,En3
 .byte   W24
 .byte   Bn2
 .byte   N06 ,En3
 .byte   W24
 .byte   Bn2
 .byte   N06 ,En3
 .byte   W24
 .byte   Bn2
 .byte   N06 ,En3
 .byte   W12
 .byte   PEND 
@ 012   ----------------------------------------
 .byte   W96
@ 013   ----------------------------------------
 .byte   W96
@ 014   ----------------------------------------
 .byte   W96
@ 015   ----------------------------------------
 .byte   W96
@ 016   ----------------------------------------
 .byte   W96
@ 017   ----------------------------------------
 .byte   W96
@ 018   ----------------------------------------
 .byte   W96
@ 019   ----------------------------------------
 .byte   W96
@ 020   ----------------------------------------
 .byte   W96
@ 021   ----------------------------------------
 .byte   W96
@ 022   ----------------------------------------
 .byte   W96
@ 023   ----------------------------------------
 .byte   W96
@ 024   ----------------------------------------
 .byte   W96
@ 025   ----------------------------------------
 .byte   W96
@ 026   ----------------------------------------
 .byte   PATT
  .word Label_1_011660CE
@ 027   ----------------------------------------
 .byte   PATT
  .word Label_1_011660CE
@ 028   ----------------------------------------
 .byte   PATT
  .word Label_1_011660CE
@ 029   ----------------------------------------
 .byte   PATT
  .word Label_1_011660CE
@ 030   ----------------------------------------
 .byte   PATT
  .word Label_1_011660CE
@ 031   ----------------------------------------
 .byte   PATT
  .word Label_1_011660CE
@ 032   ----------------------------------------
 .byte   PATT
  .word Label_1_011660CE
@ 033   ----------------------------------------
 .byte   PATT
  .word Label_1_01166100
@ 034   ----------------------------------------
 .byte   PATT
  .word Label_1_01166114
@ 035   ----------------------------------------
 .byte   PATT
  .word Label_1_01166128
@ 036   ----------------------------------------
 .byte   W96
@ 037   ----------------------------------------
 .byte   W96
@ 038   ----------------------------------------
 .byte   W96
@ 039   ----------------------------------------
 .byte   W96
@ 040   ----------------------------------------
 .byte   W96
@ 041   ----------------------------------------
 .byte   W96
@ 042   ----------------------------------------
 .byte   W96
@ 043   ----------------------------------------
 .byte   W96
@ 044   ----------------------------------------
 .byte   W96
@ 045   ----------------------------------------
 .byte   W96
@ 046   ----------------------------------------
 .byte   W96
@ 047   ----------------------------------------
 .byte   W96
@ 048   ----------------------------------------
 .byte   W96
@ 049   ----------------------------------------
 .byte   W96
@ 050   ----------------------------------------
 .byte   W48
 .byte   W03
 .byte   GOTO
  .word Label_1_011660C6
@ 051   ----------------------------------------
 .byte   W44
 .byte   W01
 .byte   FINE

@**************** Track 3 (Midi-Chn.2) ****************@

song59_003:
@ 000   ----------------------------------------
 .byte   KEYSH , song59_key+0
Label_2_01166196:
 .byte   VOICE , 24
 .byte   VOL , 41*song59_mvl/mxv
 .byte   W96
@ 001   ----------------------------------------
 .byte   W96
@ 002   ----------------------------------------
 .byte   W96
@ 003   ----------------------------------------
 .byte   W96
@ 004   ----------------------------------------
Label_2_0116619E:
 .byte   N48 ,An1 ,v127
 .byte   W72
 .byte   N12 ,Cn2
 .byte   W12
 .byte   En2
 .byte   W12
 .byte   PEND 
@ 005   ----------------------------------------
 .byte   PATT
  .word Label_2_0116619E
@ 006   ----------------------------------------
Label_2_011661AD:
 .byte   N48 ,Gn2 ,v127
 .byte   W72
 .byte   N12 ,En2
 .byte   W12
 .byte   Cn2
 .byte   W12
 .byte   PEND 
@ 007   ----------------------------------------
Label_2_011661B7:
 .byte   N48 ,En2 ,v127
 .byte   W68
 .byte   W01
 .byte   N03 ,Cs2
 .byte   W03
 .byte   N12 ,Dn2
 .byte   W12
 .byte   En2
 .byte   W12
 .byte   PEND 
@ 008   ----------------------------------------
Label_2_011661C5:
 .byte   N48 ,An1 ,v127
 .byte   W60
 .byte   N12 ,Bn1
 .byte   W12
 .byte   Cn2
 .byte   W12
 .byte   En2
 .byte   W12
 .byte   PEND 
@ 009   ----------------------------------------
Label_2_011661D1:
 .byte   N48 ,Dn2 ,v127
 .byte   W48
 .byte   Gn2
 .byte   W48
 .byte   PEND 
@ 010   ----------------------------------------
Label_2_011661D8:
 .byte   N48 ,Fn2 ,v127
 .byte   W48
 .byte   N36 ,Cn2
 .byte   W36
 .byte   N06 ,Dn2
 .byte   W06
 .byte   Cn2
 .byte   W06
 .byte   PEND 
@ 011   ----------------------------------------
 .byte   N72 ,En2
 .byte   W96
@ 012   ----------------------------------------
 .byte   W96
@ 013   ----------------------------------------
 .byte   W96
@ 014   ----------------------------------------
 .byte   W96
@ 015   ----------------------------------------
 .byte   W96
@ 016   ----------------------------------------
Label_2_011661EC:
 .byte   N48 ,En2 ,v127
 .byte   W48
 .byte   N36 ,An1
 .byte   W36
 .byte   N12 ,En2
 .byte   W12
 .byte   PEND 
@ 017   ----------------------------------------
Label_2_011661F7:
 .byte   N48 ,Dn2 ,v127
 .byte   W48
 .byte   N12 ,Bn1
 .byte   W12
 .byte   Cn2
 .byte   W12
 .byte   Bn1
 .byte   W12
 .byte   Gn1
 .byte   W12
 .byte   PEND 
@ 018   ----------------------------------------
Label_2_01166205:
 .byte   N84 ,An1 ,v127
 .byte   W84
 .byte   N12 ,En2
 .byte   W12
 .byte   PEND 
@ 019   ----------------------------------------
 .byte   N72 ,An1
 .byte   W96
@ 020   ----------------------------------------
 .byte   W96
@ 021   ----------------------------------------
 .byte   W96
@ 022   ----------------------------------------
 .byte   W96
@ 023   ----------------------------------------
 .byte   W96
@ 024   ----------------------------------------
 .byte   W96
@ 025   ----------------------------------------
 .byte   W96
@ 026   ----------------------------------------
 .byte   W96
@ 027   ----------------------------------------
 .byte   W96
@ 028   ----------------------------------------
 .byte   PATT
  .word Label_2_0116619E
@ 029   ----------------------------------------
 .byte   PATT
  .word Label_2_0116619E
@ 030   ----------------------------------------
 .byte   PATT
  .word Label_2_011661AD
@ 031   ----------------------------------------
 .byte   PATT
  .word Label_2_011661B7
@ 032   ----------------------------------------
 .byte   PATT
  .word Label_2_011661C5
@ 033   ----------------------------------------
 .byte   PATT
  .word Label_2_011661D1
@ 034   ----------------------------------------
 .byte   PATT
  .word Label_2_011661D8
@ 035   ----------------------------------------
 .byte   N72 ,En2 ,v127
 .byte   W96
@ 036   ----------------------------------------
 .byte   W96
@ 037   ----------------------------------------
 .byte   W96
@ 038   ----------------------------------------
 .byte   W96
@ 039   ----------------------------------------
 .byte   W96
@ 040   ----------------------------------------
 .byte   PATT
  .word Label_2_011661EC
@ 041   ----------------------------------------
 .byte   PATT
  .word Label_2_011661F7
@ 042   ----------------------------------------
 .byte   PATT
  .word Label_2_01166205
@ 043   ----------------------------------------
 .byte   N72 ,An1 ,v127
 .byte   W96
@ 044   ----------------------------------------
 .byte   W96
@ 045   ----------------------------------------
 .byte   W96
@ 046   ----------------------------------------
 .byte   W96
@ 047   ----------------------------------------
 .byte   W96
@ 048   ----------------------------------------
 .byte   W96
@ 049   ----------------------------------------
 .byte   W96
@ 050   ----------------------------------------
 .byte   W48
 .byte   W03
 .byte   GOTO
  .word Label_2_01166196
@ 051   ----------------------------------------
 .byte   W44
 .byte   W01
 .byte   FINE

@**************** Track 4 (Midi-Chn.3) ****************@

song59_004:
@ 000   ----------------------------------------
 .byte   KEYSH , song59_key+0
Label_3_0116626A:
 .byte   VOICE , 56
 .byte   VOL , 24*song59_mvl/mxv
 .byte   PAN , c_v+0
 .byte   W96
@ 001   ----------------------------------------
 .byte   W96
@ 002   ----------------------------------------
 .byte   W96
@ 003   ----------------------------------------
 .byte   W96
@ 004   ----------------------------------------
 .byte   W96
@ 005   ----------------------------------------
 .byte   W96
@ 006   ----------------------------------------
 .byte   W96
@ 007   ----------------------------------------
Label_3_01166277:
 .byte   N06 ,An3 ,v127
 .byte   W06
 .byte   Bn3
 .byte   W06
 .byte   Cn4
 .byte   W06
 .byte   Dn4
 .byte   W06
 .byte   N24 ,En4
 .byte   W72
 .byte   PEND 
@ 008   ----------------------------------------
 .byte   W96
@ 009   ----------------------------------------
 .byte   W96
@ 010   ----------------------------------------
 .byte   W96
@ 011   ----------------------------------------
 .byte   W96
@ 012   ----------------------------------------
Label_3_01166289:
 .byte   W12
 .byte   N06 ,En3 ,v127
 .byte   N06 ,An3
 .byte   W24
 .byte   En3
 .byte   N06 ,An3
 .byte   W24
 .byte   En3
 .byte   N06 ,An3
 .byte   W24
 .byte   En3
 .byte   N06 ,An3
 .byte   W12
 .byte   PEND 
@ 013   ----------------------------------------
 .byte   PATT
  .word Label_3_01166289
@ 014   ----------------------------------------
 .byte   PATT
  .word Label_3_01166289
@ 015   ----------------------------------------
 .byte   PATT
  .word Label_3_01166289
@ 016   ----------------------------------------
 .byte   PATT
  .word Label_3_01166289
@ 017   ----------------------------------------
Label_3_011662B1:
 .byte   W12
 .byte   N06 ,Dn3 ,v127
 .byte   N06 ,Gn3
 .byte   W24
 .byte   Dn3
 .byte   N06 ,Gn3
 .byte   W24
 .byte   Dn3
 .byte   N06 ,Gn3
 .byte   W24
 .byte   Dn3
 .byte   N06 ,Gn3
 .byte   W12
 .byte   PEND 
@ 018   ----------------------------------------
 .byte   PATT
  .word Label_3_01166289
@ 019   ----------------------------------------
 .byte   PATT
  .word Label_3_01166289
@ 020   ----------------------------------------
Label_3_011662CF:
 .byte   W24
 .byte   N06 ,An3 ,v127
 .byte   W06
 .byte   Bn3
 .byte   W06
 .byte   Cn4
 .byte   W06
 .byte   An3
 .byte   W06
 .byte   N36 ,En4
 .byte   W36
 .byte   N12
 .byte   W12
 .byte   PEND 
@ 021   ----------------------------------------
Label_3_011662E0:
 .byte   N01 ,En4 ,v127
 .byte   W01
 .byte   Fn4
 .byte   W02
 .byte   N24 ,Gn4
 .byte   W24
 .byte   W03
 .byte   N06
 .byte   W06
 .byte   An4
 .byte   W06
 .byte   Gn4
 .byte   W06
 .byte   N30 ,Fs4
 .byte   W30
 .byte   N06 ,Dn4
 .byte   W06
 .byte   An3
 .byte   W06
 .byte   Bn3
 .byte   W06
 .byte   PEND 
@ 022   ----------------------------------------
Label_3_011662FB:
 .byte   N24 ,Cn4 ,v127
 .byte   W24
 .byte   Dn4
 .byte   W24
 .byte   En4
 .byte   W24
 .byte   N06 ,Cn4
 .byte   W12
 .byte   An3
 .byte   W06
 .byte   Cn4
 .byte   W06
 .byte   PEND 
@ 023   ----------------------------------------
Label_3_0116630B:
 .byte   W06
 .byte   N06 ,An3 ,v127
 .byte   W06
 .byte   Cn4
 .byte   W06
 .byte   Dn4
 .byte   W06
 .byte   En4
 .byte   W06
 .byte   Fn4
 .byte   W06
 .byte   En4
 .byte   W06
 .byte   Ds4
 .byte   W06
 .byte   En4
 .byte   W06
 .byte   Gs4
 .byte   W06
 .byte   En4
 .byte   W06
 .byte   Ds4
 .byte   W06
 .byte   Dn4
 .byte   W06
 .byte   Cn4
 .byte   W06
 .byte   An3
 .byte   W06
 .byte   Cn4
 .byte   W06
 .byte   PEND 
@ 024   ----------------------------------------
Label_3_0116632D:
 .byte   N36 ,An3 ,v127
 .byte   W36
 .byte   W03
 .byte   N01 ,Gs3
 .byte   W01
 .byte   Gn3
 .byte   W02
 .byte   Fs3
 .byte   W01
 .byte   Fn3
 .byte   W02
 .byte   N24 ,En3
 .byte   W48
 .byte   W03
 .byte   PEND 
@ 025   ----------------------------------------
 .byte   W96
@ 026   ----------------------------------------
 .byte   W96
@ 027   ----------------------------------------
 .byte   W96
@ 028   ----------------------------------------
 .byte   W96
@ 029   ----------------------------------------
 .byte   W96
@ 030   ----------------------------------------
 .byte   W96
@ 031   ----------------------------------------
 .byte   PATT
  .word Label_3_01166277
@ 032   ----------------------------------------
 .byte   W96
@ 033   ----------------------------------------
 .byte   W96
@ 034   ----------------------------------------
 .byte   W96
@ 035   ----------------------------------------
 .byte   W96
@ 036   ----------------------------------------
 .byte   PATT
  .word Label_3_01166289
@ 037   ----------------------------------------
 .byte   PATT
  .word Label_3_01166289
@ 038   ----------------------------------------
 .byte   PATT
  .word Label_3_01166289
@ 039   ----------------------------------------
 .byte   PATT
  .word Label_3_01166289
@ 040   ----------------------------------------
 .byte   PATT
  .word Label_3_01166289
@ 041   ----------------------------------------
 .byte   PATT
  .word Label_3_011662B1
@ 042   ----------------------------------------
 .byte   PATT
  .word Label_3_01166289
@ 043   ----------------------------------------
 .byte   PATT
  .word Label_3_01166289
@ 044   ----------------------------------------
 .byte   PATT
  .word Label_3_011662CF
@ 045   ----------------------------------------
 .byte   PATT
  .word Label_3_011662E0
@ 046   ----------------------------------------
 .byte   PATT
  .word Label_3_011662FB
@ 047   ----------------------------------------
 .byte   PATT
  .word Label_3_0116630B
@ 048   ----------------------------------------
 .byte   PATT
  .word Label_3_0116632D
@ 049   ----------------------------------------
 .byte   W96
@ 050   ----------------------------------------
 .byte   W48
 .byte   W03
 .byte   GOTO
  .word Label_3_0116626A
@ 051   ----------------------------------------
 .byte   W44
 .byte   W01
 .byte   FINE

@**************** Track 5 (Midi-Chn.4) ****************@

song59_005:
@ 000   ----------------------------------------
 .byte   KEYSH , song59_key+0
Label_4_0116639E:
 .byte   VOICE , 52
 .byte   VOL , 37*song59_mvl/mxv
 .byte   W96
@ 001   ----------------------------------------
 .byte   W96
@ 002   ----------------------------------------
 .byte   W96
@ 003   ----------------------------------------
 .byte   W96
@ 004   ----------------------------------------
Label_4_011663A6:
 .byte   W12
 .byte   N06 ,En3 ,v127
 .byte   N06 ,An3
 .byte   W24
 .byte   En3
 .byte   N06 ,An3
 .byte   W12
 .byte   En3
 .byte   N06 ,An3
 .byte   W48
 .byte   PEND 
@ 005   ----------------------------------------
 .byte   PATT
  .word Label_4_011663A6
@ 006   ----------------------------------------
Label_4_011663BB:
 .byte   W12
 .byte   N06 ,En3 ,v127
 .byte   N06 ,Gn3
 .byte   W24
 .byte   En3
 .byte   N06 ,Gn3
 .byte   W12
 .byte   En3
 .byte   N06 ,Gn3
 .byte   W48
 .byte   PEND 
@ 007   ----------------------------------------
 .byte   PATT
  .word Label_4_011663BB
@ 008   ----------------------------------------
 .byte   PATT
  .word Label_4_011663A6
@ 009   ----------------------------------------
Label_4_011663D5:
 .byte   W12
 .byte   N06 ,Dn3 ,v127
 .byte   N06 ,Gn3
 .byte   W24
 .byte   Dn3
 .byte   N06 ,Gn3
 .byte   W12
 .byte   Dn3
 .byte   N06 ,Gn3
 .byte   W48
 .byte   PEND 
@ 010   ----------------------------------------
Label_4_011663E5:
 .byte   W12
 .byte   N06 ,Cn3 ,v127
 .byte   N06 ,Fn3
 .byte   W24
 .byte   Cn3
 .byte   N06 ,Fn3
 .byte   W12
 .byte   Cn3
 .byte   N06 ,Fn3
 .byte   W48
 .byte   PEND 
@ 011   ----------------------------------------
Label_4_011663F5:
 .byte   W12
 .byte   N06 ,Bn2 ,v127
 .byte   N06 ,En3
 .byte   W24
 .byte   Bn2
 .byte   N06 ,En3
 .byte   W12
 .byte   Bn2
 .byte   N06 ,En3
 .byte   W48
 .byte   PEND 
@ 012   ----------------------------------------
 .byte   W96
@ 013   ----------------------------------------
 .byte   W96
@ 014   ----------------------------------------
 .byte   W96
@ 015   ----------------------------------------
 .byte   W96
@ 016   ----------------------------------------
 .byte   W96
@ 017   ----------------------------------------
 .byte   W96
@ 018   ----------------------------------------
 .byte   W96
@ 019   ----------------------------------------
 .byte   W96
@ 020   ----------------------------------------
 .byte   W96
@ 021   ----------------------------------------
 .byte   W96
@ 022   ----------------------------------------
 .byte   W96
@ 023   ----------------------------------------
 .byte   W96
@ 024   ----------------------------------------
 .byte   W96
@ 025   ----------------------------------------
 .byte   W96
@ 026   ----------------------------------------
 .byte   W96
@ 027   ----------------------------------------
 .byte   W96
@ 028   ----------------------------------------
 .byte   PATT
  .word Label_4_011663A6
@ 029   ----------------------------------------
 .byte   PATT
  .word Label_4_011663A6
@ 030   ----------------------------------------
 .byte   PATT
  .word Label_4_011663BB
@ 031   ----------------------------------------
 .byte   PATT
  .word Label_4_011663BB
@ 032   ----------------------------------------
 .byte   PATT
  .word Label_4_011663A6
@ 033   ----------------------------------------
 .byte   PATT
  .word Label_4_011663D5
@ 034   ----------------------------------------
 .byte   PATT
  .word Label_4_011663E5
@ 035   ----------------------------------------
 .byte   PATT
  .word Label_4_011663F5
@ 036   ----------------------------------------
 .byte   W96
@ 037   ----------------------------------------
 .byte   W96
@ 038   ----------------------------------------
 .byte   W96
@ 039   ----------------------------------------
 .byte   W96
@ 040   ----------------------------------------
 .byte   W96
@ 041   ----------------------------------------
 .byte   W96
@ 042   ----------------------------------------
 .byte   W96
@ 043   ----------------------------------------
 .byte   W96
@ 044   ----------------------------------------
 .byte   W96
@ 045   ----------------------------------------
 .byte   W96
@ 046   ----------------------------------------
 .byte   W96
@ 047   ----------------------------------------
 .byte   W96
@ 048   ----------------------------------------
 .byte   W96
@ 049   ----------------------------------------
 .byte   W96
@ 050   ----------------------------------------
 .byte   W48
 .byte   W03
 .byte   GOTO
  .word Label_4_0116639E
@ 051   ----------------------------------------
 .byte   W44
 .byte   W01
 .byte   FINE

@**************** Track 6 (Midi-Chn.5) ****************@

song59_006:
@ 000   ----------------------------------------
 .byte   KEYSH , song59_key+0
Label_5_0116645A:
 .byte   VOICE , 56
 .byte   VOL , 45*song59_mvl/mxv
 .byte   PAN , c_v-1
 .byte   W96
@ 001   ----------------------------------------
 .byte   W96
@ 002   ----------------------------------------
 .byte   W96
@ 003   ----------------------------------------
 .byte   W96
@ 004   ----------------------------------------
 .byte   W96
@ 005   ----------------------------------------
 .byte   W96
@ 006   ----------------------------------------
 .byte   W96
@ 007   ----------------------------------------
Label_5_01166467:
 .byte   W06
 .byte   N06 ,An3 ,v127
 .byte   W06
 .byte   Bn3
 .byte   W06
 .byte   Cn4
 .byte   W06
 .byte   Dn4
 .byte   W06
 .byte   N24 ,En4
 .byte   W66
 .byte   PEND 
@ 008   ----------------------------------------
 .byte   W96
@ 009   ----------------------------------------
 .byte   W96
@ 010   ----------------------------------------
 .byte   W96
@ 011   ----------------------------------------
 .byte   W96
@ 012   ----------------------------------------
 .byte   W96
@ 013   ----------------------------------------
 .byte   W96
@ 014   ----------------------------------------
 .byte   W96
@ 015   ----------------------------------------
 .byte   W96
@ 016   ----------------------------------------
 .byte   W96
@ 017   ----------------------------------------
 .byte   W96
@ 018   ----------------------------------------
 .byte   W96
@ 019   ----------------------------------------
 .byte   W96
@ 020   ----------------------------------------
 .byte   W96
@ 021   ----------------------------------------
 .byte   W96
@ 022   ----------------------------------------
 .byte   W96
@ 023   ----------------------------------------
 .byte   W96
@ 024   ----------------------------------------
 .byte   W96
@ 025   ----------------------------------------
 .byte   W96
@ 026   ----------------------------------------
 .byte   W96
@ 027   ----------------------------------------
 .byte   W96
@ 028   ----------------------------------------
 .byte   W96
@ 029   ----------------------------------------
 .byte   W96
@ 030   ----------------------------------------
 .byte   W96
@ 031   ----------------------------------------
 .byte   PATT
  .word Label_5_01166467
@ 032   ----------------------------------------
 .byte   W96
@ 033   ----------------------------------------
 .byte   W96
@ 034   ----------------------------------------
 .byte   W96
@ 035   ----------------------------------------
 .byte   W96
@ 036   ----------------------------------------
 .byte   W96
@ 037   ----------------------------------------
 .byte   W96
@ 038   ----------------------------------------
 .byte   W96
@ 039   ----------------------------------------
 .byte   W96
@ 040   ----------------------------------------
 .byte   W96
@ 041   ----------------------------------------
 .byte   W96
@ 042   ----------------------------------------
 .byte   W96
@ 043   ----------------------------------------
 .byte   W96
@ 044   ----------------------------------------
 .byte   W96
@ 045   ----------------------------------------
 .byte   W96
@ 046   ----------------------------------------
 .byte   W96
@ 047   ----------------------------------------
 .byte   W96
@ 048   ----------------------------------------
 .byte   W96
@ 049   ----------------------------------------
 .byte   W96
@ 050   ----------------------------------------
 .byte   W48
 .byte   W03
 .byte   GOTO
  .word Label_5_0116645A
@ 051   ----------------------------------------
 .byte   W44
 .byte   W01
 .byte   FINE

@**************** Track 7 (Midi-Chn.6) ****************@

song59_007:
@ 000   ----------------------------------------
 .byte   KEYSH , song59_key+0
Label_6_011664B2:
 .byte   VOICE , 32
 .byte   VOL , 71*song59_mvl/mxv
 .byte   W96
@ 001   ----------------------------------------
 .byte   W96
@ 002   ----------------------------------------
 .byte   W96
@ 003   ----------------------------------------
 .byte   W96
@ 004   ----------------------------------------
Label_6_011664BA:
 .byte   N24 ,An0 ,v127
 .byte   W24
 .byte   N12 ,Cn1
 .byte   W12
 .byte   En1
 .byte   W12
 .byte   N24 ,An0
 .byte   W24
 .byte   N12 ,Cn1
 .byte   W12
 .byte   En1
 .byte   W12
 .byte   PEND 
@ 005   ----------------------------------------
 .byte   PATT
  .word Label_6_011664BA
@ 006   ----------------------------------------
Label_6_011664D1:
 .byte   N24 ,Cn1 ,v127
 .byte   W24
 .byte   N12 ,En1
 .byte   W12
 .byte   Gn1
 .byte   W12
 .byte   N24 ,Cn1
 .byte   W24
 .byte   N12 ,En1
 .byte   W12
 .byte   Gn1
 .byte   W12
 .byte   PEND 
@ 007   ----------------------------------------
 .byte   PATT
  .word Label_6_011664D1
@ 008   ----------------------------------------
 .byte   PATT
  .word Label_6_011664BA
@ 009   ----------------------------------------
Label_6_011664ED:
 .byte   N24 ,Gn0 ,v127
 .byte   W24
 .byte   N12 ,Bn0
 .byte   W12
 .byte   Dn1
 .byte   W12
 .byte   N24 ,Gn0
 .byte   W24
 .byte   N12 ,Bn0
 .byte   W12
 .byte   Dn1
 .byte   W12
 .byte   PEND 
@ 010   ----------------------------------------
Label_6_011664FF:
 .byte   N24 ,Fn0 ,v127
 .byte   W24
 .byte   N12 ,An0
 .byte   W12
 .byte   Cn1
 .byte   W12
 .byte   N24 ,Fn0
 .byte   W24
 .byte   N12 ,An0
 .byte   W12
 .byte   Cn1
 .byte   W12
 .byte   PEND 
@ 011   ----------------------------------------
Label_6_01166511:
 .byte   N24 ,En0 ,v127
 .byte   W24
 .byte   N12 ,Gs0
 .byte   W12
 .byte   Bn0
 .byte   W12
 .byte   N24 ,Gs0
 .byte   W24
 .byte   N12 ,Bn0
 .byte   W12
 .byte   En1
 .byte   W12
 .byte   PEND 
@ 012   ----------------------------------------
Label_6_01166523:
 .byte   N24 ,An0 ,v127
 .byte   W24
 .byte   N12 ,Cn1
 .byte   W12
 .byte   En1
 .byte   W12
 .byte   N24 ,Bn0
 .byte   W24
 .byte   N12 ,Dn1
 .byte   W12
 .byte   En1
 .byte   W12
 .byte   PEND 
@ 013   ----------------------------------------
Label_6_01166535:
 .byte   N24 ,Cn1 ,v127
 .byte   W24
 .byte   N12 ,En1
 .byte   W12
 .byte   Gn1
 .byte   W12
 .byte   An1
 .byte   W12
 .byte   Gn1
 .byte   W12
 .byte   En1
 .byte   W12
 .byte   Cn1
 .byte   W12
 .byte   PEND 
@ 014   ----------------------------------------
Label_6_01166547:
 .byte   N12 ,An0 ,v127
 .byte   W12
 .byte   Bn0
 .byte   W12
 .byte   Cn1
 .byte   W12
 .byte   Dn1
 .byte   W12
 .byte   Bn0
 .byte   W12
 .byte   Cn1
 .byte   W12
 .byte   Dn1
 .byte   W12
 .byte   En1
 .byte   W12
 .byte   PEND 
@ 015   ----------------------------------------
Label_6_0116655A:
 .byte   N12 ,Cn1 ,v127
 .byte   W12
 .byte   Dn1
 .byte   W12
 .byte   En1
 .byte   W12
 .byte   Gn1
 .byte   W12
 .byte   An1
 .byte   W12
 .byte   Gn1
 .byte   W12
 .byte   En1
 .byte   W12
 .byte   Cn1
 .byte   W12
 .byte   PEND 
@ 016   ----------------------------------------
 .byte   PATT
  .word Label_6_011664BA
@ 017   ----------------------------------------
 .byte   PATT
  .word Label_6_011664ED
@ 018   ----------------------------------------
 .byte   PATT
  .word Label_6_011664BA
@ 019   ----------------------------------------
Label_6_0116657C:
 .byte   N24 ,An0 ,v127
 .byte   W24
 .byte   N12 ,Cn1
 .byte   W12
 .byte   En1
 .byte   W12
 .byte   An0
 .byte   W12
 .byte   En1
 .byte   W12
 .byte   Cn1
 .byte   W12
 .byte   En0
 .byte   W12
 .byte   PEND 
@ 020   ----------------------------------------
Label_6_0116658E:
 .byte   N12 ,An0 ,v127
 .byte   W12
 .byte   Cn1
 .byte   W12
 .byte   Dn1
 .byte   W12
 .byte   Fn1
 .byte   W12
 .byte   Gs0
 .byte   W12
 .byte   En1
 .byte   W12
 .byte   Dn1
 .byte   W12
 .byte   Bn0
 .byte   W12
 .byte   PEND 
@ 021   ----------------------------------------
Label_6_011665A1:
 .byte   N12 ,Gn0 ,v127
 .byte   W12
 .byte   Bn0
 .byte   W12
 .byte   Dn1
 .byte   W12
 .byte   En1
 .byte   W12
 .byte   Dn1
 .byte   W12
 .byte   An0
 .byte   W12
 .byte   As0
 .byte   W12
 .byte   Cn1
 .byte   W12
 .byte   PEND 
@ 022   ----------------------------------------
Label_6_011665B4:
 .byte   N12 ,Dn1 ,v127
 .byte   W12
 .byte   An0
 .byte   W12
 .byte   Cn1
 .byte   W12
 .byte   Cs1
 .byte   W12
 .byte   Dn1
 .byte   W12
 .byte   An1
 .byte   W12
 .byte   Gn1
 .byte   W12
 .byte   Fn1
 .byte   W12
 .byte   PEND 
@ 023   ----------------------------------------
Label_6_011665C7:
 .byte   N12 ,Cn1 ,v127
 .byte   W12
 .byte   En1
 .byte   W12
 .byte   Dn1
 .byte   W12
 .byte   Fn1
 .byte   W12
 .byte   En1
 .byte   W12
 .byte   An1
 .byte   W12
 .byte   Gs1
 .byte   W12
 .byte   Bn1
 .byte   W12
 .byte   PEND 
@ 024   ----------------------------------------
 .byte   N48 ,An0
 .byte   W96
@ 025   ----------------------------------------
 .byte   W96
@ 026   ----------------------------------------
 .byte   W96
@ 027   ----------------------------------------
 .byte   W96
@ 028   ----------------------------------------
 .byte   PATT
  .word Label_6_011664BA
@ 029   ----------------------------------------
 .byte   PATT
  .word Label_6_011664BA
@ 030   ----------------------------------------
 .byte   PATT
  .word Label_6_011664D1
@ 031   ----------------------------------------
 .byte   PATT
  .word Label_6_011664D1
@ 032   ----------------------------------------
 .byte   PATT
  .word Label_6_011664BA
@ 033   ----------------------------------------
 .byte   PATT
  .word Label_6_011664ED
@ 034   ----------------------------------------
 .byte   PATT
  .word Label_6_011664FF
@ 035   ----------------------------------------
 .byte   PATT
  .word Label_6_01166511
@ 036   ----------------------------------------
 .byte   PATT
  .word Label_6_01166523
@ 037   ----------------------------------------
 .byte   PATT
  .word Label_6_01166535
@ 038   ----------------------------------------
 .byte   PATT
  .word Label_6_01166547
@ 039   ----------------------------------------
 .byte   PATT
  .word Label_6_0116655A
@ 040   ----------------------------------------
 .byte   PATT
  .word Label_6_011664BA
@ 041   ----------------------------------------
 .byte   PATT
  .word Label_6_011664ED
@ 042   ----------------------------------------
 .byte   PATT
  .word Label_6_011664BA
@ 043   ----------------------------------------
 .byte   PATT
  .word Label_6_0116657C
@ 044   ----------------------------------------
 .byte   PATT
  .word Label_6_0116658E
@ 045   ----------------------------------------
 .byte   PATT
  .word Label_6_011665A1
@ 046   ----------------------------------------
 .byte   PATT
  .word Label_6_011665B4
@ 047   ----------------------------------------
 .byte   PATT
  .word Label_6_011665C7
@ 048   ----------------------------------------
 .byte   N48 ,An0 ,v127
 .byte   W96
@ 049   ----------------------------------------
 .byte   W96
@ 050   ----------------------------------------
 .byte   W48
 .byte   W03
 .byte   GOTO
  .word Label_6_011664B2
@ 051   ----------------------------------------
 .byte   W44
 .byte   W01
 .byte   FINE

@**************** Track 8 (Midi-Chn.7) ****************@

song59_008:
@ 000   ----------------------------------------
 .byte   KEYSH , song59_key+0
Label_7_01166656:
 .byte   VOICE , 75
 .byte   VOL , 37*song59_mvl/mxv
 .byte   W96
@ 001   ----------------------------------------
 .byte   W96
@ 002   ----------------------------------------
 .byte   W96
@ 003   ----------------------------------------
 .byte   W96
@ 004   ----------------------------------------
 .byte   W96
@ 005   ----------------------------------------
 .byte   W96
@ 006   ----------------------------------------
 .byte   W96
@ 007   ----------------------------------------
 .byte   W96
@ 008   ----------------------------------------
 .byte   W96
@ 009   ----------------------------------------
 .byte   W96
@ 010   ----------------------------------------
 .byte   W96
@ 011   ----------------------------------------
 .byte   W96
@ 012   ----------------------------------------
Label_7_01166666:
 .byte   N24 ,An4 ,v127
 .byte   W24
 .byte   N12 ,En4
 .byte   W12
 .byte   An4
 .byte   W12
 .byte   N24 ,Gs4
 .byte   W24
 .byte   N12 ,En4
 .byte   W12
 .byte   Gs4
 .byte   W12
 .byte   PEND 
@ 013   ----------------------------------------
Label_7_01166678:
 .byte   N24 ,Gn4 ,v127
 .byte   W24
 .byte   N12 ,En4
 .byte   W12
 .byte   Gn4
 .byte   W12
 .byte   Fs4
 .byte   W12
 .byte   En4
 .byte   W12
 .byte   Cn4
 .byte   W12
 .byte   An3
 .byte   W12
 .byte   PEND 
@ 014   ----------------------------------------
 .byte   PATT
  .word Label_7_01166666
@ 015   ----------------------------------------
 .byte   PATT
  .word Label_7_01166678
@ 016   ----------------------------------------
 .byte   W96
@ 017   ----------------------------------------
 .byte   W96
@ 018   ----------------------------------------
 .byte   W96
@ 019   ----------------------------------------
 .byte   W96
@ 020   ----------------------------------------
 .byte   W96
@ 021   ----------------------------------------
 .byte   W96
@ 022   ----------------------------------------
 .byte   W96
@ 023   ----------------------------------------
 .byte   W96
@ 024   ----------------------------------------
 .byte   W96
@ 025   ----------------------------------------
 .byte   W96
@ 026   ----------------------------------------
 .byte   W96
@ 027   ----------------------------------------
 .byte   W96
@ 028   ----------------------------------------
 .byte   W96
@ 029   ----------------------------------------
 .byte   W96
@ 030   ----------------------------------------
 .byte   W96
@ 031   ----------------------------------------
 .byte   W96
@ 032   ----------------------------------------
 .byte   W96
@ 033   ----------------------------------------
 .byte   W96
@ 034   ----------------------------------------
 .byte   W96
@ 035   ----------------------------------------
 .byte   W96
@ 036   ----------------------------------------
 .byte   PATT
  .word Label_7_01166666
@ 037   ----------------------------------------
 .byte   PATT
  .word Label_7_01166678
@ 038   ----------------------------------------
 .byte   PATT
  .word Label_7_01166666
@ 039   ----------------------------------------
 .byte   PATT
  .word Label_7_01166678
@ 040   ----------------------------------------
 .byte   W96
@ 041   ----------------------------------------
 .byte   W96
@ 042   ----------------------------------------
 .byte   W96
@ 043   ----------------------------------------
 .byte   W96
@ 044   ----------------------------------------
 .byte   W96
@ 045   ----------------------------------------
 .byte   W96
@ 046   ----------------------------------------
 .byte   W96
@ 047   ----------------------------------------
 .byte   W96
@ 048   ----------------------------------------
 .byte   W96
@ 049   ----------------------------------------
 .byte   W96
@ 050   ----------------------------------------
 .byte   W48
 .byte   W03
 .byte   GOTO
  .word Label_7_01166656
@ 051   ----------------------------------------
 .byte   W44
 .byte   W01
 .byte   FINE

@**************** Track 9 (Midi-Chn.8) ****************@

song59_009:
@ 000   ----------------------------------------
 .byte   KEYSH , song59_key+0
Label_8_011666D2:
 .byte   VOICE , 121
 .byte   VOL , 25*song59_mvl/mxv
 .byte   N12 ,Dn1 ,v127
 .byte   W12
 .byte   N06 ,En1
 .byte   W12
 .byte   N06
 .byte   W12
 .byte   N06
 .byte   W12
 .byte   N12 ,Dn1
 .byte   W12
 .byte   N06 ,En1
 .byte   W12
 .byte   N06
 .byte   W12
 .byte   N06
 .byte   W12
@ 001   ----------------------------------------
Label_8_011666EB:
 .byte   N12 ,Dn1 ,v127
 .byte   W12
 .byte   N06 ,En1
 .byte   W12
 .byte   N06
 .byte   W12
 .byte   N06
 .byte   W12
 .byte   N12 ,Dn1
 .byte   W12
 .byte   N06 ,En1
 .byte   W12
 .byte   N06
 .byte   W12
 .byte   N06
 .byte   W12
 .byte   PEND 
@ 002   ----------------------------------------
Label_8_01166701:
 .byte   N06 ,Bn0 ,v127
 .byte   W12
 .byte   Fs2
 .byte   W12
 .byte   Bn0
 .byte   W12
 .byte   Fs2
 .byte   W12
 .byte   Bn0
 .byte   W12
 .byte   Fs2
 .byte   W12
 .byte   Bn0
 .byte   W12
 .byte   Fs2
 .byte   W12
 .byte   PEND 
@ 003   ----------------------------------------
 .byte   PATT
  .word Label_8_01166701
@ 004   ----------------------------------------
 .byte   PATT
  .word Label_8_01166701
@ 005   ----------------------------------------
 .byte   PATT
  .word Label_8_01166701
@ 006   ----------------------------------------
 .byte   PATT
  .word Label_8_01166701
@ 007   ----------------------------------------
 .byte   PATT
  .word Label_8_01166701
@ 008   ----------------------------------------
 .byte   PATT
  .word Label_8_01166701
@ 009   ----------------------------------------
 .byte   PATT
  .word Label_8_01166701
@ 010   ----------------------------------------
 .byte   PATT
  .word Label_8_01166701
@ 011   ----------------------------------------
 .byte   PATT
  .word Label_8_01166701
@ 012   ----------------------------------------
 .byte   PATT
  .word Label_8_01166701
@ 013   ----------------------------------------
 .byte   PATT
  .word Label_8_01166701
@ 014   ----------------------------------------
 .byte   PATT
  .word Label_8_01166701
@ 015   ----------------------------------------
 .byte   PATT
  .word Label_8_01166701
@ 016   ----------------------------------------
 .byte   PATT
  .word Label_8_01166701
@ 017   ----------------------------------------
 .byte   PATT
  .word Label_8_01166701
@ 018   ----------------------------------------
 .byte   PATT
  .word Label_8_01166701
@ 019   ----------------------------------------
Label_8_01166764:
 .byte   N06 ,Bn0 ,v127
 .byte   W12
 .byte   Fs2
 .byte   W12
 .byte   Bn0
 .byte   W12
 .byte   Fs2
 .byte   W12
 .byte   Bn0
 .byte   W12
 .byte   N06
 .byte   N06 ,Fs2
 .byte   W12
 .byte   Bn0
 .byte   N06 ,Fs2
 .byte   W12
 .byte   Bn0
 .byte   N06 ,Gs1
 .byte   N06 ,Fs2
 .byte   N06 ,An3
 .byte   N06 ,As3
 .byte   W06
 .byte   Gs1
 .byte   N06 ,An3
 .byte   N06 ,As3
 .byte   W06
 .byte   PEND 
@ 020   ----------------------------------------
Label_8_01166789:
 .byte   N06 ,Bn0 ,v127
 .byte   N06 ,Gs1
 .byte   W12
 .byte   N06
 .byte   N06 ,Fs2
 .byte   W12
 .byte   Bn0
 .byte   N06 ,Gs1
 .byte   W12
 .byte   N06
 .byte   N06 ,Fs2
 .byte   W12
 .byte   Bn0
 .byte   N06 ,Gs1
 .byte   W12
 .byte   N06
 .byte   N06 ,Fs2
 .byte   W12
 .byte   Bn0
 .byte   N06 ,Gs1
 .byte   W09
 .byte   N03
 .byte   W03
 .byte   N06
 .byte   N06 ,Fs2
 .byte   W09
 .byte   N03 ,As1
 .byte   W03
 .byte   PEND 
@ 021   ----------------------------------------
 .byte   PATT
  .word Label_8_01166789
@ 022   ----------------------------------------
 .byte   PATT
  .word Label_8_01166789
@ 023   ----------------------------------------
Label_8_011667BB:
 .byte   N06 ,Bn0 ,v127
 .byte   N06 ,Gs1
 .byte   W12
 .byte   N06
 .byte   N06 ,Fs2
 .byte   W12
 .byte   Bn0
 .byte   N06 ,Gs1
 .byte   W12
 .byte   N06
 .byte   N06 ,Fs2
 .byte   W12
 .byte   Bn0
 .byte   N06 ,Gs1
 .byte   W12
 .byte   N06
 .byte   N06 ,Fs2
 .byte   W12
 .byte   Bn0
 .byte   N06 ,Gs1
 .byte   W06
 .byte   As3
 .byte   W03
 .byte   N03 ,Gs1
 .byte   W03
 .byte   N06
 .byte   N06 ,Fs2
 .byte   N06 ,As3
 .byte   W06
 .byte   N06
 .byte   W03
 .byte   N03 ,As1
 .byte   W03
 .byte   PEND 
@ 024   ----------------------------------------
 .byte   PATT
  .word Label_8_011666EB
@ 025   ----------------------------------------
 .byte   PATT
  .word Label_8_011666EB
@ 026   ----------------------------------------
 .byte   PATT
  .word Label_8_01166701
@ 027   ----------------------------------------
 .byte   PATT
  .word Label_8_01166701
@ 028   ----------------------------------------
 .byte   PATT
  .word Label_8_01166701
@ 029   ----------------------------------------
 .byte   PATT
  .word Label_8_01166701
@ 030   ----------------------------------------
 .byte   PATT
  .word Label_8_01166701
@ 031   ----------------------------------------
 .byte   PATT
  .word Label_8_01166701
@ 032   ----------------------------------------
 .byte   PATT
  .word Label_8_01166701
@ 033   ----------------------------------------
 .byte   PATT
  .word Label_8_01166701
@ 034   ----------------------------------------
 .byte   PATT
  .word Label_8_01166701
@ 035   ----------------------------------------
 .byte   PATT
  .word Label_8_01166701
@ 036   ----------------------------------------
 .byte   PATT
  .word Label_8_01166701
@ 037   ----------------------------------------
 .byte   PATT
  .word Label_8_01166701
@ 038   ----------------------------------------
 .byte   PATT
  .word Label_8_01166701
@ 039   ----------------------------------------
 .byte   PATT
  .word Label_8_01166701
@ 040   ----------------------------------------
 .byte   PATT
  .word Label_8_01166701
@ 041   ----------------------------------------
 .byte   PATT
  .word Label_8_01166701
@ 042   ----------------------------------------
 .byte   PATT
  .word Label_8_01166701
@ 043   ----------------------------------------
 .byte   PATT
  .word Label_8_01166764
@ 044   ----------------------------------------
 .byte   PATT
  .word Label_8_01166789
@ 045   ----------------------------------------
 .byte   PATT
  .word Label_8_01166789
@ 046   ----------------------------------------
 .byte   PATT
  .word Label_8_01166789
@ 047   ----------------------------------------
 .byte   PATT
  .word Label_8_011667BB
@ 048   ----------------------------------------
 .byte   PATT
  .word Label_8_011666EB
@ 049   ----------------------------------------
 .byte   W96
@ 050   ----------------------------------------
 .byte   N96 ,Cs2 ,v127
 .byte   W48
 .byte   W03
 .byte   GOTO
  .word Label_8_011666D2
@ 051   ----------------------------------------
 .byte   W44
 .byte   W01
 .byte   FINE

@**************** Track 10 (Midi-Chn.9) ****************@

song59_010:
@ 000   ----------------------------------------
 .byte   KEYSH , song59_key+0
Label_9_011668F2:
 .byte   VOICE , 4
 .byte   VOL , 39*song59_mvl/mxv
 .byte   W96
@ 001   ----------------------------------------
 .byte   W96
@ 002   ----------------------------------------
 .byte   W96
@ 003   ----------------------------------------
 .byte   W96
@ 004   ----------------------------------------
 .byte   W96
@ 005   ----------------------------------------
 .byte   W96
@ 006   ----------------------------------------
 .byte   W96
@ 007   ----------------------------------------
 .byte   W96
@ 008   ----------------------------------------
 .byte   W96
@ 009   ----------------------------------------
 .byte   W96
@ 010   ----------------------------------------
 .byte   W96
@ 011   ----------------------------------------
 .byte   W96
@ 012   ----------------------------------------
 .byte   W96
@ 013   ----------------------------------------
 .byte   W96
@ 014   ----------------------------------------
 .byte   W96
@ 015   ----------------------------------------
 .byte   W96
@ 016   ----------------------------------------
 .byte   W96
@ 017   ----------------------------------------
 .byte   W96
@ 018   ----------------------------------------
 .byte   W96
@ 019   ----------------------------------------
 .byte   W96
@ 020   ----------------------------------------
Label_9_0116690A:
 .byte   W12
 .byte   N12 ,Cn3 ,v127
 .byte   N12 ,En3
 .byte   W18
 .byte   N12
 .byte   N12 ,An3
 .byte   W18
 .byte   En3
 .byte   N12 ,Gs3
 .byte   W18
 .byte   Cn3
 .byte   N12 ,En3
 .byte   W18
 .byte   Cn3
 .byte   N12 ,En3
 .byte   N12 ,Gs3
 .byte   W12
 .byte   PEND 
@ 021   ----------------------------------------
Label_9_01166924:
 .byte   N12 ,Bn2 ,v127
 .byte   N12 ,Dn3
 .byte   N12 ,Gn3
 .byte   W24
 .byte   As2
 .byte   N12 ,Dn3
 .byte   N12 ,Gn3
 .byte   W24
 .byte   An2
 .byte   N12 ,Dn3
 .byte   N12 ,Fs3
 .byte   W18
 .byte   N18 ,Dn3
 .byte   W18
 .byte   N12 ,En3
 .byte   W12
 .byte   PEND 
@ 022   ----------------------------------------
Label_9_0116693F:
 .byte   N06 ,Fn3 ,v127
 .byte   W06
 .byte   En3
 .byte   W06
 .byte   Fn3
 .byte   W06
 .byte   Cn3
 .byte   W06
 .byte   An2
 .byte   W06
 .byte   Cn3
 .byte   W06
 .byte   Fn3
 .byte   W06
 .byte   En3
 .byte   W06
 .byte   Fn3
 .byte   W06
 .byte   Cn3
 .byte   W06
 .byte   An2
 .byte   W06
 .byte   Cn3
 .byte   W06
 .byte   Fn3
 .byte   W06
 .byte   En3
 .byte   W06
 .byte   Fn3
 .byte   W06
 .byte   Cn3
 .byte   W06
 .byte   PEND 
@ 023   ----------------------------------------
Label_9_01166962:
 .byte   N12 ,An2 ,v127
 .byte   N12 ,Cn3
 .byte   N12 ,En3
 .byte   W24
 .byte   Bn2
 .byte   N12 ,Dn3
 .byte   N12 ,Fn3
 .byte   W24
 .byte   Gs2
 .byte   N12 ,Bn2
 .byte   N12 ,Dn3
 .byte   W24
 .byte   En3
 .byte   W18
 .byte   N06 ,Dn3
 .byte   W06
 .byte   PEND 
@ 024   ----------------------------------------
 .byte   N48 ,En3
 .byte   W96
@ 025   ----------------------------------------
 .byte   W96
@ 026   ----------------------------------------
 .byte   W96
@ 027   ----------------------------------------
 .byte   W96
@ 028   ----------------------------------------
 .byte   W96
@ 029   ----------------------------------------
 .byte   W96
@ 030   ----------------------------------------
 .byte   W96
@ 031   ----------------------------------------
 .byte   W96
@ 032   ----------------------------------------
 .byte   W96
@ 033   ----------------------------------------
 .byte   W96
@ 034   ----------------------------------------
 .byte   W96
@ 035   ----------------------------------------
 .byte   W96
@ 036   ----------------------------------------
 .byte   W96
@ 037   ----------------------------------------
 .byte   W96
@ 038   ----------------------------------------
 .byte   W96
@ 039   ----------------------------------------
 .byte   W96
@ 040   ----------------------------------------
 .byte   W96
@ 041   ----------------------------------------
 .byte   W96
@ 042   ----------------------------------------
 .byte   W96
@ 043   ----------------------------------------
 .byte   W96
@ 044   ----------------------------------------
 .byte   PATT
  .word Label_9_0116690A
@ 045   ----------------------------------------
 .byte   PATT
  .word Label_9_01166924
@ 046   ----------------------------------------
 .byte   PATT
  .word Label_9_0116693F
@ 047   ----------------------------------------
 .byte   PATT
  .word Label_9_01166962
@ 048   ----------------------------------------
 .byte   N48 ,En3 ,v127
 .byte   W96
@ 049   ----------------------------------------
 .byte   W96
@ 050   ----------------------------------------
 .byte   W48
 .byte   W03
 .byte   GOTO
  .word Label_9_011668F2
@ 051   ----------------------------------------
 .byte   W44
 .byte   W01
 .byte   FINE

@******************************************************@
	.align	2

song59:
	.byte	10	@ NumTrks
	.byte	0	@ NumBlks
	.byte	song59_pri	@ Priority
	.byte	song59_rev	@ Reverb.
    
	.word	song59_grp
    
	.word	song59_001
	.word	song59_002
	.word	song59_003
	.word	song59_004
	.word	song59_005
	.word	song59_006
	.word	song59_007
	.word	song59_008
	.word	song59_009
	.word	song59_010

	.end
