	.include "MPlayDef.s"

	.equ	song0118_grp, voicegroup000
	.equ	song0118_pri, 0
	.equ	song0118_rev, 0
	.equ	song0118_mvl, 127
	.equ	song0118_key, 0
	.equ	song0118_tbs, 1
	.equ	song0118_exg, 0
	.equ	song0118_cmp, 1

	.section .rodata
	.global	song0118
	.align	2


@**************** Track 1 (Midi-Chn.0) ****************@

song0118_001:
@ 000   ----------------------------------------
 .byte   VOL , 49*song0118_mvl/mxv
 .byte   KEYSH , song0118_key+0
 .byte   TEMPO , 120*song0118_tbs/2
 .byte   VOICE , 117
 .byte   W96
@ 001   ----------------------------------------
 .byte   W96
@ 002   ----------------------------------------
Label_0_0158EA52:
 .byte   N12 ,Gn2 ,v108
 .byte   W12
 .byte   N06
 .byte   W06
 .byte   N06
 .byte   W06
 .byte   N12
 .byte   W12
 .byte   N12
 .byte   W12
 .byte   N06
 .byte   W06
 .byte   N06
 .byte   W06
 .byte   N12
 .byte   W12
 .byte   N12
 .byte   W12
 .byte   N06
 .byte   W06
 .byte   N06
 .byte   W06
 .byte   PEND 
@ 003   ----------------------------------------
Label_0_0158EA6B:
 .byte   N06 ,Gn2 ,v108
 .byte   W06
 .byte   N06
 .byte   W06
 .byte   N06
 .byte   W06
 .byte   N06
 .byte   W06
 .byte   N12
 .byte   W12
 .byte   N06
 .byte   W06
 .byte   N06
 .byte   W06
 .byte   N06
 .byte   W06
 .byte   N06
 .byte   W06
 .byte   N12
 .byte   W12
 .byte   N12
 .byte   W12
 .byte   N12
 .byte   W12
 .byte   PEND 
 .byte   PATT
  .word Label_0_0158EA52
 .byte   PATT
  .word Label_0_0158EA6B
 .byte   PATT
  .word Label_0_0158EA52
 .byte   PATT
  .word Label_0_0158EA6B
 .byte   PATT
  .word Label_0_0158EA52
 .byte   PATT
  .word Label_0_0158EA6B
 .byte   PATT
  .word Label_0_0158EA52
 .byte   PATT
  .word Label_0_0158EA6B
 .byte   PATT
  .word Label_0_0158EA52
 .byte   PATT
  .word Label_0_0158EA6B
 .byte   PATT
  .word Label_0_0158EA52
 .byte   PATT
  .word Label_0_0158EA6B
 .byte   PATT
  .word Label_0_0158EA52
 .byte   PATT
  .word Label_0_0158EA6B
 .byte   PATT
  .word Label_0_0158EA52
 .byte   PATT
  .word Label_0_0158EA6B
 .byte   PATT
  .word Label_0_0158EA52
 .byte   PATT
  .word Label_0_0158EA6B
@ 004   ----------------------------------------
 .byte   W96
@ 005   ----------------------------------------
 .byte   W96
@ 006   ----------------------------------------
 .byte   W96
@ 007   ----------------------------------------
 .byte   W96
@ 008   ----------------------------------------
 .byte   W96
@ 009   ----------------------------------------
 .byte   W96
@ 010   ----------------------------------------
 .byte   W96
@ 011   ----------------------------------------
 .byte   W96
@ 012   ----------------------------------------
 .byte   W96
@ 013   ----------------------------------------
 .byte   W96
@ 014   ----------------------------------------
 .byte   W96
@ 015   ----------------------------------------
 .byte   W96
 .byte   PATT
  .word Label_0_0158EA52
 .byte   PATT
  .word Label_0_0158EA6B
 .byte   PATT
  .word Label_0_0158EA52
 .byte   PATT
  .word Label_0_0158EA6B
 .byte   PATT
  .word Label_0_0158EA52
 .byte   PATT
  .word Label_0_0158EA6B
 .byte   PATT
  .word Label_0_0158EA52
 .byte   PATT
  .word Label_0_0158EA6B
 .byte   PATT
  .word Label_0_0158EA52
 .byte   PATT
  .word Label_0_0158EA6B
 .byte   PATT
  .word Label_0_0158EA52
 .byte   PATT
  .word Label_0_0158EA6B
 .byte   PATT
  .word Label_0_0158EA52
 .byte   PATT
  .word Label_0_0158EA6B
 .byte   PATT
  .word Label_0_0158EA52
 .byte   PATT
  .word Label_0_0158EA6B
 .byte   PATT
  .word Label_0_0158EA52
 .byte   PATT
  .word Label_0_0158EA6B
 .byte   PATT
  .word Label_0_0158EA52
 .byte   PATT
  .word Label_0_0158EA6B
 .byte   PATT
  .word Label_0_0158EA52
 .byte   PATT
  .word Label_0_0158EA6B
 .byte   PATT
  .word Label_0_0158EA52
 .byte   PATT
  .word Label_0_0158EA6B
 .byte   PATT
  .word Label_0_0158EA52
 .byte   PATT
  .word Label_0_0158EA6B
 .byte   PATT
  .word Label_0_0158EA52
 .byte   PATT
  .word Label_0_0158EA6B
@ 016   ----------------------------------------
 .byte   GOTO
  .word Label_0_0158EA52
 .byte   PATT
  .word Label_0_0158EA52
 .byte   PATT
  .word Label_0_0158EA6B
 .byte   PATT
  .word Label_0_0158EA52
 .byte   PATT
  .word Label_0_0158EA6B
 .byte   PATT
  .word Label_0_0158EA52
 .byte   PATT
  .word Label_0_0158EA6B
 .byte   PATT
  .word Label_0_0158EA52
 .byte   PATT
  .word Label_0_0158EA6B
@ 017   ----------------------------------------
 .byte   W96
@ 018   ----------------------------------------
 .byte   W96
@ 019   ----------------------------------------
 .byte   W96
@ 020   ----------------------------------------
 .byte   W96
@ 021   ----------------------------------------
 .byte   W96
@ 022   ----------------------------------------
 .byte   W96
@ 023   ----------------------------------------
 .byte   W96
@ 024   ----------------------------------------
 .byte   W96
@ 025   ----------------------------------------
 .byte   W96
@ 026   ----------------------------------------
 .byte   W96
@ 027   ----------------------------------------
 .byte   W96
@ 028   ----------------------------------------
 .byte   W96
 .byte   PATT
  .word Label_0_0158EA52
 .byte   PATT
  .word Label_0_0158EA6B
 .byte   PATT
  .word Label_0_0158EA52
 .byte   PATT
  .word Label_0_0158EA6B
 .byte   PATT
  .word Label_0_0158EA52
 .byte   PATT
  .word Label_0_0158EA6B
 .byte   PATT
  .word Label_0_0158EA52
 .byte   PATT
  .word Label_0_0158EA6B
 .byte   PATT
  .word Label_0_0158EA52
 .byte   PATT
  .word Label_0_0158EA6B
 .byte   PATT
  .word Label_0_0158EA52
 .byte   PATT
  .word Label_0_0158EA6B
 .byte   PATT
  .word Label_0_0158EA52
 .byte   PATT
  .word Label_0_0158EA6B
 .byte   PATT
  .word Label_0_0158EA52
 .byte   PATT
  .word Label_0_0158EA6B
 .byte   FINE

@**************** Track 2 (Midi-Chn.1) ****************@

song0118_002:
@ 000   ----------------------------------------
 .byte   VOL , 49*song0118_mvl/mxv
 .byte   KEYSH , song0118_key+0
 .byte   VOICE , 116
 .byte   W96
@ 001   ----------------------------------------
 .byte   W96
@ 002   ----------------------------------------
Label_1_0158EC0C:
 .byte   N12 ,Cn1 ,v108
 .byte   W36
 .byte   N12
 .byte   W36
 .byte   N12
 .byte   W24
 .byte   PEND 
 .byte   PATT
  .word Label_1_0158EC0C
 .byte   PATT
  .word Label_1_0158EC0C
 .byte   PATT
  .word Label_1_0158EC0C
 .byte   PATT
  .word Label_1_0158EC0C
 .byte   PATT
  .word Label_1_0158EC0C
 .byte   PATT
  .word Label_1_0158EC0C
 .byte   PATT
  .word Label_1_0158EC0C
 .byte   PATT
  .word Label_1_0158EC0C
 .byte   PATT
  .word Label_1_0158EC0C
 .byte   PATT
  .word Label_1_0158EC0C
 .byte   PATT
  .word Label_1_0158EC0C
 .byte   PATT
  .word Label_1_0158EC0C
 .byte   PATT
  .word Label_1_0158EC0C
 .byte   PATT
  .word Label_1_0158EC0C
 .byte   PATT
  .word Label_1_0158EC0C
 .byte   PATT
  .word Label_1_0158EC0C
 .byte   PATT
  .word Label_1_0158EC0C
 .byte   PATT
  .word Label_1_0158EC0C
 .byte   PATT
  .word Label_1_0158EC0C
 .byte   PATT
  .word Label_1_0158EC0C
 .byte   PATT
  .word Label_1_0158EC0C
 .byte   PATT
  .word Label_1_0158EC0C
 .byte   PATT
  .word Label_1_0158EC0C
 .byte   PATT
  .word Label_1_0158EC0C
 .byte   PATT
  .word Label_1_0158EC0C
 .byte   PATT
  .word Label_1_0158EC0C
 .byte   PATT
  .word Label_1_0158EC0C
 .byte   PATT
  .word Label_1_0158EC0C
 .byte   PATT
  .word Label_1_0158EC0C
 .byte   PATT
  .word Label_1_0158EC0C
 .byte   PATT
  .word Label_1_0158EC0C
 .byte   PATT
  .word Label_1_0158EC0C
 .byte   PATT
  .word Label_1_0158EC0C
 .byte   PATT
  .word Label_1_0158EC0C
 .byte   PATT
  .word Label_1_0158EC0C
 .byte   PATT
  .word Label_1_0158EC0C
 .byte   PATT
  .word Label_1_0158EC0C
 .byte   PATT
  .word Label_1_0158EC0C
 .byte   PATT
  .word Label_1_0158EC0C
 .byte   PATT
  .word Label_1_0158EC0C
 .byte   PATT
  .word Label_1_0158EC0C
 .byte   PATT
  .word Label_1_0158EC0C
 .byte   PATT
  .word Label_1_0158EC0C
 .byte   PATT
  .word Label_1_0158EC0C
 .byte   PATT
  .word Label_1_0158EC0C
 .byte   PATT
  .word Label_1_0158EC0C
 .byte   PATT
  .word Label_1_0158EC0C
 .byte   PATT
  .word Label_1_0158EC0C
 .byte   PATT
  .word Label_1_0158EC0C
 .byte   PATT
  .word Label_1_0158EC0C
 .byte   PATT
  .word Label_1_0158EC0C
 .byte   PATT
  .word Label_1_0158EC0C
 .byte   PATT
  .word Label_1_0158EC0C
 .byte   PATT
  .word Label_1_0158EC0C
 .byte   PATT
  .word Label_1_0158EC0C
 .byte   PATT
  .word Label_1_0158EC0C
 .byte   PATT
  .word Label_1_0158EC0C
 .byte   PATT
  .word Label_1_0158EC0C
 .byte   PATT
  .word Label_1_0158EC0C
@ 003   ----------------------------------------
 .byte   GOTO
  .word Label_1_0158EC0C
 .byte   PATT
  .word Label_1_0158EC0C
 .byte   PATT
  .word Label_1_0158EC0C
 .byte   PATT
  .word Label_1_0158EC0C
 .byte   PATT
  .word Label_1_0158EC0C
 .byte   PATT
  .word Label_1_0158EC0C
 .byte   PATT
  .word Label_1_0158EC0C
 .byte   PATT
  .word Label_1_0158EC0C
 .byte   PATT
  .word Label_1_0158EC0C
 .byte   PATT
  .word Label_1_0158EC0C
 .byte   PATT
  .word Label_1_0158EC0C
 .byte   PATT
  .word Label_1_0158EC0C
 .byte   PATT
  .word Label_1_0158EC0C
 .byte   PATT
  .word Label_1_0158EC0C
 .byte   PATT
  .word Label_1_0158EC0C
 .byte   PATT
  .word Label_1_0158EC0C
 .byte   PATT
  .word Label_1_0158EC0C
 .byte   PATT
  .word Label_1_0158EC0C
 .byte   PATT
  .word Label_1_0158EC0C
 .byte   PATT
  .word Label_1_0158EC0C
 .byte   PATT
  .word Label_1_0158EC0C
 .byte   PATT
  .word Label_1_0158EC0C
 .byte   PATT
  .word Label_1_0158EC0C
 .byte   PATT
  .word Label_1_0158EC0C
 .byte   PATT
  .word Label_1_0158EC0C
 .byte   PATT
  .word Label_1_0158EC0C
 .byte   PATT
  .word Label_1_0158EC0C
 .byte   PATT
  .word Label_1_0158EC0C
 .byte   PATT
  .word Label_1_0158EC0C
 .byte   PATT
  .word Label_1_0158EC0C
 .byte   PATT
  .word Label_1_0158EC0C
 .byte   PATT
  .word Label_1_0158EC0C
 .byte   PATT
  .word Label_1_0158EC0C
 .byte   PATT
  .word Label_1_0158EC0C
 .byte   PATT
  .word Label_1_0158EC0C
 .byte   PATT
  .word Label_1_0158EC0C
 .byte   PATT
  .word Label_1_0158EC0C
 .byte   FINE

@**************** Track 3 (Midi-Chn.2) ****************@

song0118_003:
@ 000   ----------------------------------------
 .byte   VOL , 49*song0118_mvl/mxv
 .byte   KEYSH , song0118_key+0
 .byte   VOICE , 119
 .byte   W96
@ 001   ----------------------------------------
 .byte   W96
@ 002   ----------------------------------------
Label_2_0158EE00:
 .byte   N96 ,Cs3 ,v108
 .byte   W96
@ 003   ----------------------------------------
 .byte   W96
@ 004   ----------------------------------------
 .byte   W96
@ 005   ----------------------------------------
 .byte   W96
@ 006   ----------------------------------------
 .byte   N96
 .byte   W96
@ 007   ----------------------------------------
 .byte   W96
@ 008   ----------------------------------------
 .byte   W96
@ 009   ----------------------------------------
 .byte   W96
@ 010   ----------------------------------------
 .byte   W96
@ 011   ----------------------------------------
 .byte   W96
@ 012   ----------------------------------------
 .byte   W96
@ 013   ----------------------------------------
 .byte   W96
@ 014   ----------------------------------------
 .byte   N96
 .byte   W96
@ 015   ----------------------------------------
 .byte   W96
@ 016   ----------------------------------------
 .byte   W96
@ 017   ----------------------------------------
 .byte   W96
@ 018   ----------------------------------------
 .byte   W96
@ 019   ----------------------------------------
 .byte   W96
@ 020   ----------------------------------------
 .byte   W96
@ 021   ----------------------------------------
 .byte   W96
@ 022   ----------------------------------------
 .byte   W96
@ 023   ----------------------------------------
 .byte   W96
@ 024   ----------------------------------------
 .byte   W96
@ 025   ----------------------------------------
 .byte   W96
@ 026   ----------------------------------------
 .byte   W96
@ 027   ----------------------------------------
 .byte   W96
@ 028   ----------------------------------------
 .byte   W96
@ 029   ----------------------------------------
 .byte   W96
@ 030   ----------------------------------------
 .byte   W96
@ 031   ----------------------------------------
 .byte   W96
@ 032   ----------------------------------------
 .byte   W96
@ 033   ----------------------------------------
 .byte   W96
@ 034   ----------------------------------------
 .byte   N96
 .byte   W96
@ 035   ----------------------------------------
 .byte   W96
@ 036   ----------------------------------------
 .byte   W96
@ 037   ----------------------------------------
 .byte   W96
@ 038   ----------------------------------------
 .byte   W96
@ 039   ----------------------------------------
 .byte   W96
@ 040   ----------------------------------------
 .byte   W96
@ 041   ----------------------------------------
 .byte   W96
@ 042   ----------------------------------------
 .byte   W96
@ 043   ----------------------------------------
 .byte   W96
@ 044   ----------------------------------------
 .byte   W96
@ 045   ----------------------------------------
 .byte   W96
@ 046   ----------------------------------------
 .byte   W96
@ 047   ----------------------------------------
 .byte   W96
@ 048   ----------------------------------------
 .byte   W96
@ 049   ----------------------------------------
 .byte   W96
@ 050   ----------------------------------------
 .byte   N96
 .byte   W96
@ 051   ----------------------------------------
 .byte   W96
@ 052   ----------------------------------------
 .byte   W96
@ 053   ----------------------------------------
 .byte   W96
@ 054   ----------------------------------------
 .byte   N96
 .byte   W96
@ 055   ----------------------------------------
 .byte   W96
@ 056   ----------------------------------------
 .byte   W96
@ 057   ----------------------------------------
 .byte   W96
@ 058   ----------------------------------------
 .byte   W96
@ 059   ----------------------------------------
 .byte   W96
@ 060   ----------------------------------------
 .byte   W96
@ 061   ----------------------------------------
 .byte   W96
@ 062   ----------------------------------------
 .byte   GOTO
  .word Label_2_0158EE00
@ 063   ----------------------------------------
 .byte   N96 ,Cs3 ,v108
 .byte   W96
@ 064   ----------------------------------------
 .byte   W96
@ 065   ----------------------------------------
 .byte   W96
@ 066   ----------------------------------------
 .byte   W96
@ 067   ----------------------------------------
 .byte   W96
@ 068   ----------------------------------------
 .byte   W96
@ 069   ----------------------------------------
 .byte   W96
@ 070   ----------------------------------------
 .byte   W96
@ 071   ----------------------------------------
 .byte   W96
@ 072   ----------------------------------------
 .byte   W96
@ 073   ----------------------------------------
 .byte   W96
@ 074   ----------------------------------------
 .byte   W96
@ 075   ----------------------------------------
 .byte   W96
@ 076   ----------------------------------------
 .byte   W96
@ 077   ----------------------------------------
 .byte   W96
@ 078   ----------------------------------------
 .byte   W96
@ 079   ----------------------------------------
 .byte   W96
@ 080   ----------------------------------------
 .byte   W96
@ 081   ----------------------------------------
 .byte   W96
@ 082   ----------------------------------------
 .byte   W96
@ 083   ----------------------------------------
 .byte   N96
 .byte   W96
@ 084   ----------------------------------------
 .byte   W96
@ 085   ----------------------------------------
 .byte   W96
@ 086   ----------------------------------------
 .byte   W96
@ 087   ----------------------------------------
 .byte   W96
@ 088   ----------------------------------------
 .byte   W96
@ 089   ----------------------------------------
 .byte   W96
@ 090   ----------------------------------------
 .byte   W96
@ 091   ----------------------------------------
 .byte   W96
@ 092   ----------------------------------------
 .byte   W96
@ 093   ----------------------------------------
 .byte   W96
@ 094   ----------------------------------------
 .byte   W96
@ 095   ----------------------------------------
 .byte   W96
@ 096   ----------------------------------------
 .byte   W96
@ 097   ----------------------------------------
 .byte   W96
@ 098   ----------------------------------------
 .byte   W96
 .byte   FINE

@**************** Track 4 (Midi-Chn.3) ****************@

song0118_004:
@ 000   ----------------------------------------
 .byte   VOL , 34*song0118_mvl/mxv
 .byte   KEYSH , song0118_key+0
 .byte   VOICE , 40
 .byte   W96
@ 001   ----------------------------------------
 .byte   W96
@ 002   ----------------------------------------
Label_3_0158EE7C:
 .byte   N36 ,Fs3 ,v096
 .byte   N36 ,Dn4
 .byte   W36
 .byte   Fs3
 .byte   N36 ,Dn4
 .byte   W60
 .byte   PEND 
@ 003   ----------------------------------------
Label_3_0158EE87:
 .byte   N36 ,Gn3 ,v096
 .byte   N36 ,Dn4
 .byte   W36
 .byte   Gn3
 .byte   N36 ,Dn4
 .byte   W60
 .byte   PEND 
 .byte   PATT
  .word Label_3_0158EE7C
 .byte   PATT
  .word Label_3_0158EE87
 .byte   PATT
  .word Label_3_0158EE7C
 .byte   PATT
  .word Label_3_0158EE87
@ 004   ----------------------------------------
Label_3_0158EEA6:
 .byte   N36 ,Fn3 ,v096
 .byte   N36 ,Dn4
 .byte   W36
 .byte   Fn3
 .byte   N36 ,Dn4
 .byte   W60
 .byte   PEND 
@ 005   ----------------------------------------
Label_3_0158EEB1:
 .byte   N36 ,Fs3 ,v096
 .byte   N36 ,Dn4
 .byte   W36
 .byte   Fs3
 .byte   N36 ,Dn4
 .byte   W36
 .byte   N24 ,Fs3
 .byte   N24 ,Dn4
 .byte   W24
 .byte   PEND 
 .byte   PATT
  .word Label_3_0158EE7C
 .byte   PATT
  .word Label_3_0158EE87
 .byte   PATT
  .word Label_3_0158EEA6
 .byte   PATT
  .word Label_3_0158EE87
 .byte   PATT
  .word Label_3_0158EE7C
 .byte   PATT
  .word Label_3_0158EEA6
 .byte   PATT
  .word Label_3_0158EEA6
@ 006   ----------------------------------------
Label_3_0158EEE4:
 .byte   N36 ,En3 ,v096
 .byte   N36 ,Dn4
 .byte   W36
 .byte   En3
 .byte   N36 ,Dn4
 .byte   W36
 .byte   N24 ,En3
 .byte   N24 ,Dn4
 .byte   W24
 .byte   PEND 
 .byte   PATT
  .word Label_3_0158EEA6
 .byte   PATT
  .word Label_3_0158EEA6
@ 007   ----------------------------------------
Label_3_0158EEFE:
 .byte   W01
 .byte   N36 ,En3 ,v096
 .byte   N36 ,Dn4
 .byte   W36
 .byte   En3
 .byte   N36 ,Dn4
 .byte   W56
 .byte   W03
 .byte   PEND 
@ 008   ----------------------------------------
Label_3_0158EF0B:
 .byte   N36 ,En3 ,v096
 .byte   N36 ,Cs4
 .byte   W36
 .byte   En3
 .byte   N36 ,Cs4
 .byte   W36
 .byte   N24 ,En3
 .byte   N24 ,Cs4
 .byte   W24
 .byte   PEND 
@ 009   ----------------------------------------
 .byte   W96
@ 010   ----------------------------------------
 .byte   W96
@ 011   ----------------------------------------
 .byte   W96
@ 012   ----------------------------------------
 .byte   W96
@ 013   ----------------------------------------
 .byte   W96
@ 014   ----------------------------------------
 .byte   W96
@ 015   ----------------------------------------
 .byte   W96
@ 016   ----------------------------------------
 .byte   W96
@ 017   ----------------------------------------
 .byte   W96
@ 018   ----------------------------------------
 .byte   W96
@ 019   ----------------------------------------
 .byte   W96
@ 020   ----------------------------------------
 .byte   W96
 .byte   PATT
  .word Label_3_0158EEA6
 .byte   PATT
  .word Label_3_0158EEA6
 .byte   PATT
  .word Label_3_0158EEA6
 .byte   PATT
  .word Label_3_0158EEE4
 .byte   PATT
  .word Label_3_0158EEA6
 .byte   PATT
  .word Label_3_0158EE87
@ 021   ----------------------------------------
Label_3_0158EF45:
 .byte   N36 ,Fs3 ,v096
 .byte   W01
 .byte   Dn4
 .byte   W32
 .byte   W03
 .byte   Fs3
 .byte   W01
 .byte   Dn4
 .byte   W56
 .byte   W03
 .byte   PEND 
@ 022   ----------------------------------------
Label_3_0158EF52:
 .byte   N36 ,Fs3 ,v096
 .byte   N36 ,Cs4
 .byte   W36
 .byte   Fs3
 .byte   N36 ,Cs4
 .byte   W36
 .byte   N24 ,Fs3
 .byte   N24 ,Cs4
 .byte   W24
 .byte   PEND 
 .byte   PATT
  .word Label_3_0158EEA6
 .byte   PATT
  .word Label_3_0158EE87
@ 023   ----------------------------------------
Label_3_0158EF6C:
 .byte   N36 ,Fn3 ,v096
 .byte   W01
 .byte   Dn4
 .byte   W32
 .byte   W03
 .byte   Fn3
 .byte   W01
 .byte   Dn4
 .byte   W56
 .byte   W03
 .byte   PEND 
 .byte   PATT
  .word Label_3_0158EF0B
 .byte   PATT
  .word Label_3_0158EEA6
 .byte   PATT
  .word Label_3_0158EE87
@ 024   ----------------------------------------
 .byte   W96
@ 025   ----------------------------------------
 .byte   W96
 .byte   PATT
  .word Label_3_0158EE7C
 .byte   PATT
  .word Label_3_0158EE87
 .byte   PATT
  .word Label_3_0158EE7C
 .byte   PATT
  .word Label_3_0158EE87
 .byte   PATT
  .word Label_3_0158EE7C
 .byte   PATT
  .word Label_3_0158EE87
 .byte   PATT
  .word Label_3_0158EEA6
 .byte   PATT
  .word Label_3_0158EEB1
 .byte   PATT
  .word Label_3_0158EE7C
 .byte   PATT
  .word Label_3_0158EE87
 .byte   PATT
  .word Label_3_0158EEA6
 .byte   PATT
  .word Label_3_0158EE87
@ 026   ----------------------------------------
 .byte   GOTO
  .word Label_3_0158EE7C
 .byte   PATT
  .word Label_3_0158EE7C
 .byte   PATT
  .word Label_3_0158EEA6
 .byte   PATT
  .word Label_3_0158EEA6
 .byte   PATT
  .word Label_3_0158EEE4
 .byte   PATT
  .word Label_3_0158EEA6
 .byte   PATT
  .word Label_3_0158EEA6
 .byte   PATT
  .word Label_3_0158EEFE
 .byte   PATT
  .word Label_3_0158EF0B
@ 027   ----------------------------------------
 .byte   W96
@ 028   ----------------------------------------
 .byte   W96
@ 029   ----------------------------------------
 .byte   W96
@ 030   ----------------------------------------
 .byte   W96
@ 031   ----------------------------------------
 .byte   W96
@ 032   ----------------------------------------
 .byte   W96
@ 033   ----------------------------------------
 .byte   W96
@ 034   ----------------------------------------
 .byte   W96
@ 035   ----------------------------------------
 .byte   W96
@ 036   ----------------------------------------
 .byte   W96
@ 037   ----------------------------------------
 .byte   W96
@ 038   ----------------------------------------
 .byte   W96
 .byte   PATT
  .word Label_3_0158EEA6
 .byte   PATT
  .word Label_3_0158EEA6
 .byte   PATT
  .word Label_3_0158EEA6
 .byte   PATT
  .word Label_3_0158EEE4
 .byte   PATT
  .word Label_3_0158EEA6
 .byte   PATT
  .word Label_3_0158EE87
 .byte   PATT
  .word Label_3_0158EF45
 .byte   PATT
  .word Label_3_0158EF52
 .byte   PATT
  .word Label_3_0158EEA6
 .byte   PATT
  .word Label_3_0158EE87
 .byte   PATT
  .word Label_3_0158EF6C
 .byte   PATT
  .word Label_3_0158EF0B
 .byte   PATT
  .word Label_3_0158EEA6
 .byte   PATT
  .word Label_3_0158EE87
@ 039   ----------------------------------------
 .byte   W96
@ 040   ----------------------------------------
 .byte   W96
 .byte   FINE

@**************** Track 5 (Midi-Chn.4) ****************@

song0118_005:
@ 000   ----------------------------------------
 .byte   VOL , 49*song0118_mvl/mxv
 .byte   KEYSH , song0118_key+0
 .byte   VOICE , 60
 .byte   W96
@ 001   ----------------------------------------
 .byte   W72
 .byte   N06 ,Fs2 ,v112
 .byte   W06
 .byte   An2
 .byte   W06
 .byte   Dn3
 .byte   W06
 .byte   An3
 .byte   W06
@ 002   ----------------------------------------
Label_4_0158F05A:
 .byte   N48 ,Fs3 ,v112
 .byte   W96
@ 003   ----------------------------------------
 .byte   W96
@ 004   ----------------------------------------
 .byte   W96
@ 005   ----------------------------------------
 .byte   W96
@ 006   ----------------------------------------
Label_4_0158F061:
 .byte   N18 ,Dn3 ,v112
 .byte   W18
 .byte   An2
 .byte   W18
 .byte   N12 ,Dn3
 .byte   W12
 .byte   N18 ,En3
 .byte   W18
 .byte   An2
 .byte   W18
 .byte   N12 ,En3
 .byte   W12
 .byte   PEND 
@ 007   ----------------------------------------
Label_4_0158F073:
 .byte   N18 ,Fs3 ,v112
 .byte   W18
 .byte   Gn3
 .byte   W18
 .byte   N12 ,An3
 .byte   W12
 .byte   N36 ,Dn3
 .byte   W36
 .byte   N06
 .byte   W06
 .byte   En3
 .byte   W06
 .byte   PEND 
@ 008   ----------------------------------------
Label_4_0158F084:
 .byte   N36 ,Fn3 ,v112
 .byte   W36
 .byte   N12 ,As2
 .byte   W12
 .byte   N18 ,Cn3
 .byte   W18
 .byte   Cn4
 .byte   W18
 .byte   N12 ,As3
 .byte   W12
 .byte   PEND 
@ 009   ----------------------------------------
 .byte   N96 ,An3
 .byte   W96
@ 010   ----------------------------------------
Label_4_0158F097:
 .byte   N36 ,An3 ,v112
 .byte   W36
 .byte   N06 ,Gn3
 .byte   W06
 .byte   An3
 .byte   W06
 .byte   N36 ,Dn4
 .byte   W36
 .byte   N06 ,An3
 .byte   W06
 .byte   Gn3
 .byte   W06
 .byte   PEND 
@ 011   ----------------------------------------
Label_4_0158F0A9:
 .byte   N18 ,Fs3 ,v112
 .byte   W18
 .byte   Gn3
 .byte   W18
 .byte   N12 ,An3
 .byte   W12
 .byte   N18 ,En4
 .byte   W18
 .byte   Dn4
 .byte   W18
 .byte   N12 ,Fn4
 .byte   W12
 .byte   PEND 
@ 012   ----------------------------------------
Label_4_0158F0BB:
 .byte   N84 ,En4 ,v112
 .byte   W84
 .byte   N06 ,Dn4
 .byte   W06
 .byte   An3
 .byte   W06
 .byte   PEND 
@ 013   ----------------------------------------
Label_4_0158F0C5:
 .byte   N84 ,Cn4 ,v112
 .byte   W84
 .byte   N12 ,As3
 .byte   W12
 .byte   PEND 
@ 014   ----------------------------------------
Label_4_0158F0CD:
 .byte   N18 ,Dn3 ,v112
 .byte   N48 ,An3
 .byte   W18
 .byte   N18 ,An2
 .byte   W18
 .byte   N12 ,Dn3
 .byte   W12
 .byte   N18 ,En3
 .byte   W18
 .byte   An2
 .byte   W18
 .byte   N12 ,En3
 .byte   W12
 .byte   PEND 
 .byte   PATT
  .word Label_4_0158F073
 .byte   PATT
  .word Label_4_0158F084
@ 015   ----------------------------------------
 .byte   N96 ,An3 ,v112
 .byte   W96
 .byte   PATT
  .word Label_4_0158F097
 .byte   PATT
  .word Label_4_0158F0A9
 .byte   PATT
  .word Label_4_0158F0BB
@ 016   ----------------------------------------
 .byte   N96 ,Cn4 ,v112
 .byte   W96
@ 017   ----------------------------------------
 .byte   W96
@ 018   ----------------------------------------
 .byte   W96
@ 019   ----------------------------------------
 .byte   W96
@ 020   ----------------------------------------
 .byte   W96
@ 021   ----------------------------------------
 .byte   W96
@ 022   ----------------------------------------
 .byte   W96
@ 023   ----------------------------------------
 .byte   W96
@ 024   ----------------------------------------
 .byte   W96
@ 025   ----------------------------------------
 .byte   W96
@ 026   ----------------------------------------
 .byte   W96
@ 027   ----------------------------------------
 .byte   W96
@ 028   ----------------------------------------
 .byte   W96
@ 029   ----------------------------------------
Label_4_0158F10F:
 .byte   N36 ,Dn3 ,v096
 .byte   W36
 .byte   An2
 .byte   W36
 .byte   N12 ,Dn3
 .byte   W12
 .byte   An3
 .byte   W12
 .byte   PEND 
@ 030   ----------------------------------------
Label_4_0158F11B:
 .byte   N48 ,Gn3 ,v096
 .byte   W48
 .byte   N18 ,Fn3
 .byte   W18
 .byte   N15 ,En3
 .byte   W15
 .byte   Dn3
 .byte   W15
 .byte   PEND 
@ 031   ----------------------------------------
Label_4_0158F128:
 .byte   N15 ,En3 ,v096
 .byte   W15
 .byte   Fn3
 .byte   W15
 .byte   TIE
 .byte   W66
 .byte   PEND 
@ 032   ----------------------------------------
 .byte   W96
@ 033   ----------------------------------------
 .byte   EOT
 .byte   PATT
  .word Label_4_0158F10F
@ 034   ----------------------------------------
Label_4_0158F138:
 .byte   N36 ,Gn3 ,v096
 .byte   W36
 .byte   N24 ,Fn3
 .byte   W24
 .byte   N12 ,En3
 .byte   W12
 .byte   Fs3
 .byte   W12
 .byte   Gn3
 .byte   W12
 .byte   PEND 
@ 035   ----------------------------------------
 .byte   TIE ,An3
 .byte   W96
@ 036   ----------------------------------------
 .byte   W96
@ 037   ----------------------------------------
 .byte   EOT
 .byte   PATT
  .word Label_4_0158F10F
 .byte   PATT
  .word Label_4_0158F11B
 .byte   PATT
  .word Label_4_0158F128
@ 038   ----------------------------------------
 .byte   W96
@ 039   ----------------------------------------
 .byte   EOT
 .byte   Fn3
 .byte   PATT
  .word Label_4_0158F10F
@ 040   ----------------------------------------
Label_4_0158F163:
 .byte   N36 ,Gn3 ,v096
 .byte   W36
 .byte   N24 ,Fn3
 .byte   W24
 .byte   N12 ,En3
 .byte   W12
 .byte   N24 ,Dn3
 .byte   W24
 .byte   PEND 
@ 041   ----------------------------------------
 .byte   N96 ,Cn4
 .byte   W96
@ 042   ----------------------------------------
 .byte   Cs4
 .byte   W96
@ 043   ----------------------------------------
 .byte   N48 ,Fs3 ,v112
 .byte   W96
@ 044   ----------------------------------------
 .byte   W96
@ 045   ----------------------------------------
 .byte   W96
@ 046   ----------------------------------------
 .byte   W96
 .byte   PATT
  .word Label_4_0158F061
 .byte   PATT
  .word Label_4_0158F073
 .byte   PATT
  .word Label_4_0158F084
@ 047   ----------------------------------------
 .byte   N96 ,An3 ,v112
 .byte   W96
 .byte   PATT
  .word Label_4_0158F097
 .byte   PATT
  .word Label_4_0158F0A9
 .byte   PATT
  .word Label_4_0158F0BB
 .byte   PATT
  .word Label_4_0158F0C5
@ 048   ----------------------------------------
 .byte   GOTO
  .word Label_4_0158F05A
 .byte   PATT
  .word Label_4_0158F0CD
 .byte   PATT
  .word Label_4_0158F073
 .byte   PATT
  .word Label_4_0158F084
@ 049   ----------------------------------------
 .byte   N96 ,An3 ,v112
 .byte   W96
 .byte   PATT
  .word Label_4_0158F097
 .byte   PATT
  .word Label_4_0158F0A9
 .byte   PATT
  .word Label_4_0158F0BB
@ 050   ----------------------------------------
 .byte   N96 ,Cn4 ,v112
 .byte   W96
@ 051   ----------------------------------------
 .byte   W96
@ 052   ----------------------------------------
 .byte   W96
@ 053   ----------------------------------------
 .byte   W96
@ 054   ----------------------------------------
 .byte   W96
@ 055   ----------------------------------------
 .byte   W96
@ 056   ----------------------------------------
 .byte   W96
@ 057   ----------------------------------------
 .byte   W96
@ 058   ----------------------------------------
 .byte   W96
@ 059   ----------------------------------------
 .byte   W96
@ 060   ----------------------------------------
 .byte   W96
@ 061   ----------------------------------------
 .byte   W96
@ 062   ----------------------------------------
 .byte   W96
 .byte   PATT
  .word Label_4_0158F10F
 .byte   PATT
  .word Label_4_0158F11B
 .byte   PATT
  .word Label_4_0158F128
@ 063   ----------------------------------------
 .byte   W96
@ 064   ----------------------------------------
 .byte   EOT
 .byte   Fn3
 .byte   PATT
  .word Label_4_0158F10F
 .byte   PATT
  .word Label_4_0158F138
@ 065   ----------------------------------------
 .byte   TIE ,An3 ,v096
 .byte   W96
@ 066   ----------------------------------------
 .byte   W96
@ 067   ----------------------------------------
 .byte   EOT
 .byte   PATT
  .word Label_4_0158F10F
 .byte   PATT
  .word Label_4_0158F11B
 .byte   PATT
  .word Label_4_0158F128
@ 068   ----------------------------------------
 .byte   W96
@ 069   ----------------------------------------
 .byte   EOT
 .byte   Fn3
 .byte   PATT
  .word Label_4_0158F10F
 .byte   PATT
  .word Label_4_0158F163
@ 070   ----------------------------------------
 .byte   N96 ,Cn4 ,v096
 .byte   W96
@ 071   ----------------------------------------
 .byte   Cs4
 .byte   W96
 .byte   FINE

@**************** Track 6 (Midi-Chn.5) ****************@

song0118_006:
@ 000   ----------------------------------------
 .byte   VOL , 49*song0118_mvl/mxv
 .byte   KEYSH , song0118_key+0
 .byte   VOICE , 73
 .byte   N12 ,Dn4 ,v096
 .byte   W12
 .byte   An3
 .byte   W12
 .byte   Dn4
 .byte   W12
 .byte   Gn4
 .byte   W12
 .byte   N18 ,Fs4
 .byte   W18
 .byte   En4
 .byte   W18
 .byte   N12 ,Dn4
 .byte   W12
@ 001   ----------------------------------------
 .byte   N72 ,An4
 .byte   W96
@ 002   ----------------------------------------
Label_5_0158F23B:
 .byte   W96
@ 003   ----------------------------------------
 .byte   W96
@ 004   ----------------------------------------
Label_5_0158F23D:
 .byte   W72
 .byte   N12 ,Dn3 ,v096
 .byte   W12
 .byte   An3
 .byte   W12
 .byte   PEND 
@ 005   ----------------------------------------
Label_5_0158F245:
 .byte   N18 ,En4 ,v096
 .byte   W18
 .byte   Dn4
 .byte   W18
 .byte   N36 ,An4
 .byte   W36
 .byte   N12 ,En4
 .byte   W12
 .byte   Dn4
 .byte   W12
 .byte   PEND 
@ 006   ----------------------------------------
 .byte   N48 ,An3
 .byte   W96
@ 007   ----------------------------------------
 .byte   W96
@ 008   ----------------------------------------
 .byte   W96
@ 009   ----------------------------------------
Label_5_0158F259:
 .byte   N12 ,En3 ,v096
 .byte   W12
 .byte   Dn3
 .byte   W12
 .byte   An3
 .byte   W12
 .byte   En4
 .byte   W12
 .byte   N48 ,Cs4
 .byte   W48
 .byte   PEND 
@ 010   ----------------------------------------
 .byte   W96
@ 011   ----------------------------------------
 .byte   W96
@ 012   ----------------------------------------
 .byte   W96
@ 013   ----------------------------------------
 .byte   W96
@ 014   ----------------------------------------
 .byte   W96
@ 015   ----------------------------------------
 .byte   W96
@ 016   ----------------------------------------
 .byte   W96
@ 017   ----------------------------------------
 .byte   W96
@ 018   ----------------------------------------
 .byte   W96
@ 019   ----------------------------------------
 .byte   W96
@ 020   ----------------------------------------
 .byte   W96
@ 021   ----------------------------------------
 .byte   W96
@ 022   ----------------------------------------
Label_5_0158F273:
 .byte   N48 ,An3 ,v096
 .byte   W48
 .byte   Gn3
 .byte   W48
 .byte   PEND 
@ 023   ----------------------------------------
Label_5_0158F27A:
 .byte   N36 ,Fn3 ,v096
 .byte   W36
 .byte   Gn3
 .byte   W36
 .byte   N24 ,Fn3
 .byte   W24
 .byte   PEND 
@ 024   ----------------------------------------
Label_5_0158F284:
 .byte   N96 ,En3 ,v096
 .byte   W92
 .byte   W02
 .byte   TIE ,Dn3
 .byte   W02
 .byte   PEND 
@ 025   ----------------------------------------
 .byte   W92
 .byte   W03
 .byte   EOT
 .byte   W01
@ 026   ----------------------------------------
 .byte   TIE ,Cn4
 .byte   W96
@ 027   ----------------------------------------
 .byte   W60
 .byte   EOT
 .byte   N12
 .byte   W12
 .byte   As3
 .byte   W12
 .byte   En3
 .byte   W12
@ 028   ----------------------------------------
 .byte   N96 ,An3
 .byte   W96
@ 029   ----------------------------------------
 .byte   Dn3
 .byte   W96
@ 030   ----------------------------------------
Label_5_0158F2A1:
 .byte   N60 ,Dn3 ,v096
 .byte   W60
 .byte   N12 ,En3
 .byte   W12
 .byte   Fn3
 .byte   W12
 .byte   Dn3
 .byte   W12
 .byte   PEND 
@ 031   ----------------------------------------
Label_5_0158F2AD:
 .byte   N60 ,En3 ,v096
 .byte   W60
 .byte   N12 ,Fn3
 .byte   W12
 .byte   Gn3
 .byte   W12
 .byte   En3
 .byte   W12
 .byte   PEND 
@ 032   ----------------------------------------
 .byte   N96 ,Cs3
 .byte   W96
@ 033   ----------------------------------------
 .byte   N48 ,En3
 .byte   W48
 .byte   An3
 .byte   W48
@ 034   ----------------------------------------
 .byte   W96
@ 035   ----------------------------------------
 .byte   W96
@ 036   ----------------------------------------
 .byte   W96
@ 037   ----------------------------------------
Label_5_0158F2C4:
 .byte   N06 ,Dn4 ,v096
 .byte   W06
 .byte   En4
 .byte   W06
 .byte   Dn4
 .byte   W06
 .byte   En4
 .byte   W06
 .byte   Dn4
 .byte   W12
 .byte   N06
 .byte   W06
 .byte   En4
 .byte   W06
 .byte   Dn4
 .byte   W06
 .byte   En4
 .byte   W06
 .byte   Dn4
 .byte   W12
 .byte   N12 ,Fn4
 .byte   W12
 .byte   En4
 .byte   W12
 .byte   PEND 
@ 038   ----------------------------------------
 .byte   N48 ,An3
 .byte   W96
@ 039   ----------------------------------------
 .byte   W96
@ 040   ----------------------------------------
 .byte   W96
@ 041   ----------------------------------------
 .byte   W96
@ 042   ----------------------------------------
 .byte   W96
@ 043   ----------------------------------------
 .byte   W96
@ 044   ----------------------------------------
 .byte   W96
@ 045   ----------------------------------------
 .byte   W96
@ 046   ----------------------------------------
 .byte   W96
@ 047   ----------------------------------------
 .byte   W96
@ 048   ----------------------------------------
 .byte   W96
@ 049   ----------------------------------------
 .byte   W96
@ 050   ----------------------------------------
 .byte   W96
@ 051   ----------------------------------------
 .byte   W96
 .byte   PATT
  .word Label_5_0158F23D
 .byte   PATT
  .word Label_5_0158F245
@ 052   ----------------------------------------
 .byte   N48 ,An3 ,v096
 .byte   W96
@ 053   ----------------------------------------
 .byte   W96
@ 054   ----------------------------------------
 .byte   W96
 .byte   PATT
  .word Label_5_0158F259
@ 055   ----------------------------------------
 .byte   W96
@ 056   ----------------------------------------
 .byte   W96
@ 057   ----------------------------------------
 .byte   W96
@ 058   ----------------------------------------
 .byte   W96
@ 059   ----------------------------------------
 .byte   GOTO
  .word Label_5_0158F23B
@ 060   ----------------------------------------
 .byte   W96
@ 061   ----------------------------------------
 .byte   W96
@ 062   ----------------------------------------
 .byte   W96
@ 063   ----------------------------------------
 .byte   W96
@ 064   ----------------------------------------
 .byte   W96
@ 065   ----------------------------------------
 .byte   W96
@ 066   ----------------------------------------
 .byte   W96
@ 067   ----------------------------------------
 .byte   W96
 .byte   PATT
  .word Label_5_0158F273
 .byte   PATT
  .word Label_5_0158F27A
 .byte   PATT
  .word Label_5_0158F284
@ 068   ----------------------------------------
 .byte   W92
 .byte   W03
 .byte   EOT
 .byte   Dn3
 .byte   W01
@ 069   ----------------------------------------
 .byte   TIE ,Cn4 ,v096
 .byte   W96
@ 070   ----------------------------------------
 .byte   W60
 .byte   EOT
 .byte   N12
 .byte   W12
 .byte   As3
 .byte   W12
 .byte   En3
 .byte   W12
@ 071   ----------------------------------------
 .byte   N96 ,An3
 .byte   W96
@ 072   ----------------------------------------
 .byte   Dn3
 .byte   W96
 .byte   PATT
  .word Label_5_0158F2A1
 .byte   PATT
  .word Label_5_0158F2AD
@ 073   ----------------------------------------
 .byte   N96 ,Cs3 ,v096
 .byte   W96
@ 074   ----------------------------------------
 .byte   N48 ,En3
 .byte   W48
 .byte   An3
 .byte   W48
@ 075   ----------------------------------------
 .byte   W96
@ 076   ----------------------------------------
 .byte   W96
@ 077   ----------------------------------------
 .byte   W96
 .byte   PATT
  .word Label_5_0158F2C4
@ 078   ----------------------------------------
 .byte   N48 ,An3 ,v096
 .byte   W96
@ 079   ----------------------------------------
 .byte   W96
@ 080   ----------------------------------------
 .byte   W96
@ 081   ----------------------------------------
 .byte   W96
@ 082   ----------------------------------------
 .byte   W96
@ 083   ----------------------------------------
 .byte   W96
@ 084   ----------------------------------------
 .byte   W96
@ 085   ----------------------------------------
 .byte   W96
@ 086   ----------------------------------------
 .byte   W96
@ 087   ----------------------------------------
 .byte   W96
@ 088   ----------------------------------------
 .byte   W96
@ 089   ----------------------------------------
 .byte   W96
 .byte   FINE

@**************** Track 7 (Midi-Chn.6) ****************@

song0118_007:
@ 000   ----------------------------------------
 .byte   VOL , 49*song0118_mvl/mxv
 .byte   KEYSH , song0118_key+0
 .byte   VOICE , 33
 .byte   W96
@ 001   ----------------------------------------
 .byte   W96
@ 002   ----------------------------------------
Label_6_0158F370:
 .byte   N12 ,Dn2 ,v100
 .byte   W12
 .byte   N36
 .byte   W36
 .byte   N36
 .byte   W36
 .byte   N12
 .byte   W12
 .byte   PEND 
@ 003   ----------------------------------------
Label_6_0158F37B:
 .byte   N12 ,Dn2 ,v100
 .byte   W12
 .byte   N24
 .byte   W24
 .byte   N24
 .byte   W24
 .byte   N12
 .byte   W12
 .byte   N12
 .byte   W12
 .byte   An1
 .byte   W12
 .byte   PEND 
 .byte   PATT
  .word Label_6_0158F370
 .byte   PATT
  .word Label_6_0158F37B
 .byte   PATT
  .word Label_6_0158F370
 .byte   PATT
  .word Label_6_0158F37B
 .byte   PATT
  .word Label_6_0158F370
 .byte   PATT
  .word Label_6_0158F37B
 .byte   PATT
  .word Label_6_0158F370
 .byte   PATT
  .word Label_6_0158F37B
 .byte   PATT
  .word Label_6_0158F370
 .byte   PATT
  .word Label_6_0158F37B
 .byte   PATT
  .word Label_6_0158F370
 .byte   PATT
  .word Label_6_0158F37B
 .byte   PATT
  .word Label_6_0158F370
 .byte   PATT
  .word Label_6_0158F37B
 .byte   PATT
  .word Label_6_0158F370
 .byte   PATT
  .word Label_6_0158F37B
 .byte   PATT
  .word Label_6_0158F370
 .byte   PATT
  .word Label_6_0158F37B
 .byte   PATT
  .word Label_6_0158F370
 .byte   PATT
  .word Label_6_0158F37B
 .byte   PATT
  .word Label_6_0158F370
 .byte   PATT
  .word Label_6_0158F37B
 .byte   PATT
  .word Label_6_0158F370
 .byte   PATT
  .word Label_6_0158F37B
 .byte   PATT
  .word Label_6_0158F370
 .byte   PATT
  .word Label_6_0158F37B
 .byte   PATT
  .word Label_6_0158F370
 .byte   PATT
  .word Label_6_0158F37B
@ 004   ----------------------------------------
Label_6_0158F416:
 .byte   N12 ,Cs2 ,v100
 .byte   W12
 .byte   N36
 .byte   W36
 .byte   N36
 .byte   W36
 .byte   N12
 .byte   W12
 .byte   PEND 
@ 005   ----------------------------------------
Label_6_0158F421:
 .byte   N12 ,Cs2 ,v100
 .byte   W12
 .byte   N24
 .byte   W24
 .byte   N24
 .byte   W24
 .byte   N12
 .byte   W12
 .byte   N12
 .byte   W12
 .byte   An1
 .byte   W12
 .byte   PEND 
 .byte   PATT
  .word Label_6_0158F370
 .byte   PATT
  .word Label_6_0158F37B
 .byte   PATT
  .word Label_6_0158F370
 .byte   PATT
  .word Label_6_0158F37B
 .byte   PATT
  .word Label_6_0158F370
 .byte   PATT
  .word Label_6_0158F37B
 .byte   PATT
  .word Label_6_0158F370
 .byte   PATT
  .word Label_6_0158F37B
 .byte   PATT
  .word Label_6_0158F370
 .byte   PATT
  .word Label_6_0158F37B
 .byte   PATT
  .word Label_6_0158F370
 .byte   PATT
  .word Label_6_0158F37B
 .byte   PATT
  .word Label_6_0158F370
 .byte   PATT
  .word Label_6_0158F37B
 .byte   PATT
  .word Label_6_0158F370
 .byte   PATT
  .word Label_6_0158F37B
 .byte   PATT
  .word Label_6_0158F370
 .byte   PATT
  .word Label_6_0158F37B
 .byte   PATT
  .word Label_6_0158F370
 .byte   PATT
  .word Label_6_0158F37B
 .byte   PATT
  .word Label_6_0158F370
 .byte   PATT
  .word Label_6_0158F37B
 .byte   PATT
  .word Label_6_0158F370
 .byte   PATT
  .word Label_6_0158F37B
 .byte   PATT
  .word Label_6_0158F370
 .byte   PATT
  .word Label_6_0158F37B
 .byte   PATT
  .word Label_6_0158F370
 .byte   PATT
  .word Label_6_0158F37B
@ 006   ----------------------------------------
 .byte   GOTO
  .word Label_6_0158F370
 .byte   PATT
  .word Label_6_0158F370
 .byte   PATT
  .word Label_6_0158F37B
 .byte   PATT
  .word Label_6_0158F370
 .byte   PATT
  .word Label_6_0158F37B
 .byte   PATT
  .word Label_6_0158F370
 .byte   PATT
  .word Label_6_0158F37B
 .byte   PATT
  .word Label_6_0158F370
 .byte   PATT
  .word Label_6_0158F37B
 .byte   PATT
  .word Label_6_0158F370
 .byte   PATT
  .word Label_6_0158F37B
 .byte   PATT
  .word Label_6_0158F370
 .byte   PATT
  .word Label_6_0158F37B
 .byte   PATT
  .word Label_6_0158F370
 .byte   PATT
  .word Label_6_0158F37B
 .byte   PATT
  .word Label_6_0158F370
 .byte   PATT
  .word Label_6_0158F37B
 .byte   PATT
  .word Label_6_0158F370
 .byte   PATT
  .word Label_6_0158F37B
 .byte   PATT
  .word Label_6_0158F416
 .byte   PATT
  .word Label_6_0158F421
 .byte   PATT
  .word Label_6_0158F370
 .byte   PATT
  .word Label_6_0158F37B
 .byte   PATT
  .word Label_6_0158F370
 .byte   PATT
  .word Label_6_0158F37B
 .byte   PATT
  .word Label_6_0158F370
 .byte   PATT
  .word Label_6_0158F37B
 .byte   PATT
  .word Label_6_0158F370
 .byte   PATT
  .word Label_6_0158F37B
 .byte   PATT
  .word Label_6_0158F370
 .byte   PATT
  .word Label_6_0158F37B
 .byte   PATT
  .word Label_6_0158F370
 .byte   PATT
  .word Label_6_0158F37B
 .byte   PATT
  .word Label_6_0158F370
 .byte   PATT
  .word Label_6_0158F37B
 .byte   PATT
  .word Label_6_0158F370
 .byte   PATT
  .word Label_6_0158F37B
 .byte   FINE

@**************** Track 8 (Midi-Chn.7) ****************@

song0118_008:
@ 000   ----------------------------------------
 .byte   VOL , 33*song0118_mvl/mxv
 .byte   KEYSH , song0118_key+0
 .byte   VOICE , 48
 .byte   N18 ,An2 ,v096
 .byte   W18
 .byte   Gn2
 .byte   W18
 .byte   N12 ,An2
 .byte   W12
 .byte   N18 ,Dn3
 .byte   W18
 .byte   An2
 .byte   W18
 .byte   N12 ,Dn3
 .byte   W12
@ 001   ----------------------------------------
 .byte   N18 ,Cn3
 .byte   N18 ,En3
 .byte   W18
 .byte   An2
 .byte   N18 ,Dn3
 .byte   W18
 .byte   N12 ,Cn3
 .byte   N12 ,En3
 .byte   W12
 .byte   N24
 .byte   N24 ,An3
 .byte   W24
 .byte   Gn3
 .byte   N24 ,Cs4
 .byte   W24
@ 002   ----------------------------------------
Label_7_0158F5A5:
 .byte   N96 ,Dn3 ,v096
 .byte   N96 ,Fs3
 .byte   W96
@ 003   ----------------------------------------
 .byte   Dn3
 .byte   N96 ,Gn3
 .byte   W96
@ 004   ----------------------------------------
Label_7_0158F5AF:
 .byte   N96 ,Dn3 ,v096
 .byte   TIE ,An3
 .byte   W96
 .byte   PEND 
@ 005   ----------------------------------------
 .byte   Dn3
 .byte   W48
 .byte   EOT
 .byte   An3
 .byte   N48 ,Gn3
 .byte   W48
@ 006   ----------------------------------------
 .byte   TIE ,Fs3
 .byte   W96
@ 007   ----------------------------------------
 .byte   W96
@ 008   ----------------------------------------
 .byte   EOT
 .byte   Dn3 ,v066
 .byte   N96 ,Dn3
 .byte   N96 ,Fn3
 .byte   W96
@ 009   ----------------------------------------
 .byte   Dn3
 .byte   N96 ,Fs3
 .byte   W96
@ 010   ----------------------------------------
Label_7_0158F5CD:
 .byte   TIE ,Dn3 ,v096
 .byte   TIE ,Fs3
 .byte   W96
 .byte   PEND 
@ 011   ----------------------------------------
 .byte   W96
@ 012   ----------------------------------------
 .byte   EOT
 .byte   Dn3 ,v066
 .byte   N96 ,Dn3
 .byte   N96 ,Fn3
 .byte   W96
@ 013   ----------------------------------------
 .byte   Dn3
 .byte   N96 ,Gn3
 .byte   W96
@ 014   ----------------------------------------
 .byte   Dn3
 .byte   N96 ,Fs3
 .byte   W96
@ 015   ----------------------------------------
 .byte   Dn3
 .byte   N96 ,Gn3
 .byte   W96
 .byte   PATT
  .word Label_7_0158F5AF
@ 016   ----------------------------------------
 .byte   TIE ,Dn3 ,v096
 .byte   W48
 .byte   EOT
 .byte   An3
 .byte   N48 ,Gn3
 .byte   W48
@ 017   ----------------------------------------
 .byte   TIE ,Fn3
 .byte   W96
@ 018   ----------------------------------------
 .byte   W96
@ 019   ----------------------------------------
 .byte   EOT
 .byte   Dn3 ,v065
 .byte   N96 ,As2
 .byte   N96 ,An3
 .byte   W96
@ 020   ----------------------------------------
 .byte   As2
 .byte   N96 ,An3
 .byte   W96
@ 021   ----------------------------------------
 .byte   Dn3
 .byte   N96 ,Fn3
 .byte   W96
@ 022   ----------------------------------------
 .byte   Cs3
 .byte   N96 ,Gn3
 .byte   W96
@ 023   ----------------------------------------
 .byte   Cn3
 .byte   N96 ,An3
 .byte   W96
@ 024   ----------------------------------------
 .byte   Bn2
 .byte   N96 ,As3
 .byte   W96
@ 025   ----------------------------------------
 .byte   An2
 .byte   N96 ,Cn4
 .byte   W96
@ 026   ----------------------------------------
 .byte   Cs3
 .byte   N96 ,Cn4
 .byte   W96
@ 027   ----------------------------------------
 .byte   En3
 .byte   N96 ,Cn4
 .byte   W96
@ 028   ----------------------------------------
 .byte   Dn3
 .byte   N96 ,Dn4
 .byte   W96
@ 029   ----------------------------------------
 .byte   As2
 .byte   N96 ,Cn4
 .byte   W96
@ 030   ----------------------------------------
 .byte   Dn3
 .byte   N96 ,Cn4
 .byte   W96
@ 031   ----------------------------------------
Label_7_0158F62F:
 .byte   TIE ,Gn3 ,v096
 .byte   TIE ,Cs4
 .byte   W96
 .byte   PEND 
@ 032   ----------------------------------------
 .byte   W96
@ 033   ----------------------------------------
 .byte   EOT
 .byte   Gn3 ,v073
Label_7_0158F63A:
 .byte   TIE ,Fn3 ,v096
 .byte   TIE ,Dn4
 .byte   W96
 .byte   PEND 
@ 034   ----------------------------------------
 .byte   W96
@ 035   ----------------------------------------
 .byte   EOT
 .byte   Fn3 ,v074
Label_7_0158F645:
 .byte   TIE ,Fn3 ,v096
 .byte   TIE ,En4
 .byte   W96
 .byte   PEND 
@ 036   ----------------------------------------
 .byte   W96
@ 037   ----------------------------------------
 .byte   EOT
 .byte   Fn3 ,v076
Label_7_0158F650:
 .byte   N96 ,Fn3 ,v096
 .byte   TIE ,Dn4
 .byte   W96
 .byte   PEND 
@ 038   ----------------------------------------
 .byte   N96 ,Gn3
 .byte   W96
@ 039   ----------------------------------------
 .byte   EOT
 .byte   Dn4
Label_7_0158F65C:
 .byte   TIE ,Fs3 ,v096
 .byte   TIE ,En4
 .byte   W96
 .byte   PEND 
@ 040   ----------------------------------------
 .byte   W96
@ 041   ----------------------------------------
 .byte   EOT
 .byte   Fs3 ,v076
 .byte   PATT
  .word Label_7_0158F63A
@ 042   ----------------------------------------
 .byte   W96
@ 043   ----------------------------------------
 .byte   EOT
 .byte   Fn3 ,v074
 .byte   PATT
  .word Label_7_0158F645
@ 044   ----------------------------------------
 .byte   W96
@ 045   ----------------------------------------
 .byte   EOT
 .byte   Fn3 ,v076
 .byte   PATT
  .word Label_7_0158F650
@ 046   ----------------------------------------
 .byte   N96 ,Gn3 ,v096
 .byte   W96
@ 047   ----------------------------------------
 .byte   EOT
 .byte   Dn4
 .byte   PATT
  .word Label_7_0158F65C
@ 048   ----------------------------------------
 .byte   W96
@ 049   ----------------------------------------
 .byte   EOT
 .byte   Fs3 ,v076
 .byte   N96 ,Dn3 ,v096
 .byte   N96 ,Fs3
 .byte   W96
@ 050   ----------------------------------------
 .byte   Dn3
 .byte   N96 ,Gn3
 .byte   W96
 .byte   PATT
  .word Label_7_0158F5AF
@ 051   ----------------------------------------
 .byte   TIE ,Dn3 ,v096
 .byte   W48
 .byte   EOT
 .byte   An3
 .byte   N48 ,Gn3
 .byte   W48
@ 052   ----------------------------------------
 .byte   TIE ,Fs3
 .byte   W96
@ 053   ----------------------------------------
 .byte   W96
@ 054   ----------------------------------------
 .byte   EOT
 .byte   Dn3 ,v066
 .byte   N96 ,Dn3
 .byte   N96 ,Fn3
 .byte   W96
@ 055   ----------------------------------------
 .byte   Dn3
 .byte   N96 ,Fs3
 .byte   W96
 .byte   PATT
  .word Label_7_0158F5CD
@ 056   ----------------------------------------
 .byte   W96
@ 057   ----------------------------------------
 .byte   EOT
 .byte   Dn3 ,v066
 .byte   N96 ,Dn3 ,v096
 .byte   N96 ,Fn3
 .byte   W96
@ 058   ----------------------------------------
 .byte   Dn3
 .byte   N96 ,Gn3
 .byte   W96
@ 059   ----------------------------------------
 .byte   GOTO
  .word Label_7_0158F5A5
@ 060   ----------------------------------------
 .byte   N96 ,Dn3 ,v096
 .byte   N96 ,Fs3
 .byte   W96
@ 061   ----------------------------------------
 .byte   Dn3
 .byte   N96 ,Gn3
 .byte   W96
 .byte   PATT
  .word Label_7_0158F5AF
@ 062   ----------------------------------------
 .byte   TIE ,Dn3 ,v096
 .byte   W48
 .byte   EOT
 .byte   An3
 .byte   N48 ,Gn3
 .byte   W48
@ 063   ----------------------------------------
 .byte   TIE ,Fn3
 .byte   W96
@ 064   ----------------------------------------
 .byte   W96
@ 065   ----------------------------------------
 .byte   EOT
 .byte   Dn3 ,v065
 .byte   N96 ,As2
 .byte   N96 ,An3
 .byte   W96
@ 066   ----------------------------------------
 .byte   As2
 .byte   N96 ,An3
 .byte   W96
@ 067   ----------------------------------------
 .byte   Dn3
 .byte   N96 ,Fn3
 .byte   W96
@ 068   ----------------------------------------
 .byte   Cs3
 .byte   N96 ,Gn3
 .byte   W96
@ 069   ----------------------------------------
 .byte   Cn3
 .byte   N96 ,An3
 .byte   W96
@ 070   ----------------------------------------
 .byte   Bn2
 .byte   N96 ,As3
 .byte   W96
@ 071   ----------------------------------------
 .byte   An2
 .byte   N96 ,Cn4
 .byte   W96
@ 072   ----------------------------------------
 .byte   Cs3
 .byte   N96 ,Cn4
 .byte   W96
@ 073   ----------------------------------------
 .byte   En3
 .byte   N96 ,Cn4
 .byte   W96
@ 074   ----------------------------------------
 .byte   Dn3
 .byte   N96 ,Dn4
 .byte   W96
@ 075   ----------------------------------------
 .byte   As2
 .byte   N96 ,Cn4
 .byte   W96
@ 076   ----------------------------------------
 .byte   Dn3
 .byte   N96 ,Cn4
 .byte   W96
 .byte   PATT
  .word Label_7_0158F62F
@ 077   ----------------------------------------
 .byte   W96
@ 078   ----------------------------------------
 .byte   EOT
 .byte   Gn3 ,v073
 .byte   PATT
  .word Label_7_0158F63A
@ 079   ----------------------------------------
 .byte   W96
@ 080   ----------------------------------------
 .byte   EOT
 .byte   Fn3 ,v074
 .byte   PATT
  .word Label_7_0158F645
@ 081   ----------------------------------------
 .byte   W96
@ 082   ----------------------------------------
 .byte   EOT
 .byte   Fn3 ,v076
 .byte   PATT
  .word Label_7_0158F650
@ 083   ----------------------------------------
 .byte   N96 ,Gn3 ,v096
 .byte   W96
@ 084   ----------------------------------------
 .byte   EOT
 .byte   Dn4
 .byte   PATT
  .word Label_7_0158F65C
@ 085   ----------------------------------------
 .byte   W96
@ 086   ----------------------------------------
 .byte   EOT
 .byte   Fs3 ,v076
 .byte   PATT
  .word Label_7_0158F63A
@ 087   ----------------------------------------
 .byte   W96
@ 088   ----------------------------------------
 .byte   EOT
 .byte   Fn3 ,v074
 .byte   PATT
  .word Label_7_0158F645
@ 089   ----------------------------------------
 .byte   W96
@ 090   ----------------------------------------
 .byte   EOT
 .byte   Fn3 ,v076
 .byte   PATT
  .word Label_7_0158F650
@ 091   ----------------------------------------
 .byte   N96 ,Gn3 ,v096
 .byte   W96
@ 092   ----------------------------------------
 .byte   EOT
 .byte   Dn4
 .byte   PATT
  .word Label_7_0158F65C
@ 093   ----------------------------------------
 .byte   W96
@ 094   ----------------------------------------
 .byte   EOT
 .byte   Fs3 ,v076
 .byte   FINE

@**************** Track 9 (Midi-Chn.8) ****************@

song0118_009:
@ 000   ----------------------------------------
 .byte   VOL , 49*song0118_mvl/mxv
 .byte   KEYSH , song0118_key+0
 .byte   VOICE , 14
 .byte   W96
@ 001   ----------------------------------------
 .byte   W96
@ 002   ----------------------------------------
Label_8_0158F77C:
 .byte   N24 ,Dn4 ,v104
 .byte   W96
@ 003   ----------------------------------------
 .byte   W96
@ 004   ----------------------------------------
 .byte   Dn4 ,v100
 .byte   W96
@ 005   ----------------------------------------
Label_8_0158F784:
 .byte   W24
 .byte   N24 ,Dn4 ,v100
 .byte   W24
 .byte   An3
 .byte   W24
 .byte   Dn3
 .byte   W24
 .byte   PEND 
@ 006   ----------------------------------------
 .byte   W96
@ 007   ----------------------------------------
 .byte   W96
@ 008   ----------------------------------------
 .byte   W96
@ 009   ----------------------------------------
 .byte   W96
@ 010   ----------------------------------------
 .byte   Dn4 ,v104
 .byte   W96
@ 011   ----------------------------------------
 .byte   W96
@ 012   ----------------------------------------
 .byte   W96
@ 013   ----------------------------------------
 .byte   W96
@ 014   ----------------------------------------
 .byte   N24
 .byte   W96
@ 015   ----------------------------------------
 .byte   W96
@ 016   ----------------------------------------
 .byte   W96
@ 017   ----------------------------------------
 .byte   W96
@ 018   ----------------------------------------
 .byte   W96
@ 019   ----------------------------------------
 .byte   N24
 .byte   W96
@ 020   ----------------------------------------
 .byte   W96
@ 021   ----------------------------------------
 .byte   W96
@ 022   ----------------------------------------
Label_8_0158F7A2:
 .byte   N24 ,Dn4 ,v104
 .byte   W36
 .byte   N24
 .byte   W60
 .byte   PEND 
@ 023   ----------------------------------------
 .byte   W96
@ 024   ----------------------------------------
 .byte   W96
@ 025   ----------------------------------------
 .byte   W96
 .byte   PATT
  .word Label_8_0158F7A2
@ 026   ----------------------------------------
 .byte   W96
@ 027   ----------------------------------------
 .byte   W96
@ 028   ----------------------------------------
 .byte   W96
 .byte   PATT
  .word Label_8_0158F7A2
@ 029   ----------------------------------------
 .byte   W96
@ 030   ----------------------------------------
Label_8_0158F7BA:
 .byte   N24 ,Cs4 ,v104
 .byte   W36
 .byte   N24
 .byte   W60
 .byte   PEND 
@ 031   ----------------------------------------
Label_8_0158F7C1:
 .byte   N24 ,En4 ,v104
 .byte   W36
 .byte   N24
 .byte   W60
 .byte   PEND 
@ 032   ----------------------------------------
 .byte   Dn4
 .byte   W96
@ 033   ----------------------------------------
 .byte   W96
@ 034   ----------------------------------------
 .byte   W96
@ 035   ----------------------------------------
 .byte   W96
@ 036   ----------------------------------------
 .byte   N24
 .byte   W96
@ 037   ----------------------------------------
 .byte   W96
@ 038   ----------------------------------------
 .byte   W96
@ 039   ----------------------------------------
 .byte   W96
@ 040   ----------------------------------------
 .byte   N24
 .byte   W96
@ 041   ----------------------------------------
 .byte   W96
@ 042   ----------------------------------------
 .byte   W96
@ 043   ----------------------------------------
 .byte   W96
@ 044   ----------------------------------------
 .byte   N24
 .byte   W96
@ 045   ----------------------------------------
 .byte   W96
@ 046   ----------------------------------------
 .byte   W96
@ 047   ----------------------------------------
 .byte   Cs4
 .byte   W96
@ 048   ----------------------------------------
 .byte   Dn4
 .byte   W96
@ 049   ----------------------------------------
 .byte   W96
@ 050   ----------------------------------------
 .byte   Dn4 ,v100
 .byte   W96
 .byte   PATT
  .word Label_8_0158F784
@ 051   ----------------------------------------
 .byte   W96
@ 052   ----------------------------------------
 .byte   W96
@ 053   ----------------------------------------
 .byte   W96
@ 054   ----------------------------------------
 .byte   W96
@ 055   ----------------------------------------
 .byte   N24 ,Dn4 ,v104
 .byte   W96
@ 056   ----------------------------------------
 .byte   W96
@ 057   ----------------------------------------
 .byte   W96
@ 058   ----------------------------------------
 .byte   W96
@ 059   ----------------------------------------
 .byte   GOTO
  .word Label_8_0158F77C
@ 060   ----------------------------------------
 .byte   N24 ,Dn4 ,v104
 .byte   W96
@ 061   ----------------------------------------
 .byte   W96
@ 062   ----------------------------------------
 .byte   W96
@ 063   ----------------------------------------
 .byte   W96
@ 064   ----------------------------------------
 .byte   W96
@ 065   ----------------------------------------
 .byte   N24
 .byte   W96
@ 066   ----------------------------------------
 .byte   W96
@ 067   ----------------------------------------
 .byte   W96
 .byte   PATT
  .word Label_8_0158F7A2
@ 068   ----------------------------------------
 .byte   W96
@ 069   ----------------------------------------
 .byte   W96
@ 070   ----------------------------------------
 .byte   W96
 .byte   PATT
  .word Label_8_0158F7A2
@ 071   ----------------------------------------
 .byte   W96
@ 072   ----------------------------------------
 .byte   W96
@ 073   ----------------------------------------
 .byte   W96
 .byte   PATT
  .word Label_8_0158F7A2
@ 074   ----------------------------------------
 .byte   W96
 .byte   PATT
  .word Label_8_0158F7BA
 .byte   PATT
  .word Label_8_0158F7C1
@ 075   ----------------------------------------
 .byte   N24 ,Dn4 ,v104
 .byte   W96
@ 076   ----------------------------------------
 .byte   W96
@ 077   ----------------------------------------
 .byte   W96
@ 078   ----------------------------------------
 .byte   W96
@ 079   ----------------------------------------
 .byte   N24
 .byte   W96
@ 080   ----------------------------------------
 .byte   W96
@ 081   ----------------------------------------
 .byte   W96
@ 082   ----------------------------------------
 .byte   W96
@ 083   ----------------------------------------
 .byte   N24
 .byte   W96
@ 084   ----------------------------------------
 .byte   W96
@ 085   ----------------------------------------
 .byte   W96
@ 086   ----------------------------------------
 .byte   W96
@ 087   ----------------------------------------
 .byte   N24
 .byte   W96
@ 088   ----------------------------------------
 .byte   W96
@ 089   ----------------------------------------
 .byte   W96
@ 090   ----------------------------------------
 .byte   Cs4
 .byte   W96
 .byte   FINE

@******************************************************@
	.align	2

song0118:
	.byte	9	@ NumTrks
	.byte	0	@ NumBlks
	.byte	song0118_pri	@ Priority
	.byte	song0118_rev	@ Reverb.
    
	.word	song0118_grp
    
	.word	song0118_001
	.word	song0118_002
	.word	song0118_003
	.word	song0118_004
	.word	song0118_005
	.word	song0118_006
	.word	song0118_007
	.word	song0118_008
	.word	song0118_009

	.end
